<?xml version="1.0" encoding="UTF-8"?>
<svg id="Layer_2" data-name="Layer 2" xmlns="http://www.w3.org/2000/svg" viewBox="0 0 294.18 257.48">
  <defs>
    <style>
      .cls-1 {
        fill: #921716;
      }
    </style>
  </defs>
  <g id="Layer_1-2" data-name="Layer 1">
    <path class="cls-1" d="M280.13,256.55l-99.82-45.6c-12.23-5.59-20.08-17.8-20.07-31.25v-14.65s69.47,21.75,69.47,21.75l.06-17.35-69.53-43.47.09-47.2c.02-7.66-5.75-13.52-12.87-13.54-7.54-.03-13.25,5.76-13.24,13.52l-.03,47.22-69.63,43.37v17.33s69.62-21.63,69.62-21.63l-.02,14.59c-.02,13.44-7.88,25.64-20.12,31.2l-99.97,45.5c-8.76,3.99-17.48-5.62-12.66-13.96L138.7,4.94c3.81-6.59,13.33-6.59,17.14.01l136.97,237.65c4.81,8.34-3.92,17.94-12.68,13.94Z"/>
  </g>
</svg>