<?xml version="1.0" encoding="UTF-8"?>
<svg id="Layer_2" data-name="Layer 2" xmlns="http://www.w3.org/2000/svg" viewBox="0 0 903.67 258.12">
  <defs>
    <style>
      .cls-1 {
        fill: #01796f;
      }

      .cls-2 {
        fill: #921716;
      }
    </style>
  </defs>
  <g id="Layer_1-2" data-name="Layer 1">
    <path class="cls-1" d="M242.85,9.34l-.18,239.23c0,5.01-4.07,9.08-9.08,9.07l-45.45-.03c-5.01,0-9.08-4.07-9.07-9.08l.06-87.53c0-.16-.13-.28-.28-.28l-114.88-.08c-.16,0-.28.13-.28.28l-.06,87.53c0,5.01-4.07,9.08-9.08,9.07l-45.45-.03C4.06,257.47,0,253.4,0,248.39L.18,9.16C.18,4.14,4.25.08,9.26.09l45.45.03c5.01,0,9.08,4.07,9.07,9.08l-.06,87.53c0,.16.13.28.28.28l114.88.08c.16,0,.28-.13.28-.28l.06-87.53c0-5.01,4.07-9.08,9.08-9.07l45.45.03c5.01,0,9.08,4.07,9.07,9.08Z"/>
    <path class="cls-1" d="M311.34,80.32h0c0,9.23,6.14,16.72,13.72,16.73l123.08.09h.27c36.44.03,65.95,36.01,65.92,80.38-.03,43.99-29.11,79.68-65.12,80.25l-177.23-.1c-4.12,0-7.45-4.07-7.45-9.08l.03-45.45c0-5.01,3.34-9.08,7.46-9.07l175.82.13c7.58,0,13.74-7.48,13.74-16.71h0c0-9.23-6.14-16.72-13.72-16.73l-123.08-.09h-.27c-36.44-.03-65.95-36.01-65.92-80.38S287.71.57,323.72,0l183.27.14c4.12,0,7.45,4.07,7.45,9.08l-.03,45.45c0,5.01-3.34,9.08-7.46,9.07l-181.86-.13c-7.58,0-13.74,7.48-13.74,16.71Z"/>
    <path class="cls-1" d="M530.08,248.78l.18-239.23c0-5.01,4.07-9.08,9.08-9.07l45.45.03c5.01,0,9.08,4.07,9.07,9.08l-.18,239.23c0,5.01-4.07,9.08-9.08,9.07l-45.45-.03c-5.01,0-9.08-4.07-9.07-9.08Z"/>
    <path class="cls-2" d="M889.62,257.19l-99.82-45.6c-12.23-5.59-20.08-17.8-20.07-31.25v-14.65s69.47,21.75,69.47,21.75l.06-17.35-69.53-43.47.09-47.2c.02-7.66-5.75-13.52-12.87-13.54-7.54-.03-13.25,5.76-13.24,13.52l-.03,47.22-69.63,43.37v17.33s69.62-21.63,69.62-21.63l-.02,14.59c-.02,13.44-7.88,25.64-20.12,31.2l-99.97,45.5c-8.76,3.99-17.48-5.62-12.66-13.96L748.19,5.58c3.81-6.59,13.33-6.59,17.14.01l136.97,237.65c4.81,8.34-3.92,17.94-12.68,13.94Z"/>
  </g>
</svg>