<?xml version="1.0" encoding="UTF-8" ?>
<!DOCTYPE svg PUBLIC "-//W3C//DTD SVG 1.1//EN" "http://www.w3.org/Graphics/SVG/1.1/DTD/svg11.dtd">
<svg width="398.25pt" height="141pt" viewBox="0 0 3722 1320" version="1.1" xmlns="http://www.w3.org/2000/svg">
<g id="#ec008cff">
<path fill="#ec008c" opacity="1.00" d=" M 1533.40 5.66 C 1538.48 4.24 1543.79 4.74 1549.00 4.69 C 1565.33 4.66 1581.67 4.75 1598.01 4.64 C 1602.94 4.52 1607.61 6.52 1612.55 6.59 C 1668.00 10.02 1722.48 23.01 1774.85 41.16 C 1815.61 55.34 1855.20 73.24 1891.83 96.15 C 1936.82 124.75 1979.58 157.01 2018.35 193.65 C 2030.77 205.56 2043.09 217.62 2054.29 230.70 C 2067.10 246.07 2077.82 264.02 2081.06 284.02 C 2084.39 300.96 2082.50 318.55 2078.05 335.10 C 2073.24 353.37 2063.98 370.35 2051.69 384.65 C 2040.96 397.00 2028.48 407.77 2015.00 417.02 C 2003.19 425.15 1990.22 432.02 1976.11 435.08 C 1956.49 439.58 1935.72 437.03 1917.06 429.87 C 1900.14 423.12 1884.19 413.65 1870.86 401.16 C 1858.68 389.93 1849.38 376.04 1837.42 364.58 C 1813.32 339.63 1785.04 318.79 1754.31 302.74 C 1717.70 283.62 1677.67 271.60 1636.98 265.04 C 1599.67 259.25 1561.58 258.30 1524.05 262.52 C 1500.61 264.58 1476.99 267.58 1454.78 275.69 C 1434.87 282.56 1415.85 291.71 1396.95 300.92 C 1332.12 332.99 1273.83 379.66 1232.05 439.01 C 1208.61 472.23 1190.77 509.39 1179.53 548.46 C 1172.37 573.07 1167.95 598.42 1165.26 623.88 C 1161.79 656.29 1164.44 689.02 1169.95 721.04 C 1177.73 765.01 1193.11 807.69 1215.80 846.19 C 1249.82 903.91 1299.49 951.63 1356.31 986.74 C 1374.32 997.89 1393.03 1007.92 1412.25 1016.84 C 1429.29 1024.67 1446.53 1032.24 1464.58 1037.43 C 1487.94 1044.36 1512.20 1047.68 1536.45 1049.47 C 1563.31 1050.90 1590.30 1050.68 1617.07 1047.90 C 1659.05 1043.27 1700.65 1032.95 1738.97 1014.96 C 1787.06 992.73 1829.36 958.77 1862.75 917.75 C 1874.23 904.30 1888.27 892.86 1904.27 885.22 C 1924.55 875.30 1947.67 871.95 1970.04 874.13 C 1986.21 876.07 2000.59 884.37 2014.17 892.83 C 2040.09 909.21 2061.43 933.13 2073.59 961.37 C 2086.18 990.85 2086.00 1025.85 2071.56 1054.63 C 2064.72 1067.51 2055.16 1078.66 2045.53 1089.52 C 2025.47 1111.85 2002.69 1131.53 1979.39 1150.37 C 1955.04 1170.27 1930.24 1189.73 1903.80 1206.81 C 1880.90 1221.66 1856.63 1234.28 1831.95 1245.87 C 1793.87 1263.44 1754.21 1277.68 1713.43 1287.54 C 1667.21 1299.03 1619.68 1305.70 1572.00 1305.31 C 1524.50 1305.60 1476.89 1301.58 1430.42 1291.50 C 1352.86 1274.93 1279.22 1242.75 1211.92 1201.11 C 1181.35 1182.51 1152.47 1161.11 1125.97 1137.06 C 1070.99 1087.38 1026.41 1027.02 990.60 962.36 C 969.13 923.10 952.26 881.42 939.43 838.58 C 926.71 794.65 916.46 749.76 913.05 704.06 C 912.30 692.71 911.01 681.39 911.28 670.00 C 910.62 655.31 911.39 640.61 911.42 625.92 C 912.25 614.23 913.15 602.55 914.18 590.87 C 918.00 558.51 924.10 526.41 932.84 495.01 C 946.74 442.72 966.76 392.05 992.51 344.45 C 1016.13 300.80 1044.89 259.96 1077.82 222.85 C 1103.13 194.50 1130.52 167.91 1160.34 144.31 C 1189.68 121.32 1221.66 101.94 1254.56 84.51 C 1294.33 63.24 1336.08 45.61 1379.21 32.40 C 1423.71 18.96 1469.59 9.46 1516.05 6.78 C 1521.82 6.33 1527.73 7.21 1533.40 5.66 Z" />
<path fill="#ec008c" opacity="1.00" d=" M 3025.51 7.66 C 3051.65 6.26 3077.87 6.13 3104.03 7.38 C 3151.14 10.09 3198.02 17.54 3243.43 30.43 C 3283.10 41.27 3321.48 56.54 3358.28 74.83 C 3491.27 141.24 3599.94 254.99 3660.04 390.97 C 3696.65 472.78 3715.68 562.38 3715.42 652.00 C 3716.32 745.49 3696.14 839.09 3657.07 924.03 C 3625.63 992.81 3582.02 1056.06 3528.70 1109.70 C 3477.62 1161.77 3417.52 1204.95 3351.95 1236.89 C 3270.55 1276.49 3180.78 1298.95 3090.25 1301.52 C 2998.58 1304.83 2906.16 1288.70 2821.35 1253.61 C 2753.02 1225.60 2689.58 1185.72 2634.76 1136.23 C 2577.43 1084.62 2529.19 1022.84 2493.60 954.38 C 2459.63 889.14 2436.49 818.16 2426.57 745.24 C 2418.09 686.60 2418.35 626.80 2425.86 568.07 C 2439.35 464.75 2478.66 364.97 2538.91 279.98 C 2585.71 214.03 2644.83 156.84 2712.42 112.43 C 2779.57 68.37 2854.94 36.74 2933.59 20.34 C 2963.86 13.81 2994.64 9.91 3025.51 7.66 M 3042.54 260.69 C 2998.52 263.92 2954.87 273.74 2914.26 291.18 C 2818.81 331.49 2740.64 410.92 2702.14 507.14 C 2684.14 552.17 2674.49 600.54 2673.81 649.03 C 2673.20 695.12 2680.89 741.31 2696.24 784.78 C 2720.13 852.67 2763.12 913.66 2818.84 959.18 C 2881.14 1010.43 2959.51 1041.96 3040.04 1047.37 C 3124.91 1053.79 3211.61 1031.43 3282.76 984.72 C 3344.88 944.09 3395.60 885.95 3426.45 818.37 C 3444.67 778.51 3456.15 735.59 3460.28 691.96 C 3465.53 641.73 3459.91 590.61 3445.64 542.24 C 3424.12 470.17 3381.36 404.70 3324.36 355.67 C 3266.68 305.71 3194.20 272.88 3118.45 263.30 C 3093.33 259.66 3067.85 259.45 3042.54 260.69 Z" />
<path fill="#ec008c" opacity="1.00" d=" M 349.39 26.33 C 388.15 19.35 427.67 16.80 467.02 18.41 C 499.81 20.20 532.62 24.07 564.42 32.48 C 605.36 42.42 644.67 59.18 680.16 81.90 C 706.17 98.50 730.02 118.38 751.43 140.58 C 776.83 166.58 799.89 194.98 819.21 225.80 C 851.51 277.23 873.01 335.60 880.39 395.94 C 883.99 422.12 883.62 448.61 883.23 474.97 C 882.59 511.95 875.94 548.77 863.71 583.66 C 847.71 629.92 822.82 672.63 793.91 711.94 C 763.51 753.58 728.65 791.85 691.11 827.14 C 675.70 841.76 659.54 855.57 643.66 869.68 C 590.11 917.09 536.95 964.94 483.48 1012.44 C 481.18 1014.49 478.50 1016.10 476.27 1018.23 C 476.23 1018.59 476.16 1019.31 476.12 1019.67 C 486.03 1020.85 496.04 1020.03 506.00 1020.27 C 534.66 1020.48 563.33 1020.37 592.00 1020.37 C 619.32 1020.99 646.67 1020.57 674.00 1020.68 C 698.66 1021.50 723.34 1020.53 748.00 1021.26 C 766.65 1021.43 785.31 1020.94 803.95 1021.58 C 836.63 1021.55 869.32 1021.66 902.00 1022.29 C 908.25 1022.27 914.58 1022.03 920.75 1023.34 C 937.95 1026.25 953.73 1034.86 967.12 1045.82 C 978.94 1055.13 988.85 1066.90 995.69 1080.32 C 1005.72 1100.03 1010.90 1122.01 1012.10 1144.03 C 1012.98 1165.25 1010.58 1187.12 1001.69 1206.62 C 994.45 1223.40 982.19 1237.74 967.58 1248.58 C 947.59 1263.13 923.77 1272.70 899.08 1274.92 C 886.41 1275.90 873.69 1275.14 861.00 1275.31 C 831.67 1275.32 802.33 1275.28 773.00 1275.33 C 748.67 1274.75 724.33 1274.91 700.00 1275.32 C 667.66 1275.31 635.33 1275.30 603.00 1275.32 C 581.67 1274.68 560.33 1275.13 539.00 1275.00 C 505.00 1275.00 471.00 1275.00 437.00 1275.00 C 415.00 1275.16 393.00 1274.52 371.00 1274.73 C 340.00 1274.73 309.00 1274.72 278.00 1274.73 C 234.34 1274.04 190.67 1274.68 147.00 1274.31 C 130.86 1274.01 114.50 1275.71 98.57 1272.31 C 75.02 1266.44 52.12 1255.57 35.08 1237.94 C 20.03 1222.57 10.14 1202.54 6.36 1181.42 C 5.86 1176.69 2.16 1172.90 2.33 1168.06 C 2.42 1158.35 2.41 1148.64 2.34 1138.93 C 2.17 1134.29 5.42 1130.50 6.01 1126.00 C 8.05 1114.41 10.53 1102.81 15.06 1091.91 C 21.80 1075.15 32.31 1059.84 46.00 1048.02 C 67.30 1029.65 88.75 1011.45 110.12 993.17 C 192.04 922.41 274.07 851.78 355.79 780.78 C 385.32 755.01 415.02 729.42 444.09 703.12 C 472.80 677.20 501.08 650.79 528.71 623.73 C 553.04 599.94 578.08 576.15 595.89 546.85 C 618.29 510.28 629.89 466.57 625.38 423.68 C 623.10 403.75 617.84 384.05 608.88 366.06 C 586.32 319.56 542.41 284.02 492.25 271.64 C 475.50 267.55 458.18 266.05 440.97 266.32 C 414.54 266.47 388.08 273.08 364.98 286.01 C 338.79 300.77 316.61 322.69 301.88 348.94 C 287.28 374.72 279.02 403.74 275.13 433.00 C 273.30 446.31 272.91 459.75 271.73 473.12 C 269.39 491.98 264.81 510.66 257.09 528.06 C 249.50 545.78 238.76 562.39 224.35 575.33 C 204.46 593.38 177.87 603.06 151.24 604.50 C 128.25 606.30 104.37 603.64 83.44 593.48 C 71.69 588.01 60.81 580.55 51.80 571.19 C 35.72 555.05 25.88 533.69 20.41 511.79 C 12.20 479.42 14.36 445.57 18.52 412.78 C 24.34 363.24 37.73 314.59 58.10 269.06 C 75.23 230.64 97.54 194.60 123.70 161.68 C 144.40 135.59 168.20 111.85 194.92 91.92 C 240.16 58.09 293.63 35.40 349.39 26.33 Z" />
<path fill="#ec008c" opacity="1.00" d=" M 1750.11 587.05 C 1756.60 585.39 1763.35 585.68 1770.00 585.69 C 1801.00 585.69 1832.00 585.69 1863.00 585.69 C 1889.34 585.52 1915.66 586.24 1942.00 586.00 C 1983.66 586.37 2025.33 586.35 2067.00 586.39 C 2090.33 586.78 2113.66 586.71 2137.00 586.67 C 2169.99 587.42 2203.01 586.62 2236.00 587.27 C 2281.22 587.18 2326.44 587.45 2371.66 587.38 C 2372.57 592.87 2372.24 598.46 2372.31 604.00 C 2372.30 797.67 2372.31 991.33 2372.31 1185.00 C 2373.27 1213.69 2366.50 1243.21 2349.96 1266.98 C 2339.88 1281.57 2325.79 1293.30 2309.72 1300.77 C 2287.75 1311.11 2263.26 1315.83 2239.02 1315.29 C 2223.58 1314.67 2208.06 1312.60 2193.46 1307.38 C 2179.75 1302.40 2167.03 1294.61 2156.56 1284.42 C 2145.84 1273.95 2137.41 1261.26 2131.29 1247.61 C 2124.76 1233.67 2120.70 1218.45 2120.27 1203.03 C 2120.33 1099.36 2120.44 995.68 2120.39 892.00 C 2120.22 876.29 2120.72 860.55 2120.15 844.86 C 2101.45 844.27 2082.71 844.78 2064.00 844.61 C 2006.33 844.78 1948.67 844.70 1891.00 844.75 C 1866.67 844.00 1842.32 844.77 1818.00 844.01 C 1802.32 843.69 1786.64 843.37 1770.97 842.70 C 1761.94 842.74 1752.96 841.80 1743.98 841.00 C 1725.85 838.62 1708.23 831.59 1693.90 820.15 C 1679.26 808.60 1668.09 792.93 1661.23 775.64 C 1653.98 757.30 1650.33 737.65 1649.75 717.97 C 1649.34 695.02 1652.62 671.29 1664.09 651.06 C 1678.95 624.41 1704.50 605.16 1732.15 593.20 C 1737.93 590.61 1743.97 588.62 1750.11 587.05 Z" />
</g>
</svg>
