<?xml version="1.0" encoding="UTF-8"?>
<svg version="1.1" viewBox="0 0 1600 1600" width="100" height="100" xmlns="http://www.w3.org/2000/svg">
<path transform="translate(147,287)" d="m0 0h22l20 4 16 8 10 8 10 11 8 13 7 15 7 21 4 23 2 18 2 34 1 261 2 65-3 3h-14l-21-2-9-3-5-6-7-13-6-5-4 1-8 7-12 13-8 7-10 5-11 3h-16l-15-3-10-6-12-11-8-10-8-14-7-14-8-25-5-27-2-15-1-13v-23l2-26 5-30 3-12 8-22 8-15 9-12 4-5 11-9 11-8 13-6 20-5 37-1 5-1 1-2-1-14-3-17-7-21-6-10-5-4-10-3h-11l-16 4-14 8-17 16-7 8h-2l-6-16-9-36-6-20-1-4v-8l4-11 11-12 7-7 21-14 15-8 14-5zm17 273-15 3-12 5-9 7-6 10-5 12-2 10v15l4 17 7 16 8 11 11 7 8 1 14-7 7-5v-2l3-1 6-10 3-14v-47l-1-19-3-7-10-2z" fill="#E00E1B"/>
<path transform="translate(716,291)" d="m0 0h43l16 4 10 6 10 9 8 8 8 11 8 14 6 15 6 23 3 16 2 30 1 276 1 62-5 5-2 1-17-1h-9l-11-2-6-3-4-6-3-9-5-6-4-1-6 3-8 10-6 10-6 6-12 4-6 1h-34l-10-2-6-4-13-13-10-14-11-23-6-18-5-22-3-22-1-13v-45l2-19 4-18 7-23 8-18 7-12 9-12 8-8 15-10 14-6 20-4 35-4 6-2 2-4v-10l-2-16-4-13-6-12-8-10-8-5-4-1h-13l-16 6-10 6-8 8-5 4-1 2h-2l-2 4-6 5-4 1-3-4-4-15-6-24-7-22-2-15 3-10 6-9 14-14 19-13 15-9zm39 269-15 2-20 7-11 6-6 8-4 11-3 18v9l3 19 4 12 6 10 8 8 7 4h11l10-4 13-10 6-7 3-9v-45l-1-28-4-10-1-1z" fill="#E00E1B"/>
<path transform="translate(1432,290)" d="m0 0h26l13 2 12 4 12 7 9 8 9 11 9 16 7 17 5 18 5 30 2 28 1 231 1 45v61l-6 3-28-2-11-3-5-3-5-8-7-13-3-1-6 5-8 12-8 10-6 4-17 5-6 1h-23l-13-3-8-5-13-13-9-13-7-15-7-21-5-22-4-26-1-25v-40l2-16 4-19 6-20 4-9 10-19 10-13 8-8 16-12 10-5 18-3 29-2 10-2 5-3 2-5v-18l-3-15-4-10-7-11-6-7-9-4h-15l-19 7-9 7-8 8h-2l-2 4-10 10h-4l-5-11-7-28-9-30-1-9 3-12 6-9 10-11 11-8 16-10 16-8 12-3zm26 270-16 4-16 6-6 4-7 6-6 10-4 17-1 15 4 21 5 12 6 8 7 8 5 3h13l13-7 12-11 5-7 2-17-1-37-3-28-3-7z" fill="#E00E1B"/>
<path transform="translate(1011,289)" d="m0 0h13l11 2 11 6 9 8 11 15 10 19 7 19 6 24 2 9 2 16 1 15 1 149v173l-1 23-7 3-19-1-7-1h-29l-5-4-1-3-1-304-3-20-4-13-7-13-4-5-5-2h-7l-9 3-13 9-10 9-9 9-6 9-4 11-1 51v261l-4 2h-32l-3-1-10 3h-12l-4-5-2-4-2-16-1-51v-200l1-154v-33l4-7 1-1 12 1 21 4 13 5 4 5 4 11 3 10 3 4v3l5-3 13-17 8-8 5-6 13-10 12-6z" fill="#E00E1B"/>
<path transform="translate(275,300)" d="m0 0 17 3h20l10-2h12l4 4 3 9 10 54 9 45 9 47 6 31 12 73 4 17 2 4v7h2l-1-3 6-23 10-60 14-73 10-54 12-61 3-14 1-1h14l18 1h31l2 2-1 12-12 59-8 38-9 44-10 44-9 42-15 74-6 28-7 35-9 39-7 30-5 15-4 4-11 1-12-2-12-5-7-8-4-8-8-26-9-39-14-66-13-61-12-55-11-52-11-56-13-65-3-17v-9z" fill="#E00E1B"/>
<path transform="translate(1239,289)" d="m0 0h14l15 2 16 6 11 7 6 5 7 9 5 12 2 7v82l1 2v7l-3 5-4-1-25-25-10-7-12-5-6-1h-9l-11 4-9 7-10 11-8 13-7 15-6 18-5 25-2 20-1 19v22l2 25 4 25 6 22 5 12 10 17 7 9 8 7 12 7 5 2 6-1 18-8 12-7 10-8 11-12 2-2h3l2 8 6 37 6 34 1 15-5 9-9 10-7 7-14 10-13 6-15 4-13 2h-27l-16-4-10-6-14-12-8-8-11-15-10-18-10-26-6-18-6-25-5-30-4-36-1-19v-39l2-38 4-32 6-29 7-23 9-24 9-20 12-20 10-13 12-12 13-10 15-8 11-3z" fill="#E00E1B"/>
<path transform="translate(536,303)" d="m0 0h58l5 2 1 3v441l-1 18-6 4-23-3-3-2-1 3-26-1-5-4-1-24v-379l1-53z" fill="#E00E1B"/>
<path transform="translate(866,1038)" d="m0 0h13l14 3 12 6 10 10 10 16 8 17 8 24 5 22 4 33 1 17v47l-2 25-3 24-5 21-8 21-12 20-12 16-9 8-12 5-4 1h-10l-13-3-10-6-8-9-12-16-8-13 2 37v81l-1 33-1 17-1 7-5 3-7 1-9-2-3-5-1-7-1-28-1-82v-331l3-5 9-2 7 1 5 5 1 6v33 2l11-16 6-7 10-17 8-9 6-3zm-2 45-8 4-9 10-9 17-7 18-4 20-2 22-1 30v20l2 35 4 23 5 12 7 11 9 11 11 11 6 4h8l8-4 6-5v-2h2l9-13 7-18 6-23 6-31 2-24v-15l-1-21-3-22-7-24-11-23-8-11-9-7-11-4z" fill="#E00E1B"/>
<path transform="translate(435,923)" d="m0 0h143l2 2v17l-1 31-2 1h-23l-55-1-34-1v144l103-1 2 3-1 41-2 6h-102v153l10-1 57-1h50l3 3v44l-2 1h-44l-101-1-2-6-1-28-1-115v-211z" fill="#E00E1B"/>
<path transform="translate(1164,1038)" d="m0 0h17l14 3 10 5 12 11 9 12 10 19 7 21 7 34 2 19 1 17-2 33-3 6-2 2-4 1-113 1 2 30 4 20 6 15 11 20 9 11 10 8 12 5 7-1 11-4 9-7 8-7 7-4h9l5 5 4 10 1 12-5 10-9 10-7 7-12 7-12 3-7 1h-17l-10-2-14-7-14-14-9-13-10-18-8-20-5-16-4-21-2-18-1-21v-43l2-24 4-23 6-21 10-25 8-16 7-12 12-12 10-6zm5 45-7 3-6 5-9 15-8 20-5 15-4 21-1 11v10l3 2h23l61-1 5-2 2-3 1-15-2-18-6-21-6-15-6-12-10-11-7-3-5-1z" fill="#E00E1B"/>
<path transform="translate(748,1044)" d="m0 0h10l6 2-3 13-8 20-11 31-17 42-5 11-12 32-2 8 3 10 6 14 10 27 11 29 11 30 12 38 2 9v9l-2 2-4 1h-9l-7-4-5-4-8-16-7-16-13-34-10-26-7-20-3-6-4 8-13 34-15 41-9 22-6 12-4 4-3 1h-8l-9-5-1-2v-9l4-17 8-26 14-38 13-31 9-24 3-11v-8l-16-42-13-33-17-47-7-18-2-12h11l15 2 6 4 6 10 18 46 11 31 8 19h3l5-12 13-36 15-42 4-12 4-6 5-3z" fill="#E00E1B"/>
<path transform="translate(1326,1039)" d="m0 0 20 1 21 3 15 5 5 5 3 11v34l-4 7-9-5-14-11-11-5h-13l-8 4-6 7-12 21-5 16v11l3 8 4 6 10 10 15 11 15 9 17 13 8 9 9 14 6 16 3 14 1 7v34l-3 21-5 16-8 15-10 13-8 7-9 4-10 2h-27l-11-2-16-8-7-6-6-9-3-9v-21l2-5 2-2h7l14 7 8 6 9 4 11 3h12l8-4 8-7 6-9 4-12 1-5v-22l-3-12-5-10-8-8-19-12-11-7-14-10-11-11-10-15-5-11-4-15-1-6v-35l3-22 4-15 6-15 6-10 9-10 9-5z" fill="#E00E1B"/>
<path transform="translate(1467,1039)" d="m0 0h13l19 4 13 5 15 8 6 5 4 6 1 3v17l-3 12-4 9-7-6-6-4v-2l-4-2-6-5-10-4-4-1h-11l-9 2-6 4-6 10-6 14-2 14v8l3 12 4 6 9 10 12 9 15 10 16 12 10 9 10 13 7 14 4 15 2 15 1 26-2 20-5 19-8 16-7 11-8 10-7 5-11 3-8 1h-17l-14-2-13-4-12-7-7-8-4-9-1-4v-9l4-15 4-7h5l15 8 9 7 17 8 4 1h7l8-4 5-4 6-8 4-9 3-15v-21l-2-10-5-12-8-8-15-9-17-10-11-8-6-5-8-10-8-16-6-16-2-11-1-13v-11l2-20 5-24 5-15 9-17 8-9 10-6z" fill="#E00E1B"/>
<path transform="translate(1059,1038)" d="m0 0h11l8 4 4 7 2 7 1 9v14l-4 14-4 4-7-6-7-2h-7l-8 7-8 9-10 17-7 16-3 19-1 28-1 165-1 13-3 3-3 1h-14l-5-3-3-4-1-7-1-40v-70l-1-193 2-5h18l5 4 2 8v28l1 3 7-8 12-18 8-11 7-8 7-4z" fill="#E00E1B"/>
<path transform="translate(565,103)" d="m0 0 6 1 8 6 7 7 8 13 7 15 4 15 1 10v22l-3 19-6 15-10 18-9 10-4 2h-10l-10-5-9-12-9-16-5-15-2-10-1-18 3-23 4-15 8-16 8-12 7-7z" fill="#E00E1B"/>
</svg>
