<?xml version="1.0" encoding="UTF-8" standalone="no"?>
<!-- Generator: Adobe Illustrator 12.0.0, SVG Export Plug-In . SVG Version: 6.00 Build 51448)  -->

<svg
   xmlns:dc="http://purl.org/dc/elements/1.1/"
   xmlns:cc="http://creativecommons.org/ns#"
   xmlns:rdf="http://www.w3.org/1999/02/22-rdf-syntax-ns#"
   xmlns:svg="http://www.w3.org/2000/svg"
   xmlns="http://www.w3.org/2000/svg"
   xmlns:sodipodi="http://sodipodi.sourceforge.net/DTD/sodipodi-0.dtd"
   xmlns:inkscape="http://www.inkscape.org/namespaces/inkscape"
   version="1.1"
   id="Layer_1"
   width="564.60199"
   height="68.446999"
   viewBox="0 0 564.60199 68.446999"
   overflow="visible"
   enable-background="new 0 0 584 108"
   xml:space="preserve"
   sodipodi:docname="ACE_Aviation_logo.svg"
   style="overflow:visible"
   inkscape:version="0.92.2 (5c3e80d, 2017-08-06)"><metadata
     id="metadata33"><rdf:RDF><cc:Work
         rdf:about=""><dc:format>image/svg+xml</dc:format><dc:type
           rdf:resource="http://purl.org/dc/dcmitype/StillImage" /></cc:Work></rdf:RDF></metadata><defs
     id="defs31" /><sodipodi:namedview
     pagecolor="#ffffff"
     bordercolor="#666666"
     borderopacity="1"
     objecttolerance="10"
     gridtolerance="10"
     guidetolerance="10"
     inkscape:pageopacity="0"
     inkscape:pageshadow="2"
     inkscape:window-width="1920"
     inkscape:window-height="1017"
     id="namedview29"
     showgrid="false"
     inkscape:zoom="2.7799951"
     inkscape:cx="132.21255"
     inkscape:cy="131.76498"
     inkscape:window-x="-8"
     inkscape:window-y="-8"
     inkscape:window-maximized="1"
     inkscape:current-layer="Layer_1" /><g
     id="g26"
     transform="translate(-9.699,-19.777)"><path
       d="m 540.651,68.406 c 0,-2.21 1.137,-2.617 3.244,-1.44 3.878,2.174 7.929,4.413 7.929,4.413 0.128,-1.239 1.203,-2.284 3.523,-1.746 2.169,0.507 4.586,1.038 4.586,1.038 0,0 -1.305,-2.939 -1.89,-4.229 -1.065,-2.362 -0.045,-3.507 1.009,-3.841 0,0 -1.489,-1 -2.47,-1.684 -2.092,-1.461 -1.597,-2.873 0.424,-3.745 2.783,-1.188 6.228,-2.728 6.228,-2.728 -1.098,-0.649 -2.382,-2.445 -0.95,-4.543 1.426,-2.059 3.553,-4.95 3.553,-4.95 0,0 -3.759,0.035 -6.258,0 -2.263,-0.037 -2.832,-1.83 -2.798,-3.127 0,0 -3.714,2.612 -6.349,4.401 -2.224,1.504 -4.249,0.041 -3.918,-2.538 0.53,-4.039 1.011,-8.495 1.011,-8.495 -1.374,0.937 -3.737,0.897 -4.767,-1.348 -1.548,-3.335 -3.334,-7.231 -3.334,-7.231 0,0 -1.777,3.896 -3.314,7.231 -1.041,2.245 -3.403,2.284 -4.774,1.348 0,0 0.473,4.456 1.008,8.495 0.339,2.579 -1.691,4.042 -3.91,2.538 -2.647,-1.789 -6.352,-4.401 -6.352,-4.401 0.024,1.297 -0.527,3.09 -2.801,3.127 -2.503,0.035 -6.26,0 -6.26,0 0,0 2.132,2.892 3.556,4.95 1.437,2.098 0.141,3.894 -0.938,4.543 0,0 3.438,1.539 6.208,2.728 2.033,0.872 2.523,2.284 0.421,3.745 -0.98,0.684 -2.459,1.684 -2.459,1.684 1.046,0.334 2.07,1.479 1.001,3.841 -0.585,1.289 -1.885,4.229 -1.885,4.229 0,0 2.42,-0.531 4.594,-1.038 2.313,-0.538 3.399,0.507 3.531,1.746 0,0 4.035,-2.239 7.921,-4.413 2.107,-1.177 3.236,-0.77 3.236,1.44 0,1.721 0,5.422 0,5.422 0.008,3.129 -0.544,6.562 -1.743,8.391 -14.88,-1.622 -27.185,-13.524 -27.219,-29.231 -0.016,-16.172 13.516,-29.286 30.171,-29.286 16.647,0 30.159,13.114 30.159,29.286 0,15.119 -11.749,27.461 -26.792,29.095 0,0.511 0,3.162 0,3.957 17.686,-1.606 31.518,-15.801 31.518,-33.052 0,-18.337 -15.618,-33.211 -34.885,-33.211 -19.266,0 -34.868,14.874 -34.868,33.211 0,16.14 12.087,29.568 28.135,32.582 2.699,0.515 4.428,0.909 5.854,2.654 1.712,-3.136 2.115,-9.768 2.115,-13.515 -0.001,0 -0.001,-4.582 -0.001,-6.303"
       id="path2"
       inkscape:connector-curvature="0"
       style="fill:#e34028" /><path
       d="M 9.699,70.68 25.25,35.202 h 9.441 L 50.052,70.671 H 40.421 L 36.29,61.157 H 19.909 l -4.183,9.522 H 9.699 M 21.967,56.472 H 34.263 L 28.15,42.36 Z"
       id="path4"
       inkscape:connector-curvature="0"
       style="fill:#e34028" /><path
       d="m 160.427,70.68 15.554,-35.478 h 9.439 l 15.364,35.469 h -9.636 l -4.128,-9.514 h -16.377 l -4.186,9.522 h -6.03 m 12.27,-14.207 h 12.293 l -6.114,-14.111 z"
       id="path6"
       inkscape:connector-curvature="0"
       style="fill:#e34028" /><polyline
       points="236.696,35.202 242.732,35.202 227.177,70.68 217.736,70.68 202.375,35.21 212.005,35.21    224.281,63.528 236.696,35.202  "
       id="polyline8"
       style="fill:#e34028" /><path
       d="m 272.79,70.68 15.55,-35.478 h 9.438 l 15.372,35.469 h -9.65 l -4.12,-9.514 h -16.385 l -4.17,9.522 h -6.035 m 12.261,-14.207 h 12.298 l -6.116,-14.111 z"
       id="path10"
       inkscape:connector-curvature="0"
       style="fill:#e34028" /><polyline
       points="434.064,70.68 434.064,35.214 443.638,35.214 465.852,60.507 465.859,35.202 472.604,35.202    472.604,70.671 463.913,70.671 440.798,44.176 440.798,70.68 434.064,70.68  "
       id="polyline12"
       style="fill:#e34028" /><polyline
       points="346.44,40.905 335.469,40.905 335.469,70.68 326.932,70.68 326.932,40.905 313.252,40.905    313.252,35.202 349.12,35.202 346.44,40.905  "
       id="polyline14"
       style="fill:#e34028" /><polyline
       points="103.087,70.662 103.087,35.202 135.266,35.202 132.583,40.921 111.4,40.921 111.4,51.242    132.51,51.242 132.51,55.93 111.4,55.93 111.4,65.896 135.266,65.896 135.266,70.662 103.087,70.662  "
       id="polyline16"
       style="fill:#e34028" /><rect
       x="253.57899"
       y="35.208"
       width="8.3140001"
       height="35.453999"
       id="rect18"
       style="fill:#e34028" /><rect
       x="358.983"
       y="35.208"
       width="8.316"
       height="35.453999"
       id="rect20"
       style="fill:#e34028" /><path
       d="m 422.956,52.936 c 0,12.189 -8.686,18.831 -22.114,18.831 -13.428,0 -22.123,-6.642 -22.123,-18.831 0,-12.187 8.694,-18.842 22.123,-18.842 13.429,0 22.114,6.655 22.114,18.842 m -35.264,0 c 0,9.086 5.889,13.562 13.149,13.562 7.258,0 13.133,-4.476 13.133,-13.562 0,-9.083 -5.875,-13.873 -13.133,-13.873 -7.26,0 -13.149,4.79 -13.149,13.873 z"
       id="path22"
       inkscape:connector-curvature="0"
       style="fill:#e34028" /><path
       d="m 91.322,69.432 c -3.962,1.577 -8.935,2.354 -14.69,2.335 -7.04,-0.009 -12.506,-1.685 -16.428,-5.011 -3.913,-3.318 -5.864,-7.937 -5.848,-13.865 0.019,-6.045 2.015,-10.682 5.978,-13.925 3.964,-3.237 9.612,-4.847 16.95,-4.831 4.681,0.018 9.33,0.486 13.957,1.417 l -0.02,5.825 C 85.987,39.83 81.108,39.055 77.568,39.043 c -4.532,-0.009 -8.015,1.171 -10.489,3.561 -2.458,2.392 -3.697,5.783 -3.714,10.192 -0.007,4.318 1.304,7.687 3.93,10.115 2.631,2.412 6.292,3.639 10.986,3.655 4.211,0.009 8.945,-0.873 13.041,-2.651 v 5.517"
       id="path24"
       inkscape:connector-curvature="0"
       style="fill:#e34028" /></g></svg>