<?xml version="1.0" encoding="UTF-8" standalone="no"?>
<!-- Generator: Adobe Illustrator 12.0.0, SVG Export Plug-In  -->

<svg
   xmlns:dc="http://purl.org/dc/elements/1.1/"
   xmlns:cc="http://creativecommons.org/ns#"
   xmlns:rdf="http://www.w3.org/1999/02/22-rdf-syntax-ns#"
   xmlns:svg="http://www.w3.org/2000/svg"
   xmlns="http://www.w3.org/2000/svg"
   xmlns:sodipodi="http://sodipodi.sourceforge.net/DTD/sodipodi-0.dtd"
   xmlns:inkscape="http://www.inkscape.org/namespaces/inkscape"
   version="1.1"
   width="505.00049"
   height="161.26707"
   viewBox="-0.1806641 -0.2158203 505.00049 161.26707"
   enable-background="new -0.1806641 -0.2158203 525 210"
   xml:space="preserve"
   id="svg2"
   inkscape:version="0.48.1 "
   sodipodi:docname="AJAX.svg"><metadata
   id="metadata70"><rdf:RDF><cc:Work
       rdf:about=""><dc:format>image/svg+xml</dc:format><dc:type
         rdf:resource="http://purl.org/dc/dcmitype/StillImage" /></cc:Work></rdf:RDF></metadata><sodipodi:namedview
   pagecolor="#ffffff"
   bordercolor="#666666"
   borderopacity="1"
   objecttolerance="10"
   gridtolerance="10"
   guidetolerance="10"
   inkscape:pageopacity="0"
   inkscape:pageshadow="2"
   inkscape:window-width="1280"
   inkscape:window-height="1004"
   id="namedview68"
   showgrid="false"
   fit-margin-top="0"
   fit-margin-left="0"
   fit-margin-right="0"
   fit-margin-bottom="0"
   inkscape:zoom="1.3914591"
   inkscape:cx="332.1904"
   inkscape:cy="-43.868149"
   inkscape:window-x="-8"
   inkscape:window-y="-8"
   inkscape:window-maximized="1"
   inkscape:current-layer="svg2" />
<defs
   id="defs4">
</defs>
<rect
   width="524"
   height="209.02051"
   id="rect6"
   x="-9.6801758"
   y="-24.092287"
   style="opacity:0;fill:#ffffff" />
<path
   d="m 155.30224,134.70166 h -35.85156 l 2.28418,-30.8252 H 62.532226 l -27.276855,30.8252 H -0.1806641 L 121.5249,-0.21582287 h 35.02441 L 155.30224,134.70166 z M 121.96142,80.301263 124.58593,32.784666 83.519043,80.301263 h 38.442377 z"
   id="path8"
   inkscape:connector-curvature="0"
   style="fill:#312c59" />
<path
   d="m 288.64306,4.2143531 c 14.77246,4.117187 26.46289,12.5322269 35.0752,25.2548829 7.89843,11.692383 11.84961,24.925782 11.84961,39.696289 0,15.811528 -4.38379,29.563478 -13.17285,41.255855 -9.49805,12.85547 -22.58594,20.49317 -39.28614,22.93262 -6.49609,0.89453 -13.79004,1.34766 -21.87256,1.34766 H 161.85693 V -0.21582287 h 93.84473 c 11.06836,0 22.04492,1.48242197 32.9414,4.43017597 z m 4.85449,65.3203129 c 0,-12.496094 -2.54882,-22.744141 -7.62988,-30.73291 -6.5,-10.050293 -16.32129,-15.084961 -29.50683,-15.084961 h -51.3584 v 87.772945 h 54.79736 c 11.91748,0 20.79834,-4.57324 26.59717,-13.724607 4.74023,-7.46972 7.10058,-16.87793 7.10058,-28.230467 z"
   id="path10"
   inkscape:connector-curvature="0"
   style="fill:#312c59" />
<path
   d="m 401.58154,134.52197 h -88.5127 c -8.97265,0 -17.85351,-0.83985 -26.63379,-2.50293 -17.00195,-3.45606 -30.46875,-11.39649 -40.4082,-23.83594 -8.96875,-11.276367 -13.44922,-24.405267 -13.44922,-39.404293 0,-14.478028 4.00586,-27.295899 12.03418,-38.439942 8.78467,-12.297363 21.28906,-20.6953129 37.51465,-25.1796879 12.60156,-3.458008 25.50098,-5.19433597 38.66895,-5.19433597 h 80.20605 V 25.719725 h -83.22949 c -13.52539,0 -23.34668,4.929687 -29.44727,14.791015 -4.77929,7.678223 -7.16015,17.728516 -7.16015,30.147461 0,10.503902 3.06152,19.399902 9.16308,26.690922 7.04102,8.584957 16.95996,12.874997 29.75,12.874997 h 81.50391 v 24.29785 z"
   id="path12"
   inkscape:connector-curvature="0"
   style="fill:#312c59" />
<path
   d="m 403.47119,134.02197 9.59863,-23.56348 h 3.68652 l 10.23731,23.56348 h -3.77832 l -2.89356,-7.12988 h -10.59472 l -2.70411,7.12988 h -3.55175 z m 7.20117,-9.6709 h 8.6543 l -2.64551,-6.55176 c -0.79395,-1.99512 -1.39844,-3.63672 -1.81445,-4.92187 -0.36524,1.53906 -0.83106,3.05078 -1.41895,4.5332 l -2.77539,6.94043 z"
   id="path14"
   inkscape:connector-curvature="0"
   style="fill:#312c59" />
<path
   d="m 427.49755,113.74658 v -3.28809 h 3.09961 v 3.28809 h -3.09961 z m 0,20.27539 v -17.11133 h 3.09961 v 17.11133 h -3.09961 z"
   id="path16"
   inkscape:connector-curvature="0"
   style="fill:#312c59" />
<path
   d="m 433.46923,134.02197 v -17.11133 h 2.7959 v 2.58691 c 0.70215,-1.20703 1.34375,-2.00097 1.92774,-2.38964 0.60449,-0.37793 1.24707,-0.5752 1.96093,-0.5752 1.02051,0 2.06641,0.31055 3.12403,0.92578 l -1.08301,2.6543 c -0.73047,-0.39746 -1.47363,-0.59668 -2.20508,-0.59668 -0.66308,0 -1.24707,0.18945 -1.77539,0.56738 -0.5293,0.3877 -0.90723,0.91699 -1.13379,1.58496 -0.34082,1.04102 -0.51269,2.16211 -0.51269,3.39258 v 8.96094 h -3.09864 z"
   id="path18"
   inkscape:connector-curvature="0"
   style="fill:#312c59" />
<path
   d="m 443.32861,134.02197 v -23.56348 h 3.09863 v 23.56348 h -3.09863 z"
   id="path20"
   inkscape:connector-curvature="0"
   style="fill:#312c59" />
<path
   d="m 449.48877,113.74658 v -3.28809 h 3.09863 v 3.28809 h -3.09863 z m 0,20.27539 v -17.11133 h 3.09863 v 17.11133 h -3.09863 z"
   id="path22"
   inkscape:connector-curvature="0"
   style="fill:#312c59" />
<path
   d="m 455.45556,134.02197 v -17.11133 h 2.7959 v 2.42676 c 1.32324,-1.87012 3.25,-2.80469 5.76563,-2.80469 1.0957,0 2.0957,0.18945 3.02343,0.55664 0.90723,0.36914 1.59961,0.86035 2.05371,1.46484 0.45313,0.59473 0.78028,1.3125 0.94434,2.13184 0.11328,0.54102 0.17676,1.48145 0.17676,2.8252 v 10.51074 h -3.09961 v -10.42676 c 0,-1.17969 -0.11328,-2.06934 -0.36524,-2.65332 -0.22656,-0.58398 -0.65527,-1.04785 -1.25976,-1.39648 -0.60449,-0.3584 -1.32227,-0.5293 -2.13672,-0.5293 -1.30176,0 -2.43555,0.39746 -3.38086,1.18066 -0.94434,0.78321 -1.41895,2.27344 -1.41895,4.46582 v 9.35938 h -3.09863 z"
   id="path24"
   inkscape:connector-curvature="0"
   style="fill:#312c59" />
<path
   d="m 485.68017,128.5083 3.15723,0.36523 c -0.49121,1.75977 -1.43555,3.10742 -2.7793,4.08203 -1.36035,0.96094 -3.09863,1.44434 -5.21582,1.44434 -2.64062,0 -4.75683,-0.77246 -6.30664,-2.31348 -1.56641,-1.53711 -2.34277,-3.69141 -2.34277,-6.47949 0,-2.87207 0.79394,-5.09766 2.36425,-6.68457 1.56641,-1.5957 3.60645,-2.38965 6.12208,-2.38965 2.43066,0 4.42187,0.7832 5.96679,2.33301 1.52832,1.55566 2.30567,3.74707 2.30567,6.57324 0,0.16797 -0.0215,0.43262 -0.0215,0.77246 h -13.5625 c 0.11328,1.88184 0.67969,3.32617 1.7002,4.3252 1.0205,1.0039 2.28808,1.50293 3.7998,1.50293 1.14649,0 2.11621,-0.27247 2.91016,-0.83985 0.80664,-0.5664 1.43164,-1.46484 1.90234,-2.6914 z m -10.14062,-4.65625 h 10.17871 c -0.13086,-1.45704 -0.5293,-2.54102 -1.17188,-3.26758 -0.98242,-1.125 -2.24219,-1.69141 -3.81738,-1.69141 -1.41016,0 -2.62012,0.45313 -3.58594,1.35156 -0.96094,0.89454 -1.49023,2.10352 -1.60351,3.60743 z"
   id="path26"
   inkscape:connector-curvature="0"
   style="fill:#312c59" />
<path
   d="m 489.68603,128.81884 3.04395,-0.37793 c 0.16406,1.16309 0.64257,2.05762 1.43652,2.67481 0.76855,0.62207 1.88965,0.92383 3.28809,0.92383 1.43164,0 2.46875,-0.27247 3.16992,-0.80957 0.68066,-0.55079 1.03711,-1.19336 1.03711,-1.92774 0,-0.66308 -0.31934,-1.17187 -0.94434,-1.55762 -0.41601,-0.25683 -1.47461,-0.58789 -3.1748,-0.98242 -2.26758,-0.54199 -3.82911,-1.0039 -4.69922,-1.39062 -0.86914,-0.39844 -1.53223,-0.93653 -1.98535,-1.625 -0.45411,-0.68848 -0.68067,-1.45313 -0.68067,-2.29297 0,-0.76758 0.18945,-1.46485 0.56738,-2.11621 0.36036,-0.6416 0.86915,-1.17969 1.51075,-1.61426 0.47461,-0.33203 1.12988,-0.61523 1.96191,-0.8418 0.83106,-0.22656 1.72559,-0.34863 2.68262,-0.34863 1.43652,0 2.68359,0.19727 3.76269,0.5752 1.09571,0.38867 1.88965,0.90722 2.39746,1.56835 0.5293,0.65137 0.88965,1.53028 1.07911,2.63477 l -3.04395,0.36523 c -0.13086,-0.86425 -0.5293,-1.55566 -1.18848,-2.04687 -0.66406,-0.49121 -1.58789,-0.73633 -2.79296,-0.73633 -1.42286,0 -2.44336,0.21777 -3.04786,0.66113 -0.60449,0.44532 -0.90722,0.96387 -0.90722,1.55957 0,0.37403 0.11328,0.71387 0.37793,1.01661 0.25195,0.31445 0.64257,0.5791 1.17187,0.78515 0.32715,0.10449 1.23438,0.34864 2.7461,0.74707 2.1875,0.53809 3.71582,0.99121 4.58496,1.33985 0.86914,0.34863 1.5498,0.85254 2.04101,1.51953 0.49121,0.66406 0.73926,1.4873 0.73926,2.47754 0,0.96191 -0.30273,1.86914 -0.90723,2.71679 -0.60449,0.86133 -1.45703,1.52442 -2.59082,1.98633 -1.13379,0.46192 -2.41894,0.69727 -3.85449,0.69727 -2.35644,0 -4.16992,-0.47071 -5.41699,-1.40723 -1.23047,-0.94434 -2.02442,-2.33008 -2.36426,-4.17383 z"
   id="path28"
   inkscape:connector-curvature="0"
   style="fill:#312c59" />
<path
   d="m 278.98974,148.52099 c -0.71777,0.55469 -1.52832,0.98242 -2.41406,1.25586 -0.89063,0.27246 -1.94922,0.40723 -3.19629,0.40723 h -2.54883 l -1.51172,6.18554 h -2.35937 l 4.04394,-16.45214 h 4.58887 c 1.0752,0 1.94434,0.0928 2.6416,0.26464 0.70117,0.18067 1.26856,0.43262 1.72168,0.75977 0.45313,0.33203 0.81055,0.73047 1.03711,1.20898 0.24805,0.4795 0.37793,1.04981 0.37793,1.71387 0,0.89453 -0.20605,1.7461 -0.62109,2.55664 -0.41602,0.80664 -1.00391,1.50391 -1.75977,2.09961 z m -0.0928,-4.29101 c 0,-0.37793 -0.0752,-0.72657 -0.20996,-1.0459 -0.12989,-0.32325 -0.33985,-0.58789 -0.6211,-0.79297 -0.33984,-0.24805 -0.73437,-0.41602 -1.18847,-0.5166 -0.45313,-0.11328 -1.05762,-0.16407 -1.79688,-0.16407 h -2.1709 l -1.6416,6.68457 h 2.09473 c 0.92383,0 1.71777,-0.084 2.34277,-0.24316 0.60547,-0.16016 1.15137,-0.41602 1.60449,-0.76465 0.5293,-0.42383 0.92383,-0.88965 1.18848,-1.41894 0.26465,-0.5166 0.39844,-1.09571 0.39844,-1.73828 z"
   id="path30"
   inkscape:connector-curvature="0"
   style="fill:#ea7d32" />
<path
   d="m 286.52685,139.19091 -4.22851,17.17871 h -2.19141 l 4.23242,-17.17871 h 2.1875 z"
   id="path32"
   inkscape:connector-curvature="0"
   style="fill:#ea7d32" />
<path
   d="m 291.70459,156.65869 c -1.81446,0 -3.2295,-0.39063 -4.27051,-1.19629 -1.03711,-0.81055 -1.54981,-1.98242 -1.54981,-3.53125 0,-2.26758 0.75586,-4.21192 2.28907,-5.82813 1.51171,-1.625 3.39648,-2.44043 5.62597,-2.44043 1.49121,0 2.625,0.35352 3.41895,1.04981 0.79297,0.68847 1.19238,1.67187 1.19238,2.93164 0,0.21387 -0.0215,0.57519 -0.0967,1.04492 -0.0762,0.4834 -0.16797,1.04199 -0.31934,1.66309 h -9.66992 c -0.0596,0.21875 -0.0967,0.43652 -0.11426,0.64257 -0.0205,0.20996 -0.0205,0.39844 -0.0205,0.5752 0,1.04101 0.33984,1.86426 1.0039,2.45605 0.67969,0.59278 1.625,0.88672 2.86719,0.88672 0.85254,0 1.73828,-0.15136 2.64551,-0.458 0.92383,-0.32715 1.67969,-0.67188 2.30566,-1.07129 h 0.12989 l -0.49122,2.24316 c -0.39453,0.12598 -0.73437,0.25195 -1.05761,0.36523 -0.30274,0.11329 -0.69727,0.21387 -1.18848,0.32715 -0.49121,0.11328 -0.92383,0.20117 -1.28516,0.25586 -0.37793,0.0596 -0.84863,0.084 -1.41503,0.084 z m 4.47656,-7.83496 c 0.0371,-0.20997 0.0537,-0.39063 0.0752,-0.542 0.0166,-0.13867 0.0381,-0.29785 0.0381,-0.46972 0,-0.78516 -0.24805,-1.39063 -0.70117,-1.82325 -0.47071,-0.44433 -1.20606,-0.66308 -2.22559,-0.66308 -1.11719,0 -2.09961,0.32324 -2.96484,0.96582 -0.86914,0.64258 -1.45703,1.48242 -1.75977,2.53223 h 7.53809 z"
   id="path34"
   inkscape:connector-curvature="0"
   style="fill:#ea7d32" />
<path
   d="m 306.96826,155.05908 c -0.22657,0.11328 -0.5127,0.27734 -0.86914,0.49609 -0.36133,0.22168 -0.73926,0.41113 -1.11719,0.5625 -0.39453,0.16309 -0.84863,0.30664 -1.33984,0.41992 -0.49122,0.11328 -1.05762,0.17188 -1.7002,0.17188 -1.03711,0 -1.88965,-0.29004 -2.54883,-0.85645 -0.64258,-0.56738 -0.96582,-1.31836 -0.96582,-2.24218 0,-0.97071 0.22656,-1.80176 0.68067,-2.47364 0.45312,-0.67187 1.13281,-1.21777 2.02343,-1.65429 0.88575,-0.41602 1.94434,-0.71778 3.19141,-0.90723 1.24707,-0.18848 2.66211,-0.30176 4.2666,-0.34863 0.0371,-0.20996 0.0957,-0.38575 0.13379,-0.5459 0.0166,-0.15137 0.0381,-0.30176 0.0381,-0.47461 0,-0.35645 -0.0762,-0.6416 -0.22657,-0.86914 -0.13476,-0.22656 -0.34082,-0.40723 -0.62597,-0.53711 -0.28125,-0.13477 -0.60059,-0.21875 -0.96192,-0.27344 -0.35644,-0.0498 -0.75586,-0.0664 -1.18847,-0.0664 -0.67969,0 -1.43555,0.0918 -2.28809,0.30176 -0.84863,0.19727 -1.5498,0.39453 -2.07812,0.58399 h -0.10938 l 0.43262,-2.05762 c 0.43262,-0.10449 1.0957,-0.22656 1.96484,-0.36914 0.84863,-0.14356 1.67969,-0.20606 2.47363,-0.20606 1.625,0 2.85059,0.23926 3.66504,0.71778 0.81055,0.47851 1.20996,1.23437 1.20996,2.27636 0,0.19727 0,0.41504 -0.0381,0.64258 -0.0381,0.21778 -0.0752,0.43164 -0.13477,0.63379 l -2.04004,8.38574 h -2.17089 l 0.32324,-1.31054 z m 1.22558,-5.16895 c -1.20898,0.0459 -2.28418,0.12207 -3.21191,0.25586 -0.94434,0.12207 -1.71777,0.31152 -2.32227,0.5459 -0.64257,0.23535 -1.11718,0.55859 -1.43554,0.97461 -0.34082,0.40723 -0.50879,0.91113 -0.50879,1.51562 0,0.52539 0.20605,0.91993 0.58398,1.19727 0.39453,0.27246 0.98242,0.41504 1.79297,0.41504 0.71777,0 1.45703,-0.15137 2.19238,-0.44531 0.75586,-0.29786 1.43555,-0.64161 2.09864,-1.05371 l 0.81054,-3.40528 z"
   id="path36"
   inkscape:connector-curvature="0"
   style="fill:#ea7d32" />
<path
   d="m 315.97509,156.70947 c -0.98242,0 -1.84765,-0.11328 -2.62402,-0.35254 -0.77344,-0.22656 -1.41504,-0.4668 -1.92773,-0.73047 l 0.49121,-2.24316 h 0.11328 c 0.17187,0.13476 0.37793,0.29003 0.64258,0.47949 0.26464,0.18457 0.60449,0.37304 1.0205,0.55371 0.36133,0.16406 0.77637,0.31543 1.26368,0.44141 0.4746,0.12597 0.98242,0.18847 1.51171,0.18847 1.11719,0 1.98633,-0.20117 2.60743,-0.58789 0.64257,-0.38183 0.94531,-0.96094 0.94531,-1.7168 0,-0.39062 -0.15137,-0.69336 -0.4707,-0.89453 -0.32325,-0.21875 -0.79395,-0.39062 -1.39844,-0.5205 -0.30176,-0.0674 -0.67969,-0.14356 -1.11621,-0.22754 -0.41602,-0.0752 -0.84864,-0.17188 -1.30176,-0.28516 -0.90723,-0.24316 -1.58789,-0.5918 -2.04102,-1.05859 -0.43261,-0.46192 -0.65918,-1.02832 -0.65918,-1.69629 0,-0.5791 0.12989,-1.11621 0.39454,-1.61621 0.26464,-0.5127 0.66308,-0.96582 1.19238,-1.38965 0.4873,-0.39551 1.12988,-0.72656 1.90625,-0.97461 0.77246,-0.23926 1.6416,-0.36524 2.58691,-0.36524 0.77637,0 1.54981,0.0879 2.32617,0.27246 0.79395,0.18067 1.41114,0.40821 1.90235,0.68067 l -0.46582,2.11621 h -0.11426 c -0.11328,-0.0967 -0.32715,-0.22656 -0.56641,-0.38574 -0.26465,-0.17285 -0.5664,-0.33203 -0.96582,-0.50391 -0.33984,-0.13867 -0.73437,-0.26465 -1.18847,-0.36621 -0.45313,-0.10449 -0.90723,-0.15039 -1.39844,-0.15039 -0.98242,0 -1.77539,0.19727 -2.38086,0.58301 -0.625,0.39941 -0.92773,0.93652 -0.92773,1.61719 0,0.36523 0.15136,0.67968 0.45312,0.92382 0.30273,0.24707 0.75586,0.44532 1.36133,0.5752 0.39844,0.0967 0.79297,0.18066 1.20898,0.25586 0.43653,0.0762 0.83106,0.16015 1.23047,0.24804 0.90723,0.21387 1.58692,0.5459 2.05274,0.99903 0.4541,0.4541 0.68066,1.02051 0.68066,1.69629 0,0.56738 -0.12598,1.12988 -0.42871,1.67578 -0.28516,0.54199 -0.70117,1.00781 -1.22949,1.41504 -0.56739,0.41601 -1.22657,0.75195 -2.02051,0.98242 -0.79297,0.23535 -1.68359,0.36133 -2.66602,0.36133 z"
   id="path38"
   inkscape:connector-curvature="0"
   style="fill:#ea7d32" />
<path
   d="m 337.16748,144.00341 -3.03614,12.36621 h -2.21289 l 0.34082,-1.39843 c -0.84863,0.55371 -1.625,0.98242 -2.36035,1.28515 -0.71777,0.30176 -1.49512,0.45313 -2.30469,0.45313 -1.12988,0 -2.02441,-0.26465 -2.6416,-0.80664 -0.64258,-0.53711 -0.96972,-1.30957 -0.96972,-2.34278 0,-0.23925 0.0254,-0.49121 0.0625,-0.72168 0.0381,-0.23535 0.0762,-0.51269 0.15136,-0.81543 l 1.96485,-8.01953 h 2.20507 l -1.71386,7.03711 c -0.0752,0.28614 -0.15039,0.60449 -0.21387,0.97461 -0.0498,0.36914 -0.0879,0.66309 -0.0879,0.87695 0,0.62989 0.16406,1.10938 0.50391,1.42383 0.33984,0.31543 0.92773,0.47852 1.75879,0.47852 0.58398,0 1.24804,-0.16309 2.0039,-0.47852 0.75488,-0.31445 1.43555,-0.68457 2.07813,-1.12109 l 2.26757,-9.19141 h 2.20411 z"
   id="path40"
   inkscape:connector-curvature="0"
   style="fill:#ea7d32" />
<path
   d="m 347.8247,146.17822 h -0.11328 c -0.31933,-0.0674 -0.60449,-0.12207 -0.88574,-0.15918 -0.26465,-0.0303 -0.58789,-0.0508 -0.98242,-0.0508 -0.73926,0 -1.45703,0.16406 -2.19239,0.47461 -0.71777,0.31054 -1.41894,0.68847 -2.07812,1.13379 l -2.1377,8.79296 h -2.22949 l 2.98535,-12.36621 h 2.2295 l -0.43262,1.82618 c 1.05859,-0.68067 1.92773,-1.1543 2.66308,-1.42774 0.71778,-0.26465 1.41895,-0.39844 2.07813,-0.39844 0.39844,0 0.68066,0.0127 0.85254,0.0293 0.16797,0.0205 0.41601,0.0586 0.75586,0.10449 l -0.5127,2.04102 z"
   id="path42"
   inkscape:connector-curvature="0"
   style="fill:#ea7d32" />
<path
   d="m 352.50732,156.65869 c -1.81445,0 -3.22559,-0.39063 -4.27051,-1.19629 -1.0166,-0.81055 -1.5459,-1.98242 -1.5459,-3.53125 0,-2.26758 0.77735,-4.21192 2.28907,-5.82813 1.52441,-1.625 3.40136,-2.44043 5.64355,-2.44043 1.47363,0 2.62793,0.35352 3.42188,1.04981 0.79394,0.68847 1.18847,1.67187 1.18847,2.93164 0,0.21387 -0.0381,0.57519 -0.11328,1.04492 -0.0547,0.4834 -0.16797,1.04199 -0.31933,1.66309 h -9.6709 c -0.0371,0.21875 -0.0752,0.43652 -0.10059,0.64257 -0.0127,0.20996 -0.0371,0.39844 -0.0371,0.5752 0,1.04101 0.33985,1.86426 1.01953,2.45605 0.66797,0.59278 1.625,0.88672 2.86035,0.88672 0.84375,0 1.7334,-0.15136 2.65723,-0.458 0.90723,-0.32715 1.66309,-0.67188 2.28906,-1.07129 h 0.12989 l -0.49121,2.24316 c -0.37793,0.12598 -0.73438,0.25195 -1.03711,0.36523 -0.32325,0.11329 -0.71778,0.21387 -1.20899,0.32715 -0.47461,0.11328 -0.90722,0.20117 -1.28515,0.25586 -0.37403,0.0596 -0.85254,0.084 -1.41895,0.084 z m 4.47949,-7.83496 c 0.0381,-0.20997 0.0762,-0.39063 0.0762,-0.542 0.0166,-0.13867 0.0381,-0.29785 0.0381,-0.46972 0,-0.78516 -0.22754,-1.39063 -0.70215,-1.82325 -0.45312,-0.44433 -1.1875,-0.66308 -2.20801,-0.66308 -1.11718,0 -2.1123,0.32324 -2.98144,0.96582 -0.86914,0.64258 -1.46094,1.48242 -1.76367,2.53223 h 7.54101 z"
   id="path44"
   inkscape:connector-curvature="0"
   style="fill:#ea7d32" />
<path
   d="m 372.89306,156.70947 c -1.15429,0 -2.22949,-0.11328 -3.25,-0.33985 -1.02051,-0.22754 -2.04101,-0.56738 -3.02344,-1.0332 l 0.56739,-2.50684 h 0.16797 c 0.75586,0.67969 1.66308,1.1836 2.75879,1.54981 1.0957,0.35254 2.15429,0.5332 3.17382,0.5332 1.65918,0 2.94434,-0.30664 3.83789,-0.93652 0.90723,-0.62988 1.33594,-1.43652 1.33594,-2.40625 0,-0.50781 -0.15137,-0.94531 -0.46582,-1.28516 -0.32812,-0.33984 -0.78125,-0.583 -1.39844,-0.75586 -0.5166,-0.12988 -1.12109,-0.25195 -1.81445,-0.37793 -0.70117,-0.12109 -1.36035,-0.25195 -2.00293,-0.39453 -1.23047,-0.25586 -2.1748,-0.69726 -2.85547,-1.33105 -0.65918,-0.62598 -0.99902,-1.40625 -0.99902,-2.34278 0,-1.5791 0.69726,-2.89355 2.11621,-3.93945 1.41504,-1.04492 3.25,-1.56543 5.47949,-1.56543 1.22266,0 2.34375,0.1211 3.32617,0.35645 0.99512,0.23925 1.86426,0.5166 2.58204,0.84375 l -0.5293,2.34375 h -0.16797 c -0.54981,-0.48731 -1.34375,-0.89453 -2.37598,-1.24317 -1.0459,-0.33593 -2.11621,-0.50781 -3.25,-0.50781 -1.43652,0 -2.59082,0.28906 -3.43945,0.88574 -0.85254,0.60059 -1.26758,1.35645 -1.26758,2.26758 0,0.49121 0.15039,0.91504 0.45313,1.29297 0.30273,0.37012 0.85254,0.64258 1.6455,0.83203 0.49219,0.11328 1.17188,0.24707 1.97852,0.40723 0.83105,0.15918 1.53613,0.31054 2.10352,0.44433 1.10839,0.29395 1.96484,0.71875 2.52734,1.29395 0.58398,0.5664 0.86914,1.28418 0.86914,2.1543 0,0.72558 -0.18848,1.43945 -0.56641,2.1582 -0.36132,0.71777 -0.89062,1.33496 -1.57031,1.84277 -0.71777,0.55078 -1.5625,0.98242 -2.53223,1.28516 -0.95703,0.31055 -2.1123,0.47461 -3.41406,0.47461 z"
   id="path46"
   inkscape:connector-curvature="0"
   style="fill:#ea7d32" />
<path
   d="m 388.15673,156.65869 c -1.81347,0 -3.23339,-0.39063 -4.2705,-1.19629 -1.04102,-0.81055 -1.54883,-1.98242 -1.54883,-3.53125 0,-2.26758 0.75586,-4.21192 2.28418,-5.82813 1.51172,-1.625 3.39648,-2.44043 5.62695,-2.44043 1.49902,0 2.64453,0.35352 3.42188,1.04981 0.79394,0.68847 1.18847,1.67187 1.18847,2.93164 0,0.21387 -0.0166,0.57519 -0.0928,1.04492 -0.0752,0.4834 -0.17188,1.04199 -0.32324,1.66309 h -9.6709 c -0.0537,0.21875 -0.0752,0.43652 -0.11328,0.64257 -0.0166,0.20996 -0.0166,0.39844 -0.0166,0.5752 0,1.04101 0.34082,1.86426 1,2.45605 0.67968,0.59278 1.625,0.88672 2.86718,0.88672 0.85743,0 1.73926,-0.15136 2.64551,-0.458 0.93262,-0.32715 1.68359,-0.67188 2.30567,-1.07129 h 0.13378 l -0.49121,2.24316 c -0.39843,0.12598 -0.73828,0.25195 -1.05371,0.36523 -0.30176,0.11329 -0.70508,0.21387 -1.19629,0.32715 -0.49121,0.11328 -0.91992,0.20117 -1.28515,0.25586 -0.37793,0.0596 -0.84375,0.084 -1.41114,0.084 z m 4.47266,-7.83496 c 0.0371,-0.20997 0.0586,-0.39063 0.0752,-0.542 0.0254,-0.13867 0.0381,-0.29785 0.0381,-0.46972 0,-0.78516 -0.24023,-1.39063 -0.69336,-1.82325 -0.47851,-0.44433 -1.20898,-0.66308 -2.21679,-0.66308 -1.13379,0 -2.11622,0.32324 -2.98145,0.96582 -0.86914,0.64258 -1.45313,1.48242 -1.75488,2.53223 h 7.5332 z"
   id="path48"
   inkscape:connector-curvature="0"
   style="fill:#ea7d32" />
<path
   d="m 405.66259,146.17822 h -0.11328 c -0.31445,-0.0674 -0.61719,-0.12207 -0.88183,-0.15918 -0.26465,-0.0303 -0.5918,-0.0508 -0.98243,-0.0508 -0.74316,0 -1.47363,0.16406 -2.19238,0.47461 -0.71777,0.31054 -1.41894,0.68847 -2.07812,1.13379 l -2.1377,8.79296 h -2.22949 l 2.98535,-12.36621 h 2.25098 l -0.45313,1.82618 c 1.03711,-0.68067 1.92676,-1.1543 2.65821,-1.42774 0.71777,-0.26465 1.42285,-0.39844 2.10351,-0.39844 0.37793,0 0.64258,0.0127 0.83106,0.0293 0.16406,0.0205 0.41601,0.0586 0.75195,0.10449 l -0.5127,2.04102 z"
   id="path50"
   inkscape:connector-curvature="0"
   style="fill:#ea7d32" />
<path
   d="m 418.34423,144.00341 -8.33496,12.36621 h -2.19238 l -2.24219,-12.36621 h 2.24219 l 1.66309,9.85938 6.44531,-9.85938 h 2.41894 z"
   id="path52"
   inkscape:connector-curvature="0"
   style="fill:#ea7d32" />
<path
   d="m 422.3999,144.00341 -3.04004,12.36621 h -2.1875 l 3.03613,-12.36621 h 2.19141 z m 1.20996,-4.208 -0.5293,2.16699 h -2.49414 l 0.5293,-2.16699 h 2.49414 z"
   id="path54"
   inkscape:connector-curvature="0"
   style="fill:#ea7d32" />
<path
   d="m 435.73681,146.82861 c 0,0.18066 -0.0176,0.41601 -0.0547,0.71875 -0.0381,0.30176 -0.0762,0.5664 -0.15136,0.80176 l -1.96485,8.0205 h -2.18847 l 1.71386,-7.02929 c 0.0752,-0.38672 0.15137,-0.72657 0.20997,-1.02051 0.0371,-0.28125 0.0752,-0.5752 0.0752,-0.86524 0,-0.62597 -0.17187,-1.08789 -0.49121,-1.39843 -0.33984,-0.31446 -0.92773,-0.47461 -1.77148,-0.47461 -0.60547,0 -1.27247,0.16015 -1.99122,0.46191 -0.73046,0.31543 -1.43554,0.69336 -2.1289,1.12598 l -2.25,9.20019 h -2.20899 l 3.04004,-12.36621 h 2.21289 l -0.33984,1.38086 c 0.83105,-0.55859 1.625,-0.98242 2.35547,-1.27636 0.74316,-0.29395 1.49902,-0.44532 2.29297,-0.44532 1.14648,0 2.03613,0.27735 2.67871,0.81543 0.64258,0.5459 0.96191,1.33106 0.96191,2.35059 z"
   id="path56"
   inkscape:connector-curvature="0"
   style="fill:#ea7d32" />
<path
   d="m 450.18994,144.00341 -2.6836,10.99317 c -0.51172,2.09961 -1.36035,3.62793 -2.51562,4.60156 -1.1709,0.97461 -2.7959,1.45312 -4.8877,1.45312 -0.66308,0 -1.34277,-0.0459 -2.02343,-0.13867 -0.68067,-0.0967 -1.30176,-0.21875 -1.86817,-0.37793 l 0.50781,-2.04101 h 0.11329 c 0.43652,0.18066 1.0205,0.35742 1.75976,0.52148 0.73438,0.16797 1.43555,0.25195 2.09082,0.25195 0.74317,0 1.36035,-0.0928 1.87695,-0.27343 0.5293,-0.18067 0.94434,-0.43262 1.28516,-0.74707 0.31445,-0.31055 0.5791,-0.66797 0.79297,-1.0752 0.20215,-0.41113 0.37793,-0.87793 0.49121,-1.38965 l 0.26465,-1.07519 c -0.79297,0.5039 -1.47363,0.86914 -2.07813,1.1123 -0.59179,0.26075 -1.36035,0.37793 -2.29297,0.37793 -1.25976,0 -2.26269,-0.36914 -2.95996,-1.09961 -0.71875,-0.74316 -1.0791,-1.76757 -1.0791,-3.11132 0,-1.06739 0.18848,-2.1045 0.54981,-3.11622 0.37793,-1.01171 0.88574,-1.90625 1.5498,-2.68261 0.6416,-0.76465 1.43555,-1.37793 2.34278,-1.83106 0.90722,-0.46582 1.86425,-0.69336 2.91015,-0.69336 0.75586,0 1.41016,0.0889 1.99805,0.24805 0.58398,0.15918 1.09668,0.36914 1.5498,0.62109 l 0.26465,-0.52832 h 2.04102 z m -2.72168,2.2295 c -0.51172,-0.24415 -1.01953,-0.43262 -1.54883,-0.56739 -0.5127,-0.13867 -1.04199,-0.20508 -1.58301,-0.20508 -0.75586,0 -1.46191,0.15918 -2.0791,0.49122 -0.62988,0.33105 -1.1709,0.78515 -1.625,1.36914 -0.41504,0.54492 -0.75586,1.20898 -1.00293,1.98144 -0.22754,0.77637 -0.34082,1.54981 -0.34082,2.31836 0,0.87695 0.20996,1.54883 0.62598,2.02734 0.41601,0.47461 1.0957,0.71875 2.00293,0.71875 0.64257,0 1.29785,-0.13086 1.96484,-0.39062 0.65527,-0.26465 1.29785,-0.58008 1.92383,-0.98242 l 1.66211,-6.76074 z"
   id="path58"
   inkscape:connector-curvature="0"
   style="fill:#ea7d32" />
<path
   d="m 459.95263,160.92138 h -2.46972 l 3.85058,-5.32031 -2.38086,-11.59766 h 2.26758 l 1.86914,9.16602 6.25684,-9.16602 h 2.45215 l -11.84571,16.91797 z"
   id="path60"
   inkscape:connector-curvature="0"
   style="fill:#ea7d32" />
<path
   d="m 483.48779,148.37841 c 0,1.1045 -0.16309,2.1709 -0.52832,3.18262 -0.35352,1.0166 -0.86914,1.91113 -1.52442,2.6543 -0.68066,0.78125 -1.47363,1.39843 -2.36425,1.83105 -0.88575,0.44922 -1.92774,0.66309 -3.11524,0.66309 -1.5498,0 -2.75976,-0.41602 -3.6289,-1.25977 -0.88965,-0.83984 -1.31836,-1.99023 -1.31836,-3.46387 0,-1.10449 0.18945,-2.16308 0.54199,-3.1621 0.33984,-1.00391 0.86914,-1.89844 1.53223,-2.67481 0.66015,-0.75586 1.45312,-1.36035 2.39843,-1.80566 0.92774,-0.45313 1.96485,-0.68067 3.08203,-0.68067 1.51172,0 2.69532,0.40723 3.60254,1.22266 0.89453,0.80957 1.32227,1.97363 1.32227,3.49316 z m -3.58594,4.65235 c 0.41211,-0.5791 0.73926,-1.25977 0.96582,-2.03614 0.22656,-0.76464 0.31543,-1.58691 0.31543,-2.44824 0,-1.02832 -0.23926,-1.80176 -0.76855,-2.33887 -0.5127,-0.52929 -1.24707,-0.79394 -2.21289,-0.79394 -0.75586,0 -1.43653,0.16797 -2.01954,0.5166 -0.60546,0.34082 -1.13378,0.81445 -1.57031,1.41113 -0.41601,0.5752 -0.73535,1.25586 -0.96191,2.03614 -0.22656,0.77734 -0.33985,1.58789 -0.33985,2.43164 0,1.00781 0.26465,1.78906 0.79297,2.33008 0.50879,0.54589 1.24707,0.81933 2.20899,0.81933 0.75586,0 1.43652,-0.16406 2.04101,-0.50391 0.6045,-0.33984 1.11621,-0.81933 1.54883,-1.42382 z"
   id="path62"
   inkscape:connector-curvature="0"
   style="fill:#ea7d32" />
<path
   d="m 497.98291,144.00341 -3.04786,12.36621 h -2.20507 l 0.34082,-1.39843 c -0.85254,0.55371 -1.625,0.98242 -2.36426,1.28515 -0.71777,0.30176 -1.49121,0.45313 -2.30567,0.45313 -1.13378,0 -2.00293,-0.26465 -2.6455,-0.80664 -0.64258,-0.53711 -0.95703,-1.30957 -0.95703,-2.34278 0,-0.23925 0.0127,-0.49121 0.0508,-0.72168 0.0371,-0.23535 0.10058,-0.51269 0.15039,-0.81543 l 1.96582,-8.01953 h 2.21289 l -1.72168,7.03711 c -0.0762,0.28614 -0.13086,0.60449 -0.20606,0.97461 -0.0586,0.36914 -0.0967,0.66309 -0.0967,0.87695 0,0.62989 0.17188,1.10938 0.5127,1.42383 0.33984,0.31543 0.92383,0.47852 1.75488,0.47852 0.58789,0 1.24707,-0.16309 2.00293,-0.47852 0.75586,-0.31445 1.43653,-0.68457 2.07422,-1.12109 l 2.26758,-9.19141 h 2.2168 z"
   id="path64"
   inkscape:connector-curvature="0"
   style="fill:#ea7d32" />
<path
   d="m 501.66162,156.36962 h -2.83399 l 0.77637,-3.15429 h 2.85156 l -0.79394,3.15429 z"
   id="path66"
   inkscape:connector-curvature="0"
   style="fill:#ea7d32" />
</svg>