<?xml version="1.0" encoding="UTF-8" standalone="no"?>
<!-- Created with Inkscape (http://www.inkscape.org/) -->
<svg
   xmlns:svg="http://www.w3.org/2000/svg"
   xmlns="http://www.w3.org/2000/svg"
   version="1.0"
   width="744.09448"
   height="220.74803"
   id="svg8461">
  <defs
     id="defs8463"><clipPath
   id="clp4">
<path
   d="M 45.29,692.27 L 131.66,692.27 L 131.66,714.87 L 45.29,714.87 L 45.29,692.27 z "
   id="path26" />

</clipPath>
<clipPath
   id="clp5">
<path
   d="M 45.29,692.27 L 131.66,692.27 L 131.66,714.87 L 45.29,714.87 L 45.29,692.27 z "
   id="path42" />

</clipPath>
<clipPath
   id="clp6">
<path
   d="M 45.29,692.27 L 131.66,692.27 L 131.66,714.87 L 45.29,714.87 L 45.29,692.27 z "
   id="path52" />

</clipPath>
<clipPath
   id="clp7">
<path
   d="M 45.29,692.27 L 131.66,692.27 L 131.66,714.87 L 45.29,714.87 L 45.29,692.27 z "
   id="path62" />

</clipPath>
<clipPath
   id="clp8">
<path
   d="M 45.29,692.27 L 131.66,692.27 L 131.66,714.87 L 45.29,714.87 L 45.29,692.27 z "
   id="path72" />

</clipPath>
<clipPath
   id="clp9">
<path
   d="M 45.29,692.27 L 131.66,692.27 L 131.66,714.87 L 45.29,714.87 L 45.29,692.27 z "
   id="path82" />

</clipPath>
<clipPath
   id="clp10">
<path
   d="M 45.29,692.27 L 131.66,692.27 L 131.66,714.87 L 45.29,714.87 L 45.29,692.27 z "
   id="path92" />

</clipPath>
<clipPath
   id="clp11">
<path
   d="M 45.29,692.27 L 131.66,692.27 L 131.66,714.87 L 45.29,714.87 L 45.29,692.27 z "
   id="path102" />

</clipPath>
<clipPath
   id="clp12">
<path
   d="M 45.29,692.27 L 131.66,692.27 L 131.66,714.87 L 45.29,714.87 L 45.29,692.27 z "
   id="path112" />

</clipPath>
<clipPath
   id="clp13">
<path
   d="M 45.29,692.27 L 131.66,692.27 L 131.66,714.87 L 45.29,714.87 L 45.29,692.27 z "
   id="path122" />

</clipPath>
<clipPath
   id="clp14">
<path
   d="M 45.29,692.27 L 131.66,692.27 L 131.66,714.87 L 45.29,714.87 L 45.29,692.27 z "
   id="path132" />

</clipPath>
<clipPath
   id="clp15">
<path
   d="M 45.29,692.27 L 131.66,692.27 L 131.66,714.87 L 45.29,714.87 L 45.29,692.27 z "
   id="path142" />

</clipPath>
<clipPath
   id="clp16">
<path
   d="M 45.29,692.27 L 131.66,692.27 L 131.66,714.87 L 45.29,714.87 L 45.29,692.27 z "
   id="path152" />

</clipPath>

<clipPath
   id="clipPath6577">
<path
   d="M 45.29,692.27 L 131.66,692.27 L 131.66,714.87 L 45.29,714.87 L 45.29,692.27 z "
   id="path6579" />

</clipPath>



<clipPath
   id="clipPath6588">
<path
   d="M 45.29,692.27 L 131.66,692.27 L 131.66,714.87 L 45.29,714.87 L 45.29,692.27 z "
   id="path6590" />

</clipPath>



<clipPath
   id="clipPath6596">
<path
   d="M 45.29,692.27 L 131.66,692.27 L 131.66,714.87 L 45.29,714.87 L 45.29,692.27 z "
   id="path6598" />

</clipPath>



<clipPath
   id="clipPath6604">
<path
   d="M 45.29,692.27 L 131.66,692.27 L 131.66,714.87 L 45.29,714.87 L 45.29,692.27 z "
   id="path6606" />

</clipPath>



<clipPath
   id="clipPath6612">
<path
   d="M 45.29,692.27 L 131.66,692.27 L 131.66,714.87 L 45.29,714.87 L 45.29,692.27 z "
   id="path6614" />

</clipPath>



<clipPath
   id="clipPath6620">
<path
   d="M 45.29,692.27 L 131.66,692.27 L 131.66,714.87 L 45.29,714.87 L 45.29,692.27 z "
   id="path6622" />

</clipPath>



<clipPath
   id="clipPath6628">
<path
   d="M 45.29,692.27 L 131.66,692.27 L 131.66,714.87 L 45.29,714.87 L 45.29,692.27 z "
   id="path6630" />

</clipPath>



<clipPath
   id="clipPath6636">
<path
   d="M 45.29,692.27 L 131.66,692.27 L 131.66,714.87 L 45.29,714.87 L 45.29,692.27 z "
   id="path6638" />

</clipPath>



<clipPath
   id="clipPath6644">
<path
   d="M 45.29,692.27 L 131.66,692.27 L 131.66,714.87 L 45.29,714.87 L 45.29,692.27 z "
   id="path6646" />

</clipPath>



<clipPath
   id="clipPath6652">
<path
   d="M 45.29,692.27 L 131.66,692.27 L 131.66,714.87 L 45.29,714.87 L 45.29,692.27 z "
   id="path6654" />

</clipPath>



<clipPath
   id="clipPath6660">
<path
   d="M 45.29,692.27 L 131.66,692.27 L 131.66,714.87 L 45.29,714.87 L 45.29,692.27 z "
   id="path6662" />

</clipPath>



<clipPath
   id="clipPath6668">
<path
   d="M 45.29,692.27 L 131.66,692.27 L 131.66,714.87 L 45.29,714.87 L 45.29,692.27 z "
   id="path6670" />

</clipPath>



<clipPath
   id="clipPath6676">
<path
   d="M 45.29,692.27 L 131.66,692.27 L 131.66,714.87 L 45.29,714.87 L 45.29,692.27 z "
   id="path6678" />

</clipPath>
































</defs>
  <g
     transform="translate(-225.90261,-192.32672)"
     id="layer1">
    <g
       transform="translate(17.699571,17.934176)"
       id="g8839">
      <path
         d="M 379.17107,335.58473 L 384.90631,356.42526 L 372.80399,356.42526 L 379.17107,335.58473 z M 371.46662,361.51233 L 386.39959,361.51233 L 390.36261,375.78898 L 395.98296,375.78898 L 382.28072,328.20024 L 376.11883,328.20024 L 361.93247,375.78898 L 367.29027,375.78898 L 371.46662,361.51233"
         style="fill:#01a1aa;fill-rule:nonzero;stroke:none"
         id="path38" />
      <path
         d="M 416.01946,333.5335 C 419.49835,333.5335 423.02652,335.17449 425.22545,339.60517 C 427.03869,343.2153 427.4654,347.89212 427.36691,352.15869 C 427.2028,356.34324 426.56282,360.03545 426.18539,361.84055 C 425.6521,364.30202 423.13315,368.32246 421.42654,369.30706 C 419.87579,370.12756 418.90759,370.37369 417.41431,370.37369 L 406.49351,370.37369 L 406.49351,333.5335 L 416.01946,333.5335 z M 419.22761,375.78898 C 421.15574,375.62487 424.90543,373.9018 428.26949,368.65068 C 431.72377,363.39951 432.84782,356.0971 432.19964,347.56396 C 431.29706,335.25651 424.74132,328.20024 416.50359,328.20024 L 401.49673,328.20024 L 401.49673,375.78898 L 419.22761,375.78898"
         style="fill:#01a1aa;fill-rule:nonzero;stroke:none"
         id="path48" />
      <path
         d="M 457.8975,333.5335 C 461.01542,333.5335 465.83994,334.51804 465.14249,342.64094 C 464.60921,348.7947 461.27796,349.86132 457.95498,349.86132 L 445.34398,349.86132 L 445.34398,333.5335 L 457.8975,333.5335 z M 440.34714,375.78898 L 445.34398,375.78898 L 445.34398,355.27661 L 458.1601,355.27661 C 466.35682,355.27661 464.11687,364.13791 464.54352,369.71731 C 464.70763,371.52241 464.92096,373.49155 465.66763,375.78898 L 471.69822,375.78898 L 471.69822,374.14799 C 469.9342,372.58903 469.72088,370.37369 469.61418,364.38411 C 469.50755,356.50735 469.0809,355.27661 465.07687,352.24078 C 468.93319,348.71261 470.47569,346.49727 470.21315,340.26155 C 469.72908,329.51307 463.85433,328.20024 457.79087,328.20024 L 440.34714,328.20024 L 440.34714,375.78898"
         style="fill:#01a1aa;fill-rule:nonzero;stroke:none"
         id="path58" />
      <path
         d="M 479.39447,328.20024 L 484.39131,328.20024 L 484.39131,375.78898 L 479.39447,375.78898 L 479.39447,328.20024 z "
         style="fill:#01a1aa;fill-rule:nonzero;stroke:none"
         id="path68" />
      <path
         d="M 507.0534,335.58473 L 512.78044,356.42526 L 500.67812,356.42526 L 507.0534,335.58473 z M 499.34075,361.51233 L 514.28192,361.51233 L 518.24494,375.78898 L 523.86529,375.78898 L 510.16305,328.20024 L 504.00116,328.20024 L 489.8148,375.78898 L 495.1644,375.78898 L 499.34075,361.51233"
         style="fill:#01a1aa;fill-rule:nonzero;stroke:none"
         id="path78" />
      <path
         d="M 566.65411,335.58473 L 572.38115,356.42526 L 560.27889,356.42526 L 566.65411,335.58473 z M 558.94146,361.51233 L 573.88269,361.51233 L 577.84565,375.78898 L 583.46606,375.78898 L 569.75562,328.20024 L 563.60187,328.20024 L 549.41551,375.78898 L 554.76517,375.78898 L 558.94146,361.51233"
         style="fill:#01a1aa;fill-rule:nonzero;stroke:none"
         id="path88" />
      <path
         d="M 589.57874,328.20024 L 594.57558,328.20024 L 594.57558,375.78898 L 589.57874,375.78898 L 589.57874,328.20024 z "
         style="fill:#01a1aa;fill-rule:nonzero;stroke:none"
         id="path98" />
      <path
         d="M 621.61087,333.5335 C 624.72873,333.5335 629.54505,334.51804 628.85586,342.64094 C 628.32252,348.7947 624.99133,349.86132 621.66829,349.86132 L 609.05729,349.86132 L 609.05729,333.5335 L 621.61087,333.5335 z M 604.06051,375.78898 L 609.05729,375.78898 L 609.05729,355.27661 L 621.87341,355.27661 C 630.07019,355.27661 627.83024,364.13791 628.2569,369.71731 C 628.41274,371.52241 628.62613,373.49155 629.37274,375.78898 L 635.4116,375.78898 L 635.4116,374.14799 C 633.64751,372.58903 633.42598,370.37369 633.31935,364.38411 C 633.21266,356.50735 632.78601,355.27661 628.79018,352.24078 C 632.6465,348.71261 634.18906,346.49727 633.92652,340.26155 C 633.44239,329.51307 627.56764,328.20024 621.50418,328.20024 L 604.06051,328.20024 L 604.06051,375.78898"
         style="fill:#01a1aa;fill-rule:nonzero;stroke:none"
         id="path108" />
      <path
         d="M 680.94904,328.20024 L 686.52844,328.20024 L 676.51836,375.78898 L 671.04572,375.78898 L 662.11873,336.97958 L 653.33939,375.78898 L 647.85028,375.78898 L 638.00437,328.20024 L 643.5673,328.20024 L 650.77948,366.51737 L 659.49314,328.20024 L 664.90016,328.20024 L 673.55641,366.51737 L 680.94904,328.20024"
         style="fill:#01a1aa;fill-rule:nonzero;stroke:none"
         id="path118" />
      <path
         d="M 703.59473,335.58473 L 709.25615,356.42526 L 697.19484,356.42526 L 703.59473,335.58473 z M 695.88207,361.51233 L 710.81505,361.51233 L 714.75346,375.78898 L 720.33279,375.78898 L 706.63056,328.20024 L 700.47681,328.20024 L 686.36433,375.78898 L 691.69753,375.78898 L 695.88207,361.51233"
         style="fill:#01a1aa;fill-rule:nonzero;stroke:none"
         id="path128" />
      <path
         d="M 724.10709,328.20024 L 735.34785,351.25617 L 746.42456,328.20024 L 752.57825,328.20024 L 737.80933,357.16373 L 737.80933,375.78898 L 732.80435,375.78898 L 732.80435,357.16373 L 717.95334,328.20024 L 724.10709,328.20024"
         style="fill:#01a1aa;fill-rule:nonzero;stroke:none"
         id="path138" />
      <path
         d="M 779.98278,341.98456 C 780.0648,339.19492 779.40842,336.56934 776.45467,334.35399 C 773.82909,332.38479 771.94191,332.46681 769.97276,332.46681 C 761.02937,332.46681 759.38839,342.64094 763.90109,345.67678 C 765.29594,346.66138 767.18306,347.39985 769.80865,347.9742 C 773.09062,349.04083 776.29056,350.18954 779.49051,351.17415 C 782.8545,352.65102 785.97242,357.16373 786.13647,361.84055 C 786.54672,371.35829 779.16229,377.51199 770.79325,377.26585 C 765.6241,377.01972 761.76778,376.28125 758.23967,371.27627 C 755.61408,367.41994 755.53206,364.38411 755.44997,360.69183 L 760.04477,360.69183 C 760.04477,363.48153 760.86526,370.04547 767.67533,371.52241 C 768.82405,371.76854 770.79325,371.93265 772.7624,371.76854 C 774.81369,371.52241 776.94695,370.86602 778.34179,369.47117 C 780.8853,366.84559 782.77248,361.34828 778.09566,357.49195 C 775.79823,356.01501 772.59835,355.1125 769.97276,354.37403 C 764.6395,352.89716 767.18306,353.63562 761.93189,351.50231 C 760.20888,350.76384 757.25507,348.71261 756.7628,342.72303 C 756.10635,335.01038 760.37293,327.37975 769.89067,327.37975 C 773.17264,327.37975 777.02897,328.11822 779.3264,329.84122 C 784.6596,333.77964 784.98782,339.8513 784.82371,341.98456 L 779.98278,341.98456"
         style="fill:#01a1aa;fill-rule:nonzero;stroke:none"
         id="path148" />
      <g
         id="g8831">
        <path
           d="M 697.60511,210.62376 C 700.72299,220.79789 698.5897,232.85917 691.94369,240.16157 C 681.27726,252.1408 667.42731,256.16122 653.27377,258.37656 C 653.27377,258.37656 667.26321,284.22215 671.98105,295.54498 L 631.39938,295.54498 C 623.22725,280.94017 615.8592,266.00716 608.31065,251.07416 C 607.99886,249.59726 606.88299,248.36652 607.82656,248.36652 C 625.12259,246.88963 647.30057,250.00751 657.99162,233.18737 C 659.56697,230.64383 659.87875,226.62341 659.56697,223.75168 C 656.73626,214.23394 647.30057,213.82369 639.44023,213.49549 C 594.7889,214.23394 537.78912,295.79113 537.78912,295.79113 L 526.45808,295.54498 C 526.45808,295.54498 539.14293,274.78646 546.37149,265.26872 C 578.75643,219.321 622.1524,187.9781 674.65587,192.73697 C 683.82079,194.54206 693.50263,200.03937 697.60511,210.62376"
           style="fill:#2a428f;fill-rule:nonzero;stroke:none"
           id="path30" />
        <path
           d="M 800.74131,195.7728 L 728.45571,295.79113 L 681.60546,295.79113 C 680.29267,295.05268 752.66031,195.7728 752.66031,195.7728 L 800.74131,195.7728"
           style="fill:#2a428f;fill-rule:nonzero;stroke:none"
           id="path32" />
        <path
           d="M 402.67823,210.78786 C 401.10288,206.02899 397.01681,202.00856 393.24254,199.13683 C 371.54865,189.61909 345.44871,196.18305 325.33017,204.5521 C 287.28383,218.82871 224.64725,292.5912 225.90261,295.54498 C 240.99971,296.93982 274.70564,296.11932 274.70564,296.11932 C 274.70564,296.11932 287.59562,270.60193 297.34309,261.49444 C 321.5559,261.08419 346.08049,259.2791 369.34972,260.75599 L 345.57999,295.54498 C 345.57999,295.54498 352.99726,295.79113 356.13976,295.38088 L 392.93075,248.69472 C 400.15931,238.52058 407.39607,224.98242 402.67823,210.78786 z M 392.93075,226.04906 C 389.78825,234.82836 385.70219,244.6743 378.15363,248.69472 C 355.19619,248.69472 331.93516,249.84341 308.66592,248.69472 C 327.21731,227.52595 349.85477,212.59295 375.01114,207.09563 C 380.66435,207.09563 386.64576,207.09563 391.04361,211.5263 C 393.56253,215.54673 394.5061,221.37224 392.93075,226.04906"
           style="fill:#2a428f;fill-rule:nonzero;stroke:none"
           id="path34" />
        <path
           d="M 551.40113,217.51592 C 541.03007,198.15224 522.47868,192.32672 503.6073,192.32672 C 445.75421,191.99852 373.124,296.11932 373.124,296.11932 L 377.84185,295.95522 L 464.93738,295.95522 C 490.71733,293.41169 514.61834,285.69904 534.42509,266.74561 C 546.37149,255.09458 556.11897,237.20779 551.40113,217.51592 z M 494.80339,266.00716 C 465.88095,286.84773 428.77817,287.17593 392.29897,284.96059 C 392.29897,284.96059 448.58491,221.12609 486.94305,218.25436 C 497.6341,217.84411 508.63693,220.05945 513.35478,231.38228 C 516.18549,246.72553 504.23908,258.70476 494.80339,266.00716"
           style="fill:#2a428f;fill-rule:nonzero;stroke:none"
           id="path36" />
        <path
           d="M 933.08714,209.88531 C 931.52819,205.12644 927.42572,201.10602 923.65144,198.15224 C 901.99038,188.71655 875.89864,195.2805 855.79652,203.64955 C 817.72556,217.84411 755.1218,291.68865 756.35254,294.64243 C 771.44965,296.03727 805.17198,295.21678 805.17198,295.21678 C 805.17198,295.21678 818.05375,269.69939 827.81764,260.5919 C 852.02224,260.18165 876.55504,258.37656 899.77504,259.85345 L 875.98069,294.64243 C 875.98069,294.64243 883.4472,294.80653 886.56508,294.47833 L 923.4053,247.79218 C 930.62565,237.61804 937.84601,224.07987 933.08714,209.88531 z M 923.4053,225.14652 C 920.20537,233.92581 916.10289,243.77175 908.63639,247.79218 C 885.66253,247.79218 862.36048,248.85882 839.14047,247.79218 C 857.68366,226.62341 880.32931,211.6904 905.43646,206.19309 C 911.09787,206.19309 917.08749,206.19309 921.51816,210.62376 C 923.97964,214.56213 924.96424,220.4697 923.4053,225.14652"
           style="fill:#2a428f;fill-rule:nonzero;stroke:none;stroke-width:0.13;stroke-linecap:butt;stroke-linejoin:miter;stroke-miterlimit:4;stroke-dasharray:none"
           id="path158" />
      </g>
    </g>
  </g>
</svg>
