<?xml version="1.0" encoding="UTF-8"?>
<!DOCTYPE svg PUBLIC "-//W3C//DTD SVG 1.1//EN" "http://www.w3.org/Graphics/SVG/1.1/DTD/svg11.dtd">
<!-- Creator: CorelDRAW -->
<svg xmlns="http://www.w3.org/2000/svg" xml:space="preserve" width="2445px" height="526px" shape-rendering="geometricPrecision" text-rendering="geometricPrecision" image-rendering="optimizeQuality" fill-rule="evenodd" clip-rule="evenodd"
viewBox="0 0 2442.6 525.054"
 xmlns:xlink="http://www.w3.org/1999/xlink">
 <g id="Ebene_x0020_1">
  <metadata id="CorelCorpID_0Corel-Layer"/>
  <path fill="#008BC7" d="M231.61 401.052l-119.392 0 66.6161 -122.978c9.73065,-17.9333 18.4454,-35.8702 25.1071,-51.7517l1.02415 0c1.02533,16.9056 3.07364,34.8437 6.15083,51.2396l20.4937 123.49zm67.6367 118.368l-58.4134 -345.876 -51.2396 0 -189.594 345.876 49.1913 0 43.5573 -80.9602 144.499 0 12.2958 80.9602 49.7034 0z"/>
  <path fill="#008BC7" d="M496.011 323.677c0,30.7459 -34.8425,46.6309 -113.754,49.7034 11.7872,-43.0405 38.9427,-78.3962 79.4239,-78.3962 20.4937,0 34.3304,10.2474 34.3304,28.6929zm45.6056 -5.63757c0,-30.2291 -20.4949,-57.8978 -74.8105,-57.8978 -84.5494,0 -139.378,82.4976 -139.378,181.391 0,57.3893 27.1602,82.4976 85.5736,82.4976 33.3063,0 63.0268,-5.63403 87.6183,-15.3729l0 -36.8908c-22.03,9.22211 -47.6503,14.8561 -71.7333,14.8561 -40.9922,0 -54.8289,-10.2427 -54.8289,-49.7034 0,-9.22211 1.02415,-22.0347 2.56039,-29.7206 109.146,-4.0978 164.999,-34.3304 164.999,-89.1593z"/>
  <path fill="#008BC7" d="M717.882 304.719c-47.143,-13.3199 -97.362,86.5989 -110.682,157.312l-10.7595 57.3893 -45.0935 0 48.1671 -254.669 44.0693 0c-4.10134,22.0347 -11.2763,49.1913 -26.136,93.7727l1.02415 0.512077c28.6964,-62.0027 59.4423,-107.093 108.629,-98.8947l-9.21857 44.5779z"/>
  <path fill="#002868" d="M930.009 395.93l-95.3078 0 47.1418 -88.134c10.7631,-19.9864 19.4696,-39.9727 27.1602,-57.9061l0.512077 0c1.02415,18.9622 3.07246,37.4076 5.63403,55.3409l14.8597 90.6991zm87.111 123.49l-55.3409 -345.876 -73.7864 0 -184.468 345.876 68.1488 0 36.8955 -70.7092 128.103 0 10.2463 70.7092 70.2018 0z"/>
  <path fill="#002868" d="M1205.69 322.652c-37.4029,-11.7837 -81.9843,55.3409 -98.8935,141.427l-10.7631 55.3409 -64.0522 0 25.6239 -133.229c7.17026,-35.8667 16.9092,-88.646 22.0347,-121.44l61.9991 0c-3.58572,19.4743 -9.73537,42.0163 -22.0347,76.8635l1.02415 0c27.1602,-53.8047 54.8289,-89.1593 98.8982,-81.9855l-13.8367 63.0233z"/>
  <path fill="#002868" d="M1382.46 314.967l-3.07246 16.3971c-10.2474,53.8035 -55.853,137.329 -92.2318,137.329 -12.8126,0 -19.4743,-10.251 -19.4743,-35.3581 0,-53.2879 27.1602,-121.953 86.0856,-121.953 11.2763,0 20.4984,1.53741 28.6929,3.58572zm72.7622 -47.143c-28.6929,-5.63285 -59.434,-7.68234 -90.1787,-7.68234 -111.711,0 -163.458,89.1593 -163.458,185.492 0,54.3168 21.0058,79.4204 59.9461,79.4204 50.7346,0 86.0892,-49.1913 106.584,-86.5942l1.02415 0c-11.7872,35.3546 -19.4743,60.9785 -24.083,80.9602l63.5389 0c10.7631,-67.1282 24.083,-133.229 46.6262,-251.596z"/>
  <path fill="#002868" d="M1673.51 519.42l-64.5678 0 30.7494 -159.872c6.14611,-31.258 1.02062,-44.0693 -15.3729,-44.0693 -34.334,0 -80.4528,79.936 -91.7197,139.378l-12.2993 64.5631 -64.0522 0 25.6204 -133.229c8.19796,-40.9922 16.3971,-86.0821 22.0347,-121.44l63.0268 0c-3.07718,15.3729 -9.22683,38.9438 -23.0635,78.9118l1.02887 0.512077c23.0588,-45.6056 58.4134,-85.0615 107.093,-85.0615 49.1901,0 64.0474,34.8425 54.8241,84.5494l-33.3016 175.757z"/>
  <path fill="#002868" d="M1939.44 519.42l-64.5631 0 30.7447 -159.872c6.14965,-31.258 1.02887,-44.0693 -15.3729,-44.0693 -34.3304,0 -80.4481,79.936 -91.7197,139.378l-12.2993 64.5631 -64.051 0 25.6228 -133.229c8.19914,-40.9922 16.3936,-86.0821 22.0347,-121.44l63.0233 0c-3.07246,15.3729 -9.22211,38.9438 -23.0588,78.9118l1.02415 0.512077c23.0588,-45.6056 58.4181,-85.0615 107.093,-85.0615 49.1948,0 64.0557,34.8425 54.8289,84.5494l-33.3063 175.757z"/>
  <path fill="#008BC7" d="M2364.55 157.525c7.7378,-122.122 -272.465,-155.543 -625.795,-74.6854 -133.276,30.4427 -257.899,72.8849 -361.844,120.413 116.61,-62.9324 271.294,-120.558 439.81,-159.143 353.39,-80.8787 633.533,-47.4262 625.883,74.6642 -4.82226,76.119 -120.259,168.647 -292.041,247.16 127.862,-69.0148 209.938,-144.496 213.988,-208.408z"/>
  <path fill="#002868" d="M2196.7 222.371c14.6473,-106.123 -217.628,-143.645 -518.751,-83.9064 -113.564,22.5585 -220.657,55.7657 -310.876,94.0476 101.844,-51.3611 235.088,-96.9089 378.769,-125.444 301.13,-59.7573 533.43,-22.2117 518.746,83.8958 -9.11238,66.1394 -111.93,143.263 -260.901,206.498 111.603,-56.3096 185.409,-119.554 193.013,-175.092z"/>
 </g>
</svg>
