<?xml version="1.0" encoding="utf-8"?>
<!-- Generator: Adobe Illustrator 15.0.0, SVG Export Plug-In . SVG Version: 6.00 Build 0)  -->
<!DOCTYPE svg PUBLIC "-//W3C//DTD SVG 1.1//EN" "http://www.w3.org/Graphics/SVG/1.1/DTD/svg11.dtd">
<svg version="1.1" id="Ebene_1" xmlns="http://www.w3.org/2000/svg" xmlns:xlink="http://www.w3.org/1999/xlink" x="0px" y="0px"
	 width="600px" height="200px" viewBox="0 0 600 200" enable-background="new 0 0 600 200" xml:space="preserve">
<rect x="5.181" y="12.958" fill="#008F7E" width="589.931" height="167.708"/>
<g id="g1362" transform="matrix(0.715993, 0, 0, 0.715993, -43.7539, -20.1862)">
	<path id="path1353" fill="#64B447" d="M756.933,227.88c0.648-1.518,1.869-4.966,2.714-7.652c1.319-4.205,2.266-5.479,6.788-9.148
		c7.072-5.739,16.547-16.694,22.064-25.519c2.339-3.734,2.345-3.778,0.338-2.357c-11.271,7.993-25.188,14.87-33.793,16.697
		c-4.766,1.013-16.163,1.298-18.343,0.461c-0.709-0.273-1.124-0.942-0.919-1.488c0.205-0.544-0.75-1.629-2.121-2.41
		c-3.745-2.125-5.465-6.105-4.92-11.392c0.839-8.144,7.03-16.979,13.885-19.818c2.154-0.895,2.559-1.472,2.23-3.197
		c-0.659-3.447,2.17-9.488,5.626-12.02c1.713-1.255,3.756-3.059,4.542-4.008c1.142-1.382,2.676-1.789,7.683-2.041
		c3.441-0.175,7.825,0.105,9.737,0.621c7.005,1.885,13.743,9.228,19.51,21.264c1.822,3.799,3.575,6.903,3.897,6.903
		s1.262-1.774,2.09-3.938l1.503-3.939l-2.203-1.608c-1.213-0.88-3.378-3.436-4.815-5.672c-7.776-12.117-8.691-28.63-2.29-41.412
		c3.943-7.877,11.093-16.03,13.416-15.293c1.087,0.344,2.336-0.085,3.534-1.208c5.734-5.388,18.44-5.748,20.426-0.578
		c0.434,1.13,0.994,1.052,4.12-0.578c4.88-2.544,13.116-3.055,18.165-1.127c4.504,1.721,6.921,4.54,8.18,9.543
		c0.535,2.118,1.428,3.683,2.106,3.683c1.499,0,1.479,1.039-0.146,7.269c-3.384,12.996-11.731,21.447-35.274,35.716
		c-15.28,9.265-18.442,11.716-20.039,15.535c-0.694,1.66-1.158,3.122-1.03,3.248c0.128,0.127,2.527-1.499,5.33-3.62
		c13.317-10.056,32.063-21.391,39.974-24.171c2.701-0.949,8.166-2.146,12.146-2.659c6.404-0.828,7.326-0.775,8.008,0.443
		c0.426,0.76,2.291,1.789,4.146,2.287c1.856,0.501,4.907,2.368,6.781,4.15c3.117,2.967,3.404,3.611,3.404,7.654
		c0,5.165-1.446,9.032-4.513,12.067l-2.197,2.177l2.505,4.965c3.943,7.819,3.242,14.319-2.246,20.83
		c-1.352,1.601-2.462,3.513-2.47,4.246c-0.018,1.903-7.361,5.636-15.333,7.8c-5.604,1.521-8.128,1.754-14.256,1.324
		c-16.126-1.132-29.105-8.597-40.585-23.346l-4.631-5.947l-3.553,6.235c-7.776,13.642-17.753,25.803-30.076,36.665
		C757.12,231.364,755.02,232.375,756.933,227.88z"/>
	<path id="path1351" fill="#FFFFFF" d="M514.107,240.695c-15.028-2.994-22.521-8.035-23.582-15.857
		c-0.974-7.196,4.025-11.748,12.755-11.607c2.724,0.045,5.161,0.286,5.408,0.532c0.247,0.247-0.162,1.328-0.908,2.399
		c-3.158,4.515-0.689,10.714,5.441,13.676c5.322,2.57,17.374,3.099,24.327,1.068c6.661-1.946,11.43-6.56,11.424-11.057
		c-0.01-7.267-4.145-9.417-19.585-10.179c-16.629-0.82-18.507-1.162-21.757-4.009c-4.688-4.11-4.753-10.697-0.166-16.54
		c1.401-1.788,1.56-2.425,0.675-2.718c-2.26-0.749-7.881-6.476-9.698-9.88c-1.478-2.769-1.849-4.905-1.856-10.692
		c-0.008-6.181,0.322-7.856,2.238-11.494c4.785-9.08,11.154-12.512,24.229-13.058c9.361-0.39,15.168,0.866,19.421,4.203
		c2.409,1.892,4.15,1.244,5.152-1.92c0.484-1.534,1.552-1.626,19.12-1.648l18.608-0.024l0.304,24.536l0.3,24.532l2.368,3.096
		c6.239,8.154,19.665,5.07,25.244-5.801c2.121-4.138,2.167-4.602,2.147-22.121c-0.025-16.954-0.123-18.068-1.915-21.089l-1.89-3.188
		l10.184-0.013l10.184-0.013l0.035,30.012c0.038,28.397,0.131,30.181,1.747,33.19l1.708,3.177l-9.365,0.011l-9.362,0.012
		l-0.004-4.766l-0.01-4.767l-4.624,4.238c-3.648,3.344-5.804,4.562-10.198,5.757c-9.642,2.623-21.787,0.224-27.15-5.367
		c-4.67-4.851-5.165-7.424-5.689-29.27c-0.454-19.174-0.57-20.282-2.301-22.005c-2.695-2.683-8.477-3.077-13.356-0.912l-3.939,1.748
		l1.671,3.672c2.454,5.384,2.317,14.29-0.299,19.842c-4.472,9.493-12.063,13.136-28.168,13.518c-5.729,0.136-5.954,0.22-5.952,2.241
		c0.005,3.007,3.107,4.251,10.644,4.264c9.906,0.016,19.99,1.428,23.7,3.313c9.646,4.905,13.088,17.383,7.695,27.898
		c-4.515,8.801-14.295,13.086-30.915,13.544C522.53,241.33,516.211,241.113,514.107,240.695z M531.869,178.336
		c4.748-2.443,6.828-6.269,6.818-12.548c-0.012-9.082-4.294-13.78-13.001-14.256c-6.168-0.34-9.742,1.364-12.544,5.971
		c-2.234,3.674-2.296,11.839-0.123,15.98c1.854,3.527,7.649,6.786,12.069,6.78C526.765,180.259,529.814,179.394,531.869,178.336z
		 M203.244,209.634c-9.538-1.724-18.762-8.118-23.057-15.988c-7.866-14.411-5.954-33.167,4.451-43.597
		c8.746-8.768,24.066-11.497,36.229-6.453c4.085,1.694,10.148,7.431,12.357,11.69c1.991,3.841,4.167,12.69,4.19,17.042l0.016,3.19
		l-22.605,0.029l-22.605,0.029l0.6,4.043c1.753,11.835,8.594,18.684,19.521,19.549c6.968,0.55,12.53-0.87,21.924-5.596
		c0.353-0.175-0.451,2.681-1.785,6.348l-2.426,6.671l-4.383,1.495C220.467,209.851,208.881,210.655,203.244,209.634z
		 M221.404,162.349c-0.646-6.201-6.859-11.482-13.497-11.471c-6.303,0.012-13.198,5.631-14.413,11.744l-0.554,2.78l14.365-0.246
		l14.366-0.254L221.404,162.349z M660.871,208.974c-2.807-0.441-7.011-1.274-9.337-1.854l-4.235-1.058l-2.306-7.23
		c-1.268-3.976-2.336-7.673-2.373-8.219c-0.04-0.544,1.942,0.124,4.403,1.483c9.719,5.382,22.476,7.425,29.068,4.659
		c3.741-1.566,5.278-5.562,3.474-9.037c-1.298-2.507-4.871-4.493-16.769-9.333c-12.464-5.07-16.869-10.061-16.881-19.127
		c-0.004-4.971,1.89-9.901,4.79-12.46c0.866-0.766,3.299-2.301,5.405-3.411c3.538-1.866,4.794-2.019,16.594-2.013
		c7.758,0.001,14.185,0.424,16.383,1.075l3.62,1.072l0.008,6.441c0.007,5.795-0.142,6.382-1.484,5.845
		c-8.025-3.205-19.405-4.637-24.204-3.046c-1.814,0.602-3.388,1.859-3.996,3.202c-1.451,3.19,0.655,5.924,6.581,8.532
		c19.394,8.544,22.487,10.596,25.395,16.818c4.905,10.501-0.179,22.445-11.214,26.342
		C678.738,209.437,667.876,210.062,660.871,208.974z M81.038,207.263c3.383-2.671,6.479-9.485,22.351-49.232l15.048-37.678
		l9.156-0.012c6.534-0.007,9.281,0.294,9.586,1.052c3.929,9.809,30.123,70.567,32.116,74.498c1.503,2.962,4.293,7.076,6.201,9.142
		l3.468,3.752l-15.97,0.022l-15.969,0.02l2.242-2.246c3.19-3.201,2.892-5.745-2.248-19.219l-4.485-11.747l-16.574,0.245
		l-16.574,0.25l-4.024,10.645c-4.683,12.389-5.094,16.519-1.977,19.875l2.089,2.249l-13.266,0.016l-13.265,0.019L81.038,207.263z
		 M137.843,164.662c-0.002-1.08-11.115-29.287-11.837-30.043c-0.506-0.534-12.037,28.476-12.004,30.207
		C114.019,165.748,137.843,165.583,137.843,164.662z M246.827,205.519c1.597-2.987,1.698-4.794,1.665-30.013
		c-0.031-25.216-0.136-27.025-1.742-30.009l-1.708-3.178l9.364-0.012l9.363-0.012l0.052,5.319c0.049,5.267,0.063,5.298,1.481,3.192
		c4.291-6.385,10.117-9.589,16.745-9.208l4.275,0.243l0.008,6.951c0.005,3.824-0.183,7.144-0.418,7.38
		c-0.233,0.233-2.238,0.013-4.452-0.489c-5.467-1.247-10.102,0.183-13.01,4.007c-3.075,4.041-4.045,11.658-3.636,28.549
		c0.306,12.653,0.532,14.421,2.215,17.267l1.873,3.167l-11.888,0.014l-11.887,0.015L246.827,205.519z M317.655,207.971
		c0.179-0.352,1.261-2.557,2.405-4.898l2.079-4.255l-0.043-34.044c-0.04-30.625-0.196-34.422-1.561-37.828
		c-0.834-2.082-2.141-4.474-2.904-5.316c-1.332-1.467-0.807-1.53,12.856-1.547c7.835-0.01,14.1,0.269,13.919,0.619
		c-0.179,0.351-1.26,2.555-2.402,4.896l-2.078,4.257l-0.242,33.055l-0.243,33.054l13.475-0.314
		c11.649-0.273,14.019-0.569,17.514-2.18c2.222-1.023,4.039-1.594,4.039-1.275c0.001,0.325-1.176,4.135-2.611,8.469l-2.615,7.878
		l-25.958,0.033C329.009,208.596,317.475,208.324,317.655,207.971z M384.089,205.333c1.836-3.114,1.882-3.848,1.849-30.004
		c-0.03-23.925-0.195-27.1-1.528-29.528c-0.819-1.497-1.491-2.945-1.493-3.217c0-0.272,4.308-0.393,9.575-0.267l9.574,0.228
		l0.464,30.638c0.429,28.081,0.599,30.833,2.055,32.976l1.592,2.338l-11.986,0.015l-11.983,0.016L384.089,205.333z M417.045,208.237
		c0-0.134,0.762-1.746,1.697-3.589c1.59-3.123,1.697-5.019,1.665-29.575c-0.031-24.645-0.138-26.44-1.759-29.604l-1.723-3.368
		l9.38-0.012l9.378-0.012l0.005,5.225l0.008,5.229l3.366-3.838c5.107-5.815,10.48-7.892,20.447-7.903
		c6.668-0.009,8.87,0.34,12.552,1.989c5.25,2.355,9.916,7.172,11.36,11.729c0.631,1.99,1.241,12.153,1.579,26.229
		c0.492,20.494,0.72,23.23,2.139,25.316l1.59,2.338l-11.986,0.016l-11.983,0.016l1.886-3.196c1.8-3.058,1.88-4.056,1.854-23.619
		c-0.027-19.949-0.071-20.498-2.027-23.633c-2.6-4.177-6.272-6.047-11.74-5.989c-8.757,0.092-15.644,6.419-17.381,15.961
		c-0.514,2.827-0.78,11.63-0.613,20.142c0.281,14.175,0.422,15.287,2.245,17.742l1.94,2.619l-11.938,0.016
		C422.417,208.476,417.045,208.371,417.045,208.237z M389.197,136.242c-2.895-1.239-5.443-5.121-5.447-8.299
		c-0.013-10.186,12.62-14.46,17.91-6.056c2.354,3.74,1.849,9.376-1.113,12.344C398.226,136.557,392.362,137.595,389.197,136.242z"/>
</g>
</svg>
