<?xml version="1.0" encoding="UTF-8" standalone="no"?>
<!-- Generator: Adobe Illustrator 15.0.0, SVG Export Plug-In . SVG Version: 6.00 Build 0)  -->

<svg
   xmlns:dc="http://purl.org/dc/elements/1.1/"
   xmlns:cc="http://creativecommons.org/ns#"
   xmlns:rdf="http://www.w3.org/1999/02/22-rdf-syntax-ns#"
   xmlns:svg="http://www.w3.org/2000/svg"
   xmlns="http://www.w3.org/2000/svg"
   xmlns:sodipodi="http://sodipodi.sourceforge.net/DTD/sodipodi-0.dtd"
   xmlns:inkscape="http://www.inkscape.org/namespaces/inkscape"
   version="1.1"
   id="Layer_1"
   x="0px"
   y="0px"
   width="150"
   height="59.5"
   viewBox="0 0 150 59.5"
   enable-background="new 0 0 206.5 79.5"
   xml:space="preserve"
   inkscape:version="0.48.4 r9939"
   sodipodi:docname="Aer_arann_regional_logo.svg"><title
   id="title3020">Aer Arann logo</title><metadata
   id="metadata43"><rdf:RDF><cc:Work
       rdf:about=""><dc:format>image/svg+xml</dc:format><dc:type
         rdf:resource="http://purl.org/dc/dcmitype/StillImage" /><dc:title>Aer Arann logo</dc:title></cc:Work></rdf:RDF></metadata><defs
   id="defs41" /><sodipodi:namedview
   pagecolor="#ffffff"
   bordercolor="#666666"
   borderopacity="1"
   objecttolerance="10"
   gridtolerance="10"
   guidetolerance="10"
   inkscape:pageopacity="0"
   inkscape:pageshadow="2"
   inkscape:window-width="1600"
   inkscape:window-height="844"
   id="namedview39"
   showgrid="false"
   inkscape:zoom="1"
   inkscape:cx="70.294203"
   inkscape:cy="38.724103"
   inkscape:window-x="-4"
   inkscape:window-y="-4"
   inkscape:window-maximized="1"
   inkscape:current-layer="Layer_1" />
<path
   d="M 14.820946,26.431917 H 7.5424558 l 4.0613052,-7.895363 c 0.59401,-1.151309 1.12475,-2.303402 1.531178,-3.323045 h 0.06179 c 0.06252,1.087044 0.189815,2.238352 0.376652,3.289344 M 18.946268,34.030244 15.384437,11.824632 H 12.25881 L 0.70016901,34.030244 H 3.6992523 l 2.6551824,-5.199309 h 8.8104123 l 0.749584,5.199309 h 3.031837 z"
   id="path3"
   inkscape:connector-curvature="0"
   style="fill:#549d4c" />
<path
   d="m 30.9426,21.463809 c 0,1.973449 -2.124444,2.992307 -6.936078,3.191376 0.71981,-2.764239 2.373809,-5.034724 4.84141,-5.034724 1.250548,0 2.094668,0.659908 2.094668,1.843348 m 2.780982,-0.361302 c 0,-1.942884 -1.250548,-3.717262 -4.563013,-3.717262 -5.154047,0 -8.495542,5.294925 -8.495542,11.643191 0,3.683562 1.654744,5.296492 5.215085,5.296492 2.030652,0 3.843203,-0.361303 5.343117,-0.985941 v -2.369235 c -1.342851,0.592506 -2.905292,0.953807 -4.373942,0.953807 -2.498864,0 -3.342985,-0.657555 -3.342985,-3.190592 0,-0.592505 0.06327,-1.413861 0.157064,-1.906831 6.65396,-0.263336 10.060216,-2.203868 10.060216,-5.723629 z"
   id="path5"
   inkscape:connector-curvature="0"
   style="fill:#549d4c" />
<path
   d="m 44.469366,20.247451 c -2.874028,-0.856625 -5.936383,5.559043 -6.748495,10.098446 l -0.655794,3.683561 H 34.316848 L 37.25266,17.681497 h 2.686446 c -0.250854,1.414645 -0.686313,3.157674 -1.59296,6.020665 l 0.06252,0.03057 c 1.749278,-3.981383 3.622868,-6.87337 6.624185,-6.347483"
   id="path7"
   inkscape:connector-curvature="0"
   style="fill:#549d4c" />
<path
   d="m 57.404355,26.103531 h -5.811328 l 2.874028,-5.65858 c 0.656538,-1.285328 1.187276,-2.56752 1.654743,-3.718046 h 0.03201 c 0.06252,1.21636 0.186838,2.401369 0.343901,3.552678 M 62.714717,34.030244 59.340469,11.823848 H 54.841472 L 43.594724,34.030244 h 4.154352 l 2.250987,-4.540188 h 7.809973 l 0.623786,4.540188 h 4.280895 z"
   id="path9"
   inkscape:connector-curvature="0"
   style="fill:#0e5a3a" />
<path
   d="m 74.210834,21.397976 c -2.277785,-0.756306 -4.996239,3.552678 -6.02943,9.078021 l -0.655049,3.554247 h -3.904243 l 1.561697,-8.553703 c 0.436947,-2.303402 1.028725,-5.690712 1.342851,-7.795044 h 3.779932 c -0.218101,1.249277 -0.593267,2.696055 -1.34434,4.932055 h 0.06402 c 1.654743,-3.453144 3.341494,-5.722845 6.02943,-5.261225"
   id="path11"
   inkscape:connector-curvature="0"
   style="fill:#0e5a3a" />
<path
   d="m 84.990116,20.904222 -0.187583,1.052558 c -0.62453,3.453143 -3.404767,8.816254 -5.623002,8.816254 -0.780848,0 -1.187276,-0.658339 -1.187276,-2.270486 0,-3.42101 1.655487,-7.828745 5.247092,-7.828745 0.688547,-7.83e-4 1.250549,0.09796 1.750769,0.230419 m 4.435724,-3.026791 c -1.748534,-0.361303 -3.622868,-0.492186 -5.497946,-0.492186 -6.811768,0 -9.96717,5.722845 -9.96717,11.906526 0,3.488413 1.283301,5.097423 3.655621,5.097423 3.093619,0 5.25156,-3.155323 6.499131,-5.558259 H 84.178 c -0.717576,2.2697 -1.188021,3.913196 -1.467905,5.198523 h 3.872978 c 0.656541,-4.308982 1.468653,-8.552133 2.842767,-16.152027 z"
   id="path13"
   inkscape:connector-curvature="0"
   style="fill:#0e5a3a" />
<path
   d="m 102.736,34.030244 h -3.937 l 1.87583,-10.2646 c 0.37441,-2.006365 0.0611,-2.828506 -0.937917,-2.828506 -2.093182,0 -4.906916,5.131125 -5.59174,8.947922 l -0.750329,4.145184 h -3.904987 l 1.561697,-8.553703 c 0.500964,-2.633355 0.999694,-5.52691 1.342106,-7.795044 h 3.844692 c -0.187582,0.985157 -0.56349,2.498551 -1.408355,5.065289 l 0.06401,0.03134 c 1.406868,-2.92804 3.561831,-5.459509 6.528913,-5.459509 2.99983,0 3.90647,2.237568 3.34522,5.42816"
   id="path15"
   inkscape:connector-curvature="0"
   style="fill:#0e5a3a" />
<path
   d="m 118.9507,34.030244 h -3.937 l 1.87508,-10.2646 c 0.37516,-2.006365 0.064,-2.828506 -0.93866,-2.828506 -2.09317,0 -4.90393,5.131125 -5.59247,8.947922 l -0.75033,4.145184 h -3.905 l 1.56245,-8.553703 c 0.50171,-2.633355 1.00192,-5.52691 1.34583,-7.795044 h 3.84171 c -0.18758,0.985157 -0.56126,2.498551 -1.40612,5.065289 l 0.0611,0.03134 c 1.40612,-2.92804 3.56332,-5.459509 6.53114,-5.459509 2.99834,0 3.90498,2.237568 3.34298,5.42816"
   id="path17"
   inkscape:connector-curvature="0"
   style="fill:#0e5a3a" />
<path
   d="M 144.8698,10.797937 C 145.34099,2.9574355 128.25686,0.81234864 106.71393,6.0030366 98.587597,7.9561084 90.98977,10.681945 84.652914,13.731463 91.760198,9.6928686 101.19291,5.9936319 111.46676,3.5162404 c 21.5459,-5.1914714 38.62855,-3.0448167 38.16182,4.7925497 -0.29477,4.8881649 -7.33431,10.8273219 -17.80766,15.8675329 7.79583,-4.430464 12.80026,-9.275525 13.04888,-13.378386"
   id="path19"
   inkscape:connector-curvature="0"
   style="fill:#549d4c" />
<path
   d="M 134.63615,14.961147 C 135.52866,8.1481235 121.36693,5.7381334 103.0062,9.5753087 96.08129,11.022086 89.553129,13.153849 84.052204,15.610081 c 6.20808,-3.294045 14.332179,-6.2205182 23.093466,-8.0528943 18.35998,-3.8340398 32.52319,-1.4240496 31.6292,5.3881903 -0.55605,4.244716 -6.82517,9.194798 -15.90876,13.256121 6.80655,-3.615377 11.3048,-7.675916 11.77004,-11.240351"
   id="path21"
   inkscape:connector-curvature="0"
   style="fill:#0e5a3a" />
<path
   d="m 3.6657555,39.381598 h 4.2354884 c 2.6358291,0 4.3248131,0.981237 3.8141731,3.860685 -0.413127,2.326915 -1.8788004,3.051872 -3.3816917,3.414741 l -0.00748,0.0431 c 1.8654017,0.448296 1.8639127,1.706978 1.9130417,3.263479 l 0.117611,4.138913 H 7.9444182 L 7.8595592,50.92447 C 7.7903324,48.576396 7.6451795,47.787956 5.4768176,47.787956 H 4.5448613 L 3.4253226,54.102523 H 1.0544911 m 3.8052404,-8.086595 h 0.9319564 c 1.4798157,0 3.0772423,-0.318981 3.4628281,-2.496985 C 9.5269567,41.982819 8.924758,41.151274 7.5871183,41.151274 H 5.7217167 l -0.8619852,4.864654 z"
   id="path23"
   inkscape:connector-curvature="0"
   style="fill:#0e5a3a" />
<path
   d="m 18.855453,53.930885 c -0.859007,0.277442 -1.732902,0.405975 -2.766094,0.405975 -3.12116,0 -4.48932,-2.11217 -3.827571,-5.845892 0.503197,-2.837126 2.063405,-4.779226 4.982096,-4.779226 2.451968,0 3.376481,1.643495 2.938044,4.117753 l -0.102723,0.576829 H 14.3639 c -0.249366,1.406808 0.155574,4.266664 2.871051,4.266664 0.708644,0 1.48056,-0.235122 1.912297,-0.384817 m -0.942377,-5.311382 c 0.113145,-0.640312 0.0053,-1.750084 -1.39198,-1.750084 -1.317542,0 -1.967381,1.152093 -2.13412,1.750084 h 3.5261 z"
   id="path25"
   inkscape:connector-curvature="0"
   style="fill:#0e5a3a" />
<path
   d="m 28.102813,54.807102 c -0.526272,2.964876 -2.40805,4.097375 -5.326742,4.097375 -1.479815,0 -2.540548,-0.299388 -2.946976,-0.405191 l 0.413127,-2.326916 c 0.489054,0.320549 1.420266,0.895813 2.818946,0.895813 2.2294,0 2.783958,-1.642712 3.018436,-2.964093 l 0.280629,-1.579229 h -0.04168 c -0.317847,0.427136 -1.252037,1.579229 -2.772049,1.579229 -2.573301,0 -2.842021,-2.603573 -2.361155,-5.314519 0.477144,-2.687432 1.91453,-5.077046 4.204226,-5.077046 1.621246,0 2.000877,0.939701 2.234611,1.451481 h 0.04168 l 0.215869,-1.214792 h 2.147519 m -5.407134,8.317797 c 1.297445,0 2.142309,-2.025175 2.399863,-3.478223 0.238944,-1.340973 0.189815,-3.241534 -1.20812,-3.241534 -1.459717,0 -1.998644,1.900561 -2.236843,3.241534 -0.257554,1.453048 -0.434715,3.478223 1.0451,3.478223 z"
   id="path27"
   inkscape:connector-curvature="0"
   style="fill:#0e5a3a" />
<path
   d="m 33.269513,39.381598 h 2.2495 l -0.416106,2.346507 h -2.248754 m -0.394518,2.219542 h 2.249498 l -1.801385,10.154876 h -2.249499 l 1.801386,-10.154876 z"
   id="path29"
   inkscape:connector-curvature="0"
   style="fill:#0e5a3a" />
<path
   d="m 35.712549,49.024693 c 0.591034,-3.327746 2.421449,-5.312951 5.197964,-5.312951 2.776517,0 3.904243,1.985205 3.313954,5.312951 -0.590288,3.330097 -2.422193,5.312167 -5.197964,5.312167 -2.776515,0 -3.904242,-1.98207 -3.313954,-5.312167 m 3.608727,3.648295 c 1.621246,0 2.17506,-1.747733 2.512262,-3.648295 0.336457,-1.898994 0.403451,-3.647511 -1.21854,-3.647511 -1.620503,0 -2.173573,1.748517 -2.510774,3.647511 -0.337202,1.899777 -0.404196,3.648295 1.217052,3.648295 z"
   id="path31"
   inkscape:connector-curvature="0"
   style="fill:#0e5a3a" />
<path
   d="m 46.926546,43.947647 h 2.249498 l -0.336457,1.898994 h 0.0402 c 0.441413,-0.768846 1.453018,-2.134899 3.235794,-2.134899 1.418033,0 2.431871,1.024343 2.020232,3.348906 l -1.24906,7.041091 h -2.248754 l 1.028725,-5.802003 c 0.366976,-2.070633 0.217357,-2.368451 -0.571679,-2.368451 -1.520757,0 -2.655927,2.175652 -2.940278,3.774476 l -0.77936,4.395978 h -2.249499"
   id="path33"
   inkscape:connector-curvature="0"
   style="fill:#0e5a3a" />
<path
   d="m 60.349099,52.930052 h -0.03945 c -0.421315,0.659907 -1.222261,1.406808 -2.763116,1.406808 -1.620502,0 -2.655926,-1.024344 -2.364876,-2.664705 0.598476,-3.372419 4.655315,-3.393578 6.001143,-3.436685 l 0.177162,-1.002398 c 0.177905,-1.001617 0.08486,-1.85589 -1.028725,-1.85589 -1.235662,0 -1.633902,0.874651 -1.755235,1.557285 h -2.189948 c 0.3439,-1.941315 1.788731,-3.222725 4.239954,-3.222725 2.391675,0 3.31321,1.089394 2.945488,3.159242 l -1.2833,7.232323 h -2.146775 m -1.752256,-1.430319 c 1.458228,0 2.301604,-1.663873 2.546503,-3.050304 -1.459718,0 -3.284923,0.469459 -3.526844,1.83316 -0.141431,0.791575 0.209913,1.217144 0.980341,1.217144 z"
   id="path35"
   inkscape:connector-curvature="0"
   style="fill:#0e5a3a" />
<polyline
   points="92.341,52.566 95.362,52.566 91.855,71.349 88.831,71.349 "
   id="polyline37"
   transform="matrix(0.74437411,0,0,0.78373665,-1.4451171,-1.8163039)"
   style="fill:#0e5a3a" />
</svg>