<?xml version="1.0" encoding="UTF-8" standalone="no"?>
<!DOCTYPE svg PUBLIC "-//W3C//DTD SVG 1.1//EN" "http://www.w3.org/Graphics/SVG/1.1/DTD/svg11.dtd">
<svg width="100%" height="100%" viewBox="0 0 417 65" version="1.1" xmlns="http://www.w3.org/2000/svg" xmlns:xlink="http://www.w3.org/1999/xlink" xml:space="preserve" xmlns:serif="http://www.serif.com/" style="fill-rule:evenodd;clip-rule:evenodd;stroke-linejoin:round;stroke-miterlimit:2;">
    <g transform="matrix(2.36745,0,0,2.36745,-514.933,-906.226)">
        <path d="M379.482,397.406C380.093,397.406 380.416,397.886 380.416,398.498L380.416,403.008C380.416,406.184 383.025,406.801 384.349,406.846C385.673,406.891 389.687,406.36 388.407,401.112C394.23,401.729 393.596,395.906 392.605,394.622C391.451,393.128 388.256,392.199 385.999,393.494L383.187,395C382.672,395.245 381.773,395.444 381.428,394.683C381.122,394.153 381.525,393.564 382.054,393.259L384.833,391.696C387.083,390.389 388.769,388.876 387.826,385.601C387.193,383.402 382.363,380.91 379.445,384.889L379.459,384.889L379.432,384.889L379.46,384.889L379.433,384.889L379.447,384.889C376.529,380.91 371.699,383.402 371.066,385.601C370.124,388.876 371.809,390.389 374.06,391.696L376.838,393.259C377.367,393.565 377.77,394.154 377.464,394.683C377.12,395.444 376.22,395.245 375.705,395L372.893,393.494C370.635,392.199 367.441,393.128 366.288,394.622C365.296,395.906 364.662,401.729 370.485,401.112C369.206,406.36 373.219,406.891 374.543,406.846C375.867,406.801 378.476,406.184 378.476,403.008L378.476,398.498C378.475,397.887 378.871,397.406 379.482,397.406Z" style="fill:rgb(107,200,58);"/>
    </g>
    <g transform="matrix(2.36745,0,0,2.36745,-514.933,-906.226)">
        <path d="M254.769,390.209L260.134,390.209L260.134,392.552L260.19,392.552C261.094,390.802 262.279,389.842 264.312,389.842C264.876,389.842 265.413,389.926 265.949,390.068L265.949,395.008C265.385,394.81 264.876,394.641 263.747,394.641C261.545,394.641 260.359,395.939 260.359,399.074L260.359,404.861L254.769,404.861L254.769,390.209Z" style="fill:rgb(42,74,65);"/>
    </g>
    <g transform="matrix(2.36745,0,0,2.36745,-514.933,-906.226)">
        <path d="M269.932,384.704L276.144,384.704L276.144,399.695L285.064,399.695L285.064,404.861L269.932,404.861L269.932,384.704Z" style="fill:rgb(42,74,65);"/>
    </g>
    <g transform="matrix(2.36745,0,0,2.36745,-514.933,-906.226)">
        <rect x="286.684" y="390.209" width="5.59" height="14.652" style="fill:rgb(42,74,65);"/>
    </g>
    <g transform="matrix(2.36745,0,0,2.36745,-514.933,-906.226)">
        <rect x="286.684" y="384.704" width="5.59" height="3.924" style="fill:rgb(42,74,65);"/>
    </g>
    <g transform="matrix(2.36745,0,0,2.36745,-514.933,-906.226)">
        <path d="M293.874,390.209L299.266,390.209L299.266,392.072L299.323,392.072C300.367,390.604 301.864,389.842 304.094,389.842C306.719,389.842 309.119,391.451 309.119,394.81L309.119,404.861L303.529,404.861L303.529,397.181C303.529,395.488 303.331,394.302 301.694,394.302C300.734,394.302 299.464,394.782 299.464,397.124L299.464,404.86L293.874,404.86L293.874,390.209Z" style="fill:rgb(42,74,65);"/>
    </g>
    <g transform="matrix(2.36745,0,0,2.36745,-514.933,-906.226)">
        <path d="M342.723,404.861L337.33,404.861L337.33,402.998L337.274,402.998C336.229,404.465 334.733,405.228 332.503,405.228C329.878,405.228 327.478,403.619 327.478,400.259L327.478,390.208L333.068,390.208L333.068,397.886C333.068,399.581 333.266,400.767 334.903,400.767C335.863,400.767 337.133,400.287 337.133,397.943L337.133,390.209L342.723,390.209L342.723,404.861Z" style="fill:rgb(42,74,65);"/>
    </g>
    <g transform="matrix(2.36745,0,0,2.36745,-514.933,-906.226)">
        <path d="M353.357,394.472C353.329,393.992 353.075,393.625 352.708,393.371C352.369,393.088 351.917,392.947 351.466,392.947C350.675,392.947 349.772,393.116 349.772,394.076C349.772,394.499 350.111,394.697 350.421,394.838C351.353,395.233 353.47,395.346 355.333,395.967C357.196,396.56 358.834,397.661 358.834,400.06C358.834,404.126 354.938,405.228 351.381,405.228C347.937,405.228 344.153,403.843 344.069,400.06L349.404,400.06C349.432,400.57 349.658,400.994 350.082,401.359C350.364,401.613 350.901,401.783 351.578,401.783C352.312,401.783 353.47,401.502 353.47,400.654C353.47,399.806 352.991,399.552 350.393,399.101C346.13,398.367 344.408,397.011 344.408,394.499C344.408,390.801 348.388,389.841 351.325,389.841C354.487,389.841 358.299,390.716 358.439,394.47L353.357,394.47L353.357,394.472Z" style="fill:rgb(42,74,65);"/>
    </g>
    <g transform="matrix(2.36745,0,0,2.36745,-514.933,-906.226)">
        <path d="M227.95,388.893L228.006,388.893L229.725,395.192L226.267,395.192L227.95,388.893ZM230.879,399.951L232.22,404.861L238.339,404.861L230.999,384.704L224.93,384.704L217.505,404.861L223.744,404.861L225.089,399.951L230.879,399.951Z" style="fill:rgb(42,74,65);"/>
    </g>
    <g transform="matrix(2.36745,0,0,2.36745,-514.933,-906.226)">
        <path d="M391.104,402.764C390.076,402.764 389.207,403.555 389.207,404.627C389.207,405.709 390.076,406.498 391.104,406.498C392.122,406.498 392.991,405.709 392.991,404.627C392.99,403.555 392.121,402.764 391.104,402.764ZM391.104,403.074C391.949,403.074 392.616,403.742 392.616,404.627C392.616,405.525 391.949,406.188 391.104,406.188C390.249,406.188 389.582,405.526 389.582,404.627C389.581,403.742 390.248,403.074 391.104,403.074Z"/>
    </g>
    <g transform="matrix(2.36745,0,0,2.36745,-514.933,-906.226)">
        <path d="M390.708,404.773L391.083,404.773L391.651,405.709L392.016,405.709L391.404,404.76C391.72,404.721 391.963,404.553 391.963,404.166C391.963,403.742 391.711,403.555 391.202,403.555L390.382,403.555L390.382,405.709L390.708,405.709L390.708,404.773ZM390.708,403.83L391.152,403.83C391.38,403.83 391.622,403.881 391.622,404.146C391.622,404.478 391.375,404.498 391.099,404.498L390.708,404.498L390.708,403.83Z"/>
    </g>
    <g transform="matrix(2.36745,0,0,2.36745,-514.933,-906.226)">
        <path d="M242.79,395.883C243.044,394.302 244.004,393.427 245.669,393.427C247.108,393.427 248.125,394.528 248.125,395.883L242.79,395.883ZM242.761,398.791L253.489,398.791C253.489,393.088 250.977,389.842 245.161,389.842C240.531,389.842 237.426,393.314 237.426,397.578C237.426,402.461 240.955,405.228 245.641,405.228C248.972,405.228 252.05,403.759 253.179,400.597L247.956,400.597C247.504,401.302 246.516,401.642 245.613,401.642C243.862,401.643 242.903,400.457 242.761,398.791Z" style="fill:rgb(42,74,65);"/>
    </g>
    <g transform="matrix(2.36745,0,0,2.36745,-514.933,-906.226)">
        <path d="M310.204,396.844C310.204,400.768 312.151,403.987 316.471,403.987C318.137,403.987 319.492,403.253 320.396,401.954L320.453,401.954L320.453,403.309C320.453,404.522 320.057,406.668 318.251,406.668C317.545,406.668 316.952,406.104 316.613,405.596C316.5,405.426 316.359,405.229 316.302,405.086L310.769,405.086C311.277,409.039 314.947,409.971 318.419,409.971C325.279,409.971 326.042,405.877 326.042,402.969L326.042,390.209L320.452,390.209L320.452,391.987L320.395,391.987C319.746,390.491 318.193,389.842 316.555,389.842C312.378,389.842 310.204,393.032 310.204,396.844ZM315.794,396.814C315.794,395.262 316.584,393.907 318.165,393.907C319.803,393.907 320.593,395.178 320.593,396.787C320.593,398.424 320.367,400.4 318.307,400.4C316.302,400.4 315.794,398.48 315.794,396.814Z" style="fill:rgb(42,74,65);"/>
    </g>
</svg>
