<?xml version="1.0" encoding="utf-8"?>
<!DOCTYPE svg PUBLIC "-//W3C//DTD SVG 1.1//EN" "http://www.w3.org/Graphics/SVG/1.1/DTD/svg11.dtd" [
<!ENTITY ns_svg "http://www.w3.org/2000/svg">
<!ENTITY ns_xlink "http://www.w3.org/1999/xlink">
]>
<svg  version="1.1" id="Layer_1" xmlns="&ns_svg;" xmlns:xlink="&ns_xlink;" width="152.351" height="88.36"
viewBox="0 0 152.351 88.36" overflow="visible" enable-background="new 0 0 152.351 88.36" xml:space="preserve">
<path fill="#CF030F" d="M73.94,36.568c6.082,0,11.079-4.651,11.629-10.591H76.07v-2.174h9.499
c-0.55-5.939-5.547-10.591-11.629-10.591s-11.079,4.652-11.628,10.591h9.496v2.174h-9.496C62.861,31.917,67.858,36.568,73.94,36.568
z"/>
<path fill="#CF030F" d="M44.825,71.494h6.023v2.631h0.063c1.015-1.966,2.346-3.043,4.629-3.043c0.635,0,1.236,0.095,1.839,0.251
v5.549c-0.635-0.219-1.204-0.411-2.474-0.411c-2.473,0-3.804,1.459-3.804,4.977v6.499h-6.277V71.494z"/>
<path fill="#CF030F" d="M121.155,71.494h6.026v2.631h0.063c1.014-1.966,2.344-3.043,4.628-3.043c0.634,0,1.235,0.095,1.837,0.251
v5.549c-0.633-0.219-1.203-0.411-2.47-0.411c-2.475,0-3.806,1.459-3.806,4.977v6.499h-6.279V71.494z"/>
<path fill="#CF030F" d="M152.351,87.946h-6.056v-2.091h-0.063c-1.174,1.647-2.854,2.505-5.359,2.505
c-2.947,0-5.642-1.808-5.642-5.581V71.494h6.275v8.623c0,1.9,0.224,3.234,2.061,3.234c1.077,0,2.504-0.54,2.504-3.171v-8.687h6.28
V87.946z"/>
<path fill="#CF030F" d="M73.94,24.891"/>
<path fill="#CF030F" d="M73.94,24.891"/>
<path fill="#CF030F" d="M73.94,24.891"/>
<path fill="#FFFFFF" d="M65.096,21.169c1.181-2.818,3.673-4.938,6.713-5.628v5.628H65.096z"/>
<path fill="#FFFFFF" d="M82.786,21.169c-1.183-2.818-3.674-4.938-6.716-5.628v5.628H82.786z"/>
<path fill="#CF030F" d="M73.94,24.891"/>
<path fill="#CF030F" d="M76.896,0.172c-1.938-0.229-3.972-0.229-5.91,0L72.2,10.488c1.127-0.134,2.31-0.136,3.437-0.005
L76.896,0.172z"/>
<path fill="#CF030F" d="M73.94,24.891"/>
<path fill="#CF030F" d="M67.209,0.922c-1.877,0.53-3.757,1.308-5.458,2.262l5.069,9.067c0.99-0.556,2.082-1.01,3.175-1.321
L67.209,0.922z"/>
<path fill="#CF030F" d="M58.55,5.323c-1.532,1.209-2.971,2.646-4.178,4.179l8.153,6.437c0.702-0.893,1.536-1.73,2.428-2.436
L58.55,5.323z"/>
<path fill="#CF030F" d="M52.233,12.702c-0.953,1.701-1.731,3.581-2.262,5.459l9.997,2.826c0.306-1.093,0.757-2.185,1.31-3.177
L52.233,12.702z"/>
<path fill="#CF030F" d="M49.221,21.937c-0.229,1.939-0.228,3.972,0.001,5.909l10.316-1.214c-0.134-1.129-0.137-2.311-0.005-3.438
L49.221,21.937z"/>
<path fill="#CF030F" d="M49.972,31.622c0.53,1.878,1.309,3.758,2.263,5.458l9.066-5.069c-0.557-0.99-1.01-2.083-1.32-3.175
L49.972,31.622z"/>
<path fill="#CF030F" d="M54.373,40.281c1.209,1.532,2.646,2.969,4.179,4.179l6.436-8.154c-0.892-0.702-1.73-1.537-2.435-2.428
L54.373,40.281z"/>
<path fill="#CF030F" d="M61.752,46.598c1.704,0.954,3.583,1.731,5.46,2.262l2.825-9.997c-1.092-0.308-2.187-0.757-3.178-1.311
L61.752,46.598z"/>
<path fill="#CF030F" d="M70.987,49.608c1.938,0.23,3.972,0.23,5.908,0l-1.215-10.316c-1.127,0.136-2.31,0.138-3.438,0.005
L70.987,49.608z"/>
<path fill="#CF030F" d="M80.67,48.859c1.88-0.532,3.757-1.31,5.461-2.264l-5.072-9.066c-0.988,0.555-2.082,1.01-3.173,1.32
L80.67,48.859z"/>
<path fill="#CF030F" d="M89.332,44.457c1.53-1.208,2.969-2.646,4.176-4.179l-8.154-6.437c-0.701,0.893-1.537,1.729-2.426,2.437
L89.332,44.457z"/>
<path fill="#CF030F" d="M95.646,37.077c0.955-1.702,1.729-3.58,2.262-5.458l-9.995-2.826c-0.309,1.093-0.759,2.187-1.313,3.179
L95.646,37.077z"/>
<path fill="#CF030F" d="M98.658,27.842c0.229-1.937,0.229-3.97,0-5.908l-10.316,1.215c0.135,1.128,0.137,2.31,0.006,3.438
L98.658,27.842z"/>
<path fill="#CF030F" d="M97.908,18.158c-0.532-1.879-1.312-3.757-2.264-5.458l-9.066,5.07c0.558,0.99,1.012,2.083,1.322,3.173
L97.908,18.158z"/>
<path fill="#CF030F" d="M93.504,9.5c-1.208-1.532-2.644-2.969-4.177-4.178l-6.436,8.154c0.891,0.7,1.729,1.536,2.435,2.426
L93.504,9.5z"/>
<path fill="#CF030F" d="M86.126,3.183c-1.701-0.952-3.581-1.73-5.46-2.26l-2.825,9.997c1.094,0.305,2.188,0.757,3.18,1.31
L86.126,3.183z"/>
<path fill="#CF030F" d="M8.337,65.312L0,87.946h7.006l1.015-3.232h7.197l0.95,3.232h7.229l-8.243-22.635H8.337z M9.542,79.863
l2.188-6.976h0.063l2.029,6.976H9.542z"/>
<path fill="#CF030F" d="M32.844,71.082c-5.201,0-8.687,3.9-8.687,8.687c0,5.483,3.963,8.592,9.225,8.592
c3.742,0,7.197-1.649,8.464-5.201h-5.865c-0.507,0.792-1.616,1.172-2.631,1.172c-1.966,0-3.042-1.33-3.201-3.2h12.046
C42.195,74.729,39.375,71.082,32.844,71.082z M30.181,77.866c0.285-1.775,1.362-2.758,3.233-2.758c1.617,0,2.759,1.235,2.759,2.758
H30.181z"/>
<path fill="#CF030F" d="M67.172,71.082c-6.182,0-8.972,4.057-8.972,8.621c0,4.565,2.79,8.657,8.972,8.657
c6.183,0,8.973-4.092,8.973-8.657C76.145,75.139,73.354,71.082,67.172,71.082z M67.172,83.795c-2.378,0-2.694-2.348-2.694-4.092
c0-1.742,0.316-4.059,2.694-4.059s2.695,2.316,2.695,4.059C69.867,81.447,69.55,83.795,67.172,83.795z"/>
<path fill="#CF030F" d="M90.632,65.312H78.965v22.635h6.974v-6.848h4.122c5.2,0,8.876-2.567,8.876-8.051
C98.937,69.813,96.781,65.312,90.632,65.312z M88.635,75.71h-2.696v-4.597h3.106c1.714,0,3.298,0.127,3.298,2.188
C92.343,75.582,90.44,75.71,88.635,75.71z"/>
<path fill="#CF030F" d="M109.682,84.331c-1.964,0-3.045-1.33-3.201-3.2h12.049c0-6.402-2.825-10.049-9.354-10.049
c-5.198,0-8.687,3.9-8.687,8.687c0,5.483,3.961,8.592,9.228,8.592c3.739,0,7.195-1.649,8.463-5.201h-5.866
C111.806,83.951,110.695,84.331,109.682,84.331z M109.745,75.108c1.617,0,2.758,1.235,2.758,2.758h-5.992
C106.798,76.091,107.874,75.108,109.745,75.108z"/>
</svg>
