<?xml version="1.0" encoding="UTF-8" standalone="no"?>
<!-- Generator: Adobe Illustrator 23.0.2, SVG Export Plug-In . SVG Version: 6.00 Build 0)  -->

<svg
   version="1.1"
   id="Layer_1"
   x="0px"
   y="0px"
   viewBox="0 0 264.39422 30.599512"
   xml:space="preserve"
   sodipodi:docname="Aeromexico_1989.svg"
   width="264.39423"
   height="30.599512"
   inkscape:version="1.4 (86a8ad7, 2024-10-11)"
   xmlns:inkscape="http://www.inkscape.org/namespaces/inkscape"
   xmlns:sodipodi="http://sodipodi.sourceforge.net/DTD/sodipodi-0.dtd"
   xmlns="http://www.w3.org/2000/svg"
   xmlns:svg="http://www.w3.org/2000/svg"><defs
   id="defs10" /><sodipodi:namedview
   id="namedview10"
   pagecolor="#ffffff"
   bordercolor="#000000"
   borderopacity="0.25"
   inkscape:showpageshadow="2"
   inkscape:pageopacity="0.0"
   inkscape:pagecheckerboard="0"
   inkscape:deskcolor="#d1d1d1"
   borderlayer="false"
   inkscape:zoom="2.3691377"
   inkscape:cx="88.4288"
   inkscape:cy="92.22765"
   inkscape:window-width="1920"
   inkscape:window-height="1001"
   inkscape:window-x="-9"
   inkscape:window-y="-9"
   inkscape:window-maximized="1"
   inkscape:current-layer="Layer_1" />
<path
   d="m 142.3752,29.266552 h -7.13257 V 11.949586 c 0,-4.2309138 -1.78316,-5.6245787 -3.87007,-5.6245787 -3.56633,0 -4.83847,2.4621289 -4.83847,5.8425457 V 29.266552 H 119.405 V 12.110443 c 0,-2.40851 0,-5.7854357 -4.27745,-5.7854357 -3.36266,0 -4.43111,2.4621289 -4.43111,5.5781517 v 17.363393 h -7.12908 V 0.75045149 h 6.82524 V 3.8021751 h 0.10004 c 0.9184,-1.8760234 2.90165,-3.79498362 7.69001,-3.79498362 3.92009,0 5.70328,1.50079722 7.53646,4.54903062 0.91479,-1.3900698 2.90526,-4.54903062 7.23262,-4.54903062 5.2887,0 9.41966,3.26609282 9.41966,9.54107722 V 29.266552 Z"
   id="path1"
   style="stroke-width:0.105757" />
<rect
   x="199.89346"
   y="0.75045592"
   width="7.1254811"
   height="28.516098"
   id="rect1"
   style="stroke-width:0.105757" />
<path
   d="m 235.05977,18.867785 c -0.27158,3.169642 -1.66166,11.145623 -12.96094,11.145623 -10.1843,0 -12.52141,-8.201032 -12.52141,-14.204431 C 209.57742,6.5895061 213.39386,0 222.55972,0 c 4.27745,0 11.89247,2.0368793 12.55705,10.427321 h -6.81096 c -0.30731,-1.3686011 -1.01843,-4.3560245 -5.7425,-4.3560245 -5.49239,0 -6.15704,4.9706835 -6.15704,8.5083605 0,3.105342 0.16084,9.519714 6.00338,9.519714 5.30296,0 5.84265,-3.895031 5.84265,-5.235076 h 6.80737 v 0.0035 z"
   id="path2"
   style="stroke-width:0.105757" />
<path
   d="m 17.64743,18.714121 h 7.336255 V 16.201969 H 17.64743 Z M 2.4102814,4.3095966 C 4.6723175,1.0435041 9.0604915,0.40737587 13.638076,0.33947989 c 2.930209,-0.050023 8.165285,0.39669445 10.316594,3.95583961 -1.07e-4,0 -21.5443886,0.014278 -21.5443886,0.014277 z M 24.965917,7.9115738 C 24.946033,7.0534619 24.784227,6.2046562 24.48705,5.3994223 L 1.9350095,5.392231 C 1.6682904,6.2089918 1.5203364,7.0598071 1.4954834,7.9186591 h 7.2148474 c -0.3716303,0.389503 0.2715837,-1.9117686 4.0129472,-1.9117686 1.565203,0 3.834327,0.1894109 4.631204,1.9260461 z m 0.0071,3.5984872 V 8.9979092 h -7.339854 c 0.01027,0.1092472 0.01502,0.2190218 0.01428,0.3287989 0,1.4579649 -1.193572,1.9975379 -2.294186,2.1976289 z m 0,3.602082 v -2.512151 l -16.6844547,-0.0072 c -2.2655258,0.335884 -4.2487867,1.150636 -5.710348,2.519237 z m 1.658162,11.892478 v 2.512151 h -4.892108 c -1.268556,0 -2.987423,-1.032716 -3.266093,-2.519236 z m -8.78354,-0.01438 c -1.365111,2.108371 -4.234509,3.198198 -9.0979553,3.198198 -2.683689,0 -5.4887867,-1.032717 -7.1469504,-3.198198 z M 7.6238888,22.323395 C 7.5312448,21.965089 7.4855582,21.596315 7.488097,21.226377 7.478157,20.741164 7.550703,20.257855 7.7024667,19.796966 l -7.53994413,-0.0072 c -0.14573312,0.833682 -0.19364103,1.68164 -0.14298345,2.526428 z m 7.5650082,1.089825 c -1.207852,0.811156 -2.722926,1.250681 -4.227424,1.250681 -0.900521,0 -2.0332836,-0.364543 -2.755181,-1.236404 l -8.07242959,-0.02147 c 0.1536649,0.939863 0.439526,1.779573 0.82543323,2.50496 l 25.67166136,0.0072 V 24.374446 C 25.991338,24.1458 25.430296,24.299366 25.155118,23.406031 Z m 1.229318,-1.082739 c 0.603873,-0.703919 1.025631,-1.558012 1.172105,-2.52643 h 7.379193 v 1.79385 c 0,0.264394 0.0072,0.511018 0.01787,0.718302 z M 8.4100861,18.735589 c 0.9219887,-0.871966 2.4621289,-1.097017 4.1595279,-1.457967 1.861745,-0.40378 2.519236,-0.682556 3.37333,-1.061269 L 1.6563399,16.202076 c -0.5728855,0.745479 -0.99855744,1.59312 -1.25427777,2.497873 z"
   id="path3"
   style="stroke-width:0.105757" />



<polygon
   points="1669.19,1309.23 1592.454,1309.23 1698.586,1165.119 1602.692,1039.964 1677.198,1039.964 1735.011,1115.212 1790.358,1039.964 1864.086,1039.964 1773.734,1167.484 1883.042,1309.23 1808.57,1309.23 1738.086,1216.58 "
   id="polygon5"
   transform="matrix(0.10575697,0,0,0.10575697,0.00177195,-109.19365)" />
<path
   d="m 56.680319,15.112143 v -2.512151 h 7.236207 c -0.07508,0.550253 -0.107233,1.150635 -0.107233,1.822404 v 0.689641 h -7.128974 z m 0,-10.8025464 v -2.512151 h 6.48935 l 0.332296,2.5049597 z m 7.679335,-0.0072 c 0.993372,-2.0440708 3.548463,-3.88075225 6.682365,-3.88075225 0.45739,0 2.101174,0.11791899 2.880183,0.22864658 V 4.3060014 Z m 2.358484,3.6235508 C 68.558413,6.9432637 71.109903,6.886049 73.922202,6.886049 V 5.3995292 H 56.680319 v 2.512151 z m -2.608703,3.5770176 c 0.260898,-1.068462 0.675358,-1.8904049 1.222124,-2.5264288 l -8.651344,0.021469 v 2.5121518 z m -7.429116,18.013693 h 7.121883 v -2.512149 h -7.121883 z m 0,-3.598382 h 7.121883 v -2.512151 h -7.121883 z m 0,-3.602082 h 7.121883 v -2.512149 h -7.121883 z m 0,-3.602083 h 7.121883 v -2.512152 h -7.121883 z"
   id="path6"
   style="stroke-width:0.105757" />
<path
   d="m 53.842963,12.599992 c 0.08937,0.789687 0.142986,1.625908 0.15726,2.512151 H 27.013479 c -0.0072,-0.228646 -0.0072,-0.460995 -0.0072,-0.689641 0,-0.482358 0.02147,-1.104208 0.09297,-1.822404 h 26.743715 z m 0.164349,3.602084 v 2.519342 l -26.686504,-0.0072 c -0.130294,-0.832403 -0.218493,-1.670844 -0.264393,-2.51214 z M 36.02577,22.323395 c -0.573838,-0.751299 -0.996126,-1.606872 -1.243596,-2.519344 h -7.257678 c 0.196496,0.907713 0.446718,1.75102 0.739664,2.519344 z m -5.713943,3.5877 C 29.682362,25.141606 29.149558,24.297983 28.72526,23.398944 h 8.504765 c 0.936267,0.636126 2.208416,1.122081 3.945054,1.122081 2.083304,0 3.534185,-0.782603 4.098717,-1.10421 h 7.700799 c -0.401873,0.912154 -0.941874,1.757048 -1.600947,2.50496 z m 19.993357,1.079142 c -2.426383,2.115457 -5.817587,3.273287 -9.130212,3.273287 -3.870069,0 -7.304106,-0.957736 -9.823449,-3.266094 z M 35.65763,8.9979092 c -0.388551,0.7939186 -0.659395,1.6401848 -0.804069,2.5121518 h -7.611436 c 0.12511,-0.782602 0.30733,-1.6401853 0.578914,-2.5193429 z M 47.096306,11.510061 C 46.951524,10.62572 46.654138,9.7732135 46.217254,8.9907181 h 6.918198 c 0.228751,0.7826026 0.421652,1.6188219 0.564636,2.5193429 z M 29.47201,5.3959327 c -0.528891,0.8219432 -0.950542,1.6759305 -1.27934,2.5193424 h 8.436866 c 1.189872,-0.9792034 2.682846,-1.5147569 4.223828,-1.5151799 1.683125,0 3.291158,0.3823116 4.481133,1.507988 l 7.42922,-0.0072 C 52.437774,7.0273415 52.017178,6.1921795 51.509437,5.4102122 Z m 0.811157,-1.1006132 c 2.008325,-2.4370637 5.227989,-4.04160852 10.35583,-4.04160852 3.26609,0 7.257677,0.85758342 10.027133,4.04869432 z"
   id="path7"
   style="stroke-width:0.105757" />
<path
   d="m 96.56001,27.011706 c -2.379964,2.379956 -5.717544,3.587806 -9.780511,3.587806 -3.855793,0 -7.189782,-1.20785 -9.61617,-3.594891 z m 0.925469,-1.079145 c 0.596788,-0.761132 1.114881,-1.575884 1.547338,-2.519341 l -9.012185,-0.0072 c -0.854095,0.550254 -1.918957,0.871966 -3.241133,0.871966 -1.343649,0 -2.419196,-0.293053 -3.280365,-0.857583 l -8.883591,-0.02148 c 0.426202,0.898406 0.952438,1.745943 1.568692,2.526429 z m -6.260708,-3.623549 c 0.628934,-0.739665 1.07567,-1.558012 1.390071,-2.497876 l 7.568618,-0.0072 c -0.17069,0.853671 -0.404849,1.693381 -0.700436,2.512151 z m 1.679532,-3.58051 c 0.196504,-0.850496 0.307336,-1.715272 0.357356,-2.526426 l 7.343431,0.0072 c -0.0357,0.871966 -0.11431,1.711677 -0.23222,2.504959 z M 72.95737,16.202076 c 0.03933,0.87905 0.121525,1.715272 0.250122,2.512149 l 7.447086,0.0072 C 80.4675,17.892827 80.349155,17.050261 80.300818,16.20209 Z m 0.453809,3.609167 c 0.193008,0.89333 0.446717,1.736741 0.743258,2.519344 l 8.168881,0.0072 c -0.608426,-0.74972 -1.071423,-1.60667 -1.365108,-2.526437 h -7.547031 z m 3.75215,-15.5016464 c 2.426388,-2.3870405 5.760377,-3.59489093 9.61617,-3.59489093 4.062967,0 7.400661,1.20065903 9.780511,3.58061383 z m -0.975604,1.0827401 c -0.616247,0.7804869 -1.142498,1.6279166 -1.568692,2.5264282 l 8.883583,-0.028553 c 0.861178,-0.5574446 1.936831,-0.8504978 3.280374,-0.8504978 1.322174,0 2.387027,0.3216081 3.24113,0.8647754 h 9.012291 C 98.622796,7.0060849 98.103428,6.1603464 97.489082,5.3851473 Z m 23.295299,3.6055725 c 0.285858,0.7897927 0.518106,1.6188208 0.700436,2.5121518 l -7.568618,-0.0072 C 92.320846,10.586682 91.848432,9.7377696 91.224771,9.0049798 Z m 0.889846,3.6020828 c 0.11791,0.796879 0.19649,1.6331 0.23222,2.512151 h -7.343431 c -0.0493,-0.850498 -0.168787,-1.695602 -0.357356,-2.526428 z m -20.072052,2.512151 c 0.04816,-0.848065 0.166464,-1.690737 0.35376,-2.519237 h -7.447086 c -0.131249,0.834318 -0.214793,1.675402 -0.250122,2.519237 z m 0.657498,-3.609169 c 0.314412,-0.929074 0.75045,-1.801041 1.365109,-2.5264271 l -8.168876,0.00721 c -0.309131,0.8203532 -0.55756,1.6623911 -0.743263,2.5192351 z"
   id="path8"
   style="stroke-width:0.105757" />
<path
   d="m 250.54714,0.25371098 c -7.28623,0 -13.85427,4.46685762 -13.85427,14.75479102 0,10.291528 6.56804,14.669021 13.85427,14.669021 7.27914,0 13.84708,-4.373896 13.84708,-14.669021 0,-10.2879334 -6.56794,-14.75479102 -13.84708,-14.75479102 z m 6.51082,14.75479102 c 0,3.644913 -0.008,8.933608 -6.51082,8.933608 -6.50364,0 -6.5251,-5.29229 -6.5251,-8.933608 0,-3.641318 -0.40028,-9.015783 6.5251,-9.015783 6.92529,0 6.51082,5.370868 6.51082,9.015783 z"
   id="path9"
   style="stroke-width:0.105757" />
<path
   d="M 171.26292,15.705333 C 171.26292,2.6800934 163.50853,0 157.89821,0 c -12.457,0 -13.6363,10.984765 -13.6363,14.418905 0,11.731623 6.14987,15.590906 14.16868,15.590906 4.86345,0 9.89845,-2.254844 12.01041,-7.26487 h -7.7043 c -0.0751,0.196603 -2.21909,1.26496 -4.306,1.26496 -6.04623,0 -6.47508,-4.570394 -6.68236,-5.288695 h 19.51458 z m -19.3073,-3.119618 c 0.42525,-4.255978 2.30486,-6.4214583 5.82827,-6.4214583 2.40851,0 5.34591,1.3972615 5.77826,6.4214583 z"
   id="path10"
   style="stroke-width:0.105757" />
</svg>
