<?xml version="1.0" encoding="UTF-8" standalone="no"?>
<!-- Generator: Adobe Illustrator 12.0.0, SVG Export Plug-In  -->

<svg
   xmlns:dc="http://purl.org/dc/elements/1.1/"
   xmlns:cc="http://creativecommons.org/ns#"
   xmlns:rdf="http://www.w3.org/1999/02/22-rdf-syntax-ns#"
   xmlns:svg="http://www.w3.org/2000/svg"
   xmlns="http://www.w3.org/2000/svg"
   xmlns:sodipodi="http://sodipodi.sourceforge.net/DTD/sodipodi-0.dtd"
   xmlns:inkscape="http://www.inkscape.org/namespaces/inkscape"
   version="1.1"
   width="455.88281"
   height="177.43517"
   viewBox="-0.3779297 -0.4316406 455.88281 177.43517"
   enable-background="new -0.3779297 -0.4316406 501 219"
   xml:space="preserve"
   id="svg2"
   inkscape:version="0.48.1 "
   sodipodi:docname="AJAX.svg"><metadata
   id="metadata16"><rdf:RDF><cc:Work
       rdf:about=""><dc:format>image/svg+xml</dc:format><dc:type
         rdf:resource="http://purl.org/dc/dcmitype/StillImage" /></cc:Work></rdf:RDF></metadata><sodipodi:namedview
   pagecolor="#ffffff"
   bordercolor="#666666"
   borderopacity="1"
   objecttolerance="10"
   gridtolerance="10"
   guidetolerance="10"
   inkscape:pageopacity="0"
   inkscape:pageshadow="2"
   inkscape:window-width="1280"
   inkscape:window-height="1004"
   id="namedview14"
   showgrid="false"
   fit-margin-top="0"
   fit-margin-left="0"
   fit-margin-right="0"
   fit-margin-bottom="0"
   inkscape:zoom="1.4581158"
   inkscape:cx="288.33861"
   inkscape:cy="-36.161578"
   inkscape:window-x="-8"
   inkscape:window-y="-8"
   inkscape:window-maximized="1"
   inkscape:current-layer="svg2" />
<defs
   id="defs4">
</defs>
<polygon
   clip-rule="evenodd"
   points="0,217.89258 0,0 0,0 500,0 500,217.89258 "
   id="polygon6"
   style="opacity:0;fill:#ffffff;fill-rule:evenodd"
   transform="translate(-22.436523,-18.811035)" />
<path
   clip-rule="evenodd"
   d="M 254.74707,88.363285 C 243.29981,79.172852 234.37305,68.67041 237.59766,51.849121 c -4.20313,-6.545898 -5.18555,-13.092773 -4.7041,-19.639648 -10.86377,-9.486817 -11.19434,-20.807129 -8.57373,-32.6411141 7.60302,16.8002931 21.59619,25.7460941 34.30029,32.6411141 34.69141,18.827636 68.7041,32.145996 73.85645,53.663572 33.58007,0.31299 53.26757,4.10401 60.30468,11.06397 9.79297,1.59863 18.32227,4.136715 17.98047,13.278315 -25.56738,-1.09668 -58.16699,1.98144 -91.56152,5.53222 -24.34375,16.92969 -73.67676,13.27149 -114.52149,2.21485 -33.74414,-2.05957 -55.71386,-8.21289 -75.23974,-15.21485 C 98.839846,99.497555 80.826656,89.380375 63.880859,78.681641 c 22.904787,6.610354 27.043947,10.607424 83.655281,12.110844 31.40576,0.83496 67.18798,0.59423 107.21093,-2.4292 l 0,0 z"
   id="path8"
   inkscape:connector-curvature="0"
   style="fill:#010100;fill-rule:evenodd" />
<path
   clip-rule="evenodd"
   d="m 333.16797,88.639645 c 1.76367,8.06787 -0.5166,16.134275 -8.71387,24.202635 29.41504,-3.91309 71.46094,-6.96875 85.2002,-3.73144 -1.61133,-8.417 -13.37012,-10.999025 -29.73633,-10.927735 -0.14453,-0.54199 -0.29101,-1.08398 -0.43554,-1.625 2.54296,0 5.08398,0 7.62695,0 -2.84961,-5.02051 -18.26367,-8.06299 -53.94141,-7.91846 l 0,0 z m -74.92285,2.63282 c -34.15332,1.89404 -66.4043,3.65771 -94.74023,3.40576 -36.05811,-0.32031 -66.714363,-3.5791 -87.254401,-10.42774 19.212398,10.05469 43.250981,15.2295 69.964361,17.699215 36.14453,3.3418 72.73584,3.31641 106.1709,-1.36523 -10.1709,2.68554 -20.89063,6.33008 -63.4375,5.61328 -13.94043,-0.23535 -34.86915,-0.97754 -54.76856,-3.07031 22.9292,6.63964 52.53174,11.94433 89.90723,11.09277 13.79199,-0.31348 28.83886,-2.29199 36.01269,-6.57617 5.40528,-3.22461 9.94727,-9.737305 -1.85449,-16.371575 l 0,0 z M 238.37989,52.491211 c 0.0234,8.967285 3.42773,17.40918 13.70996,27.796387 6.33496,6.398927 10.37011,8.018557 15.54785,13.067387 4.6416,4.52636 3.66601,14.241205 -3.97461,18.063465 -14.13184,7.07031 -33.0625,7.38184 -49.99658,7.07813 24.31885,4.14941 49.83252,7.3916 77.05908,3.41504 23.1709,-3.38184 40.58301,-15.28809 36.71484,-35.220215 C 325.86524,78.57666 306.46094,63.131836 291.15332,55.312989 272.98828,46.03418 258.4043,38.250977 246.78223,30.364258 235.35547,22.608887 226.75147,14.767578 224.98096,3.2290039 c -0.74853,14.6010741 6.18994,22.4311521 17.91357,31.5922851 12.14844,9.490235 25.6377,18.479493 40.14747,26.041993 26.94531,14.04541 36.50781,28.560063 22.19824,45.253408 7.69336,-16.062495 -1.65137,-25.504873 -14.72754,-34.286123 -15.43457,-10.365723 -41.70899,-24.139649 -57.20606,-39.14502 2.39063,12.915528 12.16602,22.441407 26.68164,33.299805 10.07129,7.535156 20.79395,14.237793 28.667,22.840333 7.66308,8.37207 1.52539,19.954095 -4.54688,22.625975 7.1543,-10.98829 4.02051,-19.212405 -4.4834,-25.187015 C 263.27637,74.776856 248.81934,64.479492 238.37989,52.491211 l 0,0 z"
   id="path10"
   inkscape:connector-curvature="0"
   style="fill:#ffc211;fill-rule:evenodd" />
<path
   clip-rule="evenodd"
   d="m 424.78223,175.37353 7.08008,-51.82129 h 13.59082 l -5.54297,41.2959 h 15.59473 l -1.57813,10.52539 h -29.14453 l 0,0 z m -74.58594,0 5.49414,-40.3457 -11.72558,-0.24024 1.58593,-11.47265 35.32227,0.2373 -1.53809,11.47559 h -11.17382 l -5.47364,40.3457 h -12.49121 l 0,0 z m -138.59912,0 h -13.28174 l 7.0918,-51.82129 h 14.28076 0.44824 l 0.44092,0.003 0.43164,0.003 0.42432,0.005 0.41699,0.008 0.40772,0.007 0.40039,0.0107 0.39257,0.01 0.38624,0.0127 0.37597,0.0127 0.36865,0.0156 0.36084,0.0176 0.35352,0.0176 0.3457,0.0205 0.33692,0.0195 0.33056,0.0234 0.32422,0.0225 0.31445,0.0283 0.30518,0.0254 0.30029,0.0303 0.29248,0.0303 0.2837,0.0332 0.27587,0.0322 0.27002,0.0361 0.26319,0.0352 0.25586,0.04 0.24853,0.041 0.23926,0.043 0.23438,0.043 0.22753,0.0479 0.22071,0.0488 0.21679,0.0508 0.40137,0.10351 0.39746,0.11426 c 10.28028,2.84668 11.64746,12.12598 9.98047,20.78418 l -0.10547,0.49121 -0.12207,0.48633 -0.13379,0.47949 -0.14746,0.47364 -0.16211,0.46875 -0.1748,0.46289 -0.1875,0.45605 -0.2002,0.44824 -0.21289,0.44336 -0.22754,0.4336 -0.23828,0.42285 -0.25293,0.41308 -0.26367,0.40528 -0.27832,0.40039 -0.29199,0.38476 -0.30176,0.37696 -0.31348,0.37011 -0.32715,0.36036 -0.33886,0.35156 -0.34961,0.33691 -0.36035,0.33203 -0.375,0.32129 -0.38477,0.31153 -0.38769,0.29394 -0.33204,0.24317 -0.34668,0.24316 -0.35449,0.2334 -0.3623,0.22265 -0.36524,0.21289 -0.37695,0.20508 -0.38281,0.19532 -0.38965,0.18457 -0.39551,0.17773 -0.40234,0.16699 -0.41016,0.16016 -0.41601,0.14648 -0.42286,0.13965 -0.42968,0.13184 -0.43653,0.12109 -0.43847,0.11133 -0.22901,0.0537 -0.23437,0.0527 -0.23975,0.0508 -0.24316,0.0459 -0.24658,0.0479 -0.25586,0.043 -0.26123,0.043 -0.26465,0.041 -0.26856,0.0381 -0.27588,0.0381 -0.28271,0.0352 -0.28467,0.0332 -0.2915,0.0303 -0.29883,0.0303 -0.3042,0.0273 -0.30615,0.0254 -0.31201,0.0254 -0.32129,0.0254 -0.32569,0.0205 -0.3291,0.0205 -0.33594,0.0176 -0.34326,0.0176 -0.34717,0.0156 -0.35302,0.0117 -0.3584,0.0107 -0.36475,0.01 -0.37011,0.0107 -0.375,0.005 -0.38086,0.008 -0.3877,0.002 -0.39258,0.003 -0.39941,0.002 h -4.88233 l -2.09863,16.58496 0,0 z m -47.18799,1.2998 -0.73047,-0.006 -0.72363,-0.0195 -0.7168,-0.0332 -0.70654,-0.0459 -0.69678,-0.0576 -0.68896,-0.0713 -0.67871,-0.0859 -0.67041,-0.0986 -0.66113,-0.11133 -0.65235,-0.12696 -0.64209,-0.13671 -0.6333,-0.15235 -0.62402,-0.16699 -0.61426,-0.17773 -0.60547,-0.19239 -0.59668,-0.20508 -0.58545,-0.2207 -0.57715,-0.23242 -0.5664,-0.24609 -0.5586,-0.26075 -0.54687,-0.27148 -0.53858,-0.28809 -0.52685,-0.29882 -0.51807,-0.31446 -0.50781,-0.32715 -0.49756,-0.34179 -0.48779,-0.3545 -0.47754,-0.36718 -0.46875,-0.37989 -0.45606,-0.39257 -0.44677,-0.40821 -0.43701,-0.41992 -0.42188,-0.43066 -0.41016,-0.44141 -0.3955,-0.45117 -0.38135,-0.45801 -0.36475,-0.46875 -0.35205,-0.47851 -0.33691,-0.48633 -0.32178,-0.49707 -0.30615,-0.50391 -0.29297,-0.51367 -0.27588,-0.52246 -0.26367,-0.53125 -0.24658,-0.54004 -0.2334,-0.54981 -0.21631,-0.55761 -0.20264,-0.56739 -0.1875,-0.57226 -0.1709,-0.58203 -0.15869,-0.59082 -0.1416,-0.60059 -0.12695,-0.60449 -0.11231,-0.61621 -0.0976,-0.62012 -0.0835,-0.63086 -0.0674,-0.63867 -0.0532,-0.64551 -0.0381,-0.65429 -0.0239,-0.66114 -0.009,-0.66797 0.005,-0.67675 0.0205,-0.6836 0.0342,-0.68945 0.0229,-0.34473 0.0264,-0.34179 0.0303,-0.33985 0.0342,-0.3418 0.0396,-0.33886 0.0415,-0.33985 0.0469,-0.33886 0.0498,-0.33985 0.0542,-0.33691 0.0581,-0.33692 0.0625,-0.33691 0.0669,-0.33691 0.0698,-0.33692 0.0732,-0.33398 0.0786,-0.33496 0.0811,-0.33692 0.0874,-0.33398 0.0898,-0.33203 0.0923,-0.33203 0.0991,-0.33399 0.10107,-0.3291 0.10547,-0.33008 0.10889,-0.3291 0.11376,-0.33203 0.11768,-0.3291 0.12061,-0.3291 0.12548,-0.32715 0.12793,-0.32617 0.13282,-0.32715 0.13672,-0.32422 0.13916,-0.32422 0.14599,-0.3291 0.29883,-0.64356 0.31152,-0.63574 0.32569,-0.62598 0.33935,-0.62011 0.35205,-0.61133 0.36475,-0.60547 0.37744,-0.59277 0.3916,-0.58692 0.40381,-0.57812 0.4165,-0.56934 0.42969,-0.5625 0.44043,-0.55273 0.45508,-0.542 0.46728,-0.5371 0.47852,-0.52442 0.49561,-0.52441 0.29101,-0.28809 0.28516,-0.2793 0.28857,-0.2705 0.29004,-0.27149 0.29395,-0.26367 0.29785,-0.26074 0.2998,-0.25586 0.30176,-0.25586 0.30664,-0.24805 0.3086,-0.24316 0.31201,-0.24024 0.31396,-0.23632 0.31787,-0.23243 0.32032,-0.22851 0.32324,-0.22266 0.32519,-0.2207 0.33057,-0.21484 0.33203,-0.20997 0.33301,-0.208 0.33838,-0.20313 0.34179,-0.19726 0.34229,-0.19532 0.34424,-0.18945 0.35107,-0.18555 0.35303,-0.18164 0.35351,-0.17773 0.35596,-0.17188 0.35986,-0.16797 0.36329,-0.16406 0.36474,-0.16015 0.36719,-0.15625 0.36865,-0.15235 0.3711,-0.14648 0.37353,-0.14258 0.375,-0.13867 0.37744,-0.13477 0.37989,-0.1289 0.37744,-0.12403 0.38281,-0.11914 0.38232,-0.11719 0.38623,-0.10839 0.38672,-0.10645 0.38721,-0.10156 0.39014,-0.0957 0.39257,-0.0918 0.39161,-0.0859 0.39257,-0.084 0.39649,-0.0752 0.39892,-0.0742 0.39795,-0.0684 0.39893,-0.0605 0.40137,-0.0606 0.40381,-0.0537 0.40283,-0.0478 0.40674,-0.0459 0.40673,-0.04 0.41016,-0.0332 0.40771,-0.0303 0.41065,-0.0273 0.41406,-0.0205 0.41406,-0.0156 0.41407,-0.0127 0.41552,-0.008 0.42188,-0.002 0.73193,0.008 0.72315,0.0195 0.71582,0.0312 0.70556,0.0449 0.69776,0.0586 0.68799,0.0713 0.67871,0.083 0.66992,0.0967 0.66113,0.11133 0.65088,0.12109 0.64356,0.13672 0.63232,0.14942 0.62402,0.16503 0.61475,0.17481 0.604,0.19043 0.59668,0.20215 0.58496,0.21582 0.57764,0.23047 0.56738,0.24023 0.55616,0.25586 0.54931,0.27148 0.53711,0.28125 0.52832,0.2959 0.51807,0.30957 0.50928,0.32422 0.49609,0.33594 0.48926,0.34766 0.47754,0.3623 0.46728,0.37695 0.45703,0.3877 0.44727,0.40039 0.43701,0.41504 0.42432,0.42578 0.40918,0.43555 0.39648,0.44336 0.38086,0.4541 0.36621,0.46094 0.35205,0.4707 0.33692,0.48144 0.32324,0.48926 0.30761,0.4961 0.29395,0.50683 0.27832,0.5166 0.26221,0.52442 0.24853,0.53222 0.23291,0.53907 0.21924,0.5498 0.20117,0.55762 0.18897,0.56445 0.17334,0.5752 0.1582,0.583 0.14209,0.5879 0.12793,0.59472 0.11377,0.60547 0.0977,0.61328 0.0835,0.62012 0.0698,0.62891 0.0532,0.63574 0.0391,0.64355 0.0244,0.64844 0.01,0.65527 -0.005,0.667 -0.019,0.67089 -0.0342,0.67383 -0.023,0.35938 -0.0264,0.35547 -0.0293,0.35156 -0.0342,0.35254 -0.0366,0.34961 -0.0405,0.34961 -0.043,0.34668 -0.0483,0.34668 -0.0508,0.34277 -0.0542,0.34668 -0.0581,0.3418 -0.0625,0.34179 -0.0644,0.33985 -0.0684,0.33886 -0.0723,0.33985 -0.0757,0.33398 -0.0786,0.33496 -0.084,0.33399 -0.0859,0.33496 -0.0898,0.3291 -0.0923,0.33203 -0.0977,0.3291 -0.10156,0.32715 -0.10352,0.32422 -0.10645,0.32617 -0.11181,0.32422 -0.11524,0.32227 -0.11865,0.32129 -0.12158,0.31933 -0.12549,0.31934 -0.12939,0.31933 -0.13428,0.31641 -0.27197,0.62012 -0.2876,0.62109 -0.29883,0.61035 -0.31299,0.60059 -0.32422,0.59277 -0.33838,0.58203 -0.3496,0.5752 -0.36329,0.56543 -0.37353,0.55664 -0.3877,0.54785 -0.40039,0.53906 -0.41162,0.5293 -0.42285,0.52246 -0.43701,0.51172 -0.44971,0.50391 -0.45703,0.49121 -0.29639,0.30664 -0.29785,0.29882 -0.30029,0.2959 -0.30274,0.28907 -0.30517,0.28613 -0.30908,0.28125 -0.31153,0.2793 -0.31396,0.2705 -0.31543,0.26856 -0.32031,0.26367 -0.32325,0.25781 -0.32421,0.25586 -0.32813,0.24903 -0.33154,0.24511 -0.33448,0.24121 -0.33593,0.23535 -0.33789,0.23047 -0.3418,0.22754 -0.34619,0.22364 -0.34668,0.21777 -0.34961,0.21289 -0.35352,0.20996 -0.35595,0.20215 -0.35694,0.19824 -0.35986,0.19434 -0.36475,0.19043 -0.36621,0.18457 -0.36719,0.18066 -0.37109,0.17676 -0.375,0.16992 -0.375,0.16699 -0.38135,0.16211 -0.38086,0.15723 -0.38281,0.15234 -0.38476,0.14649 -0.38623,0.13965 -0.38672,0.13671 -0.39112,0.13184 -0.3916,0.12598 -0.39258,0.11914 -0.39355,0.11914 -0.39649,0.11133 -0.39892,0.10644 -0.40039,0.10156 -0.40137,0.0967 -0.4043,0.0908 -0.40527,0.0859 -0.40527,0.0811 -0.40674,0.0791 -0.41016,0.0703 -0.41308,0.0664 -0.41162,0.0635 -0.41407,0.0557 -0.41797,0.0527 -0.4165,0.0479 -0.41943,0.041 -0.42041,0.0381 -0.42334,0.0303 -0.42432,0.0273 -0.42432,0.0234 -0.42675,0.0176 -0.4292,0.0127 -0.43067,0.005 -0.43457,0.003 0,0 z m 5.80127,-41.60742 -0.43701,0.005 -0.43066,0.0156 -0.42676,0.0225 -0.4209,0.0332 -0.4165,0.043 -0.41162,0.0508 -0.40674,0.0605 -0.40283,0.0684 -0.39649,0.0781 -0.39258,0.0889 -0.39013,0.0967 -0.38233,0.10645 -0.3789,0.11426 -0.37598,0.12402 -0.36963,0.13379 -0.36621,0.1416 -0.36231,0.14941 -0.35839,0.16016 -0.3545,0.16992 -0.35107,0.17969 -0.3457,0.1875 -0.34327,0.19727 -0.34082,0.208 -0.33447,0.21485 -0.33154,0.22558 -0.32959,0.23535 -0.3252,0.24317 -0.32177,0.25391 -0.31787,0.26562 -0.31446,0.27344 -0.3125,0.28418 -0.30517,0.29101 -0.30176,0.30176 -0.29248,0.30664 -0.28516,0.3086 -0.27344,0.3164 -0.26611,0.31738 -0.25683,0.32422 -0.24854,0.3291 -0.23926,0.33204 -0.23047,0.33886 -0.22265,0.3418 -0.21436,0.34961 -0.20508,0.34961 -0.19531,0.35742 -0.18848,0.36231 -0.17968,0.36718 -0.16993,0.37012 -0.1621,0.37695 -0.1543,0.38282 -0.14453,0.38769 -0.13819,0.39258 -0.12793,0.39746 -0.11914,0.40527 -0.11132,0.41114 -0.10254,0.41211 -0.0937,0.42089 -0.0859,0.42579 -0.0776,0.43261 -0.0669,0.43555 -0.0596,0.44336 -0.0508,0.44922 -0.0415,0.45508 -0.0342,0.46191 -0.019,0.38184 -0.0127,0.37988 -0.004,0.37012 0.002,0.36718 0.0103,0.36035 0.0176,0.3545 0.0269,0.34668 0.0327,0.34472 0.0405,0.33692 0.0483,0.33203 0.0557,0.32422 0.062,0.31836 0.0698,0.31445 0.0771,0.30957 0.0835,0.30371 0.0913,0.2959 0.0986,0.29394 0.10498,0.28614 0.1128,0.28418 0.1206,0.27636 0.12647,0.27051 0.13281,0.2666 0.14209,0.26075 0.14795,0.25781 0.15478,0.25098 0.16358,0.24804 0.16943,0.24317 0.17725,0.23828 0.18506,0.2334 0.1914,0.23046 0.2002,0.22559 0.20508,0.21777 0.21142,0.21289 0.22022,0.20704 0.22412,0.20019 0.22949,0.19238 0.23438,0.1875 0.23925,0.17774 0.24219,0.1748 0.24805,0.16504 0.25586,0.15918 0.26074,0.15235 0.26367,0.14453 0.26953,0.13867 0.27637,0.13476 0.28125,0.12598 0.28613,0.11914 0.29248,0.11133 0.29883,0.10645 0.3042,0.10156 0.30908,0.0908 0.31641,0.0869 0.32324,0.0811 0.32813,0.0732 0.33398,0.0654 0.34082,0.0586 0.34717,0.0527 0.35205,0.0459 0.36084,0.0381 0.36475,0.0332 0.37402,0.0254 0.37744,0.0176 0.38477,0.01 0.39013,0.003 0.43701,-0.005 0.4292,-0.0156 0.42578,-0.0225 0.41895,-0.0332 0.41553,-0.043 0.40918,-0.0508 0.40429,-0.0606 0.39991,-0.0713 0.39795,-0.0781 0.39111,-0.0889 0.38623,-0.0986 0.38281,-0.10938 0.37842,-0.11621 0.37109,-0.12402 0.37012,-0.13477 0.36719,-0.14648 0.3623,-0.15235 0.35694,-0.16211 0.35498,-0.17187 0.34961,-0.18262 0.34716,-0.18945 0.34278,-0.20313 0.33838,-0.20801 0.33545,-0.21972 0.33447,-0.23047 0.32812,-0.23828 0.32666,-0.25098 0.32178,-0.25879 0.32031,-0.26855 0.31543,-0.27832 0.31299,-0.28907 0.31055,-0.30078 0.30517,-0.30664 0.29346,-0.30957 0.28516,-0.31347 0.27637,-0.31934 0.26855,-0.32422 0.25684,-0.32715 0.25097,-0.33203 0.23926,-0.33691 0.23291,-0.33887 0.22314,-0.34473 0.21387,-0.34961 0.20655,-0.35449 0.19775,-0.35742 0.1875,-0.3623 0.17969,-0.36719 0.17089,-0.375 0.16358,-0.37696 0.15332,-0.38281 0.14697,-0.38769 0.13526,-0.39258 0.12939,-0.39746 0.11865,-0.40332 0.11182,-0.40723 0.10254,-0.41308 0.0937,-0.41797 0.0859,-0.42578 0.0762,-0.42774 0.0684,-0.43555 0.0596,-0.4414 0.0493,-0.44336 0.042,-0.4502 0.0327,-0.45898 0.0205,-0.38281 0.0112,-0.37403 0.005,-0.37011 -0.004,-0.36524 -0.009,-0.35644 -0.019,-0.35254 -0.0239,-0.34473 -0.0327,-0.3418 -0.0405,-0.33398 -0.0483,-0.33008 -0.0547,-0.32422 -0.062,-0.3164 -0.0693,-0.31153 -0.0762,-0.30664 -0.0835,-0.29883 -0.0923,-0.29882 -0.0967,-0.28907 -0.10498,-0.2832 -0.1128,-0.27832 -0.11914,-0.27637 -0.125,-0.26855 -0.1333,-0.2666 -0.14062,-0.25782 -0.14942,-0.25586 -0.15332,-0.25097 -0.16211,-0.24317 -0.16943,-0.24023 -0.17725,-0.23633 -0.18359,-0.23242 -0.19141,-0.22559 -0.20019,-0.22265 -0.20752,-0.22071 -0.21191,-0.21289 -0.21631,-0.20215 -0.22315,-0.20019 -0.22656,-0.19043 -0.23193,-0.18262 -0.2378,-0.17969 -0.24316,-0.16992 -0.24854,-0.16406 -0.25195,-0.15723 -0.2583,-0.15234 -0.26465,-0.1416 -0.27099,-0.13965 -0.27491,-0.13184 -0.28125,-0.12402 -0.28759,-0.11914 -0.29395,-0.11133 -0.29883,-0.10644 -0.30517,-0.0986 -0.31055,-0.0908 -0.31641,-0.0859 -0.32422,-0.0791 -0.32959,-0.0732 -0.33691,-0.0654 -0.3418,-0.0586 -0.34961,-0.0537 -0.35449,-0.0449 -0.3623,-0.0381 -0.36865,-0.0303 -0.375,-0.0254 -0.38135,-0.0176 -0.38721,-0.0107 -0.39258,-0.005 0,0 z m -36.81982,-5.84179 c 3.92529,4.90429 3.79736,12.04004 0.5625,17.21777 -2.30127,3.29394 -7.24854,6.69531 -11.06738,7.77246 l 11.32177,21.15918 h -14.9834 l -10.10205,-19.80176 -1.67187,19.80176 H 94.343267 l 7.090333,-51.82129 h 13.75537 c 6.66601,0.0127 13.51172,0.15234 18.20166,5.67188 l 0,0 z m -75.845219,46.14941 7.077636,-51.82129 h 28.09131 l -1.57666,11.54395 h -14.61133 l -1.091796,8.06543 h 14.601076 l -1.54785,11.33886 H 73.8667 l -1.269044,9.33203 h 14.614751 l -1.57666,11.54102 H 57.54541 l 0,0 z m -25.834473,-35.81641 -7.954102,16.61036 h 11.168946 l -3.214844,-16.61036 0,0 z M -0.3779295,175.37353 27.44629,123.55224 h 13.578125 l 11.880371,51.82129 H 39.62207 L 37.470214,166.7583 H 18.710937 l -3.912598,8.61523 H -0.3779295 l 0,0 z M 215.68164,147.50634 h 1.72657 c 4.25439,0 7.11425,-0.54687 8.57714,-1.63867 1.46534,-1.08203 2.12012,-2.94629 1.9668,-5.58887 -0.12793,-2.22168 -0.85596,-3.78125 -2.17187,-4.67382 -1.32764,-0.89356 -3.86963,-1.33985 -7.63623,-1.33985 h -1.28809 l -1.17432,13.24121 0,0 z m -105.25293,-0.66113 h 1.55957 c 4.02002,0 6.75049,-0.52441 8.1919,-1.58594 1.44287,-1.05859 2.16357,-2.87207 2.16357,-5.46094 0,-2.19921 -0.60302,-3.75 -1.82031,-4.63867 -1.20557,-0.88867 -3.58154,-1.33496 -7.11572,-1.33496 h -1.21826 l -1.76075,13.02051 0,0 z m 157.10059,29.82812 -0.73242,-0.006 -0.72461,-0.0195 -0.71387,-0.0332 -0.70703,-0.0459 -0.69629,-0.0576 -0.68945,-0.0713 -0.68164,-0.0859 -0.66797,-0.0986 -0.66113,-0.11133 -0.65137,-0.12696 -0.64356,-0.13671 -0.63281,-0.15235 -0.62402,-0.16699 -0.61524,-0.17773 -0.60546,-0.19239 -0.59473,-0.20508 -0.58594,-0.2207 -0.57715,-0.23242 -0.56738,-0.24609 -0.55762,-0.26075 -0.54687,-0.27148 -0.53906,-0.28809 -0.52735,-0.29882 -0.51953,-0.31446 -0.50684,-0.32715 -0.49902,-0.34179 -0.48633,-0.3545 -0.47851,-0.36718 -0.46582,-0.37989 -0.45899,-0.39257 -0.44531,-0.40821 -0.43555,-0.41992 -0.42383,-0.43066 -0.41015,-0.44141 -0.39453,-0.45117 -0.38086,-0.45801 -0.36719,-0.46875 -0.34961,-0.47851 -0.33691,-0.48633 -0.32422,-0.49707 -0.30664,-0.50391 -0.29102,-0.51367 -0.27637,-0.52246 -0.26269,-0.53125 -0.24902,-0.54004 -0.23047,-0.54981 -0.21778,-0.55761 -0.20214,-0.56739 -0.1875,-0.57226 -0.17286,-0.58203 -0.15625,-0.59082 -0.14257,-0.60059 -0.12598,-0.60449 -0.11426,-0.61621 -0.0967,-0.62012 -0.083,-0.63086 -0.0664,-0.63867 -0.0527,-0.64551 -0.041,-0.65429 -0.0225,-0.66114 -0.008,-0.66797 0.005,-0.67675 0.0186,-0.6836 0.0352,-0.68945 0.0225,-0.34473 0.0254,-0.34179 0.0303,-0.33985 0.0361,-0.3418 0.0371,-0.33886 0.0439,-0.33985 0.0449,-0.33886 0.0508,-0.33985 0.0537,-0.33691 0.0605,-0.33692 0.0606,-0.33691 0.0664,-0.33691 0.0703,-0.33692 0.0732,-0.33398 0.0791,-0.33496 0.0811,-0.33692 0.0859,-0.33398 0.0908,-0.33203 0.0937,-0.33203 0.0996,-0.33399 0.10059,-0.3291 0.10449,-0.33008 0.1084,-0.3291 0.11426,-0.33203 0.11621,-0.3291 0.12207,-0.3291 0.12402,-0.32715 0.12891,-0.32617 0.13476,-0.32715 0.13379,-0.32422 0.1416,-0.32422 0.14454,-0.3291 0.29882,-0.64356 0.31153,-0.63574 0.32715,-0.62598 0.33691,-0.62011 0.35254,-0.61133 0.36426,-0.60547 0.37988,-0.59277 0.39062,-0.58692 0.40235,-0.57812 0.41797,-0.56934 0.43066,-0.5625 0.44043,-0.55273 0.4541,-0.542 0.46582,-0.5371 0.48145,-0.52442 0.49414,-0.52441 0.29101,-0.28809 0.28614,-0.2793 0.28613,-0.2705 0.29199,-0.27149 0.29297,-0.26367 0.29688,-0.26074 0.30175,-0.25586 0.30078,-0.25586 0.30665,-0.24805 0.30957,-0.24316 0.31152,-0.24024 0.31348,-0.23632 0.31738,-0.23243 0.32129,-0.22851 0.32129,-0.22266 0.32714,-0.2207 0.33204,-0.21484 0.33203,-0.20997 0.33105,-0.208 0.33985,-0.20313 0.33984,-0.19726 0.34375,-0.19532 0.34473,-0.18945 0.34961,-0.18555 0.35253,-0.18164 0.3545,-0.17773 0.35742,-0.17188 0.35937,-0.16797 0.36231,-0.16406 0.36426,-0.16015 0.36816,-0.15625 0.36719,-0.15235 0.37207,-0.14648 0.375,-0.14258 0.375,-0.13867 0.37695,-0.13477 0.37793,-0.1289 0.37988,-0.12403 0.37989,-0.11914 0.38476,-0.11719 0.38574,-0.10839 0.38477,-0.10645 0.3877,-0.10156 0.38964,-0.0957 0.39258,-0.0918 0.39258,-0.0859 0.39258,-0.084 0.39844,-0.0752 0.39746,-0.0742 0.39746,-0.0684 0.40039,-0.0605 0.40039,-0.0606 0.40234,-0.0537 0.40528,-0.0478 0.40527,-0.0459 0.4082,-0.04 0.40821,-0.0332 0.40722,-0.0303 0.41309,-0.0273 0.41308,-0.0205 0.41309,-0.0156 0.41504,-0.0127 0.41601,-0.008 0.41993,-0.002 0.73242,0.008 0.72461,0.0195 0.71386,0.0312 0.70704,0.0449 0.69629,0.0586 0.68945,0.0713 0.67871,0.083 0.66894,0.0967 0.66114,0.11133 0.65332,0.12109 0.64062,0.13672 0.63379,0.14942 0.62305,0.16504 0.61523,0.1748 0.60352,0.19043 0.59765,0.20215 0.58497,0.21582 0.57714,0.23047 0.56739,0.24023 0.55761,0.25586 0.54688,0.27149 0.54004,0.28125 0.52637,0.2959 0.51953,0.30957 0.50683,0.32421 0.49903,0.33594 0.48632,0.34766 0.47852,0.3623 0.46875,0.37696 0.45605,0.38769 0.44825,0.40039 0.43554,0.41504 0.42383,0.42578 0.41016,0.43555 0.39453,0.44336 0.38281,0.4541 0.36719,0.46094 0.34961,0.4707 0.33984,0.48145 0.32129,0.48925 0.30957,0.4961 0.29102,0.50683 0.27832,0.5166 0.26367,0.52442 0.24805,0.53223 0.23339,0.53906 0.21778,0.5498 0.20312,0.55762 0.18946,0.56445 0.17187,0.5752 0.15723,0.58301 0.14453,0.58789 0.12695,0.59472 0.11426,0.60547 0.0986,0.61328 0.083,0.62012 0.0684,0.62891 0.0537,0.63574 0.04,0.64355 0.0234,0.64844 0.01,0.65527 -0.005,0.667 -0.0205,0.6709 -0.0332,0.67382 -0.0225,0.35938 -0.0254,0.35547 -0.0303,0.35156 -0.0332,0.35254 -0.0381,0.34961 -0.04,0.34961 -0.043,0.34668 -0.0488,0.34668 -0.0498,0.34277 -0.0557,0.34668 -0.0586,0.3418 -0.0605,0.34179 -0.0635,0.33985 -0.0713,0.33887 -0.0703,0.33984 -0.0762,0.33398 -0.0791,0.33496 -0.083,0.33399 -0.0869,0.33496 -0.0879,0.3291 -0.0937,0.33203 -0.0986,0.3291 -0.0996,0.32715 -0.10644,0.32422 -0.10645,0.32617 -0.11132,0.32422 -0.11329,0.32227 -0.11914,0.32129 -0.12207,0.31933 -0.12402,0.31934 -0.13184,0.31933 -0.13379,0.31641 -0.27148,0.62012 -0.28613,0.62109 -0.30176,0.61035 -0.31152,0.60059 -0.32422,0.59277 -0.33887,0.58203 -0.34961,0.5752 -0.3623,0.56543 -0.375,0.55664 -0.38477,0.54785 -0.40039,0.53906 -0.41309,0.5293 -0.42285,0.52246 -0.43847,0.51172 -0.44825,0.50391 -0.45898,0.49121 -0.2959,0.30664 -0.29687,0.29882 -0.30079,0.2959 -0.30175,0.28907 -0.30371,0.28613 -0.31153,0.28125 -0.30957,0.2793 -0.31347,0.2705 -0.31739,0.26856 -0.31836,0.26367 -0.32422,0.25781 -0.32519,0.25586 -0.3291,0.24903 -0.3291,0.24511 -0.33399,0.24121 -0.33691,0.23535 -0.33692,0.23047 -0.34472,0.22754 -0.34473,0.22364 -0.34668,0.21777 -0.34961,0.21289 -0.35449,0.20996 -0.35547,0.20215 -0.35645,0.19824 -0.36035,0.19434 -0.36425,0.19043 -0.36524,0.18457 -0.36914,0.18066 -0.37012,0.17676 -0.375,0.16992 -0.375,0.16699 -0.38281,0.16211 -0.37988,0.15723 -0.38184,0.15234 -0.38574,0.14649 -0.38477,0.13965 -0.38769,0.13671 -0.38965,0.13184 -0.39258,0.12598 -0.39258,0.11914 -0.39355,0.11914 -0.39746,0.11133 -0.39746,0.10644 -0.40039,0.10156 -0.40235,0.0967 -0.40332,0.0908 -0.40527,0.0859 -0.40527,0.0811 -0.40723,0.0791 -0.41113,0.0703 -0.41211,0.0664 -0.41309,0.0635 -0.41308,0.0557 -0.41797,0.0527 -0.41797,0.0479 -0.41797,0.041 -0.4209,0.0381 -0.42285,0.0303 -0.42285,0.0273 -0.42578,0.0234 -0.42774,0.0176 -0.42871,0.0127 -0.43066,0.005 -0.43262,0.003 0,0 z m 5.79785,-41.60742 -0.43555,0.005 -0.43066,0.0156 -0.42578,0.0225 -0.42285,0.0332 -0.41504,0.043 -0.41309,0.0508 -0.40527,0.0605 -0.40234,0.0684 -0.39551,0.0781 -0.39551,0.0889 -0.3877,0.0967 -0.38476,0.10645 -0.37695,0.11426 -0.375,0.12402 -0.37305,0.13379 -0.36426,0.1416 -0.3623,0.14941 -0.35743,0.16016 -0.35449,0.16992 -0.35156,0.17969 -0.34473,0.1875 -0.34472,0.19727 -0.33985,0.208 -0.33691,0.21485 -0.33106,0.22558 -0.33007,0.23535 -0.32422,0.24317 -0.32129,0.25391 -0.31641,0.26562 -0.31738,0.27344 -0.31152,0.28418 -0.30664,0.29101 -0.29883,0.30176 -0.29395,0.30664 -0.2832,0.3086 -0.27637,0.3164 -0.26367,0.31738 -0.25781,0.32422 -0.24805,0.3291 -0.24121,0.33204 -0.23047,0.33886 -0.2207,0.3418 -0.21485,0.34961 -0.20507,0.34961 -0.19532,0.35742 -0.1875,0.36231 -0.17968,0.36718 -0.17188,0.37012 -0.16016,0.37695 -0.15429,0.38282 -0.14649,0.38769 -0.13769,0.39258 -0.12598,0.39746 -0.11914,0.40527 -0.11133,0.41114 -0.10449,0.41211 -0.0937,0.42089 -0.0859,0.42579 -0.0762,0.43261 -0.0684,0.43555 -0.0605,0.44336 -0.0508,0.44922 -0.04,0.45508 -0.0332,0.46191 -0.0205,0.38184 -0.0127,0.37988 -0.005,0.37012 0.003,0.36718 0.0127,0.36035 0.0176,0.3545 0.0254,0.34668 0.0322,0.34472 0.041,0.33692 0.0479,0.33203 0.0557,0.32422 0.0615,0.31836 0.0703,0.31445 0.0762,0.30957 0.0859,0.30371 0.0918,0.2959 0.0957,0.29394 0.10645,0.28614 0.11426,0.28418 0.11914,0.27636 0.12597,0.27051 0.13184,0.2666 0.14258,0.26075 0.14941,0.25781 0.1543,0.25098 0.16406,0.24804 0.16992,0.24317 0.17774,0.23828 0.18261,0.2334 0.19239,0.23046 0.20019,0.22559 0.20508,0.21777 0.21289,0.21289 0.21973,0.20704 0.22363,0.20019 0.23047,0.19238 0.23242,0.1875 0.23828,0.17774 0.24317,0.1748 0.24804,0.16504 0.25586,0.15918 0.26172,0.15235 0.2627,0.14453 0.27148,0.13867 0.27637,0.13476 0.27832,0.12598 0.28613,0.11914 0.29395,0.11133 0.29882,0.10645 0.30372,0.10156 0.30957,0.0908 0.3164,0.0869 0.32422,0.0811 0.32715,0.0732 0.33398,0.0654 0.33985,0.0586 0.34668,0.0527 0.35449,0.0459 0.36035,0.0381 0.36426,0.0332 0.37207,0.0254 0.37793,0.0176 0.38476,0.01 0.39063,0.003 0.4375,-0.005 0.43066,-0.0156 0.42383,-0.0225 0.41992,-0.0332 0.41602,-0.043 0.40723,-0.0508 0.40527,-0.0606 0.40039,-0.0713 0.39746,-0.0781 0.39063,-0.0889 0.38769,-0.0986 0.38184,-0.10938 0.37793,-0.11621 0.37207,-0.12402 0.37011,-0.13477 0.36719,-0.14648 0.36231,-0.15235 0.35742,-0.16211 0.35449,-0.17187 0.34961,-0.18262 0.34668,-0.18945 0.3418,-0.20313 0.33984,-0.20801 0.33398,-0.21972 0.33497,-0.23047 0.3291,-0.23828 0.32715,-0.25098 0.32128,-0.25879 0.31934,-0.26855 0.31641,-0.27832 0.31152,-0.28907 0.31152,-0.30078 0.30371,-0.30664 0.29395,-0.30957 0.28613,-0.31347 0.27637,-0.31934 0.26855,-0.32422 0.25879,-0.32715 0.24805,-0.33203 0.24023,-0.33691 0.2334,-0.33887 0.22266,-0.34473 0.21582,-0.34961 0.20508,-0.35449 0.19726,-0.35742 0.1875,-0.3623 0.17969,-0.36719 0.17285,-0.375 0.16211,-0.37696 0.1543,-0.38281 0.14453,-0.38769 0.13672,-0.39258 0.12891,-0.39746 0.11914,-0.40332 0.11132,-0.40723 0.10157,-0.41308 0.0967,-0.41797 0.083,-0.42578 0.0791,-0.42774 0.0654,-0.43555 0.0605,-0.4414 0.0488,-0.44336 0.043,-0.4502 0.0322,-0.45898 0.0205,-0.38281 0.0127,-0.37403 0.005,-0.37011 -0.005,-0.36524 -0.01,-0.35644 -0.0176,-0.35254 -0.0254,-0.34473 -0.0332,-0.3418 -0.041,-0.33398 -0.0449,-0.33008 -0.0557,-0.32422 -0.0635,-0.3164 -0.0684,-0.31153 -0.0762,-0.30664 -0.084,-0.29883 -0.0908,-0.29882 -0.0986,-0.28907 -0.10449,-0.2832 -0.11133,-0.27832 -0.11914,-0.27637 -0.12597,-0.26855 -0.13477,-0.2666 -0.13867,-0.25782 -0.14942,-0.25586 -0.15527,-0.25097 -0.16211,-0.24317 -0.16699,-0.24023 -0.17676,-0.23633 -0.18555,-0.23242 -0.19238,-0.22559 -0.20019,-0.22265 -0.20508,-0.22071 -0.21289,-0.21289 -0.21485,-0.20215 -0.22363,-0.20019 -0.22754,-0.19043 -0.2334,-0.18262 -0.23535,-0.17969 -0.24316,-0.16992 -0.25098,-0.16406 -0.25097,-0.15723 -0.25782,-0.15234 -0.2666,-0.1416 -0.27051,-0.13965 -0.27343,-0.13184 -0.28125,-0.12402 -0.28907,-0.11914 -0.29101,-0.11133 -0.29883,-0.10644 -0.30664,-0.0986 -0.30957,-0.0908 -0.31836,-0.0859 -0.3252,-0.0791 -0.3291,-0.0732 -0.33398,-0.0654 -0.34473,-0.0586 -0.34668,-0.0537 -0.35742,-0.0449 -0.35938,-0.0381 -0.37011,-0.0303 -0.375,-0.0254 -0.37989,-0.0176 -0.38769,-0.0107 -0.39551,-0.005 0,0 z m 126.55176,4.49121 -7.9541,16.61036 h 11.16894 l -3.21484,-16.61036 0,0 z m -32.08691,35.81641 27.82128,-51.82129 h 13.58008 l 11.88086,51.82129 h -13.28418 l -2.15039,-8.61523 h -18.76074 l -3.91113,8.61523 H 367.792 l 0,0 z m -32.96192,-38.69141 c 2.12305,-3.32129 4.24317,-6.6416 6.36621,-9.96289 -6.17383,-3.1289 -12.72461,-4.98047 -20.28613,-3.18945 -7.78418,1.84473 -13.1416,7.01953 -14.61621,15.74121 -1.58106,9.34766 2.19629,12.68555 8.99805,14.41113 3.47558,0.87891 6.40918,1.95313 8.16211,3.37696 2.53027,2.05957 1.97753,5.08105 -0.18262,7.08789 -3.72168,3.45508 -11.38184,1.9834 -16.58008,-3.05567 -2.38574,3.32129 -4.77441,6.63965 -7.16113,9.96094 9.30664,6.98145 23.97363,8.64551 32.71582,0.49902 4.19238,-3.90625 6.47754,-8.86621 6.53808,-15.41699 0.0478,-5.24902 -2.80175,-9.7373 -11.51074,-11.68066 -2.47949,-0.55469 -5,-1.61133 -6.4209,-3.10059 -1.84472,-1.92773 -0.6289,-5.75488 1.72168,-7.19922 3.42285,-2.09765 8.23828,-0.44531 12.25586,2.52832 l 0,0 z"
   id="path12"
   inkscape:connector-curvature="0"
   style="fill:#271278;fill-rule:evenodd" />
</svg>