<?xml version="1.0" encoding="UTF-8" standalone="no"?>
<!-- Generator: Adobe Illustrator 26.0.2, SVG Export Plug-In . SVG Version: 6.00 Build 0)  -->

<svg
   version="1.1"
   id="Layer_1"
   x="0px"
   y="0px"
   viewBox="0 0 111.30001 12.3"
   xml:space="preserve"
   sodipodi:docname="Aeroméxico_wordmark_2024.svg"
   width="111.3"
   height="12.3"
   inkscape:version="1.4 (86a8ad7, 2024-10-11)"
   xmlns:inkscape="http://www.inkscape.org/namespaces/inkscape"
   xmlns:sodipodi="http://sodipodi.sourceforge.net/DTD/sodipodi-0.dtd"
   xmlns="http://www.w3.org/2000/svg"
   xmlns:svg="http://www.w3.org/2000/svg"><defs
   id="defs11" /><sodipodi:namedview
   id="namedview11"
   pagecolor="#ffffff"
   bordercolor="#000000"
   borderopacity="0.25"
   inkscape:showpageshadow="2"
   inkscape:pageopacity="0.0"
   inkscape:pagecheckerboard="0"
   inkscape:deskcolor="#d1d1d1"
   inkscape:zoom="2.066085"
   inkscape:cx="27.588411"
   inkscape:cy="-55.902832"
   inkscape:window-width="1920"
   inkscape:window-height="1001"
   inkscape:window-x="-9"
   inkscape:window-y="-9"
   inkscape:window-maximized="1"
   inkscape:current-layer="Layer_1" />
<style
   type="text/css"
   id="style1">
	.st0{fill:#040C3E;}
</style>
<path
   class="st0"
   d="M 4.5,7.4 6.1,3 C 6.1,2.9 6.2,2.9 6.2,2.9 L 6.3,3 7.9,7.4 Z M 6.4,0 H 3.1 c 0,0.9 0.4,1.6 1,2.1 L 0,12.1 H 2.5 L 3.6,9.2 h 5 l 1.1,2.9 h 2.5 L 7.8,1.1 C 7.5,0.5 7.1,0.1 6.4,0 Z"
   id="path1" />
<path
   class="st0"
   d="m 21.8,2.1 v -2 h -8.4 v 9.5 c 0,0.9 0.3,1.5 0.8,1.9 0.5,0.4 1.2,0.7 2,0.7 h 5.6 V 10.1 H 16.5 C 16,10.1 15.7,9.9 15.7,9.6 V 7.2 h 5.8 V 5.1 h -5.8 v -3 c 0,0 6.1,0 6.1,0 z"
   id="path2" />
<path
   class="st0"
   d="m 29.3,5.2 c -0.4,0.3 -0.9,0.4 -1.7,0.4 h -2 V 2.1 h 2 c 0.9,0 1.5,0.1 1.8,0.5 0.3,0.3 0.5,0.7 0.5,1.3 0,0.6 -0.2,1.1 -0.6,1.3 z M 32.2,3.9 C 32.2,2.6 31.8,1.7 31,1 30.2,0.3 29,0 27.6,0 h -4.4 v 12.1 h 2.4 V 7.6 h 2.1 l 2.9,4.5 h 2.9 l -3.3,-5 c 1.3,-0.4 2,-1.5 2,-3.2 z"
   id="path3" />
<path
   class="st0"
   d="m 42.2,9.2 c -0.6,0.7 -1.5,1.1 -2.6,1.1 -1.1,0 -2,-0.4 -2.6,-1.1 -0.6,-0.7 -0.9,-1.7 -0.9,-3.1 0,-1.4 0.3,-2.4 0.9,-3 0.6,-0.7 1.5,-1 2.6,-1 1.1,0 2,0.3 2.6,1 0.6,0.7 0.9,1.7 0.9,3 0,1.3 -0.3,2.3 -0.9,3.1 z M 39.6,0 c -1.9,0 -3.3,0.5 -4.3,1.6 -1,1.1 -1.5,2.5 -1.5,4.4 0,1.9 0.5,3.4 1.5,4.5 1,1.1 2.5,1.6 4.3,1.6 1.9,0 3.3,-0.5 4.3,-1.6 C 44.9,9.4 45.4,7.9 45.4,6 45.4,4.1 44.9,2.7 43.9,1.6 42.9,0.6 41.5,0 39.6,0 Z"
   id="path4" />
<path
   class="st0"
   d="m 62.3,9.6 c 0,0.9 0.3,1.5 0.8,1.9 0.5,0.4 1.2,0.7 2,0.7 h 5.6 v -2.1 h -5.3 c -0.5,0 -0.8,-0.2 -0.8,-0.5 V 7.2 h 5.8 V 5.1 h -5.8 v -3 h 6.1 v -2 h -8.4 c 0,0 0,9.5 0,9.5 z"
   id="path5" />
<path
   class="st0"
   d="m 83,0 h -2.8 l -2.6,3.6 c -0.1,0.2 -0.3,0.2 -0.5,0 L 74.5,0 h -2.8 l 4.2,5.8 -4.7,6.4 H 74 L 77.1,8 c 0.1,-0.1 0.3,-0.1 0.4,0 l 3.1,4.2 h 2.8 L 78.7,5.8 83,0 Z"
   id="path6" />
<path
   class="st0"
   d="m 84.5,0 v 12.1 h 2.4 V 2.4 C 86.9,1.1 85.8,0 84.5,0 Z"
   id="path7" />
<path
   class="st0"
   d="m 90.1,1.7 c -1.2,1.1 -1.7,2.5 -1.7,4.4 0,1.9 0.6,3.3 1.7,4.5 1.2,1.1 2.7,1.7 4.7,1.7 1.2,0 2.4,-0.1 3.7,-0.4 V 9.8 c -1.5,0.3 -2.7,0.5 -3.7,0.5 -1.2,0 -2.2,-0.4 -3,-1.1 -0.7,-0.7 -1.1,-1.7 -1.1,-3 0,-1.3 0.4,-2.3 1.1,-3 0.7,-0.7 1.8,-1 3.1,-1 1,0 2.2,0.2 3.6,0.5 V 0.5 C 97.2,0.2 96,0.1 94.9,0.1 c -2,0 -3.6,0.5 -4.8,1.6 z"
   id="path8" />
<path
   class="st0"
   d="m 108.1,9.2 c -0.6,0.7 -1.5,1.1 -2.6,1.1 -1.1,0 -2,-0.4 -2.6,-1.1 -0.6,-0.7 -0.9,-1.7 -0.9,-3.1 0,-1.4 0.3,-2.4 0.9,-3 0.6,-0.7 1.5,-1 2.6,-1 1.1,0 2,0.3 2.6,1 0.6,0.7 0.9,1.7 0.9,3 0,1.3 -0.3,2.4 -0.9,3.1 z m 1.7,-7.6 c -1,-1.1 -2.5,-1.6 -4.3,-1.6 -1.9,0 -3.3,0.5 -4.3,1.6 -1,1.1 -1.5,2.5 -1.5,4.4 0,1.9 0.5,3.4 1.5,4.5 1,1.1 2.5,1.6 4.3,1.6 1.9,0 3.3,-0.5 4.3,-1.6 1,-1.1 1.5,-2.6 1.5,-4.5 0,-1.9 -0.5,-3.3 -1.5,-4.4 z"
   id="path9" />
<path
   class="st0"
   d="m 54.1,9.9 c 0.6,0 1,-0.4 1.4,-1.1 L 58,4 v 8.1 h 2.4 V 0 H 57.8 L 53.9,6.9 C 53.9,7 53.8,7 53.7,7 53.6,7 53.6,7 53.5,6.9 L 50,0.9 C 49.7,0.4 49.2,0.1 48.6,0.1 H 46 c 0,0.9 0.4,1.6 1,2.1 v 10 h 2.4 V 4.1 l 2.5,4.8 c 0.4,0.7 0.8,1.1 1.4,1.1 z"
   id="path10" />

</svg>
