<?xml version="1.0" encoding="UTF-8"?>
<svg version="1.1" xmlns="http://www.w3.org/2000/svg" width="375" height="200">
<path d="M0 0 C1.47339844 0.41572266 1.47339844 0.41572266 2.9765625 0.83984375 C18.71326984 5.64951346 29.7640582 18.43270986 37.3046875 32.4921875 C39.58774266 37.21611269 41.02763463 41.85691042 42 47 C42.25713776 48.30390686 42.25713776 48.30390686 42.51947021 49.63415527 C43.07909802 53.5540378 43.15532743 57.40350305 43.16113281 61.35351562 C43.16609772 62.17071075 43.17106262 62.98790588 43.17617798 63.8298645 C43.19072905 66.52200175 43.19759183 69.21407995 43.203125 71.90625 C43.20736607 73.29498573 43.20736607 73.29498573 43.21169281 74.71177673 C43.22666139 79.6167733 43.235904 84.52174067 43.24023438 89.42675781 C43.24569786 94.45862841 43.26968758 99.49022553 43.29820633 104.5220108 C43.3169678 108.42058045 43.32204557 112.31908619 43.32357025 116.21769714 C43.32656982 118.07058701 43.33450545 119.92347649 43.34775543 121.77632141 C43.49274395 143.62038737 39.72525003 161.63616113 24 178 C3.5263207 196.24221561 -20.97195583 197.21645428 -47 196 C-63.80991312 194.31437467 -79.85096233 185.41199225 -90.75 172.6875 C-100.17872547 160.63512918 -105.1388254 146.02532072 -105.16113281 130.74414062 C-105.16609772 129.92548523 -105.17106262 129.10682983 -105.17617798 128.2633667 C-105.19075314 125.5609858 -105.19759603 122.85866372 -105.203125 120.15625 C-105.20595238 119.22826096 -105.20877975 118.30027191 -105.21169281 117.34416199 C-105.22667163 112.42735511 -105.23590763 107.51057744 -105.24023438 102.59375 C-105.24569802 97.54493746 -105.26968509 92.49639748 -105.29820633 87.44766998 C-105.31695371 83.54056047 -105.32204484 79.6335148 -105.32357025 75.72636414 C-105.32657319 73.86706564 -105.33452068 72.00776761 -105.34775543 70.14851379 C-105.49149085 48.39236102 -101.139252 31.055976 -86.625 14.25 C-63.50667795 -5.56570461 -28.46872824 -9.89167676 0 0 Z " fill="#FA9326" transform="translate(105,4)"/>
<path d="M0 0 C1.47339844 0.41572266 1.47339844 0.41572266 2.9765625 0.83984375 C18.71326984 5.64951346 29.7640582 18.43270986 37.3046875 32.4921875 C46.76344114 52.06352568 43 75.22575952 43 96 C-5.84 96 -54.68 96 -105 96 C-105 35.52631579 -105 35.52631579 -86.625 14.25 C-63.50667795 -5.56570461 -28.46872824 -9.89167676 0 0 Z " fill="#C21912" transform="translate(105,4)"/>
<path d="M0 0 C48.84 0 97.68 0 148 0 C148 10.89 148 21.78 148 33 C99.16 33 50.32 33 0 33 C0 22.11 0 11.22 0 0 Z " fill="#F7681F" transform="translate(0,100)"/>
<path d="M0 0 C48.84 0 97.68 0 148 0 C148 10.89 148 21.78 148 33 C99.16 33 50.32 33 0 33 C0 22.11 0 11.22 0 0 Z " fill="#E12F18" transform="translate(0,67)"/>
<path d="M0 0 C43.56 0 87.12 0 132 0 C122.41852685 16.76757801 109.37762089 26.15121284 90.8671875 31.34375 C67.27780996 36.74295358 40.86570585 34.315473 20 22 C11.51628648 16.61660381 4.49839367 8.99678734 0 0 Z " fill="#FCBF2C" transform="translate(8,167)"/>
<path d="M0 0 C1.47339844 0.41572266 1.47339844 0.41572266 2.9765625 0.83984375 C17.37475769 5.2404189 27.73566386 16.28741175 35 29 C-8.56 29 -52.12 29 -97 29 C-90 18 -90 18 -85 14 C-84.278125 13.21625 -83.55625 12.4325 -82.8125 11.625 C-62.35639948 -7.46736048 -25.09020501 -8.7177831 0 0 Z " fill="#A1040C" transform="translate(105,4)"/>
<path d="M0 0 C3.63 0 7.26 0 11 0 C11.54358154 1.51799194 11.54358154 1.51799194 12.09814453 3.06665039 C13.47086016 6.89772693 14.84723884 10.72747959 16.22460938 14.55688477 C16.81509455 16.2000923 17.40464555 17.8436359 17.99316406 19.48754883 C21.40244176 29.00850951 24.92554909 38.45814854 28.72314453 47.83129883 C30.18841399 51.46757651 31.55950505 55.11965633 32.875 58.8125 C33.28492188 59.95332031 33.69484375 61.09414062 34.1171875 62.26953125 C35 65 35 65 35 67 C31.7 67 28.4 67 25 67 C24.20086128 65.16991133 23.41109245 63.33573034 22.625 61.5 C22.18414062 60.4790625 21.74328125 59.458125 21.2890625 58.40625 C20 55 20 55 18 47 C9.42 47 0.84 47 -8 47 C-8.99 50.63 -9.98 54.26 -11 58 C-11.97823519 61.00716742 -12.9706377 64.00994762 -14 67 C-17.3 67 -20.6 67 -24 67 C-23.41098337 62.78223419 -22.42358824 59.09122589 -20.8828125 55.125 C-20.44565918 53.98844971 -20.00850586 52.85189941 -19.55810547 51.6809082 C-19.08518066 50.4662085 -18.61225586 49.25150879 -18.125 48 C-17.12702006 45.41137724 -16.13358667 42.82102001 -15.140625 40.23046875 C-14.88445404 39.56339401 -14.62828308 38.89631927 -14.36434937 38.20903015 C-10.95256473 29.30226626 -7.70245119 20.33599173 -4.44189453 11.37304688 C-3.78616455 9.57383789 -3.78616455 9.57383789 -3.1171875 7.73828125 C-2.73159668 6.67649658 -2.34600586 5.61471191 -1.94873047 4.52075195 C-1 2 -1 2 0 0 Z M5 11 C2.36016447 16.85637359 0.31029466 22.83567623 -1.6875 28.9375 C-2.00783203 29.90751953 -2.32816406 30.87753906 -2.65820312 31.87695312 C-3.44155585 34.25039497 -4.2211606 36.62507329 -5 39 C1.6 39 8.2 39 15 39 C12.57711594 29.44306841 9.35433983 20.2597148 6 11 C5.67 11 5.34 11 5 11 Z " fill="#000000" transform="translate(213,68)"/>
<path d="M0 0 C4.74252954 4.38219029 7.30699422 8.79231213 9 15 C9 17.97 9 20.94 9 24 C-3.21 24 -15.42 24 -28 24 C-24.94792642 33.65376447 -24.94792642 33.65376447 -17.6875 39.375 C-13.9202427 40.25110635 -10.72036111 40.04682226 -7 39 C-3.52054814 36.80643252 -1.50864475 34.84018663 0 31 C2.64 31 5.28 31 8 31 C7.86450108 36.4199566 5.65898848 39.41316263 2.08984375 43.23046875 C-2.69954742 47.28578501 -8.77401948 48.58503879 -14.96484375 48.27734375 C-21.59348434 47.37401653 -26.93533532 45.30396517 -31.48828125 40.2734375 C-36.13651167 33.28307547 -37.87801594 24.89878418 -36.671875 16.63671875 C-34.45720775 7.94543739 -30.53970675 2.46231672 -23 -2.25 C-15.41989808 -5.09253822 -6.77008839 -4.51339226 0 0 Z M-24.25 8.25 C-26.50217188 11.50129395 -26.50217188 11.50129395 -28 18 C-18.76 18 -9.52 18 0 18 C-0.75410564 9.81326894 -0.75410564 9.81326894 -6 5 C-12.39165354 0.67017018 -19.14743013 3.14743013 -24.25 8.25 Z " fill="#000000" transform="translate(285,89)"/>
<path d="M0 0 C6.99224772 7.27131747 8.48625784 14.54573925 8.30859375 24.453125 C7.71832303 31.23750245 5.78348511 36.72652652 0.75 41.4375 C-5.56415147 46.17983078 -12.14768796 48.00388578 -20 47 C-25.67116292 45.66255938 -29.89573731 43.19754139 -34 39 C-38.97008344 30.88590211 -39.75037077 23.4464484 -39 14 C-37.39936579 8.16971063 -34.40444977 2.15517743 -29.1796875 -1.15234375 C-19.7713597 -6.17846564 -8.85302919 -6.50464671 0 0 Z M-26.3125 7.375 C-30.39771486 13.72977867 -30.7788276 19.58671509 -30 27 C-28.43275776 32.24390782 -25.82887957 36.25631843 -21 39 C-15.3756587 40.47523706 -11.84602284 40.25177717 -6.76171875 37.375 C-3.26585416 34.64652032 -1.83367247 31.15365387 -0.25 27.0625 C0.54409861 20.51118647 0.38003367 14.79263722 -3 9 C-6.07320109 5.33915839 -8.91649261 3.32892189 -13.5 1.9375 C-18.91412256 2.03418076 -22.52456856 3.48469204 -26.3125 7.375 Z " fill="#000000" transform="translate(367,90)"/>
<path d="M0 0 C0 2.97 0 5.94 0 9 C-1.381875 9.061875 -2.76375 9.12375 -4.1875 9.1875 C-7.82151108 9.59318363 -8.91668529 9.93618448 -11.9375 12.25 C-15.51731434 17.02308578 -16.25752773 20.90979931 -16.4140625 26.83203125 C-16.47207031 28.77045898 -16.47207031 28.77045898 -16.53125 30.74804688 C-16.56270014 32.10285995 -16.59394761 33.45767775 -16.625 34.8125 C-16.6632175 36.18687272 -16.7022714 37.56122244 -16.7421875 38.93554688 C-16.83635404 42.29022989 -16.921982 45.64490893 -17 49 C-19.97 49 -22.94 49 -26 49 C-26 33.16 -26 17.32 -26 1 C-23.03 1 -20.06 1 -17 1 C-16.67 2.65 -16.34 4.3 -16 6 C-15.071875 5.195625 -14.14375 4.39125 -13.1875 3.5625 C-8.9830937 -0.08131879 -5.47360667 -0.1032756 0 0 Z " fill="#000000" transform="translate(326,86)"/>
</svg>
