<?xml version="1.0" encoding="UTF-8" standalone="no"?>
<!-- Generated by Pixelmator Pro 3.6.8 -->

<svg
   width="300.00891"
   height="51.561527"
   viewBox="0 0 300.0089 51.561527"
   version="1.1"
   id="svg1"
   sodipodi:docname="AeroMexico_2006_logo.svg"
   inkscape:version="1.4 (86a8ad7, 2024-10-11)"
   xmlns:inkscape="http://www.inkscape.org/namespaces/inkscape"
   xmlns:sodipodi="http://sodipodi.sourceforge.net/DTD/sodipodi-0.dtd"
   xmlns="http://www.w3.org/2000/svg"
   xmlns:svg="http://www.w3.org/2000/svg">
  <defs
     id="defs1" />
  <sodipodi:namedview
     id="namedview1"
     pagecolor="#ffffff"
     bordercolor="#000000"
     borderopacity="0.25"
     inkscape:showpageshadow="2"
     inkscape:pageopacity="0.0"
     inkscape:pagecheckerboard="0"
     inkscape:deskcolor="#d1d1d1"
     inkscape:zoom="1.2210744"
     inkscape:cx="203.09983"
     inkscape:cy="35.624365"
     inkscape:window-width="1920"
     inkscape:window-height="1001"
     inkscape:window-x="-9"
     inkscape:window-y="-9"
     inkscape:window-maximized="1"
     inkscape:current-layer="g12" />
  <g
     id="layer1"
     transform="translate(-92.042313,-17.553116)">
    <g
       id="g10">
      <g
         id="g12">
        <path
           id="path14"
           fill="#0c2f59"
           stroke="none"
           d="m 389.20844,52.27379 c -1.28615,0 -2.2909,-0.995186 -2.2909,-2.35197 0,-1.330552 1.00475,-2.337009 2.2909,-2.337009 1.27935,0 2.27725,1.006457 2.27725,2.337009 0,1.356784 -0.9979,2.35197 -2.27725,2.35197 z m 0,-5.157743 c -1.54637,0 -2.86057,1.191555 -2.86057,2.805773 0,1.626791 1.3142,2.814321 2.86057,2.814321 1.53615,0 2.84278,-1.18753 2.84278,-2.814321 0,-1.614218 -1.30663,-2.805773 -2.84278,-2.805773 v 0"
           style="stroke-width:1.10959" />
        <path
           id="path16"
           fill="#0c2f59"
           stroke="none"
           d="m 388.61009,49.727635 v -1.001674 h 0.66732 c 0.34018,0 0.70626,0.06564 0.70626,0.474983 0,0.496501 -0.36608,0.526691 -0.78002,0.526691 z m 1.04849,0.390018 c 0.47811,-0.05362 0.84081,-0.305461 0.84081,-0.883922 0,-0.642463 -0.37228,-0.926129 -1.14545,-0.926129 h -1.23291 v 3.241009 h 0.48906 v -1.404254 h 0.56692 l 0.85587,1.404254 h 0.5512 l -0.9255,-1.430958 v 0"
           style="stroke-width:1.10959" />
        <path
           id="path26"
           fill="#0c2f59"
           stroke="none"
           d="m 371.30606,48.971991 c -0.26297,0.0168 -0.51639,0.03093 -0.75681,0.04243 -0.24181,-0.01149 -0.49246,-0.01415 -0.75478,-0.04243 -1.42821,-0.128066 -2.5573,-0.638228 -3.58935,-1.430348 -0.29029,-0.245209 -0.57989,-0.5187 -0.86131,-0.839178 -1.50338,-1.692906 -2.31207,-4.578738 -2.50468,-6.85168 -0.43989,-5.315122 0.61403,-13.08152 7.14181,-13.600967 0.16666,-0.01599 0.3265,-0.01599 0.49656,-0.01599 0.0163,0 0.0444,-0.0082 0.0719,-0.0082 0.028,0 0.0485,0.0082 0.0778,0.0082 0.15638,0 0.32443,0 0.48287,0.01599 6.53395,0.519447 7.59674,8.285845 7.15823,13.600967 -0.19192,2.272942 -0.9255,5.100099 -2.50944,6.85168 -0.28757,0.320478 -0.57721,0.593969 -0.85928,0.839178 -1.03959,0.79212 -2.25813,1.327347 -3.59345,1.430348 z m 15.62103,-12.788293 c -0.006,-0.07227 -0.0137,-0.131006 -0.0219,-0.21154 -0.13114,-2.925581 -1.10174,-5.549396 -2.47399,-7.580884 -2.85508,-4.474714 -7.86036,-6.889932 -13.882,-6.810156 -6.0169,-0.07977 -11.02559,2.335442 -13.88411,6.810156 -1.36952,2.031488 -2.34281,4.655303 -2.47599,7.580884 -0.007,0.08054 -0.0163,0.139275 -0.0225,0.21154 -0.81488,9.821591 4.90762,16.614871 14.66822,17.400908 0.5888,0.04774 1.15157,0.06994 1.71443,0.06435 0.56074,0.0055 1.13523,-0.0166 1.71852,-0.06435 9.75714,-0.786037 15.4824,-7.579317 14.65932,-17.400908 v 0"
           style="stroke-width:1.10959" />
        <path
           id="path28"
           fill="#0c2f59"
           stroke="none"
           d="m 322.03382,28.8752 c 0,-2.429288 0.23428,-6.701752 0.23428,-6.701752 h -0.002 -7.99496 -0.0144 c 0,0 0.24316,4.272464 0.24316,6.701752 l -0.0171,17.506853 c 0,2.434409 -0.22606,6.563849 -0.22606,6.563849 h 0.0252 7.97242 0.0143 c 0,0 -0.21519,-4.12944 -0.21519,-6.563849 L 322.03437,28.8752 v 0"
           style="stroke-width:1.10959" />
        <path
           id="path30"
           fill="#0c2f59"
           stroke="none"
           d="m 275.29975,48.188617 c -1.67891,0 -3.86803,0 -5.56608,0.0083 -0.0786,-3.092584 -0.11133,-6.081966 -0.11747,-8.792188 l -0.0171,-0.423963 h 0.009 c 0,-0.03073 0,-0.05048 0,-0.07261 h 9.24079 V 34.55486 h -9.22646 c 0.0219,-4.686318 0.11133,-7.76606 0.11133,-7.76606 l 11.46683,-0.0027 v -4.618018 c -8.00931,0.02937 -19.59564,0 -19.59564,0 0,0 0.16938,4.248693 0.16938,6.678534 v 17.473963 c 0,2.222263 -0.13659,6.000824 -0.16392,6.619861 H 281.956 l 0.0219,-4.880301 c 0,0 -4.00673,0.128345 -6.67807,0.128345 v 0"
           style="stroke-width:1.10959" />
        <path
           id="path32"
           fill="#0c2f59"
           stroke="none"
           d="m 141.89992,48.188617 c -1.67071,0 -3.87489,0 -5.57019,0.0083 -0.0758,-3.092584 -0.10862,-6.081966 -0.12292,-8.792188 l -0.006,-0.423963 h 0.006 c 0,-0.03073 0,-0.05048 0,-0.07261 h 9.24011 V 34.55486 h -9.22578 c 0.0246,-4.686318 0.10862,-7.76606 0.10862,-7.76606 l 11.47366,-0.0027 v -4.618018 c -8.01542,0.02937 -19.59427,0 -19.59427,0 0,0 0.17008,4.248693 0.17008,6.678534 v 17.473963 c 0,2.222263 -0.13933,6.000824 -0.16325,6.619861 h 20.34562 l 0.0171,-4.880301 c 0,0 -4.0074,0.128345 -6.67874,0.128345 v 0"
           style="stroke-width:1.10959" />
        <path
           id="path34"
           fill="#0c2f59"
           stroke="none"
           d="m 301.48465,36.392911 8.82894,-14.219463 h -6.11864 l -0.0444,0.135856 c -1.85517,3.196886 -4.16109,7.072849 -5.08112,8.495272 l -0.35383,0.569107 -5.12278,-9.200235 h -9.19436 l 8.86789,15.92569 -9.23876,14.846764 h 6.0852 c 3.93083,-6.734335 5.96969,-9.826648 5.96969,-9.826648 l 5.48278,9.826648 h 9.16358 l -9.2442,-16.552991 v 0"
           style="stroke-width:1.10959" />
        <path
           id="path36"
           fill="#0c2f59"
           stroke="none"
           d="m 346.99742,48.76599 c -7.12201,0 -10.95933,-5.23425 -10.76668,-11.67884 0.17279,-5.610535 2.73283,-10.381888 8.84737,-10.790413 2.34622,-0.156073 4.25326,0.247875 7.54073,1.12783 l -0.33471,-4.808711 c 0,0 -2.78541,-0.889593 -6.77364,-1.041633 -5.07223,-0.192414 -9.665,0.782556 -13.32607,4.163314 -3.26013,2.993884 -5.20337,7.42591 -5.20337,11.726103 0,4.760424 1.95756,9.143884 5.62959,12.183123 3.8209,3.226258 7.92252,3.959769 12.80011,3.959769 3.19594,0 5.0743,-0.213994 8.17867,-1.059254 l -0.45486,-4.718008 c -0.67146,0.22247 -2.9159,0.93672 -6.13714,0.93672 v 0"
           style="stroke-width:1.10959" />
        <path
           id="path38"
           fill="#0c2f59"
           stroke="none"
           d="m 244.21199,17.553116 h 8.91568 l 0.25,2.058942 c 1.98901,20.556477 3.21232,33.348257 3.21232,33.348257 h -9.28179 l -0.918,-12.738368 -0.85377,-11.383284 -7.8645,24.10191 c -2.0737,0.0053 -4.96705,0 -4.96705,0 0,0 -2.49037,-8.563849 -2.9432,-9.754653 l -4.50394,-14.458799 c 0,0 -0.6967,8.048151 -0.959,11.48629 -0.54643,6.901815 -1.02592,12.746904 -1.02592,12.746904 h -6.92736 c 0,0 2.83667,-28.790006 3.05044,-30.539814 0.21653,-1.801509 0.55531,-4.867385 0.55531,-4.867385 h 9.10351 l 7.54141,20.72778 7.61586,-20.72778 v 0"
           style="stroke-width:1.10959" />
        <path
           id="path40"
           fill="#0c2f59"
           stroke="none"
           d="m 197.05105,48.952524 c -0.25342,0.02828 -0.50138,0.0336 -0.74247,0.03627 -0.24863,-0.0027 -0.49385,-0.0027 -0.75612,-0.03627 -1.42958,-0.130733 -2.54638,-0.633173 -3.57912,-1.424811 -0.29575,-0.231279 -0.57444,-0.521293 -0.85992,-0.82791 -1.49178,-1.68437 -2.30116,-4.559753 -2.49242,-6.835151 -0.44055,-5.281238 0.62224,-13.011303 7.11793,-13.52789 0.16596,-0.0063 0.32649,-0.02022 0.48973,-0.02022 0.0239,0 0.0506,-0.01174 0.0798,0 0.0171,-0.01174 0.0485,0 0.0662,0 0.16051,0 0.32651,0.01387 0.49248,0.02022 6.49227,0.516587 7.55847,8.246652 7.11109,13.52789 -0.18578,2.275398 -0.92074,5.086232 -2.49446,6.835151 -0.28481,0.306617 -0.56758,0.596631 -0.85719,0.82791 -1.02661,0.791638 -2.23832,1.321536 -3.57571,1.424811 z m 15.56368,-12.723955 c -0.009,-0.07287 -0.0238,-0.145141 -0.028,-0.203611 -0.12635,-2.933578 -1.09355,-5.538202 -2.46643,-7.562718 -2.83666,-4.45873 -7.82077,-6.855984 -13.8117,-6.775456 -6.00595,-0.08054 -10.9887,2.316726 -13.82944,6.775456 -1.35789,2.024516 -2.3319,4.62914 -2.46098,7.562718 -0.002,0.05848 -0.0191,0.130733 -0.0191,0.203611 -0.82237,9.77672 4.88165,16.541449 14.59581,17.325642 0.57854,0.03894 1.14409,0.05232 1.71374,0.05232 0.55324,0 1.12358,-0.01338 1.70622,-0.05232 9.70732,-0.784193 15.41548,-7.548922 14.59993,-17.325642 v 0"
           style="stroke-width:1.10959" />
        <path
           id="path42"
           fill="#0c2f59"
           stroke="none"
           d="m 103.59929,37.879063 3.85232,-11.46225 0.22953,-0.675044 4.03333,12.137294 z m 22.68162,15.06151 c -0.27185,-0.633174 -1.92003,-4.534205 -3.129,-7.682594 L 112.74789,17.553116 h -8.1008 c 0,0 -2.30252,6.497389 -2.63449,7.568322 l -7.597415,21.478095 c -0.986984,2.746556 -2.372872,6.346369 -2.372872,6.346369 h 6.610433 c 0,0 1.870154,-5.96995 2.256074,-7.049422 l 1.01909,-2.980839 h 11.45726 l 1.55596,4.542743 c 0.33195,0.850309 1.68368,5.414637 1.70964,5.482189 h 9.63014 v 0"
           style="stroke-width:1.10959" />
        <path
           id="path44"
           fill="#0c2f59"
           stroke="none"
           d="m 166.26795,35.768546 c -1.19259,0.616102 -3.88718,0.445616 -5.21911,0.367407 l 0.10175,-8.799426 0.74316,-0.0472 c 2.45277,-0.196104 4.24234,0.135235 4.97662,0.467194 1.10173,0.48393 1.7431,1.51436 1.80318,3.255901 0.0928,2.591782 -0.89271,3.977869 -2.40563,4.756119 z m 14.13679,17.177356 c -1.91385,-2.7495 -2.62011,-3.8845 -4.09205,-5.895225 l -5.5162,-8.571565 c 2.65494,-1.311091 5.14801,-3.508558 5.52779,-8.106832 0.2336,-2.876195 -1.30254,-5.256446 -2.21645,-6.065092 -1.3285,-1.182543 -2.61945,-1.661966 -4.45683,-1.886687 -1.47807,-0.190972 -2.54089,-0.20197 -3.42747,-0.255044 h -12.99341 c 0,0 0.15299,4.251356 0.15299,6.685773 v 17.399271 c 0,2.442679 -0.15299,6.690072 -0.15299,6.690072 h 7.9929 c 0,0 -0.23359,-4.247393 -0.23359,-6.690072 l 0.0594,-5.579797 c 0,0 1.74039,0 2.96508,0.01386 l 5.05515,9.266631 c 0.67961,1.17933 1.6625,2.657422 1.89473,2.994706 h 9.44093 v 0"
           style="stroke-width:1.10959" />
        <path
           id="path68"
           fill="#e41d25"
           stroke="none"
           d="m 217.18219,68.858507 c 0,0 14.00224,-11.440901 49.3494,-11.440901 26.63843,0 42.60444,8.509711 73.75364,8.509711 28.01887,0 46.71974,-9.627912 46.71974,-9.627912 0,0 -16.42366,12.815238 -49.38018,12.815238 -32.95651,0 -43.46501,-8.623369 -76.01992,-8.623369 -32.55491,0 -44.42268,8.367233 -44.42268,8.367233"
           style="stroke-width:1.10959" />
      </g>
    </g>
  </g>
</svg>
