<?xml version="1.0" encoding="UTF-8" standalone="no"?>
<!-- Generator: Adobe Illustrator 12.0.0, SVG Export Plug-In . SVG Version: 6.00 Build 51448)  -->
<svg
   xmlns:dc="http://purl.org/dc/elements/1.1/"
   xmlns:cc="http://creativecommons.org/ns#"
   xmlns:rdf="http://www.w3.org/1999/02/22-rdf-syntax-ns#"
   xmlns:svg="http://www.w3.org/2000/svg"
   xmlns="http://www.w3.org/2000/svg"
   xmlns:sodipodi="http://sodipodi.sourceforge.net/DTD/sodipodi-0.dtd"
   xmlns:inkscape="http://www.inkscape.org/namespaces/inkscape"
   version="1.0"
   id="Layer_1"
   width="697.69098"
   height="179.27499"
   viewBox="0 0 697.691 266"
   overflow="visible"
   enable-background="new 0 0 697.691 266"
   xml:space="preserve"
   sodipodi:version="0.32"
   inkscape:version="0.46"
   sodipodi:docname="Aerolineas_Argentinas_(wwww.vector-logos.svg"
   inkscape:output_extension="org.inkscape.output.svg.inkscape"
   style="overflow:visible"><metadata
   id="metadata56"><rdf:RDF><cc:Work
       rdf:about=""><dc:format>image/svg+xml</dc:format><dc:type
         rdf:resource="http://purl.org/dc/dcmitype/StillImage" /></cc:Work></rdf:RDF></metadata><defs
   id="defs54"><inkscape:perspective
   sodipodi:type="inkscape:persp3d"
   inkscape:vp_x="0 : 133 : 1"
   inkscape:vp_y="0 : 1000 : 0"
   inkscape:vp_z="697.69098 : 133 : 1"
   inkscape:persp3d-origin="348.84549 : 88.666667 : 1"
   id="perspective58" />
	
	
	
	
	
	
	
	
	
	
	
	
	
	
	
	
	
	
	
	
	
</defs><sodipodi:namedview
   inkscape:window-height="712"
   inkscape:window-width="1024"
   inkscape:pageshadow="2"
   inkscape:pageopacity="0.0"
   guidetolerance="10.0"
   gridtolerance="10.0"
   objecttolerance="10.0"
   borderopacity="1.0"
   bordercolor="#666666"
   pagecolor="#ffffff"
   id="base"
   showgrid="false"
   inkscape:zoom="3"
   inkscape:cx="79.038141"
   inkscape:cy="117.74127"
   inkscape:window-x="0"
   inkscape:window-y="22"
   inkscape:current-layer="Layer_1" />
<path
   style="fill:#14286e;fill-opacity:1"
   id="path7"
   d="M -17.019869,111.01358 L -46.125386,111.01358 L -53.357261,125.39961 L -84.119804,125.39961 L -32.777198,35.030929 L -2.9462689,35.030929 L 11.723683,125.39961 L -16.076388,125.39961 L -17.019869,111.01358 L -17.019869,111.01358 z M -18.765903,91.451119 L -21.651236,57.72949 L -36.81073,91.451119 L -18.765903,91.451119 L -18.765903,91.451119 z" /><path
   style="fill:#14286e;fill-opacity:1"
   id="path9"
   d="M 703.75555,111.14258 L 673.83562,111.14258 L 667.41816,125.52862 L 636.65562,125.52862 L 687.99822,35.159931 L 717.82915,35.159931 L 732.09115,125.52862 L 704.69903,125.52862 L 703.75555,111.14258 L 703.75555,111.14258 z M 702.00803,91.580121 L 699.12419,57.858493 L 683.15027,91.580121 L 702.00803,91.580121 L 702.00803,91.580121 z" /><path
   style="fill:#14286e;fill-opacity:1"
   id="path11"
   d="M 659.09742,221.72319 L 630.19514,221.72319 L 622.76003,236.92179 L 592.40396,236.92179 L 643.3401,146.55311 L 673.17102,146.55311 L 687.84098,236.92179 L 660.04239,236.92179 L 659.09742,221.72319 L 659.09742,221.72319 z M 657.35287,202.97478 L 654.46754,169.25315 L 639.30805,202.97478 L 657.35287,202.97478 L 657.35287,202.97478 z" /><path
   style="fill:#14286e;fill-opacity:1"
   id="path13"
   d="M -80.090722,221.36732 L -109.19772,221.36732 L -116.4296,236.81503 L -146.9266,236.81503 L -95.316972,146.44635 L -66.018606,146.44635 L -51.348654,236.81503 L -78.616162,236.81503 L -80.090722,221.36732 L -80.090722,221.36732 z M -81.83824,202.86654 L -84.723573,169.14491 L -99.883067,202.86654 L -81.83824,202.86654 L -81.83824,202.86654 z" /><polygon
   style="fill:#14286e;fill-opacity:1"
   id="polygon15"
   points="128.257,84.473 141.115,23.581 191.256,23.581 188.413,36.865 157.368,36.865 155.442,46.38 185.302,46.38 182.733,58.705 152.721,58.705 149.947,70.641 183.784,70.641 180.758,84.473 128.257,84.473 "
   transform="matrix(1.4834616,0,0,1.4827908,-168.65338,-4.0024604e-6)" /><polygon
   style="fill:#14286e;fill-opacity:1"
   id="polygon17"
   points="220.686,159.701 233.544,98.809 283.686,98.809 280.842,112.094 249.797,112.094 247.872,121.607 277.731,121.607 275.162,133.932 245.15,133.932 242.376,145.869 276.213,145.869 273.188,159.701 220.686,159.701 "
   transform="matrix(1.4834616,0,0,1.4827908,-168.65338,-4.0024604e-6)" /><polygon
   style="fill:#14286e;fill-opacity:1"
   id="polygon19"
   points="486.252,84.412 499.109,23.521 549.251,23.521 546.408,36.804 515.362,36.804 513.438,46.319 543.297,46.319 540.728,58.644 510.717,58.644 507.942,70.58 541.779,70.58 538.753,84.412 486.252,84.412 "
   transform="matrix(1.4834616,0,0,1.4827908,-168.65338,-4.0024604e-6)" /><path
   style="fill:#14286e;fill-opacity:1"
   id="path21"
   d="M 141.51619,125.27358 L 113.0901,125.27358 L 131.81287,35.047239 L 176.47544,35.047239 C 184.15681,35.047239 190.57871,35.145104 194.8763,36.558203 C 199.20059,37.9802 202.52503,40.677396 205.25015,44.454064 C 207.96488,48.217387 209.57296,53.301877 209.6412,58.679959 C 209.73614,66.042015 207.34776,73.098617 202.34702,78.077828 C 197.34627,83.055557 192.51908,86.449665 182.1749,87.64776 C 184.87629,89.769634 186.14613,91.965647 188.54192,95.462068 C 193.37356,102.51126 196.91903,112.49933 202.63926,125.37589 L 172.6674,125.4782 C 166.89673,110.66809 165.16553,107.11087 158.59528,93.575958 C 157.03765,89.630251 152.80681,89.182449 148.77625,88.737611 L 141.51619,125.27358 L 141.51619,125.27358 z M 152.78753,71.624723 L 162.04433,71.727035 C 170.01794,71.543169 171.89303,71.33113 175.69811,70.552665 C 178.12505,69.32788 181.87821,68.103095 182.28765,61.439433 C 182.62736,53.143218 175.73075,53.81344 171.01779,53.691851 L 156.58519,53.591021 L 152.78753,71.624723 L 152.78753,71.624723 z" /><path
   style="fill:#14286e;fill-opacity:1"
   id="path23"
   d="M -12.75195,236.82096 L -41.178041,236.82096 L -22.455272,146.59314 L 22.207306,146.59314 C 29.88867,146.59314 36.310575,146.69101 40.608164,148.10559 C 44.932454,149.52759 48.256892,152.2233 50.982011,156.00293 C 53.696745,159.76477 55.304818,164.85075 55.373057,170.22883 C 55.467999,177.59088 53.079625,184.64897 48.078876,189.62373 C 43.078127,194.60443 38.250943,197.99853 27.906765,199.19515 C 30.608149,201.3185 31.877992,203.51303 34.273783,207.00945 C 39.105417,214.05864 42.65089,224.04672 48.371118,236.92328 L 18.397777,237.02411 C 12.627111,222.21696 10.897395,218.65678 4.3256599,205.12334 C 2.7680252,201.17615 -1.4628073,200.72687 -5.491889,200.28351 L -12.75195,236.82096 L -12.75195,236.82096 z M -1.4820923,183.17359 L 7.7747081,183.27442 C 15.748314,183.08907 17.62341,182.87703 21.428489,182.09857 C 23.855432,180.87378 27.60859,179.649 28.018025,172.98534 C 28.357738,164.68764 21.461125,165.35934 16.748167,165.23775 L 2.3155694,165.13692 L -1.4820923,183.17359 L -1.4820923,183.17359 z" /><path
   style="fill:#14286e;fill-opacity:1"
   id="path25"
   d="M 214.71315,89.937189 C 214.71315,84.608039 215.42076,78.968986 217.11784,73.042271 C 219.38902,65.107857 223.2119,58.206949 227.84179,52.355856 C 232.46277,46.516626 237.91449,41.504793 244.94165,38.109202 C 251.99551,34.701749 260.40525,33.417652 269.40838,33.417652 C 281.44964,33.417652 291.37696,36.288335 298.79575,43.23521 C 306.2279,50.190982 309.72738,60.023368 309.72738,71.483858 C 309.72738,81.047858 307.72916,90.68155 302.89901,99.612399 C 298.07034,108.54325 291.31021,115.40857 283.03546,120.21429 C 274.73549,125.03485 265.16865,127.03217 254.71469,127.03217 C 245.64333,127.03217 237.0081,124.91178 230.84135,121.09952 C 224.69536,117.26651 220.74194,113.13842 218.16368,107.46971 C 215.59433,101.82769 214.71315,95.709694 214.71315,89.937189 L 214.71315,89.937189 z M 242.63783,87.13768 C 242.02813,93.046601 242.54586,96.216808 245.00099,99.898578 C 249.08199,104.08894 251.99551,106.2983 257.72464,106.40062 C 262.715,106.49551 264.04863,105.75264 269.03603,102.44601 C 271.99257,100.2589 275.39118,95.448723 278.14152,89.622838 C 279.55971,86.365146 281.49414,78.896329 281.90061,75.057384 C 282.28483,69.786062 282.68091,64.491016 279.59383,60.855213 C 275.48167,56.695985 272.53997,54.319071 266.9844,54.36059 C 262.79956,54.462902 256.39694,55.567581 250.2198,64.029868 C 245.82134,70.052965 244.06047,77.71751 242.63783,87.13768 L 242.63783,87.13768 z" /><path
   style="fill:#14286e;fill-opacity:1"
   id="path27"
   d="M 108.91119,185.81296 L 151.45538,185.81296 L 142.52346,227.51052 C 137.52271,230.58879 131.3975,233.20444 124.15079,235.353 C 116.90259,237.48229 109.52237,238.55583 101.98935,238.55583 C 90.290776,238.55583 79.08174,235.22251 72.8334,230.15434 C 64.322781,223.25046 59.649877,214.02009 59.649877,200.88701 C 59.649877,192.07775 61.477501,183.44049 65.135718,175.3667 C 69.538632,165.64997 76.386291,158.53109 84.471156,153.17673 C 92.556022,147.82238 104.10477,144.9428 115.03195,144.9428 C 125.95913,144.9428 134.72638,147.36716 141.33521,152.23516 C 147.92029,157.08537 152.30689,163.76089 154.46681,173.05503 L 126.5807,176.05471 C 124.97411,171.25937 124.24721,170.75225 122.83347,169.38809 C 119.44673,166.56189 116.94858,165.40531 112.48781,165.40531 C 106.18607,165.40531 105.30489,166.34392 100.04899,169.47409 C 96.730483,171.99038 93.759109,176.73383 91.596222,181.45504 C 88.627816,187.98821 87.449947,192.89773 87.449947,200.63345 C 87.653181,205.31314 89.86799,210.53553 92.260813,213.26683 C 94.754512,215.99517 99.738943,218.11556 102.45368,218.21935 C 106.61775,218.21935 108.95866,218.45363 112.04574,217.6292 C 116.02142,216.60904 116.96638,215.77275 120.13951,214.19209 L 122.03092,204.00087 L 105.20253,203.79773 L 108.91119,185.81296 L 108.91119,185.81296 z" /><polygon
   style="fill:#14286e;fill-opacity:1"
   id="polygon29"
   points="325.673,84.486 338.282,23.636 357.514,23.636 347.587,69.785 377.675,69.785 374.492,84.486 325.673,84.486 "
   transform="matrix(1.4834616,0,0,1.4827908,-168.65338,-4.0024604e-6)" /><polygon
   style="fill:#14286e;fill-opacity:1"
   id="polygon31"
   points="340.396,159.648 322.927,159.785 307.602,124.469 300.142,159.648 282.28,159.648 295.396,99.123 313.172,99.123 328.27,134.682 335.838,98.984 353.512,99.123 340.396,159.648 "
   transform="matrix(1.4834616,0,0,1.4827908,-168.65338,-4.0024604e-6)" /><polygon
   style="fill:#14286e;fill-opacity:1"
   id="polygon33"
   points="505.873,159.291 488.404,159.43 473.079,124.111 465.619,159.291 447.757,159.291 460.874,98.766 478.65,98.766 493.747,134.326 501.315,98.629 518.989,98.766 505.873,159.291 "
   transform="matrix(1.4834616,0,0,1.4827908,-168.65338,-4.0024604e-6)" /><polygon
   style="fill:#14286e;fill-opacity:1"
   id="polygon35"
   points="473.272,84.055 455.805,84.192 440.479,48.875 433.019,84.055 415.157,84.055 428.273,23.529 446.05,23.529 461.146,59.089 468.716,23.392 486.389,23.529 473.272,84.055 "
   transform="matrix(1.4834616,0,0,1.4827908,-168.65338,-4.0024604e-6)" /><polygon
   style="fill:#14286e;fill-opacity:1"
   id="polygon37"
   points="382.919,84.325 396.123,23.632 415.342,23.632 402.329,84.462 382.919,84.325 "
   transform="matrix(1.4834616,0,0,1.4827908,-168.65338,-4.0024604e-6)" /><polygon
   style="fill:#14286e;fill-opacity:1"
   id="polygon39"
   points="415.381,159.791 428.585,99.098 447.804,99.098 434.79,159.654 415.381,159.791 "
   transform="matrix(1.4834616,0,0,1.4827908,-168.65338,-4.0024604e-6)" /><polygon
   style="fill:#14286e;fill-opacity:1"
   id="polygon41"
   points="386.989,159.572 367.981,159.572 377.42,114.105 358.652,114.105 361.731,98.879 419.736,98.879 416.657,113.969 396.789,113.969 386.989,159.572 "
   transform="matrix(1.4834616,0,0,1.4827908,-168.65338,-4.0024604e-6)" /><path
   style="fill:#14286e;fill-opacity:1"
   id="path43"
   d="M 745.81911,95.153647 L 772.20395,93.220088 C 772.34043,100.4309 773.65626,103.16665 775.37856,105.11207 C 778.18824,108.28524 780.91632,109.16602 785.17979,109.06371 C 791.44445,108.91395 793.7453,107.98572 795.61743,106.65417 C 798.49831,104.60496 800.02924,102.39115 799.9254,100.0691 C 799.81117,97.428248 798.86176,95.705245 796.5802,93.856205 C 794.96174,92.545418 789.62869,90.650412 782.41314,87.646277 C 775.19016,84.639178 769.92387,82.130296 766.60537,80.110735 C 763.28835,78.092656 760.45494,75.493324 758.55166,72.286047 C 756.63947,69.06246 755.89329,65.10934 755.89329,60.80035 C 755.89329,53.264807 759.74881,46.424693 765.43492,41.457344 C 771.11064,36.498892 781.98145,33.211544 792.73803,33.211544 C 803.66669,33.211544 815.89783,35.76491 821.87767,40.681844 C 827.8664,45.607675 831.46528,52.047436 832.07201,60.227993 L 805.55662,61.62923 C 805.08043,57.363241 804.90093,55.091605 802.14763,52.822935 C 799.39284,50.554266 796.86502,49.918148 791.48747,49.918148 C 788.64219,50.122773 786.88577,50.921998 784.62794,52.705795 C 783.47826,53.989892 782.64901,55.72624 782.95312,58.451609 C 783.15783,60.093059 784.51817,61.286705 787.09494,62.560423 C 789.49222,63.745172 792.11498,64.786092 799.23559,67.741294 C 809.96102,72.194114 816.77159,76.783352 819.70736,79.541343 C 825.48396,85.26195 826.25536,92.813803 826.25536,99.180907 C 826.15449,106.25382 821.06176,114.11706 814.46184,119.49514 C 804.59089,127.02624 792.80033,127.27534 782.70686,127.17303 C 774.70507,127.17303 766.95102,125.67393 761.70698,123.19915 C 755.90368,120.46044 751.5868,116.83353 749.18063,112.23391 C 746.77446,107.6343 745.64554,101.14709 745.81911,95.153647 L 745.81911,95.153647 z" /><path
   style="fill:#14286e;fill-opacity:1"
   id="path45"
   d="M 701.49476,207.05542 L 727.8796,205.12038 C 728.01608,212.33119 729.33191,215.06842 731.05421,217.01384 C 733.86389,220.18553 736.59197,221.06483 740.85544,220.964 C 747.1201,220.81275 749.42095,219.88601 751.29308,218.55446 C 754.17396,216.50376 755.70489,214.29144 755.60254,211.96939 C 755.48683,209.32854 754.53741,207.60554 752.25585,205.75798 C 750.63739,204.44571 745.30434,202.55218 738.08879,199.54657 C 730.86581,196.54095 725.59952,194.03207 722.28102,192.01103 C 718.964,189.99295 716.13059,187.3951 714.22731,184.18634 C 712.31513,180.96275 711.56894,177.00963 711.56894,172.70064 C 711.56894,165.16806 715.42446,158.32498 721.11057,153.35763 C 726.78629,148.39918 737.6571,145.11183 748.41368,145.11183 C 759.34234,145.11183 771.57348,147.66668 777.55332,152.58362 C 783.54353,157.50945 787.14093,163.94773 787.74766,172.12977 L 761.23227,173.531 C 760.75608,169.26501 760.57658,166.99486 757.82328,164.72471 C 755.06997,162.45752 752.54067,161.81992 747.16312,161.81992 C 744.31784,162.02603 742.56142,162.82525 740.3036,164.60905 C 739.15391,165.89167 738.32466,167.62653 738.62877,170.35487 C 738.83349,171.99631 740.1953,173.18996 742.77059,174.46368 C 745.16787,175.64843 747.79211,176.68786 754.91124,179.64455 C 765.63667,184.09589 772.44724,188.68661 775.38301,191.44312 C 781.15961,197.16224 781.93101,204.71558 781.93101,211.08416 C 781.83014,218.15708 776.73741,226.01883 770.13898,231.39691 C 760.26654,238.92949 748.47599,239.1786 738.38251,239.07481 C 730.38072,239.07481 722.62667,237.57719 717.38263,235.10389 C 711.57933,232.36369 707.26394,228.7353 704.85628,224.13717 C 702.45011,219.53755 701.32119,213.05034 701.49476,207.05542 L 701.49476,207.05542 z" />


</svg>