<?xml version="1.0" encoding="UTF-8" standalone="no"?>
<!-- Created with Inkscape (http://www.inkscape.org/) -->

<svg
   width="258.078mm"
   height="31.56056mm"
   viewBox="0 0 258.078 31.56056"
   version="1.1"
   id="svg1"
   inkscape:version="1.4 (86a8ad7, 2024-10-11)"
   sodipodi:docname="AeroMexico_1998.svg"
   xmlns:inkscape="http://www.inkscape.org/namespaces/inkscape"
   xmlns:sodipodi="http://sodipodi.sourceforge.net/DTD/sodipodi-0.dtd"
   xmlns="http://www.w3.org/2000/svg"
   xmlns:svg="http://www.w3.org/2000/svg">
  <sodipodi:namedview
     id="namedview1"
     pagecolor="#ffffff"
     bordercolor="#000000"
     borderopacity="0.25"
     inkscape:showpageshadow="2"
     inkscape:pageopacity="0.0"
     inkscape:pagecheckerboard="0"
     inkscape:deskcolor="#d1d1d1"
     inkscape:document-units="mm"
     inkscape:zoom="0.49323376"
     inkscape:cx="679.19113"
     inkscape:cy="49.672187"
     inkscape:window-width="1920"
     inkscape:window-height="1001"
     inkscape:window-x="-9"
     inkscape:window-y="-9"
     inkscape:window-maximized="1"
     inkscape:current-layer="layer1" />
  <defs
     id="defs1" />
  <g
     inkscape:label="Layer 1"
     inkscape:groupmode="layer"
     id="layer1"
     transform="translate(-23.547913,-130.70417)">
    <path
       clip-path="url(#SVGID_10_)"
       d="m 281.55775,146.98769 -0.0286,-0.19214 c -0.10555,-2.565 -0.97033,-4.85142 -2.16153,-6.6479 -2.49781,-3.88116 -6.88812,-5.99465 -12.15261,-5.94663 -5.27412,-0.0481 -9.65483,2.06547 -12.16224,5.94663 -1.19123,1.79648 -2.04622,4.0829 -2.18071,6.6479 l -0.01,0.19214 c -0.72049,8.59807 4.29422,14.54469 12.85391,15.21717 0.52839,0.0481 1.00871,0.0673 1.48907,0.0573 0.50915,0.009 0.9895,-0.01 1.47945,-0.0573 8.56924,-0.67248 13.59359,-6.6191 12.87311,-15.21717 m -13.66088,11.20151 -0.67247,0.0288 -0.65327,-0.0288 c -1.25851,-0.1248 -2.22878,-0.55719 -3.13179,-1.24887 l -0.75897,-0.74932 c -1.32574,-1.45066 -2.02703,-3.99644 -2.19995,-6.00426 -0.38429,-4.64968 0.55718,-11.46092 6.26364,-11.9028 l 0.44189,-0.009 h 0.0481 0.0573 l 0.45155,0.009 c 5.68722,0.44188 6.60946,7.25312 6.22519,11.9028 -0.15372,2.00782 -0.79735,4.46715 -2.19998,6.00426 l -0.73972,0.74932 c -0.91264,0.69168 -1.98861,1.1624 -3.13179,1.24887"
       id="path237"
       style="fill:#003263;stroke-width:0.448124" />
    <path
       clip-path="url(#SVGID_10_)"
       d="m 224.79114,140.58955 c 0,-2.14231 0.20174,-5.8409 0.20174,-5.8409 h -7.00335 -0.01 c 0,0 0.21134,3.69859 0.21134,5.8409 l -0.0388,15.32284 c 0,2.14231 -0.17294,5.71606 -0.17294,5.71606 h 0.0193 6.98411 0.009 c 0,0 -0.18252,-3.57375 -0.18252,-5.71606 z"
       id="path239"
       style="fill:#003263;stroke-width:0.448124" />
    <path
       clip-path="url(#SVGID_10_)"
       d="m 183.83737,157.51673 h -4.85146 c -0.0288,-2.71874 -0.0771,-5.33175 -0.0771,-7.70463 v -0.37466 -0.0673 h 8.05051 v -3.81395 h -8.05051 c 0.0193,-4.10211 0.0771,-6.79199 0.0771,-6.79199 l 10.03914,-0.0288 v -3.99642 c -6.99378,0.0192 -17.11933,0 -17.11933,0 0,0 0.13462,3.67938 0.13462,5.81208 v 15.31325 c 0,1.95019 -0.13462,5.25492 -0.13462,5.77369 h 17.79178 l 0.009,-4.25582 c 0,0 -3.50647,0.13463 -5.86975,0.13463"
       id="path241"
       style="fill:#003263;stroke-width:0.448124" />
    <path
       clip-path="url(#SVGID_10_)"
       d="m 67.143572,157.51673 h -4.889861 c -0.05764,-2.71874 -0.07684,-5.33175 -0.07684,-7.70463 l -0.02881,-0.37466 h 0.0094 v -0.0673 h 8.098532 v -3.81395 h -8.079382 c 0.01922,-4.10211 0.07686,-6.79199 0.07686,-6.79199 l 10.067921,-0.0288 v -3.99642 c -7.003358,0.0192 -17.13853,0 -17.13853,0 0,0 0.153709,3.6986 0.153709,5.81208 v 15.31325 c 0,1.95019 -0.105679,5.25492 -0.1345,5.77369 h 17.811001 v -4.25582 c -0.0094,0 -3.506478,0.13463 -5.869748,0.13463"
       id="path243"
       style="fill:#003263;stroke-width:0.448124" />
    <path
       clip-path="url(#SVGID_10_)"
       d="m 206.76881,147.17023 7.73345,-12.412 h -5.36059 l -0.0288,0.0961 c -1.63317,2.80519 -3.64099,6.17717 -4.40952,7.40685 l -0.33626,0.50916 -4.46715,-8.01208 h -8.06972 l 7.7719,13.89144 -8.09852,12.98838 h 5.33176 c 3.45846,-5.86013 5.22613,-8.56924 5.22613,-8.56924 l 4.77455,8.56924 h 8.03125 z"
       id="path245"
       style="fill:#003263;stroke-width:0.448124" />
    <path
       clip-path="url(#SVGID_10_)"
       d="m 246.61779,158.00671 c -6.22521,0 -9.59715,-4.58248 -9.41466,-10.23128 0.15374,-4.91867 2.40171,-9.10721 7.77191,-9.45309 2.01742,-0.11546 3.6698,0.22097 6.55185,0.98952 l -0.2786,-4.17895 c 0,0 -2.44012,-0.78775 -5.89862,-0.93189 -4.43829,-0.1633 -8.47315,0.70131 -11.68183,3.66979 -2.83401,2.58428 -4.57281,6.46538 -4.57281,10.23126 0,4.16938 1.7388,8.02166 4.94744,10.69237 3.3528,2.77637 6.94575,3.42003 11.21118,3.42003 2.78594,0 4.41913,-0.19215 7.14743,-0.93185 l -0.42267,-4.0925 c -0.60523,0.19211 -2.55542,0.81659 -5.36062,0.81659"
       id="path247"
       style="fill:#003263;stroke-width:0.448124" />
    <path
       clip-path="url(#SVGID_10_)"
       d="m 156.66933,130.70417 h 7.79112 l 0.23056,1.78684 c 1.73885,18.00316 2.7956,29.16627 2.7956,29.16627 h -8.09857 l -0.80695,-11.1247 -0.74935,-9.97185 -6.87846,21.07731 h -4.38069 c 0,0 -2.17113,-7.47407 -2.55542,-8.51161 l -3.91957,-12.68097 c 0,0 -0.61482,7.0514 -0.8454,10.08712 -0.47074,6.03309 -0.90302,11.1247 -0.90302,11.1247 h -6.06189 c 0,0 2.48813,-25.1506 2.65145,-26.69729 0.20175,-1.57552 0.50918,-4.25582 0.50918,-4.25582 h 7.92561 l 6.62868,18.13765 z"
       id="path249"
       style="fill:#003263;stroke-width:0.448124" />
    <path
       clip-path="url(#SVGID_10_)"
       d="m 129.02097,147.0165 -0.0289,-0.17291 c -0.0961,-2.56502 -0.97029,-4.85143 -2.17113,-6.6287 -2.48818,-3.87154 -6.81123,-5.96581 -12.07575,-5.90815 -5.25493,-0.0573 -9.6068,2.03661 -12.10458,5.90815 -1.20084,1.77727 -2.05585,4.06368 -2.16152,6.6287 l -0.048,0.17291 c -0.672472,8.56926 4.28464,14.48705 12.80586,15.14993 0.51878,0.0481 1.00873,0.0573 1.49867,0.0573 0.50916,0 0.99911,-0.009 1.51787,-0.0573 8.49241,-0.66288 13.49756,-6.58067 12.76744,-15.14993 m -13.61282,11.1727 -0.65327,0.0288 -0.63405,-0.0288 c -1.2681,-0.1248 -2.2576,-0.56677 -3.13182,-1.24887 l -0.76855,-0.74932 c -1.30651,-1.45066 -2.01743,-3.97722 -2.19036,-5.98504 -0.38426,-4.64006 0.5572,-11.40327 6.23483,-11.8452 l 0.43229,-0.0192 0.0288,-0.009 0.0961,0.009 0.44193,0.0192 c 5.67761,0.44193 6.59025,7.20514 6.20599,11.8452 -0.16333,2.00782 -0.80699,4.44793 -2.14234,5.98504 l -0.76853,0.74932 c -0.91264,0.6821 -1.9694,1.1336 -3.15104,1.24887"
       id="path251"
       style="fill:#003263;stroke-width:0.448124" />
    <path
       clip-path="url(#SVGID_10_)"
       d="m 53.49231,161.63804 c -0.220958,-0.5476 -1.671583,-3.93878 -2.747547,-6.69592 L 41.637515,130.70417 H 34.58613 c 0,0 -2.036644,5.68722 -2.324849,6.61909 l -6.657511,18.7813 c -0.845397,2.4305 -2.055857,5.53348 -2.055857,5.53348 h 5.802511 c 0,0 1.613943,-5.17803 1.969394,-6.12913 l 0.883824,-2.62263 h 10.010285 l 1.354556,3.9772 c 0.307418,0.75895 1.489058,4.71694 1.508267,4.77456 z m -19.838043,-13.1709 3.352777,-10.03911 0.192132,-0.55722 3.525696,10.59633 z"
       id="path253"
       style="fill:#003263;stroke-width:0.448124" />
    <path
       clip-path="url(#SVGID_10_)"
       d="m 100.82501,161.63804 c -1.633158,-2.38247 -2.247997,-3.38157 -3.535298,-5.12999 l -4.832213,-7.51254 c 2.324836,-1.15281 4.495973,-3.06456 4.832213,-7.08982 0.201737,-2.51697 -1.114403,-4.59206 -1.95019,-5.31255 -1.162415,-1.02796 -2.29603,-1.43142 -3.890752,-1.63315 -1.277703,-0.16333 -2.219165,-0.18254 -3.006925,-0.22098 H 77.086608 c 0,0 0.115274,3.67941 0.115274,5.82172 v 15.23638 c 0,2.15194 -0.115274,5.84093 -0.115274,5.84093 h 6.984143 c 0,0 -0.220957,-3.68899 -0.220957,-5.84093 l 0.05764,-4.87062 h 2.593836 l 4.419132,8.12735 c 0.61482,0.98951 1.460228,2.29601 1.681183,2.5842 z M 88.470665,146.61301 c -1.047142,0.55722 -3.410414,0.41311 -4.572836,0.33625 l 0.07685,-7.71427 0.682082,-0.0481 c 2.132708,-0.16331 3.708227,0.12482 4.351874,0.4227 0.951086,0.40348 1.51788,1.33533 1.575522,2.8436 0.06718,2.26719 -0.797364,3.46809 -2.113498,4.15974"
       id="path255"
       style="fill:#003263;stroke-width:0.448124" />
  </g>
</svg>
