<?xml version="1.0" encoding="utf-8"?>
<!-- Generator: Adobe Illustrator 16.0.3, SVG Export Plug-In . SVG Version: 6.00 Build 0)  -->
<!DOCTYPE svg PUBLIC "-//W3C//DTD SVG 1.1//EN" "http://www.w3.org/Graphics/SVG/1.1/DTD/svg11.dtd">
<svg version="1.1" id="Ebene_1" xmlns="http://www.w3.org/2000/svg" xmlns:xlink="http://www.w3.org/1999/xlink" x="0px" y="0px"
	 width="421.002px" height="63.78px" viewBox="0 0 421.002 63.78" enable-background="new 0 0 421.002 63.78" xml:space="preserve">
<path d="M62.8,37.28l-2.643-1.222c-4.168,10.267-8.74,16.37-12.503,16.37c-1.627,0-2.544-1.223-2.544-3.354
	c0-1.729,0.104-2.647,1.525-7.829l9.05-33.548h-9.351l-2.848,10.572c-1.627-8.236-4.271-11.488-9.454-11.488
	c-5.896,0-13.215,3.76-18.604,9.656C10.141,22.131,7.09,29.348,7.09,36.159c0,10.777,7.015,19.926,15.352,19.926
	c5.589,0,10.572-3.763,15.148-11.489c0.305,7.524,3.252,11.287,8.639,11.287c3.459,0,6.71-1.729,9.355-5.086
	C58.228,47.445,61.172,41.856,62.8,37.28 M40.842,23.858c0,4.88-1.728,11.485-4.271,16.775c-3.656,7.416-9.249,12.402-13.62,12.402
	c-3.864,0-6.404-3.557-6.404-8.943c0-4.477,1.625-12.405,3.964-18.914c3.456-9.759,8.64-15.551,13.623-15.551
	c3.963,0,6.3,4.469,6.708,12.604V23.858z"/>
<path d="M103.746,15.739c0-5.398-4.271-8.958-10.775-8.958c-6.203,0-13.317,2.54-19.42,7.024
	c-8.335,6.214-13.112,14.47-13.112,22.825c0,10.905,7.524,19.253,17.283,19.253c8.64,0,16.979-6.718,22.874-18.232l-2.643-1.53
	c-5.896,10.699-12.911,16.611-20.03,16.611c-5.285,0-8.232-3.367-8.232-9.273c0-2.346,0.203-4.383,0.916-7.54l1.421-0.207
	c10.574-1.525,16.165-3.257,22.365-6.722C100.39,25.524,103.746,20.836,103.746,15.739 M96.731,15.333
	c0,3.361-2.44,7.849-5.691,10.191c-5.287,3.769-12.914,6.522-19.622,7.131C73.55,20.225,82.6,9.628,91.14,9.628
	C94.595,9.628,96.731,11.866,96.731,15.333"/>
<path d="M152.205,13.584c0-3.754-3.355-6.804-7.521-6.804c-4.981,0-10.98,5.081-15.759,13.092l-1.32,2.23l-1.12,2.029l-0.912,1.622
	l0.203-1.521c0.306-2.635,0.506-4.056,0.506-5.579c0-6.998-3.457-11.67-8.537-11.67c-5.694,0-11.69,6.803-15.146,17.249l2.44,1.016
	l0.608-1.321c4.372-9.332,7.422-13.487,10.979-13.487c1.729,0,2.848,1.521,2.848,3.752c0,1.622-0.204,3.55-0.813,5.68l-9.457,35.296
	h8.747c0.812-3.454,1.219-4.468,2.948-9.744c3.147-9.328,4.472-12.776,8.131-19.471c5.387-9.833,10.575-15.717,14.03-15.717
	c0.917,0,1.525,0.403,1.525,1.217c0,0.408-0.203,0.709-0.608,0.912l-0.917,0.304c-1.223,0.405-2.137,2.029-2.137,3.552
	c0,2.534,2.137,4.463,4.782,4.463C149.157,20.685,152.205,17.439,152.205,13.584"/>
<path d="M195.264,27.314c0-11.184-8.335-20.738-18.094-20.738c-14.438,0-28.062,13.418-28.062,27.548
	c0,12.199,8.032,21.96,18.199,21.96c13.619,0,27.142-13.52,27.853-27.854C195.264,27.924,195.264,27.623,195.264,27.314
	 M186.113,19.895c0,4.472-0.712,8.844-2.44,14.639c-1.627,5.488-3.759,10.062-6.303,13.313c-2.44,3.156-7.015,5.597-10.368,5.597
	c-5.288,0-9.253-4.579-9.253-10.779l0.104-0.508c0.099-4.066,0.915-8.639,2.339-13.52c3.76-12.707,9.556-19.417,16.978-19.417
	C182.961,9.22,186.113,12.983,186.113,19.895"/>
<path fill="#871D55" d="M254.899,42.566l-2.948-2.746c-3.863,6.913-7.117,10.574-9.453,10.574c-0.916,0-1.425-0.713-1.425-1.834
	c0-1.216,0.611-3.151,2.138-6.813c0.604-1.625,1.522-3.862,2.741-6.812c2.848-7.213,3.56-10.264,3.56-14.229
	c0-7.93-5.389-13.623-12.911-13.623c-5.896,0-10.266,2.949-16.67,11.591l2.422-10.956c-11.304,1.106-17.888,1.98-20.742,0.611
	l-1.005,2.532c0,0,6.006,1.739,6.006,4.558c0,0.508-0.104,1.12-0.509,2.644l-9.962,37.105h14.438l4.573-16.979
	c2.136-8.029,4.877-13.724,8.743-18.807c3.557-4.673,6.404-6.911,8.843-6.911c2.036,0,3.356,1.731,3.356,4.471
	c0,2.035-0.509,4.067-2.238,8.54c-5.387,13.623-6.707,17.79-6.707,21.249c0,5.589,4.475,9.961,10.061,9.961
	c3.154,0,6.1-1.118,9.146-3.459c2.956-2.131,4.581-4.37,7.327-8.74L254.899,42.566z"/>
<path fill="#871D55" d="M307.736,28.026c0-11.179-9.757-20.942-21.045-20.942c-16.061,0-31.109,13.623-31.109,28.261
	c0,11.999,9.251,21.349,21.251,21.349C293.198,56.694,307.736,43.274,307.736,28.026 M292.689,17.963
	c0,5.488-1.729,13.724-4.473,21.65c-3.252,9.252-6.812,13.32-11.384,13.32c-3.963,0-6.304-2.745-6.304-7.524
	c0-5.995,1.524-13.012,4.781-21.854c3.146-8.743,6.807-12.81,11.586-12.81C290.555,10.745,292.689,13.388,292.689,17.963"/>
<path fill="#871D55" d="M354.172,17.657c0-6.503-3.152-10.978-7.628-10.978c-3.556,0-6.196,2.744-6.196,6.403
	c0,3.559,2.54,6.203,5.792,6.203c0.305,0,0.712,0,1.021-0.104l1.216-0.304h0.202c0.712,0,1.121,0.811,1.121,2.135
	c0,4.472-2.644,13.01-5.998,18.912c-4.27,7.62-10.063,12.297-15.249,12.297c-2.948,0-4.678-1.727-4.678-4.776
	c0-3.252,1.224-7.929,4.982-19.52c1.118-3.352,1.829-5.592,2.137-6.708l3.557-13.319L312.592,8.51l-0.916,3.656l2.034,0.104
	c2.442,0.1,3.658,1.22,3.658,2.949c0,0.915-0.098,1.523-0.913,4.47l-3.15,11.692c-1.929,7.118-2.036,7.928-2.036,11.184
	c0,8.029,6.509,14.129,15.054,14.129c3.654,0,7.618-1.32,11.178-3.659C346.751,46.733,354.172,31.179,354.172,17.657"/>
<path fill="#871D55" d="M413.912,41.445l-3.15-2.029c-3.763,7.929-7.015,11.891-9.862,11.891c-1.219,0-1.83-0.712-1.83-2.132
	c0-0.509,0.205-1.729,0.611-3.154l10.165-37.614h-14.535l-1.934,7.219c-1.418-5.489-5.284-8.54-10.877-8.54
	c-14.639,0-28.158,14.538-28.158,30.295c0,10.774,7.725,19.313,17.384,19.313c6.201,0,10.977-3.358,15.552-10.876
	c1.223,7.42,4.372,10.876,10.17,10.876C404.151,56.694,409.948,51.306,413.912,41.445 M390.529,21.725
	c-0.101,3.759-1.419,10.266-2.943,14.535c-3.257,9.355-8.743,15.961-13.32,15.961c-2.848,0-4.981-3.147-4.981-7.417l0.104-0.51
	c0.101-4.172,0.912-8.848,2.337-13.726c3.556-11.996,8.438-19.112,13.215-19.112c3.354,0,5.589,3.761,5.589,9.455V21.725z"/>
</svg>
