<?xml version="1.0" encoding="UTF-8" standalone="no"?>
<!-- Created with Inkscape (http://www.inkscape.org/) -->
<svg
   xmlns:svg="http://www.w3.org/2000/svg"
   xmlns="http://www.w3.org/2000/svg"
   version="1.0"
   width="956.69287"
   height="558.07086"
   id="svg2551">
  <defs
     id="defs2553" />
  <g
     transform="translate(2702.8715,-1385.5568)"
     id="layer1">
    <g
       transform="matrix(7.4380626,0,0,7.4380626,-2667.4384,1420.9947)"
       id="g2545">
      <path
         d="M 75.959,15.261 C 72.83,14.494 69.182,16.248 66.454,17.861 C 62.404,20.259 57.429,25.268 54.149,28.966 C 52.916,30.36 45.994,37.112 44.098,36.908 C 42.386,36.724 43.384,34.1 43.189,32.708 C 43.083,31.938 42.871,30.73 42.163,30.443 C 40.908,29.932 39.558,32.521 39.023,33.452 C 38.181,34.905 37.35,36.703 35.693,37.125 C 33.83,37.599 32.43,34.749 31.693,33.165 C 31.046,31.754 27.303,15.4 19.495,16.557 C 19.177,16.604 17.877,16.845 17.877,17.252 C 17.877,17.901 17.877,18.85 17.877,19.5 C 17.877,20.752 17.877,22.004 17.877,23.257 C 22.345,21.996 24.989,25.326 27.32,30.34 C 28.665,33.235 29.696,36.554 30.6,39.673 C 30.907,40.726 30.946,42.283 31.632,43.083 C 32.608,44.221 33.819,43.641 34.666,42.596 C 36.049,40.886 36.998,38.172 39.011,37.327 C 41.103,36.449 40.723,40.559 40.89,41.995 C 40.991,42.821 41.297,43.931 42.162,43.786 C 43.406,43.58 44.309,41.982 45.129,41.014 C 46.116,39.845 47.131,38.71 48.152,37.592 C 52.464,32.882 59.469,26.634 64.55,23.173 C 66.564,21.804 68.912,20.342 71.288,20.342 C 71.712,20.342 72.136,20.401 72.543,20.546 C 73.018,20.711 72.945,20.663 73.224,20.161 C 73.966,18.836 74.703,17.506 75.444,16.179 C 75.619,15.872 75.792,15.568 75.959,15.261"
         id="path5"
         style="fill:#0e417b;fill-rule:evenodd" />
      <path
         d="M 81.152,7.55 C 77.738,6.814 73.766,8.504 70.794,10.063 C 66.381,12.375 60.965,17.211 57.396,20.781 C 56.046,22.125 54.808,23.581 53.425,24.884 C 52.019,26.203 49.71,28.64 47.646,28.448 C 45.777,28.27 46.463,25.308 46.251,23.967 C 46.134,23.222 45.905,22.056 45.13,21.778 C 43.769,21.287 42.297,23.786 41.711,24.684 C 40.791,26.087 40.283,28.251 38.482,28.659 C 36.457,29.119 34.929,26.364 34.131,24.835 C 33.423,23.471 31.537,14.343 28.414,11.605 C 25.932,9.43 22.825,8.409 19.64,9.089 C 19.3,9.161 17.878,9.365 17.878,9.758 C 17.878,10.388 17.878,11.016 17.878,11.646 C 17.878,12.854 17.878,14.064 17.878,15.272 C 22.742,14.056 26.825,17.269 29.362,22.107 C 30.823,24.901 31.956,28.106 32.938,31.115 C 33.272,32.133 33.317,33.634 34.064,34.409 C 35.118,35.505 36.44,34.945 37.366,33.938 C 38.878,32.287 39.904,29.668 42.096,28.851 C 44.377,28.003 43.959,31.972 44.149,33.358 C 44.255,34.152 44.589,35.227 45.532,35.087 C 46.887,34.889 47.874,33.344 48.767,32.41 C 49.844,31.281 50.948,30.187 52.063,29.108 C 56.754,24.559 63.185,18.533 68.725,15.191 C 70.917,13.869 73.477,12.458 76.06,12.458 C 76.523,12.458 76.986,12.514 77.432,12.653 C 77.945,12.815 77.867,12.767 78.174,12.285 C 78.983,11.002 79.785,9.722 80.594,8.442 C 80.778,8.144 80.962,7.845 81.152,7.55"
         id="path7"
         style="fill:#45a6d9;fill-rule:evenodd" />
      <path
         d="M 85.341,0.179 C 81.704,-0.56 77.465,1.133 74.297,2.689 C 69.589,5.004 65.394,8.289 61.585,11.859 C 60.146,13.203 58.83,14.662 57.352,15.964 C 55.852,17.28 53.392,19.72 51.188,19.526 C 49.197,19.347 49.927,16.388 49.704,15.044 C 49.581,14.302 49.336,13.136 48.511,12.857 C 47.055,12.366 45.488,14.865 44.863,15.763 C 43.887,17.165 43.346,19.33 41.422,19.734 C 39.257,20.194 37.634,17.442 36.781,15.91 C 36.023,14.549 32.442,6.966 29.112,4.23 C 26.468,2.055 23.155,1.034 19.758,1.714 C 19.396,1.786 17.879,1.99 17.879,2.386 C 17.879,3.014 17.879,3.641 17.879,4.269 C 17.879,5.479 17.879,6.687 17.879,7.897 C 23.066,6.681 28.99,8.346 31.695,13.185 C 33.257,15.979 34.462,19.184 35.51,22.193 C 35.867,23.211 35.911,24.711 36.709,25.484 C 37.835,26.583 39.247,26.023 40.229,25.013 C 41.841,23.362 42.94,20.743 45.277,19.929 C 47.703,19.081 47.263,23.05 47.464,24.433 C 47.581,25.231 47.933,26.305 48.942,26.165 C 50.387,25.967 51.436,24.422 52.389,23.488 C 53.533,22.359 54.709,21.265 55.903,20.183 C 60.901,15.637 66.194,11.159 72.09,7.817 C 74.433,6.495 77.16,5.084 79.921,5.084 C 80.412,5.084 80.908,5.14 81.383,5.279 C 81.929,5.441 81.846,5.394 82.169,4.911 C 83.028,3.628 83.887,2.348 84.752,1.065 C 84.944,0.77 85.146,0.474 85.341,0.179"
         id="path9"
         style="fill:#0e417b;fill-rule:evenodd" />
      <path
         d="M 27.84375,48.46875 C 26.41475,48.46875 25.2855,48.716998 24.4375,49.25 C 23.3555,49.937 22.53175,50.94925 21.96875,52.28125 C 21.40575,53.61325 21.124999,55.169749 21.125,56.96875 C 21.125,58.67475 21.362001,60.215248 21.875,61.53125 C 22.388,62.85425 23.1255,63.830002 24.0625,64.5 C 24.9945,65.162 26.209501,65.5 27.6875,65.5 C 28.8925,65.5 29.9375,65.312499 30.8125,64.9375 C 31.6885,64.5695 32.699751,63.869751 33.84375,62.84375 L 33.84375,55.8125 L 27.875,55.8125 L 27.875,59.25 L 30.46875,59.25 L 30.46875,60.8125 C 29.96075,61.2135 29.515999,61.48925 29.125,61.65625 C 28.927,61.73975 28.70625,61.802125 28.5,61.84375 C 28.29375,61.885375 28.09,61.90625 27.875,61.90625 C 26.966,61.90625 26.258,61.520002 25.75,60.75 C 25.237,59.992 25,58.722502 25,56.9375 C 25,55.2565 25.222751,54.024001 25.71875,53.25 C 26.22075,52.474 26.908001,52.093749 27.75,52.09375 C 28.314,52.09375 28.79325,52.269749 29.15625,52.59375 C 29.4285,52.836 29.628672,53.157687 29.78125,53.5625 C 29.832109,53.697438 29.86875,53.816 29.90625,53.96875 L 33.65625,53.125 C 33.42725,52.062 33.076998,51.191 32.625,50.5 C 32.174,49.806 31.6235,49.269499 30.9375,48.9375 C 30.2575,48.6095 29.220751,48.468749 27.84375,48.46875 z M 4.6875,48.71875 L 2.1875,57.4375 L 5.71875,57.4375 L 6.75,53 L 8.125,58.96875 L 0.28125,58.9375 L 1.4375,60.09375 L 0,65.21875 L 3.9375,65.21875 L 4.5625,62.5 L 8.9375,62.5 L 9.5625,65.21875 L 13.59375,65.21875 L 8.90625,48.71875 L 4.6875,48.71875 z M 14.96875,48.71875 L 14.96875,65.21875 L 18.84375,65.21875 L 18.84375,48.71875 L 14.96875,48.71875 z M 36.125,48.71875 L 36.125,65.21875 L 46,65.21875 L 46,61.15625 L 40,61.15625 L 40,48.71875 L 36.125,48.71875 z M 47.75,48.71875 L 47.75,65.21875 L 58.25,65.21875 L 58.25,61.5 L 51.625,61.5 L 51.625,58.21875 L 57.625,58.21875 L 57.625,54.84375 L 51.625,54.84375 L 51.625,52.21875 L 58.09375,52.21875 L 58.09375,48.71875 L 47.75,48.71875 z M 69.5625,48.71875 L 67.0625,57.4375 L 70.59375,57.4375 L 71.625,53 L 73,58.96875 L 65.15625,58.9375 L 66.3125,60.09375 L 64.875,65.21875 L 68.8125,65.21875 L 69.4375,62.5 L 73.8125,62.5 L 74.4375,65.21875 L 78.46875,65.21875 L 73.78125,48.71875 L 69.5625,48.71875 z M 79.375,48.71875 L 79.375,52.21875 L 85.59375,52.21875 L 78.6875,61.78125 L 78.6875,65.21875 L 90.53125,65.21875 L 90.53125,61.6875 L 83.28125,61.6875 L 90.25,52 L 90.25,48.71875 L 79.375,48.71875 z M 92.28125,48.71875 L 92.28125,58.5625 C 92.28125,59.3695 92.416252,60.294749 92.65625,61.34375 C 92.80025,61.99775 93.068752,62.636999 93.46875,63.25 C 93.86475,63.863 94.30225,64.322248 94.78125,64.65625 C 95.02175,64.82375 95.294,64.982 95.59375,65.09375 C 95.743625,65.149625 95.898094,65.176906 96.0625,65.21875 C 96.226906,65.260594 96.383751,65.316 96.5625,65.34375 C 97.2805,65.45475 97.953503,65.5 98.5625,65.5 C 99.6055,65.5 100.502,65.305502 101.25,64.9375 C 101.785,64.6735 102.29125,64.247749 102.78125,63.59375 C 103.27125,62.94675 103.646,62.171502 103.875,61.3125 C 104.104,60.4425 104.21875,59.5335 104.21875,58.5625 L 104.21875,48.71875 L 100.40625,48.71875 L 100.40625,58.78125 C 100.40625,59.69625 100.1975,60.384 99.8125,60.875 C 99.4345,61.377 98.918002,61.624999 98.25,61.625 C 97.574,61.625 97.066497,61.384002 96.6875,60.875 C 96.3085,60.373 96.093747,59.678249 96.09375,58.78125 L 96.09375,48.71875 L 92.28125,48.71875 z M 106.84375,48.71875 L 106.84375,65.21875 L 110.71875,65.21875 L 110.71875,58.53125 L 111.0625,58.53125 C 111.4145,58.53125 111.727,58.685501 112,58.9375 C 112.199,59.1315 112.4295,59.534501 112.6875,60.1875 L 114.75,65.21875 L 119.09375,65.21875 L 117.1875,60.46875 C 117.0975,60.22775 116.92425,59.8765 116.65625,59.4375 C 116.38925,58.9915 116.2015,58.703499 116.0625,58.5625 C 115.8555,58.3615 115.5195,58.174751 115.0625,57.96875 C 115.6365,57.79475 116.07225,57.578501 116.40625,57.3125 C 116.92625,56.8995 117.36125,56.352499 117.65625,55.6875 C 117.95325,55.0225 118.09375,54.229501 118.09375,53.3125 C 118.09375,52.2635 117.885,51.387252 117.5,50.65625 C 117.116,49.92125 116.631,49.394998 116,49.125 C 115.369,48.855 114.438,48.718751 113.25,48.71875 L 106.84375,48.71875 z M 110.71875,52.03125 L 112.40625,52.03125 C 113.11025,52.03125 113.58575,52.182748 113.84375,52.46875 C 114.09975,52.75475 114.21875,53.185748 114.21875,53.71875 C 114.21875,54.07975 114.13075,54.377249 113.96875,54.65625 C 113.80675,54.93525 113.59575,55.118501 113.34375,55.1875 C 112.83575,55.3395 112.51575,55.406251 112.34375,55.40625 L 110.71875,55.40625 L 110.71875,52.03125 z"
         id="polygon17"
         style="fill:#0e417b;fill-rule:evenodd" />
    </g>
  </g>
</svg>
