<?xml version="1.0" encoding="UTF-8" standalone="no"?>
<!-- Generator: Adobe Illustrator 12.0.0, SVG Export Plug-In  -->

<svg
   xmlns:dc="http://purl.org/dc/elements/1.1/"
   xmlns:cc="http://creativecommons.org/ns#"
   xmlns:rdf="http://www.w3.org/1999/02/22-rdf-syntax-ns#"
   xmlns:svg="http://www.w3.org/2000/svg"
   xmlns="http://www.w3.org/2000/svg"
   xmlns:sodipodi="http://sodipodi.sourceforge.net/DTD/sodipodi-0.dtd"
   xmlns:inkscape="http://www.inkscape.org/namespaces/inkscape"
   version="1.1"
   width="197"
   height="45"
   viewBox="-0.8935547 -0.1264648 197 45.000001"
   enable-background="new -0.8935547 -0.1264648 501 122"
   xml:space="preserve"
   id="svg2"
   inkscape:version="0.48.4 r9939"
   sodipodi:docname="Air_Anatolia_logo.svg"><title
   id="title2996">Air Anatolia logo</title><metadata
   id="metadata38"><rdf:RDF><cc:Work
       rdf:about=""><dc:format>image/svg+xml</dc:format><dc:type
         rdf:resource="http://purl.org/dc/dcmitype/StillImage" /><dc:title>Air Anatolia logo</dc:title></cc:Work></rdf:RDF></metadata><sodipodi:namedview
   pagecolor="#ffffff"
   bordercolor="#666666"
   borderopacity="1"
   objecttolerance="10"
   gridtolerance="10"
   guidetolerance="10"
   inkscape:pageopacity="0"
   inkscape:pageshadow="2"
   inkscape:window-width="1600"
   inkscape:window-height="844"
   id="namedview36"
   showgrid="false"
   fit-margin-top="0"
   fit-margin-left="0"
   fit-margin-right="0"
   fit-margin-bottom="0"
   inkscape:zoom="1"
   inkscape:cx="102.18536"
   inkscape:cy="13.292994"
   inkscape:window-x="-4"
   inkscape:window-y="-4"
   inkscape:window-maximized="1"
   inkscape:current-layer="svg2" />
<defs
   id="defs4">
</defs>
<path
   clip-rule="evenodd"
   d="m 26.567836,34.994304 h 9.799957 L 16.055548,7.511103 H 8.3281308 l 5.6900862,21.869513 -0.0047,-0.0089 c 0.697809,-2.315833 2.810531,-3.997386 5.30836,-3.997386 2.29712,0 4.197993,1.412034 5.014557,3.428358 0.277492,0.684942 2.231476,6.191633 2.231476,6.191633 z"
   id="path6"
   inkscape:connector-curvature="0"
   style="fill:#160a61;fill-rule:evenodd" />
<path
   clip-rule="evenodd"
   d="m 23.439631,31.03015 c 0,2.314214 -1.841595,4.191118 -4.117829,4.191118 -2.268475,0 -4.108478,-1.876904 -4.108478,-4.191118 0,-2.315428 1.840003,-4.188278 4.108478,-4.188278 2.276234,0 4.117829,1.87285 4.117829,4.188278 z"
   id="path8"
   inkscape:connector-curvature="0"
   style="fill:#f4110b;fill-rule:evenodd" />
<path
   clip-rule="evenodd"
   d="m 53.961011,25.560341 -4.759736,-0.542279 c 0.184591,-0.881712 0.438015,-1.577191 0.778168,-2.085427 0.33836,-0.504182 0.826113,-0.949394 1.459666,-1.319627 0.457318,-0.268911 1.086108,-0.477231 1.883371,-0.623541 0.795678,-0.14935 1.661975,-0.221288 2.589135,-0.221288 1.49508,0 2.690182,0.09058 3.596662,0.266276 0.903095,0.178935 1.653812,0.545117 2.258722,1.109686 0.423505,0.388067 0.757088,0.938047 1.002557,1.651359 0.242284,0.714124 0.367403,1.394 0.367403,2.046113 v 6.080178 c 0,0.648872 0.03681,1.158728 0.112195,1.525518 0.07697,0.369219 0.245461,0.836925 0.510226,1.40798 h -4.666652 c -0.185983,-0.352198 -0.306333,-0.621716 -0.365811,-0.803286 -0.05607,-0.184813 -0.115372,-0.475407 -0.168281,-0.866109 -0.654648,0.665084 -1.302726,1.13887 -1.949212,1.425005 -0.879029,0.375299 -1.907436,0.567813 -3.073503,0.567813 -1.54978,0 -2.72718,-0.383812 -3.534198,-1.142922 -0.802041,-0.761541 -1.20625,-1.699791 -1.20625,-2.813531 0,-1.05092 0.290423,-1.909327 0.869482,-2.582921 0.579052,-0.677241 1.650627,-1.177371 3.209963,-1.504846 1.867246,-0.397185 3.081651,-0.677646 3.639822,-0.837736 0.553587,-0.160902 1.140602,-0.370031 1.761429,-0.628202 0,-0.654748 -0.126712,-1.113942 -0.378543,-1.372924 -0.253425,-0.260603 -0.697809,-0.393942 -1.33157,-0.393942 -0.817951,0 -1.427638,0.140636 -1.835025,0.420894 -0.31768,0.220681 -0.576074,0.632457 -0.77002,1.237759 z m 4.315158,2.771786 c -0.686469,0.262224 -1.400388,0.492025 -2.143157,0.687375 -1.015482,0.290593 -1.655605,0.569434 -1.923355,0.846247 -0.279274,0.287758 -0.417126,0.614828 -0.417126,0.975131 0,0.419071 0.136259,0.758299 0.410564,1.024576 0.271127,0.262223 0.675528,0.395564 1.20645,0.395564 0.553386,0 1.071575,-0.144688 1.54958,-0.429204 0.47482,-0.28735 0.816559,-0.636305 1.015482,-1.04646 0.202101,-0.415425 0.301562,-0.950408 0.301562,-1.606575 v -0.846654 z"
   id="path10"
   inkscape:connector-curvature="0"
   style="fill:#160a61;fill-rule:evenodd" />
<path
   clip-rule="evenodd"
   d="m 65.668401,15.867803 h 4.960059 v 3.565955 h -4.960059 v -3.565955 z m 0,5.225621 H 70.62846 V 34.855289 H 65.668401 V 21.093424 z"
   id="path12"
   inkscape:connector-curvature="0"
   style="fill:#160a61;fill-rule:evenodd" />
<path
   clip-rule="evenodd"
   d="m 73.233705,21.093424 h 4.650537 v 2.254432 c 0.449155,-0.983843 0.91105,-1.655613 1.384278,-2.025645 0.476612,-0.369423 1.062027,-0.554032 1.756658,-0.554032 0.734808,0 1.535256,0.246619 2.40473,0.737021 l -1.53844,3.759481 c -0.582237,-0.261412 -1.045917,-0.388877 -1.382886,-0.388877 -0.652855,0 -1.154926,0.284312 -1.512582,0.856381 -0.511818,0.804097 -0.765243,2.305701 -0.765243,4.507244 v 4.61586 H 73.233705 V 21.093424 z"
   id="path14"
   inkscape:connector-curvature="0"
   style="fill:#160a61;fill-rule:evenodd" />
<path
   clip-rule="evenodd"
   d="m 95.910503,25.560341 -4.75815,-0.542279 c 0.179828,-0.881712 0.436429,-1.577191 0.77499,-2.085427 0.339953,-0.504182 0.824521,-0.949394 1.462859,-1.319627 0.455717,-0.268911 1.082915,-0.477231 1.878586,-0.623541 0.798863,-0.14935 1.661975,-0.221288 2.59232,-0.221288 1.490302,0 2.690182,0.09058 3.591682,0.266276 0.90827,0.178935 1.6574,0.545117 2.26052,1.109686 0.42649,0.388067 0.76027,0.938047 1.00255,1.651359 0.24706,0.714124 0.36721,1.394 0.36721,2.046113 v 6.080178 c 0,0.648872 0.0401,1.158728 0.11736,1.525518 0.0768,0.369219 0.24547,0.836925 0.50685,1.40798 h -4.66346 c -0.18758,-0.352198 -0.30793,-0.621716 -0.36721,-0.803286 -0.0595,-0.184813 -0.11398,-0.475407 -0.17167,-0.866109 -0.654637,0.665084 -1.302715,1.13887 -1.949208,1.425005 -0.880615,0.375299 -1.904051,0.567813 -3.070318,0.567813 -1.552966,0 -2.730365,-0.383812 -3.532413,-1.142922 -0.808603,-0.761541 -1.208035,-1.699791 -1.208035,-2.813531 0,-1.05092 0.290422,-1.909327 0.869482,-2.582921 0.579052,-0.677241 1.650627,-1.177371 3.209955,-1.504846 1.870438,-0.397185 3.081658,-0.677646 3.636645,-0.837736 0.556772,-0.160902 1.143786,-0.370031 1.764612,-0.628202 0,-0.654748 -0.12512,-1.113942 -0.378542,-1.372924 -0.253424,-0.260603 -0.700994,-0.393942 -1.334747,-0.393942 -0.814773,0 -1.424461,0.140636 -1.831847,0.420894 -0.317681,0.220681 -0.574282,0.632457 -0.770021,1.237759 z m 4.315157,2.771786 c -0.686467,0.262224 -1.401979,0.492025 -2.146341,0.687375 -1.012297,0.290593 -1.655605,0.569434 -1.921761,0.846247 -0.280868,0.287758 -0.41872,0.614828 -0.41872,0.975131 0,0.419071 0.137852,0.758299 0.410572,1.024576 0.274304,0.262223 0.673736,0.395564 1.206442,0.395564 0.558172,0 1.07476,-0.144688 1.552766,-0.429204 0.476613,-0.28735 0.814966,-0.636305 1.015481,-1.04646 0.198921,-0.415425 0.301561,-0.950408 0.301561,-1.606575 v -0.846654 z"
   id="path16"
   inkscape:connector-curvature="0"
   style="fill:#160a61;fill-rule:evenodd" />
<path
   clip-rule="evenodd"
   d="m 107.41242,21.093424 h 4.6185 v 2.238829 c 0.69463,-0.919201 1.39562,-1.577798 2.10616,-1.972552 0.70934,-0.394552 1.57544,-0.591522 2.5959,-0.591522 1.37771,0 2.45744,0.432242 3.2388,1.305645 0.77618,0.865296 1.16606,2.212079 1.16606,4.024338 v 8.757127 h -4.99366 v -7.57165 c 0,-0.864486 -0.15079,-1.476475 -0.45553,-1.835969 -0.30355,-0.357872 -0.73003,-0.538429 -1.27547,-0.538429 -0.6079,0 -1.09724,0.242769 -1.47439,0.728106 -0.37834,0.482701 -0.56453,1.353267 -0.56453,2.606427 v 6.611515 h -4.96184 V 21.093424 z"
   id="path18"
   inkscape:connector-curvature="0"
   style="fill:#160a61;fill-rule:evenodd" />
<path
   clip-rule="evenodd"
   d="m 128.02006,25.560341 -4.75656,-0.542279 c 0.17783,-0.881712 0.43961,-1.577191 0.77658,-2.085427 0.33657,-0.504182 0.82432,-0.949394 1.46126,-1.319627 0.45393,-0.268911 1.07973,-0.477231 1.88019,-0.623541 0.79885,-0.14935 1.66336,-0.221288 2.59231,-0.221288 1.48871,0 2.6886,0.09058 3.5901,0.266276 0.90946,0.178935 1.657,0.545117 2.26211,1.109686 0.42648,0.388067 0.75868,0.938047 1.00414,1.651359 0.24228,0.714124 0.36721,1.394 0.36721,2.046113 v 6.080178 c 0,0.648872 0.0354,1.158728 0.11378,1.525518 0.0756,0.369219 0.24387,0.836925 0.50565,1.40798 h -4.66187 c -0.18778,-0.352198 -0.30952,-0.621716 -0.36601,-0.803286 -0.0561,-0.184813 -0.11537,-0.475407 -0.17147,-0.866109 -0.65285,0.665084 -1.30571,1.13887 -1.94742,1.425005 -0.884,0.375299 -1.90724,0.567813 -3.07529,0.567813 -1.55277,0 -2.73037,-0.383812 -3.53241,-1.142922 -0.80364,-0.761541 -1.20784,-1.699791 -1.20784,-2.813531 0,-1.05092 0.29042,-1.909327 0.87087,-2.582921 0.57766,-0.677241 1.65063,-1.177371 3.20857,-1.504846 1.87183,-0.397185 3.08325,-0.677646 3.63664,-0.837736 0.55817,-0.160902 1.14697,-0.370031 1.766,-0.628202 0,-0.654748 -0.12492,-1.113942 -0.37994,-1.372924 -0.25342,-0.260603 -0.69621,-0.393942 -1.33634,-0.393942 -0.8084,0 -1.42147,0.140636 -1.82886,0.420894 -0.31906,0.220681 -0.57766,0.632457 -0.7714,1.237759 z m 4.31654,2.771786 c -0.68627,0.262224 -1.40198,0.492025 -2.14952,0.687375 -1.00573,0.290593 -1.65222,0.569434 -1.91997,0.846247 -0.27928,0.287758 -0.41893,0.614828 -0.41893,0.975131 0,0.419071 0.13965,0.758299 0.41217,1.024576 0.27451,0.262223 0.67712,0.395564 1.20823,0.395564 0.55499,0 1.07298,-0.144688 1.54958,-0.429204 0.47782,-0.28735 0.81637,-0.636305 1.01529,-1.04646 0.2021,-0.415425 0.30315,-0.950408 0.30315,-1.606575 v -0.846654 z"
   id="path20"
   inkscape:connector-curvature="0"
   style="fill:#160a61;fill-rule:evenodd" />
<path
   clip-rule="evenodd"
   d="m 145.1108,15.867803 v 5.225621 h 2.75146 v 3.852698 h -2.75146 v 4.883152 c 0,0.581593 0.0513,0.972293 0.15715,1.161969 0.1655,0.295457 0.44756,0.440147 0.85535,0.440147 0.36721,0 0.88041,-0.11105 1.54163,-0.335582 l 0.36561,3.654916 c -1.2337,0.282488 -2.38067,0.427988 -3.45204,0.427988 -1.23689,0 -2.14833,-0.17306 -2.74191,-0.509857 -0.58045,-0.33396 -1.01687,-0.845437 -1.30093,-1.532812 -0.27888,-0.687373 -0.42012,-1.801924 -0.42012,-3.337977 v -4.851944 h -1.83682 v -3.852698 h 1.83682 v -2.523343 l 4.99526,-2.702278 z"
   id="path22"
   inkscape:connector-curvature="0"
   style="fill:#160a61;fill-rule:evenodd" />
<path
   clip-rule="evenodd"
   d="m 148.9579,28.011948 c 0,-2.105083 0.66877,-3.834866 2.00511,-5.199481 1.33952,-1.364413 3.14094,-2.044288 5.41896,-2.044288 2.60027,0 4.564,0.799842 5.89039,2.399728 1.07019,1.292879 1.60449,2.877973 1.60449,4.765414 0,2.118863 -0.6644,3.859994 -1.9892,5.213261 -1.3236,1.353267 -3.15565,2.03213 -5.49613,2.03213 -2.08707,0 -3.77628,-0.561329 -5.0629,-1.687228 -1.57822,-1.395012 -2.37072,-3.222875 -2.37072,-5.479536 z m 4.99845,-0.01054 c 0,1.229652 0.23114,2.136693 0.69939,2.728014 0.46866,0.585241 1.05866,0.881104 1.76959,0.881104 0.71531,0 1.30253,-0.286946 1.76442,-0.870161 0.46228,-0.579566 0.68985,-1.509305 0.68985,-2.787998 0,-1.19723 -0.23114,-2.085222 -0.69622,-2.669652 -0.46189,-0.585849 -1.03955,-0.877659 -1.72463,-0.877659 -0.72327,0 -1.3248,0.299105 -1.79345,0.890628 -0.47463,0.592535 -0.70895,1.493903 -0.70895,2.705724 z"
   id="path24"
   inkscape:connector-curvature="0"
   style="fill:#160a61;fill-rule:evenodd" />
<path
   clip-rule="evenodd"
   d="m 165.79523,15.867803 h 4.99406 v 18.987486 h -4.99406 V 15.867803 z"
   id="path26"
   inkscape:connector-curvature="0"
   style="fill:#160a61;fill-rule:evenodd" />
<path
   clip-rule="evenodd"
   d="m 173.53239,15.867803 h 4.96025 v 3.565955 h -4.96025 v -3.565955 z m 0,5.225621 h 4.96025 v 13.761865 h -4.96025 V 21.093424 z"
   id="path28"
   inkscape:connector-curvature="0"
   style="fill:#160a61;fill-rule:evenodd" />
<path
   clip-rule="evenodd"
   d="m 185.5861,25.560341 -4.75973,-0.542279 c 0.18141,-0.881712 0.4412,-1.577191 0.77498,-2.085427 0.34015,-0.504182 0.8295,-0.949394 1.46285,-1.319627 0.45434,-0.268911 1.08292,-0.477231 1.88496,-0.623541 0.79409,-0.14935 1.65899,-0.221288 2.58595,-0.221288 1.4919,0 2.68701,0.09058 3.59527,0.266276 0.90309,0.178935 1.65859,0.545117 2.25694,1.109686 0.42688,0.388067 0.76345,0.938047 1.00733,1.651359 0.24069,0.714124 0.3676,1.394 0.3676,2.046113 v 6.080178 c 0,0.648872 0.035,1.158728 0.11378,1.525518 0.0768,0.369219 0.24547,0.836925 0.50526,1.40798 h -4.66347 c -0.1842,-0.352198 -0.30633,-0.621716 -0.36561,-0.803286 -0.0577,-0.184813 -0.11219,-0.475407 -0.16988,-0.866109 -0.65325,0.665084 -1.30611,1.13887 -1.94781,1.425005 -0.87883,0.375299 -1.90724,0.567813 -3.0749,0.567813 -1.55157,0 -2.72877,-0.383812 -3.53081,-1.142922 -0.80722,-0.761541 -1.20824,-1.699791 -1.20824,-2.813531 0,-1.05092 0.29042,-1.909327 0.86808,-2.582921 0.58045,-0.677241 1.65222,-1.177371 3.20976,-1.504846 1.86904,-0.397185 3.08325,-0.677646 3.63664,-0.837736 0.56016,-0.160902 1.14379,-0.370031 1.76482,-0.628202 0,-0.654748 -0.12851,-1.113942 -0.37715,-1.372924 -0.25343,-0.260603 -0.69622,-0.393942 -1.33316,-0.393942 -0.81796,0 -1.42585,0.140636 -1.83165,0.420894 -0.32105,0.220681 -0.57766,0.632457 -0.77181,1.237759 z m 4.31377,2.771786 c -0.68826,0.262224 -1.39562,0.492025 -2.14316,0.687375 -1.01568,0.290593 -1.6574,0.569434 -1.92355,0.846247 -0.28048,0.287758 -0.42012,0.614828 -0.42012,0.975131 0,0.419071 0.13964,0.758299 0.41217,1.024576 0.2741,0.262223 0.6787,0.395564 1.20943,0.395564 0.55339,0 1.07177,-0.144688 1.54798,-0.429204 0.47821,-0.28735 0.81835,-0.636305 1.01569,-1.04646 0.2021,-0.415425 0.30156,-0.950408 0.30156,-1.606575 v -0.846654 z"
   id="path30"
   inkscape:connector-curvature="0"
   style="fill:#160a61;fill-rule:evenodd" />
<path
   clip-rule="evenodd"
   d="m 43.005931,22.297747 c 0,12.033906 -9.57538,21.786024 -21.387008,21.786024 -11.8148109,0 -21.38859714,-9.752118 -21.38859714,-21.786024 0,-12.031271 9.57378624,-21.78764286 21.38859714,-21.78764286 11.811628,0 21.387008,9.75637186 21.387008,21.78764286 z M 21.618923,1.1605972 c -11.460336,0 -20.75026514,9.4637498 -20.75026514,21.1371498 0,11.677655 9.28992914,21.138784 20.75026514,21.138784 11.457154,0 20.746884,-9.461129 20.746884,-21.138784 0,-11.6734 -9.28973,-21.1371498 -20.746884,-21.1371498 z"
   id="path32"
   inkscape:connector-curvature="0"
   style="fill:#160a61;fill-rule:evenodd" />
<rect
   width="203.69336"
   height="50.204029"
   id="rect34"
   x="-4.0416656"
   y="-2.8041663"
   style="opacity:0;fill:#ffffff" />
</svg>