<?xml version="1.0" encoding="UTF-8" standalone="no"?>
<!-- Created with Inkscape (http://www.inkscape.org/) -->

<svg
   width="100"
   height="34"
   viewBox="0 0 26.458333 8.9958338"
   version="1.1"
   id="svg5"
   inkscape:version="1.1 (c68e22c387, 2021-05-23)"
   sodipodi:docname="Air Kasaï logo.svg"
   xmlns:inkscape="http://www.inkscape.org/namespaces/inkscape"
   xmlns:sodipodi="http://sodipodi.sourceforge.net/DTD/sodipodi-0.dtd"
   xmlns="http://www.w3.org/2000/svg"
   xmlns:svg="http://www.w3.org/2000/svg"
   xmlns:rdf="http://www.w3.org/1999/02/22-rdf-syntax-ns#"
   xmlns:cc="http://creativecommons.org/ns#"
   xmlns:dc="http://purl.org/dc/elements/1.1/">
  <title
     id="title7982">Air India Express logo</title>
  <sodipodi:namedview
     id="namedview7"
     pagecolor="#ffffff"
     bordercolor="#111111"
     borderopacity="1"
     inkscape:pageshadow="0"
     inkscape:pageopacity="0"
     inkscape:pagecheckerboard="1"
     inkscape:document-units="px"
     showgrid="false"
     objecttolerance="1"
     gridtolerance="1"
     guidetolerance="1"
     units="px"
     inkscape:zoom="8"
     inkscape:cx="76.6875"
     inkscape:cy="26.5"
     inkscape:window-width="1366"
     inkscape:window-height="746"
     inkscape:window-x="-8"
     inkscape:window-y="-8"
     inkscape:window-maximized="1"
     inkscape:current-layer="g10"
     height="34px" />
  <defs
     id="defs2" />
  <g
     inkscape:label="Capa 1"
     inkscape:groupmode="layer"
     id="layer1">
    <g
       transform="matrix(0.04592501,0,0,-0.04592501,0.2823509,21.177272)"
       id="g10">
      <path
         id="path6791"
         style="fill:#e41b47;fill-opacity:1;stroke-width:1.90933"
         d="m 94.094626,458.87289 -6.69012,-12.70154 c -3.67876,-6.98627 -6.68639,-12.77972 -6.68639,-12.87308 0,-0.0934 4.72787,-0.16417 10.50878,-0.16035 l 10.512524,0.007 2.41277,4.06852 c 1.32678,2.23775 2.47236,4.06861 2.54702,4.06479 0.0746,-0.003 1.45373,-1.83652 3.06538,-4.07225 l 2.93112,-4.06479 10.2813,-0.007 10.28505,-0.004 -2.28971,2.48362 c -1.25932,1.3664 -2.82134,3.07596 -3.47185,3.80002 l -1.18215,1.31639 0.83161,0.16035 c 2.61984,0.50334 4.37686,1.02328 5.09404,1.50659 1.07392,0.7237 3.11503,3.83345 5.07538,7.73055 1.28364,2.55183 1.61204,3.44984 1.70051,4.67265 0.13541,1.87219 -0.22816,2.50435 -1.91306,3.33396 l -1.22317,0.60413 -20.89452,0.0671 z m -28.58405,-0.007 -2.18156,-4.01258 c -1.20104,-2.20725 -3.06922,-5.61939 -4.15057,-7.5814 -1.08134,-1.96201 -2.43114,-4.42705 -2.99824,-5.47814 -0.86125,-1.5962 -4.30861,-7.82984 -4.68756,-8.4764 -0.0625,-0.10653 4.67928,-0.16345 10.53489,-0.12679 l 10.64676,0.0671 2.5694,4.71367 c 1.41438,2.59265 4.54577,8.31048 6.95489,12.70526 2.40911,4.39481 4.37804,8.03376 4.37804,8.08856 0,0.0546 -4.73803,0.1007 -10.53116,0.1007 z m 136.808164,0 -5.92565,-11.277 c -3.2581,-6.20134 -6.32102,-11.99161 -6.80572,-12.86935 l -0.88009,-1.59608 8.71505,0.0672 8.7188,0.0671 2.60668,4.44517 c 1.43445,2.44566 2.71227,4.4806 2.8379,4.51975 0.12563,0.0391 1.29533,-1.99243 2.59923,-4.51229 l 2.37175,-4.57942 h 10.41929 10.41929 l 1.2008,2.23004 c 0.66047,1.22625 1.62617,2.97487 2.14425,3.88579 0.51807,0.91094 1.43321,2.57073 2.03613,3.69188 0.60291,1.12114 2.26744,4.16087 3.69561,6.75351 1.42818,2.59267 3.13704,5.71744 3.80002,6.94371 l 1.20452,2.23004 h -8.65166 -8.65167 l -3.01316,-4.99335 c -2.37805,-3.94271 -3.06549,-4.91549 -3.27794,-4.62044 -0.14797,0.20547 -1.41384,2.45278 -2.8118,4.99335 l -2.54328,4.62043 h -10.10605 z m 57.14572,0 -0.67124,-1.21199 c -0.3677,-0.66553 -1.01151,-1.83961 -1.432,-2.61041 -4.37092,-8.01166 -11.17237,-20.43228 -11.55295,-21.09589 l -0.48106,-0.83906 23.12081,0.0746 23.12084,0.0746 1.51777,0.76447 c 1.98162,0.99897 3.13443,2.17045 5.09404,5.17609 1.80667,2.77105 5.43886,9.31975 7.30915,13.1714 1.17117,2.41199 1.62256,4.21368 0.94722,3.7963 -0.18921,-0.11691 -0.22576,-0.0682 -0.10062,0.13425 0.25452,0.41176 -1.01174,1.75606 -2.08459,2.21512 -0.67512,0.28888 -4.70194,0.35077 -22.80385,0.35054 z m 90.615,0 -3.05418,-3.63221 c -1.67877,-1.99703 -4.16925,-4.94796 -5.53409,-6.5596 -1.36483,-1.61165 -4.1182,-4.88197 -6.11957,-7.26442 -2.00139,-2.38243 -4.38489,-5.20492 -5.29914,-6.27618 -1.45861,-1.70909 -1.60015,-1.96479 -1.15605,-2.08088 0.27841,-0.0729 2.53035,-0.15062 5.00828,-0.16781 2.47792,-0.0181 4.56002,-0.085 4.62418,-0.14917 0.0641,-0.0641 2.07777,-0.11562 4.475,-0.11562 h 4.35939 l 1.59234,1.91307 1.59609,1.90933 h 4.7062 c 2.58829,0 4.70622,-0.0638 4.70622,-0.14171 0,-0.0779 -0.34,-0.82275 -0.75329,-1.65575 l -0.74957,-1.51404 h 9.76668 9.76296 l 0.81297,2.99452 c 0.44632,1.64668 1.42519,5.22897 2.17782,7.96177 2.79771,10.15887 3.6838,13.39484 3.84477,14.0776 l 0.164,0.70109 h -17.46741 z m -314.383564,-0.0112 -17.534534,-0.0149 -4.07598,-4.88521 C 9.6917262,448.69111 1.7935501,439.31055 -1.3831959,435.58099 c -1.079713,-1.2676 -1.902545,-2.36718 -1.827292,-2.44261 0.07522,-0.0754 2.39369203,-0.20026 5.14998,-0.27968 2.756288,-0.0794 6.9737681,-0.16442 9.3751199,-0.19019 4.269702,-0.0458 4.37726,-0.0349 4.750956,0.52581 0.362971,0.54454 0.677681,0.92558 2.11444,2.54702 l 0.62277,0.70108 h 4.709938 c 2.59157,0 4.71366,-0.0601 4.71366,-0.13424 0,-0.0741 -0.34576,-0.81888 -0.7682,-1.65575 l -0.76822,-1.52151 h 9.77042 9.77042 l 0.26103,1.08147 c 0.21842,0.90661 6.20503,22.83601 6.60809,24.20601 0.12406,0.42169 -0.82043,0.44777 -17.40402,0.43631 z m 144.068854,-0.041 c -3.78447,-0.006 -6.50313,-0.0579 -6.57825,-0.13798 -0.18235,-0.19419 -5.7358,-10.23991 -8.01397,-14.49526 -0.66579,-1.24359 -1.63644,-3.00468 -2.15547,-3.91562 -0.51902,-0.91092 -1.59942,-2.89014 -2.40158,-4.39668 l -1.4581,-2.73721 h 10.57218 10.57218 l 1.33878,2.48363 c 0.73575,1.36639 1.5599,2.88439 1.83474,3.37489 0.27487,0.4905 1.28025,2.32792 2.23004,4.0797 0.94985,1.7518 3.27714,5.99383 5.17236,9.42734 l 3.44576,6.24263 -10.47896,0.0672 c -1.44049,0.009 -2.81823,0.009 -4.07971,0.007 z m 143.24844,0 c -3.80663,-0.006 -6.50946,-0.0579 -6.53724,-0.13798 -0.0368,-0.10667 -3.11007,-5.72774 -6.8281,-12.4927 -3.71802,-6.76497 -6.82698,-12.46827 -6.90642,-12.67543 -0.1262,-0.32867 1.19818,-0.37865 10.39319,-0.37292 l 10.53862,0.007 4.20651,7.67835 c 2.31237,4.22277 4.79602,8.77642 5.52288,10.12095 0.72688,1.34453 1.99716,3.64864 2.81926,5.12015 l 1.49166,2.67754 -10.58337,0.0672 c -1.45571,0.009 -2.84813,0.009 -4.11699,0.007 z M 35.289416,455.71103 c 0.0519,-0.052 -0.46362,-1.51399 -1.14485,-3.2481 -0.68123,-1.73409 -1.80363,-4.61278 -2.49481,-6.39925 l -1.25673,-3.2481 -3.12131,-0.004 c -1.72235,-3.3e-4 -3.12132,0.10606 -3.12132,0.23494 0,0.12851 0.0965,0.2702 0.2163,0.31698 0.41765,0.16286 6.88282,7.80644 6.73114,7.95803 -0.0841,0.0842 -0.0282,0.1529 0.1268,0.1529 0.15495,0 1.11194,0.9762 2.12562,2.16665 1.01367,1.19045 1.88719,2.12162 1.93917,2.06968 z m 331.616044,-0.14916 c 0.0253,-0.003 0.0485,-0.0148 0.0672,-0.0336 0.0748,-0.0749 -0.53303,-1.84844 -1.34996,-3.94173 -0.81696,-2.09329 -1.91651,-4.9247 -2.44259,-6.29109 l -0.95467,-2.48363 h -3.0318 c -1.66723,0 -3.03182,0.0874 -3.03182,0.19392 0,0.10654 0.25941,0.47894 0.57801,0.82787 0.31862,0.34893 1.26566,1.44709 2.10326,2.43887 0.83756,0.99179 2.89769,3.39337 4.57941,5.33644 1.68173,1.94308 3.13935,3.64822 3.23692,3.79256 0.0731,0.10755 0.1703,0.16883 0.24613,0.16036 z m -89.43659,-3.06549 h 1.90561 c 1.82859,0 2.80481,-0.26642 3.2071,-0.8689 0.25094,-0.37581 0.2728,-0.89183 -0.0336,-1.8422 -0.30637,-0.95037 -0.9411,-2.33397 -1.99138,-4.43771 -1.2209,-2.44549 -2.20431,-4.59635 -2.18901,-4.78079 0.0152,-0.18444 -0.0225,-0.28322 -0.0857,-0.22002 -0.0632,0.0632 -0.68471,-0.10136 -1.37978,-0.36545 -0.91544,-0.34787 -1.92911,-0.48107 -3.6807,-0.48107 -1.15646,0 -1.83015,0.0279 -2.15172,0.12306 -0.32156,0.0952 -0.29329,0.25694 -0.0447,0.52581 0.12315,0.13314 1.62383,2.96643 3.33388,6.29483 z m -165.88446,-0.45123 2.46498,-0.17527 c 1.35624,-0.095 2.66756,-0.22787 2.91248,-0.29833 0.37648,-0.10822 0.5751,-0.43163 0.63024,-0.8689 0.0552,-0.43727 -0.0324,-0.9901 -0.23121,-1.56252 -0.39769,-1.14484 -1.23548,-2.36435 -2.24496,-2.88637 -0.71361,-0.36908 -4.19508,-0.51735 -5.09777,-0.21628 -0.21022,0.0702 -0.5211,0.17028 -0.69362,0.22374 -0.3362,0.10437 -0.14546,0.6405 1.44319,4.03497 z m 457.59844,-35.18839 c -0.18482,-0.0356 -1.26351,-0.71445 -3.06165,-1.88323 -5.81029,-3.77666 -15.84311,-9.92849 -20.29038,-12.44049 l -1.05537,-0.59294 0.67125,-1.21944 c 0.36923,-0.66985 0.73276,-1.22147 0.8055,-1.22317 0.3173,-0.009 7.23815,5.03299 12.98868,9.46089 7.38797,5.68873 10.29484,7.96637 9.94197,7.89838 z M 344.7281,413.37372 c -1.27058,0.002 -2.55427,-0.0428 -3.85221,-0.13425 -10.52251,-0.74112 -17.99702,-3.91263 -24.95932,-10.59083 -7.95611,-7.63147 -11.79472,-17.37308 -12.38828,-31.43686 -0.39256,-9.30114 1.27887,-18.34193 4.62043,-25.00778 5.69273,-11.35652 15.94377,-18.36861 29.53871,-20.20462 v 0.004 c 4.98096,-0.67266 13.32426,-0.44128 18.72789,0.51835 4.78142,0.84928 10.87649,3.21165 14.23048,5.51544 1.81077,1.24375 5.52985,4.93376 7.18238,7.12644 2.06347,2.73798 4.09248,6.43401 5.45576,9.93077 0.63783,1.63591 1.15979,3.07369 1.15979,3.19589 0,0.1222 -3.06435,0.54059 -6.81319,0.92857 -3.74882,0.38777 -7.12185,0.76286 -7.4919,0.8316 -0.63536,0.11838 -0.76657,-0.0566 -2.36428,-3.11758 -3.23449,-6.19675 -6.17097,-9.49927 -10.16572,-11.42617 -3.64859,-1.76021 -7.11968,-2.43142 -12.55608,-2.43142 -6.18945,0 -10.88488,1.52056 -15.77438,5.10896 -4.19568,3.07919 -7.44456,8.84325 -9.0395,16.03914 -0.50823,2.29273 -1.15785,7.34016 -0.96958,7.52919 0.0614,0.0611 14.75564,0.11561 32.65256,0.11561 h 32.5407 l 0.27224,0.69735 c 0.39994,1.01136 0.30283,7.81003 -0.16402,11.40006 -0.99117,7.62084 -3.19433,13.85492 -6.83556,19.34318 -1.96281,2.95851 -6.44824,7.45372 -9.37139,9.39377 -6.57656,4.36478 -14.74125,6.65677 -23.63545,6.67148 z m -306.802164,-0.0149 c -3.27596,0.0174 -6.84709,-0.2459 -9.70701,-0.7421 -11.609655,-2.01433 -21.6153929,-9.51131 -26.8723759,-20.13006 -3.226679,-6.51768 -4.592855,-12.52982 -4.888935,-21.52847 -0.322183,-9.79213 1.103526,-17.56676 4.52721002,-24.6647 0.80704698,-1.67315 1.36839298,-2.55898 1.55133398,-2.44633 0.175116,0.10883 0.219222,0.0639 0.108144,-0.11561 -0.271998,-0.4401 2.224589,-3.9055 4.668914,-6.47756 5.7928219,-6.09574 13.7817089,-9.98492 23.1059089,-11.25462 v -0.004 c 3.07204,-0.41891 10.56177,-0.489 14.15218,-0.13425 6.03153,0.59591 11.31793,2.05647 15.82286,4.37058 5.9394,3.05093 11.10607,8.69695 14.42813,15.77064 1.17403,2.4997 2.68092,6.36128 2.52465,6.4701 -0.039,0.0273 -3.11058,0.36617 -6.82437,0.74956 -3.7138,0.38359 -7.09759,0.75351 -7.52173,0.82416 -0.74237,0.12276 -0.8025,0.0623 -1.56252,-1.6483 -1.94182,-4.37027 -5.36288,-9.10941 -8.05127,-11.14647 -2.11507,-1.60288 -4.79703,-2.82136 -7.65597,-3.47932 -3.26171,-0.75017 -11.03877,-0.81078 -14.03658,-0.10814 -3.86747,0.90655 -6.6745,2.3085 -10.06875,5.02319 -2.028889,1.62274 -3.278952,3.12684 -4.911308,5.92191 -2.184412,3.74019 -4.022519,10.00848 -4.437704,15.1255 l -0.171547,2.12571 32.074549,0.0336 c 17.64229,0.0191 32.34028,0.0608 32.66003,0.0932 0.31977,0.0334 0.66382,0.14119 0.76448,0.24239 0.37829,0.38076 0.14685,10.63381 -0.29833,13.25345 -1.68231,9.89936 -5.16364,17.17171 -10.98239,22.94183 -6.65092,6.59531 -14.77682,10.07795 -25.25764,10.82204 -0.9893,0.0702 -2.04797,0.1061 -3.13996,0.11187 z m 392.487204,-0.56309 c -1.0233,-0.004 -1.97138,-0.0268 -2.75212,-0.0746 -5.65778,-0.3463 -11.79189,-1.83509 -15.72963,-3.81494 -3.16038,-1.58901 -6.12031,-3.62092 -7.55528,-5.19099 -3.69771,-4.04589 -6.21007,-11.14625 -5.81377,-16.43071 0.24346,-3.24634 0.79012,-5.21192 2.31582,-8.33842 1.14157,-2.3394 1.71708,-3.17776 3.24437,-4.73231 3.11685,-3.17252 6.94684,-5.29517 13.32058,-7.37628 2.92127,-0.95379 11.54711,-3.16103 14.77867,-3.78137 3.47777,-0.66751 14.92405,-4.18198 16.81854,-5.1649 0.28028,-0.1455 0.65596,-0.4765 0.83906,-0.73464 0.18311,-0.25796 0.47684,-0.46988 0.64887,-0.46988 0.2543,0 5.16207,2.0838 13.86132,5.8809 0.59561,0.25985 1.08519,0.54603 1.08519,0.63768 0,0.40096 -1.85064,2.62983 -2.94978,3.5539 -1.21929,1.02517 -4.61638,3.17724 -5.01573,3.17724 -0.11953,0 -1.56101,0.62083 -3.19962,1.37606 -3.78373,1.74393 -7.23745,2.84867 -13.94334,4.46755 -9.62828,2.32438 -19.30609,5.13896 -21.8268,6.34704 -1.84878,0.88604 -4.34359,3.33524 -5.36628,5.26558 -0.68876,1.30014 -0.70855,4.05296 -0.0411,5.73172 1.2615,3.17241 4.15292,5.66837 8.08854,6.98473 3.83962,1.28424 12.20549,1.70495 16.28528,0.81669 6.99999,-1.52409 12.18196,-6.1063 13.44737,-11.88859 l 0.30952,-1.40962 7.09661,0.78685 c 3.90326,0.43249 7.17429,0.86476 7.27187,0.96214 0.24628,0.24632 -0.99128,4.85373 -1.94663,7.24576 -1.03773,2.59824 -2.65504,5.16904 -4.56823,7.25696 -1.63088,1.77984 -4.67397,3.91237 -5.15743,3.61356 -0.16038,-0.0989 -0.21337,-0.064 -0.12296,0.082 0.20189,0.32671 -3.59858,2.10242 -6.32467,2.9535 -1.86362,0.58182 -5.8791,1.45324 -8.40927,1.82729 -1.87745,0.27715 -5.61908,0.45121 -8.68895,0.44004 z m 83.98454,-0.007 c -5.99731,-0.01 -11.41863,-0.91164 -16.10254,-2.67755 -1.91933,-0.72359 -5.37121,-2.56448 -5.17609,-2.75958 0.0702,-0.0703 -0.035,-0.1268 -0.23492,-0.1268 -0.77554,0 -3.33074,-1.82299 -4.94862,-3.53151 -2.65873,-2.80764 -4.97079,-7.68094 -5.65341,-11.91468 -0.38496,-2.38761 -0.19516,-6.5336 0.39903,-8.7188 0.72762,-2.676 2.29368,-5.64728 4.10207,-7.79022 0.93668,-1.10996 1.73901,-2.01748 1.78255,-2.01748 0.0435,0 2.74842,1.29268 6.01142,2.87519 3.26303,1.58253 6.81971,3.26546 7.90581,3.74035 1.08612,0.47489 1.97647,0.94564 1.97647,1.04416 0,0.0985 -0.64976,0.44247 -1.44319,0.76449 -0.79338,0.32202 -1.92936,0.95522 -2.52465,1.40962 -0.59531,0.45442 -1.15148,0.77911 -1.23434,0.71973 -0.0829,-0.0596 -0.0949,-0.0364 -0.0298,0.0522 0.0651,0.0885 -0.26128,0.60495 -0.72345,1.14485 -0.46213,0.53992 -1.17328,1.58533 -1.58117,2.32327 -1.04632,1.89303 -1.0564,4.27494 -0.0262,6.37314 0.86989,1.77145 2.85606,4.00231 4.3221,4.85538 1.632,0.94962 4.5646,1.92314 7.15628,2.37921 3.33991,0.58812 9.82987,0.58137 12.6456,-0.0149 3.44763,-0.7301 7.52069,-2.56684 8.77844,-3.95664 0.26934,-0.29763 0.86976,-0.77527 1.33505,-1.06281 l 0.84652,-0.52209 4.65027,2.40905 c 4.02245,2.08445 7.22438,3.84294 7.54783,4.14682 0.0527,0.0496 -0.39251,0.67201 -0.98824,1.38352 -3.02259,3.61016 -9.27273,6.78967 -16.21439,8.24892 -4.2451,0.89236 -7.70765,1.2308 -12.57848,1.22317 z m -307.93584,-0.004 c -7.51364,6.6e-4 -12.37793,-1.62507 -18.45937,-6.17177 -2.14819,-1.60603 -3.64004,-3.00279 -5.42966,-5.0754 l -1.20825,-1.3947 v 5.53781 5.53781 h -7.38748 -7.3912 v -58.35377 -58.35025 h 7.64478 7.6448 v 20.05917 c 0,18.73075 0.0285,20.01723 0.42139,19.42896 1.6691,-2.49932 6.70981,-6.10665 10.28131,-7.35764 2.14659,-0.75209 7.25353,-1.75969 10.42302,-2.0585 6.7968,-0.64096 14.89296,0.97243 20.66329,4.12073 12.23735,6.67712 19.52626,17.41579 21.838,32.16404 0.63229,4.03405 0.62335,13.23318 -0.0191,17.0945 -1.18356,7.11863 -3.31444,13.17098 -6.09719,17.32571 -3.05335,4.55872 -8.6757,9.88963 -13.04835,12.37336 -6.15931,3.49863 -12.45108,5.11938 -19.87645,5.12015 z m -67.82606,-2.07714 -2.62905,-3.74782 c -1.44658,-2.06151 -2.62907,-3.89517 -2.62907,-4.07598 0,-0.1808 -0.0517,-0.27652 -0.11561,-0.21256 -0.14225,0.14226 -2.63536,-3.36031 -8.43164,-11.8401 -3.0566,-4.47174 -6.91434,-9.79456 -7.16373,-9.88602 -0.1154,-0.0424 -0.47088,0.38501 -0.78686,0.94721 -0.31596,0.56219 -0.68495,0.95128 -0.82414,0.86517 -0.14413,-0.0891 -0.17298,-0.0296 -0.0671,0.14171 0.10854,0.17564 -0.7056,1.64933 -1.95409,3.5427 -2.35183,3.56662 -16.131234,23.43427 -16.609704,23.9487 -0.23257,0.2491 -2.3252,0.30945 -9.39004,0.25732 l -9.09171,-0.0672 1.27165,-1.78626 c 0.69841,-0.98102 1.58804,-2.24005 1.98019,-2.80061 3.6229,-5.17894 20.780934,-29.46707 24.355184,-34.47613 l 0.78312,-1.09638 -0.50344,-0.86517 c -0.27744,-0.47645 -2.00548,-3.02285 -3.84103,-5.65714 -3.057024,-4.38745 -10.686834,-15.44194 -19.443874,-28.17757 -1.90665,-2.77293 -4.19876,-6.09677 -5.09405,-7.38748 -0.89526,-1.29071 -1.79227,-2.60297 -1.9951,-2.91248 v 0.007 l -0.36918,-0.56311 8.90524,-0.0187 8.90525,-0.0188 2.75587,4.01652 c 1.51609,2.20986 3.388434,4.935 4.158024,6.05616 0.7696,1.12116 2.67503,3.8737 4.23633,6.11583 3.05131,4.3823 5.89413,8.52654 9.87482,14.39831 1.37762,2.0321 2.59882,3.72636 2.71483,3.76645 0.11602,0.0403 0.41723,-0.24722 0.67126,-0.63768 0.25404,-0.39066 1.48284,-2.01564 2.72975,-3.61357 1.24691,-1.59791 6.34923,-9.02097 11.33666,-16.4941 l 9.0656,-13.58534 h 8.89033 c 6.92287,8.1e-4 8.84687,0.071 8.7076,0.31325 -0.65128,1.13261 -4.57046,6.74016 -4.89267,6.99964 -0.21738,0.17528 -0.31224,0.31698 -0.20883,0.31698 0.10341,0 -1.23176,2.09272 -2.96841,4.65026 -1.73664,2.55756 -5.71556,8.43476 -8.84186,13.05955 -3.12627,4.62459 -7.44433,11.00698 -9.59514,14.18201 -2.15078,3.17484 -3.91189,5.83781 -3.91189,5.91819 0,0.19795 2.01091,3.1247 15.68487,22.85233 6.45305,9.30994 11.81897,17.07211 11.92587,17.24739 0.15407,0.25243 -1.65142,0.31697 -8.70015,0.31697 z m 117.13309,-0.51091 v -42.29615 -42.29992 h 7.49562 7.49935 l 0.10807,25.16441 c 0.0956,22.10148 0.16286,25.49717 0.54446,27.93145 0.88144,5.62147 2.48231,9.07836 5.81749,12.55236 4.48649,4.67321 9.50269,6.54681 15.32316,5.72427 1.63944,-0.23167 6.15404,-1.38918 7.62614,-1.95407 0.35324,-0.13557 0.52357,0.34899 2.59549,7.40611 0.49373,1.68171 1.00938,3.25825 1.14858,3.50169 0.21579,0.37744 8.1e-4,0.56983 -1.46555,1.30521 -7.34894,3.6848 -15.52007,3.92701 -22.07666,0.6526 -2.85922,-1.42793 -4.85089,-2.92677 -7.22713,-5.43712 -1.1387,-1.20294 -2.13254,-2.18902 -2.21139,-2.18902 -0.0789,0 -0.14549,2.23817 -0.14549,4.97097 v 4.96726 h -7.51426 z M 37.269606,402.00392 c 0.56733,-0.003 1.14575,-0.0241 1.73406,-0.0596 3.02544,-0.18265 5.5812,-0.65068 7.92448,-1.4954 2.34327,-0.84473 4.47555,-2.06508 6.64537,-3.75527 1.47764,-1.15101 2.69508,-2.41162 3.75155,-3.91562 1.05644,-1.504 1.95251,-3.2515 2.78195,-5.38492 0.85586,-2.20137 1.89574,-6.57105 2.07715,-8.72625 l 0.11186,-1.33877 H 37.456066 12.61609 l 0.179004,1.59235 c 0.255984,2.31572 0.76114,4.52926 1.49912,6.60436 0.737987,2.0751 1.706304,4.01134 2.882646,5.7802 1.176342,1.76887 2.560855,3.36887 4.131916,4.76588 1.57106,1.39701 3.32853,2.59063 5.25067,3.55016 1.86038,0.92871 3.79734,1.58117 5.85478,1.96528 1.5431,0.28807 3.15339,0.42697 4.85538,0.41766 z m 307.040824,-0.0783 c 2.29571,0.0197 4.62658,-0.13818 6.24264,-0.48106 2.22738,-0.47258 4.32598,-1.21929 6.26126,-2.22258 1.93529,-1.00329 3.70658,-2.26465 5.28051,-3.76274 1.83515,-1.74675 2.63667,-2.87691 4.11699,-5.81749 0.78758,-1.56449 1.42322,-3.22132 1.92797,-5.03064 0.50477,-1.80933 0.87829,-3.77026 1.13367,-5.94429 l 0.15657,-1.33877 h -24.86976 -24.87351 l 0.16782,1.46556 c 0.32371,2.83156 1.01101,5.50085 2.01748,7.95058 1.00647,2.44973 2.33404,4.67976 3.93053,6.63418 1.59653,1.95442 3.46259,3.63283 5.55646,4.97844 2.0939,1.34562 4.41532,2.35627 6.91389,2.9796 1.48117,0.3695 3.74182,0.56947 6.0375,0.58921 z m 201.62479,-3.11012 c -0.0115,-8.2e-4 -0.0203,-0.005 -0.0298,-0.0112 -0.15561,-0.0961 -1.95379,-1.32884 -3.99394,-2.73721 -2.04014,-1.40836 -4.55009,-3.13287 -5.57882,-3.83358 -1.0287,-0.70073 -1.92369,-1.41075 -1.98766,-1.57743 -0.0641,-0.16663 0.0115,-0.91359 0.16783,-1.66321 l 0.28343,-1.36488 7.12271,0.79432 c 3.91902,0.43619 7.18697,0.85113 7.26068,0.92483 0.16878,0.16884 -0.51513,3.48978 -1.06654,5.17981 -0.67596,2.07174 -1.82584,4.32349 -2.17784,4.28854 z m -338.11596,-1.26046 c 1.26578,-0.0135 2.50499,-0.13432 3.71425,-0.358 1.61233,-0.29825 3.16638,-0.77967 4.64654,-1.42827 1.48014,-0.64859 2.88648,-1.46618 4.19904,-2.43887 1.31256,-0.9727 2.53383,-2.10061 3.64338,-3.37117 1.10958,-1.27056 2.10846,-2.68297 2.97961,-4.22514 0.87115,-1.54218 1.61408,-3.21326 2.21139,-5.00081 0.59733,-1.78757 1.04697,-3.69148 1.33504,-5.69817 0.35398,-2.46721 0.35369,-8.17717 0,-11.02341 -0.38041,-3.06138 -1.11657,-5.92009 -2.16663,-8.52488 -1.05005,-2.60478 -2.41326,-4.95244 -4.04614,-6.99218 -1.63289,-2.03974 -3.53572,-3.77254 -5.66461,-5.13879 -2.12889,-1.36625 -4.48396,-2.3692 -7.02201,-2.9535 -1.60751,-0.37007 -3.22515,-0.57285 -4.83674,-0.61531 -1.6116,-0.0425 -3.2169,0.0769 -4.78824,0.35427 -1.57134,0.2773 -3.11133,0.71224 -4.59806,1.30148 -1.48674,0.58923 -2.91956,1.33298 -4.27736,2.22631 -1.74286,1.1467 -3.2891,2.5175 -4.63535,4.10208 -1.34626,1.58459 -2.49103,3.38347 -3.43083,5.38492 -0.9398,2.00145 -1.67674,4.20707 -2.20021,6.60435 -0.52346,2.39728 -0.83503,4.98458 -0.93229,7.75666 -0.1049,2.98991 0.0417,5.5772 0.48479,8.01398 0.44307,2.43677 1.18455,4.72331 2.26733,7.11151 0.73929,1.6306 1.70728,3.20517 2.85655,4.68011 1.14926,1.47494 2.47988,2.85288 3.93427,4.08344 1.45434,1.23055 3.03296,2.31336 4.68755,3.2108 1.65461,0.89744 3.38509,1.60902 5.13507,2.08461 1.77045,0.48116 3.51919,0.75327 5.22829,0.83161 0.42727,0.0196 0.85343,0.0269 1.27537,0.0223 z m 305.94072,-19.07468 -3.22571,-1.78627 c -1.77391,-0.98187 -3.18061,-1.86023 -3.12505,-1.95036 0.0557,-0.0899 -0.0481,-0.14608 -0.2312,-0.1268 -0.48717,0.0511 -10.64368,-5.77748 -10.42303,-5.98158 0.60975,-0.56401 9.40195,-3.15274 17.75084,-5.22455 5.87971,-1.4593 13.46381,-3.70429 16.50154,-4.88521 1.92879,-0.7498 3.5901,-2.17541 4.66518,-4.00512 0.93218,-1.58647 1.84181,-5.37443 1.61101,-6.70504 -0.266,-1.53358 -1.32176,-3.74601 -2.44634,-5.12015 -0.52174,-0.63734 -0.90821,-1.27388 -0.86143,-1.41708 0.0466,-0.1432 0.006,-0.18123 -0.0895,-0.0858 -0.0955,0.0955 -0.82267,-0.35722 -1.61474,-1.00315 -2.67864,-2.18408 -6.61353,-3.5899 -11.64991,-4.16174 -3.10145,-0.35209 -5.69359,-0.16298 -8.89406,0.64887 -5.59671,1.41978 -12.15929,4.73634 -13.63383,6.88777 -1.41142,2.05922 -3.57299,7.03089 -3.96037,9.11035 -0.15066,0.80708 -0.26082,0.93298 -0.72345,0.82415 -0.29996,-0.0701 -3.29685,-0.52775 -6.66029,-1.01806 -8.32866,-1.21472 -7.50194,-0.96064 -7.21594,-2.24123 1.99628,-8.93912 9.10443,-18.48822 16.01676,-21.51356 3.86436,-1.69128 8.75948,-2.89284 14.13355,-3.46812 2.55169,-0.27323 14.82952,0.057 16.94159,0.45495 4.93173,0.92928 8.97516,2.32979 12.59712,4.36686 3.03815,1.70866 4.09441,2.51698 6.78709,5.19845 2.16173,2.15259 2.58306,2.72839 3.73662,5.1015 1.95945,4.03079 2.62397,6.42411 2.79314,10.06502 0.27533,5.92561 -1.44645,10.90818 -5.12761,14.83835 -2.2293,2.38006 -3.61938,3.31136 -7.93566,5.32152 -5.41658,2.52255 -9.75568,3.90147 -19.09333,6.06362 -2.10215,0.48674 -4.45004,1.09501 -5.22081,1.34996 z m -45.24969,-23.82936 -1.00315,-0.5109 c -0.55202,-0.28163 -3.84497,-1.72966 -7.31662,-3.21454 -3.47162,-1.48489 -6.43918,-2.8032 -6.59689,-2.93113 -0.15772,-0.12812 -0.35622,-0.6631 -0.44004,-1.18587 -0.2436,-1.52193 -1.38171,-3.52148 -2.78569,-4.8964 -4.77107,-4.67175 -11.34412,-6.61526 -19.78694,-5.84733 l -3.50543,0.32071 -8.68895,-3.28912 -8.69269,-3.28913 1.07027,-0.54445 c 3.36599,-1.70408 9.13299,-3.2666 14.32372,-3.8858 3.17275,-0.37843 15.38865,-0.17384 17.84035,0.29834 8.68674,1.67296 14.13259,4.30463 19.31706,9.33783 2.96353,2.87698 4.92887,6.33938 6.17551,10.87425 0.54635,1.98742 0.76194,6.28396 0.3841,7.67835 z m -58.73808,-1.20826 c -1.50816,-0.18845 -12.81109,-1.88063 -13.30939,-1.99137 -0.54465,-0.1222 -0.57852,-0.22437 -0.41394,-1.20825 0.43416,-2.59364 2.39026,-7.21405 4.5272,-10.69152 0.58131,-0.94607 1.13048,-1.71914 1.21945,-1.71914 0.18387,0 13.04953,4.61957 13.19006,4.73603 0.22027,0.18254 -1.05096,1.62204 -1.29775,1.4693 -0.16383,-0.10138 -0.19853,-0.0489 -0.0896,0.12679 0.10062,0.16268 -0.0603,0.6351 -0.35428,1.0479 -0.8738,1.22713 -1.8108,3.55369 -2.41648,5.9965 -0.48139,1.94122 -0.64474,2.28532 -1.05537,2.23377 z m -8.80456,-16.56122 -5.5229,-1.98019 c -17.22549,-6.18127 -39.64232,-13.47742 -55.59066,-18.09018 -2.73279,-0.79047 -6.28673,-1.82202 -7.89838,-2.29343 -35.80172,-10.4681 -84.50297,-21.20994 -126.38514,-27.87924 -26.64179,-4.24253 -62.76946,-8.70576 -80.51641,-9.94569 -33.530324,-2.34256 -68.563304,0.4146 -90.838744,7.14882 -16.692568,5.04655 -27.0241079,11.15393 -35.5165699,20.9952 l -1.100103,1.27164 0.70481,-1.27164 c 3.167309,-5.71711 9.9082781,-12.21616 17.7396439,-17.10195 3.333787,-2.08003 10.994449,-5.90563 14.886829,-7.43596 17.40038,-6.84114 38.08603,-10.55053 64.69356,-11.60142 4.722504,-0.18693 19.810924,-0.139 25.608184,0.0821 43.05402,1.64338 97.09109,8.87684 148.67809,19.89884 20.408,4.36035 46.01473,10.73974 62.81033,15.6513 1.75178,0.51228 4.5609,1.32549 6.24262,1.80493 13.06001,3.72376 37.93579,11.93654 54.52787,18.0044 6.75068,2.46858 14.90547,5.63493 14.90547,5.78767 0,0.0808 -0.69629,0.65541 -1.54761,1.27538 -0.85133,0.61996 -2.52244,2.15239 -3.71425,3.40473 z" />
    </g>
  </g>
  <metadata
     id="metadata7980">
    <rdf:RDF>
      <cc:Work
         rdf:about="">
        <dc:title>Air India Express logo</dc:title>
        <dc:date>9 sep 2021</dc:date>
        <cc:license
           rdf:resource="http://scripts.sil.org/OFL" />
        <dc:rights>
          <cc:Agent>
            <dc:title>N/A</dc:title>
          </cc:Agent>
        </dc:rights>
      </cc:Work>
      <cc:License
         rdf:about="http://scripts.sil.org/OFL">
        <cc:permits
           rdf:resource="http://scripts.sil.org/pub/OFL/Reproduction" />
        <cc:permits
           rdf:resource="http://scripts.sil.org/pub/OFL/Distribution" />
        <cc:permits
           rdf:resource="http://scripts.sil.org/pub/OFL/Embedding" />
        <cc:permits
           rdf:resource="http://scripts.sil.org/pub/OFL/DerivativeWorks" />
        <cc:requires
           rdf:resource="http://scripts.sil.org/pub/OFL/Notice" />
        <cc:requires
           rdf:resource="http://scripts.sil.org/pub/OFL/Attribution" />
        <cc:requires
           rdf:resource="http://scripts.sil.org/pub/OFL/ShareAlike" />
        <cc:requires
           rdf:resource="http://scripts.sil.org/pub/OFL/DerivativeRenaming" />
        <cc:requires
           rdf:resource="http://scripts.sil.org/pub/OFL/BundlingWhenSelling" />
      </cc:License>
    </rdf:RDF>
  </metadata>
</svg>
