<?xml version="1.0" encoding="UTF-8"?>
<!-- Generator: Adobe Illustrator 13.0.2, SVG Export Plug-In . SVG Version: 6.00 Build 14948)  -->
<!DOCTYPE svg PUBLIC "-//W3C//DTD SVG 1.1//EN" "http://www.w3.org/Graphics/SVG/1.1/DTD/svg11.dtd" [
	<!ENTITY ns_extend "http://ns.adobe.com/Extensibility/1.0/">
	<!ENTITY ns_ai "http://ns.adobe.com/AdobeIllustrator/10.0/">
	<!ENTITY ns_graphs "http://ns.adobe.com/Graphs/1.0/">
	<!ENTITY ns_vars "http://ns.adobe.com/Variables/1.0/">
	<!ENTITY ns_imrep "http://ns.adobe.com/ImageReplacement/1.0/">
	<!ENTITY ns_sfw "http://ns.adobe.com/SaveForWeb/1.0/">
	<!ENTITY ns_custom "http://ns.adobe.com/GenericCustomNamespace/1.0/">
	<!ENTITY ns_adobe_xpath "http://ns.adobe.com/XPath/1.0/">
]>
<svg version="1.1" id="Layer_1" xmlns:x="http://ns.adobe.com/Extensibility/1.0/" xmlns:i="http://ns.adobe.com/AdobeIllustrator/10.0/" xmlns:graph="http://ns.adobe.com/Graphs/1.0/" xmlns="http://www.w3.org/2000/svg" xmlns:xlink="http://www.w3.org/1999/xlink" x="0px" y="0px" width="118.25px" height="22.75px" viewBox="0 0 118.25 22.75" enable-background="new 0 0 118.25 22.75" xml:space="preserve">
<path fill-rule="evenodd" clip-rule="evenodd" fill="#113F83" d="M24.815,16.334l1.269-2.022h3.177l-0.121,2.022h4.415L33.2,3.892  h-3.986l-8.845,12.443H24.815z M27.798,11.513l1.579-2.575c0.136-0.224,0.232-0.414,0.316-0.621  c0.046-0.086,0.074-0.173,0.104-0.259c-0.064,0.189-0.108,0.363-0.145,0.518l-0.004,0.104L29.62,8.938l-0.172,2.575H27.798z"/>
<polygon fill-rule="evenodd" clip-rule="evenodd" fill="#113F83" points="37.953,16.334 42.183,3.893 38.104,3.893 33.875,16.334   "/>
<path fill-rule="evenodd" clip-rule="evenodd" fill="#113F83" d="M43.207,16.333l1.637-4.82l0.282-0.017h0.184  c0.836,0.104,1.07,0.535,1.169,2.851c0.011,0.328,0.007,0.656,0.001,0.985l-0.034,1.001h4.001l-0.04-1.986  c-0.046-2.608-0.344-3.578-0.783-3.993l-0.067-0.069l-0.098-0.069c0.108-0.051,0.218-0.104,0.312-0.155  c1.145-0.674,2.126-2.125,2.256-3.767c0.126-1.401-0.756-2.401-2.42-2.401h-6.233l-4.23,12.44  C39.137,16.351,43.207,16.333,43.207,16.333 M45.582,9.301l0.964-2.834h0.503c0.766,0,1.007,0.639,0.426,1.85  c-0.297,0.604-0.822,0.984-1.373,0.984H45.582z"/>
<path fill-rule="evenodd" clip-rule="evenodd" fill="#113F83" d="M57.868,16.333l1.542-4.525h1.784c1.819,0,3.407-0.985,4.458-2.645  c1.484-2.385,1.115-4.58-0.844-5.149c-0.262-0.087-0.54-0.121-0.83-0.121h-5.943l-4.229,12.44H57.868z M60.281,9.283l0.947-2.782  h0.563c0.167,0,0.313,0.069,0.414,0.173c0.172,0.172,0.228,0.414,0.167,0.725c-0.224,1.246-0.869,1.884-1.543,1.884H60.281z"/>
<path fill-rule="evenodd" clip-rule="evenodd" fill="#113F83" d="M66.189,16.334l1.271-2.022h3.177l-0.123,2.022h4.417L74.576,3.892  h-3.988l-8.843,12.443H66.189z M69.175,11.513l1.578-2.575c0.137-0.224,0.233-0.414,0.317-0.621  c0.046-0.086,0.074-0.173,0.104-0.259c-0.064,0.189-0.11,0.363-0.146,0.518l-0.005,0.104l-0.028,0.259l-0.173,2.575H69.175z"/>
<path fill-rule="evenodd" clip-rule="evenodd" fill="#113F83" d="M87.589,4.307c-3.619-1.763-7.904,0.241-10.104,3.922  c-2.668,4.476-1.343,8.397,2.928,8.329c1.076-0.018,2.188-0.277,3.34-0.743c0.196-0.087,0.379-0.172,0.561-0.259l1.205-3.542  c-0.157,0.104-0.309,0.189-0.454,0.258c-0.914,0.484-1.709,0.708-2.423,0.743c-2.138,0.086-2.76-1.677-1.593-3.715  c0.823-1.435,2.515-2.367,4.396-1.918c0.398,0.087,0.741,0.243,1.068,0.45c0.124,0.086,0.247,0.172,0.354,0.259l1.192-3.508  C87.912,4.479,87.742,4.394,87.589,4.307"/>
<polygon fill-rule="evenodd" clip-rule="evenodd" fill="#113F83" points="89.225,16.334 93.457,3.893 89.375,3.893 85.146,16.334   "/>
<polygon fill-rule="evenodd" clip-rule="evenodd" fill="#113F83" points="94.477,16.334 96.08,11.616 99.151,11.616 100.186,8.575   97.13,8.575 97.683,6.952 101.304,6.952 102.342,3.893 94.643,3.893 90.414,16.334 "/>
<polygon fill-rule="evenodd" clip-rule="evenodd" fill="#113F83" points="102.724,16.334 106.953,3.893 102.873,3.893   98.646,16.334 "/>
<path fill-rule="evenodd" clip-rule="evenodd" fill="#113F83" d="M116.908,4.307c-3.617-1.763-7.904,0.241-10.104,3.922  c-2.668,4.476-1.343,8.397,2.928,8.329c1.076-0.018,2.188-0.277,3.341-0.743c0.196-0.087,0.378-0.172,0.56-0.259l1.205-3.542  c-0.157,0.104-0.309,0.189-0.453,0.258c-0.916,0.484-1.71,0.708-2.424,0.743c-2.14,0.086-2.76-1.677-1.594-3.715  c0.823-1.435,2.516-2.367,4.394-1.918c0.4,0.087,0.743,0.243,1.071,0.45c0.124,0.086,0.247,0.172,0.354,0.259l1.192-3.508  C117.23,4.479,117.062,4.394,116.908,4.307"/>
<polygon fill-rule="evenodd" clip-rule="evenodd" points="19.255,20.817 20.392,20.817 20.75,19.581 22.38,19.581 22.544,19.001   20.887,19.001 21.101,18.329 22.816,18.329 22.974,17.747 20.149,17.747 "/>
<polygon fill-rule="evenodd" clip-rule="evenodd" points="22.691,20.817 23.827,20.817 24.704,17.747 23.567,17.747 "/>
<path fill-rule="evenodd" clip-rule="evenodd" d="M27.41,17.748h-1.143l-0.496,1.684c-0.09,0.312-0.163,0.753-0.743,0.753  c-0.175,0-0.351-0.026-0.508-0.08l-0.229,0.664c0.217,0.045,0.501,0.102,0.821,0.102c0.244,0,0.484-0.009,0.737-0.057  c0.726-0.168,0.823-0.603,0.986-1.148L27.41,17.748z"/>
<polygon fill-rule="evenodd" clip-rule="evenodd" points="27.402,20.817 28.539,20.817 29.416,17.747 28.28,17.747 "/>
<polygon fill-rule="evenodd" clip-rule="evenodd" points="29.704,18.939 30.574,18.939 31.477,17.748 30.399,17.748 "/>
<path fill-rule="evenodd" clip-rule="evenodd" d="M35.218,17.831c-0.285-0.097-0.775-0.137-1.294-0.137  c-0.926,0-1.88,0.239-1.88,1.029c0,0.867,1.637,0.683,1.637,1.175c0,0.315-0.549,0.365-0.9,0.365c-0.367,0-0.814-0.071-1.041-0.177  l-0.264,0.625c0.369,0.083,0.871,0.158,1.305,0.158c0.98,0,2.062-0.221,2.062-1.068c0-0.933-1.64-0.771-1.64-1.206  c0-0.248,0.363-0.295,0.81-0.295c0.419,0,0.714,0.067,0.932,0.141L35.218,17.831z"/>
<polygon fill-rule="evenodd" clip-rule="evenodd" points="36.826,20.817 37.963,20.817 38.841,17.747 37.703,17.747 "/>
<polygon fill-rule="evenodd" clip-rule="evenodd" points="38.982,20.817 40.047,20.817 40.634,18.693 40.646,18.693 41.527,20.817   42.931,20.817 43.824,17.747 42.763,17.747 42.169,19.876 42.157,19.876 41.292,17.747 39.886,17.747 "/>
<polygon fill-rule="evenodd" clip-rule="evenodd" points="44.427,20.817 45.571,20.817 46.289,18.355 47.34,18.355 47.521,17.747   44.276,17.747 44.095,18.355 45.146,18.355 "/>
<polygon fill-rule="evenodd" clip-rule="evenodd" points="47.032,20.817 50.087,20.817 50.249,20.237 48.321,20.237 48.527,19.542   50.28,19.542 50.454,18.961 48.697,18.961 48.89,18.329 50.745,18.329 50.908,17.747 47.939,17.747 "/>
<path fill-rule="evenodd" clip-rule="evenodd" d="M52.462,18.329h0.539c0.339,0.003,0.52,0.097,0.52,0.316  c0,0.29-0.381,0.378-0.87,0.378H52.27L52.462,18.329z M50.637,20.817h1.132l0.337-1.213h0.122c0.507,0,0.544,0.031,0.652,0.432  l0.217,0.781h1.125l-0.302-0.946c-0.061-0.196-0.17-0.522-0.502-0.543v-0.009c0.647-0.057,1.228-0.247,1.228-0.788  c0-0.761-0.968-0.779-1.773-0.784h-1.347L50.637,20.817z"/>
<polygon fill-rule="evenodd" clip-rule="evenodd" points="54.782,20.817 55.846,20.817 56.434,18.693 56.444,18.693 57.328,20.817   58.73,20.817 59.625,17.747 58.562,17.747 57.97,19.876 57.957,19.876 57.091,17.747 55.685,17.747 "/>
<path fill-rule="evenodd" clip-rule="evenodd" d="M59.169,20.818h1.221l0.501-0.656h1.639l0.115,0.656h1.137l-0.69-3.07h-1.414  L59.169,20.818z M62.421,19.582h-1.089l0.895-1.201h0.014L62.421,19.582z"/>
<polygon fill-rule="evenodd" clip-rule="evenodd" points="64.383,20.817 65.525,20.817 66.245,18.355 67.297,18.355 67.478,17.747   64.231,17.747 64.051,18.355 65.103,18.355 "/>
<polygon fill-rule="evenodd" clip-rule="evenodd" points="67.039,20.817 68.174,20.817 69.054,17.747 67.916,17.747 "/>
<path fill-rule="evenodd" clip-rule="evenodd" d="M73.512,18.948c0-0.633-0.5-1.254-1.873-1.254c-1.626,0-2.467,0.763-2.467,1.926  c0,0.63,0.502,1.25,1.875,1.25C72.672,20.871,73.512,20.109,73.512,18.948 M72.352,19.014c0,0.515-0.363,1.249-1.232,1.249  c-0.588,0-0.786-0.321-0.786-0.708c0-0.519,0.362-1.254,1.232-1.254C72.152,18.301,72.352,18.627,72.352,19.014"/>
<polygon fill-rule="evenodd" clip-rule="evenodd" points="73.632,20.817 74.694,20.817 75.281,18.693 75.295,18.693 76.176,20.817   77.578,20.817 78.474,17.747 77.409,17.747 76.817,19.876 76.806,19.876 75.941,17.747 74.53,17.747 "/>
<path fill-rule="evenodd" clip-rule="evenodd" d="M78.018,20.818h1.22l0.501-0.656h1.639l0.116,0.656h1.136l-0.688-3.07h-1.418  L78.018,20.818z M81.269,19.582h-1.088l0.895-1.201h0.013L81.269,19.582z"/>
<polygon fill-rule="evenodd" clip-rule="evenodd" points="83.067,20.817 85.975,20.817 86.148,20.212 84.385,20.212 85.086,17.747   83.944,17.747 "/>
<path fill-rule="evenodd" clip-rule="evenodd" d="M87.996,20.818h1.22l0.502-0.656h1.64l0.114,0.656h1.136l-0.689-3.07h-1.414  L87.996,20.818z M91.247,19.582h-1.088l0.894-1.201h0.014L91.247,19.582z"/>
<polygon fill-rule="evenodd" clip-rule="evenodd" points="93.094,20.817 94.23,20.817 95.107,17.747 93.971,17.747 "/>
<path fill-rule="evenodd" clip-rule="evenodd" d="M96.811,18.329h0.54c0.339,0.003,0.52,0.097,0.52,0.316  c0,0.29-0.381,0.378-0.87,0.378h-0.382L96.811,18.329z M94.985,20.817h1.132l0.336-1.213h0.122c0.509,0,0.546,0.031,0.652,0.432  l0.219,0.781h1.125l-0.302-0.946c-0.061-0.196-0.171-0.522-0.503-0.543v-0.009c0.647-0.057,1.229-0.247,1.229-0.788  c0-0.761-0.968-0.779-1.773-0.784h-1.349L94.985,20.817z"/>
<polygon fill-rule="evenodd" clip-rule="evenodd" points="99.144,20.817 102.053,20.817 102.227,20.212 100.462,20.212   101.162,17.747 100.021,17.747 "/>
<polygon fill-rule="evenodd" clip-rule="evenodd" points="102.518,20.817 103.654,20.817 104.531,17.747 103.396,17.747 "/>
<polygon fill-rule="evenodd" clip-rule="evenodd" points="104.397,20.817 105.462,20.817 106.049,18.693 106.062,18.693   106.942,20.817 108.346,20.817 109.239,17.747 108.177,17.747 107.584,19.876 107.572,19.876 106.707,17.747 105.299,17.747 "/>
<polygon fill-rule="evenodd" clip-rule="evenodd" points="109.122,20.817 112.176,20.817 112.339,20.237 110.41,20.237   110.616,19.542 112.369,19.542 112.544,18.961 110.785,18.961 110.979,18.329 112.834,18.329 112.998,17.747 110.029,17.747 "/>
<path fill="#EFAA00" d="M16.381,21.659c0,0-1.388-0.067-1.658-0.579c-0.109-0.202-0.285-0.425-0.285-0.425L4.439,1.536  C4.402,1.408,4.213,1.365,4.213,1.365h1.295c0,0,0.189,0.043,0.226,0.171l12.684,19.089c0,0,0.147,0.204,0.284,0.427  c0.306,0.496,1.63,0.606,1.63,0.606H16.381z"/>
<path fill="#E16D06" d="M12.533,21.659c0,0-1.447,0.061-1.776-0.591c-0.081-0.16-0.133-0.442-0.133-0.442L3.218,1.536  C3.181,1.408,2.993,1.365,2.993,1.365h1.221c0,0,0.189,0.043,0.226,0.171l9.983,18.986c0,0,0.225,0.387,0.317,0.539  c0.35,0.572,1.754,0.598,1.754,0.598H12.533z"/>
<path fill="#B3004A" d="M12.527,21.659c0,0-1.384,0.008-1.744-0.617c-0.087-0.15-0.16-0.417-0.16-0.417L3.218,1.536  C3.181,1.408,2.993,1.365,2.993,1.365H1.879c0,0,0.189,0.043,0.226,0.171l4.562,19.157c0,0,0.071,0.267,0.16,0.417  c0.346,0.591,1.668,0.549,1.668,0.549H12.527z"/>
<path fill="#113F83" d="M8.453,21.659c0,0-1.298-0.028-1.636-0.62c-0.091-0.16-0.16-0.441-0.16-0.441L2.141,1.536  C2.102,1.408,1.915,1.365,1.915,1.365H0.8c0,0,0.19,0.043,0.226,0.171l1.568,19.157c0,0,0.071,0.267,0.158,0.417  C3.1,21.7,4.421,21.659,4.421,21.659H8.453z"/>
</svg>