<?xml version="1.0" encoding="UTF-8"?>
<svg version="1.1" xmlns="http://www.w3.org/2000/svg" width="329px" height="84px">

<g style="fill:#253876">
<path d="M31.472,57.375H20.384l-3.672,6.408H6.848L30.68,23.535c2.543-1.152,4.343-2.952,5.4-5.4 c-2.448,2.257-5.353,3.384-8.712,3.384c-0.673,0-1.345-0.072-2.016-0.216l1.872-6.912c0.767,0.144,1.512,0.216,2.232,0.216 c3.744,0,6.84-1.56,9.288-4.68l3.888-6.552v60.408h-11.16V57.375z M24.632,49.959h6.84v-11.88L24.632,49.959z"/>
<path d="M64.951,29.655l-8.928,34.2h-9.936l8.928-34.2H64.951z M62.646,24.111 c-1.632,0.048-3.024-0.324-4.176-1.116s-1.728-1.788-1.728-2.988c0-1.199,0.576-2.243,1.728-3.132 c1.152-0.887,2.543-1.355,4.176-1.404c1.631-0.047,3.024,0.324,4.176,1.116c1.152,0.792,1.728,1.789,1.728,2.988 c0,1.2-0.576,2.245-1.728,3.132C65.67,23.596,64.278,24.064,62.646,24.111z"/>
<path d="M88.854,30.231l-2.232,9.36c-1.249-0.72-2.424-1.08-3.528-1.08c-2.545,0-4.536,1.753-5.976,5.256 l-5.4,20.016h-9.936l9.144-33.984h9.936l-0.576,2.16c2.352-1.487,4.488-2.232,6.408-2.232 C87.559,29.727,88.279,29.896,88.854,30.231z"/>
<path d="M137.958,29.511l-15.912,29.304l-0.576-28.368l-8.712,33.336h-9.936l11.376-43.632 c-1.632,0.96-3.553,1.44-5.76,1.44c-0.72,0-1.465-0.047-2.232-0.144l1.8-6.912c0.623,0.097,1.224,0.144,1.8,0.144 c3.12,0,5.496-1.631,7.128-4.896h11.808l0.504,21.6l11.808-21.6h12.024l-14.112,54h-9.936L137.958,29.511z"/>
<path d="M165.102,29.655l-8.929,34.2h-9.936l8.928-34.2H165.102z M162.797,24.111 c-1.633,0.048-3.024-0.324-4.176-1.116s-1.728-1.788-1.728-2.988c0-1.199,0.576-2.243,1.728-3.132 c1.152-0.887,2.543-1.355,4.176-1.404c1.631-0.047,3.023,0.324,4.176,1.116s1.729,1.789,1.729,2.988c0,1.2-0.576,2.245-1.729,3.132 C165.82,23.596,164.428,24.064,162.797,24.111z"/>
<path d="M186.917,77.535c-2.785,0-4.921-1.008-6.408-3.024c-1.104-1.488-1.704-3.24-1.8-5.256 c0-0.529,0.119-1.681,0.359-3.456c0.288-2.112,0.432-3.768,0.432-4.968c0-3.695-1.176-6.311-3.527-7.848l1.439-6.264 c6.145-1.536,9.479-3.96,10.009-7.272c-0.192-1.872-1.08-2.808-2.664-2.808c-1.057,0-2.365,0.444-3.925,1.332 c-1.56,0.889-2.892,2.509-3.996,4.86l-5.543,20.952h-9.072l13.536-51.12h9.071l-5.039,19.08c2.592-1.584,5.135-2.423,7.632-2.52 c2.783,0,4.896,0.864,6.336,2.592c1.296,1.537,1.823,3.265,1.584,5.184c-0.288,2.929-0.889,5.232-1.8,6.912 c-1.729,3.265-4.729,5.785-9,7.56c2.351,2.016,3.384,5.376,3.096,10.08c-0.097,0.864-0.145,1.632-0.145,2.304 c0,1.775,0.313,2.976,0.937,3.6c0.384,0.432,1.055,0.695,2.016,0.792c1.248,0,2.279-0.529,3.097-1.584l2.376,6.84 C194.188,75.999,191.188,77.343,186.917,77.535z"/>
<path d="M211.828,29.655l-8.928,34.2h-9.936l8.928-34.2H211.828z M209.524,24.111 c-1.632,0.048-3.023-0.324-4.176-1.116s-1.729-1.788-1.729-2.988c0-1.199,0.576-2.243,1.729-3.132 c1.152-0.887,2.544-1.355,4.176-1.404c1.632-0.047,3.024,0.324,4.176,1.116c1.152,0.792,1.729,1.789,1.729,2.988 c0,1.2-0.576,2.245-1.729,3.132C212.549,23.596,211.156,24.064,209.524,24.111z"/>
<path d="M237.028,39.375c-2.736-1.967-5.952-2.952-9.648-2.952c-0.816,0-1.632,0.264-2.447,0.792 c-0.817,0.529-1.225,1.177-1.225,1.944c0,0.769,1.032,1.681,3.096,2.736c2.881,1.44,4.8,2.545,5.761,3.312 c2.016,1.681,3.023,3.697,3.023,6.048c0,4.08-1.368,7.356-4.104,9.828c-2.736,2.473-6.169,3.708-10.296,3.708 c-1.394,0-3.36-0.288-5.904-0.864c-2.784-0.576-4.583-1.176-5.4-1.8l2.017-7.992c2.639,1.537,5.807,2.304,9.504,2.304 c3.168,0,4.752-0.887,4.752-2.664c0-1.343-0.948-2.544-2.844-3.6c-1.897-1.055-3.78-2.088-5.652-3.096 c-1.969-1.487-2.952-3.359-2.952-5.616c0-3.696,1.44-6.792,4.32-9.288c2.735-2.352,5.976-3.528,9.72-3.528 c4.271,0,7.704,0.889,10.296,2.664L237.028,39.375z"/>
<path d="M246.963,52.407c0.335,2.064,1.031,3.337,2.088,3.816c0.288,0.192,0.648,0.385,1.08,0.576 c3.456,0.048,6.455-1.224,9-3.816l-2.52,9.648c-2.017,1.296-4.177,1.944-6.48,1.944c-2.016,0-4.032-0.504-6.048-1.512 c-4.417-2.16-6.624-6.288-6.624-12.384c0-3.264,0.768-6.48,2.304-9.648c1.68-3.456,4.008-6.228,6.984-8.316 c2.976-2.088,5.976-3.132,9-3.132c1.68,0,3.24,0.336,4.68,1.008c3.791,1.296,5.688,4.176,5.688,8.64 c0,0.816-0.072,1.56-0.216,2.232c-0.673,3.024-2.497,5.688-5.473,7.992c-2.977,2.304-6.217,3.456-9.72,3.456 C249.411,52.911,248.162,52.744,246.963,52.407z M247.539,46.143c0.911,0.192,1.823,0.288,2.736,0.288 c2.399,0,4.367-0.576,5.903-1.728c1.584-1.392,2.376-2.783,2.376-4.176c0-0.768-0.288-1.512-0.863-2.232 c-0.576-0.72-1.249-1.08-2.017-1.08c-1.681,0-3.384,1.104-5.112,3.312C249.123,42.352,248.115,44.224,247.539,46.143z"/>
<path d="M270.579,63.207l-1.872-33.552h9.72l1.008,18.072l10.152-18.072h9.72v0.072h0.288l-0.216,0.432 l0.936,17.568l10.368-18h9.792l-19.224,34.056h-10.08l0.288-0.576l-0.937-17.64l-10.224,17.856l0.072,0.36h-10.08L270.579,63.207z"/>
</g>
</svg>