<svg xmlns="http://www.w3.org/2000/svg" width="150" height="38" viewBox="0 0 150 38">
  <g transform="translate(24.574 204.659)">
    <g transform="translate(-24.574 -204.659)">
      <path d="M-12.061-197.772h.071l3.277,11.577h-6.735Zm-4.859,16.634h9.752l1.7,6.042h6l-9.313-29.281h-6.366L-24.574-175.1h5.814Z" transform="translate(24.574 204.658)" fill="#0b308e"/>
      <path d="M7.576-196.794v21.7H2.426v-21.7Zm0-2.567H2.426v-5.3h5.15Z" transform="translate(24.574 204.659)" fill="#0b308e"/>
      <path d="M11.038-196.771h4.933v3.751h.071c1.066-2.2,2.245-4.321,5.372-4.321a8.582,8.582,0,0,1,.994.082v5.788a8.643,8.643,0,0,0-1.469-.082c-4.014,0-4.749,2.772-4.749,5.175v11.3H11.038Z" transform="translate(24.574 204.636)" fill="#0b308e"/>
    </g>
    <path d="M42.8-183.583c0,6.2-2.907,9.22-8.209,9.22-8.793,0-8.793-6.2-8.793-11.792h5.153c0,4.609.294,6.854,3.237,6.854,2.87,0,3.093-2.04,3.093-4.282v-20.8H42.8Z" transform="translate(0 -0.001)" fill="#0b308e"/>
    <path d="M57.451-182.87a4.425,4.425,0,0,1-4.6,4.288,2.36,2.36,0,0,1-2.393-2.615c0-2.364,1.585-2.894,3.5-3.263,2.132-.367,2.982-.737,3.494-1.185Zm5.044-8.2c0-5.339-5.044-6.278-7.8-6.278-4.01,0-8.169.939-8.761,7.581H50.9c.147-1.264.589-3.018,3.165-3.018,1.325,0,3.385.124,3.385,2.529,0,1.224-1,1.591-1.8,1.713l-4.64.776c-3.275.53-5.7,2.694-5.7,6.938,0,4.49,3.017,6.323,5.96,6.323a7.7,7.7,0,0,0,6.33-3.139,10.241,10.241,0,0,0,.478,2.57h5.556v-.858c-.626-.242-1.139-.817-1.139-3.387Z" transform="translate(0 -0.023)" fill="#0b308e"/>
    <path d="M71.021-185.439c0-3.469.847-6.975,4.382-6.975,3.273,0,4.376,3.221,4.376,6.648,0,2.569-.918,6.571-4.231,6.571C72.272-179.195,71.021-182.218,71.021-185.439Zm0-11.335H66.09v30.138h5.152v-11.213h.074a5.68,5.68,0,0,0,5.521,3.345c5.816,0,8.243-5.714,8.243-11.671,0-7.5-3.828-11.171-8.133-11.171-3.459,0-4.892,2-5.853,3.708h-.073Z" transform="translate(0 -0.023)" fill="#0b308e"/>
    <path d="M99.136-182.87a4.428,4.428,0,0,1-4.6,4.288,2.359,2.359,0,0,1-2.389-2.615c0-2.364,1.581-2.894,3.494-3.263,2.134-.367,2.979-.737,3.5-1.185Zm5.039-8.2c0-5.339-5.039-6.278-7.8-6.278-4.011,0-8.17.939-8.761,7.581h4.969c.148-1.264.59-3.018,3.167-3.018,1.324,0,3.388.124,3.388,2.529,0,1.224-1,1.591-1.806,1.713l-4.638.776c-3.273.53-5.7,2.694-5.7,6.938,0,4.49,3.017,6.323,5.96,6.323a7.7,7.7,0,0,0,6.33-3.139,10.516,10.516,0,0,0,.479,2.57h5.558v-.858c-.627-.242-1.142-.817-1.142-3.387Z" transform="translate(0 -0.023)" fill="#0b308e"/>
    <path d="M125.426-175.074h-5.153v-13.184c0-1.59-.073-4.278-3.351-4.278-2.28,0-4.047,1.712-4.047,5.014v12.447H107.72v-21.7h4.933v3.175h.076a6.282,6.282,0,0,1,5.886-3.748c3.829,0,6.811,2.488,6.811,7.256Z" transform="translate(0 -0.023)" fill="#0b308e"/>
  </g>
</svg>
