<?xml version="1.0" encoding="UTF-8" standalone="no"?>
<!-- Created with Inkscape (http://www.inkscape.org/) -->
<svg
   xmlns:svg="http://www.w3.org/2000/svg"
   xmlns="http://www.w3.org/2000/svg"
   version="1.0"
   width="744.09448"
   height="319.60629"
   id="svg2367">
  <defs
     id="defs2369" />
  <g
     transform="translate(-94.348044,388.33889)"
     id="g6542">
    <path
       d="M 378.17561,-277.6416 C 378.17561,-277.6416 398.67195,-304.45764 437.10259,-343.91313 C 448.03397,-355.18615 467.16394,-370.55841 487.8311,-370.55841 C 510.20627,-370.55841 524.04128,-354.1613 524.04128,-339.13062 C 524.04128,-323.92918 514.30556,-308.38611 493.80916,-308.38611 C 482.87778,-308.38611 473.65446,-316.24306 473.65446,-326.83281 C 473.65446,-332.29853 477.75369,-339.98465 487.48946,-339.98465 C 496.88366,-339.98465 499.10407,-329.73648 498.25003,-325.97883 C 498.25003,-325.97883 505.253,-328.54087 505.253,-337.25179 C 505.253,-346.13359 497.73764,-352.79487 487.8311,-352.79487 C 472.62961,-352.79487 457.76975,-338.61822 452.13326,-333.15256 C 429.58728,-310.60657 418.99747,-295.74672 418.99747,-295.74672 L 557.68947,-295.74672 L 550.00334,-277.6416 L 378.17561,-277.6416"
       style="fill:#1e285c;fill-rule:evenodd;stroke:none"
       id="path5659" />
    <path
       d="M 375.27193,-268.07664 C 375.27193,-268.07664 384.15367,-240.74815 396.10991,-214.61527 C 406.35808,-192.58174 423.09676,-179.08831 443.5931,-179.08831 C 462.89383,-179.08831 476.04568,-194.46056 476.04568,-209.32042 C 476.04568,-225.88829 463.91868,-236.9905 449.57122,-236.9905 C 434.19897,-236.9905 430.95371,-224.8635 430.95371,-221.789 C 430.95371,-214.61527 436.59019,-208.12481 443.5931,-208.12481 C 454.86613,-208.12481 455.7201,-217.68977 455.7201,-217.68977 C 455.7201,-217.68977 459.13618,-215.29848 459.13618,-209.32042 C 459.13618,-203.51312 454.52449,-196.16857 443.5931,-196.16857 C 435.05294,-196.16857 422.41355,-200.95108 413.53181,-220.42257 C 403.28364,-243.31019 402.4296,-249.80071 402.4296,-249.80071 L 538.21792,-249.80071 L 546.07487,-268.07664 L 375.27193,-268.07664"
       style="fill:#1e285c;fill-rule:evenodd;stroke:none"
       id="path5661" />
    <path
       d="M 553.07778,-97.102893 L 551.88217,-97.615283 L 550.51574,-96.419673 L 550.51574,-96.248853 C 549.66176,-93.003603 548.80773,-91.978803 547.61211,-91.637173 C 546.75808,-91.295593 544.53768,-90.783133 542.48803,-90.783133 L 541.634,-90.783133 C 534.46027,-90.783133 532.58144,-91.807983 532.41062,-96.248853 C 532.41062,-98.127683 532.41062,-102.73937 532.41062,-104.95978 L 532.41062,-110.25468 L 532.75226,-110.93789 C 534.11869,-110.93789 537.70552,-110.93789 540.26757,-110.76708 C 541.29242,-110.76708 542.14639,-110.76708 542.65885,-110.76708 C 544.53768,-110.59632 545.05007,-109.4007 545.39165,-108.20503 C 545.39165,-108.03427 546.07487,-106.49702 546.9289,-106.49702 C 548.46615,-106.32621 548.46615,-107.86345 548.46615,-107.86345 L 548.63691,-111.27953 L 549.14931,-113.67075 L 549.14931,-114.86637 C 549.14931,-115.89122 548.63691,-116.06198 548.12451,-116.06198 L 546.58726,-115.208 L 546.24568,-115.03719 C 545.73329,-114.69555 545.05007,-114.52479 544.02522,-114.35397 L 532.58144,-114.35397 L 532.41062,-115.03719 L 532.41062,-133.1423 L 532.58144,-133.6547 L 543.85446,-133.6547 C 546.4165,-133.1423 546.75808,-131.77587 546.9289,-131.26347 L 547.09972,-130.23862 L 547.4413,-129.04301 C 547.4413,-128.70143 547.95369,-127.8474 549.14931,-127.8474 C 549.32012,-127.8474 550.00334,-128.01822 550.17416,-129.04301 L 550.51574,-131.77587 L 550.68655,-133.48388 C 550.68655,-134.67949 550.85737,-135.19195 551.02819,-135.70434 L 551.19895,-136.04592 L 551.19895,-137.24154 L 550.17416,-137.75399 L 549.14931,-137.41235 L 548.29533,-137.24154 L 546.07487,-137.07078 C 545.90411,-137.07078 544.87925,-137.07078 543.68364,-137.07078 L 543.68364,-137.07078 C 538.90114,-137.07078 529.84858,-137.07078 528.14057,-137.07078 L 526.09092,-137.07078 L 526.09092,-137.07078 L 519.08801,-137.24154 C 517.55076,-137.24154 517.20918,-136.55832 517.20918,-136.04592 C 517.20918,-135.53353 517.38,-134.85031 518.57561,-134.67949 L 519.94204,-134.50873 L 521.13766,-134.1671 C 522.6749,-133.6547 523.35806,-133.1423 523.35806,-131.43424 L 523.35806,-130.58026 L 523.35806,-128.18898 C 523.35806,-126.13939 523.35806,-123.23571 523.35806,-118.11162 L 523.35806,-106.66784 C 523.35806,-102.73937 523.35806,-99.323293 523.35806,-96.590433 L 523.01648,-93.174413 C 522.84566,-91.124773 522.50409,-90.612373 521.82087,-90.612373 L 519.77122,-90.099923 L 518.57561,-89.929163 C 517.55076,-89.929163 517.20918,-89.245943 517.20918,-88.733543 C 517.20918,-88.050333 517.55076,-87.537873 519.08801,-87.537873 L 526.43256,-87.708693 L 527.79899,-87.708693 C 530.87343,-87.708693 534.63108,-87.537873 540.77996,-87.367113 C 543.17124,-87.367113 545.56247,-87.367113 547.95369,-87.367113 C 550.34498,-87.367113 551.88217,-87.367113 552.39456,-89.416763 L 553.07778,-94.028393 L 553.41942,-95.736463 L 553.07778,-97.102893"
       style="fill:#1e285c;fill-rule:evenodd;stroke:none"
       id="path5663" />
    <path
       d="M 192.51275,-88.904303 L 190.80474,-90.099923 C 187.90112,-90.441553 188.2427,-92.491203 188.2427,-94.370033 L 188.07188,-100.86054 C 187.90112,-102.56855 187.90112,-104.6182 187.90112,-106.83866 L 187.90112,-118.45326 C 187.90112,-124.43132 187.90112,-127.50576 188.07188,-129.55541 L 188.07188,-131.09266 C 188.2427,-132.97148 187.90112,-134.85031 190.80474,-135.02113 L 192.34199,-136.21674 L 190.80474,-137.58317 L 190.80474,-137.58317 L 176.28652,-137.58317 L 176.28652,-137.58317 L 174.74927,-136.21674 L 176.28652,-135.02113 C 179.01932,-134.85031 179.01932,-132.97148 179.01932,-131.09266 L 179.01932,-125.79775 C 179.01932,-123.91893 179.01932,-121.5277 179.01932,-118.45326 L 179.01932,-106.83866 C 179.01932,-104.6182 179.01932,-102.56855 179.01932,-100.86054 L 179.01932,-100.86054 L 179.01932,-94.711603 L 178.84856,-94.199213 L 179.01932,-94.199213 C 178.84856,-92.320383 179.01932,-90.441553 176.28652,-90.099923 L 174.57845,-88.904303 L 176.28652,-87.537873 L 190.80474,-87.537873 L 192.51275,-88.904303"
       style="fill:#1e285c;fill-rule:evenodd;stroke:none"
       id="path5665" />
    <path
       d="M 325.39745,-144.58608 L 311.56244,-144.58608 L 310.02519,-143.21965 L 311.56244,-141.85322 C 315.83249,-141.51165 315.66168,-140.14521 315.66168,-135.19195 C 315.66168,-126.48097 315.83249,-102.91019 315.83249,-102.91019 C 309.0004,-109.4007 300.97263,-117.25759 295.67773,-122.21092 C 290.21207,-127.50576 284.91716,-132.6299 280.81787,-136.55832 C 275.52303,-141.85322 271.76537,-145.7817 271.59455,-145.7817 L 270.39894,-146.12333 L 269.71573,-144.92766 C 269.71573,-144.92766 269.54491,-101.71452 269.54491,-96.932073 C 269.37409,-93.003603 269.54491,-90.441553 265.10404,-90.099923 L 263.56679,-88.904303 L 265.10404,-87.537873 L 279.79308,-87.537873 L 281.33033,-88.904303 L 279.79308,-90.099923 C 275.01057,-90.441553 275.52303,-93.003603 275.18139,-96.761253 L 275.18139,-129.55541 L 276.377,-128.3598 C 280.64711,-123.91893 285.42956,-119.13642 289.35803,-115.208 C 290.72446,-114.01233 292.26171,-112.47514 293.7989,-111.10871 C 298.23977,-107.00942 305.58432,-100.17733 310.02519,-96.078043 C 314.97852,-91.124773 318.56535,-87.537873 319.07775,-87.025483 L 320.44418,-86.513083 L 320.95658,-87.708693 L 321.29822,-135.36271 C 321.29822,-140.14521 321.1274,-141.51165 325.39745,-141.85322 L 326.76388,-143.21965 L 325.39745,-144.58608"
       style="fill:#1e285c;fill-rule:evenodd;stroke:none"
       id="path5667" />
    <path
       d="M 365.19458,-97.102893 L 364.16972,-97.615283 L 362.80329,-96.419673 L 362.80329,-96.248853 C 361.7785,-93.174413 361.09528,-91.978803 359.89967,-91.637173 C 358.70406,-91.295593 356.82523,-90.783133 354.60477,-90.783133 L 353.75074,-90.783133 C 346.57706,-90.783133 344.69818,-91.807983 344.52742,-96.248853 C 344.52742,-98.127683 344.52742,-102.73937 344.52742,-104.95978 L 344.52742,-110.25468 L 345.03981,-110.93789 C 346.23543,-110.93789 349.82232,-110.93789 352.55512,-110.76708 C 353.57998,-110.76708 354.43395,-110.76708 354.77559,-110.76708 C 356.82523,-110.59632 357.16681,-109.4007 357.67921,-108.20503 C 357.67921,-108.03427 358.19166,-106.49702 359.21646,-106.49702 C 360.75371,-106.32621 360.58289,-107.86345 360.58289,-107.86345 L 360.92447,-111.27953 L 361.2661,-113.67075 L 361.43692,-114.86637 C 361.43692,-115.89122 360.75371,-116.06198 360.41207,-116.06198 L 358.70406,-115.208 L 358.53324,-115.03719 C 357.85003,-114.69555 357.16681,-114.52479 356.14202,-114.35397 L 345.21063,-114.35397 L 344.52742,-114.86637 L 344.52742,-133.1423 L 345.21063,-133.6547 L 356.14202,-133.6547 C 358.36242,-133.48388 358.87482,-131.77587 359.04564,-131.26347 L 359.55804,-129.04301 C 359.72885,-128.70143 360.07049,-127.8474 361.2661,-127.8474 C 361.60768,-127.8474 362.2909,-128.01822 362.46172,-129.04301 L 362.80329,-131.77587 L 362.97411,-133.48388 C 362.97411,-134.67949 363.14493,-135.19195 363.31575,-135.70434 L 363.31575,-136.04592 L 363.31575,-137.24154 L 362.2909,-137.75399 L 361.2661,-137.41235 L 360.41207,-137.24154 L 358.36242,-137.07078 C 358.02085,-137.07078 357.16681,-137.07078 355.9712,-137.07078 L 355.9712,-137.07078 C 351.01793,-137.07078 341.96537,-137.07078 340.25731,-137.07078 L 338.20772,-137.07078 L 338.20772,-137.07078 L 331.20475,-137.24154 L 331.03399,-137.24154 L 330.86317,-137.24154 L 329.15516,-136.04592 L 330.86317,-134.67949 C 335.81644,-134.33791 335.30404,-132.6299 335.47486,-127.8474 C 335.47486,-125.96857 335.47486,-122.89413 335.47486,-118.11162 L 335.47486,-106.66784 C 335.47486,-102.91019 335.47486,-99.664933 335.47486,-97.102893 C 335.13322,-92.149563 335.81644,-90.441553 331.03399,-90.099923 L 329.32592,-88.733543 L 331.03399,-87.537873 L 338.72012,-87.708693 L 339.91573,-87.708693 C 342.99017,-87.708693 346.91864,-87.537873 353.06752,-87.367113 C 355.28798,-87.367113 357.67921,-87.367113 360.24125,-87.367113 C 362.63253,-87.367113 363.99896,-87.367113 364.68212,-89.416763 L 365.36534,-94.028393 L 365.53615,-95.736463 L 365.19458,-97.102893"
       style="fill:#1e285c;fill-rule:evenodd;stroke:none"
       id="path5669" />
    <path
       d="M 646.33622,-97.444473 L 645.31137,-97.786103 L 644.11576,-96.590433 L 643.945,-96.248853 C 643.09097,-93.003603 642.40775,-92.320383 641.21214,-91.807983 C 640.3581,-91.466353 638.30846,-91.124773 636.25881,-90.953953 L 634.20922,-90.953953 L 633.86759,-90.953953 L 631.81794,-91.124773 L 631.47636,-91.124773 L 631.30555,-91.124773 L 630.79315,-91.124773 L 629.76835,-91.466353 L 629.76835,-91.466353 L 629.59754,-91.466353 L 628.23111,-92.662023 C 627.71871,-93.003603 627.54789,-94.028393 627.37707,-95.224063 C 627.03549,-97.615283 627.03549,-101.37294 627.03549,-106.66784 L 627.03549,-118.11162 C 627.03549,-123.57735 627.03549,-126.65179 627.03549,-128.53061 C 627.03549,-130.06786 627.03549,-131.09266 627.03549,-131.43424 C 627.20625,-132.97148 627.54789,-133.82552 629.59754,-134.33791 L 632.3304,-134.67949 L 633.69677,-136.04592 C 633.69677,-136.55832 633.52601,-137.24154 632.15958,-137.41235 L 613.20043,-137.41235 C 611.49242,-137.41235 611.15078,-136.72914 611.15078,-136.04592 L 612.68803,-134.67949 L 613.88364,-134.50873 L 615.42089,-134.33791 C 617.29972,-133.82552 617.81212,-132.97148 617.81212,-131.43424 C 617.81212,-130.75102 617.98294,-127.8474 617.98294,-124.26056 C 617.98294,-122.72331 617.98294,-120.67367 617.98294,-118.11162 L 617.98294,-106.66784 C 617.98294,-101.88534 617.98294,-97.786103 617.81212,-94.882423 C 617.6413,-90.441553 615.76247,-90.441553 613.20043,-90.099923 L 611.834,-88.733543 L 613.37125,-87.537873 L 613.54207,-87.537873 L 614.05446,-87.537873 L 620.88656,-87.708693 L 623.10702,-87.708693 C 626.86468,-87.708693 629.42672,-87.537873 634.03841,-87.367113 L 634.03841,-87.367113 L 636.25881,-87.367113 C 637.96688,-87.367113 639.67489,-87.367113 641.55372,-87.367113 C 643.945,-87.367113 645.14061,-87.367113 645.82383,-89.587523 L 646.50704,-94.370033 L 646.6778,-95.907223 L 646.33622,-97.444473"
       style="fill:#1e285c;fill-rule:evenodd;stroke:none"
       id="path5671" />
    <path
       d="M 813.8939,-129.72623 C 806.03696,-137.24154 794.08078,-137.24154 785.19904,-137.24154 C 780.75811,-137.24154 776.31724,-137.07078 774.09683,-137.07078 L 772.7304,-137.07078 L 765.55667,-137.41235 L 765.04427,-137.24154 L 763.67784,-136.04592 L 765.38585,-134.67949 C 768.80193,-134.50873 769.14351,-131.94669 769.31433,-130.40944 L 769.31433,-130.06786 C 769.31433,-128.18898 769.31433,-125.28536 769.31433,-118.28244 L 769.31433,-106.66784 C 769.31433,-102.56855 769.31433,-98.981713 769.31433,-96.078043 L 769.14351,-95.053243 C 768.97275,-93.857633 769.31433,-90.612373 765.38585,-90.270733 L 763.67784,-89.075123 L 765.38585,-87.708693 L 765.72749,-87.708693 L 773.41362,-87.879513 L 773.58444,-87.879513 C 777.34209,-87.879513 783.66179,-87.025483 788.95669,-87.025483 C 802.2793,-87.025483 809.62385,-91.807983 813.03987,-94.711603 C 816.96834,-98.469323 820.72599,-104.78901 820.72599,-113.15836 C 820.72599,-120.84449 817.48074,-126.31015 813.8939,-129.72623 z M 805.18298,-94.882423 C 800.91287,-91.466353 795.9596,-90.099923 788.61506,-90.099923 C 782.97857,-90.099923 780.24571,-91.466353 779.22092,-92.832783 C 778.70852,-93.515993 778.5377,-96.078043 778.5377,-97.786103 C 778.36688,-98.981713 778.36688,-104.1058 778.36688,-110.93789 L 778.36688,-119.30724 C 778.36688,-124.43132 778.36688,-130.23862 778.36688,-132.28827 L 779.22092,-133.6547 C 779.73332,-133.99628 782.46618,-134.1671 783.83261,-134.1671 C 789.46909,-134.1671 797.66761,-133.31306 804.32895,-127.67658 C 807.40339,-124.94372 811.16104,-119.64887 811.16104,-111.27953 C 811.16104,-104.44738 809.79461,-98.469323 805.18298,-94.882423"
       style="fill:#1e285c;fill-rule:evenodd;stroke:none"
       id="path5673" />
    <path
       d="M 510.88948,-99.835693 L 509.35224,-98.810903 L 509.35224,-98.810903 C 509.35224,-98.810903 508.66902,-96.761253 508.15662,-95.736463 C 506.96101,-93.345173 504.91137,-91.466353 497.90845,-91.466353 L 475.70405,-91.466353 C 482.0238,-100.34814 497.39606,-121.86928 507.47341,-136.38756 C 508.66902,-138.43721 510.20627,-140.48679 511.5727,-142.36562 L 511.91428,-143.39047 L 511.74346,-143.73205 L 510.54785,-144.41527 L 503.88657,-144.41527 L 503.88657,-144.41527 L 501.83693,-144.41527 L 501.83693,-144.41527 L 486.12303,-144.41527 C 484.7566,-144.41527 483.04859,-144.41527 480.48655,-144.41527 L 480.48655,-144.41527 C 474.33762,-144.41527 471.26318,-144.92766 468.87195,-145.09848 C 466.82231,-145.2693 466.82231,-143.73205 466.48073,-140.82843 C 466.13909,-138.26639 465.62669,-135.19195 465.62669,-134.50873 C 465.62669,-134.1671 465.79751,-132.97148 467.16394,-132.97148 C 468.18874,-132.97148 468.70113,-133.82552 469.04277,-134.50873 L 469.38435,-135.53353 C 470.57996,-138.60797 471.77557,-140.14521 477.75369,-140.31603 L 477.75369,-140.14521 L 498.93325,-140.14521 C 492.78437,-131.60505 478.26609,-111.10871 468.35955,-97.102893 C 466.82231,-94.711603 464.94348,-92.149563 463.06465,-89.758343 L 463.06465,-89.587523 L 462.55225,-88.391913 L 462.55225,-88.050333 L 464.08944,-87.537873 L 473.65446,-87.537873 C 483.21941,-87.367113 492.61355,-87.367113 502.00774,-87.367113 L 507.81505,-87.196303 C 509.52305,-87.196303 510.37709,-87.367113 510.71867,-88.562733 L 510.71867,-88.733543 C 511.74346,-92.491203 511.91428,-96.419673 511.91428,-98.127683 L 510.88948,-99.835693"
       style="fill:#1e285c;fill-rule:evenodd;stroke:none"
       id="path5675" />
    <path
       d="M 698.94351,-90.099923 C 695.52749,-90.441553 694.50264,-93.345173 693.30702,-95.565643 L 693.30702,-95.565643 L 693.13621,-96.078043 L 677.25155,-133.82552 C 676.2267,-136.72914 675.37273,-138.43721 675.37273,-138.43721 L 674.34787,-139.462 L 673.15226,-138.43721 L 655.5596,-95.736463 C 654.36393,-93.515993 653.50995,-90.270733 650.2647,-90.099923 L 648.72745,-88.904303 L 650.2647,-87.537873 L 662.73327,-87.537873 L 664.27052,-88.904303 L 662.73327,-90.099923 C 659.31725,-90.441553 659.14644,-91.466353 661.3669,-97.102893 L 661.8793,-98.640083 L 664.78292,-105.47223 L 665.46613,-107.35106 L 665.97853,-107.52182 L 678.61798,-107.52182 L 679.3012,-107.00942 L 679.3012,-106.83866 C 682.37564,-99.323293 685.1085,-91.978803 685.27926,-91.637173 C 685.79171,-90.270733 685.45008,-90.099923 684.93768,-89.929163 L 684.08365,-88.733543 L 685.45008,-87.537873 C 685.45008,-87.537873 687.67054,-87.537873 690.23258,-87.537873 C 693.99024,-87.537873 698.94351,-87.537873 698.94351,-87.537873 L 700.48075,-88.904303 L 698.94351,-90.099923 z M 677.59313,-111.27953 L 677.25155,-110.93789 L 667.51578,-110.93789 L 667.1742,-111.27953 L 667.6866,-112.64596 L 672.46905,-124.26056 C 673.32308,-122.55249 675.20191,-117.42841 677.42237,-111.79193 L 677.59313,-111.27953"
       style="fill:#1e285c;fill-rule:evenodd;stroke:none"
       id="path5677" />
    <path
       d="M 606.88073,-90.099923 C 603.63547,-90.441553 602.43986,-93.345173 601.41501,-95.565643 L 601.58583,-95.565643 L 601.24425,-96.078043 L 585.35954,-133.82552 C 584.16393,-136.72914 583.48071,-138.43721 583.48071,-138.43721 L 582.45592,-139.462 L 581.26031,-138.43721 L 563.66759,-95.736463 C 562.64279,-93.515993 561.61794,-90.270733 558.37268,-90.099923 L 556.83549,-88.904303 L 558.37268,-87.537873 L 570.84132,-87.537873 L 572.37851,-88.904303 L 570.84132,-90.099923 C 567.59606,-90.441553 567.25442,-91.466353 569.47489,-97.102893 L 569.98728,-98.640083 L 572.89096,-105.47223 L 573.57418,-107.35106 L 574.08657,-107.52182 L 586.72597,-107.52182 L 587.40918,-107.00942 L 587.40918,-106.83866 C 590.48362,-99.323293 593.21649,-91.978803 593.3873,-91.637173 C 593.8997,-90.270733 593.72888,-90.099923 593.04567,-89.929163 L 592.02087,-88.733543 L 593.72888,-87.537873 C 593.72888,-87.537873 595.77853,-87.537873 598.16975,-87.537873 C 602.09823,-87.537873 607.05155,-87.537873 607.05155,-87.537873 L 608.58874,-88.904303 L 606.88073,-90.099923 z M 585.70118,-111.27953 L 585.35954,-110.93789 L 575.62377,-110.93789 L 575.28219,-111.27953 L 575.79458,-112.64596 L 580.57709,-124.26056 C 581.26031,-122.55249 583.30995,-117.42841 585.53036,-111.79193 L 585.70118,-111.27953"
       style="fill:#1e285c;fill-rule:evenodd;stroke:none"
       id="path5679" />
    <path
       d="M 247.85295,-90.099923 L 247.85295,-90.099923 L 246.31571,-90.270733 L 244.26606,-90.953953 L 242.89963,-91.637173 L 240.84998,-93.003603 C 237.26315,-95.394823 234.7011,-98.981713 231.96824,-102.39773 L 230.08942,-104.95978 C 227.52737,-108.37585 226.16094,-109.9131 224.96533,-110.93789 C 226.67334,-111.62111 229.23538,-112.81672 231.45585,-115.208 C 233.67631,-117.59923 234.87192,-120.67367 234.87192,-124.26056 L 234.87192,-125.62693 C 234.35953,-130.06786 231.11427,-133.48388 229.23538,-134.67949 C 225.47773,-137.41235 220.35364,-137.58317 216.42517,-137.58317 L 211.64272,-137.58317 C 209.93465,-137.41235 208.39746,-137.41235 207.37261,-137.41235 L 206.86021,-137.41235 L 202.76098,-137.41235 L 198.83251,-137.58317 L 198.49087,-137.58317 L 197.80766,-137.41235 L 196.95368,-136.21674 L 198.49087,-135.02113 C 202.76098,-134.67949 202.93174,-133.6547 203.10256,-131.26347 L 203.10256,-130.40944 L 203.10256,-130.40944 L 203.10256,-126.65179 C 203.10256,-124.77296 203.10256,-122.21092 203.10256,-118.45326 L 203.10256,-106.83866 C 203.10256,-102.73937 203.10256,-98.810903 202.93174,-95.907223 L 202.93174,-95.736463 L 202.93174,-94.711603 L 202.93174,-94.711603 C 202.93174,-91.124773 202.41934,-90.441553 199.34491,-90.099923 L 197.63684,-88.904303 L 199.34491,-87.537873 L 216.08359,-87.537873 L 217.7916,-88.904303 L 216.08359,-90.099923 C 211.13032,-90.953953 211.81348,-94.028393 211.64272,-96.932073 L 211.64272,-98.298503 C 211.64272,-100.34814 211.64272,-102.91019 211.64272,-105.64299 L 211.64272,-109.57146 L 212.32594,-109.57146 L 212.83833,-109.57146 C 214.54634,-109.74228 216.76681,-109.74228 219.15803,-106.32621 L 219.84125,-105.13059 C 221.89089,-102.05615 226.67334,-94.711603 230.94345,-90.783133 C 232.48064,-89.416763 234.01789,-88.733543 235.38432,-88.221093 L 235.7259,-88.050333 C 236.57993,-87.879513 237.94636,-87.537873 241.19162,-87.367113 L 241.19162,-87.367113 L 245.97413,-87.367113 L 247.85295,-87.367113 L 249.39015,-88.733543 L 247.85295,-90.099923 z M 219.67043,-114.01233 C 217.62078,-113.32912 213.17991,-113.49994 211.64272,-113.67075 L 211.64272,-133.1423 L 211.81348,-133.48388 C 212.66752,-133.6547 214.03395,-133.82552 215.74195,-133.82552 C 220.86604,-133.82552 226.16094,-130.40944 226.16094,-124.08974 C 226.16094,-117.08683 223.0865,-115.03719 219.67043,-114.01233"
       style="fill:#1e285c;fill-rule:evenodd;stroke:none"
       id="path5681" />
    <path
       d="M 169.79601,-90.099923 L 169.79601,-90.099923 C 167.23396,-90.270733 165.35508,-94.370033 163.47625,-98.127683 L 162.62228,-99.835693 C 157.83977,-110.76708 143.15073,-145.2693 143.15073,-145.2693 L 141.95512,-146.46491 L 140.7595,-145.44012 L 121.28796,-96.932073 C 120.09234,-94.028393 118.72591,-92.149563 117.35948,-91.124773 L 115.65147,-90.441553 L 115.13902,-90.441553 L 113.60183,-90.099923 L 112.06458,-88.904303 L 112.06458,-88.733543 C 112.2354,-87.708693 113.26019,-87.537873 114.11423,-87.537873 C 115.13902,-87.537873 129.48648,-87.537873 129.48648,-87.537873 L 130.85291,-88.904303 L 129.31566,-90.099923 L 129.1449,-90.099923 C 126.24122,-90.270733 125.04561,-91.124773 126.24122,-94.882423 L 126.41204,-95.736463 L 127.60765,-99.152473 L 131.70695,-109.57146 L 132.04852,-110.08392 L 132.56092,-110.25468 L 148.10399,-110.25468 L 148.78721,-109.9131 L 154.08211,-96.761253 L 154.42369,-95.907223 L 156.30258,-91.124773 L 156.30258,-90.953953 L 155.79012,-90.099923 L 155.44854,-89.929163 L 154.59451,-88.904303 L 156.13176,-87.537873 L 169.62519,-87.537873 L 171.3332,-88.733543 L 169.79601,-90.099923 z M 147.0792,-114.18315 L 146.73756,-113.84157 L 133.92735,-113.84157 L 133.75653,-114.18315 L 140.24705,-131.26347 L 147.0792,-114.18315"
       style="fill:#1e285c;fill-rule:evenodd;stroke:none"
       id="path5683" />
    <path
       d="M 759.23697,-137.24154 L 759.23697,-137.41235 L 745.91431,-137.41235 L 744.37712,-136.04592 L 745.91431,-134.67949 L 745.91431,-134.67949 C 750.0136,-134.33791 749.84278,-131.94669 749.84278,-129.38465 L 749.5012,-101.88534 C 746.76834,-104.6182 711.92454,-137.92475 711.58296,-138.09557 L 711.0705,-138.43721 L 710.21653,-138.60797 L 709.53331,-137.24154 L 708.8501,-97.786103 L 708.8501,-95.565643 C 708.8501,-92.832783 709.02092,-90.612373 705.09244,-90.099923 L 703.55519,-88.904303 L 705.09244,-87.537873 L 718.41505,-87.537873 L 719.9523,-88.904303 L 718.41505,-90.099923 C 714.31576,-90.612373 714.82822,-92.832783 714.6574,-95.565643 L 714.48658,-97.786103 L 714.82822,-122.72331 C 718.58587,-118.96566 752.40482,-87.367113 752.74646,-87.025483 L 754.11289,-86.683903 L 754.62529,-87.708693 L 754.7961,-91.124773 L 754.62529,-91.124773 L 754.7961,-93.174413 L 755.3085,-129.38465 C 755.3085,-132.11745 755.13768,-134.33791 759.06616,-134.67949 L 760.6034,-136.04592 L 759.23697,-137.24154"
       style="fill:#1e285c;fill-rule:evenodd;stroke:none"
       id="path5685" />
    <path
       d="M 448.88801,-136.04592 L 447.35076,-137.24154 L 434.02815,-137.24154 L 434.02815,-137.24154 L 434.02815,-137.24154 L 433.34493,-137.07078 L 433.34493,-137.07078 L 433.34493,-137.07078 L 432.4909,-135.87516 L 433.51575,-134.67949 L 433.68651,-134.67949 L 433.68651,-134.67949 C 435.22376,-134.33791 437.95662,-134.85031 435.73616,-128.70143 L 426.34202,-102.73937 L 411.99456,-134.67949 C 411.65298,-135.70434 411.31134,-136.38756 410.96976,-136.89996 L 409.77415,-138.09557 L 409.09094,-137.92475 C 408.7493,-137.58317 408.40772,-137.07078 408.06609,-136.04592 L 393.54786,-102.22697 L 384.32449,-129.38465 C 383.12887,-133.82552 385.0077,-134.50873 385.69092,-134.67949 L 385.86174,-134.67949 L 386.0325,-134.67949 L 387.05735,-135.87516 L 385.5201,-137.24154 L 369.46463,-137.24154 L 367.92738,-136.04592 L 368.95223,-134.67949 L 368.95223,-134.67949 C 373.22228,-133.99628 374.58871,-131.26347 375.10111,-129.72623 C 376.46754,-126.8226 378.34637,-120.84449 379.2004,-117.94081 C 383.64127,-105.47223 389.44857,-88.904303 389.44857,-88.904303 C 390.13179,-87.196303 390.47337,-86.513083 391.15658,-86.513083 L 391.66904,-86.683903 C 392.18143,-86.683903 392.52301,-87.367113 393.20623,-88.733543 L 407.89527,-122.72331 L 422.58437,-89.587523 C 423.60916,-87.537873 424.12156,-86.683903 424.63401,-86.513083 L 424.97559,-86.513083 L 425.14641,-86.513083 C 426.00038,-86.683903 426.34202,-87.367113 427.02524,-89.587523 C 430.44131,-99.494113 441.20188,-129.04301 441.3727,-129.04301 C 442.39749,-131.60505 442.56831,-134.1671 447.69239,-134.67949 L 447.69239,-134.67949 L 448.88801,-136.04592"
       style="fill:#1e285c;fill-rule:evenodd;stroke:none"
       id="path5687" />
  </g>
</svg>
