<?xml version="1.0" encoding="UTF-8" standalone="no"?>
<!-- Created with Inkscape (http://www.inkscape.org/) -->
<svg
   xmlns:svg="http://www.w3.org/2000/svg"
   xmlns="http://www.w3.org/2000/svg"
   version="1.0"
   width="744.09448"
   height="165.82677"
   id="svg2231">
  <defs
     id="defs2233" />
  <g
     transform="translate(-22.113053,-405.91327)"
     id="layer1">
    <g
       transform="translate(17.716643,17.683608)"
       id="g2426">
      <path
         d="M 69.46875,-31.96875 L 16.34375,28.78125 L 77.4375,28.78125 L 130.5625,-31.96875 L 69.46875,-31.96875 z M 141.46875,-1.40625 L 82.875,31.875 L 140.84375,65.40625 L 199.75,32.4375 L 141.46875,-1.40625 z M 16.34375,34.6875 L 69.46875,95.4375 L 130.5625,95.4375 L 77.4375,34.6875 L 16.34375,34.6875 z "
         transform="translate(5.769303,437.88202)"
         style="fill:#00aabf;fill-rule:nonzero;stroke:none"
         id="path4340" />
      <path
         d="M 279.99209,459.38294 L 288.7179,459.38294 L 288.7179,443.70772 L 279.99209,443.70772 L 279.99209,459.38294 z "
         style="fill:#062647;fill-rule:nonzero;stroke:none"
         id="path4346" />
      <path
         d="M 279.99209,535.79622 L 288.7179,535.79622 L 288.7179,467.71929 L 279.99209,467.71929 L 279.99209,535.79622 z "
         style="fill:#062647;fill-rule:nonzero;stroke:none"
         id="path4348" />
      <path
         d="M 301.96243,467.71929 L 310.68827,467.71929 L 310.68827,477.55137 L 310.99992,477.55137 C 315.05117,467.96856 322.8421,466.47273 330.16556,465.97408 L 330.16556,475.18298 C 324.08867,475.6816 318.79082,477.92536 315.51864,481.89869 C 312.40226,485.63833 310.68827,490.48431 310.68827,495.96918 L 310.68827,535.79622 L 301.96243,535.79622 L 301.96243,467.71929"
         style="fill:#062647;fill-rule:nonzero;stroke:none"
         id="path4350" />
      <path
         d="M 380.65065,451.85698 C 373.17138,447.04221 361.95249,444.31539 350.73357,444.31539 L 345.1241,444.31539 L 345.27993,452.02831 L 346.05901,452.02831 C 359.61516,452.02831 368.18519,453.77356 376.44358,459.13367 C 385.94848,466.0988 392.18124,477.42673 392.18124,489.61176 C 392.18124,505.67661 383.29957,515.25938 377.6901,519.98077 C 367.09445,527.44438 354.47317,527.44438 346.05901,527.44438 L 323.93283,527.44438 L 324.08867,535.79622 L 350.73357,535.79622 C 361.95249,535.79622 373.17138,533.0694 380.65065,528.25468 C 397.94648,517.12919 401.37449,498.83616 401.37449,490.29735 C 401.37449,479.29658 396.69997,461.87614 380.65065,451.85698"
         style="fill:#062647;fill-rule:nonzero;stroke:none"
         id="path4352" />
      <path
         d="M 438.61507,464.93013 C 420.69594,464.93013 403.2443,479.62377 403.2443,501.15781 C 403.2443,519.5756 418.82615,536.37282 438.61507,536.37282 C 459.02725,536.37282 474.45328,519.20161 474.45328,500.65929 C 474.45328,481.99224 458.87143,464.93013 438.61507,464.93013 z M 438.77086,528.53514 C 424.74725,528.53514 411.97016,516.83319 411.97016,501.03318 C 411.97016,482.97393 426.30544,472.78334 438.77086,472.78334 C 450.45723,472.78334 465.72742,482.36613 465.72742,500.28524 C 465.72742,518.07977 452.01545,528.53514 438.77086,528.53514"
         style="fill:#062647;fill-rule:nonzero;stroke:none"
         id="path4354" />
      <path
         d="M 527.11983,464.93013 C 509.20074,464.93013 491.59329,479.62377 491.59329,501.15781 C 491.59329,519.5756 507.17512,536.37282 527.11983,536.37282 C 547.53203,536.37282 562.80222,519.20161 562.80222,500.65929 C 562.80222,481.99224 547.22041,464.93013 527.11983,464.93013 z M 527.11983,528.53514 C 513.09616,528.53514 500.31909,516.83319 500.31909,501.03318 C 500.31909,482.97393 514.8102,472.78334 527.11983,472.78334 C 538.96201,472.78334 554.07639,482.36613 554.07639,500.28524 C 554.07639,518.07977 540.36439,528.53514 527.11983,528.53514"
         style="fill:#062647;fill-rule:nonzero;stroke:none"
         id="path4356" />
      <path
         d="M 478.66035,535.79622 L 487.23035,535.79622 L 487.23035,446.90198 L 478.66035,446.90198 L 478.66035,535.79622 z "
         style="fill:#062647;fill-rule:nonzero;stroke:none"
         id="path4358" />
      <path
         d="M 576.98166,475.55697 C 580.87711,469.44882 587.57732,465.97408 595.52405,465.97408 C 605.34061,465.97408 613.75477,470.69538 618.4293,479.04723 C 623.88296,470.44612 631.67386,465.97408 641.33456,465.97408 C 657.38391,465.97408 668.60283,477.17746 668.60283,495.34589 L 668.60283,535.79622 L 659.87705,535.79622 L 659.87705,496.34309 C 659.87705,481.77405 653.02094,473.81171 641.33456,473.81171 C 629.80404,473.81171 622.79227,481.77405 622.79227,496.34309 L 622.79227,535.79622 L 614.06641,535.79622 L 614.06641,496.34309 C 614.06641,481.77405 607.21043,473.81171 595.52405,473.81171 C 583.99348,473.81171 576.98166,481.77405 576.98166,496.34309 L 576.98166,535.79622 L 568.25583,535.79622 L 568.25583,467.71929 L 576.98166,467.71929 L 576.98166,475.55697"
         style="fill:#062647;fill-rule:nonzero;stroke:none"
         id="path4360" />
      <path
         d="M 677.48448,459.38294 L 686.0544,459.38294 L 686.0544,446.90198 L 677.48448,446.90198 L 677.48448,459.38294 z "
         style="fill:#062647;fill-rule:nonzero;stroke:none"
         id="path4362" />
      <path
         d="M 677.48448,535.79622 L 686.0544,535.79622 L 686.0544,467.71929 L 677.48448,467.71929 L 677.48448,535.79622 z "
         style="fill:#062647;fill-rule:nonzero;stroke:none"
         id="path4364" />
      <path
         d="M 697.11761,446.88636 L 705.68753,446.88636 L 705.68753,467.71929 L 714.56918,467.71929 L 714.56918,475.55697 L 705.68753,475.55697 L 705.68753,535.79622 L 697.11761,535.79622 L 697.11761,446.88636"
         style="fill:#062647;fill-rule:nonzero;stroke:none"
         id="path4366" />
      <path
         d="M 722.20433,459.38294 L 730.77425,459.38294 L 730.77425,446.90198 L 722.20433,446.90198 L 722.20433,459.38294 z "
         style="fill:#062647;fill-rule:nonzero;stroke:none"
         id="path4368" />
      <path
         d="M 722.20433,535.79622 L 730.77425,535.79622 L 730.77425,467.71929 L 722.20433,467.71929 L 722.20433,535.79622 z "
         style="fill:#062647;fill-rule:nonzero;stroke:none"
         id="path4370" />
      <path
         d="M 259.26827,446.82404 L 259.26827,446.88636 L 256.3077,446.88636 L 199.1224,535.79622 L 210.80874,535.79622 L 230.59768,504.85075 L 259.26827,504.85075 L 259.26827,535.79622 L 269.39643,535.79622 L 269.39643,446.82404 L 259.26827,446.82404 z M 236.05129,496.4054 L 259.26827,460.00624 L 259.26827,496.4054 L 236.05129,496.4054"
         style="fill:#062647;fill-rule:nonzero;stroke:none"
         id="path4372" />
    </g>
  </g>
</svg>
