<?xml version="1.0" encoding="UTF-8" standalone="no"?>
<!-- Created with Inkscape (http://www.inkscape.org/) -->

<svg
   width="100"
   height="15"
   viewBox="0 0 26.458333 3.9687501"
   version="1.1"
   id="svg5"
   inkscape:version="1.1 (c68e22c387, 2021-05-23)"
   sodipodi:docname="Air Macau Logo.svg"
   xmlns:inkscape="http://www.inkscape.org/namespaces/inkscape"
   xmlns:sodipodi="http://sodipodi.sourceforge.net/DTD/sodipodi-0.dtd"
   xmlns="http://www.w3.org/2000/svg"
   xmlns:svg="http://www.w3.org/2000/svg"
   xmlns:rdf="http://www.w3.org/1999/02/22-rdf-syntax-ns#"
   xmlns:cc="http://creativecommons.org/ns#"
   xmlns:dc="http://purl.org/dc/elements/1.1/">
  <title
     id="title7982">Air Serbia logo</title>
  <sodipodi:namedview
     id="namedview7"
     pagecolor="#ffffff"
     bordercolor="#111111"
     borderopacity="1"
     inkscape:pageshadow="0"
     inkscape:pageopacity="0"
     inkscape:pagecheckerboard="1"
     inkscape:document-units="px"
     showgrid="false"
     objecttolerance="1"
     gridtolerance="1"
     guidetolerance="1"
     units="px"
     inkscape:zoom="5.6568545"
     inkscape:cx="96.431683"
     inkscape:cy="18.738329"
     inkscape:window-width="1366"
     inkscape:window-height="746"
     inkscape:window-x="-8"
     inkscape:window-y="-8"
     inkscape:window-maximized="1"
     inkscape:current-layer="layer1"
     height="28px" />
  <defs
     id="defs2" />
  <g
     inkscape:label="Capa 1"
     inkscape:groupmode="layer"
     id="layer1">
    <rect
       opacity="0"
       fill="#ffffff"
       width="11.402814"
       height="5.3821521"
       id="rect4-0"
       x="10.327773"
       y="7.4971809"
       style="stroke-width:0.0912222" />
    <g
       id="g4019"
       transform="matrix(0.82861433,0,0,0.82861433,-279.92653,-255.11515)">
      <polygon
         transform="matrix(0.26458333,0,0,0.26458333,244.15998,305.92842)"
         style="fill:#312667"
         points="109.311,23.205 109.089,23.736 "
         id="polygon3711" />
      <path
         style="fill:#312667;stroke-width:0.264583"
         inkscape:connector-curvature="0"
         d="m 277.65808,311.28597 -1.27344,-3.12605 c 0.0143,0.0717 0.036,0.1479 0.073,0.22886 z"
         id="path3713" />
      <polygon
         transform="matrix(0.26458333,0,0,0.26458333,244.15998,305.92842)"
         style="fill:#312667"
         points="216.176,24.847 216.374,24.365 216.162,24.847 "
         id="polygon3717" />
      <path
         style="fill:#312667;stroke-width:0.264583"
         inkscape:connector-curvature="0"
         d="m 305.58909,311.65903 -1.16417,-2.85671 c 0.0148,0.0661 0.0352,0.13653 0.0654,0.20929 z"
         id="path3719" />
      <polygon
         transform="matrix(0.26458333,0,0,0.26458333,244.15998,305.92842)"
         style="fill:#312667"
         points="264.324,24.847 264.514,24.365 264.317,24.847 "
         id="polygon3723" />
      <path
         style="fill:#312667;stroke-width:0.264583"
         inkscape:connector-curvature="0"
         d="m 318.32771,311.65903 -1.1631,-2.85671 c 0.0108,0.0661 0.0331,0.13653 0.0638,0.20929 z"
         id="path3725" />
      <path
         style="fill:#312667;stroke-width:0.264583"
         inkscape:connector-curvature="0"
         d="m 279.97795,323.13004 c -0.0222,0.014 -0.005,0.006 0,0 z"
         id="path3749" />
    </g>
    <path
       id="path36256-8"
       d="m 5.8126389,3.782797 0.315684,-1.5065924 c 0.06288,-0.302228 0.159547,-0.5561364 0.289151,-0.7604076 0.129991,-0.2042569 0.283472,-0.3685447 0.460071,-0.4911375 0.16963,-0.11608293 0.358404,-0.20132781 0.557655,-0.25182451 0.199458,-0.051922 0.404796,-0.077847 0.610901,-0.077124 0.01518,0 0.0343,5.729e-4 0.05686,5.729e-4 0.02292,3.796e-4 0.215071,7.162e-4 0.229846,7.162e-4 0,0 -0.1171,0.1417287 -0.196494,0.34902931 -0.06009,0.1582219 -0.06424,0.4759835 -0.06424,0.4759835 l -0.322696,-0.00215 c -0.241783,-0.00143 -0.415159,0.051564 -0.543439,0.1587877 -0.128666,0.1080117 -0.217155,0.2779787 -0.265847,0.5102877 l -0.33293,1.5929974 z m 2.3896,-1.1001483 0.721935,7.161e-4 c -0.02843,0.2038917 0.01196,0.3467591 0.12013,0.4280507 0.111606,0.0955 0.287639,0.1434404 0.528478,0.1434404 0.213359,0 0.385031,-0.036596 0.5157731,-0.1118003 0.126109,-0.06911 0.218215,-0.1870188 0.254668,-0.3261048 0.0593,-0.2175274 -0.201607,-0.3941261 -0.7838981,-0.5311209 l -0.01762,-0.00988 -0.07693,-0.020482 C 9.1346979,2.1804321 8.9222839,2.1016041 8.8273559,2.0201262 8.7106289,1.9447142 8.6435529,1.8363301 8.6282059,1.6936417 c -0.03559,-0.1227861 -0.02707,-0.2787306 0.02521,-0.4691584 0.09133,-0.33292991 0.280055,-0.59517451 0.56637,-0.78485041 0.283658,-0.1837961 0.649553,-0.2745626 1.0965461,-0.2739968 0.419707,0 0.716636,0.09588 0.892282,0.2861286 0.175653,0.211082 0.224166,0.48640368 0.144772,0.82633771 l -0.413083,-3.795e-4 c -0.158214,-7.162e-4 -0.251631,-0.072003 -0.28138,-0.2150638 -0.01504,-0.065959 -0.04877,-0.12615933 -0.0972,-0.17337601 -0.09967,-0.08811 -0.256,-0.1326405 -0.469359,-0.1326405 -0.2063481,0 -0.3647561,0.036954 -0.4746581,0.111793 -0.119041,0.068966 -0.205862,0.18238531 -0.241405,0.31530521 -0.0502,0.1841828 0.11218,0.3200389 0.486597,0.4089076 0.107439,0.034304 0.1881581,0.054572 0.2414051,0.06159 0.112366,0.041108 0.211468,0.073142 0.298253,0.097205 0.08621,0.024278 0.154806,0.042468 0.206155,0.055861 0.08527,0.041108 0.17016,0.082051 0.255806,0.1226 0.115016,0.081857 0.192898,0.1872122 0.233254,0.3164366 0.03617,0.1428746 0.03108,0.2990125 -0.01518,0.4691656 C 10.98197,3.0825402 10.77941,3.3684755 10.476051,3.5717871 10.176464,3.7616558 9.7995759,3.8567766 9.3451919,3.8567766 8.8775449,3.8560605 8.5533379,3.7569148 8.3742759,3.559662 8.1736069,3.3624092 8.1167649,3.0696561 8.2022249,2.6825413 m 3.2053241,1.0956006 0.860828,-3.14052561 c 0.02786,-0.1023183 0.08754,-0.1891029 0.179248,-0.2597811 0.09153,-0.072003 0.190056,-0.1057343 0.293326,-0.1057343 l 2.207308,3.796e-4 -0.164474,0.6008537 H 12.9257 l -0.206728,0.75396221 1.383241,-5.658e-4 -0.0646,0.2366633 c -0.02786,0.1019458 -0.08754,0.1889167 -0.179822,0.2594086 -0.09152,0.07181 -0.189862,0.1057272 -0.292753,0.1057272 L 12.555277,2.2278135 12.308,3.1261542 14.166465,3.1265337 13.987023,3.7779915 H 11.40757 Z m 3.243223,0.0043 0.861587,-3.14431421 c 0.02786,-0.1023182 0.08754,-0.1885371 0.178869,-0.259781 0.09247,-0.071473 0.19176,-0.1070592 0.294272,-0.1070592 l 1.350268,0.00215 c 0.385224,0 0.648607,0.081857 0.789584,0.2449994 0.145711,0.1703466 0.174329,0.41800288 0.0847,0.74448741 -0.0593,0.2175273 -0.157277,0.3979217 -0.292567,0.5406029 -0.119757,0.1360495 -0.277592,0.2341996 -0.473141,0.2955963 0.143061,0.054572 0.230977,0.1360495 0.263384,0.2444336 0.03373,0.1025116 0.02428,0.2753218 -0.02936,0.5207079 l -0.09399,0.4178096 c -0.01139,0.041108 -0.02292,0.08546 -0.03638,0.1328267 -0.01289,0.047338 -0.02141,0.091905 -0.02593,0.132261 -0.01289,0.1224066 0.0091,0.2012347 0.06159,0.2355318 h -0.807016 c -0.01554,-0.071115 -0.01647,-0.1446793 -0.0029,-0.2162025 0.01611,-0.1085775 0.02958,-0.1832304 0.04132,-0.2239729 l 0.09266,-0.3770742 c 0.0419,-0.2046436 0.04039,-0.3501679 -0.0036,-0.4382775 -0.0555,-0.075412 -0.179449,-0.1133113 -0.37196,-0.1133113 l -0.774044,-3.796e-4 -0.37537,1.369218 h -0.731789 z m 1.275422,-1.9812581 0.85666,7.162e-4 c 0.185501,3.795e-4 0.333489,-0.037169 0.443205,-0.1114135 0.109709,-0.07504 0.18588,-0.1902488 0.229272,-0.3465729 0.04283,-0.1565102 0.02922,-0.2719056 -0.03903,-0.34675183 -0.06023,-0.081857 -0.173384,-0.12278618 -0.33823,-0.12278618 l -0.897589,-7.161e-4 z m 2.239521,1.9812581 0.860828,-3.14109141 c 0.02764,-0.1017525 0.08754,-0.1885372 0.179249,-0.2605402 0.09191,-0.071043 0.192139,-0.1087637 0.29503,-0.1087637 h 1.297401 c 0.365136,5.658e-4 0.623026,0.079014 0.774423,0.2285133 0.148368,0.1635287 0.184369,0.3846584 0.107632,0.66376871 -0.04891,0.1764124 -0.127147,0.3259115 -0.23667,0.4483181 -0.11122,0.1179807 -0.245759,0.2115474 -0.395071,0.274756 0.158214,0.075032 0.266606,0.1807667 0.325725,0.3170096 0.05378,0.1286587 0.05214,0.2988119 -0.005,0.5093352 -0.09266,0.3397406 -0.275702,0.604456 -0.54818,0.7952633 -0.277406,0.1836099 -0.622647,0.2730515 -1.03535,0.2730515 z m 1.291715,-2.1508455 0.835626,3.795e-4 c 0.17831,0 0.317769,-0.030723 0.417058,-0.091139 0.09929,-0.06159 0.166937,-0.1561379 0.20218,-0.2853695 0.03559,-0.1292245 0.02027,-0.2247248 -0.04584,-0.28612153 -0.05378,-0.054214 -0.180387,-0.081857 -0.379724,-0.081857 l -0.82596,-5.691e-4 z m -0.416678,1.5187241 0.866514,0.00143 c 0.193085,0 0.351114,-0.037312 0.474473,-0.1121797 0.114829,-0.067678 0.194975,-0.1836099 0.239506,-0.3469453 0.04455,-0.1629557 0.02901,-0.28176 -0.04641,-0.3569858 -0.07104,-0.067821 -0.21298,-0.102132 -0.425774,-0.102132 l -0.856853,-7.162e-4 z m 2.702241,0.6321214 0.859883,-3.13824831 c 0.02807,-0.1023254 0.08811,-0.1885371 0.180014,-0.2597882 0.09133,-0.071401 0.193651,-0.1123588 0.296922,-0.1123588 h 0.358317 L 22.475921,3.7826251 Z M 5.6352659,0.89715379 c 0.01647,-0.098916 -0.0029,-0.1858873 -0.05873,-0.2584633 -0.05915,-0.078821 -0.141356,-0.1184247 -0.247656,-0.1191839 L 4.9220559,0.51664659 4.7509503,1.3287756 C 5.0495949,1.1930079 5.3444759,1.0491379 5.6352809,0.89731849 M 5.5013149,1.5226148 C 5.2187029,1.6491322 4.9305909,1.7630021 4.6378374,1.8638809 L 4.2342365,3.7824103 h 0.7939384 l 0.479965,-2.2787451 z m 19.9567381,0.947047 h -0.911991 l 0.902323,-1.48651123 0.09626,1.58428183 c 0.21298,-0.027071 0.476177,0.081098 0.724593,0.00501 L 26.053222,0.27190439 h -0.569214 c -0.172051,0 -0.318521,0.084887 -0.423116,0.2415905 L 22.987356,3.7824931 h 0.775941 l 0.428051,-0.7183403 1.377933,-7.161e-4 0.03602,0.718906 h 0.777453 L 26.252579,2.3928533 c -0.512365,0.091146 -0.794504,0.076744 -0.794504,0.076744 m -22.8037445,0 H 1.7419602 L 2.6444761,0.98308617 2.7172383,2.2238316 C 2.9305976,2.1974768 3.1691587,2.139131 3.4179538,2.0629599 L 3.249505,0.27157089 H 2.6797185 c -0.172051,0 -0.3181411,0.084887 -0.4225506,0.2415977 L 0.18382552,3.7823458 h 0.775755 L 1.3876242,3.0640127 2.7653716,3.0632965 2.8025405,3.7822026 H 3.5792409 L 3.4488777,2.39271 C 2.9363197,2.484042 2.6543663,2.46964 2.6543663,2.46964"
       inkscape:connector-curvature="0"
       style="fill:#0f2d53;stroke-width:0.189485"
       sodipodi:nodetypes="ccccccccccccccccccscccccccccccccccscccccccccccccccccccccccccccccccccccccccccccccccccccccccccccccccccccscccccccccccccccccccccccccccccscccccccccccccccccccccscccccccccccccccsccccccccc" />
  </g>
  <metadata
     id="metadata7980">
    <rdf:RDF>
      <cc:Work
         rdf:about="">
        <dc:title>Air Serbia logo</dc:title>
        <dc:date>13 sep 2021</dc:date>
        <cc:license
           rdf:resource="http://scripts.sil.org/OFL" />
        <dc:rights>
          <cc:Agent>
            <dc:title>N/A</dc:title>
          </cc:Agent>
        </dc:rights>
      </cc:Work>
      <cc:License
         rdf:about="http://scripts.sil.org/OFL">
        <cc:permits
           rdf:resource="http://scripts.sil.org/pub/OFL/Reproduction" />
        <cc:permits
           rdf:resource="http://scripts.sil.org/pub/OFL/Distribution" />
        <cc:permits
           rdf:resource="http://scripts.sil.org/pub/OFL/Embedding" />
        <cc:permits
           rdf:resource="http://scripts.sil.org/pub/OFL/DerivativeWorks" />
        <cc:requires
           rdf:resource="http://scripts.sil.org/pub/OFL/Notice" />
        <cc:requires
           rdf:resource="http://scripts.sil.org/pub/OFL/Attribution" />
        <cc:requires
           rdf:resource="http://scripts.sil.org/pub/OFL/ShareAlike" />
        <cc:requires
           rdf:resource="http://scripts.sil.org/pub/OFL/DerivativeRenaming" />
        <cc:requires
           rdf:resource="http://scripts.sil.org/pub/OFL/BundlingWhenSelling" />
      </cc:License>
    </rdf:RDF>
  </metadata>
</svg>
