<?xml version="1.0" encoding="UTF-8" standalone="no"?>
<!-- Created with Inkscape (http://www.inkscape.org/) -->

<svg
   xmlns:dc="http://purl.org/dc/elements/1.1/"
   xmlns:cc="http://creativecommons.org/ns#"
   xmlns:rdf="http://www.w3.org/1999/02/22-rdf-syntax-ns#"
   xmlns:svg="http://www.w3.org/2000/svg"
   xmlns="http://www.w3.org/2000/svg"
   version="1.1"
   width="874.71875"
   height="51.062302"
   id="svg3667">
  <defs
     id="defs3669" />
  <g
     transform="translate(54.502222,-369.41799)"
     id="layer1">
    <path
       d="m 610.24778,370.41799 1.09375,2.40625 -46.46875,42.0625 c -0.65303,0.60777 -1.05388,1.38252 -1.125,2.28125 l 0,0.15625 0.40625,1.25 1.28125,0.65625 0.0312,0 13.40625,-0.0937 c 0.6207,-0.0129 1.13038,-0.26939 1.53125,-0.625 l 10.90625,-9.8125 36.53125,0 4.375,9.4375 c 0.23923,0.55605 0.87822,1.02586 1.53125,1 l 13.46875,0.0937 c 1.03451,-0.0453 1.65947,-0.69395 2.125,-1.4375 l 0.46875,-1.625 -0.1875,-0.9375 -17.21875,-37.25 c -3.34921,-7.05404 -7.02252,-7.51832 -11.78125,-7.53125 l -5.875,0 c -0.6401,0.0194 -4.5,-0.0312 -4.5,-0.0312 z m -541.093752,0.0937 c 0,0 -3.94072,0.0442 -4.59375,0.0312 l -5.96875,0 c -4.82985,0.006 -8.50102,0.47074 -10.90625,7.53125 l -12.03125,37.3125 -0.0625,0.9375 0.71875,1.625 c 0.575444,0.75002 1.289847,1.38577 2.34375,1.4375 l 13.46875,-0.0937 c 0.65303,0.0259 1.25107,-0.44395 1.40625,-1 l 3.03125,-9.43745 11.03125,-33.71875 1.5625,-4.625 z m 7,0.0312 -0.46875,0.0625 -0.34375,0 c -0.65303,-0.0323 -1.25107,0.44395 -1.40625,1 l -3.03125,9.4375 -11.03125,33.71875 -1.5625,4.625 c 0,0 3.94718,-0.0442 4.59375,-0.0312 l 5.96875,0 c 4.82339,-0.006 8.49456,-0.46428 10.90625,-7.53125 l 3.46875,-10.8125 15.09375,0 c 1.713402,0 3.116362,0.11206 4.125002,0.3125 0.89226,0.18104 1.11206,0.25538 1.3125,0.46875 0.23276,0.2069 0.60883,0.86527 1.09375,2.28125 l -0.0312,0.0312 0.125,0.34375 c 0,0.006 1.17885,3.34906 2.375,6.75 0.59484,1.70047 1.19719,3.41269 1.65625,4.71875 0.47199,1.34486 0.77155,2.10452 0.875,2.34375 0.2457,0.59484 0.89654,1.0625 1.5625,1.0625 l 13.0625,0 c 0.67243,-0.0194 1.16055,-0.32434 1.59375,-0.71875 l 0.90625,-1.46875 0.125,-0.34375 -4.6875,-12.15625 -3.125,-7.53125 c 1.97203,-0.82114 4.19825,-2.21226 5.375,-3.15625 1.22848,-1.00218 2.28339,-2.1142 3.15625,-3.375 0.71769,-1.03451 1.30495,-2.16808 1.71875,-3.3125 l 0.0312,0 0.15625,-0.53125 0.0625,0 0.15625,-0.875 c 0.21337,-0.89226 0.34375,-1.79632 0.34375,-2.65625 l -0.125,-1.53125 c -0.20044,-1.34486 -0.66486,-2.61096 -1.34375,-3.78125 -1.5065,-2.58627 -4.05165,-4.44825 -7.375,-5.625 -3.31689,-1.17675 -7.3792,-1.71875 -12.125,-1.71875 l -20.468752,0 -0.0625,0 -2.28125,0 -10.375,0 z m 350.906252,0 c -3.56258,0 -6.88571,0.31033 -9.9375,0.9375 -3.03886,0.6401 -5.79305,1.61743 -8.25,2.96875 l -0.0625,0.0312 c -2.20479,1.20908 -4.11742,2.72625 -5.65625,4.5625 -1.53236,1.83625 -2.68425,3.98594 -3.34375,6.28125 l 0,0.0625 -0.0937,0.40625 -0.0312,0.40625 0,0.0937 c -0.0517,2.42462 0.42778,4.6422 1.46875,6.5625 1.55823,2.88369 4.30918,4.96872 7.96875,6.28125 3.64017,1.319 8.13673,1.89332 13.40625,1.90625 l 13.15625,0 c 1.57116,0 2.86743,0.11206 3.84375,0.3125 1.51943,0.31035 2.32003,0.75753 2.84375,1.28125 l 0.53125,0.78125 0.15625,0.6875 -0.5625,0.96875 -0.90625,0.75 c -0.37501,0.23923 -0.87391,0.4806 -1.46875,0.6875 -1.20918,0.39461 -2.97742,0.65645 -5.34385,0.65645 l -39.40625,0 c -0.68536,0 -1.32973,0.35883 -1.75,0.84375 -0.43967,0.49139 -0.6972,1.06787 -0.78125,1.65625 l -2.5625,7.1875 c -0.0776,0.58838 -0.01,1.17133 0.28125,1.65625 0.29742,0.48492 0.83404,0.84375 1.5,0.84375 l 40.96875,0 c 3.53025,0 6.78765,-0.25645 9.78125,-0.8125 4.47424,-0.847 8.31782,-2.3965 11.34375,-4.75 1.5065,-1.17675 2.78446,-2.57324 3.8125,-4.125 1.02804,-1.55176 1.83296,-3.27043 2.34375,-5.09375 l 0,-0.0625 0.0937,-0.40625 0.0312,-0.40625 0,-0.0625 c 0,-2.30178 -0.51614,-4.43854 -1.53125,-6.28125 -0.99571,-1.82978 -2.47409,-3.35881 -4.375,-4.59375 -2.07548,-1.36426 -4.55489,-2.33511 -7.40625,-2.96875 -2.86429,-0.6401 -6.09367,-0.9375 -9.65625,-0.9375 l -13.125,0 c -1.55176,0 -2.84804,-0.11206 -3.84375,-0.3125 -1.50003,-0.31035 -2.28878,-0.75107 -2.8125,-1.28125 l -0.5,-0.78125 -0.1875,-0.6875 0.59375,-0.9375 0.875,-0.78125 c 0.37501,-0.23923 0.85451,-0.45581 1.46875,-0.65625 1.17675,-0.38794 2.88034,-0.68103 5.15625,-0.6875 l 35.28125,0 c 0.67243,0 1.27908,-0.35883 1.71875,-0.84375 0.42027,-0.48492 0.70366,-1.03662 0.78125,-1.625 l 2.15625,-7.21875 c 0.084,-0.58838 -0.0215,-1.17133 -0.3125,-1.65625 -0.29742,-0.48492 -0.81464,-0.84375 -1.5,-0.84375 l -36.15625,0 z m 110.53125,0 c -8.20493,0 -15.51925,0.91698 -21.875,2.84375 -6.36221,1.92677 -11.72189,4.87275 -15.9375,8.875 -3.60784,3.40741 -6.15622,7.61196 -7.46875,12.3125 l 0,0.0312 -0.0937,0.40625 -0.0312,0.34375 0,0.0937 c -0.16164,4.68761 1.0646,8.88031 3.625,12.28125 2.98067,4.00225 7.4503,6.94823 13.25,8.875 5.80617,1.9203 12.89313,2.83728 21.15625,2.84375 l 0.0312,0 25.5625,0 c 0.67889,0 1.27154,-0.39762 1.75,-0.84375 l 9.9375,-8.875 -0.28125,-1.65625 c -0.29095,-0.49139 -0.82111,-0.83728 -1.5,-0.84375 l -33.625,0 c -5.55401,0 -10.01824,-0.61851 -13.40625,-1.75 -3.40094,-1.13149 -5.78445,-2.75426 -7.375,-4.875 -1.17675,-1.59055 -1.73707,-3.33723 -1.75,-5.59375 0.70476,-2.25005 1.80707,-4.02798 3.46875,-5.625 2.23065,-2.11427 5.13785,-3.74351 8.875,-4.875 3.72422,-1.13149 8.34039,-1.75 13.875,-1.75 l 29.625,0 c 0.67889,0 1.28555,-0.35883 1.71875,-0.84375 0.4332,-0.49139 0.69073,-1.06141 0.78125,-1.65625 l 0.15625,-1 0.90625,-6.21875 c 0.0841,-0.59484 -0.0216,-1.17133 -0.3125,-1.65625 -0.29095,-0.48492 -0.82757,-0.84375 -1.5,-0.84375 l -29.5625,0 z m -324.21875,0.0312 c -8.21139,0.006 -15.51279,0.91698 -21.875,2.84375 -6.35575,1.92677 -11.72835,4.87275 -15.9375,8.875 -3.60784,3.40741 -6.16269,7.6055 -7.46875,12.3125 l 0,0.0312 -0.0937,0.375 -0.0312,0.375 0,0.0625 c -0.16164,4.68761 1.0646,8.91156 3.625,12.3125 2.98067,4.00225 7.48155,6.94177 13.28125,8.875 5.81263,1.9203 12.86188,2.83728 21.125,2.84375 l 29.0625,0 c 0.67889,0 1.31033,-0.35883 1.75,-0.84375 0.4332,-0.49139 0.69073,-1.06141 0.78125,-1.65625 l 1.03125,-7.21875 c 0.084,-0.59484 0.01,-1.15839 -0.28125,-1.65625 -0.29095,-0.48492 -0.82111,-0.83728 -1.5,-0.84375 l -28.96875,0 c -5.55401,0 -10.00531,-0.61851 -13.40625,-1.75 -3.40094,-1.13149 -5.78445,-2.75426 -7.375,-4.875 -1.17675,-1.59055 -1.73707,-3.36848 -1.75,-5.625 0.70476,-2.25005 1.80707,-3.99673 3.46875,-5.59375 2.23065,-2.11427 5.13138,-3.74351 8.875,-4.875 3.72422,-1.12503 8.30914,-1.75 13.84375,-1.75 l 29.65625,0 c 0.67889,0 1.28555,-0.35883 1.71875,-0.84375 0.43967,-0.49139 0.69073,-1.06141 0.78125,-1.65625 l 0.15625,-1 0.90625,-6.21875 c 0.0776,-0.58838 -0.0215,-1.16486 -0.3125,-1.65625 -0.29095,-0.48492 -0.79632,-0.84375 -1.46875,-0.84375 l -29.59375,0 z m 71.65625,0 c -7.19629,0.29742 -13.64858,1.21548 -19.3125,2.8125 -6.65317,1.89444 -12.09581,4.54194 -16.15625,8.15625 -2.02375,1.81685 -3.67023,3.88034 -4.9375,6.15625 -1.26727,2.26298 -2.11745,4.70792 -2.53125,7.28125 l 0,0.0312 -0.0312,0.0312 c -0.4138,2.56687 -0.34268,5.04305 0.1875,7.3125 0.53665,2.26945 1.54523,4.31461 3,6.125 2.90955,3.61431 7.51602,6.26828 13.59375,8.15625 5.20486,1.60348 11.41794,2.52155 18.5625,2.8125 l 0.125,0.0312 0.0937,0 0.1875,-0.0312 c 7.17689,-0.29095 13.62918,-1.20902 19.3125,-2.8125 6.69843,-1.88797 12.16478,-4.54194 16.21875,-8.15625 2.02375,-1.81039 3.68963,-3.85555 4.9375,-6.125 1.23651,-2.26049 2.07899,-4.71888 2.46875,-7.28125 l 0,-0.0312 0,-0.0312 0,-0.0625 c 0.38147,-2.52161 0.31251,-5.0118 -0.25,-7.28125 -0.56251,-2.27591 -1.61958,-4.32108 -3.09375,-6.125 -2.94188,-3.60784 -7.53542,-6.26828 -13.59375,-8.15625 l -0.0312,0 -0.0312,0 c -5.1596,-1.59055 -11.27786,-2.51508 -18.3125,-2.8125 l -0.15625,0 -0.0937,0 -0.15625,0 z m 49.46875,0 -0.46875,0.0625 -0.3125,0 c -0.65303,-0.0194 -1.24461,0.44395 -1.40625,1 l -3.0625,9.4375 -11,33.59375 -1.53125,4.625 c 0,0 3.93425,-0.0442 4.59375,-0.0312 l 5.9375,0 c 4.80399,-0.006 8.46977,-0.45889 10.875,-7.5 l 3.46875,-10.78115 15.03125,0 c 1.70694,0 3.09157,0.11853 4.09375,0.3125 0.89226,0.1875 1.13685,0.24892 1.34375,0.46875 0.23276,0.2069 0.58404,0.86527 1.0625,2.28125 l 0.125,0.34375 c 0,0.006 1.17885,3.36199 2.375,6.75 0.58838,1.70047 1.18426,3.42562 1.65625,4.71875 0.45906,1.33839 0.74677,2.07974 0.84375,2.3125 0.23923,0.60131 0.90947,1.0625 1.5625,1.0625 l 13,0 c 0.66596,-0.0129 1.20473,-0.32434 1.625,-0.71875 l 0.90625,-1.46875 0.0937,-0.34375 -4.65625,-12.125 -3.125,-7.5 c 1.97203,-0.81467 4.1864,-2.18101 5.34375,-3.125 1.23494,-1.00218 2.3017,-2.14545 3.1875,-3.40625 0.71769,-1.02804 1.2737,-2.13036 1.6875,-3.28125 l 0.0312,0 0.15625,-0.53125 0.0625,0 0.1875,-0.875 c 0.2069,-0.89226 0.3125,-1.78985 0.3125,-2.65625 l -0.125,-1.53125 c -0.19397,-1.35132 -0.64007,-2.58618 -1.3125,-3.75 -1.5065,-2.5798 -4.07105,-4.46118 -7.375,-5.625 -3.31689,-1.18322 -7.36735,-1.71875 -12.09375,-1.71875 l -20.40625,0 -0.0625,0 -2.28125,0 -10.34375,0 z m 160.84375,0 c 0,0 -3.94718,0.0377 -4.59375,0.0312 l -5.9375,0 c -4.81045,0.006 -8.46977,0.45889 -10.875,7.5 l -11.96875,37.21875 -0.0937,0.9375 0.7187,1.59395 c 0.56898,0.74355 1.30278,1.39224 2.34375,1.4375 l 13.40625,-0.0937 c 0.65303,0.0323 1.23814,-0.4127 1.40625,-0.96875 l 3.0625,-9.4375 11,-33.625 1.53125,-4.59375 z m -502.5312521,0.0312 1.09375,2.375 -46.2812499,41.9375 c -0.653032,0.60131 -1.060343,1.38899 -1.125,2.28125 l 0,0.125 0.375,1.25 1.28125,0.65625 0.0625,0 13.34375,-0.0937 c 0.620704,-0.006 1.099129,-0.26939 1.5,-0.625 l 10.875,-9.75 36.4375,0 4.3125,9.375 c 0.232764,0.55605 0.884683,1.02586 1.53125,1 l 13.40625,0.0937 c 1.034506,-0.0453 1.690722,-0.70041 2.15625,-1.4375 l 0.4375,-1.6248 -0.1875,-0.90625 -17.15625,-37.125 c -3.336283,-7.02818 -6.9794171,-7.49353 -11.7187501,-7.5 l -5.84375,0 c -0.640101,0.0129 -4.5,-0.0312 -4.5,-0.0312 z m 96.3437501,12.125 17.125002,0 0.0312,0 0.0312,0 c 1.5259,0.006 2.73813,0.11853 3.65625,0.3125 1.44184,0.30389 2.08189,0.72952 2.4375,1.15625 l 0.3125,0.625 0.0625,0.46875 -0.0312,0.1875 -0.8125,1.09375 -1.125,0.875 c -0.44613,0.26509 -0.99675,0.51185 -1.65625,0.71875 -1.29313,0.40734 -3.09693,0.6875 -5.4375,0.6875 l -16.562502,0 1.96875,-6.125 z m 258.312502,0 17.125,0 c 1.51297,0 2.74459,0.11853 3.65625,0.3125 1.43538,0.30389 2.07542,0.73598 2.4375,1.15625 l 0.3125,0.625 0.0312,0.46875 0,0.1875 -0.8125,1.09375 -1.125,0.875 c -0.45906,0.26509 -1.00968,0.51831 -1.65625,0.71875 -1.30606,0.4138 -3.10339,0.65625 -5.4375,0.65625 l -16.5,0 1.96875,-6.09375 z m -64.125,0.0312 c 4.43545,0.21337 8.16049,0.84265 11.21875,1.8125 3.67896,1.17675 6.06678,2.7047 7.4375,4.4375 0.68536,0.8664 1.14224,1.78015 1.375,2.75 0.2263,0.97632 0.25,2.01506 0.0625,3.25 -0.19397,1.26727 -0.56357,2.32325 -1.09375,3.3125 -0.53018,0.98278 -1.23058,1.87714 -2.1875,2.75 -1.90091,1.7328 -4.76499,3.28015 -8.8125,4.4375 l -0.0312,0 c -3.2005,0.92459 -7.14429,1.5431 -11.8125,1.75 -3.78241,-0.16811 -7.02903,-0.62175 -9.71875,-1.28125 -2.74144,-0.67243 -4.91268,-1.57541 -6.59375,-2.6875 -1.67461,-1.10563 -2.74891,-2.34911 -3.34375,-3.6875 -0.58838,-1.34486 -0.74677,-2.7575 -0.46875,-4.59375 0.20044,-1.25434 0.56357,-2.29847 1.09375,-3.28125 0.53665,-0.96985 1.27476,-1.8836 2.21875,-2.75 1.86858,-1.70047 4.66263,-3.21765 8.59375,-4.375 l 0.15625,-0.0312 c 3.28456,-0.96338 7.25744,-1.6056 11.90625,-1.8125 z m 333.75,2.46875 5.1875,11.3125 -17.59375,0 12.40625,-11.31225 z m -617.46875214,0.125 5.15625004,11.28125 -17.4999999,0 12.34374986,-11.28125 z"
       id="path114"
       style="fill:#00539b;fill-opacity:1;fill-rule:nonzero;stroke:none" />
    <path
       d="m 740.15401,370.51173 c -0.48113,0.008 -0.95742,0.0257 -1.4375,0.0625 l -22.5,2.75 -14.625,1.5 -0.84375,0.0937 -13.78125,1.4375 c 2.43109,4.84926 10.5203,8.17998 18.34375,7.65626 l 0.0312,0 14.8125,-1.53125 0.625,-0.0625 21.875,-2.68751 1.875,3.75001 -21.875,2.6875 -29.25,3 c 2.43756,4.86218 10.54508,8.21122 18.375,7.6875 l 14.8125,-1.5 0.625,-0.0625 21.90625,-2.71875 1.875,3.75 -21.90625,2.6875 -0.59375,0.0625 -28.625,2.96875 c 2.43756,4.85571 10.52676,8.17997 18.34375,7.65625 l 0,0.0312 0.84375,-0.0937 14,-1.4375 0.625,-0.0625 22.5,-2.78125 14,-1.4375 -12.90625,-25.68751 -0.1875,-0.375 -0.0312,0 c -2.50949,-4.39463 -9.68935,-7.46403 -16.90625,-7.34375 z m 61.75,33.50001 c -0.48066,0.0129 -0.95864,0.0209 -1.4375,0.0625 l -39.46875,4.46875 -14.59375,1.65625 -0.8125,0.0937 -13.75,1.5625 c 2.5604,4.82339 10.72073,8.07652 18.53125,7.46875 l 0.0312,0 14.78125,-1.6875 0.59375,-0.0625 38.84375,-4.375 14.5938,-1.6562 -0.21875,-0.375 c -2.62466,-4.37039 -9.88385,-7.34979 -17.09375,-7.15625 z"
       id="path122"
       style="fill:#008cd0;fill-opacity:1;fill-rule:nonzero;stroke:none" />
  </g>
</svg>
