<?xml version="1.0" encoding="UTF-8" standalone="no"?>
<!-- Created with Inkscape (http://www.inkscape.org/) -->
<svg
   xmlns:svg="http://www.w3.org/2000/svg"
   xmlns="http://www.w3.org/2000/svg"
   version="1.0"
   width="744.09448"
   height="420.94489"
   id="svg8461">
  <defs
     id="defs8463"><clipPath
   id="clp18">
<path
   d="M 51.62,538.86 L 125.35,538.86 L 125.35,578.98 L 51.62,578.98 L 51.62,538.86 z "
   id="path224" />

</clipPath>
<clipPath
   id="clp73">
<path
   d="M 183.38,592.14 L 234.69,592.14 L 234.69,622.09 L 183.38,622.09 L 183.38,592.14 z "
   id="path2344" />

</clipPath>
<clipPath
   id="clp74">
<path
   d="M 183.38,592.14 L 234.69,592.14 L 234.69,622.09 L 183.38,622.09 L 183.38,592.14 z "
   id="path2364" />

</clipPath>
<clipPath
   id="clp70">
<path
   d="M 178.54,632.58 L 239.43,632.58 L 239.43,678.21 L 178.54,678.21 L 178.54,632.58 z "
   id="path2292" />

</clipPath>
<clipPath
   id="clp71">
<path
   d="M 178.54,632.58 L 239.43,632.58 L 239.43,678.21 L 178.54,678.21 L 178.54,632.58 z "
   id="path2316" />

</clipPath>
<clipPath
   id="clp72">
<path
   d="M 178.54,632.58 L 239.43,632.58 L 239.43,678.21 L 178.54,678.21 L 178.54,632.58 z "
   id="path2328" />

</clipPath>
<clipPath
   id="clp17">
<path
   d="M 45.19,647.41 L 131.79,647.41 L 131.79,663.18 L 45.19,663.18 L 45.19,647.41 z "
   id="path162" />

</clipPath>
<clipPath
   id="clp4">
<path
   d="M 45.29,692.27 L 131.66,692.27 L 131.66,714.87 L 45.29,714.87 L 45.29,692.27 z "
   id="path26" />

</clipPath>
<clipPath
   id="clp5">
<path
   d="M 45.29,692.27 L 131.66,692.27 L 131.66,714.87 L 45.29,714.87 L 45.29,692.27 z "
   id="path42" />

</clipPath>
<clipPath
   id="clp6">
<path
   d="M 45.29,692.27 L 131.66,692.27 L 131.66,714.87 L 45.29,714.87 L 45.29,692.27 z "
   id="path52" />

</clipPath>
<clipPath
   id="clp7">
<path
   d="M 45.29,692.27 L 131.66,692.27 L 131.66,714.87 L 45.29,714.87 L 45.29,692.27 z "
   id="path62" />

</clipPath>
<clipPath
   id="clp8">
<path
   d="M 45.29,692.27 L 131.66,692.27 L 131.66,714.87 L 45.29,714.87 L 45.29,692.27 z "
   id="path72" />

</clipPath>
<clipPath
   id="clp9">
<path
   d="M 45.29,692.27 L 131.66,692.27 L 131.66,714.87 L 45.29,714.87 L 45.29,692.27 z "
   id="path82" />

</clipPath>
<clipPath
   id="clp10">
<path
   d="M 45.29,692.27 L 131.66,692.27 L 131.66,714.87 L 45.29,714.87 L 45.29,692.27 z "
   id="path92" />

</clipPath>
<clipPath
   id="clp11">
<path
   d="M 45.29,692.27 L 131.66,692.27 L 131.66,714.87 L 45.29,714.87 L 45.29,692.27 z "
   id="path102" />

</clipPath>
<clipPath
   id="clp12">
<path
   d="M 45.29,692.27 L 131.66,692.27 L 131.66,714.87 L 45.29,714.87 L 45.29,692.27 z "
   id="path112" />

</clipPath>
<clipPath
   id="clp13">
<path
   d="M 45.29,692.27 L 131.66,692.27 L 131.66,714.87 L 45.29,714.87 L 45.29,692.27 z "
   id="path122" />

</clipPath>
<clipPath
   id="clp14">
<path
   d="M 45.29,692.27 L 131.66,692.27 L 131.66,714.87 L 45.29,714.87 L 45.29,692.27 z "
   id="path132" />

</clipPath>
<clipPath
   id="clp15">
<path
   d="M 45.29,692.27 L 131.66,692.27 L 131.66,714.87 L 45.29,714.87 L 45.29,692.27 z "
   id="path142" />

</clipPath>
<clipPath
   id="clp16">
<path
   d="M 45.29,692.27 L 131.66,692.27 L 131.66,714.87 L 45.29,714.87 L 45.29,692.27 z "
   id="path152" />

</clipPath>

<clipPath
   id="clipPath6577">
<path
   d="M 45.29,692.27 L 131.66,692.27 L 131.66,714.87 L 45.29,714.87 L 45.29,692.27 z "
   id="path6579" />

</clipPath>



<clipPath
   id="clipPath6588">
<path
   d="M 45.29,692.27 L 131.66,692.27 L 131.66,714.87 L 45.29,714.87 L 45.29,692.27 z "
   id="path6590" />

</clipPath>



<clipPath
   id="clipPath6596">
<path
   d="M 45.29,692.27 L 131.66,692.27 L 131.66,714.87 L 45.29,714.87 L 45.29,692.27 z "
   id="path6598" />

</clipPath>



<clipPath
   id="clipPath6604">
<path
   d="M 45.29,692.27 L 131.66,692.27 L 131.66,714.87 L 45.29,714.87 L 45.29,692.27 z "
   id="path6606" />

</clipPath>



<clipPath
   id="clipPath6612">
<path
   d="M 45.29,692.27 L 131.66,692.27 L 131.66,714.87 L 45.29,714.87 L 45.29,692.27 z "
   id="path6614" />

</clipPath>



<clipPath
   id="clipPath6620">
<path
   d="M 45.29,692.27 L 131.66,692.27 L 131.66,714.87 L 45.29,714.87 L 45.29,692.27 z "
   id="path6622" />

</clipPath>



<clipPath
   id="clipPath6628">
<path
   d="M 45.29,692.27 L 131.66,692.27 L 131.66,714.87 L 45.29,714.87 L 45.29,692.27 z "
   id="path6630" />

</clipPath>



<clipPath
   id="clipPath6636">
<path
   d="M 45.29,692.27 L 131.66,692.27 L 131.66,714.87 L 45.29,714.87 L 45.29,692.27 z "
   id="path6638" />

</clipPath>



<clipPath
   id="clipPath6644">
<path
   d="M 45.29,692.27 L 131.66,692.27 L 131.66,714.87 L 45.29,714.87 L 45.29,692.27 z "
   id="path6646" />

</clipPath>



<clipPath
   id="clipPath6652">
<path
   d="M 45.29,692.27 L 131.66,692.27 L 131.66,714.87 L 45.29,714.87 L 45.29,692.27 z "
   id="path6654" />

</clipPath>



<clipPath
   id="clipPath6660">
<path
   d="M 45.29,692.27 L 131.66,692.27 L 131.66,714.87 L 45.29,714.87 L 45.29,692.27 z "
   id="path6662" />

</clipPath>



<clipPath
   id="clipPath6668">
<path
   d="M 45.29,692.27 L 131.66,692.27 L 131.66,714.87 L 45.29,714.87 L 45.29,692.27 z "
   id="path6670" />

</clipPath>



<clipPath
   id="clipPath6676">
<path
   d="M 45.29,692.27 L 131.66,692.27 L 131.66,714.87 L 45.29,714.87 L 45.29,692.27 z "
   id="path6678" />

</clipPath>

































<clipPath
   id="clipPath6684">
<path
   d="M 45.19,647.41 L 131.79,647.41 L 131.79,663.18 L 45.19,663.18 L 45.19,647.41 z "
   id="path6686" />

</clipPath>





<clipPath
   id="clipPath7915">
<path
   d="M 178.54,632.58 L 239.43,632.58 L 239.43,678.21 L 178.54,678.21 L 178.54,632.58 z "
   id="path7917" />

</clipPath>



<clipPath
   id="clipPath7930">
<path
   d="M 178.54,632.58 L 239.43,632.58 L 239.43,678.21 L 178.54,678.21 L 178.54,632.58 z "
   id="path7932" />

</clipPath>



<clipPath
   id="clipPath7939">
<path
   d="M 178.54,632.58 L 239.43,632.58 L 239.43,678.21 L 178.54,678.21 L 178.54,632.58 z "
   id="path7941" />

</clipPath>












<clipPath
   id="clipPath6718">
<path
   d="M 51.62,538.86 L 125.35,538.86 L 125.35,578.98 L 51.62,578.98 L 51.62,538.86 z "
   id="path6720" />

</clipPath>







</defs>
  <g
     transform="translate(-734.59406,212.84043)"
     id="layer1">
    <g
       transform="translate(17.713311,17.736948)"
       id="g10086">
      <path
         d="M 1182.2676,-212.74438 C 1159.5544,-212.07181 991.21349,-212.84043 991.21349,-212.84043 C 990.67476,-148.91172 992.41335,-84.98926 991.65549,-21.06574 L 1183.8818,-21.93048 L 1182.2676,-212.74438 z "
         style="fill:#e03e32;fill-rule:nonzero;stroke:none"
         id="path214" />
      <path
         d="M 1183.901,-15.78138 L 1183.9298,-1.9459499 L 991.16549,-2.5223899 L 991.16549,-15.97355 L 1183.901,-15.78138"
         style="fill:#14427d;fill-rule:nonzero;stroke:none"
         id="path216" />
      <path
         d="M 1183.8241,3.2423601 L 1183.7761,18.13463 L 991.16549,17.55819 L 991.16549,3.6266301 L 1183.8241,3.2423601"
         style="fill:#14427d;fill-rule:nonzero;stroke:none"
         id="path218" />
      <path
         d="M 1184.0163,23.03471 L 1184.0355,37.83094 L 991.23269,37.15844 L 991.03099,23.13084 L 1184.0163,23.03471"
         style="fill:#14427d;fill-rule:nonzero;stroke:none"
         id="path220" />
      <path
         d="M 100.96875,204.21875 C 87.729047,233.42692 75.72352,263.13092 63.28125,292.53125 L 57.46875,298.96875 C 55.239729,300.02563 51.96244,298.39557 50.03125,300.125 C 50.309871,301.85444 49.17183,303.84705 50.71875,305 C 60.326669,305.48041 70.59669,304.81483 80.53125,304.71875 L 80.625,299.4375 C 77.156498,299.53358 73.06132,299.83619 71.5625,296.28125 C 72.331118,289.65176 75.13203,284.07261 77.9375,278.5 L 107.71875,278.59375 L 109.75,280.03125 C 111.05672,285.60385 115.66776,290.03608 115.0625,296.28125 C 113.554,300.50874 108.40402,298.20574 105.53125,300.03125 C 105.80026,301.76068 104.33354,304.73836 106.6875,305.21875 C 135.54022,305.02659 162.78795,306.25369 190.09375,304.8125 C 192.64945,295.68494 182.0845,302.70925 179.375,296.65625 C 176.89621,272.54028 179.05435,244.66352 177.84375,219.875 L 178.90625,215.1875 C 181.80785,212.40119 186.19275,213.64596 189.84375,212.78125 L 189.9375,207.59375 L 145.03125,206.625 L 141.5625,207.3125 C 141.52399,209.23409 141.0006,211.43148 141.75,212.96875 C 145.2088,213.35306 150.26875,212.38489 152.71875,215.84375 L 153.5625,294.9375 C 153.51441,296.76302 152.06355,298.48137 150.46875,299.25 C 147.91294,301.07552 144.4696,299.64966 142.625,297.34375 C 128.94323,266.31006 115.90504,235.15636 101.90625,204.21875 L 100.96875,204.21875 z M 204.75,206.21875 C 202.30024,206.21537 199.83824,206.22598 197.375,206.25 L 195.15625,207.21875 C 190.65975,218.74828 204.73475,209.1308 206.78125,216.625 C 206.99265,243.71942 207.66555,270.34445 207.28125,296.09375 C 205.28275,301.18597 199.51405,298.20108 195.84375,300.21875 C 196.12246,301.94821 194.98445,304.15721 196.53125,305.40625 C 211.68305,304.6376 228.84105,306.56387 244.15625,305.21875 C 248.96975,293.78528 233.7633,303.68404 232.1875,296.09375 L 231.4375,265.625 C 232.7346,263.79948 235.8719,263.51028 238.0625,264.375 L 262.90625,305.125 C 272.52374,305.02891 283.844,306.34977 293.5,304.8125 C 296.51691,296.3575 285.5079,301.85153 283.25,296.375 L 263,263.125 L 263.0625,260.625 C 271.0179,257.55047 276.34105,250.8137 279.03125,243.03125 C 282.40364,232.65467 278.5282,222.86687 271.4375,215.46875 C 266.46059,212.00989 261.65655,208.08347 255.84375,207.21875 C 238.75246,206.88246 221.89834,206.2424 204.75,206.21875 z M 239.1875,213.78125 C 243.44588,213.75122 247.64519,214.37741 250.4375,217.5 C 256.28879,223.93732 258.75025,233.6271 256.03125,242.5625 C 254.65726,247.84687 251.24855,252.06443 246.15625,254.5625 C 241.70775,255.90762 237.28205,257.07881 232.09375,256.40625 C 231.28666,242.47472 231.1448,227.96044 231.75,214.125 C 234.05591,214.05294 236.63247,213.79927 239.1875,213.78125 z M 93.1875,242.5625 C 97.568698,251.30573 101.63499,260.83188 105.21875,270.34375 C 97.96478,270.53591 89.74844,271.1054 81.5625,270.625 C 85.386459,261.30529 88.739,251.69005 93.1875,242.5625 z "
         transform="translate(684.70761,-135.65069)"
         style="fill:#e03e32;fill-rule:nonzero;stroke:none"
         id="path228" />
      <path
         d="M 708.625,203.28125 C 695.3657,233.25806 683.26685,263.42014 670.96875,293.78125 C 669.14302,296.27933 666.6322,298.2892 663.75,299.25 C 657.69661,299.73041 650.11935,301.84591 646.46875,295.3125 L 645.96875,215.46875 C 649.33194,214.50795 652.90425,214.12034 656.84375,214.3125 C 662.03194,215.84977 666.825,219.41478 670.1875,224.21875 C 674.60718,227.00506 668.3631,238.05494 677.875,234.5 C 676.62559,225.27637 677.70235,214.87851 674.53125,207 C 647.34106,206.42351 620.6233,207.21642 593.625,207.3125 C 593.81719,216.92045 591.20475,226.02404 591.78125,235.34375 L 595.71875,235.46875 C 597.73637,229.12751 598.697,222.09784 604.75,218.0625 C 610.03439,215.85266 615.7259,213.64789 621.875,215.28125 C 623.50841,242.1835 622.15155,268.40092 622.34375,295.6875 C 620.80646,301.16403 614.2761,299.35404 610.625,300.21875 C 610.91331,302.14036 609.7753,304.62596 611.3125,305.875 L 687.78125,305.78125 C 689.31872,305.20476 688.27205,303.28494 688.65625,301.84375 C 688.46414,300.88296 688.1672,299.04619 686.4375,299.71875 C 683.45929,299.71875 680.4704,298.47381 679.125,295.6875 C 680.66247,289.73057 681.62075,283.10483 685.65625,278.78125 L 715.75,278.5 C 717.95988,284.36085 723.53065,288.88779 722.28125,296.09375 C 720.36025,299.07222 716.7131,300.21642 713.0625,300.3125 C 713.3506,302.04193 712.17665,304.52755 713.90625,305.96875 L 757.53125,305.5 C 762.14316,296.18028 749.75625,302.22789 748.21875,295.40625 C 735.44046,264.56473 722.1717,233.83453 708.625,203.28125 z M 482.125,203.65625 C 467.90519,234.88209 455.25555,266.77417 440.71875,298 L 437.6875,300.125 C 434.19981,300.98972 430.75595,298.7667 429.09375,295.5 C 428.86315,269.07815 428.02685,242.86634 428.59375,216.15625 C 431.37995,210.96795 436.03435,214.71216 440.03125,212.40625 C 439.90637,210.67683 440.41525,208.65994 439.65625,207.21875 L 402.9375,206.4375 L 401.1875,207.59375 C 393.36669,227.19397 385.53865,246.69735 376.46875,265.625 C 366.94724,246.12086 360.2806,225.84324 350.125,206.53125 C 337.67311,206.43517 325.54321,206.0392 313.0625,207 C 313.1778,209.20982 312.65685,211.5425 313.40625,213.65625 C 317.50885,213.56018 322.09545,213.53415 324.21875,217.28125 C 324.44934,243.60703 325.13185,269.18683 324.71875,296.28125 C 322.43206,300.02834 318.67511,300.00931 315.0625,299.625 C 313.61169,300.9701 313.9956,303.68149 314.4375,305.21875 C 323.4209,305.12267 335.85565,306.47011 345.03125,305.125 L 345.15625,299.9375 C 341.72626,298.112 335.9791,301.46255 333.875,296.5625 C 333.87501,274.17598 331.9439,253.42709 334,230.65625 C 337.94881,237.67005 340.3057,245.54403 343.9375,252.75 C 352.53661,271.10118 358.12555,290.89086 368.15625,308.28125 C 373.78654,295.50267 379.70845,282.72306 385.03125,269.65625 C 390.82485,256.39727 395.5486,242.36533 402.4375,229.875 C 404.04201,250.43601 402.9137,274.66336 403.25,296.28125 C 401.10739,300.31658 396.2472,299.15722 392.75,300.40625 C 393.02859,302.23177 391.84975,304.53454 393.40625,305.6875 L 462.46875,305.40625 C 467.56094,295.41397 453.98235,303.28806 453.03125,296.5625 C 453.95355,290.22126 456.6032,284.63278 459.5625,279.15625 L 489.1875,279.375 C 492.22359,284.94763 496.68405,290.51977 495.28125,297.4375 C 493.48466,300.2238 489.53855,299.64228 486.53125,300.21875 C 486.80994,301.94821 485.6552,304.63528 487.375,305.5 L 586.40625,305.78125 L 605.625,305.5 C 606.778,294.45086 609.56945,283.29914 609.28125,272.25 C 607.84003,272.34607 605.3544,271.85636 603.625,272.625 C 604.00928,278.77409 601.21125,283.79676 597.65625,288.3125 C 589.87386,298.01653 578.15685,297.81949 566.53125,297.53125 C 563.84106,296.8587 561.7258,294.15898 561.4375,291.46875 L 560.84375,216.71875 C 562.95746,211.81871 569.0271,214.78261 573.0625,213.4375 C 573.73502,212.09239 573.73265,208.92392 573.15625,206.90625 C 556.82264,206.32978 541.9156,206.54386 526.0625,207.3125 C 526.15857,209.52233 525.6063,211.82842 526.375,213.75 C 530.0259,214.61473 535.39315,212.0225 537.21875,216.25 L 538.1875,294.84375 C 537.51489,297.05358 535.86605,298.97438 533.65625,300.03125 C 528.85225,301.6646 525.012,298.67529 521.9375,295.3125 L 482.90625,203.65625 L 482.125,203.65625 z M 473.71875,243.25 C 478.89745,251.705 482.3341,261.39206 485.4375,271 L 462.71875,270.90625 C 464.96704,261.58653 469.74105,252.28147 473.71875,243.25 z M 700.375,243.34375 C 704.60259,252.27914 708.2533,261.77637 712,271 C 704.12172,271.0961 696.5086,271.95147 688.4375,271.375 C 691.99283,261.86313 695.9552,252.37522 700.375,243.34375 z "
         transform="translate(684.70761,-135.65069)"
         style="fill:#e03e32;fill-rule:nonzero;stroke:none"
         id="path230" />
      <path
         d="M 1115.1824,-188.14058 C 1105.5553,-180.35813 1096.1991,-170.46922 1086.7449,-163.35933 C 1077.3003,-171.52614 1068.3651,-180.65799 1058.9012,-187.67183 L 1087.5262,-118.01558 L 1086.5574,-117.23433 C 1062.7873,-126.07363 1039.8371,-136.37075 1016.0574,-144.92183 L 1040.3699,-118.20308 L 1040.6512,-116.48433 L 1016.5887,-89.390586 C 1039.9649,-98.518104 1063.1596,-107.63805 1086.5262,-116.76558 L 1087.4324,-115.79683 C 1087.8456,-116.56545 1088.8328,-117.32111 1087.5262,-117.60933 C 1096.3751,-141.24485 1106.6409,-164.40894 1115.1824,-188.14058 z M 1087.4324,-115.79683 C 1087.346,-115.60465 1087.2954,-115.52025 1087.2762,-115.32808 C 1087.3338,-115.52025 1087.406,-115.60465 1087.4637,-115.79683 L 1087.4324,-115.79683 z M 1087.2762,-115.32808 C 1077.2551,-92.653356 1068.5846,-68.248147 1060.1199,-45.765586 L 1086.8074,-70.359336 L 1088.2449,-70.359336 L 1115.6199,-45.859336 C 1107.1264,-69.014467 1097.3528,-91.775986 1087.7449,-114.54683 C 1087.3509,-114.739 1087.2473,-115.03986 1087.2762,-115.32808 z M 1158.2449,-144.82808 C 1135.1955,-135.70056 1111.4945,-126.76014 1089.2137,-116.67183 L 1158.9324,-88.984336 L 1134.1512,-116.17183 L 1134.1824,-117.42183 C 1142.2531,-126.54935 1151.7596,-136.46918 1158.2449,-144.82808 z "
         style="opacity:1;color:#000000;fill:#ffffff;fill-opacity:1;fill-rule:nonzero;stroke:none;stroke-width:1.54808962;stroke-linecap:butt;stroke-linejoin:bevel;marker:none;marker-start:none;marker-mid:none;marker-end:none;stroke-miterlimit:4;stroke-dasharray:4.64426879, 4.64426879;stroke-dashoffset:0;stroke-opacity:1;visibility:visible;display:inline;overflow:visible"
         id="rect9104" />
    </g>
  </g>
</svg>
