<svg id="Layer_1" xmlns="http://www.w3.org/2000/svg" viewBox="0 0 1262 364.78"><defs><style>.cls-1{fill:#c62f31;}.cls-2{fill:#253d86;}</style></defs><path class="cls-1" d="M533,115.56h28.55L521.82,24.91a27.74,27.74,0,0,0-51.12,0l-39.77,90.65h28.55l10.8-26.37h52ZM480.6,64,491,38.62a5.65,5.65,0,0,1,10.52,0L511.92,64Z"/><path class="cls-2" d="M489.18,240.6h28.56L478,150a27.73,27.73,0,0,0-51.11,0L387.07,240.6h28.56l10.8-26.37h51.95ZM436.75,189l10.4-25.38a5.65,5.65,0,0,1,10.52,0L468.06,189Z"/><path class="cls-2" d="M1031.06,240.6h28.56L1019.84,150a27.73,27.73,0,0,0-51.11,0L929,240.6h28.56l10.8-26.37h52ZM978.63,189,989,163.66a5.64,5.64,0,0,1,10.51,0l10.4,25.38Z"/><rect class="cls-1" x="570.19" y="7.95" width="24.59" height="107.61"/><polygon class="cls-2" points="741 212.23 741 132.99 716.41 132.99 716.41 240.6 741 240.6 776.7 240.6 776.7 212.23 741 212.23"/><rect class="cls-2" x="787.96" y="132.99" width="24.59" height="107.61"/><path class="cls-1" d="M686.63,86.82c-1.84-14.41-13.33-18.37-13.33-18.37,14.22-5.63,22.22-14.22,22.22-27.26h0A33.24,33.24,0,0,0,662.28,8h-50V115.56h24.59V79.71c11.89,0,20.47,2.18,21.59,13.92,1.33,13.93,12,21.93,12,21.93h33.61C698.19,112.89,688.48,101.34,686.63,86.82Zm-27.41-34H636.89V32.78h22.33c5,0,9,5,9,10S664.21,52.86,659.22,52.86Z"/><path class="cls-2" d="M598.61,211.86c-1.84-14.42-13.33-18.37-13.33-18.37,14.22-5.63,22.22-14.23,22.22-27.26h0A33.24,33.24,0,0,0,574.26,133h-50V240.6h24.59V204.74c11.89,0,20.47,2.19,21.59,13.93,1.34,13.93,12,21.93,12,21.93h33.61C610.17,237.93,600.46,226.37,598.61,211.86Zm-27.41-34H548.87V157.82H571.2c5,0,9,5.05,9,10S576.19,177.89,571.2,177.89Z"/><path class="cls-2" d="M670.9,133H654.06a33.21,33.21,0,0,0-33.21,33.21v41.18a33.21,33.21,0,0,0,33.21,33.22H670.9a33.21,33.21,0,0,0,33.21-33.22V166.2A33.21,33.21,0,0,0,670.9,133Zm6.69,67.38a13.86,13.86,0,0,1-13.85,13.86h-2.52a13.86,13.86,0,0,1-13.85-13.86V173.21a13.85,13.85,0,0,1,13.85-13.85h2.52a13.85,13.85,0,0,1,13.85,13.85Z"/><path class="cls-2" d="M896.11,133v60.2L862.79,140.3A15.65,15.65,0,0,0,849.54,133h-.28a15.67,15.67,0,0,0-15.67,15.66V240.6h24.6V184l28.74,56.6H920.7V133Z"/><path class="cls-2" d="M326.48,129.34c-52.44,0-112,19.4-112,59.7S242.93,240.6,286,240.6h83.11l20.29-38.23s-21.92,7.12-58.37,7.12-59.85-9.63-59.85-24.52,33.48-24.9,64.59-24.9a139.93,139.93,0,0,1,19.94,1.37l19.85-28.11C365.69,131.24,350.17,129.34,326.48,129.34Z"/><path class="cls-1" d="M297.89,268.74c-65.19,0-132.15-10.07-132.15-71.51s74.67-91.45,148.74-91.45c34.48,0,59.07,3.47,75.51,7.17L417.9,73.42l-203.42,5.7L104.7,123.56,62.93,200.89l50.66,96,152.89,43.56L503,298.18,1242,261.34S363.07,268.74,297.89,268.74Z"/><path class="cls-2" d="M318.93,308.45c-115.56,8-231.12-12.35-231.12-102.17s118-125.39,239.12-125.39c34.66,0,61.34,2.28,81.79,5.54L428.6,58.27c-11.76-2.5-36.49-5.41-87.9-5.41C250.93,52.86,20,57.19,20,220.15c0,145.19,186.67,145.19,320.6,130.37S1242,261.34,1242,261.34,434.48,300.45,318.93,308.45Z"/></svg>