<?xml version="1.0" encoding="UTF-8" standalone="no"?>
<svg
   xmlns:dc="http://purl.org/dc/elements/1.1/"
   xmlns:cc="http://creativecommons.org/ns#"
   xmlns:rdf="http://www.w3.org/1999/02/22-rdf-syntax-ns#"
   xmlns:svg="http://www.w3.org/2000/svg"
   xmlns="http://www.w3.org/2000/svg"
   width="418.18842"
   height="154.54555"
   viewBox="0 0 392.05164 144.88645"
   id="svg2">
  <g
     transform="translate(-2.6483561,-5.4854018)" />
  <path
     id="path28"
     style="fill:#cc2234"
     d="m 342.03164,85.054598 c 2.31,0.01 4.63,0.01 6.95,0.01 0,13.33 0.05,26.650002 -0.03,39.970002 -2.31,-0.02 -4.62,-0.03 -6.92,-0.04 0.01,-13.31 -0.01,-26.630002 0,-39.940002 z m -178.49,0.04 c 2.3,-0.04 4.61,-0.03 6.92,-0.04 0.02,13.31 0.02,26.620002 0,39.930002 -2.31,0 -4.62,0 -6.93,-0.03 0.04,-13.29 0.06,-26.570002 0.01,-39.860002 z m 197.16,4.88 c 7.05,-8.25 21.86,-7.97 28.3,0.88 2.14,2.73 3,6.23 3,9.650002 0.06,8.16 -0.04,16.33 0.05,24.49 -2.35,0.01 -4.7,0.01 -7.03,0.01 0,-8.19 0.05,-16.38 -0.02,-24.57 0.07,-2.810002 -0.99,-5.630002 -3.11,-7.510002 -5.49,-5.23 -16.59,-2.56 -17.77,5.38 -0.57,8.890002 -0.08,17.820002 -0.24,26.720002 -2.34,-0.01 -4.67,-0.01 -7,-0.07 0.05,-8.15 -0.02,-16.3 0.03,-24.45 -0.03,-3.810002 1.18,-7.700002 3.79,-10.530002 z m -57.94,-2.11 c 3.48,-3.1 8.31,-3.92 12.83,-3.66 -0.01,1.88 0.05,3.75 -0.07,5.63 -0.92,1.4 -2.9,0.63 -4.27,1.04 -4.44,0.2 -7.58,4.62 -7.46,8.85 -0.12,8.420002 0.01,16.850002 -0.06,25.280002 -2.3,0 -4.6,0 -6.9,0 0.02,-8.19 -0.06,-16.38 0.03,-24.57 0.08,-4.770002 2.05,-9.620002 5.9,-12.570002 z m -52.16,10.78 c 2.87,-8.99 12.24,-15.4 21.69,-14.56 9.09,0.57 17.11,7.63 19.12,16.460002 -10.84,4.31 -21.69,8.62 -32.52,12.97 3.22,4.06 8.16,6.59 13.42,5.85 5.15,0.39 9.29,-3.08 12.09,-7.01 2.31,0.01 4.61,0.01 6.92,0.07 -1.77,4.7 -5.01,9.01 -9.62,11.21 -8.93,4.2 -20.77,2.51 -27.2,-5.3 -4.71,-5.28 -5.88,-13.02 -3.9,-19.690002 m 17.04,-7.92 c -7.34,1.69 -12.23,9.450002 -10.89,16.830002 8.83,-3.02 17.27,-7.07 26.09,-10.140002 -2.99,-5.17 -9.3,-8.38 -15.2,-6.69 z m -86.53,0.53 c 3.42,-5.18 9.89,-7.61 15.95,-7.05 -0.02,2.14 -0.04,4.27 -0.09,6.41 -2.71,0.16 -5.71,-0.11 -8.03,1.59 -2.97,2.05 -3.89,5.91 -3.87,9.320002 -0.09,7.84 0.1,15.68 -0.06,23.52 -2.29,-0.03 -4.57,-0.05 -6.86,-0.08 0.05,-7.16 0.02,-14.31 0.03,-21.46 0.05,-4.220002 0.36,-8.720002 2.93,-12.250002 z m -65.46,4.55 c 3.09,-6.41 9.65,-10.96 16.73,-11.64 11.06,-1.62 22.4,7.06 23.31,18.260002 0.31,7.51 0.01,15.03 0.17,22.54 -2.28,-0.01 -4.56,-0.02 -6.83,-0.08 0,-2 0.01,-3.99 0.01,-5.99 -7.23,9.95 -23.29,8.82 -30.62,-0.41 -5.29,-6.14 -6.29,-15.44 -2.77,-22.680002 m 14.08,-4.69 c -8.53,3.14 -11.69,14.520002 -6.94,21.990002 3.02,4.88 9.13,7.7 14.78,6.38 7.05,-1.44 12.23,-8.76 11.29,-15.89 -0.36,-9.030002 -10.63,-16.240002 -19.13,-12.480002 z m 212.98,-20.24 c 2.2,-2.01 7.28,-0.97 7.07,2.61 0.6,2.66 -1.74,5.15 -4.43,4.72 -3.69,0.23 -5.14,-5.07 -2.64,-7.33 z m -178.14,-0.48 c 2.93,-1.66 7.18,0.45 6.52,4.08 0.16,4.12 -5.84,4.95 -7.88,1.94 -0.54,-2.01 -0.72,-4.81 1.36,-6.02 z m 156.55,-3.06 c 2.3,0 4.62,0 6.93,-0.01 0.06,14.06 0,28.12 0.03,42.180002 0.12,2.45 0.25,5.29 2.15,7.1 1.58,1.86 4.19,1.83 6.38,2.34 -0.01,2.02 -0.01,4.03 -0.01,6.05 -3.78,0.21 -7.76,-0.52 -10.68,-3.09 -3.74,-2.91 -4.85,-7.9 -4.82,-12.41 0.03,-14.060002 0,-28.110002 0.02,-42.160002 z m -118.36,0.04 c 2.1,-0.03 4.2,-0.08 6.3,-0.17 1.03,7.72 0.23,15.62 0.44,23.41 7.67,-9.35 23.43,-8.33 30.7,0.98 7.64,8.660002 5.83,23.560002 -3.68,30.120002 -6.08,4.64 -14.65,5.31 -21.58,2.29 -7.06,-3.2 -12.35,-10.53 -12.17,-18.41 -0.03,-12.740002 -0.05,-25.480002 -0.01,-38.220002 m 16.01,23.76 c -5.89,2.45 -9.82,8.930002 -8.99,15.310002 0.5,8.33 9.29,15.32 17.52,12.88 8.51,-2.11 13.11,-12.54 9.51,-20.400002 -2.72,-6.83 -11.17,-10.79 -18.04,-7.79 z m -190.329996,-71.62 c 16.99,-17.4399998 45.09,-25.2199998 67.77,-14.8499998 8.109996,4.12 15.339996,11.4599998 16.879996,20.7199998 1.53,6.73 -0.95,13.41 -2.42,19.91 -4.73,18.71 -9.26,37.47 -14.039996,56.160002 -0.17,0.01 -0.49,0.03 -0.65,0.04 -4.43,-10.980002 -8.33,-22.220002 -13.86,-32.710002 -4.03,-7.31 -10.86,-14.15 -19.64,-14.63 -6.13,-0.06 -12.28,-0.29 -18.4,0.23 7.87,0.31 13.55,6.66 17.53,12.81 6.33,10.21 9.71,21.84 14.42,32.8 3.3,7.310002 7.26,14.640002 13.61,19.740002 -0.92,1.18 -1.86,2.35 -2.8,3.52 -11.84,-8.07 -16.44,-22.38 -21.34,-35.120002 -4.12,-9.64 -7.36,-20.2 -15.01,-27.74 -3.88,-4.06 -9.45,-6.37 -15.06,-6.3 -5.58,0.03 -11.17,-0.24 -16.74,0.28 2.84,0.38 5.72,0.99 8.07,2.73 7.82,5.18 12.18,13.89 15.68,22.31 4.39,9.95 7.25,20.620002 13.07,29.900002 3.16,5.01 7.07,9.87 12.45,12.6 5.4,2.91 11.75,1.77 17.55,3.17 -11.53,11.85 -27.66,18.93 -44.13,19.77 -10.27,0.32 -21.06,-1.73 -29.42,-8.02 -5.6400001,-4.26 -10.2000001,-10.3 -11.4500001,-17.39 -1.5,-6.02 0.65,-12.02 1.94,-17.85 5.32,-21.330002 10.5700001,-42.680002 15.9300001,-64.000002 1.59,-6.82 5.24,-13.03 10.06,-18.08 m -17.38,82.880002 c -1.6100001,10.69 6.59,21.57 17.23,23.15 9.66,1.96 19.68,-4.25 23.15,-13.29 -4.99,-8.43 -8.17,-17.740002 -11.92,-26.750002 -12.1,-5.17 -27.22,3.84 -28.46,16.890002 z" />
</svg>
