<?xml version="1.0" encoding="UTF-8" standalone="no"?>
<svg
xmlns:dc="http://purl.org/dc/elements/1.1/"
xmlns:cc="http://creativecommons.org/ns#"
xmlns:rdf="http://www.w3.org/1999/02/22-rdf-syntax-ns#"
xmlns:svg="http://www.w3.org/2000/svg"
xmlns="http://www.w3.org/2000/svg"
xmlns:sodipodi="http://sodipodi.sourceforge.net/DTD/sodipodi-0.dtd"
xmlns:inkscape="http://www.inkscape.org/namespaces/inkscape"
version="1.1"
id="Layer_1"
width="245.996"
height="78.661"
viewBox="0 0 245.996 78.661"
overflow="visible"
enable-background="new 0 0 245.996 78.661"
xml:space="preserve"
inkscape:version="0.48.0 r9654"
sodipodi:docname="Air Columbus.svg"><metadata
id="metadata53"><rdf:RDF><cc:Work
rdf:about=""><dc:format>image/svg+xml</dc:format><dc:type
rdf:resource="http://purl.org/dc/dcmitype/StillImage" /></cc:Work></rdf:RDF></metadata><defs
id="defs51" /><sodipodi:namedview
pagecolor="#ffffff"
bordercolor="#666666"
borderopacity="1"
objecttolerance="10"
gridtolerance="10"
guidetolerance="10"
inkscape:pageopacity="0"
inkscape:pageshadow="2"
inkscape:window-width="1113"
inkscape:window-height="607"
id="namedview49"
showgrid="false"
showguides="true"
inkscape:guide-bbox="true"
inkscape:zoom="1.9512512"
inkscape:cx="122.998"
inkscape:cy="39.330502"
inkscape:window-x="0"
inkscape:window-y="0"
inkscape:window-maximized="0"
inkscape:current-layer="Layer_1" />
<rect
style="opacity:0.97000001999999996;fill:#ffffff;fill-opacity:1;stroke:none"
id="rect3030"
width="245.996"
height="78.660995"
x="1.7763568e-015"
y="7.0513551e-010" /><g
id="g3">
<polygon
fill="#F6B70D"
points="2.169,78.661 77.391,0 75.22,0 0,78.661  "
id="polygon5" />
<polygon
fill="#F6B70D"
points="97.654,0 22.433,78.661 18.09,78.661 93.313,0  "
id="polygon7" />
<polygon
fill="#F6B70D"
points="44.141,78.661 119.363,0 112.85,0 37.626,78.661  "
id="polygon9" />
<polygon
fill="#F6B70D"
points="138.9,0 63.676,78.661 56.44,78.661 131.664,0  "
id="polygon11" />
<polygon
fill="#F6B70D"
points="84.664,78.661 159.884,0 149.752,0 74.53,78.661  "
id="polygon13" />
<polygon
fill="#F6B70D"
points="105.648,78.661 180.871,0 168.567,0 93.346,78.661  "
id="polygon15" />
<polygon
fill="#F6B70D"
points="125.184,78.661 200.407,0 186.657,0 111.436,78.661  "
id="polygon17" />
<polygon
fill="#F6B70D"
points="146.17,78.661 221.389,0 206.195,0 130.976,78.661  "
id="polygon19" />
<polygon
fill="#F6B70D"
points="166.433,78.661 241.658,0 224.286,0 149.066,78.661  "
id="polygon21" />
<polygon
fill="#1B4C9C"
points="245.996,78.661 245.996,0 170.773,78.661  "
id="polygon23" />
</g>
<g
id="g25">
<path
fill="#1B4C9C"
d="M27.717,31.812h-4.995l-1.993-5.142h-9.225l-1.89,5.142h-4.98l8.846-22.67h4.975L27.717,31.812z    M19.2,22.832l-3.21-8.419l-3.081,8.419H19.2z"
id="path27" />
<path
fill="#1B4C9C"
d="M30.047,31.812V9.142h4.642v22.67H30.047z"
id="path29" />
<path
fill="#1B4C9C"
d="M39.097,31.812V9.142h9.76c2.448,0,4.232,0.198,5.347,0.606c1.112,0.409,2.002,1.132,2.67,2.167   c0.665,1.037,1.004,2.229,1.004,3.569c0,1.703-0.507,3.105-1.517,4.209c-1.004,1.11-2.514,1.81-4.52,2.1   c1.006,0.569,1.826,1.216,2.481,1.9c0.643,0.701,1.524,1.925,2.628,3.686l2.81,4.433h-5.557l-3.332-4.934   c-1.194-1.771-2.009-2.881-2.453-3.347c-0.438-0.455-0.905-0.771-1.394-0.945c-0.494-0.162-1.276-0.257-2.342-0.257h-0.947v9.482   H39.097z M43.736,18.706h3.438c2.219,0,3.608-0.095,4.162-0.284c0.559-0.187,0.991-0.5,1.299-0.954   c0.317-0.443,0.473-1.015,0.473-1.692c0-0.758-0.204-1.377-0.618-1.841c-0.416-0.466-0.998-0.758-1.749-0.886   c-0.374-0.046-1.503-0.07-3.382-0.07h-3.622V18.706z"
id="path31" />
<path
fill="#1B4C9C"
d="M21.737,51.157l4.52,1.366c-0.695,2.482-1.842,4.348-3.458,5.563c-1.61,1.197-3.656,1.813-6.133,1.813   c-3.067,0-5.588-1.029-7.563-3.081c-1.978-2.065-2.963-4.879-2.963-8.445c0-3.778,0.994-6.719,2.976-8.805s4.593-3.126,7.823-3.126   c2.822,0,5.114,0.815,6.877,2.448c1.048,0.978,1.834,2.368,2.36,4.184l-4.602,1.075c-0.272-1.177-0.844-2.1-1.714-2.775   c-0.87-0.675-1.923-1.026-3.167-1.026c-1.718,0-3.114,0.609-4.18,1.82c-1.068,1.2-1.603,3.158-1.603,5.855   c0,2.867,0.523,4.919,1.579,6.13c1.057,1.211,2.425,1.824,4.114,1.824c1.246,0,2.312-0.386,3.21-1.157   C20.706,54.038,21.354,52.827,21.737,51.157z"
id="path33" />
<path
fill="#1B4C9C"
d="M29.212,48.324c0-2.31,0.35-4.254,1.049-5.83c0.524-1.156,1.237-2.193,2.14-3.114   c0.903-0.923,1.897-1.6,2.969-2.041c1.436-0.606,3.084-0.897,4.956-0.897c3.388,0,6.096,1.04,8.13,3.112   c2.029,2.075,3.048,4.967,3.048,8.665c0,3.674-1.008,6.543-3.028,8.606c-2.015,2.074-4.709,3.111-8.084,3.111   c-3.419,0-6.136-1.037-8.154-3.087C30.221,54.785,29.212,51.938,29.212,48.324z M33.981,48.175c0,2.577,0.601,4.522,1.808,5.855   c1.207,1.325,2.736,1.988,4.589,1.988c1.859,0,3.381-0.663,4.57-1.98c1.189-1.318,1.785-3.286,1.785-5.924   c0-2.613-0.577-4.562-1.739-5.842c-1.158-1.282-2.698-1.926-4.616-1.926c-1.919,0-3.465,0.653-4.639,1.962   C34.565,43.6,33.981,45.559,33.981,48.175z"
id="path35" />
<path
fill="#1B4C9C"
d="M55.282,59.528V37.057h4.641v18.636h11.544v3.836H55.282z"
id="path37" />
<path
fill="#1B4C9C"
d="M74.774,36.848h4.645v12.294c0,1.958,0.055,3.219,0.173,3.8c0.195,0.919,0.668,1.668,1.415,2.24   c0.747,0.561,1.768,0.837,3.063,0.837c1.313,0,2.302-0.268,2.973-0.791c0.672-0.536,1.067-1.189,1.207-1.96   c0.134-0.781,0.203-2.064,0.203-3.856V36.848h4.642v11.918c0,2.731-0.123,4.655-0.378,5.788c-0.251,1.117-0.71,2.074-1.383,2.841   c-0.674,0.783-1.573,1.391-2.705,1.856c-1.125,0.458-2.601,0.686-4.419,0.686c-2.193,0-3.854-0.242-4.993-0.756   c-1.129-0.491-2.025-1.143-2.688-1.951c-0.655-0.792-1.09-1.631-1.298-2.504c-0.307-1.305-0.456-3.229-0.456-5.772V36.848z"
id="path39" />
<path
fill="#1B4C9C"
d="M97.928,59.528V36.848h6.962l4.145,15.465l4.111-15.465h6.99v22.681h-4.31l-0.015-17.85l-4.585,17.85h-4.46   l-4.506-17.85l-0.023,17.85H97.928z"
id="path41" />
<path
fill="#1B4C9C"
d="M124.726,36.848h9.203c1.822,0,3.177,0.071,4.073,0.22c0.894,0.154,1.694,0.469,2.404,0.947   c0.703,0.467,1.292,1.108,1.764,1.891c0.474,0.793,0.707,1.68,0.707,2.659c0,1.059-0.289,2.04-0.862,2.925   c-0.58,0.897-1.361,1.564-2.34,2.008c1.389,0.396,2.463,1.083,3.206,2.052c0.748,0.967,1.127,2.11,1.127,3.415   c0,1.026-0.243,2.033-0.732,3.001c-0.484,0.977-1.151,1.744-1.996,2.329c-0.84,0.583-1.88,0.945-3.115,1.077   c-0.773,0.078-2.637,0.14-5.603,0.157h-7.836V36.848z M129.37,40.638v5.239h3.047c1.813,0,2.939-0.024,3.379-0.072   c0.803-0.094,1.426-0.371,1.88-0.815c0.453-0.445,0.684-1.038,0.684-1.773c0-0.699-0.194-1.259-0.59-1.702   c-0.392-0.436-0.973-0.699-1.748-0.796c-0.462-0.056-1.792-0.08-3.976-0.08H129.37z M129.37,49.663v6.029h4.319   c1.683,0,2.752-0.046,3.197-0.14c0.699-0.128,1.263-0.42,1.698-0.897c0.439-0.479,0.653-1.118,0.653-1.911   c0-0.676-0.166-1.247-0.508-1.725c-0.329-0.468-0.819-0.808-1.456-1.029c-0.636-0.207-2.011-0.327-4.134-0.327H129.37z"
id="path43" />
<path
fill="#1B4C9C"
d="M147.92,36.848h4.644v12.294c0,1.958,0.056,3.219,0.174,3.8c0.197,0.919,0.671,1.668,1.414,2.24   c0.748,0.561,1.769,0.837,3.062,0.837c1.313,0,2.306-0.268,2.975-0.791c0.667-0.536,1.067-1.189,1.205-1.96   c0.136-0.781,0.205-2.064,0.205-3.856V36.848h4.644v11.918c0,2.731-0.124,4.655-0.378,5.788c-0.253,1.117-0.713,2.074-1.393,2.841   c-0.669,0.783-1.572,1.391-2.697,1.856c-1.133,0.458-2.597,0.686-4.419,0.686c-2.193,0-3.862-0.242-4.991-0.756   c-1.133-0.491-2.027-1.143-2.687-1.951c-0.662-0.792-1.094-1.631-1.301-2.504c-0.302-1.305-0.456-3.229-0.456-5.772V36.848z"
id="path45" />
<path
fill="#1B4C9C"
d="M169.902,52.148l4.52-0.454c0.273,1.483,0.823,2.578,1.656,3.273c0.829,0.703,1.952,1.051,3.364,1.051   c1.495,0,2.617-0.313,3.377-0.928c0.757-0.621,1.135-1.356,1.135-2.184c0-0.537-0.156-0.99-0.479-1.362   c-0.313-0.376-0.865-0.701-1.66-0.983c-0.542-0.186-1.772-0.511-3.704-0.977c-2.476-0.619-4.218-1.366-5.217-2.254   c-1.406-1.246-2.11-2.772-2.11-4.571c0-1.15,0.33-2.224,0.989-3.24c0.659-1.005,1.616-1.772,2.865-2.298   c1.24-0.522,2.745-0.78,4.509-0.78c2.873,0,5.041,0.626,6.494,1.877c1.45,1.261,2.215,2.939,2.291,5.037l-4.643,0.176   c-0.196-1.179-0.622-2.018-1.27-2.531c-0.65-0.514-1.628-0.768-2.925-0.768c-1.334,0-2.39,0.266-3.146,0.813   c-0.489,0.359-0.733,0.827-0.733,1.423c0,0.535,0.231,0.992,0.689,1.378c0.583,0.487,1.998,0.991,4.25,1.515   c2.255,0.523,3.916,1.073,4.996,1.635c1.079,0.557,1.925,1.328,2.538,2.307c0.604,0.979,0.907,2.183,0.907,3.617   c0,1.305-0.362,2.521-1.098,3.66c-0.727,1.129-1.764,1.968-3.101,2.535c-1.343,0.545-3.011,0.821-5.003,0.821   c-2.907,0-5.141-0.663-6.699-1.99C171.141,56.618,170.206,54.691,169.902,52.148z"
id="path47" />
</g>
</svg>