<?xml version="1.0" encoding="UTF-8" standalone="no"?>
<!-- Created with Inkscape (http://www.inkscape.org/) -->

<svg
   xmlns:dc="http://purl.org/dc/elements/1.1/"
   xmlns:cc="http://creativecommons.org/ns#"
   xmlns:rdf="http://www.w3.org/1999/02/22-rdf-syntax-ns#"
   xmlns:svg="http://www.w3.org/2000/svg"
   xmlns="http://www.w3.org/2000/svg"
   version="1.1"
   width="892.91339"
   height="205.51181"
   id="svg3718">
  <defs
     id="defs3720">
    <clipPath
       id="clipPath3265">
      <path
         d="m 130.13,16.39 147.104,0 0,32.966 -147.104,0 0,-32.966 z"
         id="path3267" />
    </clipPath>
  </defs>
  <metadata
     id="metadata3723">
    <rdf:RDF>
      <cc:Work
         rdf:about="">
        <dc:format>image/svg+xml</dc:format>
        <dc:type
           rdf:resource="http://purl.org/dc/dcmitype/StillImage" />
        <dc:title></dc:title>
      </cc:Work>
    </rdf:RDF>
  </metadata>
  <g
     transform="translate(17.654182,-370.31153)"
     id="layer1"
     style="fill:#b52019;fill-opacity:1">
    <g
       transform="matrix(4.8174243,0,0,4.8174243,-1099.0092,-2325.5363)"
       id="g3775"
       style="fill:#b52019;fill-opacity:1">
      <g
         transform="matrix(1.25,0,0,-1.25,285.70585,592.90249)"
         id="g3233"
         style="fill:#b52019;fill-opacity:1">
        <path
           d="m 0,0 0,11.511 c 0,4.792 -3.033,6.412 -6.86,6.412 -2.929,0 -5.17,-0.828 -6.376,-1.414 l 0.965,-2.413 c 1.137,0.552 2.861,1.138 4.654,1.138 2.17,0 3.687,-0.655 3.687,-3.069 l 0,-0.998 c -5.653,-0.551 -10.375,-1.965 -10.375,-6.859 0,-3.586 2.516,-5.652 7.584,-5.652 2.894,0 5.239,0.55 6.721,1.344 m -3.93,1.516 c -0.62,-0.31 -1.551,-0.518 -2.516,-0.518 -2.448,0 -3.895,1.035 -3.895,3.447 0,3.378 2.446,4.239 6.411,4.722"
           id="path3235"
           style="fill:#b52019;fill-opacity:1;fill-rule:nonzero;stroke:none" />
      </g>
      <g
         transform="matrix(1.25,0,0,-1.25,294.70485,564.33935)"
         id="g3237"
         style="fill:#b52019;fill-opacity:1">
        <path
           d="m 0,0 c 0,1.173 -0.999,2.104 -2.311,2.104 -1.274,0 -2.308,-0.931 -2.308,-2.104 0,-1.138 1.034,-2.066 2.308,-2.066 C -0.999,-2.066 0,-1.138 0,0"
           id="path3239"
           style="fill:#b52019;fill-opacity:1;fill-rule:nonzero;stroke:none" />
      </g>
      <path
         d="m 289.18648,594.15361 5.25625,0 0,-23.22125 -5.25625,0 0,23.22125 z"
         id="path3241"
         style="fill:#b52019;fill-opacity:1;fill-rule:nonzero;stroke:none" />
      <g
         transform="matrix(1.25,0,0,-1.25,309.39723,570.54174)"
         id="g3243"
         style="fill:#b52019;fill-opacity:1">
        <path
           d="m 0,0 c -4.688,0.138 -7.03,-0.38 -8.961,-1.311 l 0,-17.579 4.205,0 0,15.683 c 0.965,0.553 2.516,0.62 3.93,0.14"
           id="path3245"
           style="fill:#b52019;fill-opacity:1;fill-rule:nonzero;stroke:none" />
      </g>
      <g
         transform="matrix(1.25,0,0,-1.25,343.65259,594.15373)"
         id="g3247"
         style="fill:#b52019;fill-opacity:1">
        <path
           d="m 0,0 0,13.237 c 0,2.929 -1.965,5.687 -6.378,5.687 -2.826,0 -4.721,-0.896 -5.961,-2.035 -1.068,1.174 -2.792,2.035 -5.791,2.035 -3.101,0 -5.101,-0.449 -6.963,-1.344 l 0,-17.58 4.205,0 0,15.753 c 0.827,0.344 1.517,0.518 2.758,0.518 2.275,0 3.481,-1.174 3.481,-2.966 l 0,-13.305 4.206,0 0,14.959 c 0.861,0.863 1.828,1.275 3.101,1.275 2.241,0 3.137,-1.413 3.137,-3.031 L -4.205,0"
           id="path3249"
           style="fill:#b52019;fill-opacity:1;fill-rule:nonzero;stroke:none" />
      </g>
      <g
         transform="matrix(1.25,0,0,-1.25,364.92584,592.90249)"
         id="g3251"
         style="fill:#b52019;fill-opacity:1">
        <path
           d="m 0,0 0,11.511 c 0,4.792 -3.033,6.412 -6.859,6.412 -2.929,0 -5.17,-0.828 -6.375,-1.414 l 0.963,-2.413 c 1.138,0.552 2.861,1.138 4.655,1.138 2.17,0 3.686,-0.655 3.686,-3.069 l 0,-0.998 c -5.65,-0.551 -10.374,-1.965 -10.374,-6.859 0,-3.586 2.517,-5.652 7.584,-5.652 2.896,0 5.238,0.55 6.72,1.344 m -3.93,1.516 c -0.618,-0.31 -1.549,-0.518 -2.515,-0.518 -2.447,0 -3.894,1.035 -3.894,3.447 0,3.378 2.447,4.239 6.409,4.722"
           id="path3253"
           style="fill:#b52019;fill-opacity:1;fill-rule:nonzero;stroke:none" />
      </g>
      <path
         d="m 368.65398,594.15236 5.255,0 0,-33.8225 -5.255,0 0,33.8225 z"
         id="path3255"
         style="fill:#b52019;fill-opacity:1;fill-rule:nonzero;stroke:none" />
      <g
         transform="matrix(1.25,0,0,-1.25,388.85284,593.93774)"
         id="g3257"
         style="fill:#b52019;fill-opacity:1">
        <path
           d="M 0,0 0,2.619 C -0.344,2.515 -0.621,2.446 -0.999,2.446 c -1.447,0 -2.033,0.967 -2.033,2.414 l 0,10.857 3.032,0 0,2.688 -3.032,0 0,5.274 -4.205,-1.172 0,-4.102 -2.069,0 0,-2.688 2.069,0 0,-11.065 c 0,-2.585 1.446,-5.033 5.1,-5.033 0.999,0 1.758,0.208 2.137,0.381"
           id="path3259"
           style="fill:#b52019;fill-opacity:1;fill-rule:nonzero;stroke:none" />
      </g>
      <g
         transform="matrix(1.25,0,0,-1.25,62.540232,622.02486)"
         id="g3261"
         style="fill:#b52019;fill-opacity:1">
        <g
           clip-path="url(#clipPath3265)"
           id="g3263"
           style="fill:#b52019;fill-opacity:1">
          <g
             transform="translate(277.2346,23.297897)"
             id="g3269"
             style="fill:#b52019;fill-opacity:1">
            <path
               d="m 0,0 0,11.511 c 0,4.792 -3.034,6.412 -6.859,6.412 -2.931,0 -5.172,-0.828 -6.378,-1.414 l 0.964,-2.413 c 1.14,0.552 2.863,1.138 4.656,1.138 2.171,0 3.686,-0.655 3.686,-3.069 l 0,-0.998 c -5.652,-0.551 -10.375,-1.965 -10.375,-6.859 0,-3.586 2.516,-5.652 7.583,-5.652 2.896,0 5.24,0.55 6.723,1.344 m -3.931,1.516 c -0.618,-0.31 -1.551,-0.518 -2.515,-0.518 -2.447,0 -3.895,1.035 -3.895,3.447 0,3.378 2.446,4.239 6.41,4.722"
               id="path3271"
               style="fill:#b52019;fill-opacity:1;fill-rule:nonzero;stroke:none" />
          </g>
          <g
             transform="translate(145.9192,32.167007)"
             id="g3273"
             style="fill:#b52019;fill-opacity:1">
            <path
               d="M 0,0 15.338,6.424 9.003,-0.16 15.452,-6.469 0,-0.311 l 6.412,-15.351 -6.586,6.33 -6.306,-6.447 6.167,15.468 -15.362,-6.429 6.326,6.58 -6.44,6.312 L -0.313,0 -6.75,15.348 l 6.576,-6.33 6.317,6.443"
               id="path3275"
               style="fill:#b52019;fill-opacity:1;fill-rule:nonzero;stroke:none" />
          </g>
        </g>
      </g>
    </g>
  </g>
</svg>
