<?xml version="1.0" encoding="utf-8"?>
<!-- Generator: Adobe Illustrator 16.0.3, SVG Export Plug-In . SVG Version: 6.00 Build 0)  -->
<svg version="1.1" id="Air_Pacific_logo_1980" xmlns="http://www.w3.org/2000/svg" xmlns:xlink="http://www.w3.org/1999/xlink"
	 x="0px" y="0px" width="512px" height="512px" viewBox="0 0 512 512" enable-background="new 0 0 512 512" xml:space="preserve">
<rect x="0" fill="#3A6DA0" width="512" height="512"/>
<polygon fill="#538850" points="30.16,512 428.332,0 512,0 512,342.964 273.532,512 "/>
<polygon fill="#FFF" points="421.932,0 434.682,0 36.511,512 23.76,512 "/>
<polygon fill="#FFF" points="265.077,512 282.492,512 512,349.364 512,337.023 "/>
<path fill="#FFF" d="M135.144,294.909l-28.958,17.941L81.549,193.797l29.385-18.228l95.499,75.13l-29.828,18.502l-13.075-11.029
	l-32.3,20.028L135.144,294.909z M144.574,242.161l-26.699-22.931l7.782,34.649L144.574,242.161z M182.666,157.118l-26.486,16.405
	l-11.606-18.765l26.481-16.411L182.666,157.118z M231.175,235.399l-26.487,16.423l-43.294-69.854l26.481-16.411L231.175,235.399z
	 M224.924,156.097c0.897-11.213,5.337-19.013,13.775-24.244c2.327-1.441,4.401-2.321,8.141-3.431l13.619,21.973
	c-3.364,1.071-5.287,1.867-7.474,3.218c-12.508,7.753-14.678,18.558-6.38,31.958l18.031,29.099l-26.48,16.406l-43.278-69.849
	l24.008-14.875L224.924,156.097z M107.889,419.613L78.784,437.65l-60.137-97.058l46.126-28.594
	c10.037-6.218,15.29-8.467,22.589-9.363c14.65-2.03,29.497,5.685,38.126,19.651c8.567,13.821,8.146,29.391-1.015,41.91
	c-3.538,5.012-8.236,9.134-15.362,13.552L89.488,389.92L107.889,419.613z M75.427,367.23l14.841-9.195
	c7.849-4.866,9.587-11.174,5.259-18.161c-4.328-6.986-9.947-7.933-17.808-3.061l-15.278,9.463L75.427,367.23z M133.428,339.549
	c-4.827-9.094-5.854-15.301-3.958-22.321c2.573-8.84,9.918-16.82,22.287-24.479c15.418-9.531,27.972-12.705,37.11-9.313
	c5.87,2.001,10.339,6.279,15.475,14.578l18.844,30.411c4.783,7.709,8.107,10.479,13.933,11.101l-28.627,17.762
	c-1.772-0.914-5.881-4.614-7.143-6.649c-1.077,10.939-5.473,17.488-15.951,23.98c-14.841,9.201-29.547,7.239-37.212-5.13
	c-4.598-7.423-4.839-15.934-0.78-23.683c2.378-4.289,7.407-9.823,16.07-17.611c12.783-11.544,14.577-14.482,11.976-18.698
	c-2.165-3.493-6.863-3.6-12.245-0.264c-6.296,3.875-8.444,8.837-5.736,13.232c0.31,0.548,0.687,1.055,1.122,1.508L133.428,339.549z
	 M185.902,325.757c-1.542,4.984-3.364,7.535-10.417,14.712c-4.917,5.046-5.926,8.309-3.852,11.656
	c2.243,3.633,6.896,3.981,11.696,1.003c8.734-5.432,10.585-14.403,4.737-23.878L185.902,325.757z M292.877,265.709
	c10.563,18.025,3.224,40.295-17.297,53.012c-21.827,13.523-48.419,7.67-61.404-13.299c-13.345-21.535-6.548-47.292,16.293-61.45
	c19.623-12.173,39.376-9.902,52.76,6.167l-25.231,16.451c-5.309-5.971-10.966-7.289-16.64-3.785
	c-7.568,4.688-7.603,14.376-0.213,26.313c7.127,11.494,15.873,15.536,23.442,10.849c5.965-3.7,6.896-10.316,2.428-18.827
	L292.877,265.709z M292.592,196.803l-26.48,16.411l-11.634-18.771l26.485-16.411L292.592,196.803z M341.101,275.083l-26.481,16.411
	l-43.256-69.843l26.481-16.411L341.101,275.083z M380.286,250.817l-26.481,16.411l-33.64-54.273l-9.745,6.039l-9.643-15.57
	l9.754-6.038l-2.073-3.364c-10.282-16.59-6.532-29.385,12.093-40.929c2.326-1.441,3.201-1.979,13.276-7.822l11.466,18.525
	c-1.98,1.026-3.09,1.513-4.25,2.242c-6.841,4.239-8.344,7.989-5.097,13.227l1.081,1.749l13.675-8.478l9.649,15.57l-13.674,8.478
	L380.286,250.817z M426.704,222.055l-26.464,16.411l-43.285-69.842l26.464-16.412L426.704,222.055z M378.195,143.769l-26.481,16.412
	l-11.634-18.771l26.481-16.406L378.195,143.769z M487.267,145.254c10.564,18.02,3.219,40.295-17.296,53.005
	c-21.827,13.524-48.42,7.653-61.404-13.299c-13.345-21.535-6.549-47.292,16.294-61.45c19.622-12.173,39.374-9.901,52.759,6.168
	l-25.236,16.456c-5.309-5.971-10.967-7.289-16.641-3.784c-7.569,4.692-7.603,14.381-0.214,26.312
	c7.127,11.494,15.873,15.536,23.443,10.849c5.965-3.694,6.896-10.316,2.427-18.827L487.267,145.254z"/>
</svg>
