<?xml version="1.0" encoding="UTF-8" standalone="no"?>
<!-- Generator: Adobe Illustrator 12.0.0, SVG Export Plug-In  -->
<svg xmlns:dc="http://purl.org/dc/elements/1.1/" xmlns:cc="http://creativecommons.org/ns#" xmlns:rdf="http://www.w3.org/1999/02/22-rdf-syntax-ns#" xmlns:svg="http://www.w3.org/2000/svg" xmlns="http://www.w3.org/2000/svg" xmlns:sodipodi="http://sodipodi.sourceforge.net/DTD/sodipodi-0.dtd" xmlns:inkscape="http://www.inkscape.org/namespaces/inkscape" version="1.1" width="119.94287" height="65.470215" viewBox="-0.6894531 -0.3935547 119.94287 65.470215" enable-background="new -0.6894531 -0.3935547 128 73" xml:space="preserve" id="svg2" inkscape:version="0.48.1 " sodipodi:docname="AJAX.svg"><metadata id="metadata42"><rdf:RDF><cc:Work rdf:about=""><dc:format>image/svg+xml</dc:format><dc:type rdf:resource="http://purl.org/dc/dcmitype/StillImage"/></cc:Work></rdf:RDF></metadata><sodipodi:namedview pagecolor="#ffffff" bordercolor="#666666" borderopacity="1" objecttolerance="10" gridtolerance="10" guidetolerance="10" inkscape:pageopacity="0" inkscape:pageshadow="2" inkscape:window-width="1280" inkscape:window-height="1004" id="namedview40" showgrid="false" fit-margin-top="0" fit-margin-left="0" fit-margin-right="0" fit-margin-bottom="0" inkscape:zoom="3.6212809" inkscape:cx="56.126458" inkscape:cy="-5.5435547" inkscape:window-x="-8" inkscape:window-y="-8" inkscape:window-maximized="1" inkscape:current-layer="svg2"/>
<defs id="defs4">
</defs>
<rect width="127" height="72" id="rect6" x="-4.2182617" y="-2.6586914" style="opacity:0;fill:#ffffff"/>
<path d="m 8.6533203,65.076661 h -2.534668 l 0.434082,-1.202149 H 3.3154297 L 1.84375,65.076661 h -2.5332031 l 0.011719,-0.01856 8.3178714,-6.302734 h 2.7250967 l -1.7119137,6.321289 z m -1.831055,-2.00586 0.997071,-2.850586 -3.5273442,2.850586 h 2.5302732 z" id="path8" inkscape:connector-curvature="0"/>
<path d="m 12.717285,65.076661 h -2.580567 l 4.996094,-6.32129 h 2.580078 l -4.995605,6.32129 z" id="path10" inkscape:connector-curvature="0"/>
<path d="M 23.676757,65.076661 H 21.0083 l -0.568359,-2.949219 0.451172,-0.569336 h 2.539062 l 1.583497,-2.005859 h -3.248536 l -4.363281,5.524414 h -2.57959 l 4.990235,-6.32129 h 7.048828 c 0.902344,0.0049 1.225586,0.174805 0.966797,0.498047 l -1.917481,2.427735 c -0.175781,0.222656 -0.539551,0.370117 -1.090332,0.446289 -0.293457,0.03418 -0.862305,0.05176 -1.718262,0.05176 l 0.574707,2.897461 z" id="path12" inkscape:connector-curvature="0"/>
<path d="m 38.73584,64.572754 c -0.264649,0.327149 -0.850586,0.491211 -1.759766,0.503907 h -5.775879 c -0.891113,-0.0127 -1.219727,-0.176758 -0.967285,-0.503907 l 4.204101,-5.319336 c 0.264161,-0.323242 0.850586,-0.493164 1.759278,-0.498046 h 5.775879 c 0.891601,0.0049 1.213867,0.174804 0.967773,0.498046 l -1.260742,1.594727 h -2.580078 l 1.020019,-1.295898 h -3.336914 l -3.729004,4.720703 h 3.336914 l 1.055176,-1.336914 h 2.580078 l -1.28955,1.636718 z" id="path14" inkscape:connector-curvature="0"/>
<path d="m 49.049804,65.076661 h -2.533203 l 0.428223,-1.202149 h -3.230469 l -1.472168,1.202149 h -2.539551 l 0.01221,-0.01856 8.320801,-6.302734 h 2.721192 l -1.707032,6.321289 z m -1.83496,-2.00586 0.996581,-2.850586 -3.523925,2.850586 h 2.527344 z" id="path16" inkscape:connector-curvature="0"/>
<path d="m 59.341308,65.076661 h -2.667969 l -0.568847,-2.949219 0.457519,-0.569336 h 2.533203 l 1.583008,-2.005859 h -3.248535 l -4.362793,5.524414 h -2.580078 l 4.996094,-6.32129 h 7.048339 c 0.902832,0.0049 1.225586,0.174805 0.967774,0.498047 l -1.917481,2.427735 c -0.175781,0.222656 -0.53955,0.370117 -1.091308,0.446289 -0.292969,0.03418 -0.867676,0.05176 -1.717774,0.05176 l 0.568848,2.897461 z" id="path18" inkscape:connector-curvature="0"/>
<path d="m 63.493164,65.076661 h -2.580567 l 4.990723,-6.32129 h 2.57959 l -4.989746,6.32129 z" id="path20" inkscape:connector-curvature="0"/>
<path d="m 74.446777,64.572754 c -0.263672,0.327149 -0.855469,0.491211 -1.758789,0.503907 h -7.095703 l 4.99707,-6.32129 h 7.047852 c 0.868164,0.0049 1.173828,0.174805 0.926758,0.498047 l -1.28418,1.618164 c -0.175781,0.235352 -0.504883,0.411133 -0.973633,0.53418 -0.06445,0.01758 -0.603515,0.12793 -1.61914,0.328125 0.71582,0.210938 1.091796,0.328125 1.126953,0.345703 0.292968,0.134766 0.345703,0.323242 0.163086,0.557617 l -1.530274,1.935547 z M 72.10205,64.27295 73.544433,62.448731 72.500488,62.138184 h -2.005859 l -1.688477,2.134766 h 3.295898 z m 2.451172,-3.213868 1.19043,-1.506836 h -3.208008 l -1.442383,1.829102 h 1.964844 l 1.495117,-0.322266 z" id="path22" inkscape:connector-curvature="0"/>
<path d="m 84.91455,64.572754 c -0.270507,0.327149 -0.856445,0.491211 -1.758789,0.503907 h -7.096679 l 4.99707,-6.32129 h 7.047852 c 0.868164,0.0049 1.173828,0.174805 0.920898,0.498047 l -1.27832,1.618164 c -0.181641,0.235352 -0.504883,0.411133 -0.972657,0.53418 -0.06543,0.01758 -0.604492,0.12793 -1.61914,0.328125 0.714844,0.210938 1.09082,0.328125 1.125976,0.345703 0.292969,0.134766 0.345704,0.323242 0.164063,0.557617 l -1.530274,1.935547 z m -2.345703,-0.299804 1.44336,-1.824219 -1.039063,-0.310547 h -2.011718 l -1.688477,2.134765 h 3.295898 z m 2.451172,-3.213868 1.19043,-1.506836 h -3.207031 l -1.442383,1.829102 h 1.963867 l 1.495117,-0.322266 z" id="path24" inkscape:connector-curvature="0"/>
<path d="m 93.692871,65.076661 h -7.165039 l 4.996093,-6.32129 h 7.118163 l -0.66894,0.844727 h -4.53809 l -1.443359,1.823242 h 3.917969 l -0.632813,0.802735 h -3.917969 l -1.583007,2 h 4.584961 l -0.667969,0.850586 z" id="path26" inkscape:connector-curvature="0"/>
<path d="m 104.14893,65.076661 h -2.53906 l 0.43359,-1.202149 h -3.237312 l -1.47168,1.202149 h -2.533199 l 0.01172,-0.01856 8.321291,-6.302734 h 2.71973 l -1.70508,6.321289 z m -1.83594,-2.00586 0.99707,-2.850586 -3.524412,2.850586 h 2.527342 z" id="path28" inkscape:connector-curvature="0"/>
<path d="m 114.26416,65.076661 h -2.24023 l -0.97364,-3.982422 c -0.041,0.194336 -0.10546,0.346679 -0.19335,0.458007 l -2.78614,3.524415 h -2.49121 l 4.9961,-6.32129 h 2.24023 l 1.03125,3.893555 c 0.042,-0.188476 0.1123,-0.34082 0.19434,-0.451172 l 2.71972,-3.442383 h 2.49219 l -4.98926,6.32129 z" id="path30" inkscape:connector-curvature="0"/>
<polygon points="70.473145,2.2651367 91.039062,58.768555 56.528809,58.768555 35.963867,2.2651367 " id="polygon32" style="fill:#ffffff" transform="translate(-4.21826, -2.65869)"/>
<polygon points="68.702148,3.5458984 88.352539,57.525391 79.651367,57.525391 60,3.5458984 " id="polygon34" style="fill:#842719" transform="translate(-4.21826, -2.65869)"/>
<polygon points="58.036133,3.5458984 77.679688,57.525391 68.978027,57.525391 49.333496,3.5458984 " id="polygon36" style="fill:#1b182f" transform="translate(-4.21826, -2.65869)"/>
<polygon points="47.363281,3.5458984 67.013184,57.525391 58.305664,57.525391 38.661621,3.5458984 " id="polygon38" style="fill:#842719" transform="translate(-4.21826, -2.65869)"/>
</svg>