<?xml version="1.0" encoding="UTF-8" standalone="no"?>
<!-- Created with Inkscape (http://www.inkscape.org/) -->

<svg
   xmlns:dc="http://purl.org/dc/elements/1.1/"
   xmlns:cc="http://creativecommons.org/ns#"
   xmlns:rdf="http://www.w3.org/1999/02/22-rdf-syntax-ns#"
   xmlns:svg="http://www.w3.org/2000/svg"
   xmlns="http://www.w3.org/2000/svg"
   xmlns:sodipodi="http://sodipodi.sourceforge.net/DTD/sodipodi-0.dtd"
   xmlns:inkscape="http://www.inkscape.org/namespaces/inkscape"
   width="142.24001mm"
   height="52.657555mm"
   viewBox="0 0 504.00002 186.58189"
   id="svg2"
   version="1.1"
   inkscape:version="0.91 r13725"
   sodipodi:docname="airmacau2.svg">
  <defs
     id="defs4" />
  <sodipodi:namedview
     id="base"
     pagecolor="#ffffff"
     bordercolor="#666666"
     borderopacity="1.0"
     inkscape:pageopacity="0.0"
     inkscape:pageshadow="2"
     inkscape:zoom="1.4"
     inkscape:cx="136.03318"
     inkscape:cy="80.273241"
     inkscape:document-units="px"
     inkscape:current-layer="layer1"
     showgrid="false"
     fit-margin-top="0"
     fit-margin-left="0"
     fit-margin-right="0"
     fit-margin-bottom="0"
     inkscape:window-width="1366"
     inkscape:window-height="715"
     inkscape:window-x="-8"
     inkscape:window-y="-8"
     inkscape:window-maximized="1" />
  <metadata
     id="metadata7">
    <rdf:RDF>
      <cc:Work
         rdf:about="">
        <dc:format>image/svg+xml</dc:format>
        <dc:type
           rdf:resource="http://purl.org/dc/dcmitype/StillImage" />
        <dc:title></dc:title>
      </cc:Work>
    </rdf:RDF>
  </metadata>
  <g
     inkscape:label="1. réteg"
     inkscape:groupmode="layer"
     id="layer1"
     transform="translate(-243.04724,-432.39016)">
    <path
       style="fill:#1c4281;fill-opacity:1"
       d="m 325.89938,614.94972 c -3.10633,-2.15648 -7.38133,-5.94853 -9.5,-8.42678 l -3.85214,-4.50591 -9.82413,5.06591 c -9.04961,4.66652 -25.25778,10.88898 -28.36346,10.88898 -2.42731,0 -1.33966,-1.74449 1.43759,-2.30576 3.57068,-0.72162 15.09376,-8.07149 18.05266,-11.51469 1.26646,-1.47375 2.97684,-3.93894 3.80083,-5.4782 l 1.49818,-2.79864 -13.80083,0.15885 c -10.93005,0.12581 -13.85842,-0.12409 -14.07763,-1.20135 -0.22548,-1.10808 2.41595,-1.30435 14.25,-1.05883 l 14.52679,0.30138 0,-5.05138 c 0,-4.94598 0.0626,-5.05138 3,-5.05138 2.94243,0 3,-0.0982 3,-5.11636 l 0,-5.11636 -4.04403,3.65353 c -2.22421,2.00945 -5.59921,4.39516 -7.5,5.30158 -2.87839,1.3726 -3.45597,2.18305 -3.45597,4.84932 0,2.83888 -0.36332,3.25462 -3.20934,3.67232 -1.76513,0.25907 -4.2878,0.18261 -5.60592,-0.16991 l -2.39658,-0.64095 -0.14408,-22.71565 c -0.0792,-12.49361 0.11326,-22.71608 0.42778,-22.71659 0.31452,-5.1e-4 2.63922,0.70349 5.16598,1.56444 2.52677,0.86096 6.28201,1.42346 8.34499,1.25 3.28916,-0.27655 3.8948,-0.7462 4.92015,-3.81537 l 1.16928,-3.5 7.81901,-0.29486 c 8.50852,-0.32086 11.33569,0.79547 6.78665,2.67974 -1.55835,0.64549 -3.3872,2.06046 -4.06411,3.14437 -1.19034,1.90603 -0.93603,1.97075 7.74379,1.97075 6.23932,0 10.01874,-0.49794 12.40063,-1.63379 3.40193,-1.62226 3.45505,-1.61051 7.53393,1.66737 4.31273,3.46581 5.06183,5.33316 2.6752,6.66878 -1.13922,0.63755 -1.49763,4.41141 -1.75,18.42663 l -0.31736,17.62488 2.75,1.57655 c 5.19922,2.98068 3.26935,3.66958 -10.27994,3.66958 l -13.02993,0 2.19337,2.9667 c 2.99444,4.05018 10.10262,7.18978 17.66843,7.80391 l 6.30194,0.51155 -2.43777,2.60892 c -1.34078,1.43491 -3.1757,4.07142 -4.07761,5.85892 -2.17448,4.3096 -4.6509,4.14666 -11.73635,-0.7722 z m 6.17535,-22.71456 2.47251,-1.73676 -3,-0.52111 -3,-0.5211 -0.28542,-10.28201 -0.28543,-10.282 -8.13408,0.28987 c -4.47375,0.15943 -8.28471,0.74557 -8.46881,1.30254 -0.18409,0.55698 2.76402,2.45638 6.55136,4.2209 6.51104,3.03349 8.8394,5.29725 7.56661,7.35667 -1.25316,2.02765 -5.15707,0.66015 -8.86999,-3.10707 -2.15916,-2.19074 -4.29666,-3.98317 -4.75,-3.98317 -0.45333,0 -0.82424,2.25 -0.82424,5 l 0,5 4.44098,0 c 4.998,0 6.6288,1.3571 3.58704,2.98501 -1.19527,0.63969 -2.02801,2.09747 -2.02801,3.55017 0,2.358 0.27206,2.46482 6.27749,2.46482 4.34458,0 7.03881,-0.53477 8.75,-1.73676 z M 297.598,576.20165 c 5.21478,-6.82959 4.50836,-8.19155 -3.42576,-6.60473 -3.07218,0.61444 -3.125,0.72377 -3.125,6.46862 0,7.03952 1.25963,7.06569 6.55076,0.13611 z m 0.44924,-8.8286 c 0,-0.32938 -0.73391,-2.14547 -1.63091,-4.03576 -2.09634,-4.4177 -1.27474,-5.14644 2.65081,-2.3512 2.47916,1.76532 3.01024,2.72959 2.53852,4.60909 -0.5098,2.03119 -0.23028,2.37674 1.92253,2.37674 2.35619,0 2.51905,-0.32325 2.51905,-5 l 0,-5 -5.91821,0 c -8.19536,0 -9.08179,0.49168 -9.08179,5.03744 0,3.17 0.38454,3.89752 2.25,4.25683 3.70411,0.71344 4.75,0.73697 4.75,0.10686 z m 17.80278,-5.64119 1.73598,-4.57324 3.2396,1.36215 3.2396,1.36215 -4.25898,4.0195 c -2.75619,2.6012 -3.69618,4.02832 -2.66397,4.0445 0.87726,0.0138 2.41294,-0.8788 3.41264,-1.98345 1.66347,-1.83811 2.01286,-1.88052 4.1198,-0.5 1.2662,0.82965 2.54302,1.50845 2.83737,1.50845 0.29435,0 0.53518,-3.375 0.53518,-7.5 l 0,-7.5 -3.2,0 c -2.48889,0 -2.93333,0.26667 -2,1.2 2.0606,2.0606 1.33839,2.8 -2.7349,2.8 -2.1642,0 -5.0892,0.43886 -6.5,0.97525 -2.21188,0.84096 -2.56509,1.57535 -2.56509,5.33333 0,7.41804 1.85932,7.20564 4.80278,-0.54864 z m -8.05278,-7.316 c 2.8875,-0.8249 5.25,-1.71224 5.25,-1.97187 0,-0.25964 -4.95,-0.47207 -11,-0.47207 l -11,0 0,2.84861 0,2.84862 5.75,-0.87674 c 3.1625,-0.48221 8.1125,-1.55166 11,-2.37655 z m 77.70809,63.79075 c -0.69359,-0.48909 -1.02789,-13.85526 -1,-39.98288 0.023,-21.5865 0.0419,-39.24557 0.0419,-39.24236 0,0.003 2.925,0.89895 6.5,1.99055 8.27525,2.52678 15.00193,2.54982 19.8666,0.0681 l 3.78691,-1.93194 4.25084,2.53489 4.25084,2.53489 -2.19562,2.33713 c -2.0628,2.19575 -2.17336,3.08182 -1.82759,14.64705 l 0.36803,12.30988 -5.32923,0.30501 c -4.67117,0.26734 -5.3956,0.0512 -5.86664,-1.75 -0.46537,-1.77959 -1.3259,-2.05501 -6.42076,-2.05501 l -5.88337,0 0,23.89301 c 0,26.29292 0.29505,25.12371 -6.33179,25.09168 -1.74251,-0.008 -3.63707,-0.34592 -4.21012,-0.75 z m 22.54191,-56.28459 0,-6.04991 -5.75,0.29991 -5.75,0.2999 -0.2999,5.75 -0.29991,5.75 6.04991,0 6.0499,0 z m 0,-12.4501 0,-5.5 -6,0 -6,0 0,5.5 0,5.5 6,0 6,0 z M 257.8095,616.89868 c -3.2868,-1.91491 -3.97443,-4.61959 -2.66362,-10.47693 1.49136,-6.66408 0.25579,-10.44983 -3.41053,-10.44983 -4.19022,0 -3.89773,-1.39923 0.51498,-2.46358 4.05385,-0.97779 4.53538,-1.48895 8.5126,-9.03642 2.31864,-4.4 4.23114,-8.24714 4.25,-8.5492 0.0189,-0.30206 -1.54689,-0.3646 -3.47946,-0.13899 -4.46277,0.52101 -5.98294,-0.78045 -7.99805,-6.8474 -0.89179,-2.68492 -2.72539,-6.50845 -4.07468,-8.49674 l -2.45325,-3.61506 2.26988,0.70481 c 6.16061,1.91291 15.80737,7.63606 17.13179,10.16381 l 1.4308,2.73077 3.82292,-7.726 c 6.68085,-13.50174 6.6048,-8.97378 -0.19355,11.524 -3.51147,10.5875 -6.39296,20.28043 -6.40329,21.53984 -0.0103,1.25941 0.8812,4.05398 1.9812,6.21016 2.56727,5.03226 2.65165,12.10029 0.17126,14.34501 -2.03564,1.84224 -6.74563,2.13345 -9.409,0.58175 z m 194.23774,-0.52676 c 0,-2.89197 -6.4916,-8.4 -9.9,-8.4 -5.83379,0 -3.11032,-1.90407 3.15,-2.20228 l 6.25,-0.29772 0.27307,-17.75 0.27308,-17.75 -5.02308,0 c -3.68973,0 -5.55395,0.53088 -7.02307,2 -2.03473,2.03473 -4.70737,2.4531 -8.75,1.36971 -2.22068,-0.59512 -2.25,-0.82299 -2.25,-17.48634 0,-9.28585 0.1125,-16.87993 0.25,-16.87573 0.1375,0.004 3.175,0.90076 6.75,1.99236 8.36699,2.55479 12.93341,2.51443 19.17224,-0.16944 4.99156,-2.14731 5.0788,-2.15017 8.55111,-0.28021 4.43983,2.391 5.16551,4.26932 2.44467,6.32761 -2.10489,1.59233 -2.14897,2.21664 -2.40609,34.08263 l -0.26193,32.46059 -3.39788,2.28941 c -3.99745,2.69338 -8.10212,3.04265 -8.10212,0.68941 z m -0.5,-54.4 0,-5.5 -5.25,-0.30226 -5.25,-0.30226 0,6.10452 0,6.10452 5.25,-0.30226 5.25,-0.30226 z m 0,-12.5 0,-5 -5.25,-0.30226 -5.25,-0.30226 0,5.60452 0,5.60452 5.25,-0.30226 5.25,-0.30226 z m 59.66667,65.73762 c 0.18333,-0.41931 1.59951,-3.29499 3.14706,-6.3904 2.40068,-4.80184 2.89977,-7.25891 3.39981,-16.73763 0.50487,-9.57022 0.37364,-11.10959 -0.9471,-11.10959 -0.84325,0 -1.76853,0.9 -2.05619,2 -0.8665,3.31351 -2.40568,2.26662 -3.59154,-2.44282 -0.61529,-2.44355 -1.11871,-4.69355 -1.11871,-5 0,-0.30645 1.8,-0.55718 4,-0.55718 l 4,0 0,-14.48541 0,-14.48541 5.03702,1.98541 c 2.77036,1.09198 5.24536,1.98541 5.5,1.98541 0.25464,0 0.46298,-2.53714 0.46298,-5.63809 l 0,-5.6381 6.71672,0.68815 c 7.45826,0.76412 8.59354,1.27528 6.02495,2.71273 -2.399,1.34255 -2.44555,7.87531 -0.0561,7.87531 0.92705,0 2.65197,-0.90791 3.83316,-2.01757 l 2.1476,-2.01757 4.62544,2.04604 c 5.70959,2.52562 6.52554,3.72834 3.81667,5.62572 -1.85947,1.30243 -2.10841,2.46671 -2.10841,9.86107 0,4.81143 0.45036,8.66261 1.05683,9.03744 0.58125,0.35923 2.21223,0.36317 3.62438,0.009 2.36403,-0.59333 2.52912,-0.98537 2.08272,-4.94585 l -0.48484,-4.30143 5.94956,1.8517 c 7.34599,2.28634 10.96048,2.3314 16.87864,0.21043 l 4.60729,-1.65117 4.64271,3.19426 c 4.74981,3.26796 5.80554,5.43799 3.14271,6.45982 -1.2374,0.47483 -1.5,3.1008 -1.5,15 0,12.73092 0.20236,14.50204 1.72362,15.08581 2.12687,0.81615 4.01927,-1.56002 4.87495,-6.12117 0.88579,-4.72168 3.40143,-4.37978 3.40143,0.46229 0,2.08371 0.87289,5.50069 1.93976,7.59331 2.12589,4.16979 1.53576,7.83794 -1.44494,8.98175 -0.91214,0.34975 -6.08948,0.63612 -11.50521,0.63612 -7.61829,0 -10.20241,-0.35564 -11.41821,-1.57143 -1.32846,-1.32846 -1.57143,-4.80736 -1.57143,-22.5 l 0,-20.92857 -3.35146,0 -3.35147,0 -0.59188,8.38703 c -1.23993,17.56997 -5.31212,27.07318 -14.38503,33.57015 -5.14665,3.68543 -6.19566,4.04282 -11.86632,4.04282 -5.30593,0 -6.29484,-0.28398 -6.72564,-1.93142 -0.32426,-1.23995 -1.97705,-2.32778 -4.61664,-3.03854 -5.96519,-1.60626 -5.04391,-2.73791 2.13845,-2.62676 l 6.25,0.0967 0.27528,-15.72832 c 0.24078,-13.75762 0.0842,-15.65498 -1.25,-15.14301 -1.23545,0.47411 -1.52529,2.61715 -1.52529,11.27834 0,6.98345 -0.4163,11.10931 -1.2,11.89301 -0.66,0.66 -2.91,1.2 -5,1.2 l -3.8,0 0,-11.46862 c 0,-9.78348 -0.2204,-11.38403 -1.5,-10.89301 -0.99742,0.38275 -1.50253,1.96373 -1.50755,4.71862 -0.0114,6.24224 -1.88095,16.51539 -3.64452,20.02646 -2.22899,4.43766 -9.42205,11.61655 -11.63947,11.61655 -1.03132,0 -1.72513,-0.34307 -1.54179,-0.76238 z m 46.86896,-13.98762 c 1.53743,-4.05638 2.33743,-8.93261 2.71609,-16.55525 l 0.53675,-10.80525 -2.89424,0.69351 c -1.59183,0.38143 -3.23173,0.88285 -3.64423,1.11427 -1.10206,0.61827 -0.92742,31.30272 0.17815,31.30272 0.51048,0 1.90885,-2.5875 3.10748,-5.75 z m -19.95384,-27.25 5.91821,0 0,-11 0,-11 -8,0 -8,0 0,10.83333 c 0,11.08839 0.36496,12.62433 2.77955,11.69777 0.76122,-0.29211 4.04722,-0.5311 7.30224,-0.5311 z m -4.32325,-10.49687 c -1.41772,-3.57328 -2.20647,-6.72629 -1.75278,-7.00669 1.30324,-0.80545 6.60888,4.15901 7.97841,7.46535 1.48936,3.59562 0.76741,6.03821 -1.78468,6.03821 -1.362,0 -2.55675,-1.74785 -4.44095,-6.49687 z m 114.89645,50.04018 c -0.48219,-1.25659 1.97587,-1.37239 17.89301,-0.84301 l 18.452,0.61369 0,-14.74305 0,-14.74305 -11.49045,0.33606 c -10.82549,0.3166 -12.50107,-0.0177 -12.51017,-2.49574 -3.4e-4,-0.0925 12.0347,-0.0159 26.74453,0.17018 l 26.74514,0.33839 2.71234,-3.24895 2.71234,-3.24895 -3.01019,-3.80067 c -1.65561,-2.09037 -6.80237,-6.18062 -11.43728,-9.08944 -8.59789,-5.39597 -9.94257,-6.78877 -6.55423,-6.78877 2.01057,0 14.99196,2.46825 18.83797,3.58181 2.07447,0.60063 2.25,0.33028 2.25,-3.46518 l 0,-4.11663 -19,0 c -10.45,0 -19,0.21742 -19,0.48315 0,0.26574 2.3047,1.65104 5.12157,3.07845 2.81685,1.42741 4.72934,2.92338 4.25,3.32439 -0.47937,0.401 -4.35036,3.08662 -8.60222,5.96803 -9.25445,6.27157 -16.70663,9.69262 -26.6793,12.24758 -13.33359,3.41601 -14.30774,2.3943 -3.86214,-4.05069 6.94173,-4.28308 22.77209,-18.34718 22.77209,-20.23131 0,-0.50327 -2.7671,-0.78106 -6.1491,-0.61732 l -6.14911,0.29772 -1.36814,4.70538 c -1.57402,5.41346 -4.36066,7.79462 -9.12189,7.79462 -8.7776,0 -10.74842,-6.15508 -3.20331,-10.00431 2.76808,-1.41217 4.2544,-3.11694 5.62667,-6.45365 2.17404,-5.28628 5.29987,-6.17492 7.18294,-2.04204 1.12306,2.46486 1.30806,2.5 13.16051,2.5 l 12.02143,0 -7e-4,-5.25 -7e-4,-5.25 7.91934,0.5 c 8.8295,0.55746 10.66417,1.49113 7.33206,3.73128 -1.46175,0.98273 -2.25,2.52093 -2.25,4.39069 l 0,2.87803 10.75,-0.0222 c 9.12821,-0.0189 11.12716,-0.31725 13.25,-1.97776 1.375,-1.07554 3.175,-1.93016 4,-1.89916 1.89694,0.0713 10.25045,5.11347 10.63697,6.42049 0.15918,0.53827 -3.08441,2.93729 -7.20796,5.33115 l -7.49738,4.35248 4.54232,2.88066 c 8.38289,5.31627 9.78499,14.11259 2.48229,15.57313 -2.03632,0.40727 -2.8901,1.07123 -2.54244,1.97721 0.42722,1.11328 -2.13601,1.364 -13.94518,1.364 l -14.46862,0 0,14.5 0,14.5 11.70239,0 11.70241,0 3.23247,-3.13303 3.23247,-3.13304 4.56334,2.88304 c 2.50985,1.58567 4.56416,3.44553 4.56514,4.13303 10e-4,0.98146 -9.64253,1.25 -44.89122,1.25 -38.38926,0 -44.97399,-0.21103 -45.452,-1.45669 z m -92.11346,-56.29331 c -0.3571,-0.93235 1.45259,-1.25 7.12136,-1.25 l 7.60012,0 -0.48491,-7.55594 -0.48491,-7.55593 8.10341,0.67305 c 8.60156,0.71443 11.32704,1.87295 8.3534,3.55079 -1.29801,0.73238 -1.75,2.26596 -1.75,5.93772 0,4.76582 0.10531,4.95031 2.82569,4.95031 1.72109,0 3.74378,-0.97727 5.17431,-2.5 2.86869,-3.05358 3.16077,-3.06333 7.49207,-0.25 6.88268,4.47053 6.13461,4.66077 -19.52652,4.96557 -18.44722,0.21912 -24.05519,-0.003 -24.42402,-0.96557 z m -292.80322,-2 c -0.86441,-0.9625 -2.48983,-4.17543 -3.61205,-7.13984 -1.12221,-2.96442 -3.03815,-6.45192 -4.25764,-7.75 -3.28276,-3.49434 -0.66372,-3.03762 8.78596,1.53214 8.01629,3.87659 9.34542,5.23261 9.34542,9.5345 0,4.83495 -7.00811,7.44596 -10.26169,3.8232 z m 334.53139,-44.30406 c -20.10134,-3.96736 -31.11472,-21.81591 -25.73814,-41.71184 1.55391,-5.75023 2.63566,-7.5508 7.40399,-12.32398 7.3286,-7.33605 13.06748,-9.40775 26.06445,-9.40912 8.85501,-9.3e-4 18.41422,1.74216 19.53955,3.56298 0.7915,1.28068 -0.74732,14.93602 -1.68315,14.93602 -0.47101,0 -0.85808,-0.7875 -0.86014,-1.75 -0.006,-2.94801 -3.72851,-8.05846 -7.20204,-9.8881 -2.16761,-1.14177 -5.68818,-1.75686 -10.29422,-1.79855 -5.85752,-0.053 -7.74266,0.37326 -11.55033,2.61179 -6.6093,3.8856 -10.16519,10.83438 -10.7546,21.0162 -0.39829,6.88027 -0.1498,8.38091 2.17459,13.13179 6.33745,12.95327 17.4713,18.9412 29.14281,15.67338 4.55005,-1.27394 9.48753,-5.7356 9.48753,-8.57324 0,-0.7828 0.4431,-1.42327 0.98468,-1.42327 1.62743,0 0.009,12.31442 -1.80837,13.75927 -3.85349,3.06367 -15.34942,4.07295 -24.90661,2.18667 z m 114.7303,-0.0188 c -5.8484,-0.65905 -12.40292,-3.50116 -15.19501,-6.58873 -0.93226,-1.03092 -2.60988,-3.8913 -3.72804,-6.35641 -1.82194,-4.01665 -2.03531,-6.5395 -2.05499,-24.29776 -0.0227,-20.51124 -0.56627,-23.68426 -4.05714,-23.68426 -1.08064,0 -1.96482,-0.45 -1.96482,-1 0,-0.6087 4.5,-1 11.5,-1 6.32501,0 11.49715,0.3375 11.49369,0.75 -0.003,0.4125 -1.35348,1.51657 -3,2.45349 l -2.99369,1.70349 0,19.98141 c 0,11.65581 0.44222,21.15437 1.06133,22.79651 1.59189,4.22233 6.90935,9.23012 10.95871,10.3205 6.68545,1.8002 12.494,-1.17692 16.10666,-8.25533 1.7328,-3.39512 1.8883,-5.71327 1.6436,-24.5 l -0.2703,-20.75007 -3.22835,-1.5 c -1.77559,-0.825 -3.2381,-1.8375 -3.25,-2.25 -0.0119,-0.4125 4.70335,-0.75 10.47835,-0.75 6.33334,0 10.5,0.39682 10.5,1 0,0.55 -0.8449,1 -1.87756,1 -1.03265,0 -2.34952,0.56868 -2.92636,1.26374 -0.63612,0.76648 -1.17616,9.71827 -1.37245,22.75 -0.313,20.78047 -0.40575,21.63114 -2.82363,25.89687 -5.12253,9.03741 -12.74717,12.39729 -25,11.01655 z m -470,-1.92716 c 0,-0.55 1.125,-1 2.5,-1 2.71925,0 6.04589,-2.79146 7.49584,-6.28993 0.50378,-1.21554 6.51353,-16.61007 13.355,-34.21007 7.04071,-18.11255 13.02711,-32.11658 13.7941,-32.26862 0.925,-0.18336 5.62726,10.57037 14.81617,33.88353 7.40361,18.78368 14.29879,35.21706 15.32258,36.51862 1.31068,1.66625 2.87561,2.36647 5.28889,2.36647 1.88508,0 3.42742,0.45 3.42742,1 0,0.61348 -4.84506,1 -12.53518,1 -12.33577,0 -12.5177,-0.0327 -11.43576,-2.05431 0.89091,-1.66467 0.37923,-3.94065 -2.69784,-12 l -3.79728,-9.94569 -10.67944,0 -10.67943,0 -3.13398,8.20706 c -3.58715,9.3938 -3.66711,13.13302 -0.29109,13.61249 1.2375,0.17575 2.25,0.73825 2.25,1.25 0,0.51999 -5.07308,0.93045 -11.5,0.93045 -7,0 -11.5,-0.3913 -11.5,-1 z m 43,-29.61911 c 0,-1.28205 -7.52178,-21.37819 -8,-21.37382 -0.51599,0.005 -8.01639,19.90638 -8.00589,21.24293 0.003,0.4125 3.60589,0.75 8.00589,0.75 4.4,0 8,-0.2786 8,-0.61911 z m 34,29.61911 c 0,-0.55 0.81,-1 1.8,-1 3.98645,0 4.2,-1.43825 4.2,-28.28686 l 0,-25.88687 -3,-1.13237 c -1.65,-0.62281 -3,-1.48372 -3,-1.91314 0,-1.16597 21.77502,-0.9538 22.5,0.21924 0.33992,0.55 -0.27638,1 -1.36955,1 -4.86627,0 -5.13045,1.42312 -5.13045,27.63717 0,25.30559 0.43495,28.36283 4.03518,28.36283 1.08065,0 1.96482,0.45 1.96482,1 0,0.60606 -4.33333,1 -11,1 -6.66667,0 -11,-0.39394 -11,-1 z m 29,0 c 0,-0.55 0.64286,-1 1.42857,-1 0.78572,0 2.13572,-0.70714 3,-1.57143 1.3428,-1.3428 1.57143,-5.12554 1.57143,-26 0,-23.09524 -0.10916,-24.53773 -2,-26.42857 -1.1,-1.1 -2.675,-2 -3.5,-2 -0.825,0 -1.5,-0.48954 -1.5,-1.08786 0,-0.75242 4.91173,-0.98368 15.9293,-0.75 14.22557,0.30172 16.23099,0.55937 18.75,2.40894 6.97188,5.11907 8.51951,16.57019 3.34272,24.73314 -1.63788,2.58268 -3.43788,4.69578 -4,4.69578 -2.03233,0 -0.92063,2.23596 4.62556,9.30338 9.84545,12.54591 14.33629,16.69662 18.06483,16.69662 1.80817,0 3.28759,0.45 3.28759,1 0,0.58796 -3.49015,1 -8.47044,1 l -8.47045,0 -6.62461,-7.75 c -3.64353,-4.2625 -7.7496,-9.6625 -9.12458,-12 -2.26328,-3.84763 -2.86967,-4.25 -6.40494,-4.25 l -3.90498,0 0,9.8 c 0,10.42435 0.68406,12.2 4.7,12.2 1.265,0 2.3,0.45 2.3,1 0,0.6087 -4.5,1 -11.5,1 -7,0 -11.5,-0.3913 -11.5,-1 z m 28.3941,-31.31787 c 1.65456,-2.22255 2.09861,-4.27707 2.10183,-9.72471 0.004,-6.17709 -0.28196,-7.19314 -2.70314,-9.61661 -2.16191,-2.16396 -3.67257,-2.72296 -7.5,-2.77529 l -4.79279,-0.0655 -0.28026,12.80081 -0.28025,12.8008 5.67843,-0.3008 c 4.88787,-0.25893 5.97049,-0.69312 7.77618,-3.11868 z m 44.6059,31.31787 c 0,-0.55 1.07041,-1 2.37868,-1 3.94865,0 4.15266,-0.92377 11.66679,-52.82841 1.6186,-11.18062 3.31041,-20.9851 3.75959,-21.78773 1.41081,-2.52098 3.33248,0.78819 16.76291,28.86614 7.03739,14.7125 13.05102,26.73571 13.36364,26.71825 0.31261,-0.0175 6.19339,-12.18613 13.06839,-27.04147 6.875,-14.85535 13.24675,-27.69892 14.15944,-28.54128 1.50085,-1.38519 1.72105,-1.33741 2.30421,0.49996 0.35462,1.11734 2.81641,16.94557 5.4706,35.17387 5.4975,37.75522 5.73065,38.44067 13.07564,38.44067 5.36392,0 4.78008,1.06374 17.83789,-32.5 6.12971,-15.75578 10.434,-25.5 11.26405,-25.5 0.82913,0 5.4092,10.33602 11.96416,27 5.84141,14.85 11.59928,28.2086 12.79526,29.68578 1.19597,1.47719 3.40171,2.87226 4.90164,3.10017 1.49991,0.22791 -1.9157,0.48181 -7.59027,0.56422 -9.6322,0.13988 -10.27824,0.0265 -9.72802,-1.70714 0.32416,-1.02133 -0.80989,-5.52134 -2.52013,-10 l -3.10954,-8.14303 -8.77852,0 -8.7785,0 -2.63878,7.25 c -3.16949,8.7082 -3.3002,10.75 -0.68814,10.75 1.06754,0 2.2191,0.45 2.55902,1 0.40398,0.65365 -6.15628,1 -18.94098,1 l -19.55903,0 0.0265,-2.75 c 0.0415,-4.30737 -5.3697,-44.25 -5.99473,-44.25 -0.30734,0 -5.51544,10.4625 -11.57352,23.25 -7.01741,14.81244 -11.54883,23.25 -12.48648,23.25 -0.92158,0 -5.7105,-8.53381 -12.81041,-22.82802 -6.23626,-12.55541 -11.53356,-22.63312 -11.77178,-22.3949 -0.23822,0.23822 -1.53197,9.06205 -2.87501,19.60851 -2.68544,21.08789 -2.43936,24.11441 1.96067,24.11441 1.38862,0 2.52475,0.45 2.52475,1 0,0.60606 -4.33333,1 -11,1 -6.66667,0 -11,-0.39394 -10.99999,-1 z m 129.83334,-24.79377 c -0.18333,-0.43659 -1.64797,-4.48445 -3.25475,-8.99525 -1.60679,-4.51079 -3.16273,-7.96014 -3.45766,-7.66521 -0.29493,0.29493 -1.96844,4.34279 -3.71892,8.99524 l -3.18268,8.45901 6.97366,0 c 3.83552,0 6.82368,-0.35721 6.64035,-0.79379 z m 75.66666,24.79379 c 0.33992,-0.55 1.7061,-1 3.03597,-1 3.74008,0 3.6014,0.29374 20.8917,-44.25 3.14898,-8.1125 6.25347,-14.74822 6.89887,-14.74604 0.6454,0.002 5.84483,11.90491 11.55426,26.45052 5.70944,14.54561 11.2048,27.80152 12.21191,29.45758 1.08402,1.78252 3.17266,3.39791 5.1192,3.95929 2.63224,0.75913 1.23981,0.96626 -6.98096,1.03846 -10.16171,0.0893 -10.26342,0.0667 -9.73005,-2.15981 0.30916,-1.29053 -0.71614,-5.44823 -2.40435,-9.75 l -2.94335,-7.5 -8.83157,-0.28428 -8.83158,-0.28429 -2.83618,7.98228 c -2.94503,8.28863 -2.87281,10.08629 0.40515,10.08629 1.06755,0 1.94098,0.45 1.94098,1 0,0.60039 -4.01967,1 -10.05902,1 -6.45136,0 -9.83736,-0.35865 -9.44098,-1 z m 35.5,-24.43178 c 0,-0.64964 -6.06384,-16.9654 -6.44809,-17.34965 -0.38458,-0.38457 -6.55191,15.49228 -6.55191,16.86687 0,0.50301 2.925,0.91456 6.5,0.91456 3.57501,0 6.5,-0.1943 6.5,-0.43178 z"
       id="path4177"
       inkscape:connector-curvature="0"
       sodipodi:nodetypes="sscssssscssscssscssssscssssscsssssssscsscsscsssccccccscssssscssssccsssssssssscssssccccscsssscsssssccssscccssssssscccsscssscscsccccccccccccccccccssssscssscsscsscsssssscccsssscssssscsscccccccccccccccccccssssssscccssscsssscsssccscsscssssssscssscccssscsscscssscssssscsscssssscccccsssssssscscccssscccssssscssscssssscsssssscccssscsscsscsssscccccccscscccscccssssssscsssssssssssscssssssssssssssssscscssssscssssssssssssssssssssscccssssssccssssscsssssssssssssssssssssssscssscsssssccsscccscccsssscssssssssssscscccsssscsssssssssscsssscssssscsssssscccssssssssss" />
  </g>
</svg>
