<?xml version="1.0" encoding="UTF-8" standalone="no"?>
<svg
   xmlns:dc="http://purl.org/dc/elements/1.1/"
   xmlns:cc="http://creativecommons.org/ns#"
   xmlns:rdf="http://www.w3.org/1999/02/22-rdf-syntax-ns#"
   xmlns:svg="http://www.w3.org/2000/svg"
   xmlns="http://www.w3.org/2000/svg"
   xmlns:sodipodi="http://sodipodi.sourceforge.net/DTD/sodipodi-0.dtd"
   xmlns:inkscape="http://www.inkscape.org/namespaces/inkscape"
   viewBox="0 0 100 24"
   height="24"
   width="100"
   xml:space="preserve"
   id="svg2"
   version="1.1"
   inkscape:version="0.91 r13725"
   sodipodi:docname="air-sunshine-usa-seeklogo_com.svg"><title
     id="title4139">Air Sunshine logo</title><sodipodi:namedview
     pagecolor="#ffffff"
     bordercolor="#666666"
     borderopacity="1"
     objecttolerance="10"
     gridtolerance="10"
     guidetolerance="10"
     inkscape:pageopacity="0"
     inkscape:pageshadow="2"
     inkscape:window-width="1366"
     inkscape:window-height="705"
     id="namedview9"
     showgrid="false"
     inkscape:showpageshadow="false"
     inkscape:zoom="1"
     inkscape:cx="52.836177"
     inkscape:cy="1.2114946"
     inkscape:window-x="-8"
     inkscape:window-y="-8"
     inkscape:window-maximized="1"
     inkscape:current-layer="svg2"><inkscape:grid
       type="xygrid"
       id="grid4137" /></sodipodi:namedview><metadata
     id="metadata8"><rdf:RDF><cc:Work
         rdf:about=""><dc:format>image/svg+xml</dc:format><dc:type
           rdf:resource="http://purl.org/dc/dcmitype/StillImage" /><dc:title>Air Sunshine logo</dc:title><cc:license
           rdf:resource="http://scripts.sil.org/OFL" /></cc:Work><cc:License
         rdf:about="http://scripts.sil.org/OFL"><cc:permits
           rdf:resource="http://scripts.sil.org/pub/OFL/Reproduction" /><cc:permits
           rdf:resource="http://scripts.sil.org/pub/OFL/Distribution" /><cc:permits
           rdf:resource="http://scripts.sil.org/pub/OFL/Embedding" /><cc:permits
           rdf:resource="http://scripts.sil.org/pub/OFL/DerivativeWorks" /><cc:requires
           rdf:resource="http://scripts.sil.org/pub/OFL/Notice" /><cc:requires
           rdf:resource="http://scripts.sil.org/pub/OFL/Attribution" /><cc:requires
           rdf:resource="http://scripts.sil.org/pub/OFL/ShareAlike" /><cc:requires
           rdf:resource="http://scripts.sil.org/pub/OFL/DerivativeRenaming" /><cc:requires
           rdf:resource="http://scripts.sil.org/pub/OFL/BundlingWhenSelling" /></cc:License></rdf:RDF></metadata><defs
     id="defs6" /><g
     transform="matrix(0.21269842,0,0,-0.20833389,0.46414068,24.830502)"
     id="g10"><g
       transform="scale(0.1,0.1)"
       id="g12"><path
         id="path14"
         style="fill:#272727;fill-opacity:1;fill-rule:nonzero;stroke:none"
         d="m 1226.41,616.734 -85.06,-196.937 170.25,0 z m 0,140.688 243.46,-556.137 -69.1,0 -69.47,164.008 -209.03,0 -69.35,-164.008 -69.092,0 z m 306.49,-556.137 0,289.758 34.45,0 0,-289.758 z m 122.31,0 0,289.758 68.03,0 c 19.46,0 33.65,-1.086 42.7,-3.246 9.05,-2.227 17.02,-5.942 23.85,-11.211 8.57,-6.691 15.26,-15.742 19.99,-27.023 4.8,-11.282 7.16,-23.782 7.16,-37.497 0,-23.714 -6.62,-41.753 -19.92,-54.113 -13.25,-12.363 -32.7,-18.512 -58.31,-18.512 l -6.15,0 110.73,-138.156 -43.78,0 -105.72,138.156 -4.93,0 0,-138.156 z m 33.65,260.637 0,-96.945 26.28,0 c 26.95,0 44.99,3.445 54.11,10.41 9.12,6.886 13.64,18.98 13.64,36.273 0,18.582 -4.66,31.617 -14.05,39.117 -9.39,7.43 -27.29,11.145 -53.7,11.145 z m 597.91,29.996 c 34.79,-14.836 61.11,-34.543 78.82,-59.113 17.59,-24.696 26.45,-53.758 26.45,-87.309 0,-49.262 -15.6,-88.926 -46.9,-118.984 -31.3,-30.059 -72.84,-45.149 -124.47,-45.149 -42.16,0 -77.46,10.727 -106.01,32.305 -28.45,21.574 -47.65,52.258 -57.63,91.918 l 57.63,28.562 c 7.85,-32.429 20.7,-56.996 38.54,-73.585 17.95,-16.715 40.4,-25.071 67.47,-25.071 31.93,0 57.74,9.231 77.45,27.567 19.71,18.453 29.56,42.281 29.56,71.836 0,23.824 -6.86,44.652 -20.58,62.238 -13.84,17.711 -34.55,32.555 -62.36,44.777 l -64.98,27.813 c -35.55,14.843 -62.12,33.918 -79.45,57.375 -17.46,23.316 -26.19,51.379 -26.19,83.933 0,38.039 14.09,69.469 42.4,94.289 28.19,24.821 64.24,37.293 108.14,37.293 32.18,0 59.99,-6.859 83.43,-20.457 23.58,-13.593 41.91,-33.797 55.01,-60.363 l -52.63,-33.551 c -11.85,20.703 -25.32,36.043 -40.16,46.145 -14.85,10.101 -31.68,15.215 -50.39,15.215 -23.82,0 -43.4,-7.356 -58.62,-21.946 -15.22,-14.593 -22.83,-33.179 -22.83,-55.879 0,-18.957 5.87,-35.414 17.59,-49.265 11.6,-13.969 29.81,-26.192 54.37,-36.918 z m 192.75,6.824 34.86,0 0,-180.242 c 0,-29.32 6.21,-50.805 18.71,-64.516 12.43,-13.718 32.02,-20.609 58.64,-20.609 26.62,0 46.21,6.891 58.64,20.609 12.5,13.711 18.71,35.196 18.71,64.516 l 0,180.242 35.06,0 0,-180.242 c 0,-39.254 -9.32,-68.574 -28.03,-88.031 -18.65,-19.453 -46.75,-29.184 -84.38,-29.184 -37.5,0 -65.53,9.731 -84.18,29.184 -18.71,19.457 -28.03,48.777 -28.03,88.031 z M 2766,212.566 l 0,301.243 229.65,-231.59 0,220.105 35.57,0 0,-301.039 -229.65,229.02 0,-217.739 z m 450.53,156.942 c 18.85,-8.047 33.1,-18.715 42.69,-32.024 9.53,-13.379 14.33,-29.117 14.33,-47.293 0,-26.687 -8.45,-48.168 -25.41,-64.449 -16.96,-16.281 -39.45,-24.457 -67.42,-24.457 -22.83,0 -41.95,5.813 -57.42,17.496 -15.41,11.688 -25.82,28.313 -31.22,49.789 l 31.22,15.477 c 4.25,-17.57 11.21,-30.879 20.87,-39.867 9.73,-9.047 21.89,-13.575 36.55,-13.575 17.3,0 31.28,5 41.95,14.93 10.68,9.996 16.01,22.899 16.01,38.914 0,12.906 -3.72,24.188 -11.14,33.715 -7.5,9.59 -18.72,17.629 -33.78,24.25 l -35.2,15.066 c -19.25,8.04 -33.64,18.375 -43.03,31.075 -9.46,12.633 -14.19,27.836 -14.19,45.468 0,20.602 7.63,37.629 22.97,51.075 15.26,13.441 34.79,20.199 58.57,20.199 17.43,0 32.5,-3.719 45.2,-11.082 12.76,-7.363 22.7,-18.309 29.79,-32.695 l -28.51,-18.176 c -6.42,11.215 -13.72,19.523 -21.75,25 -8.04,5.472 -17.16,8.242 -27.3,8.242 -12.9,0 -23.51,-3.988 -31.75,-11.895 -8.24,-7.902 -12.36,-17.968 -12.36,-30.265 0,-10.266 3.17,-19.184 9.53,-26.684 6.28,-7.566 16.14,-14.187 29.45,-19.996 z m 125.63,-168.223 0,289.758 34.45,0 0,-111.473 153.96,0 0,111.473 35.06,0 0,-289.758 -35.06,0 0,145.449 -153.96,0 0,-145.449 z m 322.15,0 0,289.758 34.46,0 0,-289.758 z m 112.57,11.281 0,301.243 231.23,-231.59 0,220.105 35.8,0 0,-301.039 -231.21,229.02 0,-217.739 z m 364.16,-11.281 0,289.758 152.82,0 0,-31.484 -118.36,0 0,-83.098 118.36,0 0,-32.086 -118.36,0 0,-111.004 118.36,0 0,-32.086 -152.82,0"
         inkscape:connector-curvature="0" /><path
         id="path16"
         style="fill:#ed1c24;fill-opacity:1;fill-rule:evenodd;stroke:none"
         d="m 1205.8,813.707 -6.46,309.613 -51.73,-257.218 -39.11,112.453 -36.83,-97.649 -56.16,269.824 -9.62,-281.164 -51.222,82.254 -8.938,-99.687 -130.183,261.507 58.367,-283.035 -63.195,67.754 -0.547,-89.968 -168.785,221.399 105.289,-249.196 -74.086,39.226 13.027,-69.785 -215.16,179.778 153.695,-217.012 -71.425,10.543 28.203,-63.617 -237.86,145.914 176.18,-191.282 -94.965,23.528 55.086,-91.324 -254.019,97.824 223.527,-172.731 -79.242,4.242 46.879,-56.48 -275.02,45.973 250.484,-114.067 -69.71,-15.258 57.589,-45.187 -285.1246,3.578 268.7306,-85.465 -81.5,-20.965 94.914,-57.054 L 1.73047,96.9219 18.9453,66.2773 4634.9477,67.299098 c 0.2372,29.285964 0.2372,29.285964 0.2372,29.285964 L 849.4144,96.9219 1205.8004,813.707"
         inkscape:connector-curvature="0"
         sodipodi:nodetypes="ccccccccccccccccccccccccccccccccccccccccccc" /></g></g></svg>