<?xml version="1.0" encoding="utf-8"?>
<!DOCTYPE svg PUBLIC "-//W3C//DTD SVG 1.1//EN" "http://www.w3.org/Graphics/SVG/1.1/DTD/svg11.dtd" [
<!ENTITY ns_svg "http://www.w3.org/2000/svg">
<!ENTITY ns_xlink "http://www.w3.org/1999/xlink">
]>
<svg  version="1.1" id="Layer_1" xmlns="&ns_svg;" xmlns:xlink="&ns_xlink;" width="176.56" height="104.178"
viewBox="0 0 176.56 104.178" overflow="visible" enable-background="new 0 0 176.56 104.178" xml:space="preserve">
<g>
<path d="M38.624,104.178h-8.907l0.532-7.574H15.541L8.8,104.178H0l30.137-33.312h8.703L38.624,104.178z M30.26,90.771l0.612-11.706
L20.719,90.771H30.26z"/>
<path d="M54.369,76.744h-7.01v-5.878h7.01V76.744z M54.369,104.178h-7.01V79.509h7.01V104.178z"/>
<path d="M81.084,84.839H66.585v19.339h-7.016V79.509h7.016v3.423c0.377-0.858,0.839-1.558,1.38-2.1
c0.549-0.538,1.269-0.951,2.155-1.241c0.414-0.124,0.849-0.235,1.312-0.332c0.462-0.093,7.531-0.141,8.009-0.141
c0.58,0,1.128,0.065,1.644,0.188V84.839z"/>
<path d="M130.604,93.832c0,2.9-1.166,5.36-3.493,7.349c-2.332,1.999-5.287,2.997-8.869,2.997H89.91v-5.983h23.351
c1.564,0,2.88-0.302,3.949-0.903c1.22-0.698,1.831-1.653,1.831-2.856c0-2.821-2.406-4.234-7.215-4.234h-11.785
c-3.393,0-6.37-0.87-8.928-2.616c-2.556-1.745-3.835-3.97-3.835-6.673c0-2.98,1.252-5.402,3.749-7.263
c2.498-1.857,5.791-2.782,9.875-2.782h27.063v5.723h-23.863c-1.067,0-2.142,0.375-3.233,1.115
c-1.084,0.742-1.627,1.622-1.627,2.638c0,1.141,0.521,2.096,1.574,2.869c1.047,0.781,2.313,1.166,3.801,1.166h12.989
c4.047,0,7.221,0.86,9.53,2.584C129.448,88.69,130.604,90.976,130.604,93.832z"/>
<path d="M162.798,104.178h-15.235c-2.79,0-4.755-0.107-5.9-0.333c-1.904-0.386-3.437-1.203-4.581-2.47
c-1.293-1.462-1.944-3.128-1.944-5.008V79.526h7.945v16.325c0,0.796,0.42,1.482,1.263,2.053c0.842,0.569,1.74,0.858,2.695,0.858
h7.812V79.526h7.946V104.178z"/>
<path d="M176.56,104.178h-8.063V70.866h8.063V104.178z"/>
</g>
<g>
<path d="M56.293,63.174h-5.877l0.355-4.996h-9.702l-4.447,4.996h-5.802l19.876-21.971h5.737L56.293,63.174z M50.776,54.332
l0.402-7.721l-6.693,7.721H50.776z"/>
<path d="M79.103,58.629c0,1.284-0.511,2.358-1.531,3.235c-1.021,0.875-2.321,1.31-3.896,1.31H61.24v-2.621h10.25
c0.688,0,1.262-0.135,1.735-0.398c0.532-0.307,0.8-0.724,0.8-1.256c0-1.235-1.053-1.86-3.164-1.86h-5.173
c-1.494,0-2.799-0.38-3.922-1.149c-1.122-0.763-1.681-1.74-1.681-2.927c0-1.313,0.547-2.375,1.644-3.187
c1.096-0.815,2.541-1.224,4.335-1.224h11.883v2.514h-10.48c-0.468,0-0.94,0.161-1.419,0.489c-0.478,0.328-0.714,0.714-0.714,1.155
c0,0.499,0.231,0.924,0.693,1.261c0.457,0.339,1.015,0.511,1.67,0.511h5.7c1.778,0,3.17,0.382,4.185,1.14
C78.598,56.379,79.103,57.384,79.103,58.629z"/>
<polygon fill="#A81213" points="95.89,66.333 75.82,39.081 96.013,30.845 145.74,10.565 	"/>
<polygon fill="#F6AB19" points="84.694,0 75.82,39.081 96.013,30.845 	"/>
</g>
</svg>
