<?xml version="1.0" encoding="UTF-8" standalone="no"?>
<!-- Generator: Adobe Illustrator 19.2.1, SVG Export Plug-In . SVG Version: 6.00 Build 0)  -->

<svg
   xmlns:dc="http://purl.org/dc/elements/1.1/"
   xmlns:cc="http://creativecommons.org/ns#"
   xmlns:rdf="http://www.w3.org/1999/02/22-rdf-syntax-ns#"
   xmlns:svg="http://www.w3.org/2000/svg"
   xmlns="http://www.w3.org/2000/svg"
   xmlns:sodipodi="http://sodipodi.sourceforge.net/DTD/sodipodi-0.dtd"
   xmlns:inkscape="http://www.inkscape.org/namespaces/inkscape"
   version="1.1"
   id="Layer_1"
   x="0px"
   y="0px"
   viewBox="0 0 94.999996 27"
   xml:space="preserve"
   inkscape:version="0.91 r13725"
   sodipodi:docname="air-choice-one.svg"
   width="95"
   height="27"><title
     id="title4169">Air Choice One logo</title><metadata
     id="metadata39"><rdf:RDF><cc:Work
         rdf:about=""><dc:format>image/svg+xml</dc:format><dc:type
           rdf:resource="http://purl.org/dc/dcmitype/StillImage" /><dc:title>Air Choice One logo</dc:title><cc:license
           rdf:resource="http://scripts.sil.org/OFL" /></cc:Work><cc:License
         rdf:about="http://scripts.sil.org/OFL"><cc:permits
           rdf:resource="http://scripts.sil.org/pub/OFL/Reproduction" /><cc:permits
           rdf:resource="http://scripts.sil.org/pub/OFL/Distribution" /><cc:permits
           rdf:resource="http://scripts.sil.org/pub/OFL/Embedding" /><cc:permits
           rdf:resource="http://scripts.sil.org/pub/OFL/DerivativeWorks" /><cc:requires
           rdf:resource="http://scripts.sil.org/pub/OFL/Notice" /><cc:requires
           rdf:resource="http://scripts.sil.org/pub/OFL/Attribution" /><cc:requires
           rdf:resource="http://scripts.sil.org/pub/OFL/ShareAlike" /><cc:requires
           rdf:resource="http://scripts.sil.org/pub/OFL/DerivativeRenaming" /><cc:requires
           rdf:resource="http://scripts.sil.org/pub/OFL/BundlingWhenSelling" /></cc:License></rdf:RDF></metadata><defs
     id="defs37" /><sodipodi:namedview
     pagecolor="#ffffff"
     bordercolor="#666666"
     borderopacity="1"
     objecttolerance="10"
     gridtolerance="10"
     guidetolerance="10"
     inkscape:pageopacity="0"
     inkscape:pageshadow="2"
     inkscape:window-width="1366"
     inkscape:window-height="705"
     id="namedview35"
     showgrid="false"
     inkscape:showpageshadow="false"
     inkscape:zoom="1"
     inkscape:cx="48.525808"
     inkscape:cy="19.221239"
     inkscape:window-x="-8"
     inkscape:window-y="-8"
     inkscape:window-maximized="1"
     inkscape:current-layer="Layer_1" /><style
     type="text/css"
     id="style3">
	.st0{fill:#1788BA;}
	.st1{fill:#282828;}
</style><path
     class="st0"
     d="m 93.743381,16.630439 c 0,0 -94.045375,-6.9003499 -92.583127,6.20813 0.972836,8.73966 92.583127,-6.20813 92.583127,-6.20813 z"
     id="path5"
     inkscape:connector-curvature="0"
     style="fill:#1788ba" /><path
     style="fill:#282828"
     d="m 29.516946,1.3245291 c -0.679188,-10e-6 -1.316911,0.11612 -1.908203,0.35351 -0.589294,0.24138 -1.11295,0.592 -1.566406,1.04883 -0.45146,0.46082 -0.797352,0.99494 -1.039063,1.60937 -0.235717,0.61243 -0.357421,1.26107 -0.357421,1.94532 0,0.69223 0.121704,1.34263 0.357421,1.95507 0.24171,0.61044 0.587603,1.14274 1.039063,1.60157 0.453456,0.4568299 0.975159,0.8017099 1.564453,1.0371099 0.589294,0.23141 1.234432,0.35156 1.933594,0.35156 0.271676,0 0.537187,-0.0226 0.796875,-0.0625 0.25969,-0.0359 0.504651,-0.0884 0.734375,-0.1582 0.471436,-0.14762 0.907119,-0.36683 1.30664,-0.66407 l 0,-1.7363299 c -0.45146,0.40896 -0.924691,0.70689 -1.412109,0.9004 -0.25769,0.10373 -0.510153,0.18061 -0.755859,0.22851 -0.249702,0.0459 -0.509486,0.0684 -0.785156,0.0684 -0.924892,0 -1.695373,-0.32797 -2.306641,-0.98828 -0.613266,-0.65832 -0.917969,-1.49615 -0.917969,-2.51953 0,-1.0553 0.31216,-1.91395 0.941406,-2.57227 0.627248,-0.66031 1.438653,-0.98633 2.439454,-0.98633 0.261687,0 0.516102,0.0205 0.757812,0.0684 0.245706,0.0479 0.485073,0.11724 0.716797,0.20704 0.469436,0.18352 0.916396,0.46101 1.337891,0.83007 l 0,-0.002 0.07812,-1.54297 c -0.453456,-0.33116 -0.92456,-0.57295 -1.417968,-0.72656 -0.249702,-0.0877 -0.498345,-0.1496 -0.748047,-0.1875 -0.2497,-0.0418 -0.515391,-0.0586 -0.789063,-0.0586 z m -22.4296866,0.17968 -4.5273438,9.7109399 1.5996094,0.002 1.0839844,-2.4081999 3.7011721,0 1.0644525,2.4062499 1.597656,0 -4.5195306,-9.7109399 z m 26.7597646,0.0586 0,9.6855399 1.31836,0 0,-2.7011699 c 0,-0.48676 0.02055,-0.84089 0.0625,-1.07031 0.03995,-0.22542 0.105329,-0.40341 0.199219,-0.53906 0.135838,-0.21545 0.32869,-0.3823 0.566406,-0.5 0.24171,-0.10977 0.516587,-0.16797 0.824219,-0.16797 0.469438,0 0.796688,0.12937 0.980468,0.38672 0.181778,0.25933 0.275391,0.77476 0.275391,1.55078 l 0,3.0390599 1.328125,0 0,-3.5937499 c 0,-0.2773 -0.0056,-0.50962 -0.01758,-0.70312 -0.01198,-0.18753 -0.02889,-0.3338 -0.04687,-0.4336 -0.04794,-0.21744 -0.124813,-0.40283 -0.220703,-0.5664 -0.169796,-0.27729 -0.405436,-0.4834 -0.705078,-0.62305 -0.303636,-0.13767 -0.668216,-0.20703 -1.095704,-0.20703 -0.515381,0 -0.95293,0.0956 -1.3125,0.28711 -0.355573,0.18951 -0.664272,0.4857 -0.917968,0.88867 l 0,-4.73242 -1.238282,0 z m -21.095703,1 0,1.29101 1.298829,0 0,-1.29101 -1.298829,0 z m 35.839844,0 0,1.29101 1.300781,0 0,-1.29101 -1.300781,0 z m -41.4902337,1.79687 0.1796874,0.58985 0.1699219,0.46484 0.9550779,2.13281 -2.6015622,0 0.9570312,-2.12695 c 0.06792,-0.15759 0.1298781,-0.3227 0.1738281,-0.48828 0.03196,-0.0898 0.064004,-0.18188 0.083984,-0.26368 0.02597,-0.0858 0.052071,-0.18889 0.082031,-0.30859 z m 12.3359367,0.60938 c -0.20975,-0.004 -0.261217,-0.004 -0.546875,0.004 -0.353576,0.01 -0.649136,0.11335 -0.880859,0.29688 -0.235718,0.18952 -0.422578,0.47245 -0.566406,0.85547 l 0,-0.94141 -1.333985,0 0,6.0507799 1.333985,0 0,-2.7734399 c 0,-0.83386 0.09725,-1.21135 0.291015,-1.56445 0.195764,-0.35509 0.521466,-0.56836 0.960938,-0.56836 0.151818,0 0.265616,-5e-5 0.441406,0.002 0.153816,0.002 0.255366,0.009 0.365234,0.0566 l 0.28125,-1.39649 c -0.121854,-0.0119 -0.143945,-0.0175 -0.345703,-0.0215 z m 24.259766,0.0176 c -0.407512,0 -0.802007,0.0768 -1.185547,0.23438 -0.379546,0.15561 -0.718203,0.37866 -1.005859,0.66992 -0.287654,0.28926 -0.508296,0.62284 -0.66211,1.00586 -0.15581,0.37703 -0.234375,0.77439 -0.234375,1.19531 0,0.42292 0.08056,0.82418 0.234375,1.19922 0.153814,0.37903 0.380091,0.7183399 0.677735,1.0175799 0.295646,0.30322 0.630264,0.5299 1.007812,0.6875 0.37555,0.15161 0.764408,0.23242 1.169922,0.23242 0.415502,0 0.81186,-0.0806 1.191406,-0.24023 0.377548,-0.16159 0.717894,-0.38831 1.019531,-0.68555 0.301638,-0.29724 0.525917,-0.6326899 0.677735,-1.0117199 0.147822,-0.37504 0.224609,-0.7763 0.224609,-1.19922 0,-0.40895 -0.07856,-0.8066 -0.234375,-1.18164 -0.151818,-0.37703 -0.380045,-0.71643 -0.679687,-1.01367 -0.29964,-0.30123 -0.63244,-0.52803 -1,-0.68164 -0.369556,-0.15562 -0.771686,-0.22852 -1.201172,-0.22852 z m 16.703125,0.004 c -0.924892,0 -1.684054,0.2905 -2.277344,0.875 -0.589294,0.58451 -0.884765,1.33247 -0.884765,2.24414 -1e-6,0.94957 0.288058,1.70888 0.859374,2.2734399 0.569319,0.56256 1.337891,0.84765 2.302735,0.84765 0.337596,1e-5 0.655571,-0.0375 0.949219,-0.11132 0.293648,-0.0738 0.564885,-0.18071 0.808593,-0.31836 0.505394,-0.29126 0.922215,-0.72617 1.257813,-1.3046899 l -1.164063,-0.62891 c -0.227726,0.40297 -0.485693,0.69941 -0.777343,0.87696 -0.289654,0.17952 -0.659915,0.2675799 -1.109375,0.2675799 -0.497406,0 -0.897579,-0.1518599 -1.199219,-0.4550799 -0.163802,-0.16957 -0.2891,-0.35699 -0.375,-0.56446 -0.0839,-0.21146 -0.126953,-0.44557 -0.126953,-0.71289 l 4.814453,0 0,-0.24804 c 0,-0.96155 -0.271193,-1.70751 -0.810547,-2.24414 -0.54335,-0.53463 -1.29674,-0.79688 -2.267578,-0.79688 z m -47.648438,0.11328 0,6.1132799 1.298829,0 0,-6.1132799 -1.298829,0 z m 35.839844,0 0,6.1132799 1.300781,0 0,-6.1132799 -1.300781,0 z m 5.994141,0.0684 c -0.988815,0 -1.789123,0.27729 -2.400391,0.83985 -0.613266,0.55458 -0.917969,1.2838 -0.917969,2.1875 0,0.45483 0.07093,0.86352 0.21875,1.2246 0.145826,0.35509 0.370458,0.6816099 0.66211,0.9628999 0.599282,0.56256 1.363948,0.83984 2.298828,0.83984 0.317619,0 0.618461,-0.0298 0.912109,-0.0996 0.29165,-0.0698 0.564709,-0.17111 0.816407,-0.30078 l 0,-1.4882799 c -0.201759,0.24138 -0.429811,0.41542 -0.6875,0.53711 -0.129847,0.0619 -0.270058,0.10691 -0.421876,0.1328099 -0.147823,0.0299 -0.302948,0.043 -0.46875,0.043 -0.595287,0 -1.062751,-0.1687599 -1.402343,-0.5039099 -0.339594,-0.33713 -0.509766,-0.79834 -0.509766,-1.38086 0,-0.56256 0.168264,-1.01634 0.505859,-1.35547 0.335599,-0.34113 0.784466,-0.51172 1.341797,-0.51172 0.319618,0 0.62259,0.0621 0.90625,0.17579 0.285658,0.11969 0.530575,0.28064 0.736329,0.49609 l 0.002,-1.45117 c -0.12585,-0.0658 -0.245511,-0.11831 -0.359375,-0.15821 -0.113864,-0.0419 -0.239207,-0.0737 -0.373047,-0.10156 -0.263684,-0.0579 -0.551743,-0.0879 -0.859375,-0.0879 z m 5.839844,0.93945 c 0.475429,0 0.855146,0.10677 1.132812,0.32422 0.27567,0.22143 0.440247,0.54019 0.492188,0.95313 l -3.296876,0 c 0.11586,-0.43289 0.310356,-0.75539 0.582032,-0.96485 0.271674,-0.20747 0.634388,-0.3125 1.089844,-0.3125 z m -16.710938,0.0645 c 0.489414,0 0.90073,0.18749 1.236328,0.56054 0.335598,0.37305 0.501953,0.82853 0.501953,1.36914 0,0.53663 -0.170216,0.99415 -0.507812,1.36719 -0.341592,0.37105 -0.751043,0.5585999 -1.230469,0.5585999 -0.483422,0 -0.896734,-0.1855499 -1.236328,-0.5585999 -0.335598,-0.37504 -0.503906,-0.83256 -0.503906,-1.36719 0,-0.54061 0.16631,-0.99609 0.503906,-1.36914 0.339594,-0.37305 0.752906,-0.56054 1.236328,-0.56054 z"
     id="path7"
     inkscape:connector-curvature="0" /><path
     style="fill:#1788ba"
     d="m 73.651712,0.9807691 c -0.723134,1e-5 -1.407506,0.12947 -2.052734,0.38282 -0.641232,0.25336 -1.21735,0.6227 -1.71875,1.10547 -0.505394,0.48077 -0.888658,1.03384 -1.152344,1.65625 -0.263684,0.62041 -0.396484,1.27652 -0.396484,1.96875 0,0.69024 0.134663,1.3483 0.402343,1.9707 0.265682,0.62241 0.647083,1.16771 1.146485,1.64648 0.499402,0.4787799 1.073344,0.8461299 1.726562,1.1054699 0.647224,0.25933 1.329778,0.38867 2.044922,0.38867 0.703158,0 1.378077,-0.1312 2.029297,-0.39453 0.647224,-0.26333 1.228936,-0.6365 1.736328,-1.1132799 0.507392,-0.47878 0.890613,-1.02632 1.154297,-1.63476 0.263684,-0.61044 0.392578,-1.26659 0.392578,-1.9668 0,-0.69024 -0.13067,-1.3424 -0.402344,-1.9668 -0.26768,-0.62042 -0.658668,-1.17738 -1.164062,-1.66015 -0.507392,-0.48676 -1.083378,-0.85607 -1.72461,-1.10743 -0.639234,-0.25734 -1.314332,-0.38086 -2.021484,-0.38086 z m 0,1.45704 c 0.493408,0 0.960874,0.0938 1.402344,0.27929 0.441472,0.18752 0.830285,0.4538 1.171875,0.79493 0.339594,0.33913 0.601421,0.73294 0.783203,1.17382 0.179782,0.43688 0.273437,0.90744 0.273437,1.41016 0,0.48476 -0.09725,0.95553 -0.291015,1.40039 -0.189772,0.44486 -0.453377,0.83856 -0.792969,1.17969 -0.3336,0.34312 -0.720727,0.60358 -1.158203,0.78711 -0.437476,0.17951 -0.897215,0.27148 -1.390625,0.27148 -0.493408,0 -0.960829,-0.0918 -1.404297,-0.27734 -0.445466,-0.18153 -0.834369,-0.44794 -1.167969,-0.78907 -0.181782,-0.17755 -0.336995,-0.36127 -0.464843,-0.55078 -0.123852,-0.19351 -0.234235,-0.39958 -0.328126,-0.625 -0.179786,-0.43688 -0.269531,-0.90369 -0.269531,-1.39843 0,-0.26133 0.02437,-0.50896 0.07031,-0.73438 0.04595,-0.22343 0.115235,-0.45036 0.203125,-0.67578 0.197764,-0.45284 0.461409,-0.8465 0.791015,-1.18164 0.347582,-0.34712 0.740259,-0.61339 1.177735,-0.79492 0.435478,-0.17751 0.901121,-0.26953 1.394531,-0.26953 z m 16.574219,2.55664 c -0.92689,0 -1.688007,0.2924 -2.279297,0.8789 -0.5893,0.58252 -0.884766,1.32861 -0.884766,2.23828 0,0.95157 0.288102,1.71088 0.857422,2.2734399 0.57332,0.56655 1.339848,0.84766 2.304688,0.84766 0.3376,0 0.655578,-0.0376 0.949218,-0.10938 0.29365,-0.0718 0.564847,-0.17867 0.810547,-0.32031 0.5014,-0.28726 0.918307,-0.72218 1.253907,-1.3046899 l -1.160157,-0.62304 c -0.22773,0.40696 -0.487694,0.69945 -0.777343,0.875 -0.28965,0.17751 -0.657916,0.2714799 -1.109376,0.2714799 -0.4994,0 -0.897578,-0.1518499 -1.199218,-0.4550799 -0.1658,-0.16557 -0.291053,-0.35503 -0.376953,-0.5625 -0.08195,-0.21146 -0.123047,-0.44557 -0.123047,-0.71289 l 4.810547,0 0,-0.25195 c 0,-0.96354 -0.269197,-1.71147 -0.810547,-2.2461 -0.54136,-0.53264 -1.296785,-0.79882 -2.265625,-0.79882 z m -6.539063,0.0957 c -0.515382,0 -0.952975,0.0956 -1.310547,0.28711 -0.35957,0.19151 -0.668134,0.48774 -0.923828,0.88672 l 0,-0.96875 -1.242187,0 0,5.9335899 1.322265,0 0,-2.7031199 c 0,-0.49075 0.02055,-0.8468 0.0625,-1.07422 0.03995,-0.22742 0.107282,-0.40931 0.201172,-0.54297 0.135838,-0.21346 0.324652,-0.38039 0.56836,-0.49609 0.239714,-0.11366 0.51854,-0.17188 0.826171,-0.17188 0.471436,0 0.798642,0.12937 0.982422,0.38672 0.183776,0.25933 0.277344,0.77671 0.277344,1.55273 l 0,3.0468799 1.332031,0 0,-3.5996099 c 0,-0.27729 -0.0056,-0.51162 -0.01563,-0.70313 -0.0159,-0.18951 -0.03073,-0.33789 -0.05273,-0.43359 -0.04994,-0.21944 -0.120917,-0.40673 -0.216797,-0.57031 -0.171794,-0.2753 -0.407301,-0.48141 -0.710937,-0.62305 -0.30164,-0.13767 -0.668126,-0.20703 -1.09961,-0.20703 z m 6.5625,1.0332 c 0.47743,0 0.85319,0.11064 1.13086,0.33008 0.27966,0.21744 0.44414,0.53436 0.49414,0.94531 l 0,0.002 -3.294922,0 c 0.11386,-0.4309 0.308398,-0.75143 0.580078,-0.96289 0.27567,-0.20946 0.636384,-0.31446 1.089844,-0.31446 z"
     id="path29"
     inkscape:connector-curvature="0" /></svg>