<?xml version="1.0" encoding="UTF-8" standalone="no"?>
<!-- Created with Inkscape (http://www.inkscape.org/) -->

<svg
   width="132.29167mm"
   height="21.150114mm"
   viewBox="0 0 132.29167 21.150114"
   version="1.1"
   id="svg1"
   inkscape:version="1.4 (86a8ad7, 2024-10-11)"
   sodipodi:docname="Air_Arabia_logo_2018.svg"
   xmlns:inkscape="http://www.inkscape.org/namespaces/inkscape"
   xmlns:sodipodi="http://sodipodi.sourceforge.net/DTD/sodipodi-0.dtd"
   xmlns="http://www.w3.org/2000/svg"
   xmlns:svg="http://www.w3.org/2000/svg">
  <sodipodi:namedview
     id="namedview1"
     pagecolor="#ffffff"
     bordercolor="#000000"
     borderopacity="0.25"
     inkscape:showpageshadow="2"
     inkscape:pageopacity="0.0"
     inkscape:pagecheckerboard="0"
     inkscape:deskcolor="#d1d1d1"
     inkscape:document-units="mm"
     inkscape:zoom="3.9458701"
     inkscape:cx="202.87034"
     inkscape:cy="30.538258"
     inkscape:window-width="1920"
     inkscape:window-height="1001"
     inkscape:window-x="-9"
     inkscape:window-y="-9"
     inkscape:window-maximized="1"
     inkscape:current-layer="layer1" />
  <defs
     id="defs1" />
  <g
     inkscape:label="Layer 1"
     inkscape:groupmode="layer"
     id="layer1"
     transform="translate(-42.333342,-110.32298)">
    <path
       style="fill:#ed1b48;fill-opacity:1;stroke:none;stroke-width:0.132291"
       d="m 50.516362,110.68147 c -2.975491,6.62088 -5.705872,13.48782 -8.18302,20.38867 h 4.325699 l 1.6807,-4.51858 h 9.560626 l 1.676386,4.51858 h 4.330012 c -2.57847,-7.20148 -5.510278,-14.58154 -8.183019,-20.38867 z m 2.602825,3.33296 c 1.368703,3.27481 3.355353,8.70737 3.355353,8.70737 h -6.702094 c 0,0 1.955602,-5.35415 3.346741,-8.70737 z"
       id="path5599"
       inkscape:connector-curvature="0" />
    <path
       style="fill:#ed1b48;fill-opacity:1;stroke:none;stroke-width:0.132291"
       d="m 66.138499,131.06979 v -14.1747 l 4.077733,-1.17192 v 15.34662 z"
       id="path5603"
       inkscape:connector-curvature="0" />
    <path
       style="fill:#ed1b48;fill-opacity:1;stroke:none;stroke-width:0.132291"
       d="m 74.045996,131.06979 v -13.65746 c 1.376852,-0.88564 3.901228,-1.76591 6.474672,-1.76591 2.290021,0 3.431791,0.66191 3.431791,0.66191 l -1.232138,2.96421 c 0,0 -0.784992,-0.2428 -1.832875,-0.2428 -1.370436,0 -1.87067,0.25024 -2.763718,0.64235 v 11.3977 z"
       id="path5605"
       inkscape:connector-curvature="0"
       sodipodi:nodetypes="ccccccccc" />
    <path
       id="path5608"
       d="m 90.216218,110.68147 c -2.975491,6.62088 -5.705885,13.48782 -8.18302,20.38867 h 4.325699 l 1.680686,-4.51858 h 9.56064 l 1.676373,4.51858 h 4.330014 c -2.57847,-7.20148 -5.51028,-14.58154 -8.183022,-20.38867 z m 2.602825,3.33296 c 1.36869,3.27481 3.35534,8.70737 3.35534,8.70737 h -6.702081 c 0,0 1.955602,-5.35415 3.346741,-8.70737 z"
       style="fill:#ed1b48;fill-opacity:1;stroke:none;stroke-width:0.132291"
       inkscape:connector-curvature="0" />
    <path
       sodipodi:nodetypes="ccccccccc"
       inkscape:connector-curvature="0"
       id="path5610"
       d="m 105.55193,131.06979 v -13.65746 c 1.37687,-0.88564 3.90124,-1.76591 6.47467,-1.76591 2.29004,0 3.43181,0.66191 3.43181,0.66191 l -1.23215,2.96421 c 0,0 -0.78498,-0.2428 -1.83287,-0.2428 -1.37043,0 -1.87068,0.25024 -2.76373,0.64235 v 11.3977 z"
       style="fill:#ed1b48;fill-opacity:1;stroke:none;stroke-width:0.132291" />
    <ellipse
       style="fill:#ed1b48;fill-opacity:1;stroke:none;stroke-width:0.05894"
       id="path5612"
       cx="68.179123"
       cy="112.55282"
       rx="2.2894971"
       ry="2.2298422" />
    <path
       inkscape:connector-curvature="0"
       id="path5614"
       d="m 152.49973,131.06979 v -14.1747 l 4.07773,-1.17192 v 15.34662 z"
       style="fill:#ed1b48;fill-opacity:1;stroke:none;stroke-width:0.132291" />
    <ellipse
       id="path5616"
       style="fill:#ed1b48;fill-opacity:1;stroke:none;stroke-width:0.05894"
       cx="154.54037"
       cy="112.55282"
       rx="2.2894971"
       ry="2.2298422" />
    <path
       style="fill:#ed1b48;fill-opacity:1;stroke:none;stroke-width:0.132291"
       d="m 123.92592,115.71751 c -5.05148,0 -8.4396,3.08847 -8.4396,8.35952 0,4.98523 3.20318,7.39606 6.83812,7.39606 2.04105,0 3.51982,-0.86068 4.30419,-1.80812 v 1.40517 h 4.09236 v -13.85879 c -1.31231,-0.85365 -4.08297,-1.49384 -6.79507,-1.49384 z m 0.47355,3.14698 c 1.56696,0 2.23088,0.27467 2.23088,0.27467 v 5.22287 c 0,1.38585 -0.58156,3.8134 -3.36052,3.8134 -2.23284,0 -3.57835,-1.75674 -3.57835,-4.51341 0,-2.90474 1.47964,-4.79753 4.70799,-4.79753 z"
       id="path5618"
       inkscape:connector-curvature="0" />
    <path
       id="path5623"
       d="m 167.82993,115.71751 c -5.05147,0 -8.4396,3.08847 -8.4396,8.35952 0,4.98523 3.20319,7.39606 6.83813,7.39606 2.04104,0 3.51981,-0.86068 4.30417,-1.80812 v 1.40517 h 4.09238 v -13.85879 c -1.31231,-0.85365 -4.08299,-1.49384 -6.79508,-1.49384 z m 0.47356,3.14698 c 1.56696,0 2.23086,0.27467 2.23086,0.27467 v 5.22287 c 0,1.38585 -0.58154,3.8134 -3.36051,3.8134 -2.23283,0 -3.57835,-1.75674 -3.57835,-4.51341 0,-2.90474 1.47963,-4.79753 4.708,-4.79753 z"
       style="fill:#ed1b48;fill-opacity:1;stroke:none;stroke-width:0.132291"
       inkscape:connector-curvature="0" />
    <path
       style="fill:#ed1b48;fill-opacity:1;stroke:none;stroke-width:0.132291"
       d="m 138.40807,110.68147 -4.09151,1.16925 v 19.21253 c 1.18194,0.20827 3.32174,0.4064 5.63271,0.4064 8.02374,0 9.60369,-4.65177 9.60369,-8.37847 0,-4.52232 -2.92738,-7.36765 -6.89753,-7.36765 -2.01194,0 -3.50245,0.91121 -4.24736,1.81845 z m 3.37257,8.34058 c 2.31959,0 3.57318,1.9124 3.57318,4.51341 0,2.70937 -1.31663,4.7829 -4.76395,4.7829 -0.87514,0 -1.6002,-0.0756 -2.1818,-0.26863 v -5.07737 c 0,-1.98901 0.85842,-3.95031 3.37257,-3.95031 z"
       id="path5625"
       inkscape:connector-curvature="0" />
  </g>
</svg>
