<?xml version="1.0" encoding="utf-8"?>
<!-- Generator: Adobe Illustrator 26.3.1, SVG Export Plug-In . SVG Version: 6.00 Build 0)  -->
<svg version="1.1" id="Layer_1" xmlns="http://www.w3.org/2000/svg" xmlns:xlink="http://www.w3.org/1999/xlink" x="0px" y="0px"
	 viewBox="0 0 407.7 245.3" style="enable-background:new 0 0 407.7 245.3;" xml:space="preserve">
<style type="text/css">
	.st0{fill:#231F20;}
	.st1{fill:#A62323;}
</style>
<g>
	<path class="st0" d="M178.6,245.3l-24.7-43.8h-4.2c-3.9,0-7.4,2.1-9.3,5.4l-21.7,38.3h5.5c4,0,7.7-2.2,9.5-5.8l2-3.8h16
		c3.1,0,5.9-1.5,7.6-4.1l0.1-0.2l7.2,13.9L178.6,245.3z M139.6,228.2l9.1-17.5l9.1,17.5H139.6z"/>
	<path class="st0" d="M407.7,245.3L383,201.5h-4.2c-3.9,0-7.4,2.1-9.3,5.4l-21.7,38.3h5.5c4,0,7.7-2.2,9.5-5.8l2-3.8h16
		c3.1,0,5.9-1.5,7.6-4.1l0.1-0.2l7.2,13.9L407.7,245.3z M368.7,228.2l9.1-17.5l9.1,17.5H368.7z"/>
	<path class="st0" d="M62.9,201.5c-2.9,0-5.3,2.4-5.3,5.3v34.3l-22.4-39.6H31c-3.9,0-7.4,2.1-9.3,5.4L0,245.3h5.5
		c4,0,7.7-2.2,9.5-5.8l2-3.8h16c3.1,0,5.9-1.5,7.6-4.1l0.1-0.2l7.2,13.9h9.6h2.4h1.7c2.9,0,5.3-2.4,5.3-5.3v-38.4L62.9,201.5z
		 M20.9,228.2l9.1-17.5l9.1,17.5H20.9z"/>
	<path class="st0" d="M347.2,201.5h-4.1h-16.3c-2.6,0-4.8,2.2-4.8,4.8v3.9h15.8v35h4.1c2.9,0,5.3-2.4,5.3-5.3v-29.7h10.1
		c2.6,0,4.8-2.2,4.8-4.8v-3.9H347.2z"/>
	<path class="st0" d="M189.1,201.5h-4.1h-16.3c-2.6,0-4.8,2.2-4.8,4.8v3.9h15.8v35h4.1c2.9,0,5.3-2.4,5.3-5.3v-29.7h10.1
		c2.6,0,4.8-2.2,4.8-4.8v-3.9H189.1z"/>
	<path class="st0" d="M316.5,201.5c-2.9,0-5.3,2.4-5.3,5.3v22.9l-20.6-28.2h-2.7h-4.1c-2.9,0-5.3,2.4-5.3,5.3v33.9l-22.2-39.3H252
		c-3.9,0-7.4,2.1-9.3,5.4l-16.3,28.8h-11.4v-34.3h-4.1c-2.9,0-5.3,2.4-5.3,5.3v38.4h2.2h1.8H221h3.5h2c4,0,7.7-2.2,9.5-5.8l2-3.8h16
		c3.1,0,5.9-1.5,7.6-4.1l0.1-0.2l7.2,13.9h9.4h2.6h1.5c2.9,0,5.3-2.4,5.3-5.3v-25.4l21.9,30.8h1.4h4.1c2.9,0,5.3-2.4,5.3-5.3v-38.4
		L316.5,201.5z M241.9,228.2l9.1-17.5l9.1,17.5H241.9z"/>
	<path class="st0" d="M101.3,227.2c3.8,0,9.6-3.2,9.6-12.1s-7.5-13.6-11.9-13.6s-16.9,0-16.9,0h-4.1c-2.9,0-5.3,2.4-5.3,5.3v38.4
		h4.1c2.9,0,5.3-2.4,5.3-5.3v-29.2h14.3c2.1,0,4.7,1.5,4.7,5.3c0,3.9-2.6,6.6-5.1,6.6c-2.6,0-10.1,0-10.1,0l17.4,22.6H116
		L101.3,227.2z"/>
</g>
<path class="st1" d="M303.6,57.2c24.2,0,47-11.3,61.7-30.6L385.4,0h-62.9c-20.9,0-41,7.5-56.8,21.1l-41.8,36L303.6,57.2z"/>
<path class="st1" d="M372,33.4c-16.5,22-42.4,34.9-69.9,34.9h-91.3l-34,29.3h108.8c33.4,0,64.8-15.8,84.7-42.6l14.9-20V15.6
	L372,33.4z"/>
<path class="st1" d="M385.4,108.4V86.1l-9.3,13.7C349.3,139.3,304.7,163,257,163H101.2l-16.2,14h166.9
	C314.7,177,354.8,150.9,385.4,108.4z"/>
<path class="st1" d="M380.1,59c-22.3,35.3-61,56.7-102.8,56.7H156l-24.1,20.8H273c40.6,0,78.7-19.5,102.3-52.4l10.1-14V50.6
	L380.1,59z"/>
</svg>
