<?xml version="1.0" encoding="UTF-8" standalone="no"?>
<svg
   xmlns:dc="http://purl.org/dc/elements/1.1/"
   xmlns:cc="http://creativecommons.org/ns#"
   xmlns:rdf="http://www.w3.org/1999/02/22-rdf-syntax-ns#"
   xmlns:svg="http://www.w3.org/2000/svg"
   xmlns="http://www.w3.org/2000/svg"
   xmlns:sodipodi="http://sodipodi.sourceforge.net/DTD/sodipodi-0.dtd"
   xmlns:inkscape="http://www.inkscape.org/namespaces/inkscape"
   inkscape:version="1.0 (4035a4fb49, 2020-05-01)"
   sodipodi:docname="Air_Aruba.svg"
   viewBox="0 0 160.75325 18.904945"
   height="18.904945"
   width="160.75325"
   xml:space="preserve"
   id="svg2"
   version="1.1"><metadata
     id="metadata8"><rdf:RDF><cc:Work
         rdf:about=""><dc:format>image/svg+xml</dc:format><dc:type
           rdf:resource="http://purl.org/dc/dcmitype/StillImage" /><dc:title></dc:title></cc:Work></rdf:RDF></metadata><defs
     id="defs6" /><sodipodi:namedview
     inkscape:current-layer="g10"
     inkscape:window-maximized="1"
     inkscape:window-y="-8"
     inkscape:window-x="-8"
     inkscape:cy="11.264285"
     inkscape:cx="73.613309"
     inkscape:zoom="6.4393939"
     showgrid="false"
     id="namedview4"
     inkscape:window-height="1017"
     inkscape:window-width="1920"
     inkscape:pageshadow="2"
     inkscape:pageopacity="0"
     guidetolerance="10"
     gridtolerance="10"
     objecttolerance="10"
     borderopacity="1"
     bordercolor="#666666"
     pagecolor="#ffffff" /><g
     transform="matrix(1.3333333,0,0,-1.3333333,-317.82747,545.68228)"
     inkscape:label="Air_Aruba"
     inkscape:groupmode="layer"
     id="g10"><path
       id="path14"
       style="fill:#0090cf;fill-opacity:1;fill-rule:evenodd;stroke:none"
       d="m 255.61182,395.08301 v 7.04736 l -4.93457,-7.04736 z" /><path
       id="path16"
       style="fill:#1c2e94;fill-opacity:1;fill-rule:evenodd;stroke:none"
       d="m 256.28418,404.2627 -6.42773,-9.17969 h -5.42823 l 9.92676,14.17871 h 6.07373 v -14.17871 h -4.14453 z" /><path
       id="path18"
       style="fill:#0090cf;fill-opacity:1;fill-rule:evenodd;stroke:none"
       d="m 248.29639,409.26172 -9.92578,-14.17871 h 5.42919 l 9.92725,14.17871 z" /><path
       id="path20"
       style="fill:#539ddb;fill-opacity:1;fill-rule:evenodd;stroke:none"
       d="m 267.39795,397.41797 -1.18359,-1.88281 h -3.10547 l 7.83252,11.35986 h 2.86865 z" /><path
       id="path22"
       style="fill:#539ddb;fill-opacity:1;fill-rule:evenodd;stroke:none"
       d="m 276.06445,397.41797 h -3.43066 l -1.18311,-1.88281 h -3.10693 l 7.83301,11.35986 h 3.33887 l -0.46534,-11.35986 h -3.1792 l 0.19336,1.88281 m 0.25684,2.4624 0.41309,4.07666 -2.55567,-4.07666 z" /><path
       id="path24"
       style="fill:#539ddb;fill-opacity:1;fill-rule:evenodd;stroke:none"
       d="m 281.87695,406.89502 h 3.03516 v -11.35986 h -3.03516 z" /><path
       id="path26"
       style="fill:#539ddb;fill-opacity:1;fill-rule:evenodd;stroke:none"
       d="m 286.79883,395.53516 v 11.35986 h 5.06396 c 0.93897,0 1.65625,-0.0923 2.15332,-0.27881 0.4961,-0.18652 0.89698,-0.53271 1.2002,-1.03418 0.3042,-0.50537 0.45703,-1.12012 0.45703,-1.84131 0,-0.63086 -0.11768,-1.17578 -0.34717,-1.63427 -0.23291,-0.45752 -0.55029,-0.82862 -0.95508,-1.11231 -0.25976,-0.18066 -0.61425,-0.33057 -1.06396,-0.44922 0.35986,-0.13867 0.62256,-0.27881 0.78906,-0.41992 0.11035,-0.0923 0.27295,-0.29102 0.48486,-0.59863 0.21143,-0.30371 0.35352,-0.54151 0.4253,-0.70655 l 1.47851,-3.28466 h -3.43603 l -1.62061,3.46875 c -0.20556,0.44824 -0.3916,0.74023 -0.55078,0.875 -0.22021,0.1748 -0.46875,0.26318 -0.74609,0.26318 h -0.27002 v -4.60693 h -3.0625 m 3.0625,6.75341 h 1.27148 c 0.13721,0 0.40381,0.0503 0.79883,0.1543 0.19873,0.0478 0.36182,0.16406 0.48779,0.35401 0.12793,0.19287 0.19239,0.41015 0.19239,0.65917 0,0.36524 -0.10254,0.64649 -0.30078,0.84083 -0.19971,0.19677 -0.57569,0.29492 -1.125,0.29492 h -1.32471 z" /><path
       id="path28"
       style="fill:#539ddb;fill-opacity:1;fill-rule:evenodd;stroke:none"
       d="m 301.42969,397.41797 -1.18311,-1.88281 h -3.1084 l 7.83399,11.35986 h 2.86963 z" /><path
       id="path30"
       style="fill:#539ddb;fill-opacity:1;fill-rule:evenodd;stroke:none"
       d="m 310.09766,397.41797 h -3.4336 l -1.18115,-1.88281 h -3.1084 l 7.83447,11.35986 h 3.3379 l -0.46583,-11.35986 h -3.18066 l 0.19727,1.88281 m 0.2539,2.4624 0.41504,4.07666 -2.55664,-4.07666 z" /><path
       id="path32"
       style="fill:#539ddb;fill-opacity:1;fill-rule:evenodd;stroke:none"
       d="m 315.90137,395.53516 v 11.35986 h 5.06543 c 0.9375,0 1.65722,-0.0923 2.15332,-0.27881 0.49511,-0.18652 0.89648,-0.53271 1.20117,-1.03418 0.30176,-0.50537 0.45508,-1.12012 0.45508,-1.84131 0,-0.63086 -0.11621,-1.17578 -0.34766,-1.63427 -0.23047,-0.45752 -0.55176,-0.82862 -0.95508,-1.11231 -0.25879,-0.18066 -0.61425,-0.33057 -1.0625,-0.44922 0.36035,-0.13867 0.62403,-0.27881 0.78809,-0.41992 0.11133,-0.0923 0.27344,-0.29102 0.48437,-0.59863 0.21289,-0.30371 0.3545,-0.54151 0.42676,-0.70655 l 1.47754,-3.28466 h -3.43359 l -1.62403,3.46875 c -0.20507,0.44824 -0.39062,0.74023 -0.55078,0.875 -0.21777,0.1748 -0.46777,0.26318 -0.74511,0.26318 h -0.26954 v -4.60693 h -3.06347 m 3.06347,6.75341 h 1.27149 c 0.13769,0 0.40332,0.0503 0.7998,0.1543 0.19629,0.0478 0.36035,0.16406 0.48926,0.35401 0.12402,0.19287 0.1875,0.41015 0.1875,0.65917 0,0.36524 -0.0996,0.64649 -0.29883,0.84083 -0.20019,0.19677 -0.57422,0.29492 -1.12402,0.29492 h -1.3252 z" /><path
       id="path34"
       style="fill:#539ddb;fill-opacity:1;fill-rule:evenodd;stroke:none"
       d="m 332.36914,406.89502 h 3.03613 v -6.76074 c 0,-0.67188 -0.0908,-1.3042 -0.27246,-1.90088 -0.18261,-0.59619 -0.46582,-1.11621 -0.85156,-1.56348 -0.38672,-0.44482 -0.79395,-0.75879 -1.2168,-0.9414 -0.59277,-0.25 -1.2998,-0.37647 -2.12597,-0.37647 -0.47852,0 -1.00196,0.0376 -1.56641,0.11621 -0.56738,0.0752 -1.03809,0.22998 -1.41992,0.4585 -0.38086,0.23095 -0.72754,0.55517 -1.04297,0.97949 -0.31641,0.42236 -0.53125,0.8584 -0.64648,1.30811 -0.18848,0.72216 -0.28223,1.36328 -0.28223,1.91992 v 6.76074 h 3.03516 v -6.92481 c 0,-0.62011 0.15039,-1.10498 0.44628,-1.45312 0.29493,-0.34863 0.70801,-0.52148 1.23243,-0.52148 0.52343,0 0.93261,0.17089 1.22949,0.51367 0.29492,0.34375 0.44531,0.82959 0.44531,1.46093 z" /><path
       id="path36"
       style="fill:#539ddb;fill-opacity:1;fill-rule:evenodd;stroke:none"
       d="m 337.07813,406.89502 h 5.69042 c 0.9502,0 1.67774,-0.27051 2.18555,-0.8125 0.50977,-0.54248 0.76367,-1.21436 0.76367,-2.01318 0,-0.67139 -0.18164,-1.24952 -0.54589,-1.73047 -0.24122,-0.31787 -0.59473,-0.57178 -1.06153,-0.7583 0.70313,-0.19629 1.2207,-0.53418 1.55371,-1.01026 0.33106,-0.47998 0.49707,-1.08008 0.49707,-1.80176 0,-0.59082 -0.11914,-1.11914 -0.35449,-1.58984 -0.23926,-0.46973 -0.5625,-0.84424 -0.97461,-1.11767 -0.25195,-0.16944 -0.63769,-0.29444 -1.15234,-0.3711 -0.68262,-0.10449 -1.13574,-0.15478 -1.36133,-0.15478 h -5.24023 v 11.35986 m 3.06347,-4.44971 h 1.32129 c 0.47461,0 0.80469,0.0942 0.99121,0.28223 0.18555,0.18799 0.2793,0.45947 0.2793,0.81445 0,0.32959 -0.0937,0.58789 -0.2793,0.771 -0.18652,0.18652 -0.50976,0.27881 -0.97168,0.27881 h -1.34082 v -2.14649 m 0,-4.47802 h 1.55176 c 0.52246,0 0.89258,0.11035 1.10937,0.32324 0.21485,0.21435 0.32129,0.50293 0.32129,0.86572 0,0.33545 -0.10644,0.60693 -0.31836,0.81055 -0.21386,0.20312 -0.58496,0.30615 -1.12011,0.30615 h -1.54395 z" /><path
       id="path38"
       style="fill:#539ddb;fill-opacity:1;fill-rule:evenodd;stroke:none"
       d="m 354.58008,397.41797 h -3.43262 l 0.19043,-1.88281 h -3.10937 l -0.43653,11.35986 h 3.34082 l 7.80274,-11.35986 h -3.18067 l -1.1748,1.88281 m -1.53613,2.4624 -2.55469,4.07666 0.41015,-4.07666 z" /><path
       id="path40"
       style="fill:#0090cf;fill-opacity:1;fill-rule:evenodd;stroke:none"
       d="m 267.39795,397.41797 -1.18359,-1.88281 h -3.10547 l 7.83252,11.35986 h 2.86865 z" /><path
       id="path42"
       style="fill:#1c2e94;fill-opacity:1;fill-rule:evenodd;stroke:none"
       d="m 276.06445,397.41797 h -3.43066 l -1.18311,-1.88281 h -3.10693 l 7.83301,11.35986 h 3.33887 l -0.46534,-11.35986 h -3.1792 l 0.19336,1.88281 m 0.25684,2.4624 0.41309,4.07666 -2.55567,-4.07666 z" /><path
       id="path44"
       style="fill:#1c2e94;fill-opacity:1;fill-rule:evenodd;stroke:none"
       d="m 281.87695,406.89502 h 3.03516 v -11.35986 h -3.03516 z" /><path
       id="path46"
       style="fill:#1c2e94;fill-opacity:1;fill-rule:evenodd;stroke:none"
       d="m 286.79883,395.53516 v 11.35986 h 5.06396 c 0.93897,0 1.65625,-0.0923 2.15332,-0.27881 0.4961,-0.18652 0.89698,-0.53271 1.2002,-1.03418 0.3042,-0.50537 0.45703,-1.12012 0.45703,-1.84131 0,-0.63086 -0.11768,-1.17578 -0.34717,-1.63427 -0.23291,-0.45752 -0.55029,-0.82862 -0.95508,-1.11231 -0.25976,-0.18066 -0.61425,-0.33057 -1.06396,-0.44922 0.35986,-0.13867 0.62256,-0.27881 0.78906,-0.41992 0.11035,-0.0923 0.27295,-0.29102 0.48486,-0.59863 0.21143,-0.30371 0.35352,-0.54151 0.4253,-0.70655 l 1.47851,-3.28466 h -3.43603 l -1.62061,3.46875 c -0.20556,0.44824 -0.3916,0.74023 -0.55078,0.875 -0.22021,0.1748 -0.46875,0.26318 -0.74609,0.26318 h -0.27002 v -4.60693 h -3.0625 m 3.0625,6.75341 h 1.27148 c 0.13721,0 0.40381,0.0503 0.79883,0.1543 0.19873,0.0478 0.36182,0.16406 0.48779,0.35401 0.12793,0.19287 0.19239,0.41015 0.19239,0.65917 0,0.36524 -0.10254,0.64649 -0.30078,0.84083 -0.19971,0.19677 -0.57569,0.29492 -1.125,0.29492 h -1.32471 z" /><path
       id="path48"
       style="fill:#0090cf;fill-opacity:1;fill-rule:evenodd;stroke:none"
       d="m 301.42969,397.41797 -1.18311,-1.88281 h -3.1084 l 7.83399,11.35986 h 2.86963 z" /><path
       id="path50"
       style="fill:#1c2e94;fill-opacity:1;fill-rule:evenodd;stroke:none"
       d="m 310.09766,397.41797 h -3.4336 l -1.18115,-1.88281 h -3.1084 l 7.83447,11.35986 h 3.3379 l -0.46583,-11.35986 h -3.18066 l 0.19727,1.88281 m 0.2539,2.4624 0.41504,4.07666 -2.55664,-4.07666 z" /><path
       id="path52"
       style="fill:#1c2e94;fill-opacity:1;fill-rule:evenodd;stroke:none"
       d="m 315.90137,395.53516 v 11.35986 h 5.06543 c 0.9375,0 1.65722,-0.0923 2.15332,-0.27881 0.49511,-0.18652 0.89648,-0.53271 1.20117,-1.03418 0.30176,-0.50537 0.45508,-1.12012 0.45508,-1.84131 0,-0.63086 -0.11621,-1.17578 -0.34766,-1.63427 -0.23047,-0.45752 -0.55176,-0.82862 -0.95508,-1.11231 -0.25879,-0.18066 -0.61425,-0.33057 -1.0625,-0.44922 0.36035,-0.13867 0.62403,-0.27881 0.78809,-0.41992 0.11133,-0.0923 0.27344,-0.29102 0.48437,-0.59863 0.21289,-0.30371 0.3545,-0.54151 0.42676,-0.70655 l 1.47754,-3.28466 h -3.43359 l -1.62403,3.46875 c -0.20507,0.44824 -0.39062,0.74023 -0.55078,0.875 -0.21777,0.1748 -0.46777,0.26318 -0.74511,0.26318 h -0.26954 v -4.60693 h -3.06347 m 3.06347,6.75341 h 1.27149 c 0.13769,0 0.40332,0.0503 0.7998,0.1543 0.19629,0.0478 0.36035,0.16406 0.48926,0.35401 0.12402,0.19287 0.1875,0.41015 0.1875,0.65917 0,0.36524 -0.0996,0.64649 -0.29883,0.84083 -0.20019,0.19677 -0.57422,0.29492 -1.12402,0.29492 h -1.3252 z" /><path
       id="path54"
       style="fill:#1c2e94;fill-opacity:1;fill-rule:evenodd;stroke:none"
       d="m 332.36914,406.89502 h 3.03613 v -6.76074 c 0,-0.67188 -0.0908,-1.3042 -0.27246,-1.90088 -0.18261,-0.59619 -0.46582,-1.11621 -0.85156,-1.56348 -0.38672,-0.44482 -0.79395,-0.75879 -1.2168,-0.9414 -0.59277,-0.25 -1.2998,-0.37647 -2.12597,-0.37647 -0.47852,0 -1.00196,0.0376 -1.56641,0.11621 -0.56738,0.0752 -1.03809,0.22998 -1.41992,0.4585 -0.38086,0.23095 -0.72754,0.55517 -1.04297,0.97949 -0.31641,0.42236 -0.53125,0.8584 -0.64648,1.30811 -0.18848,0.72216 -0.28223,1.36328 -0.28223,1.91992 v 6.76074 h 3.03516 v -6.92481 c 0,-0.62011 0.15039,-1.10498 0.44628,-1.45312 0.29493,-0.34863 0.70801,-0.52148 1.23243,-0.52148 0.52343,0 0.93261,0.17089 1.22949,0.51367 0.29492,0.34375 0.44531,0.82959 0.44531,1.46093 z" /><path
       id="path56"
       style="fill:#1c2e94;fill-opacity:1;fill-rule:evenodd;stroke:none"
       d="m 337.07813,406.89502 h 5.69042 c 0.9502,0 1.67774,-0.27051 2.18555,-0.8125 0.50977,-0.54248 0.76367,-1.21436 0.76367,-2.01318 0,-0.67139 -0.18164,-1.24952 -0.54589,-1.73047 -0.24122,-0.31787 -0.59473,-0.57178 -1.06153,-0.7583 0.70313,-0.19629 1.2207,-0.53418 1.55371,-1.01026 0.33106,-0.47998 0.49707,-1.08008 0.49707,-1.80176 0,-0.59082 -0.11914,-1.11914 -0.35449,-1.58984 -0.23926,-0.46973 -0.5625,-0.84424 -0.97461,-1.11767 -0.25195,-0.16944 -0.63769,-0.29444 -1.15234,-0.3711 -0.68262,-0.10449 -1.13574,-0.15478 -1.36133,-0.15478 h -5.24023 v 11.35986 m 3.06347,-4.44971 h 1.32129 c 0.47461,0 0.80469,0.0942 0.99121,0.28223 0.18555,0.18799 0.2793,0.45947 0.2793,0.81445 0,0.32959 -0.0937,0.58789 -0.2793,0.771 -0.18652,0.18652 -0.50976,0.27881 -0.97168,0.27881 h -1.34082 v -2.14649 m 0,-4.47802 h 1.55176 c 0.52246,0 0.89258,0.11035 1.10937,0.32324 0.21485,0.21435 0.32129,0.50293 0.32129,0.86572 0,0.33545 -0.10644,0.60693 -0.31836,0.81055 -0.21386,0.20312 -0.58496,0.30615 -1.12011,0.30615 h -1.54395 z" /><path
       id="path58"
       style="fill:#1c2e94;fill-opacity:1;fill-rule:evenodd;stroke:none"
       d="m 354.58008,397.41797 h -3.43262 l 0.19043,-1.88281 h -3.10937 l -0.43653,11.35986 h 3.34082 l 7.80274,-11.35986 h -3.18067 l -1.1748,1.88281 m -1.53613,2.4624 -2.55469,4.07666 0.41015,-4.07666 z" /></g></svg>
