<?xml version="1.0" encoding="UTF-8" standalone="no"?>
<!-- Created with Inkscape (http://www.inkscape.org/) -->

<svg
   width="100"
   height="45"
   viewBox="0 0 26.458333 11.906247"
   version="1.1"
   id="svg5"
   inkscape:version="1.1 (c68e22c387, 2021-05-23)"
   sodipodi:docname="LiveJasmin_logo.svg"
   xmlns:inkscape="http://www.inkscape.org/namespaces/inkscape"
   xmlns:sodipodi="http://sodipodi.sourceforge.net/DTD/sodipodi-0.dtd"
   xmlns="http://www.w3.org/2000/svg"
   xmlns:svg="http://www.w3.org/2000/svg"
   xmlns:rdf="http://www.w3.org/1999/02/22-rdf-syntax-ns#"
   xmlns:cc="http://creativecommons.org/ns#"
   xmlns:dc="http://purl.org/dc/elements/1.1/">
  <title
     id="title7982">Air Atlantis logo</title>
  <sodipodi:namedview
     id="namedview7"
     pagecolor="#ffffff"
     bordercolor="#111111"
     borderopacity="1"
     inkscape:pageshadow="0"
     inkscape:pageopacity="0"
     inkscape:pagecheckerboard="1"
     inkscape:document-units="px"
     showgrid="false"
     objecttolerance="1"
     gridtolerance="1"
     guidetolerance="1"
     units="px"
     inkscape:zoom="5.6568545"
     inkscape:cx="78.754014"
     inkscape:cy="22.450639"
     inkscape:window-width="1366"
     inkscape:window-height="746"
     inkscape:window-x="-8"
     inkscape:window-y="-8"
     inkscape:window-maximized="1"
     inkscape:current-layer="layer1"
     height="45px" />
  <defs
     id="defs2" />
  <g
     inkscape:label="Capa 1"
     inkscape:groupmode="layer"
     id="layer1">
    <rect
       opacity="0"
       fill="#ffffff"
       width="26.057219"
       height="12.299062"
       id="rect4-0"
       x="8.5333576"
       y="1.5678756"
       style="stroke-width:0.208457" />
    <g
       id="g343"
       transform="matrix(1.0565795,0,0,1.0565795,-9.5454131,-2.2607532)">
      <path
         id="polygon6-3"
         d="m 32.924145,11.641497 c -0.242861,0 -0.433812,0.02056 -0.57285,0.06026 -0.13965,0.0399 -0.243676,0.09405 -0.313501,0.164078 -0.06921,0.06901 -0.10382,0.143111 -0.10382,0.221893 -10e-7,0.118682 0.0682,0.216803 0.203978,0.293957 0.134765,0.07654 0.359711,0.138224 0.675857,0.184435 0.192374,0.02769 0.315128,0.0568 0.368056,0.08754 0.05191,0.03094 0.07817,0.06616 0.07817,0.105857 0,0.04153 -0.02789,0.07797 -0.08306,0.108707 -0.05619,0.03176 -0.134969,0.04723 -0.237365,0.04723 -0.137207,0 -0.243268,-0.03074 -0.317163,-0.09242 -0.0456,-0.03827 -0.07552,-0.09446 -0.09038,-0.167742 l -0.68278,0.02891 c 0.02015,0.153696 0.106671,0.281132 0.259351,0.381085 0.15227,0.09995 0.426278,0.149421 0.822427,0.149421 0.225557,0 0.412435,-0.02117 0.560635,-0.06351 0.148405,-0.04295 0.264032,-0.104839 0.346885,-0.186878 0.08204,-0.08204 0.123365,-0.172018 0.123365,-0.269529 0,-0.08285 -0.03094,-0.157564 -0.09283,-0.224335 -0.06249,-0.06738 -0.161636,-0.123364 -0.297214,-0.168964 -0.136598,-0.04458 -0.362356,-0.08937 -0.676672,-0.13395 -0.127638,-0.0171 -0.207642,-0.03583 -0.24062,-0.05537 -0.034,-0.01954 -0.0513,-0.04153 -0.0513,-0.06514 0,-0.03339 0.02137,-0.06168 0.06352,-0.08428 0.04234,-0.02361 0.105654,-0.03501 0.18932,-0.03501 0.101583,0 0.181179,0.01547 0.238994,0.04641 0.0572,0.03074 0.09507,0.08041 0.112778,0.148607 l 0.675857,-0.02606 c -0.02912,-0.157564 -0.122352,-0.273803 -0.278493,-0.346071 -0.155934,-0.07227 -0.383732,-0.109114 -0.681148,-0.109114 z m -20.140525,0.02606 v 1.521084 h 0.721456 v -1.521084 z m 1.055313,0 v 1.521084 h 0.721864 v -0.617635 h 0.06351 c 0.06626,0 0.125501,0.01221 0.177514,0.03501 0.03858,0.01873 0.08234,0.05741 0.131914,0.117664 l 0.386378,0.464957 h 0.813471 L 15.77937,12.752995 c -0.01659,-0.0226 -0.05018,-0.05537 -0.100157,-0.0969 -0.04998,-0.04133 -0.08845,-0.06881 -0.114814,-0.08184 -0.03898,-0.01873 -0.101175,-0.03827 -0.186471,-0.057 0.107587,-0.01629 0.192782,-0.03562 0.254464,-0.05985 0.09751,-0.03827 0.174053,-0.08815 0.229221,-0.149014 0.05568,-0.06168 0.08346,-0.134153 0.08346,-0.218635 0,-0.0967 -0.03634,-0.178532 -0.1083,-0.245914 -0.07227,-0.06738 -0.167132,-0.114 -0.285,-0.139243 -0.117766,-0.02504 -0.288358,-0.03705 -0.510964,-0.03705 z m 5.743152,0 v 0.377014 h 0.734485 v 1.14407 h 0.721863 v -1.14407 h 0.734486 v -0.377014 z m 2.321119,0 v 1.521084 h 1.839877 0.640435 l 0.52155,-1.126156 0.523992,1.126156 h 0.754028 l -0.870063,-1.521084 h -0.797186 l -0.772756,1.35497 v -0.2109 h -1.11842 v -1.14407 z m 4.318153,0 v 1.521084 h 0.676264 v -0.838306 l 0.877392,0.838306 h 0.676264 v -1.521084 h -0.676264 v 0.842378 l -0.882278,-0.842378 z m 2.356541,0 v 0.377014 h 0.734485 v 1.14407 h 0.721863 v -1.14407 h 0.734485 v -0.377014 z m 2.346361,0 v 1.521084 h 0.721866 v -1.521084 z m -19.686966,0.2679 0.0012,0.002 4.17e-4,-4.17e-4 z m 0.0012,0.002 -0.381493,0.626185 0.378643,0.597278 h 0.780086 z m 7.2793,-0.002 0.0013,0.002 4.16e-4,-4.17e-4 z m 0.0013,0.002 -0.381493,0.626185 0.378643,0.597278 h 0.780085 z m -3.958286,0.03582 h 0.319199 c 0.132423,0 0.222809,0.01262 0.271157,0.03949 0.04794,0.02687 0.07247,0.06453 0.07247,0.114 0,0.0342 -0.01557,0.06311 -0.04641,0.08916 -0.03003,0.02606 -0.06932,0.04234 -0.117664,0.04804 -0.09507,0.01445 -0.159193,0.02117 -0.192578,0.02117 H 14.56081 Z"
         style="stroke-width:0.208457" />
      <path
         id="polygon8-5"
         d="M 14.186633,2.2198127 9.1620873,10.456712 h 3.1203397 l 3.495319,-5.7305302 z m -3.478219,8.8822203 -1.2564412,2.05892 H 10.232058 L 11.1066,11.728218 Z"
         style="fill:#195d49;fill-opacity:1;stroke-width:0.208457" />
      <path
         id="polygon12-6"
         d="m 16.308252,5.5624525 -1.529227,2.5059618 1.517013,2.3882977 h 3.12034 z m 1.680684,5.5395805 -1.256441,2.05892 h 0.780085 l 0.874542,-1.432735 z"
         style="fill:#9a1e1b;fill-opacity:1;stroke-width:0.208457" />
    </g>
  </g>
  <metadata
     id="metadata7980">
    <rdf:RDF>
      <cc:Work
         rdf:about="">
        <dc:title>Air Atlantis logo</dc:title>
        <dc:date>13 sep 2021</dc:date>
        <cc:license
           rdf:resource="http://scripts.sil.org/OFL" />
        <dc:rights>
          <cc:Agent>
            <dc:title>N/A</dc:title>
          </cc:Agent>
        </dc:rights>
      </cc:Work>
      <cc:License
         rdf:about="http://scripts.sil.org/OFL">
        <cc:permits
           rdf:resource="http://scripts.sil.org/pub/OFL/Reproduction" />
        <cc:permits
           rdf:resource="http://scripts.sil.org/pub/OFL/Distribution" />
        <cc:permits
           rdf:resource="http://scripts.sil.org/pub/OFL/Embedding" />
        <cc:permits
           rdf:resource="http://scripts.sil.org/pub/OFL/DerivativeWorks" />
        <cc:requires
           rdf:resource="http://scripts.sil.org/pub/OFL/Notice" />
        <cc:requires
           rdf:resource="http://scripts.sil.org/pub/OFL/Attribution" />
        <cc:requires
           rdf:resource="http://scripts.sil.org/pub/OFL/ShareAlike" />
        <cc:requires
           rdf:resource="http://scripts.sil.org/pub/OFL/DerivativeRenaming" />
        <cc:requires
           rdf:resource="http://scripts.sil.org/pub/OFL/BundlingWhenSelling" />
      </cc:License>
    </rdf:RDF>
  </metadata>
</svg>
