<?xml version="1.0" encoding="UTF-8" standalone="no"?>
<!-- Generator: Adobe Illustrator 14.0.0, SVG Export Plug-In . SVG Version: 6.00 Build 43363)  -->
<svg xmlns:dc="http://purl.org/dc/elements/1.1/" xmlns:cc="http://creativecommons.org/ns#" xmlns:rdf="http://www.w3.org/1999/02/22-rdf-syntax-ns#" xmlns:svg="http://www.w3.org/2000/svg" xmlns="http://www.w3.org/2000/svg" xmlns:sodipodi="http://sodipodi.sourceforge.net/DTD/sodipodi-0.dtd" xmlns:inkscape="http://www.inkscape.org/namespaces/inkscape" version="1.1" id="Layer_1" x="0px" y="0px" width="240.0013" height="57.647022" viewBox="0 0 240.0013 57.647022" enable-background="new 0 0 250 67" xml:space="preserve" inkscape:version="0.48.1 " sodipodi:docname="AJAX.svg"><metadata id="metadata13"><rdf:RDF><cc:Work rdf:about=""><dc:format>image/svg+xml</dc:format><dc:type rdf:resource="http://purl.org/dc/dcmitype/StillImage"/></cc:Work></rdf:RDF></metadata><defs id="defs11"/><sodipodi:namedview pagecolor="#ffffff" bordercolor="#666666" borderopacity="1" objecttolerance="10" gridtolerance="10" guidetolerance="10" inkscape:pageopacity="0" inkscape:pageshadow="2" inkscape:window-width="1280" inkscape:window-height="1004" id="namedview9" showgrid="false" fit-margin-top="0" fit-margin-left="0" fit-margin-right="0" fit-margin-bottom="0" inkscape:zoom="2.0662113" inkscape:cx="149.95667" inkscape:cy="-51.820203" inkscape:window-x="-8" inkscape:window-y="-8" inkscape:window-maximized="1" inkscape:current-layer="Layer_1"/>
<g id="g3" transform="translate(-4.99971, -4.67598)">
	<path d="m 134.238,25.812 h 17.534 v 5.531 c -3.235,-0.362 -6.351,-0.575 -9.58,-0.495 v 6.104 l 7.464,0.027 0.027,5.671 h -7.491 v 6.72 c 2.795,0.186 5.888,0.136 9.58,-0.312 v 4.246 l 0.064,1.452 -17.504,-0.058 0.202,-1.459 V 27.441 l -0.296,-1.629 m -22.283,6.748 c -2.078,0 -3.752,-1.746 -3.752,-3.872 0,-2.131 1.674,-3.87 3.752,-3.87 2.088,0 3.762,1.739 3.762,3.87 0,2.125 -1.674,3.872 -3.762,3.872 z m 61.828,1.114 6.857,-0.045 0.185,3.654 c 1.662,-2.917 3.633,-4.283 9.073,-3.541 -1.546,1.876 -2.65,3.898 -3.185,6.094 -3.67,-0.199 -5.034,1.639 -5.318,5.533 l -0.101,7.592 0.173,1.702 h -7.685 l 0.123,-1.526 V 34.918 l -0.122,-1.244 z m -55.179,0.039 6.823,-0.085 0.197,3.654 c 1.694,-2.917 4.044,-4.383 6.498,-4.166 l -0.042,6.681 c -3.658,-0.213 -5.608,1.676 -5.849,5.57 l -0.1,7.592 0.135,1.702 h -7.662 l 0.175,-1.526 V 34.918 l -0.175,-1.205 z m -10.441,0.06 7.659,-0.032 -0.137,1.254 v 18.067 l 0.137,1.694 h -7.659 l 0.127,-1.562 v -18.2 l -0.127,-1.221 z m 120.639,-0.179 c 2.459,-0.313 4.715,-0.382 6.723,-0.165 5.309,0.49 8.769,2.856 8.706,7.304 v 11.983 l 0.77,1.918 h -7.22 c -0.313,-0.185 -0.229,-0.634 -0.364,-1.778 -0.479,0.657 -1.124,1.209 -1.892,1.594 -3.22,1.634 -8.371,0.659 -8.391,-4.799 0.159,-4.217 2.476,-6.725 8.391,-8.426 0.542,-0.181 1.109,-0.313 1.687,-0.445 0.035,-1.679 -0.537,-2.675 -1.687,-3.063 -1.376,-0.462 -3.564,0.027 -6.59,1.427 l -0.133,-5.55 z m 6.722,11.917 c -2.15,1.39 -2.855,5.177 -0.095,5.177 0.71,-0.063 1.479,-0.513 1.986,-1.082 v -4.589 h -0.242 c -0.604,0 -1.181,0.176 -1.649,0.494 z m -27.506,-11.883 7.59,-0.035 -0.141,1.291 v 1.082 c 0.505,-0.877 1.145,-1.569 1.981,-2.048 0.774,-0.43 1.684,-0.665 2.748,-0.707 4.844,-0.072 6.258,4.675 6.258,10.404 0,5.688 -4.232,11.291 -8.321,11.291 h -0.685 c -0.837,-0.064 -1.477,-0.244 -1.981,-0.52 l -0.034,6.221 0.135,1.716 h -7.595 l 0.145,-1.579 0.061,-8.306 V 34.885 l -0.161,-1.257 z m 9.43,5.153 -0.335,-0.027 c -0.837,0 -1.336,0.39 -1.681,1.044 v 10.89 c 0.776,-0.063 1.453,-0.445 2.016,-0.965 2.821,-2.788 2.66,-10.3 0,-10.942 z M 197.23,33.079 c 6.518,0.038 9.613,5.082 9.613,11.213 0,6.147 -2.801,11.134 -9.523,11.244 -6.882,0.063 -9.705,-5.044 -9.705,-11.244 0,-6.163 3.131,-11.213 9.615,-11.213 z m 0.09,4.488 c -2.155,0 -2.28,3.037 -2.28,6.725 0,3.68 0.21,6.718 2.28,6.718 2.057,0 2.264,-3.038 2.264,-6.718 0,-3.688 -0.138,-6.725 -2.264,-6.725 z M 89.314,25.762 h 8.599 l 9.031,28.995 h -8.129 l -1.711,-5.799 h -3.757 l -4.032,0.033 -1.344,5.766 H 81.95 l 7.659,-26.659 -0.295,-2.336 z m 4.032,7.179 -1.322,5.5 -1.326,5.426 2.648,-0.027 2.618,0.027 -1.342,-5.426 -1.276,-5.5 z m 60.008,0.832 c 2.44,-0.032 4.871,-0.032 7.324,-0.032 0.128,0.345 0.192,0.789 0.23,1.254 v 13.159 c 0.802,1.299 1.751,1.299 2.795,0 V 34.96 l -0.104,-1.219 7.385,-0.028 0.072,1.247 v 18.07 l 0.162,1.706 h -6.78 c -0.342,-0.225 -0.566,-1.148 -0.709,-2.263 -2.406,3.444 -10.147,4.039 -10.218,-2.751 V 34.995 l -0.157,-1.222 z" id="path5" inkscape:connector-curvature="0" style="fill:#ef3e34"/>
	<path d="m 63.201,49.168 c 4.639,-3.587 9.076,-9.018 11.696,-15.774 4,-0.627 9.036,-4.102 12.766,-6.683 -2.646,4.901 -6.855,10.616 -13.233,17.091 -3.729,3.55 -7.527,6.512 -11.229,8.848 -11.356,7.195 -21.801,8.589 -25.756,4.207 -1.823,-1.948 -2.366,-4.921 -1.656,-8.556 -2.218,1.873 -4.444,3.507 -6.623,4.941 -9.473,6.088 -18.333,7.816 -22.233,3.584 -5.316,-5.851 0.709,-20.714 13.44,-33.179 2.858,-2.818 5.851,-5.256 8.793,-7.319 10.08,-6.992 19.783,-9.178 23.92,-4.696 1.756,1.958 2.258,4.881 1.679,8.394 2.023,-1.734 5.006,-4.002 8.436,-6.268 6.558,-4.276 14.619,-8.491 20.33,-9.016 3.663,-0.347 5.611,0.665 5.713,3.245 V 8.4 c -0.038,1.002 -0.33,2.231 -0.877,3.682 -3.757,10.035 -15.191,17.904 -25.166,22.948 -7.889,4.013 -14.906,6.239 -16.56,6.409 -3.697,14.506 6.858,15.239 16.56,7.729 m 0,-31.685 c -6.518,4.242 -13.03,11.341 -14.147,17.262 4.304,0.465 9.44,-0.902 14.147,-3.132 C 72.239,27.368 79.703,19.847 76.703,15.37 74.59,12.162 68.912,13.758 63.201,17.483 z M 29.167,49.758 c 2.755,-2.259 5.581,-5.363 8.066,-9.061 l 0.742,-1.177 0.442,-0.737 c -5.578,-3.721 -8.236,-8.797 -9.25,-11.52 -0.502,-1.394 -0.607,-2.151 -0.402,-1.878 l 0.402,0.669 c 1.282,2.119 4.167,6.54 11.929,7.622 3.357,-7.702 3.705,-14.737 0.275,-17.265 -2.793,-2.061 -7.459,-0.629 -12.204,3.263 -2.788,2.263 -5.563,5.363 -8.064,9.083 -6.725,10.106 -8.604,21 -4.159,24.273 2.825,2.051 7.489,0.627 12.223,-3.272 z" id="path7" inkscape:connector-curvature="0" style="fill:#4d82c4"/>
</g>
</svg>