<?xml version="1.0" encoding="UTF-8" standalone="no"?>
<!-- Created with Inkscape (http://www.inkscape.org/) -->

<svg
   xmlns:dc="http://purl.org/dc/elements/1.1/"
   xmlns:cc="http://creativecommons.org/ns#"
   xmlns:rdf="http://www.w3.org/1999/02/22-rdf-syntax-ns#"
   xmlns:svg="http://www.w3.org/2000/svg"
   xmlns="http://www.w3.org/2000/svg"
   xmlns:sodipodi="http://sodipodi.sourceforge.net/DTD/sodipodi-0.dtd"
   xmlns:inkscape="http://www.inkscape.org/namespaces/inkscape"
   width="274.18427"
   height="146.19337"
   viewBox="0 0 72.544585 38.680331"
   version="1.1"
   id="svg13257"
   inkscape:version="0.92.0 r15299"
   sodipodi:docname="air norway.svg">
  <defs
     id="defs13251">
    <clipPath
       id="clipPath12361"
       clipPathUnits="userSpaceOnUse">
      <path
         inkscape:connector-curvature="0"
         id="path12359"
         d="M 358.11,700.48 H 595.275 V 826.797 H 358.11 Z" />
    </clipPath>
    <clipPath
       id="clipPath12237"
       clipPathUnits="userSpaceOnUse">
      <path
         inkscape:connector-curvature="0"
         id="path12235"
         d="M 361.207,700.709 H 565.345 V 808.855 H 361.207 Z" />
    </clipPath>
    <clipPath
       id="clipPath12217"
       clipPathUnits="userSpaceOnUse">
      <path
         inkscape:connector-curvature="0"
         id="path12215"
         d="m 358.11,700.48 h 6.658 l 1.871,10.94 -0.69,14.709 -5.395,8.561 -2.444,1.555 z m 43.283,0 h 2.961 l -1.365,0.759 z" />
    </clipPath>
  </defs>
  <sodipodi:namedview
     id="base"
     pagecolor="#ffffff"
     bordercolor="#666666"
     borderopacity="1.0"
     inkscape:pageopacity="0.0"
     inkscape:pageshadow="2"
     inkscape:zoom="2.9465333"
     inkscape:cx="136.09213"
     inkscape:cy="72.09668"
     inkscape:document-units="mm"
     inkscape:current-layer="layer1"
     showgrid="false"
     fit-margin-top="0"
     fit-margin-left="0"
     fit-margin-right="0"
     fit-margin-bottom="0"
     units="px"
     inkscape:window-width="1280"
     inkscape:window-height="744"
     inkscape:window-x="-4"
     inkscape:window-y="-4"
     inkscape:window-maximized="1" />
  <metadata
     id="metadata13254">
    <rdf:RDF>
      <cc:Work
         rdf:about="">
        <dc:format>image/svg+xml</dc:format>
        <dc:type
           rdf:resource="http://purl.org/dc/dcmitype/StillImage" />
        <dc:title></dc:title>
      </cc:Work>
    </rdf:RDF>
  </metadata>
  <g
     inkscape:label="Layer 1"
     inkscape:groupmode="layer"
     id="layer1"
     transform="translate(59.66044,-129.18796)">
    <g
       id="g13984"
       transform="translate(0.26458391,-0.26457114)">
      <path
         d="m -41.425209,160.54198 h -1.236486 l 2.311753,-5.97958 h 1.550811 l 2.25813,5.97958 h -1.281994 l -0.492478,-1.30669 h -2.643364 z m 2.796117,-2.24755 -1.004006,-2.84021 -0.976136,2.84021"
         style="fill:#ef2e31;fill-opacity:1;fill-rule:nonzero;stroke:none;stroke-width:0.35277778"
         id="path12227"
         inkscape:connector-curvature="0" />
      <path
         inkscape:connector-curvature="0"
         id="path12229"
         style="fill:#ef2e31;fill-opacity:1;fill-rule:nonzero;stroke:none;stroke-width:0.35277778"
         d="m -35.911434,160.54184 h 1.218848 v -5.97958 h -1.218848 z" />
      <path
         d="m -32.246679,160.54199 h -1.191683 v -5.97958 h 2.525536 c 0.531283,0.006 1.013178,0.11818 1.446036,0.3369 0.432505,0.21802 0.649111,0.6417 0.649111,1.27035 0,0.38771 -0.119239,0.69392 -0.358422,0.91793 -0.238478,0.22401 -0.534459,0.38418 -0.886178,0.47978 0.4953,0.0773 0.796925,0.28081 0.903817,0.60889 0.107597,0.32914 0.176741,0.68721 0.206375,1.07562 0.006,0.0243 0.01023,0.0505 0.01376,0.0804 0.0028,0.0296 0.0042,0.0568 0.0042,0.0808 0.01764,0.20355 0.0448,0.40182 0.08008,0.59584 0.03634,0.19403 0.101953,0.37183 0.197555,0.53305 h -1.28905 c -0.06033,-0.12559 -0.100188,-0.27552 -0.121002,-0.44909 -0.02081,-0.17356 -0.0374,-0.3503 -0.04939,-0.53022 0,-0.006 -0.0028,-0.0145 -0.0092,-0.0272 -0.02364,-0.36513 -0.08502,-0.69921 -0.183798,-1.00189 -0.09807,-0.30198 -0.365125,-0.45368 -0.800805,-0.45368 h -1.137003 z m 1.038225,-3.37573 c 0.280106,0.007 0.535164,-0.0508 0.764822,-0.17039 0.229659,-0.1203 0.344311,-0.34784 0.344311,-0.68333 0,-0.34149 -0.105833,-0.56903 -0.3175,-0.68333 -0.211666,-0.11395 -0.460727,-0.17075 -0.747183,-0.17075 h -1.082675 v 1.7078"
         style="fill:#ef2e31;fill-opacity:1;fill-rule:nonzero;stroke:none;stroke-width:0.35277778"
         id="path12241"
         inkscape:connector-curvature="0" />
      <path
         d="m -26.684644,154.5623 h 1.755422 l 1.630539,3.28895 c 0.07726,0.16157 0.150989,0.32526 0.219428,0.49283 0.06844,0.16686 0.135466,0.33478 0.201083,0.50165 0.01835,0.0416 0.03422,0.0825 0.04974,0.121 0.01446,0.0388 0.0314,0.0797 0.04868,0.121 0.01835,0.0416 0.03528,0.084 0.04974,0.12559 0.01517,0.0416 0.0314,0.0833 0.04974,0.12524 -0.01834,-0.19756 -0.03457,-0.39441 -0.04974,-0.59126 -0.01446,-0.19755 -0.02258,-0.39723 -0.02258,-0.60078 v -3.58422 h 1.236839 v 5.97958 h -1.755422 l -1.782939,-3.58492 c -0.08326,-0.15523 -0.16122,-0.31574 -0.232481,-0.47978 -0.07161,-0.16404 -0.14358,-0.32667 -0.215194,-0.4886 -0.01835,-0.0416 -0.03563,-0.0836 -0.05398,-0.12524 -0.01764,-0.0416 -0.03563,-0.0832 -0.05327,-0.12558 0,0.0356 0.0014,0.0723 0.0042,0.10795 0.0032,0.0356 0.0046,0.0716 0.0046,0.10724 0.0056,0.0656 0.01023,0.13264 0.01305,0.20179 0.0028,0.0688 0.0042,0.13864 0.0042,0.21025 v 4.17689 h -1.101725"
         style="fill:#173a79;fill-opacity:1;fill-rule:nonzero;stroke:none;stroke-width:0.35277778"
         id="path12245"
         inkscape:connector-curvature="0" />
      <path
         d="m -20.475296,157.64766 c 0,-0.93204 0.238478,-1.69686 0.716139,-2.29411 0.476955,-0.59726 1.211086,-0.89641 2.202391,-0.89641 0.966612,0 1.68522,0.29492 2.154062,0.88335 0.468136,0.58844 0.703086,1.34232 0.703086,2.26272 0,0.87806 -0.240948,1.60655 -0.721431,2.18616 -0.480483,0.57997 -1.186039,0.86925 -2.117725,0.86925 -0.919339,0 -1.6383,-0.2734 -2.157589,-0.8195 -0.519994,-0.54716 -0.778933,-1.27389 -0.778933,-2.18264 z m 1.290108,-0.0268 c 0,0.54963 0.116064,1.04563 0.348545,1.48731 0.233539,0.44274 0.662164,0.66393 1.289402,0.66393 0.578203,0 0.974725,-0.20356 1.18992,-0.6096 0.214489,-0.4064 0.33408,-0.85126 0.358069,-1.33527 0.006,-0.0416 0.0088,-0.084 0.0088,-0.12559 v -0.12558 c 0,-0.0536 -0.0014,-0.10936 -0.0046,-0.16546 -0.0028,-0.0568 -0.0042,-0.115 -0.0042,-0.17497 -0.02999,-0.47237 -0.1524,-0.90347 -0.366889,-1.29505 -0.214841,-0.39158 -0.608894,-0.58702 -1.1811,-0.58702 -0.597605,0 -1.011413,0.20919 -1.244247,0.62724 -0.23248,0.41839 -0.360891,0.87876 -0.38488,1.38041 -0.006,0.0416 -0.0088,0.0854 -0.0088,0.12983 v 0.13899"
         style="fill:#173a79;fill-opacity:1;fill-rule:nonzero;stroke:none;stroke-width:0.35277778"
         id="path12249"
         inkscape:connector-curvature="0" />
      <path
         d="m -12.472533,160.54199 h -1.192389 v -5.97958 h 2.525183 c 0.531637,0.006 1.013884,0.11818 1.4460365,0.3369 0.4325055,0.21802 0.6491111,0.6417 0.6491111,1.27035 0,0.38771 -0.1188861,0.69392 -0.3580694,0.91793 -0.238125,0.22401 -0.5337528,0.38418 -0.8861782,0.47978 0.4956532,0.0773 0.7972782,0.28081 0.9045226,0.60889 0.1068917,0.32914 0.1763889,0.68721 0.206375,1.07562 0.00529,0.0243 0.00917,0.0505 0.013053,0.0804 0.00317,0.0296 0.00459,0.0568 0.00459,0.0808 0.017286,0.20355 0.04445,0.40182 0.080081,0.59584 0.035631,0.19403 0.1019528,0.37183 0.1975556,0.53305 h -1.2890492 c -0.05997,-0.12559 -0.100895,-0.27552 -0.121003,-0.44909 -0.02081,-0.17356 -0.0374,-0.3503 -0.04974,-0.53022 0,-0.006 -0.0021,-0.0145 -0.0088,-0.0272 -0.02328,-0.36513 -0.08467,-0.69921 -0.183092,-1.00189 -0.09913,-0.30198 -0.36583,-0.45368 -0.801158,-0.45368 h -1.137003 z m 1.037519,-3.37573 c 0.280812,0.007 0.535517,-0.0508 0.765175,-0.17039 0.229659,-0.1203 0.344312,-0.34784 0.344312,-0.68333 0,-0.34149 -0.105834,-0.56903 -0.3175,-0.68333 -0.21202,-0.11395 -0.460728,-0.17075 -0.746831,-0.17075 h -1.082675 v 1.7078"
         style="fill:#173a79;fill-opacity:1;fill-rule:nonzero;stroke:none;stroke-width:0.35277778"
         id="path12253"
         inkscape:connector-curvature="0" />
      <path
         d="m -1.1942274,160.54199 h -1.2724694 l -1.4608528,-4.49792 -1.4425083,4.49792 h -1.3169194 l -1.7924638,-5.97958 h 1.2996333 l 1.2184944,4.23827 1.35255,-4.23827 h 1.4435666 l 1.3881805,4.23827 1.15675833,-4.23827 h 1.16451942"
         style="fill:#173a79;fill-opacity:1;fill-rule:nonzero;stroke:none;stroke-width:0.35277778"
         id="path12257"
         inkscape:connector-curvature="0" />
      <path
         d="M 1.7811708,160.54199 H 0.54433194 l 2.31139996,-5.97958 h 1.5504583 l 2.2584833,5.97958 H 5.3833846 L 4.8898485,159.2353 H 2.2471902 Z m 2.7957638,-2.24755 -1.0043583,-2.84021 -0.9764889,2.84021"
         style="fill:#173a79;fill-opacity:1;fill-rule:nonzero;stroke:none;stroke-width:0.35277778"
         id="path12261"
         inkscape:connector-curvature="0" />
      <path
         d="M 10.123307,160.54199 H 8.8875265 v -2.286 l -2.2228528,-3.69358 h 1.4333361 l 1.4880167,2.52659 1.4788445,-2.52659 h 1.290108 l -2.231672,3.69358"
         style="fill:#173a79;fill-opacity:1;fill-rule:nonzero;stroke:none;stroke-width:0.35277778"
         id="path12265"
         inkscape:connector-curvature="0" />
      <path
         d="m -40.251277,166.01781 c 0,0.32879 -0.100189,0.58984 -0.300214,0.78246 -0.200378,0.19332 -0.464608,0.28928 -0.793044,0.28928 -0.319617,0 -0.581025,-0.0952 -0.784225,-0.28646 -0.2032,-0.19156 -0.304448,-0.44979 -0.304448,-0.77576 0,-0.32314 0.09913,-0.58913 0.297745,-0.8008 0.198614,-0.2099 0.460728,-0.31574 0.786342,-0.31574 0.337608,0 0.605013,0.10055 0.802216,0.30269 0.19685,0.20179 0.295628,0.47166 0.295628,0.80962 z m -0.600428,-0.009 c 0,-0.0212 -7.05e-4,-0.0437 -0.0025,-0.0691 -0.0014,-0.0254 -0.0035,-0.0519 -0.0067,-0.0787 -0.01164,-0.14288 -0.05362,-0.27517 -0.125236,-0.39476 -0.07161,-0.11959 -0.192617,-0.17921 -0.363008,-0.17921 -0.173214,0 -0.293512,0.0596 -0.360539,0.17921 -0.06738,0.11959 -0.108303,0.25188 -0.123473,0.39476 0,0.0268 -7.05e-4,0.0522 -0.0021,0.0765 -0.0014,0.024 -0.0021,0.048 -0.0021,0.0713 0,0.0272 7.06e-4,0.0547 0.0021,0.0833 0.0014,0.0286 0.0053,0.0575 0.01129,0.0875 0.01799,0.13406 0.06421,0.25683 0.138641,0.3676 0.07479,0.11077 0.188384,0.16616 0.340784,0.16616 0.18803,0 0.315736,-0.0656 0.383116,-0.19756 0.06703,-0.13123 0.103717,-0.27481 0.109714,-0.43039 v -0.0356 -0.0356"
         style="fill:#173a79;fill-opacity:1;fill-rule:nonzero;stroke:none;stroke-width:0.35277778"
         id="path12269"
         inkscape:connector-curvature="0" />
      <path
         d="m -39.012181,166.81636 v 0.99025 h -0.582789 v -2.83739 h 0.582789 v 0.2734 c 0.08079,-0.1136 0.173567,-0.19685 0.278342,-0.25083 0.104422,-0.054 0.228952,-0.0808 0.37218,-0.0808 0.319617,0 0.5461,0.115 0.678745,0.34466 0.13335,0.23037 0.200025,0.48437 0.200025,0.762 0,0.0212 -7.06e-4,0.043 -0.0021,0.0656 -0.0021,0.0229 -0.0042,0.0455 -0.0067,0.0695 -0.02434,0.23636 -0.110772,0.4512 -0.26035,0.64523 -0.149578,0.19473 -0.354541,0.29174 -0.613833,0.29174 -0.132292,0 -0.250472,-0.0215 -0.354542,-0.0649 -0.104775,-0.0437 -0.201789,-0.11077 -0.291747,-0.20355 z m 0.964494,-0.80222 c 0,-0.03 -7.05e-4,-0.0621 -0.0018,-0.097 -0.0014,-0.0342 -0.0053,-0.0677 -0.01129,-0.10054 -0.01835,-0.13124 -0.06032,-0.25083 -0.125942,-0.35878 -0.06562,-0.10795 -0.174625,-0.16122 -0.327731,-0.16122 -0.185208,0 -0.316088,0.0649 -0.392288,0.19474 -0.0762,0.12982 -0.119239,0.27269 -0.128059,0.42792 -0.0032,0.0183 -0.0046,0.0353 -0.0046,0.0519 v 0.0466 c 0,0.03 3.53e-4,0.0614 0.0025,0.0928 0.0014,0.0314 0.0049,0.0635 0.01094,0.0963 0.01482,0.12912 0.05715,0.2473 0.125589,0.35666 0.06914,0.10865 0.181327,0.16333 0.336902,0.16333 0.158398,0 0.277636,-0.0579 0.356659,-0.17497 0.07937,-0.11607 0.129116,-0.24377 0.14993,-0.38065 0.0035,-0.0272 0.006,-0.0533 0.0074,-0.079 0.0011,-0.0254 0.0018,-0.0494 0.0018,-0.0744"
         style="fill:#173a79;fill-opacity:1;fill-rule:nonzero;stroke:none;stroke-width:0.35277778"
         id="path12273"
         inkscape:connector-curvature="0" />
      <path
         d="m -36.239277,166.54726 c 0.06738,0.12841 0.195086,0.19332 0.383117,0.19332 0.125589,0 0.222602,-0.036 0.291394,-0.10513 0.06844,-0.0709 0.115006,-0.16263 0.138995,-0.27622 l 0.541866,-0.004 c -0.0088,0.23283 -0.09913,0.40781 -0.270933,0.52599 -0.171803,0.11818 -0.360539,0.18591 -0.566914,0.20391 -0.01799,0 -0.03598,7e-4 -0.05362,0.002 -0.01799,0.001 -0.03563,0.002 -0.05362,0.002 -0.343606,0 -0.610306,-0.091 -0.8001,-0.2734 -0.189442,-0.18239 -0.284339,-0.44873 -0.284339,-0.79869 0,-0.31926 0.09172,-0.5842 0.275519,-0.7934 0.183445,-0.20849 0.439914,-0.31362 0.767997,-0.31362 0.391231,0 0.660753,0.11078 0.80892,0.33267 0.147461,0.22155 0.221544,0.50977 0.221544,0.86396 h -1.500364 c 0,0.1651 0.03351,0.3115 0.100542,0.43991 m 0.709789,-1.137 c -0.06244,-0.10548 -0.170392,-0.15875 -0.322439,-0.15875 -0.155575,0 -0.268817,0.0508 -0.340783,0.1531 -0.07126,0.10196 -0.114653,0.22155 -0.129823,0.35807 h 0.886884 c 0,-0.12841 -0.0314,-0.24588 -0.09384,-0.35242"
         style="fill:#173a79;fill-opacity:1;fill-rule:nonzero;stroke:none;stroke-width:0.35277778"
         id="path12277"
         inkscape:connector-curvature="0" />
      <path
         d="m -34.185334,164.96918 h 0.577497 v 0.34925 c 0.08149,-0.15522 0.176742,-0.25647 0.287514,-0.30409 0.110067,-0.048 0.251883,-0.0723 0.42545,-0.0723 v 0.46672 c -0.0088,0.003 -0.01764,0.004 -0.02469,0.002 -0.0078,-0.001 -0.01411,-0.002 -0.02011,-0.002 -0.0064,0 -0.0134,-7e-4 -0.02046,-0.002 -0.0074,-0.001 -0.01587,-0.002 -0.02505,-0.002 -0.214136,0 -0.372533,0.0589 -0.472369,0.17709 -0.09948,0.11818 -0.150284,0.28293 -0.150284,0.4953 v 0.95462 h -0.577497"
         style="fill:#173a79;fill-opacity:1;fill-rule:nonzero;stroke:none;stroke-width:0.35277778"
         id="path12281"
         inkscape:connector-curvature="0" />
      <path
         d="m -31.280103,167.0023 c -0.109008,0.0582 -0.238125,0.0875 -0.387703,0.0875 -0.193322,0 -0.366889,-0.0512 -0.518936,-0.1524 -0.153105,-0.10125 -0.2286,-0.25682 -0.2286,-0.46602 0,-0.11289 0.02611,-0.22154 0.07832,-0.32456 0.05221,-0.10265 0.127705,-0.18591 0.226483,-0.2487 0.09525,-0.0663 0.201789,-0.10937 0.319617,-0.13053 0.11818,-0.0201 0.238125,-0.0335 0.360539,-0.0399 0.03281,0 0.06597,-7e-4 0.09878,-0.002 0.03281,-10e-4 0.06562,-0.002 0.09842,-0.002 h 0.02011 0.02434 0.04551 c 0.01482,0 0.02963,-0.001 0.0448,-0.004 h 0.03986 0.04516 c 0,-0.13793 -0.02152,-0.2547 -0.06526,-0.35066 -0.04304,-0.0956 -0.146755,-0.14393 -0.311503,-0.14393 -0.119239,0 -0.210608,0.025 -0.27305,0.0744 -0.06279,0.049 -0.100189,0.13511 -0.112183,0.25752 l -0.546806,-0.005 c 0.01235,-0.26246 0.112537,-0.43533 0.300567,-0.51682 0.187678,-0.0825 0.394406,-0.12347 0.61842,-0.12347 0.244827,0 0.462138,0.0511 0.65158,0.15275 0.189795,0.10125 0.284692,0.29281 0.284692,0.57362 v 1.39453 h -0.50165 l -0.01341,-0.29633 c -0.08996,0.12029 -0.189089,0.20884 -0.298097,0.26705 m -0.01341,-0.96026 c -0.09419,0.003 -0.187325,0.0145 -0.280105,0.0356 -0.08326,0.0173 -0.149578,0.0582 -0.198967,0.121 -0.04939,0.0628 -0.07373,0.13723 -0.07373,0.22296 0,0.1023 0.0321,0.17886 0.09631,0.2293 0.06385,0.0501 0.144992,0.0759 0.243417,0.0759 0.227189,0 0.366183,-0.0709 0.416983,-0.21167 0.0508,-0.14146 0.0762,-0.30197 0.0762,-0.4826 -0.09278,0.003 -0.186267,0.006 -0.280106,0.01"
         style="fill:#173a79;fill-opacity:1;fill-rule:nonzero;stroke:none;stroke-width:0.35277778"
         id="path12285"
         inkscape:connector-curvature="0" />
      <path
         d="m -28.966587,166.35471 c 0,0.10125 0.02222,0.18521 0.06703,0.25082 0.0448,0.0656 0.121355,0.0984 0.229305,0.0984 0.01729,0 0.03634,-7.1e-4 0.05609,-0.002 0.01976,-7e-4 0.03951,-0.003 0.06032,-0.007 0.02117,-0.003 0.04092,-0.006 0.06068,-0.008 0.01905,-0.003 0.0388,-0.006 0.05609,-0.009 v 0.35349 c -0.07514,0.0148 -0.148872,0.0279 -0.22225,0.0381 -0.07232,0.0102 -0.148166,0.0173 -0.22613,0.0201 -0.230011,0 -0.391583,-0.055 -0.485422,-0.16616 -0.09455,-0.11007 -0.141464,-0.27905 -0.141464,-0.50589 v -1.07209 h -0.461786 v -0.37606 h 0.461786 v -0.32244 l 0.545747,-0.28681 v 0.60925 h 0.523875 v 0.37606 h -0.523875"
         style="fill:#173a79;fill-opacity:1;fill-rule:nonzero;stroke:none;stroke-width:0.35277778"
         id="path12289"
         inkscape:connector-curvature="0" />
      <path
         d="m -27.305215,166.54726 c 0.06703,0.12841 0.194733,0.19332 0.382764,0.19332 0.125589,0 0.222603,-0.036 0.291747,-0.10513 0.06844,-0.0709 0.114653,-0.16263 0.138642,-0.27622 l 0.542572,-0.004 c -0.0095,0.23283 -0.09984,0.40781 -0.271286,0.52599 -0.172156,0.11818 -0.360892,0.18591 -0.566561,0.20391 -0.01835,0 -0.03669,7e-4 -0.05397,0.002 -0.01835,0.001 -0.03669,0.002 -0.05398,0.002 -0.343606,0 -0.6096,-0.091 -0.8001,-0.2734 -0.189442,-0.18239 -0.284339,-0.44873 -0.284339,-0.79869 0,-0.31926 0.09172,-0.5842 0.275519,-0.7934 0.183798,-0.20849 0.439914,-0.31362 0.767998,-0.31362 0.391583,0 0.661458,0.11078 0.808566,0.33267 0.148167,0.22155 0.221897,0.50977 0.221897,0.86396 h -1.500011 c 0,0.1651 0.03351,0.3115 0.100542,0.43991 m 0.709436,-1.137 c -0.06279,-0.10548 -0.170392,-0.15875 -0.322792,-0.15875 -0.155575,0 -0.268463,0.0508 -0.340783,0.1531 -0.07126,0.10196 -0.1143,0.22155 -0.129822,0.35807 h 0.887589 c 0,-0.12841 -0.0314,-0.24588 -0.09419,-0.35242"
         style="fill:#173a79;fill-opacity:1;fill-rule:nonzero;stroke:none;stroke-width:0.35277778"
         id="path12293"
         inkscape:connector-curvature="0" />
      <path
         d="m -23.250705,167.03141 h -0.568678 v -0.2734 c -0.07161,0.0984 -0.157691,0.1785 -0.257528,0.23989 -0.09984,0.061 -0.213077,0.0917 -0.338313,0.0917 -0.316442,0 -0.549981,-0.11571 -0.70097,-0.34678 -0.150283,-0.23213 -0.22613,-0.49036 -0.22613,-0.774 0,-0.26599 0.07232,-0.5087 0.217663,-0.72848 0.144287,-0.21943 0.361598,-0.3295 0.651581,-0.3295 0.14605,0 0.272344,0.0268 0.378531,0.0801 0.105833,0.0547 0.197908,0.14076 0.275166,0.26035 v -1.20967 h 0.568678 z M -24.77788,166.014 c 0,0.0236 0.0011,0.0469 0.0025,0.0695 0.0014,0.0226 0.0021,0.0437 0.0021,0.0649 0.01517,0.14358 0.05821,0.27481 0.130528,0.3944 0.07126,0.11959 0.189442,0.17957 0.352778,0.17957 0.159102,0 0.271991,-0.0547 0.340783,-0.16581 0.06844,-0.11077 0.111478,-0.23318 0.129822,-0.3683 0.0056,-0.0356 0.0095,-0.0705 0.01094,-0.10477 0.0014,-0.0342 0.0021,-0.0677 0.0021,-0.10055 0,-0.03 -0.0014,-0.0614 -0.0046,-0.0949 -0.0028,-0.0328 -0.0071,-0.0656 -0.01305,-0.0984 -0.02117,-0.12841 -0.06914,-0.24588 -0.145697,-0.35242 -0.07585,-0.10548 -0.187325,-0.15875 -0.333375,-0.15875 -0.16122,0 -0.274108,0.0554 -0.339725,0.16545 -0.06632,0.11077 -0.106539,0.23319 -0.121003,0.3683 -0.0067,0.0356 -0.01023,0.0709 -0.01164,0.10513 -0.0014,0.0349 -0.0025,0.0684 -0.0025,0.10054"
         style="fill:#173a79;fill-opacity:1;fill-rule:nonzero;stroke:none;stroke-width:0.35277778"
         id="path12297"
         inkscape:connector-curvature="0" />
      <path
         d="m -20.495828,165.2025 c 0.07549,-0.10195 0.159103,-0.17568 0.254,-0.22225 0.09384,-0.0459 0.206375,-0.0695 0.337608,-0.0695 0.320323,0 0.554214,0.11889 0.702734,0.35666 0.14993,0.23707 0.225072,0.49812 0.225072,0.78176 0,0.26317 -0.06668,0.50235 -0.200025,0.71755 -0.132645,0.21519 -0.349956,0.32314 -0.650875,0.32314 -0.146756,0 -0.277636,-0.0307 -0.392642,-0.0921 -0.114653,-0.061 -0.203553,-0.15875 -0.265994,-0.29387 l -0.02293,0.32738 h -0.550333 v -2.98979 h 0.563386 z m 0.934156,0.68862 c -0.0011,-0.0197 -0.0018,-0.0402 -0.0018,-0.0614 -0.01552,-0.14005 -0.05927,-0.26917 -0.132292,-0.38594 -0.07338,-0.11571 -0.1905,-0.17427 -0.351367,-0.17427 -0.152752,0 -0.26035,0.0526 -0.324202,0.1591 -0.06456,0.10583 -0.106187,0.22401 -0.123825,0.35207 -0.0025,0.0328 -0.0049,0.0656 -0.0064,0.0984 -0.0014,0.0328 -0.0021,0.0642 -0.0021,0.0942 v 0.0561 c 0,0.0198 0.0014,0.0395 0.0046,0.0607 0.0085,0.15522 0.04727,0.2981 0.115711,0.42792 0.06915,0.13053 0.195439,0.19544 0.380647,0.19544 0.149225,0 0.254353,-0.0526 0.315736,-0.15664 0.06138,-0.10512 0.09913,-0.22048 0.1143,-0.34572 0.006,-0.0356 0.0099,-0.0699 0.01094,-0.10266 0.0014,-0.0332 0.0021,-0.066 0.0021,-0.0995 v -0.0617 c 0,-0.0191 -7.05e-4,-0.0374 -0.0021,-0.0561"
         style="fill:#173a79;fill-opacity:1;fill-rule:nonzero;stroke:none;stroke-width:0.35277778"
         id="path12301"
         inkscape:connector-curvature="0" />
      <path
         d="m -16.903245,166.38392 c -0.189794,0.47025 -0.375708,0.94439 -0.558094,1.42275 h -0.5461 l 0.340783,-0.7754 -0.909814,-2.06199 h 0.626533 l 0.560211,1.39347 0.511175,-1.39347 h 0.551392 c -0.194028,0.47167 -0.386997,0.94368 -0.576086,1.41464"
         style="fill:#173a79;fill-opacity:1;fill-rule:nonzero;stroke:none;stroke-width:0.35277778"
         id="path12305"
         inkscape:connector-curvature="0" />
      <path
         d="m -14.3461,164.04158 h 0.878064 l 0.814564,1.6443 c 0.03951,0.0811 0.07585,0.16263 0.110066,0.24659 0.03422,0.084 0.06773,0.16686 0.100895,0.25082 0.0085,0.0205 0.01658,0.0409 0.02434,0.0607 0.0078,0.0198 0.01552,0.0392 0.02505,0.0603 0.0088,0.0212 0.01693,0.0416 0.02469,0.0628 0.0074,0.0212 0.01552,0.0416 0.02434,0.0628 -0.0088,-0.0991 -0.01693,-0.19685 -0.02434,-0.29634 -0.0078,-0.0984 -0.01164,-0.19826 -0.01164,-0.30021 v -1.79176 h 0.618419 v 2.98979 h -0.877711 l -0.89147,-1.79246 c -0.04163,-0.078 -0.08008,-0.15734 -0.116769,-0.23989 -0.03528,-0.0822 -0.07126,-0.16404 -0.107244,-0.24412 -0.0085,-0.0212 -0.01799,-0.0423 -0.02681,-0.0628 -0.0088,-0.0212 -0.01729,-0.0423 -0.02681,-0.0628 0,0.0183 7.06e-4,0.0356 0.0021,0.054 0.0014,0.0176 0.0021,0.0356 0.0021,0.054 0.0035,0.0328 0.006,0.0656 0.0074,0.10054 0.0014,0.0342 0.0021,0.0695 0.0021,0.10513 v 2.08844 H -14.3461"
         style="fill:#173a79;fill-opacity:1;fill-rule:nonzero;stroke:none;stroke-width:0.35277778"
         id="path12309"
         inkscape:connector-curvature="0" />
      <path
         d="m -8.879597,166.01781 c 0,0.32879 -0.1008944,0.58984 -0.3005667,0.78246 -0.1996722,0.19332 -0.4646083,0.28928 -0.7926916,0.28928 -0.3199697,0 -0.5813777,-0.0952 -0.7842247,-0.28646 -0.202848,-0.19156 -0.304448,-0.44979 -0.304448,-0.77576 0,-0.32314 0.09913,-0.58913 0.297392,-0.8008 0.19932,-0.2099 0.461081,-0.31574 0.785989,-0.31574 0.3379611,0 0.6057195,0.10055 0.8025695,0.30269 0.1975555,0.20179 0.2959805,0.47166 0.2959805,0.80962 z m -0.6011333,-0.009 c 0,-0.0212 -7.056e-4,-0.0437 -0.00176,-0.0691 -0.00176,-0.0254 -0.00388,-0.0519 -0.0067,-0.0787 -0.011642,-0.14288 -0.054328,-0.27517 -0.1255889,-0.39476 -0.071261,-0.11959 -0.1926166,-0.17921 -0.3633611,-0.17921 -0.1725077,0 -0.2928057,0.0596 -0.3598327,0.17921 -0.06738,0.11959 -0.108656,0.25188 -0.123473,0.39476 0,0.0268 -3.52e-4,0.0522 -0.0021,0.0765 -0.0014,0.024 -0.0021,0.048 -0.0021,0.0713 0,0.0272 7.06e-4,0.0547 0.0021,0.0833 0.0018,0.0286 0.0049,0.0575 0.01094,0.0875 0.01834,0.13406 0.06421,0.25683 0.139347,0.3676 0.07408,0.11077 0.188031,0.16616 0.3404304,0.16616 0.1880305,0 0.3160889,-0.0656 0.3827639,-0.19756 0.067028,-0.13123 0.1037166,-0.27481 0.1093611,-0.43039 v -0.0356 -0.0356"
         style="fill:#173a79;fill-opacity:1;fill-rule:nonzero;stroke:none;stroke-width:0.35277778"
         id="path12313"
         inkscape:connector-curvature="0" />
      <path
         d="m -8.2262526,164.96918 h 0.5774972 v 0.34925 c 0.080786,-0.15522 0.1763889,-0.25647 0.2864556,-0.30409 0.1107722,-0.048 0.2532944,-0.0723 0.4268611,-0.0723 v 0.46672 c -0.00988,0.003 -0.017639,0.004 -0.025753,0.002 -0.00635,-0.001 -0.013758,-0.002 -0.019403,-0.002 -0.006,0 -0.013053,-7e-4 -0.020461,-0.002 -0.00706,-0.001 -0.015522,-0.002 -0.024694,-0.002 -0.2155473,0 -0.3728862,0.0589 -0.4720167,0.17709 -0.1008944,0.11818 -0.1509889,0.28293 -0.1509889,0.4953 v 0.95462 h -0.5774972"
         style="fill:#173a79;fill-opacity:1;fill-rule:nonzero;stroke:none;stroke-width:0.35277778"
         id="path12317"
         inkscape:connector-curvature="0" />
      <path
         d="m -5.6148504,166.35471 c 0,0.10125 0.021872,0.18521 0.067028,0.25082 0.04445,0.0656 0.1210028,0.0984 0.2289527,0.0984 0.017639,0 0.036689,-7.1e-4 0.055386,-0.002 0.020461,-7e-4 0.040217,-0.003 0.061031,-0.007 0.02152,-0.003 0.041275,-0.006 0.061031,-0.008 0.018697,-0.003 0.038453,-0.006 0.056092,-0.009 v 0.35349 c -0.075142,0.0148 -0.149225,0.0279 -0.2218972,0.0381 -0.072672,0.0102 -0.1485194,0.0173 -0.2264833,0.0201 -0.2296583,0 -0.3919361,-0.055 -0.485775,-0.16616 -0.094192,-0.11007 -0.1414639,-0.27905 -0.1414639,-0.50589 v -1.07209 h -0.4617861 v -0.37606 h 0.4617861 v -0.32244 l 0.5461,-0.28681 v 0.60925 h 0.5235222 v 0.37606 h -0.5235222"
         style="fill:#173a79;fill-opacity:1;fill-rule:nonzero;stroke:none;stroke-width:0.35277778"
         id="path12321"
         inkscape:connector-curvature="0" />
      <path
         d="m -3.9720701,165.2798 c 0.077964,-0.13476 0.1749778,-0.22895 0.2921,-0.28293 0.1164167,-0.0533 0.2518833,-0.0801 0.4071055,-0.0801 0.2599973,0 0.4494389,0.0815 0.5690306,0.24412 0.1195916,0.16263 0.1785055,0.36336 0.1785055,0.60255 v 1.26788 h -0.5640916 v -1.22273 c 0,-0.13511 -0.025753,-0.2547 -0.075847,-0.35877 -0.051153,-0.10442 -0.1598084,-0.15699 -0.3266723,-0.15699 -0.1912055,0 -0.3182055,0.0656 -0.3806472,0.19685 -0.062794,0.13229 -0.095603,0.27658 -0.099483,0.43462 v 0.025 0.0247 1.05727 h -0.5679722 v -2.98979 h 0.5679722"
         style="fill:#173a79;fill-opacity:1;fill-rule:nonzero;stroke:none;stroke-width:0.35277778"
         id="path12325"
         inkscape:connector-curvature="0" />
      <path
         d="M -0.29513801,164.04158 H 1.6405536 v 0.45226 H 0.29117864 v 0.77294 H 1.5548286 v 0.45261 H 0.29117864 v 1.31198 h -0.58631665"
         style="fill:#173a79;fill-opacity:1;fill-rule:nonzero;stroke:none;stroke-width:0.35277778"
         id="path12329"
         inkscape:connector-curvature="0" />
      <path
         inkscape:connector-curvature="0"
         id="path12331"
         style="fill:#173a79;fill-opacity:1;fill-rule:nonzero;stroke:none;stroke-width:0.35277778"
         d="m 2.2580558,167.03155 h 0.5739695 v -2.98979 H 2.2580558 Z" />
      <path
         d="m 4.9969519,166.38392 c -0.1894417,0.47025 -0.3757083,0.94439 -0.5577417,1.42275 H 3.8920519 l 0.3407834,-0.7754 -0.9098139,-2.06199 h 0.6272389 l 0.5602111,1.39347 0.5104694,-1.39347 h 0.5513916 c -0.1940277,0.47167 -0.3855861,0.94368 -0.5753805,1.41464"
         style="fill:#173a79;fill-opacity:1;fill-rule:nonzero;stroke:none;stroke-width:0.35277778"
         id="path12335"
         inkscape:connector-curvature="0" />
      <path
         inkscape:connector-curvature="0"
         id="path12337"
         style="fill:#173a79;fill-opacity:1;fill-rule:nonzero;stroke:none;stroke-width:0.35277778"
         d="M 6.6335585,164.49896 H 6.0733474 v -0.4572 h 0.5602111 z m 0,2.53259 H 6.0733474 v -2.06234 h 0.5602111" />
      <path
         d="m 7.3786604,164.96918 h 0.5782028 v 0.32738 c 0.086783,-0.13476 0.1901472,-0.23178 0.3115027,-0.29175 0.1210028,-0.0596 0.2631723,-0.0896 0.4279195,-0.0896 0.2240139,0 0.3986389,0.0628 0.5242277,0.18803 0.1255889,0.12558 0.1880306,0.29986 0.1880306,0.5207 v 1.40758 H 8.8398659 v -1.23261 c 0,-0.14287 -0.028222,-0.26246 -0.085372,-0.35771 -0.056797,-0.0956 -0.168275,-0.14394 -0.3358444,-0.14394 -0.155575,0 -0.2716389,0.0554 -0.3481917,0.16581 -0.075847,0.11077 -0.1135944,0.23742 -0.1135944,0.38135 v 1.1871 h -0.578203"
         style="fill:#173a79;fill-opacity:1;fill-rule:nonzero;stroke:none;stroke-width:0.35277778"
         id="path12341"
         inkscape:connector-curvature="0" />
      <path
         d="m 12.123804,166.72153 v 0.0759 0.10124 c 0,0.0314 -0.0014,0.0635 -0.0039,0.0963 -0.0067,0.09 -0.02046,0.17816 -0.04057,0.26635 -0.02046,0.0882 -0.05997,0.16969 -0.116769,0.24412 -0.08396,0.11077 -0.189795,0.19262 -0.317853,0.24659 -0.128411,0.054 -0.262114,0.0896 -0.398992,0.10725 -0.02117,0.004 -0.04233,0.006 -0.06491,0.007 -0.02258,0.001 -0.04374,0.002 -0.06456,0.002 h -0.05221 -0.05115 c -0.214842,-0.009 -0.412397,-0.0564 -0.591256,-0.14358 -0.179211,-0.0864 -0.269169,-0.26247 -0.269169,-0.52881 h 0.555978 c 0.01446,0.10548 0.05221,0.18415 0.1143,0.23812 0.06103,0.054 0.142169,0.0801 0.243769,0.0801 0.230364,0 0.371828,-0.0759 0.42545,-0.22825 0.05433,-0.1524 0.08114,-0.31926 0.08114,-0.50165 V 166.623 c -0.07197,0.12523 -0.162278,0.21942 -0.270933,0.28222 -0.109714,0.0628 -0.235656,0.0942 -0.378884,0.0942 -0.307622,0 -0.52705,-0.10725 -0.659341,-0.32032 -0.130881,-0.21379 -0.195792,-0.45932 -0.195792,-0.73801 0,-0.26529 0.07549,-0.50307 0.227894,-0.71226 0.1524,-0.20885 0.373592,-0.31362 0.663223,-0.31362 0.140052,0 0.259291,0.0275 0.355952,0.0829 0.09737,0.0557 0.183445,0.14146 0.257881,0.25753 v -0.28646 h 0.550686 z m -1.491897,-0.74612 c 0,0.16721 0.02963,0.31679 0.09031,0.44873 0.05962,0.13264 0.185208,0.19897 0.375708,0.19897 0.16757,0 0.284692,-0.0589 0.354189,-0.17639 0.06844,-0.11748 0.110067,-0.24589 0.125589,-0.38594 0,-0.0205 7.06e-4,-0.043 0.0021,-0.0649 0.0014,-0.0226 0.0021,-0.0437 0.0021,-0.0649 v -0.0445 c 0,-0.0145 -0.0014,-0.03 -0.0042,-0.0444 -0.0092,-0.13724 -0.04692,-0.26318 -0.114653,-0.37995 -0.06703,-0.115 -0.180622,-0.17356 -0.3429,-0.17356 -0.176036,0 -0.298097,0.0614 -0.367241,0.18521 -0.06879,0.12311 -0.107245,0.25964 -0.117123,0.40851 -0.0025,0.018 -0.0039,0.0349 -0.0039,0.0508 v 0.0476"
         style="fill:#173a79;fill-opacity:1;fill-rule:nonzero;stroke:none;stroke-width:0.35277778"
         id="path12345"
         inkscape:connector-curvature="0" />
      <path
         d="M -21.690263,129.71712 H -59.66044 l 13.638036,17.0307 h 37.9705296"
         style="fill:#ef2e31;fill-opacity:1;fill-rule:nonzero;stroke:none;stroke-width:0.35277778"
         id="path12349"
         inkscape:connector-curvature="0" />
      <path
         d="M -3.7910246,133.97673 H -14.841788 l 13.63733,17.0307 H 9.8470112"
         style="fill:#173a79;fill-opacity:1;fill-rule:nonzero;stroke:none;stroke-width:0.35277778"
         id="path12353"
         inkscape:connector-curvature="0" />
    </g>
  </g>
</svg>
