<svg width="134" height="42" viewBox="0 0 134 42" fill="none" xmlns="http://www.w3.org/2000/svg">
<g opacity="0.94">
<path fill-rule="evenodd" clip-rule="evenodd" d="M33.6537 0.49786C34.4879 0.488934 35.32 0.526758 36.1501 0.611333C36.2822 0.646963 36.4083 0.69742 36.5284 0.762629C36.9576 1.65891 37.3989 2.55413 37.8522 3.44814C37.9853 3.71359 38.0736 3.99091 38.117 4.28027C35.2217 3.35305 32.3218 2.43264 29.4175 1.51911C29.3045 1.43166 29.3171 1.36857 29.4553 1.32999C30.8323 0.890625 32.2318 0.613299 33.6537 0.49786Z" fill="#00E53C"/>
<path fill-rule="evenodd" clip-rule="evenodd" d="M37.6631 1.33002C39.1548 2.19158 40.2139 3.42721 40.8403 5.03678C40.695 5.12309 40.5437 5.13572 40.3865 5.0746C39.9534 4.95077 39.5374 4.78684 39.1383 4.58289C38.638 3.49643 38.1463 2.41209 37.6631 1.33002Z" fill="#00E53D"/>
<path fill-rule="evenodd" clip-rule="evenodd" d="M27.8289 1.85952C28.1464 1.80278 28.3985 1.90362 28.5854 2.16211C30.0009 3.86691 31.4256 5.55644 32.8595 7.23053C33.2892 7.73927 33.68 8.2688 34.032 8.81914C30.0766 7.96273 26.1176 7.11797 22.1553 6.28493C21.8574 6.21261 21.6558 6.03612 21.5501 5.75539C22.8307 4.71107 24.1923 3.77803 25.6351 2.95641C26.3775 2.59655 27.1088 2.23095 27.8289 1.85952Z" fill="#00E53D"/>
<path fill-rule="evenodd" clip-rule="evenodd" d="M29.7202 2.38912C32.7025 3.31869 35.6781 4.27692 38.6466 5.26375C39.4645 6.93716 40.2714 8.61406 41.0674 10.2944C40.8656 10.3448 40.664 10.3448 40.4622 10.2944C38.7253 9.87503 36.9854 9.4716 35.2425 9.08398C33.3734 6.86863 31.5326 4.63701 29.7202 2.38912Z" fill="#00E53D"/>
<path fill-rule="evenodd" clip-rule="evenodd" d="M39.6301 5.64193C39.7834 5.62967 39.9347 5.6423 40.084 5.67975C40.454 5.80911 40.8197 5.94777 41.1809 6.09582C41.5888 7.39991 41.8283 8.73631 41.8995 10.1052C41.8239 10.1052 41.7482 10.1052 41.6726 10.1052C41.0346 8.59311 40.3537 7.10534 39.6301 5.64193Z" fill="#00E53D"/>
<path fill-rule="evenodd" clip-rule="evenodd" d="M20.3397 6.62541C20.7698 6.70136 21.1985 6.78964 21.6257 6.89018C25.5403 10.6909 29.4993 14.4607 33.5025 18.1996C33.4773 18.2248 33.452 18.25 33.4268 18.2752C30.3722 17.8133 27.3211 17.3216 24.2734 16.8001C22.4583 13.9515 20.5545 11.1651 18.562 8.44096C18.5115 8.36532 18.5115 8.28967 18.562 8.21402C19.1592 7.67283 19.7517 7.1433 20.3397 6.62541Z" fill="#0E8672"/>
<path fill-rule="evenodd" clip-rule="evenodd" d="M22.9118 7.15484C23.0984 7.06906 23.3001 7.05642 23.517 7.11702C27.2775 7.93523 31.0347 8.76736 34.7886 9.6134C36.8221 11.958 38.8015 14.341 40.7269 16.7621C40.7421 16.9902 40.717 17.2172 40.6513 17.443C40.4399 17.9866 40.2759 18.5413 40.1596 19.1072C38.3682 18.8676 36.5778 18.6028 34.7886 18.3129C30.7691 14.6591 26.8101 10.9397 22.9118 7.15484Z" fill="#10B420"/>
<path fill-rule="evenodd" clip-rule="evenodd" d="M17.9191 8.81911C18.6557 9.76229 19.3744 10.7205 20.0751 11.6937C21.1626 13.3232 22.2343 14.9623 23.2902 16.6109C23.2397 16.6361 23.1893 16.6613 23.1389 16.6865C19.3804 16.1408 15.6232 15.5861 11.8673 15.0223C13.7841 12.8533 15.8015 10.7856 17.9191 8.81911Z" fill="#005155"/>
<path fill-rule="evenodd" clip-rule="evenodd" d="M36.1502 10.1808C36.3111 10.0954 36.4876 10.0827 36.6797 10.1429C38.1378 10.4917 39.6003 10.8195 41.0673 11.1264C41.2398 11.144 41.3911 11.207 41.5212 11.3155C41.7096 11.5908 41.8104 11.8934 41.8238 12.2233C41.743 12.8013 41.68 13.3812 41.6346 13.9632C41.502 14.4618 41.4011 14.9661 41.332 15.4761C41.2799 15.6961 41.1917 15.8979 41.0673 16.0813C39.4251 14.1119 37.786 12.145 36.1502 10.1808Z" fill="#00E53D"/>
<path fill-rule="evenodd" clip-rule="evenodd" d="M12.0185 15.8545C15.9886 16.3426 19.9475 16.91 23.8953 17.5565C26.0924 20.9922 28.2484 24.4594 30.3632 27.9582C30.4935 28.1684 30.5818 28.3953 30.628 28.639C27.207 28.2473 23.7777 27.9573 20.3398 27.769C17.5924 23.7728 14.8186 19.8013 12.0185 15.8545Z" fill="#005155"/>
<path fill-rule="evenodd" clip-rule="evenodd" d="M11.0349 15.9301C11.306 16.2147 11.5707 16.5173 11.8292 16.8379C14.3814 20.3533 16.8777 23.9088 19.3184 27.5042C19.3549 27.576 19.3675 27.6516 19.3562 27.7312C16.1546 27.6354 12.9522 27.585 9.74889 27.5799C9.25499 26.1054 8.91457 24.5925 8.72764 23.041C8.5097 20.8974 8.98878 18.9306 10.165 17.1405C10.4839 16.7565 10.7739 16.353 11.0349 15.9301Z" fill="#1B182B"/>
<path fill-rule="evenodd" clip-rule="evenodd" d="M24.8788 17.6699C28.1086 18.1367 31.3362 18.6285 34.5617 19.1451C35.9612 20.3933 37.3607 21.6414 38.7602 22.8896C38.0569 25.0526 37.187 27.1456 36.1503 29.1684C36.0747 29.1936 35.999 29.2189 35.9234 29.2441C34.4853 29.0548 33.0479 28.8657 31.6115 28.6767C30.8098 27.4696 30.0659 26.2214 29.3798 24.9321C27.8595 22.5216 26.3592 20.1009 24.8788 17.6699Z" fill="#005155"/>
<path fill-rule="evenodd" clip-rule="evenodd" d="M59.8282 18.3508C60.7144 18.3534 61.496 18.6308 62.1733 19.1829C62.9371 20.4465 62.6345 21.3921 61.2655 22.0197C60.3391 22.2976 59.4314 22.2473 58.5422 21.8684C57.4863 21.1486 57.2972 20.2534 57.9748 19.1829C58.522 18.7363 59.1398 18.4589 59.8282 18.3508Z" fill="#1B182B"/>
<path fill-rule="evenodd" clip-rule="evenodd" d="M73.5204 18.3508C74.8314 18.3508 76.1431 18.3508 77.4541 18.3508C77.4413 22.3602 77.4541 26.3696 77.492 30.3788C77.6818 29.3152 78.0979 28.357 78.7401 27.5042C79.166 27.0912 79.6706 26.8264 80.2531 26.7099C81.6178 26.7035 82.9795 26.6531 84.3381 26.5586C85.2504 26.3019 85.7928 25.7092 85.9645 24.7809C86.0024 22.6377 86.0152 20.4943 86.0024 18.3508C87.3133 18.3508 88.6251 18.3508 89.9361 18.3508C89.9361 25.3104 89.9361 32.27 89.9361 39.2297C88.6251 39.2297 87.3133 39.2297 86.0024 39.2297C86.0152 34.8672 86.0024 30.5049 85.9645 26.1425C85.8427 27.4938 85.3003 28.641 84.3381 29.5845C83.9636 29.8045 83.5604 29.9558 83.1277 30.0384C81.7638 30.046 80.4021 30.0964 79.0427 30.1897C78.256 30.3966 77.7386 30.8883 77.492 31.6648C77.4541 34.1864 77.4413 36.7079 77.4541 39.2297C76.1174 39.2297 74.7815 39.2297 73.4448 39.2297C73.4198 32.2647 73.4448 25.305 73.5204 18.3508Z" fill="#1B192C"/>
<path fill-rule="evenodd" clip-rule="evenodd" d="M107.94 18.3508C108.578 18.3519 109.183 18.4906 109.756 18.7668C110.755 19.3653 110.994 20.1848 110.474 21.2254C109.585 22.1252 108.513 22.4151 107.259 22.0954C106.661 21.8751 106.169 21.5094 105.784 20.9985C105.467 19.9316 105.807 19.1626 106.806 18.6912C107.187 18.5513 107.565 18.4379 107.94 18.3508Z" fill="#1B192B"/>
<path fill-rule="evenodd" clip-rule="evenodd" d="M118.077 18.3508C118.682 18.3508 119.288 18.3508 119.893 18.3508C119.893 19.4855 119.893 20.6202 119.893 21.7549C119.312 21.7424 118.732 21.7549 118.153 21.7928C117.737 21.9062 117.472 22.171 117.358 22.5871C117.321 23.015 117.308 23.4437 117.321 23.8731C118.178 23.8731 119.036 23.8731 119.893 23.8731C119.893 24.9826 119.893 26.0921 119.893 27.2016C118.424 26.9436 117.579 27.5488 117.358 29.0172C117.321 32.4213 117.308 35.8254 117.321 39.2297C116.06 39.2297 114.799 39.2297 113.538 39.2297C113.525 35.9263 113.538 32.6229 113.576 29.3198C113.886 28.5121 114.454 27.9699 115.278 27.6933C115.838 27.4646 116.418 27.3133 117.018 27.2394C115.001 27.2016 112.984 27.189 110.966 27.2016C110.966 26.0921 110.966 24.9826 110.966 23.8731C111.823 23.8731 112.681 23.8731 113.538 23.8731C113.525 23.1414 113.538 22.4101 113.576 21.6793C113.727 20.8508 114.117 20.1574 114.749 19.599C115.741 18.863 116.85 18.4469 118.077 18.3508Z" fill="#1B192C"/>
<path fill-rule="evenodd" clip-rule="evenodd" d="M36.0745 19.4099C37.3636 19.592 38.6497 19.7938 39.9326 20.0151C39.6795 20.7226 39.4273 21.4287 39.1761 22.1332C39.0965 22.1445 39.0209 22.1319 38.9492 22.0954C37.9209 21.2557 36.9628 20.3606 36.0745 19.4099Z" fill="#0E8772"/>
<path fill-rule="evenodd" clip-rule="evenodd" d="M49.8426 23.4192C51.6329 23.3652 53.2971 23.7812 54.8354 24.6674C55.754 25.281 56.3466 26.1258 56.6132 27.2016C56.651 31.1857 56.6636 35.1697 56.651 39.154C55.3902 39.154 54.1294 39.154 52.8686 39.154C52.8812 38.0189 52.8686 36.8842 52.8307 35.7498C52.1541 38.9943 50.1999 40.192 46.968 39.3431C44.6347 38.5354 43.3991 36.8963 43.2613 34.426C43.2774 32.747 43.9582 31.4105 45.3038 30.4166C46.0754 29.9428 46.9075 29.615 47.8001 29.4332C49.061 29.408 50.3217 29.3827 51.5826 29.3575C52.7146 29.123 53.055 28.48 52.6038 27.4285C52.0356 26.7593 51.3044 26.4567 50.41 26.5207C49.4118 26.5468 48.6427 26.9755 48.1027 27.8068C46.8177 27.8823 45.5317 27.9076 44.2447 27.8824C44.7376 25.6872 46.0741 24.2877 48.254 23.6839C48.7949 23.5981 49.3245 23.5099 49.8426 23.4192ZM52.7929 31.6648C53.4779 34.4182 52.4315 36.0068 49.6535 36.4306C48.6419 36.3918 47.8602 35.9632 47.3084 35.1446C46.872 34.1548 47.0611 33.3101 47.8758 32.6104C48.331 32.383 48.8101 32.2317 49.3131 32.1565C50.2209 32.1313 51.1287 32.1061 52.0364 32.0809C52.3332 32.0046 52.5854 31.866 52.7929 31.6648Z" fill="#1B192B"/>
<path fill-rule="evenodd" clip-rule="evenodd" d="M70.1162 23.4949C70.9673 23.4456 71.7865 23.5717 72.5748 23.8732C72.6126 25.0329 72.6255 26.1928 72.6126 27.353C71.546 27.0444 70.4619 26.9813 69.3597 27.1639C68.2939 27.4728 67.6508 28.1663 67.4307 29.2442C67.3929 32.5726 67.38 35.9012 67.3929 39.2298C66.1069 39.2298 64.8208 39.2298 63.5348 39.2298C63.5348 34.1109 63.5348 28.9921 63.5348 23.8732C64.8208 23.8732 66.1069 23.8732 67.3929 23.8732C67.38 25.109 67.3929 26.3446 67.4307 27.5799C67.5601 26.1359 68.1531 24.9255 69.2084 23.9488C69.4959 23.7545 69.7985 23.6032 70.1162 23.4949Z" fill="#1A192C"/>
<path fill-rule="evenodd" clip-rule="evenodd" d="M97.9548 23.4193C99.7477 23.3662 101.412 23.7823 102.948 24.6675C103.889 25.3019 104.481 26.1719 104.725 27.2773C104.763 31.2361 104.776 35.1951 104.763 39.1541C103.502 39.1541 102.242 39.1541 100.981 39.1541C100.994 38.0191 100.981 36.8843 100.943 35.7499C100.262 39.0197 98.2832 40.2174 95.0046 39.3432C92.2003 38.237 91.0277 36.1819 91.4869 33.1779C92.1897 31.0395 93.6648 29.7913 95.9123 29.4333C97.1734 29.4081 98.4337 29.3828 99.6947 29.3577C101.194 28.856 101.371 28.049 100.224 26.9369C98.7106 26.1951 97.3867 26.4347 96.2528 27.6556C96.2165 27.7273 96.2036 27.8029 96.2149 27.8825C94.9289 27.8825 93.6429 27.8825 92.3569 27.8825C92.8493 25.6874 94.1861 24.2879 96.3662 23.684C96.9071 23.5982 97.4367 23.51 97.9548 23.4193ZM100.905 31.6649C101.592 34.4167 100.546 36.0053 97.7657 36.4308C96.6401 36.3856 95.8079 35.8812 95.2693 34.9178C94.9667 33.4668 95.5341 32.5716 96.9714 32.2323C98.0275 32.1399 99.0865 32.0895 100.149 32.081C100.445 32.0047 100.698 31.8661 100.905 31.6649Z" fill="#1A182C"/>
<path fill-rule="evenodd" clip-rule="evenodd" d="M126.247 23.4192C128.203 23.3531 129.993 23.8449 131.618 24.8943C132.344 25.4775 132.811 26.2213 133.018 27.1259C133.055 31.1352 133.068 35.1446 133.055 39.154C131.794 39.154 130.534 39.154 129.273 39.154C129.286 38.1198 129.273 37.086 129.235 36.0524C129.021 37.1595 128.504 38.0925 127.684 38.8514C126.937 39.3265 126.118 39.5787 125.226 39.6079C122.497 39.5544 120.707 38.2431 119.855 35.6742C119.422 32.2405 120.897 30.1602 124.28 29.4332C125.516 29.408 126.752 29.3827 127.987 29.3576C129.226 29.1366 129.567 28.4683 129.008 27.3529C128.418 26.7493 127.7 26.472 126.852 26.5208C125.833 26.5605 125.051 27.0017 124.507 27.8446C123.247 27.8824 121.986 27.8951 120.725 27.8824C121.191 25.6634 122.527 24.2639 124.734 23.6839C125.252 23.608 125.755 23.5197 126.247 23.4192ZM129.197 31.7405C129.285 32.6099 129.298 33.4924 129.235 34.3882C128.883 35.1645 128.316 35.7319 127.533 36.0902C126.306 36.6043 125.171 36.453 124.129 35.6363C123.302 34.6339 123.327 33.6505 124.205 32.6861C124.676 32.4255 125.18 32.249 125.718 32.1565C126.625 32.1313 127.533 32.1061 128.441 32.0809C128.726 32.0263 128.978 31.9128 129.197 31.7405Z" fill="#1B182B"/>
<path fill-rule="evenodd" clip-rule="evenodd" d="M58.1638 23.8732C59.4246 23.8732 60.6854 23.8732 61.9462 23.8732C61.9462 28.9921 61.9462 34.1109 61.9462 39.2297C60.6854 39.2297 59.4246 39.2297 58.1638 39.2297C58.1638 34.1109 58.1638 28.9921 58.1638 23.8732Z" fill="#1B192C"/>
<path fill-rule="evenodd" clip-rule="evenodd" d="M106.276 23.8732C107.537 23.8732 108.797 23.8732 110.058 23.8732C110.058 28.9921 110.058 34.1109 110.058 39.2297C108.797 39.2297 107.537 39.2297 106.276 39.2297C106.276 34.1109 106.276 28.9921 106.276 23.8732Z" fill="#1B192B"/>
<path fill-rule="evenodd" clip-rule="evenodd" d="M10.1273 28.2607C13.4064 28.3144 16.6845 28.4027 19.9615 28.5255C22.4231 32.1178 24.7809 35.7616 27.0346 39.4566C24.511 40.6538 21.9768 40.6665 19.432 39.4944C18.2744 38.9661 17.2154 38.2853 16.2548 37.4519C15.1989 37.0779 14.2407 37.2418 13.3802 37.9437C12.9992 38.2365 12.684 38.5895 12.4346 39.0027C12.3007 39.5123 12.4268 39.9409 12.8128 40.2887C12.9163 40.7252 12.7775 41.0656 12.3967 41.31C11.6778 41.6869 10.9213 41.7877 10.1273 41.6126C9.3252 41.2906 8.49307 41.1014 7.63091 41.0452C5.77306 41.2651 3.91968 41.5172 2.07077 41.8017C1.26512 41.7899 0.63474 41.4621 0.179565 40.8183C-0.0930709 40.25 -0.0552468 39.7079 0.293037 39.1919C2.89942 38.2894 5.49664 37.3564 8.08479 36.3929C9.72946 35.6217 11.2172 34.6257 12.548 33.4048C12.63 33.3393 12.6425 33.2637 12.5859 33.1778C11.5247 31.6609 10.7052 30.0218 10.1273 28.2607Z" fill="#1B192B"/>
<path fill-rule="evenodd" clip-rule="evenodd" d="M20.8692 28.5633C24.3089 28.7177 27.7382 29.0077 31.1574 29.4333C31.9664 30.7794 32.7607 32.1285 33.5403 33.4804C33.5907 33.5813 33.5907 33.6822 33.5403 33.783C31.9838 35.9827 30.0548 37.7731 27.7532 39.1541C25.4873 35.6028 23.1927 32.0725 20.8692 28.5633Z" fill="#1B192B"/>
<path fill-rule="evenodd" clip-rule="evenodd" d="M32.1409 29.5467C33.33 29.6373 34.5151 29.7634 35.6963 29.9249C35.6382 30.248 35.5247 30.5506 35.3559 30.8327C34.9561 31.5463 34.5149 32.2271 34.0321 32.8752C33.4144 31.8416 32.7966 30.8077 32.1787 29.7736C32.1422 29.7019 32.1296 29.6263 32.1409 29.5467Z" fill="#005155"/>
</g>
</svg>
