<?xml version="1.0" encoding="UTF-8" standalone="no"?>
<!-- Created with Inkscape (http://www.inkscape.org/) -->
<svg xmlns:dc="http://purl.org/dc/elements/1.1/" xmlns:cc="http://creativecommons.org/ns#" xmlns:rdf="http://www.w3.org/1999/02/22-rdf-syntax-ns#" xmlns:svg="http://www.w3.org/2000/svg" xmlns="http://www.w3.org/2000/svg" xmlns:sodipodi="http://sodipodi.sourceforge.net/DTD/sodipodi-0.dtd" xmlns:inkscape="http://www.inkscape.org/namespaces/inkscape" width="252" height="131" id="svg2" sodipodi:version="0.32" inkscape:version="0.46" version="1.0" sodipodi:docname="AIr_Vegas_Airlines_logo.svg" inkscape:output_extension="org.inkscape.output.svg.inkscape">
  <defs id="defs4">
    <inkscape:perspective sodipodi:type="inkscape:persp3d" inkscape:vp_x="0 : 526.18109 : 1" inkscape:vp_y="0 : 1000 : 0" inkscape:vp_z="744.09448 : 526.18109 : 1" inkscape:persp3d-origin="372.04724 : 350.78739 : 1" id="perspective10"/>
    <inkscape:perspective id="perspective2390" inkscape:persp3d-origin="372.04724 : 350.78739 : 1" inkscape:vp_z="744.09448 : 526.18109 : 1" inkscape:vp_y="0 : 1000 : 0" inkscape:vp_x="0 : 526.18109 : 1" sodipodi:type="inkscape:persp3d"/>
  </defs>
  <sodipodi:namedview id="base" pagecolor="#ffffff" bordercolor="#666666" borderopacity="1.0" gridtolerance="10000" guidetolerance="10" objecttolerance="10" inkscape:pageopacity="0.0" inkscape:pageshadow="2" inkscape:zoom="3" inkscape:cx="125" inkscape:cy="66.500013" inkscape:document-units="px" inkscape:current-layer="layer1" showgrid="false" inkscape:showpageshadow="false" showborder="false"/>
  <metadata id="metadata7">
    <rdf:RDF>
      <cc:Work rdf:about="">
        <dc:format>image/svg+xml</dc:format>
        <dc:type rdf:resource="http://purl.org/dc/dcmitype/StillImage"/>
      </cc:Work>
    </rdf:RDF>
  </metadata>
  <g inkscape:label="Layer 1" inkscape:groupmode="layer" id="layer1" transform="translate(-230.957, -805.93)">
    <g id="g3472" transform="matrix(0.2442, 0, 0, 0.24406, 269.032, 657.992)">
      <g id="g3453">
        <path style="font-size:96px;font-style:normal;font-variant:normal;font-weight:bold;font-stretch:normal;text-align:start;line-height:100%;writing-mode:lr-tb;text-anchor:start;fill:#2a7fff;fill-opacity:1;stroke:none;stroke-width:1px;stroke-linecap:butt;stroke-linejoin:miter;stroke-opacity:1;font-family:Times New Roman;-inkscape-font-specification:Times New Roman Bold" d="M 36.90625,141.125 L 14.1875,191.84375 C 12.03124,196.68751 10.21874,199.90625 8.75,201.46875 C 7.28125,203.00001 5.4062501,203.9375 3.125,204.28125 L 3.125,206 L 24.25,206 L 24.25,204.28125 C 20.93748,204.03126 18.874989,203.65625 18.03125,203.15625 C 16.59374,202.31251 15.87499,201 15.875,199.21875 C 15.87499,197.87501 16.312489,196.15626 17.1875,194.09375 L 19.84375,187.90625 L 42.3125,187.90625 L 45.6875,195.84375 C 46.56246,197.90626 47.031209,199.06251 47.09375,199.34375 C 47.28121,199.9375 47.374959,200.53125 47.375,201.09375 C 47.37496,202.03126 47.031209,202.75 46.34375,203.25 C 45.34371,203.93751 43.593711,204.28125 41.125,204.28125 L 39.875,204.28125 L 39.875,206 L 70.625,206 L 70.625,204.28125 C 68.687433,204.12501 67.187436,203.5625 66.125,202.59375 C 64.718687,201.31251 62.90619,198.18751 60.71875,193.25 L 37.8125,141.125 L 36.90625,141.125 z M 31.25,162.5625 L 40.71875,184.4375 L 21.5,184.4375 L 31.25,162.5625 z" transform="translate(-159.044, 602.43)" id="path3449"/>
        <path style="font-size:96px;font-style:normal;font-variant:normal;font-weight:bold;font-stretch:normal;text-align:start;line-height:100%;writing-mode:lr-tb;text-anchor:start;fill:#2a7fff;fill-opacity:1;stroke:none;stroke-width:1px;stroke-linecap:butt;stroke-linejoin:miter;stroke-opacity:1;font-family:Times New Roman;-inkscape-font-specification:Times New Roman Bold" d="M -52.140228,806.69952 L -52.140228,808.4339 L -85.374603,808.4339 L -85.374603,806.69952 L -83.265228,806.69952 C -81.421484,806.69953 -79.937111,806.3714 -78.812103,805.71515 C -77.999613,805.27765 -77.374613,804.52765 -76.937103,803.46515 C -76.593364,802.71515 -76.421489,800.74641 -76.421478,797.5589 L -76.421478,755.7464 C -76.421489,752.49645 -76.593364,750.46521 -76.937103,749.65265 C -77.280863,748.84021 -77.983988,748.13708 -79.046478,747.54327 C -80.077735,746.91834 -81.483984,746.60584 -83.265228,746.60577 L -85.374603,746.60577 L -85.374603,744.8714 L -52.140228,744.8714 L -52.140228,746.60577 L -54.249603,746.60577 C -56.093384,746.60584 -57.577758,746.93396 -58.702728,747.59015 C -59.515256,748.02771 -60.15588,748.77771 -60.624603,749.84015 C -60.96838,750.59021 -61.140254,752.55895 -61.140228,755.7464 L -61.140228,797.5589 C -61.140254,800.80891 -60.96838,802.84015 -60.624603,803.65265 C -60.24963,804.46515 -59.546506,805.1839 -58.515228,805.8089 C -57.452758,806.40265 -56.030885,806.69953 -54.249603,806.69952 L -52.140228,806.69952" id="path3445"/>
        <path style="font-size:96px;font-style:normal;font-variant:normal;font-weight:bold;font-stretch:normal;text-align:start;line-height:100%;writing-mode:lr-tb;text-anchor:start;fill:#2a7fff;fill-opacity:1;stroke:none;stroke-width:1px;stroke-linecap:butt;stroke-linejoin:miter;stroke-opacity:1;font-family:Times New Roman;-inkscape-font-specification:Times New Roman Bold" d="M 110.84375,142.4375 L 110.84375,144.1875 C 113.75,144.18757 115.71874,144.43756 116.78125,144.96875 C 117.84374,145.50006 118.59374,146.21881 119,147.125 C 119.43749,148.00006 119.65624,150.1563 119.65625,153.59375 L 119.65625,194.84375 C 119.65624,198.28126 119.43749,200.4375 119,201.3125 C 118.59374,202.1875 117.84374,202.90625 116.78125,203.46875 C 115.74999,204 113.78125,204.28125 110.84375,204.28125 L 110.84375,206 L 143.375,206 L 143.375,204.28125 C 140.46872,204.28126 138.46872,204 137.40625,203.46875 C 136.34372,202.9375 135.59372,202.25 135.15625,201.375 C 134.74997,200.46876 134.56248,198.28126 134.5625,194.84375 L 134.5625,177.03125 L 138.71875,177.03125 L 159.21875,206 L 179.21875,206 L 179.21875,204.28125 C 177.53118,204.18751 176.06243,203.65625 174.78125,202.6875 C 173.93743,202.00001 172.49994,200.25 170.5,197.46875 L 155.21875,175.96875 C 159.0937,175.00003 162.12495,173.53128 164.28125,171.59375 C 167.65619,168.53129 169.34369,164.65629 169.34375,159.96875 C 169.34369,156.12505 168.21869,152.7813 165.96875,149.9375 C 163.7187,147.06256 160.81245,145.09381 157.25,144.03125 C 153.68746,142.96881 148.06246,142.43756 140.375,142.4375 L 110.84375,142.4375 z M 134.5625,145.875 L 139.5625,145.875 C 144.59371,145.87506 148.24996,147.0313 150.5,149.34375 C 152.78121,151.65631 153.90621,155.2188 153.90625,160.0625 C 153.90621,163.40629 153.28121,166.12504 152.03125,168.21875 C 150.81246,170.28128 149.12496,171.71878 146.96875,172.53125 C 144.81246,173.31253 141.56247,173.71878 137.21875,173.71875 L 134.5625,173.71875 L 134.5625,145.875 z" transform="translate(-159.044, 602.43)" id="path3443"/>
      </g>
      <g id="g3458">
        <path style="font-size:62.16124344px;font-style:normal;font-variant:normal;font-weight:bold;font-stretch:normal;text-align:start;line-height:100%;writing-mode:lr-tb;text-anchor:start;fill:#2a7fff;fill-opacity:1;stroke:none;stroke-width:1px;stroke-linecap:butt;stroke-linejoin:miter;stroke-opacity:1;font-family:Arial;-inkscape-font-specification:Arial Bold" d="M 451.125,358.5625 L 434.75,405.65625 L 443.75,405.65625 L 447.21875,394.96875 L 464.03125,394.96875 L 467.71875,405.65625 L 476.9375,405.65625 L 460.09375,358.5625 L 451.125,358.5625 z M 455.5,369.5625 L 461.3125,387.03125 L 449.84375,387.03125 L 455.5,369.5625 z" transform="translate(-159.044, 602.43)" id="path3436"/>
        <path style="font-size:62.16124344px;font-style:normal;font-variant:normal;font-weight:bold;font-stretch:normal;text-align:start;line-height:100%;writing-mode:lr-tb;text-anchor:start;fill:#2a7fff;fill-opacity:1;stroke:none;stroke-width:1px;stroke-linecap:butt;stroke-linejoin:miter;stroke-opacity:1;font-family:Arial;-inkscape-font-specification:Arial Bold" d="M 322.17599,1008.081 L 322.17599,961.00743 L 330.66833,961.00743 L 330.66833,1008.081 L 322.17599,1008.081" id="path3432"/>
        <path style="font-size:62.16124344px;font-style:normal;font-variant:normal;font-weight:bold;font-stretch:normal;text-align:start;line-height:100%;writing-mode:lr-tb;text-anchor:start;fill:#2a7fff;fill-opacity:1;stroke:none;stroke-width:1px;stroke-linecap:butt;stroke-linejoin:miter;stroke-opacity:1;font-family:Arial;-inkscape-font-specification:Arial Bold" d="M 497.8125,358.5625 L 497.8125,405.65625 L 506.28125,405.65625 L 506.28125,386 L 508.03125,386 C 509.98218,386.00002 511.38226,386.16737 512.28125,386.53125 C 513.1802,386.87378 514.04043,387.53671 514.84375,388.5 C 515.64706,389.44192 517.13203,391.74569 519.3125,395.40625 L 525.46875,405.65625 L 535.625,405.65625 L 530.46875,396.46875 C 528.44126,392.8082 526.82997,390.24677 525.625,388.8125 C 524.4391,387.37826 522.92992,386.07379 521.09375,384.875 C 524.78521,384.27562 527.55094,382.82181 529.40625,380.53125 C 531.26152,378.21934 532.1875,375.3134 532.1875,371.78125 C 532.18747,368.9984 531.59905,366.50588 530.375,364.34375 C 529.15084,362.18171 527.51528,360.70992 525.46875,359.875 C 523.44127,359.01877 520.18231,358.56256 515.6875,358.5625 L 497.8125,358.5625 z M 506.28125,366.53125 L 512.9375,366.53125 C 516.38033,366.53129 518.4364,366.5805 519.125,366.6875 C 520.50211,366.94442 521.56651,367.57782 522.3125,368.5625 C 523.07755,369.52584 523.43749,370.79094 523.4375,372.375 C 523.43746,373.78789 523.16756,374.96438 522.59375,375.90625 C 522.01992,376.84818 521.23246,377.52095 520.21875,377.90625 C 519.205,378.2916 516.66773,378.50003 512.59375,378.5 L 506.28125,378.5 L 506.28125,366.53125 z" transform="translate(-159.044, 602.43)" id="path3430"/>
        <path style="font-size:62.16124344px;font-style:normal;font-variant:normal;font-weight:bold;font-stretch:normal;text-align:start;line-height:100%;writing-mode:lr-tb;text-anchor:start;fill:#2a7fff;fill-opacity:1;stroke:none;stroke-width:1px;stroke-linecap:butt;stroke-linejoin:miter;stroke-opacity:1;font-family:Arial;-inkscape-font-specification:Arial Bold" d="M 381.42158,1008.081 L 381.42158,961.39276 L 389.91392,961.39276 L 389.91392,1000.1498 L 411.03003,1000.1498 L 411.03003,1008.081 L 381.42158,1008.081" id="path3426"/>
        <path style="font-size:62.16124344px;font-style:normal;font-variant:normal;font-weight:bold;font-stretch:normal;text-align:start;line-height:100%;writing-mode:lr-tb;text-anchor:start;fill:#2a7fff;fill-opacity:1;stroke:none;stroke-width:1px;stroke-linecap:butt;stroke-linejoin:miter;stroke-opacity:1;font-family:Arial;-inkscape-font-specification:Arial Bold" d="M 416.85416,1008.081 L 416.85416,961.00743 L 425.34651,961.00743 L 425.34651,1008.081 L 416.85416,1008.081" id="path3424"/>
        <path style="font-size:62.16124344px;font-style:normal;font-variant:normal;font-weight:bold;font-stretch:normal;text-align:start;line-height:100%;writing-mode:lr-tb;text-anchor:start;fill:#2a7fff;fill-opacity:1;stroke:none;stroke-width:1px;stroke-linecap:butt;stroke-linejoin:miter;stroke-opacity:1;font-family:Arial;-inkscape-font-specification:Arial Bold" d="M 433.49456,1008.081 L 433.49456,961.00743 L 441.75738,961.00743 L 458.9716,992.44336 L 458.9716,961.00743 L 466.86144,961.00743 L 466.86144,1008.081 L 458.34041,1008.081 L 441.38441,977.38366 L 441.38441,1008.081 L 433.49456,1008.081" id="path3422"/>
        <path style="font-size:62.16124344px;font-style:normal;font-variant:normal;font-weight:bold;font-stretch:normal;text-align:start;line-height:100%;writing-mode:lr-tb;text-anchor:start;fill:#2a7fff;fill-opacity:1;stroke:none;stroke-width:1px;stroke-linecap:butt;stroke-linejoin:miter;stroke-opacity:1;font-family:Arial;-inkscape-font-specification:Arial Bold" d="M 475.87022,1008.081 L 475.87022,961.00743 L 507.05663,961.00743 L 507.05663,968.97077 L 484.36257,968.97077 L 484.36257,979.40659 L 505.47866,979.40659 L 505.47866,987.33783 L 484.36257,987.33783 L 484.36257,1000.1498 L 507.85996,1000.1498 L 507.85996,1008.081 L 475.87022,1008.081" id="path3420"/>
        <path style="font-size:62.16124344px;font-style:normal;font-variant:normal;font-weight:bold;font-stretch:normal;text-align:start;line-height:100%;writing-mode:lr-tb;text-anchor:start;fill:#2a7fff;fill-opacity:1;stroke:none;stroke-width:1px;stroke-linecap:butt;stroke-linejoin:miter;stroke-opacity:1;font-family:Arial;-inkscape-font-specification:Arial Bold" d="M 512.96686,992.76446 L 521.22968,991.86538 C 521.72696,994.96937 522.73113,997.2492 524.24217,998.70486 C 525.7723,1000.1605 527.82844,1000.8884 530.41059,1000.8884 C 533.14571,1000.8884 535.20186,1000.2462 536.57902,998.96174 C 537.97525,997.65593 538.67339,996.13605 538.67341,994.40208 C 538.67339,993.28894 538.37692,992.34704 537.78401,991.57638 C 537.21018,990.78435 536.19646,990.09932 534.74283,989.52133 C 533.74821,989.13602 531.48168,988.45101 527.94322,987.46627 C 523.39101,986.20329 520.19681,984.6513 518.36064,982.81028 C 515.7785,980.22008 514.48744,977.06259 514.48744,973.33776 C 514.48744,970.94023 515.08994,968.70322 516.29494,966.62672 C 517.51906,964.52889 519.26917,962.93409 521.54527,961.8423 C 523.84048,960.7506 526.60433,960.20472 529.83678,960.20468 C 535.11578,960.20472 539.08462,961.49984 541.74328,964.09002 C 544.42102,966.68029 545.82684,970.13748 545.96076,974.46162 L 537.46842,974.87906 C 537.10498,972.46012 536.32077,970.72617 535.11581,969.6772 C 533.92992,968.6069 532.14156,968.07173 529.75071,968.07169 C 527.28333,968.07173 525.35151,968.63901 523.95527,969.77352 C 523.05629,970.5014 522.6068,971.4754 522.60681,972.69556 C 522.6068,973.80875 523.0276,974.76135 523.86919,975.55337 C 524.94028,976.55952 527.54154,977.60845 531.67297,978.70018 C 535.80436,979.79195 538.85509,980.92651 540.82519,982.10386 C 542.81436,983.25985 544.36363,984.85466 545.47302,986.88829 C 546.60148,988.90055 547.16572,991.39444 547.16576,994.36998 C 547.16572,997.06724 546.49628,999.59325 545.15743,1001.948 C 543.81852,1004.3027 541.92496,1006.0581 539.47674,1007.2141 C 537.02847,1008.3486 533.97774,1008.9159 530.32452,1008.9159 C 525.00722,1008.9159 520.92363,1007.5459 518.07374,1004.8058 C 515.22382,1002.0443 513.52153,998.03055 512.96686,992.76446" id="text3371"/>
      </g>
      <g id="g3468">
        <path id="path2417" d="M 129.92632,1131.6092 C 125.10857,1127.3791 119.67191,1115.5437 117.72479,1105.0469 C 115.37513,1092.3799 116.8109,1081.6739 122.84893,1066.838 C 125.39613,1060.5793 128.7516,1053.6045 130.30553,1051.3384 C 131.85947,1049.0723 135.00846,1044.1441 137.30329,1040.3868 C 148.76705,1021.6177 173.92883,997.13026 207.86304,971.71818 C 212.63694,968.14318 219.5477,962.86036 223.22028,959.97858 C 226.89286,957.0968 232.9005,953.15299 236.5706,951.21457 C 244.44352,947.05634 248.6372,942.59006 248.20065,938.82853 C 247.96528,936.80051 247.26979,936.1462 245.08306,935.89552 C 243.53502,935.71806 241.28502,936.21458 240.08306,936.99891 C 235.02107,940.30208 220.80649,945.71818 217.19928,945.71818 C 214.10188,945.71818 212.50811,944.93938 209.01353,941.71818 C 206.24878,939.16972 203.72157,937.71818 202.04934,937.71818 C 199.93747,937.71818 192.69937,944.41021 165.00453,971.96818 C 146.07346,990.80568 128.4049,1007.5675 125.74105,1009.2168 C 114.02506,1016.4703 102.6475,1019.3274 90.15923,1018.1518 C 82.58115,1017.4385 77.72843,1014.6405 72.75074,1008.1144 C 70.12491,1004.6718 69.8977,1003.6896 69.8977,995.78106 C 69.8977,987.23914 69.92681,987.14098 74.81297,979.20322 C 80.76919,969.52712 92.36073,954.86096 96.42986,951.85252 C 100.6136,948.75935 100.31063,945.56058 95.29509,939.87163 C 88.9898,932.71977 87.16429,928.49181 87.96988,922.90615 C 89.94393,909.21873 100.80538,892.34338 119.06043,874.60102 C 127.61614,866.28559 141.90766,854.57808 149.85551,849.37392 C 152.62871,847.55805 158.0477,844.01067 161.8977,841.49085 C 172.37142,834.63581 188.22662,825.68982 192.69868,824.11199 C 198.38559,822.10553 201.08079,822.37468 204.96442,825.33687 C 209.56185,828.8435 209.67354,833.19549 205.29411,838.18338 C 203.58713,840.12752 201.44963,841.73793 200.54411,841.76207 C 197.11398,841.85352 190.98149,844.7253 179.13711,851.78674 C 161.44382,862.33522 155.70187,866.28977 148.3977,872.95738 C 130.39313,889.39285 126.79811,892.77391 120.12166,899.55062 C 111.07211,908.73606 110.45006,909.9683 113.07791,913.50376 C 115.51878,916.78767 119.38314,917.4275 123.88205,915.29263 C 125.7069,914.42668 128.05635,913.71818 129.10305,913.71818 C 130.14975,913.71818 133.17356,912.25568 135.82263,910.46818 C 138.47171,908.68068 142.98926,905.64318 145.86164,903.71818 C 148.73402,901.79318 153.51976,898.53996 156.49661,896.48881 C 159.78087,894.22585 164.54848,892.10811 168.62159,891.10297 C 174.85341,889.56511 175.51392,889.56431 177.84509,891.09175 C 179.22613,891.99665 181.10145,894.1784 182.01245,895.94008 C 183.60156,899.01309 183.57408,899.32173 181.33569,903.54115 C 180.05247,905.96004 177.58733,908.90193 175.85762,910.07866 C 161.45631,919.87594 137.48844,938.9673 123.29073,951.95027 C 106.06108,967.70578 89.3977,988.76999 89.3977,994.79454 C 89.3977,997.55653 94.17641,1000.7182 98.35106,1000.7182 C 106.95476,1000.7182 113.96667,997.15624 127.50593,985.90796 C 135.19435,979.5205 139.32011,975.09154 152.83433,958.71818 C 166.97312,941.58811 188.15233,921.70191 199.22094,915.16353 C 202.86385,913.0116 204.4909,910.26044 208.31085,899.79355 C 209.98337,895.21074 212.33306,889.83149 213.53238,887.83967 C 214.73171,885.84785 217.41977,880.99417 219.50585,877.05371 C 237.647,842.78641 279.74918,797.18168 296.07021,794.11984 C 300.1576,793.35304 304.04753,795.66297 306.25477,800.16766 C 307.47909,802.66634 307.39101,803.23595 305.35438,805.99064 C 304.09344,807.69616 303.05296,810.61123 302.99731,812.59433 C 302.91246,815.61851 303.34229,816.34305 305.8977,817.48339 C 311.2086,819.85335 311.87605,820.35859 313.16638,822.98555 C 314.26198,825.21605 314.04309,826.90882 311.56194,835.39331 C 309.98172,840.79699 307.47565,848.07099 305.99288,851.55776 C 304.51011,855.04452 301.73644,862.20825 299.82918,867.47714 C 297.92192,872.74604 295.96226,877.54323 295.47437,878.13757 C 294.54468,879.27012 287.3977,896.94042 287.3977,898.10645 C 287.3977,898.47664 285.5977,901.95601 283.3977,905.83839 C 279.26288,913.13516 278.53064,916.45112 280.5977,918.51818 C 283.92257,921.84305 292.24708,917.16991 301.19271,906.95672 C 304.33046,903.37437 309.05703,898.14269 311.6962,895.33077 C 316.34015,890.38285 329.72502,873.21472 336.55808,863.44163 C 347.5309,847.74759 355.65427,835.24053 359.37599,828.31027 C 363.97152,819.75289 376.7474,800.23812 378.4384,799.19303 C 379.01058,798.8394 380.65969,796.67539 382.10308,794.38412 C 385.88993,788.37276 392.27033,781.00249 405.8977,766.89793 C 421.70692,750.53511 426.98217,748.03323 434.66557,753.25423 C 438.6853,755.98571 439.04704,757.28046 437.20992,762.36094 C 436.18479,765.19589 436.27448,765.92454 437.8649,767.68194 C 438.87843,768.80187 440.28229,769.71818 440.98459,769.71818 C 442.83727,769.71818 446.3977,775.12138 446.3977,777.93294 C 446.3977,779.25625 445.2727,783.20961 443.8977,786.71818 C 442.5227,790.22675 441.3977,794.75066 441.3977,796.7713 C 441.3977,798.79195 440.98112,802.64412 440.47197,805.33169 C 439.43161,810.82324 439.09493,825.07381 439.78525,834.3981 C 440.31473,841.54995 445.2695,852.58735 449.57964,856.21639 C 457.33157,862.74333 469.67424,851.83124 494.2561,816.71818 C 506.09026,799.81409 509.3977,794.53403 509.3977,792.54583 C 509.3977,791.07129 507.31551,788.35485 503.3977,784.71818 C 498.21857,779.91071 497.3977,778.6589 497.3977,775.56832 C 497.3977,769.81597 500.29966,767.16761 509.68056,764.35885 C 514.19999,763.00568 519.47254,761.57253 521.39736,761.17407 C 529.90399,759.4131 532.72229,757.04432 539.73656,745.76002 C 543.40019,739.86611 546.3977,734.68679 546.3977,734.25043 C 546.3977,733.81406 547.88269,731.3783 549.69768,728.83761 C 551.51268,726.29692 554.52768,721.51818 556.3977,718.21818 C 558.26772,714.91818 561.28272,710.13944 563.09772,707.59875 C 564.91271,705.05806 566.3977,702.53207 566.3977,701.98543 C 566.3977,701.43879 568.62983,697.96774 571.35798,694.27199 C 574.08614,690.57623 577.98105,684.55222 580.01334,680.8853 C 582.04564,677.21839 584.90578,672.64318 586.36921,670.71818 C 587.83265,668.79318 590.30506,664.96818 591.86346,662.21818 C 593.42186,659.46818 598.82128,650.91818 603.86218,643.21818 C 608.90307,635.51818 614.20395,627.1673 615.64192,624.66066 C 618.74337,619.25428 626.28179,612.03636 629.73089,611.17069 C 633.30512,610.27362 638.29867,613.23692 639.97548,617.2501 C 641.24607,620.29105 641.20046,621.15329 639.54255,625.43368 C 638.52331,628.06516 636.91777,633.81818 635.97467,638.21818 C 635.03158,642.61818 633.81933,647.79318 633.2808,649.71818 C 632.17301,653.67799 630.8556,660.95162 629.3867,671.21818 C 628.83586,675.06818 627.95853,680.69318 627.4371,683.71818 C 626.91566,686.74318 626.21598,692.14318 625.88225,695.71818 C 625.54853,699.29318 624.5762,707.04374 623.72152,712.94164 C 621.91104,725.43529 622.33915,728.4144 626.07993,729.35327 C 628.75386,730.02439 636.50926,727.94582 643.3977,724.71185 C 645.3227,723.80811 651.1727,721.84379 656.3977,720.3467 C 661.6227,718.84961 670.8477,715.99269 676.8977,713.99798 C 682.9477,712.00328 690.3727,709.824 693.3977,709.15515 C 704.03898,706.80228 711.94562,704.58473 716.64289,702.63567 C 719.25274,701.55275 726.51188,699.37269 732.77432,697.79109 C 739.03675,696.20949 745.08434,694.42107 746.21339,693.81682 C 747.34244,693.21257 749.63908,692.71818 751.31701,692.71818 C 752.99495,692.71818 758.98704,691.20564 764.63277,689.35698 C 770.27847,687.50831 778.49777,685.2111 782.89777,684.25206 C 787.29777,683.29302 795.62277,681.15483 801.39777,679.50054 C 807.17277,677.84625 818.64777,674.80998 826.89777,672.75328 C 835.14777,670.69657 845.18707,667.8223 849.20737,666.366 C 857.78157,663.26009 859.60787,663.13852 863.46497,665.41693 C 868.41187,668.33917 869.32787,675.26939 865.33367,679.55659 C 863.34937,681.68652 854.32097,684.71818 849.96227,684.71818 C 848.51707,684.71818 844.72187,685.59836 841.52847,686.67414 C 838.33507,687.74992 831.71177,689.53829 826.81007,690.64829 C 813.61387,693.63658 790.58107,700.16969 782.31767,703.26833 C 779.88667,704.17988 774.55667,705.55367 770.47307,706.32118 C 766.38947,707.08869 757.16448,709.71666 749.97304,712.1611 C 742.7816,714.60554 733.5227,717.3637 729.3977,718.29034 C 725.2727,719.21698 717.0228,721.71733 711.06459,723.84666 C 705.10638,725.976 699.23388,727.71818 698.01459,727.71818 C 696.7953,727.71818 695.3702,728.08475 694.8477,728.53278 C 694.3252,728.98082 690.0727,730.36644 685.3977,731.61196 C 680.7227,732.85747 674.8727,734.70452 672.3977,735.71651 C 669.9227,736.7285 665.6477,738.0715 662.8977,738.70094 C 654.44192,740.63638 647.26684,742.8809 638.37545,746.37201 C 633.68821,748.2124 629.1364,749.71818 628.26031,749.71818 C 627.38422,749.71818 625.48173,750.65084 624.03256,751.79076 C 621.79647,753.54967 621.39571,754.64691 621.38456,759.04076 C 621.37734,761.88834 620.48325,768.49318 619.3977,773.71818 C 618.31215,778.94318 617.41806,784.49892 617.41084,786.06427 C 617.39209,790.1268 614.69966,798.8496 611.74074,804.43402 C 607.43567,812.55903 602.94141,817.18729 595.70838,820.94439 C 587.69366,825.10754 582.38245,826.08197 569.1061,825.82504 C 560.51141,825.65871 558.5556,825.27055 553.1061,822.64961 C 549.39814,820.86626 543.67569,816.66658 538.8977,812.22213 C 534.4977,808.12929 529.9977,804.77319 528.8977,804.76413 C 524.84569,804.73077 521.97381,807.45656 515.24935,817.71818 C 511.46499,823.49318 507.17747,830.01818 505.72154,832.21818 C 501.34439,838.83231 485.09382,857.76258 477.61342,864.96128 C 465.94855,876.18688 452.45133,880.78448 445.31971,875.96159 C 440.1351,872.4554 430.37213,863.21055 429.77495,861.24179 C 428.75217,857.8699 426.23997,855.71818 423.32596,855.71818 C 421.01502,855.71818 419.61196,857.04541 414.73094,863.84865 C 411.52266,868.32041 408.4477,872.70791 407.8977,873.59865 C 407.00621,875.04244 405.25373,877.35693 395.28421,890.25723 C 389.14997,898.19478 372.93329,914.79037 368.1185,918.05768 C 362.29475,922.00967 348.85311,926.30028 345.18231,925.37897 C 343.87097,925.04984 340.86562,922.99655 338.50376,920.8161 C 334.7929,917.39025 334.2958,916.45859 334.84489,913.95863 C 335.19436,912.36748 335.02285,909.86245 334.46375,908.3919 C 333.66774,906.29824 332.78388,905.71818 330.38968,905.71818 C 327.85112,905.71818 325.5769,907.45794 316.99084,915.96818 C 302.51754,930.31367 289.76854,940.70279 271.07454,953.38522 C 261.4289,959.92904 261.1731,960.20535 256.91924,968.67529 C 254.53656,973.41949 252.09125,979.14253 251.48522,981.39316 C 250.87919,983.64378 249.71158,986.04272 248.89052,986.72414 C 248.06947,987.40555 247.3977,988.52588 247.3977,989.21377 C 247.3977,990.61242 230.09438,1024.9018 221.78022,1039.979 C 218.81983,1045.3475 216.3977,1050.1175 216.3977,1050.579 C 216.3977,1051.0405 215.06881,1053.2526 213.4446,1055.4947 C 211.8204,1057.7369 208.41841,1063.5419 205.88462,1068.3948 C 203.35083,1073.2476 199.84223,1079.3735 198.08772,1082.0077 C 196.33321,1084.642 192.00624,1091.167 188.47223,1096.5077 C 170.60147,1123.5148 156.62507,1134.6868 140.6825,1134.7084 C 134.02867,1134.7174 133.19179,1134.4763 129.92632,1131.6092 z M 149.67982,1113.3578 C 154.95857,1111.1261 165.13633,1099.213 172.8977,1086.181 C 174.5477,1083.4105 177.07218,1079.5855 178.50766,1077.681 C 180.70537,1074.7651 185.87796,1066.0484 194.21102,1051.2182 C 195.13815,1049.5682 197.78664,1045.2669 200.09655,1041.6599 C 202.40646,1038.0528 206.63836,1030.4028 209.50078,1024.6599 C 212.36319,1018.9169 215.52416,1013.16 216.52515,1011.8667 C 217.52614,1010.5734 218.63991,1007.8734 219.0002,1005.8667 C 219.36048,1003.86 221.00226,998.97341 222.64859,995.00758 C 224.29492,991.04175 225.37609,987.10425 225.05119,986.25758 C 223.98984,983.49175 219.7028,984.55939 214.78734,988.8137 C 212.18474,991.06623 208.21987,994.053 205.97652,995.45095 C 193.79,1003.045 168.32872,1028.0516 158.16004,1042.4134 C 156.91575,1044.1708 154.49131,1047.5458 152.77239,1049.9134 C 146.12094,1059.075 139.34051,1071.9649 136.83128,1080.2182 C 134.09642,1089.2135 134.25595,1103.901 137.14797,1109.3759 C 140.12492,1115.0116 143.34654,1116.0352 149.67982,1113.3578 z M 233.3977,920.29507 C 235.3227,919.03186 238.56282,917.01242 240.59797,915.80743 C 249.70308,910.41638 278.31579,876.35524 278.38125,870.82948 C 278.3903,870.06569 280.1977,865.68721 282.3977,861.09951 C 284.5977,856.51182 286.3977,852.40507 286.3977,851.97341 C 286.3977,851.54174 287.26196,849.57604 288.31828,847.60518 C 289.3746,845.63432 290.75764,842.04098 291.39171,839.61999 C 292.02577,837.19899 293.94653,832.14076 295.66006,828.37947 C 298.90988,821.24591 298.74579,818.6239 295.00345,817.88772 C 293.39875,817.57204 286.13627,821.78283 281.8977,825.48643 C 278.94311,828.06811 264.36374,844.89961 260.8977,849.73037 C 259.2477,852.03005 256.66931,855.55558 255.16793,857.56489 C 247.22176,868.19939 244.14996,872.90335 240.71387,879.69897 C 238.63347,883.8134 235.7005,888.58159 234.19615,890.29495 C 232.6918,892.00831 230.10746,897.08106 228.45318,901.56772 C 226.79889,906.05438 224.75966,911.05134 223.92154,912.67207 C 222.07621,916.24055 221.94652,920.867 223.64423,922.56471 C 225.21446,924.13494 228.82731,923.29423 233.3977,920.29507 z M 366.0579,901.88026 C 371.80668,897.32152 379.18839,887.93325 387.80773,874.21818 C 391.26424,868.71818 396.21546,860.84318 398.81043,856.71818 C 411.83352,836.01648 424.44252,804.91752 425.05368,791.99152 C 425.37499,785.19607 425.24489,784.66416 422.88301,783.1166 C 420.48839,781.54758 420.1953,781.58892 416.63413,783.99794 C 414.57909,785.3881 411.49456,787.80635 409.77962,789.37184 C 402.00822,796.46595 385.71775,818.48446 381.96884,826.96139 C 380.67074,829.89665 378.91321,832.87538 378.06324,833.58079 C 375.69897,835.54296 362.83192,862.19803 359.89476,871.21818 C 356.57596,881.41034 353.3977,894.91402 353.3977,898.82265 C 353.3977,906.72916 358.41511,907.94093 366.0579,901.88026 z M 583.90988,807.3646 C 595.21506,802.10007 601.3977,787.1638 601.3977,765.11686 C 601.3977,756.5413 600.27997,755.8279 592.0209,759.13205 C 588.46553,760.55442 584.59849,761.71818 583.42748,761.71818 C 582.25648,761.71818 580.07748,762.34953 578.58527,763.12119 C 577.09305,763.89284 572.9529,765.07631 569.38493,765.75112 C 565.81695,766.42593 561.5477,767.56457 559.8977,768.28144 C 558.2477,768.99831 554.21764,770.62734 550.94202,771.90151 C 544.16752,774.53668 538.3977,780.85051 538.3977,785.62855 C 538.3977,789.07309 544.22773,793.86295 558.3977,802.06024 C 572.90863,810.45478 575.92652,811.08224 583.90988,807.3646 z M 573.92519,747.3598 C 575.01007,746.61268 581.2977,744.75208 587.8977,743.22513 C 602.86318,739.76276 604.39223,738.48365 604.40947,729.41242 C 604.41594,726.00559 605.16225,716.24318 606.06792,707.71818 C 608.27676,686.9266 608.29517,683.70792 606.2128,682.38276 C 604.98973,681.60443 603.89334,681.65165 602.2128,682.55502 C 599.7912,683.85676 592.15858,694.58673 590.44135,699.10337 C 589.89308,700.54544 586.81475,705.66121 583.60063,710.47175 C 577.58147,719.48055 564.3977,742.62536 564.3977,744.18351 C 564.3977,745.91898 567.75111,748.71818 569.83018,748.71818 C 570.99756,748.71818 572.84032,748.10691 573.92519,747.3598 z M -71.10952,1096.4682 C -77.43643,1089.1275 -78.07895,1087.2561 -77.92783,1076.609 C -77.85281,1071.3239 -77.06632,1063.2239 -76.18008,1058.609 C -75.29383,1053.994 -74.10733,1047.5182 -73.5434,1044.2182 C -70.16789,1024.4653 -66.93286,1009.3614 -64.11926,1000.2182 C -62.76527,995.81818 -60.25486,986.59318 -58.54057,979.71818 C -56.82628,972.84318 -54.13606,963.28843 -52.5623,958.48541 C -50.98855,953.68238 -48.28485,944.78096 -46.55409,938.70447 C -44.82332,932.62797 -42.59293,925.53272 -41.59765,922.93724 C -38.9934,916.14587 -37.88995,912.92505 -36.04099,906.71818 C -34.37764,901.13437 -30.14619,891.27821 -26.48904,884.46916 C -25.31683,882.28669 -24.60641,879.36171 -24.78887,877.46916 C -25.26098,872.57233 -28.76553,872.64311 -35.45271,877.68454 C -38.39544,879.90304 -41.25108,881.71818 -41.79859,881.71818 C -42.3461,881.71818 -46.68841,884.25945 -51.44818,887.36545 C -69.26911,898.99456 -74.46861,902.29097 -79.22097,904.97301 C -84.09562,907.72407 -95.70943,915.49003 -105.03965,922.23754 C -107.78863,924.22557 -110.89123,925.67743 -112.03965,925.51318 C -113.83926,925.2558 -114.18657,924.27398 -114.76313,917.81425 C -115.12659,913.74208 -115.12659,909.60686 -114.76313,908.62487 C -114.39967,907.64288 -109.28634,903.77465 -103.40016,900.0288 C -85.92501,888.90797 -83.61235,887.44909 -75.16626,882.21818 C -67.56765,877.51214 -64.75545,875.70788 -48.6023,865.17515 C -45.0273,862.84406 -39.4023,859.45433 -36.1023,857.64243 C -32.8023,855.83052 -28.68833,853.19383 -26.96014,851.78312 C -25.23195,850.3724 -20.05695,847.04716 -15.46014,844.39369 C -10.86333,841.74023 -4.85745,838.02773 -2.11374,836.14369 C 4.5445,831.57166 8.44459,831.56507 12.9977,836.11818 C 14.8677,837.98818 16.3977,840.418 16.3977,841.51777 C 16.3977,842.61755 14.61688,846.37505 12.44033,849.86777 C 6.36082,859.62356 0.79512,869.98396 -0.54074,874.03166 C -1.20485,876.04392 -2.13097,877.92688 -2.5988,878.21601 C -3.06662,878.50514 -4.18877,880.9678 -5.09247,883.68858 C -5.99616,886.40935 -7.80268,890.20794 -9.10694,892.12988 C -10.41121,894.05182 -12.8567,899.92731 -14.54137,905.18652 C -16.22605,910.44572 -18.04781,915.52934 -18.58974,916.48345 C -20.77733,920.33489 -24.6023,930.08196 -24.6023,931.8051 C -24.6023,932.81603 -25.46368,936.02254 -26.51647,938.93067 C -30.51751,949.98273 -36.40132,969.39317 -37.01752,973.57315 C -37.37061,975.96839 -38.26887,979.11839 -39.01365,980.57315 C -39.75844,982.02792 -40.70267,985.68886 -41.11195,988.70857 C -41.52123,991.72829 -42.699,995.77162 -43.7292,997.69376 C -44.75941,999.6159 -45.6023,1002.6953 -45.6023,1004.5368 C -45.6023,1006.3783 -46.44642,1011.3349 -47.47813,1015.5516 C -48.50984,1019.7682 -50.35448,1028.8432 -51.57733,1035.7182 C -52.80018,1042.5932 -54.65605,1051.7914 -55.70149,1056.1586 C -58.99468,1069.9155 -57.88177,1075.7581 -52.23799,1074.3416 C -50.92334,1074.0116 -49.05884,1072.5377 -48.09466,1071.0662 C -47.13047,1069.5946 -44.60663,1066.5084 -42.4861,1064.2079 C -40.36558,1061.9074 -36.67152,1057.1436 -34.27708,1053.6217 C -18.2337,1030.0238 -14.68812,1024.6825 -12.16569,1020.3113 C -10.60833,1017.6125 -7.5964,1013.1125 -5.47251,1010.3113 C -3.34863,1007.5101 -1.60897,1004.8894 -1.6066,1004.4876 C -1.60424,1004.0858 0.08151,1001.1608 2.13949,997.9876 C 6.63719,991.05265 15.37435,976.52988 22.45576,964.21818 C 25.30289,959.26818 28.21689,954.54318 28.93131,953.71818 C 29.64573,952.89318 31.7817,949.29318 33.67791,945.71818 C 35.57413,942.14318 38.58015,936.74318 40.35796,933.71818 C 52.47577,913.09937 65.23725,889.7364 79.6863,861.71818 C 82.94811,855.39318 86.09126,849.63326 86.67107,848.91836 C 87.67776,847.67714 95.43951,832.75454 103.4195,816.71818 C 105.47217,812.59318 108.50493,806.92418 110.15896,804.1204 C 111.813,801.31663 113.49964,797.94163 113.90706,796.6204 C 114.31449,795.29918 116.13929,791.65309 117.96218,788.51797 C 119.78507,785.38286 122.91438,779.08286 124.91619,774.51797 C 126.91801,769.95309 129.78003,764.19318 131.27624,761.71818 C 132.77245,759.24318 136.32954,752.02412 139.18087,745.67583 C 145.60766,731.36707 150.06141,722.92728 152.79714,719.87317 C 157.61252,714.49739 164.26398,713.25196 168.85831,716.86585 C 172.39971,719.65152 171.98992,721.68359 165.46508,733.69211 C 162.69048,738.79858 160.00461,744.48231 159.49647,746.32263 C 158.98833,748.16295 157.01078,752.2673 155.1019,755.44342 C 153.19302,758.61954 151.28809,762.34174 150.86873,763.71498 C 150.44937,765.08823 148.75193,768.68823 147.09664,771.71498 C 145.44135,774.74174 138.03167,789.14318 130.6307,803.71818 C 123.22973,818.29318 116.28479,831.4686 115.19751,832.99688 C 114.11023,834.52517 112.79318,837.3237 112.27074,839.21583 C 111.74829,841.10796 110.27471,843.90755 108.9961,845.43713 C 107.7175,846.96671 106.33348,849.34318 105.92051,850.71818 C 105.50754,852.09318 104.36781,854.56818 103.38777,856.21818 C 102.40773,857.86818 98.3815,865.48739 94.44058,873.14977 C 90.49967,880.81214 86.4724,888.23714 85.4911,889.64977 C 84.50979,891.06239 82.45746,894.91818 80.93036,898.21818 C 79.40326,901.51818 76.56425,906.91818 74.62145,910.21818 C 66.05524,924.76856 64.61945,927.41364 63.52898,930.65325 C 62.89303,932.54253 61.75522,934.79253 61.00052,935.65325 C 60.24581,936.51396 57.84939,940.59318 55.67513,944.71818 C 53.50087,948.84318 50.18648,954.76836 48.30982,957.88525 C 46.43315,961.00214 43.5477,965.90592 41.8977,968.78255 C 40.2477,971.65918 36.30734,978.53304 33.14134,984.0578 C 29.97535,989.58255 26.56996,995.02877 25.57382,996.16049 C 24.57767,997.29222 20.44116,1003.8432 16.38157,1010.7182 C 8.1795,1024.6085 0.21558,1036.9668 -4.79629,1043.5815 C -6.61459,1045.9813 -9.2273,1049.6519 -10.6023,1051.7384 C -15.5286,1059.2137 -30.49249,1078.3119 -35.26747,1083.2182 C -46.84033,1095.1092 -55.72939,1100.6565 -63.27438,1100.6962 C -66.95343,1100.7156 -67.87933,1100.2159 -71.10952,1096.4682 z" style="fill:#2a7fff;fill-opacity:1"/>
        <path id="path2408" d="M 120.78445,1126.7502 C 115.9667,1122.5201 110.53004,1110.6847 108.58292,1100.1879 C 106.23326,1087.5209 107.66903,1076.8149 113.70706,1061.979 C 116.25426,1055.7203 119.60973,1048.7455 121.16366,1046.4794 C 122.7176,1044.2133 125.86659,1039.2851 128.16142,1035.5278 C 139.62518,1016.7587 164.78696,992.27124 198.72117,966.85916 C 203.49507,963.28416 210.40583,958.00134 214.07841,955.11956 C 217.75099,952.23778 223.75863,948.29397 227.42873,946.35555 C 235.30165,942.19732 239.49533,937.73104 239.05878,933.96951 C 238.82341,931.94149 238.12792,931.28718 235.94119,931.0365 C 234.39315,930.85904 232.14315,931.35556 230.94119,932.13989 C 225.8792,935.44306 211.66462,940.85916 208.05741,940.85916 C 204.96001,940.85916 203.36624,940.08036 199.87166,936.85916 C 197.10691,934.3107 194.5797,932.85916 192.90747,932.85916 C 190.7956,932.85916 183.5575,939.55119 155.86266,967.10916 C 136.93159,985.94666 119.26303,1002.7085 116.59918,1004.3578 C 104.88319,1011.6113 93.50563,1014.4684 81.01736,1013.2928 C 73.43928,1012.5795 68.58656,1009.7815 63.60887,1003.2554 C 60.98304,999.81273 60.75583,998.83053 60.75583,990.92204 C 60.75583,982.38012 60.78494,982.28196 65.6711,974.3442 C 71.62732,964.6681 83.21886,950.00194 87.28799,946.9935 C 91.47173,943.90033 91.16876,940.70156 86.15322,935.01261 C 79.84793,927.86075 78.02242,923.63279 78.82801,918.04713 C 80.80206,904.35971 91.66351,887.48436 109.91856,869.742 C 118.47427,861.42657 132.76579,849.71906 140.71364,844.5149 C 143.48684,842.69903 148.90583,839.15165 152.75583,836.63183 C 163.22955,829.77679 179.08475,820.8308 183.55681,819.25297 C 189.24372,817.24651 191.93892,817.51566 195.82255,820.47785 C 200.41998,823.98448 200.53167,828.33647 196.15224,833.32436 C 194.44526,835.2685 192.30776,836.87891 191.40224,836.90305 C 187.97211,836.9945 181.83962,839.86628 169.99524,846.92772 C 152.30195,857.4762 146.56,861.43075 139.25583,868.09836 C 121.25126,884.53383 117.65624,887.91489 110.97979,894.6916 C 101.93024,903.87704 101.30819,905.10928 103.93604,908.64474 C 106.37691,911.92865 110.24127,912.56848 114.74018,910.43361 C 116.56503,909.56766 118.91448,908.85916 119.96118,908.85916 C 121.00788,908.85916 124.03169,907.39666 126.68076,905.60916 C 129.32984,903.82166 133.84739,900.78416 136.71977,898.85916 C 139.59215,896.93416 144.37789,893.68094 147.35474,891.62979 C 150.639,889.36683 155.40661,887.24909 159.47972,886.24395 C 165.71154,884.70609 166.37205,884.70529 168.70322,886.23273 C 170.08426,887.13763 171.95958,889.31938 172.87058,891.08106 C 174.45969,894.15407 174.43221,894.46271 172.19382,898.68213 C 170.9106,901.10102 168.44546,904.04291 166.71575,905.21964 C 152.31444,915.01692 128.34657,934.10828 114.14886,947.09125 C 96.91921,962.84676 80.25583,983.91097 80.25583,989.93552 C 80.25583,992.69751 85.03454,995.85916 89.20919,995.85916 C 97.81289,995.85916 104.8248,992.29722 118.36406,981.04894 C 126.05248,974.66148 130.17824,970.23252 143.69246,953.85916 C 157.83125,936.72909 179.01046,916.84289 190.07907,910.30451 C 193.72198,908.15258 195.34903,905.40142 199.16898,894.93453 C 200.8415,890.35172 203.19119,884.97247 204.39051,882.98065 C 205.58984,880.98883 208.2779,876.13515 210.36398,872.19469 C 228.50513,837.92739 270.60731,792.32266 286.92834,789.26082 C 291.01573,788.49402 294.90566,790.80395 297.1129,795.30864 C 298.33722,797.80732 298.24914,798.37693 296.21251,801.13162 C 294.95157,802.83714 293.91109,805.75221 293.85544,807.73531 C 293.77059,810.75949 294.20042,811.48403 296.75583,812.62437 C 302.06673,814.99433 302.73418,815.49957 304.02451,818.12653 C 305.12011,820.35703 304.90122,822.0498 302.42007,830.53429 C 300.83985,835.93797 298.33378,843.21197 296.85101,846.69874 C 295.36824,850.1855 292.59457,857.34923 290.68731,862.61812 C 288.78005,867.88702 286.82039,872.68421 286.3325,873.27855 C 285.40281,874.4111 278.25583,892.0814 278.25583,893.24743 C 278.25583,893.61762 276.45583,897.09699 274.25583,900.97937 C 270.12101,908.27614 269.38877,911.5921 271.45583,913.65916 C 274.7807,916.98403 283.10521,912.31089 292.05084,902.0977 C 295.18859,898.51535 299.91516,893.28367 302.55433,890.47175 C 307.19828,885.52383 320.58315,868.3557 327.41621,858.58261 C 338.38903,842.88857 346.5124,830.38151 350.23412,823.45125 C 354.82965,814.89387 367.60553,795.3791 369.29653,794.33401 C 369.86871,793.98038 371.51782,791.81637 372.96121,789.5251 C 376.74806,783.51374 383.12846,776.14347 396.75583,762.03891 C 412.56505,745.67609 417.8403,743.17421 425.5237,748.39521 C 429.54343,751.12669 429.90517,752.42144 428.06805,757.50192 C 427.04292,760.33687 427.13261,761.06552 428.72303,762.82292 C 429.73656,763.94285 431.14042,764.85916 431.84272,764.85916 C 433.6954,764.85916 437.25583,770.26236 437.25583,773.07392 C 437.25583,774.39723 436.13083,778.35059 434.75583,781.85916 C 433.38083,785.36773 432.25583,789.89164 432.25583,791.91228 C 432.25583,793.93293 431.83925,797.7851 431.3301,800.47267 C 430.28974,805.96422 429.95306,820.21479 430.64338,829.53908 C 431.17286,836.69093 436.12763,847.72833 440.43777,851.35737 C 448.1897,857.88431 460.53237,846.97222 485.11423,811.85916 C 496.94839,794.95507 500.25583,789.67501 500.25583,787.68681 C 500.25583,786.21227 498.17364,783.49583 494.25583,779.85916 C 489.0767,775.05169 488.25583,773.79988 488.25583,770.7093 C 488.25583,764.95695 491.15779,762.30859 500.53869,759.49983 C 505.05812,758.14666 510.33067,756.71351 512.25549,756.31505 C 520.76212,754.55408 523.58042,752.1853 530.59469,740.901 C 534.25832,735.00709 537.25583,729.82777 537.25583,729.39141 C 537.25583,728.95504 538.74082,726.51928 540.55581,723.97859 C 542.37081,721.4379 545.38581,716.65916 547.25583,713.35916 C 549.12585,710.05916 552.14085,705.28042 553.95585,702.73973 C 555.77084,700.19904 557.25583,697.67305 557.25583,697.12641 C 557.25583,696.57977 559.48796,693.10872 562.21611,689.41297 C 564.94427,685.71721 568.83918,679.6932 570.87147,676.02628 C 572.90377,672.35937 575.76391,667.78416 577.22734,665.85916 C 578.69078,663.93416 581.16319,660.10916 582.72159,657.35916 C 584.27999,654.60916 589.67941,646.05916 594.72031,638.35916 C 599.7612,630.65916 605.06208,622.30828 606.50005,619.80164 C 609.6015,614.39526 617.13992,607.17734 620.58902,606.31167 C 624.16325,605.4146 629.1568,608.3779 630.83361,612.39108 C 632.1042,615.43203 632.05859,616.29427 630.40068,620.57466 C 629.38144,623.20614 627.7759,628.95916 626.8328,633.35916 C 625.88971,637.75916 624.67746,642.93416 624.13893,644.85916 C 623.03114,648.81897 621.71373,656.0926 620.24483,666.35916 C 619.69399,670.20916 618.81666,675.83416 618.29523,678.85916 C 617.77379,681.88416 617.07411,687.28416 616.74038,690.85916 C 616.40666,694.43416 615.43433,702.18472 614.57965,708.08262 C 612.76917,720.57627 613.19728,723.55538 616.93806,724.49425 C 619.61199,725.16537 627.36739,723.0868 634.25583,719.85283 C 636.18083,718.94909 642.03083,716.98477 647.25583,715.48768 C 652.48083,713.99059 661.70583,711.13367 667.75583,709.13896 C 673.80583,707.14426 681.23083,704.96498 684.25583,704.29613 C 694.89711,701.94326 702.80375,699.72571 707.50102,697.77665 C 710.11087,696.69373 717.37001,694.51367 723.63245,692.93207 C 729.89488,691.35047 735.94247,689.56205 737.07152,688.9578 C 738.20057,688.35355 740.49721,687.85916 742.17514,687.85916 C 743.85308,687.85916 749.84517,686.34662 755.49089,684.49796 C 761.1366,682.64929 769.35587,680.35208 773.75587,679.39304 C 778.15587,678.434 786.48087,676.29581 792.25587,674.64152 C 798.03087,672.98723 809.50587,669.95096 817.75587,667.89426 C 826.00587,665.83755 836.04517,662.96328 840.06547,661.50698 C 848.63967,658.40107 850.46597,658.2795 854.32307,660.55791 C 859.26997,663.48015 860.18597,670.41037 856.19177,674.69757 C 854.20747,676.8275 845.17907,679.85916 840.82037,679.85916 C 839.37517,679.85916 835.57997,680.73934 832.38657,681.81512 C 829.19317,682.8909 822.56987,684.67927 817.66817,685.78927 C 804.47197,688.77756 781.43917,695.31067 773.17577,698.40931 C 770.74477,699.32086 765.41477,700.69465 761.33117,701.46216 C 757.24761,702.22967 748.02261,704.85764 740.83117,707.30208 C 733.63973,709.74652 724.38083,712.50468 720.25583,713.43132 C 716.13083,714.35796 707.88093,716.85831 701.92272,718.98764 C 695.96451,721.11698 690.09201,722.85916 688.87272,722.85916 C 687.65343,722.85916 686.22833,723.22573 685.70583,723.67376 C 685.18333,724.1218 680.93083,725.50742 676.25583,726.75294 C 671.58083,727.99845 665.73083,729.8455 663.25583,730.85749 C 660.78083,731.86948 656.50583,733.21248 653.75583,733.84192 C 645.30005,735.77736 638.12497,738.02188 629.23358,741.51299 C 624.54634,743.35338 619.99453,744.85916 619.11844,744.85916 C 618.24235,744.85916 616.33986,745.79182 614.89069,746.93174 C 612.6546,748.69065 612.25384,749.78789 612.24269,754.18174 C 612.23547,757.02932 611.34138,763.63416 610.25583,768.85916 C 609.17028,774.08416 608.27619,779.6399 608.26897,781.20525 C 608.25022,785.26778 605.55779,793.99058 602.59887,799.575 C 598.2938,807.70001 593.79954,812.32827 586.56651,816.08537 C 578.55179,820.24852 573.24058,821.22295 559.96423,820.96602 C 551.36954,820.79969 549.41373,820.41153 543.96423,817.79059 C 540.25627,816.00724 534.53382,811.80756 529.75583,807.36311 C 525.35583,803.27027 520.85583,799.91417 519.75583,799.90511 C 515.70382,799.87175 512.83194,802.59754 506.10748,812.85916 C 502.32312,818.63416 498.0356,825.15916 496.57967,827.35916 C 492.20252,833.97329 475.95195,852.90356 468.47155,860.10226 C 456.80668,871.32786 443.30946,875.92546 436.17784,871.10257 C 430.99323,867.59638 421.23026,858.35153 420.63308,856.38277 C 419.6103,853.01088 417.0981,850.85916 414.18409,850.85916 C 411.87315,850.85916 410.47009,852.18639 405.58907,858.98963 C 402.38079,863.46139 399.30583,867.84889 398.75583,868.73963 C 397.86434,870.18342 396.11186,872.49791 386.14234,885.39821 C 380.0081,893.33576 363.79142,909.93135 358.97663,913.19866 C 353.15288,917.15065 339.71124,921.44126 336.04044,920.51995 C 334.7291,920.19082 331.72375,918.13753 329.36189,915.95708 C 325.65103,912.53123 325.15393,911.59957 325.70302,909.09961 C 326.05249,907.50846 325.88098,905.00343 325.32188,903.53288 C 324.52587,901.43922 323.64201,900.85916 321.24781,900.85916 C 318.70925,900.85916 316.43503,902.59892 307.84897,911.10916 C 293.37567,925.45465 280.62667,935.84377 261.93267,948.5262 C 252.28703,955.07002 252.03123,955.34633 247.77737,963.81627 C 245.39469,968.56047 242.94938,974.28351 242.34335,976.53414 C 241.73732,978.78476 240.56971,981.1837 239.74865,981.86512 C 238.9276,982.54653 238.25583,983.66686 238.25583,984.35475 C 238.25583,985.7534 220.95251,1020.0428 212.63835,1035.12 C 209.67796,1040.4885 207.25583,1045.2585 207.25583,1045.72 C 207.25583,1046.1815 205.92694,1048.3936 204.30273,1050.6357 C 202.67853,1052.8779 199.27654,1058.6829 196.74275,1063.5358 C 194.20896,1068.3886 190.70036,1074.5145 188.94585,1077.1487 C 187.19134,1079.783 182.86437,1086.308 179.33036,1091.6487 C 161.4596,1118.6558 147.4832,1129.8278 131.54063,1129.8494 C 124.8868,1129.8584 124.04992,1129.6173 120.78445,1126.7502 z M 140.53795,1108.4988 C 145.8167,1106.2671 155.99446,1094.354 163.75583,1081.322 C 165.40583,1078.5515 167.93031,1074.7265 169.36579,1072.822 C 171.5635,1069.9061 176.73609,1061.1894 185.06915,1046.3592 C 185.99628,1044.7092 188.64477,1040.4079 190.95468,1036.8009 C 193.26459,1033.1938 197.49649,1025.5438 200.35891,1019.8009 C 203.22132,1014.0579 206.38229,1008.301 207.38328,1007.0077 C 208.38427,1005.7144 209.49804,1003.0144 209.85833,1001.0077 C 210.21861,999.00101 211.86039,994.11439 213.50672,990.14856 C 215.15305,986.18273 216.23422,982.24523 215.90932,981.39856 C 214.84797,978.63273 210.56093,979.70037 205.64547,983.95468 C 203.04287,986.20721 199.078,989.19398 196.83465,990.59193 C 184.64813,998.18602 159.18685,1023.1926 149.01817,1037.5544 C 147.77388,1039.3118 145.34944,1042.6868 143.63052,1045.0544 C 136.97907,1054.216 130.19864,1067.1059 127.68941,1075.3592 C 124.95455,1084.3545 125.11408,1099.042 128.0061,1104.5169 C 130.98305,1110.1526 134.20467,1111.1762 140.53795,1108.4988 z M 224.25583,915.43605 C 226.18083,914.17284 229.42095,912.1534 231.4561,910.94841 C 240.56121,905.55736 269.17392,871.49622 269.23938,865.97046 C 269.24843,865.20667 271.05583,860.82819 273.25583,856.24049 C 275.45583,851.6528 277.25583,847.54605 277.25583,847.11439 C 277.25583,846.68272 278.12009,844.71702 279.17641,842.74616 C 280.23273,840.7753 281.61577,837.18196 282.24984,834.76097 C 282.8839,832.33997 284.80466,827.28174 286.51819,823.52045 C 289.76801,816.38689 289.60392,813.76488 285.86158,813.0287 C 284.25688,812.71302 276.9944,816.92381 272.75583,820.62741 C 269.80124,823.20909 255.22187,840.04059 251.75583,844.87135 C 250.10583,847.17103 247.52744,850.69656 246.02606,852.70587 C 238.07989,863.34037 235.00809,868.04433 231.572,874.83995 C 229.4916,878.95438 226.55863,883.72257 225.05428,885.43593 C 223.54993,887.14929 220.96559,892.22204 219.31131,896.7087 C 217.65702,901.19536 215.61779,906.19232 214.77967,907.81305 C 212.93434,911.38153 212.80465,916.00798 214.50236,917.70569 C 216.07259,919.27592 219.68544,918.43521 224.25583,915.43605 z M 356.91603,897.02124 C 362.66481,892.4625 370.04652,883.07423 378.66586,869.35916 C 382.12237,863.85916 387.07359,855.98416 389.66856,851.85916 C 402.69165,831.15746 415.30065,800.0585 415.91181,787.1325 C 416.23312,780.33705 416.10302,779.80514 413.74114,778.25758 C 411.34652,776.68856 411.05343,776.7299 407.49226,779.13892 C 405.43722,780.52908 402.35269,782.94733 400.63775,784.51282 C 392.86635,791.60693 376.57588,813.62544 372.82697,822.10237 C 371.52887,825.03763 369.77134,828.01636 368.92137,828.72177 C 366.5571,830.68394 353.69005,857.33901 350.75289,866.35916 C 347.43409,876.55132 344.25583,890.055 344.25583,893.96363 C 344.25583,901.87014 349.27324,903.08191 356.91603,897.02124 z M 574.76801,802.50558 C 586.07319,797.24105 592.25583,782.30478 592.25583,760.25784 C 592.25583,751.68228 591.1381,750.96888 582.87903,754.27303 C 579.32366,755.6954 575.45662,756.85916 574.28561,756.85916 C 573.11461,756.85916 570.93561,757.49051 569.4434,758.26217 C 567.95118,759.03382 563.81103,760.21729 560.24306,760.8921 C 556.67508,761.56691 552.40583,762.70555 550.75583,763.42242 C 549.10583,764.13929 545.07577,765.76832 541.80015,767.04249 C 535.02565,769.67766 529.25583,775.99149 529.25583,780.76953 C 529.25583,784.21407 535.08586,789.00393 549.25583,797.20122 C 563.76676,805.59576 566.78465,806.22322 574.76801,802.50558 z M 564.78332,742.50078 C 565.8682,741.75366 572.15583,739.89306 578.75583,738.36611 C 593.72131,734.90374 595.25036,733.62463 595.2676,724.5534 C 595.27407,721.14657 596.02038,711.38416 596.92605,702.85916 C 599.13489,682.06758 599.1533,678.8489 597.07093,677.52374 C 595.84786,676.74541 594.75147,676.79263 593.07093,677.696 C 590.64933,678.99774 583.01671,689.72771 581.29948,694.24435 C 580.75121,695.68642 577.67288,700.80219 574.45876,705.61273 C 568.4396,714.62153 555.25583,737.76634 555.25583,739.32449 C 555.25583,741.05996 558.60924,743.85916 560.68831,743.85916 C 561.85569,743.85916 563.69845,743.24789 564.78332,742.50078 z M -80.25139,1091.6092 C -86.5783,1084.2685 -87.22082,1082.3971 -87.0697,1071.75 C -86.99468,1066.4649 -86.20819,1058.3649 -85.32195,1053.75 C -84.4357,1049.135 -83.2492,1042.6592 -82.68527,1039.3592 C -79.30976,1019.6063 -76.07473,1004.5024 -73.26113,995.35916 C -71.90714,990.95916 -69.39673,981.73416 -67.68244,974.85916 C -65.96815,967.98416 -63.27793,958.42941 -61.70417,953.62639 C -60.13042,948.82336 -57.42672,939.92194 -55.69596,933.84545 C -53.96519,927.76895 -51.7348,920.6737 -50.73952,918.07822 C -48.13527,911.28685 -47.03182,908.06603 -45.18286,901.85916 C -43.51951,896.27535 -39.28806,886.41919 -35.63091,879.61014 C -34.4587,877.42767 -33.74828,874.50269 -33.93074,872.61014 C -34.40285,867.71331 -37.9074,867.78409 -44.59458,872.82552 C -47.53731,875.04402 -50.39295,876.85916 -50.94046,876.85916 C -51.48797,876.85916 -55.83028,879.40043 -60.59005,882.50643 C -78.41098,894.13554 -83.61048,897.43195 -88.36284,900.11399 C -93.23749,902.86505 -104.8513,910.63101 -114.18152,917.37852 C -116.9305,919.36655 -120.0331,920.81841 -121.18152,920.65416 C -122.98113,920.39678 -123.32844,919.41496 -123.905,912.95523 C -124.26846,908.88306 -124.26846,904.74784 -123.905,903.76585 C -123.54154,902.78386 -118.42821,898.91563 -112.54203,895.16978 C -95.06688,884.04895 -92.75422,882.59007 -84.30813,877.35916 C -76.70952,872.65312 -73.89732,870.84886 -57.74417,860.31613 C -54.16917,857.98504 -48.54417,854.59531 -45.24417,852.78341 C -41.94417,850.9715 -37.8302,848.33481 -36.10201,846.9241 C -34.37382,845.51338 -29.19882,842.18814 -24.60201,839.53467 C -20.0052,836.88121 -13.99932,833.16871 -11.25561,831.28467 C -4.59737,826.71264 -0.69728,826.70605 3.85583,831.25916 C 5.72583,833.12916 7.25583,835.55898 7.25583,836.65875 C 7.25583,837.75853 5.47501,841.51603 3.29846,845.00875 C -2.78105,854.76454 -8.34675,865.12494 -9.68261,869.17264 C -10.34672,871.1849 -11.27284,873.06786 -11.74067,873.35699 C -12.20849,873.64612 -13.33064,876.10878 -14.23434,878.82956 C -15.13803,881.55033 -16.94455,885.34892 -18.24881,887.27086 C -19.55308,889.1928 -21.99857,895.06829 -23.68324,900.3275 C -25.36792,905.5867 -27.18968,910.67032 -27.73161,911.62443 C -29.9192,915.47587 -33.74417,925.22294 -33.74417,926.94608 C -33.74417,927.95701 -34.60555,931.16352 -35.65834,934.07165 C -39.65938,945.12371 -45.54319,964.53415 -46.15939,968.71413 C -46.51248,971.10937 -47.41074,974.25937 -48.15552,975.71413 C -48.90031,977.1689 -49.84454,980.82984 -50.25382,983.84955 C -50.6631,986.86927 -51.84087,990.9126 -52.87107,992.83474 C -53.90128,994.75688 -54.74417,997.83623 -54.74417,999.67774 C -54.74417,1001.5193 -55.58829,1006.4759 -56.62,1010.6926 C -57.65171,1014.9092 -59.49635,1023.9842 -60.7192,1030.8592 C -61.94205,1037.7342 -63.79792,1046.9324 -64.84336,1051.2996 C -68.13655,1065.0565 -67.02364,1070.8991 -61.37986,1069.4826 C -60.06521,1069.1526 -58.20071,1067.6787 -57.23653,1066.2072 C -56.27234,1064.7356 -53.7485,1061.6494 -51.62797,1059.3489 C -49.50745,1057.0484 -45.81339,1052.2846 -43.41895,1048.7627 C -27.37557,1025.1648 -23.82999,1019.8235 -21.30756,1015.4523 C -19.7502,1012.7535 -16.73827,1008.2535 -14.61438,1005.4523 C -12.4905,1002.6511 -10.75084,1000.0304 -10.74847,999.62858 C -10.74611,999.22676 -9.06036,996.30176 -7.00238,993.12858 C -2.50468,986.19363 6.23248,971.67086 13.31389,959.35916 C 16.16102,954.40916 19.07502,949.68416 19.78944,948.85916 C 20.50386,948.03416 22.63983,944.43416 24.53604,940.85916 C 26.43226,937.28416 29.43828,931.88416 31.21609,928.85916 C 43.3339,908.24035 56.09538,884.87738 70.54443,856.85916 C 73.80624,850.53416 76.94939,844.77424 77.5292,844.05934 C 78.53589,842.81812 86.29764,827.89552 94.27763,811.85916 C 96.3303,807.73416 99.36306,802.06516 101.01709,799.26138 C 102.67113,796.45761 104.35777,793.08261 104.76519,791.76138 C 105.17262,790.44016 106.99742,786.79407 108.82031,783.65895 C 110.6432,780.52384 113.77251,774.22384 115.77432,769.65895 C 117.77614,765.09407 120.63816,759.33416 122.13437,756.85916 C 123.63058,754.38416 127.18767,747.1651 130.039,740.81681 C 136.46579,726.50805 140.91954,718.06826 143.65527,715.01415 C 148.47065,709.63837 155.12211,708.39294 159.71644,712.00683 C 163.25784,714.7925 162.84805,716.82457 156.32321,728.83309 C 153.54861,733.93956 150.86274,739.62329 150.3546,741.46361 C 149.84646,743.30393 147.86891,747.40828 145.96003,750.5844 C 144.05115,753.76052 142.14622,757.48272 141.72686,758.85596 C 141.3075,760.22921 139.61006,763.82921 137.95477,766.85596 C 136.29948,769.88272 128.8898,784.28416 121.48883,798.85916 C 114.08786,813.43416 107.14292,826.60958 106.05564,828.13786 C 104.96836,829.66615 103.65131,832.46468 103.12887,834.35681 C 102.60642,836.24894 101.13284,839.04853 99.85423,840.57811 C 98.57563,842.10769 97.19161,844.48416 96.77864,845.85916 C 96.36567,847.23416 95.22594,849.70916 94.2459,851.35916 C 93.26586,853.00916 89.23963,860.62837 85.29871,868.29075 C 81.3578,875.95312 77.33053,883.37812 76.34923,884.79075 C 75.36792,886.20337 73.31559,890.05916 71.78849,893.35916 C 70.26139,896.65916 67.42238,902.05916 65.47958,905.35916 C 56.91337,919.90954 55.47758,922.55462 54.38711,925.79423 C 53.75116,927.68351 52.61335,929.93351 51.85865,930.79423 C 51.10394,931.65494 48.70752,935.73416 46.53326,939.85916 C 44.359,943.98416 41.04461,949.90934 39.16795,953.02623 C 37.29128,956.14312 34.40583,961.0469 32.75583,963.92353 C 31.10583,966.80016 27.16547,973.67402 23.99947,979.19878 C 20.83348,984.72353 17.42809,990.16975 16.43195,991.30147 C 15.4358,992.4332 11.29929,998.98416 7.2397,1005.8592 C -0.96237,1019.7495 -8.92629,1032.1078 -13.93816,1038.7225 C -15.75646,1041.1223 -18.36917,1044.7929 -19.74417,1046.8794 C -24.67047,1054.3547 -39.63436,1073.4529 -44.40934,1078.3592 C -55.9822,1090.2502 -64.87126,1095.7975 -72.41625,1095.8372 C -76.0953,1095.8566 -77.0212,1095.3569 -80.25139,1091.6092 z" style="fill:#f41315"/>
      </g>
    </g>
  </g>
</svg>