<?xml version="1.0" encoding="UTF-8" standalone="no"?>
<!-- Created with Inkscape (http://www.inkscape.org/) -->

<svg
   width="90.966682mm"
   height="13.705007mm"
   viewBox="0 0 90.966682 13.705007"
   version="1.1"
   id="svg1"
   inkscape:version="1.4 (86a8ad7, 2024-10-11)"
   sodipodi:docname="Air China wordmark.svg"
   xmlns:inkscape="http://www.inkscape.org/namespaces/inkscape"
   xmlns:sodipodi="http://sodipodi.sourceforge.net/DTD/sodipodi-0.dtd"
   xmlns="http://www.w3.org/2000/svg"
   xmlns:svg="http://www.w3.org/2000/svg">
  <sodipodi:namedview
     id="namedview1"
     pagecolor="#ffffff"
     bordercolor="#000000"
     borderopacity="0.25"
     inkscape:showpageshadow="2"
     inkscape:pageopacity="0.0"
     inkscape:pagecheckerboard="0"
     inkscape:deskcolor="#d1d1d1"
     inkscape:document-units="mm"
     inkscape:zoom="4.0567375"
     inkscape:cx="131.87937"
     inkscape:cy="48.437939"
     inkscape:window-width="1920"
     inkscape:window-height="1001"
     inkscape:window-x="-9"
     inkscape:window-y="-9"
     inkscape:window-maximized="1"
     inkscape:current-layer="layer1" />
  <defs
     id="defs1" />
  <g
     inkscape:label="Layer 1"
     inkscape:groupmode="layer"
     id="layer1"
     transform="translate(-106.89169,-132.29161)">
    <path
       d="m 126.19901,132.30178 h -3.57403 l -3.05469,13.69452 h 3.55467 z"
       id="path4"
       style="stroke-width:1.61283" />
    <path
       d="m 173.40839,132.30178 h -3.57402 l -3.0547,13.69452 h 3.55467 z"
       id="path5"
       style="stroke-width:1.61283" />
    <path
       d="m 133.76994,139.55337 h -2.63052 l 1.04834,-5.35942 h 2.5773 z m 2.8789,-7.25933 h -7.63029 l -3.0805,13.70258 h 3.55467 l 0.98867,-4.34496 c 0.62094,0 0.78222,0.49675 0.78222,0.49675 l 1.01608,3.84821 h 3.51919 l -1.35316,-4.59495 c 1.90474,-0.005 2.22086,-1.34993 2.22086,-1.34993 l 1.42251,-6.20455 c 0.0371,-0.31773 0,-0.56933 0,-0.56933 -0.15644,-1.08382 -1.39187,-0.98382 -1.44025,-0.98382"
       id="path6"
       style="stroke-width:1.61283" />
    <path
       d="m 153.13838,137.82378 h -3.5208 l 0.69352,-3.10953 c 0,0 0.19676,-0.5532 -0.46127,-0.5532 h -1.7596 c 0,0 -0.39191,-0.0355 -0.49675,0.35643 l -2.00635,9.06086 c 0,0 -0.12581,0.58546 0.55158,0.58546 h 1.5467 c 0,0 0.45966,0.11129 0.58546,-0.46127 l 0.54997,-2.34666 h 3.64499 l -0.74674,3.0934 c 0,0 -0.53223,1.5467 -2.43536,1.5467 h -5.61748 c 0,0 -1.45477,-0.12419 -1.34994,-1.9741 l 2.18216,-9.82373 c 0,0 0.48062,-1.90313 1.99184,-1.90313 h 6.02552 c 0,0 1.68863,0 1.20962,2.45311 -0.46288,2.45311 -0.58707,3.07566 -0.58707,3.07566"
       id="path7"
       style="stroke-width:1.61283" />
    <path
       d="m 163.40645,132.30178 -1.24188,5.55296 h -2.63214 l 1.24188,-5.55296 h -3.57241 l -3.05469,13.69452 h 3.55467 l 1.44025,-6.3997 h 2.63052 l -1.42251,6.3997 h 3.55628 l 3.0547,-13.69452 z"
       id="path8"
       style="stroke-width:1.61283" />
    <path
       d="m 182.33378,132.30146 -1.59831,7.63351 -1.24672,-7.63351 h -3.32404 l -2.84018,13.69451 h 3.30468 l 1.51122,-7.19966 1.33381,7.19966 h 3.32403 l 2.8418,-13.69451 z"
       id="path9"
       style="stroke-width:1.61283" />
    <path
       d="m 114.73165,138.1136 h -2.52408 l 0.88867,-3.76756 h 2.55956 z m -2.55956,-5.81263 c -1.95475,0 -2.45311,2.1499 -2.45311,2.1499 l -2.82729,11.54462 h 3.46758 l 1.5467,-6.17552 h 2.50634 l -0.48063,1.99185 -1.01285,4.18367 h 3.67886 l 3.0934,-13.69452 z"
       id="path10"
       style="stroke-width:1.61283" />
    <path
       d="m 192.89892,138.1136 h -2.52407 l 0.88867,-3.76756 h 2.55955 z m -2.55955,-5.81263 c -1.95475,0 -2.45311,2.1499 -2.45311,2.1499 l -2.82729,11.54462 h 3.46758 l 1.54509,-6.17552 h 2.50794 l -0.48062,1.99185 -1.01285,4.18367 h 3.67886 l 3.0934,-13.69452 z"
       id="path11"
       style="stroke-width:1.61283" />
  </g>
</svg>
