<?xml version="1.0" encoding="utf-8"?>
<!-- Generator: Adobe Illustrator 22.0.1, SVG Export Plug-In . SVG Version: 6.00 Build 0)  -->
<svg version="1.1" xmlns="http://www.w3.org/2000/svg" xmlns:xlink="http://www.w3.org/1999/xlink" x="0px" y="0px"
	 viewBox="0 0 5000 2448" style="enable-background:new 0 0 5000 2448;" xml:space="preserve">
<style type="text/css">
	.st0{fill:#ED1C24;}
</style>
<g id="Layer_2">
</g>
<g id="Layer_3">
	<g>
		<g>
			<path class="st0" d="M3033.4,1567.8l471.9-454.2c-51.1,44.4-126,102.2-225.2,156c-40,21.7-98.8,53.2-179.8,79.5
				c-65.3,21.1-166,45.7-294.4,45.4c-47.8,0.8-197.4-3.1-324.4-109.8c-78.1-65.6-113.1-141-120.6-157.7
				c-39.8-89.1-37.9-166.7-37.1-185.4c3.4-81.1,31.3-139.1,53-182.8c38.3-77.4,93.6-150.6,188.1-233.1
				c46.5-40.6,137.9-114.4,374.5-230.6c99.8-49,236.3-110.9,404.2-172l-977.4,235.8c-42.2,36.8-128.8,122.6-172.2,262.2
				c-8.7,27.9-37.4,128.5-18.5,256.9c15.4,104.5,54.9,176.6,87.4,235.8c45.8,83.4,96.8,144.8,135.1,185.4
				c-56.8-26.9-127.7-65.2-204-119.2c-28.6-20.2-114.1-82.4-209.3-182.8c-69.3-73.1-161.6-185.3-243.7-341.7l-246.3,103.3h180.1
				l802.5,809.2H3033.4z"/>
			<polygon class="st0" points="2493.1,1583.7 2586,1677.2 2616.4,1646.8 2616.4,1646.8 2645.3,1617.9 2699,1671.7 2752.7,1617.9 
				2806.4,1671.7 2860.1,1617.9 2898.1,1655.9 2919.4,1677.3 2919.5,1677.4 3016.8,1583.7 			"/>
			<polygon class="st0" points="2886.8,1667.2 2860.1,1640.4 2806.4,1694.1 2752.7,1640.4 2699,1694.1 2645.3,1640.4 2597.2,1688.5 
				2597.2,1688.5 2597.2,1688.5 2633.8,1725.5 2869.5,1725.5 2908.1,1688.4 			"/>
		</g>
		<g>
			<path class="st0" d="M313.9,1915.2h102.5l149.4,401.2h-98.9l-27.5-76.1h-148l-27.5,76.1h-98.9L313.9,1915.2z M409.8,2157.5
				l-44.7-124l-44.4,124H409.8z"/>
			<path class="st0" d="M656.8,1915.2h102.5v401.2H656.8V1915.2z"/>
			<path class="st0" d="M875.7,1915.2h221.3c72,0,119.9,50.7,119.9,126.5c0,43.3-15.8,78.2-42.8,100c18.5,13.1,29.4,34.9,33.5,71.1
				l11.5,103.6h-99.8l-11.7-103.6c-3-26.7-13.9-45-34.9-45h-94.6v148.6H875.7V1915.2z M1081.5,2086.3c21,0,35.2-18,35.2-44.7
				c0-26.4-14.2-44.7-35.2-44.7H978.2v89.4H1081.5z"/>
			<path class="st0" d="M1517.1,1915.2h221.3c72,0,119.9,50.7,119.9,126.5c0,43.3-15.8,78.2-42.8,100c18.5,13.1,29.4,34.9,33.5,71.1
				l11.5,103.6h-99.8l-11.7-103.6c-3-26.7-13.9-45-34.9-45h-94.6v148.6h-102.5V1915.2z M1722.9,2086.3c21,0,35.2-18,35.2-44.7
				c0-26.4-14.2-44.7-35.2-44.7h-103.3v89.4H1722.9z"/>
			<path class="st0" d="M1971,1915.2h102.5v156.5h139.3v-156.5h102.5v401.2h-102.5v-156.5h-139.3v156.5H1971V1915.2z"/>
			<path class="st0" d="M2420.4,2115.8c0-125.4,79.3-209.3,197.9-209.3c118.6,0,197.9,84,197.9,209.3s-79.3,209.3-197.9,209.3
				C2499.8,2325.1,2420.4,2241.2,2420.4,2115.8z M2713.7,2115.8c0-74.4-38.4-124.3-95.4-124.3c-57,0-95.4,49.9-95.4,124.3
				c0,74.4,38.4,124.3,95.4,124.3C2675.3,2240.1,2713.7,2189.9,2713.7,2115.8z"/>
			<path class="st0" d="M2921.7,1915.2h180.2c106.3,0,177.7,80.4,177.7,200.6c0,120.2-71.4,200.6-178,200.6h-179.9V1915.2z
				 M3101.6,2228.1c45.3,0,75.5-45,75.5-112.3c0-67.1-30.3-112.3-75.2-112.3h-77.7v224.6H3101.6z"/>
			<path class="st0" d="M3382.9,1915.2h316.7v88.3h-214.3v70.9h188.3v82.9h-188.3v70.9h219.7v88.3h-322.2V1915.2z"/>
			<path class="st0" d="M3793.9,2184.2h102.5c0,35.4,28.4,59.1,70.6,59.1c42,0,70.3-17.4,70.3-43.6c0-30.8-38.4-40.1-83.7-50.7
				c-65.7-15.3-146.7-34.9-146.7-126.8c0-69.2,64.1-115.8,160-115.8c95.9,0,159.7,49.6,159.7,124h-102.5c0-25.3-22.9-42.2-57.2-42.2
				c-34.3,0-57.5,13.6-57.5,34.1c0,29.4,37.1,37.6,81.2,47.2c66,13.9,149.1,32.4,149.1,130.3c0,75-69.2,125.4-172.8,125.4
				C3863.2,2325.1,3793.9,2268.4,3793.9,2184.2z"/>
			<path class="st0" d="M4241.2,1915.2h102.5v401.2h-102.5V1915.2z"/>
			<path class="st0" d="M4583.4,1915.2h102.5l149.4,401.2h-98.9l-27.5-76.1h-148l-27.5,76.1h-98.9L4583.4,1915.2z M4679.3,2157.5
				l-44.7-124l-44.4,124H4679.3z"/>
		</g>
	</g>
</g>
</svg>
