<?xml version="1.0" encoding="utf-8"?>
<!-- Generator: Adobe Illustrator 13.0.0, SVG Export Plug-In . SVG Version: 6.00 Build 14948)  -->
<!DOCTYPE svg PUBLIC "-//W3C//DTD SVG 1.0//EN" "http://www.w3.org/TR/2001/REC-SVG-20010904/DTD/svg10.dtd">
<svg version="1.0" id="Layer_1" xmlns="http://www.w3.org/2000/svg" xmlns:xlink="http://www.w3.org/1999/xlink" x="0px" y="0px"
	 width="600px" height="600.003px" viewBox="0 0 600 600.003" enable-background="new 0 0 600 600.003" xml:space="preserve">
<rect fill="#BE2025" width="600" height="600.003"/>
<path fill="#FFFFFF" d="M305.198,480.895c128.184,0,232.1-103.915,232.1-232.172c0-128.192-103.916-232.107-232.1-232.107
	c-128.29,0-232.18,103.915-232.18,232.107C73.019,376.98,176.908,480.895,305.198,480.895z M305.198,39.834
	c115.334,0,208.861,93.547,208.861,208.889c0,115.401-93.527,208.954-208.861,208.954c-115.415,0-208.965-93.553-208.965-208.954
	C96.233,133.381,189.783,39.834,305.198,39.834z M173.362,516.839c-1.846,1.203-3.891,3.396-6.033,6.672l1.281-7.461h-16.346
	l-8.026,45.672h17.553l2.712-15.338c1.278-7.316,3.051-12.291,5.313-14.998c1.626-1.842,3.546-2.826,5.813-2.826
	c1.23,0,2.779,0.414,4.699,1.349l7.609-12.506c-2.785-1.644-5.417-2.407-8.026-2.407
	C177.497,514.996,175.282,515.555,173.362,516.839z M124.371,510.505h17.455l2.067-11.711h-17.477L124.371,510.505z
	 M115.337,561.722h17.404l8.102-45.672h-17.405L115.337,561.722z M106.819,519.521c-1.773-1.844-4.26-3.127-7.312-3.691
	c-3.052-0.568-7.237-0.834-12.431-0.834c-3.276,0-6.4,0.195-9.234,0.705c-2.904,0.498-5.267,1.213-6.965,2.047
	c-2.487,1.203-4.457,2.707-5.958,4.404c-1.431,1.629-2.784,3.991-3.918,6.898l16.349,1.623c1.059-1.918,2.192-3.252,3.398-3.967
	c1.65-0.863,3.841-1.348,6.67-1.348c2.29,0,3.766,0.414,4.482,1.273c0.714,0.84,0.934,2.418,0.492,4.535
	c-2.266,0.863-4.455,1.578-6.525,2.067c-1.992,0.563-6.4,1.503-13.22,2.852c-5.61,1.063-9.651,2.687-12.063,4.974
	c-2.484,2.268-3.988,5.095-4.627,8.591c-0.64,3.696,0.222,6.821,2.635,9.354c2.337,2.562,6.25,3.77,11.644,3.77
	c4.136,0,7.831-0.568,11.077-1.842c2.487-0.989,5.047-2.563,7.682-4.83c0,1.359,0,2.343,0.149,2.902
	c0.072,0.645,0.342,1.578,0.762,2.717h16.421c-0.564-1.854-0.861-3.401-0.934-4.609c-0.075-1.279,0.072-2.928,0.514-5.119
	l3.547-20.192c0.344-2.112,0.344-4.38-0.075-6.792C108.887,522.652,108.025,520.798,106.819,519.521z M90.349,542.833
	c-0.367,2.193-1.01,3.965-1.918,5.318c-1.012,1.354-2.34,2.488-4.186,3.472c-1.846,0.938-3.695,1.423-5.613,1.423
	c-1.848,0-3.201-0.414-3.99-1.348c-0.784-0.84-1.057-1.998-0.837-3.326c0.197-1.209,0.914-2.287,2.043-3.271
	c1.062-0.934,3.496-1.848,7.188-2.781c2.685-0.641,5.319-1.404,7.807-2.268L90.349,542.833z M542.196,498.794l-2.137,11.711h17.475
	l2.047-11.711H542.196z M516.546,516.05l-12.51,28.637l-4.6-28.637h-15.638l-14.323,28.637l-2.367-28.637h-16.886l8.86,45.672
	h15.637l13.784-27.479l4.404,27.479h15.532l24.941-45.672H516.546z M531.045,561.722h17.449l8.031-45.672h-17.38L531.045,561.722z
	 M439.41,519.521c-1.768-1.844-4.255-3.127-7.307-3.691c-3.057-0.568-7.241-0.834-12.436-0.834c-3.276,0-6.322,0.195-9.229,0.705
	c-2.906,0.498-5.244,1.213-6.967,2.047c-2.487,1.203-4.455,2.707-5.883,4.404c-1.504,1.629-2.832,3.991-3.99,6.898l16.421,1.623
	c0.983-1.918,2.117-3.252,3.326-3.967c1.647-0.863,3.835-1.348,6.697-1.348c2.262,0,3.74,0.414,4.454,1.273
	c0.715,0.84,0.935,2.418,0.515,4.535c-2.287,0.863-4.479,1.578-6.547,2.067c-1.998,0.563-6.403,1.503-13.2,2.852
	c-5.608,1.063-9.669,2.687-12.086,4.974c-2.412,2.268-3.966,5.095-4.55,8.591c-0.689,3.696,0.145,6.821,2.562,9.354
	c2.357,2.562,6.248,3.77,11.637,3.77c4.141,0,7.836-0.568,11.152-1.842c2.412-0.989,4.975-2.563,7.606-4.83
	c0,1.359,0,2.343,0.155,2.902c0.074,0.645,0.344,1.578,0.783,2.717h16.472c-0.64-1.854-0.935-3.401-0.984-4.609
	c-0.069-1.279,0.05-2.928,0.489-5.119l3.546-20.192c0.345-2.112,0.345-4.38-0.074-6.792
	C441.483,522.652,440.624,520.798,439.41,519.521z M423.02,542.833c-0.439,2.193-1.06,3.965-1.993,5.318
	c-0.983,1.354-2.342,2.488-4.186,3.472c-1.848,0.938-3.695,1.423-5.618,1.423c-1.843,0-3.201-0.414-3.98-1.348
	c-0.764-0.84-1.063-1.998-0.839-3.326c0.195-1.209,0.909-2.287,2.043-3.271c1.078-0.934,3.496-1.848,7.187-2.781
	c2.687-0.641,5.318-1.404,7.806-2.268L423.02,542.833z M351.356,519.521c-1.772-1.844-4.188-3.127-7.316-3.691
	c-3.049-0.568-7.187-0.834-12.428-0.834c-3.276,0-6.33,0.195-9.232,0.705c-2.934,0.498-5.193,1.213-6.967,2.047
	c-2.486,1.203-4.412,2.707-5.883,4.404c-1.503,1.629-2.861,3.991-3.99,6.898l16.418,1.623c0.984-1.918,2.12-3.252,3.396-3.967
	c1.553-0.863,3.771-1.348,6.672-1.348c2.221,0,3.691,0.414,4.408,1.273c0.714,0.84,0.934,2.418,0.566,4.535
	c-2.34,0.863-4.553,1.578-6.525,2.067c-2.064,0.563-6.472,1.503-13.289,2.852c-5.616,1.063-9.656,2.687-12.063,4.974
	c-2.412,2.268-3.99,5.095-4.558,8.591c-0.642,3.696,0.22,6.821,2.56,9.354c2.34,2.562,6.258,3.77,11.719,3.77
	c4.041,0,7.731-0.568,11.08-1.842c2.412-0.989,4.975-2.563,7.681-4.83c-0.074,1.359,0,2.343,0.073,2.902
	c0.05,0.645,0.342,1.578,0.764,2.717h16.491c-0.56-1.854-0.934-3.401-1.009-4.609c-0.07-1.279,0.149-2.928,0.494-5.119l3.571-20.192
	c0.339-2.112,0.339-4.38-0.075-6.792C353.47,522.652,352.631,520.798,351.356,519.521z M334.936,542.833
	c-0.422,2.193-1.063,3.965-1.973,5.318c-0.937,1.354-2.364,2.488-4.21,3.472c-1.772,0.938-3.69,1.423-5.586,1.423
	c-1.846,0-3.201-0.414-3.99-1.348c-0.787-0.84-1.057-1.998-0.861-3.326c0.22-1.209,0.936-2.287,2.064-3.271
	c1.064-0.934,3.479-1.848,7.17-2.781c2.706-0.641,5.338-1.404,7.9-2.268L334.936,542.833z M371.024,498.794l-11.152,62.928h17.63
	l11.077-62.928H371.024z M282.669,514.996c-3.326,0-6.178,0.484-8.665,1.543c-2.415,1.064-5.319,3.132-8.593,6.113
	c-0.861-2.563-2.268-4.465-4.186-5.738c-1.845-1.283-4.627-1.918-8.322-1.918c-3.321,0-6.375,0.56-8.935,1.768
	c-2.635,1.135-5.342,3.127-8.174,5.889l1.134-6.602h-16.323l-8.101,45.672h17.604l4.133-23.368c0.569-3.472,1.698-5.958,3.179-7.462
	c1.576-1.578,3.421-2.332,5.416-2.332c1.206,0,2.19,0.34,3.052,1.054c0.764,0.72,1.209,1.628,1.403,2.782
	c0.072,0.764,0,2.122-0.345,4.109l-4.479,25.217h17.625l4.112-23.663c0.64-3.321,1.626-5.738,3.198-7.241
	c1.479-1.504,3.276-2.258,5.319-2.258c1.723,0,3.052,0.754,3.913,2.407c0.642,0.989,0.789,2.558,0.42,4.604l-4.605,26.15h17.532
	l5.119-28.682c1.06-6.178,0.489-10.813-1.698-13.715C291.111,516.394,287.568,514.996,282.669,514.996z"/>
<path d="M575.723,366.841c-15.727-6.576-385.497-161.498-453.05-174.229c1.479,0.05,3.227-3.916,19.201-8.175
	c6.697-3.491,9.062-7.552,7.928-11.717c-1.795-6.597-10.046-6.962-17.649-6.767c-9.432,0.05-93.944,1.253-118.491,27.054
	l-1.623,1.703l-1.083,2.751c-0.271,6.573,3.963,7.756,30.427,11.991c0.272,0.465,214.355,109.699,509.061,170.359
	c8.64,2.213,20.437,4.04,25.85-0.275l8.32-6.617L575.723,366.841z M231.118,196.503c4.529,9.774,16.076,34.81,16.076,34.81
	l39.362,14.873c0,0,46.576-19.427,71.862-29.985c-12.681,16.516-33.382,43.475-33.382,43.475l50.027,21.05l106.472-118.638H371.464
	c0,0-60.463,29.911-73.58,36.413c-1.156-11.107-3.99-38.456-3.99-38.456H190.548l-35.107,38.356l51.256,17.869
	C206.696,216.271,223.56,202.611,231.118,196.503z"/>
<path fill="#FFFFFF" d="M121.518,198.791c0,0-15.93-11.172,18.735-20.432c0,0,11.839-6.598-7.953-6.103
	c0,0-90.646,0.49-114.059,25.086c0,0-8.442,0.665,24.152,5.883c0,0,212.063,109.254,509.327,170.409c0,0,21.715,5.588,21.57-0.965
	C573.291,372.669,189.169,211.571,121.518,198.791z M233.458,186.51l18.389,39.834l34.588,13.07l91.406-38.136l-42.83,55.761
	l38.355,16.126l94.037-104.774h-94.461l-80.4,39.784l-4.335-41.827h-94.88l-26.784,29.247l38.923,13.564L233.458,186.51z"/>
</svg>
