<?xml version="1.0" encoding="utf-8"?>
<!-- Generator: Adobe Illustrator 13.0.0, SVG Export Plug-In . SVG Version: 6.00 Build 14948)  -->
<!DOCTYPE svg PUBLIC "-//W3C//DTD SVG 1.0//EN" "http://www.w3.org/TR/2001/REC-SVG-20010904/DTD/svg10.dtd">
<svg version="1.0" id="Ebene_1" xmlns="http://www.w3.org/2000/svg" xmlns:xlink="http://www.w3.org/1999/xlink" x="0px" y="0px"
	 width="175.748px" height="67.694px" viewBox="0 0 175.748 67.694" enable-background="new 0 0 175.748 67.694"
	 xml:space="preserve">
<path fill-rule="evenodd" clip-rule="evenodd" fill="#00A4DC" d="M145.36,66.167c0-0.131,0-0.131,0-0.262v-0.789
	c0-0.133,0-0.133,0-0.133c-0.132-0.395-0.526-0.525-0.657-0.525c0.263-0.131,0.525-0.264,0.657-0.525c0,0,0.132-0.133,0.132-0.264
	c0.132-0.264,0.132-0.527,0-0.658c0-0.131,0-0.131,0-0.264c-0.264-0.525-0.789-0.789-1.315-0.789h-3.289v4.736h1.185v-1.842h1.446
	c0.132,0,0.396,0,0.526,0.131c0.132,0,0.132,0.133,0.132,0.264V66.3c0,0.131,0.132,0.264,0.132,0.395h1.315v-0.131
	C145.492,66.431,145.36,66.431,145.36,66.167z M143.914,63.933c0,0.131-0.132,0.131-0.132,0.131h-1.71v-1.316h1.578
	c0.395,0,0.658,0.133,0.658,0.264c0.131,0.131,0.131,0.131,0.131,0.264C144.439,63.669,144.177,63.933,143.914,63.933z
	 M164.961,66.167c0-0.131,0-0.131,0-0.262v-0.789c0-0.133,0-0.133-0.131-0.133c0-0.395-0.395-0.525-0.526-0.525
	c0.263-0.131,0.395-0.264,0.657-0.525c0,0,0-0.133,0.132-0.264v-0.658c0-0.131,0-0.131-0.132-0.264
	c-0.131-0.525-0.657-0.789-1.315-0.789h-3.157v4.736h1.185v-1.842h1.446c0.132,0,0.395,0,0.526,0.131c0,0,0.132,0.133,0.132,0.264
	V66.3c0,0.131,0,0.264,0.132,0.395h1.315v-0.131C165.093,66.431,164.961,66.431,164.961,66.167z M163.514,63.933
	c-0.131,0.131-0.131,0.131-0.263,0.131h-1.578v-1.316h1.578c0.395,0,0.526,0.133,0.658,0.264c0.131,0.131,0.131,0.131,0.131,0.264
	C164.04,63.669,163.777,63.933,163.514,63.933z M77.613,64.984l-0.395-1.051l-0.395-0.922l-0.395-1.053h-1.316l-0.526,1.053
	l-0.395,0.922l-0.395,1.051l-0.395,0.922l-0.263,0.789h1.184l0.263-0.789l0.131-0.133h2.105v0.133l0.395,0.789h1.184l-0.395-0.789
	L77.613,64.984z M74.982,64.984l0.395-1.051l0.395-0.791l0.395,0.791l0.395,1.051H74.982z M56.829,64.722h2.763V63.8h-2.763v-1.053
	h3.026v-0.789h-4.21v4.736h4.341v-0.789h-3.157V64.722z M94.583,64.984l-0.395-1.051l-0.395-0.922l-0.395-1.053h-1.315l-0.526,1.053
	l-0.395,0.922l-0.395,1.051l-0.396,0.922l-0.263,0.789h1.184l0.264-0.789l0.132-0.133h2.104v0.133l0.395,0.789h1.184l-0.395-0.789
	L94.583,64.984z M91.952,64.984l0.395-1.051l0.395-0.791l0.395,0.791l0.395,1.051H91.952z M40.254,64.984l-0.395-1.051l-0.395-0.922
	l-0.395-1.053h-1.447l-0.395,1.053l-0.395,0.922l-0.395,1.051l-0.395,0.922l-0.395,0.789h1.184l0.395-0.789v-0.133h2.105
	l0.132,0.133l0.263,0.789h1.184l-0.263-0.789L40.254,64.984z M37.623,64.984l0.395-1.051l0.263-0.791l0.395,0.791l0.395,1.051
	H37.623z M8.945,64.984l-0.395-1.051l-0.395-0.922L7.63,61.958H6.314L5.92,63.011l-0.395,0.922L5.13,64.984l-0.526,0.922
	l-0.263,0.789h1.184l0.395-0.789v-0.133h2.104l0.131,0.133l0.264,0.789h1.184L9.34,65.906L8.945,64.984z M6.314,64.984l0.395-1.051
	l0.263-0.791l0.395,0.791l0.395,1.051H6.314z M1.184,61.958H0v4.736h3.946v-0.789H1.184V61.958z M134.179,64.984l-0.395-1.051
	l-0.395-0.922l-0.395-1.053h-1.315l-0.526,1.053l-0.395,0.922l-0.395,1.051l-0.395,0.922l-0.264,0.789h1.185l0.263-0.789
	l0.132-0.133h2.104v0.133l0.395,0.789h1.185l-0.396-0.789L134.179,64.984z M131.548,64.984l0.395-1.051l0.395-0.791l0.395,0.791
	l0.396,1.051H131.548z M104.712,64.722h2.763V63.8h-2.763v-1.053h2.895v-0.789h-4.078v4.736h4.21v-0.789h-3.026V64.722z
	 M149.702,63.933c0-0.133,0-0.396,0.131-0.527c0-0.131,0.132-0.264,0.395-0.395c0.132-0.131,0.395-0.264,0.789-0.264
	c0.526,0,0.79,0.133,1.053,0.264c0.264,0.264,0.264,0.395,0.264,0.525h1.184c0-0.131,0-0.262-0.132-0.525
	c-0.131-0.264-0.263-0.525-0.789-0.789s-1.053-0.264-1.447-0.264c-1.315,0-1.973,0.395-2.368,1.053c0,0.131-0.131,0.264-0.131,0.525
	c-0.132,0.133-0.132,0.264-0.132,0.396v1.051c0,0,0,0.133,0.132,0.264c0,0.264,0.131,0.395,0.263,0.658
	c0.526,0.525,1.185,0.92,2.104,0.92c0.79,0,1.447-0.262,1.711-0.395c0.131-0.131,0.395-0.395,0.526-0.525
	c0.131-0.264,0.263-0.527,0.263-0.789h-1.184c0,0.131,0,0.525-0.658,0.789c-0.132,0-0.132,0-0.132,0
	c-0.263,0.131-0.395,0.131-0.526,0.131c-0.131,0-0.263-0.131-0.525-0.131c-0.264-0.133-0.526-0.264-0.658-0.658
	c-0.131-0.131-0.131-0.131-0.131-0.264c0-0.262-0.132-0.525,0-0.656V63.933z M72.22,63.933c0.132,0,0.132-0.133,0.132-0.264
	c0.131-0.264,0.131-0.527,0.131-0.658c-0.131-0.131-0.131-0.131-0.131-0.264c-0.132-0.525-0.79-0.789-1.315-0.789h-3.157v4.736
	h1.184v-1.842h1.315c0.264,0,0.395,0,0.526,0.131c0.132,0,0.132,0.133,0.263,0.264c-0.131,0.264-0.131,0.525-0.131,0.658
	c0,0.131,0.131,0.262,0.131,0.395c0,0.131,0,0.264,0.132,0.395h1.184v-0.131c-0.131-0.133-0.131-0.133-0.131-0.396
	c0-0.131,0-0.131,0-0.262c0-0.264-0.132-0.658-0.132-0.789c0-0.133,0-0.133,0-0.133c-0.131-0.395-0.395-0.525-0.658-0.525
	C71.825,64.328,72.088,64.195,72.22,63.933z M70.904,63.933c-0.131,0.131-0.263,0.131-0.263,0.131h-1.579v-1.316h1.579
	c0.263,0,0.526,0.133,0.658,0.264c0,0.131,0,0.131,0,0.264C71.431,63.669,71.167,63.933,70.904,63.933z M102.213,64.458
	c-0.263-0.264-0.921-0.395-1.184-0.525h-0.132c-0.132,0-1.315-0.133-1.447-0.264c-0.263,0-0.395-0.133-0.263-0.395
	c0-0.133,0-0.133,0-0.264c0.131-0.264,0.525-0.395,0.921-0.395c0.525,0.131,0.921,0.264,1.052,0.395
	c0.132,0.131,0.132,0.264,0.132,0.395h1.184c0,0,0-0.264-0.131-0.395c0-0.131-0.132-0.395-0.264-0.525
	c-0.526-0.527-1.578-0.527-1.842-0.527c-1.315,0-1.973,0.395-2.104,1.053c-0.131,0.131-0.131,0.131-0.131,0.264
	c0,0.262,0.131,0.525,0.263,0.658c0.132,0.262,0.395,0.525,0.789,0.525c0.657,0.264,1.71,0.264,2.104,0.525h0.132
	c0.263,0.264,0.263,0.658,0,0.789c0,0.133-0.132,0.133-0.132,0.133c-0.263,0.131-0.526,0.131-0.789,0.131s-0.526,0-0.789-0.131
	c-0.132,0-0.264-0.133-0.264-0.133c-0.263-0.131-0.263-0.395-0.263-0.525h-1.184c0.132,0.264,0.132,0.525,0.263,0.658
	c0.132,0.262,0.264,0.395,0.526,0.525c0.526,0.264,1.184,0.395,1.447,0.395c0.657,0,1.315-0.131,1.842-0.395
	c0.263,0,0.395-0.264,0.525-0.525c0.132-0.264,0.264-0.658,0.132-0.922C102.476,64.722,102.476,64.589,102.213,64.458z
	 M43.148,63.011c0,0,0,0,0.131,0c0.263-0.264,0.526-0.264,0.921-0.264s0.79,0,1.052,0.264c0.132,0.131,0.263,0.264,0.395,0.525H46.7
	c0-0.131,0-0.262-0.132-0.525c-0.131-0.131-0.263-0.395-0.526-0.525c-0.526-0.527-1.316-0.527-1.842-0.527
	c-0.526,0-0.921,0-1.184,0.133c-0.526,0.131-0.921,0.525-1.184,0.92c-0.132,0.264-0.263,0.658-0.395,0.922
	c0,0.395,0,0.656,0.131,1.051c0,0.264,0.131,0.658,0.395,0.922c0.131,0.131,0.263,0.262,0.395,0.262
	c0.263,0.264,0.526,0.658,1.579,0.658c1.184,0,1.579-0.395,1.842-0.658l0.263,0.527H46.7v-2.5h-2.368l0.132,0.789h1.184
	c0,0.133,0,0.264-0.263,0.658c-0.132,0.131-0.263,0.264-0.526,0.264c-0.263,0.131-0.526,0.131-0.79,0.131
	c-0.131,0-0.395,0-0.526-0.131c-0.395-0.133-0.658-0.395-0.79-0.658c0-0.131,0-0.264-0.131-0.264c0-0.262-0.131-0.656,0-1.051
	C42.622,63.669,42.885,63.275,43.148,63.011z M85.901,63.406c0-0.131,0.131-0.264,0.263-0.395c0.263-0.131,0.526-0.264,0.789-0.264
	c0.658,0,0.921,0.133,1.184,0.264c0.263,0.264,0.263,0.395,0.263,0.525h1.184c0-0.131,0-0.262-0.131-0.525
	c-0.132-0.264-0.395-0.525-0.79-0.789c-0.526-0.264-1.052-0.264-1.578-0.264c-1.184,0-1.842,0.395-2.236,1.053
	c0,0.131-0.132,0.264-0.132,0.525c-0.131,0.133-0.131,0.264-0.131,0.396v1.051c0,0,0,0.133,0,0.264
	c0.131,0.264,0.263,0.395,0.395,0.658c0.526,0.525,1.184,0.92,2.105,0.92c0.658,0,1.315-0.262,1.71-0.395
	c0.132-0.131,0.395-0.395,0.395-0.525c0.264-0.264,0.395-0.527,0.395-0.789H88.4c0,0.131,0,0.525-0.79,0.789
	c-0.263,0.131-0.395,0.131-0.526,0.131c-0.132,0-0.395-0.131-0.526-0.131c-0.263-0.133-0.526-0.264-0.658-0.658
	c-0.131-0.131-0.131-0.131-0.131-0.264c-0.132-0.262-0.132-0.525-0.132-0.656c0-0.133,0-0.264,0.132-0.395
	C85.77,63.8,85.77,63.537,85.901,63.406z M115.367,63.011c-0.525-0.789-1.184-1.053-1.841-1.053h-2.631v4.736h2.631
	c0.525,0,1.184-0.264,1.578-0.789c0.132-0.264,0.395-0.527,0.395-0.922c0.132-0.262,0.132-0.525,0.132-0.92c0,0,0,0,0-0.131
	c0-0.396-0.132-0.658-0.264-0.791C115.367,63.011,115.367,63.011,115.367,63.011z M114.447,64.195c0,0.264,0,0.527-0.132,0.789
	c0,0.133,0,0.133-0.132,0.264c-0.132,0.395-0.657,0.658-1.184,0.658h-0.921v-3.158h1.053c0.263,0,0.525,0.133,0.789,0.264
	c0.131,0,0.131,0.131,0.263,0.264c0.132,0.131,0.264,0.395,0.264,0.658C114.447,64.064,114.447,64.195,114.447,64.195z
	 M125.497,63.406c0-0.131,0.132-0.264,0.263-0.395c0.264-0.131,0.526-0.264,0.789-0.264c0.658,0,0.921,0.133,1.185,0.264
	c0.263,0.264,0.263,0.395,0.263,0.525h1.185c0-0.131,0-0.262-0.132-0.525s-0.395-0.525-0.789-0.789
	c-0.526-0.264-1.053-0.264-1.579-0.264c-1.184,0-1.842,0.395-2.236,1.053c0,0.131-0.132,0.264-0.132,0.525
	c-0.131,0.133-0.131,0.264-0.131,0.396v1.051c0,0,0,0.133,0,0.264c0.131,0.264,0.263,0.395,0.395,0.658
	c0.526,0.525,1.184,0.92,2.104,0.92c0.658,0,1.315-0.262,1.71-0.395c0.132-0.131,0.395-0.395,0.395-0.525
	c0.264-0.264,0.396-0.527,0.396-0.789h-1.185c0,0.131,0,0.525-0.789,0.789c-0.264,0.131-0.395,0.131-0.526,0.131
	s-0.395-0.131-0.526-0.131c-0.263-0.133-0.525-0.264-0.657-0.658c-0.132-0.131-0.132-0.131-0.132-0.264
	c-0.132-0.262-0.132-0.525-0.132-0.656c0-0.133,0-0.264,0.132-0.395C125.365,63.8,125.365,63.537,125.497,63.406z M13.681,63.406
	c0-0.131,0.132-0.264,0.263-0.395c0.263-0.131,0.526-0.264,0.789-0.264c0.658,0,0.921,0.133,1.184,0.264
	c0.263,0.264,0.263,0.395,0.263,0.525h1.184c0-0.131,0-0.262-0.131-0.525c-0.132-0.264-0.395-0.525-0.79-0.789
	c-0.526-0.264-1.052-0.264-1.579-0.264c-1.184,0-1.841,0.395-2.236,1.053c0,0.131-0.132,0.264-0.132,0.525
	c-0.131,0.133-0.131,0.264-0.131,0.396v1.051c0,0,0,0.133,0,0.264c0.131,0.264,0.263,0.395,0.395,0.658
	c0.526,0.525,1.184,0.92,2.104,0.92c0.658,0,1.316-0.262,1.71-0.395c0.131-0.131,0.263-0.395,0.395-0.525
	c0.263-0.264,0.395-0.527,0.395-0.789h-1.184c0,0.131,0,0.525-0.79,0.789c-0.263,0.131-0.395,0.131-0.526,0.131
	c-0.131,0-0.395-0.131-0.526-0.131c-0.263-0.133-0.526-0.264-0.658-0.658c-0.132-0.131-0.132-0.131-0.132-0.264
	c-0.131-0.262-0.131-0.525-0.131-0.656c0-0.133,0-0.264,0.131-0.395C13.549,63.8,13.549,63.537,13.681,63.406z M34.992,62.748
	c-0.395-0.789-1.184-0.789-1.579-0.789h-2.631v4.736h1.184v-1.711h2.105c0.395-0.131,0.657-0.395,0.92-0.789
	c0.132-0.131,0.132-0.131,0.132-0.262c0.131-0.264,0.131-0.658,0-0.922C35.124,62.88,35.124,62.88,34.992,62.748z M33.939,63.8
	c0,0,0,0.133-0.132,0.133c-0.131,0.131-0.263,0.262-0.526,0.262h-1.315v-1.447h1.315c0.263,0,0.526,0.133,0.658,0.264
	c0,0,0,0.131,0.132,0.131C34.071,63.406,34.071,63.669,33.939,63.8z M22.626,62.486c-0.526-0.395-1.184-0.527-1.974-0.527
	c-0.657,0-1.447,0.133-1.841,0.527c-0.263,0.131-0.395,0.395-0.526,0.525c-0.131,0.264-0.263,0.658-0.263,0.922
	c-0.132,0.131-0.132,0.262-0.132,0.395c0,0.262,0.132,0.395,0.132,0.656c0.131,0.264,0.263,0.658,0.395,0.922
	c0.131,0.131,0.263,0.262,0.395,0.395c0.395,0.395,1.184,0.525,1.841,0.525c0.79,0,1.447-0.131,1.974-0.525
	c0.131-0.133,0.131-0.264,0.263-0.395c0.263-0.264,0.395-0.658,0.526-0.922v-1.051c-0.131-0.264-0.131-0.658-0.395-0.922
	C22.89,62.88,22.758,62.617,22.626,62.486z M22.231,64.984c-0.131,0.264-0.263,0.527-0.526,0.658
	c-0.131,0.131-0.263,0.264-0.526,0.264c-0.131,0-0.263,0.131-0.526,0.131c-0.131,0-0.395-0.131-0.526-0.131
	s-0.395-0.133-0.526-0.264c-0.131-0.131-0.395-0.395-0.395-0.658c-0.132-0.262-0.132-0.395-0.132-0.656v-0.395
	c0.132-0.264,0.264-0.658,0.526-0.922h0.132c0.263-0.131,0.658-0.264,0.92-0.264c0.395,0,0.658,0.133,1.053,0.264
	c0.263,0.264,0.526,0.658,0.526,0.922c0,0.131,0.132,0.262,0.132,0.395C22.363,64.589,22.231,64.722,22.231,64.984z M27.757,63.011
	l-0.263,0.922l-0.263,1.051l-0.263,0.658l-0.131-0.658l-0.263-1.051l-0.263-0.922l-0.395-1.053h-1.71v4.736h1.184v-3.684
	l0.263,0.922l0.263,1.051l0.263,0.922l0.263,0.789h1.184l0.132-0.789l0.263-0.922l0.263-1.051l0.263-0.922l0.132-0.131v3.814h1.052
	v-4.736h-1.71L27.757,63.011z M158.778,62.486c-0.526-0.395-1.184-0.527-1.973-0.527c-0.658,0-1.315,0.133-1.842,0.527
	c-0.132,0.131-0.264,0.395-0.396,0.525c-0.263,0.264-0.395,0.658-0.395,0.922v1.051c0.132,0.264,0.264,0.658,0.526,0.922
	c0,0.131,0.132,0.262,0.264,0.395c0.526,0.395,1.184,0.525,1.842,0.525c0.789,0,1.446-0.131,1.973-0.525
	c0.132-0.133,0.264-0.264,0.264-0.395c0.263-0.264,0.395-0.658,0.525-0.922v-1.051c0-0.264-0.131-0.658-0.395-0.922
	C159.042,62.88,158.91,62.617,158.778,62.486z M158.384,64.984c-0.132,0.264-0.263,0.527-0.526,0.658
	c-0.132,0.131-0.263,0.264-0.395,0.264c-0.263,0-0.395,0.131-0.657,0.131c-0.132,0-0.264-0.131-0.526-0.131
	c-0.132,0-0.264-0.133-0.526-0.264c-0.132-0.131-0.263-0.395-0.395-0.658c-0.132-0.262-0.132-0.395-0.132-0.656v-0.395
	c0.132-0.264,0.264-0.658,0.526-0.922h0.132c0.263-0.131,0.657-0.264,0.921-0.264c0.395,0,0.789,0.133,1.052,0.264
	c0.395,0.264,0.526,0.658,0.526,0.922c0.132,0.131,0.132,0.262,0.132,0.395C158.516,64.589,158.516,64.722,158.384,64.984z
	 M146.413,66.695h1.184v-4.736h-1.184V66.695z M139.967,62.748c-0.395-0.789-1.315-0.789-1.71-0.789h-2.631v4.736h1.184v-1.711
	h2.105c0.395-0.131,0.789-0.395,0.921-0.789c0.131-0.131,0.131-0.131,0.131-0.262c0.132-0.264,0.132-0.658,0-0.922
	C139.967,62.88,139.967,62.88,139.967,62.748z M138.783,63.8c0,0,0,0.133-0.132,0.133c0,0.131-0.263,0.262-0.526,0.262h-1.315
	v-1.447h1.315c0.264,0,0.526,0.133,0.658,0.264c0,0,0,0.131,0.132,0.131C138.915,63.406,138.915,63.669,138.783,63.8z
	 M175.748,62.748v-0.789h-3.946v4.736h3.946v-0.789h-2.763v-1.184h2.763V63.8h-2.763v-1.053H175.748z M169.565,65.248l-0.264-0.264
	l-0.657-1.051l-0.657-0.922l-0.79-1.053h-1.052v4.736h1.052v-3.289l0.526,0.527l0.658,1.051l0.657,0.922l0.526,0.789h1.184v-4.736
	h-1.184V65.248z M53.409,66.695h1.184v-4.736h-1.184V66.695z M63.011,66.695h1.184v-1.973h2.5V63.8h-2.5v-1.053h2.895v-0.789h-4.079
	V66.695z M51.172,65.248l-0.132-0.264l-0.657-1.051l-0.79-0.922l-0.658-1.053h-1.184v4.736h1.184v-3.289l0.395,0.527l0.658,1.051
	l0.658,0.922l0.526,0.789h1.184v-4.736h-1.184V65.248z M119.84,65.248c0,0.264,0,0.525-0.525,0.658
	c-0.132,0-0.264,0.131-0.526,0.131c-0.264,0-0.395-0.131-0.526-0.131c-0.526-0.133-0.526-0.395-0.526-0.658v-3.289h-1.184v3.289
	c0,0.131,0,0.395,0.263,0.658c0.132,0.262,0.395,0.525,0.921,0.789c0.263,0.131,0.658,0.131,1.053,0.131s0.921-0.131,1.184-0.131
	c0.526-0.264,0.789-0.527,0.921-0.789c0.132-0.264,0.132-0.527,0.132-0.658v-3.289h-1.185V65.248z M82.48,65.248l-0.131-0.264
	l-0.658-1.051l-0.79-0.922l-0.658-1.053h-1.184v4.736h1.184v-3.289l0.395,0.527l0.657,1.051l0.658,0.922l0.658,0.789h1.052v-4.736
	H82.48V65.248z M96.03,66.695h1.184v-4.736H96.03V66.695z"/>
<path fill-rule="evenodd" clip-rule="evenodd" fill="#00A4DC" d="M86.822,66.564c0,0,0.658,0-0.263,0.789
	c-1.052,0.789,1.184,0.131,1.842-1.186C89.058,64.853,86.822,66.564,86.822,66.564L86.822,66.564z"/>
<path fill-rule="evenodd" clip-rule="evenodd" fill="#00A4DC" d="M172.196,20.39V0.263h-56.829l15.786,20.127H172.196z
	 M41.833,25.125H4.341v7.104h31.703L41.833,25.125z M89.453,11.02v0.106c0.088-0.07,0.173-0.146,0.263-0.208
	C89.716,10.918,89.609,10.96,89.453,11.02z M64.985,25.783H78.14l1.315,6.446h8.024v-9.101c-1.632-1.061-2.791-2.704-2.104-5.238
	c0,0,0.784-2.346,2.104-4.435v-1.784c-2.676,0.768-6.919,1.508-7.893-1.147c0,0-1.315-1.973,2.631-3.815l4.078,0.92
	c0,0-4.341,2.895,0,3.289c0.397,0.048,0.792,0.04,1.184,0.007V0.395H72.352l-23.679,31.44h10.918L64.985,25.783z M83.796,19.864
	c-3.42,1.579-3.026,4.341-3.026,4.341h-3.157c-0.921,0.658-1.447,0.395-1.447,0.395C78.008,18.943,83.796,19.864,83.796,19.864z
	 M78.14,9.077v10.261h-8.682L78.14,9.077z M61.433,0H4.604v20.258h41.174L61.433,0z M134.969,25.257l5.788,7.104h31.834v-7.104
	H134.969z M98.661,25.915h13.154l5.525,6.051h10.919l-23.811-31.44H89.453v9.956c3.049-1.124,5.524-3.871,5.919-4.168l0.658,0.132
	c0,0-4.867,3.684-5.788,8.419c-0.357,1.565-0.694,2.914-0.789,4.125v1.201c0.164,1.798,1.157,3.302,3.946,4.803
	c0,0-1.947-0.16-3.946-0.899v8.266h8.023L98.661,25.915z M98.661,9.208l8.683,10.261h-8.683V9.208z M22.758,53.146h5.262V39.333
	h-5.262V53.146z M83.138,47.621c0,1.447-0.526,2.498-2.368,2.498c-2.104,0-2.5-1.184-2.5-2.498v-8.287h-5.262v7.76
	c0,4.867,2.762,6.447,7.761,6.447c5.262,0,7.63-1.975,7.63-6.314v-7.893h-5.262V47.621z M96.03,42.884
	c0-0.395,0.526-0.789,1.71-0.789c0.526,0,0.921,0.131,1.315,0.264c0.395,0.262,0.657,0.525,0.789,1.053h4.999
	c-0.395-2.5-2.499-4.473-6.84-4.473c-4.079,0-6.973,1.445-6.973,4.473c0,5.262,9.208,3.814,9.208,5.918
	c0,0.658-0.921,1.053-2.235,1.053c-0.527,0-1.053-0.131-1.447-0.395s-0.79-0.525-0.921-1.053h-4.999
	c0.132,2.5,2.894,4.605,7.104,4.605c4.341,0,7.498-1.58,7.498-4.736C105.238,43.673,96.03,44.99,96.03,42.884z M106.686,43.015
	h4.604v10.131h5.262V43.015h4.735v-3.682h-14.602V43.015z M163.251,39.333h-5.13v13.813h12.365v-3.158h-7.235V39.333z M9.866,39.333
	L4.078,53.146h5.13l0.658-1.842h5.13l0.658,1.842h5.13l-5.657-13.813H9.866z M10.787,48.41l1.579-4.867l1.71,4.867H10.787z
	 M45.647,50.382c0-2.895-1.053-3.156-2.631-3.684c1.842-0.525,2.631-1.842,2.631-3.42c0-2.762-1.71-3.945-7.104-3.945h-7.498v13.813
	h5.262V48.41h1.579c2.368,0,2.762,0.525,2.762,2.367c0,1.184,0.131,2.105,0.263,2.369h5.262v-0.395
	C45.647,52.751,45.647,52.093,45.647,50.382z M38.281,45.253h-1.973v-2.633h2.368c1.184,0,2.104,0.395,2.104,1.447
	C40.78,44.99,39.991,45.253,38.281,45.253z M60.249,39.333l-5.656,13.813h4.999l0.658-1.842h5.262l0.526,1.842h5.262l-5.788-13.813
	H60.249z M61.301,48.41l1.579-4.867l1.71,4.867H61.301z M137.862,50.382c0-2.895-0.921-3.156-2.631-3.684
	c1.842-0.525,2.631-1.842,2.631-3.42c0-2.762-1.71-3.945-6.972-3.945h-7.63v13.813h5.262V48.41h1.578c2.5,0,2.763,0.525,2.763,2.367
	c0,1.184,0.132,2.105,0.264,2.369h5.394v-0.395C137.862,52.751,137.862,52.093,137.862,50.382z M130.627,45.253h-2.104v-2.633h2.499
	c1.185,0,2.105,0.395,2.105,1.447C133.127,44.99,132.206,45.253,130.627,45.253z M145.098,39.333l-5.657,13.813h5.131l0.526-1.842
	h5.262l0.657,1.842h5.131l-5.656-13.813H145.098z M146.149,48.41l1.579-4.867l1.71,4.867H146.149z"/>
</svg>
