<?xml version="1.0" encoding="UTF-8" standalone="no"?>
<!-- Created with Inkscape (http://www.inkscape.org/) -->

<svg
   width="63.5mm"
   height="26.458332mm"
   viewBox="0 0 63.5 26.458332"
   version="1.1"
   id="svg5"
   inkscape:version="1.1.1 (3bf5ae0d25, 2021-09-20)"
   sodipodi:docname="dessin-13.svg"
   xmlns:inkscape="http://www.inkscape.org/namespaces/inkscape"
   xmlns:sodipodi="http://sodipodi.sourceforge.net/DTD/sodipodi-0.dtd"
   xmlns="http://www.w3.org/2000/svg"
   xmlns:svg="http://www.w3.org/2000/svg">
  <sodipodi:namedview
     id="namedview7"
     pagecolor="#ffffff"
     bordercolor="#666666"
     borderopacity="1.0"
     inkscape:pageshadow="2"
     inkscape:pageopacity="0.0"
     inkscape:pagecheckerboard="0"
     inkscape:document-units="mm"
     showgrid="false"
     inkscape:zoom="2.8284271"
     inkscape:cx="101.82338"
     inkscape:cy="32.350135"
     inkscape:window-width="1920"
     inkscape:window-height="991"
     inkscape:window-x="-9"
     inkscape:window-y="-9"
     inkscape:window-maximized="1"
     inkscape:current-layer="layer1" />
  <defs
     id="defs2" />
  <g
     inkscape:label="Calque 1"
     inkscape:groupmode="layer"
     id="layer1"
     transform="translate(-114.06502,-173.06708)">
    <path
       id="path3008-3"
       style="fill:#224697;fill-opacity:1;stroke:none;stroke-width:0.265134px;stroke-linecap:butt;stroke-linejoin:miter;stroke-opacity:1"
       d="m 120.15988,189.84206 -1.43866,4.49525 h 2.28017 l 0.14977,-0.54439 h 1.54894 l 0.14979,0.54439 h 2.28015 l -1.43866,-4.49525 z m 1.76575,1.13539 0.43994,1.59945 h -0.87988 z"
       sodipodi:nodetypes="ccccccccccccc" />
    <path
       id="rect3013-7"
       style="fill:#224697;fill-opacity:1;fill-rule:evenodd;stroke:none;stroke-width:0.28986"
       d="m 125.4929,189.84206 v 4.49525 h 2.20461 v -4.49525 z" />
    <path
       id="path3041-2"
       style="fill:#224697;fill-opacity:1;fill-rule:evenodd;stroke:none;stroke-width:0.257702"
       d="m 128.39842,189.83381 0.008,4.5035 h 2.24907 v -1.41034 l 1.04195,1.41034 h 2.68352 l -1.52676,-1.81627 c 0.51026,0 0.95417,-0.22923 1.17215,-0.55895 0.12612,-0.19077 0.18701,-0.49421 0.18701,-0.82305 0,-1.04368 -1.08855,-1.30523 -1.84589,-1.30523 z m 2.2562,1.29115 h 0.89752 c 0.24611,0 0.44561,0.1995 0.44561,0.4456 0,0.2461 -0.1995,0.44561 -0.44561,0.44561 h -0.89752 z"
       sodipodi:nodetypes="cccccccsssccssscc" />
    <path
       id="path8152"
       style="fill:#224697;fill-opacity:1;fill-rule:evenodd;stroke:none;stroke-width:0.28986"
       d="m 137.43926,189.84206 v 4.49525 h 2.20456 v -1.09848 h 2.72545 v -1.33276 h -2.72545 v -0.49112 h 2.72545 v -1.57289 z"
       sodipodi:nodetypes="ccccccccccc" />
    <path
       id="path8712"
       style="fill:#224697;fill-opacity:1;fill-rule:evenodd;stroke:none;stroke-width:0.257702"
       d="m 142.98941,189.83381 0.008,4.5035 h 2.24907 v -1.41034 l 1.04197,1.41034 h 2.68352 l -1.52676,-1.81627 c 0.51026,0 0.95417,-0.22923 1.17214,-0.55895 0.12612,-0.19077 0.18702,-0.49421 0.18702,-0.82305 0,-1.04368 -1.08856,-1.30523 -1.84589,-1.30523 z m 2.25622,1.29115 h 0.89752 c 0.24611,0 0.44561,0.1995 0.44561,0.4456 0,0.2461 -0.19951,0.44561 -0.44561,0.44561 h -0.89752 z"
       sodipodi:nodetypes="cccccccsssccssscc" />
    <path
       id="path8714"
       style="fill:#224697;fill-opacity:1;stroke:none;stroke-width:0.265134px;stroke-linecap:butt;stroke-linejoin:miter;stroke-opacity:1"
       d="m 150.40976,189.84206 -1.43866,4.49525 h 2.28017 l 0.14976,-0.54438 h 1.54894 l 0.14976,0.54438 h 2.28017 l -1.43866,-4.49525 z m 1.76573,1.13539 0.43996,1.59946 h -0.87989 z"
       sodipodi:nodetypes="ccccccccccccc" />
    <path
       id="path8956"
       style="fill:#224697;fill-opacity:1;fill-rule:evenodd;stroke:none;stroke-width:0.294137"
       d="m 167.83229,189.84206 v 4.49525 h 5.07652 v -1.13216 h -2.80657 v -0.42148 h 2.80657 v -1.04665 h -2.80657 v -0.42569 h 2.80657 v -1.46927 z"
       sodipodi:nodetypes="ccccccccccccc" />
    <path
       id="path9659"
       style="fill:#224697;fill-opacity:1;fill-rule:evenodd;stroke:none;stroke-width:0.283218"
       d="m 155.76335,189.84206 v 4.49525 h 2.10464 v -1.968 l 1.58878,1.968 h 2.00717 v -4.49525 h -2.15987 v 1.79862 l -1.28434,-1.79862 z"
       sodipodi:nodetypes="ccccccccccc" />
    <path
       id="path10483"
       style="fill:#224697;fill-opacity:1;stroke:none;stroke-width:0.0829034px;stroke-linecap:butt;stroke-linejoin:miter;stroke-opacity:1"
       d="m 165.09095,189.7228 c -2.43045,0 -3.0556,1.05454 -3.0556,2.3668 0,1.31225 0.62515,2.36696 3.0556,2.36696 0.79728,0 1.45465,-0.0929 2.07374,-0.2126 v -1.51672 c -1.36162,0.20806 -2.78812,0.49337 -2.78812,-0.48365 0,-0.97702 1.45581,-0.73575 2.78812,-0.58632 v -1.72187 c -0.61909,-0.11977 -1.27646,-0.2126 -2.07374,-0.2126 z" />
    <path
       sodipodi:nodetypes="ccccc"
       inkscape:connector-curvature="0"
       id="rect2995-9"
       d="m 138.6752,178.14813 h 5.44742 l -7.45714,8.73294 h -5.1301 z"
       style="fill:#224697;fill-opacity:1;fill-rule:evenodd;stroke:none;stroke-width:0.26576" />
    <path
       style="fill:#f11d2c;fill-opacity:1;fill-rule:evenodd;stroke:none;stroke-width:0.26576"
       d="m 154.64723,178.14813 h 5.44742 l -7.45714,8.73294 h -5.13009 z"
       id="path2998-4"
       inkscape:connector-curvature="0"
       sodipodi:nodetypes="ccccc" />
    <path
       style="fill:#224697;fill-opacity:1;fill-rule:evenodd;stroke:none;stroke-width:0.26576"
       d="m 144.81015,178.14813 h 3.06749 l -7.45715,8.73294 h -2.75016 z"
       id="path3000-4"
       inkscape:connector-curvature="0"
       sodipodi:nodetypes="ccccc" />
    <path
       sodipodi:nodetypes="ccccc"
       inkscape:connector-curvature="0"
       id="path3002-0"
       d="m 148.72383,178.14813 h 1.79818 l -7.45714,8.73294 h -1.48086 z"
       style="fill:#224697;fill-opacity:1;fill-rule:evenodd;stroke:none;stroke-width:0.26576" />
    <path
       style="fill:#224697;fill-opacity:1;fill-rule:evenodd;stroke:none;stroke-width:0.26576"
       d="m 151.84421,178.14813 h 1.11063 l -7.45715,8.73294 h -0.79331 z"
       id="path3004-4"
       inkscape:connector-curvature="0"
       sodipodi:nodetypes="ccccc" />
  </g>
</svg>
