<?xml version="1.0" encoding="UTF-8" standalone="no"?>
<!-- Created with Inkscape (http://www.inkscape.org/) -->
<svg id="svg2" xmlns="http://www.w3.org/2000/svg" height="124.73" width="500" version="1.0" viewBox="0 0 595.27557 841.88977">
 <path id="path4" d="m290.98 185.78v-2.6l-2.61-4.44h3.79l0.77 3.55 0.72-3.55h3.47l-2.55 4.44v2.6h-3.59zm6.56-3.56c0-0.77 0.17-1.43 0.51-1.98 0.34-0.56 0.84-0.97 1.49-1.26 0.65-0.28 1.43-0.43 2.35-0.43 0.93 0 1.71 0.15 2.36 0.44 0.65 0.28 1.15 0.7 1.48 1.26 0.34 0.55 0.51 1.22 0.51 2 0 0.37-0.04 0.73-0.12 1.08s-0.2 0.68-0.35 0.97c-0.16 0.29-0.34 0.53-0.55 0.73-0.67 0.63-1.79 0.94-3.37 0.94-0.66 0-1.21-0.06-1.66-0.17-0.44-0.12-0.85-0.31-1.23-0.59-0.26-0.18-0.47-0.37-0.64-0.57-0.18-0.2-0.32-0.42-0.44-0.66-0.11-0.25-0.2-0.51-0.25-0.8-0.06-0.28-0.09-0.6-0.09-0.96zm3.45 0.09c0 0.83 0.3 1.24 0.9 1.24 0.29 0 0.52-0.11 0.67-0.34 0.16-0.23 0.24-0.56 0.24-1 0-0.41-0.08-0.72-0.23-0.93s-0.38-0.32-0.67-0.32c-0.6 0-0.91 0.45-0.91 1.35zm6.18-3.57h3.43v3.82c0 0.77 0.2 1.16 0.6 1.16 0.19 0 0.34-0.1 0.45-0.3 0.1-0.2 0.15-0.48 0.15-0.86v-3.82h3.42v4.52c0 0.35-0.04 0.66-0.13 0.93-0.08 0.26-0.22 0.49-0.39 0.68-0.18 0.2-0.42 0.37-0.71 0.51-0.34 0.18-0.76 0.31-1.26 0.41-0.5 0.09-1.03 0.14-1.61 0.14-0.48 0-0.93-0.03-1.35-0.1-0.42-0.06-0.78-0.15-1.11-0.27-0.32-0.12-0.58-0.27-0.79-0.44-0.21-0.18-0.38-0.43-0.51-0.77s-0.19-0.71-0.19-1.09v-4.52zm9.07 7.04v-7.04h4.72c0.65 0 1.15 0.05 1.51 0.14s0.66 0.25 0.88 0.47c0.38 0.36 0.56 0.82 0.56 1.4 0 0.61-0.23 1.06-0.69 1.36-0.17 0.1-0.36 0.18-0.57 0.23s-0.52 0.08-0.92 0.11c0.42 0.04 0.75 0.09 0.96 0.14s0.39 0.12 0.54 0.21c0.2 0.11 0.36 0.29 0.49 0.52 0.13 0.24 0.2 0.49 0.21 0.76l0.04 0.98v0.25c0.01 0.1 0.08 0.17 0.21 0.21v0.26h-3.25c-0.12-0.08-0.21-0.15-0.25-0.22-0.05-0.12-0.08-0.3-0.08-0.56v-0.94c0-0.22-0.04-0.38-0.13-0.46-0.09-0.09-0.24-0.14-0.47-0.14h-0.37v2.32h-3.39zm3.4-4.05h0.46c0.29 0 0.5-0.04 0.62-0.11 0.12-0.08 0.18-0.22 0.18-0.4 0-0.11-0.03-0.2-0.08-0.28s-0.12-0.14-0.21-0.16c-0.11-0.04-0.29-0.06-0.52-0.06h-0.45v1.01zm8.67 4.05v-7.04h6.18v2.21h-2.75v0.75h2.23v1.8h-2.23v2.28h-3.43zm6.91 0v-7.04h3.42v4.52h2.35v2.52h-5.77zm6.42 0v-7.04h3.42v7.04h-3.42zm10.78 0l-0.19-1.3c-0.2 0.5-0.49 0.87-0.87 1.1s-0.88 0.35-1.5 0.35c-0.68 0-1.32-0.13-1.92-0.39-0.34-0.15-0.63-0.33-0.87-0.53s-0.44-0.44-0.59-0.71c-0.16-0.26-0.27-0.57-0.35-0.91-0.07-0.34-0.11-0.72-0.11-1.16 0-0.47 0.05-0.86 0.14-1.19 0.1-0.33 0.25-0.64 0.47-0.95 0.19-0.26 0.41-0.49 0.65-0.68 0.25-0.19 0.53-0.35 0.84-0.47 0.3-0.12 0.65-0.22 1.02-0.28 0.38-0.06 0.8-0.09 1.28-0.09 0.56 0 1.06 0.06 1.5 0.16 0.43 0.1 0.82 0.25 1.15 0.46 0.39 0.25 0.7 0.55 0.91 0.92 0.14 0.23 0.25 0.61 0.33 1.12h-3.39c-0.06-0.36-0.25-0.53-0.55-0.53-0.28 0-0.5 0.15-0.66 0.46-0.17 0.3-0.25 0.71-0.25 1.23s0.07 0.92 0.22 1.19c0.15 0.28 0.37 0.41 0.65 0.41 0.37 0 0.59-0.21 0.66-0.63h-0.84v-1.33h4.25v3.75h-1.98zm2.9 0v-7.04h3.42v2.03h1.16v-2.03h3.43v7.04h-3.43v-2.34h-1.16v2.34h-3.42zm10.11 0v-4.52h-1.51v-2.52h6.46v2.52h-1.52v4.52h-3.43zm5.58 1.74v-0.91c0.25-0.04 0.44-0.1 0.57-0.17 0.13-0.06 0.23-0.15 0.29-0.26s0.09-0.27 0.11-0.47h-0.97v-2.03h2.1v2.07c0 0.55-0.22 0.99-0.65 1.3-0.23 0.17-0.49 0.29-0.78 0.37-0.14 0.03-0.37 0.07-0.67 0.1zm8.53-1.74v-2.6l-2.61-4.44h3.8l0.77 3.55 0.72-3.55h3.47l-2.55 4.44v2.6h-3.6zm6.57-3.56c0-0.77 0.17-1.43 0.51-1.98 0.34-0.56 0.83-0.97 1.48-1.26 0.65-0.28 1.44-0.43 2.36-0.43s1.71 0.15 2.36 0.44c0.65 0.28 1.14 0.7 1.48 1.26 0.34 0.55 0.51 1.22 0.51 2 0 0.37-0.05 0.73-0.13 1.08s-0.19 0.68-0.35 0.97c-0.15 0.29-0.33 0.53-0.54 0.73-0.67 0.63-1.8 0.94-3.37 0.94-0.66 0-1.22-0.06-1.66-0.17-0.44-0.12-0.85-0.31-1.24-0.59-0.25-0.18-0.46-0.37-0.64-0.57-0.17-0.2-0.32-0.42-0.43-0.66-0.12-0.25-0.2-0.51-0.26-0.8-0.05-0.28-0.08-0.6-0.08-0.96zm3.45 0.09c0 0.83 0.3 1.24 0.9 1.24 0.29 0 0.51-0.11 0.67-0.34s0.24-0.56 0.24-1c0-0.41-0.08-0.72-0.23-0.93s-0.38-0.32-0.67-0.32c-0.61 0-0.91 0.45-0.91 1.35zm6.17-3.57h3.43v3.82c0 0.77 0.2 1.16 0.6 1.16 0.2 0 0.35-0.1 0.45-0.3 0.11-0.2 0.16-0.48 0.16-0.86v-3.82h3.42v4.52c0 0.35-0.05 0.66-0.13 0.93-0.09 0.26-0.22 0.49-0.4 0.68-0.18 0.2-0.41 0.37-0.7 0.51-0.35 0.18-0.77 0.31-1.26 0.41-0.5 0.09-1.04 0.14-1.61 0.14-0.49 0-0.93-0.03-1.35-0.1-0.42-0.06-0.79-0.15-1.11-0.27s-0.59-0.27-0.79-0.44c-0.22-0.18-0.39-0.43-0.52-0.77-0.12-0.34-0.19-0.71-0.19-1.09v-4.52zm9.07 7.04v-7.04h4.73c0.64 0 1.15 0.05 1.51 0.14s0.65 0.25 0.88 0.47c0.37 0.36 0.56 0.82 0.56 1.4 0 0.61-0.23 1.06-0.69 1.36-0.17 0.1-0.36 0.18-0.58 0.23-0.2 0.05-0.51 0.08-0.91 0.11 0.42 0.04 0.74 0.09 0.96 0.14 0.21 0.05 0.39 0.12 0.54 0.21 0.2 0.11 0.36 0.29 0.49 0.52 0.12 0.24 0.2 0.49 0.21 0.76l0.04 0.98v0.25c0.01 0.1 0.08 0.17 0.21 0.21v0.26h-3.25c-0.13-0.08-0.21-0.15-0.25-0.22-0.05-0.12-0.08-0.3-0.08-0.56v-0.94c0-0.22-0.04-0.38-0.13-0.46-0.09-0.09-0.25-0.14-0.47-0.14h-0.37v2.32h-3.4zm3.41-4.05h0.46c0.29 0 0.49-0.04 0.62-0.11 0.11-0.08 0.18-0.22 0.18-0.4 0-0.11-0.03-0.2-0.08-0.28-0.06-0.08-0.12-0.14-0.21-0.16-0.12-0.04-0.29-0.06-0.52-0.06h-0.45v1.01zm8.67 4.05v-7.04h4.25c0.46 0 0.86 0.02 1.2 0.07 0.34 0.04 0.63 0.12 0.88 0.21 0.24 0.1 0.46 0.23 0.64 0.38 0.49 0.44 0.73 1.1 0.73 1.99 0 0.81-0.23 1.44-0.7 1.87s-1.14 0.64-2.04 0.64h-1.54v1.88h-3.42zm3.42-3.72h0.47c0.29 0 0.5-0.04 0.62-0.12s0.18-0.22 0.18-0.41c0-0.11-0.03-0.2-0.08-0.28s-0.12-0.13-0.22-0.16c-0.12-0.03-0.29-0.05-0.51-0.05h-0.46v1.02zm4.94 3.72v-7.04h4.72c0.64 0 1.15 0.05 1.51 0.14s0.65 0.25 0.88 0.47c0.38 0.36 0.56 0.82 0.56 1.4 0 0.61-0.23 1.06-0.69 1.36-0.17 0.1-0.36 0.18-0.57 0.23s-0.52 0.08-0.92 0.11c0.42 0.04 0.74 0.09 0.96 0.14 0.21 0.05 0.39 0.12 0.54 0.21 0.2 0.11 0.36 0.29 0.49 0.52 0.13 0.24 0.2 0.49 0.21 0.76l0.04 0.98v0.25c0.01 0.1 0.08 0.17 0.21 0.21v0.26h-3.25c-0.12-0.08-0.21-0.15-0.25-0.22-0.05-0.12-0.08-0.3-0.08-0.56v-0.94c0-0.22-0.04-0.38-0.13-0.46-0.09-0.09-0.25-0.14-0.47-0.14h-0.37v2.32h-3.39zm3.4-4.05h0.46c0.29 0 0.5-0.04 0.62-0.11 0.12-0.08 0.18-0.22 0.18-0.4 0-0.11-0.03-0.2-0.08-0.28s-0.12-0.14-0.21-0.16c-0.12-0.04-0.29-0.06-0.52-0.06h-0.45v1.01zm5.42 4.05v-7.04h3.42v7.04h-3.42zm3.95-7.04h3.54l0.72 5.25 0.8-5.25h3.3l-2.39 7.04h-3.58l-2.39-7.04zm8.33 7.04l2.82-7.16h2.97l2.83 7.16h-3.41l-0.2-0.79h-1.45l-0.19 0.79h-3.37zm3.78-2.57h0.92l-0.48-2.52-0.44 2.52zm13.78-0.49c0 0.29-0.02 0.51-0.04 0.66-0.02 0.14-0.06 0.33-0.14 0.54-0.44 1.37-1.78 2.05-4 2.05-0.46 0-0.86-0.03-1.2-0.07-0.35-0.06-0.66-0.13-0.94-0.24-0.27-0.1-0.54-0.24-0.8-0.42-0.32-0.23-0.59-0.49-0.8-0.78s-0.36-0.62-0.46-0.99-0.16-0.79-0.16-1.26c0-0.76 0.2-1.44 0.58-2.02 0.24-0.38 0.53-0.68 0.88-0.92 0.36-0.24 0.77-0.42 1.25-0.54s1.03-0.18 1.65-0.18c0.65 0 1.22 0.08 1.74 0.21 0.51 0.14 0.95 0.34 1.32 0.61 0.36 0.26 0.64 0.59 0.83 0.96 0.19 0.38 0.29 0.81 0.29 1.28h-3.4c-0.02-0.43-0.27-0.65-0.75-0.65-0.62 0-0.94 0.45-0.94 1.35 0 0.83 0.3 1.24 0.9 1.24 0.51 0 0.78-0.27 0.83-0.83h3.36zm2.92 3.06v-2.6l-2.6-4.44h3.79l0.77 3.55 0.72-3.55h3.47l-2.55 4.44v2.6h-3.6zm6.71 0v-2.1h2.1v2.1h-2.1z" fill-rule="evenodd" transform="matrix(8.6351 0 0 8.6351 -2122.1 -777.4)" fill="#1a968b"/>
 <path id="path6" d="m289.04 152.3c0-6.96 2.46-12.36 7.39-16.2 4.93-3.83 11.88-5.74 20.86-5.74 8.77 0 15.67 1.87 20.7 5.63 5.03 3.75 7.55 9.02 7.55 15.79 0 1.63-0.15 3.36-0.46 5.19-0.88 4.86-3.26 8.75-7.13 11.67s-9.05 4.71-15.55 5.37c-0.98 0.12-2.18 0.2-3.6 0.24s-2.18 0.05-2.29 0.05c-8.51 0-15.22-1.96-20.12-5.89s-7.35-9.3-7.35-16.11zm16.79 2.43c0.36 3.08 1.29 5.44 2.79 7.07 1.5 1.65 3.53 2.66 6.11 3.05 0.88 0.16 1.84 0.23 2.87 0.23 3.09 0 5.62-0.87 7.58-2.63 1.96-1.75 3.13-4.33 3.49-7.72 0.1-0.4 0.15-0.82 0.15-1.29v-1.11-0.88c0-0.23-0.02-0.5-0.08-0.81-0.05-0.31-0.07-0.56-0.07-0.71-0.36-3.43-1.51-6.01-3.45-7.75-1.93-1.74-4.5-2.6-7.7-2.6h-1.63c-0.56 0.11-0.95 0.19-1.16 0.23-2.58 0.39-4.61 1.38-6.11 2.99-1.5 1.59-2.43 3.98-2.79 7.13l-0.15 2.4 0.15 2.4zm44.2 18.58v-42.02h16.25v32.63h19.82v9.39h-36.07zm27.71-32.8v-9.22h43.26v9.22h-13.62v32.8h-16.17v-32.8h-13.47zm34.91 32.8l21.44-42.02h17.88l21.9 42.02h-17.18l-3.87-8.52h-19.97l-4.03 8.52h-16.17zm36.3-17.27l-4.8-10.74c-0.1-0.24-0.21-0.55-0.31-0.94s-0.23-0.99-0.39-1.81l-0.46-3.44-0.16 1.52c-0.15 1.44-0.29 2.47-0.42 3.09s-0.33 1.15-0.58 1.58l-4.8 10.74h11.92z" fill-rule="evenodd" transform="matrix(8.6351 0 0 8.6351 -2122.1 -777.4)" fill="#b72012"/>
 <path id="path8" d="m84.806 173.31l20.594-42.02h17.18l21.04 42.02h-16.51l-3.71-8.52h-19.19l-3.86 8.52h-15.544zm34.874-17.27l-4.61-10.74c-0.1-0.24-0.2-0.55-0.3-0.94s-0.22-0.99-0.37-1.81l-0.45-3.44-0.15 1.52c-0.14 1.44-0.28 2.47-0.4 3.09-0.13 0.62-0.31 1.15-0.56 1.58l-4.61 10.74h11.45zm24.46 17.27v-42.02h15.54v42.02h-15.54zm20.89 0v-42.02h24.54c5.11 0 9.11 0.64 12.01 1.93 2.9 1.28 4.89 3.21 5.99 5.77 0.59 1.4 0.89 2.77 0.89 4.09 0 2.14-0.73 4.06-2.2 5.75-1.46 1.69-3.5 2.95-6.13 3.76l-1.04 0.29c1.09 0.36 1.94 0.83 2.56 1.43 0.62 0.61 1.53 1.86 2.72 3.77l0.82 1.46 7.58 13.77h-16.13l-5.88-10.62-0.44-0.76-0.82-1.34c-0.7-1.13-1.44-1.91-2.23-2.34-0.8-0.42-1.84-0.64-3.13-0.64h-3.57v15.7h-15.54zm19.86-24.92h1.34c1.38 0 2.46-0.11 3.23-0.32s1.4-0.55 1.9-0.97c0.94-0.79 1.41-1.71 1.41-2.77 0-1.44-0.79-2.49-2.38-3.11-0.6-0.28-1.19-0.47-1.79-0.56-0.59-0.1-1.46-0.15-2.6-0.15h-1.11-4.61v7.88h4.61z" fill-rule="evenodd" transform="matrix(8.6351 0 0 8.6351 -2122.1 -777.4)" fill="#1a968b"/>
 <path id="path10" d="m400.63 94.514c-101.16 1.804-164.96 28.326-173.14 76.666h47.12c6.27-50.5 57.36-69.71 126.02-76.666z" fill-rule="evenodd" transform="matrix(8.6351 0 0 8.6351 -2122.1 -777.4)" fill="#1a968b"/>
 <path id="path12" d="m109.29 90.028c49.73 8.371 105.46 28.982 116.62 67.472 4.68-10.74 11.7-20.07 21.75-27.59-40.27-31.829-88.41-38.727-138.37-39.882z" fill-rule="evenodd" transform="matrix(8.6351 0 0 8.6351 -2122.1 -777.4)" fill="#b72012"/>
</svg>
