<?xml version="1.0" encoding="utf-8"?>
<!-- Generator: Adobe Illustrator 12.0.1, SVG Export Plug-In . SVG Version: 6.00 Build 51448)  -->
<!DOCTYPE svg PUBLIC "-//W3C//DTD SVG 1.0//EN" "http://www.w3.org/TR/2001/REC-SVG-20010904/DTD/svg10.dtd" [
	<!ENTITY ns_svg "http://www.w3.org/2000/svg">
	<!ENTITY ns_xlink "http://www.w3.org/1999/xlink">
]>
<svg  version="1.0" id="Ebene_1" xmlns="&ns_svg;" xmlns:xlink="&ns_xlink;" width="192.756" height="66.535"
	 viewBox="0 0 192.756 66.535" overflow="visible" enable-background="new 0 0 192.756 66.535" xml:space="preserve">
<polygon fill-rule="evenodd" clip-rule="evenodd" fill="#FFFFFF" points="0,0 192.756,0 192.756,66.535 0,66.535 0,0 "/>
<path fill-rule="evenodd" clip-rule="evenodd" fill="#E30B20" d="M60.554,17.769c1.012,0.828,2.761,0.368,3.865-1.012
	c1.013-1.381,1.105-3.221,0.092-3.958c-0.92-0.828-2.669-0.276-3.773,1.104S59.633,17.032,60.554,17.769L60.554,17.769
	L60.554,17.769z"/>
<path fill-rule="evenodd" clip-rule="evenodd" fill="#005D9C" d="M49.141,34.611c-0.552,0-1.012,0.92-1.289,1.288
	c-0.828,1.474-4.417,6.259-6.258,6.259c-0.552,0-0.736-0.552-0.736-1.196c0-0.644,0.368-1.841,0.552-2.485l7.731-25.402
	c0.092-0.276,0.368-1.104,0.368-1.473c0-1.104-2.117-0.736-2.485-0.736c-2.485,0-2.393,0.368-3.129,2.761l-0.184,0.645
	c-1.565-2.025-3.222-2.669-5.799-2.669c-6.811,0-13.622,4.326-18.224,9.112c-4.233,4.51-8.56,12.148-8.56,18.592
	c0,3.682,1.657,7.639,5.89,7.639c8.836,0,18.96-14.266,23.194-21.26l-4.602,14.91c-0.369,1.288-0.829,2.761-0.829,4.234
	c0,1.288,0.645,2.116,2.025,2.116c2.945,0,6.995-3.497,8.928-5.522c0.92-0.92,3.958-4.878,3.958-6.258
	C49.693,34.888,49.417,34.611,49.141,34.611z M34.323,31.666c-2.669,3.313-9.388,11.321-13.898,11.321
	c-2.485,0-3.497-2.485-3.497-4.511c0-4.785,3.958-12.425,6.811-16.014c3.221-4.142,8.56-9.388,13.99-9.388
	c2.577,0,4.878,1.104,4.878,3.865C42.606,20.438,36.44,28.997,34.323,31.666z M62.763,37.373c-0.368,0-0.645,0.368-0.828,0.735
	c-0.645,1.105-3.498,5.063-4.97,5.063c-0.552,0-0.736-0.368-0.736-1.013c0-0.736,0.276-1.473,0.46-2.209l4.233-13.529
	c0.368-1.013,1.013-3.038,1.013-4.142c0-1.197-0.369-2.117-1.749-2.117c-2.209,0-5.338,2.761-6.719,4.142
	c-0.459,0.46-2.761,2.945-2.761,3.682c0,0.276,0.092,0.46,0.368,0.46c0.736,0,3.866-4.97,5.798-4.97
	c0.553,0,0.645,0.553,0.645,1.013c0,0.552-0.368,1.473-0.46,1.933l-3.958,13.069c-0.46,1.381-1.012,3.498-1.012,4.97
	c0,1.289,0.276,2.209,1.749,2.209c2.301,0,5.522-3.221,6.903-4.878c0.552-0.735,2.393-3.129,2.393-4.049
	C63.131,37.557,63.039,37.373,62.763,37.373z M85.128,20.162c-4.878,0-10.309,11.413-12.425,15.186l2.393-8.007
	c0.368-1.196,0.736-2.485,0.736-3.866c0-1.196-0.368-3.313-2.024-3.313c-1.749,0-4.418,2.301-5.522,3.681
	c-0.645,0.645-2.945,3.313-2.945,4.234c0,0.276,0.184,0.368,0.46,0.368c0.276,0,0.645-0.552,0.829-0.828l0.46-0.736
	c0.736-0.92,2.945-3.774,4.234-3.774c0.552,0,0.736,0.736,0.736,1.197c0,1.013-0.46,2.301-0.736,3.313l-4.97,16.106
	c0,0.185-0.368,1.289-0.368,1.565c0,0.828,1.104,0.736,1.564,0.736c2.301,0,2.117-0.461,2.761-2.485
	c1.013-3.682,4.602-10.584,6.719-13.897c0.552-1.013,4.05-6.075,5.522-6.075c1.564,0,0,2.761,2.761,2.761
	c1.749,0,2.669-1.749,2.669-3.313C87.981,21.266,86.785,20.162,85.128,20.162z M101.143,39.949V11.05h3.037
	c6.258,0,7.823,1.013,9.02,7.271h1.381l-0.368-9.572H82.367l-0.368,9.572h1.38c1.289-6.167,2.761-7.271,9.02-7.271h3.038v28.256
	c0,4.142-0.184,5.43-5.338,5.706v1.013h16.475v-1.013C101.786,44.828,101.143,43.723,101.143,39.949z M123.691,20.069
	c-2.117,0-4.05,1.196-6.719,5.154h-0.092v-4.97l-0.276-0.184c-2.761,1.104-5.521,2.117-8.283,3.037v0.921
	c0.46-0.185,1.104-0.276,1.933-0.276c0.829,0,1.933,0.092,1.933,3.405V41.33c0,3.129-0.92,3.313-3.957,3.865v0.829h13.438v-0.829
	c-2.854-0.092-4.786-0.367-4.786-4.233V28.261c0-1.749,2.485-4.602,3.865-4.602c1.381,0,1.933,1.933,3.865,1.933
	c1.381,0,2.117-1.013,2.117-2.393C126.729,21.266,125.624,20.069,123.691,20.069z M150.475,43.815v-1.473
	c-0.645,0.46-1.381,1.012-2.577,1.012c-1.657,0-1.657-1.564-1.657-3.221V29.089c0-3.405,0-9.02-8.375-9.02
	c-6.535,0-9.112,3.958-9.112,6.259c0,0.92,0.645,2.485,2.394,2.485c1.473,0,2.577-1.196,2.577-2.393
	c0-0.553-0.276-1.381-0.276-2.209c0-1.749,2.117-2.762,3.958-2.762c1.656,0,4.325,0.553,4.325,4.694v3.405
	c-9.203,3.589-14.174,5.523-14.174,11.229c0,3.773,2.945,5.798,5.982,5.798c3.13,0,6.075-2.209,8.191-4.05
	c0.276,4.05,2.669,4.05,3.682,4.05C146.333,46.576,148.081,46.576,150.475,43.815z M141.73,39.121c0,1.657-0.184,2.394-1.933,3.222
	c-0.552,0.276-2.301,1.012-3.497,1.012c-2.117,0-3.773-1.748-3.773-4.417v-0.093c0-1.933,0.644-5.153,9.203-7.915V39.121z
	 M173.3,41.422V28.537c0-6.903-3.958-8.468-6.534-8.468c-3.406,0-5.523,2.025-8.284,4.602v-4.418l-0.368-0.184
	c-2.577,1.013-5.246,1.841-7.823,2.577v0.921c0.276-0.092,0.921-0.184,1.657-0.184c0.92,0,2.024,0.092,2.024,3.589v13.99
	c0,3.313-0.92,4.05-3.497,4.233v0.829h11.872v-0.829c-2.944-0.184-3.681-1.104-3.681-2.944V26.42
	c2.116-2.117,3.865-3.222,5.521-3.222c3.405,0,4.418,2.025,4.418,5.43v11.78c0,4.326-1.473,4.603-3.589,4.786v0.829h11.688v-0.829
	C173.944,44.92,173.3,44.091,173.3,41.422z M102.523,53.111l-2.025,5.338h1.196l0.46-1.196h2.025l0.368,1.196h1.196l-1.933-5.338
	H102.523z M102.431,56.332l0.736-1.933l0.645,1.933H102.431z M112.739,58.449h1.196v-5.338h-1.196V58.449z M124.979,55.872
	c0.645-0.184,0.921-0.736,0.921-1.288c0-0.829-0.644-1.473-1.656-1.473h-2.854v5.338h1.196v-2.117h1.196
	c0.553,0,0.736,0.276,0.828,0.829c0.093,0.46,0.093,0.92,0.185,1.288h1.196c-0.184-0.276-0.184-0.921-0.184-1.288
	C125.717,56.608,125.624,56.056,124.979,55.872z M123.876,55.504h-1.289v-1.564h1.289c0.552,0,0.828,0.275,0.828,0.828
	C124.704,55.228,124.428,55.504,123.876,55.504z M137.865,56.793l-0.921-3.682h-1.104L134.92,56.7h-0.092L134,53.111h-1.196
	l1.473,5.338h1.196l0.828-3.682h0.092l0.828,3.682h1.196l1.473-5.338h-1.196L137.865,56.793z M148.173,53.111l-2.024,5.338h1.197
	l0.46-1.196h2.024l0.368,1.196h1.196l-1.933-5.338H148.173z M148.081,56.332l0.736-1.933l0.645,1.933H148.081z M159.771,55.228
	l-1.197-2.116h-1.38l2.024,3.221v2.117h1.196v-2.117l1.933-3.221h-1.288L159.771,55.228z M171.827,55.319
	c-1.288-0.368-1.564-0.46-1.564-0.828c0-0.46,0.46-0.644,0.827-0.644c0.553,0,1.014,0.184,1.014,0.828h1.196
	c0-1.289-1.013-1.749-2.117-1.749c-1.013,0-2.024,0.553-2.024,1.657c0,1.012,0.736,1.288,1.564,1.472
	c0.828,0.276,1.564,0.368,1.564,0.921c0,0.552-0.552,0.645-1.013,0.645c-0.644,0-1.196-0.276-1.196-1.013h-1.104
	c0,1.381,1.104,1.933,2.301,1.933c1.381,0,2.209-0.736,2.209-1.656C173.483,55.596,172.287,55.412,171.827,55.319z M182.779,43.354
	c0-0.552-0.275-0.828-0.92-0.828h-1.196v3.037h0.367v-1.38h0.645l0.829,1.38h0.46l-0.921-1.38
	C182.504,44.091,182.779,43.907,182.779,43.354z M181.583,43.907h-0.553v-1.104h0.736c0.368,0,0.645,0.092,0.645,0.552
	C182.411,43.907,182.043,43.907,181.583,43.907z M181.583,41.422c-1.473,0-2.577,1.104-2.577,2.577s1.104,2.669,2.577,2.669
	c1.564,0,2.669-1.196,2.669-2.669S183.147,41.422,181.583,41.422z M181.583,46.301c-1.196,0-2.208-1.013-2.208-2.302
	c0-1.196,1.012-2.209,2.208-2.209c1.289,0,2.209,1.013,2.209,2.209C183.792,45.288,182.872,46.301,181.583,46.301z"/>
</svg>
