<?xml version="1.0" encoding="UTF-8" standalone="no"?>
<!-- Created with Inkscape (http://www.inkscape.org/) -->

<svg
   xmlns:dc="http://purl.org/dc/elements/1.1/"
   xmlns:cc="http://creativecommons.org/ns#"
   xmlns:rdf="http://www.w3.org/1999/02/22-rdf-syntax-ns#"
   xmlns:svg="http://www.w3.org/2000/svg"
   xmlns="http://www.w3.org/2000/svg"
   xmlns:sodipodi="http://sodipodi.sourceforge.net/DTD/sodipodi-0.dtd"
   xmlns:inkscape="http://www.inkscape.org/namespaces/inkscape"
   width="208.00999"
   height="41.169998"
   id="svg3724"
   version="1.1"
   inkscape:version="0.47 r22583"
   sodipodi:docname="New document 3">
  <defs
     id="defs3726">
    <inkscape:perspective
       sodipodi:type="inkscape:persp3d"
       inkscape:vp_x="0 : 526.18109 : 1"
       inkscape:vp_y="0 : 1000 : 0"
       inkscape:vp_z="744.09448 : 526.18109 : 1"
       inkscape:persp3d-origin="372.04724 : 350.78739 : 1"
       id="perspective3732" />
    <inkscape:perspective
       id="perspective3656"
       inkscape:persp3d-origin="0.5 : 0.33333333 : 1"
       inkscape:vp_z="1 : 0.5 : 1"
       inkscape:vp_y="0 : 1000 : 0"
       inkscape:vp_x="0 : 0.5 : 1"
       sodipodi:type="inkscape:persp3d" />
    <clipPath
       clipPathUnits="userSpaceOnUse"
       id="clipPath116">
      <path
         d="m 32.459,646.3 177.636,0 0,-46.271 -177.636,0 0,46.271 z"
         clip-rule="evenodd"
         id="path118" />
    </clipPath>
    <clipPath
       clipPathUnits="userSpaceOnUse"
       id="clipPath124">
      <path
         d="m 0.06,0.06 651.95996,0 0,793.67999 -651.95996,0 L 0.06,0.06 z"
         id="path126" />
    </clipPath>
    <clipPath
       clipPathUnits="userSpaceOnUse"
       id="clipPath132">
      <path
         d="m 32.459,646.3 177.636,0 0,-46.271 -177.636,0 0,46.271 z"
         clip-rule="evenodd"
         id="path134" />
    </clipPath>
    <clipPath
       clipPathUnits="userSpaceOnUse"
       id="clipPath142">
      <path
         d="m -0.219,-19.142 3.937,0 0,24.802 -3.937,0 0,-24.802 z"
         id="path144" />
    </clipPath>
  </defs>
  <sodipodi:namedview
     id="base"
     pagecolor="#ffffff"
     bordercolor="#666666"
     borderopacity="1.0"
     inkscape:pageopacity="0.0"
     inkscape:pageshadow="2"
     inkscape:zoom="4.3999352"
     inkscape:cx="103.95022"
     inkscape:cy="20.369511"
     inkscape:document-units="px"
     inkscape:current-layer="layer1"
     showgrid="false"
     inkscape:window-width="1024"
     inkscape:window-height="708"
     inkscape:window-x="-4"
     inkscape:window-y="-4"
     inkscape:window-maximized="1" />
  <metadata
     id="metadata3729">
    <rdf:RDF>
      <cc:Work
         rdf:about="">
        <dc:format>image/svg+xml</dc:format>
        <dc:type
           rdf:resource="http://purl.org/dc/dcmitype/StillImage" />
        <dc:title></dc:title>
      </cc:Work>
    </rdf:RDF>
  </metadata>
  <g
     inkscape:label="Layer 1"
     inkscape:groupmode="layer"
     id="layer1"
     transform="translate(-136.99287,-485.06525)">
    <g
       transform="matrix(1.25,0,0,-1.25,91.773933,1291.4573)"
       id="g112">
      <g
         id="g114"
         clip-path="url(#clipPath116)">
        <g
           id="g120">
          <g
             id="g122"
             clip-path="url(#clipPath124)">
            <g
               id="g128">
              <g
                 id="g130"
                 clip-path="url(#clipPath132)">
                <g
                   id="g136"
                   transform="matrix(165.6,0,0,32,36.347,612.615)">
                  <g
                     id="g138">
                    <g
                       id="g140"
                       clip-path="url(#clipPath142)">
                      <path
                         d="m 0.009445,0.42832 0.033827,0 0.037762,0.39663 -0.033827,0 -0.037762,-0.39663"
                         style="fill:#e22739;fill-opacity:1;fill-rule:nonzero;stroke:none"
                         id="path146" />
                      <path
                         d="m 0.055521,0.42832 0.046049,0 c 0.0163,0 0.03673,0.02788 0.04449,0.10941 0.00451,0.04735 0.00109,0.07891 -0.00758,0.09416 l 3e-4,0.00316 C 0.14798,0.6461 0.15531,0.68029 0.15862,0.71501 0.16733,0.80653 0.15069,0.82495 0.13266,0.82495 l -0.039378,0 -0.037761,-0.39663 z m 0.054599,0.24408 0.00541,0.05681 0.00234,0 c 0.00494,0 0.01144,0.0021 0.00863,-0.02736 C 0.1239,0.6745 0.11814,0.6724 0.1132,0.6724 l -0.00308,0 z m -0.00797,-0.08364 0.00334,0 c 0.00543,0 0.01412,5.2e-4 0.01097,-0.03262 C 0.11335,0.52353 0.10528,0.523 0.099721,0.523 l -0.003828,0 0.006257,0.06576"
                         style="fill:#e22739;fill-opacity:1;fill-rule:evenodd;stroke:none"
                         id="path148" />
                      <path
                         d="m 0.1433,0.42832 0.06358,0 0.01031,0.10836 -0.0295,0 0.0037,0.03893 0.02605,0 0.00982,0.1031 -0.02605,0 0.00361,0.03787 0.02851,0 0.01032,0.10837 -0.06259,0 L 0.1433,0.42832"
                         style="fill:#e22739;fill-opacity:1;fill-rule:nonzero;stroke:none"
                         id="path150" />
                      <path
                         d="m 0.21786,0.42832 0.03308,0 0.01212,0.1273 6.2e-4,0 0.00269,-0.1273 0.03902,0 -0.00798,0.12887 C 0.29666,0.56877 0.29516,0.57508 0.29398,0.58087 l 3e-4,0.00315 C 0.30858,0.60191 0.31641,0.62715 0.32212,0.68713 0.33164,0.78707 0.31747,0.82495 0.29648,0.82495 l -0.04086,0 -0.03776,-0.39663 z m 0.06053,0.28826 0.00259,0 c 0.0058,0 0.01051,-0.00368 0.00761,-0.03419 C 0.28578,0.65293 0.27988,0.64925 0.27432,0.64925 l -0.00234,0 0.00641,0.06733"
                         style="fill:#e22739;fill-opacity:1;fill-rule:evenodd;stroke:none"
                         id="path152" />
                      <path
                         d="m 0.30874,0.42832 0.03383,0 0.03776,0.39663 -0.03383,0 -0.03776,-0.39663"
                         style="fill:#e22739;fill-opacity:1;fill-rule:nonzero;stroke:none"
                         id="path154" />
                      <path
                         d="m 0.3899,0.47776 0.02555,0 -0.00162,-0.04944 0.0358,0 0.00455,0.39663 -0.0374,0 -0.07011,-0.39663 0.0358,0 0.00743,0.04944 z m 0.01501,0.09416 0.01769,0.12099 0.00124,0 C 0.42285,0.67608 0.42181,0.65872 0.4212,0.64188 l -0.00271,-0.06996 -0.01358,0"
                         style="fill:#e22739;fill-opacity:1;fill-rule:evenodd;stroke:none"
                         id="path156" />
                      <g
                         id="g158"
                         transform="scale(0.439587,2.274863)">
                        <path
                           d="M 1.1065,0.3482 C 1.1079,0.33712 1.1058,0.32201 1.0973,0.30052 L 1.053,0.18703 l 0.045,0 0.0438,0.11248 c 0.0174,0.01847 0.028,0.02351 0.0368,0.02351 0.005,0 0.0088,-0.00101 0.0125,-0.00336 L 1.2176,0.35928 C 1.212,0.36231 1.2091,0.36297 1.2028,0.36297 1.186,0.36297 1.168,0.35223 1.1501,0.33679 1.1532,0.34652 1.1527,0.35895 1.151,0.36466 L 1.1065,0.3482 z"
                           style="fill:#ef2c30;fill-opacity:1;fill-rule:nonzero;stroke:#ef2c30;stroke-width:0.007;stroke-linecap:butt;stroke-linejoin:miter;stroke-miterlimit:3.86400008;stroke-opacity:1;stroke-dasharray:none"
                           id="path160" />
                      </g>
                      <path
                         d="M 0.57337,0.5324 C 0.56539,0.50643 0.55778,0.49116 0.55099,0.49116 c -0.00826,0 -0.01206,0.01832 -0.01054,0.06263 3.4e-4,0.00993 0.00194,0.03514 0.00194,0.03514 0,0 0.00365,-0.00535 0.00882,-0.00535 0.02509,0 0.0403,0.06035 0.04284,0.13444 C 0.59667,0.7944 0.58694,0.82496 0.57203,0.82496 0.56199,0.82496 0.55308,0.81045 0.54427,0.77302 0.53251,0.7226 0.52271,0.63934 0.51994,0.55837 0.51669,0.46365 0.52564,0.41477 0.54365,0.41477 c 0.01063,0 0.02109,0.0168 0.03254,0.05347 L 0.57337,0.5324 z M 0.54804,0.6592 c 0.00529,0.06799 0.01168,0.0909 0.01921,0.0909 0.0059,0 0.00739,-0.01681 0.00658,-0.04048 C 0.5725,0.67066 0.56208,0.65538 0.55352,0.65538 0.55087,0.65538 0.54804,0.6592 0.54804,0.6592"
                         style="fill:#ef2c30;fill-opacity:1;fill-rule:evenodd;stroke:none"
                         id="path162" />
                      <g
                         id="g164"
                         transform="scale(0.439587,2.274863)">
                        <path
                           d="M 1.3043,0.23404 C 1.2862,0.22262 1.2689,0.21591 1.2534,0.21591 c -0.0188,0 -0.0274,0.00805 -0.024,0.02753 8e-4,0.00436 0.0045,0.01544 0.0045,0.01544 0,0 0.0083,-0.00235 0.02,-0.00235 0.0571,0 0.0917,0.02653 0.0975,0.0591 C 1.3573,0.34921 1.3352,0.36264 1.3013,0.36264 1.2785,0.36264 1.2582,0.35626 1.2381,0.33981 1.2114,0.31765 1.1891,0.28105 1.1828,0.24545 1.1754,0.20382 1.1958,0.18233 1.2367,0.18233 c 0.0242,0 0.048,0.00738 0.074,0.0235 L 1.3043,0.23404 z M 1.2467,0.28978 c 0.012,0.02988 0.0266,0.03996 0.0437,0.03996 0.0134,0 0.0168,-0.00739 0.015,-0.0178 C 1.3024,0.29481 1.2787,0.2881 1.2592,0.2881 c -0.0061,0 -0.0125,0.00168 -0.0125,0.00168 z"
                           style="fill:none;stroke:#ef2c30;stroke-width:0.007;stroke-linecap:butt;stroke-linejoin:miter;stroke-miterlimit:3.86400008;stroke-opacity:1;stroke-dasharray:none"
                           id="path166" />
                      </g>
                      <path
                         d="M 0.65233,0.73482 0.63772,0.54539 C 0.63478,0.524 0.62738,0.49344 0.62221,0.49344 c -0.00516,0 -0.00721,0.02215 -0.00592,0.05959 0.00167,0.04889 0.00748,0.11916 0.01439,0.15735 0.00329,0.01834 0.00987,0.03361 0.0137,0.03361 0.00355,0 0.00654,-0.00305 0.00795,-0.00917 z M 0.61423,0.41553 c 0.00576,0 0.01223,0.01222 0.01751,0.03285 C 0.63058,0.43616 0.62899,0.41553 0.62793,0.40178 0.62477,0.3613 0.61736,0.33456 0.60658,0.33456 c -0.00871,0 -0.01574,0.00994 -0.02031,0.0275 L 0.57712,0.29332 C 0.58318,0.27193 0.5923,0.25818 0.60234,0.25818 c 0.01771,0 0.03694,0.03131 0.04498,0.13673 C 0.65,0.43005 0.65188,0.46747 0.6578,0.54539 L 0.6731,0.74628 C 0.67449,0.76538 0.67768,0.79822 0.67768,0.79822 0.6698,0.81808 0.66148,0.82496 0.64863,0.82496 0.63757,0.82496 0.62736,0.80281 0.61927,0.76919 0.60683,0.71649 0.59801,0.62712 0.59537,0.54997 0.59225,0.45907 0.59755,0.41553 0.61423,0.41553"
                         style="fill:#ef2c30;fill-opacity:1;fill-rule:evenodd;stroke:none"
                         id="path168" />
                      <path
                         d="M 0.72927,0.92426 C 0.73031,0.95481 0.72645,0.98002 0.72055,0.98002 0.7145,0.98002 0.70876,0.95481 0.70769,0.9235 0.70664,0.89294 0.71065,0.86774 0.71655,0.86774 c 0.00605,0 0.01164,0.0252 0.01272,0.05652 z M 0.71877,0.82038 0.70135,0.80739 0.67261,0.42546 l 0.01653,0 0.02963,0.39492"
                         style="fill:#ef2c30;fill-opacity:1;fill-rule:evenodd;stroke:none"
                         id="path170" />
                      <path
                         d="m 0.79088,0.68517 c 0.00291,0.08479 -0.00464,0.13597 -0.02176,0.13597 -0.0248,0 -0.04639,-0.11763 -0.0515,-0.26659 -0.00304,-0.0886 0.00471,-0.13826 0.02124,-0.13826 0.02745,0 0.04718,0.12757 0.05202,0.26888 z M 0.77342,0.68823 C 0.7702,0.59427 0.75845,0.4797 0.74398,0.4797 c -0.00723,0 -0.0108,0.02062 -0.0092,0.06722 0.00301,0.08784 0.01487,0.21006 0.02963,0.21006 0.00665,0 0.01079,-0.01681 0.00901,-0.06875"
                         style="fill:#ef2c30;fill-opacity:1;fill-rule:evenodd;stroke:none"
                         id="path172" />
                      <path
                         d="m 0.87203,0.74399 c 0.0016,0.0466 -0.00299,0.07639 -0.01229,0.07639 -0.01033,0 -0.02062,-0.02445 -0.02922,-0.06875 0.00195,0.02673 0.00203,0.055 0.00116,0.07256 L 0.81552,0.79211 C 0.81618,0.76385 0.81514,0.73788 0.81182,0.69281 l -0.02008,-0.26735 0.01594,0 0.01897,0.25207 c 0.00963,0.05271 0.01767,0.0718 0.02298,0.0718 0.00399,0 0.00562,-0.00839 0.00486,-0.03055 C 0.8542,0.71038 0.85348,0.69816 0.85217,0.68135 l -0.01925,-0.25589 0.01609,0 0.02084,0.27652 c 0.00104,0.01298 0.00174,0.02903 0.00218,0.04201"
                         style="fill:#ef2c30;fill-opacity:1;fill-rule:nonzero;stroke:none"
                         id="path174" />
                      <path
                         d="M 0.95153,0.78524 C 0.94663,0.80587 0.93991,0.81656 0.93194,0.81656 0.92058,0.81656 0.90943,0.79288 0.90037,0.75239 0.88887,0.70121 0.88028,0.61414 0.87771,0.53928 0.87483,0.45526 0.88214,0.41858 0.89114,0.41858 c 0.01137,0 0.02154,0.0298 0.02813,0.07563 C 0.9174,0.45678 0.91826,0.43463 0.92188,0.41095 l 0.0104,0.03666 C 0.9293,0.46824 0.92838,0.48428 0.93323,0.54844 L 0.94497,0.7058 c 0.0019,0.02521 0.0049,0.0611 0.00656,0.07944 z M 0.93775,0.75774 0.92305,0.56143 C 0.9159,0.50796 0.90574,0.46977 0.89791,0.46977 c -0.00693,0 -0.00999,0.01833 -0.00827,0.06874 0.00194,0.05653 0.00738,0.12909 0.01633,0.17493 0.00751,0.03819 0.01414,0.05499 0.02329,0.05499 0.00354,0 0.00651,-0.00381 0.00849,-0.01069"
                         style="fill:#ef2c30;fill-opacity:1;fill-rule:evenodd;stroke:none"
                         id="path176" />
                      <path
                         d="M 0.99834,0.98843 0.98525,0.96398 C 0.98574,0.93954 0.98455,0.90058 0.98073,0.8494 L 0.95414,0.49574 C 0.95328,0.48352 0.95262,0.47282 0.95228,0.46289 0.95126,0.4331 0.95442,0.41782 0.96048,0.41782 c 0.0031,0 0.00595,0.00153 0.00929,0.00841 l 6e-4,0.03895 C 0.96957,0.46365 0.96839,0.46365 0.96751,0.46365 c -0.00207,0 -0.00289,0.00612 -0.00247,0.01834 2.3e-4,0.00687 8.7e-4,0.0168 0.00168,0.02749 L 0.99239,0.8494 c 0.00349,0.04583 0.00679,0.1077 0.00595,0.13903"
                         style="fill:#ef2c30;fill-opacity:1;fill-rule:nonzero;stroke:none"
                         id="path178" />
                      <path
                         d="m 0.49602,0.23109 -0.01406,0 -0.01964,-0.219137 0.01285,0 0.00365,0.043377 0.02177,0 0.004,-0.043377 0.01307,0 -0.02164,0.219137 z m 0.001,-0.137523 -0.01499,0 0.00714,0.085153 0.00785,-0.085153"
                         style="fill:#231f20;fill-opacity:1;fill-rule:evenodd;stroke:none"
                         id="path180" />
                      <path
                         d="m 0.52478,0.011953 0.012139,0 0,0.21914 -0.012139,0 0,-0.21914 z"
                         style="fill:#231f20;fill-opacity:1;fill-rule:nonzero;stroke:none"
                         id="path182" />
                      <path
                         d="m 0.54893,0.23109 0,-0.219137 0.01213,0 0,0.089007 0.0035,0 c 0.00657,0 0.0085,-0.042095 0.01371,-0.089007 l 0.01336,0 C 0.58477,0.076216 0.58327,0.10321 0.57827,0.11445 c 0.00557,0.01157 0.00836,0.02956 0.00836,0.05366 0,0.03278 -0.00593,0.06298 -0.01593,0.06298 l -0.02177,0 z m 0.01213,-0.04016 0.00615,0 c 0.00456,0 0.00692,-0.00836 0.00692,-0.02474 0,-0.01864 -0.00328,-0.02507 -0.00664,-0.02507 l -0.00643,0 0,0.04981"
                         style="fill:#231f20;fill-opacity:1;fill-rule:evenodd;stroke:none"
                         id="path184" />
                      <path
                         d="m 0.66757,0.23109 -0.01214,0 0,-0.133989 -0.02599,0.133989 -0.01114,0 0,-0.219137 0.01214,0 0,0.140417 0.02692,-0.140417 0.01021,0 0,0.219137"
                         style="fill:#231f20;fill-opacity:1;fill-rule:nonzero;stroke:none"
                         id="path186" />
                      <path
                         d="m 0.73339,0.12152 c 0,0.0527 -0.0095,0.11246 -0.02785,0.11246 -0.01835,0 -0.02792,-0.05944 -0.02792,-0.11246 0,-0.055907 0.01007,-0.11246 0.02792,-0.11246 0.01749,0 0.02785,0.056231 0.02785,0.11246 z m -0.0125,0 c 0,-0.040162 -0.00614,-0.066832 -0.01535,-0.066832 -0.00928,0 -0.01542,0.02667 -0.01542,0.066832 0,0.04017 0.00614,0.06684 0.01542,0.06684 0.00921,0 0.01535,-0.02667 0.01535,-0.06684"
                         style="fill:#231f20;fill-opacity:1;fill-rule:evenodd;stroke:none"
                         id="path188" />
                      <path
                         d="m 0.77611,0.21695 c -0.00614,0.01189 -0.01107,0.01703 -0.0165,0.01703 -0.01128,0 -0.01856,-0.02506 -0.01856,-0.06297 0,-0.078728 0.02477,-0.06555 0.02477,-0.101542 0,-0.012852 -0.0025,-0.020242 -0.00714,-0.020242 -0.00535,0 -0.00964,0.00739 -0.01663,0.028275 l 0,-0.047234 C 0.7469,0.019021 0.75111,0.00906 0.75961,0.00906 c 0.01086,0 0.01871,0.024419 0.01871,0.066513 0,0.076477 -0.02478,0.067157 -0.02478,0.100247 0,0.01093 0.00279,0.018 0.00714,0.018 0.00414,0 0.00836,-0.00546 0.01543,-0.0196 l 0,0.04273"
                         style="fill:#231f20;fill-opacity:1;fill-rule:nonzero;stroke:none"
                         id="path190" />
                      <path
                         d="m 0.83156,0.23109 -0.04742,0 0,-0.04016 0.01764,0 0,-0.178977 0.01214,0 0,0.178977 0.01764,0 0,0.04016"
                         style="fill:#231f20;fill-opacity:1;fill-rule:nonzero;stroke:none"
                         id="path192" />
                      <path
                         d="m 0.84004,0.23109 0,-0.219137 0.01214,0 0,0.089007 0.00349,0 c 0.00657,0 0.0085,-0.042095 0.01371,-0.089007 l 0.01336,0 C 0.87588,0.076216 0.87438,0.10321 0.86938,0.11445 c 0.00557,0.01157 0.00836,0.02956 0.00836,0.05366 0,0.03278 -0.00593,0.06298 -0.01593,0.06298 l -0.02177,0 z m 0.01214,-0.04016 0.00614,0 c 0.00457,0 0.00692,-0.00836 0.00692,-0.02474 0,-0.01864 -0.00328,-0.02507 -0.00664,-0.02507 l -0.00642,0 0,0.04981"
                         style="fill:#231f20;fill-opacity:1;fill-rule:evenodd;stroke:none"
                         id="path194" />
                      <path
                         d="m 0.92345,0.23109 0,-0.1221 c 0,-0.039201 -0.00593,-0.054302 -0.01235,-0.054302 -0.007,0 -0.01207,0.018958 -0.01207,0.050442 l 0,0.12596 -0.01214,0 0,-0.12467 c 0,-0.067799 0.01021,-0.09736 0.02435,-0.09736 0.01335,0 0.02435,0.025063 0.02435,0.09768 l 0,0.12435 -0.01214,0"
                         style="fill:#231f20;fill-opacity:1;fill-rule:nonzero;stroke:none"
                         id="path196" />
                      <path
                         d="m 0.97349,0.1498 -0.01564,0.08129 -0.01057,0 0,-0.219137 0.01214,0 0,0.136877 0.01314,-0.068759 0.00186,0 0.01313,0.068759 0,-0.136877 0.01214,0 0,0.219137 -0.01057,0 L 0.97349,0.1498"
                         style="fill:#231f20;fill-opacity:1;fill-rule:nonzero;stroke:none"
                         id="path198" />
                      <path
                         d="m 0.49185,0.24429 -0.01407,0 -0.01964,-0.219135 0.01286,0 0.00364,0.043378 0.02178,0 0.004,-0.043378 0.01306,0 -0.02163,0.219135 z m 0.001,-0.13752 -0.015,0 0.00714,0.08515 0.00786,-0.08515"
                         style="fill:#e22739;fill-opacity:1;fill-rule:evenodd;stroke:none"
                         id="path200" />
                      <path
                         d="m 0.5206,0.025155 0.012139,0 0,0.21914 -0.012139,0 0,-0.21914 z"
                         style="fill:#e22739;fill-opacity:1;fill-rule:nonzero;stroke:none"
                         id="path202" />
                      <path
                         d="m 0.54475,0.24429 0,-0.219135 0.01214,0 0,0.089005 0.0035,0 c 0.00657,0 0.00849,-0.042093 0.01371,-0.089005 l 0.01335,0 C 0.58059,0.089418 0.57909,0.11641 0.5741,0.12765 c 0.00556,0.01157 0.00835,0.02957 0.00835,0.05366 0,0.03278 -0.00593,0.06298 -0.01592,0.06298 l -0.02178,0 z m 0.01214,-0.04016 0.00614,0 c 0.00457,0 0.00692,-0.00836 0.00692,-0.02474 0,-0.01864 -0.00328,-0.02507 -0.00664,-0.02507 l -0.00642,0 0,0.04981"
                         style="fill:#e22739;fill-opacity:1;fill-rule:evenodd;stroke:none"
                         id="path204" />
                      <path
                         d="m 0.66339,0.24429 -0.01214,0 0,-0.13399 -0.02599,0.13399 -0.01114,0 0,-0.219135 0.01214,0 0,0.140415 0.02692,-0.140415 0.01021,0 0,0.219135"
                         style="fill:#049adb;fill-opacity:1;fill-rule:nonzero;stroke:none"
                         id="path206" />
                      <path
                         d="m 0.72921,0.13472 c 0,0.0527 -0.0095,0.11246 -0.02785,0.11246 -0.01835,0 -0.02792,-0.05944 -0.02792,-0.11246 0,-0.055905 0.01007,-0.112457 0.02792,-0.112457 0.0175,0 0.02785,0.05623 0.02785,0.112457 z m -0.0125,0 c 0,-0.04016 -0.00614,-0.06683 -0.01535,-0.06683 -0.00928,0 -0.01542,0.02667 -0.01542,0.06683 0,0.04017 0.00614,0.06684 0.01542,0.06684 0.00921,0 0.01535,-0.02667 0.01535,-0.06684"
                         style="fill:#049adb;fill-opacity:1;fill-rule:evenodd;stroke:none"
                         id="path208" />
                      <path
                         d="m 0.77193,0.23015 c -0.00614,0.01189 -0.01107,0.01703 -0.0165,0.01703 -0.01128,0 -0.01856,-0.02506 -0.01856,-0.06297 0,-0.07873 0.02478,-0.06555 0.02478,-0.10154 0,-0.012852 -0.0025,-0.020242 -0.00714,-0.020242 -0.00536,0 -0.00964,0.00739 -0.01664,0.028275 l 0,-0.047234 C 0.74272,0.032222 0.74694,0.022263 0.75543,0.022263 c 0.01086,0 0.01871,0.024418 0.01871,0.066512 0,0.076475 -0.02477,0.067155 -0.02477,0.100255 0,0.01092 0.00278,0.01799 0.00714,0.01799 0.00414,0 0.00835,-0.00546 0.01542,-0.0196 l 0,0.04273"
                         style="fill:#049adb;fill-opacity:1;fill-rule:nonzero;stroke:none"
                         id="path210" />
                      <path
                         d="m 0.82738,0.24429 -0.04741,0 0,-0.04016 0.01763,0 0,-0.178975 0.01214,0 0,0.178975 0.01764,0 0,0.04016"
                         style="fill:#049adb;fill-opacity:1;fill-rule:nonzero;stroke:none"
                         id="path212" />
                      <path
                         d="m 0.83586,0.24429 0,-0.219135 0.01214,0 0,0.089005 0.0035,0 c 0.00657,0 0.00849,-0.042093 0.01371,-0.089005 l 0.01335,0 C 0.8717,0.089418 0.8702,0.11641 0.86521,0.12765 c 0.00557,0.01157 0.00835,0.02957 0.00835,0.05366 0,0.03278 -0.00593,0.06298 -0.01592,0.06298 l -0.02178,0 z M 0.848,0.20413 l 0.00614,0 c 0.00457,0 0.00692,-0.00836 0.00692,-0.02474 0,-0.01864 -0.00328,-0.02507 -0.00664,-0.02507 l -0.00642,0 0,0.04981"
                         style="fill:#049adb;fill-opacity:1;fill-rule:evenodd;stroke:none"
                         id="path214" />
                      <path
                         d="m 0.91927,0.24429 0,-0.1221 c 0,-0.039199 -0.00592,-0.0543 -0.01235,-0.0543 -0.007,0 -0.01207,0.018957 -0.01207,0.05045 l 0,0.12595 -0.01214,0 0,-0.12467 c 0,-0.067797 0.01021,-0.097357 0.02435,-0.097357 0.01335,0 0.02435,0.025062 0.02435,0.097677 l 0,0.12435 -0.01214,0"
                         style="fill:#049adb;fill-opacity:1;fill-rule:nonzero;stroke:none"
                         id="path216" />
                      <path
                         d="m 0.96931,0.163 -0.01564,0.08129 -0.01057,0 0,-0.219135 0.01214,0 0,0.136875 0.01314,-0.068756 0.00186,0 0.01314,0.068756 0,-0.136875 0.01213,0 0,0.219135 -0.01056,0 L 0.96931,0.163"
                         style="fill:#049adb;fill-opacity:1;fill-rule:nonzero;stroke:none"
                         id="path218" />
                      <path
                         d="m 0.019175,0.16845 c 8.84e-4,0.00664 0.001326,0.01402 0.001326,0.02212 0,0.00732 -3.16e-4,0.01328 -9.51e-4,0.01787 C 0.018546,0.21567 0.016816,0.21927 0.014359,0.21928 0.012179,0.21928 0.010594,0.2162 0.009604,0.21005 0.008613,0.2039 0.008117,0.19648 0.008117,0.18779 c 0,-0.00835 4.96e-4,-0.01531 0.001487,-0.02088 9.9e-4,-0.00556 0.002562,-0.00835 0.004716,-0.00835 0.002364,0 0.003981,0.0033 0.004855,0.00989 z M 0.021393,0.22067 C 0.023283,0.21393 0.024226,0.20402 0.024227,0.19094 0.024227,0.17829 0.023394,0.16784 0.02173,0.15959 0.020066,0.15134 0.017483,0.14721 0.013983,0.14721 c -0.00292,0 -0.005238,0.00364 -0.006955,0.01091 -0.001718,0.00733 -0.002576,0.01714 -0.002576,0.02945 0,0.01318 9.05e-4,0.02368 0.002714,0.03149 0.001811,0.00781 0.00424,0.01172 0.007292,0.01172 0.002735,0 0.005046,-0.00337 0.006935,-0.01011"
                         style="fill:#ef2c30;fill-opacity:1;fill-rule:evenodd;stroke:none"
                         id="path220" />
                      <path
                         d="m 0.063883,0.16662 c 0.001109,0.00517 0.001664,0.01289 0.001664,0.02314 0,0.00625 -2.44e-4,0.01162 -7.32e-4,0.01612 -9.26e-4,0.00864 -0.002616,0.01296 -0.005073,0.01296 -0.002471,0 -0.004161,-0.00457 -0.005072,-0.0137 -4.9e-4,-0.00488 -7.34e-4,-0.01108 -7.34e-4,-0.0186 0,-0.00605 2.44e-4,-0.01121 7.34e-4,-0.01545 9.24e-4,-0.00811 0.002615,-0.01216 0.005072,-0.01216 0.001664,0 0.003045,0.00256 0.004141,0.00769 z m -0.013374,0.06152 0.003467,0 0,-0.0104 c 7.13e-4,0.00357 0.001492,0.00633 0.002338,0.00828 0.001201,0.00293 0.002615,0.00439 0.004241,0.00439 0.002403,0 0.004444,-0.00341 0.006122,-0.01025 C 0.068354,0.21337 0.069192,0.20365 0.069193,0.19101 0.069193,0.17392 0.067984,0.16171 0.065567,0.15439 0.064035,0.14975 0.062252,0.14743 0.060217,0.14743 0.058619,0.14743 0.057278,0.14872 0.056196,0.15131 0.055561,0.15278 0.054855,0.15529 0.054075,0.15886 l 0,-0.04007 -0.003566,0 0,0.10935"
                         style="fill:#ef2c30;fill-opacity:1;fill-rule:evenodd;stroke:none"
                         id="path222" />
                      <path
                         d="M 0.10889,0.22631 C 0.1103,0.22372 0.11138,0.22035 0.11212,0.2162 0.11283,0.21225 0.11331,0.20763 0.11355,0.20236 0.11376,0.19875 0.11386,0.19299 0.11386,0.18508 l -0.015552,0 C 0.098374,0.17712 0.098883,0.17072 0.099834,0.16589 0.10078,0.1611 0.10226,0.15871 0.10425,0.15871 c 0.00187,0 0.00335,0.00227 0.00446,0.00681 6.3e-4,0.00264 0.00108,0.00569 0.00135,0.00916 l 0.0035,0 C 0.11347,0.17179 0.11316,0.16857 0.11263,0.16501 0.11212,0.16149 0.11154,0.15861 0.11089,0.15637 0.10981,0.15246 0.10847,0.14982 0.10687,0.14846 0.10601,0.14768 0.10504,0.14728 0.10396,0.14728 0.10131,0.14728 0.099074,0.15082 0.097239,0.1579 0.095402,0.16503 0.094485,0.17499 0.094485,0.18779 c 0,0.01259 9.24e-4,0.02282 0.002773,0.03068 0.00185,0.00787 0.004262,0.0118 0.007252,0.0118 0.00151,0 0.00297,-0.00132 0.00438,-0.00396 z M 0.1102,0.19555 C 0.11005,0.20126 0.10971,0.20583 0.10919,0.20925 0.10821,0.21559 0.10658,0.21876 0.10429,0.21877 0.10265,0.21877 0.10128,0.21657 0.10017,0.21218 0.099062,0.20783 0.098474,0.20229 0.098407,0.19555 l 0.011793,0"
                         style="fill:#ef2c30;fill-opacity:1;fill-rule:evenodd;stroke:none"
                         id="path224" />
                      <path
                         d="m 0.14066,0.22851 0.00339,0 0,-0.01355 c 2.7e-4,0.00264 9.5e-4,0.00583 0.00204,0.00959 0.00108,0.00381 0.00233,0.00572 0.00374,0.00572 7e-5,0 1.8e-4,-3e-5 3.4e-4,-8e-5 1.6e-4,-4e-5 4.3e-4,-1.4e-4 8.1e-4,-2.9e-4 l 0,-0.01392 c -2.1e-4,1.5e-4 -4.1e-4,2.5e-4 -5.9e-4,3e-4 -1.7e-4,4e-5 -3.7e-4,7e-5 -5.8e-4,7e-5 C 0.14802,0.21635 0.14664,0.2142 0.14567,0.20991 0.14471,0.20566 0.14423,0.20075 0.14423,0.19518 l 0,-0.04511 -0.00357,0 0,0.07844"
                         style="fill:#ef2c30;fill-opacity:1;fill-rule:nonzero;stroke:none"
                         id="path226" />
                      <path
                         d="m 0.18026,0.16193 c 7.5e-4,-0.0022 0.00164,-0.00329 0.00267,-0.00329 0.00126,0 0.00247,0.00107 0.00365,0.00322 0.00198,0.00356 0.00297,0.0094 0.00297,0.0175 l 0,0.01062 C 0.18911,0.18896 0.18855,0.1881 0.18786,0.18742 0.18718,0.18674 0.1865,0.18625 0.18584,0.18596 L 0.18368,0.18493 C 0.18239,0.1843 0.18142,0.18329 0.18077,0.18193 0.17967,0.17963 0.17913,0.17597 0.17913,0.17094 c 0,-0.00381 3.7e-4,-0.00681 0.00113,-0.00901 z M 0.18777,0.1976 c 8.1e-4,3.9e-4 0.00136,0.00166 0.00164,0.00381 1.6e-4,0.00117 2.4e-4,0.00286 2.4e-4,0.00505 0,0.0045 -4.4e-4,0.00774 -0.00131,0.00974 C 0.18748,0.21826 0.18625,0.21928 0.18463,0.21928 0.18277,0.21928 0.18145,0.21742 0.18067,0.21371 0.18024,0.21166 0.17995,0.20861 0.17982,0.20456 l -0.00333,0 c 7e-5,0.00967 9.1e-4,0.01638 0.00254,0.02014 0.00164,0.00381 0.00353,0.00571 0.00568,0.00571 0.0025,0 0.00453,-0.00175 0.00609,-0.00527 C 0.19234,0.22162 0.19312,0.21616 0.19312,0.20873 l 0,-0.04519 c 0,-0.00136 7e-5,-0.00246 2.1e-4,-0.00329 1.6e-4,-8.3e-4 4.9e-4,-0.00125 9.7e-4,-0.00125 1.6e-4,0 3.4e-4,3e-5 5.4e-4,8e-5 2e-4,9e-5 4.1e-4,2.1e-4 6.3e-4,3.6e-4 l 0,-0.00974 C 0.19492,0.14911 0.1945,0.14875 0.19421,0.1486 0.19391,0.14846 0.19352,0.14838 0.19302,0.14838 0.19179,0.14838 0.1909,0.14999 0.19034,0.15322 0.19005,0.15493 0.18985,0.15734 0.18973,0.16047 0.189,0.15695 0.18796,0.1539 0.1866,0.15131 0.18524,0.14872 0.18374,0.14743 0.1821,0.14743 0.18013,0.14743 0.17852,0.14963 0.17726,0.15402 0.17602,0.15846 0.1754,0.16401 0.1754,0.17065 c 0,0.00727 6.2e-4,0.01291 0.00184,0.01692 0.00123,0.004 0.00284,0.00647 0.00484,0.00739 L 0.18777,0.1976"
                         style="fill:#ef2c30;fill-opacity:1;fill-rule:evenodd;stroke:none"
                         id="path228" />
                      <path
                         d="m 0.22499,0.16728 c 9.6e-4,-0.00567 0.0025,-0.0085 0.00463,-0.0085 0.00165,0 0.00301,0.00261 0.00406,0.00784 0.00107,0.00527 0.00161,0.01282 0.00161,0.02263 0,0.00991 -5.5e-4,0.01724 -0.00165,0.02197 C 0.23255,0.21601 0.23119,0.2184 0.22958,0.2184 0.22778,0.2184 0.22633,0.21586 0.2252,0.21078 0.22409,0.2057 0.22354,0.19823 0.22354,0.18837 c 0,-0.00839 4.8e-4,-0.01543 0.00145,-0.02109 z m 0.008,0.05881 C 0.23362,0.22463 0.23434,0.22206 0.23515,0.2184 l 0,0.03963 0.00343,0 0,-0.10796 -0.00321,0 0,0.01091 C 0.23453,0.15615 0.23355,0.15266 0.23242,0.15051 0.23128,0.14836 0.22998,0.14728 0.22851,0.14728 c -0.00236,0 -0.00441,0.00367 -0.00614,0.01099 -0.00173,0.00737 -0.0026,0.01716 -0.0026,0.02937 0,0.01143 7.9e-4,0.02131 0.00236,0.02966 0.00159,0.0084 0.00385,0.0126 0.00678,0.0126 0.00162,0 0.00298,-0.00127 0.00408,-0.00381"
                         style="fill:#ef2c30;fill-opacity:1;fill-rule:evenodd;stroke:none"
                         id="path230" />
                      <path
                         d="m 0.27944,0.16845 c 8.9e-4,0.00664 0.00133,0.01402 0.00133,0.02212 0,0.00732 -3.2e-4,0.01328 -9.5e-4,0.01787 C 0.27881,0.21567 0.27708,0.21927 0.27463,0.21928 0.27245,0.21928 0.27086,0.2162 0.26987,0.21005 0.26888,0.2039 0.26839,0.19648 0.26839,0.18779 c 0,-0.00835 4.9e-4,-0.01531 0.00148,-0.02088 9.9e-4,-0.00556 0.00256,-0.00835 0.00472,-0.00835 0.00236,0 0.00398,0.0033 0.00485,0.00989 z M 0.28166,0.22067 C 0.28355,0.21393 0.28449,0.20402 0.2845,0.19094 0.2845,0.17829 0.28366,0.16784 0.282,0.15959 0.28033,0.15134 0.27775,0.14721 0.27425,0.14721 0.27133,0.14721 0.26901,0.15085 0.2673,0.15812 0.26558,0.16545 0.26472,0.17526 0.26472,0.18757 c 0,0.01318 9e-4,0.02368 0.00272,0.03149 0.0018,0.00781 0.00423,0.01172 0.00729,0.01172 0.00273,0 0.00504,-0.00337 0.00693,-0.01011"
                         style="fill:#ef2c30;fill-opacity:1;fill-rule:evenodd;stroke:none"
                         id="path232" />
                      <path
                         d="m 0.35774,0.16662 c 0.00111,0.00517 0.00167,0.01289 0.00167,0.02314 0,0.00625 -2.5e-4,0.01162 -7.3e-4,0.01612 C 0.35775,0.21452 0.35606,0.21884 0.3536,0.21884 0.35113,0.21884 0.34944,0.21427 0.34853,0.20514 0.34804,0.20026 0.3478,0.19406 0.3478,0.18654 c 0,-0.00605 2.4e-4,-0.01121 7.3e-4,-0.01545 9.3e-4,-0.00811 0.00262,-0.01216 0.00507,-0.01216 0.00167,0 0.00305,0.00256 0.00414,0.00769 z m -0.01337,0.06152 0.00347,0 0,-0.0104 c 7.1e-4,0.00357 0.00149,0.00633 0.00234,0.00828 0.0012,0.00293 0.00261,0.00439 0.00424,0.00439 0.0024,0 0.00444,-0.00341 0.00612,-0.01025 C 0.36222,0.21337 0.36305,0.20365 0.36305,0.19101 0.36305,0.17392 0.36185,0.16171 0.35943,0.15439 0.3579,0.14975 0.35611,0.14743 0.35408,0.14743 c -0.0016,0 -0.00294,0.00129 -0.00402,0.00388 -6.4e-4,0.00147 -0.00135,0.00398 -0.00212,0.00755 l 0,-0.04007 -0.00357,0 0,0.10935"
                         style="fill:#ef2c30;fill-opacity:1;fill-rule:evenodd;stroke:none"
                         id="path234" />
                      <path
                         d="m 0.40281,0.16845 c 8.9e-4,0.00664 0.00133,0.01402 0.00133,0.02212 0,0.00732 -3.2e-4,0.01328 -9.5e-4,0.01787 C 0.40218,0.21567 0.40045,0.21927 0.398,0.21928 0.39582,0.21928 0.39423,0.2162 0.39324,0.21005 0.39225,0.2039 0.39175,0.19648 0.39175,0.18779 c 0,-0.00835 5e-4,-0.01531 0.00149,-0.02088 9.9e-4,-0.00556 0.00256,-0.00835 0.00472,-0.00835 0.00236,0 0.00398,0.0033 0.00485,0.00989 z M 0.40503,0.22067 C 0.40692,0.21393 0.40786,0.20402 0.40786,0.19094 0.40786,0.17829 0.40703,0.16784 0.40537,0.15959 0.4037,0.15134 0.40112,0.14721 0.39762,0.14721 0.3947,0.14721 0.39238,0.15085 0.39066,0.15812 0.38895,0.16545 0.38809,0.17526 0.38809,0.18757 c 0,0.01318 9e-4,0.02368 0.00271,0.03149 0.00181,0.00781 0.00424,0.01172 0.00729,0.01172 0.00274,0 0.00505,-0.00337 0.00694,-0.01011"
                         style="fill:#ef2c30;fill-opacity:1;fill-rule:evenodd;stroke:none"
                         id="path236" />
                      <path
                         d="m 0.43452,0.22851 0.00339,0 0,-0.01355 c 2.8e-4,0.00264 9.6e-4,0.00583 0.00204,0.00959 0.00108,0.00381 0.00233,0.00572 0.00374,0.00572 7e-5,0 1.8e-4,-3e-5 3.4e-4,-8e-5 1.6e-4,-4e-5 4.3e-4,-1.4e-4 8.1e-4,-2.9e-4 l 0,-0.01392 c -2.1e-4,1.5e-4 -4.1e-4,2.5e-4 -5.9e-4,3e-4 -1.7e-4,4e-5 -3.6e-4,7e-5 -5.8e-4,7e-5 C 0.44188,0.21635 0.4405,0.2142 0.43953,0.20991 0.43857,0.20566 0.43809,0.20075 0.43809,0.19518 l 0,-0.04511 -0.00357,0 0,0.07844"
                         style="fill:#ef2c30;fill-opacity:1;fill-rule:nonzero;stroke:none"
                         id="path238" />
                    </g>
                  </g>
                </g>
              </g>
            </g>
          </g>
        </g>
      </g>
    </g>
  </g>
</svg>
