<?xml version="1.0" encoding="utf-8"?>
<!-- Generator: Adobe Illustrator 16.0.3, SVG Export Plug-In . SVG Version: 6.00 Build 0)  -->
<!DOCTYPE svg PUBLIC "-//W3C//DTD SVG 1.1//EN" "http://www.w3.org/Graphics/SVG/1.1/DTD/svg11.dtd">
<svg version="1.1"
	 id="AIRFRANCE_Logo" xmlns:dc="http://purl.org/dc/elements/1.1/" xmlns:rdf="http://www.w3.org/1999/02/22-rdf-syntax-ns#" xmlns:svg="http://www.w3.org/2000/svg" xmlns:cc="http://creativecommons.org/ns#"
	 xmlns="http://www.w3.org/2000/svg" xmlns:xlink="http://www.w3.org/1999/xlink" x="0px" y="0px" width="960px" height="91.81px"
	 viewBox="78.846 444.791 960 91.81" enable-background="new 78.846 444.791 960 91.81" xml:space="preserve">
<path fill="#051039" d="M551.231,498.72h23.376l-12.144-22.466L551.231,498.72z M592.45,530.224l-9.186-16.177h-40.08l-8.273,16.177
	h-19.963l39.924-73.56h18.142l45.17,73.56H592.45z M121.123,498.72h23.985l-12.452-22.466L121.123,498.72z M163.479,530.224
	l-9.414-16.177h-41.145l-8.585,16.177h-20.49l40.99-73.56h18.68l46.451,73.56H163.479z M283.034,490.445
	c8.502,0,12.609-4.334,12.609-9.185c0-4.861-3.652-8.885-12.609-8.885h-22.848v18.069H283.034z M300.194,502.588l29.674,27.636
	h-22.92c-5.089,0-8.419-1.604-11.088-4.179l-20.19-19.589c-0.372-0.373-0.982-0.601-1.737-0.601h-13.746v24.368h-21.483v-73.632
	h46.533c24.142,0,34.308,10.85,34.308,22.848C319.545,493.403,307.103,500.084,300.194,502.588 M467.421,490.445
	c8.502,0,12.609-4.334,12.609-9.185c0-4.861-3.652-8.885-12.609-8.885h-22.848v18.069H467.421z M484.581,502.588l29.685,27.636
	h-22.931c-5.088,0-8.419-1.604-11.078-4.179l-20.199-19.589c-0.373-0.373-0.983-0.601-1.738-0.601h-13.746v24.368h-21.483v-73.632
	h46.534c24.141,0,34.317,10.85,34.317,22.848C503.942,493.403,491.491,500.084,484.581,502.588 M817.836,530.224v-73.632h74.543
	v15.783h-53.07v12.753h52.232v15.784h-52.232v13.518h52.843v15.794H817.836z M338.143,530.224v-73.632h71.822v15.783h-50.331v18.297
	h49.182v15.784h-49.182v23.768H338.143z M804.844,480.35c-9.712-4.789-20.644-8.656-35.135-8.656
	c-17.315,0-30.224,8.957-30.224,21.408c0,12.754,13.136,21.784,30.068,21.784c13.963,0,25.051-3.568,35.974-9.868v18.225
	c-9.641,4.778-22.466,8.357-36.884,8.357c-29.458,0-52.615-15.05-52.615-38.498c0-23.074,23.612-37.875,52.543-37.875
	c13.652,0,26.033,2.575,36.272,6.753V480.35z M692.58,530.224l-51.622-43.72v43.72h-18.141v-73.632h15.41l50.93,43.037v-43.037
	h18.153v73.632H692.58z M197.104,456.592h21.483v73.632h-21.483V456.592z"/>
<path fill="#FF0000" d="M982.959,449.791l-42.666,61.729c-5.637,8.13-14.729,15.959-25.743,16.786v1.893h47.454
	c12.588,0,21.783-8.181,28.009-17.241l43.834-63.166H982.959"/>
</svg>
