<?xml version="1.0" encoding="UTF-8" standalone="no"?>
<!-- Created with Inkscape (http://www.inkscape.org/) -->
<svg
   xmlns:dc="http://purl.org/dc/elements/1.1/"
   xmlns:cc="http://web.resource.org/cc/"
   xmlns:rdf="http://www.w3.org/1999/02/22-rdf-syntax-ns#"
   xmlns:svg="http://www.w3.org/2000/svg"
   xmlns="http://www.w3.org/2000/svg"
   xmlns:sodipodi="http://sodipodi.sourceforge.net/DTD/sodipodi-0.dtd"
   xmlns:inkscape="http://www.inkscape.org/namespaces/inkscape"
   version="1.0"
   width="744.09448"
   height="206.92912"
   id="svg3155"
   sodipodi:version="0.32"
   inkscape:version="0.45pre1"
   sodipodi:docname="Air-Berlin-Logo.svg"
   inkscape:output_extension="org.inkscape.output.svg.inkscape"
   sodipodi:docbase="Y:\Eigene Dateien Andreas\Eigene Bilder\sonstiges\Logos\Vektor\[--Convertme!--]\[--!fertig--]"
   sodipodi:modified="true">
  <metadata
     id="metadata21">
    <rdf:RDF>
      <cc:Work
         rdf:about="">
        <dc:format>image/svg+xml</dc:format>
        <dc:type
           rdf:resource="http://purl.org/dc/dcmitype/StillImage" />
      </cc:Work>
    </rdf:RDF>
  </metadata>
  <sodipodi:namedview
     inkscape:window-height="574"
     inkscape:window-width="776"
     inkscape:pageshadow="2"
     inkscape:pageopacity="0.0"
     guidetolerance="10.0"
     gridtolerance="10.0"
     objecttolerance="10.0"
     borderopacity="1.0"
     bordercolor="#666666"
     pagecolor="#ffffff"
     id="base"
     inkscape:zoom="0.92864551"
     inkscape:cx="372.04724"
     inkscape:cy="103.46456"
     inkscape:window-x="207"
     inkscape:window-y="207"
     inkscape:current-layer="svg3155" />
  <defs
     id="defs3157" />
  <path
     d="M 182.13076,171.45657 L 199.92438,171.45657 L 212.6826,155.27541 L 236.55831,155.27541 L 232.76762,171.45657 L 249.31653,171.45657 L 264.81876,95.58615 L 244.22455,95.58615 L 182.13076,171.45657 z M 239.78322,140.90473 L 223.94153,140.90473 L 246.96858,111.22984 L 247.13831,111.22984 L 239.78322,140.90473"
     style="fill:#a80942;fill-rule:evenodd;stroke:none"
     id="path2787" />
  <path
     d="M 359.35976,135.89762 C 360.34986,131.73917 366.62997,128.37282 373.36269,128.37282 C 380.1237,128.37282 384.79135,131.73917 383.77295,135.89762 C 382.78285,140.02777 376.50274,143.39414 369.74173,143.39414 C 363.00901,143.39414 358.34136,140.02777 359.35976,135.89762"
     style="fill:#a80942;fill-rule:nonzero;stroke:none"
     id="path2789" />
  <path
     d="M 259.58536,171.45657 L 276.13427,171.45657 L 301.05666,95.58615 L 284.50773,95.58615 L 259.58536,171.45657"
     style="fill:#a80942;fill-rule:nonzero;stroke:none"
     id="path2791" />
  <path
     d="M 325.75274,109.92854 L 333.617,109.92854 C 338.51096,110.04171 340.80235,112.33308 339.9254,117.76453 C 338.76554,124.92159 332.88148,127.09982 325.75274,127.09982 L 320.17985,127.09982 L 325.75274,109.92854 z M 289.31681,171.45657 L 305.78087,171.45657 L 315.5122,141.47051 L 317.26611,141.47051 C 324.67776,141.47051 325.07381,142.20602 325.07381,152.10707 L 325.15866,171.45657 L 341.53784,171.45657 L 340.85891,148.09006 C 340.77406,143.19612 340.49116,135.1621 335.71037,134.59635 L 335.76695,134.39832 C 345.41341,132.98388 354.60726,128.31624 356.75719,114.93565 C 359.75581,96.12363 345.75288,95.69932 334.04134,95.58615 L 314.40893,95.58615 L 289.31681,171.45657"
     style="fill:#a80942;fill-rule:evenodd;stroke:none"
     id="path2793" />
  <path
     d="M 424.31074,109.92854 L 428.55404,109.92854 C 434.72094,109.92854 438.59654,110.91866 437.63474,117.00073 C 436.78604,122.20586 432.20334,125.60052 425.32914,125.60052 L 419.16214,125.60052 L 424.31074,109.92854 z M 387.78996,171.45657 L 415.85234,171.03225 C 429.96844,170.80593 442.38724,163.19626 444.96154,147.09996 C 446.29104,138.75477 442.24574,133.74766 435.42824,132.44639 L 435.45654,132.22007 C 445.38584,130.80563 453.02384,123.19598 454.66454,112.98374 C 456.95594,98.64135 446.43254,95.58615 440.09584,95.58615 L 412.79724,95.58615 L 387.78996,171.45657 z M 414.60764,139.29226 L 418.56814,139.29226 C 425.95144,139.29226 429.68554,140.25409 428.61064,146.90193 C 427.42244,154.28531 421.42524,157.11417 413.13664,157.11417 L 408.75194,157.11417 L 414.60764,139.29226"
     style="fill:#a80942;fill-rule:evenodd;stroke:none"
     id="path2795" />
  <path
     d="M 447.90354,171.45657 L 492.37344,171.45657 L 497.04104,157.11417 L 468.95034,157.11417 L 474.69304,139.94292 L 500.23774,139.94292 L 505.10344,125.60052 L 479.47374,125.60052 L 484.79204,109.92854 L 511.83614,109.92854 L 516.50374,95.58615 L 473.27854,95.58615 L 447.90354,171.45657"
     style="fill:#a80942;fill-rule:nonzero;stroke:none"
     id="path2797" />
  <path
     d="M 539.50254,109.92854 L 547.33844,109.92854 C 552.23244,110.04171 554.52384,112.33308 553.64684,117.76453 C 552.48704,124.92159 546.60304,127.09982 539.47424,127.09982 L 533.92964,127.09982 L 539.50254,109.92854 z M 503.03834,171.45657 L 519.50234,171.45657 L 529.23364,141.47051 L 531.01584,141.47051 C 538.39924,141.47051 538.79534,142.20602 538.79534,152.10707 L 538.88014,171.45657 L 555.25934,171.45657 L 554.60874,148.09006 C 554.49554,143.19612 554.21264,135.1621 549.46014,134.59635 L 549.48844,134.39832 C 559.13494,132.98388 568.32874,128.31624 570.47864,114.93565 C 573.50554,96.12363 559.47434,95.69932 547.79114,95.58615 L 528.13044,95.58615 L 503.03834,171.45657"
     style="fill:#a80942;fill-rule:evenodd;stroke:none"
     id="path2799" />
  <path
     d="M 563.15194,171.45657 L 605.52844,171.45657 L 610.47894,156.46354 L 584.76454,156.46354 L 604.73634,95.58615 L 588.07434,95.58615 L 563.15194,171.45657"
     style="fill:#a80942;fill-rule:nonzero;stroke:none"
     id="path2801" />
  <path
     d="M 614.09994,171.45657 L 630.67714,171.45657 L 655.59954,95.58615 L 639.05064,95.58615 L 614.09994,171.45657"
     style="fill:#a80942;fill-rule:nonzero;stroke:none"
     id="path2803" />
  <path
     d="M 643.66164,171.45657 L 659.16394,171.45657 L 676.10884,118.95266 L 676.30684,118.95266 L 680.74824,171.45657 L 701.17274,171.45657 L 726.37794,95.58615 L 710.87574,95.58615 L 693.81764,148.20323 L 693.61964,148.20323 L 689.46114,95.58615 L 668.95184,95.58615 L 643.66164,171.45657"
     style="fill:#a80942;fill-rule:nonzero;stroke:none"
     id="path2805" />
  <path
     d="M 114.86011,165.00675 L 23.232847,165.6008 L 26.090027,162.80021 L 111.43718,160.76342 C 118.39622,160.11279 124.56316,155.0208 129.45712,149.75911 L 226.71383,34.87851 L 243.91338,28.5984 L 140.34826,151.06038 C 133.4741,158.72664 124.61974,164.21465 114.86011,165.00675"
     style="fill:#a80942;fill-rule:nonzero;stroke:none"
     id="path2807" />
  <path
     d="M 112.05952,157.84969 L 91.776497,158.41547 L 29.003767,159.40557 L 31.493157,156.77471 L 102.5828,154.17214 C 109.73986,153.88926 115.9068,147.41113 121.05535,142.23429 L 205.49725,42.57304 L 220.2074,37.28305 L 126.4585,147.94862 C 122.32835,151.88077 117.29295,156.83129 112.05952,157.84969"
     style="fill:#a80942;fill-rule:nonzero;stroke:none"
     id="path2809" />
  <path
     d="M 125.35523,171.82433 L 111.60691,171.93747 L 17.716547,171.59801 L 20.007937,168.96717 L 112.11611,168.00534 C 124.28026,168.40139 134.71881,162.8285 142.75283,153.88926 L 251.24017,26.02413 L 274.35207,17.67894 L 158.82084,154.73792 C 154.18146,160.11279 148.55201,163.98833 142.92256,166.98695 C 137.46282,169.3632 131.7202,171.34342 125.35523,171.82433"
     style="fill:#a80942;fill-rule:nonzero;stroke:none"
     id="path2811" />
</svg>
