<?xml version="1.0" encoding="UTF-8" standalone="no"?>
<svg
   xmlns:dc="http://purl.org/dc/elements/1.1/"
   xmlns:cc="http://creativecommons.org/ns#"
   xmlns:rdf="http://www.w3.org/1999/02/22-rdf-syntax-ns#"
   xmlns:svg="http://www.w3.org/2000/svg"
   xmlns="http://www.w3.org/2000/svg"
   width="500"
   height="145"
   viewBox="0 0 132.29166 38.364583"
   version="1.1"
   id="svg8">
  <defs
     id="defs2" />
  <metadata
     id="metadata5">
    <rdf:RDF>
      <cc:Work
         rdf:about="">
        <dc:format>image/svg+xml</dc:format>
        <dc:type
           rdf:resource="http://purl.org/dc/dcmitype/StillImage" />
        <dc:title></dc:title>
      </cc:Work>
    </rdf:RDF>
  </metadata>
  <g
     id="layer1">
    <rect
       style="fill:#494949;fill-opacity:1;stroke:none;stroke-width:0.0999261;stroke-linejoin:round;stroke-miterlimit:4;stroke-dasharray:none"
       id="rect90486"
       width="132.28853"
       height="28.638906"
       x="0.0019002478"
       y="0.00018476744" />
    <path
       id="path90444"
       style="fill:#cccec8;fill-opacity:1;stroke:none;stroke-width:0.0999261;stroke-linecap:butt;stroke-linejoin:miter;stroke-miterlimit:4;stroke-dasharray:none;stroke-opacity:1"
       d="m 95.205413,8.0328901 a 3.0195828,3.0195828 0 0 0 -3.019813,3.0198109 3.0195828,3.0195828 0 0 0 3.019813,3.01981 3.0195828,3.0195828 0 0 0 3.019811,-3.01981 3.0195828,3.0195828 0 0 0 -3.019811,-3.0198109 z m 28.151147,0.051662 c -0.33933,0.00903 -0.86006,0.2362521 -1.64623,0.8045229 -1.23867,0.8953771 -3.64633,1.216826 -5.68538,1.594594 -1.28043,0.237225 -1.08875,2.26633 0.20036,2.235941 0.94507,-0.02226 2.14815,-0.07296 2.14816,2.233874 v 10.936995 c 0,2.177802 -3.07057,2.298649 -3.57131,2.748187 h -6.76875 c -1.07673,-0.394991 -2.63666,-0.57141 -2.63666,-2.295835 v -8.412917 c 0,-0.650019 0.27568,-1.178886 1.13501,-1.202141 0.89678,-0.02427 0.90161,0.651869 0.90161,1.135013 0,1.284017 1.65106,2.270022 2.87108,2.270022 1.96541,0 2.9483,-1.703227 2.93719,-3.004318 -0.0116,-1.345524 -0.93065,-2.847948 -2.87108,-2.838044 -1.92294,0.0098 -3.11909,1.362773 -3.73862,1.335367 -0.25623,-0.01137 -0.59724,0.401463 -0.76838,-0.06609 -0.16578,-0.452881 -0.1899,-0.906238 -0.83447,-0.901606 -0.47968,0.0032 -0.7896,0.380713 -1.23519,0.668199 -0.95721,0.617579 -2.31828,0.856453 -3.871844,1.034831 -0.529373,0.08532 -1.435543,0.331056 -1.435543,0.967703 0,0.504225 0.163859,0.852911 1.368414,0.934655 0.587463,0.03987 1.202143,-0.137583 1.202143,1.06788 v 7.244855 c 0,1.185379 -0.92204,1.681884 -2.186371,1.925078 -1.185109,-0.409969 -1.49338,-1.326778 -1.49338,-2.387757 V 14.593044 c -1.585584,0.80391 -3.679586,1.438875 -6.397988,1.865179 -1.9351,0.303465 -0.721885,1.551706 0,1.534689 0.945083,-0.02226 2.148155,0.794799 2.148155,2.667634 v 6.231695 c 0,0.67041 -0.09869,1.049445 -0.248897,1.268238 -0.431951,-0.35675 -0.660906,-0.783324 -0.885081,-1.218667 L 82.365029,8.2435759 H 81.584258 L 72.890429,25.259436 c -0.857576,1.678427 -2.161697,2.986879 -4.572057,3.37921 H 0.00190249 v 5.221667 H 132.28998 v -5.221667 h -5.92496 c -1.6159,-0.304379 -2.60774,-2.225715 -2.60774,-3.426715 V 10.551812 c 0,-0.5602124 0.61727,-2.4943813 -0.40072,-2.4672816 z m -43.255354,7.6879119 4.783771,9.291802 c 1.451199,2.818188 -0.459613,2.884897 -1.939531,3.5744 h -5.908459 c -2.171278,-0.659145 -2.765766,-1.456757 -2.221479,-2.522015 z" />
    <rect
       style="fill:#d60402;fill-opacity:1;stroke:none;stroke-width:0.0999261;stroke-linejoin:round;stroke-miterlimit:4;stroke-dasharray:none"
       id="rect90486-2-2"
       width="132.28854"
       height="4.5606928"
       x="0.0019002478"
       y="33.860752" />
  </g>
</svg>
