<?xml version="1.0" encoding="UTF-8"?>
<!DOCTYPE svg PUBLIC "-//W3C//DTD SVG 1.1//EN" "http://www.w3.org/Graphics/SVG/1.1/DTD/svg11.dtd">
<!-- Creator: CorelDRAW -->
<svg xmlns="http://www.w3.org/2000/svg" xml:space="preserve" width="2220px" height="1191px" shape-rendering="geometricPrecision" text-rendering="geometricPrecision" image-rendering="optimizeQuality" fill-rule="evenodd" clip-rule="evenodd"
viewBox="0 0 2247.26 1206.11"
 xmlns:xlink="http://www.w3.org/1999/xlink">
 <g id="Ebene_x0020_1">
  <metadata id="CorelCorpID_0Corel-Layer"/>
  <path fill="#DA251D" d="M582.329 478.386c0,0 20.0801,5.47703 52.9411,-41.9906 0,0 18.2568,-20.0801 -7.30391,-41.9882 0,0 -21.9069,-27.384 -52.9411,-16.4299 -3.65016,0 -34.6843,14.603 -32.861,60.245 0,0 1.82687,34.6879 40.1649,40.1637z"/>
  <path fill="#DA251D" d="M1831.03 100.488c0,0 20.0801,16.4299 38.3368,-9.12719 0,0 25.5583,-21.9069 14.6042,-52.9411 0,-3.65375 -14.6042,-34.6879 -56.5948,-31.0377 0,0 -32.861,1.82687 -36.5112,40.1649 0,0 -5.47703,21.9069 40.1649,52.9411z"/>
  <path fill="#DA251D" d="M1476.87 315.909c16.4299,-31.0377 0,-34.6879 -12.7809,-32.861l-32.861 9.12719 -14.603 3.65016 0 -9.12719c0,0 1.82687,0 1.82687,0l10.9529 -204.464 3.65016 -23.735c0,0 16.4311,-52.9411 -25.5571,-58.4169 0,0 -49.2909,-5.47703 -45.6407,73.0211l-129.617 275.667 -1.82687 0 -1.82209 1.82329 -91.2791 25.5571c0,0 -51.1178,7.30391 -56.5948,62.0718 0,0 -9.12719,31.0341 36.5112,20.0801l62.0706 -20.0801 12.7774 -3.65016 -16.4311 32.861 -178.907 381.545c0,0 -21.9069,41.9918 5.47703,58.4217 0,0 36.5136,16.4299 52.9446,-18.2568l198.988 -447.271 12.7797 -31.0341 91.2791 -27.384 -1.82687 12.7797 -21.9069 310.351c0,0 -7.30032,47.464 14.6066,51.1142 0,0 38.3344,14.6042 47.4652,-87.6289l14.603 -253.755 1.82687 -49.2921 9.12719 -3.64896 16.4299 -5.47703c21.9069,-9.12719 38.338,-41.9882 38.338,-41.9882zm-113.186 -3.65375l-56.5948 16.4311 0 -1.82329 -3.65016 1.82329 10.9529 -27.384 60.245 -135.093 -10.9529 146.046z"/>
  <path fill="#DA251D" d="M1637.52 294.002c0,0 52.9446,9.12719 58.4217,-27.384 0,0 10.9529,-27.384 -65.722,-29.2108 0,0 -116.84,-9.12719 -135.093,136.92 0,0 -7.30391,49.2909 47.464,36.5112 0,0 60.245,-16.4311 65.722,-3.65016 0,0 7.30032,14.603 -7.30391,36.5112 0,0 -34.6879,54.7679 -147.874,52.9411 0,0 -29.2061,-5.47703 -29.2061,25.5607 0,0 0,36.51 62.0671,32.861 0,0 120.49,-1.82687 177.085,-105.887 18.2532,-31.0329 21.9069,-47.464 21.9069,-52.9411 0,-5.47584 0,-10.9529 -1.82687,-16.4299 -5.47703,-12.7809 -16.4299,-21.9069 -31.0341,-25.5571 -1.82687,0 -1.82687,0 -3.65375,0 0,0 -1.82209,0 -1.82209,0 0,0 0,0 0,0 -1.82687,0 -3.65375,0 -5.47703,0 -5.47703,0 -14.6078,0 -27.384,3.65016 0,0 -12.7809,3.65016 -31.0377,3.65016 -9.12719,0 -14.6042,-1.82329 -20.0801,-5.47703 -1.82687,-1.82329 -5.47703,-5.47703 -5.47703,-9.12719 0,0 0,0 0,0l0 0c0,-1.82687 0,-1.82687 0,-1.82687 0,0 3.65016,-51.1142 80.325,-51.1142z"/>
  <path fill="#DA251D" d="M993.085 600.699c0,0 -9.12719,-12.7809 -32.861,3.65016 -7.30032,5.47703 -18.2532,21.9069 -18.2532,21.9069 -10.9541,14.6078 -31.0377,32.861 -31.0377,32.861 -20.0801,20.0836 -34.6843,25.5607 -43.8139,27.384 0,0 0,0 0,0 0,0 -1.82329,0 -1.82329,0 0,0 -1.82687,0 -1.82687,0 0,0 -1.82687,0 -1.82687,0l0 0c-5.47703,0 -10.9541,-1.82329 -12.7774,-7.30032 0,0 0,-1.82687 0,-3.65375 0,0 0,0 0,0 0,-1.82329 0,-1.82329 0,-1.82329 1.82329,-5.47584 5.47703,-12.7797 5.47703,-12.7797 1.82329,-3.65016 3.65016,-7.30391 3.65016,-10.9541 1.82687,-1.82687 1.82687,-1.82687 1.82687,-1.82687 0,0 47.464,-146.047 -91.2827,-91.2779 0,0 -12.7762,-82.1531 -49.2873,-47.4652l-43.8151 41.9882c0,0 -23.7338,20.0801 5.47703,49.2909 0,0 -74.8516,177.081 -142.397,157 0,0 -29.2108,-3.65016 38.338,-140.57 0,0 18.2532,-34.6867 0,-56.5912 0,0 -10.9541,-10.9529 -51.1178,0l0 0 -96.7561 31.0341 0 -14.6066 10.9541 -198.988 5.47703 -25.5571c0,0 16.4299,-51.1178 -27.384,-58.4181 0,0 -47.4652,-3.65375 -45.6419,74.848l-127.789 275.663 -3.65016 0 -91.2791 25.5571c0,0 -52.9446,9.13078 -56.5948,63.8987 0,0 -9.126,31.0341 34.6879,18.2532l63.8951 -18.2532 -1.82687 0 12.7797 -3.65375 -14.6066 32.861 -178.908 381.549c0,0 -23.7302,41.9882 5.47703,56.5912 0,0 34.6879,18.258 52.9446,-16.4299l197.161 -447.267 14.6078 -31.0341 89.4522 -29.2108 0 14.6042 -23.7314 310.35c0,0 -7.30271,45.6419 16.4275,51.119 0,0 38.3368,12.7762 47.4676,-87.6289l12.7774 -253.756 1.82687 -45.6407 32.8598 -10.9541 41.9882 -18.2568c0,0 -78.4982,173.43 -7.30032,186.211 0,0 87.6253,34.6879 155.174,-32.861 0,0 71.1978,-71.1978 116.835,-182.557 0,0 43.8151,-10.9541 43.8151,9.126 0,0 3.65375,12.7809 -10.9541,32.861 0,0 -7.30032,12.7809 -10.9529,29.2108l0 0c0,0 -14.6042,54.7679 29.2096,65.722 0,0 63.8951,16.4263 135.094,-41.9918 0,0 49.2909,-41.987 54.7679,-69.371 1.82687,-10.9541 0,-21.9069 -10.9541,-32.861zm-618.875 5.47703l-56.5912 16.4299 -1.82687 0 10.9541 -25.5571 58.4181 -136.92 -10.9541 146.047z"/>
  <path fill="#DA251D" d="M2183.37 273.919c0,0 -67.5477,20.0836 -115.013,45.6407 0,0 -1.82687,1.82687 -5.47584,3.65016 -36.5112,14.6066 -9.12719,-29.2073 -9.12719,-29.2073 1.82329,-1.82687 3.65016,-3.65375 5.47703,-7.30391 0,0 0,0 0,0 10.9529,-20.0801 23.7302,-49.2909 32.8598,-67.5477 0,-1.82329 1.82329,-1.82329 1.82329,-3.65016 1.82687,-3.65016 1.82687,-5.47703 1.82687,-7.30391 5.47703,-7.30032 21.9081,-45.6372 -12.7797,-51.1142 0,0 -12.7774,-5.47703 -25.5571,5.47703 -1.82687,0 -1.82687,1.82687 -1.82687,1.82687 0,0 0,0 0,0 -1.82329,0 -1.82329,1.82329 -1.82329,1.82329 0,0 -1.82687,0 -1.82687,0 0,1.82687 0,1.82687 0,1.82687 0,0 0,0 0,0 0,-3.65016 0,-5.47703 0,-9.12719 0,0 -1.82687,-25.5607 -29.2108,-27.384 0,0 -73.0211,-9.13078 -140.57,83.9752l0 0c-36.5112,49.2909 -65.722,109.536 -56.5912,169.781 0,0 -20.0836,27.384 -54.7679,18.2532 0,0 -20.0801,-3.65016 -10.9541,-31.0341 0,0 16.4311,-58.4181 36.5112,-91.2791 0,0 47.464,-87.6277 -1.82687,-91.2779 0,0 -32.861,-7.30391 -45.6372,23.7302 0,0 -100.41,224.549 -29.2108,251.933 0,0 67.5477,32.861 146.047,-38.338 7.30271,5.47703 29.2108,16.4311 67.5477,0 5.47703,-1.82687 12.7809,-5.47703 20.0801,-10.9529 7.30391,-3.65016 16.4311,-9.12719 23.735,-14.6042 9.12958,5.47703 23.7302,9.12719 43.8139,1.82329 0,0 93.106,-45.6372 178.908,-54.7643 0,0 47.464,-3.65375 47.464,-52.9446 0,0 -1.82687,-36.5112 -63.8951,-21.9069zm-151.523 -67.5453c0,0 0,3.65016 -3.65375,12.7774 -7.30032,20.0836 -18.2544,45.6407 -32.861,71.1978 -27.384,47.4676 -65.7184,93.106 -100.405,78.5017 0,0 -29.2108,-9.126 -9.12719,-47.464 0,0 10.9529,-18.2568 29.2073,-43.8139 0,0 0,0 0,0l0 0c0,0 54.7679,-69.3757 113.186,-85.8056 0,0 7.30271,-1.82329 12.7797,-7.30032 -3.65016,7.30032 -5.47703,14.603 -9.126,21.9069z"/>
 </g>
</svg>
