<?xml version="1.0" encoding="UTF-8" standalone="no"?>
<!-- Created with Inkscape (http://www.inkscape.org/) -->
<svg xmlns:dc="http://purl.org/dc/elements/1.1/" xmlns:cc="http://creativecommons.org/ns#" xmlns:rdf="http://www.w3.org/1999/02/22-rdf-syntax-ns#" xmlns:svg="http://www.w3.org/2000/svg" xmlns="http://www.w3.org/2000/svg" xmlns:sodipodi="http://sodipodi.sourceforge.net/DTD/sodipodi-0.dtd" xmlns:inkscape="http://www.inkscape.org/namespaces/inkscape" id="svg2666" sodipodi:version="0.32" inkscape:version="0.46" width="282" height="106" version="1.0" sodipodi:docname="AirAsia Edited.svg" inkscape:output_extension="org.inkscape.output.svg.inkscape" inkscape:label="xc">
  <metadata id="metadata2671">
    <rdf:RDF>
      <cc:Work rdf:about="">
        <dc:format>image/svg+xml</dc:format>
        <dc:type rdf:resource="http://purl.org/dc/dcmitype/StillImage"/>
      </cc:Work>
    </rdf:RDF>
  </metadata>
  <defs id="defs2669">
    <inkscape:perspective sodipodi:type="inkscape:persp3d" inkscape:vp_x="0 : 526.18109 : 1" inkscape:vp_y="0 : 1000 : 0" inkscape:vp_z="744.09448 : 526.18109 : 1" inkscape:persp3d-origin="372.04724 : 350.78739 : 1" id="perspective2673"/>
  </defs>
  <sodipodi:namedview inkscape:window-height="667" inkscape:window-width="640" inkscape:pageshadow="2" inkscape:pageopacity="0.0" guidetolerance="10.0" gridtolerance="10.0" objecttolerance="10.0" borderopacity="1.0" bordercolor="#666666" pagecolor="#ffffff" id="base" showgrid="false" inkscape:zoom="2.0992908" inkscape:cx="132.52773" inkscape:cy="-3.9461885" inkscape:window-x="575" inkscape:window-y="-25" inkscape:current-layer="layer2"/>
  <g inkscape:groupmode="layer" id="layer1" inkscape:label="White Background" sodipodi:insensitive="true">
    <rect style="fill:#ffffff;fill-opacity:1;stroke:#ffffff;stroke-width:0.99999994" id="rect3189" width="281" height="105" x="0.49999997" y="0.5"/>
  </g>
  <g inkscape:groupmode="layer" id="layer2" inkscape:label="The logo" sodipodi:insensitive="true">
    <path style="fill:#e71818;fill-opacity:1" d="M 0,53 L 0,2e-06 L 141,2e-06 L 282,2e-06 L 282,53 L 282,106 L 141,106 L 0,106 L 0,53 z M 26.05728,82.87513 C 27.52518,78.68144 30.96476,70.58144 33.70079,64.87513 L 38.6754,54.5 L 44.56763,52.81326 C 47.80836,51.88556 50.55975,51.22642 50.68184,51.34851 C 50.80394,51.4706 50.20302,55.60463 49.34648,60.53525 C 47.52219,71.03664 48.3951,75.36993 52.2239,74.81934 C 54.26919,74.52522 54.58189,73.52243 56.18317,62.12245 C 57.1394,55.31479 58.08886,49.57781 58.29307,49.3736 C 58.78976,48.87691 68.42514,47.0918 68.76656,47.43322 C 68.91402,47.58069 67.57947,50.80604 65.80087,54.60067 C 63.54069,59.42275 62.55696,63.0054 62.53353,66.5 C 62.50335,71.00044 62.73507,71.53327 64.8528,71.83302 C 66.60036,72.08038 68.33675,70.95137 71.6028,67.44419 L 76,62.72233 L 76,65.80215 C 76,67.49605 76.4407,69.15433 76.97934,69.48723 C 78.70515,70.55384 82,68.01891 82,65.62454 C 82,62.09315 87.74157,51.39524 91.19765,48.48714 C 92.89253,47.061 95.55632,45.63873 97.11719,45.32656 C 100.51111,44.64778 102.44197,42.59415 101.64326,40.51273 C 100.73803,38.15374 96.89118,38.73007 93.80472,41.68709 L 91,44.37418 L 91,41.68709 C 91,39.96523 90.46118,39 89.5,39 C 87.6353,39 84,42.53283 84,44.34496 C 84,47.36501 71.9928,64 69.81291,64 C 68.24581,64 69.0343,61.32327 73.04374,53.03227 C 75.2678,48.43321 76.83356,44.00864 76.52322,43.1999 C 76.07445,42.03044 74.79477,41.86629 70.27126,42.39794 C 67.14303,42.7656 63.4901,43.34086 62.15365,43.67628 C 59.81637,44.2629 59.74928,44.13774 60.3936,40.39308 C 60.76203,38.25188 62.70064,31.71527 64.70163,25.86728 C 67.99521,16.24163 68.2175,14.93931 67.04858,12.11728 C 66.32664,10.37436 65.01557,9 64.07485,9 C 60.84326,9 53.33913,18.37842 41.86484,36.75735 L 33.90938,49.5 L 24.70469,53 C 16.42327,56.14894 15.46821,56.77641 15.18303,59.25569 C 14.74015,63.10604 17.03445,63.64583 22.53171,60.98465 C 25.04668,59.76717 27.37391,59.04057 27.70331,59.36998 C 28.03272,59.69939 26.27235,64.3634 23.79138,69.73445 C 17.56146,83.22157 16.60794,86.39891 18.00627,89.01172 C 18.72512,90.3549 19.90792,91.00849 21.26185,90.81068 C 22.92411,90.56783 23.97105,88.83535 26.05728,82.87513 z M 45.55059,42.25 C 50.17512,34.23488 59.0824,20.74907 59.48554,21.1522 C 59.69518,21.36184 58.22045,26.82016 56.20837,33.2818 C 52.61424,44.8241 52.4882,45.04741 49.02503,46.00954 C 42.8913,47.71359 42.58775,47.38513 45.55059,42.25 z M 107.46058,84 C 110.59089,75.10912 118.82352,56.7522 120.29695,55.3778 C 121.81653,53.96034 131.00877,50.88739 131.96376,51.4776 C 132.35647,51.72031 132.08466,54.74964 131.35973,58.20945 C 129.63829,66.42524 129.66351,71.1646 131.44143,73.55887 C 132.59548,75.11299 133.24344,75.27893 134.69143,74.39121 C 136.08017,73.5398 136.7829,70.98632 137.7187,63.39121 C 139.43921,49.42721 139.49891,49.26607 143.24906,48.46419 C 149.70458,47.08383 150.9106,44.27886 145.25,43.81036 C 140.58818,43.42453 140.60955,43.04034 146.21628,26.43603 C 150.20744,14.61621 150.25427,14.31769 148.52993,11.68603 C 147.56196,10.20871 146.18844,9 145.47766,9 C 142.48429,9 129.80265,25.84151 118.913,44.27846 C 116.06031,49.10827 114.85975,50.22938 111.60007,51.10738 C 109.45511,51.68513 105.29261,53.22256 102.35007,54.52389 C 97.94423,56.47236 97,57.33046 97,59.38595 C 97,63.11902 98.68279,63.49045 104.10011,60.95311 C 106.79185,59.69237 109.21742,58.88409 109.49027,59.15693 C 109.76311,59.42978 107.74266,64.56859 105.00038,70.57651 C 99.30602,83.05197 98.19231,87.32187 100.04915,89.55922 C 102.6179,92.65437 105.05794,90.82413 107.46058,84 z M 125,46.61461 C 125,46.31525 127.52927,41.892 130.62059,36.78516 C 141.54545,18.7374 143.03555,17.76318 138.32197,31.75 C 136.5148,37.1125 135.02806,42.25718 135.0181,43.18261 C 135.00815,44.10805 134.2125,45.08695 133.25,45.35795 C 129.30393,46.46901 125,47.1246 125,46.61461 z M 154.68863,69.04828 C 156.78261,67.7715 158.22103,65.85902 158.87862,63.47742 C 159.97755,59.49744 159.58576,57.70716 156.82978,54.11514 C 152.41374,48.35946 157.0432,42.01416 162.23231,46.71024 C 163.86258,48.18561 164.24894,48.21994 165.04574,46.96024 C 167.95156,42.36624 163.41817,38.96278 157.62007,41.38538 C 149.38324,44.82695 146.98728,53.71214 152.24761,61.30857 C 153.29868,62.82641 153.18853,63.34843 151.56241,64.55598 C 149.87118,65.81188 149.36257,65.80263 147.56241,64.48328 C 144.1153,61.95689 142.83833,61.64511 141.91439,63.10428 C 137.96002,69.34937 147.16799,73.63394 154.68863,69.04828 z M 173.18384,63.00332 C 176.87411,59.17472 178,58.45671 178,59.93189 C 178,62.39181 180.59199,65 183.03663,65 C 184.07821,65 186.46797,63.65 188.34722,62 C 192.39187,58.44875 192.61099,58.40442 193.28975,61 C 194.43508,65.37974 202.07521,61.62136 206.93191,54.28907 C 208.61936,51.74149 210,49.28426 210,48.82855 C 210,46.98702 208.124,48.19598 205.8789,51.48434 C 204.57051,53.40073 202.86225,55.21548 202.08278,55.51712 C 199.0704,56.68287 199.14747,54.15149 202.32708,47.49375 L 205.63468,40.56801 L 202.25733,37.19066 C 199.63981,34.57314 198.33515,33.95005 196.45833,34.4211 C 192.75746,35.34996 187.84814,40.14942 179.96737,50.54303 C 176.02355,55.74436 172.16752,60 171.3984,60 C 170.62928,60 170,59.71817 170,59.3737 C 170,58.48963 175.90304,46.97652 177.5945,44.56162 C 178.36753,43.45797 179,41.50022 179,40.21107 C 179,38.25242 178.55557,37.91916 176.29617,38.18358 C 173.95829,38.45717 172.92937,39.85343 168.69391,48.5 C 165.99978,54 163.56081,59.94284 163.27399,61.70631 C 161.99161,69.59075 166.29191,70.15357 173.18384,63.00332 z M 185,57.19117 C 185,55.12688 191.09266,44.62101 194.24475,41.25 C 196.78075,38.53787 199,38.33198 199,40.80883 C 199,42.87312 192.90734,53.37899 189.75525,56.75 C 187.21925,59.46213 185,59.66802 185,57.19117 z M 212.37615,58.46215 C 212.71812,57.57098 212.31433,56.67412 211.41592,56.32936 C 209.54856,55.61279 207.5052,57.39038 208.44615,58.91287 C 209.42743,60.50061 211.69366,60.2407 212.37615,58.46215 z M 225.05948,54.43863 C 228.33575,51.05838 228.34363,51.05629 229.44585,53.27615 C 231.26102,56.93185 234.37529,56.58123 237.88255,52.32632 C 239.59715,50.24621 241,47.9607 241,47.2474 C 241,46.53411 242.15429,45.51164 243.5651,44.97525 C 247.06171,43.64584 247.08045,43.6582 245.97525,46.5651 C 244.59388,50.19837 244.7667,53 246.37219,53 C 247.18542,53 247.98951,51.46707 248.34613,49.23687 C 248.9925,45.19468 254.29379,36 255.97798,36 C 257.51093,36 257.22213,38.36241 255,44 C 252.64952,49.96322 252.48968,52 254.37219,52 C 255.18512,52 255.98934,50.46814 256.34539,48.2415 C 257.03304,43.94121 261.81926,36 263.72344,36 C 265.33751,36 265.3236,36.28975 263.5,40.65424 C 262.675,42.62875 262,45.53929 262,47.12212 C 262,51.87871 266.42746,50.62925 269.51979,45 C 270.11575,43.91512 269.79011,43.98431 268.34315,45.25 C 267.2428,46.2125 266.04045,47 265.67126,47 C 264.3722,47 265.06555,42.45235 267.02196,38.1408 C 269.05282,33.66518 269.64095,29 268.17431,29 C 267.72019,29 266.29175,30.125 265,31.5 C 262.11291,34.57316 261.39518,34.61917 260.65237,31.77867 L 260.07148,29.55734 L 257.23102,32.27867 C 254.06106,35.31568 252.77369,35.75333 253.63837,33.5 C 253.99048,32.58243 253.63844,32 252.73173,32 C 251.9165,32 249.95585,34.5875 248.37474,37.75 C 244.71758,45.06499 242.24524,45.84474 241.81051,39.8203 C 241.57688,36.58266 241.04462,35.43081 239.66079,35.16812 C 237.1536,34.69219 233.13008,38.60637 230.80088,43.78728 C 227.02101,52.19494 220.22508,57.63489 218.64513,53.51761 C 217.93758,51.67375 220.49999,44.20998 222.65998,41.82323 C 224.64685,39.62775 226.30698,40.45744 225.43354,43.20939 C 225.00159,44.57035 225.15464,45.02246 225.89287,44.56621 C 227.36104,43.65883 227.33888,36 225.86808,36 C 223.5352,36 218.00852,43.23222 216.52568,48.22547 C 214.63438,54.59418 214.63014,55.48728 216.48241,57.33955 C 218.50444,59.36158 221.15777,58.46417 225.05948,54.43863 z M 232,48.95948 C 232,45.5515 235.50255,38.40487 237.55967,37.61548 C 239.88498,36.72317 239.8446,44.93483 237.50662,48.40416 C 234.54862,52.79353 232,53.05055 232,48.95948 z M 81.86725,33.90905 C 84.74941,31.22391 84.2598,28.59001 80.80407,28.18962 C 77.32456,27.78647 74.02799,32.12386 76.00416,34.50501 C 77.69184,36.53854 79.21051,36.38418 81.86725,33.90905 z M 183.43267,30.0744 C 187.05686,26.06971 182.93029,21.94314 178.9256,25.56733 C 177.00547,27.30502 176.40206,30.06872 177.66667,31.33333 C 178.93128,32.59794 181.69498,31.99453 183.43267,30.0744 z" id="path2677"/>
  </g>
</svg>