<?xml version="1.0" standalone="no"?><!-- Generator: Gravit.io --><svg xmlns="http://www.w3.org/2000/svg" xmlns:xlink="http://www.w3.org/1999/xlink" style="isolation:isolate" viewBox="0 0 192.756 77.466" width="192.756" height="77.466"><defs><clipPath id="_clipPath_MlmTXwu9UNDmVjIn2j1PoJrpfM0WLCNH"><rect width="192.756" height="77.466"/></clipPath></defs><g clip-path="url(#_clipPath_MlmTXwu9UNDmVjIn2j1PoJrpfM0WLCNH)"><path d=" M 8.504 69.423 L 168.525 69.423 L 171.795 66.03 L 8.504 66.03 L 8.504 69.423 L 8.504 69.423 Z  M 80.039 34.745 L 80.039 30.736 L 66.532 30.736 L 66.532 49.263 L 80.039 49.263 L 80.039 45.243 L 71.467 45.243 L 71.467 41.897 L 79.728 41.897 L 79.728 37.888 L 71.467 37.888 L 71.467 34.744 L 80.039 34.744 L 80.039 34.745 Z  M 8.504 62.95 L 174.756 62.95 L 178.024 59.555 L 8.504 59.555 L 8.504 62.95 L 8.504 62.95 Z  M 66.532 13.595 L 66.532 26.85 L 71.467 26.85 L 71.467 8.35 L 65.303 8.35 L 48.96 26.85 L 54.942 26.85 L 66.532 13.595 L 66.532 13.595 Z  M 86.082 49.263 L 89.165 43.995 L 92.246 49.263 L 97.612 49.263 L 91.755 39.8 L 97.49 30.736 L 92.311 30.736 L 89.351 35.791 L 86.39 30.736 L 81.024 30.736 L 86.76 39.987 L 80.903 49.263 L 86.082 49.263 L 86.082 49.263 Z  M 8.504 53.079 L 8.504 56.474 L 180.984 56.474 L 184.252 53.079 L 8.504 53.079 L 8.504 53.079 Z  M 78.806 8.349 L 73.871 8.349 L 73.871 26.849 L 78.806 26.849 L 78.806 8.349 L 78.806 8.349 Z  M 86.143 20.004 L 88.361 20.004 L 92.061 26.85 L 97.241 26.85 L 93.05 19.205 C 95.334 18.464 96.811 16.551 96.811 13.9 C 96.811 10.2 93.974 8.349 89.658 8.349 L 81.21 8.349 L 81.21 26.849 L 86.143 26.849 L 86.143 20.004 L 86.143 20.004 Z  M 86.143 12.174 L 89.226 12.174 C 91.078 12.174 91.88 12.851 91.88 14.147 C 91.88 15.382 91.078 16.179 89.165 16.179 L 86.143 16.179 L 86.143 12.174 L 86.143 12.174 Z " fill-rule="evenodd" fill="rgb(227,9,41)"/><path d=" M 132.452 49.263 L 145.958 49.263 L 145.958 45.243 L 137.386 45.243 L 137.386 41.897 L 145.649 41.897 L 145.649 37.888 L 137.386 37.888 L 137.386 34.744 L 145.958 34.744 L 145.958 30.735 L 132.452 30.735 L 132.452 49.263 L 132.452 49.263 Z  M 156.75 37.762 L 154.532 37.762 C 153.111 37.762 152.375 37.331 152.375 36.348 C 152.375 35.358 153.111 34.744 154.532 34.744 L 162.177 34.744 L 162.177 30.735 L 154.591 30.735 C 150.335 30.735 147.56 32.953 147.56 36.467 C 147.56 40.417 150.649 42.018 153.79 42.018 L 156.007 42.018 C 157.427 42.018 158.168 42.575 158.168 43.565 C 158.168 44.557 157.427 45.243 156.007 45.243 L 148.242 45.243 L 148.242 49.263 L 155.947 49.263 C 160.203 49.263 162.978 46.978 162.978 43.439 C 162.979 39.488 159.892 37.762 156.75 37.762 Z  M 172.782 37.762 L 170.564 37.762 C 169.143 37.762 168.403 37.331 168.403 36.348 C 168.403 35.358 169.143 34.744 170.564 34.744 L 178.209 34.744 L 178.209 30.735 L 170.623 30.735 C 166.368 30.735 163.597 32.953 163.597 36.467 C 163.597 40.417 166.679 42.018 169.822 42.018 L 172.045 42.018 C 173.461 42.018 174.202 42.575 174.202 43.565 C 174.202 44.557 173.461 45.243 172.045 45.243 L 164.275 45.243 L 164.275 49.263 L 171.981 49.263 C 176.236 49.263 179.012 46.978 179.012 43.439 C 179.012 39.488 175.931 37.762 172.782 37.762 Z  M 168.28 8.349 L 163.47 8.349 L 163.47 18.647 L 156.871 8.349 L 151.941 8.349 L 151.941 26.849 L 156.749 26.849 L 156.749 16.365 L 163.47 26.849 L 168.28 26.849 L 168.28 8.349 L 168.28 8.349 Z  M 184.191 22.839 L 175.619 22.839 L 175.619 19.513 L 183.88 19.513 L 183.88 15.506 L 175.619 15.506 L 175.619 12.36 L 184.191 12.36 L 184.191 8.349 L 170.683 8.349 L 170.683 26.849 L 184.191 26.849 L 184.191 22.839 L 184.191 22.839 Z  M 111.672 17.354 C 113.031 16.738 114.2 15.752 114.2 13.409 C 114.2 10.14 111.672 8.349 107.668 8.349 L 98.603 8.349 L 98.603 26.849 L 107.541 26.849 C 111.672 26.849 114.389 24.997 114.389 21.297 C 114.389 18.955 113.031 17.845 111.672 17.354 Z  M 103.535 12.174 L 106.925 12.174 C 108.404 12.174 109.268 12.666 109.268 13.901 C 109.268 15.136 108.405 15.628 106.925 15.628 L 103.535 15.628 L 103.535 12.174 L 103.535 12.174 Z  M 107.11 23.025 L 103.535 23.025 L 103.535 19.452 L 107.11 19.452 C 108.589 19.452 109.453 20.004 109.453 21.238 C 109.453 22.473 108.59 23.025 107.11 23.025 Z  M 124.376 27.157 C 129.369 27.157 133.314 23.152 133.314 17.6 C 133.314 12.054 129.369 8.043 124.376 8.043 C 119.382 8.043 115.436 12.054 115.436 17.6 C 115.436 23.152 119.382 27.157 124.376 27.157 Z  M 124.376 12.546 C 126.844 12.546 128.381 14.95 128.381 17.6 C 128.381 20.249 126.844 22.653 124.376 22.653 C 121.911 22.653 120.365 20.249 120.365 17.6 C 120.365 14.95 121.911 12.546 124.376 12.546 Z  M 139.73 20.004 L 141.949 20.004 L 145.648 26.85 L 150.828 26.85 L 146.638 19.205 C 148.92 18.464 150.4 16.551 150.4 13.9 C 150.4 10.2 147.56 8.349 143.246 8.349 L 134.797 8.349 L 134.797 26.849 L 139.732 26.849 L 139.732 20.004 L 139.73 20.004 Z  M 139.73 12.174 L 142.812 12.174 C 144.664 12.174 145.466 12.851 145.466 14.147 C 145.466 15.382 144.663 16.179 142.75 16.179 L 139.729 16.179 L 139.729 12.174 L 139.73 12.174 Z  M 106.738 30.735 L 98.602 30.735 L 98.602 49.262 L 103.535 49.262 L 103.535 42.821 L 106.493 42.821 C 110.994 42.821 113.711 40.969 113.711 36.653 C 113.711 32.582 110.81 30.735 106.738 30.735 Z  M 106.618 38.811 L 103.535 38.811 L 103.535 34.745 L 106.618 34.745 C 107.973 34.745 108.776 35.483 108.776 36.779 C 108.776 38.073 107.974 38.811 106.618 38.811 Z  M 130.666 36.282 C 130.666 32.582 127.829 30.736 123.513 30.736 L 115.066 30.736 L 115.066 49.263 L 120 49.263 L 120 42.39 L 122.22 42.39 L 125.917 49.263 L 131.097 49.263 L 126.907 41.587 C 129.184 40.849 130.666 38.936 130.666 36.282 Z  M 123.021 38.566 L 119.999 38.566 L 119.999 34.561 L 123.082 34.561 C 124.928 34.561 125.73 35.238 125.73 36.532 C 125.73 37.762 124.928 38.566 123.021 38.566 Z  M 182.956 46.606 C 182.956 46.295 182.77 45.858 182.151 45.858 L 181.229 45.858 L 181.229 48.272 L 181.54 48.272 L 181.54 47.284 L 182.093 47.284 L 182.651 48.272 L 183.015 48.272 L 182.401 47.284 C 182.771 47.163 182.956 46.978 182.956 46.606 Z  M 181.54 47.036 L 181.54 46.171 L 182.151 46.171 C 182.523 46.171 182.65 46.359 182.65 46.607 C 182.65 46.918 182.464 47.037 182.092 47.037 L 181.54 47.037 L 181.54 47.036 Z  M 182.032 44.87 C 180.797 44.87 179.812 45.858 179.812 47.097 C 179.812 48.333 180.796 49.322 182.032 49.322 C 183.266 49.322 184.252 48.334 184.252 47.097 C 184.252 45.858 183.267 44.87 182.032 44.87 Z  M 182.032 49.075 C 180.922 49.075 180.06 48.212 180.06 47.096 C 180.06 45.983 180.921 45.114 182.032 45.114 C 183.141 45.114 184.003 45.983 184.003 47.096 C 184.003 48.212 183.142 49.075 182.032 49.075 Z " fill-rule="evenodd" fill="rgb(0,0,0)"/></g></svg>