<?xml version="1.0" encoding="UTF-8" standalone="no"?>
<!-- Created with Inkscape (http://www.inkscape.org/) -->

<svg
   width="132.29167mm"
   height="27.190565mm"
   viewBox="0 0 132.29167 27.190565"
   version="1.1"
   id="svg1"
   inkscape:version="1.4 (86a8ad7, 2024-10-11)"
   sodipodi:docname="Aircalin wordmark.svg"
   xmlns:inkscape="http://www.inkscape.org/namespaces/inkscape"
   xmlns:sodipodi="http://sodipodi.sourceforge.net/DTD/sodipodi-0.dtd"
   xmlns="http://www.w3.org/2000/svg"
   xmlns:svg="http://www.w3.org/2000/svg">
  <sodipodi:namedview
     id="namedview1"
     pagecolor="#ffffff"
     bordercolor="#000000"
     borderopacity="0.25"
     inkscape:showpageshadow="2"
     inkscape:pageopacity="0.0"
     inkscape:pagecheckerboard="0"
     inkscape:deskcolor="#d1d1d1"
     inkscape:document-units="mm"
     inkscape:zoom="2.0283687"
     inkscape:cx="182.41259"
     inkscape:cy="98.354898"
     inkscape:window-width="1920"
     inkscape:window-height="1001"
     inkscape:window-x="-9"
     inkscape:window-y="-9"
     inkscape:window-maximized="1"
     inkscape:current-layer="layer1" />
  <defs
     id="defs1" />
  <g
     inkscape:label="Layer 1"
     inkscape:groupmode="layer"
     id="layer1"
     transform="translate(69.489507,17.355011)">
    <polygon
       fill="#004a8f"
       points="88.779,31.766 88.779,28.945 89.311,28.945 90.445,31.178 90.445,28.945 90.795,28.945 90.795,31.766 90.375,31.766 89.129,29.335 89.129,31.766 "
       id="polygon1"
       transform="matrix(1.1531198,0,0,1.1531198,-103.24939,-26.861331)"
       style="stroke-width:0.22945" />
    <path
       fill="#004a8f"
       d="m 5.2026758,8.5498249 c 0,-0.3136488 -0.05881,-0.5511915 -0.1718152,-0.7045561 C 4.9143951,7.6919021 4.7506514,7.6157984 4.5384784,7.6157984 c -0.2144781,0 -0.3782219,0.076108 -0.4946886,0.2294704 C 3.9273243,7.9997862 3.869669,8.2361775 3.869669,8.5498249 c 0,0.30673 0.05881,0.5373538 0.1741208,0.6964843 0.1164654,0.1568242 0.2802092,0.2363897 0.4946886,0.2363897 0.2121726,0 0.3736108,-0.077259 0.4900758,-0.2340833 C 5.1438648,9.0952506 5.202675,8.8611674 5.202675,8.549825 m 0.4231946,0 c 0,0.4093576 -0.099168,0.7264655 -0.2963522,0.9501707 -0.1994901,0.2237054 -0.4612478,0.3344049 -0.7921931,0.3344049 -0.339015,0 -0.6065409,-0.1141591 -0.800265,-0.345936 C 3.5433352,9.2589937 3.4464731,8.9453452 3.4464731,8.5498251 c 0,-0.4082044 0.099168,-0.725312 0.2998126,-0.9501706 0.2006407,-0.22601 0.4635542,-0.3390194 0.7921935,-0.3390194 0.329793,0 0.5927035,0.113005 0.7921931,0.3367096 0.1960297,0.2271649 0.2951973,0.5431192 0.2951973,0.9524765"
       id="path1"
       style="stroke-width:0.264583" />
    <path
       fill="#004a8f"
       d="M 9.4899751,9.7686725 H 9.0794643 v -0.26983 C 8.9549274,9.609542 8.8338496,9.6925666 8.7196909,9.7502227 c -0.1118527,0.058809 -0.2398488,0.085331 -0.3793763,0.085331 -0.10724,0 -0.2075616,-0.017298 -0.3009641,-0.051891 C 7.9447948,9.7502223 7.8640762,9.6937198 7.7937358,9.6164607 7.7245486,9.541508 7.670352,9.4469523 7.6311461,9.33164 7.5919393,9.215175 7.57349,9.0756474 7.57349,8.9130577 V 7.3286709 h 0.4093576 v 1.3906626 c 0,0.1279965 0.00461,0.2352364 0.013837,0.3205674 0.010377,0.086484 0.031135,0.161437 0.065728,0.2248586 0.032286,0.062269 0.078412,0.1060872 0.1360679,0.136068 0.057656,0.02883 0.1395276,0.042667 0.2490739,0.042667 0.099168,0 0.2064084,-0.027675 0.3194143,-0.081872 C 8.8811283,9.3016612 8.984909,9.2336268 9.0794647,9.1494494 V 7.3275181 h 0.4105108 z"
       id="path2"
       style="stroke-width:0.264583" />
    <polygon
       fill="#004a8f"
       points="101.284,29.649 100.488,31.766 100.167,31.766 99.376,29.649 99.761,29.649 100.34,31.282 100.914,29.649 "
       id="polygon2"
       transform="matrix(1.1531198,0,0,1.1531198,-103.24939,-26.861331)"
       style="stroke-width:0.22945" />
    <path
       fill="#004a8f"
       d="m 16.937976,8.2765355 c -0.0035,-0.1106995 -0.0173,-0.2064084 -0.04036,-0.2859734 -0.02306,-0.078414 -0.0565,-0.1476008 -0.100322,-0.2041012 -0.04728,-0.059961 -0.108394,-0.107239 -0.184498,-0.1383743 -0.0738,-0.032295 -0.168355,-0.048429 -0.277904,-0.048429 -0.108394,0 -0.201795,0.017302 -0.277903,0.048429 -0.07726,0.034605 -0.147601,0.080719 -0.209867,0.1441403 -0.06112,0.064576 -0.106089,0.1349139 -0.13953,0.2133275 -0.03112,0.077259 -0.05189,0.1683548 -0.06112,0.2709833 z m -0.480851,1.5474868 c -0.389754,0 -0.690719,-0.1095464 -0.905199,-0.3274862 -0.215634,-0.2190926 -0.321721,-0.5304351 -0.321721,-0.9363333 0,-0.3955201 0.103781,-0.712628 0.311343,-0.9467113 0.208714,-0.2352364 0.482003,-0.3540074 0.817562,-0.3540074 0.152212,0 0.28482,0.023055 0.40244,0.065727 0.116466,0.043818 0.217939,0.113005 0.305579,0.2064066 0.08764,0.093402 0.154517,0.2064066 0.201796,0.3413249 0.04612,0.1337634 0.06919,0.2998126 0.06919,0.4958412 V 8.591336 h -1.689324 c 0,0.2836675 0.07149,0.5016072 0.214478,0.6503596 0.142986,0.1499054 0.34017,0.2237054 0.592704,0.2237054 0.08995,0 0.178731,-0.011532 0.264066,-0.031135 0.08648,-0.019603 0.164894,-0.044972 0.235236,-0.076106 0.07265,-0.033441 0.13722,-0.066881 0.186808,-0.098015 0.05189,-0.031135 0.0934,-0.059962 0.126842,-0.087637 h 0.02423 v 0.4462573 c -0.04728,0.020758 -0.107239,0.042667 -0.177581,0.072647 -0.07149,0.02652 -0.136069,0.048431 -0.192569,0.065728 -0.07841,0.020758 -0.154517,0.038052 -0.216788,0.050737 -0.06919,0.010377 -0.151057,0.016143 -0.249074,0.016143"
       id="path3"
       style="stroke-width:0.264583" />
    <rect
       x="19.304176"
       y="6.369276"
       fill="#004a8f"
       width="0.40935752"
       height="3.3982441"
       id="rect3"
       style="stroke-width:0.264583" />
    <rect
       x="21.867561"
       y="6.369276"
       fill="#004a8f"
       width="0.41051066"
       height="3.3982441"
       id="rect4"
       style="stroke-width:0.264583" />
    <path
       fill="#004a8f"
       d="m 25.964597,8.2765355 c -0.0035,-0.1106995 -0.0173,-0.2064084 -0.03922,-0.2859734 -0.02423,-0.078414 -0.05766,-0.1476008 -0.100322,-0.2041012 -0.04843,-0.059961 -0.1107,-0.107239 -0.184498,-0.1383743 -0.0738,-0.032295 -0.168355,-0.048429 -0.277904,-0.048429 -0.109544,0 -0.20295,0.017302 -0.277903,0.048429 -0.07726,0.034605 -0.146446,0.080719 -0.209867,0.1441403 -0.06227,0.064576 -0.108394,0.1349139 -0.13953,0.2133275 -0.03229,0.077259 -0.05304,0.1683548 -0.06227,0.2709833 z m -0.48085,1.5474868 c -0.388603,0 -0.690719,-0.1095464 -0.905199,-0.3274862 C 24.36407,9.2774435 24.257981,8.966101 24.257981,8.5602028 c 0,-0.3955201 0.102628,-0.712628 0.312495,-0.9467113 0.207562,-0.2352364 0.478545,-0.3540074 0.816409,-0.3540074 0.151057,0 0.28482,0.023055 0.402441,0.065727 0.116465,0.043818 0.217938,0.113005 0.306729,0.2064066 0.08533,0.093402 0.153367,0.2064066 0.200641,0.3413249 0.04612,0.1337634 0.06919,0.2998126 0.06919,0.4958412 v 0.222552 H 24.67541 c 0,0.2836675 0.07149,0.5016072 0.214478,0.6503596 0.142985,0.1499054 0.34017,0.2237054 0.592703,0.2237054 0.08995,0 0.178732,-0.011532 0.265217,-0.031135 0.08648,-0.019603 0.166049,-0.044972 0.234082,-0.076106 0.0738,-0.033441 0.137219,-0.066881 0.187958,-0.098015 0.05074,-0.031135 0.09225,-0.059962 0.126842,-0.087637 h 0.02423 v 0.4462573 c -0.04843,0.020758 -0.107239,0.042667 -0.177581,0.072647 -0.07149,0.02652 -0.136069,0.048431 -0.193724,0.065728 -0.07841,0.020758 -0.152212,0.038052 -0.216788,0.050737 -0.06919,0.010377 -0.149906,0.016143 -0.249074,0.016143"
       id="path4"
       style="stroke-width:0.264583" />
    <rect
       x="28.221254"
       y="8.1473866"
       fill="#004a8f"
       width="1.232685"
       height="0.3966732"
       id="rect5"
       style="stroke-width:0.264583" />
    <path
       fill="#004a8f"
       d="m 32.79222,9.8251754 c -0.212173,0 -0.407052,-0.033441 -0.585785,-0.10724 C 32.028854,9.6464419 31.873182,9.5426611 31.745187,9.4008276 31.61719,9.2601468 31.514562,9.0848729 31.444224,8.8726987 31.372731,8.6593716 31.336985,8.4183695 31.336985,8.1439269 c 0,-0.2709828 0.03343,-0.5073724 0.102628,-0.7114748 0.06919,-0.2017956 0.17066,-0.3782219 0.304424,-0.5269754 0.127997,-0.1464459 0.282514,-0.2583003 0.460094,-0.3332534 0.176427,-0.076108 0.375917,-0.1153106 0.596163,-0.1153106 0.108394,0 0.211022,0.00693 0.307884,0.023055 0.09571,0.017302 0.183348,0.038048 0.264062,0.062271 0.07149,0.023055 0.141835,0.048429 0.216788,0.08187 0.07265,0.032295 0.146446,0.069187 0.216788,0.1095446 v 0.5200571 h -0.0346 c -0.03692,-0.033428 -0.08648,-0.076108 -0.146446,-0.1256919 -0.05996,-0.048429 -0.131458,-0.099168 -0.216788,-0.1452953 -0.08418,-0.044973 -0.174121,-0.083025 -0.270983,-0.113005 -0.09801,-0.028808 -0.211022,-0.042667 -0.34017,-0.042667 -0.138374,0 -0.268677,0.027675 -0.392059,0.084179 -0.122232,0.057655 -0.231776,0.1418348 -0.324027,0.2525343 -0.09225,0.1106995 -0.164894,0.2490739 -0.215633,0.4151232 -0.05074,0.1683547 -0.0761,0.3574678 -0.0761,0.5650285 0,0.2237054 0.02654,0.4151232 0.08072,0.5754069 0.05419,0.1614369 0.126843,0.2986581 0.220244,0.4082044 0.08995,0.1095463 0.19603,0.1891118 0.318261,0.2433083 0.121077,0.056503 0.25138,0.081872 0.387449,0.081872 0.125691,0 0.242153,-0.014992 0.349396,-0.044972 0.107239,-0.031135 0.201796,-0.069187 0.282515,-0.1164651 0.08072,-0.044972 0.149906,-0.091097 0.208716,-0.1383743 0.05765,-0.046125 0.103783,-0.08879 0.13722,-0.1199246 h 0.03229 v 0.5142914 c -0.07149,0.033441 -0.138374,0.064575 -0.20295,0.095709 -0.06342,0.031135 -0.13953,0.061115 -0.230626,0.08879 -0.0934,0.02998 -0.181037,0.054196 -0.262911,0.07034 -0.08187,0.018448 -0.185653,0.023064 -0.317106,0.023064"
       id="path5"
       style="stroke-width:0.264583" />
    <path
       fill="#004a8f"
       d="M 37.081826,9.166744 V 8.4898627 c -0.09802,0.00923 -0.221399,0.020758 -0.370151,0.036901 -0.148751,0.013837 -0.269828,0.035746 -0.360928,0.064575 -0.109545,0.033441 -0.19949,0.084178 -0.270983,0.153365 -0.07149,0.07034 -0.108394,0.1648961 -0.108394,0.289433 0,0.1406808 0.04036,0.2456147 0.119926,0.3159547 0.07956,0.07034 0.193724,0.1072404 0.344781,0.1072404 0.130303,0 0.246768,-0.02652 0.351702,-0.081872 0.102628,-0.057656 0.200641,-0.1256901 0.294047,-0.2087147 m 0,0.3413236 c -0.0346,0.024214 -0.07841,0.059962 -0.134914,0.1037808 -0.0565,0.044972 -0.109549,0.079565 -0.163744,0.1060871 -0.07149,0.036901 -0.142986,0.068034 -0.209867,0.087637 -0.06919,0.019603 -0.164895,0.02883 -0.28482,0.02883 -0.100323,0 -0.19603,-0.017298 -0.287126,-0.05535 -0.08994,-0.038052 -0.16951,-0.09225 -0.237542,-0.1591305 -0.06573,-0.068034 -0.119926,-0.1510586 -0.157978,-0.2502271 -0.03922,-0.098015 -0.05881,-0.201796 -0.05881,-0.3113423 0,-0.1683557 0.03574,-0.3124956 0.107239,-0.431267 0.07149,-0.1187714 0.183347,-0.2121739 0.337864,-0.2813611 0.13722,-0.064575 0.298658,-0.1083931 0.484311,-0.1303024 0.186807,-0.024232 0.387448,-0.042667 0.604234,-0.051889 v -0.080719 c 0,-0.096862 -0.01612,-0.1718153 -0.04497,-0.231776 -0.02767,-0.057655 -0.07034,-0.1049336 -0.122231,-0.1360689 -0.05189,-0.033428 -0.116465,-0.056505 -0.191419,-0.068032 -0.07495,-0.010373 -0.153366,-0.014992 -0.232931,-0.014992 -0.09456,0 -0.206406,0.013859 -0.334404,0.042667 -0.127997,0.027675 -0.2583,0.070342 -0.383987,0.1210765 h -0.02421 V 7.3805665 c 0.0738,-0.023055 0.183347,-0.046123 0.324027,-0.072648 0.141835,-0.025365 0.28136,-0.039224 0.419734,-0.039224 0.167204,0 0.309035,0.013816 0.422044,0.039224 0.115311,0.026542 0.219093,0.074953 0.311345,0.1429854 0.08879,0.066882 0.155672,0.1533667 0.19949,0.2583002 0.04267,0.108394 0.06342,0.2352365 0.06342,0.3897538 V 9.7675218 H 37.080677 V 9.5080696 Z"
       id="path6"
       style="stroke-width:0.264583" />
    <rect
       x="39.617538"
       y="6.369276"
       fill="#004a8f"
       width="0.41051066"
       height="3.3982441"
       id="rect6"
       style="stroke-width:0.264583" />
    <path
       fill="#004a8f"
       d="m 43.818351,6.1086704 -0.597315,0.8164088 h -0.325178 l 0.392059,-0.8164088 z m -0.104933,2.1678651 c -0.0035,-0.1106995 -0.01613,-0.2064084 -0.03922,-0.2859734 -0.02423,-0.078414 -0.05651,-0.1476008 -0.100323,-0.2041012 -0.04728,-0.059961 -0.109549,-0.107239 -0.185653,-0.1383743 -0.0738,-0.032295 -0.167204,-0.048429 -0.277899,-0.048429 -0.108394,0 -0.200645,0.017302 -0.276749,0.048429 -0.07841,0.034605 -0.147601,0.080719 -0.209867,0.1441403 -0.06112,0.064576 -0.107239,0.1349139 -0.14068,0.2133275 -0.03112,0.077259 -0.05189,0.1683548 -0.05996,0.2709833 z m -0.480851,1.5474868 c -0.388604,0 -0.690719,-0.1095464 -0.905199,-0.3274862 -0.215633,-0.2190926 -0.321722,-0.5304351 -0.321722,-0.9363333 0,-0.3955201 0.103783,-0.712628 0.312495,-0.9467113 0.209867,-0.2352364 0.482004,-0.3540074 0.817562,-0.3540074 0.151057,0 0.28482,0.023055 0.402441,0.065727 0.116465,0.043818 0.217938,0.113005 0.305578,0.2064066 0.08764,0.093402 0.154518,0.2064066 0.201796,0.3413249 0.04497,0.1337634 0.06919,0.2998126 0.06919,0.4958412 V 8.591336 h -1.689322 c 0,0.2836675 0.07149,0.5016072 0.215633,0.6503596 0.14068,0.1499054 0.339019,0.2237054 0.591551,0.2237054 0.08995,0 0.177581,-0.011532 0.264066,-0.031135 0.08879,-0.019603 0.166049,-0.044972 0.236391,-0.076106 0.07265,-0.033441 0.136069,-0.066881 0.187958,-0.098015 0.05074,-0.031135 0.09225,-0.059962 0.125692,-0.087637 h 0.02423 v 0.4485635 c -0.04843,0.018448 -0.108394,0.040357 -0.178732,0.071494 -0.07149,0.02652 -0.134914,0.048431 -0.191418,0.065728 -0.08072,0.020758 -0.154518,0.038052 -0.217939,0.050737 -0.06919,0.00923 -0.151057,0.014992 -0.250229,0.014992"
       id="path7"
       style="stroke-width:0.264583" />
    <path
       fill="#004a8f"
       d="M 47.539469,9.1748158 V 7.7668565 c -0.102628,-0.049584 -0.193724,-0.08418 -0.275594,-0.102628 -0.07956,-0.018435 -0.167204,-0.027675 -0.262911,-0.027675 -0.211022,0 -0.375917,0.078414 -0.495842,0.237542 -0.118771,0.1579778 -0.178731,0.3839878 -0.178731,0.6838002 0,0.2882798 0.04497,0.5062197 0.138374,0.6572783 0.08994,0.1522118 0.237542,0.2283177 0.441645,0.2283177 0.107239,0 0.216788,-0.024214 0.325182,-0.072647 0.108394,-0.048431 0.211022,-0.1141591 0.307884,-0.1960305 m 0.410512,0.5938566 h -0.410512 v -0.250227 c -0.06573,0.05535 -0.119926,0.098015 -0.166049,0.133762 -0.04728,0.034596 -0.102628,0.066881 -0.164895,0.096862 -0.05765,0.02652 -0.118771,0.048431 -0.181041,0.063422 -0.06458,0.016143 -0.134914,0.023064 -0.219094,0.023064 -0.130303,0 -0.25484,-0.02652 -0.366694,-0.080718 C 46.328698,9.6971794 46.232986,9.6176144 46.155728,9.510374 46.073858,9.4031341 46.011587,9.2705252 45.96892,9.1125479 45.92625,8.9545705 45.90319,8.7735307 45.90319,8.5671222 c 0,-0.2133271 0.02654,-0.3989789 0.08302,-0.5546509 0.05535,-0.1579778 0.131458,-0.2940467 0.22947,-0.4093572 0.08764,-0.107239 0.19603,-0.1891131 0.320567,-0.2513794 0.126842,-0.05881 0.259451,-0.089945 0.396675,-0.089945 0.122231,0 0.22832,0.013859 0.319416,0.041534 0.08994,0.025365 0.184497,0.068032 0.285975,0.1245369 V 6.3704494 h 0.410512 v 3.3982441 z"
       id="path8"
       style="stroke-width:0.264583" />
    <path
       fill="#004a8f"
       d="m 51.669944,8.5498249 c 0,-0.3136488 -0.05881,-0.5511915 -0.172966,-0.7045561 -0.11531,-0.1533667 -0.277903,-0.2294704 -0.490076,-0.2294704 -0.214482,0 -0.379376,0.076108 -0.495841,0.2294704 -0.116465,0.1545174 -0.172966,0.3909087 -0.172966,0.7045561 0,0.30673 0.05765,0.5373538 0.172966,0.6964843 0.116465,0.1568242 0.28136,0.2363897 0.495841,0.2363897 0.212173,0 0.373611,-0.077259 0.490076,-0.2340833 0.11416,-0.153365 0.172966,-0.3874482 0.172966,-0.6987906 m 0.423195,0 c 0,0.4093576 -0.09802,0.7264655 -0.297503,0.9501707 -0.197185,0.2237054 -0.460095,0.3344049 -0.789887,0.3344049 -0.339015,0 -0.606541,-0.1141591 -0.800265,-0.345936 -0.193724,-0.2294709 -0.291741,-0.5431194 -0.291741,-0.9386395 0,-0.4082044 0.100322,-0.725312 0.299812,-0.9501706 0.201796,-0.22601 0.464708,-0.3390194 0.793346,-0.3390194 0.328639,0 0.592704,0.113005 0.789888,0.3367096 0.198335,0.2271649 0.296352,0.5431192 0.296352,0.9524765"
       id="path9"
       style="stroke-width:0.264583" />
    <path
       fill="#004a8f"
       d="M 55.975692,9.7686725 H 55.565188 V 8.37801 c 0,-0.1106995 -0.0057,-0.2156335 -0.01743,-0.3124955 -0.01046,-0.098017 -0.03094,-0.1741208 -0.06228,-0.231776 C 55.453228,7.7726225 55.405898,7.72765 55.344794,7.696519 55.286004,7.667711 55.202976,7.651546 55.101473,7.651546 c -0.102637,0 -0.207584,0.027675 -0.315956,0.083025 -0.108394,0.054195 -0.215633,0.1245369 -0.317106,0.2133275 V 9.7686738 H 54.058055 V 7.3286709 h 0.410512 v 0.2709828 c 0.122232,-0.108394 0.243308,-0.1925692 0.362079,-0.2513794 0.118762,-0.057655 0.245631,-0.087636 0.378209,-0.087636 0.239834,0 0.427806,0.078414 0.563879,0.237542 0.134931,0.1591283 0.202963,0.3874482 0.202963,0.6872591 z"
       id="path10"
       style="stroke-width:0.264583" />
    <path
       fill="#004a8f"
       d="m 58.103201,9.7686725 h 0.40937 V 7.3286709 h -0.40937 z m -0.02746,-2.848206 h 0.467013 V 6.4938114 h -0.467013 z"
       id="path11"
       style="stroke-width:0.264583" />
    <path
       fill="#004a8f"
       d="m 62.199083,8.2765355 c -0.0035,-0.1106995 -0.01482,-0.2064084 -0.03923,-0.2859734 -0.0231,-0.078414 -0.05648,-0.1476008 -0.09915,-0.2041012 -0.04842,-0.059961 -0.110699,-0.107239 -0.185661,-0.1383743 -0.07265,-0.032295 -0.166049,-0.048429 -0.277926,-0.048429 -0.108389,0 -0.201786,0.017302 -0.276748,0.048429 -0.0784,0.034605 -0.146437,0.080719 -0.20985,0.1441403 -0.0611,0.064576 -0.10839,0.1349139 -0.140684,0.2133275 -0.03094,0.077259 -0.05191,0.1683548 -0.0611,0.2709833 z m -0.480855,1.5474868 c -0.388581,0 -0.689562,-0.1095464 -0.904044,-0.3274862 -0.214469,-0.2190926 -0.321726,-0.5304351 -0.321726,-0.9363333 0,-0.3955201 0.10377,-0.712628 0.312486,-0.9467113 0.20985,-0.2352364 0.480855,-0.3540074 0.816409,-0.3540074 0.15219,0 0.284812,0.023055 0.403618,0.065727 0.116452,0.043818 0.216779,0.113005 0.305556,0.2064066 0.08878,0.093402 0.155677,0.2064066 0.201787,0.3413249 0.04611,0.1337634 0.07034,0.2998126 0.07034,0.4958412 V 8.591336 h -1.691627 c 0,0.2836675 0.07147,0.5016072 0.215646,0.6503596 0.141817,0.1499054 0.339028,0.2237054 0.591549,0.2237054 0.08995,0 0.178732,-0.011532 0.265243,-0.031135 0.08647,-0.019603 0.166049,-0.044972 0.235215,-0.076106 0.07147,-0.033441 0.136064,-0.066881 0.186794,-0.098015 0.05073,-0.031135 0.09226,-0.059962 0.126825,-0.087637 h 0.02441 v 0.4462573 c -0.04729,0.020758 -0.108389,0.042667 -0.178731,0.072647 -0.07148,0.02652 -0.134932,0.048431 -0.192591,0.065728 -0.07958,0.020758 -0.15219,0.038052 -0.21678,0.050737 -0.06916,0.010377 -0.149923,0.016143 -0.250207,0.016143"
       id="path12"
       style="stroke-width:0.264583" />
    <path
       fill="#004a8f"
       d="m -53.725205,-6.4568762 -0.898282,-5.4392658 -3.895237,5.440419 z m -15.217721,6.36291492 12.474448,-16.49999072 6.433258,-0.0023 3.389018,16.49883858 -6.071175,0.0011532 -0.53966,-3.36941608 -7.37997,0.00231 -2.393877,3.36941612 z"
       id="path13"
       style="stroke-width:0.264583" />
    <path
       fill="#004a8f"
       d="m -33.930752,-14.315388 h -5.536126 l 0.832552,-3.025786 5.534975,-0.0012 z m -3.9183,14.2156612 h -5.518833 l 3.425919,-12.4421622 5.518832,-0.0023 z"
       id="path14"
       style="stroke-width:0.264583" />
    <path
       fill="#004a8f"
       d="m -18.05921,-8.879581 h -0.456635 c -0.19603,-0.051889 -0.491229,-0.089946 -0.88329,-0.1153106 -0.390909,-0.026542 -0.830247,-0.040357 -1.313404,-0.040357 -0.578866,0.00231 -1.20155,0.061116 -1.871513,0.1775811 -0.669962,0.1164655 -1.323782,0.2594509 -1.968376,0.4231946 l -2.294708,8.33359669 h -5.518831 l 3.425919,-12.44331579 5.518831,-0.0023 -0.491229,1.782723 c 0.296352,-0.162589 0.70225,-0.36669 1.217695,-0.61346 0.514291,-0.247919 0.976692,-0.44741 1.384896,-0.593857 0.446258,-0.169509 0.952477,-0.317106 1.517506,-0.438185 0.562723,-0.122231 1.081626,-0.183347 1.555559,-0.183347 0.177581,0 0.377071,0.0046 0.596163,0.01037 0.219093,0.0081 0.415123,0.01961 0.590397,0.03343 z"
       id="path15"
       style="stroke-width:0.264583" />
    <path
       fill="#004a8f"
       d="m -8.5056126,0.22775937 c -1.4621556,0 -2.7628744,-0.1303029 -3.9067694,-0.38860319 -1.142742,-0.25714536 -2.0883,-0.65727829 -2.832062,-1.19578518 -0.734538,-0.5396601 -1.236145,-1.2188477 -1.507128,-2.0329501 -0.268678,-0.8164089 -0.250229,-1.7781108 0.05419,-2.886259 0.327487,-1.1877133 0.874064,-2.2036117 1.640889,-3.0373176 0.765671,-0.8360113 1.680096,-1.5221183 2.743272,-2.0606253 1.026277,-0.51775 2.169018,-0.899433 3.4305312,-1.146201 1.2603601,-0.251379 2.5368635,-0.372456 3.8306639,-0.372456 0.9778457,0 1.9337821,0.07726 2.8678092,0.236392 0.934027,0.160283 1.84729792,0.411663 2.73981222,0.759906 l -0.91673003,3.3232912 H -1.070298 c -0.1798867,-0.1487514 -0.4058967,-0.3113446 -0.6768817,-0.4889227 -0.2721377,-0.1752757 -0.5777128,-0.34017 -0.9155768,-0.4889231 -0.3574679,-0.1556722 -0.7725906,-0.2836653 -1.2476758,-0.3920593 -0.4750852,-0.1060881 -1.0228172,-0.1602831 -1.6420423,-0.1602831 -1.4102659,0 -2.5956728,0.3447852 -3.5585279,1.0355017 -0.9617015,0.6918719 -1.6039895,1.6189802 -1.9257105,2.7870905 -0.34363,1.2499818 -0.186807,2.1817024 0.46932,2.7940093 0.6549723,0.6111532 1.6662585,0.9190364 3.0350116,0.9190364 0.6930251,0 1.3180157,-0.056505 1.8738196,-0.1672042 0.5558035,-0.113005 1.0447266,-0.2433079 1.4656152,-0.4001308 0.4105121,-0.1568228 0.769131,-0.3159555 1.0793202,-0.4820039 0.3090346,-0.1672042 0.5754068,-0.3148006 0.8014182,-0.4497167 h 0.7091689 l -0.9155773,3.32444416 c -0.3413249,0.0945565 -0.7379965,0.20640663 -1.1865605,0.3320985 -0.4508695,0.12684246 -0.9017394,0.22831555 -1.3549157,0.31249511 -0.5638754,0.10147309 -1.0885448,0.18104163 -1.5717019,0.23754195 -0.4820044,0.0576553 -1.1069951,0.0876357 -1.8738201,0.0876357"
       id="path16"
       style="stroke-width:0.264583" />
    <path
       fill="#004a8f"
       d="m 11.807746,-3.356137 0.713781,-2.59106 c -0.95363,0.065727 -1.72622,0.1222314 -2.317771,0.1706603 -0.5915502,0.047278 -1.1842538,0.1406799 -1.7804167,0.2836696 -0.5177508,0.1176161 -0.9409458,0.2975028 -1.2753505,0.5362005 -0.3344049,0.2398475 -0.5558037,0.5604163 -0.6665032,0.9582428 -0.1602833,0.5834783 -0.047278,0.984764 0.3390194,1.2027039 0.3874483,0.2179386 1.0170516,0.3274875 1.8888102,0.3274875 0.4854634,0 1.000908,-0.078414 1.5474868,-0.2340815 0.546579,-0.1556723 1.06433,-0.3736108 1.550946,-0.6538187 m -0.530435,1.9280161 c -0.439339,0.221399 -0.832553,0.4197342 -1.181948,0.59962263 -0.3482422,0.17758117 -0.7979588,0.35400742 -1.3526094,0.53158816 -0.5408131,0.1695097 -1.0574108,0.2998126 -1.549793,0.38860319 -0.4923822,0.08994116 -1.1577324,0.13376335 -1.9995097,0.13376335 -1.5647837,0 -2.764028,-0.36899979 -3.5965806,-1.10814821 C 0.76316644,-1.6218371 0.5037147,-2.5512514 0.81159748,-3.6743902 1.0664373,-4.598039 1.5334506,-5.3429547 2.2160974,-5.9125956 2.8998978,-6.4810837 3.7785751,-6.9308004 4.859048,-7.2663585 5.9510528,-7.604223 7.2102594,-7.8429181 8.6332093,-7.975527 10.058465,-8.1081354 11.578277,-8.2119183 13.196104,-8.2868715 l 0.01845,-0.065727 c 0.189112,-0.6872592 -0.03921,-1.1623448 -0.688413,-1.4252561 -0.6469,-0.2594504 -1.691627,-0.3920594 -3.13072,-0.3920594 -0.6515127,0 -1.4379404,0.08303 -2.3558238,0.2525344 -0.9178831,0.1625888 -1.8288476,0.3759164 -2.7294342,0.635369 H 3.8373827 l 0.8267871,-3.0015704 c 0.5765596,-0.113005 1.495596,-0.242157 2.7571091,-0.394369 1.261513,-0.153367 2.512648,-0.22832 3.7522521,-0.22832 3.050002,0 5.170589,0.357468 6.366374,1.067788 1.198092,0.712629 1.594765,1.802327 1.192326,3.2644823 l -2.330455,8.46505272 -5.48885,0.002306 z"
       id="path17"
       style="stroke-width:0.264583" />
    <polygon
       fill="#004a8f"
       points="112.513,8.247 117.299,8.246 113.184,23.197 108.397,23.197 "
       id="polygon17"
       transform="matrix(1.1531198,0,0,1.1531198,-103.24939,-26.861331)"
       style="stroke-width:0.22945" />
    <path
       fill="#004a8f"
       d="m 42.18784,-14.331531 -5.526903,0.0023 0.832552,-3.02348 5.526904,-0.0023 z m -3.919454,14.21566081 -5.518832,0.001153 3.425919,-12.44446881 h 5.519985 z"
       id="path18"
       style="stroke-width:0.264583" />
    <path
       fill="#004a8f"
       d="m 60.341406,-0.11932977 -5.548813,0.002306 1.697394,-6.17380363 c 0.139507,-0.5027601 0.247897,-1.0043674 0.326345,-1.5025152 0.08071,-0.4981477 0.07265,-0.8648398 -0.0183,-1.101229 -0.11301,-0.2813598 -0.330922,-0.4820044 -0.654971,-0.6030818 -0.321726,-0.1210765 -0.782968,-0.1844977 -1.382591,-0.1821922 -0.453176,0 -0.925955,0.061116 -1.420643,0.1752757 -0.495842,0.1210765 -1.040114,0.3090347 -1.63743,0.5673349 l -2.42847,8.81906022 -5.518832,0.001153 3.425919,-12.44446922 h 5.519984 l -0.378221,1.374519 c 1.051645,-0.53966 2.049093,-0.960549 2.990038,-1.261514 0.93864,-0.305578 1.92917,-0.456635 2.970438,-0.456635 1.806938,-0.0023 3.079983,0.400131 3.815672,1.200398 0.736845,0.801418 0.893668,1.9637633 0.475084,3.4858814 z"
       id="path19"
       style="stroke-width:0.264583" />
    <path
       fill="#00b1eb"
       d="m -69.489507,3.2604642 c 0,0 66.6238034,-1.0135921 132.272068,-0.1383744 -0.0012,0 -68.2877556,1.2926477 -132.272068,0.1383744"
       id="path20"
       style="stroke-width:0.264583" />
  </g>
</svg>
