<svg id="Layer_1" xmlns:rdf="http://www.w3.org/1999/02/22-rdf-syntax-ns#" xmlns="http://www.w3.org/2000/svg" xml:space="preserve" overflow="visible" height="51.047" viewBox="0 0 240 51.047227" width="240" version="1.1" enable-background="new 0 0 286.643 94.032" xmlns:cc="http://creativecommons.org/ns#" xmlns:xlink="http://www.w3.org/1999/xlink" xmlns:dc="http://purl.org/dc/elements/1.1/"><metadata id="metadata35"><rdf:RDF><cc:Work rdf:about=""><dc:format>image/svg+xml</dc:format><dc:type rdf:resource="http://purl.org/dc/dcmitype/StillImage"/><dc:title/></cc:Work></rdf:RDF></metadata>
<g id="g3785" transform="matrix(0.69066737,0,0,0.69066737,-91.513433,-247.66641)">
<defs id="defs3787">
<rect id="XMLID_1_" y="0" width="612" x="0" height="792"/>
</defs>
<clipPath id="XMLID_3_">
<use id="use3791" xlink:href="#XMLID_1_" height="1" width="1" y="0" x="0"/>
</clipPath>
<path id="path3793" d="m479.99,363.63-6.43,9.08c-3.03-1.38-5.681-2.14-8.58-2.14-3.79,0-8.07,2.9-8.07,7.06,0,9.08,16.021,18.8,16.021,33.05,0,15.891-14.891,21.82-26.24,21.82-7.32,0-17.66-2.78-21.32-6.94l6.68-9.46c4.04,2.271,7.57,3.91,11.48,3.91,5.05,0,9.84-4.03,9.84-9.46,0-4.79-4.29-9.33-7.689-14.12-1.771-2.53-3.66-4.92-5.171-7.45-1.27-2.14-2.649-4.92-2.909-6.93,0-0.63-0.25-1.77-0.25-2.02v-2.9c2.02-14.76,15.899-18.54,25.609-18.54,5.799,0,10.85,1.13,17.029,5.04" clip-path="url(#XMLID_3_)" fill-rule="evenodd" clip-rule="evenodd" fill="#0075bf"/>
<polygon id="polygon3795" fill-rule="evenodd" clip-path="url(#XMLID_3_)" points="397.36,419.13,421.2,419.13,418.93,431.24,375.54,431.24,389.03,359.85,428.65,359.85,426.38,371.83,406.44,371.83,403.29,387.85,422.72,387.85,420.45,399.96,401.15,399.96" clip-rule="evenodd" fill="#0075bf"/>
<path id="path3797" d="m347.53,371.96c4.671,0.63,7.32,5.04,7.32,8.45,0,3.53-2.399,9.08-7.32,10.84-0.88,0.26-2.399,0.76-2.779,0.76h-6.561l3.91-20.05h5.43zm13.75-11.23c9.211,2.52,12.99,10.6,12.99,17.41,0,8.19-4.16,16.14-15.39,21.44l11.1,30.4-20.81,2.27-7.57-28.13h-5.68l-5.17,27.12h-19.431l13.5-71.39h30.66c0.501,0,4.671,0.63,5.801,0.88" clip-path="url(#XMLID_3_)" fill-rule="evenodd" clip-rule="evenodd" fill="#0075bf"/>
<polygon id="polygon3799" fill-rule="evenodd" clip-path="url(#XMLID_3_)" points="284.45,431.24,298.08,359.85,317.38,359.85,303.88,431.24" clip-rule="evenodd" fill="#0075bf"/>
<path id="path3801" d="m257.71,402.86h-12.49c3.91-7.82,7.32-15.64,10.72-23.46,0.13,7.57,0.88,14.25,1.77,23.46m11.1-43.01,11.23,71.39h-19.3l-1.77-17.03h-19.43l-9.46,17.03h-16.4l40.24-71.39h14.89z" clip-path="url(#XMLID_3_)" fill-rule="evenodd" clip-rule="evenodd" fill="#0075bf"/>
<polygon id="polygon3803" fill-rule="evenodd" clip-path="url(#XMLID_3_)" points="205.16,431.3,132.5,431.3,132.5,359.78,245.41,359.78" clip-rule="evenodd" fill="#d7df21"/>
<path id="path3805" d="m171.54,418.75c-0.12,0.13-0.37,0.13-3.53,0l3.03-6.56c0,2.15,0.25,4.42,0.5,6.56m14.39-4.41c-0.76,0.75-1.77,1.641-2.65,2.271l-1.9-6.811,4.55,4.54zm-28.39-1.27c-0.88-0.63-1.89-1.38-2.77-2.141l6.56-3.149-3.79,5.29zm17.16-6.18,3.03,19.181c-1.52,0.25-3.16,0.37-5.3,0.5-0.13-1.391-0.25-2.9-0.63-4.41h-5.55c-0.63,1.01-1.27,2.14-1.9,3.28-1.26-0.381-2.52-0.761-3.78-1.271l9.71-17.28c1.39,0.13,2.9,0.13,4.42,0m-6.94-1-10.22,16.771c-1.39-0.88-2.9-1.891-4.41-3.03l2.39-3.649c-1.38-1.271-4.16-3.66-4.41-3.66-0.38,0-2.4,0.88-3.53,1.26-0.76-1.14-1.39-2.271-2.02-3.41l18.67-7.06c1.39,1.138,2.27,2.268,3.53,2.778m27.75,9.96c-1.38,1.391-2.52,2.65-3.91,3.78l-3.15-2.899c-1.39,1.14-3.66,2.529-4.29,3.789l0.63,3.15s0,0.13-0.13,0.13c-1.13,0.63-2.39,1.13-3.65,1.51l-3.79-19.17c0.88-0.89,2.15-1.89,3.28-3.159l15.01,12.869zm-1.26-14.13c-0.25,1.261-0.38,2.4-0.63,3.53l-6.05-4.16c2.14,0.25,4.41,0.51,6.68,0.63m8.08-4.79v2.52c-0.13,1.01-0.26,1.89-0.38,2.78-2.65-0.25-0.89-0.25-4.42-0.131l-0.88,5.051c0,0.63,2.77,2.52,2.77,2.649,0,0.25-1.13,2.271-1.89,3.4l-15.64-12.49c0.5-1.38,0.63-2.77,0.76-4.16l19.68,0.381zm-45.29,1.26c-2.15,0.51-4.42,1.01-6.56,1.64-0.26-1.01-0.38-2.14-0.63-3.4l7.19,1.76zm5.17-1.76c0,1.26,0.13,2.9,0.88,4.41l-18.79,6.311c-0.76-1.641-1.14-3.54-1.39-5.17,0.63-0.131,4.29-1.011,4.29-1.521,0-0.38-0.13-3.66-1.01-5.04-0.63-1.01-2.27-0.89-3.53-1.39v-0.51c0-0.25,0.37-2.27,0.63-3.4l18.92,6.31zm31.79-6.44c-2.4,0.13-4.92,0.38-7.32,0.76l5.55-3.78c0.63,0.88,1.27,2.01,1.77,3.02m-34.19-2.02-6.05-2.77,1.76-3.03,4.29,5.8zm38.61-5.67c0,0.38-2.28,1.76-3.41,2.65,0.88,1.64,1.89,3.28,2.9,4.79,0.38,0.13,1.01,0,1.39,0h2.27c0.13,1.14,0.38,2.4,0.63,3.91l-20.06,0.38c-0.63-1.26-1.13-2.52-2.27-3.79l15.52-12.23c1.13,1.39,3.03,4.04,3.03,4.29m-14.01-4.29-5.04,5.05,1.76-6.31c1.01,0.38,2.15,0.88,3.28,1.26m-15.77,4.16-2.77-6.05c1.01-0.38,2.14-0.76,3.4-1.14-0.25,2.4-0.5,4.8-0.63,7.19m-3.66,7.95c-0.88,1.13-2.01,2.77-2.27,3.91l-18.41-7.06c0.5-1.64,1.13-3.41,2.39-4.8l3.79,1.64c1.26-1.51,1.89-3.15,3.02-4.79l-1.89-3.15c0.89-0.89,2.02-1.9,3.03-2.65l10.34,16.9zm13.12-22.07c1.64,0.37,3.28,0.75,4.8,1.38-0.38,1.26-1.01,3.53-1.01,3.79,0,0.63,4.04,1.76,5.17,2.27l2.9-2.4c1.01,0.76,2.15,1.64,3.16,2.52l-15.27,13c-1.26-0.89-2.77-1.39-4.03-1.52l3.78-19.04h0.5zm-3.78-0.51-3.03,19.55c-1.26,0.13-3.15,0.63-4.29,1.52l-9.58-17.16c1.64-0.88,3.28-1.64,4.92-2.27,0.63,1.26,1.38,2.65,2.01,3.91,1.77-0.63,3.66-1.13,5.3-1.89,0.25-0.25,0.25-0.88,0.25-1.39,0.26-0.88-0.25-2.14,0.89-2.27h3.53z" clip-path="url(#XMLID_3_)" fill-rule="evenodd" clip-rule="evenodd" fill="#0075bf"/>
</g></svg>
