<?xml version="1.0"?>
<svg xmlns="http://www.w3.org/2000/svg" viewBox="0 0 350 36.3" width="512" height="53">
<g transform="translate(233.15 384.106)" style="fill:#182E4D;">
 <rect x="-176.3" y="-382.7" width="10.1" height="33.4"/>
 <path d="M-199.3-349.2v-6.1h-23.8v6.1h-10.1v-20.1c0-9.3,6.4-14,19.1-14h5.8c12.7,0,19.1,4.7,19.1,14 v20.1L-199.3-349.2z M-214.1-375.9c-4.1,0-9,1.1-9,6.5v6.5h23.8v-6.5c0-5.4-4.9-6.5-9-6.5L-214.1-375.9z"/>
 <path d="M-46.9-349.2v-6.1h-23.8v6.1h-10.1v-20.1c0-9.3,6.4-14,19.1-14h5.8c12.7,0,19.1,4.7,19.1,14 v20.1L-46.9-349.2z M-61.7-375.9c-4.1,0-9,1.1-9,6.5v6.5h23.8v-6.5c0-5.4-4.9-6.5-9-6.5L-61.7-375.9z"/>
 <path d="M52-349.2v-6.1H28.3v6.1H18.2v-20.1c0-9.3,6.4-14,19.1-14H43c12.7,0,19.1,4.7,19.1,14v20.1 L52-349.2z M37.3-375.9c-4.1,0-9,1.1-9,6.5v6.5H52v-6.5c0-5.4-4.9-6.5-9-6.5L37.3-375.9z"/>
 <path d="M106.8-349.2v-20.1c0-5.4-4.9-6.5-9-6.5H92c-4.1,0-9,1.1-9,6.5v20.1H72.9v-20.1 c0-9.3,6.4-14,19.1-14h5.8c12.7,0,19.1,4.7,19.1,14v20.1L106.8-349.2z"/>
 <path d="M-29.1-349.2v-20.1c0-9.3,6.4-14,19.1-14h5.8c12.7,0,19.1,4.7,19.1,14s-6.4,14-19.1,14H-19 v6.1L-29.1-349.2z M-10-375.9c-4.1,0-9,1.1-9,6.5v6.5h14.8c4.1,0,9-1.1,9-6.5s-4.9-6.5-9-6.5H-10z"/>
</g>
<g transform="translate(308.249 383.386)" style="fill:#EB7B6F;">
 <path d="M-211.2-383.4c-14.6,0-22,5.9-22,17.4v17.4h10.1v-16.1c0-7,4.5-10.6,13.3-10.6 c3.6,0,7.3,0.4,10.8,1.4l2.2-7.5C-201.5-382.7-206.3-383.4-211.2-383.4z"/>
 <path d="M-184.5-347.1c14.6,0,22-5.9,22-17.4v-17.4h-10.1v16.1c0,7-4.5,10.6-13.3,10.6 c-3.6,0-7.3-0.4-10.8-1.4l-2.2,7.5C-194.3-347.7-189.4-347.1-184.5-347.1z"/>
</g>
</svg>
