<svg xmlns="http://www.w3.org/2000/svg" xmlns:xlink="http://www.w3.org/1999/xlink" width="133.075" height="49.903" viewBox="0 0 133.075 49.903"><defs><clipPath id="a"><rect width="133.075" height="49.903" fill="#fff"/></clipPath><clipPath id="b"><rect width="133.075" height="44.274" fill="#fff"/></clipPath></defs><g clip-path="url(#a)"><path d="M8.28,25.657l4.68-10.97L17.6,25.657ZM55.828,20.94c-4.606-.518-6.08-2.064-6.08-4.57A5.245,5.245,0,0,1,55.2,11a8.117,8.117,0,0,1,4,.885c1.363.847,1.512,1.214,1.622,2.209l.221,2.088h1.18A25.816,25.816,0,0,1,62.742,11a17.174,17.174,0,0,0-6.655-1.548c-4.422,0-9.436,2.614-9.436,8.316,0,.25.009.49.031.721a4.4,4.4,0,0,0-1.284-.207A4.152,4.152,0,0,0,42.3,19.8l-1.975,2.359h-.075V18.434l-.331-.149A20.786,20.786,0,0,1,34.174,19.8v1.031h1.36c.774,0,1.145.113,1.365.407a5.81,5.81,0,0,1,.258,2.285v8.292a7.542,7.542,0,0,1-.183,2.137c-.149.331-.581.493-1.253.545,0,0-.417.051-1.474.07-.565.013-1.539-.08-1.539-.08-.628-.037-1.041-.2-1.189-.535a7.488,7.488,0,0,1-.186-2.137V18.434L31,18.285A20.807,20.807,0,0,1,25.254,19.8v1.031h1.364c.774,0,1.141.113,1.363.407a5.805,5.805,0,0,1,.258,2.285v8.292a7.427,7.427,0,0,1-.186,2.137c-.147.331-.56.49-1.186.526,0,0-.26.022-.48.022a2.48,2.48,0,0,1-.36-.027c-.664-.073-1.068-.56-1.475-1.258-.441-.774-.833-1.768-1.165-2.5L14.47,9.786H13.291c-.995,2.654-2.248,5.381-3.39,7.947L3.353,32.659a2.632,2.632,0,0,1-1.989,1.806L0,34.574v1.1c1.4-.036,2.8-.109,4.24-.109,1.068,0,2.467.073,4.223.109v-1.1L7.1,34.464c-1.129-.109-1.753-.26-1.753-1.034A21.07,21.07,0,0,1,6.635,29.6l1.015-2.468H18.266l1.695,4.236a8.534,8.534,0,0,1,.774,2.361c0,.439-.736.7-1.511.736l-1.734.11v1.1c1.993-.036,3.613-.109,4.9-.109.945,0,3.846.053,4.028.046.292,0,2.454-.046,3.365-.046,1.672,0,4.148.109,4.459.1.341.008,2.787-.1,4.459-.1,1.8,0,3.268.073,5.183.109v-1.1l-1.915-.11c-.849-.036-1.388-.185-1.535-.516a7.427,7.427,0,0,1-.186-2.137V25.471c0-2.356,1.608-4.054,3.231-4.054a2.672,2.672,0,0,1,2.5,1.7h.774l.233-3.1c.83,2.332,3.211,3.543,7.728,4.06,3.745.446,6.471,1.438,6.471,4.937,0,3.65-3.265,5.676-6.582,5.676-2.912,0-5.824-1.4-6.008-2.949l-.3-2.469H47.13a33.16,33.16,0,0,1-.255,5.641,15.79,15.79,0,0,0,6.3,1.4c5.477,0,11.116-3.024,11.116-9.326,0-4.2-3.28-5.489-8.462-6.042M29.6,14.356a2.128,2.128,0,0,0,2.063-2.026A2.162,2.162,0,0,0,29.6,10.266a2.129,2.129,0,0,0-2.028,2.064A2.1,2.1,0,0,0,29.6,14.356" transform="translate(0 -1.624)" fill="#001A71"/><path d="M81.815,33.79a6.4,6.4,0,0,0,5.232,2.174c2.984,0,5.529-3.061,5.529-7.223,0-3.466-1.88-6.23-5.749-6.23A5.341,5.341,0,0,0,82,25.314a1.9,1.9,0,0,0-.185.993Zm-3.1-8.44a5.78,5.78,0,0,0-.258-2.286c-.222-.295-.589-.405-1.363-.405H75.734v-1.03a20.983,20.983,0,0,0,5.75-1.512l.331.147V23.73h.075l2.946-2.693a5.514,5.514,0,0,1,3.466-.92,7.4,7.4,0,0,1,7.481,7.518c0,2.433-1.991,6.119-3.208,6.891l-4.2,2.729a4.921,4.921,0,0,1-2.544.591,7.741,7.741,0,0,1-4.016-.923V43.86A7.467,7.467,0,0,0,82,46c.147.332.552.479,1.178.516l1.695.109V47.73c-1.326-.037-2.8-.11-4.605-.11s-3.279.073-4.606.11V46.623l1.7-.109c.626-.037,1.031-.184,1.179-.516a7.507,7.507,0,0,0,.184-2.138Z" transform="translate(-12.992 -3.454)" fill="#001A71"/></g><g clip-path="url(#b)"><path d="M149.762,21.661l.332-1.993-5.048.223v-1.4a43.228,43.228,0,0,1,.4-5.219l-.439-.4a13.555,13.555,0,0,1-3.134,1.4,26.036,26.036,0,0,1,.15,2.9v2.58l-2.878,1.287v.774l2.8-.144V32.273c0,2.987,1.659,3.909,3.613,3.909.774,0,2.064-.074,2.4-.443l1.768-1.951-.479-.629a4.22,4.22,0,0,1-2.176.7c-1.548,0-2.025-.851-2.025-2.544V21.661Zm-11.2,12.455a7.535,7.535,0,0,1-.184-2.137V24.867c0-4.016-1.768-6.413-6.051-6.413a3.885,3.885,0,0,0-2.986.923l-2.726,2.358h-.075V18.6l-.332-.149a20.791,20.791,0,0,1-5.748,1.511V21h1.363c.774,0,1.145.113,1.365.407a5.794,5.794,0,0,1,.258,2.285v8.292a7.543,7.543,0,0,1-.183,2.137c-.149.331-.586.485-1.176.53,0,0-.71.074-1.39.078-.6,0-1.39-.078-1.39-.078-.628-.037-1.057-.2-1.2-.53a7.5,7.5,0,0,1-.184-2.137V18.6l-.333-.149a21.062,21.062,0,0,1-5.573,1.493l.082-1.088a3.485,3.485,0,0,0-1.695-.405,4.146,4.146,0,0,0-3.094,1.511l-1.992,2.359h-.074V18.6l-.33-.149a20.866,20.866,0,0,1-5.722,1.511V21h1.363c.746,0,1.115.113,1.338.407a5.838,5.838,0,0,1,.256,2.285v8.292a7.5,7.5,0,0,1-.184,2.137c-.149.331-.552.48-1.174.516l-1.674.11v1.1c1.324-.036,2.776-.108,4.58-.108s3.281.073,5.2.108v-1.1l-1.916-.11c-.85-.036-1.4-.185-1.549-.516a7.489,7.489,0,0,1-.186-2.137V25.639c0-2.356,1.621-4.054,3.246-4.054a2.674,2.674,0,0,1,2.5,1.7h.771L111.931,21h1.264c.774,0,1.144.113,1.365.407a5.832,5.832,0,0,1,.257,2.285v8.292a7.442,7.442,0,0,1-.184,2.137c-.148.331-.552.48-1.179.516l-1.7.11v1.1c1.329-.036,2.8-.108,4.608-.108,1.559,0,3.964.1,4.317.1.335.009,2.752-.1,4.3-.1,1.807,0,3.282.073,4.574.108v-1.1l-1.659-.11c-.625-.036-1.032-.185-1.182-.516a7.637,7.637,0,0,1-.183-2.137V24.165c0-1.51,2.285-3.465,4.534-3.465,2.5,0,4.208,1.623,4.208,4.681V35.847c.851-.036,1.921-.108,2.95-.108s2.1.073,3.023.108v-1.1l-1.514-.11c-.625-.036-1.03-.185-1.179-.516M116.181,14.524a2.128,2.128,0,0,0,2.063-2.026,2.162,2.162,0,0,0-2.063-2.064,2.126,2.126,0,0,0-2.024,2.064,2.092,2.092,0,0,0,2.024,2.026" transform="translate(-17.018 -1.792)" fill="#001A71"/><path d="M59.295,1.954a62.9,62.9,0,0,1,19.246-.7A61.68,61.68,0,0,1,93.808,5.115,82.419,82.419,0,0,0,78.492,2.241a84.391,84.391,0,0,0-19.535.518A82.444,82.444,0,0,0,48.779,4.876,65.8,65.8,0,0,1,59.295,1.954m-.188-.8A60.535,60.535,0,0,0,40.712,7.675l.385.716A70.39,70.39,0,0,1,59.1,3.565,83.66,83.66,0,0,1,78.438,3.06a82.206,82.206,0,0,1,22.422,5.3c.144.054.884.334.972.37l.282-.721A63.737,63.737,0,0,0,59.107,1.157" transform="translate(-6.991 0)" fill="#0081C9"/></g><g clip-path="url(#a)"><path d="M10.045,49.642c1.048,0,1.4-.38,1.4-.857,0-.454-.4-.769-1.206-.769H7.5v1.626Zm-3.6-2.236h3.674c1.569,0,2.386.479,2.386,1.365s-.818,1.485-2.316,1.485H7.5v1.9H6.44Z" transform="translate(-1.106 -8.14)" fill="#0081C9"/><path d="M20.661,49.528c1.04,0,1.289-.419,1.289-.753,0-.451-.408-.76-1.257-.76H17.708v1.512Zm-4.012-2.122h4.414c1.427,0,1.946.658,1.946,1.266,0,.58-.419,1-1.2,1.171v.012a1.054,1.054,0,0,1,1.038,1.014c.064.885.1,1.1.34,1.29H22.071c-.17-.133-.17-.33-.22-.9-.07-.854-.5-1.113-1.377-1.113H17.708v2.017H16.649Z" transform="translate(-2.859 -8.14)" fill="#0081C9"/><rect width="1.059" height="4.751" transform="translate(23.214 39.266)" fill="#0081C9"/><path d="M38.656,47.406h1.138l-3.123,4.752h-1.13l-3.174-4.752h1.2l2.566,4.02Z" transform="translate(-5.558 -8.14)" fill="#0081C9"/><path d="M46.329,48.058l-1.336,2.1h2.7Zm1.758,2.718H44.592l-.909,1.383H42.546l3.224-4.752h1.209L50.2,52.159H48.994Z" transform="translate(-7.306 -8.141)" fill="#0081C9"/><path d="M55.955,48.018H53.262v-.611H59.71v.611h-2.7v4.14H55.955Z" transform="translate(-9.146 -8.14)" fill="#0081C9"/><path d="M64.146,47.406h5.73v.61H65.2V49.4h4.532v.615H65.2v1.537h4.773v.61h-5.83Z" transform="translate(-11.015 -8.14)" fill="#0081C9"/><path d="M95.2,48.058l-1.337,2.1h2.7Zm1.754,2.718H93.457l-.909,1.383H91.411l3.225-4.752h1.21l3.224,4.752H97.861Z" transform="translate(-15.697 -8.141)" fill="#0081C9"/><path d="M106.1,47.406h1.137l-3.125,4.752h-1.129l-3.172-4.752h1.2l2.564,4.02Z" transform="translate(-17.14 -8.14)" fill="#0081C9"/><rect width="1.061" height="4.751" transform="translate(91.155 39.266)" fill="#0081C9"/><path d="M116.367,48.058l-1.339,2.1h2.708Zm1.758,2.718h-3.5l-.909,1.383h-1.138l3.225-4.752h1.208l3.226,4.752h-1.211Z" transform="translate(-19.332 -8.141)" fill="#0081C9"/><path d="M124.319,48.018h-2.7v-.611h6.45v.611h-2.694v4.14h-1.06Z" transform="translate(-20.885 -8.14)" fill="#0081C9"/><rect width="1.056" height="4.751" transform="translate(108.457 39.266)" fill="#0081C9"/><path d="M138.146,47.873c-1.628,0-2.906.626-2.906,1.885s1.278,1.883,2.906,1.883,2.906-.625,2.906-1.883-1.279-1.885-2.906-1.885m0-.611c2.867,0,3.963,1.277,3.963,2.5s-1.1,2.5-3.963,2.5-3.963-1.277-3.963-2.5,1.1-2.5,3.963-2.5" transform="translate(-23.041 -8.116)" fill="#0081C9"/><path d="M146.736,48.38h-.019v3.778h-1.058V47.405h1.228l4.583,3.781h.017V47.405h1.06v4.753H151.32Z" transform="translate(-25.012 -8.14)" fill="#0081C9"/></g></svg>
