<?xml version="1.0" encoding="UTF-8"?>
<svg enable-background="new 0 0 140.833 55.5" height="55.5" viewBox="0 0 140.833 55.5" width="140.833" xmlns="http://www.w3.org/2000/svg">
   <rect fill="#226690" height="56.313" width="141.773" x="-.375" y="-.217"/>
   <rect fill="#fff" height="16.113" width="7.52" x="44.438" y="18.227"/>
   <path d="m71.41 22.68c-.838-.188-1.675-.188-2.557-.188-3.507 0-5.467 1.891-5.467 5.043v6.805h-7.521v-16.113h6.85v2.969h.085c1.292-2.045 3.17-3.34 6.434-3.34.873 0 1.793.088 2.551.183z" fill="#fff"/>
   <path d="m67.564 18.227h4.438v-5.35l7.386.028v5.322h5.266v3.896h-5.266v5.94c0 1.947.627 2.937 3.012 2.937.75 0 1.541-.123 2.297-.213l.248 3.618c-1.42.123-2.844.304-4.721.304-6.719 0-8.348-2.191-8.348-6.027v-6.559h-4.312z" fill="#fff"/>
   <path d="m92.953 27.908c.41 2.225 2.713 3.092 6.38 3.092 2.051 0 4.389-.34 6.645-1.236v3.93c-2.42.711-5.183 1.015-7.978 1.015-7.183 0-12.653-3.119-12.653-8.439 0-5.324 4.887-8.414 11.651-8.414 8.063 0 10.983 4.234 10.983 9.031v1.021zm8.261-3.156c0-1.857-1.166-3.375-4.175-3.375-2.716 0-4.009 1.518-4.181 3.375z" fill="#fff"/>
   <polygon fill="#fff" points="114.75 26.147 107.947 18.227 116.841 18.227 120.052 23.051 123.439 18.227 131.671 18.227 124.857 26.082 132.123 34.34 123.064 34.34 119.431 29.33 115.839 34.34 107.361 34.34"/>
   <path d="m20.794 34.444c0 0 2.774-11.934 14.397-14.901l-3.619-6.791-7.951.002-11.996 21.545z" fill="#fff"/>
   <path d="m28.534 23.063l6.08 11.201 8.827.047-8.508-15.524c-2.016 1.338-4.899 3.012-6.399 4.276" fill="#fff"/>
   <path d="m49.446 8.592c-.896.375-1.746.822-2.635 1.147-24.224 8.857-35.291 24.654-35.291 24.654s6.117.035 9.363.051c0 0 7.626-11.764 26.689-23.19.78-.471 2.456-1.578 2.456-1.578s.391-1.494-.582-1.084" fill="#f9a034"/>
   <polygon fill="#fff" points="47.838 15.408 42.604 7.053 53.309 7.053"/>
   <path d="m24.632 49.111h-1.371l-.548-1.646h-2.507l-.518 1.646h-1.344l2.438-7.271h1.339zm-2.326-2.877l-.864-2.697-.849 2.697z" fill="#fff"/>
   <path d="m35.423 49.111l-2.241-7.271h1.37l1.586 5.38 1.534-5.38h1.344l-2.246 7.271z" fill="#fff"/>
   <path d="m48.781 49.111v-7.271h1.261v7.271z" fill="#fff"/>
   <path d="m66.056 49.111h-1.371l-.548-1.646h-2.507l-.518 1.646h-1.344l2.438-7.271h1.339zm-2.326-2.877l-.864-2.697-.849 2.697z" fill="#fff"/>
   <path d="m76.654 49.111v-6.041h-1.859v-1.23h4.975v1.23h-1.854v6.041z" fill="#fff"/>
   <path d="m89.716 49.111v-7.271h1.26v7.271z" fill="#fff"/>
   <path d="m101.083 45.521c0-.866.135-1.579.404-2.14.27-.561.621-.978 1.055-1.252s.961-.412 1.578-.412c.896 0 1.627.326 2.191.977.564.651.846 1.579.846 2.782 0 1.217-.299 2.167-.896 2.852-.524.604-1.236.907-2.136.907-.906 0-1.622-.299-2.146-.896-.597-.687-.896-1.625-.896-2.818zm1.303-.05c0 .836.167 1.464.501 1.882.334.419.747.628 1.241.628.498 0 .91-.208 1.236-.623.328-.414.491-1.052.491-1.912 0-.842-.159-1.466-.478-1.869s-.734-.605-1.25-.605c-.514 0-.934.204-1.257.61-.322.406-.484 1.035-.484 1.889z" fill="#fff"/>
   <path d="m117.318 49.111v-7.271h1.229l2.563 4.855v-4.855h1.177v7.271h-1.271l-2.521-4.742v4.742z" fill="#fff"/>
</svg>
