<?xml version="1.0" encoding="UTF-8" standalone="no"?>
<!-- Created with Inkscape (http://www.inkscape.org/) -->
<svg
   xmlns:svg="http://www.w3.org/2000/svg"
   xmlns="http://www.w3.org/2000/svg"
   version="1.0"
   width="1133.8583"
   height="242.3622"
   id="svg2">
  <defs
     id="defs4">
    <clipPath
       id="clipPath2438">
      <path
         d="M 0.177,841 L 594.824,841 L 594.824,0 L 0.177,0 L 0.177,841 z"
         id="path2440" />
    </clipPath>
    <clipPath
       id="clipPath2554">
      <path
         d="M 0,0 L 595.276,0 L 595.276,813.543 L 0,813.543 L 0,0 z"
         id="path2556" />
    </clipPath>
    <clipPath
       id="clipPath2914">
      <path
         d="M 0.06,898.62 L 652.02,898.62 L 652.02,0.06 L 0.06,0.06 L 0.06,898.62 z"
         id="path2916" />
    </clipPath>
    <clipPath
       id="clipPath2906">
      <path
         d="M 0,898.583 L 651.968,898.583 L 651.968,0.001 L 0,0.001 L 0,898.583 z"
         id="path2908" />
    </clipPath>
    <clipPath
       id="clipPath2898">
      <path
         d="M 453.543,878.741 L 632.126,878.741 L 632.126,813.544 L 453.543,813.544 L 453.543,878.741 z"
         id="path2900" />
    </clipPath>
    <clipPath
       id="clipPath2886">
      <path
         d="M 494.875,851.635 C 494.814,851.55 488.749,843.051 488.258,842.396 L 487.821,841.794 C 486.811,840.382 485.857,839.048 483.893,839.048 C 481.97,839.048 480.359,840.634 480.303,842.584 C 480.275,843.51 480.659,844.443 481.354,845.145 C 482.044,845.842 482.966,846.232 483.885,846.214 C 484.728,846.198 486.276,845.905 487.18,844.125 L 487.203,844.085 L 487.411,843.722 L 487.856,844.372 L 487.858,844.375 L 490.511,848.237 L 490.511,848.237 L 491,848.948 C 489.376,850.482 486.478,852.115 483.889,852.115 C 478.658,852.115 474.403,847.86 474.403,842.63 C 474.403,837.399 478.658,833.144 483.889,833.144 C 489.507,833.144 493.922,837.031 496.755,839.956 C 498.981,842.254 505.257,849.481 505.32,849.554 L 505.316,849.557 C 505.869,850.244 505.73,850.789 505.637,851.001 C 505.47,851.384 505.088,851.623 504.636,851.632 L 504.636,851.634 L 504.614,851.634 C 504.613,851.634 504.612,851.634 504.61,851.634 L 504.61,851.634 L 494.886,851.636 L 494.875,851.635"
         id="path2888" />
    </clipPath>
    <clipPath
       id="clipPath2874">
      <path
         d="M 0.06,898.62 L 652.02,898.62 L 652.02,0.06 L 0.06,0.06 L 0.06,898.62 z"
         id="path2876" />
    </clipPath>
    <clipPath
       id="clipPath2866">
      <path
         d="M 0,898.583 L 651.968,898.583 L 651.968,0.001 L 0,0.001 L 0,898.583 z"
         id="path2868" />
    </clipPath>
    <clipPath
       id="clipPath2858">
      <path
         d="M 453.543,878.741 L 632.126,878.741 L 632.126,813.544 L 453.543,813.544 L 453.543,878.741 z"
         id="path2860" />
    </clipPath>
    <clipPath
       id="clipPath2846">
      <path
         d="M 473.03,843.381 C 472.887,846.171 474.505,849.349 476.807,850.833 L 478.262,851.684 C 478.262,851.684 476.56,851.681 476.542,851.681 L 469.594,851.681 C 468.952,851.681 468.623,851.423 468.461,851.207 C 468.113,850.743 468.265,850.172 468.284,850.109 C 468.457,849.516 471.462,844.447 472.062,843.437 C 472.068,843.427 472.074,843.421 472.08,843.412 L 473.084,841.727 L 473.026,843.381 L 473.03,843.381"
         id="path2848" />
    </clipPath>
    <clipPath
       id="clipPath2832">
      <path
         d="M 0.06,898.62 L 652.02,898.62 L 652.02,0.06 L 0.06,0.06 L 0.06,898.62 z"
         id="path2834" />
    </clipPath>
    <clipPath
       id="clipPath2824">
      <path
         d="M 0,898.583 L 651.968,898.583 L 651.968,0.001 L 0,0.001 L 0,898.583 z"
         id="path2826" />
    </clipPath>
    <clipPath
       id="clipPath2816">
      <path
         d="M 453.543,878.741 L 632.126,878.741 L 632.126,813.544 L 453.543,813.544 L 453.543,878.741 z"
         id="path2818" />
    </clipPath>
    <clipPath
       id="clipPath2806">
      <path
         d="M 0.06,898.62 L 652.02,898.62 L 652.02,0.06 L 0.06,0.06 L 0.06,898.62 z"
         id="path2808" />
    </clipPath>
    <clipPath
       id="clipPath2798">
      <path
         d="M 0,898.583 L 651.968,898.583 L 651.968,0.001 L 0,0.001 L 0,898.583 z"
         id="path2800" />
    </clipPath>
    <clipPath
       id="clipPath4435">
      <path
         d="M 0,0 L 595.276,0 L 595.276,793.701 L 0,793.701 L 0,0 z"
         id="path4437" />
    </clipPath>
    <clipPath
       id="clipPath4411">
      <path
         d="M 0,0 L 595.276,0 L 595.276,793.701 L 0,793.701 L 0,0 z"
         id="path4413" />
    </clipPath>
    <clipPath
       id="clipPath4373">
      <path
         d="M 0,0 L 595.276,0 L 595.276,793.701 L 0,793.701 L 0,0 z"
         id="path4375" />
    </clipPath>
    <clipPath
       id="clipPath4345">
      <path
         d="M 484.816,444.374 L 513.072,444.374 L 513.072,472.629 L 484.816,472.629 L 484.816,444.374 z"
         id="path4347" />
    </clipPath>
    <clipPath
       id="clipPath4301">
      <path
         d="M 0,0 L 595.276,0 L 595.276,793.701 L 0,793.701 L 0,0 z"
         id="path4303" />
    </clipPath>
    <clipPath
       id="clipPath4279">
      <path
         d="M 0,0 L 595.276,0 L 595.276,793.701 L 0,793.701 L 0,0 z"
         id="path4281" />
    </clipPath>
    <clipPath
       id="clipPath4065">
      <path
         d="M 463.465,126.802 L 537.165,126.802 L 537.165,149.309 L 463.465,149.309 L 463.465,126.802 z"
         id="path4067" />
    </clipPath>
    <clipPath
       id="clipPath3955">
      <path
         d="M 461.338,154.978 L 537.874,154.978 L 537.874,176.736 L 461.338,176.736 L 461.338,154.978 z"
         id="path3957" />
    </clipPath>
    <clipPath
       id="clipPath3939">
      <path
         d="M 461.338,154.978 L 537.72,154.978 L 537.72,176.736 L 461.338,176.736 L 461.338,154.978 z"
         id="path3941" />
    </clipPath>
    <clipPath
       id="clipPath3923">
      <path
         d="M 461.338,154.978 L 537.874,154.978 L 537.874,176.736 L 461.338,176.736 L 461.338,154.978 z"
         id="path3925" />
    </clipPath>
    <clipPath
       id="clipPath3907">
      <path
         d="M 458.508,185.182 L 541.091,185.182 L 541.091,197.857 L 458.508,197.857 L 458.508,185.182 z"
         id="path3909" />
    </clipPath>
    <clipPath
       id="clipPath3839">
      <path
         d="M 463.465,241.306 L 537.165,241.306 L 537.165,261.165 L 463.465,261.165 L 463.465,241.306 z"
         id="path3841" />
    </clipPath>
    <clipPath
       id="clipPath3815">
      <path
         d="M 463.465,241.342 L 537.091,241.342 L 537.091,261.165 L 463.465,261.165 L 463.465,241.342 z"
         id="path3817" />
    </clipPath>
    <clipPath
       id="clipPath3775">
      <path
         d="M 463.465,241.306 L 537.165,241.306 L 537.165,261.165 L 463.465,261.165 L 463.465,241.306 z"
         id="path3777" />
    </clipPath>
    <clipPath
       id="clipPath3763">
      <path
         d="M 463.465,241.342 L 537.091,241.342 L 537.091,261.165 L 463.465,261.165 L 463.465,241.342 z"
         id="path3765" />
    </clipPath>
    <clipPath
       id="clipPath3751">
      <path
         d="M 469.134,269.8 L 531.141,269.8 L 531.141,294.472 L 469.134,294.472 L 469.134,269.8 z"
         id="path3753" />
    </clipPath>
    <clipPath
       id="clipPath3731">
      <path
         d="M 469.134,269.949 L 531.141,269.949 L 531.141,294.472 L 469.134,294.472 L 469.134,269.949 z"
         id="path3733" />
    </clipPath>
    <clipPath
       id="clipPath3675">
      <path
         d="M 469.134,269.8 L 531.141,269.8 L 531.141,294.472 L 469.134,294.472 L 469.134,269.8 z"
         id="path3677" />
    </clipPath>
    <clipPath
       id="clipPath3647">
      <path
         d="M 456.236,295.261 L 540.023,295.261 L 540.023,320.975 L 456.236,320.975 L 456.236,295.261 z"
         id="path3649" />
    </clipPath>
    <clipPath
       id="clipPath3541">
      <path
         d="M 457.795,365.766 L 551.922,365.766 L 551.922,387.589 L 457.795,387.589 L 457.795,365.766 z"
         id="path3543" />
    </clipPath>
    <clipPath
       id="clipPath3513">
      <path
         d="M 460.499,418.137 L 536.812,418.137 L 536.812,449.007 L 460.499,449.007 L 460.499,418.137 z"
         id="path3515" />
    </clipPath>
    <clipPath
       id="clipPath3431">
      <path
         d="M 455.669,500.347 L 545.792,500.347 L 545.792,524.219 L 455.669,524.219 L 455.669,500.347 z"
         id="path3433" />
    </clipPath>
    <clipPath
       id="clipPath3407">
      <path
         d="M 457.795,576.828 L 543.236,576.828 L 543.236,607.442 L 457.795,607.442 L 457.795,576.828 z"
         id="path3409" />
    </clipPath>
    <clipPath
       id="clipPath3379">
      <path
         d="M 440.433,643.347 L 553.33,643.347 L 553.33,671.621 L 440.433,671.621 L 440.433,643.347 z"
         id="path3381" />
    </clipPath>
    <clipPath
       id="clipPath3363">
      <path
         d="M 0,0 L 595.276,0 L 595.276,793.701 L 0,793.701 L 0,0 z"
         id="path3365" />
    </clipPath>
    <clipPath
       id="clipPath3349">
      <path
         d="M 0,0 L 595.276,0 L 595.276,793.701 L 0,793.701 L 0,0 z"
         id="path3351" />
    </clipPath>
    <clipPath
       id="clipPath3323">
      <path
         d="M 0,0 L 595.276,0 L 595.276,793.701 L 0,793.701 L 0,0 z"
         id="path3325" />
    </clipPath>
    <clipPath
       id="clipPath3309">
      <path
         d="M 0,0 L 595.276,0 L 595.276,793.701 L 0,793.701 L 0,0 z"
         id="path3311" />
    </clipPath>
  </defs>
  <g
     transform="translate(-1093.1962,-24.917341)"
     id="layer1">
    <g
       transform="matrix(10.262275,0,0,10.262275,-10090.057,-1785.1989)"
       id="g5713">
      <path
         d="M 1169.1342,183.77975 L 1166.658,196.18225 L 1162.6342,196.18225 L 1165.1092,183.77975 L 1169.1342,183.77975 z"
         id="path4405"
         style="fill:#f9b41d;fill-opacity:1;fill-rule:nonzero;stroke:none" />
      <path
         d="M 1132.5749,183.965 C 1132.5749,185.24 1132.2024,186.35875 1131.4599,187.26125 C 1130.7174,188.19375 1129.7261,188.84625 1128.5499,189.2825 L 1132.3887,196.275 L 1127.5286,196.275 L 1125.9187,192.94875 L 1125.9187,187.23 C 1126.6312,187.16875 1127.1874,186.98125 1127.6212,186.63875 C 1128.1787,186.1725 1128.4574,185.52125 1128.4574,184.6825 C 1128.4574,183.965 1128.2712,183.5 1127.8999,183.22 C 1127.5286,182.94125 1126.9712,182.8475 1126.1662,182.8475 L 1125.9187,182.8475 L 1125.9187,179.83125 L 1126.8787,179.83125 C 1128.7049,179.83125 1130.0974,180.205 1131.0887,180.82625 C 1132.0162,181.47875 1132.5749,182.5675 1132.5749,183.965 M 1125.9187,192.94875 L 1124.5874,190.215 L 1122.7612,190.215 L 1121.5849,196.275 L 1117.7462,196.275 L 1121.1199,179.83125 L 1125.9187,179.83125 L 1125.9187,182.8475 L 1124.3399,182.8475 L 1123.4112,187.26125 L 1125.2374,187.26125 C 1125.4849,187.26125 1125.7012,187.26125 1125.9187,187.23 L 1125.9187,192.94875 z"
         id="path4417"
         style="fill:#0072ba;fill-opacity:1;fill-rule:nonzero;stroke:none" />
      <path
         d="M 1182.6011,188.37975 C 1182.6011,189.46725 1182.4149,190.58725 1182.0448,191.48975 C 1181.7649,192.51475 1181.2074,193.32225 1180.6811,194.06975 C 1180.0311,194.81475 1179.2886,195.3435 1178.3899,195.71725 C 1177.8336,196.02725 1177.2149,196.2135 1176.5636,196.306 L 1176.5636,193.6335 C 1176.7511,193.57225 1176.9049,193.47725 1177.0899,193.32225 C 1177.4624,193.07475 1177.8336,192.7935 1178.1124,192.3285 C 1178.3899,191.76975 1178.5761,191.2085 1178.7311,190.681 C 1178.9174,190.02725 1179.0099,189.376 1179.0099,188.4735 C 1179.0099,187.7285 1178.8236,187.1685 1178.5761,186.79475 C 1178.2986,186.45225 1177.8336,186.17225 1177.1849,186.17225 C 1176.9661,186.17225 1176.7511,186.20475 1176.5636,186.266 L 1176.5636,183.656 C 1176.8736,183.6235 1177.2149,183.59225 1177.5548,183.59225 C 1179.1961,183.59225 1180.4961,183.96475 1181.3011,184.8685 C 1182.1361,185.706 1182.6011,186.8885 1182.6011,188.37975 M 1176.5636,196.306 C 1176.1924,196.3385 1175.8211,196.3685 1175.4499,196.3685 C 1173.9024,196.3685 1172.6011,195.9035 1171.7961,195.09475 C 1170.8673,194.256 1170.4974,193.07475 1170.4974,191.48975 C 1170.4974,190.401 1170.5899,189.376 1170.9599,188.4735 C 1171.2399,187.4485 1171.7961,186.6385 1172.3536,185.8935 C 1172.9724,185.1485 1173.7161,184.6185 1174.6149,184.246 C 1175.2649,183.93475 1175.8836,183.7485 1176.5636,183.656 L 1176.5636,186.266 C 1176.3161,186.3585 1176.0986,186.4835 1175.9149,186.6385 C 1175.5424,186.8885 1175.1711,187.26225 1174.8924,187.7285 C 1174.6149,188.1935 1174.4586,188.75225 1174.2736,189.376 C 1174.1811,190.02725 1174.0874,190.7735 1174.0874,191.396 C 1174.0874,192.23475 1174.2736,192.8885 1174.5224,193.22975 C 1174.8924,193.50975 1175.3561,193.696 1175.9149,193.696 C 1176.1311,193.696 1176.3474,193.666 1176.5636,193.6335 L 1176.5636,196.306 z"
         id="path4421"
         style="fill:#f9b41d;fill-opacity:1;fill-rule:nonzero;stroke:none" />
      <path
         d="M 1108.3968,196.27513 L 1104.6506,196.27513 L 1104.2793,192.88888 L 1102.1743,192.88888 L 1102.1743,189.93513 L 1104.0005,189.93513 L 1103.3818,184.05888 L 1102.1743,186.35888 L 1102.1743,179.83138 L 1106.3855,179.83138 L 1108.3968,196.27513 z M 1102.1743,192.88888 L 1098.893,192.88888 L 1097.1593,196.27513 L 1093.1968,196.27513 L 1101.9893,179.83138 L 1102.1743,179.83138 L 1102.1743,186.35888 L 1100.3481,189.93513 L 1102.1743,189.93513 L 1102.1743,192.88888 z"
         id="path4425"
         style="fill:#0072ba;fill-opacity:1;fill-rule:nonzero;stroke:none" />
      <path
         d="M 1116.9099,183.87376 L 1114.5262,196.27501 L 1110.4087,196.27501 L 1112.8849,183.87376 L 1116.9099,183.87376 z"
         id="path4429"
         style="fill:#0072ba;fill-opacity:1;fill-rule:nonzero;stroke:none" />
      <path
         d="M 1149.0439,179.8315 L 1146.9376,190.1215 C 1146.4739,192.329 1145.6376,193.97525 1144.4614,195.09525 C 1143.3476,196.09025 1141.6126,196.5565 1139.5089,196.5565 C 1137.4964,196.5565 1136.0414,196.18275 1135.1126,195.4365 C 1134.1214,194.62775 1133.5651,193.41525 1133.5651,191.8615 C 1133.5651,191.5815 1133.5651,191.20775 1133.6576,190.96025 C 1133.6576,190.5865 1133.7501,190.30775 1133.8426,190.02775 L 1135.9489,179.8315 L 1139.7864,179.8315 L 1137.6814,190.02775 C 1137.5901,190.21525 1137.5901,190.494 1137.4964,190.68025 L 1137.4964,191.30275 C 1137.4964,191.95525 1137.6814,192.514 1138.0539,192.889 C 1138.4251,193.229 1139.0439,193.41525 1139.8801,193.41525 C 1140.7151,193.41525 1141.4276,193.1365 1141.8927,192.60775 C 1142.4489,192.1415 1142.8214,191.30275 1143.1001,190.21525 L 1145.2039,179.8315 L 1149.0439,179.8315 z"
         id="path4441"
         style="fill:#f9b41d;fill-opacity:1;fill-rule:nonzero;stroke:none" />
      <path
         d="M 1161.2717,186.63887 C 1161.2717,186.88762 1161.178,187.07387 1161.178,187.35387 C 1161.178,187.63387 1161.0855,187.91387 1161.0855,188.19387 L 1159.4454,196.27512 L 1155.7917,196.27512 L 1157.0617,190.12137 C 1157.1529,189.65387 1157.2467,189.28262 1157.2467,188.90762 C 1157.3392,188.65887 1157.3392,188.28637 1157.3392,188.00762 C 1157.3392,187.54137 1157.2467,187.16762 1157.0617,186.98137 C 1156.783,186.73262 1156.443,186.63887 1155.8842,186.63887 C 1155.6367,186.63887 1155.2655,186.73262 1154.8942,186.88762 C 1154.523,186.98137 1154.058,187.16762 1153.6242,187.44887 L 1151.8604,196.27512 L 1148.3004,196.27512 L 1150.8692,183.87387 L 1154.4305,183.87387 L 1154.058,185.24012 C 1154.8017,184.68137 1155.5442,184.24637 1156.0704,183.96512 C 1156.6892,183.68637 1157.3392,183.50012 1158.053,183.50012 C 1159.0729,183.50012 1159.8167,183.78012 1160.4367,184.33887 C 1160.993,184.86762 1161.2717,185.61387 1161.2717,186.63887"
         id="path4445"
         style="fill:#f9b41d;fill-opacity:1;fill-rule:nonzero;stroke:none" />
      <path
         d="M 1196.7793,186.63887 C 1196.7793,186.88762 1196.7793,187.07387 1196.6855,187.35387 C 1196.6855,187.63387 1196.6855,187.91387 1196.593,188.19387 L 1194.9518,196.27512 L 1191.3618,196.27512 L 1192.5693,190.12137 C 1192.663,189.65387 1192.7543,189.28262 1192.8468,188.90762 C 1192.8468,188.65887 1192.9406,188.28637 1192.9406,188.00762 C 1192.9406,187.54137 1192.7543,187.16762 1192.5693,186.98137 C 1192.383,186.73262 1191.918,186.63887 1191.3618,186.63887 C 1191.113,186.63887 1190.7418,186.73262 1190.3718,186.88762 C 1189.9993,186.98137 1189.6281,187.16762 1189.163,187.44887 L 1187.338,196.27512 L 1183.7768,196.27512 L 1186.3468,183.87387 L 1189.9068,183.87387 L 1189.6281,185.24012 C 1190.3718,184.68137 1191.0205,184.24637 1191.6405,183.96512 C 1192.198,183.68637 1192.8468,183.50012 1193.5605,183.50012 C 1194.5805,183.50012 1195.418,183.78012 1195.943,184.33887 C 1196.5005,184.86762 1196.7793,185.61387 1196.7793,186.63887"
         id="path4449"
         style="fill:#f9b41d;fill-opacity:1;fill-rule:nonzero;stroke:none" />
    </g>
  </g>
</svg>
