<?xml version="1.0" encoding="UTF-8" standalone="no"?>
<svg
   xmlns:dc="http://purl.org/dc/elements/1.1/"
   xmlns:cc="http://creativecommons.org/ns#"
   xmlns:rdf="http://www.w3.org/1999/02/22-rdf-syntax-ns#"
   xmlns:svg="http://www.w3.org/2000/svg"
   xmlns="http://www.w3.org/2000/svg"
   width="500"
   height="180"
   viewBox="0 0 132.29166 47.625001"
   version="1.1"
   id="svg1053">
  <defs
     id="defs1047" />
  <metadata
     id="metadata1050">
    <rdf:RDF>
      <cc:Work
         rdf:about="">
        <dc:format>image/svg+xml</dc:format>
        <dc:type
           rdf:resource="http://purl.org/dc/dcmitype/StillImage" />
        <dc:title></dc:title>
      </cc:Work>
    </rdf:RDF>
  </metadata>
  <g
     id="layer1">
    <circle
       style="fill:#09337f;fill-opacity:1;stroke:#09337f;stroke-width:0.202993;stroke-linecap:round;stroke-linejoin:round;stroke-opacity:1"
       id="path1003"
       cx="23.823248"
       cy="23.808708"
       r="23.154678" />
    <g
       aria-label="Airlines"
       transform="matrix(1.432234,0,0,1.432234,-619.30755,1151.5341)"
       id="text975"
       style="font-style:italic;font-variant:normal;font-weight:normal;font-stretch:normal;font-size:16.2326px;line-height:1.25;font-family:'Franklin Gothic Medium';-inkscape-font-specification:'Franklin Gothic Medium, Italic';fill:#09337f;fill-opacity:1;stroke-width:0.405816">
      <path
         d="m 477.677,-773.31006 h -2.16382 l -0.44386,-2.6156 h -3.92341 l -1.20476,2.6156 h -1.83092 l 5.18365,-10.81909 h 2.4016 z m -2.78998,-4.12156 -0.84809,-4.8032 -2.22723,4.8032 z"
         style="font-style:italic;font-variant:normal;font-weight:normal;font-stretch:normal;font-family:'Franklin Gothic Medium';-inkscape-font-specification:'Franklin Gothic Medium, Italic';fill:#09337f;fill-opacity:1;stroke-width:0.405816"
         id="path1687" />
      <path
         d="m 482.12352,-782.30615 h -1.86262 l 0.32497,-1.93396 h 1.86262 z m -1.50595,8.99609 h -1.86263 l 1.34744,-8.06082 h 1.86262 z"
         style="font-style:italic;font-variant:normal;font-weight:normal;font-stretch:normal;font-family:'Franklin Gothic Medium';-inkscape-font-specification:'Franklin Gothic Medium, Italic';fill:#09337f;fill-opacity:1;stroke-width:0.405816"
         id="path1689" />
      <path
         d="m 484.55683,-773.31006 h -1.77544 l 1.34743,-8.06082 h 1.63277 l -0.3646,2.19553 q 1.03832,-2.41746 2.78998,-2.41746 0.0713,0 0.214,0.008 l -0.22985,1.98152 q -0.26156,-0.0159 -0.39631,-0.0159 -0.65786,0 -1.24439,0.34874 -0.5786,0.34875 -0.9115,0.94321 -0.32497,0.58653 -0.5469,1.93396 z"
         style="font-style:italic;font-variant:normal;font-weight:normal;font-stretch:normal;font-family:'Franklin Gothic Medium';-inkscape-font-specification:'Franklin Gothic Medium, Italic';fill:#09337f;fill-opacity:1;stroke-width:0.405816"
         id="path1691" />
      <path
         d="m 490.27945,-773.31006 h -1.86262 l 1.80714,-10.81909 h 1.86263 z"
         style="font-style:italic;font-variant:normal;font-weight:normal;font-stretch:normal;font-family:'Franklin Gothic Medium';-inkscape-font-specification:'Franklin Gothic Medium, Italic';fill:#09337f;fill-opacity:1;stroke-width:0.405816"
         id="path1693" />
      <path
         d="m 495.81185,-782.30615 h -1.86262 l 0.32497,-1.93396 h 1.86262 z m -1.50595,8.99609 h -1.86263 l 1.34743,-8.06082 h 1.86263 z"
         style="font-style:italic;font-variant:normal;font-weight:normal;font-stretch:normal;font-family:'Franklin Gothic Medium';-inkscape-font-specification:'Franklin Gothic Medium, Italic';fill:#09337f;fill-opacity:1;stroke-width:0.405816"
         id="path1695" />
      <path
         d="m 503.02458,-773.31006 h -1.77544 l 0.82431,-4.84283 q 0.0872,-0.5469 0.0872,-0.93528 0,-0.44386 -0.25364,-0.74505 -0.2457,-0.30911 -0.75297,-0.30911 -0.80846,0 -1.4267,0.82431 -0.61823,0.81638 -0.87186,2.37782 l -0.61031,3.63014 h -1.77544 l 1.34743,-8.06082 h 1.64862 l -0.31704,1.87848 q 0.75298,-1.41084 1.39499,-1.75166 0.64201,-0.34875 1.25232,-0.34875 0.87979,0 1.52181,0.60239 0.64993,0.59445 0.64993,1.66447 0,0.42008 -0.15852,1.33951 z"
         style="font-style:italic;font-variant:normal;font-weight:normal;font-stretch:normal;font-family:'Franklin Gothic Medium';-inkscape-font-specification:'Franklin Gothic Medium, Italic';fill:#09337f;fill-opacity:1;stroke-width:0.405816"
         id="path1697" />
      <path
         d="m 512.2426,-775.58484 q -1.10965,2.47293 -3.51917,2.47293 -1.58522,0 -2.49672,-0.9749 -0.90357,-0.97491 -0.90357,-2.59183 0,-2.06078 1.14136,-3.47955 1.14928,-1.41876 2.94849,-1.41876 1.61692,0 2.44124,1.02246 0.83223,1.02246 0.83223,2.78998 0,0.29326 -0.0238,0.63408 h -5.54032 q -0.0555,0.34082 -0.0555,0.60239 0,0.91149 0.43593,1.46632 0.44386,0.55482 1.25232,0.55482 1.25232,0 1.90226,-1.49802 z m -1.23646,-2.69487 q 0,-2.04492 -1.58522,-2.04492 -1.6407,0 -2.10834,2.04492 z"
         style="font-style:italic;font-variant:normal;font-weight:normal;font-stretch:normal;font-family:'Franklin Gothic Medium';-inkscape-font-specification:'Franklin Gothic Medium, Italic';fill:#09337f;fill-opacity:1;stroke-width:0.405816"
         id="path1699" />
      <path
         d="m 514.64421,-775.67995 q 0.46763,1.20476 1.91018,1.20476 0.72127,0 1.13343,-0.29327 0.42008,-0.30119 0.42008,-0.7609 0,-0.34082 -0.28534,-0.53897 -0.27741,-0.19815 -0.95113,-0.38838 -1.08587,-0.30119 -1.60899,-0.55483 -0.52312,-0.25363 -0.87979,-0.77675 -0.35668,-0.52312 -0.35668,-1.19684 0,-1.05417 0.80054,-1.83092 0.80053,-0.78468 2.25893,-0.78468 2.36989,0 3.32895,1.90226 l -1.52973,0.49141 q -0.53105,-1.05417 -1.75167,-1.05417 -0.5469,0 -0.92735,0.25364 -0.38045,0.25363 -0.38045,0.68164 0,0.30119 0.1823,0.49934 0.19023,0.19816 0.75298,0.35668 1.28402,0.38045 1.90226,0.66579 0.62616,0.27741 0.98283,0.80053 0.3646,0.5152 0.3646,1.18891 0,1.14136 -0.8798,1.91019 -0.87186,0.76883 -2.59182,0.76883 -2.75035,0 -3.59051,-2.13212 z"
         style="font-style:italic;font-variant:normal;font-weight:normal;font-stretch:normal;font-family:'Franklin Gothic Medium';-inkscape-font-specification:'Franklin Gothic Medium, Italic';fill:#09337f;fill-opacity:1;stroke-width:0.405816"
         id="path1701" />
    </g>
    <g
       aria-label="AIS"
       transform="matrix(1.432234,0,0,1.432234,-619.30755,1151.5341)"
       id="text975-4"
       style="font-style:italic;font-variant:normal;font-weight:normal;font-stretch:normal;font-size:16.2326px;line-height:1.25;font-family:'Franklin Gothic Medium';-inkscape-font-specification:'Franklin Gothic Medium, Italic';fill:#09337f;fill-opacity:1;stroke-width:0.405816">
      <path
         d="m 479.19738,-791.84552 h -2.16382 l -0.44386,-2.6156 h -3.9234 l -1.20477,2.6156 h -1.83092 l 5.18365,-10.81909 h 2.4016 z m -2.78998,-4.12156 -0.84809,-4.8032 -2.22722,4.8032 z"
         style="font-style:italic;font-variant:normal;font-weight:normal;font-stretch:normal;font-family:'Franklin Gothic Medium';-inkscape-font-specification:'Franklin Gothic Medium, Italic';fill:#09337f;fill-opacity:1;stroke-width:0.405816"
         id="path1680" />
      <path
         d="m 482.38366,-791.84552 h -2.00529 l 1.80714,-10.81909 h 2.0053 z"
         style="font-style:italic;font-variant:normal;font-weight:normal;font-stretch:normal;font-family:'Franklin Gothic Medium';-inkscape-font-specification:'Franklin Gothic Medium, Italic';fill:#09337f;fill-opacity:1;stroke-width:0.405816"
         id="path1682" />
      <path
         d="m 493.08386,-800.61176 -1.77544,0.65787 q -0.57067,-1.34744 -2.06078,-1.34744 -0.90357,0 -1.41084,0.42801 -0.49934,0.42008 -0.49934,1.04624 0,0.48349 0.34082,0.79261 0.34082,0.30119 1.1255,0.52312 l 1.48218,0.43594 q 0.64201,0.1823 1.22061,0.5786 0.57861,0.3963 0.86395,0.99076 0.28534,0.59445 0.28534,1.25232 0,1.47425 -1.10173,2.56012 -1.0938,1.07795 -3.20213,1.07795 -3.26555,0 -4.23253,-2.69487 l 1.76752,-0.62616 q 0.64201,1.69618 2.5839,1.69618 1.10965,0 1.64862,-0.50727 0.53897,-0.51519 0.53897,-1.16513 0,-0.37253 -0.20607,-0.64201 -0.19815,-0.27742 -0.50727,-0.42008 -0.30912,-0.14267 -1.23647,-0.40423 -1.29195,-0.37253 -1.93396,-0.70542 -0.63409,-0.3329 -1.03832,-0.96699 -0.3963,-0.63408 -0.3963,-1.50595 0,-1.48218 1.07002,-2.42538 1.07002,-0.9432 2.91679,-0.9432 2.72657,0 3.75696,2.31441 z"
         style="font-style:italic;font-variant:normal;font-weight:normal;font-stretch:normal;font-family:'Franklin Gothic Medium';-inkscape-font-specification:'Franklin Gothic Medium, Italic';fill:#09337f;fill-opacity:1;stroke-width:0.405816"
         id="path1684" />
    </g>
    <path
       style="fill:none;stroke:#09337f;stroke-width:1.07417px;stroke-linecap:butt;stroke-linejoin:miter;stroke-opacity:1"
       d="M 53.217124,22.350718 H 131.5977"
       id="path1001" />
    <path
       id="path1643"
       style="color:#000000;font-style:normal;font-variant:normal;font-weight:normal;font-stretch:normal;font-size:medium;line-height:normal;font-family:sans-serif;font-variant-ligatures:normal;font-variant-position:normal;font-variant-caps:normal;font-variant-numeric:normal;font-variant-alternates:normal;font-variant-east-asian:normal;font-feature-settings:normal;font-variation-settings:normal;text-indent:0;text-align:start;text-decoration:none;text-decoration-line:none;text-decoration-style:solid;text-decoration-color:#000000;letter-spacing:normal;word-spacing:normal;text-transform:none;writing-mode:lr-tb;direction:ltr;text-orientation:mixed;dominant-baseline:auto;baseline-shift:baseline;text-anchor:start;white-space:normal;shape-padding:0;shape-margin:0;inline-size:0;clip-rule:nonzero;display:inline;overflow:visible;visibility:visible;isolation:auto;mix-blend-mode:normal;color-interpolation:sRGB;color-interpolation-filters:linearRGB;solid-color:#000000;solid-opacity:1;vector-effect:none;fill:#ffffff;fill-opacity:1;fill-rule:nonzero;stroke:#09337f;stroke-width:0.268544;stroke-linecap:butt;stroke-linejoin:miter;stroke-miterlimit:4;stroke-dasharray:none;stroke-dashoffset:0;stroke-opacity:1;color-rendering:auto;image-rendering:auto;shape-rendering:auto;text-rendering:auto;enable-background:accumulate;stop-color:#000000"
       d="m 36.954934,10.050122 c -2.66748,0.05189 -5.526161,0.326454 -8.960548,0.633596 -3.694239,0.521747 -7.3785,1.285807 -10.710294,2.471441 -3.654355,1.300411 -6.648144,3.30329 -8.9878301,5.895379 -2.33967,2.592068 -4.0008738,5.778446 -4.0008738,10.07459 0,6.975866 5.9625329,15.244065 17.7637479,15.244065 3.645837,0 6.070822,-0.748211 7.611545,-1.934356 1.540731,-1.186134 2.137865,-2.810441 2.137865,-4.330274 0,-1.145799 -0.42433,-2.487393 -1.296562,-3.587579 -0.872227,-1.100185 -2.235562,-1.942748 -4.002989,-1.942748 h -5.610042 c -0.644883,0 -1.556719,-0.749091 -1.556719,-1.93855 0,-0.742596 0.247044,-1.300642 0.677655,-1.728752 0.430574,-0.428106 1.070662,-0.727103 1.879807,-0.837098 1.021498,-0.138807 1.713301,-0.104826 2.339264,-0.472054 0.312976,-0.183628 0.559013,-0.506307 0.679749,-0.87906 0.120782,-0.372737 0.153139,-0.797819 0.153139,-1.349012 h -1.074174 c 0,0.498618 -0.04019,0.83355 -0.100644,1.019626 -0.06025,0.186023 -0.100767,0.220817 -0.203522,0.281146 -0.205511,0.120579 -0.867064,0.187973 -1.938554,0.33356 -0.992806,0.134909 -1.863938,0.516428 -2.492419,1.141312 -0.628489,0.624884 -0.99445,1.496714 -0.99445,2.490324 0,1.721919 1.260136,3.012728 2.630893,3.012728 h 5.610042 c 1.434313,0 2.453911,0.645066 3.161685,1.537833 0.707787,0.892754 1.063692,2.049652 1.063692,2.918316 0,1.252676 -0.438792,2.49348 -1.718262,3.478487 -1.279474,0.985015 -3.459298,1.711965 -6.956975,1.711965 -11.302999,0 -16.6895693,-7.802877 -16.6895693,-14.169887 0,-4.063579 1.5485625,-6.947028 3.7239415,-9.357076 2.1753988,-2.410048 5.0056688,-4.341985 8.5514468,-5.603754 3.213729,-1.14361 6.80516,-1.889693 10.431254,-2.404307 3.335079,-0.599132 7.909475,-1.234344 11.497028,-1.680496 -0.861147,-0.03898 -1.729145,-0.04665 -2.618302,-0.02923 z M 23.99769,13.719523 v 11.029181 h 1.074174 V 13.719523 Z" />
    <path
       id="path1007"
       style="fill:#ffffff;stroke:#09337f;stroke-width:0.268544;stroke-linecap:butt;stroke-linejoin:miter;stroke-miterlimit:4;stroke-dasharray:none;stroke-opacity:1"
       d="M 24.534779,2.9588824 16.755395,23.009461 24.534779,8.4934068 32.316254,23.009461 Z" />
  </g>
</svg>
