<svg width="1274" height="120" viewBox="0 0 1274 120" fill="none" xmlns="http://www.w3.org/2000/svg">
<g clip-path="url(#clip0_2535_13321)">
<path d="M509.496 102.713C509.458 102.958 509.479 103.208 509.556 103.443C509.633 103.678 509.764 103.892 509.939 104.067C510.114 104.242 510.328 104.374 510.564 104.451C510.799 104.528 511.049 104.549 511.294 104.511H524.764V44.5741H520.663C517.986 44.4499 515.366 45.3656 513.349 47.1294C511.332 48.8933 510.076 51.3688 509.843 54.0378C505.899 46.8139 498.202 43.3438 489.085 43.3438C473.47 43.3438 459.78 55.9621 459.78 75.5205C459.78 94.2587 469.622 106.057 487.161 106.057C499.779 106.057 505.048 100.284 505.048 94.6372C505.123 93.4921 504.934 92.345 504.497 91.2841C504.059 90.2232 503.384 89.2767 502.524 88.5173C501.021 89.8882 499.258 90.9435 497.34 91.6208C495.422 92.2982 493.387 92.5837 491.357 92.4605C483.439 92.4605 476.341 88.0126 476.341 75.5205C476.341 63.6593 484.511 57.7602 493.029 57.7602C503.975 57.7602 509.496 64.858 509.496 75.1735V102.713ZM605.332 30.7571L633.723 104.511H617.508C616.922 104.567 616.337 104.4 615.869 104.044C615.401 103.687 615.085 103.167 614.984 102.587L592.524 41.1987L580.505 73.8801H588.328C595.521 73.8801 598.297 76.6246 599.969 81.0725L602.019 86.4984C602.492 87.6971 602.019 88.5173 600.789 88.5173H575.111L569.338 104.511H554.448C554.192 104.545 553.931 104.508 553.694 104.404C553.457 104.301 553.253 104.135 553.104 103.924C552.955 103.713 552.866 103.465 552.847 103.207C552.828 102.949 552.88 102.691 552.997 102.461L579.559 33.0599C582.303 25.8675 585.868 23.5962 592.177 23.5962H605.363C606.341 23.5962 606.688 24.1009 606.688 24.7003C606.688 26.0252 604.764 26.3722 604.764 28.4227C604.829 29.2259 605.02 30.0138 605.332 30.7571ZM376.656 102.713C376.619 102.958 376.64 103.208 376.717 103.443C376.794 103.678 376.925 103.892 377.1 104.067C377.275 104.242 377.489 104.374 377.724 104.451C377.96 104.528 378.21 104.549 378.455 104.511H391.893V44.5741H387.824C385.147 44.4499 382.527 45.3656 380.51 47.1294C378.493 48.8933 377.237 51.3688 377.003 54.0378C373.06 46.8139 365.363 43.3438 356.246 43.3438C340.474 43.3438 326.94 55.9621 326.94 75.5205C326.94 94.2587 336.783 106.057 354.322 106.057C366.94 106.057 372.209 100.284 372.209 94.6372C372.284 93.4921 372.095 92.345 371.658 91.2841C371.22 90.2232 370.545 89.2767 369.685 88.5173C368.182 89.8882 366.419 90.9435 364.501 91.6208C362.583 92.2982 360.548 92.5837 358.518 92.4605C350.6 92.4605 343.502 88.0126 343.502 75.5205C343.502 63.6593 351.672 57.7602 360.19 57.7602C371.136 57.7602 376.656 64.858 376.656 75.1735V102.713ZM305.994 46.593C306.416 45.8433 307.054 45.2379 307.825 44.8554C308.595 44.4729 309.463 44.3309 310.316 44.4479H327.729L302.019 73.1545L328.328 104.511H310.474C309.618 104.621 308.75 104.472 307.979 104.084C307.209 103.696 306.573 103.087 306.152 102.334L286.436 78.2019V104.511H272.997C272.752 104.549 272.502 104.528 272.267 104.451C272.032 104.374 271.818 104.242 271.643 104.067C271.468 103.892 271.336 103.678 271.259 103.443C271.182 103.208 271.162 102.958 271.199 102.713V31.1041C271.216 28.1475 272.397 25.3167 274.488 23.226C276.579 21.1353 279.41 19.9534 282.366 19.9369H286.436V68.7066L305.994 46.593ZM233.944 30.8202L262.335 104.574H246.215C245.629 104.63 245.044 104.464 244.576 104.107C244.108 103.75 243.792 103.23 243.691 102.65L221.231 41.1987L209.212 73.8801H217.035C224.227 73.8801 227.004 76.6246 228.675 81.0725L230.726 86.4984C231.199 87.6971 230.726 88.5173 229.527 88.5173H203.817L198.045 104.511H183.155C182.899 104.545 182.638 104.508 182.401 104.404C182.164 104.301 181.96 104.135 181.811 103.924C181.661 103.713 181.572 103.465 181.554 103.207C181.535 102.949 181.587 102.691 181.704 102.461L208.265 33.0599C211.01 25.8675 214.574 23.5962 220.884 23.5962H234.101C235.048 23.5962 235.395 24.1009 235.395 24.7003C235.395 26.0252 233.502 26.3722 233.502 28.4227C233.523 29.2224 233.683 30.0124 233.975 30.7571L233.944 30.8202ZM670.663 55.6782V102.713C670.625 102.958 670.646 103.208 670.723 103.443C670.8 103.678 670.931 103.892 671.107 104.067C671.282 104.242 671.495 104.374 671.731 104.451C671.966 104.528 672.216 104.549 672.461 104.511H685.899V74.6056C685.766 72.4909 686.067 70.3711 686.785 68.3775C687.504 66.384 688.623 64.559 690.075 63.0155C691.527 61.472 693.28 60.2428 695.226 59.404C697.172 58.5652 699.269 58.1345 701.388 58.1388C703.72 58.0181 706.051 58.3833 708.234 59.2113C709.583 56.5625 710.367 53.662 710.537 50.694C710.537 47.0978 708.612 43.7224 702.114 43.7224C695.615 43.7224 689.496 47.8233 685.899 56.3407V44.4479H681.83C680.342 44.3603 678.852 44.5894 677.46 45.12C676.067 45.6507 674.802 46.4708 673.75 47.5263C672.697 48.5817 671.881 49.8484 671.354 51.2428C670.827 52.6372 670.602 54.1274 670.694 55.6151L670.663 55.6782ZM642.555 55.6782C642.572 52.7216 643.754 49.8908 645.845 47.8001C647.935 45.7094 650.766 44.5276 653.723 44.511H657.792V104.448H644.354C644.109 104.485 643.859 104.465 643.623 104.388C643.388 104.311 643.174 104.179 642.999 104.004C642.824 103.829 642.693 103.615 642.616 103.38C642.539 103.145 642.518 102.895 642.555 102.65V55.6782ZM400.631 93.817C400.631 101.735 414.574 105.836 425.868 105.836C440.631 105.836 452.776 98.8643 452.776 86.3722C452.776 77.1293 448.108 71.7034 436.814 68.959L424.196 65.8044C421.041 64.9527 419.149 63.6277 419.149 60.6309C419.149 57.634 422.145 55.9306 427.918 55.9306C434.667 56.0144 441.245 58.0645 446.846 61.8296C449.068 59.6937 450.474 56.8483 450.821 53.7855C450.821 47.0662 439.78 43.0915 427.634 43.0915C414.669 43.0915 402.776 49.5899 402.776 62.0189C402.776 71.4826 407.477 77.2555 418.045 79.653L431.01 82.8075C434.354 83.5015 436.278 84.9527 436.278 87.7287C436.278 91.1987 433.407 92.9968 426.436 92.9968C418.524 92.731 410.858 90.19 404.354 85.6782C402.111 87.8108 400.778 90.726 400.631 93.817ZM650.379 16.6877C647.869 16.6877 645.462 17.6847 643.687 19.4595C641.912 21.2343 640.915 23.6415 640.915 26.1514C640.915 28.6613 641.912 31.0685 643.687 32.8433C645.462 34.618 647.869 35.6151 650.379 35.6151C651.645 35.6531 652.906 35.4364 654.088 34.9779C655.269 34.5193 656.346 33.8283 657.255 32.9457C658.164 32.0631 658.887 31.0069 659.38 29.8398C659.873 28.6727 660.127 27.4184 660.126 26.1514C660.127 24.8843 659.873 23.6301 659.38 22.463C658.887 21.2959 658.164 20.2397 657.255 19.3571C656.346 18.4745 655.269 17.7834 654.088 17.3249C652.906 16.8664 651.645 16.6497 650.379 16.6877Z" fill="#5C0FD9"/>
<path d="M0.473557 116.972L44.6376 42.0505C45.3631 40.8517 45.8363 40.347 46.5619 40.347C47.2874 40.347 47.7922 40.9779 48.3915 41.9243C53.8593 51.139 56.757 61.6511 56.7827 72.3659C56.7827 100.473 34.7007 119.874 2.90258 119.874C2.30321 119.874 0.000371121 119.874 0.000371121 118.423C-0.00895388 117.9 0.157686 117.389 0.473557 116.972Z" fill="#FF6300"/>
<path d="M101.672 47.6341L140.347 116.719C141.325 118.423 140.726 119.874 138.297 119.874C109.906 119.874 96.7196 109.211 86.0571 90.1577L56.2464 36.8454C54.8112 34.7185 53.9724 32.2457 53.8174 29.6845C54.123 26.5249 55.2068 23.4902 56.972 20.8517L60.7259 14.1956C66.0571 4.35331 71.8616 0 85.5524 0H95.2685C96.7196 0 96.8458 1.1041 96.1202 1.92429C92.752 5.96384 91.0189 11.1184 91.2622 16.3722C91.2622 23.6278 93.9436 33.6909 101.672 47.6341Z" fill="#FF6300"/>
<path d="M830.756 92.9969V50.0101H839.585V92.9969H830.756Z" fill="#FF6300"/>
<path d="M858.862 92.9969V57.0349H845.908V50.0101H880.71V57.0349H867.627V92.9969H858.862Z" fill="#FF6300"/>
<path d="M885.217 62.0618L889.987 49.43H897.14L891.34 62.0618H885.217Z" fill="#FF6300"/>
<path d="M918.751 93.7702C916.603 93.7702 914.669 93.6628 912.951 93.448C911.275 93.2332 909.728 92.8894 908.31 92.4168C906.893 91.9442 905.475 91.3427 904.057 90.6123V82.1051C905.861 83.566 907.988 84.726 910.437 85.5853C912.886 86.4017 915.357 86.8098 917.849 86.8098C920.169 86.8098 921.909 86.3587 923.069 85.4564C924.272 84.5112 924.874 83.1793 924.874 81.4607C924.874 80.1287 924.379 79.0546 923.391 78.2383C922.446 77.4219 921.179 76.713 919.589 76.1115C917.999 75.51 916.259 74.887 914.369 74.2425C913.037 73.7699 911.726 73.2543 910.437 72.6957C909.191 72.0942 908.053 71.3423 907.021 70.4401C906.033 69.5378 905.238 68.4207 904.637 67.0888C904.035 65.7139 903.735 64.0382 903.735 62.0618C903.735 60.4721 904.035 58.9039 904.637 57.3571C905.238 55.8104 906.162 54.414 907.408 53.168C908.654 51.922 910.265 50.9338 912.242 50.2034C914.261 49.473 916.624 49.1078 919.331 49.1078C921.093 49.1078 922.618 49.2152 923.907 49.43C925.239 49.6449 926.485 49.9671 927.645 50.3967C928.848 50.8264 930.115 51.3635 931.447 52.0079V60.5151C930.416 59.7847 929.32 59.0972 928.16 58.4527C927 57.7653 925.754 57.2067 924.422 56.7771C923.133 56.3474 921.716 56.1111 920.169 56.0682C918.622 56.0252 917.29 56.1971 916.173 56.5838C915.056 56.9704 914.197 57.5505 913.595 58.3238C912.994 59.0972 912.693 60.021 912.693 61.0951C912.693 62.427 913.058 63.5012 913.789 64.3175C914.562 65.0909 915.615 65.7354 916.946 66.2509C918.278 66.7665 919.782 67.2821 921.458 67.7977C923.133 68.3133 924.723 68.8933 926.227 69.5378C927.731 70.1823 929.041 70.9771 930.158 71.9224C931.318 72.8246 932.221 73.9632 932.865 75.3381C933.51 76.713 933.832 78.3887 933.832 80.3651C933.832 82.7711 933.273 85.0053 932.156 87.0676C931.082 89.087 929.428 90.7197 927.194 91.9657C924.959 93.1687 922.145 93.7702 918.751 93.7702Z" fill="#FF6300"/>
<path d="M972.472 92.9969V74.0492L956.232 50.0101H966.994L979.626 70.4401L975.759 70.3112L987.489 50.0101H996.512L979.948 76.2404L981.237 71.4712V92.9969H972.472Z" fill="#FF6300"/>
<path d="M1019.19 93.7702C1014.94 93.7702 1011.26 92.9754 1008.17 91.3857C1005.12 89.753 1002.78 87.3039 1001.14 84.0386C999.512 80.7303 998.695 76.5626 998.695 71.5357C998.695 64.1886 1000.46 58.6461 1003.98 54.9081C1007.55 51.1272 1012.62 49.2367 1019.19 49.2367C1023.44 49.2367 1027.1 50.053 1030.15 51.6857C1033.24 53.2754 1035.6 55.7244 1037.24 59.0328C1038.87 62.2981 1039.68 66.4443 1039.68 71.4712C1039.68 78.8183 1037.9 84.3823 1034.33 88.1633C1030.81 91.9012 1025.76 93.7702 1019.19 93.7702ZM1019.19 86.4232C1021.72 86.4232 1023.83 85.9291 1025.51 84.9409C1027.22 83.9527 1028.51 82.3629 1029.37 80.1717C1030.23 77.9375 1030.66 75.0374 1030.66 71.4712C1030.66 67.8621 1030.23 64.9835 1029.37 62.8352C1028.51 60.644 1027.22 59.0543 1025.51 58.0661C1023.83 57.0779 1021.72 56.5838 1019.19 56.5838C1016.65 56.5838 1014.53 57.0993 1012.81 58.1305C1011.13 59.1187 1009.87 60.7084 1009.01 62.8997C1008.15 65.0479 1007.72 67.9266 1007.72 71.5357C1007.72 75.1448 1008.15 78.0449 1009.01 80.2362C1009.87 82.3844 1011.13 83.9527 1012.81 84.9409C1014.53 85.9291 1016.65 86.4232 1019.19 86.4232Z" fill="#FF6300"/>
<path d="M1066.59 94.0925C1060.36 94.0925 1055.63 92.6531 1052.41 89.7745C1049.23 86.8528 1047.64 82.4274 1047.64 76.4982V50.0101H1056.73V76.2404C1056.73 79.9354 1057.5 82.6637 1059.05 84.4253C1060.59 86.1869 1062.98 87.0676 1066.2 87.0676C1069.25 87.0676 1071.59 86.1869 1073.22 84.4253C1074.9 82.6637 1075.74 79.9354 1075.74 76.2404V50.0101H1084.12V76.4982C1084.12 80.451 1083.39 83.7378 1081.92 86.3587C1080.46 88.9796 1078.42 90.9345 1075.8 92.2235C1073.18 93.4695 1070.11 94.0925 1066.59 94.0925Z" fill="#FF6300"/>
<path d="M1093.77 92.9969V50.0101H1113.81C1118.46 50.0101 1122.06 51.1272 1124.64 53.3614C1127.22 55.5526 1128.51 58.8609 1128.51 63.2863C1128.51 65.3487 1128.08 67.3251 1127.22 69.2156C1126.4 71.0631 1125.18 72.6098 1123.55 73.8558C1121.96 75.1018 1120 75.8752 1117.68 76.1759L1117.75 73.2758L1130.64 92.9969H1119.62L1108.27 73.9847L1112.2 77.4649H1102.54V92.9969H1093.77ZM1102.54 70.6979H1111.95C1114.27 70.6979 1116.05 70.1393 1117.3 69.0222C1118.54 67.9051 1119.16 66.1435 1119.16 63.7375C1119.16 61.5892 1118.65 59.935 1117.62 58.775C1116.59 57.6149 1114.95 57.0349 1112.72 57.0349H1102.54V70.6979Z" fill="#FF6300"/>
<path d="M1169.87 93.7702C1167.72 93.7702 1165.79 93.6628 1164.07 93.448C1162.4 93.2332 1160.85 92.8894 1159.43 92.4168C1158.01 91.9442 1156.6 91.3427 1155.18 90.6123V82.1051C1156.98 83.566 1159.11 84.726 1161.56 85.5853C1164.01 86.4017 1166.48 86.8098 1168.97 86.8098C1171.29 86.8098 1173.03 86.3587 1174.19 85.4564C1175.39 84.5112 1175.99 83.1793 1175.99 81.4607C1175.99 80.1287 1175.5 79.0546 1174.51 78.2383C1173.57 77.4219 1172.3 76.713 1170.71 76.1115C1169.12 75.51 1167.38 74.887 1165.49 74.2425C1164.16 73.7699 1162.85 73.2543 1161.56 72.6957C1160.31 72.0942 1159.17 71.3423 1158.14 70.4401C1157.15 69.5378 1156.36 68.4207 1155.76 67.0888C1155.16 65.7139 1154.86 64.0382 1154.86 62.0618C1154.86 60.4721 1155.16 58.9039 1155.76 57.3571C1156.36 55.8104 1157.28 54.414 1158.53 53.168C1159.77 51.922 1161.39 50.9338 1163.36 50.2034C1165.38 49.473 1167.74 49.1078 1170.45 49.1078C1172.21 49.1078 1173.74 49.2152 1175.03 49.43C1176.36 49.6449 1177.61 49.9671 1178.77 50.3967C1179.97 50.8264 1181.24 51.3635 1182.57 52.0079V60.5151C1181.54 59.7847 1180.44 59.0972 1179.28 58.4527C1178.12 57.7653 1176.87 57.2067 1175.54 56.7771C1174.25 56.3474 1172.84 56.1111 1171.29 56.0682C1169.74 56.0252 1168.41 56.1971 1167.29 56.5838C1166.18 56.9704 1165.32 57.5505 1164.72 58.3238C1164.11 59.0972 1163.81 60.021 1163.81 61.0951C1163.81 62.427 1164.18 63.5012 1164.91 64.3175C1165.68 65.0909 1166.74 65.7354 1168.07 66.2509C1169.4 66.7665 1170.9 67.2821 1172.58 67.7977C1174.25 68.3133 1175.84 68.8933 1177.35 69.5378C1178.85 70.1823 1180.16 70.9771 1181.28 71.9224C1182.44 72.8246 1183.34 73.9632 1183.99 75.3381C1184.63 76.713 1184.95 78.3887 1184.95 80.3651C1184.95 82.7711 1184.39 85.0053 1183.28 87.0676C1182.2 89.087 1180.55 90.7197 1178.31 91.9657C1176.08 93.1687 1173.27 93.7702 1169.87 93.7702Z" fill="#FF6300"/>
<path d="M1201.21 79.8495L1198.7 73.3402L1216.94 50.0101H1228.02L1201.21 79.8495ZM1192.9 92.9969V50.0101H1201.73V92.9969H1192.9ZM1209.98 67.0243L1229.38 92.9969H1218.16L1203.21 72.6957L1209.98 67.0243Z" fill="#FF6300"/>
<path d="M1248.14 92.9969V74.0492L1231.9 50.0101H1242.66L1255.29 70.4401L1251.43 70.3112L1263.15 50.0101H1272.18L1255.61 76.2404L1256.9 71.4712V92.9969H1248.14Z" fill="#FF6300"/>
<path d="M770.568 44.4479H774.069V104.385H767.192V47.6025C767.249 46.7461 767.629 45.9433 768.256 45.3573C768.883 44.7713 769.71 44.4461 770.568 44.4479Z" fill="#FF6300"/>
</g>
<defs>
<clipPath id="clip0_2535_13321">
<rect width="1273.38" height="120" fill="white"/>
</clipPath>
</defs>
</svg>
