<?xml version="1.0" encoding="UTF-8"?>
<svg version="1.1" xmlns="http://www.w3.org/2000/svg" width="395px" height="68px">

<g style="fill:#fff;stroke:#000">
<path d="M37.828,40.853H23.062l-2.953,3.656l-3.375,4.043c-0.656,0.867-1.137,1.652-1.441,2.355 c-0.234,0.54-0.352,1.078-0.352,1.617c0,0.563,0.299,1.084,0.896,1.564c0.598,0.48,1.587,0.756,2.971,0.826v1.301H4.57l0.352-1.301 c1.266-0.211,2.391-0.656,3.375-1.336c1.313-0.937,3.199-2.871,5.66-5.801L47.742,7.455h1.582l-1.582,39.023 c-0.07,2.039-0.105,3.27-0.105,3.691c0,1.594,0.322,2.754,0.967,3.48c0.645,0.727,1.717,1.148,3.217,1.266l-0.352,1.301H30.832 l0.387-1.301c2.039-0.188,3.211-0.352,3.516-0.492c0.656-0.328,1.253-1.014,1.793-2.057c0.539-1.042,0.867-2.853,0.984-5.432 L37.828,40.853z M37.828,37.97l0.914-15.539L25.488,37.97H37.828z"/>
<path d="M100.828,56.216H80.191l0.387-1.301c1.359-0.117,2.367-0.51,3.023-1.178 c0.656-0.668,0.984-1.494,0.984-2.479c0-1.055-0.364-2.73-1.09-5.027L78.433,29.99l-5.027,17.402 c-0.563,1.946-0.844,3.352-0.844,4.219c0,0.984,0.387,1.775,1.16,2.373s2.167,0.909,4.184,0.932l-0.387,1.301H54.351l0.387-1.301 c1.852-0.047,3.234-0.293,4.148-0.738c0.914-0.445,1.64-1.137,2.18-2.074c0.539-0.937,1.183-2.73,1.934-5.379l8.016-27.738 c0.914-3.187,1.371-5.215,1.371-6.082c0-0.796-0.369-1.488-1.107-2.074c-0.738-0.585-2.139-0.914-4.201-0.984l0.387-1.301h22.43 l-0.387,1.301c-1.5,0-2.649,0.223-3.445,0.668c-1.055,0.61-1.911,1.5-2.566,2.672c-0.445,0.773-1.055,2.566-1.828,5.379 l-3.234,11.391l12.41-11.391c2.414-2.227,3.762-3.563,4.043-4.008c0.375-0.585,0.563-1.207,0.563-1.863 c0-0.703-0.252-1.313-0.756-1.828c-0.504-0.515-1.377-0.855-2.619-1.02l0.387-1.301h17.965l-0.387,1.301 c-1.383,0.118-2.508,0.316-3.375,0.598c-1.148,0.375-2.461,1.014-3.938,1.916c-1.477,0.902-2.977,1.963-4.5,3.182l-3.27,3.023 l-7.559,6.785l5.625,17.578c1.828,5.789,3.246,9.211,4.254,10.266c1.007,1.055,2.32,1.629,3.938,1.723L100.828,56.216z"/>
<path d="M140.449,56.216h-38.075l0.387-1.301c2.273,0,3.932-0.439,4.975-1.318 c1.042-0.879,2.009-2.853,2.9-5.924l8.859-30.621c0.492-1.688,0.738-3.011,0.738-3.973c0-0.937-0.352-1.688-1.055-2.25 s-2.086-0.891-4.148-0.984l0.387-1.301h22.887l-0.387,1.301c-2.203,0.047-3.85,0.54-4.939,1.477c-1.09,0.938-2.057,2.848-2.9,5.73 l-8.086,28.02c-1.032,3.563-1.547,5.73-1.547,6.504c0,0.469,0.264,0.909,0.791,1.318c0.527,0.41,1.376,0.615,2.549,0.615 c3.89,0,7.646-0.891,11.268-2.672c3.621-1.781,6.685-4.441,9.194-7.98h1.477L140.449,56.216z"/>
<path d="M177.855,40.853H163.09l-2.953,3.656l-3.375,4.043c-0.656,0.867-1.137,1.652-1.441,2.355 c-0.234,0.54-0.352,1.078-0.352,1.617c0,0.563,0.299,1.084,0.896,1.564c0.598,0.48,1.588,0.756,2.971,0.826v1.301h-14.238 l0.352-1.301c1.266-0.211,2.391-0.656,3.375-1.336c1.313-0.937,3.199-2.871,5.66-5.801L187.77,7.455h1.582l-1.582,39.023 c-0.07,2.039-0.105,3.27-0.105,3.691c0,1.594,0.322,2.754,0.967,3.48c0.645,0.727,1.717,1.148,3.217,1.266l-0.352,1.301h-20.637 l0.387-1.301c2.039-0.188,3.211-0.352,3.516-0.492c0.656-0.328,1.254-1.014,1.793-2.057c0.539-1.042,0.867-2.853,0.984-5.432 L177.855,40.853z M177.855,37.97l0.914-15.539L165.516,37.97H177.855z"/>
<path d="M240.856,56.216h-20.637l0.387-1.301c1.359-0.117,2.367-0.51,3.023-1.178 s0.984-1.494,0.984-2.479c0-1.055-0.363-2.73-1.09-5.027l-5.063-16.242l-5.027,17.402c-0.563,1.946-0.844,3.352-0.844,4.219 c0,0.984,0.387,1.775,1.16,2.373s2.168,0.909,4.184,0.932l-0.387,1.301h-23.168l0.387-1.301c1.852-0.047,3.234-0.293,4.148-0.738 c0.914-0.445,1.641-1.137,2.18-2.074c0.539-0.937,1.184-2.73,1.934-5.379l8.016-27.738c0.914-3.187,1.371-5.215,1.371-6.082 c0-0.796-0.369-1.488-1.107-2.074c-0.738-0.585-2.139-0.914-4.201-0.984l0.387-1.301h22.43l-0.387,1.301 c-1.5,0-2.648,0.223-3.445,0.668c-1.055,0.61-1.91,1.5-2.566,2.672c-0.445,0.773-1.055,2.566-1.828,5.379l-3.234,11.391 l12.41-11.391c2.414-2.227,3.762-3.563,4.043-4.008c0.375-0.585,0.563-1.207,0.563-1.863c0-0.703-0.252-1.313-0.756-1.828 c-0.504-0.515-1.377-0.855-2.619-1.02l0.387-1.301h17.965l-0.387,1.301c-1.383,0.118-2.508,0.316-3.375,0.598 c-1.148,0.375-2.461,1.014-3.938,1.916c-1.477,0.902-2.977,1.963-4.5,3.182l-3.27,3.023l-7.559,6.785l5.625,17.578 c1.828,5.789,3.246,9.211,4.254,10.266s2.32,1.629,3.938,1.723L240.856,56.216z"/>
<path d="M289.231,40.853h-14.766l-2.953,3.656l-3.375,4.043c-0.656,0.867-1.137,1.652-1.441,2.355 c-0.234,0.54-0.352,1.078-0.352,1.617c0,0.563,0.299,1.084,0.896,1.564c0.598,0.48,1.588,0.756,2.971,0.826v1.301h-14.238 l0.352-1.301c1.266-0.211,2.391-0.656,3.375-1.336c1.313-0.937,3.199-2.871,5.66-5.801l33.785-40.324h1.582l-1.582,39.023 c-0.07,2.039-0.105,3.27-0.105,3.691c0,1.594,0.322,2.754,0.967,3.48c0.645,0.727,1.717,1.148,3.217,1.266l-0.352,1.301h-20.637 l0.387-1.301c2.039-0.188,3.211-0.352,3.516-0.492c0.656-0.328,1.254-1.014,1.793-2.057c0.539-1.042,0.867-2.853,0.984-5.432 L289.231,40.853z M289.231,37.97l0.914-15.539L276.891,37.97H289.231z"/>
<path d="M318.024,9.845l0.387-1.301h23.273l-0.457,1.301c-2.109,0-3.721,0.469-4.834,1.406 c-1.113,0.938-2.092,2.895-2.936,5.871l-8.719,30.516c-0.633,2.157-0.949,3.598-0.949,4.324c0,0.844,0.328,1.5,0.984,1.969 c0.844,0.61,2.438,0.938,4.781,0.984l-0.352,1.301h-23.66l0.387-1.301c2.367,0,4.102-0.451,5.203-1.354 c1.102-0.902,2.098-2.877,2.988-5.924l8.789-30.516c0.539-1.875,0.809-3.292,0.809-4.254c0-0.867-0.328-1.547-0.984-2.039 S320.508,10.009,318.024,9.845z"/>
<path d="M356.766,32.943l-4.219,14.449c-0.609,2.039-0.914,3.539-0.914,4.5 c0,0.891,0.363,1.605,1.09,2.145c0.727,0.54,2.238,0.832,4.535,0.879l-0.492,1.301h-22.957l0.422-1.301 c2.297,0,3.979-0.445,5.045-1.336c1.066-0.891,2.045-2.883,2.936-5.977l8.859-30.586c0.492-1.71,0.738-3.059,0.738-4.043 c0-0.937-0.305-1.652-0.914-2.145s-2.027-0.82-4.254-0.984l0.352-1.301h19.758c5.648,0,9.621,0.984,11.918,2.953 s3.445,4.5,3.445,7.594c0,3.258-1.336,6.2-4.008,8.824c-1.688,1.641-4.676,3.059-8.965,4.254l4.289,14.449 c1.148,3.867,2.15,6.2,3.006,6.996c0.855,0.797,2.279,1.23,4.271,1.301v1.301h-14.836l-6.75-23.273l-1.16,0.07 C357.704,33.013,357.305,32.99,356.766,32.943z M357.258,30.833c0.82,0.047,1.512,0.07,2.074,0.07c3.422,0,6.234-1.172,8.438-3.516 c2.203-2.343,3.305-5.414,3.305-9.211c0-2.25-0.586-3.96-1.758-5.133c-1.172-1.172-2.719-1.758-4.641-1.758 c-0.469,0-1.02,0.012-1.652,0.035L357.258,30.833z"/>
</g>
</svg>