<?xml version="1.0" encoding="UTF-8" standalone="no"?>
<!-- Created with Inkscape (http://www.inkscape.org/) -->
<svg
   xmlns:dc="http://purl.org/dc/elements/1.1/"
   xmlns:cc="http://web.resource.org/cc/"
   xmlns:rdf="http://www.w3.org/1999/02/22-rdf-syntax-ns#"
   xmlns:svg="http://www.w3.org/2000/svg"
   xmlns="http://www.w3.org/2000/svg"
   xmlns:sodipodi="http://sodipodi.sourceforge.net/DTD/sodipodi-0.dtd"
   xmlns:inkscape="http://www.inkscape.org/namespaces/inkscape"
   id="svg2"
   sodipodi:version="0.32"
   inkscape:version="0.45.1"
   width="380"
   height="380"
   version="1.0"
   sodipodi:docbase="C:\Documents and Settings\Flanker\Desktop"
   sodipodi:docname="Ala littoria.svg"
   inkscape:output_extension="org.inkscape.output.svg.inkscape">
  <metadata
     id="metadata7">
    <rdf:RDF>
      <cc:Work
         rdf:about="">
        <dc:format>image/svg+xml</dc:format>
        <dc:type
           rdf:resource="http://purl.org/dc/dcmitype/StillImage" />
      </cc:Work>
    </rdf:RDF>
  </metadata>
  <defs
     id="defs5" />
  <sodipodi:namedview
     inkscape:window-height="1003"
     inkscape:window-width="1280"
     inkscape:pageshadow="2"
     inkscape:pageopacity="0.0"
     guidetolerance="10.0"
     gridtolerance="10.0"
     objecttolerance="10.0"
     borderopacity="1.0"
     bordercolor="#666666"
     pagecolor="#ffffff"
     id="base"
     inkscape:zoom="0.74212598"
     inkscape:cx="277.47384"
     inkscape:cy="327.30026"
     inkscape:window-x="-4"
     inkscape:window-y="-4"
     inkscape:current-layer="svg2"
     inkscape:showpageshadow="false"
     width="380px"
     height="380px" />
  <rect
     style="opacity:1;fill:#000000;fill-opacity:1;stroke:none;stroke-width:5;stroke-linecap:butt;stroke-linejoin:round;stroke-miterlimit:4;stroke-dasharray:none;stroke-opacity:1"
     id="rect3467"
     width="9.3000002"
     height="33"
     x="653.89838"
     y="-34.332531" />
  <path
     style="opacity:1;fill:#000000;fill-opacity:1;stroke:none;stroke-width:5;stroke-linecap:butt;stroke-linejoin:round;stroke-miterlimit:4;stroke-dasharray:none;stroke-opacity:1"
     d="M 673.49011,-34.332531 L 673.49011,-25.020031 L 685.33386,-25.020031 L 685.33386,-1.3325315 L 694.61511,-1.3325315 L 694.61511,-25.020031 L 706.49011,-25.020031 L 706.49011,-34.332531 L 673.49011,-34.332531 z "
     id="rect3471"
     sodipodi:nodetypes="ccccccccc" />
  <path
     style="opacity:1;fill:#000000;fill-opacity:1;stroke:none;stroke-width:5;stroke-linecap:butt;stroke-linejoin:round;stroke-miterlimit:4;stroke-dasharray:none;stroke-opacity:1"
     d="M 729.86414,-36.533791 C 719.03241,-36.533791 710.25612,-28.152981 710.25611,-17.832531 C 710.25611,-7.5120915 719.0324,0.86872854 729.86414,0.86872854 C 740.69586,0.86872854 749.5024,-7.5120915 749.50238,-17.832531 C 749.50238,-28.152971 740.69585,-36.533794 729.86414,-36.533791 z M 729.86414,-27.756261 C 735.61708,-27.756261 740.28751,-23.313921 740.28751,-17.832531 C 740.28749,-12.351141 735.61709,-7.9088015 729.86414,-7.9088015 C 724.11117,-7.9088015 719.44076,-12.351141 719.44076,-17.832531 C 719.44075,-23.313931 724.11119,-27.756261 729.86414,-27.756261 z "
     id="path3480" />
  <path
     style="opacity:1;fill:#000000;fill-opacity:1;stroke:none;stroke-width:5;stroke-linecap:butt;stroke-linejoin:round;stroke-miterlimit:4;stroke-dasharray:none;stroke-opacity:1"
     d="M 758.58659,-35.832531 L 758.58659,0.16746854 L 767.89909,0.16746854 L 767.89909,-9.9887815 L 777.14909,-9.9887815 C 780.92405,-6.6110715 783.61785,0.16746854 783.61784,0.16746854 L 793.83659,0.16746854 C 793.83659,0.16746854 790.27208,-8.1195915 786.83659,-11.457531 C 791.19609,-13.621981 794.18035,-17.953301 794.18034,-22.926281 C 794.18037,-30.055361 788.06447,-35.832528 780.52409,-35.832531 L 767.89909,-35.832531 L 758.58659,-35.832531 z M 767.89909,-26.520031 L 780.52409,-26.520031 C 782.63152,-26.520031 784.33659,-24.918721 784.33659,-22.926281 C 784.33662,-20.933831 782.63148,-19.301281 780.52409,-19.301281 L 767.89909,-19.301281 L 767.89909,-26.520031 z "
     id="rect3489"
     sodipodi:nodetypes="ccccccccscccccsccc" />
  <path
     style="opacity:1;fill:#000000;fill-opacity:1;stroke:none;stroke-width:5;stroke-linecap:butt;stroke-linejoin:round;stroke-miterlimit:4;stroke-dasharray:none;stroke-opacity:1"
     d="M 616.23853,-34.332531 L 616.23853,-1.3325315 L 640.48853,-1.3325315 L 640.48853,-10.645031 L 625.55103,-10.645031 L 625.55103,-34.332531 L 616.23853,-34.332531 z "
     id="rect3524"
     sodipodi:nodetypes="ccccccc" />
  <path
     style="opacity:1;fill:#000000;fill-opacity:1;stroke:none;stroke-width:5;stroke-linecap:butt;stroke-linejoin:round;stroke-miterlimit:4;stroke-dasharray:none;stroke-opacity:1"
     d="M 579.06913,-34.332531 L 560.97538,-1.3325315 L 570.97538,-1.3325315 L 573.63163,-6.1762815 L 595.94413,-6.1762815 L 598.60038,-1.3325315 L 608.63163,-1.3325315 L 590.50663,-34.332531 L 579.06913,-34.332531 z M 584.78788,-26.488781 L 590.85038,-15.457531 L 578.72538,-15.457531 L 584.78788,-26.488781 z "
     id="rect3533"
     sodipodi:nodetypes="ccccccccccccc" />
  <path
     style="fill:#000000;fill-opacity:1;stroke:none;stroke-width:5;stroke-linecap:butt;stroke-linejoin:round;stroke-miterlimit:4;stroke-opacity:1"
     d="M 811.8293,-34.832531 L 805.7668,-1.8325315 L 815.54805,-1.8325315 L 818.1418,-15.863781 L 826.17305,-0.83253146 L 834.2043,-15.863781 L 836.79805,-1.8325315 L 846.5793,-1.8325315 L 840.5168,-34.832531 L 832.29805,-34.832531 L 826.17305,-21.863781 L 820.04805,-34.832531 L 811.8293,-34.832531 z "
     id="rect3556" />
  <g
     id="g3569"
     transform="translate(6.4736565,6.4736569)">
    <path
       transform="matrix(1.0159979,0,0,1.0159979,-71.07221,-79.938147)"
       d="M 428.76555 259.31598 A 178.1759 178.1759 0 1 1  72.413742,259.31598 A 178.1759 178.1759 0 1 1  428.76555 259.31598 z"
       sodipodi:ry="178.1759"
       sodipodi:rx="178.1759"
       sodipodi:cy="259.31598"
       sodipodi:cx="250.58965"
       id="path3461"
       style="opacity:1;fill:#cccccc;fill-opacity:1;stroke:#000000;stroke-width:4.92126989;stroke-linecap:butt;stroke-linejoin:round;stroke-miterlimit:4;stroke-dasharray:none;stroke-opacity:1"
       sodipodi:type="arc" />
    <path
       sodipodi:type="arc"
       style="opacity:1;fill:none;fill-opacity:1;stroke:#000000;stroke-width:7.67930555;stroke-linecap:butt;stroke-linejoin:round;stroke-miterlimit:4;stroke-dasharray:none;stroke-opacity:1"
       id="path3463"
       sodipodi:cx="250.58965"
       sodipodi:cy="259.31598"
       sodipodi:rx="178.1759"
       sodipodi:ry="178.1759"
       d="M 428.76555 259.31598 A 178.1759 178.1759 0 1 1  72.413742,259.31598 A 178.1759 178.1759 0 1 1  428.76555 259.31598 z"
       transform="matrix(0.6511006,0,0,0.6511006,20.367287,16.369918)" />
    <g
       transform="translate(-61.346431,-77.695263)"
       id="g3385">
      <path
         style="fill:#cccccc;fill-opacity:1;stroke:#000000;stroke-width:1.5;stroke-linecap:round;stroke-linejoin:round;stroke-miterlimit:4;stroke-dasharray:none;stroke-opacity:1"
         d="M 267.02565,255.26653 L 316.8101,255.26653 C 319.015,225.7969 318.26034,201.50256 294.419,174.03928 L 279.17401,183.5674 C 284.182,194.41624 281.26253,211.43716 266.78745,211.43716 L 267.02565,255.26653 z "
         id="path3335"
         sodipodi:nodetypes="cccccc" />
      <path
         sodipodi:nodetypes="cs"
         id="path3337"
         d="M 313.78618,255.2342 C 315.882,226.43534 314.91308,202.52783 291.87493,175.63285"
         style="fill:none;fill-opacity:1;stroke:#000000;stroke-width:1;stroke-linecap:round;stroke-linejoin:round;stroke-miterlimit:4;stroke-dasharray:none;stroke-opacity:1" />
      <path
         style="fill:none;fill-opacity:1;stroke:#000000;stroke-width:1;stroke-linecap:round;stroke-linejoin:round;stroke-miterlimit:4;stroke-dasharray:none;stroke-opacity:1"
         d="M 284.53358,255.02833 L 284.53358,230.13611"
         id="path3339" />
      <path
         style="fill:none;fill-opacity:1;stroke:#000000;stroke-width:1;stroke-linecap:round;stroke-linejoin:round;stroke-miterlimit:4;stroke-dasharray:none;stroke-opacity:1"
         d="M 289.41674,254.90923 L 289.41674,190.11799"
         id="path3341" />
      <path
         style="fill:none;fill-opacity:1;stroke:#000000;stroke-width:1;stroke-linecap:round;stroke-linejoin:round;stroke-miterlimit:4;stroke-dasharray:none;stroke-opacity:1"
         d="M 294.29991,255.14743 L 294.29991,221.32259"
         id="path3343" />
      <path
         style="fill:none;fill-opacity:1;stroke:#000000;stroke-width:0.99592167;stroke-linecap:round;stroke-linejoin:round;stroke-miterlimit:4;stroke-dasharray:none;stroke-opacity:1"
         d="M 292.27518,254.55599 L 292.27518,197.49821"
         id="path3345" />
      <path
         style="fill:none;fill-opacity:1;stroke:#000000;stroke-width:1;stroke-linecap:round;stroke-linejoin:round;stroke-miterlimit:4;stroke-dasharray:none;stroke-opacity:1"
         d="M 301.2078,255.14743 L 301.2078,239.18782"
         id="path3347" />
      <path
         style="fill:none;fill-opacity:1;stroke:#000000;stroke-width:1;stroke-linecap:round;stroke-linejoin:round;stroke-miterlimit:4;stroke-dasharray:none;stroke-opacity:1"
         d="M 303.58983,255.14743 L 303.58983,242.16536"
         id="path3349" />
      <path
         style="fill:none;fill-opacity:1;stroke:#000000;stroke-width:1;stroke-linecap:round;stroke-linejoin:round;stroke-miterlimit:4;stroke-dasharray:none;stroke-opacity:1"
         d="M 305.61455,255.26653 L 305.61455,244.19009"
         id="path3351" />
      <path
         style="fill:none;fill-opacity:1;stroke:#000000;stroke-width:1;stroke-linecap:round;stroke-linejoin:round;stroke-miterlimit:4;stroke-dasharray:none;stroke-opacity:1"
         d="M 276.43468,255.02833 L 276.43468,246.92942"
         id="path3353" />
      <path
         style="fill:none;fill-opacity:1;stroke:#000000;stroke-width:1;stroke-linecap:round;stroke-linejoin:round;stroke-miterlimit:4;stroke-dasharray:none;stroke-opacity:1"
         d="M 273.57624,254.90923 L 273.57624,241.21255"
         id="path3355" />
      <path
         style="fill:none;fill-opacity:1;stroke:#000000;stroke-width:1;stroke-linecap:round;stroke-linejoin:round;stroke-miterlimit:4;stroke-dasharray:none;stroke-opacity:1"
         d="M 271.55151,255.02833 L 271.55151,237.044"
         id="path3357" />
    </g>
    <path
       style="fill:#cccccc;fill-opacity:1;stroke:#000000;stroke-width:0.9702059;stroke-linecap:round;stroke-linejoin:round;stroke-miterlimit:4;stroke-dasharray:none;stroke-opacity:1"
       d="M 157.87422,66.514787 L 157.87422,306.05255 C 159.79002,306.89546 162.91596,306.91918 165.02136,306.05255 L 165.02136,66.514787 C 162.66218,65.632217 160.23353,65.773007 157.87422,66.514787 z "
       id="path3172"
       sodipodi:nodetypes="ccccc" />
    <path
       sodipodi:nodetypes="ccccc"
       id="path3170"
       d="M 161.56637,65.442877 L 161.56637,307.36267 C 163.48217,308.20558 166.60811,308.2293 168.71351,307.36267 L 168.71351,65.442877 C 166.35433,64.560307 163.92568,64.701097 161.56637,65.442877 z "
       style="fill:#cccccc;fill-opacity:1;stroke:#000000;stroke-width:0.9702059;stroke-linecap:round;stroke-linejoin:round;stroke-miterlimit:4;stroke-dasharray:none;stroke-opacity:1" />
    <path
       style="fill:#cccccc;fill-opacity:1;stroke:#000000;stroke-width:0.9702059;stroke-linecap:round;stroke-linejoin:round;stroke-miterlimit:4;stroke-dasharray:none;stroke-opacity:1"
       d="M 165.37762,64.430517 L 165.37762,308.79189 C 167.29342,309.6348 170.41936,309.65852 172.52476,308.79189 L 172.52476,64.430517 C 170.16558,63.547947 167.73693,63.688737 165.37762,64.430517 z "
       id="path3168"
       sodipodi:nodetypes="ccccc" />
    <path
       sodipodi:nodetypes="ccccc"
       id="path3164"
       d="M 169.66528,63.447927 L 169.66528,310.102 C 171.58108,310.94491 174.70702,310.96863 176.81242,310.102 L 176.81242,63.447927 C 174.45324,62.565357 172.02459,62.706147 169.66528,63.447927 z "
       style="fill:#cccccc;fill-opacity:1;stroke:#000000;stroke-width:0.9702059;stroke-linecap:round;stroke-linejoin:round;stroke-miterlimit:4;stroke-dasharray:none;stroke-opacity:1" />
    <path
       style="fill:#cccccc;fill-opacity:1;stroke:#000000;stroke-width:0.9702059;stroke-linecap:round;stroke-linejoin:round;stroke-miterlimit:4;stroke-dasharray:none;stroke-opacity:1"
       d="M 175.73946,62.852417 L 175.73946,310.75706 C 177.65526,311.59997 180.7812,311.62369 182.8866,310.75706 L 182.8866,62.852417 C 180.52742,61.969847 178.09877,62.110637 175.73946,62.852417 z "
       id="path3162"
       sodipodi:nodetypes="ccccc" />
    <path
       sodipodi:nodetypes="ccccc"
       id="path3183"
       d="M 207.89793,66.514787 L 207.89793,306.05255 C 205.98213,306.89546 202.85619,306.91918 200.75079,306.05255 L 200.75079,66.514787 C 203.10997,65.632217 205.53862,65.773007 207.89793,66.514787 z "
       style="fill:#cccccc;fill-opacity:1;stroke:#000000;stroke-width:0.9702059;stroke-linecap:round;stroke-linejoin:round;stroke-miterlimit:4;stroke-dasharray:none;stroke-opacity:1" />
    <path
       style="fill:#cccccc;fill-opacity:1;stroke:#000000;stroke-width:0.9702059;stroke-linecap:round;stroke-linejoin:round;stroke-miterlimit:4;stroke-dasharray:none;stroke-opacity:1"
       d="M 204.20578,65.442877 L 204.20578,307.36267 C 202.28998,308.20558 199.16404,308.2293 197.05864,307.36267 L 197.05864,65.442877 C 199.41782,64.560307 201.84647,64.701097 204.20578,65.442877 z "
       id="path3185"
       sodipodi:nodetypes="ccccc" />
    <path
       sodipodi:nodetypes="ccccc"
       id="path3187"
       d="M 200.39453,64.430517 L 200.39453,308.79189 C 198.47873,309.6348 195.35279,309.65852 193.24739,308.79189 L 193.24739,64.430517 C 195.60657,63.547947 198.03522,63.688737 200.39453,64.430517 z "
       style="fill:#cccccc;fill-opacity:1;stroke:#000000;stroke-width:0.9702059;stroke-linecap:round;stroke-linejoin:round;stroke-miterlimit:4;stroke-dasharray:none;stroke-opacity:1" />
    <path
       style="fill:#cccccc;fill-opacity:1;stroke:#000000;stroke-width:0.9702059;stroke-linecap:round;stroke-linejoin:round;stroke-miterlimit:4;stroke-dasharray:none;stroke-opacity:1"
       d="M 196.10687,63.447927 L 196.10687,310.102 C 194.19107,310.94491 191.06513,310.96863 188.95973,310.102 L 188.95973,63.447927 C 191.31891,62.565357 193.74756,62.706147 196.10687,63.447927 z "
       id="path3189"
       sodipodi:nodetypes="ccccc" />
    <path
       sodipodi:nodetypes="ccccc"
       id="path3191"
       d="M 190.03269,62.852417 L 190.03269,310.75706 C 188.11689,311.59997 184.99095,311.62369 182.88555,310.75706 L 182.88555,62.852417 C 185.24473,61.969847 187.67338,62.110637 190.03269,62.852417 z "
       style="fill:#cccccc;fill-opacity:1;stroke:#000000;stroke-width:0.9702059;stroke-linecap:round;stroke-linejoin:round;stroke-miterlimit:4;stroke-dasharray:none;stroke-opacity:1" />
    <path
       style="fill:#cccccc;fill-opacity:1;stroke:#000000;stroke-width:1;stroke-linecap:round;stroke-linejoin:round;stroke-miterlimit:4;stroke-opacity:1"
       d="M 182.90046,295.21236 C 175.59238,295.21236 165.51685,294.35489 157.86921,291.80611 L 157.86921,281.55611 C 165.51685,284.10489 175.59238,284.96235 182.90046,284.96236 C 190.20855,284.96236 200.25282,284.10489 207.90046,281.55611 L 207.90046,291.80611 C 200.25282,294.35489 190.20855,295.21236 182.90046,295.21236 z "
       id="path3303" />
    <path
       style="fill:#cccccc;fill-opacity:1;stroke:#000000;stroke-width:1;stroke-linecap:butt;stroke-linejoin:round;stroke-miterlimit:4;stroke-opacity:1"
       d="M 157.71889,286.63367 C 165.38551,289.22334 175.52782,290.09495 182.88607,290.09495 C 190.24433,290.09496 200.38664,289.22334 208.05326,286.63367"
       id="path3301" />
    <path
       id="path3237"
       d="M 182.90046,71.460987 C 175.59238,71.460987 165.51685,72.318457 157.86921,74.867237 L 157.86921,85.117237 C 165.51685,82.568457 175.59238,81.710997 182.90046,81.710987 C 190.20855,81.710987 200.25282,82.568457 207.90046,85.117237 L 207.90046,74.867237 C 200.25282,72.318457 190.20855,71.460987 182.90046,71.460987 z "
       style="fill:#cccccc;fill-opacity:1;stroke:#000000;stroke-width:1;stroke-linecap:round;stroke-linejoin:round;stroke-miterlimit:4;stroke-opacity:1" />
    <path
       id="path3293"
       d="M 157.71889,80.039677 C 165.38551,77.450007 175.52782,76.578397 182.88607,76.578397 C 190.24433,76.578387 200.38664,77.450007 208.05326,80.039677"
       style="fill:none;fill-opacity:1;stroke:#000000;stroke-width:1;stroke-linecap:butt;stroke-linejoin:round;stroke-miterlimit:4;stroke-opacity:1" />
    <path
       id="path2161"
       d="M 182.88608,70.867237 L 165.04233,110.61724 L 165.04233,131.49224 L 127.97983,134.52349 L 26.229831,239.96099 L 127.63608,165.86724 L 163.66733,165.86724 L 175.47983,223.80474 L 148.51108,295.21099 L 182.88608,240.99224 L 217.22983,295.21099 L 190.29233,223.80474 L 202.07358,165.86724 L 238.13608,165.86724 L 339.54233,239.96099 L 237.79233,134.52349 L 200.72983,131.49224 L 200.72983,110.61724 L 182.88608,70.867237 z "
       style="opacity:1;fill:#000000;fill-opacity:1;stroke:#000000;stroke-width:2;stroke-linecap:round;stroke-linejoin:round;stroke-miterlimit:4;stroke-dasharray:none;stroke-opacity:1" />
    <path
       sodipodi:nodetypes="cc"
       id="path3399"
       d="M 161.32466,74.272237 L 161.32466,84.339217"
       style="opacity:1;fill:#cccccc;fill-opacity:1;stroke:#000000;stroke-width:1;stroke-linecap:round;stroke-linejoin:round;stroke-miterlimit:4;stroke-dasharray:none;stroke-opacity:1" />
    <path
       sodipodi:nodetypes="cc"
       id="path3401"
       d="M 163.34588,73.538947 L 163.34588,83.417057"
       style="opacity:1;fill:#cccccc;fill-opacity:1;stroke:#000000;stroke-width:1;stroke-linecap:round;stroke-linejoin:round;stroke-miterlimit:4;stroke-dasharray:none;stroke-opacity:1" />
    <path
       id="path3403"
       d="M 165.70397,73.222507 L 165.70397,83.160177"
       style="opacity:1;fill:#cccccc;fill-opacity:1;stroke:#000000;stroke-width:1;stroke-linecap:round;stroke-linejoin:round;stroke-miterlimit:4;stroke-dasharray:none;stroke-opacity:1" />
    <path
       id="path3405"
       d="M 168.23049,73.222507 L 168.23049,82.486437"
       style="opacity:1;fill:#cccccc;fill-opacity:1;stroke:#000000;stroke-width:1;stroke-linecap:round;stroke-linejoin:round;stroke-miterlimit:4;stroke-dasharray:none;stroke-opacity:1" />
    <path
       id="path3407"
       d="M 171.26232,72.548767 L 171.26232,82.317997"
       style="opacity:1;fill:#cccccc;fill-opacity:1;stroke:#000000;stroke-width:1;stroke-linecap:round;stroke-linejoin:round;stroke-miterlimit:4;stroke-dasharray:none;stroke-opacity:1" />
    <path
       id="path3409"
       d="M 174.29415,72.043467 L 174.29415,81.812697"
       style="opacity:1;fill:#cccccc;fill-opacity:1;stroke:#000000;stroke-width:1;stroke-linecap:round;stroke-linejoin:round;stroke-miterlimit:4;stroke-dasharray:none;stroke-opacity:1" />
    <path
       id="path3411"
       d="M 199.39097,73.222507 L 199.39097,82.991737"
       style="opacity:1;fill:#cccccc;fill-opacity:1;stroke:#000000;stroke-width:1;stroke-linecap:round;stroke-linejoin:round;stroke-miterlimit:4;stroke-dasharray:none;stroke-opacity:1" />
    <path
       sodipodi:nodetypes="cc"
       id="path3413"
       d="M 201.58063,73.430067 L 201.58063,83.248617"
       style="opacity:1;fill:#cccccc;fill-opacity:1;stroke:#000000;stroke-width:1;stroke-linecap:round;stroke-linejoin:round;stroke-miterlimit:4;stroke-dasharray:none;stroke-opacity:1" />
    <path
       sodipodi:nodetypes="cc"
       id="path3415"
       d="M 204.61246,74.153127 L 204.61246,83.971697"
       style="opacity:1;fill:#cccccc;fill-opacity:1;stroke:#000000;stroke-width:1;stroke-linecap:round;stroke-linejoin:round;stroke-miterlimit:4;stroke-dasharray:none;stroke-opacity:1" />
    <path
       id="path3417"
       d="M 194.33792,72.548767 L 194.33792,74.738427"
       style="opacity:1;fill:#cccccc;fill-opacity:1;stroke:#000000;stroke-width:1;stroke-linecap:round;stroke-linejoin:round;stroke-miterlimit:4;stroke-dasharray:none;stroke-opacity:1" />
    <path
       id="path3419"
       d="M 196.52758,73.054077 L 196.52758,81.981127"
       style="opacity:1;fill:#cccccc;fill-opacity:1;stroke:#000000;stroke-width:1;stroke-linecap:round;stroke-linejoin:round;stroke-miterlimit:4;stroke-dasharray:none;stroke-opacity:1" />
    <path
       sodipodi:nodetypes="cc"
       id="path3421"
       d="M 161.24044,282.67145 L 161.24044,292.44068"
       style="opacity:1;fill:#cccccc;fill-opacity:1;stroke:#000000;stroke-width:1;stroke-linecap:round;stroke-linejoin:round;stroke-miterlimit:4;stroke-dasharray:none;stroke-opacity:1" />
    <path
       sodipodi:nodetypes="cc"
       id="path3423"
       d="M 166.63036,283.8505 L 166.63036,293.70394"
       style="opacity:1;fill:#cccccc;fill-opacity:1;stroke:#000000;stroke-width:1;stroke-linecap:round;stroke-linejoin:round;stroke-miterlimit:4;stroke-dasharray:none;stroke-opacity:1" />
    <path
       sodipodi:nodetypes="cc"
       id="path3425"
       d="M 163.85118,283.59784 L 163.85118,293.19864"
       style="opacity:1;fill:#cccccc;fill-opacity:1;stroke:#000000;stroke-width:1;stroke-linecap:round;stroke-linejoin:round;stroke-miterlimit:4;stroke-dasharray:none;stroke-opacity:1" />
    <path
       sodipodi:nodetypes="cc"
       id="path3427"
       d="M 169.07266,284.27158 L 169.07266,293.78816"
       style="opacity:1;fill:#cccccc;fill-opacity:1;stroke:#000000;stroke-width:1;stroke-linecap:round;stroke-linejoin:round;stroke-miterlimit:4;stroke-dasharray:none;stroke-opacity:1" />
    <path
       sodipodi:nodetypes="cc"
       id="path3429"
       d="M 171.68341,284.60845 L 171.68341,294.37768"
       style="opacity:1;fill:#cccccc;fill-opacity:1;stroke:#000000;stroke-width:1;stroke-linecap:round;stroke-linejoin:round;stroke-miterlimit:4;stroke-dasharray:none;stroke-opacity:1" />
    <path
       sodipodi:nodetypes="cc"
       id="path3431"
       d="M 174.29415,284.86111 L 174.29415,294.37768"
       style="opacity:1;fill:#cccccc;fill-opacity:1;stroke:#000000;stroke-width:1;stroke-linecap:round;stroke-linejoin:round;stroke-miterlimit:4;stroke-dasharray:none;stroke-opacity:1" />
    <path
       sodipodi:nodetypes="cc"
       id="path3433"
       d="M 176.65224,285.02954 L 176.65224,294.71455"
       style="opacity:1;fill:#cccccc;fill-opacity:1;stroke:#000000;stroke-width:1;stroke-linecap:round;stroke-linejoin:round;stroke-miterlimit:4;stroke-dasharray:none;stroke-opacity:1" />
    <path
       id="path3435"
       d="M 178.67346,284.94532 L 178.67346,295.05142"
       style="opacity:1;fill:#cccccc;fill-opacity:1;stroke:#000000;stroke-width:1;stroke-linecap:round;stroke-linejoin:round;stroke-miterlimit:4;stroke-dasharray:none;stroke-opacity:1" />
    <path
       id="path3437"
       d="M 196.19071,284.60845 L 196.19071,287.64028"
       style="opacity:1;fill:#cccccc;fill-opacity:1;stroke:#000000;stroke-width:1;stroke-linecap:round;stroke-linejoin:round;stroke-miterlimit:4;stroke-dasharray:none;stroke-opacity:1" />
    <path
       id="path3439"
       d="M 198.5488,283.93471 L 198.5488,288.48246"
       style="opacity:1;fill:#cccccc;fill-opacity:1;stroke:#000000;stroke-width:1;stroke-linecap:round;stroke-linejoin:round;stroke-miterlimit:4;stroke-dasharray:none;stroke-opacity:1" />
    <path
       id="path3441"
       d="M 200.57002,283.76628 L 200.57002,293.70394"
       style="opacity:1;fill:#cccccc;fill-opacity:1;stroke:#000000;stroke-width:1;stroke-linecap:round;stroke-linejoin:round;stroke-miterlimit:4;stroke-dasharray:none;stroke-opacity:1" />
    <path
       sodipodi:nodetypes="cc"
       id="path3443"
       d="M 202.92811,283.17676 L 202.92811,292.94599"
       style="opacity:1;fill:#cccccc;fill-opacity:1;stroke:#000000;stroke-width:1;stroke-linecap:round;stroke-linejoin:round;stroke-miterlimit:4;stroke-dasharray:none;stroke-opacity:1" />
    <path
       id="path3445"
       d="M 205.2862,282.50301 L 205.2862,291.93537"
       style="opacity:1;fill:#cccccc;fill-opacity:1;stroke:#000000;stroke-width:1;stroke-linecap:round;stroke-linejoin:round;stroke-miterlimit:4;stroke-dasharray:none;stroke-opacity:1" />
    <rect
       transform="matrix(0.996501,-8.3580407e-2,8.3580407e-2,0.996501,0,0)"
       style="opacity:1;fill:#000000;fill-opacity:1;stroke:none;stroke-width:5;stroke-linecap:butt;stroke-linejoin:round;stroke-miterlimit:4;stroke-dasharray:none;stroke-opacity:1"
       id="rect3469"
       width="9.3000002"
       height="33"
       x="161.51382"
       y="28.497437" />
    <path
       style="opacity:1;fill:#000000;fill-opacity:1;stroke:none;stroke-width:5;stroke-linecap:butt;stroke-linejoin:round;stroke-miterlimit:4;stroke-dasharray:none;stroke-opacity:1"
       d="M 197.88856,14.702829 L 196.61228,23.927457 L 208.34428,25.550647 L 205.0979,49.014637 L 214.29157,50.286637 L 217.53795,26.822647 L 229.3009,28.450117 L 230.57718,19.22549 L 197.88856,14.702829 z "
       id="path3476"
       sodipodi:nodetypes="ccccccccc" />
    <path
       sodipodi:nodetypes="ccccccccc"
       id="path3478"
       d="M 244.30918,25.140057 L 240.20819,33.500947 L 250.84167,38.716637 L 240.41029,59.983607 L 248.74312,64.070837 L 259.1745,42.803867 L 269.83604,48.033327 L 273.93704,39.672437 L 244.30918,25.140057 z "
       style="opacity:1;fill:#000000;fill-opacity:1;stroke:none;stroke-width:5;stroke-linecap:butt;stroke-linejoin:round;stroke-miterlimit:4;stroke-dasharray:none;stroke-opacity:1" />
    <path
       style="opacity:1;fill:#000000;fill-opacity:1;stroke:none;stroke-width:5;stroke-linecap:butt;stroke-linejoin:round;stroke-miterlimit:4;stroke-dasharray:none;stroke-opacity:1"
       d="M 301.18314,59.393137 C 292.68916,52.671627 280.60639,53.797627 274.20214,61.890667 C 267.79791,69.983707 269.47943,82.001777 277.97342,88.723287 C 286.46739,95.444787 298.57389,94.337557 304.97811,86.244507 C 311.38234,78.151467 309.6771,66.114637 301.18314,59.393137 z M 295.73634,66.276267 C 300.24766,69.846187 301.15345,76.227947 297.75203,80.526317 C 294.3506,84.824677 287.93154,85.410087 283.42022,81.840157 C 278.90888,78.270217 278.0031,71.888477 281.40452,67.590097 C 284.80593,63.291717 291.22502,62.706337 295.73634,66.276267 z "
       id="path3487" />
    <path
       sodipodi:nodetypes="ccccccccsccccsccc"
       style="opacity:1;fill:#000000;fill-opacity:1;stroke:none;stroke-width:5;stroke-linecap:butt;stroke-linejoin:round;stroke-miterlimit:4;stroke-dasharray:none;stroke-opacity:1"
       d="M 328.75959,92.493017 L 297.49175,110.33461 L 302.10702,118.42299 L 310.92824,113.38956 L 315.51254,121.42365 C 314.4497,126.37639 309.89723,132.07554 309.89723,132.07553 L 314.96164,140.95103 C 314.96164,140.95103 320.3928,133.74801 321.58935,129.10983 C 325.62985,131.82358 330.87082,132.26896 335.1901,129.80434 C 341.38209,126.2712 343.36882,118.09607 339.63181,111.54686 L 328.75959,92.493017 z M 325.28648,105.19667 L 331.54342,116.16213 C 332.58787,117.99254 332.04208,120.26709 330.31154,121.25454 C 328.58101,122.24203 326.31799,121.57012 325.27357,119.73974 L 319.01663,108.77428 L 325.28648,105.19667 z "
       id="path3520" />
    <rect
       transform="matrix(0.1880404,0.9821613,-0.9821613,0.1880404,0,0)"
       style="opacity:1;fill:#000000;fill-opacity:1;stroke:none;stroke-width:5;stroke-linecap:butt;stroke-linejoin:round;stroke-miterlimit:4;stroke-dasharray:none;stroke-opacity:1"
       id="rect3522"
       width="9.3000002"
       height="33"
       x="210.11449"
       y="-317.06598" />
    <path
       style="opacity:1;fill:#000000;fill-opacity:1;stroke:none;stroke-width:5;stroke-linecap:butt;stroke-linejoin:round;stroke-miterlimit:4;stroke-dasharray:none;stroke-opacity:1"
       d="M 110.99367,29.832267 L 124.15408,60.094517 L 146.39225,50.423607 L 142.67842,41.883697 L 128.98017,47.840777 L 119.53359,26.118447 L 110.99367,29.832267 z "
       id="path3529"
       sodipodi:nodetypes="ccccccc" />
    <path
       sodipodi:nodetypes="ccccccccccccc"
       style="opacity:1;fill:#000000;fill-opacity:1;stroke:none;stroke-width:5;stroke-linecap:butt;stroke-linejoin:round;stroke-miterlimit:4;stroke-dasharray:none;stroke-opacity:1"
       d="M 355.41363,190.13506 L 323.15845,170.74467 L 322.7612,180.73678 L 327.49561,183.58335 L 326.60925,205.87824 L 321.6638,208.33997 L 321.26531,218.3633 L 354.95927,201.56353 L 355.41363,190.13506 z M 347.34889,195.53771 L 336.08552,201.15721 L 336.56718,189.04178 L 347.34889,195.53771 z "
       id="path3542" />
    <path
       style="opacity:1;fill:#000000;fill-opacity:1;stroke:none;stroke-width:5;stroke-linecap:butt;stroke-linejoin:round;stroke-miterlimit:4;stroke-dasharray:none;stroke-opacity:1"
       d="M 40.802649,90.575107 L 56.586339,124.74029 L 62.530099,116.69842 L 60.213629,111.68328 L 73.475649,93.739857 L 78.949739,94.482737 L 84.912079,86.415737 L 47.600839,81.377227 L 40.802649,90.575107 z M 50.509589,90.638297 L 62.984189,92.319637 L 55.777369,102.0704 L 50.509589,90.638297 z "
       id="path3544"
       sodipodi:nodetypes="ccccccccccccc" />
    <path
       sodipodi:nodetypes="ccccccccccccc"
       id="path3546"
       d="M 12.889236,196.72622 L 46.146719,214.34223 L 46.002519,204.34327 L 41.120969,201.75714 L 40.799219,179.44696 L 45.604169,176.72114 L 45.459519,166.69093 L 12.724308,185.28991 L 12.889236,196.72622 z M 20.649707,190.89496 L 31.592389,184.67402 L 31.767231,196.79776 L 20.649707,190.89496 z "
       style="opacity:1;fill:#000000;fill-opacity:1;stroke:none;stroke-width:5;stroke-linecap:butt;stroke-linejoin:round;stroke-miterlimit:4;stroke-dasharray:none;stroke-opacity:1" />
    <path
       style="opacity:1;fill:#000000;fill-opacity:1;stroke:none;stroke-width:5;stroke-linecap:butt;stroke-linejoin:round;stroke-miterlimit:4;stroke-dasharray:none;stroke-opacity:1"
       d="M 245.39086,306.38072 L 244.40206,344.00261 L 253.29382,339.42693 L 253.43935,333.90458 L 273.27907,323.69511 L 277.85728,326.78664 L 286.77682,322.19666 L 255.5608,301.1473 L 245.39086,306.38072 z M 254.06487,310.73848 L 264.50304,317.77319 L 253.72179,323.32119 L 254.06487,310.73848 z "
       id="path3548"
       sodipodi:nodetypes="ccccccccccccc" />
    <path
       style="opacity:1;fill:#000000;fill-opacity:1;stroke:none;stroke-width:5;stroke-linecap:butt;stroke-linejoin:round;stroke-miterlimit:4;stroke-dasharray:none;stroke-opacity:1"
       d="M 16.462546,148.79694 L 48.412019,157.05714 L 54.482019,133.57912 L 45.465969,131.24811 L 41.726979,145.71009 L 18.793548,139.7809 L 16.462546,148.79694 z "
       id="path3550"
       sodipodi:nodetypes="ccccccc" />
    <path
       style="opacity:1;fill:#000000;fill-opacity:1;stroke:none;stroke-width:5;stroke-linecap:butt;stroke-linejoin:round;stroke-miterlimit:4;stroke-dasharray:none;stroke-opacity:1"
       d="M 109.44533,295.40375 L 91.997139,326.8928 L 100.14274,331.40631 L 105.06519,322.52268 L 113.15613,327.0059 C 114.82099,331.78999 113.89188,339.02475 113.89187,339.02475 L 122.83017,343.9775 C 122.83017,343.9775 123.7288,335.00122 122.3416,330.41645 C 127.20389,330.63614 131.91349,328.29394 134.32374,323.94409 C 137.77903,317.70833 135.22951,309.69086 128.63397,306.03624 L 117.59094,299.91726 L 109.44533,295.40375 z M 113.07743,308.06286 L 124.12046,314.18184 C 125.96382,315.20326 126.67913,317.43032 125.71345,319.1731 C 124.74779,320.91591 122.46506,321.51745 120.62173,320.49606 L 109.5787,314.37707 L 113.07743,308.06286 z "
       id="path3552"
       sodipodi:nodetypes="ccccccccscccccsccc" />
    <path
       style="opacity:1;fill:#000000;fill-opacity:1;stroke:none;stroke-width:5;stroke-linecap:butt;stroke-linejoin:round;stroke-miterlimit:4;stroke-dasharray:none;stroke-opacity:1"
       d="M 163.70712,316.8012 C 153.01109,315.09203 143.02233,321.98302 141.39383,332.17419 C 139.76535,342.36533 147.10926,352.02599 157.80531,353.73516 C 168.50133,355.44431 178.51997,348.55808 180.14844,338.36692 C 181.77692,328.17578 174.40314,318.51035 163.70712,316.8012 z M 162.3221,325.46876 C 168.00297,326.37653 171.91393,331.50018 171.04901,336.9129 C 170.18407,342.32561 164.87121,345.97535 159.19034,345.06758 C 153.50943,344.15981 149.59849,339.03617 150.46341,333.62344 C 151.32833,328.21072 156.64123,324.561 162.3221,325.46876 z "
       id="path3554" />
    <path
       style="fill:#000000;fill-opacity:1;stroke:none;stroke-width:5;stroke-linecap:butt;stroke-linejoin:round;stroke-miterlimit:4;stroke-opacity:1"
       d="M 193.98921,320.75966 L 194.11504,354.31168 L 203.72859,352.50825 L 203.69085,338.23934 L 214.35581,351.53212 L 219.47797,335.2778 L 224.61428,348.59027 L 234.22784,346.78684 L 222.18488,315.47038 L 214.10702,316.98573 L 210.47816,330.86143 L 202.06704,319.24433 L 193.98921,320.75966 z "
       id="path3567" />
  </g>
</svg>
