<?xml version="1.0" encoding="UTF-8" standalone="no"?>
<!-- Created with Inkscape (http://www.inkscape.org/) -->
<!-- http://www.albanianair.com/Sky_Magazine_March_April_2011.zip -->
<svg
   xmlns:svg="http://www.w3.org/2000/svg"
   xmlns="http://www.w3.org/2000/svg"
   version="1.0"
   width="437.188"
   height="61.7978">
  <path
     d="M 104.125,0.0168 C 79.8015,0.8627 7.5603,40.2884 1.9687,43.3606 C 1.9687,43.3604 0.7652,44.043 0,44.8606 L 7.0313,44.8606 C 69.7645,11.2281 87.1915,9.5998 91.3435,10.048 C 96.4035,10.4453 90.8785,16.9537 83.3435,24.1106 C 73.1425,34.2224 58.6563,44.8293 58.6563,44.8293 L 78.2815,44.8293 C 79.8135,43.6492 81.3445,42.4126 82.8435,41.173 C 90.3665,35.0352 105.179,22.4132 111.438,13.1418 C 112.468,11.7425 113.133,10.5011 113.531,9.423 L 113.562,9.3606 C 114.625,6.4398 113.732,4.5938 112.812,3.173 C 111.252,1.3221 108.953,0.3727 106.312,0.048 C 105.631,-0.0075 104.91,-0.0105 104.125,0.0168 z M 117.625,39.9856 C 115.82,41.7392 114.084,43.5213 112.344,45.298 L 119.625,45.298 C 121.276,43.5164 122.974,41.7391 124.688,39.9856 L 117.625,39.9856 z M 134.062,39.9856 C 133.768,42.054 133.605,43.1175 133.312,45.298 L 140.5,45.298 C 140.679,43.1175 140.766,42.0541 140.938,39.9856 L 134.062,39.9856 z M 144.938,39.9856 C 143.938,41.7473 142.96,43.5312 142,45.298 L 148.875,45.298 C 149.829,43.5312 150.781,41.7426 151.781,39.9856 C 149.041,39.9805 147.672,39.9856 144.938,39.9856 z M 155.344,39.9856 C 155.137,40.4255 154.977,40.8958 154.844,41.3293 C 153.976,44.2598 158.096,45.6962 162,45.6418 C 168.089,45.5478 173.826,43.3496 177.156,39.9856 L 169.844,39.9856 C 168.304,41.2397 166.338,42.2043 164.312,42.2043 C 162.744,42.2043 161.909,41.5832 162.125,40.5168 C 162.16,40.3322 162.221,40.1535 162.281,39.9856 L 155.344,39.9856 z M 179.375,39.9856 L 179.312,40.3293 C 178.605,42.8396 180.52,45.683 184.969,45.6418 C 188.547,45.6022 191.644,44.1064 193.625,42.2356 L 193.781,42.2356 C 193.363,43.3249 192.946,44.3701 192.656,45.298 L 198.969,45.298 C 199.274,43.8164 200.037,41.759 200.844,40.0168 C 197.804,40.0168 196.315,39.9887 193.281,39.9856 C 191.754,41.36 190.103,41.9888 188.812,41.9856 C 187.131,41.9854 186.418,41.1771 186.531,39.9856 L 179.375,39.9856 z M 204.969,40.0168 C 204.006,41.7804 203.069,43.5345 202.125,45.298 L 208.969,45.298 C 209.922,43.5346 210.869,41.7804 211.812,40.0168 C 209.076,40.0168 207.703,40.0168 204.969,40.0168 z M 219.188,40.0168 C 218.244,41.7804 217.286,43.5345 216.344,45.298 L 223.188,45.298 C 224.134,43.5379 225.082,41.7837 226.031,40.0168 L 219.188,40.0168 z M 229.812,40.0168 C 228.866,41.7804 227.952,43.5377 227,45.298 L 233.844,45.298 C 234.795,43.5379 235.719,41.7804 236.656,40.0168 L 229.812,40.0168 z M 239.562,40.0168 L 239.469,40.3293 C 238.818,42.8478 240.779,45.683 245.219,45.6418 C 248.788,45.6006 251.889,44.1078 253.844,42.2356 L 254,42.2356 C 253.589,43.32 253.188,44.3767 252.906,45.298 L 259.25,45.298 C 259.546,43.828 260.245,41.7656 261,40.0168 L 253.438,40.0168 C 251.94,41.3931 250.291,41.9856 249,41.9856 C 247.32,41.9855 246.634,41.2101 246.719,40.0168 L 239.562,40.0168 z M 265.125,40.0168 C 264.216,41.7854 263.315,43.541 262.375,45.298 C 265.125,45.2982 266.481,45.298 269.219,45.298 C 270.149,43.5378 271.058,41.7821 271.969,40.0168 C 269.231,40.0135 267.865,40.0168 265.125,40.0168 z M 279.344,40.0168 C 278.442,41.7821 277.517,43.5377 276.594,45.298 L 283.438,45.298 C 284.366,43.5411 285.284,41.7821 286.188,40.0168 L 279.344,40.0168 z M 297.25,40.0168 C 295.551,41.7788 293.827,43.541 292.125,45.298 L 299.406,45.298 C 301.041,43.5411 302.671,41.7788 304.281,40.0168 L 297.25,40.0168 z M 313.625,40.0168 C 313.469,42.1035 313.349,43.1506 313.094,45.298 L 320.281,45.298 C 320.409,43.1554 320.469,42.1052 320.5,40.0168 C 317.753,40.0152 316.38,40.0184 313.625,40.0168 z M 324.594,40.0168 C 323.733,41.787 322.818,43.5461 321.906,45.298 L 328.75,45.298 C 329.668,43.546 330.541,41.782 331.406,40.0168 C 328.666,40.0168 327.332,40.0218 324.594,40.0168 z M 335.25,40.0168 C 334.39,41.782 333.507,43.5509 332.594,45.298 L 339.438,45.298 C 340.341,43.551 341.209,41.782 342.062,40.0168 L 335.25,40.0168 z M 350.938,40.0168 C 350.087,41.7804 349.202,43.5509 348.281,45.298 L 355.125,45.298 C 356.048,43.551 356.928,41.7804 357.781,40.0168 L 350.938,40.0168 z M 361.625,40.0168 C 360.634,42.1035 360.113,43.1635 359,45.298 L 365.844,45.298 C 366.957,43.1636 367.479,42.1084 368.469,40.0168 L 361.625,40.0168 z M 372.281,40.0168 C 371.296,42.1101 370.791,43.1635 369.688,45.298 C 372.426,45.2981 373.791,45.298 376.531,45.298 C 377.639,43.1605 378.168,42.1101 379.156,40.0168 L 372.281,40.0168 z M 386.5,40.0168 C 385.521,42.1085 385.019,43.1652 383.906,45.298 L 390.75,45.298 C 391.863,43.1653 392.394,42.1085 393.375,40.0168 L 386.5,40.0168 z M 396.406,40.0168 C 396.123,43.5209 400.096,45.6962 405.281,45.6418 C 408.308,45.6088 411.416,45.2586 414.219,44.423 C 414.313,43.1244 414.363,42.4588 414.406,41.173 C 412.459,41.7582 410.231,42.1451 407.719,42.1418 C 405.717,42.1418 404.195,41.7503 403.469,40.9856 C 403.224,40.73 403.084,40.3448 403.031,40.0168 C 400.38,40.0135 399.055,40.0168 396.406,40.0168 z M 426.875,40.0168 C 427.228,40.3085 427.349,40.6344 427.281,40.9856 C 427.149,41.7321 426.031,42.3293 424.094,42.3293 C 421.856,42.3293 419.44,41.7019 418.188,41.2668 C 417.286,42.5178 416.827,43.1622 415.875,44.423 C 417.101,45.1155 419.807,45.589 422.719,45.6418 C 427.87,45.7242 433.848,44.0198 434.5,40.2668 L 434.531,40.0168 L 426.875,40.0168 z M 360.25,49.298 C 359.248,49.298 358.163,49.4599 357.344,49.923 C 356.32,50.4801 355.832,51.3358 355.625,52.1106 L 355.5,52.4543 L 354.188,52.4543 L 353.781,53.923 L 355.094,53.923 L 353.594,59.1106 L 356.594,59.1106 L 358.062,53.923 L 360.062,53.923 L 360.5,52.4543 L 358.469,52.4543 L 358.594,52.1418 C 358.781,51.4743 359.382,50.923 360.344,50.923 C 360.738,50.923 361.041,50.9344 361.312,51.0168 L 361.844,49.4543 C 361.51,49.3587 360.979,49.298 360.25,49.298 z M 379.812,49.4543 L 376.969,59.1106 L 380,59.1106 L 382.812,49.4543 L 379.812,49.4543 z M 385.281,49.4543 L 383.219,56.173 C 383.091,56.5818 383,56.983 383,57.3918 C 383,58.5736 384.2,59.2668 386.625,59.2668 C 391.216,59.2668 393.406,56.7729 393.406,54.6106 C 393.406,53.427 392.44,52.298 390.312,52.298 C 389.06,52.298 387.911,52.652 387.156,53.2356 L 387.125,53.2356 L 388.312,49.4543 L 385.281,49.4543 z M 315.719,49.548 C 314.8,49.548 314.022,50.0071 314,50.673 C 314,51.2582 314.622,51.6105 315.438,51.6106 L 315.469,51.6106 C 316.428,51.6106 317.219,51.209 317.219,50.5168 C 317.219,49.9317 316.596,49.5481 315.719,49.548 z M 329,49.548 C 328.079,49.548 327.274,50.0071 327.25,50.673 C 327.25,51.2582 327.902,51.6105 328.719,51.6106 C 329.68,51.6106 330.5,51.209 330.5,50.5168 C 330.5,49.9317 329.878,49.5481 329,49.548 z M 421.75,49.548 C 420.832,49.548 420.053,50.0071 420.031,50.673 C 420.031,51.2582 420.651,51.6105 421.469,51.6106 L 421.5,51.6106 C 422.459,51.6106 423.25,51.209 423.25,50.5168 C 423.25,49.9317 422.625,49.5481 421.75,49.548 z M 296.188,49.798 C 293.118,49.798 290.625,50.9174 290.625,52.7668 C 290.625,53.965 292.06,54.6752 293.562,55.2043 C 294.854,55.6394 295.469,55.9664 295.469,56.4856 C 295.469,57.2059 294.385,57.5793 293.219,57.5793 C 291.923,57.5793 290.74,57.3102 289.906,56.9856 L 288.906,58.5793 C 289.575,58.9073 290.978,59.2404 292.938,59.2668 C 296.072,59.2668 298.656,58.1823 298.656,56.1418 C 298.656,55.0539 297.557,54.3206 295.844,53.7356 C 294.654,53.3005 293.812,52.985 293.812,52.4543 C 293.812,51.9499 294.541,51.4856 295.938,51.4856 C 297.106,51.4724 298.103,51.727 298.562,51.8918 L 299.5,50.2356 C 298.897,50.0179 297.899,49.798 296.188,49.798 z M 369.938,49.923 L 363.094,59.1106 L 366.312,59.1106 L 367.969,56.7356 L 372.031,56.7356 L 372.312,59.1106 L 375.469,59.1106 L 373.812,49.923 L 369.938,49.923 z M 336.219,50.6418 L 333.125,51.2043 L 332.75,52.4543 L 331.438,52.4543 L 331,53.923 L 332.312,53.923 L 331.5,56.5793 C 331.353,57.0968 331.312,57.4321 331.312,57.798 C 331.312,58.6288 332.142,59.2668 333.938,59.2668 C 334.584,59.2668 335.341,59.2045 335.719,59.1106 L 336.094,57.5793 C 335.818,57.6073 335.519,57.5793 335.25,57.5793 C 334.601,57.5793 334.375,57.3744 334.375,57.048 C 334.375,56.8172 334.483,56.463 334.562,56.2043 L 335.25,53.923 L 337.406,53.923 L 337.844,52.4543 L 335.688,52.4543 L 336.219,50.6418 z M 371.375,51.4543 L 371.406,51.4543 C 371.473,52.0114 371.567,52.7657 371.625,53.2668 L 371.906,55.2356 L 368.844,55.2356 L 370.25,53.2668 C 370.627,52.736 371.019,52.0114 371.375,51.4543 z M 307.469,52.298 C 306.235,52.298 305.021,52.7011 304.188,53.423 L 304.156,53.423 L 304.344,52.3918 L 301.656,52.3918 C 301.531,53.0726 301.264,54.2257 301.031,55.0168 L 299.094,61.7978 L 302.062,61.7978 L 302.906,58.9856 L 302.938,58.9856 C 303.293,59.1224 304.01,59.2668 304.844,59.2668 C 308.394,59.2668 310.75,57.1417 310.75,54.8293 C 310.75,53.4678 309.678,52.298 307.469,52.298 z M 324.594,52.298 C 323.192,52.298 322.051,52.9146 321.344,53.798 L 321.25,53.798 C 321.315,53.3365 321.409,52.9043 321.469,52.4543 L 318.844,52.4543 C 318.74,53.0246 318.606,54.1331 318.312,55.1418 L 317.188,59.1106 L 320.188,59.1106 L 320.875,56.6418 C 321.25,55.338 322.171,54.2043 324.094,54.2043 L 324.562,54.2356 L 325.156,52.3293 L 324.594,52.298 z M 348,52.298 C 344.365,52.298 341.906,54.206 341.906,56.5168 C 341.906,58.1617 343.661,59.2668 346.25,59.2668 C 349.8,59.2668 352.344,57.4842 352.344,55.048 C 352.344,53.5398 350.733,52.298 348,52.298 z M 401.781,52.298 C 396.75,52.298 394.469,54.7111 394.469,56.9543 C 394.469,58.3422 395.728,59.2668 397.562,59.2668 C 398.75,59.2668 400.031,58.8991 400.969,57.798 L 401.031,57.798 C 400.966,58.2727 400.925,58.7149 400.906,59.1106 L 403.688,59.1106 C 403.644,58.2799 403.813,56.966 404.062,56.1106 L 405.156,52.6418 C 404.305,52.4655 402.988,52.298 401.781,52.298 z M 413.844,52.298 C 412.483,52.298 411.211,52.6778 410.25,53.548 L 410.188,53.548 L 410.406,52.4543 L 407.75,52.4543 C 407.627,53.0394 407.438,53.7682 407.188,54.6106 L 405.906,59.1106 L 408.906,59.1106 L 409.75,56.1418 C 410.166,54.6732 411.332,53.8918 412.312,53.8918 C 413.065,53.8918 413.312,54.2115 413.312,54.673 C 413.312,54.917 413.283,55.1891 413.219,55.423 L 412.125,59.1106 L 415.156,59.1106 L 416.281,55.2356 C 416.363,54.9092 416.438,54.4088 416.438,54.1106 C 416.438,52.9683 415.51,52.298 413.844,52.298 z M 430.75,52.298 C 425.721,52.298 423.438,54.7111 423.438,56.9543 C 423.438,58.3422 424.69,59.2668 426.531,59.2668 C 427.719,59.2668 429.031,58.8991 429.969,57.798 L 430.031,57.798 C 429.971,58.2727 429.897,58.7149 429.875,59.1106 L 432.656,59.1106 C 432.618,58.2799 432.812,56.966 433.062,56.1106 L 434.125,52.6418 C 433.271,52.4655 431.962,52.298 430.75,52.298 z M 313.594,52.4543 L 311.625,59.1106 L 314.656,59.1106 L 316.594,52.4543 L 313.594,52.4543 z M 326.844,52.4543 L 324.906,59.1106 L 327.906,59.1106 L 329.844,52.4543 L 326.844,52.4543 z M 419.594,52.4543 L 417.656,59.1106 L 420.656,59.1106 L 422.625,52.4543 L 419.594,52.4543 z M 347.625,53.798 C 348.837,53.798 349.219,54.4366 349.219,55.048 C 349.219,56.1903 348.305,57.7668 346.656,57.7668 C 345.615,57.7668 345.031,57.2306 345.031,56.4543 C 345.012,55.4225 345.892,53.7981 347.625,53.798 z M 400.969,53.798 C 401.26,53.798 401.55,53.8013 401.781,53.8293 L 401.281,55.3918 C 400.824,57.0236 399.743,57.6731 398.844,57.673 C 398.01,57.673 397.594,57.232 397.594,56.5793 C 397.594,55.3415 399.026,53.7981 400.969,53.798 z M 429.938,53.798 C 430.231,53.798 430.524,53.8013 430.75,53.8293 L 430.281,55.3918 C 429.824,57.0236 428.712,57.6731 427.812,57.673 C 426.976,57.673 426.594,57.232 426.594,56.5793 C 426.594,55.3415 427.993,53.7981 429.938,53.798 z M 306.281,53.8918 C 307.264,53.8918 307.594,54.4236 307.594,54.9543 C 307.594,56.2597 306.356,57.7668 304.75,57.7668 C 304.161,57.7668 303.678,57.6587 303.344,57.4543 L 303.719,56.0168 C 304.094,54.7114 305.154,53.8918 306.281,53.8918 z M 388.906,53.8918 C 389.825,53.8918 390.25,54.3937 390.25,55.048 C 390.25,56.205 388.986,57.7668 387.25,57.7668 C 386.562,57.7668 386.115,57.5244 386.094,57.048 C 386.07,56.7645 386.152,56.5157 386.219,56.298 L 386.406,55.7668 C 386.76,54.6114 387.824,53.8918 388.906,53.8918 z"
     style="fill:#005da2;fill-opacity:1;fill-rule:nonzero;stroke:none" />
  <path
     d="M 117.75,7.1106 C 117.718,7.7814 117.584,8.5332 117.281,9.3606 L 117.25,9.423 C 116.851,10.5009 116.179,11.7424 115.156,13.1418 C 108.897,22.4131 94.0865,35.0349 86.5625,41.173 C 85.1305,42.3615 83.6625,43.5407 82.1875,44.673 L 82.0315,44.8293 L 91.9375,44.8293 C 91.9375,44.8293 113.95,26.8347 117.938,18.8606 C 120.042,14.3806 120.675,10.0988 117.75,7.1106 z M 154.281,23.2356 C 151.439,28.6336 148.387,33.9529 145.344,39.298 L 152.188,39.298 C 155.215,33.9529 158.255,28.6335 161.094,23.2356 L 154.281,23.2356 z M 164.781,23.2356 C 162.034,28.36 159.071,33.4419 156.125,38.5168 C 155.97,38.7838 155.834,39.0328 155.688,39.298 L 162.594,39.298 C 162.677,39.1284 162.751,38.9662 162.844,38.798 C 163.136,38.315 163.294,38.0655 163.594,37.5793 C 164.649,35.6788 167.117,33.5252 170.375,33.4543 C 172.382,33.4032 173.125,34.5401 172.75,35.9856 C 172.476,37.0371 171.704,38.2367 170.594,39.298 C 173.468,39.3031 174.906,39.3293 177.781,39.3293 C 179,37.948 179.78,36.4425 180.156,35.048 C 180.839,32.5378 178.887,29.816 174.469,29.8918 C 171.613,29.938 168.815,30.7048 166.75,32.0168 L 166.656,32.0168 C 168.362,29.0977 170.047,26.1827 171.625,23.2356 L 164.781,23.2356 z M 358.594,23.2356 C 356.175,28.6039 353.807,33.9791 351.281,39.3293 L 358.125,39.3293 C 360.64,33.9791 362.964,28.6039 365.375,23.2356 L 358.594,23.2356 z M 335.219,23.4856 C 333.137,23.4855 331.127,24.5498 330.844,26.0793 C 330.591,27.4177 331.904,28.2718 333.75,28.2668 L 333.781,28.2668 C 335.95,28.2668 337.95,27.341 338.219,25.7356 C 338.442,24.3808 337.197,23.4856 335.219,23.4856 z M 371.969,23.4856 C 369.889,23.4856 367.914,24.5268 367.656,26.048 C 367.433,27.3831 368.745,28.2356 370.594,28.2356 L 370.625,28.2356 C 372.803,28.2306 374.788,27.3047 375.031,25.7043 C 375.236,24.356 373.957,23.4856 371.969,23.4856 z M 311.781,24.3606 C 307.238,29.3811 302.613,34.3763 297.875,39.3293 C 305.44,39.3293 313.007,39.3276 320.562,39.3293 C 320.601,34.3466 320.478,29.3415 320.5,24.3606 C 317.589,24.3606 314.687,24.3572 311.781,24.3606 z M 133.5,24.423 C 128.609,29.4666 123.447,34.3583 118.312,39.298 C 125.897,39.2981 133.453,39.298 141.031,39.298 C 141.446,34.3336 141.879,29.3942 142.281,24.423 C 139.357,24.423 136.423,24.423 133.5,24.423 z M 314.375,27.8918 L 314.469,27.8918 C 314.385,29.1691 314.276,30.8531 314.219,31.9856 C 314.154,33.764 314.111,34.6233 314.031,36.3918 L 307.125,36.3918 C 308.726,34.6266 309.517,33.7673 311.094,31.9856 C 312.161,30.7955 313.353,29.1691 314.375,27.8918 z M 135.812,27.9856 L 135.906,27.9856 C 135.713,29.2695 135.439,30.9257 135.281,32.048 C 135.055,33.8051 134.945,34.6793 134.719,36.423 L 127.781,36.423 C 129.534,34.6809 130.416,33.8051 132.156,32.048 C 133.338,30.8647 134.671,29.2729 135.812,27.9856 z M 390.375,29.7668 C 387.077,29.8228 383.93,30.903 381.844,32.6106 L 381.75,32.6106 C 382.077,31.6149 382.228,31.1095 382.562,30.1106 C 380.139,30.1105 378.923,30.1368 376.5,30.1418 C 376.031,31.467 375.42,33.118 374.562,35.0168 C 373.807,36.7425 373.432,37.597 372.625,39.3293 L 379.5,39.3293 C 379.651,38.9881 379.723,38.8251 379.875,38.4856 C 380.788,36.3626 383.01,33.5402 386.438,33.3606 C 387.998,33.2749 388.625,34.1017 388.469,35.1418 C 388.387,35.6972 388.2,36.3035 387.969,36.8293 C 387.529,37.8348 387.308,38.3239 386.844,39.3293 L 393.688,39.3293 C 394.226,38.1607 394.514,37.585 395.031,36.423 C 395.327,35.6896 395.627,34.5183 395.75,33.8606 C 396.142,31.6602 393.916,29.7124 390.375,29.7668 z M 411.406,29.7668 C 403.618,29.8294 397.37,34.2136 396.531,39.1106 L 396.5,39.3293 L 406.062,39.3293 C 411.115,39.2535 418.329,38.2769 418.875,34.2668 C 419.272,31.4268 415.372,29.7322 411.406,29.7668 z M 431.281,29.7668 C 426.452,29.7536 420.882,31.4304 420.406,34.9543 C 420.151,36.8284 422.207,38.0906 424.781,38.9543 C 425.19,39.0862 425.533,39.2041 425.844,39.3293 L 434.531,39.3293 C 434.2,37.7404 432.045,36.7288 430,36.048 C 428.217,35.4547 427.325,34.9457 427.406,34.3293 C 427.51,33.5266 428.813,32.9856 430.625,32.9856 C 432.663,32.9856 434.226,33.3664 435.188,33.673 C 435.993,32.417 436.382,31.7761 437.188,30.5168 C 436.101,30.0801 433.979,29.7685 431.281,29.7668 z M 352.281,29.798 C 348.911,29.8244 346.087,31.3797 344.375,33.2043 L 344.25,33.2043 C 344.562,32.1576 344.861,31.1571 345.156,30.1418 L 339.25,30.1418 C 338.606,32.184 337.885,34.1918 337.062,36.2043 C 336.485,37.4537 336.2,38.0749 335.594,39.3293 L 342.406,39.3293 C 343.543,36.88 346.055,34.1156 350.5,34.1106 C 350.884,34.1106 351.255,34.1418 351.594,34.1418 C 352.387,32.4293 352.774,31.555 353.562,29.8293 C 353.142,29.798 352.697,29.798 352.281,29.798 z M 283.719,29.8293 C 280.402,29.8919 277.187,30.9918 275.031,32.673 L 274.969,32.673 C 275.356,31.6858 275.526,31.1686 275.906,30.173 C 273.493,30.173 272.286,30.173 269.875,30.173 C 269.329,31.4999 268.613,33.1657 267.656,35.048 C 266.793,36.754 266.382,37.6118 265.5,39.3293 C 268.243,39.3293 269.579,39.3276 272.312,39.3293 C 272.49,38.993 272.604,38.8234 272.781,38.4856 C 273.803,36.361 276.166,33.5714 279.594,33.3918 C 281.154,33.3094 281.707,34.1084 281.5,35.1418 C 281.397,35.6907 281.19,36.315 280.938,36.8293 C 280.447,37.8265 280.202,38.3255 279.688,39.3293 L 286.531,39.3293 C 287.115,38.1673 287.397,37.5801 287.969,36.423 C 288.298,35.6946 288.69,34.5412 288.844,33.8918 C 289.354,31.7309 287.243,29.7683 283.719,29.8293 z M 223.906,29.8606 C 220.57,29.9248 217.341,31.0346 215.125,32.7043 L 215.031,32.7043 C 215.456,31.7219 215.673,31.1999 216.094,30.2043 C 213.677,30.2043 212.451,30.229 210.031,30.2356 C 209.433,31.5559 208.679,33.1724 207.656,35.048 C 206.744,36.7457 206.273,37.6118 205.344,39.3293 L 212.188,39.3293 C 212.37,38.9898 212.482,38.8202 212.656,38.4856 C 213.754,36.356 216.202,33.6044 219.656,33.423 C 221.221,33.3389 221.745,34.1446 221.5,35.173 C 221.38,35.7202 221.135,36.3151 220.875,36.8293 C 220.341,37.8183 220.094,38.3321 219.562,39.3293 L 226.406,39.3293 C 227.021,38.1739 227.332,37.6032 227.938,36.4543 C 228.298,35.7258 228.733,34.5642 228.906,33.923 C 229.502,31.7803 227.42,29.7931 223.906,29.8606 z M 258.375,29.8606 C 249.548,29.8523 241.837,33.694 239.812,39.3293 L 246.875,39.3293 C 247.68,36.552 251.204,33.2372 255.844,33.173 C 256.493,33.1647 257.149,33.232 257.656,33.298 C 256.928,34.6727 256.572,35.3659 255.844,36.7356 C 255.324,37.7542 254.733,38.6288 254.094,39.3293 L 261.312,39.3293 C 261.464,38.998 261.63,38.6802 261.781,38.3918 C 263.171,35.7958 264.534,33.177 265.875,30.5793 C 264.026,30.1788 261.104,29.8606 258.375,29.8606 z M 198.531,29.8918 C 189.698,29.8852 181.822,33.7038 179.656,39.3293 L 186.719,39.3293 C 187.599,36.5437 191.237,33.262 195.875,33.2043 C 196.528,33.1894 197.186,33.27 197.688,33.3293 C 196.916,34.699 196.528,35.3707 195.75,36.7356 C 195.206,37.7475 194.591,38.6255 193.938,39.3293 L 201.188,39.3293 C 201.351,38.9964 201.496,38.6835 201.656,38.3918 C 203.119,35.809 204.595,33.2033 206.031,30.6106 C 204.186,30.2167 201.268,29.8918 198.531,29.8918 z M 329.219,30.1418 C 327.82,33.2092 326.399,36.28 324.906,39.3293 L 331.75,39.3293 C 333.223,36.28 334.649,33.2158 336.031,30.1418 C 333.31,30.1484 331.945,30.1418 329.219,30.1418 z M 366.094,30.1418 C 364.757,33.2124 363.404,36.2784 361.969,39.3293 L 368.812,39.3293 C 370.25,36.2784 371.589,33.2157 372.906,30.1418 C 370.185,30.1451 368.82,30.1418 366.094,30.1418 z M 235,30.2043 C 233.428,33.2403 231.805,36.2982 230.188,39.3293 L 237.031,39.3293 C 238.646,36.2982 240.221,33.2453 241.781,30.2043 C 239.055,30.2043 237.716,30.1993 235,30.2043 z M 410.125,33.0168 C 411.702,33.0168 412.568,33.5267 412.469,34.2668 L 412.469,34.298 C 411.56,36.3435 406.8,36.1617 404.25,36.1106 C 404.925,34.6964 406.942,33.0168 410.125,33.0168 z M 239.45,28.2955 L 239.498,28.2955 C 241.688,28.2955 243.541,27.3675 243.541,25.7885 C 243.541,24.4535 242.113,23.5898 240.113,23.5898 C 238.022,23.5898 236.212,24.6117 236.173,26.1297 C 236.173,27.4615 237.594,28.2955 239.45,28.2955"
     style="fill:#ed1941;fill-opacity:1;fill-rule:nonzero;stroke:none" />
</svg>
