<?xml version="1.0" encoding="UTF-8"?>
<!DOCTYPE svg PUBLIC "-//W3C//DTD SVG 1.1//EN" "http://www.w3.org/Graphics/SVG/1.1/DTD/svg11.dtd">
<!-- Creator: CorelDRAW X7 -->
<svg xmlns="http://www.w3.org/2000/svg" xml:space="preserve" width="6.98756in" height="4.72441in" version="1.1" style="shape-rendering:geometricPrecision; text-rendering:geometricPrecision; image-rendering:optimizeQuality; fill-rule:evenodd; clip-rule:evenodd"
viewBox="0 0 6988 4724"
 xmlns:xlink="http://www.w3.org/1999/xlink">
 <defs>
  <style type="text/css">
   <![CDATA[
    .fil4 {fill:#FFF212}
    .fil1 {fill:#ED3237}
    .fil3 {fill:#00AFEF}
    .fil0 {fill:#3051A0}
    .fil2 {fill:#FEFEFE;fill-rule:nonzero}
   ]]>
  </style>
 </defs>
 <g id="Layer_x0020_1">
  <metadata id="CorelCorpID_0Corel-Layer"/>
  <g id="_621864272">
   <path class="fil0" d="M609 1259l-132 0 -11 -153 -263 0 -98 153 -105 0 412 -642 152 0 45 642zm-149 -246l-17 -286 -183 286 200 0z"/>
   <path class="fil0" d="M4335 1267l-132 0 -10 -153 -264 0 -97 153 -106 0 412 -641 152 0 45 641zm-149 -245l-17 -286 -182 286 199 0z"/>
   <polygon class="fil0" points="998,1267 692,1267 826,800 921,800 808,1191 1020,1191 "/>
   <path class="fil0" d="M1064 1267l135 -467 194 0c33,0 59,4 79,10 19,6 34,20 44,40 10,20 11,44 3,71 -7,26 -21,49 -43,68 -21,19 -47,31 -77,36 34,6 56,19 68,40 12,21 14,46 6,74 -11,36 -32,67 -64,91 -33,25 -75,37 -127,37l-218 0zm163 -271l110 0c22,0 42,-6 58,-19 17,-12 28,-28 33,-47 7,-22 4,-38 -8,-48 -12,-10 -28,-15 -48,-15l-108 0 -37 129zm-58 201l116 0c25,0 46,-6 64,-18 17,-12 29,-29 35,-49 6,-20 3,-36 -8,-48 -10,-13 -28,-19 -52,-19l-116 0 -39 134z"/>
   <path class="fil0" d="M1909 1267l-96 0 -8 -111 -192 0 -71 111 -76 0 300 -467 110 0 33 467zm-109 -178l-12 -209 -133 209 145 0z"/>
   <path class="fil0" d="M2345 1267l-88 0 -103 -298c-1,-5 -4,-12 -7,-22 -2,-5 -5,-12 -8,-22l-98 342 -73 0 135 -467 99 0 95 275c1,2 7,19 18,50l93 -325 71 0 -134 467z"/>
   <polygon class="fil0" points="2544,1267 2454,1267 2588,800 2678,800 "/>
   <path class="fil0" d="M3044 1267l-96 0 -8 -111 -191 0 -71 111 -77 0 300 -467 110 0 33 467zm-108 -178l-13 -209 -133 209 146 0z"/>
   <path class="fil0" d="M3480 1267l-87 0 -103 -298c-2,-5 -5,-12 -8,-22 -2,-5 -4,-12 -8,-22l-98 342 -72 0 134 -467 99 0 96 275c0,2 6,19 17,50l94 -325 70 0 -134 467z"/>
   <polygon class="fil0" points="4503,1267 4413,1267 4548,800 4637,800 "/>
   <path class="fil0" d="M5000 1267l-94 0 -22 -192 -127 0 -55 192 -90 0 135 -467 216 0c60,0 100,13 121,39 21,25 26,58 14,98 -17,60 -59,101 -125,124l27 206zm-223 -259l111 0c33,0 59,-6 78,-19 20,-13 33,-31 39,-53 6,-20 3,-37 -9,-50 -12,-12 -32,-19 -60,-19l-119 0 -40 141z"/>
   <polygon class="fil0" points="5399,1267 5092,1267 5227,800 5321,800 5209,1191 5421,1191 "/>
   <polygon class="fil0" points="5554,1267 5465,1267 5599,800 5689,800 "/>
   <path class="fil0" d="M6040 1267l-87 0 -103 -298c-2,-5 -4,-12 -8,-22 -2,-5 -4,-12 -7,-22l-99 342 -72 0 134 -467 100 0 95 275c1,2 6,19 17,50l94 -325 71 0 -135 467z"/>
   <polygon class="fil0" points="6473,1267 6149,1267 6284,800 6604,800 6584,870 6354,870 6317,996 6502,996 6483,1064 6298,1064 6260,1194 6494,1194 "/>
   <path class="fil0" d="M6531 1154l92 -17c-3,46 30,69 100,69 32,0 58,-6 79,-17 20,-12 33,-27 38,-45 4,-12 3,-24 -1,-35 -5,-11 -19,-19 -43,-25l-88 -24c-31,-8 -52,-17 -65,-27 -12,-10 -21,-24 -25,-43 -4,-18 -3,-38 3,-59 12,-41 38,-75 79,-100 40,-25 86,-38 137,-38 43,0 79,9 108,27 28,17 43,42 43,74l-92 20c-2,-35 -28,-53 -76,-53 -28,0 -51,5 -69,16 -18,11 -29,25 -34,42 -8,27 10,45 53,56l79 20c48,12 77,30 88,53 11,24 12,50 4,78 -14,46 -42,82 -87,109 -44,26 -96,39 -154,39 -50,0 -90,-10 -122,-29 -31,-19 -47,-50 -47,-91z"/>
   <path class="fil1" d="M2164 330c467,-502 909,-361 1345,-41 502,-363 919,-310 1299,-67 -588,-142 -1052,-53 -1333,375 -273,-556 -762,-498 -1311,-267z"/>
   <g>
    <path class="fil2" d="M3578 4684l-245 13 0 -6 245 -13 3 3 -3 3zm3 -3l1 3 -4 0 3 -3zm-49 -267l49 267 -6 1 -49 -267 3 -3 3 2zm-3 -2l3 -1 0 3 -3 -2zm-185 10l185 -10 0 6 -185 10 -3 -3 3 -3zm-3 3l0 -3 3 0 -3 3zm-11 269l11 -269 6 0 -11 269 -3 3 -3 -3zm3 3l-3 0 0 -3 3 3z"/>
   </g>
   <path class="fil0" d="M3371 2070c597,0 1083,487 1083,1083 0,597 -486,1083 -1083,1083 -596,0 -1083,-486 -1083,-1083 0,-596 487,-1083 1083,-1083zm-23 2381c88,-4 120,-4 208,-13l78 266c85,-21 194,-38 279,-75l-73 -265c59,-19 130,-50 189,-91l164 221c73,-45 153,-103 221,-169l-170 -206c43,-44 111,-110 149,-160l223 149c55,-61 98,-122 143,-215l-228 -155c29,-59 60,-126 79,-185l259 90c25,-83 45,-159 60,-242l-271 -67c9,-59 10,-108 14,-172 90,-5 179,-8 269,-12 3,-75 5,-157 -13,-242 -89,9 -185,18 -274,27 -12,-58 -28,-118 -45,-176l253 -102c-23,-78 -57,-153 -91,-226l-251 120c-32,-60 -63,-118 -100,-168 65,-66 130,-123 194,-189 -52,-67 -106,-129 -168,-186 -67,61 -136,124 -202,185 -44,-41 -93,-82 -148,-117 39,-85 82,-159 121,-244 -83,-53 -166,-103 -259,-135 -35,85 -80,161 -115,247 -67,-23 -130,-42 -202,-60l35 -275c-82,-19 -184,-27 -271,-27l-32 275c-79,-4 -157,7 -236,20l-64 -269c-86,15 -176,38 -267,75l84 264c-66,25 -131,58 -196,99l-160 -229c-81,54 -151,111 -227,176l163 228c-40,38 -83,85 -128,138l-233 -142c-52,69 -97,141 -138,215l229 157c-29,60 -53,121 -73,181l-264 -63c-17,76 -37,146 -49,228l267 57c-5,60 -11,120 -11,179l-268 24c5,85 12,165 21,239l271 -37c10,58 25,117 46,175l-253 99c29,80 62,155 101,230l238 -134c31,59 65,115 103,163 -68,59 -139,118 -207,176 58,76 123,145 191,209 63,-64 127,-133 190,-198 46,44 95,83 147,117 -45,80 -91,157 -136,237 81,47 162,98 243,130 43,-75 87,-168 131,-243 56,20 113,45 190,60 -11,89 -23,182 -35,271 90,22 176,34 266,35l39 -273z"/>
   <polygon class="fil3" points="3219,3145 3423,3011 3391,2863 "/>
   <path class="fil4" d="M3727 2810l1076 -708c12,-8 28,6 23,19l-740 1707c-3,7 -6,14 -20,8 -1,0 -2,-1 -3,-1l-458 -40c-6,0 -13,-7 -14,-12l-110 -503 -616 446c-5,3 -9,7 -15,4l-414 -36c-12,-1 -18,-15 -12,-25l1057 -1481c7,-10 23,-8 28,4l218 618zm177 502l444 -659 -539 390 95 269z"/>
   <path class="fil1" d="M2404 3693l457 40c179,-294 344,-624 524,-919 7,-11 25,-8 28,5 68,316 108,660 177,978l492 42 -583 -1682 -1095 1536z"/>
  </g>
 </g>
</svg>
