<svg xmlns:xlink="http://www.w3.org/1999/xlink" xmlns="http://www.w3.org/2000/svg" viewBox="0 0 1640 404" class="h-12 z-10" width="1640"  height="404" ><g><path d="M197 19l154 0c17,0 30,15 30,34l0 292 -14 0 0 -289c0,-13 -9,-23 -21,-23l-149 0 0 -14zm-15 385l-151 0c-17,0 -31,-16 -31,-34l0 -307 14 0 0 303c0,13 10,23 21,23l147 0 0 15z" style="" fill="#0B4584"></path> <path d="M197 38l145 0c11,0 20,10 20,23l0 284 -14 0 0 -277c0,-8 -7,-15 -14,-15l-137 0 0 -15zm-15 346l-142 0c-11,0 -20,-10 -20,-23l0 -298 14 0 0 291c0,9 6,16 14,16l134 0 0 14z" style="" fill="#E31E24"></path> <path d="M1141 298l0 -75c0,-11 0,-45 -42,-45l-48 0c15,0 32,13 32,32l0 88 58 0z" style="" fill="#0B4584"></path> <path d="M1073 298l0 -64 -20 0c-51,0 -51,64 -1,64l21 0z" style="" fill="#0B4584"></path> <path d="M931 298l0 -120 -17 0c-70,0 -68,120 0,120l17 0z" style="" fill="#0B4584"></path> <circle cx="1049" cy="205" r="24" style="" fill="#0B4584"></circle> <path d="M1640 298l0 -75c0,-11 0,-45 -41,-45l-49 0c15,0 32,13 32,32l0 88 58 0z" style="" fill="#0B4584"></path> <path d="M1572 298l0 -64 -20 0c-51,0 -51,64 -1,64l21 0z" style="" fill="#0B4584"></path> <circle cx="1549" cy="205" r="24" style="" fill="#0B4584"></circle> <path d="M1156 178l59 0 0 120c-20,0 -59,5 -59,-44l0 -76z" style="" fill="#0B4584"></path> <path d="M1298 298l59 0 0 -120c-20,0 -59,-4 -59,45l0 75z" style="" fill="#0B4584"></path> <path d="M1283 178l-59 0 0 120c20,0 59,5 59,-44l0 -76z" style="" fill="#0B4584"></path> <path d="M1426 298l-59 0 0 -120c19,0 59,-4 59,45l0 75z" style="" fill="#0B4584"></path> <rect x="1440" y="178" width="58.981" height="120.078" style="" fill="#0B4584"></rect> <rect x="789" y="178" width="58.981" height="120.078" style="" fill="#0B4584"></rect> <rect x="642" y="172" width="58.981" height="126.767" style="" fill="#0B4584"></rect> <rect x="258" y="172" width="58.981" height="126.767" style="" fill="#0B4584"></rect> <polygon points="447,298 607,114 689,114 530,298 " style="" fill="#0B4584"></polygon> <polygon points="63,298 223,114 304,114 145,298 " style="" fill="#0B4584"></polygon> <rect x="941" y="114" width="58.981" height="184.307" style="" fill="#0B4584"></rect> <rect x="715" y="114" width="58.981" height="184.307" style="" fill="#0B4584"></rect> <circle cx="818" cy="146" r="28" style="" fill="#0B4584"></circle> <circle cx="1470" cy="146" r="28" style="" fill="#0B4584"></circle> <path d="M156 37l-24 0 -27 4 -2 -4 0 0 -41 0 0 8 -9 0 -1 -8 -21 0 -7 -4c-5,1 -22,4 -24,8 -3,6 18,6 21,6 6,1 18,0 26,0 6,0 15,0 19,1 2,0 4,1 8,2l5 -10 15 0 18 8c8,-1 17,-3 25,-5 1,0 2,0 2,1 2,0 2,-2 3,-2 2,-1 13,-5 14,-5zm-95 0l-8 0 1 7 7 0 0 -7zm64 0l-21 0 0 0 2 2 19 -2zm-49 13c3,0 7,1 13,1 1,0 9,-1 10,-1 4,0 7,-1 11,-1l-17 -7 -13 0 -4 8z" style="" fill="#E31E24"></path> <path d="M27 32l3 3 22 0 2 -9 8 0 0 9 41 0 0 -9 1 0 0 9 26 0 1 -8 2 0 -1 8 32 0c2,-1 6,-2 8,-3 2,-1 2,-3 0,-4 0,-2 17,-24 20,-28 -19,0 -22,0 -28,5l-27 20c0,1 -5,0 -6,0 -8,-2 -19,-3 -27,-2 0,0 -1,0 -1,0 0,0 -1,0 -1,1 -16,-1 -32,-1 -48,-1 -4,0 -11,0 -15,1 -2,1 -6,5 -9,6 0,1 -3,2 -3,2zm26 3l8 0 0 -9 -6 0 -2 9zm-13 -10l3 0 -1 1 5 0 -1 5 -7 0 -1 2 -8 -1 10 -7zm0 1l1 0 0 0 -3 4 -1 2 -4 -1 7 -5zm2 0l4 0 -1 4 -6 0 3 -4zm141 -24l3 2 -2 -2 -8 0 -7 2 3 1 -1 -1 5 -2 7 0zm-4 5l5 -1 -5 0 -21 21 12 0 0 0 -10 0 19 -20zm-103 25c1,-2 1,-4 0,-5 -1,0 -2,0 -2,1 -1,0 -2,4 0,4 1,0 2,0 2,0zm9 -4c-1,-1 -2,-1 -2,-1 -2,1 -2,5 -1,5 0,1 2,0 2,0 1,0 1,0 1,-1 1,-1 0,-2 0,-3zm-29 0c0,0 0,0 0,0 0,0 0,0 0,0 -1,1 -1,2 0,3 0,1 0,1 1,1 0,0 2,0 2,0 1,0 1,-4 0,-5 -1,0 -2,0 -3,1zm9 4c0,0 1,0 2,0 1,0 1,0 1,-1 0,-1 0,-3 0,-3 -1,-1 -2,-1 -2,-1 -1,1 -1,1 -2,2 0,1 0,2 1,3z" style="" fill="#0B4584"></path> <path d="M212 380c0,0 -3,1 -3,1 0,1 0,1 0,2 2,3 54,10 58,10 1,0 9,2 9,3 1,1 9,4 10,4 2,0 4,0 5,1 4,1 16,0 16,1 1,1 0,2 3,2 11,0 21,0 32,0 1,0 3,-1 3,-2 5,0 28,1 29,-5 0,-4 -14,-7 -16,-7 -1,-1 -1,-1 -1,-2l-4 0 1 1c0,2 -1,3 -2,4 -3,2 -4,1 -5,1l-2 -5 -1 0 1 3c1,1 0,3 -1,3l-1 0 -5 0c-2,0 -3,-1 -3,-2l0 -4 -5 0 0 3c0,1 -1,2 -2,2l-7 0c0,0 0,0 -1,-1l0 -4 -1 0 0 4c0,1 0,1 -1,1l-7 0c-1,0 -1,-1 -1,-2l-1 -3 -19 0 -78 -9z" style="" fill="#0B4584"></path> <path d="M285 372c-1,1 -1,0 -1,1 -4,1 -8,2 -12,3 -2,1 -1,1 -3,1 -11,0 -23,1 -35,1 -1,0 -2,-1 -3,-1 -3,-1 -5,-4 -7,-6 -2,-2 -5,-5 -7,-8 -1,0 -1,0 -1,-1 -1,-1 -1,-1 -1,-2 0,0 0,0 0,0 0,-1 0,-2 -1,-2 0,0 0,-1 1,-1 1,0 1,1 1,-1 1,-2 4,-7 4,-9 -1,0 -2,-1 -3,0 -1,2 -3,10 -4,10 0,1 -1,2 -1,2l-5 2c0,0 -1,-1 -1,-1 -2,0 -10,1 -11,1 0,1 0,1 1,2 1,1 1,0 3,0 2,0 5,0 7,-1 0,0 9,13 9,16 0,0 0,0 0,1 0,0 68,7 74,8l20 0 0 -2c0,-1 1,-2 2,-2l6 0c1,0 1,1 1,2l1 2 1 0 0 -2c0,-1 0,-2 2,-2l5 0c1,0 2,1 2,2l0 2 6 0 -1 -4c0,0 1,-1 2,-1l3 0c1,0 2,0 2,1l2 4 1 0 -2 -4c0,-1 0,-1 1,-1l2 -1 7 6 4 0c-1,-1 -2,-2 -3,-2 0,0 0,0 -1,0 0,0 -2,-2 -2,-2l-1 0c0,-1 -2,-2 -3,-3 -3,-1 -4,-2 -7,-3 -1,-1 0,0 -2,-1 1,0 1,0 1,0 2,0 6,-5 6,-6 0,0 -5,4 -6,5 -1,0 -2,0 -3,1 -1,0 -2,0 -3,-1 0,0 0,0 0,-1l-47 -2zm55 7l-5 -1 -1 2 1 1 5 0 3 -1 -3 -1z" style="" fill="#E31E24"></path> <path d="M291 361c-16,-1 -31,-3 -47,-4 -1,-1 -7,-1 -8,-1 0,0 -1,0 -1,0 -1,0 -2,0 -3,0 0,0 -1,1 -1,1 0,0 0,0 0,0 1,0 2,-1 4,-1 0,0 1,0 1,0 15,2 30,4 44,6l6 0c0,0 -1,0 -1,1 0,0 1,0 1,0 1,0 1,0 1,0l0 -1 1 1c1,0 1,0 1,0 0,0 2,0 2,0l1 -1 14 2 0 1c1,0 2,0 2,0 1,0 1,0 2,0 0,1 0,2 -1,2 -3,0 -8,0 -11,1 -3,0 -6,1 -9,1 0,0 -1,2 -1,3 0,0 29,1 40,1 -1,-2 -3,-3 -4,-4 -2,-1 -4,-1 -7,-1 0,0 1,-2 1,-2 0,0 2,0 2,0 0,0 1,0 0,0 0,-1 -1,0 0,-1 1,0 6,1 7,1 3,1 2,1 6,1 13,2 26,3 39,4 2,0 3,0 5,1 1,0 1,1 2,1 1,0 1,0 2,0l1 0c0,0 -3,-2 -4,-2 0,0 -1,0 -2,0l-54 -7c-1,0 -1,0 -1,0 0,0 0,0 0,-1 -1,0 -2,0 -2,0 0,1 0,1 0,0l-4 0c0,0 0,0 1,0 0,0 1,0 2,0 0,0 0,-1 -1,-1 -1,0 -1,-2 -3,-2 -2,0 -2,1 -3,1 -1,1 -1,1 -1,1 0,0 2,0 2,0 0,0 0,0 0,1 0,0 -5,-1 -6,-1l0 0 1 1c-6,-1 -11,-1 -16,-2z" style="" fill="#E31E24"></path></g></svg>