<?xml version="1.0" encoding="UTF-8"?>
<!-- Created with Inkscape (http://www.inkscape.org/) -->
<svg width="222.69" height="51.461" version="1.1" viewBox="0 0 58.919 13.616" xmlns="http://www.w3.org/2000/svg" xmlns:cc="http://creativecommons.org/ns#" xmlns:dc="http://purl.org/dc/elements/1.1/" xmlns:rdf="http://www.w3.org/1999/02/22-rdf-syntax-ns#">
 <metadata>
  <rdf:RDF>
   <cc:Work rdf:about="">
    <dc:format>image/svg+xml</dc:format>
    <dc:type rdf:resource="http://purl.org/dc/dcmitype/StillImage"/>
   </cc:Work>
  </rdf:RDF>
 </metadata>
 <g transform="translate(-39.464 -157.01)">
  <g transform="translate(.13229 -.13229)">
   <path d="m51.832 170.76 1.102-7.8355-7.5295 7.8355" fill="#be210c"/>
   <path d="m54.414 157.14c-1.4391 0-2.4402 0.37098-3.7311 1.7773l-11.351 11.838h4.3223l11.195-11.658-1.6385 11.658h3.3194l1.91-13.616" fill="#00663f"/>
   <path d="m75.172 168.93c-0.1691-0.12778-0.2553-0.31945-0.2553-0.57607 0-0.60572 0.3693-1.0575 1.0819-1.18 0.1462-0.0247 0.4744-0.0395 0.6548-0.0395h0.9541l-0.2788 1.9901h-1.3975c-0.3424 0-0.5856-0.0639-0.7592-0.19449m-0.7-6.3614-1.0254 1.6724h3.5979c0.6926 0 0.8712 0.21144 0.8712 0.6036 0 0.11719-0.01799 0.27003-0.043 0.4317-0.01 0.0402-0.01799 0.11578-0.033 0.21885h-1.4807c-1.5334 0-2.521 0.19484-3.3025 0.99011-0.4427 0.45111-0.7745 1.222-0.7745 2.2019 0 0.75961 0.3227 1.3452 0.8843 1.6834 0.3738 0.22556 1.061 0.39287 2.0596 0.39287h4.785l0.6721-4.7801c0.06-0.43028 0.1257-0.86269 0.1257-1.4391 0-0.67384-0.3121-1.3223-1.1451-1.682-0.4645-0.20014-1.0932-0.29368-1.9149-0.29368zm18.143 6.3614c-0.1698-0.12778-0.2552-0.31945-0.2552-0.57607 0-0.60572 0.3692-1.0575 1.0819-1.18 0.1458-0.0247 0.4744-0.0395 0.6544-0.0395h0.9538l-0.2781 1.9901h-1.3975c-0.3435 0-0.5856-0.0639-0.7593-0.19449m-1.3734-6.3614-0.2348 1.6724h3.4808c0.6918 0 0.8708 0.21144 0.8708 0.6036 0 0.11719-0.01799 0.27003-0.043 0.4317-0.01 0.0402-0.01799 0.11578-0.033 0.21885h-1.4807c-1.5338 0-2.5214 0.19484-3.3025 0.99011-0.443 0.45111-0.7745 1.222-0.7745 2.2019 0 0.75961 0.323 1.3452 0.8835 1.6834 0.3742 0.22556 1.0614 0.39287 2.0597 0.39287h4.7857l0.6714-4.7801c0.061-0.43028 0.126-0.86269 0.126-1.4391 0-0.67384-0.3117-1.3223-1.1454-1.682-0.4638-0.20014-1.0925-0.29368-1.9143-0.29368zm-27.869-3.4e-4 -1.1521 8.1952h2.91l1.1514-8.1952zm23.401 0-1.1518 8.1952h2.9104l1.1514-8.1952zm-27.418-2.0067-1.4339 10.202h2.9097l1.4338-10.202zm4.2996 0-0.198 1.4042h2.9104l0.1973-1.4042zm4.2789 0-1.0618 7.5676c-0.059 0.42217-0.094 0.74938-0.094 0.95729 0 0.30886 0.024 0.45605 0.073 0.64102 0.1941 0.74726 0.7706 1.036 1.6491 1.036h2.7907l0.2517-1.6724h-1.1507c-0.4829 0-0.6587-0.15426-0.6587-0.47123 0-0.0995 0.01101-0.23438 0.036-0.40629l0.5581-3.9725h1.9781l1.0247-1.6724h-2.7681l0.2821-2.0071zm14.839 0-1.4341 10.202h2.9103l1.4342-10.202zm4.2828 0-0.1977 1.4042h2.9103l0.1977-1.4042" fill="#00663f"/>
  </g>
 </g>
</svg>
