<svg enable-background="new 0 0 468 238.7" height="225.779898" viewBox="0 0 468 238.7" width="442.909226" xmlns="http://www.w3.org/2000/svg"><g fill="#ff0926"><path d="m59.3 151.8-47.3 81.8h18l9-16.1h11.3l-4.3 16.1h15.6l20.9-81.8zm-5.6 53.3h-7.7l15.2-27.1z"/><path d="m64.2 233.6 35.3-81.8h17.4l-29.2 67.6h12.5l-5.9 14.2z"/><path d="m152.6 151.8h-16.6l-35.2 81.8h12.8 3.8 13.4l6-14.2h-13.3z"/><path d="m192.8 167.2 6.6-15.4h-28.6l-30.5 70.8-4.7 11h30.4l6.1-14.2h-13.8l7.9-18.3h12l6.5-15h-12.1l8.2-18.9z"/><path d="m342.7 167.2 6.7-15.4h-29.7l-30.5 70.8-4.8 11h30.5l6.1-14.2h-13.9l8-18.3h13l6.5-15h-13.1l8.1-18.9z"/><path d="m238.7 182.5h-14.9l3.1-8.1c1.2-3.3-1.2-6.8-4.7-6.8-5.9 0-13.5 15.6-18.8 27.2-5.2 11.6-7.1 23.4-.8 23.4 7.7 0 10.2-8.8 11.9-13.3h-6.4l6.5-13.5h21.3s-4.6 12.8-8.4 21.8-10.3 21.8-28.1 21.8c-15.1 0-23.8-13.8-10.7-44s24-41.2 38.6-41.2 20 13.5 11.4 32.7z"/><path d="m289.1 151.8-14.8 34.4h-9.7l14.8-34.4h-16.6l-35.2 81.8h16.5l14-32.3h9.7l-13.9 32.3h16.6l35.2-81.8z"/><path d="m325.3 233.6 35.3-81.8h14l-.4 36.8 15.9-36.8h15.1l-35.3 81.8h-13.5l2.6-39.6-17.1 39.6z"/><path d="m446.1 151.8-24.5 33.7-1.3 1.4 2.1-35.1h-15.1l-2 52.8-12.3 29h16l11.3-26.6 43.6-55.2z"/></g><path d="m4.1 137.2 154.5-50.5 89.8 50.5z" fill="#00256a"/><path d="m264.5 137.2-234.4-133.5 428.2 133.5z" fill="#ff0926"/></svg>