<?xml version="1.0" encoding="UTF-8" standalone="no"?>
<!-- Created with Inkscape (http://www.inkscape.org/) -->

<svg
   xmlns:dc="http://purl.org/dc/elements/1.1/"
   xmlns:cc="http://creativecommons.org/ns#"
   xmlns:rdf="http://www.w3.org/1999/02/22-rdf-syntax-ns#"
   xmlns:svg="http://www.w3.org/2000/svg"
   xmlns="http://www.w3.org/2000/svg"
   xmlns:sodipodi="http://sodipodi.sourceforge.net/DTD/sodipodi-0.dtd"
   xmlns:inkscape="http://www.inkscape.org/namespaces/inkscape"
   width="83.676659"
   height="16.282379"
   viewBox="0 0 22.139449 4.3080463"
   version="1.1"
   id="svg10466"
   inkscape:version="0.92.0 r15299"
   sodipodi:docname="alsie express.svg">
  <defs
     id="defs10460">
    <clipPath
       id="clipPath10061"
       clipPathUnits="userSpaceOnUse">
      <path
         inkscape:connector-curvature="0"
         id="path10059"
         d="m 495.477,36.032 h 62.007 v 11.462 h -62.007 z" />
    </clipPath>
  </defs>
  <sodipodi:namedview
     id="base"
     pagecolor="#ffffff"
     bordercolor="#666666"
     borderopacity="1.0"
     inkscape:pageopacity="0.0"
     inkscape:pageshadow="2"
     inkscape:zoom="0.80071889"
     inkscape:cx="161.33859"
     inkscape:cy="-91.20992"
     inkscape:document-units="mm"
     inkscape:current-layer="layer1"
     showgrid="false"
     fit-margin-top="0"
     fit-margin-left="0"
     fit-margin-right="0"
     fit-margin-bottom="0"
     units="px"
     inkscape:window-width="1280"
     inkscape:window-height="744"
     inkscape:window-x="-4"
     inkscape:window-y="-4"
     inkscape:window-maximized="1" />
  <metadata
     id="metadata10463">
    <rdf:RDF>
      <cc:Work
         rdf:about="">
        <dc:format>image/svg+xml</dc:format>
        <dc:type
           rdf:resource="http://purl.org/dc/dcmitype/StillImage" />
        <dc:title></dc:title>
      </cc:Work>
    </rdf:RDF>
  </metadata>
  <g
     inkscape:label="Layer 1"
     inkscape:groupmode="layer"
     id="layer1"
     transform="translate(-65.413806,-199.46364)">
    <g
       id="g10707"
       transform="translate(0.13229092,-0.13229072)">
      <g
         style="fill:#9a989b;fill-opacity:1"
         id="g10677">
        <g
           id="g10063"
           transform="matrix(0.35277777,0,0,-0.35277777,73.858635,201.60048)"
           style="fill:#9a989b;fill-opacity:1">
          <path
             d="M 0,0 H 3.118 C 3.43,0 3.637,0.03 3.742,0.091 3.845,0.151 3.897,0.279 3.897,0.474 3.897,0.94 3.713,1.349 3.344,1.703 2.975,2.056 2.51,2.233 1.949,2.233 1.408,2.233 0.948,2.065 0.569,1.731 0.189,1.396 0,0.996 0,0.53 Z m -1.013,-1.152 v 1.573 c 0,0.703 0.291,1.309 0.873,1.819 0.582,0.51 1.283,0.766 2.104,0.766 0.79,0 1.474,-0.244 2.05,-0.732 C 4.591,1.787 4.88,1.178 4.88,0.447 4.88,0.185 4.846,-0.025 4.778,-0.184 4.71,-0.343 4.601,-0.455 4.451,-0.52 4.3,-0.585 4.162,-0.628 4.038,-0.646 3.913,-0.665 3.742,-0.674 3.523,-0.674 H 0 v -0.52 c 0,-0.552 0.221,-0.995 0.663,-1.327 0.441,-0.332 1.01,-0.499 1.707,-0.499 0.353,0 0.662,0.047 0.927,0.141 0.265,0.093 0.468,0.187 0.608,0.281 0.14,0.093 0.252,0.14 0.335,0.14 0.115,0 0.216,-0.049 0.304,-0.147 C 4.633,-2.704 4.677,-2.8 4.677,-2.893 4.677,-3.09 4.453,-3.294 4.006,-3.504 3.56,-3.715 3.003,-3.82 2.338,-3.82 c -0.987,0 -1.792,0.246 -2.416,0.737 -0.624,0.492 -0.935,1.135 -0.935,1.931"
             style="fill:#9a989b;fill-opacity:1;fill-rule:nonzero;stroke:none"
             id="path10065"
             inkscape:connector-curvature="0" />
        </g>
        <g
           id="g10067"
           transform="matrix(0.35277777,0,0,-0.35277777,75.634977,202.78959)"
           style="fill:#9a989b;fill-opacity:1">
          <path
             d="M 0,0 C 0,0.056 0.021,0.122 0.062,0.197 L 2.136,3.006 0.109,5.73 C 0.057,5.824 0.031,5.885 0.031,5.913 c 0,0.112 0.07,0.217 0.211,0.316 0.14,0.098 0.278,0.147 0.413,0.147 0.145,0 0.249,-0.047 0.312,-0.14 l 1.839,-2.57 1.855,2.57 c 0.063,0.093 0.161,0.14 0.297,0.14 0.134,0 0.272,-0.049 0.413,-0.147 C 5.511,6.13 5.581,6.025 5.581,5.913 5.581,5.866 5.555,5.805 5.503,5.73 L 3.461,3.006 5.55,0.197 C 5.591,0.14 5.612,0.075 5.612,0 5.612,-0.103 5.547,-0.204 5.417,-0.302 5.287,-0.4 5.15,-0.449 5.004,-0.449 c -0.135,0 -0.234,0.047 -0.296,0.14 L 2.806,2.317 0.92,-0.309 C 0.847,-0.402 0.738,-0.449 0.592,-0.449 0.468,-0.449 0.338,-0.4 0.203,-0.302 0.067,-0.204 0,-0.103 0,0"
             style="fill:#9a989b;fill-opacity:1;fill-rule:nonzero;stroke:none"
             id="path10069"
             inkscape:connector-curvature="0" />
        </g>
        <g
           id="g10071"
           transform="matrix(0.35277777,0,0,-0.35277777,78.18676,202.15808)"
           style="fill:#9a989b;fill-opacity:1">
          <path
             d="m 0,0 c 0,-0.252 0.195,-0.545 0.585,-0.88 0.389,-0.335 0.834,-0.503 1.333,-0.503 0.509,0 0.958,0.186 1.348,0.559 0.39,0.372 0.585,0.791 0.585,1.257 V 1.955 C 3.851,2.412 3.656,2.821 3.266,3.184 2.876,3.548 2.416,3.729 1.886,3.729 1.388,3.729 0.948,3.566 0.569,3.24 0.19,2.914 0,2.486 0,1.955 Z m -1.013,-4.223 v 8.388 c 0,0.093 0.046,0.173 0.14,0.239 0.094,0.065 0.213,0.098 0.359,0.098 0.134,0 0.249,-0.033 0.343,-0.1 0.093,-0.066 0.14,-0.147 0.14,-0.242 V 3.506 C 0.156,3.809 0.431,4.065 0.795,4.273 1.159,4.482 1.58,4.586 2.058,4.586 2.827,4.586 3.487,4.329 4.038,3.814 4.588,3.299 4.864,2.681 4.864,1.96 V 0.429 C 4.864,-0.273 4.586,-0.894 4.03,-1.432 3.474,-1.97 2.832,-2.239 2.105,-2.239 1.647,-2.239 1.226,-2.133 0.842,-1.92 0.457,-1.707 0.177,-1.449 0,-1.145 v -3.077 c 0,-0.084 -0.049,-0.164 -0.148,-0.239 -0.099,-0.075 -0.221,-0.113 -0.366,-0.113 -0.136,0 -0.253,0.038 -0.351,0.112 -0.099,0.075 -0.148,0.155 -0.148,0.239"
             style="fill:#9a989b;fill-opacity:1;fill-rule:nonzero;stroke:none"
             id="path10073"
             inkscape:connector-curvature="0" />
        </g>
        <g
           id="g10075"
           transform="matrix(0.35277777,0,0,-0.35277777,80.166584,202.78465)"
           style="fill:#9a989b;fill-opacity:1">
          <path
             d="m 0,0 v 5.941 c 0,0.093 0.047,0.173 0.14,0.239 0.094,0.065 0.213,0.098 0.359,0.098 0.135,0 0.249,-0.033 0.343,-0.1 0.093,-0.066 0.14,-0.147 0.14,-0.242 V 5.239 c 0.187,0.313 0.462,0.578 0.826,0.796 0.364,0.218 0.785,0.327 1.263,0.327 h 0.546 c 0.104,0 0.197,-0.043 0.28,-0.128 C 3.98,6.148 4.022,6.048 4.022,5.934 4.022,5.819 3.98,5.719 3.897,5.634 3.814,5.548 3.721,5.505 3.617,5.505 H 3.071 C 2.531,5.505 2.052,5.316 1.637,4.938 1.221,4.56 1.013,4.067 1.013,3.46 v -3.461 c 0,-0.093 -0.049,-0.177 -0.148,-0.252 -0.099,-0.075 -0.221,-0.112 -0.366,-0.112 -0.135,0 -0.252,0.037 -0.351,0.112 C 0.049,-0.178 0,-0.094 0,0"
             style="fill:#9a989b;fill-opacity:1;fill-rule:nonzero;stroke:none"
             id="path10077"
             inkscape:connector-curvature="0" />
        </g>
        <g
           id="g10079"
           transform="matrix(0.35277777,0,0,-0.35277777,81.871453,201.60048)"
           style="fill:#9a989b;fill-opacity:1">
          <path
             d="M 0,0 H 3.118 C 3.43,0 3.637,0.03 3.741,0.091 3.845,0.151 3.897,0.279 3.897,0.474 3.897,0.94 3.713,1.349 3.344,1.703 2.975,2.056 2.51,2.233 1.949,2.233 1.408,2.233 0.948,2.065 0.569,1.731 0.189,1.396 0,0.996 0,0.53 Z m -1.013,-1.152 v 1.573 c 0,0.703 0.29,1.309 0.873,1.819 0.582,0.51 1.283,0.766 2.104,0.766 0.79,0 1.473,-0.244 2.05,-0.732 C 4.591,1.787 4.879,1.178 4.879,0.447 4.879,0.185 4.846,-0.025 4.778,-0.184 4.71,-0.343 4.601,-0.455 4.451,-0.52 4.3,-0.585 4.162,-0.628 4.038,-0.646 3.913,-0.665 3.741,-0.674 3.523,-0.674 H 0 v -0.52 C 0,-1.746 0.221,-2.189 0.662,-2.521 1.104,-2.853 1.673,-3.02 2.37,-3.02 c 0.353,0 0.662,0.047 0.927,0.141 0.265,0.093 0.468,0.187 0.608,0.281 0.14,0.093 0.252,0.14 0.335,0.14 0.114,0 0.216,-0.049 0.304,-0.147 C 4.632,-2.704 4.677,-2.8 4.677,-2.893 4.677,-3.09 4.453,-3.294 4.006,-3.504 3.559,-3.715 3.003,-3.82 2.338,-3.82 c -0.987,0 -1.792,0.246 -2.416,0.737 -0.624,0.492 -0.935,1.135 -0.935,1.931"
             style="fill:#9a989b;fill-opacity:1;fill-rule:nonzero;stroke:none"
             id="path10081"
             inkscape:connector-curvature="0" />
        </g>
        <g
           id="g10083"
           transform="matrix(0.35277777,0,0,-0.35277777,83.697255,202.5914)"
           style="fill:#9a989b;fill-opacity:1">
          <path
             d="m 0,0 c 0,0.094 0.036,0.187 0.109,0.281 0.073,0.093 0.156,0.14 0.25,0.14 0.072,0 0.187,-0.054 0.343,-0.161 0.155,-0.108 0.379,-0.218 0.67,-0.33 0.291,-0.113 0.639,-0.169 1.044,-0.169 0.551,0 0.956,0.094 1.216,0.281 0.26,0.187 0.39,0.426 0.39,0.717 0,0.337 -0.132,0.606 -0.397,0.807 C 3.36,1.767 3.04,1.919 2.666,2.022 2.291,2.124 1.915,2.227 1.535,2.331 1.156,2.434 0.834,2.615 0.569,2.872 0.304,3.13 0.172,3.474 0.172,3.904 c 0,0.515 0.205,0.962 0.615,1.342 0.411,0.379 1.027,0.569 1.848,0.569 0.509,0 0.984,-0.073 1.426,-0.218 C 4.503,5.452 4.724,5.295 4.724,5.126 4.724,5.033 4.682,4.93 4.599,4.817 4.516,4.705 4.417,4.649 4.303,4.649 4.272,4.649 4.079,4.714 3.726,4.845 3.372,4.976 3.014,5.042 2.65,5.042 2.13,5.042 1.741,4.932 1.481,4.712 1.221,4.492 1.091,4.244 1.091,3.969 1.091,3.685 1.226,3.46 1.495,3.295 1.765,3.13 2.087,2.997 2.462,2.897 2.837,2.797 3.217,2.696 3.601,2.593 3.986,2.49 4.309,2.287 4.568,1.982 4.828,1.678 4.958,1.284 4.958,0.801 4.958,0.239 4.737,-0.204 4.295,-0.527 3.853,-0.85 3.237,-1.011 2.448,-1.011 c -0.686,0 -1.266,0.11 -1.739,0.33 C 0.236,-0.461 0,-0.234 0,0"
             style="fill:#9a989b;fill-opacity:1;fill-rule:nonzero;stroke:none"
             id="path10085"
             inkscape:connector-curvature="0" />
        </g>
        <g
           id="g10087"
           transform="matrix(0.35277777,0,0,-0.35277777,85.539601,202.5914)"
           style="fill:#9a989b;fill-opacity:1">
          <path
             d="m 0,0 c 0,0.094 0.036,0.187 0.109,0.281 0.073,0.093 0.156,0.14 0.25,0.14 0.072,0 0.187,-0.054 0.343,-0.161 0.155,-0.108 0.379,-0.218 0.67,-0.33 0.291,-0.113 0.639,-0.169 1.044,-0.169 0.551,0 0.956,0.094 1.216,0.281 0.26,0.187 0.39,0.426 0.39,0.717 0,0.337 -0.132,0.606 -0.397,0.807 C 3.359,1.767 3.04,1.919 2.666,2.022 2.291,2.124 1.914,2.227 1.535,2.331 1.156,2.434 0.834,2.615 0.569,2.872 0.304,3.13 0.171,3.474 0.171,3.904 c 0,0.515 0.206,0.962 0.616,1.342 0.411,0.379 1.026,0.569 1.848,0.569 0.509,0 0.984,-0.073 1.426,-0.218 C 4.503,5.452 4.724,5.295 4.724,5.126 4.724,5.033 4.682,4.93 4.599,4.817 4.516,4.705 4.417,4.649 4.303,4.649 4.271,4.649 4.079,4.714 3.726,4.845 3.372,4.976 3.014,5.042 2.65,5.042 2.13,5.042 1.741,4.932 1.481,4.712 1.221,4.492 1.091,4.244 1.091,3.969 1.091,3.685 1.226,3.46 1.495,3.295 1.765,3.13 2.087,2.997 2.462,2.897 2.836,2.797 3.217,2.696 3.601,2.593 3.986,2.49 4.309,2.287 4.568,1.982 4.828,1.678 4.958,1.284 4.958,0.801 4.958,0.239 4.737,-0.204 4.295,-0.527 3.853,-0.85 3.237,-1.011 2.448,-1.011 c -0.686,0 -1.266,0.11 -1.739,0.33 C 0.236,-0.461 0,-0.234 0,0"
             style="fill:#9a989b;fill-opacity:1;fill-rule:nonzero;stroke:none"
             id="path10089"
             inkscape:connector-curvature="0" />
        </g>
      </g>
      <g
         style="fill:#68a2ba;fill-opacity:1"
         id="g10661">
        <g
           id="g10091"
           transform="matrix(0.35277777,0,0,-0.35277777,71.788006,201.41104)"
           style="fill:#68a2ba;fill-opacity:1">
          <path
             d="M 0,0 C 0,0.303 0.12,0.547 0.361,0.733 0.602,0.919 0.884,1.012 1.208,1.012 1.551,1.012 1.84,0.917 2.076,0.726 2.313,0.536 2.431,0.29 2.431,-0.013 2.431,-0.151 2.401,-0.244 2.34,-0.292 2.28,-0.34 2.176,-0.363 2.028,-0.363 H 0 Z m 3.334,-2.433 c -0.102,0 -0.325,-0.088 -0.667,-0.264 -0.343,-0.176 -0.69,-0.264 -1.042,-0.264 -0.491,0 -0.884,0.123 -1.181,0.368 C 0.148,-2.347 0,-2.025 0,-1.627 v 0.208 h 2.82 c 0.194,0 0.351,0.009 0.472,0.028 0.12,0.018 0.252,0.064 0.396,0.137 0.143,0.073 0.25,0.2 0.319,0.378 0.07,0.179 0.104,0.406 0.104,0.681 0,0.754 -0.28,1.379 -0.84,1.877 C 2.711,2.18 2.037,2.429 1.25,2.429 0.407,2.429 -0.31,2.155 -0.903,1.609 -1.495,1.063 -1.792,0.41 -1.792,-0.349 V -1.53 c 0,-0.852 0.313,-1.54 0.938,-2.063 0.625,-0.523 1.433,-0.785 2.424,-0.785 0.694,0 1.275,0.128 1.743,0.382 0.467,0.255 0.701,0.512 0.701,0.771 0,0.167 -0.065,0.341 -0.194,0.521 -0.13,0.181 -0.292,0.271 -0.486,0.271"
             style="fill:#68a2ba;fill-opacity:1;fill-rule:nonzero;stroke:none"
             id="path10093"
             inkscape:connector-curvature="0" />
        </g>
        <g
           id="g10095"
           transform="matrix(0.35277777,0,0,-0.35277777,70.079045,201.87258)"
           style="fill:#68a2ba;fill-opacity:1">
          <path
             d="m 0,0 c -0.168,0.269 -0.38,0.471 -0.629,0.599 -0.241,0.125 -0.507,0.235 -0.791,0.329 -0.281,0.093 -0.548,0.168 -0.796,0.221 -0.238,0.052 -0.44,0.125 -0.601,0.22 -0.149,0.087 -0.221,0.192 -0.221,0.322 0,0.133 0.074,0.253 0.227,0.366 0.155,0.116 0.386,0.175 0.687,0.175 0.278,0 0.583,-0.057 0.904,-0.168 0.45,-0.156 0.571,-0.174 0.623,-0.174 0.207,0 0.38,0.113 0.516,0.336 0.13,0.213 0.196,0.404 0.196,0.569 0,0.271 -0.239,0.5 -0.711,0.682 -0.454,0.175 -0.978,0.264 -1.556,0.264 -0.874,0 -1.524,-0.212 -1.931,-0.63 -0.408,-0.417 -0.614,-0.921 -0.614,-1.499 0,-0.421 0.119,-0.771 0.354,-1.041 0.233,-0.268 0.52,-0.462 0.852,-0.576 0.324,-0.11 0.651,-0.207 0.97,-0.287 0.313,-0.078 0.584,-0.179 0.806,-0.3 0.208,-0.114 0.31,-0.263 0.31,-0.455 0,-0.346 -0.317,-0.513 -0.968,-0.513 -0.338,0 -0.633,0.046 -0.878,0.139 -0.249,0.093 -0.452,0.186 -0.603,0.275 C -4.019,-1.048 -4.155,-1 -4.27,-1 c -0.179,0 -0.338,-0.099 -0.47,-0.292 -0.128,-0.186 -0.193,-0.37 -0.193,-0.545 0,-0.369 0.218,-0.645 0.685,-0.87 l 0.074,-0.039 c 0.457,-0.221 1.033,-0.323 1.814,-0.323 0.815,0 1.461,0.187 1.919,0.555 0.461,0.372 0.695,0.888 0.695,1.534 C 0.254,-0.599 0.168,-0.27 0,0"
             style="fill:#68a2ba;fill-opacity:1;fill-rule:nonzero;stroke:none"
             id="path10097"
             inkscape:connector-curvature="0" />
        </g>
        <g
           id="g10099"
           transform="matrix(0.35277777,0,0,-0.35277777,70.950159,200.59083)"
           style="fill:#68a2ba;fill-opacity:1">
          <path
             d="M 0,0 C 0,0.033 -0.082,0.06 -0.247,0.08 -0.412,0.1 -0.619,0.11 -0.868,0.11 -1.117,0.11 -1.322,0.1 -1.482,0.08 -1.642,0.06 -1.722,0.033 -1.722,0 V -0.618 -1.12 -5.359 -6.008 -6.479 c 0,-0.029 0.082,-0.056 0.247,-0.079 0.164,-0.022 0.367,-0.034 0.607,-0.034 0.231,0 0.434,0.012 0.608,0.036 0.173,0.024 0.26,0.05 0.26,0.077 v 0.471 0 5.39 0.001 z"
             style="fill:#68a2ba;fill-opacity:1;fill-rule:nonzero;stroke:none"
             id="path10101"
             inkscape:connector-curvature="0" />
        </g>
        <g
           id="g10103"
           transform="matrix(0.35277777,0,0,-0.35277777,70.863058,199.74032)"
           style="fill:#68a2ba;fill-opacity:1">
          <path
             d="M 0,0 C -0.165,0.023 -0.372,0.034 -0.621,0.034 -0.87,0.034 -1.075,0.023 -1.235,0 c -0.16,-0.022 -0.24,-0.052 -0.24,-0.089 v -1.246 c 0,-0.032 0.082,-0.062 0.247,-0.087 0.164,-0.026 0.367,-0.039 0.607,-0.039 0.231,0 0.434,0.014 0.608,0.04 0.173,0.027 0.26,0.056 0.26,0.086 v 1.246 C 0.247,-0.052 0.165,-0.022 0,0"
             style="fill:#68a2ba;fill-opacity:1;fill-rule:nonzero;stroke:none"
             id="path10105"
             inkscape:connector-curvature="0" />
        </g>
        <g
           id="g10107"
           transform="matrix(0.35277777,0,0,-0.35277777,68.169353,202.87641)"
           style="fill:#68a2ba;fill-opacity:1">
          <path
             d="M 0,0 V 0.655 1.12 7.693 7.927 8.813 c 0,0.033 -0.082,0.06 -0.247,0.08 -0.165,0.02 -0.372,0.031 -0.621,0.031 -0.249,0 -0.454,-0.011 -0.614,-0.031 -0.16,-0.02 -0.24,-0.047 -0.24,-0.08 V 7.927 c 0,0 0,0 0,0 V 0.655 c 0,0 0,0 0,-0.001 V 0 c 0,-0.029 0.082,-0.056 0.247,-0.079 0.164,-0.023 0.367,-0.034 0.607,-0.034 0.231,0 0.434,0.012 0.608,0.036 C -0.087,-0.053 0,-0.028 0,0"
             style="fill:#68a2ba;fill-opacity:1;fill-rule:nonzero;stroke:none"
             id="path10109"
             inkscape:connector-curvature="0" />
        </g>
        <g
           id="g10111"
           transform="matrix(0.35277777,0,0,-0.35277777,66.246009,202.44214)"
           style="fill:#68a2ba;fill-opacity:1">
          <path
             d="m 0,0 c -0.288,0 -0.771,0.109 -0.771,0.84 0,0.527 0.359,0.794 1.067,0.794 0.319,0 0.64,-0.041 0.92,-0.082 V 0.398 C 0.799,0.134 0.39,0 0,0 M 2.45,4.613 C 1.986,5.106 1.329,5.356 0.388,5.356 -0.744,5.356 -1.57,4.971 -2.14,4.18 -2.146,4.17 -2.149,4.158 -2.147,4.147 c 0.009,-0.044 0.266,-0.32 0.548,-0.494 0.308,-0.19 0.694,-0.31 0.742,-0.31 0.013,0 0.026,0.006 0.034,0.016 0.36,0.447 0.794,0.509 1.211,0.509 0.729,0 0.828,-0.304 0.828,-0.601 V 2.8 c -0.448,0.078 -0.88,0.117 -1.284,0.117 -1.563,0 -2.291,-0.699 -2.291,-2.077 0,-1.444 0.747,-2.271 2.177,-2.271 0.753,0 1.247,0.265 1.595,0.509 L 1.51,-1.221 c 0.004,-0.013 0.015,-0.023 0.028,-0.027 0.015,-0.004 0.314,-0.1 0.677,-0.1 0.341,0 0.717,0.096 0.732,0.1 0.019,0.005 0.031,0.021 0.031,0.04 v 4.475 c 0,0.236 -0.051,0.84 -0.528,1.346"
             style="fill:#68a2ba;fill-opacity:1;fill-rule:nonzero;stroke:none"
             id="path10113"
             inkscape:connector-curvature="0" />
        </g>
      </g>
    </g>
  </g>
</svg>
