<?xml version="1.0" encoding="UTF-8" standalone="no"?>
<!-- Created with Inkscape (http://www.inkscape.org/) -->

<svg
   xmlns:dc="http://purl.org/dc/elements/1.1/"
   xmlns:cc="http://creativecommons.org/ns#"
   xmlns:rdf="http://www.w3.org/1999/02/22-rdf-syntax-ns#"
   xmlns:svg="http://www.w3.org/2000/svg"
   xmlns="http://www.w3.org/2000/svg"
   xmlns:sodipodi="http://sodipodi.sourceforge.net/DTD/sodipodi-0.dtd"
   xmlns:inkscape="http://www.inkscape.org/namespaces/inkscape"
   version="1.1"
   id="svg815"
   width="250"
   height="91"
   viewBox="0 0 250 91"
   sodipodi:docname="Alyemda_Logo.svg"
   inkscape:version="0.92.3 (2405546, 2018-03-11)">
  <metadata
     id="metadata821">
    <rdf:RDF>
      <cc:Work
         rdf:about="">
        <dc:format>image/svg+xml</dc:format>
        <dc:type
           rdf:resource="http://purl.org/dc/dcmitype/StillImage" />
        <dc:title></dc:title>
      </cc:Work>
    </rdf:RDF>
  </metadata>
  <defs
     id="defs819" />
  <sodipodi:namedview
     pagecolor="#ffffff"
     bordercolor="#666666"
     borderopacity="1"
     objecttolerance="10"
     gridtolerance="10"
     guidetolerance="10"
     inkscape:pageopacity="0"
     inkscape:pageshadow="2"
     inkscape:window-width="1600"
     inkscape:window-height="837"
     id="namedview817"
     showgrid="false"
     showguides="true"
     inkscape:guide-bbox="true"
     inkscape:zoom="4.48"
     inkscape:cx="102.47151"
     inkscape:cy="78.339239"
     inkscape:window-x="-8"
     inkscape:window-y="-8"
     inkscape:window-maximized="1"
     inkscape:current-layer="layer2" />
  <g
     inkscape:groupmode="layer"
     id="layer2"
     inkscape:label="Layer 2"
     style="display:inline">
    <path
       style="fill:#1152b6;stroke:#000000;stroke-width:0;stroke-linecap:butt;stroke-linejoin:miter;stroke-miterlimit:4;stroke-dasharray:none;stroke-opacity:1;fill-opacity:1"
       d="M 16.964286,35.642857 8.7053571,26.9375 H 104.6875 c 0.0394,0.01312 3.4966,1.264762 2.90179,5.357143 0.0624,4.53869 0.1968,9.077381 2.00892,13.616071 l -4.46428,0.111607 c -0.39653,-5.584094 -1.69697,-9.721683 -4.6875,-10.379464 z"
       id="path828"
       inkscape:connector-curvature="0"
       sodipodi:nodetypes="cccccccc" />
    <path
       style="fill:#1151b5;stroke:#000000;stroke-width:0;stroke-linecap:butt;stroke-linejoin:miter;stroke-miterlimit:4;stroke-dasharray:none;stroke-opacity:1;fill-opacity:1"
       d="m 234.14072,35.583715 8.25893,-8.705357 H 146.4175 c -0.0394,0.01312 -3.49661,1.264762 -2.90179,5.357143 -0.0624,4.53869 -0.1968,9.077381 -2.00893,13.616071 l 4.46429,0.111607 c 0.39653,-5.584094 1.69697,-9.721683 4.6875,-10.379464 z"
       id="path828-1"
       inkscape:connector-curvature="0"
       sodipodi:nodetypes="cccccccc" />
    <path
       style="fill:none;stroke:#000000;stroke-width:1.04297745px;stroke-linecap:butt;stroke-linejoin:miter;stroke-opacity:1"
       d="m 26.539714,46.317036 -6.505598,-6.829882 77.956618,-0.558036 c 2.500346,2.233556 2.974666,5.098459 3.154786,7.332015 z"
       id="path845"
       inkscape:connector-curvature="0"
       sodipodi:nodetypes="ccccc" />
    <path
       style="fill:none;stroke:#000000;stroke-width:1.04297745px;stroke-linecap:butt;stroke-linejoin:miter;stroke-opacity:1"
       d="m 223.92677,46.038118 6.5056,-6.829882 -77.95662,-0.558036 c -2.50035,2.233556 -2.97467,5.098459 -3.15479,7.332015 z"
       id="path845-5"
       inkscape:connector-curvature="0"
       sodipodi:nodetypes="ccccc" />
    <path
       style="fill:#cd0811;stroke:#000000;stroke-width:0;stroke-linecap:butt;stroke-linejoin:miter;stroke-miterlimit:4;stroke-dasharray:none;stroke-opacity:1;fill-opacity:1"
       d="m 30.552176,49.705078 10.378906,10.378906 69.531248,-0.111328 c 5.68242,6.864635 8.76386,10.144911 15.40231,11.273435 6.80815,-1.595996 12.17875,-6.284815 15.17965,-11.273435 l 69.53125,0.111328 10.3789,-10.378906 h -79.91015 c -3.67213,9.565288 -8.07671,17.179361 -15.29102,17.298828 -7.21431,-0.119467 -11.61889,-7.73354 -15.29102,-17.298828 z"
       id="path877"
       inkscape:connector-curvature="0"
       sodipodi:nodetypes="ccccccccccc" />
    <path
       style="fill:#cc0911;fill-opacity:1;stroke:#000000;stroke-width:0;stroke-linecap:butt;stroke-linejoin:miter;stroke-miterlimit:4;stroke-dasharray:none;stroke-opacity:1"
       d="M 123.85603,62.875 V 39.409598 l -12.80692,-7.561384 c 0.82675,10.754773 -0.50167,21.690404 12.80692,31.026786 z"
       id="path895"
       inkscape:connector-curvature="0"
       sodipodi:nodetypes="cccc" />
    <path
       style="display:inline;fill:#020204;fill-opacity:1;stroke:#000000;stroke-width:0.5669291;stroke-linecap:butt;stroke-linejoin:miter;stroke-miterlimit:4;stroke-dasharray:none;stroke-opacity:1"
       d="m 127.53906,62.337627 -0.33883,-22.767858 12.94643,-7.589286 c -0.82675,10.754774 0.70099,21.020762 -12.6076,30.357144 z"
       id="path895-0"
       inkscape:connector-curvature="0"
       sodipodi:nodetypes="cccc" />
    <path
       style="fill:#99c6ec;stroke:#000000;stroke-width:0;stroke-linecap:butt;stroke-linejoin:miter;stroke-opacity:1;stroke-miterlimit:4;stroke-dasharray:none;fill-opacity:1"
       d="m 125.33482,37.651786 13.95089,-7.8125 -3.125,-3.794643 -21.20535,-0.111607 -3.57143,3.348214 z"
       id="path912"
       inkscape:connector-curvature="0" />
    <path
       sodipodi:type="star"
       style="opacity:1;fill:#cc0911;fill-opacity:1;stroke:#cc0a12;stroke-width:0.62363166;stroke-linecap:square;stroke-linejoin:miter;stroke-miterlimit:4;stroke-dasharray:none;stroke-opacity:1;paint-order:markers stroke fill"
       id="path916"
       sodipodi:sides="5"
       sodipodi:cx="125.36944"
       sodipodi:cy="31.214989"
       sodipodi:r1="2.4745035"
       sodipodi:r2="0.98980141"
       sodipodi:arg1="0.90975316"
       sodipodi:arg2="1.5380717"
       inkscape:flatsided="false"
       inkscape:rounded="0"
       inkscape:randomized="0"
       d="m 126.88864,33.168244 -1.48682,-0.963984 -1.42058,1.059161 0.45735,-1.711931 -1.4463,-1.023755 1.76947,-0.09405 0.52672,-1.691877 0.63624,1.653806 1.77183,-0.02188 -1.37625,1.116156 z"
       inkscape:transform-center-x="0.02502233"
       inkscape:transform-center-y="-0.21237372" />
  </g>
</svg>
