<?xml version="1.0" encoding="utf-8"?>
<!-- Generator: Adobe Illustrator 12.0.1, SVG Export Plug-In . SVG Version: 6.00 Build 51448)  -->
<!DOCTYPE svg PUBLIC "-//W3C//DTD SVG 1.0//EN" "http://www.w3.org/TR/2001/REC-SVG-20010904/DTD/svg10.dtd" [
	<!ENTITY ns_svg "http://www.w3.org/2000/svg">
	<!ENTITY ns_xlink "http://www.w3.org/1999/xlink">
]>
<svg  version="1.0" id="Layer_1" xmlns="&ns_svg;" xmlns:xlink="&ns_xlink;" width="122.001" height="47.377"
	 viewBox="0 0 122.001 47.377" overflow="visible" enable-background="new 0 0 122.001 47.377" xml:space="preserve">
<rect fill="#FFFFFF" width="122.001" height="47.377"/>
<path fill="#FACB30" d="M87.973,10.784H66.105v33.192h-0.032h-10.16V10.697l-0.082,0.087H34.134l8.424-8.593H79.55L87.973,10.784z
	 M27.938,31.01c4.334-1,12.953-2.069,15.426-2.365V15.289L27.938,31.01z M43.363,32.074c-3.271,0.686-15.847,3.355-21.402,5.03l0,0
	c-3.888,3.962-6.738,6.872-6.738,6.872H1.578l30.241-30.833h21.736v30.833h-10.16h-0.032V32.074z M78.644,25.892
	c2.416,0.224,7.563,0.8,12.4,2.035l-12.4-12.638V25.892z M78.644,28.421v0.013v15.542h-0.038h-10.16V13.144h21.742l30.235,30.833
	h-13.639c-0.007,0-5.857-5.97-12.225-12.463C88.937,29.529,81.663,28.699,78.644,28.421z"/>
</svg>
