<svg id="layer" xmlns="http://www.w3.org/2000/svg" viewBox="0 0 2952.33 465"><defs><style>.cls-1{fill:#de3e30;}.cls-2{fill:#007461;}</style></defs><path class="cls-1" d="M170.77,239.09l64.3-116.4,64.31,116.4a99,99,0,1,0-128.61,0Z"/><polygon class="cls-1" points="198.66 253.06 235.07 189.4 271.49 253.06 290.39 253.06 235.07 156.35 179.75 253.06 198.66 253.06"/><polygon class="cls-1" points="353.37 189.94 287.48 306.69 235.07 213.35 182.67 306.69 116.78 189.94 69.89 189.94 185.12 390.83 235.07 299.57 285.03 390.83 400.26 189.94 353.37 189.94"/><path class="cls-2" d="M555.82,390.83,598,341.5,506,75.28,420,347l40.74,43.85,13.7-56.77L538.58,327ZM488.6,275.18l17-70.48L523.74,272Z"/><polygon class="cls-2" points="603.08 371.28 641.89 371.28 657 270.83 690.48 371.28 727.22 270.83 750.04 371.28 789.15 371.28 734.93 142.24 694.63 262.24 653.15 136.61 603.08 371.28"/><polygon class="cls-2" points="878.93 193.94 878.93 144.61 805.59 144.61 805.59 179.28 805.59 193.94 805.59 234.98 805.59 280.91 805.59 321.94 805.59 336.61 805.59 371.28 878.93 371.28 878.93 321.94 844.26 321.94 844.26 280.91 878.93 280.91 878.93 234.98 844.26 234.98 844.26 193.94 878.93 193.94"/><rect class="cls-2" x="1041.44" y="144.61" width="38.67" height="226.67"/><path class="cls-2" d="M1312.26,371.28h45.33l-81.33-231.11-74.67,231.11H1242l8.27-31.46,51.24-6.3Zm-49.73-77.94,13.29-50.51,13.2,46.53Z"/><path class="cls-2" d="M988,268.08s21.63-21,21.63-64.51c0-50.37-35.26-59-60.89-59H910V371.28H948.7V189.65c9,0,23,7.41,23,30.81s-18.3,47.62-18.3,47.62l39.41,103.2h44.07Z"/><path class="cls-2" d="M1183.52,141.94s-83.7,37.78-83.7,132.89,56.44,110.23,95.11,101.78l-.74-56.89s-53,10.37-53-39.11,27.26-67.26,50.07-76.74Z"/><polygon class="cls-2" points="1702.93 193.94 1702.93 144.61 1629.59 144.61 1629.59 179.28 1629.59 193.94 1629.59 234.98 1629.59 280.91 1629.59 321.94 1629.59 336.61 1629.59 371.28 1702.93 371.28 1702.93 321.94 1668.26 321.94 1668.26 280.91 1702.93 280.91 1702.93 234.98 1668.26 234.98 1668.26 193.94 1702.93 193.94"/><polygon class="cls-2" points="1457 394.09 1395.08 114.69 1440.04 82.09 1466.78 242.83 1507.67 117.94 1549.74 236.46 1578.48 82.09 1620.85 116.46 1553.59 394.09 1506.04 262.83 1457 394.09"/><polygon class="cls-2" points="1921.15 144.61 1807.37 144.61 1807.37 193.06 1844.7 193.06 1844.7 371.28 1883.82 371.28 1883.82 193.06 1921.15 193.06 1921.15 144.61"/><path class="cls-2" d="M1789.44,138.09l5.63,53.93s-31.48,2.15-31.48,17.92,35.25,39.63,39.11,65.12c4.67,30.74,1,79.63-69.26,102.74l-5.62-56.3s34,2.67,34-19.11-40.23-31.56-40.23-82.45S1764.41,144.91,1789.44,138.09Z"/><path class="cls-2" d="M2109.59,390.83l42.23-49.33-92-266.22L1973.74,347l40.74,43.85,13.69-56.77,64.19-7.11Zm-67.22-115.65,17-70.48L2077.52,272Z"/><rect class="cls-2" x="2170.11" y="144.61" width="38.67" height="226.67"/><rect class="cls-2" x="2477.67" y="144.61" width="38.67" height="226.67"/><path class="cls-2" d="M2321.59,268.08s21.63-21,21.63-64.51c0-50.37-35.26-59-60.89-59h-38.66V371.28h38.66V189.65c9,0,23,7.41,23,30.81s-18.3,47.62-18.3,47.62l39.41,103.2h44.07Z"/><polygon class="cls-2" points="2781.3 193.94 2781.3 144.61 2707.96 144.61 2707.96 179.28 2707.96 193.94 2707.96 234.98 2707.96 280.91 2707.96 321.94 2707.96 336.61 2707.96 371.28 2781.3 371.28 2781.3 321.94 2746.63 321.94 2746.63 280.91 2781.3 280.91 2781.3 234.98 2746.63 234.98 2746.63 193.94 2781.3 193.94"/><path class="cls-2" d="M2867.82,138.09l5.62,53.93S2842,194.17,2842,209.94s35.25,39.63,39.11,65.12c4.67,30.74,1,79.63-69.25,102.74l-5.63-56.3s34,2.67,34-19.11S2800,270.83,2800,219.94,2842.78,144.91,2867.82,138.09Z"/><polygon class="cls-2" points="2416.78 321.94 2416.78 144.61 2378.11 144.61 2378.11 321.94 2378.11 371.28 2416.78 371.28 2451.45 371.28 2451.45 321.94 2416.78 321.94"/><polygon class="cls-2" points="2677.22 144.69 2638.56 144.69 2638.56 262 2546.11 130.24 2546.11 371.28 2584.78 371.28 2584.78 253.96 2677.22 385.72 2677.22 144.69"/></svg>