<svg id="layer" xmlns="http://www.w3.org/2000/svg" viewBox="0 0 2826 465"><defs><style>.cls-1{fill:#de3e30;}.cls-2{fill:#007461;}</style></defs><path class="cls-1" d="M174.87,239.09l64.31-116.4,64.31,116.4a99,99,0,1,0-128.62,0Z"/><polygon class="cls-1" points="202.76 253.06 239.18 189.4 275.6 253.06 294.5 253.06 239.18 156.35 183.86 253.06 202.76 253.06"/><polygon class="cls-1" points="357.48 189.94 291.59 306.69 239.18 213.35 186.78 306.69 120.88 189.94 74 189.94 189.23 390.83 239.18 299.57 289.13 390.83 404.37 189.94 357.48 189.94"/><path class="cls-2" d="M559.92,390.83l42.22-49.33-92-266.22L424.07,347l40.74,43.85,13.69-56.77L542.68,327ZM492.7,275.18l17-70.48L527.85,272Z"/><polygon class="cls-2" points="607.18 371.28 646 371.28 661.11 270.83 694.59 371.28 731.33 270.83 754.14 371.28 793.25 371.28 739.03 142.24 698.74 262.24 657.25 136.61 607.18 371.28"/><polygon class="cls-2" points="883.03 193.94 883.03 144.61 809.7 144.61 809.7 179.28 809.7 193.94 809.7 234.98 809.7 280.91 809.7 321.94 809.7 336.61 809.7 371.28 883.03 371.28 883.03 321.94 848.37 321.94 848.37 280.91 883.03 280.91 883.03 234.98 848.37 234.98 848.37 193.94 883.03 193.94"/><rect class="cls-2" x="1045.55" y="144.61" width="38.67" height="226.67"/><path class="cls-2" d="M1316.37,371.28h45.33l-81.33-231.11L1205.7,371.28h40.44l8.27-31.46,51.24-6.3Zm-49.73-77.94,13.28-50.51,13.2,46.53Z"/><path class="cls-2" d="M992.07,268.08s21.63-21,21.63-64.51c0-50.37-35.26-59-60.89-59H914.14V371.28h38.67V189.65c9,0,23,7.41,23,30.81s-18.29,47.62-18.29,47.62l39.4,103.2H1041Z"/><path class="cls-2" d="M1187.62,141.94s-83.7,37.78-83.7,132.89,56.45,110.23,95.11,101.78l-.74-56.89s-53,10.37-53-39.11,27.26-67.26,50.08-76.74Z"/><polygon class="cls-2" points="1707.03 193.94 1707.03 144.61 1633.7 144.61 1633.7 179.28 1633.7 193.94 1633.7 234.98 1633.7 280.91 1633.7 321.94 1633.7 336.61 1633.7 371.28 1707.03 371.28 1707.03 321.94 1672.37 321.94 1672.37 280.91 1707.03 280.91 1707.03 234.98 1672.37 234.98 1672.37 193.94 1707.03 193.94"/><polygon class="cls-2" points="1461.11 394.09 1399.18 114.69 1444.14 82.09 1470.88 242.83 1511.77 117.94 1553.85 236.46 1582.59 82.09 1624.96 116.46 1557.7 394.09 1510.14 262.83 1461.11 394.09"/><polygon class="cls-2" points="1925.25 144.61 1811.48 144.61 1811.48 193.06 1848.81 193.06 1848.81 371.28 1887.92 371.28 1887.92 193.06 1925.25 193.06 1925.25 144.61"/><path class="cls-2" d="M1793.55,138.09l5.63,53.93s-31.48,2.15-31.48,17.92,35.24,39.63,39.11,65.12c4.67,30.74,1,79.63-69.26,102.74l-5.63-56.3s34,2.67,34-19.11-40.22-31.56-40.22-82.45S1768.51,144.91,1793.55,138.09Z"/><polygon class="cls-2" points="2557.7 193.94 2557.7 144.61 2484.36 144.61 2484.36 179.28 2484.36 193.94 2484.36 234.98 2484.36 280.91 2484.36 321.94 2484.36 336.61 2484.36 371.28 2557.7 371.28 2557.7 321.94 2523.03 321.94 2523.03 280.91 2557.7 280.91 2557.7 234.98 2523.03 234.98 2523.03 193.94 2557.7 193.94"/><path class="cls-2" d="M2435.48,268.08s21.63-21,21.63-64.51c0-50.37-35.26-59-60.89-59h-38.67V371.28h38.67V189.65c9,0,23,7.41,23,30.81s-18.3,47.62-18.3,47.62l39.41,103.2h44.08Z"/><path class="cls-2" d="M2645.31,138.09l5.63,53.93s-31.48,2.15-31.48,17.92,35.24,39.63,39.11,65.12c4.67,30.74,1,79.63-69.26,102.74l-5.63-56.3s34,2.67,34-19.11-40.22-31.56-40.22-82.45S2620.28,144.91,2645.31,138.09Z"/><path class="cls-2" d="M2737.38,138.09,2743,192s-31.49,2.15-31.49,17.92,35.25,39.63,39.12,65.12c4.66,30.74,1,79.63-69.26,102.74l-5.63-56.3s34,2.67,34-19.11-40.23-31.56-40.23-82.45S2712.34,144.91,2737.38,138.09Z"/><polygon class="cls-2" points="2082.14 156.17 2082.14 95.72 1994.59 95.72 1994.59 138.83 1994.59 156.17 1994.59 205.94 1994.59 261.06 1994.59 310.83 1994.59 328.17 1994.59 371.28 2082.14 371.28 2082.14 310.83 2040.37 310.83 2040.37 261.06 2082.14 261.06 2082.14 205.94 2040.37 205.94 2040.37 156.17 2082.14 156.17"/><path class="cls-2" d="M2339.33,215.43c0-60.15-44.74-70.82-62.08-70.82h-38.66V371.28h38.66V317.87C2302.45,306.53,2339.33,273.83,2339.33,215.43Zm-62.08,56.82V190.39c9.13,2,23,9.21,23,34.22C2300.22,255.12,2283.4,268.41,2277.25,272.25Z"/><polygon class="cls-2" points="2120.96 383.43 2091.63 335.72 2132.81 256.61 2095.77 181.35 2127.18 132.46 2158.88 207.72 2194.74 132.46 2223.18 180.46 2182.88 254.83 2223.18 332.46 2193.55 383.43 2157.4 303.72 2120.96 383.43"/></svg>