<?xml version="1.0" encoding="UTF-8" standalone="no"?>
<svg
   xmlns:dc="http://purl.org/dc/elements/1.1/"
   xmlns:cc="http://creativecommons.org/ns#"
   xmlns:rdf="http://www.w3.org/1999/02/22-rdf-syntax-ns#"
   xmlns:svg="http://www.w3.org/2000/svg"
   xmlns="http://www.w3.org/2000/svg"
   viewBox="0 0 500 200"
   height="200"
   width="500"
   xml:space="preserve"
   id="svg2"
   version="1.1"><metadata
     id="metadata8"><rdf:RDF><cc:Work
         rdf:about=""><dc:format>image/svg+xml</dc:format><dc:type
           rdf:resource="http://purl.org/dc/dcmitype/StillImage" /><dc:title></dc:title></cc:Work></rdf:RDF></metadata><defs
     id="defs6" /><path
     id="path14"
     style="fill:#9c1010;fill-opacity:1;fill-rule:nonzero;stroke:none;stroke-width:0.0870771"
     d="m 446.92203,101.21666 c 4.43137,4.17021 10.89686,10.45676 18.6511,10.37378 4.98953,0 10.14973,-2.51741 10.14973,-7.2026 0.0827,-5.823554 -9.62552,-10.074675 -19.24931,-14.891792 -9.65079,-4.83105 -20.15405,-14.272843 -20.08004,-24.628954 0.12452,-17.4294 13.92542,-26.771056 29.70818,-26.771056 10.43012,0 24.46612,5.277756 28.76077,15.575524 l -13.33851,13.577969 c -4.64644,-4.811024 -10.41096,-8.324595 -15.57464,-8.618044 -4.55677,-0.25862 -8.21314,2.467771 -8.31067,5.692245 -0.16632,5.45191 14.11088,10.045244 19.62463,13.144324 18.11208,10.178468 19.40692,19.289373 19.57236,26.244234 0,17.3998 -14.50796,28.32974 -32.16549,28.32974 -16.59608,0 -26.27123,-8.01686 -31.56206,-15.60148 z m -25.30989,-9.926817 h -71.79266 c 2.1003,14.921477 13.27059,21.444787 23.76863,21.814257 6.73021,0.23703 15.24985,-1.07722 23.77647,-8.89991 l 18.51874,8.71993 c -13.85662,19.76551 -35.11829,18.9832 -41.89553,18.9832 -25.47796,0 -46.63514,-18.85294 -45.83142,-48.811458 0.70533,-26.286905 19.66556,-45.360325 46.67608,-45.360325 28.22089,0 46.0134,20.081776 47.01566,45.360325 0.10275,2.615808 0.027,5.488486 -0.23597,8.193981 z M 399.07826,73.872634 c -0.56165,-1.489897 -1.18948,-2.878776 -1.8861,-4.165782 -1.52646,-2.822175 -3.36989,-5.154977 -5.52593,-6.994051 -2.12207,-1.810338 -4.57939,-3.170485 -7.36848,-4.080444 -2.88226,-0.940435 -6.18859,-1.409782 -9.91897,-1.409782 -3.37338,0 -6.42979,0.493728 -9.16402,1.482927 -2.70812,0.97962 -5.19417,2.467772 -7.4547,4.467068 -2.26314,2.001036 -4.08828,4.35735 -5.4789,7.070677 -0.58517,1.142458 -1.09805,2.3537 -1.53344,3.629387 z M 286.83992,50.37133 V 4.8577452 h 22.57044 V 129.89366 h -22.57044 v -9.93431 c -8.80961,7.61422 -16.11541,12.19118 -28.98891,12.19118 -19.54017,0.41571 -42.17505,-18.39064 -41.34432,-49.054668 0.41535,-23.587506 15.76099,-45.17398 41.34432,-45.17398 12.20997,0 20.32123,3.825307 28.98891,12.449448 z m 0.92911,35.409129 c 0,-3.881039 -0.62173,-7.433795 -1.86258,-10.651299 -1.23737,-3.206191 -3.11214,-6.159851 -5.61996,-8.8488 l -0.0192,-0.02003 c -2.47472,-2.666309 -5.15323,-4.658638 -8.02766,-5.976118 v -0.01915 c -2.77515,-1.270459 -5.80544,-1.906994 -9.08651,-1.906994 -3.45872,0 -6.6292,0.61825 -9.50885,1.849523 -2.92318,1.25043 -5.62171,3.147846 -8.09471,5.687021 -2.46167,2.530463 -4.30336,5.329134 -5.52418,8.394254 -1.21821,3.06164 -1.82862,6.460269 -1.82862,10.193274 0,3.987269 0.62957,7.620139 1.88348,10.900344 1.23824,3.238402 3.09995,6.171166 5.57903,8.799946 2.48432,2.63409 5.19853,4.59708 8.14261,5.88582 2.90577,1.27185 6.1198,1.90856 9.64295,1.90856 3.12868,0 6.06755,-0.62992 8.81658,-1.8881 v 0.0196 c 2.82131,-1.29319 5.50329,-3.27595 8.04159,-5.94574 l -0.0191,0.0198 c 2.51827,-2.65926 4.39826,-5.515398 5.63825,-8.572681 1.23214,-3.031168 1.84691,-6.306141 1.84691,-9.829294 z M 118.70316,40.232044 h 22.4616 v 10.157571 c 7.09069,-7.823897 16.30435,-12.687167 25.289,-12.768149 9.64207,-0.08707 32.28218,2.50086 32.28218,35.416094 v 56.63231 H 176.0967 V 80.226667 c 0,-32.605239 -34.93194,-27.707139 -34.93194,5.817636 v 43.625567 h -22.4616 z M 73.892109,120.33727 c -8.566235,6.74711 -12.840514,11.76832 -28.756945,11.76832 -26.379035,0 -41.9661871,-25.49153 -41.9661871,-47.27166 0,-21.522907 14.0993481,-46.964294 41.3596941,-46.964294 15.274236,0 23.190437,6.444594 29.363438,12.401555 V 40.216371 H 96.237198 V 129.60926 H 73.892109 Z m 1.078274,-35.922185 c 0,-3.495285 -0.616331,-6.745881 -1.847693,-9.750049 -1.230311,-3.0033 -3.111013,-5.82373 -5.641304,-8.463917 h 0.01968 c -2.509221,-2.617544 -5.180058,-4.564594 -8.00563,-5.841147 -2.750773,-1.242595 -5.706962,-1.863455 -8.859075,-1.863455 -3.511394,0 -6.734561,0.632181 -9.667325,1.898286 -2.951052,1.27307 -5.659331,3.202704 -8.126406,5.786289 -2.483446,2.601868 -4.345682,5.507643 -5.58279,8.715572 -1.253478,3.249727 -1.881741,6.852116 -1.881741,10.806294 0,7.345844 2.451836,13.517889 7.355684,18.514122 2.47317,2.51949 5.173613,4.40184 8.096102,5.642 2.882435,1.22213 6.054314,1.83506 9.514244,1.83506 3.283426,0 6.316853,-0.63261 9.09549,-1.89767 2.849085,-1.29693 5.526363,-3.28613 8.025745,-5.96575 2.520545,-2.70288 4.403244,-5.653058 5.643397,-8.848801 1.239807,-3.194867 1.861624,-6.717144 1.861624,-10.566834" /><path
     id="path18"
     style="fill:#6d6d65;fill-opacity:1;fill-rule:evenodd;stroke:none;stroke-width:0.0870771"
     d="m 354.20034,189.88111 h -5.13843 v -30.29069 h 5.14452 v 4.17397 c 2.70463,-2.68955 7.50607,-6.7349 14.40173,-4.17397 l -2.68024,3.6624 c -4.71263,-2.03308 -11.72758,2.11397 -11.72758,8.60193 z m -101.95277,0 h -5.53898 l 23.96978,-41.76991 h 1.49859 l 24.2911,41.76991 h -5.71489 l -7.89355,-13.62695 H 260.142 Z m 28.28359,-17.53115 -8.92193,-15.46842 -9.05692,15.46842 z m -79.30655,11.52044 c 2.12295,2.40926 6.15115,3.32118 8.28366,3.32118 3.08516,0 7.08637,-2.07149 7.08637,-5.03549 0,-4.01888 -4.22587,-4.9345 -7.38765,-5.97568 -4.90507,-1.61373 -9.47576,-4.97639 -9.47576,-8.76965 0,-6.03185 5.33349,-8.40471 10.39181,-8.40471 4.04387,0 7.85002,1.60649 10.559,4.34098 l -2.82566,2.71194 c -2.64454,-2.44495 -5.303,-3.59873 -7.67152,-3.52115 -3.41517,0.11085 -6.30874,1.67659 -6.30874,4.75451 0,2.34299 4.56372,4.3308 7.30056,5.45635 5.36048,2.20516 9.8885,4.17563 9.75179,9.85706 -0.14019,5.85867 -7.56093,8.15227 -11.59348,8.05533 -3.79919,-0.0908 -8.40383,-1.02691 -11.09888,-4.05657 z m 268.53954,0.16225 c 2.12296,2.40892 6.15116,3.32084 8.28367,3.32084 3.08515,0 7.08723,-2.07148 7.08723,-5.03552 0,-4.0188 -4.22673,-4.93451 -7.38851,-5.97569 -4.90507,-1.61362 -9.47575,-4.9763 -9.47575,-8.76929 0,-6.03211 5.33348,-8.40498 10.39181,-8.40498 4.04473,0 7.85001,1.6065 10.55986,4.3409 l -2.82566,2.71203 c -2.64454,-2.4447 -5.30387,-3.59874 -7.67151,-3.52124 -3.41605,0.11093 -6.30962,1.67659 -6.30962,4.7546 0,2.3429 4.56372,4.3307 7.30056,5.45661 5.36048,2.2048 9.8885,4.17527 9.75179,9.85674 -0.14019,5.85867 -7.56005,8.15261 -11.59348,8.05533 -3.79831,-0.0908 -8.40296,-1.0269 -11.09888,-4.05658 z m -284.42767,1.17928 c -1.56304,1.76366 -3.67118,3.13955 -6.33401,4.14536 -2.66369,0.99561 -5.53203,1.49834 -8.6076,1.49834 -5.71575,0 -10.48672,-1.53711 -14.28851,-4.60082 -3.81399,-3.06369 -5.7149,-6.8495 -5.7149,-11.35505 0,-4.57331 1.95054,-8.39547 5.83593,-11.47897 3.88714,-3.07287 8.75388,-4.60962 14.60287,-4.60962 3.00242,0 5.75058,0.47414 8.25668,1.43233 2.50695,0.95786 4.59071,2.33307 6.24954,4.12705 v -4.89437 h 4.89026 v 30.57399 h -4.89026 z m 0.80982,-10.60101 c 0,-3.29126 -1.54389,-6.16003 -4.62903,-8.61447 -3.0869,-2.45523 -6.65359,-3.67876 -10.67569,-3.67876 -4.37738,0 -8.09558,1.22353 -11.16854,3.67876 -3.0747,2.45444 -4.61771,5.49606 -4.61771,9.12675 0,3.45689 1.52995,6.37397 4.59159,8.75128 3.06077,2.37763 6.74153,3.57221 11.04141,3.57221 4.14924,0 7.7673,-1.25106 10.84025,-3.76508 3.07383,-2.51132 4.61772,-5.53552 4.61772,-9.07069 z m 267.77849,10.5704 c -1.56304,1.76366 -3.67118,3.13954 -6.33401,4.14502 -2.66282,0.99594 -5.53201,1.49868 -8.60759,1.49868 -5.71576,0 -10.48673,-1.53677 -14.28852,-4.60081 -3.81312,-3.0637 -5.71488,-6.84955 -5.71488,-11.35511 0,-4.5732 1.95052,-8.39547 5.83679,-11.47888 3.88626,-3.07287 8.75388,-4.6097 14.60199,-4.6097 3.00243,0 5.75059,0.47422 8.25755,1.43242 2.50609,0.95785 4.58985,2.33307 6.24867,4.1266 v -4.894 h 4.89027 v 30.57402 h -4.89027 z m 0.80982,-10.60061 c 0,-3.29161 -1.54301,-6.16038 -4.62903,-8.61561 -3.08689,-2.45445 -6.65358,-3.67797 -10.67568,-3.67797 -4.37738,0 -8.09559,1.22352 -11.16855,3.67797 -3.07382,2.45523 -4.61771,5.49676 -4.61771,9.12754 0,3.45688 1.53083,6.37397 4.5916,8.75122 3.06164,2.37763 6.74152,3.57222 11.0414,3.57222 4.14924,0 7.7673,-1.25105 10.84113,-3.76507 3.07383,-2.51129 4.61684,-5.53592 4.61684,-9.0703 z m -312.11566,1.43233 h -34.72558 c 0.29868,3.31643 1.8147,5.98997 4.54805,8.04069 2.72205,2.0402 6.12415,3.06098 10.20721,3.06098 5.14627,0 11.64659,-1.58134 14.40608,-6.24101 l 4.33471,1.75381 c -4.92336,6.88284 -14.24673,8.32608 -18.59798,8.22812 -5.59734,-0.12517 -10.33782,-1.57759 -14.20581,-4.73313 -3.8671,-3.15587 -5.80195,-6.9536 -5.80195,-11.37582 0,-10.48193 10.82981,-15.93586 20.21065,-15.93586 10.08181,0 19.62462,6.21411 19.62462,16.92801 z m -5.43711,-3.88722 c -2.28056,-8.63902 -11.25475,-9.98463 -14.90765,-9.79036 -3.65376,0.19487 -11.81204,1.42005 -13.97591,9.79036 z m 204.4306,3.85187 h -34.72558 c 0.29781,3.31643 1.8147,5.98996 4.54719,8.04032 2.7229,2.04089 6.12501,3.06099 10.2072,3.06099 5.14714,0 11.64659,-1.58135 14.40608,-6.24065 l 4.33558,1.75378 c -4.92335,6.88319 -14.2476,8.32576 -18.59885,8.22813 -5.59733,-0.12484 -10.33695,-1.5776 -14.20493,-4.73313 -3.86797,-3.15587 -5.80196,-6.95323 -5.80196,-11.37546 0,-10.48228 10.82981,-15.9362 20.20977,-15.9362 10.08182,0 19.6255,6.2141 19.6255,16.92836 z m -5.43711,-3.88687 c -2.28143,-8.63939 -11.25562,-9.98499 -14.90851,-9.79046 -3.65376,0.19496 -11.81118,1.42015 -13.97505,9.79046 z m 74.85081,3.88687 h -34.72557 c 0.29781,3.31643 1.81469,5.98996 4.54805,8.04032 2.72117,2.04089 6.12327,3.06099 10.20634,3.06099 5.14713,0 11.64659,-1.58135 14.40607,-6.24065 l 4.33558,1.75378 c -4.92422,6.88319 -14.2476,8.32576 -18.59885,8.22813 -5.59732,-0.12484 -10.33695,-1.5776 -14.2058,-4.73313 -3.8671,-3.15587 -5.80109,-6.95323 -5.80109,-11.37546 0,-10.48228 10.82894,-15.9362 20.20978,-15.9362 10.08181,0 19.62549,6.2141 19.62549,16.92836 z m -5.43798,-3.88687 c -2.28055,-8.63939 -11.25474,-9.98499 -14.90765,-9.79046 -3.65376,0.19496 -11.81116,1.42015 -13.97503,9.79046 z M 60.616906,159.59042 h 4.954874 v 5.33489 c 3.493976,-3.49843 6.846106,-5.91926 13.733403,-5.91926 10.461905,0 14.998898,5.30014 14.998898,14.0906 v 16.78446 h -5.025496 v -16.62432 c 0,-7.21585 -2.925884,-10.50432 -10.399556,-10.50432 -7.681881,0 -13.307249,4.95417 -13.307249,12.68873 v 14.43991 h -4.954874 z m -15.350778,30.29069 v -30.29069 h 4.715761 v 30.29069 z m -6.736564,0 h -24.93747 v -41.88076 h 5.368841 v 38.897 h 19.568629 z m 11.588428,-44.53767 h 7.725326 l -10.043152,9.07781 h -5.214714 z m 273.890888,0 h 7.72464 l -10.04263,9.07781 h -5.21507 l 7.53306,-9.07781" /></svg>
