<?xml version="1.0" encoding="UTF-8" standalone="no"?>
<!-- Created with Inkscape (http://www.inkscape.org/) -->
<svg xmlns:svg="http://www.w3.org/2000/svg" xmlns="http://www.w3.org/2000/svg" version="1.0" width="704" height="129" viewBox="-0.891 -0.15 704 129" id="svg2" xml:space="preserve">
	<defs id="defs4">
	</defs>
	<g id="g6">
		<g id="g8">
			<g id="g10">
				<path d="M 197.461,116.789 L 193.106,128.453 L 248.864,128.453 L 298.031,0 L 167.258,0 L 0,128.453 L 79.578,128.453 L 157.469,68.808 L 197.461,116.789 L 197.461,116.789 L 197.461,116.789 z M 237.977,7.166 L 238.211,7.562 L 216.992,64.458 L 195.804,39.452 L 237.977,7.166 L 237.977,7.166 z M 702.992,0 L 625.953,0 L 546.555,60.609 L 570.71,0 L 515.972,0 L 464.781,128.453 L 519.519,128.453 L 542.527,70.701 L 548.425,70.892 L 595.538,128.453 L 655.858,128.453 L 612.096,72.277 L 702.992,0 L 702.992,0 z M 317.281,128.453 L 345.379,53.504 L 398.722,115.133 L 393.312,128.453 L 448.05,128.453 L 501.269,0 L 445.519,0 L 419.191,64.764 L 365.434,0 L 312.211,0 L 260.523,128.453 L 317.281,128.453 L 317.281,128.453 z " style="fill: rgb(8, 41, 132); fill-rule: evenodd;" id="path12"/>
			</g>
		</g>
	</g>
</svg>