<?xml version="1.0" encoding="utf-8"?>
<!-- Generator: Adobe Illustrator 13.0.2, SVG Export Plug-In . SVG Version: 6.00 Build 14948)  -->
<!DOCTYPE svg PUBLIC "-//W3C//DTD SVG 1.1//EN" "http://www.w3.org/Graphics/SVG/1.1/DTD/svg11.dtd" [
	<!ENTITY ns_extend "http://ns.adobe.com/Extensibility/1.0/">
	<!ENTITY ns_ai "http://ns.adobe.com/AdobeIllustrator/10.0/">
	<!ENTITY ns_graphs "http://ns.adobe.com/Graphs/1.0/">
	<!ENTITY ns_vars "http://ns.adobe.com/Variables/1.0/">
	<!ENTITY ns_imrep "http://ns.adobe.com/ImageReplacement/1.0/">
	<!ENTITY ns_sfw "http://ns.adobe.com/SaveForWeb/1.0/">
	<!ENTITY ns_custom "http://ns.adobe.com/GenericCustomNamespace/1.0/">
	<!ENTITY ns_adobe_xpath "http://ns.adobe.com/XPath/1.0/">
]>
<svg version="1.1" id="A" xmlns:x="&ns_extend;" xmlns:i="&ns_ai;" xmlns:graph="&ns_graphs;"
	 xmlns="http://www.w3.org/2000/svg" xmlns:xlink="http://www.w3.org/1999/xlink" x="0px" y="0px" width="120px" height="106px"
	 viewBox="0 0 120 106" enable-background="new 0 0 120 106" xml:space="preserve">
<path fill="#FF341A" d="M59.762,93.57c0,0,0.024-0.426-0.246-0.941c-0.226-0.431-0.553-0.553-0.86-0.553c-0.307,0-6.551,0-7.001,0
	c-0.39,0-1.045,0.04-1.045,1.289s0.635,1.249,1.045,1.249c0.491,0,8.938,0,9.396,0c0.431,0,1.481,0.154,2.252,0.86
	c0.737,0.676,0.758,1.474,0.758,1.904c0,0.512,0,3.398,0,3.808c0,0.573-0.163,1.188-0.962,1.863
	c-0.789,0.667-1.904,0.839-2.56,0.839c-0.634,0-10.276,0-10.81,0c-0.532,0-1.146-0.143-1.985-0.839
	c-0.959-0.794-1.086-1.699-1.106-2.313c-0.021-0.594,0-1.658,0-1.658h4.3c0,0-0.042,0.245,0.001,0.981
	c0.041,0.736,1.043,0.759,1.248,0.759c0.403,0,6.658,0,7.043,0c0.163,0,0.798-0.369,0.798-1.535c0-0.983-0.635-1.291-0.798-1.291
	c-0.164,0-7.493,0-7.698,0c-0.204,0-2.784,0.205-3.849-0.573c-1.126-0.823-0.941-2.067-0.941-2.743c0-0.716,0-1.802,0-2.456
	c0-0.573,0.283-1.521,1.228-2.354c0.881-0.778,2.396-1.003,3.07-1.003c0.513,0,8.067,0,9.091,0c0.758,0,1.781,0.184,2.702,1.003
	c0.772,0.687,1.105,1.801,1.105,2.354c0,0.491,0,1.351,0,1.351H59.762z"/>
<g>
	<g>
		<path fill="#FF341A" d="M15.744,88.862h-5.732l-8.106,15.026h4.871l1.475-2.824h9.254l1.679,2.824h4.668L15.744,88.862z
			 M10.012,98.033l2.948-5.486l3.03,5.486H10.012z"/>
	</g>
</g>
<polygon fill="#FF341A" points="24.916,103.889 24.916,88.862 31.877,88.862 40.394,99.671 40.394,88.862 44.898,88.862 
	44.898,103.889 38.019,103.889 29.502,93.202 29.502,103.889 "/>
<polygon fill="#FF341A" points="82.404,92.629 82.404,88.862 66.108,88.862 66.108,103.889 82.404,103.889 82.404,100.327 
	70.694,100.327 70.694,97.788 81.422,97.788 81.422,94.922 70.694,94.922 70.694,92.629 "/>
<polygon fill="#FF341A" points="108.527,103.889 108.527,92.629 101.977,92.629 101.977,88.862 118.929,88.862 118.929,92.629 
	112.622,92.629 112.622,103.889 "/>
<polygon fill="#FF341A" points="90.102,103.889 90.102,92.629 83.551,92.629 83.551,88.862 100.503,88.862 100.503,92.629 
	94.196,92.629 94.196,103.889 "/>
<polygon fill="#FF341A" points="61.44,3.694 40.721,46.934 99.438,79.854 "/>
<polygon fill="#FF341A" points="39.575,48.653 23.935,80.264 61.604,61.101 "/>
</svg>
