<svg xmlns="http://www.w3.org/2000/svg" viewBox="0 0 1052.49 174.83"><defs><style>.cls-1{fill:#206fb6;}.cls-2{fill:#224576;}.cls-3{fill:#215a96;}</style></defs><title>Arc en ciel LOGO Version finale copie 5</title><g id="BASELINE"><path class="cls-1" d="M921,17.89c0-1.61.73-2.41,2.21-2.41h48.45a2.18,2.18,0,0,1,1.86.73,3,3,0,0,1,.55,1.84v8.88a2.3,2.3,0,0,1-2.51,2.32H935.79V44.48h27.55a2,2,0,0,1,1.6.42,2.26,2.26,0,0,1,.61,1.79v9.1a2.69,2.69,0,0,1-.5,1.6,1.86,1.86,0,0,1-1.61.71H935.79V76.34h37.05a2.24,2.24,0,0,1,1.86.61,3.11,3.11,0,0,1,.45,1.86V88c0,1.42-.74,2.12-2.21,2.12H923.18a2.47,2.47,0,0,1-1.56-.5A1.91,1.91,0,0,1,921,88Z"/><path class="cls-1" d="M992.09,17.69a2.24,2.24,0,0,1,.6-1.56,2.2,2.2,0,0,1,1.7-.65h10a2.35,2.35,0,0,1,1.57.57,2,2,0,0,1,.68,1.64V76.34h31.46a2.15,2.15,0,0,1,1.56.63,2.21,2.21,0,0,1,.66,1.68v9.2a2.32,2.32,0,0,1-.61,1.58,2,2,0,0,1-1.61.68H994.29a2,2,0,0,1-2.2-2.21Z"/><path class="cls-1" d="M899.81,32.36V86.53c0,1.47-.79,2.21-2.36,2.21h-10a2,2,0,0,1-2.21-2.21V39.8Z"/><path class="cls-2" d="M149.55,13.72C76.37,13.72,16.34,71.27,12,143.65h0a58.34,58.34,0,0,0,52.46-33A94.67,94.67,0,0,1,149.55,57h83c24.3,0,47.93-12,67.31-26.68l14.7-11.95a1.71,1.71,0,0,0-1-3.08Z"/><path class="cls-3" d="M153.89,66c-49.43,0-90.14,38.17-94.42,86.68h0A73.27,73.27,0,0,0,115,127.18a51.29,51.29,0,0,1,38.94-17.93h25.58A111.61,111.61,0,0,0,246.38,87L270.25,69.1a1.72,1.72,0,0,0-1-3.1Z"/><path class="cls-1" d="M194,138.76l24-18a1.72,1.72,0,0,0-1-3.09l-57.24-.1a52.06,52.06,0,0,0-51.24,43.56H127A111.55,111.55,0,0,0,194,138.76Z"/><path class="cls-2" d="M371.88,17.39a3,3,0,0,1,.83-1.24,2.47,2.47,0,0,1,1.83-.67h8.09a2.21,2.21,0,0,1,1.74.6,6.25,6.25,0,0,1,.78,1.06l1.66,3.92,26.53,66.39a3.38,3.38,0,0,0,.08.53,3.25,3.25,0,0,1,.07.63c0,1-.73,1.5-2.21,1.5h-9.9a2.81,2.81,0,0,1-1.71-.45,3.24,3.24,0,0,1-1-1.41l-.91-2.31c-.63-1.61-1.27-3.21-1.91-4.82s-1.25-3.24-1.86-4.88H363q-1.31,3.53-2.54,6.61t-2.08,5.4a2.6,2.6,0,0,1-2.62,1.86H345.69a2.87,2.87,0,0,1-1.53-.35C343.77,89.53,371.88,17.39,371.88,17.39Zm6.73,17.24q-2.72,6.93-5.4,14.37t-5.4,14.32h21.41Z"/><path class="cls-2" d="M429,17.84c0-1.58.74-2.36,2.21-2.36H462a23.58,23.58,0,0,1,9.5,1.91,24.91,24.91,0,0,1,7.72,5.17,24,24,0,0,1,7.06,17.09,23.12,23.12,0,0,1-.95,6.64,24.1,24.1,0,0,1-2.67,5.88,24.33,24.33,0,0,1-9.3,8.59l13.07,25.78a3.91,3.91,0,0,0,.35,1,2.33,2.33,0,0,1,.25,1.06c0,1-.58,1.5-1.75,1.5H473.6a2.38,2.38,0,0,1-2.41-1.86L459,64.13l-1.74,0c-.62,0-1.47,0-2.56,0H443.65V88q0,2.16-2.31,2.16H431.23a2.34,2.34,0,0,1-1.6-.52A2.06,2.06,0,0,1,429,88Zm42.37,21.89a11.39,11.39,0,0,0-.8-4.19,12,12,0,0,0-2.26-3.64,11.66,11.66,0,0,0-3.47-2.6,11.28,11.28,0,0,0-4.37-1.16c-1.18,0-2.32-.06-3.45-.07s-2.28,0-3.49,0h-9.9V51.36H458.8a18.17,18.17,0,0,0,1.89-.1,11.72,11.72,0,0,0,4.34-1.1,10.76,10.76,0,0,0,3.4-2.53A11.66,11.66,0,0,0,470.61,44,11.82,11.82,0,0,0,471.39,39.73Z"/><path class="cls-2" d="M559.9,20.9a3.69,3.69,0,0,1,1,.86,1.91,1.91,0,0,1,.4,1.21,2.59,2.59,0,0,1-.3,1.15l-4.88,8.29a2.32,2.32,0,0,1-1.81,1.16,2.23,2.23,0,0,1-.7-.13,3.24,3.24,0,0,1-.81-.37A26.68,26.68,0,0,0,546,29.55a23.23,23.23,0,0,0-7.69-1.26,22.52,22.52,0,0,0-9.4,1.94,23.13,23.13,0,0,0-7.39,5.25,23.85,23.85,0,0,0-4.85,7.79,26.44,26.44,0,0,0-1.73,9.6,26,26,0,0,0,1.73,9.52,23.86,23.86,0,0,0,4.85,7.77,22.6,22.6,0,0,0,16.79,7.14A23.86,23.86,0,0,0,546.1,76a25.3,25.3,0,0,0,6.81-3.52,2.35,2.35,0,0,1,.83-.4c.29-.07.53-.12.73-.15a2.43,2.43,0,0,1,1.76,1.11l5,8.39a2.5,2.5,0,0,1,.3,1.1,1.6,1.6,0,0,1-.43,1.16,6.3,6.3,0,0,1-1,.85,39.72,39.72,0,0,1-10.18,4.91A38.42,38.42,0,0,1,519,86a38.39,38.39,0,0,1-7.77-6,39.14,39.14,0,0,1-6-7.74,37.3,37.3,0,0,1-3.87-9.15,38.57,38.57,0,0,1,3.87-29.66,39,39,0,0,1,6-7.81,37.39,37.39,0,0,1,7.77-6,39.23,39.23,0,0,1,9.17-3.87,38.94,38.94,0,0,1,21.59.3A39.32,39.32,0,0,1,559.9,20.9Z"/><path class="cls-2" d="M616.09,17.89c0-1.61.74-2.41,2.21-2.41h48.45a2.18,2.18,0,0,1,1.86.73,3,3,0,0,1,.56,1.84v8.88a2.35,2.35,0,0,1-.63,1.61,2.41,2.41,0,0,1-1.89.71H630.92V44.48h27.54a2,2,0,0,1,1.61.42,2.3,2.3,0,0,1,.6,1.79v9.1a2.69,2.69,0,0,1-.5,1.6,1.85,1.85,0,0,1-1.61.71H630.92V76.34h37a2.21,2.21,0,0,1,1.86.61,3.11,3.11,0,0,1,.45,1.86V88c0,1.42-.74,2.12-2.21,2.12H618.3a2.47,2.47,0,0,1-1.56-.5,1.91,1.91,0,0,1-.65-1.61Z"/><path class="cls-2" d="M687.16,17.74a2.33,2.33,0,0,1,.58-1.61,2.07,2.07,0,0,1,1.63-.65h11.56a2.93,2.93,0,0,1,1.33.32,3.21,3.21,0,0,1,1.13,1q8.6,12.27,17,24.36l17,24.35V17.39a2.14,2.14,0,0,1,2.21-1.91h9.7a2.67,2.67,0,0,1,1.74.6,2,2,0,0,1,.72,1.61V88.05c0,1.38-.78,2.06-2.36,2.06h-10.9a2.64,2.64,0,0,1-2.07-1.35q-8.84-12.83-17.61-25.61T701.33,37.49V87.9a2.29,2.29,0,0,1-.53,1.66,2.37,2.37,0,0,1-1.78.55h-9.65a2.19,2.19,0,0,1-1.68-.57,2.25,2.25,0,0,1-.53-1.59Z"/><path class="cls-2" d="M865.38,20.9a3.69,3.69,0,0,1,1,.86,1.91,1.91,0,0,1,.4,1.21,2.59,2.59,0,0,1-.3,1.15l-4.88,8.29a2.32,2.32,0,0,1-1.81,1.16,2.23,2.23,0,0,1-.7-.13,3.24,3.24,0,0,1-.81-.37,26.68,26.68,0,0,0-6.78-3.52,23.23,23.23,0,0,0-7.69-1.26,22.52,22.52,0,0,0-9.4,1.94A23.13,23.13,0,0,0,827,35.48a23.85,23.85,0,0,0-4.85,7.79,26.44,26.44,0,0,0-1.73,9.6,26,26,0,0,0,1.73,9.52A23.86,23.86,0,0,0,827,70.16a22.6,22.6,0,0,0,16.79,7.14A23.86,23.86,0,0,0,851.58,76a25.3,25.3,0,0,0,6.81-3.52,2.35,2.35,0,0,1,.83-.4c.29-.07.53-.12.73-.15a2.43,2.43,0,0,1,1.76,1.11l5,8.39a2.5,2.5,0,0,1,.3,1.1,1.6,1.6,0,0,1-.43,1.16,6.3,6.3,0,0,1-1,.85,39.72,39.72,0,0,1-10.18,4.91A38.42,38.42,0,0,1,824.52,86a38.39,38.39,0,0,1-7.77-6,39.14,39.14,0,0,1-6-7.74,37.3,37.3,0,0,1-3.87-9.15,38.57,38.57,0,0,1,3.87-29.66,39,39,0,0,1,6-7.81,37.39,37.39,0,0,1,7.77-6,39.23,39.23,0,0,1,9.17-3.87,38.94,38.94,0,0,1,21.59.3A39.32,39.32,0,0,1,865.38,20.9Z"/><path class="cls-2" d="M885.28,32.2V19.06a2.4,2.4,0,0,1,.55-1.56,2.07,2.07,0,0,1,1.66-.65h10a2.54,2.54,0,0,1,1.61.6,2,2,0,0,1,.75,1.61v5.69Z"/><path class="cls-2" d="M361,120.54h3.88l16.75,37h-4.46l-4.31-9.71h-20l-4.36,9.71h-4.25Zm10.24,23.53-8.35-18.69-8.4,18.69Z"/><path class="cls-2" d="M453.33,120.81h4.15v36.75h-4.15Z"/><path class="cls-2" d="M532.36,120.81h15.8c4.52,0,8.14,1.36,10.45,3.67a10.15,10.15,0,0,1,2.84,7.25v.1c0,6.09-4.2,9.66-10,10.71l11.29,15h-5.09L547,143.28h-10.5v14.28h-4.15Zm15.44,18.74c5.51,0,9.45-2.83,9.45-7.56v-.1c0-4.52-3.47-7.25-9.4-7.25H536.51v14.91Z"/><path class="cls-2" d="M634.45,120.81h4.14v32.92h20.69v3.83H634.45Z"/><path class="cls-1" d="M735.58,127.28v30.28h-4.14V128.41"/><path class="cls-1" d="M810.47,120.81h3.88l23.16,29.45V120.81h4v36.75h-3.31l-23.73-30.14v30.14h-4Z"/><path class="cls-1" d="M916.07,120.81h26.57v3.78H920.22v12.55h20.06v3.78H920.22v12.86H942.9v3.78H916.07Z"/><path class="cls-1" d="M1013,152.21l2.57-3.05c3.83,3.47,7.51,5.2,12.6,5.2,4.94,0,8.19-2.63,8.19-6.25V148c0-3.42-1.84-5.36-9.55-7-8.46-1.84-12.34-4.57-12.34-10.6v-.11c0-5.78,5.09-10,12.07-10a19.15,19.15,0,0,1,12.92,4.52L1037,128a16.14,16.14,0,0,0-10.6-4c-4.78,0-7.83,2.63-7.83,5.93v.11c0,3.46,1.89,5.41,10,7.14s12,4.78,12,10.4v.1c0,6.3-5.25,10.4-12.55,10.4A21.54,21.54,0,0,1,1013,152.21Z"/><polyline class="cls-2" points="731.43 125.8 731.43 120.81 735.58 120.81 735.58 124.72"/></g></svg>