<?xml version="1.0" encoding="UTF-8" standalone="no"?>
<!-- Created with Inkscape (http://www.inkscape.org/) -->

<svg
   xmlns:dc="http://purl.org/dc/elements/1.1/"
   xmlns:cc="http://creativecommons.org/ns#"
   xmlns:rdf="http://www.w3.org/1999/02/22-rdf-syntax-ns#"
   xmlns:svg="http://www.w3.org/2000/svg"
   xmlns="http://www.w3.org/2000/svg"
   xmlns:sodipodi="http://sodipodi.sourceforge.net/DTD/sodipodi-0.dtd"
   xmlns:inkscape="http://www.inkscape.org/namespaces/inkscape"
   width="250.00002"
   height="70.467407"
   viewBox="0 0 66.145835 18.644501"
   version="1.1"
   id="svg4368"
   inkscape:version="0.92.0 r15299"
   sodipodi:docname="arik air.svg">
  <defs
     id="defs4362" />
  <sodipodi:namedview
     id="base"
     pagecolor="#ffffff"
     bordercolor="#666666"
     borderopacity="1.0"
     inkscape:pageopacity="0.0"
     inkscape:pageshadow="2"
     inkscape:zoom="1.0126133"
     inkscape:cx="442.91345"
     inkscape:cy="122.27864"
     inkscape:document-units="mm"
     inkscape:current-layer="layer1"
     showgrid="false"
     fit-margin-top="0"
     fit-margin-left="0"
     fit-margin-right="0"
     fit-margin-bottom="0"
     units="px"
     inkscape:window-width="1280"
     inkscape:window-height="744"
     inkscape:window-x="-4"
     inkscape:window-y="-4"
     inkscape:window-maximized="1" />
  <metadata
     id="metadata4365">
    <rdf:RDF>
      <cc:Work
         rdf:about="">
        <dc:format>image/svg+xml</dc:format>
        <dc:type
           rdf:resource="http://purl.org/dc/dcmitype/StillImage" />
        <dc:title></dc:title>
      </cc:Work>
    </rdf:RDF>
  </metadata>
  <g
     inkscape:label="Layer 1"
     inkscape:groupmode="layer"
     id="layer1"
     transform="translate(-51.389863,-322.80363)">
    <g
       id="g4440"
       transform="matrix(0.27996445,0,0,0.27996445,37.267113,245.59021)"
       style="stroke-width:3.57188201">
      <path
         style="fill:#949599;fill-opacity:1;fill-rule:nonzero;stroke:none;stroke-width:5.93091011"
         id="path4980"
         d="m 200.87466,340.51828 c 0,0 -0.24242,-3.87382 2.1785,-8.67748 0,0 7.51019,-9.16399 -11.62477,-24.90666 0,0 -11.10006,-8.69741 -12.22917,-14.24827 l 8.45498,7.16648 -0.20091,-1.21213 c 0,0 -9.48612,-8.78043 -9.48612,-9.18225 l -0.0996,-2.42259 9.18225,9.38317 c 0,0 -0.54462,-1.69532 -1.41303,-2.56207 l -8.37694,-9.4446 0.24408,-2.62516 8.83854,10.89915 -0.0996,-1.11084 c 0,0 -7.28769,-9.10255 -8.73892,-12.49318 l 0.56455,-2.33956 c 0,0 10.89916,22.48407 30.17359,26.94402 0,0 7.8705,2.23994 11.19969,2.88585 0,0 6.35951,1.69532 2.72645,7.14489"
         inkscape:connector-curvature="0" />
      <path
         style="fill:#0d3f84;fill-opacity:1;fill-rule:nonzero;stroke:none;stroke-width:5.93091011"
         id="path4984"
         d="M 95.710434,340.84207 84.32809,294.58376 h -8.234141 l -24.704086,46.49907 h 7.750952 l 6.115416,-13.07765 14.530545,-0.3022 3.086765,13.13909 z m -15.863882,-17.5592 h -12.22917 l 8.234142,-15.56168"
         inkscape:connector-curvature="0" />
      <path
         style="fill:#0d3f84;fill-opacity:1;fill-rule:nonzero;stroke:none;stroke-width:5.93091011"
         id="path4988"
         d="m 102.73411,340.87195 4.44999,-33.21054 h 10.44419 l -0.6044,6.66004 c 0,0 4.11624,-7.74929 9.80824,-7.14323 l -1.5741,10.89749 c 0,0 -7.03696,-3.31092 -9.1507,4.27897 l -2.26319,18.51727"
         inkscape:connector-curvature="0" />
      <path
         style="fill:#0d3f84;fill-opacity:1;fill-rule:nonzero;stroke:none;stroke-width:5.93091011"
         id="path4992"
         d="m 140.6271,340.87195 h -10.29309 l 4.60275,-32.36371 h 10.17188"
         inkscape:connector-curvature="0" />
      <path
         style="fill:#0d3f84;fill-opacity:1;fill-rule:nonzero;stroke:none;stroke-width:5.93091011"
         id="path4996"
         d="m 150.76578,340.87195 5.81321,-43.26121 10.05067,-0.12121 -3.51184,24.34045 h 2.05895 l 12.59447,-13.80493 9.32173,0.12121 -12.95644,13.68372 9.32505,19.19307 -13.1092,-0.1511 -5.41803,-14.56209 h -2.5438 l -1.93774,14.41099"
         inkscape:connector-curvature="0" />
      <path
         style="fill:#949599;fill-opacity:1;fill-rule:nonzero;stroke:none;stroke-width:5.93091011"
         id="path5000"
         d="m 202.04029,341.44813 24.19765,-28.55798 c 0,0 2.20175,-3.76256 9.05274,-3.93193 6.85099,-0.17102 20.17107,-2.4176 23.34086,-3.28934 3.17145,-0.87339 23.74103,-7.24119 27.13332,-11.06021 0,0 -4.53966,4.40183 -6.43754,5.14903 0,0 -12.65093,5.42633 -16.04321,6.20176 l -1.23371,1.25862 c 0,0 13.26196,-3.97179 13.73353,-4.55294 l -3.4338,2.57369 c 0,0 -9.91119,2.99046 -12.2657,3.5301 l -1.64716,1.55086 c 0,0 10.24494,-2.81114 10.83938,-3.10171 0,0 -2.43421,1.89788 -2.90578,2.25654 0,0 -8.94315,2.24326 -9.5791,2.49233 l -1.35658,1.16397 9.10753,-2.32628 c 0,0 -14.12041,8.72065 -19.47701,9.78665 0,0 -12.16773,3.53011 -18.06563,4.26402 -5.89623,0.73392 -8.11126,4.36033 -10.38275,6.20176 -2.26983,1.83977 -9.71858,9.49608 -14.57704,10.39106"
         inkscape:connector-curvature="0" />
    </g>
  </g>
</svg>
