<?xml version="1.0" encoding="UTF-8" standalone="no"?>
<!-- Created with Inkscape (http://www.inkscape.org/) -->
<!DOCTYPE svg PUBLIC "-//W3C//DTD SVG 1.1//EN" "http://www.w3.org/Graphics/SVG/1.1/DTD/svg11.dtd">
<svg
   xmlns:svg="http://www.w3.org/2000/svg"
   xmlns="http://www.w3.org/2000/svg"
   version="1.1"
   width="400"
   height="150"
   viewBox="0 0 0.55555556 0.20833333"
   id="svg2860">
  <defs
     id="defs2898" />
  <polygon
     points="211.34,386.9 383.94,386.9 383.94,454.99 211.34,454.99 "
     transform="matrix(0.0017361,0,0,-0.0017361,-0.03125,0.39583333)"
     id="polygon2870"
     style="font-style:normal;font-variant:normal;font-weight:normal;font-stretch:normal;letter-spacing:normal;word-spacing:normal;text-anchor:start;fill:#ffffff;fill-opacity:1;fill-rule:evenodd;stroke:#ffffff;stroke-width:0;stroke-linecap:butt;stroke-linejoin:miter;stroke-miterlimit:10.43299961;stroke-opacity:1;stroke-dasharray:none;stroke-dashoffset:0" />
  <g
     id="g2914">
    <polygon
       points="394.02,517.32 201.26,517.32 201.26,324.57 394.02,324.57 "
       transform="matrix(0.00288211,0,0,-0.00108085,-0.58005344,0.55914507)"
       id="polygon2872"
       style="font-style:normal;font-variant:normal;font-weight:normal;font-stretch:normal;letter-spacing:normal;word-spacing:normal;text-anchor:start;fill:#ff6600;fill-opacity:1;fill-rule:evenodd;stroke:#ff6600;stroke-width:0;stroke-linecap:butt;stroke-linejoin:miter;stroke-miterlimit:10.43299961;stroke-opacity:1;stroke-dasharray:none;stroke-dashoffset:0" />
    <g
       transform="matrix(1.7298454,0,0,1.7298333,-0.56203381,-0.68584335)"
       id="g2920">
      <path
         d="m 0.33798375,0.43529995 0.0253123,0 c 0.002483,0 0.004358,7.8125e-4 0.005104,0.004306 8.1597e-4,0.003924 4.6875e-4,0.006649 -0.003941,0.006962 l -0.007951,5.5555e-4 c 0.005851,0.0369269 0.0400692,0.048958 0.0586802,0.009201 0.00309,-0.00658 0.004097,-0.007778 0.007483,-0.006944 0.004566,0.001146 0.005191,0.00349 0.003021,0.0101215 -0.016111,0.0490101 -0.0702252,0.0539406 -0.0808502,-0.0115277 l -0.006458,4.5139e-4 c -0.005243,3.993e-4 -0.005451,-0.004045 -0.005451,-0.006493 0,-0.004878 0.001806,-0.006632 0.005052,-0.006632 z"
         id="path2874"
         style="font-style:normal;font-variant:normal;font-weight:normal;font-stretch:normal;letter-spacing:normal;word-spacing:normal;text-anchor:start;fill:#ffffff;fill-opacity:1;fill-rule:evenodd;stroke:#ffffff;stroke-width:0;stroke-linecap:butt;stroke-linejoin:miter;stroke-miterlimit:10.43299961;stroke-opacity:1;stroke-dasharray:none;stroke-dashoffset:0" />
      <path
         d="m 0.43004913,0.41160219 4.8611e-4,1.736e-5 4.6875e-4,3.472e-5 4.6874e-4,5.208e-5 4.6875e-4,8.681e-5 4.5139e-4,1.0416e-4 4.5138e-4,1.2153e-4 4.3403e-4,1.5625e-4 4.1666e-4,1.5625e-4 4.1666e-4,1.9097e-4 4.1667e-4,2.0833e-4 3.8194e-4,2.257e-4 3.8194e-4,2.4305e-4 3.6458e-4,2.6041e-4 3.6458e-4,2.7778e-4 3.2986e-4,2.9514e-4 3.2986e-4,3.125e-4 3.125e-4,3.2985e-4 2.9514e-4,3.2986e-4 2.7777e-4,3.6458e-4 2.6042e-4,3.6459e-4 2.4305e-4,3.8194e-4 2.257e-4,3.8194e-4 2.0833e-4,4.1666e-4 1.9097e-4,4.1667e-4 1.7361e-4,4.1666e-4 1.3889e-4,4.3403e-4 1.3888e-4,4.5138e-4 1.0417e-4,4.5139e-4 6.944e-5,4.6875e-4 6.945e-5,4.6874e-4 3.472e-5,4.6875e-4 1.736e-5,4.8611e-4 c 0,0.005191 -0.004219,0.009392 -0.009392,0.009392 -0.005174,0 -0.009392,-0.004201 -0.009392,-0.009392 0,-0.005174 0.004219,-0.009375 0.009392,-0.009375 z"
         id="path2876"
         style="font-style:normal;font-variant:normal;font-weight:normal;font-stretch:normal;letter-spacing:normal;word-spacing:normal;text-anchor:start;fill:#ffffff;fill-opacity:1;fill-rule:evenodd;stroke:#ffffff;stroke-width:0;stroke-linecap:butt;stroke-linejoin:miter;stroke-miterlimit:10.43299961;stroke-opacity:1;stroke-dasharray:none;stroke-dashoffset:0" />
      <path
         d="m 341.78125,325.9375 c -1.66248,0 -2.3875,0.225 -2.75,0.5 -0.1625,0.13752 -0.36251,0.375 -0.5625,0.9375 l -8.40625,23.75 c -0.1625,0.48744 -0.28125,0.925 -0.28125,1.25 0,0.3625 0.2125,0.5625 0.375,0.6875 0.36216,0.275 1.06849,0.46875 2.40625,0.46875 1.38744,0 2.1875,-0.19375 2.5625,-0.46875 0.2375,-0.20016 0.525,-0.77501 0.6875,-1.3125 l 1.34375,-4.15625 9.125,0 1.375,4.15625 c 0.175,0.53784 0.4375,1.11251 0.6875,1.3125 0.36216,0.275 1.26881,0.46875 2.65625,0.46875 l 0.125,0 0.0937,0 0.125,0 0.125,0 0.0937,0 0.125,0 0.0937,0 0.0937,-0.0312 0.125,0 0.0625,0 0.125,-0.0312 0.0625,0 0.0937,0 0.0937,-0.0312 0.0625,0 0.0937,-0.0312 0.0625,0 0.0625,-0.0312 0.0937,-0.0312 0.0625,0 0.0625,-0.0312 0.0625,0 0.0625,-0.0312 0.0312,-0.0312 0.0625,0 0.0312,-0.0312 0.0625,-0.0312 0.0625,-0.0312 0.0312,0 0.0312,-0.0312 0.0312,-0.0312 0.0312,-0.0312 c 0.1625,-0.125 0.375,-0.325 0.375,-0.6875 0,-0.32472 -0.10625,-0.7625 -0.28125,-1.25 l -8.40625,-23.75 c -0.19999,-0.56244 -0.4,-0.8 -0.5625,-0.9375 -0.36288,-0.275 -1.06909,-0.5 -2.78125,-0.5 z m -0.0937,7.71875 3.09375,9.3125 -6.125,0 3.03125,-9.3125 z"
         transform="scale(0.00138889,0.00138889)"
         id="path2880"
         style="font-style:normal;font-variant:normal;font-weight:normal;font-stretch:normal;letter-spacing:normal;word-spacing:normal;text-anchor:start;fill:#ffffff;fill-opacity:1;fill-rule:evenodd;stroke:#ffffff;stroke-width:0;stroke-linecap:butt;stroke-linejoin:miter;stroke-miterlimit:10.43299961;stroke-opacity:1;stroke-dasharray:none;stroke-dashoffset:0" />
      <path
         d="m 0.51190625,0.47121986 -8.681e-5,1.7361e-4 -1.0417e-4,1.9097e-4 -1.0416e-4,1.7361e-4 -1.0417e-4,1.7361e-4 -5.208e-5,8.681e-5 -5.208e-5,8.68e-5 -5.209e-5,8.681e-5 -6.944e-5,6.944e-5 -5.208e-5,8.681e-5 -6.945e-5,6.944e-5 -6.944e-5,8.681e-5 -6.944e-5,6.944e-5 -5.209e-5,6.944e-5 -6.944e-5,5.209e-5 -6.945e-5,6.944e-5 -6.944e-5,5.208e-5 -8.681e-5,6.945e-5 -6.944e-5,5.208e-5 -6.944e-5,3.472e-5 -6.945e-5,5.209e-5 -8.68e-5,3.472e-5 -6.945e-5,3.472e-5 -8.68e-5,3.472e-5 -6.945e-5,1.736e-5 -8.68e-5,1.736e-5 -8.681e-5,1.737e-5 -8.68e-5,1.736e-5 -6.944e-5,0 c -6.25e-4,0 -0.001076,-1.7361e-4 -0.00158,-3.9931e-4 -5.7291e-4,-2.2569e-4 -0.001076,-3.993e-4 -0.001701,-3.993e-4 -0.001267,0 -0.001962,3.4722e-4 -0.002691,0.001128 -7.8124e-4,8.3332e-4 -0.001354,0.001979 -0.001354,0.003941 l 0,0.0111979 c 0,9.0277e-4 -1.7361e-4,0.001302 -6.2499e-4,0.001632 -4.5139e-4,3.993e-4 -0.001562,6.25e-4 -0.003368,6.25e-4 -0.001858,0 -0.002934,-2.257e-4 -0.003385,-6.25e-4 -4.5139e-4,-3.2986e-4 -6.0764e-4,-7.2916e-4 -6.0764e-4,-0.001632 l 0,-0.0191839 c 0,-0.001128 1.0417e-4,-0.001753 6.0764e-4,-0.002257 4.5138e-4,-4.5138e-4 0.00158,-7.8124e-4 0.002604,-0.001007 8.3333e-4,-1.7361e-4 0.002135,-3.8194e-4 0.002812,-3.8194e-4 4.8611e-4,0 0.001059,8.681e-5 0.001337,3.125e-4 4.5138e-4,3.993e-4 4.5138e-4,7.4652e-4 4.5138e-4,0.001927 l 0,8.5069e-4 c 6.25e-4,-0.001076 0.002483,-0.00309 0.005243,-0.00309 0.00151,0 0.002361,2.0833e-4 0.00349,7.118e-4 0.001181,5.2083e-4 0.001753,0.00125 0.001753,0.001858 0,9.7222e-4 -4.6875e-4,0.001858 -9.0277e-4,0.002812 z"
         id="path2882"
         style="font-style:normal;font-variant:normal;font-weight:normal;font-stretch:normal;letter-spacing:normal;word-spacing:normal;text-anchor:start;fill:#ffffff;fill-opacity:1;fill-rule:evenodd;stroke:#ffffff;stroke-width:0;stroke-linecap:butt;stroke-linejoin:miter;stroke-miterlimit:10.43299961;stroke-opacity:1;stroke-dasharray:none;stroke-dashoffset:0" />
      <path
         d="m 0.53987482,0.49024752 -3.472e-5,1.736e-5 -5.209e-5,3.472e-5 -5.208e-5,3.472e-5 -6.944e-5,1.736e-5 -6.945e-5,3.473e-5 -6.944e-5,3.472e-5 -6.945e-5,1.736e-5 -6.944e-5,3.472e-5 -8.681e-5,3.472e-5 -8.68e-5,1.736e-5 -8.681e-5,3.473e-5 -1.0416e-4,1.736e-5 -1.0417e-4,3.472e-5 -1.0416e-4,3.472e-5 -1.0417e-4,1.736e-5 -1.0417e-4,3.472e-5 -1.2152e-4,1.736e-5 -1.2153e-4,1.737e-5 -1.2153e-4,3.472e-5 -1.3889e-4,1.736e-5 -1.2152e-4,1.736e-5 -1.3889e-4,1.736e-5 -1.3889e-4,1.736e-5 -1.3889e-4,1.736e-5 -1.5624e-4,1.736e-5 -1.5625e-4,1.736e-5 -1.5625e-4,0 -1.5625e-4,1.737e-5 -1.5625e-4,0 -1.7361e-4,1.736e-5 -1.7361e-4,0 -1.7361e-4,0 c -0.002187,0 -0.004149,5.208e-5 -0.005382,-0.001615 l -0.006996,-0.009757 0,0.009115 c 0,9.0277e-4 -1.7361e-4,0.001302 -6.0764e-4,0.001632 -4.6875e-4,3.993e-4 -0.00158,6.25e-4 -0.003385,6.25e-4 -0.001858,0 -0.002917,-2.257e-4 -0.003368,-6.25e-4 -4.6874e-4,-3.2986e-4 -6.2499e-4,-7.2916e-4 -6.2499e-4,-0.001632 l 0,-0.0322394 c 0,-0.001128 1.0416e-4,-0.001753 6.2499e-4,-0.002257 4.5139e-4,-4.5139e-4 0.001684,-7.9861e-4 0.002691,-0.001007 8.3333e-4,-1.7361e-4 0.002205,-3.993e-4 0.002865,-3.993e-4 5.2083e-4,0 0.001076,1.0416e-4 0.001354,3.2986e-4 4.5139e-4,3.993e-4 4.5139e-4,7.4652e-4 4.5139e-4,0.001927 l 0,0.0191839 0.006424,-0.006649 c 0.001406,-0.001406 0.002917,-0.001285 0.005121,-0.001285 0.001858,0 0.00276,2.7777e-4 0.003212,5.5555e-4 3.993e-4,2.4305e-4 6.2499e-4,5.7291e-4 6.2499e-4,0.001128 0,5.7292e-4 -6.9444e-4,0.001181 -0.001701,0.002205 l -0.00658,0.00658 0.007986,0.009965 c 8.3332e-4,0.001076 0.001545,0.001858 0.001545,0.002413 0,5.7292e-4 -2.4305e-4,9.0277e-4 -6.4235e-4,0.001128 z"
         id="path2884"
         style="font-style:normal;font-variant:normal;font-weight:normal;font-stretch:normal;letter-spacing:normal;word-spacing:normal;text-anchor:start;fill:#ffffff;fill-opacity:1;fill-rule:evenodd;stroke:#ffffff;stroke-width:0;stroke-linecap:butt;stroke-linejoin:miter;stroke-miterlimit:10.43299961;stroke-opacity:1;stroke-dasharray:none;stroke-dashoffset:0" />
      <path
         d="m 398.5625,335.21875 c -5.8878,0 -9.125,3.83143 -9.125,9.34375 0,5.7127 3.725,9.15625 9.125,9.15625 3.11256,0 4.7878,-0.44375 5.875,-0.84375 1.09966,-0.41256 1.25,-0.8625 1.25,-1.3125 0,-0.52488 -0.0813,-0.88772 -0.40625,-1.625 -0.37512,-0.8502 -0.64996,-1.375 -1.375,-1.375 -0.69984,0 -1.20625,0.25 -1.84375,0.375 -0.6624,0.1125 -1.71909,0.1875 -2.53125,0.1875 -2.6748,0 -4.08125,-1.14353 -4.40625,-2.65625 l 8.90625,0 0.125,0 0.0937,0 0.125,0 0.0937,0 0.0937,-0.0312 0.0937,0 0.0937,0 0.0937,-0.0312 0.0937,0 0.0937,0 0.0937,0 0.0625,-0.0312 0.0937,0 0.0625,-0.0312 0.0937,0 0.0625,-0.0312 0.0625,0 0.0625,-0.0312 0.0625,0 0.0625,-0.0312 0.0625,-0.0312 0.0625,0 0.0625,-0.0312 0.0312,-0.0312 0.0625,-0.0312 0.0312,-0.0312 0.0625,0 0.0312,-0.0312 0.0312,-0.0312 0.0312,-0.0312 0.0312,-0.0312 0.0625,-0.0312 c 0.325,-0.32544 0.46875,-0.4497 0.46875,-2.0625 0,-4.66236 -2.63155,-8.65625 -8.21875,-8.65625 z m -0.4375,4.03125 0.1875,0 c 1.7748,0 3.15625,1.21889 3.15625,3.40625 l -6.53125,0 0.0312,-0.1875 L 395,342.25 l 0.0312,-0.15625 0.0312,-0.1875 0.0625,-0.1875 0.0625,-0.15625 0.0625,-0.1875 0.0625,-0.15625 0.0625,-0.15625 0.0625,-0.125 0.0937,-0.15625 0.0937,-0.125 0.0937,-0.125 0.0937,-0.125 0.0937,-0.125 0.125,-0.125 0.0937,-0.0937 0.125,-0.0937 0.125,-0.125 0.125,-0.0625 0.125,-0.0937 0.125,-0.0625 0.15625,-0.0937 0.125,-0.0625 0.15625,-0.0312 0.15625,-0.0625 0.15625,-0.0312 0.15625,-0.0312 0.15625,-0.0312 0.15625,0 0.15625,-0.0312 z"
         transform="scale(0.00138889,0.00138889)"
         id="path2888"
         style="font-style:normal;font-variant:normal;font-weight:normal;font-stretch:normal;letter-spacing:normal;word-spacing:normal;text-anchor:start;fill:#ffffff;fill-opacity:1;fill-rule:evenodd;stroke:#ffffff;stroke-width:0;stroke-linecap:butt;stroke-linejoin:miter;stroke-miterlimit:10.43299961;stroke-opacity:1;stroke-dasharray:none;stroke-dashoffset:0" />
      <path
         d="m 0.59530849,0.45901508 -3.472e-5,6.944e-5 -5.209e-5,6.945e-5 -3.472e-5,6.944e-5 -5.208e-5,5.208e-5 -5.208e-5,5.209e-5 -5.209e-5,6.944e-5 -5.208e-5,5.208e-5 -5.208e-5,3.473e-5 -5.208e-5,5.208e-5 -6.945e-5,5.208e-5 -5.208e-5,3.472e-5 -6.945e-5,3.473e-5 -6.944e-5,3.472e-5 -6.944e-5,3.472e-5 -6.945e-5,3.472e-5 -6.944e-5,1.736e-5 -6.945e-5,3.472e-5 -8.68e-5,1.737e-5 -6.944e-5,1.736e-5 -8.681e-5,1.736e-5 -8.68e-5,1.736e-5 -8.681e-5,1.736e-5 -8.681e-5,1.736e-5 -1.0416e-4,0 -8.681e-5,1.736e-5 -1.0416e-4,1.736e-5 -1.0417e-4,0 -1.0416e-4,0 -1.0417e-4,0 -1.0417e-4,1.736e-5 -1.2152e-4,0 -1.0417e-4,0 -0.0139062,0 0,0.007431 0.0123784,0 c 9.5486e-4,0 0.001424,1.2153e-4 0.001701,2.7778e-4 4.5139e-4,2.7777e-4 5.5555e-4,6.7708e-4 5.5555e-4,0.00158 0,0.001354 -2.7777e-4,0.003212 -7.8124e-4,0.004167 -4.5139e-4,7.8124e-4 -0.001198,9.3749e-4 -0.002431,9.3749e-4 l -0.0114235,0 0,0.0143055 c 0,9.0277e-4 -1.7361e-4,0.001302 -6.25e-4,0.001632 -5.0347e-4,3.993e-4 -0.001684,6.25e-4 -0.003524,6.25e-4 -0.001927,0 -0.003108,-2.257e-4 -0.003628,-6.25e-4 -4.3402e-4,-3.2986e-4 -6.2499e-4,-7.2916e-4 -6.2499e-4,-0.001632 l 0,-0.0332116 c 0,-9.5485e-4 2.9513e-4,-0.00151 6.7708e-4,-0.00184 5.2083e-4,-3.9931e-4 0.001424,-6.25e-4 0.003281,-6.25e-4 l 0.0193054,0 c 9.3749e-4,0 0.001424,1.0417e-4 0.001701,2.7778e-4 4.3403e-4,2.9513e-4 5.5556e-4,6.7708e-4 5.5556e-4,0.00158 0,0.001354 -2.9514e-4,0.003212 -7.9861e-4,0.004167 z"
         id="path2890"
         style="font-style:normal;font-variant:normal;font-weight:normal;font-stretch:normal;letter-spacing:normal;word-spacing:normal;text-anchor:start;fill:#ffffff;fill-opacity:1;fill-rule:evenodd;stroke:#ffffff;stroke-width:0;stroke-linecap:butt;stroke-linejoin:miter;stroke-miterlimit:10.43299961;stroke-opacity:1;stroke-dasharray:none;stroke-dashoffset:0" />
      <path
         d="m 0.60685356,0.4902996 -3.473e-5,5.208e-5 -5.208e-5,3.473e-5 -5.208e-5,3.472e-5 -5.209e-5,3.472e-5 -6.944e-5,1.736e-5 -6.944e-5,3.472e-5 -5.209e-5,3.472e-5 -8.68e-5,3.473e-5 -6.945e-5,1.736e-5 -8.68e-5,3.472e-5 -6.944e-5,1.736e-5 -8.681e-5,3.472e-5 -1.0417e-4,1.736e-5 -8.68e-5,1.736e-5 -1.0417e-4,3.473e-5 -1.0416e-4,1.736e-5 -1.0417e-4,1.736e-5 -1.2153e-4,1.736e-5 -1.0416e-4,1.736e-5 -1.2153e-4,1.736e-5 -1.2153e-4,1.736e-5 -1.3888e-4,0 -1.2153e-4,1.736e-5 -1.3889e-4,1.736e-5 -1.3889e-4,0 -1.3888e-4,1.737e-5 -1.5625e-4,0 -1.3889e-4,0 -1.5625e-4,1.736e-5 -1.7361e-4,0 -1.5625e-4,0 -1.5625e-4,0 c -0.001858,0 -0.002934,-2.257e-4 -0.003385,-6.25e-4 -4.5139e-4,-3.2986e-4 -6.25e-4,-7.2916e-4 -6.25e-4,-0.001632 l 0,-0.0322394 c 0,-0.001128 1.2153e-4,-0.001753 6.25e-4,-0.002257 4.5138e-4,-4.5139e-4 0.001684,-7.9861e-4 0.002691,-0.001007 8.5069e-4,-1.7361e-4 0.002205,-3.993e-4 0.002882,-3.993e-4 5.0347e-4,0 0.001076,1.0416e-4 0.001354,3.2986e-4 4.3402e-4,3.993e-4 4.3402e-4,7.4652e-4 4.3402e-4,0.001927 l 0,0.0336456 c 0,9.0277e-4 -1.7361e-4,0.001302 -6.0763e-4,0.001632 z"
         id="path2892"
         style="font-style:normal;font-variant:normal;font-weight:normal;font-stretch:normal;letter-spacing:normal;word-spacing:normal;text-anchor:start;fill:#ffffff;fill-opacity:1;fill-rule:evenodd;stroke:#ffffff;stroke-width:0;stroke-linecap:butt;stroke-linejoin:miter;stroke-miterlimit:10.43299961;stroke-opacity:1;stroke-dasharray:none;stroke-dashoffset:0" />
      <path
         d="m 0.63707906,0.47042126 -0.0141839,0.029913 c -5.0347e-4,0.001007 -0.001128,0.001458 -0.003715,0.001458 -0.002639,0 -0.004167,-3.993e-4 -0.004167,-0.001858 0,-6.7708e-4 3.4722e-4,-0.00151 9.0278e-4,-0.002656 l 0.004514,-0.009392 -0.008906,-0.0173957 c -5.7291e-4,-0.001111 -9.0277e-4,-0.002187 -9.0277e-4,-0.002812 0,-0.001233 0.001528,-0.001753 0.004219,-0.001753 0.002812,0 0.003611,6.2499e-4 0.004062,0.001597 l 0.005694,0.0120312 0.005556,-0.0121527 c 4.5138e-4,-0.001024 0.001476,-0.001476 0.003663,-0.001476 0.002882,0 0.004219,3.4722e-4 0.004219,0.001806 0,6.7708e-4 -3.8194e-4,0.00158 -9.5485e-4,0.002691 z"
         id="path2894"
         style="font-style:normal;font-variant:normal;font-weight:normal;font-stretch:normal;letter-spacing:normal;word-spacing:normal;text-anchor:start;fill:#ffffff;fill-opacity:1;fill-rule:evenodd;stroke:#ffffff;stroke-width:0;stroke-linecap:butt;stroke-linejoin:miter;stroke-miterlimit:10.43299961;stroke-opacity:1;stroke-dasharray:none;stroke-dashoffset:0" />
    </g>
  </g>
</svg>
