<?xml version="1.0" encoding="UTF-8" standalone="no"?>
<!-- Created with Inkscape (http://www.inkscape.org/) -->

<svg
   width="100"
   height="36"
   viewBox="0 0 100 36"
   version="1.1"
   id="svg5"
   inkscape:version="1.1 (c68e22c387, 2021-05-23)"
   sodipodi:docname="Air Serbia logo.svg"
   xmlns:inkscape="http://www.inkscape.org/namespaces/inkscape"
   xmlns:sodipodi="http://sodipodi.sourceforge.net/DTD/sodipodi-0.dtd"
   xmlns="http://www.w3.org/2000/svg"
   xmlns:svg="http://www.w3.org/2000/svg"
   xmlns:rdf="http://www.w3.org/1999/02/22-rdf-syntax-ns#"
   xmlns:cc="http://creativecommons.org/ns#"
   xmlns:dc="http://purl.org/dc/elements/1.1/">
  <title
     id="title7982">Arkia Israeli logo</title>
  <sodipodi:namedview
     id="namedview7"
     pagecolor="#ffffff"
     bordercolor="#111111"
     borderopacity="1"
     inkscape:pageshadow="0"
     inkscape:pageopacity="0"
     inkscape:pagecheckerboard="1"
     inkscape:document-units="px"
     showgrid="false"
     objecttolerance="1"
     gridtolerance="1"
     guidetolerance="1"
     units="px"
     inkscape:zoom="8.0000004"
     inkscape:cx="42.687498"
     inkscape:cy="14.999999"
     inkscape:window-width="1366"
     inkscape:window-height="746"
     inkscape:window-x="-8"
     inkscape:window-y="-8"
     inkscape:window-maximized="1"
     inkscape:current-layer="layer1"
     height="16px"
     scale-x="1" />
  <defs
     id="defs2" />
  <g
     inkscape:label="Capa 1"
     inkscape:groupmode="layer"
     id="layer1">
    <rect
       opacity="0"
       fill="#ffffff"
       width="11.402814"
       height="5.3821521"
       id="rect4-0"
       x="10.327773"
       y="7.4971809"
       style="stroke-width:0.0912222" />
    <g
       id="g4019"
       transform="matrix(0.82861433,0,0,0.82861433,-279.92653,-255.11515)">
      <polygon
         transform="matrix(0.26458333,0,0,0.26458333,244.15998,305.92842)"
         style="fill:#312667"
         points="109.311,23.205 109.089,23.736 "
         id="polygon3711" />
      <path
         style="fill:#312667;stroke-width:0.264583"
         inkscape:connector-curvature="0"
         d="m 277.65808,311.28597 -1.27344,-3.12605 c 0.0143,0.0717 0.036,0.1479 0.073,0.22886 z"
         id="path3713" />
      <polygon
         transform="matrix(0.26458333,0,0,0.26458333,244.15998,305.92842)"
         style="fill:#312667"
         points="216.374,24.365 216.162,24.847 216.176,24.847 "
         id="polygon3717" />
      <path
         style="fill:#312667;stroke-width:0.264583"
         inkscape:connector-curvature="0"
         d="m 305.58909,311.65903 -1.16417,-2.85671 c 0.0148,0.0661 0.0352,0.13653 0.0654,0.20929 z"
         id="path3719" />
      <polygon
         transform="matrix(0.26458333,0,0,0.26458333,244.15998,305.92842)"
         style="fill:#312667"
         points="264.514,24.365 264.317,24.847 264.324,24.847 "
         id="polygon3723" />
      <path
         style="fill:#312667;stroke-width:0.264583"
         inkscape:connector-curvature="0"
         d="m 318.32771,311.65903 -1.1631,-2.85671 c 0.0108,0.0661 0.0331,0.13653 0.0638,0.20929 z"
         id="path3725" />
      <path
         style="fill:#312667;stroke-width:0.264583"
         inkscape:connector-curvature="0"
         d="m 279.97795,323.13004 c -0.0222,0.014 -0.005,0.006 0,0 z"
         id="path3749" />
    </g>
    <g
       id="g29071"
       transform="matrix(0.89035099,0,0,0.89035099,-116.14478,-220.62235)">
      <path
         d="m 139.15874,279.36781 c 0,-0.16381 0.0276,-0.35186 0.0877,-0.5491 l -7.90713,1.43751 c 0.0217,0.29335 0.0577,0.57668 0.10531,0.84913 l 7.74666,-1.40825 c -0.0217,-0.11784 -0.0326,-0.229 -0.0326,-0.32929"
         style="fill:#d40e8c;fill-opacity:1;fill-rule:nonzero;stroke:none;stroke-width:0.835761"
         id="path358"
         inkscape:connector-curvature="0" />
      <path
         d="m 142.83216,287.88354 c 1.48263,0 3.1458,-0.18888 4.75965,-0.48223 l 7.76338,-1.41244 v -4.64349 l -21.54925,3.91805 c 2.32342,1.97574 5.88961,2.62011 9.02622,2.62011"
         style="fill:#009989;fill-opacity:1;fill-rule:nonzero;stroke:none;stroke-width:0.835761"
         id="path362"
         inkscape:connector-curvature="0" />
      <path
         d="m 143.41669,282.37387 c -2.22898,0 -3.40155,-0.93856 -3.91889,-1.85372 l -7.85698,1.42916 c 0.29753,1.00792 0.78478,1.85873 1.40993,2.57163 l 12.69353,-2.30753 c -0.59339,0.0953 -1.3556,0.16046 -2.32759,0.16046"
         style="fill:#f8a800;fill-opacity:1;fill-rule:nonzero;stroke:none;stroke-width:0.835761"
         id="path366"
         inkscape:connector-curvature="0" />
      <path
         d="m 131.31437,279.38168 8.50554,-1.54699 c 0.63935,-0.70288 1.80357,-1.30462 3.76426,-1.30462 1.1475,0 1.97491,0.066 2.56913,0.15378 l 9.20172,-1.6732 v -2.93686 l -23.29097,4.23564 c -0.45382,0.86166 -0.72795,1.87795 -0.74968,3.07225"
         style="fill:#70b62b;fill-opacity:1;fill-rule:nonzero;stroke:none;stroke-width:0.835761"
         id="path370"
         inkscape:connector-curvature="0" />
      <path
         d="m 142.41486,271.68775 c -2.56829,0 -7.33046,0.67196 -9.69482,3.62303 l 14.87069,-2.70536 c 0,0 -1.66985,-0.91767 -5.17587,-0.91767"
         style="fill:#00873b;fill-opacity:1;fill-rule:nonzero;stroke:none;stroke-width:0.835761"
         id="path374"
         inkscape:connector-curvature="0" />
      <path
         d="m 149.72818,262.52472 -17.04701,3.09984 2.88756,4.22728 c 1.50353,-0.91934 4.50893,-2.25488 7.09644,-2.25488 2.58835,0 4.92514,1.41912 4.92514,3.42243 v 1.58628 l 7.51014,-1.3648 0.24739,-0.0451 c -0.10447,-4.0501 -2.15042,-7.07555 -5.61966,-8.67102"
         style="fill:#a71580;fill-opacity:1;fill-rule:nonzero;stroke:none;stroke-width:0.835761"
         id="path378"
         inkscape:connector-curvature="0" />
      <path
         d="m 143.24987,261.25211 c -7.43075,0 -11.10308,3.59043 -11.10308,3.59043 l 16.0115,-2.91179 c -1.45506,-0.44379 -3.099,-0.67864 -4.90842,-0.67864"
         style="fill:#e6420f;fill-opacity:1;fill-rule:nonzero;stroke:none;stroke-width:0.835761"
         id="path382"
         inkscape:connector-curvature="0" />
      <path
         d="m 147.59056,281.8771 7.76338,-1.4116 v -2.82822 l -7.76338,1.4116 z"
         style="fill:#009ee2;fill-opacity:1;fill-rule:nonzero;stroke:none;stroke-width:0.835761"
         id="path386"
         inkscape:connector-curvature="0" />
      <path
         d="m 147.59056,278.16941 7.76338,-1.4116 v -0.86835 l -7.76338,1.41243 z"
         style="fill:#8e7a3b;fill-opacity:1;fill-rule:nonzero;stroke:none;stroke-width:0.835761"
         id="path390"
         inkscape:connector-curvature="0" />
      <g
         style="fill:#0046ba;fill-opacity:1"
         id="g29053">
        <path
           id="path394"
           style="fill:#0046ba;fill-opacity:1;fill-rule:nonzero;stroke:none;stroke-width:1.95348"
           d="M 197.23633,1 178.85352,4.3417969 V 22.841797 L 197.23633,19.5 Z m -66.30274,12.058594 -18.38086,3.34375 c 0,9.954942 -0.002,36.027436 0,46.164062 v 29.998047 l 18.38086,-3.339844 V 74.53125 c 2.28165,-1.078324 3.71875,-2.1875 3.71875,-2.1875 l 18.00586,20.419922 20.23242,-3.679688 -23.3789,-26.517578 c 2.21524,-2.201572 6.46604,-6.602602 10.58984,-11.574218 6.19058,-7.466225 9.62475,-14.235889 11.00586,-16.640626 l -23.5957,4.289063 c -3.71554,5.721749 -10.58094,13.700322 -16.57813,18.308594 V 44.675781 Z m 66.30274,16.542968 -18.38281,3.341797 v 26.4375 33.1875 l 18.38281,-3.34375 v -29.84375 z m -98.378908,1.302735 c -0.343867,0.0028 -0.70818,0.01123 -1.097656,0.02344 -8.792637,0.273496 -13.798377,5.983559 -16.347657,10.460938 V 31.279297 l -15.6875,2.851562 v 25.25 10.414063 11.423828 11.347656 l 15.6875,-2.855468 2.695313,-0.490235 V 81.21875 68.992188 68.855469 61.035156 60.626953 57.794922 c 0,-6.591065 6.569004,-10.695267 13.652344,-10.970703 2.314884,-0.08999 4.845324,0.199011 6.921874,0.669922 V 31.455078 c -2.01184,-0.364087 -3.41715,-0.57052 -5.824218,-0.550781 z m 132.789058,0.373047 c -17.40359,0 -26.00781,8.410156 -26.00781,8.410156 l 8.01758,11.732422 c 3.51821,-2.148841 10.55748,-5.277344 16.62109,-5.277344 6.06168,0 11.53711,3.323348 11.53711,8.015625 V 57.875 c 0,0 -3.91059,-2.152344 -12.12304,-2.152344 -8.2144,0 -26.00782,2.932703 -26.00782,18.378906 0,15.450107 14.86104,19.556641 26.98633,19.556641 3.47329,0 7.36649,-0.441298 11.14649,-1.128906 L 260,89.224609 V 55.330078 C 260,40.469924 249.05007,31.277344 231.64648,31.277344 Z m 0.78125,35.787109 c 8.01712,0 9.38672,1.369141 9.38672,1.369141 v 11.15625 l -3.87304,0.710937 c -1.44754,0.265689 -3.37454,0.453125 -5.9043,0.453125 -7.62835,0 -9.97266,-4.694877 -9.97266,-7.041015 0,-2.346139 2.34425,-6.648438 10.36328,-6.648438 z"
           transform="matrix(0.4278307,0,0,0.4278307,130.88654,247.81326)" />
      </g>
    </g>
  </g>
  <metadata
     id="metadata7980">
    <rdf:RDF>
      <cc:Work
         rdf:about="">
        <dc:title>Arkia Israeli logo</dc:title>
        <dc:date>13 sep 2021</dc:date>
        <cc:license
           rdf:resource="http://scripts.sil.org/OFL" />
        <dc:rights>
          <cc:Agent>
            <dc:title>N/A</dc:title>
          </cc:Agent>
        </dc:rights>
      </cc:Work>
      <cc:License
         rdf:about="http://scripts.sil.org/OFL">
        <cc:permits
           rdf:resource="http://scripts.sil.org/pub/OFL/Reproduction" />
        <cc:permits
           rdf:resource="http://scripts.sil.org/pub/OFL/Distribution" />
        <cc:permits
           rdf:resource="http://scripts.sil.org/pub/OFL/Embedding" />
        <cc:permits
           rdf:resource="http://scripts.sil.org/pub/OFL/DerivativeWorks" />
        <cc:requires
           rdf:resource="http://scripts.sil.org/pub/OFL/Notice" />
        <cc:requires
           rdf:resource="http://scripts.sil.org/pub/OFL/Attribution" />
        <cc:requires
           rdf:resource="http://scripts.sil.org/pub/OFL/ShareAlike" />
        <cc:requires
           rdf:resource="http://scripts.sil.org/pub/OFL/DerivativeRenaming" />
        <cc:requires
           rdf:resource="http://scripts.sil.org/pub/OFL/BundlingWhenSelling" />
      </cc:License>
    </rdf:RDF>
  </metadata>
</svg>
