<?xml version="1.0" encoding="UTF-8" standalone="no"?>
<!-- Created with Inkscape (http://www.inkscape.org/) -->
<!DOCTYPE svg PUBLIC "-//W3C//DTD SVG 1.1//EN" "http://www.w3.org/Graphics/SVG/1.1/DTD/svg11.dtd">
<svg
   xmlns:svg="http://www.w3.org/2000/svg"
   xmlns="http://www.w3.org/2000/svg"
   version="1.1"
   width="400"
   height="156"
   viewBox="0 0 0.55555556 0.21666667"
   id="svg2816">
  <defs
     id="defs2874" />
  <g
     transform="matrix(1.0526317,0,0,1.0507665,-0.04412412,0.33957539)"
     id="g3979">
    <polygon
       points="42.145,808.97 42.145,751.38 189.55,751.38 189.55,808.97 "
       transform="matrix(0.00358046,0,0,-0.00358046,-0.10898057,2.5733155)"
       id="polygon2826"
       style="font-style:normal;font-variant:normal;font-weight:normal;font-stretch:normal;letter-spacing:normal;word-spacing:normal;text-anchor:start;fill:#f28b08;fill-opacity:1;fill-rule:evenodd;stroke:#fa7011;stroke-width:0;stroke-linecap:butt;stroke-linejoin:miter;stroke-miterlimit:10.43299961;stroke-opacity:1;stroke-dasharray:none;stroke-dashoffset:0" />
    <g
       transform="matrix(0.00138889,0,0,0.00138889,-0.01675187,-0.17325251)"
       id="g3064">
      <g
         transform="matrix(2.5779753,0,0,2.5779753,-66.502979,-64.092622)"
         id="g2957"
         style="fill:#f3f3f3;fill-rule:evenodd;stroke-width:0;stroke-linecap:butt;stroke-linejoin:miter;stroke-miterlimit:10">
        <path
           d="m 70.918,-8.617 c 10.5273,0 19.0625,8.5310015 19.0625,19.058 0,10.528 -8.5352,19.063 -19.0625,19.063 -10.5274,0 -19.0586,-8.535 -19.0586,-19.063 0,-10.5269985 8.5312,-19.058 19.0586,-19.058 z"
           id="path2959"
           style="fill:#fcfef9;fill-opacity:1" />
      </g>
      <g
         transform="matrix(2.5779753,0,0,2.5779753,-66.502979,-64.092622)"
         id="g2961"
         style="fill:#88b7fc;fill-rule:evenodd;stroke-width:0;stroke-linecap:butt;stroke-linejoin:miter;stroke-miterlimit:10">
        <path
           d="m 70.918,-6.99597 c 9.6328,0 17.4414,7.807982 17.4414,17.43697 0,9.633 -7.8086,17.442 -17.4414,17.442 -9.6328,0 -17.4375,-7.809 -17.4375,-17.442 0,-9.628988 7.8047,-17.43697 17.4375,-17.43697 z"
           id="path2963"
           style="fill:#f28b08;fill-opacity:1" />
      </g>
      <g
         transform="matrix(2.5779753,0,0,2.5779753,-66.502979,-64.092622)"
         id="g2965"
         style="fill:#f3f3f3;fill-rule:evenodd;stroke-width:0;stroke-linecap:butt;stroke-linejoin:miter;stroke-miterlimit:10">
        <path
           d="m 70.918,-5.27002 c 8.6758,0 15.7109,7.03601 15.7109,15.71102 0,8.68 -7.0351,15.711 -15.7109,15.711 -8.6758,0 -15.711,-7.031 -15.711,-15.711 0,-8.67501 7.0352,-15.71102 15.711,-15.71102 z"
           id="path2967"
           style="fill:#fcfef9;fill-opacity:1" />
      </g>
      <g
         transform="matrix(2.5779753,0,0,2.5779753,-66.502979,-64.092622)"
         id="g2969"
         style="fill:#88b7fc;fill-rule:evenodd;stroke-width:0;stroke-linecap:butt;stroke-linejoin:miter;stroke-miterlimit:10">
        <path
           d="m 56.3984,16.496 28.9805,0 L 73.332,3.02002 67.0117,10.77 67.6094,14.348 62.7188,9.21899 z"
           id="path2971"
           style="fill:#f28b08;fill-opacity:1" />
      </g>
    </g>
    <path
       d="m 0.26142079,-0.27549649 -0.0210354,0.05505 0.007788,0 0.005013,-0.0141429 0.0248844,0 0.005013,0.0141429 0.007698,0 -0.0209459,-0.05505 -0.008414,0 z m 0.004118,0.00734 0.0102044,0.0273907 -0.0202298,0 0.0100254,-0.0273907 z"
       id="polygon2836"
       style="font-style:normal;font-variant:normal;font-weight:normal;font-stretch:normal;letter-spacing:normal;word-spacing:normal;text-anchor:start;fill:#143b9a;fill-opacity:1;fill-rule:evenodd;stroke:#0a05d9;stroke-width:0;stroke-linecap:butt;stroke-linejoin:miter;stroke-miterlimit:10.43299961;stroke-opacity:1;stroke-dasharray:none;stroke-dashoffset:0" />
    <path
       d="m 0.32003019,-0.25632233 -1.7901e-4,-3.58e-5 -1.7903e-4,-3.58e-5 -1.7902e-4,-3.581e-5 -1.7903e-4,0 -1.7901e-4,-3.58e-5 -1.7903e-4,-3.58e-5 -1.7902e-4,0 -1.7903e-4,-3.582e-5 -1.7901e-4,-3.581e-5 -1.7904e-4,0 -2.1481e-4,0 -1.7904e-4,-3.58e-5 -2.1481e-4,0 -1.7903e-4,0 -2.1484e-4,0 -1.7901e-4,0 c -0.003832,0 -0.006767,0.001253 -0.008808,0.003725 -0.002077,0.002471 -0.003079,0.006051 -0.003079,0.0107057 l 0,0.0217333 -0.006874,0 0,-0.041247 0.006874,0 0,0.00641 c 0.001396,-0.002506 0.003259,-0.004368 0.00555,-0.005585 0.002291,-0.001217 0.005049,-0.001826 0.008307,-0.001826 4.6547e-4,0 0.001003,3.58e-5 0.00154,1.0743e-4 5.7286e-4,7.16e-5 0.001217,1.4321e-4 0.001898,2.5062e-4 l 3.58e-5,0.006981 c -7.5189e-4,-4.2965e-4 -0.001575,-7.519e-4 -0.002471,-9.6673e-4 z"
       id="path2840"
       style="font-style:normal;font-variant:normal;font-weight:normal;font-stretch:normal;letter-spacing:normal;word-spacing:normal;text-anchor:start;fill:#143b9a;fill-opacity:1;fill-rule:evenodd;stroke:#0a05d9;stroke-width:0;stroke-linecap:butt;stroke-linejoin:miter;stroke-miterlimit:10.43299961;stroke-opacity:1;stroke-dasharray:none;stroke-dashoffset:0" />
    <path
       d="m 0.38344015,-0.22044612 0,-0.0246693 c 0,-0.003974 -6.8029e-4,-0.006911 -0.002077,-0.008843 -0.001396,-0.001898 -0.003545,-0.002865 -0.00641,-0.002865 -0.003508,0 -0.006265,0.001182 -0.008307,0.003508 -0.002041,0.002326 -0.003044,0.005515 -0.003044,0.009559 l 0,0.0233088 -0.006839,0 0,-0.0246693 c 0,-0.003974 -7.1609e-4,-0.006946 -0.002112,-0.008843 -0.001396,-0.001898 -0.003545,-0.002865 -0.00648,-0.002865 -0.003438,0 -0.006193,0.001182 -0.0082,0.003508 -0.002041,0.002363 -0.003044,0.00555 -0.003044,0.009559 l 0,0.0233088 -0.006874,0 0,-0.041247 0.006874,0 0,0.00641 c 0.001504,-0.002543 0.003366,-0.004403 0.00555,-0.005585 0.002149,-0.001217 0.004727,-0.001826 0.007662,-0.001826 0.003007,0 0.00555,7.877e-4 0.007662,0.002291 0.002077,0.001504 0.003652,0.003725 0.004655,0.006624 0.001683,-0.003044 0.003725,-0.005298 0.006086,-0.006732 0.002326,-0.001468 0.005121,-0.002184 0.008307,-0.002184 0.004296,0 0.007627,0.001504 0.009953,0.00451 0.002326,0.003007 0.003508,0.007305 0.003508,0.0128547 l 0,0.0248842 z"
       id="path2842"
       style="font-style:normal;font-variant:normal;font-weight:normal;font-stretch:normal;letter-spacing:normal;word-spacing:normal;text-anchor:start;fill:#143b9a;fill-opacity:1;fill-rule:evenodd;stroke:#0a05d9;stroke-width:0;stroke-linecap:butt;stroke-linejoin:miter;stroke-miterlimit:10.43299961;stroke-opacity:1;stroke-dasharray:none;stroke-dashoffset:0" />
    <path
       d="m 0.41484468,-0.26269625 c -0.002221,0 -0.004477,2.5064e-4 -0.006803,7.161e-4 -0.002328,4.6618e-4 -0.00478,0.001182 -0.00725,0.002148 l 0.002327,0.005281 c 0.002042,-0.001146 0.001898,-9.4886e-4 0.004118,-0.001522 0.002256,-5.7288e-4 0.004529,-8.9513e-4 0.006892,-8.9513e-4 0.003725,0 0.006642,8.7725e-4 0.008683,0.002596 0.002076,0.001718 0.003133,0.004136 0.003133,0.00725 l 0,6.2659e-4 -0.009578,0 c -0.006193,0 -0.0107602,0.001128 -0.0138744,0.003491 -0.003115,0.002363 -0.004655,0.005943 -0.004655,0.0105624 0,0.003974 0.001199,0.007125 0.00367,0.009488 0.002506,0.002364 0.005889,0.00358 0.0101149,0.00358 0.003366,0 0.006212,-5.7288e-4 0.008504,-0.00179 0.002291,-0.001182 0.004243,-0.003079 0.005818,-0.00555 l 0,0.006266 0.006713,0 0,-0.0235417 c 0,-0.006303 -0.001414,-0.0109743 -0.004386,-0.0140534 -0.002937,-0.003115 -0.007448,-0.004655 -0.0134268,-0.004655 z m 0.004297,0.0214829 0.006803,0 0,0.001522 c 0,0.004403 -0.0012,0.007967 -0.003491,0.0106519 -0.002254,0.002649 -0.005246,0.003939 -0.009041,0.003939 -0.00272,0 -0.004869,-6.6239e-4 -0.006445,-0.002059 -0.001611,-0.001396 -0.002417,-0.00333 -0.002417,-0.005729 0,-0.003009 0.001111,-0.005192 0.003222,-0.006445 0.002114,-0.001253 0.00589,-0.00188 0.0113681,-0.00188 z"
       id="path2844"
       style="font-style:normal;font-variant:normal;font-weight:normal;font-stretch:normal;letter-spacing:normal;word-spacing:normal;text-anchor:start;fill:#143b9a;fill-opacity:1;fill-rule:evenodd;stroke:#0a05d9;stroke-width:0;stroke-linecap:butt;stroke-linejoin:miter;stroke-miterlimit:10.43299961;stroke-opacity:1;stroke-dasharray:none;stroke-dashoffset:0" />
    <polygon
       points="163.64,791.8 159.31,780.28 156.74,780.28 152.41,791.8 154.42,791.8 158.02,782.13 161.63,791.8 "
       transform="matrix(0.00358046,0,0,-0.00358046,-0.10898057,2.5733155)"
       id="polygon2848"
       style="font-style:normal;font-variant:normal;font-weight:normal;font-stretch:normal;letter-spacing:normal;word-spacing:normal;text-anchor:start;fill:#143b9a;fill-opacity:1;fill-rule:evenodd;stroke:#0a05d9;stroke-width:0;stroke-linecap:butt;stroke-linejoin:miter;stroke-miterlimit:10.43299961;stroke-opacity:1;stroke-dasharray:none;stroke-dashoffset:0" />
    <polygon
       points="165.14,791.8 165.14,780.28 167.03,780.28 167.03,791.8 "
       transform="matrix(0.00358046,0,0,-0.00358046,-0.10898057,2.5733155)"
       id="polygon2850"
       style="font-style:normal;font-variant:normal;font-weight:normal;font-stretch:normal;letter-spacing:normal;word-spacing:normal;text-anchor:start;fill:#143b9a;fill-opacity:1;fill-rule:evenodd;stroke:#0a05d9;stroke-width:0;stroke-linecap:butt;stroke-linejoin:miter;stroke-miterlimit:10.43299961;stroke-opacity:1;stroke-dasharray:none;stroke-dashoffset:0" />
    <path
       d="m 0.51366613,-0.26269625 c -0.002219,0 -0.004439,2.5064e-4 -0.006803,7.161e-4 -0.002328,4.6618e-4 -0.004745,0.001182 -0.00725,0.002148 l 0.002417,0.005281 c 0.002042,-0.001146 0.001861,-9.4886e-4 0.004118,-0.001522 0.002219,-5.7288e-4 0.004477,-8.9513e-4 0.006803,-8.9513e-4 0.003723,0 0.006642,8.7725e-4 0.008683,0.002596 0.002077,0.001718 0.003133,0.004136 0.003133,0.00725 l 0,6.2659e-4 -0.009488,0 c -0.006193,0 -0.0108497,0.001128 -0.0139639,0.003491 -0.003115,0.002363 -0.004655,0.005943 -0.004655,0.0105624 0,0.003974 0.001289,0.007125 0.00376,0.009488 0.002506,0.002364 0.0058,0.00358 0.0100254,0.00358 0.003331,0 0.006177,-5.7288e-4 0.008504,-0.00179 0.002291,-0.001182 0.004279,-0.003079 0.005818,-0.00555 l 0,0.006266 0.006803,0 0,-0.0235417 c 0,-0.006303 -0.001539,-0.0109743 -0.004476,-0.0140534 -0.002972,-0.003115 -0.007448,-0.004655 -0.0134268,-0.004655 z m 0.004297,0.0214829 0.006803,0 0,0.001522 c 0,0.004403 -0.00111,0.007967 -0.003401,0.0106519 -0.002254,0.002649 -0.005371,0.003939 -0.00913,0.003939 -0.00272,0 -0.004834,-6.6239e-4 -0.006445,-0.002059 -0.001576,-0.001396 -0.002327,-0.00333 -0.002327,-0.005729 0,-0.003009 0.001021,-0.005192 0.003133,-0.006445 0.002114,-0.001253 0.00589,-0.00188 0.011368,-0.00188 z"
       id="path2852"
       style="font-style:normal;font-variant:normal;font-weight:normal;font-stretch:normal;letter-spacing:normal;word-spacing:normal;text-anchor:start;fill:#143b9a;fill-opacity:1;fill-rule:evenodd;stroke:#0a05d9;stroke-width:0;stroke-linecap:butt;stroke-linejoin:miter;stroke-miterlimit:10.43299961;stroke-opacity:1;stroke-dasharray:none;stroke-dashoffset:0" />
    <path
       d="m 0.48544746,-0.26810205 -2.1481e-4,0 -2.1484e-4,-3.58e-5 -1.7901e-4,0 -2.1484e-4,-3.58e-5 -1.7903e-4,-3.58e-5 -1.7901e-4,-7.161e-5 -1.7903e-4,-7.162e-5 -1.7902e-4,-7.161e-5 -1.7903e-4,-7.16e-5 -1.7901e-4,-7.161e-5 -1.7904e-4,-1.0741e-4 -1.4321e-4,-1.0742e-4 -1.4321e-4,-1.0741e-4 -1.7903e-4,-1.0741e-4 -1.4321e-4,-1.4323e-4 -1.0743e-4,-1.0741e-4 -1.4321e-4,-1.4321e-4 -1.0741e-4,-1.4323e-4 -1.4323e-4,-1.4321e-4 -1.074e-4,-1.4323e-4 -1.0741e-4,-1.7901e-4 -7.163e-5,-1.4323e-4 -1.0741e-4,-1.7902e-4 -7.16e-5,-1.7903e-4 -7.161e-5,-1.7901e-4 -7.16e-5,-1.7904e-4 -3.582e-5,-1.7901e-4 -3.581e-5,-2.1483e-4 -3.58e-5,-1.7902e-4 -3.58e-5,-2.1483e-4 0,-1.7902e-4 -3.58e-5,-2.1483e-4 c 0,-0.002184 0.00179,-0.003939 0.003974,-0.003939 0.002149,0 0.003939,0.001754 0.003939,0.003939 0,0.002184 -0.00179,0.003939 -0.003939,0.003939 z"
       id="path2856"
       style="font-style:normal;font-variant:normal;font-weight:normal;font-stretch:normal;letter-spacing:normal;word-spacing:normal;text-anchor:start;fill:#143b9a;fill-opacity:1;fill-rule:evenodd;stroke:#0a05d9;stroke-width:0;stroke-linecap:butt;stroke-linejoin:miter;stroke-miterlimit:10.43299961;stroke-opacity:1;stroke-dasharray:none;stroke-dashoffset:0" />
    <path
       d="m 0.26145387,-0.18281548 -3.582e-5,7.162e-5 -3.58e-5,7.161e-5 0,7.16e-5 -3.581e-5,3.581e-5 -3.58e-5,7.16e-5 -3.58e-5,7.161e-5 -3.58e-5,3.58e-5 -3.581e-5,7.162e-5 0,3.581e-5 -3.58e-5,7.16e-5 -3.58e-5,3.58e-5 -3.58e-5,3.581e-5 0,7.16e-5 -3.583e-5,3.58e-5 -3.58e-5,3.583e-5 -3.58e-5,3.58e-5 0,7.161e-5 -3.58e-5,3.58e-5 -3.581e-5,3.58e-5 0,3.58e-5 -3.58e-5,3.581e-5 -3.58e-5,3.58e-5 0,3.58e-5 -3.58e-5,3.582e-5 -3.581e-5,3.581e-5 0,3.58e-5 -3.58e-5,3.58e-5 0,0 -3.582e-5,3.58e-5 0,3.581e-5 -3.58e-5,0 -3.581e-5,3.58e-5 0.004296,0.00283 -0.002041,0.003151 -0.004655,-0.003044 c -0.001182,6.4448e-4 -0.002256,0.001074 -0.003294,0.001289 -5.3706e-4,1.4321e-4 -0.00111,2.5064e-4 -0.001754,3.2225e-4 -6.8027e-4,7.16e-5 -0.001361,1.074e-4 -0.001969,1.074e-4 -0.002077,0 -0.003925,-3.9385e-4 -0.005492,-0.001146 -0.001608,-6.8029e-4 -0.00285,-0.001719 -0.003721,-0.003007 -8.6646e-4,-0.001289 -0.0013,-0.002757 -0.0013,-0.004368 l 0,-0.0216977 0.004265,0 0,0.0214828 c 0,0.001647 3.3656e-4,0.002865 0.001024,0.003725 6.5524e-4,8.235e-4 0.001439,0.001361 0.002378,0.001611 9.4883e-4,2.1482e-4 0.001916,3.2225e-4 0.00299,3.2225e-4 0.001038,0 0.001969,-1.0743e-4 0.002865,-3.2225e-4 8.9512e-4,-2.1483e-4 0.001683,-7.8771e-4 0.002399,-0.001611 7.1609e-4,-8.593e-4 0.001074,-0.002077 0.001074,-0.003725 l 0,-0.0214828 0.004261,0 0,0.0216259 c 0,5.0127e-4 -3.58e-5,9.6673e-4 -1.0741e-4,0.001396 -7.162e-5,3.9385e-4 -2.1483e-4,7.8769e-4 -3.9384e-4,0.001146 z"
       id="path2858"
       style="font-style:normal;font-variant:normal;font-weight:normal;font-stretch:normal;letter-spacing:normal;word-spacing:normal;text-anchor:start;fill:#e5253c;fill-opacity:1;fill-rule:evenodd;stroke:#ff020c;stroke-width:0;stroke-linecap:butt;stroke-linejoin:miter;stroke-miterlimit:10.43299961;stroke-opacity:1;stroke-dasharray:none;stroke-dashoffset:0" />
    <path
       d="m 0.28322306,-0.17726576 0,-0.014286 c 0,-0.002543 -0.001217,-0.003795 -0.00358,-0.003795 -0.002256,0 -0.003867,7.1609e-4 -0.004869,0.002112 -0.001003,0.001432 -0.001468,0.003079 -0.001468,0.004869 l 0,0.0196935 -0.003867,0 0,-0.0293597 0.003725,0 0,0.003221 c 2.8645e-4,-3.5805e-4 6.0869e-4,-7.519e-4 0.001003,-0.001182 2.8644e-4,-2.8642e-4 5.3708e-4,-5.7286e-4 7.1609e-4,-8.235e-4 4.6545e-4,-4.2965e-4 0.001182,-7.8769e-4 0.002149,-0.00111 8.9512e-4,-3.5804e-4 0.002077,-5.0125e-4 0.003508,-5.0125e-4 0.001074,0 0.002077,1.4321e-4 0.002937,4.6545e-4 8.235e-4,2.8644e-4 0.001504,7.1609e-4 0.002041,0.001253 5.3705e-4,5.3706e-4 8.951e-4,0.00111 0.001146,0.001719 2.5064e-4,6.0868e-4 3.9385e-4,0.001253 3.9385e-4,0.001898 l 0,0.0158265 z"
       id="path2860"
       style="font-style:normal;font-variant:normal;font-weight:normal;font-stretch:normal;letter-spacing:normal;word-spacing:normal;text-anchor:start;fill:#e5253c;fill-opacity:1;fill-rule:evenodd;stroke:#ff020c;stroke-width:0;stroke-linecap:butt;stroke-linejoin:miter;stroke-miterlimit:10.43299961;stroke-opacity:1;stroke-dasharray:none;stroke-dashoffset:0" />
    <path
       d="m 0.30857272,-0.19939301 1.4323e-4,1.4321e-4 1.4321e-4,1.0743e-4 1.0741e-4,1.0741e-4 1.4323e-4,1.4321e-4 1.4321e-4,1.4323e-4 1.0741e-4,1.0741e-4 1.4323e-4,1.4321e-4 1.0741e-4,1.4323e-4 1.4323e-4,1.4321e-4 1.074e-4,1.4323e-4 1.4321e-4,1.4321e-4 1.0743e-4,1.4321e-4 1.0741e-4,1.4323e-4 1.4321e-4,1.4321e-4 1.0743e-4,1.7903e-4 1.0741e-4,1.4321e-4 c 5.7286e-4,8.5933e-4 8.951e-4,0.001826 8.951e-4,0.0029 l 0,0.0170062 -0.003795,0 0,-0.003401 -0.001074,0.001217 c -3.9385e-4,5.0125e-4 -8.9512e-4,9.309e-4 -0.001396,0.001361 -5.3708e-4,3.9386e-4 -0.001217,6.8028e-4 -0.002005,8.5932e-4 -8.5931e-4,2.5064e-4 -0.00179,3.9385e-4 -0.002865,3.9385e-4 -0.001468,0 -0.002685,-2.8644e-4 -0.003652,-7.877e-4 -0.001003,-5.0128e-4 -0.001719,-0.001182 -0.002219,-0.001933 -1.7904e-4,-3.9385e-4 -3.5805e-4,-7.519e-4 -4.6546e-4,-0.001182 -1.4323e-4,-3.9385e-4 -2.1483e-4,-8.235e-4 -2.1483e-4,-0.001253 l 0,-0.016041 0.003832,0 0,0.0145004 c 0,0.001289 2.8642e-4,0.002219 8.951e-4,0.002792 6.0869e-4,5.3708e-4 0.001504,8.235e-4 0.00265,8.235e-4 0.001611,0 0.002865,-2.8642e-4 0.003795,-8.593e-4 9.6673e-4,-5.7288e-4 0.001647,-0.001361 0.002077,-0.002326 3.9385e-4,-8.951e-4 6.0868e-4,-0.001898 6.0868e-4,-0.002937 l 0,-0.008342 c 0,-8.235e-4 -2.5064e-4,-0.001468 -7.5189e-4,-0.002041 -4.6548e-4,-5.7286e-4 -0.001253,-0.001289 -0.002326,-0.002184 -0.001074,-8.5931e-4 -0.001862,-0.001647 -0.002326,-0.002363 -5.7289e-4,-7.1609e-4 -8.2352e-4,-0.001575 -8.2352e-4,-0.002613 0,-9.3091e-4 2.8644e-4,-0.001647 8.5932e-4,-0.002184 5.7286e-4,-5.3706e-4 0.001289,-8.9511e-4 0.002219,-0.001038 9.6673e-4,-1.7901e-4 0.002077,-2.5062e-4 0.003331,-2.5062e-4 l 0.001898,0 c 1.4323e-4,0 3.9387e-4,0 7.161e-4,0 3.5804e-4,3.581e-5 6.4448e-4,3.581e-5 8.2352e-4,3.581e-5 l 0,0.002792 c -1.7904e-4,0 -5.7289e-4,0 -0.001074,0 -4.6548e-4,-3.58e-5 -8.2352e-4,-7.16e-5 -0.00111,-7.16e-5 l -0.001575,0 c -7.877e-4,0 -0.001396,7.16e-5 -0.001754,1.7903e-4 -3.5804e-4,1.4321e-4 -5.7286e-4,4.2965e-4 -6.4446e-4,7.877e-4 0,5.7288e-4 3.9385e-4,0.001217 0.001217,0.001933 z"
       id="path2862"
       style="font-style:normal;font-variant:normal;font-weight:normal;font-stretch:normal;letter-spacing:normal;word-spacing:normal;text-anchor:start;fill:#e5253c;fill-opacity:1;fill-rule:evenodd;stroke:#ff020c;stroke-width:0;stroke-linecap:butt;stroke-linejoin:miter;stroke-miterlimit:10.43299961;stroke-opacity:1;stroke-dasharray:none;stroke-dashoffset:0" />
    <path
       d="m 0.34380446,-0.17726576 0,-0.002937 c -3.5804e-4,8.235e-4 -0.001038,0.001575 -0.002112,0.002256 -0.001074,7.161e-4 -0.002291,0.00111 -0.003688,0.00111 -0.001217,0 -0.002149,-1.4321e-4 -0.002865,-4.2965e-4 -7.519e-4,-2.1483e-4 -0.001361,-5.0127e-4 -0.00179,-8.9512e-4 -1.4321e-4,-1.4321e-4 -3.5804e-4,-3.5805e-4 -5.7286e-4,-6.4449e-4 -2.1483e-4,-2.1481e-4 -3.9384e-4,-4.6545e-4 -5.7288e-4,-7.1609e-4 -2.1481e-4,-2.5062e-4 -3.9385e-4,-4.2965e-4 -5.0125e-4,-5.7286e-4 -1.4324e-4,-1.7904e-4 -2.8645e-4,-3.2225e-4 -3.5805e-4,-4.2965e-4 -4.2965e-4,8.235e-4 -0.001253,0.001647 -0.002471,0.002436 -0.001182,8.2352e-4 -0.002471,0.001253 -0.003832,0.001253 -0.001647,0 -0.002972,-2.8644e-4 -0.004046,-8.235e-4 -0.001074,-5.0127e-4 -0.001862,-0.001182 -0.002399,-0.002041 -5.3706e-4,-7.5189e-4 -7.877e-4,-0.001575 -7.877e-4,-0.002471 l 0,-0.0158616 0.003832,0 0,0.014321 c 0,0.001217 3.9385e-4,0.002184 0.001217,0.002792 8.2349e-4,6.8027e-4 0.001826,0.001003 0.003044,0.001003 7.5189e-4,0 0.00154,-2.1481e-4 0.002291,-6.0866e-4 8.235e-4,-3.5805e-4 0.001468,-8.9513e-4 0.001933,-0.001575 4.6547e-4,-7.1609e-4 7.1609e-4,-0.00154 7.1609e-4,-0.002436 l 0,-0.0134981 0.004009,0 0,0.014321 c 0,0.001253 3.9385e-4,0.002256 0.001182,0.003007 7.5189e-4,7.1609e-4 0.001719,0.00111 0.002865,0.00111 7.1609e-4,0 0.001432,-2.1482e-4 0.002219,-6.8029e-4 7.877e-4,-3.9385e-4 0.001432,-0.001003 0.001933,-0.00179 5.0126e-4,-7.877e-4 7.519e-4,-0.001575 7.519e-4,-0.002471 l 0,-0.0134981 0.004046,0 0,0.0207667 z"
       id="path2864"
       style="font-style:normal;font-variant:normal;font-weight:normal;font-stretch:normal;letter-spacing:normal;word-spacing:normal;text-anchor:start;fill:#e5253c;fill-opacity:1;fill-rule:evenodd;stroke:#ff020c;stroke-width:0;stroke-linecap:butt;stroke-linejoin:miter;stroke-miterlimit:10.43299961;stroke-opacity:1;stroke-dasharray:none;stroke-dashoffset:0" />
    <path
       d="m 0.36840221,-0.16867265 0,-0.0117802 c -7.877e-4,9.309e-4 -0.001361,0.001575 -0.00179,0.001969 -4.2965e-4,3.9385e-4 -0.001074,7.5189e-4 -0.002005,0.00111 -9.6673e-4,3.5805e-4 -0.002149,5.3708e-4 -0.00358,5.3708e-4 -0.001504,0 -0.00272,-2.8644e-4 -0.003652,-7.877e-4 -0.001003,-5.0128e-4 -0.001719,-0.001182 -0.002219,-0.001933 -4.2965e-4,-7.877e-4 -6.4449e-4,-0.001611 -6.4449e-4,-0.002436 l 0,-0.016041 0.003832,0 0,0.0145004 c 0,0.001253 2.8644e-4,0.002149 8.5932e-4,0.002757 5.3706e-4,5.7288e-4 0.001432,8.593e-4 0.00265,8.593e-4 0.002326,0 0.003939,-5.7286e-4 0.004941,-0.001683 9.6673e-4,-0.001146 0.001468,-0.002543 0.001468,-0.004189 l 0,-0.0211963 0.003832,0 0,0.035733 0.004368,0 0,0.002578 z"
       id="path2866"
       style="font-style:normal;font-variant:normal;font-weight:normal;font-stretch:normal;letter-spacing:normal;word-spacing:normal;text-anchor:start;fill:#e5253c;fill-opacity:1;fill-rule:evenodd;stroke:#ff020c;stroke-width:0;stroke-linecap:butt;stroke-linejoin:miter;stroke-miterlimit:10.43299961;stroke-opacity:1;stroke-dasharray:none;stroke-dashoffset:0" />
    <path
       d="m 0.39371607,-0.17722996 0,-0.014286 c 0,-0.002543 -0.001217,-0.003795 -0.00358,-0.003795 -0.00154,0 -0.002757,3.2224e-4 -0.003725,0.001003 -9.3093e-4,6.4449e-4 -0.001575,0.001504 -0.002005,0.002543 -4.2965e-4,0.001038 -6.0868e-4,0.002149 -6.0868e-4,0.003221 l 0,0.019943 -0.003867,0 0,-0.0383825 0.003832,0 0,0.0121741 c 3.9385e-4,-4.6546e-4 7.1609e-4,-8.5932e-4 0.001003,-0.001217 2.5064e-4,-2.5062e-4 5.0126e-4,-5.0126e-4 7.877e-4,-7.877e-4 3.9385e-4,-3.9385e-4 0.001074,-7.5189e-4 0.002005,-0.001074 8.9511e-4,-3.2224e-4 0.002041,-5.0125e-4 0.003473,-5.0125e-4 0.001146,0 0.002149,1.7901e-4 0.002972,5.0125e-4 8.235e-4,3.2225e-4 0.001504,7.519e-4 0.002005,0.001253 5.0128e-4,5.3705e-4 8.9513e-4,0.00111 0.001146,0.001719 2.5062e-4,6.4447e-4 3.9385e-4,0.001289 3.9385e-4,0.001933 l 0,0.0157894 z"
       id="path2868"
       style="font-style:normal;font-variant:normal;font-weight:normal;font-stretch:normal;letter-spacing:normal;word-spacing:normal;text-anchor:start;fill:#e5253c;fill-opacity:1;fill-rule:evenodd;stroke:#ff020c;stroke-width:0;stroke-linecap:butt;stroke-linejoin:miter;stroke-miterlimit:10.43299961;stroke-opacity:1;stroke-dasharray:none;stroke-dashoffset:0" />
    <path
       d="m 0.42998613,-0.17726576 0,-0.002937 c -3.5805e-4,8.235e-4 -0.001074,0.001575 -0.002149,0.002256 -0.001074,7.161e-4 -0.002291,0.00111 -0.003687,0.00111 -0.001182,0 -0.002149,-1.4321e-4 -0.00283,-4.2965e-4 -7.877e-4,-2.1483e-4 -0.001361,-5.0127e-4 -0.00179,-8.9512e-4 -1.4321e-4,-1.4321e-4 -3.5805e-4,-3.5805e-4 -6.0868e-4,-6.4449e-4 -1.7902e-4,-2.1481e-4 -3.9385e-4,-4.6545e-4 -5.3706e-4,-7.1609e-4 -2.5064e-4,-2.5062e-4 -3.9385e-4,-4.2965e-4 -5.3708e-4,-5.7286e-4 -1.4321e-4,-1.7904e-4 -2.5062e-4,-3.2225e-4 -3.5805e-4,-4.2965e-4 -4.2965e-4,8.235e-4 -0.001253,0.001647 -0.002471,0.002436 -0.001182,8.2352e-4 -0.002471,0.001253 -0.003832,0.001253 -0.001647,0 -0.002972,-2.8644e-4 -0.004009,-8.235e-4 -0.001074,-5.0127e-4 -0.001898,-0.001182 -0.002436,-0.002041 -5.0127e-4,-7.5189e-4 -7.5189e-4,-0.001575 -7.5189e-4,-0.002471 l 0,-0.0158616 0.003795,0 0,0.014321 c 0,0.001217 4.2967e-4,0.002184 0.001217,0.002792 8.235e-4,6.8027e-4 0.001862,0.001003 0.003044,0.001003 7.5189e-4,0 0.00154,-2.1481e-4 0.002326,-6.0866e-4 8.235e-4,-3.5805e-4 0.001432,-8.9513e-4 0.001898,-0.001575 5.0125e-4,-7.1609e-4 7.5189e-4,-0.00154 7.5189e-4,-0.002436 l 0,-0.0134981 0.003974,0 0,0.014321 c 0,0.001253 3.9385e-4,0.002256 0.001182,0.003007 7.877e-4,7.1609e-4 0.001754,0.00111 0.002865,0.00111 7.1609e-4,0 0.001468,-2.1482e-4 0.002256,-6.8029e-4 7.877e-4,-3.9385e-4 0.001432,-0.001003 0.001933,-0.00179 5.0128e-4,-7.877e-4 7.5189e-4,-0.001575 7.5189e-4,-0.002471 l 0,-0.0134981 0.004046,0 0,0.0207667 z"
       id="path2870"
       style="font-style:normal;font-variant:normal;font-weight:normal;font-stretch:normal;letter-spacing:normal;word-spacing:normal;text-anchor:start;fill:#e5253c;fill-opacity:1;fill-rule:evenodd;stroke:#ff020c;stroke-width:0;stroke-linecap:butt;stroke-linejoin:miter;stroke-miterlimit:10.43299961;stroke-opacity:1;stroke-dasharray:none;stroke-dashoffset:0" />
  </g>
</svg>
