<?xml version="1.0" encoding="UTF-8" standalone="no"?>
<svg
   xmlns:dc="http://purl.org/dc/elements/1.1/"
   xmlns:cc="http://creativecommons.org/ns#"
   xmlns:rdf="http://www.w3.org/1999/02/22-rdf-syntax-ns#"
   xmlns:svg="http://www.w3.org/2000/svg"
   xmlns="http://www.w3.org/2000/svg"
   xmlns:sodipodi="http://sodipodi.sourceforge.net/DTD/sodipodi-0.dtd"
   xmlns:inkscape="http://www.inkscape.org/namespaces/inkscape"
   version="1.1"
   id="svg2"
   xml:space="preserve"
   width="757.59479"
   height="295.854"
   viewBox="0 0 757.59479 295.854"
   sodipodi:docname="aruba_airlines.svg"
   inkscape:version="1.0 (4035a4fb49, 2020-05-01)"><metadata
     id="metadata8"><rdf:RDF><cc:Work
         rdf:about=""><dc:format>image/svg+xml</dc:format><dc:type
           rdf:resource="http://purl.org/dc/dcmitype/StillImage" /><dc:title /></cc:Work></rdf:RDF></metadata><defs
     id="defs6"><clipPath
       clipPathUnits="userSpaceOnUse"
       id="clipPath24"><path
         d="M 0,612 H 792 V 0 H 0 Z"
         id="path22" /></clipPath></defs><sodipodi:namedview
     inkscape:document-rotation="0"
     pagecolor="#ffffff"
     bordercolor="#666666"
     borderopacity="1"
     objecttolerance="10"
     gridtolerance="10"
     guidetolerance="10"
     inkscape:pageopacity="0"
     inkscape:pageshadow="2"
     inkscape:window-width="1920"
     inkscape:window-height="1017"
     id="namedview4"
     showgrid="false"
     inkscape:zoom="1.4142136"
     inkscape:cx="360.32918"
     inkscape:cy="123.97477"
     inkscape:window-x="-8"
     inkscape:window-y="-8"
     inkscape:window-maximized="1"
     inkscape:current-layer="g10" /><g
     id="g10"
     inkscape:groupmode="layer"
     inkscape:label="aruba_airlines"
     transform="matrix(1.3333333,0,0,-1.3333333,-146.964,555.92666)"><g
       id="g957"><g
         id="g12"><g
           transform="matrix(589.58226,0,0,335.29678,101.21484,138.84384)"
           id="g14" /></g><g
         transform="translate(173.9648,334.2144)"
         id="g26"><path
           id="path28"
           style="fill:#0097db;fill-opacity:1;fill-rule:evenodd;stroke:none"
           d="M 0,0 C 5.596,-0.4 21.234,-0.431 29.635,0 29,11.788 29.495,26.135 29.635,36.167 19.418,24.085 9.172,13.158 0,0 m 51.65,81.61 c 2.369,-1.332 0.532,-9.522 -0.657,-22.193 -1.308,-13.954 -2.563,-36.08 -2.229,-60.671 12.739,-1.7 14.699,-15.562 -0.319,-16.51 -2.861,-14.977 2.761,-48.196 -3.483,-51.609 -9.501,-1.131 -14.989,5.43 -15.276,10.439 -0.725,12.638 -0.137,33.315 -0.031,40.109 -12.103,-1.182 -31.232,-2.732 -47.126,-1.815 -4.15,-7.953 -29.418,-50.417 -38.86,-45.867 -6.269,9.464 14.424,28.758 19.111,44.276 -3.122,1.336 -6.058,-1.477 -8.599,3.504 -2.556,13.302 10.685,15.855 22.499,16.464 15.872,22.984 43.42,61.361 64.44,82.541 1.875,1.889 6.347,3.685 10.53,1.332" /></g><g
         transform="translate(332.9189,343.9072)"
         id="g30"><path
           id="path32"
           style="fill:#0097db;fill-opacity:1;fill-rule:evenodd;stroke:none"
           d="m 0,0 c 4.919,-7.305 -1.048,-9.135 -8.752,-11.107 -5.521,-1.414 -12.108,-3.526 -15.415,-4.891 -12.454,-5.139 -23.922,-15.336 -32.491,-25.801 -8.729,-10.66 -18.818,-29.82 -28.53,-27.591 -4.062,0.932 -4.861,6.685 -3.441,10.758 3.207,9.202 6.16,16.199 9.332,24.594 6.983,18.481 8.069,23.567 9.782,33.473 0.917,5.297 4.359,9.892 8.69,10.69 7.484,1.381 9.554,-12.813 9.047,-22.237 -0.01,-0.161 5.923,1.005 15.379,5.217 8.094,3.606 14.657,7.079 21.754,8.368 C -8.343,2.619 -1.806,2.679 0,0" /></g><g
         transform="translate(436.8027,270.5742)"
         id="g34"><path
           id="path36"
           style="fill:#0097db;fill-opacity:1;fill-rule:evenodd;stroke:none"
           d="m 0,0 c -1.325,-0.863 -3.858,-0.562 -5.24,-0.156 -4.341,1.275 -9.105,6.818 -9.105,17.151 0,9.457 0.465,20.971 0.009,29.829 -0.9,0.227 -1.901,0.139 -2.981,-0.208 -1.866,-0.597 -23.742,-21.738 -25.686,-23.681 -7.17,-7.17 -24.674,-22.444 -31.894,-22.444 -3.345,0 -6.747,0.297 -10.19,2.072 -9.998,5.156 -12.419,17.034 -12.02,28.619 0.234,6.835 3.895,15.527 6.606,21.649 6.174,13.941 14.082,21.819 20.701,18.95 4.777,-2.071 6.127,-8.864 2.499,-15.909 -2.31,-4.488 -10.142,-14.666 -11.309,-25.601 -0.791,-7.397 3.949,-8.506 5.228,-8.525 5.175,-0.074 18.782,11.484 29.698,22.538 10.286,10.417 28.801,29.592 35.139,28.982 C 2.069,72.245 3.996,66.52 3.373,59.158 3.292,58.204 1.162,47.127 1.224,34.305 1.299,18.285 2.275,6.807 1.943,3.471 1.766,1.668 0.793,0.52 0,0" /></g><g
         transform="translate(587.7148,291.5039)"
         id="g38"><path
           id="path40"
           style="fill:#0097db;fill-opacity:1;fill-rule:evenodd;stroke:none"
           d="m 0,0 c 3.241,-5.534 26.235,14.762 33.76,16.243 3.503,0.69 9.112,-4.545 13.472,-8.93 4.657,-4.676 11.662,-9.801 18.348,-13.34 3.479,-1.841 6.966,-2.793 9.068,-2.909 3.592,-0.196 5.822,-3.275 6.458,-6.247 1.047,-4.88 -0.854,-6.386 -1.276,-6.682 -5.304,-3.72 -18.15,2.011 -27.556,7.614 -10.578,6.304 -12.252,11.703 -21.273,11.893 -10.59,0.221 -14.491,-6.075 -22.773,-11.63 -6.519,-4.373 -13.413,-8.307 -21.179,-8.307 -11.476,0 -11.551,6.1 -11.629,6.699 -0.182,1.375 -1.325,10.712 10.565,27.591 C -4.596,25.366 10.356,37.164 14.012,39.81 32.484,53.187 43.244,52.903 47.85,50.74 60.215,44.932 58.768,24.657 46.285,22.611 39.81,21.55 39.174,29.724 32.559,29.716 25.648,29.708 16.01,21.981 11.537,18.25 5.799,13.463 -2.548,4.353 0,0" /></g><g
         transform="translate(514.6777,293.0957)"
         id="g42"><path
           id="path44"
           style="fill:#0097db;fill-opacity:1;fill-rule:evenodd;stroke:none"
           d="m 0,0 c -6.128,-4.187 -15.259,-9.114 -21.661,-11.042 -9.019,-2.717 -13.975,-1.321 -13.78,1.169 0.404,5.201 3.392,10.612 9.641,17.093 8.502,8.814 21.837,17.771 26.263,19.979 2.932,1.465 6.696,1.452 12.069,1.451 5.672,-10e-4 10.363,-1.374 10.882,-4.347 C 24.575,17.699 9.185,6.277 0,0 m 36.093,41.934 c -8.601,9.462 -21.983,4.093 -24.945,2.91 -7.693,-3.07 -16.162,-7.903 -22.945,-11.403 -9.627,-4.967 -15.32,-6.668 -15.065,-5.202 4.352,25.16 19.422,43.543 33.076,63.909 4.877,7.272 14.804,16.03 12.424,21.025 -3.103,6.518 -8.659,6.108 -12.961,2.649 -17.431,-14.013 -30.705,-42.243 -43.42,-68.586 -11.283,-23.38 -31.106,-63.745 -24.628,-71.646 6.549,-7.984 21.979,-4.593 32.645,-2.794 24.503,4.131 47.544,19.021 57.92,31.439 5.247,6.278 17.772,26.832 7.899,37.699" /></g><g
         transform="translate(150.751,236.9365)"
         id="g46"><path
           id="path48"
           style="fill:#e52613;fill-opacity:1;fill-rule:evenodd;stroke:none"
           d="M 0,0 -8.276,23.886 -16.879,0 -40.528,-8.998 -16.879,-17.995 -8.276,-41.882 0,-17.995 23.974,-8.998 Z" /></g><g
         transform="translate(505.0889,232.7959)"
         id="g50"><path
           id="path52"
           style="fill:#ffd000;fill-opacity:1;fill-rule:evenodd;stroke:none"
           d="M 0,0 4.21,8.917 H -325.993 V 0 Z" /></g><g
         transform="translate(179.0957,227.2744)"
         id="g54"><path
           id="path56"
           style="fill:#ffd000;fill-opacity:1;fill-rule:evenodd;stroke:none"
           d="M 0,0 V -9.13 H 319.076 L 323.385,0 Z" /></g><text
         id="text60"
         style="font-variant:normal;font-weight:900;font-stretch:normal;font-size:30.2204px;font-family:'Arial Black';-inkscape-font-specification:Arial-Black;writing-mode:lr-tb;fill:#e52613;fill-opacity:1;fill-rule:nonzero;stroke:none;stroke-width:0.922083"
         transform="matrix(0.9220835,0,-0.08731529,-1.0845005,0,0)"
         x="541.44983"
         y="-201.14827"><tspan
           id="tspan58"
           sodipodi:role="line"
           y="-201.14827"
           x="541.44983 567.07672 580.94788 606.57477 628.84717 642.71832 670.00726 693.94183"
           style="stroke-width:0.922083">AIRLINES</tspan></text></g></g></svg>
