<?xml version="1.0"?>
<svg viewBox="0 0 98.272142 9.487631" width="491.360705" height="47.438154" xmlns="http://www.w3.org/2000/svg">
  <path fill="#4A4F55" d="m 6.1,9.2876312 -0.6,-1.9 H 2.3 l -0.6,1.9 H 0 L 3,0.28763115 h 1.8 l 3,9.00000005 z m -2.2,-7 -1.1,3.7 h 2.3 z m 10.6,5.8 c -0.6,1.1 -1.7,1.4 -2.9,1.4 -1.5,0 -2.9,-0.6 -3.4,-2.2 -0.1,-0.3 -0.1,-0.7 -0.1,-1 h 1.7 c 0,0.2 0.1,0.5 0.2,0.7 0.3,0.7 0.9,1 1.7,1 0.6,0 1.4,-0.2 1.4,-1 0,-0.2 0,-0.3 -0.1,-0.4 -0.2,-0.4 -0.9,-0.6 -1.3,-0.8 -0.8,-0.3 -1.7,-0.7 -2.4,-1.2 -0.6,-0.5 -0.9,-1.1 -0.9,-1.9 0,-1.70000005 1.5,-2.60000005 3.1,-2.60000005 1.1,0 2.3,0.5 2.8,1.60000005 0.2,0.4 0.2,0.8 0.3,1.2 h -1.7 c 0,-0.8 -0.7,-1.3 -1.5,-1.3 -0.6,0 -1.3,0.3 -1.3,1 0,0.6 0.8,0.9 1.3,1.1 0.8,0.3 1.8,0.6 2.5,1.1 0.7,0.5 0.9,1.1 0.9,1.9 0,0.5 -0.1,1 -0.3,1.4 M 16,0.28763115 h 1.7 V 9.2876312 H 16 Z m 8.7,9.00000005 -0.6,-1.9 h -3.2 l -0.6,1.9 h -1.8 l 3,-9.00000005 h 1.8 l 3.1,9.00000005 z m -2.2,-7 -1.1,3.7 h 2.3 z m 10,7 -3.8,-6.3 v 6.3 H 27.1 V 0.28763115 h 1.8 L 32.6,6.5876312 V 0.28763115 h 1.6 V 9.2876312 Z m 8.4,0 -0.6,-1.9 h -3.2 l -0.6,1.9 h -1.8 l 3,-9.00000005 h 1.8 l 3.1,9.00000005 z m -2.1,-7 -1.1,3.7 H 40 Z m 14,7 -0.6,-1.9 H 49 l -0.6,1.9 h -1.8 l 3,-9.00000005 h 1.8 l 3,9.00000005 z m -2.2,-7 -1.1,3.7 h 2.3 z m 4.9,-2.00000005 h 1.7 V 9.2876312 h -1.7 z m 8.1,9.00000005 -1.8,-3.4 h -1.2 v 3.4 H 58.9 V 0.28763115 h 2.4 c 0.7,0 1.5,0 2.2,0.2 1.1,0.4 1.7,1.30000005 1.7,2.50000005 0,1.1 -0.5,2 -1.6,2.5 l 2.1,3.7 h -2.1 z m -0.9,-7.3 c -0.4,-0.2 -0.9,-0.2 -1.3,-0.2 h -0.8 v 2.6 h 1.1 c 0.9,0 1.7,-0.3 1.7,-1.3 0,-0.5 -0.3,-0.9 -0.7,-1.1 m 3.8,7.3 V 0.28763115 h 1.7 V 7.7876312 h 3.9 v 1.5 z m 6.6,-9.00000005 h 1.7 V 9.2876312 h -1.7 z m 8.7,9.00000005 -3.7,-6.3 v 6.3 H 76.4 V 0.28763115 h 1.9 L 81.9,6.5876312 V 0.28763115 h 1.6 V 9.2876312 Z m 3.3,0 V 0.28763115 h 5.6 V 1.7876312 h -3.9 v 2.1 h 3.6 v 1.5 h -3.6 v 2.4 h 4.1 v 1.5 z m 12.7,-1.2 c -0.6,1.1 -1.7,1.4 -2.9,1.4 -1.5,0 -2.9,-0.6 -3.4,-2.2 -0.1,-0.3 -0.1,-0.7 -0.1,-1 h 1.7 c 0,0.2 0.1,0.5 0.2,0.7 0.3,0.7 1,1 1.7,1 0.6,0 1.4,-0.2 1.4,-1 0,-0.2 -0.1,-0.3 -0.1,-0.4 -0.2,-0.4 -0.9,-0.7 -1.3,-0.8 -0.8,-0.3 -1.7,-0.7 -2.4,-1.2 -0.6,-0.5 -0.9,-1.1 -0.9,-1.9 0,-1.70000005 1.5,-2.60000005 3.1,-2.60000005 1.1,0 2.3,0.5 2.8,1.60000005 0.2,0.4 0.2,0.8 0.3,1.2 h -1.7 c 0,-0.8 -0.7,-1.3 -1.5,-1.3 -0.6,0 -1.3,0.3 -1.3,1 0,0.6 0.8,0.9 1.3,1.1 0.8,0.3 1.8,0.6 2.5,1.1 0.7,0.5 0.9,1.1 0.9,1.9 0,0.5 -0.1,1 -0.3,1.4" />
</svg>
