<?xml version="1.0" encoding="UTF-8"?>
<!-- Created with Inkscape (http://www.inkscape.org/) -->
<svg width="772.18" height="278.61" version="1.1" viewBox="0 0 772.18 278.61" xml:space="preserve" xmlns="http://www.w3.org/2000/svg" xmlns:cc="http://creativecommons.org/ns#" xmlns:dc="http://purl.org/dc/elements/1.1/" xmlns:rdf="http://www.w3.org/1999/02/22-rdf-syntax-ns#"><metadata><rdf:RDF><cc:Work rdf:about=""><dc:format>image/svg+xml</dc:format><dc:type rdf:resource="http://purl.org/dc/dcmitype/StillImage"/><dc:title/></cc:Work></rdf:RDF></metadata><g transform="matrix(1.3333 0 0 -1.3333 -258.89 1518.2)"><path d="m521.03 1008c-26.285-12.782-45.377-39.183-43.645-58.457-103.76 30.805-200.31 19.231-270.32-15.709-4.0576-2.027-7.8526-1.6515-1.4108 2.1582 70.878 41.921 207.31 79.051 315.37 72.008" fill="#86d0f4"/><path d="m708.18 1047.3-3.7185-17.473s-1.0937-7.8527-6.6168-10.722c-5.5267-2.8727-14.579-2.8508-14.579-2.8508h-97.95l5.8184 27.371c-9.6864-21.301-35.016-31.418-79.784-31.418-21.724 0-44.294 1.8665-56.656 11.345l1.5567-7.2984h-48.512l-2.0306 13.259h-47.542l-7.674-13.259h-48.505l63.835 99.995s6.2704 10.35 11.177 12.803c5.6325 2.8181 15.898 2.6577 15.898 2.6577h38.742l17.2-80.688h52.169c-0.6635-3.8825 0.24061-6.4709 3.0988-8.2463 3.0514-1.6187 7.8928-2.428 15.009-2.428 14.229 0 18.935 3.8789 20.102 9.3765 0.72183 3.3977-0.65621 6.7918-6.5986 7.7651l-50.415 7.7616c-21.593 3.394-28.06 16.332-24.622 32.5 6.358 29.916 37.349 38.002 74.859 38.002 51.425 0 69.755-13.423 66.182-37.841h-53.04c0.9989 4.692-1.1338 7.6047-4.9945 9.2198-3.6638 1.7791-8.7021 2.4243-13.715 2.4243-13.584 0-18.994-3.3941-20.025-8.2463-0.68537-3.2338 0.32082-5.3373 4.7101-5.9825l52.774-8.086c18.611-2.8399 30.018-10.78 30.813-24.765l14.717 69.234h45.599l-17.947-84.41zm-282.63 27.386s-14.998 7.1854-33.226 6.1319c-27.601-1.5968-37.152-18.895-37.152-18.895s11.699 8.2064 33.084 7.1746c14.83-0.7181 23.441-6.2194 23.441-6.2194s1.9504 6.2158 5.4575 8.7203c3.6638 2.6176 8.3958 3.0879 8.3958 3.0879" fill="#00529b"/><path d="m647.89 981.2c0 0.0339 1.2599 5.4928 2.7997 12.131s2.8275 12.205 2.8615 12.37l0.0618 0.3012h8.8658c8.3923 0 8.8628-0.01 8.8091-0.1917-0.0312-0.1054-0.23532-0.9803-0.45354-1.9441-0.21822-0.964-0.42112-1.8389-0.45089-1.9443-0.0508-0.1797-0.44983-0.1916-6.3976-0.1916h-6.3434l-0.0584-0.2465c-0.0321-0.1356-0.33031-1.4294-0.66262-2.8753-0.33232-1.4458-0.63068-2.715-0.66302-2.8205-0.0555-0.18088 0.2686-0.19167 5.7538-0.19167 5.0419 0 5.8126-0.0214 5.8126-0.16107 0-0.0886-0.17229-0.88954-0.38285-1.7799-0.21056-0.89036-0.40866-1.7298-0.44021-1.8653l-0.0574-0.24645h-5.7967c-3.2803 0-5.8229-0.0424-5.8571-0.0977-0.0596-0.0965-1.3764-5.7916-1.3764-5.9529 0-0.0458 2.8509-0.0832 6.3354-0.0832h6.3354l-0.49516-2.1359-0.49517-2.1359h-8.8524c-4.8688 0-8.8524 0.0278-8.8524 0.0617zm-26.945 0c0 0.0339 1.2599 5.4928 2.7997 12.131 1.5398 6.638 2.8275 12.205 2.8615 12.37l0.0618 0.3012h5.1754l3.6618-8.4301c2.014-4.6366 3.679-8.4129 3.7-8.3919 0.021 0.021 0.91474 3.8033 1.9861 8.4051l1.9479 8.3669 2.4849 0.029c1.3859 0.017 2.4849-0.014 2.4849-0.067 0-0.1066-5.5559-24.271-5.6519-24.582-0.0553-0.17911-0.25363-0.19144-2.6433-0.1643l-2.5835 0.0294-3.5367 8.1602c-1.9452 4.4881-3.6032 8.3019-3.6845 8.4751-0.13786 0.29377-0.26428-0.1923-1.8801-7.2292-0.95277-4.1492-1.8317-7.9754-1.9531-8.5025l-0.2208-0.9584h-2.505c-1.3778 0-2.505 0.0278-2.505 0.0617zm-10.406 0c0 0.0339 1.2599 5.4928 2.7997 12.131s2.8275 12.205 2.8615 12.37l0.0618 0.3012h2.5056c1.378 0 2.5056-0.031 2.5056-0.07 0-0.038-1.2815-5.6033-2.8478-12.366-1.5663-6.7631-2.8478-12.326-2.8478-12.362s-1.1337-0.0656-2.5192-0.0656c-1.3856 0-2.5193 0.0278-2.5193 0.0617zm-21.359 0c0 0.0339 1.2599 5.4928 2.7997 12.131s2.8275 12.205 2.8615 12.37l0.0618 0.3012h5.021l-0.0688-0.356c-0.0378-0.1958-1.0926-4.7674-2.3438-10.159-1.2513-5.3918-2.2547-9.8401-2.2298-9.8853 0.0248-0.0452 2.7285-0.0822 6.0082-0.0822s5.9631-0.0286 5.9631-0.0634c0-0.0797-0.86563-3.8662-0.9433-4.1262-0.0539-0.18042-0.55857-0.19167-8.5934-0.19167-4.6949 0-8.5362 0.0278-8.5362 0.0617zm-8.7889 13.015c1.4992 0.38226 2.7562 1.2782 3.2718 2.3322 0.23161 0.4734 0.31128 0.82081 0.34781 1.5167 0.0974 1.8551-0.61741 2.8254-2.4905 3.3807-0.4921 0.1459-1.1926 0.1764-4.0527 0.1761l-3.4578-2e-4 -0.85175-3.7513c-0.46845-2.0632-0.85045-3.7939-0.84888-3.846 2e-3 -0.0525 1.6499-0.0699 3.6996-0.0389 2.881 0.0436 3.848 0.0944 4.3824 0.23068zm-16.075-13.018c0 0.0713 5.5768 24.34 5.6574 24.62 0.0544 0.1888 0.3546 0.1962 6.3732 0.1579l6.3161-0.04 1.1223-0.2931c2.8519-0.7446 4.6192-2.328 5.2539-4.707 0.24636-0.9234 0.2426-3.046-7e-3 -4.0674-0.63878-2.6119-2.6756-4.6842-5.5585-5.6557-1.1011-0.37103-2.2205-0.55537-3.8546-0.63477l-1.5107-0.0734 3.4144-4.1622c1.8779-2.2892 3.6097-4.3964 3.8485-4.6825l0.4341-0.52028h-6.0372l-4.0169 4.9837c-2.2093 2.741-4.0487 4.9837-4.0877 4.9837-0.039 0-0.55405-2.1318-1.1446-4.7373-0.59057-2.6055-1.0994-4.8482-1.1307-4.9837l-0.057-0.24645h-2.5074c-1.3791 0-2.5074 0.0264-2.5074 0.0585zm-10.406 3e-3c0 0.0339 1.2599 5.4928 2.7997 12.131s2.8275 12.205 2.8615 12.37l0.0618 0.3012h2.5056c1.3781 0 2.5056-0.031 2.5056-0.07 0-0.038-1.2815-5.6033-2.8478-12.366-1.5663-6.7631-2.8478-12.326-2.8478-12.362 0-0.0361-1.1337-0.0656-2.5192-0.0656s-2.5193 0.0278-2.5193 0.0617zm-9.3103 8.9559c0 0.14025-0.34504 2.49-0.76673 5.2216-0.4217 2.7316-0.76673 5.018-0.76673 5.0808 0 0.063-0.0664 0.042-0.14754-0.046-0.16193-0.176-6.0958-10.347-6.0958-10.448 0-0.0345 1.7498-0.0628 3.8884-0.0628h3.8884zm-18.493-8.9235c0.0201 0.0517 3.3882 5.645 7.4847 12.429l7.4482 12.335h5.8238l2.0466-12.295c1.1257-6.7623 2.0456-12.357 2.0444-12.432-2e-3 -0.10542-0.56892-0.13692-2.4646-0.13692h-2.4624l-0.0525 0.24645c-0.0289 0.13554-0.17941 1.109-0.33447 2.1633-0.15506 1.0543-0.3089 2.0528-0.34184 2.2191l-0.0599 0.30224-10.738-0.0568-2.8456-4.8742h-2.7925c-1.5358 0-2.776 0.0424-2.7559 0.0941zm152.45-0.26244c-2.6859 0.44132-4.9123 1.6096-6.2752 3.2927-0.98304 1.2141-1.6112 2.9403-1.6112 4.4277v0.66295h4.9002l0.052-0.79411c0.1155-1.7616 1.3782-3.0576 3.4534-3.5446 0.97864-0.22967 2.9199-0.15834 3.6848 0.13539 0.6858 0.26334 1.4672 0.95028 1.724 1.5155 0.27095 0.59649 0.2717 1.8201 2e-3 2.4149-0.41524 0.91405-1.0569 1.3087-4.4509 2.7376-3.3284 1.4012-3.9718 1.7606-4.9838 2.7838-1.3226 1.3372-1.8571 2.6207-1.8604 4.4672-2e-3 1.2027 0.15194 1.8806 0.67774 2.9817 0.6547 1.371 1.7449 2.4271 3.2744 3.1718 1.7832 0.8684 2.6894 1.0512 5.1922 1.0481 1.7682 0 2.2242-0.039 3.0326-0.2412 1.9957-0.5006 3.4426-1.3034 4.6613-2.5864 1.2582-1.3245 1.8839-2.8991 1.8883-4.752l2e-3 -0.79411h-5.0385l-9.7e-4 0.79411c-9.7e-4 0.82088-0.26611 1.5843-0.73533 2.1182-0.43588 0.496-1.277 1.0349-1.9242 1.2331-2.38 0.7283-4.8282 0.1031-5.6244-1.4364-0.23629-0.457-0.31623-1.4906-0.15345-1.9838 0.33942-1.0285 1.0371-1.4771 4.5918-2.9523 1.5136-0.62817 3.0353-1.3082 3.3814-1.5112 0.89841-0.52686 2.4427-2.0904 2.7987-2.8336 0.45813-0.95648 0.63632-1.8066 0.64282-3.0669 0.0101-1.9612-0.51806-3.3908-1.7407-4.7114-1.1582-1.251-2.6381-2.0564-4.5499-2.4763-1.0963-0.24079-3.8231-0.29537-5.0103-0.1003z" fill="#00529b" stroke-width=".10953"/><path d="m751.53 951.82c2.5363 0.22641 4.3322 1.059 6.0243 2.7927 1.6783 1.7196 2.5832 4.063 2.6013 6.7368 0.0254 3.7631-1.9892 6.0606-5.7583 6.5665-0.97745 0.13116-4.6745 0.15722-4.6748 0.0331-8e-5 -0.0457-0.83794-3.6803-1.8619-8.078-1.0239-4.3977-1.8618-8.0328-1.8619-8.078 0-0.11929 4.1167-0.099 5.5312 0.0273zm-11.556-4.3273c0 0.0382 1.2599 5.5006 2.7997 12.139 1.5398 6.638 2.8283 12.208 2.8632 12.379l0.0635 0.30967 5.1053-0.0457c5.0378-0.0447 5.1206-0.0496 6.2693-0.32824 4.5044-1.0939 7.2948-3.9284 8.0418-8.1688 0.21694-1.2315 0.21663-3.7284-3e-3 -4.9654-1.0175-5.7928-5.2291-9.8628-11.505-11.119-0.72418-0.14492-1.9834-0.18352-7.2565-0.22246-3.5092-0.0259-6.3803-0.0159-6.3803 0.0225zm-26.945 8e-3c0 0.0339 1.2599 5.4928 2.7997 12.131 1.5398 6.638 2.8276 12.205 2.8616 12.37l0.0618 0.30121h5.1754l3.6618-8.4301c2.014-4.6366 3.679-8.4129 3.7-8.3919 0.021 0.021 0.91475 3.8033 1.9861 8.4051l1.9479 8.3669 2.4849 0.0292c1.3859 0.0165 2.4849-0.0136 2.4849-0.0671 0-0.10656-5.5559-24.271-5.6519-24.582-0.0553-0.17913-0.25362-0.19144-2.6433-0.16431l-2.5835 0.0294-3.5367 8.1602c-1.9452 4.4881-3.6033 8.3019-3.6845 8.4751-0.13787 0.29375-0.26429-0.1923-1.8801-7.2292-0.9528-4.1492-1.8317-7.9754-1.9531-8.5025l-0.22079-0.95841h-2.505c-1.3778 0-2.505 0.0278-2.505 0.0617zm-9.4198 8.9559c0 0.14025-0.34501 2.49-0.76671 5.2216-0.4217 2.7316-0.76674 5.018-0.76674 5.0808s-0.0664 0.042-0.14754-0.0462c-0.16192-0.17604-6.0958-10.347-6.0958-10.448 0-0.0346 1.7498-0.0628 3.8884-0.0628h3.8884zm-18.493-8.9235c0.0202 0.0517 3.3882 5.645 7.4847 12.429l7.4482 12.335h5.8238l2.0467-12.295c1.1257-6.7623 2.0456-12.357 2.0444-12.432-3e-3 -0.10541-0.56892-0.13692-2.4646-0.13692h-2.4624l-0.0525 0.24645c-0.0289 0.13554-0.17941 1.109-0.33446 2.1633-0.15508 1.0542-0.3089 2.0528-0.34185 2.2191l-0.0599 0.30225-10.738-0.0568-2.8456-4.8742h-2.7924c-1.5358 0-2.776 0.0423-2.7559 0.0941zm-19.844-0.0324c0 0.0339 1.2599 5.4928 2.7997 12.131 1.5398 6.638 2.8275 12.205 2.8615 12.37l0.0618 0.30121h5.0211l-0.0688-0.35595c-0.0378-0.19582-1.0926-4.7674-2.3438-10.159-1.2513-5.3918-2.2547-9.8402-2.2299-9.8853 0.0249-0.0452 2.7286-0.0822 6.0082-0.0822 3.2797 0 5.9631-0.0286 5.9631-0.0635 0-0.0797-0.86564-3.8661-0.94331-4.1262-0.0539-0.18042-0.55858-0.19168-8.5934-0.19168-4.6949 0-8.5362 0.0278-8.5362 0.0617zm-8.6793 13.015c1.4992 0.38227 2.7562 1.2782 3.2718 2.3322 0.23161 0.47341 0.31128 0.82083 0.34781 1.5168 0.0974 1.8551-0.61741 2.8254-2.4905 3.3807-0.49209 0.14594-1.1926 0.17638-4.0527 0.17609l-3.4578-2e-4 -0.85174-3.7512c-0.46847-2.0632-0.85047-3.7939-0.8489-3.846 3e-3 -0.0525 1.6499-0.0699 3.6996-0.0389 2.8811 0.0436 3.848 0.0944 4.3824 0.23068zm-16.075-13.018c0 0.0713 5.5768 24.34 5.6574 24.62 0.0544 0.18882 0.35463 0.19621 6.3732 0.1579l6.3161-0.0399 1.1223-0.29305c2.8519-0.74467 4.6192-2.328 5.2539-4.707 0.24635-0.92344 0.24258-3.046-7e-3 -4.0674-0.63879-2.6119-2.6756-4.6842-5.5586-5.6557-1.1011-0.37103-2.2205-0.55538-3.8546-0.63477l-1.5107-0.0734 3.4144-4.1622c1.8779-2.2892 3.6097-4.3964 3.8485-4.6825l0.43409-0.52028h-6.0372l-4.0169 4.9837c-2.2093 2.741-4.0488 4.9837-4.0877 4.9837-0.039 0-0.55405-2.1318-1.1446-4.7373s-1.0994-4.8482-1.1307-4.9837l-0.057-0.24644h-2.5074c-1.379-1e-5 -2.5073 0.0263-2.5073 0.0585zm-22.016 3e-3c0 0.0339 1.2599 5.4928 2.7997 12.131 1.5398 6.638 2.8276 12.205 2.8616 12.37l0.0618 0.30121h8.8658c8.3922 0 8.8628-0.01 8.8091-0.19164-0.0312-0.10539-0.23532-0.98035-0.45353-1.9442-0.21824-0.96392-0.42112-1.8389-0.45092-1.9443-0.0507-0.17968-0.44982-0.19164-6.3975-0.19164h-6.3434l-0.0584-0.24647c-0.0322-0.13554-0.33031-1.4294-0.66262-2.8752-0.33233-1.4458-0.63068-2.715-0.66303-2.8205-0.0555-0.18089 0.26861-0.19168 5.7538-0.19168 5.0418 0 5.8126-0.0214 5.8126-0.16107 0-0.0886-0.17227-0.88954-0.38284-1.7799-0.21058-0.89036-0.40866-1.7298-0.44021-1.8653l-0.0574-0.24644h-5.7966c-3.2803 0-5.8229-0.0424-5.8571-0.0977-0.0596-0.0965-1.3764-5.7916-1.3764-5.9529 0-0.0458 2.8509-0.0832 6.3354-0.0832h6.3354l-0.49514-2.1359-0.49519-2.1359h-8.8524c-4.8688 0-8.8525 0.0278-8.8525 0.0617zm-23.38 0.29427c0.0426 0.19578 0.11491 0.45551 0.16069 0.57715 0.0458 0.12165 3.6858 4.5824 8.0888 9.9127l8.0056 9.6915-11.411 0.0564 0.0512 0.2455c0.0282 0.13495 0.24073 1.0957 0.47233 2.1348l0.42108 1.8894h19.12l-0.065-0.35595c-0.0358-0.19582-0.12408-0.48099-0.19626-0.63383-0.0721-0.15275-3.6962-4.6135-8.0535-9.9127l-7.9223-9.6349 11.825-0.0566-0.47243-2.0528c-0.25985-1.129-0.47344-2.0898-0.47466-2.135-3e-3 -0.0452-4.4176-0.0822-9.8141-0.0822h-9.8119zm-14.573-0.10954c0.53434 2.232 4.6551 20.214 4.6551 20.314 0 0.10812-0.79716 0.14467-3.6503 0.16723l-3.6502 0.0292 0.39881 1.7524c0.21934 0.96392 0.43348 1.8881 0.47588 2.0538l0.0771 0.30121h9.8011c5.3906 0 9.8012-0.037 9.8013-0.0817 9e-5 -0.0447-0.20667-0.98162-0.45947-2.0811l-0.45962-1.999h-3.5868c-1.9727 0-3.6111-0.0389-3.6408-0.0875-0.0297-0.0476-1.0708-4.4964-2.3135-9.8853-1.2427-5.3889-2.3116-10.007-2.3752-10.263l-0.11567-0.46551h-5.0167zm-15.608-0.18473c0 0.0339 1.2599 5.4928 2.7997 12.131 1.5398 6.638 2.8275 12.205 2.8615 12.37l0.0618 0.30121h2.5056c1.3781 0 2.5056-0.0311 2.5056-0.07 0-0.0379-1.2815-5.6032-2.8478-12.366-1.5663-6.7631-2.8478-12.326-2.8478-12.362s-1.1337-0.0656-2.5192-0.0656c-1.3856 0-2.5193 0.0278-2.5193 0.0617zm-31.264 0.18256c-0.0556 0.26202-2.1489 24.098-2.1453 24.428 2e-3 0.17715 0.20111 0.19164 2.6309 0.19164 2.5494 0 2.6288-0.01 2.6288-0.2175 0-0.36918 1.0977-16.47 1.1247-16.497 0.014-0.0137 2.0956 3.74 4.6258 8.3417l4.6004 8.3666h2.1085c1.1597 0 2.1085-0.034 2.1086-0.0787 5e-5 -0.0447 0.36972-3.7418 0.82149-8.2147 0.45179-4.4729 0.82142-8.1918 0.82142-8.2642 0-0.0815 0.0366-0.0921 0.096-0.0276 0.0528 0.0573 2.005 3.8131 4.3383 8.3464l4.2423 8.2423h5.7562l-13.477-24.864h-4.6498l-0.063 0.57505c-0.0347 0.31627-0.39642 4.1115-0.8039 8.4338-0.44382 4.7077-0.78076 7.8189-0.84032 7.7593-0.0547-0.0547-2.1615-3.8376-4.6818-8.4064l-4.5823-8.307-4.6072-0.0591zm-19.887-0.41265c-2.6859 0.44133-4.9123 1.6096-6.2752 3.2927-0.98303 1.2141-1.6112 2.9403-1.6112 4.4277v0.66296h4.9002l0.052-0.79411c0.11551-1.7616 1.3782-3.0576 3.4534-3.5446 0.97864-0.22967 2.9199-0.15834 3.6848 0.13539 0.6858 0.26334 1.4672 0.95027 1.724 1.5155 0.27095 0.59649 0.27169 1.8201 2e-3 2.4149-0.41523 0.91405-1.0569 1.3087-4.4509 2.7376-3.3284 1.4012-3.9718 1.7606-4.9838 2.7838-1.3226 1.3372-1.8571 2.6207-1.8604 4.4672-2e-3 1.2026 0.15193 1.8806 0.67773 2.9817 0.65472 1.371 1.7449 2.4271 3.2744 3.1718 1.7832 0.86835 2.6894 1.0512 5.1922 1.0481 1.7682 0 2.2242-0.0389 3.0326-0.24122 1.9957-0.50063 3.4426-1.3034 4.6613-2.5864 1.2582-1.3245 1.8839-2.8991 1.8883-4.7519l2e-3 -0.79411h-5.0385l-9.8e-4 0.79411c-9.7e-4 0.82088-0.2661 1.5842-0.73531 2.1181-0.4359 0.49594-1.277 1.0349-1.9242 1.233-2.3799 0.72833-4.8282 0.10316-5.6243-1.4364-0.2363-0.45694-0.31625-1.4905-0.15346-1.9838 0.33943-1.0285 1.0371-1.4771 4.5918-2.9523 1.5136-0.62817 3.0353-1.3082 3.3814-1.5112 0.89841-0.52686 2.4427-2.0904 2.7987-2.8336 0.45813-0.95649 0.63632-1.8066 0.64283-3.0669 0.0101-1.9612-0.51807-3.3908-1.7407-4.7114-1.1582-1.251-2.6381-2.0564-4.5498-2.4763-1.0963-0.24078-3.8231-0.29536-5.0103-0.1003z" fill="#86d0f4" stroke-width=".10953"/></g></svg>
