<?xml version="1.0" encoding="UTF-8" standalone="no"?>
<!-- Generator: Adobe Illustrator 12.0.0, SVG Export Plug-In  -->
<svg xmlns:dc="http://purl.org/dc/elements/1.1/" xmlns:cc="http://creativecommons.org/ns#" xmlns:rdf="http://www.w3.org/1999/02/22-rdf-syntax-ns#" xmlns:svg="http://www.w3.org/2000/svg" xmlns="http://www.w3.org/2000/svg" xmlns:sodipodi="http://sodipodi.sourceforge.net/DTD/sodipodi-0.dtd" xmlns:inkscape="http://www.inkscape.org/namespaces/inkscape" version="1.1" width="489.99948" height="182.8999" viewBox="-0.565918 -0.6938477 489.99948 182.8999" enable-background="new -0.565918 -0.6938477 501 230" xml:space="preserve" id="svg2" inkscape:version="0.48.1 " sodipodi:docname="AJAX.svg"><metadata id="metadata30"><rdf:RDF><cc:Work rdf:about=""><dc:format>image/svg+xml</dc:format><dc:type rdf:resource="http://purl.org/dc/dcmitype/StillImage"/></cc:Work></rdf:RDF></metadata><sodipodi:namedview pagecolor="#ffffff" bordercolor="#666666" borderopacity="1" objecttolerance="10" gridtolerance="10" guidetolerance="10" inkscape:pageopacity="0" inkscape:pageshadow="2" inkscape:window-width="1280" inkscape:window-height="1004" id="namedview28" showgrid="false" fit-margin-top="0" fit-margin-left="0" fit-margin-right="0" fit-margin-bottom="0" inkscape:zoom="1.4581158" inkscape:cx="225.36372" inkscape:cy="-17.925371" inkscape:window-x="-8" inkscape:window-y="-8" inkscape:window-maximized="1" inkscape:current-layer="svg2"/>
<defs id="defs4">
</defs>
<rect width="500.00049" height="229.00928" id="rect6" x="-5.0630097" y="-23.748535" style="opacity:0;fill:#ffffff"/>
<path d="M 112.97361,146.83496 C -55.126975,131.29492 -54.312033,13.25293 236.33299,-0.6938482 65.276834,15.204102 -64.305197,93.257325 112.97361,146.83496 z" id="path8" inkscape:connector-curvature="0" style="fill:#fa8b11"/>
<path d="m 131.30613,82.040035 c 0,-26.915523 21.89502,-48.798824 48.80273,-48.798824 26.896,0 48.78711,21.883301 48.78711,48.798824 0,26.900385 -21.89111,48.791015 -48.78711,48.791015 -26.90771,0 -48.80273,-21.89063 -48.80273,-48.791015 z m 97.67383,37.295895 v 23.84473 h 12.71289 V 82.457515 20.933594 h -12.71289 v 23.788574 c -11.25537,-14.700195 -28.97705,-24.204101 -48.8711,-24.204101 -33.92919,0 -61.51611,27.596679 -61.51611,61.521968 0,33.909175 27.58692,61.503905 61.51611,61.503905 19.89405,0 37.61573,-9.49316 48.8711,-24.20801 z" id="path10" inkscape:connector-curvature="0" style="fill:#25439a"/>
<path d="m 350.49412,82.040035 c 0,-26.915523 21.88672,-48.798824 48.78711,-48.798824 26.91894,0 48.79883,21.883301 48.79883,48.798824 0,26.900385 -21.87989,48.791015 -48.79883,48.791015 -26.90039,0 -48.78711,-21.89063 -48.78711,-48.791015 z m 97.66992,37.295895 v 23.84473 h 12.71289 V 82.457515 20.933594 H 448.16404 V 44.722168 C 436.90818,30.021973 419.18748,20.518067 399.28123,20.518067 c -33.90918,0 -61.50391,27.596679 -61.50391,61.521968 0,33.909175 27.59473,61.503905 61.50391,61.503905 19.90625,0 37.62695,-9.49316 48.88281,-24.20801 z" id="path12" inkscape:connector-curvature="0" style="fill:#25439a"/>
<polygon points="307.45264,57.351074 344.96826,57.351074 344.96826,44.628418 257.21191,44.628418 257.21191,57.351074 294.73193,57.351074 294.73193,166.9292 307.45264,166.9292 " id="polygon14" style="fill:#25439a" transform="translate(-5.06301, -23.7485)"/>
<path d="m 109.03513,159.83984 h 26.66016 c 15.82861,0 23.72461,1.77734 23.72461,5.33594 0,1.05078 -0.5791,1.81347 -1.7334,2.3164 -1.1582,0.51172 -3.44287,1.09082 -6.86181,1.67383 3.73437,0.4668 10.76416,1.28613 12.96044,2.46387 1.97315,1.05469 2.96387,2.17676 2.96387,3.35547 0,1.94043 -2.6123,3.61035 -7.85254,4.98828 -5.23193,1.3623 -11.55468,2.04883 -18.97119,2.04883 h -30.89014 v -22.18262 z m 26.71631,8.05566 c 1.96875,0.0879 4.27344,-0.0557 6.89356,-0.43554 3.50683,-0.49121 5.26025,-1.26954 5.26025,-2.32422 0,-1.88477 -4.08984,-2.80762 -12.2539,-2.79199 H 118.8408 v 5.55175 h 16.91064 z m 4.08985,11.62305 c 4.71679,0 8.74267,-0.45117 12.08984,-1.32227 3.33887,-0.91015 5.01221,-1.97656 5.01221,-3.22753 0,-1.26954 -1.67334,-2.34375 -5.01221,-3.22657 -3.34717,-0.89062 -7.37305,-1.34179 -12.08984,-1.34179 H 118.8408 v 9.11816 h 21.00049 z" id="path16" inkscape:connector-curvature="0" style="fill:#fa8b11"/>
<path d="m 207.73972,173.80664 -0.17187,-0.0713 39.05762,8.28711 H 230.2656 l -34.82373,-7.38086 v 7.38086 h -10.08496 v -22.18262 h 27.60694 c 7.62451,0 14.13085,0.69043 19.51464,2.05273 5.38819,1.3584 8.08008,2.98731 8.08008,4.92871 0,1.94141 -2.69189,3.57911 -8.08008,4.93653 -5.38379,1.3623 -11.89013,2.04883 -19.51464,2.04883 h -5.22413 z m 5.13233,-11.46289 h -17.43018 v 8.96289 h 17.43018 c 4.85254,0 8.99853,-0.43946 12.4414,-1.31055 3.43848,-0.86621 5.16016,-1.94043 5.16016,-3.17481 0,-1.23437 -1.72168,-2.28418 -5.16016,-3.17089 -3.44287,-0.8711 -7.58886,-1.30664 -12.4414,-1.30664 z" id="path18" inkscape:connector-curvature="0" style="fill:#fa8b11"/>
<path d="M 303.16892,175.04101 H 277.1074 l -11.25488,6.98145 h -7.71631 l 0.12353,-1.82911 32.06836,-19.80664 31.94825,19.87891 -0.25196,1.75684 h -7.64453 l -11.21094,-6.98145 z m -22.01953,-2.5 h 18.32129 l -9.15039,-5.67969 -9.1709,5.67969 z" id="path20" inkscape:connector-curvature="0" style="fill:#fa8b11"/>
<path d="m 390.07029,179.1748 c -4.05762,2.0166 -11.92578,3.03125 -23.61621,3.03125 -15.30078,0 -24.2959,-2.08887 -27,-6.27832 l 8.63184,-0.30762 c 2.6875,2.97559 8.85449,4.42969 18.47558,4.42969 5.56836,0 9.90137,-0.40332 13.00488,-1.20215 3.10352,-0.79492 4.64942,-1.79394 4.64942,-2.95605 0,-1.56153 -3.00781,-2.66407 -9.03906,-3.31934 -1.70508,-0.19922 -5.75098,-0.54297 -12.13379,-1.07031 -7.56446,-0.59863 -12.77637,-1.28613 -15.65235,-2.08496 -3.87402,-1.08594 -5.80371,-2.42774 -5.80371,-3.98926 0,-2.28516 3.51856,-3.88281 10.54492,-4.86133 3.70215,-0.4707 8.19922,-0.72656 13.51563,-0.72656 8.55859,0 14.91699,0.56348 19.06348,1.67383 3.23535,0.86621 5.26757,1.98828 6.083,3.42675 l -9.36621,0.12305 c -2.16894,-2.17187 -7.50097,-3.24707 -16,-3.24707 -3.52734,0 -6.78613,0.23633 -9.76562,0.6709 -3.98242,0.61914 -5.97852,1.4707 -5.97852,2.57617 0,0.85156 1.10547,1.59766 3.32227,2.17676 2.20898,0.59961 7.24902,1.19434 15.10937,1.75781 7.0459,0.52735 12.18555,1.07422 15.42969,1.61719 6.42188,1.05078 9.625,2.80859 9.625,5.26074 0,1.1582 -1.03418,2.26465 -3.09961,3.29883 z" id="path22" inkscape:connector-curvature="0" style="fill:#fa8b11"/>
<path d="m 426.24412,182.02246 h -11.63379 v -22.18262 h 11.63379 v 22.18262 z" id="path24" inkscape:connector-curvature="0" style="fill:#fa8b11"/>
<path d="m 458.86326,179.51855 h 30.57031 v 2.50391 h -39.45703 v -22.18262 h 8.88672 v 19.67871 z" id="path26" inkscape:connector-curvature="0" style="fill:#fa8b11"/>
</svg>