<?xml version="1.0" encoding="UTF-8" standalone="no"?>
<svg
   xmlns:svg="http://www.w3.org/2000/svg"
   xmlns="http://www.w3.org/2000/svg"
   version="1.0"
   width="760"
   height="150"
   viewBox="-0.414 -0.106 760 150"
   id="svg2"
   xml:space="preserve">
	<defs
   id="defs4">
	</defs>
	<g
   transform="matrix(0.986834,0,0,0.933048,4.0000033,5.9998834)"
   id="g6">
		<path
   d="M 256.739,102.635 L 257.645,93.827 L 256.739,93.827 C 255.229,100.152 247.624,103.312 233.926,103.312 C 224.057,103.312 217.006,102.147 212.775,99.812 C 207.74,97.026 205.221,92.056 205.221,84.901 C 205.221,78.049 207.69,73.156 212.625,70.219 C 217.056,67.582 224.156,66.265 233.926,66.265 C 239.567,66.265 243.746,66.529 246.467,67.056 C 251.301,68.035 254.323,69.993 255.531,72.93 L 256.739,72.93 L 256.739,63.554 C 256.739,60.316 256.185,58.132 255.077,57.003 C 253.466,55.347 250.094,54.518 244.955,54.518 C 237.905,54.518 234.381,56.664 234.381,60.956 L 208.396,60.956 C 208.396,52.748 212.172,47.401 219.726,44.917 C 224.158,43.411 232.567,42.658 244.955,42.658 C 259.358,42.658 268.978,43.938 273.812,46.497 C 279.754,49.584 282.724,55.947 282.724,65.586 L 282.724,102.633 L 256.739,102.633 L 256.739,102.635 z M 242.539,78.125 C 234.984,78.125 231.209,80.197 231.209,84.338 C 231.209,88.63 234.984,90.776 242.539,90.776 C 248.18,90.776 251.956,90.325 253.869,89.421 C 255.783,88.517 256.739,86.56 256.739,83.547 C 256.739,81.288 255.429,79.745 252.811,78.916 C 250.897,78.389 247.475,78.125 242.539,78.125 L 242.539,78.125 z M 358.867,43.336 L 328.804,43.336 L 328.804,30.8 L 302.817,30.8 L 302.817,43.336 L 293.149,43.336 L 293.149,57.568 L 302.817,57.568 L 302.817,86.821 C 302.817,93.6 305.788,98.193 311.732,100.602 C 316.063,102.408 323.214,103.31 333.184,103.31 C 344.162,103.31 351.665,102.032 355.695,99.471 C 360.125,96.686 362.341,91.378 362.341,83.546 L 362.341,78.237 L 341.644,78.237 L 341.495,81.4 C 341.393,84.185 341.091,85.993 340.587,86.82 C 339.681,88.326 337.716,89.08 334.695,89.08 C 332.381,89.08 330.817,88.704 330.012,87.951 C 329.205,87.198 328.804,85.916 328.804,84.111 L 328.804,57.569 L 358.867,57.569 L 358.867,43.336 L 358.867,43.336 z M 399.202,17.922 L 373.217,17.922 L 373.217,102.635 L 399.202,102.635 L 399.202,17.922 L 399.202,17.922 z M 465.674,102.635 L 466.579,93.827 L 465.674,93.827 C 464.165,100.152 456.56,103.312 442.861,103.312 C 432.994,103.312 425.942,102.147 421.712,99.812 C 416.676,97.026 414.156,92.056 414.156,84.901 C 414.156,78.049 416.626,73.156 421.562,70.219 C 425.992,67.582 433.093,66.265 442.861,66.265 C 448.504,66.265 452.681,66.529 455.403,67.056 C 460.237,68.035 463.257,69.993 464.467,72.93 L 465.674,72.93 L 465.674,63.554 C 465.674,60.316 465.12,58.132 464.013,57.003 C 462.402,55.347 459.027,54.518 453.891,54.518 C 446.839,54.518 443.315,56.664 443.315,60.956 L 417.332,60.956 C 417.332,52.748 421.108,47.401 428.661,44.917 C 433.094,43.411 441.502,42.658 453.891,42.658 C 468.293,42.658 477.914,43.938 482.748,46.497 C 488.689,49.584 491.66,55.947 491.66,65.586 L 491.66,102.633 L 465.674,102.633 L 465.674,102.635 z M 451.474,78.125 C 443.918,78.125 440.145,80.197 440.145,84.338 C 440.145,88.63 443.918,90.776 451.474,90.776 C 457.114,90.776 460.89,90.325 462.803,89.421 C 464.716,88.517 465.674,86.56 465.674,83.547 C 465.674,81.288 464.364,79.745 461.745,78.916 C 459.832,78.389 456.41,78.125 451.474,78.125 L 451.474,78.125 z M 578.681,60.167 L 578.681,57.343 C 578.681,50.942 574.65,46.686 566.593,44.579 C 561.859,43.298 554.206,42.66 543.627,42.66 C 529.931,42.66 520.717,43.525 515.982,45.256 C 508.529,47.892 504.802,53.502 504.802,62.087 C 504.802,68.562 507.169,73.005 511.904,75.415 C 517.342,78.277 527.918,79.708 543.627,79.708 C 548.968,79.708 552.39,79.935 553.904,80.386 C 556.119,81.139 557.226,82.871 557.226,85.582 C 557.226,87.839 556.42,89.27 554.809,89.874 C 553.297,90.475 549.571,90.776 543.626,90.776 C 539.398,90.776 536.478,90.512 534.866,89.985 C 532.147,89.006 530.788,87.049 530.788,84.113 L 504.802,84.113 C 504.802,92.847 508.731,98.496 516.585,101.055 C 521.12,102.561 530.132,103.312 543.626,103.312 C 555.916,103.312 564.98,102.147 570.822,99.812 C 578.577,96.726 582.456,91.227 582.456,83.321 C 582.456,75.566 579.333,70.519 573.09,68.186 C 568.455,66.378 558.635,65.362 543.626,65.137 C 537.585,65.061 533.656,64.533 531.846,63.555 C 530.636,62.954 530.033,61.747 530.033,59.941 C 530.033,57.983 530.584,56.741 531.694,56.213 C 533.305,55.536 537.284,55.196 543.627,55.196 C 550.075,55.196 553.6,56.854 554.206,60.167 L 578.681,60.167 L 578.681,60.167 z M 609.495,43.336 L 609.495,109.75 C 609.495,115.096 608.49,118.974 606.477,121.383 C 603.858,124.621 599.173,126.24 592.426,126.24 C 590.712,126.24 588.749,126.052 586.534,125.677 L 586.534,118.786 C 586.736,118.786 587.138,118.824 587.741,118.898 C 588.345,118.898 588.749,118.898 588.948,118.898 C 593.178,118.898 595.847,117.58 596.958,114.945 C 597.359,113.817 597.562,111.105 597.562,106.812 L 597.562,43.336 L 609.495,43.336 L 609.495,43.336 z M 609.495,17.922 L 609.495,27.75 L 597.562,27.75 L 597.562,17.922 L 609.495,17.922 L 609.495,17.922 z M 639.205,79.312 L 626.938,79.313 C 627.571,87.695 629.563,93.472 632.912,96.649 C 637.649,101.092 647.47,103.311 662.376,103.311 C 673.556,103.311 681.41,102.521 685.942,100.939 C 692.789,98.606 696.216,93.899 696.216,86.821 L 696.216,84.675 L 683.979,84.675 L 683.979,86.935 C 683.979,90.927 682.415,93.486 679.294,94.614 C 676.675,95.594 671.035,96.083 662.375,96.083 C 651.796,96.083 645.251,94.954 642.731,92.695 C 640.711,90.742 639.533,86.281 639.205,79.312 L 639.205,79.312 z M 626.938,79.312 C 626.792,77.364 626.718,75.274 626.718,73.043 C 626.718,60.768 629.085,52.637 633.82,48.645 C 638.554,44.655 648.073,42.66 662.376,42.66 C 675.568,42.66 684.431,44.316 688.963,47.629 C 693.797,51.169 696.217,58.285 696.217,68.978 L 696.217,74.963 L 639.109,74.963 C 639.109,76.51 639.141,77.961 639.206,79.317 L 626.938,79.312 L 626.938,79.312 z M 639.108,67.734 L 683.827,67.734 C 683.525,59.526 682.166,54.442 679.749,52.486 C 677.432,50.754 671.64,49.887 662.376,49.887 C 652.201,49.887 645.756,51.168 643.037,53.727 C 640.922,55.611 639.612,60.278 639.108,67.734 L 639.108,67.734 z M 756.492,43.336 L 725.824,43.336 L 725.824,28.992 L 713.888,28.992 L 713.888,43.336 L 703.315,43.336 L 703.315,50.564 L 713.888,50.564 L 713.888,85.466 C 713.888,92.469 715.4,97.214 718.42,99.698 C 721.443,102.108 727.537,103.31 736.701,103.31 C 744.758,103.31 750.55,101.918 754.074,99.132 C 757.701,96.346 759.514,91.979 759.514,86.03 L 759.514,81.625 L 748.182,81.625 L 748.182,86.03 C 748.182,89.569 747.731,91.941 746.823,93.145 C 745.311,95.103 742.039,96.082 737.003,96.082 C 732.57,96.082 729.603,95.556 728.088,94.501 C 726.579,93.446 725.823,91.338 725.823,88.176 L 725.823,50.564 L 756.491,50.564 L 756.491,43.336 L 756.492,43.336 z M 146.544,23.766 C 146.544,23.766 105.444,-11.852 49.586,4.12 C 49.586,4.12 3.684,14.816 0.009,62.792 C 0.009,62.792 -1.479,99.214 34.355,125.199 L 8.158,135.422 L 38.295,128.607 C 38.295,128.607 67.363,150.387 109.057,149.321 C 150.751,148.254 177.213,120.725 181.155,101.345 C 181.155,101.345 167.318,141.972 108.051,142.506 C 108.051,142.506 73.83,140.367 55.601,125.542 L 180.087,97.138 L 90.746,13.276 L 64.757,104.486 L 97.028,47.353 L 133.447,86.912 L 49.053,120.456 C 49.053,120.456 14.708,95.806 17.048,60.717 C 19.549,23.22 56.196,6.46 77.648,5.394 C 77.648,5.394 97.552,4.082 112.526,8.832 C 112.526,8.832 124.427,12.576 138.562,19.223 L 146.544,23.766 L 146.544,23.766 z"
   id="path8"
   style="fill:#c00012;fill-rule:evenodd" />
	</g>
</svg>