<?xml version="1.0" encoding="UTF-8" standalone="no"?>
<!-- Created with Inkscape (http://www.inkscape.org/) -->

<svg
   xmlns:dc="http://purl.org/dc/elements/1.1/"
   xmlns:cc="http://creativecommons.org/ns#"
   xmlns:rdf="http://www.w3.org/1999/02/22-rdf-syntax-ns#"
   xmlns:svg="http://www.w3.org/2000/svg"
   xmlns="http://www.w3.org/2000/svg"
   version="1.0"
   width="544.03101"
   height="108.125"
   viewBox="-44.009 -11.562 544.031 108.125"
   id="svg2"
   xml:space="preserve"><metadata
   id="metadata48"><rdf:RDF><cc:Work
       rdf:about=""><dc:format>image/svg+xml</dc:format><dc:type
         rdf:resource="http://purl.org/dc/dcmitype/StillImage" /><dc:title></dc:title></cc:Work></rdf:RDF></metadata><defs
   id="defs46" />
<rect
   width="544.03101"
   height="108.125"
   x="-44.008999"
   y="-11.562"
   id="rect3"
   style="fill:none" />
<g
   id="g5">
	<path
   d="m 393.162,61.649 c -1.578,-0.203 -3.054,-0.414 -4.4,-0.632 5.605,13.279 18.752,22.602 34.076,22.602 15.326,0 28.474,-9.322 34.078,-22.602 -1.346,0.218 -2.821,0.429 -4.4,0.632 -5.486,10.833 -16.699,18.276 -29.678,18.276 -12.977,0.001 -24.189,-7.443 -29.676,-18.276"
   id="path213"
   style="fill:#2250a9" />
	<path
   d="m 374.751,34.963 c 0,0 29.575,-1.472 48.087,-1.472 18.607,0 48.096,1.431 48.096,1.431 v -3.311 c 0,0 -11.063,-5.845 -48.094,-5.845 -37.027,0 -48.089,5.886 -48.089,5.886 v 3.311"
   id="path215"
   style="fill:#2250a9" />
	<path
   d="m 374.751,50.037 c 0,0 29.575,1.471 48.087,1.471 18.607,0 48.09,-1.471 48.09,-1.471 v 3.311 c 0,0 -11.058,5.888 -48.088,5.888 -37.027,0 -48.089,-5.888 -48.089,-5.888 v -3.311"
   id="path217"
   style="fill:#2250a9" />
	<path
   d="m 356.244,44.248 c 0,0 29.561,2.389 66.594,2.389 37.036,0 66.596,-2.389 66.596,-2.389 v -3.31 c 0,0 -29.56,-2.389 -66.596,-2.389 -37.033,0 -66.594,2.389 -66.594,2.389 v 3.31"
   id="path219"
   style="fill:#2250a9" />
	<path
   d="m 393.162,23.351 c -1.578,0.203 -3.054,0.414 -4.4,0.632 5.605,-13.28 18.752,-22.603 34.078,-22.603 15.324,0 28.472,9.323 34.076,22.603 -1.346,-0.218 -2.821,-0.429 -4.4,-0.632 C 447.03,12.518 435.817,5.075 422.84,5.075 c -12.979,0 -24.191,7.442 -29.678,18.276"
   id="path221"
   style="fill:#2250a9" />
</g>
<g
   id="g12">
	<path
   d="m -2.417,53.315 -3.294,-9.447 h -12.935 l -3.294,9.447 h -4.263 l 11.918,-32.896 h 4.263 L 1.846,53.315 h -4.263 z m -9.738,-27.711 -5.232,14.631 h 10.416 l -5.184,-14.631 z"
   id="path14"
   style="fill:#2250a9" />
	<path
   d="m 19.527,53.315 v -4.554 c -2.568,3.536 -5.426,5.232 -8.721,5.232 -3.827,0 -5.862,-2.132 -5.862,-6.153 V 31.369 h 3.633 v 15.552 c 0,2.713 0.775,3.827 2.616,3.827 2.326,0 5.813,-2.471 8.333,-5.959 v -13.42 h 3.682 v 21.946 h -3.681 z"
   id="path16"
   style="fill:#2250a9" />
	<path
   d="m 43.99,34.421 c 0.872,1.308 1.308,2.761 1.308,4.554 0,4.458 -3.924,8.285 -8.527,8.285 -0.291,0 -0.727,-0.049 -1.356,-0.097 -0.145,0 -0.387,-0.049 -0.727,-0.049 -2.035,1.695 -2.858,2.665 -2.858,3.294 0,0.582 0.484,0.775 1.841,0.775 h 8.188 c 4.07,0 5.911,1.599 5.911,5.136 0,5.135 -5.281,9.253 -11.87,9.253 -4.602,0 -8.575,-2.422 -8.575,-5.28 0,-0.63 0.242,-1.405 0.678,-2.277 0.63,-1.211 1.259,-2.034 2.907,-3.778 -2.229,-0.63 -3.149,-1.356 -3.149,-2.616 0,-1.405 1.356,-3.053 4.312,-5.475 -2.761,-1.502 -4.215,-3.924 -4.215,-6.977 0,-4.941 3.634,-8.381 8.769,-8.381 1.599,0 2.519,0.194 4.651,0.92 h 3.343 l 3.973,-0.339 v 3.052 H 43.99 z M 41.858,54.526 H 33.67 l -0.727,1.114 c -1.405,2.181 -1.841,3.053 -1.841,3.876 0,1.647 2.18,2.81 5.135,2.81 4.457,0 8.478,-2.616 8.478,-5.571 10e-4,-1.502 -0.919,-2.229 -2.857,-2.229 z M 36.384,33.549 c -2.665,0 -4.845,2.471 -4.845,5.474 0,3.004 2.18,5.475 4.893,5.475 2.761,0 4.893,-2.374 4.893,-5.475 0,-3.051 -2.18,-5.474 -4.941,-5.474 z"
   id="path18"
   style="fill:#2250a9" />
	<path
   d="m 59.345,53.945 c -0.92,0 -1.938,-0.097 -3.052,-0.291 -2.083,-0.388 -3.003,-0.727 -5.184,-1.841 l 1.502,-3.052 c 0.727,0.388 1.259,0.678 1.647,0.872 1.55,0.727 3.488,1.211 5.039,1.211 2.229,0 3.875,-1.211 3.875,-2.907 0,-0.532 -0.194,-1.162 -0.436,-1.502 -0.872,-1.259 -1.889,-1.889 -5.813,-3.487 -4.263,-1.793 -5.717,-3.295 -5.717,-5.959 0,-3.827 3.198,-6.201 8.333,-6.201 0.92,0 1.89,0.097 2.81,0.242 1.647,0.339 2.422,0.63 4.263,1.647 l -1.792,2.955 c -1.405,-0.872 -2.035,-1.163 -3.149,-1.453 -0.872,-0.243 -1.696,-0.388 -2.52,-0.388 -2.471,0 -4.069,1.114 -4.069,2.761 0,0.533 0.194,1.018 0.533,1.356 0.872,0.872 1.454,1.211 5.426,2.858 4.651,1.94 5.959,3.441 5.959,6.881 0,3.924 -2.858,6.298 -7.655,6.298 z"
   id="path20"
   style="fill:#2250a9" />
	<path
   d="m 77.317,53.945 c -1.26,0 -3.246,-0.194 -4.409,-0.484 -0.775,-0.146 -1.211,-0.291 -2.229,-0.775 V 17.998 h 3.633 V 32.29 c 1.163,-0.582 1.647,-0.775 2.52,-1.018 1.114,-0.291 2.761,-0.484 4.118,-0.484 5.523,0 9.205,4.215 9.205,10.562 0.001,7.654 -5.038,12.595 -12.838,12.595 z M 79.74,34.228 c -2.035,0 -3.634,0.533 -5.426,1.744 v 14.001 c 1.018,0.484 1.89,0.678 3.198,0.678 0.63,0 1.259,-0.097 1.889,-0.193 1.26,-0.291 2.471,-0.775 3.488,-1.55 2.422,-1.696 3.294,-3.73 3.294,-7.413 0,-4.555 -2.374,-7.267 -6.443,-7.267 z"
   id="path22"
   style="fill:#2250a9" />
	<path
   d="m 108.563,53.315 v -4.554 c -2.568,3.536 -5.426,5.232 -8.721,5.232 -3.827,0 -5.862,-2.132 -5.862,-6.153 V 31.369 h 3.633 v 15.552 c 0,2.713 0.775,3.827 2.616,3.827 2.326,0 5.813,-2.471 8.333,-5.959 v -13.42 h 3.682 v 21.946 h -3.681 z"
   id="path24"
   style="fill:#2250a9" />
	<path
   d="m 128.521,35.342 c -0.727,-0.63 -1.114,-0.872 -1.55,-0.872 -1.356,0 -3.101,1.986 -5.184,5.765 v 13.081 h -3.633 V 31.369 h 3.633 v 3.973 c 2.713,-3.488 4.07,-4.554 5.717,-4.554 0.824,0 1.841,0.533 2.81,1.502 l -1.793,3.052 z"
   id="path26"
   style="fill:#2250a9" />
	<path
   d="m 148.092,34.421 c 0.872,1.308 1.308,2.761 1.308,4.554 0,4.458 -3.924,8.285 -8.527,8.285 -0.291,0 -0.727,-0.049 -1.356,-0.097 -0.145,0 -0.388,-0.049 -0.727,-0.049 -2.035,1.695 -2.858,2.665 -2.858,3.294 0,0.582 0.484,0.775 1.841,0.775 h 8.188 c 4.07,0 5.911,1.599 5.911,5.136 0,5.135 -5.281,9.253 -11.87,9.253 -4.602,0 -8.575,-2.422 -8.575,-5.28 0,-0.63 0.242,-1.405 0.678,-2.277 0.63,-1.211 1.259,-2.034 2.907,-3.778 -2.229,-0.63 -3.149,-1.356 -3.149,-2.616 0,-1.405 1.356,-3.053 4.312,-5.475 -2.761,-1.502 -4.215,-3.924 -4.215,-6.977 0,-4.941 3.634,-8.381 8.769,-8.381 1.599,0 2.519,0.194 4.651,0.92 h 3.343 l 3.973,-0.339 v 3.052 h -4.604 z m -2.132,20.105 h -8.188 l -0.727,1.114 c -1.405,2.181 -1.841,3.053 -1.841,3.876 0,1.647 2.18,2.81 5.135,2.81 4.457,0 8.478,-2.616 8.478,-5.571 0.001,-1.502 -0.919,-2.229 -2.857,-2.229 z m -5.474,-20.977 c -2.665,0 -4.845,2.471 -4.845,5.474 0,3.004 2.18,5.475 4.893,5.475 2.761,0 4.893,-2.374 4.893,-5.475 0,-3.051 -2.18,-5.474 -4.941,-5.474 z"
   id="path28"
   style="fill:#2250a9" />
	<path
   d="m 187.379,53.315 -3.294,-9.447 H 171.15 l -3.294,9.447 h -4.263 L 175.51,20.42 h 4.263 l 11.869,32.896 h -4.263 z m -9.738,-27.711 -5.232,14.631 h 10.416 l -5.184,-14.631 z"
   id="path30"
   style="fill:#2250a9" />
	<path
   d="m 195.806,26.088 c -1.308,0 -2.374,-1.066 -2.374,-2.374 0,-1.308 1.066,-2.374 2.374,-2.374 1.308,0 2.374,1.065 2.374,2.374 0,1.309 -1.066,2.374 -2.374,2.374 z m -1.841,27.227 V 31.369 h 3.633 v 21.946 h -3.633 z"
   id="path32"
   style="fill:#2250a9" />
	<path
   d="m 214.069,35.342 c -0.727,-0.63 -1.114,-0.872 -1.551,-0.872 -1.356,0 -3.101,1.986 -5.184,5.765 V 53.316 H 203.7 V 31.369 h 3.634 v 3.973 c 2.713,-3.488 4.069,-4.554 5.717,-4.554 0.823,0 1.841,0.533 2.81,1.502 l -1.792,3.052 z"
   id="path34"
   style="fill:#2250a9" />
	<path
   d="m 240.035,53.945 h -2.955 l -4.942,-13.71 -0.339,-1.211 -0.291,1.211 -5.184,13.71 h -3.052 l -7.315,-22.576 h 3.973 l 5.28,17.489 0.049,0.63 0.048,-0.63 4.942,-13.662 -1.454,-3.827 h 3.828 l 5.813,17.44 0.048,0.679 0.049,-0.679 5.475,-17.44 h 3.633 l -7.606,22.576 z"
   id="path36"
   style="fill:#2250a9" />
	<path
   d="m 265.419,53.945 c -3.004,-0.194 -4.069,-0.969 -4.264,-3.052 -1.114,0.969 -1.599,1.356 -2.325,1.743 -1.356,0.775 -3.101,1.26 -4.65,1.26 -3.537,0 -5.862,-2.276 -5.862,-5.765 0,-3.197 1.695,-5.329 4.893,-6.104 l 7.606,-1.792 v -3.973 c 0,-1.792 -1.356,-2.713 -4.166,-2.713 -2.277,0 -3.343,0.63 -3.343,1.889 0,0.242 0.048,0.436 0.193,0.824 l -3.682,0.775 c -0.339,-0.581 -0.388,-0.823 -0.388,-1.356 0,-2.907 3.197,-4.893 7.896,-4.893 4.409,0 7.17,2.083 7.17,5.475 v 11.87 1.599 c 0.098,0.581 0.679,0.969 1.793,1.163 l -0.871,3.05 z m -4.603,-10.658 -8.235,2.132 c -0.533,1.017 -0.63,1.502 -0.63,2.374 0,1.743 1.162,2.857 2.955,2.857 1.646,0 2.762,-0.532 5.91,-2.81 v -4.553 z"
   id="path38"
   style="fill:#2250a9" />
	<path
   d="m 277.094,54.526 c -1.018,2.713 -1.841,4.506 -3.053,6.443 -0.872,1.405 -1.501,2.326 -3.294,4.603 l -2.907,-2.229 c 2.181,-2.422 2.907,-3.392 4.167,-5.668 1.211,-2.132 1.792,-3.439 3.052,-6.782 L 266.92,31.369 h 4.069 l 5.28,13.42 0.728,2.132 0.484,-2.132 4.505,-13.42 h 3.73 l -8.622,23.157 z"
   id="path40"
   style="fill:#2250a9" />
	<path
   d="m 295.018,53.945 c -0.921,0 -1.938,-0.097 -3.053,-0.291 -2.083,-0.388 -3.004,-0.727 -5.184,-1.841 l 1.502,-3.052 c 0.727,0.388 1.26,0.678 1.647,0.872 1.55,0.727 3.487,1.211 5.038,1.211 2.229,0 3.876,-1.211 3.876,-2.907 0,-0.532 -0.194,-1.162 -0.437,-1.502 -0.872,-1.259 -1.89,-1.889 -5.813,-3.487 -4.264,-1.793 -5.717,-3.295 -5.717,-5.959 0,-3.827 3.197,-6.201 8.333,-6.201 0.921,0 1.89,0.097 2.81,0.242 1.647,0.339 2.423,0.63 4.264,1.647 l -1.793,2.955 c -1.404,-0.872 -2.034,-1.163 -3.148,-1.453 -0.872,-0.243 -1.696,-0.388 -2.52,-0.388 -2.471,0 -4.069,1.114 -4.069,2.761 0,0.533 0.193,1.018 0.533,1.356 0.872,0.872 1.453,1.211 5.426,2.858 4.65,1.938 5.959,3.439 5.959,6.88 0,3.925 -2.859,6.299 -7.654,6.299 z"
   id="path42"
   style="fill:#2250a9" />
</g>
</svg>