<?xml version="1.0" encoding="UTF-8" standalone="no"?>
<!-- Created with Inkscape (http://www.inkscape.org/) -->
<svg
   xmlns:svg="http://www.w3.org/2000/svg"
   xmlns="http://www.w3.org/2000/svg"
   version="1.0"
   width="885.82672"
   height="156.61417"
   id="svg20392">
  <defs
     id="defs20394">
    <clipPath
       id="clp1313">
<path
   d="M 173.79,64.47 L 209.74,64.47 L 209.74,82.163 L 173.79,82.163 L 173.79,64.47 z "
   id="path13770" />

</clipPath>
    <clipPath
       id="clp1314">
<path
   d="M 173.79,64.47 L 209.74,64.47 L 209.74,82.163 L 173.79,82.163 L 173.79,64.47 z "
   id="path13778" />

</clipPath>
  </defs>
  <g
     transform="translate(-325.6806,-563.2444)"
     id="layer1">
    <g
       transform="translate(17.71586,17.66651)"
       id="g20647">
      <path
         d="M 530.75477,654.49995 C 532.28357,658.13343 534.16517,663.46012 539.10317,663.18976 L 539.10317,664.88296 L 516.52637,664.88296 L 516.52637,663.18976 C 524.05277,662.83696 523.93517,661.15552 520.64237,653.25351 L 517.34957,645.71619 L 494.18477,645.71619 C 493.00877,649.09095 489.36437,656.18151 489.36437,659.4622 C 489.36437,662.3902 492.42197,663.18976 495.36077,663.18976 L 495.36077,664.88296 L 477.84077,664.88296 L 477.84077,663.18976 C 483.36797,662.75464 485.60117,656.27559 489.24677,647.66811 L 507.23717,604.90152 L 509.11877,604.90152 L 530.75477,654.49995 z M 495.71357,642.07095 L 516.17357,642.07095 L 505.82717,617.68333 L 495.71357,642.07095"
         style="fill:#18366c;fill-rule:nonzero;stroke:none"
         id="path2502" />
      <path
         d="M 543.21917,624.91489 C 543.21917,622.92769 542.27837,620.72881 537.22277,620.72881 L 537.22277,619.42357 L 556.27157,619.42357 L 556.27157,620.72881 C 551.33237,620.72881 550.27517,622.92769 550.27517,624.91489 L 550.27517,647.98563 C 550.27517,658.69791 553.56677,662.75464 562.15037,662.75464 C 574.96757,662.75464 575.08517,653.06547 575.08517,646.55103 L 575.08517,624.91489 C 575.08517,622.92769 574.02677,620.72881 568.61837,620.72881 L 568.61837,619.42357 L 584.49207,619.42357 L 584.49207,620.72881 C 579.08357,620.72881 578.14277,622.92769 578.14277,624.91489 L 578.14277,646.55103 C 578.14277,654.30015 577.43717,660.34408 569.67677,664.05988 C 567.44237,665.08288 563.68037,665.8354 560.85677,665.8354 C 548.39357,665.8354 543.21917,660.0736 543.21917,647.50359 L 543.21917,624.91489"
         style="fill:#18366c;fill-rule:nonzero;stroke:none"
         id="path2504" />
      <path
         d="M 629.99967,633.0167 L 628.46967,633.0167 C 625.76607,625.7381 621.29727,621.21097 613.18407,621.21097 C 601.77807,621.21097 596.83887,630.81782 596.83887,642.83523 C 596.83887,653.40639 602.71887,663.02512 614.24247,663.02512 C 616.71207,663.02512 619.65087,662.61352 622.00287,661.51996 C 624.00207,660.55576 624.00207,660.14428 624.00207,658.14519 L 624.00207,647.91507 C 624.00207,644.01123 623.64927,641.74178 617.88807,641.74178 L 617.88807,640.43654 L 635.40807,640.43654 L 635.40807,641.74178 C 630.94047,641.81234 630.58767,644.01123 630.58767,647.91507 L 630.58767,660.96736 C 626.58927,663.2368 618.94527,665.8354 613.30167,665.8354 C 601.66047,665.8354 588.96087,658.42743 588.96087,642.29439 C 588.96087,628.6307 598.83807,618.45937 612.47847,618.45937 C 620.82687,618.45937 626.23647,623.53909 627.88287,618.45937 L 629.41047,618.45937 L 629.99967,633.0167"
         style="fill:#18366c;fill-rule:nonzero;stroke:none"
         id="path2506" />
      <path
         d="M 640.22967,651.07815 L 641.75727,651.07815 C 643.99167,657.46323 648.69567,663.2368 655.98567,663.2368 C 661.63047,663.2368 665.39247,658.42743 663.74607,653.06547 C 660.92487,643.45851 642.22767,643.04691 642.22767,629.92418 C 642.22767,623.12761 647.63727,618.45937 654.33927,618.45937 C 661.63047,618.45937 664.92207,623.53909 666.56847,618.45937 L 667.97967,618.45937 L 669.50847,633.08726 L 667.86207,633.08726 C 666.21567,626.7023 661.74807,621.28141 655.28007,621.28141 C 651.16407,621.28141 648.10767,623.53909 648.10767,627.86642 C 648.10767,631.85258 652.45887,634.66298 655.39767,636.45026 C 664.80447,642.08271 671.03727,645.03423 671.03727,653.27703 C 671.03727,659.45044 665.86287,665.8354 656.57367,665.8354 C 649.40127,665.8354 644.46207,660.82624 643.75647,665.8354 L 642.22767,665.8354 L 640.22967,651.07815"
         style="fill:#18366c;fill-rule:nonzero;stroke:none"
         id="path2508" />
      <path
         d="M 683.50167,624.91489 C 683.50167,622.92769 682.44327,620.72881 676.91607,620.72881 L 676.91607,619.42357 L 695.26047,619.42357 C 705.84327,619.42357 714.07407,622.23385 714.07407,631.0295 C 714.07407,636.7913 710.31087,639.7427 705.02007,640.91858 L 705.02007,641.04794 C 710.89887,642.15327 716.42607,645.78675 716.42607,652.38339 C 716.42607,660.62632 709.25247,664.88296 698.55327,664.88296 L 676.91607,664.88296 L 676.91607,663.57772 C 682.44327,663.57772 683.50167,661.37884 683.50167,659.39164 L 683.50167,624.91489 z M 690.43887,658.69791 C 690.43887,661.10848 691.14447,662.34316 696.08367,662.34316 C 703.25607,662.34316 708.54807,660.21484 708.54807,652.17171 C 708.54807,644.01123 700.43367,642.49431 693.96687,642.49431 L 690.43887,642.49431 L 690.43887,658.69791 z M 696.08367,639.7427 C 703.02087,639.7427 707.13687,636.7913 707.13687,631.22942 C 707.13687,626.02022 703.84407,623.19817 699.02367,622.30441 C 692.67327,621.89293 690.43887,621.76357 690.43887,624.16237 L 690.43887,639.7427 L 696.08367,639.7427"
         style="fill:#18366c;fill-rule:nonzero;stroke:none"
         id="path2510" />
      <path
         d="M 725.71527,624.91489 C 725.71527,622.92769 724.65687,620.72881 719.71887,620.72881 L 719.71887,619.42357 L 738.76767,619.42357 L 738.76767,620.72881 C 733.71207,620.72881 732.77007,622.92769 732.77007,624.91489 L 732.77007,647.98563 C 732.77007,658.69791 736.06287,662.75464 744.64647,662.75464 C 757.46377,662.75464 757.46377,653.06547 757.46377,646.55103 L 757.46377,624.91489 C 757.46377,622.92769 756.52417,620.72881 750.99697,620.72881 L 750.99697,619.42357 L 766.98817,619.42357 L 766.98817,620.72881 C 761.57977,620.72881 760.52137,622.92769 760.52137,624.91489 L 760.52137,646.55103 C 760.52137,654.30015 759.81577,660.34408 752.05537,664.05988 C 749.93847,665.08288 746.17527,665.8354 743.35407,665.8354 C 730.77207,665.8354 725.71527,660.0736 725.71527,647.50359 L 725.71527,624.91489"
         style="fill:#18366c;fill-rule:nonzero;stroke:none"
         id="path2512" />
      <path
         d="M 777.57097,624.91489 C 777.57097,622.92769 776.51257,620.72881 771.69217,620.72881 L 771.69217,619.42357 L 789.80017,619.42357 C 801.20737,619.42357 808.14457,623.40985 808.14457,631.4411 C 808.14457,638.7197 802.14817,642.08271 795.68017,642.97635 L 809.32057,659.73268 C 811.08457,661.99036 812.72977,663.36616 815.78737,663.57772 L 815.78737,664.88296 L 804.73417,664.88296 L 788.39017,643.72899 L 784.62697,643.87011 L 784.62697,659.39164 C 784.62697,661.37884 785.56777,663.57772 790.62337,663.57772 L 790.62337,664.88296 L 771.69217,664.88296 L 771.69217,663.57772 C 776.51257,663.57772 777.57097,661.37884 777.57097,659.39164 L 777.57097,624.91489 z M 784.62697,641.33018 C 794.50417,640.98914 800.61937,638.91962 800.61937,631.51166 C 800.61937,624.71509 795.79777,622.03405 789.68257,622.03405 C 785.21497,622.03405 784.62697,622.03405 784.62697,625.25594 L 784.62697,641.33018"
         style="fill:#18366c;fill-rule:nonzero;stroke:none"
         id="path2514" />
      <path
         d="M 856.82617,633.0167 L 855.29737,633.0167 C 852.71017,625.7381 848.12377,621.21097 840.01057,621.21097 C 828.60457,621.21097 823.66657,630.81782 823.66657,642.83523 C 823.66657,653.40639 829.54537,663.02512 841.06897,663.02512 C 843.65617,663.02512 846.47857,662.61352 848.82937,661.51996 C 850.82857,660.55576 850.82857,660.14428 850.82857,658.14519 L 850.82857,647.91507 C 850.82857,644.01123 850.47577,641.74178 844.83217,641.74178 L 844.83217,640.43654 L 862.23457,640.43654 L 862.23457,641.74178 C 857.88337,641.81234 857.53057,644.01123 857.53057,647.91507 L 857.53057,660.96736 C 853.53337,663.2368 845.77297,665.8354 840.24577,665.8354 C 828.48697,665.8354 815.78737,658.42743 815.78737,642.29439 C 815.78737,628.6307 825.66457,618.45937 839.30497,618.45937 C 847.77097,618.45937 853.06297,623.53909 854.82697,618.45937 L 856.23817,618.45937 L 856.82617,633.0167"
         style="fill:#18366c;fill-rule:nonzero;stroke:none"
         id="path2516" />
      <path
         d="M 927.26147,654.72339 C 928.90667,658.36863 930.78827,663.68356 935.72747,663.42496 L 935.72747,665.1064 L 913.15057,665.1064 L 913.15057,663.42496 C 920.67587,663.07216 920.55827,661.37884 917.14777,653.48871 L 913.97377,645.93963 L 890.80897,645.93963 C 889.63297,649.31439 885.98737,656.41671 885.98737,659.6974 C 885.98737,662.62528 888.92737,663.42496 891.98497,663.42496 L 891.98497,665.1064 L 874.46377,665.1064 L 874.46377,663.42496 C 879.87217,662.97808 882.22537,656.49903 885.86977,647.89155 L 903.86137,605.12496 L 905.62417,605.12496 L 927.26147,654.72339 z M 892.22017,642.30615 L 912.79777,642.30615 L 902.44897,617.90677 L 892.22017,642.30615"
         style="fill:#e56119;fill-rule:nonzero;stroke:none"
         id="path2518" />
      <path
         d="M 952.07147,659.61508 C 952.07147,661.60228 953.12987,663.80116 958.89227,663.80116 L 958.89227,665.1064 L 938.43107,665.1064 L 938.43107,663.80116 C 944.07587,663.80116 945.13427,661.60228 945.13427,659.61508 L 945.13427,625.1501 C 945.13427,623.15113 944.07587,620.95225 938.43107,620.95225 L 938.43107,619.64701 L 958.89227,619.64701 L 958.89227,620.95225 C 953.12987,620.95225 952.07147,623.15113 952.07147,625.1501 L 952.07147,659.61508"
         style="fill:#e56119;fill-rule:nonzero;stroke:none"
         id="path2520" />
      <path
         d="M 970.06307,625.1501 C 970.06307,623.15113 969.12227,620.95225 964.30067,620.95225 L 964.30067,619.64701 L 982.40987,619.64701 C 993.81587,619.64701 1000.6355,623.63317 1000.6355,631.66442 C 1000.6355,638.94314 994.63907,642.30615 988.17107,643.19979 L 1001.8115,659.956 C 1003.6931,662.22544 1005.2207,663.60124 1008.3971,663.80116 L 1008.3971,665.1064 L 997.34267,665.1064 L 980.99867,643.96419 L 977.11787,644.09355 L 977.11787,659.61508 C 977.11787,661.60228 978.17627,663.80116 983.11427,663.80116 L 983.11427,665.1064 L 964.30067,665.1064 L 964.30067,663.80116 C 969.12227,663.80116 970.06307,661.60228 970.06307,659.61508 L 970.06307,625.1501 z M 977.11787,641.55362 C 986.99507,641.21258 993.22787,639.15482 993.22787,631.73498 C 993.22787,624.93841 988.40627,622.25737 982.17467,622.25737 C 977.70587,622.25737 977.11787,622.25737 977.11787,625.49114 L 977.11787,641.55362"
         style="fill:#e56119;fill-rule:nonzero;stroke:none"
         id="path2522" />
      <path
         d="M 1015.5695,636.27386 C 1014.2759,632.91086 1012.0415,626.5847 1010.2775,623.56261 C 1009.2191,621.77533 1007.6915,621.16393 1005.6911,620.95225 L 1005.6911,619.64701 L 1022.6243,619.64701 L 1022.6243,620.95225 L 1021.5659,621.02281 C 1019.4491,621.30493 1018.1555,621.30493 1018.1555,623.77429 C 1018.1555,624.38581 1018.9787,626.45534 1019.0963,627.06674 L 1028.7383,652.12479 L 1036.0295,632.76986 C 1034.9711,629.81834 1033.9127,626.92574 1032.6191,624.11533 C 1031.3255,621.57541 1029.6803,620.95225 1026.8579,620.95225 L 1026.8579,619.64701 L 1045.2011,619.64701 L 1045.2011,620.95225 C 1043.3195,620.95225 1039.9103,620.95225 1039.9103,623.08057 C 1039.9103,624.11533 1040.4983,625.49114 1040.6159,625.97318 L 1050.8447,652.33635 L 1059.1943,629.81834 C 1060.3703,626.51414 1060.7231,623.56261 1060.1351,622.53961 C 1059.1943,621.09337 1057.3127,621.09337 1055.7839,620.95225 L 1055.7839,619.64701 L 1069.4243,619.64701 L 1069.4243,620.95225 C 1067.7779,621.09337 1066.2491,621.64597 1065.1907,622.88065 C 1064.4851,623.84485 1064.0147,624.86785 1063.6619,625.90262 L 1049.6699,666.0706 L 1048.7291,666.0706 L 1037.6759,636.81482 L 1026.9755,666.0706 L 1026.1523,666.0706 L 1015.5695,636.27386"
         style="fill:#e56119;fill-rule:nonzero;stroke:none"
         id="path2524" />
      <path
         d="M 1102.2312,657.07515 C 1103.5248,659.88556 1104.936,664.01284 1108.8156,663.80116 L 1108.8156,665.1064 L 1091.2956,665.1064 L 1091.2956,663.80116 C 1097.1756,663.53068 1097.058,662.22544 1094.4708,656.11095 L 1092.0012,650.27859 L 1074.0107,650.27859 C 1073.0687,652.88907 1070.2475,658.38039 1070.2475,660.92032 C 1070.2475,663.18976 1072.5995,663.80116 1074.9515,663.80116 L 1074.9515,665.1064 L 1061.3111,665.1064 L 1061.3111,663.80116 C 1065.6611,663.46012 1067.4251,658.45095 1070.2475,651.78375 L 1084.1231,618.69457 L 1085.5343,618.69457 L 1102.2312,657.07515 z M 1075.1867,647.45643 L 1091.0604,647.45643 L 1083.0647,628.58366 L 1075.1867,647.45643"
         style="fill:#e56119;fill-rule:nonzero;stroke:none"
         id="path2526" />
      <path
         d="M 1123.3968,641.28314 L 1132.8036,626.45534 C 1133.5104,625.2089 1134.5676,623.77429 1133.9808,622.25737 C 1133.628,621.43429 1133.0388,620.95225 1129.3944,620.95225 L 1129.3944,619.64701 L 1144.4448,619.64701 L 1144.4448,620.95225 C 1139.742,621.57541 1136.5668,626.38478 1134.45,629.4773 L 1124.808,644.30511 L 1124.808,659.61508 C 1124.808,661.60228 1125.8664,663.80116 1131.7452,663.80116 L 1131.7452,665.1064 L 1110.8148,665.1064 L 1110.8148,663.80116 C 1116.8124,663.80116 1117.7532,661.60228 1117.7532,659.61508 L 1117.7532,644.91663 L 1109.286,632.42882 C 1104.5832,625.6205 1102.584,621.09337 1097.646,620.95225 L 1097.646,619.64701 L 1116.93,619.64701 L 1116.93,620.95225 C 1113.2844,620.95225 1111.9908,621.43429 1111.9908,622.88065 C 1111.9908,624.32701 1112.814,625.5617 1113.6372,626.7257 L 1123.3968,641.28314"
         style="fill:#e56119;fill-rule:nonzero;stroke:none"
         id="path2528" />
      <path
         d="M 1145.1504,651.30159 L 1146.7968,651.30159 C 1148.9136,657.68655 1153.734,663.46012 1161.0252,663.46012 C 1166.5512,663.46012 1170.3144,658.65087 1168.7856,653.30055 C 1165.9644,643.68195 1147.1496,643.27035 1147.1496,630.15938 C 1147.1496,623.36281 1152.5592,618.69457 1159.3788,618.69457 C 1166.6688,618.69457 1169.9616,623.77429 1171.608,618.69457 L 1173.0192,618.69457 L 1174.548,633.3107 L 1172.784,633.3107 C 1171.2552,626.92574 1166.6688,621.50485 1160.3196,621.50485 C 1156.2048,621.50485 1153.1472,623.77429 1153.1472,628.1015 C 1153.1472,632.07602 1157.3796,634.89806 1160.3196,636.68546 C 1169.7264,642.30615 1176.0756,645.26931 1176.0756,653.50047 C 1176.0756,659.68564 1170.9024,666.0706 1161.4956,666.0706 C 1154.4396,666.0706 1149.5016,661.06144 1148.796,666.0706 L 1147.2672,666.0706 L 1145.1504,651.30159"
         style="fill:#e56119;fill-rule:nonzero;stroke:none"
         id="path2530" />
      <path
         d="M 121.28125,19.96875 C 88.121654,19.968751 61.1875,46.8947 61.1875,80.125 C 61.187501,113.36706 88.12165,140.3125 121.28125,140.3125 C 154.55855,140.31249 181.46875,113.36706 181.46875,80.125 C 181.46875,63.065803 174.34633,47.699763 162.9375,36.75 L 159.78125,42 C 169.49291,51.78239 175.46875,65.259379 175.46875,80.125 C 175.46875,110.01582 151.26575,134.25 121.28125,134.25 C 91.413254,134.24999 67.1875,110.01582 67.1875,80.125 C 67.1875,50.234189 91.41325,26 121.28125,26 C 135.46454,26 148.34884,31.433818 158,40.3125 L 161.9375,35.75 C 151.22858,25.941002 136.96744,19.96875 121.28125,19.96875 z "
         transform="translate(277.4306,544.2131)"
         style="fill:#18366c;fill-rule:nonzero;stroke:none"
         id="path2532" />
      <path
         d="M 171.71875,19.03125 L 48.25,120.625 L 85.875,120.625 L 106.8125,100.9375 C 106.8125,100.9375 113.27075,95.10291 129.96875,90.09375 L 112.09375,120.71875 L 145.03125,120.71875 L 156.3125,83.09375 L 156.4375,82.84375 C 160.7887,82.079472 166.5472,81.18076 171.25,80.875 L 171.25,75.59375 C 166.5472,75.523188 162.2007,75.50773 158.4375,75.53125 L 158.65625,75.25 L 175.59375,19.03125 L 171.71875,19.03125 z M 167.25,29.625 L 139.15625,76.15625 C 128.92614,76.83833 125.5,77.8125 125.5,77.8125 L 167.25,29.625 z "
         transform="translate(277.4306,544.2131)"
         style="fill:#e56119;fill-rule:nonzero;stroke:none"
         id="path2534" />
    </g>
  </g>
</svg>
