<?xml version="1.0"?>
<svg xmlns="http://www.w3.org/2000/svg" viewBox="0 0 188.10001 68.5" width="188.10001" height="68.5">
<g transform="translate(-356.71585,-63.390845)">
 <g style="fill:#153152" transform="translate(58.315846,23.090846)">
  <path d="m 316.8,97.2 a 25,25 0 0 1 -0.5,-2.9 12.2,12.2 0 0 1 -9,3.9 c -5.6,0 -8.9,-3.3 -8.9,-8.4 0,-4.8 2.5,-7.7 7.5,-8.8 6.6,-1.6 10.1,-1.1 10.1,-3.3 V 77 c 0,-1.7 -1.3,-2.5 -3.7,-2.5 -2.7,0 -4.2,1.1 -4.6,3.2 h -8.6 c 0.9,-6.5 5.3,-9.5 13.4,-9.5 5,0 8.5,1.2 10.4,3.7 1.8,2.3 1.9,5.2 1.9,9.1 v 10.8 c 0,2.5 0.4,4 1.4,4.5 v 1.1 h -9.4 z m -6.5,-11.7 c -2.1,0.6 -3.1,1.4 -3.1,3.2 a 3.2,3.2 0 0 0 3.4,3.4 c 3.2,0 5.4,-2 5.4,-5 v -3.3 c -1.5,1 -3.6,1.1 -5.7,1.7" />
  <path d="m 354.9,97.2 h -9.1 v -3.9 a 9.76,9.76 0 0 1 -8.6,4.6 c -6.3,0 -9.5,-3.2 -9.5,-9.6 V 68.7 h 9.3 v 15.9 c 0,4.2 0.8,6.2 3.9,6.2 3.4,0 4.7,-2.2 4.7,-6.9 V 68.7 h 9.3 z" />
  <path d="m 357.3,68.7 h 8.9 v 5 c 2,-3.9 4.8,-5.6 9.4,-5.7 v 9.2 A 19.53,19.53 0 0 0 373.3,77 c -2.8,0 -4.7,0.8 -5.8,2.6 -0.9,1.4 -1,4 -1,7.9 V 97 h -9.3 V 68.7 Z" />
  <rect height="28.4" width="9.3000002" y="68.699997" x="377.5" />
  <path d="m 399.7,99.8 c 0.5,1.7 1.9,2.3 4.3,2.3 4.3,0 5.5,-1.9 5.5,-6.2 v -3 c -1.87282,3.025713 -5.24661,4.78929 -8.8,4.6 -6.8,0 -11.9,-5.7 -11.9,-14.6 0,-8.9 5,-14.9 12,-14.9 3.60265,-0.167389 7.02542,1.582027 9,4.6 v -3.8 h 8.7 v 23.5 c 0,4.9 -0.1,8.5 -1.7,11.1 -2.2,3.4 -6.5,5.4 -12.5,5.4 -8.6,0 -13,-2.8 -13.9,-9 3.01659,0 6.52808,0 9.3,0 z m 4,-9.7 c 3.5,0 5.6,-2.6 5.6,-7.3 0,-5 -1.9,-7.6 -5.4,-7.6 -3.5,0 -5.5,2.6 -5.5,7.6 0,4.6 2.1,7.3 5.3,7.3" />
  <path d="m 421.1,68.7 h 9.1 v 3.9 a 9.31,9.31 0 0 1 8.6,-4.6 c 6.9,0 9.5,3.4 9.5,10.7 V 97.2 H 439 V 82.9 c 0,-5.2 -0.2,-7.8 -3.9,-7.8 -3.4,0 -4.7,2.2 -4.7,6.9 v 15.2 h -9.3 z" />
  <path d="m 462.4,108 c -1.8,0.8 -4.3,0.8 -7.4,0.8 h -2.5 v -7.4 h 1.8 c 3.1,0 4.5,-0.5 4.5,-2.9 a 15,15 0 0 0 -1.4,-4.6 l -9.6,-25.2 h 10 l 5.4,19.4 5.5,-19.4 h 9.9 l -11.4,31.6 c -1.5,4.1 -2.6,6.7 -4.8,7.7" />
  <path style="fill:#AD1923" d="m 387.3,61.4 a 5.1,5.1 0 1 1 -5.1,-5.1 5,5 0 0 1 5.1,5.1" />
  <path d="m 414.3,40.3 a 5.26,5.26 0 0 1 3.4,1.1 l -0.7,1 a 4.14,4.14 0 0 0 -2.6,-0.9 3.38,3.38 0 0 0 -3.5,3.6 3.47,3.47 0 0 0 3.5,3.7 4,4 0 0 0 2.7,-1.2 v -1.4 h -2.5 v -1.1 h 3.7 v 4.7 h -1.2 v -1 0 a 4.06,4.06 0 0 1 -2.9,1.1 4.8002604,4.8002604 0 0 1 0.1,-9.6" />
  <path d="m 419.7,40.5 h 1.3 v 6.1 a 2.4,2.4 0 0 0 4.8,0 v -6 h 1.3 v 6.1 a 3.71,3.71 0 0 1 -7.4,0 z" />
  <polygon points="430.5,45.7 430.5,48.7 434.9,48.7 434.9,49.8 429.2,49.8 429.2,40.5 434.7,40.5 434.7,41.6 430.5,41.6 430.5,44.5 433.9,44.5 433.9,45.7 " />
  <path d="m 437.1,40.5 h 2.9 a 6.25,6.25 0 0 1 1.8,0.2 2.72,2.72 0 0 1 -0.1,5 v 0 a 3,3 0 0 1 0.3,0.4 l 2,3.6 h -1.5 l -2,-3.7 h -2 v 3.7 h -1.4 z m 3.2,4.5 a 1.63,1.63 0 0 0 1.7,-1.7 1.49,1.49 0 0 0 -0.7,-1.4 3.47,3.47 0 0 0 -1.3,-0.2 h -1.5 V 45 Z" />
  <path d="m 445.6,40.5 h 1.3 l 4.2,6.1 c 0.3,0.5 0.8,1.4 0.8,1.4 v 0 a 13.8,13.8 0 0 1 -0.1,-1.4 v -6.1 h 1.3 v 9.4 h -1.3 l -4.2,-6.1 c -0.3,-0.5 -0.8,-1.4 -0.8,-1.4 v 0 a 13.8,13.8 0 0 1 0.1,1.4 v 6.1 h -1.3 z" />
  <path d="m 455.7,47.8 a 3.74,3.74 0 0 0 2.4,1 1.42,1.42 0 0 0 1.6,-1.4 c 0,-2 -4.5,-1.6 -4.5,-4.5 a 2.75,2.75 0 0 1 3,-2.6 4.26,4.26 0 0 1 2.7,0.9 l -0.6,1.1 a 3.49,3.49 0 0 0 -2.1,-0.8 1.52,1.52 0 0 0 -1.7,1.4 c 0,1.9 4.5,1.4 4.5,4.5 a 2.7,2.7 0 0 1 -3,2.6 4.39,4.39 0 0 1 -3.1,-1.2 z" />
  <polygon points="464.2,45.7 464.2,48.7 468.6,48.7 468.6,49.8 462.9,49.8 462.9,40.5 468.3,40.5 468.3,41.6 464.2,41.6 464.2,44.5 467.6,44.5 467.6,45.7 " />
  <path d="m 472.5,45.9 -3.1,-5.4 h 1.5 l 1.7,3.1 a 12,12 0 0 1 0.6,1.2 v 0 l 0.6,-1.2 1.7,-3.1 h 1.5 l -3.1,5.4 v 4 h -1.3 v -4 z" />
  <polygon points="477.9,42.9 478.5,40.3 479.8,40.3 478.9,42.9 " />
  <path d="m 481.2,47.8 a 3.74,3.74 0 0 0 2.4,1 1.42,1.42 0 0 0 1.6,-1.4 c 0,-2 -4.5,-1.6 -4.5,-4.5 a 2.75,2.75 0 0 1 3,-2.6 4.26,4.26 0 0 1 2.7,0.9 l -0.6,1.1 a 3.49,3.49 0 0 0 -2.1,-0.8 1.52,1.52 0 0 0 -1.7,1.4 c 0,1.9 4.5,1.4 4.5,4.5 a 2.7,2.7 0 0 1 -3,2.6 4.39,4.39 0 0 1 -3.1,-1.2 z" />
  <path d="m 439,60.2 h -3.5 l -0.9,2.7 h -1.4 l 3.4,-9.4 h 1.4 l 3.4,9.4 H 440 Z m -1.7,-5.4 a 7.91,7.91 0 0 1 -0.4,1.3 l -1,3 h 2.8 l -1,-3 a 12.76,12.76 0 0 1 -0.4,-1.3 z" />
  <rect height="9.3999996" width="1.3" y="53.5" x="442.70001" />
  <path d="m 446.6,53.5 h 2.9 a 6.25,6.25 0 0 1 1.8,0.2 2.72,2.72 0 0 1 -0.1,5 v 0 a 3,3 0 0 1 0.3,0.4 l 2,3.6 H 452 L 450,59 h -2 v 3.7 h -1.3 v -9.2 z m 3.2,4.5 a 1.63,1.63 0 0 0 1.7,-1.7 1.49,1.49 0 0 0 -0.7,-1.4 3.47,3.47 0 0 0 -1.3,-0.2 H 448 V 58 Z" />
  <polygon points="456.4,53.5 456.4,61.7 460.6,61.7 460.6,62.9 455.1,62.9 455.1,53.5 " />
  <rect height="9.3999996" width="1.3" y="53.5" x="462.10001" />
  <path d="m 466,53.5 h 1.3 l 4.2,6.1 c 0.3,0.5 0.8,1.4 0.8,1.4 v 0 a 13.8,13.8 0 0 1 -0.1,-1.4 v -6.1 h 1.3 v 9.4 h -1.3 L 468,56.8 c -0.3,-0.5 -0.8,-1.4 -0.8,-1.4 v 0 a 13.8,13.8 0 0 1 0.1,1.4 v 6.1 H 466 Z" />
  <polygon points="477.3,58.7 477.3,61.7 481.7,61.7 481.2,62.9 476,62.9 476,53.5 481.5,53.5 481.5,54.6 477.3,54.6 477.3,57.6 480.7,57.6 480.7,58.7 " />
 </g>
</g>
</svg>