<svg xmlns="http://www.w3.org/2000/svg" width="104" height="63"><path fill="#002a59" d="M16.47285621 62.35881397h6.524l-8.523-22.434h-5.782l-8.255 22.434h6.328l.912-3.056h7.852Zm-7.424-7.658 2.485-8.327 2.573 8.327Z"/><path fill="#002a59" d="M98.84945621 62.35691397h-4.903l-.058-1.402c-1.245 1.017-2.94 1.718-4.727 1.718-4.582 0-7.988-4.174-7.988-8.878 0-4.707 3.406-8.881 7.988-8.881 1.787 0 3.482.702 4.727 1.722l.058-1.341h4.903Zm-12.576-8.562c0 2.21 1.636 3.886 3.856 3.886 2.217 0 3.854-1.676 3.854-3.886 0-2.213-1.637-3.888-3.854-3.888-2.22 0-3.856 1.675-3.856 3.888"/><path fill="#002a59" d="M60.42275621 62.67381397c-4.734 0-8.908-3.691-8.908-8.879 0-5.186 4.174-8.881 8.908-8.881 4.733 0 8.908 3.695 8.908 8.881 0 5.188-4.175 8.879-8.908 8.879m0-5.055c2.281 0 3.79-1.768 3.79-3.824 0-2.055-1.509-3.823-3.79-3.823-2.282 0-3.792 1.768-3.792 3.823 0 2.056 1.51 3.824 3.792 3.824"/><path fill="#002a59" d="M28.45645621 45.29451397v9.813c0 1.15.275 1.883.794 2.378.419.399 1.003.631 1.684.631.869 0 1.589-.306 2.071-.863.516-.594.757-1.393.757-2.828v-9.131h5.121v17.064h-4.974l-.114-1.55c-1.084 1.11-2.555 1.825-4.204 1.825-1.721 0-3.253-.604-4.38-1.762-1.158-1.197-1.871-2.882-1.871-5.549v-10.028Z"/><path fill="#002a59" d="M46.13135621 45.29451397v2.857c.918-1.865 2.734-3.092 4.781-3.092v4.968c-1.442.096-2.525.488-3.26 1.24-.79.793-1.174 1.956-1.174 3.84v7.251h-5.118v-17.064Z"/><path fill="#002a59" d="M75.78975621 45.29451397v2.857c.921-1.865 2.734-3.092 4.787-3.092v4.968c-1.447.096-2.528.488-3.262 1.24-.79.793-1.177 1.956-1.177 3.84v7.251h-5.116v-17.064Z"/><path fill="#002a59" d="M92.07465621 14.65481397c2.289.415 4.482 1.506 6.247 3.271 4.62 4.62 4.62 12.137 0 16.758-4.619 4.62-12.138 4.62-16.758 0-4.621-4.621-4.621-12.138 0-16.758 2.195-2.193 2.195-5.764 0-7.959-2.195-2.195-5.764-2.195-7.958 0-2.195 2.195-2.195 5.766 0 7.959.97.974 2.215 1.515 3.491 1.624.325-.625.701-1.228 1.125-1.809-1.187.199-2.446-.158-3.362-1.071-1.5-1.501-1.5-3.946 0-5.447 1.502-1.502 3.948-1.502 5.446 0 1.503 1.501 1.503 3.946 0 5.447-5.313 5.313-5.313 13.959 0 19.269 5.313 5.315 13.959 5.315 19.275 0 5.31-5.31 5.31-13.956 0-19.269-2.122-2.122-4.772-3.393-7.531-3.821.046.599.056 1.203.025 1.806m-20.983-7.201c3.58-3.581 9.406-3.581 12.986 0 3.579 3.581 3.579 9.404 0 12.986-3.234 3.234-3.234 8.496 0 11.73 3.233 3.234 8.497 3.234 11.732 0 3.23-3.234 3.23-8.496 0-11.73-1.229-1.228-2.747-1.988-4.338-2.284-.173.576-.383 1.143-.629 1.697 1.359.188 2.668.803 3.709 1.843 2.538 2.541 2.538 6.676 0 9.218-2.542 2.539-6.675 2.539-9.217 0-2.542-2.542-2.542-6.677 0-9.218 4.273-4.272 4.273-11.227 0-15.498-4.272-4.276-11.228-4.276-15.5 0-4.275 4.271-4.275 11.226 0 15.498 1.612 1.612 3.601 2.616 5.69 3.011.065-.587.163-1.174.3-1.751-1.737-.335-3.393-1.173-4.733-2.516-3.579-3.582-3.579-9.405 0-12.986m4.362 18.142c-2.29-.415-4.482-1.503-6.249-3.272-4.618-4.619-4.618-12.136 0-16.757 4.622-4.619 12.139-4.619 16.758 0 4.621 4.621 4.621 12.138 0 16.757-2.194 2.194-2.194 5.766 0 7.96 2.195 2.195 5.766 2.195 7.959 0 2.196-2.194 2.196-5.766 0-7.96-.972-.973-2.215-1.513-3.49-1.623-.327.624-.701 1.228-1.125 1.809 1.185-.199 2.447.159 3.359 1.071 1.503 1.502 1.503 3.946 0 5.448-1.502 1.501-3.946 1.501-5.447 0-1.501-1.502-1.501-3.946 0-5.448 5.314-5.313 5.314-13.956 0-19.269-5.312-5.314-13.958-5.314-19.269 0-5.315 5.313-5.315 13.956 0 19.269 2.12 2.121 4.77 3.393 7.529 3.822-.047-.601-.055-1.204-.025-1.807m1.232-5.198c-1.359-.188-2.668-.802-3.71-1.844-2.54-2.542-2.54-6.674 0-9.216 2.541-2.539 6.675-2.539 9.218 0 2.539 2.542 2.539 6.674 0 9.216-4.274 4.273-4.274 11.228 0 15.5 4.272 4.275 11.224 4.275 15.499 0 4.274-4.272 4.274-11.227 0-15.5-1.612-1.609-3.601-2.613-5.688-3.01-.065.586-.165 1.173-.301 1.751 1.735.337 3.392 1.174 4.732 2.516 3.58 3.58 3.58 9.406 0 12.987-3.58 3.582-9.405 3.582-12.986 0-3.583-3.581-3.583-9.407 0-12.987 3.232-3.233 3.232-8.495 0-11.728-3.233-3.235-8.496-3.235-11.731 0-3.234 3.233-3.234 8.495 0 11.728 1.228 1.229 2.746 1.988 4.337 2.285.173-.576.383-1.144.63-1.698"/></svg>
