<?xml version="1.0" encoding="UTF-8" standalone="no"?>
<svg
   xmlns:dc="http://purl.org/dc/elements/1.1/"
   xmlns:cc="http://creativecommons.org/ns#"
   xmlns:rdf="http://www.w3.org/1999/02/22-rdf-syntax-ns#"
   xmlns:svg="http://www.w3.org/2000/svg"
   xmlns="http://www.w3.org/2000/svg"
   xmlns:sodipodi="http://sodipodi.sourceforge.net/DTD/sodipodi-0.dtd"
   xmlns:inkscape="http://www.inkscape.org/namespaces/inkscape"
   width="100"
   height="10"
   viewBox="0 0 80 8"
   version="1.1"
   id="svg2"
   sodipodi:version="0.32"
   inkscape:version="0.92.4 (5da689c313, 2019-01-14)"
   sodipodi:docname="Deqen,_China_en_chino.svg">
  <title
     id="title830">Avianca Holdings logo</title>
  <metadata
     id="metadata59">
    <rdf:RDF>
      <cc:Work
         rdf:about="">
        <dc:format>image/svg+xml</dc:format>
        <dc:type
           rdf:resource="http://purl.org/dc/dcmitype/StillImage" />
        <dc:title>Avianca Holdings logo</dc:title>
        <cc:license
           rdf:resource="http://scripts.sil.org/OFL" />
        <dc:date>29 abr 2020</dc:date>
        <dc:creator>
          <cc:Agent>
            <dc:title>EEIM</dc:title>
          </cc:Agent>
        </dc:creator>
        <dc:rights>
          <cc:Agent>
            <dc:title>N/A</dc:title>
          </cc:Agent>
        </dc:rights>
      </cc:Work>
      <cc:License
         rdf:about="http://scripts.sil.org/OFL">
        <cc:permits
           rdf:resource="http://scripts.sil.org/pub/OFL/Reproduction" />
        <cc:permits
           rdf:resource="http://scripts.sil.org/pub/OFL/Distribution" />
        <cc:permits
           rdf:resource="http://scripts.sil.org/pub/OFL/Embedding" />
        <cc:permits
           rdf:resource="http://scripts.sil.org/pub/OFL/DerivativeWorks" />
        <cc:requires
           rdf:resource="http://scripts.sil.org/pub/OFL/Notice" />
        <cc:requires
           rdf:resource="http://scripts.sil.org/pub/OFL/Attribution" />
        <cc:requires
           rdf:resource="http://scripts.sil.org/pub/OFL/ShareAlike" />
        <cc:requires
           rdf:resource="http://scripts.sil.org/pub/OFL/DerivativeRenaming" />
        <cc:requires
           rdf:resource="http://scripts.sil.org/pub/OFL/BundlingWhenSelling" />
      </cc:License>
    </rdf:RDF>
  </metadata>
  <defs
     id="defs57">
    <pattern
       y="0"
       x="0"
       height="6"
       width="6"
       patternUnits="userSpaceOnUse"
       id="EMFhbasepattern" />
  </defs>
  <sodipodi:namedview
     inkscape:window-height="705"
     inkscape:window-width="1366"
     inkscape:pageshadow="2"
     inkscape:pageopacity="0"
     guidetolerance="1"
     gridtolerance="1"
     objecttolerance="1"
     borderopacity="1.0"
     bordercolor="#666666"
     pagecolor="#ffffff"
     id="base"
     inkscape:zoom="1"
     inkscape:cx="60.219379"
     inkscape:cy="5.7686618"
     inkscape:window-x="-8"
     inkscape:window-y="-8"
     inkscape:current-layer="svg2"
     showgrid="false"
     showguides="true"
     inkscape:showpageshadow="false"
     units="px"
     inkscape:window-maximized="1"
     inkscape:snap-path-clip="false"
     inkscape:snap-path-mask="false"
     inkscape:snap-perpendicular="false"
     inkscape:snap-tangential="false" />
  <g
     id="#ffffffff"
     transform="translate(0,-1133)" />
  <g
     id="#2acbffff-4"
     transform="matrix(0.74035173,0,0,0.75447038,-840.95699,-819.15387)"
     style="fill:#00ff00" />
  <g
     id="#000000ff-6"
     transform="matrix(0.14544439,0,0,0.14544439,32.622855,-39.939333)" />
  <g
     id="#eb212eff"
     transform="matrix(0.08181179,0,0,0.08181179,-1.4118435,-3.40561)">
    <path
       style="opacity:1;fill:#eb212e;stroke-width:0.10123346"
       d="m 60.386719,36.791016 c -0.160961,0 -0.319579,9.4e-4 -0.478516,0.002 0.003,1.041692 -0.0042,2.084248 0.0039,3.126953 -0.343181,-0.630685 -1.033993,-1.046424 -1.757812,-1.003906 -0.784559,10e-4 -1.520018,0.499266 -1.837891,1.210937 -0.431254,0.960706 -0.38322,2.167517 0.236328,3.037109 0.540587,0.753177 1.614698,1.020691 2.458985,0.65625 0.413032,-0.157921 0.700613,-0.50788 0.9375,-0.865234 0.0071,0.305725 0.02576,0.610291 0.04297,0.916016 0.130588,0.003 0.261915,0.0048 0.394531,0.0078 z m -6.681641,0.0293 c 0,2.02467 10e-4,4.050491 0,6.076172 -0.0162,0.345206 0.09372,0.72447 0.398438,0.921875 0.385699,0.271306 0.87922,0.179298 1.3125,0.107422 -0.01519,-0.09516 -0.04536,-0.2857 -0.06055,-0.380859 -0.282442,0.03341 -0.590166,0.113228 -0.857422,-0.02344 -0.226763,-0.11743 -0.326601,-0.386886 -0.314453,-0.630859 0.002,-2.022644 -7.2e-5,-4.044702 0.002,-6.068359 -0.160961,-10e-4 -0.321532,-0.002 -0.480469,-0.002 z m -40.533203,0.07422 a 0.77500001,0.77500001 0 0 0 -0.773437,0.775391 0.77500001,0.77500001 0 0 0 0.77539,0.773437 0.77500001,0.77500001 0 0 0 0.775391,-0.773437 v -0.002 a 0.77500001,0.77500001 0 0 0 -0.777344,-0.773438 z m 71.882813,0.107422 c -0.220073,-0.0077 -0.439721,0.0033 -0.660157,0.03516 -0.544636,0.06479 -1.089911,0.297476 -1.447265,0.722657 -0.424169,0.52034 -0.444877,1.315465 -0.07031,1.867187 0.339132,0.47681 0.904869,0.699938 1.441406,0.873047 0.705598,0.251059 1.51809,0.342512 2.083985,0.875 0.559821,0.518315 0.387831,1.53551 -0.279297,1.884766 -1.072062,0.610437 -2.351766,0.201594 -3.423828,-0.197266 -0.04353,0.130591 -0.08443,0.260975 -0.126953,0.392578 0.947545,0.370515 1.983473,0.644385 3.003906,0.455078 0.535525,-0.101233 1.080994,-0.358401 1.386719,-0.828125 0.445427,-0.679276 0.298272,-1.701937 -0.376953,-2.177734 -0.880732,-0.636759 -2.045931,-0.628262 -2.957032,-1.199219 -0.497056,-0.292565 -0.68725,-0.983055 -0.417968,-1.490234 0.223723,-0.453526 0.728268,-0.687532 1.205078,-0.769532 0.830114,-0.149823 1.662194,0.09227 2.433593,0.382813 0.04353,-0.129579 0.0882,-0.258152 0.134766,-0.386719 -0.616512,-0.23309 -1.269473,-0.416343 -1.929687,-0.439453 z m 8.214843,0.175781 c -0.939446,2.261556 -1.875876,4.525554 -2.818359,6.78711 h 0.519531 c 0.268269,-0.67624 0.555009,-1.343292 0.822266,-2.019532 1.138876,-0.0091 2.27808,-8.69e-4 3.417969,-0.0039 0.281427,0.67219 0.549661,1.350235 0.830078,2.023438 0.171084,0 0.342515,9.41e-4 0.515625,0.002 -0.931348,-2.257506 -1.88151,-4.508917 -2.802735,-6.771485 -0.161973,-0.0071 -0.324426,-0.01252 -0.484375,-0.01758 z m -89.2519529,0.0039 c 0,0 -0.8300957,9.4e-4 -1.2441406,0.002 l -2.78320313,6.78125 1.36132813,-0.002 0.6230469,-1.617188 h 2.8476562 l 0.6210938,1.615235 1.359375,0.002 z m 36.4257809,0.002 v 6.78125 c 0.158937,0 0.319508,10e-4 0.480469,0 -10e-4,-1.079149 0,-2.15812 0,-3.238282 h 4.480469 v 3.238282 h 0.480469 c -10e-4,-2.260543 -10e-4,-4.520707 0,-6.78125 -0.160962,-10e-4 -0.321533,0 -0.480469,0 v 3.136718 h -4.480469 c -10e-4,-1.045738 -10e-4,-2.090977 0,-3.136718 -0.160961,-10e-4 -0.321532,0 -0.480469,0 z m 21.94336,0.01758 a 0.37999999,0.37999999 0 0 0 -0.351563,0.378906 0.37999999,0.37999999 0 0 0 0.378906,0.38086 0.37999999,0.37999999 0 0 0 0.38086,-0.38086 0.37999999,0.37999999 0 0 0 -0.38086,-0.378906 0.37999999,0.37999999 0 0 0 -0.02734,0 z m 31.132812,0.58789 c 0.504143,1.252258 1.026821,2.496873 1.539063,3.746094 -1.034606,0.002 -2.070863,-0.001 -3.105469,0 0.524389,-1.248208 1.019746,-2.508008 1.566406,-3.746094 z m -90.1328122,0.916016 1.0800781,2.654297 h -2.125 z m 13.8906252,0.08398 c -0.712367,-0.01191 -1.427998,0.175439 -2.097656,0.40625 l 0.322265,0.894532 c 0.695474,-0.231825 1.491311,-0.520498 2.207031,-0.216797 0.392786,0.162986 0.501871,0.606416 0.476563,0.994141 -0.924262,-0.172097 -2.004861,-0.19247 -2.779297,0.417968 -0.681301,0.553747 -0.656054,1.716285 0.0293,2.25586 0.844287,0.663079 2.122621,0.46934 2.880859,-0.238282 0.310787,0.670166 1.122138,0.731059 1.75586,0.576172 l -0.08398,-0.917968 c -0.218664,0.0061 -0.52708,0.04011 -0.589843,-0.238282 -0.04252,-0.776461 0.02436,-1.556583 -0.0293,-2.332031 -0.05669,-0.747103 -0.667164,-1.355605 -1.38086,-1.517578 -0.234861,-0.05391 -0.473482,-0.08001 -0.710937,-0.08398 z m 12.089844,0.002 c -0.200569,-0.01329 -0.401808,-0.0059 -0.603516,0.02344 -0.600315,0.0739 -1.181945,0.352103 -1.587891,0.806641 -0.807843,0.9192 -0.843092,2.415235 -0.08789,3.376953 0.398859,0.521352 1.026005,0.840817 1.671875,0.923828 0.807843,0.120468 1.621004,-0.133116 2.314453,-0.539063 l -0.523438,-0.873046 c -0.390761,0.221701 -0.81572,0.434738 -1.277343,0.402343 -0.588167,0 -1.149157,-0.408857 -1.322266,-0.970703 -0.245997,-0.704585 -0.0071,-1.613706 0.691406,-1.960937 0.617524,-0.32091 1.349538,-0.121026 1.904297,0.236328 l 0.527344,-0.863281 c -0.518569,-0.305219 -1.105326,-0.52264 -1.707031,-0.5625 z m 4.710937,0 c -0.712367,-0.01191 -1.427997,0.175438 -2.097656,0.40625 l 0.320312,0.896484 c 0.695474,-0.231826 1.491311,-0.520498 2.207031,-0.216797 0.392784,0.162985 0.501875,0.606416 0.476563,0.994141 -0.924261,-0.172098 -2.004862,-0.192468 -2.779297,0.417968 -0.681296,0.553748 -0.654101,1.714332 0.03125,2.253907 0.844286,0.663079 2.120668,0.471293 2.878906,-0.236328 0.310788,0.670167 1.124092,0.731059 1.757813,0.576171 l -0.08398,-0.919921 c -0.218662,0.0061 -0.527081,0.04011 -0.589843,-0.238282 -0.04252,-0.776461 0.02435,-1.556582 -0.0293,-2.332031 -0.05669,-0.747102 -0.669116,-1.355604 -1.382813,-1.517578 -0.234861,-0.05391 -0.471528,-0.08001 -0.708984,-0.08398 z m 43.382813,0.09961 c -0.473773,-0.02607 -0.941639,0.0553 -1.34961,0.328125 -0.606388,0.379625 -0.690977,1.336846 -0.15039,1.808594 0.613471,0.510216 1.471114,0.50015 2.15039,0.882812 0.321923,0.174122 0.497575,0.568499 0.400391,0.923828 -0.07694,0.342169 -0.392779,0.581051 -0.71875,0.664063 -0.711671,0.192343 -1.447168,-0.03012 -2.113281,-0.283203 -0.04151,0.119455 -0.08161,0.239919 -0.121094,0.359375 0.720782,0.285478 1.519548,0.475557 2.292968,0.310547 0.406959,-0.08909 0.815112,-0.313806 1.017579,-0.691407 0.278392,-0.491994 0.149339,-1.18951 -0.31836,-1.519531 -0.623598,-0.448464 -1.439853,-0.447272 -2.091797,-0.833984 -0.34723,-0.18222 -0.480547,-0.64691 -0.3125,-0.994141 0.144764,-0.282441 0.438416,-0.460816 0.744141,-0.519531 0.623598,-0.119456 1.258692,0.04009 1.841797,0.259766 0.03644,-0.124518 0.07481,-0.250486 0.113281,-0.375 -0.430242,-0.160456 -0.910996,-0.294245 -1.384765,-0.320313 z m -53.976563,0.01758 c -0.610058,0.04011 -1.208837,0.324703 -1.572266,0.822266 -0.04758,-0.237899 -0.148437,-0.714844 -0.148437,-0.714844 l -1.033203,-0.0098 v 4.958985 h 1.289062 c 0,0 -0.02805,-1.970148 0.01953,-2.953125 0.05365,-0.70661 0.828751,-1.213317 1.501954,-1.007813 0.416069,0.101234 0.723454,0.49467 0.728515,0.921875 0.01316,1.013347 0.0039,3.039063 0.0039,3.039063 h 1.28907 c 0,0 0.001,-2.090977 0,-3.136719 0.001,-0.4596 -0.1338,-0.930911 -0.4375,-1.283203 -0.409489,-0.473773 -1.030567,-0.676833 -1.640625,-0.636719 z m 48.416016,0.0078 c -0.448971,0.01556 -0.893076,0.171481 -1.238282,0.458984 -0.493007,0.403922 -0.755093,1.028817 -0.832031,1.650391 -0.0982,0.778485 0.06205,1.626688 0.572266,2.242187 0.50313,0.603352 1.366904,0.852275 2.121094,0.638672 0.503127,-0.118443 0.901141,-0.494312 1.15625,-0.931641 -0.03037,0.536538 0.06056,1.085927 -0.07813,1.611329 -0.184241,0.637767 -0.825048,1.050802 -1.464843,1.105468 -0.653968,0.06884 -1.293491,-0.129657 -1.886719,-0.384765 -0.04859,0.131603 -0.09695,0.26488 -0.144531,0.396484 0.675227,0.272318 1.408635,0.464809 2.142578,0.382813 0.644857,-0.06985 1.282902,-0.406762 1.623047,-0.972657 0.206516,-0.337107 0.286168,-0.736192 0.285156,-1.126953 -0.003,-1.648081 0.0011,-3.296291 -0.002,-4.943359 -0.132616,10e-4 -0.26394,0.0029 -0.394531,0.0039 -0.01519,0.297626 -0.0348,0.596905 -0.04492,0.894531 -0.166023,-0.226763 -0.321922,-0.472577 -0.552735,-0.640625 -0.359378,-0.275861 -0.812748,-0.40033 -1.261718,-0.384765 z m -22.027344,0.02734 c -0.226273,-0.0063 -0.45397,0.0176 -0.671875,0.07227 -0.655993,0.149826 -1.219512,0.618149 -1.501953,1.226563 -0.339132,0.722803 -0.356006,1.586087 -0.06445,2.328124 0.24296,0.617525 0.765516,1.125945 1.404296,1.320313 0.910089,0.298639 2.016147,0.03724 2.609376,-0.740234 0.726853,-0.951595 0.721937,-2.400981 -0.0039,-3.351563 -0.417588,-0.546661 -1.092666,-0.836677 -1.771484,-0.855469 z m -43.248047,0.0625 2.0214844,4.958985 1.1992187,-0.0039 2.0175779,-4.955079 -1.347656,0.002 -1.2753906,3.46875 -1.2949219,-3.460937 z m 59.935547,0.0059 c -0.222382,0.01174 -0.442318,0.05888 -0.644531,0.140625 -0.462637,0.163998 -0.798925,0.543129 -1.044922,0.953125 -0.004,-0.322935 -0.02279,-0.644875 -0.04102,-0.966797 -0.131603,-0.003 -0.261046,-0.0067 -0.390625,-0.0098 -0.004,1.612649 -9.41e-4,3.224301 -0.002,4.835938 0.158937,0 0.317554,0.001 0.478516,0 -0.001,-0.913126 -9.41e-4,-1.825156 -0.002,-2.738282 -0.001,-0.416066 0.103398,-0.841639 0.355469,-1.177734 0.465674,-0.633721 1.426407,-0.832811 2.09961,-0.423828 0.417081,0.24296 0.64178,0.732318 0.636718,1.205078 0.002,1.045742 0,2.090036 0,3.134766 0.158937,0.001 0.319508,0 0.480469,0 0,-0.844287 -0.001,-1.688916 0,-2.533203 -0.001,-0.529451 0.05414,-1.102471 -0.234375,-1.574219 -0.331033,-0.600568 -1.024262,-0.880914 -1.691406,-0.845703 z m -54.03125,0.06836 v 4.884766 h 1.291015 v -4.884766 z m 49.679687,0.02539 v 4.859375 h 0.480469 c -10e-4,-1.618723 -10e-4,-3.238699 0,-4.857422 -0.160961,-10e-4 -0.321532,-0.002 -0.480469,-0.002 z m -4.058593,0.205078 c 0.83962,-0.07448 1.694717,0.561451 1.746093,1.4375 -0.01316,0.741029 0.169586,1.586982 -0.318359,2.220703 -0.517303,0.707622 -1.623529,0.80491 -2.300781,0.273438 -0.619549,-0.484909 -0.826938,-1.33862 -0.75,-2.091797 0.06479,-0.753177 0.504349,-1.537922 1.265625,-1.763672 0.116924,-0.041 0.237476,-0.06553 0.357422,-0.07617 z m 13.765625,0 c 0.837807,-0.07478 1.694902,0.556477 1.748046,1.431641 -0.01316,0.76026 0.177306,1.648612 -0.363281,2.279296 -0.61145,0.768362 -1.914226,0.728939 -2.517578,-0.0293 -0.613475,-0.776461 -0.659831,-1.929519 -0.199219,-2.791016 0.205504,-0.383675 0.559481,-0.683862 0.976563,-0.814453 0.116545,-0.04087 0.235782,-0.06549 0.355469,-0.07617 z m -22.076172,0.0332 c 0.553778,0.01277 1.101366,0.261681 1.43164,0.71875 0.665104,0.923249 0.593837,2.382386 -0.292968,3.140625 -0.542612,0.455551 -1.350654,0.523033 -1.984375,0.230469 -1.568107,-0.769375 -1.427203,-3.541566 0.298828,-4.023438 0.178424,-0.04935 0.362282,-0.07066 0.546875,-0.06641 z m -32.5,2.171875 c 0.281429,-2.53e-4 0.568538,0.04574 0.839844,0.0918 -0.0051,0.32091 0.009,0.670969 -0.189454,0.945312 -0.343181,0.541599 -1.208225,0.665405 -1.671875,0.212891 -0.310786,-0.309774 -0.174762,-0.886139 0.210938,-1.068359 0.253084,-0.135147 0.529118,-0.181388 0.810547,-0.181641 z m 16.800781,0.0039 c 0.281429,-2.53e-4 0.566585,0.04378 0.837891,0.08984 -0.0051,0.32091 0.009,0.672922 -0.189454,0.947266 -0.34318,0.541598 -1.208225,0.663451 -1.671874,0.210937 -0.310787,-0.309775 -0.174763,-0.886138 0.210937,-1.068359 0.253084,-0.135148 0.531071,-0.179434 0.8125,-0.179688 z m 63.998047,1.625 a 0.40961795,0.40961795 0 0 0 -0.38086,0.410157 0.40961795,0.40961795 0 0 0 0.410157,0.408203 0.40961795,0.40961795 0 0 0 0.410156,-0.408203 v -0.002 a 0.40961795,0.40961795 0 0 0 -0.410156,-0.408203 0.40961795,0.40961795 0 0 0 -0.0293,0 z m -9.144531,0.0039 a 0.40961795,0.40961795 0 0 0 -0.410157,0.410156 0.40961795,0.40961795 0 0 0 0.410157,0.410156 0.40961795,0.40961795 0 0 0 0.410156,-0.410156 v -0.002 a 0.40961795,0.40961795 0 0 0 -0.410156,-0.408203 z"
       transform="matrix(9.8781566,0,0,9.8781566,18.485792,-318.29641)"
       id="path5"
       inkscape:connector-curvature="0" />
  </g>
</svg>
