<?xml version="1.0" encoding="UTF-8" standalone="no"?>
<svg
   xmlns:svg="http://www.w3.org/2000/svg"
   xmlns="http://www.w3.org/2000/svg"
   version="1.1"
   width="828.78497"
   height="147.85959"
   id="svg7541">
  <defs
     id="defs7543" />
  <g
     transform="translate(-14.178944,-492.71834)"
     id="layer1">
    <path
       d="m 383.42312,499.10329 -20.87265,-0.12536 -17.98238,0.12187 -57.77411,98.93092 -22.67994,39.18931 22.40135,-0.0661 15.74329,-0.108 60.00276,-101.68191 21.16168,-36.26074 z m -73.30437,-0.004 -22.60681,0.0731 -16.24473,-0.12537 -60.5042,102.39924 0,-102.34352 -35.92992,-0.004 -0.24724,138.23166 35.8742,-0.26117 c 10.84026,0.094 20.00209,-5.74573 28.20628,-19.23947 l 48.574,-80.79184 22.87842,-37.93918 z m 131.03697,77.66025 -12.52568,0.19849 -12.5605,0.12187 12.70676,-20.55576 12.46299,-20.33289 -0.0836,40.56829 z M 429.15587,501.1774 c -6.13574,2.91814 -11.3835,8.76137 -16.36662,16.83672 l -35.55731,58.79442 -13.77929,0.14974 -1.5113,2.44454 -13.67831,22.04269 13.50768,-0.16367 0.24376,0 -0.24376,0.51885 -21.37409,35.2474 21.1373,0.13233 17.95451,-0.11138 21.63874,-35.97171 27.3392,-0.0731 12.77291,0.0975 0,35.92643 35.65135,0 0.25769,-138.00182 -38.16205,-0.007 c -3.41262,-0.0487 -6.59888,0.69645 -9.83042,2.1381 m -313.17605,75.97341 -12.57442,0.13929 -12.508259,-0.0975 12.668449,-20.55227 12.46647,-20.34334 -0.0523,40.85382 z m -11.99637,-75.63461 c -6.163584,2.92859 -11.380009,8.5176 -16.397934,16.87154 l -35.5817,58.78397 -13.72705,-0.0905 -15.207025,24.47678 13.76885,-0.14277 -21.659637,35.7384 39.1127,0.0244 21.684013,-35.97867 27.276523,-0.0593 12.80077,0.0731 0,35.94036 35.67223,0.01 0.22635,-137.99133 -38.12374,-0.0174 c -3.43698,-0.0523 -6.65111,0.94369 -9.84435,2.36096 M 549.42189,606.3299 c -5.1398,-0.0139 -9.34637,-0.79744 -12.27146,-2.54205 -3.18279,-1.74113 -5.3975,-4.71149 -6.59192,-8.66385 -1.17701,-3.95584 -1.17701,-9.08173 -0.11837,-15.49953 1.03422,-6.3586 3.01911,-13.74795 6.07654,-22.57895 1.26057,-3.47529 3.0017,-6.88094 4.98659,-10.28659 2.23561,-3.44046 4.46077,-6.62325 6.96451,-9.33245 2.43758,-2.92508 4.94481,-5.09105 7.45551,-6.78691 2.39927,-1.69586 4.89605,-2.70224 6.84264,-2.66392 10.60347,-0.21243 21.2348,-0.0905 31.99845,-0.0384 4.0046,-6.84263 8.21812,-13.96037 12.463,-20.80648 2.4933,-4.43291 5.20597,-8.82752 7.71667,-13.22212 -2.46195,0 -5.14328,-0.0627 -7.61568,0.17411 -13.06892,-0.0627 -26.07863,-0.17411 -39.16494,-0.0384 -1.92221,0.26814 -4.17523,0.68949 -6.62674,1.18745 -2.45847,0.46314 -4.93087,0.96459 -7.37194,1.94659 -2.4724,0.65814 -5.18856,1.66451 -7.95347,2.60821 -2.68481,1.22227 -5.41491,2.68134 -8.07186,4.38415 -12.40729,7.55303 -22.81227,18.26444 -31.00254,30.7344 -8.44795,12.25755 -14.1902,26.0438 -17.00734,39.50273 -2.5525,13.52507 -2.15551,26.54871 2.1973,37.67452 4.35283,10.82285 12.42469,19.73744 25.19065,24.53599 1.9431,0.74867 3.66333,1.25361 5.61688,1.51477 1.9814,0.5293 3.9245,0.73477 6.15315,0.97852 2.18685,0.0452 4.39808,0.296 6.83566,0.32037 14.06832,0.33429 28.31771,-0.0244 42.33031,0.0731 4.74631,-8.31215 9.48567,-16.64172 13.96038,-24.97822 l 4.708,-8.36439 -12.0103,-0.0626 c -11.79092,0.17062 -23.62712,0.0626 -35.68966,0.22982 m 256.77917,-29.66887 -12.57095,0.20547 -12.53264,0.12535 12.7381,-20.81693 12.39335,-20.30851 -0.0279,40.79462 z M 794.1664,501.099 c -6.13574,2.90768 -11.31037,8.7509 -16.29696,16.82278 l -35.63741,58.77005 -14.00564,-0.0766 -11.43573,18.89123 -3.73995,5.58903 3.66334,0.0417 10.11944,0.0626 -10.22391,17.1954 -11.18153,18.57434 11.05269,-0.16366 28.01824,-0.0453 21.69793,-35.73839 27.30785,-0.0661 12.55007,-0.16018 0,36.14232 35.85678,-0.22286 0.0523,-137.74066 -37.91481,0 c -3.42305,-0.0279 -6.89835,0.67556 -9.88264,2.12419 m -92.8889,102.85692 c 12.58488,-34.28979 4.9866,-41.0175 -20.44432,-51.90652 -14.66726,-5.3766 -33.34261,-7.54605 -31.56665,-17.35208 0.4701,-7.67837 10.1055,-6.21584 10.92731,-6.21584 l 12.06254,-0.14276 c 12.29236,-0.18109 24.32356,-0.34475 36.63682,-0.2368 2.7475,-4.90997 5.49848,-9.81996 8.4967,-14.68815 3.71558,-6.63719 7.19435,-13.00275 10.94822,-19.59117 -3.66333,0.20892 -7.13514,0.16017 -10.82982,0.16017 -17.72816,-0.16017 -10.41195,-0.23679 -27.8476,-0.12536 -13.97778,0 -34.9932,-1.54264 -51.5966,5.65171 -9.98362,4.33193 -17.2302,11.99289 -23.6097,24.47329 -24.01712,47.05922 21.06069,56.54836 26.40944,58.47057 7.27791,2.58384 24.52553,3.85834 24.1773,12.87391 -0.002,7.69927 -7.0446,10.84722 -13.27436,10.84722 -15.74676,0 -29.51213,0 -45.22754,0.15671 -2.74402,-0.0383 -5.22339,-0.0487 -7.92214,-0.0487 0,0 2.72313,28.55799 34.39773,31.9706 34.37684,3.69468 52.87806,-7.163 68.26267,-34.29673"
       id="path502"
       style="fill:#1a3374;fill-opacity:1;fill-rule:nonzero;stroke:none" />
  </g>
</svg>
