<?xml version="1.0" encoding="UTF-8" standalone="no"?>
<!-- Created with Inkscape (http://www.inkscape.org/) -->

<svg
   width="132.29167mm"
   height="29.341949mm"
   viewBox="0 0 132.29167 29.34195"
   version="1.1"
   id="svg1"
   inkscape:version="1.4 (86a8ad7, 2024-10-11)"
   sodipodi:docname="avianca wordmark 2000.svg"
   xmlns:inkscape="http://www.inkscape.org/namespaces/inkscape"
   xmlns:sodipodi="http://sodipodi.sourceforge.net/DTD/sodipodi-0.dtd"
   xmlns="http://www.w3.org/2000/svg"
   xmlns:svg="http://www.w3.org/2000/svg">
  <sodipodi:namedview
     id="namedview1"
     pagecolor="#ffffff"
     bordercolor="#000000"
     borderopacity="0.25"
     inkscape:showpageshadow="2"
     inkscape:pageopacity="0.0"
     inkscape:pagecheckerboard="0"
     inkscape:deskcolor="#d1d1d1"
     inkscape:document-units="mm"
     inkscape:zoom="2.8685466"
     inkscape:cx="173.60708"
     inkscape:cy="56.300289"
     inkscape:window-width="1920"
     inkscape:window-height="1001"
     inkscape:window-x="-9"
     inkscape:window-y="-9"
     inkscape:window-maximized="1"
     inkscape:current-layer="layer1" />
  <defs
     id="defs1" />
  <g
     inkscape:label="Layer 1"
     inkscape:groupmode="layer"
     id="layer1"
     transform="translate(-38.952045,-133.79394)">
    <path
       d="M 89.533199,162.71191 H 83.98365 v -20.44957 h 5.549549 v 18.47943 z"
       style="fill:#da291c;fill-opacity:1;fill-rule:nonzero;stroke:none;stroke-width:0.35278"
       id="path22"
       inkscape:connector-curvature="0" />
    <path
       d="m 86.760445,139.99791 c -1.773691,0 -3.159078,-1.37169 -3.159078,-3.11796 0,-1.70289 1.415074,-3.08601 3.159078,-3.08601 1.795414,0 3.199067,1.35457 3.199067,3.08601 0,1.71888 -1.432208,3.11796 -3.199067,3.11796"
       style="fill:#da291c;fill-opacity:1;fill-rule:nonzero;stroke:none;stroke-width:0.35278"
       id="path34"
       inkscape:connector-curvature="0" />
    <path
       d="m 144.69597,163.13577 c -3.13395,0 -5.74139,-1.08159 -7.53794,-3.12826 -1.63665,-1.86049 -2.54237,-4.49535 -2.54237,-7.41233 0,-3.00261 1.06446,-5.74483 3.01064,-7.72523 1.93472,-1.97931 4.62896,-3.06775 7.57333,-3.06775 2.30937,0 4.17445,0.50712 5.95157,1.50417 l -0.18745,4.57302 c -1.44246,-1.08841 -3.27899,-1.71089 -5.17033,-1.71089 -3.2596,0 -5.62605,2.59605 -5.62605,6.16972 0,2.87126 1.46076,6.22109 5.5838,6.22109 1.97584,0 3.6696,-0.80063 4.83341,-1.47674 l 1.45506,3.94714 c -1.47675,1.01078 -4.40629,2.10606 -7.3438,2.10606"
       style="fill:#da291c;fill-opacity:1;fill-rule:nonzero;stroke:none;stroke-width:0.35278"
       id="path38"
       inkscape:connector-curvature="0" />
    <path
       d="m 65.383997,162.71214 h -5.885315 l -2.743358,-6.97032 h -9.598328 l -2.574328,6.97032 h -5.630623 l 10.999704,-28.4318 h 4.046509 z M 48.903288,151.08657 h 6.070339 l -2.12662,-6.0498 c -0.34149,-0.93197 -0.620167,-1.80224 -0.836026,-2.59144 -0.194153,0.72639 -0.477404,1.53385 -0.82118,2.50465 z"
       style="fill:#da291c;fill-opacity:1;fill-rule:nonzero;stroke:none;stroke-width:0.35278"
       id="path42"
       inkscape:connector-curvature="0" />
    <path
       d="m 82.30799,142.26192 h -5.554107 l -4.941931,13.25425 -4.859689,-13.25425 h -5.595217 l 7.470556,18.22357 c 0.564229,1.41624 1.420804,2.22827 3.042592,2.22827 h 1.930192 z"
       style="fill:#da291c;fill-opacity:1;fill-rule:nonzero;stroke:none;stroke-width:0.35278"
       id="path46"
       inkscape:connector-curvature="0" />
    <path
       d="m 99.067508,163.13586 c -3.995126,0 -6.786457,-2.73992 -6.786457,-6.65968 0,-4.12873 3.136253,-6.6014 8.597869,-6.78642 l 3.31211,-0.11752 v -0.27422 c 0,-2.58801 -2.00556,-3.13052 -3.68559,-3.13052 -1.674333,0 -3.303017,0.50252 -5.107529,1.58867 l -1.881078,-3.59993 c 2.227133,-1.48131 5.037857,-2.35391 8.128427,-2.35391 5.50386,0 8.18098,2.45214 8.18098,7.49569 v 9.35052 c 0,1.79881 0.1554,3.00831 0.47053,4.06593 h -3.20362 c -1.36483,0 -1.89591,-0.5471 -2.3025,-1.63551 -1.63209,1.38082 -3.50857,2.05693 -5.723142,2.05693 m 5.123522,-9.57549 -2.62344,0.0777 c -3.346394,0.10037 -3.731266,1.45276 -3.731266,2.45671 0,1.59666 1.123829,2.5492 3.006036,2.5492 1.32142,0 2.44981,-0.38377 3.34867,-1.13756 z"
       style="fill:#da291c;fill-opacity:1;fill-rule:nonzero;stroke:none;stroke-width:0.35278"
       id="path50"
       inkscape:connector-curvature="0" />
    <path
       d="m 160.01445,163.13586 c -3.99283,0 -6.78873,-2.73992 -6.78873,-6.65968 0,-4.12873 3.13626,-6.6014 8.6024,-6.78642 l 3.30985,-0.11752 v -0.27422 c 0,-2.58801 -2.00556,-3.13052 -3.68333,-3.13052 -1.6766,0 -3.30528,0.50252 -5.10979,1.58867 l -1.87878,-3.59993 c 2.22254,-1.48131 5.03672,-2.35391 8.1284,-2.35391 5.50386,0 8.18097,2.45214 8.18097,7.49569 v 9.35052 c 0,1.79881 0.1554,3.00831 0.46827,4.06593 h -3.20362 c -1.36483,0 -1.89591,-0.5471 -2.30251,-1.63551 -1.63208,1.38082 -3.50856,2.05693 -5.72313,2.05693 m 5.12352,-9.57549 -2.62344,0.0777 c -3.3464,0.10037 -3.73127,1.45276 -3.73127,2.45671 0,1.59666 1.12153,2.5492 3.00604,2.5492 1.32598,0 2.44754,-0.38377 3.34867,-1.13756 z"
       style="fill:#da291c;fill-opacity:1;fill-rule:nonzero;stroke:none;stroke-width:0.35278"
       id="path54"
       inkscape:connector-curvature="0" />
    <path
       d="m 132.14834,162.71191 h -5.55411 v -11.97735 c 0,-2.83588 -0.84175,-4.10248 -2.71709,-4.10248 -1.45963,0 -3.03803,0.64873 -4.82772,1.98957 v 14.09026 h -5.54954 v -20.44957 h 2.12321 c 1.61722,0 2.628,0.62018 3.08714,1.88678 l 0.0291,0.10748 c 2.35961,-1.69715 4.48965,-2.4544 6.86526,-2.4544 3.16364,0 6.54316,1.94845 6.54316,7.41349 z"
       style="fill:#da291c;fill-opacity:1;fill-rule:nonzero;stroke:none;stroke-width:0.35278"
       id="path58"
       inkscape:connector-curvature="0" />
  </g>
</svg>
