<?xml version="1.0" encoding="UTF-8"?>
<!DOCTYPE svg PUBLIC "-//W3C//DTD SVG 1.1//EN" "http://www.w3.org/Graphics/SVG/1.1/DTD/svg11.dtd">
<svg version="1.1" id="Layer_1" xmlns="http://www.w3.org/2000/svg" xmlns:xlink="http://www.w3.org/1999/xlink" 
  width="1012px" height="228px" viewBox="0 0 253 57"  xml:space="preserve">
	<defs>
		<clipPath id="SVGID_2">
			<path overflow="visible" d="M 207.744,30.003 c 8.43 -2.779,17.705 -5.965,20.594 -7.155 c 2.89 -1.189,10.056 -4.828,10.662 -6.67 c 3.82,0.664,6.318,4.747,6.859,5.478 c -0.092,0.001,0.258,1.235 -0.561,2.769 c -1.955,3.67 -12.296,8.117 -17.747,10.179    C 219.466,33.033,213.057,31.392,207.744,30.003" />
		</clipPath>
		<clipPath id="SVGID_4">
			<rect overflow="visible" x="-103.529" y="-101.4" width="385.296" height="544.99" />
		</clipPath>
		<clipPath id="SVGID_6">
			<path overflow="visible" d="M 135.903,9.994 c 15.265 -0.606,67.721 -2.668,73.899 -2.911 c 6.179 -0.242,17.93 -0.12,20.597,0.606 c 2.664,0.728,6.177,1.092,8.843,3.396 c 2.665,2.304,5.752,7.276,6.601,10.55 c -1.686 -2.284 -3.795 -3.769 -6.116 -4.122 c -6.343 -0.966 -12.236 -0.606 -27.379 -0.485 c -15.144,0.12 -34.285,0.363 -46.399 -0.85 C 153.833,14.966,143.051,12.298,135.903,9.994" />
		</clipPath>
		<clipPath id="SVGID_8">
			<rect overflow="visible" x="-103.529" y="-101.4" width="385.296" height="544.99" />
		</clipPath>
		<clipPath id="SVGID_10">
			<path overflow="visible" d="M 135.903,9.994 c 15.265 -0.606,67.721 -2.668,73.899 -2.911 c 6.179 -0.242,17.93 -0.12,20.597,0.606 c 2.664,0.728,6.177,1.092,8.843,3.396 c 2.665,2.304,5.752,7.276,6.601,10.55 c  -1.686 -2.284 -3.795 -3.769 -6.116 -4.122     c  -6.343 -0.966 -12.236 -0.606 -27.379 -0.485 c -15.144,0.12 -34.285,0.363 -46.399 -0.85 C 153.833,14.966,143.051,12.298,135.903,9.994" />
		</clipPath>
		<clipPath id="SVGID_12">
			<rect overflow="visible" x="-103.529" y="-101.4" width="385.296" height="544.99" />
		</clipPath>
		<clipPath id="SVGID_14">
			<path overflow="visible" d="M 135.903,9.994 c 15.265 -0.606,67.721 -2.668,73.899 -2.911 c 6.179 -0.242,17.93 -0.12,20.597,0.606 c 2.664,0.728,6.177,1.092,8.843,3.396 c 2.665,2.304,5.752,7.276,6.601,10.55 c -1.686 -2.284 -3.795 -3.769 -6.116 -4.122 c -6.343 -0.966 -12.236 -0.606 -27.379 -0.485 c -15.144,0.12 -34.285,0.363 -46.399 -0.85 C 153.833,14.966,143.051,12.298,135.903,9.994" />
		</clipPath>
		<clipPath id="SVGID_16">
			<rect overflow="visible" x="-103.529" y="-101.4" width="385.296" height="544.99" />
		</clipPath>
		<clipPath id="SVGID_18">
			<path overflow="visible" d="M 135.903,9.994 c 15.265 -0.606,67.721 -2.668,73.899 -2.911 c 6.179 -0.242,17.93 -0.12,20.597,0.606 c 2.664,0.728,6.177,1.092,8.843,3.396 c 2.665,2.304,5.752,7.276,6.601,10.55 c -1.686 -2.284 -3.795 -3.769 -6.116 -4.122    c -6.343 -0.966 -12.236 -0.606 -27.379 -0.485 c -15.144,0.12 -34.285,0.363 -46.399 -0.85 C 153.833,14.966,143.051,12.298,135.903,9.994" />
		</clipPath>
		<clipPath id="SVGID_20">
			<rect overflow="visible" x="-103.529" y="-101.4" width="385.296" height="544.99"/>
		</clipPath>
	</defs>

	<path fill="#003A77" d="M  21.439,44.826 c -0.033,2.098 -0.79,3.563 -2.269,4.396 c -1.423,0.826 -3.079,1.229 -4.967,1.213 H 5.862 c 0.298 -0.211,0.505 -0.451,0.618 -0.722 c 0.121 -0.278,0.182 -0.658,0.182 -1.14 V 32.979 c 0 -0.431 -0.052 -0.803 -0.158 -1.115 c -0.113 -0.278 -0.334 -0.523 -0.666 -0.735 h 7.208 c 1.772 -0.016,3.322,0.322,4.646,1.016 c 1.332,0.693,2.018,1.94,2.059,3.74 c -0.017,1.092 -0.478,2.018 -1.385,2.778 c -0.908,0.761 -2.138,1.281 -3.69,1.56 c 2.447,0.16,4.199,0.672,5.255,1.534 C 20.953,42.619,21.457,43.643,21.439,44.826 M 16.112,36.204 c 0 -0.799 -0.16 -1.446 -0.479 -1.94 c -0.303 -0.467 -0.716 -0.8 -1.241 -0.995 c -0.483 -0.204 -1.004 -0.331 -1.562 -0.382 c -0.565 -0.035 -1.094 -0.052 -1.585 -0.052 c -0.45,0 -0.766,0.017 -0.947,0.052 v 6.662 h 0.726 c 0.417,0,0.922 -0.051,1.511 -0.153 c 0.565 -0.094,1.118 -0.251,1.66 -0.473 c 0.541 -0.246,0.996 -0.587,1.364 -1.021 C 15.928,37.469,16.112,36.902,16.112,36.204 z M 17.387,45.079 c -0.017 -0.894 -0.209 -1.601 -0.578 -2.122 c -0.386 -0.514 -0.889 -0.893 -1.511 -1.138 c -0.623 -0.261 -1.27 -0.425 -1.94 -0.493 c -0.688 -0.05 -1.331 -0.075 -1.929 -0.075 c -0.353,0 -0.73,0.025 -1.13,0.075 v 7.252 c 0.95,0.118,1.888,0.169,2.813,0.152 c 0.532,0,1.052 -0.071,1.561 -0.215 c 0.499 -0.135,0.949 -0.342,1.351 -0.62 C 16.899,47.35,17.354,46.41,17.387,45.079 z" />
	<path fill="#003A77" d="M  37.597,50.456 c  0.48 -0.212,0.553 -0.671,0.215 -1.381 l -2.076 -4.811 c -1.232 -0.092 -2.468 -0.139 -3.708 -0.139 c -1.249,0 -2.511,0.047 -3.785,0.139 l -1.759,4.305 c -0.245,0.548 -0.368,0.962 -0.368,1.241 c 0,0.262,0.123,0.477,0.368,0.646 h -3.582 c 0.278 -0.169,0.519 -0.393,0.721 -0.672 c 0.211 -0.278,0.392 -0.625,0.544 -1.039 l 6.151 -15.393 c 0.253 -0.7,0.371 -1.098,0.355 -1.19 c 0 -0.169 -0.06 -0.367 -0.178 -0.595 c -0.118 -0.22 -0.308 -0.36 -0.569 -0.419 h 4.152 l 7.379,17.572 c 0.43,0.946,0.881,1.523,1.354,1.735 H 37.597 M 31.9,35.04 l -2.961,7.454 c 1.021,0.067,2.008,0.101,2.961,0.101 c 0.996,0,2.021 -0.033,3.076 -0.101 L 31.9,35.04 z" />
	<path fill="#003A77" d="M  67.491,46.646 c  0,1.06 -0.229,2.15 -0.688,3.277 c -0.801,0.397 -1.737,0.685 -2.808,0.863 c -1.055,0.169 -2.053,0.253 -2.993,0.253 c -2.874 -0.017 -5.204 -0.907 -6.992 -2.672 c -1.837 -1.731 -2.771 -4.101 -2.803 -7.106 c 0 -2.906,0.895 -5.406,2.684 -7.5 c 1.771 -2.111,4.364 -3.192,7.779 -3.243 c 1.886,0.033,3.516,0.268,4.888,0.702 l 0.38,3.589 c -0.588 -0.745 -1.344 -1.359 -2.268 -1.842 c -0.916 -0.448 -1.908 -0.682 -2.979 -0.698 c -0.891,0 -1.729,0.119 -2.513,0.355 c -0.785,0.279 -1.479,0.741 -2.083,1.384 c -1.275,1.228 -1.921,3.379 -1.937,6.452 c -0.018,1.99,0.51,3.912,1.582,5.767 c 0.555,0.872,1.266,1.575,2.133,2.108 c 0.874,0.576,1.937,0.863,3.186,0.863 c 1.112 -0.017,2.133 -0.363,3.065 -1.041 c 0.907 -0.661,1.679 -1.443,2.316 -2.35 c 0.033,0.264,0.049,0.395,0.049,0.395 S 67.491,46.352,67.491,46.646" />
	<path fill="#003A77" d="M  90.587,40.643 c -0.033,3.122 -1.007,5.626 -2.923,7.512 c -1.907,1.921 -4.404,2.897 -7.49,2.932 c -2.947 -0.034 -5.284 -0.968 -7.011 -2.803 c -1.745 -1.8 -2.625 -4.214 -2.64 -7.24 c 0.032 -3.204,1.027 -5.749,2.983 -7.634 c 1.932 -1.91,4.425 -2.874,7.479 -2.891 c 2.979,0.017,5.316,0.941,7.011,2.774 C 89.707,35.11,90.57,37.56,90.587,40.643 M 86.68,42.042 c 0.018 -2.146 -0.457 -4.262 -1.422 -6.349 c -0.507 -0.992 -1.17 -1.794 -1.987 -2.405 c -0.818 -0.602 -1.824 -0.912 -3.018 -0.929 c -1.005,0.017 -1.861,0.225 -2.563,0.623 c -0.72,0.417 -1.321,0.98 -1.803,1.692 c -0.941,1.477 -1.41,3.178 -1.41,5.103 c -0.017,2.12,0.485,4.191,1.509,6.21 c 0.524,0.95,1.194,1.723,2.011,2.316 c 0.801,0.61,1.778,0.924,2.931,0.94 c 1.914 -0.033,3.357 -0.809,4.331 -2.327 C 86.206,45.474,86.68,43.85,86.68,42.042 z"/>
	<path fill="#003A77" d="M 111.740,31.147 c -0.522,0.33 -0.792,0.896 -0.809,1.698 v 17.61 h -1.487 L 97.294,35.604 c 0,0.271,0,2.452,0,6.544 c 0,3.822,0,6.021,0,6.595 c 0,0.314,0.065,0.618,0.196,0.914 c 0.139,0.304,0.341,0.57,0.605,0.799 h -3.708 c 0.331 -0.279,0.554 -0.559,0.666 -0.837 c 0.089 -0.27,0.134 -0.569,0.134 -0.898 V 33.022 c 0 -0.464 -0.053 -0.836 -0.158 -1.114 c -0.114 -0.278 -0.327 -0.532 -0.642 -0.761 h 3.572 l 10.864,13.302 V 32.733 c 0 -0.363 -0.069 -0.663 -0.208 -0.9 c -0.132 -0.262 -0.324 -0.49 -0.579 -0.686 H 111.74" />
	<path fill="#003A77" d="M 133.043,31.147 c -0.523,0.33 -0.793,0.896 -0.809,1.698 v 17.61 h -1.487 l -12.149 -14.852 c 0,0.271,0,2.452,0,6.544 c 0,3.822,0,6.021,0,6.595 c 0,0.314,0.065,0.618,0.197,0.914 c 0.14,0.304,0.341,0.57,0.604,0.799 h -3.708 c 0.331 -0.279,0.553 -0.559,0.667 -0.837 c 0.088 -0.27,0.133 -0.569,0.133 -0.898 V 33.022 c 0 -0.464 -0.053 -0.836 -0.157 -1.114 c -0.115 -0.278 -0.328 -0.532 -0.644 -0.761 h 3.572 l 10.865,13.302 V 32.733 c 0 -0.363 -0.07 -0.663 -0.209 -0.9 c -0.131 -0.262 -0.324 -0.49 -0.579 -0.686 H 133.043" />
	<path fill="#003A77" d="M 150.268,50.456 h -13.249 c 0.314 -0.26,0.528 -0.523,0.643 -0.791 c 0.088 -0.276,0.132 -0.629,0.132 -1.057 V 33.076 c 0 -0.465 -0.052 -0.846 -0.157 -1.142 c -0.113 -0.296 -0.327 -0.558 -0.642 -0.786 h 12.404 l 0.27,2.153 c -0.319 -0.204 -0.696 -0.323 -1.13 -0.357 c -0.434,0 -0.903,0 -1.412,0 h -5.695 v 6.488 c 2.242,0.034,4.46 -0.055,6.654 -0.267 l 0.355,2.438 c -0.303 -0.211 -0.712 -0.35 -1.228 -0.418 c -0.508 -0.033 -0.945 -0.051 -1.313 -0.051 h -4.469 v 7.335 c 1.055,0.127,2.103,0.19,3.143,0.19 c 1.104,0.017,2.16 -0.01,3.166 -0.076 c 1.007 -0.076,1.96 -0.347,2.86 -0.811 L 150.268,50.456" />
	<path fill="#003A77" d="M 169.602,46.646 c 0,1.06 -0.229,2.15 -0.688,3.277 c -0.801,0.397 -1.736,0.685 -2.809,0.863 c -1.055,0.169 -2.053,0.253 -2.992,0.253 c -2.873 -0.017 -5.204 -0.907 -6.991 -2.672 c -1.837 -1.731 -2.771 -4.101 -2.804 -7.106 c 0 -2.906,0.894 -5.406,2.683 -7.5 c 1.772 -2.111,4.364 -3.192,7.779 -3.243 c 1.888,0.033,3.517,0.268,4.89,0.702 l 0.379,3.589 c -0.588 -0.745 -1.344 -1.359 -2.268 -1.842 c -0.915 -0.448 -1.907 -0.682 -2.978 -0.698 c -0.891,0 -1.729,0.119 -2.514,0.355 c -0.785,0.279 -1.479,0.741 -2.084,1.384 c -1.274,1.228 -1.92,3.379 -1.936,6.452 c -0.018,1.99,0.509,3.912,1.58,5.767 c 0.557,0.872,1.268,1.575,2.134,2.108 c 0.874,0.576,1.937,0.863,3.187,0.863 c 1.111 -0.017,2.133 -0.363,3.065 -1.041 c 0.907 -0.661,1.679 -1.443,2.316 -2.35 c 0.032,0.264,0.049,0.395,0.049,0.395 S 169.602,46.352,169.602,46.646" />
	<path fill="#003A77" d="M 189.334,30.968 c -0.295,0.56 -0.728,1.072 -1.3,1.537 c -0.557,0.517 -1.06,0.782 -1.51,0.8 c -1.276 -0.018 -2.708 -0.042 -4.295 -0.076 V 48.53 c 0,0.389,0.064,0.752,0.197,1.089 c 0.123,0.347,0.332,0.626,0.628,0.837 h -5.267 c 0.569 -0.481,0.838 -1.102,0.804 -1.863 V 33.229 h -4.816 c -0.383,0 -0.767,0.024 -1.15,0.076 c -0.409,0.075 -0.781,0.216 -1.117,0.419 l 0.834 -2.577 h 13.057 C 186.723,31.146,188.034,31.087,189.334,30.968" />
	<g clip-path="url(#SVGID_2)">
		<g clip-path="url(#SVGID_4)">
			<polyline fill="#0066B3" points="229.269,53.646 198.601,26.513 229.269,53.646" />
			<polyline fill="#0066B3" points="229.269,53.646 198.601,26.513 198.804,26.283 229.472,53.416 229.269,53.646" />
			<polyline fill="#0066B2" points="229.472,53.416 198.804,26.283 199.006,26.055 229.674,53.187 229.472,53.416" />
			<polyline fill="#0065B1" points="229.674,53.187 199.006,26.055 199.209,25.824 229.877,52.957 229.674,53.187" />
			<polyline fill="#0065B1" points="229.877,52.957 199.209,25.824 199.413,25.595 230.080,52.728 229.877,52.957" />
			<polyline fill="#0065B0" points="230.080,52.728 199.413,25.595 199.617,25.366 230.284,52.497 230.080,52.728" />
			<polyline fill="#0064AF" points="230.284,52.497 199.617,25.366 199.818,25.136 230.487,52.269 230.284,52.497" />
			<polyline fill="#0064AF" points="230.487,52.269 199.818,25.136 200.022,24.906 230.689,52.039 230.487,52.269" />
			<polyline fill="#0064AE" points="230.689,52.039 200.022,24.906 200.225,24.676 230.893,51.810 230.689,52.039" />
			<polyline fill="#0064AE" points="230.893,51.809 200.225,24.676 200.429,24.447 231.097,51.580 230.893,51.809" />
			<polyline fill="#0063AD" points="231.097,51.580 200.429,24.447 200.631,24.219 231.299,51.350 231.097,51.580" />
			<polyline fill="#0063AD" points="231.299,51.350 200.631,24.219 200.835,23.988 231.503,51.121 231.299,51.350" />
			<polyline fill="#0063AC" points="231.503,51.121 200.835,23.988 201.037,23.759 231.705,50.892 231.503,51.121" />
			<polyline fill="#0063AC" points="231.705,50.892 201.037,23.759 201.240,23.528 231.908,50.662 231.705,50.892" />
			<polyline fill="#0063AC" points="231.908,50.662 201.240,23.528 201.442,23.299 232.111,50.433 231.908,50.662" />
			<polyline fill="#0062AB" points="232.111,50.433 201.443,23.299 201.647,23.070 232.314,50.204 232.111,50.433" />
			<polyline fill="#0062AB" points="232.314,50.204 201.647,23.070 201.850,22.840 232.517,49.974 232.314,50.204" />
			<polyline fill="#0062AA" points="232.517,49.974 201.850,22.840 202.053,22.611 232.721,49.744 232.517,49.974" />
			<polyline fill="#0062AA" points="232.721,49.744 202.053,22.611 202.256,22.381 232.924,49.514 232.721,49.744" />
			<polyline fill="#0062AA" points="232.924,49.514 202.256,22.381 202.459,22.152 233.127,49.285 232.924,49.514" />
			<polyline fill="#0061A9" points="233.127,49.284 202.459,22.152 202.661,21.922 233.330,49.056 233.127,49.284" />
			<polyline fill="#0061A9" points="233.330,49.056 202.661,21.922 202.865,21.692 233.533,48.825 233.330,49.056" />
			<polyline fill="#0061A8" points="233.533,48.825 202.865,21.692 203.068,21.464 233.735,48.597 233.533,48.825" />
			<polyline fill="#0061A8" points="233.735,48.597 203.068,21.464 203.271,21.233 233.939,48.366 233.735,48.597" />
			<polyline fill="#0061A8" points="233.939,48.366 203.271,21.233 203.474,21.004 234.143,48.138 233.939,48.366" />
			<polyline fill="#0060A7" points="234.143,48.138 203.474,21.004 203.677,20.775 234.345,47.907 234.143,48.138" />
			<polyline fill="#0060A7" points="234.345,47.907 203.677,20.775 203.880,20.545 234.549,47.678 234.345,47.907" />
			<polyline fill="#0060A6" points="234.549,47.678 203.880,20.545 204.083,20.316 234.752,47.448 234.549,47.678" />
			<polyline fill="#0060A6" points="234.752,47.448 204.083,20.316 204.287,20.086 234.955,47.219 234.752,47.448" />
			<polyline fill="#0060A6" points="234.955,47.219 204.287,20.086 204.489,19.856 235.157,46.989 234.955,47.219" />
			<polyline fill="#055FA5" points="235.157,46.989 204.489,19.856 204.693,19.627 235.360,46.760 235.157,46.989" />
			<polyline fill="#0A5FA5" points="235.360,46.760 204.693,19.627 204.896,19.396 235.563,46.530 235.360,46.760" />
			<polyline fill="#0E5FA4" points="235.563,46.530 204.896,19.396 205.099,19.168 235.768,46.301 235.563,46.530" />
			<polyline fill="#115FA3" points="235.768,46.301 205.099,19.168 205.302,18.938 235.970,46.070 235.768,46.301" />
			<polyline fill="#115FA3" points="235.970,46.070 205.302,18.938 205.505,18.709 236.173,45.842 235.970,46.070" />
			<polyline fill="#145EA3" points="236.173,45.842 205.505,18.709 205.708,18.479 236.375,45.613 236.173,45.842" />
			<polyline fill="#175EA2" points="236.375,45.613 205.708,18.479 205.911,18.250 236.578,45.383 236.375,45.613" />
			<polyline fill="#1A5EA2" points="236.578,45.383 205.911,18.250 206.114,18.021 236.782,45.153 236.578,45.383" />
			<polyline fill="#1C5EA1" points="236.782,45.153 206.114,18.021 206.316,17.791 236.985,44.924 236.782,45.153" />
			<polyline fill="#1E5DA1" points="236.985,44.924 206.316,17.791 206.520,17.562 237.188,44.693 236.985,44.924" />
			<polyline fill="#1E5DA1" points="237.189,44.693 206.520,17.562 206.723,17.331 237.392,44.465 237.189,44.693" />
			<polyline fill="#205DA0" points="237.392,44.465 206.723,17.331 206.927,17.103 237.595,44.234 237.392,44.465" />
			<polyline fill="#215DA0" points="237.595,44.234 206.927,17.103 207.129,16.873 237.797,44.006 237.595,44.234" />
			<polyline fill="#235D9F" points="237.797,44.006 207.129,16.873 207.333,16.644 238.001,43.775 237.797,44.006" />
			<polyline fill="#255C9F" points="238.001,43.775 207.333,16.644 207.536,16.413 238.203,43.547 238.001,43.775" />
			<polyline fill="#255C9F" points="238.203,43.547 207.536,16.413 207.739,16.185 238.407,43.316 238.203,43.547" />
			<polyline fill="#265C9E" points="238.407,43.316 207.739,16.185 207.942,15.955 238.610,43.088 238.407,43.316" />
			<polyline fill="#285C9E" points="238.610,43.088 207.942,15.955 208.145,15.726 238.813,42.857 238.610,43.088" />
			<polyline fill="#295C9D" points="238.813,42.857 208.145,15.726 208.348,15.495 239.016,42.628 238.813,42.857" />
			<polyline fill="#2B5B9D" points="239.016,42.628 208.348,15.495 208.552,15.266 239.219,42.398 239.016,42.628" />
			<polyline fill="#2B5B9D" points="239.219,42.398 208.552,15.266 208.754,15.037 239.422,42.169 239.219,42.398" />
			<polyline fill="#2C5B9C" points="239.422,42.169 208.754,15.037 208.958,14.808 239.626,41.940 239.422,42.169" />
			<polyline fill="#2D5B9C" points="239.626,41.940 208.958,14.808 209.159,14.577 239.828,41.710 239.626,41.940" />
			<polyline fill="#2E5B9B" points="239.828,41.710 209.159,14.577 209.363,14.348 240.031,41.480 239.828,41.710" />
			<polyline fill="#2F5A9B" points="240.031,41.480 209.363,14.348 209.566,14.118 240.234,41.251 240.031,41.480" />
			<polyline fill="#2F5A9B" points="240.234,41.251 209.566,14.118 209.770,13.889 240.438,41.022 240.234,41.251" />
			<polyline fill="#305A9A" points="240.438,41.022 209.770,13.889 209.973,13.659 240.641,40.792 240.438,41.022" />
			<polyline fill="#315A9A" points="240.641,40.792 209.973,13.659 210.176,13.430 240.844,40.563 240.641,40.792" />
			<polyline fill="#325999" points="240.844,40.563 210.176,13.430 210.379,13.200 241.047,40.333 240.844,40.563" />
			<polyline fill="#335998" points="241.047,40.333 210.379,13.200 210.582,12.971 241.250,40.104 241.047,40.333" />
			<polyline fill="#335998" points="241.250,40.104 210.582,12.971 210.785,12.741 241.454,39.874 241.250,40.104" />
			<polyline fill="#345998" points="241.454,39.874 210.785,12.741 210.987,12.512 241.656,39.645 241.454,39.874" />
			<polyline fill="#355997" points="241.656,39.645 210.988,12.512 211.191,12.283 241.859,39.415 241.656,39.645" />
			<polyline fill="#365897" points="241.859,39.415 211.191,12.283 211.395,12.053 242.062,39.186 241.859,39.415" />
			<polyline fill="#375896" points="242.062,39.186 211.395,12.053 211.597,11.823 242.266,38.956 242.062,39.186" />
			<polyline fill="#375896" points="242.266,38.956 211.597,11.823 211.800,11.594 242.469,38.726 242.266,38.956" />
			<polyline fill="#385896" points="242.469,38.726 211.800,11.594 212.004,11.364 242.671,38.497 242.469,38.726" />
			<polyline fill="#395895" points="242.671,38.497 212.004,11.364 212.207,11.135 242.874,38.268 242.671,38.497" />
			<polyline fill="#395795" points="242.874,38.268 212.207,11.135 212.410,10.904 243.077,38.038 242.874,38.268" />
			<polyline fill="#3A5794" points="243.077,38.038 212.410,10.904 212.612,10.675 243.280,37.809 243.077,38.038" />
			<polyline fill="#3A5794" points="243.280,37.809 212.612,10.675 212.815,10.445 243.483,37.578 243.280,37.809" />
			<polyline fill="#3B5794" points="243.483,37.578 212.815,10.445 213.019,10.217 243.686,37.350 243.483,37.578" />
			<polyline fill="#3C5793" points="243.686,37.350 213.019,10.216 213.222, 9.987 243.890,37.121 243.686,37.350" />
			<polyline fill="#3C5693" points="243.890,37.120 213.222, 9.987 213.425, 9.757 244.093,36.890 243.890,37.120" />
			<polyline fill="#3D5692" points="244.093,36.890 213.425, 9.757 213.628, 9.528 244.296,36.661 244.093,36.890" />
			<polyline fill="#3D5692" points="244.296,36.661 213.628, 9.528 213.831, 9.298 244.500,36.431 244.296,36.661" />
			<polyline fill="#3E5692" points="244.500,36.431 213.831, 9.298 214.034, 9.068 244.702,36.201 244.500,36.431" />
			<polyline fill="#3F5691" points="244.702,36.201 214.034, 9.068 214.237, 8.840 244.905,35.973 244.702,36.201" />
			<polyline fill="#3F5591" points="244.905,35.973 214.237, 8.840 214.440, 8.609 245.108,35.742 244.905,35.973" />
			<polyline fill="#405590" points="245.108,35.742 214.440, 8.609 214.644, 8.381 245.312,35.513 245.108,35.742" />
			<polyline fill="#405590" points="245.312,35.513 214.644, 8.381 214.847, 8.150 245.515,35.283 245.312,35.513" />
			<polyline fill="#40558F" points="245.515,35.283 214.847, 8.150 215.050, 7.921 245.717,35.054 245.515,35.283" />
			<polyline fill="#41558F" points="245.717,35.054 215.050, 7.921 215.253, 7.691 245.920,34.825 245.717,35.054" />
			<polyline fill="#42548E" points="245.920,34.825 215.253, 7.691 215.455, 7.462 246.124,34.595 245.920,34.825" />
			<polyline fill="#42548E" points="246.124,34.595 215.457, 7.462 215.658, 7.232 246.326,34.365 246.124,34.595" />
			<polyline fill="#42548E" points="246.326,34.365 215.658, 7.232 215.861, 7.004 246.529,34.136 246.326,34.365" />
			<polyline fill="#43548D" points="246.529,34.136 215.861, 7.004 216.064, 6.773 246.732,33.906 246.529,34.136" />
			<polyline fill="#43538D" points="246.732,33.906 216.064, 6.773 216.269, 6.544 246.936,33.677 246.732,33.906" />
			<polyline fill="#44538C" points="246.936,33.677 216.269, 6.544 216.471, 6.314 247.139,33.447 246.936,33.677" />
			<polyline fill="#44538C" points="247.139,33.447 216.471, 6.314 216.674, 6.085 247.342,33.218 247.139,33.447" />
			<polyline fill="#44538C" points="247.342,33.218 216.674, 6.085 216.876, 5.855 247.545,32.987 247.342,33.218" />
			<polyline fill="#45528B" points="247.545,32.987 216.876, 5.855 217.080, 5.625 247.748,32.759 247.545,32.987" />
			<polyline fill="#45528A" points="247.748,32.759 217.080, 5.625 217.282, 5.396 247.952,32.529 247.748,32.759" />
			<polyline fill="#46528A" points="247.952,32.529 217.283, 5.396 217.485, 5.167 248.154,32.299 247.952,32.529" />
			<polyline fill="#465189" points="248.154,32.299 217.485, 5.167 217.690, 4.938 248.357,32.070 248.154,32.299" />
			<polyline fill="#475189" points="248.357,32.070 217.690, 4.938 217.893, 4.707 248.560,31.842 248.357,32.070" />
			<polyline fill="#475189" points="248.560,31.842 217.893, 4.707 218.096, 4.478 248.764,31.611 248.560,31.842" />
			<polyline fill="#475188" points="248.764,31.611 218.096, 4.478 218.298, 4.249 248.967,31.382 248.764,31.611" />
			<polyline fill="#475188" points="248.967,31.382 218.299, 4.249 218.502, 4.019 249.170,31.151 248.967,31.382" />
			<polyline fill="#485087" points="249.170,31.151 218.502, 4.019 218.705, 3.790 249.373,30.922 249.170,31.151" />
			<polyline fill="#485087" points="249.373,30.922 218.705, 3.790 218.908, 3.560 249.576,30.693 249.373,30.922" />
			<polyline fill="#485087" points="249.576,30.693 218.908, 3.560 219.111, 3.330 249.779,30.463 249.576,30.693" />
			<polyline fill="#495086" points="249.779,30.463 219.111, 3.330 219.314, 3.102 249.981,30.234 249.779,30.463" />
			<polyline fill="#494F85" points="249.981,30.234 219.314, 3.102 219.517, 2.872 250.185,30.004 249.981,30.234" />
			<polyline fill="#494F85" points="250.185,30.004 219.517, 2.872 219.720, 2.642 250.389,29.774 250.185,30.004" />
			<polyline fill="#4A4F84" points="250.389,29.774 219.720, 2.642 219.923, 2.413 250.591,29.545 250.389,29.774" />
			<polyline fill="#4A4F84" points="250.591,29.545 219.923, 2.413 220.126, 2.183 250.795,29.315 250.591,29.545" />
			<polyline fill="#4A4E84" points="250.795,29.315 220.126, 2.183 220.330, 1.954 250.996,29.087 250.795,29.315" />
			<polyline fill="#4A4E83" points="250.996,29.087 220.329, 1.954 220.533, 1.724 251.200,28.856 250.996,29.087" />
			<polyline fill="#4B4E83" points="251.200,28.856 220.533, 1.724 220.736, 1.494 251.403,28.627 251.200,28.856" />
			<polyline fill="#4B4E82" points="251.403,28.627 220.736, 1.494 220.938, 1.265 251.606,28.397 251.403,28.627" />
			<polyline fill="#4B4E82" points="251.606,28.396 220.938, 1.265 221.142, 1.036 251.811,28.168 251.606,28.396" />
			<polyline fill="#4B4D82" points="251.811,28.168 221.142, 1.036 221.345, 0.806 252.013,27.938 251.811,28.168" />
			<polyline fill="#4C4D81" points="252.013,27.938 221.345, 0.806 221.548, 0.576 252.216,27.709 252.013,27.938" />
			<polyline fill="#4C4D80" points="252.216,27.709 221.548, 0.576 221.751, 0.347 252.419,27.479 252.216,27.709" />
			<polyline fill="#4C4C80" points="252.419,27.479 221.751, 0.347 221.954, 0.117 252.622,27.251 252.419,27.479" />
			<polyline fill="#4C4C80" points="252.622,27.251 221.955, 0.117 222.156,-0.112 252.824,27.020 252.622,27.251" />
			<polyline fill="#4D4C7F" points="252.824,27.020 222.156,-0.112 222.360,-0.342 253.028,26.791 252.824,27.020" />
			<polyline fill="#4D4C7F" points="253.028,26.791 222.360,-0.342 222.563,-0.571 253.231,26.562 253.028,26.791" />
			<polyline fill="#4D4B7E" points="253.231,26.562 222.563,-0.571 222.767,-0.801 253.435,26.332 253.231,26.562" />
			<polyline fill="#4D4B7E" points="253.435,26.332 222.767,-0.801 222.969,-1.030 253.637,26.103 253.435,26.332" />
			<polyline fill="#4D4B7E" points="253.637,26.103 222.969,-1.030 223.172,-1.260 253.840,25.873 253.637,26.103" />
			<polyline fill="#4E4B7D" points="253.840,25.873 223.172,-1.260 223.376,-1.489 254.043,25.644 253.840,25.873" />
			<polyline fill="#4E4B7D" points="254.043,25.644 223.376,-1.489 223.578,-1.719 254.246,25.414 254.043,25.644" />
			<polyline fill="#4E4A7C" points="254.246,25.414 223.578,-1.719 223.781,-1.949 254.449,25.184 254.246,25.414" />
			<polyline fill="#4E4A7B" points="254.449,25.184 223.781,-1.949 223.984,-2.178 254.653,24.954 254.449,25.184" />
			<polyline fill="#4E4A7B" points="254.653,24.954 223.984,-2.178 224.188,-2.407 254.855,24.726 254.653,24.954" />
			<polyline fill="#4E4A7B" points="254.855,24.726 224.188,-2.407 224.391,-2.638 255.059,24.495 254.855,24.726" />
			<polyline fill="#4F497A" points="255.059,24.495 224.391,-2.638 224.595,-2.867 255.263,24.267 255.059,24.495" />
			<polyline fill="#4F497A" points="255.263,24.267 224.595,-2.867 255.263,24.267" />
		</g>
	</g>
	<g clip-path="url(#SVGID_6)">
		<g clip-path="url(#SVGID_8)">
			<polyline fill="#EA233A" points="146.663,54.302 131.508,  8.289 146.663, 54.302" />
			<polyline fill="#EA233A" points="146.663,54.302 131.508,  8.289 132.316,  8.021 147.472,54.035 146.663,54.302" />
			<polyline fill="#EA233A" points="147.472,54.035 132.316,  8.021 133.125,  7.756 148.281,53.769 147.472,54.035" />
			<polyline fill="#EA233A" points="148.281,53.769 133.125,  7.756 133.935,  7.489 149.090,53.502 148.281,53.769" />
			<polyline fill="#EA233A" points="149.090,53.502 133.935,  7.489 134.744,  7.223 149.899,53.235 149.090,53.502" />
			<polyline fill="#EA243A" points="149.899,53.235 134.744,  7.223 135.553,  6.956 150.708,52.969 149.899,53.235" />
			<polyline fill="#EA243A" points="150.708,52.969 135.553,  6.956 136.363,  6.689 151.518,52.702 150.708,52.969" />
			<polyline fill="#EA243A" points="151.518,52.702 136.363,  6.689 137.172,  6.423 152.327,52.436 151.518,52.702" />
			<polyline fill="#EA243A" points="152.327,52.436 137.172,  6.423 137.980,  6.156 153.136,52.169 152.327,52.436" />
			<polyline fill="#EA243A" points="153.136,52.169 137.980,  6.156 138.790,  5.891 153.945,51.903 153.136,52.169" />
			<polyline fill="#EA243A" points="153.945,51.903 138.790,  5.891 139.600,  5.623 154.755,51.637 153.945,51.903" />
			<polyline fill="#EA243A" points="154.755,51.637 139.600,  5.623 140.408,  5.356 155.563,51.370 154.755,51.637" />
			<polyline fill="#EA243B" points="155.563,51.370 140.408,  5.356 141.218,  5.091 156.373,51.104 155.563,51.370" />
			<polyline fill="#EA243B" points="156.373,51.104 141.218,  5.091 142.026,  4.824 157.182,50.837 156.373,51.104" />
			<polyline fill="#EA243B" points="157.182,50.837 142.026,  4.824 142.836,  4.558 157.991,50.570 157.182,50.837" />
			<polyline fill="#EA263B" points="157.991,50.570 142.836,  4.558 143.645,  4.291 158.801,50.304 157.991,50.570" />
			<polyline fill="#EA263B" points="158.801,50.304 143.645,  4.291 144.455,  4.025 159.609,50.037 158.801,50.304" />
			<polyline fill="#EA263B" points="159.609,50.037 144.455,  4.025 145.263,  3.758 160.418,49.771 159.609,50.037" />
			<polyline fill="#EA263B" points="160.418,49.771 145.263,  3.758 146.072,  3.492 161.228,49.504 160.418,49.771" />
			<polyline fill="#EA263B" points="161.228,49.504 146.072,  3.492 146.882,  3.225 162.037,49.238 161.228,49.504" />
			<polyline fill="#EA263B" points="162.037,49.238 146.882,  3.225 147.690,  2.958 162.847,48.971 162.037,49.238" />
			<polyline fill="#EA263B" points="162.847,48.971 147.690,  2.958 148.500,  2.691 163.655,48.704 162.847,48.971" />
			<polyline fill="#EA263B" points="163.655,48.704 148.500,  2.691 149.309,  2.426 164.465,48.438 163.655,48.704" />
			<polyline fill="#EA263B" points="164.465,48.438 149.309,  2.426 150.119,  2.159 165.274,48.171 164.465,48.438" />
			<polyline fill="#EA283B" points="165.274,48.171 150.119,  2.159 150.928,  1.893 166.082,47.904 165.274,48.171" />
			<polyline fill="#EA283B" points="166.082,47.904 150.928,  1.893 151.737,  1.626 166.893,47.639 166.082,47.904" />
			<polyline fill="#EA283C" points="166.893,47.639 151.737,  1.626 152.546,  1.359 167.701,47.372 166.893,47.639" />
			<polyline fill="#EA283C" points="167.701,47.372 152.546,  1.359 153.354,  1.093 168.511,47.105 167.701,47.372" />
			<polyline fill="#EA283C" points="168.511,47.105 153.354,  1.093 154.164,  0.826 169.319,46.838 168.511,47.105" />
			<polyline fill="#EA283C" points="169.319,46.838 154.164,  0.826 154.974,  0.560 170.129,46.571 169.319,46.838" />
			<polyline fill="#EA283C" points="170.129,46.571 154.974,  0.560 155.783,  0.293 170.938,46.306 170.129,46.571" />
			<polyline fill="#EA283C" points="170.938,46.306 155.783,  0.293 156.592,  0.026 171.746,46.039 170.938,46.306" />
			<polyline fill="#EA283C" points="171.746,46.039 156.592,  0.026 157.401, -0.239 172.557,45.772 171.746,46.039" />
			<polyline fill="#EA283C" points="172.557,45.772 157.401, -0.239 158.209, -0.507 173.365,45.506 172.557,45.772" />
			<polyline fill="#EA293D" points="173.365,45.506 158.209, -0.507 159.020, -0.773 174.175,45.239 173.365,45.506" />
			<polyline fill="#EA293D" points="174.175,45.239 159.020, -0.773 159.828, -1.039 174.984,44.973 174.175,45.239" />
			<polyline fill="#EA293D" points="174.984,44.973 159.828, -1.039 160.638, -1.307 175.792,44.706 174.984,44.973" />
			<polyline fill="#EA293D" points="175.792,44.706 160.638, -1.307 161.446, -1.573 176.602,44.439 175.792,44.706" />
			<polyline fill="#EA293D" points="176.602,44.439 161.446, -1.573 162.257, -1.840 177.411,44.173 176.602,44.439" />
			<polyline fill="#EA293D" points="177.411,44.173 162.257, -1.840 163.065, -2.105 178.220,43.906 177.411,44.173" />
			<polyline fill="#EA293D" points="178.220,43.906 163.065, -2.105 163.874, -2.372 179.029,43.640 178.220,43.906" />
			<polyline fill="#EA293D" points="179.029,43.640 163.874, -2.372 164.684, -2.640 179.839,43.374 179.029,43.640" />
			<polyline fill="#EA293D" points="179.839,43.374 164.684, -2.640 165.493, -2.905 180.648,43.107 179.839,43.374" />
			<polyline fill="#EA2B3D" points="180.648,43.107 165.493, -2.905 166.302, -3.172 181.457,42.841 180.648,43.107" />
			<polyline fill="#EA2B3D" points="181.457,42.841 166.302, -3.172 167.111, -3.438 182.266,42.574 181.457,42.841" />
			<polyline fill="#EA2B3D" points="182.266,42.574 167.111, -3.438 167.921, -3.705 183.075,42.308 182.266,42.574" />
			<polyline fill="#EA2B3D" points="183.075,42.308 167.921, -3.705 168.729, -3.972 183.884,42.041 183.075,42.308" />
			<polyline fill="#EA2B3E" points="183.884,42.041 168.729, -3.972 169.538, -4.238 184.694,41.775 183.884,42.041" />
			<polyline fill="#EA2B3E" points="184.694,41.774 169.538, -4.238 170.348, -4.505 185.503,41.508 184.694,41.774" />
			<polyline fill="#EA2B3E" points="185.503,41.508 170.348, -4.505 171.156, -4.771 186.313,41.241 185.503,41.508" />
			<polyline fill="#EA2B3E" points="186.313,41.241 171.156, -4.771 171.966, -5.038 187.121,40.975 186.313,41.241" />
			<polyline fill="#EA2B3E" points="187.121,40.975 171.966, -5.038 172.775, -5.304 187.931,40.708 187.121,40.975" />
			<polyline fill="#EA2C3E" points="187.931,40.708 172.775, -5.304 173.584, -5.571 188.739,40.442 187.931,40.708" />
			<polyline fill="#EA2C3E" points="188.739,40.442 173.584, -5.571 174.395, -5.838 189.549,40.175 188.739,40.442" />
			<polyline fill="#EA2C3E" points="189.549,40.175 174.395, -5.838 175.202, -6.104 190.358,39.908 189.549,40.175" />
			<polyline fill="#EA2C3E" points="190.358,39.908 175.202, -6.104 176.012, -6.370 191.167,39.643 190.358,39.908" />
			<polyline fill="#EA2C3E" points="191.167,39.643 176.012, -6.370 176.821, -6.637 191.977,39.376 191.167,39.643" />
			<polyline fill="#EA2C3E" points="191.977,39.376 176.821, -6.637 177.631, -6.904 192.786,39.109 191.977,39.376" />
			<polyline fill="#EA2C3E" points="192.786,39.109 177.631, -6.904 178.439, -7.169 193.595,38.843 192.786,39.109" />
			<polyline fill="#EA2C3E" points="193.595,38.843 178.439, -7.169 179.249, -7.437 194.403,38.575 193.595,38.843" />
			<polyline fill="#EA2C3E" points="194.403,38.575 179.249, -7.437 180.058, -7.703 195.213,38.310 194.403,38.575" />
			<polyline fill="#EA2C3E" points="195.213,38.310 180.058, -7.703 180.867, -7.970 196.021,38.043 195.213,38.310" />
			<polyline fill="#EA2E3F" points="196.021,38.043 180.867, -7.970 181.676, -8.235 196.832,37.776 196.021,38.043" />
			<polyline fill="#EA2E3F" points="196.832,37.776 181.676, -8.235 182.485, -8.502 197.641,37.511 196.832,37.776" />
			<polyline fill="#EA2E3F" points="197.641,37.511 182.485, -8.502 183.295, -8.769 198.449,37.243 197.641,37.511" />
			<polyline fill="#EA2E3F" points="198.449,37.243 183.295, -8.769 184.104, -9.035 199.259,36.977 198.449,37.243" />
			<polyline fill="#EA2E3F" points="199.259,36.977 184.104, -9.035 184.913, -9.302 200.068,36.710 199.259,36.977" />
			<polyline fill="#EA2E3F" points="200.068,36.710 184.913, -9.302 185.723, -9.568 200.877,36.444 200.068,36.710" />
			<polyline fill="#EA2E3F" points="200.877,36.444 185.723, -9.568 186.531, -9.835 201.687,36.178 200.877,36.444" />
			<polyline fill="#EA2E3F" points="201.687,36.178 186.531, -9.835 187.340,-10.101 202.496,35.911 201.687,36.178" />
			<polyline fill="#EA2E3F" points="202.496,35.911 187.340,-10.101 188.150,-10.368 203.306,35.645 202.496,35.911" />
			<polyline fill="#EA2F40" points="203.306,35.645 188.150,-10.368 188.959,-10.635 204.113,35.377 203.306,35.645" />
			<polyline fill="#EA2F40" points="204.113,35.377 188.959,-10.635 189.769,-10.901 204.923,35.111 204.113,35.377" />
			<polyline fill="#EA2F40" points="204.923,35.111 189.769,-10.901 190.577,-11.168 205.731,34.844 204.923,35.111" />
			<polyline fill="#EA2F40" points="205.731,34.844 190.577,-11.168 205.731,34.844" />
		</g>
	</g>
	<g clip-path="url(#SVGID_10)">
		<g clip-path="url(#SVGID_12)">
			<polyline fill="#EA2F40" points="205.733,34.845 190.578,-11.167 191.387,-11.434 206.542,34.580 205.733,34.845" />
			<polyline fill="#EA3643" points="206.542,34.580 191.387,-11.434 192.196,-11.700 207.352,34.313 206.542,34.580" />
			<polyline fill="#EB3C47" points="207.352,34.313 192.196,-11.700 193.005,-11.966 208.161,34.047 207.352,34.313" />
			<polyline fill="#EB424A" points="208.161,34.047 193.005,-11.966 193.814,-12.232 208.970,33.779 208.161,34.047" />
			<polyline fill="#EB484E" points="208.970,33.779 193.814,-12.232 194.623,-12.499 209.778,33.514 208.970,33.779" />
			<polyline fill="#EC4D51" points="209.778,33.514 194.623,-12.499 195.434,-12.767 210.588,33.247 209.778,33.514" />
			<polyline fill="#EC5255" points="210.588,33.247 195.434,-12.767 196.242,-13.032 211.396,32.979 210.588,33.247" />
			<polyline fill="#EC5759" points="211.396,32.979 196.242,-13.032 197.051,-13.299 212.207,32.714 211.396,32.979" />
			<polyline fill="#ED5C5C" points="212.207,32.714 197.051,-13.299 197.860,-13.565 213.016,32.447 212.207,32.714" />
			<polyline fill="#ED6160" points="213.016,32.447 197.860,-13.565 198.669,-13.832 213.825,32.181 213.016,32.447" />
			<polyline fill="#ED6564" points="213.825,32.181 198.669,-13.832 199.479,-14.099 214.634,31.914 213.825,32.181" />
			<polyline fill="#EE6A68" points="214.634,31.914 199.479,-14.099 200.288,-14.365 215.443,31.647 214.634,31.914" />
			<polyline fill="#EE6E6C" points="215.443,31.647 200.288,-14.365 201.098,-14.632 216.252,31.381 215.443,31.647" />
			<polyline fill="#EE7270" points="216.252,31.381 201.098,-14.632 201.906,-14.898 217.061,31.114 216.252,31.381" />
			<polyline fill="#EF7674" points="217.061,31.114 201.906,-14.898 202.715,-15.165 217.871,30.848 217.061,31.114" />
			<polyline fill="#EF7A79" points="217.871,30.848 202.715,-15.165 203.524,-15.431 218.680,30.582 217.871,30.848" />
			<polyline fill="#EF7E7D" points="218.680,30.581 203.524,-15.431 204.334,-15.698 219.489,30.315 218.680,30.581" />
			<polyline fill="#F08282" points="219.489,30.315 204.334,-15.698 205.143,-15.965 220.298,30.048 219.489,30.315" />
			<polyline fill="#F08586" points="220.298,30.048 205.143,-15.965 205.952,-16.230 221.107,29.781 220.298,30.048" />
			<polyline fill="#F08A8B" points="221.107,29.781 205.952,-16.230 206.761,-16.497 221.916,29.516 221.107,29.781" />
			<polyline fill="#F18D8F" points="221.916,29.516 206.761,-16.497 207.571,-16.764 222.726,29.249 221.916,29.516" />
			<polyline fill="#F19194" points="222.726,29.249 207.571,-16.764 208.380,-17.030 223.535,28.982 222.726,29.249" />
			<polyline fill="#F19598" points="223.535,28.982 208.380,-17.030 209.188,-17.297 224.344,28.716 223.535,28.982" />
			<polyline fill="#F1999D" points="224.344,28.716 209.188,-17.297 209.998,-17.563 225.153,28.450 224.344,28.716" />
			<polyline fill="#F29CA2" points="225.153,28.450 209.998,-17.563 210.808,-17.830 225.963,28.183 225.153,28.450" />
			<polyline fill="#F2A1A8" points="225.963,28.183 210.808,-17.830 211.616,-18.097 226.771,27.916 225.963,28.183" />
			<polyline fill="#F3A5AD" points="226.771,27.916 211.616,-18.097 212.426,-18.363 227.581,27.649 226.771,27.916" />
			<polyline fill="#F3A5AD" points="227.581,27.649 212.426,-18.363 227.581,27.649   "/>
		</g>
	</g>
	<g clip-path="url(#SVGID_14)">
		<g clip-path="url(#SVGID_16)">
			<polyline fill="#F3A5AD" points="227.581,27.649 212.427,-18.362 213.234,-18.630 228.390,27.383 227.581,27.649" />
			<polyline fill="#F29FA6" points="228.390,27.383 213.234,-18.630 214.044,-18.896 229.199,27.116 228.390,27.383" />
			<polyline fill="#F29A9F" points="229.199,27.116 214.044,-18.896 214.853,-19.162 230.009,26.850 229.199,27.116" />
			<polyline fill="#F19598" points="230.009,26.850 214.853,-19.162 215.662,-19.430 230.817,26.584 230.009,26.850" />
			<polyline fill="#F19092" points="230.817,26.584 215.662,-19.430 216.472,-19.695 231.627,26.317 230.817,26.584" />
			<polyline fill="#F08B8C" points="231.627,26.317 216.472,-19.696 217.281,-19.961 232.436,26.051 231.627,26.317" />
			<polyline fill="#F08586" points="232.436,26.050 217.281,-19.961 218.090,-20.229 233.245,25.783 232.436,26.050" />
			<polyline fill="#F0807F" points="233.245,25.783 218.090,-20.229 218.899,-20.495 234.055,25.518 233.245,25.783" />
			<polyline fill="#EF7A79" points="234.055,25.518 218.899,-20.495 219.709,-20.762 234.863,25.251 234.055,25.518" />
			<polyline fill="#EF7573" points="234.863,25.251 219.709,-20.762 220.517,-21.028 235.673,24.984 234.863,25.251" />
			<polyline fill="#EE6F6E" points="235.673,24.984 220.517,-21.028 221.327,-21.294 236.481,24.718 235.673,24.984" />
			<polyline fill="#EE6A69" points="236.481,24.718 221.327,-21.294 222.136,-21.561 237.292,24.452 236.481,24.718" />
			<polyline fill="#ED6463" points="237.292,24.452 222.136,-21.561 222.945,-21.828 238.101,24.186 237.292,24.452" />
			<polyline fill="#ED5D5E" points="238.101,24.186 222.945,-21.828 223.754,-22.094 238.909,23.919 238.101,24.186" />
			<polyline fill="#EC5759" points="238.909,23.919 223.754,-22.094 224.563,-22.360 239.719,23.651 238.909,23.919" />
			<polyline fill="#EC5054" points="239.719,23.651 224.563,-22.360 225.372,-22.627 240.527,23.385 239.719,23.651" />
			<polyline fill="#EB494F" points="240.527,23.385 225.372,-22.627 226.182,-22.894 241.337,23.119 240.527,23.385" />
			<polyline fill="#EB424A" points="241.337,23.119 226.182,-22.894 226.991,-23.160 242.146,22.853 241.337,23.119" />
			<polyline fill="#EB424A" points="242.146,22.853 226.991,-23.160 242.146,22.853" />
		</g>
	</g>
	<g clip-path="url(#SVGID_18)">
		<g clip-path="url(#SVGID_20)">
			<polyline fill="#EB424A" points="242.146,22.853 226.991,-23.159 227.800,-23.426 242.954,22.587 242.146,22.853" />
			<polyline fill="#EB3E48" points="242.954,22.587 227.800,-23.426 228.609,-23.692 243.765,22.320 242.954,22.587" />
			<polyline fill="#EB3C47" points="243.765,22.320 228.609,-23.692 229.419,-23.960 244.573,22.053 243.765,22.320" />
			<polyline fill="#EB3945" points="244.573,22.053 229.419,-23.960 230.229,-24.226 245.383,21.786 244.573,22.053" />
			<polyline fill="#EA3643" points="245.383,21.786 230.229,-24.226 231.036,-24.492 246.191,21.521 245.383,21.786" />
			<polyline fill="#EA3241" points="246.191,21.521 231.036,-24.492 231.846,-24.760 247.001,21.254 246.191,21.521" />
			<polyline fill="#EA2F3F" points="247.001,21.254 231.846,-24.760 232.655,-25.025 247.810,20.986 247.001,21.254" />
			<polyline fill="#EA2B3D" points="247.810,20.986 232.655,-25.025 233.465,-25.292 248.619,20.720 247.810,20.986" />
			<polyline fill="#EA283B" points="248.619,20.720 233.465,-25.292 234.273,-25.559 249.429,20.454 248.619,20.720" />
			<polyline fill="#EA233A" points="249.429,20.454 234.273,-25.559 235.083,-25.825 250.238,20.188 249.429,20.454" />
			<polyline fill="#EA233A" points="250.238,20.188 235.083,-25.825 250.238,20.188" />
		</g>
	</g>
</svg>