<?xml version="1.0" encoding="UTF-8" standalone="no"?>
<svg
   xmlns:dc="http://purl.org/dc/elements/1.1/"
   xmlns:cc="http://creativecommons.org/ns#"
   xmlns:rdf="http://www.w3.org/1999/02/22-rdf-syntax-ns#"
   xmlns:svg="http://www.w3.org/2000/svg"
   xmlns="http://www.w3.org/2000/svg"
   width="500"
   height="140"
   viewBox="0 0 132.29166 37.041668"
   version="1.1"
   id="svg8">
  <defs
     id="defs2" />
  <metadata
     id="metadata5">
    <rdf:RDF>
      <cc:Work
         rdf:about="">
        <dc:format>image/svg+xml</dc:format>
        <dc:type
           rdf:resource="http://purl.org/dc/dcmitype/StillImage" />
        <dc:title></dc:title>
      </cc:Work>
    </rdf:RDF>
  </metadata>
  <g
     id="layer1">
    <g
       aria-label="Bering Air"
       transform="scale(0.93104894,1.0740574)"
       id="text849"
       style="font-style:italic;font-variant:normal;font-weight:bold;font-stretch:normal;font-size:31.6416px;line-height:1.25;font-family:'Times New Roman';-inkscape-font-specification:'Times New Roman, Bold Italic';fill:#482f2a;fill-opacity:1;stroke-width:0.79104">
      <path
         d="M 6.7519302,5.1812509 H 15.03313 q 2.76555,0 3.9552,0.29355 1.56045,0.3708 2.4102,1.4523 0.8652,1.06605 0.8652,2.4256499 0,1.1124002 -0.6798,2.2711502 -0.6798,1.15875 -2.0394,1.9158 -1.34415,0.7416 -4.1406,1.37505 2.9046,0.81885 4.03245,2.1012 1.12785,1.28235 1.12785,2.98185 0,1.59135 -1.1124,3.1518 -1.1124,1.545 -2.95095,2.27115 -1.83855,0.7107 -6.7361999,0.7107 H 1.0508802 l 0.20085,-0.57165 q 1.2669,0 1.80765,-0.23175 0.5562,-0.23175 0.88065,-0.7107 0.3399,-0.4944 0.78795,-2.0394 l 3.7389,-12.8853002 q 0.57165,-1.9621499 0.57165,-2.6264999 0,-0.54075 -0.4635,-0.8961 -0.44805,-0.35535 -1.9776,-0.41715 z M 11.49508,14.435801 q 2.1012,-0.0309 3.3063,-0.66435 1.22055,-0.63345 1.9467,-2.0703 0.7416,-1.4523 0.7416,-2.7346502 0,-1.2050999 -0.75705,-1.9621499 -0.75705,-0.75705 -2.02395,-0.72615 l -0.84975,0.0309 z m -0.3708,1.15875 -2.6728498,9.31635 q 0.7725,0.0309 1.1587499,0.0309 3.4453499,0 4.7894999,-1.9158 1.34415,-1.93125 1.34415,-4.12515 0,-1.0506 -0.5253,-1.854 -0.50985,-0.81885 -1.3287,-1.12785 -0.81885,-0.32445 -2.76555,-0.32445 z"
         style="font-style:italic;font-variant:normal;font-weight:bold;font-stretch:normal;font-family:'Times New Roman';-inkscape-font-specification:'Times New Roman, Bold Italic';fill:#482f2a;fill-opacity:1;stroke-width:0.79104"
         id="path893" />
      <path
         d="m 27.90298,20.337701 q -0.13905,1.00425 -0.13905,1.65315 0,1.15875 0.66435,1.854 0.6798,0.69525 1.80765,0.69525 1.0815,0 2.163,-0.5253 1.09695,-0.5253 2.5338,-1.83855 l 0.4635,0.41715 q -1.77675,2.14755 -3.4608,3.0591 -1.68405,0.91155 -3.72345,0.91155 -2.58015,0 -3.56895,-1.236 -0.9888,-1.236 -0.9888,-2.85825 0,-2.5338 1.46775,-5.0676 1.4832,-2.5338 4.017,-4.06335 2.54925,-1.52955 5.11395,-1.52955 1.2978,0 1.96215,0.618 0.66435,0.618 0.66435,1.56045 0,1.12785 -0.6489,2.1939 -0.8961,1.4523 -2.2557,2.3484 -1.3596,0.88065 -3.04365,1.34415 -1.12785,0.309 -3.0282,0.4635 z m 0.13905,-0.8034 q 1.3596,-0.20085 2.1012,-0.54075 0.75705,-0.35535 1.46775,-1.1124 0.72615,-0.7725 1.25145,-1.93125 0.5253,-1.1742 0.5253,-2.1939 0,-0.4326 -0.2472,-0.6798 -0.23175,-0.2472 -0.60255,-0.2472 -0.7416,0 -1.6686,1.03515 -1.6995,1.8849 -2.82735,5.67015 z"
         style="font-style:italic;font-variant:normal;font-weight:bold;font-stretch:normal;font-family:'Times New Roman';-inkscape-font-specification:'Times New Roman, Bold Italic';fill:#482f2a;fill-opacity:1;stroke-width:0.79104"
         id="path895" />
      <path
         d="m 44.49628,11.809301 -2.33295,8.6829 q 2.8737,-6.34995 4.326,-7.8177 0.84975,-0.8652 1.7922,-0.8652 0.6489,0 1.0506,0.47895 0.4017,0.4635 0.4017,1.3287 0,1.49865 -0.72615,2.51835 -0.4635,0.6489 -1.03515,0.6489 -0.618,0 -0.927,-0.57165 -0.309,-0.57165 -0.4326,-0.66435 -0.1236,-0.10815 -0.26265,-0.10815 -0.1545,0 -0.32445,0.0927 -0.3399,0.1854 -0.8961,0.91155 -0.54075,0.7107 -1.34415,2.39475 -0.8034,1.68405 -1.25145,2.85825 -0.44805,1.15875 -1.25145,4.43415 h -3.738899 l 2.54925,-10.24335 q 0.2781,-1.1433 0.2781,-1.5141 0,-0.41715 -0.1545,-0.6489 -0.13905,-0.23175 -0.4017,-0.3399 -0.2472,-0.10815 -1.0506,-0.10815 l 0.13905,-0.44805 4.665899,-1.0197 z"
         style="font-style:italic;font-variant:normal;font-weight:bold;font-stretch:normal;font-family:'Times New Roman';-inkscape-font-specification:'Times New Roman, Bold Italic';fill:#482f2a;fill-opacity:1;stroke-width:0.79104"
         id="path897" />
      <path
         d="m 56.423682,4.7023009 q 0.9579,0 1.6068,0.66435 0.66435,0.66435 0.66435,1.6068 0,0.94245 -0.66435,1.6067999 -0.66435,0.66435 -1.6068,0.66435 -0.926999,0 -1.591349,-0.66435 -0.66435,-0.6643499 -0.66435,-1.6067999 0,-0.94245 0.6489,-1.6068 0.66435,-0.66435 1.606799,-0.66435 z m 0.9579,7.1070001 -3.167249,10.98495 q -0.26265,0.94245 -0.26265,1.236 0,0.16995 0.13905,0.32445 0.13905,0.13905 0.29355,0.13905 0.26265,0 0.5253,-0.23175 0.69525,-0.57165 1.668599,-2.0703 l 0.5253,0.309 q -2.332949,4.06335 -4.959449,4.06335 -1.00425,0 -1.6068,-0.5562 -0.5871,-0.57165 -0.5871,-1.43685 0,-0.57165 0.26265,-1.4523 l 2.14755,-7.3851 q 0.309,-1.06605 0.309,-1.6068 0,-0.3399 -0.29355,-0.60255 -0.29355,-0.26265 -0.8034,-0.26265 -0.23175,0 -0.5562,0.01545 l 0.20085,-0.618 5.237549,-0.84975 z"
         style="font-style:italic;font-variant:normal;font-weight:bold;font-stretch:normal;font-family:'Times New Roman';-inkscape-font-specification:'Times New Roman, Bold Italic';fill:#482f2a;fill-opacity:1;stroke-width:0.79104"
         id="path899" />
      <path
         d="m 66.558879,11.809301 -1.9158,6.62805 q 1.93125,-2.9046 2.88915,-3.97065 1.40595,-1.545 2.42565,-2.1012 1.0197,-0.5562 1.9158,-0.5562 0.8034,0 1.37505,0.60255 0.57165,0.5871 0.57165,1.545 0,0.8652 -0.3708,2.1012 l -1.9776,6.59715 q -0.2472,0.8652 -0.2472,1.12785 0,0.1545 0.10815,0.2781 0.1236,0.1236 0.2472,0.1236 0.1545,0 0.32445,-0.1236 0.54075,-0.44805 1.09695,-1.2669 0.13905,-0.2163 0.44805,-0.6489 l 0.5871,0.35535 q -2.27115,3.81615 -4.77405,3.81615 -0.9579,0 -1.49865,-0.4944 -0.54075,-0.4944 -0.54075,-1.236 0,-0.6489 0.3708,-1.93125 l 1.93125,-6.59715 q 0.20085,-0.6489 0.20085,-0.9579 0,-0.16995 -0.13905,-0.29355 -0.13905,-0.13905 -0.32445,-0.13905 -0.5871,0 -1.4214,0.8034 -2.1321,2.0394 -4.12515,6.07185 l -1.2669,4.58865 h -3.93975 l 2.88915,-9.9189 q 0.41715,-1.46775 0.41715,-2.08575 0,-0.26265 -0.1236,-0.4326 -0.1236,-0.1854 -0.4017,-0.2781 -0.2781,-0.10815 -1.0506,-0.10815 l 0.16995,-0.5871 5.20665,-0.91155 z"
         style="font-style:italic;font-variant:normal;font-weight:bold;font-stretch:normal;font-family:'Times New Roman';-inkscape-font-specification:'Times New Roman, Bold Italic';fill:#482f2a;fill-opacity:1;stroke-width:0.79104"
         id="path901" />
      <path
         d="m 87.941678,12.751751 h 4.1097 l -0.4944,1.6995 h -2.1321 q 0.4944,0.91155 0.4944,1.7304 0,1.40595 -0.7725,2.5956 -0.75705,1.18965 -2.2557,1.90035 -1.4832,0.7107 -3.3063,0.7107 -0.47895,0 -1.06605,-0.0618 -0.57165,-0.07725 -1.25145,-0.20085 -1.0197,0.5253 -1.28235,0.8343 -0.1854,0.2163 -0.1854,0.44805 0,0.2781 0.23175,0.47895 0.4017,0.35535 1.18965,0.5253 3.1518,0.6798 4.15605,1.09695 1.37505,0.57165 2.0703,1.46775 0.7107,0.8961 0.7107,2.163 0,1.93125 -1.77675,3.3681 -1.77675,1.4523 -5.5002,1.4523 -3.75435,0 -5.5311,-1.236 -1.28235,-0.8961 -1.28235,-2.1321 0,-0.94245 0.84975,-1.74585 0.8343,-0.8034 3.59985,-1.4214 -0.94245,-0.5253 -1.2669,-0.9579 -0.44805,-0.5871 -0.44805,-1.22055 0,-1.03515 0.81885,-1.8231 0.8343,-0.78795 2.781,-1.56045 -1.5141,-0.60255 -2.1939,-1.545 -0.66435,-0.9579 -0.66435,-2.2248 0,-1.34415 0.8034,-2.54925 0.81885,-1.22055 2.39475,-1.9776 1.59135,-0.75705 3.6462,-0.75705 1.31325,0 2.33295,0.29355 0.5253,0.1545 1.22055,0.6489 z m -3.22905,-0.1854 q -0.75705,0 -1.28235,0.4944 -0.8343,0.75705 -1.46775,2.5338 -0.618,1.77675 -0.618,3.3681 0,0.75705 0.4326,1.2051 0.44805,0.4326 1.09695,0.4326 0.63345,0 1.09695,-0.4326 0.88065,-0.84975 1.52955,-2.70375 0.6489,-1.86945 0.6489,-3.38355 0,-0.6798 -0.41715,-1.09695 -0.41715,-0.41715 -1.0197,-0.41715 z m -5.33025,14.214 q -1.46775,0.57165 -2.0085,1.236 -0.5253,0.66435 -0.5253,1.43685 0,1.00425 1.0506,1.80765 1.06605,0.81885 3.38355,0.81885 1.93125,0 2.79645,-0.7107 0.8652,-0.69525 0.8652,-1.6377 0,-0.8343 -0.8034,-1.3596 -0.78795,-0.5253 -3.04365,-1.09695 -1.0506,-0.2781 -1.71495,-0.4944 z"
         style="font-style:italic;font-variant:normal;font-weight:bold;font-stretch:normal;font-family:'Times New Roman';-inkscape-font-specification:'Times New Roman, Bold Italic';fill:#482f2a;fill-opacity:1;stroke-width:0.79104"
         id="path903" />
      <path
         d="m 111.08578,19.379801 h -6.489 l -1.2978,1.6068 -1.4832,1.77675 q -0.4326,0.57165 -0.63345,1.03515 -0.1545,0.35535 -0.1545,0.7107 0,0.3708 0.38625,0.69525 0.4017,0.309 1.31325,0.35535 v 0.57165 h -6.257253 l 0.1545,-0.57165 q 0.8343,-0.13905 1.4832,-0.5871 0.8652,-0.618 2.487453,-2.54925 L 115.44268,4.7023009 h 0.69525 l -0.69525,17.1495001 q -0.0463,1.34415 -0.0463,1.62225 0,1.0506 0.41715,1.52955 0.4326,0.47895 1.4214,0.5562 l -0.1545,0.57165 h -9.06915 l 0.16995,-0.57165 q 1.34415,-0.1236 1.545,-0.2163 0.4326,-0.2163 0.78795,-0.8961 0.35535,-0.69525 0.4326,-2.39475 z m 0,-1.2669 0.4017,-6.8289 -5.82465,6.8289 z"
         style="font-style:italic;font-variant:normal;font-weight:bold;font-stretch:normal;font-family:'Times New Roman';-inkscape-font-specification:'Times New Roman, Bold Italic';fill:#482f2a;fill-opacity:1;stroke-width:0.79104"
         id="path905" />
      <path
         d="m 126.47398,4.7023009 q 0.9579,0 1.6068,0.66435 0.66435,0.66435 0.66435,1.6068 0,0.94245 -0.66435,1.6067999 -0.66435,0.66435 -1.6068,0.66435 -0.927,0 -1.59135,-0.66435 -0.66435,-0.6643499 -0.66435,-1.6067999 0,-0.94245 0.6489,-1.6068 0.66435,-0.66435 1.6068,-0.66435 z m 0.9579,7.1070001 -3.16725,10.98495 q -0.26265,0.94245 -0.26265,1.236 0,0.16995 0.13905,0.32445 0.13905,0.13905 0.29355,0.13905 0.26265,0 0.5253,-0.23175 0.69525,-0.57165 1.6686,-2.0703 l 0.5253,0.309 q -2.33295,4.06335 -4.95945,4.06335 -1.00425,0 -1.6068,-0.5562 -0.5871,-0.57165 -0.5871,-1.43685 0,-0.57165 0.26265,-1.4523 l 2.14755,-7.3851 q 0.309,-1.06605 0.309,-1.6068 0,-0.3399 -0.29355,-0.60255 -0.29355,-0.26265 -0.8034,-0.26265 -0.23175,0 -0.5562,0.01545 l 0.20085,-0.618 5.23755,-0.84975 z"
         style="font-style:italic;font-variant:normal;font-weight:bold;font-stretch:normal;font-family:'Times New Roman';-inkscape-font-specification:'Times New Roman, Bold Italic';fill:#482f2a;fill-opacity:1;stroke-width:0.79104"
         id="path907" />
      <path
         d="m 135.65128,11.809301 -2.33295,8.6829 q 2.8737,-6.34995 4.326,-7.8177 0.84975,-0.8652 1.7922,-0.8652 0.6489,0 1.0506,0.47895 0.4017,0.4635 0.4017,1.3287 0,1.49865 -0.72615,2.51835 -0.4635,0.6489 -1.03515,0.6489 -0.618,0 -0.927,-0.57165 -0.309,-0.57165 -0.4326,-0.66435 -0.1236,-0.10815 -0.26265,-0.10815 -0.1545,0 -0.32445,0.0927 -0.3399,0.1854 -0.8961,0.91155 -0.54075,0.7107 -1.34415,2.39475 -0.8034,1.68405 -1.25145,2.85825 -0.44805,1.15875 -1.25145,4.43415 h -3.7389 l 2.54925,-10.24335 q 0.2781,-1.1433 0.2781,-1.5141 0,-0.41715 -0.1545,-0.6489 -0.13905,-0.23175 -0.4017,-0.3399 -0.2472,-0.10815 -1.0506,-0.10815 l 0.13905,-0.44805 4.6659,-1.0197 z"
         style="font-style:italic;font-variant:normal;font-weight:bold;font-stretch:normal;font-family:'Times New Roman';-inkscape-font-specification:'Times New Roman, Bold Italic';fill:#482f2a;fill-opacity:1;stroke-width:0.79104"
         id="path909" />
    </g>
    <path
       style="fill:none;stroke:#482f2a;stroke-width:1.97787;stroke-linecap:butt;stroke-linejoin:miter;stroke-miterlimit:4;stroke-dasharray:none;stroke-opacity:1"
       d="M 6.436953,2.2577547 H 131.75145"
       id="path851" />
    <path
       style="fill:none;stroke:#482f2a;stroke-width:1.97787;stroke-linecap:butt;stroke-linejoin:miter;stroke-miterlimit:4;stroke-dasharray:none;stroke-opacity:1"
       d="M 0.36279992,31.273534 H 65.216076"
       id="path851-9" />
    <path
       style="fill:none;stroke:#482f2a;stroke-width:1.97787;stroke-linecap:butt;stroke-linejoin:miter;stroke-miterlimit:4;stroke-dasharray:none;stroke-opacity:1"
       d="M 84.232866,31.273534 H 124.88297"
       id="path851-9-2" />
  </g>
</svg>
