<?xml version="1.0" encoding="utf-8"?>
<!-- Generator: Adobe Illustrator 16.0.3, SVG Export Plug-In . SVG Version: 6.00 Build 0)  -->
<!DOCTYPE svg PUBLIC "-//W3C//DTD SVG 1.1//EN" "http://www.w3.org/Graphics/SVG/1.1/DTD/svg11.dtd">
<svg version="1.1" id="Ebene_1" xmlns="http://www.w3.org/2000/svg" xmlns:xlink="http://www.w3.org/1999/xlink" x="0px" y="0px"
	 width="528.293px" height="283.862px" viewBox="0 0 528.293 283.862" enable-background="new 0 0 528.293 283.862"
	 xml:space="preserve">
<g>
	<g>
		<path fill="#1D71B8" d="M38.792,8.502c2.289,0,3.968,0.133,5.038,0.398c1.068,0.267,1.957,0.78,2.664,1.543
			c0.574,0.564,0.956,1.236,1.147,2.016c0.191,0.78,0.212,1.634,0.064,2.563c-0.053,0.332-0.132,0.671-0.238,1.02
			s-0.237,0.705-0.395,1.07c-0.642,1.526-1.505,2.829-2.589,3.907c-1.085,1.079-2.462,1.966-4.133,2.663
			c1.142,0.531,1.943,1.278,2.404,2.239c0.46,0.963,0.587,2.091,0.38,3.384c-0.058,0.366-0.144,0.747-0.256,1.145
			c-0.114,0.398-0.271,0.813-0.473,1.244c-1.018,2.422-2.639,4.529-4.866,6.32c-2.227,1.792-4.637,2.904-7.226,3.334
			c-0.034,0-0.076,0.009-0.128,0.025c-0.053,0.018-0.096,0.025-0.128,0.025c-0.713,0.099-1.464,0.174-2.25,0.224
			c-0.788,0.05-1.729,0.075-2.824,0.075H8.51L22.418,8.502H38.792z M21.652,33.883h6.221c1.559,0,2.748-0.224,3.565-0.671
			c0.818-0.448,1.449-1.236,1.896-2.364c0.092-0.166,0.158-0.323,0.2-0.473c0.04-0.149,0.071-0.29,0.092-0.423
			c0.094-0.796-0.184-1.344-0.833-1.643c-0.649-0.298-1.387-0.464-2.21-0.498c-0.067,0-0.133,0-0.199,0c-0.067,0-0.133,0-0.199,0
			h-6.021L21.652,33.883z M26.889,21.342h4.977c0.199,0,0.389,0,0.572,0c0.182,0,0.375-0.016,0.58-0.049
			c0.801-0.033,1.576-0.207,2.323-0.522c0.747-0.315,1.332-0.971,1.757-1.966c0.054-0.132,0.099-0.256,0.134-0.373
			c0.035-0.116,0.061-0.224,0.077-0.324c0.105-0.663-0.097-1.111-0.606-1.343c-0.511-0.232-1.096-0.365-1.753-0.398
			c-0.161-0.033-0.315-0.05-0.465-0.05s-0.307,0-0.473,0h-5.026L26.889,21.342z"/>
		<path fill="#1D71B8" d="M55.625,39.607c-0.264,0.199-0.528,0.398-0.792,0.597c-1.156,0.796-2.316,1.361-3.48,1.692
			c-1.165,0.331-2.493,0.498-3.986,0.498c-2.19,0-3.811-0.448-4.862-1.344c-1.052-0.896-1.448-2.156-1.188-3.783
			c0.081-0.298,0.165-0.622,0.254-0.97c0.088-0.348,0.209-0.688,0.362-1.021c0.952-2.222,2.387-3.839,4.308-4.853
			c1.919-1.011,3.909-1.733,5.969-2.165c0.723-0.166,1.426-0.315,2.112-0.448c0.684-0.132,1.35-0.249,1.996-0.348
			c1.469-0.266,2.737-0.573,3.806-0.921c1.067-0.349,1.759-0.887,2.074-1.618c0.011-0.066,0.026-0.116,0.049-0.149
			c0.021-0.032,0.038-0.083,0.048-0.149c0.038-0.033,0.062-0.075,0.07-0.125s0.015-0.091,0.02-0.125
			c0.074-0.464-0.077-0.821-0.452-1.07c-0.375-0.249-0.96-0.373-1.756-0.373c-1.129,0-2.091,0.208-2.887,0.622
			c-0.796,0.416-1.354,1.004-1.675,1.767c-0.044,0.067-0.072,0.142-0.085,0.224c-0.014,0.083-0.028,0.174-0.044,0.273h-8.56
			c1.449-3.052,3.388-5.275,5.817-6.668c2.428-1.394,5.601-2.09,9.516-2.09c2.952,0,5.33,0.382,7.133,1.145
			c1.801,0.764,2.5,2.422,2.092,4.977c-0.075,0.465-0.198,0.97-0.367,1.518c-0.17,0.548-0.389,1.137-0.655,1.767l-4.34,10.352
			c-0.217,0.531-0.395,1.021-0.533,1.468c-0.139,0.448-0.236,0.854-0.294,1.219c-0.075,0.465-0.074,0.871,0.004,1.219
			c0.077,0.349,0.257,0.672,0.542,0.971h-9.805c0.004-0.232,0.012-0.489,0.024-0.771c0.011-0.281,0.042-0.572,0.089-0.871
			c0.032-0.2,0.07-0.39,0.116-0.573c0.045-0.182,0.098-0.356,0.158-0.522C56.156,39.192,55.889,39.408,55.625,39.607z M58.35,31.271
			c-0.566,0.216-1.144,0.407-1.734,0.573c-0.314,0.1-0.62,0.191-0.915,0.273c-0.295,0.083-0.597,0.158-0.907,0.224
			c-0.972,0.266-1.84,0.564-2.606,0.896c-0.767,0.332-1.289,0.846-1.565,1.542c-0.05,0.1-0.081,0.191-0.093,0.274
			c-0.014,0.083-0.025,0.158-0.036,0.224c-0.074,0.465,0.065,0.838,0.418,1.12c0.354,0.283,0.895,0.423,1.625,0.423
			c2.023,0,3.595-0.646,4.714-1.941c1.119-1.294,2.026-2.77,2.723-4.429C59.456,30.782,58.915,31.055,58.35,31.271z"/>
		<path fill="#1D71B8" d="M84.938,39.607c-1.168,1.493-2.253,2.787-3.257,3.882c-1.004,1.095-1.985,2.041-2.941,2.837
			c-0.34,0.265-0.688,0.522-1.043,0.771c-0.355,0.249-0.698,0.473-1.028,0.672c-0.33,0.199-0.632,0.373-0.904,0.522
			c-0.273,0.149-0.55,0.273-0.832,0.373c-0.673,0.266-1.421,0.431-2.244,0.498c-0.824,0.066-2.082,0.1-3.773,0.1h-4.828l2.954-6.968
			c0.365,0,0.721,0.008,1.066,0.025c0.346,0.017,0.684,0.025,1.017,0.025c1.062,0,1.898-0.149,2.51-0.448
			c0.611-0.299,1.053-0.78,1.326-1.443c0.087-0.132,0.145-0.282,0.171-0.448c0.026-0.165,0.056-0.348,0.087-0.547
			c0.032-0.199,0.056-0.406,0.074-0.622c0.017-0.215,0.028-0.439,0.033-0.671l0.811-20.355h9.456L81.637,32.54l10.264-14.731h9.456
			L84.938,39.607z"/>
		<path fill="#1D71B8" d="M103.315,32.042c-0.005,0.034-0.013,0.083-0.023,0.15c-0.011,0.066-0.019,0.117-0.024,0.149
			c-0.043,0.067-0.07,0.125-0.078,0.174s-0.017,0.108-0.028,0.174c-0.147,1.128,0.065,1.983,0.636,2.563
			c0.571,0.581,1.47,0.871,2.698,0.871c0.763,0,1.483-0.149,2.162-0.448c0.677-0.299,1.328-0.729,1.948-1.294l8.777,0.199
			c-2.154,2.687-4.632,4.645-7.432,5.873c-2.801,1.228-5.583,1.874-8.347,1.941c-0.067,0-0.133,0-0.199,0c-0.067,0-0.133,0-0.199,0
			c-3.251,0-5.649-0.829-7.192-2.488c-1.544-1.659-2.088-3.915-1.632-6.769c0.095-0.598,0.236-1.22,0.422-1.867
			c0.186-0.646,0.415-1.301,0.687-1.966c1.49-3.516,3.972-6.436,7.446-8.759c3.472-2.322,7.067-3.484,10.783-3.484
			c3.286,0,5.682,0.888,7.19,2.663c1.508,1.775,2.013,4.222,1.516,7.341c-0.117,0.73-0.3,1.518-0.551,2.364
			c-0.251,0.846-0.565,1.717-0.939,2.613H103.315z M113.968,26.567c0.043-0.165,0.075-0.315,0.096-0.447
			c0.154-0.962,0.004-1.692-0.447-2.19c-0.452-0.498-1.191-0.747-2.22-0.747c-1.194,0-2.303,0.34-3.323,1.02
			c-1.021,0.68-1.862,1.635-2.522,2.862h8.262C113.873,26.9,113.924,26.734,113.968,26.567z"/>
		<path fill="#1D71B8" d="M134.492,21.143c1.401-1.294,2.8-2.264,4.197-2.912c1.398-0.647,2.792-0.97,4.187-0.97
			c0.165,0,0.315,0,0.448,0c0.132,0,0.263,0.017,0.39,0.05c0.227,0.033,0.461,0.075,0.702,0.125
			c0.241,0.049,0.519,0.124,0.835,0.224l-3.14,7.515c-0.255-0.066-0.479-0.116-0.673-0.149c-0.194-0.033-0.388-0.066-0.582-0.1
			c-0.161-0.033-0.333-0.05-0.515-0.05c-0.183,0-0.39,0-0.622,0c-2.058,0-3.867,0.581-5.429,1.742
			c-1.563,1.162-2.806,2.87-3.73,5.126l-4.177,9.954h-9.058l9.985-23.889h8.411L134.492,21.143z"/>
		<path fill="#1D71B8" d="M145.344,41.697h-9.057l9.985-23.889h9.057L145.344,41.697z M156.529,14.972h-9.058l2.725-6.47h9.058
			L156.529,14.972z"/>
		<path fill="#1D71B8" d="M158.478,33.934c-0.055,0.133-0.092,0.266-0.113,0.398c-0.021,0.133-0.042,0.266-0.063,0.398
			c-0.133,0.83,0.025,1.452,0.473,1.867c0.447,0.415,1.186,0.622,2.214,0.622c0.863,0,1.615-0.191,2.257-0.573
			c0.64-0.381,1.097-0.903,1.369-1.567c0.054-0.132,0.098-0.249,0.13-0.349c0.032-0.1,0.055-0.182,0.065-0.249
			c0.042-0.266-0.023-0.481-0.196-0.647c-0.172-0.166-0.511-0.332-1.015-0.498c-0.256-0.066-0.542-0.141-0.86-0.224
			c-0.319-0.083-0.702-0.174-1.15-0.274c-0.128-0.032-0.248-0.058-0.361-0.075c-0.114-0.016-0.235-0.041-0.362-0.074
			c-0.188-0.066-0.388-0.116-0.598-0.15c-0.211-0.032-0.427-0.082-0.648-0.149c-1.701-0.365-3.221-0.92-4.561-1.667
			c-1.341-0.747-1.847-2.049-1.517-3.907c0.042-0.265,0.106-0.564,0.193-0.896c0.085-0.331,0.208-0.679,0.366-1.045
			c1-2.322,2.853-4.205,5.556-5.649c2.701-1.443,5.761-2.165,9.179-2.165c2.72,0,4.848,0.341,6.381,1.02
			c1.534,0.681,2.379,1.667,2.539,2.961c0.045,0.133,0.076,0.249,0.094,0.349c0.017,0.1,0.016,0.216-0.006,0.348
			c0.006,0.167,0.004,0.332-0.005,0.498c-0.01,0.166-0.031,0.348-0.062,0.547c-0.037,0.232-0.091,0.515-0.16,0.846
			c-0.07,0.332-0.175,0.73-0.315,1.194h-8.511c0.005-0.033,0.012-0.074,0.02-0.125c0.008-0.049,0.015-0.091,0.021-0.125
			c0.005-0.032,0.012-0.074,0.02-0.124s0.015-0.091,0.02-0.125c0.111-0.697-0.008-1.194-0.359-1.493
			c-0.35-0.298-0.957-0.448-1.819-0.448c-0.83,0-1.56,0.158-2.191,0.473c-0.631,0.315-1.074,0.755-1.33,1.318
			c-0.039,0.034-0.061,0.075-0.069,0.125c-0.008,0.05-0.017,0.108-0.028,0.174c-0.084,0.531,0.229,0.904,0.941,1.12
			s1.585,0.406,2.621,0.572c0.354,0.067,0.733,0.133,1.138,0.199c0.404,0.067,0.816,0.133,1.237,0.199
			c1.058,0.233,2.062,0.54,3.014,0.921c0.951,0.381,1.647,0.954,2.09,1.717c0.256,0.465,0.425,0.97,0.504,1.518
			c0.078,0.547,0.067,1.137-0.034,1.767c-0.047,0.298-0.122,0.605-0.222,0.92c-0.1,0.316-0.21,0.64-0.329,0.971
			c-1.033,2.522-2.956,4.488-5.769,5.897c-2.813,1.411-6.194,2.115-10.143,2.115c-2.721,0-4.891-0.49-6.509-1.468
			c-1.619-0.978-2.429-2.297-2.429-3.957c-0.007-0.166-0.004-0.34,0.009-0.522c0.012-0.182,0.031-0.356,0.058-0.522
			c0.042-0.265,0.105-0.556,0.188-0.871c0.083-0.315,0.21-0.688,0.378-1.12H158.478z"/>
		<path fill="#1D71B8" d="M200.692,31.993c-1.345,3.02-3.591,5.508-6.741,7.465c-3.149,1.958-6.5,2.937-10.049,2.937
			c-3.152,0-5.517-0.878-7.094-2.638c-1.578-1.758-2.144-4.031-1.699-6.818c0.085-0.53,0.211-1.061,0.379-1.592
			c0.167-0.53,0.362-1.078,0.586-1.643c1.555-3.715,4.096-6.751,7.625-9.108c3.528-2.355,7.299-3.533,11.314-3.533
			c3.018,0,5.25,0.73,6.692,2.19c1.443,1.46,1.958,3.484,1.544,6.071c-0.016,0.1-0.042,0.208-0.077,0.324
			c-0.035,0.117-0.061,0.224-0.076,0.324c-0.021,0.133-0.05,0.257-0.084,0.373c-0.036,0.117-0.061,0.224-0.076,0.323l-8.833,0.149
			c0.01-0.066,0.02-0.125,0.028-0.174c0.007-0.05,0.03-0.091,0.069-0.125c0.01-0.066,0.02-0.125,0.028-0.174s0.015-0.091,0.02-0.124
			c0.12-0.962-0.005-1.684-0.376-2.166c-0.371-0.48-0.988-0.722-1.85-0.722c-1.294,0-2.538,0.565-3.729,1.692
			c-1.192,1.128-2.215,2.705-3.069,4.728c-0.217,0.531-0.408,1.045-0.569,1.542c-0.163,0.498-0.278,0.963-0.347,1.394
			c-0.174,1.094-0.069,1.94,0.316,2.538c0.386,0.597,1.027,0.896,1.923,0.896c1.095,0,2.097-0.356,3.008-1.07
			c0.91-0.713,1.728-1.783,2.453-3.21L200.692,31.993z"/>
		<path fill="#1D71B8" d="M216.245,20.297c1.04-0.697,1.968-1.261,2.784-1.692c0.815-0.43,1.606-0.762,2.374-0.995
			c0.629-0.199,1.256-0.34,1.884-0.423c0.627-0.083,1.289-0.125,1.986-0.125c2.256,0,3.853,0.54,4.793,1.618
			c0.938,1.078,1.246,2.53,0.922,4.354c-0.075,0.465-0.176,0.946-0.305,1.443c-0.129,0.498-0.322,1.028-0.578,1.592l-6.526,15.627
			h-9.008l5.066-12.094c0.256-0.563,0.455-1.086,0.598-1.568c0.143-0.48,0.242-0.887,0.295-1.219
			c0.137-0.862,0.018-1.468-0.357-1.816c-0.376-0.348-0.996-0.522-1.857-0.522c-1.261,0-2.368,0.382-3.318,1.145
			c-0.952,0.764-1.768,1.925-2.447,3.484l-5.245,12.591h-9.058l13.909-33.195h9.058L216.245,20.297z"/>
		<path fill="#1D71B8" d="M238.358,32.042c-0.006,0.034-0.014,0.083-0.023,0.15c-0.012,0.066-0.02,0.117-0.024,0.149
			c-0.044,0.067-0.071,0.125-0.079,0.174s-0.017,0.108-0.027,0.174c-0.147,1.128,0.064,1.983,0.637,2.563
			c0.571,0.581,1.47,0.871,2.697,0.871c0.764,0,1.483-0.149,2.162-0.448c0.677-0.299,1.328-0.729,1.948-1.294l8.777,0.199
			c-2.154,2.687-4.633,4.645-7.432,5.873c-2.8,1.228-5.582,1.874-8.349,1.941c-0.065,0-0.132,0-0.198,0c-0.065,0-0.132,0-0.198,0
			c-3.251,0-5.65-0.829-7.193-2.488c-1.544-1.659-2.087-3.915-1.632-6.769c0.095-0.598,0.235-1.22,0.422-1.867
			c0.186-0.646,0.415-1.301,0.687-1.966c1.49-3.516,3.972-6.436,7.445-8.759c3.473-2.322,7.067-3.484,10.784-3.484
			c3.283,0,5.681,0.888,7.188,2.663c1.509,1.775,2.015,4.222,1.517,7.341c-0.116,0.73-0.301,1.518-0.552,2.364
			c-0.253,0.846-0.565,1.717-0.94,2.613H238.358z M249.011,26.567c0.043-0.165,0.074-0.315,0.095-0.447
			c0.154-0.962,0.004-1.692-0.445-2.19c-0.452-0.498-1.192-0.747-2.221-0.747c-1.193,0-2.302,0.34-3.321,1.02
			c-1.022,0.68-1.863,1.635-2.523,2.862h8.263C248.916,26.9,248.967,26.734,249.011,26.567z"/>
		<path fill="#1D71B8" d="M270.903,21.143c1.402-1.294,2.802-2.264,4.197-2.912c1.398-0.647,2.794-0.97,4.188-0.97
			c0.165,0,0.315,0,0.447,0s0.263,0.017,0.391,0.05c0.227,0.033,0.461,0.075,0.702,0.125c0.241,0.049,0.519,0.124,0.836,0.224
			l-3.142,7.515c-0.256-0.066-0.479-0.116-0.673-0.149c-0.194-0.033-0.389-0.066-0.581-0.1c-0.161-0.033-0.334-0.05-0.516-0.05
			c-0.183,0-0.39,0-0.622,0c-2.058,0-3.866,0.581-5.429,1.742c-1.562,1.162-2.806,2.87-3.729,5.126l-4.178,9.954h-9.058
			l9.985-23.889h8.411L270.903,21.143z"/>
		<path fill="#1D71B8" d="M289.943,41.697h-9.953l13.909-33.195h26.676l-3.622,8.66h-16.722l-1.934,4.628h13.835l-3.287,7.813
			h-13.836L289.943,41.697z"/>
		<path fill="#1D71B8" d="M317.118,41.697h-9.058l13.907-33.195h9.059L317.118,41.697z"/>
		<path fill="#1D71B8" d="M344.937,41.697h-8.41l1.303-3.484c-0.621,0.565-1.216,1.07-1.785,1.518s-1.129,0.838-1.68,1.169
			c-0.948,0.531-1.89,0.921-2.824,1.169c-0.936,0.249-1.951,0.374-3.047,0.374c-0.099,0-0.19,0-0.272,0c-0.084,0-0.175,0-0.274,0
			c-0.885-0.067-1.729-0.232-2.533-0.498c-0.804-0.265-1.416-0.63-1.84-1.095c-0.475-0.564-0.804-1.152-0.987-1.767
			c-0.186-0.613-0.205-1.369-0.063-2.265c0.106-0.663,0.3-1.41,0.581-2.239c0.282-0.829,0.644-1.792,1.083-2.887l5.801-13.885h9.058
			L333.801,30.4c-0.218,0.531-0.4,0.995-0.546,1.393c-0.146,0.399-0.229,0.764-0.249,1.095c-0.112,0.697,0,1.187,0.338,1.468
			c0.336,0.282,0.902,0.423,1.699,0.423c1.293,0,2.39-0.374,3.289-1.12c0.898-0.747,1.693-1.933,2.385-3.558l5.146-12.293h9.058
			L344.937,41.697z"/>
		<path fill="#1D71B8" d="M374.978,35.576c-1.915,4.513-4.187,8.038-6.814,10.576s-6.514,3.807-11.655,3.807
			c-3.352,0-5.702-0.556-7.05-1.667c-1.349-1.112-1.827-2.895-1.437-5.35c0.006-0.034,0.012-0.075,0.02-0.125
			c0.009-0.049,0.016-0.092,0.021-0.125c0.004-0.033,0.012-0.075,0.02-0.124c0.008-0.05,0.014-0.092,0.02-0.125l8.503,0.049
			c0.053,0.498,0.298,0.888,0.734,1.17c0.435,0.281,1.018,0.423,1.748,0.423c1.361,0,2.446-0.357,3.257-1.07
			c0.811-0.714,1.599-2.016,2.365-3.907l0.473-1.095c-0.766,0.432-1.47,0.796-2.115,1.095s-1.264,0.531-1.853,0.697
			c-0.597,0.199-1.174,0.332-1.731,0.398c-0.558,0.067-1.151,0.1-1.781,0.1c-2.557,0-4.422-0.68-5.597-2.041
			c-1.178-1.36-1.581-3.202-1.21-5.524c0.09-0.563,0.226-1.152,0.406-1.767c0.182-0.614,0.404-1.236,0.671-1.866
			c1.54-3.616,3.706-6.528,6.495-8.734c2.792-2.206,5.696-3.31,8.718-3.31c1.658,0,2.934,0.324,3.825,0.971
			c0.893,0.647,1.444,1.651,1.658,3.011l1.363-3.235h8.361L374.978,35.576z M369.622,28.135c0.1-0.315,0.176-0.639,0.23-0.97
			c0.147-0.928,0.039-1.708-0.325-2.339c-0.363-0.63-1.109-0.945-2.237-0.945c-1.36,0-2.657,0.44-3.893,1.318
			c-1.235,0.88-2.153,2.049-2.75,3.509c-0.121,0.332-0.227,0.639-0.321,0.92c-0.095,0.282-0.163,0.556-0.206,0.821
			c-0.169,1.062-0.008,1.916,0.487,2.563c0.493,0.647,1.255,0.971,2.283,0.971c1.26,0,2.467-0.439,3.62-1.319
			c1.15-0.878,2.061-2.048,2.726-3.508C369.392,28.791,369.521,28.451,369.622,28.135z"/>
		<path fill="#1D71B8" d="M400.626,41.697h-8.56l0.983-2.737c-0.313,0.298-0.631,0.573-0.95,0.821
			c-0.323,0.249-0.632,0.473-0.93,0.672c-1.08,0.73-2.156,1.236-3.229,1.518c-1.072,0.282-2.29,0.423-3.65,0.423
			c-2.488,0-4.291-0.713-5.406-2.14c-1.116-1.426-1.473-3.4-1.069-5.922c0.11-0.697,0.275-1.418,0.494-2.165
			s0.511-1.534,0.875-2.364c1.565-3.782,3.822-6.851,6.771-9.207c2.946-2.355,5.979-3.533,9.099-3.533
			c1.394,0,2.546,0.266,3.456,0.796c0.912,0.531,1.596,1.328,2.059,2.39l4.91-11.746h9.058L400.626,41.697z M397.25,28.086
			c0.109-0.381,0.193-0.738,0.246-1.07c0.163-1.028,0.023-1.817-0.42-2.364c-0.443-0.547-1.18-0.822-2.208-0.822
			c-1.228,0-2.429,0.507-3.601,1.519c-1.175,1.012-2.134,2.397-2.879,4.155c-0.168,0.432-0.319,0.854-0.452,1.269
			c-0.132,0.416-0.227,0.805-0.285,1.17c-0.133,1.028,0.004,1.841,0.406,2.438c0.402,0.597,1.085,0.896,2.047,0.896
			c1.261,0,2.508-0.539,3.742-1.617c1.232-1.078,2.209-2.513,2.926-4.305C396.979,28.891,397.141,28.467,397.25,28.086z"/>
		<path fill="#1D71B8" d="M412.571,41.697h-9.058l9.984-23.889h9.058L412.571,41.697z M423.754,14.972h-9.057l2.724-6.47h9.058
			L423.754,14.972z"/>
		<path fill="#1D71B8" d="M427.349,32.042c-0.006,0.034-0.014,0.083-0.023,0.15c-0.012,0.066-0.019,0.117-0.024,0.149
			c-0.043,0.067-0.068,0.125-0.076,0.174s-0.018,0.108-0.028,0.174c-0.146,1.128,0.065,1.983,0.636,2.563
			c0.57,0.581,1.471,0.871,2.698,0.871c0.763,0,1.482-0.149,2.161-0.448s1.327-0.729,1.949-1.294l8.778,0.199
			c-2.156,2.687-4.633,4.645-7.434,5.873s-5.582,1.874-8.347,1.941c-0.068,0-0.134,0-0.2,0s-0.132,0-0.198,0
			c-3.253,0-5.649-0.829-7.192-2.488c-1.544-1.659-2.089-3.915-1.632-6.769c0.096-0.598,0.235-1.22,0.422-1.867
			c0.186-0.646,0.414-1.301,0.687-1.966c1.491-3.516,3.972-6.436,7.445-8.759c3.473-2.322,7.066-3.484,10.784-3.484
			c3.285,0,5.68,0.888,7.188,2.663c1.509,1.775,2.015,4.222,1.517,7.341c-0.116,0.73-0.301,1.518-0.552,2.364
			c-0.251,0.846-0.564,1.717-0.939,2.613H427.349z M438.002,26.567c0.043-0.165,0.076-0.315,0.098-0.447
			c0.153-0.962,0.004-1.692-0.447-2.19c-0.452-0.498-1.191-0.747-2.22-0.747c-1.195,0-2.303,0.34-3.322,1.02
			c-1.023,0.68-1.863,1.635-2.523,2.862h8.262C437.908,26.9,437.96,26.734,438.002,26.567z"/>
		<path fill="#1D71B8" d="M459.879,21.243c0.615-0.531,1.198-1.012,1.748-1.443c0.55-0.431,1.08-0.796,1.594-1.095
			c0.991-0.597,1.971-1.02,2.939-1.269c0.969-0.249,2-0.374,3.097-0.374c2.223,0,3.83,0.522,4.825,1.568
			c0.993,1.045,1.338,2.53,1.03,4.454c-0.073,0.465-0.185,0.955-0.332,1.468c-0.149,0.515-0.353,1.054-0.608,1.617l-6.509,15.528
			h-9.058l5.718-13.686c0.108-0.266,0.196-0.506,0.265-0.722c0.066-0.215,0.118-0.422,0.149-0.622
			c0.105-0.663-0.013-1.169-0.356-1.518c-0.342-0.349-0.895-0.522-1.658-0.522c-1.228,0-2.347,0.415-3.359,1.244
			c-1.011,0.83-1.86,2.041-2.544,3.633l-5.082,12.193h-9.009l9.984-23.889h8.461L459.879,21.243z"/>
		<path fill="#1D71B8" d="M482.124,33.934c-0.054,0.133-0.092,0.266-0.113,0.398c-0.021,0.133-0.042,0.266-0.063,0.398
			c-0.134,0.83,0.023,1.452,0.473,1.867c0.447,0.415,1.187,0.622,2.215,0.622c0.863,0,1.615-0.191,2.257-0.573
			c0.641-0.381,1.097-0.903,1.368-1.567c0.055-0.132,0.1-0.249,0.132-0.349s0.054-0.182,0.065-0.249
			c0.042-0.266-0.023-0.481-0.195-0.647c-0.173-0.166-0.513-0.332-1.017-0.498c-0.254-0.066-0.542-0.141-0.859-0.224
			c-0.319-0.083-0.703-0.174-1.15-0.274c-0.128-0.032-0.249-0.058-0.361-0.075c-0.115-0.016-0.235-0.041-0.362-0.074
			c-0.188-0.066-0.389-0.116-0.599-0.15c-0.211-0.032-0.427-0.082-0.647-0.149c-1.701-0.365-3.221-0.92-4.563-1.667
			c-1.34-0.747-1.845-2.049-1.515-3.907c0.042-0.265,0.105-0.564,0.192-0.896c0.085-0.331,0.207-0.679,0.366-1.045
			c1.001-2.322,2.852-4.205,5.555-5.649c2.701-1.443,5.762-2.165,9.179-2.165c2.72,0,4.849,0.341,6.383,1.02
			c1.533,0.681,2.379,1.667,2.537,2.961c0.045,0.133,0.075,0.249,0.095,0.349c0.016,0.1,0.014,0.216-0.007,0.348
			c0.007,0.167,0.005,0.332-0.005,0.498s-0.03,0.348-0.062,0.547c-0.037,0.232-0.091,0.515-0.16,0.846
			c-0.07,0.332-0.175,0.73-0.314,1.194h-8.511c0.005-0.033,0.011-0.074,0.019-0.125c0.009-0.049,0.016-0.091,0.021-0.125
			c0.004-0.032,0.012-0.074,0.02-0.124s0.014-0.091,0.02-0.125c0.111-0.697-0.008-1.194-0.359-1.493
			c-0.35-0.298-0.957-0.448-1.819-0.448c-0.83,0-1.561,0.158-2.19,0.473c-0.631,0.315-1.075,0.755-1.331,1.318
			c-0.038,0.034-0.062,0.075-0.069,0.125s-0.018,0.108-0.027,0.174c-0.086,0.531,0.229,0.904,0.94,1.12s1.586,0.406,2.621,0.572
			c0.354,0.067,0.732,0.133,1.138,0.199c0.404,0.067,0.816,0.133,1.238,0.199c1.057,0.233,2.061,0.54,3.013,0.921
			c0.951,0.381,1.646,0.954,2.09,1.717c0.257,0.465,0.426,0.97,0.504,1.518c0.078,0.547,0.067,1.137-0.033,1.767
			c-0.047,0.298-0.121,0.605-0.222,0.92c-0.1,0.316-0.21,0.64-0.328,0.971c-1.034,2.522-2.956,4.488-5.771,5.897
			c-2.812,1.411-6.191,2.115-10.14,2.115c-2.723,0-4.892-0.49-6.511-1.468c-1.619-0.978-2.429-2.297-2.429-3.957
			c-0.008-0.166-0.004-0.34,0.009-0.522c0.012-0.182,0.032-0.356,0.058-0.522c0.043-0.265,0.105-0.556,0.188-0.871
			c0.084-0.315,0.21-0.688,0.379-1.12H482.124z"/>
		<path fill="#1D71B8" d="M515.455,17.809h4.329l-2.251,5.375h-4.33l-3.703,8.858c-0.071,0.233-0.148,0.465-0.235,0.697
			c-0.087,0.232-0.144,0.432-0.171,0.598c-0.053,0.531,0.053,0.92,0.312,1.169c0.259,0.249,0.703,0.373,1.333,0.373
			c0.066,0,0.125,0,0.175,0c0.051,0,0.092,0,0.125,0c0.231,0,0.467-0.016,0.703-0.05c0.238-0.032,0.563-0.083,0.971-0.149
			l-2.839,6.868c-0.983,0.133-1.795,0.232-2.436,0.298c-0.642,0.066-1.247,0.116-1.815,0.149c-0.271,0.033-0.539,0.05-0.806,0.05
			c-0.264,0-0.546,0-0.845,0c-2.356,0-3.92-0.341-4.689-1.021c-0.771-0.68-1.05-1.684-0.838-3.011
			c0.11-0.696,0.328-1.493,0.655-2.389c0.324-0.896,0.701-1.857,1.132-2.887l3.964-9.555h-3.335l2.252-5.375h3.334l3.215-7.665
			h9.007L515.455,17.809z"/>
	</g>
	<g>
		<path fill="#1D71B8" d="M391.229,275.359H8.51l0,0.001L89.648,70.109h26.664h326.036c0,0,77.414-1.125,77.414,80.679
			C519.762,235.609,433.229,275.359,391.229,275.359"/>
		<g>
			<path fill="#FFFFFF" d="M171.162,74.247c10.833,0,18.791,0.629,23.883,1.884c5.086,1.259,9.348,3.691,12.784,7.301
				c2.775,2.671,4.658,5.851,5.649,9.538c0.99,3.69,1.187,7.734,0.589,12.128c-0.212,1.572-0.549,3.18-1.008,4.828
				c-0.46,1.649-1.042,3.338-1.75,5.063c-2.865,7.224-6.804,13.387-11.814,18.487c-5.014,5.104-11.432,9.302-19.258,12.6
				c5.464,2.513,9.342,6.045,11.63,10.597c2.284,4.556,3.012,9.891,2.179,16.014c-0.234,1.729-0.597,3.533-1.089,5.417
				c-0.492,1.884-1.193,3.849-2.096,5.888c-4.542,11.463-11.979,21.431-22.316,29.909c-10.339,8.477-21.613,13.739-33.822,15.778
				c-0.158,0-0.357,0.04-0.604,0.117c-0.247,0.08-0.45,0.117-0.604,0.117c-3.361,0.471-6.905,0.826-10.624,1.06
				c-3.723,0.235-8.173,0.354-13.355,0.354h-77.95L93.682,74.247H171.162z M92.896,194.354h29.438c7.379,0,12.979-1.06,16.8-3.18
				c3.821-2.119,6.719-5.847,8.704-11.187c0.419-0.784,0.717-1.531,0.893-2.237c0.172-0.706,0.304-1.372,0.391-2.002
				c0.353-3.768-1.021-6.358-4.126-7.771c-3.105-1.413-6.612-2.197-10.512-2.355c-0.316,0-0.629,0-0.943,0c-0.315,0-0.628,0-0.94,0
				h-28.497L92.896,194.354z M116.272,135.006h23.55c0.942,0,1.844,0,2.708,0c0.861,0,1.777-0.077,2.741-0.235
				c3.789-0.155,7.433-0.979,10.935-2.473c3.499-1.49,6.195-4.592,8.093-9.302c0.239-0.625,0.438-1.214,0.593-1.767
				c0.153-0.548,0.261-1.059,0.326-1.53c0.426-3.139-0.581-5.258-3.021-6.359c-2.44-1.096-5.223-1.726-8.339-1.884
				c-0.768-0.154-1.499-0.235-2.207-0.235c-0.705,0-1.452,0-2.236,0h-23.786L116.272,135.006z"/>
			<path fill="#FFFFFF" d="M223.799,231.328h-47.101l62.097-157.081h126.229l-16.169,40.978h-79.128l-8.63,21.902h65.471
				L311.883,174.1h-65.47L223.799,231.328z"/>
			<path fill="#FFFFFF" d="M440.978,74.247c19.311,0,33.424,4.438,42.346,13.306c8.922,8.872,12.179,21.548,9.785,38.034
				c-0.556,4.084-1.461,8.4-2.703,12.952c-1.249,4.556-2.842,9.343-4.781,14.366c-7.671,19.47-18.299,35.878-31.888,49.221
				c-13.59,13.345-28.593,22.06-45.002,26.14c-1.302,0.316-2.642,0.631-4.016,0.942c-1.378,0.316-2.628,0.553-3.746,0.706
				c-3.206,0.471-6.434,0.826-9.681,1.06c-3.251,0.235-7.076,0.354-11.472,0.354h-72.77l62.097-157.081H440.978z M369.817,190.585
				h17.193c11.928,0,22.174-3.179,30.733-9.538c8.556-6.358,15.246-15.738,20.074-28.143c1.147-2.667,1.997-5.141,2.542-7.418
				c0.542-2.274,0.954-4.434,1.231-6.477c1.067-7.849-0.444-13.777-4.527-17.781c-4.09-4.003-10.688-6.005-19.791-6.005H399.61
				L369.817,190.585z"/>
		</g>
	</g>
</g>
</svg>
