<?xml version="1.0" encoding="utf-8"?>
<!-- Generator: Adobe Illustrator 16.0.3, SVG Export Plug-In . SVG Version: 6.00 Build 0)  -->
<!DOCTYPE svg PUBLIC "-//W3C//DTD SVG 1.1//EN" "http://www.w3.org/Graphics/SVG/1.1/DTD/svg11.dtd">
<svg version="1.1" id="Ebene_2" xmlns="http://www.w3.org/2000/svg" xmlns:xlink="http://www.w3.org/1999/xlink" x="0px" y="0px"
	 width="362.325px" height="68.74px" viewBox="0 0 362.325 68.74" enable-background="new 0 0 362.325 68.74" xml:space="preserve">
<path fill="#7C7C7B" d="M62.109,12.219c-1.033-1.723-2.372-3.099-3.979-4.092c-1.582-0.978-3.626-1.675-6.077-2.072
	c-1.625-0.262-3.866-0.389-6.849-0.389H23.647L5.675,63.074h27.888c3.511,0,6.414-0.234,8.616-0.695
	c3.391-0.677,6.32-1.866,8.706-3.535c2.395-1.674,4.343-3.83,5.792-6.406c1.459-2.594,2.199-5.336,2.199-8.152
	c0-3.02-0.942-5.657-2.799-7.838c-1.115-1.309-2.546-2.377-4.277-3.194c0.659-0.214,1.232-0.427,1.726-0.642
	c1.795-0.764,3.462-1.771,4.955-2.994c1.538-1.262,2.803-2.92,3.761-4.932c0.955-2.009,1.439-4.127,1.439-6.296
	C63.68,16.032,63.152,13.956,62.109,12.219z M43.016,16.232c2.248,0,3.834,0.379,4.712,1.128c0.851,0.726,1.264,1.732,1.264,3.075
	c0,1.574-0.481,2.985-1.47,4.317c-0.986,1.328-2.35,2.261-4.178,2.856c-1.422,0.475-3.99,0.715-7.634,0.715h-4.464l3.72-12.092
	H43.016z M35.868,38.928c3.685,0,5.297,0.475,5.998,0.871c1.451,0.831,2.127,2.067,2.127,3.891c0,1.387-0.506,2.803-1.504,4.207
	c-1.023,1.438-2.384,2.506-4.163,3.265c-1.808,0.771-4.567,1.161-8.2,1.161h-6.301l4.113-13.395H35.868z"/>
<path fill="#7C7C7B" d="M127.782,16.248c-0.979-2.662-2.521-4.904-4.583-6.669c-2.049-1.753-4.729-3.073-7.963-3.927
	c-3.157-0.83-6.509-1.252-9.962-1.252c-4.29,0-8.096,0.549-11.314,1.631c-3.228,1.085-6.049,2.598-8.384,4.496
	c-2.313,1.881-4.537,4.418-6.612,7.542c-2.061,3.103-3.832,6.698-5.262,10.685c-2.015,5.556-3.037,10.644-3.037,15.122
	c0,3.843,0.698,7.331,2.075,10.368c1.419,3.134,3.892,5.665,7.35,7.523c3.404,1.83,8.066,2.758,13.856,2.758
	c4.974,0,9.37-0.684,13.064-2.032c3.728-1.36,7.024-3.469,9.795-6.263c3.566-3.576,6.562-8.51,8.902-14.665
	c2.331-6.132,3.512-12.039,3.512-17.558C129.219,21.455,128.736,18.845,127.782,16.248z M103.386,50.914
	c-0.881,0.75-1.893,1.355-3.029,1.806c-1.549,0.649-3.365,0.979-5.395,0.979c-3.012,0-5.25-0.753-6.841-2.303
	c-1.578-1.534-2.377-3.813-2.377-6.775c0-4.799,1.424-10.373,4.233-16.567c2.403-5.294,5.021-9.004,7.774-11.022
	c1.983-1.438,4.316-2.138,7.133-2.138c3.287,0,5.717,0.723,7.225,2.146c1.505,1.424,2.268,3.58,2.268,6.41
	c0,3.146-0.562,6.576-1.668,10.194c-1.501,4.869-3.378,9.121-5.58,12.641C105.846,48.35,104.59,49.904,103.386,50.914z"/>
<polygon fill="#7C7C7B" points="189.68,5.666 178.031,46.531 167.995,5.666 151.458,5.666 133.771,63.074 148.243,63.074 
	159.145,23.268 168.623,63.074 186.375,63.074 204.144,5.666 "/>
<g>
	<path fill="none" d="M340.766,24.671c0.768-1.247,1.156-2.522,1.156-3.788c0-1.748-0.614-2.914-1.933-3.667
		c-0.699-0.397-2.359-0.872-6.271-0.872h-6.998l-4.176,13.319h4.807c2.368,0,4.477-0.196,6.266-0.584
		c1.749-0.38,3.077-0.825,3.946-1.327C338.912,26.969,339.99,25.932,340.766,24.671z"/>
	<path fill="none" d="M319.376,40.676l-3.315,10.563c4.175-0.695,8.29-1.443,12.313-2.249l-6.074-8.313H319.376z"/>
	<path fill="#26336E" d="M338.042,37.211c3.838-0.708,7.837-3.04,10.277-4.475l0.37-0.217c2.627-1.538,4.637-3.623,5.974-6.197
		c1.317-2.537,1.985-5.182,1.985-7.857c0-2.643-0.66-5.005-1.963-7.023c-1.33-2.06-3.31-3.564-5.884-4.474
		c-2.447-0.864-5.708-1.302-9.692-1.302h-23.816L299.97,53.635c5.414-0.718,10.799-1.515,16.091-2.396l3.315-10.563h2.923
		l6.074,8.313c5.415-1.085,10.663-2.275,15.659-3.58L338.042,37.211z M333.618,29.079c-1.789,0.388-3.897,0.584-6.266,0.584h-4.807
		l4.176-13.319h6.998c3.911,0,5.571,0.475,6.271,0.872c1.318,0.753,1.933,1.919,1.933,3.667c0,1.266-0.389,2.541-1.156,3.788
		c-0.776,1.261-1.854,2.298-3.202,3.081C336.695,28.254,335.367,28.699,333.618,29.079z"/>
</g>
<g>
	<path fill="#26336E" d="M298.66,5.666h-15.227l-15.918,51.43c5.107-0.428,10.317-0.913,15.573-1.465L298.66,5.666z"/>
</g>
<g>
	<path fill="none" d="M221.94,50.908l-5.818,9.038c7.218-0.21,16.134-0.549,26.08-1.1l-0.089-7.938H221.94z"/>
	<polygon fill="none" points="229.077,39.895 241.697,39.895 241.526,20.23 	"/>
	<path fill="#26336E" d="M253.376,5.666h-16.403l-36.656,54.598c3.176-0.031,8.655-0.111,15.805-0.317l5.818-9.038h20.173
		l0.089,7.938c4.479-0.247,9.166-0.538,14.004-0.879L253.376,5.666z M229.077,39.895l12.449-19.664l0.171,19.664H229.077z"/>
</g>
</svg>
