<?xml version="1.0" encoding="UTF-8" standalone="no"?>
<!-- Created with Inkscape (http://www.inkscape.org/) -->

<svg
   xmlns:dc="http://purl.org/dc/elements/1.1/"
   xmlns:cc="http://creativecommons.org/ns#"
   xmlns:rdf="http://www.w3.org/1999/02/22-rdf-syntax-ns#"
   xmlns:svg="http://www.w3.org/2000/svg"
   xmlns="http://www.w3.org/2000/svg"
   version="1.1"
   width="693.6875"
   height="144.27315"
   id="svg3850">
  <defs
     id="defs3852" />
  <metadata
     id="metadata3855">
    <rdf:RDF>
      <cc:Work
         rdf:about="">
        <dc:format>image/svg+xml</dc:format>
        <dc:type
           rdf:resource="http://purl.org/dc/dcmitype/StillImage" />
        <dc:title></dc:title>
      </cc:Work>
    </rdf:RDF>
  </metadata>
  <g
     transform="translate(-67.44196,-411.65418)"
     id="layer1">
    <path
       d="m 658.78691,416.88499 c 3.78214,8.89453 6.37966,18.04094 9.93747,27.15587 -3.78214,-1.10985 -7.56035,-2.23544 -11.11816,-3.34529 -6.00184,-0.44866 -9.9847,1.51522 -15.54575,3.73885 -4.88806,0.44473 -9.50062,0.9052 -14.16828,1.57425 l 0,0.19678 0.0982,0 2.55817,8.46162 c 6.22223,-0.88552 12.59402,-1.34599 18.59586,-2.45977 5.78145,-2.22364 5.8641,-2.23544 9.6423,-3.34529 5.33672,-0.22418 8.85911,0.7517 13.9715,2.75494 1.55851,5.33672 1.37354,11.07094 2.26299,16.62805 1.55851,3.56175 1.55457,3.56175 6.00184,11.11816 0.66512,2.00324 1.27121,4.2741 2.1646,6.4938 3.10915,0.88945 6.5056,1.77103 9.83908,2.65655 l 0,-0.68874 c -2.66836,-7.78074 -6.70632,-15.34109 -9.15035,-23.12184 -0.22417,-3.55781 -0.66118,-7.36751 -0.88551,-10.92138 7.56035,-0.22418 14.47919,-2.45977 22.03954,-2.45977 4.00254,0.66906 3.99073,0.66118 8.65839,1.77103 2.44403,0.88946 6.17895,3.18787 10.62621,5.4115 5.55712,1.9993 10.20903,4.64011 15.54575,7.08414 -1.7789,-4.00254 -3.72704,-7.16679 -6.3954,-10.7246 -3.11309,-2.22364 -6.23404,-4.17177 -9.34713,-6.39541 -8.6702,-4.89199 -14.69565,-9.59507 -24.6961,-8.26483 -6.67089,1.55852 -12.88526,4.23081 -19.77655,4.23081 -2.66836,-5.33672 -4.66373,-11.07094 -6.88736,-16.62805 -1.9993,-7.33602 -2.03866,-7.32028 -3.14851,-9.54391 l -4.62437,0 c -2.66835,-0.44473 -5.75389,-1.6018 -6.19862,-1.37747 z m -97.89887,51.85196 -13.47954,3.2469 -10.92139,40.24185 c 0,0 -10.22477,-29.79274 -12.00368,-34.24001 -1.7789,-4.66766 -6.22617,-8.85517 -12.00368,-8.85517 -5.56105,0 -10.24838,3.10128 -11.8069,8.65839 -1.10984,4.22687 -13.38115,48.90024 -13.38115,48.90024 l 13.18437,0 11.51173,-43.29196 c 0,0 10.94106,29.32638 12.49563,33.55127 1.77891,4.44569 4.61257,9.74069 12.39725,9.74069 4.88805,0 9.39042,-4.60428 10.7246,-9.05196 1.11378,-4.44607 13.28276,-48.90024 13.28276,-48.90024 z m -264.8681,0.29502 c -3.35943,-3.8e-4 -6.93402,1.53786 -10.82299,6.98575 -3.99678,5.88783 -29.61674,43.57715 -32.56737,47.91633 0.0381,0.26416 0.39357,2.75494 0.39357,2.75494 l 12.00368,0 8.85517,-13.08598 23.6138,0 1.0823,13.08598 13.77472,0 c 0,0 -6.41704,-44.85047 -7.08414,-49.2938 -0.66749,-4.6716 -3.99388,-7.82404 -7.77288,-8.26483 -0.4725,-0.0557 -0.99593,-0.0982 -1.47586,-0.0982 z m -43.39036,54.90224 c -0.64396,-4.4643 -6.15914,-42.12825 -6.78896,-46.53886 -0.66749,-4.6716 -3.99231,-7.62332 -7.77288,-8.06805 -3.77858,-0.44473 -7.97595,0.4644 -12.20046,6.69057 -4.22331,6.22618 -34.43679,50.67128 -34.43679,50.67128 l 14.16828,0 8.95357,-13.08598 23.31862,0 1.37747,13.08598 11.51173,0 c 0,0 1.69988,-2.50558 1.86942,-2.75494 z m -163.033593,-54.80369 -15.54575,57.55863 37.093343,0 c 8.44942,0 17.35655,-6.82754 19.57977,-15.0538 1.77853,-6.44773 -0.2459,-11.35628 -5.80506,-13.57793 6.6709,-2.89269 9.56517,-7.40293 10.23265,-14.06989 0.6671,-8.89453 -6.70002,-14.85701 -16.03771,-14.85701 l -29.517243,0 z m 62.281393,0 -15.64414,57.55863 13.18437,0 12.39724,-45.55495 17.12001,0 c 3.77861,0 8.22037,3.81363 6.88735,8.26483 -1.11142,3.9986 -5.29774,7.08414 -8.85517,7.08414 l -11.11816,0 c -2.66758,0 -4.91954,2.44953 -4.91954,5.11632 0,0.66707 0.0475,1.32672 0.49195,1.77103 l -0.29502,0.19679 12.49564,23.12184 13.9715,0 -10.23265,-18.39908 0.49195,0 c 10.89541,-0.88826 19.37554,-7.76816 21.15403,-19.77656 1.55577,-10.89383 -7.64693,-19.38299 -19.87494,-19.38299 l -27.25426,0 z m 168.05153,0 -2.65655,10.42942 19.77655,0 -12.49563,47.12921 13.18437,0 12.59402,-47.12921 20.26851,0 2.85334,-10.42942 -53.52461,0 z m 61.98622,0 -15.54575,57.55863 13.38115,0 6.3954,-23.51541 27.54944,0 -6.39541,23.51541 13.08598,0 15.54575,-57.55863 -13.28276,0 -6.19862,23.6138 -27.35265,0 6.00184,-23.6138 -13.18437,0 z m 85.20645,0 c -12.22801,0 -22.46853,8.26089 -25.58161,20.26851 l -4.72276,17.12 c -2.89269,11.11502 3.64046,20.17012 14.75862,20.17012 l 23.12185,0 7.08414,-11.31495 -22.72828,0 c -9.11493,0 -11.30314,-3.08553 -8.85518,-12.20046 l 30.69794,0 6.3954,-10.03586 -34.24,0 0,-0.39356 c 2.44402,-8.44981 6.89916,-12.29886 15.34896,-12.29886 l 18.3007,0 7.28092,-11.31494 -26.8607,0 z m 117.77382,0.19678 c -5.11632,0 -9.28416,1.09804 -12.39724,3.54207 -3.33348,2.44796 -5.5335,5.86409 -6.19863,9.6423 -0.66905,3.78214 -0.25597,8.17431 1.96782,11.51173 2.22363,3.11308 5.98216,5.30403 10.42943,7.08414 l 11.8069,4.72275 c 3.78214,1.55615 5.36427,3.08869 4.91954,5.31311 -0.2204,2.44444 -2.24725,3.83724 -5.80506,3.83724 l -29.32047,0 -3.1485,11.70851 31.38667,0 c 5.33672,0 9.48094,-1.31765 12.59403,-3.54207 3.33348,-2.44444 5.62795,-5.98651 6.29701,-9.54391 0.88945,-3.77899 0.38176,-8.27547 -2.06621,-11.61012 -1.9993,-3.33546 -5.98216,-5.30523 -10.42943,-7.08414 l -11.80689,-4.62437 c -3.55782,-1.55457 -5.26588,-3.38464 -4.82115,-5.60827 0.22417,-2.44403 2.14885,-3.54207 5.70666,-3.54207 l 29.81242,0 3.14851,-11.8069 -32.07541,0 z m -485.066767,11.61012 15.742537,0 c 3.33426,0 5.14544,3.10915 4.03402,6.88735 -0.89024,3.33742 -3.99546,6.00184 -6.88736,6.00184 l -16.431267,0 3.54207,-12.88919 z m 193.633147,2.45977 2.26299,19.97333 -15.34897,0 13.08598,-19.97333 z m -59.32967,0.19678 2.1646,19.97334 -15.34897,0 13.18437,-19.97334 z m -140.502099,19.77655 18.005519,0 c 3.33427,0 5.31745,2.9364 4.42759,6.4938 -0.89024,3.11192 -4.26623,5.50988 -7.37931,5.50988 l -18.399087,0 3.345288,-12.00368 z"
       id="path16"
       style="fill:#004990;fill-opacity:1;fill-rule:evenodd;stroke:none" />
    <path
       d="m 639.40392,412.65418 c -3.55781,0 -16.22662,4.42759 -18.00552,4.42759 -1.77891,0 -2.69985,0.22417 -4.03403,0 0.66906,4.00254 2.47552,7.5879 4.03403,10.92138 0.66512,1.33418 1.3696,3.80182 2.26299,5.80506 1.10984,2.66442 2.43222,5.08877 2.65655,6.19862 0,0.2204 0.19678,0.63758 0.19678,1.0823 2.00324,0.2204 4.86051,0.2481 7.08414,-0.19678 l 0.68873,0 c 3.33742,-0.66906 6.65122,-1.09804 10.42943,-2.65655 1.33418,-0.66512 2.43222,-1.15314 3.54207,-1.37747 2.00324,-0.44473 3.4122,-0.36995 5.4115,-0.59035 l 0.59034,0 c 2.66443,0.2204 4.97858,1.25153 7.87127,2.36138 -0.44473,-1.9993 -2.28267,-6.65515 -2.95173,-8.65839 0,-0.44473 -0.19678,-0.63757 -0.19678,-1.0823 -0.88945,-2.66836 -2.2315,-6.70632 -3.34529,-8.26483 -0.66512,-1.33418 -1.32237,-3.51058 -1.77103,-5.50989 -1.33418,-0.22039 -2.94385,-0.4644 -4.72276,-0.68873 -3.33348,-0.2204 -4.62831,-1.77104 -9.74069,-1.77104 z m 42.99679,4.52598 c -2.47404,-0.0283 -4.93727,0.0847 -6.4938,0.19678 -0.22039,0.2204 -0.66118,0.19678 -0.88551,0.19678 1.11378,1.77891 2.4086,3.95138 2.85333,5.50989 0.44473,1.10985 0.93275,2.50306 1.37747,3.83724 0.2204,0.44473 0.36995,1.10198 0.59035,1.77104 0.66905,2.22363 3.34135,6.47411 4.2308,10.92138 2.44403,-1.33418 8.29632,-2.47945 13.18437,-3.14851 3.33742,-0.44472 6.21437,-0.68873 7.77288,-0.68873 l 1.27908,0 c 3.33742,0.44472 6.48592,2.01111 8.26483,3.34529 0.22039,0.22417 0.4644,0.2714 0.68873,0.49195 2.44403,1.9993 8.23335,4.15209 10.23265,4.82115 0.22417,0 0.36601,0.26762 0.59034,0.49195 1.99931,0.88946 4.88806,3.26264 6.88736,4.82115 1.77891,1.33418 2.50306,3.38465 3.83724,5.60828 -0.44472,-5.33672 -1.84187,-10.19329 -2.95172,-13.9715 -1.55851,-5.78144 -2.16066,-11.37791 -3.05012,-14.26667 -2.44796,-2.22756 -9.15428,-5.78144 -13.38115,-6.00184 -6.22223,-0.22039 -13.76291,0.24401 -16.43127,-0.19678 -4.66766,-0.88945 -7.75319,-1.59393 -12.20046,-3.1485 -1.44438,-0.44473 -3.92137,-0.5623 -6.3954,-0.59035 z m -19.48139,37.5853 c -0.7052,-0.006 -1.44239,-0.0126 -2.16459,0.0982 -2.00324,0.44473 -3.73492,1.20037 -5.50989,1.86943 -3.11309,1.33418 -6.54102,2.82972 -12.98759,3.05011 -0.66906,0 -1.29876,-0.0252 -1.96781,0.19678 -1.99931,0.44473 -3.77821,1.33025 -6.00185,0.88552 -0.88945,0 -1.76709,-0.19678 -2.65655,-0.19678 0.44473,3.11308 0.85797,6.45837 1.0823,8.46161 0.44473,4.89199 1.40109,11.79116 2.06621,15.34897 0.66906,3.77821 0.85797,7.56428 1.96782,10.23264 2.67229,1.77891 5.79325,2.65656 9.34712,2.65656 9.78399,0 23.5587,-10.39795 30.89472,-11.51173 -1.33418,-3.10915 -4.93922,-10.0398 -6.49379,-15.15219 -0.44866,-1.11378 -0.66512,-2.25905 -0.88552,-3.1485 -0.88945,-4.892 0.0551,-8.44981 -1.27908,-12.00368 -1.33418,-0.33356 -3.29586,-0.76572 -5.4115,-0.78713 z m 42.30806,2.55816 c -1.55458,0 -3.16818,0.26762 -4.72276,0.49195 -2.22363,0.44473 -4.22293,1.12953 -6.00184,1.57426 -1.77891,0.44472 -3.24296,0.59034 -5.01793,0.59034 -0.66906,4.44727 1.76316,9.79973 3.54207,13.57793 0.22417,0.22418 0.19678,0.26763 0.19678,0.49196 1.77891,3.55387 4.22687,10.89777 5.11632,15.34897 10.22871,0.44079 22.23633,-6.29702 28.23817,-6.29702 6.00577,0 11.96039,2.25906 15.74253,4.03403 5.55711,2.44796 13.58581,3.12883 17.80874,7.57609 -2.00324,-4.00254 -4.84083,-6.71812 -6.3954,-11.61012 -1.55851,-4.89199 -7.14318,-10.85841 -10.92139,-13.97149 -0.44472,-0.22418 -0.66512,-0.46441 -0.88551,-0.68874 -1.77891,-0.66512 -3.36497,-1.32631 -4.91954,-1.77103 -1.11379,-0.44473 -2.25906,-0.86191 -3.14851,-1.0823 -1.55851,-0.44473 -2.79824,-0.93275 -4.13241,-1.37747 -1.55852,-0.66906 -3.16425,-1.32631 -5.60828,-1.77104 -4.66766,-0.66906 -5.37608,-2.60539 -7.37931,-3.05011 -1.77891,-0.44473 -3.77034,-1.32631 -7.77288,-1.77104 -1.11378,-0.22417 -2.40467,-0.29501 -3.73885,-0.29501 z M 134.4622,544.49789 c -32.01517,0 -66.02024,3.56017 -66.02024,5.11632 0,1.55732 29.335831,5.31311 66.02024,5.31311 l 397.79411,0 c 36.90837,0 66.21702,-3.75579 66.21702,-5.31311 0,-1.55615 -33.97632,-5.11632 -66.21702,-5.11632 l -397.79411,0 z"
       id="path18"
       style="fill:#ee164b;fill-opacity:1;fill-rule:evenodd;stroke:none" />
    <path
       d="m 653.86737,415.11395 c 0.98098,5.22961 4.42113,9.58903 5.3131,14.85702 0.62826,2.6091 3.18802,7.01604 2.41592,8.45144 -4.14838,-2.09288 -8.82958,-2.66235 -13.3373,-1.56408 -4.94529,2.08223 -10.15443,3.67336 -15.52088,4.17923 -3.43152,0.33469 -8.07739,-0.99915 -5.31086,3.83664 0.0447,2.17767 2.00371,0.80539 3.31786,0.93769 1.24023,-0.079 2.36846,-0.18041 3.61949,-0.4918 1.35421,0.11241 2.37574,-0.36365 3.75903,-0.19678 1.82334,-0.18985 2.89521,-0.33424 4.47819,-0.70372 1.20641,-0.35754 2.28235,-0.75026 3.49116,-1.26378 1.74147,-0.76408 3.89829,-1.51525 5.80506,-2.26267 1.36273,-0.21379 3.20697,-0.67589 4.82099,-0.19678 1.53959,0.0359 2.85217,0.69544 4.11667,0.89934 2.41043,0.86404 5.01362,1.61864 7.34584,2.5437 -1.01898,-3.53709 -3.35306,-10.43862 -4.82149,-15.27929 -2.2639,-4.59061 -2.13378,-12.44447 -8.11688,-13.54922 0.32933,-0.27675 -1.84512,-0.15018 -1.3759,-0.19678 z m 21.15403,2.45977 c -2.79046,0.54476 -7.53321,-0.2651 -4.08355,3.56279 0.59365,3.91926 2.1941,7.90559 3.77389,11.19584 1.05056,3.19476 2.53962,6.33079 3.58555,9.74217 0.23519,3.1867 2.95739,2.61373 5.08685,2.35943 1.82825,-0.15963 3.6046,-0.71478 5.39037,-1.08214 1.04021,-0.34574 2.35984,-0.80649 3.56257,-1.08215 1.49214,-0.69157 2.85085,-1.05742 4.42885,-1.47554 1.31015,-0.22827 2.74921,-0.5668 3.81485,-0.78697 1.45886,0.13129 2.77421,-0.40528 4.15276,0 5.95329,0.25345 10.7188,4.2002 15.90581,6.6754 4.27249,2.38376 8.00819,5.6867 12.13541,7.98483 2.13535,1.64632 3.04955,4.81117 5.11617,6.88689 -0.77469,-4.92757 -1.82897,-10.33362 -6.55799,-13.09263 -3.36774,-2.97902 -7.38221,-4.71649 -11.5407,-6.2734 -4.87782,-2.18761 -9.02163,-6.70332 -14.76385,-6.41237 -7.07151,0.45002 -14.34837,1.14284 -20.95724,3.83724 -1.26554,-5.46083 -4.44661,-10.22219 -5.8583,-15.64949 -0.72825,-2.28739 -1.90856,-4.37916 -3.19145,-6.3899 z m -14.26667,31.28829 c -1.19055,0.44457 -2.36437,0.35386 -3.5416,0.68858 -0.89169,0.44548 -2.14363,0.5831 -3.14803,1.18037 -2.03325,0.42612 -3.94685,1.89235 -6.19847,1.9675 -1.24438,0.45458 -2.69814,0.38765 -4.03402,0.68858 -4.46011,-0.052 -8.88613,0.59217 -13.28213,1.77104 0.15742,4.0401 1.50416,6.96175 6.08785,5.73919 5.26742,-1.70127 11.04087,-0.81342 16.17215,-3.15651 4.62903,-2.06003 9.70524,-4.13572 14.80428,-2.36465 2.97688,3.2968 0.55256,9.41573 2.35404,13.66933 1.66814,5.86385 4.53023,11.27581 7.02214,16.81057 2.86908,-0.85979 7.62008,1.74723 5.05342,-3.08978 -1.86647,-6.74694 -8.20803,-11.85035 -7.82067,-19.28303 -0.47627,-4.04712 -0.1209,-8.40327 -1.85711,-12.16205 -1.66629,-0.13476 -3.16082,-1.04704 -4.70671,-1.42643 -1.0322,-0.33818 -2.54336,-0.66106 -3.75412,-0.73786 -1.09895,-0.022 -1.93211,-0.47643 -3.15102,-0.29501 z m 38.86437,2.75494 c -2.40826,0.37363 -4.82426,1.13639 -7.28092,1.47571 -2.43342,1.61027 -8.522,-0.21946 -9.34713,1.57409 0.17034,2.51481 0.52357,4.99139 0.39357,7.57578 0.60583,1.41248 0.23173,3.76228 1.23723,5.39723 2.93939,6.24569 6.07675,12.43078 7.87439,19.14154 -0.15365,2.79275 8.43456,4.31203 5.19362,-0.14798 -1.60574,-6.86457 -4.88702,-13.0789 -7.35211,-19.61419 -1.59205,-3.95015 -1.7712,-8.3409 3.51134,-7.47711 5.90493,-1.88863 12.21485,-3.04992 18.33507,-1.40602 4.95931,0.52898 8.6129,4.37412 13.6223,4.67317 5.3546,1.92408 10.80504,3.58476 16.12054,5.63157 -2.57107,-3.5886 -6.96654,-5.01031 -10.7093,-7.13436 -3.9833,-1.89851 -8.96096,-2.91447 -12.2156,-5.26257 -1.6241,-0.8766 -3.03816,-1.63007 -4.62422,-2.45945 -4.50538,-1.56771 -9.83231,-2.02364 -14.75878,-1.9675 z"
       id="path246"
       style="fill:#ffffff;fill-opacity:1;fill-rule:evenodd;stroke:none" />
    <path
       d="m 638.96313,453.57296 c 0.22417,0 0.44866,0 0.66905,0 -0.22039,0 -0.44472,0 -0.66905,0"
       id="path630"
       style="fill:#004990;fill-opacity:1;fill-rule:evenodd;stroke:none" />
  </g>
</svg>
