<?xml version="1.0" encoding="UTF-8" standalone="no"?>
<!-- Created with Inkscape (http://www.inkscape.org/) -->

<svg
   width="132.29167mm"
   height="71.523659mm"
   viewBox="0 0 132.29167 71.523659"
   version="1.1"
   id="svg1"
   inkscape:version="1.4 (86a8ad7, 2024-10-11)"
   sodipodi:docname="British Airways 1974 logo.svg"
   xmlns:inkscape="http://www.inkscape.org/namespaces/inkscape"
   xmlns:sodipodi="http://sodipodi.sourceforge.net/DTD/sodipodi-0.dtd"
   xmlns="http://www.w3.org/2000/svg"
   xmlns:svg="http://www.w3.org/2000/svg">
  <sodipodi:namedview
     id="namedview1"
     pagecolor="#ffffff"
     bordercolor="#000000"
     borderopacity="0.25"
     inkscape:showpageshadow="2"
     inkscape:pageopacity="0.0"
     inkscape:pagecheckerboard="0"
     inkscape:deskcolor="#d1d1d1"
     inkscape:document-units="mm"
     inkscape:zoom="1.9729351"
     inkscape:cx="248.36094"
     inkscape:cy="154.33858"
     inkscape:window-width="1920"
     inkscape:window-height="1001"
     inkscape:window-x="-9"
     inkscape:window-y="-9"
     inkscape:window-maximized="1"
     inkscape:current-layer="layer1" />
  <defs
     id="defs1" />
  <g
     inkscape:label="Layer 1"
     inkscape:groupmode="layer"
     id="layer1"
     transform="translate(-13.229233,-88.943129)">
    <path
       style="fill:#d71920;fill-opacity:1;fill-rule:evenodd;stroke:none;stroke-width:2.684"
       d="m 91.217437,105.8955 c 0.864245,0.24689 1.11118,0.74346 1.11118,1.61039 v 13.50319 c 0,1.11117 -0.49385,1.60503 -1.3581,1.60503 h -0.644169 v 1.36346 h 10.086462 v -1.48424 h -0.662942 c -0.86425,0 -1.360799,-0.49652 -1.360799,-1.6104 l -0.0107,-14.53921 v -4.66747 l -0.738095,-0.24696 -8.041258,2.8504 v 0.98771 l 1.618451,0.62806"
       id="path10421"
       inkscape:connector-curvature="0" />
    <path
       style="fill:#d71920;fill-opacity:1;fill-rule:evenodd;stroke:none;stroke-width:2.684"
       d="m 92.317937,96.182083 c 0,1.733859 1.355424,3.097327 3.091963,3.097327 1.851954,0 3.210059,-1.363468 3.210059,-3.097327 0,-1.736558 -1.358105,-3.220799 -3.210059,-3.220799 -1.736539,0 -3.091963,1.484241 -3.091963,3.220799"
       id="path10419"
       inkscape:connector-curvature="0" />
    <path
       style="fill:#d71920;fill-opacity:1;fill-rule:evenodd;stroke:none;stroke-width:2.684"
       d="m 78.027107,106.35711 0.0054,11.3184 c 0,1.73656 0.120782,2.10694 0.244229,2.47733 0.375799,2.10426 1.237332,3.2208 2.474642,3.8408 0.614673,0.37314 1.6104,0.74347 2.845036,0.74347 1.607719,0 2.965821,-0.6227 4.329288,-1.48694 0.177168,-0.15024 0.351608,-0.30862 0.517984,-0.47238 l 0.06973,-2.24381 c -0.555576,0.24149 -1.223897,0.35967 -1.827791,0.35967 -0.864249,0 -1.607713,-0.37041 -2.104251,-0.86425 -0.367677,-0.3704 -0.614609,-0.86693 -0.614609,-2.2304 l -0.0054,-11.44187 v -1.44668 h 4.098455 l -0.02193,-2.60079 h -4.200093 v -5.698141 h -0.743476 c 0.02905,0 -1.323208,2.520268 -2.9014,4.042101 -1.457404,1.39567 -3.279837,2.21698 -4.88755,3.26641 v 0.86694 h 2.721569 v 1.57014"
       id="path10417"
       inkscape:connector-curvature="0" />
    <path
       style="fill:#d71920;fill-opacity:1;fill-rule:evenodd;stroke:none;stroke-width:2.684"
       d="m 30.518932,89.676365 -13.885231,0.128547 0.0035,1.731311 h 0.155182 c 1.489618,0 2.104375,0.370225 2.474791,0.990146 0.249617,0.246955 0.493336,0.619417 0.493336,2.479422 v 11.353699 h 0.0011 v 12.18518 c 0,2.2277 -0.249541,2.59842 -0.61725,2.84538 -0.373078,0.61731 -0.8616,0.86739 -2.458578,0.86739 v 1.73594 l 14.206015,0.12043 c 3.950842,0 5.684735,-0.36738 6.793225,-0.86392 4.326603,-1.61039 6.677417,-5.07793 6.677417,-9.04219 0,-1.61039 -0.496591,-3.10055 -1.605082,-4.58479 -0.85619,-1.11117 -2.423041,-2.4076 -4.701754,-3.26112 -1.011866,-0.38113 -2.164304,-0.6762 -3.457989,-0.82917 2.35118,-0.49652 4.576546,-1.85649 5.811182,-3.46957 1.111157,-1.36347 1.731311,-2.971658 1.731311,-4.576684 0,-1.741918 -0.620325,-3.225692 -2.101893,-4.83609 -1.355417,-1.486922 -4.078855,-2.97391 -9.519314,-2.97391 z m -1.554128,2.222333 c 3.091965,0 4.696427,1.236586 5.563357,2.970447 0.493858,0.98771 0.741164,2.107174 0.741164,3.344495 0,2.97386 -1.607912,5.32266 -4.079872,6.31842 -0.620003,0.24962 -1.730914,0.49681 -3.21248,0.49681 -0.617318,0 -1.240221,-0.12706 -1.85754,-0.24784 l 0.126233,-12.635672 c 0.7381,-0.246956 1.610653,-0.24666 2.719142,-0.24666 z m -0.987831,14.987712 c 4.079674,0 5.807911,0.86903 6.92177,1.85407 1.486933,1.36615 2.474789,3.2232 2.474789,5.95014 0,4.58159 -3.09135,7.55524 -7.667564,7.55524 -1.728494,0 -2.595869,-0.6222 -3.089725,-1.23682 -0.496537,-0.74883 -0.49681,-1.4901 -0.49681,-2.35435 v -11.64553 c 0.617318,-0.12345 1.240222,-0.12274 1.85754,-0.12274 z"
       id="path10407"
       inkscape:connector-curvature="0" />
    <path
       style="fill:#d71920;fill-opacity:1;fill-rule:evenodd;stroke:none;stroke-width:2.684"
       d="m 64.900555,105.89533 c 0.864249,0.2469 1.113861,0.74346 1.113861,1.6104 v 13.50318 c 0,1.11118 -0.496579,1.60503 -1.360799,1.60503 h -0.491125 l 0.03498,1.36346 h 9.952263 v -1.48423 h -0.719313 c -0.861565,0 -1.360789,-0.49646 -1.360789,-1.61041 v -14.5392 -4.66748 l -0.740786,-0.24695 -8.035881,2.8504 v 0.98771 l 1.607714,0.62805"
       id="path10413"
       inkscape:connector-curvature="0" />
    <path
       style="fill:#d71920;fill-opacity:1;fill-rule:evenodd;stroke:none;stroke-width:2.684"
       d="m 66.022598,96.181916 c 0,1.73386 1.358096,3.097327 3.091961,3.097327 1.85464,0 3.215427,-1.363467 3.215427,-3.097327 0,-1.736557 -1.360787,-3.220799 -3.215427,-3.220799 -1.733865,0 -3.091961,1.484242 -3.091961,3.220799"
       id="path10411"
       inkscape:connector-curvature="0" />
    <path
       style="fill:#d71920;fill-opacity:1;fill-rule:evenodd;stroke:none;stroke-width:2.684"
       d="m 54.981461,106.75954 c 0.373071,-0.49652 0.990396,-0.74079 1.607718,-0.74079 0.864244,0 0.90451,0.89647 1.162169,1.64798 0.187899,0.5449 0.228159,1.34737 0.716627,1.37689 1.256105,0.0805 2.410233,-1.30174 3.040969,-2.7001 0.195904,-0.53411 0.407937,-1.0897 0.46972,-1.5594 0.228099,-1.84391 -1.078961,-3.52677 -2.936293,-3.52677 -1.486922,0 -2.286756,0.70589 -3.314737,1.60503 -0.601215,0.51798 -0.998448,1.04407 -1.61576,1.66409 v -2.85042 l -0.735412,-0.37307 -8.041256,2.97655 v 1.11385 l 1.736544,0.50186 c 0.676369,0.26842 0.990397,0.61735 0.990397,1.48425 v 13.75011 c 0,0.86694 -0.493853,1.36348 -1.36079,1.36348 h -0.496526 v 1.48423 h 10.69036 l 0.01838,-1.48423 h -1.438699 c -0.864249,0 -1.481566,-0.49658 -1.481566,-1.48425 v -9.79122 c 0,-3.21543 0.496459,-3.96158 0.987709,-4.45812"
       id="path10409"
       inkscape:connector-curvature="0" />
    <path
       style="fill:#2e3092;fill-opacity:1;fill-rule:evenodd;stroke:none;stroke-width:2.46326"
       d="m 56.028391,136.66995 c 0.357775,-0.50512 0.954892,-0.74964 1.552027,-0.74964 0.836518,0 0.870711,0.89957 1.117988,1.66536 0.181496,0.54893 0.220985,1.36088 0.702356,1.39086 1.207425,0.0831 2.322781,-1.31706 2.933067,-2.7333 0.189382,-0.54206 0.394596,-1.09794 0.452466,-1.57309 0.220985,-1.86603 -1.044335,-3.56829 -2.835738,-3.56829 -1.436286,0 -2.20967,0.71274 -3.209279,1.62153 -0.573482,0.52593 -0.95489,1.05642 -1.554658,1.6815 v -2.88092 l -0.715513,-0.37598 -7.760133,3.00778 v 1.12792 l 1.675663,0.50512 c 0.655009,0.27678 0.954893,0.62739 0.954893,1.50621 v 13.91101 c 0,0.87647 -0.481395,1.37933 -1.315279,1.37933 h -0.473502 v 1.5016 h 10.324928 l 0.01837,-1.5016 h -1.388933 c -0.839146,0 -1.433653,-0.5028 -1.433653,-1.50391 v -9.90214 c 0,-3.25921 0.47879,-4.00885 0.954891,-4.50938"
       id="path10448"
       inkscape:connector-curvature="0" />
    <path
       style="fill:#2e3092;fill-opacity:1;fill-rule:evenodd;stroke:none;stroke-width:2.46326"
       d="m 35.378932,136.07711 c 0.823365,0.24452 1.060115,0.73811 1.060115,1.59846 v 13.40125 c 0,1.10949 -0.470871,1.59848 -1.288973,1.59848 h -0.465611 l 0.03155,1.35395 h 9.43317 v -1.47853 h -0.681257 c -0.820733,0 -1.291602,-0.48916 -1.291602,-1.59841 v -14.42767 -4.63163 l -0.704989,-0.24452 -7.612826,2.82787 v 0.98029 l 1.520461,0.62048"
       id="path9278"
       inkscape:connector-curvature="0" />
    <g
       id="g9288"
       transform="matrix(2.6839958,0,0,-2.6839958,115.11013,106.35792)">
      <path
         style="fill:#d71920;fill-opacity:1;fill-rule:evenodd;stroke:none"
         d="m 0.18014961,0 c 0.065,-0.181 0.109,-0.389 0.137,-0.617 l 0.507,0.046 v 0.569 l 0.002,1.28 c -0.69,0.323 -1.612,0.554 -2.30400001,0.554 -1.097,0 -2.458,-0.538 -2.841,-1.834 -0.067,-0.228 -0.104,-0.479 -0.104,-0.753 0,-0.555 0.183,-1.109 0.598,-1.569 0.277,-0.278 0.646,-0.601 0.967,-0.786 l 1.06,-0.645 c 0.87700001,-0.508 0.96700001,-0.877 0.96700001,-1.246 0,-0.647 -0.46000001,-1.154 -1.19700001,-1.154 -0.46,0 -0.83,0.139 -1.105,0.368 -0.552,0.462 -0.738,1.385 -0.738,1.661 l -0.505,-0.09 0.09,-2.124 c 0.877,-0.323 1.752,-0.508 2.35,-0.508 1.98100001,0 3.04,1.155 3.04,2.585 0,0.877 -0.36799999,1.615 -1.42799999,2.307 l -1.24300001,0.738 c -0.83,0.508 -0.97,0.881 -0.97,1.249 0,0.554 0.462,1.062 1.243,1.062 0.66700001,0 1.21300001,-0.355 1.47400001,-1.093"
         id="path10403"
         inkscape:connector-curvature="0" />
      <path
         style="fill:#d71920;fill-opacity:1;fill-rule:evenodd;stroke:none"
         d="m 7.426,-0.24 c 0.165,-0.274 0.167,-0.324 0.167,-1.154 v -4.107 c 0,-0.323 -0.184,-0.508 -0.553,-0.508 H 6.626 v -0.554 h 4.124 v 0.554 h -0.348 c -0.414,0 -0.598,0.185 -0.598,0.552 l 0.046,4.755 c 0,0.279 -0.015,0.511 -0.042,0.707 -0.067,0.492 -0.206,0.77 -0.371,1 C 9.16,1.422 8.515,1.79 7.733,1.79 6.949,1.79 6.027,1.56 4.783,0.637 v 5.7133824 l -0.274,0.138 -3.042,-1.107 v -0.369 l 0.647,-0.23 c 0.275,-0.093 0.414,-0.231 0.414,-0.601 L 2.506,0.005 2.481,-5.412 c 0,-0.415 -0.184,-0.6 -0.507,-0.6 H 1.589 l 0.003,-0.553 h 4.253 v 0.553 H 5.339 c -0.416,0 -0.555,0.185 -0.555,0.6 v 5.124 c 0.138,0.114 0.274,0.21 0.409,0.292 0.413,0.248 0.811,0.352 1.158,0.352 0.506,0 0.868,-0.249 1.075,-0.596"
         id="path9290"
         inkscape:connector-curvature="0"
         sodipodi:nodetypes="csssccccsccccscccccccccsccccssccsc" />
    </g>
    <path
       style="fill:#2e3092;fill-opacity:1;fill-rule:evenodd;stroke:none;stroke-width:2.46326"
       d="m 23.033434,132.03319 c -6.258089,0 -9.601462,3.98339 -8.87543,7.81232 0.407735,2.14052 0.997107,1.42692 3.167315,0.3544 1.794039,-0.88112 2.096471,-1.41173 1.996509,-1.98146 -0.09996,-0.59281 -0.09199,-0.31609 -0.252458,-0.85813 -0.102588,-0.39673 -0.10307,-0.4926 -0.10307,-0.59872 0,-1.09794 0.999295,-2.469 2.5408,-2.469 1.475742,0 2.546592,0.81264 2.546592,3.53211 v 2.55354 c -5.453141,2.29504 -8.434015,4.7856 -9.249487,5.73822 -1.238992,1.44623 -1.574972,2.50473 -1.574972,3.85868 0,2.9155 1.894327,4.89049 5.103604,4.89049 1.772994,0 3.961369,-0.71715 5.989526,-2.46783 0.778644,1.69768 2.096221,2.46783 3.490416,2.46783 2.546376,0 4.064531,-1.84312 4.706386,-3.12563 l -0.465545,-1.69774 c -0.205184,0.0694 -0.32367,0.26504 -0.59988,0.51645 -0.29462,0.29053 -0.536708,0.35576 -0.726108,0.35576 -0.412999,0 -0.792118,-0.25081 -0.792118,-1.32366 v -0.84884 -10.15162 c 0,-2.72869 -0.464993,-3.63068 -1.196284,-4.50488 -0.899646,-1.04277 -2.709594,-2.05229 -5.705796,-2.05229 z m 0.960039,10.85456 -0.05562,7.13021 c -0.657638,0.84884 -1.544078,1.23336 -2.238546,1.23336 -1.157442,0 -2.149372,-0.86046 -2.149373,-2.53502 0,-1.63767 1.250013,-4.11937 4.443506,-5.82855 z"
       id="path9294"
       inkscape:connector-curvature="0" />
    <path
       style="fill:#2e3092;fill-opacity:1;fill-rule:evenodd;stroke:none;stroke-width:2.46326"
       d="m 130.63191,146.43583 1.21794,0.0178 c 1.2048,2.73792 1.37315,2.78637 1.89664,3.36762 1.37841,1.53159 2.85415,2.10128 4.08788,2.10128 1.93871,0 3.17508,-1.31933 3.17508,-3.0262 0,-1.13718 -0.48929,-2.20974 -2.44116,-3.17158 -2.10181,-1.04719 -4.52455,-1.31245 -6.49747,-2.64566 -1.87032,-1.27092 -2.74367,-3.01239 -2.74367,-4.87611 0,-3.72975 3.01462,-6.88977 7.64702,-6.88977 1.3942,0 3.44077,0.31828 6.35279,1.58692 l 0.1237,5.23595 -1.52046,-0.016 c -0.13939,-0.24909 -0.30251,-0.53743 -0.51033,-0.88111 -1.63357,-2.76559 -3.50653,-3.45296 -4.54034,-3.45296 -1.60727,0 -2.71736,1.09794 -2.71736,2.54878 0,0.9826 0.4393,1.8568 1.76773,2.56723 2.22019,1.21327 4.9323,1.32168 7.00516,2.92475 1.97292,1.5062 2.58584,3.35146 2.58584,5.15292 0,4.09876 -2.91728,7.27034 -8.3599,7.27034 -2.14916,0 -4.46668,-0.46842 -6.70792,-1.45316 l 0.17882,-6.36387"
       id="path10436"
       inkscape:connector-curvature="0" />
    <path
       style="fill:#2e3092;fill-opacity:1;fill-rule:evenodd;stroke:none;stroke-width:2.46326"
       d="m 129.81164,132.39617 c -0.19727,-0.0208 -0.43141,-0.0344 -0.71551,-0.0344 h -5.84508 c -0.0581,0 -0.11314,0.004 -0.16312,0.01 v 2.20739 c 0.0474,0.002 0.0947,0.002 0.14734,0.002 1.05486,0 2.40467,0.0356 2.40467,1.09794 0,0.13146 0,0.39442 -0.313,1.35858 l -3.35441,9.2817 -3.45804,-9.50083 c -0.19726,-0.44748 -0.44979,-0.8742 -0.44979,-1.38856 0,-0.24453 0.13418,-0.50975 0.34194,-0.65277 0.28146,-0.19833 0.70307,-0.2399 2.27255,-0.2399 v -2.1405 c -0.15523,-0.0255 -1.53338,-0.0344 -1.75697,-0.0344 h -8.59403 c -0.24203,0 -0.44191,0.01 -0.60766,0.0255 v 2.1359 c 0.42092,0.0715 0.85756,0.0415 1.239,0.26985 0.76812,0.43135 1.04696,1.37011 1.43102,2.2074 l 6.80409,16.01696 c 1.13903,2.40114 -2.52796,5.96945 -3.17771,4.39172 -0.63396,-1.53385 -1.62568,-3.80816 -2.45167,-3.27303 -0.91018,0.58344 -1.33633,0.86496 -1.87822,1.85451 -0.41565,0.76114 -0.3946,1.55922 -0.0107,2.41725 0.72866,1.62618 1.65988,2.02522 3.71171,2.05291 1.47047,0.0237 1.48362,0.0119 2.75419,-0.9688 1.18112,-0.9134 1.87821,-2.2466 3.30397,-5.93944 l 5.24022,-14.81753 c 1.14166,-3.01471 1.49678,-3.93043 3.04618,-4.16108 0.0291,-0.01 0.0551,-0.0137 0.0789,-0.016 v -2.16127"
       id="path10434"
       inkscape:connector-curvature="0"
       sodipodi:nodetypes="cssccsscccscccsscccccccccccccccc" />
    <path
       style="fill:#2e3092;fill-opacity:1;fill-rule:evenodd;stroke:none;stroke-width:2.46326"
       d="m 71.236018,154.02712 c -0.02076,-0.0534 -0.04981,-0.11503 -0.07365,-0.18203 L 65.09551,136.61586 c -0.581368,-1.48313 -0.918058,-1.753 -1.612528,-1.89371 v -2.36194 h 7.794334 c 0.381432,0 0.65501,0.0368 0.860194,0.12688 v 2.11514 c -0.06837,0.0302 -0.144676,0.0551 -0.226204,0.0761 -1.097556,0.18043 -1.137014,0.41286 -1.137014,0.91341 0,1.21306 2.044169,6.42368 3.06615,10.03447 l 3.096094,-7.31527 -0.609255,-2.01108 c -0.42353,-1.0841 -0.831252,-1.45545 -2.007111,-1.65612 -0.0131,0 -0.02609,-0.002 -0.03973,-0.002 v -2.25824 c 0.13679,-0.016 0.297237,-0.0231 0.478792,-0.0231 h 9.443908 0.06048 v 2.3458 c -2.076236,0 -2.108586,0.40598 -2.108586,0.94109 0,0.17758 0.111588,0.58356 0.464324,1.58001 l 2.905793,8.29761 2.688424,-7.64715 c 0.294628,-0.92725 0.505059,-1.38626 0.505059,-2.05287 0,-0.85277 -0.96362,-1.06103 -1.929028,-1.11869 v -2.3458 h 0.04209 5.549464 c 0.334055,0 0.599764,0.0112 0.815469,0.0439 v 2.22355 c -0.07365,0.01 -0.152565,0.0207 -0.23415,0.0344 -1.149549,0.1522 -1.379979,1.13996 -2.263843,3.48345 l -5.57337,15.6482 c -0.03143,0.0877 -0.06048,0.16128 -0.08942,0.2354 h -2.154424 c -0.01838,-0.0415 -0.0344,-0.083 -0.04981,-0.12452 l -4.698175,-11.97457 -4.698168,12.05758 c -0.0077,0.0119 -0.01309,0.0297 -0.01837,0.0415 h -2.180728"
       id="path10432"
       inkscape:connector-curvature="0"
       sodipodi:nodetypes="cccccsccccccccccscccscccscccscccccccccccc" />
    <path
       style="fill:#2e3092;fill-opacity:1;fill-rule:evenodd;stroke:none;stroke-width:2.46326"
       d="m 101.88206,131.44523 c -6.26072,0 -9.601463,3.9834 -8.875434,7.81232 0.41037,2.14052 0.996795,1.42808 3.169634,0.35553 1.788779,-0.88112 2.091839,-1.41173 1.991874,-1.98146 -0.10258,-0.59281 -0.0865,-0.31609 -0.244345,-0.85813 -0.110465,-0.39673 -0.11118,-0.49379 -0.11118,-0.59988 0,-1.09793 0.997194,-2.46784 2.546591,-2.46784 1.47311,0 2.5408,0.81148 2.5408,3.53095 v 2.55354 c -5.450506,2.29505 -8.431064,4.7856 -9.251799,5.73822 -1.233724,1.44621 -1.570339,2.50589 -1.570339,3.85985 0,2.9155 1.896644,4.88936 5.105922,4.88936 1.767734,0 3.959056,-0.71715 5.987206,-2.46783 0.78128,1.69767 2.09475,2.46783 3.49157,2.46783 2.54375,0 4.06632,-1.84312 4.70291,-3.12563 l -0.46788,-1.69655 c -0.20254,0.0694 -0.31579,0.26504 -0.59988,0.51644 -0.29196,0.29054 -0.5347,0.35458 -0.72147,0.35458 -0.41825,0 -0.78864,-0.25081 -0.78864,-1.32366 v -0.84884 -10.15165 c 0,-2.72869 -0.47637,-3.63068 -1.19977,-4.50488 -0.89965,-1.04257 -2.71222,-2.0521 -5.70579,-2.0521 z m 0.98668,10.85573 -0.0557,7.13024 c -0.65764,0.84884 -1.5464,1.23335 -2.24086,1.23335 -1.154817,0 -2.149376,-0.85933 -2.149376,-2.53388 0,-1.63769 1.249704,-4.12054 4.445826,-5.82971 z"
       id="path10430"
       inkscape:connector-curvature="0" />
  </g>
</svg>
