<?xml version="1.0" encoding="UTF-8" standalone="no"?>
<!-- Created with Inkscape (http://www.inkscape.org/) -->

<svg
   width="132.29166mm"
   height="11.64861mm"
   viewBox="0 0 132.29166 11.64861"
   version="1.1"
   id="svg1"
   inkscape:version="1.4 (86a8ad7, 2024-10-11)"
   sodipodi:docname="British Airways 1997 wordmark.svg"
   xmlns:inkscape="http://www.inkscape.org/namespaces/inkscape"
   xmlns:sodipodi="http://sodipodi.sourceforge.net/DTD/sodipodi-0.dtd"
   xmlns="http://www.w3.org/2000/svg"
   xmlns:svg="http://www.w3.org/2000/svg">
  <sodipodi:namedview
     id="namedview1"
     pagecolor="#ffffff"
     bordercolor="#000000"
     borderopacity="0.25"
     inkscape:showpageshadow="2"
     inkscape:pageopacity="0.0"
     inkscape:pagecheckerboard="0"
     inkscape:deskcolor="#d1d1d1"
     inkscape:document-units="mm"
     inkscape:zoom="1.9729351"
     inkscape:cx="230.11401"
     inkscape:cy="-0.25342953"
     inkscape:window-width="1920"
     inkscape:window-height="1001"
     inkscape:window-x="-9"
     inkscape:window-y="-9"
     inkscape:window-maximized="1"
     inkscape:current-layer="layer1" />
  <defs
     id="defs1" />
  <g
     inkscape:label="Layer 1"
     inkscape:groupmode="layer"
     id="layer1"
     transform="translate(-115.47901,-106.35823)">
    <path
       style="fill:#00054c;fill-opacity:1;stroke-width:1.51242"
       d="m 115.47901,106.5125 c 0.36298,0.19663 0.52779,0.62463 0.52779,1.01786 v 9.26507 c 0,0.37658 -0.16481,0.81819 -0.52779,1.0042 v 0.002 h 4.79281 c 1.86785,0 4.52212,-0.64731 4.52212,-3.1791 0,-1.77102 -1.55172,-2.7526 -3.15638,-2.73749 1.11463,-0.21023 2.14759,-1.1449 2.14759,-2.33064 0,-2.23687 -1.92077,-3.04143 -3.88994,-3.04143 z m 3.57535,0.97246 c 1.33849,0 2.38502,0.45219 2.38502,2.00846 0,1.56839 -1.30971,1.98585 -2.6618,1.98585 h -0.44771 v -3.94891 c 0.37809,-0.0453 0.5203,-0.0454 0.72449,-0.0454 z m 0.2813,5.01217 c 1.4247,0 2.78735,0.38568 2.78735,2.0932 0,1.73019 -1.15244,2.23532 -2.28525,2.23532 -0.4885,0 -1.01788,-0.0302 -1.50789,-0.12708 v -4.17124 c 0.39322,-0.0303 0.68365,-0.0302 1.00579,-0.0302 z"
       id="path803"
       inkscape:connector-curvature="0" />
    <path
       style="fill:#00054c;fill-opacity:1;stroke-width:1.51242"
       d="m 125.72865,106.51397 c 0.35541,0.19661 0.5248,0.62463 0.5248,1.01784 v 9.26509 c 0,0.39473 -0.16939,0.81824 -0.5248,1.00426 h 3.3893 c -0.3645,-0.16938 -0.5354,-0.62768 -0.5354,-1.00426 v -4.31489 c 1.47009,0.0167 2.04024,1.53807 2.69511,2.64064 0.42196,0.67907 1.48373,2.40927 2.25203,2.63764 0.4129,0.12251 0.88925,0.10591 1.32332,0.10591 0.72444,0 1.45041,-0.0862 2.14612,-0.29043 -2.5953,-0.0166 -3.97459,-5.52787 -6.32489,-5.54149 1.65157,0 3.13223,-0.91649 3.13223,-2.7072 0,-2.134 -2.22181,-2.81311 -3.99738,-2.81311 z m 3.43316,0.97099 c 1.24169,0 2.16578,0.50215 2.16578,1.91475 0,1.37933 -0.93921,2.08108 -2.20964,2.08108 -0.18299,0 -0.35087,-0.0181 -0.5354,-0.0318 v -3.90358 c 0.19965,-0.0288 0.3766,-0.0605 0.57926,-0.0605 z"
       id="path797"
       inkscape:connector-curvature="0" />
    <path
       style="fill:#00054c;fill-opacity:1;stroke-width:1.51242"
       d="m 137.16853,117.79964 c 0.2798,-0.12704 0.5732,-0.49759 0.5732,-1.00424 v -9.26505 c 0,-0.51422 -0.2934,-0.87872 -0.5732,-1.01787 h 3.47402 c -0.29946,0.13915 -0.57019,0.50365 -0.57019,1.01787 v 9.26505 c 0,0.50665 0.27073,0.8772 0.57019,1.00424 z"
       id="path793"
       inkscape:connector-curvature="0" />
    <path
       style="fill:#00054c;fill-opacity:1;stroke-width:1.51242"
       d="m 144.70641,117.79964 c 0.37206,-0.16938 0.55355,-0.6095 0.55355,-1.00424 v -8.98828 h -2.49397 c -0.57473,0 -1.26137,0.0696 -1.75593,0.36449 l 0.77588,-1.65913 h 8.2729 c 0.67,0 1.35663,-0.0166 2.00698,-0.15425 -0.3161,0.85149 -1.2538,1.48065 -1.79373,1.48065 -0.65638,-0.0167 -1.7438,-0.059 -2.68,-0.059 v 9.01549 c 0,0.39474 0.19511,0.83486 0.56111,1.00425 z"
       id="path791"
       inkscape:connector-curvature="0" />
    <path
       style="fill:#00054c;fill-opacity:1;stroke-width:1.51242"
       d="m 152.47872,117.79964 c 0.27676,-0.12704 0.56866,-0.49759 0.56866,-1.00424 v -9.26505 c 0,-0.51422 -0.2919,-0.87872 -0.56866,-1.01787 h 3.47401 c -0.29643,0.13915 -0.57775,0.50365 -0.57775,1.01787 v 9.26505 c 0,0.50665 0.28132,0.8772 0.57775,1.00424 z"
       id="path789"
       inkscape:connector-curvature="0" />
    <path
       style="fill:#00054c;fill-opacity:1;stroke-width:1.51242"
       d="m 162.70161,115.24517 c 0,-2.15064 -5.06356,-2.63463 -5.06356,-6.0663 0,-2.12492 2.0221,-2.82064 3.79918,-2.82064 0.79251,0 1.94043,0.10889 2.66488,0.44162 l 0.12552,2.11133 c -0.44465,-0.93166 -1.5608,-1.60768 -2.59682,-1.60768 -0.81971,0 -1.67726,0.40683 -1.67726,1.34301 0,2.2308 5.14826,2.77376 5.14826,6.02546 0,2.35937 -2.05991,3.33487 -4.14099,3.33487 -1.08743,0 -2.56808,-0.20871 -3.48612,-0.83637 -0.0559,-0.37659 -0.0817,-0.77435 -0.0817,-1.16001 0,-0.46129 0.0408,-0.92107 0.10889,-1.37478 0.57321,1.30369 1.75743,2.32457 3.23808,2.32457 1.12523,0.002 1.9616,-0.48851 1.9616,-1.71508"
       id="path787"
       inkscape:connector-curvature="0" />
    <path
       style="fill:#00054c;fill-opacity:1;stroke-width:1.51242"
       d="m 173.55552,117.79964 c 0.24501,-0.1104 0.50666,-0.49759 0.50666,-1.00424 v -4.19997 c -0.60345,-0.0681 -1.44738,-0.0968 -2.39567,-0.0968 -0.96039,0 -1.81035,0.0303 -2.43045,0.0968 v 4.19997 c 0,0.50665 0.2556,0.8772 0.50363,1.00424 h -3.34395 c 0.24804,-0.1104 0.51271,-0.49759 0.51271,-1.00424 v -9.26505 c 0,-0.51422 -0.26467,-0.89385 -0.51271,-1.01787 h 3.34395 c -0.24803,0.12402 -0.50363,0.50365 -0.50363,1.01787 v 3.79464 c 0.6201,0.065 1.45494,0.0953 2.43045,0.0953 0.94829,0 1.79222,-0.0393 2.39567,-0.0953 v -3.79464 c 0,-0.51422 -0.26165,-0.89385 -0.50666,-1.01787 h 3.33941 c -0.24955,0.12402 -0.49759,0.50365 -0.49759,1.01787 v 9.26505 c 0,0.50665 0.24804,0.8772 0.49759,1.00424 z"
       id="path5786"
       inkscape:connector-curvature="0" />
    <path
       style="fill:#00054c;fill-opacity:1;stroke-width:1.51242"
       d="m 185.02288,106.5125 c 0.23746,0.12402 0.41436,0.37655 0.41436,0.64123 l -0.0227,0.13918 -3.73564,9.63857 c -0.14217,0.34636 -0.43253,0.69876 -0.76828,0.86815 h 2.27159 c -0.121,-0.059 -0.26613,-0.14216 -0.26613,-0.30852 0,-0.0741 0.0469,-0.18904 0.17994,-0.52934 0,0 0.99366,-2.50908 1.08893,-2.76166 0.66849,-0.0711 1.35212,-0.0862 2.02816,-0.0862 0.70933,0 1.43527,-1e-5 2.1325,0.0862 0.10737,0.29191 1.03448,2.81458 1.03448,2.81458 0.0832,0.21325 0.1089,0.32368 0.1089,0.39175 0,0.20115 -0.0983,0.28278 -0.20715,0.39319 h 3.23202 c -0.27678,-0.15426 -0.60951,-0.46131 -0.76378,-0.87873 l -3.79768,-10.4084 z m 1.31127,2.14759 1.59556,4.39357 c -0.57473,0.0681 -1.16004,0.0681 -1.7514,0.0681 -0.51724,0 -1.04503,-0.0121 -1.55623,-0.0681 z"
       id="path783"
       inkscape:connector-curvature="0" />
    <path
       style="fill:#00054c;fill-opacity:1;stroke-width:1.51242"
       d="m 193.08654,117.79964 c 0.27979,-0.12704 0.56867,-0.49759 0.56867,-1.00424 v -9.26505 c 0,-0.51422 -0.28888,-0.87872 -0.56867,-1.01787 h 3.47101 c -0.29646,0.13915 -0.57019,0.50365 -0.57019,1.01787 v 9.26505 c 0,0.50665 0.27373,0.8772 0.57019,1.00424 z"
       id="path779"
       inkscape:connector-curvature="0" />
    <path
       style="fill:#00054c;fill-opacity:1;stroke-width:1.51242"
       d="m 198.40094,106.51397 c 0.3645,0.19661 0.53386,0.62463 0.53386,1.01784 v 9.26509 c 0,0.39473 -0.16936,0.81824 -0.53386,1.00426 h 3.38624 c -0.35845,-0.16938 -0.52174,-0.62768 -0.52174,-1.00426 v -4.31489 c 1.45948,0 2.31092,1.53807 2.96428,2.64064 0.42197,0.67907 1.48069,2.40927 2.2505,2.63764 0.42197,0.12251 0.88931,0.10591 1.32186,0.10591 0.73049,0 1.45492,-0.0862 2.15518,-0.29043 -2.41685,0 -3.88537,-5.40082 -6.32037,-5.54149 1.22355,0 2.84333,-0.91649 2.84333,-2.7072 0,-2.134 -2.21867,-2.81311 -3.98971,-2.81311 z m 3.42558,0.97099 c 1.24472,0 2.17182,0.50215 2.17182,1.91475 0,1.37933 -0.9377,2.08108 -2.21116,2.08108 -0.17696,0 -0.34176,-0.0181 -0.52174,-0.0318 v -3.90358 c 0.19359,-0.0288 0.37354,-0.0605 0.56108,-0.0605 z"
       id="path777"
       inkscape:connector-curvature="0" />
    <path
       style="fill:#00054c;fill-opacity:1;stroke-width:1.51242"
       d="m 221.89809,107.61352 -3.42864,10.18612 c -0.28434,0 -0.56263,-0.0968 -0.71992,-0.20871 -0.33726,-0.32669 -0.87114,-1.68937 -1.06473,-2.19301 l -1.54871,-3.91865 -2.23384,6.32037 h -1.06172 l -3.84002,-10.21031 c -0.16334,-0.43557 -0.44616,-0.85149 -0.8651,-1.07685 h 3.33639 c -0.13914,0.10738 -0.23745,0.2314 -0.23745,0.47037 l 0.0983,0.39172 2.50002,6.75594 2.66033,-7.61651 2.93106,7.34279 2.22175,-6.64707 c 0.0545,-0.18151 0.0877,-0.24804 0.0877,-0.36148 0,-0.13914 -0.0605,-0.22686 -0.19964,-0.33576 h 2.20965 c -0.40987,0.21478 -0.7048,0.67908 -0.84545,1.10104"
       id="path773"
       inkscape:connector-curvature="0" />
    <path
       style="fill:#00054c;fill-opacity:1;stroke-width:1.51242"
       d="m 224.67588,106.5125 c 0.2435,0.12402 0.42043,0.37655 0.42043,0.64123 l -0.0212,0.13918 -3.74775,9.63857 c -0.14067,0.34636 -0.42957,0.69876 -0.76683,0.86815 h 2.2732 c -0.12099,-0.059 -0.25867,-0.14216 -0.25867,-0.30852 0,-0.0741 0.0379,-0.18904 0.18152,-0.52934 0,0 0.98609,-2.50908 1.08289,-2.76166 0.67302,-0.0711 1.35813,-0.0862 2.02511,-0.0862 0.71083,0 1.43524,-1e-5 2.137,0.0862 0.11193,0.29191 1.03303,2.81458 1.03303,2.81458 0.0681,0.21325 0.10284,0.32368 0.10284,0.39175 0,0.20115 -0.0892,0.28278 -0.20568,0.39319 h 3.24112 c -0.27677,-0.15426 -0.61254,-0.46131 -0.76982,-0.87873 l -3.79622,-10.4084 z m 1.3112,2.14759 1.59717,4.39357 c -0.5717,0.0681 -1.16305,0.0681 -1.74987,0.0681 -0.51422,0 -1.04211,-0.0121 -1.55936,-0.0681 z"
       id="path771"
       inkscape:connector-curvature="0" />
    <path
       style="fill:#00054c;fill-opacity:1;stroke-width:1.51242"
       d="m 239.12495,107.69521 -2.67244,4.6915 v 4.40869 c 0,0.35693 0.14671,0.83486 0.50364,1.00424 h -3.3258 c 0.33877,-0.18602 0.49456,-0.65942 0.49456,-1.00424 v -4.42381 l -2.32307,-3.72508 c -0.2072,-0.34634 -1.17817,-1.97068 -2.35937,-1.97068 0.32062,-0.1225 1.29917,-0.30853 1.95404,-0.30853 1.09347,0 1.63492,0.0998 2.30643,1.14943 l 2.14914,3.40898 c 0.17998,-0.33574 1.88296,-3.29706 1.88296,-3.29706 0.20569,-0.35844 0.34635,-0.61252 0.34635,-0.73956 0,-0.16183 -0.0696,-0.26923 -0.23443,-0.37661 h 2.39717 c -0.47187,0.22536 -0.86207,0.73806 -1.11918,1.18273"
       id="path767"
       inkscape:connector-curvature="0" />
    <path
       style="fill:#00054c;fill-opacity:1;stroke-width:1.51242"
       d="m 245.37199,115.24517 c 0,-2.15064 -5.06357,-2.63463 -5.06357,-6.0663 0,-2.12492 2.01454,-2.82064 3.79314,-2.82064 0.79552,0 1.93589,0.10889 2.66638,0.44162 l 0.12402,2.11133 c -0.44919,-0.93166 -1.56081,-1.60768 -2.59833,-1.60768 -0.82124,0 -1.67273,0.40683 -1.67273,1.34301 0,2.2308 5.14977,2.77376 5.14977,6.02546 0,2.35937 -2.0478,3.33487 -4.1425,3.33487 -1.08743,0 -2.57262,-0.20871 -3.49066,-0.83637 -0.059,-0.37659 -0.0892,-0.77435 -0.0892,-1.16001 0,-0.46129 0.0438,-0.92107 0.11342,-1.37478 0.57321,1.30369 1.76197,2.32457 3.24262,2.32457 1.12978,0.002 1.96766,-0.48851 1.96766,-1.71508"
       id="path5788"
       inkscape:connector-curvature="0" />
  </g>
</svg>
