<?xml version="1.0" encoding="utf-8"?>
<!-- Generator: Adobe Illustrator 14.0.0, SVG Export Plug-In . SVG Version: 6.00 Build 43363)  -->
<!DOCTYPE svg PUBLIC "-//W3C//DTD SVG 1.1//EN" "http://www.w3.org/Graphics/SVG/1.1/DTD/svg11.dtd">
<svg version="1.1" id="Layer_2" xmlns="http://www.w3.org/2000/svg" xmlns:xlink="http://www.w3.org/1999/xlink" x="0px" y="0px"
	 width="480px" height="65px" viewBox="0 0 480 65" enable-background="new 0 0 480 65" xml:space="preserve">
<g>
	<path fill="#3A334C" d="M12.98,18.283c0-1.104-0.073-2.075-0.217-2.916c-0.146-0.839-0.425-1.535-0.838-2.088
		c-0.414-0.551-0.982-0.972-1.706-1.26c-0.724-0.288-1.644-0.432-2.761-0.432V8.204H34.63c2.854,0,5.273,0.3,7.258,0.9
		c1.985,0.601,3.598,1.429,4.839,2.484c1.24,1.057,2.129,2.268,2.667,3.636c0.537,1.368,0.807,2.844,0.807,4.429
		c0,3.023-0.973,5.556-2.916,7.596c-1.944,2.041-4.818,3.444-8.623,4.211v0.145c4.218,0.721,7.433,2.124,9.646,4.212
		c2.212,2.089,3.319,4.765,3.319,8.028c0,1.488-0.279,3.023-0.837,4.607c-0.559,1.584-1.479,3.037-2.761,4.356
		c-1.282,1.321-2.947,2.401-4.994,3.24c-2.047,0.841-4.56,1.26-7.537,1.26H7.646v-3.384c1.157-0.047,2.087-0.228,2.791-0.54
		c0.703-0.312,1.241-0.757,1.613-1.332c0.372-0.576,0.62-1.261,0.744-2.052c0.124-0.793,0.186-1.692,0.186-2.7V18.283z
		 M30.908,30.236c1.158,0,2.212-0.229,3.164-0.685c0.951-0.456,1.768-1.08,2.45-1.872c0.683-0.792,1.199-1.703,1.551-2.736
		c0.351-1.031,0.527-2.147,0.527-3.348c0-1.199-0.166-2.387-0.496-3.564c-0.331-1.176-0.837-2.242-1.52-3.203
		c-0.683-0.96-1.562-1.74-2.637-2.34c-1.076-0.6-2.337-0.9-3.784-0.9h-6.265v18.649H30.908z M23.898,46.724
		c0,2.064,0.465,3.78,1.396,5.147c0.93,1.369,2.615,2.053,5.055,2.053c3.06,0,5.407-0.888,7.041-2.664
		c1.633-1.775,2.45-4.104,2.45-6.984c0-1.439-0.228-2.795-0.682-4.068c-0.456-1.271-1.096-2.398-1.923-3.383
		c-0.828-0.984-1.82-1.765-2.978-2.341c-1.158-0.575-2.461-0.864-3.908-0.864h-6.451V46.724z"/>
	<path fill="#3A334C" d="M59.877,33.548l-4.963-3.528v-2.16l10.67-3.6h3.226v9.288h0.124c2.812-6.337,5.934-9.505,9.367-9.505
		c0.744,0,1.437,0.133,2.078,0.396c0.641,0.265,1.209,0.637,1.706,1.116c0.496,0.48,0.889,1.021,1.178,1.62
		c0.289,0.601,0.435,1.236,0.435,1.908c0,0.48-0.093,1.188-0.279,2.123c-0.186,0.937-0.445,1.873-0.775,2.809
		c-0.331,0.936-0.735,1.753-1.209,2.447c-0.476,0.697-1.003,1.045-1.582,1.045c-0.496,0-1.034-0.24-1.613-0.721
		c-0.58-0.479-1.148-1.019-1.706-1.619c-0.558-0.6-1.096-1.141-1.613-1.62c-0.518-0.479-0.961-0.72-1.333-0.72
		c-0.58,0-1.148,0.287-1.706,0.863s-1.065,1.285-1.52,2.124c-0.455,0.841-0.828,1.753-1.117,2.736
		c-0.29,0.984-0.434,1.86-0.434,2.628v6.408c0,1.248,0.093,2.28,0.279,3.096c0.186,0.816,0.506,1.465,0.961,1.943
		c0.455,0.48,1.055,0.817,1.799,1.009c0.745,0.192,1.654,0.288,2.729,0.288v3.384H55.411v-3.384
		c1.737-0.096,2.916-0.648,3.536-1.656c0.62-1.008,0.93-2.424,0.93-4.248V33.548z"/>
	<path fill="#3A334C" d="M100.073,47.371c0,2.113,0.3,3.709,0.899,4.789c0.599,1.08,1.83,1.668,3.691,1.764v3.384H86.178v-3.384
		c1.861,0,3.153-0.516,3.877-1.549c0.723-1.031,1.086-2.65,1.086-4.859V33.548l-4.963-3.384v-2.305l10.731-3.6h3.164V47.371z
		 M89.466,13.531c0-1.679,0.517-3.119,1.551-4.32c1.033-1.199,2.274-1.8,3.722-1.8c0.745,0,1.437,0.156,2.078,0.468
		c0.641,0.313,1.199,0.745,1.675,1.296c0.475,0.552,0.858,1.2,1.147,1.944c0.289,0.745,0.434,1.548,0.434,2.412
		c0,0.864-0.145,1.669-0.434,2.412c-0.29,0.745-0.672,1.393-1.147,1.944c-0.476,0.552-1.034,0.997-1.675,1.332
		c-0.642,0.337-1.333,0.504-2.078,0.504c-0.744,0-1.438-0.167-2.078-0.504c-0.642-0.335-1.2-0.78-1.675-1.332
		c-0.476-0.552-0.848-1.199-1.117-1.944C89.6,15.2,89.466,14.396,89.466,13.531z"/>
	<path fill="#3A334C" d="M119.862,46.436c0,1.969,0.279,3.396,0.838,4.284c0.558,0.889,1.746,1.332,3.566,1.332
		c0.745,0,1.406-0.083,1.985-0.252c0.579-0.168,1.261-0.443,2.047-0.828v3.96c-1.034,0.961-2.419,1.729-4.156,2.305
		c-1.737,0.575-3.557,0.863-5.459,0.863c-2.274,0-4.136-0.721-5.583-2.16c-1.448-1.439-2.171-3.456-2.171-6.048V29.156h-4.094
		v-3.744c1.281-0.191,2.491-0.6,3.629-1.225c1.137-0.623,2.161-1.355,3.07-2.195s1.675-1.74,2.295-2.701
		c0.621-0.959,1.055-1.871,1.303-2.735h2.729v8.353h8.437v4.248h-8.437V46.436z"/>
	<path fill="#3A334C" d="M143.993,47.371c0,2.113,0.3,3.709,0.899,4.789c0.599,1.08,1.83,1.668,3.691,1.764v3.384h-18.486v-3.384
		c1.861,0,3.153-0.516,3.877-1.549c0.723-1.031,1.085-2.65,1.085-4.859V33.548l-4.963-3.384v-2.305l10.732-3.6h3.164V47.371z
		 M133.385,13.531c0-1.679,0.517-3.119,1.551-4.32c1.033-1.199,2.274-1.8,3.722-1.8c0.745,0,1.437,0.156,2.078,0.468
		c0.641,0.313,1.199,0.745,1.675,1.296c0.475,0.552,0.857,1.2,1.147,1.944c0.289,0.745,0.434,1.548,0.434,2.412
		c0,0.864-0.145,1.669-0.434,2.412c-0.29,0.745-0.673,1.393-1.147,1.944c-0.476,0.552-1.034,0.997-1.675,1.332
		c-0.642,0.337-1.333,0.504-2.078,0.504s-1.438-0.167-2.079-0.504c-0.641-0.335-1.2-0.78-1.675-1.332
		c-0.476-0.552-0.848-1.199-1.116-1.944C133.519,15.2,133.385,14.396,133.385,13.531z"/>
	<path fill="#3A334C" d="M174.141,34.34h-2.667c-0.952-2.16-2.213-3.852-3.784-5.076c-1.572-1.225-3.226-1.836-4.963-1.836
		c-1.324,0-2.388,0.313-3.195,0.936c-0.806,0.625-1.209,1.416-1.209,2.377c0,0.96,0.434,1.752,1.303,2.375
		c0.869,0.625,1.943,1.201,3.226,1.729c1.282,0.529,2.688,1.092,4.218,1.691c1.53,0.602,2.936,1.357,4.218,2.269
		c1.282,0.912,2.357,2.077,3.226,3.491c0.868,1.417,1.302,3.182,1.302,5.293c0,3.312-1.003,5.893-3.008,7.74
		c-2.006,1.848-4.788,2.771-8.343,2.771c-1.779,0-3.567-0.216-5.366-0.648c-1.799-0.432-3.918-1.199-6.358-2.304l-0.496-8.424h2.729
		c2.439,5.04,5.604,7.56,9.491,7.56c1.737,0,3.009-0.383,3.815-1.151c0.806-0.768,1.209-1.632,1.209-2.593
		c0-0.959-0.434-1.751-1.303-2.375c-0.868-0.623-1.954-1.212-3.257-1.765c-1.303-0.552-2.72-1.104-4.249-1.655
		c-1.531-0.552-2.947-1.271-4.25-2.16s-2.388-1.992-3.257-3.313c-0.868-1.319-1.303-2.988-1.303-5.004
		c0-1.872,0.331-3.467,0.993-4.788c0.661-1.319,1.52-2.376,2.574-3.168s2.254-1.368,3.599-1.728c1.343-0.36,2.698-0.541,4.063-0.541
		c1.489,0,3.173,0.217,5.056,0.648c1.881,0.432,3.649,1.033,5.304,1.801L174.141,34.34z"/>
	<path fill="#3A334C" d="M192.254,30.02h0.124c2.688-3.983,5.996-5.977,9.925-5.977c2.688,0,4.879,0.781,6.576,2.341
		c1.695,1.56,2.543,3.995,2.543,7.308v12.816c0,1.344,0.052,2.447,0.155,3.313c0.103,0.863,0.31,1.572,0.621,2.123
		c0.31,0.553,0.723,0.973,1.241,1.26c0.517,0.289,1.209,0.529,2.078,0.721v3.384h-16.563v-3.384c0.744-0.24,1.343-0.516,1.799-0.828
		c0.455-0.312,0.807-0.744,1.055-1.296s0.423-1.248,0.527-2.089c0.103-0.838,0.155-1.907,0.155-3.203v-8.352
		c0-2.449-0.497-4.225-1.489-5.328s-2.088-1.656-3.288-1.656c-0.745,0-1.593,0.18-2.543,0.539c-0.952,0.361-1.923,0.877-2.916,1.549
		v14.472c0,1.681,0.237,3.073,0.713,4.177c0.475,1.104,1.437,1.775,2.885,2.016v3.384h-16.874v-3.384c2.895,0,4.343-2.04,4.343-6.12
		V16.556l-4.343-3.097v-2.087l10.856-3.96h2.419V30.02z"/>
	<path fill="#BD3336" d="M267.603,53.359c-0.869,1.537-1.934,2.725-3.194,3.564c-1.262,0.839-2.554,1.26-3.877,1.26
		c-3.061,0-5.128-1.607-6.203-4.824c-1.696,1.825-3.278,3.085-4.746,3.78c-1.469,0.695-3.175,1.044-5.118,1.044
		c-2.647,0-4.788-0.684-6.421-2.052c-1.634-1.368-2.45-3.156-2.45-5.364c0-2.256,0.661-4.127,1.985-5.616
		c1.323-1.487,2.946-2.711,4.869-3.672c1.923-0.96,3.959-1.728,6.111-2.304c2.149-0.576,4.073-1.104,5.769-1.584v-5.328
		c0-1.439-0.394-2.592-1.179-3.456c-0.786-0.864-1.861-1.296-3.226-1.296c-0.828,0-1.572,0.156-2.233,0.468
		c-0.662,0.313-1.2,0.78-1.613,1.404c-0.414,0.624-0.662,1.403-0.745,2.34c-0.083,0.937,0.063,2.005,0.434,3.204l-8.25,3.023
		c-0.58-1.728-0.869-3.312-0.869-4.752c0-2.927,1.241-5.172,3.722-6.731s6.182-2.341,11.104-2.341c2.192,0,4.042,0.181,5.553,0.541
		c1.509,0.359,2.729,0.912,3.66,1.656c0.93,0.744,1.592,1.668,1.985,2.771c0.393,1.104,0.589,2.4,0.589,3.888V47.96
		c0,1.584,0.373,2.46,1.117,2.628c0.745,0.169,1.654-0.084,2.729-0.756L267.603,53.359z M254.328,40.904
		c-1.448,0.479-2.729,0.936-3.846,1.367s-2.058,0.925-2.822,1.477c-0.766,0.552-1.355,1.176-1.769,1.871
		c-0.414,0.697-0.62,1.549-0.62,2.557c0,1.344,0.341,2.473,1.023,3.384c0.682,0.912,1.52,1.368,2.512,1.368
		c0.785,0,1.602-0.24,2.45-0.72c0.847-0.479,1.871-1.271,3.071-2.376V40.904z"/>
	<path fill="#BD3336" d="M283.421,47.455c0,2.113,0.299,3.709,0.899,4.788c0.599,1.08,1.83,1.669,3.691,1.765v3.384h-18.486v-3.384
		c1.861,0,3.153-0.516,3.877-1.548c0.723-1.032,1.086-2.652,1.086-4.86V33.632l-4.963-3.384v-2.305l10.732-3.6h3.164V47.455z"/>
	<path fill="#BD3336" d="M294.834,33.632l-4.962-3.528v-2.16l10.669-3.6h3.226v9.288h0.124c2.812-6.337,5.935-9.505,9.367-9.505
		c0.744,0,1.437,0.133,2.078,0.396c0.642,0.265,1.21,0.637,1.706,1.116c0.496,0.48,0.889,1.021,1.178,1.62
		c0.289,0.601,0.436,1.236,0.436,1.908c0,0.48-0.094,1.188-0.279,2.123c-0.186,0.937-0.445,1.873-0.775,2.809
		c-0.332,0.936-0.734,1.753-1.211,2.447c-0.475,0.697-1.002,1.045-1.581,1.045c-0.496,0-1.034-0.24-1.613-0.721
		c-0.579-0.479-1.147-1.019-1.706-1.619c-0.559-0.6-1.096-1.141-1.612-1.62c-0.518-0.479-0.961-0.72-1.334-0.72
		c-0.58,0-1.147,0.287-1.706,0.863c-0.559,0.576-1.065,1.285-1.52,2.124c-0.455,0.841-0.828,1.753-1.117,2.736
		c-0.29,0.984-0.434,1.86-0.434,2.628v6.408c0,1.248,0.093,2.28,0.279,3.096c0.186,0.816,0.506,1.465,0.961,1.944
		c0.455,0.48,1.055,0.816,1.799,1.008c0.745,0.192,1.654,0.288,2.73,0.288v3.384h-19.168v-3.384
		c1.736-0.096,2.915-0.648,3.536-1.656c0.62-1.008,0.93-2.423,0.93-4.248V33.632z"/>
	<path fill="#BD3336" d="M335.094,46.52c0,1.969,0.279,3.396,0.838,4.284c0.557,0.889,1.746,1.332,3.566,1.332
		c0.744,0,1.404-0.083,1.984-0.252c0.578-0.168,1.262-0.443,2.047-0.828v3.96c-1.033,0.961-2.418,1.728-4.156,2.304
		c-1.736,0.576-3.557,0.864-5.459,0.864c-2.273,0-4.135-0.72-5.582-2.16c-1.449-1.439-2.172-3.456-2.172-6.048V29.24h-4.094v-3.744
		c1.281-0.191,2.49-0.6,3.629-1.225c1.137-0.623,2.16-1.355,3.07-2.195s1.676-1.74,2.295-2.701c0.621-0.959,1.055-1.871,1.303-2.735
		h2.73v8.353h8.436v4.248h-8.436V46.52z"/>
	<path fill="#BD3336" d="M377.4,41.191c0,2.209-0.301,4.332-0.9,6.372c-0.6,2.041-1.541,3.853-2.822,5.437s-2.916,2.844-4.9,3.779
		c-1.984,0.937-4.342,1.404-7.072,1.404c-2.273,0-4.342-0.396-6.203-1.188c-1.861-0.792-3.465-1.907-4.807-3.348
		c-1.346-1.439-2.379-3.168-3.102-5.184c-0.725-2.017-1.086-4.248-1.086-6.696c0-2.207,0.33-4.367,0.992-6.48
		c0.66-2.111,1.645-3.996,2.947-5.651c1.303-1.656,2.945-2.988,4.932-3.996c1.984-1.008,4.32-1.513,7.01-1.513
		c2.77,0,5.117,0.553,7.041,1.656c1.922,1.105,3.473,2.496,4.652,4.176c1.178,1.682,2.025,3.518,2.543,5.509
		C377.141,37.46,377.4,39.368,377.4,41.191z M367.785,45.367c0-5.662-0.508-10.055-1.52-13.176c-1.014-3.119-2.596-4.68-4.746-4.68
		c-1.117,0-2.016,0.301-2.699,0.9c-0.682,0.6-1.23,1.416-1.643,2.447c-0.414,1.033-0.693,2.244-0.838,3.637
		s-0.217,2.904-0.217,4.535c0,2.977,0.154,5.473,0.465,7.488s0.744,3.636,1.303,4.86c0.559,1.224,1.219,2.1,1.984,2.628
		s1.623,0.792,2.574,0.792c1.695,0,3.01-0.815,3.939-2.448C367.32,50.721,367.785,48.392,367.785,45.367z"/>
	<path fill="#BD3336" d="M412.697,46.375c0,1.44,0.041,2.581,0.123,3.421c0.084,0.84,0.279,1.476,0.59,1.907
		c0.311,0.433,0.766,0.721,1.365,0.864c0.6,0.145,1.396,0.216,2.389,0.216v3.385l-10.918,1.872h-2.482v-5.473
		c-0.951,1.057-1.83,1.944-2.635,2.664c-0.807,0.72-1.604,1.296-2.389,1.729c-0.787,0.432-1.572,0.743-2.357,0.936
		c-0.787,0.191-1.635,0.288-2.543,0.288c-3.102,0-5.408-1.02-6.918-3.06s-2.264-4.956-2.264-8.749V35.216
		c0-2.017-0.26-3.479-0.775-4.392c-0.518-0.912-1.438-1.561-2.762-1.945V25.64l12.471-0.647v20.951c0,0.961,0.143,1.8,0.434,2.521
		c0.289,0.72,0.66,1.309,1.115,1.764c0.455,0.457,0.963,0.792,1.521,1.008s1.125,0.324,1.705,0.324c1.654,0,3.453-0.792,5.396-2.376
		V33.775c0-1.296-0.332-2.399-0.992-3.313c-0.662-0.91-1.551-1.439-2.668-1.584V25.64l12.594-0.647V46.375z"/>
	<path fill="#BD3336" d="M424.297,33.632l-4.963-3.528v-2.16l10.67-3.6h3.227v9.288h0.123c2.813-6.337,5.936-9.505,9.367-9.505
		c0.744,0,1.438,0.133,2.078,0.396c0.641,0.265,1.211,0.637,1.707,1.116c0.496,0.48,0.889,1.021,1.178,1.62
		c0.289,0.601,0.436,1.236,0.436,1.908c0,0.48-0.094,1.188-0.279,2.123c-0.188,0.937-0.445,1.873-0.775,2.809
		c-0.332,0.936-0.736,1.753-1.211,2.447c-0.475,0.697-1.002,1.045-1.582,1.045c-0.496,0-1.033-0.24-1.613-0.721
		c-0.578-0.479-1.146-1.019-1.705-1.619c-0.559-0.6-1.096-1.141-1.613-1.62s-0.961-0.72-1.334-0.72
		c-0.578,0-1.146,0.287-1.705,0.863s-1.064,1.285-1.52,2.124c-0.455,0.841-0.828,1.753-1.117,2.736
		c-0.289,0.984-0.434,1.86-0.434,2.628v6.408c0,1.248,0.092,2.28,0.279,3.096c0.186,0.816,0.506,1.465,0.961,1.944
		c0.455,0.48,1.055,0.816,1.799,1.008c0.744,0.192,1.654,0.288,2.73,0.288v3.384h-19.168v-3.384
		c1.736-0.096,2.914-0.648,3.535-1.656c0.619-1.008,0.93-2.423,0.93-4.248V33.632z"/>
	<path fill="#BD3336" d="M473.365,34.424h-2.668c-0.953-2.16-2.213-3.852-3.785-5.076s-3.225-1.836-4.961-1.836
		c-1.326,0-2.389,0.313-3.195,0.936c-0.807,0.625-1.211,1.416-1.211,2.377c0,0.96,0.436,1.752,1.303,2.375
		c0.869,0.625,1.943,1.201,3.227,1.729c1.281,0.529,2.688,1.092,4.219,1.691c1.529,0.602,2.936,1.357,4.217,2.269
		c1.281,0.912,2.357,2.077,3.227,3.491c0.869,1.417,1.303,3.182,1.303,5.293c0,3.312-1.004,5.893-3.01,7.739
		c-2.006,1.849-4.785,2.772-8.342,2.772c-1.779,0-3.566-0.216-5.365-0.648c-1.801-0.432-3.92-1.199-6.359-2.304l-0.496-8.424h2.729
		c2.439,5.04,5.604,7.56,9.492,7.56c1.736,0,3.008-0.383,3.814-1.151c0.807-0.768,1.209-1.632,1.209-2.592s-0.434-1.752-1.303-2.376
		c-0.869-0.623-1.953-1.212-3.256-1.765c-1.303-0.552-2.721-1.104-4.25-1.655s-2.945-1.271-4.248-2.16s-2.389-1.992-3.258-3.313
		c-0.869-1.319-1.303-2.988-1.303-5.004c0-1.872,0.33-3.467,0.992-4.788c0.662-1.319,1.52-2.376,2.576-3.168
		c1.053-0.792,2.252-1.368,3.598-1.728c1.342-0.36,2.697-0.541,4.063-0.541c1.488,0,3.174,0.217,5.057,0.648
		c1.881,0.432,3.648,1.033,5.303,1.801L473.365,34.424z"/>
</g>
</svg>
