<?xml version="1.0" encoding="UTF-8" standalone="no"?>
<!-- Created with Inkscape (http://www.inkscape.org/) -->

<svg
   version="1.1"
   id="svg1"
   width="800.29999"
   height="86"
   viewBox="0 0 800.29999 86"
   xmlns="http://www.w3.org/2000/svg"
   xmlns:svg="http://www.w3.org/2000/svg">
  <defs
     id="defs1" />
  <path
     id="rect1"
     style="fill:#b09c79;stroke-width:1.43324;stroke-linecap:round;stroke-dashoffset:5.66929;paint-order:stroke fill markers"
     d="m 232.17599,0 h 22 v 86 h -22 z" />
  <path
     id="rect1-8"
     style="opacity:1;fill:#b09c79;stroke-width:1.43324;stroke-linecap:round;stroke-dashoffset:5.66929;paint-order:stroke fill markers;fill-opacity:1"
     d="M 0.15039062,0 V 86 H 59.310547 C 87.319829,86 98.84375,73.878692 98.84375,58.925781 98.84375,50.813783 94.275862,44.553836 87.017578,41.035156 93.955605,37.458621 97.89057,31.132267 98.054688,23.267578 98.054688,10.417631 89.405525,0 60.496094,0 Z M 22.150391,15.779297 H 61.90625 c 8.230304,0 12.910156,3.63623 12.910156,9.453125 0,5.816895 -4.47515,9.451172 -11.923828,9.451172 H 22.150391 Z m 0,34.310547 h 39.921875 c 10.122932,0 13.455078,3.618497 13.455078,9.726562 0,6.108065 -6.565763,10.125 -12.673828,10.125 H 22.150391 Z" />
  <path
     id="rect1-08-7"
     style="fill:#002057;stroke-width:1.43324;stroke-linecap:round;stroke-dashoffset:5.66929;paint-order:stroke fill markers;fill-opacity:1"
     d="m 537.068,0 v 86 h 22 V 56 h 24.6289 l 27.35352,30 h 30.51367 L 609.99378,53.089844 C 624.76915,48.95275 634.10315,40.299303 634.10315,27.787 634.10315,11.724305 623.74752,0 590.31409,0 Z m 22,15.955078 h 34.1582 c 10.76646,0 16.01758,4.922399 16.01758,11.831922 0,7.287268 -6.73354,12.955188 -18,12.955188 H 559.068 Z" />
  <path
     id="rect1-08-7-0"
     style="fill:#b09c79;stroke-width:1.43324;stroke-linecap:round;stroke-dashoffset:5.66929;paint-order:stroke fill markers;fill-opacity:1"
     d="m 115.67969,0 v 86 h 22 V 56 h 24.6289 l 27.35352,30 h 30.51367 L 188.60547,53.089844 C 203.38084,48.95275 212.71484,40.299303 212.71484,27.787 212.71484,11.724305 202.35921,0 168.92578,0 Z m 22,15.955078 h 34.1582 c 10.76646,0 16.01758,4.922399 16.01758,11.831922 0,7.287268 -6.73354,12.955188 -18,12.955188 h -32.17578 z" />
  <path
     id="rect1-9"
     style="fill:#002057;stroke-width:1.43324;stroke-linecap:round;stroke-dashoffset:5.66929;paint-order:stroke fill markers"
     d="m 493.78519,0 h 22 v 86 h -22 z" />
  <path
     id="rect1-39"
     style="fill:#002057;stroke-width:1.43324;stroke-linecap:round;stroke-dashoffset:5.66929;paint-order:stroke fill markers;fill-opacity:1"
     d="m 413,0 -50.69922,86 h 21 L 394.76367,66 H 446.25 l 11.55078,20 H 485.3125 L 433.47266,0 Z M 420.41016,21.257812 437.58789,51 h -34.22461 z" />
  <path
     id="rect1-0"
     style="fill:#b09c79;stroke-width:1.43324;stroke-linecap:round;stroke-dashoffset:5.66929;paint-order:stroke fill markers;fill-opacity:1"
     d="m 266.17578,0 v 16 h 43 v 70 h 22 V 16 h 43 V 0 Z" />
  <path
     id="rect3"
     style="fill:#ed1c24;stroke-width:1.43324;stroke-linecap:round;stroke-dashoffset:5.66929;paint-order:stroke fill markers;fill-opacity:1"
     d="M 659,82 C 672.68035,81.326837 683.35335,74.437708 691.34924,64.267183 741.875,0 741.875,0 741.875,0 H 800.3 L 745.52497,70.018579 C 737.61851,80.10694 727.38287,86 706.271,86 H 659 Z" />
</svg>
