<?xml version="1.0" encoding="UTF-8" standalone="no"?>
<svg
   width="299.16766"
   height="86.739998"
   viewBox="0 0 299.16766 86.739998"
   version="1.1"
   id="svg78"
   sodipodi:docname="Bulgaria Air logo1.svg"
   inkscape:version="1.2 (dc2aedaf03, 2022-05-15)"
   xmlns:inkscape="http://www.inkscape.org/namespaces/inkscape"
   xmlns:sodipodi="http://sodipodi.sourceforge.net/DTD/sodipodi-0.dtd"
   xmlns="http://www.w3.org/2000/svg"
   xmlns:svg="http://www.w3.org/2000/svg"
   xmlns:rdf="http://www.w3.org/1999/02/22-rdf-syntax-ns#"
   xmlns:cc="http://creativecommons.org/ns#"
   xmlns:dc="http://purl.org/dc/elements/1.1/">
  <title
     id="title4732">Bulgaria Air logo</title>
  <defs
     id="defs82">
    <clipPath
       clipPathUnits="userSpaceOnUse"
       id="clipPath4363">
      <path
         id="path4365"
         style="fill:#ff0000;fill-opacity:1;fill-rule:nonzero;stroke:none"
         d="m 2.0820312,36.107422 v 40.941406 c 0.941446,-0.05358 1.8620766,-0.104204 2.6132813,-0.158203 0.012679,-0.01415 0.023438,-0.02962 0.037109,-0.04297 0.537286,-0.524553 1.3401507,-0.429836 2.1601562,-0.289062 0.3986536,-0.02965 0.8128534,-0.0083 1.2304688,0.02344 0.7019722,-0.07375 1.8535009,-0.204861 2.7988285,-0.3125 -0.0012,-0.01769 -0.0028,-0.02894 -0.0039,-0.04687 -0.871943,0.11198 -1.7374011,0.192049 -2.552735,0.002 C 7.6278799,76.368558 6.7285409,76.730846 6.5019531,76.138672 6.3324702,75.695736 6.394813,75.147583 6.5996094,74.648438 6.4520906,74.23894 6.4118701,73.809402 6.5390625,73.443359 c 0.1635256,-0.4706 0.7770415,-0.292932 1.3867187,-0.126953 1.5755702,-0.569601 3.3976858,0.0063 5.0898438,0.01563 1.0173,0.0056 2.033611,0.02142 3.050781,0.03906 0.874585,-0.02115 2.043183,-0.0522 3.080078,-0.08008 -1.555603,-0.227164 0.252432,-0.247262 2.548828,-0.06445 0.07984,-0.002 0.106132,-0.0038 0.1875,-0.0059 1.431929,-0.07026 2.933677,-0.606678 4.326172,-0.410156 0.466741,-0.157312 0.935542,-0.308644 1.324219,-0.271485 0.236065,0.02257 0.442647,0.114201 0.603516,0.310547 0.292729,0.357293 0.290499,0.895268 0.121093,1.414063 0.03096,0.06227 0.06318,0.12425 0.08789,0.1875 1.201283,-0.117895 2.405127,-0.21779 3.609375,-0.294922 2.664024,-0.170631 2.663348,2.516402 0,2.697266 -0.06584,0.0045 -0.131428,0.01299 -0.197266,0.01758 -0.0096,0.0067 -0.01968,0.01285 -0.0293,0.01953 0.396744,0.243328 0.754965,0.51821 1.033203,0.859375 5.316352,-0.01633 10.632643,-0.05134 15.949219,-0.05469 8.178203,-0.0051 16.357239,-9.4e-4 24.535156,0.06836 10.647956,0.09023 10.42025,-0.333334 13.005859,0.21875 0.09635,-0.0016 0.192711,-0.0024 0.289063,-0.0039 -0.03052,-0.152983 -0.03485,-0.306926 0.03906,-0.460938 0.25181,-0.524689 0.848704,-0.430493 1.517578,-0.222656 0.112262,-0.06701 0.225368,-0.161972 0.333985,-0.212891 1.891057,-0.886513 4.147311,-0.5028 6.220703,-0.753906 6.265713,-0.740587 9.522103,-1.216756 15.884763,-1.591797 2.39654,-0.141263 4.79683,-0.259589 7.19727,-0.224609 1.39672,0.02035 3.15768,-0.567931 4.17382,0.390625 0.0123,0.0116 0.0198,0.02886 0.0312,0.04102 0.0149,-3.06e-4 0.03,3.67e-4 0.0449,0 0.48708,-0.133598 1.00935,-0.136301 1.54492,-0.0918 2.76589,-0.227033 5.15649,-0.413201 7.4082,-0.576171 0.56901,-0.163213 0.58247,-0.170601 1.3457,-0.392579 0.79746,-0.134319 1.67078,-0.678997 2.44922,-0.710937 0.25948,-0.01065 0.51018,0.03659 0.74219,0.173828 0.21637,0.127991 0.403,0.332037 0.55664,0.574219 0.89706,-0.114037 2.02653,-0.721785 2.58984,-0.0625 0.20862,0.244157 0.27846,0.586222 0.29102,0.945312 2.17027,-0.05427 4.34125,-0.110871 6.51172,-0.15625 1.87784,-0.03926 3.75456,-0.08928 5.63281,-0.08984 0.17075,-5e-5 0.65109,-0.0019 0.50586,0.08789 -0.81179,0.501817 -1.60849,1.068877 -2.42969,1.576172 0.53122,0.356594 1.06348,0.713678 1.62305,0.996094 0.10312,0.05204 0.45922,0.03441 0.34375,0.03711 -0.96477,0.02284 -1.92955,0.03296 -2.89453,0.04492 0.0129,0.01353 0.0212,0.03072 0.0332,0.04492 0.46328,0.279714 0.60466,0.362815 1.20899,0.71875 -0.46192,-0.05466 -0.63395,-0.07299 -0.95508,-0.111328 0.0132,0.09276 -0.008,0.194869 -0.01,0.292969 0.29339,0.02363 0.49735,0.147611 0.51563,0.474609 0.007,0.120575 -0.0185,0.234133 -0.0371,0.349609 0.17822,-0.02342 0.35705,-0.04213 0.53515,-0.06641 0.18315,-0.02496 0.68568,-0.24538 0.53907,-0.132812 -0.12619,0.09689 -0.24861,0.205688 -0.37305,0.30664 0.19596,-0.004 0.39193,-0.0095 0.58789,-0.01367 0.29075,-0.08856 0.56716,-0.130146 0.80078,-0.01758 0.0312,-7.13e-4 0.0625,-0.0012 0.0937,-0.002 0.006,0.02471 0.0208,0.05128 0.0273,0.07617 0.0231,0.01734 0.0501,0.02215 0.0723,0.04297 0.18146,0.170557 0.20627,0.38598 0.17188,0.621093 0.32509,0.71256 0.73886,1.441023 0.35351,2.023438 -0.0396,0.05993 -0.0941,0.0975 -0.14258,0.144531 0.1731,0.04121 0.34352,0.08857 0.49219,0.197266 0.45038,0.329302 0.93823,1.069135 1.0293,1.673828 0.13606,0.336411 0.13158,0.638701 -0.14258,0.779297 -0.0982,0.05035 -0.20104,0.08587 -0.30274,0.125 -0.012,0.02573 -0.0273,0.04828 -0.0391,0.07422 2.96052,-0.01408 5.92087,-0.02135 8.88086,0.02734 2.56367,0.04217 5.12375,0.204896 7.68555,0.3125 0.74446,-0.110781 1.45226,-0.08894 2.05469,0.320313 0.43646,0.296513 0.09,0.676203 -0.46289,1.078125 0.61929,0.582157 1.09227,1.147226 0.61523,1.613281 -1.28383,1.25426 -3.58296,0.247985 -5.37695,0.302735 -3.97838,0.121408 -7.95768,0.173952 -11.9375,0.226562 -2.88697,0.03816 -5.77501,0.07408 -8.66211,0.09766 0.0361,0.176811 0.0169,0.356024 -0.14258,0.53711 -0.006,0.0069 -0.0134,0.01079 -0.0195,0.01758 H 235.7047 V 36.107422 Z m 0,46.425781 v 0.130859 c 0.099615,0.0064 0.1992087,0.01319 0.2988282,0.01953 0.046408,-0.03916 0.096342,-0.07326 0.1503906,-0.09961 -0.1538546,-0.0179 -0.2835417,-0.03074 -0.4492188,-0.05078 z m 6.9375,4.648438 c 0.072715,0.03089 0.142853,0.05657 0.2148438,0.08594 -0.018563,-0.02824 -0.0362,-0.05646 -0.056641,-0.08594 -0.052895,6.99e-4 -0.1053281,-6.11e-4 -0.1582028,0 z m 22.1171878,0.0957 c 0.01522,0.02112 0.02546,0.04149 0.03906,0.0625 2.62e-4,-0.01371 -0.0016,-0.02662 0,-0.04102 -0.01352,-0.0067 -0.02562,-0.01468 -0.03906,-0.02148 z m 16.042969,0.09375 c -0.182053,0.01209 -0.26979,0.01665 -0.458985,0.0293 -0.61973,0.04143 -1.837802,0.236565 -3.347656,0.4375 0.23821,0.04171 0.450031,0.07165 0.673828,0.107421 0.316379,-0.01147 0.632876,-0.01887 0.949219,-0.03125 0.819944,-0.0321 1.639245,-0.07421 2.458984,-0.111328 -0.01674,-0.113402 -0.123333,-0.262918 -0.27539,-0.43164 z m 0.27539,0.43164 c 0.08057,0.545714 -1.358302,0.470209 -3.408203,0.142578 -0.726502,0.02635 -1.453027,0.05034 -2.179687,0.07227 -2.087348,0.238362 -4.464945,0.407751 -6.654297,0.234375 -0.370458,0.05543 -0.743549,0.115368 -1.115235,0.171875 -1.220942,0.476601 -2.270085,0.838228 -3.033203,1.009766 h 53.486328 c -0.343048,-0.407152 -0.09797,-0.907568 0.398438,-1.378906 -0.04225,-0.03678 -0.05471,-0.07424 -0.0918,-0.111329 -0.470614,-0.0014 -0.913776,-0.01649 -1.38086,-0.01953 -5.16109,0.238391 -10.330084,0.282019 -15.496093,0.205078 -1.193548,-0.01778 -2.955901,0.892483 -3.580078,-0.125 -0.09286,-0.151376 -0.132702,-0.318741 -0.150391,-0.492187 -1.56515,0.0031 -3.129573,-0.01896 -4.693359,-0.06055 -1.033314,0.03943 -2.088915,-0.02248 -3.134766,-0.04297 -0.700594,0.181535 -1.432116,0.214729 -2.177734,0.181641 -0.846118,0.06672 -1.70361,0.05311 -2.566407,0.0059 -1.407162,0.07498 -2.814959,0.1433 -4.222656,0.207031 z m -19.259766,0.6875 c 0.147671,0.299223 0.277295,0.625389 0.41211,0.94336 h 1.292969 c -0.107956,-0.103516 -0.10742,-0.278994 0.03516,-0.548828 0.04945,-0.09359 0.122917,-0.172548 0.179687,-0.261719 -0.592385,0.108453 -1.24652,0.01921 -1.919922,-0.132813 z" />
    </clipPath>
  </defs>
  <sodipodi:namedview
     id="namedview80"
     pagecolor="#ffffff"
     bordercolor="#999999"
     borderopacity="1"
     inkscape:showpageshadow="0"
     inkscape:pageopacity="0"
     inkscape:pagecheckerboard="0"
     inkscape:deskcolor="#d1d1d1"
     showgrid="false"
     inkscape:zoom="3.7083822"
     inkscape:cx="134.15554"
     inkscape:cy="62.156484"
     inkscape:window-width="1920"
     inkscape:window-height="1001"
     inkscape:window-x="-9"
     inkscape:window-y="-9"
     inkscape:window-maximized="1"
     inkscape:current-layer="svg78" />
  <linearGradient
     id="a"
     gradientUnits="userSpaceOnUse"
     x1="247.53999"
     y1="76.364998"
     x2="186.064"
     y2="54.234001"
     gradientTransform="matrix(1,0.144,-0.041,1.013,41.731,-59.909)">
    <stop
       offset="0"
       stop-color="#E5E5E5"
       id="stop2" />
    <stop
       offset=".119"
       stop-color="#eee"
       id="stop4" />
    <stop
       offset=".264"
       stop-color="#fff"
       id="stop6" />
    <stop
       offset=".455"
       stop-color="#FBFBFB"
       id="stop8" />
    <stop
       offset=".635"
       stop-color="#F0F0F0"
       id="stop10" />
    <stop
       offset=".81"
       stop-color="#ddd"
       id="stop12" />
    <stop
       offset=".981"
       stop-color="#C2C2C2"
       id="stop14" />
    <stop
       offset="1"
       stop-color="#BFBFBF"
       id="stop16" />
  </linearGradient>
  <path
     fill="url(#a)"
     d="M 298.254,55.755 C 295.36,48.069 288.147,42.359 277.407,37.433 252.1,25.823 216.222,16.627 212.731,0 c 1.753,29.755 42.744,34.149 66.486,45.326 5.837,2.75 10.774,7.214 13.727,10.223 4.695,4.789 2.417,16.313 -2.565,21.092 10.224,-7.453 9.409,-16.815 7.875,-20.886 z"
     id="path19"
     style="fill:url(#a)" />
  <linearGradient
     id="b"
     gradientUnits="userSpaceOnUse"
     x1="223.94299"
     y1="-34.742001"
     x2="224.34"
     y2="18.966999"
     gradientTransform="matrix(1.024,-0.207,0.563,0.918,41.281,97.218)">
    <stop
       offset=".093"
       stop-color="#7FBB85"
       id="stop21" />
    <stop
       offset=".167"
       stop-color="#73B874"
       id="stop23" />
    <stop
       offset=".338"
       stop-color="#5AAF53"
       id="stop25" />
    <stop
       offset=".486"
       stop-color="#45A73D"
       id="stop27" />
    <stop
       offset=".604"
       stop-color="#38A231"
       id="stop29" />
    <stop
       offset=".676"
       stop-color="#33A02C"
       id="stop31" />
    <stop
       offset=".885"
       stop-color="#00742F"
       id="stop33" />
  </linearGradient>
  <path
     fill="url(#b)"
     d="m 288.88,50.184 c -17.948,-12.546 -63.84,-21.11 -68.471,-28.86 9.322,23.83 53.077,22.588 69.1,37.306 12.137,11.149 -1.347,19.714 -4.499,21.709 11.449,-6.331 18.751,-19.747 3.87,-30.155 z"
     id="path36"
     style="fill:url(#b)" />
  <linearGradient
     id="c"
     gradientUnits="userSpaceOnUse"
     x1="206.23399"
     y1="21.636999"
     x2="206.48399"
     y2="55.52"
     gradientTransform="matrix(1.048,0.004,0.388,0.956,36.989,13.874)">
    <stop
       offset=".066"
       stop-color="#E36853"
       id="stop38" />
    <stop
       offset=".352"
       stop-color="#f00"
       id="stop40" />
    <stop
       offset=".533"
       stop-color="#FD0002"
       id="stop42" />
    <stop
       offset=".628"
       stop-color="#F40006"
       id="stop44" />
    <stop
       offset=".702"
       stop-color="#E70009"
       id="stop46" />
    <stop
       offset=".766"
       stop-color="#D3000C"
       id="stop48" />
    <stop
       offset=".823"
       stop-color="#BA0010"
       id="stop50" />
    <stop
       offset=".85"
       stop-color="#AB0012"
       id="stop52" />
  </linearGradient>
  <path
     fill="url(#c)"
     d="m 295.049,66.567 c -0.557,-18.812 -55.123,-22.746 -67.271,-32.739 14.542,23.786 62.424,22.43 65.68,34.886 0.704,2.698 -0.949,5.323 -2.869,7.235 2.697,-2.656 4.593,-4.916 4.46,-9.382 z"
     id="path55"
     style="fill:url(#c)" />
  <linearGradient
     id="d"
     gradientUnits="userSpaceOnUse"
     x1="286.789"
     y1="81.218002"
     x2="300.02899"
     y2="57.091"
     gradientTransform="matrix(1,0.029,-0.029,1,2.302,-8.426)">
    <stop
       offset=".066"
       stop-color="#E36853"
       id="stop57" />
    <stop
       offset=".352"
       stop-color="#f00"
       id="stop59" />
    <stop
       offset=".533"
       stop-color="#FD0002"
       id="stop61" />
    <stop
       offset=".628"
       stop-color="#F40006"
       id="stop63" />
    <stop
       offset=".702"
       stop-color="#E70009"
       id="stop65" />
    <stop
       offset=".766"
       stop-color="#D3000C"
       id="stop67" />
    <stop
       offset=".823"
       stop-color="#BA0010"
       id="stop69" />
    <stop
       offset=".85"
       stop-color="#AB0012"
       id="stop71" />
  </linearGradient>
  <path
     fill="url(#d)"
     d="m 270.184,86.74 c 16.478,-5.526 24.228,-18.861 14.838,-23.348 17.582,5.435 4.912,17.365 -14.838,23.348 z"
     id="path74"
     style="fill:url(#d)" />
  <path
     fill="#fff"
     d="m 65.979,36.817 -0.034,0.129 -7.363,27.241 h 2.303 c 2.411,0 4.343,-1.68 4.97,-4.213 l 6.24,-23.157 z m -32.685,1.212 v 10e-4 c -0.324,-0.443 -0.75,-0.806 -1.258,-1.095 -0.519,-0.282 -1.107,-0.485 -1.768,-0.625 -0.7,-0.136 -1.672,-0.196 -2.97,-0.196 -0.921,0 -2.02,-0.022 -3.435,0.018 -0.921,0.026 -1.737,0.042 -2.463,0.05 -3.387,0.011 -5.778,2.368 -6.751,5.999 -0.408,1.451 -0.988,3.278 -1.602,5.396 -1.243,4.239 -2.142,7.236 -2.692,8.988 -0.356,1.143 -1.022,3.15 -1.351,4.1 -0.28,0.85 -0.934,1.894 -1.523,2.31 L 5.832,64.187 H 16.16 c 3.48,-10e-4 5.77,-0.097 6.995,-0.314 1.196,-0.215 2.341,-0.654 3.423,-1.297 1.094,-0.658 2.048,-1.554 2.837,-2.668 0.794,-1.11 1.358,-2.342 1.684,-3.671 0.142,-0.598 0.227,-1.18 0.254,-1.739 v -0.003 l 0.003,-0.079 0.009,-0.3 c 0,-0.472 -0.043,-0.92 -0.125,-1.334 -0.107,-0.52 -0.296,-1.007 -0.568,-1.463 -0.262,-0.45 -0.581,-0.842 -0.957,-1.147 -0.229,-0.183 -0.452,-0.342 -0.684,-0.473 l 0.022,-0.013 c 0.458,-0.232 0.938,-0.542 1.446,-0.936 0.534,-0.411 1.028,-0.9 1.477,-1.467 0.458,-0.574 0.851,-1.211 1.184,-1.911 0.332,-0.703 0.592,-1.439 0.778,-2.216 0.137,-0.589 0.218,-1.17 0.238,-1.744 l 0.006,-0.123 v -0.186 c 10e-4,-0.556 -0.064,-1.09 -0.204,-1.592 -0.142,-0.554 -0.373,-1.054 -0.684,-1.482 z m -8.327,16.453 c -0.012,0.239 -0.05,0.51 -0.128,0.816 -0.097,0.392 -0.239,0.771 -0.423,1.136 -0.189,0.372 -0.397,0.698 -0.626,0.984 -0.23,0.281 -0.458,0.502 -0.692,0.675 -0.219,0.161 -0.542,0.33 -0.959,0.498 -0.412,0.165 -0.819,0.278 -1.232,0.339 -0.414,0.064 -1.028,0.102 -1.817,0.102 h -3.121 l 1.938,-6.635 h 3.87 l 0.053,-0.005 c 0.931,0 1.605,0.085 1.913,0.194 0.354,0.123 0.612,0.292 0.821,0.533 0.201,0.241 0.325,0.511 0.382,0.862 0.02,0.107 0.026,0.229 0.026,0.357 z M 27.52,42.967 c -0.006,0.19 -0.033,0.403 -0.084,0.625 l -0.02,0.061 c -0.103,0.439 -0.268,0.86 -0.5,1.285 -0.224,0.417 -0.513,0.791 -0.877,1.145 -0.347,0.339 -0.712,0.574 -1.114,0.725 -0.466,0.177 -0.876,0.287 -1.248,0.344 -0.34,0.055 -1.149,0.091 -2.317,0.091 h -1.923 c 0.368,-1.295 1.13,-3.774 1.394,-4.698 0.392,-1.137 0.62,-1.208 1.301,-1.295 0.871,-0.033 2.611,0.002 2.611,0.002 l 0.055,-0.002 c 0.805,0 1.395,0.068 1.693,0.162 0.332,0.094 0.554,0.238 0.726,0.424 0.152,0.171 0.246,0.375 0.287,0.702 l 0.019,0.297 z m 25.851,18.935 c 0.049,-0.31 0.132,-0.686 0.22,-0.978 L 58.26,43.087 h -6.006 l -3.056,11.255 c -0.396,1.791 -0.839,3.076 -1.504,3.839 -0.673,0.761 -1.58,1.183 -3.359,1.192 H 44.321 C 43.276,59.375 42.648,59.181 42.366,58.951 42.091,58.728 41.98,58.491 41.97,57.92 v -0.082 c 0.015,-0.377 0.102,-0.859 0.265,-1.431 l 3.584,-13.32 h -6.116 l -3.64,13.445 c -0.279,1.095 -0.44,2.063 -0.471,2.93 l -0.009,0.298 c -0.003,1.373 0.412,2.55 1.372,3.308 1.015,0.807 2.474,1.113 4.431,1.118 h 0.24 c 1.914,0 3.878,-0.184 5.528,-1.446 l -0.292,1.335 h 7.685 l -0.882,-1.11 c -0.176,-0.249 -0.363,-0.626 -0.294,-1.063 z m 147.415,1.045 c -0.348,-0.447 -0.503,-0.909 -0.51,-1.595 l 0.007,0.004 V 61.06 l 0.005,0.003 c 0.036,-0.933 1.122,-19.857 1.167,-21.042 v -0.043 l 0.005,-0.25 c 0.011,-1.744 -0.92,-3.25 -2.725,-3.406 -0.352,-0.036 -0.678,-0.061 -0.997,-0.061 h -0.043 c -1.062,-0.003 -2.003,0.307 -2.979,1.028 -0.745,0.547 -1.562,1.457 -2.079,2.372 -0.466,0.828 -12.682,23.534 -12.682,23.54 l -0.525,0.978 1.085,0.008 0.585,0.001 0.673,-0.001 h 0.03 c 1.975,0.001 4.522,-0.751 5.985,-3.567 0.377,-0.724 1.242,-2.383 1.624,-3.121 h 5.018 l -0.475,6.688 8.098,0.001 -0.378,-0.312 c 10e-4,-10e-4 -0.486,-0.406 -0.889,-0.929 z M 194.88,52.826 h -3.157 l 3.622,-6.861 z m 31.994,-9.623 h -0.053 c -2.975,-0.003 -5.558,1.897 -6.466,5.364 l -4.184,15.619 h 2.323 c 2.49,0 4.337,-1.703 4.95,-4.213 l 2.336,-8.659 c 0.287,-1.131 0.595,-1.829 1.01,-2.208 0.411,-0.382 1.056,-0.627 2.356,-0.627 h 1.519 c 2.812,-0.009 4.656,-2.284 4.941,-4.531 l 0.075,-0.542 0.025,-0.203 z m -58.446,17.605 4.882,-17.833 h -6.134 l -0.305,1.232 c -0.413,-0.462 -0.923,-0.791 -1.476,-1 -1.062,-0.416 -2.269,-0.46 -3.451,-0.464 h -0.033 c -3.34,-0.003 -5.728,1.023 -7.386,2.833 -1.669,1.813 -2.594,4.289 -3.349,7.159 -0.609,2.252 -1.092,4.245 -1.151,5.964 l -0.011,0.361 c 0,1.462 0.371,2.775 1.379,3.695 1.093,0.982 2.757,1.427 5.149,1.432 h 0.216 c 1.938,0 3.63,-0.193 5.291,-1.309 l -0.246,1.079 h 7.276 l -0.619,-1.038 c -0.137,-0.237 -0.233,-0.507 -0.233,-0.931 v -0.09 c 0.012,-0.295 0.071,-0.656 0.201,-1.09 z m -3.242,-11.137 c -0.033,0.97 -0.404,2.423 -0.877,4.213 h -0.002 c -0.58,2.053 -1.12,3.396 -1.84,4.143 -0.716,0.741 -1.682,1.108 -3.592,1.113 h -0.055 c -1.032,0.007 -1.697,-0.153 -1.98,-0.378 -0.278,-0.216 -0.438,-0.502 -0.444,-1.303 l 0.007,-0.133 c 0.019,-0.732 0.217,-1.767 0.58,-3.125 0.592,-2.188 1.087,-3.902 1.813,-4.949 0.74,-1.032 1.594,-1.553 3.498,-1.576 h 0.027 c 1.311,-0.003 2.063,0.236 2.397,0.525 0.324,0.27 0.465,0.617 0.468,1.321 z m 45.118,-6.468 -0.035,0.133 -5.601,20.851 h 2.31 c 2.417,0 4.237,-1.695 4.957,-4.189 l 4.482,-16.794 h -6.113 z M 97.356,42.893 H 89.42 l -0.135,0.518 -0.184,0.673 C 88.689,43.644 88.19,43.336 87.64,43.149 86.617,42.8 85.453,42.784 84.079,42.779 H 84.02 c -3.621,0 -6.063,1.089 -7.686,3.082 -1.632,1.98 -2.457,4.701 -3.29,7.952 -0.489,1.737 -0.841,3.335 -0.892,4.762 l -0.007,0.346 c -0.003,1.467 0.379,2.788 1.388,3.723 1.093,0.998 2.752,1.462 5.115,1.462 h 0.139 c 1.658,0.006 3.469,-0.151 5.124,-1.203 l -0.107,0.344 c -0.302,1.184 -0.68,1.882 -1.314,2.348 -0.625,0.463 -1.64,0.747 -3.297,0.747 h -4.986 c -1.941,-0.002 -3.303,0.82 -4.11,1.834 -0.825,1.044 -1.348,3.446 -1.358,3.457 l -0.046,0.213 h 11.239 l 0.525,0.008 h 0.025 c 2.438,0 4.392,-0.422 5.938,-1.752 1.535,-1.338 2.552,-3.443 3.417,-6.617 l 4.65,-17.095 c 0.328,-1.335 0.65,-1.776 1.288,-2.285 z m -10.034,6.624 c -0.027,0.76 -0.135,1.445 -0.622,3.123 -0.483,1.68 -1.065,4.01 -1.796,4.965 -0.735,0.951 -1.703,1.441 -3.894,1.46 H 81 c -1.126,0.004 -1.744,-0.228 -2.022,-0.491 -0.265,-0.246 -0.398,-0.592 -0.399,-1.242 l 0.001,-0.141 c 0.03,-0.986 0.413,-2.451 0.895,-4.224 0.633,-2.327 1.233,-3.709 1.927,-4.413 0.677,-0.699 1.496,-0.951 3.064,-0.964 h 0.028 c 1.257,0 2.016,0.214 2.354,0.49 0.325,0.264 0.47,0.579 0.473,1.305 z m 51.455,-5.569 0.075,-0.546 0.022,-0.199 h -8.888 c -2.978,-0.005 -5.557,1.897 -6.462,5.364 l -4.179,15.619 h 2.318 c 2.493,0 4.338,-1.703 4.95,-4.213 l 2.332,-8.659 c 0.291,-1.131 0.598,-1.829 1.014,-2.208 0.409,-0.382 1.055,-0.627 2.356,-0.627 h 1.517 c 2.814,-0.009 4.654,-2.284 4.945,-4.531 z m -23.947,16.86 4.883,-17.834 h -6.13 l -0.309,1.237 c -0.412,-0.465 -0.921,-0.794 -1.475,-1.004 -1.066,-0.416 -2.273,-0.464 -3.457,-0.464 h -0.039 c -3.339,0 -5.723,1.023 -7.383,2.833 -1.66,1.813 -2.59,4.287 -3.343,7.155 -0.609,2.252 -1.094,4.249 -1.153,5.968 l -0.009,0.354 c 0,1.466 0.365,2.782 1.384,3.702 1.092,0.982 2.752,1.431 5.14,1.432 h 0.242 c 1.93,0 3.611,-0.201 5.271,-1.309 l -0.246,1.079 h 7.273 l -0.618,-1.031 c -0.347,-0.613 -0.293,-1.196 -0.031,-2.118 z m -3.243,-11.137 c -0.031,0.956 -0.399,2.375 -0.855,4.127 l -0.023,0.07 c -0.586,2.063 -1.12,3.411 -1.846,4.156 -0.712,0.743 -1.681,1.11 -3.587,1.115 h -0.061 c -1.027,0.007 -1.688,-0.153 -1.972,-0.378 -0.274,-0.216 -0.433,-0.497 -0.439,-1.297 l 0.003,-0.142 c 0.021,-0.728 0.218,-1.759 0.579,-3.122 0.594,-2.188 1.082,-3.9 1.812,-4.949 0.744,-1.034 1.592,-1.553 3.494,-1.576 h 0.02 l 0.008,-0.003 c 1.308,0 2.065,0.239 2.404,0.528 0.321,0.27 0.462,0.621 0.466,1.326 z m 36.447,-6.114 -4.257,16.343 c -0.717,2.464 -2.445,3.937 -4.623,3.937 h -1.851 l 5.443,-20.279 h 5.288 z"
     id="path76"
     style="fill:#a0a5a9;fill-opacity:1"
     clip-path="url(#clipPath4363)"
     sodipodi:nodetypes="cccscccccccsccccccccccccccccccccccccccccccccccccccsccccccccccccccccscccccccccccccccccccccccccccccsccccccccccccccsccccccccscccccccccccccccscccscccccccccccsccccccsccccscccccccccccccccccccccsccccccccccscccccsccccsccccccsccccccccccccccccscccccccccscccscccccccssccccccsccccccccccccccccccccccccscccc"
     transform="translate(-5.832)" />
  <metadata
     id="metadata4730">
    <rdf:RDF>
      <cc:Work
         rdf:about="">
        <dc:title>Bulgaria Air logo</dc:title>
      </cc:Work>
    </rdf:RDF>
  </metadata>
</svg>
