<?xml version="1.0" encoding="UTF-8" standalone="no"?>
<svg
   xmlns:dc="http://purl.org/dc/elements/1.1/"
   xmlns:cc="http://creativecommons.org/ns#"
   xmlns:rdf="http://www.w3.org/1999/02/22-rdf-syntax-ns#"
   xmlns:svg="http://www.w3.org/2000/svg"
   xmlns="http://www.w3.org/2000/svg"
   xml:space="preserve"
   style="enable-background:new 0 0 330 94;"
   viewBox="0 0 330 94"
   height="94px"
   width="330px"
   y="0px"
   x="0px"
   id="Layer_1"
   version="1.1"><metadata
     id="metadata133"><rdf:RDF><cc:Work
         rdf:about=""><dc:format>image/svg+xml</dc:format><dc:type
           rdf:resource="http://purl.org/dc/dcmitype/StillImage" /><dc:title></dc:title></cc:Work></rdf:RDF></metadata><defs
     id="defs131" /><style
     id="style2"
     type="text/css">
	.st0{fill:#FFFFFF;}
	.st1{fill:url(#XMLID_2_);}
	.st2{fill:url(#XMLID_5_);}
	.st3{fill:url(#XMLID_6_);}
	.st4{fill:url(#XMLID_7_);}
</style><g
     id="XMLID_147_"><g
       id="XMLID_150_"><linearGradient
         id="XMLID_2_"
         gradientUnits="userSpaceOnUse"
         x1="269.46011"
         y1="76.3853"
         x2="207.3848"
         y2="54.038898"
         gradientTransform="matrix(0.9995,0.144,-0.0412,1.0131,41.8195,-61.6629)"><stop
           offset="0"
           style="stop-color:#E6E7E8"
           id="stop32" /><stop
           offset="0.1193"
           style="stop-color:#EEEEEF"
           id="stop34" /><stop
           offset="0.2637"
           style="stop-color:#FFFFFF"
           id="stop36" /><stop
           offset="0.4549"
           style="stop-color:#FBFBFB"
           id="stop38" /><stop
           offset="0.6346"
           style="stop-color:#F0F0F0"
           id="stop40" /><stop
           offset="0.8097"
           style="stop-color:#DDDDDD"
           id="stop42" /><stop
           offset="0.9809"
           style="stop-color:#C2C2C2"
           id="stop44" /><stop
           offset="1"
           style="stop-color:#BFBFBF"
           id="stop46" /></linearGradient><path
         id="XMLID_154_"
         class="st1"
         d="M 326.4,57 C 323.5,49.3 316.2,43.6 305.3,38.7 279.7,27.1 243.3,17.9 239.7,1.3 c 1.8,29.7 43.3,34.1 67.4,45.2 5.9,2.7 10.9,7.2 13.9,10.2 4.8,4.8 2.5,16.3 -2.6,21.1 10.4,-7.4 9.6,-16.8 8,-20.8 z"
         style="fill:url(#XMLID_2_)" /><linearGradient
         id="XMLID_5_"
         gradientUnits="userSpaceOnUse"
         x1="244.8446"
         y1="-31.614401"
         x2="245.24139"
         y2="22.1488"
         gradientTransform="matrix(1.0238,-0.2068,0.5626,0.9176,39.8698,99.8644)"><stop
           offset="9.340660e-002"
           style="stop-color:#81BD9F"
           id="stop50" /><stop
           offset="0.1665"
           style="stop-color:#76BA91"
           id="stop52" /><stop
           offset="0.3382"
           style="stop-color:#5BB573"
           id="stop54" /><stop
           offset="0.4864"
           style="stop-color:#40B25A"
           id="stop56" /><stop
           offset="0.6038"
           style="stop-color:#23B14E"
           id="stop58" /><stop
           offset="0.6758"
           style="stop-color:#0DB14B"
           id="stop60" /><stop
           offset="0.8846"
           style="stop-color:#009247"
           id="stop62" /></linearGradient><path
         id="XMLID_153_"
         class="st2"
         d="M 316.9,51.4 C 298.7,38.9 252.2,30.3 247.5,22.6 c 9.4,23.8 53.8,22.5 70,37.2 12.3,11.1 -1.4,19.7 -4.6,21.7 11.7,-6.3 19.1,-19.7 4,-30.1 z"
         style="fill:url(#XMLID_5_)" /><g
         id="XMLID_151_"><linearGradient
           id="XMLID_6_"
           gradientUnits="userSpaceOnUse"
           x1="227.9142"
           y1="22.8221"
           x2="228.1638"
           y2="56.6436"
           gradientTransform="matrix(1.0478,0.0043,0.3879,0.9557,35.6403,13.9112)"><stop
             offset="6.593410e-002"
             style="stop-color:#DF8370"
             id="stop66" /><stop
             offset="0.3516"
             style="stop-color:#ED1C24"
             id="stop68" /><stop
             offset="0.5332"
             style="stop-color:#EA1C24"
             id="stop70" /><stop
             offset="0.6277"
             style="stop-color:#E31B25"
             id="stop72" /><stop
             offset="0.7022"
             style="stop-color:#D91926"
             id="stop74" /><stop
             offset="0.7663"
             style="stop-color:#CA1528"
             id="stop76" /><stop
             offset="0.823"
             style="stop-color:#B81028"
             id="stop78" /><stop
             offset="0.85"
             style="stop-color:#AD0B28"
             id="stop80" /></linearGradient><path
           id="XMLID_152_"
           class="st3"
           d="M 323.2,67.8 C 322.6,49 267.3,45.1 255,35.1 c 14.7,23.7 63.3,22.4 66.6,34.8 0.7,2.7 -1,5.3 -2.9,7.2 2.7,-2.6 4.6,-4.9 4.5,-9.3 z"
           style="fill:url(#XMLID_6_)" /></g></g><g
       id="XMLID_148_"><linearGradient
         id="XMLID_7_"
         gradientUnits="userSpaceOnUse"
         x1="308.84021"
         y1="82.133003"
         x2="322.12589"
         y2="57.923302"
         gradientTransform="matrix(0.9996,0.029,-0.029,0.9996,2.3645,-8.7727)"><stop
           offset="6.593410e-002"
           style="stop-color:#DF8370"
           id="stop86" /><stop
           offset="0.3516"
           style="stop-color:#ED1C24"
           id="stop88" /><stop
           offset="0.5332"
           style="stop-color:#EA1C24"
           id="stop90" /><stop
           offset="0.6277"
           style="stop-color:#E31B25"
           id="stop92" /><stop
           offset="0.7022"
           style="stop-color:#D91926"
           id="stop94" /><stop
           offset="0.7663"
           style="stop-color:#CA1528"
           id="stop96" /><stop
           offset="0.823"
           style="stop-color:#B81028"
           id="stop98" /><stop
           offset="0.85"
           style="stop-color:#AD0B28"
           id="stop100" /></linearGradient><path
         id="XMLID_149_"
         class="st4"
         d="m 298,87.9 c 16.7,-5.5 24.5,-18.8 15,-23.3 17.8,5.4 5,17.3 -15,23.3 z"
         style="fill:url(#XMLID_7_)" /></g></g><g
     style="fill:#778187;fill-opacity:1"
     id="g487"><g
       id="XMLID_206_"
       style="fill:#778187;fill-opacity:1"><g
         id="XMLID_207_"
         style="fill:#778187;fill-opacity:1"><path
           style="fill:#778187;fill-opacity:1"
           d="m 28.1,50.4 c -0.4,0 -2.6,0 -3.9,0 h -2.3 c 0.5,-1.3 0.7,-2.3 1.1,-3.3 0.5,-1.2 1.2,-1.4 2,-1.5 1,0 10,-0.1 10,-0.1 0.5,-1.5 1.3,-4.1 1.8,-5.6 -1,0 -8.8,0 -11.4,0.1 -4.8,0.1 -7.5,3 -8.8,6.9 -0.5,1.5 -0.6,1.9 -1.4,4.2 -1.6,4.5 -2.8,7.7 -3.5,9.6 -0.5,1.2 -1.3,3.4 -1.8,4.4 C 9.5,65.9 8.8,67 8,67.5 l -1.4,1 h 10.6 c 3.8,0 6.3,-0.1 7.6,-0.3 1.3,-0.2 2.5,-0.7 3.7,-1.4 1.2,-0.7 2.3,-1.6 3.2,-2.8 0.9,-1.2 1.5,-2.5 2,-3.9 1,-2.8 1,-5.8 -0.2,-7.4 -1.5,-2.1 -3.7,-2.3 -5.4,-2.3 z m -1.2,10.1 c -0.2,0.4 -0.5,0.8 -0.8,1.1 -0.3,0.3 -0.6,0.6 -0.8,0.8 -0.3,0.2 -0.6,0.4 -1.1,0.6 -0.5,0.2 -0.9,0.3 -1.4,0.4 -0.5,0.1 -1.1,0.1 -2,0.1 h -3.6 l 2.9,-7.8 h 4.3 c 1.1,0 1.8,0.1 2.2,0.2 0.4,0.1 0.7,0.3 0.9,0.6 0.2,0.3 0.4,0.6 0.4,1 0,0.9 -0.5,2.1 -1,3 z"
           class="st0"
           id="XMLID_85_" /></g></g><g
       id="XMLID_202_"
       style="fill:#778187;fill-opacity:1"><g
         id="XMLID_203_"
         style="fill:#778187;fill-opacity:1"><path
           style="fill:#778187;fill-opacity:1"
           d="m 170.1,66.1 c 0,-0.4 0.1,-0.8 0.2,-1.1 l 5.2,-19.6 h -6.4 l -3.4,12.4 c -0.5,2 -1,3.5 -1.7,4.4 -0.8,0.9 -1.9,1.4 -3.9,1.4 -1.2,0 -2,-0.2 -2.4,-0.5 -0.4,-0.3 -0.5,-0.7 -0.5,-1.4 0,-0.4 0.1,-1 0.3,-1.6 l 4,-14.6 H 155 l -4.1,14.8 c -0.3,1.2 -0.5,2.3 -0.5,3.2 -0.1,1.6 0.4,3 1.5,3.9 1.1,0.9 2.7,1.2 4.9,1.2 0.1,0 0.2,0 0.3,0 2.3,0 4.7,-0.2 6.6,-1.9 l -0.4,1.8 h 8 l -0.7,-0.9 c -0.4,-0.4 -0.5,-0.9 -0.5,-1.5 z"
           class="st0"
           id="XMLID_36_" /></g></g><g
       id="XMLID_194_"
       style="fill:#778187;fill-opacity:1"><g
         id="XMLID_195_"
         style="fill:#778187;fill-opacity:1"><path
           style="fill:#778187;fill-opacity:1"
           d="M 239.7,49 232,76.8 c 0,0 0.4,0 2.1,0 3.2,0 4.8,-1.9 5.7,-4.8 0.5,-1.9 1.4,-5.3 1.4,-5.3 1.2,1.4 3.3,1.6 5.3,1.6 2.6,0 4.7,-0.5 6.4,-1.6 1.7,-1.1 3,-2.6 3.9,-4.3 0.8,-1.5 1.4,-3.3 1.9,-5.2 1,-3.3 1.2,-6.5 0.5,-8.4 -0.8,-2.1 -3.3,-3.5 -5.9,-3.6 -1.5,0 -2.8,0 -4.1,0.4 -0.8,0.2 -1.7,0.6 -2.5,1.2 l 0.3,-1.1 0.1,-0.4 H 239 l 0.8,1 c 0.2,0.7 0.3,1.3 -0.1,2.7 z m 5.6,3.5 c 0.5,-0.9 0.9,-1.4 1.6,-1.7 0.6,-0.3 1.6,-0.5 3,-0.5 v 0 c 1.8,0 2.6,0.5 3,1.3 0.4,0.8 0.2,2.1 -0.5,4.7 -0.5,1.9 -1,3.5 -1.6,4.7 -0.4,0.8 -0.9,1.3 -1.4,1.7 -0.6,0.3 -1.4,0.6 -2.7,0.6 -2.5,0 -3.3,-0.6 -3.6,-1.7 -0.2,-1.1 0.6,-4 1,-5.5 0.5,-1.6 0.8,-2.7 1.2,-3.6 z"
           class="st0"
           id="XMLID_63_" /></g></g><g
       id="XMLID_188_"
       style="fill:#778187;fill-opacity:1"><g
         id="XMLID_189_"
         style="fill:#778187;fill-opacity:1"><path
           style="fill:#778187;fill-opacity:1"
           d="M 76.4,67 C 76.2,66.7 76.1,66.2 76.1,65.6 76.1,65 77,49.9 77.1,49 v 0 c 0,-0.1 0,-0.2 0,-0.2 0,-1.6 -1,-3.2 -2.9,-3.3 -0.3,0 -0.6,0 -0.9,0 v 0 c 0,0 -0.1,0 -0.1,0 -1,0 -2,0.3 -2.9,0.9 -0.7,0.5 -1.7,1.7 -2.3,2.5 -0.8,1.1 -5.1,8 -12.9,19.7 0,0 1.5,0 3.5,0 2.5,0 4.4,-1 5.9,-3.4 1.4,-2.2 4.3,-6.8 6.2,-10.3 l -1.1,13.7 h 8 C 77.8,68.5 76.8,67.5 76.4,67 Z"
           class="st0"
           id="XMLID_39_" /></g></g><g
       id="XMLID_180_"
       style="fill:#778187;fill-opacity:1"><g
         id="XMLID_181_"
         style="fill:#778187;fill-opacity:1"><path
           style="fill:#778187;fill-opacity:1"
           d="m 124.2,45.4 h -6.5 l -0.4,1.6 c -0.5,-0.6 -1.1,-1.1 -1.8,-1.4 -1.2,-0.4 -2.5,-0.5 -3.8,-0.5 -3.7,0 -6.4,1.1 -8.2,3.1 -1.8,2 -2.9,4.7 -3.7,7.8 -0.7,2.5 -1.2,4.7 -1.3,6.6 -0.1,1.8 0.3,3.3 1.5,4.3 1.2,1 3,1.5 5.7,1.5 0.1,0 0.2,0 0.2,0 2.3,0 4.3,-0.2 6.3,-1.7 l -0.3,1.5 h 7.6 L 119,67.3 c -0.2,-0.3 -0.3,-0.7 -0.3,-1.2 0,-0.3 0.1,-0.8 0.2,-1.2 z m -9.7,11.9 v 0 c -0.7,2.3 -1.3,3.8 -2.1,4.7 -0.9,0.9 -2,1.3 -4.2,1.3 -1.2,0 -2,-0.2 -2.4,-0.5 -0.4,-0.3 -0.6,-0.7 -0.6,-1.8 0,-0.8 0.3,-2 0.7,-3.5 0.7,-2.4 1.2,-4.3 2.1,-5.5 0.9,-1.2 1.9,-1.8 4.1,-1.8 v 0 c 1.5,0 2.4,0.3 2.8,0.6 0.5,0.4 0.6,0.9 0.6,1.8 -0.1,1.1 -0.5,2.7 -1,4.7 z"
           class="st0"
           id="XMLID_68_" /></g></g><g
       id="XMLID_172_"
       style="fill:#778187;fill-opacity:1"><g
         id="XMLID_173_"
         style="fill:#778187;fill-opacity:1"><path
           style="fill:#778187;fill-opacity:1"
           d="m 193.4,45.5 c -3.4,0 -4.7,0.1 -5.9,0.3 -1.2,0.2 -2.4,0.7 -3.5,1.4 -1.1,0.7 -2.1,1.7 -3,2.9 -0.8,1.2 -1.4,2.5 -1.8,3.8 -0.5,2.1 0.2,4.1 1.4,5.2 0.2,0.2 0.3,0.3 0.5,0.4 -0.5,0.2 -1.1,0.4 -1.7,0.7 -1.5,0.9 -2.9,2.3 -3.7,3.6 -0.4,0.7 -2.6,4.4 -2.6,4.4 h 7.4 c 0,0 2,-3.5 2.6,-4.6 0.8,-1.3 2.2,-2.7 4.6,-2.7 0,0 1.6,0 2.3,0 -0.1,0.6 -2.3,7.3 -2.3,7.3 h 8.8 c 0,0 -1.4,-0.9 -0.9,-2.4 0.7,-2.2 4.7,-16.1 4.8,-16.5 0.3,-0.9 1,-2 1.5,-2.4 l 2.1,-1.7 h -10.6 z m -2.1,11.3 h -2.7 c 0,0 0,0 0,0 -0.9,0 -1.9,-0.2 -2.1,-0.5 -0.2,-0.2 -0.3,-0.5 -0.3,-0.9 0,-0.4 0.1,-0.7 0.3,-1.3 0.4,-1 1,-1.7 2,-2.2 0.8,-0.4 2.1,-0.4 2.9,-0.4 0,0 0,0 0,0 0,0 0,0 0.1,0 h 1.6 z"
           class="st0"
           id="XMLID_54_" /></g></g><g
       id="XMLID_164_"
       style="fill:#778187;fill-opacity:1"><g
         id="XMLID_165_"
         style="fill:#778187;fill-opacity:1"><path
           style="fill:#778187;fill-opacity:1"
           d="m 129.2,49 -7.7,27.8 c 0,0 0.4,0 2.1,0 3.2,0 4.8,-1.9 5.7,-4.8 0.5,-1.9 1.4,-5.3 1.4,-5.3 1.2,1.4 3.3,1.6 5.3,1.6 2.6,0 4.7,-0.5 6.4,-1.6 1.7,-1 3,-2.6 3.9,-4.3 0.8,-1.5 1.4,-3.3 1.9,-5.2 1.1,-3.6 1.5,-6.4 0.7,-8.5 -0.8,-2.1 -2.8,-3.3 -6.1,-3.5 -1.5,-0.1 -2.8,0 -4.1,0.4 -0.8,0.2 -1.7,0.6 -2.5,1.3 l 0.3,-1.1 0.1,-0.4 h -8.1 l 0.8,1 c 0.3,0.6 0.4,1.1 -0.1,2.6 z m 5.7,3.5 c 0.5,-0.9 0.9,-1.4 1.6,-1.7 0.6,-0.4 1.6,-0.6 3.1,-0.6 v 0 c 1.8,0 2.6,0.3 2.9,1.1 0.4,0.8 0.2,2.4 -0.5,4.9 -0.6,1.9 -1,3.5 -1.6,4.7 -0.4,0.8 -0.9,1.3 -1.4,1.7 -0.6,0.3 -1.4,0.6 -2.7,0.6 -2.5,0 -3.3,-0.6 -3.6,-1.7 -0.2,-1.1 0.6,-4 1,-5.5 0.4,-1.6 0.7,-2.7 1.2,-3.5 z"
           class="st0"
           id="XMLID_49_" /></g></g><g
       id="XMLID_159_"
       style="fill:#778187;fill-opacity:1"><g
         id="XMLID_160_"
         style="fill:#778187;fill-opacity:1"><g
           id="XMLID_161_"
           style="fill:#778187;fill-opacity:1"><path
             style="fill:#778187;fill-opacity:1"
             d="m 223.5,47 c 0.4,-1.2 1.1,-1.4 1.9,-1.5 1,0 10,0 10,0 0.4,-1.5 1.1,-3.9 1.6,-5.7 -1,0 -8.4,0 -9.9,0.1 -1,0 -1.9,0 -2.7,0.1 -3.6,0 -6.2,3 -7.3,6.8 -0.4,1.6 -0.9,3.1 -1.6,5.4 -1.3,4.5 -2,6.6 -2.6,8.5 -0.4,1.2 -1.1,3.4 -1.5,4.4 -0.3,0.9 -1,2.1 -1.7,2.6 l -1.3,1 c 0,0 11.9,0 15.7,0 3.8,0 5.4,-2.6 5.9,-4 0.3,-0.8 0.4,-1.1 0.4,-1.1 h -11.8 l 2.1,-6.6 h 11.6 l 1.4,-5.1 h -11.5 c 0.4,-1.6 1,-3.8 1.3,-4.9 z"
             class="st0"
             id="XMLID_30_" /></g></g></g><g
       id="XMLID_155_"
       style="fill:#778187;fill-opacity:1"><g
         id="XMLID_156_"
         style="fill:#778187;fill-opacity:1"><path
           style="fill:#778187;fill-opacity:1"
           d="m 101.9,46 0.1,-0.6 h -9.8 c -3.3,0 -6.3,2 -7.6,5.9 l -5.7,17.2 h 2.3 c 0,0 0,0 0.1,0 2.7,0 4.9,-1.8 5.7,-4.6 v 0 l 3.2,-9.7 c 0.4,-1.3 0.8,-2.1 1.4,-2.6 0.5,-0.5 1.4,-0.7 2.9,-0.8 h 1.7 c 3,0.1 5.2,-2.4 5.7,-4.8 z"
           class="st0"
           id="XMLID_26_" /></g></g><path
       style="fill:#778187;fill-opacity:1"
       d="M 7.1,80.8 6,84.3 h 3.5 l 1.1,-3.5 h 2.1 l -2.7,9 H 7.9 L 9,86 H 5.5 l -1.2,3.8 h -2 l 2.8,-9.1 h 2 z"
       class="st0"
       id="XMLID_145_" /><path
       style="fill:#778187;fill-opacity:1"
       d="m 16.7,89.8 c 0.1,-0.4 0.1,-0.8 0.2,-1.3 v 0 c -0.8,1.1 -1.7,1.4 -2.5,1.4 -1.3,0 -2.1,-0.9 -1.9,-2.3 0.2,-2.2 2.1,-4.6 5.5,-4.6 0.8,0 1.7,0.1 2.3,0.3 l -1.1,3.4 c -0.3,0.8 -0.5,2.1 -0.6,3 h -1.9 z m 1.2,-5.2 c -0.2,0 -0.3,-0.1 -0.6,-0.1 -1.3,0 -2.5,1.5 -2.6,2.8 -0.1,0.6 0.2,1.1 0.7,1.1 0.6,0 1.5,-0.7 1.9,-2.3 z"
       class="st0"
       id="XMLID_142_" /><path
       style="fill:#778187;fill-opacity:1"
       d="m 24.5,83.3 -1.1,3.5 c -0.1,0.3 -0.2,0.6 -0.2,0.9 0,0.4 0.1,0.8 0.6,0.8 0.7,0 1.5,-0.8 1.9,-2.1 l 0.9,-3 h 2.1 L 27.6,87 c -0.1,0.3 -0.2,0.7 -0.2,0.9 -0.1,0.5 0.2,0.8 0.9,0.8 l -1.4,3.1 h -1.5 l 0.8,-2.1 c -0.2,0 -0.4,-0.2 -0.6,-0.4 -0.1,-0.2 -0.2,-0.4 -0.2,-0.7 v 0 c -0.8,0.8 -1.7,1.3 -2.7,1.3 -1.2,0 -1.9,-0.6 -1.7,-1.8 0,-0.4 0.1,-0.8 0.3,-1.2 l 1.1,-3.7 h 2.1 z"
       class="st0"
       id="XMLID_140_" /><path
       style="fill:#778187;fill-opacity:1"
       d="M 33.1,83.3 32,86.8 c -0.1,0.3 -0.2,0.6 -0.2,0.9 0,0.4 0.1,0.8 0.6,0.8 0.7,0 1.5,-0.8 1.9,-2.1 l 0.9,-3 h 2.1 L 36,87.7 c -0.2,0.8 -0.4,1.5 -0.6,2.1 h -1.8 l 0.2,-1.1 v 0 C 33,89.6 32.1,90 31.3,90 c -1.1,0 -1.7,-0.6 -1.6,-1.8 0,-0.4 0.1,-0.8 0.3,-1.2 l 1.1,-3.7 z"
       class="st0"
       id="XMLID_138_" /><path
       style="fill:#778187;fill-opacity:1"
       d="m 40.8,90 c -1.8,0 -2.9,-1.1 -2.7,-2.7 0.2,-2.3 2.1,-4.2 4.6,-4.2 1.9,0 2.9,1.2 2.7,2.7 -0.3,2.4 -2.2,4.2 -4.6,4.2 z m 0.4,-1.5 c 1.1,0 1.9,-1.5 2,-2.7 0.1,-0.6 -0.2,-1.3 -1,-1.3 -1.2,0 -2,1.6 -2.1,2.7 0,0.8 0.4,1.3 1.1,1.3 z"
       class="st0"
       id="XMLID_135_" /><path
       style="fill:#778187;fill-opacity:1"
       d="m 50,83.3 -0.7,2.4 h 2.1 l 0.7,-2.4 h 2.1 l -2,6.6 h -2.1 l 0.8,-2.7 H 48.8 L 48,89.8 h -2 l 2,-6.6 h 2 z"
       class="st0"
       id="XMLID_133_" /><path
       style="fill:#778187;fill-opacity:1"
       d="m 59,89.8 c 0.1,-0.4 0.1,-0.8 0.2,-1.3 v 0 c -0.8,1.1 -1.7,1.4 -2.5,1.4 -1.3,0 -2.1,-0.9 -1.9,-2.3 0.2,-2.2 2.1,-4.6 5.5,-4.6 0.8,0 1.7,0.1 2.3,0.3 l -1.1,3.4 c -0.3,0.8 -0.5,2.1 -0.6,3 H 59 Z m 1.1,-5.2 c -0.2,0 -0.3,-0.1 -0.6,-0.1 -1.3,0 -2.5,1.5 -2.6,2.8 -0.1,0.6 0.2,1.1 0.8,1.1 0.6,0 1.5,-0.7 1.9,-2.3 z"
       class="st0"
       id="XMLID_130_" /><path
       style="fill:#778187;fill-opacity:1"
       d="m 70.9,83.3 -2,6.6 h -2.1 l 1.6,-5.1 H 66.8 L 66.4,86 c -0.5,1.7 -1.1,2.6 -1.9,3.2 -0.6,0.5 -1.2,0.7 -2.3,0.7 v -1.5 c 0.4,0 0.8,-0.2 1.1,-0.4 0.5,-0.4 0.9,-1.1 1.2,-2 l 0.8,-2.7 z"
       class="st0"
       id="XMLID_128_" /><path
       style="fill:#778187;fill-opacity:1"
       d="m 77,89.5 c -0.9,0.4 -1.9,0.5 -2.7,0.5 -2,0 -2.9,-1.1 -2.8,-2.8 0.2,-2 2,-4.1 4.5,-4.1 1.4,0 2.4,0.7 2.2,2 -0.2,1.7 -2,2.3 -4.8,2.2 0,0.2 0,0.5 0.1,0.7 0.2,0.3 0.7,0.5 1.3,0.5 0.8,0 1.4,-0.2 2,-0.4 z m -0.6,-4.4 c 0,-0.3 -0.2,-0.6 -0.7,-0.6 -1,0 -1.6,0.7 -1.8,1.4 1.6,0 2.4,-0.2 2.5,-0.8 z"
       class="st0"
       id="XMLID_125_" /><path
       style="fill:#778187;fill-opacity:1"
       d="M 82.7,83.3 82,85.7 h 2.2 l 0.7,-2.4 H 87 l -2,6.6 h -2.1 l 0.8,-2.7 h -2.1 l -0.8,2.7 h -2.1 l 2,-6.6 z"
       class="st0"
       id="XMLID_123_" /><path
       style="fill:#778187;fill-opacity:1"
       d="m 103.3,80.8 -2.8,9.1 h -2.1 l 2.3,-7.4 h -3.3 l -2.3,7.4 H 93 l 2.8,-9.1 z"
       class="st0"
       id="XMLID_121_" /><path
       style="fill:#778187;fill-opacity:1"
       d="m 101.9,92.5 2,-6.7 c 0.2,-0.8 0.5,-1.9 0.7,-2.6 h 1.9 l -0.2,1 v 0 c 0.6,-0.7 1.5,-1.1 2.4,-1.1 1.5,0 2.1,1.1 2,2.5 -0.2,2.3 -2.1,4.4 -4.5,4.4 -0.6,0 -1,-0.1 -1.3,-0.3 v 0 l -0.9,2.8 z m 3.4,-4.3 c 0.2,0.2 0.5,0.3 0.9,0.3 1.1,0 2.1,-1.5 2.3,-2.8 0.1,-0.5 -0.1,-1.1 -0.8,-1.1 -0.8,0 -1.6,0.8 -2,2.1 z"
       class="st0"
       id="XMLID_118_" /><path
       style="fill:#778187;fill-opacity:1"
       d="m 117.2,89.5 c -0.9,0.4 -1.9,0.5 -2.7,0.5 -2,0 -2.9,-1.1 -2.8,-2.8 0.2,-2 2,-4.1 4.5,-4.1 1.4,0 2.4,0.7 2.2,2 -0.2,1.7 -2,2.3 -4.8,2.2 0,0.2 0,0.5 0.1,0.7 0.2,0.3 0.7,0.5 1.3,0.5 0.8,0 1.4,-0.2 2,-0.4 z m -0.6,-4.4 c 0,-0.3 -0.2,-0.6 -0.7,-0.6 -1,0 -1.6,0.7 -1.8,1.4 1.6,0 2.5,-0.2 2.5,-0.8 z"
       class="st0"
       id="XMLID_115_" /><path
       style="fill:#778187;fill-opacity:1"
       d="m 124,83.1 c 1.5,0 2.5,0.5 2.4,1.6 -0.1,0.9 -1.1,1.4 -1.8,1.6 v 0 c 0.7,0.1 1.4,0.5 1.3,1.4 -0.2,1.8 -2.4,2.3 -3.9,2.3 -1.8,0 -2.7,-0.7 -2.6,-2 0.1,-1.2 0.9,-3.4 2.3,-4.2 0.6,-0.5 1.3,-0.7 2.3,-0.7 z m -1.2,3.9 c -0.4,0 -0.9,0.1 -1.2,0.2 -0.1,0.2 -0.1,0.4 -0.1,0.6 0,0.5 0.1,0.8 0.9,0.8 0.8,0 1.4,-0.4 1.5,-0.9 -0.1,-0.5 -0.6,-0.7 -1.1,-0.7 z m 0.8,-2.6 c -0.9,0 -1.4,0.9 -1.7,1.6 0.6,-0.1 1.2,-0.2 1.7,-0.4 0.4,-0.1 0.7,-0.4 0.7,-0.7 0.1,-0.3 -0.2,-0.5 -0.7,-0.5 z"
       class="st0"
       id="XMLID_111_" /><path
       style="fill:#778187;fill-opacity:1"
       d="m 130.1,90 c -1.8,0 -2.9,-1.1 -2.7,-2.7 0.2,-2.3 2.1,-4.2 4.6,-4.2 1.9,0 2.9,1.2 2.7,2.7 -0.2,2.4 -2.2,4.2 -4.6,4.2 z m 0.4,-1.5 c 1.1,0 1.9,-1.5 2,-2.7 0.1,-0.6 -0.2,-1.3 -1,-1.3 -1.2,0 -2,1.6 -2.1,2.7 0,0.8 0.4,1.3 1.1,1.3 z"
       class="st0"
       id="XMLID_108_" /><path
       style="fill:#778187;fill-opacity:1"
       d="m 137.1,85.8 h 0.8 c 0.7,0 1.5,-0.2 1.5,-0.7 0,-0.4 -0.4,-0.6 -0.9,-0.6 -0.5,0 -1.3,0.2 -1.8,0.4 l -0.2,-1.2 c 0.7,-0.4 1.7,-0.6 2.6,-0.6 1.2,0 2.7,0.3 2.5,1.7 -0.1,0.9 -1,1.4 -2,1.6 v 0 c 0.8,0.1 1.5,0.6 1.4,1.5 -0.2,1.6 -2.2,2 -3.6,2 -1,0 -2,-0.2 -2.7,-0.7 l 0.7,-1.3 c 0.5,0.3 1.3,0.6 2,0.6 0.7,0 1.4,-0.2 1.5,-0.8 0.1,-0.6 -0.6,-0.7 -1.4,-0.7 h -0.8 z"
       class="st0"
       id="XMLID_106_" /><path
       style="fill:#778187;fill-opacity:1"
       d="m 147.4,83.1 c 1.5,0 2.5,0.5 2.4,1.6 -0.1,0.9 -1.1,1.4 -1.8,1.6 v 0 c 0.7,0.1 1.4,0.5 1.3,1.4 -0.2,1.8 -2.4,2.3 -3.9,2.3 -1.8,0 -2.7,-0.7 -2.6,-2 0.1,-1.2 0.9,-3.4 2.3,-4.2 0.6,-0.5 1.4,-0.7 2.3,-0.7 z m -1.2,3.9 c -0.4,0 -0.9,0.1 -1.2,0.2 -0.1,0.2 -0.1,0.4 -0.1,0.6 0,0.5 0.1,0.8 0.9,0.8 0.8,0 1.4,-0.4 1.5,-0.9 -0.1,-0.5 -0.6,-0.7 -1.1,-0.7 z m 0.8,-2.6 c -0.9,0 -1.4,0.9 -1.7,1.6 0.6,-0.1 1.2,-0.2 1.7,-0.4 0.4,-0.1 0.7,-0.4 0.7,-0.7 0.1,-0.3 -0.2,-0.5 -0.7,-0.5 z"
       class="st0"
       id="XMLID_102_" /><path
       style="fill:#778187;fill-opacity:1"
       d="m 155,89.8 c 0.1,-0.4 0.1,-0.8 0.2,-1.3 v 0 c -0.8,1.1 -1.7,1.4 -2.5,1.4 -1.3,0 -2.1,-0.9 -1.9,-2.3 0.2,-2.2 2.1,-4.6 5.5,-4.6 0.8,0 1.7,0.1 2.3,0.3 l -1.1,3.4 c -0.3,0.8 -0.5,2.1 -0.6,3 H 155 Z m 1.1,-5.2 c -0.2,0 -0.3,-0.1 -0.6,-0.1 -1.3,0 -2.5,1.5 -2.6,2.8 -0.1,0.6 0.2,1.1 0.7,1.1 0.6,0 1.5,-0.7 2,-2.3 z"
       class="st0"
       id="XMLID_99_" /><path
       style="fill:#778187;fill-opacity:1"
       d="m 162.6,83.3 -0.5,1.5 c -0.1,0.2 -0.2,0.5 -0.2,0.8 0,0.4 0.2,0.7 0.8,0.7 0.4,0 0.9,-0.1 1.1,-0.4 l 0.8,-2.7 h 2.1 l -2,6.6 h -2.1 l 0.8,-2.5 v 0 c -0.4,0.2 -1,0.4 -1.7,0.4 -1.5,0 -2.1,-0.7 -2,-1.7 0,-0.3 0.1,-0.7 0.2,-1.1 l 0.6,-1.7 h 2.1 z"
       class="st0"
       id="XMLID_97_" /><g
       id="XMLID_4_"
       style="fill:#778187;fill-opacity:1"><path
         style="fill:#778187;fill-opacity:1"
         d="m 56.1,54.2 c -1.4,-1.9 -3.1,-2.3 -5,-2.3 0,0 -1.9,0 -3.1,0 0.1,-0.4 0.3,-1 0.6,-1.8 1,-3 -0.2,-5.6 -4,-5.6 -2.3,0 -4.2,0 -4.2,0 0,0 0.8,0.8 1.4,1.4 1.2,1.2 1.3,2.3 0.8,3.7 -1.3,3.6 -4,11.1 -5.4,15 -0.5,1.4 -0.9,2.1 -1.8,2.9 -0.7,0.7 -1.3,1 -1.3,1 h 1.7 v 0 h 7 v 0 0 c 3.2,0 4.4,-0.1 5.6,-0.3 1.2,-0.2 2.3,-0.7 3.4,-1.4 1.1,-0.7 2,-1.6 2.9,-2.8 0.9,-1.2 1.5,-2.3 1.9,-3.7 0.4,-1.2 0.9,-4.3 -0.5,-6.1 z m -7.6,7.9 c -0.9,0.5 -2.3,0.6 -3,0.6 0,0 0,0 0,0 0,0 0,0 -0.1,0 h -1.5 l 2,-5.1 c 0,0 1.7,0 2.5,0 0.9,0 1.7,0.1 1.9,0.8 0.6,1.4 -0.6,3 -1.8,3.7 z"
         class="st0"
         id="XMLID_41_" /></g></g></svg>