<?xml version="1.0" encoding="UTF-8" standalone="no"?>
<svg
   xmlns:dc="http://purl.org/dc/elements/1.1/"
   xmlns:cc="http://creativecommons.org/ns#"
   xmlns:rdf="http://www.w3.org/1999/02/22-rdf-syntax-ns#"
   xmlns:svg="http://www.w3.org/2000/svg"
   xmlns="http://www.w3.org/2000/svg"
   xmlns:sodipodi="http://sodipodi.sourceforge.net/DTD/sodipodi-0.dtd"
   xmlns:inkscape="http://www.inkscape.org/namespaces/inkscape"
   width="500"
   height="80"
   viewBox="0 0 132.29166 21.166666"
   version="1.1"
   id="svg8"
   inkscape:version="1.0.2-2 (e86c870879, 2021-01-15)"
   sodipodi:docname="Business Wings Logo.svg">
  <defs
     id="defs2" />
  <sodipodi:namedview
     id="base"
     pagecolor="#ffffff"
     bordercolor="#666666"
     borderopacity="1.0"
     inkscape:pageopacity="0.0"
     inkscape:pageshadow="2"
     inkscape:zoom="2.8284272"
     inkscape:cx="362.16255"
     inkscape:cy="-110.70178"
     inkscape:document-units="mm"
     inkscape:current-layer="layer1"
     inkscape:document-rotation="0"
     showgrid="false"
     showguides="true"
     inkscape:guide-bbox="true"
     units="px"
     inkscape:window-width="3762"
     inkscape:window-height="2137"
     inkscape:window-x="1990"
     inkscape:window-y="-8"
     inkscape:window-maximized="1" />
  <metadata
     id="metadata5">
    <rdf:RDF>
      <cc:Work
         rdf:about="">
        <dc:format>image/svg+xml</dc:format>
        <dc:type
           rdf:resource="http://purl.org/dc/dcmitype/StillImage" />
        <dc:title></dc:title>
      </cc:Work>
    </rdf:RDF>
  </metadata>
  <g
     inkscape:label="Ebene 1"
     inkscape:groupmode="layer"
     id="layer1">
    <g
       aria-label="WINGS"
       id="text1223-8"
       style="font-style:normal;font-variant:normal;font-weight:bold;font-stretch:normal;font-size:46.6427px;line-height:1.25;font-family:'Proxima Nova';-inkscape-font-specification:'Proxima Nova Bold';letter-spacing:0px;word-spacing:0px;fill:#f9ef07;fill-opacity:1;stroke:none;stroke-width:1.16607"
       transform="matrix(0.22670813,0,0,0.22670813,141.20916,3.0352111)">
      <path
         d="m -177.57871,45.194344 -5.45719,-21.362357 -5.41055,21.362357 h -7.04305 l -8.90876,-31.110681 h 7.41619 l 5.4572,22.481781 5.92362,-22.481781 h 5.17734 l 5.87698,22.481781 5.41055,-22.481781 h 7.46284 l -8.86212,31.110681 z"
         style="font-style:normal;font-variant:normal;font-weight:bold;font-stretch:normal;font-family:'Proxima Nova';-inkscape-font-specification:'Proxima Nova Bold';fill:#f9ef07;fill-opacity:1;stroke-width:1.16607"
         id="path1276" />
      <path
         d="M -157.28852,45.194344 V 14.083663 h 6.62327 v 31.110681 z"
         style="font-style:normal;font-variant:normal;font-weight:bold;font-stretch:normal;font-family:'Proxima Nova';-inkscape-font-specification:'Proxima Nova Bold';fill:#f9ef07;fill-opacity:1;stroke-width:1.16607"
         id="path1278" />
      <path
         d="m -120.03285,45.194344 -14.83238,-20.289575 v 20.289575 h -6.62327 V 14.083663 h 6.80984 l 14.41259,19.543291 V 14.083663 h 6.62327 v 31.110681 z"
         style="font-style:normal;font-variant:normal;font-weight:bold;font-stretch:normal;font-family:'Proxima Nova';-inkscape-font-specification:'Proxima Nova Bold';fill:#f9ef07;fill-opacity:1;stroke-width:1.16607"
         id="path1280" />
      <path
         d="m -88.490458,45.800699 q -3.404917,0 -6.436692,-1.119425 -2.985133,-1.166068 -5.27063,-3.264989 -2.23885,-2.098922 -3.54484,-5.084054 -1.306,-2.985133 -1.306,-6.669907 0,-3.684773 1.306,-6.669906 1.30599,-2.985133 3.54484,-5.084054 2.285497,-2.098922 5.27063,-3.218346 3.031775,-1.119425 6.436692,-1.119425 2.425421,0 4.384414,0.559712 2.005636,0.559713 3.591488,1.539209 1.585852,0.932854 2.798562,2.192207 1.21271,1.259353 2.098922,2.658634 l -5.503839,2.985133 q -1.072782,-1.632495 -2.985133,-2.845205 -1.865708,-1.21271 -4.384414,-1.21271 -2.098921,0 -3.917987,0.792926 -1.772422,0.746283 -3.078418,2.145564 -1.305995,1.352638 -2.052279,3.218346 -0.69964,1.865708 -0.69964,4.057915 0,2.192207 0.69964,4.104558 0.746284,1.865708 2.052279,3.218346 1.305996,1.352639 3.078418,2.145565 1.819066,0.746283 3.917987,0.746283 2.098922,0 3.871344,-0.746283 1.819066,-0.746284 2.75192,-1.632495 v -3.731416 h -8.209116 v -5.783695 h 14.832379 v 11.940531 q -2.378778,2.658634 -5.690409,4.291129 -3.311632,1.585852 -7.556118,1.585852 z"
         style="font-style:normal;font-variant:normal;font-weight:bold;font-stretch:normal;font-family:'Proxima Nova';-inkscape-font-specification:'Proxima Nova Bold';fill:#f9ef07;fill-opacity:1;stroke-width:1.16607"
         id="path1282" />
      <path
         d="m -55.869017,45.754056 q -4.524342,0 -7.742688,-1.352638 -3.218346,-1.352639 -5.410553,-3.591488 l 3.591488,-5.037412 q 1.632494,1.72578 4.1512,2.985133 2.518706,1.21271 5.737052,1.21271 2.75192,0 4.057915,-1.026139 1.352639,-1.072782 1.352639,-2.425421 0,-1.352638 -1.352639,-2.052278 -1.305995,-0.746284 -3.311631,-1.259353 -1.958994,-0.51307 -4.291129,-1.072782 -2.332135,-0.559713 -4.337771,-1.585852 -1.958993,-1.02614 -3.311632,-2.75192 -1.305995,-1.772422 -1.305995,-4.710912 0,-1.958994 0.792926,-3.638131 0.839568,-1.72578 2.332135,-3.031775 1.539209,-1.305996 3.731416,-2.052279 2.192206,-0.746283 4.944126,-0.746283 7.416189,0 12.127102,4.337771 l -3.684773,4.85084 q -1.912351,-1.772422 -4.291129,-2.565348 -2.378778,-0.839569 -4.757555,-0.839569 -2.145565,0 -3.311632,0.886212 -1.119425,0.839568 -1.119425,2.238849 0,1.21271 1.305996,1.912351 1.352638,0.652998 3.311631,1.166067 2.005637,0.466427 4.291129,1.072783 2.332135,0.559712 4.291128,1.632494 2.005636,1.02614 3.311632,2.798562 1.352638,1.772423 1.352638,4.66427 0,2.145564 -0.792926,3.96463 -0.746283,1.819065 -2.285492,3.171703 -1.539209,1.305996 -3.917987,2.098922 -2.332135,0.746283 -5.457196,0.746283 z"
         style="font-style:normal;font-variant:normal;font-weight:bold;font-stretch:normal;font-family:'Proxima Nova';-inkscape-font-specification:'Proxima Nova Bold';fill:#f9ef07;fill-opacity:1;stroke-width:1.16607"
         id="path1284" />
    </g>
    <g
       aria-label="A SOVEREIGN COMPANY"
       id="text1251"
       style="font-style:normal;font-weight:normal;font-size:17.3668px;line-height:1.25;font-family:sans-serif;letter-spacing:10.8717px;fill:#000000;fill-opacity:1;stroke:none;stroke-width:0.2;stroke-miterlimit:4;stroke-dasharray:none"
       transform="matrix(0.22670813,0,0,0.22670813,141.20916,3.0352111)">
      <path
         d="m -432.2703,68.374352 -1.02464,-2.570287 h -5.76578 l -1.02464,2.570287 h -1.64985 l 4.6543,-11.583656 h 1.78878 l 4.67167,11.583656 z m -3.90753,-10.090111 -2.46609,6.234681 h 4.91481 z"
         style="font-style:normal;font-variant:normal;font-weight:normal;font-stretch:normal;font-family:'Proxima Nova';-inkscape-font-specification:'Proxima Nova';fill:#000000;stroke:none;stroke-width:0.2;stroke-miterlimit:4;stroke-dasharray:none"
         id="path1287" />
      <path
         d="m -399.13431,68.582753 q -1.52828,0 -2.62238,-0.503637 -1.09411,-0.521004 -1.82352,-1.337244 l 0.85097,-1.094108 q 0.27787,0.312602 0.65994,0.625205 0.38207,0.295235 0.83361,0.521004 0.4689,0.225768 1.00727,0.364702 0.53838,0.138935 1.14621,0.138935 0.78151,0 1.30251,-0.191035 0.52101,-0.191035 0.83361,-0.468904 0.3126,-0.295235 0.45154,-0.642571 0.13893,-0.364703 0.13893,-0.694672 0,-0.555738 -0.29523,-0.920441 -0.29524,-0.364702 -0.78151,-0.607838 -0.4689,-0.260502 -1.09411,-0.416803 -0.60784,-0.173668 -1.26778,-0.347336 -0.64257,-0.191035 -1.26777,-0.416803 -0.60784,-0.225768 -1.09411,-0.573104 -0.4689,-0.364703 -0.76414,-0.885707 -0.29524,-0.521004 -0.29524,-1.30251 0,-0.712039 0.29524,-1.30251 0.3126,-0.590471 0.83361,-1.007275 0.53837,-0.43417 1.26777,-0.659938 0.72941,-0.243135 1.58038,-0.243135 1.33725,0 2.36189,0.416803 1.02464,0.416803 1.75404,1.198309 l -0.86834,1.059375 q -0.65993,-0.729406 -1.52827,-1.059375 -0.86834,-0.329969 -1.82352,-0.329969 -1.04201,0 -1.71931,0.503637 -0.65994,0.503637 -0.65994,1.337244 0,0.48627 0.29524,0.798873 0.29523,0.312602 0.76413,0.53837 0.48627,0.225769 1.09411,0.399437 0.62521,0.156301 1.26778,0.347336 0.65994,0.173668 1.26778,0.416803 0.6252,0.243135 1.0941,0.625205 0.48627,0.382069 0.78151,0.937807 0.29524,0.555738 0.29524,1.371977 0,0.625205 -0.22577,1.25041 -0.22577,0.607838 -0.74678,1.094108 -0.50363,0.468904 -1.31987,0.764139 -0.81624,0.295236 -1.97982,0.295236 z"
         style="font-style:normal;font-variant:normal;font-weight:normal;font-stretch:normal;font-family:'Proxima Nova';-inkscape-font-specification:'Proxima Nova';fill:#000000;stroke:none;stroke-width:0.2;stroke-miterlimit:4;stroke-dasharray:none"
         id="path1289" />
      <path
         d="m -376.55741,68.582753 q -1.28514,0 -2.34452,-0.451537 -1.05937,-0.451537 -1.82351,-1.250409 -0.74678,-0.81624 -1.16358,-1.910348 -0.4168,-1.094109 -0.4168,-2.379252 0,-1.285143 0.4168,-2.379252 0.4168,-1.094108 1.16358,-1.892981 0.76414,-0.816239 1.82351,-1.267776 1.05938,-0.451537 2.34452,-0.451537 1.28514,0 2.34452,0.451537 1.05937,0.451537 1.80614,1.267776 0.76414,0.798873 1.18095,1.892981 0.4168,1.094109 0.4168,2.379252 0,1.285143 -0.4168,2.379252 -0.41681,1.094108 -1.18095,1.910348 -0.74677,0.798872 -1.80614,1.250409 -1.05938,0.451537 -2.34452,0.451537 z m 0,-1.285143 q 0.97254,0 1.75405,-0.347336 0.7815,-0.364703 1.33724,-0.989908 0.55574,-0.642571 0.85097,-1.493545 0.31261,-0.86834 0.31261,-1.875614 0,-1.007274 -0.31261,-1.875614 -0.29523,-0.86834 -0.85097,-1.493545 -0.55574,-0.625205 -1.33724,-0.972541 -0.78151,-0.364703 -1.75405,-0.364703 -0.97254,0 -1.77141,0.364703 -0.78151,0.347336 -1.33725,0.972541 -0.55574,0.625205 -0.85097,1.493545 -0.29524,0.86834 -0.29524,1.875614 0,1.007274 0.29524,1.875614 0.29523,0.850974 0.85097,1.493545 0.55574,0.625205 1.33725,0.989908 0.79887,0.347336 1.77141,0.347336 z"
         style="font-style:normal;font-variant:normal;font-weight:normal;font-stretch:normal;font-family:'Proxima Nova';-inkscape-font-specification:'Proxima Nova';fill:#000000;stroke:none;stroke-width:0.2;stroke-miterlimit:4;stroke-dasharray:none"
         id="path1291" />
      <path
         d="m -353.54651,68.374352 -4.65431,-11.583656 h 1.64985 l 3.90753,10.003277 3.90753,-10.003277 h 1.64985 l -4.67167,11.583656 z"
         style="font-style:normal;font-variant:normal;font-weight:normal;font-stretch:normal;font-family:'Proxima Nova';-inkscape-font-specification:'Proxima Nova';fill:#000000;stroke:none;stroke-width:0.2;stroke-miterlimit:4;stroke-dasharray:none"
         id="path1293" />
      <path
         d="M -334.70346,68.374352 V 56.790696 h 7.58929 v 1.285143 h -6.14785 v 3.733862 h 6.02628 v 1.285143 h -6.02628 v 3.994364 h 6.14785 v 1.285144 z"
         style="font-style:normal;font-variant:normal;font-weight:normal;font-stretch:normal;font-family:'Proxima Nova';-inkscape-font-specification:'Proxima Nova';fill:#000000;stroke:none;stroke-width:0.2;stroke-miterlimit:4;stroke-dasharray:none"
         id="path1295" />
      <path
         d="m -306.5765,68.374352 -2.95236,-4.602203 h -2.30978 v 4.602203 h -1.44145 V 56.790696 h 4.65431 q 0.79887,0 1.45881,0.243135 0.65994,0.243135 1.14621,0.712039 0.48627,0.451537 0.74677,1.094108 0.27787,0.642572 0.27787,1.441445 0,0.781506 -0.24314,1.389344 -0.24313,0.607838 -0.65994,1.024641 -0.4168,0.416803 -0.97254,0.659938 -0.53837,0.243135 -1.12884,0.295236 l 3.12602,4.72377 z m -2.22295,-5.869979 q 1.04201,0 1.66721,-0.607838 0.64257,-0.625205 0.64257,-1.615112 0,-0.989908 -0.64257,-1.597746 -0.6252,-0.607838 -1.66721,-0.607838 h -3.03919 v 4.428534 z"
         style="font-style:normal;font-variant:normal;font-weight:normal;font-stretch:normal;font-family:'Proxima Nova';-inkscape-font-specification:'Proxima Nova';fill:#000000;stroke:none;stroke-width:0.2;stroke-miterlimit:4;stroke-dasharray:none"
         id="path1297" />
      <path
         d="M -291.84937,68.374352 V 56.790696 h 7.58929 v 1.285143 h -6.14784 v 3.733862 h 6.02628 v 1.285143 h -6.02628 v 3.994364 h 6.14784 v 1.285144 z"
         style="font-style:normal;font-variant:normal;font-weight:normal;font-stretch:normal;font-family:'Proxima Nova';-inkscape-font-specification:'Proxima Nova';fill:#000000;stroke:none;stroke-width:0.2;stroke-miterlimit:4;stroke-dasharray:none"
         id="path1299" />
      <path
         d="M -271.096,68.374352 V 56.790696 h 1.44145 v 11.583656 z"
         style="font-style:normal;font-variant:normal;font-weight:normal;font-stretch:normal;font-family:'Proxima Nova';-inkscape-font-specification:'Proxima Nova';fill:#000000;stroke:none;stroke-width:0.2;stroke-miterlimit:4;stroke-dasharray:none"
         id="path1301" />
      <path
         d="m -250.02575,68.60012 q -1.23304,0 -2.32715,-0.43417 -1.07674,-0.43417 -1.89298,-1.215676 -0.79888,-0.798873 -1.26778,-1.892981 -0.4689,-1.111476 -0.4689,-2.466086 0,-1.35461 0.4689,-2.448719 0.4689,-1.111475 1.26778,-1.892981 0.81624,-0.781506 1.89298,-1.215676 1.09411,-0.43417 2.32715,-0.43417 1.54564,0 2.62239,0.607838 1.0941,0.607838 1.87561,1.563012 l -1.14621,0.712039 q -0.55574,-0.712039 -1.44144,-1.146209 -0.86834,-0.451537 -1.91035,-0.451537 -0.95518,0 -1.77142,0.347336 -0.81623,0.347336 -1.42407,0.972541 -0.59047,0.625205 -0.93781,1.493545 -0.32997,0.850973 -0.32997,1.892981 0,1.024641 0.32997,1.892981 0.34734,0.86834 0.93781,1.493545 0.60784,0.625205 1.42407,0.989908 0.81624,0.347336 1.77142,0.347336 0.521,0 0.98991,-0.104201 0.4689,-0.121568 0.86834,-0.295236 0.39943,-0.191035 0.71203,-0.416803 0.32997,-0.225768 0.53838,-0.43417 v -2.361885 h -3.977 v -1.285143 h 5.41844 v 4.185399 q -0.81624,0.903073 -1.97982,1.458811 -1.1462,0.538371 -2.57028,0.538371 z"
         style="font-style:normal;font-variant:normal;font-weight:normal;font-stretch:normal;font-family:'Proxima Nova';-inkscape-font-specification:'Proxima Nova';fill:#000000;stroke:none;stroke-width:0.2;stroke-miterlimit:4;stroke-dasharray:none"
         id="path1303" />
      <path
         d="m -224.0623,68.374352 -6.75569,-9.239138 v 9.239138 h -1.44144 V 56.790696 h 1.47617 l 6.66886,9.048103 v -9.048103 h 1.44144 v 11.583656 z"
         style="font-style:normal;font-variant:normal;font-weight:normal;font-stretch:normal;font-family:'Proxima Nova';-inkscape-font-specification:'Proxima Nova';fill:#000000;stroke:none;stroke-width:0.2;stroke-miterlimit:4;stroke-dasharray:none"
         id="path1305" />
      <path
         d="m -187.51184,68.582753 q -1.25041,0 -2.34451,-0.43417 -1.07675,-0.43417 -1.89298,-1.215676 -0.79888,-0.798873 -1.26778,-1.892981 -0.45154,-1.111475 -0.45154,-2.448719 0,-1.337244 0.45154,-2.431352 0.4689,-1.111475 1.26778,-1.892981 0.81623,-0.798873 1.89298,-1.233043 1.0941,-0.43417 2.34451,-0.43417 0.76414,0 1.40672,0.173668 0.65993,0.173668 1.1983,0.48627 0.55574,0.312603 0.98991,0.729406 0.45154,0.416803 0.79887,0.903074 l -1.21567,0.677305 q -0.50364,-0.729406 -1.35461,-1.198309 -0.83361,-0.486271 -1.82352,-0.486271 -0.95517,0 -1.77141,0.347336 -0.81624,0.347336 -1.42408,0.972541 -0.59047,0.625205 -0.9378,1.493545 -0.32997,0.850973 -0.32997,1.892981 0,1.024641 0.32997,1.892981 0.34733,0.86834 0.9378,1.493545 0.60784,0.625205 1.42408,0.972541 0.81624,0.347336 1.77141,0.347336 0.98991,0 1.82352,-0.468904 0.85097,-0.468903 1.35461,-1.215676 l 1.23304,0.677305 q -0.7294,0.989908 -1.80615,1.649846 -1.05937,0.642572 -2.60502,0.642572 z"
         style="font-style:normal;font-variant:normal;font-weight:normal;font-stretch:normal;font-family:'Proxima Nova';-inkscape-font-specification:'Proxima Nova';fill:#000000;stroke:none;stroke-width:0.2;stroke-miterlimit:4;stroke-dasharray:none"
         id="path1307" />
      <path
         d="m -165.10862,68.582753 q -1.28514,0 -2.34452,-0.451537 -1.05937,-0.451537 -1.82351,-1.250409 -0.74677,-0.81624 -1.16358,-1.910348 -0.4168,-1.094109 -0.4168,-2.379252 0,-1.285143 0.4168,-2.379252 0.41681,-1.094108 1.16358,-1.892981 0.76414,-0.816239 1.82351,-1.267776 1.05938,-0.451537 2.34452,-0.451537 1.28514,0 2.34452,0.451537 1.05937,0.451537 1.80615,1.267776 0.76414,0.798873 1.18094,1.892981 0.4168,1.094109 0.4168,2.379252 0,1.285143 -0.4168,2.379252 -0.4168,1.094108 -1.18094,1.910348 -0.74678,0.798872 -1.80615,1.250409 -1.05938,0.451537 -2.34452,0.451537 z m 0,-1.285143 q 0.97254,0 1.75405,-0.347336 0.7815,-0.364703 1.33724,-0.989908 0.55574,-0.642571 0.85097,-1.493545 0.31261,-0.86834 0.31261,-1.875614 0,-1.007274 -0.31261,-1.875614 -0.29523,-0.86834 -0.85097,-1.493545 -0.55574,-0.625205 -1.33724,-0.972541 -0.78151,-0.364703 -1.75405,-0.364703 -0.97254,0 -1.77141,0.364703 -0.78151,0.347336 -1.33725,0.972541 -0.55573,0.625205 -0.85097,1.493545 -0.29524,0.86834 -0.29524,1.875614 0,1.007274 0.29524,1.875614 0.29524,0.850974 0.85097,1.493545 0.55574,0.625205 1.33725,0.989908 0.79887,0.347336 1.77141,0.347336 z"
         style="font-style:normal;font-variant:normal;font-weight:normal;font-stretch:normal;font-family:'Proxima Nova';-inkscape-font-specification:'Proxima Nova';fill:#000000;stroke:none;stroke-width:0.2;stroke-miterlimit:4;stroke-dasharray:none"
         id="path1309" />
      <path
         d="m -135.81174,68.374352 v -9.534374 l -3.94227,9.534374 h -0.59047 l -3.92489,-9.534374 v 9.534374 h -1.44145 V 56.790696 h 2.06665 l 3.59493,8.718133 3.61229,-8.718133 h 2.06665 v 11.583656 z"
         style="font-style:normal;font-variant:normal;font-weight:normal;font-stretch:normal;font-family:'Proxima Nova';-inkscape-font-specification:'Proxima Nova';fill:#000000;stroke:none;stroke-width:0.2;stroke-miterlimit:4;stroke-dasharray:none"
         id="path1311" />
      <path
         d="M -120.7894,68.374352 V 56.790696 h 4.6543 q 0.86834,0 1.54565,0.277869 0.6773,0.277868 1.12884,0.764139 0.4689,0.468903 0.71204,1.111475 0.24313,0.625205 0.24313,1.337244 0,0.712038 -0.24313,1.35461 -0.24314,0.625205 -0.71204,1.111475 -0.46891,0.468904 -1.14621,0.746773 -0.67731,0.277868 -1.52828,0.277868 h -3.21286 v 4.602203 z m 4.48063,-5.887346 q 1.04201,0 1.66722,-0.607838 0.64257,-0.607838 0.64257,-1.597745 0,-0.989908 -0.64257,-1.597746 -0.62521,-0.607838 -1.66722,-0.607838 h -3.03919 v 4.411167 z"
         style="font-style:normal;font-variant:normal;font-weight:normal;font-stretch:normal;font-family:'Proxima Nova';-inkscape-font-specification:'Proxima Nova';fill:#000000;stroke:none;stroke-width:0.2;stroke-miterlimit:4;stroke-dasharray:none"
         id="path1313" />
      <path
         d="m -92.136819,68.374352 -1.024641,-2.570287 h -5.765778 l -1.024641,2.570287 h -1.649841 l 4.654298,-11.583656 h 1.78878 l 4.671669,11.583656 z m -3.90753,-10.090111 -2.466085,6.234681 h 4.914804 z"
         style="font-style:normal;font-variant:normal;font-weight:normal;font-stretch:normal;font-family:'Proxima Nova';-inkscape-font-specification:'Proxima Nova';fill:#000000;stroke:none;stroke-width:0.2;stroke-miterlimit:4;stroke-dasharray:none"
         id="path1315" />
      <path
         d="m -69.907244,68.374352 -6.755686,-9.239138 v 9.239138 h -1.441444 V 56.790696 h 1.476178 l 6.668851,9.048103 v -9.048103 h 1.441445 v 11.583656 z"
         style="font-style:normal;font-variant:normal;font-weight:normal;font-stretch:normal;font-family:'Proxima Nova';-inkscape-font-specification:'Proxima Nova';fill:#000000;stroke:none;stroke-width:0.2;stroke-miterlimit:4;stroke-dasharray:none"
         id="path1317" />
      <path
         d="m -51.347825,68.374352 v -4.897438 l -4.567468,-6.686218 h 1.68458 l 3.594927,5.383708 3.594928,-5.383708 h 1.68458 l -4.550102,6.686218 v 4.897438 z"
         style="font-style:normal;font-variant:normal;font-weight:normal;font-stretch:normal;font-family:'Proxima Nova';-inkscape-font-specification:'Proxima Nova';fill:#000000;stroke:none;stroke-width:0.2;stroke-miterlimit:4;stroke-dasharray:none"
         id="path1319" />
    </g>
    <g
       aria-label="BUSINESS"
       id="text1223"
       style="font-style:normal;font-variant:normal;font-weight:normal;font-stretch:normal;font-size:46.6427px;line-height:1.25;font-family:'Proxima Nova';-inkscape-font-specification:'Proxima Nova';letter-spacing:0px;fill:#000000;fill-opacity:1;stroke:none;stroke-width:0.2;stroke-miterlimit:4;stroke-dasharray:none"
       transform="matrix(0.22670813,0,0,0.22670813,141.20916,3.0352111)">
      <path
         d="M -442.97994,45.240986 V 14.130305 h 13.85288 q 2.00564,0 3.63813,0.606355 1.6325,0.559712 2.75192,1.632494 1.11942,1.02614 1.72578,2.518706 0.60636,1.445924 0.60636,3.171704 0,1.492566 -0.46643,2.705276 -0.41979,1.212711 -1.21271,2.145565 -0.74629,0.886211 -1.72578,1.492566 -0.9795,0.559713 -2.05228,0.792926 1.25935,0.186571 2.33213,0.886211 1.11943,0.699641 1.91235,1.72578 0.83957,1.02614 1.306,2.332135 0.51307,1.305996 0.51307,2.705277 0,1.865708 -0.60635,3.404917 -0.60636,1.539209 -1.77243,2.658634 -1.16607,1.119425 -2.8452,1.72578 -1.6325,0.606355 -3.77806,0.606355 z m 13.19988,-17.630941 q 2.65864,0 4.01127,-1.399281 1.35264,-1.445924 1.35264,-3.591488 0,-2.098921 -1.35264,-3.544845 -1.35263,-1.492566 -4.01127,-1.492566 h -9.32854 v 10.02818 z m 0.18657,14.179381 q 2.75192,0 4.24449,-1.399281 1.53921,-1.445924 1.53921,-3.964629 0,-1.072783 -0.37314,-2.052279 -0.37315,-0.979497 -1.11943,-1.679137 -0.69964,-0.746284 -1.77242,-1.166068 -1.07278,-0.466427 -2.51871,-0.466427 h -9.51511 v 10.727821 z"
         style="font-style:normal;font-variant:normal;font-weight:normal;font-stretch:normal;font-family:'Proxima Nova';-inkscape-font-specification:'Proxima Nova';fill:#000000;stroke:none;stroke-width:0.2;stroke-miterlimit:4;stroke-dasharray:none"
         id="path1259" />
      <path
         d="m -397.90488,45.800698 q -3.17171,0 -5.55048,-0.886211 -2.37878,-0.932854 -3.96463,-2.565349 -1.58586,-1.632494 -2.37878,-3.964629 -0.79293,-2.332135 -0.79293,-5.223982 V 14.130305 h 3.87135 v 18.936936 q 0,4.291129 2.23885,6.809834 2.23885,2.472063 6.57662,2.472063 4.33777,0 6.57662,-2.472063 2.23885,-2.518705 2.23885,-6.809834 V 14.130305 h 3.87134 v 18.983579 q 0,2.891847 -0.79292,5.270625 -0.79293,2.332135 -2.37878,4.011272 -1.58585,1.632495 -3.96463,2.518706 -2.37878,0.886211 -5.55048,0.886211 z"
         style="font-style:normal;font-variant:normal;font-weight:normal;font-stretch:normal;font-family:'Proxima Nova';-inkscape-font-specification:'Proxima Nova';fill:#000000;stroke:none;stroke-width:0.2;stroke-miterlimit:4;stroke-dasharray:none"
         id="path1261" />
      <path
         d="m -364.26703,45.800698 q -4.10456,0 -7.04305,-1.352638 -2.93849,-1.399281 -4.89749,-3.591488 l 2.2855,-2.93849 q 0.74628,0.839569 1.77242,1.679137 1.02614,0.792926 2.23885,1.399281 1.25935,0.606355 2.70528,0.979497 1.44592,0.373141 3.07841,0.373141 2.09893,0 3.49821,-0.513069 1.39928,-0.51307 2.23885,-1.259353 0.83956,-0.792926 1.21271,-1.72578 0.37314,-0.979497 0.37314,-1.865708 0,-1.492566 -0.79293,-2.472063 -0.79292,-0.979497 -2.09892,-1.632495 -1.25935,-0.69964 -2.93849,-1.119424 -1.63249,-0.466427 -3.40492,-0.932854 -1.72578,-0.51307 -3.40491,-1.119425 -1.6325,-0.606355 -2.93849,-1.539209 -1.25936,-0.979497 -2.05228,-2.378778 -0.79293,-1.399281 -0.79293,-3.498203 0,-1.91235 0.79293,-3.498202 0.83957,-1.585852 2.23885,-2.705277 1.44592,-1.166067 3.40491,-1.772422 1.959,-0.652998 4.24449,-0.652998 3.59149,0 6.34341,1.119425 2.75192,1.119424 4.71091,3.218346 l -2.33214,2.845205 q -1.77242,-1.958994 -4.10455,-2.845205 -2.33214,-0.886211 -4.89749,-0.886211 -2.79856,0 -4.61762,1.352638 -1.77243,1.352638 -1.77243,3.591488 0,1.305995 0.79293,2.145564 0.79293,0.839569 2.05228,1.445924 1.30599,0.606355 2.93849,1.072782 1.67914,0.419784 3.40492,0.932854 1.77242,0.466427 3.40491,1.119425 1.67914,0.652998 2.93849,1.679137 1.306,1.026139 2.09892,2.518706 0.79293,1.492566 0.79293,3.684773 0,1.679137 -0.60636,3.358274 -0.60635,1.632495 -2.00563,2.938491 -1.35264,1.259352 -3.54485,2.052278 -2.1922,0.792926 -5.31726,0.792926 z"
         style="font-style:normal;font-variant:normal;font-weight:normal;font-stretch:normal;font-family:'Proxima Nova';-inkscape-font-specification:'Proxima Nova';fill:#000000;stroke:none;stroke-width:0.2;stroke-miterlimit:4;stroke-dasharray:none"
         id="path1263" />
      <path
         d="M -343.8493,45.240986 V 14.130305 h 3.87134 v 31.110681 z"
         style="font-style:normal;font-variant:normal;font-weight:normal;font-stretch:normal;font-family:'Proxima Nova';-inkscape-font-specification:'Proxima Nova';fill:#000000;stroke:none;stroke-width:0.2;stroke-miterlimit:4;stroke-dasharray:none"
         id="path1265" />
      <path
         d="m -307.19642,45.240986 -18.14401,-24.813917 v 24.813917 h -3.87135 V 14.130305 h 3.96463 l 17.9108,24.300847 V 14.130305 h 3.87134 v 31.110681 z"
         style="font-style:normal;font-variant:normal;font-weight:normal;font-stretch:normal;font-family:'Proxima Nova';-inkscape-font-specification:'Proxima Nova';fill:#000000;stroke:none;stroke-width:0.2;stroke-miterlimit:4;stroke-dasharray:none"
         id="path1267" />
      <path
         d="M -292.80881,45.240986 V 14.130305 h 20.38286 v 3.45156 h -16.51152 v 10.02818 h 16.18502 v 3.45156 h -16.18502 v 10.727821 h 16.51152 v 3.45156 z"
         style="font-style:normal;font-variant:normal;font-weight:normal;font-stretch:normal;font-family:'Proxima Nova';-inkscape-font-specification:'Proxima Nova';fill:#000000;stroke:none;stroke-width:0.2;stroke-miterlimit:4;stroke-dasharray:none"
         id="path1269" />
      <path
         d="m -252.37437,45.800698 q -4.10456,0 -7.04305,-1.352638 -2.93849,-1.399281 -4.89748,-3.591488 l 2.28549,-2.93849 q 0.74628,0.839569 1.77242,1.679137 1.02614,0.792926 2.23885,1.399281 1.25935,0.606355 2.70528,0.979497 1.44592,0.373141 3.07842,0.373141 2.09892,0 3.4982,-0.513069 1.39928,-0.51307 2.23885,-1.259353 0.83957,-0.792926 1.21271,-1.72578 0.37314,-0.979497 0.37314,-1.865708 0,-1.492566 -0.79293,-2.472063 -0.79292,-0.979497 -2.09892,-1.632495 -1.25935,-0.69964 -2.93849,-1.119424 -1.63249,-0.466427 -3.40491,-0.932854 -1.72578,-0.51307 -3.40492,-1.119425 -1.6325,-0.606355 -2.93849,-1.539209 -1.25935,-0.979497 -2.05228,-2.378778 -0.79293,-1.399281 -0.79293,-3.498203 0,-1.91235 0.79293,-3.498202 0.83957,-1.585852 2.23885,-2.705277 1.44592,-1.166067 3.40492,-1.772422 1.95899,-0.652998 4.24448,-0.652998 3.59149,0 6.34341,1.119425 2.75192,1.119424 4.71091,3.218346 l -2.33213,2.845205 q -1.77243,-1.958994 -4.10456,-2.845205 -2.33214,-0.886211 -4.89748,-0.886211 -2.79857,0 -4.61763,1.352638 -1.77242,1.352638 -1.77242,3.591488 0,1.305995 0.79292,2.145564 0.79293,0.839569 2.05228,1.445924 1.306,0.606355 2.93849,1.072782 1.67914,0.419784 3.40492,0.932854 1.77242,0.466427 3.40491,1.119425 1.67914,0.652998 2.93849,1.679137 1.306,1.026139 2.09893,2.518706 0.79292,1.492566 0.79292,3.684773 0,1.679137 -0.60635,3.358274 -0.60636,1.632495 -2.00564,2.938491 -1.35264,1.259352 -3.54484,2.052278 -2.19221,0.792926 -5.31727,0.792926 z"
         style="font-style:normal;font-variant:normal;font-weight:normal;font-stretch:normal;font-family:'Proxima Nova';-inkscape-font-specification:'Proxima Nova';fill:#000000;stroke:none;stroke-width:0.2;stroke-miterlimit:4;stroke-dasharray:none"
         id="path1271" />
      <path
         d="m -222.09183,45.800698 q -4.10455,0 -7.04304,-1.352638 -2.93849,-1.399281 -4.89749,-3.591488 l 2.2855,-2.93849 q 0.74628,0.839569 1.77242,1.679137 1.02614,0.792926 2.23885,1.399281 1.25935,0.606355 2.70527,0.979497 1.44593,0.373141 3.07842,0.373141 2.09892,0 3.49821,-0.513069 1.39928,-0.51307 2.23885,-1.259353 0.83956,-0.792926 1.21271,-1.72578 0.37314,-0.979497 0.37314,-1.865708 0,-1.492566 -0.79293,-2.472063 -0.79292,-0.979497 -2.09892,-1.632495 -1.25935,-0.69964 -2.93849,-1.119424 -1.6325,-0.466427 -3.40492,-0.932854 -1.72578,-0.51307 -3.40491,-1.119425 -1.6325,-0.606355 -2.9385,-1.539209 -1.25935,-0.979497 -2.05227,-2.378778 -0.79293,-1.399281 -0.79293,-3.498203 0,-1.91235 0.79293,-3.498202 0.83956,-1.585852 2.23885,-2.705277 1.44592,-1.166067 3.40491,-1.772422 1.959,-0.652998 4.24449,-0.652998 3.59149,0 6.34341,1.119425 2.75192,1.119424 4.71091,3.218346 l -2.33214,2.845205 q -1.77242,-1.958994 -4.10455,-2.845205 -2.33214,-0.886211 -4.89749,-0.886211 -2.79856,0 -4.61762,1.352638 -1.77243,1.352638 -1.77243,3.591488 0,1.305995 0.79293,2.145564 0.79292,0.839569 2.05228,1.445924 1.30599,0.606355 2.93849,1.072782 1.67913,0.419784 3.40491,0.932854 1.77243,0.466427 3.40492,1.119425 1.67914,0.652998 2.93849,1.679137 1.306,1.026139 2.09892,2.518706 0.79293,1.492566 0.79293,3.684773 0,1.679137 -0.60636,3.358274 -0.60635,1.632495 -2.00563,2.938491 -1.35264,1.259352 -3.54485,2.052278 -2.1922,0.792926 -5.31727,0.792926 z"
         style="font-style:normal;font-variant:normal;font-weight:normal;font-stretch:normal;font-family:'Proxima Nova';-inkscape-font-specification:'Proxima Nova';fill:#000000;stroke:none;stroke-width:0.2;stroke-miterlimit:4;stroke-dasharray:none"
         id="path1273" />
    </g>
    <path
       style="fill:#f9ef07;fill-opacity:1;stroke:none;stroke-width:0.0599831px;stroke-linecap:butt;stroke-linejoin:miter;stroke-opacity:1"
       d="M 0.4960938,0.62838552 27.870922,10.908005 c 1.944703,0.730262 9.11889,2.654664 8.682566,9.477344 -2.167922,-5.436554 -7.235868,-7.034441 -8.757545,-7.467907 L 5.2122735,6.4842445 C 2.4798149,5.7058748 1.1127422,3.1566181 0.4960938,0.62838552 Z"
       id="path1253"
       sodipodi:nodetypes="cscssc" />
    <path
       style="fill:#000000;stroke:none;stroke-width:0.0599831px;stroke-linecap:butt;stroke-linejoin:miter;stroke-opacity:1"
       d="M 4.7773952,9.1534967 26.146406,14.087114 c 2.201145,0.508195 3.738403,0.781634 5.608428,2.279361 L 9.7260074,13.322328 C 5.9000062,12.793616 5.2895583,10.625936 4.7773952,9.1534967 Z"
       id="path1255"
       sodipodi:nodetypes="cscsc" />
    <path
       style="fill:#000000;stroke:none;stroke-width:0.0599831px;stroke-linecap:butt;stroke-linejoin:miter;stroke-opacity:1"
       d="m 9.0062091,15.684167 c 0.933872,1.687852 2.1212829,3.0299 4.2063219,3.029151 l 20.87415,-0.0075 c -1.103946,-0.677228 -2.723875,-1.21046 -5.540948,-1.409605 z"
       id="path1257"
       sodipodi:nodetypes="csccc" />
  </g>
</svg>
