<?xml version="1.0" encoding="UTF-8" standalone="no"?>
<!-- Created with Inkscape (http://www.inkscape.org/) -->

<svg
   width="433.14938mm"
   height="126.02104mm"
   viewBox="0 0 433.14938 126.02104"
   version="1.1"
   id="svg1"
   inkscape:version="1.4 (86a8ad7, 2024-10-11)"
   sodipodi:docname="Buzz logo.svg"
   xmlns:inkscape="http://www.inkscape.org/namespaces/inkscape"
   xmlns:sodipodi="http://sodipodi.sourceforge.net/DTD/sodipodi-0.dtd"
   xmlns="http://www.w3.org/2000/svg"
   xmlns:svg="http://www.w3.org/2000/svg">
  <sodipodi:namedview
     id="namedview1"
     pagecolor="#ffffff"
     bordercolor="#000000"
     borderopacity="0.25"
     inkscape:showpageshadow="2"
     inkscape:pageopacity="0.0"
     inkscape:pagecheckerboard="0"
     inkscape:deskcolor="#d1d1d1"
     inkscape:document-units="mm"
     inkscape:zoom="0.49323376"
     inkscape:cx="966.07336"
     inkscape:cy="284.85479"
     inkscape:window-width="1920"
     inkscape:window-height="1001"
     inkscape:window-x="-9"
     inkscape:window-y="-9"
     inkscape:window-maximized="1"
     inkscape:current-layer="layer1" />
  <defs
     id="defs1" />
  <g
     inkscape:label="Layer 1"
     inkscape:groupmode="layer"
     id="layer1"
     transform="translate(62.177085,-76.199999)">
    <g
       id="g14"
       transform="matrix(0.26458333,0,0,0.26458333,-229.235,48.286458)">
    <g
   id="g4">
     <g
   id="g2">
      <path
   class="st0"
   d="m 651.4,554.7 77.5,-432.6 h 199.2 c 15.2,0 30.7,1.7 45.8,4.9 15.9,3.3 30.5,9.2 43.5,17 13.5,8.2 24.7,19.2 33.2,32.5 8.8,13.8 13.2,30.5 13.2,49.9 0,31.6 -9.2,58 -27.4,78.2 -8.8,9.8 -18.7,18 -29.8,24.7 7.1,4.7 13.5,10.4 19.1,17.1 7.5,8.8 13.5,19.1 17.8,30.7 4.3,11.6 6.4,24.4 6.4,37.9 0,23 -5,43.8 -15,61.6 -9.8,17.7 -23.7,32.6 -41.4,44.3 -17,11.3 -37.3,19.9 -60.5,25.6 -22.6,5.6 -47.4,8.4 -73.7,8.4 H 651.4 Z M 846.3,420 c 6.5,0 12.8,-0.4 18.9,-1.3 5.2,-0.7 9.6,-2 13.1,-3.6 2.6,-1.3 4.5,-2.8 5.9,-4.7 1,-1.4 1.5,-3.9 1.5,-7 0,-3.5 -1,-4.9 -3.1,-6.3 -2.2,-1.5 -7.9,-4.2 -20.3,-4.2 h -24.9 l -4.9,27 h 13.8 z m 28,-141.6 c 4.2,0 8.4,-0.3 12.7,-1 3.2,-0.4 6,-1.4 8.5,-2.6 1.8,-1 3.2,-2.2 4.5,-4 0.3,-0.4 1.1,-2.1 1.1,-6.4 0,-3.2 -0.7,-3.5 -1.8,-4.2 -4.6,-2.5 -11,-3.8 -19.2,-3.8 H 861 l -3.6,21.9 h 17 v 0.1 z"
   id="path1"
   style="fill:#fcd000">
      </path>

     </g>

     <g
   id="g3">
      <path
   d="m 928.1,138.8 c 14.1,0 28.3,1.5 42.4,4.5 14.1,3.1 26.9,7.9 38.3,14.9 11.4,7 20.6,16 27.7,27.2 7.1,11.1 10.6,24.8 10.6,41 0,27.4 -7.7,49.7 -23.1,66.9 -15.5,17.1 -35,28.8 -58.7,35.3 v 1.1 c 9.2,1.8 17.8,5 26.1,9.6 8.2,4.5 15.5,10.4 21.7,17.7 6.3,7.4 11.3,15.9 14.9,25.6 3.6,9.8 5.4,20.5 5.4,32 0,20.2 -4.3,38 -12.8,53.5 -8.6,15.5 -20.6,28.3 -36.1,38.6 -15.5,10.3 -33.9,18.1 -55.2,23.4 -21.3,5.3 -44.6,7.8 -69.8,7.8 h -188 L 743,138.7 H 928.2 M 837.7,295 h 36.6 c 4.9,0 10,-0.4 15.2,-1.1 5.2,-0.7 9.8,-2.2 14.1,-4.6 4.2,-2.2 7.7,-5.4 10.3,-9.3 2.6,-4 4,-9.2 4,-15.7 0,-8.8 -3.5,-15 -10.6,-18.8 -7.1,-3.8 -16.2,-5.7 -27.2,-5.7 H 847 l -9.3,55.2 m -25.1,141.6 h 33.7 c 7.2,0 14.4,-0.4 21.2,-1.4 6.8,-1 12.8,-2.6 18,-5 5.2,-2.4 9.2,-5.9 12.3,-10.2 3.1,-4.3 4.6,-9.9 4.6,-16.6 0,-8.6 -3.5,-15.3 -10.3,-20.1 -6.8,-4.7 -16.7,-7.1 -29.7,-7.1 h -38.9 l -10.9,60.4 M 928.1,105.5 H 742.8 714.9 l -4.9,27.4 -71.6,399.3 -7,39.2 h 39.8 188.1 c 27.7,0 53.9,-2.9 77.7,-8.8 25.1,-6.1 47.2,-15.6 65.8,-28 19.8,-13.2 35.5,-30.1 46.7,-50 11.3,-20.3 17.1,-43.8 17.1,-69.7 0,-15.6 -2.5,-30.2 -7.5,-43.6 -5,-13.5 -12,-25.5 -20.9,-35.8 -1.5,-1.8 -3.1,-3.5 -4.7,-5.2 5.3,-4.5 10.3,-9.3 15,-14.5 21,-23.4 31.8,-53.4 31.8,-89.3 0,-22.6 -5.3,-42.4 -15.7,-58.8 -9.8,-15.5 -22.7,-28.1 -38.6,-37.8 -14.6,-8.9 -30.9,-15.3 -48.6,-19.1 -16.4,-3.5 -33,-5.3 -49.3,-5.3 z"
   id="path2">
      </path>

     </g>

    </g>

    <g
   id="g7">
     <g
   id="g5">
      <path
   class="st0"
   d="m 1243.2,564.9 c -27.3,0 -52.5,-3.1 -75.1,-9.1 -23.1,-6.1 -43.3,-15.2 -60.2,-27 -17.3,-12.1 -30.9,-27.3 -40.5,-44.9 -9.8,-17.8 -14.6,-38.2 -14.6,-60.5 0,-6 0.4,-12.8 1.3,-20.2 0.8,-7.1 1.5,-13.5 2.4,-19.4 l 45.4,-261.9 h 165 l -45.4,250.8 -0.1,0.6 c -0.4,1.7 -0.7,3.5 -0.7,5.4 v 9.1 c 0,8.5 2.5,15.7 7.7,22.2 5.3,6.5 17,7.9 25.9,7.9 9.2,0 16.3,-1.3 21.3,-3.9 5.2,-2.6 9.2,-5.9 12.3,-9.9 3.5,-4.5 5.9,-9.5 7.7,-15 2.1,-7 3.9,-14.1 5.3,-21 l 45.4,-246.2 h 162.3 L 1461.2,394 c -4.5,25.4 -12.3,48.6 -23.1,69.4 -11.1,21.3 -26.1,39.7 -44.3,54.5 -18.1,14.8 -40,26.3 -65.2,34.6 -25,8.3 -53.7,12.4 -85.4,12.4 z"
   id="path3"
   style="fill:#fcd000">
      </path>

     </g>

     <g
   id="g6">
      <path
   d="m 1488.5,138.8 -44,252.7 c -4.2,23.7 -11.3,45.1 -21.5,64.5 -10.2,19.4 -23.4,35.8 -40,49.3 -16.6,13.5 -36.5,24.1 -59.8,31.6 -23.3,7.5 -50,11.3 -80.1,11.3 -25.9,0 -49.6,-2.8 -70.9,-8.5 -21.3,-5.6 -39.7,-13.8 -54.9,-24.5 -15.2,-10.7 -27,-23.8 -35.4,-39.2 -8.4,-15.5 -12.5,-32.9 -12.5,-52.4 0,-5.3 0.4,-11.4 1.1,-18.4 0.7,-7 1.5,-13.2 2.2,-18.9 l 42.9,-247.6 h 131 l -41.8,230.6 c 0,0 -11.8,66.6 49.2,65.5 11.8,0 21.5,-1.8 28.8,-5.6 7.4,-3.8 13.4,-8.6 18,-14.6 4.6,-6 7.9,-12.8 10.3,-20.3 2.2,-7.5 4.2,-15 5.7,-22.6 l 42.9,-233 128.8,0.1 m 39.7,-33.3 h -39.7 -128.6 -27.7 l -5,27.3 -42.8,232.5 c -1.3,6.3 -2.9,12.8 -4.9,19.2 -1.1,3.8 -2.8,7 -4.9,9.8 -1.5,2 -3.6,3.6 -6.5,5.2 -1,0.4 -4.7,2.1 -13.8,2.1 -21.7,0.3 -16.4,-26.2 -16.4,-26.2 l 41.8,-230.6 7.1,-39.3 h -39.8 -131 -28 l -4.7,27.6 -43.3,247.6 -0.1,0.6 -0.1,0.6 c -0.8,5.9 -1.7,12.5 -2.4,19.8 -0.8,7.9 -1.4,15.3 -1.4,22 0,25.1 5.6,48.1 16.6,68.4 10.7,19.9 26.2,36.9 45.6,50.6 18.4,13 40.5,22.9 65.6,29.5 24,6.4 50.7,9.6 79.4,9.6 33.4,0 63.8,-4.3 90.3,-13 27.2,-8.8 50.9,-21.3 70.6,-37.5 20.1,-16.3 36.4,-36.5 48.5,-59.8 11.6,-22.3 19.9,-47.2 24.7,-74.1 l 44,-252.7 z"
   id="path4">
      </path>

     </g>

    </g>

    <g
   id="g10">
     <g
   id="g8">
      <polygon
   class="st0"
   points="1835,410.4 1809,554.7 1442.3,554.7 1466.2,420.4 1629,263.8 1500.6,263.8 1526,122.2 1881.9,122.2 1860.3,241.8 1686.8,410.4 "
   id="polygon6"
   style="fill:#fcd000">
      </polygon>

     </g>

     <g
   id="g9">
      <path
   d="m 1861.9,138.8 -17.1,94.7 -199,193.4 h 169.3 L 1795,538 h -332.9 l 19.5,-109.4 188.7,-181.5 H 1520.5 L 1540,138.8 h 321.9 m 40,-33.3 h -40 -322 -27.9 l -4.9,27.4 -19.5,108.3 -7.1,39.3 h 39.8 67.2 l -129.2,124.3 -7.8,7.5 -2,10.7 -19.5,109.4 -7,39.2 h 39.8 333 27.9 l 4.9,-27.4 20.1,-111 7.1,-39.3 h -39.8 -87.2 l 140.2,-136.1 7.7,-7.4 2,-10.4 17.1,-94.7 z"
   id="path7">
      </path>

     </g>

    </g>

    <g
   id="g13">
     <g
   id="g11">
      <polygon
   class="st0"
   points="2201.6,410.4 2175.6,554.7 1808.8,554.7 1832.8,420.4 1995.5,263.8 1867.2,263.8 1892.6,122.2 2248.4,122.2 2226.8,241.8 2053.4,410.4 "
   id="polygon9"
   style="fill:#fcd000">
      </polygon>

     </g>

     <g
   id="g12">
      <path
   d="m 2228.5,138.8 -17.1,94.7 -199,193.5 h 169.3 l -20.1,111 h -332.9 l 19.5,-109.4 188.7,-181.5 h -149.8 l 19.5,-108.3 h 321.9 m 40,-33.3 h -39.8 -322.1 -27.9 l -4.9,27.4 -19.5,108.3 -7.1,39.3 h 39.8 67.2 l -129.2,124.3 -7.8,7.5 -2,10.7 -19.5,109.4 -7,39.2 h 39.8 332.9 27.9 l 4.9,-27.4 20.1,-111 7.1,-39.3 h -39.8 -87.1 l 140.2,-136.1 7.7,-7.4 2,-10.4 17.1,-94.7 z"
   id="path10">
      </path>

     </g>

    </g>

   </g>
  </g>
</svg>
