<?xml version="1.0" encoding="UTF-8"?>
<svg version="1.1" xmlns="http://www.w3.org/2000/svg" width="317px" height="64px">

<path d="M46.261,7.173h2.531l4.458,16.348l-3.27,0.914c-1.758-3.773-3.094-6.305-4.008-7.594c-1.5-2.086-3.37-3.738-5.607-4.957 c-2.238-1.218-4.706-1.828-7.4-1.828c-3.164,0-6.077,0.851-8.736,2.551c-2.66,1.701-4.816,4.193-6.469,7.477 s-2.479,6.979-2.479,11.083c0,4.222,0.838,7.987,2.514,11.294c1.675,3.308,3.943,5.853,6.803,7.635 c2.859,1.783,5.941,2.674,9.246,2.674c3.117,0,6.305-0.894,9.563-2.681c3.257-1.788,6.082-4.292,8.473-7.514l2.813,1.934 c-1.454,2.157-3.023,3.985-4.711,5.484c-2.672,2.414-5.449,4.196-8.332,5.344s-6.047,1.723-9.492,1.723 c-7.617,0-13.805-2.824-18.563-8.473C9.656,43.9,7.687,38.322,7.687,31.853c0-4.758,1.09-9.064,3.27-12.92 c2.18-3.855,5.186-6.92,9.018-9.193c3.832-2.273,7.963-3.41,12.393-3.41c2.367,0,4.564,0.322,6.592,0.967 c2.027,0.645,4.083,1.682,6.17,3.111L46.261,7.173z"/>
<path d="M84.955,35.861l0.006-3.832c0-2.602-0.729-4.459-2.185-5.572c-1.457-1.113-3.511-1.67-6.166-1.67 c-1.315,0-2.466,0.158-3.453,0.475c-0.986,0.316-1.78,0.75-2.378,1.301c-0.599,0.551-1.039,1.178-1.321,1.881 c-0.117,0.258-0.399,1.254-0.845,2.988c-0.54,2.109-1.629,3.164-3.27,3.164c-0.938,0-1.693-0.311-2.268-0.932 c-0.575-0.621-0.861-1.459-0.861-2.514c0-1.547,0.574-3.064,1.723-4.553c1.148-1.488,2.9-2.719,5.256-3.691 c2.355-0.972,5.138-1.459,8.35-1.459c3,0,5.566,0.462,7.699,1.387c2.132,0.925,3.703,2.253,4.711,3.986 c0.703,1.194,1.055,3.372,1.055,6.532v13.521c0,1.92,0.058,3.173,0.176,3.758c0.258,1.007,0.708,1.762,1.354,2.265 c0.645,0.503,1.482,0.755,2.514,0.755c1.078,0,2.367-0.248,3.867-0.744v3.063c-1.946,0.563-3.691,0.845-5.238,0.845 c-1.665,0-3.064-0.234-4.201-0.703c-1.137-0.469-2.069-1.154-2.795-2.057c-0.727-0.902-1.195-1.974-1.406-3.217 c-2.813,2.203-5.356,3.75-7.629,4.641c-2.273,0.891-4.57,1.336-6.891,1.336c-3.234,0-5.859-0.879-7.875-2.637 c-2.016-1.758-3.023-3.82-3.023-6.188c0-1.429,0.369-2.789,1.108-4.078c0.74-1.289,1.866-2.426,3.379-3.41s3.889-1.851,7.127-2.602 C74.712,37.15,79.205,36.471,84.955,35.861z M84.936,38.92c-5.44,0.797-8.805,1.348-10.095,1.652 c-2.557,0.586-4.386,1.23-5.488,1.934c-1.103,0.703-1.888,1.459-2.357,2.268s-0.703,1.669-0.703,2.583s0.264,1.799,0.792,2.654 c0.527,0.856,1.272,1.529,2.234,2.021c0.961,0.492,1.981,0.738,3.061,0.738c1.524,0,3.248-0.363,5.171-1.09 c1.923-0.726,4.386-2.144,7.388-4.253L84.936,38.92z"/>
<path d="M101.027,10.513V7.595c3.187-0.234,6.293-1.218,9.316-2.953h2.602v43.277c0,1.828,0.117,2.977,0.352,3.445 c0.304,0.656,0.75,1.137,1.336,1.441c0.585,0.305,1.71,0.457,3.375,0.457h1.125v2.953h-18.105v-2.953h1.828 c1.148,0,2.009-0.175,2.584-0.524c0.574-0.35,0.984-0.827,1.23-1.432s0.369-1.816,0.369-3.634v-37.16H101.027z"/>
<path d="M122.894,27.388V24.4c1.763-0.166,3.302-0.456,4.619-0.871c1.316-0.416,2.821-1.109,4.514-2.082h2.609v5.906 c2.672-2.109,4.758-3.527,6.258-4.254c2.297-1.102,4.488-1.652,6.574-1.652c1.429,0,2.831,0.264,4.202,0.791 s2.472,1.178,3.305,1.951c0.831,0.773,1.54,1.828,2.127,3.164c2.46-2.18,4.74-3.709,6.837-4.588s4.225-1.318,6.381-1.318 c2.063,0,3.885,0.428,5.467,1.283c1.582,0.856,2.73,1.928,3.445,3.217c0.715,1.289,1.072,3.176,1.072,5.66v16.313 c0,1.711,0.035,2.707,0.105,2.988c0.115,0.445,0.367,0.867,0.75,1.266c0.385,0.399,0.822,0.68,1.313,0.844 c0.488,0.164,1.396,0.246,2.725,0.246h1.119v2.953h-17.613v-2.953c2.016-0.023,3.322-0.17,3.92-0.439 c0.598-0.269,1.043-0.708,1.336-1.318c0.293-0.609,0.439-1.805,0.439-3.586V32.416c0-1.969-0.176-3.328-0.529-4.078 c-0.352-0.75-0.98-1.376-1.885-1.881c-0.902-0.504-2.025-0.756-3.363-0.756c-1.668,0-3.418,0.445-5.25,1.336 c-2.443,1.219-4.369,2.59-5.777,4.113v16.77c0,1.617,0.075,2.678,0.228,3.182c0.152,0.504,0.41,0.926,0.773,1.266 c0.363,0.34,0.785,0.575,1.266,0.703c0.48,0.129,1.646,0.193,3.498,0.193v2.953h-17.297v-2.953h0.984 c1.383,0,2.361-0.164,2.936-0.492c0.573-0.328,1.024-0.832,1.354-1.512c0.233-0.539,0.352-1.652,0.352-3.34V32.943 c0-2.203-0.171-3.691-0.512-4.465c-0.34-0.773-0.992-1.429-1.955-1.969c-0.963-0.539-2.09-0.809-3.382-0.809 c-1.527,0-3.065,0.375-4.615,1.125c-2.302,1.102-4.416,2.543-6.341,4.324v18.07c0,1.078,0.146,1.869,0.439,2.373 c0.293,0.504,0.756,0.909,1.389,1.213c0.633,0.305,1.5,0.457,2.602,0.457h1.301v2.953h-17.648v-2.953h0.944 c1.607,0,2.667-0.128,3.181-0.387c0.745-0.352,1.281-0.914,1.607-1.688c0.187-0.422,0.28-1.512,0.28-3.27V27.388H122.894z"/>
<path d="M232.738,7.173h5.752l15.262,41.001c0.75,2.059,1.506,3.422,2.268,4.088c0.762,0.667,1.787,1,3.076,1h0.773v2.953h-17.453 v-2.953c0.563-0.047,1.113-0.07,1.652-0.07c1.125,0,1.863-0.117,2.215-0.352c0.68-0.445,1.02-1.007,1.02-1.688 c0-0.492-0.328-1.699-0.984-3.621l-3.244-9.492h-17.768l-3.826,10.617c-0.398,1.102-0.598,1.863-0.598,2.285 c0,0.469,0.123,0.879,0.369,1.23s0.58,0.615,1.002,0.791s1.102,0.264,2.039,0.264c0.633,0,1.148,0.012,1.547,0.035v2.953h-14.66 v-2.953c1.359,0,2.338-0.135,2.936-0.404c0.598-0.269,1.119-0.703,1.564-1.301s1.031-1.857,1.758-3.779L232.738,7.173z  M226.546,34.595h15.145l-7.545-21.094L226.546,34.595z"/>
<path d="M262.394,27.318V24.4c1.945-0.231,3.58-0.555,4.904-0.972s2.83-1.077,4.518-1.981h2.566v28.195 c0,0.984,0.141,1.723,0.422,2.215s0.674,0.85,1.178,1.072c0.504,0.223,1.424,0.334,2.76,0.334h1.652v2.953h-18v-2.953h1.441 c1.57,0,2.625-0.141,3.164-0.422s0.92-0.68,1.143-1.195c0.223-0.515,0.334-1.723,0.334-3.621V27.318H262.394z M271.324,5.591 c1.125,0,2.086,0.393,2.883,1.178c0.797,0.786,1.195,1.74,1.195,2.865s-0.398,2.086-1.195,2.883 c-0.797,0.797-1.758,1.195-2.883,1.195s-2.086-0.398-2.883-1.195c-0.797-0.796-1.195-1.758-1.195-2.883s0.398-2.08,1.195-2.865 C269.238,5.984,270.199,5.591,271.324,5.591z"/>
<path d="M284.226,27.318V24.4c1.707-0.139,3.225-0.422,4.557-0.851c1.332-0.428,2.852-1.129,4.557-2.102h2.629v6.645 c1.664-2.039,3.598-3.656,5.801-4.852s4.184-1.793,5.941-1.793c1.734,0,3.105,0.41,4.113,1.23c1.008,0.821,1.512,1.816,1.512,2.988 c0,0.844-0.334,1.588-1.002,2.232c-0.668,0.645-1.471,0.967-2.408,0.967c-0.422,0-0.785-0.058-1.09-0.176 c-0.305-0.117-0.75-0.375-1.336-0.773c-1.289-0.844-2.367-1.266-3.234-1.266c-1.172,0-2.461,0.492-3.867,1.477 c-1.781,1.266-3.176,2.508-4.184,3.727V48.06c0,1.406,0.076,2.361,0.229,2.865c0.152,0.504,0.404,0.938,0.756,1.301 c0.352,0.364,0.785,0.627,1.301,0.791c0.516,0.164,1.418,0.246,2.707,0.246h1.16v2.953h-18.176v-2.953h1.512 c1.43,0,2.367-0.128,2.813-0.387c0.609-0.352,1.061-0.838,1.354-1.459c0.293-0.621,0.439-1.74,0.439-3.357V27.318H284.226z"/>

</svg>