<?xml version="1.0" encoding="utf-8"?>
<!-- Generator: Adobe Illustrator 12.0.0, SVG Export Plug-In . SVG Version: 6.00 Build 51448)  -->
<!DOCTYPE svg PUBLIC "-//W3C//DTD SVG 1.1//EN" "http://www.w3.org/Graphics/SVG/1.1/DTD/svg11.dtd" [
	<!ENTITY ns_svg "http://www.w3.org/2000/svg">
	<!ENTITY ns_xlink "http://www.w3.org/1999/xlink">
]>
<svg  version="1.1" xmlns="&ns_svg;" xmlns:xlink="&ns_xlink;" width="1359.935" height="499.036" viewBox="0 0 1359.935 499.036"
	 overflow="visible" enable-background="new 0 0 1359.935 499.036" xml:space="preserve">
<g id="Layer_7">
</g>
<g id="Layer_2">
</g>
<g id="Layer_4">
</g>
<g id="Layer_3">
</g>
<g id="Layer_5">
</g>
<g id="Layer_6">
	<g>
		<path fill="#4E484D" d="M395.721,351.618c-1.898-2.762-4.574-5.051-8.027-6.863s-7.168-2.719-11.137-2.719
			c-9.844,0-17.488,2.926-22.926,8.777s-8.156,13.512-8.156,22.973c0,9.465,2.719,17.121,8.156,22.973s13.082,8.777,22.926,8.777
			c4.313,0,8.023-0.949,11.133-2.848s5.785-4.145,8.031-6.738l25.641,26.969c-6.043,6.23-13.164,10.598-21.367,13.105
			s-16.016,3.762-23.438,3.762c-9.672,0-18.777-1.555-27.316-4.656c-8.539-3.105-15.953-7.551-22.238-13.332
			s-11.234-12.727-14.852-20.836s-5.426-17.168-5.426-27.176s1.809-19.066,5.426-27.176s8.566-15.055,14.852-20.836
			s13.699-10.223,22.238-13.328s17.645-4.66,27.316-4.66c7.422,0,15.234,1.254,23.438,3.762s15.324,6.879,21.367,13.105
			L395.721,351.618z"/>
		<path fill="#4E484D" d="M514.311,420.821h-0.523c-4.32,6.758-10.063,11.605-17.23,14.551c-7.172,2.941-14.727,4.414-22.672,4.414
			c-5.875,0-11.531-0.82-16.973-2.457s-10.234-4.094-14.379-7.367c-4.148-3.273-7.43-7.324-9.848-12.152s-3.625-10.43-3.625-16.809
			c0-7.238,1.336-13.355,4.016-18.355c2.676-5,6.305-9.137,10.883-12.414c4.578-3.273,9.801-5.816,15.676-7.629
			c5.875-1.809,11.965-3.145,18.27-4.008c6.305-0.859,12.609-1.379,18.914-1.551s12.137-0.258,17.492-0.258
			c0-6.895-2.461-12.367-7.383-16.422c-4.922-4.051-10.746-6.078-17.48-6.078c-6.391,0-12.219,1.34-17.484,4.016
			s-9.973,6.344-14.113,11.004l-20.723-21.254c7.25-6.754,15.711-11.82,25.383-15.199c9.668-3.375,19.684-5.066,30.043-5.066
			c11.395,0,20.762,1.426,28.102,4.273c7.34,2.852,13.211,7.039,17.617,12.563c4.406,5.527,7.473,12.305,9.199,20.336
			s2.59,17.316,2.59,27.848v63.98h-35.75V420.821z M504.709,381.536c-2.941,0-6.617,0.129-11.027,0.387s-8.648,0.992-12.711,2.195
			c-4.066,1.203-7.527,3.012-10.379,5.422c-2.855,2.41-4.281,5.766-4.281,10.066c0,4.648,1.988,8.09,5.965,10.324
			c3.977,2.238,8.129,3.355,12.457,3.355c3.805,0,7.477-0.516,11.023-1.547s6.703-2.496,9.473-4.391
			c2.766-1.891,4.973-4.301,6.617-7.227c1.641-2.926,2.465-6.367,2.465-10.324v-8.262H504.709z"/>
		<path fill="#4E484D" d="M567.916,310.786h37.25v17.25l0.5-0.012c1.211-2.422,2.938-4.844,5.188-7.266
			c2.246-2.422,4.926-4.582,8.039-6.484c3.109-1.902,6.652-3.461,10.629-4.672s8.297-1.816,12.969-1.816
			c9.852,0,17.805,1.512,23.855,4.535s10.762,7.211,14.133,12.563s5.66,11.656,6.871,18.91s1.816,15.109,1.816,23.57v69.422h-38.75
			v-61.613c0-3.625-0.133-7.379-0.391-11.262c-0.262-3.883-1.043-7.461-2.344-10.742c-1.305-3.277-3.301-5.953-5.992-8.023
			s-6.555-3.109-11.586-3.109c-5.035,0-9.113,0.906-12.238,2.719s-5.516,4.23-7.164,7.25s-2.734,6.426-3.254,10.223
			c-0.523,3.797-0.781,7.77-0.781,11.91v62.648h-38.75V310.786z"/>
		<path fill="#4E484D" d="M789.104,420.821h-0.523c-4.32,6.758-10.063,11.605-17.23,14.551c-7.172,2.941-14.727,4.414-22.672,4.414
			c-5.875,0-11.531-0.82-16.973-2.457s-10.234-4.094-14.379-7.367c-4.148-3.273-7.43-7.324-9.848-12.152s-3.625-10.43-3.625-16.809
			c0-7.238,1.336-13.355,4.016-18.355c2.676-5,6.305-9.137,10.883-12.414c4.578-3.273,9.801-5.816,15.676-7.629
			c5.875-1.809,11.965-3.145,18.27-4.008c6.305-0.859,12.609-1.379,18.914-1.551s12.137-0.258,17.492-0.258
			c0-6.895-2.461-12.367-7.383-16.422c-4.922-4.051-10.746-6.078-17.48-6.078c-6.391,0-12.219,1.34-17.484,4.016
			s-9.973,6.344-14.113,11.004l-20.723-21.254c7.25-6.754,15.711-11.82,25.383-15.199c9.668-3.375,19.684-5.066,30.043-5.066
			c11.395,0,20.762,1.426,28.102,4.273c7.34,2.852,13.211,7.039,17.617,12.563c4.406,5.527,7.473,12.305,9.199,20.336
			s2.59,17.316,2.59,27.848v63.98h-35.75V420.821z M779.503,381.536c-2.941,0-6.617,0.129-11.027,0.387s-8.648,0.992-12.711,2.195
			c-4.066,1.203-7.527,3.012-10.379,5.422c-2.855,2.41-4.281,5.766-4.281,10.066c0,4.648,1.988,8.09,5.965,10.324
			c3.977,2.238,8.129,3.355,12.457,3.355c3.805,0,7.477-0.516,11.023-1.547s6.703-2.496,9.473-4.391
			c2.766-1.891,4.973-4.301,6.617-7.227c1.641-2.926,2.465-6.367,2.465-10.324v-8.262H779.503z"/>
		<path fill="#4E484D" d="M842.71,310.786h38.75v20.25l0.516,0.102c4.145-7.781,9.066-13.621,14.766-17.512
			c5.695-3.891,12.863-5.84,21.496-5.84c2.242,0,4.488,0.086,6.734,0.25c2.242,0.168,4.316,0.5,6.215,1v35.531
			c-2.766-0.844-5.484-1.477-8.16-1.898s-5.48-0.633-8.414-0.633c-7.426,0-13.297,1.039-17.613,3.109
			c-4.32,2.07-7.645,4.961-9.973,8.672c-2.332,3.711-3.844,8.152-4.531,13.332c-0.691,5.18-1.035,10.875-1.035,17.086v52.551h-38.75
			V310.786z"/>
		<path fill="#4E484D" d="M1020.618,457.29c-2.59,6.742-5.094,12.703-7.512,17.891c-2.418,5.184-5.484,9.547-9.195,13.094
			c-3.711,3.543-8.418,6.223-14.113,8.039c-5.699,1.813-13.211,2.723-22.531,2.723c-10.016,0-19.688-1.559-29.008-4.668l5.18-31.895
			c5.867,2.539,11.91,3.813,18.129,3.813c4.316,0,7.855-0.477,10.617-1.426c2.762-0.953,5.051-2.336,6.863-4.145
			c1.813-1.816,3.324-4.02,4.535-6.609c1.207-2.594,2.5-5.617,3.883-9.07l2.852-7.258l-55.168-126.992h41.957l32.375,83.25
			l0.52-0.016l27.711-83.234h39.887L1020.618,457.29z"/>
		<path fill="#4E484D" d="M1087.267,341.786L1087.267,341.786v-31l0,0v-22.262c0-6.902,0.602-13.418,1.809-19.543
			c1.203-6.125,3.527-11.52,6.973-16.18s8.395-8.328,14.855-11.004c6.457-2.672,14.949-4.012,25.473-4.012
			c3.969,0,7.855,0.176,11.652,0.52c3.797,0.348,7.512,0.953,11.137,1.82l-1.813,33c-2.246-0.863-4.316-1.512-6.215-1.941
			s-4.059-0.648-6.477-0.648c-6.219,0-10.879,1.336-13.984,4c-3.109,2.668-4.66,8.129-4.66,16.383v19.867h28.746v31h-28.746v95
			h-38.75V341.786z"/>
		<path fill="#4E484D" d="M1170.095,241.036h38.75v195.75h-38.75V241.036z"/>
		<path fill="#4E484D" d="M1302.954,457.29c-2.59,6.742-5.094,12.703-7.512,17.891c-2.418,5.184-5.484,9.547-9.195,13.094
			c-3.711,3.543-8.418,6.223-14.113,8.039c-5.699,1.813-13.211,2.723-22.531,2.723c-10.016,0-19.688-1.559-29.008-4.668l5.18-31.895
			c5.867,2.539,11.91,3.813,18.129,3.813c4.316,0,7.855-0.477,10.617-1.426c2.762-0.953,5.051-2.336,6.863-4.145
			c1.813-1.816,3.324-4.02,4.535-6.609c1.207-2.594,2.5-5.617,3.883-9.07l2.852-7.258l-55.168-126.992h41.957l32.375,83.25
			l0.52-0.016l27.711-83.234h39.887L1302.954,457.29z"/>
	</g>
	<circle fill="#2F4A93" cx="82.022" cy="82.023" r="82.022"/>
	<circle fill="#2F4A93" cx="169.484" cy="232.573" r="68.539"/>
	<circle fill="#2F4A93" cx="242.506" cy="104.371" r="59.551"/>
	<circle fill="#2F4A93" cx="347.753" cy="137.078" r="28.09"/>
	<circle fill="#2F4A93" cx="301.596" cy="200.336" r="37.36"/>
	<circle fill="#2F4A93" cx="383.989" cy="182.427" r="18.82"/>
	<circle fill="#2F4A93" cx="415.821" cy="149.842" r="14.326"/>
</g>
</svg>
