<?xml version="1.0" encoding="UTF-8" standalone="no"?>
<!-- Created with Inkscape (http://www.inkscape.org/) -->

<svg
   xmlns:svg="http://www.w3.org/2000/svg"
   xmlns="http://www.w3.org/2000/svg"
   version="1.1"
   width="250"
   height="55"
   id="svg2816"
   xml:space="preserve"><defs
     id="defs2820"><clipPath
       id="clipPath2832"><path
         d="m 0,1224 792,0 L 792,0.25 0,0.25 0,1224 z"
         id="path2834" /></clipPath><clipPath
       id="clipPath2842"><path
         d="m 72.78,1197 575.22,0 0,-801 -575.22,0 0,801 z"
         id="path2844" /></clipPath></defs><g
     transform="matrix(1.25,0,0,-1.25,-1308.6154,841.24764)"
     id="g2826"><g
       transform="matrix(1.220815,0,0,1.220815,-229.16956,-136.98746)"
       id="g2900"><path
         d="m 1162.0638,650.87812 21.78,0 0,-3.715 -21.78,0 0,3.715 z"
         id="path2858"
         style="fill:#999cc1;fill-opacity:1;fill-rule:nonzero;stroke:none" /><path
         d="m 1162.0638,646.40412 21.78,0 0,-3.715 -21.78,0 0,3.715 z"
         id="path2860"
         style="fill:#999cc1;fill-opacity:1;fill-rule:nonzero;stroke:none" /><path
         d="m 1162.0638,641.93012 21.78,0 0,-3.715 -21.78,0 0,3.715 z"
         id="path2862"
         style="fill:#999cc1;fill-opacity:1;fill-rule:nonzero;stroke:none" /><path
         d="m 1162.0638,637.45612 21.78,0 0,-3.715 -21.78,0 0,3.715 z"
         id="path2864"
         style="fill:#999cc1;fill-opacity:1;fill-rule:nonzero;stroke:none" /><path
         d="m 1162.0638,632.98212 21.78,0 0,-3.715 -21.78,0 0,3.715 z"
         id="path2866"
         style="fill:#999cc1;fill-opacity:1;fill-rule:nonzero;stroke:none" /><path
         d="m 1070.6508,659.97212 c 0.992,-0.049 1.537,0.942 1.983,1.636 0.198,0.099 0.495,0.099 0.644,0 0.297,-3.519 0.496,-6.84 0.545,-10.457 -0.198,0.049 -0.545,-0.199 -0.644,0.099 -0.545,3.32 -2.726,6.591 -5.898,7.979 -3.271,1.536 -7.681,0.991 -10.407,-1.338 -4.361,-3.618 -4.758,-9.813 -4.361,-15.165 0.594,-4.263 2.527,-8.822 6.839,-10.556 3.865,-1.636 8.623,-0.694 11.795,1.932 1.09,0.991 1.982,2.082 2.775,3.222 0.198,-0.099 0.446,-0.149 0.545,-0.397 -2.279,-4.46 -6.789,-7.681 -11.894,-7.781 -6.145,-0.247 -11.993,3.816 -14.223,9.317 -2.676,6.096 -1.685,13.877 3.122,18.734 4.014,4.361 10.556,5.749 16.057,3.965 1.09,-0.298 2.082,-0.744 3.122,-1.19"
         id="path2868"
         style="fill:#0f2752;fill-opacity:1;fill-rule:nonzero;stroke:none" /><path
         d="m 1157.3298,659.82312 c 0.397,-0.545 0.397,-1.288 0.248,-1.932 -0.248,-0.744 -0.942,-1.438 -1.735,-1.636 -0.892,-0.148 -1.734,0.198 -2.329,0.892 -0.446,0.744 -0.594,1.933 -0.099,2.676 0.396,0.744 1.14,1.091 1.883,1.19 0.843,0 1.636,-0.446 2.032,-1.19"
         id="path2870"
         style="fill:#0f2752;fill-opacity:1;fill-rule:nonzero;stroke:none" /><path
         d="m 1098.5038,651.49812 c 0.099,-1.438 0.049,-2.726 0.148,-4.213 l 0.149,0 c 1.982,2.428 4.609,4.559 7.929,4.014 1.388,-0.297 2.825,-1.387 3.222,-2.825 0.396,-1.189 0.545,-2.527 0.545,-3.865 l 0.099,-12.439 c 0.149,-0.546 0.446,-1.091 0.991,-1.339 0.694,-0.346 1.487,-0.446 2.329,-0.495 0.1,-0.298 0.05,-0.496 0,-0.744 -3.122,-0.049 -6.541,0 -9.961,-0.049 -0.198,0.248 -0.05,0.595 -0.099,0.793 1.09,0 2.181,0.149 2.627,1.239 l 0.297,1.189 -0.099,12.489 c -0.05,1.14 -0.595,2.28 -1.636,2.875 -1.288,0.693 -2.924,0.247 -3.964,-0.645 -0.843,-0.694 -1.884,-1.685 -2.429,-2.725 0,-4.312 0,-8.525 0.149,-12.787 0.347,-0.892 1.338,-1.536 2.329,-1.586 0.298,0 0.793,0.1 0.942,-0.198 l -0.05,-0.545 c -3.172,-0.149 -6.69,0 -9.812,-0.05 -0.149,0.149 -0.199,0.546 -0.1,0.744 0.248,0.149 0.744,0.049 1.041,0.099 0.595,0.05 1.14,0.496 1.437,0.991 0.397,0.843 0.347,1.784 0.347,2.627 0,3.915 0,8.177 -0.099,12.191 -0.099,0.545 -0.149,1.19 -0.644,1.537 -0.595,0.446 -1.338,0.099 -1.982,0.099 -0.248,0.148 -0.1,0.495 -0.1,0.743 2.082,1.041 4.263,1.933 6.394,2.875"
         id="path2872"
         style="fill:#0f2752;fill-opacity:1;fill-rule:nonzero;stroke:none" /><path
         d="m 1157.3798,651.29912 c 0.148,-1.387 0.049,-3.023 0.099,-4.311 l 0,-14.967 c 0.099,-0.595 0.595,-1.041 1.041,-1.437 0.644,-0.347 1.387,-0.446 2.131,-0.397 0.198,-0.297 0.049,-0.446 0.099,-0.743 -3.568,-0.05 -6.691,-0.149 -10.16,-0.05 -0.099,0.248 -0.099,0.397 -0.049,0.644 0.297,0.248 0.793,0.05 1.139,0.199 0.694,0.049 1.289,0.594 1.636,1.14 l 0.297,0.892 -0.049,13.975 c -0.05,0.595 -0.347,1.14 -0.793,1.537 -0.694,0.446 -1.487,0 -2.181,-0.149 -0.149,0.198 -0.099,0.595 -0.049,0.793 2.23,1.041 4.559,1.982 6.839,2.874"
         id="path2874"
         style="fill:#0f2752;fill-opacity:1;fill-rule:nonzero;stroke:none" /><path
         d="m 1192.4178,650.16012 c 0.099,-1.091 -0.099,-2.231 0.099,-3.271 2.181,2.378 4.758,4.807 8.326,3.964 1.189,-0.446 2.428,-1.189 2.825,-2.478 0.396,-1.189 0.545,-2.478 0.545,-3.816 l 0,-12.687 c 0.099,-0.743 0.595,-1.338 1.289,-1.635 0.545,-0.248 1.288,-0.199 1.932,-0.347 0,-0.198 0.099,-0.942 -0.446,-0.694 -3.023,0 -6.343,0 -9.366,0.099 0,0.297 -0.149,0.496 0.148,0.743 0.942,-0.148 1.834,0.149 2.28,0.942 0.843,1.536 0.297,3.469 0.496,5.154 l 0,8.673 c -0.05,1.14 -0.546,2.329 -1.586,2.924 -1.09,0.644 -2.676,0.446 -3.668,-0.297 -1.09,-0.843 -2.23,-1.784 -2.874,-3.023 l 0.05,-12.787 c 0.297,-0.793 1.139,-1.387 1.932,-1.536 0.496,-0.099 0.992,0.099 1.338,-0.198 0,-0.248 0.1,-0.446 -0.099,-0.595 -3.072,0 -6.343,0 -9.465,0 -0.496,-0.198 -0.347,0.496 -0.347,0.694 0.644,0.149 1.338,0.049 1.883,0.446 0.743,0.545 0.941,1.437 0.892,2.28 0.149,4.361 0.049,9.019 0.099,13.331 -0.099,0.743 -0.297,1.487 -1.14,1.685 -0.545,0.099 -1.09,-0.049 -1.586,-0.149 -0.099,0.248 -0.099,0.595 0.05,0.793 l 6.244,2.825 c 0.298,-0.248 0.149,-0.644 0.149,-1.04"
         id="path2876"
         style="fill:#0f2752;fill-opacity:1;fill-rule:nonzero;stroke:none" /><path
         d="m 1148.2608,660.51712 0.049,-21.409 c 0.1,-1.537 -0.049,-3.915 0.149,-5.6 0.099,-0.446 0.397,-0.892 0.892,-1.091 0.595,-0.198 1.289,0.05 1.883,0.099 0.1,-0.247 0.05,-0.545 -0.099,-0.743 l -6.492,-2.775 -0.248,0.049 c -0.099,0.744 0.099,1.784 -0.099,2.627 l -0.198,0 c -2.032,-1.933 -4.758,-2.924 -7.533,-2.23 -4.064,1.487 -5.749,5.897 -5.848,9.961 0,4.659 2.032,9.416 6.492,11.399 2.181,0.991 5.204,0.842 7.087,-0.644 l 0.149,0.099 -0.05,6.393 c -0.099,0.396 -0.347,0.842 -0.743,1.04 -0.694,0.397 -1.388,-0.099 -2.032,-0.148 -0.05,0.248 -0.198,0.545 0,0.793 l 6.393,2.874 c 0.397,0 0.149,-0.495 0.248,-0.694 z m -6.988,-10.952 c -1.982,0.495 -3.866,-0.545 -4.906,-2.082 -1.983,-3.32 -2.032,-8.326 -0.446,-11.795 0.644,-1.536 2.23,-3.122 4.014,-3.221 1.735,-0.198 3.271,0.347 4.361,1.586 0.198,3.271 0.05,7.186 0.149,10.556 0.049,1.041 -0.198,2.032 -0.595,2.924 -0.496,0.941 -1.536,1.784 -2.577,2.032"
         id="path2878"
         style="fill:#0f2752;fill-opacity:1;fill-rule:nonzero;stroke:none" /><path
         d="m 1088.5918,649.41612 c 0.892,-1.09 1.041,-2.577 0.991,-3.915 l 0,-12.737 c 0.099,-0.347 0.396,-0.545 0.743,-0.694 0.843,-0.049 1.487,0.397 2.082,0.892 0.297,-0.049 0.446,-0.247 0.595,-0.446 -0.694,-1.486 -2.231,-2.775 -3.767,-3.221 -0.892,-0.198 -1.784,-0.049 -2.428,0.595 -0.645,0.644 -0.892,1.586 -0.942,2.478 -0.099,0.198 -0.248,0 -0.347,-0.05 -2.081,-1.833 -4.609,-3.667 -7.533,-2.775 -1.734,0.644 -2.825,2.428 -2.973,4.212 -0.397,2.33 0.743,4.461 2.527,5.799 2.577,1.586 5.352,2.676 8.177,3.717 l 0.199,0.198 c -0.149,2.181 0.594,5.154 -1.685,6.244 -0.793,0.447 -1.983,0.595 -2.875,0.248 -1.041,-0.347 -1.685,-1.437 -1.883,-2.478 0.049,-0.941 0.248,-2.279 -0.496,-3.023 -0.297,-0.396 -0.793,-0.396 -1.239,-0.545 -0.693,0.05 -1.486,0.496 -1.734,1.14 -0.644,1.487 0.148,3.023 1.189,4.113 2.23,2.577 6.046,2.627 9.119,1.784 0.843,-0.346 1.685,-0.743 2.28,-1.536 z m -2.974,-7.731 c -2.478,-1.239 -6.195,-1.933 -6.938,-5.154 -0.198,-1.636 0.248,-3.42 1.784,-4.213 1.982,-0.743 3.915,0.397 5.352,1.735 0,2.18 0.1,4.46 0.05,6.789 -0.099,0.298 0.198,0.843 -0.248,0.843"
         id="path2880"
         style="fill:#0f2752;fill-opacity:1;fill-rule:nonzero;stroke:none" /><path
         d="m 1126.5538,649.36712 c 1.14,-1.586 0.942,-3.866 0.942,-5.7 0,-3.568 -0.05,-7.434 0.049,-10.952 0.099,-0.248 0.347,-0.496 0.644,-0.595 0.843,-0.05 1.636,0.297 2.28,0.892 0.198,-0.198 0.793,-0.446 0.397,-0.793 -1.091,-1.536 -2.726,-3.172 -4.857,-3.023 -0.942,0.149 -1.586,0.892 -1.933,1.735 l -0.297,1.486 -0.099,0.05 c -2.28,-1.834 -5.055,-4.114 -8.128,-2.775 -2.28,1.189 -2.825,3.617 -2.577,5.947 1.189,5.005 6.889,5.798 10.754,7.731 0.149,1.586 0.347,3.519 -0.297,5.005 -0.397,0.892 -1.338,1.586 -2.33,1.735 -1.04,0.248 -2.031,-0.149 -2.824,-0.743 -1.239,-1.091 -0.595,-2.875 -0.992,-4.362 -0.198,-0.495 -0.644,-0.892 -1.139,-1.04 -0.595,-0.1 -1.14,-0.1 -1.586,0.247 -0.793,0.595 -0.942,1.636 -0.843,2.478 0.545,2.33 2.825,4.114 5.154,4.56 2.726,0.396 5.898,0.347 7.682,-1.883 z m -2.974,-7.682 c -1.932,-0.843 -3.964,-1.437 -5.649,-2.924 -1.388,-1.239 -1.636,-3.172 -1.041,-4.807 0.347,-0.843 1.041,-1.636 1.982,-1.834 1.933,-0.347 3.569,0.694 4.857,1.933 0.099,2.329 0.099,5.154 0.05,7.632 l -0.199,0"
         id="path2882"
         style="fill:#0f2752;fill-opacity:1;fill-rule:nonzero;stroke:none" /><path
         d="m 1162.0638,650.87812 11.231,0 10.557,-10.838 -10.805,-10.768 -10.983,0 10.89,10.772 -10.89,10.834"
         id="path2884"
         style="fill:#ed192d;fill-opacity:1;fill-rule:nonzero;stroke:none" /></g></g></svg>