<?xml version="1.0" encoding="utf-8"?>
<!-- Generator: Adobe Illustrator 15.0.0, SVG Export Plug-In . SVG Version: 6.00 Build 0)  -->
<!DOCTYPE svg PUBLIC "-//W3C//DTD SVG 1.1//EN" "http://www.w3.org/Graphics/SVG/1.1/DTD/svg11.dtd">
<svg version="1.1" id="Layer_2" xmlns="http://www.w3.org/2000/svg" xmlns:xlink="http://www.w3.org/1999/xlink" x="0px" y="0px"
	 width="327.667px" height="91.333px" viewBox="0 0 327.667 91.333" enable-background="new 0 0 327.667 91.333"
	 xml:space="preserve">
<g>
	<path d="M46.149,47.276l-1.819,7.578c-0.557,2.375-1.781,3.916-3.676,4.623c-1.895,0.708-5.444,1.061-10.648,1.061
		c-5.709,0-9.903-0.92-12.58-2.765c-2.678-1.845-4.016-5.041-4.016-9.587c0-1.971,0.303-4.61,0.909-7.92
		c0.606-3.308,1.844-7.135,3.713-11.481c1.869-4.345,4.168-7.553,6.896-9.625c2.677-2.02,6.77-3.031,12.277-3.031h13.717
		l-1.364,5.456c-0.354,1.314-0.809,2.224-1.364,2.728c-0.557,0.506-1.618,0.758-3.183,0.758h-7.729
		c-1.112,0-1.946,0.026-2.501,0.075c-0.556,0.051-1.188,0.228-1.895,0.531c-0.708,0.304-1.288,0.784-1.743,1.44
		c-1.77,2.476-3.171,5.684-4.206,9.625c-1.036,3.94-1.554,7.123-1.554,9.547c0,1.818,0.682,3.069,2.046,3.752
		c1.364,0.683,3.233,1.022,5.608,1.022c5.961,0,9.952-1.263,11.974-3.788H46.149z"/>
	<path d="M69.262,52.202l-3.638,6.137c-1.212,1.467-4.017,2.199-8.412,2.199c-3.739,0-6.518-0.67-8.336-2.008
		s-2.728-3.549-2.728-6.631c0-2.627,0.505-5.747,1.516-9.359c1.01-3.612,2.652-6.429,4.926-8.45
		c1.971-1.768,5.355-2.652,10.155-2.652h8.488c1.364,0,2.273-0.201,2.728-0.606c0.556-0.404,0.973-1.11,1.25-2.122
		c0.277-1.01,0.417-1.717,0.417-2.123c0-1.413-1.087-2.122-3.259-2.122H60.396c-2.021,0-3.031-0.707-3.031-2.122
		c0-0.455,0.101-1.035,0.303-1.743l1.061-4.471h20.007c2.677,0,4.824,0.644,6.442,1.932c1.617,1.288,2.425,2.944,2.425,4.964
		c0,0.91-0.227,2.324-0.682,4.244l-6.593,27.509c-0.253,1.113-0.379,1.871-0.379,2.273c0,1.013,0.479,1.566,1.44,1.668l-0.228,1.137
		H70.702c-1.718,0-2.576-0.529-2.576-1.592c0-0.404,0.076-0.909,0.228-1.516l1.061-4.396L69.262,52.202z M62.972,51.064h6.745
		l2.955-12.503h-5.911c-2.981,0-5.028,0.53-6.139,1.591c-1.667,2.173-2.501,4.674-2.501,7.503c0,1.061,0.266,1.855,0.796,2.387
		c0.531,0.531,1.073,0.834,1.629,0.91C61.103,51.026,61.911,51.064,62.972,51.064z"/>
	<path d="M95.407,70.997H84.949c-1.717,0-2.577-0.531-2.577-1.592c0-0.404,0.076-0.91,0.227-1.515l11.292-46.684
		c0.303-1.212,0.455-1.995,0.455-2.349c0-0.959-0.505-1.49-1.516-1.592l0.228-1.136h10.913c1.414,0,2.122,0.581,2.122,1.743
		c0,0.708-0.126,1.39-0.378,2.046l-1.213,3.789l0.151,0.151l2.88-5.001c0.555-1.01,1.023-1.705,1.402-2.084s1.111-0.694,2.198-0.948
		c1.085-0.252,2.715-0.379,4.888-0.379c2.02,0,3.701,0.14,5.04,0.417c1.339,0.278,2.64,0.809,3.903,1.591
		c1.262,0.784,2.198,2.009,2.804,3.676s0.909,3.789,0.909,6.366c0,3.789-0.822,8.488-2.463,14.096
		c-1.641,5.608-4.054,10.206-7.236,13.793c-1.667,1.869-3.398,3.082-5.191,3.638c-1.794,0.558-4.081,0.833-6.859,0.833h-10.99
		l-1.364,6.062c-0.253,1.11-0.379,1.869-0.379,2.273c0,1.01,0.479,1.564,1.44,1.667L95.407,70.997z M102.985,30.224l-4.774,20.157
		h6.593c2.273,0,4.168-0.654,5.684-1.969c1.869-1.718,3.373-4.914,4.509-9.586c1.137-4.673,1.705-7.818,1.705-9.436
		c0-1.616-0.468-2.766-1.402-3.448c-0.936-0.682-2.414-1.023-4.433-1.023c-2.628,0-4.472,0.354-5.533,1.062
		C104.274,26.688,103.49,28.102,102.985,30.224z"/>
	<path d="M125.492,56.749l8.563-35.542c0.353-1.313,0.53-2.146,0.53-2.501c0-0.808-0.53-1.288-1.591-1.44l0.227-1.136h10.913
		c1.414,0,2.122,0.581,2.122,1.743c0,0.354-0.127,1.036-0.379,2.046l-8.337,34.86c-0.303,1.314-0.454,2.072-0.454,2.273
		c0,1.013,0.479,1.566,1.439,1.668l-0.228,1.137h-10.458c-1.717,0-2.577-0.529-2.577-1.592
		C125.265,57.86,125.341,57.354,125.492,56.749z M147.698,12.566h-7.731c-2.121,0-3.183-0.504-3.183-1.515
		c0-0.202,0.076-0.631,0.227-1.289l1.288-5.532h8.641c1.464,0,2.197,0.53,2.197,1.592c0,0.405-0.052,0.859-0.151,1.364
		L147.698,12.566z"/>
	<path d="M162.096,59.855h-13.264c-1.415,0-2.552-0.392-3.409-1.174c-0.86-0.783-1.289-1.806-1.289-3.069
		c0-0.809,0.126-1.718,0.379-2.729l6.973-28.419h-4.093l1.668-7.124c3.231,0,6.176-0.985,8.828-2.956
		c2.652-1.971,4.635-4.218,5.948-6.745h3.334l-2.045,8.488h10.457l-1.516,5.987c-0.15,0.505-0.303,0.896-0.453,1.174
		c-0.152,0.278-0.52,0.543-1.101,0.796c-0.58,0.253-1.353,0.379-2.312,0.379h-3.031c-1.668,0-2.854,0.316-3.562,0.947
		c-0.708,0.632-1.263,1.756-1.667,3.373L157.7,46.062c-0.254,1.163-0.379,1.896-0.379,2.198c0,1.414,1.11,2.121,3.335,2.121
		c1.667,0,2.904-0.01,3.712-0.036c0.809-0.025,1.479-0.202,2.008-0.531c0.531-0.328,0.847-0.58,0.949-0.757
		c0.1-0.178,0.379-0.693,0.832-1.555h1.213l-1.971,8.109c-0.254,1.112-0.506,1.908-0.758,2.387c-0.253,0.481-0.746,0.91-1.477,1.289
		C164.431,59.667,163.409,59.855,162.096,59.855z"/>
	<path d="M193.634,52.202l-3.637,6.137c-1.213,1.467-4.018,2.199-8.412,2.199c-3.738,0-6.518-0.67-8.336-2.008
		s-2.729-3.549-2.729-6.631c0-2.627,0.505-5.747,1.517-9.359c1.01-3.612,2.652-6.429,4.926-8.45
		c1.971-1.768,5.354-2.652,10.156-2.652h8.486c1.363,0,2.273-0.201,2.729-0.606c0.556-0.404,0.973-1.11,1.25-2.122
		c0.277-1.01,0.418-1.717,0.418-2.123c0-1.413-1.088-2.122-3.26-2.122h-11.974c-2.021,0-3.031-0.707-3.031-2.122
		c0-0.455,0.101-1.035,0.304-1.743l1.061-4.471h20.008c2.678,0,4.824,0.644,6.441,1.932c1.615,1.288,2.425,2.944,2.425,4.964
		c0,0.91-0.228,2.324-0.683,4.244l-6.592,27.508c-0.254,1.113-0.38,1.871-0.38,2.274c0,1.012,0.479,1.566,1.44,1.666l-0.229,1.138
		h-10.457c-1.719,0-2.578-0.53-2.578-1.592c0-0.404,0.076-0.909,0.229-1.515l1.061-4.396L193.634,52.202z M187.346,51.064h6.743
		l2.955-12.503h-5.91c-2.981,0-5.027,0.53-6.139,1.591c-1.668,2.173-2.5,4.674-2.5,7.503c0,1.061,0.264,1.855,0.795,2.387
		c0.529,0.531,1.072,0.834,1.629,0.91C185.475,51.026,186.285,51.064,187.346,51.064z"/>
	<path d="M222.811,59.855h-10.458c-1.719,0-2.576-0.53-2.576-1.592c0-0.455,0.075-1.062,0.227-1.819l11.369-47.137l0.529-2.501
		c0-0.808-0.529-1.288-1.591-1.44l0.228-1.137h10.914c1.412,0,2.121,0.582,2.121,1.743c0,0.354-0.128,1.036-0.38,2.046
		l-11.216,46.758c-0.254,1.113-0.379,1.871-0.379,2.273c0,1.013,0.479,1.566,1.439,1.668L222.811,59.855z"/>
</g>
<g>
	<path d="M86.802,89.211h-1.889c-0.35,0-0.524-0.105-0.524-0.315c0-0.104,0.076-0.291,0.227-0.56l6.034-10.512
		c0.21-0.35,0.315-0.611,0.315-0.787c0-0.15-0.152-0.285-0.455-0.402l0.07-0.262h2.098c0.42,0,0.682,0.07,0.787,0.211
		c0.105,0.14,0.163,0.449,0.175,0.926l0.245,10.039c0.011,0.49,0.052,0.812,0.122,0.97c0.07,0.157,0.263,0.301,0.577,0.429
		l-0.07,0.262H93.15c-0.443,0-0.708-0.066-0.796-0.201c-0.087-0.133-0.138-0.457-0.149-0.971l-0.052-2.588h-4.127l-1.347,2.379
		c-0.175,0.303-0.262,0.53-0.262,0.682c0,0.047,0.002,0.085,0.009,0.113c0.005,0.029,0.02,0.059,0.044,0.088
		c0.023,0.029,0.041,0.053,0.052,0.07c0.011,0.016,0.035,0.034,0.07,0.053c0.035,0.017,0.061,0.028,0.078,0.033
		c0.018,0.008,0.05,0.021,0.097,0.045c0.046,0.023,0.075,0.035,0.087,0.035L86.802,89.211z M88.761,84h3.393l-0.087-5.859h-0.035
		L88.761,84z"/>
	<path d="M97.592,89.211h-1.556c-0.595,0-0.892-0.199-0.892-0.596c0-0.046,0.052-0.303,0.157-0.77l2.466-9.896
		c0.082-0.328,0.123-0.537,0.123-0.63c0-0.456-0.233-0.683-0.699-0.683l0.07-0.262h1.557c0.594,0,0.892,0.199,0.892,0.594
		c0,0.035-0.052,0.293-0.157,0.771l-2.466,9.896c-0.082,0.326-0.123,0.537-0.123,0.63c0,0.455,0.233,0.683,0.699,0.683
		L97.592,89.211z"/>
	<path d="M101.544,89.211h-1.556c-0.595,0-0.892-0.199-0.892-0.596c0-0.046,0.052-0.303,0.157-0.77l2.466-9.896
		c0.082-0.328,0.123-0.537,0.123-0.63c0-0.456-0.233-0.683-0.699-0.683l0.07-0.262h4.092c0.478,0,0.872,0.021,1.181,0.062
		c0.309,0.041,0.644,0.133,1.005,0.28c0.361,0.146,0.635,0.39,0.822,0.732c0.187,0.346,0.28,0.785,0.28,1.321
		c0,0.478-0.058,0.962-0.175,1.452s-0.306,0.984-0.568,1.486c-0.263,0.502-0.65,0.91-1.163,1.225s-1.114,0.473-1.801,0.473
		l1.241,3.795c0.082,0.232,0.167,0.385,0.254,0.455c0.087,0.069,0.259,0.104,0.516,0.104h0.437l-0.158,0.631
		c-0.128,0.548-0.344,0.82-0.646,0.82h-0.735c-0.327,0-0.548-0.045-0.665-0.14c-0.117-0.093-0.228-0.302-0.332-0.629l-1.645-5.036
		h-1.066l-1.049,4.25c-0.082,0.326-0.123,0.536-0.123,0.629c0,0.176,0.046,0.312,0.14,0.411c0.094,0.101,0.172,0.157,0.236,0.175
		s0.172,0.043,0.323,0.08L101.544,89.211z M103.485,77.827l-1.032,4.127h1.242c1.026,0,1.688-0.062,1.985-0.185
		c0.297-0.122,0.598-0.499,0.901-1.128c0.093-0.21,0.177-0.525,0.253-0.943c0.076-0.421,0.114-0.73,0.114-0.928
		c0-0.338-0.123-0.58-0.367-0.727c-0.245-0.146-0.653-0.219-1.225-0.219h-1.871V77.827z"/>
	<path d="M113.699,89.211h-4.617c-0.595,0-0.893-0.199-0.893-0.596c0-0.046,0.053-0.303,0.158-0.77l2.466-9.896
		c0.082-0.328,0.122-0.537,0.122-0.63c0-0.456-0.233-0.683-0.699-0.683l0.07-0.262h1.557c0.595,0,0.892,0.199,0.892,0.594
		c0,0.035-0.053,0.293-0.158,0.771l-2.466,10.02h3.568c0.524,0,0.88-0.037,1.066-0.112c0.187-0.075,0.327-0.231,0.42-0.463h0.262
		l-0.315,1.188C114.981,88.932,114.503,89.211,113.699,89.211z"/>
	<path d="M118.42,89.211h-1.556c-0.595,0-0.893-0.199-0.893-0.596c0-0.046,0.053-0.303,0.158-0.77l2.466-9.896
		c0.081-0.328,0.122-0.537,0.122-0.63c0-0.456-0.233-0.683-0.699-0.683l0.07-0.262h1.557c0.595,0,0.892,0.199,0.892,0.594
		c0,0.035-0.052,0.293-0.157,0.771l-2.466,9.896c-0.082,0.326-0.123,0.537-0.123,0.63c0,0.455,0.233,0.683,0.699,0.683
		L118.42,89.211z"/>
	<path d="M128.301,89.211h-1.189c-0.419,0-0.679-0.045-0.777-0.133c-0.099-0.086-0.208-0.352-0.324-0.795l-2.344-9.006h-0.035
		l-2.063,8.359c-0.07,0.279-0.106,0.49-0.106,0.63c0,0.455,0.239,0.683,0.717,0.683l-0.07,0.262h-1.452
		c-0.594,0-0.892-0.199-0.892-0.596c0-0.046,0.053-0.303,0.158-0.77l2.466-9.896c0.082-0.328,0.122-0.537,0.122-0.63
		c0-0.456-0.232-0.683-0.699-0.683l0.07-0.262h1.732c0.454,0,0.734,0.051,0.839,0.158c0.104,0.104,0.215,0.366,0.332,0.787
		l2.448,9.182h0.036l2.116-8.551c0.081-0.328,0.122-0.537,0.122-0.629c0-0.457-0.232-0.684-0.699-0.684l0.07-0.262h1.557
		c0.595,0,0.892,0.199,0.892,0.595c0,0.034-0.052,0.292-0.157,0.771L128.301,89.211z"/>
	<path d="M136.276,89.211h-4.757c-0.594,0-0.892-0.199-0.892-0.596c0-0.046,0.052-0.303,0.158-0.77l2.466-9.896
		c0.082-0.328,0.122-0.537,0.122-0.63c0-0.456-0.232-0.683-0.699-0.683l0.07-0.262h7.258l-0.192,0.75
		c-0.059,0.234-0.144,0.4-0.254,0.5c-0.111,0.1-0.228,0.158-0.35,0.174c-0.122,0.019-0.342,0.027-0.656,0.027h-3.533l-0.875,3.48
		h4.268l-0.193,0.77c-0.059,0.223-0.137,0.383-0.237,0.481c-0.099,0.099-0.203,0.157-0.314,0.175s-0.312,0.025-0.603,0.025h-3.288
		l-1.224,5.003h3.655c0.501,0,0.831-0.032,0.988-0.097c0.157-0.063,0.312-0.225,0.462-0.479h0.28l-0.367,1.364
		c-0.082,0.314-0.201,0.504-0.358,0.568C137.054,89.179,136.742,89.211,136.276,89.211z"/>
	<path d="M142.117,89.211h-2.728c-0.222,0-0.394-0.006-0.516-0.019c-0.123-0.011-0.246-0.063-0.368-0.157
		c-0.123-0.094-0.184-0.227-0.184-0.402c0-0.082,0.029-0.25,0.088-0.506l0.244-0.998h0.263c0.035,0.293,0.225,0.47,0.569,0.533
		c0.343,0.064,1.111,0.096,2.299,0.096c0.28,0,0.505-0.006,0.674-0.016c0.169-0.013,0.408-0.068,0.718-0.166
		c0.308-0.1,0.553-0.24,0.733-0.42c0.181-0.182,0.344-0.464,0.489-0.85c0.146-0.385,0.22-0.846,0.22-1.381
		c0-0.338-0.024-0.612-0.07-0.822c-0.047-0.21-0.149-0.374-0.307-0.491c-0.156-0.114-0.277-0.192-0.358-0.227
		c-0.081-0.035-0.262-0.095-0.542-0.175l-1.137-0.351c-0.769-0.231-1.338-0.538-1.705-0.918c-0.367-0.378-0.551-0.965-0.551-1.758
		c0-0.71,0.114-1.323,0.341-1.836s0.484-0.892,0.77-1.138c0.285-0.244,0.644-0.438,1.076-0.576c0.431-0.141,0.761-0.219,0.987-0.236
		c0.228-0.018,0.486-0.025,0.778-0.025h2.641l-0.192,0.717c-0.093,0.35-0.206,0.56-0.341,0.629c-0.134,0.07-0.446,0.105-0.936,0.105
		H143.9c-0.769,0-1.343,0.154-1.722,0.463c-0.38,0.31-0.575,0.941-0.587,1.897c-0.011,0.374,0.067,0.63,0.236,0.771
		c0.169,0.14,0.476,0.279,0.918,0.42c0.069,0.022,0.128,0.041,0.176,0.051l1.976,0.631c0.909,0.292,1.364,1.248,1.364,2.867
		c0,0.244-0.023,0.52-0.07,0.822c-0.046,0.303-0.16,0.668-0.341,1.094c-0.181,0.426-0.411,0.808-0.69,1.145
		c-0.28,0.338-0.686,0.628-1.216,0.866C143.415,89.092,142.805,89.211,142.117,89.211z"/>
</g>
<rect x="153.451" y="79.987" fill="#E44840" width="169.216" height="5.895"/>
<rect x="283.734" y="4.693" fill="#F7F943" width="38.934" height="5.895"/>
<rect x="270.951" y="17.242" fill="#F7F943" width="51.717" height="5.895"/>
<rect x="258.169" y="29.791" fill="#F7F943" width="64.496" height="5.895"/>
<rect x="245.388" y="42.34" fill="#E44840" width="77.277" height="5.895"/>
<rect x="232.574" y="54.889" fill="#E44840" width="90.094" height="5.895"/>
<rect x="97.426" y="67.438" fill="#E44840" width="225.24" height="5.895"/>
<g>
	<polygon fill="#E44840" points="78.034,85.881 78.034,79.987 4.409,79.987 2.96,85.881 	"/>
	<polygon fill="#E44840" points="78.034,67.438 7.494,67.438 6.045,73.333 78.034,73.333 	"/>
</g>
</svg>
