<svg version="1.1" xmlns="http://www.w3.org/2000/svg" xmlns:xlink="http://www.w3.org/1999/xlink" height="58.607" width="281.8" viewBox="0 0 281.803 58.607">
<title>CareFlight International</title>
<polygon points="178.13,49.613,131.99,49.613,140.99,58.607,187.13,58.607" fill="#FFC211"/>
<polygon points="193.05,49.613,182.17,49.613,191.17,58.607,202.04,58.607" fill="#FFC211"/>
<defs><rect id="XMLID_1_" width="281.8" height="58.607"/></defs>
<clipPath id="XMLID_3_"><use xlink:href="#XMLID_1_"/></clipPath>
<path fill="#0C2E82" d="M107.65,32.794c0,2.87,2.22,5.481,6.201,5.481,3.72,0,5.352-1.045,7.245-2.937l6.396,6.396c-3.589,3.59-7.114,5.547-13.641,5.547-7.767,0-16.708-2.807-16.708-17.947,0-11.487,6.527-17.949,15.729-17.949,10.182,0,15.795,7.441,15.795,16.644v4.765h-21.031zm9.85-9.857c-0.653-1.5-2.089-2.741-4.634-2.741s-3.981,1.241-4.634,2.741c-0.456,0.915-0.588,1.893-0.588,2.741h10.444c0-0.848-0.13-1.826-0.59-2.741" clip-path="url(#XMLID_3_)"/>
<polygon fill="#0C2E82" points="127.88,49.613,0.135,49.613,9.131,58.607,136.87,58.607" clip-path="url(#XMLID_3_)"/>
<path fill="#0C2E82" d="M17.818,47.253c-5.417,0-9.528-1.829-12.922-5.221-4.896-4.896-4.7-11.42-4.7-18.405,0-6.984-0.196-13.51,4.7-18.406,3.394-3.394,7.505-5.221,12.922-5.221,8.812,0,15.925,4.895,17.623,15.142h-11.618c-0.718-2.611-2.154-4.961-5.939-4.961-2.089,0-3.656,0.849-4.504,1.958-1.044,1.373-1.762,3.003-1.762,11.488s0.718,10.116,1.762,11.488c0.848,1.107,2.415,1.957,4.504,1.957,3.785,0,5.221-2.35,5.939-4.96h11.618c-1.698,10.245-8.811,15.141-17.623,15.141" clip-path="url(#XMLID_3_)"/>
<path fill="#0C2E82" d="M59.55,46.926v-2.807c-2.105,2.105-4.63,3.158-8.137,3.158-3.648,0-6.664-1.195-8.839-3.367-3.437-3.438-3.507-7.646-3.507-14.522,0-6.874,0.07-11.083,3.507-14.519,2.175-2.175,5.262-3.369,8.909-3.369,3.858,0,6.102,1.194,8.418,3.509v-3.088h11.153v35.004h-11.504zm-4.49-25.043c-4.209,0-4.488,3.647-4.488,7.505s0.279,7.506,4.488,7.506,4.49-3.648,4.49-7.506-0.281-7.505-4.49-7.505" clip-path="url(#XMLID_3_)"/>
<path fill="#0C2E82" d="M94.142,22.843c-1.044-1.044-2.023-1.826-3.85-1.826-1.437,0-4.307,0.848-4.307,4.829v21.015h-10.704v-35.112h10.442v2.872c1.566-1.566,4.634-3.263,8.289-3.263,1.69,0,3.114,0.202,4.411,0.69-0.026,0.067-4.281,10.795-4.281,10.795" clip-path="url(#XMLID_3_)"/>
<polygon fill="#0C2E82" points="143.56,10.574,143.56,18.731,160.79,18.731,160.79,28.914,143.56,28.914,143.56,46.86,132.14,46.86,132.14,0.392,163.73,0.392,163.73,10.574" clip-path="url(#XMLID_3_)"/>
<rect clip-path="url(#XMLID_3_)" height="46.42" width="10.705" y="0.392" x="167.52" fill="#0C2E82"/>
<rect clip-path="url(#XMLID_3_)" height="33.741" width="10.707" y="13.12" x="182.22" fill="#0C2E82"/>
<path fill="#0C2E82" d="M251.14,46.861v-21.276c0-3.785-2.741-4.568-4.113-4.568-1.37,0-4.111,0.783-4.111,4.568v21.276h-10.702v-46.469h10.702v14.229c2.221-2.219,5.026-3.263,7.703-3.263,7.569,0,11.227,5.612,11.227,12.726v22.777h-10.708z" clip-path="url(#XMLID_3_)"/>
<path fill="#0C2E82" d="M276.45,46.861c-7.766,0-10.897-5.547-10.897-10.377v-33.416h10.703v10.052h5.548v8.222h-5.548v14.358c0,1.372,0.718,2.153,2.154,2.153h3.394v9.008h-5.34z" clip-path="url(#XMLID_3_)"/>
<path fill="#0C2E82" d="M228.34,11.922h-11.153v3.086c-2.314-2.314-4.56-3.508-8.418-3.508-3.648,0-6.734,1.194-8.908,3.368-3.437,3.437-3.508,7.799-3.508,14.521,0,6.721,0.071,11.083,3.508,14.521,2.174,2.172,5.19,3.367,8.838,3.367,3.508,0,6.027-1.09,8.139-3.158,0,1.619-0.04,5.482-4.855,5.482h-14.582l8.984,8.986h8.996c10.218,0,12.979-5.682,12.979-12.513s-0.02-34.152-0.02-34.152m-15.99,24.973c-4.209,0-4.49-3.648-4.49-7.505,0-3.859,0.281-7.506,4.49-7.506s4.49,3.647,4.49,7.506c0,3.856-0.28,7.505-4.49,7.505" clip-path="url(#XMLID_3_)"/>
<path fill="#0C2E82" d="M192.26,8.376c-5.448-0.735-7.983-2.092-8.896-2.67-0.911-0.577-1.112-0.312-1.112-0.089v2.314c0,0.978,5.915,1.335,7.829,1.289,1.91-0.043,3.87-0.577,2.18-0.844" clip-path="url(#XMLID_3_)"/>
<path fill="#0C2E82" d="M192.26,9.779c-2.735,0.557-8.207-0.089-8.896-0.288-0.691-0.2-1.112-0.535-1.112-0.09v2.313c0,0.979,6.005-0.422,7.829-0.934,1.82-0.51,2.98-1.178,2.18-1.001" clip-path="url(#XMLID_3_)"/>
<path fill="#0C2E82" d="M192.26,7.021c-4.759-1.022-8.007-5.404-8.896-6.205-0.889-0.8-1.112-0.312-1.112-0.09v2.959c0,0.979,4.692,2.869,7.829,3.47,3.13,0.6,3.38,0.133,2.18-0.134" clip-path="url(#XMLID_3_)"/>
</svg>
