<?xml version="1.0" encoding="UTF-8" standalone="no"?>
<svg
   xmlns:dc="http://purl.org/dc/elements/1.1/"
   xmlns:cc="http://creativecommons.org/ns#"
   xmlns:rdf="http://www.w3.org/1999/02/22-rdf-syntax-ns#"
   xmlns:svg="http://www.w3.org/2000/svg"
   xmlns="http://www.w3.org/2000/svg"
   width="500"
   height="90"
   viewBox="0 0 132.29166 23.812501"
   version="1.1"
   id="svg8">
  <defs
     id="defs2" />
  <metadata
     id="metadata5">
    <rdf:RDF>
      <cc:Work
         rdf:about="">
        <dc:format>image/svg+xml</dc:format>
        <dc:type
           rdf:resource="http://purl.org/dc/dcmitype/StillImage" />
        <dc:title></dc:title>
      </cc:Work>
    </rdf:RDF>
  </metadata>
  <g
     id="layer1">
    <rect
       style="fill:#075095;fill-opacity:1;stroke:none;stroke-width:0.248984;stroke-linejoin:round"
       id="rect989"
       width="131.84416"
       height="22.875177"
       x="0.19611555"
       y="0.23844278"
       ry="4.3085288e-07" />
    <g
       aria-label="ARGO"
       id="text849"
       style="font-style:normal;font-variant:normal;font-weight:normal;font-stretch:normal;font-size:6.45167px;line-height:1.25;font-family:'ITC Avant Garde Gothic LT Demi';-inkscape-font-specification:'ITC Avant Garde Gothic LT Demi';fill:#ffffff;fill-opacity:1;stroke:none;stroke-width:0.161292"
       transform="matrix(1.2449222,0,0,1.2449222,-100.41305,-197.31985)">
      <path
         d="m 106.49135,173.60406 h 0.9742 l 0.50969,-1.23226 h 1.70969 l 0.50968,1.23226 h 0.9742 l -2.00002,-4.77423 h -0.69032 z m 2.3226,-3.52906 h 0.0129 l 0.54194,1.46453 H 108.272 Z"
         style="font-style:normal;font-variant:normal;font-weight:normal;font-stretch:normal;font-family:'ITC Avant Garde Gothic LT Demi';-inkscape-font-specification:'ITC Avant Garde Gothic LT Demi';fill:#ffffff;stroke-width:0.161292"
         id="path1031" />
      <path
         d="m 111.63333,173.60406 h 0.88388 v -1.82582 h 0.0129 l 1.26453,1.82582 h 1.07098 l -1.29679,-1.7613 c 0.23871,-0.0581 0.50968,-0.12258 0.79356,-0.39355 0.34194,-0.32904 0.45807,-0.82582 0.45807,-1.14195 0,-0.54839 -0.29033,-0.93549 -0.5613,-1.15485 -0.27097,-0.21935 -0.61291,-0.32258 -1.1613,-0.32258 h -1.46453 z m 0.88388,-3.94842 h 0.56775 c 0.69033,0 0.85162,0.45807 0.85162,0.72259 0,0.25161 -0.12258,0.73549 -0.85162,0.73549 h -0.56775 z"
         style="font-style:normal;font-variant:normal;font-weight:normal;font-stretch:normal;font-family:'ITC Avant Garde Gothic LT Demi';-inkscape-font-specification:'ITC Avant Garde Gothic LT Demi';fill:#ffffff;stroke-width:0.161292"
         id="path1033" />
      <path
         d="m 117.11725,171.9976 h 2.00002 c -0.27742,0.55484 -0.82582,0.87743 -1.41292,0.87743 -1.13549,0 -1.68388,-0.92259 -1.68388,-1.65163 0,-0.7484 0.56129,-1.66453 1.63872,-1.66453 0.63226,0 1.07098,0.35484 1.27743,0.67097 h 1.05808 c -0.24517,-0.68388 -1.11614,-1.49679 -2.31615,-1.49679 -1.3484,0 -2.54196,1.07743 -2.54196,2.4839 0,1.43227 1.20001,2.48389 2.56776,2.48389 1.3355,0 2.52906,-1.06453 2.52906,-2.42583 v -0.10322 h -3.11616 z"
         style="font-style:normal;font-variant:normal;font-weight:normal;font-stretch:normal;font-family:'ITC Avant Garde Gothic LT Demi';-inkscape-font-specification:'ITC Avant Garde Gothic LT Demi';fill:#ffffff;stroke-width:0.161292"
         id="path1035" />
      <path
         d="m 120.59469,171.22985 c 0,1.36775 1.12259,2.47099 2.4968,2.47099 1.3742,0 2.49679,-1.10324 2.49679,-2.47099 0,-1.41292 -1.14194,-2.4968 -2.49679,-2.4968 -1.35485,0 -2.4968,1.08388 -2.4968,2.4968 z m 0.88388,-0.006 c 0,-0.91614 0.71613,-1.66453 1.61292,-1.66453 0.89678,0 1.61291,0.74839 1.61291,1.66453 0,0.88388 -0.70323,1.65163 -1.61291,1.65163 -0.90969,0 -1.61292,-0.76775 -1.61292,-1.65163 z"
         style="font-style:normal;font-variant:normal;font-weight:normal;font-stretch:normal;font-family:'ITC Avant Garde Gothic LT Demi';-inkscape-font-specification:'ITC Avant Garde Gothic LT Demi';fill:#ffffff;stroke-width:0.161292"
         id="path1037" />
    </g>
    <g
       aria-label="OGIC"
       id="text849-2"
       style="font-style:normal;font-variant:normal;font-weight:normal;font-stretch:normal;font-size:6.45167px;line-height:1.25;font-family:'ITC Avant Garde Gothic LT Demi';-inkscape-font-specification:'ITC Avant Garde Gothic LT Demi';fill:#ffffff;fill-opacity:1;stroke:none;stroke-width:0.161292"
       transform="matrix(1.2449222,0,0,1.2449222,-100.41305,-197.31985)">
      <path
         d="m 128.81682,171.22985 c 0,1.36775 1.12259,2.47099 2.49679,2.47099 1.37421,0 2.4968,-1.10324 2.4968,-2.47099 0,-1.41292 -1.14195,-2.4968 -2.4968,-2.4968 -1.35485,0 -2.49679,1.08388 -2.49679,2.4968 z m 0.88388,-0.006 c 0,-0.91614 0.71613,-1.66453 1.61291,-1.66453 0.89679,0 1.61292,0.74839 1.61292,1.66453 0,0.88388 -0.70323,1.65163 -1.61292,1.65163 -0.90968,0 -1.61291,-0.76775 -1.61291,-1.65163 z"
         style="font-style:normal;font-variant:normal;font-weight:normal;font-stretch:normal;font-family:'ITC Avant Garde Gothic LT Demi';-inkscape-font-specification:'ITC Avant Garde Gothic LT Demi';fill:#ffffff;stroke-width:0.161292"
         id="path1040" />
      <path
         d="m 136.17816,171.9976 h 2.00002 c -0.27742,0.55484 -0.82581,0.87743 -1.41292,0.87743 -1.13549,0 -1.68388,-0.92259 -1.68388,-1.65163 0,-0.7484 0.56129,-1.66453 1.63872,-1.66453 0.63227,0 1.07098,0.35484 1.27743,0.67097 h 1.05808 c -0.24517,-0.68388 -1.11614,-1.49679 -2.31615,-1.49679 -1.3484,0 -2.54196,1.07743 -2.54196,2.4839 0,1.43227 1.20001,2.48389 2.56776,2.48389 1.3355,0 2.52906,-1.06453 2.52906,-2.42583 v -0.10322 h -3.11616 z"
         style="font-style:normal;font-variant:normal;font-weight:normal;font-stretch:normal;font-family:'ITC Avant Garde Gothic LT Demi';-inkscape-font-specification:'ITC Avant Garde Gothic LT Demi';fill:#ffffff;stroke-width:0.161292"
         id="path1042" />
      <path
         d="m 139.90722,173.60406 h 0.88387 v -4.77423 h -0.88387 z"
         style="font-style:normal;font-variant:normal;font-weight:normal;font-stretch:normal;font-family:'ITC Avant Garde Gothic LT Demi';-inkscape-font-specification:'ITC Avant Garde Gothic LT Demi';fill:#ffffff;stroke-width:0.161292"
         id="path1044" />
      <path
         d="m 145.13951,172.27502 c -0.2129,0.22581 -0.56129,0.60001 -1.20001,0.60001 -0.84517,0 -1.58711,-0.76775 -1.58711,-1.66453 0,-0.95485 0.78065,-1.65163 1.55485,-1.65163 0.52904,0 0.9355,0.23871 1.27743,0.63226 h 1.00646 c -0.45806,-1.04517 -1.45807,-1.45808 -2.25163,-1.45808 -1.38066,0 -2.47099,1.1484 -2.47099,2.46454 0,1.3484 1.10969,2.50325 2.49035,2.50325 0.91613,0 1.83227,-0.54839 2.20647,-1.42582 z"
         style="font-style:normal;font-variant:normal;font-weight:normal;font-stretch:normal;font-family:'ITC Avant Garde Gothic LT Demi';-inkscape-font-specification:'ITC Avant Garde Gothic LT Demi';fill:#ffffff;stroke-width:0.161292"
         id="path1046" />
    </g>
    <g
       aria-label="ERMANY"
       id="text849-4"
       style="font-style:normal;font-variant:normal;font-weight:normal;font-stretch:normal;font-size:6.45167px;line-height:1.25;font-family:'ITC Avant Garde Gothic LT Demi';-inkscape-font-specification:'ITC Avant Garde Gothic LT Demi';fill:#ffffff;fill-opacity:1;stroke:none;stroke-width:0.161292"
       transform="matrix(1.2449222,0,0,1.2449222,-100.41305,-197.31985)">
      <path
         d="m 153.11551,173.60406 h 2.56776 v -0.82581 h -1.68388 v -1.12904 h 1.61291 v -0.82581 h -1.61291 v -1.16776 h 1.68388 v -0.82581 h -2.56776 z"
         style="font-style:normal;font-variant:normal;font-weight:normal;font-stretch:normal;font-family:'ITC Avant Garde Gothic LT Demi';-inkscape-font-specification:'ITC Avant Garde Gothic LT Demi';fill:#ffffff;stroke-width:0.161292"
         id="path1049" />
      <path
         d="m 156.48972,173.60406 h 0.88388 v -1.82582 h 0.0129 l 1.26453,1.82582 h 1.07098 l -1.29679,-1.7613 c 0.23871,-0.0581 0.50968,-0.12258 0.79356,-0.39355 0.34194,-0.32904 0.45807,-0.82582 0.45807,-1.14195 0,-0.54839 -0.29033,-0.93549 -0.5613,-1.15485 -0.27097,-0.21935 -0.61291,-0.32258 -1.1613,-0.32258 h -1.46453 z m 0.88388,-3.94842 h 0.56775 c 0.69032,0 0.85162,0.45807 0.85162,0.72259 0,0.25161 -0.12259,0.73549 -0.85162,0.73549 h -0.56775 z"
         style="font-style:normal;font-variant:normal;font-weight:normal;font-stretch:normal;font-family:'ITC Avant Garde Gothic LT Demi';-inkscape-font-specification:'ITC Avant Garde Gothic LT Demi';fill:#ffffff;stroke-width:0.161292"
         id="path1051" />
      <path
         d="m 160.22524,173.60406 h 0.88388 v -3.58067 h 0.0129 l 1.22582,3.58067 h 0.74839 l 1.21937,-3.58067 h 0.0194 v 3.58067 h 0.88388 v -4.77423 h -1.22582 l -1.25807,3.61293 h -0.0129 l -1.27098,-3.61293 h -1.22581 z"
         style="font-style:normal;font-variant:normal;font-weight:normal;font-stretch:normal;font-family:'ITC Avant Garde Gothic LT Demi';-inkscape-font-specification:'ITC Avant Garde Gothic LT Demi';fill:#ffffff;stroke-width:0.161292"
         id="path1053" />
      <path
         d="m 165.67044,173.60406 h 0.97421 l 0.50968,-1.23226 h 1.70969 l 0.50968,1.23226 h 0.9742 l -2.00001,-4.77423 h -0.69033 z m 2.32261,-3.52906 h 0.0129 l 0.54194,1.46453 h -1.09679 z"
         style="font-style:normal;font-variant:normal;font-weight:normal;font-stretch:normal;font-family:'ITC Avant Garde Gothic LT Demi';-inkscape-font-specification:'ITC Avant Garde Gothic LT Demi';fill:#ffffff;stroke-width:0.161292"
         id="path1055" />
      <path
         d="m 170.85113,173.60406 h 0.88388 v -3.47099 h 0.0129 l 1.99356,3.47099 h 0.98711 v -4.77423 h -0.88388 v 3.471 h -0.0129 l -1.97422,-3.471 h -1.00646 z"
         style="font-style:normal;font-variant:normal;font-weight:normal;font-stretch:normal;font-family:'ITC Avant Garde Gothic LT Demi';-inkscape-font-specification:'ITC Avant Garde Gothic LT Demi';fill:#ffffff;stroke-width:0.161292"
         id="path1057" />
      <path
         d="m 176.7286,173.60406 h 0.88388 v -1.7613 l 1.57421,-3.01293 h -0.9742 l -1.04517,2.19357 -1.03872,-2.19357 h -0.96775 l 1.56775,3.01293 z"
         style="font-style:normal;font-variant:normal;font-weight:normal;font-stretch:normal;font-family:'ITC Avant Garde Gothic LT Demi';-inkscape-font-specification:'ITC Avant Garde Gothic LT Demi';fill:#ffffff;stroke-width:0.161292"
         id="path1059" />
    </g>
    <g
       aria-label="C"
       id="text909"
       style="font-style:normal;font-variant:normal;font-weight:normal;font-stretch:normal;font-size:7.84013px;line-height:1.25;font-family:'ITC Avant Garde Gothic LT Demi';-inkscape-font-specification:'ITC Avant Garde Gothic LT Demi';fill:#ffffff;fill-opacity:1;stroke:none;stroke-width:0.196003"
       transform="matrix(1.2449222,0,0,1.2449222,-100.41305,-197.31985)">
      <path
         d="m 105.57512,171.96817 c -0.25873,0.2744 -0.68209,0.72913 -1.45827,0.72913 -1.02705,0 -1.92867,-0.93297 -1.92867,-2.02275 0,-1.16034 0.94866,-2.00707 1.88947,-2.00707 0.64289,0 1.13682,0.29008 1.55235,0.76833 h 1.22306 c -0.55665,-1.2701 -1.77187,-1.77187 -2.73621,-1.77187 -1.67778,0 -3.00277,1.39554 -3.00277,2.99493 0,1.63859 1.34851,3.04197 3.02629,3.04197 1.1133,0 2.2266,-0.66641 2.68133,-1.73267 z"
         style="font-style:normal;font-variant:normal;font-weight:normal;font-stretch:normal;font-family:'ITC Avant Garde Gothic LT Demi';-inkscape-font-specification:'ITC Avant Garde Gothic LT Demi';fill:#ffffff;stroke-width:0.196003"
         id="path1062" />
    </g>
    <g
       aria-label="L"
       id="text909-3"
       style="font-style:normal;font-variant:normal;font-weight:normal;font-stretch:normal;font-size:7.84013px;line-height:1.25;font-family:'ITC Avant Garde Gothic LT Demi';-inkscape-font-specification:'ITC Avant Garde Gothic LT Demi';fill:#ffffff;fill-opacity:1;stroke:none;stroke-width:0.196003"
       transform="matrix(1.2449222,0,0,1.2449222,-100.41305,-197.31985)">
      <path
         d="m 125.8931,173.58324 h 2.84597 v -1.00354 h -1.77187 v -4.79816 h -1.0741 z"
         style="font-style:normal;font-variant:normal;font-weight:normal;font-stretch:normal;font-family:'ITC Avant Garde Gothic LT Demi';-inkscape-font-specification:'ITC Avant Garde Gothic LT Demi';fill:#ffffff;stroke-width:0.196003"
         id="path1065" />
    </g>
    <g
       aria-label="G"
       id="text909-6"
       style="font-style:normal;font-variant:normal;font-weight:normal;font-stretch:normal;font-size:7.84013px;line-height:1.25;font-family:'ITC Avant Garde Gothic LT Demi';-inkscape-font-specification:'ITC Avant Garde Gothic LT Demi';fill:#ffffff;fill-opacity:1;stroke:none;stroke-width:0.196003"
       transform="matrix(1.2449222,0,0,1.2449222,-100.41305,-197.31985)">
      <path
         d="m 148.94851,171.63104 h 2.43044 c -0.33712,0.67426 -1.00353,1.06626 -1.71698,1.06626 -1.37987,0 -2.04628,-1.12114 -2.04628,-2.00707 0,-0.90946 0.68209,-2.02275 1.99139,-2.02275 0.76834,0 1.30147,0.4312 1.55235,0.81537 h 1.28578 c -0.29792,-0.83105 -1.35634,-1.81891 -2.81461,-1.81891 -1.63858,0 -3.08901,1.3093 -3.08901,3.01845 0,1.74051 1.45827,3.01845 3.12038,3.01845 1.6229,0 3.07333,-1.29362 3.07333,-2.94789 v -0.12544 h -3.78679 z"
         style="font-style:normal;font-variant:normal;font-weight:normal;font-stretch:normal;font-family:'ITC Avant Garde Gothic LT Demi';-inkscape-font-specification:'ITC Avant Garde Gothic LT Demi';fill:#ffffff;stroke-width:0.196003"
         id="path1068" />
    </g>
    <path
       style="fill:#ffffff;stroke:none;stroke-width:0.329385px;stroke-linecap:butt;stroke-linejoin:miter;stroke-opacity:1"
       d="M 7.7254347,19.486491 C 10.269935,14.496196 15.679951,4.1926838 28.282632,3.9583024 32.78132,3.8746436 39.327208,4.6410426 44.840134,10.575437 45.30881,11.079942 45.069909,11.80659 44.222541,11.104803 39.932925,7.5521686 37.39596,5.6934624 28.753175,5.6934624 c -7.92623,0 -13.793196,6.3787696 -17.086876,13.7930286 z"
       id="path981" />
    <path
       style="fill:#ffffff;stroke:none;stroke-width:0.329385px;stroke-linecap:butt;stroke-linejoin:miter;stroke-opacity:1"
       d="m 15.930667,19.486491 c 2.65279,-4.817911 6.903761,-11.2582177 16.601619,-12.6019493 0.86715,-0.120135 0.744999,0.6153899 0.04407,0.7793586 C 29.528612,8.3768797 22.472605,11.1117 19.003901,19.486491 Z"
       id="path983" />
    <path
       style="fill:#ffffff;stroke:none;stroke-width:0.329385px;stroke-linecap:butt;stroke-linejoin:miter;stroke-opacity:1"
       d="m 17.258905,10.261916 c 3.418573,0.05826 6.682057,0.616249 9.358021,3.067352 l 0.655066,-0.717436 C 24.761233,10.349646 21.88906,8.8504605 18.381869,8.6918575 Z"
       id="path985" />
    <path
       style="fill:#ffffff;stroke:none;stroke-width:0.329385px;stroke-linecap:butt;stroke-linejoin:miter;stroke-opacity:1"
       d="m 22.364228,6.3211522 c 3.870482,0.774491 7.51168,1.8974356 10.699341,4.6478168 0.767594,0.662299 1.124787,0.05415 0.634263,-0.551077 -1.99393,-2.4601278 -5.486584,-4.1754812 -8.619779,-5.105326 z"
       id="path987" />
    <rect
       style="fill:#ffffff;stroke:none;stroke-width:0.0542673;stroke-linejoin:round"
       id="rect989-8"
       width="131.84416"
       height="1.0866628"
       x="0.19611555"
       y="1.8551928"
       ry="2.046724e-08" />
    <rect
       style="fill:#ffffff;stroke:none;stroke-width:0.0542673;stroke-linejoin:round"
       id="rect989-8-5"
       width="131.84416"
       height="1.0866628"
       x="0.19611555"
       y="20.865046"
       ry="2.046724e-08" />
  </g>
</svg>
