<?xml version="1.0" encoding="UTF-8" standalone="no"?>
<svg
   xmlns:dc="http://purl.org/dc/elements/1.1/"
   xmlns:cc="http://creativecommons.org/ns#"
   xmlns:rdf="http://www.w3.org/1999/02/22-rdf-syntax-ns#"
   xmlns:svg="http://www.w3.org/2000/svg"
   xmlns="http://www.w3.org/2000/svg"
   version="1.1"
   id="svg4591"
   viewBox="0 0 526.19997 142.04272"
   height="40.087612mm"
   width="148.50533mm">
  <defs
     id="defs4593" />
  <metadata
     id="metadata4596">
    <rdf:RDF>
      <cc:Work
         rdf:about="">
        <dc:format>image/svg+xml</dc:format>
        <dc:type
           rdf:resource="http://purl.org/dc/dcmitype/StillImage" />
        <dc:title></dc:title>
      </cc:Work>
    </rdf:RDF>
  </metadata>
  <g
     transform="translate(30.538915,-424.20972)"
     id="layer1">
    <path
       d="m 5.224836,553.73869 c -2.0625001,7.395 -8.1075002,11.94375 -15.78375,11.94375 -14.362501,0 -19.980001,-13.57875 -19.980001,-26.02125 0,-12.51375 5.76,-26.0925 20.193751,-26.0925 4.6912497,0 8.3887498,1.35 11.8012499,4.54875 l 2.6325001,-4.40625 1.42125,0 0,14.8575 -1.7775,0 c -1.4212501,-6.9675 -5.5462502,-12.51375 -13.2262504,-12.51375 -2.1337496,0 -4.1925006,0.4275 -6.1125006,1.425 -6.7575,3.48 -8.1075,15.285 -8.1075,22.03875 0,9.315 2.27625,22.8225 14.2200006,22.8225 8.53500024,0 12.3712503,-6.825 12.8700004,-14.50125 l 2.70375,0 c -0.075,1.9875 -0.35625,3.97875 -0.855,5.89875"
       style="fill:#5b5c5e;fill-opacity:1;fill-rule:nonzero;stroke:none"
       id="path4477" />
    <path
       d="m 48.567336,564.40369 c -3.05625,0 -6.11625,0.21375 -9.1725,0.57 l 0,-1.84875 c 1.56375,-0.0713 4.83375,-0.1425 4.83375,-2.41875 0,-0.70875 -0.28125,-1.635 -0.495,-2.3475 l -2.56125,-8.175 -17.561251,0 c -0.7125,2.0625 -3.4125,8.81625 -3.4125,10.5225 0,2.41875 3.27,2.41875 4.97625,2.41875 l 0,1.84875 c -2.41875,-0.21375 -4.7625,-0.35625 -7.18125,-0.35625 -2.41875,0 -4.7625,0.1425 -7.18125,0.35625 l 0.07125,-1.84875 c 4.5525,-0.0713 5.6175,-1.14 7.18125,-5.26125 l 17.205001,-44.93625 15.5025,45.7875 c 1.35,3.9825 3.19875,4.125 6.9675,4.41 l 0,1.84875 c -3.05625,-0.35625 -6.11625,-0.57 -9.1725,-0.57 m -15.43125,-39.60375 -8.602501,23.03625 15.855001,0"
       style="fill:#5b5c5e;fill-opacity:1;fill-rule:nonzero;stroke:none"
       id="path4481" />
    <path
       d="m 94.508589,526.01119 c -1.27875,-4.7625 -2.56125,-9.1725 -8.38875,-9.1725 l -5.3325,0 0,41.595 c 0,0.85125 0,1.84875 0.35625,2.62875 0.85125,1.84875 4.12125,1.99125 5.89875,2.0625 l 0,1.84875 c -3.1275,-0.285 -6.32625,-0.57 -9.4575,-0.57 -3.127501,0 -6.255001,0.285 -9.382501,0.57 l 0.07125,-1.84875 c 1.56375,-0.0713 4.905,-0.285 5.75625,-1.84875 0.4275,-0.70875 0.4275,-1.56375 0.4275,-2.3475 l 0,-42.09 -4.05,0 c -6.4725,0 -7.75125,3.76875 -9.315,9.1725 l -1.84875,0 2.0625,-11.44875 32.917501,0 2.0625,11.44875"
       style="fill:#5b5c5e;fill-opacity:1;fill-rule:nonzero;stroke:none"
       id="path4485" />
    <path
       d="m 199.16734,564.40369 c -3.05625,0 -6.11625,0.21375 -9.1725,0.57 l 0,-1.84875 c 1.56375,-0.0713 4.83375,-0.1425 4.83375,-2.41875 0,-0.70875 -0.28125,-1.635 -0.495,-2.3475 l -2.56125,-8.175 -17.56125,0 c -0.7125,2.0625 -3.4125,8.81625 -3.4125,10.5225 0,2.41875 3.27,2.41875 4.97625,2.41875 l 0,1.84875 c -2.41875,-0.21375 -4.7625,-0.35625 -7.18125,-0.35625 -2.41875,0 -4.7625,0.1425 -7.18125,0.35625 l 0.0712,-1.84875 c 4.5525,-0.0713 5.6175,-1.14 7.18125,-5.26125 l 17.205,-44.93625 15.5025,45.7875 c 1.35,3.9825 3.19875,4.125 6.9675,4.41 l 0,1.84875 c -3.05625,-0.35625 -6.11625,-0.57 -9.1725,-0.57 m -15.43125,-39.60375 -8.6025,23.03625 15.855,0"
       style="fill:#5b5c5e;fill-opacity:1;fill-rule:nonzero;stroke:none"
       id="path4489" />
    <path
       d="m 243.81484,519.96619 -16.06875,45.71625 -1.92,0 -15.35625,-44.7225 c -1.42125,-4.12125 -2.775,-4.4775 -6.89625,-4.83375 l 0.0712,-1.84875 c 2.985,0.35625 6.04125,0.57 9.03,0.57 3.05625,0 6.1125,-0.21375 9.0975,-0.57 l -0.0675,1.84875 c -1.63875,0.1425 -4.98,0.21375 -4.98,2.49 0,0.78 0.35625,1.4925 0.57,2.205 l 11.5875,34.2675 11.6625,-33.55875 c 0.35625,-0.92625 0.78375,-1.92 0.78375,-2.91375 0,-2.3475 -3.41625,-2.41875 -5.05125,-2.49 l 0.0712,-1.84875 c 2.205,0.285 4.48125,0.49875 6.75375,0.49875 2.41875,0 4.8375,-0.21375 7.25625,-0.49875 l 0,1.84875 c -2.98875,0.21375 -5.47875,0.7125 -6.54375,3.84"
       style="fill:#5b5c5e;fill-opacity:1;fill-rule:nonzero;stroke:none"
       id="path4493" />
    <path
       d="m 266.06734,564.40369 c -3.1275,0 -6.18375,0.285 -9.315,0.57 l 0,-1.84875 c 1.70625,-0.0713 4.695,-0.1425 5.68875,-1.7775 0.49875,-0.78375 0.49875,-1.7775 0.49875,-2.6325 l 0,-38.3925 c 0,-3.91125 -3.05625,-3.9825 -6.1875,-4.19625 l 0,-1.84875 c 3.13125,0.35625 6.25875,0.57 9.38625,0.57 3.1275,0 6.255,-0.21375 9.38625,-0.57 l 0,1.84875 c -3.34125,0.285 -6.1875,0.1425 -6.1875,4.41 l 0,38.17875 c 0,0.92625 0,1.84875 0.49875,2.6325 1.065,1.635 3.9825,1.70625 5.68875,1.7775 l 0,1.84875 c -3.13125,-0.285 -6.33,-0.57 -9.4575,-0.57"
       style="fill:#5b5c5e;fill-opacity:1;fill-rule:nonzero;stroke:none"
       id="path4497" />
    <path
       d="m 319.25359,564.40369 c -3.06,0 -6.12,0.21375 -9.17625,0.57 l 0,-1.84875 c 1.56375,-0.0713 4.8375,-0.1425 4.8375,-2.41875 0,-0.70875 -0.285,-1.635 -0.49875,-2.3475 l -2.56125,-8.175 -17.56125,0 c -0.70875,2.0625 -3.4125,8.81625 -3.4125,10.5225 0,2.41875 3.27,2.41875 4.97625,2.41875 l 0,1.84875 c -2.415,-0.21375 -4.7625,-0.35625 -7.18125,-0.35625 -2.415,0 -4.7625,0.1425 -7.18125,0.35625 l 0.0712,-1.84875 c 4.5525,-0.0713 5.6175,-1.14 7.18125,-5.26125 l 17.20875,-44.93625 15.49875,45.7875 c 1.35,3.9825 3.19875,4.125 6.9675,4.41 l 0,1.84875 c -3.05625,-0.35625 -6.11625,-0.57 -9.16875,-0.57 m -15.43125,-39.60375 -8.6025,23.03625 15.855,0"
       style="fill:#5b5c5e;fill-opacity:1;fill-rule:nonzero;stroke:none"
       id="path4501" />
    <path
       d="m 365.19483,526.01119 c -1.27875,-4.7625 -2.5575,-9.1725 -8.38875,-9.1725 l -5.3325,0 0,41.595 c 0,0.85125 0,1.84875 0.35625,2.62875 0.85125,1.84875 4.12125,1.99125 5.89875,2.0625 l 0,1.84875 c -3.1275,-0.285 -6.32625,-0.57 -9.45375,-0.57 -3.13125,0 -6.25875,0.285 -9.38625,0.57 l 0.0713,-1.84875 c 1.56375,-0.0713 4.905,-0.285 5.76,-1.84875 0.42375,-0.70875 0.42375,-1.56375 0.42375,-2.3475 l 0,-42.09 -4.05,0 c -6.4725,0 -7.75125,3.76875 -9.315,9.1725 l -1.84875,0 2.0625,-11.44875 32.9175,0 2.0625,11.44875"
       style="fill:#5b5c5e;fill-opacity:1;fill-rule:nonzero;stroke:none"
       id="path4505" />
    <path
       d="m 383.82108,564.40369 c -3.1275,0 -6.18375,0.285 -9.315,0.57 l 0,-1.84875 c 1.70625,-0.0713 4.695,-0.1425 5.68875,-1.7775 0.49875,-0.78375 0.49875,-1.7775 0.49875,-2.6325 l 0,-38.3925 c 0,-3.91125 -3.05625,-3.9825 -6.1875,-4.19625 l 0,-1.84875 c 3.13125,0.35625 6.25875,0.57 9.38625,0.57 3.1275,0 6.25875,-0.21375 9.38625,-0.57 l 0,1.84875 c -3.345,0.285 -6.1875,0.1425 -6.1875,4.41 l 0,38.17875 c 0,0.92625 0,1.84875 0.49875,2.6325 1.065,1.635 3.9825,1.70625 5.68875,1.7775 l 0,1.84875 c -3.1275,-0.285 -6.33,-0.57 -9.4575,-0.57"
       style="fill:#5b5c5e;fill-opacity:1;fill-rule:nonzero;stroke:none"
       id="path4509" />
    <path
       d="m 422.49858,565.68244 c -6.6825,0 -12.37125,-3.05625 -15.9975,-8.67375 -3.19875,-4.905 -4.335,-11.73375 -4.335,-17.49 0,-12.51375 5.75625,-25.95375 20.19,-25.95375 4.125,0 7.965,1.27875 11.30625,3.76875 6.75375,5.0475 8.8875,14.22 8.8875,22.25625 0,12.585 -5.54625,26.0925 -20.05125,26.0925 m 0,-49.98375 c -1.70625,0 -3.4125,0.49875 -4.905,1.2075 -7.5375,3.6975 -8.6025,15.645 -8.6025,22.96875 0,8.6025 2.20125,23.745 13.5075,23.745 11.80125,0 13.22625,-15.64125 13.22625,-24.38625 0,-8.53125 -1.92,-23.535 -13.22625,-23.535"
       style="fill:#5b5c5e;fill-opacity:1;fill-rule:nonzero;stroke:none"
       id="path4513" />
    <path
       d="m 489.75858,518.11744 c -0.4275,0.855 -0.35625,2.13375 -0.35625,3.05625 l 0,45.07875 -1.065,0 c -2.49,-4.05375 -5.19,-7.965 -7.8225,-11.94375 l -22.18125,-33.4875 0,38.1075 c 0,0.7125 0,1.4925 0.285,2.13375 0.78,1.84875 4.1925,1.99125 5.89875,2.0625 l 0,1.84875 c -2.5575,-0.1425 -5.0475,-0.35625 -7.605,-0.35625 -2.41875,0 -4.90875,0.21375 -7.32375,0.35625 l 0,-1.84875 c 1.635,-0.0713 5.11875,-0.21375 5.89875,-1.99125 0.285,-0.64125 0.285,-1.35 0.285,-2.0625 l 0,-40.74 c -1.84875,-1.84875 -3.76875,-1.99125 -6.255,-2.205 l 0,-1.84875 c 2.13375,0.21375 4.335,0.285 6.46875,0.285 1.7775,0 3.555,-0.0713 5.3325,-0.285 l 25.5975,38.1825 0,-32.06625 c 0,-0.78375 0,-1.56375 -0.35625,-2.27625 -0.855,-1.70625 -4.2675,-1.84875 -5.9025,-1.99125 l 0.0713,-1.84875 c 2.56125,0.21375 5.0475,0.35625 7.60875,0.35625 2.41875,0 4.905,-0.1425 7.32375,-0.35625 l 0,1.84875 c -1.70625,0.1425 -5.0475,0.285 -5.9025,1.99125"
       style="fill:#5b5c5e;fill-opacity:1;fill-rule:nonzero;stroke:none"
       id="path4517" />
    <path
       d="m 343.1186,428.35744 1.08,0.86625 0.8625,0.645 1.07625,0.645 c 2.59875,0.32625 8.9625,2.385 10.78125,4.30875 l 1.29,1.2975 0.64875,0.8625 0.21375,0.8625 1.07625,0.645 1.08,0.64875 1.29,0.4275 1.08,0.64875 0.86625,0.64875 1.0725,0.64125 1.08375,0.6525 0.64125,0.85875 0.2175,0.645 c -0.7125,2.1975 -1.125,3.975 -1.725,6.04125 l -0.43125,1.07625 -0.4275,0.8625 c -0.8625,0.88125 -6.40125,1.905 -7.97625,1.72125 l -0.64875,-0.21375 -0.8625,-0.2175 -0.64875,-0.645 -1.725,0.8625 -1.5075,1.08 c -4.47375,3.42375 -9.5025,-1.9725 -12.9375,-4.3125 l -1.935,-1.07625 -1.725,-1.29375 -1.5075,-1.51125 -1.08,-1.725 -0.43125,-1.29375 -0.2175,-1.51125 0,-1.29 0.2175,-0.64875 0.43125,-0.645 0.64875,-0.43125 0.85875,0 0.64875,0.2175 0.8625,0 1.07625,0.21375 1.08,0.43125 c 3.105,1.78125 6.96375,8.06625 12.285,6.0375 l 0.8625,-0.435 0.64875,-0.645 0.4275,-0.64875 0.43125,-0.645 0.2175,-0.21375 0.43125,-0.2175 1.29375,0.43125 1.5075,0.43125 0.64875,0.21375 0.43125,0.43125 0.64875,0.435 0.21,0.645 0.435,0.43125 0.4275,0 0.2175,-0.43125 0,-1.29375 -0.85875,-0.8625 -0.6525,-0.85875 -0.85875,-0.8625 -0.4275,-0.2175 -0.6525,-0.21375 c -2.15625,-0.95625 -8.145,-4.06875 -9.91875,-5.3925 l -0.64125,-0.85875 -0.8625,-1.72875 c 0,0 -2.085,-2.71125 -2.73,-3.3975 -0.645,-0.6825 -1.4625,-1.27125 -1.4625,-1.27125 l -1.6275,-0.72 -1.29375,-0.21375 -1.08,0 -1.07625,0.21375 -1.07625,0.43125 -0.43125,0.43125 0,0.86625 0.21375,0.4275 1.29375,1.08 1.29375,0.8625 1.07625,1.07625 0.8625,1.29375 0,0.64875 -0.21375,0.21 -1.51125,0 -1.5075,-0.21 -1.5075,-0.2175 c 0,0 -0.91875,0.0825 -1.635,-0.0937 -0.43875,-0.10875 -1.17,-0.3375 -1.17,-0.3375 l -1.07625,-0.21375 -2.37,-0.43125 c -24.09375,-1.32 -43.53,2.88375 -66.82875,8.6175 l -7.11375,1.725 -7.3275,1.51125 c -23.53875,3.18 -65.86875,12.195 -87.9525,-1.08 l -0.645,-0.43125 -0.43125,-0.645 1.5075,1.29375 1.725,0.8625 c 17.88375,8.5725 43.71375,4.005 62.29875,1.07625 l 8.19375,-1.72125 8.19,-1.725 c 31.91625,-7.93125 50.4225,-17.84625 84.285,-14.65875 l 3.6675,0.645 3.44625,0.64875 0.2175,-0.43125 0,-0.43125 -0.2175,-0.64875 -0.2175,-0.645 0,-0.645 c 0,0 -0.007,-0.55125 0.2175,-0.8625 0.2775,-0.3825 0.8625,-0.64875 0.8625,-0.64875 l 1.07625,-0.43125 c 4.55625,-1.0425 5.20125,-0.3375 9.27,1.5075 l 1.29375,1.08"
       style="fill:#bf2f37;fill-opacity:1;fill-rule:evenodd;stroke:none"
       id="path4521" />
    <path
       d="m 314.57359,457.50619 0.3075,1.035 0.21,1.07625 0.22125,1.93875 c 0,0 0.06,2.715 0.13125,3.15375 0.17625,1.04625 1.09125,1.54125 1.8825,1.77 0.7875,0.2325 3.81375,0.55125 5.65875,0.55125 2.86125,0 7.50375,-0.43125 7.50375,-0.43125 l 8.1,-0.73125 10.35,-1.07625 10.35,-1.51125 10.34625,-1.725 9.915,-2.15625 2.5875,-0.4275 1.07625,-0.2175 0.64875,-0.21375 0.43125,-0.43125 0.21,-0.43125 1.08,0 c 5.56125,-2.29875 8.68125,-1.5225 14.65875,-0.8625 l 1.51125,0.43125 1.07625,0.8625 c 2.4075,1.36125 4.125,5.80125 4.095,8.40375 l -0.21375,0.64875 -0.21375,0.43125 -1.2975,-0.21375 -0.645,-0.2175 -0.645,0.2175 -2.805,-1.08 -1.5075,-0.64875 -1.5075,-0.4275 -1.29375,0 -2.5875,1.29 -0.645,0.2175 -0.64875,0 -1.5075,0.8625 -1.51125,0.85875 -0.645,-0.21375 -0.645,0 -1.08,-0.4275 -0.645,0 -0.43125,-0.43125 -0.2175,-0.86625 -0.43125,-0.43125 -2.15625,0 c -7.87875,0.3375 -13.47375,1.5375 -21.34125,3.23625 l -2.37,0.645 -2.37375,0.64875 c -10.93125,3.15 -22.14375,3.345 -33.4125,3.44625 l -1.78875,-0.0525 -2.34,-0.285 -2.11875,-0.525 c 0,0 -1.4325,-0.26625 -2.15625,-0.645 -0.72375,-0.37875 -1.11375,-0.47625 -2.04375,-1.26 -0.73875,-0.6225 -1.21125,-0.9375 -2.05875,-2.36625 -0.8475,-1.425 -1.0725,-3.05625 -1.0725,-3.05625 0,0 -0.0787,-1.75875 -0.0787,-2.92125 0,-1.1625 0.29625,-2.9025 0.29625,-2.9025 0,0 0.48375,-1.29 0.99,-2.21625 0.5025,-0.92625 1.38,-1.875 1.38,-1.875 l 0.43125,0.2175 0.43125,0.4275"
       style="fill:#bf2f37;fill-opacity:1;fill-rule:evenodd;stroke:none"
       id="path4525" />
    <path
       d="m 271.54984,461.98744 3.73875,0.8625 2.94375,0.645 3.45,0.86625 3.44625,0.645 3.45,0.43125 3.45,0.21375 1.8525,-0.1275 1.5975,-0.3 3.66375,-1.03875 3.66375,-1.335 4.09875,-1.725 0.21375,0 0.43125,0.2175 c 0,0 0.0112,0.31125 -0.2175,0.4275 -0.0937,0.0525 -0.4275,0.2175 -0.4275,0.2175 l -4.74375,2.15625 -3.09,1.33875 -4.2375,1.46625 c 0,0 -1.08375,0.39375 -2.3475,0.55125 -1.26,0.1575 -3.04125,0.0937 -3.04125,0.0937 l -2.88375,-0.27 -8.5425,-1.24125 -8.19375,-1.72125 c -11.51625,-2.10375 -17.57625,-4.86375 -29.10375,-2.59125 l -2.37,0.43125 -2.05125,0.5925 c -7.6125,2.65125 -16.01625,13.87875 -23.385,18.59625 l -2.37,1.51125 -2.5875,1.0725 -2.80125,0.86625 -2.805,0.64125 c -8.61,0.555 -17.3325,-0.72375 -25.86375,1.08 l -2.805,0.64875 -2.80125,1.07625 c -15.39375,6 -23.79,16.215 -33.8475,28.6725 l -0.4275,0.21375 -0.43125,0.21375 -0.2175,0.21375 0,-0.4275 1.9425,-2.80125 1.93875,-2.80125 c 6.43875,-8.0625 15.9675,-17.7825 24.79125,-23.07 l 2.80125,-1.725 3.01875,-1.5075 c 6.72375,-3.255 13.83375,-2.9475 21.12375,-3.8775 l 1.93875,-0.435 4.53,-0.8625 4.30875,-1.29375 2.15625,-0.645 c 7.4625,-2.53125 12.405,-9.585 18.75375,-14.01 l 3.56625,-2.4525 3.33375,-1.86 c 6.0525,-3.28875 14.13375,-2.74125 20.69625,-1.93875 l 4.30875,0.64875 7.6875,1.57875 4.995,1.10625"
       style="fill:#bf2f37;fill-opacity:1;fill-rule:evenodd;stroke:none"
       id="path4529" />
  </g>
</svg>
