<?xml version="1.0" encoding="UTF-8" standalone="no"?>
<!-- Created with Inkscape (http://www.inkscape.org/) -->

<svg
   width="132.29166mm"
   height="25.857935mm"
   viewBox="0 0 132.29166 25.857935"
   version="1.1"
   id="svg1"
   inkscape:version="1.4 (86a8ad7, 2024-10-11)"
   sodipodi:docname="Cebu Pacific wordmark.svg"
   xmlns:inkscape="http://www.inkscape.org/namespaces/inkscape"
   xmlns:sodipodi="http://sodipodi.sourceforge.net/DTD/sodipodi-0.dtd"
   xmlns="http://www.w3.org/2000/svg"
   xmlns:svg="http://www.w3.org/2000/svg">
  <sodipodi:namedview
     id="namedview1"
     pagecolor="#ffffff"
     bordercolor="#000000"
     borderopacity="0.25"
     inkscape:showpageshadow="2"
     inkscape:pageopacity="0.0"
     inkscape:pagecheckerboard="0"
     inkscape:deskcolor="#d1d1d1"
     inkscape:document-units="mm"
     inkscape:zoom="2.8685466"
     inkscape:cx="344.4253"
     inkscape:cy="89.069497"
     inkscape:window-width="1920"
     inkscape:window-height="1001"
     inkscape:window-x="-9"
     inkscape:window-y="-9"
     inkscape:window-maximized="1"
     inkscape:current-layer="layer1" />
  <defs
     id="defs1" />
  <g
     inkscape:label="Layer 1"
     inkscape:groupmode="layer"
     id="layer1"
     transform="translate(-48.240112,-171.9803)">
    <path
       fill="#2574bb"
       opacity="1"
       d="m 154.69741,172.84048 c 0.86373,-0.56225 1.89943,-0.79683 2.91841,-0.84744 0.97095,-0.0514 1.9509,0.0528 2.88882,0.31093 0.42715,0.12651 0.84872,0.28991 1.22097,0.53951 0.29035,0.211 0.53737,0.52364 0.56567,0.89375 0.0129,0.2303 -0.0202,0.47518 -0.14023,0.67588 -0.32465,0.46146 -0.65444,0.91948 -0.9791,1.38095 -0.62099,-0.52537 -1.41439,-0.835 -2.2258,-0.87403 -0.53994,-0.036 -1.10604,0.012 -1.5898,0.27147 -0.24144,0.13296 -0.47132,0.3032 -0.62227,0.53737 -0.30193,0.44473 -0.38169,0.99754 -0.38898,1.52417 -0.002,0.46275 -8.6e-4,0.92549 0,1.38824 1.57564,-4.3e-4 3.15172,0 4.72736,0 0,0.94864 0,1.89729 4.2e-4,2.84593 -1.57564,0 -3.15128,8.7e-4 -4.72649,-4.2e-4 -0.005,3.44034 0,6.88025 -0.002,10.32016 -1.25442,4.3e-4 -2.50885,4.3e-4 -3.76284,0 -8.6e-4,-4.76552 -4.3e-4,-9.53106 -4.3e-4,-14.29658 0.006,-1.06658 0.1531,-2.16662 0.67503,-3.11269 0.33323,-0.63387 0.83971,-1.1708 1.44141,-1.5572 z"
       id="path6"
       style="stroke-width:0.0376241" />
    <path
       fill="#2574bb"
       opacity="1"
       d="m 73.85883,172.29196 c 0.550661,-0.0935 1.114615,-0.1124 1.672566,-0.0772 0.339231,0.0365 0.687468,0.073 0.999252,0.223 0.456311,0.20586 0.798973,0.621 0.959796,1.09061 0.110646,0.32893 0.122655,0.67931 0.122655,1.02368 -4.29e-4,1.667 0.0013,3.33442 -0.0022,5.00184 0.352525,-0.33751 0.775814,-0.59055 1.209823,-0.80883 0.798114,-0.38427 1.707733,-0.43788 2.579184,-0.39155 0.968802,0.0815 1.963336,0.32164 2.751586,0.9169 0.606413,0.43873 1.084595,1.04 1.420824,1.70645 0.351668,0.67031 0.576821,1.4041 0.684895,2.15333 0.16211,1.08973 0.15096,2.1992 0.05661,3.29495 -0.07762,0.75995 -0.220865,1.51903 -0.49405,2.2348 -0.247026,0.66045 -0.576821,1.29731 -1.030559,1.84069 -0.55838,0.64501 -1.280585,1.1605 -2.102716,1.40581 -0.995391,0.30921 -2.074412,0.38384 -3.094249,0.15396 -0.867161,-0.22944 -1.745472,-0.62056 -2.311572,-1.34449 -0.0026,0.30665 -0.08577,0.62657 -0.295487,0.85816 -0.201995,0.19599 -0.498339,0.23587 -0.767665,0.23331 -0.788251,0 -1.576502,0 -2.364752,-4.4e-4 -8.58e-4,-4.7368 0,-9.47358 -4.29e-4,-14.21038 0.0043,-1.7682 -0.0081,-3.5364 0.0064,-5.30461 m 4.705916,8.85345 c -0.391981,0.12566 -0.702478,0.44431 -0.859442,0.81913 -0.112789,0.27276 -0.09178,0.57382 -0.09264,0.86244 4.28e-4,1.86084 0,3.72169 0,5.58252 0.397126,0.33579 0.855581,0.61971 1.36164,0.75394 0.402274,0.1 0.822989,0.1188 1.234697,0.0738 0.449449,-0.0515 0.897612,-0.22687 1.221832,-0.55023 0.349952,-0.32765 0.551089,-0.77709 0.702477,-1.22354 0.289913,-0.92763 0.332799,-1.91102 0.3135,-2.87553 -0.04504,-0.86417 -0.1471,-1.77207 -0.624426,-2.517 -0.359815,-0.57425 -0.985098,-0.96151 -1.65584,-1.04385 -0.533506,-0.0609 -1.087169,-0.0467 -1.601804,0.11836 z"
       id="path7"
       style="stroke-width:0.0376241" />
    <path
       fill="#2574bb"
       opacity="1"
       d="m 53.539719,178.47059 c 1.095745,-0.20799 2.234377,-0.16426 3.318973,0.0866 0.789108,0.18484 1.564492,0.49962 2.186344,1.03012 0.223438,0.19214 0.404847,0.44818 0.454595,0.74408 0.08062,0.42973 -0.06261,0.85945 -0.233301,1.24886 -0.1664,0.36196 -0.372254,0.70719 -0.62614,1.01469 -0.283051,-0.29377 -0.617992,-0.5305 -0.963228,-0.74408 -0.348665,-0.21357 -0.717487,-0.40184 -1.113758,-0.50864 -0.621852,-0.17711 -1.28273,-0.18998 -1.92002,-0.0952 -0.673315,0.10635 -1.343629,0.42072 -1.754051,0.9821 -0.528788,0.71492 -0.764663,1.60824 -0.816555,2.48612 -0.04288,0.78868 0.01071,1.5898 0.212287,2.35575 0.196848,0.72692 0.608557,1.4221 1.245419,1.84497 0.39241,0.27276 0.858155,0.42457 1.330762,0.47904 0.470892,0.0511 0.951219,0.0463 1.416106,-0.0506 0.833282,-0.18183 1.627108,-0.59955 2.196638,-1.24284 0.266753,0.30363 0.469177,0.65658 0.647155,1.01769 0.152675,0.32679 0.291627,0.67503 0.289054,1.04171 -0.0095,0.29206 -0.09049,0.60255 -0.301491,0.8157 -0.332798,0.35167 -0.778815,0.56781 -1.217114,0.75865 -0.725636,0.31779 -1.512172,0.48076 -2.301709,0.51893 -1.021981,0.0703 -2.054255,-0.0365 -3.041499,-0.30493 -0.774097,-0.20241 -1.48601,-0.59954 -2.106575,-1.0996 -0.660021,-0.54466 -1.157931,-1.26343 -1.530613,-2.02852 -0.391552,-0.81742 -0.566529,-1.72103 -0.634289,-2.61993 -0.07762,-1.11332 -0.04718,-2.24896 0.242737,-3.33227 0.218292,-0.82556 0.642436,-1.58636 1.175943,-2.24896 0.476467,-0.60212 1.091885,-1.08159 1.763056,-1.44869 0.641151,-0.36411 1.358211,-0.57253 2.081274,-0.70077 z"
       id="path10"
       style="stroke-width:0.0376241" />
    <path
       fill="#2574bb"
       opacity="1"
       d="m 63.753955,178.89988 c 0.932777,-0.40141 1.955616,-0.58583 2.969878,-0.55709 0.934063,0.0189 1.888285,0.17797 2.719421,0.62399 0.760374,0.38255 1.412676,0.97653 1.856978,1.70345 0.711055,1.13692 0.912621,2.51271 0.896324,3.83232 -0.01416,0.46961 -0.02015,0.94136 -0.08492,1.40753 -2.719421,4.3e-4 -5.438843,0 -8.158265,4.3e-4 0.06176,0.95937 0.385978,1.9316 1.047285,2.64651 0.465745,0.5095 1.146351,0.76424 1.818809,0.85044 0.560524,0.0643 1.134771,0.0703 1.689721,-0.045 0.663879,-0.15612 1.306746,-0.43487 1.841109,-0.86417 0.214861,-0.17111 0.417285,-0.35724 0.624425,-0.53736 0.257748,0.33022 0.479899,0.6866 0.684466,1.05242 0.157392,0.29292 0.306637,0.59956 0.35853,0.9315 0.05918,0.38169 -0.125228,0.76252 -0.402274,1.01769 -0.506059,0.48118 -1.16565,0.75823 -1.823098,0.96408 -1.05586,0.32551 -2.175193,0.38469 -3.272226,0.32508 -1.02627,-0.0798 -2.063261,-0.26675 -2.993894,-0.7235 -0.693473,-0.35338 -1.327762,-0.83541 -1.817951,-1.44268 -0.443017,-0.54938 -0.783963,-1.17681 -1.032704,-1.83555 -0.335371,-0.9242 -0.459741,-1.91186 -0.481184,-2.89096 -0.02874,-1.05758 0.07205,-2.13702 0.455882,-3.1307 0.296773,-0.7355 0.699046,-1.43626 1.246277,-2.0148 0.522784,-0.55624 1.158788,-1.00569 1.857406,-1.31361 m 1.794792,2.09629 c -0.443015,0.15138 -0.825132,0.45673 -1.09403,0.83714 -0.401845,0.58411 -0.532219,1.30974 -0.531361,2.00751 1.622819,4.2e-4 3.245637,-4.3e-4 4.868456,4.2e-4 -0.01501,-0.60813 -0.08062,-1.22784 -0.32851,-1.78922 -0.112367,-0.23501 -0.229013,-0.47388 -0.418142,-0.65787 -0.289482,-0.28906 -0.688754,-0.44087 -1.086739,-0.5022 -0.469606,-0.0652 -0.958938,-0.0536 -1.409674,0.10418 z"
       id="path11"
       style="stroke-width:0.0376241" />
    <path
       fill="#2574bb"
       opacity="1"
       d="m 112.66795,178.5302 c 0.8633,-0.23545 1.78365,-0.24917 2.66024,-0.0802 0.83757,0.16254 1.63654,0.54765 2.25068,1.14507 0.66558,0.62314 1.08416,1.46071 1.37321,2.31457 0.2822,0.87703 0.38084,1.80165 0.40399,2.71942 0.0137,1.06744 -0.0373,2.14518 -0.28347,3.18774 -0.1827,0.73593 -0.46275,1.45256 -0.85945,2.10015 -0.46275,0.76294 -1.14249,1.39337 -1.94103,1.79136 -0.82814,0.38125 -1.75063,0.54122 -2.65938,0.50691 -0.80197,-0.0287 -1.59109,-0.27318 -2.28541,-0.67203 -0.28906,-0.16124 -0.52751,-0.39498 -0.73936,-0.64543 0.0103,2.31329 0.002,4.62615 0.006,6.93943 -1.25442,0.002 -2.50885,4.3e-4 -3.7637,8.5e-4 -0.002,-6.37161 0.002,-12.74281 -0.002,-19.114 0.68018,-0.12865 1.38523,-0.15396 2.06969,-0.0394 0.44816,0.0883 0.91819,0.24317 1.22655,0.59913 0.16726,0.17925 0.25518,0.41299 0.32508,0.64414 0.21228,-0.18912 0.40228,-0.40442 0.639,-0.5661 0.48419,-0.34737 0.99883,-0.67631 1.5808,-0.83156 m -1.11848,2.78547 c -0.39413,0.12694 -0.70076,0.45459 -0.84915,0.83543 -0.0952,0.2423 -0.081,0.50648 -0.0815,0.76165 0.002,1.84154 -0.002,3.68308 0.002,5.52419 0.41642,0.34309 0.89675,0.63128 1.42725,0.75351 0.67632,0.13552 1.4264,0.0854 2.02037,-0.29291 0.44088,-0.28262 0.74109,-0.73765 0.93622,-1.21582 0.37825,-0.93707 0.4413,-1.96592 0.41942,-2.96603 -0.0421,-0.84357 -0.14838,-1.72274 -0.59012,-2.46124 -0.3478,-0.59613 -0.99367,-0.98596 -1.67385,-1.06487 -0.5365,-0.0587 -1.09574,-0.0489 -1.61081,0.12609 z"
       id="path12"
       style="stroke-width:0.0376241" />
    <path
       fill="#2574bb"
       opacity="1"
       d="m 124.52088,178.5182 c 1.16435,-0.21014 2.36174,-0.2346 3.53554,-0.0893 0.94179,0.1235 1.90887,0.40699 2.62851,1.05543 0.59183,0.5172 0.95379,1.25313 1.11718,2.01351 0.25861,1.09532 0.18313,2.22794 0.196,3.34384 0.002,1.37323 -0.009,2.74688 0.007,4.1201 0.0334,0.96451 0.12909,1.97491 0.63085,2.82278 -0.45117,0.15953 -0.91348,0.29805 -1.39338,0.33279 -0.58712,0.0403 -1.21367,0.0304 -1.74675,-0.24917 -0.46147,-0.24016 -0.74966,-0.72092 -0.84144,-1.22269 -0.94521,0.94436 -2.26826,1.46671 -3.59687,1.50403 -1.03956,0.0664 -2.13145,-0.10635 -3.01963,-0.67718 -0.56995,-0.35338 -1.00569,-0.89461 -1.2913,-1.4963 -0.24703,-0.53093 -0.34438,-1.11933 -0.35853,-1.7013 -0.03,-0.81012 0.1205,-1.65713 0.58926,-2.33388 0.43057,-0.59569 0.99881,-1.09317 1.65069,-1.43412 0.80927,-0.43229 1.70301,-0.69089 2.6092,-0.81869 1.04728,-0.1604 2.10658,-0.25046 3.1663,-0.23846 -0.001,-0.45244 0.027,-0.91819 -0.12308,-1.35306 -0.10727,-0.33922 -0.34696,-0.63643 -0.66474,-0.79854 -0.44087,-0.22816 -0.9465,-0.28648 -1.43584,-0.30192 -0.53222,-0.007 -1.0683,0.0283 -1.58593,0.15696 -0.44602,0.0986 -0.86373,0.28777 -1.27544,0.48033 -0.42929,0.1827 -0.83285,0.41815 -1.24971,0.627 -0.32422,-0.38984 -0.56352,-0.84358 -0.73335,-1.31962 -0.0969,-0.27361 -0.18785,-0.58754 -0.0515,-0.86458 0.18097,-0.36411 0.53865,-0.59441 0.88174,-0.78868 0.73206,-0.39327 1.54262,-0.61414 2.35532,-0.76938 m 2.56288,6.95959 c -0.62185,0.0784 -1.25871,0.15182 -1.83082,0.42543 -0.56523,0.26247 -1.09446,0.71878 -1.25743,1.34192 -0.14366,0.59269 -0.0768,1.26343 0.28349,1.76948 0.20713,0.33624 0.58282,0.53051 0.96194,0.60341 0.78867,0.14668 1.62711,0.0103 2.32915,-0.37782 0.2912,-0.14967 0.55109,-0.36454 0.74279,-0.63085 0.0978,-0.13467 0.15011,-0.30021 0.14539,-0.46662 -0.001,-0.91734 -4.4e-4,-1.83467 -8.6e-4,-2.75201 -0.46017,-0.0159 -0.91734,0.0421 -1.37365,0.0871 z"
       id="path13"
       style="stroke-width:0.0376241" />
    <path
       fill="#2574bb"
       opacity="1"
       d="m 139.60314,178.40326 c 0.98638,-0.12909 1.99679,-0.0618 2.96344,0.1694 0.8024,0.19813 1.5958,0.52922 2.20822,1.09703 0.35038,0.31178 0.45845,0.82214 0.35123,1.26772 -0.14281,0.60899 -0.45458,1.16994 -0.84314,1.65627 -0.21572,-0.21314 -0.44945,-0.40742 -0.70291,-0.57339 -0.42543,-0.28519 -0.87874,-0.54294 -1.37536,-0.67804 -0.62228,-0.17711 -1.28316,-0.18998 -1.92045,-0.0947 -0.60384,0.0961 -1.20038,0.35509 -1.61681,0.81312 -0.5348,0.62013 -0.80584,1.42597 -0.91434,2.22709 -0.081,0.66816 -0.0686,1.34663 0.0206,2.01351 0.0883,0.69647 0.29505,1.3968 0.72135,1.96463 0.44644,0.61969 1.16523,1.02283 1.92002,1.11675 1.34148,0.20757 2.78932,-0.26032 3.69938,-1.28059 0.2749,0.31007 0.48032,0.67546 0.66173,1.04643 0.14496,0.31865 0.28004,0.65616 0.2779,1.01212 -0.007,0.32466 -0.11836,0.66259 -0.36754,0.88174 -0.38426,0.3624 -0.87616,0.58155 -1.35949,0.77753 -0.69047,0.28262 -1.43584,0.40399 -2.17819,0.43916 -1.10776,0.0674 -2.22709,-0.0742 -3.28595,-0.4057 -0.75094,-0.26247 -1.44485,-0.68448 -2.02896,-1.22355 -0.56181,-0.53737 -0.99539,-1.19696 -1.32347,-1.89858 -0.36111,-0.79082 -0.52536,-1.6567 -0.5914,-2.51914 -0.0789,-1.12706 -0.0494,-2.27769 0.25046,-3.37388 0.22171,-0.82341 0.65015,-1.58121 1.18623,-2.24037 0.47346,-0.59226 1.08245,-1.06529 1.7459,-1.42726 0.76552,-0.43572 1.63568,-0.64501 2.50157,-0.76724 z"
       id="path14"
       style="stroke-width:0.0376241" />
    <path
       fill="#2574bb"
       opacity="1"
       d="m 174.25185,178.52935 c 1.01169,-0.23073 2.06541,-0.24446 3.08868,-0.0784 0.87702,0.15138 1.75576,0.42285 2.4814,0.95464 0.24659,0.17798 0.49019,0.38726 0.60899,0.67588 0.16511,0.37311 0.1068,0.80241 -0.0266,1.17595 -0.17068,0.4859 -0.43144,0.93749 -0.75394,1.33763 -0.3641,-0.36968 -0.80112,-0.65574 -1.25014,-0.91005 -0.79553,-0.45203 -1.74375,-0.57511 -2.64222,-0.45245 -0.64802,0.0837 -1.29946,0.34737 -1.73732,0.847 -0.53051,0.62056 -0.79727,1.42383 -0.90105,2.22366 -0.0858,0.70204 -0.064,1.41524 0.0382,2.11472 0.0947,0.68061 0.31693,1.3595 0.74751,1.90458 0.44516,0.58283 1.13306,0.96365 1.85826,1.05758 1.34707,0.21358 2.80477,-0.25261 3.71868,-1.27844 0.30964,0.35724 0.54036,0.77538 0.73249,1.2051 0.16297,0.37783 0.27319,0.80756 0.15139,1.21369 -0.0584,0.25003 -0.22129,0.45974 -0.41772,0.61842 -0.39798,0.32079 -0.87101,0.5335 -1.34533,0.71449 -0.835,0.32979 -1.74247,0.4147 -2.63279,0.42113 -0.5794,0.007 -1.15622,-0.0605 -1.72447,-0.16596 -0.86201,-0.15225 -1.70602,-0.45932 -2.41664,-0.97781 -0.67203,-0.44859 -1.21325,-1.07516 -1.61853,-1.76992 -0.4709,-0.77153 -0.74451,-1.6494 -0.8603,-2.5423 -0.12266,-0.9688 -0.14023,-1.95433 -0.0219,-2.92442 0.10977,-0.90875 0.38727,-1.80552 0.88303,-2.58046 0.43959,-0.70763 1.0074,-1.34749 1.70902,-1.8038 0.6939,-0.49149 1.49845,-0.81613 2.3313,-0.98039 z"
       id="path15"
       style="stroke-width:0.0376241" />
    <path
       fill="#2574bb"
       opacity="1"
       d="m 88.268635,178.69618 c 0.344806,-0.007 0.685324,-0.075 1.030558,-0.0793 0.634289,-0.0154 1.29388,0.0643 1.855692,0.37954 0.271041,0.12867 0.491048,0.35382 0.631286,0.61757 0.177978,0.34009 0.236304,0.73079 0.240164,1.11076 0.0085,1.95861 -0.0073,3.91724 0.0081,5.87542 0.02358,0.50949 0.01329,1.037 0.201993,1.51947 0.09006,0.24402 0.250456,0.46488 0.467891,0.61027 0.305351,0.21701 0.687038,0.28476 1.054145,0.30278 0.748366,0.0365 1.531042,-0.10167 2.159327,-0.52923 0.31307,-0.21614 0.572961,-0.5618 0.564384,-0.95764 4.28e-4,-2.94972 0.003,-5.89988 -0.0017,-8.85002 0.824275,-0.0828 1.687153,-0.16983 2.482696,0.12265 0.493196,0.17755 0.904903,0.56052 1.105609,1.046 0.15311,0.35166 0.18012,0.74107 0.17798,1.11976 -8.5e-4,3.6076 8.6e-4,7.2152 -0.003,10.82279 -0.818695,4.3e-4 -1.637401,8.6e-4 -2.455672,0 -0.256031,-0.007 -0.530933,-0.0193 -0.748794,-0.16854 -0.150532,-0.10464 -0.228156,-0.28005 -0.269755,-0.45202 -0.07376,-0.27576 -0.09135,-0.56267 -0.09178,-0.84701 -0.346522,0.44258 -0.795542,0.79425 -1.280156,1.07345 -0.510777,0.32292 -1.103465,0.48847 -1.696583,0.57295 -0.706338,0.0905 -1.424255,0.0918 -2.130164,0.005 -0.629142,-0.0837 -1.266433,-0.26117 -1.781498,-0.64587 -0.632573,-0.47689 -1.073874,-1.18579 -1.262145,-1.95218 -0.207999,-0.87101 -0.241021,-1.77078 -0.254316,-2.66238 -0.01117,-2.67783 -0.003,-5.35607 -0.0043,-8.03389 z"
       id="path16"
       style="stroke-width:0.0376241" />
    <path
       fill="#2574bb"
       opacity="1"
       d="m 146.3856,178.7129 c 0.52021,-0.091 1.05329,-0.11408 1.58123,-0.0871 0.45459,0.0331 0.92677,0.10168 1.31832,0.35338 0.37869,0.22645 0.65188,0.60985 0.76552,1.03443 0.0935,0.32894 0.0969,0.67332 0.0969,1.01254 -0.005,3.65306 0.007,7.30611 -0.006,10.95918 -0.5884,0.11578 -1.19482,0.10931 -1.79136,0.0789 -0.36453,-0.0425 -0.74279,-0.091 -1.06315,-0.28263 -0.42458,-0.24145 -0.70591,-0.68403 -0.81399,-1.15278 -0.0823,-0.33409 -0.091,-0.67976 -0.0896,-1.02155 0.001,-3.63162 -0.002,-7.26324 0.001,-10.89442 z"
       id="path17"
       style="stroke-width:0.0376241" />
    <path
       fill="#2574bb"
       opacity="1"
       d="m 163.60575,178.71118 c 0.52794,-0.0879 1.06701,-0.1145 1.60138,-0.084 0.41085,0.0326 0.83371,0.091 1.19995,0.29334 0.43102,0.22516 0.74795,0.64458 0.86931,1.11333 0.0978,0.36539 0.0901,0.74708 0.0901,1.12234 0,3.6076 -4.2e-4,7.21476 4.3e-4,10.82236 -0.39627,0.10373 -0.81055,0.0905 -1.21582,0.1059 -0.49149,-0.006 -0.99711,-0.027 -1.45857,-0.20971 -0.37569,-0.15611 -0.67974,-0.45974 -0.84915,-0.82728 -0.20457,-0.42073 -0.23887,-0.89762 -0.23759,-1.35822 0,-3.65949 -8.6e-4,-7.31897 0,-10.97804 z"
       id="path18"
       style="stroke-width:0.0376241" />
  </g>
</svg>
