<?xml version="1.0" encoding="utf-8"?>
<!-- Generator: Adobe Illustrator 12.0.0, SVG Export Plug-In . SVG Version: 6.00 Build 51448)  -->
<!DOCTYPE svg PUBLIC "-//W3C//DTD SVG 1.1//EN" "http://www.w3.org/Graphics/SVG/1.1/DTD/svg11.dtd" [
	<!ENTITY ns_svg "http://www.w3.org/2000/svg">
	<!ENTITY ns_xlink "http://www.w3.org/1999/xlink">
]>
<svg  version="1.1" id="Layer_1" xmlns="&ns_svg;" xmlns:xlink="&ns_xlink;" width="192.756" height="71.857"
	 viewBox="0 0 192.756 71.857" overflow="visible" enable-background="new 0 0 192.756 71.857" xml:space="preserve">
<g>
	<polygon fill-rule="evenodd" clip-rule="evenodd" fill="#ED1C29" points="0,0 192.756,0 192.756,71.857 0,71.857 0,0 	"/>
	<path fill-rule="evenodd" clip-rule="evenodd" d="M171.259,31.692c0.72-1.543,1.646-2.777,2.776-3.703l4.32-1.543
		c-2.16,1.234-4.011,3.497-5.451,6.891l-1.44,3.806c-0.514,1.234-1.028,2.159-1.337,2.571c-1.131,1.338-2.982,1.955-5.349,1.748
		c1.132-0.205,2.058-0.926,2.88-1.953c0.617-0.824,1.132-1.955,1.852-3.601C170.333,33.749,170.848,32.309,171.259,31.692
		L171.259,31.692z M168.584,43.213l-4.217,2.469c-1.749,0.822-2.982,1.439-3.497,1.85c-0.926,0.721-1.44,1.441-1.44,2.264
		c0,0.205,0,0.514,0.206,0.514c-0.411,0-0.72-0.309-1.028-0.822c-0.309-0.617-0.617-0.822-0.823-0.926
		c-0.103-0.514,0.515-1.336,1.44-2.365c0.925-0.824,1.748-1.439,2.571-1.75l-7.406,0.412c-3.703,0.824-7.2,2.674-10.389,5.555
		l3.292-4.73c2.571-1.543,5.245-2.572,7.92-2.984c1.646-0.205,3.703-0.309,6.377-0.205l5.555-0.104
		c1.852-0.41,3.6-1.439,5.143-2.982C171.361,40.846,170.127,42.08,168.584,43.213L168.584,43.213z"/>
	<path fill-rule="evenodd" clip-rule="evenodd" d="M119.418,35.292c0-0.72-0.205-1.234-0.515-1.646
		c-0.514-0.617-1.748-0.926-3.497-0.926h-5.554l-1.954,11.11h2.365l1.543-9.361h2.88c1.132,0,1.749,0.206,2.058,0.514
		c0.205,0.206,0.205,0.617,0.205,1.131l-0.103,1.029l-1.234,6.687h2.366l1.234-7.201L119.418,35.292L119.418,35.292z
		 M122.606,34.058c-1.439,1.029-2.16,2.469-2.468,4.32l-0.206,1.337c0,1.131,0.411,2.16,1.028,2.982
		c0.411,0.516,0.926,0.824,1.646,0.926l2.263,0.207h3.086c-0.205,1.232-1.131,1.852-2.571,1.852h-5.245l-0.31,1.748h5.657
		c2.777,0,4.423-1.441,4.938-4.32l1.852-10.389h-5.246C125.075,32.72,123.532,33.132,122.606,34.058L122.606,34.058z
		 M135.258,36.115l0.104-0.309c0-0.617,0.411-1.029,0.926-1.234l1.748-0.103h5.349l0.309-1.749h-6.377
		c-2.571,0-4.012,1.132-4.423,3.395c-0.206,0.926-0.103,1.543,0.309,2.057c0.514,0.617,1.439,0.823,2.777,0.823h2.674
		c0.926,0,1.44,0.206,1.749,0.515l0.206,0.822v0.309c-0.206,0.926-1.029,1.439-2.366,1.439h-6.274l-0.309,1.75h7.715
		c0.822,0,1.646-0.309,2.263-0.926c0.617-0.721,1.131-1.441,1.234-2.469l0.103-0.721c0-0.617-0.206-1.131-0.515-1.44
		c-0.514-0.72-1.337-1.029-2.571-1.029h-2.88c-0.72,0-1.337-0.103-1.543-0.411C135.361,36.732,135.258,36.526,135.258,36.115
		L135.258,36.115z M129.602,34.469l-1.338,7.611h-1.954l-2.365-0.205c-0.412-0.104-0.823-0.309-1.029-0.617
		c-0.617-0.617-0.72-1.646-0.514-2.983c0.309-1.543,1.028-2.674,2.365-3.292c0.515-0.309,1.337-0.514,2.777-0.514H129.602
		L129.602,34.469z M16.869,34.058c-1.234,1.029-2.057,2.469-2.366,4.217L14.4,39.406c0,1.234,0.309,2.264,1.029,3.086
		c0.72,0.926,2.16,1.338,4.012,1.338h4.011l0.514-2.881h-3.292l-1.954-0.309C18.206,40.332,18,39.818,18,39.201l0.103-0.823
		c0.206-1.029,0.514-1.749,1.029-2.16c0.514-0.412,1.337-0.514,2.571-0.514h3.188l0.514-2.983h-4.114
		C19.44,32.72,18,33.132,16.869,34.058L16.869,34.058z M31.68,35.601h3.909l0.514-2.88H31.68c-3.806,0-5.966,1.852-6.583,5.555
		l-0.103,1.44c0,1.131,0.309,2.057,0.823,2.674c0.823,0.926,2.16,1.441,4.011,1.441h4.32l0.514-2.777h-4.114
		c-0.926,0-1.646-0.207-1.749-0.412l-0.206-0.721l0.103-0.309h6.172l0.514-2.673h-6.172v-0.206c0.103-0.412,0.412-0.72,0.72-0.926
		L31.68,35.601L31.68,35.601z M42.686,35.704c0.617,0,1.029,0.103,1.131,0.206l0.103,0.411l-0.103,0.823l-1.131,6.687h3.394
		l1.235-6.892l0.103-1.234c0-0.72-0.103-1.337-0.514-1.852c-0.72-0.823-1.852-1.132-3.6-1.132h-5.451l-1.955,11.11h3.395l1.44-8.126
		H42.686L42.686,35.704z M50.298,35.498l-0.926,4.629c-0.206,1.234,0,2.16,0.514,2.777s1.337,0.926,2.366,0.926h2.88l0.514-2.777
		h-1.543c-0.514,0-0.925-0.104-1.028-0.309l-0.103-0.617v-0.721l0.72-3.909h2.983l0.514-2.777l-2.88-0.103l0.72-3.188h-3.497
		l-0.617,3.188h-2.366l-0.514,2.88H50.298L50.298,35.498z M63.258,35.498v0.206l-0.309,2.057h3.394l0.309-1.954l0.103-1.029
		c0-0.514-0.103-1.028-0.412-1.337c-0.412-0.411-1.234-0.72-2.468-0.72h-4.938l-1.954,11.11h3.394l1.543-8.435h0.72L63.258,35.498
		L63.258,35.498L63.258,35.498z M67.783,35.601h5.04c1.029,0,1.543,0.103,1.749,0.309c0.206,0.206,0.206,0.411,0.206,0.823v0.103
		h-3.395c-1.543,0-2.777,0.309-3.6,0.823c-0.72,0.617-1.337,1.543-1.542,2.778c-0.206,1.027,0,1.852,0.514,2.469
		s1.44,0.926,2.571,0.926h7.714l1.234-6.79l0.103-1.028c0-0.926-0.308-1.646-0.72-2.16c-0.617-0.72-1.749-1.132-3.394-1.132h-5.966
		L67.783,35.601L67.783,35.601z M81.155,29.84l-2.469,13.99h3.6l2.469-13.99H81.155L81.155,29.84z M93.498,32.72l-4.629,9.36
		l-1.337-9.36h-2.366l1.955,11.11h3.085l4.423-9.155l1.131,9.155h3.291l5.555-11.11h-2.365l-4.629,9.36l-1.337-9.36H93.498
		L93.498,32.72z M105.635,32.72l-1.954,11.11h2.16l1.954-11.11H105.635L105.635,32.72z M105.841,31.692h2.16l0.411-1.852h-2.263
		L105.841,31.692L105.841,31.692z M74.264,39.51l-0.309,1.543h-3.085c-0.823,0-1.131-0.207-1.029-0.617
		c0-0.412,0.206-0.617,0.412-0.721c0.206-0.205,0.617-0.205,1.131-0.205H74.264L74.264,39.51z"/>
</g>
</svg>
