<?xml version="1.0" encoding="UTF-8"?>
<!DOCTYPE svg PUBLIC "-//W3C//DTD SVG 1.1//EN" "http://www.w3.org/Graphics/SVG/1.1/DTD/svg11.dtd">
<!-- Creator: CorelDRAW -->
<svg xmlns="http://www.w3.org/2000/svg" xml:space="preserve" width="50.3336mm" height="50.3336mm" style="shape-rendering:geometricPrecision; text-rendering:geometricPrecision; image-rendering:optimizeQuality; fill-rule:evenodd; clip-rule:evenodd"
viewBox="0 0 50.4847 50.4847"
 xmlns:xlink="http://www.w3.org/1999/xlink">
 <defs>
  <style type="text/css">
   <![CDATA[
    .str0 {stroke:white;stroke-width:0.501501}
    .fil1 {fill:white}
    .fil0 {fill:#000033}
    .fil2 {fill:#000066}
   ]]>
  </style>
 </defs>
 <g id="Layer_x0020_1">
  <metadata id="CorelCorpID_0Corel-Layer"/>
  <g id="_271142192">
   <path id="_312692232" class="fil0 str0" d="M25.0663 0.25075c13.9037,0 25.1675,11.2638 25.1675,25.1676 0,13.5517 -11.2638,24.8155 -25.1675,24.8155 -13.7278,0 -24.8155,-11.2638 -24.8155,-24.8155 0,-13.9038 11.0878,-25.1676 24.8155,-25.1676z"/>
   <path id="_306352096" class="fil1" d="M25.3513 1.33309c13.323,0 24.1865,10.8635 24.1865,24.1866 0,13.3307 -10.8635,24.1941 -24.1865,24.1941 -13.3152,0 -24.1787,-10.8634 -24.1787,-24.1941 0,-13.3231 10.8635,-24.1866 24.1787,-24.1866z"/>
   <path id="_312692544" class="fil2" d="M1.13078 26.2983l17.6384 4.00408 5.79424 10.6614 -7.93604 -8.29582 -15.4966 -6.36966zm24.032 -26.062c13.8102,0 25.071,11.2608 25.071,25.071 0,13.8182 -11.2608,25.079 -25.071,25.079 -13.8022,0 -25.063,-11.2608 -25.063,-25.079 0,-13.8102 11.2608,-25.071 25.063,-25.071zm-0.0239717 1.59036c12.9151,0 23.4487,10.5256 23.4487,23.4487 0,0.135907 -0.00802401,0.279737 -0.00802401,0.415644l-46.8732 0.00792371c0,-0.135806 -0.00802401,-0.287661 -0.00802401,-0.423567 0,-12.9231 10.5255,-23.4487 23.4406,-23.4487zm24.1119 24.4716l-17.6384 4.00408 -5.79424 10.6614 7.93604 -8.29582 15.4966 -6.36966zm-24.056 22.0102l-1.71032 -2.78122 1.71032 -2.82124 1.70229 2.82124 -1.70229 2.78122z"/>
   <g>
    <path id="_312255936" class="fil2" d="M17.0912 23.8128l6.32974 -14.6335 4.73126 0 -1.48655 14.6335 -3.78813 0 0.287661 -2.90118 -2.66929 0 -1.23078 2.90118 -2.1739 0zm6.24178 -4.61942l0.671409 -6.38571 -2.78122 6.38571 2.10981 0z"/>
    <path id="_306336472" class="fil2" d="M12.1203 20.9197c-0.423668,1.54241 1.66227,1.54241 2.0379,0l0.431591 -1.5025 0.00802401 0 2.1738 0 -0.423567 1.5025c-1.08695,3.85213 -9.07896,3.90007 -8.00806,-0.00802401l2.32576 -8.41558c1.33459,-4.41962 9.24677,-4.55553 8.03193,0l-0.471511 1.65435 -2.16588 0 0.447639 -1.65435c0.455463,-1.55846 -1.62245,-1.55846 -2.06197,0l-2.32566 8.4236z"/>
    <path id="_306338968" class="fil2" d="M28.1363 23.8128l6.32964 -14.6335 4.73136 0 -1.48655 14.6335 -3.78823 0 0.287761 -2.90118 -2.66939 0 -1.23078 2.90118 -2.1738 0zm6.24178 -4.61942l0.671309 -6.38571 -2.78122 6.38571 2.10991 0z"/>
   </g>
  </g>
 </g>
</svg>
