<?xml version="1.0" encoding="UTF-8" standalone="no"?>
<svg
   xmlns:dc="http://purl.org/dc/elements/1.1/"
   xmlns:cc="http://creativecommons.org/ns#"
   xmlns:rdf="http://www.w3.org/1999/02/22-rdf-syntax-ns#"
   xmlns:svg="http://www.w3.org/2000/svg"
   xmlns="http://www.w3.org/2000/svg"
   width="500"
   height="110"
   viewBox="0 0 132.29166 29.104167"
   version="1.1"
   id="svg8">
  <defs
     id="defs2" />
  <metadata
     id="metadata5">
    <rdf:RDF>
      <cc:Work
         rdf:about="">
        <dc:format>image/svg+xml</dc:format>
        <dc:type
           rdf:resource="http://purl.org/dc/dcmitype/StillImage" />
        <dc:title></dc:title>
      </cc:Work>
    </rdf:RDF>
  </metadata>
  <g
     id="layer1">
    <path
       id="path922"
       style="font-style:normal;font-variant:normal;font-weight:normal;font-stretch:normal;font-size:13.0711px;line-height:1.25;font-family:'Friz Quadrata';-inkscape-font-specification:'Friz Quadrata';fill:#7f181a;fill-opacity:1;stroke-width:0.273431"
       d="m 76.771716,10.20909 c -2.767107,0 -4.68073,1.903172 -4.68073,4.342159 0,2.28587 1.716782,4.265627 4.418263,4.265627 2.843671,0 4.867095,-1.662632 4.867095,-4.484421 0,-2.48274 -1.957836,-4.123365 -4.604628,-4.123365 z M 36.80196,10.24195 c -0.04376,0.0328 -0.07633,0.04404 -0.131016,0.05491 -0.0656,0.02191 -0.120306,0.0108 -0.185933,0.0108 h -4.691972 c 0.174997,0.109371 0.273482,0.240665 0.404728,0.404727 0.109372,0.164052 0.163879,0.502933 0.163879,0.535743 v 6.267204 c 0,0.339058 -0.05472,0.601441 -0.295329,0.863937 -0.09843,0.109371 -0.174893,0.141926 -0.306139,0.207552 h 5.621633 l 0.524932,-1.913801 c -0.514047,0.459354 -0.60157,0.634661 -1.596852,0.754968 -0.546866,0.05472 -1.26879,-0.05494 -1.629716,-0.197173 v -2.373438 h 0.831505 c 0.07656,0 0.37186,0.0223 0.557795,0.153501 0.164061,0.109371 0.251333,0.218363 0.316949,0.404295 v -1.880937 c -0.05464,0.02185 -0.109197,0.04389 -0.163878,0.06573 -0.120307,0.0328 -0.207877,0.02163 -0.328191,0.02163 h -1.202938 v -2.023199 h 1.246609 c 0.07656,0 0.371862,0.06547 0.557796,0.196742 0.153117,0.10937 0.229578,0.196876 0.306138,0.371865 z m 1.106513,0.06573 c 0.07656,0.05464 0.382628,0.415436 0.535742,0.721677 0.164063,0.349984 0.185934,0.601646 0.185934,0.995383 v 5.26101 c 0,0.360922 -0.08717,0.644987 -0.251226,0.918418 -0.09843,0.164061 -0.175193,0.251864 -0.31738,0.383107 h 2.49365 c -0.14218,-0.131243 -0.229757,-0.219046 -0.328191,-0.383107 -0.19687,-0.30624 -0.251225,-0.546677 -0.251225,-0.907607 v -3.860899 l 2.876325,3.860899 c 0.262487,0.349984 0.645423,0.71097 1.476645,1.148454 0.481238,0.262496 0.809278,0.361081 1.345196,0.470452 l 0.0108,-7.360746 c 0,-0.284368 0.04389,-0.459738 0.175123,-0.711297 0.109371,-0.207805 0.207802,-0.37169 0.371864,-0.535744 h -2.417116 c 0.174997,0.164054 0.251556,0.339055 0.371863,0.557796 0.109373,0.240623 0.175123,0.404572 0.175123,0.678003 v 3.904572 L 40.52232,10.30768 Z m 8.623352,0 -0.481259,1.782786 c 0.185924,-0.153126 0.306191,-0.229883 0.524932,-0.317383 0.218741,-0.10937 0.481288,-0.174689 0.590659,-0.174689 h 0.885986 l 0.109397,0.03286 0.0108,5.884097 c 0,0.349994 -0.07659,0.601441 -0.295329,0.863937 -0.0875,0.0875 -0.142412,0.142232 -0.240848,0.218795 h 3.500278 C 50.939574,18.47777 50.840784,18.379282 50.720476,18.193349 50.49079,17.854301 50.490872,17.788573 50.490872,17.383896 V 11.67492 l 0.185931,-0.07654 h 0.623522 c 0.240621,0 0.492269,0.09836 0.623519,0.229604 0.05464,0.07656 0.163978,0.185706 0.229605,0.316949 l 0.454885,-1.776299 c 0.13383,0.07112 0.229777,0.153584 0.331218,0.288843 0.120307,0.16406 0.197175,0.601693 0.197175,0.656383 v 5.293441 c 0,1.115591 0.929481,1.892181 2.023199,2.078115 1.060909,0.185933 2.023403,-0.31718 2.526513,-1.115592 v 1.028247 h 2.843894 c -0.164051,-0.09844 -0.251682,-0.185887 -0.361054,-0.339002 -0.207804,-0.295303 -0.196742,-0.568909 -0.196742,-0.951712 v -6.059221 c 0,-0.0328 0.0656,-0.393736 0.185932,-0.557795 0.120309,-0.153117 0.207813,-0.273305 0.371864,-0.382676 h -3.390879 c 0.174996,0.109371 0.262797,0.218622 0.383107,0.382676 0.120307,0.153123 0.163878,0.426499 0.163878,0.524932 v 4.484421 c 0,0.831221 -0.426703,1.662532 -1.21418,1.629715 -0.765596,-0.02186 -1.082729,-0.459308 -1.082729,-1.640526 v -4.462368 c 0,-0.0328 0.06561,-0.404672 0.185932,-0.557795 0.131252,-0.164051 0.240847,-0.262618 0.42678,-0.361055 H 52.6239 Z m 14.313304,0 c 0.120317,0.07656 0.18621,0.131044 0.273711,0.240415 0.120306,0.16406 0.240411,0.645628 0.240411,0.678435 l 0.0108,6.299635 c 0,0.371867 -0.09843,0.645247 -0.371865,0.896798 -0.07656,0.07656 -0.142105,0.109496 -0.229604,0.175123 h 3.456173 c -0.196867,-0.131244 -0.317102,-0.24046 -0.415536,-0.459209 -0.153116,-0.306241 -0.131017,-0.568731 -0.131017,-0.929661 v -2.13303 l 1.356006,2.548566 c 0.0656,0.131252 0.328244,0.688993 0.732919,0.896797 0.535917,0.273433 1.334005,0.05448 1.738679,0.05448 l 0.74935,0.0082 c -0.002,0.0011 -0.0032,0.002 -0.0052,0.003 h 3.499847 c -0.18591,-0.109324 -0.295333,-0.208063 -0.404704,-0.38306 -0.19687,-0.295304 -0.163879,-0.579547 -0.163879,-0.94047 v -6.015548 c 0,-0.0328 0.05485,-0.371692 0.175121,-0.535743 0.131244,-0.164063 0.207552,-0.295357 0.393485,-0.404728 H 68.23917 c 0.207806,0.109371 0.295104,0.218921 0.426348,0.393918 0.120306,0.16405 0.16431,0.513743 0.16431,0.546553 v 6.288825 c 0,0.349994 -0.06579,0.623752 -0.317381,0.864369 -0.03436,0.03437 -0.06483,0.0584 -0.09642,0.08259 -0.298783,-0.28636 -0.514187,-0.520117 -0.767943,-0.881231 -0.568734,-0.842159 -0.787249,-1.378112 -1.618472,-2.712445 l -0.207985,-0.339001 0.09859,-0.04368 c 0.05472,-0.02183 1.378104,-0.568911 1.41092,-1.88137 0.01096,-1.170282 -0.678333,-2.31853 -2.472029,-2.31853 z m 20.64191,0 c 0.07656,0.05464 0.38306,0.415436 0.536174,0.721677 0.164063,0.349984 0.185934,0.601646 0.185934,0.995383 v 5.26101 c 0,0.360922 -0.0876,0.644987 -0.251658,0.918418 -0.09843,0.164061 -0.174761,0.251864 -0.316948,0.383107 h 2.493644 c -0.142179,-0.131243 -0.229753,-0.219046 -0.328184,-0.383107 -0.196869,-0.30624 -0.251659,-0.546677 -0.251659,-0.907607 v -3.860899 l 2.876324,3.860899 c 0.262495,0.349984 0.645423,0.71097 1.476645,1.148454 0.481237,0.262496 0.809267,0.361081 1.345193,0.470452 l 0.01121,-7.360746 c 0,-0.284368 0.04343,-0.459738 0.174687,-0.711297 0.109379,-0.207805 0.207814,-0.37169 0.371866,-0.535744 h -2.417122 c 0.174997,0.164054 0.251559,0.339055 0.371866,0.557796 0.109371,0.240623 0.175123,0.404572 0.175123,0.678003 v 3.904572 L 84.10129,10.30768 Z m -52.869543,4.43e-4 c -2.822025,0.01056 -4.563365,1.756456 -4.583872,4.155795 -0.02187,3.029602 2.570209,4.812363 5.840427,4.276436 l 1.279903,-0.218796 0.612277,-1.782784 -0.885986,0.371865 c -0.645294,0.284367 -1.07187,0.38298 -1.782787,0.393914 -1.85932,0.02186 -2.613984,-1.465761 -2.603047,-2.996964 0.01094,-1.214023 0.131629,-2.920229 2.198754,-2.974912 0.853099,-0.02183 1.673287,0.371719 1.979528,0.645143 l -0.05492,-1.738681 -1.42173,-0.109397 c -0.197554,-0.01504 -0.390417,-0.02233 -0.578551,-0.02163 z m 47.979531,1.13721 c 1.651517,0 2.318528,1.771847 2.318528,3.456173 0,1.378086 -0.590765,2.668342 -2.143839,2.668342 -1.421838,0 -2.274855,-1.727869 -2.274855,-3.401258 0,-1.476513 0.700208,-2.723257 2.100166,-2.723257 z m -12.919245,0.153071 h 0.339433 c 0.678107,0 1.016834,0.60147 0.994951,1.345195 -0.0328,0.874978 -0.798467,1.421651 -1.334384,1.465403 z" />
    <path
       id="path950"
       style="font-style:normal;font-variant:normal;font-weight:normal;font-stretch:normal;font-size:11.9282px;line-height:1.25;font-family:'Friz Quadrata';-inkscape-font-specification:'Friz Quadrata';fill:#f1ce00;fill-opacity:1;stroke:#7f181a;stroke-width:0.249521;stroke-opacity:1"
       d="m 119.5192,10.602141 c -2.04221,0.101471 -3.83939,1.76869 -3.82068,3.883385 0.01,2.51518 2.05596,3.952708 4.26173,3.912785 0.95783,-0.01999 2.20502,-0.239578 2.46511,-0.339433 V 14.36575 h -2.44522 c 0.1597,0.109789 0.23963,0.199596 0.33943,0.36927 0.0898,0.159692 0.13967,0.279485 0.13967,0.479098 v 1.966555 c -0.0299,0.01992 -0.0496,0.01991 -0.0796,0.01991 -0.03,0.01 -0.0401,0.01988 -0.08,0.01988 h -0.50894 c -1.22764,0 -1.93628,-1.377213 -1.93628,-2.944212 0.01,-0.988102 0.28919,-2.355643 2.0059,-2.495379 0.49904,-0.04987 1.21779,0.229569 1.4174,0.359325 l 0.42938,0.259439 -0.01,-1.567017 c -0.47908,-0.159694 -1.09807,-0.189674 -1.76678,-0.229604 -0.13787,-0.0074 -0.27507,-0.0076 -0.41121,-9.21e-4 z m 7.62019,9.2e-4 c -2.52516,0 -4.27168,1.73678 -4.27168,3.962512 0,2.085998 1.56685,3.892466 4.03213,3.892466 2.59502,0 4.44162,-1.517177 4.44162,-4.092234 0,-2.265662 -1.78671,-3.762744 -4.20207,-3.762744 z m -24.8163,0.08994 c 0.27946,0.08983 0.51888,0.369352 0.51888,0.708704 0.01,0.09981 -0.01,0.159632 -0.0397,0.259439 l -1.98602,5.748758 c -0.0898,0.22956 -0.2096,0.349599 -0.35932,0.529257 -0.0998,0.119773 -0.16,0.209351 -0.27977,0.309167 h 2.53516 c -0.16967,-0.04995 -0.40909,-0.159533 -0.51888,-0.409052 -0.0998,-0.22956 -0.0699,-0.449239 0.01,-0.698758 l 0.40905,-1.197746 h 2.26578 l 0.39954,1.20769 c 0.0898,0.249528 0.10937,0.449271 -0.0104,0.688814 -0.11977,0.239545 -0.32932,0.359139 -0.49899,0.409052 h 3.5833 c -0.18964,-0.169675 -0.29955,-0.279477 -0.44926,-0.479099 -0.14971,-0.199615 -0.24961,-0.329064 -0.33944,-0.568606 l -2.35527,-6.507639 z m 6.35196,0 c 0.10979,0.06987 0.16964,0.119851 0.24949,0.219658 0.10979,0.149712 0.21966,0.588819 0.21966,0.618767 l 0.01,5.748755 c 0,0.339352 -0.0899,0.588972 -0.33944,0.818534 -0.0699,0.06987 -0.12942,0.09967 -0.20927,0.159556 h 3.15391 c -0.17964,-0.119763 -0.28938,-0.219382 -0.37921,-0.418997 -0.13973,-0.279463 -0.11977,-0.519 -0.11977,-0.848368 v -1.946231 l 1.23753,2.325445 c 0.0599,0.119772 0.2992,0.628895 0.66849,0.818534 0.48906,0.249517 1.21762,0.04973 1.5869,0.04973 l 0.92836,0.0099 c -0.32936,-0.309411 -0.5387,-0.528805 -0.7982,-0.898095 -0.51901,-0.768524 -0.71897,-1.257825 -1.47752,-2.47549 l -0.18938,-0.309167 0.0899,-0.03978 c 0.0499,-0.01999 1.25731,-0.51936 1.28725,-1.71706 0.01,-1.067955 -0.61854,-2.115733 -2.2554,-2.115733 z m -11.594378,4.44e-4 c -2.575275,0.0096 -4.164321,1.602602 -4.183039,3.792148 -0.02,2.764705 2.345489,4.391902 5.329765,3.902841 l 1.167912,-0.199768 0.558661,-1.627122 -0.808589,0.339433 c -0.588867,0.259502 -0.977937,0.349352 -1.62669,0.359325 -1.696744,0.01999 -2.385577,-1.337174 -2.375603,-2.734496 0.01,-1.107876 0.119956,-2.665135 2.006339,-2.715041 0.778507,-0.01999 1.527101,0.339413 1.806566,0.588929 l -0.05012,-1.586908 -1.297206,-0.09988 c -0.180277,-0.01372 -0.356278,-0.0201 -0.527961,-0.01946 z m 29.898728,1.037759 c 1.50711,0 2.11617,1.616875 2.11617,3.153925 0,1.257594 -0.5389,2.435277 -1.95618,2.435277 -1.29752,0 -2.07596,-1.577123 -2.07596,-3.104199 0,-1.347409 0.63842,-2.485003 1.91597,-2.485003 z m -15.71904,0.139666 h 0.30917 c 0.61882,0 0.92844,0.548891 0.90847,1.227582 -0.0299,0.798473 -0.72857,1.297491 -1.21764,1.337415 z m -7.53976,0.778318 0.79822,2.195728 h -1.59686 z" />
    <path
       id="rect972"
       style="opacity:1;fill:none;stroke:#7f181a;stroke-width:1.50614;stroke-linecap:butt;stroke-linejoin:miter;stroke-miterlimit:4;stroke-dasharray:none;stroke-opacity:1"
       d="M 1.6865698,13.149407 V 9.9286496 L 10.502587,15.728958 V 25.67169 L 1.6865698,19.871381 v -2.420662" />
    <path
       id="rect972-3"
       style="opacity:1;fill:none;stroke:#7f181a;stroke-width:1.50614;stroke-linecap:butt;stroke-linejoin:miter;stroke-miterlimit:4;stroke-dasharray:none;stroke-opacity:1"
       d="m 21.597789,17.453023 v 2.363805 l -8.816017,5.757354 V 15.631451 L 21.597789,9.8740963 V 13.22275" />
    <path
       style="fill:none;stroke:#7f181a;stroke-width:1.50614;stroke-linecap:butt;stroke-linejoin:miter;stroke-miterlimit:4;stroke-dasharray:none;stroke-opacity:1"
       d="M 11.970833,2.2841657 20.40396,7.8325633 11.61873,13.569814 3.185601,8.0214166 Z"
       id="path1004" />
  </g>
</svg>
