<?xml version="1.0" encoding="utf-8"?>
<!-- Generator: Adobe Illustrator 15.1.0, SVG Export Plug-In . SVG Version: 6.00 Build 0)  -->
<!DOCTYPE svg PUBLIC "-//W3C//DTD SVG 1.1//EN" "http://www.w3.org/Graphics/SVG/1.1/DTD/svg11.dtd">
<svg version="1.1" id="Layer_1" xmlns="http://www.w3.org/2000/svg" xmlns:xlink="http://www.w3.org/1999/xlink" x="0px" y="0px"
	 width="127.5px" height="74.334px" viewBox="0 0 127.5 74.334" enable-background="new 0 0 127.5 74.334" xml:space="preserve">
<g>
	<defs>
		<rect id="SVGID_1_" x="-389" y="-657.188" width="566.929" height="765.355"/>
	</defs>
	<clipPath id="SVGID_2_">
		<use xlink:href="#SVGID_1_"  overflow="visible"/>
	</clipPath>
	<path clip-path="url(#SVGID_2_)" fill="#244167" d="M33.633,12.498h8.973v12.817h-3.394c-4.624,0-8.369,0.829-11.232,2.488
		c-3.569,2.06-5.354,5.201-5.354,9.424c0,4.925,1.633,8.418,4.9,10.479c2.613,1.659,6.459,2.488,11.535,2.488h3.544v12.515H29.788
		c-7.891,0-13.998-3.041-18.32-9.122C8.1,48.862,6.416,43.51,6.416,37.528c0-7.338,2.463-13.344,7.389-18.019
		S25.34,12.498,33.633,12.498"/>
	<path clip-path="url(#SVGID_2_)" fill-rule="evenodd" clip-rule="evenodd" fill="#244167" d="M110.988,67.511h1.197v0.914h-1.528
		c-0.722,0-1.256-0.17-1.603-0.509c-0.42-0.41-0.63-0.943-0.63-1.601c0-0.691,0.21-1.238,0.63-1.643
		c0.356-0.339,0.891-0.509,1.603-0.509h1.528v0.922h-1.197c-0.501,0-0.854,0.08-1.06,0.242c-0.221,0.183-0.332,0.512-0.332,0.987
		c0,0.501,0.167,0.854,0.502,1.059C110.25,67.466,110.545,67.511,110.988,67.511 M115.249,67.511h1.196v0.914h-1.528
		c-0.722,0-1.256-0.17-1.6-0.509c-0.421-0.41-0.632-0.943-0.632-1.601c0-0.691,0.211-1.238,0.632-1.643
		c0.354-0.339,0.888-0.509,1.6-0.509h1.528v0.922h-1.196c-0.502,0-0.854,0.08-1.059,0.242c-0.222,0.183-0.332,0.512-0.332,0.987
		c0,0.501,0.167,0.854,0.501,1.059C114.51,67.466,114.807,67.511,115.249,67.511"/>
	<path clip-path="url(#SVGID_2_)" fill-rule="evenodd" clip-rule="evenodd" fill="#F62013" d="M121.105,68.272
		c0,0.576-0.129,1.004-0.389,1.28c-0.258,0.278-0.665,0.416-1.22,0.416h-2.208v-0.864h2.013c0.448,0,0.671-0.202,0.671-0.606v-0.073
		h-0.912c-0.399,0-0.688-0.021-0.865-0.064c-0.275-0.06-0.521-0.193-0.736-0.404c-0.421-0.404-0.63-0.954-0.63-1.648
		c0-0.685,0.209-1.231,0.63-1.642c0.345-0.334,0.879-0.502,1.602-0.502h2.045V68.272 M119.391,67.544h0.582v-2.466h-0.582
		c-0.436,0-0.731,0.046-0.888,0.137c-0.335,0.2-0.503,0.564-0.503,1.093c0,0.474,0.112,0.803,0.332,0.986
		C118.537,67.46,118.891,67.544,119.391,67.544"/>
	<path clip-path="url(#SVGID_2_)" fill="#244167" d="M76.983,68.396h-1.052l-0.241-1.782c-0.018-0.126-0.032-0.266-0.046-0.42
		c-0.016-0.154-0.028-0.322-0.039-0.504c-0.026,0.174-0.078,0.392-0.155,0.652c-0.017,0.055-0.028,0.096-0.036,0.121l-0.561,1.933
		h-0.749l-0.561-1.933c-0.007-0.025-0.019-0.066-0.033-0.121c-0.079-0.261-0.131-0.478-0.154-0.649
		c-0.012,0.156-0.025,0.309-0.04,0.462c-0.016,0.154-0.033,0.306-0.054,0.459l-0.242,1.782h-1.046l0.638-4.123h1.111l0.623,2.126
		c0.005,0.015,0.012,0.04,0.022,0.073c0.059,0.189,0.095,0.352,0.11,0.487c0.007-0.073,0.021-0.155,0.042-0.244
		s0.049-0.195,0.084-0.321l0.629-2.121h1.114L76.983,68.396 M77.588,68.396v-4.123h2.526v0.903h-1.431v0.716h1.349v0.884h-1.349
		v0.696h1.431v0.924H77.588z M85.585,68.396h-1.051l-0.242-1.782c-0.016-0.126-0.032-0.266-0.046-0.42s-0.027-0.322-0.038-0.504
		c-0.026,0.174-0.079,0.392-0.155,0.652c-0.017,0.055-0.028,0.096-0.035,0.121l-0.562,1.933h-0.749l-0.56-1.933
		c-0.009-0.025-0.02-0.066-0.034-0.121c-0.079-0.261-0.131-0.478-0.155-0.649c-0.011,0.156-0.025,0.309-0.039,0.462
		c-0.015,0.154-0.034,0.306-0.054,0.459l-0.242,1.782h-1.045l0.637-4.123h1.111l0.623,2.126c0.004,0.015,0.012,0.04,0.021,0.073
		c0.06,0.189,0.097,0.352,0.111,0.487c0.006-0.073,0.021-0.155,0.042-0.244c0.021-0.089,0.048-0.195,0.084-0.321l0.629-2.121h1.115
		L85.585,68.396z M87.233,65.92h0.224c0.278,0,0.469-0.03,0.572-0.092c0.103-0.061,0.154-0.166,0.154-0.317
		c0-0.154-0.048-0.264-0.145-0.326c-0.097-0.063-0.285-0.096-0.564-0.096h-0.241V65.92z M86.19,68.396v-4.123h1.13
		c0.465,0,0.791,0.016,0.975,0.045c0.186,0.03,0.345,0.082,0.479,0.155c0.151,0.085,0.267,0.197,0.347,0.34
		c0.08,0.142,0.12,0.305,0.12,0.49c0,0.236-0.06,0.422-0.178,0.56c-0.12,0.138-0.311,0.242-0.57,0.313
		c0.292,0.023,0.52,0.125,0.686,0.309c0.165,0.183,0.248,0.428,0.248,0.733c0,0.22-0.046,0.413-0.14,0.58
		c-0.093,0.167-0.225,0.297-0.399,0.389c-0.14,0.074-0.313,0.129-0.52,0.161c-0.206,0.03-0.545,0.048-1.013,0.048H86.19z
		 M87.233,67.553h0.393c0.267,0,0.456-0.033,0.566-0.1s0.167-0.178,0.167-0.334c0-0.172-0.052-0.293-0.152-0.361
		c-0.102-0.067-0.289-0.103-0.563-0.103h-0.411V67.553z M90.103,68.396v-4.123h2.524v0.903h-1.43v0.716h1.349v0.884h-1.349v0.696
		h1.43v0.924H90.103z M93.371,68.396v-4.123h1.174c0.46,0,0.781,0.021,0.961,0.063c0.182,0.042,0.337,0.113,0.469,0.212
		c0.149,0.113,0.264,0.258,0.344,0.432c0.079,0.175,0.118,0.367,0.118,0.577c0,0.319-0.077,0.578-0.234,0.778
		c-0.156,0.2-0.385,0.332-0.686,0.398l1.122,1.662H95.37l-0.946-1.614v1.614H93.371z M94.424,66.222h0.208
		c0.243,0,0.419-0.043,0.531-0.125c0.111-0.082,0.167-0.213,0.167-0.389c0-0.206-0.052-0.353-0.156-0.44
		c-0.104-0.087-0.278-0.132-0.524-0.132h-0.226V66.222z M103.105,66.342c0,0.298-0.056,0.575-0.163,0.833
		c-0.109,0.261-0.268,0.491-0.477,0.696c-0.211,0.203-0.45,0.359-0.721,0.469c-0.271,0.11-0.551,0.164-0.842,0.164
		c-0.295,0-0.576-0.054-0.847-0.164c-0.27-0.109-0.506-0.266-0.711-0.469c-0.212-0.205-0.373-0.437-0.483-0.699
		c-0.109-0.26-0.164-0.537-0.164-0.83c0-0.295,0.055-0.571,0.164-0.833c0.11-0.259,0.271-0.491,0.483-0.696
		c0.205-0.202,0.441-0.358,0.711-0.47c0.271-0.108,0.552-0.164,0.847-0.164c0.294,0,0.575,0.056,0.846,0.164
		c0.272,0.111,0.51,0.268,0.717,0.47c0.207,0.203,0.365,0.435,0.476,0.696C103.05,65.77,103.105,66.047,103.105,66.342
		 M100.903,67.553c0.312,0,0.568-0.113,0.772-0.343s0.307-0.519,0.307-0.868c0-0.345-0.104-0.634-0.311-0.864
		c-0.206-0.231-0.463-0.347-0.769-0.347c-0.312,0-0.569,0.115-0.773,0.346c-0.203,0.229-0.306,0.519-0.306,0.865
		c0,0.354,0.101,0.644,0.301,0.87C100.327,67.439,100.586,67.553,100.903,67.553 M103.811,68.396v-4.123h2.525v0.903h-1.43v0.716
		h1.348v0.884h-1.348v1.62H103.811z"/>
	<path clip-path="url(#SVGID_2_)" fill="#244167" d="M66.993,12.498h8.972v12.817h-3.393c-4.624,0-8.369,0.829-11.234,2.488
		c-3.568,2.06-5.352,5.201-5.352,9.424c0,4.925,1.633,8.418,4.899,10.479c2.614,1.659,6.459,2.488,11.535,2.488h3.43L71.97,62.709
		h-8.821c-7.892,0-13.998-3.041-18.321-9.122c-3.367-4.725-5.051-10.077-5.051-16.059c0-7.338,2.463-13.344,7.388-18.019
		C52.09,14.835,58.7,12.498,66.993,12.498"/>
	<polygon clip-path="url(#SVGID_2_)" fill="#F62013" points="88.178,12.502 104.311,12.502 121.122,62.709 71.97,62.709 
		81.695,31.35 94.36,31.35 89.309,51.101 102.577,51.101 	"/>
	<path clip-path="url(#SVGID_2_)" fill="#244167" d="M25.628,7.063v1.192c-0.148-0.166-0.298-0.288-0.447-0.364
		c-0.147-0.077-0.308-0.117-0.476-0.117c-0.314,0-0.568,0.107-0.762,0.32c-0.194,0.216-0.291,0.494-0.291,0.839
		c0,0.32,0.099,0.587,0.297,0.799c0.197,0.211,0.45,0.316,0.756,0.316c0.168,0,0.328-0.039,0.476-0.116
		c0.149-0.077,0.299-0.199,0.447-0.367v1.194c-0.174,0.083-0.345,0.146-0.517,0.188c-0.171,0.042-0.344,0.063-0.52,0.063
		c-0.219,0-0.42-0.025-0.604-0.077c-0.186-0.053-0.355-0.132-0.51-0.237c-0.3-0.2-0.527-0.452-0.684-0.756
		c-0.157-0.306-0.234-0.648-0.234-1.028c0-0.306,0.049-0.585,0.148-0.835c0.099-0.251,0.249-0.478,0.45-0.682
		c0.188-0.195,0.403-0.342,0.641-0.438c0.237-0.096,0.501-0.145,0.793-0.145c0.176,0,0.349,0.021,0.52,0.063
		C25.283,6.917,25.454,6.98,25.628,7.063 M26.244,10.91V6.908h2.452v0.877h-1.388V8.48h1.308v0.857h-1.308v0.676h1.388v0.896H26.244
		z M29.417,10.91V6.908h1.052l1.513,2.059c0.028,0.042,0.077,0.126,0.144,0.253s0.139,0.277,0.219,0.452
		c-0.021-0.166-0.038-0.313-0.048-0.442c-0.01-0.129-0.014-0.244-0.014-0.345V6.908h1.046v4.002h-1.046l-1.512-2.066
		c-0.031-0.042-0.079-0.127-0.147-0.253c-0.066-0.127-0.138-0.275-0.216-0.446c0.021,0.168,0.037,0.315,0.048,0.445
		c0.01,0.128,0.014,0.243,0.014,0.345v1.976H29.417z M34.763,10.91V7.854h-0.896V6.908h2.883v0.946h-0.896v3.056H34.763z
		 M37.283,10.91V6.908h1.14c0.446,0,0.758,0.021,0.934,0.062s0.328,0.11,0.455,0.206c0.144,0.109,0.255,0.249,0.333,0.418
		c0.076,0.171,0.114,0.356,0.114,0.562c0,0.31-0.074,0.562-0.227,0.756s-0.375,0.323-0.666,0.386l1.09,1.613h-1.232l-0.918-1.566
		v1.566H37.283z M38.306,8.8h0.202c0.235,0,0.407-0.041,0.516-0.121c0.107-0.079,0.162-0.205,0.162-0.377
		c0-0.199-0.051-0.343-0.152-0.428c-0.1-0.085-0.271-0.127-0.509-0.127h-0.219V8.8z M41.93,9.414h1.086l-0.407-1.32
		c-0.013-0.04-0.03-0.104-0.052-0.193c-0.022-0.089-0.051-0.203-0.085-0.344c-0.023,0.099-0.047,0.191-0.069,0.281
		c-0.023,0.089-0.046,0.174-0.069,0.256L41.93,9.414z M40.402,10.91l1.381-4.002h1.367l1.383,4.002h-1.085l-0.203-0.716h-1.549
		l-0.209,0.716H40.402z M44.915,10.91V6.908h1.091v3.067h1.356v0.935H44.915z M52.547,7.063v1.192
		c-0.149-0.166-0.299-0.288-0.448-0.364c-0.147-0.077-0.308-0.117-0.476-0.117c-0.313,0-0.568,0.107-0.762,0.32
		c-0.194,0.216-0.291,0.494-0.291,0.839c0,0.32,0.099,0.587,0.297,0.799c0.198,0.211,0.45,0.316,0.756,0.316
		c0.168,0,0.328-0.039,0.476-0.116c0.149-0.077,0.299-0.199,0.448-0.367v1.194c-0.174,0.083-0.346,0.146-0.518,0.188
		c-0.171,0.042-0.344,0.063-0.519,0.063c-0.219,0-0.421-0.025-0.605-0.077c-0.186-0.053-0.355-0.132-0.51-0.237
		c-0.3-0.2-0.526-0.452-0.684-0.756c-0.157-0.306-0.234-0.648-0.234-1.028c0-0.306,0.049-0.585,0.148-0.835
		c0.099-0.251,0.249-0.478,0.45-0.682c0.188-0.195,0.403-0.342,0.641-0.438c0.237-0.096,0.502-0.145,0.794-0.145
		c0.175,0,0.348,0.021,0.519,0.063C52.201,6.917,52.373,6.98,52.547,7.063 M57.271,8.917c0,0.289-0.054,0.559-0.159,0.81
		c-0.105,0.252-0.259,0.477-0.462,0.676c-0.204,0.196-0.438,0.348-0.699,0.455c-0.262,0.105-0.535,0.159-0.817,0.159
		c-0.287,0-0.56-0.054-0.821-0.159c-0.263-0.107-0.491-0.259-0.69-0.455c-0.206-0.199-0.362-0.425-0.469-0.679
		c-0.107-0.254-0.16-0.521-0.16-0.807c0-0.286,0.053-0.555,0.16-0.808c0.106-0.252,0.263-0.479,0.469-0.676
		c0.199-0.197,0.428-0.349,0.69-0.456c0.262-0.106,0.534-0.159,0.821-0.159c0.284,0,0.558,0.053,0.82,0.159
		c0.265,0.107,0.496,0.259,0.696,0.456c0.2,0.196,0.354,0.421,0.461,0.675C57.217,8.361,57.271,8.631,57.271,8.917 M55.133,10.093
		c0.303,0,0.553-0.11,0.75-0.333s0.296-0.504,0.296-0.843c0-0.335-0.099-0.615-0.3-0.84c-0.201-0.224-0.45-0.335-0.746-0.335
		c-0.303,0-0.553,0.111-0.751,0.335c-0.196,0.223-0.296,0.503-0.296,0.84c0,0.343,0.098,0.624,0.292,0.845
		C54.573,9.983,54.825,10.093,55.133,10.093 M57.954,10.91V6.908h1.052l1.513,2.059c0.028,0.042,0.075,0.126,0.144,0.253
		c0.066,0.127,0.139,0.277,0.219,0.452c-0.021-0.166-0.037-0.313-0.048-0.442c-0.01-0.129-0.015-0.244-0.015-0.345V6.908h1.047
		v4.002h-1.047l-1.512-2.066c-0.03-0.042-0.079-0.127-0.146-0.253c-0.066-0.127-0.138-0.275-0.216-0.446
		c0.021,0.168,0.037,0.315,0.047,0.445c0.011,0.128,0.015,0.243,0.015,0.345v1.976H57.954z M62.723,10.91V6.908h1.054l1.511,2.059
		c0.029,0.042,0.077,0.126,0.144,0.253s0.14,0.277,0.22,0.452c-0.021-0.166-0.037-0.313-0.048-0.442
		c-0.01-0.129-0.015-0.244-0.015-0.345V6.908h1.046v4.002h-1.046l-1.512-2.066c-0.031-0.042-0.079-0.127-0.146-0.253
		c-0.065-0.127-0.138-0.275-0.217-0.446c0.022,0.168,0.038,0.315,0.048,0.445c0.011,0.128,0.016,0.243,0.016,0.345v1.976H62.723z
		 M67.493,10.91V6.908h2.452v0.877h-1.39V8.48h1.31v0.857h-1.31v0.676h1.39v0.896H67.493z M73.566,7.063v1.192
		c-0.149-0.166-0.299-0.288-0.447-0.364c-0.148-0.077-0.308-0.117-0.477-0.117c-0.313,0-0.567,0.107-0.762,0.32
		c-0.193,0.216-0.291,0.494-0.291,0.839c0,0.32,0.099,0.587,0.296,0.799c0.198,0.211,0.45,0.316,0.757,0.316
		c0.169,0,0.328-0.039,0.477-0.116s0.298-0.199,0.447-0.367v1.194c-0.174,0.083-0.346,0.146-0.518,0.188
		c-0.171,0.042-0.344,0.063-0.519,0.063c-0.219,0-0.421-0.025-0.605-0.077c-0.185-0.053-0.355-0.132-0.511-0.237
		c-0.298-0.2-0.526-0.452-0.683-0.756c-0.156-0.306-0.235-0.648-0.235-1.028c0-0.306,0.05-0.585,0.15-0.835
		c0.099-0.251,0.249-0.478,0.448-0.682c0.19-0.195,0.403-0.342,0.642-0.438c0.237-0.096,0.502-0.145,0.794-0.145
		c0.175,0,0.348,0.021,0.519,0.063C73.221,6.917,73.393,6.98,73.566,7.063 M74.758,10.91V7.854h-0.896V6.908h2.885v0.946h-0.897
		v3.056H74.758z M80.088,9.414h1.086l-0.408-1.32c-0.012-0.04-0.029-0.104-0.051-0.193c-0.022-0.089-0.051-0.203-0.085-0.344
		c-0.023,0.099-0.047,0.191-0.069,0.281c-0.023,0.089-0.047,0.174-0.069,0.256L80.088,9.414z M78.561,10.91l1.381-4.002h1.367
		l1.383,4.002h-1.086l-0.202-0.716h-1.55l-0.208,0.716H78.561z M84.202,10.91H83.1V6.908h1.103V10.91z M85.082,10.91V6.908h1.14
		c0.446,0,0.759,0.021,0.934,0.062c0.176,0.041,0.327,0.11,0.456,0.206c0.143,0.109,0.254,0.249,0.332,0.418
		c0.077,0.171,0.115,0.356,0.115,0.562c0,0.31-0.075,0.562-0.229,0.756c-0.151,0.194-0.374,0.323-0.665,0.386l1.09,1.613h-1.231
		l-0.919-1.566v1.566H85.082z M86.104,8.8h0.202c0.235,0,0.407-0.041,0.516-0.121c0.107-0.079,0.162-0.205,0.162-0.377
		c0-0.199-0.05-0.343-0.152-0.428c-0.1-0.085-0.271-0.127-0.509-0.127h-0.219V8.8z M88.671,10.91V6.908h1.091v3.067h1.356v0.935
		H88.671z M92.779,10.91h-1.103V6.908h1.103V10.91z M93.659,10.91V6.908h1.052l1.512,2.059c0.029,0.042,0.076,0.126,0.145,0.253
		c0.066,0.127,0.139,0.277,0.219,0.452c-0.021-0.166-0.038-0.313-0.048-0.442c-0.01-0.129-0.015-0.244-0.015-0.345V6.908h1.047
		v4.002h-1.047l-1.512-2.066c-0.03-0.042-0.08-0.127-0.146-0.253c-0.066-0.127-0.138-0.275-0.216-0.446
		c0.021,0.168,0.037,0.315,0.047,0.445c0.011,0.128,0.015,0.243,0.015,0.345v1.976H93.659z M98.428,10.91V6.908h2.453v0.877h-1.389
		V8.48h1.309v0.857h-1.309v0.676h1.389v0.896H98.428z M101.779,9.617c0.162,0.184,0.323,0.322,0.479,0.412
		c0.158,0.092,0.315,0.137,0.473,0.137c0.145,0,0.265-0.039,0.358-0.117c0.095-0.077,0.142-0.177,0.142-0.298
		c0-0.133-0.041-0.235-0.122-0.307c-0.081-0.072-0.265-0.147-0.55-0.225c-0.393-0.104-0.67-0.242-0.832-0.411
		c-0.162-0.17-0.243-0.402-0.243-0.697c0-0.382,0.128-0.695,0.384-0.938c0.256-0.24,0.588-0.361,0.996-0.361
		c0.221,0,0.43,0.029,0.628,0.089s0.384,0.148,0.562,0.27l-0.342,0.784c-0.124-0.104-0.251-0.186-0.382-0.24
		c-0.13-0.053-0.259-0.08-0.386-0.08c-0.131,0-0.237,0.032-0.32,0.095c-0.082,0.063-0.123,0.144-0.123,0.242
		c0,0.101,0.037,0.181,0.108,0.24c0.071,0.062,0.211,0.118,0.416,0.172l0.05,0.015c0.445,0.12,0.737,0.252,0.877,0.396
		c0.095,0.1,0.167,0.216,0.216,0.355c0.05,0.137,0.074,0.29,0.074,0.457c0,0.424-0.139,0.766-0.418,1.022
		c-0.279,0.26-0.65,0.388-1.115,0.388c-0.279,0-0.533-0.048-0.761-0.142c-0.229-0.095-0.449-0.244-0.661-0.446L101.779,9.617z"/>
</g>
</svg>
