<?xml version="1.0" encoding="UTF-8" standalone="no"?>
<!-- Created with Inkscape (http://www.inkscape.org/) -->
<svg
   xmlns:svg="http://www.w3.org/2000/svg"
   xmlns="http://www.w3.org/2000/svg"
   version="1.0"
   width="1311.0236"
   height="258.66141"
   id="svg2">
  <defs
     id="defs4" />
  <g
     transform="translate(-90.353676,-290.23416)"
     id="layer1">
    <g
       transform="matrix(4.2662343,0,0,4.2662343,-259.68322,-1526.5301)"
       id="g2802">
      <path
         d="M 323.40079,469.36811 C 345.55954,456.64436 356.76204,470.88311 369.81579,458.07811 C 361.97329,469.97311 346.21829,470.48436 345.79954,477.26936 C 345.78454,477.66936 345.95329,477.99311 346.26829,478.19061 C 344.30204,477.78061 344.41704,475.42061 342.81579,474.91936 C 342.73704,472.73186 347.81704,468.29436 350.21829,467.40061 C 343.90329,466.84936 331.06579,466.12936 317.31704,478.19061 L 323.40079,469.36811 z"
         id="path2667"
         style="fill:#ee1c33;fill-opacity:1;fill-rule:nonzero;stroke:none" />
      <path
         d="M 381.04504,434.13386 C 371.13004,439.72511 369.17129,454.58886 365.76879,458.63511 C 364.29504,460.37886 361.61379,462.36136 355.78879,462.02136 C 365.12004,459.57136 364.05504,444.90136 373.08379,436.97636 L 381.04504,434.13386 z"
         id="path2671"
         style="fill:#ee1c33;fill-opacity:1;fill-rule:nonzero;stroke:none" />
      <path
         d="M 102.35367,446.39586 C 98.97992,446.39586 96.68742,447.09086 94.70117,448.72336 C 92.57617,450.46961 91.05367,453.17461 90.52867,456.14961 C 90.41242,456.81711 90.35367,457.48086 90.35367,458.11961 C 90.35367,460.22586 90.97742,462.13211 92.15992,463.53461 C 93.58367,465.21586 95.66367,465.93336 99.12117,465.93336 L 106.19992,465.93336 L 107.10742,460.80836 L 101.24117,460.80836 C 99.69242,460.80836 98.57367,460.80836 97.85117,460.31836 C 97.25492,459.91586 96.62242,459.25211 96.62242,457.70086 C 96.62242,457.31086 96.66242,456.86836 96.75117,456.35836 C 97.40242,452.67836 98.87992,451.55711 103.08367,451.55711 L 108.73492,451.55711 L 109.64867,446.39586 L 102.35367,446.39586 z"
         id="path2675"
         style="fill:#ee1c33;fill-opacity:1;fill-rule:nonzero;stroke:none" />
      <path
         d="M 120.75404,446.39586 C 114.38779,446.39586 110.43529,449.74336 109.32029,456.07836 C 109.16029,456.99086 109.08029,457.84336 109.08029,458.63086 C 109.08029,460.61961 109.58529,462.22711 110.59279,463.42961 C 111.99279,465.09211 114.32279,465.93336 117.51654,465.93336 L 125.08529,465.93336 L 125.91904,460.99336 L 118.76654,460.99336 C 117.18654,460.99336 116.23029,460.98086 115.72779,460.38336 C 115.52779,460.14336 115.37029,459.70461 115.40529,459.15586 C 115.43029,458.82211 115.50279,458.36211 115.50279,458.36211 L 126.39904,458.36211 L 127.17029,453.90211 L 116.29779,453.90211 L 116.44779,453.47586 C 116.99779,451.87961 117.96654,451.30336 120.74779,451.30336 L 127.65029,451.30336 L 128.52904,446.39586 L 120.75404,446.39586 z"
         id="path2679"
         style="fill:#ee1c33;fill-opacity:1;fill-rule:nonzero;stroke:none" />
      <path
         d="M 148.66404,451.67961 C 148.66404,450.25711 148.31904,449.16711 147.61904,448.33211 C 146.51154,447.01211 144.53279,446.39586 141.39404,446.39586 L 131.77654,446.39586 L 128.32904,465.93336 L 134.37904,465.93336 L 136.90154,451.62836 L 140.30154,451.62836 C 141.41654,451.62836 142.07404,451.76586 142.30904,452.04211 C 142.43279,452.18961 142.49279,452.43211 142.49279,452.80836 C 142.49279,453.15461 142.44279,453.60961 142.33779,454.19836 L 140.26779,465.93336 L 146.32154,465.93336 L 148.45529,453.81336 C 148.59529,453.03086 148.66404,452.32086 148.66404,451.67961"
         id="path2683"
         style="fill:#ee1c33;fill-opacity:1;fill-rule:nonzero;stroke:none" />
      <path
         d="M 160.40442,446.39586 L 161.29067,441.38711 L 155.31317,441.38711 L 154.42692,446.39586 L 151.01692,446.39586 L 150.11442,451.38461 L 153.52442,451.38461 L 152.11692,459.49086 C 151.74942,461.56711 152.04442,463.19336 152.98942,464.31461 C 153.88942,465.39086 155.31692,465.93336 157.22942,465.93336 L 162.14942,465.93336 L 163.00192,461.08461 L 160.31067,461.08461 C 159.39067,461.08461 158.81192,460.92711 158.54067,460.60211 C 158.35567,460.38086 158.18942,460.02336 158.18942,459.51086 C 158.18942,459.14336 158.23817,458.69836 158.32817,458.16711 L 159.55567,451.38461 L 164.74567,451.38461 L 165.59692,446.39586 L 160.40442,446.39586 z"
         id="path2687"
         style="fill:#ee1c33;fill-opacity:1;fill-rule:nonzero;stroke:none" />
      <path
         d="M 182.42955,450.09573 C 182.42955,449.07823 182.1908,448.30573 181.7033,447.72823 C 180.93205,446.80823 179.58955,446.39573 177.34455,446.39573 L 168.6983,446.39573 L 165.2558,465.93323 L 171.3033,465.93323 L 173.9183,451.10698 L 175.12455,451.10698 C 176.0058,451.10698 176.22455,451.17948 176.3183,451.24448 L 176.3533,451.26448 L 176.3683,451.30448 C 176.38955,451.34823 176.40955,451.43073 176.40955,451.58948 C 176.40955,451.73198 176.3933,451.93073 176.3408,452.21573 L 175.80205,455.28448 L 181.63955,455.28448 L 182.26705,451.72698 C 182.37455,451.12448 182.42955,450.58323 182.42955,450.09573"
         id="path2691"
         style="fill:#ee1c33;fill-opacity:1;fill-rule:nonzero;stroke:none" />
      <path
         d="M 202.7398,452.12748 C 202.7398,450.63623 202.3473,449.41123 201.5673,448.47998 C 200.40355,447.09998 198.41105,446.39623 195.6373,446.39623 L 185.21855,446.39623 L 184.33355,451.38498 L 193.12105,451.38498 C 194.2948,451.38498 195.7098,451.46248 196.2123,452.06373 C 196.44605,452.34123 196.5148,452.80373 196.4173,453.47623 L 196.3698,453.85623 L 190.50605,453.85623 C 185.02855,453.85623 182.3923,455.49623 181.6073,459.94373 C 181.28855,461.76498 181.57105,463.21748 182.45355,464.27123 C 183.3773,465.37373 184.89105,465.93373 186.93355,465.93373 L 200.45605,465.93373 L 202.5673,453.95748 C 202.6823,453.30873 202.7398,452.69623 202.7398,452.12748 z M 195.06605,461.24998 L 189.5098,461.24998 C 188.0248,461.24998 187.48855,460.76248 187.63105,459.93248 C 187.8323,458.77248 188.5098,458.11998 190.6448,458.11998 L 195.6398,458.11998 L 195.06605,461.24998 z"
         id="path2695"
         style="fill:#ee1c33;fill-opacity:1;fill-rule:nonzero;stroke:none" />
      <path
         d="M 207.87729,441.38661 L 203.54979,465.93411 L 209.80979,465.93411 L 214.13729,441.38661 L 207.87729,441.38661 z"
         id="path2699"
         style="fill:#ee1c33;fill-opacity:1;fill-rule:nonzero;stroke:none" />
      <path
         d="M 244.89342,446.39586 L 236.81842,462.84211 L 234.50467,446.39586 L 229.55217,446.39586 L 221.51217,462.86086 L 219.07967,446.39586 L 214.97967,446.39586 L 218.35342,465.91711 L 223.78217,465.91711 L 231.54092,449.80836 L 233.59842,465.91711 L 239.25217,465.91711 L 248.96217,446.39586 L 244.89342,446.39586 z"
         id="path2703"
         style="fill:#ee1c33;fill-opacity:1;fill-rule:nonzero;stroke:none" />
      <path
         d="M 250.79417,446.39586 L 247.35042,465.91711 L 251.19417,465.91711 L 254.64042,446.39586 L 250.79417,446.39586 z"
         id="path2707"
         style="fill:#ee1c33;fill-opacity:1;fill-rule:nonzero;stroke:none" />
      <path
         d="M 251.70404,441.38661 L 251.11529,444.59786 L 254.95404,444.59786 L 255.54904,441.38661 L 251.70404,441.38661 z"
         id="path2711"
         style="fill:#ee1c33;fill-opacity:1;fill-rule:nonzero;stroke:none" />
      <path
         d="M 274.88967,451.02486 C 274.88967,449.75361 274.60717,448.79486 274.02967,448.10361 C 273.04592,446.93861 271.12967,446.39611 267.99092,446.39611 L 258.16592,446.39611 L 254.72717,465.91736 L 258.76342,465.91736 L 261.65092,449.54361 L 266.73467,449.54361 C 270.88467,449.54361 270.71842,451.05611 270.67092,452.32111 L 270.67092,452.32361 C 270.67092,452.80111 270.60717,453.36486 270.46967,454.15111 L 268.39467,465.91736 L 272.43217,465.91736 L 274.67217,453.22111 C 274.81717,452.38486 274.88967,451.66736 274.88967,451.02486"
         id="path2715"
         style="fill:#ee1c33;fill-opacity:1;fill-rule:nonzero;stroke:none" />
      <path
         d="M 297.41167,446.39586 C 296.77167,446.39586 288.20917,446.39586 288.20917,446.39586 C 285.14542,446.39586 282.63792,446.78461 280.34792,448.69711 C 278.17417,450.48461 276.61667,453.27211 276.07167,456.34836 C 275.94042,457.10461 275.87292,457.85336 275.87292,458.57836 C 275.87292,460.71586 276.47792,462.59211 277.58042,463.86461 C 279.25917,465.82211 281.20917,465.91711 284.50792,465.91711 L 289.88667,465.91711 C 289.48042,468.20461 287.88167,469.17711 285.38667,469.17711 C 285.38667,469.17711 276.54042,469.17711 276.07917,469.17711 C 276.01667,469.55211 275.59667,471.94336 275.52917,472.30711 C 276.17042,472.30711 285.53167,472.30711 285.53167,472.30711 C 290.58417,472.30711 293.26292,469.91086 294.20667,464.54336 C 294.20667,464.54336 297.29417,447.04836 297.41167,446.39586 z M 290.42542,462.81586 L 286.93917,462.81586 C 283.08792,462.81586 281.96917,462.51336 280.94792,461.33461 C 280.00292,460.24461 279.74792,458.52086 280.16542,456.13711 C 280.67292,453.24086 282.02792,451.43461 284.16292,450.30086 C 285.59542,449.56086 287.10167,449.56086 289.00917,449.56086 L 292.75667,449.56086 L 290.42542,462.81586 z"
         id="path2719"
         style="fill:#ee1c33;fill-opacity:1;fill-rule:nonzero;stroke:none" />
      <path
         d="M 306.28267,446.39586 C 301.58517,446.39586 299.26142,448.25086 298.44017,452.35961 C 298.14392,453.84711 298.47142,455.32211 299.06267,456.02086 C 299.77392,456.86086 301.01142,457.55586 303.91767,457.55586 L 308.70017,457.55586 C 310.15892,457.55586 311.13767,457.65711 311.68267,458.30211 C 311.99392,458.67461 312.10142,459.22461 312.10142,459.77836 L 312.05142,460.36711 C 311.58267,463.01211 308.90767,462.78836 308.01392,462.78836 L 296.95642,462.78836 L 296.40517,465.91711 L 309.83142,465.91711 C 312.84767,465.91711 315.38267,463.46461 316.00767,459.95586 C 316.08642,459.47461 316.13142,459.02086 316.13142,458.60711 C 316.13142,457.56211 315.86267,456.71211 315.33517,456.08211 C 314.49017,455.07461 312.95892,454.43961 310.78142,454.43961 L 305.76267,454.43961 C 304.45767,454.43961 303.53142,454.33086 303.03642,453.73961 C 302.74392,453.39086 302.68017,452.90711 302.68017,452.38461 L 302.73642,451.82711 C 303.17642,449.30711 305.41517,449.54336 307.60267,449.54336 L 316.78517,449.54336 L 317.31642,446.39586 L 306.28267,446.39586 z"
         id="path2723"
         style="fill:#ee1c33;fill-opacity:1;fill-rule:nonzero;stroke:none" />
    </g>
  </g>
</svg>
