<?xml version="1.0" encoding="utf-8"?>
<!-- Generator: Adobe Illustrator 16.0.3, SVG Export Plug-In . SVG Version: 6.00 Build 0)  -->
<svg version="1.1" id="Chicago_Air_Logo" xmlns="http://www.w3.org/2000/svg" xmlns:xlink="http://www.w3.org/1999/xlink" x="0px"
	 y="0px" width="820px" height="115.27px" viewBox="0 0 820 115.27" enable-background="new 0 0 820 115.27" xml:space="preserve">
<path fill="#4167B1" d="M28.056,57.633c0-16.499,13.377-29.875,29.875-29.875c11.079,0,20.743,6.038,25.901,14.997l12.12-14.052
	C87.224,17.249,73.444,9.851,57.931,9.851c-26.39,0-47.782,21.393-47.782,47.782c0,6.547,1.32,12.786,3.703,18.468l14.271-16.546
	C28.084,58.918,28.056,58.279,28.056,57.633z"/>
<path fill="#4167B1" d="M87.794,57.162c0.002,0.158,0.012,0.313,0.012,0.471c0,16.498-13.377,29.875-29.875,29.875
	c-10.707,0-20.093-5.637-25.368-14.101l-12.03,13.948c8.754,11,22.248,18.06,37.398,18.06c26.389,0,47.782-21.393,47.782-47.782
	c0-6.152-1.176-12.027-3.293-17.428L87.794,57.162z"/>
<path fill="#4167B1" d="M185.655,33.672c0.899,0,1.763,0,2.597,0.103c6.347,0.44,12.177,3.649,15.944,8.776l0.19,0.249h16.331
	l-1.616-3.364c-2.248-4.449-5.416-8.369-9.296-11.498c-6.901-5.611-15.556-8.615-24.45-8.483c-1.06,0-2.15,0-3.291,0.102
	c-9.393,0.756-18.143,5.073-24.457,12.068c-6.635,6.922-10.291,16.171-10.181,25.758c0,0.994,0.037,1.961,0.103,2.925
	c0.612,9.602,4.953,18.584,12.096,25.028c11.556,10.747,28.438,13.499,42.808,6.978c8.085-3.628,14.485-10.201,17.896-18.379
	l0.374-0.878h-17.071l-0.183,0.197c-0.834,0.899-1.646,1.712-2.407,2.415c-4.106,3.8-9.493,5.915-15.088,5.923
	c-6.016,0.067-11.809-2.273-16.09-6.501c-4.954-4.48-7.743-10.874-7.657-17.553c0.256-5.836,2.299-11.453,5.852-16.09
	C172.439,36.275,178.356,33.672,185.655,33.672z M267.672,49.989h-24.655V20.734h-14.708v73.803h14.708V64.105h24.655v30.432h14.708
	V20.734h-14.708V49.989z M295.053,20.734h14.708V94.53h-14.708V20.734z M392.048,73.035h-17.033l-0.183,0.197
	c-0.834,0.899-1.646,1.712-2.406,2.414c-4.109,3.801-9.499,5.917-15.096,5.923c-6.016,0.067-11.81-2.274-16.09-6.501
	c-4.949-4.483-7.735-10.876-7.65-17.554c0.256-5.836,2.299-11.452,5.852-16.09c4.388-5.12,10.283-7.731,17.553-7.731
	c0.899,0,1.762,0,2.596,0.102c6.346,0.44,12.178,3.65,15.944,8.777l0.189,0.249h16.332l-1.616-3.365
	c-2.245-4.451-5.414-8.371-9.296-11.497c-6.898-5.61-15.551-8.614-24.442-8.484c-1.061,0-2.15,0-3.299,0.103
	c-9.391,0.756-18.138,5.073-24.45,12.068c-6.642,6.918-10.301,16.169-10.188,25.759c0,0.995,0.037,1.96,0.103,2.925
	c0.601,9.606,4.936,18.596,12.075,25.05c11.557,10.746,28.438,13.498,42.808,6.977c8.081-3.63,14.474-10.203,17.883-18.379
	L392.048,73.035z M421.896,20.734l-30.762,73.803h16.179l8.045-18.752h24.983l7.753,18.752h16.186l-30.952-73.803H421.896z
	 M434.475,61.691h-13.749l6.867-19.469L434.475,61.691z M492.751,70.109h29.636c-0.577,1.093-1.253,2.13-2.019,3.101
	c-4.389,5.573-10.51,8.396-18.284,8.396c-6.053,0.136-11.935-2.016-16.471-6.027c-5.247-4.438-8.204-11.011-8.046-17.881
	c0.005-0.864,0.069-1.727,0.197-2.582c0.46-5.404,2.719-10.498,6.415-14.466c4.234-4.615,9.99-6.963,17.107-6.963
	c8.447,0,14.978,3.152,19.41,9.361l0.19,0.263h17.02l-0.301-0.84c-2.155-5.74-5.906-10.743-10.81-14.423
	c-7.188-5.638-16.082-8.661-25.218-8.572c-0.937,0-1.836,0.037-2.691,0.095c-9.72,0.525-18.875,4.736-25.599,11.775
	c-6.83,6.975-10.602,16.384-10.48,26.146c-0.001,0.701,0.032,1.401,0.103,2.1c0.35,9.823,4.673,19.082,11.98,25.656
	c7.605,7.014,17.033,10.569,28.004,10.569c11.183,0,20.589-3.825,27.932-11.373l0.409-0.41c6.759-7.292,10.166-15.826,10.166-25.371
	v-2.392h-48.651V70.109z M610.225,29.84c-6.959-6.784-16.334-10.519-26.051-10.378h-1.814c-10.459,0.46-19.352,4.388-26.438,11.57
	s-10.656,16.192-10.656,26.644c0,0.871,0,1.741,0.095,2.597c0.503,9.632,4.771,18.681,11.885,25.196
	c7.409,6.889,16.44,10.378,26.834,10.378h1.697c10.239-0.46,18.957-4.33,25.847-11.482c6.955-7.314,10.48-16.28,10.48-26.739
	c0-0.937-0.036-1.836-0.095-2.691C621.466,45.361,617.245,36.369,610.225,29.84z M563.673,44.708l2.194-3.006
	c4.629-5.324,10.707-8.045,18.072-8.045c5.756-0.075,11.326,2.043,15.578,5.924c5.119,4.695,7.745,10.817,7.745,18.189
	c0.121,5.759-1.849,11.365-5.544,15.783c-4.497,5.325-10.48,8.046-17.779,8.046c-5.971,0.099-11.753-2.089-16.163-6.115
	c-5.051-4.523-7.868-11.03-7.71-17.809C560.019,53.099,561.27,48.603,563.673,44.708z M683.385,20.734l-30.718,73.803h16.141
	l8.046-18.752h24.983l7.781,18.752h16.164l-30.959-73.803H683.385z M695.972,61.691h-13.735l6.904-19.491L695.972,61.691z
	 M731.568,20.734h14.708V94.53h-14.708V20.734z M790.173,67.468c4.498-1.133,8.147-2.874,10.847-5.185
	c5.119-4.388,7.679-10.298,7.679-17.656c0-7.752-2.647-13.896-7.877-18.343c-0.794-0.663-1.636-1.269-2.517-1.813
	c-3.817-2.479-9.778-3.737-17.714-3.737h-21.538v73.803h14.708v-26.38l18.079,26.38H810L790.173,67.468z M773.761,34.857h5.338
	c5.771,0,9.633,0.804,11.491,2.414c2.193,1.726,3.291,4.264,3.291,7.752c0.021,1.364-0.167,2.723-0.557,4.03
	c-1.338,4.205-5.931,6.333-13.633,6.333h-5.945L773.761,34.857z"/>
</svg>
