<?xml version="1.0" encoding="UTF-8"?>
<svg id="Layer_1" xmlns="http://www.w3.org/2000/svg" version="1.1" viewBox="0 0 5927.3 1370.4">
  <!-- Generator: Adobe Illustrator 29.3.0, SVG Export Plug-In . SVG Version: 2.1.0 Build 146)  -->
  <path d="M516.1,1370.4C217.4,1370.4,0,1142,0,858.7v-4.4C0,571,217.4,338.2,520.5,338.2s303.1,63.7,395.3,166.9l-171.3,184.5c-63.7-65.9-125.2-109.8-226.2-109.8s-239.4,123-239.4,270.1v4.4c0,151.5,98.8,274.5,252.6,274.5s158.1-41.7,228.4-105.4l164.7,166.9c-98.8,105.4-210.8,180.1-408.5,180.1"/>
  <path d="M1686.6,1348.4v-553.4c0-134-63.7-202-171.3-202s-175.7,68.1-175.7,202v553.4h-278.9V0h281.1v498.5c63.7-83.5,147.1-158.1,289.9-158.1,213,0,336,140.6,336,368.9v641.3h-281.1v-2.2Z"/>
  <path d="M2650.7,1370.4c-307.5,0-533.7-228.4-533.7-511.7v-4.4c0-285.5,228.4-516.1,538-516.1s533.7,228.4,533.7,511.7v4.4c0,285.5-230.6,516.1-538,516.1M2909.8,854.3c0-144.9-105.4-274.5-261.3-274.5s-256.9,123-256.9,270.1v4.4c0,147.1,105.4,274.5,261.3,274.5s256.9-123,256.9-270.1v-4.4Z"/>
  <path d="M3924.4,632.5c-186.7,0-300.9,112-300.9,349.2v366.7h-281.1V358h281.1v199.8c57.1-136.2,149.3-226.2,316.2-217.4v294.3h-15.4v-2.2Z"/>
  <path d="M4712.8,1348.4v-140.6c-63.7,83.5-147.1,158.1-289.9,158.1-213,0-336-140.6-336-368.9V358h281.1v553.4c0,134,63.7,202,171.3,202s175.7-68.1,175.7-202V358h281.1v990.4h-283.3Z"/>
  <path d="M5549.6,1368.2c-138.4,0-294.3-46.1-426-149.3l120.8-184.5c107.6,76.9,219.6,118.6,311.8,118.6s118.6-28.5,118.6-74.7v-4.4c0-61.5-96.6-81.3-204.2-114.2-138.4-41.7-296.5-105.4-296.5-298.7v-4.4c0-202,162.5-314,362.4-314s263.5,41.7,368.9,114.2l-107.6,193.3c-98.8-57.1-195.5-92.2-267.9-92.2s-103.2,28.5-103.2,68.1v4.4c0,54.9,94.4,81.3,202,118.6,138.4,46.1,298.7,112,298.7,294.3v4.4c2.2,219.6-162.5,320.6-377.7,320.6"/>
</svg>