<?xml version="1.0" encoding="utf-8"?>
<!-- Generator: Adobe Illustrator 26.5.0, SVG Export Plug-In . SVG Version: 6.00 Build 0)  -->
<svg version="1.1" id="Ebene_1" xmlns="http://www.w3.org/2000/svg" xmlns:xlink="http://www.w3.org/1999/xlink" x="0px" y="0px"
	 width="391px" height="215.6px" viewBox="0 0 391 215.6" style="enable-background:new 0 0 391 215.6;" xml:space="preserve">
<style type="text/css">
	.st0{display:none;}
	.st1{display:inline;fill:#009EE3;}
	.st2{display:inline;fill:#FFFFFF;}
	.st3{display:inline;fill:#BA086E;}
	.st4{fill:#FFFFFF;stroke:#BA086E;stroke-width:2;stroke-miterlimit:10;}
	.st5{fill:#BA086E;stroke:#BA086E;stroke-width:0.5;stroke-miterlimit:10;}
	.st6{fill:#BA086E;}
	.st7{fill:#009EE3;}
	.st8{fill:#FFFFFF;}
</style>
<g id="surface1" class="st0">
	<path class="st1" d="M189.6,1.6c0.5-0.1,1.1-0.3,1.7-0.2c2.6,0,5.1,0,7.7,0c1.1,0,2.2,0.4,3.3,0.3c1.2-0.1,2.4,0.3,3.6,0.3
		c15.8,1.5,31.3,6.6,44.9,14.8c2.3,1.4,4.6,2.9,6.8,4.4c1.9,1.4,3.8,2.8,5.6,4.2c1.8,1.7,3.9,3.2,5.6,5.1c1.9,1.9,3.9,3.8,5.7,5.8
		c0.8,1.3,2.1,2.1,2.9,3.4c4.1,4.9,7.7,10.2,10.9,15.7c2.7,4.6,4.8,9.6,6.8,14.6c1.4,4.1,2.8,8.3,3.7,12.6c16.4,0.1,72.7,0.1,84.4,0
		c-0.4,0.8-1.2,1.4-1.6,2.2c-1.1,1.7-2.3,3.4-4.2,4.3c-1,0.8-1.7,2-3,2.6c-1.4,1-3.2,1.2-4.5,2.3c-2.7,0.8-4.7,3.1-7.6,3.3
		c-1.1,0.1-2.2,0.3-3.2,0.7c-0.7,0.2-1.2,0.8-1.9,0.8c-1.9,0.2-3.9,0.4-5.8,0.6c-0.7,0.1-1.2,0.5-1.9,0.5c-1.9,0.1-3.9-0.3-5.8-0.5
		c-30.3-3.8-60.6-7.5-90.9-11.3c-2.6-0.4-5.2-0.6-7.8-0.9c-1.3-0.1-2.6-0.4-4-0.4c-0.2,4.7-0.9,9.5-2.6,13.9
		c-3.5,9.3-10.5,17.1-19.1,22c-1.5,1-3.3,1.7-4.9,2.5c-6.1,2.5-12.7,3.8-19.4,3.7c-10.2-0.3-20.4-3.9-28.3-10.4
		c-2.9-2.4-5.6-5.2-7.9-8.3c-1.9-2.9-3.8-5.8-4.9-9.1c-1.8-4.1-2.4-8.7-2.9-13.1c-1.2,0-2.5,0.2-3.7,0.4c-4.2,0.6-8.4,0.9-12.5,1.7
		c-12.4,1.5-64.4,8.1-76.6,9.5c-6.5,0.8-13,1.6-19.5,2.5c-0.5-1.1-1.7-0.4-2.6-0.8c-1.3-0.5-2.8-0.5-4.1-1.1
		c-2.1-0.9-4.5-1.2-6.4-2.6c-0.9-0.5-1.9-0.7-2.9-0.9c-1.2-0.8-2.6-1-3.8-1.7c-2.1-0.7-4-1.9-6.1-2.6C10.1,91.1,7,90.3,4.9,88
		c-0.9-1.1-2.2-1.8-3-3c-0.6-0.7-1.4-1.2-1.8-2c30.4,0,60.8,0,91.3,0c0.6-3.1,1.6-6.1,2.5-9.1c1.3-3.6,2.5-7.2,4.2-10.6
		c1.1-2.7,2.6-5.2,4-7.8c3.1-5.4,6.7-10.6,10.6-15.4c0.8-1.2,2.1-2.1,2.9-3.4c2-2.1,4.1-4.1,6.1-6.2c9.1-8.4,19.5-15.3,30.9-20.1
		c9.7-4.1,20-6.8,30.4-7.9c1-0.3,2,0,3-0.3C187.2,1.4,188.4,1.7,189.6,1.6 M185.7,3.1c-8.8,0.7-17.5,2.6-25.8,5.4
		c-5,1.9-10,3.9-14.7,6.4c-2.2,1.3-4.5,2.4-6.6,3.8c-5,3.1-9.7,6.6-14.1,10.6c-2.6,2.1-4.8,4.7-7.3,7c-2.9,3.3-5.8,6.7-8.3,10.3
		c-1.3,1.6-2.2,3.4-3.4,5.1c-1.5,2.3-2.8,4.7-4.1,7.2c-1.2,1.8-1.8,3.8-2.8,5.7c-2.5,5.8-4.6,11.8-6,17.9c21.6,0.1,43.1,0,64.7,0
		c0.1,2.2-0.2,4.4,0.2,6.6c0.3,3.5,1.3,7,2.7,10.2c0.9,2.4,2.4,4.5,3.8,6.7c3.3,4.5,7.6,8.3,12.6,11c1.3,0.9,2.7,1.3,4.1,2
		c3.7,1.4,7.5,2.5,11.5,2.8c3.1,0.5,6.2,0.3,9.3-0.1c6.6-0.8,12.9-3.3,18.3-7.2c2.3-1.5,4.2-3.5,6.1-5.4c4.9-5.3,8-12.2,8.8-19.4
		c0.5-2.4,0.2-4.8,0.3-7.1c20.8,0,41.7,0,62.5,0c-0.8-4-2.1-7.8-3.4-11.7c-1.7-4.3-3.4-8.6-5.7-12.7c-2.9-5.5-6.3-10.7-10.2-15.6
		c-1.1-1.3-2.1-2.9-3.4-4c-1.3-1.8-3-3.2-4.5-4.8c-1.2-1.2-2.4-2.5-3.7-3.7c-2-1.6-3.8-3.4-5.9-4.8c-1.5-1.1-2.9-2.4-4.6-3.4
		c-7.2-5.1-15.1-9.3-23.4-12.3c-2.2-1-4.5-1.5-6.7-2.3c-7-2.1-14.3-3.5-21.6-4.1c-1.2-0.3-2.4,0-3.6-0.2c-1.6-0.4-3.3-0.1-5-0.2
		c-1.9,0.1-3.8-0.1-5.7,0.1C188.6,3.1,187.1,2.7,185.7,3.1z"/>
	<path class="st1" d="M193,47.5c2-0.2,4-0.2,5.9,0.1c3.3,0.2,6.5,1.2,9.6,2.3c3.5,1.6,7,3.4,9.8,6.1c0.8,0.9,2,1.5,2.6,2.6
		c3.1,3,5.3,6.9,7,10.8c1.8,4.9,2.8,10.1,2.5,15.3c-0.3,1.2-0.2,2.4-0.5,3.6c-0.4,2.5-1.1,4.9-2,7.3c-1.5,3.5-3.4,6.9-5.9,9.7
		c-0.9,0.8-1.5,2-2.6,2.6c-2.6,2.5-5.6,4.7-8.9,6.2c-5.2,2.7-11.2,3.7-17.1,3.5c-2.3-0.3-4.6-0.5-6.8-1.1c-4.6-1.3-9-3.4-12.8-6.4
		c-1-0.7-1.7-1.6-2.6-2.3c-0.7-0.5-1.1-1.3-1.7-1.9c-1.1-1-1.9-2.2-2.7-3.3c-1.4-2.2-2.8-4.5-3.7-7c-0.9-2.1-1.4-4.3-1.9-6.6
		c-0.4-3.2-1-6.4-0.4-9.6c0.8-12.4,9-23.8,20.2-28.9C184.8,48.8,188.9,47.8,193,47.5 M193,51c-4.7,0.4-9.4,1.9-13.5,4.3
		c-2.9,1.7-5.4,3.9-7.6,6.4c-2.2,2.8-4.3,5.9-5.6,9.2c-1,2.6-1.8,5.4-1.9,8.2c-0.3,2-0.4,4.1-0.1,6.1c0.3,5.2,2.2,10.3,5.1,14.7
		c1.5,2.5,3.6,4.5,5.6,6.5c3.1,2.6,6.7,4.6,10.5,6c2.4,0.8,4.9,1.2,7.5,1.6c4.1,0.4,8.2-0.3,12.1-1.4c4.1-1.4,7.9-3.6,11.2-6.4
		c1.4-1.5,3-2.7,4.1-4.4c4-5.2,6.3-11.6,6.5-18.2c0.2-8-2.6-16.2-8-22.2c-0.8-0.8-1.7-1.6-2.5-2.5C210.1,53.3,201.5,50.3,193,51z"/>
	<path class="st1" d="M108.4,96.6c12.2-2,24.4-4.1,36.6-6.1c0.4-0.1,0.9,0,1,0.4c0.6,1.4,1.4,2.7,2.2,4.1c-1.9,1.1-4,1.6-6,2.2
		c-16.3,5.1-32.6,10.2-48.9,15.2c-3.4,0.7-6.5,2.2-9.9,3c-1.4,0.4-2.8,1.1-4.2,1.3c-1.1,0-2.3-0.2-3.4-0.4c-1.2-0.3-2.4,0-3.5-0.3
		c-1.6-0.4-3.3-0.4-4.8-0.9c-1.9-0.4-3.8-0.9-5.6-1.8c-2.6-0.7-5.3-1.4-7.8-2.6c-0.8-0.5-1.8-0.6-2.6-0.9c-1.8-1.1-3.6-2.1-5.6-2.8
		c2.6-0.2,5.1-0.8,7.6-1.2c14.6-2.5,29.2-4.9,43.8-7.2C100.9,97.7,104.7,97.3,108.4,96.6z"/>
	<path class="st1" d="M245.4,91.1c0.1-0.3,0.4-0.4,0.7-0.4c26.4,3.4,52.8,6.8,79.2,10.1c5.9,0.9,11.9,1.3,17.8,2.5
		c1.4,0.3,2.8,0.1,4.2,0.4c-0.7,0.4-1.3,0.9-2,1.2c-1.2,0.4-2.2,1.1-3.4,1.5c-1.1,0.5-2.3,0.5-3.4,1c-1.2,0.5-2.5,1.1-3.8,1.4
		c-0.8,0.4-1.8,0-2.6,0.4c-0.6,0.3-1.2,0.5-1.9,0.6c-1,0.1-1.8,0.8-2.8,1.1c-0.8,0.2-1.5,0.5-2.3,0.8c-1.3,0.4-2.7,0.3-4,0.9
		c-1.3,0-2.7,0.4-4,0c-24.3-5.9-48.7-11.8-73-17.7C244.6,93.6,244.9,92.3,245.4,91.1z"/>
	<path class="st1" d="M243.1,96.6c20.4,5.9,40.8,12,61.2,17.9c2.4,0.7,4.9,1.5,7.3,2.1c-0.7,0.3-1.3,0.6-1.9,1.1
		c-1.2,0.4-2.4,0.9-3.6,1c-1,0.2-2,0.4-2.9,0.9c-1,0.2-2.3,0.4-2.9,1.3c-0.5,2-0.7,4-1.2,6c-1.9,8.8-4.9,17.3-9,25.3
		c-0.9,2.1-2.1,4-3.3,6c-1.6,2.9-3.5,5.6-5.5,8.2c-1.2,1.7-2.6,3.3-3.8,4.9c-0.8,1.2-2,2-2.8,3.2c-2.2,2.3-4.5,4.5-6.7,6.7
		c-1.3,1.4-2.9,2.4-4.2,3.7c-0.7,0.7-1.6,1.3-2.4,1.9c-9.2,7.4-19.8,12.9-30.8,16.9c-3.7,1.1-7.3,2.4-11.1,3.1
		c-3.5,0.9-7.1,1.4-10.7,1.9c-1.1,0-2.2,0.4-3.3,0.3c-1,0-2,0.4-3,0.3c-1.2-0.1-2.4,0.4-3.6,0.3c-3-0.1-6,0.1-9-0.1
		c-1.5-0.5-3,0-4.5-0.4c-0.9-0.2-1.9,0-2.8-0.2c-7.2-0.9-14.3-2.3-21.2-4.6c-13.7-4.4-26.5-11.6-37.3-21.1c-2.7-2.2-5-4.9-7.5-7.3
		c-1.2-1-2-2.4-3.1-3.4c-3.1-3.8-6.2-7.6-8.8-11.8c-7.6-11.8-12.7-25.2-14.9-39.1c-2.1-0.4-3.9-1.6-5.9-2.4c0-0.1-0.1-0.2-0.1-0.3
		c3.4-1,6.8-2.3,10.2-3.5c0,0,0.1,0,0.1-0.1c3.1-0.8,6.1-1.9,9.1-2.9c2.4-0.6,4.7-1.5,7.1-2.3c2.9-0.8,5.7-1.9,8.6-2.7
		c3.8-1.3,7.7-2.4,11.6-3.8c3.2-0.9,6.4-2.1,9.6-3c2.4-0.7,4.8-1.8,7.3-2.2c1,1.7,2.1,3.3,3.2,4.9c0.2,0.2,0.2,0.5,0.2,0.8
		c-0.6,0.7-1.6,0.8-2.4,1.3c-8.4,4.2-16.8,8.4-25.2,12.6c-3.3,1.4-6.5,3.2-9.8,4.8c-0.8,0.3-1.7,0.5-2.5,0.8
		c-2.6,1.2-5.6,0.9-8.4,0.9c-3.8-0.5-7.8-0.3-11.2-2.3c1.3,7.7,3.5,15.3,6.6,22.5c1.2,2.7,2.3,5.4,3.8,8c1.6,3.2,3.5,6.2,5.4,9.1
		c3.8,5.4,7.8,10.6,12.5,15.2c1.7,1.6,3.2,3.4,5,4.8c9.5,8.4,20.6,15.1,32.6,19.5c3.8,1.6,7.7,2.6,11.7,3.7c6.6,1.6,13.3,2.7,20.1,3
		c1.1,0.2,2.2,0.3,3.3,0.2c2.5-0.1,4.9,0.1,7.4,0c1.8-0.3,3.7-0.2,5.5-0.5c21.1-2,41.5-10.4,57.7-24c1.5-1.4,3.3-2.6,4.7-4.1
		c2.1-2.2,4.5-4.3,6.5-6.7c11.9-13.3,20.3-29.7,23.8-47.2c0.4-1.7,0.5-3.4,1-5c-0.9,0.2-1.9,0.4-2.8,0.8c-1.3,0.5-2.8,0.1-4.1,0.6
		c-1.4,0.5-2.9,0.5-4.4,0.9c-1,0.3-1.9-0.3-2.7-0.7c-14.7-6.6-29.5-13.2-44.2-19.8c0.1-1.4,1.2-2.5,1.6-3.9
		C242.6,98.1,242.9,97.3,243.1,96.6z"/>
	<path class="st1" d="M239.8,104.8c2.6,1.4,5.4,2.6,7.9,4.1c2.9,1.5,5.8,2.9,8.8,4.4c1.5,0.7,2.9,1.7,4.5,2.4c3.3,1.7,6.6,3.2,9.8,5
		c2.5,1.3,5,2.5,7.5,3.8c1.4,0.7,2.8,1.4,4.1,2.2c-1,0.7-2.3,0.5-3.2,1.3c-2.1,0.5-4.1,1-6.2,1.4c-1.3,0.2-2.6-0.1-3.8,0.3
		c-1.1,0.4-2.2,0.2-3.3,0.3c-1.6,0.3-3.2,1-4.9,0.8c-1-0.3-1.7-1.1-2.4-1.7c-7.9-6-15.7-12.1-23.6-18.1
		C236.6,109,238.3,107,239.8,104.8z"/>
	<path class="st1" d="M146.5,109.3c1.5-0.6,2.8-1.9,4.4-2.1c0.9,1.7,2.4,2.7,3.8,4c0.3,0.4,1,1.1,0.5,1.6c-1.1,1-2.2,1.8-3.4,2.7
		c-6.2,5-12.5,10-18.8,14.9c-0.3,0.3-0.8,0.5-1.2,0.4c-8.2,0-16.3,0-24.5,0c3.6-2.4,7.5-4.3,11.3-6.4
		C127.9,119.4,137.2,114.4,146.5,109.3z"/>
	<path class="st1" d="M231.8,115.6c1.1-0.7,1.8-1.8,2.9-2.4c0.8,0.1,1.2,1,1.8,1.4c1.3,0.9,2.2,2.2,3.5,3.1c1.1,0.9,2,2.1,3.1,2.9
		s1.9,2,3,2.7c1.2,0.9,2.1,2.1,3.3,3c1.1,0.8,1.9,2,3,2.7c1.2,0.9,2.1,2.1,3.3,3c1.1,0.8,1.8,1.8,2.9,2.6c1,0.7,1.9,1.6,2.7,2.6
		c-6.3,0-12.6,0-18.9,0c-4.3-5.6-8.7-11.1-13.1-16.6c-0.6-0.7-1.6-1.5-1.5-2.5C229.2,117.6,230.4,116.5,231.8,115.6z"/>
	<path class="st1" d="M156.9,114.9c0.9,0.7,1.6,1.6,2.6,2.3c1.1,0.9,2.5,1.3,3.6,2.2c0.1,0.3,0,0.6-0.2,0.8
		c-2.5,3.4-5.2,6.8-7.7,10.2c-1.7,2.4-3.6,4.7-5.3,7c-6.5,0-13,0-19.4,0c1.5-1.6,2.9-3.1,4.6-4.5c6.6-5.4,13.2-10.8,19.8-16.2
		C155.6,116.2,156.3,115.7,156.9,114.9z"/>
	<path class="st1" d="M222.3,124c1.1-1.1,2.9-1.3,3.7-2.8c4.5,5.8,9.2,11.5,13.7,17.3c0.6,0.8,1.3,1.6,2,2.4c-1.1,0.6-2,1.5-3.2,1.8
		c-3.1,1-6.4,0.7-9.7,0.7c-1.2-0.1-2.5-0.5-3.6-1c-2.6-5-5-10-7.5-15c-0.5-1,0.9-1,1.5-1.3C220.2,125.4,221.4,124.9,222.3,124z"/>
	<path class="st1" d="M165.6,122.3c0.7,0.3,1.1,1.1,1.7,1.6c1.2,0.9,2.4,1.7,3.5,2.5c0.5,0.5,1.3,0.3,1.9,0.4c0.1,1.1-0.7,2-1.2,2.9
		c-1.8,3.2-3.6,6.4-5.5,9.6c-0.7,1.1-1.1,2.3-1.9,3.3c-2,0.7-4.1,0.8-6.2,1.2c-1.8,0-3.6,0.1-5.4-0.4c-0.6-0.2-1.1-0.7-1.7-1.1
		c0.4-0.7,0.9-1.4,1.4-2c2.9-3.9,5.8-7.7,8.7-11.6C162.7,126.7,163.9,124.3,165.6,122.3z"/>
	<path class="st1" d="M209,130.1c1.6-0.7,3-1.5,4.5-2.3c0.9,1.1,1.4,2.5,2,3.7c1.4,2.8,2.9,5.6,4.1,8.5c1.2,2.6,2.7,5.1,3.8,7.8
		c-1.8,0-3.5,0-5.3,0c-1.9-0.2-3.8-0.5-5.7-0.6c-0.5-0.1-0.8-0.4-1.3-0.7c-0.7-0.5-1.6-0.7-2.1-1.4c-0.5-0.8-1.1-1.5-1.5-2.4
		c-0.6-1.4-1.7-2.6-2-4.1c-0.1-0.8-0.3-1.6-0.7-2.3c-0.6-1.4-0.7-3-1.3-4.5C205.4,131.4,207.5,131.4,209,130.1z"/>
	<path class="st1" d="M176.5,128.1c1.1,0.3,1.8,1.3,2.8,1.8c1.7,0.4,3.4,1.3,5.1,0.6c0,2.6,0,5.1,0,7.7c-0.3,1.3-0.5,2.8-1.3,3.9
		c-0.5,0.7-0.6,1.6-1,2.3c-1,1.2-2.5,1.7-3.8,2.2c-1.8,0.4-3.7,0.4-5.5,0.8c-2.3,0.5-4.8-0.3-6.4-1.9c-0.1-0.4,0.3-0.8,0.4-1.1
		c3-5.2,5.9-10.4,8.9-15.5C175.8,128.5,176.2,128.3,176.5,128.1z"/>
	<path class="st1" d="M188.6,131.9c1.7,0.1,3.4,0.9,5.1,0.9c1.5,0,2.9,0,4.4,0c1.1-0.2,2.2-0.4,3.3-0.7c-0.2,1.9,0.6,3.6,0.7,5.5
		c0.3,1.7,1.1,3.2,1.2,4.9c0,1.3,0.9,2.2,1.4,3.3c-0.3,0.5-0.5,0.9-0.9,1.3c-3.2,3.2-6.4,6.4-9.6,9.6H194c-3.2-3.2-6.4-6.4-9.6-9.6
		c1.1-1.9,1.5-4.1,2.2-6.2c0.3-0.9,0.3-2,0.7-2.9C188.3,136,188,133.8,188.6,131.9z"/>
	<path class="st2" d="M185.7,3.1c1.4-0.3,2.9,0,4.3-0.4c1.9-0.2,3.8,0,5.7-0.1c1.7,0.1,3.4-0.2,5,0.2c1.2,0.2,2.4-0.1,3.6,0.2
		c7.3,0.6,14.6,2,21.6,4.1c2.2,0.8,4.6,1.3,6.7,2.3c8.3,3,16.1,7.2,23.4,12.3c1.6,1,3,2.2,4.6,3.4c2.1,1.4,3.9,3.3,5.9,4.8
		c1.3,1.2,2.5,2.5,3.7,3.7c1.5,1.6,3.2,3,4.5,4.8c1.3,1.2,2.2,2.7,3.4,4c3.9,4.8,7.3,10.1,10.2,15.6c2.3,4,4,8.4,5.7,12.7
		c1.3,3.8,2.6,7.7,3.4,11.7c-20.8,0.1-41.7,0-62.5,0c-0.1,2.4,0.2,4.8-0.3,7.1c-0.8,7.2-4,14.1-8.8,19.4c-1.9,1.9-3.8,3.9-6.1,5.4
		c-5.4,3.9-11.8,6.3-18.3,7.2c-3.1,0.4-6.2,0.6-9.3,0.1c-4-0.2-7.8-1.3-11.5-2.8c-1.3-0.7-2.8-1.1-4.1-2c-4.9-2.7-9.2-6.5-12.6-11
		c-1.4-2.2-2.9-4.2-3.8-6.7c-1.4-3.2-2.3-6.7-2.7-10.2c-0.4-2.2-0.1-4.4-0.2-6.6c-21.6,0-43.1,0-64.7,0c1.4-6.2,3.5-12.1,6-17.9
		c1-1.9,1.6-3.9,2.8-5.7c1.2-2.5,2.6-4.9,4.1-7.2c1.2-1.7,2.1-3.5,3.4-5.1c2.5-3.6,5.4-7,8.3-10.3c2.4-2.3,4.6-4.9,7.3-7
		c4.4-3.9,9.1-7.5,14.1-10.6c2.1-1.4,4.4-2.5,6.6-3.8c4.7-2.5,9.7-4.5,14.7-6.4C168.2,5.7,176.9,3.8,185.7,3.1 M209.2,8.7
		c-1,2.1-1.9,4.4-2.9,6.5c-1.6,3-2.7,6.2-4.3,9.1c3.4,1.8,7,3.5,10.5,5.1c1.7,0.7,3.3,1.6,5,2.3c0.6-1.4,1.4-2.8,2.1-4.3
		c1-2.6,2.5-4.9,3.5-7.5c0.6-1.5,1.6-2.8,1.9-4.3c-0.8-0.3-1.6-0.6-2.4-1C218.1,12.6,213.7,10.6,209.2,8.7 M178.7,10.9
		c0.5,1.9,1.6,3.7,2,5.6c-2.4,1-4.8,2-7.1,3.1c0.5,1.1,0.9,2.2,1.4,3.3c2.4-0.8,4.7-2.1,7.1-3c0.7,1.2,1.1,2.6,1.6,3.9
		c1.1,2.7,2.1,5.5,3.2,8.2c1.2-0.5,2.3-1.1,3.5-1.5c0-0.2,0-0.5-0.1-0.7c-2.2-5.5-4.2-11-6.3-16.4c-0.6-1.3-0.9-2.7-1.6-4
		C181,9.8,179.8,10.4,178.7,10.9 M162.3,16.1c0,2.2-0.4,4.3-0.7,6.5c-0.8,2.3-1.8,4.5-2.9,6.7c-0.5,0.7-1.1,1.4-1.6,2.1
		c1,0.9,1.9,2,3,2.9c1.4-1.1,2.3-2.6,3.1-4.1c0.3-1,1.1-1.8,1.4-2.8c0.6-0.1,1.1,0.5,1.6,0.8c1,0.8,2.3,0.8,3.4,1.3
		c1.4,0.7,2.9,1.2,4.4,1.2c0.5-1.1,1-2.2,1.4-3.3c-1.3,0.2-2.1-0.9-3.3-1.1c-1-0.2-2-0.7-2.9-1.2c-1.2-0.4-2.3-1-3.4-1.6
		c0-1.2,0.5-2.3,0.6-3.5c0.1-1,0.7-1.7,0.8-2.7C165.5,16.9,164,15.9,162.3,16.1 M231.9,18c-0.5,1.2-1.2,2.3-1.6,3.5
		c-0.9,2.1-2.2,4.1-3,6.3c-1.3,2.6-2.6,5.3-3.8,7.9c1,0.5,2,1,3,1.5c1-1.9,2-3.8,2.8-5.8c1.5-3.2,3.2-6.2,4.6-9.4
		c0.4-0.9,1.1-1.8,1.2-2.8C234,18.9,233.1,18.2,231.9,18 M201.3,25.7c-1.4,2.9-2.8,5.9-4.5,8.7c2.6,1.1,4.8,2.8,7.4,3.9
		c1.8,1.2,3.8,1.9,5.7,3.1c3.7,1.9,7.3,3.9,11,5.8c0.5,0.2,1,0.8,1.6,0.7c0.3-0.8,0.9-1.5,0.9-2.4c-1.6-0.8-3.2-1.5-4.8-2.5
		c-3.4-1.7-6.7-3.6-10-5.3c-1.4-0.9-3-1.5-4.4-2.4c-1.1-0.7-2.5-1-3.3-2c0.3-1.1,1-2.1,1.6-3.1c0.6-1.1,1.1-2.3,1.7-3.4
		C203.2,26.5,202.3,25.8,201.3,25.7 M134.7,32.5c-1.3,1.4-2.7,2.6-3.9,4c-1.6,2.2-3.8,3.7-5.4,5.9c-1.6,1.8-3.5,3.3-4.9,5.2
		c-0.7,0.8-1.5,1.5-2.2,2.3c0.8,0.9,1.7,1.8,2.6,2.7c0.5-0.1,0.8-0.7,1.2-1.1c1.2-1.7,2.9-3,4.2-4.5c0.4-0.6,0.9-1.2,1.5-1.7
		c0.2,1.8,1.2,3.4,1.5,5.2c0.4,1.3,0.1,2.8,0.6,4.1s0.1,2.7-0.3,4c-0.2,0.7-0.9,1.3-0.9,2c1.1,0.7,2.4,1.2,3.7,1.5
		c0.3-0.8,0.9-1.3,1.1-2c0.5-3.1,0.6-6.3,0-9.4c-0.7-1.9-1-3.9-1.6-5.8c2.3,0.4,4.6,0.7,6.9,1.1c1.5,0.1,3.1,0,4.6,0
		c1,0,2-0.5,3-0.5c0.8,0,1.6-0.2,2.4-0.3c0.4-1,0.5-2.2,0.8-3.2c-1,0-2.1-0.2-3,0.3s-2,0.1-2.9,0.3c-1.5,0.4-3.1,0.2-4.7,0.2
		c-1.2-0.2-2.4-0.6-3.6-1c-1.2-0.6-2.6-0.2-3.8-0.3c1-1.2,2.3-2.1,3.2-3.4c0.8-1,1.7-1.8,2.6-2.7c1.1-1,1.9-2.2,2.9-3.2
		c-0.8-0.9-1.6-1.8-2.5-2.6C136.7,30.2,135.6,31.2,134.7,32.5 M251,31.9c4.8,4.7,9.4,9.5,14.2,14.2c0.6-0.6,1.5-1.2,1.8-1.9
		c-1.7-1.7-3.4-3.4-5-5.1c0.5-0.9,1.6-1.5,2.2-2.4c-0.8-0.9-1.6-1.8-2.5-2.6c-0.9,0.6-1.5,1.7-2.4,2.2c-2.1-2.1-4.2-4.3-6.4-6.3
		C252.3,30.6,251.6,31.2,251,31.9 M188.5,34.2c-1.6,0.6-3.1,1.6-4.7,2.2c-1.6,0.6-3.1,1.6-4.7,2.2c-1.7,0.6-3.2,1.6-4.9,2.3
		c-1.8,0.7-3.4,1.8-5.1,2.5c-0.8-2.9-2.2-5.5-3.2-8.3c-1,0.3-1.8,1.2-2.7,1.8c1.3,3.4,2.5,6.9,4.2,10.1c2.2-0.5,4-1.8,6.1-2.7
		c1.7-0.7,3.3-1.6,5-2.4c2.1-0.8,3.9-2,6-2.8c2.5-1.4,5.2-2.3,7.7-3.8c-0.3-0.9-0.6-1.9-1.3-2.5C190.3,33.4,189.4,33.8,188.5,34.2
		 M246.5,36.8c-1.2,0.8-1.7,2.3-2.3,3.5c-0.5,1.6,0.9,2.6,1.7,3.7c0.8,1.1,2.1,1.7,3,2.8c1.4,1.5,2.9,2.8,4.1,4.4
		c0.7,0.7,1.4,1.4,2,2.2c1.5,0.7,3.2,0.4,4.7-0.2c1.1-0.4,1.5-1.8,1.5-2.9c-0.1-1.4,0.2-2.9-0.4-4.3c-1.3-1-2.4-2.2-3.5-3.3
		c-2-2-4-4-6.1-6.1C249.6,36.4,248,36.2,246.5,36.8 M270.9,45.6c-4.3,4.4-8.7,8.6-12.9,13c0.7,0.8,1.5,1.6,2.3,2.3
		c2-1.9,3.9-3.9,5.8-5.8h0.2c1.1,1.1,2.2,2.3,3.3,3.3c0.7-0.6,1.3-1.2,1.9-1.9c-1.1-1.1-2.3-2.2-3.4-3.4c1.8-1.9,3.7-3.7,5.5-5.5
		c-0.5-0.9-1.4-1.5-2-2.2C271.4,45,271.1,45.5,270.9,45.6 M238,45.8c-1.1,0.7-1.5,1.9-2,2.9c-0.4,0.6-0.4,1.4-0.2,2.1
		c1.1,1.9,2.9,3.2,4.2,4.9c0.5,0.6,1.1,1.1,1.6,1.7c1.1,1.5,2.5,2.6,3.7,3.9c1.7,1.8,3.6,3.4,5.1,5.3c1.3,0.8,2.9,0.3,4.3-0.1
		c1.3-0.3,2-1.8,1.8-3.1c-0.1-1.4,0.2-2.9-0.4-4.3c-0.8-0.6-1.7-1.3-2.2-2.2c-1.9-2.3-4.3-4.1-6.1-6.5c-1.7-1.7-3.4-3.4-5.1-5.1
		C241.1,45.4,239.5,45.3,238,45.8 M147.2,54.9c-1.6-1.4-3-3.1-4.7-4.6c-1.1,1-2.1,2-3.1,3.1c1.5,1.6,3.1,3.1,4.7,4.7v0.2
		c-3.1,3.1-6.1,6.2-9.2,9.2c0.9,1,1.9,1.9,2.8,2.9c0.5-0.1,0.7-0.7,1.1-0.9c6.8-6.8,13.6-13.6,20.4-20.4v-0.2c-1-1-1.9-2-2.9-2.9
		C153.1,48.8,150.2,52,147.2,54.9 M193,47.5c-4.1,0.3-8.2,1.4-12,3.1c-11.2,5.1-19.4,16.5-20.2,28.9c-0.6,3.2,0,6.4,0.4,9.6
		c0.5,2.2,1,4.4,1.9,6.6c1,2.5,2.3,4.7,3.7,7c0.9,1.1,1.6,2.4,2.7,3.3c0.6,0.6,1,1.4,1.7,1.9c1,0.7,1.6,1.7,2.6,2.3
		c3.8,3,8.2,5.2,12.8,6.4c2.2,0.7,4.5,0.8,6.8,1.1c5.8,0.2,11.8-0.8,17.1-3.5c3.3-1.5,6.3-3.6,8.9-6.2c1.1-0.6,1.6-1.8,2.6-2.6
		c2.6-2.8,4.4-6.2,5.9-9.7c0.9-2.4,1.6-4.8,2-7.3c0.3-1.2,0.2-2.4,0.5-3.6c0.4-5.2-0.7-10.4-2.5-15.3c-1.7-3.9-3.9-7.8-7-10.8
		c-0.7-1.1-1.8-1.6-2.6-2.6c-2.9-2.6-6.3-4.5-9.8-6.1c-3.1-1.1-6.3-2.1-9.6-2.3C197,47.3,195,47.3,193,47.5z"/>
	<path class="st2" d="M211.1,12.5c1.4,0.3,2.5,1.1,3.8,1.6c2.1,0.9,4.2,1.9,6.3,2.8c-1.3,2.8-2.6,5.6-3.9,8.4
		c-0.4,1-0.8,1.9-1.3,2.8c-1-0.6-2.1-0.9-3.2-1.4c-2.2-1.2-4.6-2-6.7-3.3c0-0.8,0.5-1.4,0.9-2.1c0.6-1.1,1-2.4,1.6-3.6
		C209.5,16,210,14.1,211.1,12.5z"/>
	<path class="st2" d="M248.4,38.6c0.5-0.1,1.1-0.2,1.5,0.3c2.7,2.8,5.5,5.5,8.2,8.2c0.6,0.6,0.9,1.7,0.3,2.4s-1.6,1.6-2.5,0.9
		c-2.8-2.8-5.7-5.7-8.5-8.5c-0.3-0.7-0.8-1.7-0.1-2.4C247.6,39.2,247.9,38.8,248.4,38.6z"/>
	<path class="st2" d="M239.9,47.7c0.5-0.1,1.1-0.2,1.5,0.3c1.3,1.4,2.7,2.6,3.9,4c1,1.5,2.5,2.5,3.5,3.9c1.5,1.7,3.2,3.2,4.8,4.8
		c0.5,0.6,0.7,1.6,0.2,2.2c-0.6,0.6-1.4,1.4-2.3,1c-2.3-2.3-4.6-4.6-6.9-6.9c-1.2-1.7-3-2.9-4.2-4.6c-0.5-0.6-1.1-1.1-1.6-1.7
		c-0.2-0.5-0.3-1-0.4-1.5C238.7,48.6,239.2,48.1,239.9,47.7z"/>
	<path class="st2" d="M193,51c8.4-0.7,17.1,2.3,23.4,7.9c0.8,0.8,1.6,1.7,2.5,2.5c5.4,6,8.3,14.1,8,22.2c-0.3,6.5-2.5,13-6.5,18.2
		c-1.1,1.7-2.7,3-4.1,4.4c-3.2,2.8-7.1,5-11.2,6.4c-3.9,1.1-8,1.8-12.1,1.4c-2.5-0.4-5.1-0.7-7.5-1.6c-3.8-1.3-7.4-3.4-10.5-6
		c-2.1-2-4.1-4-5.6-6.5c-2.9-4.4-4.8-9.4-5.1-14.7c-0.3-2-0.3-4.1,0.1-6.1c0.2-2.8,0.9-5.6,1.9-8.2c1.3-3.4,3.3-6.4,5.6-9.2
		c2.2-2.4,4.7-4.7,7.6-6.4C183.6,52.9,188.3,51.5,193,51 M193.6,53.5c-0.4,0.1-0.8,0.1-1.2,0.2c-5.1,0.5-10,2.6-14,5.7
		c-2.1,1.5-3.8,3.5-5.4,5.6c-1.9,2.4-3.2,5.2-4.3,8.1c-0.9,2.4-1.2,5-1.5,7.5c-0.3,6.3,1.3,12.7,4.9,17.9c3.4,5.4,8.8,9.4,14.9,11.4
		c4,1.2,8.4,1.9,12.6,1.1c10-1.3,19-8.3,22.6-17.7c1.8-4.7,2.7-9.9,1.8-14.9c-0.8-5.5-3.1-10.8-6.7-15c-4.5-5.2-10.9-8.8-17.7-9.7
		C197.5,53.5,195.6,53.2,193.6,53.5z"/>
	<path class="st2" d="M193,57.1c1.4-0.2,2.8-0.1,4.3-0.1c3.5,0.5,7,1.3,10.1,3c1.5,1,3.2,1.9,4.5,3.2c4.5,3.8,7.5,9.4,8.4,15.2
		c1.4,8.1-1.6,16.7-7.5,22.4c-0.6,0.4-1.1,0.9-1.6,1.4c-5.4,4.4-12.7,6.4-19.6,5.3c-4.5-0.8-8.9-2.7-12.3-5.8
		c-6.7-5.7-10.2-15.2-8.4-23.9c1.1-6.2,4.6-12,9.7-15.8c1.5-1.1,3.1-2.2,4.9-2.8C187.9,58,190.5,57.5,193,57.1 M194.3,59.1
		c-1.7,4.9-3.3,9.9-5,14.8c-5.4,0-10.8,0-16.2,0c0.5,0.6,1.1,1.1,1.8,1.6c0.8,0.5,1.1,1.6,2,1.8c3,2.4,5.8,5,8.8,7.4
		c-1.6,5.5-3.3,10.9-4.9,16.4c0.5-0.2,1-0.3,1.5-0.5c4.2-2.8,8.3-5.8,12.6-8.6c1,0.3,1.8,1.2,2.7,1.7c2.3,1.7,4.7,3.2,7,4.8
		c1.5,0.9,2.8,2.1,4.5,2.6c-0.2-0.7-0.2-1.4-0.5-2c-1.5-4.8-2.8-9.6-4.3-14.4c2.6-1.8,5.1-3.7,7.6-5.6c2.2-1.7,4.6-3.3,6.7-5.2
		c-5.9-0.1-11.9,0-17.8,0c-1.7-4.9-3.3-9.9-5-14.8c-0.2-0.5-0.4-0.9-0.7-1.3C194.7,58.2,194.4,58.6,194.3,59.1z"/>
	<path class="st2" d="M240.9,86.6c1.3,0,2.6,0.3,4,0.4c2.6,0.3,5.2,0.6,7.8,0.9c30.3,3.8,60.6,7.5,90.9,11.3
		c1.9,0.2,3.8,0.6,5.8,0.5c0.7,0,1.2-0.5,1.9-0.5c1.9-0.2,3.9-0.4,5.8-0.6c-0.3,0.6-1.1,0.6-1.6,1c-0.7,0.2-1.2,0.9-1.9,1.2
		c-1,0.5-2,0.7-3.1,1c-1,0.7-2.6,0.8-3.2,2h-0.2c-1.4-0.3-2.8,0-4.2-0.4c-5.9-1.2-11.9-1.6-17.8-2.5c-26.4-3.4-52.8-6.8-79.2-10.1
		c-0.4-0.1-0.6,0-0.7,0.4c-0.5,1.2-0.8,2.5-1.2,3.8c24.3,5.9,48.6,11.8,73,17.7c1.3,0.4,2.7,0.1,4,0c-1.3,1.2-3.1,1.9-4.7,2.8
		c-1.6,0.6-3.2,0.9-4.8,1.2c-2.5-0.6-4.9-1.4-7.3-2.1c-20.4-6-40.8-12-61.2-17.9c-0.2,0.8-0.5,1.5-0.7,2.3c-0.3,1.4-1.5,2.4-1.6,3.9
		c14.8,6.5,29.5,13.2,44.2,19.8c0.8,0.4,1.7,1,2.7,0.7c1.4-0.4,3-0.3,4.4-0.9c1.3-0.5,2.8-0.1,4.1-0.6c0.9-0.3,1.8-0.6,2.8-0.8
		c-0.4,1.6-0.6,3.3-1,5c-3.6,17.5-11.9,33.9-23.8,47.2c-2,2.4-4.4,4.4-6.5,6.7c-1.4,1.5-3.1,2.7-4.7,4.1c-16.2,13.6-36.7,22-57.7,24
		c-1.8,0.3-3.7,0.1-5.5,0.5c-2.5,0.1-4.9,0-7.4,0c-1.1,0-2.2-0.1-3.3-0.2c-6.8-0.3-13.5-1.4-20.1-3c-3.9-1.1-7.9-2.1-11.7-3.7
		c-11.9-4.4-23-11.1-32.6-19.5c-1.8-1.4-3.4-3.2-5-4.8c-4.7-4.6-8.8-9.8-12.5-15.2c-1.9-3-3.8-6-5.4-9.1c-1.5-2.5-2.6-5.3-3.8-8
		c-3.1-7.2-5.3-14.8-6.6-22.5c3.4,2,7.4,1.8,11.2,2.3c2.8,0,5.8,0.3,8.4-0.9c0.8-0.3,1.7-0.5,2.5-0.8c3.3-1.6,6.4-3.3,9.8-4.8
		c8.4-4.2,16.8-8.4,25.2-12.6c0.8-0.4,1.7-0.6,2.4-1.3c0.1-0.3,0-0.5-0.2-0.8c-1.1-1.6-2.2-3.2-3.2-4.9c-2.5,0.5-4.8,1.5-7.3,2.2
		c-3.2,0.9-6.4,2.1-9.6,3c-3.8,1.3-7.7,2.4-11.6,3.8c-2.9,0.8-5.7,1.9-8.6,2.7c-2.4,0.7-4.7,1.6-7.1,2.3c-3,1-6,2.1-9.1,2.9
		c0,0-0.1,0-0.1,0.1c-3.4,1.1-6.7,2.5-10.2,3.5c-0.2-0.2-0.5-0.4-0.7-0.6c-1.2-0.2-2.3-0.8-3.4-1.2c-0.3-0.1-0.5-0.3-0.6-0.5
		c1.5-0.2,2.8-0.9,4.2-1.3c3.4-0.8,6.5-2.3,9.9-3c16.3-5.1,32.6-10.2,48.9-15.2c2-0.7,4.2-1.2,6-2.2c-0.7-1.4-1.5-2.7-2.2-4.1
		c-0.2-0.5-0.6-0.5-1-0.4c-12.2,2.1-24.4,4.1-36.6,6.1c-3.7,0.7-7.5,1.1-11.1,2c-14.6,2.3-29.2,4.7-43.8,7.2c-2.6,0.4-5.1,1-7.6,1.2
		c-0.8-0.5-1.8-0.9-2.4-1.7c-1.1-1.3-2.9-1.6-4.2-2.7c-0.3-0.2-0.6-0.4-0.5-0.8c6.5-0.9,104.4-13.1,108.5-13.7
		c1.2-0.1,2.4-0.4,3.7-0.4c0.5,4.4,1.1,9,2.9,13.1c1.1,3.3,3,6.2,4.9,9.1c2.3,3.1,4.9,5.9,7.9,8.3c7.9,6.5,18.1,10.1,28.3,10.4
		c6.6,0.2,13.2-1.2,19.4-3.7c1.7-0.8,3.4-1.4,4.9-2.5c8.6-4.9,15.6-12.7,19.1-22C240,96.1,240.7,91.3,240.9,86.6 M239.8,104.8
		c-1.5,2.2-3.2,4.2-5,6.2c7.9,6,15.8,12.1,23.6,18.1c0.8,0.6,1.5,1.4,2.4,1.7c1.7,0.2,3.3-0.5,4.9-0.8c1.1-0.1,2.2,0.1,3.3-0.3
		c1.2-0.5,2.5-0.2,3.8-0.3c2.1-0.5,4.2-0.9,6.2-1.4c0.9-0.8,2.2-0.6,3.2-1.3c-1.3-0.9-2.7-1.6-4.1-2.2c-2.5-1.3-5-2.5-7.5-3.8
		c-3.2-1.9-6.5-3.3-9.8-5c-1.6-0.7-2.9-1.7-4.5-2.4c-2.9-1.5-5.8-2.9-8.8-4.4C245.2,107.3,242.5,106.1,239.8,104.8 M146.5,109.3
		c-9.3,5.1-18.6,10.1-27.9,15.1c-3.8,2.1-7.6,4-11.3,6.4c8.2,0,16.3,0,24.5,0c0.5,0.1,0.9-0.1,1.2-0.4c6.3-5,12.5-9.9,18.8-14.9
		c1.1-0.9,2.3-1.7,3.4-2.7c0.5-0.5-0.2-1.2-0.5-1.6c-1.4-1.2-2.9-2.3-3.8-4C149.3,107.4,148.1,108.7,146.5,109.3 M231.8,115.6
		c-1.4,0.8-2.5,2-4,2.6c0,1,0.9,1.8,1.5,2.5c4.4,5.5,8.8,11,13.1,16.6c6.3,0.1,12.6,0,18.9,0c-0.8-0.9-1.7-1.8-2.7-2.6
		s-1.8-1.9-2.9-2.6c-1.2-0.9-2.1-2.1-3.3-3c-1.1-0.8-1.9-2-3-2.7c-1.2-0.9-2.1-2.1-3.3-3c-1.1-0.8-1.9-2-3-2.7c-1.2-0.8-2-2-3.1-2.9
		c-1.3-0.9-2.2-2.2-3.5-3.1c-0.7-0.4-1-1.3-1.8-1.4C233.5,113.8,232.8,114.9,231.8,115.6 M156.9,114.9c-0.5,0.8-1.3,1.3-2.1,1.9
		c-6.6,5.4-13.2,10.8-19.8,16.2c-1.7,1.3-3.2,2.9-4.6,4.5c6.5,0,13,0,19.4,0c1.8-2.3,3.6-4.7,5.3-7c2.5-3.4,5.2-6.7,7.7-10.2
		c0.2-0.2,0.3-0.5,0.2-0.8c-1.1-0.9-2.5-1.3-3.6-2.2C158.4,116.5,157.7,115.6,156.9,114.9 M222.3,124c-0.9,0.9-2.1,1.4-3.1,2.1
		c-0.6,0.3-2,0.3-1.5,1.3c2.5,5,5,10,7.5,15c1.1,0.5,2.4,0.9,3.6,1c3.2,0,6.5,0.3,9.7-0.7c1.2-0.3,2.2-1.2,3.2-1.8
		c-0.7-0.8-1.3-1.6-2-2.4c-4.6-5.8-9.3-11.5-13.7-17.3C225.3,122.7,223.5,122.9,222.3,124 M165.6,122.3c-1.7,2.1-2.9,4.4-4.8,6.3
		c-2.9,3.9-5.8,7.7-8.7,11.6c-0.5,0.6-1,1.3-1.4,2c0.6,0.4,1.1,0.9,1.7,1.1c1.7,0.5,3.6,0.4,5.4,0.4c2.1-0.3,4.2-0.4,6.2-1.2
		c0.9-1,1.3-2.2,1.9-3.3c1.9-3.2,3.7-6.4,5.5-9.6c0.5-0.9,1.3-1.8,1.2-2.9c-0.6-0.1-1.4,0.1-1.9-0.4c-1.1-0.9-2.3-1.7-3.5-2.5
		C166.7,123.4,166.3,122.6,165.6,122.3 M209,130.1c-1.5,1.2-3.5,1.2-5.3,1.8c0.6,1.5,0.6,3.1,1.3,4.5c0.3,0.7,0.6,1.5,0.7,2.3
		c0.3,1.5,1.4,2.7,2,4.1c0.4,0.8,0.9,1.6,1.5,2.4c0.5,0.7,1.4,1,2.1,1.4c0.4,0.2,0.8,0.6,1.3,0.7c1.9,0.1,3.8,0.4,5.7,0.6
		c1.8,0,3.5,0,5.3,0c-1.1-2.6-2.6-5.2-3.8-7.8c-1.2-2.9-2.8-5.7-4.1-8.5c-0.7-1.2-1.1-2.6-2-3.7C212,128.6,210.5,129.5,209,130.1
		 M176.5,128.1c-0.3,0.2-0.7,0.4-0.9,0.8c-3,5.2-5.9,10.4-8.9,15.5c-0.1,0.4-0.5,0.7-0.4,1.1c1.7,1.6,4.1,2.4,6.4,1.9
		c1.8-0.4,3.7-0.4,5.5-0.8c1.4-0.6,2.8-1.1,3.8-2.2c0.4-0.7,0.5-1.6,1-2.3c0.8-1.2,1-2.6,1.3-3.9c0.1-2.6,0-5.1,0-7.7
		c-1.7,0.7-3.4-0.3-5.1-0.6C178.3,129.4,177.7,128.4,176.5,128.1 M188.6,131.9c-0.7,2-0.3,4.1-1.2,6c-0.3,0.9-0.3,2-0.7,2.9
		c-0.7,2.1-1.1,4.3-2.2,6.2c3.2,3.2,6.4,6.4,9.6,9.6h0.2c3.2-3.2,6.4-6.4,9.6-9.6c0.4-0.4,0.7-0.8,0.9-1.3c-0.5-1.1-1.4-2-1.4-3.3
		c0-1.7-0.9-3.2-1.2-4.9c-0.1-1.9-0.9-3.6-0.7-5.5c-1.1,0.3-2.2,0.6-3.3,0.7c-1.4,0.1-2.9,0-4.4,0C192,132.8,190.4,132,188.6,131.9
		 M258.8,144.1c-0.3,2.2-0.4,4.4-0.3,6.7c0.2,0.9,1.1,1.6,1.4,2.4c0.3,0.9,1.3,1.3,2.1,1.7c1.6,1,3.4,0.5,5.2,0.6
		c1.2,0.1,1.8-1.2,2.6-1.8c1.1-0.7,0.9-2.3,0.9-3.5c-0.1-1.2,0.3-2.4-0.4-3.5c-0.4-0.8-0.6-1.8-1.1-2.6c-1.7,1.6-3.3,3.2-4.9,4.9
		c0.5,0.5,0.9,1.3,1.7,1.4c0.8-0.4,1.5-1.1,2.2-1.7c0.4,0.8,0.3,1.8-0.3,2.4c-0.9,0.6-1.4,1.5-2.4,2c-1.1-0.5-2.2-0.9-3.1-1.6
		c-0.4-0.7-0.7-1.4-1.3-2c-0.7-0.7-0.7-1.8-0.6-2.7c0.1-1.5,1.4-2.5,2.5-3.3c1,0.3,2.1,0.6,3,1.1c0.8-0.6,1.5-1.4,2.2-2.1
		c-0.9-0.3-1.7-0.8-2.6-1.1c-1.3-0.6-2.8-0.4-4.2-0.3C260,141.5,260,143.5,258.8,144.1 M123.9,145.9c-0.1,2.4-0.4,5.3,1.6,7.1
		c1,0.6,2.2,0.8,3.3,1.1c1.5,0,3,0.2,4.4-0.3c-0.8-0.6-1.6-1.2-2.4-1.8c-1.2-0.3-2.5-0.5-3.5-1.1c-0.5-1.1-1.4-2.2-1-3.5
		c0.8-0.9,1.7-1.8,3-2c1.7,0.2,3.3,1.2,4.2,2.6c0.4,1,1.2,1.7,2,2.4c0.2-1.2,0.6-2.5,0.1-3.7c-0.3-0.7-0.6-1.4-0.9-2.1
		c-1-1-2.6-1.5-4-1.4c-1.3,0-2.5,0-3.8,0C125.6,143.6,124.4,144.6,123.9,145.9 M130.3,156.7c-0.3,0.3-0.6,0.6-0.9,0.9
		c0.7,0.5,1.2,1.1,1.7,1.7c1.3-1.1,2.6-2.2,4-3.3c1.3,1.2,2.3,2.7,3.6,3.9c0,0.3-0.4,0.5-0.5,0.7c-1.1,1-2.5,1.8-3.5,3
		c0.7,0.5,1.2,1.1,1.7,1.7c1-0.8,2-1.6,3-2.4c2.2-2,4.7-3.6,6.8-5.7c-0.7-0.4-1.1-1.3-1.9-1.5c-1.3,0.9-2.4,1.9-3.6,2.9
		c-1.1-1.5-2.5-2.7-3.6-4.2c1.1-0.9,2.1-1.9,3.3-2.6c-0.5-0.7-1-1.6-1.9-1.8C135.6,152.1,133,154.5,130.3,156.7 M254.4,150
		c-0.3,0.6-1.1,1.1-0.8,1.8c1.6,1.7,3.4,3.3,4.9,5c0.7,1.1,1.7,1.8,2.5,2.8c-4.2-1.2-8.4-2.5-12.7-3.6c-0.5,0.4-1.3,0.9-1.4,1.6
		c1.5,2.3,3.4,4.3,5.1,6.5c1.5,2,3.1,3.9,4.6,5.9c0.6-0.6,1.8-0.9,1.9-1.9c-1.9-2.4-3.8-4.7-5.6-7c-0.4-0.5-0.9-0.9-1-1.5
		c3.9,1.1,7.9,2.2,11.9,3.3c0.7,0,1.3-0.8,1.7-1.4c-0.1-0.8-1-1.2-1.4-1.9c-1-1.5-2.6-2.5-3.6-4c-0.9-1.2-2.1-2.1-3.1-3.2
		c-0.6-0.8-1.3-1.6-2.1-2.3C254.9,150.1,254.6,150,254.4,150 M146.2,160c-0.7,0.3-1.5,0.5-2.2,0.8c-0.8,0.5-1.2,1.3-1.8,2
		c-1.3,1.6-1.8,3.8-1.6,5.8c0.1,1.2,0.9,2.2,1.5,3.2c0.4,0.3,0.8,0.5,1.3,0.6c1.8,0.1,3.6,0,5.3-0.4c1.6-0.9,2.4-2.6,3.4-4.1
		c0.3-1.7,0.6-3.5,0.3-5.2c-0.5-0.8-1.1-1.5-1.6-2.2C149.3,159.8,147.7,159.8,146.2,160 M240.3,163c0.3,4.5,1.4,8.9,2.3,13.3
		c0.2,1,0.3,2.1,0.8,3.1c0.7-0.6,1.4-1.1,2.2-1.5c0.2-1.5-0.7-2.9-0.5-4.5c1.8-1.1,3.5-2.5,5.2-3.7c1.3,0.4,2.3,1.6,3.5,2.3
		c0.6-0.4,1.3-0.7,1.9-1.2c0-0.1,0-0.3,0-0.4c-1.8-1.3-3.8-2.5-5.6-3.8c-2.5-1.9-5.4-3.4-7.9-5.3C241.4,161.7,240.6,162.2,240.3,163
		 M232.1,168.2c0.6,1.9,1.8,3.6,2.7,5.4c-1.9,1.2-3.8,2.3-5.7,3.6c-0.4-1.5-1.1-2.8-1.6-4.3c-0.3-0.8-0.5-1.6-1.1-2.3
		c-0.7-0.1-1.3,0.5-1.9,0.8c-0.4,0.2-0.1,0.7,0,1c1.5,4,3.1,7.9,4.6,11.9c0.2,0.6,0.4,1.2,0.8,1.7c0.7,0.1,1.3-0.5,1.9-0.8
		c0.4-0.2,0.1-0.7,0-1c-0.6-1.6-1.3-3.1-1.8-4.7c1.4-0.9,2.9-1.8,4.3-2.7c0.5-0.3,1-0.8,1.6-0.7c0.9,1.9,2,3.7,2.9,5.5
		c0.8,0.1,1.1-0.7,1.6-1.1c0.4-0.3,0.1-0.8-0.1-1.1c-1.2-2.4-2.4-4.8-3.6-7.1c-1.1-1.7-1.8-3.6-2.8-5.3
		C233.5,167.2,232.5,167.5,232.1,168.2 M154.1,169.3c-0.3,1-0.4,2.1-0.4,3.2c-0.2,1.9,2.1,2.7,2.5,4.4c0.1,1.1-1.1,2-2.1,1.5
		c-1.1-0.1-1.7-1.1-2.2-2c-0.2-0.8,0-1.7-0.2-2.5c-0.4-0.5-0.9-0.9-1.3-1.3c-0.5,0.7-1.2,1.4-1.1,2.3c0,1,0,2,0,3
		c0.5,1.5,1.7,2.6,3.1,3.3c1.5,0.2,3,0.1,4.4-0.4c1-0.1,1.6-1.1,2-1.8c0.7-1.3,0.4-2.9-0.2-4.3c-0.7-1-1.6-1.9-2.4-2.9
		c-0.1-0.5-0.3-1.2,0.3-1.5c0.6-0.2,1.2-0.3,1.8-0.3c0.6,0.3,1.3,0.7,1.6,1.4c0.3,0.6,0.4,1.4,0.7,2c0.4,0.6,1,1,1.5,1.5
		c1-1.1,1.2-3,0.5-4.3c-0.3-0.8-0.4-1.8-1.2-2.3c-0.4-0.3-0.8-0.8-1.4-0.8c-1.2,0-2.3-0.1-3.5,0
		C155.6,167.9,154.7,168.5,154.1,169.3 M135.5,172.6c-1.5,2-3.1,4.1-4.6,6.1c-0.2,0.3-0.6,0.7-0.4,1.1c0.4,0.5,0.9,0.9,1.3,1.3
		c1.1-1,1.7-2.4,2.8-3.3c0.3-0.1,0.6-0.1,1-0.1c0.1,2,0,4,0,6c0.3,1.1,1.4,1.8,2.2,2.6c0-2.9,0-5.7,0-8.6c1.8-0.1,3.7,0.1,5.5-0.3
		c-0.3-0.6-0.7-1.1-1.2-1.6c-2-0.1-4,0-6,0c0.3-1,1.5-1.6,1.5-2.6C137,172.8,136.1,171.7,135.5,172.6 M220,173.4
		c0.9,3.3,2.3,6.5,3.1,9.8c-3.2-2.5-6.3-5.1-9.4-7.6c-0.8,0.3-1.7,0.6-2.4,1.1c0.7,4.1,1.6,8.3,2.4,12.4c0.2,0.4,0.1,1.2,0.7,1.3
		c0.7-0.3,1.4-0.7,2.2-0.9c-0.4-3.2-1.4-6.3-1.7-9.5c3.1,2.7,6.6,5,9.4,8c1,0.3,2-0.5,2.9-0.8c-0.6-1.6-1.3-3.3-1.9-5
		c-0.8-2.9-1.8-5.7-2.7-8.5c-0.1-0.3-0.2-0.8-0.6-0.8C221.3,172.9,220.7,173.2,220,173.4 M251.9,176.7c-0.3,0.8,0.1,1.6,0.9,2
		c1.2,0.2,2.4,0.6,3.6,0.2c0.9-0.3,1.6,0.4,2.4,0.8c-0.3,1.5-2.1,2.5-3.5,1.9c-0.6,0.5-1.3,1.2-0.7,2c0.8,0.2,1.7,0.4,2.6,0.5
		c1.5-0.3,2.8-1.4,3.8-2.6c0.1-1.3,0.5-3.1-0.9-3.9c-1-0.7-2.3-1-3.3-0.3c-0.8,0.5-1.6,0.1-2.3-0.4c0-0.3,0-0.7,0-1
		c0.7-0.4,1.5-1.1,2.4-0.8c0.9,0.5,1.5-0.6,2.1-1.2c-1.3-1-2.9-0.5-4.4-0.6C252.7,173.5,252.3,175.4,251.9,176.7 M167.3,173.7
		c-1.1,1.3-2.9,1.6-4,2.9c-0.7,0.9-0.8,2.1-1.3,3.1c-0.1,1.3-0.1,2.7,0,4c0.4,1,0.9,2,1.7,2.8c1.4,0,2.7,0,4.1,0
		c0.4,0,0.8,0,1.2-0.2c1-0.6,2-1.1,2.7-1.9c1.1-0.9,1.4-2.4,1.8-3.7c0.4-1,0.3-2.2,0.3-3.3c0-1.6-1.3-2.7-2.3-3.8
		C170.1,173.6,168.7,173.5,167.3,173.7 M176.7,176.3c-0.8,4.4-1.1,8.8-1.7,13.3c0.8,0.3,1.6,0.5,2.3,0.8c0.2-0.6,0.3-1.2,0.3-1.9
		c0.2-2.5,0.7-5,0.9-7.5c1.5,1.5,1.6,3.7,2.4,5.6c0.9,1.9,1.1,4,2.1,5.8c0.9,0.4,1.8,0.7,2.8,1.1c0.4-2.9,0.7-5.9,1.1-8.8
		c0.1-1.9,0.6-3.8,0.6-5.7c-0.8-0.1-1.6-0.4-2.4-0.6c-0.1,0.1-0.2,0.2-0.3,0.3c-0.3,3.3-0.8,6.6-0.9,9.9c-0.4-0.6-0.5-1.4-0.7-2.1
		c-1-3.1-1.9-6.2-3-9.3C179,176.7,177.8,175.7,176.7,176.3 M248.9,178.1c-0.4,1.7-0.7,3.4-0.9,5.1c-1.6-0.6-3.1-1.5-4.7-2
		c-0.6,0-1.1,0.3-1.6,0.5c0,0.2,0,0.5,0,0.7c2,1.2,4.1,2,6.2,2.9c0.6,0.7,1,1.6,1.6,2.3c0.6,0.9,1.8-0.2,1.9-1
		c-0.5-1-1.1-1.9-1.7-2.8c0.3-1.9,0.7-3.8,1.1-5.8c0.2-0.5-0.1-0.9-0.5-1.2C249.7,177.2,249.3,177.6,248.9,178.1 M205.5,178.4
		c0.8,4.5,1.3,9,2.1,13.5c0.7,0.2,1.4-0.2,2.2-0.3c0.5-0.1,1.4-0.2,1.3-1c-0.3-1.7-0.5-3.3-0.7-5c-0.5-2.8-0.6-5.7-1.4-8.4
		C207.7,177.6,206.6,177.9,205.5,178.4 M201.6,178.5c-1.1,0.1-1.6,1.2-2.1,2c-1.1,1.7-2.3,3.3-3.5,4.9c-0.5-0.9-1.1-1.7-1.7-2.5
		c-0.8-1.1-1.4-2.3-2.3-3.2c-0.9,0-1.8-0.2-2.6-0.4c-0.3,3.8-0.7,7.5-1.1,11.3c0,0.8-0.1,1.6-0.3,2.4c0.9,0.1,1.8,0.4,2.7,0.4
		c-0.1-1.7,0.4-3.3,0.3-5c0.3-1.8,0.4-3.5,0.6-5.3c1.1,1.6,2.2,3.2,3.3,4.7c0.9,0,1.9,0.1,2.7-0.5c1-1.7,2.3-3.2,3.5-4.8
		c0.2,3.4,0.9,6.8,1.2,10.3c0.5,0,1.1-0.1,1.6-0.3c0.3-0.1,0.8-0.2,0.8-0.6c-0.5-3.4-0.8-6.8-1.3-10.1c-0.1-1.1-0.2-2.1-0.4-3.2
		C202.8,178,202.1,178.4,201.6,178.5 M144.3,178.9c-0.7,0.3-1.4,0.6-2.1,0.9c-0.8,0.9-1.8,1.8-1.9,3.1c0,1.2-0.1,2.3,0,3.5
		c0.2,0.9,1,1.6,1.7,2.2c1.3,0.1,2.7,0,4,0.1c1.4,0.1,2.5-0.9,3.3-1.9c1-1.3,0.8-3.1,0.7-4.7c-0.3-0.6-0.5-1.2-0.7-1.8
		C148.2,178.9,146.1,178.5,144.3,178.9 M236.8,183.8c0,3.6,0,7.3,0,11c0.8-0.2,1.5-0.4,2.2-0.9c0-1,0-1.9,0-2.9
		c1.5-0.9,2.8-2.1,4.3-3.1c0.6,0.7,1.4,1.3,2.2,2c0.3,0.2,0.5,0.6,0.9,0.5c0.5-0.3,0.9-0.6,1.4-0.9c0-0.4,0-0.7-0.3-0.9
		c-2.3-1.8-4.4-3.8-6.7-5.6c-0.4-0.2-0.7-0.8-1.2-0.7C238.6,182.7,237.7,183.3,236.8,183.8 M152.7,182.9c-1.8,2.7-3.5,5.6-5.2,8.4
		c-0.4,0.9,0.8,1.2,1.3,1.6c1-0.5,0.9-2.2,2.1-2.3c0.6,0.4,1.1,0.8,1.7,1.2c0.1,1.2,0,2.5,0,3.7c0.9,0.6,1.8,1.2,2.7,1.8
		c0-1.7,0-3.3,0-5c1.2-0.1,3,0.2,3.5-1.2c0.2-1.6,0.3-3.3-0.6-4.8c-1.4-1.3-3.1-2-4.6-3.1C153.4,183,153.1,182.9,152.7,182.9
		 M232.7,186.1c-0.1,2.1,0,4.2-0.1,6.3c-1.2-1.1-1.8-2.9-3.2-3.8c-0.7-0.5-1.2,0.3-1.7,0.8c-0.1,1.7,0,3.5,0,5.2
		c-0.7-0.7-1.2-1.5-1.9-2.2c-0.7-1-1.6-1.7-2.2-2.7c-0.7,0.2-1.4,0.5-2.2,0.5c2.1,2.7,4.5,5.2,6.6,7.9c0.5-0.2,1.1-0.4,1.6-0.6
		c0.1-1.7,0-3.3,0-5c1.2,1,1.9,2.5,3.1,3.6c0.6,0.1,1.3-0.2,1.8-0.6c0.1-3.5,0-6.9,0-10.4C233.9,185.4,233.3,185.8,232.7,186.1
		 M160.7,188.4c-1.4,2.4-2.3,5.1-3.4,7.7c-0.2,0.5-0.6,1.3,0.1,1.6c0.9,0.5,2,0.7,2.9,1.2c0.8,0.4,1.6,0.8,2.4,0.8
		c0.3-0.5,1.1-1.4,0.3-1.9c-1.2-0.5-2.4-1-3.5-1.5c0.2-0.6,0.5-1.3,0.7-1.9c1.2,0.4,2.3,1.2,3.5,1.7c0.9,0.1,0.9-1.2,1.1-1.8
		c-1-0.7-2.1-1-3.2-1.5c-0.8-0.3,0-1.1,0.3-1.5c1-0.1,1.8,0.8,2.7,1.1c0.5,0.1,1.3,0.6,1.5-0.1c0.2-0.6,0.8-1.6-0.2-1.8
		C164.1,189.8,162.5,188.8,160.7,188.4 M211.9,192.1c-0.1,0.5,0.2,1,0.3,1.5c0.8,2.4,1.6,4.8,2.4,7.2c0.1,0.3,0.2,0.8,0.6,0.8
		c0.6-0.2,1.1-0.6,1.7-0.9c-0.1-0.9-0.5-1.8-0.8-2.6c0.8-0.2,1.7-0.5,2.4-0.9c1.1,0.7,2.1,1.6,3.3,2.2c0.7-0.2,1.4-0.4,2.2-0.7
		c0-0.1,0-0.3,0-0.4c-0.9-0.8-1.9-1.5-2.9-2.1c1.5-1.2,1-3.2,1-4.8c-0.6-0.4-1.3-0.7-1.7-1.4c-1.4,0-2.8-0.1-4.2,0
		C214.5,190.6,213.2,191.3,211.9,192.1 M168.6,191.2c-1.8,2.8-3.6,5.5-5.3,8.3c0.4,0.7,1.3,0.5,1.9,0.8c0.6-0.7,1.1-1.6,1.5-2.5
		c0.9,0.2,1.7,0.5,2.6,0.9c0.1,1.1,0.3,2.1,0.4,3.1c0.7,0.2,1.4,0.4,2.1,0.7c0-0.7,0.1-1.4-0.1-2.1c-0.3-1.2,0-2.4-0.3-3.5
		s0-2.2-0.2-3.3c-0.1-0.6-0.2-1.1-0.2-1.7C170.2,191.6,169.4,191.3,168.6,191.2 M174.1,192.3c-0.4,0.3-0.4,1-0.5,1.4
		c-0.4,3-1.1,5.9-1.5,8.9c0.7,0.1,1.4,0.3,2.1,0.4c0.5-1.9,0.8-3.9,1.2-5.8c0.9,2.2,1.5,4.5,2.3,6.8c0.9,0.2,1.9,0.5,2.8,0.7
		c0.7-3.2,1.1-6.4,1.7-9.6c0-0.3,0.1-0.9-0.4-1c-0.6-0.1-1.1-0.4-1.7-0.3c-0.4,0.4-0.3,1-0.5,1.5c-0.2,1.9-0.6,3.8-0.8,5.7
		c-0.9-2.7-1.6-5.5-2.6-8.2C175.6,192.6,174.9,192.3,174.1,192.3 M208.5,193.2c0.2,1,0.5,2,0.8,3c0.7,2,1.2,4,1.9,6
		c0.1,0.3,0.2,0.8,0.6,0.8c0.6-0.1,1.2-0.2,1.6-0.6c0.1-0.4-0.2-0.8-0.3-1.3c-1-2.7-1.7-5.5-2.8-8.2
		C210,192.1,209,192.9,208.5,193.2 M201,194.9c-0.7,3.2-1.1,6.4-1.7,9.6c-0.1,0.5-0.3,1.2,0.3,1.5c0.7,0,1.3-0.3,2-0.4
		c0.4-1.1,0.4-2.2,0.8-3.3c1.3-0.4,2.7-0.8,4-1.2c1,0.6,1.4,2,2.2,2.8c0.8-0.1,1.5-0.4,2.2-0.6c0-0.9-0.8-1.5-1.2-2.3
		c-1.7-2.3-3.2-4.7-4.9-6.9C203.4,194,202.3,194.7,201,194.9z"/>
	<path class="st2" d="M145.6,163.5c0.6-0.7,1.6-0.8,2.4-1.1c0.9,0.5,1.4,1.4,1.9,2.2c0.4,1.1-0.7,1.9-1.1,2.8
		c-0.8,1.2-1.8,2.8-3.4,2.6c-1.3-0.1-1.6-1.6-2.2-2.5C143.5,166,144.6,164.8,145.6,163.5z"/>
	<path class="st2" d="M243,164.5c1.7,1.1,3.2,2.4,5,3.4c-1.2,0.9-2.4,1.9-3.8,2.7C243.9,168.6,243.4,166.6,243,164.5z"/>
	<path class="st2" d="M165.9,178.4c1-0.8,2.2-1.3,3.3-2c1.1-0.2,1.5,1.3,2.2,1.9c-0.5,1.4-0.8,2.9-1.9,3.9c-0.8,0.9-1.9,1.4-2.9,2
		c-0.3,0.2-0.7,0.1-0.9-0.3c-0.6-0.7-0.9-1.5-1.3-2.2C164.7,180.6,164.9,179.2,165.9,178.4z"/>
	<path class="st2" d="M142.9,183.9c0.8-1,1.5-2.2,2.9-2.4c0.6,0.3,1.2,0.7,1.6,1.2c0.1,0.6,0.1,1.2,0,1.7c-0.8,0.9-1.7,1.8-2.9,2.1
		C143.6,185.9,142.4,185.1,142.9,183.9z"/>
	<path class="st2" d="M239,185.2c0.2-0.3,0.6-0.5,0.9-0.3c0.6,0.4,1,1,1.5,1.5c-0.8,0.6-1.6,1.2-2.5,1.8
		C239,187.2,238.9,186.2,239,185.2z"/>
	<path class="st2" d="M153.2,186.5c1.1,0.8,2.7,1.3,3.3,2.7c-0.1,0.6-0.9,0.6-1.3,0.7c-0.9-0.8-1.9-1.6-3.1-1.9
		C152.5,187.6,152.8,187,153.2,186.5z"/>
	<path class="st2" d="M214.6,193.8c1.2-0.2,2.2-1.3,3.5-1.2c0.4,0.3,0.8,0.7,1.2,1.1c-1.1,1.1-2.7,1.3-4.1,1.9
		C214.9,194.9,214.7,194.4,214.6,193.8z"/>
	<path class="st2" d="M168,196.3c0-0.8,0.6-1.4,1.1-1.9c0,0.8,0,1.5,0,2.3C168.7,196.5,168.3,196.4,168,196.3z"/>
	<path class="st2" d="M203.1,196.6c0.5,0.2,0.8,0.7,1.1,1.1c0.3,0.5,0.8,1,0.8,1.6c-0.8,0.2-1.5,0.4-2.3,0.6
		C202.8,198.8,203.1,197.7,203.1,196.6z"/>
	<path class="st3" d="M209.2,8.7c4.5,2,8.9,4,13.4,6c0.8,0.4,1.6,0.7,2.4,1c-0.3,1.6-1.4,2.8-1.9,4.3c-1,2.6-2.5,4.9-3.5,7.5
		c-0.6,1.4-1.4,2.8-2.1,4.3c-1.7-0.6-3.3-1.6-5-2.3c-3.5-1.7-7.1-3.3-10.5-5.1c1.6-2.9,2.7-6.2,4.3-9.1
		C207.3,13,208.2,10.8,209.2,8.7 M211.1,12.5c-1,1.7-1.6,3.5-2.5,5.2c-0.6,1.1-1,2.4-1.6,3.6c-0.3,0.7-0.8,1.3-0.9,2.1
		c2.1,1.3,4.5,2.1,6.7,3.3c1,0.5,2.1,0.9,3.2,1.4c0.5-0.9,0.9-1.8,1.3-2.8c1.4-2.8,2.6-5.6,3.9-8.4c-2.1-0.9-4.1-1.9-6.3-2.8
		C213.6,13.6,212.4,12.8,211.1,12.5z"/>
	<path class="st3" d="M178.7,10.9c1.2-0.5,2.3-1.1,3.5-1.4c0.7,1.2,1,2.7,1.6,4c2.1,5.5,4.2,11,6.3,16.4c0,0.2,0,0.5,0.1,0.7
		c-1.2,0.4-2.3,1-3.5,1.5c-1.1-2.7-2.1-5.5-3.2-8.2c-0.5-1.3-0.9-2.7-1.6-3.9c-2.4,0.9-4.6,2.2-7.1,3c-0.5-1.1-0.9-2.2-1.4-3.3
		c2.4-1.1,4.7-2.1,7.1-3.1C180.2,14.6,179.1,12.9,178.7,10.9z"/>
	<path class="st3" d="M162.3,16.1c1.7-0.2,3.3,0.9,4.9,1.2c-0.1,0.9-0.8,1.7-0.8,2.7c-0.1,1.2-0.6,2.3-0.6,3.5
		c1.1,0.6,2.2,1.2,3.4,1.6c0.9,0.5,1.8,1,2.9,1.2c1.2,0.2,2,1.4,3.3,1.1c-0.5,1.1-0.9,2.2-1.4,3.3c-1.5,0-3.1-0.5-4.4-1.2
		c-1.1-0.5-2.4-0.5-3.4-1.3c-0.5-0.3-0.9-0.8-1.6-0.8c-0.3,1-1.1,1.8-1.4,2.8c-0.8,1.5-1.7,3-3.1,4.1c-1-0.9-2-2-3-2.9
		c0.5-0.8,1.1-1.4,1.6-2.1c1.1-2.1,2.1-4.4,2.9-6.7C161.8,20.4,162.3,18.3,162.3,16.1z"/>
	<path class="st3" d="M231.9,18c1.1,0.2,2.1,0.9,3.2,1.2c-0.1,1-0.8,1.9-1.2,2.8c-1.3,3.2-3.1,6.3-4.6,9.4c-0.8,2-1.8,3.9-2.8,5.8
		c-1-0.5-2-1-3-1.5c1.2-2.7,2.4-5.3,3.8-7.9c0.8-2.2,2-4.2,3-6.3C230.8,20.3,231.4,19.2,231.9,18z"/>
	<path class="st3" d="M201.3,25.7c1,0.1,1.9,0.8,2.9,1.2c-0.6,1.1-1.1,2.3-1.7,3.4c-0.5,1-1.3,1.9-1.6,3.1c0.8,1,2.2,1.3,3.3,2
		c1.4,0.9,3,1.5,4.4,2.4c3.4,1.8,6.6,3.7,10,5.3c1.5,0.9,3.1,1.7,4.8,2.5c-0.1,0.9-0.6,1.6-0.9,2.4c-0.6,0-1.1-0.5-1.6-0.7
		c-3.7-1.8-7.3-3.9-11-5.8c-1.8-1.2-3.8-1.9-5.7-3.1c-2.6-1.1-4.8-2.8-7.4-3.9C198.4,31.6,199.8,28.6,201.3,25.7z"/>
	<path class="st3" d="M134.7,32.5c0.9-1.2,2-2.3,3.1-3.3c0.9,0.8,1.8,1.7,2.5,2.6c-1,1-1.8,2.3-2.9,3.2c-0.9,0.9-1.8,1.7-2.6,2.7
		c-0.9,1.3-2.2,2.2-3.2,3.4c1.3,0.1,2.6-0.2,3.8,0.3c1.2,0.4,2.4,0.8,3.6,1c1.6,0,3.2,0.2,4.7-0.2c1-0.2,2,0.2,2.9-0.3s2-0.2,3-0.3
		c-0.4,1.1-0.4,2.2-0.8,3.2c-0.8,0.2-1.6,0.3-2.4,0.3c-1,0-2,0.6-3,0.5c-1.6,0-3.1,0-4.6,0c-2.3-0.4-4.6-0.7-6.9-1.1
		c0.6,1.9,0.9,3.9,1.6,5.8c0.6,3.1,0.4,6.3,0,9.4c-0.3,0.7-0.9,1.3-1.1,2c-1.3-0.3-2.6-0.7-3.7-1.5c0-0.7,0.6-1.3,0.9-2
		c0.4-1.3,0.7-2.7,0.3-4c-0.5-1.3-0.2-2.8-0.6-4.1c-0.2-1.8-1.3-3.4-1.5-5.2c-0.6,0.5-1.1,1.1-1.5,1.7c-1.3,1.6-3,2.8-4.2,4.5
		c-0.4,0.4-0.7,1-1.2,1.1c-0.9-0.9-1.8-1.7-2.6-2.7c0.7-0.8,1.5-1.5,2.2-2.3c1.4-1.9,3.3-3.4,4.9-5.2c1.6-2.2,3.8-3.7,5.4-5.9
		C132.1,35.1,133.5,33.9,134.7,32.5z"/>
	<path class="st3" d="M251,31.9c0.6-0.7,1.2-1.3,1.9-1.9c2.2,2,4.2,4.2,6.4,6.3c0.9-0.5,1.5-1.6,2.4-2.2c0.9,0.8,1.8,1.7,2.5,2.6
		c-0.6,0.9-1.7,1.5-2.2,2.4c1.7,1.7,3.4,3.4,5,5.1c-0.3,0.8-1.2,1.3-1.8,1.9C260.5,41.4,255.8,36.6,251,31.9z"/>
	<path class="st3" d="M188.5,34.2c0.9-0.3,1.8-0.8,2.6-1.4c0.7,0.6,1,1.6,1.3,2.5c-2.5,1.4-5.2,2.4-7.7,3.8c-2.1,0.8-3.9,2-6,2.8
		c-1.7,0.7-3.3,1.7-5,2.4c-2,0.8-3.9,2.2-6.1,2.7c-1.7-3.3-2.8-6.7-4.2-10.1c0.9-0.6,1.6-1.4,2.7-1.8c1,2.8,2.4,5.5,3.2,8.3
		c1.8-0.7,3.4-1.8,5.1-2.5c1.7-0.6,3.2-1.6,4.9-2.3c1.6-0.6,3-1.6,4.7-2.2C185.4,35.7,186.9,34.8,188.5,34.2z"/>
	<path class="st3" d="M246.5,36.8c1.5-0.5,3.1-0.4,4.7-0.3c2,2,4,4.1,6.1,6.1c1.2,1.1,2.2,2.4,3.5,3.3c0.6,1.4,0.3,2.9,0.4,4.3
		c0.1,1.1-0.3,2.5-1.5,2.9c-1.5,0.7-3.2,0.9-4.7,0.2c-0.6-0.8-1.3-1.4-2-2.2c-1.2-1.6-2.8-2.9-4.1-4.4c-0.9-1-2.2-1.7-3-2.8
		s-2.2-2.2-1.7-3.7C244.8,39,245.3,37.6,246.5,36.8 M248.4,38.6c-0.4,0.2-0.8,0.5-1.1,0.9c-0.7,0.7-0.2,1.7,0.1,2.4
		c2.8,2.9,5.7,5.7,8.5,8.5c0.9,0.7,1.9-0.2,2.5-0.9s0.3-1.8-0.3-2.4c-2.7-2.8-5.5-5.5-8.2-8.2C249.5,38.5,248.9,38.5,248.4,38.6z"/>
	<path class="st3" d="M270.9,45.6c0.2-0.1,0.5-0.6,0.7-0.3c0.6,0.8,1.6,1.4,2,2.2c-1.8,1.9-3.7,3.6-5.5,5.5c1.1,1.2,2.2,2.3,3.4,3.4
		c-0.6,0.7-1.2,1.3-1.9,1.9c-1.2-1-2.2-2.2-3.3-3.3h-0.2c-2,1.9-3.8,3.9-5.8,5.8c-0.8-0.7-1.6-1.5-2.3-2.3
		C262.3,54.2,266.7,50,270.9,45.6z"/>
	<path class="st3" d="M238,45.8c1.5-0.5,3.2-0.4,4.7-0.3c1.7,1.7,3.4,3.4,5.1,5.1c1.8,2.4,4.2,4.2,6.1,6.5c0.6,0.9,1.4,1.5,2.2,2.2
		c0.6,1.4,0.3,2.9,0.4,4.3c0.1,1.3-0.5,2.8-1.8,3.1c-1.4,0.4-3,0.8-4.3,0.1c-1.6-1.9-3.4-3.5-5.1-5.3c-1.2-1.3-2.7-2.5-3.7-3.9
		c-0.5-0.6-1.1-1.1-1.6-1.7c-1.3-1.7-3.1-3-4.2-4.9c-0.2-0.7-0.2-1.5,0.2-2.1C236.5,47.7,236.9,46.5,238,45.8 M239.9,47.7
		c-0.6,0.4-1.2,0.9-1.5,1.6c0.1,0.5,0.2,1,0.4,1.5c0.5,0.6,1.1,1.1,1.6,1.7c1.2,1.7,3,2.9,4.2,4.6c2.3,2.3,4.6,4.6,6.9,6.9
		c1,0.4,1.7-0.4,2.3-1c0.5-0.7,0.3-1.7-0.2-2.2c-1.5-1.7-3.2-3.2-4.8-4.8c-1-1.5-2.5-2.5-3.5-3.9c-1.2-1.4-2.6-2.7-3.9-4
		C241,47.5,240.4,47.6,239.9,47.7z"/>
	<path class="st3" d="M147.2,54.9c3.1-2.9,6-6,9-8.9c1,0.9,2,1.9,2.9,2.9v0.2c-6.8,6.8-13.6,13.6-20.4,20.4
		c-0.4,0.3-0.6,0.8-1.1,0.9c-0.9-0.9-1.9-1.8-2.8-2.9c3.1-3,6.2-6.1,9.2-9.2v-0.2c-1.5-1.6-3.2-3.1-4.7-4.7c1-1.1,2-2.1,3.1-3.1
		C144.1,51.8,145.5,53.4,147.2,54.9z"/>
	<path class="st3" d="M193.6,53.5c2-0.3,3.9,0,5.9,0.2c6.8,0.9,13.2,4.5,17.7,9.7c3.6,4.2,5.9,9.5,6.7,15c0.8,5,0,10.2-1.8,14.9
		c-3.6,9.4-12.6,16.5-22.6,17.7c-4.2,0.8-8.5,0.1-12.6-1.1c-6-2-11.4-6-14.9-11.4c-3.5-5.2-5.1-11.6-4.9-17.9
		c0.4-2.5,0.7-5.1,1.5-7.5c1.1-2.9,2.3-5.7,4.3-8.1c1.6-2.1,3.3-4.1,5.4-5.6c4-3.2,8.9-5.2,14-5.7C192.8,53.7,193.2,53.6,193.6,53.5
		 M193,57.1c-2.6,0.4-5.2,0.9-7.5,2.1c-1.8,0.6-3.3,1.8-4.9,2.8c-5.1,3.7-8.7,9.5-9.7,15.8c-1.8,8.7,1.7,18.2,8.4,23.9
		c3.4,3.1,7.8,5,12.3,5.8c6.9,1.2,14.2-0.8,19.6-5.3c0.5-0.5,1-1,1.6-1.4c5.8-5.7,8.9-14.3,7.5-22.4c-0.9-5.8-3.9-11.4-8.4-15.2
		c-1.3-1.4-2.9-2.2-4.5-3.2c-3.1-1.8-6.6-2.6-10.1-3C195.9,57,194.4,56.9,193,57.1z"/>
	<path class="st3" d="M194.3,59.1c0.2-0.5,0.5-0.9,0.8-1.3c0.2,0.4,0.5,0.9,0.7,1.3c1.7,4.9,3.3,9.9,5,14.8c5.9,0.1,11.9,0,17.8,0
		c-2.1,1.9-4.4,3.5-6.7,5.2c-2.5,1.9-5,3.8-7.6,5.6c1.5,4.8,2.8,9.6,4.3,14.4c0.2,0.7,0.3,1.4,0.5,2c-1.7-0.5-3-1.8-4.5-2.6
		c-2.3-1.7-4.7-3.2-7-4.8c-0.9-0.5-1.7-1.4-2.7-1.7c-4.2,2.8-8.3,5.8-12.6,8.6c-0.4,0.3-1,0.4-1.5,0.5c1.6-5.5,3.3-10.9,4.9-16.4
		c-3-2.4-5.8-5-8.8-7.4c-1-0.3-1.2-1.3-2-1.8c-0.7-0.4-1.3-1-1.8-1.6c5.4,0,10.8,0,16.2,0C191,69,192.6,64.1,194.3,59.1z"/>
	<path class="st3" d="M94.1,115.6c0,0,0.1,0,0.1-0.1C94.2,115.6,94.1,115.6,94.1,115.6z"/>
	<path class="st3" d="M258.8,144.1c1.2-0.7,1.2-2.6,2.7-2.9c1.4,0,2.9-0.2,4.2,0.3c0.9,0.3,1.7,0.8,2.6,1.1
		c-0.7,0.7-1.4,1.5-2.2,2.1c-1-0.5-2-0.9-3-1.1c-1.1,0.8-2.4,1.8-2.5,3.3c-0.1,0.9-0.1,2,0.6,2.7c0.5,0.6,0.9,1.3,1.3,2
		c0.9,0.7,2,1.1,3.1,1.6c1-0.5,1.5-1.4,2.4-2c0.6-0.6,0.8-1.6,0.3-2.4c-0.7,0.6-1.4,1.3-2.2,1.7c-0.8-0.1-1.2-0.9-1.7-1.4
		c1.6-1.7,3.2-3.3,4.9-4.9c0.5,0.8,0.7,1.7,1.1,2.6c0.6,1.1,0.3,2.3,0.4,3.5c0,1.2,0.2,2.7-0.9,3.5c-0.8,0.6-1.4,1.8-2.6,1.8
		c-1.7-0.1-3.6,0.4-5.2-0.6c-0.8-0.4-1.8-0.8-2.1-1.7c-0.4-0.9-1.2-1.5-1.4-2.4C258.3,148.6,258.4,146.3,258.8,144.1z"/>
	<path class="st3" d="M123.9,145.9c0.4-1.3,1.7-2.3,3-2.8c1.3-0.1,2.5,0,3.8,0c1.5-0.1,3,0.4,4,1.4c0.3,0.7,0.6,1.4,0.9,2.1
		c0.5,1.2,0.1,2.5-0.1,3.7c-0.8-0.7-1.6-1.4-2-2.4c-0.9-1.4-2.5-2.5-4.2-2.6c-1.2,0.2-2.2,1.1-3,2c-0.4,1.3,0.4,2.4,1,3.5
		c1,0.7,2.3,0.9,3.5,1.1c0.8,0.6,1.6,1.2,2.4,1.8c-1.4,0.5-2.9,0.3-4.4,0.3c-1.1-0.3-2.3-0.5-3.3-1.1
		C123.6,151.2,123.8,148.4,123.9,145.9z"/>
	<path class="st3" d="M130.3,156.7c2.8-2.2,5.4-4.6,8.2-6.7c0.8,0.2,1.4,1.1,1.9,1.8c-1.2,0.7-2.2,1.7-3.3,2.6
		c1.1,1.5,2.5,2.7,3.6,4.2c1.2-0.9,2.4-2,3.6-2.9c0.8,0.2,1.2,1.1,1.9,1.5c-2.1,2.1-4.6,3.8-6.8,5.7c-1,0.8-2,1.6-3,2.4
		c-0.5-0.7-1.1-1.2-1.7-1.7c1-1.2,2.4-2,3.5-3c0.2-0.2,0.6-0.4,0.5-0.7c-1.3-1.2-2.2-2.7-3.6-3.9c-1.4,1-2.6,2.2-4,3.3
		c-0.5-0.7-1.1-1.2-1.7-1.7C129.6,157.3,129.9,157,130.3,156.7z"/>
	<path class="st3" d="M254.4,150c0.2,0,0.5,0.1,0.6,0.1c0.8,0.7,1.5,1.4,2.1,2.3c0.9,1.2,2.1,2.1,3.1,3.2c1.1,1.5,2.6,2.5,3.6,4
		c0.4,0.7,1.3,1,1.4,1.9c-0.4,0.6-0.9,1.4-1.7,1.4c-3.9-1.1-7.9-2.2-11.9-3.3c0.1,0.6,0.7,1,1,1.5c1.9,2.4,3.8,4.7,5.6,7
		c-0.1,0.9-1.3,1.2-1.9,1.9c-1.5-2-3.1-3.9-4.6-5.9c-1.7-2.2-3.5-4.2-5.1-6.5c0.1-0.7,0.9-1.2,1.4-1.6c4.2,1.1,8.4,2.4,12.7,3.6
		c-0.8-1-1.8-1.8-2.5-2.8c-1.6-1.8-3.3-3.3-4.9-5C253.3,151.1,254.1,150.6,254.4,150z"/>
	<path class="st3" d="M146.2,160c1.5-0.3,3.1-0.3,4.4,0.5c0.6,0.7,1.1,1.5,1.6,2.2c0.3,1.7,0.1,3.5-0.3,5.2c-1,1.4-1.8,3.2-3.4,4.1
		c-1.7,0.4-3.5,0.6-5.3,0.4c-0.5-0.1-0.9-0.4-1.3-0.6c-0.6-1-1.4-2-1.5-3.2c-0.2-2,0.3-4.2,1.6-5.8c0.6-0.7,1-1.6,1.8-2
		C144.7,160.6,145.5,160.3,146.2,160 M145.6,163.5c-1,1.2-2.1,2.5-2.5,4.1c0.6,0.9,0.9,2.4,2.2,2.5c1.6,0.2,2.6-1.4,3.4-2.6
		c0.5-0.9,1.6-1.7,1.1-2.8c-0.5-0.8-1-1.8-1.9-2.2C147.1,162.7,146.2,162.8,145.6,163.5z"/>
	<path class="st3" d="M240.3,163c0.3-0.8,1.1-1.3,1.8-1.6c2.5,1.9,5.4,3.4,7.9,5.3c1.8,1.3,3.8,2.5,5.6,3.8c0,0.1,0,0.3,0,0.4
		c-0.6,0.5-1.2,0.8-1.9,1.2c-1.2-0.7-2.2-1.9-3.5-2.3c-1.8,1.2-3.4,2.5-5.2,3.7c-0.2,1.5,0.7,2.9,0.5,4.5c-0.8,0.4-1.5,1-2.2,1.5
		c-0.4-1-0.5-2.1-0.8-3.1C241.8,171.9,240.6,167.5,240.3,163 M243,164.5c0.4,2,0.9,4,1.2,6.1c1.4-0.8,2.5-1.8,3.8-2.7
		C246.3,166.9,244.7,165.6,243,164.5z"/>
	<path class="st3" d="M232.1,168.2c0.4-0.7,1.4-1,2.1-1.2c1,1.7,1.7,3.6,2.8,5.3c1.2,2.4,2.4,4.8,3.6,7.1c0.2,0.3,0.5,0.8,0.1,1.1
		c-0.5,0.4-0.9,1.2-1.6,1.1c-0.9-1.9-2.1-3.6-2.9-5.5c-0.6,0-1.1,0.5-1.6,0.7c-1.4,0.9-2.9,1.8-4.3,2.7c0.5,1.6,1.2,3.1,1.8,4.7
		c0.1,0.3,0.4,0.8,0,1c-0.6,0.3-1.2,0.8-1.9,0.8c-0.4-0.5-0.6-1.1-0.8-1.7c-1.5-4-3.1-7.9-4.6-11.9c-0.1-0.3-0.4-0.8,0-1
		c0.6-0.3,1.2-0.8,1.9-0.8c0.6,0.6,0.7,1.5,1.1,2.3c0.5,1.4,1.1,2.8,1.6,4.3c1.8-1.3,3.8-2.4,5.7-3.6
		C233.9,171.8,232.7,170.1,232.1,168.2z"/>
	<path class="st3" d="M154.1,169.3c0.6-0.8,1.5-1.4,2.4-1.7c1.2-0.1,2.3,0,3.5,0c0.6,0,0.9,0.5,1.4,0.8c0.8,0.5,0.9,1.5,1.2,2.3
		c0.7,1.3,0.5,3.2-0.5,4.3c-0.5-0.5-1.1-0.9-1.5-1.5s-0.4-1.4-0.7-2c-0.3-0.7-1-1.1-1.6-1.4c-0.6,0-1.2,0.1-1.8,0.3s-0.4,1-0.3,1.5
		c0.8,0.9,1.7,1.9,2.4,2.9c0.6,1.3,0.9,2.9,0.2,4.3c-0.5,0.8-1,1.7-2,1.8c-1.4,0.5-2.9,0.6-4.4,0.4c-1.4-0.6-2.6-1.8-3.1-3.3
		c-0.1-1,0-2,0-3c-0.1-0.9,0.6-1.6,1.1-2.3c0.5,0.4,0.9,0.8,1.3,1.3c0.2,0.8-0.1,1.7,0.2,2.5c0.5,0.9,1.1,1.8,2.2,2
		c1,0.5,2.2-0.5,2.1-1.5c-0.4-1.7-2.7-2.5-2.5-4.4C153.7,171.5,153.8,170.4,154.1,169.3z"/>
	<path class="st3" d="M135.5,172.6c0.6-0.9,1.5,0.3,2.1,0.6c0,1.1-1.2,1.7-1.5,2.6c2,0.1,4,0,6,0c0.5,0.5,0.9,1,1.2,1.6
		c-1.8,0.5-3.7,0.3-5.5,0.3c0,2.9,0,5.7,0,8.6c-0.8-0.8-1.9-1.5-2.2-2.6c-0.1-2,0-4,0-6c-0.3,0-0.7,0-1,0.1
		c-1.2,0.9-1.7,2.4-2.8,3.3c-0.5-0.4-1-0.8-1.3-1.3c-0.3-0.4,0.2-0.8,0.4-1.1C132.4,176.7,133.9,174.6,135.5,172.6z"/>
	<path class="st3" d="M220,173.4c0.6-0.2,1.3-0.5,1.9-0.6c0.4,0,0.5,0.5,0.6,0.8c0.9,2.8,1.9,5.6,2.7,8.5c0.6,1.7,1.2,3.3,1.9,5
		c-0.9,0.3-1.9,1.1-2.9,0.8c-2.9-2.9-6.3-5.3-9.4-8c0.2,3.2,1.2,6.3,1.7,9.5c-0.8,0.2-1.5,0.6-2.2,0.9c-0.6-0.1-0.5-0.8-0.7-1.3
		c-0.8-4.1-1.6-8.3-2.4-12.4c0.7-0.5,1.6-0.7,2.4-1.1c3.1,2.6,6.3,5.1,9.4,7.6C222.3,179.9,220.9,176.8,220,173.4z"/>
	<path class="st3" d="M251.9,176.7c0.4-1.3,0.8-3.2,2.4-3.3c1.5,0.1,3.1-0.4,4.4,0.6c-0.6,0.6-1.1,1.7-2.1,1.2
		c-0.9-0.4-1.6,0.4-2.4,0.8c0,0.3,0,0.6,0,1c0.6,0.5,1.5,0.9,2.3,0.4c1-0.7,2.4-0.3,3.3,0.3c1.4,0.7,1,2.6,0.9,3.9
		c-1,1.2-2.3,2.3-3.8,2.6c-0.9,0-1.7-0.2-2.6-0.5c-0.6-0.8,0.2-1.5,0.7-2c1.4,0.6,3.2-0.4,3.5-1.9c-0.7-0.4-1.5-1.1-2.4-0.8
		c-1.2,0.4-2.4,0-3.6-0.2C252,178.3,251.6,177.5,251.9,176.7z"/>
	<path class="st3" d="M167.3,173.7c1.4-0.2,2.8-0.1,4.2,0c1,1.1,2.3,2.2,2.3,3.8c0,1.1,0.1,2.2-0.3,3.3c-0.5,1.3-0.8,2.7-1.8,3.7
		c-0.8,0.8-1.8,1.4-2.7,1.9c-0.3,0.2-0.8,0.2-1.2,0.2c-1.4,0-2.7,0-4.1,0c-0.7-0.8-1.2-1.8-1.7-2.8c-0.1-1.3-0.1-2.7,0-4
		c0.4-1,0.6-2.2,1.3-3.1C164.4,175.3,166.2,175,167.3,173.7 M165.9,178.4c-1,0.9-1.1,2.2-1.6,3.4c0.4,0.8,0.8,1.6,1.3,2.2
		c0.2,0.3,0.6,0.5,0.9,0.3c1-0.6,2.1-1.1,2.9-2c1.1-1,1.4-2.5,1.9-3.9c-0.7-0.6-1-2.1-2.2-1.9C168.1,177,166.9,177.6,165.9,178.4z"
		/>
	<path class="st3" d="M176.7,176.3c1.2-0.6,2.4,0.5,3.5,0.8c1.1,3.1,2,6.2,3,9.3c0.2,0.7,0.3,1.5,0.7,2.1c0.1-3.3,0.6-6.6,0.9-9.9
		c0.1-0.1,0.2-0.2,0.3-0.3c0.8,0.2,1.6,0.5,2.4,0.6c0,1.9-0.5,3.8-0.6,5.7c-0.4,2.9-0.7,5.9-1.1,8.8c-0.9-0.3-1.9-0.6-2.8-1.1
		c-1-1.8-1.2-4-2.1-5.8c-0.8-1.9-0.9-4.1-2.4-5.6c-0.1,2.5-0.6,5-0.9,7.5c0,0.6-0.1,1.3-0.3,1.9c-0.8-0.3-1.6-0.5-2.3-0.8
		C175.5,185.1,175.9,180.6,176.7,176.3z"/>
	<path class="st3" d="M248.9,178.1c0.3-0.5,0.8-0.9,1.3-1.3c0.4,0.3,0.7,0.7,0.5,1.2c-0.4,1.9-0.8,3.8-1.1,5.8
		c0.6,0.9,1.2,1.8,1.7,2.8c0,0.8-1.2,1.9-1.9,1c-0.6-0.7-1-1.6-1.6-2.3c-2.1-0.9-4.2-1.8-6.2-2.9c0-0.2,0-0.5,0-0.7
		c0.5-0.2,1-0.5,1.6-0.5c1.6,0.6,3.1,1.4,4.7,2C248.3,181.5,248.5,179.8,248.9,178.1z"/>
	<path class="st3" d="M205.5,178.4c1.1-0.4,2.2-0.8,3.3-1.2c0.8,2.7,0.9,5.6,1.4,8.4c0.3,1.7,0.5,3.3,0.7,5c0.2,0.8-0.7,0.8-1.3,1
		c-0.7,0.1-1.4,0.6-2.2,0.3C206.8,187.4,206.3,182.9,205.5,178.4z"/>
	<path class="st3" d="M201.6,178.5c0.4-0.1,1.2-0.5,1.3,0.2c0.3,1,0.4,2.1,0.4,3.2c0.5,3.4,0.8,6.8,1.3,10.1c0,0.5-0.5,0.5-0.8,0.6
		c-0.5,0.1-1.1,0.2-1.6,0.3c-0.3-3.4-1-6.8-1.2-10.3c-1.2,1.6-2.5,3.1-3.5,4.8c-0.8,0.5-1.8,0.5-2.7,0.5c-1.1-1.6-2.2-3.2-3.3-4.7
		c-0.2,1.8-0.3,3.5-0.6,5.3c0,1.7-0.4,3.3-0.3,5c-0.9,0-1.8-0.3-2.7-0.4c0.2-0.8,0.3-1.6,0.3-2.4c0.4-3.8,0.8-7.5,1.1-11.3
		c0.9,0.1,1.7,0.3,2.6,0.4c0.9,1,1.5,2.2,2.3,3.2c0.6,0.8,1.2,1.6,1.7,2.5c1.1-1.7,2.4-3.3,3.5-4.9
		C200.1,179.7,200.5,178.6,201.6,178.5z"/>
	<path class="st3" d="M144.3,178.9c1.8-0.4,3.9,0,5.2,1.5c0.2,0.6,0.4,1.2,0.7,1.8c0.1,1.6,0.3,3.3-0.7,4.7c-0.8,1-2,2-3.3,1.9
		c-1.3,0-2.7,0.1-4-0.1c-0.7-0.6-1.5-1.2-1.7-2.2c-0.1-1.2,0-2.3,0-3.5c0.1-1.3,1-2.2,1.9-3.1C142.9,179.5,143.6,179.3,144.3,178.9
		 M142.9,183.9c-0.5,1.2,0.8,2,1.6,2.6c1.2-0.3,2.2-1.1,2.9-2.1c0.1-0.6,0.1-1.2,0-1.7c-0.4-0.6-1-0.9-1.6-1.2
		C144.4,181.7,143.6,182.9,142.9,183.9z"/>
	<path class="st3" d="M236.8,183.8c1-0.5,1.9-1.1,2.8-1.7c0.5,0,0.8,0.5,1.2,0.7c2.3,1.8,4.4,3.8,6.7,5.6c0.3,0.2,0.3,0.6,0.3,0.9
		c-0.5,0.3-0.9,0.7-1.4,0.9c-0.4,0.1-0.6-0.3-0.9-0.5c-0.7-0.6-1.5-1.2-2.2-2c-1.5,1-2.8,2.1-4.3,3.1c0,1,0,1.9,0,2.9
		c-0.6,0.5-1.4,0.7-2.2,0.9C236.8,191.1,236.8,187.5,236.8,183.8 M239,185.2c-0.1,1,0,2,0,3c0.8-0.6,1.6-1.2,2.5-1.8
		c-0.5-0.5-0.9-1.1-1.5-1.5C239.6,184.7,239.2,184.9,239,185.2z"/>
	<path class="st3" d="M152.7,182.9c0.4,0,0.7,0.1,1,0.3c1.5,1.1,3.2,1.8,4.6,3.1c0.8,1.4,0.7,3.2,0.6,4.8c-0.4,1.5-2.3,1.1-3.5,1.2
		c0,1.7,0,3.3,0,5c-0.9-0.5-1.8-1.2-2.7-1.8c0-1.2,0-2.5,0-3.7c-0.6-0.4-1.1-0.8-1.7-1.2c-1.2,0.1-1.1,1.8-2.1,2.3
		c-0.6-0.4-1.7-0.8-1.3-1.6C149.3,188.5,150.9,185.7,152.7,182.9 M153.2,186.5c-0.4,0.5-0.8,1-1.1,1.6c1.2,0.3,2.2,1.1,3.1,1.9
		c0.5-0.2,1.2-0.2,1.3-0.7C155.9,187.9,154.4,187.4,153.2,186.5z"/>
	<path class="st3" d="M232.7,186.1c0.6-0.3,1.2-0.7,1.9-1c0,3.5,0.1,6.9,0,10.4c-0.4,0.4-1.2,0.6-1.8,0.6c-1.2-1.1-1.9-2.6-3.1-3.6
		c-0.1,1.7,0,3.3,0,5c-0.5,0.2-1.1,0.4-1.6,0.6c-2.2-2.7-4.5-5.2-6.6-7.9c0.7-0.1,1.5-0.3,2.2-0.5c0.6,1,1.5,1.8,2.2,2.7
		c0.7,0.7,1.2,1.6,1.9,2.2c0.1-1.7,0-3.5,0-5.2c0.5-0.4,1-1.3,1.7-0.8c1.4,0.9,2,2.6,3.2,3.8C232.7,190.3,232.6,188.2,232.7,186.1z"
		/>
	<path class="st3" d="M160.7,188.4c1.8,0.3,3.4,1.3,5.1,1.9c0.9,0.2,0.4,1.2,0.2,1.8c-0.3,0.7-1.1,0.2-1.5,0.1
		c-0.9-0.3-1.7-1.1-2.7-1.1c-0.3,0.4-1,1.2-0.3,1.5c1.1,0.5,2.2,0.9,3.2,1.5c-0.2,0.6-0.2,2-1.1,1.8c-1.2-0.5-2.3-1.2-3.5-1.7
		c-0.2,0.6-0.5,1.3-0.7,1.9c1.1,0.6,2.3,1,3.5,1.5c0.8,0.4,0,1.3-0.3,1.9c-0.9-0.1-1.6-0.5-2.4-0.8c-1-0.4-2-0.7-2.9-1.2
		c-0.7-0.3-0.3-1.1-0.1-1.6C158.4,193.5,159.3,190.9,160.7,188.4z"/>
	<path class="st3" d="M211.9,192.1c1.3-0.8,2.7-1.5,4.1-2c1.4-0.1,2.8-0.1,4.2,0c0.4,0.7,1.1,1,1.7,1.4c0,1.6,0.4,3.6-1,4.8
		c1,0.6,2,1.3,2.9,2.1c0,0.1,0,0.3,0,0.4c-0.7,0.2-1.5,0.4-2.2,0.7c-1.2-0.7-2.1-1.6-3.3-2.2c-0.8,0.4-1.6,0.7-2.4,0.9
		c0.3,0.9,0.7,1.7,0.8,2.6c-0.6,0.3-1.1,0.7-1.7,0.9c-0.4,0-0.5-0.5-0.6-0.8c-0.8-2.4-1.6-4.8-2.4-7.2
		C212.1,193.1,211.8,192.6,211.9,192.1 M214.6,193.8c0.2,0.6,0.4,1.2,0.6,1.8c1.4-0.7,2.9-0.9,4.1-1.9c-0.3-0.4-0.8-0.8-1.2-1.1
		C216.8,192.5,215.8,193.5,214.6,193.8z"/>
	<path class="st3" d="M168.6,191.2c0.8,0.1,1.6,0.4,2.3,0.7c0,0.6,0.1,1.1,0.2,1.7c0.2,1.1,0,2.2,0.2,3.3c0.3,1.2,0,2.4,0.3,3.5
		c0.2,0.7,0.1,1.4,0.1,2.1c-0.7-0.2-1.4-0.4-2.1-0.7c-0.1-1.1-0.3-2.1-0.4-3.1c-0.8-0.3-1.7-0.6-2.6-0.9c-0.4,0.9-0.9,1.7-1.5,2.5
		c-0.6-0.2-1.5-0.1-1.9-0.8C165.1,196.7,166.8,193.9,168.6,191.2 M168,196.3c0.4,0.1,0.7,0.2,1.1,0.3c0-0.8,0-1.5,0-2.3
		C168.6,194.9,168,195.5,168,196.3z"/>
	<path class="st3" d="M174.1,192.3c0.8,0,1.5,0.3,2.2,0.4c1,2.7,1.6,5.5,2.6,8.2c0.2-1.9,0.5-3.8,0.8-5.7c0.1-0.5,0-1.2,0.5-1.5
		c0.6,0,1.2,0.2,1.7,0.3s0.4,0.6,0.4,1c-0.6,3.2-1,6.4-1.7,9.6c-0.9-0.2-1.9-0.5-2.8-0.7c-0.8-2.2-1.4-4.6-2.3-6.8
		c-0.5,1.9-0.7,3.9-1.2,5.8c-0.7-0.1-1.4-0.2-2.1-0.4c0.4-3,1.1-5.9,1.5-8.9C173.7,193.3,173.7,192.6,174.1,192.3z"/>
	<path class="st3" d="M208.5,193.2c0.5-0.3,1.5-1.1,1.8-0.2c1.1,2.7,1.9,5.5,2.8,8.2c0.1,0.4,0.4,0.8,0.3,1.3
		c-0.4,0.4-1.1,0.5-1.6,0.6c-0.4,0-0.5-0.5-0.6-0.8c-0.7-2-1.2-4.1-1.9-6C209,195.2,208.7,194.2,208.5,193.2z"/>
	<path class="st3" d="M201,194.9c1.2-0.2,2.4-0.9,3.6-0.9c1.7,2.2,3.2,4.7,4.9,6.9c0.4,0.8,1.2,1.4,1.2,2.3
		c-0.7,0.2-1.4,0.5-2.2,0.6c-0.9-0.7-1.3-2.1-2.2-2.8c-1.3,0.4-2.7,0.8-4,1.2c-0.4,1.1-0.3,2.3-0.8,3.3c-0.7,0.1-1.3,0.4-2,0.4
		c-0.5-0.3-0.3-1-0.3-1.5C200,201.3,200.3,198.1,201,194.9 M203.1,196.6c0,1.1-0.4,2.2-0.4,3.3c0.8-0.2,1.5-0.4,2.3-0.6
		c0-0.7-0.5-1.1-0.8-1.6C203.9,197.3,203.6,196.8,203.1,196.6z"/>
</g>
<circle class="st4" cx="195.5" cy="107.8" r="106.8"/>
<g>
	<path class="st5" d="M151.8,37l-0.1,2.6c-0.5,0.3-0.9,0.5-1.3,0.7c-0.4,0.2-0.7,0.4-1.1,0.5c-1,0.4-1.9,0.8-2.8,1
		c-0.9,0.3-1.8,0.5-2.7,0.6c-2,0.3-3.8,0.1-5.3-0.4c-0.1,0-0.3-0.1-0.4-0.2c-0.1-0.1-0.3-0.1-0.5-0.2c0.1,0.4,0.2,0.7,0.3,1
		c0.3,1.7,0.2,3.7-0.4,6c-0.2,0.8-0.5,1.6-0.8,2.4c-0.3,0.8-0.8,1.6-1.3,2.5c-0.2,0.3-0.4,0.6-0.6,1c-0.2,0.4-0.5,0.7-0.8,1.2
		c-0.1,0-0.2,0-0.3-0.1c-0.1,0-0.1,0-0.2,0c-0.4-0.1-0.7-0.1-1-0.1c-0.2,0-0.5,0-0.8,0c-0.4,0-0.6,0-0.6,0l0.1-0.3
		c0.5-0.6,0.9-1.1,1.3-1.6c0.3-0.5,0.6-0.9,0.9-1.3c1.4-2.3,2.2-4.4,2.4-6.3c0.1-1.2,0-2.3-0.3-3.4c-0.3-1-0.7-1.9-1.4-2.7l-3.5,3
		l-5,4.6l-1.6-1.8c0.6-0.5,1.8-1.5,3.7-3.1c1-0.8,1.9-1.6,2.9-2.5s2-1.8,3-2.7c1.3-1.1,2.4-2.1,3.4-3s1.9-1.7,2.6-2.4
		c1.5-1.4,2.7-2.5,3.7-3.4l1.7,1.9c-1,0.9-2.5,2.1-4.5,3.8s-3.5,3-4.5,3.8c0.1,0.1,0.2,0.2,0.3,0.3s0.2,0.2,0.3,0.2
		c1.2,0.8,2.7,1.3,4.5,1.4c2.3,0.2,4.7-0.3,7.2-1.5c0.4-0.2,0.9-0.5,1.4-0.7c0.5-0.3,1.1-0.6,1.7-1c0,0,0.1,0,0.2,0L151.8,37z
		 M161.3,44.8c0,0-0.3,0.2-0.7,0.6c-0.5,0.4-1.1,0.9-2,1.6c-1.7,1.4-3.4,2.8-5.1,4.2c-1.7,1.4-3.1,2.6-4.3,3.7l-12,10.7l-1.7-1.9
		c0.7-0.7,1.6-1.4,2.7-2.3c1-0.9,2.2-1.9,3.5-3c2.7-2.2,4.4-3.7,5.1-4.3l-3.8-4.3l-1.6-1.7c0.2-0.2,0.5-0.4,0.7-0.6
		c0.3-0.2,0.5-0.4,0.8-0.6c0.6-0.4,1-0.5,1.2-0.3c0.1,0.1,0.2,0.3,0.3,0.6s0.2,0.5,0.3,0.6l4,4.5l5.1-4.5c0.9-0.8,1.9-1.7,2.8-2.5
		c1-0.9,1.9-1.7,2.7-2.5L161.3,44.8z"/>
	<path class="st5" d="M180.2,27.8c0,0.1-0.2,0.4-0.5,0.9c-0.1,0.2-0.2,0.3-0.3,0.5s-0.2,0.4-0.3,0.5c-0.4-0.1-0.8-0.2-1.1-0.3
		c-0.3-0.1-0.6-0.2-0.9-0.2c-1.6-0.6-3.1-1.4-4.5-2.4c-0.4-0.3-0.8-0.7-1.2-1c-0.4-0.4-0.8-0.8-1.3-1.2c-0.1-0.2-0.3-0.4-0.5-0.6
		s-0.4-0.5-0.6-0.7c0,0.2-0.1,0.3-0.1,0.5c0,0.1-0.1,0.3-0.1,0.4c-0.2,0.8-0.5,1.5-0.9,2.4c-0.3,0.8-0.8,1.7-1.3,2.6
		c-0.4,0.7-0.8,1.3-1.2,2s-0.9,1.4-1.4,2c-0.1,0.2-0.3,0.4-0.5,0.7s-0.5,0.6-0.7,0.9c-0.1,0-0.1,0-0.2-0.1c-0.1,0-0.1,0-0.2,0
		c-0.2-0.1-0.5-0.2-0.9-0.4c-0.2-0.1-0.4-0.1-0.8-0.2c-0.3-0.1-0.5-0.1-0.5-0.1v-0.1c0.5-0.5,0.9-0.9,1.2-1.3
		c0.4-0.4,0.7-0.8,0.9-1.1c1.6-2,2.7-4,3.4-5.8c0.7-1.9,1-3.8,1-5.8c0-0.6,0-1.3-0.1-1.9s-0.2-1.3-0.4-1.9c0.4-0.1,1-0.2,1.7-0.2
		s1.1,0.1,1.2,0.3c0,0.1,0,0.2-0.1,0.5s-0.1,0.4-0.1,0.5c0,0.2,0,0.3,0,0.4s0,0.3,0,0.3c0,0.6,0.1,1.1,0.2,1.6
		c0.1,0.4,0.2,0.7,0.3,0.8c0.5,0.9,1.1,1.8,1.7,2.5c0.7,0.7,1.5,1.5,2.6,2.2c1,0.8,2.1,1.4,3.2,1.8c0.5,0.2,0.9,0.3,1.4,0.4
		s1,0.3,1.4,0.4L180.2,27.8z M192.2,39.4l-21.5,5.5l-1.8-7.4l-0.5-1.6c0.7-0.2,1.4-0.3,2-0.3c0.6-0.1,0.9,0,1,0.2c0,0.3,0,0.5,0,0.6
		s0,0.3,0,0.4s0,0.3,0,0.4l1.3,5.2l8.8-2.1c2.1-0.5,4-1,5.8-1.5c1.7-0.5,3.2-0.9,4.6-1.3L192.2,39.4z M183.7,9.7c0,0.1,0,0.3,0,0.6
		s0,0.6,0,0.8l2,8.1l3.6,14L187,34l-0.9-4.3l-2.3-9.1l-7.6,1.9l-0.5-2l4.6-1.1l2.9-0.8l-0.3-1.2c0-0.1-0.1-0.4-0.2-0.8
		c-0.1-0.4-0.3-1-0.5-1.7s-0.4-1.4-0.5-2c-0.2-0.6-0.3-1.1-0.4-1.6l-0.4-1.5l0.8-0.2c0.6-0.1,1-0.2,1.4-0.2
		C183.5,9.3,183.7,9.5,183.7,9.7z"/>
	<path class="st5" d="M215.6,30l-6.6-1.6l-8.6-1.8c0.1-0.4,0.2-0.9,0.3-1.4s0.3-1.1,0.5-1.8c0.2-0.7,0.4-1.4,0.5-2
		c0.2-0.7,0.3-1.3,0.5-1.9c0.3-1.2,0.5-2.2,0.7-3.1s0.3-1.5,0.4-2c0.1-0.5,0.2-1,0.3-1.4s0.2-0.9,0.2-1.3c0.4,0.1,0.9,0.2,1.5,0.4
		c0.6,0.1,1.2,0.3,2,0.5c0.7,0.2,1.3,0.3,1.8,0.5c0.5,0.1,0.8,0.2,1.1,0.2l8.8,2l-2.1,8.5c-0.3,1.2-0.5,2.4-0.7,3.5
		C216,28.2,215.8,29.1,215.6,30z M223.7,45.3l-11.6-2.7c-0.9-0.2-1.8-0.4-2.8-0.6c-1-0.2-1.9-0.4-2.9-0.6c-1-0.2-1.9-0.4-2.8-0.6
		c-0.9-0.2-1.8-0.4-2.6-0.5l1-4.2l1-4.9l1,0.2c0.5,0.1,1,0.3,1.3,0.4c0.3,0.2,0.5,0.4,0.4,0.6c0,0.2-0.1,0.3-0.1,0.4
		c-0.3,0.6-0.4,0.9-0.4,0.9l-1.1,4.9l8.6,1.9c1.5,0.3,2.8,0.6,3.9,0.9c1.1,0.3,2.1,0.5,3,0.6c0.8,0.2,1.7,0.3,2.5,0.5
		s1.5,0.3,2.2,0.4L223.7,45.3z M213.5,27l2.4-10.3l-9.9-2.3l-2.4,10.3l4.7,1.2L213.5,27z M230.1,14.7c0,0-0.1,0.2-0.3,0.6
		c-0.2,0.3-0.3,0.6-0.4,0.9l-2.2,9.7c-0.5,2.1-0.9,3.9-1.2,5.2c-0.3,1.4-0.6,2.5-0.7,3.2c-0.6,2.9-0.9,4.3-0.8,4.3l-2.8-0.5
		c0.4-1.3,0.8-3,1.3-5.2s1.1-4.7,1.8-7.5c0.4-1.5,0.7-2.9,0.9-4.1c0.3-1.2,0.5-2.2,0.7-3.1c0.2-0.8,0.3-1.7,0.5-2.4
		c0.1-0.8,0.3-1.5,0.4-2.2l2.3,0.6C230,14.3,230.2,14.5,230.1,14.7z"/>
	<path class="st5" d="M250.9,60c-1.3,1.6-3.1,2-5.2,1.4c-1.9-0.5-4.2-1.9-6.9-4.2c-2.4-2-4-4-4.9-6c-1-2.2-0.9-4,0.3-5.5
		s2.9-1.9,5.1-1.2c1.8,0.5,4,1.9,6.6,4.2c2.5,2.1,4.2,4.1,5.2,5.9C252.2,56.8,252.2,58.6,250.9,60z M249,58.3c0.8-1,0.7-2.2-0.3-3.9
		c-0.8-1.3-2.1-2.8-3.9-4.3c-1.8-1.6-3.4-2.6-4.6-3.1c-1.8-0.8-3.1-0.7-4,0.4c-0.8,1-0.8,2.2,0,3.8c0.7,1.3,2,2.7,3.9,4.4
		c2.2,1.8,4,3,5.4,3.5S248.1,59.3,249,58.3z M253,44.8c-1,1.2-2.2,1.6-3.7,1.4c-1.5-0.2-3.2-1.1-5-2.6c-2.1-1.8-3.3-3.4-3.8-4.9
		c-0.4-1.5-0.2-2.9,0.9-4.1c1-1.1,2.3-1.5,4-1c0.7,0.2,1.5,0.5,2.3,0.9s1.5,1,2.3,1.7c0.9,0.8,1.6,1.5,2.2,2.3
		c0.6,0.8,1,1.5,1.3,2.3c0.3,0.7,0.4,1.5,0.3,2.1C253.8,43.6,253.5,44.3,253,44.8z M250.9,43.3c0.6-0.7,0.7-1.5,0.4-2.4
		c-0.3-1-1.1-2.1-2.4-3.2c-1.4-1.1-2.5-1.8-3.5-1.9c-1-0.1-1.7,0.1-2.2,0.7c-0.6,0.7-0.6,1.5-0.2,2.6c0.4,1.1,1.3,2.1,2.5,3.1
		c1.3,1.1,2.4,1.7,3.4,1.8C249.7,44.1,250.4,43.9,250.9,43.3z M258.9,41.3l-8.1-7c-0.8-0.7-1.5-1.3-2.2-1.8
		c-0.7-0.6-1.3-1.1-1.9-1.5c-0.6-0.4-1.2-0.9-1.8-1.4s-1.3-1-2-1.6l1.4-1.7c0,0,0.3,0.2,0.6,0.6c0.4,0.4,1,0.9,1.7,1.5
		c0.8,0.7,1.5,1.3,2.1,1.8s1.2,1,1.7,1.5l1.3,1.1c1.6,1.3,3,2.5,4.5,3.7c1.4,1.1,2.8,2.2,4.1,3.1L258.9,41.3z M257,34.5l-3.1-2.6
		l-3.7-3.1l1.4-1.6l3.7,3.3l3,2.4L257,34.5z M263.4,52.3l-3.8-3.3l-2.6,3l-2.1,2.6l-2.1-1.6l11-12.9c0.2-0.3,0.5-0.6,0.9-1
		c0.3-0.4,0.6-0.8,0.9-1.2c0.5,0.4,1,0.9,1.4,1.3c0.5,0.5,0.6,0.8,0.5,1c0,0-0.2,0.1-0.4,0.3c-0.3,0.2-0.5,0.3-0.6,0.5l-2.6,3
		l-2.7,3.3l3.8,3.3L263.4,52.3z"/>
</g>
<g>
	<path class="st6" d="M137.7,190.7l-2.3-1.8l0.1-4.6l-0.8,0.2l-1.8,2.4l-1.9-1.4l5.6-7.2l1.9,1.4L136,183l5.1-1.3l2.2,1.7l-5.4,1.2
		L137.7,190.7z"/>
	<path class="st6" d="M149.1,192.4c-0.8,1.2-1.7,2-2.9,2.3s-2.4,0.1-3.6-0.7c-1.3-0.8-2-1.7-2.3-2.9s0-2.4,0.8-3.6
		c0.8-1.3,1.7-2,2.9-2.3s2.4,0,3.6,0.7c1.3,0.8,2,1.7,2.3,2.9S149.9,191.2,149.1,192.4z M145.2,192.7c0.3-0.1,0.7-0.3,1-0.6
		s0.6-0.6,0.8-1.1c0.3-0.5,0.5-0.9,0.6-1.3s0.1-0.7,0.1-1.1c0-0.3-0.2-0.6-0.3-0.8s-0.4-0.4-0.6-0.6c-0.3-0.2-0.5-0.3-0.8-0.3
		s-0.6,0-0.9,0.1c-0.3,0.1-0.6,0.3-0.9,0.5s-0.6,0.6-0.9,1.1c-0.3,0.5-0.5,0.9-0.6,1.3c-0.1,0.4-0.1,0.7-0.1,1.1
		c0,0.3,0.2,0.6,0.3,0.8c0.2,0.2,0.4,0.4,0.6,0.6c0.3,0.2,0.5,0.3,0.8,0.3C144.6,192.9,144.9,192.9,145.2,192.7z"/>
	<path class="st6" d="M156.8,201.2l-2.6-1.2l-0.8-4.1l-1-0.5l-1.4,3l-2.1-1l3.9-8.3l3.6,1.7c0.5,0.2,0.9,0.5,1.2,0.7
		s0.6,0.5,0.8,0.8s0.4,0.7,0.4,1.1c0,0.4,0,0.8-0.3,1.2c-0.3,0.6-0.7,1-1.1,1.3c-0.5,0.3-1,0.4-1.7,0.4L156.8,201.2z M156.2,193.9
		c0.1-0.2,0.1-0.4,0.1-0.6s-0.1-0.4-0.3-0.6c-0.1-0.1-0.3-0.2-0.5-0.3s-0.4-0.2-0.7-0.3l-0.8-0.4l-1.1,2.2l0.7,0.3
		c0.3,0.2,0.6,0.3,0.9,0.4c0.2,0.1,0.5,0.1,0.7,0c0.2,0,0.4-0.1,0.5-0.2C156,194.3,156.1,194.1,156.2,193.9z"/>
	<path class="st6" d="M164.6,204l-6.2-2.2l3.1-8.6l6.2,2.2l-0.6,1.7l-4-1.5l-0.5,1.5l3.7,1.3l-0.6,1.7l-3.7-1.3l-0.8,2.1l4,1.5
		L164.6,204z"/>
	<path class="st6" d="M175.2,206.8l-2.4-0.6l-0.2-2l-3.3-0.8l-1.1,1.6l-2.3-0.6l5.5-8l2.6,0.7L175.2,206.8z M172.5,202.5l-0.3-3.5
		l-1.9,2.9L172.5,202.5z"/>
	<path class="st6" d="M185.3,208.3L183,208l-3-6.8l-0.9,6.2l-2.1-0.3l1.3-9.1l2.8,0.4l2.6,5.7l0.7-5.2l2.1,0.3L185.3,208.3z"/>
	<path class="st6" d="M210.3,207.8l-2.4,0.2l-0.8-1.8l-3.4,0.3l-0.5,1.9l-2.4,0.2l2.5-9.4l2.7-0.3L210.3,207.8z M206.4,204.6
		l-1.4-3.2l-0.8,3.4L206.4,204.6z"/>
	<path class="st6" d="M217,206.5l-5.3,1l-0.3-1.6l1.5-0.3l-1.1-5.8l-1.5,0.3l-0.3-1.6l5.3-1l0.3,1.6l-1.5,0.3l1.1,5.8l1.5-0.3
		L217,206.5z"/>
	<path class="st6" d="M227.8,203.6l-2.8,0.8l-3.3-2.6l-1.1,0.3l0.9,3.2l-2.3,0.6l-2.5-8.8l3.8-1.1c0.5-0.1,1-0.2,1.4-0.3
		c0.4,0,0.8,0,1.2,0.1s0.7,0.3,1,0.5s0.5,0.6,0.6,1.1c0.2,0.7,0.2,1.2,0,1.7s-0.5,1-1,1.4L227.8,203.6z M222.6,198.5
		c-0.1-0.2-0.2-0.4-0.3-0.5s-0.3-0.2-0.6-0.2c-0.2,0-0.4,0-0.6,0s-0.5,0.1-0.7,0.2l-0.8,0.2l0.7,2.4l0.7-0.2
		c0.4-0.1,0.7-0.2,0.9-0.3s0.4-0.2,0.5-0.4s0.2-0.3,0.2-0.5C222.7,199,222.6,198.7,222.6,198.5z"/>
	<path class="st6" d="M237.6,189.7l1.3,9.4l-2.4,1l-3.8-4.9l0.9,6.1l-2.4,1l-5.9-7.5l2.3-1l3.8,5.3l-0.9-6.5l2.2-0.9l3.9,5.2
		l-1.1-6.4L237.6,189.7z"/>
	<path class="st6" d="M250.4,192.7l-2.1,1.2l-1.5-1.3l-2.9,1.7l0.4,1.9l-2.1,1.2l-1.7-9.6l2.3-1.4L250.4,192.7z M245.5,191.5
		l-2.6-2.3l0.7,3.4L245.5,191.5z"/>
	<path class="st6" d="M253.1,179.5l0.6,6.5l2.1,2.9l-1.9,1.4l-2-2.8l-6.1-2.6l2.2-1.6l3.7,1.7l-0.5-4L253.1,179.5z"/>
	<path class="st6" d="M263.4,178.7c0.6,0.7,0.8,1.5,0.6,2.4s-0.8,1.8-1.8,2.7c-0.6,0.5-1.1,0.9-1.6,1.2s-1,0.5-1.5,0.7l-1.5-1.6
		l0.2-0.2c0.6,0,1.2-0.2,1.8-0.4c0.6-0.2,1.1-0.5,1.5-0.9c0.1-0.1,0.2-0.2,0.4-0.4s0.3-0.3,0.3-0.5c0.1-0.2,0.1-0.3,0.2-0.5
		c0-0.2,0-0.3-0.2-0.5c-0.1-0.2-0.3-0.2-0.5-0.2s-0.5,0.1-0.8,0.2c-0.3,0.2-0.6,0.3-1,0.5c-0.3,0.2-0.7,0.4-1,0.5
		c-0.7,0.3-1.4,0.4-1.9,0.3s-1-0.4-1.4-0.9c-0.6-0.6-0.7-1.4-0.5-2.3c0.2-0.9,0.8-1.8,1.7-2.6c0.5-0.4,0.9-0.7,1.5-1.1
		s1-0.5,1.4-0.7l1.4,1.6l-0.2,0.2c-0.5,0-1,0.1-1.5,0.3s-1,0.5-1.4,0.9c-0.1,0.1-0.3,0.3-0.4,0.4c-0.1,0.1-0.2,0.3-0.3,0.5
		c-0.1,0.2-0.1,0.3-0.1,0.5s0,0.3,0.2,0.4c0.2,0.2,0.4,0.3,0.6,0.2s0.6-0.2,1-0.4c0.3-0.2,0.6-0.3,0.9-0.5s0.6-0.3,0.9-0.5
		c0.7-0.3,1.3-0.4,1.8-0.3C262.5,178,263,178.2,263.4,178.7z"/>
</g>
<g>
	<path class="st6" d="M121.4,151.6c-0.5-0.8-0.8-1.6-0.9-2.4s-0.1-1.6,0-2.3c0.2-0.8,0.5-1.5,1.1-2.1s1.3-1.3,2.2-1.8
		c0.8-0.5,1.7-0.8,2.5-1c0.8-0.1,1.6-0.1,2.4,0.1c0.7,0.2,1.4,0.6,2.1,1.1c0.7,0.5,1.2,1.2,1.7,2c0.3,0.5,0.5,0.9,0.6,1.3
		c0.2,0.4,0.3,0.8,0.4,1.1c0.1,0.4,0.2,0.7,0.2,1s0.1,0.6,0.1,0.9l-2.6,1.5l-0.2-0.3c0-0.2,0.1-0.4,0.1-0.7s0.1-0.6,0.1-1
		s0-0.7-0.1-1.1s-0.2-0.7-0.4-1.1c-0.2-0.4-0.5-0.7-0.8-1s-0.7-0.5-1.2-0.6c-0.4-0.1-0.9-0.1-1.5-0.1c-0.6,0.1-1.1,0.3-1.8,0.7
		c-0.7,0.4-1.2,0.8-1.5,1.3c-0.3,0.4-0.6,0.9-0.6,1.3c-0.1,0.4-0.1,0.9,0,1.3c0.1,0.4,0.2,0.8,0.4,1.2c0.2,0.3,0.4,0.6,0.7,0.9
		s0.6,0.5,0.9,0.7s0.5,0.3,0.8,0.4c0.3,0.1,0.5,0.2,0.7,0.3l0.2,0.3l-2.6,1.5c-0.3-0.2-0.5-0.4-0.8-0.6c-0.2-0.2-0.5-0.4-0.7-0.6
		c-0.3-0.3-0.6-0.6-0.8-0.9C122,152.6,121.8,152.1,121.4,151.6z"/>
	<path class="st6" d="M133,166.8l-2-2.5l4.2-3.5l-3-3.6l-4.2,3.5l-2-2.5l9.5-7.9l2,2.5l-3.5,2.9l3,3.6l3.5-2.9l2,2.5L133,166.8z"/>
	<path class="st6" d="M149.4,173c-1.3,1.5-2.7,2.4-4.3,2.5c-1.6,0.2-3.2-0.4-4.7-1.7s-2.3-2.7-2.5-4.3c-0.1-1.6,0.4-3.2,1.7-4.7
		s2.7-2.4,4.3-2.5c1.6-0.2,3.2,0.4,4.7,1.7s2.3,2.7,2.5,4.3C151.2,169.9,150.7,171.5,149.4,173z M144.2,172.7
		c0.5-0.1,0.9-0.3,1.4-0.6c0.4-0.3,0.9-0.7,1.3-1.2c0.5-0.6,0.8-1.1,1-1.6s0.3-1,0.3-1.4s-0.1-0.8-0.3-1.2s-0.4-0.7-0.7-0.9
		c-0.3-0.3-0.6-0.4-1-0.6c-0.4-0.1-0.8-0.1-1.2-0.1c-0.4,0.1-0.9,0.2-1.3,0.5c-0.5,0.3-1,0.7-1.4,1.3c-0.5,0.6-0.8,1.1-1,1.6
		s-0.3,1-0.3,1.4s0.1,0.8,0.3,1.2s0.4,0.7,0.7,0.9c0.3,0.3,0.7,0.5,1.1,0.6C143.3,172.8,143.7,172.8,144.2,172.7z"/>
	<path class="st6" d="M159.1,181.4c-0.6,1.1-1.6,1.6-2.8,1.8c-1.3,0.1-2.7-0.2-4.2-1.1c-0.9-0.5-1.6-1-2.2-1.6s-1.1-1.1-1.5-1.7
		l1.5-2.6l0.3,0.2c0.3,0.8,0.7,1.5,1.3,2.2s1.2,1.2,1.8,1.5c0.2,0.1,0.4,0.2,0.7,0.3s0.5,0.2,0.8,0.2s0.5,0,0.7,0s0.4-0.2,0.5-0.5
		c0.1-0.2,0.2-0.5,0.1-0.8c-0.1-0.3-0.3-0.6-0.6-0.9c-0.3-0.3-0.7-0.7-1.1-1s-0.8-0.7-1.1-1.1c-0.7-0.8-1.1-1.6-1.3-2.3
		s0.1-1.5,0.5-2.2c0.6-1,1.5-1.5,2.8-1.7c1.3-0.1,2.6,0.2,4,1.1c0.7,0.4,1.4,0.9,2,1.4s1.1,1.1,1.5,1.5l-1.4,2.5l-0.3-0.2
		c-0.2-0.6-0.6-1.2-1.1-1.8s-1.1-1.1-1.7-1.5c-0.2-0.1-0.5-0.3-0.7-0.4c-0.2-0.1-0.5-0.2-0.8-0.2c-0.2,0-0.5,0-0.7,0
		c-0.2,0.1-0.4,0.2-0.5,0.4c-0.2,0.3-0.2,0.6-0.1,0.8c0.1,0.3,0.5,0.7,1,1.1c0.3,0.3,0.7,0.6,1,0.9c0.3,0.3,0.6,0.6,1,1
		c0.7,0.7,1.1,1.5,1.2,2.1S159.5,180.7,159.1,181.4z"/>
	<path class="st6" d="M173.7,184.7c-0.7,1.8-1.8,3.1-3.2,3.8s-3.1,0.7-5,0s-3.1-1.8-3.8-3.3s-0.6-3.1,0.1-5c0.7-1.9,1.8-3.1,3.2-3.8
		s3.1-0.7,5,0s3.1,1.8,3.8,3.3C174.4,181.1,174.4,182.8,173.7,184.7z M168.7,186.1c0.4-0.2,0.8-0.6,1.1-1s0.6-1,0.8-1.6
		c0.3-0.7,0.4-1.3,0.4-1.9c0-0.5,0-1-0.2-1.4c-0.1-0.4-0.4-0.7-0.7-1s-0.6-0.5-1-0.6s-0.8-0.2-1.1-0.2c-0.4,0-0.8,0.1-1.2,0.3
		s-0.7,0.5-1.1,1c-0.4,0.5-0.7,1-0.9,1.7c-0.3,0.7-0.4,1.3-0.4,1.9s0,1,0.2,1.4c0.1,0.4,0.4,0.7,0.7,1s0.6,0.5,1,0.6
		s0.8,0.2,1.2,0.2S168.3,186.4,168.7,186.1z"/>
	<path class="st6" d="M186.4,193.3l-3-0.5l-3.7-9.2l-1.4,8.4l-2.9-0.5l2.1-12.2l3.8,0.6l3.2,7.7l1.2-7l2.9,0.5L186.4,193.3z"/>
	<path class="st6" d="M204,193.4l-3.2,0.1l-0.2-8.3l-2.2,5.4h-2.2l-2.4-5.3l0.2,8.3l-3,0.1l-0.3-12.4l3.7-0.1l2.9,6.1l2.6-6.3
		l3.7-0.1L204,193.4z"/>
	<path class="st6" d="M214.9,191.5l-7.1,1.3l-0.4-2.2l2-0.4l-1.5-7.8l-2,0.4l-0.4-2.2l7.1-1.3l0.4,2.2l-2,0.4l1.5,7.8l2-0.4
		L214.9,191.5z"/>
	<path class="st6" d="M229.2,187l-2.9,1l-7.8-6.3l2.8,8l-2.8,1l-4.1-11.7l3.6-1.3l6.6,5.2l-2.3-6.7l2.8-1L229.2,187z"/>
	<path class="st6" d="M243,179.5l-2.8,1.6l-2.7-4.7l-4.1,2.3l2.7,4.7l-2.8,1.6l-6.1-10.7l2.8-1.6l2.2,3.9l4.1-2.3l-2.3-3.9l2.8-1.6
		L243,179.5z"/>
	<path class="st6" d="M255.4,169.6l-2.5,2.1l-2.3-1.4l-3.5,2.9l0.9,2.5l-2.5,2.1l-4.4-12.4l2.8-2.4L255.4,169.6z M248.6,169.1
		l-4-2.4l1.7,4.4L248.6,169.1z"/>
	<path class="st6" d="M264.8,158.7l-2,2.3l-9.9-1.5l6.5,5.5l-1.9,2.2l-9.5-8l2.5-2.9l8.3,1.1l-5.4-4.6l1.9-2.2L264.8,158.7z"/>
	<path class="st6" d="M272.3,145.2c-0.1,0.6-0.3,1.3-0.5,2.2c-0.3,0.9-0.6,1.7-1.1,2.5c-1,1.8-2.4,3-3.9,3.4s-3.2,0.2-5-0.8
		c-1.7-1-2.7-2.2-3.1-3.9c-0.4-1.6-0.1-3.4,1-5.2c0.4-0.7,0.9-1.3,1.3-1.9s1.2-1.1,2-1.7l2.5,1.4l-0.2,0.3c-0.2,0.1-0.4,0.2-0.8,0.3
		c-0.3,0.2-0.6,0.3-0.9,0.5s-0.6,0.4-1,0.7c-0.3,0.3-0.6,0.7-0.8,1.1c-0.3,0.5-0.5,1-0.5,1.5c-0.1,0.5-0.1,1,0,1.5s0.3,0.9,0.7,1.3
		s0.8,0.8,1.4,1.1c1.2,0.7,2.3,0.9,3.3,0.6s1.8-1,2.5-2.2c0.1-0.1,0.1-0.2,0.2-0.4s0.1-0.3,0.2-0.4l-2.1-1.2l-1.2,2.1l-2-1.2
		l2.8-4.9L272.3,145.2z"/>
</g>
<g>
	<polygon class="st7" points="45.799,106.8 67.399,114.9 79.199,116.6 195.499,82.1 	"/>
	<polygon class="st7" points="83.899,118.9 95.899,123.7 106.099,126.2 195.499,82.1 	"/>
	<polygon class="st7" points="107.399,130.6 195.499,82.1 132.999,130.2 	"/>
	<polygon class="st7" points="130.399,137.2 149.799,137.2 195.499,82.1 	"/>
	<polygon class="st7" points="150.799,142 157.899,143.5 164.099,142.3 195.499,82.1 	"/>
	<polygon class="st7" points="166.399,145.4 172.799,147.2 182.199,144.2 184.399,138 195.499,82.1 	"/>
	<polygon class="st7" points="345.199,106.8 323.499,114.9 311.799,116.6 195.499,82.1 	"/>
	<polygon class="st7" points="307.099,118.9 295.099,123.7 284.899,126.2 195.499,82.1 	"/>
	<polygon class="st7" points="283.599,130.6 195.499,82.1 257.999,130.2 	"/>
	<polygon class="st7" points="260.599,137.2 241.199,137.2 195.499,82.1 	"/>
	<polygon class="st7" points="240.199,142 233.099,143.5 226.899,142.3 195.499,82.1 	"/>
	<polygon class="st7" points="224.599,145.4 218.199,147.2 208.799,144.2 206.599,138 195.499,82.1 	"/>
	<polygon class="st7" points="203.699,139.5 202.099,131.9 195.499,82.1 188.899,131.9 187.299,139.5 184.399,145.9 195.499,156 
		206.499,145.9 	"/>
</g>
<g>
	<circle class="st8" cx="195.5" cy="82.1" r="40.2"/>
	<polyline class="st7" points="383.8,89.699 362.6,98.699 352.3,101.599 195.5,82.1 391,82.1 	"/>
	<polyline class="st7" points="7.2,89.699 28.4,98.699 38.7,101.599 195.5,82.099 0,82.1 	"/>
	<path class="st7" d="M195.497,118.7c20.2,0,36.7-16.4,36.7-36.6l-73.5,0.001C158.898,102.301,175.297,118.7,195.497,118.7z"/>
	<circle class="st8" cx="195.5" cy="82.1" r="31.5"/>
	<g>
		<g>
			<circle class="st7" cx="195.5" cy="82.1" r="27.556"/>
			<circle class="st8" cx="195.5" cy="82.1" r="25.224"/>
			<circle class="st6" cx="195.5" cy="82.1" r="22.892"/>
		</g>
		<circle class="st8" cx="195.5" cy="82.1" r="20.157"/>
		<path class="st6" d="M195.5,62.903l4.617,13.122h13.851l-10.773,8.424l3.888,13.122l-11.502-7.695l-11.502,7.695l3.726-13.122
			l-10.773-8.424h13.851L195.5,62.903z"/>
	</g>
</g>
<path class="st7" d="M195.5,82.3"/>
</svg>
