<?xml version="1.0" encoding="utf-8"?>
<!-- Generator: Adobe Illustrator 15.0.0, SVG Export Plug-In . SVG Version: 6.00 Build 0)  -->
<!DOCTYPE svg PUBLIC "-//W3C//DTD SVG 1.1//EN" "http://www.w3.org/Graphics/SVG/1.1/DTD/svg11.dtd">
<svg version="1.1" id="Layer_1" xmlns="http://www.w3.org/2000/svg" xmlns:xlink="http://www.w3.org/1999/xlink" x="0px" y="0px"
	 width="179px" height="64px" viewBox="0 0 179 64" enable-background="new 0 0 179 64" xml:space="preserve">
<g>
	<path fill="#2E3192" d="M41.682,36.671v2.116c-3.646,4.058-6.993,7.404-10.042,10.041c-3.048,2.636-6.026,4.665-8.934,6.086
		c-2.908,1.421-5.717,2.132-8.43,2.132c-2.343,0-4.356-0.467-6.038-1.4c-1.682-0.933-2.951-2.294-3.808-4.084
		c-0.857-1.791-1.286-3.911-1.286-6.363c0-1.931,0.309-3.976,0.928-6.135c0.618-2.159,1.513-4.34,2.685-6.542
		c1.172-2.202,2.609-4.475,4.312-6.819c1.703-2.343,3.705-4.806,6.005-7.388c2.386-2.669,4.741-4.974,7.062-6.916
		s4.427-3.467,6.314-4.573c1.888-1.107,3.64-1.931,5.257-2.474c1.616-0.542,2.956-0.814,4.019-0.814
		c1.085,0,2.007,0.261,2.767,0.781c0.759,0.521,1.345,1.281,1.758,2.278c0.412,0.999,0.618,2.148,0.618,3.45
		c0,2.452-0.835,5.181-2.506,8.186c-1.671,3.005-3.754,5.907-6.25,8.706c-2.495,2.799-4.877,5.083-7.144,6.852
		c-2.268,1.769-3.9,2.652-4.898,2.652c-0.673,0-1.297-0.265-1.872-0.797c-0.575-0.531-0.862-1.133-0.862-1.806
		c0-1.237,0.656-2.734,1.969-4.492c1.312-1.758,2.745-3.369,4.296-4.833c1.551-1.464,2.479-2.197,2.783-2.197
		c0.151,0,0.228,0.065,0.228,0.195c0,0.195-0.114,0.532-0.342,1.009c-0.228,0.478-0.342,0.771-0.342,0.879
		c0,0.174,0.065,0.26,0.195,0.26c0.369,0,1.432-0.987,3.19-2.962c1.757-1.974,3.369-4.15,4.833-6.525
		c1.465-2.376,2.197-4.324,2.197-5.843c0-0.629-0.136-1.111-0.407-1.448c-0.272-0.336-0.679-0.505-1.221-0.505
		c-1.519,0-3.825,1.232-6.916,3.694c-3.093,2.463-6.261,5.598-9.504,9.406c-3.245,3.809-5.952,7.742-8.121,11.799
		c-2.17,4.058-3.255,7.627-3.255,10.708c0,1.779,0.266,3.266,0.797,4.459c0.531,1.193,1.312,2.115,2.343,2.767
		c1.031,0.651,2.273,0.976,3.727,0.976c3.146,0,6.715-1.226,10.708-3.678S36.886,41.445,41.682,36.671z"/>
	<path fill="#2E3192" d="M56.946,36.801v2.376c-2.105,2.712-4.068,4.757-5.891,6.135s-3.374,2.066-4.654,2.066
		c-1.779,0-3.103-0.933-3.971-2.799c-0.868-1.866-1.302-3.906-1.302-6.119c0-0.846,0.086-1.654,0.26-2.425
		c0.173-0.77,0.379-1.405,0.618-1.904s0.684-1.28,1.334-2.344c3.081-4.795,5.902-7.193,8.462-7.193c1.324,0,1.986,0.51,1.986,1.53
		c0,0.694-0.429,1.779-1.286,3.255c-0.857,1.476-1.622,2.528-2.294,3.157c-1.888,1.823-3.12,3.092-3.694,3.808
		c-0.575,0.716-0.862,1.53-0.862,2.441c0,0.781,0.293,1.432,0.879,1.953c0.586,0.521,1.345,0.781,2.278,0.781
		c1.02,0,2.142-0.374,3.369-1.123C53.404,39.649,54.994,38.45,56.946,36.801z M54.733,22.252c-0.543,0-1.058-0.206-1.546-0.619
		c-0.489-0.412-0.733-0.933-0.733-1.562c0-0.955,0.456-2.018,1.367-3.189c0.912-1.172,1.855-1.757,2.832-1.757
		c0.651,0,1.193,0.201,1.627,0.602c0.434,0.402,0.651,0.982,0.651,1.742c0,0.933-0.445,1.964-1.334,3.092
		C56.708,21.688,55.753,22.252,54.733,22.252z"/>
	<path fill="#2E3192" d="M68.078,19.909h1.399c1.15-2.061,2.191-3.52,3.125-4.378c0.933-0.856,1.996-1.285,3.189-1.285
		s1.79,0.271,1.79,0.813c0,0.26-0.467,0.966-1.399,2.116c-0.933,1.15-1.639,2.116-2.116,2.896c0.738,0.087,1.394,0.163,1.969,0.228
		c0.575,0.065,1.025,0.12,1.351,0.163c-1.237,2.3-2.788,4.654-4.654,7.063c-0.607-0.043-1.118-0.082-1.53-0.114
		c-0.412-0.033-0.83-0.065-1.252-0.098c-0.424-0.032-0.939-0.07-1.546-0.113c-1.172,1.888-2.154,3.575-2.945,5.061
		c-0.793,1.487-1.4,2.848-1.823,4.085C63.211,37.582,63,38.754,63,39.86c0,1.498,0.596,2.246,1.79,2.246
		c0.824,0,1.904-0.439,3.238-1.318c1.335-0.878,3.119-2.229,5.354-4.052v2.181c-5.859,6.358-10.188,9.537-12.987,9.537
		c-0.977,0-1.763-0.38-2.359-1.139c-0.598-0.759-0.896-1.736-0.896-2.929c0-0.803,0.168-1.758,0.505-2.864
		c0.335-1.106,0.938-2.777,1.806-5.012c-0.304,0.26-0.592,0.516-0.863,0.765c-0.271,0.25-0.521,0.478-0.748,0.684
		c-0.229,0.207-0.472,0.423-0.732,0.651c-0.261,0.228-0.521,0.461-0.781,0.7v-2.246c2.278-1.909,5.034-5.262,8.267-10.057
		c-0.326-0.021-0.629-0.038-0.912-0.049c-0.282-0.011-0.618-0.017-1.009-0.017c-1.28,0-2.235,0.087-2.864,0.261
		c-0.26,0.065-0.504,0.136-0.732,0.211c-0.229,0.076-0.386,0.114-0.472,0.114c-0.087,0-0.13-0.065-0.13-0.195
		c0-0.716,0.445-1.79,1.334-3.222c0.716-1.215,1.394-2.116,2.034-2.702c0.64-0.585,1.421-0.981,2.343-1.188
		C65.11,20.012,66.407,19.909,68.078,19.909z"/>
	<path fill="#2E3192" d="M78.525,37.973v0.814c0,1.28,0.314,2.278,0.944,2.994c0.629,0.716,1.454,1.074,2.474,1.074
		c1.063,0,2.165-0.25,3.304-0.749c1.139-0.499,2.272-1.161,3.401-1.985c1.128-0.825,2.506-1.931,4.134-3.32v1.985
		c-2.453,2.951-4.752,5.213-6.9,6.786c-2.148,1.573-4.329,2.359-6.542,2.359c-1.932,0-3.461-0.749-4.589-2.246
		c-1.128-1.497-1.692-3.548-1.692-6.151c0-2.278,0.531-4.345,1.595-6.2c1.063-1.855,2.799-3.813,5.208-5.875
		c1.649-1.41,3.288-2.474,4.915-3.19c1.627-0.716,3.081-1.074,4.361-1.074c1.02,0,1.828,0.233,2.425,0.7
		c0.596,0.467,0.895,1.167,0.895,2.099c0,1.367-0.51,2.729-1.53,4.085c-1.02,1.356-2.577,2.701-4.671,4.036
		C84.161,35.45,81.585,36.736,78.525,37.973z M78.851,35.857c1.953-0.759,3.624-1.703,5.012-2.832
		c1.389-1.128,2.414-2.208,3.076-3.239c0.661-1.03,0.993-1.784,0.993-2.262c0-0.499-0.228-0.749-0.684-0.749
		c-0.391,0-1.025,0.25-1.904,0.749c-0.878,0.5-1.769,1.15-2.669,1.953c-0.901,0.803-1.708,1.747-2.425,2.832
		C79.535,33.395,79.068,34.577,78.851,35.857z"/>
	<path fill="#2E3192" d="M108.339,36.443v2.409c-4.535,6.011-8.224,9.016-11.066,9.016c-1.541,0-2.75-0.84-3.629-2.522
		c-0.879-1.681-1.318-3.889-1.318-6.624c0-2.213,0.521-4.844,1.562-7.893c1.042-3.048,2.435-6.14,4.183-9.275
		c1.746-3.135,3.558-5.87,5.435-8.202c1.876-2.333,3.618-3.965,5.224-4.898c0.651-0.391,1.161-0.586,1.53-0.586
		c0.456,0,0.759,0.201,0.911,0.602c0.152,0.402,0.228,1.09,0.228,2.067c0,3.016-1.226,6.721-3.678,11.115
		c-2.452,4.395-5.87,8.88-10.252,13.458c-0.217,1.128-0.325,1.997-0.325,2.604c0,1.389,0.298,2.517,0.895,3.385
		c0.597,0.868,1.427,1.302,2.49,1.302c0.542,0,1.128-0.211,1.758-0.635c0.629-0.422,1.291-0.949,1.985-1.578
		C104.965,39.557,106.321,38.31,108.339,36.443z M98.607,30.584c1.128-1.106,2.218-2.365,3.271-3.775
		c1.052-1.411,2.045-2.918,2.979-4.524c0.933-1.605,1.665-3.048,2.197-4.329c0.531-1.28,0.797-2.246,0.797-2.897
		c0-0.499-0.174-0.749-0.521-0.749c-0.13,0-0.38,0.12-0.749,0.358c-1.324,1.085-2.81,3.206-4.459,6.363
		C100.474,24.188,99.302,27.374,98.607,30.584z"/>
	<path fill="#2E3192" d="M122.172,38.07l-5.794,4.915c-2.756,2.408-4.6,3.613-5.533,3.613c-0.846,0-1.736-0.971-2.668-2.913
		c-0.933-1.942-1.4-3.64-1.4-5.094c0-1.237,0.189-2.283,0.569-3.141c0.38-0.856,1.036-1.969,1.97-3.336
		c1.323-1.844,2.593-3.406,3.808-4.687c1.215-1.28,2.289-2.272,3.222-2.979c0.933-0.704,1.583-1.057,1.953-1.057
		c0.586,0,1.155,0.304,1.709,0.911c0.553,0.608,0.83,1.237,0.83,1.888c0,0.413-0.298,1.074-0.895,1.985
		c-0.598,0.912-1.542,2.067-2.832,3.467c-1.292,1.399-3.087,3.075-5.387,5.028l-0.618,1.79c-0.174,0.347-0.261,0.651-0.261,0.912
		c0,0.585,0.293,0.878,0.879,0.878c0.607,0,2.035-0.77,4.28-2.311c2.247-1.541,4.682-3.613,7.307-6.217
		c1.02-1.02,1.866-1.92,2.539-2.702c0.672-0.781,1.28-1.514,1.823-2.197c0.542-0.684,0.993-1.199,1.35-1.546
		c0.358-0.347,0.678-0.532,0.96-0.553c0.542-0.065,0.965,0.163,1.27,0.683c0.304,0.521,0.456,1.292,0.456,2.311
		c0,0.586-0.26,1.318-0.781,2.197c-0.521,0.879-1.497,2.376-2.929,4.492c-1.432,2.116-2.859,4.308-4.28,6.575
		c-1.422,2.268-2.87,4.823-4.345,7.665c0.065-0.065,0.732-0.716,2.002-1.953c1.269-1.237,2.609-2.528,4.019-3.874
		c1.411-1.345,2.571-2.425,3.483-3.238c0.911-0.814,2.05-1.763,3.417-2.848v2.181c-2.929,3.146-5.582,6.13-7.958,8.951
		c-2.375,2.821-4.21,5.078-5.5,6.77c-1.292,1.692-2.046,2.68-2.263,2.962c-0.586,0.759-1.112,1.47-1.578,2.132
		c-0.467,0.662-0.858,1.171-1.172,1.53c-0.315,0.358-0.57,0.537-0.765,0.537c-0.456,0-0.862-0.451-1.221-1.351
		c-0.357-0.9-0.537-1.698-0.537-2.392c0-0.629,0.119-1.183,0.358-1.66C113.221,52.879,116.726,46.772,122.172,38.07z"/>
	<path fill="#2E3192" d="M154.102,30.91c-3.819,4.253-5.729,7.215-5.729,8.886c0,0.933,0.379,1.399,1.139,1.399
		c0.629,0,1.448-0.33,2.458-0.993c1.009-0.661,2.587-1.839,4.735-3.531v2.246c-3.081,3.038-5.446,5.229-7.095,6.575
		c-1.649,1.346-2.995,2.018-4.036,2.018c-1.779,0-2.669-1.172-2.669-3.515c0-0.694,0.108-1.378,0.326-2.051
		c0.217-0.672,0.515-1.372,0.895-2.099c0.379-0.727,0.96-1.768,1.741-3.125c0.781-1.356,1.682-2.891,2.702-4.605
		c-1.237,0.629-2.789,1.877-4.654,3.743c-1.215,1.172-2.246,2.284-3.092,3.336c-0.846,1.053-1.752,2.225-2.717,3.515
		c-0.966,1.292-1.671,2.16-2.116,2.604c-0.445,0.445-0.895,0.667-1.351,0.667c-0.694,0-1.334-0.727-1.92-2.181
		c-0.585-1.454-0.878-3.146-0.878-5.078c0-1.193,0.135-2.126,0.407-2.799c0.271-0.672,0.808-1.627,1.611-2.864
		c1.497-2.3,2.788-3.987,3.873-5.061c1.085-1.075,2.126-1.611,3.125-1.611c0.694,0,1.253,0.12,1.676,0.358
		c0.423,0.239,0.635,0.608,0.635,1.107c0,0.217-0.065,0.445-0.195,0.683c-0.13,0.239-0.277,0.456-0.439,0.651
		c-0.163,0.195-0.504,0.575-1.025,1.139c-3.429,3.797-5.143,6.26-5.143,7.388c0,0.629,0.206,0.944,0.619,0.944
		c0.26,0,0.765-0.417,1.514-1.253c0.748-0.834,1.713-1.931,2.896-3.287s2.582-2.772,4.199-4.248
		c1.616-1.475,3.455-2.896,5.517-4.264c1.15-0.802,2.104-1.204,2.864-1.204c0.347,0,0.688,0.478,1.025,1.432
		c0.336,0.955,0.505,1.92,0.505,2.896C155.501,29.207,155.034,29.934,154.102,30.91z"/>
	<path fill="#2E3192" d="M162.922,36.801V29.12c-0.803,0.195-1.568,0.543-2.294,1.042c-0.728,0.5-1.497,1.118-2.312,1.855
		c-0.813,0.738-1.318,1.106-1.513,1.106c-0.239,0-0.358-0.314-0.358-0.944c0-0.629,0.645-1.741,1.937-3.336
		c1.291-1.595,2.718-3.07,4.28-4.426c1.562-1.356,2.69-2.035,3.385-2.035c0.412,0,0.77,0.239,1.074,0.716
		c0.304,0.478,0.456,1.128,0.456,1.953c0,0.542-0.011,1.042-0.033,1.497c-0.021,0.456-0.043,1.063-0.065,1.823
		c-0.022,0.76-0.054,1.855-0.098,3.288c4.795-5.121,7.638-7.682,8.527-7.682c0.261,0,0.472,0.104,0.635,0.31
		c0.163,0.207,0.245,0.461,0.245,0.765c0,0.716-0.582,1.818-1.742,3.303c-1.161,1.487-1.936,2.23-2.327,2.23
		c-0.542,0-0.966-0.086-1.269-0.26l-4.134,5.272c0.043,1.91,0.212,3.331,0.504,4.264c0.293,0.933,0.819,1.4,1.579,1.4
		c0.651,0,1.41-0.326,2.278-0.977c0.868-0.651,2.278-1.855,4.231-3.613v2.246c-4.449,6.141-7.595,9.211-9.438,9.211
		c-1.15,0-1.97-0.607-2.458-1.822c-0.488-1.215-0.809-3.081-0.96-5.599c-0.76,0.781-1.649,1.725-2.669,2.832
		c-1.021,1.106-1.764,1.894-2.229,2.36c-0.467,0.467-0.89,0.852-1.27,1.155c-0.38,0.304-0.722,0.456-1.025,0.456
		s-0.456-0.26-0.456-0.781c0-0.868,0.461-2.061,1.383-3.58c0.922-1.519,1.589-2.278,2.001-2.278c0.043,0,0.217,0.043,0.521,0.13
		L162.922,36.801z"/>
</g>
</svg>
