<svg xmlns="http://www.w3.org/2000/svg" width="559" height="86" viewBox="0 0 139.75 21.5"><path fill="#de1b25" d="M74.12205 5.531986c-.08.072-.16.145-.24.216l-.987.892.209 3.635c.002.129-.005.209-.017.317-.01.122-.321.713-.448.716-.107.003.05-.343.079-.436.014-.06.078-.215.048-.302-.023-.064-.58-2.157-.58-2.157-.036-.122-.066-.174-.127-.258l-.379-.42-.414.366c-.029.047.01.08.028.1.045.05.028.031.072.081.019.019.03.064.013.083-.264.274-.49.434-.822.595-.021.01-.044.006-.06-.012-.026-.028-.027-.037-.058-.064-.02-.018-.049-.008-.072.003-.019.01-.024.014-.059.03-.05.025-.178.097-.235.127l-.006.003v.001c-.077.044-.152.084-.221.118-.023.011-.036.035-.034.061l.118 1.145s.012.104.006.11c0 0-.206.186-.213.193-.041.036-.07-.053-.07-.053l-.38-.993c-.01-.025-.039-.037-.063-.025-.081.041-.137.029-.159.022h-.001.001c-.005-.023-.01-.08.038-.155.014-.023.005-.053-.019-.066l-.948-.48s-.085-.038-.045-.075c.007-.006.213-.192.213-.192.007-.006.109.018.109.018l1.127.234c.025.004.051-.005.064-.028.041-.065.088-.135.141-.207v-.001l.003-.005c.036-.054.122-.174.151-.221.02-.033.028-.048.04-.066.014-.021.023-.027.012-.053-.013-.036-.037-.043-.064-.072-.015-.017-.017-.041-.005-.06.191-.309.37-.515.661-.744.028-.024.073-.02.097.007.045.051.027.031.073.081.016.019.047.065.105.028l.397-.365-.379-.42c-.095-.059-2.269-.92-2.329-.949-.083-.04-.244.007-.305.015-.097.02-.456.141-.444.035.017-.127.638-.375.759-.373.109 0 .19 0 .318.015l3.595.581.987-.89c.08-.073.16-.145.241-.218.429-.387 1.148-.735 1.239-.637v.001c.089.101-.332.781-.761 1.168m1.441-1.923c-3.943-4.379-10.691-4.732-15.07-.789-3.684 3.317-4.519 8.618-2.344 12.825l9.995-6.089c.068-.041.137.05.079.103l-8.634 8.102.114.129c.03.034.061.066.091.099l9.018-7.685c.06-.051.143.029.094.091l-7.203 9.229c3.963 2.653 9.364 2.393 13.071-.944 4.379-3.944 4.733-10.691.789-15.071"/><path fill="#fff" d="m68.14405 9.555686-9.995 6.089c.385.746.865 1.457 1.441 2.116l8.633-8.101c.058-.055-.011-.145-.079-.104"/><path fill="#fff" d="m68.81195 10.303986-9.018 7.684c.583.632 1.224 1.177 1.909 1.636l7.203-9.23c.05-.062-.034-.141-.094-.09"/><path fill="#fff" d="M74.88315 4.363886c-.091-.099-.811.25-1.24.637-.079.072-.16.145-.239.217l-.989.89-3.594-.581c-.129-.015-.208-.015-.318-.015-.122-.002-.742.246-.758.373-.013.106.347-.015.443-.035.06-.007.222-.054.305-.015.061.029 2.234.891 2.33.949l.378.42-.397.366c-.058.036-.088-.01-.106-.029-.045-.05-.028-.03-.072-.081-.025-.026-.069-.03-.097-.008-.29.229-.471.436-.661.744-.013.02-.01.044.005.061.026.029.051.035.065.071.01.027.002.032-.013.055-.011.017-.02.032-.04.065-.03.047-.115.168-.151.222l-.004.005c-.052.072-.1.142-.14.208-.014.022-.038.032-.063.026l-1.128-.233s-.102-.024-.108-.018c0 0-.207.186-.214.193-.04.036.045.075.045.075l.949.479c.024.013.032.043.017.066-.047.075-.041.132-.038.155v.001c.023.006.08.018.159-.022.025-.013.054-.001.064.024l.38.993s.03.089.07.053c.006-.007.213-.193.213-.193.007-.006-.007-.11-.007-.11l-.116-1.145c-.003-.026.01-.05.033-.062.07-.032.144-.072.221-.117l.006-.003c.058-.03.185-.104.235-.128.035-.016.04-.019.059-.03.023-.012.052-.021.072-.003.03.027.032.036.059.064.014.018.038.023.059.013.332-.161.558-.322.821-.596.019-.019.006-.064-.011-.083-.046-.051-.027-.03-.073-.081-.018-.019-.056-.053-.027-.101l.414-.364.378.419c.06.084.092.136.126.258 0 0 .558 2.094.58 2.157.032.086-.033.243-.046.302-.03.093-.187.439-.081.437.128-.003.44-.594.45-.717.011-.108.019-.188.017-.317l-.211-3.635.989-.892c.079-.072.159-.143.239-.216.429-.387.85-1.067.762-1.168z"/><path fill="#231f20" d="M9.07495 4.880586c1.899 0 3.584.87 4.624 2.389l.063.091 2.462-1.641-.056-.092c-1.338-2.214-4.056-3.589-7.093-3.589-5.189 0-8.955 3.731-8.955 8.871 0 5.14 3.766 8.87 8.955 8.87 2.92 0 5.543-1.294 7.018-3.463l.06-.089-2.4-1.761-.065.095c-1.059 1.532-2.697 2.376-4.613 2.376-3.457 0-5.871-2.479-5.871-6.028 0-3.55 2.414-6.029 5.871-6.029"/><path fill="#231f20" d="M116.85165 4.880586c1.899 0 3.584.87 4.624 2.389l.063.091 2.462-1.641-.056-.092c-1.338-2.214-4.056-3.589-7.093-3.589-5.189 0-8.955 3.731-8.955 8.871 0 5.14 3.766 8.87 8.955 8.87 2.92 0 5.543-1.294 7.018-3.463l.06-.089-2.4-1.761-.065.095c-1.059 1.532-2.697 2.376-4.613 2.376-3.457 0-5.871-2.479-5.871-6.028 0-3.55 2.414-6.029 5.871-6.029"/><path fill="#231f20" d="M38.65715 12.353486h-5.319l2.66-6.864zm-.834-10.002h-3.553l-6.453 16.364.029-2.096-6.705.041v-14.309h-2.952v17.115h12.397l1.664-4.307h7.495l1.665 4.307h3.174l-6.732-17.044Z"/><path fill="#231f20" d="M102.40345 12.353486h-5.319l2.66-6.864zm-.834-10.002h-3.553l-6.453 16.364.029-2.096-6.705.041v-14.309h-2.952v17.115h12.397l1.664-4.307h7.495l1.665 4.307h3.174l-6.732-17.044Z"/><path fill="#231f20" d="m48.81505 9.815086-4.618-7.463h-3.528l6.658 10.135v6.979h2.952v-6.931l6.608-10.183h-3.441Z"/><path fill="#231f20" d="m131.55805 9.815086-4.618-7.463h-3.528l6.658 10.135v6.979h2.952v-6.931l6.608-10.183h-3.441Z"/></svg>