<?xml version="1.0" encoding="UTF-8" standalone="no"?>
<!-- Created with Inkscape (http://www.inkscape.org/) -->

<svg
   width="132.29161mm"
   height="74.437408mm"
   viewBox="0 0 132.29161 74.437408"
   version="1.1"
   id="svg1"
   inkscape:version="1.4 (86a8ad7, 2024-10-11)"
   sodipodi:docname="Clickair logo.svg"
   xmlns:inkscape="http://www.inkscape.org/namespaces/inkscape"
   xmlns:sodipodi="http://sodipodi.sourceforge.net/DTD/sodipodi-0.dtd"
   xmlns="http://www.w3.org/2000/svg"
   xmlns:svg="http://www.w3.org/2000/svg">
  <sodipodi:namedview
     id="namedview1"
     pagecolor="#ffffff"
     bordercolor="#000000"
     borderopacity="0.25"
     inkscape:showpageshadow="2"
     inkscape:pageopacity="0.0"
     inkscape:pagecheckerboard="0"
     inkscape:deskcolor="#d1d1d1"
     inkscape:document-units="mm"
     inkscape:zoom="0.69753788"
     inkscape:cx="-100.35297"
     inkscape:cy="217.19251"
     inkscape:window-width="1920"
     inkscape:window-height="1001"
     inkscape:window-x="-9"
     inkscape:window-y="-9"
     inkscape:window-maximized="1"
     inkscape:current-layer="layer1" />
  <defs
     id="defs1" />
  <g
     inkscape:label="Layer 1"
     inkscape:groupmode="layer"
     id="layer1"
     transform="translate(-131.4854,-91.01559)">
    <path
       id="path1"
       d="m 171.93988,135.07696 13.41143,-14.95853 c -6.78178,3.93237 -13.89912,6.67258 -21.24328,8.04794 -10.51867,1.96992 -21.49895,1.14036 -32.62263,-2.98919 1.1651,2.45295 5.00941,5.29582 10.81011,7.4977 5.26974,2.00026 12.13747,3.45378 20.06731,3.58959 3.1698,0.0544 6.3585,-0.37523 9.57706,-1.18751"
       style="fill:#0086b6;fill-opacity:1;fill-rule:nonzero;stroke:none;stroke-width:0.0233348" />
    <path
       id="path2"
       d="m 187.12593,119.05763 -14.10704,15.73464 c 10.75803,-2.99104 21.86352,-10.13196 33.74022,-17.76873 1.33452,-0.85802 2.71874,-1.74824 3.44516,-2.21307 0.0702,-0.045 0.1407,-0.0894 0.21141,-0.13441 l 4.84196,-5.05175 -17.27217,1.52679 c -0.64567,0.51967 -1.30068,1.04913 -1.96806,1.58887 -2.88651,2.33605 -5.85376,4.44691 -8.89148,6.31766"
       style="fill:#0495bb;fill-opacity:1;fill-rule:nonzero;stroke:none;stroke-width:0.0233348" />
    <path
       id="path3"
       d="m 232.88498,91.233699 c -5.03659,0.584536 -9.74601,2.360547 -14.86986,5.324764 -5.57631,3.225568 -11.65106,7.862427 -19.16767,13.899367 l 17.0561,-1.50743 16.98143,-17.716701"
       style="fill:#0495bb;fill-opacity:1;fill-rule:nonzero;stroke:none;stroke-width:0.0233348" />
    <path
       id="path4"
       d="m 227.15372,106.18873 c 2.58992,-1.0524 5.21999,-2.02336 7.85659,-2.90915 9.96792,-3.34924 20.03431,-5.495807 28.40613,-6.348927 0.11504,-0.01167 0.21818,-0.06697 0.28678,-0.144909 v 0.0012 c 0.0373,-0.04247 0.0628,-0.09171 0.0712,-0.141642 0.007,-0.04457 2.3e-4,-0.09427 -0.0259,-0.145376 -0.0548,-0.107107 -0.18598,-0.218414 -0.41933,-0.316186 -1.64183,-0.68791 -3.8101,-1.477793 -6.37996,-2.230339 -5.52241,0.732478 -10.91671,2.389249 -16.28628,4.781764 -4.49475,2.002355 -8.97829,4.524615 -13.50921,7.453595"
       style="fill:#018ab9;fill-opacity:1;fill-rule:nonzero;stroke:none;stroke-width:0.0233348" />
    <path
       id="path5"
       d="m 212.47823,113.40641 c 3.6519,-2.1776 7.57005,-4.15709 11.62143,-5.93007 5.47808,-3.71396 10.88008,-6.87722 16.31475,-9.298443 4.98081,-2.219371 9.98472,-3.81127 15.09527,-4.630088 -1.70693,-0.462028 -3.56392,-0.899555 -5.54177,-1.276179 -4.14917,-0.789882 -8.82872,-1.314915 -13.75516,-1.250745 -0.80762,0.01074 -1.60403,0.0497 -2.39112,0.117841 l -17.50366,18.261804 c -0.022,0.0758 -0.0691,0.11224 -0.12577,0.13114 l -3.71397,3.87474"
       style="fill:#4eb4cf;fill-opacity:1;fill-rule:nonzero;stroke:none;stroke-width:0.0233348" />
    <path
       id="path6"
       d="m 157.42028,153.87192 h 3.31144 v 11.31901 h -3.31144 z m 0,-4.36688 h 3.31144 v 3.31964 h -3.31144 z m 44.31136,4.36688 h 3.31167 v 11.31901 h -3.31167 z m 0,-4.36688 h 3.31167 v 3.31964 h -3.31167 z m -57.97551,3.79909 c 2.89743,0 4.82482,2.08975 5.26117,4.85329 h -2.84329 c -0.0304,-1.22354 -1.30593,-2.36183 -2.35026,-2.31061 -2.01855,0.0992 -2.66717,2.41132 -2.65414,3.84478 0.0116,1.29207 0.75684,3.32975 2.72252,3.32338 1.03428,-0.003 2.1159,-0.67087 2.33803,-2.09376 h 2.73738 c -0.51356,2.6166 -2.37915,4.53179 -5.21141,4.53179 -3.35666,0 -5.3558,-2.72889 -5.3558,-6.07433 0,-3.34563 2.04445,-6.07454 5.3558,-6.07454 z m 24.81281,0 c 2.89724,0 4.82446,2.08975 5.26106,4.85329 h -2.84335 c -0.0306,-1.22354 -1.30604,-2.36183 -2.35027,-2.31061 -2.01846,0.0992 -2.66717,2.41132 -2.6541,3.84478 0.0114,1.29207 0.75675,3.32975 2.72247,3.32338 1.03419,-0.003 2.116,-0.67087 2.33791,-2.09376 h 2.73741 c -0.51337,2.6166 -2.37922,4.53179 -5.21113,4.53179 -3.35694,0 -5.35604,-2.72889 -5.35604,-6.07433 0,-3.34563 2.0446,-6.07454 5.35604,-6.07454 z m 25.10402,0 c 3.58166,0 5.36934,1.94764 5.36934,4.82366 v 7.08848 h -3.21366 v -1.95793 c -0.95393,1.12317 -2.14657,2.19466 -3.72331,2.19466 -1.74567,0 -3.80146,-0.98098 -3.75899,-3.0924 0.0845,-4.20318 5.61505,-4.20318 7.4823,-4.20318 v -1.08754 c 0,-1.92603 -4.44248,-2.58286 -4.41915,0 h -2.7528 c -0.01,-2.24177 2.13886,-3.76575 5.01627,-3.76575 z m 2.15568,6.43074 v 1.97772 c 0,0.6429 -1.17748,1.67373 -2.38949,1.76351 -0.82931,0.0615 -1.84181,-0.48392 -1.84298,-1.23309 -0.002,-1.32161 0.86269,-2.09648 1.99862,-2.39055 0.78615,-0.20372 1.4764,-0.15704 2.23385,-0.11759 z m 16.40365,-6.43074 c 1.65117,-0.18147 3.25194,0.12716 4.81723,1.27366 0.83446,0.61135 -1.34828,1.84119 -1.81101,1.47822 -2.12277,-1.66452 -3.79727,-0.24957 -3.7905,1.01387 l 0.0434,8.12105 h -3.52915 v -8.12952 c 0,-2.01984 1.98882,-3.50677 4.27003,-3.75728 z m -36.42536,-3.75533 h 3.31167 v 8.95397 l 3.96457,-4.63057 h 3.32824 l -3.18473,3.64277 3.90182,7.67596 h -3.64093 l -2.45692,-5.16355 -1.91205,2.18791 v 2.97564 h -3.31167 z m -24.79149,-0.0437 h 3.31144 v 15.6859 h -3.31144 v -15.6859"
       style="fill:#0a82be;fill-opacity:1;fill-rule:evenodd;stroke:none;stroke-width:0.0233348" />
  </g>
</svg>
