<?xml version="1.0" encoding="UTF-8" standalone="no"?>
<!-- Created with Inkscape (http://www.inkscape.org/) -->
<svg
   xmlns:dc="http://purl.org/dc/elements/1.1/"
   xmlns:cc="http://creativecommons.org/ns#"
   xmlns:rdf="http://www.w3.org/1999/02/22-rdf-syntax-ns#"
   xmlns:svg="http://www.w3.org/2000/svg"
   xmlns="http://www.w3.org/2000/svg"
   xmlns:sodipodi="http://sodipodi.sourceforge.net/DTD/sodipodi-0.dtd"
   xmlns:inkscape="http://www.inkscape.org/namespaces/inkscape"
   width="205"
   height="25"
   id="svg2918"
   sodipodi:version="0.32"
   inkscape:version="0.46"
   version="1.0"
   sodipodi:docname="Cobham plc logo.svg"
   inkscape:output_extension="org.inkscape.output.svg.inkscape">
  <defs
     id="defs2920">
    <clipPath
       clipPathUnits="userSpaceOnUse"
       id="clipPath2658">
      <path
         d="M 392.161,753.541 L 552.707,753.541 L 552.707,770.442 L 392.161,770.442 L 392.161,753.541 z"
         id="path2660" />
    </clipPath>
    <clipPath
       clipPathUnits="userSpaceOnUse"
       id="clipPath2670">
      <path
         d="M 392.148,753.541 L 552.707,753.541 L 552.707,770.442 L 392.148,770.442 L 392.148,753.541 z"
         id="path2672" />
    </clipPath>
    <clipPath
       clipPathUnits="userSpaceOnUse"
       id="clipPath2690">
      <path
         d="M 392.161,753.541 L 552.707,753.541 L 552.707,770.442 L 392.161,770.442 L 392.161,753.541 z"
         id="path2692" />
    </clipPath>
    <inkscape:perspective
       sodipodi:type="inkscape:persp3d"
       inkscape:vp_x="0 : 526.18109 : 1"
       inkscape:vp_y="0 : 1000 : 0"
       inkscape:vp_z="744.09448 : 526.18109 : 1"
       inkscape:persp3d-origin="372.04724 : 350.78739 : 1"
       id="perspective2926" />
  </defs>
  <sodipodi:namedview
     id="base"
     pagecolor="#ffffff"
     bordercolor="#666666"
     borderopacity="1.0"
     gridtolerance="10000"
     guidetolerance="10"
     objecttolerance="10"
     inkscape:pageopacity="0.0"
     inkscape:pageshadow="2"
     inkscape:zoom="3.959798"
     inkscape:cx="100.80464"
     inkscape:cy="-20.024544"
     inkscape:document-units="px"
     inkscape:current-layer="layer1"
     showgrid="false"
     inkscape:window-width="1302"
     inkscape:window-height="838"
     inkscape:window-x="-8"
     inkscape:window-y="-8" />
  <metadata
     id="metadata2923">
    <rdf:RDF>
      <cc:Work
         rdf:about="">
        <dc:format>image/svg+xml</dc:format>
        <dc:type
           rdf:resource="http://purl.org/dc/dcmitype/StillImage" />
      </cc:Work>
    </rdf:RDF>
  </metadata>
  <g
     inkscape:label="Layer 1"
     inkscape:groupmode="layer"
     id="layer1"
     transform="translate(-274.65875,-521.7991)">
    <g
       clip-path="url(#clipPath2690)"
       id="g2688"
       transform="matrix(1.25,0,0,-1.25,-213.38375,1486.7885)">
      <g
         transform="translate(483.6282,762.2053)"
         id="g2694">
        <path
           id="path2696"
           style="fill:#009ee0;fill-opacity:1;fill-rule:nonzero;stroke:none"
           d="M 0,0 C 0.718,0 1.512,0.583 1.772,1.3 L 2.719,3.9 C 3.59,6.294 6.236,8.237 8.627,8.237 L 11.229,8.237 L 5.077,-8.664 L -1.857,-8.664 L 0.196,-3.033 L -8.037,-3.033 C -8.755,-3.033 -9.548,-3.614 -9.81,-4.332 L -11.388,-8.664 L -18.32,-8.664 L -13.747,3.9 C -12.876,6.294 -10.229,8.237 -7.835,8.237 L -5.237,8.237 L -8.234,0 L 0,0 z" />
      </g>
      <g
         transform="translate(541.6981,770.4425)"
         id="g2698">
        <g
           id="g2969">
          <g
             id="g2654"
             transform="translate(-541.6981,-770.4425)">
            <g
               clip-path="url(#clipPath2658)"
               id="g2656">
              <g
                 transform="translate(400.1863,756.5739)"
                 id="g2662">
                <path
                   id="path2664"
                   style="fill:#009ee0;fill-opacity:1;fill-rule:nonzero;stroke:none"
                   d="M 0,0 C -0.717,0 -1.087,0.581 -0.828,1.299 L 2.169,9.531 C 2.431,10.249 3.226,10.831 3.944,10.831 L 16.92,10.831 C 17.008,12.588 15.829,13.869 13.889,13.869 L 1.148,13.869 C -1.246,13.869 -3.891,11.925 -4.762,9.531 L -7.759,1.299 C -8.629,-1.094 -7.395,-3.033 -5.002,-3.033 L 7.738,-3.033 C 9.68,-3.033 11.785,-1.758 12.977,0 L 0,0 z" />
              </g>
            </g>
          </g>
          <g
             id="g2666"
             transform="translate(-541.6981,-770.4425)">
            <g
               clip-path="url(#clipPath2670)"
               id="g2668">
              <g
                 transform="translate(430.3013,756.5739)"
                 id="g2674">
                <path
                   id="path2676"
                   style="fill:#009ee0;fill-opacity:1;fill-rule:nonzero;stroke:none"
                   d="M 0,0 C 0.718,0 1.512,0.581 1.774,1.299 L 4.77,9.531 C 5.032,10.249 4.661,10.831 3.943,10.831 L -2.988,10.831 C -3.708,10.831 -4.502,10.249 -4.764,9.531 L -8.216,0.001 L 0,0 z M -11.936,-3.033 C -14.33,-3.033 -15.564,-1.094 -14.692,1.299 L -11.693,9.531 C -10.825,11.925 -8.178,13.869 -5.787,13.869 L 8.947,13.869 C 11.339,13.869 12.575,11.925 11.702,9.531 L 8.707,1.299 C 7.836,-1.094 5.188,-3.033 2.796,-3.033 L -11.936,-3.033 z" />
              </g>
              <g
                 transform="translate(509.7727,762.2053)"
                 id="g2678">
                <path
                   id="path2680"
                   style="fill:#009ee0;fill-opacity:1;fill-rule:nonzero;stroke:none"
                   d="M 0,0 C 0.718,0 1.513,0.583 1.773,1.3 L 2.719,3.9 C 2.98,4.617 2.611,5.199 1.892,5.199 L -5.039,5.199 C -5.758,5.199 -6.551,4.617 -6.813,3.9 L -8.233,0 L 0,0 z M -8.036,-3.033 C -8.755,-3.033 -9.547,-3.614 -9.81,-4.332 L -11.387,-8.664 L -18.319,-8.664 L -13.745,3.9 C -12.876,6.294 -10.228,8.237 -7.835,8.237 L 6.898,8.237 C 9.29,8.237 10.523,6.294 9.653,3.9 L 5.078,-8.664 L -1.852,-8.664 L 0.197,-3.033 L -8.036,-3.033 z" />
              </g>
              <g
                 transform="translate(447.9625,756.5739)"
                 id="g2682">
                <path
                   id="path2684"
                   style="fill:#009ee0;fill-opacity:1;fill-rule:nonzero;stroke:none"
                   d="M 0,0 L 0.947,2.599 C 1.207,3.316 2.002,3.899 2.719,3.899 L 9.654,3.899 C 10.371,3.899 10.741,3.316 10.48,2.599 L 10.005,1.299 C 9.746,0.581 8.953,0 8.235,0 L 0,0 z M 2.524,6.932 L 3.469,9.531 C 3.732,10.249 4.525,10.831 5.244,10.831 L 12.175,10.831 C 12.894,10.831 13.265,10.249 13.002,9.531 L 12.53,8.232 C 12.268,7.514 11.474,6.932 10.756,6.932 L 2.524,6.932 z M 19.823,9.225 L 19.938,9.531 C 20.807,11.925 19.572,13.869 17.181,13.869 L 2.446,13.869 C 0.054,13.869 -2.591,11.925 -3.462,9.531 L -8.037,-3.033 L 11.028,-3.033 C 13.422,-3.033 16.067,-1.094 16.94,1.299 L 17.047,1.595 C 17.648,3.244 17.25,4.678 16.159,5.411 C 17.781,6.142 19.224,7.577 19.823,9.225" />
              </g>
            </g>
          </g>
          <path
             d="M 0,0 C -1.181,0 -2.424,-0.473 -3.484,-1.24 C -3.986,-0.473 -4.884,0 -6.066,0 L -13.665,0 C -16.058,0 -18.706,-1.944 -19.576,-4.337 L -24.148,-16.901 L -17.215,-16.901 L -12.643,-4.337 C -12.382,-3.62 -11.589,-3.038 -10.869,-3.038 L -8.702,-3.038 C -7.986,-3.038 -7.616,-3.62 -7.877,-4.337 L -12.475,-16.901 L -5.542,-16.901 L -0.945,-4.337 C -0.682,-3.62 0.111,-3.038 0.83,-3.038 L 2.997,-3.038 C 3.714,-3.038 4.083,-3.62 3.823,-4.337 L -0.775,-16.901 L 6.157,-16.901 L 10.73,-4.337 C 11.6,-1.944 10.37,0 7.976,0 L 0,0 z"
             style="fill:#009ee0;fill-opacity:1;fill-rule:nonzero;stroke:none"
             id="path2700" />
        </g>
      </g>
    </g>
  </g>
</svg>
