<?xml version="1.0" encoding="UTF-8" standalone="no"?>
<svg
   xmlns:dc="http://purl.org/dc/elements/1.1/"
   xmlns:cc="http://creativecommons.org/ns#"
   xmlns:rdf="http://www.w3.org/1999/02/22-rdf-syntax-ns#"
   xmlns:svg="http://www.w3.org/2000/svg"
   xmlns="http://www.w3.org/2000/svg"
   width="500"
   height="170"
   viewBox="0 0 132.29166 44.979169"
   version="1.1"
   id="svg8">
  <defs
     id="defs2" />
  <metadata
     id="metadata5">
    <rdf:RDF>
      <cc:Work
         rdf:about="">
        <dc:format>image/svg+xml</dc:format>
        <dc:type
           rdf:resource="http://purl.org/dc/dcmitype/StillImage" />
        <dc:title></dc:title>
      </cc:Work>
    </rdf:RDF>
  </metadata>
  <g
     id="layer1">
    <path
       id="path886"
       style="font-style:normal;font-variant:normal;font-weight:normal;font-stretch:normal;font-size:20.0009px;line-height:1.25;font-family:'Frutiger Bold';-inkscape-font-specification:'Frutiger Bold, ';fill:#000000;stroke-width:0.657762"
       d="m 32.259241,13.488671 c -2.882458,0 -5.197314,0.856733 -6.943992,2.570267 -1.738076,1.71353 -2.606971,3.968316 -2.606971,6.764527 0,2.037485 0.455661,3.768513 1.367721,5.192192 0.912058,1.423682 2.207115,2.476274 3.884968,3.158277 1.393899,0.562653 2.938357,0.844291 4.633407,0.844291 0.757188,0 1.557778,-0.0645 2.400998,-0.192377 0.843229,-0.127876 1.500859,-0.264305 1.974094,-0.40923 l -0.15431,-3.248008 c -1.239035,0.5115 -2.534092,0.767473 -3.884967,0.767473 -1.849935,0 -3.346961,-0.575092 -4.491333,-1.725969 -1.144384,-1.150881 -1.717133,-2.668481 -1.717133,-4.552515 0,-1.159405 0.232826,-2.216389 0.697456,-3.171192 0.473252,-0.96333 1.156741,-1.701193 2.051588,-2.212697 0.894848,-0.520028 1.888779,-0.779711 2.981533,-0.779711 0.645322,0 1.359689,0.0807 2.142679,0.242681 0.7916,0.153451 1.471467,0.366876 2.03935,0.639677 l 0.296389,-3.120208 c -1.471343,-0.511505 -3.028062,-0.767478 -4.671477,-0.767478 z m 13.357757,4.462785 c -2.090847,0 -3.798469,0.665261 -5.12353,1.995165 -1.325078,1.329904 -1.98769,3.05586 -1.98769,5.178597 0,2.088633 0.662612,3.793992 1.98769,5.115372 1.325061,1.312857 3.02836,1.969334 5.110615,1.969334 1.221809,0 2.284727,-0.213424 3.188187,-0.639677 0.912053,-0.434776 1.647298,-0.971713 2.206578,-1.611086 0.567885,-0.639377 0.989734,-1.376563 1.265081,-2.212018 0.275333,-0.843978 0.413309,-1.671333 0.413309,-2.481213 0,-2.216506 -0.658312,-3.989405 -1.974775,-5.319309 -1.307861,-1.329904 -3.00321,-1.995165 -5.085465,-1.995165 z m 69.023912,0.115563 c -1.72947,0 -3.12302,0.447445 -4.18136,1.342572 -0.84321,0.716101 -1.26507,1.649152 -1.26507,2.80003 0,0.954804 0.25802,1.747714 0.77427,2.378567 0.51625,0.63085 1.47137,1.167786 2.86529,1.611086 l 1.53631,0.486046 c 0.31837,0.102304 0.55051,0.247513 0.69678,0.435062 0.14628,0.187551 0.21958,0.430354 0.21958,0.72873 0,0.460351 -0.15953,0.810206 -0.47789,1.048906 -0.44743,0.341001 -1.10143,0.511196 -1.96186,0.511196 -0.92067,0 -2.06483,-0.280958 -3.4329,-0.843612 l -0.21958,2.915593 c 1.41971,0.400679 2.81826,0.600932 4.19494,0.600932 1.09276,0 1.98321,-0.132719 2.67156,-0.396995 0.43022,-0.161976 0.8607,-0.412879 1.2909,-0.753878 0.43883,-0.341003 0.79965,-0.763462 1.08359,-1.266441 0.28394,-0.511501 0.42622,-1.146705 0.42622,-1.905435 0,-0.912175 -0.22784,-1.687522 -0.68386,-2.326898 -0.45603,-0.639379 -1.09278,-1.099998 -1.9102,-1.381323 l -2.47849,-0.856527 c -0.0431,-0.0084 -0.0862,-0.01723 -0.12916,-0.02582 -0.1807,-0.01706 -0.39129,-0.12781 -0.6322,-0.332415 -0.23233,-0.204601 -0.34873,-0.4474 -0.34873,-0.728728 0,-0.366576 0.19833,-0.698866 0.59413,-0.997242 0.39579,-0.306899 1.01099,-0.460895 1.84561,-0.460895 0.86903,0 1.8414,0.204643 2.91696,0.613845 l 0.24472,-2.672228 c -1.31621,-0.349411 -2.5298,-0.524115 -3.63957,-0.524115 z m 11.74531,0 c -1.72948,0 -3.1237,0.447445 -4.18203,1.342572 -0.84322,0.716101 -1.26441,1.649152 -1.26441,2.80003 0,0.954804 0.25803,1.747714 0.77429,2.378567 0.51626,0.63085 1.47138,1.167786 2.86528,1.611086 l 1.53563,0.486046 c 0.31837,0.102304 0.55051,0.247513 0.69678,0.435062 0.14627,0.187551 0.21957,0.430354 0.21957,0.72873 0,0.460351 -0.15884,0.810206 -0.4772,1.048906 -0.44743,0.341001 -1.10143,0.511196 -1.96187,0.511196 -0.92066,0 -2.06481,-0.280958 -3.4329,-0.843612 l -0.21958,2.915593 c 1.41971,0.400679 2.81759,0.600932 4.19427,0.600932 1.09276,0 1.98321,-0.132719 2.67156,-0.396995 0.43022,-0.161976 0.86069,-0.412879 1.29091,-0.753878 0.43881,-0.341003 0.80031,-0.763462 1.08425,-1.266441 0.28395,-0.511501 0.42555,-1.146705 0.42555,-1.905435 0,-0.912175 -0.22784,-1.687522 -0.68386,-2.326898 -0.45604,-0.639379 -1.09279,-1.099998 -1.9102,-1.381323 l -2.47781,-0.856527 c -0.0432,-0.0084 -0.0862,-0.01723 -0.12916,-0.02582 -0.1807,-0.01706 -0.39195,-0.12781 -0.63287,-0.332415 -0.23231,-0.204601 -0.34805,-0.4474 -0.34805,-0.728728 0,-0.366576 0.19765,-0.698866 0.59345,-0.997242 0.39579,-0.306899 1.01098,-0.460895 1.84562,-0.460895 0.86903,0 1.8414,0.204643 2.91695,0.613845 l 0.24539,-2.672228 c -1.31645,-0.349529 -2.52959,-0.524115 -3.63956,-0.524115 z m -25.79984,0.01223 c -0.894852,4e-6 -1.802556,0.09827 -2.72322,0.294348 -0.920666,0.196078 -1.609157,0.409501 -2.065186,0.639677 l 0.09041,3.030477 c 0.533463,-0.426252 1.183149,-0.784207 1.948942,-1.074059 0.76578,-0.289849 1.522579,-0.435062 2.271154,-0.435062 1.03252,0 1.79862,0.234699 2.29768,0.703578 0.49905,0.460351 0.74844,1.112439 0.74844,1.956418 0,0.08526 -0.004,0.208509 -0.0129,0.370481 -0.68834,-0.05967 -1.30353,-0.08906 -1.84561,-0.08906 -2.168295,0 -3.790355,0.294133 -4.865893,0.882361 -1.40251,0.775778 -2.103931,1.926642 -2.103931,3.452623 0,0.843979 0.193341,1.593659 0.580536,2.250087 0.395795,0.647902 0.955617,1.146676 1.678384,1.496203 0.72277,0.349528 1.509748,0.524796 2.361572,0.524796 0.980897,0 1.867042,-0.213429 2.658632,-0.639676 0.80021,-0.434778 1.35072,-0.967321 1.65188,-1.598174 l 0.0904,1.994486 h 3.12359 l -0.0639,-0.843612 -0.0517,-2.071981 -0.0387,-1.969337 v -1.994487 c 0,-1.406627 -0.0603,-2.472393 -0.18082,-3.197021 -0.12047,-0.733156 -0.3526,-1.325811 -0.69678,-1.777638 -0.49905,-0.639378 -1.14874,-1.116876 -1.94894,-1.432303 -0.7916,-0.315427 -1.75965,-0.473132 -2.90403,-0.473132 z m -29.323851,0.02582 c -0.679733,0 -1.342356,0.123943 -1.987685,0.371164 -0.645325,0.247227 -1.182913,0.575124 -1.61313,0.984329 -0.301153,0.281325 -0.555528,0.639279 -0.762036,1.074056 C 66.56411,19.801466 66.13863,19.247647 65.622361,18.872547 64.942627,18.38662 64.099592,18.14314 63.092887,18.14314 c -0.903459,0 -1.729917,0.200932 -2.478495,0.601606 -0.748578,0.392155 -1.346527,0.94597 -1.793947,1.662072 l -0.09041,-2.059065 h -3.368328 c 0.03421,0.341002 0.05582,0.707738 0.06458,1.099893 l 0.05167,2.237846 v 10.153256 h 3.549155 V 25.07422 c 0,-1.381058 0.270952,-2.395493 0.813019,-3.043394 0.542077,-0.656427 1.152955,-0.984325 1.832699,-0.984325 0.585092,0 1.071624,0.221526 1.458814,0.664827 0.387205,0.443303 0.580538,1.121056 0.580538,2.033234 v 8.094189 h 3.549153 v -7.096957 c 0,-0.588229 0.103473,-1.193374 0.309979,-1.815701 0.206512,-0.630853 0.52489,-1.099575 0.955097,-1.406475 0.43022,-0.315425 0.877266,-0.473127 1.341894,-0.473127 0.404402,0 0.774513,0.114472 1.110089,0.344648 0.344169,0.221651 0.584933,0.541451 0.722611,0.959176 0.137667,0.409201 0.206653,1.095736 0.206653,2.059063 v 7.429362 h 3.54915 v -7.787605 c 0,-1.023004 -0.04742,-1.798351 -0.142072,-2.326903 C 75.177061,20.92288 74.992344,20.325833 74.760032,19.933681 74.441664,19.396604 73.981689,18.957265 73.379389,18.61626 72.777083,18.275261 72.07135,18.105062 71.262543,18.105062 Z m 15.487521,0 c -0.946475,0 -1.789502,0.209036 -2.529476,0.626761 -0.731364,0.409205 -1.329313,0.979905 -1.793952,1.713058 l -0.06458,-2.097135 h -3.419993 l 0.02517,0.371165 0.03876,0.933342 0.05166,2.634164 v 15.102081 h 3.524002 v -7.403527 c 0.395803,0.622326 0.933381,1.11671 1.613124,1.48329 0.679745,0.366575 1.483965,0.549942 2.413236,0.549942 1.204602,0 2.245967,-0.29042 3.123608,-0.870123 0.877641,-0.588229 1.531636,-1.427397 1.961854,-2.518601 0.43022,-1.091202 0.645116,-2.335945 0.645116,-3.734053 0,-2.327332 -0.597948,-4.100909 -1.793952,-5.31999 -0.972293,-0.980378 -2.237167,-1.470374 -3.794552,-1.470374 z m -41.120136,2.480534 c 1.092747,0 1.927829,0.469398 2.504324,1.407155 0.576488,0.937752 0.864688,1.985956 0.864688,3.14536 0,1.278754 -0.30113,2.332025 -0.903436,3.158957 -0.602307,0.826927 -1.446013,1.239925 -2.530156,1.239925 -0.929267,0 -1.716245,-0.379231 -2.361572,-1.137957 -0.645329,-0.758731 -0.968008,-1.875827 -0.968008,-3.350659 -4e-6,-0.733153 0.120036,-1.432181 0.360962,-2.097133 0.17209,-0.460351 0.40491,-0.87335 0.697459,-1.239926 0.29255,-0.366576 0.632483,-0.643825 1.019677,-0.831376 0.387184,-0.196077 0.825606,-0.294346 1.316062,-0.294346 z m 40.216704,0.396993 c 0.800194,0 1.436951,0.289741 1.910194,0.869446 0.610909,0.750202 0.916347,1.807183 0.916347,3.171192 0,1.38958 -0.305438,2.450955 -0.916347,3.184106 -0.610912,0.724628 -1.316644,1.086976 -2.116847,1.086976 -0.826017,0 -1.544007,-0.349853 -2.154918,-1.048906 -0.602306,-0.707578 -0.903432,-1.730116 -0.903432,-3.068546 0,-1.355479 0.314057,-2.391869 0.942181,-3.107971 0.636712,-0.724628 1.410749,-1.086297 2.322822,-1.086297 z M 102.277,25.637081 c 0.15487,0 0.45171,0.01688 0.89051,0.05099 0,0.920704 -0.12071,1.649788 -0.36164,2.186866 -0.24091,0.537076 -0.63691,0.975739 -1.18758,1.316741 -0.54209,0.332474 -1.10122,0.49896 -1.677709,0.49896 -0.653925,0 -1.165646,-0.166486 -1.535632,-0.49896 -0.369987,-0.332478 -0.555386,-0.754259 -0.555386,-1.265758 0,-0.477402 0.163844,-0.899178 0.490805,-1.265759 0.326972,-0.375099 0.847308,-0.639858 1.561465,-0.793309 0.722757,-0.153447 1.514727,-0.229765 2.375167,-0.229765 z" />
    <path
       id="path869"
       style="font-style:normal;font-variant:normal;font-weight:normal;font-stretch:normal;font-size:9.51474px;line-height:1.25;font-family:'Frutiger Bold';-inkscape-font-specification:'Frutiger Bold, ';fill:#f20018;fill-opacity:1;stroke-width:0.312907"
       d="m 97.313906,34.17586 a 0.96685329,0.96685329 0 0 0 -0.960534,0.966655 0.96685329,0.96685329 0 0 0 0.966652,0.966652 0.96685329,0.96685329 0 0 0 0.966651,-0.966652 0.96685329,0.96685329 0 0 0 -0.966651,-0.966655 0.96685329,0.96685329 0 0 0 -0.0061,0 z m 11.831634,0 a 0.96685329,0.96685329 0 0 0 -0.96053,0.966655 0.96685329,0.96685329 0 0 0 0.96666,0.966652 0.96685329,0.96685329 0 0 0 0.96733,-0.966652 0.96685329,0.96685329 0 0 0 -0.96733,-0.966655 0.96685329,0.96685329 0 0 0 -0.006,0 z m -4.29895,0.258318 v 9.387137 h 1.68043 v -9.387137 z m -14.771706,0.696099 -3.415913,8.691038 h 1.82726 l 0.739604,-1.986328 h 3.58722 l 0.727368,1.986328 h 1.943505 l -3.434949,-8.691038 z m 0.94762,1.736169 1.258962,3.562749 h -2.524041 z m 31.174216,0.305221 c -0.59485,0 -1.13849,0.134891 -1.63148,0.403794 -0.49299,0.26483 -0.86973,0.659956 -1.13048,1.185543 -0.25669,0.525586 -0.38544,1.130538 -0.38544,1.815022 0,0.692636 0.13422,1.30372 0.40311,1.833379 0.2689,0.52966 0.65654,0.922744 1.16175,1.179424 0.50929,0.252606 1.10607,0.37864 1.79055,0.37864 0.4604,0 0.90867,-0.05654 1.34462,-0.170625 0.44002,-0.114076 0.73296,-0.226485 0.87964,-0.336494 l -0.0183,-1.375203 c -0.37483,0.211865 -0.72909,0.367189 -1.06318,0.464974 -0.3341,0.09371 -0.672,0.140034 -1.01424,0.140034 -0.37891,0 -0.69909,-0.06268 -0.95986,-0.188981 -0.26074,-0.126297 -0.47465,-0.315691 -0.64171,-0.568298 -0.16301,-0.256684 -0.25021,-0.529863 -0.2624,-0.819139 h 4.36354 c 0.0123,-0.15075 0.0183,-0.265202 0.0183,-0.342612 0,-0.684484 -0.0919,-1.297611 -0.27532,-1.839497 -0.17927,-0.541882 -0.49469,-0.969707 -0.94694,-1.283431 -0.45224,-0.317794 -0.99656,-0.47653 -1.63216,-0.47653 z m 6.41104,0.06729 c -0.81893,0 -1.47906,0.213914 -1.98021,0.641716 -0.39927,0.342243 -0.59889,0.788464 -0.59889,1.338497 0,0.456321 0.12263,0.835099 0.36709,1.136598 0.24445,0.301497 0.69613,0.55833 1.35617,0.770196 l 0.72736,0.232485 c 0.15074,0.0489 0.2611,0.117694 0.33038,0.207334 0.0693,0.08964 0.10401,0.206127 0.10401,0.34873 0,0.220014 -0.0756,0.38692 -0.22638,0.501001 -0.21186,0.16297 -0.52183,0.244721 -0.92927,0.244721 -0.43595,0 -0.97754,-0.134887 -1.62536,-0.403791 l -0.104,1.393559 c 0.67226,0.191491 1.33444,0.286866 1.98633,0.286866 0.51743,0 0.93913,-0.06267 1.26508,-0.188979 0.20372,-0.07741 0.40741,-0.197992 0.61113,-0.360964 0.20778,-0.162974 0.37878,-0.364622 0.51323,-0.60501 0.13447,-0.244456 0.20189,-0.547613 0.20189,-0.91023 0,-0.435952 -0.10826,-0.806552 -0.32425,-1.112125 -0.21594,-0.305574 -0.51706,-0.525618 -0.90411,-0.660072 l -1.1733,-0.409909 c -0.0204,-0.0041 -0.0408,-0.0081 -0.0612,-0.01223 -0.0855,-0.0081 -0.1857,-0.06129 -0.29979,-0.159068 -0.11,-0.09778 -0.16518,-0.213598 -0.16518,-0.348051 0,-0.175192 0.0941,-0.333925 0.28142,-0.476527 0.18742,-0.146676 0.479,-0.220249 0.87421,-0.220249 0.41151,0 0.87136,0.09809 1.38065,0.293667 l 0.11628,-1.277315 c -0.62337,-0.167049 -1.19767,-0.250843 -1.72324,-0.250843 z m -13.17013,0.0306 c -0.92895,0 -1.62382,0.362428 -2.08422,1.087654 l -0.0429,-0.983647 h -1.59477 c 0.0366,0.403358 0.055,0.827098 0.055,1.271198 v 5.176554 h 1.68042 v -3.05631 c 0,-0.550028 0.0552,-0.967639 0.16519,-1.252842 0.11002,-0.285201 0.28509,-0.504567 0.52548,-0.65939 0.24038,-0.154822 0.49722,-0.232486 0.77018,-0.232486 0.43597,0 0.7473,0.183259 0.93472,0.549945 0.12223,0.244461 0.18353,0.717247 0.18353,1.418031 v 3.233052 h 1.66819 v -3.044071 c -0.004,-0.786342 -0.0143,-1.270715 -0.0306,-1.45406 -0.0407,-0.387059 -0.10545,-0.68681 -0.1951,-0.898676 -0.0896,-0.21186 -0.22452,-0.405337 -0.40378,-0.580536 -0.17928,-0.179266 -0.40953,-0.319605 -0.69066,-0.421461 -0.27705,-0.101857 -0.59044,-0.152955 -0.94082,-0.152955 z m -12.14367,0.04895 c -0.43595,0 -0.82493,0.152602 -1.16719,0.458176 -0.34223,0.301498 -0.56841,0.712976 -0.67842,1.234486 l -0.0306,-1.637601 h -1.533583 l 0.01227,0.177426 0.04215,1.778313 v 4.492013 h 1.681103 v -2.652517 c 0,-0.427801 0.0266,-0.766383 0.0796,-1.014919 0.053,-0.248531 0.14426,-0.469939 0.27463,-0.665509 0.13038,-0.199637 0.29729,-0.359051 0.501,-0.477206 0.2078,-0.118156 0.46259,-0.176744 0.76408,-0.176744 0.21594,0 0.38693,0.03407 0.51324,0.10333 v -1.576417 c -0.14668,-0.02851 -0.29928,-0.04283 -0.45817,-0.04283 z m -6.814148,0.05506 v 6.447751 h 1.680424 v -6.447751 z m 11.831638,0 v 6.447751 h 1.68111 v -6.447751 z m 13.76902,0.983647 c 0.41151,0 0.74192,0.132844 0.99046,0.397674 0.2485,0.264831 0.38476,0.664047 0.40922,1.19778 h -2.82314 c 0.0449,-0.513362 0.2199,-0.928926 0.52548,-1.246722 0.21593,-0.232237 0.515,-0.348732 0.89798,-0.348732 z" />
    <path
       id="path941"
       style="color:#000000;font-style:normal;font-variant:normal;font-weight:normal;font-stretch:normal;font-size:medium;line-height:normal;font-family:sans-serif;font-variant-ligatures:normal;font-variant-position:normal;font-variant-caps:normal;font-variant-numeric:normal;font-variant-alternates:normal;font-variant-east-asian:normal;font-feature-settings:normal;font-variation-settings:normal;text-indent:0;text-align:start;text-decoration:none;text-decoration-line:none;text-decoration-style:solid;text-decoration-color:#000000;letter-spacing:normal;word-spacing:normal;text-transform:none;writing-mode:lr-tb;direction:ltr;text-orientation:mixed;dominant-baseline:auto;baseline-shift:baseline;text-anchor:start;white-space:normal;shape-padding:0;shape-margin:0;inline-size:0;clip-rule:nonzero;display:inline;overflow:visible;visibility:visible;opacity:1;isolation:auto;mix-blend-mode:normal;color-interpolation:sRGB;color-interpolation-filters:linearRGB;solid-color:#000000;solid-opacity:1;vector-effect:none;fill:#949494;fill-opacity:1;fill-rule:nonzero;stroke:none;stroke-width:1.31546;stroke-linecap:butt;stroke-linejoin:miter;stroke-miterlimit:4;stroke-dasharray:none;stroke-dashoffset:0;stroke-opacity:1;color-rendering:auto;image-rendering:auto;shape-rendering:auto;text-rendering:auto;enable-background:accumulate;stop-color:#000000;stop-opacity:1"
       d="m 22.912892,1.024152 c -11.836033,0 -21.4641804,9.627472 -21.4641804,21.463502 0,11.836029 9.6281474,21.461461 21.4641804,21.461461 5.982392,0 11.397752,-2.46146 15.293778,-6.421919 h -4.620491 c -3.010517,2.137773 -6.690495,3.397562 -10.673287,3.397562 -10.200887,0 -18.4398223,-8.23621 -18.4398223,-18.437104 0,-10.200894 8.2389353,-18.4391404 18.4398223,-18.4391439 4.209473,0 8.082122,1.4052599 11.181767,3.7700853 h 4.46618 C 34.642412,3.6411914 29.079444,1.024152 22.912892,1.024152 Z" />
    <path
       style="opacity:1;fill:#f20018;fill-opacity:1;stroke:none;stroke-width:2.3;stroke-miterlimit:4;stroke-dasharray:none"
       id="path950"
       d="m 129.36235,60.47619 -9.00371,-4.629088 8.51077,-5.482894 z"
       transform="matrix(1.0271383,0.65864128,-0.65864128,1.0271383,-77.431421,-126.15346)" />
  </g>
</svg>
