<?xml version="1.0" encoding="utf-8"?>
<!-- Generator: Adobe Illustrator 16.0.3, SVG Export Plug-In . SVG Version: 6.00 Build 0)  -->
<!DOCTYPE svg PUBLIC "-//W3C//DTD SVG 1.1//EN" "http://www.w3.org/Graphics/SVG/1.1/DTD/svg11.dtd">
<svg version="1.1" id="Ebene_2" xmlns="http://www.w3.org/2000/svg" xmlns:xlink="http://www.w3.org/1999/xlink" x="0px" y="0px"
	 width="350.249px" height="123.987px" viewBox="0 0 350.249 123.987" enable-background="new 0 0 350.249 123.987"
	 xml:space="preserve">
<path fill="#D5A940" d="M37.141,51.487h71.353C105.292,26.444,83.916,7.085,58.004,7.085c-18.301,0-34.34,9.656-43.312,24.15
	l18.694,18.695C34.347,50.893,35.674,51.487,37.141,51.487z"/>
<path fill="#D5A940" d="M26.611,65.535L8.251,47.173c-0.757,3.493-1.167,7.115-1.167,10.833c0,28.123,22.797,50.92,50.92,50.92
	c25.02,0,45.809-18.049,50.097-41.835H30.364C28.899,67.091,27.571,66.496,26.611,65.535z"/>
<path fill="#D5A940" d="M336.58,62.489c-5.875,0-3.451-2.774-8.674-2.774s-58.164,0-58.164,0l-3.277-5.063h-8.243H108.807h-4.242
	H35.856c-1.198,0-2.324-0.467-3.17-1.317l-19.492-19.49c-0.271,0.505-0.539,1.013-0.796,1.527l19.124,19.124
	c1.157,1.158,2.698,1.799,4.334,1.799h68.708h4.327h150.067l1.096,2.436H104.032l-69.894-0.173
	c-1.198-0.002-2.322-0.473-3.168-1.324L11.366,37.533c-0.238,0.541-0.468,1.087-0.688,1.638l19.126,19.221
	c1.155,1.163,2.694,1.805,4.33,1.808l74.704,0.065c0-0.001,0-0.003,0-0.005h151.906l1.041,2.315h-153.07h-4.956H33.034
	c-1.199,0-2.326-0.468-3.172-1.317L9.908,41.304c-0.202,0.579-0.397,1.159-0.579,1.747L28.7,62.418
	c1.157,1.159,2.696,1.799,4.334,1.799h70.724h4.77h153.994l1.382,3.075c0,0,75.355,0,76.75,0c1.396,0,2.51-1.224,2.51-2.184
	S339.652,62.489,336.58,62.489z"/>
<g>
	<path d="M135.988,87.814c0.289-3.501-1.553-5.509-5.008-5.509c-3.875,0-6.792,3.314-7.934,9.804
		c-0.83,4.716-0.583,9.151,5.02,9.151c3.548,0,5.664-2.475,6.652-5.696h10.597c-2.508,8.685-9.637,13.913-18.508,13.913
		c-11.112,0-16.636-6.816-14.713-17.741c1.913-10.878,10.481-17.649,19.865-17.649c10.271,0,15.12,5.089,14.487,13.727H135.988z"/>
	<path d="M161.324,83.426c8.637,0,13.064,5.088,11.726,12.699c-1.577,8.964-8.386,13.167-16.229,13.167s-13.157-4.297-11.687-12.653
		C146.627,88.141,153.06,83.426,161.324,83.426z M154.934,96.125c-0.813,4.622,0.562,6.63,3.036,6.63
		c2.615,0,4.555-2.008,5.369-6.63c0.632-3.596-0.479-6.303-3.025-6.164C156.999,89.961,155.418,93.371,154.934,96.125z"/>
	<path d="M176.051,84.125h8.871l-0.673,3.828c2.711-2.941,5.371-4.528,9.06-4.528c6.443,0,8.813,3.781,7.63,10.504l-2.579,14.661
		h-9.711l2.274-12.933c0.427-2.428,0.151-4.576-2.603-4.576c-2.988,0-4.119,1.914-4.669,5.043l-2.192,12.466h-9.712L176.051,84.125z
		"/>
	<path d="M216.012,108.591c-12.869,0.701-14.254-0.188-12.767-8.638l1.799-10.225h-3.455l0.985-5.603h3.595l1.338-7.61h9.572
		l-1.339,7.61h4.669l-0.985,5.603h-4.669l-1.56,8.871c-0.395,2.241-0.208,3.034,2.501,3.034h1.541L216.012,108.591z"/>
	<path d="M218.208,108.591l4.303-24.465h9.712l-4.303,24.465H218.208z M224.278,74.087h9.711l-1.216,6.91h-9.71L224.278,74.087z"/>
	<path d="M230.677,100.887l1.495-8.497h12.513l-1.495,8.497H230.677z"/>
	<path d="M243.795,108.591l5.914-33.615h26.145l-1.38,7.843h-15.126l-1.077,6.115h12.046l-1.38,7.844h-12.046l-2.078,11.813H243.795
		z"/>
	<path d="M271.346,108.591l5.914-33.615h9.71l-5.912,33.615H271.346z"/>
	<path d="M309.819,108.591h-9.011l0.632-3.596c-3.019,3.361-5.564,4.297-9.579,4.297c-5.322,0-8.202-3.27-6.972-10.272l2.621-14.894
		h9.711l-2.324,13.213c-0.591,3.361,0.388,4.436,2.722,4.436c2.802,0,4.059-2.102,4.723-5.883l2.07-11.766h9.711L309.819,108.591z"
		/>
	<path d="M321.459,109.851c-0.049,0.281,0.063,0.701,0.418,1.074c0.354,0.374,1.014,0.607,1.994,0.607
		c2.801,0,4.144-1.26,4.76-4.762l0.354-2.008c-1.647,1.4-3.97,2.66-7.472,2.66c-6.771,0-9.709-5.322-8.608-11.578
		c1.06-6.022,5.079-12.419,13.11-12.419c2.941,0,5.424,1.54,6.733,3.922l0.566-3.222h8.544l-3.466,19.704
		c-1.29,7.33-3.141,13.073-15.186,13.073c-8.638,0-11.671-3.456-11.506-7.052H321.459z M322.599,95.938
		c-0.427,2.429,0.385,4.716,2.991,4.763c2.964,0.141,4.536-2.428,4.995-5.042c0.477-2.709-0.098-5.275-3.18-5.275
		C324.471,90.336,323.158,92.764,322.599,95.938z"/>
</g>
</svg>
