<svg enable-background="new -0.6728516 0 311 60" height="125.166556" viewBox="-.6728516 0 300 47.051758" width="798.935462" xmlns="http://www.w3.org/2000/svg"><g fill="#900"><path d="m107.41895 37.966309c-2.93604 3.656738-6.31543 5.98291-11.246103 5.98291-5.872555 0-8.476559-4.154785-8.476559-9.584473 0-9.417969 6.315918-23.434082 15.899902-23.434082 5.4292 0 7.81153 4.598633 7.8667 9.418457h.99707l2.77002-11.6342772h-.99707c-.72021.775391-1.60693 1.4404302-2.71435 1.4404302-.88672 0-1.60694-.2216802-2.4375-.4985362-1.82862-.498535-3.65674-.941894-5.59571-.941894-11.689453 0-24.541992 9.8056642-24.541992 23.8217772 0 8.975098 5.98291 14.515137 14.847168 14.515137 7.035644 0 11.356934-3.324219 15.013184-9.085449z"/><path clip-rule="evenodd" d="m138.22608 28.825196c0-4.598145-3.26807-7.645508-7.81104-7.645508-9.08545 0-16.8418 9.417969-16.8418 18.171875 0 4.65332 3.15821 7.644531 7.75635 7.644531 9.02979 0 16.89649-9.473144 16.89649-18.170898zm-6.64747-3.157715c0 4.930175-3.93359 19.833496-8.75341 19.833496-1.55127 0-2.60352-1.385742-2.60352-3.601563 0-3.324218 3.76709-19.223632 8.97461-19.223632 1.77295-.000001 2.38232 1.662109 2.38232 2.991699z" fill-rule="evenodd"/><path d="m153.18848 21.179688h-.99707l-8.86377 1.606933-.27686.997071h.5542c1.05225 0 2.32666.387695 2.32666 1.662109 0 .941895-.11084 1.44043-.33252 2.271485l-4.59814 18.503417h6.53711c2.60351-11.744628 7.09082-18.725097 8.86426-18.725097 1.16308 0 .9414 2.32666 2.82519 2.32666 2.21582 0 3.10254-3.76709 3.10254-5.484375 0-1.662109-.7207-3.158203-2.54883-3.158203-2.54883 0-5.09668 2.216308-10.58105 15.179687l-.11084-.110351z"/><path clip-rule="evenodd" d="m181.71387 39.29541c-2.27246 2.160645-4.93067 4.155762-8.19922 4.155762-2.77051 0-4.32129-1.883789-4.32129-4.598633 0-.941894.11035-1.8833.22168-2.770019 11.85547-.720215 15.7334-7.589844 15.7334-11.135742 0-2.658692-2.21582-3.76709-4.59766-3.76709-9.58496 0-18.55957 9.141113-18.55957 18.669922 0 1.717773.77539 7.146484 8.03321 7.146484 5.42871 0 9.25195-2.880859 12.51953-6.980469zm-12.02246-4.598144c.61035-2.991211 4.4873-11.744629 7.81152-11.744629 1.05274 0 1.44043.720215 1.44043 1.717285 0 4.820313-4.54297 10.027344-9.25195 10.027344z" fill-rule="evenodd"/><path d="m200.0459 21.179688h-.99707l-9.69531 1.606933-.27637.997071h.55371c1.05274 0 2.32715.387695 2.32715 1.662109 0 .775879-.55469 2.54834-.77637 3.323731l-5.26269 17.451171h6.7041l2.21582-7.368164c.83008-2.825195 6.9248-12.630859 9.86133-12.630859.49804 0 .83007.276367.83007.719727 0 .554199-.38769 1.772949-.55371 2.271484l-2.99121 10.249023c-.333 1.163086-.83105 2.825196-.83105 4.043946 0 1.995117 1.71777 3.047851 3.5459 3.047851 3.82129 0 6.64746-3.71289 8.41992-6.704101l-1.05274-.609375c-.71972.886718-2.16015 3.545898-3.32324 3.545898-.33301 0-.55469-.333008-.55469-.665039 0-.553711.44336-2.105469.60938-2.603516l3.04785-10.249023c.3877-1.21875.88574-2.880859.88574-4.210449 0-2.160645-1.27343-3.878418-3.5459-3.878418-5.15136 0-10.19335 8.088867-12.63085 11.911621l-.11036-.111328z"/><path clip-rule="evenodd" d="m224.19531 39.29541c0-4.375976 4.04493-16.619628 8.03321-16.619628 1.66211 0 2.10547 1.938964 2.10547 3.213378 0 4.598145-5.31836 16.010254-8.58692 16.010254-1.21875 0-1.55176-1.661621-1.55176-2.604004zm22.04981-30.5805662h-.99805l-9.69433 1.6069342-.27735.99707h.55469c1.05273 0 2.32617.387695 2.32617 1.662109 0 .775391-.55371 2.54834-.77539 3.323731l-1.99414 6.814453c-.99707-1.163574-1.99414-1.939453-3.71191-1.939453-6.98047 0-14.51465 10.637207-14.51465 19.223633 0 2.992187 1.21875 6.592773 4.76367 6.592773 4.37695 0 7.64551-6.09375 9.47363-9.417969l.11035.111328c-.99609 2.54834-1.49511 4.763672-1.49511 6.204102 0 1.939453 1.38476 3.102539 3.26855 3.102539 4.04395 0 6.64746-3.43457 8.47656-6.703125l-.94238-.498535c-.55371.88623-2.32715 3.32373-3.43457 3.32373-.49805 0-.77539-.332031-.77539-.77539 0-.831055.44336-1.939453.66504-2.77002z" fill-rule="evenodd"/><path clip-rule="evenodd" d="m269.73926 28.825196c0-4.598145-3.26953-7.645508-7.81152-7.645508-9.08594 0-16.8418 9.417969-16.8418 18.171875 0 4.65332 3.1582 7.644531 7.75586 7.644531 9.03027 0 16.89746-9.473144 16.89746-18.170898zm-6.64844-3.157715c0 4.930175-3.93359 19.833496-8.75293 19.833496-1.55176 0-2.60351-1.385742-2.60351-3.601563 0-3.324218 3.7666-19.223632 8.97461-19.223632 1.77246-.000001 2.38183 1.662109 2.38183 2.991699z" fill-rule="evenodd"/><path d="m286.25293 21.179688h-.99707l-9.69531 1.606933-.27735.997071h.55372c1.05273 0 2.32714.387695 2.32714 1.662109 0 .775879-.55371 2.54834-.77539 3.323731l-5.26269 17.451172h6.70312l2.21582-7.368165c.83106-2.825195 6.92481-12.630859 9.86133-12.630859.49805 0 .83106.276367.83106.719727 0 .554199-.3877 1.772949-.55371 2.271484l-2.99219 10.249023c-.33203 1.163086-.83106 2.825196-.83106 4.043946 0 1.995117 1.71778 3.047851 3.5459 3.047851 3.82227 0 6.64844-3.71289 8.4209-6.704101l-1.05273-.609375c-.71973.886718-2.16016 3.545898-3.32422 3.545898-.33203 0-.55371-.333008-.55371-.665039 0-.553711.44336-2.105469.60937-2.603516l3.04688-10.249023c.38769-1.21875.88671-2.880859.88671-4.210449 0-2.160645-1.27441-3.878418-3.54589-3.878418-5.15235 0-10.19336 8.088867-12.63086 11.911621l-.11133-.111328z"/><path d="m47.504393 14.030274c0-5.8901372 4.774414-10.6650392 10.664551-10.6650392s10.664551 4.774902 10.664551 10.6650392c0 5.889648-4.774414 10.664062-10.664551 10.664062s-10.664551-4.774414-10.664551-10.664062z"/><path d="m-.6728522 23.110352s.4223633-23.110352 26.0805652-23.110352h27.439454s-16.378907 2.1513672-16.378907 23.110352c0 20.959961 16.378907 23.111328 16.378907 23.111328s-1.78125 0-27.439454 0c-25.6582018 0-26.0805652-23.111328-26.0805652-23.111328z"/><path clip-rule="evenodd" d="m-5.672852-6.691406h310v60h-310z" fill-rule="evenodd" opacity="0"/></g></svg>