<?xml version="1.0" encoding="utf-8"?>
<!-- Generator: Adobe Illustrator 28.2.0, SVG Export Plug-In . SVG Version: 6.00 Build 0)  -->
<svg version="1.1" id="Layer_1" xmlns="http://www.w3.org/2000/svg" xmlns:xlink="http://www.w3.org/1999/xlink" x="0px" y="0px"
	 viewBox="0 0 1957.5 493.6" style="enable-background:new 0 0 1957.5 493.6;" xml:space="preserve">
<style type="text/css">
	.st0{fill:#0B2DA3;}
	.st1{fill:#FFFFFF;}
	.st2{fill:#434F4F;}
</style>
<g>
	<g>
		<g>
			<path class="st0" d="M320.5,125.5c-4,0-7.7,0-11.7,0c-0.1-1.7-0.2-2.9-0.2-4.3c0.9-0.2,1.6-0.6,2.3-0.6c8.1,0,16.3,0,24.4,0
				c10.6,0,21.2-0.4,31.8,0.1c8.9,0.5,17.6,3.4,25.3,10.6c8.7,8.1,12.2,19.7,10.3,34.2c-1.1,8.3-4.9,13.6-9.1,18.3
				c-5.7,6.4-12.5,8.8-19.4,10.6c-0.5,0.1-1.1,0.3-2.5,0.7c3.8,1.3,6.7,2.3,9.6,3.4c9.5,3.6,18.3,13,19.6,32.3
				c0.5,7.1,0.7,14.2,1,21.3c0.2,3.7,0.3,7.3,0.6,11c0.7,7.5,5.3,13.1,10,8.7c1-0.9,2.1-1.8,3.1,1c-0.7,0.8-1.3,1.9-2.1,2.5
				c-6.3,5.4-13.1,7.1-20.2,5.6c-7.5-1.6-12.6-9.1-14-21c-1.1-9.1-1.3-18.4-2-27.7c-0.3-4.3-0.5-8.6-1-12.9
				c-1.3-11.4-6.1-18-13.5-20.1c-6.1-1.7-12.3-2.3-18.8-1.7c0,25.3,0,50.1,0,75.7c4,0,8,0,11.9,0c0.3,1.3,0.6,1.8,0.6,2.4
				c0,0.6-0.2,1.2-0.3,2.1c-15.8,0-31.6,0-47.5,0c0-1.4,0-2.4,0-4.2c4,0,7.8,0,11.8,0C320.5,223.9,320.5,175,320.5,125.5z
				 M344.3,124.8c-0.9,7.3-0.8,63.2,0.3,68.9c6.3-0.7,12.9-0.9,19.2-2.3c6.7-1.5,11.3-7.8,13-17.7c1.8-10.4,2-20.9,0.3-31.4
				c-1.2-7.5-4.1-12.6-9-15.4C360.4,122.6,352.3,124.1,344.3,124.8z"/>
		</g>
		<g>
			<path class="st0" d="M300,205.3c-0.6,24.9-8.7,49.5-26.5,65.9c-17.2,15.8-37.5,13.3-53.1-5.8c-24.5-29.9-28-85.9-7.7-122
				c14.2-25.2,38.4-33.4,58-19.3c12.3,8.8,20.2,23.6,25.1,42C298.8,176.8,300,188.1,300,205.3z M274.5,195.9
				c-0.3-10.3-0.5-23.9-1.2-37.5c-0.3-6-1.3-12-2.5-17.6c-2-9.2-6.3-15.3-12.7-17.8c-5.3-2-10.6-1.8-15.9,0.1
				c-5.4,2-9.3,6.8-11.9,14c-2.6,7.2-3.6,15.1-3.8,23.1c-0.5,18.8-0.9,37.5-0.7,56.3c0.1,11.2,1.2,22.4,2.5,33.4
				c1,9.1,3.5,17.5,9.4,22.3c8.1,6.5,16.3,6.7,24.6,0.4c4.2-3.2,7.1-8.4,8.4-15c1.2-6.2,2.3-12.6,2.6-18.9
				C273.8,225.5,274,212.4,274.5,195.9z"/>
		</g>
		<g>
			<path class="st0" d="M574.4,281.5c-14.7-0.6-26.9-10.9-36.5-28.7c-16.2-30.2-17-74.1-1.8-104.9c20.8-42.5,65.2-43,83.2,10.6
				c11.4,33.7,7.6,73.8-9.3,99.9C600.6,273,589.2,281.3,574.4,281.5z M600.4,198.8c-0.2,0-0.5,0-0.7,0c0-9.1,0.3-18.2-0.1-27.2
				c-0.4-9.4-1.2-18.9-2.5-28.1c-1.2-8.6-4.7-15.3-10.3-19c-15-10-30,0.9-33.7,24.5c-0.2,1.3-0.3,2.5-0.4,3.8
				c-1.6,21.1-1.9,42.2-1.2,63.4c0.4,11.2,1.3,22.3,2.4,33.4c0.9,8.4,3,16.3,8.1,21.4c12.5,12.4,33,6.1,35.5-20
				c0.1-1.5,0.6-2.9,0.6-4.4C598.9,230.7,599.7,214.8,600.4,198.8z"/>
		</g>
		<g>
			<path class="st0" d="M421.9,125.5c0-2,0-3.1,0-4.2c0.5-0.2,0.9-0.6,1.3-0.6c1.7-0.1,3.5-0.1,5.2-0.1c13.8-0.3,27.6-0.5,41.4-0.8
				c9.3-0.2,18.7-0.8,27.6,3.8c3.5,1.8,7.1,4.1,10.2,7.2c14,13.6,12.5,37.2,7.2,50.4c-4.4,10.9-11,17.5-18.9,21.6
				c-6.7,3.5-13.5,4.7-20.6,4.7c-5.8,0-11.6,0-17.7,0c0,21.6,0,43.5,0,66.1c4.7,0,9.2,0,13.9,0c0.1,1.6,0.1,2.4,0.2,3.2
				c-3.1,1.5-44,1.9-49.7,0.5c0-0.9,0-1.9,0-3.7c3.9,0,7.7,0,11.7,0c0-49.7,0-98.6,0-148.2C429.8,125.5,426.1,125.5,421.9,125.5z
				 M457.6,202.6c6.2,0.4,12.1,1,18-0.8c8.5-2.6,14.7-9.6,16.7-22.6c1.9-11.9,1.7-24-0.5-35.9c-1.7-9.5-5.9-15.1-12.1-17.6
				c-7.3-2.9-14.6-1.6-22.1-0.8C457.6,151,457.6,176.6,457.6,202.6z"/>
		</g>
		<g>
			<path class="st0" d="M957.6,125.4c-3.9,0-7.7,0-11.7,0c-0.1-1.7-0.1-2.9-0.2-4.4c29.5,0,58.8,0,88.5,0c0,14.8,0,29.1,0,43.9
				c-0.5,0.1-1.2,0.2-2,0.4c-0.7-4.7-1.2-9.1-2.1-13.4c-2.9-15.1-9.8-24.3-20.1-25.8c-9.3-1.3-18.8-0.3-28.5-0.3
				c0,22.3,0,44.4,0,66.9c6.3,1,12.5,0.5,18.5-1.9c5-2,7.5-7.8,8.4-15.2c0.5-4.4,0.7-8.9,1.1-13.6c0.9,0,1.6,0,2.6,0
				c0,23.4,0,46.5,0,69.8c-0.9,0.1-1.5,0.2-2.6,0.3c-0.1-2.6-0.2-4.9-0.4-7.2c-1.2-15.1-7.1-27.1-19.1-26.7c-2.7,0.1-5.5,0-8.6,0
				c0,25,0,49.7,0,74.4c0.2,0.3,0.5,0.7,0.7,0.7c10.7-0.3,21.5,0.4,32.2-1.3c11.5-1.8,17.8-11.6,20.3-28.4c0.7-5,1.1-10.2,1.7-15.9
				c0.3-0.1,1.1-0.2,2.1-0.4c0,16.9,0,33.4,0,50.2c-31,0-61.8,0-92.7,0c0-1.4,0-2.4,0-3.9c3.9,0,7.6,0,11.2,0
				C958.1,268.5,958.5,139.9,957.6,125.4z"/>
		</g>
		<g>
			<path class="st0" d="M940.1,121.1c0,16.3,0,32.2,0,48.5c-0.6,0-1.2,0.1-2.1,0.2c-0.4-3.1-0.7-6.1-1.3-8.9
				c-1.1-5.1-2-10.4-3.6-15.2c-4.4-12.8-11.3-19.9-21.2-20c-2.9,0-5.8,0-8.9,0c0,49.3,0,98.2,0,147.9c4.2,0,8.3,0,12.7,0
				c0.1,1.7,0.1,2.7,0.2,4.1c-16.7,0-33.2,0-50,0c-0.1-0.9-0.3-1.9-0.5-3.6c4.5,0,8.8,0,13,0c1.1-5.1,1.4-138.7,0.4-148.4
				c-8.8-0.8-17.3,0.1-24.5,9c-7.3,8.9-9.7,21.1-10.1,34.4c-0.6,0.3-0.9,0.6-1.3,0.7c-0.4,0.1-0.9-0.1-1.9-0.2
				c0.4-16,0.8-32.1,1.2-48.6C874.7,121.1,907,121.1,940.1,121.1z"/>
		</g>
		<g>
			<path class="st0" d="M170.2,31.9c4.6-4,3.6-14.8,9.8-12.4c0,31.6,0,63.1,0,95.1c-1.7,0-3.2,0-4,0c-4-14.7-6.9-29.4-11.8-42.5
				c-9.1-24.2-21.7-43.4-39.8-51.7c-18.9-8.7-36.9,2.1-46.2,28.9c-3.9,11.2-7,23.6-8.6,36c-7.3,59.1-7.3,118.2,3.3,176.6
				c4.4,24.3,14.2,40.1,30.5,45.1c11.7,3.6,23,0.2,33.5-8.6c19-16,30.2-41.5,37.1-72.1c1.2-5.3,1.9-10.9,3.2-16.1
				c0.5-1.8,2.1-3,4.4-6.1c0,36.5,0,70.1,0,105.4c-2-1.3-3.8-1.8-4.8-3.4c-1.4-2.3-2-5.6-3.2-8.2c-2.9-6.2-6.1-7.8-11-4.8
				c-5.3,3.3-10.5,7.2-15.7,11c-41.5,30.6-92.6,2.2-115.4-59.7c-32-87-2.4-190.2,47.9-224.7C99.2,6,119.5,5.7,139.9,17.3
				c5.7,3.2,11.1,7.3,16.8,10.1C161.1,29.6,165.7,30.4,170.2,31.9z"/>
		</g>
		<g>
			<path class="st0" d="M743.2,276.8L743.2,276.8h33.4l0,0l0,0c0-0.8-0.1-1.6-0.2-3.3c-2,0-3.6,0.2-5.2,0c-5-0.6-6.9-3.9-5.7-11.1
				c1.2-7.7,3.1-15.2,4.8-22.8c0.9-3.8,1.9-7.6,2.8-11.2c9.8,0,19.3,0,29.1,0c3.6,14.8,7.1,29.5,10.9,45.2c-4.2,0-7.9,0-12,0
				c0.1,1.9,0.2,3,0.3,4.1c15.8,0,31.3,0,47.1,0c-0.1-1.6-0.2-2.7-0.3-4.2c-3.4,0-6.6,0-9.8,0c-8-31.4-16-62.5-23.9-93.5
				c-5.1-20-10.2-39.9-15.3-59.9c-0.3-1.3-1.1-2.5-2.2-4.8c-1.1,3.7-1.8,6-2.4,8.4c-2.1,8.7-4.1,17.5-6.2,26.2
				c-7.4,30.7-14.7,61.4-22.2,92c-1,4.1-2.1,8.2-3.2,12.3c0,0,0,0,0,0.1c-0.2,0.7-0.4,1.4-0.6,2.1c-2.7,8.3-8.2,15.5-17.3,15.5
				c-9.7,0-16.6-7-17-14.3c-0.3-6.8-0.5-13.5-0.8-20.3c-1.1-22.8-7-33.3-21.9-39.1c-2.4-0.9-4.7-1.8-7.7-2.9
				c1.2-0.4,1.7-0.5,2.2-0.7c6.9-1.7,13.6-4.2,19.4-10.4c5.8-6.3,9.8-13.9,9.7-25.3c-0.1-12.2-4-20.9-10.7-27.2
				c-7.7-7.2-16.4-10.3-25.3-10.7c-13.9-0.6-27.9-0.2-41.8-0.2c-5.1,0-10.2,0-15.3,0c-0.5,0-1.1,0.4-1.8,0.8
				c0.2,1.4,0.3,2.5,0.6,4.2c3.9,0,7.6,0,11.4,0c0,49.5,0,98.4,0,148.1c-4.1,0-8,0-12,0c0.1,1.8,0.2,2.8,0.3,4.1c16,0,31.7,0,47.7,0
				c0-1.5,0-2.6,0-4.2c-4.1,0-8,0-12.3,0c0-25.8,0-50.7,0-76.5c5.8,0.6,11.3,0.5,16.7,1.7c10.9,2.5,14.6,10.3,15.6,22.1
				c0.7,8.5,0.9,17.2,1.6,25.8c0.4,5.8,0.9,11.6,2,17.1c1.7,8.6,5.5,14.6,11.7,16.6C729.1,284.1,732.6,276.8,743.2,276.8z
				 M691.1,191.1c-6.9,2.7-14,2.3-21.3,2c0-22.9,0-45.2,0-68.2c8.2-0.6,16.2-2.3,24.1,2.1c4.9,2.7,8,7.8,9.1,15.2
				c1.6,10.5,1.5,21.1-0.3,31.5C701.2,182.6,697.2,188.7,691.1,191.1z M774.6,222.7c4.4-18.3,8.7-36.3,13.3-55.6
				c4.5,19.2,8.8,37.2,13.1,55.6C792,222.7,783.5,222.7,774.6,222.7z"/>
		</g>
	</g>
	<g>
		<g>
			<g>
				<polygon class="st0" points="281.8,337.4 148.3,484.6 251.2,484.6 384.7,337.4 				"/>
			</g>
			<g>
				<polygon class="st0" points="57.4,337.4 57.4,473.3 180.7,337.4 				"/>
			</g>
			<g>
				<polygon class="st0" points="1939.4,337.4 806.8,337.4 673.3,484.6 1939.4,484.6 				"/>
			</g>
			<g>
				<polygon class="st0" points="486.7,337.4 353.2,484.6 571.7,484.6 705.2,337.4 				"/>
			</g>
		</g>
	</g>
	<g>
		<g>
			<path class="st1" d="M1183.2,377.5c-2.7,0-5.2-0.1-7.8,0c-1.9,0.1-2.4-0.6-1.7-2.2c0.8,0,1.6-0.1,2.5-0.1
				c11.6-0.1,23.3-0.4,34.9-0.4c9.5,0,19,0.4,27.7,4.2c6.6,2.9,11,7.1,11.1,14c0,5.2-3.1,8.8-7.7,11.7c-5.2,3.3-11.2,4.7-17.5,5.5
				c0.5,0.1,1,0.3,1.6,0.4c3.3,0.7,6.7,1.1,9.8,2.2c7.5,2.7,11.5,7.8,12.1,14.8c0.3,3.3,0.4,6.6,0.6,9.9c0.1,1.8,0.3,3.6,0.8,5.4
				c1.1,3.6,3.8,4.7,7.8,3.3c0.7-0.3,1.6-0.2,2.5,0.1c-3.2,2.8-7.3,3.7-11.5,4.2c-10.7,1.1-16.9-2.9-18.3-12.2
				c-0.6-3.9-0.7-7.9-1.1-11.8c-0.1-0.7-0.1-1.3-0.2-2c-1.2-8.7-5.5-12.3-15.6-12.9c-3.7-0.2-7.3-0.4-11.2-0.6c0,12.2,0,24,0,36.1
				c2.9,0,5.6-0.1,8.3,0c0.7,0,1.3,0.6,1.9,0.9c-0.6,0.4-1.3,1.1-1.9,1.1c-11.6,0.1-23.3,0.1-35,0c-0.6,0-1.3-0.6-1.9-0.9
				c0.7-0.4,1.3-1,2-1.1c2.5-0.1,5.1-0.1,7.8-0.1C1183.2,423.9,1183.2,400.9,1183.2,377.5z M1201.8,409.1c5.2,0,10,0.4,14.6-0.1
				c7.8-0.9,11.9-4.5,12.8-11c0.5-3.6,0.5-7.4,0.1-11c-0.6-5.4-4.1-8.6-10.3-9.4c-4.8-0.6-9.8-0.3-14.6-0.4c-2-0.1-2.5,0.7-2.5,2.4
				c0.1,8.8,0,17.6,0,26.4C1201.8,406.9,1201.8,408,1201.8,409.1z"/>
		</g>
		<g>
			<path class="st1" d="M1718.8,425.3c0.5,0.6,1.3,1.2,1.3,1.8c0.1,7.2,0.1,14.5,0.1,21.9c-25,0-49.9,0-74.9,0
				c-0.6-1.3,0-1.9,1.6-1.8c2.5,0.1,5.1,0,7.8,0c0-23.3,0-46.3,0-69.7c-2.5,0-5,0-7.5,0c-1.9,0-1.9-0.1-2-2.2c23.7,0,47.4,0,71.4,0
				c0,6.9,0,13.8,0,20.9c-1.3,0.5-1.8,0.2-2.2-1.3c-0.7-2.9-1.4-6-2.9-8.7c-2.7-4.7-7.5-7.8-13.4-8.2c-8-0.5-16.1-0.1-24.3-0.1
				c0,10.2,0,20.6,0,31.2c5.6,0.1,11.3,0.7,16.7-1.4c3.2-1.3,4.6-3.8,5.2-6.6c0.4-1.7,0.5-3.4,0.5-5.2c0.1-1.6,0.9-1.8,2.5-1.2
				c0,0.7,0.1,1.4,0.1,2.2c0,9.5,0,19.1-0.1,28.6c0,0.7-0.8,1.5-1.3,2.2c-0.4-0.7-0.9-1.4-1.2-2.1c-1-2.8-1.4-5.8-2.9-8.4
				c-2.7-4.6-8-5.4-13.3-5.8c-2-0.2-4.1,0-6.4,0c0,12,0,23.8,0,36.3c9.6-0.4,19.1-0.4,28.4-1.4c8.3-0.8,12.7-6,14.7-12.8
				c0.7-2.4,0.9-5,1.4-7.5C1718.4,425.7,1718.6,425.5,1718.8,425.3z"/>
		</g>
		<g>
			<path class="st1" d="M1537.9,449.2c-8.1,0-16.1,0-24.3,0c-0.7-1.3-0.5-1.9,1.4-2c6.8-0.5,8.6-1.8,8.9-7.6
				c0.3-5.7,0.2-11.4,0.2-17c0-12.3-0.1-24.5,0.1-36.8c0-2.5-1.9-3.8-3.1-5.6c-1.4-1.9-3-3-5.9-2.7c-0.7,0.1-1.5-0.9-2.3-1.4
				c0.2-0.3,0.3-0.6,0.5-0.9c3.8,0,7.6,0,11.4,0c1.1,0,2.2,0,3.2,0c4,0,8.6-0.9,11.9,0.4c3.3,1.3,5.4,4.8,8,7.4
				c13.6,13.6,27.2,27.2,40.8,40.8c0.6,0.6,1.2,1.1,2.1,1.9c0.1-1,0.2-1.7,0.2-2.4c0-12.3-0.1-24.5-0.2-36.8c0-0.7,0-1.5-0.1-2.2
				c-0.5-5.4-1.9-6.6-8.3-6.8c-1.9-0.1-2.8-0.5-2-2.3c7.6,0,15.2,0,22.9,0c0.6,1.5,0.3,2.1-1.7,2.3c-5.7,0.4-6.3,0.9-7.3,5.7
				c-0.4,1.9-0.5,3.8-0.5,5.6c0,19.7,0,39.3,0.1,59c0,0.9,0,1.8,0,2.6c-2.6,0.6-4.2,0.1-5.8-1.6c-19.5-20.1-39.1-40.1-58.7-60.1
				c-0.5-0.5-1.1-1.1-2-1.9c-0.1,1.2-0.2,1.9-0.2,2.6c0,15.9,0,31.8,0,47.7c0,1,0,2,0.1,3c0.3,5.3,2.1,6.8,8.4,7.1
				C1537,447.2,1538.6,447,1537.9,449.2z"/>
		</g>
		<g>
			<path class="st1" d="M1836.4,375.3c0,7.8,0,15.6,0,23.4c-1.8,0.6-2.6,0.1-3.1-1.4c-1.7-5.3-4.3-10.3-9-14.5
				c-8-7.1-20.5-9.3-30.6-5.3c-7.1,2.8-10.6,8.7-8.4,14.1c1.6,3.9,5.5,6,10.1,7c5.6,1.3,11.3,2,16.9,3.1c5.2,1.1,10.6,1.9,15.4,3.7
				c12.4,4.6,16.2,14.1,14.6,24.2c-2.7,17-24,24.9-43.8,19.9c-5.4-1.4-10.6-3.2-15.9-4.9c-3-1-4.4-0.5-5.7,2c-0.6,1.1-0.4,3.1-4.1,2
				c0-8.4,0-17.1,0-25.7c0-0.5,0.1-1,0.2-1.4c2.6-0.9,2.9,0.6,3.3,1.9c2.5,8,7.5,14.8,15.7,19.9c8.3,5.1,17.3,7,27.4,3.8
				c6.6-2.1,10.7-7.1,10.7-12.8c0-5.6-3.2-9.9-10.5-11.8c-8.4-2.2-17.1-3.9-25.8-5.6c-13.3-2.7-20.9-10.4-21-21.3
				c-0.1-10.3,8.1-18.6,20.7-21.4c9.8-2.2,18.9-0.7,27.9,2.5c2.6,0.9,5.1,1.8,7.8,2.4c2.4,0.6,4.1-0.1,4.4-2.3
				C1833.8,375.8,1834.1,374.6,1836.4,375.3z"/>
		</g>
		<g>
			<path class="st1" d="M1380.3,424.4c0,8.2,0,16.4,0,24.7c-26.3,0-52.4,0-78.6,0c-0.3-1.8-0.3-1.9,1.5-1.9c2.7-0.1,5.4,0,8.3,0
				c0-23.3,0-46.4,0-69.8c-2.8,0-5.5,0-8.2,0c-2,0-2.4-0.7-1.8-2.2c13.7,0,27.4,0,41.1,0c0.6,1.5,0.2,2.3-1.8,2.2
				c-2.9-0.1-5.8,0-8.9,0c0,23.3,0,46.4,0,69.8c10.2-0.4,20.2,0.9,30-1.5c9.4-2.3,14-7.8,15.3-15.5c0.3-1.5,0.2-3.1,0.6-4.7
				c0.2-0.6,1-1.2,1.5-1.8C1379.7,424,1380,424.2,1380.3,424.4z"/>
		</g>
		<g>
			<path class="st1" d="M1046.8,449.2c-15.5,0-30.9,0-46.5,0c-0.9-1.3-0.4-2,1.7-1.9c3.1,0,6.2,0,9.9,0c-0.7-1.4-1.2-2.6-1.8-3.7
				c-2.7-5.3-5.4-10.5-8-15.8c-0.7-1.5-1.8-1.8-3.8-1.8c-7.8,0.1-15.6,0.1-23.4,0c-1.9,0-2.9,0.4-3.5,1.8c-1.8,3.7-3.8,7.4-5.7,11.1
				c-0.2,0.3-0.3,0.6-0.4,0.9c-2.2,5.6-0.5,7.3,7.6,7.5c1.6,0,3.5-0.2,2.7,1.9c-9.8,0-19.6,0-29.4,0c-0.2-0.2-0.4-0.4-0.6-0.6
				c0.8-0.4,1.6-1.3,2.4-1.2c7.2,0.4,11-2.5,13.2-6.8c5.6-10.9,11.1-21.8,16.6-32.7c5.5-10.8,10.9-21.7,16.4-32.5
				c0.4-0.7,1.2-1.3,1.8-1.9c0.7,0.6,1.8,1.2,2.2,1.9c11.7,21.7,23.4,43.5,35,65.2c0.3,0.6,0.8,1.2,1,1.8c0.9,4.1,4.3,5.6,9.9,4.8
				C1046.1,447,1047.7,447.3,1046.8,449.2z M1000.1,423.5c-4.3-8.8-8.6-17.3-13.1-26.4c-4.6,9.2-8.9,17.7-13.2,26.4
				C982.6,423.5,991.1,423.5,1000.1,423.5z"/>
		</g>
		<g>
			<path class="st1" d="M1093.5,377.5c-3.4,0-6.6,0-10.1,0c-0.1-0.9-0.1-1.5-0.2-2.3c13.9,0,27.4,0,41.1,0c0.8,1.7,0,2.3-2.1,2.2
				c-2.7-0.1-5.4,0-8.3,0c0,23.3,0,46.3,0,69.7c2.9,0,5.7,0,8.5,0c1.6,0,2.6,0.3,1.8,1.9c-13.6,0-27.1,0-40.7,0
				c-0.2-1.8-0.2-1.9,1.6-1.9c2.7,0,5.4,0,8.3,0C1093.5,423.9,1093.5,400.9,1093.5,377.5z"/>
		</g>
		<g>
			<path class="st1" d="M1437.8,377.5c-3.4,0-6.6,0-10.1,0c-0.1-0.9-0.1-1.5-0.2-2.3c13.9,0,27.4,0,41.1,0c0.8,1.7,0,2.3-2.1,2.2
				c-2.7-0.1-5.4,0-8.3,0c0,23.3,0,46.3,0,69.7c2.9,0,5.7,0,8.5,0c1.6,0,2.6,0.3,1.8,1.9c-13.6,0-27.1,0-40.7,0
				c-0.2-1.8-0.2-1.9,1.6-1.9c2.7,0,5.4,0,8.3,0C1437.8,423.9,1437.8,400.9,1437.8,377.5z"/>
		</g>
	</g>
	<g>
		<g>
			<g>
				<path class="st2" d="M1527.3,132.7c2.9-0.4,5.7-1,8.5-1.3c7.4-0.8,14.5-0.2,20.7,3.7c4.2,2.7,6.2,7.5,6.3,13.7
					c0,1.5,0,2.9,0,4.4h27.1c-0.5-3.2-1.4-5.9-2.8-8c-3.4-5.5-7.7-9.5-12.9-12c-11.3-5.5-23.9-6.4-36.7-5.9
					c-3.2,0.1-6.5,0.5-9.7,0.5c-12.8,0.1-25.5,0.1-38.3,0.1c-0.5,0-1,0.2-1.7,0.3c-0.2,0.8-0.5,1.5-0.5,2.2c-0.1,0.6,0,1.3,0,2.5
					c4.5,0,9,0,13.5,0c-1.1,6.8-2.2,13.5-3.3,20.3h26.5C1525,146.4,1526.1,139.6,1527.3,132.7z"/>
			</g>
			<g>
				<path class="st2" d="M1565.3,209.1c-4.6-3.5-9.9-5.1-15.5-6.1c-0.1,0-0.2-0.1-0.4-0.1h-60.2c-1.7,10.3-3.4,20.6-5.1,30.9h26.5
					c1.6-9.8,3.2-19.5,4.8-29.4c8.9-0.5,17.4-0.3,25,3.4c5.4,2.6,8.3,7.9,8.5,15.9c0.1,3.4-0.1,6.7-0.3,10.2h26.9
					C1575.6,223.1,1572.5,214.7,1565.3,209.1z"/>
			</g>
			<g>
				<path class="st2" d="M1549.2,193.5h21.5c3.5-2.4,7-5.3,10.2-8.9c5.6-6.1,8.4-14.4,9.1-22h-28.2c-0.9,6.1-2.4,12.2-4.6,18.3
					C1555.3,186.1,1552.7,190.4,1549.2,193.5z"/>
			</g>
			<g>
				<path class="st2" d="M1517.3,193.5c1.7-10.4,3.4-20.6,5.1-30.9h-26.5c-1.7,10.3-3.4,20.6-5.1,30.9H1517.3z"/>
			</g>
			<g>
				<path class="st2" d="M1476.6,280.3c-4.7,0-9.2,0-14,0c-0.2,1.8-0.3,2.9-0.3,4c18.3,0,36.4,0,54.7,0c0.2-1.4,0.4-2.5,0.6-3.7
					c-4.7-1-9.8,0.4-14.4-0.8c2-12.3,4-24.4,6-36.6h-26.5C1480.7,255.5,1478.6,267.9,1476.6,280.3z"/>
			</g>
			<g>
				<path class="st2" d="M1546.9,251.1c-0.5,5.7-1.1,11.5-1,17c0.2,8.5,2.7,15.7,9.1,18.1c9.6,3.5,19.7,1.7,29.8-6.1
					c0.2-0.2,0.3-0.6,0.5-1.2c-0.2-0.5-0.5-1.1-0.8-1.9c-1.1,0.5-2,1-2.9,1.4c-5.5,2.8-9.2,0.5-9.6-6.4c-0.2-3,0.1-6.1,0.4-9.2
					c0.7-6.5,1.6-13.1,2.4-19.6h-27.1C1547.4,245.8,1547.1,248.4,1546.9,251.1z"/>
			</g>
			<g>
				<path class="st2" d="M1411.1,132.6c6-0.8,12.2-2.2,18-1.3c2.6,0.4,5.2,0.9,7.6,1.8c6,2.1,10.1,6.9,10.6,15.3
					c0.1,1.6,0.2,3.3,0.2,4.9h27.8c-1.1-6.1-3.8-11.5-8-15.7c-3.6-3.6-7.8-6-12.3-7.6c-10.7-3.9-22.3-3.1-33.9-2.7
					c-11.1,0.4-22.1,0.8-33.1,1.1c-5.5,0.1-10.9,0-16.5,0c-0.2,1.4-0.4,2.7-0.7,4.5c4.6,0,9,0,13.5,0c-1.1,6.8-2.2,13.6-3.3,20.4
					h26.9C1408.8,146.4,1410,139.5,1411.1,132.6z"/>
			</g>
			<g>
				<path class="st2" d="M1360,280.3c-4.6,0-8.9,0-13.5,0c-0.3,1.6-0.5,2.8-0.7,4.1c19,0,37.8,0,56.9,0c0.2-1.4,0.3-2.5,0.5-4.1
					c-5.6,0-10.9,0-16.4,0c2-12.5,4.1-24.8,6.1-37.1h-26.9C1364.1,255.5,1362,267.9,1360,280.3z"/>
			</g>
			<g>
				<path class="st2" d="M1439,193.5h25.1c3.3-4.2,6.2-9.2,8.3-15c2-5.6,3.1-10.9,3.5-15.9h-28.6c-0.8,9.4-2.9,18.9-7,28.2
					C1439.8,191.8,1439.4,192.7,1439,193.5z"/>
			</g>
			<g>
				<path class="st2" d="M1401.2,213.6c8.8-0.2,17.3,1.9,26.4,0.3c7.6-1.3,15.1-3.4,22.4-7.9c1.5-1,3-2,4.5-3.1h-23.3
					c-1.8,1.4-3.7,2.6-5.7,3.6c-9.2,4.4-17.9,3.7-27,2.9c0.4-2.2,0.7-4.3,1.1-6.5h-26.9c-1.7,10.3-3.4,20.6-5.1,30.9h26.9
					c1.1-6.7,2.2-13.5,3.3-20.2C1399.1,213.6,1400.2,213.6,1401.2,213.6z"/>
			</g>
			<g>
				<path class="st2" d="M1401.1,193.5c1.7-10.3,3.4-20.6,5.1-30.9h-26.9c-1.7,10.3-3.4,20.6-5.1,30.9H1401.1z"/>
			</g>
			<g>
				<path class="st2" d="M1202.9,226.7c-0.3,2.4-0.7,4.8-1,7.1h4.6c0.3-2.4,0.6-4.7,0.8-7.1C1205.5,226.7,1204,226.7,1202.9,226.7z"
					/>
			</g>
			<g>
				<path class="st2" d="M1151.5,233.4c1.7,0,3.1,0,4.6,0c1.2-10.2,2.4-20.4,3.6-30.5h-9C1152.5,211.2,1152.9,221.3,1151.5,233.4z"
					/>
			</g>
			<g>
				<path class="st2" d="M1118.9,48.8c43.1-3.6,96-8.7,88.3,68.7c2.3,0,3.8,0,6,0c2.6-26.2,5.2-52,7.8-77.9c-56.8,0-112.8,0-169.5,0
					c-0.2,2.9-0.4,5.4-0.6,8.8c7.9,0,15.3,0,22.5,0c-0.3,7.5-5.4,53.6-11.4,104.8h44.7C1110.7,118,1114.8,83.5,1118.9,48.8z"/>
			</g>
			<g>
				<path class="st2" d="M1170.5,110.6c-2,0.2-3.7,0.4-5.3,0.6c-2,20.6-6.6,33.8-13.5,42h13.8
					C1167.2,139.1,1168.8,124.9,1170.5,110.6z"/>
			</g>
			<g>
				<path class="st2" d="M1105.2,173.3c20.4-2.2,35.5,4,42.6,20.2h13c1.2-10.3,2.4-20.6,3.6-30.9h-25.5c-9.3,3.7-20.6,3.7-33.7,2.5
					c0.1-0.9,0.2-1.7,0.3-2.5h-44.7c-1.2,10.3-2.5,20.6-3.7,30.9h44.8C1103.4,182.6,1104.6,174.9,1105.2,173.3z"/>
			</g>
			<g>
				<path class="st2" d="M1100.5,202.9h-44.6c-1.3,10.6-2.6,21-3.8,30.9h44.4C1097.9,222.9,1099.3,212.2,1100.5,202.9z"/>
			</g>
			<g>
				<path class="st2" d="M1088.8,305.6c0.4-8.9,3.3-35.4,6.6-62.4H1051c-4.4,35-7.9,61.3-8.7,63.5c-7,0-14.2,0-21.7,0
					c-0.3,2.8-0.6,5-0.8,6.9c59.4,0,118.3,0,177.3,0c2.8-23.7,5.5-47,8.3-70.4h-5.2C1184.4,317.3,1136.2,308.1,1088.8,305.6z"/>
			</g>
			<g>
				<path class="st2" d="M1657.2,133.1c0.8-0.1,1.6-0.2,2.4-0.2c9.2,0.1,18.6-0.3,27.7,0.3c10.7,0.8,17.9,8.5,20.3,20.1h6.5
					c1.2-8.3,2.4-16.7,3.6-25.1c-33.8,0-67.1,0-100.9,0c-0.2,1.6-0.3,3-0.5,4.5c4.6,0.6,9.2-0.3,13.3,0.5
					c-1.1,6.7-2.2,13.4-3.3,20.1h26.9C1655,142.8,1656.6,134.4,1657.2,133.1z"/>
			</g>
			<g>
				<path class="st2" d="M1685.9,168.4c-1.2,0.2-2.1,0.4-3,0.5c-1,4.1-1.8,8-2.8,11.7c-1.4,5-3.4,9.6-6.4,12.9h8.1
					C1683.1,185.2,1684.5,176.8,1685.9,168.4z"/>
			</g>
			<g>
				<path class="st2" d="M1708.2,166.9c-0.2,1.9-0.3,3.7-0.4,5.7c1.1,0,1.9,0,2.7,0c0.2,0,0.4-0.4,1-0.9c0.4-3,0.9-6,1.3-9h-4.3
					C1708.3,164,1708.3,165.4,1708.2,166.9z"/>
			</g>
			<g>
				<path class="st2" d="M1618.2,202.9c-1.7,10.3-3.4,20.6-5.1,30.9h27c1.6-9.7,3.2-19.5,4.8-29.4c5.6-0.3,10.7-0.1,15.6,1.4
					c7,2.2,10.8,8.1,11.5,17.2c0.3,3.5,0.2,7.1,0.1,10.8h3c1.7-10.3,3.4-20.6,5.1-30.9H1618.2z"/>
			</g>
			<g>
				<path class="st2" d="M1699.5,247.2c-3.9,12.2-9.5,22.9-19.7,28.6c-5.7,3.1-11.4,4.4-17.1,4.5c-9.1,0.1-18.3,0.1-27.4,0.1
					c-0.9,0-1.7-0.3-2.7-0.5c2-12.3,4-24.4,6-36.7h-27c-2,12.4-4.1,24.7-6.1,37.2c-4.6,0-9,0-13.5,0c-0.3,1.7-0.5,2.8-0.7,4
					c35.3,0,70.4,0,105.4,0c1.4-5.3,5.2-28.2,6.9-41.2h-3.2C1700.3,244.5,1699.9,245.9,1699.5,247.2z"/>
			</g>
			<g>
				<path class="st2" d="M1646.7,193.5c1-7.3,2.9-19.4,4.9-30.9h-26.8c-1.7,10.3-3.4,20.6-5.1,30.9H1646.7z"/>
			</g>
			<g>
				<path class="st2" d="M1280,202.9c0.8,2.6,1.5,5.3,2.3,7.9c-0.9,1.5-1.6,2.7-2.4,3.8c-4.3,6.4-8.7,12.8-13,19.2h4.8
					c1-1.6,2-3.1,3.1-4.7c3-4.5,6-8.9,9.3-13.9c1.7,6.2,3.5,12.4,5.2,18.5h31.5c-3-10.3-6.1-20.6-9.1-30.9H1280z"/>
			</g>
			<g>
				<path class="st2" d="M1252.4,254.9c-4.3,6.1-9,11.8-13.7,17.5c-3.7,4.5-8.1,6.8-12.8,7.3c-1.4,0.1-2.9,0.6-4.5,1
					c-0.2,1.6-0.3,2.7-0.4,3.8c13,0,25.7,0,38.5,0c0.2-1.4,0.4-2.5,0.6-4c-1.3,0-2.3,0-3.4,0c-1.9-0.1-3.8,0-5.5-0.5
					c-4-1.1-4.9-4.3-2.7-9.5c0.9-2.1,2-4.2,3.2-6.1c4.6-7.1,9.2-14.1,13.8-21.1h-5.1C1257.7,247.1,1255.1,251,1252.4,254.9z"/>
			</g>
			<g>
				<path class="st2" d="M1302.2,280.3c-4.9,0-8.9,0-12.9,0c-0.3,1.7-0.5,2.8-0.7,4c18.7,0,37.1,0,55.8,0c0.2-1.4,0.3-2.5,0.5-4
					c-3.6,0-6.9,0-10.4,0c-3.7-12.4-7.3-24.8-11-37.2h-31.6C1295.2,255.4,1298.7,267.7,1302.2,280.3z"/>
			</g>
			<g>
				<path class="st2" d="M1330.6,147.3c6-8.4,12.9-14.4,21.3-14.6c0.2,0,0.5-0.3,0.9-0.6c0.2-1.2,0.4-2.5,0.7-4c-11,0-21.9,0-32.9,0
					c-0.2,1.5-0.5,2.8-0.7,4.4c1.2,0.1,2.2,0.2,3.3,0.3c1.2,0.1,2.4,0.1,3.5,0.4c3.1,0.8,3.9,3.2,2.2,7.2c-1.1,2.6-2.5,5.1-4,7.5
					c-1.2,1.8-2.4,3.6-3.6,5.4h5.2C1327.8,151.3,1329.2,149.3,1330.6,147.3z"/>
			</g>
			<g>
				<path class="st2" d="M1308.8,193.5c-1-3.3-2-6.7-3-10c4-5.9,7.9-11.6,11.7-17.2c0.8-1.2,1.7-2.4,2.5-3.7h-5
					c-3.1,4.7-6.3,9.4-9.4,14.1c-0.3,0.5-0.9,0.8-1.3,1.3c-1.2-3-3.2-8.8-5.1-15.3h-30.9c3,10.3,6,20.6,9,30.9H1308.8z"/>
			</g>
			<g>
				<path class="st2" d="M1291.3,132.7c3.9,0,7.8,0,11.8,0c0.3-1.8,0.5-3.1,0.7-4.5c-18.5,0-36.9,0-55.4,0c-0.2,1.6-0.3,2.9-0.6,4.6
					c4.1,0,7.9,0,11.8,0c2,6.8,4,13.6,5.9,20.4h30.8C1293.6,143.6,1291.3,134.7,1291.3,132.7z"/>
			</g>
			<g>
				<path class="st2" d="M1809.3,215.8c-0.4-4.9-1.7-9.2-3.6-12.9h-73.6c3.1,6,7.8,10.3,14.3,12.8c7,2.7,14.3,4.8,21.3,7.4
					c4.6,1.7,9.3,3.5,13.5,6.1c1.9,1.2,3.6,2.7,4.9,4.5h22.7C1809.7,227.9,1809.8,221.8,1809.3,215.8z"/>
			</g>
			<g>
				<path class="st2" d="M1720,226.2c-0.4,2.5-0.7,5-1.1,7.5h5c-0.2-2.6-0.4-5.2-0.5-7.9C1722,226,1721.2,226.1,1720,226.2z"/>
			</g>
			<g>
				<path class="st2" d="M1809.8,177.9c0.8-5.1,1.7-10.2,2.5-15.3h-7.3c0.7,5,1.3,10.1,2.1,15.3
					C1807.6,177.9,1808.6,177.9,1809.8,177.9z"/>
			</g>
			<g>
				<path class="st2" d="M1729,193.5h69.4c-3.1-2.8-6.6-4.8-10.4-6c-7.3-2.3-14.7-4.2-22.1-6.3c-4.9-1.4-9.7-3-13.7-6.5
					c-3.4-3-5.4-6.9-5.7-12h-15.6c-1.7,5.9-2.6,12-2.7,18.4C1728,185.6,1728.3,189.8,1729,193.5z"/>
			</g>
			<g>
				<path class="st2" d="M1758.3,135.8c10.3-8.3,20.2-8.8,29.5-4.2c7.9,3.9,12.9,11.6,15.5,21.7h10.7c1.4-8.4,2.7-16.7,4.1-25.1
					c-1.1,0-2,0-3,0c-0.5,1.5-1,2.9-1.4,4.2c-1.4,3.9-3,5.2-6,4.5c-1.4-0.3-2.7-0.9-3.9-1.7c-2-1.2-3.9-2.7-5.9-3.9
					c-8.7-5.2-17.7-8.8-28.6-6.6c-8.7,1.8-17,5.8-24.4,13.6c-4.4,4.6-7.8,9.6-10.3,14.9h13C1749.2,145.9,1752.9,140.1,1758.3,135.8z
					"/>
			</g>
			<g>
				<path class="st2" d="M1790,247.9c-0.3,15.4-10.1,32.3-26.7,35.5c-9.2,1.7-17.1-1-23.5-7.8c-7.9-8.4-12.8-19.2-14.9-32.4h-7.4
					c-2.1,13.8-4.1,27.5-6.1,41.3c1.2,0,2,0,2.9,0c0.9-1.9,1.7-3.6,2.5-5.4c2.2-5,4.4-6,7.8-3.9c3.8,2.4,7.5,4.9,11.4,6.9
					c9.1,4.8,18.5,8.3,29.7,5.8c12.1-2.7,22.9-9.4,31.5-22.5c4.7-7.2,8-14.6,10-22.3h-17.4C1789.9,244.6,1790,246.2,1790,247.9z"/>
			</g>
			<g>
				<path class="st2" d="M1833.6,190.4c0.1,1.1,0.3,2.1,0.5,3.1h69.3c-3.1-2.8-6.6-4.9-10.5-6.1c-7.3-2.2-14.7-4.2-22.1-6.3
					c-4.8-1.4-9.5-2.9-13.4-6.3c-3.3-2.9-5.7-6.6-5.9-12.2h-15.5C1833.3,171.4,1832.4,181,1833.6,190.4z"/>
			</g>
			<g>
				<path class="st2" d="M1863.4,135.7c10.3-8.2,20.2-8.7,29.4-4.1c7.9,4,12.8,11.7,15.5,21.6h10.5c1.4-8.4,2.7-16.7,4.1-25.2
					c-1.1,0-2,0-2.9,0c-1,2.7-1.9,5.2-2.6,7.3c-3.5,2.7-5.9,1.3-8.3,0c-2-1.2-3.9-2.6-5.9-3.9c-10.5-6.6-21.7-9.9-35.1-5.2
					c-12.7,4.5-22.5,14.5-28.5,26.9h12.9C1854.1,146.3,1857.8,140.1,1863.4,135.7z"/>
			</g>
			<g>
				<path class="st2" d="M1912,177.9c0.7,0,1.7,0,2.8,0c0.8-5.1,1.7-10.2,2.5-15.3h-7.2C1910.9,167.6,1911.3,172.7,1912,177.9z"/>
			</g>
			<g>
				<path class="st2" d="M1881.2,277.1c-11.8,9.2-22.8,8.8-32.4,1.9c-9.9-7.2-16.1-18.9-18.5-33.8c-0.1-0.7-0.2-1.3-0.3-2h-7.5
					c-2,13.8-4.1,27.5-6.1,41.3c1.1,0,1.8,0,2.8,0c1-2.1,1.8-3.8,2.7-5.6c2.3-4.9,4.4-5.8,7.8-3.7c3.9,2.5,7.7,5.1,11.7,7.1
					c9,4.6,18.3,8,29.4,5.5c14.2-3.3,26.1-11.9,34.9-28.5c2.8-5.3,4.9-10.7,6.3-16.2h-17.3C1896.4,254.6,1890.8,269.5,1881.2,277.1z
					"/>
			</g>
			<g>
				<path class="st2" d="M1852.5,216.2c9.4,3.3,18.9,6.6,28.3,10c4.1,1.5,7.7,3.8,10.4,7.6h22.7c0.6-4.5,0.9-9.1,0.8-13.7
					c-0.1-6.7-1.5-12.4-3.9-17.2h-73.5C1840.5,209.5,1845.7,213.8,1852.5,216.2z"/>
			</g>
			<g>
				<path class="st2" d="M1825,226.3c-0.4,2.5-0.7,5-1.1,7.5h5c-0.3-2.6-0.5-5.3-0.8-8C1827.1,226,1826.1,226.1,1825,226.3z"/>
			</g>
			<g>
				<path class="st2" d="M1271.7,233.8c-2.1,3.1-4.1,6.3-6.1,9.4h26.3c-0.9-3.1-1.7-6.3-2.6-9.4H1271.7z"/>
			</g>
		</g>
	</g>
</g>
</svg>
