<?xml version="1.0" encoding="UTF-8" standalone="no"?>
<!-- Created with Inkscape (http://www.inkscape.org/) -->
<svg
   xmlns:dc="http://purl.org/dc/elements/1.1/"
   xmlns:cc="http://creativecommons.org/ns#"
   xmlns:rdf="http://www.w3.org/1999/02/22-rdf-syntax-ns#"
   xmlns:svg="http://www.w3.org/2000/svg"
   xmlns="http://www.w3.org/2000/svg"
   xmlns:sodipodi="http://sodipodi.sourceforge.net/DTD/sodipodi-0.dtd"
   xmlns:inkscape="http://www.inkscape.org/namespaces/inkscape"
   width="479.72"
   height="126.75"
   id="svg2827"
   sodipodi:version="0.32"
   inkscape:version="0.46"
   version="1.0"
   sodipodi:docname="Corsairfly Logo.svg"
   inkscape:output_extension="org.inkscape.output.svg.inkscape">
  <defs
     id="defs2829">
    <inkscape:perspective
       sodipodi:type="inkscape:persp3d"
       inkscape:vp_x="0 : 526.18109 : 1"
       inkscape:vp_y="0 : 1000 : 0"
       inkscape:vp_z="744.09448 : 526.18109 : 1"
       inkscape:persp3d-origin="372.04724 : 350.78739 : 1"
       id="perspective2835" />
  </defs>
  <sodipodi:namedview
     id="base"
     pagecolor="#ffffff"
     bordercolor="#666666"
     borderopacity="1.0"
     inkscape:pageopacity="0.0"
     inkscape:pageshadow="2"
     inkscape:zoom="1"
     inkscape:cx="350"
     inkscape:cy="160"
     inkscape:document-units="px"
     inkscape:current-layer="layer1"
     showgrid="false"
     inkscape:window-width="1280"
     inkscape:window-height="974"
     inkscape:window-x="-8"
     inkscape:window-y="-8" />
  <metadata
     id="metadata2832">
    <rdf:RDF>
      <cc:Work
         rdf:about="">
        <dc:format>image/svg+xml</dc:format>
        <dc:type
           rdf:resource="http://purl.org/dc/dcmitype/StillImage" />
      </cc:Work>
    </rdf:RDF>
  </metadata>
  <g
     inkscape:label="Ebene 1"
     inkscape:groupmode="layer"
     id="layer1"
     transform="translate(-126.99911,-507.27331)">
    <path
       d="M 259.06379,511.27331 C 265.90747,511.27331 271.45587,516.82163 271.45587,523.66581 C 271.45587,530.51 265.90747,536.05756 259.06379,536.05756 C 252.21942,536.05756 246.67102,530.51 246.67102,523.66581 C 246.67102,516.82163 252.21942,511.27331 259.06379,511.27331"
       style="fill:#db1e26;fill-opacity:1;fill-rule:nonzero;stroke:none"
       id="path2562" />
    <path
       d="M 137.67305,542.57652 L 171.0615,542.57652 C 174.33389,542.57652 176.80276,543.61065 177.7728,548.26004 C 178.85306,553.42867 178.4081,557.0278 172.5894,557.4389 L 162.10749,558.18742 C 169.82178,606.93766 214.93141,622.82866 239.49292,570.32316 C 243.55719,561.63259 244.88707,560.05006 249.33965,561.15485 C 255.37625,562.65295 256.20098,565.757 253.32643,574.51904 C 232.09047,639.2454 160.7209,645.734 146.71774,559.29574 L 138.20147,559.90974 C 131.27236,560.40775 130.99911,554.56087 130.99911,551.30934 C 130.99911,544.87978 133.38681,542.57652 137.67305,542.57652"
       style="fill:#db1e26;fill-opacity:1;fill-rule:nonzero;stroke:none"
       id="path2564" />
    <path
       d="M 354.47734,590.73573 C 350.31704,590.73573 348.0149,594.00406 348.0149,599.13097 C 348.0149,604.1818 350.31704,607.5262 354.47734,607.5262 C 358.63837,607.5262 360.86678,604.25712 360.86678,599.13097 C 360.86678,594.08013 358.63837,590.73573 354.47734,590.73573 z M 354.47734,616.07057 C 344.44908,616.07057 337.31604,609.23414 337.31604,599.13097 C 337.31604,589.10085 344.44908,582.19106 354.47734,582.19106 C 364.43335,582.19106 371.56643,589.10085 371.56643,599.13097 C 371.56643,609.23414 364.43335,616.07057 354.47734,616.07057"
       style="fill:#db1e26;fill-opacity:1;fill-rule:nonzero;stroke:none"
       id="path2566" />
    <path
       d="M 399.57498,589.6207 C 398.97974,590.88418 398.01395,592.22072 396.82433,592.22072 C 396.00766,592.22072 395.41392,591.99703 394.74497,591.70012 C 394.00136,591.40328 393.33316,591.18177 392.51656,591.18177 C 390.807,591.18177 389.91571,591.62555 388.94923,592.66677 C 387.90963,593.78179 387.16528,595.26747 387.16528,597.86681 L 387.16528,612.65386 C 387.16528,613.84119 386.94294,614.36112 386.35011,614.80859 C 385.75422,615.32694 384.26994,615.62377 381.8909,615.62377 C 379.44068,615.62377 378.02809,615.32694 377.43376,614.80859 C 376.84006,614.36112 376.61703,613.84119 376.61703,612.65386 L 376.61703,587.31827 C 376.61703,585.83184 376.76556,585.01388 377.43376,584.3461 C 378.02809,583.75122 379.51455,583.30624 380.85174,583.00918 C 381.96606,582.78782 383.67342,582.4885 384.56615,582.4885 C 385.23439,582.4885 385.97721,582.6356 386.35011,582.93597 C 386.94294,583.45484 386.94294,583.90051 386.94294,585.46045 L 386.94294,586.57615 C 387.76051,585.16286 390.21202,582.4885 393.85224,582.4885 C 395.86004,582.4885 396.97285,582.78782 398.46066,583.45484 C 400.01934,584.12262 400.7623,585.08965 400.7623,585.90566 C 400.7623,587.16763 400.16797,588.35798 399.57498,589.6207"
       style="fill:#db1e26;fill-opacity:1;fill-rule:nonzero;stroke:none"
       id="path2568" />
    <path
       d="M 416.88406,616.07057 C 410.49319,616.07057 405.36693,614.28723 403.43604,613.09983 C 401.80046,612.05937 401.57759,611.39038 401.57759,610.49687 C 401.57759,609.60562 402.02498,608.49059 402.69334,607.45088 C 403.28767,606.56181 403.95587,605.66906 404.92257,605.66906 C 406.33363,605.66906 408.1899,606.70944 409.67786,607.22861 C 411.46041,607.82522 414.28185,608.34364 416.88406,608.34364 C 419.92915,608.34364 421.19184,607.22861 421.19184,605.892 C 421.19184,604.25712 419.92915,603.81191 416.28892,603.14209 L 412.79682,602.47529 C 407.37257,601.43491 402.32195,598.98326 402.32195,592.81808 C 402.32195,585.83184 408.41367,582.19106 416.73404,582.19106 C 421.04346,582.19106 425.35136,583.08201 427.57984,583.97326 C 429.36383,584.64255 429.73669,585.46045 429.73669,586.3517 C 429.73669,587.31827 429.4392,588.05896 429.0678,589.10085 C 428.62097,590.28977 427.80505,591.40328 426.69005,591.40328 C 425.27893,591.40328 424.0148,590.80962 421.93476,590.36433 C 420.45063,590.06817 418.88802,589.77134 416.28892,589.77134 C 413.61508,589.77134 412.64695,590.66041 412.64695,591.99703 C 412.64695,593.41032 414.58012,594.00406 417.25387,594.45002 L 420.96956,595.11984 C 426.76545,596.15879 431.81455,598.31352 431.81455,605.07388 C 431.81455,612.43084 425.64964,616.07057 416.88406,616.07057"
       style="fill:#db1e26;fill-opacity:1;fill-rule:nonzero;stroke:none"
       id="path2570" />
    <path
       d="M 455.81294,600.83898 L 449.34975,601.36027 C 446.45139,601.58253 445.26116,603.36662 445.26116,605.29683 C 445.26116,607.00635 446.37523,608.49059 449.34975,608.49059 C 452.32034,608.49059 455.81294,606.85714 455.81294,602.62081 L 455.81294,600.83898 z M 463.90878,614.88165 C 462.647,615.40226 461.38278,615.84755 459.8241,615.84755 C 458.18995,615.84755 457.59546,614.28723 456.62824,611.83492 C 454.02964,614.73101 450.46307,616.07057 446.07999,616.07057 C 441.32538,616.07057 435.38256,613.46904 435.38256,605.892 C 435.38256,597.79367 441.92115,595.41441 448.38381,594.97138 L 455.81294,594.45002 L 455.81294,593.41032 C 455.81294,590.88418 454.10355,589.54689 450.16483,589.54689 C 447.78714,589.54689 446.22836,590.06817 444.74333,590.58735 C 443.33152,591.1057 441.62288,592.07302 440.35944,592.07302 C 438.94763,592.07302 438.35239,591.1057 437.68494,589.99286 C 437.01671,588.87858 436.79437,588.43186 436.79437,587.46672 C 436.79437,586.57615 437.23979,585.83184 438.79926,584.94248 C 440.88077,583.75122 444.59512,582.19106 451.57967,582.19106 C 460.27215,582.19106 465.69349,585.60958 465.69349,595.41441 L 465.69349,606.11577 C 465.69349,610.20154 467.03158,610.64675 467.03158,612.20782 C 467.03158,613.54361 465.24684,614.36112 463.90878,614.88165"
       style="fill:#db1e26;fill-opacity:1;fill-rule:nonzero;stroke:none"
       id="path2572" />
    <path
       d="M 483.00338,614.80859 C 482.40893,615.32694 480.92403,615.62377 478.54637,615.62377 C 476.09486,615.62377 474.68305,615.32694 474.08707,614.80859 C 473.49424,614.36112 473.27046,613.84119 473.27046,612.65386 L 473.27046,587.31827 C 473.27046,585.83184 473.41883,585.01388 474.08707,584.3461 C 474.68305,583.75122 476.31711,583.30624 477.65361,583.00918 C 478.76936,582.78782 480.5541,582.4885 481.4432,582.4885 C 482.11141,582.4885 482.8557,582.6356 483.22572,582.93597 C 483.81999,583.45484 483.81999,583.90051 483.81999,585.46045 L 483.81999,612.65386 C 483.81999,613.84119 483.59931,614.36112 483.00338,614.80859 z M 478.54637,578.25194 C 475.20138,578.25194 472.52904,575.80188 472.52904,572.68133 C 472.52904,569.63557 475.20138,567.03555 478.54637,567.03555 C 481.81535,567.03555 484.56435,569.56025 484.56435,572.68133 C 484.56435,575.80188 481.81535,578.25194 478.54637,578.25194"
       style="fill:#db1e26;fill-opacity:1;fill-rule:nonzero;stroke:none"
       id="path2574" />
    <path
       d="M 336.13166,569.50941 C 336.13166,568.16594 334.78913,567.12209 332.252,566.1525 C 328.29853,564.58594 325.16617,563.98888 319.79508,563.98888 C 306.367,563.98888 296.96857,573.68654 296.96857,590.09777 C 296.96857,606.51007 306.5169,616.05874 319.57056,616.05874 C 324.04598,616.05874 326.43405,615.68508 328.5229,615.16229 C 331.20862,614.4918 332.99855,613.74599 334.64001,612.62727 C 335.53424,612.03059 336.05704,611.06101 336.05704,610.0915 C 336.05704,609.12116 335.45886,607.77799 334.78913,606.58396 C 333.96796,605.09309 332.99855,603.74984 331.58152,603.74984 C 330.90947,603.74984 330.46286,603.74984 329.11889,604.34652 C 326.06109,605.68894 324.34588,606.21105 320.39172,606.21105 C 314.05088,606.21105 308.53132,601.28721 308.53132,590.09777 C 308.53132,578.83386 313.23052,573.68654 319.79508,573.68654 C 323.97223,573.68654 325.91197,574.28322 327.17984,574.80571 C 328.14941,575.17891 330.16383,576.22299 331.50614,576.22299 C 332.7003,576.22299 333.44594,575.85023 334.71376,573.68654 C 335.75945,571.89635 336.13166,570.8525 336.13166,569.50941"
       style="fill:#db1e26;fill-opacity:1;fill-rule:nonzero;stroke:none"
       id="path2576" />
    <path
       d="M 514.73347,589.61777 C 514.13845,590.88192 513.17182,592.21929 511.98303,592.21929 C 511.16546,592.21929 510.57194,591.99552 509.90299,591.69793 C 509.15863,591.40178 508.49043,591.17951 507.67217,591.17951 C 505.96427,591.17951 505.07154,591.62412 504.10635,592.66601 C 503.06525,593.78104 502.32089,595.26679 502.32089,597.86749 L 502.32089,612.65973 C 502.32089,613.84714 502.09802,614.36775 501.50353,614.81522 C 500.90908,615.33432 499.42252,615.63116 497.04577,615.63116 C 494.59276,615.63116 493.18017,615.33432 492.58503,614.81522 C 491.99123,614.36775 491.76767,613.84714 491.76767,612.65973 L 491.76767,587.31533 C 491.76767,585.82815 491.91604,585.01026 492.58503,584.3418 C 493.18017,583.74618 494.66723,583.30127 496.00313,583.00383 C 497.1182,582.78269 498.82897,582.48413 499.72101,582.48413 C 500.38922,582.48413 501.13207,582.63093 501.50353,582.93092 C 502.09802,583.44904 502.09802,583.89546 502.09802,585.456 L 502.09802,586.57321 C 502.91756,585.15841 505.36753,582.48413 509.01154,582.48413 C 511.01799,582.48413 512.12997,582.78269 513.61696,583.44904 C 515.17955,584.11826 515.92247,585.08528 515.92247,585.90129 C 515.92247,587.16394 515.32573,588.35579 514.73347,589.61777"
       style="fill:#db1e26;fill-opacity:1;fill-rule:nonzero;stroke:none"
       id="path2578" />
    <path
       d="M 547.32618,572.85328 C 546.58476,574.33549 546.06809,575.66856 544.58525,575.66856 C 543.77211,575.66856 543.18006,575.44456 542.66239,575.2229 C 541.47586,574.85331 540.73519,574.40832 538.36555,574.40832 C 535.99752,574.40832 534.44243,575.66856 534.44243,579.14719 L 534.44243,583.14837 L 541.40264,583.14837 C 542.58633,583.14837 543.1061,583.2212 543.47462,583.44407 C 543.9937,583.74038 544.1436,584.1825 544.1436,585.29497 C 544.1436,586.92322 543.84533,589.22196 543.18006,590.40418 C 542.66239,591.22018 541.69872,591.44019 540.21685,591.44019 L 534.44243,591.44019 L 534.44243,612.76827 C 534.44243,613.95274 534.21794,614.47109 533.62714,614.91637 C 533.03431,615.43329 531.55372,615.73013 529.18568,615.73013 C 526.7394,615.73013 525.33268,615.43329 524.74204,614.91637 C 524.14908,614.47109 523.92675,613.95274 523.92675,612.76827 L 523.92675,591.44019 L 520.81441,591.44019 C 519.63297,591.44019 519.11164,591.36713 518.74318,591.14411 C 518.22479,590.84803 518.07498,590.40418 518.07498,589.29435 C 518.07498,587.66466 518.37247,585.36735 519.03993,584.1825 C 519.55685,583.36973 520.51983,583.14837 522.00245,583.14837 L 523.92675,583.14837 L 523.92675,578.85193 C 523.92675,571.52164 528.14902,565.52269 537.55257,565.52269 C 540.66197,565.52269 543.92148,566.11469 545.99487,567.22595 C 547.7708,568.18974 548.28913,568.85534 548.28913,569.7441 C 548.28913,571.00321 547.7708,571.96452 547.32618,572.85328"
       style="fill:#76b1e4;fill-opacity:1;fill-rule:nonzero;stroke:none"
       id="path2580" />
    <path
       d="M 561.39738,614.91637 C 560.80074,615.43329 559.32174,615.73013 556.95211,615.73013 C 554.50867,615.73013 553.1013,615.43329 552.50922,614.91637 C 551.91692,614.47109 551.69383,613.95274 551.69383,612.76827 L 551.69383,570.33581 C 551.69383,568.85534 551.84151,568.04083 552.50922,567.37448 C 553.1013,566.78029 554.72882,566.33689 556.06079,566.04081 C 557.17292,565.81869 558.95034,565.52269 559.83938,565.52269 C 560.50465,565.52269 561.2466,565.66971 561.61512,565.96729 C 562.20961,566.48534 562.20961,566.92957 562.20961,568.48574 L 562.20961,612.76827 C 562.20961,613.95274 561.98652,614.47109 561.39738,614.91637"
       style="fill:#76b1e4;fill-opacity:1;fill-rule:nonzero;stroke:none"
       id="path2582" />
    <path
       d="M 601.45595,588.77374 L 582.79493,628.09664 C 582.12963,629.43024 581.31371,630.02248 577.90667,630.02248 C 574.428,630.02248 572.42758,629.50255 572.42758,627.57897 C 572.42758,626.68915 572.87151,625.57932 573.61287,624.09727 L 579.53782,611.73226 L 567.83775,588.84906 C 567.09708,587.367 566.65341,585.95959 566.65341,585.14877 C 566.65341,583.51758 568.65217,582.8498 572.20471,582.8498 C 575.90694,582.8498 576.94535,583.66544 577.53596,584.92447 L 585.01744,600.77247 L 592.3477,584.77813 C 592.9399,583.44407 594.27287,582.8498 597.16068,582.8498 C 600.93777,582.8498 602.71517,583.29404 602.71517,585.2204 C 602.71517,586.10872 602.19518,587.29394 601.45595,588.77374"
       style="fill:#76b1e4;fill-opacity:1;fill-rule:nonzero;stroke:none"
       id="path2584" />
  </g>
</svg>
