<?xml version="1.0" encoding="UTF-8" standalone="no"?>
<!-- Created with Inkscape (http://www.inkscape.org/) -->
<svg
   xmlns:dc="http://purl.org/dc/elements/1.1/"
   xmlns:cc="http://web.resource.org/cc/"
   xmlns:rdf="http://www.w3.org/1999/02/22-rdf-syntax-ns#"
   xmlns:svg="http://www.w3.org/2000/svg"
   xmlns="http://www.w3.org/2000/svg"
   xmlns:sodipodi="http://sodipodi.sourceforge.net/DTD/sodipodi-0.dtd"
   xmlns:inkscape="http://www.inkscape.org/namespaces/inkscape"
   version="1.0"
   width="744.09448"
   height="407.48032"
   id="svg8461"
   sodipodi:version="0.32"
   inkscape:version="0.45"
   sodipodi:docname="Croatia Airlines Logo.svg"
   inkscape:output_extension="org.inkscape.output.svg.inkscape"
   sodipodi:docbase="Y:\Eigene Dateien Andreas\Eigene Bilder\sonstiges\Logos\Vektor\[--Convertme!--]\[--!fertig--]"
   sodipodi:modified="true">
  <metadata
     id="metadata18113">
    <rdf:RDF>
      <cc:Work
         rdf:about="">
        <dc:format>image/svg+xml</dc:format>
        <dc:type
           rdf:resource="http://purl.org/dc/dcmitype/StillImage" />
      </cc:Work>
    </rdf:RDF>
  </metadata>
  <sodipodi:namedview
     inkscape:window-height="574"
     inkscape:window-width="776"
     inkscape:pageshadow="2"
     inkscape:pageopacity="0.0"
     guidetolerance="10.0"
     gridtolerance="10.0"
     objecttolerance="10.0"
     borderopacity="1.0"
     bordercolor="#666666"
     pagecolor="#ffffff"
     id="base"
     inkscape:zoom="0.92519806"
     inkscape:cx="372.04724"
     inkscape:cy="203.74016"
     inkscape:window-x="46"
     inkscape:window-y="46"
     inkscape:current-layer="svg8461" />
  <defs
     id="defs8463">
    <clipPath
       id="clp51">
      <path
         d="M 49.28,239.22 L 127.78,239.22 L 127.78,280.45 L 49.28,280.45 L 49.28,239.22 z "
         id="path1356" />
    </clipPath>
    <clipPath
       id="clp77">
      <path
         d="M 164.4,503.55 L 253.67,503.55 L 253.67,518.03 L 164.4,518.03 L 164.4,503.55 z "
         id="path2388" />
    </clipPath>
    <clipPath
       id="clp19">
      <path
         d="M 49.76,503.14 L 127.27,503.14 L 127.27,518.49 L 49.76,518.49 L 49.76,503.14 z "
         id="path254" />
    </clipPath>
    <clipPath
       id="clp18">
      <path
         d="M 51.62,538.86 L 125.35,538.86 L 125.35,578.98 L 51.62,578.98 L 51.62,538.86 z "
         id="path224" />
    </clipPath>
    <clipPath
       id="clp73">
      <path
         d="M 183.38,592.14 L 234.69,592.14 L 234.69,622.09 L 183.38,622.09 L 183.38,592.14 z "
         id="path2344" />
    </clipPath>
    <clipPath
       id="clp74">
      <path
         d="M 183.38,592.14 L 234.69,592.14 L 234.69,622.09 L 183.38,622.09 L 183.38,592.14 z "
         id="path2364" />
    </clipPath>
    <clipPath
       id="clp70">
      <path
         d="M 178.54,632.58 L 239.43,632.58 L 239.43,678.21 L 178.54,678.21 L 178.54,632.58 z "
         id="path2292" />
    </clipPath>
    <clipPath
       id="clp71">
      <path
         d="M 178.54,632.58 L 239.43,632.58 L 239.43,678.21 L 178.54,678.21 L 178.54,632.58 z "
         id="path2316" />
    </clipPath>
    <clipPath
       id="clp72">
      <path
         d="M 178.54,632.58 L 239.43,632.58 L 239.43,678.21 L 178.54,678.21 L 178.54,632.58 z "
         id="path2328" />
    </clipPath>
    <clipPath
       id="clp17">
      <path
         d="M 45.19,647.41 L 131.79,647.41 L 131.79,663.18 L 45.19,663.18 L 45.19,647.41 z "
         id="path162" />
    </clipPath>
    <clipPath
       id="clp4">
      <path
         d="M 45.29,692.27 L 131.66,692.27 L 131.66,714.87 L 45.29,714.87 L 45.29,692.27 z "
         id="path26" />
    </clipPath>
    <clipPath
       id="clp5">
      <path
         d="M 45.29,692.27 L 131.66,692.27 L 131.66,714.87 L 45.29,714.87 L 45.29,692.27 z "
         id="path42" />
    </clipPath>
    <clipPath
       id="clp6">
      <path
         d="M 45.29,692.27 L 131.66,692.27 L 131.66,714.87 L 45.29,714.87 L 45.29,692.27 z "
         id="path52" />
    </clipPath>
    <clipPath
       id="clp7">
      <path
         d="M 45.29,692.27 L 131.66,692.27 L 131.66,714.87 L 45.29,714.87 L 45.29,692.27 z "
         id="path62" />
    </clipPath>
    <clipPath
       id="clp8">
      <path
         d="M 45.29,692.27 L 131.66,692.27 L 131.66,714.87 L 45.29,714.87 L 45.29,692.27 z "
         id="path72" />
    </clipPath>
    <clipPath
       id="clp9">
      <path
         d="M 45.29,692.27 L 131.66,692.27 L 131.66,714.87 L 45.29,714.87 L 45.29,692.27 z "
         id="path82" />
    </clipPath>
    <clipPath
       id="clp10">
      <path
         d="M 45.29,692.27 L 131.66,692.27 L 131.66,714.87 L 45.29,714.87 L 45.29,692.27 z "
         id="path92" />
    </clipPath>
    <clipPath
       id="clp11">
      <path
         d="M 45.29,692.27 L 131.66,692.27 L 131.66,714.87 L 45.29,714.87 L 45.29,692.27 z "
         id="path102" />
    </clipPath>
    <clipPath
       id="clp12">
      <path
         d="M 45.29,692.27 L 131.66,692.27 L 131.66,714.87 L 45.29,714.87 L 45.29,692.27 z "
         id="path112" />
    </clipPath>
    <clipPath
       id="clp13">
      <path
         d="M 45.29,692.27 L 131.66,692.27 L 131.66,714.87 L 45.29,714.87 L 45.29,692.27 z "
         id="path122" />
    </clipPath>
    <clipPath
       id="clp14">
      <path
         d="M 45.29,692.27 L 131.66,692.27 L 131.66,714.87 L 45.29,714.87 L 45.29,692.27 z "
         id="path132" />
    </clipPath>
    <clipPath
       id="clp15">
      <path
         d="M 45.29,692.27 L 131.66,692.27 L 131.66,714.87 L 45.29,714.87 L 45.29,692.27 z "
         id="path142" />
    </clipPath>
    <clipPath
       id="clp16">
      <path
         d="M 45.29,692.27 L 131.66,692.27 L 131.66,714.87 L 45.29,714.87 L 45.29,692.27 z "
         id="path152" />
    </clipPath>
    <clipPath
       id="clipPath6577">
      <path
         d="M 45.29,692.27 L 131.66,692.27 L 131.66,714.87 L 45.29,714.87 L 45.29,692.27 z "
         id="path6579" />
    </clipPath>
    <clipPath
       id="clipPath6588">
      <path
         d="M 45.29,692.27 L 131.66,692.27 L 131.66,714.87 L 45.29,714.87 L 45.29,692.27 z "
         id="path6590" />
    </clipPath>
    <clipPath
       id="clipPath6596">
      <path
         d="M 45.29,692.27 L 131.66,692.27 L 131.66,714.87 L 45.29,714.87 L 45.29,692.27 z "
         id="path6598" />
    </clipPath>
    <clipPath
       id="clipPath6604">
      <path
         d="M 45.29,692.27 L 131.66,692.27 L 131.66,714.87 L 45.29,714.87 L 45.29,692.27 z "
         id="path6606" />
    </clipPath>
    <clipPath
       id="clipPath6612">
      <path
         d="M 45.29,692.27 L 131.66,692.27 L 131.66,714.87 L 45.29,714.87 L 45.29,692.27 z "
         id="path6614" />
    </clipPath>
    <clipPath
       id="clipPath6620">
      <path
         d="M 45.29,692.27 L 131.66,692.27 L 131.66,714.87 L 45.29,714.87 L 45.29,692.27 z "
         id="path6622" />
    </clipPath>
    <clipPath
       id="clipPath6628">
      <path
         d="M 45.29,692.27 L 131.66,692.27 L 131.66,714.87 L 45.29,714.87 L 45.29,692.27 z "
         id="path6630" />
    </clipPath>
    <clipPath
       id="clipPath6636">
      <path
         d="M 45.29,692.27 L 131.66,692.27 L 131.66,714.87 L 45.29,714.87 L 45.29,692.27 z "
         id="path6638" />
    </clipPath>
    <clipPath
       id="clipPath6644">
      <path
         d="M 45.29,692.27 L 131.66,692.27 L 131.66,714.87 L 45.29,714.87 L 45.29,692.27 z "
         id="path6646" />
    </clipPath>
    <clipPath
       id="clipPath6652">
      <path
         d="M 45.29,692.27 L 131.66,692.27 L 131.66,714.87 L 45.29,714.87 L 45.29,692.27 z "
         id="path6654" />
    </clipPath>
    <clipPath
       id="clipPath6660">
      <path
         d="M 45.29,692.27 L 131.66,692.27 L 131.66,714.87 L 45.29,714.87 L 45.29,692.27 z "
         id="path6662" />
    </clipPath>
    <clipPath
       id="clipPath6668">
      <path
         d="M 45.29,692.27 L 131.66,692.27 L 131.66,714.87 L 45.29,714.87 L 45.29,692.27 z "
         id="path6670" />
    </clipPath>
    <clipPath
       id="clipPath6676">
      <path
         d="M 45.29,692.27 L 131.66,692.27 L 131.66,714.87 L 45.29,714.87 L 45.29,692.27 z "
         id="path6678" />
    </clipPath>
    <clipPath
       id="clipPath6684">
      <path
         d="M 45.19,647.41 L 131.79,647.41 L 131.79,663.18 L 45.19,663.18 L 45.19,647.41 z "
         id="path6686" />
    </clipPath>
    <clipPath
       id="clipPath7915">
      <path
         d="M 178.54,632.58 L 239.43,632.58 L 239.43,678.21 L 178.54,678.21 L 178.54,632.58 z "
         id="path7917" />
    </clipPath>
    <clipPath
       id="clipPath7930">
      <path
         d="M 178.54,632.58 L 239.43,632.58 L 239.43,678.21 L 178.54,678.21 L 178.54,632.58 z "
         id="path7932" />
    </clipPath>
    <clipPath
       id="clipPath7939">
      <path
         d="M 178.54,632.58 L 239.43,632.58 L 239.43,678.21 L 178.54,678.21 L 178.54,632.58 z "
         id="path7941" />
    </clipPath>
    <clipPath
       id="clipPath6718">
      <path
         d="M 51.62,538.86 L 125.35,538.86 L 125.35,578.98 L 51.62,578.98 L 51.62,538.86 z "
         id="path6720" />
    </clipPath>
    <clipPath
       id="clipPath7984">
      <path
         d="M 164.4,503.55 L 253.67,503.55 L 253.67,518.03 L 164.4,518.03 L 164.4,503.55 z "
         id="path7986" />
    </clipPath>
    <clipPath
       id="clipPath7386">
      <path
         d="M 49.28,239.22 L 127.78,239.22 L 127.78,280.45 L 49.28,280.45 L 49.28,239.22 z "
         id="path7388" />
    </clipPath>
  </defs>
  <g
     id="g18184">
    <path
       d="M 251.078,388.48953 L 250.9159,335.22712 L 232.1567,335.22712 L 232.1567,329.53981 L 274.8658,329.53981 L 274.8658,334.95631 L 256.5578,334.95631 L 256.7205,388.48953 L 251.078,388.48953"
       style="font-size:18.17300034px;font-weight:bold;letter-spacing:-1.79190004;word-spacing:0;fill:#15427d;fill-rule:nonzero;stroke:none;font-family:Arial"
       id="path1342" />
    <path
       d="M 285.4637,329.7203 L 290.6639,329.7203 L 290.6639,388.48953 L 285.4637,388.48953 L 285.4637,329.7203 z "
       style="font-size:18.17300034px;font-weight:bold;letter-spacing:-1.79190004;word-spacing:0;fill:#15427d;fill-rule:nonzero;stroke:none;font-family:Arial"
       id="path1344" />
    <path
       d="M 440.205,329.7203 L 445.3956,329.7203 L 445.3956,388.48953 L 440.205,388.48953 L 440.205,329.7203 z "
       style="font-size:18.17300034px;font-weight:bold;letter-spacing:-1.79190004;word-spacing:0;fill:#15427d;fill-rule:nonzero;stroke:none;font-family:Arial"
       id="path1346" />
    <path
       d="M 555.8478,329.53981 L 560.9933,329.53981 L 560.9933,388.30903 L 555.8478,388.30903 L 555.8478,329.53981 z "
       style="font-size:18.17300034px;font-weight:bold;letter-spacing:-1.79190004;word-spacing:0;fill:#15427d;fill-rule:nonzero;stroke:none;font-family:Arial"
       id="path1348" />
    <path
       d="M 517.1193,388.48953 L 517.029,329.53981 L 523.3484,329.53981 L 523.3484,382.98278 L 548.7155,382.98278 L 548.8058,388.48953 L 517.1193,388.48953"
       style="font-size:18.17300034px;font-weight:bold;letter-spacing:-1.79190004;word-spacing:0;fill:#15427d;fill-rule:nonzero;stroke:none;font-family:Arial"
       id="path1350" />
    <path
       d="M 578.5068,388.48953 L 578.4166,329.53981 L 584.5548,329.53981 L 619.3111,379.1009 L 619.3111,329.53981 L 625.1793,329.53981 L 625.089,388.48953 L 618.4989,388.48953 L 584.5548,340.37281 L 584.3743,388.48953 L 578.5068,388.48953"
       style="font-size:18.17300034px;font-weight:bold;letter-spacing:-1.79190004;word-spacing:0;fill:#15427d;fill-rule:nonzero;stroke:none;font-family:Arial"
       id="path1352" />
    <path
       d="M 642.51219,388.48989 L 642.51219,329.54011 L 674.28911,329.54011 L 674.28911,334.95663 L 648.74119,334.95663 L 648.74119,354.27555 L 672.66415,354.27555 L 672.66415,360.59482 L 648.74119,360.59482 L 648.74119,382.80255 L 675.10158,382.80255 L 675.28213,388.48989 L 642.51219,388.48989"
       style="font-size:18.17300034px;font-weight:bold;letter-spacing:-1.79190004;word-spacing:0;fill:#15427d;fill-rule:nonzero;stroke:none;font-family:Arial"
       id="path1360" />
    <path
       d="M 719.60732,344.97719 L 724.84329,344.97719 C 724.84329,344.97719 725.74604,327.55405 704.35079,327.55405 C 688.82343,327.55405 685.03187,337.21351 685.12214,344.52581 C 685.21242,352.37976 690.44839,356.71298 700.19812,359.15041 C 709.94786,361.58785 720.7809,363.5739 721.05172,371.33758 C 721.32255,381.08732 714.82273,385.42053 705.79519,385.14971 C 689.00398,384.69833 689.00398,370.79593 689.00398,370.79593 L 683.94857,370.79593 C 683.94857,370.79593 681.96251,389.84402 706.24657,389.84402 C 718.88512,389.84402 726.73907,383.61503 726.37797,372.51116 C 726.10714,358.60876 715.81575,358.15738 706.42712,355.35885 C 697.03849,352.56031 690.62894,351.56729 690.53866,343.17168 C 690.35811,334.77608 698.12179,332.24837 704.26051,332.24837 C 719.96842,332.24837 719.60732,344.97719 719.60732,344.97719"
       style="font-size:18.17300034px;font-weight:bold;letter-spacing:-1.79190004;word-spacing:0;fill:#15427d;fill-rule:nonzero;stroke:none;font-family:Arial"
       id="path1362" />
    <path
       d="M 113.0653,366.55264 C 111.3137,362.12914 109.2284,360.95558 109.2284,360.95558 C 109.2284,360.95558 118.7345,356.44182 118.9424,346.69207 C 119.1406,337.30343 114.4013,329.7203 102.4216,329.53981 C 90.4515,329.26893 78.0472,329.53981 78.0472,329.53981 L 78.0472,388.48953 L 84.1409,388.48953 L 84.1409,362.49027 L 97.2487,362.49027 C 100.9592,362.94164 105.3827,362.49027 108.5516,370.8859 C 110.122,375.03852 115.5567,388.48953 115.5567,388.48953 L 121.8761,388.48953 C 121.8761,388.48953 114.5455,370.25396 113.0653,366.55264 z M 100.6433,357.52514 C 94.315,357.52514 83.9153,357.52514 83.9153,357.52514 L 83.9153,334.95631 C 83.9153,334.95631 94.5406,334.95631 101.3201,334.95631 C 108.1003,334.95631 113.0564,338.74788 113.0653,345.15738 C 113.0831,354.00438 106.9627,357.52514 100.6433,357.52514"
       style="font-size:18.17300034px;font-weight:bold;letter-spacing:-1.79190004;word-spacing:0;fill:#15427d;fill-rule:nonzero;stroke:none;font-family:Arial"
       id="path1364" />
    <path
       d="M 128.2044,358.42789 C 128.2044,342.62969 137.0152,327.9148 156.2256,327.9148 C 175.4272,327.9148 183.3355,343.26163 183.3355,357.07376 C 183.3355,370.8859 177.4584,389.30203 156.4512,389.39235 C 133.9823,389.4826 128.2044,374.22609 128.2044,358.42789 z M 133.9823,359.87226 C 133.9823,374.31634 140.2559,384.60772 156.2256,384.69796 C 170.977,384.69796 178.0813,370.43452 178.0813,359.60145 C 178.0813,347.8657 173.3959,332.69943 157.3544,332.69943 C 138.5952,332.69943 133.892,347.23376 133.9823,359.87226"
       style="font-size:18.17300034px;font-weight:bold;letter-spacing:-1.79190004;word-spacing:0;fill:#15427d;fill-rule:nonzero;stroke:none;font-family:Arial"
       id="path1366" />
    <path
       d="M 214.968,329.7203 L 208.6397,329.7203 L 185.6012,388.48953 L 191.2438,388.48953 L 198.9258,369.71227 L 224.4556,369.71227 L 232.1472,388.48953 L 237.7897,388.48953 L 214.968,329.7203 z M 200.5058,364.29577 L 211.8086,335.40769 L 222.6506,364.29577 L 200.5058,364.29577"
       style="font-size:18.17300034px;font-weight:bold;letter-spacing:-1.79190004;word-spacing:0;fill:#15427d;fill-rule:nonzero;stroke:none;font-family:Arial"
       id="path1368" />
    <path
       d="M 330.0057,329.7203 L 323.6775,329.7203 L 300.6301,388.48953 L 306.2815,388.48953 L 313.9642,369.71227 L 339.494,369.71227 L 347.176,388.48953 L 352.8275,388.48953 L 330.0057,329.7203 z M 315.5435,364.29577 L 326.8375,335.40769 L 337.6884,364.29577 L 315.5435,364.29577"
       style="font-size:18.17300034px;font-weight:bold;letter-spacing:-1.79190004;word-spacing:0;fill:#15427d;fill-rule:nonzero;stroke:none;font-family:Arial"
       id="path1370" />
    <path
       d="M 407.1819,329.53981 L 400.8536,329.53981 L 377.8069,388.30903 L 383.4577,388.30903 L 391.1403,369.53177 L 416.6702,369.53177 L 424.3529,388.30903 L 430.0036,388.30903 L 407.1819,329.53981 z M 392.7204,364.1152 L 404.0225,335.22712 L 414.8645,364.1152 L 392.7204,364.1152"
       style="font-size:18.17300034px;font-weight:bold;letter-spacing:-1.79190004;word-spacing:0;fill:#15427d;fill-rule:nonzero;stroke:none;font-family:Arial"
       id="path1372" />
    <path
       d="M 497.891,367.18458 C 496.2659,362.67083 493.287,360.95558 493.287,360.95558 C 493.287,360.95558 502.6755,356.44182 503.0365,346.69207 C 503.3073,337.484 498.3423,329.7203 486.3352,329.53981 C 474.5094,329.26893 462.0969,329.53981 462.0969,329.53981 L 462.0969,388.48953 L 468.1996,388.48953 L 468.1996,362.49027 C 468.1996,362.49027 478.8426,362.3097 481.28,362.49027 C 485.6133,362.94164 489.405,362.49027 492.5644,370.8859 C 494.1895,375.03852 499.6058,388.48953 499.6058,388.48953 L 505.9251,388.48953 C 505.9251,388.48953 499.4253,371.51777 497.891,367.18458 z M 485.0718,357.52514 C 478.7524,357.52514 468.1811,357.52514 468.1811,357.52514 L 468.1811,334.95631 C 468.1811,334.95631 478.7524,334.95631 485.523,334.95631 C 492.2936,334.95631 496.9879,338.56731 497.3489,346.06013 C 497.6203,353.82382 490.5783,357.52514 485.0718,357.52514"
       style="font-size:18.17300034px;font-weight:bold;letter-spacing:-1.79190004;word-spacing:0;fill:#15427d;fill-rule:nonzero;stroke:none;font-family:Arial"
       id="path1374" />
    <path
       d="M 17.7166,358.42789 C 17.7166,347.324 23.1417,327.73424 43.4721,327.73424 C 59.5136,327.73424 67.6475,337.21319 68.1083,346.06013 L 62.2313,346.06013 C 60.6786,339.83119 56.8595,332.69943 43.4721,332.69943 C 29.4611,332.69943 23.6292,344.34494 23.5936,358.87926 C 23.5485,373.32334 29.4885,384.24659 43.9322,384.42715 C 56.2366,384.51747 62.9081,372.42059 62.6825,368.35814 L 68.5595,368.35814 C 68.5595,375.12884 61.4642,389.4826 44.1489,389.39235 C 20.6503,389.21179 17.7166,369.53177 17.7166,358.42789"
       style="font-size:18.17300034px;font-weight:bold;letter-spacing:-1.79190004;word-spacing:0;fill:#15427d;fill-rule:nonzero;stroke:none;font-family:Arial"
       id="path1376" />
    <path
       id="path1378"
       style="font-size:18.17300034px;font-weight:bold;letter-spacing:-1.79190004;word-spacing:0;fill:#db0038;fill-rule:nonzero;stroke:none;font-family:Arial"
       d="M 150.25225,17.63627 L 378.596,225.82377 L 378.596,194.13627 L 344.18975,194.13627 L 344.18975,155.23002 L 378.596,155.23002 L 378.596,118.82377 L 412.6585,118.82377 L 412.6585,81.91752 L 450.50225,81.91752 L 450.50225,46.35502 L 488.4085,46.35502 L 488.4085,81.19877 C 508.9016,56.91467 530.37723,44.88626 530.37725,44.88627 L 491.12725,44.88627 L 491.12725,17.63627 L 448.43975,17.63627 L 448.43975,43.63627 L 418.31475,43.63627 L 418.471,17.63627 L 372.93975,17.63627 L 372.93975,41.38627 L 348.221,41.38627 L 348.221,17.63627 L 298.4085,17.63627 L 298.4085,37.76127 L 278.56475,37.76127 L 278.56475,17.63627 L 150.25225,17.63627 z M 532.6585,17.63627 L 532.6585,43.26127 C 532.65848,43.26126 556.118,28.46937 584.2835,17.63627 L 532.6585,17.63627 z M 381.846,50.13627 L 411.50225,50.13627 L 411.50225,79.76127 L 381.846,79.76127 L 381.846,50.13627 z M 312.18975,52.48002 L 336.50225,52.48002 L 336.50225,76.76127 L 312.18975,76.76127 L 312.18975,52.48002 z M 244.00225,54.82377 L 263.56475,54.82377 L 263.56475,74.41752 L 244.00225,74.41752 L 244.00225,54.82377 z M 451.75225,84.79252 L 451.75225,116.04252 L 467.2835,116.04252 C 473.4491,101.05682 485.78349,84.79253 485.7835,84.79252 L 451.75225,84.79252 z M 345.971,85.35502 L 375.9085,85.35502 L 375.9085,115.23002 L 345.971,115.23002 L 345.971,85.35502 z M 277.18975,88.60502 L 301.81475,88.60502 L 301.81475,113.13627 L 277.18975,113.13627 L 277.18975,88.60502 z M 413.87725,120.91752 L 413.87725,153.94877 L 446.93975,153.94877 L 446.93975,120.91752 L 413.87725,120.91752 z M 311.00225,121.73002 L 340.62725,121.73002 L 340.62725,151.32377 L 311.00225,151.32377 L 311.00225,121.73002 z M 379.7835,157.91752 L 379.7835,188.35502 L 409.87725,188.35502 L 409.87725,157.91752 L 379.7835,157.91752 z M 418.7835,195.29252 L 418.7835,219.23002 L 444.2835,219.23002 L 444.2835,195.29252 L 418.7835,195.29252 z M 384.971,231.51127 L 409.721,254.16752 L 409.721,231.51127 L 384.971,231.51127 z M 423.06475,266.26127 L 445.2835,286.57377 L 445.2835,266.26127 L 423.06475,266.26127 z " />
  </g>
</svg>
