<?xml version="1.0" encoding="UTF-8" standalone="no"?>
<svg
   id="Layer_1"
   data-name="Layer 1"
   version="1.1"
   viewBox="0 0 499.99999 77.768688"
   sodipodi:docname="Croatia Airlines 2024 logo.svg"
   width="500"
   height="77.768692"
   inkscape:version="1.4 (86a8ad7, 2024-10-11)"
   xmlns:inkscape="http://www.inkscape.org/namespaces/inkscape"
   xmlns:sodipodi="http://sodipodi.sourceforge.net/DTD/sodipodi-0.dtd"
   xmlns="http://www.w3.org/2000/svg"
   xmlns:svg="http://www.w3.org/2000/svg">
  <sodipodi:namedview
     id="namedview6"
     pagecolor="#ffffff"
     bordercolor="#000000"
     borderopacity="0.25"
     inkscape:showpageshadow="2"
     inkscape:pageopacity="0.0"
     inkscape:pagecheckerboard="0"
     inkscape:deskcolor="#d1d1d1"
     inkscape:zoom="3.5927808"
     inkscape:cx="197.06184"
     inkscape:cy="55.806355"
     inkscape:window-width="1920"
     inkscape:window-height="1001"
     inkscape:window-x="-9"
     inkscape:window-y="-9"
     inkscape:window-maximized="1"
     inkscape:current-layer="Layer_1" />
  <defs
     id="defs1">
    <style
       id="style1">
      .cls-1, .cls-2, .cls-3, .cls-4 {
        stroke-width: 0px;
      }

      .cls-1, .cls-4 {
        fill: #19386e;
      }

      .cls-2 {
        fill: #007ac0;
      }

      .cls-3 {
        fill: #c20016;
      }

      .cls-4 {
        fill-rule: evenodd;
      }
    </style>
  </defs>
  <g
     id="g1"
     transform="matrix(0.50038731,0,0,0.50038731,-1.3330078e-6,9.9853516e-8)"
     style="stroke-width:1.99845">
    <polyline
       id="polyline227"
       class="cls-4"
       points="457.518 93.606 457.221 31.796 435.432 31.796 435.432 25.227 484.693 25.227 484.693 31.498 463.79 31.498 464.093 93.606 457.518 93.606" />
    <rect
       id="rect229"
       class="cls-1"
       x="495.793"
       y="25.524"
       width="6.2779999"
       height="68.082001" />
    <rect
       id="rect231"
       class="cls-1"
       x="667.57703"
       y="25.524"
       width="5.974"
       height="68.082001" />
    <rect
       id="rect233"
       class="cls-1"
       x="805.14099"
       y="25.226999"
       width="5.9679999"
       height="68.081001" />
    <polyline
       id="polyline235"
       class="cls-4"
       points="756.647 93.606 756.647 25.227 763.811 25.227 763.811 87.037 793.371 87.037 793.669 93.606 756.647 93.606" />
    <polyline
       id="polyline237"
       class="cls-4"
       points="829.46 93.606 829.46 25.227 836.624 25.227 876.633 82.556 876.633 25.227 883.505 25.227 883.505 93.606 875.74 93.606 836.624 37.77 836.32 93.606 829.46 93.606" />
    <polyline
       id="polyline239"
       class="cls-4"
       points="901.464 93.606 901.464 25.227 938.188 25.227 938.188 31.498 908.622 31.498 908.622 53.888 936.391 53.888 936.391 61.35 908.622 61.35 908.622 87.037 939.074 87.037 939.378 93.606 901.464 93.606" />
    <path
       id="path241"
       class="cls-4"
       d="m 991.156,43.136 h 6.265 c 0,0 0.899,-20.302 -23.89,-20.302 -17.91,0 -22.39,11.347 -22.39,19.713 0.304,9.252 6.272,14.328 17.612,17.017 11.049,2.987 23.89,5.069 24.194,14.036 0.297,11.341 -7.461,16.416 -17.922,16.119 -19.403,-0.601 -19.403,-16.72 -19.403,-16.72 h -5.67 c 0,0 -2.392,22.099 25.675,22.099 14.625,0 23.89,-7.176 23.592,-20.004 -0.601,-16.131 -12.543,-16.732 -23.295,-20.017 -11.043,-3.278 -18.213,-4.474 -18.511,-14.024 0,-9.86 8.955,-12.84 15.827,-12.84 18.213,0 17.916,14.923 17.916,14.923" />
    <path
       id="path243"
       class="cls-4"
       d="m 188.698,58.666 c 0,-12.847 6.271,-35.534 29.858,-35.534 18.808,0 28.067,11.049 28.662,21.2 h -6.866 c -1.791,-7.164 -6.265,-15.524 -21.795,-15.524 -16.125,0 -22.991,13.739 -22.991,30.459 0,16.72 6.866,29.56 23.586,29.56 14.334,0.291 22.093,-13.733 21.801,-18.517 h 6.866 c 0,7.765 -8.36,24.485 -28.364,24.187 -27.174,0 -30.756,-22.991 -30.756,-35.832" />
    <path
       id="path247"
       class="cls-4"
       d="M 282.454,57.774 H 265.431 V 31.498 h 20.308 c 7.765,0 13.733,4.48 13.733,11.638 0,10.448 -7.164,14.638 -14.631,14.638 h -2.386 m -10e-4,-32.547 c -12.245,-0.304 -23.586,0 -23.586,0 v 68.379 h 6.866 V 63.445 h 15.226 c 0.595,0 0.899,0 1.494,0.297 3.879,0.304 8.36,0.892 11.644,9.556 1.791,4.778 8.062,20.308 8.062,20.308 h 7.468 c 0,0 -8.664,-21.207 -10.157,-25.383 -2.088,-5.082 -4.474,-6.575 -4.474,-6.575 0,0 11.043,-5.367 11.043,-16.416 0.297,-11.049 -5.075,-19.707 -19.106,-20.004 h -4.481 z" />
    <path
       id="path249"
       class="cls-4"
       d="m 348.423,89.202 c 17.315,0 25.377,-16.416 25.377,-28.965 0,-13.727 -5.373,-31.345 -23.89,-31.345 h -1.487 c -20.605,0.892 -25.681,17.315 -25.681,31.649 0,16.72 7.164,28.37 25.681,28.662 m 0,-65.69 c 22.39,0.304 31.649,17.916 31.649,33.743 0,16.125 -6.866,37.325 -31.351,37.325 0,0.297 -0.297,0 -0.297,0 -25.681,0 -32.547,-17.618 -32.547,-35.832 0,-17.916 10.151,-34.933 32.547,-35.237" />
    <path
       id="path251"
       class="cls-4"
       d="m 411.375,65.533 h -12.847 l 12.847,-32.845 0.291,-0.601 12.543,33.446 h -12.834 m 0,-40.009 h -3.291 l -26.877,68.082 h 6.569 l 8.961,-21.801 h 29.56 l 8.967,21.801 h 6.563 L 415.551,25.525 h -4.177 z" />
    <path
       id="path253"
       class="cls-4"
       d="m 542.789,65.533 h -12.834 l 12.834,-32.845 0.297,-0.601 12.543,33.446 h -12.84 m 0,-40.009 h -3.278 l -26.877,68.082 h 6.569 l 8.961,-21.801 h 29.554 l 8.961,21.801 h 6.569 L 546.669,25.525 h -3.879 z" />
    <path
       id="path255"
       class="cls-4"
       d="m 626.852,65.235 h -12.84 l 12.84,-32.845 0.297,-0.595 12.543,33.44 h -12.84 m 0,-40.008 h -3.291 L 596.69,93.309 h 6.569 l 8.955,-21.801 h 29.56 l 8.967,21.801 h 6.563 L 630.725,25.228 h -3.873 z" />
    <path
       id="path257"
       class="cls-4"
       d="M 716.392,57.902 H 699.375 V 31.626 h 20.302 c 7.759,0 13.138,4.177 13.739,12.834 0.285,8.961 -8.062,13.442 -14.334,13.442 h -2.69 m 0,-32.548 c -12.239,-0.304 -23.89,0 -23.89,0 v 68.379 h 6.873 V 63.572 c 0,0 12.531,-0.304 15.22,0 0.601,0 1.196,0 1.797,0.297 4.177,0.304 8.056,0.892 11.341,9.556 1.797,4.778 8.069,20.308 8.069,20.308 h 7.461 c 0,0 -7.461,-19.713 -9.258,-24.782 -2.082,-5.082 -5.373,-7.176 -5.373,-7.176 0,0 10.752,-5.367 11.347,-16.416 0.304,-10.752 -5.677,-19.707 -19.409,-20.004 h -4.177 v 0 z" />
  </g>
  <rect
     class="cls-2"
     y="64.612518"
     width="11.946747"
     height="11.946747"
     id="rect1"
     x="0" />
  <rect
     class="cls-1"
     x="19.740768"
     y="42.602474"
     width="14.716391"
     height="14.716391"
     id="rect2" />
  <rect
     class="cls-3"
     x="39.346451"
     y="20.626965"
     width="17.586613"
     height="17.586613"
     id="rect3" />
  <rect
     class="cls-1"
     x="40.757034"
     y="63.052303"
     width="14.716391"
     height="14.716391"
     id="rect4" />
  <rect
     class="cls-3"
     x="60.362717"
     y="41.076794"
     width="17.586613"
     height="17.586613"
     id="rect5" />
  <rect
     class="cls-3"
     x="60.473801"
     width="17.586613"
     height="17.586613"
     id="rect6"
     y="0" />
</svg>
