<?xml version="1.0" encoding="UTF-8" standalone="no"?>
<!-- Created with Inkscape (http://www.inkscape.org/) -->

<svg
   width="132.29166mm"
   height="27.893757mm"
   viewBox="0 0 132.29166 27.893757"
   version="1.1"
   id="svg1"
   inkscape:version="1.4 (86a8ad7, 2024-10-11)"
   sodipodi:docname="Czech_Airlines_old.svg"
   xmlns:inkscape="http://www.inkscape.org/namespaces/inkscape"
   xmlns:sodipodi="http://sodipodi.sourceforge.net/DTD/sodipodi-0.dtd"
   xmlns="http://www.w3.org/2000/svg"
   xmlns:svg="http://www.w3.org/2000/svg">
  <sodipodi:namedview
     id="namedview1"
     pagecolor="#ffffff"
     bordercolor="#000000"
     borderopacity="0.25"
     inkscape:showpageshadow="2"
     inkscape:pageopacity="0.0"
     inkscape:pagecheckerboard="0"
     inkscape:deskcolor="#d1d1d1"
     inkscape:document-units="mm"
     inkscape:zoom="0.69753788"
     inkscape:cx="-119.70676"
     inkscape:cy="128.30844"
     inkscape:window-width="1920"
     inkscape:window-height="1001"
     inkscape:window-x="-9"
     inkscape:window-y="-9"
     inkscape:window-maximized="1"
     inkscape:current-layer="layer1" />
  <defs
     id="defs1" />
  <g
     inkscape:label="Layer 1"
     inkscape:groupmode="layer"
     id="layer1"
     transform="translate(-136.39272,-114.37585)">
    <path
       clip-rule="evenodd"
       d="m 247.78433,119.2863 2.32985,0.004 0.46769,-1.85424 -1.16225,-0.55199 h 3.25799 l -1.67471,6.25497 -1.93612,-0.0143 0.66804,-2.58647 -2.28022,0.0102 -0.77099,2.59014 h -1.87204 l 1.46924,-5.61948 -1.1164,-0.64826 -0.46273,1.46967 -3.3628,-0.004 c -0.0164,0.002 -0.50363,1.77787 -0.72674,2.67939 -0.039,0.32681 0.10911,0.53796 0.29088,0.54412 0.0143,-0.0102 3.27103,-0.0102 3.27103,-0.0102 l -0.48094,1.58925 h -3.9569 c -0.43958,-0.0123 -0.82696,-0.2929 -1.05151,-0.68704 -0.36192,-0.53659 -0.16613,-1.32613 0,-1.94638 l 0.83335,-2.87189 -1.45888,-0.71461 -0.12614,0.0257 -0.36955,1.39711 -3.84799,-0.0143 c 0.004,0.002 -0.22557,0.95717 -0.24214,0.95491 l 3.82393,-0.006 -0.3866,1.25639 -3.75478,-0.008 c 0.008,0.0102 -0.12963,0.42452 -0.15178,0.65905 7.8e-4,0.25231 0.13968,0.35645 0.44854,0.35987 l 3.23627,-0.004 -0.46041,1.58932 h -4.15413 c -0.49513,-0.0123 -0.90041,-0.57557 -1.0675,-1.05383 -0.14295,-0.59272 0.0818,-1.1854 0.22188,-1.72145 l 0.727,-2.70838 -1.09046,-0.70371 h -0.10994 l -0.44767,1.53785 -3.69293,3.05394 3.02862,0.0143 -0.38005,1.57962 h -5.47279 l 0.36708,-1.5813 3.85776,-3.21412 -2.99551,0.004 0.17823,-0.75225 -1.05953,-0.63683 -0.46515,1.37762 -3.3994,-0.002 c -0.33647,0.90109 -0.63393,1.86726 -0.82972,2.82619 0,0.19792 0.19464,0.39592 0.39149,0.39592 h 3.12938 l -0.32837,1.58297 -4.25363,-0.006 c -0.4452,-0.0851 -0.75406,-0.50746 -0.94911,-0.87476 -0.22258,-0.36615 -0.0835,-0.93081 0,-1.3536 0.33637,-1.07155 0.65903,-2.18259 0.89414,-3.24446 l -1.42285,-0.78947 31.48781,0.0205 -0.60468,2.40399"
       id="path331"
       style="fill:#005596;fill-rule:evenodd;stroke-width:0.205103" />
    <polyline
       clip-rule="evenodd"
       points="300.194,165.925 297.215,176.862 293.847,176.85   296.385,167.396 294.044,165.918 300.194,165.925 "
       id="polyline333"
       transform="matrix(0.57210922,0,0,0.57210922,55.713878,30.154505)"
       style="fill:#005596;fill-rule:evenodd" />
    <polyline
       clip-rule="evenodd"
       points="337.949,165.912 340.81,173.066 342.375,167.299   340.295,165.912 345.998,165.925 342.959,176.874 339.054,176.862 336.611,170.799 334.728,176.854 331.555,176.854   334.269,167.496 332.006,165.925 337.949,165.912 "
       id="polyline335"
       transform="matrix(0.57210922,0,0,0.57210922,55.713878,30.154505)"
       style="fill:#005596;fill-rule:evenodd" />
    <path
       clip-rule="evenodd"
       d="m 235.05382,127.78557 c 0.25326,-0.59252 0.52212,-1.487 0.0843,-2.1163 -0.22314,-0.31027 -0.58652,-0.58792 -1.05298,-0.58214 l -5.99298,-0.008 1.40306,0.81359 -1.47,5.45048 2.07493,-0.0164 0.83828,-3.17407 c -0.0102,-0.004 0.39751,-1.68827 0.40161,-1.6854 0.37722,-0.004 1.40201,-0.004 1.94684,-0.0164 0.32546,0.0123 0.25852,0.55952 0.20244,0.84217 -0.0698,0.36557 -0.22479,0.85242 -0.57599,0.85529 -0.24046,-0.004 -1.4628,-0.004 -1.97493,-6.2e-4 l 1.77014,3.17869 h 2.03903 l -1.36859,-2.42576 c 0.69908,-0.0851 1.32876,-0.39018 1.67501,-1.12765"
       id="path337"
       style="fill:#005596;fill-rule:evenodd;stroke-width:0.205103" />
    <polyline
       clip-rule="evenodd"
       points="291.404,165.911 291.425,176.876 288.281,176.864   288.232,168.474 282.911,176.876 279.082,176.876 285.302,167.193 283.056,165.911 291.404,165.911 "
       id="polyline339"
       transform="matrix(0.57210922,0,0,0.57210922,55.713878,30.154505)"
       style="fill:#005596;fill-rule:evenodd" />
    <path
       clip-rule="evenodd"
       d="m 268.68438,125.07184 c 0,0 -0.42811,1.46985 -0.42253,1.4742 -0.7364,-0.006 -2.50683,-0.006 -3.80954,-0.002 -0.0206,-0.004 1.94767,1.20839 2.86821,1.85772 0.28025,0.25385 0.5034,0.59309 0.47637,1.01533 -0.15075,0.75736 -0.30451,1.81589 -1.00772,1.92621 -0.042,-0.008 -5.17325,-0.0143 -5.17325,-0.0143 l 0.42563,-1.57274 4.14773,-0.004 c -0.92043,-0.62009 -1.99604,-1.21511 -2.91779,-1.8639 -0.33718,-0.19751 -0.5075,-0.44964 -0.47515,-0.93026 -0.0289,-0.42452 0.10563,-0.73628 0.22311,-1.10021 0,0 -1.24569,-0.7826 -1.25684,-0.79058 l 6.92177,-0.002"
       id="path341"
       style="fill:#005596;fill-rule:evenodd;stroke-width:0.205103" />
    <polyline
       clip-rule="evenodd"
       points="315.631,165.911 321.603,165.911 319.374,174.108   323.826,174.104 323.191,176.864 315.287,176.864 317.842,167.242 315.5,165.961 315.631,165.911 "
       id="polyline343"
       transform="matrix(0.57210922,0,0,0.57210922,55.713878,30.154505)"
       style="fill:#005596;fill-rule:evenodd" />
    <polyline
       clip-rule="evenodd"
       points="330.823,165.925 327.845,176.862 324.475,176.85   327.013,167.396 324.672,165.918 330.823,165.925 "
       id="polyline345"
       transform="matrix(0.57210922,0,0,0.57210922,55.713878,30.154505)"
       style="fill:#005596;fill-rule:evenodd" />
    <path
       clip-rule="evenodd"
       d="m 261.22147,125.08219 -7.14173,-0.004 v 0.0143 l 1.16885,0.77515 -0.72552,2.70777 c -0.14214,0.53552 -0.36565,1.12767 -0.22483,1.71927 0.16633,0.47997 0.57229,1.04753 1.06687,1.05553 h 4.15561 l 0.46276,-1.59165 -3.2392,0.008 c -0.30825,-0.004 -0.44606,-0.10727 -0.44875,-0.361 0.0205,-0.23345 0.15752,-0.6511 0.15321,-0.65966 l 3.75467,0.0102 0.38711,-1.2564 -3.82266,0.008 c 0.0205,0.002 0.24436,-0.95484 0.24155,-0.95655 l 3.84677,0.0143 0.36559,-1.46688"
       id="path347"
       style="fill:#005596;fill-rule:evenodd;stroke-width:0.205103" />
    <polyline
       clip-rule="evenodd"
       points="147.428,147.212 175.766,147.212 154.458,150.546   147.428,147.212 "
       id="polyline349"
       transform="matrix(0.57210922,0,0,0.57210922,55.713878,30.154505)"
       style="fill:#e31836;fill-rule:evenodd" />
    <path
       clip-rule="evenodd"
       d="m 136.39272,116.81883 h 19.26763 l -1.11967,4.09669 h -9.46732 c 0,0 -1.02713,3.68198 -1.06983,3.89522 -0.098,0.5082 -0.098,1.60264 1.52595,1.62785 1.47626,0.0213 7.40842,-0.0248 7.40842,-0.0248 l -1.24806,4.45444 h -10.69033 c -0.68633,0 -1.80486,-0.27976 -2.44263,-1.0429 -0.72345,-0.86795 -0.96637,-1.66465 -0.76353,-3.2574 0.15158,-1.19766 2.01174,-7.66069 2.01174,-7.66069 l -3.41237,-2.08817"
       id="path351"
       style="fill:#e31836;fill-rule:evenodd;stroke-width:0.205103" />
    <path
       clip-rule="evenodd"
       d="m 155.89009,116.81883 h 18.24795 l -1.19612,4.07159 h -9.46855 l 6.94862,3.4114 c 0,0 1.06971,0.71177 0.91742,2.21407 -0.18377,1.80264 -0.43235,2.67153 -1.45048,3.51234 -1.01834,0.83979 -2.18966,0.81394 -2.75032,0.83979 -0.55821,0.0238 -12.77556,0 -12.77556,0 l 1.27218,-4.45464 h 9.56889 c 0,0 -6.10728,-3.05436 -6.46403,-3.3082 -0.35733,-0.25408 -0.71226,-0.78939 -0.83989,-1.47557 -0.1329,-0.73362 0.2809,-2.26498 0.71351,-2.72345 0.0205,-0.0205 0.0229,0 0.0229,0 l -2.74776,-2.08733"
       id="path353"
       style="fill:#e31836;fill-rule:evenodd;stroke-width:0.205103" />
    <polyline
       clip-rule="evenodd"
       points="207.708,151.483 233.024,151.483 233.024,176.039   223.412,176.039 223.412,157.576 212.469,176.039 201.437,176.039 215.271,155.131 207.708,151.483 "
       id="polyline355"
       transform="matrix(0.57210922,0,0,0.57210922,55.713878,30.154505)"
       style="fill:#e31836;fill-rule:evenodd" />
    <polyline
       clip-rule="evenodd"
       points="274.304,176.039 233.644,176.039 222.833,192.233   274.304,176.039 "
       id="polyline357"
       transform="matrix(0.57210922,0,0,0.57210922,55.713878,30.154505)"
       style="fill:#e31836;fill-rule:evenodd" />
    <polyline
       clip-rule="evenodd"
       points="220.699,195.968 221.943,193.834 274.304,177.284   274.304,179.154 220.699,195.968 "
       id="polyline359"
       transform="matrix(0.57210922,0,0,0.57210922,55.713878,30.154505)"
       style="fill:#e31836;fill-rule:evenodd" />
    <polyline
       clip-rule="evenodd"
       points="249.393,151.483 274.261,151.483 242.81,161.892   249.393,151.483 "
       id="polyline361"
       transform="matrix(0.57210922,0,0,0.57210922,55.713878,30.154505)"
       style="fill:#e31836;fill-rule:evenodd" />
    <polyline
       clip-rule="evenodd"
       points="274.304,162.246 242.453,162.246 233.999,175.595   274.304,162.246 "
       id="polyline363"
       transform="matrix(0.57210922,0,0,0.57210922,55.713878,30.154505)"
       style="fill:#005596;fill-rule:evenodd" />
  </g>
</svg>
