<?xml version="1.0" encoding="utf-8"?>
<!-- Generator: Adobe Illustrator 24.1.3, SVG Export Plug-In . SVG Version: 6.00 Build 0)  -->
<svg version="1.1" id="Layer_1" xmlns="http://www.w3.org/2000/svg" xmlns:xlink="http://www.w3.org/1999/xlink" x="0px" y="0px"
	 viewBox="0 0 460.4 152.9" style="enable-background:new 0 0 460.4 152.9;" xml:space="preserve">
<style type="text/css">
	.st0{fill:#0F2C64;}
	.st1{fill-rule:evenodd;clip-rule:evenodd;fill:#EF001E;}
</style>
<g transform="matrix(.59497106 0 0 .59497106 -181.43841 -306.29716)">
	<path class="st0" d="M615.3,594.7c-9.2,0-16.8,1.6-22.6,5.1c-1.1,0.7-2.1,1.6-3.1,2.4c-1,0.8-2,1.7-2.9,2.7
		c-3.1,3.4-5.5,7.8-7.1,13.1c-1.5,5.2-2.2,11.2-2.2,18.2c0,5.2,0.5,9.8,1.6,14c0.2,0.9,0.4,1.7,0.7,2.4c0.2,0.8,0.6,1.4,0.9,2.2
		c1,2.6,2.2,5.2,3.8,7.3c1.6,2.2,3.5,4.1,5.5,5.8c2.3,1.9,4.8,3.4,7.3,4.4c0.5,0.2,0.8,0.3,1.3,0.4c0.5,0.2,1.1,0.3,1.6,0.4v0.2
		c1.5,0.5,3.3,0.6,5.3,0.9c0.4,0.1,0.7,0.2,1.1,0.2c2.4,0.3,5.2,0.4,8.2,0.4h29.3v-11.8h-28.4c-3.3,0-5.9-0.3-8.2-1.1
		c-2.2-0.8-3.9-2-5.1-3.5c-1.3-1.5-2.2-3.7-2.9-6.4c-0.7-2.9-1.1-6.3-1.1-10.4c0-6.8,0.8-21.7,2.2-25.7c0.3-0.7,0.6-1.5,0.9-2.2
		c0.3-0.7,0.8-1.3,1.1-1.8c1.3-1.9,3-3.3,5.1-4.2c2.2-1,4.8-1.6,8-1.6h28.4v-11.5L615.3,594.7L615.3,594.7z M650.8,594.7v11.5h46.4
		l-46.4,56.4V675h68.3v-11.8h-44.4l44.4-56.1v-12.4H650.8z M762.9,594.7c-9.2,0-16.6,1.6-22.4,5.1c-1.1,0.7-2.3,1.6-3.3,2.4
		c-1,0.8-2,1.7-2.9,2.7c-3.1,3.4-5.3,7.8-6.9,13.1c-1.5,5.2-2.4,11.2-2.4,18.2c0,5.2,0.5,9.8,1.6,14c0.2,0.9,0.4,1.7,0.7,2.4
		c0.2,0.8,0.6,1.4,0.9,2.2c1,2.6,2.4,5.2,4,7.3c1.6,2.2,3.2,4.1,5.3,5.8c2.3,1.9,4.8,3.4,7.3,4.4c0.5,0.2,1.1,0.3,1.6,0.4
		c0.5,0.2,1.1,0.3,1.6,0.4v0.2c1.5,0.5,3.1,0.6,5.1,0.9c0.4,0.1,1,0.2,1.3,0.2c2.4,0.3,5.2,0.4,8.2,0.4h29.1v-11.8h-28.2
		c-3.3,0-6.2-0.3-8.4-1.1c-2.2-0.8-3.9-2-5.1-3.5c-1.2-1.5-2.2-3.7-2.9-6.4c-0.7-2.9-0.9-6.3-0.9-10.4c0-0.4,0-0.7,0-1.1h45.5v-11.8
		h-45c0.4-5.5,1-10.7,1.8-12.9c0.3-0.7,0.6-1.5,0.9-2.2c0.3-0.7,0.5-1.3,0.9-1.8c1.3-1.9,3.2-3.3,5.3-4.2c2.2-1,4.9-1.6,8-1.6h28.2
		v-11.5L762.9,594.7L762.9,594.7z M835.6,594.7c-9.2,0-16.8,1.6-22.6,5.1c-1.1,0.7-2.3,1.6-3.3,2.4c-1,0.8-1.8,1.7-2.7,2.7
		c-3.1,3.4-5.5,7.8-7.1,13.1c-1.5,5.2-2.2,11.2-2.2,18.2c0,5.2,0.5,9.8,1.6,14c0.2,0.9,0.4,1.7,0.7,2.4c0.2,0.8,0.4,1.4,0.7,2.2h0.2
		c1,2.6,2.2,5.2,3.8,7.3c1.6,2.2,3.5,4.1,5.5,5.8c2.3,1.9,4.6,3.4,7.1,4.4c0.5,0.2,1.1,0.3,1.6,0.4c0.5,0.2,1.1,0.3,1.6,0.4v0.2
		c1.5,0.5,3.4,0.6,5.3,0.9c0.4,0.1,0.7,0.2,1.1,0.2c2.4,0.3,5.2,0.4,8.2,0.4h29.3v-11.8h-28.4c-3.3,0-5.9-0.3-8.2-1.1
		c-2.2-0.8-3.9-2-5.1-3.5h-0.2c-1.3-1.5-2-3.7-2.7-6.4c-0.7-2.9-1.1-6.3-1.1-10.4c0-6.8,0.8-21.7,2.2-25.7c0.3-0.7,0.6-1.5,0.9-2.2
		c0.3-0.7,0.7-1.3,1.1-1.8c1.3-1.9,3-3.3,5.1-4.2c2.2-1,4.9-1.6,8-1.6h28.4v-11.5L835.6,594.7L835.6,594.7z M872.9,594.7V675h19.3
		v-34.4h26.6V675h19.5v-80.3h-19.5v34.2h-26.6v-32.6v-1.6H872.9z M591.1,691.5l-0.4,0.9l-32.6,77.2l-0.9,2.2h20.6l0.4-1.1l8.2-21.5
		h28l8.2,21.5l0.4,1.1h21.5l-0.9-2.2l-32.8-77.2l-0.4-0.9h-18.2H591.1z M648.1,691.5v80.3h18.6h1.6v-80.3H648.1z M679.2,691.5v80.3
		h19.5v-30.4h16.4l16.6,29.5l0.4,0.9h22l-1.6-2.4l-18-30.4c3-0.9,5.4-2.3,7.5-4.2c0.5-0.5,1.1-0.8,1.6-1.3c0.4-0.5,0.7-1.2,1.1-1.8
		h0.2c1.5-2,2.4-4.3,3.1-6.9c0.7-2.6,1.1-5.3,1.1-8.4c0-6-1.1-11.1-3.5-14.9c-0.5-0.7-1-1.5-1.6-2.2c-0.6-0.7-1.3-1.2-2-1.8
		c-2.4-2-5.2-3.4-8.9-4.4c-3.5-1-7.8-1.6-12.6-1.6h-39.9H679.2L679.2,691.5z M758,691.5v47.5c0,3.1,0.2,5.8,0.4,8.2
		c0.3,2.5,0.8,4.7,1.3,6.4c0.8,2.6,1.9,4.9,3.5,7.1c2.4,3.2,5.6,6.2,9.1,8c0.5,0.3,1.1,0.5,1.6,0.7c2.3,1,4.6,1.4,7.1,1.8
		c0.4,0.1,0.9,0.2,1.3,0.2c2.7,0.3,5.9,0.4,9.5,0.4h22.2c0-3.9,0-7.8,0-11.8h-20.6c-2.9,0-6.1,0.1-8.9-0.9
		c-5.1-1.8-6.8-5.4-7.1-10.6c-0.1-1.6,0-3.6,0-5.8v-51.3L758,691.5L758,691.5z M819.6,691.5v80.3h18.6h1.6v-80.3H819.6z
		 M850.5,691.5v80.3h20l-0.2-1.6l-0.7-52.1l30.2,52.8l0.4,0.9h21.5v-80.3h-20v1.6l0.7,49.3L874,692.3l-0.4-0.9H852H850.5
		L850.5,691.5z M967.2,691.5c-9.2,0-16.8,1.8-22.6,5.3c-1.1,0.7-2.3,1.4-3.3,2.2c-1,0.8-1.8,1.7-2.7,2.7c-3.1,3.4-5.5,7.8-7.1,13.1
		c-1.5,5.2-2.2,11.2-2.2,18.2c0,5.2,0.5,9.8,1.6,14c0.2,0.9,0.4,1.7,0.7,2.4c0.2,0.8,0.4,1.5,0.7,2.2h0.2v0.2c1,2.6,2.2,4.9,3.8,7.1
		c1.6,2.2,3.5,4.1,5.5,5.8c2.3,1.8,4.8,3.4,7.3,4.4c0.5,0.2,0.8,0.5,1.3,0.7c0.5,0.2,1.1,0.3,1.6,0.4c1.5,0.4,3.4,0.9,5.3,1.1
		c0.4,0.1,0.7,0,1.1,0c2.4,0.3,5.2,0.4,8.2,0.4h29.3V760h-28.4c-3.3,0-5.9-0.3-8.2-1.1c-2.2-0.8-3.9-1.8-5.1-3.3
		c-1.3-1.5-2.2-3.7-2.9-6.4c-0.7-2.9-1.1-6.3-1.1-10.4c0-0.4,0-0.9,0-1.3h45.7v-11.8h-45.3c0.4-5.5,1-10.7,1.8-12.9
		c0.3-0.7,0.5-1.3,0.9-2c0.3-0.6,0.7-1.3,1.1-1.8v-0.2c1.3-1.9,3-3.3,5.1-4.2c2.2-1,4.9-1.3,8-1.3h28.4v-11.8L967.2,691.5
		L967.2,691.5z M1031.1,691.5c-7.4,0-16,0.9-21.7,6c-5.5,4.8-6.9,12.3-6.9,19.3c0,5.4,2.5,11.3,6.7,14.9c5.5,4.7,13.7,5.8,20.6,5.8
		h18c9.2,0,11.6,6.5,11.3,12c-0.2,4.1-3.4,10-12.4,10h-41c0,5.7,0,6.8,0,12.4h44.8c9.7,0,16.9-2,21.5-6c5.4-4.7,6.9-11.8,6.9-18.6
		c0-7.3-0.7-11.2-6-16c-1.7-1.5-4-2.7-6.7-3.5c-4.3-1.4-8.8-2-13.3-2h-19.3c-9.1-0.1-11.3-6.4-11.3-10.2
		c-0.1-8.1,6.7-11.5,14.6-11.5h38.4c0-5.7,0-6.8,0-12.4H1031.1z M698.7,703.2h18.2c2.7,0,4.9,0.1,6.7,0.7c1.7,0.5,2.9,1.5,3.8,2.4
		c1.6,1.9,2.4,5.3,2.4,10.2c0,3.6-0.5,6.2-1.3,8.2c-0.2,0.4-0.5,0.8-0.7,1.1s-0.4,0.6-0.7,0.9c-1.8,2.1-5.2,3.1-10.2,3.1h-18.2
		L698.7,703.2L698.7,703.2z M600.2,712.8l9.5,24.6h-18.9L600.2,712.8z"/>
	<path class="st1" d="M452.3,674.6h-47.6l3.8-16.2h30.6c10.5,0,15.6-9.1,8.1-14.3c-7.3-5.1-12.1-9.2-19.4-14.4
		c-14.7-10.5-7.8-34.8,16.9-35h44.9l-3.9,16h-30.1c-8.3-0.1-10.1,9-4.7,12.3l19.3,14.3C486.1,649.4,476.8,674.6,452.3,674.6z
		 M507,761.7c-4.8,8.9-16.2,12.7-25.4,8.3c-48.8-23.2-91.8-55.8-127.5-95.4h44.6l4-16.1h-28.2c-0.8,0-1.6,0-2.4-0.1
		c-4.2-0.6-6.7-2.3-8.1-4.5c-1.4-2.2-1.8-4.6-1.5-6.6c0-0.5,1.5-6.6,1.6-7.2l0-0.2l4.2-16.8h0c1.9-7.8,8.4-12.4,17-12.7h28.9
		l3.8-15.9h-19.9l-25,9.4l2.4-9.4h-3.5c-8-0.1-13.6,0.6-17.6,2.4c-3.6,1.7-6.2,4.4-7.4,8.4l-11.5,47.2c-10-12.7-19.3-25.9-27.9-39.8
		c-5.3-8.6-3.1-20.4,5.4-26.2c65.7-44.8,143.4-70.1,222.9-71.9c10.3-0.3,19,7.8,19.9,18c1.7,20.7,1.7,41.4,0.2,62.1l-42.4,0
		l-40.2,79.5h29.4l4.7-10.6c0.5-1.1,1-1.4,2.3-1.4h21.1c0.4,0,1.3,0.1,1.3,1.2l0.3,10.8h9.5C533.8,704.6,522,734,507,761.7
		L507,761.7L507,761.7z M531.9,648l-1-32.5c0-1.1-1-1.2-1.5-0.1l-14.8,32.9c-0.6,1.3-0.2,2.5,0.9,2.4h14.9
		C531.6,650.6,532,649.6,531.9,648L531.9,648z"/>
</g>
</svg>
