<?xml version="1.0" encoding="UTF-8" standalone="no"?>
<!-- Generator: Adobe Illustrator 14.0.0, SVG Export Plug-In . SVG Version: 6.00 Build 43363)  -->

<svg
   xmlns:dc="http://purl.org/dc/elements/1.1/"
   xmlns:cc="http://creativecommons.org/ns#"
   xmlns:rdf="http://www.w3.org/1999/02/22-rdf-syntax-ns#"
   xmlns:svg="http://www.w3.org/2000/svg"
   xmlns="http://www.w3.org/2000/svg"
   xmlns:sodipodi="http://sodipodi.sourceforge.net/DTD/sodipodi-0.dtd"
   xmlns:inkscape="http://www.inkscape.org/namespaces/inkscape"
   version="1.1"
   id="Layer_1"
   x="0px"
   y="0px"
   width="809"
   height="75"
   viewBox="0 0 809 75"
   enable-background="new 0 0 1302 852"
   xml:space="preserve">
<path
   style="fill:#6e80ad"
   d="m 537.12466,31.300425 c 0,-5.12647 -3.95265,-8.446697 -9.40012,-8.446697 -6.19968,0 -10.89974,5.13126 -13.25696,10.47812 l 0.1102,-6.199674 c 0,-3.20045 -0.321,-3.737053 -1.60502,-3.737053 -0.321,0 -0.642,0.110196 -1.0732,0.110196 -6.7267,0.953427 -13.77439,1.494821 -20.40527,1.815824 v 5.768476 c 2.46263,0 4.37906,-0.110195 6.41528,-0.321004 v 36.963282 h -7.37349 v 5.768476 h 32.68962 v -5.768476 h -8.54731 V 52.774103 c 0,-9.189316 0.6468,-13.884587 3.31065,-17.947434 1.28401,-1.815824 3.20524,-3.952652 5.45226,-3.952652 0.85761,0 2.13204,0.857606 2.13204,1.820616 0,3.42084 1.49961,5.337277 6.19967,5.337277 4.28324,0 5.35165,-3.526244 5.35165,-6.731485"
   id="path445" /><path
   style="fill:#6e80ad"
   d="m 480.60893,8.2265213 c 0,-4.5946581 -3.74184,-8.2263064807 -8.3365,-8.2263064807 -4.58987,0 -8.43711,3.6316483807 -8.43711,8.2263064807 0,4.4844627 3.84724,8.3317107 8.43711,8.3317107 4.59466,0 8.3365,-3.847248 8.3365,-8.3317107"
   id="path447" /><path
   style="fill:#6e80ad"
   d="m 809.00002,58.010768 c 0,-7.900513 -4.91566,-13.036564 -11.43634,-15.599799 -4.48925,-1.815824 -9.40491,-2.989642 -13.99478,-4.379059 -3.73705,-1.068413 -4.91087,-2.45783 -4.91087,-4.810257 0,-1.916437 2.66864,-4.805466 8.65271,-4.805466 6.51589,0 12.07835,3.310645 13.14197,10.578733 h 5.23667 V 24.037128 l -3.95745,-0.642007 -1.91643,2.67343 c -1.38942,-1.284013 -6.62609,-3.210032 -12.28437,-3.210032 -10.57873,0 -20.41005,5.883462 -20.41005,16.030997 0,8.015498 5.87867,11.857955 11.22074,13.884587 4.37906,1.605016 12.92637,3.42084 16.34721,5.984075 1.38462,1.068414 2.13682,2.457831 2.13682,4.489254 0,4.273655 -6.30507,5.447473 -9.72591,5.447473 -9.07913,0 -13.99479,-3.947861 -15.27401,-12.284362 l -5.34207,-0.100613 -0.11019,16.773616 2.67822,0.531811 3.30585,-2.774043 c 2.88903,1.700838 6.83689,4.158669 14.95779,4.158669 12.60058,-0.0048 21.68449,-7.694495 21.68449,-16.989215"
   id="path449" /><path
   style="fill:#6e80ad"
   d="m 708.5883,73.500371 v -5.768476 h -6.83689 V 42.842168 c 0,-5.878671 -0.2156,-10.25773 -3.84725,-14.526594 -3.31065,-4.067638 -8.3365,-5.457055 -13.24737,-5.457055 -6.73149,0 -12.82097,4.278446 -16.02621,8.235889 V 27.02677 c 0,-2.563235 -0.2156,-3.631649 -1.2888,-3.631649 -0.31621,0 -0.85282,0 -1.38942,0.110196 -6.51109,1.379834 -14.31579,2.026632 -20.29028,2.242231 v 5.552877 c 1.81583,0 4.48446,-0.321003 6.41048,-0.321003 v 36.752473 h -7.27287 v 5.768476 h 29.91558 v -5.768476 h -5.87388 V 37.389904 c 0.95343,-1.389417 2.34763,-3.095046 4.05805,-4.379059 1.71043,-1.389417 4.05806,-2.457831 6.19489,-2.457831 4.59466,0 6.19967,3.420841 6.19967,8.868313 v 28.310568 h -5.77326 v 5.768476 h 29.06756"
   id="path451" /><path
   style="fill:#6e80ad"
   d="m 634.55633,8.2265213 c 0,-4.5946581 -3.74185,-8.2263064807 -8.3365,-8.2263064807 -4.59466,0 -8.43712,3.6316483807 -8.43712,8.2263064807 0,4.4844627 3.84246,8.3317107 8.43712,8.3317107 4.59465,0 8.3365,-3.847248 8.3365,-8.3317107"
   id="path453" /><path
   style="fill:#6e80ad"
   d="m 640.96202,73.500371 v -5.768476 h -6.30029 V 25.747548 c 0,-0.862397 0.2156,-2.352427 -1.16902,-2.352427 -0.32101,0 -0.6468,0 -0.96301,0.110196 -3.74185,0.852814 -13.88938,1.916437 -21.05207,2.342844 v 5.768476 c 1.49962,0 5.02107,-0.316212 6.41049,-0.426407 v 36.536874 h -7.15311 v 5.768476 h 30.22701"
   id="path455" /><path
   style="fill:#6e80ad"
   d="m 608.91919,48.821451 h -5.02586 c -0.31621,4.379059 -1.28401,8.657505 -2.88423,11.651938 -2.46263,4.805467 -7.1579,7.047698 -17.73663,7.047698 h -6.73149 V 9.9704791 h 9.42408 v -5.984075 h -36.49854 v 5.984075 h 9.45282 V 67.521087 h -9.77382 v 5.984075 h 58.27885 l 1.49482,-24.683711"
   id="path457" /><path
   style="fill:#6e80ad"
   d="m 425.90902,44.336989 h -15.27879 l 7.69449,-23.826105 7.5843,23.826105 m 61.11039,29.163382 v -5.768476 h -6.30507 V 25.747548 c 0,-0.862397 0.21559,-2.352427 -1.17382,-2.352427 -0.31621,0 -0.64201,0 -0.85761,0.110196 -3.84245,0.852814 -13.99478,1.916437 -21.15267,2.342844 v 5.768476 c 1.49961,0 5.02106,-0.316212 6.41048,-0.426407 V 67.6217 H 451.66115 L 429.43527,3.0856786 h -12.39456 c -0.74262,2.989642 -4.37906,13.8893784 -7.5843,23.5051014 l -13.67378,40.915934 h -7.27288 v 5.984075 h 22.33129 v -5.984075 h -7.4789 l 5.55288,-17.626431 h 18.58944 l 5.45226,17.626431 h -8.54731 v 5.984075 h 62.61 z"
   id="path459" /><path
   style="fill:#6e80ad"
   d="m 744.41609,40.805953 c 0,0.862397 -0.10061,1.715211 -0.10061,1.288804 h -16.031 c 0,-3.636439 1.60022,-14.100186 8.6575,-14.100186 5.97929,-0.0048 7.47411,5.121678 7.47411,12.811382 m 16.66821,5.452264 c 0,-13.352776 -9.72113,-23.404489 -24.7939,-23.404489 -14.63679,0 -25.95815,10.262521 -25.95815,25.536525 0,15.705203 12.49997,26.600148 27.88416,26.600148 10.14754,0 17.73184,-5.548086 22.65229,-13.031773 l -5.24145,-4.168251 c -2.13204,3.852039 -8.43712,10.152326 -14.73741,10.152326 -10.14753,0 -12.61015,-8.762909 -12.61015,-18.268437 v -0.321003 h 30.7684 c 1.82061,0.0048 2.03621,-0.316212 2.03621,-3.095046 z"
   id="path461" /><path
   style="fill:#003976"
   d="m 318.10464,67.305488 -2.88903,-3.631649 c -1.91643,1.916438 -4.48446,3.952652 -7.04769,3.952652 -4.70007,0 -5.45227,-4.704853 -5.45227,-9.836114 V 29.374405 h 12.39456 V 23.60593 H 302.61025 V 9.1799488 h -4.69527 C 294.17313,17.621855 289.36767,22.748324 279.85735,24.35334 v 4.805466 h 6.30029 v 23.078695 c 0,5.974493 0.21559,9.931935 1.06841,12.816173 2.13683,7.268088 8.1209,9.931936 15.17339,9.931936 5.77327,0.0096 10.68414,-2.232649 15.7052,-7.680122"
   id="path463" /><path
   style="fill:#003976"
   d="m 279.10994,73.500371 v -5.768476 h -7.5843 V 2.9898568 c 0,-0.6420065 -0.31621,-2.13682744 -1.60023,-2.13682744 -0.2156,0 -0.53181,0.10540404 -0.8576,0.10540404 -6.62129,1.6050161 -18.15825,2.7788339 -21.25808,2.7788339 V 9.500952 c 2.45783,0 4.91087,-0.1006129 6.9375,-0.3162121 V 67.731895 h -7.2633 v 5.768476 h 31.62601"
   id="path465" /><path
   style="fill:#003976"
   d="m 229.11488,40.805953 c 0,0.862397 -0.11019,1.715211 -0.11019,1.288804 h -16.02142 c 0,-3.636439 1.60023,-14.100186 8.65272,-14.100186 5.97928,-0.0048 7.47889,5.121678 7.47889,12.811382 m 16.66342,5.452264 c 0,-13.352776 -9.71633,-23.404489 -24.78432,-23.404489 -14.63679,0 -25.96293,10.262521 -25.96293,25.536525 0,15.705203 12.49996,26.600148 27.88416,26.600148 10.15232,0 17.73662,-5.548086 22.65229,-13.031773 l -5.23667,-4.168251 c -2.13683,3.852039 -8.43711,10.152326 -14.74219,10.152326 -10.15233,0 -12.60537,-8.762909 -12.60537,-18.268437 v -0.321003 h 30.76361 c 1.82062,0.0048 2.03142,-0.316212 2.03142,-3.095046 z"
   id="path467" /><path
   style="fill:#003976"
   d="m 349.30424,61.858015 c -1.17861,1.600225 -3.63165,4.273655 -7.58909,4.273655 -4.16346,0 -6.9423,-3.315436 -6.9423,-7.373492 0,-7.5843 7.7999,-10.468538 14.53139,-11.326143 v 14.42598 m 27.02655,3.842457 -4.05805,-2.778834 c -0.74741,1.389417 -2.03142,3.526244 -3.74184,3.526244 -2.02664,0 -2.45784,-0.958218 -2.45784,-5.021065 V 43.15838 c 0,-3.310646 0,-6.726695 -0.95821,-10.042131 -2.67343,-8.54731 -12.17896,-10.262521 -19.97886,-10.262521 -5.55767,0 -11.64236,0.96301 -16.77362,3.210032 -4.16346,1.815824 -7.90051,4.379059 -7.90051,8.331711 0,4.379059 2.88424,5.878671 5.97928,5.878671 3.73706,0 6.51589,-2.67343 6.51589,-5.12647 0,-4.700062 1.60023,-6.626081 8.65271,-6.626081 6.08948,0 7.90531,3.521453 7.90531,9.404915 0,4.058056 -0.10062,4.594658 -1.71042,4.594658 -5.23188,0 -12.92158,1.279222 -17.94265,3.631649 -5.55287,2.774043 -10.36313,7.263297 -10.36313,14.100186 0,8.652714 6.72669,14.737402 15.3842,14.737402 5.87867,0 11.32135,-3.095046 15.274,-7.153102 1.81583,4.91087 5.76848,7.153102 11.00514,7.153102 6.9423,0.0048 11.96336,-3.095046 15.1686,-9.289929 z"
   id="path469" /><path
   style="fill:#003976"
   d="m 171.42054,37.2845 c 0,18.690053 -8.75812,30.231796 -22.9685,30.231796 h -4.05805 V 10.14775 c 2.24223,-0.4264077 3.09504,-0.4264077 4.91087,-0.4264077 14.42598,0 22.11568,8.5473097 22.11568,27.5631577 m 18.80504,0.531811 c 0,-21.468887 -14.31578,-34.2946429 -38.14189,-34.2946429 -9.29472,0 -17.52103,0.4359895 -21.79468,0.4359895 H 117.0608 V 10.01839 h 9.27556 v 57.502697 h -9.59656 v 5.984075 h 36.0913 c 22.11569,-0.0048 37.39448,-14.531385 37.39448,-35.688851 z"
   id="path471" /><path
   style="fill:#003976"
   d="M 102.15571,67.013231 V 65.78192 h 1.04925 c 0.42162,0 1.04925,0 1.04925,0.579723 0,0.546184 -0.34017,0.665961 -0.82407,0.651588 h -1.27443 m 1.75354,0.651589 c 0.77137,-0.05749 1.17861,-0.378496 1.17861,-1.178609 0,-0.450363 -0.11019,-0.87677 -0.50306,-1.125907 -0.32101,-0.191644 -0.8097,-0.201226 -1.17861,-0.201226 h -2.0985 v 4.34073 h 0.85281 V 67.66482 h 0.85282 l 0.9678,1.834988 h 0.98696 l -1.05883,-1.834988 z m -0.94384,2.917775 c -1.82062,0 -3.27232,-1.451701 -3.27232,-3.277107 0,-1.806242 1.4517,-3.262734 3.27232,-3.262734 1.81103,0 3.26273,1.456492 3.26273,3.262734 0,1.825406 -1.4517,3.277107 -3.26273,3.277107 z m 0,0.756993 c 2.20869,0 4.01972,-1.811033 4.01972,-4.0341 0,-2.208694 -1.81103,-4.019727 -4.01972,-4.019727 -2.23265,0 -4.034103,1.811033 -4.034103,4.019727 0,2.223067 1.801453,4.0341 4.034103,4.0341 z"
   id="path473" /><polyline
   style="fill:#ffffff"
   points="1044.718,745.952 1034.385,760.958 1055.052,760.958 1044.718,745.952 "
   id="polyline475"
   transform="matrix(4.7910929,0,0,4.7910929,-4955.8346,-3572.3201)" /><polyline
   style="fill:#003976"
   points="1044.718,754.822 1053.111,759.061 1044.718,746.877 1036.325,759.061 1044.718,754.822 "
   id="polyline477"
   transform="matrix(4.7910929,0,0,4.7910929,-4955.8346,-3572.3201)" /><polyline
   style="fill:#f15d2f"
   points="1044.718,756.701 1053.889,760.435 1035.547,760.435 1044.718,756.701 "
   id="polyline479"
   transform="matrix(4.7910929,0,0,4.7910929,-4955.8346,-3572.3201)" />
</svg>