<?xml version="1.0" encoding="utf-8"?>
<!-- Generator: Adobe Illustrator 16.0.3, SVG Export Plug-In . SVG Version: 6.00 Build 0)  -->
<!DOCTYPE svg PUBLIC "-//W3C//DTD SVG 1.1//EN" "http://www.w3.org/Graphics/SVG/1.1/DTD/svg11.dtd">
<svg version="1.1" id="svg3797" xmlns:svg="http://www.w3.org/2000/svg"
	 xmlns="http://www.w3.org/2000/svg" xmlns:xlink="http://www.w3.org/1999/xlink" x="0px" y="0px" width="326.778px"
	 height="134.731px" viewBox="88.589 169.818 326.778 134.731" enable-background="new 88.589 169.818 326.778 134.731"
	 xml:space="preserve">
<path id="path2915" fill="#E01010" d="M235.502,173.373h-65.301c-6.529,0-14.002,0-14.002,0L91.417,301.312c0,0,7.061,0,13.348,0
	c23.736,0,58.535,0.728,65.833,0.243c7.298-0.483,15.809-6.531,19.26-12.818c3.454-6.286,49.453-95.291,52.726-102.303
	C245.856,179.42,243.484,173.373,235.502,173.373 M197.904,205.056c-2.075,4.352-30.635,62.641-32.359,65.785
	c-1.726,3.144-5.543,5.318-7.721,5.318s-10.906,0.241-13.545,0c-2.638-0.24-4.845-2.659-3.077-6.287
	c1.768-3.627,31.707-63.85,32.887-66.267c1.178-2.419,3.83-5.08,7.216-5.08h13.544C197.749,198.525,199.978,200.702,197.904,205.056
	 M264.105,172.646h32.649c0,0-42.549,88.277-44.277,91.42c-1.726,3.146-2.212,8.707,2.384,8.707c4.595,0,31.901,0.244,31.901,0.244
	l-14.809,28.294h-56.593c-5.081,0-11.187-4.835-7.891-12.093C210.764,281.964,264.105,172.646,264.105,172.646 M319.426,173.373
	h93.113l-16.621,32.407h-24.913c-2.176,0-5.825,0.243-7.594,3.87c-1.769,3.63-40.668,91.663-40.668,91.663h-34.584
	c0,0,39.834-84.892,41.339-88.276c1.507-3.385,1.582-7.011-1.583-6.769c-3.167,0.24-26.604,0-26.604,0L319.426,173.373z"/>
<line fill="none" x1="122.196" y1="239.083" x2="140.484" y2="203.321"/>
</svg>
