<?xml version="1.0" encoding="utf-8"?>
<!-- Generator: Adobe Illustrator 16.0.3, SVG Export Plug-In . SVG Version: 6.00 Build 0)  -->
<!DOCTYPE svg PUBLIC "-//W3C//DTD SVG 1.1//EN" "http://www.w3.org/Graphics/SVG/1.1/DTD/svg11.dtd">
<svg version="1.1" id="Ebene_2" xmlns="http://www.w3.org/2000/svg" xmlns:xlink="http://www.w3.org/1999/xlink" x="0px" y="0px"
	 width="257.556px" height="117.298px" viewBox="0 0 257.556 117.298" enable-background="new 0 0 257.556 117.298"
	 xml:space="preserve">
<path fill="#272D62" d="M4.256,4.247h49.949c9.846,0,17.8,1.336,23.861,4.008c6.061,2.672,11.07,6.507,15.029,11.504
	c3.958,4.998,6.828,10.812,8.609,17.441c1.781,6.631,2.672,13.656,2.672,21.078c0,11.628-1.324,20.646-3.971,27.053
	c-2.647,6.408-6.321,11.776-11.021,16.105c-4.701,4.33-9.748,7.212-15.141,8.646c-7.373,1.979-14.053,2.969-20.039,2.969H4.256
	V4.247z M35.818,25.147v66.929h9.274c7.909,0,13.536-0.877,16.878-2.632c3.343-1.755,5.96-4.818,7.854-9.191
	c1.894-4.373,2.841-11.46,2.841-21.265c0-12.979-2.117-21.864-6.35-26.655c-4.234-4.791-11.252-7.186-21.056-7.186H35.818z"/>
<path fill="#272D62" d="M111.249,4.247h27.622v87.012h46.473v21.793h-74.094V4.247z"/>
<path fill="#272D62" d="M158.101,4.247H253.3v26.867h-34.289v81.938H192.39V31.114h-34.289V4.247z"/>
</svg>
