<?xml version="1.0" encoding="utf-8"?>
<!-- Generator: Adobe Illustrator 12.0.1, SVG Export Plug-In . SVG Version: 6.00 Build 51448)  -->
<!DOCTYPE svg PUBLIC "-//W3C//DTD SVG 1.0//EN" "http://www.w3.org/TR/2001/REC-SVG-20010904/DTD/svg10.dtd" [
	<!ENTITY ns_svg "http://www.w3.org/2000/svg">
	<!ENTITY ns_xlink "http://www.w3.org/1999/xlink">
]>
<svg  version="1.0" id="Ebene_1" xmlns="&ns_svg;" xmlns:xlink="&ns_xlink;" width="192.756" height="47.465"
	 viewBox="0 0 192.756 47.465" overflow="visible" enable-background="new 0 0 192.756 47.465" xml:space="preserve">
<polygon fill-rule="evenodd" clip-rule="evenodd" fill="#EA661E" points="0,0 192.756,0 192.756,47.465 0,47.465 0,0 "/>
<path fill-rule="evenodd" clip-rule="evenodd" fill="#FFFFFF" d="M129.649,28.649c-1.003,0-1.813,0.811-1.813,1.781
	c0,1.003,0.81,1.845,1.813,1.845s1.812-0.842,1.812-1.845C131.461,29.46,130.652,28.649,129.649,28.649z M139.678,29.892
	c-3.171,0-5.242-2.609-5.242-5.604c0-3.028,2.233-5.604,5.37-5.604c2.038,0,3.525,1.029,4.725,2.544h0.064v-3.415
	c-1.36-0.965-3.041-1.513-4.691-1.513c-4.465,0-8.121,3.479-8.121,7.988c0,4.573,3.494,7.988,8.088,7.988
	c1.811,0,3.333-0.548,4.821-1.546v-3.447h-0.065C143.364,28.925,141.844,29.892,139.678,29.892z M154.152,16.316
	c-4.503,0-8.057,3.571-8.057,8.012c0,4.439,3.588,7.947,8.057,7.947c4.467,0,8.054-3.508,8.054-7.947
	C162.206,19.888,158.652,16.316,154.152,16.316z M154.152,29.894c-3.229,0-5.446-2.51-5.446-5.598c0-3.057,2.217-5.598,5.446-5.598
	s5.445,2.541,5.445,5.598C159.598,27.384,157.382,29.894,154.152,29.894z M179.313,16.364c-1.876,0-3.721,0.856-4.643,2.569
	c-0.822-1.614-2.47-2.569-4.282-2.569c-1.58,0-2.897,0.824-3.72,2.108h-0.065v-1.68h-2.635v15.483h2.635V24.27
	c0-2.338,0.329-5.467,3.424-5.467c2.536,0,2.767,2.766,2.767,4.677v8.796h2.636v-8.203c0-2.338,0.327-5.27,3.357-5.27
	c2.7,0,2.832,2.47,2.832,4.479v8.994h2.634v-9.422C184.252,19.592,183.265,16.364,179.313,16.364z M17.06,16.286
	c-4.567,0-8.556,3.411-8.556,8.102c0,3.928,2.832,7.888,8.312,7.888c2.74,0,7.034-1.705,7.034-4.051c0-0.58-0.548-1.523-1.188-1.523
	c-0.641,0-1.765,1.37-4.049,1.37c-1.431,0-3.41-1.279-3.41-2.801c0-0.519,0.487-0.426,0.822-0.426h6.606
	c0.974,0,1.887-0.275,1.887-2.285C24.517,20.276,22.234,16.286,17.06,16.286z M16.877,21.92c-0.792,0-1.827,0.244-1.827-0.853
	c0-0.976,0.821-2.01,1.827-2.01c1.126,0,1.796,0.853,1.796,1.95C18.673,22.103,17.699,21.92,16.877,21.92z M40.836,24.569v-3.046
	c0-4.567-4.749-5.237-6.484-5.237c-2.893,0-8.039,1.676-8.039,4.264c0,0.974,0.731,1.676,1.705,1.676
	c2.71,0,2.893-3.291,4.719-3.291c1.4,0,1.43,2.102,1.43,3.107c0,1.096-0.426,1.036-1.367,1.036c-5.36,0-7.43,2.68-7.43,4.842
	c0,3.015,2.526,4.355,5.054,4.355c2.772,0,3.684-1.554,4.414-1.554c0.761,0,0.822,1.554,3.227,1.554c2.223,0,4.598-1.89,4.598-3.624
	C42.664,27.006,40.836,29.93,40.836,24.569z M33.012,28.894c-0.883,0-1.31-0.852-1.31-1.644c0-0.975,0.702-1.95,1.737-1.95
	c0.851,0,0.82,0.761,0.82,1.432C34.259,27.645,34.167,28.894,33.012,28.894z M50.943,20.398c0-0.58,0.548-1.036,1.095-1.036
	c1.34,0,2.314,2.406,4.05,2.406c0.791,0,1.491-0.609,1.491-1.431c0-1.249-1.399-4.051-2.8-4.051c-0.579,0-1.066,0.396-1.644,0.396
	c-0.457,0-1.888-0.396-3.076-0.396c-3.135,0-5.631,1.918-5.631,4.964c0,5.025,5.967,5.238,5.967,7.034
	c0,0.671-0.578,0.975-1.188,0.975c-1.704,0-2.922-3.016-4.262-3.016c-0.882,0-1.156,0.642-1.156,1.433
	c0,1.158,0.76,2.895,1.522,3.746c0.427,0.486,0.73,0.578,1.34,0.578c0.396,0,0.76-0.12,1.187-0.12c0.366,0,2.619,0.396,3.867,0.396
	c3.166,0,5.935-1.98,5.935-4.844C57.64,22.713,50.943,22.347,50.943,20.398z M78.16,17.93c0-1.4-2.252-1.553-3.256-1.553
	c-1.097,0-3.958,0.183-3.958,1.797c0,1.036,0.974,0.944,0.974,2.314c0,0.731-0.64,2.833-1.553,2.833
	c-0.518,0-1.857-2.133-1.857-3.29c0-0.731,0.699-0.975,0.699-1.797c0-1.735-2.739-1.858-3.896-1.858
	c-6.424,0-6.971,1.34-6.971,2.255c0,1.4,1.734,1.035,2.313,2.253l4.263,8.922c0.365,0.763,0.974,1.919,0.974,2.771
	c0,0.701-0.365,1.493-1.186,1.493c-1.25,0-0.459-3.229-3.29-3.229c-1.552,0-2.708,1.278-2.708,2.802
	c0,2.527,2.586,3.654,4.779,3.654c4.962,0,6.912-3.959,8.401-8.011l1.798-4.962c0.426-1.188,0.914-2.528,1.583-3.594
	C76.334,18.936,78.16,19.728,78.16,17.93z M95.585,12.418c0-0.852-0.669-2.253-6.424-2.253c-5.936,0-6.18,1.95-6.18,2.527
	c0,2.041,2.894,0.244,2.741,3.624c-0.244,5.482,1.46,11.695-2.133,12.06c-0.729,0.062-1.339-0.364-1.339-1.126
	c0-0.396,0.213-0.913,0.213-1.432c0-1.918-1.766-3.015-3.531-3.015c-2.039,0-3.41,1.675-3.41,3.655c0,4.354,5.267,5.817,8.799,5.817
	c1.705,0,8.402-0.61,8.586-7.066l0.242-9.38C93.21,13.272,95.585,14.002,95.585,12.418z M103.689,16.286
	c-4.567,0-8.561,3.411-8.561,8.102c0,3.928,2.836,7.888,8.315,7.888c2.739,0,7.034-1.705,7.034-4.051
	c0-0.58-0.549-1.523-1.188-1.523c-0.639,0-1.766,1.37-4.049,1.37c-1.432,0-3.41-1.279-3.41-2.801c0-0.519,0.487-0.426,0.821-0.426
	h6.607c0.974,0,1.889-0.275,1.889-2.285C111.148,20.276,108.863,16.286,103.689,16.286z M103.506,21.92
	c-0.791,0-1.828,0.244-1.828-0.853c0-0.976,0.824-2.01,1.828-2.01c1.125,0,1.795,0.853,1.795,1.95
	C105.301,22.103,104.328,21.92,103.506,21.92z M125.151,27.098c-0.547,0-1.095,0.699-2.04,0.699c-0.821,0-1.675-0.486-1.675-2.526
	v-4.538c0-1.096,0.062-1.126,1.127-1.126h2.101c1.188,0,1.4-0.122,1.4-1.858c0-1.371,0-1.462-1.309-1.462h-2.131
	c-1.432,0-1.188,0.061-1.188-2.497c0-1.4-0.06-1.278-1.278-1.278c-0.913,0-0.883-0.092-1.583,0.334l-6.941,4.415
	c-0.366,0.245-0.273,0.58-0.273,1.006c0,1.431-0.123,1.34,1.491,1.34c1.37,0,1.34-0.214,1.34,0.883v6.274
	c0,4.842,3.896,5.513,5.449,5.513c3.075,0,6.546-1.769,6.546-3.777C126.187,27.949,125.761,27.098,125.151,27.098z"/>
</svg>
