<?xml version="1.0" encoding="utf-8"?>
<!-- Generator: Adobe Illustrator 12.0.0, SVG Export Plug-In . SVG Version: 6.00 Build 51448)  -->
<!DOCTYPE svg PUBLIC "-//W3C//DTD SVG 1.1//EN" "http://www.w3.org/Graphics/SVG/1.1/DTD/svg11.dtd" [
	<!ENTITY ns_flows "http://ns.adobe.com/Flows/1.0/">
	<!ENTITY ns_extend "http://ns.adobe.com/Extensibility/1.0/">
	<!ENTITY ns_ai "http://ns.adobe.com/AdobeIllustrator/10.0/">
	<!ENTITY ns_graphs "http://ns.adobe.com/Graphs/1.0/">
	<!ENTITY ns_svg "http://www.w3.org/2000/svg">
	<!ENTITY ns_xlink "http://www.w3.org/1999/xlink">
]>
<svg  version="1.1" id="Calque_1" xmlns:x="&ns_extend;" xmlns:i="&ns_ai;" xmlns:graph="&ns_graphs;"
	 xmlns="&ns_svg;" xmlns:xlink="&ns_xlink;" xmlns:a="http://ns.adobe.com/AdobeSVGViewerExtensions/3.0/"
	 width="192.756" height="192.756" viewBox="0 0 192.756 192.756"
	 style="overflow:visible;enable-background:new 0 0 192.756 192.756;" xml:space="preserve">
<g>
	<polygon style="fill-rule:evenodd;clip-rule:evenodd;fill:#FFFFFF;" points="0,0 192.756,0 192.756,192.756 0,192.756 0,0 	"/>
	<polygon style="fill-rule:evenodd;clip-rule:evenodd;fill:#264756;" points="22.244,107.564 2.834,107.564 2.834,88.006 
		22.244,88.006 22.244,93.39 8.86,93.39 8.86,95.316 22.244,95.316 22.244,100.502 8.86,100.502 8.86,102.526 22.244,102.526 
		22.244,107.564 	"/>
	<polygon style="fill-rule:evenodd;clip-rule:evenodd;fill:#264756;" points="43.432,107.564 23.776,107.564 23.776,88.006 
		28.764,88.006 28.764,102.526 43.432,102.526 43.432,107.564 	"/>
	<polygon style="fill-rule:evenodd;clip-rule:evenodd;fill:#264756;" points="113.91,107.564 94.303,107.564 94.303,88.006 
		99.242,88.006 99.242,102.526 113.91,102.526 113.91,107.564 	"/>
	<polygon style="fill-rule:evenodd;clip-rule:evenodd;fill:#008BD0;" points="42.889,107.564 50.693,93.34 37.259,93.34 
		37.259,84.352 42.248,84.352 42.248,88.056 59.78,88.105 48.915,107.564 42.889,107.564 	"/>
	<polygon style="fill-rule:evenodd;clip-rule:evenodd;fill:#008BD0;" points="113.368,107.564 121.122,93.34 107.736,93.34 
		107.736,84.352 112.726,84.352 112.726,88.056 130.259,88.105 119.394,107.564 113.368,107.564 	"/>
	<polygon style="fill-rule:evenodd;clip-rule:evenodd;fill:#008BD0;" points="136.334,98.181 130.308,107.861 124.48,107.861 
		132.926,92.056 131.049,88.056 136.729,88.056 142.111,97.242 147.841,88.204 153.323,88.204 145.569,103.021 148.089,108.256 
		141.914,108.206 136.334,98.181 	"/>
	<polygon style="fill-rule:evenodd;clip-rule:evenodd;fill:#264756;" points="160.831,88.353 189.92,88.353 186.907,94.032 
		157.62,94.081 160.831,88.353 	"/>
	<polygon style="fill-rule:evenodd;clip-rule:evenodd;fill:#264756;" points="153.026,102.725 182.118,102.725 179.104,108.355 
		149.817,108.404 153.026,102.725 	"/>
	<polygon style="fill-rule:evenodd;clip-rule:evenodd;fill:#008BD0;" points="79.981,88.105 69.115,107.664 50.989,107.613 
		53.508,102.676 60.176,102.676 60.176,88.204 65.559,88.204 66.102,102.081 74.202,88.105 79.981,88.105 	"/>
	<path style="fill-rule:evenodd;clip-rule:evenodd;fill:#264756;" d="M86.598,107.959l-0.049-2.518l-6.471-0.198l-1.284,2.716
		h-6.519l11.755-19.953h7.951v19.953H86.598L86.598,107.959z M86.598,93.538l-3.901,6.518h3.901V93.538L86.598,93.538z"/>
	
		<polygon style="fill-rule:evenodd;clip-rule:evenodd;fill:#264756;stroke:#000000;stroke-width:0.216;stroke-miterlimit:2.6131;" points="
		172.239,94.477 172.239,96.452 174.511,96.452 172.289,98.428 172.339,100.453 170.115,100.401 167.943,102.379 167.943,100.354 
		165.72,100.354 167.894,98.379 167.844,96.402 170.065,96.452 172.239,94.477 	"/>
</g>
</svg>
