<?xml version="1.0" encoding="utf-8"?>
<!-- Generator: Adobe Illustrator 15.0.0, SVG Export Plug-In . SVG Version: 6.00 Build 0)  -->
<!DOCTYPE svg PUBLIC "-//W3C//DTD SVG 1.1//EN" "http://www.w3.org/Graphics/SVG/1.1/DTD/svg11.dtd">
<svg version="1.1" id="Layer_1" xmlns="http://www.w3.org/2000/svg" xmlns:xlink="http://www.w3.org/1999/xlink" x="0px" y="0px"
	 width="185.75px" height="118px" viewBox="0 0 185.75 118" enable-background="new 0 0 185.75 118" xml:space="preserve">
<g>
	<path fill-rule="evenodd" clip-rule="evenodd" fill="#60B974" d="M46.149,14.487c0,1.584-1.296,2.808-2.88,2.808h-8.64
		c-1.584,0-2.88-1.224-2.88-2.808V5.991c0-1.512,1.296-2.808,2.88-2.808h8.64c1.584,0,2.88,1.296,2.88,2.808V14.487L46.149,14.487z"
		/>
	<path fill-rule="evenodd" clip-rule="evenodd" fill="#60B974" d="M34.629,2.823c-1.8,0-3.24,1.44-3.24,3.168v8.496
		c0,1.728,1.44,3.168,3.24,3.168h8.64c1.8,0,3.24-1.44,3.24-3.168V5.991c0-1.728-1.44-3.168-3.24-3.168H34.629L34.629,2.823z
		 M32.109,14.487V5.991c0-1.368,1.152-2.448,2.52-2.448h8.64c1.44,0,2.592,1.08,2.592,2.448v8.496c0,1.368-1.152,2.52-2.592,2.52
		h-8.64C33.261,17.007,32.109,15.855,32.109,14.487L32.109,14.487z"/>
	<path fill-rule="evenodd" clip-rule="evenodd" fill="#60B974" d="M46.149,54.086c0,1.512-1.296,2.808-2.88,2.808h-8.64
		c-1.584,0-2.88-1.296-2.88-2.808V45.59c0-1.584,1.296-2.808,2.88-2.808h8.64c1.584,0,2.88,1.224,2.88,2.808V54.086L46.149,54.086z"
		/>
	<path fill-rule="evenodd" clip-rule="evenodd" fill="#60B974" d="M34.629,42.422c-1.8,0-3.24,1.44-3.24,3.168v8.496
		c0,1.728,1.44,3.096,3.24,3.096h8.64c1.8,0,3.24-1.368,3.24-3.096V45.59c0-1.728-1.44-3.168-3.24-3.168H34.629L34.629,42.422z
		 M32.109,54.086V45.59c0-1.368,1.152-2.52,2.52-2.52h8.64c1.44,0,2.592,1.152,2.592,2.52v8.496c0,1.368-1.152,2.448-2.592,2.448
		h-8.64C33.261,56.534,32.109,55.454,32.109,54.086L32.109,54.086z"/>
	<path fill-rule="evenodd" clip-rule="evenodd" fill="#60B974" d="M66.38,34.358c0,1.584-1.296,2.808-2.88,2.808h-8.712
		c-1.584,0-2.88-1.224-2.88-2.808v-8.496c0-1.512,1.296-2.808,2.88-2.808H63.5c1.584,0,2.88,1.296,2.88,2.808V34.358L66.38,34.358z"
		/>
	<path fill-rule="evenodd" clip-rule="evenodd" fill="#60B974" d="M54.789,22.695c-1.728,0-3.168,1.44-3.168,3.168v8.496
		c0,1.728,1.44,3.168,3.168,3.168H63.5c1.728,0,3.168-1.44,3.168-3.168v-8.496c0-1.728-1.44-3.096-3.168-3.096L54.789,22.695
		L54.789,22.695z M52.269,34.358v-8.496c0-1.368,1.152-2.448,2.52-2.448H63.5c1.368,0,2.52,1.08,2.52,2.448v8.496
		c0,1.368-1.152,2.52-2.52,2.52h-8.712C53.421,36.878,52.269,35.727,52.269,34.358L52.269,34.358z"/>
	<path fill-rule="evenodd" clip-rule="evenodd" fill="#00976A" d="M46.149,34.287c0,1.512-1.296,2.808-2.88,2.808h-8.64
		c-1.584,0-2.88-1.296-2.88-2.808v-8.496c0-1.584,1.296-2.808,2.88-2.808h8.64c1.584,0,2.88,1.224,2.88,2.808V34.287L46.149,34.287z
		"/>
	<path fill-rule="evenodd" clip-rule="evenodd" fill="#00976A" d="M34.629,22.623c-1.8,0-3.24,1.44-3.24,3.168v8.496
		c0,1.728,1.44,3.168,3.24,3.168h8.64c1.8,0,3.24-1.44,3.24-3.168v-8.496c0-1.728-1.44-3.168-3.24-3.168H34.629L34.629,22.623z
		 M32.109,34.287v-8.496c0-1.368,1.152-2.52,2.52-2.52h8.64c1.44,0,2.592,1.152,2.592,2.52v8.496c0,1.368-1.152,2.448-2.592,2.448
		h-8.64C33.261,36.734,32.109,35.654,32.109,34.287L32.109,34.287z"/>
	<path fill-rule="evenodd" clip-rule="evenodd" fill="#00976A" d="M66.38,14.487c0,1.584-1.296,2.808-2.88,2.808h-8.712
		c-1.584,0-2.88-1.224-2.88-2.808V5.991c0-1.512,1.296-2.808,2.88-2.808H63.5c1.584,0,2.88,1.296,2.88,2.808V14.487L66.38,14.487z"
		/>
	<path fill-rule="evenodd" clip-rule="evenodd" fill="#00976A" d="M54.789,2.823c-1.728,0-3.168,1.44-3.168,3.168v8.496
		c0,1.728,1.44,3.168,3.168,3.168H63.5c1.728,0,3.168-1.44,3.168-3.168V5.991c0-1.728-1.44-3.168-3.168-3.168H54.789L54.789,2.823z
		 M52.269,14.487V5.991c0-1.368,1.152-2.448,2.52-2.448H63.5c1.368,0,2.52,1.08,2.52,2.448v8.496c0,1.368-1.152,2.52-2.52,2.52
		h-8.712C53.421,17.007,52.269,15.855,52.269,14.487L52.269,14.487z"/>
	<path fill-rule="evenodd" clip-rule="evenodd" fill="#00976A" d="M66.38,54.086c0,1.512-1.296,2.808-2.88,2.808h-8.712
		c-1.584,0-2.88-1.296-2.88-2.808V45.59c0-1.584,1.296-2.808,2.88-2.808H63.5c1.584,0,2.88,1.224,2.88,2.808V54.086L66.38,54.086z"
		/>
	<path fill-rule="evenodd" clip-rule="evenodd" fill="#00976A" d="M54.789,42.422c-1.728,0-3.168,1.44-3.168,3.168v8.496
		c0,1.728,1.44,3.096,3.168,3.096H63.5c1.728,0,3.168-1.368,3.168-3.096V45.59c0-1.728-1.44-3.168-3.168-3.168H54.789L54.789,42.422
		z M52.269,54.086V45.59c0-1.368,1.152-2.52,2.52-2.52H63.5c1.368,0,2.52,1.152,2.52,2.52v8.496c0,1.368-1.152,2.448-2.52,2.448
		h-8.712C53.421,56.534,52.269,55.454,52.269,54.086L52.269,54.086z"/>
	<path fill-rule="evenodd" clip-rule="evenodd" fill="#00976A" d="M86.396,34.358c0,1.584-1.296,2.808-2.88,2.808h-8.64
		c-1.584,0-2.88-1.224-2.88-2.808v-8.496c0-1.512,1.296-2.808,2.88-2.808h8.64c1.584,0,2.88,1.296,2.88,2.808V34.358L86.396,34.358z
		"/>
	<path fill-rule="evenodd" clip-rule="evenodd" fill="#00976A" d="M74.876,22.695c-1.8,0-3.24,1.44-3.24,3.168v8.496
		c0,1.728,1.44,3.168,3.24,3.168h8.64c1.8,0,3.24-1.44,3.24-3.168v-8.496c0-1.728-1.44-3.096-3.24-3.096L74.876,22.695
		L74.876,22.695z M72.356,34.358v-8.496c0-1.368,1.08-2.448,2.52-2.448h8.64c1.44,0,2.592,1.08,2.592,2.448v8.496
		c0,1.368-1.152,2.52-2.592,2.52h-8.64C73.437,36.878,72.356,35.727,72.356,34.358L72.356,34.358z"/>
	<path fill-rule="evenodd" clip-rule="evenodd" d="M10.726,88.646c-2.88-2.448-4.608-6.624-4.536-11.016
		c0.072-6.696,2.736-14.184,10.656-14.184c7.56,0,10.224,5.327,10.368,13.968H11.734c-0.216,6.048,2.952,9.719,6.984,9.647
		c2.736-0.072,4.608-1.008,7.416-2.305l1.512,3.097c-1.8,1.151-3.24,1.943-4.968,2.448C19.006,91.31,13.966,91.453,10.726,88.646
		L10.726,88.646z M11.95,73.598h9.72c-0.144-3.384-1.656-6.336-4.608-6.336C13.822,67.262,12.382,70.214,11.95,73.598L11.95,73.598z
		"/>
	<path fill-rule="evenodd" clip-rule="evenodd" d="M5.254,77.63c0,4.68,1.8,9.071,4.896,11.735
		c4.392,3.744,10.872,2.304,12.744,1.729c1.872-0.505,3.456-1.297,5.256-2.521l0.648-0.432l-2.232-4.608l-0.792,0.433
		c-2.736,1.296-4.536,2.088-7.056,2.159c-1.512,0.072-2.808-0.504-3.888-1.512c-1.368-1.439-2.16-3.672-2.16-6.336
		c1.512,0,15.408,0,15.408,0v-0.936c-0.144-9.936-3.816-14.76-11.231-14.76C8.422,62.582,5.326,70.357,5.254,77.63L5.254,77.63z
		 M7.054,77.846c0-0.072,0-0.145,0-0.216c0-3.097,0.792-13.32,9.792-13.32c6.192,0,9.144,3.816,9.432,12.168
		c-1.656,0-15.407,0-15.407,0v0.864c0,0.216,0,0.432,0,0.647c0,3.24,0.936,6.048,2.735,7.848c1.368,1.44,3.168,2.16,5.184,2.089
		c2.592-0.072,4.536-0.864,6.912-2.017c0.288,0.648,0.504,1.008,0.792,1.584c-1.368,0.937-2.591,1.512-4.032,1.944
		c-3.456,0.936-8.208,1.08-11.16-1.44C8.71,85.693,7.054,81.878,7.054,77.846L7.054,77.846z"/>
	<path fill-rule="evenodd" clip-rule="evenodd" d="M11.086,73.525l-0.072,1.008h11.591l-0.072-0.936
		c-0.144-4.392-2.304-7.2-5.472-7.2C13.75,66.397,11.662,68.918,11.086,73.525L11.086,73.525z M17.062,68.126
		c2.304,0,3.384,2.231,3.672,4.607c-1.368,0-6.264,0-7.704,0C13.461,70.43,14.542,68.126,17.062,68.126L17.062,68.126z"/>
	<path fill-rule="evenodd" clip-rule="evenodd" d="M61.269,72.59c0-6.048-5.256-6.408-9-3.744c0.072,0.504,0.144,1.152,0.144,1.656
		v20.016h-5.472L46.869,72.59c0-3.6-1.584-5.472-5.544-5.256c-1.224,0.072-2.664,0.936-3.312,1.512v21.672h-5.472V67.766
		c3.96-2.952,6.479-4.464,11.375-4.536c2.304,0,4.68,0.792,6.264,2.305c2.52-1.44,4.896-2.305,8.208-2.305
		c4.032,0,8.424,2.88,8.424,7.488v19.8h-5.543V72.59L61.269,72.59z"/>
	<path fill-rule="evenodd" clip-rule="evenodd" d="M32.038,67.046l-0.36,0.288v24.047h7.2c0,0,0-21.311,0-22.103
		c0.648-0.505,1.728-1.009,2.52-1.08c1.584-0.072,2.736,0.216,3.456,0.863c0.72,0.721,1.152,1.872,1.152,3.528v18.791h7.344V70.502
		c0-0.432-0.072-0.792-0.144-1.224c1.872-1.152,3.96-1.44,5.328-0.721c1.224,0.648,1.872,2.017,1.872,4.032v18.791h7.271V70.718
		c0-5.184-4.824-8.352-9.288-8.352c-3.024,0-5.472,0.647-8.064,2.088c-1.728-1.368-4.032-2.16-6.408-2.16
		C38.805,62.438,36.285,63.95,32.038,67.046L32.038,67.046z M43.917,64.094c2.16,0,4.248,0.792,5.688,2.088l0.504,0.504l0.576-0.359
		c2.592-1.513,4.824-2.16,7.704-2.16c3.6,0,7.56,2.52,7.56,6.552c0,0,0,17.279,0,18.863c-1.008,0-2.736,0-3.744,0
		c0-1.584,0-16.991,0-16.991c0-2.664-1.008-4.68-2.808-5.616c-2.16-1.08-5.112-0.647-7.632,1.152l-0.504,0.36l0.144,0.575
		c0.072,0.433,0.144,0.937,0.144,1.44c0,0,0,17.495,0,19.079c-1.008,0-2.736,0-3.744,0c0-1.584-0.072-16.991-0.072-16.991
		c0-2.16-0.504-3.744-1.656-4.824c-1.08-1.008-2.664-1.439-4.824-1.368c-1.512,0.072-3.096,1.152-3.888,1.801l-0.288,0.288
		c0,0,0,19.511,0,21.095c-1.008,0-2.664,0-3.672,0c0-1.584,0-20.52,0-21.312C37.221,65.462,39.525,64.166,43.917,64.094
		L43.917,64.094z"/>
	<path fill-rule="evenodd" clip-rule="evenodd" d="M76.676,88.646c-2.88-2.448-4.608-6.624-4.536-11.016
		c0-6.696,2.736-14.184,10.656-14.184c7.56,0,10.224,5.327,10.295,13.968H77.684c-0.216,6.048,2.952,9.719,6.984,9.647
		c2.735-0.072,4.607-1.008,7.416-2.305l1.512,3.097c-1.8,1.151-3.24,1.943-4.968,2.448C84.884,91.31,79.916,91.453,76.676,88.646
		L76.676,88.646z M77.9,73.598h9.72c-0.144-3.384-1.656-6.336-4.68-6.336C79.772,67.262,78.332,70.214,77.9,73.598L77.9,73.598z"/>
	<path fill-rule="evenodd" clip-rule="evenodd" d="M71.205,77.63c-0.072,4.68,1.8,9.071,4.896,11.735l0,0
		c4.392,3.744,10.872,2.304,12.744,1.729c1.872-0.505,3.384-1.297,5.256-2.521l0.648-0.432l-2.304-4.608l-0.792,0.433
		c-2.664,1.296-4.464,2.088-6.983,2.159c-1.512,0.072-2.808-0.504-3.888-1.512c-1.368-1.439-2.16-3.672-2.232-6.336
		c1.584,0,15.479,0,15.479,0v-0.936c-0.143-9.936-3.815-14.76-11.231-14.76C74.372,62.582,71.276,70.357,71.205,77.63L71.205,77.63z
		 M73.004,77.846c0-0.072,0-0.145,0-0.216c0-3.097,0.792-13.32,9.792-13.32c6.191,0,9.071,3.816,9.432,12.168
		c-1.656,0-15.408,0-15.408,0v0.864c0,0.216-0.072,0.432-0.072,0.647c0,3.24,1.008,6.048,2.808,7.848
		c1.368,1.44,3.168,2.16,5.112,2.089c2.664-0.072,4.607-0.864,6.983-2.017c0.288,0.648,0.504,1.008,0.792,1.584
		c-1.44,0.937-2.592,1.512-4.104,1.944c-3.384,0.936-8.136,1.08-11.087-1.44C74.588,85.693,73.004,81.878,73.004,77.846
		L73.004,77.846z"/>
	<path fill-rule="evenodd" clip-rule="evenodd" d="M77.036,73.525l-0.144,1.008h11.664l-0.072-0.936
		c-0.144-4.392-2.304-7.2-5.543-7.2C79.7,66.397,77.612,68.918,77.036,73.525L77.036,73.525z M82.94,68.126
		c2.376,0,3.456,2.231,3.672,4.607c-1.368,0-6.192,0-7.632,0C79.412,70.43,80.42,68.126,82.94,68.126L82.94,68.126z"/>
	<path fill-rule="evenodd" clip-rule="evenodd" d="M109.652,67.766c-2.521,0-4.176,0.792-5.545,1.944v20.808h-5.4v-21.96
		c1.729-2.016,3.889-3.384,6.336-4.319c2.592-0.937,5.113-1.584,9.504-0.648c-0.791,1.729-1.512,3.024-2.16,4.464
		C111.092,67.838,110.156,67.693,109.652,67.766L109.652,67.766z"/>
	<path fill-rule="evenodd" clip-rule="evenodd" d="M104.756,63.446c-2.664,0.936-4.896,2.447-6.695,4.535l-0.217,0.217v23.183h7.127
		c0,0,0-20.447,0-21.239c1.369-1.008,2.881-1.512,4.682-1.512l0,0h0.072c0.359-0.072,1.295,0.072,2.303,0.288l0.863,0.144
		l0.289-0.647c0.359-0.792,0.719-1.512,1.152-2.376l1.512-3.168l-1.08-0.216C110.012,61.718,107.275,62.51,104.756,63.446
		L104.756,63.446z M105.332,65.102c2.16-0.792,4.32-1.439,7.92-0.863c-0.289,0.504-0.504,1.008-0.504,1.008
		c-0.289,0.647-0.576,1.224-0.865,1.872c-1.08-0.216-1.799-0.36-2.375-0.288h0.145c-2.377,0-4.393,0.72-6.121,2.16l-0.287,0.288
		c0,0,0,18.719,0,20.303c-1.008,0-2.664,0-3.672,0c0-1.584,0-20.016,0-20.663C101.229,67.189,103.1,65.894,105.332,65.102
		L105.332,65.102z"/>
	<path fill-rule="evenodd" clip-rule="evenodd" d="M125.348,90.949c-4.824-0.072-8.855-4.032-8.855-9
		c0.143-5.328,4.318-8.567,9.359-8.567c2.592,0,4.248,0,6.264,0v-1.8c0-2.521-2.305-4.248-4.752-4.248s-4.176,0.576-6.984,2.016
		l-1.512-3.527c3.527-1.944,5.977-2.593,9.576-2.593c4.393,0,8.928,2.952,8.928,8.064V86.27c-2.664,2.664-6.768,4.752-12.023,4.607
		V90.949L125.348,90.949z M127.146,77.414c-2.951,0-5.039,1.655-5.039,4.464c0,2.592,2.16,5.039,5.111,5.111
		c2.088,0,4.033-1.08,4.752-1.8v-7.775H127.146L127.146,77.414z"/>
	<path fill-rule="evenodd" clip-rule="evenodd" d="M118.436,65.03l-0.721,0.359l2.232,5.112l0.793-0.36
		c2.879-1.439,4.535-1.943,6.623-1.943c1.871,0,3.889,1.296,3.889,3.384c0,0,0,0.432,0,0.936c-1.369,0-5.4,0-5.4,0
		c-5.904,0-10.152,3.888-10.225,9.432l0,0c0,5.328,4.32,9.792,9.721,9.937h0.863v-0.072c4.607-0.145,8.713-1.872,11.809-4.896
		l0.287-0.288l-0.072-15.335c0-5.832-5.039-9-9.791-9C124.555,62.366,122.035,63.086,118.436,65.03L118.436,65.03z M128.443,64.094
		c3.889,0,7.992,2.521,7.992,7.2c0,0,0.072,12.239,0.072,14.615c-1.801,1.656-5.473,4.248-11.16,4.104h-0.865l0,0
		c-4.031-0.576-7.127-3.96-7.127-8.064c0.145-4.535,3.6-7.704,8.496-7.704h7.127v-2.663c0-2.88-2.52-5.185-5.615-5.185
		c-2.447,0-4.248,0.648-6.553,1.729c-0.287-0.72-0.574-1.296-0.791-1.944C122.971,64.67,125.131,64.166,128.443,64.094
		L128.443,64.094z"/>
	<path fill-rule="evenodd" clip-rule="evenodd" d="M127.146,76.478c-3.527,0-5.902,2.16-5.902,5.4c0,3.239,2.664,5.903,5.975,5.976
		c2.377,0,4.537-1.225,5.4-2.017l0.287-0.216V76.55L127.146,76.478L127.146,76.478L127.146,76.478z M123.043,81.878
		c0-2.232,1.512-3.601,4.104-3.601c0,0,2.809,0,3.961,0.072c0,1.296,0,5.76,0,6.407c-0.793,0.648-2.377,1.297-3.889,1.297
		C124.627,86.054,123.043,83.821,123.043,81.878L123.043,81.878z"/>
	<path fill-rule="evenodd" clip-rule="evenodd" d="M148.818,83.821c0,2.88,1.297,3.528,4.607,3.6v3.456
		c-6.264,0.576-9.791-2.16-9.791-7.056V48.398h5.184V83.821L148.818,83.821z"/>
	<path fill-rule="evenodd" clip-rule="evenodd" d="M148.818,47.534h-6.119v36.287c0,2.448,0.863,4.392,2.375,5.832
		c1.873,1.728,4.824,2.448,8.424,2.088l0.793-0.072v-5.111h-0.865c-3.24-0.145-3.672-0.721-3.672-2.736V47.534H148.818
		L148.818,47.534z M147.955,49.334c0,1.656,0,34.487,0,34.487c0,3.312,1.656,4.248,4.607,4.464c0,0.648,0,1.08,0,1.729
		c-2.736,0.144-4.967-0.433-6.336-1.729c-1.152-1.008-1.729-2.52-1.729-4.464c0,0,0-32.831,0-34.487
		C145.506,49.334,146.947,49.334,147.955,49.334L147.955,49.334z"/>
	<path fill-rule="evenodd" clip-rule="evenodd" d="M168.979,66.254L168.979,66.254c-4.896,0-7.199,5.688-7.199,11.016
		c0,5.184,2.158,10.728,6.91,10.728c2.881,0,5.617-1.584,6.625-2.304l0.432-0.216V68.63l-0.432-0.288
		C173.299,67.046,171.426,66.182,168.979,66.254L168.979,66.254z M163.578,77.27c0-3.168,1.152-9.216,5.4-9.216l0,0
		c1.871-0.072,3.383,0.504,4.967,1.512c0,0.937,0,14.04,0,14.904c-1.078,0.647-3.168,1.728-5.256,1.728
		C164.945,86.197,163.578,80.869,163.578,77.27L163.578,77.27z"/>
	<path fill-rule="evenodd" clip-rule="evenodd" d="M168.979,66.254c-4.896,0-7.199,5.688-7.199,11.016
		c0,5.184,2.158,10.728,6.91,10.728c2.881,0,5.617-1.584,6.625-2.304l0.432-0.216V68.63l-0.432-0.288
		C173.299,67.046,171.426,66.182,168.979,66.254L168.979,66.254z M163.578,77.27c0-3.168,1.152-9.216,5.4-9.216
		c1.871-0.072,3.383,0.504,4.967,1.512c0,0.937,0,14.04,0,14.904c-1.078,0.647-3.168,1.728-5.256,1.728
		C164.945,86.197,163.578,80.869,163.578,77.27L163.578,77.27z"/>
	<path fill-rule="evenodd" clip-rule="evenodd" d="M174.811,48.326v16.199c-2.16-0.936-4.465-1.512-6.912-1.512
		c-7.561,0-11.088,7.776-11.088,14.04c0,6.12,3.096,13.896,10.656,13.823l-0.072,0.072c4.824,0,8.928-1.8,12.744-4.752V48.326
		H174.811L174.811,48.326z M174.883,84.974c-1.584,1.008-3.889,2.088-6.193,2.088c-4.391,0-5.975-5.688-5.975-9.792
		c0-4.32,1.656-10.151,6.264-10.151c2.232,0,3.959,0.72,5.904,1.943V84.974L174.883,84.974z"/>
	<path fill-rule="evenodd" clip-rule="evenodd" d="M167.395,91.886c4.607,0,8.928-1.656,13.248-4.969l0.359-0.288V47.462h-7.127
		c0,0,0,13.608,0,15.84c-2.018-0.792-4.033-1.152-5.977-1.152c-7.775,0-11.951,7.704-11.951,14.904c0,3.672,1.15,8.64,4.318,11.808
		c1.514,1.512,3.24,2.448,5.186,2.736L167.395,91.886L167.395,91.886z M179.273,49.19c0,1.656,0,35.711,0,36.576
		c-3.455,2.52-6.768,3.888-10.223,4.248c-0.648,0-1.584,0-1.584,0c-2.305,0-4.32-0.792-5.977-2.376
		c-2.809-2.809-3.744-7.272-3.744-10.584c0-5.04,2.736-13.104,10.152-13.104c2.16,0,4.248,0.432,6.553,1.439l1.223,0.504
		c0,0,0-15.12,0-16.704C176.682,49.19,178.266,49.19,179.273,49.19L179.273,49.19z"/>
	<path fill-rule="evenodd" clip-rule="evenodd" d="M168.979,66.254c-4.896,0-7.199,5.688-7.199,11.016
		c0,5.184,2.158,10.728,6.91,10.728c2.881,0,5.617-1.584,6.625-2.304l0.432-0.216V68.63l-0.432-0.288
		C173.299,67.046,171.426,66.182,168.979,66.254L168.979,66.254z M163.578,77.27c0-3.168,1.152-9.216,5.4-9.216
		c1.871-0.072,3.383,0.504,4.967,1.512c0,0.937,0,14.04,0,14.904c-1.078,0.647-3.168,1.728-5.256,1.728
		C164.945,86.197,163.578,80.869,163.578,77.27L163.578,77.27z"/>
	<path fill-rule="evenodd" clip-rule="evenodd" fill="#00976A" d="M46.077,110.245c-2.304-0.072-4.176-1.512-4.176-3.384
		c0.072-1.944,1.944-3.168,4.392-3.168c1.44,0,2.304,0,3.456,0v-1.009c0-1.151-1.296-1.943-2.736-1.943
		c-1.296,0-2.232,0.288-3.312,0.72l-0.576-0.936c1.512-0.721,2.664-0.937,4.464-0.937c2.088,0,4.176,1.152,4.176,3.024v5.903
		C50.541,109.453,48.597,110.245,46.077,110.245L46.077,110.245z M49.677,104.773c-0.647,0-1.728,0-2.736,0
		c-1.656,0-2.88,0.792-2.88,2.088c0,1.151,1.224,2.231,2.952,2.231c1.224,0.072,2.304-0.504,2.664-0.792V104.773L49.677,104.773z"/>
	<path fill-rule="evenodd" clip-rule="evenodd" fill="#00976A" d="M42.909,99.949l-0.576,0.288l1.08,1.943l0.504-0.216
		c1.008-0.432,1.872-0.647,3.096-0.647c1.08,0,2.231,0.504,2.231,1.367c0,0,0,0.217,0,0.433c-0.792,0-2.952,0-2.952,0
		c-2.88,0-4.896,1.512-4.896,3.744c-0.072,0.863,0.288,1.728,0.936,2.447c0.864,0.937,2.232,1.44,3.744,1.512l0,0
		c2.304,0,4.536-0.647,6.047-1.871l0.216-0.145v-6.191c0-2.305-2.448-3.601-4.752-3.601C45.717,99.013,44.493,99.301,42.909,99.949
		L42.909,99.949z M47.589,100.165c1.8,0,3.672,0.936,3.672,2.448c0,0,0,5.111,0,5.615c-1.368,0.937-3.24,1.513-5.184,1.44
		c-1.152,0-2.232-0.432-2.952-1.152c-0.432-0.432-0.648-1.008-0.648-1.584c0,0,0,0,0-0.071c0-1.513,1.584-2.593,3.816-2.593h4.032
		v-1.584c0-1.584-1.656-2.52-3.312-2.52c-0.36,0-0.648,0.072-0.936,0.072C46.509,100.165,47.013,100.165,47.589,100.165
		L47.589,100.165z M46.005,100.237c-0.288,0.071-0.504,0.071-0.72,0.144C45.501,100.309,45.717,100.309,46.005,100.237
		L46.005,100.237z M44.997,100.453c-0.216,0-0.432,0.072-0.648,0.144C44.565,100.525,44.781,100.453,44.997,100.453L44.997,100.453z
		 M44.205,100.669c-0.072,0.072-0.216,0.072-0.288,0.072l0,0C43.989,100.741,44.133,100.741,44.205,100.669L44.205,100.669z"/>
	<path fill-rule="evenodd" clip-rule="evenodd" fill="#00976A" d="M49.677,104.197l-2.736,0.071c-2.016,0-3.456,1.009-3.456,2.593
		c0,1.512,1.584,2.808,3.528,2.808c1.368,0,2.592-0.576,3.096-1.008l0.144-0.145v-4.319H49.677L49.677,104.197z M47.013,108.589
		c-1.44,0-2.376-0.936-2.376-1.728c0-1.152,1.224-1.513,2.304-1.513c0,0,1.44,0,2.232,0c0,0.721,0,2.232,0,2.664
		C48.741,108.229,47.877,108.589,47.013,108.589L47.013,108.589z"/>
	<path fill-rule="evenodd" clip-rule="evenodd" fill="#00976A" d="M85.532,100.885c-1.368,0-2.304,0.433-3.096,0.937v8.207h-2.088
		v-8.423c0.792-0.721,1.8-1.297,3.024-1.584c1.224-0.36,2.448-0.648,4.248-0.36c-0.288,0.432-0.576,0.936-0.864,1.368
		c-0.36-0.072-0.864-0.145-1.152-0.145H85.532L85.532,100.885z"/>
	<path fill-rule="evenodd" clip-rule="evenodd" fill="#00976A" d="M83.156,99.445c-1.224,0.359-2.376,0.936-3.168,1.728
		l-0.216,0.145v9.287h3.24c0,0,0-7.92,0-8.495c0.504-0.288,1.368-0.648,2.52-0.648h0.072c0.216,0,0.576,0,1.08,0.145h0.36
		l0.864-1.368l0.648-1.009l-0.864-0.144C85.892,98.869,84.668,99.013,83.156,99.445L83.156,99.445z M83.516,100.525
		c1.008-0.288,2.016-0.504,3.168-0.433c-0.072,0.145-0.144,0.216-0.216,0.288c-0.288,0-0.648-0.072-0.864-0.072h-0.072
		c-1.296,0-2.376,0.36-3.384,1.08l-0.288,0.145c0,0,0,6.983,0,7.992c-0.36,0-0.576,0-1.008,0c0-0.937,0-7.2,0-7.704
		C81.572,101.245,82.508,100.812,83.516,100.525L83.516,100.525z"/>
	<polygon fill-rule="evenodd" clip-rule="evenodd" fill="#00976A" points="109.725,110.245 106.412,102.109 103.531,110.245 
		101.947,110.245 97.627,99.589 99.787,99.589 103.027,107.581 105.836,99.589 107.564,99.589 110.803,107.581 113.611,99.589 
		115.195,99.589 111.596,110.245 109.725,110.245 	"/>
	<path fill-rule="evenodd" clip-rule="evenodd" fill="#00976A" d="M115.195,99.013h-1.943c0,0-1.801,5.112-2.449,6.984
		c-0.791-1.872-2.879-6.984-2.879-6.984h-2.52c0,0-1.729,5.112-2.449,6.984c-0.719-1.872-2.807-6.984-2.807-6.984h-3.385
		l4.752,11.808h2.377c0,0,1.871-5.255,2.52-7.127c0.791,1.872,2.951,7.127,2.951,7.127h2.592l4.033-11.808H115.195L115.195,99.013z
		 M114.404,100.165c-0.361,1.224-3.025,8.856-3.24,9.504c-0.361,0-0.721,0-1.08,0c-0.217-0.576-3.744-9.072-3.744-9.072
		s-3.023,8.425-3.24,9.072c-0.287,0-0.504,0-0.791,0c-0.289-0.576-3.385-8.208-3.889-9.504c0.432,0,0.721,0,1.008,0
		c0.217,0.647,3.6,8.928,3.6,8.928s2.953-8.28,3.168-8.928c0.359,0,0.648,0,1.008,0c0.217,0.647,3.672,8.928,3.672,8.928
		s2.881-8.28,3.168-8.928C114.188,100.165,114.26,100.165,114.404,100.165L114.404,100.165z"/>
	<path fill-rule="evenodd" clip-rule="evenodd" fill="#00976A" d="M129.955,110.245c-2.305-0.072-4.176-1.512-4.176-3.384
		c0.072-1.944,1.943-3.168,4.393-3.168c1.439,0,2.303,0,3.455,0v-1.009c0-1.151-1.295-1.943-2.736-1.943
		c-1.295,0-2.232,0.288-3.312,0.72l-0.574-0.936c1.512-0.721,2.664-0.937,4.463-0.937c2.088,0,4.176,1.152,4.176,3.024v5.903
		C134.42,109.453,132.475,110.245,129.955,110.245L129.955,110.245z M133.627,104.773c-0.721,0-1.801,0-2.809,0
		c-1.656,0-2.879,0.792-2.879,2.088c0,1.151,1.223,2.231,2.951,2.231c1.225,0.072,2.305-0.504,2.736-0.792V104.773L133.627,104.773z
		"/>
	<path fill-rule="evenodd" clip-rule="evenodd" fill="#00976A" d="M126.787,99.949l-0.504,0.288l1.008,1.943l0.504-0.216
		c1.008-0.432,1.873-0.647,3.096-0.647c1.08,0,2.232,0.575,2.232,1.367c0,0,0,0.217,0,0.433c-0.791,0-2.951,0-2.951,0
		c-2.881,0-4.896,1.512-4.896,3.744c-0.072,0.863,0.287,1.728,0.936,2.447c0.863,0.937,2.232,1.44,3.744,1.512l0,0
		c2.305,0,4.535-0.647,6.049-1.871l0.215-0.145v-6.191c0-2.305-2.447-3.601-4.752-3.601
		C129.596,99.013,128.371,99.301,126.787,99.949L126.787,99.949z M131.467,100.165c1.801,0,3.672,0.936,3.672,2.448
		c0,0,0,5.111,0,5.615c-1.367,0.937-3.168,1.513-5.184,1.44c-1.152,0-2.232-0.432-2.951-1.152c-0.434-0.432-0.648-1.008-0.648-1.584
		c0,0,0,0,0-0.071c0.072-1.513,1.584-2.593,3.816-2.593h4.031v-1.584c0-1.584-1.656-2.52-3.312-2.52
		c-0.359,0-0.648,0.072-1.008,0.072C130.387,100.165,130.891,100.165,131.467,100.165L131.467,100.165z M129.883,100.237
		c-0.287,0.071-0.504,0.071-0.791,0.144C129.379,100.309,129.596,100.309,129.883,100.237L129.883,100.237z M128.947,100.453
		c-0.289,0-0.504,0.072-0.721,0.144C128.443,100.525,128.658,100.453,128.947,100.453L128.947,100.453z M128.012,100.669
		c-0.072,0.072-0.145,0.072-0.217,0.072l0,0C127.867,100.741,127.939,100.741,128.012,100.669L128.012,100.669z"/>
	<path fill-rule="evenodd" clip-rule="evenodd" fill="#00976A" d="M133.627,104.197l-2.809,0.071c-2.016,0-3.383,1.009-3.383,2.593
		c0,1.512,1.512,2.808,3.455,2.808c1.369,0,2.592-0.576,3.096-1.008l0.145-0.145v-4.319H133.627L133.627,104.197z M130.891,108.589
		c-1.439,0-2.375-0.936-2.375-1.728c0-1.152,1.223-1.513,2.303-1.513c0,0,1.441,0,2.232,0c0,0.721,0,2.232,0,2.664
		C132.619,108.229,131.756,108.589,130.891,108.589L130.891,108.589z"/>
	<path fill-rule="evenodd" clip-rule="evenodd" fill="#00976A" d="M159.115,99.589v9.504c0,1.224-0.145,3.024-0.721,3.96
		c-1.08,1.584-4.104,2.232-6.264,2.304l-0.361-1.08c1.656-0.144,3.961-0.359,4.824-1.728c0.434-0.648,0.504-1.872,0.504-2.664
		c0-0.216,0-0.144,0-0.432c-0.646,0.216-2.088,0.792-4.607,0.792c-1.871,0-4.031-1.08-4.031-2.952v-7.704h2.088v7.128
		c0,1.584,1.439,2.376,3.312,2.376c1.15,0,2.447-0.576,3.096-0.936v-8.568H159.115L159.115,99.589z"/>
	<path fill-rule="evenodd" clip-rule="evenodd" fill="#00976A" d="M159.115,99.013h-2.736c0,0,0,8.137,0,8.784
		c-0.648,0.36-1.656,0.72-2.52,0.72c-1.01,0-1.801-0.216-2.305-0.647c-0.289-0.288-0.432-0.72-0.432-1.152v-7.704h-3.24v8.28
		c0,2.16,2.375,3.527,4.607,3.527c1.943,0,3.24-0.287,4.033-0.575c0,0.575-0.072,1.584-0.361,2.016
		c-0.719,1.08-2.664,1.296-4.176,1.44l-0.936,0.071l0.215,0.648l0.504,1.512h0.361c2.375-0.072,5.543-0.792,6.695-2.592
		c0.576-0.864,0.793-2.232,0.793-4.248v-10.08H159.115L159.115,99.013z M150.043,100.165c0,0.936,0,6.552,0,6.552
		c0,0.792,0.215,1.44,0.719,1.944c0.648,0.647,1.729,0.936,2.953,1.008c-0.359,0-0.721,0-1.225,0c-1.656,0-3.527-0.936-3.527-2.376
		c0,0,0-6.192,0-7.128C149.395,100.165,149.611,100.165,150.043,100.165L150.043,100.165z M158.539,100.165c0,1.008,0,8.928,0,8.928
		c0,2.231-0.361,3.168-0.576,3.6c-0.865,1.296-3.312,1.944-5.4,2.088l0,0c1.584-0.216,3.6-0.504,4.535-1.872
		c0.504-0.791,0.576-2.016,0.576-3.023v-0.144l-0.072-1.08l-0.719,0.288h-0.072c-0.359,0.144-0.863,0.359-1.584,0.504
		c0.721-0.216,1.439-0.504,2.016-0.792l0.289-0.145c0,0,0-7.416,0-8.352C157.891,100.165,158.178,100.165,158.539,100.165
		L158.539,100.165z"/>
	<path fill-rule="evenodd" clip-rule="evenodd" fill="#00976A" d="M170.994,109.237l0.793-1.009
		c0.863,0.505,2.158,0.864,3.238,0.937c1.441,0,3.096-0.576,3.025-1.8c-0.072-1.008-1.152-1.296-2.16-1.656
		c-0.361-0.072-0.721-0.216-1.152-0.36c-0.793-0.216-1.584-0.432-2.305-0.863c-0.646-0.36-1.223-0.937-1.223-1.944
		c0-1.944,2.23-3.024,4.463-3.024c1.297,0,2.52,0.36,3.744,0.864l-0.793,1.008c-1.008-0.432-1.871-0.647-2.807-0.647
		c-1.225,0-2.592,0.504-2.592,1.584c0,0.576,0.432,0.936,1.08,1.151c0.646,0.217,1.512,0.505,2.375,0.792
		c0.721,0.217,1.584,0.433,2.232,0.864c0.721,0.433,1.225,1.08,1.225,2.017c0,2.159-2.592,3.167-5.041,3.167
		C173.586,110.316,172.146,109.885,170.994,109.237L170.994,109.237z"/>
	<path fill-rule="evenodd" clip-rule="evenodd" fill="#00976A" d="M170.707,102.541c0,1.08,0.504,1.872,1.512,2.448
		c0.648,0.432,1.439,0.647,2.232,0.863l0.143,0.072l0,0c0.359,0.072,0.721,0.216,1.008,0.288l0.289,0.072
		c0.936,0.288,1.584,0.576,1.584,1.08c0,0.216-0.072,0.359-0.217,0.576c-0.359,0.359-1.225,0.647-2.232,0.647
		s-2.158-0.36-2.951-0.864l-0.432-0.216l-1.439,1.872l0.504,0.288c1.295,0.792,2.879,1.224,4.391,1.224
		c2.664,0,5.545-1.151,5.617-3.743c0-1.009-0.506-1.872-1.514-2.448c-0.646-0.433-1.367-0.648-2.088-0.864l-0.287-0.144
		l-0.359-0.072c-0.721-0.216-1.441-0.504-1.945-0.648c-0.719-0.288-0.719-0.504-0.719-0.647c0-0.648,1.008-1.08,2.016-1.08
		c0.863,0.072,1.656,0.288,2.52,0.647l0.432,0.217l1.512-1.944l-0.646-0.288c-1.441-0.576-2.664-0.936-3.961-0.936
		C173.227,98.941,170.707,100.237,170.707,102.541L170.707,102.541z M174.738,104.773c-0.721-0.145-1.439-0.36-2.016-0.721
		c-0.648-0.432-0.936-0.863-0.936-1.512c0-1.584,1.943-2.448,3.887-2.448c0.936,0,1.801,0.216,2.809,0.576c0,0,0,0-0.072,0.072
		c-0.863-0.36-1.729-0.576-2.592-0.576c-1.512,0-3.096,0.647-3.168,2.16c0,1.151,1.152,1.512,1.512,1.656
		c0.504,0.216,1.295,0.432,2.016,0.647l0.289,0.145l0.359,0.071c0.648,0.216,1.295,0.433,1.799,0.792
		c0.648,0.433,0.938,0.864,0.938,1.513c0,1.728-2.232,2.663-4.465,2.663c-1.08,0-2.23-0.287-3.24-0.791c0-0.072,0-0.072,0.072-0.072
		c0.865,0.432,2.016,0.72,3.096,0.72c0.504,0,2.16-0.072,3.025-1.008c0.359-0.36,0.574-0.864,0.574-1.368
		c-0.07-1.296-1.439-1.728-2.375-2.016l-0.287-0.145c-0.361-0.072-0.721-0.216-1.08-0.288l0,0L174.738,104.773L174.738,104.773z"/>
	<path fill-rule="evenodd" clip-rule="evenodd" fill="#00976A" d="M66.021,97.429c0.792,0,1.44-0.503,1.44-1.079
		c0-0.648-0.648-1.152-1.368-1.152c-0.792,0-1.44,0.504-1.44,1.08v0.072C64.652,96.926,65.3,97.429,66.021,97.429L66.021,97.429z"/>
	<path fill-rule="evenodd" clip-rule="evenodd" fill="#00976A" d="M64.148,96.277v0.072c0,0.863,0.864,1.655,1.872,1.655
		c1.152,0,2.016-0.792,2.016-1.655c0-0.937-0.864-1.729-1.944-1.729C65.013,94.621,64.148,95.342,64.148,96.277L64.148,96.277z
		 M65.229,96.35v-0.072c0-0.216,0.36-0.504,0.864-0.504c0.432,0,0.792,0.216,0.792,0.576c0,0.216-0.36,0.504-0.864,0.504
		C65.588,96.854,65.229,96.638,65.229,96.35L65.229,96.35z"/>
	<path fill-rule="evenodd" clip-rule="evenodd" fill="#00976A" d="M65.013,99.589h2.16v10.439h-2.16V99.589L65.013,99.589z
		 M65.013,110.028V99.589V110.028L65.013,110.028z"/>
	<path fill-rule="evenodd" clip-rule="evenodd" fill="#00976A" d="M67.172,99.013h-2.664v11.592h3.168V99.013H67.172L67.172,99.013z
		 M66.597,100.165c0,0.936,0,8.424,0,9.36c-0.36,0-0.648,0-1.008,0c0-0.937,0-8.425,0-9.36
		C65.949,100.165,66.236,100.165,66.597,100.165L66.597,100.165z"/>
</g>
</svg>
