<?xml version="1.0" encoding="UTF-8" standalone="no"?>
<svg
   xmlns:dc="http://purl.org/dc/elements/1.1/"
   xmlns:cc="http://creativecommons.org/ns#"
   xmlns:rdf="http://www.w3.org/1999/02/22-rdf-syntax-ns#"
   xmlns:svg="http://www.w3.org/2000/svg"
   xmlns="http://www.w3.org/2000/svg"
   width="500"
   height="160"
   viewBox="0 0 132.29166 42.333334"
   version="1.1"
   id="svg8">
  <defs
     id="defs2" />
  <metadata
     id="metadata5">
    <rdf:RDF>
      <cc:Work
         rdf:about="">
        <dc:format>image/svg+xml</dc:format>
        <dc:type
           rdf:resource="http://purl.org/dc/dcmitype/StillImage" />
        <dc:title></dc:title>
      </cc:Work>
    </rdf:RDF>
  </metadata>
  <g
     id="layer1">
    <g
       transform="matrix(1.2250957,0,0.3115883,0.81626276,0,0)"
       id="text857"
       style="font-size:8.90735px;line-height:1.25;font-family:'Crillee Italic Std';-inkscape-font-specification:'Crillee Italic Std';fill:#676359;fill-opacity:1;stroke-width:0.222684">
      <path
         d="m 58.784241,48.74515 0.03563,1.157956 c 0.0089,0.258313 0.06235,0.329571 0.258314,0.329571 h 1.220306 l 0.01781,-0.115795 C 60.16488,50.05453 60.147066,50.018901 60.138158,49.78731 l -0.187054,-5.17517 c -0.0089,-0.276128 -0.05344,-0.320665 -0.30285,-0.320665 h -1.594416 l -0.02672,0.124703 c 0.124703,0.05344 0.160333,0.08907 0.160333,0.16924 0,0.04454 -0.02672,0.106888 -0.07126,0.187054 l -2.983962,4.997023 c -0.07126,0.124703 -0.106889,0.204869 -0.106889,0.267221 0,0.124703 0.09798,0.195961 0.276128,0.195961 h 1.193585 l 0.02672,-0.115795 c -0.151425,-0.02672 -0.213776,-0.07126 -0.213776,-0.16924 0,-0.05344 0.02672,-0.115795 0.07126,-0.195961 L 56.94042,48.74515 Z m -0.01781,-0.899642 h -1.327195 l 1.264844,-2.289189 z"
         style="fill:#676359;fill-opacity:1;stroke-width:0.222684"
         id="path874" />
      <path
         d="m 62.44515,50.232677 0.03563,-0.115795 c -0.115796,-0.03563 -0.16924,-0.106888 -0.16924,-0.213776 0,-0.05345 0.01781,-0.151425 0.04454,-0.267221 l 1.193585,-4.979208 c 0.01781,-0.06235 0.02672,-0.133611 0.02672,-0.178147 0,-0.133611 -0.08017,-0.187055 -0.285035,-0.187055 h -1.238122 l -0.02672,0.124703 c 0.115795,0.03563 0.16924,0.09798 0.16924,0.204869 0,0.06235 -0.01781,0.142518 -0.04454,0.267221 l -1.193585,4.979208 c -0.01781,0.06235 -0.03563,0.142518 -0.03563,0.178147 0,0.13361 0.08907,0.187054 0.293942,0.187054 z"
         style="fill:#676359;fill-opacity:1;stroke-width:0.222684"
         id="path876" />
      <path
         d="m 68.243819,49.226147 h -0.222684 c -0.204869,0 -0.26722,-0.05344 -0.338479,-0.240498 L 67.16603,47.542658 c 0.587885,-0.08017 0.899642,-0.240499 1.17577,-0.623515 0.30285,-0.409738 0.472089,-0.970901 0.472089,-1.523156 0,-0.409738 -0.106888,-0.685866 -0.329572,-0.864013 -0.213776,-0.178147 -0.463182,-0.240499 -0.988715,-0.240499 h -2.814723 l -0.02672,0.124703 c 0.115796,0.03563 0.16924,0.09798 0.16924,0.204869 0,0.06235 -0.01781,0.142518 -0.04454,0.267221 l -1.193585,4.979208 c -0.01782,0.07126 -0.02672,0.13361 -0.02672,0.178147 0,0.13361 0.08017,0.187054 0.285035,0.187054 h 1.229215 l 0.03563,-0.115795 c -0.115796,-0.03563 -0.16924,-0.106888 -0.16924,-0.213776 0,-0.05345 0.01781,-0.151425 0.04454,-0.267221 l 0.498812,-2.093227 h 0.463182 l 0.659144,2.333725 c 0.08017,0.276128 0.178147,0.356294 0.463182,0.356294 h 0.57007 c 0.293943,0 0.383016,-0.07126 0.454275,-0.365201 z m -2.547502,-2.556409 0.356294,-1.487528 h 0.757125 c 0.489904,0 0.650236,0.115796 0.650236,0.454275 0,0.391923 -0.160332,0.757125 -0.400831,0.90855 -0.142517,0.08907 -0.329571,0.124703 -0.650236,0.124703 z"
         style="fill:#676359;fill-opacity:1;stroke-width:0.222684"
         id="path878" />
      <path
         d="m 71.592968,44.61214 c 0.0089,-0.06235 0.01781,-0.115796 0.01781,-0.142518 0,-0.115795 -0.09798,-0.178147 -0.293943,-0.178147 h -1.229214 l -0.02672,0.124703 c 0.124703,0.04454 0.16924,0.09798 0.16924,0.195962 0,0.07126 -0.0089,0.151425 -0.04454,0.276128 l -1.193585,4.979208 c -0.02672,0.08907 -0.02672,0.13361 -0.02672,0.178147 0,0.13361 0.08017,0.187054 0.285035,0.187054 h 2.600946 c 0.33848,0 0.445368,-0.08017 0.525534,-0.418645 l 0.204869,-0.846198 h -0.142518 c -0.124703,0.222684 -0.187054,0.258313 -0.463182,0.258313 h -1.487527 z"
         style="fill:#676359;fill-opacity:1;stroke-width:0.222684"
         id="path880" />
      <path
         d="m 74.461122,50.232677 0.03563,-0.115795 c -0.115796,-0.03563 -0.16924,-0.106888 -0.16924,-0.213776 0,-0.05345 0.01781,-0.151425 0.04454,-0.267221 l 1.193585,-4.979208 c 0.01781,-0.06235 0.02672,-0.133611 0.02672,-0.178147 0,-0.133611 -0.08017,-0.187055 -0.285035,-0.187055 h -1.238122 l -0.02672,0.124703 c 0.115796,0.03563 0.16924,0.09798 0.16924,0.204869 0,0.06235 -0.01781,0.142518 -0.04454,0.267221 l -1.193585,4.979208 c -0.01781,0.06235 -0.03563,0.142518 -0.03563,0.178147 0,0.13361 0.08907,0.187054 0.293942,0.187054 z"
         style="fill:#676359;fill-opacity:1;stroke-width:0.222684"
         id="path882" />
      <path
         d="m 81.061452,44.585418 c 0.0089,-0.04454 0.01781,-0.08907 0.01781,-0.106888 0,-0.133611 -0.08907,-0.187055 -0.285035,-0.187055 h -1.095604 l -0.02672,0.124703 c 0.115796,0.03563 0.16924,0.09798 0.16924,0.204869 0,0.06235 -0.01781,0.142518 -0.04454,0.267221 l -0.587885,2.431706 -0.953087,-2.707834 c -0.08907,-0.267221 -0.151424,-0.320665 -0.365201,-0.320665 H 76.69685 l -0.02672,0.124703 c 0.115796,0.03563 0.16924,0.09798 0.16924,0.204869 0,0.06235 -0.01781,0.142518 -0.04454,0.267221 l -1.193585,4.979208 c -0.01781,0.06235 -0.02672,0.142518 -0.02672,0.178147 0,0.13361 0.08017,0.187054 0.285035,0.187054 h 1.113419 l 0.02672,-0.115795 c -0.106888,-0.03563 -0.160332,-0.106888 -0.160332,-0.213776 0,-0.05345 0.0089,-0.151425 0.03563,-0.267221 l 0.721496,-2.975055 1.086696,3.144295 c 0.115796,0.356294 0.204869,0.427552 0.47209,0.427552 h 0.561163 z"
         style="fill:#676359;fill-opacity:1;stroke-width:0.222684"
         id="path884" />
      <path
         d="m 82.584602,49.226147 0.329572,-1.371732 c 0.08017,-0.329572 0.195962,-0.418645 0.543349,-0.418645 h 1.327195 c 0.240498,0 0.329572,-0.07126 0.383016,-0.276128 l 0.160332,-0.676959 h -2.08432 l 0.311757,-1.300473 h 1.78147 c 0.347387,0 0.463183,-0.07126 0.525534,-0.311757 l 0.142518,-0.578978 h -3.821253 l -0.02672,0.124703 c 0.115795,0.03563 0.169239,0.09798 0.169239,0.204869 0,0.06235 -0.01781,0.142518 -0.04454,0.267221 l -1.193584,4.979208 c -0.01781,0.06235 -0.03563,0.142518 -0.03563,0.178147 0,0.13361 0.08907,0.187054 0.293943,0.187054 h 2.975055 c 0.391923,0 0.472089,-0.06235 0.561163,-0.445367 l 0.204869,-0.837291 h -0.115796 c -0.151425,0.240499 -0.240498,0.276128 -0.712588,0.276128 z"
         style="fill:#676359;fill-opacity:1;stroke-width:0.222684"
         id="path886" />
      <path
         d="m 85.996097,48.843131 h -0.142518 l -0.240498,1.00653 c -0.0089,0.05345 -0.01781,0.115796 -0.01781,0.151425 0,0.160333 0.08907,0.231591 0.30285,0.231591 h 2.200115 c 0.837291,0 1.362825,-0.383016 1.630045,-1.193584 0.133611,-0.383016 0.249406,-0.997624 0.249406,-1.291566 0,-0.47209 -0.213776,-0.757125 -0.694773,-0.926364 l -0.87292,-0.311758 C 88.018065,46.375795 87.893362,46.26 87.893362,46.037316 c 0,-0.178147 0.08907,-0.480997 0.187055,-0.623515 0.124703,-0.169239 0.293942,-0.231591 0.685866,-0.231591 h 0.997623 c 0.320664,0 0.409738,-0.06235 0.480997,-0.374108 l 0.124703,-0.516627 h -1.888359 c -0.712588,0 -1.113418,0.142518 -1.398453,0.489905 -0.276128,0.338479 -0.578978,1.273751 -0.578978,1.790377 0,0.204869 0.04454,0.383016 0.142517,0.534441 0.124703,0.178147 0.249406,0.26722 0.6057,0.391923 l 0.819476,0.285035 c 0.374109,0.133611 0.463183,0.231591 0.463183,0.498812 0,0.16924 -0.05345,0.409738 -0.133611,0.57007 -0.142517,0.267221 -0.365201,0.374109 -0.819476,0.374109 h -0.988716 c -0.480997,0 -0.587885,-0.08017 -0.596792,-0.383016 z"
         style="fill:#676359;fill-opacity:1;stroke-width:0.222684"
         id="path888" />
    </g>
    <path
       style="fill:#363c60;fill-opacity:1;stroke:none;stroke-width:0.227436px;stroke-linecap:butt;stroke-linejoin:miter;stroke-opacity:1"
       d="M 2.2582598,6.1972361 C 1.469112,8.0716641 1.0351066,10.219599 1.100774,12.472028 c 0.211834,7.265955 7.4970233,8.917781 14.641192,10.457996 6.895628,1.486634 13.52495,3.354356 18.560402,8.041488 C 37.410538,25.767969 40.116405,20.6382 40.089802,16.127248 40.064375,11.816075 36.591765,9.7489251 31.88586,8.491897 27.843738,7.4121785 25.252759,5.8494073 26.098428,1.6891294 c -0.89548,0.6827034 -1.484501,2.4036325 -1.523009,4.0004352 -0.06341,2.6294066 1.736752,4.1211314 3.878596,5.3000654 0.866064,0.203906 1.710559,0.40678 2.477426,0.893503 1.282988,0.8143 2.437328,1.752511 3.370927,2.924181 1.504604,1.888284 1.60348,3.05184 1.299635,3.817675 1.049381,1.939715 1.003686,3.293738 0.223374,4.223808 -0.416225,0.496107 -0.730703,0.473031 -1.035646,0.56859 0.01831,-1.359423 0.129263,-2.77121 -2.274359,-2.76172 C 31.239419,19.389896 29.682566,18.685926 27.865117,18.503149 24.495155,16.13838 20.505548,15.214842 16.371478,14.868234 9.6971199,14.308634 3.6055953,13.283904 2.2582598,6.1972361 Z"
       id="path859" />
    <g
       transform="matrix(1.211683,0,-0.13142988,0.82529836,0,0)"
       id="text853"
       style="font-size:27.3381px;line-height:1.25;font-family:'Crillee Italic Std';-inkscape-font-specification:'Crillee Italic Std';letter-spacing:-1.59205px;fill:#931a3c;fill-opacity:1;stroke-width:0.68345">
      <path
         d="m 40.211698,34.581479 1.01151,-4.210067 c 0.246043,-1.01151 0.601438,-1.284891 1.667624,-1.284891 h 4.073377 c 0.738129,0 1.01151,-0.218705 1.175538,-0.847481 l 0.492086,-2.077695 h -6.397115 l 0.956833,-3.991363 h 5.46762 c 1.066186,0 1.421582,-0.218705 1.612948,-0.956834 l 0.43741,-1.776976 H 38.981484 l -0.08201,0.382733 c 0.355395,0.109353 0.519423,0.300719 0.519423,0.628777 0,0.191366 -0.05468,0.437409 -0.13669,0.820143 l -3.663306,15.281998 c -0.05468,0.191366 -0.109352,0.437409 -0.109352,0.546762 0,0.410071 0.273381,0.5741 0.902157,0.5741 h 9.130926 c 1.202876,0 1.448919,-0.191367 1.7223,-1.366905 l 0.628777,-2.569782 h -0.355396 c -0.464747,0.738129 -0.738128,0.847481 -2.187048,0.847481 z"
         style="fill:#931a3c;fill-opacity:1;stroke-width:0.68345"
         id="path861" />
      <path
         d="m 58.139003,27.637602 -2.105034,8.830206 c -0.05468,0.191367 -0.109352,0.546762 -0.109352,0.656115 0,0.355395 0.300719,0.546762 0.847481,0.546762 h 3.389924 l 0.08201,-0.300719 c -0.328057,-0.109353 -0.492086,-0.273381 -0.492086,-0.5741 0,-0.136691 0.05468,-0.43741 0.13669,-0.792805 l 1.968344,-8.146754 c 0.355395,-1.44892 0.902157,-1.913667 2.378414,-1.913667 1.066186,0 1.530934,0.273381 1.530934,0.874819 0,0.246043 -0.08201,0.683452 -0.191367,1.120862 l -2.023019,8.529487 c -0.05468,0.191367 -0.109353,0.546762 -0.109353,0.656115 0,0.355395 0.30072,0.546762 0.847482,0.546762 H 67.68 l 0.08201,-0.300719 c -0.355395,-0.109353 -0.492085,-0.273381 -0.492085,-0.5741 0,-0.136691 0.05468,-0.43741 0.13669,-0.792805 l 2.214386,-9.240278 c 0.191367,-0.738129 0.273381,-1.312229 0.273381,-1.749639 0,-1.230214 -0.601438,-2.050357 -3.663305,-2.050357 -0.519424,0 -1.257553,0.02734 -1.58561,0.08201 -0.601438,0.109352 -0.765467,0.218705 -1.120862,0.738129 l -1.093524,1.612948 c 0.02734,-1.831653 -0.956834,-2.433091 -3.690644,-2.433091 -1.7223,0 -2.241724,0.164028 -2.706472,0.820143 l -1.038848,1.476257 0.273381,-1.120862 c 0.05468,-0.218705 0.08202,-0.410071 0.08202,-0.492086 0,-0.355395 -0.328057,-0.546762 -0.847481,-0.546762 h -3.417263 l -0.05468,0.300719 c 0.328057,0.109353 0.464748,0.273381 0.464748,0.5741 0,0.109353 0,0.218705 -0.02734,0.30072 l -2.897838,12.192792 c -0.08201,0.273381 -0.109353,0.464748 -0.109353,0.628777 0,0.382733 0.273381,0.5741 0.847482,0.5741 h 3.389924 l 0.08201,-0.300719 c -0.355395,-0.109353 -0.492085,-0.273381 -0.492085,-0.5741 0,-0.136691 0.05468,-0.43741 0.13669,-0.792805 l 1.804315,-7.545316 c 0.519424,-2.105034 0.902157,-2.515105 2.542443,-2.515105 1.01151,0 1.476257,0.273381 1.476257,0.874819 0,0.164029 -0.05468,0.519424 -0.109352,0.820143 z"
         style="fill:#931a3c;fill-opacity:1;stroke-width:0.68345"
         id="path863" />
      <path
         d="m 75.902291,24.138325 c 0.02734,-0.218705 0.05468,-0.43741 0.05468,-0.492086 0,-0.355395 -0.30072,-0.546762 -0.847482,-0.546762 h -3.389924 l -0.05468,0.300719 c 0.328057,0.109353 0.464748,0.273381 0.464748,0.5741 0,0.109353 0,0.218705 -0.02734,0.30072 l -3.772657,15.82876 c -0.08201,0.300719 -0.109353,0.492086 -0.109353,0.628776 0,0.382733 0.273381,0.5741 0.847481,0.5741 h 3.389925 l 0.05468,-0.300719 c -0.328057,-0.109352 -0.492086,-0.273381 -0.492086,-0.546762 0,-0.13669 0.05468,-0.43741 0.136691,-0.792805 l 0.492085,-1.995681 h 3.417263 c 1.530934,0 2.487767,-0.191367 3.225896,-0.656115 1.120862,-0.738128 2.269062,-2.433091 2.952515,-4.483448 0.628776,-1.858991 1.066186,-4.237406 1.066186,-5.823015 0,-2.679134 -1.148201,-3.74532 -4.046039,-3.74532 -0.738129,0 -1.421581,0.05468 -1.776977,0.13669 -0.519424,0.136691 -0.601438,0.218705 -0.984171,0.874819 l -0.984172,1.667625 z m -2.515105,10.443154 1.640286,-6.807187 c 0.300719,-1.312228 0.902157,-1.749638 2.515105,-1.749638 1.44892,0 1.941006,0.410072 1.941006,1.476257 0,1.530934 -0.656115,4.210068 -1.366905,5.576973 -0.601439,1.1482 -1.339567,1.503595 -3.198558,1.503595 z"
         style="fill:#931a3c;fill-opacity:1;stroke-width:0.68345"
         id="path865" />
      <path
         d="m 85.245446,24.275016 -2.897839,12.192792 c -0.05468,0.246043 -0.109352,0.519424 -0.109352,0.628777 0,0.382733 0.273381,0.5741 0.847481,0.5741 h 3.362586 l 0.08201,-0.300719 c -0.328058,-0.109353 -0.492086,-0.273381 -0.492086,-0.5741 0,-0.136691 0.05468,-0.43741 0.13669,-0.792805 l 2.815825,-11.700707 c 0.05468,-0.246043 0.109352,-0.519424 0.109352,-0.656115 0,-0.355395 -0.300719,-0.546762 -0.847481,-0.546762 h -3.389925 l -0.05468,0.300719 c 0.328057,0.109353 0.492086,0.273381 0.492086,0.5741 0,0.109353 -0.02734,0.218705 -0.05468,0.30072 z m 1.175538,-4.838844 -0.382733,1.667624 c -0.05468,0.13669 -0.05468,0.273381 -0.05468,0.382733 0,0.410072 0.273381,0.546762 1.038847,0.546762 h 2.515106 l 0.382733,-1.612948 c 0.02734,-0.164028 0.05468,-0.328057 0.05468,-0.437409 0,-0.382734 -0.218705,-0.546762 -0.765467,-0.546762 z"
         style="fill:#931a3c;fill-opacity:1;stroke-width:0.68345"
         id="path867" />
      <path
         d="m 90.843278,24.275016 -2.897839,12.192792 c -0.05468,0.218705 -0.109352,0.546762 -0.109352,0.628777 0,0.382733 0.300719,0.5741 0.847481,0.5741 h 3.389924 l 0.05468,-0.300719 c -0.328057,-0.109353 -0.492085,-0.273381 -0.492085,-0.5741 0,-0.136691 0.05468,-0.43741 0.13669,-0.792805 l 1.886329,-7.764021 c 0.410071,-1.776976 0.874819,-2.187048 2.433091,-2.187048 h 1.421581 c 1.093524,0 1.448919,-0.246043 1.640286,-1.038848 l 0.464748,-1.913667 h -2.788486 c -0.902158,0 -0.984172,0.02734 -1.421582,0.656115 l -1.038847,1.421581 0.218704,-0.874819 c 0.05468,-0.191367 0.109353,-0.5741 0.109353,-0.656115 0,-0.355395 -0.300719,-0.546762 -0.847481,-0.546762 h -3.362587 l -0.08201,0.300719 c 0.328057,0.109353 0.492086,0.273381 0.492086,0.5741 0,0.109353 -0.02734,0.218705 -0.05468,0.30072 z"
         style="fill:#931a3c;fill-opacity:1;stroke-width:0.68345"
         id="path869" />
      <path
         d="m 101.03394,31.054865 h 6.28776 c 1.36691,0 1.77698,-0.136691 2.05036,-0.656115 0.3554,-0.738129 0.71079,-2.569781 0.71079,-3.690643 0,-2.624458 -1.39424,-3.74532 -4.67481,-3.74532 -3.0072,0 -4.67482,0.656114 -5.987048,2.351076 -1.284891,1.694963 -2.515105,5.823016 -2.515105,8.474812 0,1.612947 0.628776,2.8705 1.749638,3.4446 0.765467,0.382734 1.968345,0.5741 3.964025,0.5741 2.15971,0 3.49928,-0.191366 4.18273,-0.5741 0.51942,-0.300719 0.62878,-0.519424 0.98417,-1.995681 l 0.49209,-1.995681 h -0.32806 c -0.87482,1.038847 -1.88633,1.366905 -4.3741,1.366905 -1.23021,0 -1.941,-0.109353 -2.26906,-0.355396 -0.43741,-0.273381 -0.62878,-0.71079 -0.62878,-1.28489 0,-0.246043 0.0547,-0.574101 0.10936,-0.87482 z m 0.62878,-2.405753 c 0.60143,-2.323739 1.33956,-3.034529 3.19855,-3.034529 1.39425,0 2.05036,0.492085 2.05036,1.558271 0,0.382734 -0.0547,0.738129 -0.24604,1.476258 z"
         style="fill:#931a3c;fill-opacity:1;stroke-width:0.68345"
         id="path871" />
    </g>
  </g>
</svg>
