<?xml version="1.0" encoding="UTF-8"?>
<svg width="704.08" height="164.71" version="1.1" viewBox="0 0 704.08 164.71" xmlns="http://www.w3.org/2000/svg">
 <path d="m73.395 164.71c-23.682 0-41.833-5.6562-54.458-16.979-12.625-11.333-18.937-27.464-18.937-48.396 0-20.484 5.8802-36.833 17.646-49.042 11.776-12.219 28.24-18.333 49.396-18.333 19.208 0 33.651 5.1823 43.333 15.542 9.6771 10.349 14.521 25.167 14.521 44.458v14.083h-85.687c0.375 5.8229 1.6042 10.687 3.6875 14.604 2.0833 3.9063 4.8385 7.0104 8.2708 9.3125 3.3437 2.3073 7.2552 3.9688 11.729 4.9791 4.4687 1 9.3542 1.5 14.646 1.5 4.5417 0 9.0052-0.5 13.396-1.5 4.401-1.0104 8.4219-2.3385 12.062-3.9792 3.2083-1.4166 6.1667-2.9427 8.875-4.5833 2.7187-1.6354 4.9427-3.0886 6.6666-4.3542h4.125v32.292c-3.1979 1.2656-6.1198 2.4375-8.7708 3.5208-2.6406 1.0833-6.2708 2.1823-10.896 3.2917-4.2396 1.125-8.6146 2-13.125 2.625-4.5 0.63541-9.9948 0.95833-16.479 0.95833zm12.958-82.229c-0.22398-8.276-2.1406-14.573-5.75-18.896-3.6146-4.3177-9.1406-6.4792-16.583-6.4792-7.5989 0-13.542 2.2708-17.833 6.8125-4.2812 4.5416-6.6406 10.729-7.0833 18.562zm173.91 78.875h-39.312v-62.229c0-5.0677-0.20832-10.115-0.625-15.146-0.40625-5.026-1.1667-8.7344-2.2917-11.125-1.3333-2.8333-3.2708-4.8594-5.8125-6.0833-2.5312-1.2344-5.9167-1.8542-10.167-1.8542-3.1979 0-6.4323 0.59896-9.7083 1.7917-3.2812 1.1979-6.7812 3.099-10.5 5.7083v88.937h-39.104v-125.48h39.104v13.854c6.401-5.4271 12.635-9.6718 18.708-12.729 6.0677-3.0521 12.792-4.5833 20.167-4.5833 12.802 0 22.594 4.0417 29.375 12.125 6.776 8.0833 10.167 19.792 10.167 35.125zm74.708 2.4584c-15.948 0-27.552-3.2761-34.812-9.8333-7.2656-6.5521-10.896-17.281-10.896-32.187v-58.646h-14.958v-27.271h14.958v-35.875h39.104v35.875h37.646v27.271h-37.646v44.458c0 4.4062 0.0302 8.2448 0.10394 11.521 0.0835 3.2813 0.6771 6.2188 1.7917 8.8125 1.0416 2.6146 2.8802 4.6823 5.5208 6.2083 2.651 1.5313 6.5104 2.2917 11.583 2.2917 2.0834 0 4.8177-0.4427 8.2083-1.3334 3.3854-0.90104 5.7552-1.7187 7.1042-2.4583h3.3333v27.583c-4.2396 1.125-8.7448 2-13.521 2.625-4.7656 0.63541-10.604 0.95834-17.521 0.95834zm108.98 0.89581c-23.682 0-41.833-5.6562-54.458-16.979-12.625-11.333-18.937-27.464-18.937-48.396 0-20.484 5.8802-36.833 17.646-49.042 11.776-12.219 28.24-18.333 49.396-18.333 19.208 0 33.651 5.1823 43.333 15.542 9.6771 10.349 14.521 25.167 14.521 44.458v14.083h-85.687c0.37493 5.8229 1.6041 10.687 3.6875 14.604 2.0833 3.9063 4.8385 7.0104 8.2708 9.3125 3.3438 2.3073 7.2552 3.9688 11.729 4.9791 4.4687 1 9.3541 1.5 14.646 1.5 4.5417 0 9.0052-0.5 13.396-1.5 4.4011-1.0104 8.4219-2.3385 12.062-3.9792 3.2083-1.4166 6.1667-2.9427 8.875-4.5833 2.7188-1.6354 4.9427-3.0886 6.6667-4.3542h4.125v32.292c-3.1979 1.2656-6.1198 2.4375-8.7708 3.5208-2.6406 1.0833-6.2708 2.1823-10.896 3.2917-4.2396 1.125-8.6145 2-13.125 2.625-4.5 0.63541-9.9948 0.95833-16.479 0.95833zm12.958-82.229c-0.22413-8.276-2.1406-14.573-5.75-18.896-3.6146-4.3177-9.1406-6.4792-16.583-6.4792-7.5989 0-13.542 2.2708-17.833 6.8125-4.2813 4.5416-6.6406 10.729-7.0833 18.562zm140.61-9.625h-3.2292c-1.5-0.51042-3.6667-0.90105-6.5-1.1667-2.8229-0.26041-5.9479-0.39583-9.375-0.39583-4.099 0-8.4062 0.59896-12.917 1.7917-4.5 1.1979-8.8698 2.6146-13.104 4.25v84.021h-39.104v-125.48h39.104v18c1.776-1.6354 4.25-3.7083 7.4167-6.2083s6.0521-4.4896 8.6667-5.9792c2.8333-1.7083 6.125-3.1719 9.875-4.3958 3.7604-1.2344 7.3229-1.8542 10.687-1.8542 1.2604 0 2.6718 0.0363 4.2292 0.10413 1.5677 0.0729 2.9844 0.18228 4.25 0.33331z" fill="#0299d2"/>
 <path d="m613.46 146.96v-10.937c-2.7813 0.28119-5.0208 0.52082-6.7292 0.72914-1.7084 0.19805-3.3906 0.59376-5.0417 1.1875-1.4479 0.5-2.5625 1.2604-3.3542 2.2708-0.79165 1.0156-1.1875 2.3646-1.1875 4.0417 0 2.4583 0.65624 4.1562 1.9792 5.0833 1.3333 0.91668 3.2917 1.375 5.875 1.375 1.4271 0 2.8958-0.32277 4.3959-0.97917 1.5-0.65105 2.8541-1.5729 4.0625-2.7708zm0 8.1458c-1.125 0.93229-2.1354 1.7708-3.0208 2.5208-0.8906 0.75-2.0781 1.5-3.5625 2.25-1.474 0.70836-2.9063 1.25-4.2917 1.625-1.3906 0.37493-3.3281 0.56251-5.8125 0.56251-4.6563 0-8.5156-1.5521-11.583-4.6666-3.0729-3.125-4.6041-7.0521-4.6041-11.792 0-3.8854 0.77605-7.0312 2.3333-9.4375 1.5677-2.401 3.8177-4.3021 6.75-5.7083 2.9583-1.4271 6.4896-2.4218 10.604-2.9791 4.125-0.56773 8.5521-1.0104 13.292-1.3334v-0.27099c0-2.901-1.0729-4.901-3.2084-6-2.1406-1.1094-5.3437-1.6666-9.6041-1.6666-1.9479 0-4.2083 0.35414-6.7916 1.0625-2.5833 0.69793-5.1042 1.5833-7.5625 2.6666h-1.4167v-12.667c1.625-0.46875 4.2396-1.026 7.8542-1.6667 3.625-0.63541 7.276-0.95833 10.958-0.95833 9.0416 0 15.625 1.5104 19.75 4.5208 4.125 3.0156 6.1875 7.6042 6.1875 13.771v35.729h-16.271zm43.786 5.5625h-16.354v-52.521h16.354zm0.47917-60h-17.312v-12.771h17.312zm46.359 22.958h-1.3542c-0.62499-0.20825-1.5312-0.36473-2.7083-0.47917-1.1823-0.10923-2.4948-0.16668-3.9375-0.16668-1.7083 0-3.5104 0.25021-5.3958 0.75001-1.8906 0.5-3.724 1.0938-5.5 1.7708v35.167h-16.354v-52.521h16.354v7.5417c0.74996-0.69272 1.7812-1.5625 3.1042-2.6042 1.3333-1.0417 2.5469-1.875 3.6458-2.5 1.1771-0.71874 2.5521-1.3385 4.125-1.8542 1.5833-0.51042 3.0729-0.77084 4.4792-0.77084 0.52603 0 1.1145 0.0208 1.7708 0.0626 0.65102 0.0314 1.2396 0.0729 1.7708 0.12495z" fill="#9c9d9f"/>
</svg>
