<?xml version="1.0" encoding="utf-8"?>
<!-- Generator: Adobe Illustrator 25.1.0, SVG Export Plug-In . SVG Version: 6.00 Build 0)  -->
<svg version="1.1" id="Ebene_1" xmlns="http://www.w3.org/2000/svg" xmlns:xlink="http://www.w3.org/1999/xlink" x="0px" y="0px"
	 viewBox="0 0 95.8960648 34.4703293" enable-background="new 0 0 95.8960648 34.4703293" xml:space="preserve">
<g>
	<g>
		<path fill="#2DBBE0" d="M18.3088093,34.104084h-3.6703978V21.8531513h3.6703978V34.104084z"/>
	</g>
	<path fill="#2DBBE0" d="M19.4172516,30.3365192h3.6215687c0.097168,0.8994102,0.7294903,1.3369102,2.1391525,1.3369102
		c1.4340782,0,2.0175705-0.340332,2.0175705-1.0209942c0-0.6318321-0.4863262-0.9238243-1.7499924-1.0937443l-1.2885704-0.1704102
		c-2.6982327-0.3642559-4.253891-1.4096622-4.253891-3.8403187c0-2.3579006,1.5317326-4.0590668,5.3476372-4.0590668
		c3.3788948,0,5.1533012,1.3364201,5.3232231,3.9863129h-3.5727406c-0.121582-0.7050743-0.5107403-1.1425724-1.7504826-1.1425724
		c-1.2153282,0-1.6772404,0.413084-1.6772404,0.9477501c0,0.5351543,0.2919922,0.8266563,1.3369102,0.9726524l1.2885685,0.1699219
		c3.1113167,0.413084,4.666975,1.3857365,4.666975,3.937973c0,2.5766506-1.7016525,4.1078968-5.6879673,4.1078968
		C20.9729099,34.4688301,19.4900055,32.7915878,19.4172516,30.3365192z"/>
	<path fill="#2DBBE0" d="M44.1822968,26.2769642h-3.6699066c-0.2431641-1.020504-0.9482384-1.5312443-2.3823166-1.5312443
		c-1.6772385,0-2.6982307,1.1181602-2.6982307,3.2328987s1.0209923,3.2328968,2.6982307,3.2328968
		c1.4340782,0,2.1391525-0.510252,2.3823166-1.5312443h3.6699066c-0.364254,2.9897346-2.1386604,4.788559-6.0522232,4.788559
		c-4.618145,0-6.4169674-2.8681545-6.4169674-6.4902115c0-3.6215687,1.7988224-6.4897232,6.4169674-6.4897232
		C42.0436363,21.4888954,43.8180428,23.2872295,44.1822968,26.2769642z"/>
	<path fill="#2DBBE0" d="M51.6163521,21.4888954c4.6669769,0,6.5873795,2.5761623,6.5873795,6.4897232
		s-1.9204025,6.4902115-6.5873795,6.4902115s-6.5868874-2.5766525-6.5868874-6.4902115S46.949379,21.4888954,51.6163521,21.4888954z
		 M51.6163521,31.2115154c2.0175705,0,2.8686447-1.1909122,2.8686447-3.2328968s-0.8510742-3.2328987-2.8686447-3.2328987
		c-2.0170822,0-2.8681526,1.1909142-2.8681526,3.2328987S49.5992699,31.2115154,51.6163521,31.2115154z"/>
	<path fill="#2DBBE0" d="M61.7003021,21.8531513l2.8437424,8.3617859l2.844223-8.3617859h3.9618988l-4.594223,12.2509327h-4.4238091
		L57.737915,21.8531513H61.7003021z"/>
	<path fill="#2DBBE0" d="M83.2807922,28.9751968h-8.7504578c0.1699219,1.8476486,0.9477463,2.5522366,2.7709808,2.5522366
		c1.3857422,0,1.9443283-0.38867,2.1630783-1.1909142h3.6220627c-0.21875,2.3818264-2.1391525,4.1323109-5.785141,4.1323109
		c-4.6181412,0-6.4169693-2.6010666-6.4169693-6.4902115c0-3.2812386,1.4824219-6.4897232,6.222641-6.4897232
		c4.4482193,0,6.2226334,2.5761623,6.2226334,6.4653091C83.3296204,28.2461948,83.3296204,28.6348648,83.2807922,28.9751968z
		 M79.5859756,26.4473743c-0.1455078-1.2641563-0.6801682-2.1147385-2.4789886-2.1147385
		c-1.5800781,0-2.2851486,0.6562462-2.5283127,2.1147385H79.5859756z"/>
	<path fill="#2DBBE0" d="M90.427681,24.964468c-1.3125,0-2.2851486,0.6562481-2.2851486,2.2363205v6.9032955h-3.6704025V21.8531513
		h3.4516525v1.4101524h0.0244141c0.4863281-0.9482403,1.5073166-1.7744083,3.3544769-1.7744083
		c0.1459961,0,0.534668,0.0239258,0.6806641,0.0483398v3.5244007C91.4242554,24.9888821,90.9135132,24.964468,90.427681,24.964468z"
		/>
	<path fill="#2DBBE0" d="M13.0282726,17.0890083V34.104084H9.5771132v-1.1425743
		c-0.8022432,0.9238243-2.0175705,1.5073204-3.7919779,1.5073204C1.5312444,34.4688301,0,31.9165916,0,27.9786186
		c0-3.9374866,1.5312444-6.4897232,5.7851353-6.4897232c1.6039982,0,2.7709856,0.4858379,3.5727406,1.2636681v-5.6635551H13.0282726
		z M9.4555321,27.9786186c0-2.0419846-0.8510714-3.2328987-2.8686419-3.2328987
		c-2.0170827,0-2.8681538,1.1909142-2.8681538,3.2328987s0.8510711,3.2328968,2.8681538,3.2328968
		C8.6044607,31.2115154,9.4555321,30.0206032,9.4555321,27.9786186z"/>
	<circle fill="#2DBBE0" cx="93.6684189" cy="32.2426872" r="2.2276421"/>
</g>
<g>
	<path fill="#871C54" d="M6.3306179,6.0748696L6.0588694,7.2935638h-3.111259v1.7130098H6.001699l-0.25456,1.3231478H2.9476104
		v1.8618517h3.3830075l-0.2526708,1.2223463H1.4798775V6.0748696H6.3306179z"/>
	<path fill="#871C54" d="M48.3259392,10.2141228c0.2748337,0.0332441,0.6474495,0.0860701,0.8319321,0.1795683
		c0.186306,0.0922394,0.341259,0.2287416,0.4513206,0.3627872c0.1100578,0.1339836,0.1887627,0.2852812,0.2385674,0.4537678
		c0.047348,0.1684237,0.0713348,0.339366,0.0713348,0.5103083v0.1033201c0,0.3024702-0.0553436,0.5619373-0.1654053,0.7784004
		c-0.1100578,0.2164011-0.2656403,0.3922539-0.4685707,0.5251045c-0.202301,0.1352425-0.5896492,0.243474-0.8737373,0.3049879
		c-0.2859154,0.061451-0.6007309,0.0921764-0.9438171,0.0921764c-0.288372,0-0.5976448-0.0220995-0.9278259-0.0663614
		c-0.3289795-0.0455217-0.65979-0.1193132-0.9887085-0.2213755l0.2281151-1.0071411
		c0.3221817,0.0897837,0.6154633,0.1438684,0.8767624,0.1807642c0.2613602,0.0381546,0.5226555,0.0528879,0.7840157,0.0566025
		c0.2441063,0.0049114,0.4027138,0.0036516,0.5656624-0.0135365c0.1500397-0.017252,0.2612953-0.0602551,0.3443451-0.1155987
		c0.0823555-0.0553436,0.1592331-0.1414127,0.1844177-0.2262859c0.0203362-0.0700769,0.0252495-0.113143,0.0252495-0.2152042
		c0-0.1586647-0.0430679-0.2705479-0.1211433-0.3775206c-0.0799637-0.1057768-0.2434769-0.1635752-0.4980392-0.1992121
		l-0.7661324-0.104517c-0.5361938-0.068881-1.0883179-0.2152042-1.341053-0.468564
		c-0.255188-0.2545557-0.3824387-0.591466-0.3824387-1.0107937V9.6324797c0-0.5422926,0.2004128-0.9493427,0.6025581-1.2211504
		c0.4027748-0.2717438,1.1393814-0.4438825,1.8876953-0.4438825c0.3719864,0,0.707077,0.0282702,1.0052719,0.0836139
		c0.3000793,0.0540848,0.5374527,0.1167946,0.7157631,0.1856756l-0.2435417,0.9764156
		c-0.2410202-0.0627098-0.4863281-0.1082315-0.7175255-0.138957c-0.2508469-0.0332441-0.4722252-0.0491734-0.7335205-0.0491734
		c-0.4741135,0-0.780304,0.02701-0.9481621,0.1266165c-0.1696854,0.1008654-0.241024,0.1943007-0.241024,0.4144163
		c0,0.1844788,0.0589981,0.2877998,0.1616898,0.3676987c0.1045189,0.0787029,0.2687263,0.1414127,0.5300255,0.1771126
		L48.3259392,10.2141228z"/>
	<path fill="#871C54" d="M43.4352188,8.065794c-0.3922615-0.099606-0.775959-0.1254206-1.2180862-0.1254206
		c-0.4217911,0-0.9278259,0.0528879-1.2604599,0.1512346c-0.3320656,0.1008654-0.6142654,0.2533598-0.846096,0.459938
		c-0.2311363,0.2053823-0.4095116,0.4697599-0.5343056,0.7931967c-0.1254234,0.3233728-0.1881332,0.7070646-0.1881332,1.1547251
		v0.3602686c0,0.8730955,0.177681,1.5137978,0.5306511,1.9233027c0.3529091,0.408246,1.0083542,0.6714277,1.7074966,0.6714277
		c0.7273521,0,1.1835823-0.1992121,1.5550003-0.5570879v0.2336521c0,0.5706253-0.0953255,0.9112501-0.3350906,1.2002459
		c-0.2391968,0.2889967-0.6640701,0.4144163-1.2125435,0.3897982c-0.3855209-0.0159922-0.6075287-0.0393505-0.898922-0.087265
		c-0.292717-0.0479774-0.5663528-0.1119471-0.814743-0.1869345l-0.2398262,1.0925808
		c0.3357201,0.1155987,0.6800652,0.1992121,1.0324059,0.2509041c0.3541679,0.0516291,0.742775,0.0663624,1.1731911,0.0774431
		c0.8829308,0.0209036,1.5587158-0.2410183,2.0265923-0.7230558c0.4673157-0.4802122,0.6751556-1.1602659,0.6751556-2.0395317
		V8.4962025C44.2665176,8.3252602,43.8281059,8.1653996,43.4352188,8.065794z M43.1812859,10.9815054
		c0,0.4820375-0.09161,0.8361988-0.2785492,1.0624847c-0.1856766,0.2262859-0.4795876,0.3406248-0.8853874,0.3406248
		c-0.233654,0-0.4261322-0.03444-0.5724602-0.1033201c-0.1487808-0.0688181-0.263813-0.1709423-0.3461685-0.3037291
		c-0.0817909-0.1352434-0.1395912-0.2975588-0.1697502-0.4906635c-0.0313568-0.1918459-0.0467186-0.4156132-0.0467186-0.668973
		V10.446579c0-0.5497217,0.1051483-0.9419756,0.3154449-1.1756277c0.2096672-0.2336521,0.5411072-0.3505096,0.9930534-0.3505096
		c0.1795082,0,0.3584518,0.017251,0.5367622,0.0516911c0.1801376,0.034441,0.3308067,0.0897217,0.4537735,0.164772V10.9815054z"/>
	<path fill="#871C54" d="M33.5265236,13.4139194V8.0645971h1.3059807l0.0817909,0.5767326
		c0.1721382-0.2274818,0.394146-0.4008789,0.665329-0.521389c0.2699242-0.1193123,0.5828514-0.1795673,0.9327354-0.1795673
		c0.288372,0,0.6154671,0.0368958,0.853466,0.113143c0.2361107,0.0762472,0.4408684,0.1905861,0.6130104,0.3455353
		c0.1715736,0.1549501,0.3061867,0.3479919,0.40271,0.5829039c0.0959549,0.2323923,0.1433029,0.5078516,0.1433029,0.8239212
		v3.6080427h-1.4222107v-3.2674179c0-0.4328642-0.0793304-0.7403078-0.2373695-0.9235277
		C36.7072945,9.0409508,36.4711838,8.95123,36.1010208,8.95123c-0.4070549,0-0.7071381,0.2114897-0.8872757,0.4574194
		c-0.1912193,0.2582703-0.2170334,0.7760077-0.2170334,1.2445087v2.7607613H33.5265236z"/>
	<path fill="#871C54" d="M16.5701199,9.2623253c-0.0811596-0.0209036-0.1813354-0.0418072-0.2988243-0.061451
		C16.1551285,9.1799078,16.033989,9.16889,15.9103918,9.16889c-0.453146,0-0.7808685,0.1192493-0.983799,0.356617
		c-0.2023001,0.2361078-0.2551889,0.4943151-0.2551889,0.9813271v2.9070854h-1.5420923V8.0645971h1.3773174l0.0829859,0.6381845
		c0.1703148-0.2336531,0.3836966-0.4107018,0.6376266-0.5312119C15.481802,8.0522566,15.7892504,7.992002,16.145874,7.992002
		c0.1371326,0,0.2588406,0.0086265,0.3652477,0.0258145c0.1063461,0.017252,0.2182941,0.0467806,0.3350906,0.0873289
		L16.5701199,9.2623253z"/>
	<path fill="#871C54" d="M12.1786947,8.0645971v5.3493223h-1.3053513l-0.0811596-0.5767956
		c-0.1727705,0.2262859-0.3947792,0.4009428-0.6653309,0.5201931c-0.2717495,0.1205091-0.5828495,0.1807642-0.9333658,0.1807642
		c-0.2883711,0-0.6154642-0.0380926-0.8522053-0.1143398C8.103344,13.348691,7.8985882,13.2343521,7.7276435,13.079402
		c-0.1715746-0.1549501-0.3056231-0.3492508-0.4027119-0.5829029c-0.0965858-0.2336521-0.1439338-0.5091114-0.1439338-0.8251181
		V8.0645971h1.4234695v3.267355c0,0.4328642,0.0787039,0.7403078,0.2354822,0.9223318
		c0.1580372,0.1819601,0.3953457,0.2717438,0.7655058,0.2717438c0.4070559,0,0.7065086-0.2102928,0.8860168-0.4562225
		c0.1900225-0.2582712,0.2170963-0.7772045,0.2170963-1.2445087V8.0645971H12.1786947z"/>
	<path fill="#871C54" d="M31.8128567,5.9039273c0.2865467,0,0.507925,0.0639696,0.6358013,0.1844792
		c0.1297035,0.1205091,0.1930466,0.3061843,0.1930466,0.5251036c0,0.221312-0.063343,0.4057908-0.1930466,0.5263
		c-0.1278763,0.1193132-0.3492546,0.1771126-0.6358013,0.1771126c-0.2871113,0-0.5152264-0.0577993-0.643734-0.1771126
		c-0.129137-0.1205091-0.1931076-0.3049879-0.1931076-0.5263c0-0.2189193,0.0639706-0.4045944,0.1931076-0.5251036
		C31.2976303,5.9678969,31.5257454,5.9039273,31.8128567,5.9039273z M31.1002407,8.0645971h1.4504795v5.3493223h-1.4504795
		V8.0645971z"/>
	<path fill="#871C54" d="M28.137764,11.3504l0.7882977-3.2858028h1.4302063l-1.5777912,5.3493223h-1.3047848l-0.932106-3.2354326
		l-0.9192619,3.2354326h-1.3539581l-1.6121693-5.3493223h1.5125618l0.7950344,3.318984l0.8761959-3.0939569h1.4234066
		L28.137764,11.3504z"/>
	<path fill="#871C54" d="M22.2238903,9.4910669c-0.0787029-0.3160696-0.212122-0.5878143-0.4027119-0.8128405
		c-0.1887627-0.2275457-0.4414959-0.4070501-0.7563114-0.5373821c-0.3172722-0.130394-0.8294773-0.1931043-1.3041553-0.1931043
		c-0.4746799,0-1.0034428,0.0799613-1.3201485,0.2102933c-0.3166409,0.130331-0.5693111,0.3098993-0.7581387,0.5361853
		c-0.1893291,0.2274818-0.3252659,0.4992266-0.406992,0.8152962c-0.0830498,0.3160067-0.1494122,0.6369867-0.1494122,1.0071411
		v0.4340611c0,0.3701534,0.0602551,0.7058678,0.1395264,1.0231333c0.0787029,0.3160696,0.2127514,0.5890741,0.401516,0.8190117
		c0.1893921,0.2300005,0.4414959,0.4119606,0.7581387,0.5410957c0.3160744,0.130331,0.854723,0.2114897,1.3355103,0.2114897
		c0.4814777,0,1.0065918-0.0725327,1.3268852-0.2102308c0.3191586-0.1365013,0.5724602-0.3234358,0.7575703-0.5570879
		c0.1856785-0.2336531,0.3160133-0.5066566,0.3922615-0.8202076c0.0750523-0.3111582,0.1371326-0.6456127,0.1371326-1.0022306
		v-0.4328642C22.3745613,10.151413,22.3032246,9.8083324,22.2238903,9.4910669z M20.9461803,11.0331345
		c0,0.555829-0.0872669,0.9493418-0.2631226,1.1793423c-0.1734009,0.2311344-0.479023,0.3455362-0.9118938,0.3455362
		c-0.2127533,0-0.3953457-0.0233593-0.5465832-0.0713358c-0.1518669-0.0479774-0.2773533-0.130332-0.3750706-0.2483854
		c-0.1002388-0.1155987-0.1734009-0.2730036-0.2176647-0.468564c-0.0443249-0.1954975-0.0652294-0.4414272-0.0652294-0.7365932
		v-0.598896c0-0.5496588,0.0897846-0.938261,0.2718124-1.1694574c0.1813965-0.2299376,0.4924965-0.3455362,0.9327354-0.3455362
		c0.440237,0,0.7458611,0.1155987,0.9168053,0.3455362c0.1727715,0.2311964,0.2582111,0.6197987,0.2582111,1.1694574V11.0331345z"/>
	<g>
		<path fill="#6BCCE0" d="M55.0280457,0.0245906c-1.1676483-0.1598607-1.7591248,0.4894673-2.5763245,1.0858442
			l-2.7896423,2.1926548h-0.0018883l0.5368233,0.2840219l0.0049095,0.0024555
			c0.6978836,0.3443398,1.6718597,0.2262859,2.3328476-0.2643778l1.1781044-0.9370646l0.4518852-0.3578136l2.2467728-1.7856048
			L55.0280457,0.0245906z"/>
		<path fill="#00A6CF" d="M49.6620789,3.3030896l0.534935,0.2840219l0.0049095,0.0024555
			c0.6978836,0.3443398,1.6718597,0.2262859,2.3328476-0.2643778l1.1781044-0.9370646l0.4518852-0.3578136L49.6620789,3.3030896z"/>
		<path fill="#871C54" d="M59.7939758,1.3785273l-1.4984589-0.270548c0,0-1.0434875-0.2471262-1.9153366,0.4279532
			c0,0-0.6444283,0.4783859-1.1166496,0.8497365l-1.055706,0.8350031l-2.442276,1.941751l0,0L51.745842,5.1796117
			l0.7360382,0.3886018c0.6997108,0.3467956,1.6743164,0.2300005,2.3371277-0.2619224l2.1828079-1.7301979l1.761013-1.3859215
			L59.7939758,1.3785273z"/>
		<path fill="#BDBABA" d="M55.2635307,2.385669c0.4722214-0.3713505,1.1166496-0.8497365,1.1166496-0.8497365
			c0.1654015-0.1278759,0.3369141-0.222571,0.5054054-0.2926477l-2.7208252,0.787026l0,0l-0.4518852,0.3578136L52.534771,3.3251891
			c-0.6609879,0.4906638-1.634964,0.6087177-2.3328476,0.2643778c0.5963898,0.3578765,1.5224495,0.4390347,2.9163284,0.023422
			l0.9518127-0.284085l0.1377602-0.1082318L55.2635307,2.385669z"/>
		<path fill="#BDBABA" d="M59.0997467,3.2182167c0.4501228-0.3529027,0.7888641-0.6074584,1.1264725-0.7587562l-3.0454636,0.9776752
			l-0.1789398,0.1389575l-2.1828079,1.7301979C54.1561966,5.798214,53.181591,5.915009,52.4818802,5.5682135
			c1.0754128,0.5915289,2.7300186,0.1574054,4.1221313-0.3381691l0,0l0.0836182-0.0676212
			C56.6876297,5.1624231,59.016758,3.2784712,59.0997467,3.2182167z"/>
		<path fill="#BDBABA" d="M62.6807709,5.1796117c-1.2223663-0.3553581-1.58881-0.1315908-3.0294685,0.3025327l0,0
			l-0.1193161,0.099606l0,0l-0.001194,0.0012593l0.001194-0.0012593L59.528965,5.5842061l-2.3223953,1.8396893
			c-0.65979,0.4894042-1.6945877,0.5840993-2.3924713,0.2422781c0.8632889,0.4500527,1.7535858,0.3393655,3.2803154-0.1365018
			l6.1161728-1.8778443L62.6807709,5.1796117z"/>
		<path fill="#871C54" d="M63.0853729,2.6414838l-1.6183395-0.2939069c-0.9678078-0.1795678-1.427124,0.1340463-2.3672867,0.8706398
			c-0.0829887,0.0602546-2.412117,1.9442065-2.412117,1.9442065l0,0l-2.6175652,2.1114335l0.7378616,0.3897982
			c0.6991425,0.3455987,1.7376556,0.2521005,2.3986435-0.2397594l2.3223953-1.8396893l0.0030212-0.0024557l-0.001194,0.0012593
			L63.0853729,2.6414838z"/>
		<polygon fill="#B01F66" points="54.0700645,3.3289039 59.244873,1.8113917 57.1807556,3.4371357 51.745842,5.1796117 		"/>
		<polygon fill="#B01F66" points="56.6040115,5.2300444 62.2362518,3.343637 59.6513023,5.4821444 54.0700645,7.2738566 		"/>
	</g>
</g>
</svg>
