<?xml version="1.0" encoding="UTF-8" ?>
<!DOCTYPE svg PUBLIC "-//W3C//DTD SVG 1.1//EN" "http://www.w3.org/Graphics/SVG/1.1/DTD/svg11.dtd">
<svg width="415pt" height="93pt" viewBox="0 0 415 93" version="1.1" xmlns="http://www.w3.org/2000/svg">
<g id="#cc0000ff">
<path fill="#cc0000" opacity="1.00" d=" M 0.00 0.00 L 415.00 0.00 L 415.00 93.00 L 0.00 93.00 L 0.00 0.00 M 156.20 9.28 C 153.23 10.32 151.47 14.07 153.16 16.90 C 155.01 21.22 162.22 20.66 163.23 15.98 C 164.76 11.90 160.16 7.64 156.20 9.28 M 11.01 10.24 C 10.99 29.83 11.00 49.41 11.00 69.00 C 14.17 69.01 17.34 69.00 20.51 68.98 C 20.49 59.82 20.51 50.67 20.50 41.51 C 28.27 41.45 36.05 41.60 43.82 41.43 C 43.75 38.70 43.74 35.97 43.75 33.25 C 36.00 33.24 28.25 33.25 20.50 33.24 C 20.50 28.24 20.50 23.25 20.51 18.25 C 28.26 18.25 36.01 18.27 43.76 18.23 C 43.75 15.57 43.75 12.91 43.75 10.25 C 32.84 10.24 21.92 10.25 11.01 10.24 M 132.25 31.00 C 130.08 31.00 127.91 31.00 125.75 31.00 C 125.75 33.58 125.75 36.16 125.75 38.74 C 127.91 38.75 130.08 38.76 132.24 38.76 C 132.25 48.84 132.25 58.92 132.24 68.99 C 135.16 69.00 138.08 69.00 141.00 69.00 C 141.00 58.92 141.00 48.84 141.00 38.76 C 143.17 38.76 145.33 38.75 147.50 38.75 C 147.50 36.17 147.50 33.60 147.52 31.02 C 145.34 31.01 143.17 30.99 141.00 30.99 C 141.00 26.25 141.00 21.50 141.00 16.75 C 138.11 16.77 135.23 16.75 132.35 16.68 C 132.14 21.45 132.29 26.22 132.25 31.00 M 218.25 16.75 C 218.25 21.50 218.25 26.25 218.25 31.00 C 216.08 31.00 213.91 31.00 211.75 31.00 C 211.75 33.58 211.75 36.16 211.75 38.75 C 213.91 38.75 216.08 38.76 218.24 38.76 C 218.25 48.84 218.25 58.91 218.24 68.99 C 221.16 69.00 224.08 69.00 227.00 69.00 C 227.00 58.92 227.00 48.84 227.00 38.76 C 229.17 38.76 231.33 38.75 233.50 38.75 C 233.50 36.17 233.50 33.59 233.51 31.02 C 231.34 31.01 229.17 31.00 227.00 30.99 C 227.00 26.25 227.00 21.50 227.00 16.75 C 224.08 16.75 221.16 16.75 218.25 16.75 M 54.25 34.29 C 50.06 38.36 48.53 44.40 48.48 50.08 C 48.55 55.95 50.00 62.33 54.53 66.42 C 61.19 72.55 73.00 71.70 78.28 64.15 C 78.26 65.76 78.24 67.38 78.24 68.99 C 81.16 69.00 84.08 69.00 87.00 69.00 C 87.00 56.33 87.00 43.67 87.00 31.00 C 84.09 31.00 81.18 31.00 78.27 30.99 C 78.61 32.89 78.82 34.82 78.64 36.74 C 76.86 35.17 75.60 33.03 73.53 31.79 C 67.47 28.42 59.17 29.27 54.25 34.29 M 101.36 31.45 C 95.80 33.76 92.98 41.37 96.65 46.41 C 100.58 51.42 107.21 52.61 112.64 55.28 C 115.44 56.47 115.89 60.66 113.45 62.44 C 109.08 65.87 101.73 63.62 100.05 58.27 C 97.67 59.54 95.30 60.83 92.93 62.13 C 97.01 70.97 108.77 72.17 116.88 68.77 C 123.28 66.24 125.77 57.06 121.18 51.83 C 117.01 47.29 110.47 46.70 105.35 43.71 C 102.87 42.17 103.34 38.10 105.96 36.98 C 109.44 35.21 113.89 36.73 115.78 40.09 C 117.78 38.67 119.80 37.27 121.80 35.85 C 117.68 28.97 108.05 28.52 101.36 31.45 M 176.90 33.83 C 167.83 41.02 167.08 55.92 174.46 64.55 C 180.31 70.75 190.12 71.89 197.86 68.99 C 202.48 67.28 205.89 63.52 208.38 59.39 C 205.98 57.98 203.58 56.57 201.17 55.17 C 198.46 60.82 191.88 64.31 185.75 62.23 C 180.88 60.99 178.87 55.82 178.28 51.33 C 188.46 51.15 198.64 51.31 208.82 51.24 C 208.99 44.68 207.29 37.34 201.68 33.29 C 194.44 28.34 183.89 28.45 176.90 33.83 M 267.07 34.09 C 256.96 41.97 257.28 59.78 267.96 67.03 C 274.62 71.52 283.71 71.49 290.78 67.95 C 290.74 64.66 290.72 61.37 290.80 58.08 C 286.35 63.82 276.77 64.45 271.77 59.15 C 267.84 54.45 267.74 47.03 271.03 41.96 C 275.61 35.58 285.89 36.27 290.82 41.89 C 290.72 38.57 290.74 35.26 290.77 31.95 C 283.26 28.41 273.73 29.01 267.07 34.09 M 311.17 30.24 C 301.31 32.05 293.69 41.90 294.84 51.94 C 295.55 60.62 302.49 68.18 310.97 69.94 C 320.43 72.30 331.17 66.96 334.89 57.92 C 337.90 51.15 336.55 42.83 331.74 37.23 C 326.85 31.37 318.62 28.57 311.17 30.24 M 351.72 37.27 C 351.74 35.18 351.76 33.09 351.76 31.01 C 349.00 31.00 346.24 31.00 343.49 31.02 C 343.50 43.67 343.51 56.32 343.48 68.98 C 346.40 69.00 349.32 69.01 352.25 69.00 C 352.25 62.67 352.26 56.35 352.23 50.02 C 352.28 47.18 352.22 44.14 353.63 41.57 C 355.87 37.68 361.21 36.17 365.29 37.83 C 368.66 39.46 368.98 43.73 369.21 47.00 C 369.31 54.33 369.22 61.66 369.24 68.99 C 372.16 69.00 375.08 69.00 378.00 69.00 C 378.02 62.64 377.97 56.28 378.01 49.91 C 378.15 46.65 378.36 43.14 380.18 40.32 C 382.43 37.02 387.04 36.74 390.59 37.57 C 393.98 38.83 394.57 42.87 394.71 46.03 C 394.82 53.68 394.71 61.34 394.75 69.00 C 397.66 69.00 400.58 69.00 403.50 69.00 C 403.50 60.33 403.50 51.66 403.51 42.99 C 403.43 39.85 403.35 36.37 401.16 33.88 C 397.71 29.67 391.52 29.00 386.54 30.35 C 382.65 31.34 379.63 34.15 377.19 37.20 C 375.32 32.28 370.18 29.30 364.98 29.71 C 359.52 29.54 354.65 32.84 351.72 37.27 M 153.46 31.06 C 153.54 49.70 153.49 68.34 153.49 86.98 C 156.41 87.00 159.33 87.00 162.25 87.00 C 162.25 68.33 162.25 49.67 162.25 31.00 C 159.32 30.98 156.39 31.00 153.46 31.06 M 244.37 59.45 C 240.99 60.27 239.23 64.84 241.49 67.60 C 243.50 70.60 248.52 70.40 250.27 67.22 C 252.83 63.51 248.63 57.98 244.37 59.45 Z" />
<path fill="#cc0000" opacity="1.00" d=" M 183.63 38.59 C 187.21 36.66 191.79 36.73 195.44 38.47 C 198.14 39.78 199.23 42.75 199.90 45.48 C 192.92 45.51 185.95 45.51 178.97 45.48 C 179.87 42.84 181.04 39.99 183.63 38.59 Z" />
<path fill="#cc0000" opacity="1.00" d=" M 64.23 38.15 C 68.87 36.39 75.08 38.07 77.11 42.89 C 79.36 48.11 79.15 54.88 75.41 59.38 C 71.29 64.41 62.04 63.77 59.12 57.80 C 56.09 51.40 56.75 41.11 64.23 38.15 Z" />
<path fill="#cc0000" opacity="1.00" d=" M 312.14 38.07 C 318.25 35.76 325.17 40.16 326.73 46.26 C 328.90 52.86 324.88 61.11 317.87 62.53 C 311.69 64.01 305.43 59.17 304.30 53.15 C 302.79 47.14 306.09 40.02 312.14 38.07 Z" />
</g>
<g id="#ffffffff">
<path fill="#ffffff" opacity="1.00" d=" M 156.20 9.28 C 160.16 7.64 164.76 11.90 163.23 15.98 C 162.22 20.66 155.01 21.22 153.16 16.90 C 151.47 14.07 153.23 10.32 156.20 9.28 Z" />
<path fill="#ffffff" opacity="1.00" d=" M 11.01 10.24 C 21.92 10.25 32.84 10.24 43.75 10.25 C 43.75 12.91 43.75 15.57 43.76 18.23 C 36.01 18.27 28.26 18.25 20.51 18.25 C 20.50 23.25 20.50 28.24 20.50 33.24 C 28.25 33.25 36.00 33.24 43.75 33.25 C 43.74 35.97 43.75 38.70 43.82 41.43 C 36.05 41.60 28.27 41.45 20.50 41.51 C 20.51 50.67 20.49 59.82 20.51 68.98 C 17.34 69.00 14.17 69.01 11.00 69.00 C 11.00 49.41 10.99 29.83 11.01 10.24 Z" />
<path fill="#ffffff" opacity="1.00" d=" M 132.25 31.00 C 132.29 26.22 132.14 21.45 132.35 16.68 C 135.23 16.75 138.11 16.77 141.00 16.75 C 141.00 21.50 141.00 26.25 141.00 30.99 C 143.17 30.99 145.34 31.01 147.52 31.02 C 147.50 33.60 147.50 36.17 147.50 38.75 C 145.33 38.75 143.17 38.76 141.00 38.76 C 141.00 48.84 141.00 58.92 141.00 69.00 C 138.08 69.00 135.16 69.00 132.24 68.99 C 132.25 58.92 132.25 48.84 132.24 38.76 C 130.08 38.76 127.91 38.75 125.75 38.74 C 125.75 36.16 125.75 33.58 125.75 31.00 C 127.91 31.00 130.08 31.00 132.25 31.00 Z" />
<path fill="#ffffff" opacity="1.00" d=" M 218.25 16.75 C 221.16 16.75 224.08 16.75 227.00 16.75 C 227.00 21.50 227.00 26.25 227.00 30.99 C 229.17 31.00 231.34 31.01 233.51 31.02 C 233.50 33.59 233.50 36.17 233.50 38.75 C 231.33 38.75 229.17 38.76 227.00 38.76 C 227.00 48.84 227.00 58.92 227.00 69.00 C 224.08 69.00 221.16 69.00 218.24 68.99 C 218.25 58.91 218.25 48.84 218.24 38.76 C 216.08 38.76 213.91 38.75 211.75 38.75 C 211.75 36.16 211.75 33.58 211.75 31.00 C 213.91 31.00 216.08 31.00 218.25 31.00 C 218.25 26.25 218.25 21.50 218.25 16.75 Z" />
<path fill="#ffffff" opacity="1.00" d=" M 54.25 34.29 C 59.17 29.27 67.47 28.42 73.53 31.79 C 75.60 33.03 76.86 35.17 78.64 36.74 C 78.82 34.82 78.61 32.89 78.27 30.99 C 81.18 31.00 84.09 31.00 87.00 31.00 C 87.00 43.67 87.00 56.33 87.00 69.00 C 84.08 69.00 81.16 69.00 78.24 68.99 C 78.24 67.38 78.26 65.76 78.28 64.15 C 73.00 71.70 61.19 72.55 54.53 66.42 C 50.00 62.33 48.55 55.95 48.48 50.08 C 48.53 44.40 50.06 38.36 54.25 34.29 M 64.23 38.15 C 56.75 41.11 56.09 51.40 59.12 57.80 C 62.04 63.77 71.29 64.41 75.41 59.38 C 79.15 54.88 79.36 48.11 77.11 42.89 C 75.08 38.07 68.87 36.39 64.23 38.15 Z" />
<path fill="#ffffff" opacity="1.00" d=" M 101.36 31.45 C 108.05 28.52 117.68 28.97 121.80 35.85 C 119.80 37.27 117.78 38.67 115.78 40.09 C 113.89 36.73 109.44 35.21 105.96 36.98 C 103.34 38.10 102.87 42.17 105.35 43.71 C 110.47 46.70 117.01 47.29 121.18 51.83 C 125.77 57.06 123.28 66.24 116.88 68.77 C 108.77 72.17 97.01 70.97 92.93 62.13 C 95.30 60.83 97.67 59.54 100.05 58.27 C 101.73 63.62 109.08 65.87 113.45 62.44 C 115.89 60.66 115.44 56.47 112.64 55.28 C 107.21 52.61 100.58 51.42 96.65 46.41 C 92.98 41.37 95.80 33.76 101.36 31.45 Z" />
<path fill="#ffffff" opacity="1.00" d=" M 176.90 33.83 C 183.89 28.45 194.44 28.34 201.68 33.29 C 207.29 37.34 208.99 44.68 208.82 51.24 C 198.64 51.31 188.46 51.15 178.28 51.33 C 178.87 55.82 180.88 60.99 185.75 62.23 C 191.88 64.31 198.46 60.82 201.17 55.17 C 203.58 56.57 205.98 57.98 208.38 59.39 C 205.89 63.52 202.48 67.28 197.86 68.99 C 190.12 71.89 180.31 70.75 174.46 64.55 C 167.08 55.92 167.83 41.02 176.90 33.83 M 183.63 38.59 C 181.04 39.99 179.87 42.84 178.97 45.48 C 185.95 45.51 192.92 45.51 199.90 45.48 C 199.23 42.75 198.14 39.78 195.44 38.47 C 191.79 36.73 187.21 36.66 183.63 38.59 Z" />
<path fill="#ffffff" opacity="1.00" d=" M 267.07 34.09 C 273.73 29.01 283.26 28.41 290.77 31.95 C 290.74 35.26 290.72 38.57 290.82 41.89 C 285.89 36.27 275.61 35.58 271.03 41.96 C 267.74 47.03 267.84 54.45 271.77 59.15 C 276.77 64.45 286.35 63.82 290.80 58.08 C 290.72 61.37 290.74 64.66 290.78 67.95 C 283.71 71.49 274.62 71.52 267.96 67.03 C 257.28 59.78 256.96 41.97 267.07 34.09 Z" />
<path fill="#ffffff" opacity="1.00" d=" M 311.17 30.24 C 318.62 28.57 326.85 31.37 331.74 37.23 C 336.55 42.83 337.90 51.15 334.89 57.92 C 331.17 66.96 320.43 72.30 310.97 69.94 C 302.49 68.18 295.55 60.62 294.84 51.94 C 293.69 41.90 301.31 32.05 311.17 30.24 M 312.14 38.07 C 306.09 40.02 302.79 47.14 304.30 53.15 C 305.43 59.17 311.69 64.01 317.87 62.53 C 324.88 61.11 328.90 52.86 326.73 46.26 C 325.17 40.16 318.25 35.76 312.14 38.07 Z" />
<path fill="#ffffff" opacity="1.00" d=" M 351.72 37.27 C 354.65 32.84 359.52 29.54 364.98 29.71 C 370.18 29.30 375.32 32.28 377.19 37.20 C 379.63 34.15 382.65 31.34 386.54 30.35 C 391.52 29.00 397.71 29.67 401.16 33.88 C 403.35 36.37 403.43 39.85 403.51 42.99 C 403.50 51.66 403.50 60.33 403.50 69.00 C 400.58 69.00 397.66 69.00 394.75 69.00 C 394.71 61.34 394.82 53.68 394.71 46.03 C 394.57 42.87 393.98 38.83 390.59 37.57 C 387.04 36.74 382.43 37.02 380.18 40.32 C 378.36 43.14 378.15 46.65 378.01 49.91 C 377.97 56.28 378.02 62.64 378.00 69.00 C 375.08 69.00 372.16 69.00 369.24 68.99 C 369.22 61.66 369.31 54.33 369.21 47.00 C 368.98 43.73 368.66 39.46 365.29 37.83 C 361.21 36.17 355.87 37.68 353.63 41.57 C 352.22 44.14 352.28 47.18 352.23 50.02 C 352.26 56.35 352.25 62.67 352.25 69.00 C 349.32 69.01 346.40 69.00 343.48 68.98 C 343.51 56.32 343.50 43.67 343.49 31.02 C 346.24 31.00 349.00 31.00 351.76 31.01 C 351.76 33.09 351.74 35.18 351.72 37.27 Z" />
<path fill="#ffffff" opacity="1.00" d=" M 153.46 31.06 C 156.39 31.00 159.32 30.98 162.25 31.00 C 162.25 49.67 162.25 68.33 162.25 87.00 C 159.33 87.00 156.41 87.00 153.49 86.98 C 153.49 68.34 153.54 49.70 153.46 31.06 Z" />
<path fill="#ffffff" opacity="1.00" d=" M 244.37 59.45 C 248.63 57.98 252.83 63.51 250.27 67.22 C 248.52 70.40 243.50 70.60 241.49 67.60 C 239.23 64.84 240.99 60.27 244.37 59.45 Z" />
</g>
</svg>
