<?xml version="1.0" encoding="UTF-8" standalone="no"?>
<!-- Generator: Adobe Illustrator 15.0.0, SVG Export Plug-In . SVG Version: 6.00 Build 0)  -->

<svg
   xmlns:dc="http://purl.org/dc/elements/1.1/"
   xmlns:cc="http://creativecommons.org/ns#"
   xmlns:rdf="http://www.w3.org/1999/02/22-rdf-syntax-ns#"
   xmlns:svg="http://www.w3.org/2000/svg"
   xmlns="http://www.w3.org/2000/svg"
   xmlns:sodipodi="http://sodipodi.sourceforge.net/DTD/sodipodi-0.dtd"
   xmlns:inkscape="http://www.inkscape.org/namespaces/inkscape"
   version="1.1"
   id="Layer_1"
   x="0px"
   y="0px"
   width="1514"
   height="1102.396"
   viewBox="0 0 1514 1102.396"
   enable-background="new 0 0 1514 1102.396"
   xml:space="preserve"
   sodipodi:docname="Flag_of_EL_AL.svg"
   inkscape:version="0.92.4 (5da689c313, 2019-01-14)"><metadata
   id="metadata851"><rdf:RDF><cc:Work
       rdf:about=""><dc:format>image/svg+xml</dc:format><dc:type
         rdf:resource="http://purl.org/dc/dcmitype/StillImage" /><dc:title></dc:title></cc:Work></rdf:RDF></metadata><defs
   id="defs849" /><sodipodi:namedview
   pagecolor="#ffffff"
   bordercolor="#666666"
   borderopacity="1"
   objecttolerance="10"
   gridtolerance="10"
   guidetolerance="10"
   inkscape:pageopacity="0"
   inkscape:pageshadow="2"
   inkscape:window-width="640"
   inkscape:window-height="480"
   id="namedview847"
   showgrid="false"
   showborder="true"
   inkscape:zoom="0.48893501"
   inkscape:cx="757"
   inkscape:cy="551.198"
   inkscape:current-layer="Layer_1"
   inkscape:snap-grids="false"
   inkscape:snap-page="true"
   inkscape:snap-global="false" />

<rect
   style="opacity:1;fill:#ffffff;fill-opacity:1;fill-rule:nonzero;stroke:none;stroke-width:2;stroke-miterlimit:4;stroke-dasharray:none;stroke-dashoffset:11.50866222;stroke-opacity:1;paint-order:markers fill stroke"
   id="rect825"
   width="1514.0001"
   height="1102.396"
   x="-6.1035156e-05"
   y="0"
   inkscape:label="White background" /><rect
   style="opacity:1;fill:none;fill-opacity:1;fill-rule:nonzero;stroke:#c8ccd1;stroke-width:2;stroke-miterlimit:4;stroke-dasharray:none;stroke-dashoffset:11.50866222;stroke-opacity:1;paint-order:markers fill stroke"
   id="rect853"
   width="1512"
   height="1100.396"
   x="-1513"
   y="1.0000039"
   transform="scale(-1,1)"
   inkscape:label="rect853 - Grey Frame" /><path
   d="M 402.939,1102.396 C 543.078,678.99 913.432,311.524 1514,1.171875e-5 V 1102.396 Z"
   id="path836"
   inkscape:connector-curvature="0"
   style="clip-rule:evenodd;display:inline;fill:#10122e;fill-rule:evenodd"
   inkscape:label="path836 - blue" />
<path
   d="M 1451.355,1.171875e-5 C 888.528,258.107 514.721,625.574 329.93,1102.396 H 156.536 C 370.92,601.134 802.011,233.668 1449.809,1.171875e-5 Z"
   id="path838"
   inkscape:connector-curvature="0"
   style="clip-rule:evenodd;display:inline;fill:#766755;fill-rule:evenodd"
   inkscape:label="path838 - Grey Gold" />
<g
   id="g844"
   transform="translate(0,1.171875e-5)"
   style="display:inline"
   inkscape:label="g844 - Text">
	<path
   d="m 397.368,54.501 15.16,68.364 c 0.821,2.886 1.854,2.989 3.093,0.314 l 30.006,-69.294 c 0.411,-1.239 1.44,-1.855 3.094,-1.855 h 20.107 c 1.438,0 2.369,0.616 2.78,1.855 0.622,1.239 0.622,2.574 0,4.018 l -30.006,67.438 c -3.71,8.248 -8.042,13.923 -12.99,17.015 -4.332,2.683 -10.314,4.127 -17.945,4.333 h -66.198 c -4.743,-0.206 -6.084,-2.168 -4.018,-5.879 l 6.495,-14.536 c 0.822,-1.444 2.163,-2.171 4.019,-2.171 h 36.503 L 372,56.356 c -0.613,-2.882 0.723,-4.326 4.024,-4.326 h 17.322 c 2.27,0 3.611,0.822 4.022,2.471 z M 646.697,52.03 h 51.969 c 7.635,0 13.305,3.504 17.015,10.514 3.299,6.604 3.505,13.2 0.619,19.797 l -29.386,62.18 c -0.619,1.443 -1.758,2.168 -3.404,2.168 h -18.562 c -4.946,-0.206 -6.29,-2.168 -4.021,-5.879 l 29.081,-62.485 c 1.232,-2.681 0,-4.022 -3.713,-4.022 h -62.183 c -2.677,-0.207 -4.019,-1.548 -4.019,-4.024 V 39.343 c 0,-2.677 1.342,-4.018 4.019,-4.018 h 15.162 c 2.475,0 3.713,1.341 3.713,4.018 v 8.973 c 0.411,2.272 1.65,3.504 3.71,3.714 z m 111.674,4.018 24.746,43.617 21.347,-45.78 c 0.616,-1.239 1.855,-1.855 3.71,-1.855 h 14.229 c 6.598,0 7.528,5.154 2.785,15.468 l -27.226,58.152 9.28,16.398 c 1.649,2.887 0.726,4.434 -2.779,4.639 h -17.631 c -2.478,0 -4.332,-1.033 -5.571,-3.092 l -25.986,-46.094 -16.393,34.643 c -2.478,4.955 -5.982,8.769 -10.52,11.451 -3.713,2.059 -9.178,3.092 -16.393,3.092 h -0.931 c -3.915,-0.206 -5.153,-1.752 -3.71,-4.639 l 33.1,-70.226 -8.973,-16.082 c -1.444,-2.479 -0.514,-3.711 2.785,-3.711 h 16.7 c 3.513,10e-4 5.985,1.337 7.431,4.019 z M 279.818,39.343 v 8.973 c 0.41,2.272 1.649,3.504 3.71,3.714 H 335.5 c 7.628,0 13.302,3.504 17.011,10.514 3.3,6.604 3.511,13.2 0.623,19.797 l -29.39,62.18 c -0.824,1.443 -1.96,2.168 -3.401,2.168 h -18.562 c -4.743,-0.206 -6.188,-2.168 -4.332,-5.879 l 29.389,-62.485 c 1.239,-2.681 0,-4.022 -3.713,-4.022 h -62.487 c -2.475,-0.207 -3.71,-1.548 -3.71,-4.024 V 39.343 c 0,-2.677 1.235,-4.018 3.71,-4.018 h 15.468 c 2.476,0 3.712,1.342 3.712,4.018 z"
   id="path840"
   inkscape:connector-curvature="0"
   style="clip-rule:evenodd;fill:#766755;fill-rule:evenodd" />
	<path
   d="m 542.138,52.03 c 2.683,0 4.024,1.233 4.024,3.711 v 86.614 c 0,2.683 -1.342,4.127 -4.024,4.333 h -15.153 c -2.683,-0.206 -4.021,-1.65 -4.021,-4.333 v -12.987 h -43.002 l -5.26,11.44 c -2.06,3.711 -4.537,5.674 -7.419,5.879 h -12.686 c -4.743,-0.206 -6.085,-2.168 -4.021,-5.879 L 485.53,65.636 c 4.127,-9.069 10.622,-13.607 19.489,-13.607 h 37.119 z m 22.274,0 h 14.849 c 2.478,0 3.71,1.233 3.71,3.711 v 64.962 c 0,2.059 1.239,3.195 3.716,3.398 h 62.796 c 1.855,0 2.58,0.727 2.164,2.171 l -8.039,16.083 c -1.242,2.683 -2.892,4.127 -4.952,4.333 h -74.243 c -2.474,-0.206 -3.713,-1.547 -3.713,-4.023 V 55.742 c -0.001,-2.479 1.238,-3.712 3.712,-3.712 z m -450.712,0 h 68.056 c 2.478,0 3.816,1.233 4.024,3.711 v 16.082 c -0.208,1.445 -1.136,2.271 -2.785,2.479 h -65.582 c -2.267,0 -3.402,1.239 -3.402,3.707 v 7.119 c 0,2.479 1.135,3.71 3.402,3.71 h 59.395 c 2.474,0 3.713,1.136 3.713,3.408 v 13.605 c 0,2.479 -1.239,3.717 -3.713,3.717 h -59.395 c -2.267,0 -3.402,1.237 -3.402,3.708 v 7.118 c 0,2.266 1.135,3.504 3.402,3.708 h 67.437 c 1.858,0 2.372,0.727 1.547,2.171 l -7.734,16.083 c -1.236,2.683 -2.885,4.127 -4.949,4.333 H 93.593 c -2.68,-0.206 -4.021,-1.547 -4.021,-4.023 V 76.777 c 0,-6.808 2.372,-12.687 7.115,-17.635 4.746,-4.538 10.415,-6.906 17.013,-7.112 z m 106.108,3.712 v 64.962 c 0,2.059 1.232,3.195 3.709,3.398 h 62.796 c 1.857,0 2.478,0.727 1.857,2.171 l -7.733,16.083 c -1.238,2.683 -2.892,4.127 -4.948,4.333 h -74.243 c -2.476,-0.206 -3.711,-1.547 -3.711,-4.023 V 55.742 c 0,-2.479 1.235,-3.711 3.711,-3.711 h 14.849 c 2.474,-10e-4 3.713,1.232 3.713,3.711 z m 289.847,17.011 c -2.061,0 -3.296,0.618 -3.707,1.856 l -16.087,34.025 h 30.316 c 2.063,-0.204 3.193,-1.442 3.398,-3.708 v -28.77 c 0,-2.266 -1.133,-3.403 -3.398,-3.403 z M 1006.151,52.03 c 3.305,0 4.126,1.548 2.478,4.642 l -5.88,12.987 c -1.649,3.094 -4.018,4.642 -7.111,4.642 H 851.792 c -3.299,0 -4.127,-1.548 -2.477,-4.642 l 6.187,-12.987 c 1.239,-3.094 3.505,-4.642 6.804,-4.642 z m -44.235,94.658 H 817.763 c -3.094,-0.206 -3.915,-1.855 -2.471,-4.949 l 6.187,-12.995 c 1.438,-3.094 3.71,-4.642 6.804,-4.642 h 144.153 c 3.299,0 4.127,1.548 2.478,4.642 l -5.885,12.995 c -1.65,3.094 -4.019,4.744 -7.113,4.949 z m -45.781,-64.962 2.472,7.112 h 9.903 c 2.677,0 2.888,1.24 0.616,3.716 l -6.188,7.111 2.478,6.808 c 0.821,2.062 -0.103,3.198 -2.785,3.402 h -8.351 l -6.495,7.118 c -1.239,1.649 -2.17,1.547 -2.786,-0.314 l -2.477,-6.803 h -10.205 c -2.683,-0.204 -2.889,-1.649 -0.623,-4.332 l 6.502,-7.11 -2.478,-6.503 c -1.033,-2.059 -0.103,-3.092 2.785,-3.092 h 8.351 l 6.188,-7.734 c 1.443,-1.232 2.471,-1.028 3.093,0.621 z"
   id="path842"
   inkscape:connector-curvature="0"
   style="clip-rule:evenodd;fill:#10122e;fill-rule:evenodd" />
</g>
</svg>