<?xml version="1.0" encoding="UTF-8" standalone="no"?>
<!-- Created with Inkscape (http://www.inkscape.org/) -->

<svg
   xmlns:dc="http://purl.org/dc/elements/1.1/"
   xmlns:cc="http://creativecommons.org/ns#"
   xmlns:rdf="http://www.w3.org/1999/02/22-rdf-syntax-ns#"
   xmlns:svg="http://www.w3.org/2000/svg"
   xmlns="http://www.w3.org/2000/svg"
   xmlns:sodipodi="http://sodipodi.sourceforge.net/DTD/sodipodi-0.dtd"
   xmlns:inkscape="http://www.inkscape.org/namespaces/inkscape"
   width="111.66625"
   height="47.409801"
   viewBox="0 0 29.545028 12.543843"
   version="1.1"
   id="svg9518"
   inkscape:version="0.92.0 r15299"
   sodipodi:docname="flair airlines.svg">
  <defs
     id="defs9512" />
  <sodipodi:namedview
     id="base"
     pagecolor="#ffffff"
     bordercolor="#666666"
     borderopacity="1.0"
     inkscape:pageopacity="0.0"
     inkscape:pageshadow="2"
     inkscape:zoom="8.105452"
     inkscape:cx="55.333126"
     inkscape:cy="23.204892"
     inkscape:document-units="mm"
     inkscape:current-layer="layer1"
     showgrid="false"
     fit-margin-top="0"
     fit-margin-left="0"
     fit-margin-right="0"
     fit-margin-bottom="0"
     units="px"
     inkscape:window-width="1280"
     inkscape:window-height="744"
     inkscape:window-x="-4"
     inkscape:window-y="-4"
     inkscape:window-maximized="1" />
  <metadata
     id="metadata9515">
    <rdf:RDF>
      <cc:Work
         rdf:about="">
        <dc:format>image/svg+xml</dc:format>
        <dc:type
           rdf:resource="http://purl.org/dc/dcmitype/StillImage" />
        <dc:title></dc:title>
      </cc:Work>
    </rdf:RDF>
  </metadata>
  <g
     inkscape:label="Layer 1"
     inkscape:groupmode="layer"
     id="layer1"
     transform="translate(-86.657394,-163.59579)">
    <g
       id="g9623"
       transform="translate(0.13229161,-0.13228756)">
      <path
         d="m 93.083241,172.92653 c 0,1.77482 -1.438628,3.2131 -3.212747,3.2131 -1.774825,0 -3.2131,-1.43828 -3.2131,-3.2131 0,-1.77377 1.438275,-3.21239 3.2131,-3.21239 1.774119,0 3.212747,1.43862 3.212747,3.21239"
         style="fill:#000000;fill-opacity:1;fill-rule:nonzero;stroke:none;stroke-width:0.35277778"
         id="path8977"
         inkscape:connector-curvature="0" />
      <path
         inkscape:connector-curvature="0"
         id="path8979"
         style="fill:#000000;fill-opacity:1;fill-rule:nonzero;stroke:none;stroke-width:0.35277778"
         d="m 102.05974,169.68154 h 1.1578 v 4.8521 h -1.1578 z" />
      <path
         d="m 108.66514,172.71814 v 1.8101 h -0.96485 v -1.51553 c 0,-0.45226 -0.29351,-0.57538 -0.50906,-0.57538 -0.26317,0 -0.55703,0.15663 -0.55703,0.58984 v 1.50107 h -1.15782 v -3.16935 h 0.94333 l 0.0878,0.45155 c 0.23319,-0.27834 0.56303,-0.45155 1.03188,-0.45155 0.50694,0 1.12571,0.45155 1.12571,1.35925"
         style="fill:#000000;fill-opacity:1;fill-rule:nonzero;stroke:none;stroke-width:0.35277778"
         id="path8983"
         inkscape:connector-curvature="0" />
      <path
         d="m 112.24524,174.08103 0.45085,-0.56374 c 0.27481,0.24977 0.57467,0.2981 0.80433,0.27764 0.15417,-0.0134 0.2286,-0.097 0.2286,-0.17745 0,-0.0737 -0.0434,-0.12347 -0.41416,-0.2346 -0.51329,-0.14852 -0.96485,-0.40851 -0.96485,-0.98354 0,-0.66781 0.53199,-1.02023 1.16276,-1.02023 0.49495,0 0.82832,0.12946 1.1871,0.38311 l -0.34855,0.62689 c -0.28681,-0.22613 -0.56127,-0.28857 -0.75212,-0.27834 -0.1404,0.008 -0.24095,0.10936 -0.24095,0.19579 0,0.0621 0.0741,0.11783 0.37712,0.21625 0.68616,0.21661 1.02659,0.41416 1.02659,1.00789 0,0.59407 -0.42087,1.00189 -1.28023,1.00189 -0.4699,0 -0.89042,-0.14182 -1.23649,-0.45156"
         style="fill:#000000;fill-opacity:1;fill-rule:nonzero;stroke:none;stroke-width:0.35277778"
         id="path8987"
         inkscape:connector-curvature="0" />
      <path
         inkscape:connector-curvature="0"
         id="path8989"
         style="fill:#000000;fill-opacity:1;fill-rule:nonzero;stroke:none;stroke-width:0.35277778"
         d="m 103.76824,171.35754 h 1.1761 v 3.169 h -1.1761 z" />
      <path
         d="m 101.65484,171.35802 c -0.48613,0 -0.78916,0.12171 -1.01529,0.4512 l -0.0907,-0.4512 h -0.944384 v 3.16936 h 1.127124 v -1.18499 c 0,-1.04069 0.92992,-0.84455 0.92992,-0.84455 v -1.13982 z"
         style="fill:#000000;fill-opacity:1;fill-rule:nonzero;stroke:none;stroke-width:0.35277778"
         id="path8993"
         inkscape:connector-curvature="0" />
      <path
         d="m 96.246229,172.94894 c 0,-0.375 -0.320322,-0.63359 -0.624417,-0.63359 -0.329847,0 -0.624064,0.25859 -0.624064,0.63359 0,0.38841 0.294217,0.64029 0.624064,0.64029 0.304095,0 0.624417,-0.25188 0.624417,-0.64029 m 1.105958,-1.58432 v 3.169 h -1.102783 v -0.39935 c -0.174625,0.2092 -0.565856,0.39935 -0.915106,0.39935 -0.866775,0 -1.377597,-0.60784 -1.377597,-1.58468 0,-0.97649 0.598311,-1.58432 1.387122,-1.58432 0.445912,0 0.818092,0.13652 1.038931,0.44873 l 0.08537,-0.44873 z"
         style="fill:#000000;fill-opacity:1;fill-rule:nonzero;stroke:none;stroke-width:0.35277778"
         id="path8997"
         inkscape:connector-curvature="0" />
      <path
         inkscape:connector-curvature="0"
         id="path8999"
         style="fill:#000000;fill-opacity:1;fill-rule:nonzero;stroke:none;stroke-width:0.35277778"
         d="m 97.890543,171.35794 h 1.1762 v 3.1693 h -1.1762 z" />
      <path
         d="m 111.02154,172.61373 h -0.91264 c 0,0 7.1e-4,-0.0342 0.008,-0.0783 0.0374,-0.21449 0.2233,-0.37782 0.44838,-0.37782 0.22401,0 0.40957,0.16192 0.44802,0.375 0,0 0.008,0.0346 0.008,0.0811 m -0.26141,1.10913 c -0.32103,0 -0.61524,-0.21942 -0.66463,-0.50976 h 1.98331 c 0.012,-0.0741 0.0247,-0.2226 0.0247,-0.29669 0,-0.90769 -0.64876,-1.55045 -1.52012,-1.55045 -0.91405,0 -1.56916,0.6611 -1.56916,1.5755 0,0.93274 0.67981,1.57515 1.58821,1.57515 0.53587,0 0.9592,-0.18097 1.23578,-0.42333 l -0.4445,-0.62124 c -0.19085,0.17462 -0.3877,0.25082 -0.63359,0.25082"
         style="fill:#000000;fill-opacity:1;fill-rule:nonzero;stroke:none;stroke-width:0.35277778"
         id="path9003"
         inkscape:connector-curvature="0" />
      <path
         d="m 99.141326,170.33964 c 0,-0.36618 -0.296686,-0.66287 -0.662869,-0.66287 -0.366184,0 -0.66287,0.29669 -0.66287,0.66287 0,0.36618 0.296686,0.66287 0.66287,0.66287 0.366183,0 0.662869,-0.29669 0.662869,-0.66287"
         style="fill:#000000;fill-opacity:1;fill-rule:nonzero;stroke:none;stroke-width:0.35277778"
         id="path9007"
         inkscape:connector-curvature="0" />
      <path
         d="m 105.02312,170.33964 c 0,-0.36618 -0.29669,-0.66287 -0.66287,-0.66287 -0.36618,0 -0.66287,0.29669 -0.66287,0.66287 0,0.36618 0.29669,0.66287 0.66287,0.66287 0.36618,0 0.66287,-0.29669 0.66287,-0.66287"
         style="fill:#000000;fill-opacity:1;fill-rule:nonzero;stroke:none;stroke-width:0.35277778"
         id="path9011"
         inkscape:connector-curvature="0" />
      <path
         d="m 87.868938,166.48014 h -0.346781 v -0.92639 h 0.346781 v -0.23319 c 0,-0.82797 0.59055,-1.4284 1.622425,-1.4284 0.149931,0 0.317147,0.001 0.317147,0.001 l -0.0035,0.89324 h -0.07303 c -0.586316,0 -0.756708,0.29598 -0.756708,0.65299 v 0.11395 h 0.923925 v 0.92639 H 89.03628 v 2.26907 h -1.167342 z"
         style="fill:#000000;fill-opacity:1;fill-rule:nonzero;stroke:none;stroke-width:0.35277778"
         id="path9015"
         inkscape:connector-curvature="0" />
      <path
         inkscape:connector-curvature="0"
         id="path9017"
         style="fill:#000000;fill-opacity:1;fill-rule:nonzero;stroke:none;stroke-width:0.35277778"
         d="m 90.324242,163.89204 h 1.1669 v 4.8571 h -1.1669 z" />
      <path
         d="m 99.621519,165.55304 c -0.489303,0 -0.794103,0.12206 -1.021997,0.45367 l -0.09137,-0.45367 h -0.95003 v 3.18946 h 1.13418 v -1.19239 c 0,-1.0481 0.935567,-0.85019 0.935567,-0.85019 v -1.14688 z"
         style="fill:#000000;fill-opacity:1;fill-rule:nonzero;stroke:none;stroke-width:0.35277778"
         id="path9021"
         inkscape:connector-curvature="0" />
      <path
         d="m 94.220526,167.15393 c 0,-0.37747 -0.322439,-0.63782 -0.628297,-0.63782 -0.332317,0 -0.628297,0.26035 -0.628297,0.63782 0,0.39052 0.29598,0.64452 0.628297,0.64452 0.305858,0 0.628297,-0.254 0.628297,-0.64452 m 1.113014,-1.59491 v 3.18982 h -1.109839 v -0.40182 c -0.176036,0.21061 -0.569383,0.40182 -0.921103,0.40182 -0.872419,0 -1.386416,-0.61207 -1.386416,-1.59491 0,-0.98284 0.602191,-1.59491 1.396294,-1.59491 0.448381,0 0.823031,0.13794 1.045281,0.45191 l 0.08608,-0.45191 z"
         style="fill:#000000;fill-opacity:1;fill-rule:nonzero;stroke:none;stroke-width:0.35277778"
         id="path9025"
         inkscape:connector-curvature="0" />
      <path
         inkscape:connector-curvature="0"
         id="path9027"
         style="fill:#000000;fill-opacity:1;fill-rule:nonzero;stroke:none;stroke-width:0.35277778"
         d="m 95.855442,165.55294 h 1.183501 v 3.1895 h -1.183501 z" />
      <path
         d="m 97.114724,164.52783 c 0,-0.36901 -0.298803,-0.66746 -0.667103,-0.66746 -0.368653,0 -0.667455,0.29845 -0.667455,0.66746 0,0.3683 0.298802,0.6671 0.667455,0.6671 0.3683,0 0.667103,-0.2988 0.667103,-0.6671"
         style="fill:#000000;fill-opacity:1;fill-rule:nonzero;stroke:none;stroke-width:0.35277778"
         id="path9031"
         inkscape:connector-curvature="0" />
      <path
         d="m 115.13004,171.52474 h -0.14393 v -0.0776 h 0.37641 v 0.0776 h -0.14605 v 0.43109 h -0.0864 z"
         style="fill:#000000;fill-opacity:1;fill-rule:nonzero;stroke:none;stroke-width:0.35277778"
         id="path9035"
         inkscape:connector-curvature="0" />
      <path
         d="m 115.93784,171.44724 v 0.508 h -0.0864 v -0.34008 h -10e-4 l -0.1397,0.24236 h -0.0564 l -0.139,-0.24236 h -7e-4 v 0.34008 h -0.0868 v -0.508 h 0.0868 l 0.16757,0.30445 h 0.001 l 0.16792,-0.30445 z"
         style="fill:#000000;fill-opacity:1;fill-rule:nonzero;stroke:none;stroke-width:0.35277778"
         id="path9039"
         inkscape:connector-curvature="0" />
    </g>
  </g>
</svg>
