<?xml version="1.0" encoding="UTF-8" standalone="no"?>
<svg
   xmlns:dc="http://purl.org/dc/elements/1.1/"
   xmlns:cc="http://creativecommons.org/ns#"
   xmlns:rdf="http://www.w3.org/1999/02/22-rdf-syntax-ns#"
   xmlns:svg="http://www.w3.org/2000/svg"
   xmlns="http://www.w3.org/2000/svg"
   xmlns:xlink="http://www.w3.org/1999/xlink"
   width="500"
   height="140"
   viewBox="0 0 132.29166 37.041667"
   version="1.1"
   id="svg8">
  <defs
     id="defs2">
    <linearGradient
       id="linearGradient929">
      <stop
         style="stop-color:#1a4886;stop-opacity:1;"
         offset="0"
         id="stop925" />
      <stop
         style="stop-color:#1a4886;stop-opacity:0;"
         offset="1"
         id="stop927" />
    </linearGradient>
    <linearGradient
       xlink:href="#linearGradient929"
       id="linearGradient931"
       x1="63.623211"
       y1="53.476784"
       x2="178.06932"
       y2="53.476784"
       gradientUnits="userSpaceOnUse" />
  </defs>
  <metadata
     id="metadata5">
    <rdf:RDF>
      <cc:Work
         rdf:about="">
        <dc:format>image/svg+xml</dc:format>
        <dc:type
           rdf:resource="http://purl.org/dc/dcmitype/StillImage" />
        <dc:title></dc:title>
      </cc:Work>
    </rdf:RDF>
  </metadata>
  <g
     id="layer1">
    <path
       id="path1214-2-1"
       style="fill:#603a1a;fill-opacity:1;stroke:#d2aa81;stroke-width:0.347711px;stroke-linecap:butt;stroke-linejoin:miter;stroke-opacity:1"
       d="m 120.20266,29.420369 h 9.99671 l -5.71239,-10.8039 5.71239,-10.8039001 h -9.99671 z m -107.49112,0 H 2.7148266 L 8.4272336,18.616469 2.7148266,7.8125689 H 12.71154 Z" />
    <path
       id="path1191-4"
       style="fill:#916037;fill-opacity:1;stroke:#d2aa81;stroke-width:0.347711px;stroke-linecap:butt;stroke-linejoin:miter;stroke-opacity:1"
       d="m 118.72458,35.381141 c 5.68997,-11.117006 6.06357,-22.30889 0,-33.5914372 H 14.07755 c -6.0635556,11.2825472 -5.6899654,22.4744312 0,33.5914372 z" />
    <g
       aria-label="FLAMINGO"
       id="text984-5"
       style="font-style:normal;font-variant:normal;font-weight:900;font-stretch:normal;font-size:12.8792px;line-height:1.25;font-family:Arial;-inkscape-font-specification:'Arial Heavy';fill:#000000;stroke-width:0.321981"
       transform="matrix(1.3141861,0,0,1.3141861,-58.879826,-69.429114)">
      <path
         d="m 58.267222,57.095016 h 7.043313 v 1.980932 h -4.181967 v 1.6099 h 3.571966 v 1.861447 h -3.571966 v 3.766914 h -2.861346 z"
         style="font-style:normal;font-variant:normal;font-weight:900;font-stretch:normal;font-family:Arial;-inkscape-font-specification:'Arial Heavy';fill:#000000;stroke-width:0.321981"
         id="path1053" />
      <path
         d="m 66.84497,57.095016 h 2.848769 v 6.948982 h 4.446091 v 2.270211 h -7.29486 z"
         style="font-style:normal;font-variant:normal;font-weight:900;font-stretch:normal;font-family:Arial;-inkscape-font-specification:'Arial Heavy';fill:#000000;stroke-width:0.321981"
         id="path1055" />
      <path
         d="m 81.107678,64.79235 h -3.244955 l -0.446496,1.521859 h -2.911655 l 3.465058,-9.219193 h 3.106604 l 3.465058,9.219193 h -2.98083 z m -0.597424,-1.993509 -1.018765,-3.31413 -1.012476,3.31413 z"
         style="font-style:normal;font-variant:normal;font-weight:900;font-stretch:normal;font-family:Arial;-inkscape-font-specification:'Arial Heavy';fill:#000000;stroke-width:0.321981"
         id="path1057" />
      <path
         d="m 85.421707,57.095016 h 3.748048 l 1.446395,5.609495 1.440106,-5.609495 h 3.735471 v 9.219193 h -2.326809 v -7.030735 l -1.804849,7.030735 h -2.106705 l -1.79856,-7.030735 v 7.030735 h -2.333097 z"
         style="font-style:normal;font-variant:normal;font-weight:900;font-stretch:normal;font-family:Arial;-inkscape-font-specification:'Arial Heavy';fill:#000000;stroke-width:0.321981"
         id="path1059" />
      <path
         d="m 97.722348,57.095016 h 2.855062 v 9.219193 h -2.855062 z"
         style="font-style:normal;font-variant:normal;font-weight:900;font-stretch:normal;font-family:Arial;-inkscape-font-specification:'Arial Heavy';fill:#000000;stroke-width:0.321981"
         id="path1061" />
      <path
         d="m 102.64009,57.095016 h 2.66011 l 3.47135,5.100113 v -5.100113 h 2.68526 v 9.219193 h -2.68526 l -3.45248,-5.062381 v 5.062381 h -2.67898 z"
         style="font-style:normal;font-variant:normal;font-weight:900;font-stretch:normal;font-family:Arial;-inkscape-font-specification:'Arial Heavy';fill:#000000;stroke-width:0.321981"
         id="path1063" />
      <path
         d="m 117.98445,62.974924 v -1.918045 h 4.40207 v 3.93042 q -1.26402,0.861548 -2.23877,1.175982 -0.96845,0.308145 -2.30165,0.308145 -1.64134,0 -2.67897,-0.559692 -1.03135,-0.559692 -1.60362,-1.666498 -0.56598,-1.106806 -0.56598,-2.540623 0,-1.509282 0.62258,-2.622377 0.62258,-1.119383 1.82372,-1.697941 0.93701,-0.446496 2.52175,-0.446496 1.52815,0 2.28279,0.276702 0.76093,0.276701 1.25774,0.861548 0.50309,0.578558 0.75464,1.471549 l -2.74815,0.490516 q -0.1698,-0.521959 -0.57856,-0.798661 -0.40247,-0.276701 -1.03134,-0.276701 -0.93701,0 -1.49671,0.654021 -0.5534,0.647734 -0.5534,2.056396 0,1.496704 0.55969,2.138149 0.56598,0.641444 1.57217,0.641444 0.47794,0 0.91186,-0.138351 0.43392,-0.13835 0.99361,-0.47165 v -0.867837 z"
         style="font-style:normal;font-variant:normal;font-weight:900;font-stretch:normal;font-family:Arial;-inkscape-font-specification:'Arial Heavy';fill:#000000;stroke-width:0.321981"
         id="path1065" />
      <path
         d="m 123.71972,61.710901 q 0,-2.257633 1.25774,-3.515367 1.25773,-1.257735 3.50279,-1.257735 2.30165,0 3.54681,1.238869 1.24516,1.232579 1.24516,3.458769 0,1.616189 -0.54712,2.65382 -0.54082,1.031342 -1.57217,1.6099 -1.02505,0.572269 -2.55949,0.572269 -1.55959,0 -2.58464,-0.496805 -1.01877,-0.496805 -1.65392,-1.572168 -0.63516,-1.075363 -0.63516,-2.691552 z m 2.84877,0.01258 q 0,1.396085 0.51567,2.006086 0.52196,0.610001 1.41495,0.610001 0.91815,0 1.42124,-0.597424 0.5031,-0.597424 0.5031,-2.144437 0,-1.301755 -0.52825,-1.899179 -0.52196,-0.603712 -1.42124,-0.603712 -0.86155,0 -1.38351,0.610001 -0.52196,0.610001 -0.52196,2.018664 z"
         style="font-style:normal;font-variant:normal;font-weight:900;font-stretch:normal;font-family:Arial;-inkscape-font-specification:'Arial Heavy';fill:#000000;stroke-width:0.321981"
         id="path1067" />
    </g>
    <g
       aria-label="FLAMINGO"
       id="text984"
       style="font-style:normal;font-variant:normal;font-weight:900;font-stretch:normal;font-size:12.8792px;line-height:1.25;font-family:Arial;-inkscape-font-specification:'Arial Heavy';fill:#ff0000;stroke-width:0.321981"
       transform="matrix(1.3141861,0,0,1.3141861,-58.879826,-69.429114)">
      <path
         d="m 58.048873,56.849998 h 7.043312 v 1.980932 h -4.181966 v 1.6099 h 3.571965 v 1.861447 h -3.571965 v 3.766914 h -2.861346 z"
         style="font-style:normal;font-variant:normal;font-weight:900;font-stretch:normal;font-family:Arial;-inkscape-font-specification:'Arial Heavy';fill:#ffffff;stroke-width:0.321981"
         id="path1070" />
      <path
         d="m 66.626621,56.849998 h 2.848768 v 6.948982 h 4.446091 v 2.270211 h -7.294859 z"
         style="font-style:normal;font-variant:normal;font-weight:900;font-stretch:normal;font-family:Arial;-inkscape-font-specification:'Arial Heavy';fill:#ffffff;stroke-width:0.321981"
         id="path1072" />
      <path
         d="m 80.889328,64.547332 h -3.244954 l -0.446496,1.521859 h -2.911655 l 3.465058,-9.219193 h 3.106604 l 3.465058,9.219193 h -2.98083 z m -0.597424,-1.993509 -1.018764,-3.31413 -1.012477,3.31413 z"
         style="font-style:normal;font-variant:normal;font-weight:900;font-stretch:normal;font-family:Arial;-inkscape-font-specification:'Arial Heavy';fill:#ffffff;stroke-width:0.321981"
         id="path1074" />
      <path
         d="m 85.203358,56.849998 h 3.748048 l 1.446394,5.609495 1.440106,-5.609495 h 3.735471 v 9.219193 h -2.326808 v -7.030735 l -1.804849,7.030735 h -2.106705 l -1.79856,-7.030735 v 7.030735 h -2.333097 z"
         style="font-style:normal;font-variant:normal;font-weight:900;font-stretch:normal;font-family:Arial;-inkscape-font-specification:'Arial Heavy';fill:#ffffff;stroke-width:0.321981"
         id="path1076" />
      <path
         d="m 97.503999,56.849998 h 2.855061 v 9.219193 h -2.855061 z"
         style="font-style:normal;font-variant:normal;font-weight:900;font-stretch:normal;font-family:Arial;-inkscape-font-specification:'Arial Heavy';fill:#ffffff;stroke-width:0.321981"
         id="path1078" />
      <path
         d="m 102.42174,56.849998 h 2.66011 l 3.47135,5.100113 v -5.100113 h 2.68526 v 9.219193 h -2.68526 l -3.45248,-5.062381 v 5.062381 h -2.67898 z"
         style="font-style:normal;font-variant:normal;font-weight:900;font-stretch:normal;font-family:Arial;-inkscape-font-specification:'Arial Heavy';fill:#ffffff;stroke-width:0.321981"
         id="path1080" />
      <path
         d="m 117.7661,62.729906 v -1.918045 h 4.40207 v 3.93042 q -1.26402,0.861548 -2.23877,1.175982 -0.96845,0.308145 -2.30165,0.308145 -1.64134,0 -2.67897,-0.559692 -1.03135,-0.559692 -1.60362,-1.666498 -0.56598,-1.106806 -0.56598,-2.540623 0,-1.509282 0.62258,-2.622377 0.62258,-1.119383 1.82372,-1.697941 0.93701,-0.446496 2.52176,-0.446496 1.52814,0 2.28278,0.276702 0.76093,0.276701 1.25774,0.861548 0.50309,0.578558 0.75464,1.471549 l -2.74815,0.490516 q -0.1698,-0.521959 -0.57856,-0.798661 -0.40247,-0.276701 -1.03134,-0.276701 -0.93701,0 -1.49671,0.654021 -0.5534,0.647734 -0.5534,2.056396 0,1.496704 0.55969,2.138149 0.56598,0.641444 1.57217,0.641444 0.47794,0 0.91186,-0.138351 0.43392,-0.13835 0.99361,-0.47165 v -0.867837 z"
         style="font-style:normal;font-variant:normal;font-weight:900;font-stretch:normal;font-family:Arial;-inkscape-font-specification:'Arial Heavy';fill:#ffffff;stroke-width:0.321981"
         id="path1082" />
      <path
         d="m 123.50137,61.465883 q 0,-2.257633 1.25774,-3.515367 1.25773,-1.257735 3.50279,-1.257735 2.30165,0 3.54681,1.238869 1.24516,1.232579 1.24516,3.458769 0,1.616189 -0.54712,2.65382 -0.54082,1.031342 -1.57217,1.6099 -1.02505,0.572269 -2.55949,0.572269 -1.55959,0 -2.58464,-0.496805 -1.01877,-0.496805 -1.65392,-1.572168 -0.63516,-1.075363 -0.63516,-2.691552 z m 2.84877,0.01258 q 0,1.396085 0.51567,2.006086 0.52196,0.610001 1.41495,0.610001 0.91815,0 1.42124,-0.597424 0.5031,-0.597424 0.5031,-2.144437 0,-1.301755 -0.52825,-1.899179 -0.52196,-0.603712 -1.42124,-0.603712 -0.86155,0 -1.38351,0.610001 -0.52196,0.610001 -0.52196,2.018664 z"
         style="font-style:normal;font-variant:normal;font-weight:900;font-stretch:normal;font-family:Arial;-inkscape-font-specification:'Arial Heavy';fill:#ffffff;stroke-width:0.321981"
         id="path1084" />
    </g>
    <g
       aria-label="AIR"
       id="text984-8-7"
       style="font-style:normal;font-variant:normal;font-weight:900;font-stretch:normal;font-size:11.714px;line-height:1.25;font-family:Arial;-inkscape-font-specification:'Arial Heavy';fill:#000000;stroke-width:0.29285"
       transform="matrix(1.3141861,0,0,1.3141861,-58.879826,-69.429114)">
      <path
         d="M 90.281518,76.041272 H 87.33014 l -0.406101,1.384174 h -2.648233 l 3.151569,-8.385119 h 2.825545 l 3.151569,8.385119 h -2.71115 z m -0.543374,-1.813154 -0.926595,-3.014295 -0.920876,3.014295 z"
         style="font-style:normal;font-variant:normal;font-weight:900;font-stretch:normal;font-family:Arial;-inkscape-font-specification:'Arial Heavy';fill:#000000;stroke-width:0.29285"
         id="path1087" />
      <path
         d="m 94.336805,69.040327 h 2.596756 v 8.385119 h -2.596756 z"
         style="font-style:normal;font-variant:normal;font-weight:900;font-stretch:normal;font-family:Arial;-inkscape-font-specification:'Arial Heavy';fill:#000000;stroke-width:0.29285"
         id="path1089" />
      <path
         d="m 98.82679,77.425446 v -8.385119 h 4.31839 c 0.80077,0 1.41278,0.06864 1.83604,0.20591 0.42326,0.137273 0.76454,0.392754 1.02383,0.766443 0.25929,0.369876 0.38894,0.821734 0.38894,1.355575 0,0.465205 -0.0991,0.867492 -0.29743,1.206863 -0.19828,0.335557 -0.47092,0.608197 -0.81792,0.81792 -0.22116,0.133461 -0.5243,0.244042 -0.90943,0.331745 0.74277,1.153358 1.83524,2.26543 2.38651,3.700663 h -2.60958 l -1.38418,-2.562438 c -0.17541,-0.331744 -0.33175,-0.547187 -0.46902,-0.646329 -0.18684,-0.129647 -0.39847,-0.194471 -0.63488,-0.194471 h -0.22879 v 3.403238 z m 2.60248,-4.987602 h 1.09246 c 0.11821,0 0.347,-0.03813 0.68637,-0.114394 0.17159,-0.03432 0.31077,-0.122023 0.41754,-0.263108 0.11058,-0.141087 0.16587,-0.303146 0.16587,-0.486177 0,-0.270733 -0.0858,-0.47855 -0.25738,-0.62345 -0.17159,-0.144899 -0.49381,-0.217349 -0.96664,-0.217349 h -1.13822 z"
         style="font-style:normal;font-variant:normal;font-weight:900;font-stretch:normal;font-family:Arial;-inkscape-font-specification:'Arial Heavy';fill:#000000;stroke-width:0.29285"
         id="path1091" />
    </g>
    <g
       aria-label="AIR"
       id="text984-8"
       style="font-style:normal;font-variant:normal;font-weight:900;font-stretch:normal;font-size:11.714px;line-height:1.25;font-family:Arial;-inkscape-font-specification:'Arial Heavy';fill:#ffe1ba;fill-opacity:1;stroke-width:0.29285"
       transform="matrix(1.3141861,0,0,1.3141861,-58.879826,-69.429114)">
      <path
         d="m 89.929704,75.891347 h -2.951379 l -0.4061,1.384173 h -2.648234 l 3.15157,-8.385119 h 2.825544 l 3.15157,8.385119 h -2.711151 z m -0.543374,-1.813154 -0.926596,-3.014296 -0.920876,3.014296 z"
         style="font-style:normal;font-variant:normal;font-weight:900;font-stretch:normal;font-family:Arial;-inkscape-font-specification:'Arial Heavy';fill:#ffe1ba;fill-opacity:1;stroke-width:0.29285"
         id="path1046" />
      <path
         d="m 93.984991,68.890401 h 2.596755 v 8.385119 h -2.596755 z"
         style="font-style:normal;font-variant:normal;font-weight:900;font-stretch:normal;font-family:Arial;-inkscape-font-specification:'Arial Heavy';fill:#ffe1ba;fill-opacity:1;stroke-width:0.29285"
         id="path1048" />
      <path
         d="m 98.474976,77.27552 v -8.385119 h 4.318394 q 1.20114,0 1.83603,0.205911 0.63489,0.20591 1.02383,0.766443 0.38894,0.554813 0.38894,1.355575 0,0.697807 -0.29742,1.206862 -0.29743,0.503336 -0.81792,0.817921 -0.33175,0.200191 -0.90944,0.331744 0.4633,0.154433 0.67493,0.308866 0.14299,0.102955 0.41182,0.440418 0.27455,0.337464 0.36606,0.520496 l 1.25262,2.430883 h -2.9285 l -1.38417,-2.562437 q -0.26311,-0.497616 -0.46902,-0.646329 -0.28027,-0.194471 -0.63489,-0.194471 h -0.22879 v 3.403237 z m 2.602474,-4.987601 h 1.09247 q 0.17731,0 0.68637,-0.114395 0.25738,-0.05148 0.41754,-0.263107 0.16587,-0.21163 0.16587,-0.486177 0,-0.4061 -0.25739,-0.62345 -0.25739,-0.21735 -0.96663,-0.21735 h -1.13823 z"
         style="font-style:normal;font-variant:normal;font-weight:900;font-stretch:normal;font-family:Arial;-inkscape-font-specification:'Arial Heavy';fill:#ffe1ba;fill-opacity:1;stroke-width:0.29285"
         id="path1050" />
    </g>
    <path
       style="fill:#000000;stroke:#000000;stroke-width:1.97128;stroke-linecap:butt;stroke-linejoin:miter;stroke-miterlimit:4;stroke-dasharray:none;stroke-opacity:1"
       d="m 39.06933,28.39586 h 7.699332"
       id="path1094" />
    <path
       style="fill:#000000;stroke:#ffe1ba;stroke-width:1.97128;stroke-linecap:butt;stroke-linejoin:miter;stroke-miterlimit:4;stroke-dasharray:none;stroke-opacity:1"
       d="m 38.862207,28.222448 h 7.699331"
       id="path1094-9" />
    <path
       style="fill:#000000;stroke:#000000;stroke-width:1.97128;stroke-linecap:butt;stroke-linejoin:miter;stroke-miterlimit:4;stroke-dasharray:none;stroke-opacity:1"
       d="m 86.517575,28.39586 h 7.699331"
       id="path1094-3" />
    <path
       style="fill:#000000;stroke:#ffe1ba;stroke-width:1.97128;stroke-linecap:butt;stroke-linejoin:miter;stroke-miterlimit:4;stroke-dasharray:none;stroke-opacity:1"
       d="m 86.310446,28.222448 h 7.699331"
       id="path1094-9-3" />
    <path
       id="path1164"
       style="opacity:1;fill:#ffe1ba;fill-opacity:1;stroke:none;stroke-width:1.97128;stroke-miterlimit:4;stroke-dasharray:none"
       d="m 26.292518,31.191761 -2.697781,-1.302748 -2.641176,1.413987 0.405326,-2.968314 -2.160949,-2.074963 2.948286,-0.53177 1.305638,-2.696384 1.416814,2.63966 2.967877,0.408507 -2.072646,2.163171 z" />
    <path
       id="path1164-2"
       style="fill:#ffe1ba;fill-opacity:1;stroke:none;stroke-width:1.97128;stroke-miterlimit:4;stroke-dasharray:none"
       d="m 111.30612,31.191761 -2.69779,-1.302748 -2.64117,1.413987 0.40534,-2.968314 -2.16096,-2.074963 2.94829,-0.53177 1.30564,-2.696384 1.41681,2.63966 2.96788,0.408507 -2.07266,2.163171 z" />
  </g>
</svg>
