<?xml version="1.0" encoding="UTF-8" standalone="no"?>
<!-- Created with Inkscape (http://www.inkscape.org/) -->

<svg
   xmlns:dc="http://purl.org/dc/elements/1.1/"
   xmlns:cc="http://creativecommons.org/ns#"
   xmlns:rdf="http://www.w3.org/1999/02/22-rdf-syntax-ns#"
   xmlns:svg="http://www.w3.org/2000/svg"
   xmlns="http://www.w3.org/2000/svg"
   xmlns:sodipodi="http://sodipodi.sourceforge.net/DTD/sodipodi-0.dtd"
   xmlns:inkscape="http://www.inkscape.org/namespaces/inkscape"
   id="svg3036"
   version="1.1"
   inkscape:version="0.48.4 r9939"
   width="428"
   height="200"
   sodipodi:docname="flightline.jpg">
  <metadata
     id="metadata3042">
    <rdf:RDF>
      <cc:Work
         rdf:about="">
        <dc:format>image/svg+xml</dc:format>
        <dc:type
           rdf:resource="http://purl.org/dc/dcmitype/StillImage" />
        <dc:title></dc:title>
      </cc:Work>
    </rdf:RDF>
  </metadata>
  <defs
     id="defs3040" />
  <sodipodi:namedview
     pagecolor="#ffffff"
     bordercolor="#666666"
     borderopacity="1"
     objecttolerance="10"
     gridtolerance="10"
     guidetolerance="10"
     inkscape:pageopacity="0"
     inkscape:pageshadow="2"
     inkscape:window-width="1366"
     inkscape:window-height="716"
     id="namedview3038"
     showgrid="false"
     inkscape:zoom="1.8879751"
     inkscape:cx="214"
     inkscape:cy="70.037453"
     inkscape:window-x="0"
     inkscape:window-y="0"
     inkscape:window-maximized="1"
     inkscape:current-layer="svg3036" />
  <g
     id="g3054"
     transform="translate(0.5018726,0.3745273)">
    <path
       style="fill:#f4730a"
       d="M 11.989831,194.75 C 10.171566,193.5125 7.7425188,191.22966 6.5919476,189.67702 4.5126048,186.87105 4.4983955,186.33733 4.2337155,101.09907 L 3.967431,15.344096 6.2575121,11.945844 C 7.5170567,10.076806 10.065932,7.5243848 11.92168,6.2737966 L 15.295766,4 99.832159,4 c 82.725361,0 84.625641,0.043203 88.702251,2.0166595 3.00727,1.4557944 4.90284,3.3707139 6.81573,6.8853285 L 198,17.770657 l 0,42.983829 0,42.983834 -3.55766,0.57732 c -6.77347,1.09919 -6.35339,3.86531 -6.662,-43.868557 -0.27171,-42.02712 -0.34192,-43.408284 -2.28034,-44.858148 -1.1,-0.822758 -3.8,-1.764188 -6,-2.092067 -2.2,-0.327879 -39.4774,-0.461306 -82.838659,-0.296506 L 17.822682,13.5 15.911341,15.860784 C 14.063977,18.142547 14,20.990891 14,100.9558 l 0,82.73422 2.104913,1.90499 c 2.034058,1.84086 4.877585,1.90499 84.472147,1.90499 l 82.36724,0 2.27785,-2.27414 c 1.85837,-1.85535 2.36993,-3.69693 2.77785,-10 l 0.5,-7.72586 4.5,0 4.5,0 0.29132,7.70884 c 0.34413,9.10617 -1.52869,13.7805 -7.49014,18.69443 L 186.54431,197 l -85.62427,0 -85.624274,0 -3.305935,-2.25 z M 170.39355,165.02194 c -1.80303,-0.72867 -2.01624,-1.40374 -1.48018,-4.68661 l 0.62627,-3.83533 6.81726,0 c 5.95767,0 7.05845,-0.29767 8.73018,-2.36078 2.46554,-3.04279 2.55602,-5.61699 0.16292,-4.63536 -3.45059,1.4154 -14.90292,1.70999 -20.5888,0.52961 -8.08194,-1.67781 -9.65372,-4.36972 -9.65372,-16.53347 0,-14.53398 3.11752,-17.48218 18.49912,-17.49442 3.85363,-0.003 8.57837,0.4452 10.49943,0.99615 2.33256,0.66897 3.60374,0.66897 3.82673,0 C 188.01641,116.45078 190.37917,116 193.08333,116 l 4.91667,0 0,19.59887 c 0,22.83013 -0.58033,25.05138 -7.40869,28.35693 -4.47046,2.16411 -15.97789,2.77153 -20.19776,1.06614 z m 14.67219,-24.05712 C 186.62684,140.12934 187,138.84232 187,134.29356 187,126.38755 185.51705,125 177.06752,125 167.90166,125 166,126.45797 166,133.48528 c 0,7.3866 1.34308,8.51472 10.13717,8.51472 3.84687,0 7.86473,-0.46583 8.92857,-1.03518 z m 80.31491,13.12559 c -4.18151,-2.54979 -5.44849,-6.56117 -6.10859,-19.34041 -0.50966,-9.86667 -0.71826,-10.75 -2.53867,-10.75 -1.68806,0 -1.89033,-0.46531 -1.35839,-3.125 0.34375,-1.71875 0.625,-3.51875 0.625,-4 0,-0.48125 0.675,-0.875 1.5,-0.875 1.08487,0 1.5,-1.11386 1.5,-4.02475 0,-4.3535 1.46885,-5.47719 8.75,-6.69386 l 3.25,-0.54307 0,5.63084 0,5.63084 3.84258,0 3.84258,0 -0.60407,3.75 c -0.53912,3.34674 -0.95233,3.7837 -3.84259,4.06336 l -3.2385,0.31336 0,9.43664 c 0,8.16219 0.27526,9.7119 2.03816,11.4748 1.57718,1.57718 2.79444,1.89627 5.38202,1.41084 l 3.34388,-0.62732 -0.71613,3.91622 c -0.39387,2.15393 -1.04235,4.44405 -1.44105,5.08916 -1.18136,1.91149 -10.69099,1.41907 -14.22623,-0.73665 z M 91,139.5 C 91,124.66667 90.913978,124 89,124 87.551371,124 87,123.33333 87,121.58179 87,118.21617 87.984324,116 89.479181,116 c 0.708224,0 1.55422,-1.80742 1.92172,-4.10563 0.90861,-5.68214 4.955856,-9.5254 10.982719,-10.42919 2.58982,-0.38837 4.87285,-0.53941 5.07339,-0.33565 0.20054,0.20376 0.67894,2.05322 1.06311,4.10991 0.58201,3.11582 0.38842,3.84993 -1.16081,4.402 -2.68945,0.95838 -5.35931,3.45599 -5.35931,5.01355 0,0.90251 1.31597,1.34501 4,1.34501 4.23414,0 4.69837,0.79215 3.36971,5.75 -0.47465,1.77118 -1.32299,2.25 -3.98634,2.25 L 102,124 l 0,15.5 0,15.5 -5.5,0 -5.5,0 0,-15.5 z m 24,-9.84171 0,-25.34171 4.10409,-1.22962 c 2.25725,-0.67629 4.73225,-1.47066 5.5,-1.76528 C 125.77748,100.87141 126,105.10709 126,127.89301 L 126,155 l -5.5,0 -5.5,0 0,-25.34171 z M 135.92714,152.25 c -0.058,-2.18943 -0.0277,-19.57534 0.0593,-34 0.0124,-2.05896 0.48055,-2.25 5.51357,-2.25 l 5.5,0 0,17.91821 c 0,9.85502 -0.27314,18.63002 -0.60699,19.5 -0.43906,1.14417 -1.9607,1.58179 -5.5,1.58179 -4.6535,0 -4.89658,-0.13461 -4.96587,-2.75 z m 71.73953,2.08333 C 207.3,153.96667 207,142.6937 207,129.28231 l 0,-24.38436 3.49323,-1.45957 c 1.92127,-0.80276 4.50877,-1.56729 5.75,-1.69897 2.15765,-0.2289 2.26948,0.12004 2.54615,7.94484 l 0.28938,8.18426 3.02241,-1.05362 c 4.52915,-1.57887 19.83734,-0.57881 22.9947,1.50221 C 249.35758,121.126 250,123.97254 250,140.04705 L 250,155 l -5.5,0 -5.5,0 -0.0153,-13.25 c -0.008,-7.2875 -0.432,-13.9088 -0.94127,-14.71399 -1.19551,-1.89016 -13.89523,-2.72087 -16.91216,-1.10626 C 219.11244,127.01019 219,127.80714 219,141.03518 L 219,155 l -5.33333,0 c -2.93334,0 -5.63334,-0.3 -6,-0.66667 z m 79.56616,-24.55254 0.26717,-25.2192 4.82751,-1.79191 c 2.65514,-0.98555 5.24264,-1.53534 5.75,-1.22177 C 298.6032,101.8728 299,113.49155 299,128.55902 L 299,155 l -6.01717,0 -6.01717,0 0.26717,-25.21921 z M 308,135.5 l 0,-19.5 5.5,0 5.5,0 0,19.5 0,19.5 -5.5,0 -5.5,0 0,-19.5 z m 20,0 0,-19.5 4.91667,0 c 2.70416,0 5.07602,0.47808 5.27079,1.06239 0.24996,0.74986 1.17617,0.74986 3.14844,0 4.07004,-1.54743 18.11243,-1.31973 22.1298,0.35883 5.3732,2.24507 6.39164,5.44184 7.16028,22.4754 L 371.30752,155 365.15376,155 359,155 359,141.57143 C 359,125.20526 358.87614,125 349,125 c -9.87614,0 -10,0.20526 -10,16.57143 L 339,155 l -5.5,0 -5.5,0 0,-19.5 z m 58.0964,18.24805 c -4.88494,-2.53647 -6.45224,-6.0815 -6.84982,-15.49343 -0.44778,-10.60041 1.1329,-16.70211 5.09273,-19.65882 2.40489,-1.79568 4.52538,-2.147 14.80796,-2.45332 C 419.05025,115.54956 423,118.24997 423,132.45034 l 0,7.54966 -16,0 c -14.74074,0 -16,0.14167 -16,1.8 0,3.71611 1.93066,4.2 16.7575,4.2 l 14.3575,0 -0.3075,4.25 -0.3075,4.25 -16.5,0.24805 c -11.66736,0.17541 -17.20398,-0.11748 -18.9036,-1 z M 412,130.02305 c 0,-3.5918 -4.22716,-5.29241 -12.05569,-4.85006 -7.20951,0.40737 -8.89653,1.36661 -8.929,5.07701 -0.0136,1.55653 1.14552,1.75 10.48469,1.75 9.79252,0 10.5,-0.1332 10.5,-1.97695 z M 50.405796,112.26028 C 39.044758,103.87415 31,97.516993 31,96.925368 c 0,-0.344529 2.314595,-2.065248 5.143545,-3.82382 5.390371,-3.350839 6.00628,-3.390912 15.367619,-0.99988 3.553667,0.907662 4.523144,0.728609 8.5,-1.56987 C 70.171665,84.659396 85.333843,74.432717 85.262682,73.5 85.22072,72.95 79.18195,70.636042 71.843194,68.35787 37.169937,57.594245 32.869206,56.201029 32.207766,55.518025 31.818495,55.116063 33.975,52.552245 37,49.820651 l 5.5,-4.966534 5.5,0.624353 c 3.025,0.343394 9.1,1.255742 13.5,2.027439 C 65.9,48.277606 75.125,49.849947 82,51 c 6.875,1.150053 16.1,2.745878 20.5,3.546279 4.4,0.800401 8.83222,1.454925 9.84938,1.454498 1.01715,-4.28e-4 11.79305,-6.304585 23.94643,-14.00924 20.40476,-12.935639 22.36919,-13.960946 25.65062,-13.388011 5.50607,0.961358 8.3869,4.358983 8.3869,9.891423 0,3.265276 -0.5609,5.135542 -1.91666,6.390953 C 167.3625,45.862038 159.075,51.31124 150,56.99524 c -9.075,5.684 -19.425,12.208177 -23,14.49817 -3.575,2.289994 -9.875,6.267917 -14,8.839829 -4.125,2.571913 -8.175,5.121051 -9,5.66475 -0.825,0.5437 -6.675,4.204977 -13,8.136172 -6.325,3.931195 -13.75,8.597999 -16.5,10.370669 -13.519962,8.71509 -16.444194,10.53647 -17.671188,11.00659 -0.730846,0.28002 -3.621204,-1.18299 -6.423016,-3.25114 z m 85.510874,1.54198 c -0.55531,-2.01417 -0.68562,-5.85315 -0.27333,-8.05226 0.48786,-2.60221 0.8097,-2.75 5.98837,-2.75 l 5.47281,0 -0.30226,5.25 -0.30226,5.25 -5.25,0.30226 c -2.8875,0.16624 -5.2875,0.16624 -5.33333,0 z M 308,108.5 l 0,-5.5 5.5,0 5.5,0 0,5.5 0,5.5 -5.5,0 -5.5,0 0,-5.5 z"
       id="path3058"
       inkscape:connector-curvature="0" />
    <path
       style="fill:#10619a"
       d="m 170.39355,165.02194 c -1.80303,-0.72867 -2.01624,-1.40374 -1.48018,-4.68661 l 0.62627,-3.83533 6.81726,0 c 5.95767,0 7.05845,-0.29767 8.73018,-2.36078 2.46554,-3.04279 2.55602,-5.61699 0.16292,-4.63536 -3.45059,1.4154 -14.90292,1.70999 -20.5888,0.52961 -8.08194,-1.67781 -9.65372,-4.36972 -9.65372,-16.53347 0,-14.53398 3.11752,-17.48218 18.49912,-17.49442 3.85363,-0.003 8.57837,0.4452 10.49943,0.99615 2.33256,0.66897 3.60374,0.66897 3.82673,0 C 188.01641,116.45078 190.37917,116 193.08333,116 l 4.91667,0 0,19.59887 c 0,22.83013 -0.58033,25.05138 -7.40869,28.35693 -4.47046,2.16411 -15.97789,2.77153 -20.19776,1.06614 z m 14.67219,-24.05712 C 186.62684,140.12934 187,138.84232 187,134.29356 187,126.38755 185.51705,125 177.06752,125 167.90166,125 166,126.45797 166,133.48528 c 0,7.3866 1.34308,8.51472 10.13717,8.51472 3.84687,0 7.86473,-0.46583 8.92857,-1.03518 z m 80.31491,13.12559 c -4.18151,-2.54979 -5.44849,-6.56117 -6.10859,-19.34041 -0.50966,-9.86667 -0.71826,-10.75 -2.53867,-10.75 -1.68806,0 -1.89033,-0.46531 -1.35839,-3.125 0.34375,-1.71875 0.625,-3.51875 0.625,-4 0,-0.48125 0.675,-0.875 1.5,-0.875 1.08487,0 1.5,-1.11386 1.5,-4.02475 0,-4.3535 1.46885,-5.47719 8.75,-6.69386 l 3.25,-0.54307 0,5.63084 0,5.63084 3.84258,0 3.84258,0 -0.60407,3.75 c -0.53912,3.34674 -0.95233,3.7837 -3.84259,4.06336 l -3.2385,0.31336 0,9.43664 c 0,8.16219 0.27526,9.7119 2.03816,11.4748 1.57718,1.57718 2.79444,1.89627 5.38202,1.41084 l 3.34388,-0.62732 -0.71613,3.91622 c -0.39387,2.15393 -1.04235,4.44405 -1.44105,5.08916 -1.18136,1.91149 -10.69099,1.41907 -14.22623,-0.73665 z M 91,139.5 C 91,124.66667 90.913978,124 89,124 87.551371,124 87,123.33333 87,121.58179 87,118.21617 87.984324,116 89.479181,116 c 0.708224,0 1.55422,-1.80742 1.92172,-4.10563 0.90861,-5.68214 4.955856,-9.5254 10.982719,-10.42919 2.58982,-0.38837 4.87285,-0.53941 5.07339,-0.33565 0.20054,0.20376 0.67894,2.05322 1.06311,4.10991 0.58201,3.11582 0.38842,3.84993 -1.16081,4.402 -2.68945,0.95838 -5.35931,3.45599 -5.35931,5.01355 0,0.90251 1.31597,1.34501 4,1.34501 4.23414,0 4.69837,0.79215 3.36971,5.75 -0.47465,1.77118 -1.32299,2.25 -3.98634,2.25 L 102,124 l 0,15.5 0,15.5 -5.5,0 -5.5,0 0,-15.5 z m 24,-9.84171 0,-25.34171 4.10409,-1.22962 c 2.25725,-0.67629 4.73225,-1.47066 5.5,-1.76528 C 125.77748,100.87141 126,105.10709 126,127.89301 L 126,155 l -5.5,0 -5.5,0 0,-25.34171 z m 92.66667,24.67504 C 207.3,153.96667 207,142.6937 207,129.28231 l 0,-24.38436 3.49323,-1.45957 c 1.92127,-0.80276 4.50877,-1.56729 5.75,-1.69897 2.15765,-0.2289 2.26948,0.12004 2.54615,7.94484 l 0.28938,8.18426 3.02241,-1.05362 c 4.52915,-1.57887 19.83734,-0.57881 22.9947,1.50221 C 249.35758,121.126 250,123.97254 250,140.04705 L 250,155 l -5.5,0 -5.5,0 -0.0153,-13.25 c -0.008,-7.2875 -0.432,-13.9088 -0.94127,-14.71399 -1.19551,-1.89016 -13.89523,-2.72087 -16.91216,-1.10626 C 219.11244,127.01019 219,127.80714 219,141.03518 L 219,155 l -5.33333,0 c -2.93334,0 -5.63334,-0.3 -6,-0.66667 z m 79.56616,-24.55254 0.26717,-25.2192 4.82751,-1.79191 c 2.65514,-0.98555 5.24264,-1.53534 5.75,-1.22177 C 298.6032,101.8728 299,113.49155 299,128.55902 L 299,155 l -6.01717,0 -6.01717,0 0.26717,-25.21921 z M 328,135.5 l 0,-19.5 4.91667,0 c 2.70416,0 5.07602,0.47808 5.27079,1.06239 0.24996,0.74986 1.17617,0.74986 3.14844,0 4.07004,-1.54743 18.11243,-1.31973 22.1298,0.35883 5.3732,2.24507 6.39164,5.44184 7.16028,22.4754 L 371.30752,155 365.15376,155 359,155 359,141.57143 C 359,125.20526 358.87614,125 349,125 c -9.87614,0 -10,0.20526 -10,16.57143 L 339,155 l -5.5,0 -5.5,0 0,-19.5 z m 58.0964,18.24805 c -4.88494,-2.53647 -6.45224,-6.0815 -6.84982,-15.49343 -0.44778,-10.60041 1.1329,-16.70211 5.09273,-19.65882 2.40489,-1.79568 4.52538,-2.147 14.80796,-2.45332 C 419.05025,115.54956 423,118.24997 423,132.45034 l 0,7.54966 -16,0 c -14.74074,0 -16,0.14167 -16,1.8 0,3.71611 1.93066,4.2 16.7575,4.2 l 14.3575,0 -0.3075,4.25 -0.3075,4.25 -16.5,0.24805 c -11.66736,0.17541 -17.20398,-0.11748 -18.9036,-1 z M 412,130.02305 c 0,-3.5918 -4.22716,-5.29241 -12.05569,-4.85006 -7.20951,0.40737 -8.89653,1.36661 -8.929,5.07701 -0.0136,1.55653 1.14552,1.75 10.48469,1.75 9.79252,0 10.5,-0.1332 10.5,-1.97695 z M 50.405796,112.26028 C 39.044758,103.87415 31,97.516993 31,96.925368 c 0,-0.344529 2.314595,-2.065248 5.143545,-3.82382 5.390371,-3.350839 6.00628,-3.390912 15.367619,-0.99988 3.553667,0.907662 4.523144,0.728609 8.5,-1.56987 C 70.171665,84.659396 85.333843,74.432717 85.262682,73.5 85.22072,72.95 79.18195,70.636042 71.843194,68.35787 37.169937,57.594245 32.869206,56.201029 32.207766,55.518025 31.818495,55.116063 33.975,52.552245 37,49.820651 l 5.5,-4.966534 5.5,0.624353 c 3.025,0.343394 9.1,1.255742 13.5,2.027439 C 65.9,48.277606 75.125,49.849947 82,51 c 6.875,1.150053 16.1,2.745878 20.5,3.546279 4.4,0.800401 8.83222,1.454925 9.84938,1.454498 1.01715,-4.28e-4 11.79305,-6.304585 23.94643,-14.00924 20.40476,-12.935639 22.36919,-13.960946 25.65062,-13.388011 5.50607,0.961358 8.3869,4.358983 8.3869,9.891423 0,3.265276 -0.5609,5.135542 -1.91666,6.390953 C 167.3625,45.862038 159.075,51.31124 150,56.99524 c -9.075,5.684 -19.425,12.208177 -23,14.49817 -3.575,2.289994 -9.875,6.267917 -14,8.839829 -4.125,2.571913 -8.175,5.121051 -9,5.66475 -0.825,0.5437 -6.675,4.204977 -13,8.136172 -6.325,3.931195 -13.75,8.597999 -16.5,10.370669 -13.519962,8.71509 -16.444194,10.53647 -17.671188,11.00659 -0.730846,0.28002 -3.621204,-1.18299 -6.423016,-3.25114 z"
       id="path3056"
       inkscape:connector-curvature="0" />
  </g>
</svg>
