<svg height="72" viewBox="0 0 435.24 72" width="435.23999" xmlns="http://www.w3.org/2000/svg">
  <g transform="scale(2)">
    <path d="m77.33 21.89v-7.78h-24.82v-6.4h31.95v-7.71h-39.51v36h7.56v-14.11z"/>
    <path d="m100.34 28.35v-28.35h-7.63v36h-.06 34.32v-7.65z"/>
    <path d="m170.29.06h-11.31l-13.76 12.92-13.75-12.92h-11.31l21.25 19.64v16.3h7.63v-16.3z"/>
    <path d="m172.67 7.53h32.95l-26.51 28.41h10.63l27.88-30.42v-5.52h-36.82z"/>
    <path d="m1.81 6.71h36.01v4.27h-28.94z"/>
    <path d="m12.32 13.36h25.5v4.27h-18.44z"/>
    <path d="m22.44 20.01h15.38v4.26h-8.31z"/>
    <path d="m0 0h37.82v4.27h-37.82z"/>
  </g>
</svg>
