<?xml version="1.0" encoding="UTF-8" standalone="no"?>
<!-- Generator: Adobe Illustrator 26.3.1, SVG Export Plug-In . SVG Version: 6.00 Build 0)  -->

<svg
   version="1.1"
   id="Layer_1"
   x="0px"
   y="0px"
   viewBox="0 0 400.00001 135.69463"
   xml:space="preserve"
   sodipodi:docname="شعار طيران أديل – Fly Adeal Logo – SVG – PNG.svg"
   width="400"
   height="135.69463"
   inkscape:version="1.3.2 (091e20e, 2023-11-25, custom)"
   inkscape:export-filename="NO TRANSPARENT.svg"
   inkscape:export-xdpi="96"
   inkscape:export-ydpi="96"
   xmlns:inkscape="http://www.inkscape.org/namespaces/inkscape"
   xmlns:sodipodi="http://sodipodi.sourceforge.net/DTD/sodipodi-0.dtd"
   xmlns="http://www.w3.org/2000/svg"
   xmlns:svg="http://www.w3.org/2000/svg"><defs
   id="defs1" /><sodipodi:namedview
   id="namedview1"
   pagecolor="#ffffff"
   bordercolor="#999999"
   borderopacity="1"
   inkscape:showpageshadow="2"
   inkscape:pageopacity="0"
   inkscape:pagecheckerboard="0"
   inkscape:deskcolor="#d1d1d1"
   inkscape:zoom="1.2990622"
   inkscape:cx="171.6623"
   inkscape:cy="60.043314"
   inkscape:window-width="1500"
   inkscape:window-height="912"
   inkscape:window-x="-8"
   inkscape:window-y="-8"
   inkscape:window-maximized="1"
   inkscape:current-layer="Layer_1" />
<style
   type="text/css"
   id="style1">
	.st0{fill:#CDDE00;}
	.st1{fill:#522D6D;}
</style>
<g
   id="Group_175"
   transform="matrix(1.3897077,0,0,1.3897077,-3823.4986,-950.12926)">
	<g
   id="Group_132"
   transform="translate(2004.597,-7298.41)">
		<g
   id="Group_131">
			<g
   id="Group_122">
				<g
   id="Group_121">
					<path
   id="Path_662"
   class="st0"
   d="m 751.3,8066.4 c -3.4,0 -4.6,-2 -4.6,-6 0.1,-2.8 0.7,-5.5 2,-8 24.8,0 37.2,-2.2 45.9,-2.2 3.4,0 5.4,1.6 5.4,4.8 -0.1,2.8 -0.9,5.6 -2.4,8 -26.1,0 -40.9,3.4 -46.3,3.4 z" />
				</g>
				<path
   id="Path_663"
   class="st0"
   d="m 758.9,8046.9 c -3.4,0 -4.6,-2 -4.6,-6 0.1,-2.8 0.7,-5.5 2,-8 24.8,0 37.1,-2.2 45.9,-2.2 3.4,0 5.4,1.6 5.4,4.8 -0.1,2.8 -0.9,5.6 -2.4,8 -26.2,0 -40.9,3.4 -46.3,3.4 z" />
			</g>
			<g
   id="Group_130">
				<g
   id="Group_124">
					<g
   id="Group_123">
						<path
   id="Path_664"
   class="st1"
   d="m 839.1,8021.3 c 0,-0.4 0.3,-0.7 0.7,-0.7 h 4.2 c 1.2,0 2.4,0.4 3.2,1.3 0.9,0.8 1.4,2 1.3,3.2 v 41.1 c 0,0.4 -0.3,0.7 -0.7,0.7 h -8 c -0.4,0 -0.7,-0.3 -0.7,-0.7 v 0 z" />
						<path
   id="Path_665"
   class="st1"
   d="m 944,8021.1 c 0,-0.4 0.3,-0.7 0.7,-0.7 h 3.9 c 1.2,0 2.4,0.5 3.2,1.4 0.9,0.8 1.3,2 1.3,3.1 v 26.2 c 0,6.4 -1.8,10.7 -5.5,12.9 -3.6,2.2 -7.7,3.4 -11.9,3.4 -2.3,0 -4.6,-0.4 -6.9,-1.1 -2.1,-0.7 -4,-2 -5.4,-3.7 -2.8,-4 -4.2,-8.7 -3.9,-13.6 -0.2,-4.8 1.1,-9.6 3.9,-13.6 3.8,-5 10.6,-6.7 16.2,-3.9 1.7,1 3.2,2.4 4.3,4.2 z m -15.3,27.5 c -0.2,2.9 0.5,5.7 2,8.2 1.3,1.9 3.5,2.9 5.8,2.8 2.2,0.1 4.4,-1 5.6,-2.8 1.4,-2.5 2,-5.3 1.9,-8.2 0.1,-2.7 -0.6,-5.4 -2,-7.6 -1.4,-1.8 -3.5,-2.8 -5.8,-2.7 -2.2,-0.1 -4.3,1 -5.5,2.8 -1.5,2.2 -2.2,4.9 -2,7.5 z" />
						<path
   id="Path_666"
   class="st1"
   d="m 1024.9,8021.3 c 0,-0.4 0.3,-0.7 0.7,-0.7 h 4.2 c 1.2,0 2.4,0.4 3.2,1.3 0.9,0.8 1.4,2 1.3,3.1 v 41.1 c 0,0.4 -0.3,0.7 -0.7,0.7 h -8 c -0.4,0 -0.7,-0.3 -0.7,-0.7 z" />
					</g>
				</g>
				<g
   id="Group_125">
					<path
   id="Path_667"
   class="st1"
   d="m 977.5,8002.3 h -1.9 c -1.3,0 -2.4,1.1 -2.4,2.4 v 8 c 0.1,1.1 -0.3,2.2 -1,3 -0.7,0.7 -1.7,1 -2.7,1 -0.5,0 -0.9,-0.1 -1.4,-0.2 -0.5,-0.1 -0.9,-0.4 -1.2,-0.7 -0.4,-0.4 -0.7,-0.8 -0.9,-1.3 -0.2,-0.6 -0.4,-1.3 -0.3,-2 0,-0.9 0.1,-1.8 0.4,-2.6 0.2,-0.7 0.5,-1.4 0.9,-2.1 0,-0.1 0.1,-0.2 0,-0.2 0,-0.1 -0.1,-0.1 -0.2,-0.2 l -3.6,-1.2 c -0.2,-0.1 -0.4,0 -0.5,0.1 -0.6,1 -1.1,2.1 -1.4,3.2 -0.3,1.1 -0.5,2.3 -0.5,3.5 0,1.2 0.2,2.5 0.7,3.6 0.4,1 1.1,1.8 1.9,2.5 0.8,0.7 1.7,1.1 2.7,1.4 1.1,0.3 2.2,0.5 3.3,0.5 1.1,0 2.2,-0.2 3.3,-0.5 1,-0.3 1.9,-0.8 2.7,-1.4 0.8,-0.7 1.4,-1.5 1.8,-2.4 0.5,-1.1 0.7,-2.4 0.6,-3.6 v -10.2 c 0.1,-0.4 -0.1,-0.6 -0.3,-0.6 z" />
					<path
   id="Path_668"
   class="st1"
   d="m 986.2,7990.9 h -2 c -1.3,0 -2.4,1.1 -2.4,2.4 v 20 c 0,0.2 0.2,0.3 0.3,0.3 h 4 c 0.2,0 0.3,-0.1 0.3,-0.3 v -22.1 c 0.1,-0.2 0,-0.3 -0.2,-0.3 z" />
					<path
   id="Rectangle_46"
   class="st1"
   d="m 1006.2,8016.6 h 3.4 c 0.2,0 0.3,0.2 0.3,0.3 v 3.3 c 0,0.2 -0.2,0.3 -0.3,0.3 h -3.4 c -0.2,0 -0.3,-0.2 -0.3,-0.3 v -3.3 c 0,-0.2 0.1,-0.3 0.3,-0.3 z" />
					<path
   id="Path_669"
   class="st1"
   d="m 1004.4,8016.6 h -1.3 c -1.3,0 -2.4,1.1 -2.4,2.4 v 1.2 c 0,0.2 0.1,0.3 0.3,0.3 h 3.4 c 0.2,0 0.3,-0.2 0.3,-0.3 v -3.3 c 0,-0.2 -0.1,-0.3 -0.3,-0.3 z" />
					<path
   id="Path_670"
   class="st1"
   d="m 1032.4,8000.9 c -1.8,-1.4 -4,-2.1 -6.2,-1.9 -1.3,0 -2.6,0.2 -3.8,0.5 -1.1,0.3 -2.2,0.7 -3.3,1.2 v -9.4 c 0,-0.2 -0.1,-0.3 -0.3,-0.3 0,0 0,0 0,0 h -1.5 c -1.4,-0.2 -2.6,0.8 -2.8,2.2 0,0.2 0,0.4 0,0.6 v 12.5 c 0,0.5 0,0.9 0,1.3 0,0.4 -0.1,0.7 -0.2,1.1 -0.1,0.3 -0.3,0.5 -0.5,0.7 -0.3,0.2 -0.6,0.3 -0.9,0.3 h -2.2 c -0.6,0 -1.3,-0.1 -1.8,-0.5 -0.4,-0.3 -0.7,-0.8 -0.7,-1.3 v -7.9 c 0,-0.2 -0.1,-0.3 -0.3,-0.3 h -2 c -1.3,0 -2.4,1.1 -2.4,2.4 v 4.9 c 0,0.7 0,1.4 -0.3,2.1 -0.2,0.4 -0.6,0.6 -1.3,0.6 H 999 c -0.7,0 -1.3,-0.1 -1.8,-0.5 -0.4,-0.3 -0.7,-0.8 -0.7,-1.3 v -7.9 c 0,-0.2 -0.2,-0.3 -0.3,-0.3 h -2 c -1.3,0 -2.4,1.1 -2.4,2.4 v 10.2 c 0,0.7 0,1.3 -0.1,1.9 0,0.5 -0.1,0.9 -0.3,1.4 -0.2,0.4 -0.4,0.6 -0.8,0.8 -0.4,0.2 -0.9,0.3 -1.4,0.3 H 988 c -0.2,0 -0.3,0.1 -0.3,0.3 v 3.4 c 0,0.2 0.2,0.3 0.3,0.3 h 1.5 c 1.9,0.2 3.7,-0.5 5,-1.8 1.1,-1.7 1.6,-3.6 1.5,-5.6 v -0.5 c 0.4,0.5 0.8,0.8 1.4,0.9 0.6,0.1 1.3,0.2 1.9,0.2 h 3.5 c 1,0 1.9,-0.1 2.9,-0.3 0.7,-0.2 1.3,-0.7 1.6,-1.4 0.3,0.6 0.9,1.1 1.6,1.4 0.7,0.2 1.5,0.3 2.2,0.3 h 3.1 c 0.7,0 1.4,0 2.1,-0.1 0.5,-0.1 1,-0.3 1.4,-0.6 0.5,0.5 1.2,0.8 1.9,0.7 h 7.9 c 1.1,0 2.2,-0.1 3.2,-0.3 0.8,-0.1 1.6,-0.5 2.2,-1 0.6,-0.5 1,-1.2 1.2,-2 0.3,-1.1 0.4,-2.2 0.4,-3.3 0.2,-2.5 -0.6,-4.7 -2.1,-6.4 z m -3,7.5 c -0.1,0.4 -0.3,0.7 -0.6,0.8 -0.4,0.2 -0.8,0.3 -1.2,0.3 -0.5,0.1 -1.2,0.1 -2,0.1 h -6.6 c 0.1,-0.4 0.1,-0.9 0.1,-1.3 v -3.8 c 0.9,-0.4 1.9,-0.8 2.9,-1 1.1,-0.3 2.2,-0.5 3.3,-0.5 0.7,0 1.4,0.1 2.1,0.2 0.5,0.1 0.9,0.4 1.3,0.7 0.3,0.3 0.6,0.7 0.7,1.2 0.1,0.5 0.2,1.1 0.2,1.6 0,0.6 -0.1,1.2 -0.2,1.7 z" />
					<path
   id="Path_671"
   class="st1"
   d="m 968.3,7999.7 h 3.3 c 0.2,0 0.3,-0.1 0.3,-0.3 v 0 -3.3 c 0,-0.2 -0.2,-0.3 -0.3,-0.3 h -1.3 c -1.3,0 -2.4,1.1 -2.4,2.4 v 1.2 c 0,0.1 0.2,0.3 0.4,0.3 z" />
				</g>
				<g
   id="Group_129">
					<path
   id="Path_672"
   class="st1"
   d="m 944.9,8007.9 c 0,0.9 -0.1,1.9 -0.3,2.7 -0.2,0.7 -0.5,1.2 -0.9,1.8 -0.4,0.4 -1,0.8 -1.6,0.9 -0.7,0.2 -1.5,0.3 -2.2,0.3 h -8.1 c -0.2,0 -0.3,-0.1 -0.3,-0.3 v -1.3 c 0,-1.3 1.1,-2.4 2.4,-2.4 h 3.7 c 0.5,0 0.9,0 1.3,-0.1 0.3,0 0.5,-0.2 0.8,-0.4 0.2,-0.2 0.3,-0.4 0.3,-0.7 0.1,-0.4 0.1,-0.7 0.1,-1.1 v -1.8 c 0.1,-0.7 -0.2,-1.4 -0.8,-1.9 -0.7,-0.4 -1.5,-0.6 -2.3,-0.6 h -3.8 c -0.2,0 -0.3,-0.1 -0.3,-0.3 v -3.4 c 0,-0.2 0.2,-0.3 0.3,-0.3 h 5.8 c 1.6,-0.1 3.2,0.4 4.4,1.5 1.1,1.2 1.7,2.9 1.5,4.6 z" />
					<g
   id="Group_127">
						<g
   id="Group_126">
							<path
   id="Path_673"
   class="st1"
   d="m 923.7,8013.7 c 1.1,0.1 2.2,-0.3 3,-1 0.7,-0.9 1,-2.1 0.9,-3.2 v -9.5 c 0,-0.2 -0.2,-0.3 -0.3,-0.3 h -2 c -1.3,0 -2.4,1.1 -2.4,2.4 v 5.9 c 0,0.5 -0.1,1 -0.4,1.4 -0.3,0.3 -0.8,0.4 -1.2,0.4 h -2.9 c -0.7,0 -1.3,-0.1 -1.8,-0.5 -0.4,-0.3 -0.7,-0.8 -0.7,-1.3 v -16.6 c 0,-0.2 -0.1,-0.3 -0.3,-0.3 h -2 c -1.3,0 -2.4,1.1 -2.4,2.4 v 19.4 c 0.1,1.1 -0.3,2.2 -1,3 -0.7,0.7 -1.7,1 -2.7,1 -0.5,0 -0.9,-0.1 -1.4,-0.2 -0.5,-0.1 -0.9,-0.4 -1.2,-0.7 -0.4,-0.4 -0.7,-0.8 -0.9,-1.3 -0.2,-0.6 -0.3,-1.3 -0.3,-2 0,-0.9 0.1,-1.8 0.4,-2.6 0.2,-0.7 0.5,-1.4 0.9,-2.1 0,-0.1 0.1,-0.2 0,-0.2 0,-0.1 -0.1,-0.1 -0.2,-0.2 l -3.6,-1.2 c -0.2,-0.1 -0.4,0 -0.5,0.1 -0.6,1 -1,2.1 -1.4,3.2 -0.3,1.1 -0.5,2.3 -0.5,3.4 0,1.2 0.2,2.5 0.7,3.6 0.4,1 1.1,1.8 1.9,2.5 0.8,0.6 1.7,1.1 2.7,1.4 1.1,0.3 2.2,0.5 3.3,0.5 1.1,0 2.2,-0.2 3.3,-0.5 1,-0.3 1.9,-0.8 2.7,-1.4 0.8,-0.7 1.4,-1.5 1.8,-2.4 0.5,-1.1 0.7,-2.4 0.6,-3.6 v -0.3 c 0.4,0.4 0.9,0.7 1.4,0.9 0.6,0.1 1.2,0.2 1.9,0.2 z" />
							<path
   id="Path_674"
   class="st1"
   d="m 923.8,8016.6 h -1.3 c -1.3,0 -2.4,1.1 -2.4,2.4 v 1.2 c 0,0.2 0.1,0.3 0.3,0.3 h 3.4 c 0.2,0 0.3,-0.2 0.3,-0.3 v 0 -3.3 c 0.1,-0.2 -0.1,-0.3 -0.3,-0.3 z" />
							<path
   id="Rectangle_47"
   class="st1"
   d="m 925.6,8016.6 h 3.4 c 0.2,0 0.3,0.2 0.3,0.3 v 3.3 c 0,0.2 -0.2,0.3 -0.3,0.3 h -3.4 c -0.2,0 -0.3,-0.2 -0.3,-0.3 v -3.3 c 0,-0.2 0.2,-0.3 0.3,-0.3 z" />
						</g>
					</g>
					<g
   id="Group_128">
						<path
   id="Path_675"
   class="st1"
   d="m 952.9,7990.9 h -2 c -1.3,0 -2.4,1.1 -2.4,2.4 v 20 c 0,0.2 0.1,0.3 0.3,0.3 h 4 c 0.2,0 0.3,-0.1 0.3,-0.3 v -22.1 c 0.2,-0.2 0,-0.3 -0.2,-0.3 z" />
						<path
   id="Path_676"
   class="st1"
   d="m 948.3,7987.3 c -0.1,-0.2 -0.2,-0.5 -0.3,-0.8 -0.1,-0.3 -0.1,-0.6 -0.1,-1 0,-0.4 0.1,-0.8 0.2,-1.2 0.1,-0.4 0.4,-0.8 0.7,-1.1 0.3,-0.3 0.7,-0.6 1.1,-0.8 0.5,-0.2 1.1,-0.3 1.7,-0.3 0.6,0 1.3,0.1 1.9,0.4 0.5,0.2 0.9,0.5 1.2,1 0.1,0.1 0.1,0.2 0,0.3 l -1,1 c -0.1,0.1 -0.2,0.1 -0.3,0 -0.4,-0.5 -0.9,-0.8 -1.5,-0.8 -0.4,0 -0.8,0.1 -1,0.4 -0.3,0.3 -0.4,0.7 -0.4,1.1 0,0.4 0.1,0.7 0.3,1 0.2,0.3 0.4,0.5 0.7,0.7 h 3.3 c 0.1,0 0.2,0.1 0.2,0.2 v 1.5 c 0,0.1 -0.1,0.2 -0.2,0.2 h -7.4 c -0.1,0 -0.2,-0.1 -0.2,-0.2 v -0.3 c -0.1,-0.7 0.4,-1.3 1.1,-1.4 -0.2,0.1 -0.1,0.1 0,0.1 z" />
					</g>
				</g>
			</g>
		</g>
		<path
   id="Path_677"
   class="st1"
   d="m 885.6,8031.1 h -5.5 c -2,-0.2 -3.9,1.2 -4.3,3.2 l -6.3,22 -7.1,-24.8 c -0.1,-0.3 -0.3,-0.5 -0.6,-0.5 h -8.9 c -0.4,0 -0.7,0.3 -0.7,0.7 0,0.1 0,0.1 0,0.2 l 12.2,34.7 c 0.6,1.9 0.4,3.2 -0.6,4.1 -1.2,0.9 -2.7,1.4 -4.2,1.3 h -1.9 c -0.4,0 -0.7,0.3 -0.7,0.7 v 0 6.3 c 0,0.4 0.3,0.7 0.7,0.7 h 3.2 c 2.7,0.2 5.5,-0.3 7.9,-1.6 1.9,-1.7 3.3,-3.9 4,-6.3 l 13.4,-39.8 c 0.1,-0.4 -0.1,-0.7 -0.4,-0.9 -0.1,0 -0.2,-0.1 -0.2,0 z" />
		<path
   id="Path_678"
   class="st1"
   d="m 984.6,8035.1 c -3.3,-3.4 -7.8,-5.1 -12.5,-4.8 -4.5,-0.2 -8.9,1.6 -11.9,5 -3,3.8 -4.5,8.6 -4.2,13.4 -0.3,5 1.2,9.9 4.3,13.8 3,3.4 7.4,5.2 12,5 3.7,0.1 7.4,-0.9 10.5,-3.1 2.6,-1.9 4.5,-4.6 5.4,-7.7 0.1,-0.4 -0.1,-0.7 -0.5,-0.8 -0.1,0 -0.1,0 -0.2,0 h -5.8 c -0.7,0 -1.5,0.1 -2.1,0.5 -0.1,0 -0.1,0.1 -0.2,0.1 0,0 -0.1,0.1 -0.1,0.1 h -0.1 l -0.1,0.1 -0.2,0.2 -0.1,0.1 -0.2,0.2 v 0 0 c -0.5,0.6 -1.1,1.2 -1.8,1.6 v 0 c -0.2,0.1 -0.4,0.2 -0.6,0.3 v 0 c -0.7,0.3 -1.4,0.5 -2.2,0.5 v 0 c -0.3,0 -0.7,0 -1,0 -0.3,0 -0.5,0 -0.8,0 v 0 c -1.7,-0.1 -3.3,-0.8 -4.3,-2.1 -1.4,-1.8 -2.1,-3.9 -2,-6.2 h 22.9 c 0.3,0 0.5,-0.5 0.5,-0.9 v -1.5 c -0.1,-5 -1.6,-9.9 -4.7,-13.8 z m -19.1,10.2 c 0,-2 0.7,-3.9 2,-5.4 1.3,-1.3 3,-1.9 4.8,-1.9 1.9,-0.1 3.7,0.6 5,1.9 1.2,1.5 1.9,3.4 1.9,5.4 z" />
		<path
   id="Path_679"
   class="st1"
   d="m 830.3,8028.6 c 0.8,-0.4 1.8,-0.6 2.7,-0.5 h 1.7 c 0.4,0 0.7,-0.3 0.7,-0.7 v 0 -6.1 c 0,-0.4 -0.3,-0.6 -0.6,-0.7 -0.1,0 -0.3,0 -0.5,0 v 0 c -0.3,0 -1.4,-0.1 -2.4,-0.1 h -1.1 c -2.8,-0.2 -5.5,0.6 -7.7,2.3 -1.8,1.9 -2.8,4.6 -2.5,7.2 v 36.1 c 0,0.4 0.3,0.7 0.7,0.7 h 7.8 c 0.4,0 0.7,-0.3 0.7,-0.7 v 0 -26.3 h 1.3 c 2.5,0 4.5,-2 4.4,-4.5 v -1.4 c 0,-0.4 -0.3,-0.7 -0.7,-0.7 h -5.1 v -2.4 c -0.2,-0.8 0,-1.6 0.6,-2.2 z" />
		<path
   id="Path_680"
   class="st1"
   d="m 1017.6,8032.8 c -3.4,-1.9 -7.4,-2.8 -11.3,-2.5 -3.7,-0.2 -7.4,0.9 -10.3,3.1 -1.9,1.5 -3.2,3.7 -3.6,6.1 -0.1,0.4 0.2,0.7 0.6,0.8 0,0 0.1,0 0.1,0 h 7.8 c 0.2,0 0.5,-0.1 0.6,-0.4 0.4,-0.8 1.1,-1.4 2,-1.6 1.1,-0.4 2.2,-0.6 3.4,-0.5 1.3,0 2.6,0.2 3.8,0.6 1.2,0.2 2.1,1.4 2.1,2.6 -0.1,1.1 -0.8,2 -1.8,2.4 h -0.1 c -0.1,0.1 -0.2,0.1 -0.3,0.1 l -0.2,0.1 c -1.1,0.4 -2.3,0.7 -3.4,0.8 -1.6,0.2 -3.3,0.4 -5,0.8 h -0.1 c -0.3,0.1 -0.7,0.1 -1,0.2 h -0.2 c -0.4,0.1 -0.8,0.2 -1.2,0.3 -1,0.3 -1.9,0.7 -2.9,1.2 l -0.2,0.1 c -0.4,0.2 -0.9,0.5 -1.3,0.8 v 0 c -0.1,0.1 -0.2,0.2 -0.4,0.2 -2.4,2 -3.6,5 -3.3,8.1 -0.3,3.3 1,6.6 3.6,8.7 2.5,1.8 5.4,2.7 8.5,2.6 1.9,0 3.7,-0.1 5.6,-0.3 2.1,-0.2 4.1,-0.8 6,-1.8 1.9,-1 3.5,-2.5 4.6,-4.4 1.4,-2.5 2.1,-5.5 1.9,-8.4 v -12.2 c -0.1,-3 -1.5,-5.9 -4,-7.5 z m -4.9,19.3 c 0.4,4.1 -2.7,7.7 -6.8,8 -0.4,0 -0.9,0 -1.3,0 -1.3,0.1 -2.5,-0.3 -3.5,-1.1 -0.8,-0.9 -1.3,-2 -1.2,-3.2 0,-0.5 0.1,-0.9 0.2,-1.3 0,-0.1 0.1,-0.2 0.1,-0.3 v 0 c 0.4,-1 1.2,-1.8 2.1,-2.3 0.6,-0.3 1.3,-0.6 2,-0.7 l 3.1,-0.7 c 1.8,-0.4 3.6,-1 5.2,-1.7 z" />
		<path
   id="Path_681"
   class="st1"
   d="m 912.5,8032.8 c -3.4,-1.9 -7.3,-2.8 -11.3,-2.5 -3.7,-0.2 -7.4,0.9 -10.3,3.1 -1.9,1.5 -3.2,3.7 -3.6,6.1 -0.1,0.4 0.2,0.7 0.6,0.8 0,0 0.1,0 0.1,0 h 7.8 c 0.2,0 0.5,-0.1 0.6,-0.4 0.4,-0.8 1.1,-1.4 2,-1.6 1.1,-0.4 2.2,-0.6 3.4,-0.5 1.3,0 2.6,0.2 3.8,0.6 1.2,0.2 2.1,1.4 2.1,2.6 -0.1,1.1 -0.8,2 -1.8,2.4 h -0.1 c -0.1,0.1 -0.2,0.1 -0.3,0.1 l -0.2,0.1 c -1.1,0.4 -2.3,0.7 -3.4,0.8 -1.6,0.2 -3.3,0.4 -5,0.8 h -0.1 c -0.4,0.1 -0.7,0.1 -1,0.2 h -0.2 c -0.4,0.1 -0.8,0.2 -1.2,0.3 -1,0.3 -1.9,0.7 -2.9,1.2 l -0.2,0.1 c -0.5,0.2 -0.9,0.5 -1.3,0.8 v 0 c -0.1,0.1 -0.2,0.2 -0.4,0.2 -2.4,2 -3.6,5 -3.3,8.1 -0.3,3.3 1.1,6.6 3.6,8.7 2.5,1.8 5.4,2.7 8.5,2.6 1.9,0 3.7,-0.1 5.6,-0.3 2.1,-0.2 4.1,-0.8 6,-1.8 1.9,-1 3.5,-2.5 4.6,-4.4 1.4,-2.5 2.1,-5.5 1.9,-8.4 v -12.2 c 0,-3 -1.5,-5.9 -4,-7.5 z m -4.9,19.3 c 0.4,4.1 -2.7,7.7 -6.8,8 -0.4,0 -0.9,0 -1.3,0 -1.3,0.1 -2.5,-0.3 -3.5,-1.1 -0.8,-0.9 -1.3,-2 -1.2,-3.2 0,-0.5 0.1,-0.9 0.2,-1.3 0,-0.1 0.1,-0.2 0.1,-0.3 v 0 c 0.4,-1 1.2,-1.8 2.1,-2.3 0.6,-0.3 1.3,-0.6 2,-0.7 l 3.1,-0.7 c 1.8,-0.4 3.6,-1 5.2,-1.7 z" />
	</g>
</g>
</svg>
