<?xml version="1.0" encoding="UTF-8"?>
<svg version="1.1" viewBox="0 0 364.11 150.77" xmlns="http://www.w3.org/2000/svg">
	<g fill="#59358c">
		<path d="m90.42 12.59v99.82c0 7.14-4.1 10.86-12.67 10.86-10.25 0-14.01-3.73-14.01-12.54v-99.84c0-6.11 4.11-10.85 10.26-10.85h5.49c7.17 0 10.93 4.07 10.93 12.55"/>
		<path d="m317.77 81.9h34.93c8.06 0 11.41-2.01 11.41-9.67 0-6.67-4.69-38.87-41.3-38.87-21.83 0-42.66 12.54-42.66 46.53 0 28.33 18.48 43.33 42.98 43.33 25.19 0 37.27-15.45 37.27-20.78 0-4.01-6.05-8.67-11.4-8.67-8.74 0-11.09 12.12-25.53 12.12-8.73 0-17.46-8-17.46-15.33 0.01-5.66 4.03-8.66 11.76-8.66m-3.98-29.31c1.62-0.86 3.1-1.41 4.37-1.77 2.88-0.81 6.87-0.84 10.14 0.17 1.16 0.36 2.45 0.87 3.84 1.6 7.01 3.7 6.39 8.29 6.39 8.29 0 4.37-3.53 6.31-7.25 7.14-4.11 0.92-10.66 0.72-13.43 0.5-4.52-0.37-10.47-1.93-10.46-7.64 0.01 0-0.6-4.59 6.4-8.29"/>
		<path d="m229.19 106.81c10.57 0 19.84-8.52 19.84-26.24 0-16.72-5.96-29.51-19.18-29.51-10.23 0-19.83 8.21-19.83 27.22 0 19.02 7.93 28.53 19.17 28.53m-42.75-96.19c0-6.11 2.72-10.52 8.55-10.52h7.28c4.79 0 8.55 3.39 8.55 10.52v16.12c0 4.76 2.4 9.25 7.18 9.25 5.46 0 8.43-2.8 18-2.8 21.19 0 36.59 14.93 36.59 42.39 0 31.9-16.42 47.5-37.61 47.5-12.64 0-13.33-3.95-21.53-3.95-8.21 0-7.53 3.74-15.38 3.74-8.9 0-11.62-3.17-11.62-14.03v-98.22z"/>
		<path d="m39.66 61.08v50.11c0 7.8-3.75 11.87-12.65 11.87-9.22 0-13.33-3.05-13.33-11.87v-48.42c0.4-9.95-3.08-11.37-7.88-13.64-3.99-1.88-5.29-4.18-5.65-6.64-0.56-3.87 0.56-5.84 1.56-6.95 1.71-1.9 4.34-3.23 6.05-4.31 5.74-3.62 4.89-6.46 7.62-15.95 1.36-5.09 6.84-15.28 21.89-15.28h6.5c6.83 0 11.97 4.06 11.97 8.82 0 3.74 1.37 10.02-5.14 10.86-5.44 0.7-8.42 2.64-8.22 6.73 0.13 2.71 2.05 4 7.18 6.38 3.75 1.69 6.16 3.78 6.21 8.06 0.1 8.63-9.13 8.68-11.94 10.6-3.06 2.1-4.17 4.89-4.17 9.63"/>
		<path d="m165.14 33.36c-5.92 0.07-7.86 2.17-9.69 7.48l-12.26 41.08c-0.8 2.32-2.66 3.94-4.83 3.94-2.29 0-4.23-1.81-4.96-4.33l-10.71-38.04c-0.03-0.08-0.06-0.16-0.08-0.25l-0.54-2.1c-1.17-5.59-5.5-7.79-8.49-7.78h-7.44c-8.25 0.27-7.97 8.39-7.08 11.57l8.78 26.71c0.06 0.22 0.13 0.43 0.2 0.63l15.33 48.14c1.91 4.96-3.02 10.38-9.52 11.71-6.15 1.37-9.9 4.08-9.9 9.52 0 5.75 3.75 9.13 9.23 9.13h11.91c9.92 0 17.51-4.11 24.35-25.15l27.04-74.47c5.88-15.02-2.11-17.58-4.13-17.77-1.25-0.1-5.36-0.04-7.21-0.02"/>
	</g>
</svg>
