<?xml version="1.0" encoding="UTF-8" standalone="no"?>
<!-- Generator: Adobe Illustrator 25.0.1, SVG Export Plug-In . SVG Version: 6.00 Build 0)  -->

<svg
   xmlns:dc="http://purl.org/dc/elements/1.1/"
   xmlns:cc="http://creativecommons.org/ns#"
   xmlns:rdf="http://www.w3.org/1999/02/22-rdf-syntax-ns#"
   xmlns:svg="http://www.w3.org/2000/svg"
   xmlns="http://www.w3.org/2000/svg"
   xmlns:sodipodi="http://sodipodi.sourceforge.net/DTD/sodipodi-0.dtd"
   xmlns:inkscape="http://www.inkscape.org/namespaces/inkscape"
   version="1.1"
   id="Layer_1"
   x="0px"
   y="0px"
   viewBox="0 0 100 143"
   xml:space="preserve"
   inkscape:version="0.48.1 "
   width="100%"
   height="100%"
   sodipodi:docname="flybondi monogram.svg"><metadata
   id="metadata3125"><rdf:RDF><cc:Work
       rdf:about=""><dc:format>image/svg+xml</dc:format><dc:type
         rdf:resource="http://purl.org/dc/dcmitype/StillImage" /><dc:title /></cc:Work></rdf:RDF></metadata><defs
   id="defs3123">
	
	

		
	
			
			
			
			
			
			
			
			
			
		</defs><sodipodi:namedview
   pagecolor="#ffffff"
   bordercolor="#666666"
   borderopacity="1"
   objecttolerance="10"
   gridtolerance="10"
   guidetolerance="10"
   inkscape:pageopacity="0"
   inkscape:pageshadow="2"
   inkscape:window-width="1280"
   inkscape:window-height="657"
   id="namedview3121"
   showgrid="false"
   inkscape:zoom="2.5909611"
   inkscape:cx="62.305212"
   inkscape:cy="64.591642"
   inkscape:window-x="-8"
   inkscape:window-y="-8"
   inkscape:window-maximized="1"
   inkscape:current-layer="Layer_1" />
<style
   type="text/css"
   id="style3057">
	.st0{fill:#FDBE12;}
</style>
<g
   id="g3224"
   transform="matrix(3.6105962,0,0,3.6105962,-194.59938,-2.5267635)"><path
     class="st0"
     d="m 67.757406,12.749052 c -3.033023,0 -5.741079,0.9749 -8.015846,2.708056 V 1.05025 h -5.416112 v 25.13076 c 0,2.058122 0.541611,4.116245 1.299867,5.849401 1.191545,0.216644 2.708056,0.433289 3.357989,0.541611 0.108323,0 0.216645,0 0.216645,0 0.866578,-0.649934 3.141345,-2.166445 4.007923,-2.924701 0,0 0,0 0,-0.108322 -0.216645,-0.108322 -1.733156,-1.083222 -4.441212,-2.599734 -0.541611,-0.324966 -0.649933,-0.324966 -0.108322,-0.758255 0.324966,-0.216645 0.649933,-0.541612 0.866578,-0.758256 0.324966,-0.324967 0.649933,-0.433289 1.083222,-0.433289 1.408189,0 5.199468,1.299867 6.715979,1.299867 0.216644,0 0.433289,-0.108322 0.541611,-0.216645 1.083223,-0.649933 3.466312,-2.058122 4.657856,-2.599733 0.974901,-0.541612 3.574634,-1.841478 4.549535,-0.433289 0.324966,0.433289 0.9749,1.408189 -1.841479,3.466311 -1.083222,0.866578 -12.782024,7.582557 -16.573302,9.749002 2.383089,2.166445 5.524434,3.466312 9.099068,3.466312 7.474234,0 13.431958,-6.066046 13.431958,-13.431958 0,-7.365912 -6.066046,-13.54028 -13.431958,-13.54028 z"
     id="path3081"
     inkscape:connector-curvature="0"
     style="fill:#fdbe12" /></g>
</svg>