<?xml version="1.0" encoding="utf-8"?>
<!-- Generator: Adobe Illustrator 25.0.1, SVG Export Plug-In . SVG Version: 6.00 Build 0)  -->
<svg version="1.1" id="Layer_1" xmlns="http://www.w3.org/2000/svg" xmlns:xlink="http://www.w3.org/1999/xlink" x="0px" y="0px"
	 viewBox="0 0 178.4 66.7" style="enable-background:new 0 0 178.4 66.7;" xml:space="preserve">
<style type="text/css">
	.st0{fill:#FDBE12;}
</style>
<g>
	<g>
		<g>
			<path class="st0" d="M96.6,23.7c-6.9,0-12.4,5.6-12.4,12.4s5.6,12.4,12.4,12.4c6.9,0,12.4-5.6,12.4-12.4S103.5,23.7,96.6,23.7z
				 M96.6,43.6c-4.1,0-7.4-3.3-7.4-7.4s3.3-7.4,7.4-7.4c4.1,0,7.4,3.3,7.4,7.4S100.7,43.6,96.6,43.6z"/>
			<path class="st0" d="M156.1,12.9v13.3c-2.1-1.5-4.6-2.5-7.4-2.5c-6.9,0-12.4,5.6-12.4,12.4s5.6,12.4,12.4,12.4
				c6.9,0,12.4-5.6,12.4-12.4V12.9H156.1z M148.7,43.6c-4.1,0-7.4-3.3-7.4-7.4s3.3-7.4,7.4-7.4c4.1,0,7.4,3.3,7.4,7.4
				S152.7,43.6,148.7,43.6z"/>
			<rect x="165.1" y="24.3" class="st0" width="5" height="23.2"/>
			<rect x="24.3" y="12.9" class="st0" width="5" height="34.6"/>
			<circle class="st0" cx="167.7" cy="18.9" r="2.7"/>
			<path class="st0" d="M122.8,23.7c-6.5,0-11.8,5.3-11.8,11.9v11.9h5v-2.2v-9.7c0-3.9,2.9-6.9,6.7-6.9c3.9,0,6.7,3,6.7,6.9v9.7v2.2
				h5V35.6C134.6,29.1,129.3,23.7,122.8,23.7z"/>
			<path class="st0" d="M17.2,18h3.7v-5h-1.2h-1h-1.4c-5.3,0-9.6,4.3-9.6,9.6v25.1h5V32.8h5.1v-5h-5.1v-5.3C12.7,20,14.7,18,17.2,18
				z"/>
			<polygon class="st0" points="49.1,24.6 43.4,38.6 37.7,24.3 32.2,24.3 40.6,45.4 35.7,57.3 41.2,57.3 54.6,24.6 			"/>
			<path class="st0" d="M69.3,23.7c-2.8,0-5.3,0.9-7.4,2.5V12.9h-5v23.2c0,1.9,0.5,3.8,1.2,5.4c1.1,0.2,2.5,0.4,3.1,0.5
				c0.1,0,0.2,0,0.2,0c0.8-0.6,2.9-2,3.7-2.7c0,0,0,0,0-0.1c-0.2-0.1-1.6-1-4.1-2.4c-0.5-0.3-0.6-0.3-0.1-0.7
				c0.3-0.2,0.6-0.5,0.8-0.7c0.3-0.3,0.6-0.4,1-0.4c1.3,0,4.8,1.2,6.2,1.2c0.2,0,0.4-0.1,0.5-0.2c1-0.6,3.2-1.9,4.3-2.4
				c0.9-0.5,3.3-1.7,4.2-0.4c0.3,0.4,0.9,1.3-1.7,3.2c-1,0.8-11.8,7-15.3,9c2.2,2,5.1,3.2,8.4,3.2c6.9,0,12.4-5.6,12.4-12.4
				S76.1,23.7,69.3,23.7z"/>
		</g>
	</g>
	<g>
		<path d="M84.2,53.2h1.2v5.1h1.9v0.9h-3.2V53.2z"/>
		<path d="M88.5,58.6c-0.4-0.5-0.6-1.1-0.6-1.8s0.2-1.3,0.6-1.8c0.4-0.5,1-0.7,1.6-0.7c0.7,0,1.2,0.3,1.5,0.8v-0.7h1.2v4.8h-1.2
			v-0.8c-0.4,0.6-0.9,0.9-1.5,0.9C89.4,59.3,88.9,59,88.5,58.6z M91.2,57.8c0.3-0.3,0.4-0.6,0.4-1c0-0.4-0.1-0.8-0.4-1
			c-0.3-0.3-0.6-0.4-0.9-0.4c-0.3,0-0.6,0.1-0.9,0.4s-0.4,0.6-0.4,1c0,0.4,0.1,0.8,0.4,1c0.3,0.3,0.6,0.4,0.9,0.4
			C90.7,58.2,91,58.1,91.2,57.8z"/>
		<path d="M96.7,59.2v-6.4h1.2v6.4H96.7z"/>
		<path d="M99.2,59.2v-4.4h1.2v4.4H99.2z"/>
		<path d="M103,55.1c0.3-0.5,0.8-0.8,1.5-0.8c0.7,0,1.2,0.2,1.6,0.7c0.4,0.5,0.6,1.1,0.6,1.8s-0.2,1.3-0.6,1.8
			c-0.4,0.5-1,0.7-1.6,0.7s-1.2-0.3-1.5-0.9v0.8h-1.2v-6.4h1.2V55.1z M105.1,57.8c0.3-0.3,0.4-0.6,0.4-1c0-0.4-0.1-0.8-0.4-1
			c-0.3-0.2-0.5-0.4-0.9-0.4c-0.3,0-0.6,0.1-0.9,0.4c-0.3,0.3-0.4,0.6-0.4,1c0,0.4,0.1,0.8,0.4,1c0.3,0.3,0.5,0.4,0.9,0.4
			C104.6,58.2,104.9,58.1,105.1,57.8z"/>
		<path d="M109.8,59.3c-0.7,0-1.3-0.2-1.7-0.7c-0.4-0.5-0.7-1.1-0.7-1.8c0-0.7,0.2-1.3,0.7-1.8c0.4-0.4,1-0.7,1.7-0.7
			c0.7,0,1.3,0.2,1.7,0.7c0.5,0.4,0.7,1,0.7,1.7c0,0.2,0,0.3,0,0.5h-3.5c0,0.3,0.1,0.6,0.3,0.8c0.2,0.2,0.5,0.3,0.8,0.3
			c0.4,0,0.7-0.2,0.9-0.5h1.3c-0.1,0.5-0.4,0.8-0.8,1.1C110.8,59.1,110.3,59.3,109.8,59.3z M110.6,55.6c-0.2-0.2-0.5-0.3-0.8-0.3
			s-0.6,0.1-0.8,0.3c-0.2,0.2-0.3,0.4-0.4,0.8h2.3C110.9,56.1,110.8,55.8,110.6,55.6z"/>
		<path d="M114.4,54.4v0.9c0.3-0.6,0.8-0.9,1.4-0.9v1.2h-0.3c-0.4,0-0.6,0.1-0.8,0.3c-0.2,0.2-0.3,0.5-0.3,0.9v2.4h-1.2v-4.8H114.4z
			"/>
		<path d="M120.3,58.6c-0.4-0.5-0.6-1.1-0.6-1.8s0.2-1.3,0.6-1.8c0.4-0.5,1-0.7,1.6-0.7c0.7,0,1.2,0.3,1.5,0.8v-0.7h1.2v4.8h-1.2
			v-0.8c-0.4,0.6-0.9,0.9-1.5,0.9C121.3,59.3,120.8,59,120.3,58.6z M123.1,57.8c0.3-0.3,0.4-0.6,0.4-1c0-0.4-0.1-0.8-0.4-1
			c-0.3-0.3-0.6-0.4-0.9-0.4c-0.3,0-0.6,0.1-0.9,0.4c-0.3,0.2-0.4,0.6-0.4,1c0,0.4,0.1,0.8,0.4,1c0.3,0.3,0.6,0.4,0.9,0.4
			C122.5,58.2,122.8,58.1,123.1,57.8z"/>
		<path d="M126.3,58.6c-0.4-0.5-0.6-1.1-0.6-1.8s0.2-1.3,0.6-1.8c0.4-0.5,1-0.7,1.6-0.7c0.7,0,1.2,0.3,1.5,0.8v-2.4h1.2v6.4h-1.2
			v-0.8c-0.4,0.6-0.9,0.9-1.5,0.9S126.7,59,126.3,58.6z M129,57.8c0.3-0.3,0.4-0.6,0.4-1c0-0.4-0.1-0.8-0.4-1
			c-0.3-0.3-0.6-0.4-0.9-0.4c-0.3,0-0.6,0.1-0.9,0.4s-0.4,0.6-0.4,1c0,0.4,0.1,0.8,0.4,1c0.3,0.3,0.6,0.4,0.9,0.4
			C128.5,58.2,128.8,58.1,129,57.8z"/>
		<path d="M134.8,58.6c-0.4-0.5-0.6-1.1-0.6-1.8s0.2-1.3,0.6-1.8c0.4-0.5,1-0.7,1.6-0.7c0.7,0,1.2,0.3,1.5,0.8v-2.4h1.2v6.4H138
			v-0.8c-0.4,0.6-0.9,0.9-1.5,0.9C135.8,59.3,135.3,59,134.8,58.6z M137.6,57.8c0.3-0.3,0.4-0.6,0.4-1c0-0.4-0.1-0.8-0.4-1
			c-0.3-0.3-0.6-0.4-0.9-0.4s-0.6,0.1-0.9,0.4s-0.4,0.6-0.4,1c0,0.4,0.1,0.8,0.4,1c0.3,0.3,0.6,0.4,0.9,0.4
			C137.1,58.2,137.3,58.1,137.6,57.8z"/>
		<path d="M142.5,59.3c-0.7,0-1.3-0.2-1.7-0.7c-0.4-0.5-0.7-1.1-0.7-1.8c0-0.7,0.2-1.3,0.7-1.8c0.4-0.4,1-0.7,1.7-0.7
			c0.7,0,1.3,0.2,1.7,0.7c0.5,0.4,0.7,1,0.7,1.7c0,0.2,0,0.3,0,0.5h-3.5c0,0.3,0.1,0.6,0.3,0.8c0.2,0.2,0.5,0.3,0.8,0.3
			c0.4,0,0.7-0.2,0.9-0.5h1.3c-0.1,0.5-0.4,0.8-0.8,1.1C143.6,59.1,143.1,59.3,142.5,59.3z M143.3,55.6c-0.2-0.2-0.5-0.3-0.8-0.3
			s-0.6,0.1-0.8,0.3c-0.2,0.2-0.3,0.4-0.4,0.8h2.3C143.7,56.1,143.5,55.8,143.3,55.6z"/>
		<path d="M147.9,54.4h1.3l1.2,3.8l1.2-3.8h1.3l-1.8,4.8h-1.5L147.9,54.4z"/>
		<path d="M154.1,58.6c-0.5-0.5-0.7-1.1-0.7-1.8s0.2-1.3,0.7-1.8c0.5-0.5,1.1-0.7,1.8-0.7c0.7,0,1.3,0.2,1.8,0.7
			c0.5,0.5,0.7,1,0.7,1.8s-0.2,1.3-0.7,1.8c-0.5,0.5-1.1,0.7-1.8,0.7S154.5,59,154.1,58.6z M155.8,58.2c0.3,0,0.6-0.1,0.9-0.4
			c0.2-0.3,0.4-0.6,0.4-1.1s-0.1-0.8-0.4-1.1c-0.2-0.2-0.5-0.4-0.9-0.4c-0.3,0-0.6,0.1-0.9,0.4s-0.4,0.6-0.4,1.1
			c0,0.5,0.1,0.8,0.4,1.1S155.5,58.2,155.8,58.2z"/>
		<path d="M159.3,59.2v-6.4h1.2v6.4H159.3z"/>
		<path d="M162.1,58.6c-0.4-0.5-0.6-1.1-0.6-1.8s0.2-1.3,0.6-1.8c0.4-0.5,1-0.7,1.6-0.7c0.7,0,1.2,0.3,1.5,0.8v-0.7h1.2v4.8h-1.2
			v-0.8c-0.4,0.6-0.9,0.9-1.5,0.9C163.1,59.3,162.6,59,162.1,58.6z M164.9,57.8c0.3-0.3,0.4-0.6,0.4-1c0-0.4-0.1-0.8-0.4-1
			c-0.3-0.3-0.6-0.4-0.9-0.4s-0.6,0.1-0.9,0.4c-0.3,0.2-0.4,0.6-0.4,1c0,0.4,0.1,0.8,0.4,1c0.3,0.3,0.6,0.4,0.9,0.4
			C164.3,58.2,164.6,58.1,164.9,57.8z"/>
		<path d="M169,54.4v0.9c0.3-0.6,0.8-0.9,1.4-0.9v1.2h-0.3c-0.4,0-0.6,0.1-0.8,0.3c-0.2,0.2-0.3,0.5-0.3,0.9v2.4h-1.2v-4.8H169z"/>
		<polygon points="118,54.4 118,53.2 116.8,53.2 116.8,54.4 116.3,54.4 116.3,55.4 116.8,55.4 116.8,56 116.8,57.7 116.8,59.2 
			118,59.2 118,59.2 118,57.7 118,56 118,55.4 119.1,55.4 119.1,54.4 		"/>
		<rect x="99.2" y="52.8" width="1.2" height="1.2"/>
	</g>
</g>
</svg>
