<?xml version="1.0" standalone="no"?>
<!DOCTYPE svg PUBLIC "-//W3C//DTD SVG 20010904//EN"
 "http://www.w3.org/TR/2001/REC-SVG-20010904/DTD/svg10.dtd">
<svg version="1.0" xmlns="http://www.w3.org/2000/svg"
 width="199.000000pt" height="64.000000pt" viewBox="0 0 199.000000 64.000000"
 preserveAspectRatio="xMidYMid meet">

<g transform="translate(0.000000,64.000000) scale(0.100000,-0.100000)"
fill="#000000" stroke="none">
<path d="M3 635 c4 -5 26 -10 50 -12 164 -14 286 -135 303 -300 12 -114 -40
-224 -140 -290 l-48 -33 266 0 c242 0 289 4 257 24 -5 3 -64 77 -132 163 -290
373 -298 382 -378 420 -50 24 -196 47 -178 28z"/>
<path d="M14 584 c3 -9 6 -22 6 -30 0 -21 28 -17 40 5 16 32 12 41 -21 41 -24
0 -30 -3 -25 -16z"/>
<path d="M90 566 c0 -13 7 -29 15 -36 12 -10 16 -8 25 15 12 32 6 45 -21 45
-13 0 -19 -7 -19 -24z"/>
<path d="M151 538 c-14 -39 -8 -45 24 -24 30 20 32 32 6 46 -16 8 -21 5 -30
-22z"/>
<path d="M53 523 c-7 -2 -13 -13 -13 -24 0 -26 23 -109 30 -109 3 0 13 22 22
49 14 44 14 52 1 70 -15 22 -19 23 -40 14z"/>
<path d="M212 518 c-12 -12 -17 -58 -7 -58 3 0 16 9 27 20 20 18 20 22 7 35
-12 12 -17 13 -27 3z"/>
<path d="M113 425 c-12 -30 -18 -57 -14 -59 4 -3 24 10 44 29 45 41 52 85 13
85 -19 0 -27 -10 -43 -55z"/>
<path d="M243 461 c-29 -24 -29 -31 1 -31 44 0 57 9 43 31 -14 23 -16 23 -44
0z"/>
<path d="M900 400 c0 -40 4 -70 10 -70 6 0 10 30 10 70 0 40 -4 70 -10 70 -6
0 -10 -30 -10 -70z"/>
<path d="M1669 423 c-3 -112 7 -139 39 -109 16 13 37 16 112 15 80 -1 95 1
107 17 7 10 13 24 13 32 0 23 -20 52 -36 52 -10 0 -14 6 -10 15 3 8 1 15 -4
15 -6 0 -10 -7 -10 -15 0 -8 -7 -15 -15 -15 -19 0 -38 -37 -32 -61 5 -17 -1
-19 -54 -19 l-59 0 0 54 c0 30 -4 58 -10 61 -6 4 -10 -20 -10 -64 0 -39 -4
-71 -8 -71 -4 0 -7 29 -5 64 2 36 -1 67 -7 71 -6 4 -10 -12 -11 -42z m244 -25
c15 -23 1 -48 -27 -48 -33 0 -46 38 -20 57 21 15 34 13 47 -9z"/>
<path d="M1126 440 c-13 -13 -17 -29 -14 -54 l4 -36 -48 0 c-45 0 -48 2 -48
25 0 25 -31 65 -50 65 -17 0 -11 -19 10 -30 12 -6 20 -21 20 -35 0 -18 -5 -25
-20 -25 -11 0 -20 -4 -20 -10 0 -6 70 -10 190 -10 l190 0 0 56 c0 34 -4 53
-10 49 -5 -3 -10 -24 -10 -46 l0 -39 -69 0 -70 0 6 34 c4 26 1 36 -16 48 -11
8 -18 18 -14 21 3 4 2 7 -3 6 -5 0 -17 -9 -28 -19z m35 -33 c-1 -4 -1 -16 -1
-27 0 -23 -18 -27 -26 -5 -8 20 3 48 17 43 6 -2 10 -7 10 -11z"/>
<path d="M800 432 c0 -5 7 -15 15 -22 8 -7 15 -23 15 -36 0 -15 -6 -24 -15
-24 -8 0 -15 -5 -15 -11 0 -18 45 -5 48 14 6 31 -7 66 -28 77 -11 6 -20 7 -20
2z"/>
<path d="M1500 387 c0 -23 7 -53 16 -65 20 -29 69 -30 84 -2 12 23 6 40 -16
40 -8 0 -14 10 -14 25 0 14 5 25 10 25 6 0 10 -9 10 -20 0 -11 5 -20 11 -20 6
0 9 12 7 28 -2 21 -8 27 -28 27 -22 0 -25 -5 -28 -38 -3 -32 0 -39 17 -44 27
-7 17 -23 -14 -23 -27 0 -35 17 -35 71 0 21 -4 39 -10 39 -5 0 -10 -19 -10
-43z"/>
<path d="M283 409 c-13 -5 -23 -16 -23 -25 0 -13 6 -15 27 -9 35 8 37 10 26
28 -6 10 -14 12 -30 6z"/>
<path d="M155 370 l-38 -39 53 14 c52 14 70 27 70 53 0 26 -47 11 -85 -28z"/>
<path d="M287 353 c-26 -7 -15 -27 16 -31 22 -3 27 1 27 17 0 21 -8 23 -43 14z"/>
<path d="M175 322 l-50 -15 40 -13 c54 -17 80 -17 94 0 8 10 8 16 -1 23 -25
19 -34 20 -83 5z"/>
<path d="M1320 310 c0 -5 5 -10 10 -10 6 0 10 5 10 10 0 6 -4 10 -10 10 -5 0
-10 -4 -10 -10z"/>
<path d="M1450 310 c0 -5 9 -10 20 -10 11 0 20 5 20 10 0 6 -9 10 -20 10 -11
0 -20 -4 -20 -10z"/>
<path d="M277 283 c-13 -12 -7 -21 20 -27 24 -7 42 5 43 27 0 9 -54 9 -63 0z"/>
<path d="M130 274 c1 -5 18 -28 40 -52 33 -37 42 -42 59 -33 33 18 9 65 -37
74 -15 3 -35 9 -44 12 -10 4 -18 3 -18 -1z"/>
<path d="M110 228 c0 -7 6 -35 13 -63 11 -43 17 -50 38 -50 37 0 37 37 -1 85
-32 40 -50 50 -50 28z"/>
<path d="M267 220 c6 -22 36 -43 47 -33 14 14 5 41 -16 47 -34 9 -37 8 -31
-14z"/>
<path d="M794 207 c-4 -10 -1 -70 5 -120 3 -21 21 8 21 32 0 21 6 31 23 36
l22 8 -22 4 c-28 5 -30 33 -3 33 11 0 20 5 20 10 0 15 -60 12 -66 -3z"/>
<path d="M880 155 c0 -37 4 -65 10 -65 6 0 10 28 10 65 0 37 -4 65 -10 65 -6
0 -10 -28 -10 -65z"/>
<path d="M1017 214 c-10 -11 -9 -122 2 -128 14 -9 61 11 67 29 4 8 3 23 -1 33
-4 9 -8 28 -9 42 -1 19 -7 26 -26 28 -14 2 -29 0 -33 -4z m43 -24 c0 -5 -4
-10 -10 -10 -5 0 -10 5 -10 10 0 6 5 10 10 10 6 0 10 -4 10 -10z m8 -57 c-5
-25 -28 -28 -28 -4 0 12 6 21 16 21 9 0 14 -7 12 -17z"/>
<path d="M1300 149 c0 -44 4 -68 10 -64 6 3 10 24 10 46 0 56 23 46 31 -12 3
-31 7 -39 13 -27 14 31 3 82 -21 93 -13 5 -23 15 -23 22 0 7 -4 13 -10 13 -6
0 -10 -30 -10 -71z"/>
<path d="M1440 207 c0 -7 -10 -17 -22 -22 -16 -7 -24 -20 -26 -44 -4 -39 5
-51 42 -55 26 -3 26 -3 26 65 0 39 -4 69 -10 69 -5 0 -10 -6 -10 -13z m-2 -69
c-3 -34 -20 -42 -26 -13 -5 22 5 45 18 45 7 0 10 -14 8 -32z"/>
<path d="M1630 205 c0 -8 -9 -15 -20 -15 -36 0 -50 -80 -18 -101 5 -3 20 -4
34 -1 22 4 24 8 24 68 0 36 -4 64 -10 64 -5 0 -10 -7 -10 -15z m-2 -68 c2 -19
-1 -27 -13 -27 -19 0 -30 24 -21 46 9 23 31 11 34 -19z"/>
<path d="M1900 206 c0 -8 -6 -17 -12 -20 -10 -5 -10 -7 0 -12 6 -3 12 -23 12
-44 0 -25 5 -40 16 -44 22 -9 24 -8 24 9 0 8 -4 15 -10 15 -15 0 -12 57 3 64
10 5 10 7 0 12 -7 3 -13 12 -13 20 0 8 -4 14 -10 14 -5 0 -10 -6 -10 -14z"/>
<path d="M920 155 c0 -19 4 -43 9 -53 5 -9 13 -26 17 -37 7 -18 8 -17 11 7 3
14 11 32 19 38 15 14 20 80 5 80 -6 0 -11 -14 -13 -32 -4 -46 -28 -49 -28 -4
0 20 -4 36 -10 36 -5 0 -10 -16 -10 -35z"/>
<path d="M1115 181 c-3 -7 2 -11 14 -11 12 0 21 -4 21 -10 0 -5 -6 -10 -14
-10 -20 0 -37 -25 -30 -44 4 -10 18 -16 36 -16 29 0 29 1 26 48 -3 39 -6 47
-25 50 -11 2 -24 -2 -28 -7z m35 -61 c0 -5 -7 -10 -16 -10 -8 0 -12 5 -9 10 3
6 10 10 16 10 5 0 9 -4 9 -10z"/>
<path d="M1207 183 c-4 -3 -7 -23 -7 -44 0 -36 19 -57 41 -43 5 3 9 -2 9 -11
0 -13 -6 -16 -26 -11 -19 5 -25 3 -22 -6 6 -18 49 -23 59 -6 5 7 9 39 9 71 0
56 0 57 -28 57 -16 0 -32 -3 -35 -7z m38 -43 c0 -13 -6 -25 -12 -27 -9 -3 -13
6 -13 27 0 21 4 30 13 28 6 -3 12 -15 12 -28z"/>
<path d="M1495 181 c-3 -7 2 -11 14 -11 12 0 21 -4 21 -10 0 -5 -9 -10 -19
-10 -27 0 -39 -40 -17 -56 9 -6 26 -10 37 -7 17 5 20 13 17 52 -3 38 -7 47
-25 49 -11 2 -24 -2 -28 -7z m33 -62 c-2 -6 -8 -10 -13 -10 -5 0 -11 4 -13 10
-2 6 4 11 13 11 9 0 15 -5 13 -11z"/>
<path d="M1710 133 c0 -62 16 -64 22 -3 4 49 22 44 26 -8 4 -49 22 -47 22 3 0
51 -9 65 -41 65 -29 0 -29 -1 -29 -57z"/>
<path d="M1812 178 c-20 -20 -15 -76 9 -88 15 -9 24 -8 35 1 22 18 17 30 -11
23 -15 -4 -25 -2 -25 5 0 6 12 11 26 11 22 0 25 4 22 28 -3 30 -34 42 -56 20z
m38 -18 c0 -5 -7 -10 -15 -10 -8 0 -15 5 -15 10 0 6 7 10 15 10 8 0 15 -4 15
-10z"/>
<path d="M241 171 c-12 -8 -10 -14 7 -35 l20 -27 16 23 c15 21 15 24 -1 35
-20 15 -24 16 -42 4z"/>
<path d="M208 122 c-3 -11 0 -29 7 -41 10 -20 13 -21 24 -7 11 13 11 20 -3 41
-20 30 -22 30 -28 7z"/>
<path d="M1670 94 c0 -8 5 -12 10 -9 6 3 10 10 10 16 0 5 -4 9 -10 9 -5 0 -10
-7 -10 -16z"/>
<path d="M152 56 c10 -30 13 -33 29 -23 11 7 19 17 19 22 0 17 -22 35 -41 35
-15 0 -16 -5 -7 -34z"/>
</g>
</svg>
