<?xml version="1.0" encoding="UTF-8" standalone="no"?>
<!-- Created with Inkscape (http://www.inkscape.org/) -->
<svg
   xmlns:svg="http://www.w3.org/2000/svg"
   xmlns="http://www.w3.org/2000/svg"
   version="1.0"
   width="250"
   height="35.438442"
   id="svg2"
   xml:space="preserve"><defs
     id="defs5"><clipPath
       id="clipPath17"><path
         d="M 727.142,1024.949 L 114.858,1024.949 L 114.858,166.05 L 727.142,166.05 L 727.142,1024.949 z"
         id="path19" /></clipPath><clipPath
       id="clipPath25"><path
         d="M 0.015,1191.015 L 842.025,1191.015 L 842.025,0.015 L 0.015,0.015 L 0.015,1191.015 z"
         id="path27" /></clipPath><clipPath
       id="clipPath109"><path
         d="M 728.111,749.004 L 116.578,749.004 L 116.578,222.588 L 728.111,222.588 L 728.111,749.004 z"
         id="path111" /></clipPath><clipPath
       id="clipPath117"><path
         d="M 727.89,747.992 L 115.606,747.992 L 115.606,223.582 L 727.89,223.582 L 727.89,747.992 z"
         id="path119" /></clipPath><clipPath
       id="clipPath125"><path
         d="M 727.142,1024.949 L 114.858,1024.949 L 114.858,166.05 L 727.142,166.05 L 727.142,1024.949 z"
         id="path127" /></clipPath><clipPath
       id="clipPath133"><path
         d="M 0.015,1191.015 L 842.025,1191.015 L 842.025,0.015 L 0.015,0.015 L 0.015,1191.015 z"
         id="path135" /></clipPath><clipPath
       id="clipPath141"><path
         d="M 0.015,0.015 L 842.025,0.015 L 842.025,1191.015 L 0.015,1191.015 L 0.015,0.015 z"
         id="path143" /></clipPath><clipPath
       id="clipPath149"><path
         d="M 728.111,749.004 L 116.578,749.004 L 116.578,222.588 L 728.111,222.588 L 728.111,749.004 z"
         id="path151" /></clipPath><clipPath
       id="clipPath157"><path
         d="M 727.89,747.992 L 115.606,747.992 L 115.606,223.582 L 727.89,223.582 L 727.89,747.992 z"
         id="path159" /></clipPath><clipPath
       id="clipPath165"><path
         d="M 727.142,1024.949 L 114.858,1024.949 L 114.858,166.05 L 727.142,166.05 L 727.142,1024.949 z"
         id="path167" /></clipPath><clipPath
       id="clipPath173"><path
         d="M 0.015,1191.015 L 842.025,1191.015 L 842.025,0.015 L 0.015,0.015 L 0.015,1191.015 z"
         id="path175" /></clipPath><clipPath
       id="clipPath187"><path
         d="M 727.142,1024.949 L 114.858,1024.949 L 114.858,166.05 L 727.142,166.05 L 727.142,1024.949 z"
         id="path189" /></clipPath><clipPath
       id="clipPath195"><path
         d="M 0.015,1191.015 L 842.025,1191.015 L 842.025,0.015 L 0.015,0.015 L 0.015,1191.015 z"
         id="path197" /></clipPath><clipPath
       id="clipPath277"><path
         d="M 461.994,299.775 L 754.389,299.775 L 754.389,93.031 L 461.994,93.031 L 461.994,299.775 z"
         id="path279" /></clipPath><clipPath
       id="clipPath285"><path
         d="M 520.603,212.885 L 699.543,212.885 L 699.543,179.309 L 520.603,179.309 L 520.603,212.885 z"
         id="path287" /></clipPath><clipPath
       id="clipPath293"><path
         d="M 699.543,208.261 L 587.893,208.261 L 587.893,186.728 L 699.543,186.728 L 699.543,208.261 z"
         id="path295" /></clipPath><clipPath
       id="clipPath301"><path
         d="M 727.142,1024.949 L 114.858,1024.949 L 114.858,166.05 L 727.142,166.05 L 727.142,1024.949 z"
         id="path303" /></clipPath><clipPath
       id="clipPath309"><path
         d="M 0.015,1191.015 L 842.025,1191.015 L 842.025,0.015 L 0.015,0.015 L 0.015,1191.015 z"
         id="path311" /></clipPath><clipPath
       id="clipPath385"><path
         d="M 138.283,209.805 L 300.894,209.805 L 300.894,191.729 L 138.283,191.729 L 138.283,209.805 z"
         id="path387" /></clipPath></defs><g
     transform="matrix(1.25,0,0,-1.25,-735.57001,271.49094)"
     id="g11"><g
       transform="matrix(1.8003907,0,0,1.8003907,-470.9947,-151.14738)"
       id="g273"><g
         clip-path="url(#clipPath277)"
         id="g275"><g
           id="g281"><g
             clip-path="url(#clipPath285)"
             id="g283"><g
               id="g289"><g
                 clip-path="url(#clipPath293)"
                 id="g291"><g
                   id="g297"><g
                     clip-path="url(#clipPath301)"
                     id="g299"><g
                       id="g305"><g
                         clip-path="url(#clipPath309)"
                         id="g307"><g
                           transform="translate(589.826,199.813)"
                           id="g313"><path
                             d="M 0,0 L -1.37,0 L -1.37,0.693 L 0,0.693 L 0,1.876 C 0,2.992 0.354,4.361 2.552,4.361 C 3.076,4.361 3.364,4.277 3.617,4.226 L 3.617,3.398 C 3.262,3.516 2.958,3.702 2.502,3.702 C 1.2,3.702 0.929,2.958 0.929,1.826 L 0.929,0.693 L 3.178,0.693 L 3.178,0 L 0.929,0 L 0.929,-7.354 L 0,-7.354"
                             id="path315"
                             style="fill:#231f20;fill-opacity:1;fill-rule:nonzero;stroke:none" /></g><g
                           transform="translate(595.007,192.459)"
                           id="g317"><path
                             d="M 0,0 L 0,11.665"
                             id="path319"
                             style="fill:none;stroke:#231f20;stroke-width:0.93000001;stroke-linecap:butt;stroke-linejoin:miter;stroke-miterlimit:10;stroke-dasharray:none;stroke-opacity:1" /></g><g
                           transform="translate(600.273,192.544)"
                           id="g321"><path
                             d="M 0,0 L -3.212,7.962 L -2.215,7.962 L 0.49,1.302 L 2.738,7.962 L 3.634,7.962 L -0.22,-3.212 L -1.066,-3.212"
                             id="path323"
                             style="fill:#231f20;fill-opacity:1;fill-rule:nonzero;stroke:none" /></g><g
                           transform="translate(605.962,192.459)"
                           id="g325"><path
                             d="M 0,0 L 0,11.665"
                             id="path327"
                             style="fill:none;stroke:#231f20;stroke-width:0.93000001;stroke-linecap:butt;stroke-linejoin:miter;stroke-miterlimit:10;stroke-dasharray:none;stroke-opacity:1" /></g><g
                           transform="translate(613.019,196.28)"
                           id="g329"><path
                             d="M 0,0 C -0.778,0 -3.466,-0.017 -3.466,-1.843 C -3.466,-2.655 -2.841,-3.162 -2.063,-3.162 C -0.524,-3.162 0,-1.589 0,-0.457 L 0,0 z M 0,-2.57 L -0.034,-2.57 C -0.203,-2.958 -0.997,-4.007 -2.35,-4.007 C -3.652,-4.007 -4.496,-3.027 -4.496,-1.962 C -4.496,-0.423 -3.127,0.659 0,0.659 L 0,1.2 C 0,2.452 0,3.753 -1.64,3.753 C -2.942,3.753 -3.11,2.924 -3.145,2.265 L -4.311,2.265 C -4.192,3.144 -3.754,4.412 -1.538,4.412 C 0.642,4.412 0.929,2.992 0.929,1.64 L 0.929,-3.821 L 0,-3.821"
                             id="path331"
                             style="fill:#231f20;fill-opacity:1;fill-rule:nonzero;stroke:none" /></g><g
                           transform="translate(619.849,192.932)"
                           id="g333"><path
                             d="M 0,0 C 1.319,0 1.843,1.792 1.843,3.432 C 1.843,5.291 1.319,7.101 -0.017,7.101 C -1.404,7.101 -2.164,4.886 -2.164,3.652 C -2.164,2.401 -1.488,0 0,0 M -3.093,7.574 L -2.164,7.574 L -2.164,5.951 L -2.13,5.951 C -1.944,6.475 -1.302,7.76 0.067,7.76 C 1.977,7.76 2.873,5.918 2.873,3.467 C 2.873,1.353 2.096,-0.659 0.051,-0.659 C -1.471,-0.659 -1.978,0.626 -2.13,1.133 L -2.164,1.133 L -2.164,-4.09 L -3.093,-4.09"
                             id="path335"
                             style="fill:#231f20;fill-opacity:1;fill-rule:nonzero;stroke:none" /></g><g
                           transform="translate(627.997,192.932)"
                           id="g337"><path
                             d="M 0,0 C 1.319,0 1.842,1.792 1.842,3.432 C 1.842,5.291 1.319,7.101 -0.017,7.101 C -1.403,7.101 -2.164,4.886 -2.164,3.652 C -2.164,2.401 -1.489,0 0,0 M -3.094,7.574 L -2.164,7.574 L -2.164,5.951 L -2.13,5.951 C -1.944,6.475 -1.302,7.76 0.068,7.76 C 1.978,7.76 2.873,5.918 2.873,3.467 C 2.873,1.353 2.096,-0.659 0.05,-0.659 C -1.471,-0.659 -1.978,0.626 -2.13,1.133 L -2.164,1.133 L -2.164,-4.09 L -3.094,-4.09"
                             id="path339"
                             style="fill:#231f20;fill-opacity:1;fill-rule:nonzero;stroke:none" /></g><g
                           transform="translate(637.176,198.139)"
                           id="g341"><path
                             d="M 0,0 C 0,0.626 -0.202,1.894 -1.775,1.894 C -3.33,1.894 -3.601,0.592 -3.652,0 L 0,0 z M 0.879,-5.68 C 0.355,-5.815 -0.236,-5.866 -0.811,-5.866 C -3.431,-5.866 -4.75,-4.327 -4.75,-1.454 C -4.75,0.879 -3.905,2.553 -1.64,2.553 C -0.287,2.553 1.031,1.775 1.031,-0.659 L -3.718,-0.659 C -3.718,-4.547 -1.64,-5.173 -0.575,-5.173 C -0.084,-5.173 0.457,-5.123 0.879,-4.97"
                             id="path343"
                             style="fill:#231f20;fill-opacity:1;fill-rule:nonzero;stroke:none" /></g><g
                           transform="translate(644.462,198.139)"
                           id="g345"><path
                             d="M 0,0 C 0,0.626 -0.203,1.894 -1.775,1.894 C -3.329,1.894 -3.6,0.592 -3.651,0 L 0,0 z M 0.879,-5.68 C 0.355,-5.815 -0.236,-5.866 -0.811,-5.866 C -3.431,-5.866 -4.75,-4.327 -4.75,-1.454 C -4.75,0.879 -3.905,2.553 -1.639,2.553 C -0.287,2.553 1.032,1.775 1.032,-0.659 L -3.718,-0.659 C -3.718,-4.547 -1.639,-5.173 -0.574,-5.173 C -0.084,-5.173 0.457,-5.123 0.879,-4.97"
                             id="path347"
                             style="fill:#231f20;fill-opacity:1;fill-rule:nonzero;stroke:none" /></g><g
                           transform="translate(648.553,198.308)"
                           id="g349"><path
                             d="M 0,0 L 0.034,0 C 0.238,0.592 1.032,2.384 2.705,2.384 C 4.548,2.384 4.734,0.811 4.734,-0.236 L 4.734,-5.849 L 3.804,-5.849 L 3.804,-0.473 C 3.804,0.507 3.702,1.539 2.536,1.539 C 0.863,1.539 0,-1.268 0,-2.214 L 0,-5.849 L -0.929,-5.849 L -0.929,2.198 L 0,2.198"
                             id="path351"
                             style="fill:#231f20;fill-opacity:1;fill-rule:nonzero;stroke:none" /></g><g
                           transform="translate(656.094,200.506)"
                           id="g353"><path
                             d="M 0,0 L 0.929,0 L 0.929,-1.792 L 0.963,-1.792 C 1.504,-0.777 2.247,0.101 3.448,0.186 L 3.448,-1.031 L 3.177,-1.031 C 1.436,-1.031 0.929,-2.722 0.929,-3.989 L 0.929,-8.047 L 0,-8.047"
                             id="path355"
                             style="fill:#231f20;fill-opacity:1;fill-rule:nonzero;stroke:none" /></g><g
                           transform="translate(664.887,196.28)"
                           id="g357"><path
                             d="M 0,0 C -0.777,0 -3.465,-0.017 -3.465,-1.843 C -3.465,-2.655 -2.84,-3.162 -2.062,-3.162 C -0.523,-3.162 0,-1.589 0,-0.457 L 0,0 z M 0,-2.57 L -0.033,-2.57 C -0.203,-2.958 -0.997,-4.007 -2.349,-4.007 C -3.651,-4.007 -4.496,-3.027 -4.496,-1.962 C -4.496,-0.423 -3.127,0.659 0,0.659 L 0,1.2 C 0,2.452 0,3.753 -1.64,3.753 C -2.941,3.753 -3.11,2.924 -3.144,2.265 L -4.31,2.265 C -4.193,3.144 -3.752,4.412 -1.538,4.412 C 0.643,4.412 0.93,2.992 0.93,1.64 L 0.93,-3.821 L 0,-3.821"
                             id="path359"
                             style="fill:#231f20;fill-opacity:1;fill-rule:nonzero;stroke:none" /></g><g
                           transform="translate(669.552,198.308)"
                           id="g361"><path
                             d="M 0,0 L 0.035,0 C 0.238,0.592 1.032,2.384 2.706,2.384 C 4.549,2.384 4.734,0.811 4.734,-0.236 L 4.734,-5.849 L 3.804,-5.849 L 3.804,-0.473 C 3.804,0.507 3.703,1.539 2.536,1.539 C 0.863,1.539 0,-1.268 0,-2.214 L 0,-5.849 L -0.929,-5.849 L -0.929,2.198 L 0,2.198"
                             id="path363"
                             style="fill:#231f20;fill-opacity:1;fill-rule:nonzero;stroke:none" /></g><g
                           transform="translate(680.744,192.324)"
                           id="g365"><path
                             d="M 0,0 C -0.27,-0.017 -0.541,-0.051 -0.828,-0.051 C -1.892,-0.051 -3.109,0.135 -3.109,1.826 L -3.109,7.489 L -4.429,7.489 L -4.429,8.182 L -3.109,8.182 L -3.109,10.058 L -2.18,10.634 L -2.18,8.182 L -0.067,8.182 L -0.067,7.489 L -2.18,7.489 L -2.18,2.468 C -2.18,1.69 -2.18,0.609 -0.727,0.609 C -0.473,0.609 -0.236,0.643 0,0.727"
                             id="path367"
                             style="fill:#231f20;fill-opacity:1;fill-rule:nonzero;stroke:none" /></g><g
                           transform="translate(686.323,196.28)"
                           id="g369"><path
                             d="M 0,0 C -0.778,0 -3.466,-0.017 -3.466,-1.843 C -3.466,-2.655 -2.84,-3.162 -2.062,-3.162 C -0.524,-3.162 0,-1.589 0,-0.457 L 0,0 z M 0,-2.57 L -0.033,-2.57 C -0.203,-2.958 -0.998,-4.007 -2.35,-4.007 C -3.651,-4.007 -4.497,-3.027 -4.497,-1.962 C -4.497,-0.423 -3.128,0.659 0,0.659 L 0,1.2 C 0,2.452 0,3.753 -1.639,3.753 C -2.941,3.753 -3.111,2.924 -3.144,2.265 L -4.31,2.265 C -4.193,3.144 -3.753,4.412 -1.539,4.412 C 0.643,4.412 0.93,2.992 0.93,1.64 L 0.93,-3.821 L 0,-3.821"
                             id="path371"
                             style="fill:#231f20;fill-opacity:1;fill-rule:nonzero;stroke:none" /></g><path
                           d="M 689.518,192.459 L 690.921,192.459 L 690.921,193.862 L 689.518,193.862 L 689.518,192.459 z"
                           id="path373"
                           style="fill:#231f20;fill-opacity:1;fill-rule:nonzero;stroke:none" /><g
                           transform="translate(693.779,199.813)"
                           id="g375"><path
                             d="M 0,0 L -1.371,0 L -1.371,0.693 L 0,0.693 L 0,1.876 C 0,2.992 0.354,4.361 2.552,4.361 C 3.076,4.361 3.364,4.277 3.616,4.226 L 3.616,3.398 C 3.262,3.516 2.958,3.702 2.502,3.702 C 1.2,3.702 0.929,2.958 0.929,1.826 L 0.929,0.693 L 3.177,0.693 L 3.177,0 L 0.929,0 L 0.929,-7.354 L 0,-7.354"
                             id="path377"
                             style="fill:#231f20;fill-opacity:1;fill-rule:nonzero;stroke:none" /></g><path
                           d="M 698.494,200.506 L 699.424,200.506 L 699.424,192.459 L 698.494,192.459 L 698.494,200.506 z M 698.359,204.124 L 699.543,204.124 L 699.543,202.755 L 698.359,202.755 L 698.359,204.124 z"
                           id="path379"
                           style="fill:#231f20;fill-opacity:1;fill-rule:nonzero;stroke:none" /></g></g></g></g></g></g></g></g></g></g></g></svg>