<?xml version="1.0" encoding="UTF-8" standalone="no"?>
<svg
   xmlns:dc="http://purl.org/dc/elements/1.1/"
   xmlns:cc="http://creativecommons.org/ns#"
   xmlns:rdf="http://www.w3.org/1999/02/22-rdf-syntax-ns#"
   xmlns:svg="http://www.w3.org/2000/svg"
   xmlns="http://www.w3.org/2000/svg"
   xmlns:sodipodi="http://sodipodi.sourceforge.net/DTD/sodipodi-0.dtd"
   xmlns:inkscape="http://www.inkscape.org/namespaces/inkscape"
   width="259.60001"
   height="247.27444"
   viewBox="0 0 207.68 197.81956"
   version="1.1"
   id="svg2"
   inkscape:version="0.48.1 "
   sodipodi:docname="AJAX.svg">
  <metadata
     id="metadata16">
    <rdf:RDF>
      <cc:Work
         rdf:about="">
        <dc:format>image/svg+xml</dc:format>
        <dc:type
           rdf:resource="http://purl.org/dc/dcmitype/StillImage" />
      </cc:Work>
    </rdf:RDF>
  </metadata>
  <defs
     id="defs14" />
  <sodipodi:namedview
     pagecolor="#ffffff"
     bordercolor="#666666"
     borderopacity="1"
     objecttolerance="10"
     gridtolerance="10"
     guidetolerance="10"
     inkscape:pageopacity="0"
     inkscape:pageshadow="2"
     inkscape:window-width="1280"
     inkscape:window-height="1004"
     id="namedview12"
     showgrid="false"
     fit-margin-top="0"
     fit-margin-left="0"
     fit-margin-right="0"
     fit-margin-bottom="0"
     inkscape:zoom="1.4310136"
     inkscape:cx="296.59824"
     inkscape:cy="59.092868"
     inkscape:window-x="-8"
     inkscape:window-y="-8"
     inkscape:window-maximized="1"
     inkscape:current-layer="svg2" />
  <g
     id="#8d0013ff"
     transform="translate(-5.3000047,-5.990439)">
    <path
       d="m 97.95,7.03 c 16.78,-3.27 34.78,1.32 48.27,11.72 12.16,9.31 20.59,23.3 23.21,38.38 2.03,13.28 0.39,27.28 -5.95,39.24 -3.62,7.24 -8.91,13.51 -15.03,18.76 C 134.98,89.64 121.66,64.07 108.34,38.5 94.47,63.54 81.38,89.03 67.61,114.14 55.16,103 47.36,86.72 47.02,69.98 46.51,56.64 50.52,43.16 58.27,32.29 67.58,19.17 82.07,9.77 97.95,7.03 z"
       id="path5"
       inkscape:connector-curvature="0"
       style="fill:#8d0013" />
    <path
       d="m 78.69,123.49 c 10.3,-18.77 19.64,-38.06 29.71,-56.95 9.87,19.08 20.23,37.9 30.16,56.96 -2.78,1.59 -5.65,3.02 -8.49,4.48 -7.34,-13.37 -13.87,-27.18 -21.58,-40.34 -6.64,13.82 -14.32,27.11 -21.43,40.69 -2.85,-1.48 -5.93,-2.67 -8.37,-4.84 z"
       id="path7"
       inkscape:connector-curvature="0"
       style="fill:#8d0013" />
  </g>
  <g
     id="#1e0800ae"
     transform="translate(-5.3000047,-5.990439)">
    <path
       d="m 5.3,69.09 c 9.15,-0.16 18.3,-0.03 27.46,-0.14 12.87,24.64 25.72,49.28 38.33,74.05 2.12,4.04 4.07,8.17 6.56,12 10.96,-19.32 20.59,-39.42 31.47,-58.78 10.21,19.49 20.38,39.01 30.67,58.47 3.28,-4.57 5.3,-9.89 8.19,-14.71 11.98,-23.02 24.09,-45.98 35.98,-69.05 0.55,-1.17 1.4,-2.34 2.87,-1.99 8.72,0.02 17.43,-0.05 26.15,0.02 -18.89,36 -38.02,71.88 -57.19,107.73 -5.02,9.01 -9.59,18.29 -14.92,27.12 C 129.69,184.11 119.06,164.1 108.49,144.05 98.25,164.11 87.6,183.96 76.81,203.72 62.86,178.07 49.57,152.04 35.74,126.31 25.77,107.14 15.11,88.34 5.3,69.09 z"
       id="path10"
       inkscape:connector-curvature="0"
       style="opacity:0.68000034;fill:#1e0800" />
  </g>
</svg>
