<?xml version="1.0" encoding="UTF-8" standalone="no"?>
<!-- Generator: Adobe Illustrator 15.0.0, SVG Export Plug-In . SVG Version: 6.00 Build 0)  -->

<svg
   xmlns:dc="http://purl.org/dc/elements/1.1/"
   xmlns:cc="http://creativecommons.org/ns#"
   xmlns:rdf="http://www.w3.org/1999/02/22-rdf-syntax-ns#"
   xmlns:svg="http://www.w3.org/2000/svg"
   xmlns="http://www.w3.org/2000/svg"
   xmlns:sodipodi="http://sodipodi.sourceforge.net/DTD/sodipodi-0.dtd"
   xmlns:inkscape="http://www.inkscape.org/namespaces/inkscape"
   version="1.1"
   id="Ebene_1"
   x="0px"
   y="0px"
   width="555.13599"
   height="107.263"
   viewBox="0 0 555.13599 107.263"
   enable-background="new 0 0 600 200"
   xml:space="preserve"
   inkscape:version="0.91 r13725"
   sodipodi:docname="Germanwings_Logo_002.svg"><metadata
     id="metadata3375"><rdf:RDF><cc:Work
         rdf:about=""><dc:format>image/svg+xml</dc:format><dc:type
           rdf:resource="http://purl.org/dc/dcmitype/StillImage" /><dc:title></dc:title></cc:Work></rdf:RDF></metadata><defs
     id="defs3373" /><sodipodi:namedview
     pagecolor="#ffffff"
     bordercolor="#666666"
     borderopacity="1"
     objecttolerance="10"
     gridtolerance="10"
     guidetolerance="10"
     inkscape:pageopacity="0"
     inkscape:pageshadow="2"
     inkscape:window-width="677"
     inkscape:window-height="480"
     id="namedview3371"
     showgrid="false"
     fit-margin-top="0"
     fit-margin-left="0"
     fit-margin-right="0"
     fit-margin-bottom="0"
     inkscape:zoom="0.81833333"
     inkscape:cx="277.068"
     inkscape:cy="54.132"
     inkscape:window-x="2018"
     inkscape:window-y="326"
     inkscape:window-maximized="0"
     inkscape:current-layer="Ebene_1" /><polygon
     points="22.932,154.132 22.932,46.869 578.068,46.869 578.068,154.132 "
     id="polygon3367"
     style="fill:#ffdb06"
     transform="translate(-22.932,-46.869)" /><path
     d="m 111.919,37.111 -9.526,0 c -10.717,0 -14.289,3.274 -14.289,12.799 l 0,3.273 c 0,9.525 3.572,12.8 14.289,12.8 l 11.312,0 c 7.738,-0.299 11.014,-2.678 11.907,-8.038 l -6.847,0 c -0.891,2.082 -2.974,2.976 -6.846,2.976 l -9.526,0 c -5.954,0 -7.739,-2.38 -7.739,-7.44 l 0,-0.3 31.552,0 0,-3.271 c 0,-9.525 -3.273,-12.799 -14.287,-12.799 z m -17.262,11.31 c 0.3,-4.464 2.084,-6.252 7.739,-6.252 l 9.526,0 c 5.654,0 7.439,1.788 7.739,6.252 l -25.004,0 z m -26.197,-11.31 -9.824,0 c -10.715,0 -14.288,3.274 -14.288,12.799 l 0,3.273 c 0,9.525 3.572,12.8 14.288,12.8 l 9.824,0 c 2.979,0 5.656,-0.299 7.739,-0.894 l 0,3.869 c 0,5.063 -1.786,7.441 -7.739,7.441 l -8.931,0 c -5.06,0 -7.143,-1.49 -7.741,-4.762 l -6.543,0 c 0.596,7.443 4.463,10.123 14.288,10.123 l 8.931,0 c 10.718,0 13.988,-3.276 13.988,-12.803 l 0,-19.047 C 82.451,40.385 79.177,37.111 68.46,37.111 Z m 7.739,16.073 c 0,5.357 -1.786,7.743 -7.739,7.743 l -9.824,0 c -5.953,0 -7.738,-2.382 -7.738,-7.743 l 0,-3.273 c 0,-5.356 1.786,-7.741 7.738,-7.741 l 9.824,0 c 5.953,0 7.739,2.382 7.739,7.741 l 0,3.273 z m 297.066,12.501 6.25,0 0,-28.275 -6.25,0 0,28.275 z m 0,-33.041 6.25,0 0,-6.845 -6.25,0 0,6.845 z m 80.666,4.467 -9.821,0 c -10.718,0 -13.992,3.274 -13.992,12.799 l 0,3.273 c 0,9.525 3.279,12.8 13.992,12.8 l 9.821,0 c 3.273,0 5.656,-0.299 7.743,-0.894 l 0,3.869 c 0,5.063 -1.788,7.441 -7.743,7.441 l -8.93,0 c -5.063,0 -6.846,-1.49 -7.442,-4.762 l -6.547,0 c 0.591,7.443 4.168,10.123 13.989,10.123 l 8.93,0 c 10.716,0 14.288,-3.276 14.288,-12.803 l 0,-19.047 c 0,-9.525 -3.572,-12.799 -14.288,-12.799 z m 7.743,16.073 c 0,5.357 -1.788,7.743 -7.743,7.743 l -9.821,0 c -5.954,0 -7.742,-2.382 -7.742,-7.743 l 0,-3.273 c 0,-5.356 1.788,-7.741 7.742,-7.741 l 9.821,0 c 5.955,0 7.743,2.382 7.743,7.741 l 0,3.273 z m -216.699,-16.073 -8.335,0 c -8.931,0 -12.798,2.084 -13.99,8.039 l 6.845,0 c 0.893,-2.086 2.979,-2.979 7.145,-2.979 l 8.335,0 c 5.953,0 7.442,2.383 7.741,6.253 l -22.622,0 c -4.763,0 -8.931,3.572 -8.931,8.633 0,5.057 4.168,8.93 8.931,8.93 l 29.168,0 0,-16.077 C 259.26,40.385 255.988,37.111 244.975,37.111 Z m 7.739,23.81 -21.432,0 c -1.786,0 -3.572,-1.484 -3.572,-3.569 0,-2.084 1.786,-3.871 3.572,-3.871 l 21.432,0 0,7.44 z M 131.567,50.21 l 0,15.475 6.549,0 0,-15.475 c 0,-5.356 1.489,-7.741 7.739,-7.741 l 11.012,0 0,-5.062 -11.012,0 c -11.017,0 -14.288,3.275 -14.288,12.803 z m 70.246,-13.099 -3.275,0 c -5.356,0 -8.931,0.892 -11.013,2.978 -2.084,-2.085 -5.656,-2.978 -11.013,-2.978 l -3.275,0 c -10.715,0 -14.287,3.274 -14.287,12.799 l 0,15.774 6.548,0 0,-15.774 c 0,-5.356 1.789,-7.741 7.741,-7.741 l 3.275,0 c 5.953,0 7.739,2.382 7.739,7.741 l 0,15.774 6.549,0 0,-15.774 c 0,-5.356 1.786,-7.741 7.741,-7.741 l 3.275,0 c 5.953,0 7.739,2.382 7.739,7.741 l 0,15.774 6.549,0 0,-15.774 c -0.005,-9.525 -3.577,-12.799 -14.293,-12.799 z m 87.511,0 -9.522,0 c -10.717,0 -14.289,3.274 -14.289,12.799 l 0,15.774 6.549,0 0,-15.774 c 0,-5.356 1.786,-7.741 7.74,-7.741 l 9.525,0 c 6.253,0 7.743,2.382 7.743,7.741 l 0,15.774 6.544,0 0,-15.774 c -0.002,-9.525 -3.276,-12.799 -14.29,-12.799 z m 70.848,16.073 c 0,5.357 -1.789,7.743 -7.74,7.743 l -3.279,0 c -6.25,0 -7.738,-2.382 -7.738,-7.743 l 0,-15.777 -6.549,0 0,15.777 c 0,5.357 -1.784,7.743 -7.738,7.743 l -3.276,0 c -6.249,0 -7.739,-2.382 -7.739,-7.743 l 0,-15.777 -6.549,0 0,15.777 c 0,9.525 3.274,12.8 14.288,12.8 l 3.276,0 c 5.061,0 8.632,-0.894 11.011,-2.678 2.085,1.784 5.657,2.678 11.015,2.678 l 3.276,0 c 10.716,0 13.986,-3.274 13.986,-12.8 l 0,-15.777 -6.249,0 0,15.777 0.005,0 z m 50.003,-16.073 -9.819,0 c -10.718,0 -13.989,3.274 -13.989,12.799 l 0,15.774 6.548,0 0,-15.774 c 0,-5.356 1.484,-7.741 7.441,-7.741 l 9.819,0 c 5.953,0 7.742,2.382 7.742,7.741 l 0,15.774 6.547,0 0,-15.774 c 0,-9.525 -3.571,-12.799 -14.289,-12.799 z m 92.275,11.906 -19.642,-0.3 c -2.088,-0.296 -3.277,-1.489 -3.277,-3.275 0,-1.785 1.189,-3.273 3.277,-3.273 l 13.69,0 c 3.572,0 5.653,0.893 6.845,2.382 l 7.145,0 c -1.491,-5.358 -5.354,-7.442 -13.989,-7.442 l -14.884,0 c -5.057,0 -8.629,3.87 -8.629,8.334 0,4.764 2.976,8.335 8.629,8.634 l 19.646,0.297 c 2.083,0 3.276,1.49 3.276,3.272 0,1.79 -1.193,3.274 -3.276,3.274 l -13.986,0 c -3.572,0 -5.659,-0.894 -6.551,-2.38 l -7.141,0 c 1.192,5.355 5.057,7.442 13.691,7.442 l 15.182,0 c 5.063,0 8.634,-3.87 8.634,-8.632 -0.006,-4.761 -2.688,-8.333 -8.64,-8.333 z"
     id="path3369"
     inkscape:connector-curvature="0"
     style="fill:#77212e" /></svg>