<?xml version="1.0" encoding="UTF-8" standalone="no"?>
<svg
   xmlns:dc="http://purl.org/dc/elements/1.1/"
   xmlns:cc="http://creativecommons.org/ns#"
   xmlns:rdf="http://www.w3.org/1999/02/22-rdf-syntax-ns#"
   xmlns:svg="http://www.w3.org/2000/svg"
   xmlns="http://www.w3.org/2000/svg"
   width="500"
   height="180"
   viewBox="0 0 132.29166 47.625003"
   version="1.1"
   id="svg8">
  <defs
     id="defs2" />
  <metadata
     id="metadata5">
    <rdf:RDF>
      <cc:Work
         rdf:about="">
        <dc:format>image/svg+xml</dc:format>
        <dc:type
           rdf:resource="http://purl.org/dc/dcmitype/StillImage" />
        <dc:title></dc:title>
      </cc:Work>
    </rdf:RDF>
  </metadata>
  <g
     id="layer1">
    <path
       id="rect3969"
       style="opacity:1;fill:#293656;fill-opacity:1;stroke:none;stroke-width:1.11213;stroke-linejoin:miter;stroke-miterlimit:4;stroke-dasharray:none;stroke-opacity:1"
       d="M 51.066529,0.72555633 V 8.9008447 19.074699 27.248552 46.984187 H 62.119693 V 27.248552 h 17.42529 V 19.074699 H 62.119693 V 8.9008447 H 80.464525 V 0.72555633 H 62.119693 Z" />
    <path
       id="rect3991-0"
       style="fill:#293656;fill-opacity:1;stroke:none;stroke-width:1.11213;stroke-linejoin:miter;stroke-miterlimit:4;stroke-dasharray:none;stroke-opacity:1"
       d="M 88.884071,0.72555633 V 46.984187 h 7.675286 3.379312 l 8.347671,-0.195068 C 119.0723,46.53708 131.3381,37.156278 131.3381,24.94826 v -2.185343 c 0,-12.208018 -8.68668,-22.03736067 -19.47558,-22.03736067 H 99.938669 96.559357 Z M 99.938669,8.9008447 h 6.012931 c 7.605,0 13.72702,6.2926653 13.72702,14.1092013 0,7.816527 -6.12202,14.109193 -13.72702,14.109193 h -6.012931 z" />
    <path
       id="rect3991-0-9"
       style="fill:#293656;fill-opacity:1;stroke:none;stroke-width:1.11213;stroke-linejoin:miter;stroke-miterlimit:4;stroke-dasharray:none;stroke-opacity:1"
       d="m 20.194399,0.72555633 c -10.7889016,0 -19.47557949,9.82934267 -19.47557949,22.03736067 v 2.185343 c 0,12.208018 9.73009849,21.518094 20.51591949,21.775843 l 10.883511,0.260073 h 2.124999 1.254314 6.919541 v -9.857761 -9.977013 h 0.0114 V 18.975558 H 21.629721 v 8.173855 l 10.488507,-0.0014 v 9.971268 0 h -6.012935 c -7.604989,0 -13.727009,-6.292663 -13.727009,-14.109192 0,-7.816543 6.12202,-14.1092009 13.727009,-14.1092009 h 6.012935 L 42.417082,8.8764038 V 0.72552691 H 35.49754 32.118228 Z" />
  </g>
</svg>
