<svg xmlns:svg="http://www.w3.org/2000/svg" xmlns="http://www.w3.org/2000/svg" version="1.1" width="400" height="103.00836" xml:space="preserve">
<title>Grupo Latam Airlines</title>
<defs>
<clipPath clipPathUnits="userSpaceOnUse" id="clipPath16">
<path d="m 0,0 612,0 0,407.193 -612,0 L 0,0 z" id="path18"/></clipPath>
<clipPath clipPathUnits="userSpaceOnUse" id="clipPath30">
<path d="M 0,0 612,0 612,792 0,792 0,0 z" id="path32"/></clipPath>
<clipPath clipPathUnits="userSpaceOnUse" id="clipPath66">
<path d="M 0,0 612,0 612,792 0,792 0,0 z" id="path68"/></clipPath>
<linearGradient x1="0" y1="0" x2="1" y2="0" gradientUnits="userSpaceOnUse" gradientTransform="matrix(30.560791,21.398895,21.398895,-30.560791,163.53235,649.98206)"
spreadMethod="pad" id="linearGradient90">
<stop style="stop-opacity:1;stop-color:#6f7c8d" offset="0" id="stop92"/>
<stop style="stop-opacity:1;stop-color:#6f7a8c" offset="0.00561523" id="stop94"/>
<stop style="stop-opacity:1;stop-color:#d5d7da" offset="1" id="stop96"/></linearGradient>
<clipPath clipPathUnits="userSpaceOnUse" id="clipPath108"><path d="M 0,0 612,0 612,792 0,792 0,0 z" id="path110"/></clipPath></defs>
<g transform="matrix(1.25,0,0,-1.25,-72.424625,948.62277)">
<g transform="matrix(1.6648657,0,0,1.6648657,-38.522117,-449.77597)">
<g clip-path="url(#clipPath30)">
<g transform="translate(214.3949,676.4915)">
<path d="m 0,0 c 1.011,0 1.623,0.452 1.623,1.276 0,0.646 -0.424,1.021 -1.081,1.17 l -0.563,0.132 c -0.432,0.101 -0.564,0.271 -0.564,0.587 0,0.359 0.251,0.569 0.674,0.569 0.432,0 0.645,-0.223 0.712,-0.658 l 0.609,0 0,0.779 C 1.199,3.97 0.767,4.127 0.145,4.127 c -0.817,0 -1.504,-0.409 -1.504,-1.233 0,-0.658 0.397,-1.001 1.016,-1.14 L 0.172,1.638 C 0.607,1.535 0.831,1.394 0.831,1.004 0.831,0.558 0.49,0.366 0.055,0.366 c -0.556,0 -0.766,0.233 -0.823,0.775 l -0.614,0 0,-0.808 C -1.111,0.178 -0.737,0 0,0 m -6.258,1.922 0.24,0 c 0.42,0 0.491,-0.038 0.506,-0.406 l 0.382,0 0,1.184 -0.382,0 C -5.527,2.327 -5.598,2.303 -6.025,2.303 l -0.233,0 0,1.321 0.66,0 c 0.468,0 0.547,-0.072 0.721,-0.657 l 0.413,0 -0.081,1.083 -3.134,0 0,-0.304 C -7.243,3.739 -7.158,3.64 -7.158,3.229 l 0,-2.331 c 0,-0.414 -0.085,-0.517 -0.521,-0.525 l 0,-0.286 3.288,0 0,1.218 -0.429,0 C -4.877,0.605 -5.036,0.499 -5.553,0.499 l -0.705,0 0,1.423 z m -4.882,1.307 c 0,0.411 0.089,0.51 0.512,0.517 l 0,0.304 -1.557,0 0,-0.304 c 0.435,-0.007 0.517,-0.106 0.517,-0.517 l 0,-0.717 c 0,-0.722 0.061,-1.148 0.075,-1.293 l -0.045,0 c -0.048,0.138 -0.18,0.448 -0.475,0.896 l -1.27,1.935 -1.43,0 0,-0.304 c 0.429,-0.007 0.52,-0.106 0.52,-0.517 l 0,-2.336 c 0,-0.409 -0.091,-0.512 -0.52,-0.52 l 0,-0.286 1.56,0 0,0.286 c -0.43,0.008 -0.514,0.111 -0.514,0.52 l 0,1.055 c 0,0.582 -0.052,1.033 -0.073,1.236 l 0.04,0 c 0.054,-0.152 0.229,-0.53 0.597,-1.062 l 1.395,-2.035 0.668,0 0,3.142 z m -8.068,-2.336 c 0,-0.409 -0.097,-0.512 -0.52,-0.52 l 0,-0.286 1.932,0 0,0.286 c -0.426,0.008 -0.511,0.111 -0.511,0.52 l 0,2.336 c 0,0.411 0.085,0.51 0.511,0.517 l 0,0.304 -1.932,0 0,-0.304 c 0.423,-0.007 0.52,-0.106 0.52,-0.517 l 0,-2.336 z m -5.301,2.336 c 0,0.411 0.09,0.51 0.516,0.517 l 0,0.304 -1.931,0 0,-0.304 c 0.424,-0.007 0.517,-0.106 0.517,-0.517 l 0,-2.336 c 0,-0.409 -0.093,-0.512 -0.517,-0.52 l 0,-0.286 3.238,0 0.085,1.261 -0.418,0 C -23.134,0.65 -23.336,0.499 -23.848,0.499 l -0.661,0 0,2.73 z m -6.01,-1.352 c 0.716,0.024 1.256,0.286 1.256,1.04 0,0.903 -0.656,1.133 -1.575,1.133 l -1.992,0 0,-0.304 c 0.425,-0.007 0.522,-0.106 0.522,-0.517 l 0,-2.331 c 0,-0.414 -0.097,-0.517 -0.522,-0.525 l 0,-0.286 1.986,0 0,0.286 c -0.425,0.008 -0.563,0.087 -0.563,0.525 l 0,0.892 c 0.404,-0.007 0.569,-0.166 0.845,-0.664 0.151,-0.29 0.318,-0.627 0.497,-1.039 l 1.249,0 0,0.294 c -0.329,0.01 -0.41,0.103 -0.547,0.346 -0.152,0.264 -0.239,0.435 -0.341,0.583 -0.197,0.301 -0.494,0.473 -0.815,0.537 l 0,0.03 z m 0.331,1.04 c 0,-0.563 -0.207,-0.738 -0.79,-0.738 l -0.429,0 0,1.445 0.338,0 c 0.666,0 0.881,-0.201 0.881,-0.707 m -7.039,-2.024 c 0,-0.409 -0.095,-0.512 -0.518,-0.52 l 0,-0.286 1.933,0 0,0.286 c -0.424,0.008 -0.513,0.111 -0.513,0.52 l 0,2.336 c 0,0.411 0.089,0.51 0.513,0.517 l 0,0.304 -1.933,0 0,-0.304 c 0.423,-0.007 0.518,-0.106 0.518,-0.517 l 0,-2.336 z m -5.871,1.59 c 0.136,0.381 0.181,0.606 0.208,0.775 l 0.03,0 c 0.023,-0.104 0.067,-0.399 0.203,-0.77 l 0.316,-0.857 -1.068,0 0.311,0.852 z m 0.064,1.567 -1.204,-3.221 C -44.376,0.46 -44.47,0.398 -44.76,0.359 l 0,-0.272 1.442,0 0,0.272 c -0.319,0.007 -0.445,0.073 -0.445,0.232 0,0.05 0.021,0.118 0.044,0.198 l 0.158,0.437 1.375,0 0.171,-0.447 c 0.026,-0.07 0.047,-0.138 0.047,-0.196 0,-0.137 -0.114,-0.217 -0.437,-0.224 l 0,-0.272 1.794,0 0,0.272 c -0.27,0.039 -0.356,0.109 -0.495,0.47 l -1.25,3.221 -0.678,0 z m -12.158,0 -1.568,0 -0.6,-2.033 c -0.123,-0.406 -0.202,-0.842 -0.215,-0.985 l -0.043,0 c -0.028,0.179 -0.097,0.512 -0.224,0.985 l -0.576,2.033 -1.57,0 0,-0.296 c 0.391,-0.02 0.455,-0.107 0.434,-0.442 l -0.183,-2.431 c -0.027,-0.413 -0.19,-0.483 -0.518,-0.5 l 0,-0.294 1.452,0 0,0.294 c -0.367,0.01 -0.462,0.095 -0.432,0.491 l 0.126,1.634 c 0.017,0.213 0.04,0.834 0.04,0.903 l 0.042,0 c 0.015,-0.079 0.082,-0.506 0.193,-0.897 l 0.74,-2.425 0.62,0 0.766,2.425 c 0.1,0.32 0.186,0.75 0.201,0.897 l 0.045,0 c 0,-0.063 -0.01,-0.131 -0.01,-0.326 0,-0.159 0.01,-0.364 0.022,-0.571 l 0.13,-1.64 c 0.039,-0.412 -0.079,-0.481 -0.447,-0.499 l 0,-0.286 1.856,0 0,0.286 c -0.331,0.018 -0.475,0.111 -0.513,0.52 l -0.201,2.419 c -0.022,0.304 0.034,0.414 0.433,0.434 l 0,0.304 z M -65.525,2.483 c 0.136,0.381 0.179,0.606 0.207,0.775 l 0.029,0 c 0.022,-0.104 0.065,-0.399 0.199,-0.77 l 0.323,-0.857 -1.071,0 0.313,0.852 z M -65.46,4.05 -66.666,0.829 C -66.805,0.46 -66.9,0.398 -67.189,0.359 l 0,-0.272 1.446,0 0,0.272 c -0.327,0.007 -0.447,0.073 -0.447,0.232 0,0.05 0.019,0.118 0.043,0.198 l 0.16,0.437 1.369,0 0.177,-0.447 c 0.026,-0.07 0.04,-0.138 0.04,-0.196 0,-0.137 -0.107,-0.217 -0.432,-0.224 l 0,-0.272 1.791,0 0,0.272 c -0.267,0.039 -0.354,0.109 -0.491,0.47 l -1.249,3.221 -0.678,0 z m -5.508,-0.41 0.311,0 c 0.435,0 0.526,-0.195 0.657,-0.814 l 0.435,0 -0.076,1.224 -3.555,0 -0.075,-1.224 0.425,0 c 0.135,0.619 0.236,0.814 0.659,0.814 l 0.315,0 0,-2.747 c 0,-0.409 -0.091,-0.512 -0.545,-0.52 l 0,-0.286 1.987,0 0,0.286 c -0.452,0.008 -0.538,0.111 -0.538,0.52 l 0,2.747 z m -7.178,-1.157 c 0.138,0.381 0.183,0.606 0.212,0.775 l 0.028,0 c 0.024,-0.104 0.065,-0.399 0.202,-0.77 l 0.317,-0.857 -1.066,0 0.307,0.852 z m 0.066,1.567 -1.206,-3.221 c -0.136,-0.369 -0.23,-0.431 -0.519,-0.47 l 0,-0.272 1.445,0 0,0.272 c -0.326,0.007 -0.447,0.073 -0.447,0.232 0,0.05 0.022,0.118 0.041,0.198 l 0.158,0.437 1.373,0 0.174,-0.447 c 0.03,-0.07 0.04,-0.138 0.04,-0.196 0,-0.137 -0.105,-0.217 -0.428,-0.224 l 0,-0.272 1.792,0 0,0.272 c -0.271,0.039 -0.356,0.109 -0.497,0.47 l -1.247,3.221 -0.679,0 z m -6.379,-0.821 c 0,0.411 0.084,0.51 0.515,0.517 l 0,0.304 -1.936,0 0,-0.304 c 0.426,-0.007 0.52,-0.106 0.52,-0.517 l 0,-2.336 c 0,-0.409 -0.094,-0.512 -0.52,-0.52 l 0,-0.286 3.239,0 0.086,1.261 -0.418,0 C -83.088,0.65 -83.292,0.499 -83.806,0.499 l -0.653,0 0,2.73 z m -13.906,0.454 c 0.67,0 0.96,-0.535 0.96,-1.582 0,-1.237 -0.325,-1.703 -0.96,-1.703 -0.601,0 -0.949,0.466 -0.949,1.689 0,1.061 0.283,1.596 0.949,1.596 m 0,-3.683 c 1.213,0 1.928,0.738 1.928,2.034 0,1.389 -0.759,2.093 -1.928,2.093 -1.179,0 -1.927,-0.704 -1.927,-2.093 0,-1.296 0.71,-2.034 1.927,-2.034 m -8.386,4.05 0,-0.304 c 0.425,-0.007 0.519,-0.106 0.519,-0.517 l 0,-2.331 c 0,-0.414 -0.094,-0.517 -0.519,-0.525 l 0,-0.286 2.035,0 0,0.286 c -0.475,0.008 -0.613,0.087 -0.613,0.525 l 0,0.631 0.501,0 c 0.958,0 1.609,0.355 1.609,1.257 0,1.034 -0.658,1.264 -1.727,1.264 l -1.805,0 z m 2.588,-1.27 c 0,-0.665 -0.204,-0.847 -0.79,-0.847 l -0.376,0 0,1.697 0.281,0 c 0.67,0 0.885,-0.193 0.885,-0.85 m -6.04,0.449 c 0,0.411 0.083,0.51 0.518,0.517 l 0,0.304 -1.557,0 0,-0.304 c 0.424,-0.007 0.507,-0.106 0.507,-0.517 l 0,-1.546 c 0,-0.877 -0.212,-1.199 -0.901,-1.199 -0.7,0 -0.851,0.454 -0.851,1.175 l 0,1.57 c 0,0.411 0.086,0.51 0.522,0.517 l 0,0.304 -1.945,0 0,-0.304 c 0.432,-0.007 0.522,-0.106 0.522,-0.517 l 0,-1.651 c 0,-1.132 0.461,-1.578 1.66,-1.578 1.076,0 1.525,0.527 1.525,1.616 l 0,1.613 z m -7.924,-1.352 c 0.714,0.024 1.255,0.286 1.255,1.04 0,0.903 -0.657,1.133 -1.575,1.133 l -1.99,0 0,-0.304 c 0.425,-0.007 0.517,-0.106 0.517,-0.517 l 0,-2.331 c 0,-0.414 -0.092,-0.517 -0.517,-0.525 l 0,-0.286 1.985,0 0,0.286 c -0.427,0.008 -0.565,0.087 -0.565,0.525 l 0,0.892 c 0.407,-0.007 0.57,-0.166 0.85,-0.664 0.149,-0.29 0.314,-0.627 0.496,-1.039 l 1.248,0 0,0.294 c -0.333,0.01 -0.415,0.103 -0.551,0.346 -0.152,0.264 -0.236,0.435 -0.336,0.583 -0.196,0.301 -0.5,0.473 -0.817,0.537 l 0,0.03 z m 0.333,1.04 c 0,-0.563 -0.211,-0.738 -0.798,-0.738 l -0.425,0 0,1.445 0.341,0 c 0.665,0 0.882,-0.201 0.882,-0.707 m -6.69,-2.359 c -0.143,-0.098 -0.29,-0.16 -0.585,-0.16 -0.788,0 -1.077,0.547 -1.077,1.703 0,1.113 0.34,1.612 1.056,1.612 0.541,0 0.73,-0.283 0.818,-0.775 l 0.597,0 0,0.882 c -0.283,0.164 -0.736,0.307 -1.359,0.307 -1.307,0 -2.094,-0.69 -2.094,-2.093 0,-1.349 0.743,-2.034 1.993,-2.034 0.544,0 1.186,0.108 1.552,0.337 l 0,0.855 c 0,0.389 0.051,0.519 0.413,0.519 l 0,0.3 -1.834,0 0,-0.3 c 0.434,-0.007 0.52,-0.108 0.52,-0.519 l 0,-0.634 z" style="fill:#797677;fill-opacity:1;fill-rule:nonzero;stroke:none" id="path36"/></g>
<g id="g38" transform="translate(239.3755,721.2466)">
<path d="m 0,0 8.435,0 -5.169,-20.299 -6.867,0 2.731,10.509 -6.434,-10.509 -5.711,0 -1.026,10.504 -2.659,-10.507 -7.06,0 4.452,17.354 c 0.424,1.698 1.947,2.944 3.777,2.948 l 0.006,0 7.07,0 0.857,-8.887 c 0,0 3.396,6.042 3.86,6.778 C -3.069,-1.047 -1.96,0 0,0" style="fill:#d62d3c;fill-opacity:1;fill-rule:nonzero;stroke:none" id="path40"/></g>
<g id="g42" transform="translate(182,721.2441)">
<path d="m 0,0 c -2.201,0 -3.324,-1.112 -3.835,-2.95 l -0.879,-3.185 6.977,0 0.012,0 -3.602,-14.162 7.04,0 3.674,14.162 6.344,0 L 20.14,0 0,0 z" style="fill:#d62d3c;fill-opacity:1;fill-rule:nonzero;stroke:none" id="path44"/></g>
<g id="g46" transform="translate(207.0071,713.4607)">
<path d="m 0,0 c 0.975,1.24 1.162,1.688 2.44,1.688 l 0.362,-0.004 -3.599,-14.197 7.014,0 5.199,20.334 -8.061,0.005 c -3.788,0 -5.941,-0.818 -7.55,-2.989 l -12.722,-17.341 7.973,0 L 0,0 z" style="fill:#d62d3c;fill-opacity:1;fill-rule:nonzero;stroke:none" id="path48"/></g>
<g id="g50" transform="translate(233.0554,714.967)">
<path d="m 0,0 c -8.436,-0.678 -17.538,-3.049 -23.451,-9.033 -17.949,7.634 -30.641,3.587 -30.641,3.587 0,0 8.033,4.595 26.636,0.077 22.484,10.408 42.19,5.747 44.548,4.931 C 13.734,0.083 6.69,0.535 0,0" style="fill:#0b6fae;fill-opacity:1;fill-rule:nonzero;stroke:none" id="path52"/></g>
<g id="g54" transform="translate(114.7865,718.4279)">
<path d="m 0,0 -3.152,0 c 0,0 0.09,-10.959 0.092,-11.497 C -3.448,-11.103 -14.312,0 -14.312,0 l -4.009,0 0,-14.682 3.277,0 c 0,0 -0.095,11.213 -0.095,11.748 0.38,-0.39 11.604,-11.748 11.604,-11.748 l 3.651,0 L 0.116,0 0,0 z" style="fill:#244583;fill-opacity:1;fill-rule:nonzero;stroke:none" id="path56"/></g></g></g>
<g id="g58" transform="matrix(1.6648657,0,0,1.6648657,63.39713,746.30997)">
<path d="m 0,0 -3.278,0 0,-14.682 13.124,0 -1.453,2.217 -8.284,0 L 0.109,0 0,0 z" style="fill:#244583;fill-opacity:1;fill-rule:nonzero;stroke:none" id="path60"/></g>
<g id="g62" transform="matrix(1.6648657,0,0,1.6648657,-38.522117,-449.77597)"><g id="g64" clip-path="url(#clipPath66)"><g id="g70" transform="translate(84.6278,718.4279)">
<path d="m 0,0 -2.826,0 -9.619,-14.682 3.88,0 c 0,0 6.997,11.221 7.185,11.529 0.179,-0.295 3.203,-5.085 3.392,-5.403 l -5.889,0 1.411,-2.164 5.833,0 c 0.065,-0.103 2.484,-3.962 2.484,-3.962 l 3.829,0 L 0.06,0 0,0 z" style="fill:#244583;fill-opacity:1;fill-rule:nonzero;stroke:none" id="path72"/></g>
<g id="g74" transform="translate(140.8539,701.4899)">
<path d="m 0,0 c -7.671,-0.206 -13.957,-2.814 -20.836,-4.268 -3.538,-0.851 -7.173,-1.516 -10.899,-1.992 1.83,-0.384 3.816,-0.577 6.041,-0.481 11.336,0.469 18.483,4.525 28.061,4.923 2.094,0.08 5.083,0.13 7.521,-0.14 C 7.05,-0.816 3.907,0.102 0,0" style="fill:#ef3031;fill-opacity:1;fill-rule:nonzero;stroke:none" id="path76"/></g></g></g>
<g id="g78" transform="matrix(1.6648657,0,0,1.6648657,-38.522117,-449.77597)"><g id="g80"><g id="g86"><g id="g88">
<path d="m 141.662,725.989 c -0.726,-0.969 -2.019,-3.023 -3.529,-5.52 l 0,0 c -2.415,-0.594 -4.776,-1.245 -6.946,-1.96 l 0,0 c 0.714,-0.906 1.977,-2.218 3.559,-3.736 l 0,0 c -3.464,-5.902 -6.811,-11.798 -6.811,-11.798 l 0,0 c 1.821,1.077 6.221,4.276 11.029,7.901 l 0,0 c 4.057,-3.641 8.709,-7.576 11.834,-10.097 l 0,0 c -0.887,3.299 -2.938,9.67 -4.916,15.384 l 0,0 c 4.277,3.316 8.033,6.311 9.634,7.71 l 0,0 c -3.321,-0.542 -7.418,-1.237 -11.633,-2.11 l 0,0 c -0.632,1.716 -1.205,3.186 -1.656,4.226 l 0,0 -0.565,0 z" style="fill:url(#linearGradient90);stroke:none" id="path98"/></g></g></g></g>
<path d="m 88.91669,679.30929 8.915356,0 0,0.46949 -8.915356,0 0,-0.46949 z" style="fill:#797677;fill-opacity:1;fill-rule:nonzero;stroke:none" id="path100"/>
<path d="m 330.07082,679.30929 8.91535,0 0,0.46949 -8.91535,0 0,-0.46949 z" style="fill:#797677;fill-opacity:1;fill-rule:nonzero;stroke:none" id="path102"/></g>
</svg>