<?xml version="1.0" encoding="UTF-8" standalone="no"?>
<!-- Created with Inkscape (http://www.inkscape.org/) -->

<svg
   width="132.29167mm"
   height="29.844051mm"
   viewBox="0 0 132.29167 29.844051"
   version="1.1"
   id="svg1"
   inkscape:version="1.4 (86a8ad7, 2024-10-11)"
   sodipodi:docname="Gulf Air 2010 wordmark.svg"
   xmlns:inkscape="http://www.inkscape.org/namespaces/inkscape"
   xmlns:sodipodi="http://sodipodi.sourceforge.net/DTD/sodipodi-0.dtd"
   xmlns="http://www.w3.org/2000/svg"
   xmlns:svg="http://www.w3.org/2000/svg">
  <sodipodi:namedview
     id="namedview1"
     pagecolor="#ffffff"
     bordercolor="#000000"
     borderopacity="0.25"
     inkscape:showpageshadow="2"
     inkscape:pageopacity="0.0"
     inkscape:pagecheckerboard="0"
     inkscape:deskcolor="#d1d1d1"
     inkscape:document-units="mm"
     inkscape:zoom="2.0283687"
     inkscape:cx="258.33568"
     inkscape:cy="67.295458"
     inkscape:window-width="1920"
     inkscape:window-height="1001"
     inkscape:window-x="-9"
     inkscape:window-y="-9"
     inkscape:window-maximized="1"
     inkscape:current-layer="g4441" />
  <defs
     id="defs1">
    <clipPath
       clipPathUnits="userSpaceOnUse"
       id="clipPath82">
      <path
         d="M 0,0 H 512.787 V 708.661 H 0 Z"
         id="path84" />
    </clipPath>
    <clipPath
       clipPathUnits="userSpaceOnUse"
       id="clipPath100">
      <path
         d="M 0,0 H 512.787 V 708.661 H 0 Z"
         id="path102" />
    </clipPath>
    <clipPath
       clipPathUnits="userSpaceOnUse"
       id="clipPath118">
      <path
         d="M 0,0 H 512.787 V 708.661 H 0 Z"
         id="path120" />
    </clipPath>
    <clipPath
       clipPathUnits="userSpaceOnUse"
       id="clipPath134">
      <path
         d="M 0,0 H 512.787 V 708.661 H 0 Z"
         id="path136" />
    </clipPath>
    <clipPath
       clipPathUnits="userSpaceOnUse"
       id="clipPath148">
      <path
         d="M 0,0 H 512.787 V 708.661 H 0 Z"
         id="path150" />
    </clipPath>
  </defs>
  <g
     inkscape:label="Layer 1"
     inkscape:groupmode="layer"
     id="layer1"
     transform="translate(-110.82004,-93.98446)">
    <g
       id="g4441"
       style="fill:#034d8e;fill-opacity:1;stroke-width:0.35139"
       transform="matrix(0.75296286,0,0,0.75296286,-119.51133,-269.10502)">
      <g
         transform="matrix(3.4726244,0,0,-3.4726244,-1142.7898,2840.4107)"
         id="g78"
         style="fill:#034d8e;fill-opacity:1;stroke-width:0.35139">
        <g
           clip-path="url(#clipPath82)"
           id="g80"
           style="fill:#034d8e;fill-opacity:1;stroke-width:0.35139">
          <g
             transform="translate(422.3777,672.307)"
             id="g86"
             style="fill:#034d8e;fill-opacity:1;stroke-width:0.35139">
            <path
               id="path88"
               style="fill:#034d8e;fill-opacity:1;fill-rule:nonzero;stroke:none;stroke-width:0.35139"
               d="M 0,0 H 1.837 V -2.725 C 1.59,-2.854 1.081,-2.952 0.401,-2.952 c -2.161,0 -3.613,1.477 -3.613,3.958 0,2.547 1.56,3.925 3.783,3.925 1.096,0 1.791,-0.21 2.362,-0.47 L 3.35,6.067 C 2.871,6.31 1.868,6.586 0.586,6.586 c -3.442,0 -5.789,-2.222 -5.789,-5.677 -0.016,-1.655 0.525,-3.099 1.451,-4.023 0.988,-0.99 2.316,-1.46 4.076,-1.46 1.389,0 2.686,0.357 3.351,0.616 V 1.574 H 0 Z" />
          </g>
          <g
             transform="translate(434.961,675.7462)"
             id="g90"
             style="fill:#034d8e;fill-opacity:1;stroke-width:0.35139">
            <path
               id="path92"
               style="fill:#034d8e;fill-opacity:1;fill-rule:nonzero;stroke:none;stroke-width:0.35139"
               d="m 0,0 h -1.899 v -4.769 c 0,-0.227 -0.047,-0.438 -0.108,-0.616 -0.201,-0.503 -0.695,-1.071 -1.451,-1.071 -0.673,0 -1.086,0.379 -1.278,1.025 -0.093,0.312 -0.128,0.699 -0.128,1.132 V 0 h -1.899 v -4.64 c 0,-0.555 0.053,-1.051 0.152,-1.434 0.382,-1.475 1.395,-2.004 2.473,-2.004 1.343,0 2.108,0.811 2.432,1.379 h 0.007 L -1.606,-7.9 H 0.062 C 0.031,-7.251 0,-6.472 0,-5.531 Z" />
          </g>
        </g>
      </g>
      <path
         id="path94"
         style="fill:#034d8e;fill-opacity:1;fill-rule:nonzero;stroke:none;stroke-width:0.35139"
         d="m 375.40339,521.22891 h 6.6466 v -37.9662 h -6.6466 z" />
      <g
         transform="matrix(3.4726244,0,0,-3.4726244,-1142.7898,2840.4107)"
         id="g96"
         style="fill:#034d8e;fill-opacity:1;stroke-width:0.35139">
        <g
           clip-path="url(#clipPath100)"
           id="g98"
           style="fill:#034d8e;fill-opacity:1;stroke-width:0.35139">
          <g
             transform="translate(442.6586,678.2964)"
             id="g104"
             style="fill:#034d8e;fill-opacity:1;stroke-width:0.35139">
            <path
               id="path106"
               style="fill:#034d8e;fill-opacity:1;fill-rule:nonzero;stroke:none;stroke-width:0.35139"
               d="M 0,0 C -0.648,-0.648 -0.91,-1.364 -0.91,-2.347 L -0.911,-2.55 H -1.93 v -1.492 h 1.019 v -6.408 h 1.899 v 6.408 H 2.625 V -2.55 H 0.973 v 0.21 c 0,0.939 0.461,1.513 1.266,1.513 0.339,0 0.602,-0.065 0.803,-0.146 L 3.181,0.568 C 2.872,0.682 2.47,0.762 1.961,0.762 1.312,0.762 0.556,0.551 0,0" />
          </g>
        </g>
      </g>
      <g
         transform="matrix(3.4726244,0,0,-3.4726244,426.6628,483.26445)"
         id="g108"
         style="fill:#034d8e;fill-opacity:1;stroke-width:0.35139">
        <path
           id="path110"
           style="fill:#034d8e;fill-opacity:1;fill-rule:nonzero;stroke:none;stroke-width:0.35139"
           d="m 0,0 -3.346,-10.933 h 1.961 l 0.878,3.038 3.385,0.002 0.878,-3.04 H 5.794 L 2.424,0 Z m -0.072,-6.326 1.24,4.581 1.27,-4.581 z" />
      </g>
      <path
         id="path112"
         style="fill:#034d8e;fill-opacity:1;fill-rule:nonzero;stroke:none;stroke-width:0.35139"
         d="m 451.89141,521.23238 h 6.65008 v -27.43373 h -6.65008 z" />
      <g
         transform="matrix(3.4726244,0,0,-3.4726244,-1142.7898,2840.4107)"
         id="g114"
         style="fill:#034d8e;fill-opacity:1;stroke-width:0.35139">
        <g
           clip-path="url(#clipPath118)"
           id="g116"
           style="fill:#034d8e;fill-opacity:1;stroke-width:0.35139">
          <g
             transform="translate(467.3206,675.9249)"
             id="g122"
             style="fill:#034d8e;fill-opacity:1;stroke-width:0.35139">
            <path
               id="path124"
               style="fill:#034d8e;fill-opacity:1;fill-rule:nonzero;stroke:none;stroke-width:0.35139"
               d="m 0,0 c -0.791,0 -1.772,-0.706 -2.107,-1.744 l -0.008,10e-4 -0.062,1.564 h -1.652 c 0.046,-0.713 0.061,-1.476 0.061,-2.546 v -5.353 h 1.9 v 4.087 c 0,0.227 0.031,0.438 0.061,0.616 0.17,0.893 0.788,1.51 1.699,1.51 0.232,0 0.401,-0.033 0.556,-0.065 v 1.881 C 0.293,-0.017 0.185,0 0,0" />
          </g>
        </g>
      </g>
      <g
         transform="matrix(3.4726244,0,0,-3.4726244,450.72982,486.92668)"
         id="g126"
         style="fill:#034d8e;fill-opacity:1;stroke-width:0.35139">
        <path
           id="path128"
           style="fill:#034d8e;fill-opacity:1;fill-rule:nonzero;stroke:none;stroke-width:0.35139"
           d="M 0,0 1.291,-1.357 2.584,0 1.291,1.357 Z" />
      </g>
    </g>
  </g>
</svg>
