<?xml version="1.0" encoding="UTF-8" standalone="no"?>
<!-- Created with Inkscape (http://www.inkscape.org/) -->

<svg
   width="132.29167mm"
   height="18.724789mm"
   viewBox="0 0 132.29167 18.724788"
   version="1.1"
   id="svg1"
   inkscape:version="1.4 (86a8ad7, 2024-10-11)"
   sodipodi:docname="Gulf Air wordmark.svg"
   xmlns:inkscape="http://www.inkscape.org/namespaces/inkscape"
   xmlns:sodipodi="http://sodipodi.sourceforge.net/DTD/sodipodi-0.dtd"
   xmlns="http://www.w3.org/2000/svg"
   xmlns:svg="http://www.w3.org/2000/svg">
  <sodipodi:namedview
     id="namedview1"
     pagecolor="#ffffff"
     bordercolor="#000000"
     borderopacity="0.25"
     inkscape:showpageshadow="2"
     inkscape:pageopacity="0.0"
     inkscape:pagecheckerboard="0"
     inkscape:deskcolor="#d1d1d1"
     inkscape:document-units="mm"
     inkscape:zoom="2.8685466"
     inkscape:cx="202.01868"
     inkscape:cy="35.732381"
     inkscape:window-width="1920"
     inkscape:window-height="1001"
     inkscape:window-x="-9"
     inkscape:window-y="-9"
     inkscape:window-maximized="1"
     inkscape:current-layer="layer1" />
  <defs
     id="defs1" />
  <g
     inkscape:label="Layer 1"
     inkscape:groupmode="layer"
     id="layer1"
     transform="translate(-67.73599,-132.5956)">
    <path
       class="cls-3"
       d="m 129.99962,134.1357 v 16.65509 h 4.62028 v -6.95919 h 4.71134 c 1.31324,0 1.39952,-0.38342 1.69187,-2.37244 l -0.56554,0.18213 -5.83767,0.0911 v -3.78634 c 0,-0.77164 -0.0623,-1.08318 -0.4026,-1.50974 l -0.51763,-0.67579 h 10.25187 l 0.62786,0.4074 v -2.77505 h -14.96322 z m 44.25698,0 v 16.65509 h 4.6203 v -17.39797 h -5.00371 z m -16.22372,9.78218 2.71274,-5.96707 2.68877,5.96707 z m 6.03897,-9.84927 c -0.8819,-1.8692 -1.7398,-1.96028 -5.52134,-0.26841 l 0.47927,0.3355 0.37384,0.83397 -7.27071,15.81634 h 2.79422 l 2.0657,-4.55319 h 7.49598 l 1.43785,3.17763 c 0.92982,2.07531 1.85005,2.37246 5.9527,0.43137 l -0.56555,-0.43137 z m 26.09215,8.10947 h -2.77025 v -4.23207 a 2.003403,2.003403 0 0 0 -0.40738,-1.50975 l -0.51763,-0.67578 h 3.13451 c 3.4029,0 4.79282,0.95857 4.79282,3.26391 0,1.94109 -1.10713,3.15369 -4.21768,3.15369 m 9.26454,7.26114 c -1.2701,-1.96028 -2.75108,-4.2129 -3.83427,-5.58844 2.39643,-0.95857 3.67131,-2.56896 3.67131,-4.6874 0,-3.78633 -2.77025,-5.75139 -7.47681,-5.75139 h -9.41312 l 0.37863,0.7429 v 16.65508 h 4.6203 v -6.08211 h 3.83425 c 1.03525,1.61999 2.21908,3.68569 3.01469,5.09477 1.08318,1.91715 1.91713,2.07531 5.78975,0 z M 83.01549,143.13185 v 2.56896 a 2.0177815,2.0177815 0 0 0 0.402598,1.50495 l 0.29237,0.38343 a 10.064943,10.064943 0 0 1 -3.743208,0.74768 c -3.738408,0 -6.824978,-2.58813 -6.824978,-7.50558 0,-3.40291 1.490562,-5.16187 5.046845,-5.16187 3.110555,0 5.6843,0.56555 8.857151,1.57684 l 0.134229,-3.12972 a 37.077334,37.077334 0 0 0 -7.702071,-1.03525 c -6.877709,0 -11.742436,2.54499 -11.742436,9.01052 0,6.30736 5.272107,8.86194 11.354222,8.86194 a 24.337991,24.337991 0 0 0 8.516848,-1.8069 v -6.87291 l -5.157073,-0.048 z m 33.07053,5.27212 0.51284,-0.67579 a 2.0273672,2.0273672 0 0 0 0.40738,-1.51454 v -12.82082 h -5.0133 l 0.38344,0.74288 v 16.65509 h 15.03511 v -2.77504 l -0.63266,0.41218 z M 105.95878,134.1357 v 9.6959 c 0,3.35499 -1.33241,4.81681 -5.02768,4.81681 -3.925334,0 -5.113962,-1.57206 -5.113962,-5.06603 v -10.18956 h -5.008497 l 0.383432,0.74288 v 10.39565 c 0,4.50527 3.383723,6.48471 8.996127,6.48471 6.4224,0 8.18136,-3.15368 8.18136,-7.18924 l 0.0239,-10.4388 h -2.90925 z"
       id="path218"
       style="fill:#1e2947;stroke-width:0.264582" />
    <path
       class="cls-4"
       d="m 72.955347,136.47939 c -0.119738,0.0574 -0.244439,0.12463 -0.354667,0.19173 l -1.404302,1.4043 q -0.100645,0.16303 -0.186922,0.34508 z"
       id="path219"
       style="fill:#3f475b;stroke-width:0.264582" />
    <path
       class="cls-4"
       d="m 74.465093,135.95699 -0.215691,0.0527 -3.647336,3.64734 c 0,0.0623 0,0.12934 -0.03355,0.19651 z"
       id="path220"
       style="fill:#3f475b;stroke-width:0.264582" />
    <path
       class="cls-4"
       d="m 73.928284,137.4811 a 3.5658657,3.5658657 0 0 1 1.092765,-1.09755 l 0.632654,-0.62787 h -0.186907 l -5.008515,5.00851 c 0,0.0576 0,0.11032 0,0.17245 z"
       id="path221"
       style="fill:#3f475b;stroke-width:0.264582" />
    <path
       class="cls-4"
       d="m 76.406184,135.82757 0.20129,-0.0335 0.119919,-0.11974 h -0.172632 z"
       id="path222"
       style="fill:#3f475b;stroke-width:0.264582" />
    <path
       class="cls-4"
       d="m 73.30043,139.10109 c 0,-0.0719 0.03351,-0.13894 0.048,-0.21569 l -2.904459,2.90446 c 0,0.0574 0,0.10543 0,0.15814 z"
       id="path223"
       style="fill:#3f475b;stroke-width:0.264582" />
    <path
       class="cls-4"
       d="m 77.561264,135.66462 h 0.163032 v 0 z"
       id="path224"
       style="fill:#3f475b;stroke-width:0.264582" />
    <path
       class="cls-4"
       d="m 73.161437,140.2274 a 1.0064943,1.0064943 0 0 1 0,-0.17263 l -2.655227,2.65522 a 1.3851279,1.3851279 0 0 0 0,0.13894 z"
       id="path225"
       style="fill:#3f475b;stroke-width:0.264582" />
    <path
       class="cls-4"
       d="m 73.151854,141.2243 c 0,-0.0527 0,-0.10542 0,-0.15343 l -2.487481,2.4731 a 1.2509287,1.2509287 0 0 0 0.02875,0.12934 z"
       id="path226"
       style="fill:#3f475b;stroke-width:0.264582" />
    <path
       class="cls-4"
       d="M 78.567749,135.65025 Z"
       id="path227"
       style="fill:#3f475b;stroke-width:0.264582" />
    <path
       class="cls-4"
       d="m 73.204568,142.10618 a 1.3851279,1.3851279 0 0 1 0,-0.13894 l -2.290969,2.39642 a 0.89146641,0.89146641 0 0 1 0.04793,0.11974 z"
       id="path228"
       style="fill:#3f475b;stroke-width:0.264582" />
    <path
       class="cls-4"
       d="m 73.372327,142.98327 -0.0288,-0.12934 -2.19032,2.19033 c 0,0.0335 0.02875,0.0719 0.04793,0.11032 z"
       id="path229"
       style="fill:#3f475b;stroke-width:0.264582" />
    <path
       class="cls-4"
       d="m 73.592801,143.75972 c 0,-0.0384 0,-0.0766 -0.0384,-0.11974 l -2.056127,2.05612 c 0,0.0288 0.03355,0.0719 0.05271,0.10543 z"
       id="path230"
       style="fill:#3f475b;stroke-width:0.264582" />
    <path
       class="cls-4"
       d="m 73.856405,144.47383 c 0,-0.0384 -0.03351,-0.0719 -0.048,-0.11013 l -1.917137,1.91712 0.0671,0.0911 z"
       id="path231"
       style="fill:#3f475b;stroke-width:0.264582" />
    <path
       class="cls-4"
       d="m 74.191888,145.13045 -0.05761,-0.10071 -1.816474,1.81648 0.07668,0.0815 z"
       id="path232"
       style="fill:#3f475b;stroke-width:0.264582" />
    <path
       class="cls-4"
       d="m 74.584903,145.72478 -0.07191,-0.0862 -1.706254,1.70145 0.08623,0.0815 z"
       id="path233"
       style="fill:#3f475b;stroke-width:0.264582" />
    <path
       class="cls-4"
       d="m 75.03065,146.26637 -0.07662,-0.0766 -1.605591,1.60081 0.09112,0.0719 z"
       id="path234"
       style="fill:#3f475b;stroke-width:0.264582" />
    <path
       class="cls-4"
       d="m 75.533892,146.75045 -0.08622,-0.067 -1.509728,1.50975 a 1.0783868,1.0783868 0 0 0 0.100717,0.0574 z"
       id="path235"
       style="fill:#3f475b;stroke-width:0.264582" />
    <path
       class="cls-4"
       d="m 76.094649,147.18179 -0.09112,-0.0623 -1.437849,1.43785 0.100718,0.0527 z"
       id="path236"
       style="fill:#3f475b;stroke-width:0.264582" />
    <path
       class="cls-4"
       d="m 76.71772,147.55564 -0.105427,-0.0623 -1.36117,1.36595 0.119738,0.0384 z"
       id="path237"
       style="fill:#3f475b;stroke-width:0.264582" />
    <polygon
       class="cls-4"
       points="175.93,96.82 175.97,96.91 176.06,96.82 "
       id="polygon237"
       style="fill:#3f475b;stroke-width:0.55204"
       transform="matrix(0.47928302,0,0,0.47928302,6.4931696,86.988639)" />
    <polygon
       class="cls-4"
       points="177.79,96.82 176.56,98.05 176.67,98.27 178.12,96.82 "
       id="polygon238"
       style="fill:#3f475b;stroke-width:0.55204"
       transform="matrix(0.47928302,0,0,0.47928302,6.4931696,86.988639)" />
    <path
       class="cls-4"
       d="m 77.398305,147.85758 -0.115028,-0.048 -1.294073,1.30366 0.119737,0.0384 z"
       id="path238"
       style="fill:#3f475b;stroke-width:0.264582" />
    <polygon
       class="cls-4"
       points="159.65,117.35 159.74,117.27 159.65,117.13 "
       id="polygon239"
       style="fill:#3f475b;stroke-width:0.55204"
       transform="matrix(0.47928302,0,0,0.47928302,6.4931696,86.988639)" />
    <polygon
       class="cls-4"
       points="179.85,96.82 177.26,99.41 177.37,99.64 180.19,96.82 "
       id="polygon240"
       style="fill:#3f475b;stroke-width:0.55204"
       transform="matrix(0.47928302,0,0,0.47928302,6.4931696,86.988639)" />
    <path
       class="cls-4"
       d="m 78.150769,148.09243 -0.124629,-0.0335 -1.260507,1.26051 0.13423,0.0288 z"
       id="path240"
       style="fill:#3f475b;stroke-width:0.264582" />
    <polygon
       class="cls-4"
       points="159.65,119.08 159.65,119.42 160.53,118.54 160.4,118.33 "
       id="polygon241"
       style="fill:#3f475b;stroke-width:0.55204"
       transform="matrix(0.47928302,0,0,0.47928302,6.4931696,86.988639)" />
    <polygon
       class="cls-4"
       points="181.92,96.82 177.96,100.77 178.08,100.99 182.25,96.82 "
       id="polygon242"
       style="fill:#3f475b;stroke-width:0.55204"
       transform="matrix(0.47928302,0,0,0.47928302,6.4931696,86.988639)" />
    <path
       class="cls-4"
       d="m 78.98473,148.24581 h -0.138939 l -1.250924,1.25092 h 0.14383 z"
       id="path242"
       style="fill:#3f475b;stroke-width:0.264582" />
    <polygon
       class="cls-4"
       points="159.65,121.15 159.65,121.48 161.33,119.8 161.19,119.6 "
       id="polygon243"
       style="fill:#3f475b;stroke-width:0.55204"
       transform="matrix(0.47928302,0,0,0.47928302,6.4931696,86.988639)" />
    <path
       class="cls-4"
       d="m 79.914536,148.3081 h -0.158141 l -1.270107,1.27011 h 0.14383 z"
       id="path243"
       style="fill:#3f475b;stroke-width:0.264582" />
    <polygon
       class="cls-4"
       points="183.98,96.82 178.66,102.13 178.77,102.36 184.32,96.82 "
       id="polygon244"
       style="fill:#3f475b;stroke-width:0.55204"
       transform="matrix(0.47928302,0,0,0.47928302,6.4931696,86.988639)" />
    <path
       class="cls-4"
       d="m 84.194535,145.02023 -0.06231,-0.10072 -1.111931,1.11193 c 0,0.0527 0,0.10543 0,0.15343 z"
       id="path244"
       style="fill:#3f475b;stroke-width:0.264582" />
    <path
       class="cls-4"
       d="m 80.782046,148.27456 -1.342005,1.34198 h 0.158141 l 1.356388,-1.35637 c -0.05761,0 -0.115028,0 -0.172633,0"
       id="path245"
       style="fill:#3f475b;stroke-width:0.264582" />
    <polygon
       class="cls-4"
       points="186.36,96.82 186.04,96.82 179.36,103.5 179.48,103.72 186.36,96.83 "
       id="polygon245"
       style="fill:#3f475b;stroke-width:0.55204"
       transform="matrix(0.47928302,0,0,0.47928302,6.4931696,86.988639)" />
    <path
       class="cls-4"
       d="m 82.128815,148.07327 -0.20609,0.048 -1.43785,1.43785 h 0.177343 z"
       id="path246"
       style="fill:#3f475b;stroke-width:0.264582" />
    <path
       class="cls-4"
       d="m 84.573167,145.62411 -0.0576,-0.0958 -1.337204,1.32282 0.05271,0.10543 z"
       id="path247"
       style="fill:#3f475b;stroke-width:0.264582" />
    <polygon
       class="cls-4"
       points="180.06,104.86 180.18,105.08 186.37,98.89 186.37,98.56 "
       id="polygon247"
       style="fill:#3f475b;stroke-width:0.55204"
       transform="matrix(0.47928302,0,0,0.47928302,6.4931696,86.988639)" />
    <polygon
       class="cls-4"
       points="160.87,126.12 161.01,126.31 163.56,123.76 163.47,123.53 "
       id="polygon248"
       style="fill:#3f475b;stroke-width:0.55204"
       transform="matrix(0.47928302,0,0,0.47928302,6.4931696,86.988639)" />
    <path
       class="cls-4"
       d="m 93.113982,137.91246 0.048,0.11503 2.650443,-2.65044 v -0.15815 z"
       id="path248"
       style="fill:#3f475b;stroke-width:0.264582" />
    <path
       class="cls-4"
       d="m 83.537916,147.65149 -0.254022,0.0958 -1.68707,1.69187 0.186907,-0.0335 z"
       id="path249"
       style="fill:#3f475b;stroke-width:0.264582" />
    <path
       class="cls-4"
       d="m 85.157889,147.02363 -0.06231,-0.12463 -2.295776,2.30056 0.201308,-0.048 z"
       id="path250"
       style="fill:#3f475b;stroke-width:0.264582" />
    <path
       class="cls-4"
       d="m 93.358421,138.66014 a 1.2509287,1.2509287 0 0 1 0.0288,0.12934 l 2.429951,-2.42519 v -0.15814 z"
       id="path251"
       style="fill:#3f475b;stroke-width:0.264582" />
    <path
       class="cls-4"
       d="m 85.426294,147.74255 -0.04311,-0.11503 -1.246142,1.25094 0.225256,-0.0623 z"
       id="path252"
       style="fill:#3f475b;stroke-width:0.264582" />
    <path
       class="cls-4"
       d="m 95.817138,137.19353 -2.324506,2.32452 c 0,0.0527 0,0.10072 0,0.15343 l 2.319724,-2.31972 z"
       id="path253"
       style="fill:#3f475b;stroke-width:0.264582" />
    <path
       class="cls-4"
       d="m 85.65635,148.33687 -0.05761,0.0576 h 0.06702 z"
       id="path254"
       style="fill:#3f475b;stroke-width:0.264582" />
    <polygon
       class="cls-4"
       points="181.54,111.64 181.54,111.98 186.36,107.14 186.36,106.81 "
       id="polygon254"
       style="fill:#3f475b;stroke-width:0.55204"
       transform="matrix(0.47928302,0,0,0.47928302,6.4931696,86.988639)" />
    <polygon
       class="cls-4"
       points="181.53,113.71 181.53,114.05 186.37,109.22 186.37,108.88 "
       id="polygon255"
       style="fill:#3f475b;stroke-width:0.55204"
       transform="matrix(0.47928302,0,0,0.47928302,6.4931696,86.988639)" />
    <polygon
       class="cls-4"
       points="181.53,115.77 181.53,116.11 186.37,111.28 186.37,110.94 "
       id="polygon256"
       style="fill:#3f475b;stroke-width:0.55204"
       transform="matrix(0.47928302,0,0,0.47928302,6.4931696,86.988639)" />
    <polygon
       class="cls-4"
       points="181.52,117.85 181.52,118.19 186.37,113.34 186.37,113.01 "
       id="polygon257"
       style="fill:#3f475b;stroke-width:0.55204"
       transform="matrix(0.47928302,0,0,0.47928302,6.4931696,86.988639)" />
    <path
       class="cls-4"
       d="m 95.817138,142.2979 v -0.15814 l -2.310141,2.30536 c 0,0.0527 0,0.10543 0,0.15343 z"
       id="path257"
       style="fill:#3f475b;stroke-width:0.264582" />
    <polygon
       class="cls-4"
       points="206.67,96.82 206.6,96.91 206.72,97.11 207.02,96.82 "
       id="polygon258"
       style="fill:#3f475b;stroke-width:0.55204"
       transform="matrix(0.47928302,0,0,0.47928302,6.4931696,86.988639)" />
    <path
       class="cls-4"
       d="m 95.817138,143.29001 v -0.16285 l -2.228662,2.22866 a 1.3851279,1.3851279 0 0 1 0,0.13894 z"
       id="path258"
       style="fill:#3f475b;stroke-width:0.264582" />
    <path
       class="cls-4"
       d="m 95.831521,144.25816 c 0,-0.048 0,-0.10072 0,-0.15343 l -2.065702,2.0609 0.04311,0.12463 z"
       id="path259"
       style="fill:#3f475b;stroke-width:0.264582" />
    <polygon
       class="cls-4"
       points="208.74,96.82 207.39,98.17 207.53,98.37 209.07,96.82 "
       id="polygon259"
       style="fill:#3f475b;stroke-width:0.55204"
       transform="matrix(0.47928302,0,0,0.47928302,6.4931696,86.988639)" />
    <path
       class="cls-4"
       d="m 95.922583,145.15922 c 0,-0.048 0,-0.0958 0,-0.14383 l -1.869195,1.86921 0.05271,0.11032 z"
       id="path260"
       style="fill:#3f475b;stroke-width:0.264582" />
    <polygon
       class="cls-4"
       points="207.52,100.1 207.52,100.44 210.2,97.76 210.21,97.42 "
       id="polygon260"
       style="fill:#3f475b;stroke-width:0.55204"
       transform="matrix(0.47928302,0,0,0.47928302,6.4931696,86.988639)" />
    <path
       class="cls-4"
       d="m 96.119091,145.96441 -0.04311,-0.11502 -1.677488,1.67268 a 1.1454864,1.1454864 0 0 1 0.06231,0.10072 z"
       id="path261"
       style="fill:#3f475b;stroke-width:0.264582" />
    <polygon
       class="cls-4"
       points="207.52,102.17 207.52,102.5 210.18,99.84 210.19,99.51 "
       id="polygon261"
       style="fill:#3f475b;stroke-width:0.55204"
       transform="matrix(0.47928302,0,0,0.47928302,6.4931696,86.988639)" />
    <path
       class="cls-4"
       d="m 96.382695,146.67855 c 0,-0.0335 -0.03351,-0.0719 -0.05271,-0.11032 l -1.504945,1.50496 a 0.65661773,0.65661773 0 0 0 0.08151,0.0815 z"
       id="path262"
       style="fill:#3f475b;stroke-width:0.264582" />
    <polygon
       class="cls-4"
       points="207.52,104.23 207.52,104.57 210.16,101.92 210.17,101.59 "
       id="polygon262"
       style="fill:#3f475b;stroke-width:0.55204"
       transform="matrix(0.47928302,0,0,0.47928302,6.4931696,86.988639)" />
    <path
       class="cls-4"
       d="m 96.77571,147.27285 c -0.02391,-0.0288 -0.048,-0.0623 -0.07192,-0.0862 l -1.351569,1.35157 0.09112,0.067 z"
       id="path263"
       style="fill:#3f475b;stroke-width:0.264582" />
    <polygon
       class="cls-4"
       points="207.52,106.29 207.52,106.63 210.15,104 210.15,103.67 "
       id="polygon263"
       style="fill:#3f475b;stroke-width:0.55204"
       transform="matrix(0.47928302,0,0,0.47928302,6.4931696,86.988639)" />
    <polygon
       class="cls-4"
       points="207.52,108.36 207.52,108.69 210.13,106.08 210.13,105.75 "
       id="polygon264"
       style="fill:#3f475b;stroke-width:0.55204"
       transform="matrix(0.47928302,0,0,0.47928302,6.4931696,86.988639)" />
    <path
       class="cls-4"
       d="m 97.283753,147.75693 -0.09112,-0.067 -1.241341,1.23176 0.105427,0.0576 z"
       id="path264"
       style="fill:#3f475b;stroke-width:0.264582" />
    <polygon
       class="cls-4"
       points="207.52,110.42 207.52,110.76 210.1,108.17 210.12,107.83 "
       id="polygon265"
       style="fill:#3f475b;stroke-width:0.55204"
       transform="matrix(0.47928302,0,0,0.47928302,6.4931696,86.988639)" />
    <path
       class="cls-4"
       d="m 97.902024,148.12598 a 1.0831796,1.0831796 0 0 0 -0.105428,-0.0527 l -1.169444,1.16464 0.115028,0.048 z"
       id="path265"
       style="fill:#3f475b;stroke-width:0.264582" />
    <polygon
       class="cls-4"
       points="221.12,96.82 220.46,97.48 220.57,97.7 221.46,96.82 "
       id="polygon266"
       style="fill:#3f475b;stroke-width:0.55204"
       transform="matrix(0.47928302,0,0,0.47928302,6.4931696,86.988639)" />
    <path
       class="cls-4"
       d="m 98.63054,148.38958 -0.115028,-0.0527 -1.126314,1.12631 0.124629,0.0335 z"
       id="path266"
       style="fill:#3f475b;stroke-width:0.264582" />
    <polygon
       class="cls-4"
       points="207.52,112.48 207.52,112.81 210.09,110.26 210.09,109.92 "
       id="polygon267"
       style="fill:#3f475b;stroke-width:0.55204"
       transform="matrix(0.47928302,0,0,0.47928302,6.4931696,86.988639)" />
    <polygon
       class="cls-4"
       points="223.19,96.82 221.17,98.84 221.28,99.06 223.52,96.82 "
       id="polygon268"
       style="fill:#3f475b;stroke-width:0.55204"
       transform="matrix(0.47928302,0,0,0.47928302,6.4931696,86.988639)" />
    <path
       class="cls-4"
       d="m 99.474084,148.55254 h -0.134229 l -1.135897,1.13112 h 0.143831 z"
       id="path268"
       style="fill:#3f475b;stroke-width:0.264582" />
    <polygon
       class="cls-4"
       points="207.52,114.55 207.52,114.88 210.07,112.33 210.07,112 "
       id="polygon269"
       style="fill:#3f475b;stroke-width:0.55204"
       transform="matrix(0.47928302,0,0,0.47928302,6.4931696,86.988639)" />
    <polygon
       class="cls-4"
       points="225.25,96.82 221.86,100.2 221.99,100.43 225.59,96.82 "
       id="polygon270"
       style="fill:#3f475b;stroke-width:0.55204"
       transform="matrix(0.47928302,0,0,0.47928302,6.4931696,86.988639)" />
    <path
       class="cls-4"
       d="m 100.36074,148.63402 h -0.15343 l -1.150279,1.1407 c 0.048,0 0.105427,0 0.153431,0 z"
       id="path270"
       style="fill:#3f475b;stroke-width:0.264582" />
    <polygon
       class="cls-4"
       points="207.52,116.61 207.52,116.95 210.05,114.41 210.06,114.08 "
       id="polygon271"
       style="fill:#3f475b;stroke-width:0.55204"
       transform="matrix(0.47928302,0,0,0.47928302,6.4931696,86.988639)" />
    <polygon
       class="cls-4"
       points="227.32,96.82 222.57,101.57 222.67,101.78 227.65,96.82 "
       id="polygon272"
       style="fill:#3f475b;stroke-width:0.55204"
       transform="matrix(0.47928302,0,0,0.47928302,6.4931696,86.988639)" />
    <path
       class="cls-4"
       d="m 101.34328,148.63881 h -0.16303 l -1.188613,1.18862 h 0.158143 z"
       id="path272"
       style="fill:#3f475b;stroke-width:0.264582" />
    <polygon
       class="cls-4"
       points="223.27,102.93 223.38,103.14 229.71,96.83 229.37,96.83 "
       id="polygon273"
       style="fill:#3f475b;stroke-width:0.55204"
       transform="matrix(0.47928302,0,0,0.47928302,6.4931696,86.988639)" />
    <path
       class="cls-4"
       d="m 107.14261,142.82511 v -0.16303 l -1.20301,1.20299 c 0,0.0623 0,0.11032 0,0.16304 z"
       id="path273"
       style="fill:#3f475b;stroke-width:0.264582" />
    <path
       class="cls-4"
       d="m 107.14261,143.82202 v -0.16304 l -1.25093,1.25573 c 0,0.0574 0,0.11974 0,0.17734 z"
       id="path274"
       style="fill:#3f475b;stroke-width:0.264582" />
    <polygon
       class="cls-4"
       points="223.97,104.29 224.08,104.51 230.56,98.03 230.56,97.7 "
       id="polygon274"
       style="fill:#3f475b;stroke-width:0.55204"
       transform="matrix(0.47928302,0,0,0.47928302,6.4931696,86.988639)" />
    <path
       class="cls-4"
       d="m 102.42646,148.54774 -0.19171,0.0288 -1.26052,1.2605 h 0.16303 z"
       id="path275"
       style="fill:#3f475b;stroke-width:0.264582" />
    <path
       class="cls-4"
       d="m 107.10906,144.85248 c 0,-0.0574 0,-0.11031 0,-0.17245 l -1.48578,1.49057 c -0.0288,0.0815 -0.0527,0.16774 -0.0862,0.24443 z"
       id="path276"
       style="fill:#3f475b;stroke-width:0.264582" />
    <path
       class="cls-4"
       d="m 103.78761,148.19788 c -0.0766,0.0335 -0.16774,0.0576 -0.254,0.0911 l -1.50016,1.48578 h 0.18212 z"
       id="path277"
       style="fill:#3f475b;stroke-width:0.264582" />
    <path
       class="cls-4"
       d="m 114.17369,137.62967 c 0,0.0384 0.0335,0.0719 0.0478,0.11032 l 2.77505,-2.77505 v -0.15814 z"
       id="path278"
       style="fill:#3f475b;stroke-width:0.264582" />
    <path
       class="cls-4"
       d="m 114.45166,138.33902 c 0,0.0384 0.0239,0.0766 0.0384,0.11974 l 2.50665,-2.50185 v -0.16774 z"
       id="path279"
       style="fill:#3f475b;stroke-width:0.264582" />
    <path
       class="cls-4"
       d="m 106.91255,146.03631 c 0,-0.0672 0.0335,-0.13423 0.048,-0.21089 l -3.72882,3.73361 0.21087,-0.0527 z"
       id="path280"
       style="fill:#3f475b;stroke-width:0.264582" />
    <path
       class="cls-4"
       d="m 116.99666,136.78135 -2.36286,2.36287 c 0,0.048 0,0.0958 0.0239,0.14383 l 2.3389,-2.34849 z"
       id="path281"
       style="fill:#3f475b;stroke-width:0.264582" />
    <path
       class="cls-4"
       d="m 106.02588,147.91509 a 3.7815431,3.7815431 0 0 0 0.34508,-0.50804 l -1.51453,1.51932 a 5.7034679,5.7034679 0 0 0 0.51283,-0.35466 z"
       id="path282"
       style="fill:#3f475b;stroke-width:0.264582" />
    <polygon
       class="cls-4"
       points="225.74,110.78 225.74,111.11 230.56,106.3 230.56,105.96 "
       id="polygon282"
       style="fill:#3f475b;stroke-width:0.55204"
       transform="matrix(0.47928302,0,0,0.47928302,6.4931696,86.988639)" />
    <polygon
       class="cls-4"
       points="225.74,112.85 225.74,113.17 230.56,108.35 230.56,108.02 "
       id="polygon283"
       style="fill:#3f475b;stroke-width:0.55204"
       transform="matrix(0.47928302,0,0,0.47928302,6.4931696,86.988639)" />
    <polygon
       class="cls-4"
       points="225.74,114.91 225.74,115.25 230.56,110.41 230.56,110.09 "
       id="polygon284"
       style="fill:#3f475b;stroke-width:0.55204"
       transform="matrix(0.47928302,0,0,0.47928302,6.4931696,86.988639)" />
    <polygon
       class="cls-4"
       points="225.74,116.97 225.74,117.3 230.56,112.48 230.56,112.15 "
       id="polygon285"
       style="fill:#3f475b;stroke-width:0.55204"
       transform="matrix(0.47928302,0,0,0.47928302,6.4931696,86.988639)" />
    <polygon
       class="cls-4"
       points="225.72,119.05 225.72,119.39 230.56,114.55 230.56,114.21 "
       id="polygon286"
       style="fill:#3f475b;stroke-width:0.55204"
       transform="matrix(0.47928302,0,0,0.47928302,6.4931696,86.988639)" />
    <path
       class="cls-4"
       d="m 116.99666,142.87783 v -0.15814 l -2.33891,2.3341 v 0.16303 z"
       id="path286"
       style="fill:#3f475b;stroke-width:0.264582" />
    <path
       class="cls-4"
       d="m 116.99666,143.86515 v -0.15814 l -2.37246,2.36765 c 0,0.0576 0,0.11503 0,0.17245 z"
       id="path287"
       style="fill:#3f475b;stroke-width:0.264582" />
    <path
       class="cls-4"
       d="m 116.99666,144.85248 v -0.15814 l -2.42997,2.42997 c 0,0.0527 0,0.11503 0,0.16774 z"
       id="path288"
       style="fill:#3f475b;stroke-width:0.264582" />
    <path
       class="cls-4"
       d="m 116.99666,145.84459 v -0.15814 l -2.50185,2.49706 v 0.17734 z"
       id="path289"
       style="fill:#3f475b;stroke-width:0.264582" />
    <path
       class="cls-4"
       d="m 116.96791,146.86547 v -0.17734 l -2.57854,2.57855 v 0.17245 z"
       id="path290"
       style="fill:#3f475b;stroke-width:0.264582" />
    <polygon
       class="cls-4"
       points="257.36,97.73 257.47,97.95 257.98,97.44 257.76,97.33 "
       id="polygon290"
       style="fill:#3f475b;stroke-width:0.55204"
       transform="matrix(0.47928302,0,0,0.47928302,6.4931696,86.988639)" />
    <polygon
       class="cls-4"
       points="258.06,99.09 258.18,99.31 259.28,98.22 259.07,98.09 "
       id="polygon291"
       style="fill:#3f475b;stroke-width:0.55204"
       transform="matrix(0.47928302,0,0,0.47928302,6.4931696,86.988639)" />
    <polygon
       class="cls-4"
       points="224.94,132.21 224.91,132.57 226.47,131.02 227.54,129.61 "
       id="polygon292"
       style="fill:#3f475b;stroke-width:0.55204"
       transform="matrix(0.47928302,0,0,0.47928302,6.4931696,86.988639)" />
    <polygon
       class="cls-4"
       points="258.77,100.46 258.88,100.68 260.59,98.97 260.37,98.84 "
       id="polygon293"
       style="fill:#3f475b;stroke-width:0.55204"
       transform="matrix(0.47928302,0,0,0.47928302,6.4931696,86.988639)" />
    <polygon
       class="cls-4"
       points="259.47,101.81 259.58,102.04 261.9,99.72 261.68,99.6 "
       id="polygon294"
       style="fill:#3f475b;stroke-width:0.55204"
       transform="matrix(0.47928302,0,0,0.47928302,6.4931696,86.988639)" />
    <polygon
       class="cls-4"
       points="260.17,103.18 260.28,103.4 263.2,100.48 262.99,100.36 "
       id="polygon295"
       style="fill:#3f475b;stroke-width:0.55204"
       transform="matrix(0.47928302,0,0,0.47928302,6.4931696,86.988639)" />
    <polygon
       class="cls-4"
       points="260.87,104.53 260.99,104.76 264.51,101.23 264.29,101.11 "
       id="polygon296"
       style="fill:#3f475b;stroke-width:0.55204"
       transform="matrix(0.47928302,0,0,0.47928302,6.4931696,86.988639)" />
    <path
       class="cls-4"
       d="m 133.83387,135.93302 -0.0719,-0.0911 -1.91714,1.91713 0.048,0.11032 z"
       id="path296"
       style="fill:#3f475b;stroke-width:0.264582" />
    <path
       class="cls-4"
       d="m 134.26043,136.49378 -0.0431,-0.0574 -0.0239,-0.0335 -2.07529,2.0753 a 1.1982075,1.1982075 0 0 0 0.0335,0.12463 z"
       id="path297"
       style="fill:#3f475b;stroke-width:0.264582" />
    <path
       class="cls-4"
       d="m 134.56718,137.17436 a 1.2509287,1.2509287 0 0 0 -0.0288,-0.12934 l -2.26221,2.25743 a 0.78123132,0.78123132 0 0 1 0,0.14854 z"
       id="path298"
       style="fill:#3f475b;stroke-width:0.264582" />
    <polygon
       class="cls-4"
       points="262.51,111.15 262.51,111.48 267.33,106.66 267.33,106.33 "
       id="polygon298"
       style="fill:#3f475b;stroke-width:0.55204"
       transform="matrix(0.47928302,0,0,0.47928302,6.4931696,86.988639)" />
    <polygon
       class="cls-4"
       points="262.51,113.21 262.51,113.55 267.33,108.73 267.33,108.39 "
       id="polygon299"
       style="fill:#3f475b;stroke-width:0.55204"
       transform="matrix(0.47928302,0,0,0.47928302,6.4931696,86.988639)" />
    <polygon
       class="cls-4"
       points="262.51,115.27 262.51,115.61 267.33,110.79 267.33,110.45 "
       id="polygon300"
       style="fill:#3f475b;stroke-width:0.55204"
       transform="matrix(0.47928302,0,0,0.47928302,6.4931696,86.988639)" />
    <polygon
       class="cls-4"
       points="262.51,117.34 262.51,117.67 267.33,112.86 267.33,112.52 "
       id="polygon301"
       style="fill:#3f475b;stroke-width:0.55204"
       transform="matrix(0.47928302,0,0,0.47928302,6.4931696,86.988639)" />
    <polygon
       class="cls-4"
       points="262.51,119.41 262.51,119.74 267.33,114.92 267.33,114.58 "
       id="polygon302"
       style="fill:#3f475b;stroke-width:0.55204"
       transform="matrix(0.47928302,0,0,0.47928302,6.4931696,86.988639)" />
    <polygon
       class="cls-4"
       points="262.51,121.47 262.51,121.81 267.33,116.98 267.33,116.65 "
       id="polygon303"
       style="fill:#3f475b;stroke-width:0.55204"
       transform="matrix(0.47928302,0,0,0.47928302,6.4931696,86.988639)" />
    <polygon
       class="cls-4"
       points="262.51,123.53 262.51,123.87 267.33,119.04 267.33,118.71 "
       id="polygon304"
       style="fill:#3f475b;stroke-width:0.55204"
       transform="matrix(0.47928302,0,0,0.47928302,6.4931696,86.988639)" />
    <polygon
       class="cls-4"
       points="262.51,125.59 262.51,125.93 267.33,121.11 267.33,120.78 "
       id="polygon305"
       style="fill:#3f475b;stroke-width:0.55204"
       transform="matrix(0.47928302,0,0,0.47928302,6.4931696,86.988639)" />
    <polygon
       class="cls-4"
       points="262.51,127.65 262.51,128 267.33,123.17 267.33,122.84 "
       id="polygon306"
       style="fill:#3f475b;stroke-width:0.55204"
       transform="matrix(0.47928302,0,0,0.47928302,6.4931696,86.988639)" />
    <polygon
       class="cls-4"
       points="262.51,129.72 262.51,130.06 267.33,125.24 267.33,124.91 "
       id="polygon307"
       style="fill:#3f475b;stroke-width:0.55204"
       transform="matrix(0.47928302,0,0,0.47928302,6.4931696,86.988639)" />
    <polygon
       class="cls-4"
       points="262.51,131.79 262.51,132.12 267.33,127.3 267.33,126.96 "
       id="polygon308"
       style="fill:#3f475b;stroke-width:0.55204"
       transform="matrix(0.47928302,0,0,0.47928302,6.4931696,86.988639)" />
    <polygon
       class="cls-4"
       points="263.24,133.12 263.58,133.12 267.34,129.37 267.34,129.03 "
       id="polygon309"
       style="fill:#3f475b;stroke-width:0.55204"
       transform="matrix(0.47928302,0,0,0.47928302,6.4931696,86.988639)" />
    <polygon
       class="cls-4"
       points="265.3,133.12 265.64,133.12 267.33,131.43 267.33,131.1 "
       id="polygon310"
       style="fill:#3f475b;stroke-width:0.55204"
       transform="matrix(0.47928302,0,0,0.47928302,6.4931696,86.988639)" />
    <path
       class="cls-4"
       d="m 158.84766,133.66601 -0.28757,0.12463 v 0 c 0.0766,-0.0288 0.15814,-0.0527 0.23006,-0.0719 z"
       id="path310"
       style="fill:#3f475b;stroke-width:0.264582" />
    <path
       class="cls-4"
       d="m 160.51076,132.99981 -0.25402,0.0911 -0.41218,0.42177 h 0.16303 z"
       id="path311"
       style="fill:#3f475b;stroke-width:0.264582" />
    <path
       class="cls-4"
       d="m 161.86713,132.62596 -0.1965,0.0335 -0.95856,0.95855 0.11032,0.048 z"
       id="path312"
       style="fill:#3f475b;stroke-width:0.264582" />
    <path
       class="cls-4"
       d="m 162.81132,132.66911 -0.12463,-0.0335 -1.38513,1.38992 0.0719,0.0815 z"
       id="path313"
       style="fill:#3f475b;stroke-width:0.264582" />
    <path
       class="cls-4"
       d="m 163.42001,133.04774 a 0.58472528,0.58472528 0 0 0 -0.0815,-0.0719 l -1.63913,1.62956 0.0576,0.10543 z"
       id="path314"
       style="fill:#3f475b;stroke-width:0.264582" />
    <path
       class="cls-4"
       d="m 163.84179,133.61808 -0.0623,-0.0958 -1.74939,1.74937 0.048,0.11032 z"
       id="path315"
       style="fill:#3f475b;stroke-width:0.264582" />
    <polygon
       class="cls-4"
       points="325.18,102.14 325.28,102.37 328.98,98.66 328.87,98.44 "
       id="polygon315"
       style="fill:#3f475b;stroke-width:0.55204"
       transform="matrix(0.47928302,0,0,0.47928302,6.4931696,86.988639)" />
    <polygon
       class="cls-4"
       points="325.84,103.55 325.94,103.78 329.64,100.07 329.54,99.85 "
       id="polygon316"
       style="fill:#3f475b;stroke-width:0.55204"
       transform="matrix(0.47928302,0,0,0.47928302,6.4931696,86.988639)" />
    <polygon
       class="cls-4"
       points="326.5,104.95 326.6,105.19 330.31,101.47 330.2,101.25 "
       id="polygon317"
       style="fill:#3f475b;stroke-width:0.55204"
       transform="matrix(0.47928302,0,0,0.47928302,6.4931696,86.988639)" />
    <polygon
       class="cls-4"
       points="327.16,106.35 327.26,106.58 330.97,102.87 330.86,102.65 "
       id="polygon318"
       style="fill:#3f475b;stroke-width:0.55204"
       transform="matrix(0.47928302,0,0,0.47928302,6.4931696,86.988639)" />
    <polygon
       class="cls-4"
       points="327.82,107.75 327.92,107.99 331.63,104.27 331.52,104.05 "
       id="polygon319"
       style="fill:#3f475b;stroke-width:0.55204"
       transform="matrix(0.47928302,0,0,0.47928302,6.4931696,86.988639)" />
    <polygon
       class="cls-4"
       points="328.48,109.16 328.58,109.39 332.29,105.68 332.19,105.46 "
       id="polygon320"
       style="fill:#3f475b;stroke-width:0.55204"
       transform="matrix(0.47928302,0,0,0.47928302,6.4931696,86.988639)" />
    <polygon
       class="cls-4"
       points="329.14,110.56 329.24,110.8 332.95,107.08 332.85,106.86 "
       id="polygon321"
       style="fill:#3f475b;stroke-width:0.55204"
       transform="matrix(0.47928302,0,0,0.47928302,6.4931696,86.988639)" />
    <polygon
       class="cls-4"
       points="329.8,111.97 329.9,112.2 333.62,108.49 333.51,108.26 "
       id="polygon322"
       style="fill:#3f475b;stroke-width:0.55204"
       transform="matrix(0.47928302,0,0,0.47928302,6.4931696,86.988639)" />
    <polygon
       class="cls-4"
       points="330.45,113.37 330.56,113.6 334.27,109.89 334.16,109.66 "
       id="polygon323"
       style="fill:#3f475b;stroke-width:0.55204"
       transform="matrix(0.47928302,0,0,0.47928302,6.4931696,86.988639)" />
    <polygon
       class="cls-4"
       points="331.12,114.78 331.22,115 334.93,111.29 334.83,111.06 "
       id="polygon324"
       style="fill:#3f475b;stroke-width:0.55204"
       transform="matrix(0.47928302,0,0,0.47928302,6.4931696,86.988639)" />
    <polygon
       class="cls-4"
       points="349.23,96.82 349.29,96.94 349.4,96.82 "
       id="polygon325"
       style="fill:#3f475b;stroke-width:0.55204"
       transform="matrix(0.47928302,0,0,0.47928302,6.4931696,86.988639)" />
    <polygon
       class="cls-4"
       points="331.77,116.18 331.88,116.41 335.6,112.69 335.49,112.46 "
       id="polygon326"
       style="fill:#3f475b;stroke-width:0.55204"
       transform="matrix(0.47928302,0,0,0.47928302,6.4931696,86.988639)" />
    <polygon
       class="cls-4"
       points="351.13,96.82 349.88,98.07 349.99,98.29 351.48,96.82 "
       id="polygon327"
       style="fill:#3f475b;stroke-width:0.55204"
       transform="matrix(0.47928302,0,0,0.47928302,6.4931696,86.988639)" />
    <polygon
       class="cls-4"
       points="353.2,96.82 350.58,99.44 350.7,99.66 353.53,96.82 "
       id="polygon328"
       style="fill:#3f475b;stroke-width:0.55204"
       transform="matrix(0.47928302,0,0,0.47928302,6.4931696,86.988639)" />
    <polygon
       class="cls-4"
       points="332.44,117.59 332.54,117.81 336.26,114.09 336.15,113.87 "
       id="polygon329"
       style="fill:#3f475b;stroke-width:0.55204"
       transform="matrix(0.47928302,0,0,0.47928302,6.4931696,86.988639)" />
    <polygon
       class="cls-4"
       points="333.1,118.99 333.21,119.22 336.92,115.49 336.81,115.27 "
       id="polygon330"
       style="fill:#3f475b;stroke-width:0.55204"
       transform="matrix(0.47928302,0,0,0.47928302,6.4931696,86.988639)" />
    <polygon
       class="cls-4"
       points="355.26,96.82 351.28,100.8 351.39,101.02 355.6,96.82 "
       id="polygon331"
       style="fill:#3f475b;stroke-width:0.55204"
       transform="matrix(0.47928302,0,0,0.47928302,6.4931696,86.988639)" />
    <polygon
       class="cls-4"
       points="333.76,120.39 333.86,120.62 337.58,116.9 337.47,116.67 "
       id="polygon332"
       style="fill:#3f475b;stroke-width:0.55204"
       transform="matrix(0.47928302,0,0,0.47928302,6.4931696,86.988639)" />
    <polygon
       class="cls-4"
       points="357.33,96.82 351.99,102.17 352.09,102.38 357.66,96.82 "
       id="polygon333"
       style="fill:#3f475b;stroke-width:0.55204"
       transform="matrix(0.47928302,0,0,0.47928302,6.4931696,86.988639)" />
    <polygon
       class="cls-4"
       points="359.67,96.82 359.39,96.82 352.69,103.53 352.8,103.74 359.67,96.87 "
       id="polygon334"
       style="fill:#3f475b;stroke-width:0.55204"
       transform="matrix(0.47928302,0,0,0.47928302,6.4931696,86.988639)" />
    <polygon
       class="cls-4"
       points="334.42,121.79 334.52,122.02 338.24,118.3 338.13,118.07 "
       id="polygon335"
       style="fill:#3f475b;stroke-width:0.55204"
       transform="matrix(0.47928302,0,0,0.47928302,6.4931696,86.988639)" />
    <polygon
       class="cls-4"
       points="353.39,104.89 353.5,105.11 359.67,98.93 359.67,98.6 "
       id="polygon336"
       style="fill:#3f475b;stroke-width:0.55204"
       transform="matrix(0.47928302,0,0,0.47928302,6.4931696,86.988639)" />
    <polygon
       class="cls-4"
       points="335.07,123.19 335.19,123.42 338.9,119.71 338.8,119.48 "
       id="polygon337"
       style="fill:#3f475b;stroke-width:0.55204"
       transform="matrix(0.47928302,0,0,0.47928302,6.4931696,86.988639)" />
    <path
       class="cls-4"
       d="m 176.18333,137.92684 0.048,0.11503 2.64564,-2.64564 v -0.15814 z"
       id="path337"
       style="fill:#3f475b;stroke-width:0.264582" />
    <polygon
       class="cls-4"
       points="335.74,124.61 335.85,124.83 339.57,121.1 339.45,120.88 "
       id="polygon338"
       style="fill:#3f475b;stroke-width:0.55204"
       transform="matrix(0.47928302,0,0,0.47928302,6.4931696,86.988639)" />
    <polygon
       class="cls-4"
       points="336.4,126 336.5,126.23 340.23,122.51 340.12,122.28 "
       id="polygon339"
       style="fill:#3f475b;stroke-width:0.55204"
       transform="matrix(0.47928302,0,0,0.47928302,6.4931696,86.988639)" />
    <path
       class="cls-4"
       d="m 176.42775,138.67452 0.0288,0.13423 2.42039,-2.42516 v -0.15815 z"
       id="path339"
       style="fill:#3f475b;stroke-width:0.264582" />
    <polygon
       class="cls-4"
       points="337.06,127.41 337.17,127.64 340.89,123.91 340.78,123.69 "
       id="polygon340"
       style="fill:#3f475b;stroke-width:0.55204"
       transform="matrix(0.47928302,0,0,0.47928302,6.4931696,86.988639)" />
    <path
       class="cls-4"
       d="m 178.8769,137.21271 -2.31974,2.31972 c 0,0.0527 0,0.11032 0,0.15814 l 2.31494,-2.31492 z"
       id="path340"
       style="fill:#3f475b;stroke-width:0.264582" />
    <polygon
       class="cls-4"
       points="367.22,97.25 367.33,97.46 367.62,97.17 367.41,97.06 "
       id="polygon341"
       style="fill:#3f475b;stroke-width:0.55204"
       transform="matrix(0.47928302,0,0,0.47928302,6.4931696,86.988639)" />
    <polygon
       class="cls-4"
       points="354.85,111.68 354.85,112.01 359.67,107.19 359.67,106.86 "
       id="polygon342"
       style="fill:#3f475b;stroke-width:0.55204"
       transform="matrix(0.47928302,0,0,0.47928302,6.4931696,86.988639)" />
    <polygon
       class="cls-4"
       points="367.92,98.61 368.03,98.83 368.92,97.94 368.71,97.81 "
       id="polygon343"
       style="fill:#3f475b;stroke-width:0.55204"
       transform="matrix(0.47928302,0,0,0.47928302,6.4931696,86.988639)" />
    <path
       class="cls-4"
       d="m 170.19229,147.0476 -0.0527,-0.10543 -1.78772,1.78293 c 0.0239,0.0384 0.0384,0.0719 0.0574,0.10543 z"
       id="path343"
       style="fill:#3f475b;stroke-width:0.264582" />
    <path
       class="cls-4"
       d="m 170.50861,147.71858 -0.0527,-0.10543 -1.73502,1.73501 0.0623,0.0958 z"
       id="path344"
       style="fill:#3f475b;stroke-width:0.264582" />
    <polygon
       class="cls-4"
       points="368.62,99.97 368.74,100.19 370.23,98.69 370.02,98.57 "
       id="polygon344"
       style="fill:#3f475b;stroke-width:0.55204"
       transform="matrix(0.47928302,0,0,0.47928302,6.4931696,86.988639)" />
    <polygon
       class="cls-4"
       points="354.85,113.74 354.85,114.08 359.67,109.25 359.67,108.92 "
       id="polygon345"
       style="fill:#3f475b;stroke-width:0.55204"
       transform="matrix(0.47928302,0,0,0.47928302,6.4931696,86.988639)" />
    <polygon
       class="cls-4"
       points="354.85,115.8 354.85,116.14 359.67,111.32 359.67,110.99 "
       id="polygon346"
       style="fill:#3f475b;stroke-width:0.55204"
       transform="matrix(0.47928302,0,0,0.47928302,6.4931696,86.988639)" />
    <path
       class="cls-4"
       d="m 170.82495,148.39438 -0.0527,-0.11031 -1.56726,1.57206 0.0958,0.0623 z"
       id="path346"
       style="fill:#3f475b;stroke-width:0.264582" />
    <polygon
       class="cls-4"
       points="369.32,101.33 369.44,101.56 371.54,99.45 371.32,99.33 "
       id="polygon347"
       style="fill:#3f475b;stroke-width:0.55204"
       transform="matrix(0.47928302,0,0,0.47928302,6.4931696,86.988639)" />
    <polygon
       class="cls-4"
       points="354.85,117.86 354.85,118.21 359.67,113.39 359.67,113.05 "
       id="polygon348"
       style="fill:#3f475b;stroke-width:0.55204"
       transform="matrix(0.47928302,0,0,0.47928302,6.4931696,86.988639)" />
    <path
       class="cls-4"
       d="m 171.14126,149.06537 -0.0527,-0.10543 -1.15988,1.18385 h 0.13894 z"
       id="path348"
       style="fill:#3f475b;stroke-width:0.264582" />
    <polygon
       class="cls-4"
       points="370.03,102.69 370.14,102.91 372.83,100.21 372.63,100.09 "
       id="polygon349"
       style="fill:#3f475b;stroke-width:0.55204"
       transform="matrix(0.47928302,0,0,0.47928302,6.4931696,86.988639)" />
    <path
       class="cls-4"
       d="m 171.57741,149.62134 -0.0911,-0.067 -0.54637,0.54159 0.20129,-0.0431 z"
       id="path349"
       style="fill:#3f475b;stroke-width:0.264582" />
    <polygon
       class="cls-4"
       points="354.85,119.93 354.85,120.27 359.67,115.45 359.67,115.12 "
       id="polygon350"
       style="fill:#3f475b;stroke-width:0.55204"
       transform="matrix(0.47928302,0,0,0.47928302,6.4931696,86.988639)" />
    <polygon
       class="cls-4"
       points="370.73,104.06 370.84,104.28 374.15,100.97 373.94,100.84 "
       id="polygon351"
       style="fill:#3f475b;stroke-width:0.55204"
       transform="matrix(0.47928302,0,0,0.47928302,6.4931696,86.988639)" />
    <polygon
       class="cls-4"
       points="354.85,121.99 354.85,122.33 359.67,117.51 359.67,117.17 "
       id="polygon352"
       style="fill:#3f475b;stroke-width:0.55204"
       transform="matrix(0.47928302,0,0,0.47928302,6.4931696,86.988639)" />
    <path
       class="cls-4"
       d="m 184.51327,137.51464 c 0,0.0335 0.0335,0.067 0.0527,0.10543 l 1.874,-1.87878 -0.0958,-0.0574 z"
       id="path352"
       style="fill:#3f475b;stroke-width:0.264582" />
    <polygon
       class="cls-4"
       points="354.85,124.06 354.85,124.39 359.67,119.57 359.67,119.24 "
       id="polygon353"
       style="fill:#3f475b;stroke-width:0.55204"
       transform="matrix(0.47928302,0,0,0.47928302,6.4931696,86.988639)" />
    <path
       class="cls-4"
       d="m 184.78646,138.20961 a 1.0783868,1.0783868 0 0 1 0.0384,0.11503 l 2.03695,-2.03215 -0.0719,-0.0862 z"
       id="path353"
       style="fill:#3f475b;stroke-width:0.264582" />
    <path
       class="cls-4"
       d="m 185.00693,138.99564 a 1.3851279,1.3851279 0 0 1 0,0.13894 l 2.23824,-2.23346 c 0,-0.0431 -0.0335,-0.0766 -0.048,-0.11032 z"
       id="path354"
       style="fill:#3f475b;stroke-width:0.264582" />
    <polygon
       class="cls-4"
       points="354.85,126.12 354.85,126.46 359.67,121.63 359.67,121.3 "
       id="polygon354"
       style="fill:#3f475b;stroke-width:0.55204"
       transform="matrix(0.47928302,0,0,0.47928302,6.4931696,86.988639)" />
    <path
       class="cls-4"
       d="m 185.08361,139.91107 v 0.15814 l 2.30536,-2.31014 v -0.15344 z"
       id="path355"
       style="fill:#3f475b;stroke-width:0.264582" />
    <polygon
       class="cls-4"
       points="354.85,128.19 354.85,128.52 359.67,123.7 359.67,123.36 "
       id="polygon355"
       style="fill:#3f475b;stroke-width:0.55204"
       transform="matrix(0.47928302,0,0,0.47928302,6.4931696,86.988639)" />
    <polygon
       class="cls-4"
       points="354.85,130.25 354.85,130.59 359.67,125.76 359.67,125.43 "
       id="polygon356"
       style="fill:#3f475b;stroke-width:0.55204"
       transform="matrix(0.47928302,0,0,0.47928302,6.4931696,86.988639)" />
    <polygon
       class="cls-4"
       points="372.62,112.48 372.62,112.81 377.44,108 377.44,107.66 "
       id="polygon357"
       style="fill:#3f475b;stroke-width:0.55204"
       transform="matrix(0.47928302,0,0,0.47928302,6.4931696,86.988639)" />
    <polygon
       class="cls-4"
       points="372.62,114.55 372.62,114.88 377.44,110.06 377.44,109.72 "
       id="polygon358"
       style="fill:#3f475b;stroke-width:0.55204"
       transform="matrix(0.47928302,0,0,0.47928302,6.4931696,86.988639)" />
    <polygon
       class="cls-4"
       points="354.85,132.31 354.85,132.65 359.67,127.83 359.67,127.5 "
       id="polygon359"
       style="fill:#3f475b;stroke-width:0.55204"
       transform="matrix(0.47928302,0,0,0.47928302,6.4931696,86.988639)" />
    <polygon
       class="cls-4"
       points="356.1,133.12 356.44,133.12 359.67,129.89 359.67,129.55 "
       id="polygon360"
       style="fill:#3f475b;stroke-width:0.55204"
       transform="matrix(0.47928302,0,0,0.47928302,6.4931696,86.988639)" />
    <polygon
       class="cls-4"
       points="372.62,116.61 372.62,116.94 377.44,112.12 377.44,111.79 "
       id="polygon361"
       style="fill:#3f475b;stroke-width:0.55204"
       transform="matrix(0.47928302,0,0,0.47928302,6.4931696,86.988639)" />
    <polygon
       class="cls-4"
       points="358.17,133.12 358.5,133.12 359.67,131.95 359.67,131.62 "
       id="polygon362"
       style="fill:#3f475b;stroke-width:0.55204"
       transform="matrix(0.47928302,0,0,0.47928302,6.4931696,86.988639)" />
    <polygon
       class="cls-4"
       points="372.62,118.67 372.62,119.01 377.44,114.19 377.44,113.85 "
       id="polygon363"
       style="fill:#3f475b;stroke-width:0.55204"
       transform="matrix(0.47928302,0,0,0.47928302,6.4931696,86.988639)" />
    <polygon
       class="cls-4"
       points="372.62,120.73 372.62,121.08 377.44,116.24 377.44,115.91 "
       id="polygon364"
       style="fill:#3f475b;stroke-width:0.55204"
       transform="matrix(0.47928302,0,0,0.47928302,6.4931696,86.988639)" />
    <polygon
       class="cls-4"
       points="372.62,122.8 372.62,123.13 377.44,118.31 377.44,117.98 "
       id="polygon365"
       style="fill:#3f475b;stroke-width:0.55204"
       transform="matrix(0.47928302,0,0,0.47928302,6.4931696,86.988639)" />
    <polygon
       class="cls-4"
       points="372.62,124.86 372.62,125.2 377.44,120.38 377.44,120.04 "
       id="polygon366"
       style="fill:#3f475b;stroke-width:0.55204"
       transform="matrix(0.47928302,0,0,0.47928302,6.4931696,86.988639)" />
    <polygon
       class="cls-4"
       points="372.62,126.92 372.62,127.26 377.44,122.44 377.44,122.1 "
       id="polygon367"
       style="fill:#3f475b;stroke-width:0.55204"
       transform="matrix(0.47928302,0,0,0.47928302,6.4931696,86.988639)" />
    <polygon
       class="cls-4"
       points="372.62,128.99 372.62,129.33 377.44,124.5 377.44,124.17 "
       id="polygon368"
       style="fill:#3f475b;stroke-width:0.55204"
       transform="matrix(0.47928302,0,0,0.47928302,6.4931696,86.988639)" />
    <polygon
       class="cls-4"
       points="372.62,131.05 372.62,131.39 377.44,126.57 377.44,126.23 "
       id="polygon369"
       style="fill:#3f475b;stroke-width:0.55204"
       transform="matrix(0.47928302,0,0,0.47928302,6.4931696,86.988639)" />
    <polygon
       class="cls-4"
       points="372.95,133.13 377.44,128.63 377.44,128.3 372.62,133.11 372.62,133.13 "
       id="polygon370"
       style="fill:#3f475b;stroke-width:0.55204"
       transform="matrix(0.47928302,0,0,0.47928302,6.4931696,86.988639)" />
    <polygon
       class="cls-4"
       points="374.68,133.12 375.01,133.12 377.44,130.7 377.44,130.36 "
       id="polygon371"
       style="fill:#3f475b;stroke-width:0.55204"
       transform="matrix(0.47928302,0,0,0.47928302,6.4931696,86.988639)" />
    <path
       class="cls-4"
       d="m 193.56213,144.4307 c 0,0 0,0 0,0 v 0 0"
       id="path371"
       style="fill:#3f475b;stroke-width:0.264582" />
    <polygon
       class="cls-4"
       points="376.75,133.12 377.07,133.12 377.44,132.76 377.44,132.42 "
       id="polygon372"
       style="fill:#3f475b;stroke-width:0.55204"
       transform="matrix(0.47928302,0,0,0.47928302,6.4931696,86.988639)" />
    <path
       class="cls-4"
       d="m 194.95204,144.05207 -0.23485,0.067 -0.82436,0.8627 a 0.39301207,0.39301207 0 0 0 0.0574,0.0958 z"
       id="path372"
       style="fill:#3f475b;stroke-width:0.264582" />
    <path
       class="cls-4"
       d="m 195.83392,144.15272 -0.067,-0.0862 -1.52892,1.52411 0.0623,0.10072 z"
       id="path373"
       style="fill:#3f475b;stroke-width:0.264582" />
    <path
       class="cls-4"
       d="m 196.2557,144.72307 -0.067,-0.0911 -1.58645,1.58162 0.0574,0.10543 z"
       id="path374"
       style="fill:#3f475b;stroke-width:0.264582" />
    <path
       class="cls-4"
       d="m 196.66788,145.29821 -0.067,-0.0911 -1.63436,1.63435 0.0576,0.10072 z"
       id="path375"
       style="fill:#3f475b;stroke-width:0.264582" />
    <path
       class="cls-4"
       d="m 197.07048,145.88294 a 0.60868944,0.60868944 0 0 0 -0.0623,-0.0911 l -1.67748,1.67269 a 0.70933887,0.70933887 0 0 1 0.0623,0.10071 z"
       id="path376"
       style="fill:#3f475b;stroke-width:0.264582" />
    <path
       class="cls-4"
       d="m 197.47308,146.47246 -0.0623,-0.0958 -1.70623,1.70626 a 1.0783868,1.0783868 0 0 1 0.0574,0.10071 z"
       id="path377"
       style="fill:#3f475b;stroke-width:0.264582" />
    <path
       class="cls-4"
       d="m 197.87087,147.06196 -0.0623,-0.0911 -1.72542,1.72063 0.0623,0.0958 z"
       id="path378"
       style="fill:#3f475b;stroke-width:0.264582" />
    <path
       class="cls-4"
       d="m 198.26869,147.65629 -0.067,-0.0911 -1.72542,1.72542 a 1.0256657,1.0256657 0 0 1 0.0623,0.0911 z"
       id="path379"
       style="fill:#3f475b;stroke-width:0.264582" />
    <path
       class="cls-4"
       d="m 198.6569,148.25539 -0.0623,-0.0958 -1.70624,1.70146 c 0.0239,0.0335 0.0431,0.0623 0.0719,0.0958 z"
       id="path380"
       style="fill:#3f475b;stroke-width:0.264582" />
    <path
       class="cls-4"
       d="m 198.9876,148.75383 -1.64872,1.64874 0.0815,0.0766 1.62957,-1.62956 -0.0623,-0.0958"
       id="path381"
       style="fill:#3f475b;stroke-width:0.264582" />
    <path
       class="cls-4"
       d="m 199.42855,149.43922 c 0,-0.0288 -0.0335,-0.0574 -0.0527,-0.0815 l -1.43785,1.43785 a 0.20609169,0.20609169 0 0 0 0.11974,0 l 0.0815,-0.0288 1.30366,-1.30364 z"
       id="path382"
       style="fill:#3f475b;stroke-width:0.264582" />
    <path
       class="cls-4"
       d="m 200.01327,149.82263 -0.067,-0.0478 -0.18213,0.17734 c 0.0862,-0.0431 0.16775,-0.0815 0.24923,-0.12934"
       id="path383"
       style="fill:#3f475b;stroke-width:0.264582" />
  </g>
</svg>
