<?xml version="1.0" encoding="UTF-8" standalone="no"?>
<!-- Created with Inkscape (http://www.inkscape.org/) -->

<svg
   width="79.375mm"
   height="8.5130587mm"
   viewBox="0 0 79.374999 8.5130586"
   version="1.1"
   id="svg1"
   inkscape:version="1.4 (86a8ad7, 2024-10-11)"
   sodipodi:docname="Gulf Air 2001 wordmark.svg"
   xmlns:inkscape="http://www.inkscape.org/namespaces/inkscape"
   xmlns:sodipodi="http://sodipodi.sourceforge.net/DTD/sodipodi-0.dtd"
   xmlns="http://www.w3.org/2000/svg"
   xmlns:svg="http://www.w3.org/2000/svg">
  <sodipodi:namedview
     id="namedview1"
     pagecolor="#ffffff"
     bordercolor="#000000"
     borderopacity="0.25"
     inkscape:showpageshadow="2"
     inkscape:pageopacity="0.0"
     inkscape:pagecheckerboard="0"
     inkscape:deskcolor="#d1d1d1"
     inkscape:document-units="mm"
     inkscape:zoom="5.7370932"
     inkscape:cx="62.05233"
     inkscape:cy="23.443928"
     inkscape:window-width="1920"
     inkscape:window-height="1001"
     inkscape:window-x="-9"
     inkscape:window-y="-9"
     inkscape:window-maximized="1"
     inkscape:current-layer="layer1" />
  <defs
     id="defs1" />
  <g
     inkscape:label="Layer 1"
     inkscape:groupmode="layer"
     id="layer1"
     transform="translate(-176.83177,-61.141162)">
    <path
       fill-rule="evenodd"
       clip-rule="evenodd"
       fill="#004687"
       d="m 215.91261,65.365054 1.3143,0.0215 c 0.66876,-0.0043 0.78021,0.459129 0.78389,0.66592 0.002,0.11061 0.0303,0.170865 0.0945,0.170865 0.0504,0 0.0894,-0.04923 0.0999,-0.156437 0.0178,-0.186141 0.022,-0.530983 0.0648,-0.972856 0.0232,-0.237061 0.0605,-0.428295 0.0676,-0.517969 0.0108,-0.120228 -0.06,-0.175958 -0.13126,-0.04413 -0.0517,0.0959 -0.14739,0.264501 -0.544,0.278929 l -1.74967,0.02489 V 61.87845 l 2.40456,0.03649 c 0.85263,0.02489 0.77992,0.690533 0.78332,0.869036 0.002,0.111175 0.0328,0.169167 0.10179,0.169167 0.0552,0 0.0995,-0.05205 0.10976,-0.157003 0.0184,-0.185575 0.0292,-0.658001 0.0707,-0.99379 0.0354,-0.291941 0.0459,-0.291941 0.077,-0.47101 0.017,-0.10014 -0.0362,-0.160115 -0.13862,-0.07864 -0.0962,0.07808 -0.35503,0.06705 -0.56182,0.071 l -4.83796,8.49e-4 c -0.15616,0 -0.15673,0.08204 -0.15673,0.11457 0,0.03649 0.009,0.109195 0.15785,0.109195 0.22801,0 0.6167,-0.02942 0.6167,0.531832 l -2.8e-4,7.408016 h 0.92335 c 0.41301,0 0.45036,-0.31146 0.45036,-0.478648 z"
       id="path14"
       style="stroke-width:0.264583" />
    <path
       fill-rule="evenodd"
       clip-rule="evenodd"
       fill="#004687"
       d="m 205.66297,68.91984 v -7.24281 c 0,-0.180767 -0.12532,-0.353612 -0.34795,-0.353612 l -1.64302,8.49e-4 c -0.15615,0 -0.15701,0.08204 -0.15701,0.114569 0,0.03649 0.009,0.109196 0.15786,0.109196 0.22857,0 0.61755,-0.03027 0.61755,0.531266 l -8.6e-4,7.408299 h 4.56612 c 0.26789,0 0.37766,-0.10976 0.42236,-0.26931 0.093,-0.330132 0.19321,-1.342025 0.19321,-1.461405 5.6e-4,-0.185575 -0.18303,-0.190667 -0.20567,0.0028 -0.0362,0.310895 -0.17991,1.066491 -1.07497,1.115431 -0.93268,0.04979 -1.92138,0.05177 -2.52762,0.04469 z"
       id="path15"
       style="stroke-width:0.264583" />
    <path
       fill-rule="evenodd"
       clip-rule="evenodd"
       fill="#004687"
       d="m 240.90162,61.324267 c -0.15644,0 -0.15701,0.08204 -0.15701,0.114569 0,0.03649 0.009,0.109196 0.15758,0.109196 0.22942,0 0.61754,-0.02942 0.61754,0.531831 v 7.408018 h 0.92194 c 0.41443,0 0.45205,-0.311461 0.45205,-0.478649 l -8.4e-4,-7.331071 c 0,-0.180483 -0.12561,-0.352763 -0.3488,-0.352763 z"
       id="path16"
       style="stroke-width:0.264583" />
    <path
       fill="#004687"
       d="m 197.63401,61.323418 c 0.22349,0 0.34853,0.172845 0.34853,0.353612 l 8.4e-4,4.239942 c 0,1.781352 -0.51429,3.71009 -3.43286,3.71009 -2.99891,0 -3.52338,-1.674137 -3.52338,-3.475858 v -4.071623 c 0,-0.561253 -0.38785,-0.531832 -0.61669,-0.531832 -0.14994,0 -0.15758,-0.07271 -0.15758,-0.109195 0,-0.03254 0.004,-0.11457 0.15644,-0.11457 l 1.64246,-8.49e-4 c 0.22319,0 0.34851,0.172845 0.34851,0.353612 v 4.358755 c 0,1.560417 0.4331,3.006263 2.26708,3.006263 2.04614,0 2.37203,-1.512326 2.37203,-2.68094 v -4.281527 c 0,-0.549653 -0.36324,-0.531832 -0.61727,-0.531832 -0.15022,0 -0.15842,-0.0727 -0.15842,-0.109195 0,-0.03254 0.002,-0.11457 0.157,-0.11457 z"
       id="path17"
       style="stroke-width:0.264583" />
    <path
       fill="#004687"
       d="m 233.20025,66.505947 -1.32222,-3.275573 -1.36382,3.275573 z m 0.86054,2.129872 -0.61358,-1.519963 h -3.18533 l -0.98728,2.371741 -1.13665,-8.47e-4 c -0.11656,0 -0.15531,-0.05092 -0.15531,-0.108348 0,-0.03876 0.0192,-0.107214 0.16747,-0.115984 0.28204,-0.01669 0.42376,-0.118813 0.59293,-0.504109 l 3.21844,-7.34663 c 0.157,-0.357571 0.30976,-0.363795 0.46817,0 l 3.51038,8.075071 -2.26566,8.47e-4 c -0.12164,0 -0.15643,-0.04696 -0.15643,-0.10778 0,-0.04837 0.0362,-0.100707 0.15728,-0.117399 0.35078,-0.04639 0.54965,-0.219522 0.38557,-0.626599 z"
       id="path18"
       style="stroke-width:0.264583" />
    <path
       fill="#004687"
       d="m 250.93598,61.80631 v 3.661717 h 0.68997 c 0.96324,0 1.80681,-0.628014 1.80681,-1.878667 0,-1.589837 -1.21784,-1.78305 -2.49678,-1.78305 z m 2.15194,3.870206 c 0.89563,1.475267 1.6846,2.704703 2.58164,3.442195 0.33692,0.276948 0.53721,0.245264 0.53721,0.401136 0,0.04979 -0.0308,0.100996 -0.14144,0.116834 -0.0823,0.01103 -0.19491,0.01753 -0.33692,0.01753 -2.00937,0 -2.6337,-1.616994 -3.92283,-3.639934 h -0.8696 v 3.118852 c 0,0.181332 -0.12391,0.353612 -0.34767,0.353612 l -1.67244,8.48e-4 c -0.15644,0 -0.15644,-0.08374 -0.15644,-0.11457 0,-0.03735 0.009,-0.110609 0.157,-0.110609 0.22886,0 0.64867,-0.02772 0.64867,-0.530983 l -8.5e-4,-6.651854 c 0,-0.561253 -0.38869,-0.531832 -0.61755,-0.531832 -0.14851,0 -0.15756,-0.0727 -0.15756,-0.109195 0,-0.03254 0,-0.11457 0.157,-0.11457 h 3.10781 c 1.14939,-8.49e-4 2.59241,0.394347 2.59241,2.150806 2.8e-4,1.117412 -0.70752,1.825483 -1.55844,2.201726 z"
       id="path19"
       style="stroke-width:0.264583" />
    <path
       fill="#004687"
       d="m 182.63439,65.642852 h 1.58927 c 0.22319,0 0.34823,0.17228 0.34823,0.353611 v 2.864818 c 0,0.173129 -0.0682,0.239607 -0.20084,0.291942 -1.11091,0.433669 -2.1924,0.500997 -2.96553,0.500997 -2.2651,0 -4.57375,-1.189549 -4.57375,-4.196377 0,-3.507259 2.8931,-4.31604 4.60288,-4.31604 1.14372,0 2.21191,0.277514 2.75761,0.358421 0.12815,0.0181 0.15191,0.04639 0.15191,0.128714 l 8.4e-4,1.730433 c 0,0.238475 -0.20594,0.254883 -0.23564,0 -0.0549,-0.470162 -0.63594,-1.673289 -2.67387,-1.673289 -1.15136,0 -3.17147,0.681479 -3.17147,3.653513 0,2.741761 1.90865,3.722538 3.54376,3.722538 0.56747,0 1.44443,-0.159267 1.44443,-0.592653 l 5.6e-4,-2.071314 c 0,-0.561818 -0.38982,-0.530983 -0.61783,-0.530983 -0.1488,0 -0.15757,-0.07242 -0.15757,-0.109195 2.8e-4,-0.03225 2.8e-4,-0.115136 0.15701,-0.115136 z"
       id="path20"
       style="stroke-width:0.264583" />
  </g>
</svg>
