<?xml version="1.0" encoding="utf-8"?>
<!-- Generator: Adobe Illustrator 16.0.3, SVG Export Plug-In . SVG Version: 6.00 Build 0)  -->
<!DOCTYPE svg PUBLIC "-//W3C//DTD SVG 1.1//EN" "http://www.w3.org/Graphics/SVG/1.1/DTD/svg11.dtd">
<svg version="1.1" id="Ebene_2" xmlns="http://www.w3.org/2000/svg" xmlns:xlink="http://www.w3.org/1999/xlink" x="0px" y="0px"
	 width="272.24px" height="85.635px" viewBox="0 0 272.24 85.635" enable-background="new 0 0 272.24 85.635" xml:space="preserve">
<g>
	<path fill="#DE0035" d="M98.716,77.88c0-0.556-0.068-0.796-0.346-0.969c-0.173-0.105-0.451-0.175-1.041-0.175h-9.323v-5.753h7.035
		c0.764,0,1.213-0.105,1.492-0.588c0.31-0.59,0.483-1.732,0.483-2.565c0-0.556-0.07-0.799-0.345-0.971
		c-0.175-0.105-0.45-0.175-1.041-0.175h-7.624v-4.575h8.56c0.763,0,1.213-0.103,1.491-0.589c0.313-0.587,0.486-1.733,0.486-2.563
		c0-0.556-0.07-0.798-0.346-0.973c-0.175-0.103-0.453-0.173-1.041-0.173h-11.89c-1.141,0-1.697,0.14-2.007,0.38
		c-0.245,0.21-0.417,0.556-0.417,1.146V79.51c0,0.587,0.173,0.936,0.417,1.144c0.311,0.245,0.866,0.382,2.007,0.382h11.475
		c0.761,0,1.212-0.104,1.489-0.59C98.543,79.857,98.716,78.711,98.716,77.88"/>
	<path fill="#DE0035" d="M115.554,80.17c0-0.348-0.312-0.799-0.798-1.459l-4.264-5.613l3.746-4.853
		c0.485-0.658,0.796-1.108,0.796-1.454c0-0.347-0.138-0.52-0.347-0.658c-0.276-0.175-0.796-0.348-1.905-0.348
		c-1.629,0-2.252,0.068-2.911,0.936l-2.322,3.084l-2.29-3.084c-0.621-0.868-1.349-0.936-2.98-0.936
		c-1.106,0-1.834,0.173-2.112,0.348c-0.208,0.138-0.348,0.311-0.348,0.658c0,0.346,0.313,0.796,0.798,1.454l3.777,4.993
		l-4.263,5.473c-0.485,0.626-0.798,1.111-0.798,1.459c0,0.346,0.138,0.518,0.348,0.658c0.277,0.173,0.866,0.346,1.974,0.346
		c1.629,0,2.255-0.069,2.913-0.933l2.773-3.677l2.738,3.677c0.624,0.864,1.387,0.933,3.014,0.933c1.108,0,1.839-0.173,2.114-0.346
		C115.415,80.688,115.554,80.516,115.554,80.17"/>
	<path fill-rule="evenodd" clip-rule="evenodd" fill="#DE0035" d="M127.158,71.711h-5.163c0.208-1.524,1.176-2.565,2.668-2.565
		C126.119,69.146,127.087,70.152,127.158,71.711 M131.835,72.96c0-3.987-2.25-7.383-7.033-7.383c-5.028,0-7.801,3.259-7.801,7.972
		c0,4.887,3.189,7.835,7.937,7.835c2.532,0,3.954-0.486,4.89-0.903c0.936-0.416,1.074-0.729,1.074-1.109
		c0-0.45-0.035-0.763-0.313-1.384c-0.311-0.73-0.588-1.214-1.212-1.214c-0.59,0-1.041,0.206-1.594,0.343
		c-0.555,0.14-1.076,0.245-2.079,0.245c-2.29,0-3.398-0.938-3.709-2.184h7.485c1.042,0,1.665-0.173,1.942-0.451
		C131.7,74.452,131.835,74.346,131.835,72.96z"/>
	<path fill="#DE0035" d="M147.462,78.784c0-0.453-0.277-1.009-0.658-1.597c-0.453-0.691-0.868-1.039-1.386-1.039
		c-0.588,0-0.833,0.275-1.387,0.518c-0.556,0.277-1.284,0.45-1.909,0.45c-1.487,0-2.841-1.246-2.841-3.639
		c0-2.355,1.316-3.777,2.948-3.777c0.796,0,1.384,0.208,2.044,0.451c0.588,0.243,0.763,0.486,1.317,0.486
		c0.555,0,0.971-0.486,1.316-1.249c0.346-0.693,0.486-1.144,0.486-1.594c0-0.416-0.173-0.764-1.006-1.179
		c-1.039-0.521-2.285-1.039-4.54-1.039c-4.401,0-7.555,3.396-7.555,7.901c0,5.233,3.533,7.906,7.623,7.906
		c1.909,0,3.846-0.801,4.75-1.492C147.252,79.477,147.462,79.164,147.462,78.784"/>
	<path fill-rule="evenodd" clip-rule="evenodd" fill="#DE0035" d="M164.408,79.787V67.171c0-0.556-0.105-0.798-0.381-1.006
		c-0.278-0.243-0.971-0.381-2.079-0.381c-1.144,0-1.802,0.138-2.08,0.381c-0.278,0.208-0.38,0.45-0.38,1.006v7.28
		c0,1.452-1.284,2.77-2.703,2.77c-1.178,0-1.977-0.555-1.977-2.149v-7.901c0-0.556-0.105-0.798-0.383-1.006
		c-0.277-0.243-0.969-0.381-2.08-0.381c-1.142,0-1.8,0.138-2.078,0.381c-0.278,0.208-0.38,0.45-0.38,1.006v8.804
		c0,3.568,2.183,5.408,5.128,5.408c2.46,0,3.951-1.111,4.574-2.255v0.658c0,0.556,0.105,0.796,0.383,1.006
		c0.278,0.243,0.866,0.38,2.008,0.38c1.111,0,1.769-0.138,2.046-0.38C164.303,80.583,164.408,80.343,164.408,79.787"/>
	<path fill="#DE0035" d="M179.207,79.267c0-0.416-0.243-0.899-0.52-1.421c-0.278-0.483-0.521-1.039-1.111-1.039
		c-0.311,0-0.691,0.173-1.039,0.278c-0.345,0.103-0.693,0.173-1.041,0.173c-0.413,0-0.656-0.103-0.831-0.278
		c-0.241-0.243-0.345-0.483-0.345-0.971v-6.204h2.565c0.691,0,1.144-0.104,1.384-0.484c0.313-0.555,0.453-1.631,0.453-2.393
		c0-0.52-0.069-0.728-0.313-0.868c-0.172-0.103-0.416-0.138-0.971-0.138h-3.118v-3.673c0-0.729,0-0.937-0.276-1.179
		c-0.174-0.138-0.522-0.208-0.833-0.208c-0.417,0-1.25,0.14-1.767,0.243c-0.625,0.14-1.386,0.346-1.664,0.623
		c-0.311,0.313-0.38,0.693-0.38,1.387v2.808h-0.867c-0.695,0-1.148,0.103-1.386,0.486c-0.315,0.553-0.453,1.628-0.453,2.392
		c0,0.521,0.07,0.728,0.313,0.866c0.173,0.105,0.415,0.139,0.971,0.139h1.454v6.931c0,1.595,0.416,2.808,1.387,3.607
		c0.831,0.693,1.975,1.041,3.674,1.041c1.734,0,2.876-0.453,3.396-0.73C178.548,80.308,179.207,79.857,179.207,79.267"/>
	<path fill-rule="evenodd" clip-rule="evenodd" fill="#DE0035" d="M186.237,79.787V67.101c0-0.728,0-0.936-0.275-1.179
		c-0.174-0.138-0.52-0.208-0.833-0.208c-0.413,0-1.246,0.138-1.767,0.243c-0.624,0.138-1.384,0.346-1.662,0.624
		c-0.313,0.312-0.381,0.693-0.381,1.386v11.82c0,0.556,0.103,0.796,0.381,1.006c0.278,0.243,0.934,0.38,2.079,0.38
		c1.109,0,1.802-0.138,2.078-0.38C186.134,80.583,186.237,80.343,186.237,79.787 M186.587,61.14c0-1.458-1.286-2.635-2.808-2.635
		c-1.561,0-2.807,1.214-2.807,2.635c0,1.457,1.246,2.6,2.807,2.6C185.301,63.74,186.587,62.596,186.587,61.14z"/>
	<path fill="#DE0035" d="M204.676,66.791c0-0.315-0.173-0.487-0.311-0.59c-0.314-0.243-0.971-0.416-2.114-0.416
		c-1.179,0-1.839,0.173-2.149,0.416c-0.208,0.173-0.451,0.658-0.624,1.109l-2.843,7.28l-2.806-7.28
		c-0.175-0.451-0.418-0.936-0.624-1.109c-0.313-0.243-1.041-0.416-2.222-0.416c-1.141,0-1.87,0.173-2.183,0.416
		c-0.14,0.103-0.313,0.275-0.313,0.59c0,0.273,0.07,0.659,0.243,1.074l5.443,12.408c0.242,0.588,0.59,0.936,2.39,0.936
		c1.839,0,2.185-0.348,2.427-0.936l5.406-12.408C204.574,67.449,204.676,67.064,204.676,66.791"/>
	<path fill-rule="evenodd" clip-rule="evenodd" fill="#DE0035" d="M216.283,71.711h-5.166c0.208-1.524,1.181-2.565,2.67-2.565
		C215.242,69.146,216.214,70.152,216.283,71.711 M220.96,72.96c0-3.987-2.252-7.383-7.036-7.383c-5.025,0-7.8,3.259-7.8,7.972
		c0,4.887,3.191,7.835,7.941,7.835c2.53,0,3.951-0.486,4.887-0.903c0.937-0.416,1.072-0.729,1.072-1.109
		c0-0.45-0.033-0.763-0.311-1.384c-0.311-0.73-0.588-1.214-1.211-1.214c-0.591,0-1.041,0.206-1.597,0.343
		c-0.555,0.14-1.076,0.245-2.078,0.245c-2.29,0-3.398-0.938-3.711-2.184h7.488c1.039,0,1.665-0.173,1.942-0.451
		C220.824,74.452,220.96,74.346,220.96,72.96z"/>
	<path fill="#DE0035" d="M101.386,50.825V30.098c0-0.553-0.105-0.796-0.383-1.004c-0.313-0.242-1.039-0.382-2.185-0.382
		c-1.177,0-1.905,0.14-2.215,0.382c-0.278,0.208-0.382,0.451-0.382,1.004v7.42h-8.214v-7.42c0-0.553-0.105-0.796-0.382-1.004
		c-0.311-0.242-1.041-0.382-2.183-0.382c-1.181,0-1.905,0.14-2.22,0.382c-0.278,0.208-0.38,0.451-0.38,1.004v20.727
		c0,0.556,0.103,0.798,0.38,1.006c0.315,0.242,1.039,0.38,2.22,0.38c1.142,0,1.872-0.138,2.183-0.38
		c0.277-0.208,0.382-0.45,0.382-1.006v-9.01h8.214v9.01c0,0.556,0.104,0.798,0.382,1.006c0.311,0.242,1.039,0.38,2.215,0.38
		c1.146,0,1.872-0.138,2.185-0.38C101.281,51.623,101.386,51.38,101.386,50.825"/>
	<path fill-rule="evenodd" clip-rule="evenodd" fill="#DE0035" d="M114.409,46.146c0,1.975-1.627,2.741-3.014,2.741
		c-1.386,0-1.907-0.696-1.907-1.492c0-0.901,0.555-1.664,1.907-1.767l3.014-0.245V46.146 M119.644,50.619
		c0-0.73-0.623-0.938-0.623-2.843v-4.99c0-4.578-2.53-6.172-6.587-6.172c-3.259,0-4.991,0.729-5.961,1.284
		c-0.726,0.416-0.936,0.761-0.936,1.179c0,0.449,0.14,0.764,0.451,1.282c0.312,0.52,0.59,1.006,1.248,0.971
		c0.556,0,1.352-0.451,2.01-0.694c0.695-0.243,1.421-0.485,2.498-0.485c1.87,0,2.666,0.693,2.666,1.802v0.277l-3.467,0.243
		c-3.013,0.208-6.064,1.386-6.064,5.163c0,3.536,2.773,4.785,4.993,4.785c2.045,0,3.709-0.624,4.923-1.977
		c0.448,1.146,0.726,1.872,1.489,1.872c0.726,0,1.316-0.208,1.904-0.448C118.813,51.623,119.644,51.242,119.644,50.619z"/>
	<path fill-rule="evenodd" clip-rule="evenodd" fill="#DE0035" d="M133.677,44.415c0,2.253-1.142,3.742-2.875,3.742
		c-1.7,0-2.841-1.352-2.841-3.742c0-2.082,1.142-3.536,2.841-3.536C132.672,40.879,133.677,42.368,133.677,44.415 M138.739,44.1
		c0-2.633-0.73-4.575-2.01-5.854c-1.076-1.041-2.498-1.632-4.231-1.632c-2.46,0-3.879,1.111-4.47,2.012v-0.485
		c0-0.729,0-0.936-0.278-1.179c-0.171-0.14-0.521-0.208-0.829-0.208c-0.417,0-1.216,0.138-1.736,0.243
		c-0.624,0.138-1.316,0.345-1.592,0.623c-0.313,0.311-0.382,0.694-0.382,1.387v18.474c0,0.556,0.105,0.796,0.382,1.007
		c0.276,0.242,0.937,0.38,2.078,0.38c1.111,0,1.805-0.138,2.08-0.38c0.278-0.21,0.382-0.451,0.382-1.007v-6.759
		c0.658,0.868,2.15,1.699,3.952,1.699c1.801,0,3.36-0.66,4.539-1.837C138.009,49.197,138.739,47.153,138.739,44.1z"/>
	<path fill-rule="evenodd" clip-rule="evenodd" fill="#DE0035" d="M150.412,46.146c0,1.975-1.626,2.741-3.016,2.741
		c-1.384,0-1.905-0.696-1.905-1.492c0-0.901,0.556-1.664,1.905-1.767l3.016-0.245V46.146 M155.646,50.619
		c0-0.73-0.621-0.938-0.621-2.843v-4.99c0-4.578-2.531-6.172-6.587-6.172c-3.259,0-4.991,0.729-5.961,1.284
		c-0.726,0.416-0.937,0.761-0.937,1.179c0,0.449,0.14,0.764,0.451,1.282c0.311,0.52,0.588,1.006,1.247,0.971
		c0.556,0,1.354-0.451,2.012-0.694c0.693-0.243,1.421-0.485,2.495-0.485c1.872,0,2.667,0.693,2.667,1.802v0.277l-3.466,0.243
		c-3.014,0.208-6.064,1.386-6.064,5.163c0,3.536,2.773,4.785,4.993,4.785c2.045,0,3.707-0.624,4.92-1.977
		c0.45,1.146,0.728,1.872,1.489,1.872c0.728,0,1.319-0.208,1.907-0.448C154.817,51.623,155.646,51.242,155.646,50.619z"/>
	<path fill-rule="evenodd" clip-rule="evenodd" fill="#DE0035" d="M169.3,54.534c0,0.695-0.901,1.319-3.188,1.319
		c-2.323,0-3.674-0.659-3.674-1.665c0-0.624,0.381-1.106,1.006-1.385l4.265,0.554C168.953,53.528,169.3,53.877,169.3,54.534
		 M168.087,42.333c0,1.249-0.865,2.43-2.426,2.43c-1.767,0-2.565-1.006-2.565-2.43c0-1.384,0.763-2.428,2.565-2.428
		C167.255,39.905,168.087,40.844,168.087,42.333z M174.291,37.795c0-0.486-0.241-0.866-0.555-1.319
		c-0.381-0.555-0.761-1.039-1.42-1.039c-0.415,0-0.76,0.208-1.213,0.448c-0.625,0.348-1.247,0.868-1.94,1.423
		c-0.833-0.347-2.254-0.59-3.536-0.59c-4.332,0-7.105,2.357-7.105,5.614c0,1.839,0.798,3.571,2.703,4.507
		c-0.936,0.345-1.594,1.316-1.594,2.322c0,0.833,0.451,1.594,1.076,2.115c-1.284,0.415-2.637,1.316-2.637,3.186
		c0,2.81,3.018,4.472,7.73,4.472c4.783,0,8.181-1.455,8.181-4.853c0-3.292-2.149-4.157-5.719-4.538l-3.293-0.348
		c-0.936-0.105-1.179-0.416-1.179-0.761c0-0.245,0.175-0.555,0.486-0.73c0.486,0.069,0.936,0.14,1.664,0.14
		c3.744,0,6.688-2.185,6.688-5.513c0-0.968-0.241-2.042-0.691-2.808l1.281-0.588C173.875,38.626,174.291,38.349,174.291,37.795z"/>
	<path fill="#DE0035" d="M186.725,43.652c0-0.554-0.068-0.798-0.348-0.971c-0.172-0.103-0.451-0.172-1.039-0.172h-7.936
		c-0.765,0-1.213,0.103-1.491,0.59c-0.313,0.588-0.488,1.73-0.488,2.563c0,0.555,0.07,0.798,0.347,0.968
		c0.175,0.108,0.451,0.175,1.041,0.175h7.937c0.765,0,1.213-0.105,1.489-0.588C186.552,45.628,186.725,44.483,186.725,43.652"/>
	<path fill="#DE0035" d="M206.159,48.887c0-0.556-0.07-0.798-0.347-0.974c-0.173-0.103-0.451-0.173-1.039-0.173h-8.909V30.098
		c0-0.553-0.103-0.796-0.38-1.004c-0.311-0.242-1.039-0.382-2.183-0.382c-1.181,0-1.905,0.14-2.22,0.382
		c-0.275,0.208-0.38,0.451-0.38,1.004v20.451c0,0.591,0.175,0.937,0.417,1.144c0.313,0.243,0.866,0.38,2.01,0.38h11.057
		c0.764,0,1.213-0.103,1.49-0.587C205.984,50.895,206.159,49.718,206.159,48.887"/>
	<path fill="#DE0035" d="M213.51,50.825V30.098c0-0.726,0-0.936-0.278-1.177c-0.175-0.14-0.521-0.209-0.831-0.209
		c-0.417,0-1.25,0.14-1.769,0.243c-0.623,0.14-1.386,0.347-1.664,0.625c-0.311,0.311-0.381,0.693-0.381,1.386v19.859
		c0,0.556,0.103,0.798,0.381,1.006c0.278,0.242,0.936,0.38,2.08,0.38c1.108,0,1.801-0.138,2.077-0.38
		C213.404,51.623,213.51,51.38,213.51,50.825"/>
	<path fill-rule="evenodd" clip-rule="evenodd" fill="#DE0035" d="M227.855,44.518c0,2.392-1.039,3.918-2.981,3.918
		c-1.94,0-3.013-1.561-3.013-3.918c0-2.393,1.073-3.917,3.013-3.917C226.816,40.601,227.855,42.163,227.855,44.518 M232.847,44.518
		c0-4.678-3.328-7.904-7.973-7.904c-4.68,0-8.006,3.226-8.006,7.904c0,4.714,3.326,7.903,8.006,7.903
		C229.519,52.421,232.847,49.232,232.847,44.518z"/>
	<path fill="#DE0035" d="M251.005,37.828c0-0.311-0.171-0.485-0.311-0.588c-0.311-0.242-0.935-0.417-2.078-0.417
		c-1.179,0-1.807,0.175-2.116,0.417c-0.208,0.173-0.414,0.658-0.621,1.109l-3.019,6.794l-3.118-6.794
		c-0.21-0.418-0.451-0.901-0.658-1.076c-0.313-0.241-1.076-0.451-2.252-0.451c-1.146,0-1.907,0.175-2.22,0.417
		c-0.138,0.103-0.313,0.311-0.313,0.622c0,0.453,0.243,0.973,0.521,1.492l5.581,10.954l-2.98,6.549
		c-0.208,0.417-0.278,0.73-0.278,1.008c0,0.311,0.175,0.553,0.31,0.656c0.315,0.245,0.974,0.416,2.117,0.416
		c1.179,0,1.837-0.17,2.147-0.416c0.208-0.173,0.416-0.656,0.625-1.108l8.387-18.508C250.939,38.486,251.005,38.106,251.005,37.828"
		/>
	<path fill-rule="evenodd" clip-rule="evenodd" fill="#DE0035" d="M263.243,44.415c0,2.391-1.146,3.742-2.846,3.742
		c-1.729,0-2.877-1.489-2.877-3.742c0-2.047,1.008-3.536,2.877-3.536C262.096,40.879,263.243,42.333,263.243,44.415 M267.988,50.825
		V30.098c0-0.726,0-0.936-0.275-1.177c-0.173-0.14-0.521-0.209-0.831-0.209c-0.418,0-1.251,0.14-1.77,0.243
		c-0.623,0.14-1.386,0.347-1.661,0.625c-0.315,0.311-0.384,0.693-0.384,1.386v7.418c-0.553-0.764-1.872-1.77-4.124-1.77
		c-3.778,0-6.481,2.981-6.481,7.904c0,2.6,0.695,4.679,2.044,6.066c1.144,1.177,2.844,1.837,4.438,1.837
		c2.287,0,3.813-1.108,4.367-2.08v0.483c0,0.556,0.103,0.798,0.381,1.006c0.275,0.242,0.83,0.38,1.939,0.38
		c1.144,0,1.699-0.138,1.977-0.38C267.885,51.623,267.988,51.38,267.988,50.825z"/>
	<path id="path1886" fill="#DE0035" d="M7.304,18.592h15.292c1.505,0,2.638,0.476,3.079,2.603c0.493,2.37,0.287,4.022-2.378,4.212
		l-4.8,0.337c3.538,22.333,24.2,29.616,35.453,5.562c1.86-3.979,2.473-4.705,4.506-4.204c2.768,0.692,3.149,2.111,1.834,6.124
		c-9.731,29.65-42.424,32.625-48.843-6.972l-3.901,0.277c-3.174,0.233-3.295-2.448-3.295-3.936
		C4.251,19.646,5.341,18.592,7.304,18.592"/>
	<path id="path1888" fill="#DE0035" d="M62.918,4.251c3.131,0,5.674,2.543,5.674,5.682c0,3.132-2.543,5.675-5.674,5.675
		c-3.139,0-5.682-2.543-5.682-5.675C57.236,6.794,59.779,4.251,62.918,4.251"/>
</g>
</svg>
