<?xml version="1.0" encoding="UTF-8" standalone="no"?>
<!-- Created with Inkscape (http://www.inkscape.org/) -->

<svg
   width="132.29166mm"
   height="45.169746mm"
   viewBox="0 0 132.29166 45.169746"
   version="1.1"
   id="svg1"
   inkscape:version="1.4 (86a8ad7, 2024-10-11)"
   sodipodi:docname="Hawaiian Airlines 1995 wordmark.svg"
   xmlns:inkscape="http://www.inkscape.org/namespaces/inkscape"
   xmlns:sodipodi="http://sodipodi.sourceforge.net/DTD/sodipodi-0.dtd"
   xmlns="http://www.w3.org/2000/svg"
   xmlns:svg="http://www.w3.org/2000/svg">
  <sodipodi:namedview
     id="namedview1"
     pagecolor="#ffffff"
     bordercolor="#000000"
     borderopacity="0.25"
     inkscape:showpageshadow="2"
     inkscape:pageopacity="0.0"
     inkscape:pagecheckerboard="0"
     inkscape:deskcolor="#d1d1d1"
     inkscape:document-units="mm"
     inkscape:zoom="2.8685466"
     inkscape:cx="157.91969"
     inkscape:cy="87.326454"
     inkscape:window-width="1920"
     inkscape:window-height="1001"
     inkscape:window-x="-9"
     inkscape:window-y="-9"
     inkscape:window-maximized="1"
     inkscape:current-layer="layer1" />
  <defs
     id="defs1" />
  <g
     inkscape:label="Layer 1"
     inkscape:groupmode="layer"
     id="layer1"
     transform="translate(-23.822143,-59.005622)">
    <path
       style="font-size:26px;font-family:fnt5;letter-spacing:0px;word-spacing:0;fill:#720069;fill-opacity:1;fill-rule:nonzero;stroke:none;stroke-width:0.264583"
       id="path297"
       class="ps08 ps11 ps27"
       d="m 43.512708,95.32309 h 3.602493 v 8.85228 h -3.602493 z" />
    <path
       style="font-size:26px;font-family:fnt5;letter-spacing:0px;word-spacing:0;fill:#720069;fill-opacity:1;fill-rule:nonzero;stroke:none;stroke-width:0.264583"
       id="path299"
       class="ps08 ps11 ps27"
       d="m 83.10937,104.17537 h -8.174892 v -8.85228 h 3.602494 v 6.68155 h 4.572398 v 2.17073" />
    <path
       style="font-size:26px;font-family:fnt5;letter-spacing:0px;word-spacing:0;fill:#720069;fill-opacity:1;fill-rule:nonzero;stroke:none;stroke-width:0.264583"
       id="path301"
       class="ps08 ps11 ps27"
       d="m 91.453613,95.32309 h 3.602497 v 8.85228 h -3.602497 z" />
    <path
       style="font-size:26px;font-family:fnt5;letter-spacing:0px;word-spacing:0;fill:#720069;fill-opacity:1;fill-rule:nonzero;stroke:none;stroke-width:0.264583"
       id="path303"
       class="ps08 ps11 ps27"
       d="m 111.83697,104.17537 -3.35617,-4.14132 -1.03148,-1.601114 -0.0309,0.03078 0.0309,0.09238 c 0.16934,0.569626 0.23093,0.87753 0.23093,1.493344 v 4.12593 h -2.90971 v -8.852285 h 3.38695 l 3.91041,4.941885 0.0462,-0.0308 -0.26172,-2.447851 v -2.463246 h 2.90971 v 8.852277 h -2.9251" />
    <path
       style="font-size:26px;font-family:fnt5;letter-spacing:0px;word-spacing:0;fill:#720069;fill-opacity:1;fill-rule:nonzero;stroke:none;stroke-width:0.264583"
       id="path305"
       class="ps08 ps11 ps27"
       d="m 132.85152,104.17537 h -8.7599 v -8.85228 h 8.7599 v 2.047574 h -5.24979 v 1.277806 h 4.24911 v 1.9706 h -4.24911 v 1.43176 h 5.24979 v 2.12454" />
    <path
       style="font-size:26px;font-family:fnt5;letter-spacing:0px;word-spacing:0;fill:#720069;fill-opacity:1;fill-rule:nonzero;stroke:none;stroke-width:0.264583"
       id="path307"
       class="ps08 ps11 ps27"
       d="m 144.44418,101.01934 c 0.3079,0.78516 1.09306,1.06228 2.12454,1.06228 0.46186,0 1.38558,-0.0462 1.38558,-0.53883 0,-0.53884 -0.90833,-0.64661 -1.43176,-0.72358 -2.20152,-0.32331 -4.80333,-0.76977 -4.80333,-2.863526 0,-0.862135 0.56963,-1.724273 1.49334,-2.216921 0.95451,-0.508044 2.20153,-0.677391 3.35617,-0.677391 2.01678,0 3.98738,0.631206 4.69557,2.170733 l -2.95591,0.677392 c -0.33868,-0.661998 -0.98529,-0.892927 -1.89361,-0.892927 -0.47725,0 -1.15465,0.107769 -1.15465,0.569626 0,0.461861 0.84675,0.55423 1.29321,0.631208 1.10846,0.169348 2.2785,0.307904 3.29459,0.708181 1.13926,0.477256 1.73966,1.293205 1.73966,2.263105 0,2.12455 -2.78654,2.97129 -5.2036,2.97129 -2.44785,0 -4.63399,-0.76976 -5.26519,-2.69417 l 3.32539,-0.44647" />
    <path
       style="font-size:26px;font-family:fnt5;letter-spacing:0px;word-spacing:0;fill:#720069;fill-opacity:1;fill-rule:nonzero;stroke:none;stroke-width:0.264583"
       id="path309"
       class="ps08 ps11 ps27"
       d="m 30.549881,102.43571 h -3.109848 l -0.708184,1.73966 h -2.909706 l 3.61789,-8.85228 h 3.771845 l 3.664074,8.85228 h -3.664074 z m -0.600418,-1.93981 -0.954507,-2.55561 -0.954508,2.55561 h 1.909015" />
    <path
       style="font-size:26px;font-family:fnt5;letter-spacing:0px;word-spacing:0;fill:#720069;fill-opacity:1;fill-rule:nonzero;stroke:none;stroke-width:0.264583"
       id="path311"
       class="ps08 ps11 ps27"
       d="m 62.972345,104.17537 -1.708879,-3.38696 h -1.108458 v 3.38696 h -3.633289 v -8.85228 h 5.942582 c 1.016088,0 2.139941,0.107768 3.002079,0.538836 0.969901,0.477252 1.43176,1.262411 1.43176,2.124547 0,1.154648 -0.677393,1.847434 -2.062966,2.324687 l 2.109153,3.86421 z m -1.524134,-5.280573 c 0.785158,0 1.72427,-0.09238 1.72427,-0.84674 0,-0.292514 -0.200136,-0.585024 -0.55423,-0.72358 -0.307904,-0.107768 -0.677392,-0.107768 -1.031484,-0.107768 h -1.431759 v 1.678086 h 1.293203" />
    <path
       style="font-size:26px;font-family:fnt5;letter-spacing:0px;word-spacing:0;fill:#720069;fill-opacity:1;fill-rule:nonzero;stroke:none;stroke-width:0.264583"
       id="path321"
       class="ps08 ps13 ps27"
       d="m 104.20091,65.394663 c 0.44646,0 0.80056,-0.354091 0.80056,-0.800555 v -4.787932 c 0,-0.43107 -0.3541,-0.800554 -0.80056,-0.800554 h -4.80333 c -0.446464,0 -0.800554,0.369484 -0.800554,0.800554 v 4.787932 c 0,0.446464 0.35409,0.800555 0.800554,0.800555 h 4.80333" />
    <path
       style="font-size:26px;font-family:fnt5;letter-spacing:0px;word-spacing:0;fill:#720069;fill-opacity:1;fill-rule:nonzero;stroke:none;stroke-width:0.264583"
       id="path323"
       class="ps08 ps13 ps27"
       d="m 112.22186,65.394663 c 0.44645,0 0.80055,-0.369489 0.80055,-0.800555 v -4.787932 c 0,-0.446463 -0.3541,-0.800554 -0.80055,-0.800554 h -4.75715 c -0.43106,0 -0.80056,0.354091 -0.80056,0.800554 v 4.787932 c 0,0.431066 0.3695,0.800555 0.80056,0.800555 h 4.75715" />
    <path
       style="font-size:26px;font-family:fnt5;letter-spacing:0px;word-spacing:0;fill:#720069;fill-opacity:1;fill-rule:nonzero;stroke:none;stroke-width:0.264583"
       id="path325"
       class="ps08 ps13 ps27"
       d="m 42.481223,80.451249 c -0.07697,0.354091 -0.384883,0.615812 -0.754369,0.615812 -0.415671,0 -0.754367,-0.338697 -0.754367,-0.754371 0,-0.107768 0.03078,-0.200137 0.06158,-0.29251 l 1.601108,-4.972675 c 0.169349,-0.400277 0.277116,-1.200831 0.277116,-1.893622 0,0 0,-5.095837 0,-5.265185 0,-0.446463 -0.35409,-0.84674 -0.84674,-0.84674 h -4.911095 c -0.461858,0 -0.831346,0.307904 -0.831346,0.84674 0,0.01542 0,5.095838 0,5.295978 0,0.446462 -0.384882,0.846739 -0.769763,0.846739 -0.169347,0.01542 -3.094451,0.01542 -3.494728,0 -0.646604,0.01542 -0.908325,-0.35409 -0.908325,-0.892926 0,-0.323302 -0.01538,-5.126629 -0.01538,-5.249791 0,-0.538836 -0.400276,-0.862135 -0.831346,-0.84674 h -4.78793 c -0.615811,0 -0.908325,0.446462 -0.908325,0.800554 0,0 0,17.935504 0,18.135643 0,0.508044 0.415675,0.87753 0.877534,0.87753 h 4.834119 c 0.400277,0 0.815948,-0.400277 0.815948,-0.846741 0,-0.0154 -0.0154,-5.111231 0,-5.357558 0,-0.446464 0.277115,-0.862135 0.862135,-0.862135 1.323997,0 2.832734,0 3.46394,0 0.87753,0.07697 0.862136,0.692787 0.862136,0.862135 0,1.185437 0,5.265188 0,5.326769 0,0.446464 0.29251,0.87753 0.877532,0.87753 H 46.1915 c 0.431069,0 0.769765,-0.400277 0.862135,-0.815948 0.184746,-0.554231 1.031487,-2.663387 1.031487,-2.663387 0.15395,-0.585019 0.446462,-0.923716 1.154644,-0.908322 0.04619,0.01538 2.340085,0.01538 2.340085,0.01538 0.338695,0 1.062271,-0.415672 0.769761,-1.293204 l -1.924409,-5.557696 c -0.0154,-0.04619 -0.0154,-0.107768 -0.0154,-0.153954 0,-0.415671 0.338695,-0.769761 0.754367,-0.769761 0.307908,0 0.585023,0.200137 0.69279,0.477252 l 3.94119,10.838278 c 0.184745,0.431069 0.384882,0.831346 0.923719,0.831346 h 4.726351 c 0.431066,0 0.908321,-0.508044 0.769763,-1.016089 C 61.632959,84.284656 55.65959,67.873286 55.65959,67.873286 55.444054,67.134312 55.043777,67.026545 54.489547,67.026545 l -6.82011,0.0154 c -0.415671,0 -0.831343,0.0154 -1.07767,0.78516 l -4.11054,12.624135" />
    <path
       style="font-size:26px;font-family:fnt5;letter-spacing:0px;word-spacing:0;fill:#720069;fill-opacity:1;fill-rule:nonzero;stroke:none;stroke-width:0.264583"
       id="path327"
       class="ps08 ps13 ps27"
       d="m 137.28537,75.493968 c -0.13856,-0.461858 -0.32331,-0.55423 -0.53883,-0.661999 -0.43108,-0.123161 -0.92372,0.153954 -0.92372,0.554232 0,0.123161 0.0153,1.33939 0,1.493341 v 9.114008 c 0,0.554231 -0.53884,0.862135 -0.84674,0.862135 h -8.52899 c -0.38488,0 -0.67739,-0.215535 -0.93911,-0.87753 l -3.6025,-10.853676 c -0.12316,-0.230928 -0.38489,-0.400277 -0.6774,-0.400277 -0.40027,0 -0.75436,0.338697 -0.75436,0.738974 0,0.06158 0,0.107769 0.0154,0.153953 l 1.84743,5.71165 c 0.20014,0.677392 -0.32331,1.154647 -0.89292,1.154647 0,0 -2.10916,-0.01538 -2.23233,-0.01538 -0.60041,0 -0.9545,0.200138 -1.13925,0.87753 -0.0154,0 -0.75437,2.016782 -0.9545,2.601802 -0.16935,0.523439 -0.46187,0.969902 -1.27781,0.908322 h -8.29805 c -0.56963,0 -0.87754,-0.400278 -0.87754,-0.87753 -0.0154,-1.847435 -0.0154,-18.027877 -0.0154,-18.089457 0,-0.600414 0.47725,-0.846741 0.84674,-0.846741 h 4.66476 c 0.43108,0 0.84675,0.29251 0.84675,0.846741 0,0 0,5.126628 0,5.342164 0.0154,0.323301 -0.0307,0.815948 -0.10776,0.969901 l -1.87823,5.880997 c -0.16934,0.554231 0.3541,0.9853 0.75438,0.9853 0.35409,0 0.61582,-0.138559 0.73898,-0.585023 l 4.01816,-12.639526 c 0.10775,-0.431066 0.35409,-0.815948 0.87754,-0.800554 h 7.37433 c 0.36948,0 0.63121,0.153954 0.89292,0.754371 l 4.77254,12.793477 c 0.16935,0.384883 0.61581,0.55423 1.0007,0.384883 0.38487,-0.169349 0.55422,-0.615813 0.38487,-1.000695 l -2.13993,-5.77323 c -0.0923,-0.153953 -0.24633,-0.6466 -0.21554,-0.954507 0,-1.385574 0,-5.357558 0,-5.357558 0,-0.58502 0.35409,-0.846741 0.83135,-0.846741 h 9.89917 c 0.35409,0 0.73896,0.13856 1.01608,0.923719 l 4.57241,12.577946 c 0.10775,0.35409 0.40027,0.492646 0.69278,0.492646 0.46186,0.0154 0.80056,-0.323299 0.80056,-0.723576 0,-0.07697 -0.0154,-0.169347 -0.0462,-0.246325 l -2.13995,-5.834811 c -0.077,-0.184746 -0.2771,-0.677393 -0.3079,-1.016089 0,-1.308598 0,-5.326769 0,-5.326769 0,-0.492647 0.36949,-0.846741 0.86214,-0.846741 h 4.5878 c 0.50804,0 0.86213,0.415675 0.86213,0.846741 -0.0154,0.215534 0,18.043271 0,18.104851 0,0.369486 -0.30791,0.862136 -0.84674,0.862136 h -8.29806 c -0.27712,0 -0.73898,-0.246324 -0.92372,-0.862136 l -3.75645,-10.499582" />
    <path
       style="font-size:26px;font-family:fnt5;letter-spacing:0px;word-spacing:0;fill:#720069;fill-opacity:1;fill-rule:nonzero;stroke:none;stroke-width:0.264583"
       id="path329"
       class="ps08 ps13 ps27"
       d="m 70.839333,85.192996 c 0.107768,-0.277116 0.338695,-0.538837 0.723578,-0.538837 0.369486,0 0.569625,0.153954 0.723579,0.538837 l 0.246323,0.738972 c 0.138556,0.538835 0.307905,0.87753 0.985296,0.923717 0.800558,0.01538 3.571708,0 3.571708,0 0.261718,-0.01542 0.58502,-0.184743 0.78516,-0.554231 0.0154,-0.01538 6.050345,-17.535223 6.219693,-18.012479 0.230929,-0.723579 -0.20014,-1.247017 -0.769766,-1.247017 H 78.70632 c -0.477253,0 -0.692787,0.215534 -0.892924,0.785159 -0.01542,0.0154 -1.739667,5.065049 -1.832039,5.388347 -0.03079,0.338696 0.07697,0.831346 0.138558,0.9853 l 1.739664,4.741747 c 0.06158,0.107768 0.06158,0.200137 0.07698,0.369484 0,0.415675 -0.338695,0.754371 -0.75437,0.754371 -0.354091,0 -0.646601,-0.246323 -0.723575,-0.55423 l -4.34147,-11.931342 c -0.20014,-0.461862 -0.554231,-0.554231 -0.78516,-0.554231 l -4.803327,0.01542 c -0.523442,0 -0.969906,0.600415 -0.754371,1.108459 l 3.895006,10.684327 c 0.215534,0.554231 -0.277115,1.046877 -0.692787,1.046877 -0.323301,0 -0.58502,-0.200136 -0.708184,-0.461857 L 64.096203,67.842533 C 63.957647,67.242119 63.55737,66.995794 63.018534,67.041979 h -4.587793 c -0.769765,0 -1.062275,0.631206 -0.862135,1.154644 0,0.01542 6.650762,18.135645 6.650762,18.135645 0.123161,0.261721 0.400277,0.523439 0.754368,0.523439 h 4.787933 c 0.400277,0 0.738973,-0.323303 0.862134,-0.892927 l 0.215536,-0.769763" />
    <path
       style="font-size:26px;font-family:fnt5;letter-spacing:0px;word-spacing:0;fill:#720069;fill-opacity:1;fill-rule:nonzero;stroke:none;stroke-width:0.264583"
       id="path331"
       class="ps08 ps13 ps27"
       d="m 94.7636,67.827117 c -0.215534,-0.75437 -0.631206,-0.800554 -1.13925,-0.785159 h -6.558389 c -0.600418,0 -0.985301,0.138556 -1.139253,0.785159 0,0 -5.71165,16.6423 -6.188902,18.012479 -0.107768,0.508044 0.246324,1.016089 0.862135,1.016089 0.369488,0 4.803328,0.01538 4.803328,0.01538 0.338696,0 0.661997,-0.277112 0.815951,-0.661994 0.200137,-0.585023 0.969903,-2.832735 0.985297,-2.848129 0.215534,-0.58502 0.338696,-0.877529 1.185437,-0.877529 0.307907,0 2.263105,0 2.263105,0 0.631207,-0.01538 1.062275,-0.585023 0.800554,-1.262416 l -2.016779,-5.465325 c -0.230929,-0.692787 0.01542,-1.07767 0.384879,-1.216226 0.431069,-0.153952 0.892927,0.01542 1.062276,0.708182 0,0 4.002773,10.822883 4.11054,11.115393 0.169348,0.354094 0.585023,0.49265 0.754371,0.49265 h 8.42122 c 0.40027,0 0.83135,-0.35409 0.83135,-0.877529 0,-0.04619 0,-17.827737 0,-18.089458 0,-0.585018 -0.47727,-0.846739 -0.83135,-0.846739 h -4.71096 c -0.538833,-0.01542 -0.862134,0.431068 -0.862134,0.846739 0,0 0.0154,4.849514 0,5.280584 0.03078,0.384879 0.138556,0.877529 0.20014,1.031483 l 2.201524,5.957972 c 0.10777,0.49265 -0.27711,0.877532 -0.69279,0.877532 -0.27711,0 -0.661993,-0.123161 -0.738973,-0.369488 L 94.7636,67.827117" />
    <path
       style="font-size:26px;font-family:fnt5;letter-spacing:0px;word-spacing:0;fill:#720069;fill-opacity:1;fill-rule:nonzero;stroke:none;stroke-width:0.264583"
       id="path333"
       class="ps08 ps13 ps27"
       d="m 155.39022,100.81921 c 0.3079,0.3079 0.46186,0.67739 0.46186,1.10845 0,0.44647 -0.15396,0.81596 -0.46186,1.12386 -0.30791,0.3233 -0.67739,0.47726 -1.10846,0.47726 -0.44647,0 -0.81595,-0.15396 -1.12385,-0.47726 -0.30791,-0.3079 -0.46186,-0.67739 -0.46186,-1.12386 0,-0.43106 0.15395,-0.80055 0.46186,-1.10845 0.3079,-0.30791 0.67738,-0.47726 1.12385,-0.47726 0.43107,0 0.80055,0.16935 1.10846,0.47726 z m 0.18474,-0.18475 c -0.35409,-0.35409 -0.78516,-0.53883 -1.2932,-0.53883 -0.50805,0 -0.93911,0.18474 -1.2932,0.53883 -0.36949,0.35409 -0.53884,0.78516 -0.53884,1.2932 0,0.50805 0.16935,0.95451 0.52344,1.30861 0.36949,0.35409 0.80055,0.53882 1.3086,0.53882 0.50804,0 0.93911,-0.18473 1.2932,-0.53882 0.35409,-0.3541 0.53884,-0.80056 0.53884,-1.30861 0,-0.50804 -0.18475,-0.93911 -0.53884,-1.2932 z m -1.03148,1.21623 c -0.077,0.0308 -0.18474,0.0462 -0.3387,0.0462 h -0.3079 v -0.73897 h 0.29251 c 0.20013,0 0.3387,0.0308 0.43106,0.077 0.0923,0.0462 0.13857,0.15395 0.13857,0.29251 0,0.15395 -0.077,0.26172 -0.21554,0.3233 z m -1.0007,1.07767 h 0.3541 v -0.78516 h 0.27711 c 0.18475,0 0.3233,0.0154 0.38488,0.0616 0.13857,0.077 0.20015,0.23093 0.20015,0.46186 v 0.15395 0.077 c 0,0 0.0154,0.0154 0.0154,0.0154 0,0 0,0.0154 0,0.0154 h 0.33869 l -0.0154,-0.0154 c -0.0154,-0.0154 -0.0154,-0.0616 -0.0154,-0.10777 -0.0154,-0.0462 -0.0154,-0.10777 -0.0154,-0.15395 v -0.13856 c 0,-0.10777 -0.0307,-0.21553 -0.10776,-0.3233 -0.077,-0.10777 -0.18474,-0.16935 -0.33869,-0.18474 0.12316,-0.0308 0.21553,-0.0616 0.2925,-0.10777 0.12316,-0.077 0.18476,-0.21554 0.18476,-0.40028 0,-0.24632 -0.0923,-0.41567 -0.30792,-0.50804 -0.12316,-0.0462 -0.29251,-0.0616 -0.55423,-0.0616 h -0.69279 v 2.00138" />
  </g>
</svg>
