<?xml version="1.0" encoding="utf-8"?>
<!-- Generator: Adobe Illustrator 15.0.2, SVG Export Plug-In . SVG Version: 6.00 Build 0)  -->
<!DOCTYPE svg PUBLIC "-//W3C//DTD SVG 1.0//EN" "http://www.w3.org/TR/2001/REC-SVG-20010904/DTD/svg10.dtd">
<svg version="1.0" id="レイヤー_1" xmlns="http://www.w3.org/2000/svg" xmlns:xlink="http://www.w3.org/1999/xlink" x="0px"
	 y="0px" width="1024px" height="351.306px" viewBox="0 0 1024 351.306" enable-background="new 0 0 1024 351.306"
	 xml:space="preserve">
<path fill="#01977A" d="M983.678,138.976c-25.813,59.265-199.09,191.562-251.473,109.817
	C679.121,165.956,826.32,88.745,826.32,88.745l20.813-59.588c-63.674,15.272-145.34,80.239-145.34,80.239
	c-39.93,34.551-85.076,59.124-127.678,76.552l20.461-95.334l15.443-61.457C417.104,88.517,340.464,216.283,340.427,216.345
	l37.266-173.634h-55.5l-19.641,79.308c0,0-120.659,36.639-163.929,96.438l37.72-175.746h-55.5c0,0-39.365,80.022-103.471,123.046
	l-2.581,18.068c0,0,59.785-21.828,82.812-47.268L53.081,316.34h64.535l2.469-11.503c0.017-0.033,58.011-99.156,174.095-149.015
	L254.43,316.34h64.535l0.333-1.55c51.658-116.51,215.647-214.02,215.687-214.041l-26.667,107.678
	c-56.211,15.713-97.321,18.855-97.321,18.855l-4.282,17.206c0,0,41.813,0.612,94.027-5.46l-19.147,77.312h64.535l18.881-87.97
	c36.502-8.17,72.189-20.458,98.131-38.947c0,0-27.953,132.726,117.25,132.726c139.398,0,228.818-183.2,228.818-183.2
	L983.678,138.976z"/>
</svg>
