<?xml version="1.0" encoding="utf-8"?>
<!-- Generator: Adobe Illustrator 23.0.3, SVG Export Plug-In . SVG Version: 6.00 Build 0)  -->
<svg version="1.1"
	 id="svg2" xmlns:cc="http://creativecommons.org/ns#" xmlns:dc="http://purl.org/dc/elements/1.1/" xmlns:inkscape="http://www.inkscape.org/namespaces/inkscape" xmlns:rdf="http://www.w3.org/1999/02/22-rdf-syntax-ns#" xmlns:sodipodi="http://sodipodi.sourceforge.net/DTD/sodipodi-0.dtd" xmlns:svg="http://www.w3.org/2000/svg"
	 xmlns="http://www.w3.org/2000/svg" xmlns:xlink="http://www.w3.org/1999/xlink" x="0px" y="0px" viewBox="0 0 471.2 107.9"
	 style="enable-background:new 0 0 471.2 107.9;" xml:space="preserve">
<style type="text/css">
	.st0{fill-rule:evenodd;clip-rule:evenodd;}
</style>
<sodipodi:namedview  bordercolor="#666666" borderopacity="1.0" fit-margin-bottom="0" fit-margin-left="0" fit-margin-right="0" fit-margin-top="0" id="base" inkscape:current-layer="layer1" inkscape:cx="162.01908" inkscape:cy="-29.129536" inkscape:document-units="px" inkscape:object-nodes="true" inkscape:object-paths="true" inkscape:pageopacity="0.0" inkscape:pageshadow="2" inkscape:snap-center="true" inkscape:snap-intersection-paths="true" inkscape:snap-midpoints="true" inkscape:snap-object-midpoints="true" inkscape:snap-smooth-nodes="true" inkscape:snap-text-baseline="true" inkscape:window-height="706" inkscape:window-maximized="1" inkscape:window-width="1366" inkscape:window-x="-8" inkscape:window-y="-8" inkscape:zoom="0.70710678" pagecolor="#ffffff" showgrid="false" showguides="false">
	</sodipodi:namedview>
<g id="layer1" transform="translate(795.27298,513.18824)" inkscape:groupmode="layer" inkscape:label="Layer 1">
	
		<g id="g4292-0-7" transform="matrix(4.0219662,0,0,-4.0219662,-1261.8202,409.13664)" inkscape:transform-center-x="224.59572" inkscape:transform-center-y="-231.25742">
	</g>
	<path id="path5154-2-2" inkscape:connector-curvature="0" class="st0" d="M-755.1-512.3h48l-16.2,42.9h39l0,0l16.5-42.9h48
		l-40.3,104.9h-48l16.5-42.9h-38.9l-16.8,42.9h-48L-755.1-512.3z"/>
	<path id="path4330_6_-6-6-3-4-8" inkscape:connector-curvature="0" d="M-573.4-448.7l26.8-33.4l1.2,33.4H-573.4z M-504.2-512.4
		h-44.5c-5.4,0-11.3,3.2-15.3,7.7l-84,97.4h41.1l17.2-21.3h44.9l0.8,21.3h49.7L-504.2-512.4z"/>
	<path id="path5173-2-8-2-3" inkscape:connector-curvature="0" sodipodi:nodetypes="sssscccsssscscsss" d="M-449.3-407.5
		c-22-6.7-33.8-22.7-30.5-41.3c7-38.7,46.7-64.4,99.4-64.4c36.5-0.1,56.3,11.2,56.3,32.1v9.6h-24.6h-24.6v-6.1
		c0-8.9-9.8-14.6-21.5-12.4c-18.1,3.4-38.9,34.3-33.8,50.3c4.2,13.2,25.6,12.5,38.9-1.2l8.2-8.5h23.7c13.6,0,24.7,0.1,24.7,0.1
		s-16.4,22.2-27.2,28.6c-18.1,10.6-38.2,15.6-61.8,15.4C-433.5-405.5-445.9-406.5-449.3-407.5z"/>
</g>
</svg>
