<svg xmlns="http://www.w3.org/2000/svg" viewBox="0 0 90.42 16.06"><defs><style>.cls-1{fill:#f39400;}.cls-2{fill:#878787;}</style></defs><title>Logo</title><g id="katman_2" data-name="katman 2"><g id="katman_1-2" data-name="katman 1"><path class="cls-1" d="M10.22.39A7.49,7.49,0,0,0,6.07.22S.6,1.65.07,6.5,2,13.14,4,15.09s8.19.41,9.12.05,4.39-1.76,4.51-7.26S10.22.39,10.22.39Zm4,10s-.55,2.5-1.74,3a6.4,6.4,0,0,1-1.54.5s-3,.36-4.71-1.58S6,7.72,6,7.72A3.87,3.87,0,0,1,7.5,6.19S11,4,13,6A4.15,4.15,0,0,1,14.2,10.36Z"/><circle class="cls-2" cx="9.21" cy="8.79" r="1.45"/><path class="cls-2" d="M24.62,11.92V9.57H22.84v2.35H21.2V6h1.64V8.13h1.78V6h1.64v6Z"/><path class="cls-2" d="M30.09,12c-1.87,0-2.78-1.13-2.78-3a3,3,0,0,1,3-3.22c1.87,0,2.78,1.13,2.78,3A3,3,0,0,1,30.09,12Zm.13-4.7c-.71,0-1.17.56-1.17,1.56s.36,1.63,1.15,1.63S31.37,10,31.37,9,31,7.34,30.22,7.34Z"/><path class="cls-2" d="M34.16,11.92V6H35.8v4.49h1.64v1.47Z"/><path class="cls-2" d="M38.41,11.92V6h1.64v6Z"/><path class="cls-2" d="M43.38,12c-.64,0-1.29,0-1.89-.05V6c.47,0,1.28-.05,2.15-.05,1.73,0,3,.71,3,2.86A2.94,2.94,0,0,1,43.38,12Zm.17-4.65a2.56,2.56,0,0,0-.42,0v3.18a1.62,1.62,0,0,0,.38,0c.74,0,1.31-.5,1.31-1.61C44.82,8,44.64,7.31,43.55,7.31Z"/><path class="cls-2" d="M50.94,11.92l-.3-1H48.79l-.29,1H46.88l1.9-6h2l2,6Zm-1-3.35a8.58,8.58,0,0,1-.21-.84h0a8.37,8.37,0,0,1-.2.84l-.32,1.09h1.08Z"/><path class="cls-2" d="M55.72,9.86v2.06H54.08V9.87L52.22,6H54l.56,1.29c.15.35.26.65.35.91h0a9.25,9.25,0,0,1,.43-1L55.87,6h1.74Z"/><path class="cls-1" d="M58.41,11.92V6h3.48v1.4H60.05V8.2h1.74V9.54H60.05v1h1.84v1.42Z"/><path class="cls-1" d="M65.5,12c-1.92,0-2.42-1-2.42-2.28V6h1.64V9.69c0,.63.19,1,.87,1s.87-.28.87-1V6h1.63V9.55A2.27,2.27,0,0,1,65.5,12Z"/><path class="cls-1" d="M72.3,11.92,71.2,9.75h-.08v2.17H69.48V6c.55,0,1.29,0,2,0,1.52,0,2.37.54,2.37,1.86a1.71,1.71,0,0,1-1.07,1.63c.16.24.3.46.43.69l1.05,1.82Zm-.87-4.65-.31,0V8.57h.27c.45,0,.76-.23.76-.68S72,7.27,71.43,7.27Z"/><path class="cls-1" d="M77.54,12c-1.87,0-2.78-1.13-2.78-3a3,3,0,0,1,3-3.22c1.87,0,2.79,1.13,2.79,3A3,3,0,0,1,77.54,12Zm.14-4.7c-.72,0-1.18.56-1.18,1.56s.36,1.63,1.15,1.63S78.82,10,78.82,9,78.46,7.34,77.68,7.34Z"/><path class="cls-1" d="M83.47,10.16h-.22v1.77H81.61V6s.89,0,1.92,0c1.58,0,2.46.64,2.46,2A2.23,2.23,0,0,1,83.47,10.16Zm0-2.9h-.23V8.78a2.19,2.19,0,0,0,.3,0A.68.68,0,0,0,84.29,8C84.29,7.56,84.07,7.26,83.48,7.26Z"/><path class="cls-1" d="M86.94,11.92V6h3.48v1.4H88.58V8.2h1.74V9.54H88.58v1h1.84v1.42Z"/></g></g></svg>