<?xml version="1.0" encoding="UTF-8" standalone="no"?>
<svg
   xmlns:dc="http://purl.org/dc/elements/1.1/"
   xmlns:cc="http://creativecommons.org/ns#"
   xmlns:rdf="http://www.w3.org/1999/02/22-rdf-syntax-ns#"
   xmlns:svg="http://www.w3.org/2000/svg"
   xmlns="http://www.w3.org/2000/svg"
   xmlns:sodipodi="http://sodipodi.sourceforge.net/DTD/sodipodi-0.dtd"
   xmlns:inkscape="http://www.inkscape.org/namespaces/inkscape"
   version="1.1"
   id="svg2"
   xml:space="preserve"
   width="510.47198"
   height="345.17068"
   viewBox="0 0 510.47198 345.17068"
   sodipodi:docname="logo_iAeroAirways.ai"><metadata
     id="metadata8"><rdf:RDF><cc:Work
         rdf:about=""><dc:format>image/svg+xml</dc:format><dc:type
           rdf:resource="http://purl.org/dc/dcmitype/StillImage" /></cc:Work></rdf:RDF></metadata><defs
     id="defs6"><clipPath
       clipPathUnits="userSpaceOnUse"
       id="clipPath18"><path
         d="M 0,258.878 H 382.854 V 0 H 0 Z"
         id="path16" /></clipPath></defs><sodipodi:namedview
     pagecolor="#ffffff"
     bordercolor="#666666"
     borderopacity="1"
     objecttolerance="10"
     gridtolerance="10"
     guidetolerance="10"
     inkscape:pageopacity="0"
     inkscape:pageshadow="2"
     inkscape:window-width="640"
     inkscape:window-height="480"
     id="namedview4" /><g
     id="g10"
     inkscape:groupmode="layer"
     inkscape:label="logo_iAeroAirways"
     transform="matrix(1.3333333,0,0,-1.3333333,0,345.17067)"><g
       id="g12"><g
         id="g14"
         clip-path="url(#clipPath18)"><g
           id="g20"
           transform="translate(289.5548,215.7895)"><path
             d="m 0,0 c -35.761,-45.64 -69.573,-93.122 -98.574,-118.851 12.433,1.955 25.48,5.054 45.093,11.35 C -38.376,-72.504 -11.409,-19.717 0,0 m -144.326,-99.822 c -0.52,0 -1.152,-0.35 -1.144,-0.933 0.003,-0.23 0.11,-0.449 0.244,-0.637 0.526,-0.733 1.236,-1.309 2.038,-1.717 0.916,-0.468 1.91,-0.778 2.904,-1.028 1.4,-0.351 2.83,-0.578 4.262,-0.754 1.912,-0.235 3.835,-0.374 5.76,-0.467 2.464,-0.121 4.932,-0.165 7.4,-0.169 0.664,-0.001 1.328,0.001 1.992,0.005 0.337,0.002 0.674,0.005 1.012,0.009 0.286,0.003 0.767,0.105 1.035,0.013 -9.152,3.141 -13.034,3.604 -25.298,5.661 -0.068,0.011 -0.138,0.017 -0.205,0.017 m 42.385,-9.725 c 1.674,-0.684 1.521,-0.844 3.116,-1.573 1.177,0.99 1.321,1.104 2.51,2.129 z m 6.933,-3.158 c 10.216,-4.873 16.659,-9.941 23.43,-16.691 11.284,-11.246 13.01,-15.823 14.776,-23.864 -0.014,4.013 0.121,8.796 0.385,12.493 0.78,10.997 5.497,25.433 13.053,43.199 -16.699,-5.309 -31.426,-8.816 -47.416,-11.117 -1.672,-1.461 -2.578,-2.628 -4.228,-4.02 m 37.778,-45.457 c -3.457,14.548 -11.999,31.225 -39.47,44.087 -22.797,-19.063 -45.266,-29.795 -63.635,-35.474 -1.125,-0.348 0.276,-0.331 -0.818,-0.641 -9.961,-2.831 -23.041,-4.218 -23.159,-4.229 l -1.117,1.327 c 0,0 11.315,1.194 21.281,4.259 18.45,5.674 40.128,16.733 63.844,36.475 -2.364,1.061 -3.776,1.456 -6.388,2.443 -22.95,-1.349 -36.718,3.472 -39.543,6.957 -0.832,1.026 -1.484,2.163 -0.635,3.515 0.642,1.021 1.837,1.582 3.041,1.35 14.536,-2.79 27.679,-6.472 36.288,-9.409 3.487,0.215 7.229,0.56 11.236,1.061 1.121,0.139 2.278,0.294 3.467,0.462 31.637,27.712 67.704,67.479 107.601,119.369 L 14.692,9.604 C 14.466,9.207 6.641,-4.655 -3.56,-24.093 c -0.086,-0.165 -0.153,0.343 -0.241,0.177 -10.22,-19.493 -22.911,-44.697 -33.195,-68.227 24.397,7.984 49.468,19.162 85.619,37.568 l -2.573,-3.293 c -25.657,-13.063 -50.768,-27.156 -84.327,-38.036 -7.852,-18.221 -15.107,-36.024 -15.107,-49.157"
             style="fill:#004b98;fill-opacity:1;fill-rule:nonzero;stroke:none"
             id="path22" /></g><g
           id="g24"
           transform="translate(295.3664,150.2558)"><path
             d="m 0,0 c 0,-57.957 -46.983,-104.94 -104.94,-104.94 -57.957,0 -104.94,46.983 -104.94,104.94 0,57.957 46.983,104.94 104.94,104.94 C -46.983,104.94 0,57.957 0,0"
             style="fill:#004b98;fill-opacity:1;fill-rule:nonzero;stroke:none"
             id="path26" /></g><g
           id="g28"
           transform="translate(145.2316,119.0668)"><path
             d="M 0,0 C -0.421,0 -0.823,-0.212 -1.044,-0.564 -1.247,-0.886 -1.089,-1.485 -0.282,-2.172 1.209,-3.438 12.431,-8.891 24.384,-5.993 17.548,-4.262 6.346,-1.048 0.205,-0.018 0.136,-0.007 0.067,0 0,0 m 86.91,-54.652 c -0.002,0.099 -0.276,10.149 -10.995,21.831 -12.25,13.347 -32.762,20.565 -51.532,25.904 -15.708,-0.818 -23.968,1.785 -26.177,3.664 -1.634,1.388 -1.31,2.74 -0.75,3.631 0.643,1.021 1.832,1.554 3.041,1.351 7.846,-1.316 18.754,-4.004 27.565,-6.497 8.099,0.431 8.886,0.542 20.33,2.562 C 92.594,5.596 133.101,16.729 195.89,46 l -2.944,-3.852 C 129.974,12.792 84.999,2.549 55.549,-2.304 46.27,-3.832 38.154,-5.666 30.951,-6.215 48.544,-11.699 65.855,-19.16 77.349,-31.767 88.437,-43.927 88.676,-54.2 88.681,-54.632 Z"
             style="fill:#ffffff;fill-opacity:1;fill-rule:nonzero;stroke:none"
             id="path30" /></g><g
           id="g32"
           transform="translate(232.3146,62.1332)"><path
             d="m 0,0 c -6.555,22.81 3.558,58.42 30.056,105.845 9.163,16.398 20.129,34.049 27.837,45.467 C -25.798,52.345 -84.585,16.256 -113.068,5.141 -122.779,1.35 -126.505,1.24 -126.712,1.231 l -1.325,1.634 c 0.049,0.003 4.935,0.26 14.325,3.925 30.197,11.784 94.729,49.675 186.11,167.65 l -0.577,-7.627 C 70.95,165.666 -10.157,60.432 2.771,4.401 Z"
             style="fill:#ffffff;fill-opacity:1;fill-rule:nonzero;stroke:none"
             id="path34" /></g><g
           id="g36"
           transform="translate(297.1574,220.5326)"><path
             d="m 0,0 c -35.762,-45.64 -65.402,-80.951 -94.403,-106.68 12.433,1.955 25.48,5.054 45.092,11.35 C -34.205,-60.333 -11.41,-19.717 0,0 m -151.926,-101.466 c -0.519,0 -1.152,-0.35 -1.144,-0.933 0.004,-0.231 0.11,-0.449 0.244,-0.636 0.527,-0.735 1.236,-1.311 2.038,-1.719 0.916,-0.467 1.91,-0.777 2.904,-1.027 1.4,-0.351 2.83,-0.578 4.262,-0.754 1.912,-0.236 3.836,-0.374 5.76,-0.468 2.465,-0.121 4.933,-0.164 7.4,-0.169 0.664,-0.001 1.328,10e-4 1.992,0.006 0.338,0.002 0.675,0.005 1.012,0.009 0.287,0.003 0.767,0.105 1.035,0.012 -9.152,3.141 -13.034,3.605 -25.298,5.662 -0.069,0.01 -0.137,0.017 -0.205,0.017 m 42.385,-9.725 c 1.674,-0.685 1.521,-0.843 3.117,-1.574 1.176,0.991 1.32,1.105 2.509,2.129 z m 6.934,-3.159 c 10.215,-4.873 16.658,-9.941 23.429,-16.69 11.284,-11.246 13.01,-15.822 14.777,-23.864 -0.015,4.012 0.121,8.796 0.383,12.494 0.782,10.997 5.498,25.431 13.053,43.197 -16.698,-5.308 -31.425,-8.815 -47.415,-11.116 -1.672,-1.461 -2.578,-2.627 -4.227,-4.021 m 39.503,-50.111 c -0.309,0.003 -0.594,0.124 -0.791,0.414 -0.396,0.584 -0.776,3.57 -0.935,4.24 -3.456,14.548 -11.999,31.226 -39.469,44.087 -24.194,-20.23 -47.662,-32.183 -66.609,-37.566 -9.961,-2.829 -20.529,-3.87 -20.647,-3.882 l -1.373,1.631 c 0.116,0.011 11.731,1.169 21.536,3.955 18.569,5.274 39.772,17.839 63.488,37.58 -2.364,1.061 -3.775,1.455 -6.388,2.443 -22.95,-1.349 -36.717,3.471 -39.543,6.956 -0.832,1.027 -1.484,2.165 -0.635,3.515 0.643,1.022 1.838,1.582 3.041,1.351 14.536,-2.789 27.679,-6.473 36.288,-9.409 3.488,0.214 7.229,0.56 11.236,1.06 1.122,0.141 2.278,0.294 3.468,0.463 31.636,27.712 67.535,67.633 107.43,119.523 L 6.979,8.414 C 6.495,7.608 -23.918,-46.475 -44.596,-93.787 c 24.398,7.984 52.038,19.356 88.19,37.763 l -2.573,-3.294 c -25.658,-13.062 -53.338,-27.351 -86.898,-38.231 -7.852,-18.221 -15.107,-36.023 -15.107,-49.156 0,0 -0.289,-16.199 -0.289,-16.2 -0.031,-0.748 -1.017,-1.562 -1.831,-1.556"
             style="fill:#ffffff;fill-opacity:1;fill-rule:nonzero;stroke:none"
             id="path38" /></g><g
           id="g40"
           transform="translate(151.1603,104.684)"><path
             d="m 0,0 c -0.446,-0.01 -1.048,-1.025 -1.292,-3.861 -0.296,-3.472 -0.251,-28.353 0.002,-37.237 0.117,-4.062 0.457,-6.137 0.731,-7.173 0.285,1.008 0.164,3.063 0.323,7.171 0.264,6.974 0.861,32.684 0.833,37.235 -0.017,3.058 -0.314,3.836 -0.584,3.867 z m -0.684,-50.382 c -0.188,0.029 -0.36,0.142 -0.492,0.305 -0.132,0.163 -0.231,0.352 -0.315,0.545 -0.114,0.261 -0.203,0.533 -0.279,0.807 -0.098,0.35 -0.175,0.705 -0.242,1.063 -0.082,0.433 -0.148,0.871 -0.204,1.309 -0.066,0.515 -0.119,1.032 -0.164,1.548 -0.051,0.593 -0.09,1.187 -0.122,1.781 -0.034,0.629 -0.058,1.258 -0.076,1.888 -0.233,8.114 -0.318,33.65 0.002,37.39 0.107,1.25 0.432,5.05 2.574,5.058 C 0.223,1.302 0.627,1.28 1.101,0.841 1.93,0.072 2.841,-1.508 2.856,-3.857 2.884,-8.556 2.293,-33.971 2.019,-41.149 c -0.025,-0.66 -0.063,-1.318 -0.118,-1.975 -0.047,-0.581 -0.108,-1.161 -0.185,-1.739 -0.068,-0.503 -0.148,-1.005 -0.245,-1.504 -0.083,-0.425 -0.179,-0.849 -0.294,-1.267 -0.095,-0.348 -0.203,-0.693 -0.332,-1.03 -0.104,-0.271 -0.221,-0.537 -0.363,-0.791 -0.108,-0.195 -0.231,-0.386 -0.381,-0.553 -0.111,-0.124 -0.24,-0.238 -0.391,-0.311 -0.133,-0.066 -0.267,-0.083 -0.394,-0.063"
             style="fill:#ffffff;fill-opacity:1;fill-rule:nonzero;stroke:none"
             id="path42" /></g><g
           id="g44"
           transform="translate(232.3146,62.1332)"><path
             d="m 0,0 c -6.555,22.81 3.558,58.42 30.056,105.845 9.163,16.398 20.129,34.049 27.837,45.467 C -25.798,52.345 -84.585,16.256 -113.068,5.141 -122.779,1.35 -126.875,0.703 -127.083,0.694 l -1.854,2.015 c 0.048,0.003 7.023,0.883 16.413,4.548 30.197,11.784 93.541,49.208 184.922,167.183 l -0.577,-7.627 C 70.95,165.666 -10.157,60.432 2.771,4.401 Z"
             style="fill:#ffffff;fill-opacity:1;fill-rule:nonzero;stroke:none"
             id="path46" /></g><g
           id="g48"
           transform="translate(297.2296,220.6034)"><path
             d="m 0,0 c -35.761,-45.64 -65.401,-80.951 -94.402,-106.679 12.432,1.955 25.48,5.053 45.092,11.349 C -34.204,-60.333 -11.409,-19.717 0,0 m -151.925,-101.466 c -0.519,0 -1.152,-0.35 -1.144,-0.933 0.003,-0.23 0.11,-0.449 0.244,-0.637 0.526,-0.733 1.236,-1.309 2.038,-1.717 0.916,-0.468 1.91,-0.778 2.904,-1.028 1.4,-0.351 2.83,-0.578 4.261,-0.754 1.913,-0.235 3.837,-0.374 5.761,-0.467 2.465,-0.122 4.933,-0.165 7.4,-0.169 0.664,-10e-4 1.328,0.001 1.992,0.004 0.337,0.003 0.675,0.006 1.011,0.01 0.287,0.003 0.768,0.105 1.036,0.013 -9.152,3.141 -13.035,3.604 -25.298,5.661 -0.069,0.011 -0.138,0.017 -0.205,0.017 m 42.385,-9.725 c 1.674,-0.684 1.521,-0.844 3.117,-1.573 1.176,0.99 1.32,1.103 2.509,2.129 z m 6.934,-3.158 c 10.215,-4.873 16.658,-9.942 23.429,-16.691 11.284,-11.246 13.009,-15.823 14.777,-23.864 -0.015,4.013 0.121,8.796 0.383,12.493 0.782,10.997 5.498,25.433 13.053,43.199 -16.698,-5.309 -31.425,-8.816 -47.415,-11.117 -1.673,-1.461 -2.578,-2.628 -4.227,-4.02 m 39.503,-50.111 c -0.309,0.002 -0.594,0.124 -0.791,0.414 -0.396,0.584 -0.776,3.569 -0.935,4.24 -3.456,14.548 -11.999,31.225 -39.47,44.087 -24.194,-20.231 -47.382,-32.553 -66.328,-37.936 -9.961,-2.83 -21.253,-4.11 -21.371,-4.121 l -1.855,2.015 c 0.117,0.011 12.657,1.393 22.462,4.178 18.568,5.276 39.771,17.839 63.488,37.581 -2.364,1.061 -3.776,1.456 -6.388,2.443 -22.95,-1.349 -36.718,3.472 -39.543,6.957 -0.832,1.026 -1.484,2.163 -0.635,3.515 0.642,1.021 1.837,1.582 3.041,1.35 14.536,-2.79 27.679,-6.472 36.288,-9.409 3.487,0.215 7.228,0.56 11.236,1.061 1.122,0.139 2.277,0.293 3.467,0.462 C -68.801,-79.911 -32.902,-39.99 6.994,11.9 L 6.979,8.414 C 6.495,7.608 -23.917,-46.475 -44.595,-93.787 c 24.398,7.984 52.038,19.356 88.19,37.763 l -2.574,-3.293 c -25.658,-13.063 -53.337,-27.351 -86.897,-38.231 -7.852,-18.221 -15.107,-36.024 -15.107,-49.157 0,0 -0.289,-16.2 -0.289,-16.201 -0.031,-0.747 -1.017,-1.56 -1.831,-1.554"
             style="fill:#ffffff;fill-opacity:1;fill-rule:nonzero;stroke:none"
             id="path50" /></g><path
           d="M 9.642,3.682 H 5.445 v 22.245 h 4.197 z"
           style="fill:#004b98;fill-opacity:1;fill-rule:nonzero;stroke:none"
           id="path52" /><g
           id="g54"
           transform="translate(26.2204,13.807)"><path
             d="M 0,0 H 14.585 L 7.293,13.851 Z M -9.811,-10.125 4.984,16.946 h 4.827 l 15.057,-27.071 h -4.984 l -3.463,6.663 h -18.31 l -3.462,-6.663 z"
             style="fill:#004b98;fill-opacity:1;fill-rule:nonzero;stroke:none"
             id="path56" /></g><g
           id="g58"
           transform="translate(57.9606,3.682)"><path
             d="M 0,0 V 22.245 H 22.402 V 18.939 H 4.197 V 13.222 H 15.162 V 9.916 H 4.197 v -6.61 h 18.415 l 0,-3.306 z"
             style="fill:#004b98;fill-opacity:1;fill-rule:nonzero;stroke:none"
             id="path60" /></g><g
           id="g62"
           transform="translate(104.4953,22.6742)"><path
             d="M 0,0 H -11.857 V -7.187 H 0 c 1.119,0 1.818,0.261 2.099,0.786 0.174,0.315 0.262,0.804 0.262,1.468 v 2.676 C 2.361,-0.753 1.574,0 0,0 M -16.054,-18.992 V 3.253 h 17.89 c 3.113,0 4.67,-1.435 4.67,-4.303 v -4.984 c 0,-2.833 -1.557,-4.249 -4.67,-4.249 h -2.938 l 9.811,-8.709 H 3.096 l -8.867,8.709 h -6.086 v -8.709 z"
             style="fill:#004b98;fill-opacity:1;fill-rule:nonzero;stroke:none"
             id="path64" /></g><path
           d="m 124.274,7.039 h 18.573 v 15.582 h -18.573 z m -4.197,13.589 c 0,2.028 0.385,3.417 1.154,4.171 0.769,0.751 2.204,1.128 4.302,1.128 h 16.054 c 2.098,0 3.532,-0.377 4.302,-1.128 0.769,-0.754 1.154,-2.143 1.154,-4.171 V 8.929 c 0,-2.029 -0.385,-3.411 -1.154,-4.145 -0.77,-0.735 -2.204,-1.102 -4.302,-1.102 h -16.054 c -2.133,0 -3.577,0.358 -4.328,1.076 -0.752,0.716 -1.128,2.107 -1.128,4.171 z"
           style="fill:#004b98;fill-opacity:1;fill-rule:nonzero;stroke:none"
           id="path66" /><g
           id="g68"
           transform="translate(174.4284,13.807)"><path
             d="M 0,0 H 14.585 L 7.293,13.851 Z M -9.811,-10.125 4.984,16.946 h 4.827 l 15.057,-27.071 h -4.984 l -3.463,6.663 h -18.31 l -3.462,-6.663 z"
             style="fill:#004b98;fill-opacity:1;fill-rule:nonzero;stroke:none"
             id="path70" /></g><path
           d="m 210.261,3.682 h -4.197 v 22.245 h 4.197 z"
           style="fill:#004b98;fill-opacity:1;fill-rule:nonzero;stroke:none"
           id="path72" /><g
           id="g74"
           transform="translate(236.4924,22.6742)"><path
             d="M 0,0 H -11.857 V -7.187 H 0 c 1.119,0 1.818,0.261 2.099,0.786 0.174,0.315 0.261,0.804 0.261,1.468 v 2.676 C 2.36,-0.753 1.574,0 0,0 M -16.054,-18.992 V 3.253 h 17.89 c 3.112,0 4.67,-1.435 4.67,-4.303 v -4.984 c 0,-2.833 -1.558,-4.249 -4.67,-4.249 h -2.938 l 9.811,-8.709 H 3.095 l -8.866,8.709 h -6.086 v -8.709 z"
             style="fill:#004b98;fill-opacity:1;fill-rule:nonzero;stroke:none"
             id="path76" /></g><g
           id="g78"
           transform="translate(257.2677,3.682)"><path
             d="M 0,0 -8.604,22.245 H -4.25 L 1.889,5.247 8.446,22.245 h 2.781 l 6.401,-16.998 6.138,16.998 h 3.778 L 19.044,0 H 15.949 L 9.705,16.579 3.147,0 Z"
             style="fill:#004b98;fill-opacity:1;fill-rule:nonzero;stroke:none"
             id="path80" /></g><g
           id="g82"
           transform="translate(296.4054,12.0756)"><path
             d="M 0,0 H 11.804 L 5.876,10.599 Z M -8.814,-8.394 4.039,13.852 h 3.83 L 21.038,-8.394 H 16.474 L 13.588,-3.2 H -1.784 l -2.833,-5.194 z"
             style="fill:#004b98;fill-opacity:1;fill-rule:nonzero;stroke:none"
             id="path84" /></g><g
           id="g86"
           transform="translate(331.6603,3.682)"><path
             d="m 0,0 v 9.706 l -11.594,12.539 h 5.089 l 8.866,-9.654 8.447,9.654 h 4.931 L 4.198,9.706 V 0 Z"
             style="fill:#004b98;fill-opacity:1;fill-rule:nonzero;stroke:none"
             id="path88" /></g><g
           id="g90"
           transform="translate(373.3166,22.6215)"><path
             d="m 0,0 h -15.581 v -5.771 h 14.269 c 2.099,0 3.524,-0.368 4.277,-1.102 0.751,-0.734 1.128,-2.116 1.128,-4.145 v -2.674 c 0,-2.03 -0.377,-3.412 -1.128,-4.146 -0.753,-0.734 -2.178,-1.101 -4.277,-1.101 h -13.535 c -2.133,0 -3.577,0.367 -4.329,1.101 -0.752,0.734 -1.128,2.116 -1.128,4.146 v 0.629 l 3.83,0.787 v -3.306 H 0.315 v 6.243 h -14.323 c -2.098,0 -3.523,0.367 -4.275,1.102 -0.753,0.735 -1.129,2.116 -1.129,4.145 v 2.099 c 0,2.062 0.376,3.462 1.129,4.196 0.752,0.735 2.177,1.103 4.275,1.103 h 12.382 c 1.993,0 3.401,-0.35 4.224,-1.049 0.82,-0.7 1.232,-1.978 1.232,-3.831 V -2.099 L 0,-2.938 Z"
             style="fill:#004b98;fill-opacity:1;fill-rule:nonzero;stroke:none"
             id="path92" /></g><g
           id="g94"
           transform="translate(278.3771,204.5995)"><path
             d="M 0,0 26.336,31.974 26.214,30.773"
             style="fill:none;stroke:#004b98;stroke-width:0.972;stroke-linecap:butt;stroke-linejoin:miter;stroke-miterlimit:10;stroke-dasharray:none;stroke-opacity:1"
             id="path96" /></g><g
           id="g98"
           transform="translate(340.5246,164.3671)"><path
             d="m 0,0 0.832,0.962 c 0,0 -21.811,-10.982 -48.341,-20.381"
             style="fill:none;stroke:#004b98;stroke-width:0.972;stroke-linecap:butt;stroke-linejoin:miter;stroke-miterlimit:10;stroke-dasharray:none;stroke-opacity:1"
             id="path100" /></g><g
           id="g102"
           transform="translate(105.5968,61.7094)"><path
             d="m 0,0 -3.227,3.452 c 0,0 9.022,0.819 21.29,6.38"
             style="fill:none;stroke:#004b98;stroke-width:0.972;stroke-linecap:butt;stroke-linejoin:miter;stroke-miterlimit:10;stroke-dasharray:none;stroke-opacity:1"
             id="path104" /></g><g
           id="g106"
           transform="translate(305.4894,238.2821)"><path
             d="M 0,0 -1.241,-12.886 -3.174,-12.7 -2.21,-2.686"
             style="fill:#005fa2;fill-opacity:1;fill-rule:nonzero;stroke:none"
             id="path108" /></g><g
           id="g110"
           transform="translate(341.8097,166.0956)"><path
             d="m 0,0 0.488,-0.421 -6.693,-7.753 -1.435,1.249 4.889,5.561 z"
             style="fill:#004b98;fill-opacity:1;fill-rule:nonzero;stroke:none"
             id="path112" /></g><g
           id="g114"
           transform="translate(305.4894,238.2821)"><path
             d="M 0,0 -1.241,-12.886 -3.174,-12.7 -2.21,-2.686"
             style="fill:#004b98;fill-opacity:1;fill-rule:nonzero;stroke:none"
             id="path116" /></g></g></g></g></svg>
