<?xml version="1.0" encoding="UTF-8" standalone="no"?>
<svg
   xmlns:dc="http://purl.org/dc/elements/1.1/"
   xmlns:cc="http://creativecommons.org/ns#"
   xmlns:rdf="http://www.w3.org/1999/02/22-rdf-syntax-ns#"
   xmlns:svg="http://www.w3.org/2000/svg"
   xmlns="http://www.w3.org/2000/svg"
   width="500"
   height="200"
   viewBox="0 0 132.29166 52.916668"
   version="1.1"
   id="svg8">
  <defs
     id="defs2" />
  <metadata
     id="metadata5">
    <rdf:RDF>
      <cc:Work
         rdf:about="">
        <dc:format>image/svg+xml</dc:format>
        <dc:type
           rdf:resource="http://purl.org/dc/dcmitype/StillImage" />
        <dc:title></dc:title>
      </cc:Work>
    </rdf:RDF>
  </metadata>
  <g
     id="layer1">
    <g
       aria-label="Itzehoer Airservice GmbH"
       id="text849"
       style="font-style:normal;font-variant:normal;font-weight:normal;font-stretch:normal;font-size:18.6982px;line-height:1.25;font-family:Aller;-inkscape-font-specification:Aller;fill:#000000;fill-opacity:1;stroke:none;stroke-width:0.467455">
      <path
         d="m 9.4940491,40.178565 q 0.3644759,-0.0591 0.7191009,-0.0591 0.354626,0 0.728953,0.0591 v 7.082657 q -0.374327,0.0591 -0.719101,0.0591 -0.364477,0 -0.7289529,-0.0591 z"
         style="font-style:normal;font-variant:normal;font-weight:normal;font-stretch:normal;font-family:Aller;-inkscape-font-specification:Aller;fill:#000000;stroke-width:0.246268"
         id="path900" />
      <path
         d="m 12.459099,43.232283 h -0.640296 l -0.04925,-0.197014 1.842082,-2.354319 h 0.226567 v 1.487457 h 1.191935 q 0.02955,0.147761 0.0394,0.265969 0.0099,0.118209 0.0099,0.246268 0,0.137909 -0.0099,0.265969 -0.0099,0.128059 -0.0394,0.28567 h -1.191935 v 1.999694 q 0,0.305372 0.04925,0.492535 0.04925,0.187163 0.13791,0.295521 0.09851,0.108358 0.236417,0.147761 0.13791,0.0394 0.325073,0.0394 0.147761,0 0.285671,-0.0197 0.14776,-0.02955 0.256118,-0.04925 0.06895,0.187163 0.09851,0.394028 0.02955,0.197014 0.02955,0.354625 0,0.108357 -0.0099,0.187163 0,0.06896 -0.0099,0.137911 -0.453132,0.108357 -0.935816,0.108357 -0.896414,0 -1.369249,-0.413729 -0.472833,-0.423581 -0.472833,-1.369248 z"
         style="font-style:normal;font-variant:normal;font-weight:normal;font-stretch:normal;font-family:Aller;-inkscape-font-specification:Aller;fill:#000000;stroke-width:0.246268"
         id="path902" />
      <path
         d="m 15.670423,47.143013 2.295214,-3.900879 h -1.950439 q -0.02955,-0.147761 -0.0394,-0.285671 -0.0099,-0.13791 -0.0099,-0.275819 0,-0.128059 0.0099,-0.246268 0.0099,-0.128059 0.0394,-0.265969 h 4.009237 l 0.04926,0.118209 -2.334617,3.900879 h 2.167155 q 0.02955,0.14776 0.0394,0.28567 0.0099,0.137911 0.0099,0.27582 0,0.128059 -0.0099,0.256118 -0.0099,0.118209 -0.0394,0.256119 h -4.156998 z"
         style="font-style:normal;font-variant:normal;font-weight:normal;font-stretch:normal;font-family:Aller;-inkscape-font-specification:Aller;fill:#000000;stroke-width:0.246268"
         id="path904" />
      <path
         d="m 21.91574,45.14332 q 0.0394,0.591043 0.413729,0.857011 0.374327,0.26597 0.98507,0.26597 0.334925,0 0.679699,-0.05911 0.354625,-0.06895 0.669848,-0.187163 0.108358,0.197014 0.187164,0.472834 0.0788,0.275819 0.08866,0.591042 -0.768355,0.295521 -1.733724,0.295521 -0.709251,0 -1.221487,-0.197014 -0.502387,-0.197014 -0.82746,-0.541789 -0.315222,-0.354625 -0.472834,-0.83731 -0.14776,-0.482684 -0.14776,-1.054025 0,-0.561491 0.157611,-1.054026 0.157612,-0.492535 0.462983,-0.857011 0.315223,-0.364477 0.768355,-0.571341 0.462984,-0.216716 1.073727,-0.216716 0.531938,0 0.945668,0.187164 0.41373,0.187163 0.699399,0.512237 0.295522,0.325073 0.443282,0.778205 0.147761,0.443282 0.147761,0.955519 0,0.187163 -0.0197,0.374326 -0.0099,0.177313 -0.02955,0.285671 z m 1.999693,-0.97522 q -0.0197,-0.472834 -0.265969,-0.758504 -0.236417,-0.295522 -0.669848,-0.295522 -0.492536,0 -0.748654,0.275821 -0.256118,0.275819 -0.305372,0.778205 z"
         style="font-style:normal;font-variant:normal;font-weight:normal;font-stretch:normal;font-family:Aller;-inkscape-font-specification:Aller;fill:#000000;stroke-width:0.246268"
         id="path906" />
      <path
         d="m 26.318989,40.060356 q 0.167461,-0.02955 0.344774,-0.0394 0.177313,-0.0099 0.344775,-0.0099 0.167462,0 0.344775,0.0099 0.177313,0.0099 0.354625,0.0394 V 42.7693 q 0.06896,-0.08866 0.177313,-0.206865 0.118208,-0.128059 0.285671,-0.236417 0.167461,-0.118208 0.403878,-0.197014 0.236417,-0.07881 0.541789,-0.07881 0.847161,0 1.280592,0.472834 0.443281,0.472834 0.443281,1.487457 v 3.260584 q -0.177313,0.02955 -0.354625,0.0394 -0.177313,0.0099 -0.344774,0.0099 -0.167463,0 -0.344775,-0.0099 -0.177313,-0.0099 -0.354626,-0.0394 v -2.886258 q 0,-0.531937 -0.167462,-0.817608 -0.167462,-0.28567 -0.571341,-0.28567 -0.167462,0 -0.344774,0.04925 -0.177313,0.04925 -0.325074,0.197015 -0.13791,0.137909 -0.236417,0.394028 -0.08866,0.256118 -0.08866,0.669848 v 2.679391 q -0.177312,0.02955 -0.354625,0.0394 -0.177313,0.0099 -0.344775,0.0099 -0.167462,0 -0.344775,-0.0099 -0.167461,-0.0099 -0.344774,-0.0394 z"
         style="font-style:normal;font-variant:normal;font-weight:normal;font-stretch:normal;font-family:Aller;-inkscape-font-specification:Aller;fill:#000000;stroke-width:0.246268"
         id="path908" />
      <path
         d="m 34.268493,47.37943 q -0.620594,0 -1.083578,-0.197014 -0.453132,-0.206865 -0.758504,-0.56149 -0.295521,-0.364476 -0.453132,-0.84716 -0.147761,-0.482685 -0.147761,-1.044176 0,-0.56149 0.147761,-1.054025 0.157611,-0.492535 0.453132,-0.847161 0.305372,-0.364476 0.758504,-0.571341 0.462984,-0.206865 1.083578,-0.206865 0.620595,0 1.083578,0.206865 0.462983,0.206865 0.768355,0.571341 0.305371,0.354626 0.453132,0.847161 0.14776,0.492535 0.14776,1.054025 0,0.561491 -0.14776,1.044176 -0.147761,0.482684 -0.453132,0.84716 -0.305372,0.354625 -0.768355,0.56149 -0.462983,0.197014 -1.083578,0.197014 z m 0,-1.063876 q 0.55164,0 0.788057,-0.403879 0.246268,-0.41373 0.246268,-1.182085 0,-0.768355 -0.246268,-1.172234 -0.236417,-0.413729 -0.788057,-0.413729 -0.541789,0 -0.788057,0.413729 -0.236417,0.403879 -0.236417,1.172234 0,0.768355 0.236417,1.182085 0.246268,0.403879 0.788057,0.403879 z"
         style="font-style:normal;font-variant:normal;font-weight:normal;font-stretch:normal;font-family:Aller;-inkscape-font-specification:Aller;fill:#000000;stroke-width:0.246268"
         id="path910" />
      <path
         d="m 38.937727,45.14332 q 0.0394,0.591043 0.41373,0.857011 0.374327,0.26597 0.98507,0.26597 0.334924,0 0.679699,-0.05911 0.354625,-0.06895 0.669848,-0.187163 0.108358,0.197014 0.187163,0.472834 0.07881,0.275819 0.08866,0.591042 -0.768355,0.295521 -1.733724,0.295521 -0.709251,0 -1.221488,-0.197014 -0.502386,-0.197014 -0.827459,-0.541789 -0.315223,-0.354625 -0.472834,-0.83731 -0.147761,-0.482684 -0.147761,-1.054025 0,-0.561491 0.157612,-1.054026 0.157611,-0.492535 0.462983,-0.857011 0.315223,-0.364477 0.768355,-0.571341 0.462983,-0.216716 1.073727,-0.216716 0.531938,0 0.945667,0.187164 0.41373,0.187163 0.6994,0.512237 0.295522,0.325073 0.443282,0.778205 0.147761,0.443282 0.147761,0.955519 0,0.187163 -0.0197,0.374326 -0.0099,0.177313 -0.02955,0.285671 z M 40.93742,44.1681 q -0.0197,-0.472834 -0.265969,-0.758504 -0.236417,-0.295522 -0.669848,-0.295522 -0.492535,0 -0.748653,0.275821 -0.256119,0.275819 -0.305372,0.778205 z"
         style="font-style:normal;font-variant:normal;font-weight:normal;font-stretch:normal;font-family:Aller;-inkscape-font-specification:Aller;fill:#000000;stroke-width:0.246268"
         id="path912" />
      <path
         d="m 43.360676,42.168407 q 0.14776,-0.02955 0.27582,-0.0394 0.13791,-0.0197 0.295521,-0.0197 0.14776,0 0.28567,0.0197 0.147761,0.0197 0.285671,0.04925 0.02955,0.04925 0.04925,0.14776 0.02955,0.08866 0.04925,0.197015 0.0197,0.09851 0.02955,0.206865 0.0197,0.09851 0.02955,0.167462 0.216715,-0.305372 0.531938,-0.541789 0.315222,-0.246268 0.788056,-0.246268 0.09851,0 0.226567,0.0099 0.128059,0.0099 0.187163,0.02955 0.0197,0.09851 0.02955,0.226566 0.0099,0.128059 0.0099,0.265969 0,0.167462 -0.0197,0.364476 -0.0099,0.197014 -0.04925,0.374327 -0.108358,-0.0197 -0.246268,-0.0197 -0.128059,0 -0.157612,0 -0.167461,0 -0.374326,0.0394 -0.206865,0.02955 -0.394028,0.177313 -0.187164,0.147761 -0.315223,0.443282 -0.118208,0.295521 -0.118208,0.827459 v 2.423274 q -0.177313,0.02955 -0.354626,0.0394 -0.177313,0.0099 -0.344774,0.0099 -0.167462,0 -0.344775,-0.0099 -0.167462,-0.0099 -0.354626,-0.0394 z"
         style="font-style:normal;font-variant:normal;font-weight:normal;font-stretch:normal;font-family:Aller;-inkscape-font-specification:Aller;fill:#000000;stroke-width:0.246268"
         id="path914" />
      <path
         d="m 51.132862,40.178565 q 0.206866,-0.02955 0.394027,-0.0394 0.187165,-0.0197 0.413732,-0.0197 0.197012,0 0.384178,0.0197 0.18716,0.0099 0.413727,0.0394 l 2.216414,7.082657 q -0.403881,0.0591 -0.788059,0.0591 -0.374326,0 -0.728954,-0.0591 L 53.043896,45.84272 h -2.344465 l -0.403879,1.418502 q -0.354626,0.0591 -0.679699,0.0591 -0.364476,0 -0.719101,-0.0591 z m 1.576115,4.47222 -0.817609,-2.974913 -0.857014,2.974913 z"
         style="font-style:normal;font-variant:normal;font-weight:normal;font-stretch:normal;font-family:Aller;-inkscape-font-specification:Aller;fill:#000000;stroke-width:0.246268"
         id="path916" />
      <path
         d="m 56.028665,43.232283 h -0.659998 q -0.02955,-0.128059 -0.04926,-0.265969 -0.0099,-0.147761 -0.0099,-0.27582 0,-0.265969 0.05911,-0.522087 h 2.029245 v 5.092815 q -0.354628,0.0591 -0.689552,0.0591 -0.325073,0 -0.679696,-0.0591 z m -0.206869,-1.920887 q -0.05911,-0.334924 -0.05911,-0.659998 0,-0.315222 0.05911,-0.659997 0.167462,-0.02955 0.354628,-0.0394 0.197011,-0.0197 0.354622,-0.0197 0.167463,0 0.36448,0.0197 0.197012,0.0099 0.364474,0.0394 0.02955,0.167462 0.03941,0.334924 0.0099,0.157611 0.0099,0.325073 0,0.157612 -0.0099,0.325074 -0.0099,0.167461 -0.03941,0.334924 -0.167462,0.02955 -0.364474,0.0394 -0.187166,0.0099 -0.354628,0.0099 -0.157611,0 -0.354623,-0.0099 -0.197017,-0.0099 -0.364479,-0.0394 z"
         style="font-style:normal;font-variant:normal;font-weight:normal;font-stretch:normal;font-family:Aller;-inkscape-font-specification:Aller;fill:#000000;stroke-width:0.246268"
         id="path918" />
      <path
         d="m 58.777002,42.168407 q 0.147759,-0.02955 0.27582,-0.0394 0.137907,-0.0197 0.295523,-0.0197 0.147759,0 0.285667,0.0197 0.147764,0.0197 0.285671,0.04925 0.02955,0.04925 0.04926,0.14776 0.02955,0.08866 0.04926,0.197015 0.0197,0.09851 0.02955,0.206865 0.0197,0.09851 0.02955,0.167462 0.216715,-0.305372 0.531937,-0.541789 0.315226,-0.246268 0.788058,-0.246268 0.09851,0 0.226567,0.0099 0.128056,0.0099 0.18716,0.02955 0.0197,0.09851 0.02955,0.226566 0.0099,0.128059 0.0099,0.265969 0,0.167462 -0.0197,0.364476 -0.0099,0.197014 -0.04926,0.374327 -0.108358,-0.0197 -0.246265,-0.0197 -0.128061,0 -0.157611,0 -0.167462,0 -0.374326,0.0394 -0.206869,0.02955 -0.394029,0.177313 -0.187166,0.147761 -0.315221,0.443282 -0.11821,0.295521 -0.11821,0.827459 v 2.423274 q -0.177313,0.02955 -0.354628,0.0394 -0.177308,0.0099 -0.34477,0.0099 -0.167463,0 -0.344777,-0.0099 -0.167462,-0.0099 -0.354628,-0.0394 z"
         style="font-style:normal;font-variant:normal;font-weight:normal;font-stretch:normal;font-family:Aller;-inkscape-font-specification:Aller;fill:#000000;stroke-width:0.246268"
         id="path920" />
      <path
         d="m 63.613669,45.044813 q -0.551642,-0.157611 -0.866867,-0.462983 -0.305369,-0.315223 -0.305369,-0.935817 0,-0.748654 0.531936,-1.172234 0.541787,-0.423581 1.467754,-0.423581 0.384176,0 0.758507,0.06895 0.374331,0.06896 0.758507,0.206865 -0.0197,0.256119 -0.09851,0.531938 -0.07881,0.27582 -0.187169,0.482685 -0.236413,-0.09851 -0.522088,-0.167462 -0.285663,-0.07881 -0.600892,-0.07881 -0.33492,0 -0.522082,0.108358 -0.187169,0.09851 -0.187169,0.325073 0,0.216716 0.128061,0.305372 0.137912,0.08866 0.384176,0.167462 L 64.91396,44.1681 q 0.275818,0.07881 0.492535,0.197014 0.226567,0.108358 0.384176,0.27582 0.157614,0.167462 0.24627,0.41373 0.08866,0.246268 0.08866,0.600893 0,0.364476 -0.157608,0.679698 -0.147763,0.315223 -0.443284,0.55164 -0.285669,0.226566 -0.699405,0.364476 -0.413724,0.128059 -0.935812,0.128059 -0.236419,0 -0.433433,-0.0197 -0.197013,-0.0099 -0.384176,-0.04925 -0.177311,-0.02955 -0.354626,-0.07881 -0.177313,-0.04925 -0.384177,-0.128059 0.0197,-0.265969 0.08865,-0.531938 0.07881,-0.27582 0.197018,-0.531938 0.325072,0.128059 0.610746,0.197014 0.295514,0.0591 0.610737,0.0591 0.137912,0 0.295521,-0.0197 0.167466,-0.02955 0.305372,-0.08866 0.137912,-0.06895 0.226567,-0.167461 0.09851,-0.108358 0.09851,-0.275821 0,-0.236417 -0.147757,-0.334923 -0.137912,-0.108358 -0.394034,-0.187164 z"
         style="font-style:normal;font-variant:normal;font-weight:normal;font-stretch:normal;font-family:Aller;-inkscape-font-specification:Aller;fill:#000000;stroke-width:0.246268"
         id="path922" />
      <path
         d="m 68.273044,45.14332 q 0.03941,0.591043 0.413724,0.857011 0.374331,0.26597 0.985074,0.26597 0.33492,0 0.679697,-0.05911 0.354628,-0.06895 0.669851,-0.187163 0.108358,0.197014 0.187163,0.472834 0.0788,0.275819 0.08866,0.591042 -0.768352,0.295521 -1.733724,0.295521 -0.70925,0 -1.221487,-0.197014 -0.502386,-0.197014 -0.82746,-0.541789 -0.315217,-0.354625 -0.472831,-0.83731 -0.147764,-0.482684 -0.147764,-1.054025 0,-0.561491 0.157609,-1.054026 0.157614,-0.492535 0.462986,-0.857011 0.315223,-0.364477 0.768358,-0.571341 0.462981,-0.216716 1.073724,-0.216716 0.53194,0 0.94567,0.187164 0.41373,0.187163 0.699399,0.512237 0.29552,0.325073 0.443284,0.778205 0.147757,0.443282 0.147757,0.955519 0,0.187163 -0.0197,0.374326 -0.0098,0.177313 -0.02958,0.285671 z m 1.999691,-0.97522 q -0.0197,-0.472834 -0.265973,-0.758504 -0.236413,-0.295522 -0.669839,-0.295522 -0.492534,0 -0.748662,0.275821 -0.256115,0.275819 -0.305366,0.778205 z"
         style="font-style:normal;font-variant:normal;font-weight:normal;font-stretch:normal;font-family:Aller;-inkscape-font-specification:Aller;fill:#000000;stroke-width:0.246268"
         id="path924" />
      <path
         d="m 72.695994,42.168407 q 0.147757,-0.02955 0.275818,-0.0394 0.137906,-0.0197 0.29552,-0.0197 0.147764,0 0.28567,0.0197 0.147757,0.0197 0.285669,0.04925 0.02958,0.04925 0.04929,0.14776 0.02959,0.08866 0.04923,0.197015 0.0197,0.09851 0.02958,0.206865 0.0197,0.09851 0.02952,0.167462 0.216716,-0.305372 0.531939,-0.541789 0.315223,-0.246268 0.788061,-0.246268 0.0985,0 0.226561,0.0099 0.128061,0.0099 0.187163,0.02955 0.0197,0.09851 0.02952,0.226566 0.0098,0.128059 0.0098,0.265969 0,0.167462 -0.0197,0.364476 -0.0098,0.197014 -0.04923,0.374327 -0.108359,-0.0197 -0.246264,-0.0197 -0.128061,0 -0.157615,0 -0.16746,0 -0.374331,0.0394 -0.206859,0.02955 -0.394021,0.177313 -0.187169,0.147761 -0.31523,0.443282 -0.118203,0.295521 -0.118203,0.827459 v 2.423274 q -0.177311,0.02955 -0.354628,0.0394 -0.177311,0.0099 -0.344777,0.0099 -0.16746,0 -0.344771,-0.0099 -0.16746,-0.0099 -0.354628,-0.0394 z"
         style="font-style:normal;font-variant:normal;font-weight:normal;font-stretch:normal;font-family:Aller;-inkscape-font-specification:Aller;fill:#000000;stroke-width:0.246268"
         id="path926" />
      <path
         d="m 76.015666,42.178257 q 0.236419,-0.04925 0.433433,-0.0591 0.206865,-0.0099 0.354628,-0.0099 0.197014,0 0.394021,0.0099 0.19702,0.0099 0.36448,0.04925 l 1.113129,3.792522 1.093426,-3.792522 q 0.167466,-0.02955 0.354629,-0.0394 0.187162,-0.0197 0.374324,-0.0197 0.147764,0 0.334926,0.0099 0.197014,0.0099 0.443284,0.0591 l -1.930738,5.082965 q -0.187162,0.02955 -0.394033,0.0394 -0.206865,0.0099 -0.344771,0.0099 -0.147763,0 -0.334926,-0.0099 -0.187162,-0.0099 -0.354628,-0.04925 z"
         style="font-style:normal;font-variant:normal;font-weight:normal;font-stretch:normal;font-family:Aller;-inkscape-font-specification:Aller;fill:#000000;stroke-width:0.246268"
         id="path928" />
      <path
         d="m 82.29055,43.232283 h -0.660001 q -0.02952,-0.128059 -0.04929,-0.265969 -0.0098,-0.147761 -0.0098,-0.27582 0,-0.265969 0.05911,-0.522087 h 2.029245 v 5.092815 q -0.354628,0.0591 -0.689548,0.0591 -0.325074,0 -0.679703,-0.0591 z m -0.206865,-1.920887 q -0.05911,-0.334924 -0.05911,-0.659998 0,-0.315222 0.05911,-0.659997 0.167466,-0.02955 0.354622,-0.0394 0.19702,-0.0197 0.354628,-0.0197 0.167466,0 0.364473,0.0197 0.19702,0.0099 0.364474,0.0394 0.02958,0.167462 0.0394,0.334924 0.0098,0.157611 0.0098,0.325073 0,0.157612 -0.0098,0.325074 -0.0098,0.167461 -0.0394,0.334924 -0.167454,0.02955 -0.364474,0.0394 -0.187156,0.0099 -0.354622,0.0099 -0.157608,0 -0.354628,-0.0099 -0.197007,-0.0099 -0.364473,-0.0394 z"
         style="font-style:normal;font-variant:normal;font-weight:normal;font-stretch:normal;font-family:Aller;-inkscape-font-specification:Aller;fill:#000000;stroke-width:0.246268"
         id="path930" />
      <path
         d="m 88.457087,46.059435 q 0.11821,0.197015 0.197014,0.462984 0.07881,0.256118 0.07881,0.610743 -0.394033,0.157612 -0.73881,0.197015 -0.344771,0.04925 -0.719102,0.04925 -0.640291,0 -1.113123,-0.197014 -0.472838,-0.206865 -0.788061,-0.56149 -0.305365,-0.354625 -0.462986,-0.83731 -0.157609,-0.492535 -0.157609,-1.063876 0,-0.56149 0.147764,-1.044175 0.157614,-0.482685 0.46298,-0.847161 0.315223,-0.364476 0.77821,-0.571341 0.462986,-0.206865 1.073723,-0.206865 0.216717,0 0.394028,0.0099 0.187168,0.0099 0.354628,0.0394 0.167466,0.02955 0.334926,0.0788 0.16746,0.04925 0.374325,0.12806 0,0.226566 -0.05911,0.512237 -0.05911,0.27582 -0.187169,0.531938 -0.295514,-0.09851 -0.522082,-0.128059 -0.216716,-0.0394 -0.502391,-0.0394 -0.610744,0 -0.925961,0.403879 -0.305378,0.394028 -0.305378,1.132831 0,0.797907 0.334926,1.162384 0.334926,0.364475 0.906264,0.364475 0.147763,0 0.265973,0 0.12806,-0.0099 0.246264,-0.02955 0.118209,-0.0197 0.236419,-0.0591 0.12806,-0.0394 0.29552,-0.09851 z"
         style="font-style:normal;font-variant:normal;font-weight:normal;font-stretch:normal;font-family:Aller;-inkscape-font-specification:Aller;fill:#000000;stroke-width:0.246268"
         id="path932" />
      <path
         d="m 90.683321,45.14332 q 0.0394,0.591043 0.413729,0.857011 0.374325,0.26597 0.985069,0.26597 0.334926,0 0.679703,-0.05911 0.354622,-0.06895 0.669845,-0.187163 0.108358,0.197014 0.187162,0.472834 0.07881,0.275819 0.08866,0.591042 -0.768358,0.295521 -1.73373,0.295521 -0.709251,0 -1.221481,-0.197014 -0.502392,-0.197014 -0.82746,-0.541789 -0.31523,-0.354625 -0.472838,-0.83731 -0.147763,-0.482684 -0.147763,-1.054025 0,-0.561491 0.157614,-1.054026 0.157609,-0.492535 0.462987,-0.857011 0.315217,-0.364477 0.768352,-0.571341 0.46298,-0.216716 1.073724,-0.216716 0.531939,0 0.945669,0.187164 0.41373,0.187163 0.699399,0.512237 0.295527,0.325073 0.443284,0.778205 0.147757,0.443282 0.147757,0.955519 0,0.187163 -0.0197,0.374326 -0.0098,0.177313 -0.02952,0.285671 z m 1.99969,-0.97522 q -0.0197,-0.472834 -0.265966,-0.758504 -0.236419,-0.295522 -0.669852,-0.295522 -0.492534,0 -0.748649,0.275821 -0.256116,0.275819 -0.305372,0.778205 z"
         style="font-style:normal;font-variant:normal;font-weight:normal;font-stretch:normal;font-family:Aller;-inkscape-font-specification:Aller;fill:#000000;stroke-width:0.246268"
         id="path934" />
      <path
         d="m 101.16445,43.586909 q 0.36447,-0.05911 0.70925,-0.05911 0.34477,0 0.7191,0.05911 v 3.477299 q -0.51224,0.187163 -1.07373,0.246267 -0.55164,0.06896 -0.96537,0.06896 -0.866859,0 -1.517001,-0.265969 -0.650149,-0.27582 -1.083582,-0.758505 -0.433432,-0.492535 -0.650149,-1.162382 -0.216716,-0.669848 -0.216716,-1.457905 0,-0.788056 0.226568,-1.457904 0.226567,-0.679699 0.650149,-1.172234 0.433426,-0.492535 1.054021,-0.768355 0.630452,-0.27582 1.42836,-0.27582 0.47283,0 0.87671,0.05911 0.41373,0.0591 0.85701,0.246267 -0.0197,0.295521 -0.11821,0.581192 -0.0985,0.275819 -0.21672,0.56149 -0.34477,-0.118209 -0.61074,-0.167462 -0.26597,-0.04925 -0.63044,-0.04925 -0.945673,0 -1.457909,0.620595 -0.502386,0.610743 -0.502386,1.82238 0,1.211638 0.502386,1.81253 0.502391,0.591043 1.477609,0.591043 0.16746,0 0.29552,-0.0197 0.13791,-0.0197 0.24627,-0.0394 z"
         style="font-style:normal;font-variant:normal;font-weight:normal;font-stretch:normal;font-family:Aller;-inkscape-font-specification:Aller;fill:#000000;stroke-width:0.246268"
         id="path936" />
      <path
         d="m 103.85368,42.168407 q 0.13791,-0.02955 0.27581,-0.0394 0.13792,-0.0197 0.30538,-0.0197 0.16746,0 0.29552,0.0197 0.12806,0.0099 0.26597,0.0394 0.0296,0.04925 0.0493,0.147761 0.0295,0.08866 0.0492,0.197014 0.0197,0.09851 0.0296,0.197014 0.0197,0.09851 0.0295,0.167462 0.0788,-0.14776 0.20687,-0.295521 0.12806,-0.147761 0.30537,-0.265969 0.17731,-0.118209 0.39403,-0.187164 0.22657,-0.07881 0.50239,-0.07881 1.19193,0 1.52685,0.906265 0.19702,-0.364476 0.55165,-0.630445 0.36447,-0.27582 0.91611,-0.27582 0.86686,0 1.27074,0.482685 0.41373,0.472834 0.41373,1.487457 v 3.240882 q -0.35462,0.0591 -0.6994,0.0591 -0.34478,0 -0.6994,-0.0591 v -2.876407 q 0,-0.531937 -0.13791,-0.817608 -0.12806,-0.28567 -0.53194,-0.28567 -0.16746,0 -0.33492,0.04925 -0.15761,0.04925 -0.29553,0.187164 -0.12805,0.128059 -0.21671,0.374327 -0.0788,0.236417 -0.0788,0.620594 v 2.748347 q -0.35463,0.0591 -0.6994,0.0591 -0.34478,0 -0.69941,-0.0591 v -2.876407 q 0,-0.531937 -0.1379,-0.817608 -0.12806,-0.28567 -0.53194,-0.28567 -0.16746,0 -0.33493,0.04925 -0.16746,0.04925 -0.30537,0.197014 -0.12806,0.13791 -0.20686,0.394028 -0.0788,0.256119 -0.0788,0.669849 v 2.669541 q -0.35463,0.0591 -0.6994,0.0591 -0.34477,0 -0.6994,-0.0591 z"
         style="font-style:normal;font-variant:normal;font-weight:normal;font-stretch:normal;font-family:Aller;-inkscape-font-specification:Aller;fill:#000000;stroke-width:0.246268"
         id="path938" />
      <path
         d="m 112.49274,40.060356 q 0.35462,-0.0591 0.68955,-0.0591 0.34478,0 0.69941,0.0591 v 2.600586 q 0.14775,-0.265969 0.49253,-0.433431 0.34477,-0.177313 0.78805,-0.177313 0.44329,0 0.81761,0.157612 0.38418,0.157611 0.66,0.482684 0.27582,0.315223 0.43343,0.797907 0.15761,0.482685 0.15761,1.142682 0,0.640296 -0.19701,1.152533 -0.19701,0.502386 -0.57134,0.857011 -0.37433,0.354625 -0.91612,0.551639 -0.54179,0.187164 -1.22149,0.187164 -0.21671,0 -0.46298,-0.0197 -0.23642,-0.0197 -0.48268,-0.0591 -0.24627,-0.02955 -0.47284,-0.07881 -0.22656,-0.0591 -0.41373,-0.12806 z m 1.38896,6.097587 q 0.1182,0.0394 0.24626,0.04925 0.13791,0.0099 0.27582,0.0099 0.64029,0 1.00477,-0.374326 0.36448,-0.374327 0.36448,-1.172235 0,-0.70925 -0.22657,-1.073727 -0.22657,-0.374326 -0.76835,-0.374326 -0.39404,0 -0.65015,0.265969 -0.24626,0.256118 -0.24626,0.817608 z"
         style="font-style:normal;font-variant:normal;font-weight:normal;font-stretch:normal;font-family:Aller;-inkscape-font-specification:Aller;fill:#000000;stroke-width:0.246268"
         id="path940" />
      <path
         d="m 118.32434,40.178565 q 0.36448,-0.0591 0.7191,-0.0591 0.35463,0 0.72896,0.0591 v 2.777898 h 2.37402 v -2.777898 q 0.36447,-0.0591 0.7191,-0.0591 0.35463,0 0.72895,0.0591 v 7.082657 q -0.37432,0.0591 -0.7191,0.0591 -0.36448,0 -0.72895,-0.0591 v -3.06357 h -2.37402 v 3.06357 q -0.37433,0.0591 -0.71911,0.0591 -0.36447,0 -0.72895,-0.0591 z"
         style="font-style:normal;font-variant:normal;font-weight:normal;font-stretch:normal;font-family:Aller;-inkscape-font-specification:Aller;fill:#000000;stroke-width:0.246268"
         id="path942" />
    </g>
    <g
       aria-label="A"
       id="text853-7"
       style="font-style:normal;font-variant:normal;font-weight:normal;font-stretch:normal;font-size:80.6459px;line-height:1.25;font-family:Aller;-inkscape-font-specification:Aller;fill:#000000;fill-opacity:1;stroke:none;stroke-width:2.01615"
       transform="matrix(0.52682639,0,0,0.52682639,28.053899,27.496456)">
      <path
         d="m 61.280633,-28.6652 c -4.445664,15.216245 -8.723719,30.4800759 -13.064636,45.726224 -1.935501,0.322583 -3.790357,0.483875 -5.564567,0.483875 -1.989265,0 -3.951649,-0.161292 -5.88715,-0.483875 l 18.306618,-57.9844 c 1.129043,-0.161292 2.204321,-0.26882 3.225836,-0.322584 1.021515,-0.107528 2.150557,-0.161292 3.387128,-0.161292 1.075279,0 2.123675,0.05376 3.14519,0.161292 1.021515,0.05377 2.150557,0.161295 3.387128,0.322584 l 18.145326,57.9844 c -2.204321,0.322583 -4.354878,0.483875 -6.451671,0.483875 -2.043029,0 -4.032295,-0.161292 -5.967797,-0.483875 C 69.676979,1.831179 65.471946,-13.41488 61.280633,-28.6652 Z"
         style="font-style:normal;font-variant:normal;font-weight:normal;font-stretch:normal;font-family:Aller;-inkscape-font-specification:Aller;fill:#000000;stroke-width:2.01615"
         id="path894" />
    </g>
    <path
       id="path947"
       style="fill:#217cbc;fill-opacity:1;stroke:none;stroke-width:0.139389px;stroke-linecap:butt;stroke-linejoin:miter;stroke-opacity:1"
       d="M 130.89748,1.2980393 C 124.86801,6.7477319 105.58225,18.432056 60.245246,18.432056 39.450758,18.432056 16.755241,14.588547 1.1427449,8.1183235 12.807876,16.653253 43.263516,22.163447 60.245246,22.163447 c 47.498074,0 66.205484,-13.8239357 70.652234,-20.8654077 z" />
    <path
       id="path947-2"
       style="fill:#ffde00;fill-opacity:1;stroke:none;stroke-width:0.139389px;stroke-linecap:butt;stroke-linejoin:miter;stroke-opacity:1"
       d="M 130.89747,6.7091047 C 124.868,12.158797 105.58224,23.843121 60.245246,23.843121 c -20.794488,0 -43.490005,-3.843509 -59.1025011,-10.313733 11.6651311,8.53493 42.1207711,14.045124 59.1025011,14.045124 47.498064,0 66.205474,-13.823936 70.652224,-20.8654073 z" />
    <g
       aria-label="I"
       id="text853"
       style="font-style:normal;font-variant:normal;font-weight:normal;font-stretch:normal;font-size:80.6459px;line-height:1.25;font-family:Aller;-inkscape-font-specification:Aller;fill:#000000;fill-opacity:1;stroke:none;stroke-width:2.01615"
       transform="matrix(0.52682639,0,0,0.52682639,28.053899,27.496456)">
      <path
         d="m 18.222229,-40.923376 q 2.983898,-0.483876 5.88715,-0.483876 2.903252,0 5.967797,0.483876 v 57.9844 q -3.064545,0.483875 -5.887151,0.483875 -2.983898,0 -5.967796,-0.483875 z"
         style="font-style:normal;font-variant:normal;font-weight:normal;font-stretch:normal;font-family:Aller;-inkscape-font-specification:Aller;fill:#000000;stroke-width:2.01615"
         id="path891" />
    </g>
    <g
       aria-label="S"
       id="text853-5"
       style="font-style:normal;font-variant:normal;font-weight:normal;font-stretch:normal;font-size:80.6459px;line-height:1.25;font-family:Aller;-inkscape-font-specification:Aller;fill:#000000;fill-opacity:1;stroke:none;stroke-width:2.01615"
       transform="matrix(0.52682639,0,0,0.52682639,28.053899,27.496456)">
      <path
         d="m 103.09993,-9.79406 q -2.74196,-1.048397 -4.919398,-2.258085 -2.177439,-1.290334 -3.709711,-2.983898 -1.532273,-1.77421 -2.419377,-4.193587 -0.806459,-2.419377 -0.806459,-5.806504 0,-4.112941 1.37098,-7.258131 1.451626,-3.14519 4.032295,-5.241983 2.580668,-2.17744 6.20973,-3.225836 3.62907,-1.129043 8.14524,-1.129043 4.11294,0 7.66136,0.725813 3.62906,0.725813 7.58071,2.096793 -0.48387,4.677462 -2.58066,9.193633 -1.20969,-0.483876 -2.50003,-0.967751 -1.20969,-0.483875 -2.66131,-0.806459 -1.37098,-0.322584 -3.14519,-0.483875 -1.77421,-0.241938 -4.0323,-0.241938 -1.37098,0 -2.8226,0.241938 -1.37098,0.241937 -2.50003,0.887104 -1.12904,0.645168 -1.85485,1.935502 -0.72581,1.209688 -0.72581,3.225836 0,1.612918 0.56452,2.74196 0.56452,1.048397 1.53227,1.854856 0.96775,0.725813 2.17744,1.290334 1.20969,0.483876 2.41937,0.967751 l 4.83876,1.854856 q 3.06454,1.209688 5.56457,2.500023 2.50002,1.290334 4.19358,3.225835 1.77421,1.854856 2.74196,4.5968165 0.96775,2.6613146 0.96775,6.61296358 0,4.11294072 -1.53227,7.50006842 -1.45163,3.3871275 -4.27423,5.8065045 -2.82261,2.419377 -7.01619,3.790357 -4.11295,1.37098 -9.51622,1.37098 -2.66131,0 -4.75811,-0.161291 -2.096792,-0.161292 -4.032293,-0.564522 -1.854856,-0.322583 -3.709711,-0.887104 -1.854856,-0.564522 -3.871003,-1.370981 0.241937,-2.338731 0.887104,-4.838754 0.645168,-2.5806682 1.532273,-5.1613369 3.387127,1.3709802 6.371025,2.0967933 2.983895,0.6451672 6.371025,0.6451672 5.08069,0 7.98395,-1.8548557 2.90325,-1.9355015 2.90325,-5.80650454 0,-1.93550156 -0.72582,-3.22583586 -0.64516,-1.2903344 -1.77421,-2.1774392 -1.04839,-0.8871049 -2.41937,-1.4516262 -1.37098,-0.6451672 -2.82261,-1.2096884 z"
         style="font-style:normal;font-variant:normal;font-weight:normal;font-stretch:normal;font-family:Aller;-inkscape-font-specification:Aller;fill:#000000;stroke-width:2.01615"
         id="path897" />
    </g>
  </g>
</svg>
