<?xml version="1.0" encoding="UTF-8" standalone="no"?>
<!-- Created with Inkscape (http://www.inkscape.org/) -->

<svg
   width="782"
   height="119"
   id="svg2"
   version="1.1"
   sodipodi:docname="Iberia_logo_1992.svg"
   inkscape:version="1.4 (86a8ad7, 2024-10-11)"
   xmlns:inkscape="http://www.inkscape.org/namespaces/inkscape"
   xmlns:sodipodi="http://sodipodi.sourceforge.net/DTD/sodipodi-0.dtd"
   xmlns="http://www.w3.org/2000/svg"
   xmlns:svg="http://www.w3.org/2000/svg">
  <defs
     id="defs1" />
  <sodipodi:namedview
     id="namedview1"
     pagecolor="#ffffff"
     bordercolor="#000000"
     borderopacity="0.25"
     inkscape:showpageshadow="2"
     inkscape:pageopacity="0.0"
     inkscape:pagecheckerboard="0"
     inkscape:deskcolor="#d1d1d1"
     inkscape:zoom="3.2461807"
     inkscape:cx="538.94103"
     inkscape:cy="59.608511"
     inkscape:window-width="1920"
     inkscape:window-height="1001"
     inkscape:window-x="-9"
     inkscape:window-y="-9"
     inkscape:window-maximized="1"
     inkscape:current-layer="layer1" />
  <g
     inkscape:label="Layer 1"
     inkscape:groupmode="layer"
     id="layer1"
     transform="translate(-43.427576,-193.41)">
    <path
       style="fill:#d79501;fill-opacity:1"
       id="path1985"
       d="m 253.779,131.375 c 0.727,0.734 0.998,1.796 0.648,2.817 -0.014,0.103 -0.146,0.311 -0.146,0.311 -0.381,0.71 -0.925,1.126 -1.647,1.366 -1.816,0.142 -3.795,0.121 -5.582,0.056 -0.148,-0.088 1.696,-3.567 2.501,-5.165 0.264,-0.253 3.483,-0.268 4.226,0.615"
       clip-path="url(#SVGID_178_)"
       transform="matrix(8.577813,0,0,8.577813,-1358.3395,-926.34629)" />
    <polyline
       style="fill:#f7ca54"
       id="polyline1987"
       points="253.503,135.392 253.458,135.334 253.502,135.333      253.503,135.392    "
       clip-path="url(#SVGID_178_)"
       transform="matrix(8.577813,0,0,8.577813,-1358.3395,-926.34629)" />
    <path
       style="fill:#c60024;fill-opacity:1"
       id="path1989"
       d="m 242.145,144.395 -6.217,-0.015 c -0.045,0.015 3.787,-7.918 3.787,-7.918 1.964,-0.054 4.238,-0.065 6.335,-0.03 l -3.905,7.963"
       clip-path="url(#SVGID_178_)"
       transform="matrix(8.577813,0,0,8.577813,-1358.3395,-926.34629)" />
    <path
       style="fill:#d79501;fill-opacity:1"
       id="path1991"
       d="m 251.204,136.57 c 1.419,0.229 2.605,1.213 3.114,2.51 0.388,0.988 0.38,2.465 -0.265,3.295 -0.6,1.199 -1.955,1.958 -3.343,2.039 -2.141,-0.02 -7.812,-0.052 -7.812,-0.052 0.32,-1.035 2.88,-6.231 3.817,-7.859 1.58,-0.008 2.88,0.03 4.489,0.067"
       clip-path="url(#SVGID_178_)"
       transform="matrix(8.577813,0,0,8.577813,-1358.3395,-926.34629)" />
    <path
       style="fill:#c60024;fill-opacity:1"
       id="path1993"
       d="m 174.398,133.049 c -1.566,-0.095 -3.412,-0.013 -5.169,-0.034 0,0 -5.943,11.104 -5.809,11.31 l 5.287,-0.011 c 0,0 5.107,-9.8 5.691,-11.265"
       clip-path="url(#SVGID_178_)"
       transform="matrix(8.577813,0,0,8.577813,-1358.3395,-926.34629)" />
    <path
       style="fill:#c60024;fill-opacity:1"
       id="path1995"
       d="m 180.943,136.902 c -0.528,0.638 -1.533,0.569 -2.331,0.514 0.13,-0.636 0.585,-1.199 0.863,-1.806 0.621,0.041 1.417,-0.199 1.715,0.464 0.031,0.325 -0.041,0.621 -0.247,0.828 m -1.752,4.158 c -0.662,0.491 -1.697,0.363 -2.479,0.352 0.262,-0.74 0.657,-1.436 1.038,-2.132 0,0 1.653,-0.214 2.01,0.463 0.121,0.531 -0.128,1.02 -0.569,1.317 z m 6.15,-1.609 c -0.283,-0.619 -0.787,-0.941 -1.335,-1.323 0.531,-0.194 1.046,-0.433 1.547,-0.745 0.898,-0.625 1.735,-1.618 1.522,-2.858 -0.24,-0.796 -0.863,-1.428 -1.735,-1.527 l -9.244,-0.016 -5.366,11.352 1.211,0.024 9.067,-0.043 c 1.55,-0.111 2.876,-0.811 3.845,-1.982 0.587,-0.771 0.98,-1.91 0.488,-2.882 z"
       clip-path="url(#SVGID_178_)"
       transform="matrix(8.577813,0,0,8.577813,-1358.3395,-926.34629)" />
    <path
       style="fill:#c60024;fill-opacity:1"
       id="path1997"
       d="m 191.76,141.532 c 0,0 0.557,-1.313 0.894,-1.967 l 5.415,-0.04 c 0.396,-0.637 1.011,-2.103 1.011,-2.103 l -5.391,-0.107 c 0.16,-0.548 0.483,-1.051 0.731,-1.54 l 5.473,-0.018 c 0,0 1.389,-2.499 1.349,-2.737 l -10.63,0.012 c -0.118,0 -5.529,11.264 -5.529,11.264 l 10.707,-0.021 c 0.424,-0.918 0.937,-1.718 1.286,-2.694 -1.905,-0.094 -3.455,0.002 -5.316,-0.049"
       clip-path="url(#SVGID_178_)"
       transform="matrix(8.577813,0,0,8.577813,-1358.3395,-926.34629)" />
    <path
       style="fill:#c60024;fill-opacity:1"
       id="path1999"
       d="m 208.544,137.008 c -0.661,0.801 -2.891,0.708 -2.891,0.708 l 1.053,-2.161 c 0,0 1.712,-0.23 2.011,0.581 0.105,0.324 -0.027,0.62 -0.173,0.872 m 0.675,2.33 c 1.521,-0.14 2.965,-0.738 4.009,-1.761 0.69,-0.712 1.099,-1.807 0.754,-2.884 -0.33,-0.987 -1.144,-1.515 -2.105,-1.717 l -8.639,0.04 -5.484,11.294 4.873,-0.068 c 0.775,-1.554 1.477,-3.108 2.341,-4.618 0.612,1.518 1.048,3.111 1.587,4.644 l 4.726,0.007 c -0.613,-1.592 -2.062,-4.937 -2.062,-4.937 z"
       clip-path="url(#SVGID_178_)"
       transform="matrix(8.577813,0,0,8.577813,-1358.3395,-926.34629)" />
    <path
       style="fill:#c60024;fill-opacity:1"
       id="path2001"
       d="m 223.041,133.026 -5.375,0.026 -5.558,11.219 c 1.757,0.14 3.559,0.043 5.405,0.063 l 5.528,-11.308"
       clip-path="url(#SVGID_178_)"
       transform="matrix(8.577813,0,0,8.577813,-1358.3395,-926.34629)" />
    <path
       style="fill:#c60024;fill-opacity:1"
       id="path2003"
       d="m 229.525,139.405 -2.422,-0.02 2.478,-3.747 -0.056,3.767 m 4.754,-6.314 -6.94,-0.026 c -0.485,0.475 -8.615,11.264 -8.615,11.264 l 5.301,-0.055 1.465,-2.369 c 1.403,-0.037 4.15,0.024 4.15,0.024 l 0.07,2.392 4.696,-0.052 c 0,0 -0.067,-11.163 -0.127,-11.178 z"
       clip-path="url(#SVGID_178_)"
       transform="matrix(8.577813,0,0,8.577813,-1358.3395,-926.34629)" />
    <polyline
       style="fill:#c60024;fill-opacity:1"
       id="polyline2005"
       points="248.981,130.585 246.387,135.899 240.045,135.958      242.581,130.541 248.981,130.585    "
       clip-path="url(#SVGID_178_)"
       transform="matrix(8.577813,0,0,8.577813,-1358.3395,-926.34629)" />
    <path
       style="fill:#c60024;fill-opacity:1"
       id="path2009"
       d="m 243.965,132.706 c -0.021,0.295 -0.196,0.65 0.056,0.893 -0.066,0.081 -0.117,0.185 -0.073,0.288 l -0.428,0.002 c 0.08,-0.214 -0.274,-0.264 -0.083,-0.465 l 0.439,-0.733 0.089,0.015"
       clip-path="url(#SVGID_178_)"
       transform="matrix(8.577813,0,0,8.577813,-1358.3395,-926.34629)" />
    <path
       style="fill:#c60024;fill-opacity:1"
       id="path2011"
       d="m 245.032,133.579 c -0.058,0.089 -0.095,0.185 -0.08,0.303 l -0.531,0.018 c 0.058,-0.156 -0.097,-0.244 -0.076,-0.369 0.037,-0.089 0.066,-0.163 0.132,-0.23 l -0.062,-0.598 0.126,0.015 0.491,0.861"
       clip-path="url(#SVGID_178_)"
       transform="matrix(8.577813,0,0,8.577813,-1358.3395,-926.34629)" />
    <path
       style="fill:#c60024;fill-opacity:1"
       id="path2013"
       d="m 243.132,133.005 c -0.014,0.126 -0.124,0.215 -0.116,0.348 0.052,0.073 0.104,0.154 0.119,0.25 -0.111,0.052 -0.095,0.17 -0.095,0.281 -0.125,0.015 -0.28,0.031 -0.399,-0.013 -0.052,-0.177 -0.289,-0.309 -0.135,-0.509 l 0.227,-0.355 0.399,-0.002"
       clip-path="url(#SVGID_178_)"
       transform="matrix(8.577813,0,0,8.577813,-1358.3395,-926.34629)" />
    <path
       style="fill:#c60024;fill-opacity:1"
       id="path2015"
       d="m 245.606,133.008 c 0.126,0.154 0.186,0.339 0.305,0.501 -0.096,0.148 -0.102,0.414 -0.346,0.385 l -0.132,0.001 c -0.008,-0.111 -0.024,-0.258 -0.12,-0.302 -0.06,-0.111 0.08,-0.193 0.065,-0.311 l -0.164,-0.272 c 0.126,-0.023 0.266,-0.024 0.392,-0.002"
       clip-path="url(#SVGID_178_)"
       transform="matrix(8.577813,0,0,8.577813,-1358.3395,-926.34629)" />
    <line
       style="fill:#c60024;fill-opacity:1"
       id="line2019"
       y2="141.48801"
       x2="191.742"
       y1="135.77499"
       x1="194.42"
       clip-path="url(#SVGID_178_)"
       transform="matrix(8.577813,0,0,8.577813,-1358.3395,-926.34629)" />
    <path
       id="path2021"
       d="M 195.79,144.275"
       clip-path="url(#SVGID_178_)"
       transform="matrix(8.577813,0,0,8.577813,-1358.3395,-926.34629)"
       style="fill:#c60024;fill-opacity:1" />
  </g>
</svg>
