<?xml version="1.0" encoding="UTF-8" standalone="no"?>
<!-- Created with Inkscape (http://www.inkscape.org/) -->

<svg
   xmlns:dc="http://purl.org/dc/elements/1.1/"
   xmlns:cc="http://creativecommons.org/ns#"
   xmlns:rdf="http://www.w3.org/1999/02/22-rdf-syntax-ns#"
   xmlns:svg="http://www.w3.org/2000/svg"
   xmlns="http://www.w3.org/2000/svg"
   version="1.1"
   width="1425.4503"
   height="117.46349"
   id="svg2985">
  <metadata
     id="metadata2991">
    <rdf:RDF>
      <cc:Work
         rdf:about="">
        <dc:format>image/svg+xml</dc:format>
        <dc:type
           rdf:resource="http://purl.org/dc/dcmitype/StillImage" />
        <dc:title></dc:title>
      </cc:Work>
    </rdf:RDF>
  </metadata>
  <defs
     id="defs2989" />
  <g
     transform="translate(-27.460907,-45.434024)"
     id="g3102">
    <g
       transform="matrix(2.6355138,0,0,2.6355138,26.802029,44.629646)"
       id="g3032">
      <polyline
         style="fill:#db1f26"
         points="16.479,8.933 32.306,8.933 16.16,44.581 0.25,44.615"
         id="polyline3034" />
      <path
         d="m 60.172,24.783 v 0.392 c 5.551,0.09 6.541,6.459 4.612,10.84 -4.424,10.101 -17.975,8.601 -24.902,8.601 H 20.031 L 36.3,9.096 60.08,8.933 c 0,0 10.697,-0.925 10.079,7.498 0,0 -0.569,7.016 -9.987,8.352 M 49.116,23.152 c 1.166,0 3.179,0 4.423,-2.783 C 54.56,18.087 53.136,17 51.036,17.005 h -3.578 l -2.801,6.147 h 4.459 z M 39.199,35.17 h 5.979 c 1.718,0 3.139,0.337 4.62,-2.619 1.053,-2.094 0.193,-4.118 -2.125,-4.118 H 42.28 l -3.081,6.737 z"
         id="path3036"
         style="fill:#db1f26" />
      <polyline
         style="fill:#db1f26"
         points="79.226,9.122 112.703,9.122 109.354,16.881 90.752,16.881 88.709,22.261 106.662,22.261 103.654,28.95 85.513,28.95 82.667,35.077 100.954,35.077 96.71,44.476 63.097,44.615"
         id="polyline3038" />
      <path
         d="m 117.907,8.992 h 24.385 c 7.991,-0.373 11.886,5.092 9.207,11.46 -2.248,5.417 -8.124,8.264 -15.433,8.748 l 6.95,15.263 -15.112,0.017 -5.213,-14.307 -6.462,14.29 -14.485,0.064 m 23.919,-20.876 h 5.792 c 1.915,0 2.898,-0.276 4.313,-2.889 1.259,-2.309 -0.28,-3.842 -2.398,-3.842 h -4.651 l -3.056,6.731 z"
         id="path3040"
         style="fill:#db1f26" />
      <path
         d="m 181.271,44.406 -16.987,0.043 26.848,-35.591 h 20.732 v 35.548 h -14.318 v -8.643 h -10.97 m 10.969,-18.442 -7.102,11.422 h 7.102 V 17.321 z"
         id="path3042"
         style="fill:#db1f26" />
      <polyline
         style="fill:#db1f26"
         points="161.298,8.912 177.119,8.912 160.977,44.553 145.063,44.606"
         id="polyline3044" />
      <polyline
         style="fill:#db1f26"
         points="235.34,0.328 227.111,18.368 248.506,18.368 256.783,0.328"
         id="polyline3046" />
      <polyline
         style="fill:#db1f26"
         points="247.941,19.567 226.44,19.567 215.244,44.515 236.551,44.512"
         id="polyline3048" />
      <path
         d="m 265.551,18.368 h -15.732 l 8.232,-18.041 h 6.572 c 0,0 9.106,-0.913 10.127,9.08 0,0 -0.188,8.232 -9.199,8.961"
         id="path3050"
         style="fill:#e9af21" />
      <path
         d="m 261.988,44.512 h -24.312 l 11.496,-24.945 h 12.358 c 0,0 13.674,-0.476 13.03,13.686 0.002,0 -0.229,10.403 -12.572,11.259"
         id="path3052"
         style="fill:#e9af21" />
      <path
         d="m 247.117,12.717 h -11.886 v -0.741 c -0.926,0.042 -1.073,-0.787 -1.073,-0.787 -0.027,-0.487 0.543,-0.901 0.543,-0.901 l -0.609,-1.06 1.311,-2.143 h 2.968 l 0.728,-1.166 h 3.989 l 0.677,1.166 h 2.893 l 1.399,2.143 -0.492,1.113 c 0.618,0.193 0.43,0.849 0.43,0.849 -0.078,0.64 -0.876,0.787 -0.876,0.787 m -11.83,-1.857 0.758,1.321 1.228,0.028 c -0.084,-0.392 0,-0.66 0,-0.66 0.058,-0.147 0.328,-0.496 0.328,-0.496 l -0.464,-0.975 0.464,-0.872 h -1.349 l -0.965,1.654 z m 10.482,-1.654 h -1.079 l 0.544,1.028 -0.425,0.819 c 0,0 0.394,0.229 0.455,0.496 0,0 0.247,0.427 0.027,0.66 l 0.774,-0.028 0.755,-1.321 -1.051,-1.654 z m -7.426,1.874 c 0,0 0.719,0.246 0.411,1.129 h 1.584 c 0,0 -0.214,-0.405 0.038,-0.66 0,0 0.119,-0.423 0.251,-0.37 L 240.063,9.38 240.41,7.339 h -0.378 l -1.687,3.001 z m 3.867,-3 h -0.357 l 0.243,1.999 -0.552,1.07 c 0.131,-0.035 0.309,0.427 0.309,0.427 0.222,0.245 0,0.633 0,0.633 l 1.909,-0.028 c -0.395,-0.658 0.324,-1.055 0.324,-1.055 L 242.212,7.34 z"
         id="path3054"
         style="fill:#e9af21" />
      <rect
         width="11.886"
         height="0.69199997"
         x="235.231"
         y="13.133"
         id="rect3056"
         style="fill:#e9af21" />
      <path
         d="m 240.335,5.557 c 0,-0.406 0.324,-0.721 0.724,-0.721 0.403,0 0.739,0.315 0.739,0.721 l -0.017,0.737 h -1.446"
         id="path3058"
         style="fill:#e9af21" />
      <rect
         width="0.61900002"
         height="1.541"
         x="240.755"
         y="3.4419999"
         id="rect3060"
         style="fill:#e9af21" />
      <rect
         width="1.447"
         height="0.542"
         x="240.34"
         y="3.9579999"
         id="rect3062"
         style="fill:#e9af21" />
    </g>
    <path
       d="m 769.92014,161.94376 c -2.42874,-0.2305 -2.64552,-0.38455 -2.32701,-1.6536 0.52161,-2.07827 35.61844,-77.738688 41.07577,-88.549602 l 1.89921,-3.76231 34.17533,0.178717 c 26.16012,0.136802 34.35445,0.357934 34.93904,0.942864 0.60716,0.607527 0.40055,1.523923 -1.00807,4.471092 l -1.77176,3.706946 -24.70888,0.0054 c -13.58988,0.003 -26.14096,0.177416 -27.89129,0.387706 l -3.1824,0.382344 -4.15697,8.708655 c -6.52394,13.667368 -8.12603,18.122418 -6.59171,18.330158 0.25439,0.0344 11.60956,0.24258 25.2337,0.46253 13.62416,0.21994 24.9606,0.58944 25.19209,0.82111 0.63517,0.63561 -0.74688,4.27341 -2.41449,6.35541 l -1.47619,1.84299 -26.11981,0.31813 c -16.97069,0.20669 -26.5135,0.55057 -27.24377,0.98172 -0.61819,0.36497 -2.02948,2.86142 -3.13622,5.54765 -1.10673,2.68624 -4.1553,9.52375 -6.77461,15.19448 -2.6193,5.67072 -4.91916,11.27658 -5.11079,12.45746 -0.30594,1.88526 -0.16999,2.19019 1.11486,2.50066 0.8048,0.19447 12.61046,0.55521 26.23478,0.80163 13.62433,0.24642 24.95981,0.63662 25.18995,0.86711 0.58544,0.58631 -3.30641,7.71464 -4.54345,8.32183 -1.0267,0.50394 -61.64577,0.84887 -66.59731,0.37895 l 0,0 z"
       id="path3086"
       style="fill:#db1f26;fill-opacity:1;stroke:none" />
    <path
       d="m 911.51059,61.425079 c 0.76317,-0.146992 2.01199,-0.146992 2.77516,0 0.76317,0.146993 0.13876,0.26726 -1.38758,0.26726 -1.52633,0 -2.15075,-0.120267 -1.38758,-0.26726 z"
       id="path3088"
       style="fill:#db1f26;fill-opacity:1;stroke:none" />
    <path
       d="m 857.52402,161.85891 c -1.03997,-0.65978 3.54331,-4.99898 25.52354,-24.16427 18.43107,-16.07066 23.94998,-21.05966 25.73651,-23.26538 1.09654,-1.35383 1.09007,-1.50803 -0.23267,-5.55033 -0.74829,-2.28679 -2.88191,-8.18179 -4.74137,-13.099991 C 899.9967,85.692842 893.7804,68.623734 893.7804,68.238963 c 0,-0.139348 2.94708,-0.174593 6.54906,-0.07832 l 6.54906,0.17504 6.74178,16.939664 c 3.70798,9.316816 6.84534,17.043223 6.97192,17.169803 0.55754,0.55754 3.03815,-0.79105 6.3269,-3.439631 1.95529,-1.574685 10.82379,-9.188967 19.70778,-16.920626 l 16.1527,-14.057561 8.05287,0 c 4.42907,0 8.05286,0.247486 8.05286,0.549969 0,0.684337 -6.66609,6.718332 -25.2848,22.887232 -17.80663,15.463667 -25.83574,22.773697 -26.61667,24.232877 -0.7664,1.43203 -0.15978,3.25958 8.16782,24.60652 3.66503,9.39495 6.84137,18.02877 7.05851,19.18628 0.34613,1.84502 0.21723,2.1521 -1.04532,2.49015 -2.22887,0.59678 -9.71827,0.47118 -10.94155,-0.1835 -1.31809,-0.70542 -2.73339,-3.88753 -9.02534,-20.29215 -2.64798,-6.90394 -5.28895,-13.13852 -5.86882,-13.85462 l -1.0543,-1.30202 -2.99763,2.44563 c -1.64869,1.3451 -9.12552,7.74314 -16.61517,14.21788 -22.6814,19.60789 -22.25812,19.34193 -30.79173,19.34823 -3.05267,0.002 -5.90852,-0.22315 -6.34631,-0.5009 z"
       id="path3090"
       style="fill:#db1f26;fill-opacity:1;stroke:none" />
    <path
       d="m 963.26065,161.94749 c -1.96394,-0.50691 -3.69214,3.50304 25.05393,-58.13282 13.88212,-29.765291 16.46022,-34.886066 17.74462,-35.244744 0.8266,-0.230807 13.1585,-0.444645 27.4043,-0.475194 l 25.9015,-0.05554 4.0424,3.03659 c 2.7754,2.08479 4.6117,4.064271 5.8587,6.315271 1.7041,3.076314 1.8157,3.69739 1.8067,10.062409 -0.01,6.497159 -0.1027,6.979113 -2.2144,11.408994 -4.6955,9.850044 -15.1374,17.995034 -26.939,21.013394 -5.0502,1.29161 -22.3429,2.3899 -37.9489,2.4102 l -8.52511,0.0111 -7.02881,14.64668 c -10.33664,21.53957 -11.5449,23.78723 -13.25134,24.6507 -1.4563,0.73691 -9.49381,0.97523 -11.90459,0.35297 l 0,0 z m 69.29535,-50.09321 c 7.2216,-0.76028 12.2533,-3.21135 17.2282,-8.3922 7.3727,-7.67792 8.7231,-15.768962 3.6046,-21.598545 -3.7041,-4.218817 -3.9953,-4.277317 -21.2852,-4.277317 -14.446,0 -15.6035,0.08109 -16.3846,1.147912 -1.3973,1.908344 -14.0058,29.17517 -14.3982,31.13713 -0.2888,1.44434 -0.1258,1.88789 0.7795,2.12092 2.0679,0.53224 25.08,0.42804 30.4557,-0.1379 l 0,0 z"
       id="path3092"
       style="fill:#db1f26;fill-opacity:1;stroke:none" />
    <path
       d="m 1061.6116,161.83364 c -0.5606,-0.35525 -0.6844,-1.01065 -0.3749,-1.98585 0.5008,-1.57761 14.6506,-32.2526 31.7585,-68.848295 l 10.7392,-22.972164 27.1625,0 27.1625,0 2.4558,1.626403 c 6.628,4.389553 9.5736,9.08948 10.0269,15.998572 1.0932,16.664904 -13.4208,31.124074 -35.8619,35.726584 -1.6784,0.34422 -1.7564,0.50133 -1.4672,2.95354 0.168,1.42449 2.6619,8.69533 5.5421,16.15743 6.3382,16.42159 7.4748,19.81795 7.0248,20.99082 -0.2715,0.70743 -1.6607,0.90212 -6.437,0.90212 -5.037,0 -6.2509,-0.18671 -7.0163,-1.07923 -0.5091,-0.59358 -3.792,-9.21475 -7.2953,-19.15817 -4.4433,-12.61128 -6.7517,-18.34648 -7.6327,-18.96359 -0.9843,-0.68937 -3.729,-0.88467 -12.4337,-0.88467 l -11.1707,0 -6.8463,14.64668 c -3.7655,8.05568 -7.8015,16.75862 -8.9689,19.33987 -1.7863,3.94964 -2.4421,4.80455 -4.1391,5.39614 -2.3513,0.81966 -11.0056,0.92852 -12.2283,0.15381 l 0,0 z m 71.0535,-50.03959 c 7.377,-1.06644 16.1957,-6.57048 19.8809,-12.408326 3.5382,-5.604879 2.8244,-15.675938 -1.3435,-18.954382 -3.5252,-2.772967 -7.5027,-3.346539 -22.438,-3.235687 -7.6204,0.05656 -14.0256,0.306334 -14.2337,0.555052 -0.6424,0.7675 -12.8617,27.570253 -13.8628,30.407783 -0.519,1.47111 -0.8058,3.034 -0.6374,3.47308 0.3799,0.98999 26.027,1.11768 32.6345,0.16248 z"
       id="path3094"
       style="fill:#db1f26;fill-opacity:1;stroke:none" />
    <path
       d="m 1170.834,161.96036 c -1.1024,-0.14982 -2.0043,-0.56801 -2.0043,-0.9293 0,-1.41655 14.3378,-32.74175 37.1348,-81.132208 l 5.5927,-11.871521 34.7198,0 c 20.8648,0 34.8619,0.23003 35.076,0.576447 0.1959,0.317046 -0.392,2.398416 -1.3065,4.625268 l -1.6627,4.048821 -25.6379,0.0068 c -14.1008,0.0038 -26.6956,0.181574 -27.9884,0.395202 -2.2553,0.372658 -2.4722,0.630688 -5.3476,6.360643 -5.852,11.661349 -9.077,20.299948 -7.8736,21.090218 0.085,0.0557 11.4402,0.26382 25.2342,0.46253 13.7939,0.1987 25.2647,0.54635 25.4905,0.77255 0.6024,0.60348 -1.7642,5.56383 -3.3091,6.93586 -1.2439,1.10471 -3.011,1.21318 -27.6579,1.69767 -14.481,0.28466 -26.5247,0.72491 -26.7638,0.97835 -0.5819,0.61671 -12.645,26.62135 -14.5007,31.25935 -1.1298,2.82378 -1.2891,3.7759 -0.6947,4.1533 0.4241,0.2693 3.4075,0.52325 6.6298,0.56434 23.2692,0.29669 45.6098,0.94437 45.9983,1.33356 0.2549,0.25538 -0.1859,1.85096 -0.9797,3.54573 -2.6613,5.68182 0.3946,5.23009 -35.9865,5.31965 -17.6871,0.0436 -33.0604,-0.0434 -34.1627,-0.19325 z"
       id="path3096"
       style="fill:#db1f26;fill-opacity:1;stroke:none" />
    <path
       d="m 1283.8447,162.58283 c -7.3934,-0.92656 -21.2787,-4.4445 -21.2702,-5.38893 0,-0.36838 0.6843,-2.12673 1.5133,-3.90746 1.0277,-2.20722 1.873,-3.23769 2.6559,-3.23769 0.6317,0 5.4317,0.66735 10.6665,1.48301 15.8218,2.46521 24.992,3.14325 30.4982,2.255 9.1468,-1.47554 16.0147,-4.71462 21.3865,-10.08639 5.2461,-5.24612 7.2339,-11.94359 5.1581,-17.37911 -1.7197,-4.50282 -5.2604,-6.9937 -20.9112,-14.71101 -18.2622,-9.00494 -20.7729,-11.44444 -20.7364,-20.148228 0.036,-8.61934 4.7127,-15.05205 14.5113,-19.960569 5.1118,-2.560657 14.7424,-4.573454 27.0976,-5.663335 8.3351,-0.735262 26.7646,1.403522 28.8202,3.344632 0.2485,0.234705 -0.3641,2.152122 -1.3614,4.260927 -2.0688,4.374458 -1.3533,4.181397 -10.8079,2.916053 -12.7908,-1.711844 -28.0343,-0.930036 -33.8589,1.736551 -1.8102,0.828717 -4.4215,2.527871 -5.8029,3.775899 -4.5247,4.087815 -4.9896,12.115321 -0.8709,15.036751 0.9243,0.655568 7.6471,4.115409 14.9396,7.688529 14.2269,6.97082 18.8035,10.21386 21.9212,15.53393 3.2283,5.50857 3.1808,13.82263 -0.1177,20.62874 -2.0424,4.2144 -9.5646,11.83177 -14.6028,14.78767 -5.6833,3.33436 -13.8127,6.11483 -19.9258,6.81518 -5.1144,0.58593 -24.7872,0.73558 -28.9023,0.21985 l 0,0 z"
       id="path3098"
       style="fill:#db1f26;fill-opacity:1;stroke:none" />
    <path
       d="m 1376.0417,162.56983 c -2.7193,-0.29264 -16.8056,-3.0711 -19.8887,-3.92294 -1.2719,-0.35144 -2.3126,-0.93399 -2.3126,-1.29455 0,-1.01014 3.8079,-7.92029 4.3646,-7.92029 0.2708,0 2.342,0.42892 4.6025,0.95317 6.4153,1.48782 20.2342,3.32179 28.035,3.72067 5.992,0.30639 7.8574,0.16342 12.0257,-0.92173 9.8536,-2.56519 17.9954,-7.85881 21.6324,-14.0648 1.2936,-2.20749 1.7633,-3.94889 1.9813,-7.34584 0.3333,-5.19229 -0.599,-7.23732 -5.0848,-11.15446 -2.9918,-2.61256 -2.561,-2.37808 -18.2314,-9.92287 -13.1801,-6.34573 -16.3729,-8.85429 -18.175,-14.279997 -1.4111,-4.248489 -1.009,-9.905242 0.9885,-13.904803 3.0909,-6.188874 11.2698,-11.373202 22.4394,-14.223478 10.4137,-2.657412 32.3789,-2.803277 41.0107,-0.272341 3.873,1.135622 3.9477,1.271716 2.9249,5.332416 -0.816,3.23957 -1.0671,3.604159 -2.3811,3.456843 -0.8079,-0.09058 -8.693,-0.334719 -17.5225,-0.542537 -18.2574,-0.429718 -20.7693,-0.119181 -26.3223,3.254116 -4.4501,2.7033 -6.7296,5.935667 -7.1309,10.111987 -0.2414,2.512944 -0.033,3.451707 1.1485,5.176129 1.6371,2.389317 5.7935,5.047658 11.6645,7.460485 2.2047,0.90608 7.3388,3.34721 11.409,5.42473 5.979,3.05177 8.2481,4.61519 11.8134,8.13949 5.183,5.12345 6.0304,7.24459 6.0334,15.10175 0,4.8743 -0.1605,5.54817 -2.3139,9.60768 -2.2619,4.26401 -7.9354,10.62027 -11.8327,13.25647 -6.8828,4.65573 -15.7732,7.83283 -24.0514,8.59502 -5.9472,0.54758 -22.3848,0.65768 -26.8265,0.17968 l 0,0 z"
       id="path3100"
       style="fill:#db1f26;fill-opacity:1;stroke:none" />
  </g>
</svg>
