<?xml version="1.0" encoding="UTF-8" standalone="no"?>
<!-- Generator: Adobe Illustrator 12.0.0, SVG Export Plug-In  -->

<svg
   xmlns:dc="http://purl.org/dc/elements/1.1/"
   xmlns:cc="http://creativecommons.org/ns#"
   xmlns:rdf="http://www.w3.org/1999/02/22-rdf-syntax-ns#"
   xmlns:svg="http://www.w3.org/2000/svg"
   xmlns="http://www.w3.org/2000/svg"
   xmlns:sodipodi="http://sodipodi.sourceforge.net/DTD/sodipodi-0.dtd"
   xmlns:inkscape="http://www.inkscape.org/namespaces/inkscape"
   version="1.1"
   width="448.07568"
   height="94.40332"
   viewBox="-0.3779297 -0.2182617 448.07568 94.40332"
   enable-background="new -0.3779297 -0.2182617 501 131"
   xml:space="preserve"
   id="svg2"
   inkscape:version="0.48.1 "
   sodipodi:docname="AJAX.svg"><metadata
   id="metadata54"><rdf:RDF><cc:Work
       rdf:about=""><dc:format>image/svg+xml</dc:format><dc:type
         rdf:resource="http://purl.org/dc/dcmitype/StillImage" /></cc:Work></rdf:RDF></metadata><sodipodi:namedview
   pagecolor="#ffffff"
   bordercolor="#666666"
   borderopacity="1"
   objecttolerance="10"
   gridtolerance="10"
   guidetolerance="10"
   inkscape:pageopacity="0"
   inkscape:pageshadow="2"
   inkscape:window-width="1280"
   inkscape:window-height="1004"
   id="namedview52"
   showgrid="false"
   fit-margin-top="0"
   fit-margin-left="0"
   fit-margin-right="0"
   fit-margin-bottom="0"
   inkscape:zoom="1.4581158"
   inkscape:cx="368.22613"
   inkscape:cy="-36.064471"
   inkscape:window-x="-8"
   inkscape:window-y="-8"
   inkscape:window-maximized="1"
   inkscape:current-layer="svg2" />
<defs
   id="defs4">
</defs>
<polygon
   clip-rule="evenodd"
   points="500,130.31885 0,130.31885 0,0 0,0 500,0 "
   id="polygon6"
   style="opacity:0;fill:#ffffff;fill-rule:evenodd"
   transform="translate(-16.670412,-18.176758)" />
<path
   clip-rule="evenodd"
   d="m 94.023928,47.079101 c 0,26.042481 -21.254399,47.105961 -47.295903,47.105961 -26.04248,0 -47.10595576,-21.06348 -47.10595576,-47.105961 0,-26.233398 21.06347576,-47.2973627 47.10595576,-47.2973627 26.041504,0 47.295903,21.0639647 47.295903,47.2973627 l 0,0 z"
   id="path8"
   inkscape:connector-curvature="0"
   style="fill:#2a94c2;fill-rule:evenodd" />
<path
   clip-rule="evenodd"
   d="m 23.366209,25.632324 c 3.638672,0 6.511231,2.872559 6.511231,6.51123 0,3.82959 -2.872559,6.702149 -6.511231,6.702149 -3.638672,0 -6.702148,-2.872559 -6.702148,-6.702149 0,-3.638671 3.063476,-6.51123 6.702148,-6.51123 l 0,0 z"
   id="path10"
   inkscape:connector-curvature="0"
   style="fill:#111183;fill-rule:evenodd" />
<path
   clip-rule="evenodd"
   d="m 117.95996,31.760254 c 0,1.53125 -1.14892,2.873047 -2.68017,2.873047 -1.53223,0 -2.87256,-1.341797 -2.87256,-2.873047 0,-1.532227 1.34033,-2.681641 2.87256,-2.681641 1.53125,0 2.68017,1.149414 2.68017,2.681641 l 0,0 z m -0.76611,31.40332 h -4.02051 V 40.376953 h 4.02051 v 22.786621 l 0,0 z"
   id="path12"
   inkscape:connector-curvature="0"
   style="fill:#111183;fill-rule:evenodd" />
<path
   clip-rule="evenodd"
   d="m 126.57666,43.058594 h 0.19092 c 1.53222,-2.106446 3.63867,-3.25586 6.31885,-3.25586 6.32031,0 7.85156,4.596192 7.85156,9.76416 v 13.59668 h -4.02051 V 50.333496 c 0,-3.637695 -0.19238,-7.083985 -4.5957,-7.083985 -5.36231,0 -5.74512,4.97754 -5.74512,9.19043 v 10.723633 h -3.82959 V 40.376953 h 3.82959 v 2.681641 l 0,0 z"
   id="path14"
   inkscape:connector-curvature="0"
   style="fill:#111183;fill-rule:evenodd" />
<path
   clip-rule="evenodd"
   d="m 163.15088,60.099121 0,0 c -1.91553,2.298828 -4.78809,3.638672 -7.85156,3.638672 -6.70215,0 -10.91504,-5.552735 -10.91504,-11.872071 0,-6.509765 4.21289,-12.062988 10.91504,-12.062988 3.06347,0 5.93603,1.340332 7.85156,3.82959 l 0,0 V 24.291992 h 4.02051 v 38.871582 h -4.02051 v -3.064453 l 0,0 z m -14.74463,-8.615234 c 0,4.594726 2.48828,8.807617 7.46729,8.807617 4.97851,0 7.46826,-4.020508 7.46826,-8.618164 0,-4.594239 -2.68018,-8.423829 -7.65918,-8.423829 -4.40528,0 -7.27637,4.020508 -7.27637,8.234376 l 0,0 z"
   id="path16"
   inkscape:connector-curvature="0"
   style="fill:#111183;fill-rule:evenodd" />
<path
   clip-rule="evenodd"
   d="m 174.25684,52.632324 c 0,4.211914 3.06347,7.65918 7.46826,7.65918 3.25439,0 5.36084,-2.106446 6.89306,-4.78711 l 3.44629,1.914063 c -2.29834,4.020508 -5.93603,6.319336 -10.53174,6.319336 -6.89306,0 -11.10546,-5.168946 -11.10546,-11.679688 0,-6.702148 3.82959,-12.255371 10.91455,-12.255371 7.27636,0 11.10595,5.936035 10.91357,12.82959 h -17.99853 l 0,0 z m 13.78613,-3.254883 c -0.3833,-3.446289 -3.25586,-6.12793 -6.70117,-6.12793 -3.25537,0 -6.31885,2.681641 -6.89405,6.12793 h 13.59522 l 0,0 z"
   id="path18"
   inkscape:connector-curvature="0"
   style="fill:#111183;fill-rule:evenodd" />
<path
   clip-rule="evenodd"
   d="m 199.1499,43.632324 h 0.19092 c 1.91553,-2.489258 4.78809,-3.82959 7.85156,-3.82959 6.70215,0 10.91358,5.745117 10.91358,12.062988 0,6.511719 -4.21143,11.872071 -10.91358,11.872071 -3.06347,0 -5.93603,-1.339844 -7.85156,-3.828125 H 199.1499 V 77.14209 h -3.82959 V 40.376953 h 3.82959 v 3.255371 l 0,0 z m -0.19238,7.851563 c 0,4.594726 2.68164,8.807617 7.46875,8.807617 4.97852,0 7.65918,-4.020508 7.65918,-8.618164 0,-4.594239 -2.87158,-8.423829 -7.65918,-8.423829 -4.40381,0 -7.46875,4.020508 -7.46875,8.234376 l 0,0 z"
   id="path20"
   inkscape:connector-curvature="0"
   style="fill:#111183;fill-rule:evenodd" />
<path
   clip-rule="evenodd"
   d="m 224.61719,52.632324 c 0.19092,4.211914 3.06347,7.65918 7.46826,7.65918 3.44629,0 5.55273,-2.106446 7.08496,-4.78711 l 3.25488,1.914063 c -2.29883,4.020508 -5.93457,6.319336 -10.53222,6.319336 -6.89258,0 -11.10547,-5.168946 -11.10547,-11.679688 0,-6.702148 3.82959,-12.255371 10.91504,-12.255371 7.46777,0 11.29687,5.936035 10.91504,12.82959 h -18.00049 l 0,0 z m 13.7876,-3.254883 c -0.38477,-3.446289 -3.25586,-6.12793 -6.51172,-6.12793 -3.44629,0 -6.50977,2.681641 -7.08496,6.12793 h 13.59668 l 0,0 z"
   id="path22"
   inkscape:connector-curvature="0"
   style="fill:#111183;fill-rule:evenodd" />
<path
   clip-rule="evenodd"
   d="m 249.89209,43.058594 0,0 c 1.72461,-2.106446 3.63867,-3.25586 6.51172,-3.25586 6.31836,0 7.65918,4.596192 7.65918,9.76416 v 13.59668 h -3.82813 V 50.333496 c 0,-3.637695 -0.19238,-7.083985 -4.79004,-7.083985 -5.36035,0 -5.55273,4.97754 -5.55273,9.19043 v 10.723633 h -4.02051 V 40.376953 h 4.02051 v 2.681641 l 0,0 z"
   id="path24"
   inkscape:connector-curvature="0"
   style="fill:#111183;fill-rule:evenodd" />
<path
   clip-rule="evenodd"
   d="m 286.46631,60.099121 0,0 c -1.91406,2.298828 -4.78613,3.638672 -7.85156,3.638672 -6.7002,0 -10.91309,-5.552735 -10.91309,-11.872071 0,-6.509765 4.02051,-12.062988 10.91309,-12.062988 3.06543,0 5.9375,1.340332 7.85156,3.82959 l 0,0 V 24.291992 h 3.82812 v 38.871582 h -3.82812 v -3.064453 l 0,0 z m -14.93652,-8.615234 c 0,4.594726 2.68261,8.807617 7.6621,8.807617 4.78614,0 7.4668,-4.020508 7.4668,-8.618164 0,-4.594239 -2.87207,-8.423829 -7.65918,-8.423829 -4.40527,0 -7.46972,4.020508 -7.46972,8.234376 l 0,0 z"
   id="path26"
   inkscape:connector-curvature="0"
   style="fill:#111183;fill-rule:evenodd" />
<path
   clip-rule="evenodd"
   d="m 297.57275,52.632324 c 0,4.211914 3.06446,7.65918 7.46875,7.65918 3.25489,0 5.36133,-2.106446 6.89356,-4.78711 l 3.25391,1.914063 c -2.10547,4.020508 -5.93458,6.319336 -10.53125,6.319336 -6.70118,0 -11.10547,-5.168946 -11.10547,-11.679688 0,-6.702148 4.0205,-12.255371 11.10547,-12.255371 7.27734,0 11.10546,5.936035 10.72363,12.82959 h -17.8086 l 0,0 z m 13.78809,-3.254883 c -0.57617,-3.446289 -3.25684,-6.12793 -6.70313,-6.12793 -3.44628,0 -6.51171,2.681641 -6.89355,6.12793 h 13.59668 l 0,0 z"
   id="path28"
   inkscape:connector-curvature="0"
   style="fill:#111183;fill-rule:evenodd" />
<path
   clip-rule="evenodd"
   d="m 322.65674,43.058594 h 0.19238 c 1.53223,-2.106446 3.63867,-3.25586 6.31836,-3.25586 6.31934,0 7.85156,4.596192 7.85156,9.76416 v 13.59668 h -3.83105 V 50.333496 c 0,-3.637695 -0.38184,-7.083985 -4.78613,-7.083985 -5.36133,0 -5.74512,4.97754 -5.74512,9.19043 v 10.723633 h -3.82813 V 40.376953 h 3.82813 v 2.681641 l 0,0 z"
   id="path30"
   inkscape:connector-curvature="0"
   style="fill:#111183;fill-rule:evenodd" />
<path
   clip-rule="evenodd"
   d="m 359.42334,47.079101 h -0.19238 c -1.72461,-2.106445 -4.02051,-3.829589 -7.08496,-3.829589 -4.59473,0 -8.04102,4.020507 -8.04102,8.616211 0,4.405273 3.06152,8.425781 7.84863,8.425781 3.25684,0 5.55274,-1.532227 7.46973,-4.020508 l 0,0 v 5.167969 c -2.10645,1.532226 -4.40527,2.298828 -7.08594,2.298828 -6.89258,0 -12.06347,-5.168945 -12.06347,-11.87207 0,-6.893067 5.36328,-12.062989 12.06347,-12.062989 2.48828,0 4.97949,0.766114 7.08594,2.297364 v 4.979003 l 0,0 z"
   id="path32"
   inkscape:connector-curvature="0"
   style="fill:#111183;fill-rule:evenodd" />
<path
   clip-rule="evenodd"
   d="m 365.55029,52.632324 c 0,4.211914 3.06446,7.65918 7.4668,7.65918 3.25684,0 5.36328,-2.106446 6.89551,-4.78711 l 3.25488,1.914063 c -2.10644,4.020508 -5.74512,6.319336 -10.53223,6.319336 -6.70312,0 -11.10546,-5.168946 -11.10546,-11.679688 0,-6.702148 3.82812,-12.255371 11.10546,-12.255371 7.27735,0 11.10547,5.936035 10.72364,12.82959 h -17.8086 l 0,0 z m 13.78614,-3.254883 c -0.57422,-3.446289 -3.25489,-6.12793 -6.70118,-6.12793 -3.44629,0 -6.51171,2.681641 -6.89355,6.12793 h 13.59473 l 0,0 z"
   id="path34"
   inkscape:connector-curvature="0"
   style="fill:#111183;fill-rule:evenodd" />
<path
   clip-rule="evenodd"
   d="m 419.35693,63.163574 h -3.82812 v -3.064453 h -0.19238 c -1.91407,2.490234 -4.59473,3.638672 -7.85157,3.638672 -6.70117,0 -10.91308,-5.552735 -10.91308,-11.87207 0,-6.509766 4.21191,-12.062989 11.10547,-12.062989 3.06445,0 5.93457,1.340332 7.65918,3.82959 h 0.19238 v -3.255371 h 3.82812 v 22.786621 l 0,0 z M 400.59229,51.483887 c 0,4.594726 2.67968,8.807617 7.46679,8.807617 4.97852,0 7.66211,-4.020508 7.66211,-8.618164 0,-4.594239 -2.87305,-8.423829 -7.66211,-8.423829 -4.59472,0 -7.46679,4.020508 -7.46679,8.234376 l 0,0 z"
   id="path36"
   inkscape:connector-curvature="0"
   style="fill:#111183;fill-rule:evenodd" />
<path
   clip-rule="evenodd"
   d="m 430.08057,31.760254 c 0,1.53125 -1.33985,2.873047 -2.87207,2.873047 -1.33985,0 -2.68067,-1.341797 -2.68067,-2.873047 0,-1.532227 1.34082,-2.681641 2.68067,-2.681641 1.53222,0 2.87207,1.149414 2.87207,2.681641 l 0,0 z m -0.95801,31.40332 h -3.82813 V 40.376953 h 3.82813 v 22.786621 l 0,0 z"
   id="path38"
   inkscape:connector-curvature="0"
   style="fill:#111183;fill-rule:evenodd" />
<path
   clip-rule="evenodd"
   d="m 439.08057,42.866211 0,0 c 1.33984,-1.723145 2.67968,-3.063477 5.17089,-3.063477 1.14844,0 2.2959,0.383301 3.44629,0.957031 l -1.91601,3.639161 c -0.76367,-0.574219 -1.34082,-1.149414 -2.29688,-1.149414 -4.21191,0 -4.40429,5.55371 -4.40429,8.61621 v 11.297852 h -3.83106 V 40.376953 h 3.83106 v 2.489258 l 0,0 z"
   id="path40"
   inkscape:connector-curvature="0"
   style="fill:#111183;fill-rule:evenodd" />




<path
   clip-rule="evenodd"
   d="M 34.664061,81.162597 H 28.918943 V 44.589355 c -1.723144,2.298828 -16.849609,2.298828 -16.849609,2.298828 v 1.338868 h 5.743652 v 32.935546 h -3.637207 c 0.573731,0.574219 1.14795,0.958005 1.723145,1.532225 h 18.765137 v -1.532225 l 0,0 z"
   id="path50"
   inkscape:connector-curvature="0"
   style="fill:#ffffff;fill-rule:evenodd" />
</svg>