<?xml version="1.0" encoding="UTF-8" standalone="no"?>
<svg
   xmlns:dc="http://purl.org/dc/elements/1.1/"
   xmlns:cc="http://creativecommons.org/ns#"
   xmlns:rdf="http://www.w3.org/1999/02/22-rdf-syntax-ns#"
   xmlns:svg="http://www.w3.org/2000/svg"
   xmlns="http://www.w3.org/2000/svg"
   xmlns:sodipodi="http://sodipodi.sourceforge.net/DTD/sodipodi-0.dtd"
   xmlns:inkscape="http://www.inkscape.org/namespaces/inkscape"
   version="1.1"
   id="svg2"
   xml:space="preserve"
   width="3465.3333"
   height="528"
   viewBox="0 0 3465.3333 528"
   sodipodi:docname="Indian_Airlines.eps"><metadata
     id="metadata8"><rdf:RDF><cc:Work
         rdf:about=""><dc:format>image/svg+xml</dc:format><dc:type
           rdf:resource="http://purl.org/dc/dcmitype/StillImage" /></cc:Work></rdf:RDF></metadata><defs
     id="defs6" /><sodipodi:namedview
     pagecolor="#ffffff"
     bordercolor="#666666"
     borderopacity="1"
     objecttolerance="10"
     gridtolerance="10"
     guidetolerance="10"
     inkscape:pageopacity="0"
     inkscape:pageshadow="2"
     inkscape:window-width="640"
     inkscape:window-height="480"
     id="namedview4" /><g
     id="g10"
     inkscape:groupmode="layer"
     inkscape:label="ink_ext_XXXXXX"
     transform="matrix(1.3333333,0,0,-1.3333333,0,528)"><g
       id="g12"
       transform="scale(0.1)"><path
         d="m 7306.39,3554 h 383.2 v 328.54 h -383.2 V 3554"
         style="fill:#3d4346;fill-opacity:1;fill-rule:evenodd;stroke:none"
         id="path14" /><path
         d="m 8007.08,3805.85 v -295.64 h 481.67 v 186.13 c 0,35.41 39.75,54.77 76.65,54.77 l 11.59,4.05 1389.66,-234.02 -0.85,105 -799.65,145.29 -31.49,23.48 c -129.78,0 -338.06,56.3 -477.5,80.89 -138.21,24.32 -344.2,83.38 -474.93,83.38 -85.6,0 -175.15,-72.66 -175.15,-153.33"
         style="fill:#404649;fill-opacity:1;fill-rule:evenodd;stroke:none"
         id="path16" /><path
         d="m 23101.1,2530.69 v -21.92 c 0,-137.18 221.4,-251.86 361.3,-251.86 h 131.4 c 152.9,0 394.1,110.5 394.1,240.89 0,57.64 -13.2,94.25 -32.9,131.42 h 219 v 164.29 h -394.2 c -265.9,0 -678.7,-11.86 -678.7,-262.82"
         style="fill:#494f53;fill-opacity:1;fill-rule:evenodd;stroke:none"
         id="path18" /><path
         d="m 16830.7,3236.4 h 131.4 v -613.28 c 0,-105.69 -176.7,-175.2 -295.6,-175.2 -127.1,0 -284.6,158.07 -284.6,273.77 v 43.83 c 0,169.38 448.8,-3.92 448.8,218.99 z m 8057.4,0 h 350.3 v -273.8 h -350.3 z m -10914.6,0 h 306.5 v -919.89 c 0,-280.24 294.3,-325.46 507,-401.79 201.1,-72.18 473.6,-197.36 675.3,-244.33 v 142.34 c -49.9,11.61 -322.2,185.78 -387.6,225.56 -130.5,79.4 -313,126.96 -313,311.04 v 887.07 h 503.5 v -503.76 c 0,-42.75 -41.7,-98.57 -76.6,-98.57 h -175.1 v -219.02 h 328.4 c 210.1,0 416,127.52 416,328.51 V 3236.4 H 16349 V 3105 c 0,-61.1 -33.9,-131.46 -87.5,-131.46 h -306.6 v -32.83 c 0,-352.12 242.1,-668.03 602.2,-668.03 175.3,0 301,83.65 405,153.35 v -219.08 h 481.7 V 3236.4 h 591.2 v -361.38 c 0,-69.44 -62.6,-98.55 -131.4,-98.55 h -273.7 v -208.11 h 131.4 c 145.4,0 333.5,-350.45 394.1,-350.45 l 246.4,4.66 -279.3,345.79 c 208.3,0 405.1,81 405.1,284.75 v 383.29 h 1357.5 v -197.11 l -6.6,9.68 -201.4,-141.11 c -141.6,94.84 -168.3,175.21 -427,175.21 h -10.9 c -233.4,0 -514.6,-182.15 -514.6,-394.21 v -54.79 c 0,-223.68 260.5,-416.16 481.7,-416.16 h 240.9 v 87.64 c -138.6,11.53 -306.5,148.93 -306.5,295.66 v 32.86 c 0,108.48 87.4,219.04 197,219.04 h 87.6 c 95.8,0 175.2,-115.68 175.2,-219.04 v -76.66 h 164.2 v 87.61 c 0,99.52 85.4,208.09 175.1,208.09 h 98.6 c 75.2,0 175.1,-99.96 175.1,-175.19 v -109.56 c 0,-114 -174,-260.11 -295.6,-262.81 v -87.64 h 251.8 c 203.4,0 470.8,199.41 470.8,405.21 v 21.9 c 0,219.73 -227,433.37 -437.9,438.05 v 153.33 h 667.7 V 2206.95 h 470.8 V 3236.4 h 1007.2 v -109.5 h -503.6 c -61.9,0 -59.9,-21.9 -131.4,-21.9 -63.2,-42.37 -131.3,-69.01 -131.3,-175.23 v -186.21 c 0,-326.19 853.9,-57.08 853.9,-240.88 v -43.8 c 0,-27.68 -45.4,-54.75 -65.7,-54.75 H 21571 v -197.18 h 98.5 c 79.9,0 105,-87.11 120.5,-153.29 l 255.9,1.47 -47.9,151.82 h 613 c 116,0 229.9,80.73 229.9,186.22 v 142.34 c 0,91.62 -55.1,219.04 -131.3,219.04 h -32.9 v 21.92 h -547.4 c -45.1,0 -98.5,36.78 -98.5,76.64 0,55.3 81.1,76.66 142.3,76.66 h 569.3 v 306.63 h 1664 v -339.49 c 0,-68.52 -60.7,-109.49 -131.3,-109.49 h -109.6 v -153.35 c 198.3,-4.4 388.1,-427.12 503.6,-427.12 h 197.1 l 8.6,6.91 -282.3,354.5 c 137.4,0 263.5,85.59 273.7,208.11 h 372.2 v -569.52 h 481.7 V 3236.4 h 262.8 v 164.29 H 13973.5 V 3236.4"
         style="fill:#3e4448;fill-opacity:1;fill-rule:evenodd;stroke:none"
         id="path20" /><path
         d="m 11072.3,3236.4 h 131.4 v -602.33 c 0,-104.7 -190.6,-186.15 -295.5,-186.15 -150.2,0 -284.7,174.58 -284.7,328.55 v 10.95 c 0,68.7 231,65.69 306.5,65.69 l 75.1,27.35 c 27.5,33.26 67.2,45.63 67.2,104.05 z m -4554.11,0 h 788.2 v -109.5 h -514.52 c -131.28,0 -262.73,-76.41 -262.73,-208.09 v -120.44 c 0,-443.73 864.86,-71.63 864.86,-317.58 v -10.95 c 0,-35.49 -47.59,-65.71 -87.61,-65.71 h -777.25 v -186.22 h 131.39 c 11.63,-43.62 65.66,-71.97 65.66,-109.47 v -54.78 l 274.59,0.35 -55.62,152.94 h 613.03 c 115.1,0 229.91,66.11 229.91,175.25 v 186.16 c 0,396.66 -799.17,79.85 -799.17,273.8 v 21.91 c 0,45 60.23,65.7 109.5,65.7 h 602.11 v 306.63 h 306.54 V 2206.95 H 8499.7 V 3236.4 h 1061.9 v -109.5 h -459.79 c -101.25,0 -146.1,-32.87 -218.97,-32.87 -44.16,-66 -98.5,-51.26 -98.5,-186.17 v -164.3 c 0,-148.04 221.87,-175.26 383.14,-175.2 139.65,0.06 481.72,53.23 481.72,-87.57 0,-35.5 -47.58,-65.74 -87.6,-65.74 h -777.26 v -208.1 H 9813.4 c 109.84,0 229.9,76.31 229.9,175.25 v 219.01 c 0,334.74 -799.16,45.4 -799.16,251.9 0,45.87 53.08,76.66 98.53,76.66 h 602.09 v 306.63 h 656.84 V 3105 c 0,-41.52 -37,-93.98 -54.9,-118.93 l -120.2,-12.53 h -229.9 v -32.83 c 0,-154.9 77.5,-356.01 145.1,-446.16 44.3,-59.11 89.6,-106.98 150.6,-145.08 37.6,-23.46 175.8,-76.79 229.8,-76.79 h 87.5 c 38.8,0 188.4,36.2 223.6,50.16 108.2,43.02 97.7,65.39 170.5,114.15 v -230.04 h 481.7 V 3236.4 h 1116.7 v -361.38 h -656.9 c -198,0 -405.1,-78.45 -405.1,-262.82 v -32.89 c 0,-125.21 203.2,-240.89 339.5,-240.89 h 197 c 154.7,0 394.1,89.6 394.1,229.94 v 142.37 h 131.4 v -503.78 h 470.7 V 3236.4 h 350.3 v 164.29 H 6518.19 V 3236.4"
         style="fill:#404649;fill-opacity:1;fill-rule:evenodd;stroke:none"
         id="path22" /><path
         d="M 4.43359,49.582 H 1000.65 c 32.1,0 485.81,740.133 541.05,827.703 44.56,70.68 89.63,143.265 126.61,212.825 18.23,34.39 105.18,180.31 128.6,210.87 44.89,58.65 91.28,142.57 131.96,207.42 43.44,69.24 94.22,149.83 133.38,217.08 110.96,190.75 1035.55,1639.62 1040.36,1697.09 h -985.32 c -51.63,0 -934.75,-1513.54 -1060.9,-1676.56 C 980.289,1647.67 866.164,1445.45 796.313,1327.22 708.32,1178.18 616.578,1052.46 535.707,898.012 504.984,839.406 436.391,751.105 398.191,696.043 374.109,661.242 362.77,615.559 335.738,583.332 310.164,552.895 286.734,512.879 265.281,478.547 233.531,427.699 8.89453,66.4063 4.43359,49.582"
         style="fill:#f0582a;fill-opacity:1;fill-rule:evenodd;stroke:none"
         id="path24" /><path
         d="m 7744.33,1002.38 v 153.27 H 7361.18 V 71.4961 h 415.98 V 761.414 c 0,122.676 227.68,186.188 383.15,186.188 122.35,0 262.76,-80.039 262.76,-208.09 V 71.4961 h 405.06 V 838.074 c 0,198.676 -273.02,328.536 -481.71,328.536 h -76.62 c -103.74,0 -217.32,-16.86 -294.36,-45.02 -68.67,-25.02 -204.76,-112.21 -231.11,-119.21"
         style="fill:#3e4448;fill-opacity:1;fill-rule:evenodd;stroke:none"
         id="path26" /><path
         d="m 9463.02,619.078 c 0,147.035 135.6,273.766 295.61,273.766 h 153.3 c 119.17,0 262.77,-125.551 262.77,-240.883 V 531.457 c 0,-106.988 -182.84,-240.906 -284.66,-240.906 h -142.35 c -117.81,0 -284.67,151.613 -284.67,273.734 z m -437.86,21.902 c 0,-210.937 60.07,-305.628 166.93,-413.429 80.29,-81.012 257.42,-167.0393 413.31,-167.0393 h 197.05 c 151.51,0 261.65,78.7343 361.25,131.4293 V 71.4961 h 405.1 V 1571.8 h -394.1 v -525.64 c -121.5,0 -226.77,87.6 -405.1,87.6 h -43.81 c -145.71,0 -387.15,-52.2 -471.31,-108.94 -58.06,-39.039 -110.98,-72.613 -150.73,-133.902 -24.1,-37.238 -78.59,-153.152 -78.59,-206.141 V 640.98"
         style="fill:#3e4448;fill-opacity:1;fill-rule:evenodd;stroke:none"
         id="path28" /><path
         d="m 6726.19,82.4297 h 426.96 V 1571.8 H 6726.19 V 82.4297"
         style="fill:#41474a;fill-opacity:1;fill-rule:evenodd;stroke:none"
         id="path30" /><path
         d="m 10864.4,93.3672 h 383.1 V 1166.61 h -383.1 V 93.3672"
         style="fill:#3b3f43;fill-opacity:1;fill-rule:evenodd;stroke:none"
         id="path32" /><path
         d="m 20279.2,93.3672 h 405.1 V 1166.61 h -405.1 V 93.3672"
         style="fill:#3c4245;fill-opacity:1;fill-rule:evenodd;stroke:none"
         id="path34" /><path
         d="m 24964.7,849.035 c 0,92.801 59.2,153.345 153.3,153.345 h 667.8 v 153.27 h -1127.6 c -143.4,0 -219,-87.13 -219,-229.962 V 684.777 c 0,-71.355 56.1,-102.992 98.6,-131.429 l 821.1,-12.575 c 42.6,-26.945 76.6,-81.093 76.6,-151.699 v -43.793 c 0,-54.152 -44.4,-98.558 -98.6,-98.558 h -897.7 V 82.4297 h 1291.9 c 25.2,0 114.3,41.9143 132,65.0823 24.5,32.289 43.1,95.105 43.1,154.011 v 251.825 c 0,178.597 -255.1,153.328 -437.9,153.328 -98.5,0 -197,0.101 -295.6,0 -217.6,-0.184 -139.6,49.015 -208,76.637 v 65.722"
         style="fill:#404649;fill-opacity:1;fill-rule:evenodd;stroke:none"
         id="path36" /><path
         d="m 4334.21,3419.13 -979.85,3.44 -828.12,-1364.55 477.81,-4.36 c -8.26,-35.38 -228.64,-379.52 -262.65,-427.2 -43.44,-60.98 -91.14,-142.82 -131.58,-207.84 -26.15,-42.26 -38.52,-47.05 -69.07,-106.14 -22.99,-44.42 -64.03,-68.55 -73.11,-91.07 h -481.7 L 1290.38,53.1406 2248.67,49.582 c 13.38,57.559 260.54,442.598 313.69,540.422 40.03,73.715 290.93,483.246 332.21,510.896 h 558.32 l 587.42,959.25 -550.8,8.96 844.7,1350.02"
         style="fill:#f2582a;fill-opacity:1;fill-rule:evenodd;stroke:none"
         id="path38" /><path
         d="m 13557.4,728.574 c 0,129.821 199.1,219.028 339.4,219.028 h 10.9 c 161.4,0 306.6,-61.805 306.6,-219.028 V 71.4961 h 405 V 838.074 c 0,184.556 -269.8,328.536 -448.8,328.536 h -131.4 c -78.7,0 -228.2,-32.68 -284.9,-54.45 -63.1,-24.15 -200.6,-105 -218.7,-109.78 v 153.27 h -372.1 V 71.4961 h 394 V 728.574"
         style="fill:#3d4346;fill-opacity:1;fill-rule:evenodd;stroke:none"
         id="path40" /><path
         d="m 16570.6,1214.37 282.4,-584.206 -556.6,4.055 z m -392.4,-827.499 783.9,2.203 c 68.1,0 118.8,-317.5779 186.1,-317.5779 h 481.7 l -781,1487.3839 -543.6,1.96 -777.4,-1489.2658 487.3,2.7696 163,312.5272"
         style="fill:#3d4346;fill-opacity:1;fill-rule:evenodd;stroke:none"
         id="path42" /><path
         d="m 17783.2,82.4297 h 405 V 1166.61 h -405 V 82.4297"
         style="fill:#41474a;fill-opacity:1;fill-rule:evenodd;stroke:none"
         id="path44" /><path
         d="m 18877.9,695.727 c 0,90.156 78.6,197.117 164.2,197.117 h 372.3 v 273.766 h -328.5 c -113.8,0 -199,-131.2 -229.8,-142.34 v 131.38 h -383.2 V 71.4961 h 405 V 695.727"
         style="fill:#404649;fill-opacity:1;fill-rule:evenodd;stroke:none"
         id="path46" /><path
         d="m 19611.4,82.4297 h 405.1 V 1571.8 h -405.1 V 82.4297"
         style="fill:#41474a;fill-opacity:1;fill-rule:evenodd;stroke:none"
         id="path48" /><path
         d="m 21373.9,695.727 c 0,153.558 160,251.875 306.6,251.875 h 43.8 c 153.8,0 306.5,-63.797 306.5,-208.09 V 82.4297 h 394.1 V 816.184 c 0,206.336 -250.6,350.426 -448.9,350.426 h -76.6 c -253.8,0 -395.3,-62.42 -547.3,-164.23 v 153.27 h -383.2 V 82.4297 h 405 V 695.727"
         style="fill:#3c4245;fill-opacity:1;fill-rule:evenodd;stroke:none"
         id="path50" /><path
         d="m 23114.6,728.574 c 0,110.852 70.2,197.114 175.2,197.114 h 372.2 c 149.3,0 186.1,-91.52 186.1,-240.911 h -733.5 z m 11,-273.816 h 1127.5 v 416.187 c 0,170.515 -158.7,284.705 -339.3,284.705 h -875.9 c -189.5,0 -328.3,-120.62 -328.3,-306.615 V 389.074 c 0,-209.148 159.4,-256.715 175.1,-295.7068 69.9,0 83.3,-21.8711 153.2,-21.8711 h 1193.3 V 246.723 h -897.6 c -95.1,0 -208,62.847 -208,142.351 v 65.684"
         style="fill:#404649;fill-opacity:1;fill-rule:evenodd;stroke:none"
         id="path52" /><path
         d="m 4449.15,49.582 h 930.49 V 3422.57 H 4449.15 V 49.582"
         style="fill:#f0582a;fill-opacity:1;fill-rule:evenodd;stroke:none"
         id="path54" /><path
         d="m 11849.6,454.758 c 0,114.512 162.6,197.203 284.7,197.203 h 142.3 c 86.6,0 229.9,-98.996 229.9,-164.332 v -87.606 c 0,-105.031 -172.9,-208.082 -284.7,-208.082 h -21.9 c -147,0 -350.3,40.039 -350.3,175.243 z m -437.9,-76.633 c 0,-230.652 327.4,-372.33203 580.3,-372.33203 h 76.6 c 167.6,0 369.8,83.12113 481.7,142.39503 V 71.4961 h 405 V 827.129 c 0,251.191 -184.3,328.521 -437.9,328.521 H 11455.5 V 991.434 h 886.8 c 120,0 208,-92.532 208,-219.079 l -371.3,71.157 -132.3,-5.438 c -148.6,0 -241.4,-54.761 -350.3,-54.761 -92,-61.61 -284.7,-122.68 -284.7,-284.711 V 378.125"
         style="fill:#3d4346;fill-opacity:1;fill-rule:evenodd;stroke:none"
         id="path56" /></g></g></svg>
