<?xml version="1.0" encoding="utf-8"?>
<!-- Generator: Adobe Illustrator 14.0.0, SVG Export Plug-In . SVG Version: 6.00 Build 43363)  -->
<!DOCTYPE svg PUBLIC "-//W3C//DTD SVG 1.1//EN" "http://www.w3.org/Graphics/SVG/1.1/DTD/svg11.dtd">
<svg version="1.1" id="Layer_2" xmlns="http://www.w3.org/2000/svg" xmlns:xlink="http://www.w3.org/1999/xlink" x="0px" y="0px"
	 width="376px" height="68px" viewBox="0 0 376 68" enable-background="new 0 0 376 68" xml:space="preserve">
<g>
	<rect x="8.4" y="5.602" width="9.149" height="7.999"/>
	<rect x="8.4" y="18.501" width="9.149" height="20.499"/>
	<path d="M35.998,5.602h-14.45V39h9.15V13.601h4.35c1.366,0,2.308,0.252,2.825,0.752c0.516,0.501,0.774,1.387,0.774,2.655V39h9.149
		V16.567c0-3.872-0.925-6.668-2.775-8.387C43.172,6.462,40.164,5.602,35.998,5.602z"/>
	<path d="M62.497,30.197c-0.5-0.603-0.75-1.74-0.75-3.414V18.45h-9.049v8.771c0,4.177,0.833,7.185,2.5,9.021
		C56.863,38.081,59.479,39,63.046,39h8.5v-8h-5.9C64.079,31,63.029,30.732,62.497,30.197z"/>
	<polygon points="75.645,39 98.093,39 98.093,31 84.794,31 84.794,26.5 98.093,26.5 98.093,18.501 75.645,18.501 	"/>
	<path d="M124.941,14.577c0-2.641-0.692-4.612-2.075-5.917c-1.383-1.304-2.767-2.139-4.149-2.507
		c-1.384-0.367-3.442-0.552-6.175-0.552H51.147v7.999h61.095c2.132,0,3.2,0.809,3.2,2.425c0,1.65-1.184,2.476-3.55,2.476h-10.799
		V26.5h7.75c2.1,0,3.532,0.334,4.3,1c0.766,0.668,1.15,1.884,1.15,3.65V39h9.149v-8.8c0-2.167-0.425-3.825-1.275-4.975
		c-0.85-1.15-2.258-1.925-4.225-2.325C122.607,21.864,124.941,19.09,124.941,14.577z"/>
	<polygon points="140.44,39 162.889,39 162.889,31 149.59,31 149.59,26.5 162.889,26.5 162.889,18.501 140.44,18.501 	"/>
	<path d="M219.986,14.577c0-2.641-0.692-4.612-2.075-5.917c-1.383-1.304-2.767-2.139-4.15-2.507
		c-1.384-0.367-3.441-0.552-6.174-0.552h-14.449h-9.15V31h-4.149c-1.601,0-2.634-0.274-3.101-0.826
		c-0.467-0.551-0.7-1.678-0.7-3.382V5.602h-9.149H140.44v7.999h26.448v14.233c0,3.938,0.85,6.784,2.55,8.537
		c1.7,1.753,4.416,2.629,8.15,2.629h15.549V13.601h14.148c2.133,0,3.2,0.809,3.2,2.425c0,1.65-1.183,2.476-3.549,2.476h-10.799V26.5
		h7.749c2.1,0,3.533,0.334,4.3,1c0.766,0.668,1.149,1.884,1.149,3.65V39h9.149v-8.8c0-2.167-0.425-3.825-1.274-4.975
		c-0.851-1.15-2.259-1.925-4.225-2.325C217.652,21.864,219.986,19.09,219.986,14.577z"/>
	<path d="M239.734,5.002c-4.967,0-9.059,1.656-12.274,4.967c-3.217,3.313-4.824,7.465-4.824,12.457
		c0,5.025,1.632,9.145,4.899,12.356c3.267,3.212,7.432,4.817,12.499,4.817c4.933,0,8.982-1.605,12.149-4.817
		c3.166-3.212,4.75-7.331,4.75-12.356c0-5.159-1.593-9.353-4.775-12.581C248.975,6.616,244.834,5.002,239.734,5.002z
		 M245.409,29.382c-1.351,1.713-3.209,2.568-5.575,2.568c-2.399,0-4.283-0.872-5.649-2.618c-1.366-1.745-2.05-4.114-2.05-7.106
		s0.675-5.336,2.025-7.03c1.35-1.695,3.207-2.544,5.574-2.544c2.399,0,4.282,0.855,5.649,2.568c1.366,1.713,2.05,4.064,2.05,7.056
		C247.434,25.301,246.759,27.67,245.409,29.382z"/>
	<path d="M280.507,8.107c-1.084-0.969-2.274-1.62-3.574-1.954c-1.233-0.367-3.018-0.552-5.351-0.552h-11.349v7.999h10.449
		c2.6,0,3.899,0.809,3.899,2.425c0,0.91-0.3,1.55-0.899,1.92c-0.601,0.37-1.634,0.556-3.1,0.556h-10.35V39h9.149V26.5h2.949
		c1.933,0,3.532-0.184,4.8-0.552c1.267-0.435,2.741-1.394,4.425-2.88c1.684-1.487,2.524-3.802,2.524-6.942
		c0-1.503-0.324-2.974-0.975-4.41C282.457,10.279,281.59,9.076,280.507,8.107z"/>
	<polygon points="287.081,39 309.529,39 309.529,31 296.229,31 296.229,26.5 309.529,26.5 309.529,18.501 287.081,18.501 	"/>
	<polygon points="321.928,5.602 287.081,5.602 287.081,13.601 324.763,13.601 330.928,31 322.377,31 325.928,18.501 317.628,18.501 
		310.878,39 342.227,39 331.777,5.602 	"/>
	<path d="M367,8.181c-1.85-1.719-4.858-2.579-9.024-2.579h-14.448V39h9.148V13.601h4.35c1.366,0,2.308,0.252,2.825,0.752
		c0.517,0.501,0.775,1.387,0.775,2.655V39h9.149V16.567C369.775,12.695,368.851,9.899,367,8.181z"/>
</g>
<rect x="8.4" y="46.999" fill="#ED1C24" width="361.375" height="7.999"/>
<rect x="8.4" y="54.998" fill="#FFDE17" width="361.375" height="7.999"/>
</svg>
