<?xml version="1.0" encoding="utf-8"?>
<!-- Generator: Adobe Illustrator 15.0.0, SVG Export Plug-In . SVG Version: 6.00 Build 0)  -->
<!DOCTYPE svg PUBLIC "-//W3C//DTD SVG 1.1//EN" "http://www.w3.org/Graphics/SVG/1.1/DTD/svg11.dtd">
<svg version="1.1" id="Layer_2" xmlns="http://www.w3.org/2000/svg" xmlns:xlink="http://www.w3.org/1999/xlink" x="0px" y="0px"
	 width="168px" height="78.75px" viewBox="0 0 168 78.75" enable-background="new 0 0 168 78.75" xml:space="preserve">
<path fill="#1B1464" d="M21.5,39.391H4.084l1.165,1.954h2.75c3.938-0.032,5.444,2.199,6.286,4.124L24.791,69
	c1.793,4.5,7.93,8.027,13.513,8.027L21.5,39.391z"/>
<g>
	<path fill="#1B1464" d="M8.5,19.875c0,7.418,4.781,13.705,11.426,15.988L9.839,13.271C8.978,15.3,8.5,17.531,8.5,19.875z"/>
	<path fill="#C1272D" d="M42.333,19.875c0-9.342-7.574-16.916-16.916-16.916c-4.765,0-9.062,1.976-12.136,5.145l12.794,28.655
		C35.109,36.41,42.333,28.996,42.333,19.875z"/>
</g>
<path fill="#C1272D" d="M164.057,39.304c-17.681-4.287-33.291-1.786-41.294,6.534l-4.601,0.773c0.058-0.373,0.088-0.754,0.088-1.143
	c0-4.142-3.358-7.5-7.5-7.5s-7.5,3.358-7.5,7.5c0,3.917,3.004,7.128,6.832,7.466c-1.331,4.88-3.704,10.719-6.207,14.315
	c-2.219,3.188-6.562,3.125-6.439-0.625l-0.02-25.709h3.75l1.416-2.083h-5.166V24.416h-1.334c0,6.167-2.875,13.553-13.833,14.417
	v2.083h6.75c0.167,6.418-4.166,18.334-7.416,24.001c-1.331,2.438-3.216,1.624-3.76,0.381c0,0-9.787-23.186-10.335-23.883l-0.03-0.07
	l-0.019,0.012c-0.962-1.189-2.415-1.966-4.064-1.966c-2.09,0-3.879,1.23-4.724,2.997l-0.007-0.013l-0.044,0.106
	c-0.038,0.083-0.072,0.167-0.105,0.253l-9.403,22.55L41.009,46.83c-1.375-3.139,0.825-5.485,4.157-5.485h3.5l-0.916-1.954h-20.5
	l15.587,34.912c0.785,1.608,2.421,2.725,4.329,2.725c1.911,0,3.547-1.118,4.332-2.727l0.008,0.012l0.044-0.108
	c0.044-0.097,0.083-0.194,0.122-0.295l9.175-22.252l10.088,21.734c0.897,1.606,2.595,2.705,4.565,2.705
	c1.324,0,2.52-0.506,3.442-1.314l0.003,0.021c0.024-0.027,0.051-0.059,0.076-0.086c0.32-0.292,0.613-0.611,0.854-0.974
	c2.785-3.307,6.041-8.483,7.927-13.421l-0.008,0.027c0.19-0.508,1.21-0.85,1.205,0.566v7.771c0,8.34,11.563,11.438,17.688,0.896
	c1.851-2.775,4.822-9.529,7.089-17.255c0.626-0.276,1.203-0.642,1.726-1.07l3.667-0.271c-1.352,2.799-2.085,6.002-2.085,9.596
	c0,14.229,11.791,20.417,24.833,10.918c0.719-0.344,1.23,0.391,1.5,0.875c3.833,5.937,10.421,3.5,13.916-0.167
	c0.625-0.542,0.292-1.115-0.427-0.771c-5.219,3.375-6.969-0.625-5.781-3.75l10.188-24l-8.812-0.5l-7.583,17.896
	c-4.666,9.833-19.333,11.25-19.333-0.917c0-18.25,16.75-21.25,38.25-19.583C164.769,40.648,164.938,39.391,164.057,39.304z"/>
</svg>
