<?xml version="1.0" encoding="utf-8"?>
<!-- Generator: Adobe Illustrator 23.0.1, SVG Export Plug-In . SVG Version: 6.00 Build 0)  -->
<svg version="1.1"
	 id="svg8" xmlns:cc="http://creativecommons.org/ns#" xmlns:dc="http://purl.org/dc/elements/1.1/" xmlns:rdf="http://www.w3.org/1999/02/22-rdf-syntax-ns#" xmlns:svg="http://www.w3.org/2000/svg"
	 xmlns="http://www.w3.org/2000/svg" xmlns:xlink="http://www.w3.org/1999/xlink" x="0px" y="0px" width="785.001px"
	 height="471.92px" viewBox="0 0 785.001 471.92" enable-background="new 0 0 785.001 471.92" xml:space="preserve">
<g id="layer1">
	<g id="text862" transform="matrix(0.85068554,0,0,0.85068554,-185.37799,-12.133687)">
		<path id="path979" fill="#646465" fill-opacity="0.9882" d="M235.798,529.837v0.644c-1.063,0.056-1.931,0.205-2.603,0.448
			c-0.653,0.242-1.241,0.634-1.763,1.175c-0.728,0.746-1.175,1.782-1.343,3.106c-0.112,0.989-0.168,2.127-0.168,3.414v20.625
			c0,1.548,0.075,2.77,0.224,3.666c0.149,0.896,0.392,1.614,0.728,2.155c0.485,0.746,1.11,1.306,1.875,1.679
			c0.765,0.354,1.782,0.569,3.05,0.644v0.644h-17.882v-0.644c1.082-0.056,1.95-0.205,2.603-0.448
			c0.672-0.261,1.259-0.653,1.763-1.175c0.597-0.597,0.998-1.353,1.203-2.267c0.205-0.914,0.308-2.332,0.308-4.254v-20.624
			c0-1.922-0.103-3.339-0.308-4.254c-0.205-0.914-0.606-1.67-1.203-2.267c-0.504-0.541-1.091-0.933-1.763-1.175
			c-0.672-0.242-1.539-0.392-2.603-0.448v-0.644L235.798,529.837z"/>
		<path id="path981" fill="#646465" fill-opacity="0.9882" d="M259.652,530.705c-1.175,0-2.435,0.037-3.778,0.112
			c-2.873,0.149-5.019,0.513-6.436,1.091c-1.399,0.578-2.556,1.576-3.47,2.994c-0.84,1.306-1.483,3.078-1.931,5.317l-0.644-0.056
			l0.504-10.326h37.863l0.504,10.326l-0.644,0.056c-0.504-2.593-1.297-4.552-2.379-5.877c-1.063-1.343-2.621-2.304-4.673-2.882
			c-1.735-0.504-4.673-0.756-8.815-0.756v28.544c0,1.903,0.103,3.321,0.308,4.254c0.224,0.914,0.625,1.67,1.203,2.267
			c0.522,0.541,1.11,0.933,1.763,1.175c0.672,0.243,1.539,0.392,2.603,0.448v0.644h-17.882v-0.644
			c1.082-0.056,1.95-0.205,2.603-0.448c0.672-0.242,1.269-0.634,1.791-1.175c0.578-0.597,0.97-1.353,1.175-2.267
			c0.224-0.914,0.336-2.332,0.336-4.254L259.652,530.705z"/>
		<path id="path983" fill="#646465" fill-opacity="0.9882" d="M328.841,568.036h-18.386v-0.644c1.66-0.149,2.817-0.429,3.47-0.84
			c1.157-0.728,1.735-1.735,1.735-3.022c0-0.765-0.261-1.791-0.784-3.078l-0.476-1.175l-2.686-6.604h-12.313l-1.455,3.862
			l-0.7,1.735c-0.84,2.052-1.259,3.666-1.259,4.841c0,0.69,0.149,1.334,0.448,1.931c0.317,0.597,0.737,1.082,1.259,1.455
			c0.728,0.504,1.66,0.802,2.798,0.896v0.644h-12.537v-0.644c0.989-0.056,1.856-0.298,2.603-0.728
			c0.746-0.429,1.474-1.119,2.183-2.071c0.597-0.765,1.175-1.744,1.735-2.938c0.578-1.213,1.334-3.022,2.267-5.429l10.242-26.389
			h1.595l12.173,29.412c0.914,2.22,1.642,3.806,2.183,4.757s1.129,1.67,1.763,2.155c0.448,0.336,0.961,0.597,1.539,0.784
			c0.578,0.168,1.446,0.317,2.603,0.448V568.036z M311.267,551.525l-5.877-14.496l-5.541,14.496H311.267z"/>
		<path id="path985" fill="#646465" fill-opacity="0.9882" d="M335.624,568.036v-0.672c1.884,0,3.339-0.532,4.366-1.595
			c0.578-0.597,0.97-1.353,1.175-2.267c0.224-0.933,0.336-2.351,0.336-4.254v-20.625c0-1.978-0.121-3.433-0.364-4.365
			c-0.224-0.951-0.653-1.726-1.287-2.323c-0.522-0.485-1.11-0.84-1.763-1.063c-0.634-0.224-1.455-0.354-2.463-0.392v-0.644h17.882
			v0.644c-1.026,0.056-1.866,0.196-2.519,0.42c-0.653,0.224-1.231,0.578-1.735,1.063c-0.634,0.616-1.063,1.39-1.287,2.323
			c-0.224,0.933-0.336,2.379-0.336,4.338v16.147c0,2.481,0.065,4.328,0.196,5.541c0.131,1.213,0.382,2.201,0.756,2.966
			c0.653,1.343,1.623,2.332,2.91,2.966c1.287,0.616,2.994,0.924,5.121,0.924c2.22,0,4.086-0.289,5.597-0.867
			c1.53-0.597,2.78-1.511,3.75-2.742c0.653-0.84,1.185-1.791,1.595-2.854c0.429-1.063,0.821-2.463,1.175-4.198l0.672,0.056
			l-0.364,11.474L335.624,568.036z"/>
		<path id="path987" fill="#646465" fill-opacity="0.9882" d="M394.459,529.837v0.644c-1.063,0.056-1.931,0.205-2.603,0.448
			c-0.653,0.242-1.241,0.634-1.763,1.175c-0.728,0.746-1.175,1.782-1.343,3.106c-0.112,0.989-0.168,2.127-0.168,3.414v20.625
			c0,1.548,0.075,2.77,0.224,3.666c0.149,0.896,0.392,1.614,0.728,2.155c0.485,0.746,1.11,1.306,1.875,1.679
			c0.765,0.354,1.782,0.569,3.05,0.644v0.644h-17.882v-0.644c1.082-0.056,1.95-0.205,2.603-0.448
			c0.672-0.261,1.259-0.653,1.763-1.175c0.597-0.597,0.998-1.353,1.203-2.267c0.205-0.914,0.308-2.332,0.308-4.254v-20.624
			c0-1.922-0.103-3.339-0.308-4.254c-0.205-0.914-0.606-1.67-1.203-2.267c-0.504-0.541-1.091-0.933-1.763-1.175
			c-0.672-0.242-1.539-0.392-2.603-0.448v-0.644L394.459,529.837z"/>
		<path id="path989" fill="#646465" fill-opacity="0.9882" d="M442.155,568.036H423.77v-0.644c1.66-0.149,2.817-0.429,3.47-0.84
			c1.157-0.728,1.735-1.735,1.735-3.022c0-0.765-0.261-1.791-0.784-3.078l-0.476-1.175l-2.686-6.604h-12.313l-1.455,3.862
			l-0.7,1.735c-0.84,2.052-1.259,3.666-1.259,4.841c0,0.69,0.149,1.334,0.448,1.931c0.317,0.597,0.737,1.082,1.259,1.455
			c0.728,0.504,1.66,0.802,2.798,0.896v0.644H401.27v-0.644c0.989-0.056,1.856-0.298,2.603-0.728
			c0.746-0.429,1.474-1.119,2.183-2.071c0.597-0.765,1.175-1.744,1.735-2.938c0.578-1.213,1.334-3.022,2.267-5.429l10.242-26.389
			h1.595l12.173,29.412c0.914,2.22,1.642,3.806,2.183,4.757c0.541,0.951,1.129,1.67,1.763,2.155
			c0.448,0.336,0.961,0.597,1.539,0.784c0.578,0.168,1.446,0.317,2.603,0.448V568.036z M424.581,551.525l-5.877-14.496
			l-5.541,14.496H424.581z"/>
		<path id="path991" fill="#646465" fill-opacity="0.9882" d="M499.497,530.705c-1.175,0-2.435,0.037-3.778,0.112
			c-2.873,0.149-5.019,0.513-6.436,1.091c-1.399,0.578-2.556,1.576-3.47,2.994c-0.84,1.306-1.483,3.078-1.931,5.317l-0.644-0.056
			l0.504-10.326h37.863l0.504,10.326l-0.644,0.056c-0.504-2.593-1.297-4.552-2.379-5.877c-1.063-1.343-2.621-2.304-4.673-2.882
			c-1.735-0.504-4.673-0.756-8.815-0.756v28.544c0,1.903,0.103,3.321,0.308,4.254c0.224,0.914,0.625,1.67,1.203,2.267
			c0.522,0.541,1.11,0.933,1.763,1.175c0.672,0.243,1.539,0.392,2.603,0.448v0.644h-17.882v-0.644
			c1.082-0.056,1.95-0.205,2.603-0.448c0.672-0.242,1.269-0.634,1.791-1.175c0.578-0.597,0.97-1.353,1.175-2.267
			c0.224-0.914,0.336-2.332,0.336-4.254L499.497,530.705z"/>
		<path id="path993" fill="#646465" fill-opacity="0.9882" d="M541.736,549.342v9.906c0,1.903,0.103,3.321,0.308,4.254
			c0.224,0.914,0.625,1.67,1.203,2.267c0.504,0.522,1.082,0.914,1.735,1.175c0.672,0.243,1.549,0.392,2.631,0.448v0.644h-17.882
			v-0.644c1.082-0.056,1.95-0.205,2.603-0.448c0.672-0.261,1.259-0.653,1.763-1.175c0.597-0.597,0.998-1.353,1.203-2.267
			c0.205-0.914,0.308-2.332,0.308-4.254v-20.625c0-1.922-0.103-3.339-0.308-4.254c-0.205-0.914-0.606-1.67-1.203-2.267
			c-0.504-0.541-1.091-0.933-1.763-1.175c-0.672-0.242-1.539-0.392-2.603-0.448v-0.644h13.488c2.257,0,3.741,0.009,4.45,0.026
			c2.892,0.13,5.158,0.522,6.8,1.175c1.847,0.746,3.274,1.866,4.282,3.358c1.026,1.474,1.539,3.19,1.539,5.149
			c0,2.91-1.101,5.242-3.302,6.996c-0.672,0.522-1.418,0.951-2.239,1.287c-0.802,0.336-1.884,0.653-3.246,0.951
			c1.119,0.466,1.95,0.952,2.491,1.455c0.429,0.392,0.821,0.886,1.175,1.483c0.354,0.578,0.886,1.614,1.595,3.106
			c1.66,3.414,2.91,5.914,3.75,7.5c0.858,1.567,1.577,2.705,2.155,3.414c0.466,0.578,0.914,0.979,1.343,1.203
			c0.448,0.224,1.054,0.373,1.819,0.448v0.644h-9.291c-0.466-1.026-0.765-1.679-0.896-1.959l-1.959-4.449
			c-1.175-2.668-2.36-5.028-3.554-7.08c-1.194-2.033-2.285-3.423-3.274-4.17c-0.504-0.373-1.045-0.634-1.623-0.784
			c-0.578-0.168-1.287-0.252-2.127-0.252L541.736,549.342z M541.736,548.727h1.063c2.313,0,3.965-0.131,4.953-0.392
			c1.007-0.261,1.95-0.802,2.826-1.623c1.959-1.866,2.938-4.179,2.938-6.94c0-1.474-0.289-2.854-0.867-4.142
			c-0.56-1.306-1.343-2.379-2.351-3.218c-0.784-0.634-1.716-1.073-2.798-1.315c-1.082-0.261-2.621-0.392-4.617-0.392h-1.147
			L541.736,548.727z"/>
		<path id="path995" fill="#646465" fill-opacity="0.9882" d="M611.793,568.036h-18.386v-0.644c1.66-0.149,2.817-0.429,3.47-0.84
			c1.157-0.728,1.735-1.735,1.735-3.022c0-0.765-0.261-1.791-0.784-3.078l-0.476-1.175l-2.686-6.604h-12.313l-1.455,3.862
			l-0.7,1.735c-0.84,2.052-1.259,3.666-1.259,4.841c0,0.69,0.149,1.334,0.448,1.931c0.317,0.597,0.737,1.082,1.259,1.455
			c0.728,0.504,1.66,0.802,2.798,0.896v0.644h-12.537v-0.644c0.989-0.056,1.856-0.298,2.603-0.728
			c0.746-0.429,1.474-1.119,2.183-2.071c0.597-0.765,1.175-1.744,1.735-2.938c0.578-1.213,1.334-3.022,2.267-5.429l10.242-26.389
			h1.595l12.173,29.412c0.914,2.22,1.642,3.806,2.183,4.757s1.129,1.67,1.763,2.155c0.448,0.336,0.961,0.597,1.539,0.784
			c0.578,0.168,1.446,0.317,2.603,0.448V568.036z M594.218,551.525l-5.877-14.496l-5.541,14.496H594.218z"/>
		<path id="path997" fill="#646465" fill-opacity="0.9882" d="M619.947,567.952l0.084-11.558h0.644
			c0.784,2.948,1.716,5.27,2.798,6.968c2.034,3.134,4.589,4.701,7.668,4.701c2.145,0,3.918-0.718,5.317-2.155
			c1.399-1.437,2.099-3.255,2.099-5.457c0-0.951-0.159-1.922-0.476-2.91c-0.299-0.989-0.709-1.838-1.231-2.547
			c-0.541-0.728-1.306-1.427-2.295-2.099c-0.97-0.672-2.463-1.521-4.477-2.547c-1.772-0.895-3.134-1.651-4.086-2.267
			c-0.933-0.616-1.688-1.241-2.267-1.875c-1.604-1.754-2.407-3.89-2.407-6.408c0-1.548,0.308-3.041,0.924-4.478
			c0.634-1.437,1.511-2.668,2.631-3.694c1.978-1.828,4.319-2.742,7.024-2.742c0.877,0,1.688,0.093,2.435,0.28
			c0.746,0.168,1.744,0.513,2.994,1.035c0.933,0.373,1.567,0.616,1.903,0.728c0.336,0.093,0.634,0.14,0.896,0.14
			c0.653,0,1.091-0.476,1.315-1.427h0.644l0.196,11.11h-0.644c-0.504-1.772-0.942-3.125-1.315-4.058
			c-0.355-0.951-0.784-1.828-1.287-2.63c-0.914-1.455-1.922-2.528-3.022-3.218c-1.101-0.709-2.369-1.063-3.806-1.063
			c-2.09,0-3.741,0.709-4.953,2.127c-0.504,0.578-0.905,1.259-1.203,2.043c-0.28,0.784-0.42,1.567-0.42,2.351
			c0,3.116,2.006,5.625,6.017,7.528l3.946,1.903c3.041,1.437,5.233,3.022,6.576,4.757c1.53,1.94,2.295,4.198,2.295,6.772
			c0,1.716-0.345,3.358-1.035,4.925c-0.97,2.183-2.425,3.871-4.366,5.065c-1.94,1.175-4.226,1.763-6.856,1.763
			c-2.407,0-4.72-0.476-6.94-1.427c-1.157-0.504-1.847-0.793-2.071-0.867c-0.224-0.075-0.476-0.112-0.756-0.112
			c-0.896,0-1.511,0.448-1.847,1.343L619.947,567.952z"/>
		<path id="path999" fill="#646465" fill-opacity="0.9882" d="M666.217,549.202v10.046c0,1.903,0.103,3.321,0.308,4.254
			c0.224,0.914,0.625,1.67,1.203,2.267c0.504,0.522,1.082,0.914,1.735,1.175c0.672,0.243,1.548,0.392,2.631,0.448v0.644h-17.882
			v-0.644c1.082-0.056,1.95-0.205,2.603-0.448c0.672-0.261,1.259-0.653,1.763-1.175c0.597-0.597,0.998-1.353,1.203-2.267
			c0.205-0.914,0.308-2.332,0.308-4.254v-20.625c0-1.604-0.075-2.836-0.224-3.694c-0.13-0.877-0.364-1.586-0.7-2.127
			c-0.485-0.746-1.101-1.297-1.847-1.651c-0.746-0.373-1.716-0.597-2.91-0.672h-0.196v-0.644h16.875c2.948,0,5.121,0.149,6.52,0.448
			c1.399,0.298,2.677,0.896,3.834,1.791c2.649,2.015,3.974,4.701,3.974,8.06c0,3.414-1.343,5.914-4.03,7.5
			c-1.399,0.821-3.097,1.315-5.093,1.483c-0.634,0.056-2.164,0.084-4.589,0.084L666.217,549.202z M666.217,548.307h2.742
			c1.847,0,3.265-0.131,4.254-0.392c1.008-0.28,1.903-0.784,2.687-1.511c1.828-1.66,2.742-3.871,2.742-6.632
			c0-1.53-0.271-2.929-0.812-4.198c-0.522-1.287-1.278-2.332-2.267-3.134c-1.138-0.951-2.491-1.511-4.058-1.679
			c-0.429-0.037-1.409-0.056-2.938-0.056h-2.351L666.217,548.307z"/>
		<path id="path1001" fill="#646465" fill-opacity="0.9882" d="M694.66,549.202c0-3.134,0.672-6.035,2.015-8.703
			c1.343-2.686,3.302-5.028,5.877-7.024c1.922-1.474,3.992-2.603,6.213-3.386c2.22-0.802,4.459-1.203,6.716-1.203
			c2.873,0,5.653,0.634,8.339,1.903c2.687,1.25,5.037,3.022,7.052,5.317c3.283,3.731,4.925,7.976,4.925,12.733
			c0,2.388-0.429,4.692-1.287,6.912s-2.108,4.244-3.75,6.073c-2.015,2.276-4.403,4.039-7.164,5.289
			c-2.742,1.25-5.615,1.875-8.619,1.875c-2.966,0-5.802-0.606-8.507-1.819c-2.705-1.213-5.037-2.929-6.996-5.149
			c-1.549-1.735-2.743-3.703-3.582-5.905C695.071,553.895,694.66,551.59,694.66,549.202L694.66,549.202z M701.432,549.622
			c0,5.41,1.474,9.972,4.422,13.684c1.325,1.66,2.724,2.873,4.198,3.638c1.493,0.746,3.209,1.119,5.149,1.119
			c1.959,0,3.675-0.373,5.149-1.119c1.492-0.746,2.91-1.959,4.254-3.638c2.948-3.731,4.422-8.33,4.422-13.796
			c0-3.004-0.411-5.839-1.231-8.507c-0.802-2.686-1.94-4.963-3.414-6.828c-1.194-1.53-2.528-2.64-4.002-3.33
			c-1.455-0.709-3.181-1.063-5.177-1.063c-1.978,0-3.694,0.345-5.149,1.035c-1.436,0.69-2.77,1.81-4.002,3.358
			c-1.474,1.847-2.612,4.114-3.414,6.8C701.833,543.661,701.432,546.544,701.432,549.622L701.432,549.622z"/>
		<path id="path1003" fill="#646465" fill-opacity="0.9882" d="M757.832,549.342v9.906c0,1.903,0.103,3.321,0.308,4.254
			c0.224,0.914,0.625,1.67,1.203,2.267c0.504,0.522,1.082,0.914,1.735,1.175c0.672,0.243,1.548,0.392,2.63,0.448v0.644h-17.882
			v-0.644c1.082-0.056,1.95-0.205,2.603-0.448c0.672-0.261,1.259-0.653,1.763-1.175c0.597-0.597,0.998-1.353,1.203-2.267
			c0.205-0.914,0.308-2.332,0.308-4.254v-20.625c0-1.922-0.103-3.339-0.308-4.254c-0.205-0.914-0.606-1.67-1.203-2.267
			c-0.504-0.541-1.091-0.933-1.763-1.175c-0.672-0.242-1.539-0.392-2.603-0.448v-0.644h13.488c2.258,0,3.741,0.009,4.45,0.026
			c2.892,0.13,5.158,0.522,6.8,1.175c1.847,0.746,3.274,1.866,4.282,3.358c1.026,1.474,1.539,3.19,1.539,5.149
			c0,2.91-1.101,5.242-3.302,6.996c-0.672,0.522-1.418,0.951-2.239,1.287c-0.802,0.336-1.884,0.653-3.246,0.951
			c1.119,0.466,1.95,0.952,2.491,1.455c0.429,0.392,0.821,0.886,1.175,1.483c0.354,0.578,0.886,1.614,1.595,3.106
			c1.66,3.414,2.91,5.914,3.75,7.5c0.858,1.567,1.576,2.705,2.155,3.414c0.466,0.578,0.914,0.979,1.343,1.203
			c0.448,0.224,1.054,0.373,1.819,0.448v0.644h-9.291c-0.466-1.026-0.765-1.679-0.896-1.959l-1.959-4.449
			c-1.175-2.668-2.36-5.028-3.554-7.08c-1.194-2.033-2.285-3.423-3.274-4.17c-0.504-0.373-1.045-0.634-1.623-0.784
			c-0.578-0.168-1.287-0.252-2.127-0.252L757.832,549.342z M757.832,548.727h1.063c2.313,0,3.965-0.131,4.953-0.392
			c1.007-0.261,1.95-0.802,2.826-1.623c1.959-1.866,2.938-4.179,2.938-6.94c0-1.474-0.289-2.854-0.867-4.142
			c-0.56-1.306-1.343-2.379-2.351-3.218c-0.784-0.634-1.716-1.073-2.798-1.315c-1.082-0.261-2.621-0.392-4.617-0.392h-1.147
			L757.832,548.727z"/>
		<path id="path1005" fill="#646465" fill-opacity="0.9882" d="M804.046,530.705c-1.175,0-2.435,0.037-3.778,0.112
			c-2.873,0.149-5.019,0.513-6.436,1.091c-1.399,0.578-2.556,1.576-3.47,2.994c-0.84,1.306-1.483,3.078-1.931,5.317l-0.644-0.056
			l0.504-10.326h37.863l0.504,10.326l-0.644,0.056c-0.504-2.593-1.297-4.552-2.379-5.877c-1.063-1.343-2.621-2.304-4.673-2.882
			c-1.735-0.504-4.673-0.756-8.815-0.756v28.544c0,1.903,0.103,3.321,0.308,4.254c0.224,0.914,0.625,1.67,1.203,2.267
			c0.522,0.541,1.11,0.933,1.763,1.175c0.672,0.243,1.539,0.392,2.603,0.448v0.644h-17.882v-0.644
			c1.082-0.056,1.95-0.205,2.603-0.448c0.672-0.242,1.269-0.634,1.791-1.175c0.578-0.597,0.97-1.353,1.175-2.267
			c0.224-0.914,0.336-2.332,0.336-4.254L804.046,530.705z"/>
		<path id="path1007" fill="#646465" fill-opacity="0.9882" d="M835.596,549.202c0-3.134,0.672-6.035,2.015-8.703
			c1.343-2.686,3.302-5.028,5.877-7.024c1.922-1.474,3.993-2.603,6.213-3.386c2.22-0.802,4.459-1.203,6.716-1.203
			c2.873,0,5.653,0.634,8.339,1.903c2.687,1.25,5.037,3.022,7.052,5.317c3.283,3.731,4.925,7.976,4.925,12.733
			c0,2.388-0.429,4.692-1.287,6.912c-0.858,2.22-2.108,4.244-3.75,6.073c-2.015,2.276-4.403,4.039-7.164,5.289
			c-2.742,1.25-5.616,1.875-8.619,1.875c-2.966,0-5.802-0.606-8.507-1.819c-2.705-1.213-5.037-2.929-6.996-5.149
			c-1.548-1.735-2.742-3.703-3.582-5.905C836.006,553.895,835.596,551.59,835.596,549.202z M842.368,549.622
			c0,5.41,1.474,9.972,4.422,13.684c1.325,1.66,2.724,2.873,4.198,3.638c1.492,0.746,3.209,1.119,5.149,1.119
			c1.959,0,3.675-0.373,5.149-1.119c1.493-0.746,2.91-1.959,4.254-3.638c2.948-3.731,4.422-8.33,4.422-13.796
			c0-3.004-0.41-5.839-1.231-8.507c-0.802-2.686-1.94-4.963-3.414-6.828c-1.194-1.53-2.528-2.64-4.002-3.33
			c-1.455-0.709-3.181-1.063-5.177-1.063c-1.978,0-3.694,0.345-5.149,1.035c-1.436,0.69-2.771,1.81-4.002,3.358
			c-1.474,1.847-2.612,4.114-3.414,6.8C842.769,543.661,842.368,546.544,842.368,549.622L842.368,549.622z"/>
		<path id="path1009" fill="#646465" fill-opacity="0.9882" d="M964.942,568.036h-18.386v-0.644c1.66-0.149,2.817-0.429,3.47-0.84
			c1.157-0.728,1.735-1.735,1.735-3.022c0-0.765-0.261-1.791-0.784-3.078l-0.476-1.175l-2.686-6.604h-12.313l-1.455,3.862
			l-0.7,1.735c-0.839,2.052-1.259,3.666-1.259,4.841c0,0.69,0.149,1.334,0.448,1.931c0.317,0.597,0.737,1.082,1.259,1.455
			c0.728,0.504,1.66,0.802,2.798,0.896v0.644h-12.537v-0.644c0.989-0.056,1.856-0.298,2.603-0.728
			c0.746-0.429,1.474-1.119,2.183-2.071c0.597-0.765,1.175-1.744,1.735-2.938c0.578-1.213,1.334-3.022,2.267-5.429l10.242-26.389
			h1.595l12.173,29.412c0.914,2.22,1.642,3.806,2.183,4.757c0.541,0.951,1.129,1.67,1.763,2.155
			c0.448,0.336,0.961,0.597,1.539,0.784c0.578,0.168,1.446,0.317,2.603,0.448L964.942,568.036z M947.368,551.525l-5.877-14.496
			l-5.541,14.496H947.368z"/>
		<path id="path1011" fill="#646465" fill-opacity="0.9882" d="M1001.809,529.837l0.476,9.235l-0.644,0.026
			c-0.243-1.567-0.644-2.864-1.203-3.89c-0.56-1.026-1.371-1.931-2.435-2.714c-0.877-0.653-1.912-1.11-3.106-1.371
			c-1.194-0.28-2.78-0.42-4.757-0.42h-6.408v16.791h1.679c1.698,0,2.976-0.112,3.834-0.336c0.858-0.224,1.558-0.625,2.099-1.203
			c0.522-0.541,0.905-1.175,1.147-1.903c0.261-0.746,0.476-1.838,0.644-3.274l0.644,0.026l-0.112,15h-0.644
			c-0.168-1.436-0.42-2.593-0.756-3.47c-0.317-0.877-0.765-1.623-1.343-2.239c-0.56-0.597-1.287-1.035-2.183-1.315
			c-0.896-0.28-2.034-0.42-3.414-0.42h-1.595v6.408c0,2.556,0.065,4.422,0.196,5.597c0.131,1.157,0.382,2.127,0.756,2.91
			c0.634,1.343,1.595,2.332,2.882,2.966c1.306,0.616,3.022,0.923,5.149,0.923c2.239,0,4.114-0.28,5.625-0.84
			c1.511-0.578,2.742-1.465,3.694-2.659c0.672-0.802,1.213-1.716,1.623-2.742c0.429-1.026,0.821-2.379,1.175-4.058l0.644,0.026
			l-0.364,11.138h-33.385v-0.644c1.063-0.056,1.922-0.205,2.575-0.448c0.672-0.242,1.269-0.634,1.791-1.175
			c0.578-0.597,0.97-1.353,1.175-2.267c0.224-0.933,0.336-2.351,0.336-4.254V538.62c0-1.903-0.112-3.311-0.336-4.226
			c-0.205-0.933-0.597-1.698-1.175-2.295c-0.504-0.541-1.091-0.933-1.763-1.175c-0.653-0.242-1.521-0.392-2.603-0.448v-0.644
			L1001.809,529.837z"/>
		<path id="path1013" fill="#646465" fill-opacity="0.9882" d="M1025.439,549.342v9.906c0,1.903,0.103,3.321,0.308,4.254
			c0.224,0.914,0.625,1.67,1.203,2.267c0.504,0.522,1.082,0.914,1.735,1.175c0.672,0.243,1.548,0.392,2.63,0.448v0.644h-17.882
			v-0.644c1.082-0.056,1.95-0.205,2.603-0.448c0.672-0.261,1.259-0.653,1.763-1.175c0.597-0.597,0.998-1.353,1.203-2.267
			c0.205-0.914,0.308-2.332,0.308-4.254v-20.625c0-1.922-0.103-3.339-0.308-4.254c-0.205-0.914-0.606-1.67-1.203-2.267
			c-0.504-0.541-1.091-0.933-1.763-1.175c-0.672-0.242-1.539-0.392-2.603-0.448v-0.644h13.488c2.257,0,3.74,0.009,4.449,0.026
			c2.892,0.13,5.158,0.522,6.8,1.175c1.847,0.746,3.274,1.866,4.282,3.358c1.026,1.474,1.539,3.19,1.539,5.149
			c0,2.91-1.101,5.242-3.302,6.996c-0.672,0.522-1.418,0.951-2.239,1.287c-0.802,0.336-1.884,0.653-3.246,0.951
			c1.119,0.466,1.95,0.952,2.491,1.455c0.429,0.392,0.821,0.886,1.175,1.483c0.354,0.578,0.886,1.614,1.595,3.106
			c1.661,3.414,2.91,5.914,3.75,7.5c0.858,1.567,1.576,2.705,2.155,3.414c0.467,0.578,0.914,0.979,1.343,1.203
			c0.448,0.224,1.054,0.373,1.819,0.448v0.644h-9.291c-0.466-1.026-0.765-1.679-0.896-1.959l-1.959-4.449
			c-1.175-2.668-2.36-5.028-3.554-7.08c-1.194-2.033-2.285-3.423-3.274-4.17c-0.504-0.373-1.045-0.634-1.623-0.784
			c-0.578-0.168-1.287-0.252-2.127-0.252L1025.439,549.342z M1025.439,548.727h1.063c2.313,0,3.965-0.131,4.953-0.392
			c1.007-0.261,1.95-0.802,2.827-1.623c1.959-1.866,2.938-4.179,2.938-6.94c0-1.474-0.289-2.854-0.867-4.142
			c-0.56-1.306-1.343-2.379-2.351-3.218c-0.784-0.634-1.716-1.073-2.798-1.315c-1.082-0.261-2.621-0.392-4.618-0.392h-1.147
			L1025.439,548.727z"/>
		<path id="path1015" fill="#646465" fill-opacity="0.9882" d="M1086.624,529.837l0.476,9.235l-0.644,0.026
			c-0.242-1.567-0.644-2.864-1.203-3.89c-0.56-1.026-1.371-1.931-2.435-2.714c-0.877-0.653-1.912-1.11-3.106-1.371
			c-1.194-0.28-2.78-0.42-4.757-0.42h-6.408v16.791h1.679c1.698,0,2.976-0.112,3.834-0.336c0.858-0.224,1.558-0.625,2.099-1.203
			c0.522-0.541,0.905-1.175,1.147-1.903c0.261-0.746,0.476-1.838,0.644-3.274l0.644,0.026l-0.112,15h-0.644
			c-0.168-1.436-0.42-2.593-0.756-3.47c-0.317-0.877-0.765-1.623-1.343-2.239c-0.56-0.597-1.287-1.035-2.183-1.315
			c-0.896-0.28-2.034-0.42-3.414-0.42h-1.595v6.408c0,2.556,0.065,4.422,0.196,5.597c0.13,1.157,0.382,2.127,0.756,2.91
			c0.634,1.343,1.595,2.332,2.882,2.966c1.306,0.616,3.022,0.923,5.149,0.923c2.239,0,4.114-0.28,5.625-0.84
			c1.511-0.578,2.743-1.465,3.694-2.659c0.672-0.802,1.213-1.716,1.623-2.742c0.429-1.026,0.821-2.379,1.175-4.058l0.644,0.026
			l-0.364,11.138h-33.385v-0.644c1.063-0.056,1.922-0.205,2.575-0.448c0.672-0.242,1.269-0.634,1.791-1.175
			c0.578-0.597,0.97-1.353,1.175-2.267c0.224-0.933,0.336-2.351,0.336-4.254V538.62c0-1.903-0.112-3.311-0.336-4.226
			c-0.205-0.933-0.597-1.698-1.175-2.295c-0.504-0.541-1.091-0.933-1.763-1.175c-0.653-0.242-1.52-0.392-2.603-0.448v-0.644
			L1086.624,529.837z"/>
		<path id="path1017" fill="#646465" fill-opacity="0.9882" d="M1099.564,549.202c0-3.134,0.672-6.035,2.015-8.703
			c1.343-2.686,3.302-5.028,5.877-7.024c1.922-1.474,3.992-2.603,6.213-3.386c2.22-0.802,4.459-1.203,6.716-1.203
			c2.873,0,5.653,0.634,8.339,1.903c2.687,1.25,5.037,3.022,7.052,5.317c3.283,3.731,4.925,7.976,4.925,12.733
			c0,2.388-0.429,4.692-1.287,6.912c-0.858,2.22-2.108,4.244-3.75,6.073c-2.015,2.276-4.403,4.039-7.164,5.289
			c-2.742,1.25-5.615,1.875-8.619,1.875c-2.966,0-5.802-0.606-8.507-1.819c-2.705-1.213-5.037-2.929-6.996-5.149
			c-1.548-1.735-2.743-3.703-3.582-5.905C1099.975,553.895,1099.564,551.59,1099.564,549.202L1099.564,549.202z M1106.337,549.622
			c0,5.41,1.474,9.972,4.422,13.684c1.325,1.66,2.724,2.873,4.198,3.638c1.492,0.746,3.209,1.119,5.149,1.119
			c1.959,0,3.675-0.373,5.149-1.119c1.493-0.746,2.91-1.959,4.254-3.638c2.948-3.731,4.422-8.33,4.422-13.796
			c0-3.004-0.41-5.839-1.231-8.507c-0.802-2.686-1.94-4.963-3.414-6.828c-1.194-1.53-2.528-2.64-4.002-3.33
			c-1.455-0.709-3.181-1.063-5.177-1.063c-1.978,0-3.694,0.345-5.149,1.035c-1.437,0.69-2.771,1.81-4.002,3.358
			c-1.474,1.847-2.612,4.114-3.414,6.8C1106.737,543.661,1106.336,546.544,1106.337,549.622L1106.337,549.622z"/>
	</g>
	<path id="rect868" fill-rule="evenodd" clip-rule="evenodd" fill="#00A476" d="M105.743,0v370.798h79.916V0H105.743z M225.832,0
		v79.916h62.477v290.881h57.322l22.596-56.051V79.916h94.67L495.114,0H368.227h-79.918H225.832z M538.841,0l-58.649,145.479h92.921
		l28.029-69.529v69.529h79.916V0H631.76h-30.618H538.841z"/>
	<path id="rect868-0-7" fill-rule="evenodd" clip-rule="evenodd" fill="#D9373E" d="M442.361,239.322l-53.003,131.476h92.919
		l26.328-65.308h89.528v65.308h79.918V239.322h-0.645H535.28h-63.84H442.361z"/>
</g>
</svg>
