<?xml version="1.0" encoding="UTF-8" standalone="no"?>
<!-- Created with Inkscape (http://www.inkscape.org/) -->

<svg
   xmlns:dc="http://purl.org/dc/elements/1.1/"
   xmlns:cc="http://creativecommons.org/ns#"
   xmlns:rdf="http://www.w3.org/1999/02/22-rdf-syntax-ns#"
   xmlns:svg="http://www.w3.org/2000/svg"
   xmlns="http://www.w3.org/2000/svg"
   xmlns:sodipodi="http://sodipodi.sourceforge.net/DTD/sodipodi-0.dtd"
   xmlns:inkscape="http://www.inkscape.org/namespaces/inkscape"
   width="86.047226mm"
   height="16.771818mm"
   viewBox="0 0 86.047226 16.771819"
   version="1.1"
   id="svg5090"
   inkscape:version="0.92.1 r15371"
   sodipodi:docname="J-AIR_logo_2011.svg">
  <defs
     id="defs5084">
    <clipPath
       clipPathUnits="userSpaceOnUse"
       id="clipPath4980">
      <path
         inkscape:connector-curvature="0"
         d="M 0.113,474.803 H 420.236 V 0.204 H 0.113 Z"
         id="path4982" />
    </clipPath>
    <clipPath
       clipPathUnits="userSpaceOnUse"
       id="clipPath4972">
      <path
         style="clip-rule:evenodd"
         inkscape:connector-curvature="0"
         d="M -0.7,471.11 H 849.69 V -10.78 H -0.7 Z"
         id="path4974" />
    </clipPath>
    <clipPath
       clipPathUnits="userSpaceOnUse"
       id="clipPath4964">
      <path
         inkscape:connector-curvature="0"
         d="m -0.7,505.13 h 850 v -515 h -850 z"
         id="path4966" />
    </clipPath>
    <clipPath
       clipPathUnits="userSpaceOnUse"
       id="clipPath4956">
      <path
         inkscape:connector-curvature="0"
         d="m -0.685,505.14 h 849.99 V -9.87 H -0.685 Z"
         id="path4958" />
    </clipPath>
    <clipPath
       clipPathUnits="userSpaceOnUse"
       id="clipPath4812">
      <path
         inkscape:connector-curvature="0"
         d="M 0.113,474.803 H 420.236 V 0.204 H 0.113 Z"
         id="path4814" />
    </clipPath>
    <clipPath
       clipPathUnits="userSpaceOnUse"
       id="clipPath4804">
      <path
         style="clip-rule:evenodd"
         inkscape:connector-curvature="0"
         d="M -0.7,505.13 H 849.69 V -10.78 H -0.7 Z"
         id="path4806" />
    </clipPath>
    <clipPath
       clipPathUnits="userSpaceOnUse"
       id="clipPath4796">
      <path
         inkscape:connector-curvature="0"
         d="m -0.7,505.13 h 850 v -515 h -850 z"
         id="path4798" />
    </clipPath>
    <clipPath
       clipPathUnits="userSpaceOnUse"
       id="clipPath4788">
      <path
         inkscape:connector-curvature="0"
         d="m -0.685,505.14 h 849.99 V -9.87 H -0.685 Z"
         id="path4790" />
    </clipPath>
    <clipPath
       clipPathUnits="userSpaceOnUse"
       id="clipPath4716">
      <path
         inkscape:connector-curvature="0"
         d="M 0.113,474.803 H 420.236 V 0.204 H 0.113 Z"
         id="path4718" />
    </clipPath>
    <clipPath
       clipPathUnits="userSpaceOnUse"
       id="clipPath4708">
      <path
         style="clip-rule:evenodd"
         inkscape:connector-curvature="0"
         d="M -0.7,505.13 H 849.69 V -10.78 H -0.7 Z"
         id="path4710" />
    </clipPath>
    <clipPath
       clipPathUnits="userSpaceOnUse"
       id="clipPath4700">
      <path
         inkscape:connector-curvature="0"
         d="m -0.7,505.13 h 850 v -515 h -850 z"
         id="path4702" />
    </clipPath>
    <clipPath
       clipPathUnits="userSpaceOnUse"
       id="clipPath4692">
      <path
         inkscape:connector-curvature="0"
         d="m -0.685,505.14 h 849.99 V -9.87 H -0.685 Z"
         id="path4694" />
    </clipPath>
    <clipPath
       clipPathUnits="userSpaceOnUse"
       id="clipPath4386">
      <path
         inkscape:connector-curvature="0"
         d="M 637.795,481.89 H 850.393 V 0.95 H 637.795 Z"
         id="path4388" />
    </clipPath>
    <clipPath
       clipPathUnits="userSpaceOnUse"
       id="clipPath4378">
      <path
         style="clip-rule:evenodd"
         inkscape:connector-curvature="0"
         d="m 416.894,490.39 h 442.2 V -8.5 h -442.2 z"
         id="path4380" />
    </clipPath>
    <clipPath
       clipPathUnits="userSpaceOnUse"
       id="clipPath4370">
      <path
         inkscape:connector-curvature="0"
         d="m 424.394,482.89 h 427 v -484 h -427 z"
         id="path4372" />
    </clipPath>
    <clipPath
       clipPathUnits="userSpaceOnUse"
       id="clipPath4362">
      <path
         inkscape:connector-curvature="0"
         d="m 425.394,481.91 h 425.04 V 0.95 h -425.04 z"
         id="path4364" />
    </clipPath>
    <clipPath
       clipPathUnits="userSpaceOnUse"
       id="clipPath4352">
      <path
         inkscape:connector-curvature="0"
         d="M 637.795,481.89 H 850.393 V 0.95 H 637.795 Z"
         id="path4354" />
    </clipPath>
    <clipPath
       clipPathUnits="userSpaceOnUse"
       id="clipPath4344">
      <path
         inkscape:connector-curvature="0"
         d="M 425.197,481.89 H 637.795 V 0 H 425.197 Z"
         id="path4346" />
    </clipPath>
    <clipPath
       clipPathUnits="userSpaceOnUse"
       id="clipPath3702">
      <path
         inkscape:connector-curvature="0"
         d="m 1421.57,-1197.38 h 13.78 v 13.78 h -13.78 z"
         id="path3704" />
    </clipPath>
    <clipPath
       clipPathUnits="userSpaceOnUse"
       id="clipPath3692">
      <path
         inkscape:connector-curvature="0"
         d="m 438.985,21.063 c -0.693,-0.027 -1.395,-0.153 -2.07,-0.387 -0.729,-0.261 -1.422,-0.639 -2.052,-1.152 -0.585,-0.468 -1.071,-1.017 -1.458,-1.62 -0.423,-0.657 -0.72,-1.377 -0.9,-2.124 -0.072,-0.288 -0.126,-0.585 -0.153,-0.882 -0.027,-0.234 -0.036,-0.459 -0.045,-0.684 0,-0.792 0.126,-1.584 0.396,-2.349 0.252,-0.711 0.639,-1.395 1.143,-2.025 0.477,-0.594 1.035,-1.08 1.638,-1.467 0.693,-0.45 1.458,-0.756 2.241,-0.927 0.243,-0.054 0.504,-0.099 0.756,-0.126 0.297,-0.027 0.603,-0.036 0.9,-0.027 0.765,0.018 1.53,0.162 2.268,0.441 0.666,0.252 1.305,0.612 1.881,1.089 0.63,0.504 1.152,1.107 1.548,1.764 0.369,0.612 0.648,1.269 0.81,1.953 0.072,0.297 0.126,0.603 0.162,0.909 0.027,0.261 0.036,0.513 0.036,0.765 -0.009,0.81 -0.153,1.611 -0.441,2.385 -0.252,0.675 -0.621,1.314 -1.089,1.908 -0.513,0.63 -1.107,1.134 -1.746,1.539 -0.693,0.423 -1.44,0.711 -2.214,0.873 -0.225,0.045 -0.45,0.081 -0.675,0.108 -0.252,0.027 -0.495,0.036 -0.747,0.036 h -0.189"
         id="path3694" />
    </clipPath>
    <clipPath
       clipPathUnits="userSpaceOnUse"
       id="clipPath3684">
      <path
         inkscape:connector-curvature="0"
         d="m 432.307,21.06 h 13.779 V 7.284 h -13.779 z"
         id="path3686" />
    </clipPath>
    <clipPath
       clipPathUnits="userSpaceOnUse"
       id="clipPath3668">
      <path
         inkscape:connector-curvature="0"
         d="M 425.197,481.89 H 637.795 V 0 H 425.197 Z"
         id="path3670" />
    </clipPath>
    <clipPath
       clipPathUnits="userSpaceOnUse"
       id="clipPath3530">
      <path
         inkscape:connector-curvature="0"
         d="m 460.331,111.439 c -6.966,0 -17.611,0.074 -17.611,0.074 l -0.36,0.198 -1.377,-0.054 -0.009,0.243 0.27,0.189 -0.477,3.438 -0.486,-0.018 0.027,0.207 0.657,0.063 4.266,1.449 -13.185,4.428 c 0,0 1.116,0.504 3.924,1.107 1.53,0.324 2.754,0.567 3.609,0.657 0.332,0.038 0.616,0.048 0.823,0.048 0.23,0 0.365,-0.012 0.365,-0.012 l 10.737,-1.197 -15.912,26.208 c 0,0 1.404,0.63 3.42,1.062 2.199,0.475 3.584,0.541 4.183,0.541 0.23,0 0.344,-0.01 0.344,-0.01 l 9.576,-6.345 12.357,-8.136 c 0,0 9.783,-6.255 11.034,-6.957 0.785,-0.449 1.922,-0.532 2.653,-0.532 0.425,0 0.713,0.028 0.713,0.028 0,0 0.279,0.117 2.934,0.765 2.646,0.639 11.943,2.646 11.943,2.646 l -0.405,0.612 0.432,0.09 0.495,-0.549 5.796,1.197 -0.612,1.071 0.36,0.063 0.99,-0.873 12.753,2.736 c 0,0 0.423,0.378 1.998,0.774 0.684,0.171 1.332,0.324 1.809,0.324 0.612,0 0.936,-0.189 0.936,-0.189 l 8.298,1.836 -1.341,1.692 c 0,0 -0.846,-0.27 -1.593,-0.45 -0.249,-0.06 -0.548,-0.08 -0.836,-0.08 -0.576,0 -1.108,0.08 -1.108,0.08 l -0.072,0.495 c 0,0 0.423,0.378 0.756,0.648 0.324,0.279 1.332,1.116 1.332,1.116 l -3.915,4.815 0.099,0.189 0.423,0.378 1.053,0.45 0.036,0.315 0.333,0.171 -0.063,0.126 -0.306,-0.036 -0.819,-0.369 -0.441,0.477 -0.648,-0.306 -0.414,-0.009 0.072,0.036 c 0.189,0.099 0.711,0.369 0.711,0.369 l -9.171,9.117 -1.332,1.431 -0.792,-0.09 0.198,0.18 c 0,0 0.279,0.108 1.377,0.288 1.098,0.18 7.497,0.558 7.497,0.558 l 0.414,-0.09 0.288,-0.333 0.423,-0.054 -0.171,-0.252 0.117,-0.27 1.044,-0.063 0.882,-0.558 c 0,0 11.403,-6.021 20.124,-10.395 5.346,-2.673 9.72,-4.563 9.72,-4.563 l 10.791,2.277 -0.558,1.017 0.243,0.009 0.999,-0.828 c 0,0 26.136,5.535 30.501,6.426 1.908,0.387 4.239,0.927 6.498,1.251 2.925,0.414 5.814,0.567 8.424,0.585 0.263,0.002 0.519,0.003 0.768,0.003 4.155,0 6.478,-0.277 8.745,-0.651 2.403,-0.396 4.446,-2.187 4.446,-2.187 0,0 1.143,-0.216 2.295,-0.738 1.233,-0.558 2.484,-1.206 2.52,-2.304 0.063,-1.665 -2.232,-3.204 -4.455,-4.842 -0.954,-0.702 -2.367,-1.62 -4.005,-2.448 -2.196,-1.098 -4.797,-2.106 -7.254,-2.988 -4.302,-1.548 -9.288,-2.565 -13.887,-3.564 -4.599,-0.999 -14.697,-3.285 -14.697,-3.285 l -0.27,-0.216 -0.828,-0.135 c 0,0 -0.576,-0.531 -1.629,-0.999 -1.116,-0.495 -2.736,-0.936 -4.437,-1.368 -3.33,-0.855 -7.533,-1.395 -7.533,-1.395 l -0.207,-0.036 -0.342,-0.225 c 0,0 0.207,-0.927 0.441,-2.439 0.225,-1.512 0.495,-2.097 0.054,-3.321 -0.441,-1.233 -3.978,-2.088 -6.651,-2.772 -2.501,-0.648 -5.798,-1.013 -6.389,-1.013 -0.04,0 -0.068,0.002 -0.082,0.005 -0.207,0.063 -0.387,0.234 -0.675,0.603 -0.297,0.369 -0.45,0.882 -0.45,0.882 l -3.114,-0.081 -0.216,0.234 -0.414,0.018 -0.081,0.207 -1.008,0.135 -3.411,0.603 0.027,0.171 2.556,1.926 c 0,0 -9.504,-2.187 -14.94,-3.285 -6.489,-1.314 -14.463,-1.926 -14.463,-1.926 l -0.351,-0.045 c 0,0 -2.331,-0.612 -4.284,-0.99 -1.962,-0.387 -6.939,-1.611 -6.939,-1.611 l -0.63,-1.512 -0.243,-0.009 0.09,1.287 -3.879,-0.837 -0.324,-0.639 -0.999,-0.243 0.189,0.594 c 0,0 -1.305,-0.261 -3.384,-0.468 -2.385,-0.234 -5.805,-0.423 -9.594,-0.603 -7.083,-0.333 -18.54,-0.378 -24.363,-0.414 -1.003,-0.008 -2.294,-0.011 -3.746,-0.011"
         id="path3532" />
    </clipPath>
    <clipPath
       clipPathUnits="userSpaceOnUse"
       id="clipPath3522">
      <path
         inkscape:connector-curvature="0"
         d="m 511.138,159.654 c -1.098,-0.18 -1.377,-0.288 -1.377,-0.288 l -0.198,-0.18 0.792,0.09 1.332,-1.431 9.171,-9.117 c 0,0 -0.522,-0.27 -0.711,-0.369 l -0.072,-0.036 0.414,0.009 0.648,0.306 0.441,-0.477 0.819,0.369 0.306,0.036 0.063,-0.126 -0.333,-0.171 -0.036,-0.315 -1.053,-0.45 -0.423,-0.378 -0.099,-0.189 3.915,-4.815 c 0,0 -1.008,-0.837 -1.332,-1.116 -0.333,-0.27 -0.756,-0.648 -0.756,-0.648 l 0.072,-0.495 c 0,0 1.197,-0.18 1.944,0 0.747,0.18 1.593,0.45 1.593,0.45 l 1.341,-1.692 -8.298,-1.836 c 0,0 -0.324,0.189 -0.936,0.189 -0.477,0 -1.125,-0.153 -1.809,-0.324 -1.575,-0.396 -1.998,-0.774 -1.998,-0.774 l -12.753,-2.736 -0.99,0.873 -0.36,-0.063 0.612,-1.071 -5.796,-1.197 -0.495,0.549 -0.432,-0.09 0.405,-0.612 c 0,0 -9.297,-2.007 -11.943,-2.646 -2.655,-0.648 -2.934,-0.765 -2.934,-0.765 0,0 -2.124,-0.207 -3.366,0.504 -1.251,0.702 -11.034,6.957 -11.034,6.957 l -12.357,8.136 -9.576,6.345 c 0,0 -1.485,0.126 -4.527,-0.531 -2.016,-0.432 -3.42,-1.062 -3.42,-1.062 l 15.912,-26.208 -10.737,1.197 c 0,0 -0.486,0.045 -1.188,-0.036 -0.855,-0.09 -2.079,-0.333 -3.609,-0.657 -2.808,-0.603 -3.924,-1.107 -3.924,-1.107 l 13.185,-4.428 -4.266,-1.449 -0.657,-0.063 -0.027,-0.207 0.486,0.018 0.477,-3.438 -0.27,-0.189 0.009,-0.243 1.377,0.054 0.36,-0.198 c 0,0 15.543,-0.108 21.357,-0.063 5.823,0.036 17.28,0.081 24.363,0.414 3.789,0.18 7.209,0.369 9.594,0.603 2.079,0.207 3.384,0.468 3.384,0.468 l -0.189,-0.594 0.999,0.243 0.324,0.639 3.879,0.837 -0.09,-1.287 0.243,0.009 0.63,1.512 c 0,0 4.977,1.224 6.939,1.611 1.953,0.378 4.284,0.99 4.284,0.99 l 0.351,0.045 c 0,0 7.974,0.612 14.463,1.926 5.436,1.098 14.94,3.285 14.94,3.285 l -2.556,-1.926 -0.027,-0.171 3.411,-0.603 1.008,-0.135 0.081,-0.207 0.414,-0.018 0.216,-0.234 3.114,0.081 c 0,0 0.153,-0.513 0.45,-0.882 0.288,-0.369 0.468,-0.54 0.675,-0.603 0.216,-0.054 3.798,0.315 6.471,1.008 2.673,0.684 6.21,1.539 6.651,2.772 0.441,1.224 0.171,1.809 -0.054,3.321 -0.234,1.512 -0.441,2.439 -0.441,2.439 l 0.342,0.225 0.207,0.036 c 0,0 4.203,0.54 7.533,1.395 1.701,0.432 3.321,0.873 4.437,1.368 1.053,0.468 1.629,0.999 1.629,0.999 l 0.828,0.135 0.27,0.216 c 0,0 10.098,2.286 14.697,3.285 4.599,0.999 9.585,2.016 13.887,3.564 2.457,0.882 5.058,1.89 7.254,2.988 1.638,0.828 3.051,1.746 4.005,2.448 2.223,1.638 4.518,3.177 4.455,4.842 -0.036,1.098 -1.287,1.746 -2.52,2.304 -1.152,0.522 -2.295,0.738 -2.295,0.738 0,0 -2.043,1.791 -4.446,2.187 -2.403,0.396 -4.869,0.684 -9.513,0.648 -2.61,-0.018 -5.499,-0.171 -8.424,-0.585 -2.259,-0.324 -4.59,-0.864 -6.498,-1.251 -4.365,-0.891 -30.501,-6.426 -30.501,-6.426 l -0.999,0.828 -0.243,-0.009 0.558,-1.017 -10.791,-2.277 c 0,0 -4.374,1.89 -9.72,4.563 -8.721,4.374 -20.124,10.395 -20.124,10.395 l -0.882,0.558 -1.044,0.063 -0.117,0.27 0.171,0.252 -0.423,0.054 -0.288,0.333 -0.414,0.09 c 0,0 -6.399,-0.378 -7.497,-0.558"
         id="path3524" />
    </clipPath>
    <clipPath
       clipPathUnits="userSpaceOnUse"
       id="clipPath3514">
      <path
         inkscape:connector-curvature="0"
         d="m 431.829,111.242 h 195.576 v 49.116 H 431.829 Z"
         id="path3516" />
    </clipPath>
    <clipPath
       clipPathUnits="userSpaceOnUse"
       id="clipPath3500">
      <path
         inkscape:connector-curvature="0"
         d="M 425.197,63.46 H 614.841 V 28.464 H 425.197 Z"
         id="path3502" />
    </clipPath>
    <clipPath
       clipPathUnits="userSpaceOnUse"
       id="clipPath3492">
      <path
         inkscape:connector-curvature="0"
         d="M 646.3,28.677 H 425.242 V 271.029 H 646.3 V 28.677 m -203.94,83.034 0.36,-0.198 c 0,0 10.645,-0.074 17.611,-0.074 1.452,0 2.743,0.003 3.746,0.011 5.823,0.036 17.28,0.081 24.363,0.414 3.789,0.18 7.209,0.369 9.594,0.603 2.079,0.207 3.384,0.468 3.384,0.468 l -0.189,-0.594 0.999,0.243 0.324,0.639 3.879,0.837 -0.09,-1.287 0.243,0.009 0.63,1.512 c 0,0 4.977,1.224 6.939,1.611 1.953,0.378 4.284,0.99 4.284,0.99 l 0.351,0.045 c 0,0 7.974,0.612 14.463,1.926 5.436,1.098 14.94,3.285 14.94,3.285 l -2.556,-1.926 -0.027,-0.171 3.411,-0.603 1.008,-0.135 0.081,-0.207 0.414,-0.018 0.216,-0.234 3.114,0.081 c 0,0 0.153,-0.513 0.45,-0.882 0.288,-0.369 0.468,-0.54 0.675,-0.603 0.014,-0.003 0.042,-0.005 0.082,-0.005 0.591,0 3.888,0.365 6.389,1.013 2.673,0.684 6.21,1.539 6.651,2.772 0.441,1.224 0.171,1.809 -0.054,3.321 -0.234,1.512 -0.441,2.439 -0.441,2.439 l 0.342,0.225 0.207,0.036 c 0,0 4.203,0.54 7.533,1.395 1.701,0.432 3.321,0.873 4.437,1.368 1.053,0.468 1.629,0.999 1.629,0.999 l 0.828,0.135 0.27,0.216 c 0,0 10.098,2.286 14.697,3.285 4.599,0.999 9.585,2.016 13.887,3.564 2.457,0.882 5.058,1.89 7.254,2.988 1.638,0.828 3.051,1.746 4.005,2.448 2.223,1.638 4.518,3.177 4.455,4.842 -0.036,1.098 -1.287,1.746 -2.52,2.304 -1.152,0.522 -2.295,0.738 -2.295,0.738 0,0 -2.043,1.791 -4.446,2.187 -2.267,0.374 -4.59,0.651 -8.745,0.651 -0.249,0 -0.505,-0.001 -0.768,-0.003 -2.61,-0.018 -5.499,-0.171 -8.424,-0.585 -2.259,-0.324 -4.59,-0.864 -6.498,-1.251 -4.365,-0.891 -30.501,-6.426 -30.501,-6.426 l -0.999,0.828 -0.243,-0.009 0.558,-1.017 -10.791,-2.277 c 0,0 -4.374,1.89 -9.72,4.563 -8.721,4.374 -20.124,10.395 -20.124,10.395 l -0.882,0.558 -1.044,0.063 -0.117,0.27 0.171,0.252 -0.423,0.054 -0.288,0.333 -0.414,0.09 c 0,0 -6.399,-0.378 -7.497,-0.558 -1.098,-0.18 -1.377,-0.288 -1.377,-0.288 l -0.198,-0.18 0.792,0.09 1.332,-1.431 9.171,-9.117 c 0,0 -0.522,-0.27 -0.711,-0.369 l -0.072,-0.036 0.414,0.009 0.648,0.306 0.441,-0.477 0.819,0.369 0.306,0.036 0.063,-0.126 -0.333,-0.171 -0.036,-0.315 -1.053,-0.45 -0.423,-0.378 -0.099,-0.189 3.915,-4.815 c 0,0 -1.008,-0.837 -1.332,-1.116 -0.333,-0.27 -0.756,-0.648 -0.756,-0.648 l 0.072,-0.495 c 0,0 0.532,-0.08 1.108,-0.08 0.288,0 0.587,0.02 0.836,0.08 0.747,0.18 1.593,0.45 1.593,0.45 l 1.341,-1.692 -8.298,-1.836 c 0,0 -0.324,0.189 -0.936,0.189 -0.477,0 -1.125,-0.153 -1.809,-0.324 -1.575,-0.396 -1.998,-0.774 -1.998,-0.774 l -12.753,-2.736 -0.99,0.873 -0.36,-0.063 0.612,-1.071 -5.796,-1.197 -0.495,0.549 -0.432,-0.09 0.405,-0.612 c 0,0 -9.297,-2.007 -11.943,-2.646 -2.655,-0.648 -2.934,-0.765 -2.934,-0.765 0,0 -0.288,-0.028 -0.713,-0.028 -0.731,0 -1.868,0.083 -2.653,0.532 -1.251,0.702 -11.034,6.957 -11.034,6.957 l -12.357,8.136 -9.576,6.345 c 0,0 -0.114,0.01 -0.344,0.01 -0.599,0 -1.984,-0.066 -4.183,-0.541 -2.016,-0.432 -3.42,-1.062 -3.42,-1.062 l 15.912,-26.208 -10.737,1.197 c 0,0 -0.135,0.012 -0.365,0.012 -0.207,0 -0.491,-0.01 -0.823,-0.048 -0.855,-0.09 -2.079,-0.333 -3.609,-0.657 -2.808,-0.603 -3.924,-1.107 -3.924,-1.107 l 13.185,-4.428 -4.266,-1.449 -0.657,-0.063 -0.027,-0.207 0.486,0.018 0.477,-3.438 -0.27,-0.189 0.009,-0.243 1.377,0.054"
         id="path3494" />
    </clipPath>
    <clipPath
       clipPathUnits="userSpaceOnUse"
       id="clipPath3484">
      <path
         inkscape:connector-curvature="0"
         d="M 424.929,28.442 H 614.865 V 63.488 H 424.929 Z"
         id="path3486" />
    </clipPath>
    <clipPath
       clipPathUnits="userSpaceOnUse"
       id="clipPath3470">
      <path
         inkscape:connector-curvature="0"
         d="m 614.426,271.16 h 23.369 V 28.464 h -23.369 z"
         id="path3472" />
    </clipPath>
    <clipPath
       clipPathUnits="userSpaceOnUse"
       id="clipPath3462">
      <path
         inkscape:connector-curvature="0"
         d="M 646.3,28.677 H 425.242 V 271.029 H 646.3 V 28.677 m -203.94,83.034 0.36,-0.198 c 0,0 10.645,-0.074 17.611,-0.074 1.452,0 2.743,0.003 3.746,0.011 5.823,0.036 17.28,0.081 24.363,0.414 3.789,0.18 7.209,0.369 9.594,0.603 2.079,0.207 3.384,0.468 3.384,0.468 l -0.189,-0.594 0.999,0.243 0.324,0.639 3.879,0.837 -0.09,-1.287 0.243,0.009 0.63,1.512 c 0,0 4.977,1.224 6.939,1.611 1.953,0.378 4.284,0.99 4.284,0.99 l 0.351,0.045 c 0,0 7.974,0.612 14.463,1.926 5.436,1.098 14.94,3.285 14.94,3.285 l -2.556,-1.926 -0.027,-0.171 3.411,-0.603 1.008,-0.135 0.081,-0.207 0.414,-0.018 0.216,-0.234 3.114,0.081 c 0,0 0.153,-0.513 0.45,-0.882 0.288,-0.369 0.468,-0.54 0.675,-0.603 0.014,-0.003 0.042,-0.005 0.082,-0.005 0.591,0 3.888,0.365 6.389,1.013 2.673,0.684 6.21,1.539 6.651,2.772 0.441,1.224 0.171,1.809 -0.054,3.321 -0.234,1.512 -0.441,2.439 -0.441,2.439 l 0.342,0.225 0.207,0.036 c 0,0 4.203,0.54 7.533,1.395 1.701,0.432 3.321,0.873 4.437,1.368 1.053,0.468 1.629,0.999 1.629,0.999 l 0.828,0.135 0.27,0.216 c 0,0 10.098,2.286 14.697,3.285 4.599,0.999 9.585,2.016 13.887,3.564 2.457,0.882 5.058,1.89 7.254,2.988 1.638,0.828 3.051,1.746 4.005,2.448 2.223,1.638 4.518,3.177 4.455,4.842 -0.036,1.098 -1.287,1.746 -2.52,2.304 -1.152,0.522 -2.295,0.738 -2.295,0.738 0,0 -2.043,1.791 -4.446,2.187 -2.267,0.374 -4.59,0.651 -8.745,0.651 -0.249,0 -0.505,-0.001 -0.768,-0.003 -2.61,-0.018 -5.499,-0.171 -8.424,-0.585 -2.259,-0.324 -4.59,-0.864 -6.498,-1.251 -4.365,-0.891 -30.501,-6.426 -30.501,-6.426 l -0.999,0.828 -0.243,-0.009 0.558,-1.017 -10.791,-2.277 c 0,0 -4.374,1.89 -9.72,4.563 -8.721,4.374 -20.124,10.395 -20.124,10.395 l -0.882,0.558 -1.044,0.063 -0.117,0.27 0.171,0.252 -0.423,0.054 -0.288,0.333 -0.414,0.09 c 0,0 -6.399,-0.378 -7.497,-0.558 -1.098,-0.18 -1.377,-0.288 -1.377,-0.288 l -0.198,-0.18 0.792,0.09 1.332,-1.431 9.171,-9.117 c 0,0 -0.522,-0.27 -0.711,-0.369 l -0.072,-0.036 0.414,0.009 0.648,0.306 0.441,-0.477 0.819,0.369 0.306,0.036 0.063,-0.126 -0.333,-0.171 -0.036,-0.315 -1.053,-0.45 -0.423,-0.378 -0.099,-0.189 3.915,-4.815 c 0,0 -1.008,-0.837 -1.332,-1.116 -0.333,-0.27 -0.756,-0.648 -0.756,-0.648 l 0.072,-0.495 c 0,0 0.532,-0.08 1.108,-0.08 0.288,0 0.587,0.02 0.836,0.08 0.747,0.18 1.593,0.45 1.593,0.45 l 1.341,-1.692 -8.298,-1.836 c 0,0 -0.324,0.189 -0.936,0.189 -0.477,0 -1.125,-0.153 -1.809,-0.324 -1.575,-0.396 -1.998,-0.774 -1.998,-0.774 l -12.753,-2.736 -0.99,0.873 -0.36,-0.063 0.612,-1.071 -5.796,-1.197 -0.495,0.549 -0.432,-0.09 0.405,-0.612 c 0,0 -9.297,-2.007 -11.943,-2.646 -2.655,-0.648 -2.934,-0.765 -2.934,-0.765 0,0 -0.288,-0.028 -0.713,-0.028 -0.731,0 -1.868,0.083 -2.653,0.532 -1.251,0.702 -11.034,6.957 -11.034,6.957 l -12.357,8.136 -9.576,6.345 c 0,0 -0.114,0.01 -0.344,0.01 -0.599,0 -1.984,-0.066 -4.183,-0.541 -2.016,-0.432 -3.42,-1.062 -3.42,-1.062 l 15.912,-26.208 -10.737,1.197 c 0,0 -0.135,0.012 -0.365,0.012 -0.207,0 -0.491,-0.01 -0.823,-0.048 -0.855,-0.09 -2.079,-0.333 -3.609,-0.657 -2.808,-0.603 -3.924,-1.107 -3.924,-1.107 l 13.185,-4.428 -4.266,-1.449 -0.657,-0.063 -0.027,-0.207 0.486,0.018 0.477,-3.438 -0.27,-0.189 0.009,-0.243 1.377,0.054"
         id="path3464" />
    </clipPath>
    <clipPath
       clipPathUnits="userSpaceOnUse"
       id="clipPath3454">
      <path
         inkscape:connector-curvature="0"
         d="m 614.409,28.442 h 32.136 v 242.736 h -32.136 z"
         id="path3456" />
    </clipPath>
    <clipPath
       clipPathUnits="userSpaceOnUse"
       id="clipPath3440">
      <path
         inkscape:connector-curvature="0"
         d="M 425.197,271.16 H 614.841 V 63.046 H 425.197 Z"
         id="path3442" />
    </clipPath>
    <clipPath
       clipPathUnits="userSpaceOnUse"
       id="clipPath3432">
      <path
         inkscape:connector-curvature="0"
         d="M 646.3,28.677 H 425.242 V 271.029 H 646.3 V 28.677 m -203.94,83.034 0.36,-0.198 c 0,0 10.645,-0.074 17.611,-0.074 1.452,0 2.743,0.003 3.746,0.011 5.823,0.036 17.28,0.081 24.363,0.414 3.789,0.18 7.209,0.369 9.594,0.603 2.079,0.207 3.384,0.468 3.384,0.468 l -0.189,-0.594 0.999,0.243 0.324,0.639 3.879,0.837 -0.09,-1.287 0.243,0.009 0.63,1.512 c 0,0 4.977,1.224 6.939,1.611 1.953,0.378 4.284,0.99 4.284,0.99 l 0.351,0.045 c 0,0 7.974,0.612 14.463,1.926 5.436,1.098 14.94,3.285 14.94,3.285 l -2.556,-1.926 -0.027,-0.171 3.411,-0.603 1.008,-0.135 0.081,-0.207 0.414,-0.018 0.216,-0.234 3.114,0.081 c 0,0 0.153,-0.513 0.45,-0.882 0.288,-0.369 0.468,-0.54 0.675,-0.603 0.014,-0.003 0.042,-0.005 0.082,-0.005 0.591,0 3.888,0.365 6.389,1.013 2.673,0.684 6.21,1.539 6.651,2.772 0.441,1.224 0.171,1.809 -0.054,3.321 -0.234,1.512 -0.441,2.439 -0.441,2.439 l 0.342,0.225 0.207,0.036 c 0,0 4.203,0.54 7.533,1.395 1.701,0.432 3.321,0.873 4.437,1.368 1.053,0.468 1.629,0.999 1.629,0.999 l 0.828,0.135 0.27,0.216 c 0,0 10.098,2.286 14.697,3.285 4.599,0.999 9.585,2.016 13.887,3.564 2.457,0.882 5.058,1.89 7.254,2.988 1.638,0.828 3.051,1.746 4.005,2.448 2.223,1.638 4.518,3.177 4.455,4.842 -0.036,1.098 -1.287,1.746 -2.52,2.304 -1.152,0.522 -2.295,0.738 -2.295,0.738 0,0 -2.043,1.791 -4.446,2.187 -2.267,0.374 -4.59,0.651 -8.745,0.651 -0.249,0 -0.505,-0.001 -0.768,-0.003 -2.61,-0.018 -5.499,-0.171 -8.424,-0.585 -2.259,-0.324 -4.59,-0.864 -6.498,-1.251 -4.365,-0.891 -30.501,-6.426 -30.501,-6.426 l -0.999,0.828 -0.243,-0.009 0.558,-1.017 -10.791,-2.277 c 0,0 -4.374,1.89 -9.72,4.563 -8.721,4.374 -20.124,10.395 -20.124,10.395 l -0.882,0.558 -1.044,0.063 -0.117,0.27 0.171,0.252 -0.423,0.054 -0.288,0.333 -0.414,0.09 c 0,0 -6.399,-0.378 -7.497,-0.558 -1.098,-0.18 -1.377,-0.288 -1.377,-0.288 l -0.198,-0.18 0.792,0.09 1.332,-1.431 9.171,-9.117 c 0,0 -0.522,-0.27 -0.711,-0.369 l -0.072,-0.036 0.414,0.009 0.648,0.306 0.441,-0.477 0.819,0.369 0.306,0.036 0.063,-0.126 -0.333,-0.171 -0.036,-0.315 -1.053,-0.45 -0.423,-0.378 -0.099,-0.189 3.915,-4.815 c 0,0 -1.008,-0.837 -1.332,-1.116 -0.333,-0.27 -0.756,-0.648 -0.756,-0.648 l 0.072,-0.495 c 0,0 0.532,-0.08 1.108,-0.08 0.288,0 0.587,0.02 0.836,0.08 0.747,0.18 1.593,0.45 1.593,0.45 l 1.341,-1.692 -8.298,-1.836 c 0,0 -0.324,0.189 -0.936,0.189 -0.477,0 -1.125,-0.153 -1.809,-0.324 -1.575,-0.396 -1.998,-0.774 -1.998,-0.774 l -12.753,-2.736 -0.99,0.873 -0.36,-0.063 0.612,-1.071 -5.796,-1.197 -0.495,0.549 -0.432,-0.09 0.405,-0.612 c 0,0 -9.297,-2.007 -11.943,-2.646 -2.655,-0.648 -2.934,-0.765 -2.934,-0.765 0,0 -0.288,-0.028 -0.713,-0.028 -0.731,0 -1.868,0.083 -2.653,0.532 -1.251,0.702 -11.034,6.957 -11.034,6.957 l -12.357,8.136 -9.576,6.345 c 0,0 -0.114,0.01 -0.344,0.01 -0.599,0 -1.984,-0.066 -4.183,-0.541 -2.016,-0.432 -3.42,-1.062 -3.42,-1.062 l 15.912,-26.208 -10.737,1.197 c 0,0 -0.135,0.012 -0.365,0.012 -0.207,0 -0.491,-0.01 -0.823,-0.048 -0.855,-0.09 -2.079,-0.333 -3.609,-0.657 -2.808,-0.603 -3.924,-1.107 -3.924,-1.107 l 13.185,-4.428 -4.266,-1.449 -0.657,-0.063 -0.027,-0.207 0.486,0.018 0.477,-3.438 -0.27,-0.189 0.009,-0.243 1.377,0.054"
         id="path3434" />
    </clipPath>
    <clipPath
       clipPathUnits="userSpaceOnUse"
       id="clipPath3424">
      <path
         inkscape:connector-curvature="0"
         d="M 424.929,63.032 H 614.865 V 271.178 H 424.929 Z"
         id="path3426" />
    </clipPath>
    <clipPath
       clipPathUnits="userSpaceOnUse"
       id="clipPath3280">
      <path
         inkscape:connector-curvature="0"
         d="M 0.06,515.88 H 849.082 V 484.724 H 0.06 Z"
         id="path3282" />
    </clipPath>
    <clipPath
       clipPathUnits="userSpaceOnUse"
       id="clipPath3272">
      <path
         style="clip-rule:evenodd"
         inkscape:connector-curvature="0"
         d="m -0.918,515.906 h 850.39 V -0.004 H -0.918 Z"
         id="path3274" />
    </clipPath>
    <clipPath
       clipPathUnits="userSpaceOnUse"
       id="clipPath3264">
      <path
         inkscape:connector-curvature="0"
         d="m -0.918,515.906 h 850 v -515 h -850 z"
         id="path3266" />
    </clipPath>
    <clipPath
       clipPathUnits="userSpaceOnUse"
       id="clipPath3256">
      <path
         inkscape:connector-curvature="0"
         d="m -0.903,515.916 h 849.99 V 0.906 H -0.903 Z"
         id="path3258" />
    </clipPath>
    <clipPath
       id="clipPath4980-1"
       clipPathUnits="userSpaceOnUse">
      <path
         id="path4982-0"
         d="M 0.113,474.803 H 420.236 V 0.204 H 0.113 Z"
         inkscape:connector-curvature="0" />
    </clipPath>
    <clipPath
       id="clipPath4972-9"
       clipPathUnits="userSpaceOnUse">
      <path
         style="clip-rule:evenodd"
         id="path4974-4"
         d="M -0.7,471.11 H 849.69 V -10.78 H -0.7 Z"
         inkscape:connector-curvature="0" />
    </clipPath>
    <clipPath
       id="clipPath4964-6"
       clipPathUnits="userSpaceOnUse">
      <path
         id="path4966-3"
         d="m -0.7,505.13 h 850 v -515 h -850 z"
         inkscape:connector-curvature="0" />
    </clipPath>
    <clipPath
       id="clipPath4956-3"
       clipPathUnits="userSpaceOnUse">
      <path
         id="path4958-4"
         d="m -0.685,505.14 h 849.99 V -9.87 H -0.685 Z"
         inkscape:connector-curvature="0" />
    </clipPath>
    <clipPath
       id="clipPath4812-3"
       clipPathUnits="userSpaceOnUse">
      <path
         id="path4814-9"
         d="M 0.113,474.803 H 420.236 V 0.204 H 0.113 Z"
         inkscape:connector-curvature="0" />
    </clipPath>
    <clipPath
       id="clipPath4804-9"
       clipPathUnits="userSpaceOnUse">
      <path
         style="clip-rule:evenodd"
         id="path4806-4"
         d="M -0.7,505.13 H 849.69 V -10.78 H -0.7 Z"
         inkscape:connector-curvature="0" />
    </clipPath>
    <clipPath
       id="clipPath4796-7"
       clipPathUnits="userSpaceOnUse">
      <path
         id="path4798-2"
         d="m -0.7,505.13 h 850 v -515 h -850 z"
         inkscape:connector-curvature="0" />
    </clipPath>
    <clipPath
       id="clipPath4788-4"
       clipPathUnits="userSpaceOnUse">
      <path
         id="path4790-5"
         d="m -0.685,505.14 h 849.99 V -9.87 H -0.685 Z"
         inkscape:connector-curvature="0" />
    </clipPath>
    <clipPath
       id="clipPath4716-0"
       clipPathUnits="userSpaceOnUse">
      <path
         id="path4718-4"
         d="M 0.113,474.803 H 420.236 V 0.204 H 0.113 Z"
         inkscape:connector-curvature="0" />
    </clipPath>
    <clipPath
       id="clipPath4708-1"
       clipPathUnits="userSpaceOnUse">
      <path
         style="clip-rule:evenodd"
         id="path4710-9"
         d="M -0.7,505.13 H 849.69 V -10.78 H -0.7 Z"
         inkscape:connector-curvature="0" />
    </clipPath>
    <clipPath
       id="clipPath4700-7"
       clipPathUnits="userSpaceOnUse">
      <path
         id="path4702-9"
         d="m -0.7,505.13 h 850 v -515 h -850 z"
         inkscape:connector-curvature="0" />
    </clipPath>
    <clipPath
       id="clipPath4692-0"
       clipPathUnits="userSpaceOnUse">
      <path
         id="path4694-7"
         d="m -0.685,505.14 h 849.99 V -9.87 H -0.685 Z"
         inkscape:connector-curvature="0" />
    </clipPath>
    <clipPath
       id="clipPath4386-2"
       clipPathUnits="userSpaceOnUse">
      <path
         id="path4388-8"
         d="M 637.795,481.89 H 850.393 V 0.95 H 637.795 Z"
         inkscape:connector-curvature="0" />
    </clipPath>
    <clipPath
       id="clipPath4378-1"
       clipPathUnits="userSpaceOnUse">
      <path
         style="clip-rule:evenodd"
         id="path4380-8"
         d="m 416.894,490.39 h 442.2 V -8.5 h -442.2 z"
         inkscape:connector-curvature="0" />
    </clipPath>
    <clipPath
       id="clipPath4370-2"
       clipPathUnits="userSpaceOnUse">
      <path
         id="path4372-3"
         d="m 424.394,482.89 h 427 v -484 h -427 z"
         inkscape:connector-curvature="0" />
    </clipPath>
    <clipPath
       id="clipPath4362-3"
       clipPathUnits="userSpaceOnUse">
      <path
         id="path4364-1"
         d="m 425.394,481.91 h 425.04 V 0.95 h -425.04 z"
         inkscape:connector-curvature="0" />
    </clipPath>
    <clipPath
       id="clipPath4352-2"
       clipPathUnits="userSpaceOnUse">
      <path
         id="path4354-9"
         d="M 637.795,481.89 H 850.393 V 0.95 H 637.795 Z"
         inkscape:connector-curvature="0" />
    </clipPath>
    <clipPath
       id="clipPath4344-1"
       clipPathUnits="userSpaceOnUse">
      <path
         id="path4346-4"
         d="M 425.197,481.89 H 637.795 V 0 H 425.197 Z"
         inkscape:connector-curvature="0" />
    </clipPath>
    <clipPath
       id="clipPath3702-0"
       clipPathUnits="userSpaceOnUse">
      <path
         id="path3704-1"
         d="m 1421.57,-1197.38 h 13.78 v 13.78 h -13.78 z"
         inkscape:connector-curvature="0" />
    </clipPath>
    <clipPath
       id="clipPath3692-1"
       clipPathUnits="userSpaceOnUse">
      <path
         id="path3694-9"
         d="m 438.985,21.063 c -0.693,-0.027 -1.395,-0.153 -2.07,-0.387 -0.729,-0.261 -1.422,-0.639 -2.052,-1.152 -0.585,-0.468 -1.071,-1.017 -1.458,-1.62 -0.423,-0.657 -0.72,-1.377 -0.9,-2.124 -0.072,-0.288 -0.126,-0.585 -0.153,-0.882 -0.027,-0.234 -0.036,-0.459 -0.045,-0.684 0,-0.792 0.126,-1.584 0.396,-2.349 0.252,-0.711 0.639,-1.395 1.143,-2.025 0.477,-0.594 1.035,-1.08 1.638,-1.467 0.693,-0.45 1.458,-0.756 2.241,-0.927 0.243,-0.054 0.504,-0.099 0.756,-0.126 0.297,-0.027 0.603,-0.036 0.9,-0.027 0.765,0.018 1.53,0.162 2.268,0.441 0.666,0.252 1.305,0.612 1.881,1.089 0.63,0.504 1.152,1.107 1.548,1.764 0.369,0.612 0.648,1.269 0.81,1.953 0.072,0.297 0.126,0.603 0.162,0.909 0.027,0.261 0.036,0.513 0.036,0.765 -0.009,0.81 -0.153,1.611 -0.441,2.385 -0.252,0.675 -0.621,1.314 -1.089,1.908 -0.513,0.63 -1.107,1.134 -1.746,1.539 -0.693,0.423 -1.44,0.711 -2.214,0.873 -0.225,0.045 -0.45,0.081 -0.675,0.108 -0.252,0.027 -0.495,0.036 -0.747,0.036 h -0.189"
         inkscape:connector-curvature="0" />
    </clipPath>
    <clipPath
       id="clipPath3684-3"
       clipPathUnits="userSpaceOnUse">
      <path
         id="path3686-8"
         d="m 432.307,21.06 h 13.779 V 7.284 h -13.779 z"
         inkscape:connector-curvature="0" />
    </clipPath>
    <clipPath
       id="clipPath3668-0"
       clipPathUnits="userSpaceOnUse">
      <path
         id="path3670-4"
         d="M 425.197,481.89 H 637.795 V 0 H 425.197 Z"
         inkscape:connector-curvature="0" />
    </clipPath>
    <clipPath
       id="clipPath3530-4"
       clipPathUnits="userSpaceOnUse">
      <path
         id="path3532-8"
         d="m 460.331,111.439 c -6.966,0 -17.611,0.074 -17.611,0.074 l -0.36,0.198 -1.377,-0.054 -0.009,0.243 0.27,0.189 -0.477,3.438 -0.486,-0.018 0.027,0.207 0.657,0.063 4.266,1.449 -13.185,4.428 c 0,0 1.116,0.504 3.924,1.107 1.53,0.324 2.754,0.567 3.609,0.657 0.332,0.038 0.616,0.048 0.823,0.048 0.23,0 0.365,-0.012 0.365,-0.012 l 10.737,-1.197 -15.912,26.208 c 0,0 1.404,0.63 3.42,1.062 2.199,0.475 3.584,0.541 4.183,0.541 0.23,0 0.344,-0.01 0.344,-0.01 l 9.576,-6.345 12.357,-8.136 c 0,0 9.783,-6.255 11.034,-6.957 0.785,-0.449 1.922,-0.532 2.653,-0.532 0.425,0 0.713,0.028 0.713,0.028 0,0 0.279,0.117 2.934,0.765 2.646,0.639 11.943,2.646 11.943,2.646 l -0.405,0.612 0.432,0.09 0.495,-0.549 5.796,1.197 -0.612,1.071 0.36,0.063 0.99,-0.873 12.753,2.736 c 0,0 0.423,0.378 1.998,0.774 0.684,0.171 1.332,0.324 1.809,0.324 0.612,0 0.936,-0.189 0.936,-0.189 l 8.298,1.836 -1.341,1.692 c 0,0 -0.846,-0.27 -1.593,-0.45 -0.249,-0.06 -0.548,-0.08 -0.836,-0.08 -0.576,0 -1.108,0.08 -1.108,0.08 l -0.072,0.495 c 0,0 0.423,0.378 0.756,0.648 0.324,0.279 1.332,1.116 1.332,1.116 l -3.915,4.815 0.099,0.189 0.423,0.378 1.053,0.45 0.036,0.315 0.333,0.171 -0.063,0.126 -0.306,-0.036 -0.819,-0.369 -0.441,0.477 -0.648,-0.306 -0.414,-0.009 0.072,0.036 c 0.189,0.099 0.711,0.369 0.711,0.369 l -9.171,9.117 -1.332,1.431 -0.792,-0.09 0.198,0.18 c 0,0 0.279,0.108 1.377,0.288 1.098,0.18 7.497,0.558 7.497,0.558 l 0.414,-0.09 0.288,-0.333 0.423,-0.054 -0.171,-0.252 0.117,-0.27 1.044,-0.063 0.882,-0.558 c 0,0 11.403,-6.021 20.124,-10.395 5.346,-2.673 9.72,-4.563 9.72,-4.563 l 10.791,2.277 -0.558,1.017 0.243,0.009 0.999,-0.828 c 0,0 26.136,5.535 30.501,6.426 1.908,0.387 4.239,0.927 6.498,1.251 2.925,0.414 5.814,0.567 8.424,0.585 0.263,0.002 0.519,0.003 0.768,0.003 4.155,0 6.478,-0.277 8.745,-0.651 2.403,-0.396 4.446,-2.187 4.446,-2.187 0,0 1.143,-0.216 2.295,-0.738 1.233,-0.558 2.484,-1.206 2.52,-2.304 0.063,-1.665 -2.232,-3.204 -4.455,-4.842 -0.954,-0.702 -2.367,-1.62 -4.005,-2.448 -2.196,-1.098 -4.797,-2.106 -7.254,-2.988 -4.302,-1.548 -9.288,-2.565 -13.887,-3.564 -4.599,-0.999 -14.697,-3.285 -14.697,-3.285 l -0.27,-0.216 -0.828,-0.135 c 0,0 -0.576,-0.531 -1.629,-0.999 -1.116,-0.495 -2.736,-0.936 -4.437,-1.368 -3.33,-0.855 -7.533,-1.395 -7.533,-1.395 l -0.207,-0.036 -0.342,-0.225 c 0,0 0.207,-0.927 0.441,-2.439 0.225,-1.512 0.495,-2.097 0.054,-3.321 -0.441,-1.233 -3.978,-2.088 -6.651,-2.772 -2.501,-0.648 -5.798,-1.013 -6.389,-1.013 -0.04,0 -0.068,0.002 -0.082,0.005 -0.207,0.063 -0.387,0.234 -0.675,0.603 -0.297,0.369 -0.45,0.882 -0.45,0.882 l -3.114,-0.081 -0.216,0.234 -0.414,0.018 -0.081,0.207 -1.008,0.135 -3.411,0.603 0.027,0.171 2.556,1.926 c 0,0 -9.504,-2.187 -14.94,-3.285 -6.489,-1.314 -14.463,-1.926 -14.463,-1.926 l -0.351,-0.045 c 0,0 -2.331,-0.612 -4.284,-0.99 -1.962,-0.387 -6.939,-1.611 -6.939,-1.611 l -0.63,-1.512 -0.243,-0.009 0.09,1.287 -3.879,-0.837 -0.324,-0.639 -0.999,-0.243 0.189,0.594 c 0,0 -1.305,-0.261 -3.384,-0.468 -2.385,-0.234 -5.805,-0.423 -9.594,-0.603 -7.083,-0.333 -18.54,-0.378 -24.363,-0.414 -1.003,-0.008 -2.294,-0.011 -3.746,-0.011"
         inkscape:connector-curvature="0" />
    </clipPath>
    <clipPath
       id="clipPath3522-5"
       clipPathUnits="userSpaceOnUse">
      <path
         id="path3524-6"
         d="m 511.138,159.654 c -1.098,-0.18 -1.377,-0.288 -1.377,-0.288 l -0.198,-0.18 0.792,0.09 1.332,-1.431 9.171,-9.117 c 0,0 -0.522,-0.27 -0.711,-0.369 l -0.072,-0.036 0.414,0.009 0.648,0.306 0.441,-0.477 0.819,0.369 0.306,0.036 0.063,-0.126 -0.333,-0.171 -0.036,-0.315 -1.053,-0.45 -0.423,-0.378 -0.099,-0.189 3.915,-4.815 c 0,0 -1.008,-0.837 -1.332,-1.116 -0.333,-0.27 -0.756,-0.648 -0.756,-0.648 l 0.072,-0.495 c 0,0 1.197,-0.18 1.944,0 0.747,0.18 1.593,0.45 1.593,0.45 l 1.341,-1.692 -8.298,-1.836 c 0,0 -0.324,0.189 -0.936,0.189 -0.477,0 -1.125,-0.153 -1.809,-0.324 -1.575,-0.396 -1.998,-0.774 -1.998,-0.774 l -12.753,-2.736 -0.99,0.873 -0.36,-0.063 0.612,-1.071 -5.796,-1.197 -0.495,0.549 -0.432,-0.09 0.405,-0.612 c 0,0 -9.297,-2.007 -11.943,-2.646 -2.655,-0.648 -2.934,-0.765 -2.934,-0.765 0,0 -2.124,-0.207 -3.366,0.504 -1.251,0.702 -11.034,6.957 -11.034,6.957 l -12.357,8.136 -9.576,6.345 c 0,0 -1.485,0.126 -4.527,-0.531 -2.016,-0.432 -3.42,-1.062 -3.42,-1.062 l 15.912,-26.208 -10.737,1.197 c 0,0 -0.486,0.045 -1.188,-0.036 -0.855,-0.09 -2.079,-0.333 -3.609,-0.657 -2.808,-0.603 -3.924,-1.107 -3.924,-1.107 l 13.185,-4.428 -4.266,-1.449 -0.657,-0.063 -0.027,-0.207 0.486,0.018 0.477,-3.438 -0.27,-0.189 0.009,-0.243 1.377,0.054 0.36,-0.198 c 0,0 15.543,-0.108 21.357,-0.063 5.823,0.036 17.28,0.081 24.363,0.414 3.789,0.18 7.209,0.369 9.594,0.603 2.079,0.207 3.384,0.468 3.384,0.468 l -0.189,-0.594 0.999,0.243 0.324,0.639 3.879,0.837 -0.09,-1.287 0.243,0.009 0.63,1.512 c 0,0 4.977,1.224 6.939,1.611 1.953,0.378 4.284,0.99 4.284,0.99 l 0.351,0.045 c 0,0 7.974,0.612 14.463,1.926 5.436,1.098 14.94,3.285 14.94,3.285 l -2.556,-1.926 -0.027,-0.171 3.411,-0.603 1.008,-0.135 0.081,-0.207 0.414,-0.018 0.216,-0.234 3.114,0.081 c 0,0 0.153,-0.513 0.45,-0.882 0.288,-0.369 0.468,-0.54 0.675,-0.603 0.216,-0.054 3.798,0.315 6.471,1.008 2.673,0.684 6.21,1.539 6.651,2.772 0.441,1.224 0.171,1.809 -0.054,3.321 -0.234,1.512 -0.441,2.439 -0.441,2.439 l 0.342,0.225 0.207,0.036 c 0,0 4.203,0.54 7.533,1.395 1.701,0.432 3.321,0.873 4.437,1.368 1.053,0.468 1.629,0.999 1.629,0.999 l 0.828,0.135 0.27,0.216 c 0,0 10.098,2.286 14.697,3.285 4.599,0.999 9.585,2.016 13.887,3.564 2.457,0.882 5.058,1.89 7.254,2.988 1.638,0.828 3.051,1.746 4.005,2.448 2.223,1.638 4.518,3.177 4.455,4.842 -0.036,1.098 -1.287,1.746 -2.52,2.304 -1.152,0.522 -2.295,0.738 -2.295,0.738 0,0 -2.043,1.791 -4.446,2.187 -2.403,0.396 -4.869,0.684 -9.513,0.648 -2.61,-0.018 -5.499,-0.171 -8.424,-0.585 -2.259,-0.324 -4.59,-0.864 -6.498,-1.251 -4.365,-0.891 -30.501,-6.426 -30.501,-6.426 l -0.999,0.828 -0.243,-0.009 0.558,-1.017 -10.791,-2.277 c 0,0 -4.374,1.89 -9.72,4.563 -8.721,4.374 -20.124,10.395 -20.124,10.395 l -0.882,0.558 -1.044,0.063 -0.117,0.27 0.171,0.252 -0.423,0.054 -0.288,0.333 -0.414,0.09 c 0,0 -6.399,-0.378 -7.497,-0.558"
         inkscape:connector-curvature="0" />
    </clipPath>
    <clipPath
       id="clipPath3514-4"
       clipPathUnits="userSpaceOnUse">
      <path
         id="path3516-4"
         d="m 431.829,111.242 h 195.576 v 49.116 H 431.829 Z"
         inkscape:connector-curvature="0" />
    </clipPath>
    <clipPath
       id="clipPath3500-7"
       clipPathUnits="userSpaceOnUse">
      <path
         id="path3502-7"
         d="M 425.197,63.46 H 614.841 V 28.464 H 425.197 Z"
         inkscape:connector-curvature="0" />
    </clipPath>
    <clipPath
       id="clipPath3492-8"
       clipPathUnits="userSpaceOnUse">
      <path
         id="path3494-6"
         d="M 646.3,28.677 H 425.242 V 271.029 H 646.3 V 28.677 m -203.94,83.034 0.36,-0.198 c 0,0 10.645,-0.074 17.611,-0.074 1.452,0 2.743,0.003 3.746,0.011 5.823,0.036 17.28,0.081 24.363,0.414 3.789,0.18 7.209,0.369 9.594,0.603 2.079,0.207 3.384,0.468 3.384,0.468 l -0.189,-0.594 0.999,0.243 0.324,0.639 3.879,0.837 -0.09,-1.287 0.243,0.009 0.63,1.512 c 0,0 4.977,1.224 6.939,1.611 1.953,0.378 4.284,0.99 4.284,0.99 l 0.351,0.045 c 0,0 7.974,0.612 14.463,1.926 5.436,1.098 14.94,3.285 14.94,3.285 l -2.556,-1.926 -0.027,-0.171 3.411,-0.603 1.008,-0.135 0.081,-0.207 0.414,-0.018 0.216,-0.234 3.114,0.081 c 0,0 0.153,-0.513 0.45,-0.882 0.288,-0.369 0.468,-0.54 0.675,-0.603 0.014,-0.003 0.042,-0.005 0.082,-0.005 0.591,0 3.888,0.365 6.389,1.013 2.673,0.684 6.21,1.539 6.651,2.772 0.441,1.224 0.171,1.809 -0.054,3.321 -0.234,1.512 -0.441,2.439 -0.441,2.439 l 0.342,0.225 0.207,0.036 c 0,0 4.203,0.54 7.533,1.395 1.701,0.432 3.321,0.873 4.437,1.368 1.053,0.468 1.629,0.999 1.629,0.999 l 0.828,0.135 0.27,0.216 c 0,0 10.098,2.286 14.697,3.285 4.599,0.999 9.585,2.016 13.887,3.564 2.457,0.882 5.058,1.89 7.254,2.988 1.638,0.828 3.051,1.746 4.005,2.448 2.223,1.638 4.518,3.177 4.455,4.842 -0.036,1.098 -1.287,1.746 -2.52,2.304 -1.152,0.522 -2.295,0.738 -2.295,0.738 0,0 -2.043,1.791 -4.446,2.187 -2.267,0.374 -4.59,0.651 -8.745,0.651 -0.249,0 -0.505,-0.001 -0.768,-0.003 -2.61,-0.018 -5.499,-0.171 -8.424,-0.585 -2.259,-0.324 -4.59,-0.864 -6.498,-1.251 -4.365,-0.891 -30.501,-6.426 -30.501,-6.426 l -0.999,0.828 -0.243,-0.009 0.558,-1.017 -10.791,-2.277 c 0,0 -4.374,1.89 -9.72,4.563 -8.721,4.374 -20.124,10.395 -20.124,10.395 l -0.882,0.558 -1.044,0.063 -0.117,0.27 0.171,0.252 -0.423,0.054 -0.288,0.333 -0.414,0.09 c 0,0 -6.399,-0.378 -7.497,-0.558 -1.098,-0.18 -1.377,-0.288 -1.377,-0.288 l -0.198,-0.18 0.792,0.09 1.332,-1.431 9.171,-9.117 c 0,0 -0.522,-0.27 -0.711,-0.369 l -0.072,-0.036 0.414,0.009 0.648,0.306 0.441,-0.477 0.819,0.369 0.306,0.036 0.063,-0.126 -0.333,-0.171 -0.036,-0.315 -1.053,-0.45 -0.423,-0.378 -0.099,-0.189 3.915,-4.815 c 0,0 -1.008,-0.837 -1.332,-1.116 -0.333,-0.27 -0.756,-0.648 -0.756,-0.648 l 0.072,-0.495 c 0,0 0.532,-0.08 1.108,-0.08 0.288,0 0.587,0.02 0.836,0.08 0.747,0.18 1.593,0.45 1.593,0.45 l 1.341,-1.692 -8.298,-1.836 c 0,0 -0.324,0.189 -0.936,0.189 -0.477,0 -1.125,-0.153 -1.809,-0.324 -1.575,-0.396 -1.998,-0.774 -1.998,-0.774 l -12.753,-2.736 -0.99,0.873 -0.36,-0.063 0.612,-1.071 -5.796,-1.197 -0.495,0.549 -0.432,-0.09 0.405,-0.612 c 0,0 -9.297,-2.007 -11.943,-2.646 -2.655,-0.648 -2.934,-0.765 -2.934,-0.765 0,0 -0.288,-0.028 -0.713,-0.028 -0.731,0 -1.868,0.083 -2.653,0.532 -1.251,0.702 -11.034,6.957 -11.034,6.957 l -12.357,8.136 -9.576,6.345 c 0,0 -0.114,0.01 -0.344,0.01 -0.599,0 -1.984,-0.066 -4.183,-0.541 -2.016,-0.432 -3.42,-1.062 -3.42,-1.062 l 15.912,-26.208 -10.737,1.197 c 0,0 -0.135,0.012 -0.365,0.012 -0.207,0 -0.491,-0.01 -0.823,-0.048 -0.855,-0.09 -2.079,-0.333 -3.609,-0.657 -2.808,-0.603 -3.924,-1.107 -3.924,-1.107 l 13.185,-4.428 -4.266,-1.449 -0.657,-0.063 -0.027,-0.207 0.486,0.018 0.477,-3.438 -0.27,-0.189 0.009,-0.243 1.377,0.054"
         inkscape:connector-curvature="0" />
    </clipPath>
    <clipPath
       id="clipPath3484-1"
       clipPathUnits="userSpaceOnUse">
      <path
         id="path3486-7"
         d="M 424.929,28.442 H 614.865 V 63.488 H 424.929 Z"
         inkscape:connector-curvature="0" />
    </clipPath>
    <clipPath
       id="clipPath3470-7"
       clipPathUnits="userSpaceOnUse">
      <path
         id="path3472-4"
         d="m 614.426,271.16 h 23.369 V 28.464 h -23.369 z"
         inkscape:connector-curvature="0" />
    </clipPath>
    <clipPath
       id="clipPath3462-9"
       clipPathUnits="userSpaceOnUse">
      <path
         id="path3464-2"
         d="M 646.3,28.677 H 425.242 V 271.029 H 646.3 V 28.677 m -203.94,83.034 0.36,-0.198 c 0,0 10.645,-0.074 17.611,-0.074 1.452,0 2.743,0.003 3.746,0.011 5.823,0.036 17.28,0.081 24.363,0.414 3.789,0.18 7.209,0.369 9.594,0.603 2.079,0.207 3.384,0.468 3.384,0.468 l -0.189,-0.594 0.999,0.243 0.324,0.639 3.879,0.837 -0.09,-1.287 0.243,0.009 0.63,1.512 c 0,0 4.977,1.224 6.939,1.611 1.953,0.378 4.284,0.99 4.284,0.99 l 0.351,0.045 c 0,0 7.974,0.612 14.463,1.926 5.436,1.098 14.94,3.285 14.94,3.285 l -2.556,-1.926 -0.027,-0.171 3.411,-0.603 1.008,-0.135 0.081,-0.207 0.414,-0.018 0.216,-0.234 3.114,0.081 c 0,0 0.153,-0.513 0.45,-0.882 0.288,-0.369 0.468,-0.54 0.675,-0.603 0.014,-0.003 0.042,-0.005 0.082,-0.005 0.591,0 3.888,0.365 6.389,1.013 2.673,0.684 6.21,1.539 6.651,2.772 0.441,1.224 0.171,1.809 -0.054,3.321 -0.234,1.512 -0.441,2.439 -0.441,2.439 l 0.342,0.225 0.207,0.036 c 0,0 4.203,0.54 7.533,1.395 1.701,0.432 3.321,0.873 4.437,1.368 1.053,0.468 1.629,0.999 1.629,0.999 l 0.828,0.135 0.27,0.216 c 0,0 10.098,2.286 14.697,3.285 4.599,0.999 9.585,2.016 13.887,3.564 2.457,0.882 5.058,1.89 7.254,2.988 1.638,0.828 3.051,1.746 4.005,2.448 2.223,1.638 4.518,3.177 4.455,4.842 -0.036,1.098 -1.287,1.746 -2.52,2.304 -1.152,0.522 -2.295,0.738 -2.295,0.738 0,0 -2.043,1.791 -4.446,2.187 -2.267,0.374 -4.59,0.651 -8.745,0.651 -0.249,0 -0.505,-0.001 -0.768,-0.003 -2.61,-0.018 -5.499,-0.171 -8.424,-0.585 -2.259,-0.324 -4.59,-0.864 -6.498,-1.251 -4.365,-0.891 -30.501,-6.426 -30.501,-6.426 l -0.999,0.828 -0.243,-0.009 0.558,-1.017 -10.791,-2.277 c 0,0 -4.374,1.89 -9.72,4.563 -8.721,4.374 -20.124,10.395 -20.124,10.395 l -0.882,0.558 -1.044,0.063 -0.117,0.27 0.171,0.252 -0.423,0.054 -0.288,0.333 -0.414,0.09 c 0,0 -6.399,-0.378 -7.497,-0.558 -1.098,-0.18 -1.377,-0.288 -1.377,-0.288 l -0.198,-0.18 0.792,0.09 1.332,-1.431 9.171,-9.117 c 0,0 -0.522,-0.27 -0.711,-0.369 l -0.072,-0.036 0.414,0.009 0.648,0.306 0.441,-0.477 0.819,0.369 0.306,0.036 0.063,-0.126 -0.333,-0.171 -0.036,-0.315 -1.053,-0.45 -0.423,-0.378 -0.099,-0.189 3.915,-4.815 c 0,0 -1.008,-0.837 -1.332,-1.116 -0.333,-0.27 -0.756,-0.648 -0.756,-0.648 l 0.072,-0.495 c 0,0 0.532,-0.08 1.108,-0.08 0.288,0 0.587,0.02 0.836,0.08 0.747,0.18 1.593,0.45 1.593,0.45 l 1.341,-1.692 -8.298,-1.836 c 0,0 -0.324,0.189 -0.936,0.189 -0.477,0 -1.125,-0.153 -1.809,-0.324 -1.575,-0.396 -1.998,-0.774 -1.998,-0.774 l -12.753,-2.736 -0.99,0.873 -0.36,-0.063 0.612,-1.071 -5.796,-1.197 -0.495,0.549 -0.432,-0.09 0.405,-0.612 c 0,0 -9.297,-2.007 -11.943,-2.646 -2.655,-0.648 -2.934,-0.765 -2.934,-0.765 0,0 -0.288,-0.028 -0.713,-0.028 -0.731,0 -1.868,0.083 -2.653,0.532 -1.251,0.702 -11.034,6.957 -11.034,6.957 l -12.357,8.136 -9.576,6.345 c 0,0 -0.114,0.01 -0.344,0.01 -0.599,0 -1.984,-0.066 -4.183,-0.541 -2.016,-0.432 -3.42,-1.062 -3.42,-1.062 l 15.912,-26.208 -10.737,1.197 c 0,0 -0.135,0.012 -0.365,0.012 -0.207,0 -0.491,-0.01 -0.823,-0.048 -0.855,-0.09 -2.079,-0.333 -3.609,-0.657 -2.808,-0.603 -3.924,-1.107 -3.924,-1.107 l 13.185,-4.428 -4.266,-1.449 -0.657,-0.063 -0.027,-0.207 0.486,0.018 0.477,-3.438 -0.27,-0.189 0.009,-0.243 1.377,0.054"
         inkscape:connector-curvature="0" />
    </clipPath>
    <clipPath
       id="clipPath3454-5"
       clipPathUnits="userSpaceOnUse">
      <path
         id="path3456-8"
         d="m 614.409,28.442 h 32.136 v 242.736 h -32.136 z"
         inkscape:connector-curvature="0" />
    </clipPath>
    <clipPath
       id="clipPath3440-0"
       clipPathUnits="userSpaceOnUse">
      <path
         id="path3442-0"
         d="M 425.197,271.16 H 614.841 V 63.046 H 425.197 Z"
         inkscape:connector-curvature="0" />
    </clipPath>
    <clipPath
       id="clipPath3432-7"
       clipPathUnits="userSpaceOnUse">
      <path
         id="path3434-4"
         d="M 646.3,28.677 H 425.242 V 271.029 H 646.3 V 28.677 m -203.94,83.034 0.36,-0.198 c 0,0 10.645,-0.074 17.611,-0.074 1.452,0 2.743,0.003 3.746,0.011 5.823,0.036 17.28,0.081 24.363,0.414 3.789,0.18 7.209,0.369 9.594,0.603 2.079,0.207 3.384,0.468 3.384,0.468 l -0.189,-0.594 0.999,0.243 0.324,0.639 3.879,0.837 -0.09,-1.287 0.243,0.009 0.63,1.512 c 0,0 4.977,1.224 6.939,1.611 1.953,0.378 4.284,0.99 4.284,0.99 l 0.351,0.045 c 0,0 7.974,0.612 14.463,1.926 5.436,1.098 14.94,3.285 14.94,3.285 l -2.556,-1.926 -0.027,-0.171 3.411,-0.603 1.008,-0.135 0.081,-0.207 0.414,-0.018 0.216,-0.234 3.114,0.081 c 0,0 0.153,-0.513 0.45,-0.882 0.288,-0.369 0.468,-0.54 0.675,-0.603 0.014,-0.003 0.042,-0.005 0.082,-0.005 0.591,0 3.888,0.365 6.389,1.013 2.673,0.684 6.21,1.539 6.651,2.772 0.441,1.224 0.171,1.809 -0.054,3.321 -0.234,1.512 -0.441,2.439 -0.441,2.439 l 0.342,0.225 0.207,0.036 c 0,0 4.203,0.54 7.533,1.395 1.701,0.432 3.321,0.873 4.437,1.368 1.053,0.468 1.629,0.999 1.629,0.999 l 0.828,0.135 0.27,0.216 c 0,0 10.098,2.286 14.697,3.285 4.599,0.999 9.585,2.016 13.887,3.564 2.457,0.882 5.058,1.89 7.254,2.988 1.638,0.828 3.051,1.746 4.005,2.448 2.223,1.638 4.518,3.177 4.455,4.842 -0.036,1.098 -1.287,1.746 -2.52,2.304 -1.152,0.522 -2.295,0.738 -2.295,0.738 0,0 -2.043,1.791 -4.446,2.187 -2.267,0.374 -4.59,0.651 -8.745,0.651 -0.249,0 -0.505,-0.001 -0.768,-0.003 -2.61,-0.018 -5.499,-0.171 -8.424,-0.585 -2.259,-0.324 -4.59,-0.864 -6.498,-1.251 -4.365,-0.891 -30.501,-6.426 -30.501,-6.426 l -0.999,0.828 -0.243,-0.009 0.558,-1.017 -10.791,-2.277 c 0,0 -4.374,1.89 -9.72,4.563 -8.721,4.374 -20.124,10.395 -20.124,10.395 l -0.882,0.558 -1.044,0.063 -0.117,0.27 0.171,0.252 -0.423,0.054 -0.288,0.333 -0.414,0.09 c 0,0 -6.399,-0.378 -7.497,-0.558 -1.098,-0.18 -1.377,-0.288 -1.377,-0.288 l -0.198,-0.18 0.792,0.09 1.332,-1.431 9.171,-9.117 c 0,0 -0.522,-0.27 -0.711,-0.369 l -0.072,-0.036 0.414,0.009 0.648,0.306 0.441,-0.477 0.819,0.369 0.306,0.036 0.063,-0.126 -0.333,-0.171 -0.036,-0.315 -1.053,-0.45 -0.423,-0.378 -0.099,-0.189 3.915,-4.815 c 0,0 -1.008,-0.837 -1.332,-1.116 -0.333,-0.27 -0.756,-0.648 -0.756,-0.648 l 0.072,-0.495 c 0,0 0.532,-0.08 1.108,-0.08 0.288,0 0.587,0.02 0.836,0.08 0.747,0.18 1.593,0.45 1.593,0.45 l 1.341,-1.692 -8.298,-1.836 c 0,0 -0.324,0.189 -0.936,0.189 -0.477,0 -1.125,-0.153 -1.809,-0.324 -1.575,-0.396 -1.998,-0.774 -1.998,-0.774 l -12.753,-2.736 -0.99,0.873 -0.36,-0.063 0.612,-1.071 -5.796,-1.197 -0.495,0.549 -0.432,-0.09 0.405,-0.612 c 0,0 -9.297,-2.007 -11.943,-2.646 -2.655,-0.648 -2.934,-0.765 -2.934,-0.765 0,0 -0.288,-0.028 -0.713,-0.028 -0.731,0 -1.868,0.083 -2.653,0.532 -1.251,0.702 -11.034,6.957 -11.034,6.957 l -12.357,8.136 -9.576,6.345 c 0,0 -0.114,0.01 -0.344,0.01 -0.599,0 -1.984,-0.066 -4.183,-0.541 -2.016,-0.432 -3.42,-1.062 -3.42,-1.062 l 15.912,-26.208 -10.737,1.197 c 0,0 -0.135,0.012 -0.365,0.012 -0.207,0 -0.491,-0.01 -0.823,-0.048 -0.855,-0.09 -2.079,-0.333 -3.609,-0.657 -2.808,-0.603 -3.924,-1.107 -3.924,-1.107 l 13.185,-4.428 -4.266,-1.449 -0.657,-0.063 -0.027,-0.207 0.486,0.018 0.477,-3.438 -0.27,-0.189 0.009,-0.243 1.377,0.054"
         inkscape:connector-curvature="0" />
    </clipPath>
    <clipPath
       id="clipPath3424-0"
       clipPathUnits="userSpaceOnUse">
      <path
         id="path3426-5"
         d="M 424.929,63.032 H 614.865 V 271.178 H 424.929 Z"
         inkscape:connector-curvature="0" />
    </clipPath>
    <clipPath
       id="clipPath3280-9"
       clipPathUnits="userSpaceOnUse">
      <path
         id="path3282-7"
         d="M 0.06,515.88 H 849.082 V 484.724 H 0.06 Z"
         inkscape:connector-curvature="0" />
    </clipPath>
    <clipPath
       id="clipPath3272-7"
       clipPathUnits="userSpaceOnUse">
      <path
         style="clip-rule:evenodd"
         id="path3274-6"
         d="m -0.918,515.906 h 850.39 V -0.004 H -0.918 Z"
         inkscape:connector-curvature="0" />
    </clipPath>
    <clipPath
       id="clipPath3264-6"
       clipPathUnits="userSpaceOnUse">
      <path
         id="path3266-3"
         d="m -0.918,515.906 h 850 v -515 h -850 z"
         inkscape:connector-curvature="0" />
    </clipPath>
    <clipPath
       id="clipPath3256-6"
       clipPathUnits="userSpaceOnUse">
      <path
         id="path3258-1"
         d="m -0.903,515.916 h 849.99 V 0.906 H -0.903 Z"
         inkscape:connector-curvature="0" />
    </clipPath>
    <clipPath
       id="clipPath4344-1-0"
       clipPathUnits="userSpaceOnUse">
      <path
         id="path4346-4-0"
         d="M 425.197,481.89 H 637.795 V 0 H 425.197 Z"
         inkscape:connector-curvature="0" />
    </clipPath>
    <clipPath
       id="clipPath4956-3-6"
       clipPathUnits="userSpaceOnUse">
      <path
         id="path4958-4-4"
         d="m -0.685,505.14 h 849.99 V -9.87 H -0.685 Z"
         inkscape:connector-curvature="0" />
    </clipPath>
    <clipPath
       id="clipPath4964-6-2"
       clipPathUnits="userSpaceOnUse">
      <path
         id="path4966-3-3"
         d="m -0.7,505.13 h 850 v -515 h -850 z"
         inkscape:connector-curvature="0" />
    </clipPath>
    <clipPath
       id="clipPath4972-9-9"
       clipPathUnits="userSpaceOnUse">
      <path
         id="path4974-4-2"
         d="M -0.7,471.11 H 849.69 V -10.78 H -0.7 Z"
         inkscape:connector-curvature="0"
         style="clip-rule:evenodd" />
    </clipPath>
    <clipPath
       id="clipPath4980-1-4"
       clipPathUnits="userSpaceOnUse">
      <path
         id="path4982-0-5"
         d="M 0.113,474.803 H 420.236 V 0.204 H 0.113 Z"
         inkscape:connector-curvature="0" />
    </clipPath>
    <clipPath
       id="clipPath4980-5"
       clipPathUnits="userSpaceOnUse">
      <path
         id="path4982-3"
         d="M 0.113,474.803 H 420.236 V 0.204 H 0.113 Z"
         inkscape:connector-curvature="0" />
    </clipPath>
    <clipPath
       id="clipPath4972-5"
       clipPathUnits="userSpaceOnUse">
      <path
         id="path4974-8"
         d="M -0.7,471.11 H 849.69 V -10.78 H -0.7 Z"
         inkscape:connector-curvature="0"
         style="clip-rule:evenodd" />
    </clipPath>
    <clipPath
       id="clipPath4964-0"
       clipPathUnits="userSpaceOnUse">
      <path
         id="path4966-5"
         d="m -0.7,505.13 h 850 v -515 h -850 z"
         inkscape:connector-curvature="0" />
    </clipPath>
    <clipPath
       id="clipPath4956-6"
       clipPathUnits="userSpaceOnUse">
      <path
         id="path4958-0"
         d="m -0.685,505.14 h 849.99 V -9.87 H -0.685 Z"
         inkscape:connector-curvature="0" />
    </clipPath>
    <clipPath
       id="clipPath4812-1"
       clipPathUnits="userSpaceOnUse">
      <path
         id="path4814-4"
         d="M 0.113,474.803 H 420.236 V 0.204 H 0.113 Z"
         inkscape:connector-curvature="0" />
    </clipPath>
    <clipPath
       id="clipPath4804-99"
       clipPathUnits="userSpaceOnUse">
      <path
         id="path4806-1"
         d="M -0.7,505.13 H 849.69 V -10.78 H -0.7 Z"
         inkscape:connector-curvature="0"
         style="clip-rule:evenodd" />
    </clipPath>
    <clipPath
       id="clipPath4796-0"
       clipPathUnits="userSpaceOnUse">
      <path
         id="path4798-8"
         d="m -0.7,505.13 h 850 v -515 h -850 z"
         inkscape:connector-curvature="0" />
    </clipPath>
    <clipPath
       id="clipPath4788-1"
       clipPathUnits="userSpaceOnUse">
      <path
         id="path4790-3"
         d="m -0.685,505.14 h 849.99 V -9.87 H -0.685 Z"
         inkscape:connector-curvature="0" />
    </clipPath>
    <clipPath
       id="clipPath4716-1"
       clipPathUnits="userSpaceOnUse">
      <path
         id="path4718-7"
         d="M 0.113,474.803 H 420.236 V 0.204 H 0.113 Z"
         inkscape:connector-curvature="0" />
    </clipPath>
    <clipPath
       id="clipPath4708-2"
       clipPathUnits="userSpaceOnUse">
      <path
         id="path4710-2"
         d="M -0.7,505.13 H 849.69 V -10.78 H -0.7 Z"
         inkscape:connector-curvature="0"
         style="clip-rule:evenodd" />
    </clipPath>
    <clipPath
       id="clipPath4700-4"
       clipPathUnits="userSpaceOnUse">
      <path
         id="path4702-8"
         d="m -0.7,505.13 h 850 v -515 h -850 z"
         inkscape:connector-curvature="0" />
    </clipPath>
    <clipPath
       id="clipPath4692-2"
       clipPathUnits="userSpaceOnUse">
      <path
         id="path4694-6"
         d="m -0.685,505.14 h 849.99 V -9.87 H -0.685 Z"
         inkscape:connector-curvature="0" />
    </clipPath>
    <clipPath
       id="clipPath4386-8"
       clipPathUnits="userSpaceOnUse">
      <path
         id="path4388-3"
         d="M 637.795,481.89 H 850.393 V 0.95 H 637.795 Z"
         inkscape:connector-curvature="0" />
    </clipPath>
    <clipPath
       id="clipPath4378-15"
       clipPathUnits="userSpaceOnUse">
      <path
         id="path4380-1"
         d="m 416.894,490.39 h 442.2 V -8.5 h -442.2 z"
         inkscape:connector-curvature="0"
         style="clip-rule:evenodd" />
    </clipPath>
    <clipPath
       id="clipPath4370-28"
       clipPathUnits="userSpaceOnUse">
      <path
         id="path4372-1"
         d="m 424.394,482.89 h 427 v -484 h -427 z"
         inkscape:connector-curvature="0" />
    </clipPath>
    <clipPath
       id="clipPath4362-2"
       clipPathUnits="userSpaceOnUse">
      <path
         id="path4364-13"
         d="m 425.394,481.91 h 425.04 V 0.95 h -425.04 z"
         inkscape:connector-curvature="0" />
    </clipPath>
    <clipPath
       id="clipPath4352-0"
       clipPathUnits="userSpaceOnUse">
      <path
         id="path4354-5"
         d="M 637.795,481.89 H 850.393 V 0.95 H 637.795 Z"
         inkscape:connector-curvature="0" />
    </clipPath>
    <clipPath
       id="clipPath4344-4"
       clipPathUnits="userSpaceOnUse">
      <path
         id="path4346-2"
         d="M 425.197,481.89 H 637.795 V 0 H 425.197 Z"
         inkscape:connector-curvature="0" />
    </clipPath>
    <clipPath
       id="clipPath3702-8"
       clipPathUnits="userSpaceOnUse">
      <path
         id="path3704-5"
         d="m 1421.57,-1197.38 h 13.78 v 13.78 h -13.78 z"
         inkscape:connector-curvature="0" />
    </clipPath>
    <clipPath
       id="clipPath3692-5"
       clipPathUnits="userSpaceOnUse">
      <path
         id="path3694-8"
         d="m 438.985,21.063 c -0.693,-0.027 -1.395,-0.153 -2.07,-0.387 -0.729,-0.261 -1.422,-0.639 -2.052,-1.152 -0.585,-0.468 -1.071,-1.017 -1.458,-1.62 -0.423,-0.657 -0.72,-1.377 -0.9,-2.124 -0.072,-0.288 -0.126,-0.585 -0.153,-0.882 -0.027,-0.234 -0.036,-0.459 -0.045,-0.684 0,-0.792 0.126,-1.584 0.396,-2.349 0.252,-0.711 0.639,-1.395 1.143,-2.025 0.477,-0.594 1.035,-1.08 1.638,-1.467 0.693,-0.45 1.458,-0.756 2.241,-0.927 0.243,-0.054 0.504,-0.099 0.756,-0.126 0.297,-0.027 0.603,-0.036 0.9,-0.027 0.765,0.018 1.53,0.162 2.268,0.441 0.666,0.252 1.305,0.612 1.881,1.089 0.63,0.504 1.152,1.107 1.548,1.764 0.369,0.612 0.648,1.269 0.81,1.953 0.072,0.297 0.126,0.603 0.162,0.909 0.027,0.261 0.036,0.513 0.036,0.765 -0.009,0.81 -0.153,1.611 -0.441,2.385 -0.252,0.675 -0.621,1.314 -1.089,1.908 -0.513,0.63 -1.107,1.134 -1.746,1.539 -0.693,0.423 -1.44,0.711 -2.214,0.873 -0.225,0.045 -0.45,0.081 -0.675,0.108 -0.252,0.027 -0.495,0.036 -0.747,0.036 h -0.189"
         inkscape:connector-curvature="0" />
    </clipPath>
    <clipPath
       id="clipPath3684-4"
       clipPathUnits="userSpaceOnUse">
      <path
         id="path3686-7"
         d="m 432.307,21.06 h 13.779 V 7.284 h -13.779 z"
         inkscape:connector-curvature="0" />
    </clipPath>
    <clipPath
       id="clipPath3668-4"
       clipPathUnits="userSpaceOnUse">
      <path
         id="path3670-43"
         d="M 425.197,481.89 H 637.795 V 0 H 425.197 Z"
         inkscape:connector-curvature="0" />
    </clipPath>
    <clipPath
       id="clipPath3530-3"
       clipPathUnits="userSpaceOnUse">
      <path
         id="path3532-6"
         d="m 460.331,111.439 c -6.966,0 -17.611,0.074 -17.611,0.074 l -0.36,0.198 -1.377,-0.054 -0.009,0.243 0.27,0.189 -0.477,3.438 -0.486,-0.018 0.027,0.207 0.657,0.063 4.266,1.449 -13.185,4.428 c 0,0 1.116,0.504 3.924,1.107 1.53,0.324 2.754,0.567 3.609,0.657 0.332,0.038 0.616,0.048 0.823,0.048 0.23,0 0.365,-0.012 0.365,-0.012 l 10.737,-1.197 -15.912,26.208 c 0,0 1.404,0.63 3.42,1.062 2.199,0.475 3.584,0.541 4.183,0.541 0.23,0 0.344,-0.01 0.344,-0.01 l 9.576,-6.345 12.357,-8.136 c 0,0 9.783,-6.255 11.034,-6.957 0.785,-0.449 1.922,-0.532 2.653,-0.532 0.425,0 0.713,0.028 0.713,0.028 0,0 0.279,0.117 2.934,0.765 2.646,0.639 11.943,2.646 11.943,2.646 l -0.405,0.612 0.432,0.09 0.495,-0.549 5.796,1.197 -0.612,1.071 0.36,0.063 0.99,-0.873 12.753,2.736 c 0,0 0.423,0.378 1.998,0.774 0.684,0.171 1.332,0.324 1.809,0.324 0.612,0 0.936,-0.189 0.936,-0.189 l 8.298,1.836 -1.341,1.692 c 0,0 -0.846,-0.27 -1.593,-0.45 -0.249,-0.06 -0.548,-0.08 -0.836,-0.08 -0.576,0 -1.108,0.08 -1.108,0.08 l -0.072,0.495 c 0,0 0.423,0.378 0.756,0.648 0.324,0.279 1.332,1.116 1.332,1.116 l -3.915,4.815 0.099,0.189 0.423,0.378 1.053,0.45 0.036,0.315 0.333,0.171 -0.063,0.126 -0.306,-0.036 -0.819,-0.369 -0.441,0.477 -0.648,-0.306 -0.414,-0.009 0.072,0.036 c 0.189,0.099 0.711,0.369 0.711,0.369 l -9.171,9.117 -1.332,1.431 -0.792,-0.09 0.198,0.18 c 0,0 0.279,0.108 1.377,0.288 1.098,0.18 7.497,0.558 7.497,0.558 l 0.414,-0.09 0.288,-0.333 0.423,-0.054 -0.171,-0.252 0.117,-0.27 1.044,-0.063 0.882,-0.558 c 0,0 11.403,-6.021 20.124,-10.395 5.346,-2.673 9.72,-4.563 9.72,-4.563 l 10.791,2.277 -0.558,1.017 0.243,0.009 0.999,-0.828 c 0,0 26.136,5.535 30.501,6.426 1.908,0.387 4.239,0.927 6.498,1.251 2.925,0.414 5.814,0.567 8.424,0.585 0.263,0.002 0.519,0.003 0.768,0.003 4.155,0 6.478,-0.277 8.745,-0.651 2.403,-0.396 4.446,-2.187 4.446,-2.187 0,0 1.143,-0.216 2.295,-0.738 1.233,-0.558 2.484,-1.206 2.52,-2.304 0.063,-1.665 -2.232,-3.204 -4.455,-4.842 -0.954,-0.702 -2.367,-1.62 -4.005,-2.448 -2.196,-1.098 -4.797,-2.106 -7.254,-2.988 -4.302,-1.548 -9.288,-2.565 -13.887,-3.564 -4.599,-0.999 -14.697,-3.285 -14.697,-3.285 l -0.27,-0.216 -0.828,-0.135 c 0,0 -0.576,-0.531 -1.629,-0.999 -1.116,-0.495 -2.736,-0.936 -4.437,-1.368 -3.33,-0.855 -7.533,-1.395 -7.533,-1.395 l -0.207,-0.036 -0.342,-0.225 c 0,0 0.207,-0.927 0.441,-2.439 0.225,-1.512 0.495,-2.097 0.054,-3.321 -0.441,-1.233 -3.978,-2.088 -6.651,-2.772 -2.501,-0.648 -5.798,-1.013 -6.389,-1.013 -0.04,0 -0.068,0.002 -0.082,0.005 -0.207,0.063 -0.387,0.234 -0.675,0.603 -0.297,0.369 -0.45,0.882 -0.45,0.882 l -3.114,-0.081 -0.216,0.234 -0.414,0.018 -0.081,0.207 -1.008,0.135 -3.411,0.603 0.027,0.171 2.556,1.926 c 0,0 -9.504,-2.187 -14.94,-3.285 -6.489,-1.314 -14.463,-1.926 -14.463,-1.926 l -0.351,-0.045 c 0,0 -2.331,-0.612 -4.284,-0.99 -1.962,-0.387 -6.939,-1.611 -6.939,-1.611 l -0.63,-1.512 -0.243,-0.009 0.09,1.287 -3.879,-0.837 -0.324,-0.639 -0.999,-0.243 0.189,0.594 c 0,0 -1.305,-0.261 -3.384,-0.468 -2.385,-0.234 -5.805,-0.423 -9.594,-0.603 -7.083,-0.333 -18.54,-0.378 -24.363,-0.414 -1.003,-0.008 -2.294,-0.011 -3.746,-0.011"
         inkscape:connector-curvature="0" />
    </clipPath>
    <clipPath
       id="clipPath3522-2"
       clipPathUnits="userSpaceOnUse">
      <path
         id="path3524-9"
         d="m 511.138,159.654 c -1.098,-0.18 -1.377,-0.288 -1.377,-0.288 l -0.198,-0.18 0.792,0.09 1.332,-1.431 9.171,-9.117 c 0,0 -0.522,-0.27 -0.711,-0.369 l -0.072,-0.036 0.414,0.009 0.648,0.306 0.441,-0.477 0.819,0.369 0.306,0.036 0.063,-0.126 -0.333,-0.171 -0.036,-0.315 -1.053,-0.45 -0.423,-0.378 -0.099,-0.189 3.915,-4.815 c 0,0 -1.008,-0.837 -1.332,-1.116 -0.333,-0.27 -0.756,-0.648 -0.756,-0.648 l 0.072,-0.495 c 0,0 1.197,-0.18 1.944,0 0.747,0.18 1.593,0.45 1.593,0.45 l 1.341,-1.692 -8.298,-1.836 c 0,0 -0.324,0.189 -0.936,0.189 -0.477,0 -1.125,-0.153 -1.809,-0.324 -1.575,-0.396 -1.998,-0.774 -1.998,-0.774 l -12.753,-2.736 -0.99,0.873 -0.36,-0.063 0.612,-1.071 -5.796,-1.197 -0.495,0.549 -0.432,-0.09 0.405,-0.612 c 0,0 -9.297,-2.007 -11.943,-2.646 -2.655,-0.648 -2.934,-0.765 -2.934,-0.765 0,0 -2.124,-0.207 -3.366,0.504 -1.251,0.702 -11.034,6.957 -11.034,6.957 l -12.357,8.136 -9.576,6.345 c 0,0 -1.485,0.126 -4.527,-0.531 -2.016,-0.432 -3.42,-1.062 -3.42,-1.062 l 15.912,-26.208 -10.737,1.197 c 0,0 -0.486,0.045 -1.188,-0.036 -0.855,-0.09 -2.079,-0.333 -3.609,-0.657 -2.808,-0.603 -3.924,-1.107 -3.924,-1.107 l 13.185,-4.428 -4.266,-1.449 -0.657,-0.063 -0.027,-0.207 0.486,0.018 0.477,-3.438 -0.27,-0.189 0.009,-0.243 1.377,0.054 0.36,-0.198 c 0,0 15.543,-0.108 21.357,-0.063 5.823,0.036 17.28,0.081 24.363,0.414 3.789,0.18 7.209,0.369 9.594,0.603 2.079,0.207 3.384,0.468 3.384,0.468 l -0.189,-0.594 0.999,0.243 0.324,0.639 3.879,0.837 -0.09,-1.287 0.243,0.009 0.63,1.512 c 0,0 4.977,1.224 6.939,1.611 1.953,0.378 4.284,0.99 4.284,0.99 l 0.351,0.045 c 0,0 7.974,0.612 14.463,1.926 5.436,1.098 14.94,3.285 14.94,3.285 l -2.556,-1.926 -0.027,-0.171 3.411,-0.603 1.008,-0.135 0.081,-0.207 0.414,-0.018 0.216,-0.234 3.114,0.081 c 0,0 0.153,-0.513 0.45,-0.882 0.288,-0.369 0.468,-0.54 0.675,-0.603 0.216,-0.054 3.798,0.315 6.471,1.008 2.673,0.684 6.21,1.539 6.651,2.772 0.441,1.224 0.171,1.809 -0.054,3.321 -0.234,1.512 -0.441,2.439 -0.441,2.439 l 0.342,0.225 0.207,0.036 c 0,0 4.203,0.54 7.533,1.395 1.701,0.432 3.321,0.873 4.437,1.368 1.053,0.468 1.629,0.999 1.629,0.999 l 0.828,0.135 0.27,0.216 c 0,0 10.098,2.286 14.697,3.285 4.599,0.999 9.585,2.016 13.887,3.564 2.457,0.882 5.058,1.89 7.254,2.988 1.638,0.828 3.051,1.746 4.005,2.448 2.223,1.638 4.518,3.177 4.455,4.842 -0.036,1.098 -1.287,1.746 -2.52,2.304 -1.152,0.522 -2.295,0.738 -2.295,0.738 0,0 -2.043,1.791 -4.446,2.187 -2.403,0.396 -4.869,0.684 -9.513,0.648 -2.61,-0.018 -5.499,-0.171 -8.424,-0.585 -2.259,-0.324 -4.59,-0.864 -6.498,-1.251 -4.365,-0.891 -30.501,-6.426 -30.501,-6.426 l -0.999,0.828 -0.243,-0.009 0.558,-1.017 -10.791,-2.277 c 0,0 -4.374,1.89 -9.72,4.563 -8.721,4.374 -20.124,10.395 -20.124,10.395 l -0.882,0.558 -1.044,0.063 -0.117,0.27 0.171,0.252 -0.423,0.054 -0.288,0.333 -0.414,0.09 c 0,0 -6.399,-0.378 -7.497,-0.558"
         inkscape:connector-curvature="0" />
    </clipPath>
    <clipPath
       id="clipPath3514-40"
       clipPathUnits="userSpaceOnUse">
      <path
         id="path3516-1"
         d="m 431.829,111.242 h 195.576 v 49.116 H 431.829 Z"
         inkscape:connector-curvature="0" />
    </clipPath>
    <clipPath
       id="clipPath3500-78"
       clipPathUnits="userSpaceOnUse">
      <path
         id="path3502-8"
         d="M 425.197,63.46 H 614.841 V 28.464 H 425.197 Z"
         inkscape:connector-curvature="0" />
    </clipPath>
    <clipPath
       id="clipPath3492-5"
       clipPathUnits="userSpaceOnUse">
      <path
         id="path3494-3"
         d="M 646.3,28.677 H 425.242 V 271.029 H 646.3 V 28.677 m -203.94,83.034 0.36,-0.198 c 0,0 10.645,-0.074 17.611,-0.074 1.452,0 2.743,0.003 3.746,0.011 5.823,0.036 17.28,0.081 24.363,0.414 3.789,0.18 7.209,0.369 9.594,0.603 2.079,0.207 3.384,0.468 3.384,0.468 l -0.189,-0.594 0.999,0.243 0.324,0.639 3.879,0.837 -0.09,-1.287 0.243,0.009 0.63,1.512 c 0,0 4.977,1.224 6.939,1.611 1.953,0.378 4.284,0.99 4.284,0.99 l 0.351,0.045 c 0,0 7.974,0.612 14.463,1.926 5.436,1.098 14.94,3.285 14.94,3.285 l -2.556,-1.926 -0.027,-0.171 3.411,-0.603 1.008,-0.135 0.081,-0.207 0.414,-0.018 0.216,-0.234 3.114,0.081 c 0,0 0.153,-0.513 0.45,-0.882 0.288,-0.369 0.468,-0.54 0.675,-0.603 0.014,-0.003 0.042,-0.005 0.082,-0.005 0.591,0 3.888,0.365 6.389,1.013 2.673,0.684 6.21,1.539 6.651,2.772 0.441,1.224 0.171,1.809 -0.054,3.321 -0.234,1.512 -0.441,2.439 -0.441,2.439 l 0.342,0.225 0.207,0.036 c 0,0 4.203,0.54 7.533,1.395 1.701,0.432 3.321,0.873 4.437,1.368 1.053,0.468 1.629,0.999 1.629,0.999 l 0.828,0.135 0.27,0.216 c 0,0 10.098,2.286 14.697,3.285 4.599,0.999 9.585,2.016 13.887,3.564 2.457,0.882 5.058,1.89 7.254,2.988 1.638,0.828 3.051,1.746 4.005,2.448 2.223,1.638 4.518,3.177 4.455,4.842 -0.036,1.098 -1.287,1.746 -2.52,2.304 -1.152,0.522 -2.295,0.738 -2.295,0.738 0,0 -2.043,1.791 -4.446,2.187 -2.267,0.374 -4.59,0.651 -8.745,0.651 -0.249,0 -0.505,-0.001 -0.768,-0.003 -2.61,-0.018 -5.499,-0.171 -8.424,-0.585 -2.259,-0.324 -4.59,-0.864 -6.498,-1.251 -4.365,-0.891 -30.501,-6.426 -30.501,-6.426 l -0.999,0.828 -0.243,-0.009 0.558,-1.017 -10.791,-2.277 c 0,0 -4.374,1.89 -9.72,4.563 -8.721,4.374 -20.124,10.395 -20.124,10.395 l -0.882,0.558 -1.044,0.063 -0.117,0.27 0.171,0.252 -0.423,0.054 -0.288,0.333 -0.414,0.09 c 0,0 -6.399,-0.378 -7.497,-0.558 -1.098,-0.18 -1.377,-0.288 -1.377,-0.288 l -0.198,-0.18 0.792,0.09 1.332,-1.431 9.171,-9.117 c 0,0 -0.522,-0.27 -0.711,-0.369 l -0.072,-0.036 0.414,0.009 0.648,0.306 0.441,-0.477 0.819,0.369 0.306,0.036 0.063,-0.126 -0.333,-0.171 -0.036,-0.315 -1.053,-0.45 -0.423,-0.378 -0.099,-0.189 3.915,-4.815 c 0,0 -1.008,-0.837 -1.332,-1.116 -0.333,-0.27 -0.756,-0.648 -0.756,-0.648 l 0.072,-0.495 c 0,0 0.532,-0.08 1.108,-0.08 0.288,0 0.587,0.02 0.836,0.08 0.747,0.18 1.593,0.45 1.593,0.45 l 1.341,-1.692 -8.298,-1.836 c 0,0 -0.324,0.189 -0.936,0.189 -0.477,0 -1.125,-0.153 -1.809,-0.324 -1.575,-0.396 -1.998,-0.774 -1.998,-0.774 l -12.753,-2.736 -0.99,0.873 -0.36,-0.063 0.612,-1.071 -5.796,-1.197 -0.495,0.549 -0.432,-0.09 0.405,-0.612 c 0,0 -9.297,-2.007 -11.943,-2.646 -2.655,-0.648 -2.934,-0.765 -2.934,-0.765 0,0 -0.288,-0.028 -0.713,-0.028 -0.731,0 -1.868,0.083 -2.653,0.532 -1.251,0.702 -11.034,6.957 -11.034,6.957 l -12.357,8.136 -9.576,6.345 c 0,0 -0.114,0.01 -0.344,0.01 -0.599,0 -1.984,-0.066 -4.183,-0.541 -2.016,-0.432 -3.42,-1.062 -3.42,-1.062 l 15.912,-26.208 -10.737,1.197 c 0,0 -0.135,0.012 -0.365,0.012 -0.207,0 -0.491,-0.01 -0.823,-0.048 -0.855,-0.09 -2.079,-0.333 -3.609,-0.657 -2.808,-0.603 -3.924,-1.107 -3.924,-1.107 l 13.185,-4.428 -4.266,-1.449 -0.657,-0.063 -0.027,-0.207 0.486,0.018 0.477,-3.438 -0.27,-0.189 0.009,-0.243 1.377,0.054"
         inkscape:connector-curvature="0" />
    </clipPath>
    <clipPath
       id="clipPath3484-5"
       clipPathUnits="userSpaceOnUse">
      <path
         id="path3486-9"
         d="M 424.929,28.442 H 614.865 V 63.488 H 424.929 Z"
         inkscape:connector-curvature="0" />
    </clipPath>
    <clipPath
       id="clipPath3470-5"
       clipPathUnits="userSpaceOnUse">
      <path
         id="path3472-0"
         d="m 614.426,271.16 h 23.369 V 28.464 h -23.369 z"
         inkscape:connector-curvature="0" />
    </clipPath>
    <clipPath
       id="clipPath3462-93"
       clipPathUnits="userSpaceOnUse">
      <path
         id="path3464-8"
         d="M 646.3,28.677 H 425.242 V 271.029 H 646.3 V 28.677 m -203.94,83.034 0.36,-0.198 c 0,0 10.645,-0.074 17.611,-0.074 1.452,0 2.743,0.003 3.746,0.011 5.823,0.036 17.28,0.081 24.363,0.414 3.789,0.18 7.209,0.369 9.594,0.603 2.079,0.207 3.384,0.468 3.384,0.468 l -0.189,-0.594 0.999,0.243 0.324,0.639 3.879,0.837 -0.09,-1.287 0.243,0.009 0.63,1.512 c 0,0 4.977,1.224 6.939,1.611 1.953,0.378 4.284,0.99 4.284,0.99 l 0.351,0.045 c 0,0 7.974,0.612 14.463,1.926 5.436,1.098 14.94,3.285 14.94,3.285 l -2.556,-1.926 -0.027,-0.171 3.411,-0.603 1.008,-0.135 0.081,-0.207 0.414,-0.018 0.216,-0.234 3.114,0.081 c 0,0 0.153,-0.513 0.45,-0.882 0.288,-0.369 0.468,-0.54 0.675,-0.603 0.014,-0.003 0.042,-0.005 0.082,-0.005 0.591,0 3.888,0.365 6.389,1.013 2.673,0.684 6.21,1.539 6.651,2.772 0.441,1.224 0.171,1.809 -0.054,3.321 -0.234,1.512 -0.441,2.439 -0.441,2.439 l 0.342,0.225 0.207,0.036 c 0,0 4.203,0.54 7.533,1.395 1.701,0.432 3.321,0.873 4.437,1.368 1.053,0.468 1.629,0.999 1.629,0.999 l 0.828,0.135 0.27,0.216 c 0,0 10.098,2.286 14.697,3.285 4.599,0.999 9.585,2.016 13.887,3.564 2.457,0.882 5.058,1.89 7.254,2.988 1.638,0.828 3.051,1.746 4.005,2.448 2.223,1.638 4.518,3.177 4.455,4.842 -0.036,1.098 -1.287,1.746 -2.52,2.304 -1.152,0.522 -2.295,0.738 -2.295,0.738 0,0 -2.043,1.791 -4.446,2.187 -2.267,0.374 -4.59,0.651 -8.745,0.651 -0.249,0 -0.505,-0.001 -0.768,-0.003 -2.61,-0.018 -5.499,-0.171 -8.424,-0.585 -2.259,-0.324 -4.59,-0.864 -6.498,-1.251 -4.365,-0.891 -30.501,-6.426 -30.501,-6.426 l -0.999,0.828 -0.243,-0.009 0.558,-1.017 -10.791,-2.277 c 0,0 -4.374,1.89 -9.72,4.563 -8.721,4.374 -20.124,10.395 -20.124,10.395 l -0.882,0.558 -1.044,0.063 -0.117,0.27 0.171,0.252 -0.423,0.054 -0.288,0.333 -0.414,0.09 c 0,0 -6.399,-0.378 -7.497,-0.558 -1.098,-0.18 -1.377,-0.288 -1.377,-0.288 l -0.198,-0.18 0.792,0.09 1.332,-1.431 9.171,-9.117 c 0,0 -0.522,-0.27 -0.711,-0.369 l -0.072,-0.036 0.414,0.009 0.648,0.306 0.441,-0.477 0.819,0.369 0.306,0.036 0.063,-0.126 -0.333,-0.171 -0.036,-0.315 -1.053,-0.45 -0.423,-0.378 -0.099,-0.189 3.915,-4.815 c 0,0 -1.008,-0.837 -1.332,-1.116 -0.333,-0.27 -0.756,-0.648 -0.756,-0.648 l 0.072,-0.495 c 0,0 0.532,-0.08 1.108,-0.08 0.288,0 0.587,0.02 0.836,0.08 0.747,0.18 1.593,0.45 1.593,0.45 l 1.341,-1.692 -8.298,-1.836 c 0,0 -0.324,0.189 -0.936,0.189 -0.477,0 -1.125,-0.153 -1.809,-0.324 -1.575,-0.396 -1.998,-0.774 -1.998,-0.774 l -12.753,-2.736 -0.99,0.873 -0.36,-0.063 0.612,-1.071 -5.796,-1.197 -0.495,0.549 -0.432,-0.09 0.405,-0.612 c 0,0 -9.297,-2.007 -11.943,-2.646 -2.655,-0.648 -2.934,-0.765 -2.934,-0.765 0,0 -0.288,-0.028 -0.713,-0.028 -0.731,0 -1.868,0.083 -2.653,0.532 -1.251,0.702 -11.034,6.957 -11.034,6.957 l -12.357,8.136 -9.576,6.345 c 0,0 -0.114,0.01 -0.344,0.01 -0.599,0 -1.984,-0.066 -4.183,-0.541 -2.016,-0.432 -3.42,-1.062 -3.42,-1.062 l 15.912,-26.208 -10.737,1.197 c 0,0 -0.135,0.012 -0.365,0.012 -0.207,0 -0.491,-0.01 -0.823,-0.048 -0.855,-0.09 -2.079,-0.333 -3.609,-0.657 -2.808,-0.603 -3.924,-1.107 -3.924,-1.107 l 13.185,-4.428 -4.266,-1.449 -0.657,-0.063 -0.027,-0.207 0.486,0.018 0.477,-3.438 -0.27,-0.189 0.009,-0.243 1.377,0.054"
         inkscape:connector-curvature="0" />
    </clipPath>
    <clipPath
       id="clipPath3454-1"
       clipPathUnits="userSpaceOnUse">
      <path
         id="path3456-3"
         d="m 614.409,28.442 h 32.136 v 242.736 h -32.136 z"
         inkscape:connector-curvature="0" />
    </clipPath>
    <clipPath
       id="clipPath3440-3"
       clipPathUnits="userSpaceOnUse">
      <path
         id="path3442-00"
         d="M 425.197,271.16 H 614.841 V 63.046 H 425.197 Z"
         inkscape:connector-curvature="0" />
    </clipPath>
    <clipPath
       id="clipPath3432-1"
       clipPathUnits="userSpaceOnUse">
      <path
         id="path3434-0"
         d="M 646.3,28.677 H 425.242 V 271.029 H 646.3 V 28.677 m -203.94,83.034 0.36,-0.198 c 0,0 10.645,-0.074 17.611,-0.074 1.452,0 2.743,0.003 3.746,0.011 5.823,0.036 17.28,0.081 24.363,0.414 3.789,0.18 7.209,0.369 9.594,0.603 2.079,0.207 3.384,0.468 3.384,0.468 l -0.189,-0.594 0.999,0.243 0.324,0.639 3.879,0.837 -0.09,-1.287 0.243,0.009 0.63,1.512 c 0,0 4.977,1.224 6.939,1.611 1.953,0.378 4.284,0.99 4.284,0.99 l 0.351,0.045 c 0,0 7.974,0.612 14.463,1.926 5.436,1.098 14.94,3.285 14.94,3.285 l -2.556,-1.926 -0.027,-0.171 3.411,-0.603 1.008,-0.135 0.081,-0.207 0.414,-0.018 0.216,-0.234 3.114,0.081 c 0,0 0.153,-0.513 0.45,-0.882 0.288,-0.369 0.468,-0.54 0.675,-0.603 0.014,-0.003 0.042,-0.005 0.082,-0.005 0.591,0 3.888,0.365 6.389,1.013 2.673,0.684 6.21,1.539 6.651,2.772 0.441,1.224 0.171,1.809 -0.054,3.321 -0.234,1.512 -0.441,2.439 -0.441,2.439 l 0.342,0.225 0.207,0.036 c 0,0 4.203,0.54 7.533,1.395 1.701,0.432 3.321,0.873 4.437,1.368 1.053,0.468 1.629,0.999 1.629,0.999 l 0.828,0.135 0.27,0.216 c 0,0 10.098,2.286 14.697,3.285 4.599,0.999 9.585,2.016 13.887,3.564 2.457,0.882 5.058,1.89 7.254,2.988 1.638,0.828 3.051,1.746 4.005,2.448 2.223,1.638 4.518,3.177 4.455,4.842 -0.036,1.098 -1.287,1.746 -2.52,2.304 -1.152,0.522 -2.295,0.738 -2.295,0.738 0,0 -2.043,1.791 -4.446,2.187 -2.267,0.374 -4.59,0.651 -8.745,0.651 -0.249,0 -0.505,-0.001 -0.768,-0.003 -2.61,-0.018 -5.499,-0.171 -8.424,-0.585 -2.259,-0.324 -4.59,-0.864 -6.498,-1.251 -4.365,-0.891 -30.501,-6.426 -30.501,-6.426 l -0.999,0.828 -0.243,-0.009 0.558,-1.017 -10.791,-2.277 c 0,0 -4.374,1.89 -9.72,4.563 -8.721,4.374 -20.124,10.395 -20.124,10.395 l -0.882,0.558 -1.044,0.063 -0.117,0.27 0.171,0.252 -0.423,0.054 -0.288,0.333 -0.414,0.09 c 0,0 -6.399,-0.378 -7.497,-0.558 -1.098,-0.18 -1.377,-0.288 -1.377,-0.288 l -0.198,-0.18 0.792,0.09 1.332,-1.431 9.171,-9.117 c 0,0 -0.522,-0.27 -0.711,-0.369 l -0.072,-0.036 0.414,0.009 0.648,0.306 0.441,-0.477 0.819,0.369 0.306,0.036 0.063,-0.126 -0.333,-0.171 -0.036,-0.315 -1.053,-0.45 -0.423,-0.378 -0.099,-0.189 3.915,-4.815 c 0,0 -1.008,-0.837 -1.332,-1.116 -0.333,-0.27 -0.756,-0.648 -0.756,-0.648 l 0.072,-0.495 c 0,0 0.532,-0.08 1.108,-0.08 0.288,0 0.587,0.02 0.836,0.08 0.747,0.18 1.593,0.45 1.593,0.45 l 1.341,-1.692 -8.298,-1.836 c 0,0 -0.324,0.189 -0.936,0.189 -0.477,0 -1.125,-0.153 -1.809,-0.324 -1.575,-0.396 -1.998,-0.774 -1.998,-0.774 l -12.753,-2.736 -0.99,0.873 -0.36,-0.063 0.612,-1.071 -5.796,-1.197 -0.495,0.549 -0.432,-0.09 0.405,-0.612 c 0,0 -9.297,-2.007 -11.943,-2.646 -2.655,-0.648 -2.934,-0.765 -2.934,-0.765 0,0 -0.288,-0.028 -0.713,-0.028 -0.731,0 -1.868,0.083 -2.653,0.532 -1.251,0.702 -11.034,6.957 -11.034,6.957 l -12.357,8.136 -9.576,6.345 c 0,0 -0.114,0.01 -0.344,0.01 -0.599,0 -1.984,-0.066 -4.183,-0.541 -2.016,-0.432 -3.42,-1.062 -3.42,-1.062 l 15.912,-26.208 -10.737,1.197 c 0,0 -0.135,0.012 -0.365,0.012 -0.207,0 -0.491,-0.01 -0.823,-0.048 -0.855,-0.09 -2.079,-0.333 -3.609,-0.657 -2.808,-0.603 -3.924,-1.107 -3.924,-1.107 l 13.185,-4.428 -4.266,-1.449 -0.657,-0.063 -0.027,-0.207 0.486,0.018 0.477,-3.438 -0.27,-0.189 0.009,-0.243 1.377,0.054"
         inkscape:connector-curvature="0" />
    </clipPath>
    <clipPath
       id="clipPath3424-9"
       clipPathUnits="userSpaceOnUse">
      <path
         id="path3426-3"
         d="M 424.929,63.032 H 614.865 V 271.178 H 424.929 Z"
         inkscape:connector-curvature="0" />
    </clipPath>
    <clipPath
       id="clipPath3280-5"
       clipPathUnits="userSpaceOnUse">
      <path
         id="path3282-9"
         d="M 0.06,515.88 H 849.082 V 484.724 H 0.06 Z"
         inkscape:connector-curvature="0" />
    </clipPath>
    <clipPath
       id="clipPath3272-4"
       clipPathUnits="userSpaceOnUse">
      <path
         id="path3274-1"
         d="m -0.918,515.906 h 850.39 V -0.004 H -0.918 Z"
         inkscape:connector-curvature="0"
         style="clip-rule:evenodd" />
    </clipPath>
    <clipPath
       id="clipPath3264-4"
       clipPathUnits="userSpaceOnUse">
      <path
         id="path3266-33"
         d="m -0.918,515.906 h 850 v -515 h -850 z"
         inkscape:connector-curvature="0" />
    </clipPath>
    <clipPath
       id="clipPath3256-7"
       clipPathUnits="userSpaceOnUse">
      <path
         id="path3258-9"
         d="m -0.903,515.916 h 849.99 V 0.906 H -0.903 Z"
         inkscape:connector-curvature="0" />
    </clipPath>
  </defs>
  <sodipodi:namedview
     id="base"
     pagecolor="#ffffff"
     bordercolor="#666666"
     borderopacity="1.0"
     inkscape:pageopacity="0.0"
     inkscape:pageshadow="2"
     inkscape:zoom="0.98994949"
     inkscape:cx="96.164634"
     inkscape:cy="16.04458"
     inkscape:document-units="mm"
     inkscape:current-layer="layer1"
     showgrid="false"
     fit-margin-top="0"
     fit-margin-left="0"
     fit-margin-right="0"
     fit-margin-bottom="0"
     inkscape:window-width="1366"
     inkscape:window-height="705"
     inkscape:window-x="-8"
     inkscape:window-y="-8"
     inkscape:window-maximized="1" />
  <metadata
     id="metadata5087">
    <rdf:RDF>
      <cc:Work
         rdf:about="">
        <dc:format>image/svg+xml</dc:format>
        <dc:type
           rdf:resource="http://purl.org/dc/dcmitype/StillImage" />
        <dc:title></dc:title>
      </cc:Work>
    </rdf:RDF>
  </metadata>
  <g
     inkscape:label="Layer 1"
     inkscape:groupmode="layer"
     id="layer1"
     transform="translate(0,-280.22819)">
    <g
       id="g4340"
       transform="matrix(0.33072916,0,0,-0.33072916,172.53913,365.47294)">
      <g
         id="g4342"
         clip-path="url(#clipPath4344)" />
    </g>
    <g
       id="g4952"
       transform="matrix(0.33072916,0,0,-0.33072916,172.53913,365.47294)">
      <g
         id="g4954"
         clip-path="url(#clipPath4956)">
        <g
           id="g4960">
          <g
             id="g4962"
             clip-path="url(#clipPath4964)">
            <g
               id="g4968">
              <g
                 id="g4970"
                 clip-path="url(#clipPath4972)">
                <g
                   id="g4976">
                  <g
                     id="g4978"
                     clip-path="url(#clipPath4980)" />
                </g>
              </g>
            </g>
          </g>
        </g>
      </g>
    </g>
    <g
       id="g4292-0-7"
       transform="matrix(1.0641452,0,0,-1.0641452,-118.48258,248.1233)"
       inkscape:transform-center-x="224.59572"
       inkscape:transform-center-y="-231.25742" />
    <path
       style="fill:#000000;fill-opacity:1;stroke-width:0.33072916"
       id="path4314_5_-6"
       inkscape:connector-curvature="0"
       d="M 16.425665,291.02736 C 14.309659,296.54293 9.089761,297 5.373357,297 3.291417,297 1.489604,296.78966 0,296.45628 l 1.321594,-3.4366 c 3.539794,0.41341 6.569935,0.1012 7.753284,-2.98946 l 3.760059,-9.78727 h 7.734102" />
    <path
       style="fill:#000000;fill-opacity:1;stroke-width:0.33858436"
       id="path4330_6_-6"
       inkscape:connector-curvature="0"
       d="m 35.921951,290.41454 4.260744,-5.31104 0.196379,5.31104 z m 11.027693,-10.14671 h -7.079123 c -0.860682,0 -1.80059,0.50449 -2.428666,1.22974 L 24.061,297 h 6.542127 l 2.746259,-3.39804 h 7.149547 L 40.623872,297 h 7.917455" />
    <g
       transform="matrix(2.1633953,0,0,-2.1799213,59.317226,250.36985)"
       id="g4320-6-1-3-5">
      <path
         id="path4322-1-1-90-1"
         style="fill:#000000;fill-opacity:1;fill-rule:nonzero;stroke:none;stroke-width:1.10847223"
         d="M 8.9514255,-16.148094 C 8.7567418,-16.710395 8.1402433,-17.121261 7.5467719,-17.121261 H 5.7297238 l 0.6667395,1.947508 h 1.8212348 c 0.5945181,0 0.9263178,-0.414389 0.7337274,-0.974341 m -0.2334111,2.451113 H 3.631117 l -2.6324171,-7.693772 h 3.270896 l 0.9545782,2.79272 h 0.9880723 l 0.6478991,-2.79272 h 3.5712955 l -0.8750306,3.072109 c 1.4496616,0.380345 2.3100376,1.128122 2.6638176,2.17055 0.531717,1.541337 -0.476242,2.451113 -3.5022136,2.451113"
         inkscape:connector-curvature="0" />
    </g>
    <path
       style="fill:#000000;stroke:none;stroke-width:0.26458332px;stroke-linecap:butt;stroke-linejoin:miter;stroke-opacity:1"
       d="m 21.92709,286.73727 -1.4,3.5 h 5.8 l 1.4,-3.5 z"
       id="path6223-9"
       inkscape:connector-curvature="0"
       sodipodi:nodetypes="ccccc" />
    <path
       style="fill:#000000;stroke:none;stroke-width:0.26458332px;stroke-linecap:butt;stroke-linejoin:miter;stroke-opacity:1"
       d="m 56.475782,280.30001 -5.7,16.69999 h 7 l 5.7,-16.69999 z"
       id="path6225-5"
       inkscape:connector-curvature="0"
       sodipodi:nodetypes="ccccc" />
  </g>
</svg>
