<?xml version="1.0" encoding="UTF-8" standalone="no"?>
<svg
   version="1.1"
   id="Layer_1"
   width="195.935px"
   height="112.699px"
   viewBox="0 0 195.935 112.699"
   xml:space="preserve"
   xmlns="http://www.w3.org/2000/svg"
   xmlns:svg="http://www.w3.org/2000/svg"><defs
   id="defs30">
		
			<linearGradient
   id="SVGID_1_"
   gradientUnits="userSpaceOnUse"
   x1="138.0625"
   y1="-180.9902"
   x2="138.0625"
   y2="-68.290497"
   gradientTransform="matrix(1,0,0,-1,-57.6001,-68.291)">
			<stop
   offset="0"
   style="stop-color:#7A7C7F"
   id="stop14" />
			<stop
   offset="0.35"
   style="stop-color:#F5F5F5"
   id="stop16" />
			<stop
   offset="1"
   style="stop-color:#7A7C7F"
   id="stop18" />
		</linearGradient>
		
	</defs>
<path
   d="m 107.189,73.131 c 2.505,-4.258 4.328,-7.65 4.328,-7.65 l 8.694,19.924 h -17.53 l -1.307,-3.232 c 0.002,-0.003 4.335,-6.527 5.815,-9.042 z"
   id="path4" /><path
   d="M 92.664,22.29 H 77.137 L 49.588,85.402 h 17.781 l 17.28,-44.581 8.108,20.045 c 3.171,-6.095 5.882,-12.953 7.748,-20.614 z"
   id="path6" /><path
   d="m 168.38791,22.29 h -15.527 l -27.549,63.112 h 17.781 l 17.28,-44.581 18.032,44.584 h 17.53 z"
   id="path249" /><path
   d="m 31.557,22.29 h 16.027 v 41.074 c 0,25.043 -23.792,24.293 -23.792,24.293 C 8.016,87.656 0,76.887 0,76.887 l 12.521,-9.518 c 4.509,6.512 10.521,6.01 10.521,6.01 7.514,0 8.516,-9.266 8.516,-9.266 V 22.29 Z"
   id="path10" /><path
   fill="#e21f2a"
   d="M 117.709,0 C 126.725,80.393 63.111,112.7 63.111,112.7 120.965,65.115 101.931,0 101.931,0 Z"
   id="path12" /><path
   fill="url(#SVGID_1_)"
   d="M 101.932,0 C 112.452,70.125 55.85,99.676 55.85,99.676 l 7.265,13.023 C 121.467,63.613 101.932,0 101.932,0 Z"
   id="path21"
   style="fill:url(#SVGID_1_)" />
</svg>
