<?xml version="1.0"?>
<svg xmlns="http://www.w3.org/2000/svg" width="235.35806" height="63.333752">
<g transform="translate(289.40498,-209.16173)">
 <g transform="translate(-331.31371,-208.71514)">
  <g transform="translate(-30.391908,416.32157)">
   <path transform="matrix(1.25,0,0,-1.25,436.40314,364.42905)" d="m -241.617,257.691 c -6.398,-16.677 -22.181,-18.059 -33.418,-18.059 -6.295,0 -11.743,0.636 -16.247,1.644 l 3.996,10.391 c 10.703,-1.25 19.865,-0.306 23.443,9.039 l 11.369,29.593 23.385,0" />
   <path transform="matrix(1.25,0,0,-1.25,442.10688,363.98781)" d="m -212.632,259.354 12.584,15.686 0.58,-15.686 -13.164,0 z m 32.57,29.968 -20.908,0 c -2.542,0 -5.318,-1.49 -7.173,-3.632 l -39.52,-45.786 19.322,0 8.111,10.036 21.116,0 0.369,-10.036 23.384,0" />
  </g>
  <path d="m 237.25046,467.37078 19.99308,-48.64471 -31.45939,0 -25.2984,61.73844 71.40527,0 5.37578,-13.09373" />
 </g>
</g>
</svg>