<?xml version="1.0" encoding="utf-8"?>
<!-- Generator: Adobe Illustrator 12.0.0, SVG Export Plug-In . SVG Version: 6.00 Build 51448)  -->
<!DOCTYPE svg PUBLIC "-//W3C//DTD SVG 1.1//EN" "http://www.w3.org/Graphics/SVG/1.1/DTD/svg11.dtd" [
	<!ENTITY ns_svg "http://www.w3.org/2000/svg">
	<!ENTITY ns_xlink "http://www.w3.org/1999/xlink">
]>
<svg  version="1.1" id="Layer_1" xmlns="&ns_svg;" xmlns:xlink="&ns_xlink;" width="187.086" height="95.253"
	 viewBox="0 0 187.086 95.253" overflow="visible" enable-background="new 0 0 187.086 95.253" xml:space="preserve">
<polygon fill-rule="evenodd" clip-rule="evenodd" fill="#E81D32" points="67.889,48.433 114.324,48.433 114.324,94.869 
	67.889,94.869 67.889,48.433 "/>
<polygon fill-rule="evenodd" clip-rule="evenodd" fill="#CFCDCD" points="187.086,48.433 114.324,48.433 114.324,94.869 
	187.086,94.869 187.086,48.433 "/>
<path fill-rule="evenodd" clip-rule="evenodd" d="M163.677,53.55l-2.841,13.844h-42.521v-1.178c1.679,0,2.809-0.389,3.39-1.164
	c0.581-0.773,0.871-2.275,0.871-4.52V29.04V9.733c0-2.228-0.347-3.716-0.903-4.536c-0.542-0.796-1.615-1.227-3.357-1.227V2.793
	h23.398v1.178c-1.68,0-2.901,0.359-3.503,1.227c-0.563,0.814-0.759,2.375-0.759,4.536V57.49h16.427c3.6,0,5.709-0.32,6.392-0.857
	c0.674-0.527,1.47-1.678,2.309-3.502L163.677,53.55L163.677,53.55z"/>
<path fill-rule="evenodd" clip-rule="evenodd" d="M86.008,60.113c0.361,0.77,0.646,1.404,0.792,1.922
	c0.145,0.516,0.226,1.082,0.226,1.678c0,0.969-0.241,1.561-0.662,1.842c-0.306,0.203-0.63,0.385-1.049,0.5
	c-0.403,0.109-0.904,0.162-1.517,0.162v1.178h24.896v-1.178c-0.63,0-1.177-0.09-1.615-0.242c-0.433-0.152-0.848-0.396-1.227-0.711
	c-0.38-0.316-0.807-0.961-1.323-1.938c-0.338-0.639-0.693-1.268-1.001-1.938L75.246,0l-27.57,61.759
	c-0.795,1.781-1.518,2.979-2.211,3.504c-0.631,0.477-1.873,0.758-3.6,0.953v1.178h18.967v-1.178
	c-1.227-0.291-2.043-0.592-2.454-0.904c-0.413-0.316-0.63-0.938-0.63-1.889c0-0.662,0.288-2.107,1.244-4.166l13.234-28.516
	L86.008,60.113L86.008,60.113z"/>
<path fill-rule="evenodd" clip-rule="evenodd" d="M38.558,4.656c-1.646,0-2.813,0.344-3.406,1.13
	c-0.602,0.796-0.855,2.341-0.855,4.552v49.27c0,15.799-14.393,34.219-33.93,35.645L0,93.667c6.845,0,17.066-19.459,17.066-30.943
	V10.339c0-2.341-0.252-3.877-0.807-4.552c-0.639-0.777-1.808-1.13-3.455-1.13V3.478h25.753V4.656L38.558,4.656z"/>
</svg>
