<svg width="180" height="23" viewBox="0 0 180 23" fill="none" xmlns="http://www.w3.org/2000/svg">
<path d="M10.4514 14.3066C12.6283 19.6005 10.4825 22.4167 4.04961 22.4167H1.93716V21.9211C6.50414 21.5185 8.37892 19.1979 6.93952 15.7003L0.755432 0.75H6.87732C11.8819 0.75 13.5901 1.89594 15.3316 3.53521L35.1278 22.4167H29.9699L9.17859 2.5751C8.06794 1.52428 7.65478 1.33845 6.84622 1.33845H5.10695L10.4514 14.3066ZM179.95 15.1207V1.05086H177.044V10.0967L170.787 1.05086H167.821V15.1207H170.747V6.09698L177.024 15.1207H179.95ZM157.71 12.6275C155.267 12.6275 153.29 10.7383 153.29 8.08578C153.29 5.43331 155.289 3.54406 157.71 3.54406C160.131 3.54406 162.13 5.43331 162.13 8.08578C162.13 10.7383 160.131 12.6275 157.71 12.6275ZM157.71 15.4216C161.93 15.4216 165.218 12.1253 165.218 8.08578C165.218 4.04624 161.928 0.75 157.71 0.75C153.492 0.75 150.202 4.04624 150.202 8.08578C150.202 12.1253 153.472 15.4216 157.71 15.4216ZM147.492 1.04202H144.451V15.1118H147.499L147.492 1.04202ZM137.967 15.1118V3.82501H142.345V1.05086H130.506V3.82501H134.886V15.1207L137.967 15.1118ZM122.549 9.42418L124.446 4.39798L126.343 9.42418H122.549ZM131.732 15.1118L126.272 1.05086H122.738L117.267 15.1207H120.397L121.525 12.1253H127.383L128.513 15.1207L131.732 15.1118ZM115.37 1.05086H112.324V15.1207H115.37V1.05086ZM96.1179 1.05086L101.587 15.1207H104.959L110.427 1.05086H107.258L103.324 11.4484L99.3943 1.05086H96.1179ZM88.37 9.43303L90.267 4.40683L92.164 9.43303H88.37ZM97.5506 15.1207L92.0818 1.05086H88.5499L83.0811 15.1207H86.2087L87.3393 12.1253H93.1924L94.3231 15.1207H97.5506ZM76.1195 15.1207V3.82501H80.4977V1.05086H68.6516V3.82501H73.032V15.1207H76.1195ZM66.9567 15.1207V12.3466H59.9152V9.33127H66.2503V6.63898H59.9152V3.82501H66.9634V1.05086H56.8476V15.1207H66.9567ZM43.5287 10.1365C43.6287 13.4328 45.6256 15.4216 48.8598 15.4216C52.0074 15.4216 54.2487 13.2314 54.2487 10.1763V1.05086H51.1766V10.1763C51.1766 11.6431 50.2281 12.6275 48.8554 12.6275C47.4826 12.6275 46.6563 11.7426 46.5741 10.1365H43.5287ZM45.8322 18.9147L43.5265 22.4167H44.8593L45.2635 21.753H47.9935L48.4378 22.4167H49.8461L47.5492 18.9147H45.8322ZM45.7611 20.9057L46.6185 19.5385H46.6585L47.5248 20.9057H45.7611ZM52.3028 20.6734C52.3028 21.7353 53.1625 22.4277 54.1909 22.4277H57.374V20.2553H54.9528V21.0252H56.2056V21.5871H54.5241C53.9688 21.5871 53.4868 21.2685 53.4868 20.6734C53.4868 20.0783 53.9688 19.7664 54.5241 19.7664H57.3763V18.9257H54.1865C53.1514 18.9147 52.3028 19.6027 52.3028 20.6734ZM58.3381 22.4277H62.3875V21.5871H59.4998V21.0252H62.3875V20.2553H59.4998V19.7642H62.3875V18.9257H58.3336L58.3381 22.4277ZM67.0011 21.2021H66.9811L64.8687 18.9257H63.2516V22.4277H64.3622V19.9943H64.3756L66.6679 22.4277H68.074V18.9147H67.0122L67.0011 21.2021ZM69.027 22.4277H73.0764V21.5871H70.1887V21.0252H73.0764V20.2553H70.1887V19.7642H73.0764V18.9257H69.027V22.4277ZM78.7496 20.1403C78.7496 19.2797 78.0254 18.9257 77.2524 18.9257H73.9427V22.4277H75.1066V21.3216H76.5638L77.359 22.4277H78.6918C78.3875 22.0295 78.0809 21.6291 77.7833 21.2265C78.3475 21.0849 78.7496 20.7553 78.7496 20.1292V20.1403ZM77.017 20.5429H75.1066V19.7H77.017C77.288 19.7 77.539 19.8173 77.539 20.1204C77.539 20.4234 77.2813 20.5318 77.017 20.5318V20.5429ZM81.344 18.9257L79.0383 22.4277H80.3711L80.7754 21.764H83.5098L83.9541 22.4277H85.3624L83.0655 18.9257H81.344ZM81.273 20.9168L82.1304 19.5496H82.1681L83.0389 20.9168H81.273ZM86.995 18.9257H85.8311V22.4277H89.856V21.5871H86.995V18.9257ZM96.1401 18.9257H92.797V22.4277H96.1401C97.1641 22.4277 98.0215 21.7353 98.0215 20.6778C98.0215 19.6204 97.173 18.9147 96.1401 18.9147V18.9257ZM95.8025 21.5804H93.961V19.7598H95.8025C96.36 19.7598 96.8442 20.0761 96.8442 20.6712C96.8442 21.2663 96.36 21.576 95.8025 21.576V21.5804ZM101.045 20.3106L99.6164 18.9147H98.1193L100.394 21.2044V22.4167H101.553V21.1977L103.837 18.9147H102.446L101.045 20.3106ZM108.077 21.1955H108.057L105.945 18.9191H104.328V22.4211H105.438V19.9876H105.452L107.744 22.4211H109.135V18.9147H108.073L108.077 21.1955ZM111.927 18.9191L109.612 22.4167H110.945L111.352 21.753H114.086L114.53 22.4167H115.938L113.642 18.9147L111.927 18.9191ZM111.856 20.9101L112.713 19.543H112.753L113.622 20.9101H111.856ZM119.63 21.3681H119.599L118.266 18.9081H116.416V22.41H117.527V19.7553H117.562L119.031 22.41H120.157L121.663 19.7553H121.692V22.41H122.789V18.9147H120.941L119.63 21.3681ZM123.753 22.41H124.917V18.9147H123.753V22.41ZM125.688 20.6601C125.688 21.7176 126.547 22.41 127.576 22.41H130.464V21.5694H127.905C127.347 21.5694 126.865 21.2508 126.865 20.6601C126.865 20.0695 127.347 19.7487 127.905 19.7487H130.452V18.9081H127.565C126.536 18.9147 125.683 19.6027 125.683 20.6734L125.688 20.6601ZM134.795 20.1934H132.685C132.538 20.1934 132.387 20.127 132.387 19.9544C132.387 19.7819 132.527 19.7133 132.685 19.7133H135.846V18.9081H132.314C132.033 18.9207 131.768 19.0408 131.573 19.2433C131.379 19.4458 131.27 19.7152 131.27 19.9954C131.27 20.2755 131.379 20.5449 131.573 20.7474C131.768 20.95 132.033 21.0701 132.314 21.0827H134.422C134.604 21.0827 134.788 21.1269 134.788 21.3415C134.788 21.5561 134.602 21.6026 134.422 21.6026H131.285V22.41H134.793C135.087 22.41 135.37 22.2935 135.578 22.086C135.786 21.8786 135.903 21.5973 135.903 21.3039C135.903 21.0105 135.786 20.7292 135.578 20.5218C135.37 20.3143 135.087 20.1978 134.793 20.1978L134.795 20.1934ZM138.711 20.6734C138.711 21.7309 139.569 22.4233 140.595 22.4233H143.483V21.5826H140.933C140.377 21.5826 139.893 21.2641 139.893 20.6734C139.893 20.0827 140.377 19.762 140.933 19.762H143.478V18.9213H140.59C139.571 18.9147 138.711 19.6027 138.711 20.6734ZM147.616 18.9213H145.942C144.909 18.9213 144.053 19.6093 144.053 20.6734C144.053 21.7375 144.913 22.4233 145.942 22.4233H147.616C148.647 22.4233 149.507 21.7397 149.507 20.6734C149.507 19.6071 148.654 18.9147 147.623 18.9147L147.616 18.9213ZM147.312 21.576H146.299C145.744 21.576 145.257 21.2641 145.257 20.6668C145.257 20.0695 145.739 19.7553 146.299 19.7553H147.312C147.867 19.7553 148.354 20.0717 148.354 20.6668C148.354 21.2619 147.874 21.576 147.319 21.576H147.312ZM153.49 21.3747H153.461L152.128 18.9147H150.28V22.4167H151.39V19.762H151.424L152.896 22.4167H154.02L155.529 19.762H155.555V22.4167H156.666V18.9147H154.831L153.49 21.3747ZM160.986 18.9147H157.621V22.4167H158.783V21.3105H160.993C161.797 21.3105 162.426 20.9743 162.426 20.1071C162.426 19.2399 161.797 18.9147 160.993 18.9147H160.986ZM160.744 20.5318H158.776V19.7H160.744C161.02 19.7 161.228 19.8217 161.228 20.1204C161.228 20.419 161.026 20.5318 160.751 20.5318H160.744ZM164.436 18.9147L162.13 22.4167H163.463L163.867 21.753H166.604L167.037 22.4167H168.445L166.151 18.9147H164.436ZM164.363 20.9057L165.222 19.5385H165.26L166.129 20.9057H164.363ZM172.673 21.18H172.653L170.538 18.9036H168.921V22.4056H170.031V19.9721H170.047L172.339 22.4056H173.728V18.9147H172.668L172.673 21.18ZM178.552 18.9036L177.14 20.3062L175.711 18.9147H174.216L176.493 21.2044V22.4167H177.651V21.1977L179.943 18.9147L178.552 18.9036Z" fill="#041E42"/>
</svg>
