<?xml version="1.0" encoding="UTF-8" standalone="no"?>
<!-- Created with Inkscape (http://www.inkscape.org/) -->
<svg
   xmlns:dc="http://purl.org/dc/elements/1.1/"
   xmlns:cc="http://creativecommons.org/ns#"
   xmlns:rdf="http://www.w3.org/1999/02/22-rdf-syntax-ns#"
   xmlns:svg="http://www.w3.org/2000/svg"
   xmlns="http://www.w3.org/2000/svg"
   xmlns:sodipodi="http://sodipodi.sourceforge.net/DTD/sodipodi-0.dtd"
   xmlns:inkscape="http://www.inkscape.org/namespaces/inkscape"
   id="svg2403"
   sodipodi:version="0.32"
   inkscape:version="0.46"
   width="504.47"
   height="146.03999"
   xml:space="preserve"
   sodipodi:docname="Jetairfly Logo.svg"
   version="1.0"
   inkscape:output_extension="org.inkscape.output.svg.inkscape"><metadata
     id="metadata2408"><rdf:RDF><cc:Work
         rdf:about=""><dc:format>image/svg+xml</dc:format><dc:type
           rdf:resource="http://purl.org/dc/dcmitype/StillImage" /></cc:Work></rdf:RDF></metadata><defs
     id="defs2406"><inkscape:perspective
       sodipodi:type="inkscape:persp3d"
       inkscape:vp_x="0 : 526.18109 : 1"
       inkscape:vp_y="0 : 1000 : 0"
       inkscape:vp_z="744.09448 : 526.18109 : 1"
       inkscape:persp3d-origin="372.04724 : 350.78739 : 1"
       id="perspective2410" /><clipPath
       clipPathUnits="userSpaceOnUse"
       id="clipPath2418"><path
         d="M 0,0 L 595.276,0 L 595.276,841.89 L 0,841.89 L 0,0 z"
         id="path2420" /></clipPath><clipPath
       clipPathUnits="userSpaceOnUse"
       id="clipPath3254"><path
         d="M 263.264,8.218 L 313.815,8.218 L 313.815,25.512 L 263.264,25.512 L 263.264,8.218 z"
         id="path3256" /></clipPath></defs><sodipodi:namedview
     inkscape:window-height="974"
     inkscape:window-width="1280"
     inkscape:pageshadow="2"
     inkscape:pageopacity="0.0"
     guidetolerance="10.0"
     gridtolerance="10.0"
     objecttolerance="10.0"
     borderopacity="1.0"
     bordercolor="#666666"
     pagecolor="#ffffff"
     id="base"
     showgrid="false"
     inkscape:zoom="1"
     inkscape:cx="372.04749"
     inkscape:cy="207.28353"
     inkscape:window-x="-8"
     inkscape:window-y="-8"
     inkscape:current-layer="g3252" /><g
     id="g2412"
     inkscape:groupmode="layer"
     inkscape:label="Transport_Conditions_Jetairfly_Charters"
     transform="matrix(1.25,0,0,-1.25,-116.6086,322.46086)"><g
       id="g2414"><g
         id="g2416"
         clip-path="url(#clipPath2418)"><g
           id="g3250"
           transform="matrix(10.125717,0,0,10.125717,-2601.6727,40.140981)"><g
             id="g3252"
             clip-path="url(#clipPath3254)"><path
               d="M 282.8028,11.95282 C 282.56438,11.72051 282.21067,11.586015 281.73121,11.586015 C 281.2989,11.586015 280.88668,11.713523 280.65525,11.869852 C 280.47446,11.990373 280.40547,12.062861 280.40547,12.180762 C 280.40547,12.27421 280.4701,12.385998 280.54258,12.49866 C 280.62206,12.618308 280.71463,12.735336 280.84651,12.735336 C 280.89891,12.735336 280.95218,12.710882 281.00458,12.682935 C 281.05611,12.654115 281.10938,12.619181 281.16266,12.592108 C 281.26921,12.538834 281.42029,12.467219 281.65784,12.467219 C 282.12246,12.467219 282.20194,12.723983 282.20194,13.272443 L 282.20194,15.946623 C 282.20194,16.056665 282.2229,16.110812 282.28316,16.156226 C 282.34866,16.20688 282.49626,16.23308 282.72332,16.23308 C 282.94341,16.23308 283.09013,16.20688 283.1565,16.156226 C 283.21676,16.110812 283.23772,16.056665 283.23772,15.946623 L 283.23772,13.199082 C 283.23772,12.74145 283.1434,12.27945 282.8028,11.95282"
               style="fill:#db1e26;fill-opacity:1;fill-rule:nonzero;stroke:none"
               id="path3260" /><path
               d="M 285.35646,13.978105 C 285.08572,13.978105 284.90669,13.795576 284.86214,13.519599 L 285.81933,13.519599 C 285.79924,13.800816 285.62108,13.978105 285.35646,13.978105 M 286.74158,13.002579 C 286.73372,12.978126 286.72499,12.960659 286.71276,12.944939 C 286.70752,12.937952 286.70141,12.930965 286.69529,12.923979 L 286.67608,12.904765 C 286.61669,12.845378 286.48919,12.81219 286.28832,12.81219 L 284.86477,12.81219 C 284.93027,12.592981 285.1355,12.427046 285.55733,12.427046 C 285.75034,12.427046 285.84902,12.447132 285.9547,12.473333 C 286.00885,12.486433 286.05688,12.503027 286.10666,12.517 C 286.15644,12.5301 286.20884,12.54058 286.26736,12.54058 C 286.40185,12.54058 286.45949,12.434032 286.51975,12.295171 C 286.5739,12.172029 286.58089,12.109148 286.58089,12.020067 C 286.58089,11.935353 286.54595,11.869852 286.36255,11.788631 C 286.17915,11.706537 285.9023,11.612215 285.40973,11.612215 C 284.48224,11.612215 283.85693,12.189496 283.85693,13.145808 C 283.85693,14.066313 284.40015,14.705601 285.38353,14.705601 C 286.32063,14.705601 286.76254,14.037493 286.76254,13.259343 C 286.76254,13.125721 286.75556,13.050613 286.74158,13.002579"
               style="fill:#db1e26;fill-opacity:1;fill-rule:evenodd;stroke:none"
               id="path3262" /><path
               d="M 289.18345,11.755444 C 289.0804,11.700423 288.85682,11.612215 288.51796,11.612215 C 288.18784,11.612215 287.96164,11.679463 287.79658,11.817451 C 287.6027,11.9764 287.52148,12.217443 287.52148,12.529227 L 287.52148,13.850597 L 287.2586,13.850597 C 287.15205,13.850597 287.09965,13.85671 287.06123,13.880291 C 287.00446,13.912604 286.99223,13.962385 286.99223,14.063693 C 286.99223,14.211288 287.01931,14.424384 287.08131,14.535299 C 287.13459,14.618267 287.23153,14.638353 287.36602,14.638353 L 287.51449,14.638353 L 287.51449,15.16236 C 287.51449,15.296855 287.52759,15.378076 287.59397,15.443577 C 287.65248,15.502091 287.80619,15.543138 287.92496,15.569338 C 288.0254,15.589425 288.18784,15.616499 288.26993,15.616499 C 288.33194,15.616499 288.40443,15.603399 288.44286,15.571959 C 288.47255,15.546632 288.48827,15.521305 288.49613,15.482877 C 288.49962,15.465411 288.50137,15.44445 288.50224,15.419123 C 288.50312,15.39467 288.50312,15.365849 288.50312,15.330042 L 288.50312,14.638353 L 289.08826,14.638353 C 289.19481,14.638353 289.24633,14.63224 289.28476,14.60866 C 289.34153,14.576346 289.35463,14.526565 289.35463,14.425257 C 289.35463,14.277662 289.32755,14.06544 289.26467,13.953651 C 289.21227,13.870684 289.11533,13.850597 288.98084,13.850597 L 288.50312,13.850597 L 288.50312,12.669835 C 288.50312,12.579881 288.52233,12.53796 288.56512,12.495166 C 288.59395,12.466346 288.63587,12.447132 288.71272,12.447132 C 288.77735,12.447132 288.84198,12.460233 288.90835,12.479446 C 288.94154,12.489926 288.97734,12.503027 289.0114,12.513507 C 289.04546,12.52486 289.08127,12.534467 289.11446,12.534467 C 289.17909,12.534467 289.22363,12.503027 289.25856,12.461979 C 289.27603,12.441892 289.29087,12.418312 289.30485,12.394732 C 289.31882,12.372025 289.33192,12.346698 289.34502,12.323118 C 289.3983,12.22443 289.44808,12.125742 289.44808,12.040154 C 289.44808,11.912646 289.30834,11.820945 289.18345,11.755444"
               style="fill:#db1e26;fill-opacity:1;fill-rule:nonzero;stroke:none"
               id="path3264" /><path
               d="M 291.56244,12.971139 L 290.99914,12.925725 C 290.74674,12.906512 290.64718,12.766777 290.64718,12.602588 C 290.64718,12.460233 290.73801,12.332724 290.99739,12.332724 C 291.26027,12.332724 291.56244,12.476826 291.56244,12.843631 L 291.56244,12.971139 z M 292.31789,11.721383 C 292.20348,11.674223 292.08645,11.632302 291.94235,11.632302 C 291.86113,11.632302 291.80523,11.672476 291.76069,11.73885 C 291.73798,11.771164 291.7179,11.810464 291.69868,11.855878 C 291.68209,11.892559 291.6655,11.933606 291.64803,11.97902 C 291.41048,11.727497 291.09084,11.612215 290.70307,11.612215 C 290.26815,11.612215 289.71881,11.857625 289.71881,12.555427 C 289.71881,13.302137 290.32404,13.5327 290.90918,13.572873 L 291.56244,13.618287 L 291.56244,13.654968 C 291.56244,13.85409 291.42183,13.985092 291.06464,13.985092 C 290.86027,13.985092 290.72141,13.938805 290.58866,13.892517 C 290.52491,13.868937 290.45504,13.83575 290.38692,13.807803 C 290.3188,13.779856 290.25155,13.757149 290.19391,13.757149 C 290.12492,13.753656 290.07514,13.777236 290.03496,13.815663 C 290.01488,13.834877 289.99741,13.85671 289.98169,13.880291 C 289.96597,13.902997 289.952,13.928324 289.93628,13.953651 C 289.87514,14.054959 289.84632,14.118714 289.84632,14.211288 C 289.84632,14.301243 289.89348,14.372857 290.03671,14.454951 C 290.2271,14.564119 290.56508,14.705601 291.19826,14.705601 C 291.99038,14.705601 292.49081,14.391197 292.49081,13.494272 L 292.49081,12.529227 C 292.49081,12.346698 292.5205,12.247137 292.54932,12.175522 C 292.56417,12.138842 292.57989,12.109148 292.59124,12.079455 C 292.6026,12.048887 292.61133,12.017447 292.61133,11.979893 C 292.61133,11.843652 292.43317,11.765924 292.31789,11.721383"
               style="fill:#db1e26;fill-opacity:1;fill-rule:evenodd;stroke:none"
               id="path3266" /><path
               d="M 294.17112,11.730117 C 294.11086,11.678589 293.97025,11.652389 293.75803,11.652389 C 293.53795,11.652389 293.40345,11.678589 293.34407,11.73099 C 293.28468,11.775531 293.26372,11.829678 293.26372,11.938846 L 293.26372,14.224388 C 293.26372,14.358883 293.27682,14.439231 293.34319,14.505605 C 293.40171,14.564119 293.55541,14.605166 293.67419,14.631367 C 293.77462,14.651454 293.93707,14.678527 294.02003,14.678527 C 294.08117,14.678527 294.15366,14.665427 294.19208,14.633987 C 294.22178,14.60866 294.2375,14.582459 294.24536,14.544906 C 294.24885,14.527439 294.2506,14.506478 294.25147,14.481151 C 294.25234,14.456698 294.25234,14.427877 294.25234,14.39207 L 294.25234,11.938846 C 294.25234,11.828805 294.23138,11.775531 294.17112,11.730117 M 293.75803,15.023498 C 293.44799,15.023498 293.19647,15.251441 293.19647,15.544885 C 293.19647,15.830468 293.44712,16.072385 293.75803,16.072385 C 294.06195,16.072385 294.31959,15.837455 294.31959,15.544885 C 294.31959,15.251441 294.06195,15.023498 293.75803,15.023498"
               style="fill:#db1e26;fill-opacity:1;fill-rule:evenodd;stroke:none"
               id="path3268" /><path
               d="M 297.19988,14.178101 C 297.17979,14.122207 297.15272,14.066313 297.12565,14.008672 C 297.07237,13.896011 296.98154,13.763262 296.86102,13.763262 C 296.7833,13.763262 296.7274,13.785096 296.66627,13.81217 C 296.59989,13.83837 296.54225,13.857584 296.47238,13.857584 C 296.32304,13.857584 296.24794,13.819156 296.16409,13.729202 C 296.07414,13.632261 296.00777,13.503006 296.00777,13.272443 L 296.00777,11.938846 C 296.00777,11.828805 295.98768,11.775531 295.92742,11.730117 C 295.86716,11.678589 295.72568,11.652389 295.51345,11.652389 C 295.29424,11.652389 295.15887,11.678589 295.09949,11.73099 C 295.0401,11.775531 295.02001,11.829678 295.02001,11.938846 L 295.02001,14.224388 C 295.02001,14.358883 295.03311,14.439231 295.09861,14.505605 C 295.15713,14.564119 295.29686,14.605166 295.41651,14.631367 C 295.51607,14.651454 295.6724,14.678527 295.75537,14.678527 C 295.8165,14.678527 295.88899,14.665427 295.92829,14.633987 C 295.95711,14.60866 295.9737,14.582459 295.98069,14.544906 C 295.98419,14.527439 295.98681,14.506478 295.98768,14.481151 C 295.98768,14.456698 295.98768,14.427877 295.98768,14.39207 L 295.98768,14.353643 C 296.08637,14.488138 296.29684,14.678527 296.59291,14.678527 C 296.77631,14.678527 296.87936,14.651454 297.0156,14.590319 C 297.15883,14.528312 297.23481,14.436611 297.23481,14.351896 C 297.23481,14.291636 297.22084,14.234868 297.19988,14.178101"
               style="fill:#db1e26;fill-opacity:1;fill-rule:nonzero;stroke:none"
               id="path3270" /><path
               d="M 267.07649,18.334347 L 270.1297,18.334347 C 270.42838,18.334347 270.65458,18.240025 270.74279,17.814707 C 270.84148,17.342227 270.8013,17.012977 270.26943,16.975423 L 269.3105,16.906429 C 270.01616,12.448879 274.14097,10.995634 276.38721,15.797281 C 276.75838,16.592025 276.88065,16.736127 277.28763,16.635692 C 277.83958,16.498577 277.91469,16.21474 277.65181,15.41301 C 275.71037,9.4943563 269.18387,8.9013555 267.90354,16.805121 L 267.12452,16.749227 C 266.49047,16.703813 266.46602,17.238299 266.46602,17.535237 C 266.46602,18.123871 266.68436,18.334347 267.07649,18.334347"
               style="fill:#db1e26;fill-opacity:1;fill-rule:nonzero;stroke:none"
               id="path3272" /><path
               d="M 278.17669,21.196296 C 278.80288,21.196296 279.3103,20.688883 279.3103,20.063568 C 279.3103,19.437381 278.80288,18.929967 278.17669,18.929967 C 277.55138,18.929967 277.04397,19.437381 277.04397,20.063568 C 277.04397,20.688883 277.55138,21.196296 278.17669,21.196296"
               style="fill:#db1e26;fill-opacity:1;fill-rule:nonzero;stroke:none"
               id="path3274" /><path
               d="M 300.38671,15.764094 C 300.31597,15.622612 300.26707,15.495104 300.12471,15.495104 C 300.04698,15.495104 299.99022,15.516064 299.94043,15.537898 C 299.8269,15.572832 299.75616,15.615626 299.52909,15.615626 C 299.30202,15.615626 299.15355,15.495104 299.15355,15.161487 L 299.15355,14.778089 L 299.81991,14.778089 C 299.93257,14.778089 299.98323,14.771975 300.01816,14.750141 C 300.06794,14.722194 300.08192,14.679401 300.08192,14.572853 C 300.08192,14.417397 300.05397,14.197315 299.99022,14.08378 C 299.94043,14.006052 299.84786,13.984219 299.70638,13.984219 L 299.15355,13.984219 L 299.15355,11.943213 C 299.15355,11.828805 299.13172,11.779897 299.07495,11.737104 C 299.01818,11.687323 298.8767,11.659376 298.64963,11.659376 C 298.41558,11.659376 298.28108,11.687323 298.22431,11.737104 C 298.16755,11.779897 298.14571,11.828805 298.14571,11.943213 L 298.14571,13.984219 L 297.8479,13.984219 C 297.73524,13.984219 297.68546,13.992079 297.65053,14.013039 C 297.60075,14.041859 297.5859,14.08378 297.5859,14.190328 C 297.5859,14.345783 297.61472,14.565866 297.67847,14.679401 C 297.72825,14.757128 297.82083,14.778089 297.96231,14.778089 L 298.14571,14.778089 L 298.14571,15.190307 C 298.14571,15.891603 298.55094,16.466263 299.45136,16.466263 C 299.74917,16.466263 300.06096,16.409496 300.25921,16.302948 C 300.42951,16.211247 300.47929,16.147492 300.47929,16.061905 C 300.47929,15.941383 300.42951,15.849682 300.38671,15.764094"
               style="fill:#76b1e4;fill-opacity:1;fill-rule:nonzero;stroke:none"
               id="path3276" /><path
               d="M 301.73428,11.737104 C 301.67752,11.687323 301.53603,11.659376 301.30809,11.659376 C 301.07491,11.659376 300.93954,11.687323 300.88365,11.737104 C 300.82688,11.779897 300.80505,11.828805 300.80505,11.943213 L 300.80505,16.005137 C 300.80505,16.147492 300.81902,16.22522 300.88365,16.288974 C 300.93954,16.345742 301.09587,16.388535 301.22338,16.417356 C 301.32993,16.438316 301.50023,16.466263 301.58494,16.466263 C 301.6487,16.466263 301.71944,16.45229 301.75524,16.423469 C 301.81201,16.373689 301.81201,16.331768 301.81201,16.182426 L 301.81201,11.943213 C 301.81201,11.828805 301.79105,11.779897 301.73428,11.737104"
               style="fill:#76b1e4;fill-opacity:1;fill-rule:nonzero;stroke:none"
               id="path3278" /><path
               d="M 305.57001,14.240108 L 303.78315,10.475121 C 303.7194,10.347613 303.64079,10.289972 303.31504,10.289972 C 302.98229,10.289972 302.79103,10.339753 302.79103,10.524902 C 302.79103,10.609616 302.83295,10.716164 302.90369,10.857646 L 303.47137,12.041901 L 302.35087,14.233122 C 302.28012,14.374603 302.23733,14.509098 302.23733,14.586826 C 302.23733,14.743155 302.42859,14.806909 302.7692,14.806909 C 303.12377,14.806909 303.22246,14.729181 303.2801,14.60866 L 303.99537,13.090787 L 304.69754,14.622633 C 304.75431,14.750141 304.88182,14.806909 305.15867,14.806909 C 305.52023,14.806909 305.69053,14.764988 305.69053,14.580713 C 305.69053,14.495125 305.64075,14.38159 305.57001,14.240108"
               style="fill:#76b1e4;fill-opacity:1;fill-rule:nonzero;stroke:none"
               id="path3280" /></g></g></g></g></g></svg>