<?xml version="1.0" encoding="UTF-8"?>
<!-- Generator: Adobe Illustrator 12.0.0, SVG Export Plug-In . SVG Version: 6.00 Build 51448)  -->
<!DOCTYPE svg PUBLIC "-//W3C//DTD SVG 1.1//EN" "http://www.w3.org/Graphics/SVG/1.1/DTD/svg11.dtd" [
	<!ENTITY ns_svg "http://www.w3.org/2000/svg">
	<!ENTITY ns_xlink "http://www.w3.org/1999/xlink">
]>
<svg version="1.1" id="Layer_1" xmlns="http://www.w3.org/2000/svg" xmlns:xlink="http://www.w3.org/1999/xlink" width="527.244" height="202.389" viewBox="0 0 527.244 202.389" overflow="visible" enable-background="new 0 0 527.244 202.389" xml:space="preserve">
<g>
	<path fill-rule="evenodd" clip-rule="evenodd" fill="#003876" d="M183.917,184.585l8.814-18.794l8.815,18.794H183.917   L183.917,184.585L183.917,184.585z M167.275,201.343h8.751l4.471-9.68h24.296l4.408,9.68h8.697l-20.47-42.161h-9.397   L167.275,201.343L167.275,201.343z"/>
	<polygon fill-rule="evenodd" clip-rule="evenodd" fill="#003876" points="229.094,159.182 237.327,159.182 237.327,201.343 229.094,201.343 229.094,159.182"/>
	<path fill-rule="evenodd" clip-rule="evenodd" fill="#003876" d="M261.28,177.92v-11.892h15.886c6.729,0,10.154,0.981,10.154,5.915   c0,4.989-3.425,5.977-10.154,5.977H261.28L261.28,177.92L261.28,177.92z M253.044,201.343h8.235v-16.582h13.047l12.234,16.582   h10.148l-12.929-17.165c6.205-0.343,11.769-4.638,11.769-12.407c0-10.327-7.189-12.589-17.162-12.589h-25.343V201.343   L253.044,201.343z"/>
	<polygon fill-rule="evenodd" clip-rule="evenodd" fill="#003876" points="305.936,159.182 314.168,159.182 322.292,188.177 322.4,188.177 330.466,159.182 338.355,159.182 346.535,188.115 346.646,188.115 354.709,159.182 362.771,159.182 350.479,201.343 342.589,201.343 334.585,171.425 334.468,171.425 326.405,201.343 318.352,201.343 305.936,159.182"/>
	<path fill-rule="evenodd" clip-rule="evenodd" fill="#003876" d="M384.059,184.585l8.818-18.794l8.81,18.794H384.059   L384.059,184.585L384.059,184.585z M367.418,201.343h8.757l4.465-9.68h24.296l4.406,9.68h8.707l-20.476-42.161h-9.396   L367.418,201.343L367.418,201.343z"/>
	<polygon fill-rule="evenodd" clip-rule="evenodd" fill="#003876" points="437.886,184.459 417.302,159.182 427.389,159.182 441.999,177.041 456.56,159.182 466.711,159.182 446.118,184.459 446.118,201.343 437.886,201.343 437.886,184.459"/>
	<path fill-rule="evenodd" clip-rule="evenodd" fill="#003876" d="M506.429,171.999c-1.333-3.773-4.749-7.017-14.786-7.017   c-5.569,0-11.191,1.392-11.191,5.273c0,1.802,1.043,3.715,9.454,4.761l9.976,1.506c9.451,1.453,15.026,5.101,15.026,12.179   c0,9.976-9.516,13.688-20.769,13.688c-18.094,0-22.503-8.933-23.49-12.123l7.948-2.493c1.506,3.073,4.635,7.544,15.776,7.544   c6.724,0,12.287-2.206,12.287-5.862c0-2.725-3.126-4.521-9.158-5.276l-10.09-1.389c-9.744-1.339-15.199-5.572-15.199-12.012   c0-12.639,16.418-12.639,19.661-12.639c18.155,0,21.281,8.411,22.324,11.306L506.429,171.999L506.429,171.999z"/>
	<path fill-rule="evenodd" clip-rule="evenodd" fill="#003876" d="M14.48,34.531h17.178v92.046   c0,14.312-10.447,23.918-24.932,23.918H0v-16.169h4.876c5.896,0,9.604-2.704,9.604-9.1V34.531L14.48,34.531L14.48,34.531z M14.48,0   h17.178v17.181H14.48V0L14.48,0z"/>
	<path fill-rule="evenodd" clip-rule="evenodd" fill="#003876" d="M59.925,69.563c0.334-12.967,7.916-19.871,18.026-19.871   c10.109,0,17.517,6.904,18.016,19.871H59.925L59.925,69.563L59.925,69.563z M113.146,83.704V69.563   c0-22.063-16.343-36.042-35.194-36.042c-16.516,0-35.205,10.774-35.205,43.958c0,35.03,20.376,43.456,37.897,43.456   c11.445,0,22.397-4.052,30.812-13.816L99.004,96.513c-5.061,5.216-12.13,8.25-18.699,8.25c-11.792,0-20.38-7.077-20.38-21.059   H113.146L113.146,83.704z"/>
	<path fill-rule="evenodd" clip-rule="evenodd" fill="#003876" d="M126.766,8.59h17.178v25.941h12.454v13.138h-12.454v49.68   c0,4.721,1.849,6.403,6.048,6.403h6.406v16.169h-8.922c-11.963,0-20.71-7.591-20.71-21.053V47.669h-8.604V34.531h8.604V8.59   L126.766,8.59z"/>
	<path fill-rule="evenodd" clip-rule="evenodd" fill="#003876" d="M213.504,66.7c13.471,0,19.523,8.585,19.523,18.016   c0,9.437-6.053,18.024-19.523,18.024H185.54V66.7H213.504L213.504,66.7L213.504,66.7z M167.342,119.921h50.533   c18.026,0,33.346-13.307,33.346-34.02c0-12.127-6.397-24.59-19.532-27.63V57.94c13.979-6.234,17.688-15.833,17.688-25.767   C249.376,13.308,237.237,0,213.833,0h-46.491V119.921L167.342,119.921L167.342,119.921z M211.809,16.175   c13.14,0,19.37,7.912,19.37,17.177c0,9.426-6.23,17.183-19.37,17.183H185.54V16.175H211.809L211.809,16.175z"/>
	<path fill-rule="evenodd" clip-rule="evenodd" fill="#003876" d="M261.095,0h17.178v97.856c0,3.873,2.191,5.896,6.416,5.896h5.886   v16.169h-7.579c-12.472,0-21.901-5.385-21.901-20.72V0L261.095,0z"/>
	<path fill-rule="evenodd" clip-rule="evenodd" fill="#003876" d="M297.814,34.531h17.18V85.39c0,11.629,7.239,18.362,17.021,18.362   c9.595,0,16.828-6.732,16.828-18.362V34.531h17.186v85.39h-17.186v-9.1h-0.322c-5.396,6.741-13.146,10.113-22.075,10.113   c-13.465,0-28.632-10.28-28.632-29.643V34.531L297.814,34.531z"/>
	<path fill-rule="evenodd" clip-rule="evenodd" fill="#003876" d="M392.44,69.563c0.349-12.967,7.913-19.871,18.021-19.871   c10.104,0,17.514,6.904,18.032,19.871H392.44L392.44,69.563L392.44,69.563z M445.667,83.704V69.563   c0-22.063-16.339-36.042-35.206-36.042c-16.506,0-35.209,10.774-35.209,43.958c0,35.03,20.388,43.456,37.898,43.456   c11.467,0,22.406-4.052,30.829-13.816l-12.469-10.605c-5.054,5.216-12.117,8.25-18.688,8.25c-11.789,0-20.382-7.077-20.382-21.059   H445.667L445.667,83.704z"/>
	<path fill-rule="evenodd" clip-rule="evenodd" fill="#003876" d="M518.42,165.313c0-2.423,1.975-4.4,4.421-4.4   c2.44,0,4.403,1.978,4.403,4.4c0,2.449-1.963,4.424-4.403,4.424C520.395,169.737,518.42,167.763,518.42,165.313L518.42,165.313   L518.42,165.313z M526.711,165.313c0-2.136-1.731-3.867-3.87-3.867c-2.147,0-3.879,1.731-3.879,3.867   c0,2.159,1.731,3.894,3.879,3.894C524.979,169.207,526.711,167.473,526.711,165.313L526.711,165.313L526.711,165.313z    M525.035,167.786h-0.715l-1.406-2.276h-1.113v2.276h-0.598v-4.934h2.147c0.416,0,0.829,0.023,1.201,0.246   c0.372,0.208,0.557,0.645,0.557,1.061c0,0.97-0.683,1.33-1.562,1.351L525.035,167.786L525.035,167.786L525.035,167.786z    M522.729,165.038c0.691,0,1.767,0.114,1.767-0.891c0-0.762-0.671-0.853-1.286-0.853h-1.409v1.743H522.729L522.729,165.038z"/>
	<path fill-rule="evenodd" clip-rule="evenodd" fill="#003876" d="M518.42,165.313c0-2.423,1.975-4.4,4.421-4.4   c2.44,0,4.403,1.978,4.403,4.4c0,2.449-1.963,4.424-4.403,4.424C520.395,169.737,518.42,167.763,518.42,165.313L518.42,165.313   L518.42,165.313z M526.711,165.313c0-2.136-1.731-3.867-3.87-3.867c-2.147,0-3.879,1.731-3.879,3.867   c0,2.159,1.731,3.894,3.879,3.894C524.979,169.207,526.711,167.473,526.711,165.313L526.711,165.313L526.711,165.313z    M525.035,167.786h-0.715l-1.406-2.276h-1.113v2.276h-0.598v-4.934h2.147c0.416,0,0.829,0.023,1.201,0.246   c0.372,0.208,0.557,0.645,0.557,1.061c0,0.97-0.683,1.33-1.562,1.351L525.035,167.786L525.035,167.786L525.035,167.786z    M522.729,165.038c0.691,0,1.767,0.114,1.767-0.891c0-0.762-0.671-0.853-1.286-0.853h-1.409v1.743H522.729L522.729,165.038z"/>
</g>
</svg>