<?xml version="1.0" encoding="UTF-8"?><svg id="Layer_2" xmlns="http://www.w3.org/2000/svg" viewBox="0 0 297.95 100.15"><defs><style>.cls-1{fill:#ff6900;}</style></defs><g id="Layer_1-2"><path class="cls-1" d="m244.37,69.36c-4.89,5.44-12.46,10.61-24.2,10.88-4.8.09-14.31-.14-22.39-5.1-7.46-4.59-10.12-9.08-12.23-15.92h40.43v-18.69h-40.55c2.61-8.02,8.64-15.02,17.21-18.33,8.57-3.32,18.71-2.89,24.05-1.83,7.63,1.55,13.63,5.19,17.67,10,4.42,5.26,6.5,11.1,6.57,19.53.09,7.82-1.95,14.31-6.57,19.46m53.59-49.18V.16c-8.6.74-15.67,2.79-21.25,6.59-5.21,3.58-10.12,9.26-14.72,17.05-4.35-7.98-7.83-11.8-13.01-15.37-5.61-3.82-11.37-6.42-20.05-7.69-3.47-.5-10.75-.73-19.58-.73l-102,.08v.02h-11.59c-14.17,0-26.25,4.71-36.19,14.13-5.11,4.8-8.92,10.18-11.49,16.13V.1h-22.25v64.96c0,5.61-1.45,9.37-4.35,11.59-2.51,1.94-6.65,3.23-12.39,3.23-1.06,0-8.1-.03-9.09-.03v20.27h16.8c9.69,0,17.75-3.45,23.26-9.66,4.86-5.46,7.71-12.89,8-21.94.94,2.29,2.04,4.54,3.32,6.75,5.59,9.71,12.84,16.43,21.71,20.21,7.34,3.11,17.2,4.66,29.69,4.66,1.55,0,3.31-.12,5.36-.36v-20.22c-2.05.11-4.05.22-6.02.22-19.87,0-31.34-6.88-34.41-20.55h40.43v-18.69h-40.54c2.78-8.01,8.1-13.99,14.07-16.98,4.93-2.43,11.86-3.63,20.88-3.63l26.34.02v80.15h22.2V19.94h22.19c-6.29,6.24-11.1,18.42-11.1,29.82,0,8.87,2.38,17.42,6.98,25.62,4.89,8.73,13.5,15.69,22.32,19.64,8.66,3.89,16.35,5.21,29.17,5.11,10.04-.09,20.73-3.41,25.81-6.78,6.32-4.17,10.71-8.17,15.54-16.1,5.14,7.89,10.06,13.32,14.79,16.34,4.84,3.04,11.94,5.18,21.18,6.27v-20.35c-7.73-1.19-13.65-4.84-17.96-9.59-4.67-5.13-6.99-11.6-6.99-19.45s2.26-14.58,6.71-20.14c4.55-5.75,10.64-9.06,18.24-10.17"/></g></svg>