<?xml version="1.0" encoding="utf-8"?>
<!-- Generator: Limmidy via Adobe Illustrator 18.1.1, SVG Export Plug-In . SVG Version: 6.00 Build 0)  -->
<svg version="1.1" id="Layer_1" xmlns="http://www.w3.org/2000/svg" xmlns:xlink="http://www.w3.org/1999/xlink" x="0px" y="0px"
	 viewBox="18.3 293.3 862.6 313.6" enable-background="new 18.3 293.3 862.6 313.6" xml:space="preserve">
<g>
	<g>
		<g>
			<g>
				<path fill="#4C9FDC" d="M122.2,536.9c-25.2-6.6-40.1-33-33.6-58.1c1.2-4.8,6-7.2,10.8-6c4.8,1.2,7.2,6,6,10.8
					c-4.2,16.2,5.4,32.4,21,36.6c10.8,3,22.2-0.6,30-9c6.6-7.8,10.2-21.6,14.4-36.6c0.6-2.4,1.2-4.2,1.8-6.6
					c7.8-29.4,18-71.3,18-71.3l0,0l10.8-40.1c1.2-4.8,6-7.2,10.8-6c4.8,1.2,7.2,6,6,10.8l-10.8,40.1c-0.6,1.8-10.8,42.5-18,71.9
					c-0.6,2.4-1.2,4.2-1.8,6.6c-4.2,16.8-8.4,33-18,43.7l0,0C157.6,535.7,139.6,541.1,122.2,536.9z"/>
			</g>
			<g>
				<path fill="#E22A2E" d="M113.2,569.8c-43.1-11.4-69.5-56.3-57.5-100.1c1.2-4.8,6-7.2,10.8-6c4.8,1.2,7.2,6,6,10.8
					c-9,34.2,11.4,69.5,45.5,78.5c22.2,6,46.1-0.6,62.3-16.8c12-12,17.4-31.8,22.2-48.5l0.6-1.2l0,0c3.6-12,15-55.7,19.8-74.9
					c1.2-4.2,1.8-7.2,2.4-8.4l26.4-103.7c1.2-4.8,6-7.2,10.8-6c4.8,1.2,7.2,6,6,10.8l-27.6,103.7c0,0.6-1.2,3.6-2.4,7.8
					c-4.8,18.6-16.8,62.9-19.8,74.9l-0.6,1.2c-4.8,18-11.4,40.7-26.4,55.7C171.4,569.2,141.4,577.6,113.2,569.8z"/>
			</g>
			<g>
				<path fill="#6B7477" d="M104.3,602.8C42.5,586.6,6,523.1,22.2,461.4c1.2-4.8,6-7.8,10.2-6.6c4.8,1.2,7.8,6,6.6,10.8
					c-13.8,52.7,17.4,106.7,69.5,121c35.4,9.6,73.1-1.2,97.7-28.2c15.6-17.4,21.6-35.4,27.6-58.7l0,0c0-1.2,3-11.4,5.4-20.4
					c1.8-6,3-12.6,4.2-16.8c0.6-2.4,1.2-4.2,1.8-6c0-0.6,0.6-1.2,0.6-1.8v-0.6l0,0c10.2-37.2,24.6-91.7,29.4-109.7
					c1.2-4.8,6-7.2,10.8-6l0,0c4.8,1.2,7.2,6,6,10.8c-4.8,18.6-19.2,72.5-29.4,109.7c0,0,0,0,0,0.6c-0.6,1.8-3.6,14.4-6.6,24.6
					c-3,12-4.8,19.2-5.4,20.4c-6.6,25.2-13.2,45.5-31.8,65.9l0,0C189.9,601.6,145.6,614.2,104.3,602.8z"/>
			</g>
		</g>
		<g>
			<path fill="#6B7477" d="M292.4,558.5l4.8-18h2.4c8.4,0,13.2-4.2,15.6-13.8l25.2-92.3h20.4l-24.6,90.5c-6,21.6-15.6,33-37.7,33
				L292.4,558.5z M343.3,412.8c0.6-9,7.8-15.6,17.4-15.6c7.2,0,11.4,4.8,10.8,11.4c-0.6,9-7.8,15.6-16.8,15.6
				C346.9,424.2,342.7,418.8,343.3,412.8z"/>
			<path fill="#6B7477" d="M381.1,484.8c-0.6,12.6,6,19.8,18.6,19.8c9,0,16.2-3,21.6-8.4H444c-10.8,16.2-27.6,27-47.9,27
				c-22.8,0-37.7-15.6-36-37.2c2.4-30,27.6-52.7,57.5-52.7c23.4,0,37.7,15,36,36.6c0,3-0.6,6-1.8,9l-2.4,6H381.1z M385.3,468
				L385.3,468l48.5,0.6c0-11.4-7.2-18-19.2-18C402.1,450.6,391.3,457.8,385.3,468z"/>
			<path fill="#6B7477" d="M528.5,487.7c-5.4,24-21.6,35.4-42.5,35.4c-17.4,0-29.4-9-28.2-26.4c0-2.4,0.6-5.4,1.8-9l22.2-81.5h20.4
				l-7.8,28.8h43.1l-4.8,18h-43.1l-9,34.2c-0.6,1.8-1.2,3.6-1.2,5.4c-0.6,7.8,3.6,10.8,10.2,10.8c8.4,0,15-4.8,18.6-16.2l0.6-2.4
				h20.4L528.5,487.7z"/>
			<path fill="#6B7477" d="M529.1,520.7l33.6-123.4H583l-33.6,123.4H529.1z"/>
			<path fill="#6B7477" d="M569.8,520.7l23.4-85.7h20.4l-23.4,86.3h-20.4V520.7z M595.6,412.8c0.6-9,7.8-15.6,17.4-15.6
				c7.2,0,11.4,4.8,10.8,11.4c-0.6,9-7.8,15.6-16.8,15.6C599.8,424.2,595.6,419.4,595.6,412.8z"/>
			<path fill="#6B7477" d="M669.9,520.7l12-44.9c0.6-3,1.2-5.4,1.2-7.8c1.2-11.4-4.8-16.8-15.6-16.8c-12,0-23.4,7.8-27.6,24.6
				l-12,44.9h-20.4l12-44.9c7.8-28.8,27-43.1,52.1-43.1c21,0,34.8,10.8,33,32.4c0,3.6-1.2,7.2-1.8,11.4l-12,44.9h-21V520.7z"/>
			<path fill="#6B7477" d="M730.4,485.4c-0.6,12.6,6,19.8,18.6,19.8c9,0,16.2-3,21.6-8.4h22.8c-10.8,16.2-27.6,27-47.9,27
				c-22.8,0-37.7-15.6-36-37.2c2.4-30,27.6-52.7,57.5-52.7c23.4,0,37.7,15,36,36.6c0,3-0.6,6-1.8,9l-2.4,7.2L730.4,485.4z
				 M734.6,468.6L734.6,468.6l48.5,0.6c0-11.4-7.2-18-19.2-18C752,451.2,740.6,457.8,734.6,468.6z"/>
			<path fill="#6B7477" d="M860.5,460.2V459c0.6-5.4-3-8.4-10.8-8.4c-10.2,0-16.2,4.2-16.8,10.8c-1.2,13.8,43.1,0,40.7,29.4
				c-1.2,18.6-18.6,33-42.5,32.4c-19.2,0-31.2-9.6-30-23.4c0-1.2,0-3,0.6-4.2h20.4c0,0.6,0,1.2-0.6,1.8c-0.6,5.4,3.6,7.8,12.6,7.8
				c12.6,0,17.4-4.8,18-11.4c1.2-13.8-42.5,0-40.1-29.4c1.2-18.6,17.4-32.4,40.7-32.4c18.6,0,29.4,10.2,28.2,23.4
				c0,1.2-0.6,2.4-0.6,3.6L860.5,460.2z"/>
		</g>
	</g>
	<rect x="-154" y="207.3" fill="none" width="1206.8" height="486"/>
</g>
</svg>
