<?xml version="1.0"?>
<svg xmlns="http://www.w3.org/2000/svg" width="608.25249" height="167.5705" viewBox="0 0 60.825249 16.75705">
<g transform="translate(3.269834e-7,-280.21835)" style="fill:#000">
 <path d="m 16.425664,291.00276 c -2.116006,5.51557 -7.335904,5.97264 -11.0523076,5.97264 -2.0819401,0 -3.8837526,-0.21034 -5.3733567269834,-0.54372 L 1.3215934,292.99508 c 3.5397942,0.41341 6.5699348,0.1012 7.7532838,-2.98946 l 3.7600598,-9.78727 h 7.734101" />
 <path d="m 48.20587,290.38244 4.260746,-5.31104 0.196379,5.31104 z m 11.027694,-10.14671 h -7.079123 c -0.860681,0 -1.800591,0.50449 -2.428666,1.22974 L 36.344921,296.9679 h 6.542127 l 2.746258,-3.39804 h 7.149548 l 0.124938,3.39804 h 7.917456" />
 <path d="m 24.314292,280.3017 -1.510808,3.76119 h 5.741071 l -4.532424,12.85075 h 7.554041 l 4.532425,-12.85075 h 5.74107 l 1.510809,-3.76119 z" />
</g>
</svg>