<?xml version="1.0" encoding="UTF-8" standalone="no"?>
<!DOCTYPE svg PUBLIC "-//W3C//DTD SVG 1.0//EN" "http://www.w3.org/TR/2001/REC-SVG-20010904/DTD/svg10.dtd">
<!-- Created with Inkscape (http://www.inkscape.org/) -->
<svg
   xmlns:svg="http://www.w3.org/2000/svg"
   xmlns="http://www.w3.org/2000/svg"
   version="1.0"
   width="800"
   height="100"
   id="svg2">
  <defs
     id="defs4" />
  <g
     id="layer1">
    <path
       d="M 548.49247,5.5479525 L 535.99807,22.129892 L 636.41328,22.129892 C 690.34599,22.462017 711.27375,30.358813 715.38579,40.110369 C 722.12519,56.092623 716.12113,75.781425 671.36722,77.866048 L 632.213,77.866048 L 614.81043,95.316153 L 697.72013,95.316153 C 787.55331,93.386467 798.34872,56.730425 786.57372,36.507084 C 771.49819,10.615142 708.23601,5.5479525 652.30605,5.5479525 L 548.49247,5.5479525 z M 76.558301,5.5479525 L 8.9184863,95.316153 L 105.02429,95.316153 L 172.6641,5.5479525 L 76.558301,5.5479525 z M 258.09148,5.5479525 L 146.65448,45.136249 L 222.74738,95.316153 L 325.71168,95.316153 L 245.49801,44.268085 L 353.32911,5.5479525 L 258.09148,5.5479525 z M 408.63119,5.5479525 L 340.99137,95.316153 L 596.14489,95.316153 L 612.6793,77.866048 L 451.54798,77.866048 L 506.03923,5.5479525 L 408.63119,5.5479525 z"
       id="path3237"
       style="fill:#fd9900;fill-opacity:1;fill-rule:evenodd;stroke:#fc9a00;stroke-width:2.77812624px;stroke-linecap:butt;stroke-linejoin:miter;stroke-opacity:1" />
  </g>
</svg>
