<?xml version="1.0" encoding="utf-8"?>
<!-- Generator: Adobe Illustrator 15.1.0, SVG Export Plug-In . SVG Version: 6.00 Build 0)  -->
<!DOCTYPE svg PUBLIC "-//W3C//DTD SVG 1.1//EN" "http://www.w3.org/Graphics/SVG/1.1/DTD/svg11.dtd">
<svg version="1.1" id="Layer_1" xmlns="http://www.w3.org/2000/svg" xmlns:xlink="http://www.w3.org/1999/xlink" x="0px" y="0px"
	 width="323px" height="152px" viewBox="0 0 323 152" enable-background="new 0 0 323 152" xml:space="preserve">
<g>
	<path fill="#6E4683" d="M18.518,123.234c-3.121,0-6.094,4.174-8.072,6.367c1.759,3.125,5.302,10.833,9.562,10.833v0.832
		c-6.325,1.704-8.78-5.38-11.425-9.783c-2.704,3.097-1.66,5.497-1.66,9.917h-2.59v-19.084h2.59v9.135
		c2.296-2.794,7.432-10.701,11.857-9.039v0.822H18.518L18.518,123.234z M168.988,65.136c0,8.607,4.876,14.147,12.517,17.472
		l1.652-2.664c-13.323-9.047-6.258-59.872-6.258-74.041h-7.911V65.136L168.988,65.136z M114.093,8.838V6.291
		c19.325-5.2,26.826,16.446,34.908,29.894c8.261-9.461,5.09-16.773,5.09-30.282h7.91l-0.016,58.291h-7.912V36.282
		c-2.013,2.451-4.743,6.189-7.929,10.153C139.114,35.408,129.364,8.838,114.093,8.838L114.093,8.838z M58.725,141.4v-19.084h2.589
		v17.629h7.252l-0.185,1.455H58.725L58.725,141.4z M120.496,141.4c-1.957-5.734-3.911-11.434-5.941-17.145l-6.361,17.145h-1.896
		l7.564-18.918l2.238-0.647l7.082,19.565H120.496L120.496,141.4z M172.548,135.867c0,6.164-7.583,6.806-11.762,4.416l0.929-2.233
		c6.65,4.492,12.573-2.025,5.822-4.841c-10.187-4.116-5.981-12.662,4.133-10.649l-0.579,2.259c-7.419-2.605-10.618,2.396-3.015,5.5
		C170.632,131.379,172.548,132.862,172.548,135.867L172.548,135.867z M215.255,141.4c0,2.817-1.598,4.633-4.097,5.721l-0.54-0.874
		c4.359-2.961,2.047-19.293,2.047-23.931h2.59V141.4L215.255,141.4z M266.601,141.4h-10.198v-19.084h9.783l-0.184,1.381l-7.01,0.09
		v6.769l3.993,0.191l-0.186,1.209l-3.808,0.032v7.943l7.792,0.147L266.601,141.4L266.601,141.4z M310.465,141.4v-17.613l-5.872-0.09
		l0.186-1.381h14.147l-0.186,1.325l-5.687,0.146V141.4H310.465L310.465,141.4z"/>
</g>
</svg>
