<?xml version="1.0"?>
<svg width="350" height="99" xmlns="http://www.w3.org/2000/svg">

 <g>
  <title>background</title>
  <rect fill="none" id="canvas_background" height="101" width="352" y="-1" x="-1"/>
 </g>
 <g>
  <title>Layer 1</title>
  <g id="color_00a1e4ff">
   <path id="svg_1" d="m168.520004,0l10.979996,0c0.089996,3.73 0.080002,7.45 0.059998,11.18c3.669998,-0.01 7.350006,0.009999 11.020004,-0.02c0.029999,3.66 0.029999,7.32 -0.080002,10.98c-3.639999,0 -7.289993,0.02 -10.929993,0c0,3.6 -0.01001,7.210001 0.019989,10.82c-3.619995,0.23 -7.23999,0.18 -10.860001,0.150002c-0.019989,-3.66 -0.019989,-7.33 -0.039993,-11c-3.680008,0.049999 -7.350006,0.029999 -11.020004,0.039999c-0.059998,-3.65 -0.050003,-7.309999 -0.059998,-10.96c3.699997,-0.009999 7.399994,-0.02 11.089996,0c-0.080002,-3.73 0.25,-7.48 -0.179993,-11.19z" fill="#00a1e4"/>
   <path id="svg_2" d="m104.940002,30.91c11.059998,-2.66 23.199997,6.540001 22.959999,18.049999c0.849998,10.060001 -7.950005,19.489998 -17.959999,19.68c-8.970001,0.770004 -17.75,-5.84 -19.639999,-14.599998c-2.770004,-10.02 4.469994,-21.240002 14.639999,-23.130001z" fill="#00a1e4"/>
   <path id="svg_3" d="m148.910004,30.889999c11.050003,-2.619999 23.229996,6.600002 22.919998,18.110001c0.889999,10.349998 -8.529999,19.940002 -18.820007,19.669998c-9.080002,0.389999 -17.559998,-6.739998 -18.98999,-15.669998c-2.029999,-9.810001 5.059998,-20.279999 14.889999,-22.110001z" fill="#00a1e4"/>
   <path id="svg_4" d="m192.899994,30.91c10.720001,-2.549999 22.430008,6.02 22.840012,17.110001c0.860001,7.529999 -3.450012,15.099998 -10.139999,18.530003c-7.029999,3.789993 -16.340012,2.449997 -22.070007,-3.090004c-6.429993,-6.02 -7.770004,-16.619999 -2.949997,-24.009998c2.709991,-4.369999 7.25,-7.570002 12.319992,-8.540001z" fill="#00a1e4"/>
   <path id="svg_5" d="m236.960007,30.889999c9.610001,-2.16 20.029984,4.41 22.240005,14.010002c1.929993,7.389999 -1.01001,15.699997 -7.240005,20.150002c-5.790009,4.32 -14.100006,4.860001 -20.400009,1.329994c-6.880005,-3.569996 -10.970001,-11.679996 -9.779999,-19.329998c0.910004,-7.889999 7.350006,-14.77 15.180008,-16.16z" fill="#00a1e4"/>
   <path id="svg_6" d="m108.470001,96.379997c-0.279999,-7.639999 -0.150002,-15.299995 -0.07,-22.939995c43.969994,0.129997 87.939995,0.029999 131.909996,0.049995c0.01001,7.610001 0.01001,15.209999 0,22.810005c-43.949997,0.049995 -87.899994,-0.100006 -131.839996,0.079994z" fill="#00a1e4"/>
  </g>
 </g>
</svg>