<?xml version="1.0" encoding="UTF-8" standalone="no"?>
<svg
   xmlns:dc="http://purl.org/dc/elements/1.1/"
   xmlns:cc="http://creativecommons.org/ns#"
   xmlns:rdf="http://www.w3.org/1999/02/22-rdf-syntax-ns#"
   xmlns:svg="http://www.w3.org/2000/svg"
   xmlns="http://www.w3.org/2000/svg"
   xmlns:sodipodi="http://sodipodi.sourceforge.net/DTD/sodipodi-0.dtd"
   xmlns:inkscape="http://www.inkscape.org/namespaces/inkscape"
   width="485.6738"
   height="347.77026"
   viewBox="0 0 388.53904 278.21621"
   version="1.1"
   id="svg3010"
   inkscape:version="0.48.5 r10040"
   sodipodi:docname="KLM_logo.svg">
  <metadata
     id="metadata3033">
    <rdf:RDF>
      <cc:Work
         rdf:about="">
        <dc:format>image/svg+xml</dc:format>
        <dc:type
           rdf:resource="http://purl.org/dc/dcmitype/StillImage" />
        <dc:title></dc:title>
      </cc:Work>
    </rdf:RDF>
  </metadata>
  <defs
     id="defs3031" />
  <sodipodi:namedview
     pagecolor="#ffffff"
     bordercolor="#666666"
     borderopacity="1"
     objecttolerance="10"
     gridtolerance="10"
     guidetolerance="10"
     inkscape:pageopacity="0"
     inkscape:pageshadow="2"
     inkscape:window-width="1600"
     inkscape:window-height="838"
     id="namedview3029"
     showgrid="false"
     fit-margin-top="0"
     fit-margin-left="0"
     fit-margin-right="0"
     fit-margin-bottom="0"
     inkscape:zoom="1.3444164"
     inkscape:cx="237.22167"
     inkscape:cy="193.03416"
     inkscape:window-x="-8"
     inkscape:window-y="-8"
     inkscape:window-maximized="1"
     inkscape:current-layer="svg3010" />
  <rect
     style="fill:#00a1e4;fill-opacity:1;stroke:none"
     id="rect3035"
     width="349.63541"
     height="250.35901"
     x="19.451805"
     y="13.928608"
     ry="0" />
  <g
     id="g3904"
     transform="translate(7.7658821,32.022929)">
    <g
       style="fill:#ffffff"
       transform="matrix(0.78893709,0,0,0.78893709,48.20543,-1.9526214)"
       id="color_00a1e4ff">
      <path
         style="fill:#ffffff"
         inkscape:connector-curvature="0"
         id="path3013"
         d="m 168.52,0 10.98,0 c 0.09,3.73 0.08,7.45 0.06,11.18 3.67,-0.01 7.35,0.01 11.02,-0.02 0.03,3.66 0.03,7.32 -0.08,10.98 -3.64,0 -7.29,0.02 -10.93,0 0,3.6 -0.01,7.21 0.02,10.82 -3.62,0.23 -7.24,0.18 -10.86,0.15 -0.02,-3.66 -0.02,-7.33 -0.04,-11 -3.68,0.05 -7.35,0.03 -11.02,0.04 -0.06,-3.65 -0.05,-7.31 -0.06,-10.96 3.7,-0.01 7.4,-0.02 11.09,0 C 168.62,7.46 168.95,3.71 168.52,0 z" />
      <path
         style="fill:#ffffff"
         inkscape:connector-curvature="0"
         id="path3015"
         d="m 104.94,30.91 c 11.06,-2.66 23.2,6.54 22.96,18.05 0.85,10.06 -7.95,19.49 -17.96,19.68 C 100.97,69.41 92.19,62.8 90.3,54.04 87.53,44.02 94.77,32.8 104.94,30.91 z" />
      <path
         style="fill:#ffffff"
         inkscape:connector-curvature="0"
         id="path3017"
         d="m 148.91,30.89 c 11.05,-2.62 23.23,6.6 22.92,18.11 0.89,10.35 -8.53,19.94 -18.82,19.67 -9.08,0.39 -17.56,-6.74 -18.99,-15.67 -2.03,-9.81 5.06,-20.28 14.89,-22.11 z" />
      <path
         style="fill:#ffffff"
         inkscape:connector-curvature="0"
         id="path3019"
         d="m 192.9,30.91 c 10.72,-2.55 22.43,6.02 22.84,17.11 0.86,7.53 -3.45,15.1 -10.14,18.53 -7.03,3.79 -16.34,2.45 -22.07,-3.09 -6.43,-6.02 -7.77,-16.62 -2.95,-24.01 2.71,-4.37 7.25,-7.57 12.32,-8.54 z" />
      <path
         style="fill:#ffffff"
         inkscape:connector-curvature="0"
         id="path3021"
         d="m 236.96,30.89 c 9.61,-2.16 20.03,4.41 22.24,14.01 1.93,7.39 -1.01,15.7 -7.24,20.15 -5.79,4.32 -14.1,4.86 -20.4,1.33 -6.88,-3.57 -10.97,-11.68 -9.78,-19.33 0.91,-7.89 7.35,-14.77 15.18,-16.16 z" />
      <path
         style="fill:#ffffff"
         inkscape:connector-curvature="0"
         id="path3023"
         d="m 108.47,96.38 c -0.28,-7.64 -0.15,-15.3 -0.07,-22.94 43.97,0.13 87.94,0.03 131.91,0.05 0.01,7.61 0.01,15.21 0,22.81 -43.95,0.05 -87.9,-0.1 -131.84,0.08 z" />
      <path
         style="fill:#ffffff"
         inkscape:connector-curvature="0"
         id="path3025"
         d="m 0,115.75 c 11.1,0 22.2,-0.01 33.31,0.01 0.02,10.62 -0.02,21.25 0.01,31.88 11.01,-10.54 21.77,-21.33 32.78,-31.87 11.19,-0.03 22.38,-0.03 33.57,0 -12.9,13.11 -26.15,25.88 -38.95,39.08 16.13,15.64 31.71,31.86 47.98,47.33 0.14,-28.8 0.02,-57.61 0.06,-86.42 11.35,-0.02 22.7,-0.02 34.05,0 0,21.85 -0.02,43.7 0,65.55 18.13,-0.05 36.25,0.06 54.37,-0.06 0.25,7.41 0.04,14.83 0.12,22.24 -44.06,0 -88.13,0.04 -132.19,-0.02 -10.42,-10.55 -20.98,-20.96 -31.45,-31.46 -0.15,10.51 0.02,21.01 -0.09,31.52 C 22.38,203.45 11.19,203.54 0,203.48 l 0,-87.73 z" />
      <path
         style="fill:#ffffff"
         inkscape:connector-curvature="0"
         id="path3027"
         d="m 206.63,115.75 c 18.28,-0.06 36.56,0.12 54.84,-0.09 5.77,15.69 10.82,31.65 16.27,47.46 0.45,-0.71 1.09,-1.31 1.32,-2.14 5.21,-15.09 10.54,-30.14 15.8,-45.22 18.38,-0.02 36.76,-0.03 55.14,0.01 l 0,87.66 c -11.25,0.14 -22.51,0.05 -33.76,0.05 -0.02,-20.18 0.1,-40.37 -0.06,-60.56 -1.57,0.88 -1.73,2.87 -2.4,4.36 -6.53,18.75 -13.23,37.44 -19.76,56.19 -10.58,0 -21.17,0.14 -31.74,-0.07 -6.63,-19.17 -13.49,-38.25 -20.18,-57.39 -0.24,-1.07 -0.84,-1.85 -1.78,-2.35 -0.03,19.94 0.01,39.89 -0.01,59.84 -11.23,0 -22.46,0 -33.69,-0.01 0.02,-29.24 -0.01,-58.49 0.01,-87.74 z" />
    </g>
    <g
       style="fill:#ffffff;fill-opacity:1"
       transform="matrix(0.76560232,0,0,0.50645412,48.231524,183.00508)"
       id="g3856">
      <path
         inkscape:connector-curvature="0"
         style="fill:#ffffff;fill-opacity:1;fill-rule:evenodd;stroke:none"
         d="m -0.10356151,0.9943769 c 3.41752971,0 6.82564471,0 10.23375951,0 0,7.2920973 0,14.5841941 0,21.8762921 3.737629,0 7.456429,0 11.184643,0 0,-7.292098 0,-14.5841948 0,-21.8762921 3.426944,0 6.853889,0 10.280833,0 0,20.8440341 0,41.6880681 0,62.5321021 -3.426944,0 -6.853889,0 -10.280833,0 0,-8.428528 0,-16.866527 0,-25.295055 -3.728214,0 -7.447014,0 -11.184643,0 0,8.428528 0,16.866527 0,25.295055 -3.4081148,0 -6.8162298,0 -10.23375951,0 0,-20.844034 0,-41.688068 0,-62.5321021"
         id="path3858" />
      <path
         inkscape:connector-curvature="0"
         style="fill:#ffffff;fill-opacity:1;fill-rule:evenodd;stroke:none"
         d="m 38.374245,0.9943769 c 9.141657,0 18.283314,0 27.42497,0 0,4.4510204 0,8.9020408 0,13.3435911 -5.724127,0 -11.448253,0 -17.17238,0 0,3.32406 0,6.629179 0,9.943769 5.30988,0 10.619761,0 15.929642,0 0,4.252145 0,8.50429 0,12.756435 -5.309881,0 -10.619762,0 -15.929642,0 0,4.110091 0,8.220182 0,12.330274 5.893591,0 11.777767,0 17.661944,0 0,4.716187 0,9.441845 0,14.158033 -9.301706,0 -18.603413,0 -27.914534,0 0,-20.844034 0,-41.688068 0,-62.5321021"
         id="path3860" />
      <path
         inkscape:connector-curvature="0"
         style="fill:#ffffff;fill-opacity:1;fill-rule:evenodd;stroke:none"
         d="m 71.805783,0.9943769 c 3.408115,0 6.825644,0 10.233759,0 0,15.7111551 0,31.4223101 0,47.1334651 5.328711,0 10.648006,0 15.976717,0 0,5.132879 0,10.265758 0,15.398637 -8.736826,0 -17.473651,0 -26.210476,0 0,-20.844034 0,-41.688068 0,-62.5321021"
         id="path3862" />
      <path
         inkscape:connector-curvature="0"
         style="fill:#ffffff;fill-opacity:1;fill-rule:evenodd;stroke:none"
         d="m 103.07194,0.9943769 c 3.41753,0 6.83506,0 10.25259,0 0,20.8440341 0,41.6880681 0,62.5321021 -3.41753,0 -6.83506,0 -10.25259,0 0,-20.844034 0,-41.688068 0,-62.5321021"
         id="path3864" />
      <path
         inkscape:connector-curvature="0"
         style="fill:#ffffff;fill-opacity:1;fill-rule:evenodd;stroke:none"
         d="m 120.71506,0.9943769 c 3.41753,0 6.81623,0 10.23376,0 0,7.8792532 0,15.7490361 0,23.6282891 3.51167,-7.907664 7.20223,-15.7206252 10.70449,-23.6282891 4.54729,0 9.08517,0 13.62305,0 -3.96358,7.9076639 -8.12487,15.7206251 -12.08846,23.6282891 4.14246,12.993192 8.50146,25.910621 12.63451,38.903813 -4.19895,0 -8.40731,0 -12.60626,0 -2.27835,-8.570582 -4.69793,-17.103283 -6.9857,-25.683335 -1.7323,3.503995 -3.54933,6.960638 -5.28163,10.455163 0,5.076057 0,10.152114 0,15.228172 -3.41753,0 -6.81623,0 -10.23376,0 0,-20.844034 0,-41.688068 0,-62.5321021"
         id="path3866" />
      <path
         inkscape:connector-curvature="0"
         style="fill:#ffffff;fill-opacity:1;fill-rule:evenodd;stroke:none"
         d="m 156.34022,32.303044 c 0,-10.199466 1.56283,-18.145011 4.51904,-23.8461052 2.95621,-5.7010942 7.20224,-8.53270085 12.57802,-8.53270085 5.517,0 9.8101,2.74637435 12.74748,8.36223625 2.93738,5.6158618 4.47197,13.4382938 4.47197,23.5051758 0,7.292097 -0.67785,13.30571 -1.94884,17.955606 -1.28039,4.697247 -3.20099,8.295944 -5.63939,10.928676 -2.4384,2.62326 -5.53583,3.920686 -9.21697,3.920686 -3.72822,0 -6.85389,-1.07961 -9.26405,-3.371412 -2.4384,-2.282331 -4.48139,-5.795796 -5.96891,-10.663508 -1.48752,-4.877182 -2.27835,-10.966557 -2.27835,-18.258654 z m 10.23376,0.08523 c 0,6.316661 0.64961,10.824503 1.87352,13.608758 1.22391,2.784256 2.91855,4.138502 5.05568,4.138502 2.19362,0 3.93534,-1.354246 5.11217,-4.053269 1.17684,-2.699023 1.80762,-7.557265 1.80762,-14.546314 0,-5.890499 -0.65902,-10.189996 -1.87352,-12.9269 -1.25215,-2.699023 -2.98445,-4.053269 -5.131,-4.053269 -2.0524,0 -3.74704,1.354246 -4.97095,4.138502 -1.22391,2.784255 -1.87352,7.339448 -1.87352,13.69399 z"
         id="path3868" />
      <path
         inkscape:connector-curvature="0"
         style="fill:#ffffff;fill-opacity:1;fill-rule:evenodd;stroke:none"
         d="m 196.11725,0.9943769 c 5.67705,0 11.34469,0 17.01233,0 3.70939,0 6.51496,1.6478246 8.34141,4.990825 1.7982,3.3430005 2.74909,8.0591881 2.74909,14.2053841 0,6.307191 -1.01679,11.241194 -3.00329,14.802011 -1.97708,3.560816 -5.08393,5.331754 -9.21697,5.331754 -1.86411,0 -3.72822,0 -5.60174,0 0,7.737199 0,15.464928 0,23.202128 -3.42694,0 -6.84447,0 -10.28083,0 0,-20.844034 0,-41.688068 0,-62.5321021 z m 10.28083,26.6587711 c 0.83791,0 1.67582,0 2.51372,0 1.95826,0 3.37046,-0.634507 4.15188,-1.960343 0.78142,-1.287955 1.19566,-2.94525 1.19566,-4.952944 0,-1.960343 -0.34834,-3.617638 -1.03561,-4.981355 -0.69669,-1.373187 -1.9865,-2.055045 -3.9071,-2.055045 -0.96971,0 -1.93942,0 -2.91855,0 0,4.649896 0,9.299791 0,13.949687 z"
         id="path3870" />
      <path
         inkscape:connector-curvature="0"
         style="fill:#ffffff;fill-opacity:1;fill-rule:evenodd;stroke:none"
         d="m 227.2516,0.9943769 c 10.37498,0 20.74055,0 31.10611,0 0,5.1423491 0,10.2941681 0,15.4365181 -3.47401,0 -6.95745,0 -10.43146,0 0,15.701684 0,31.403369 0,47.095584 -3.41753,0 -6.82565,0 -10.23376,0 0,-15.692215 0,-31.3939 0,-47.095584 -3.48344,0 -6.95745,0 -10.44089,0 0,-5.14235 0,-10.294169 0,-15.4365181"
         id="path3872" />
      <path
         inkscape:connector-curvature="0"
         style="fill:#ffffff;fill-opacity:1;fill-rule:evenodd;stroke:none"
         d="m 262.97091,0.9943769 c 9.14166,0 18.28331,0 27.42497,0 0,4.4510204 0,8.9020408 0,13.3435911 -5.72413,0 -11.44826,0 -17.17238,0 0,3.32406 0,6.629179 0,9.943769 5.30988,0 10.61976,0 15.92964,0 0,4.252145 0,8.50429 0,12.756435 -5.30988,0 -10.61976,0 -15.92964,0 0,4.110091 0,8.220182 0,12.330274 5.89359,0 11.77777,0 17.66194,0 0,4.716187 0,9.441845 0,14.158033 -9.3017,0 -18.61282,0 -27.91453,0 0,-20.844034 0,-41.688068 0,-62.5321021"
         id="path3874" />
      <path
         inkscape:connector-curvature="0"
         style="fill:#ffffff;fill-opacity:1;fill-rule:evenodd;stroke:none"
         d="m 296.54367,63.526479 c 0,-20.834564 0,-41.688068 0,-62.5226318 5.68646,0 11.37293,0 17.0594,0 3.16333,0 5.59232,0.4924533 7.24931,1.5341815 1.65698,1.0417281 3.05035,2.8789579 4.04831,5.6632132 0.99796,2.7842551 1.52518,6.1935471 1.52518,10.1521151 0,3.466113 -0.39542,6.439774 -1.16742,8.958862 -0.77201,2.519088 -1.90177,4.545723 -3.25748,6.155666 -0.86615,0.984907 -2.07123,1.81829 -3.59641,2.462267 1.22391,0.833383 2.10889,1.572063 2.67377,2.348624 0.37659,0.511393 0.94147,1.609943 1.63815,3.276708 0.69669,1.685706 1.18625,2.992601 1.43104,3.882805 1.61932,6.042024 3.35162,12.046166 4.97095,18.08819 -3.86002,0 -7.72004,0 -11.56123,0 -1.78879,-6.364013 -3.69056,-12.728025 -5.47935,-19.110977 -0.67785,-2.462267 -1.31805,-4.091151 -1.84528,-4.810891 -0.73434,-0.984906 -1.58166,-1.458419 -2.5043,-1.458419 -0.30127,0 -0.60254,0 -0.90381,0 0,8.466409 0,16.932818 0,25.380287 -3.42694,0 -6.85389,0 -10.28083,0 z M 306.8245,26.327312 c 1.43103,0 2.88089,0 4.31192,0 0.47074,0 1.37455,-0.284107 2.71143,-0.852323 0.67786,-0.246226 1.24274,-0.890204 1.67582,-1.950873 0.41424,-1.079609 0.62137,-2.272861 0.62137,-3.636578 0,-1.988754 -0.33893,-3.560816 -1.01679,-4.640426 -0.65903,-1.079609 -1.93943,-1.628884 -3.80353,-1.628884 -1.50635,0 -3.0127,0 -4.50022,0 0,4.242675 0,8.48535 0,12.709084 z"
         id="path3876" />
      <path
         inkscape:connector-curvature="0"
         style="fill:#ffffff;fill-opacity:1;fill-rule:evenodd;stroke:none"
         d="m 330.60599,42.843439 c 3.23865,-0.397751 6.49613,-0.75762 9.73478,-1.155371 0.20712,2.992601 0.6402,5.246522 1.29923,6.837525 1.03561,2.519088 2.54196,3.788102 4.51904,3.788102 1.46869,0 2.59845,-0.643977 3.37046,-1.969813 0.79083,-1.287955 1.18625,-2.765315 1.18625,-4.469961 0,-1.628884 -0.39542,-3.068363 -1.12976,-4.356318 -0.73435,-1.287955 -2.52314,-2.462266 -5.23457,-3.617638 -4.50021,-1.950872 -7.72004,-4.413139 -9.60297,-7.595145 -1.90177,-3.182006 -2.89972,-7.178454 -2.89972,-12.084047 0,-3.182006 0.52722,-6.250369 1.48752,-9.1103865 0.96029,-2.8789579 2.48547,-5.0571168 4.46255,-6.7428224 1.93943,-1.64782463 4.66969,-2.44332615 8.13429,-2.44332615 4.21778,0 7.47526,1.47735995 9.67829,4.45102045 2.18421,2.9926009 3.53992,7.7087886 3.95417,14.2053846 -3.21982,0.359869 -6.42081,0.700799 -9.64063,1.060668 -0.24479,-2.822136 -0.80967,-4.848771 -1.6005,-6.155666 -0.82849,-1.269014 -1.97708,-1.912992 -3.40812,-1.912992 -1.20507,0 -2.09005,0.473513 -2.69259,1.420539 -0.60254,0.984906 -0.90381,2.121337 -0.90381,3.485054 0,0.984906 0.24478,1.875111 0.73434,2.689553 0.47074,0.814442 1.63816,1.572062 3.44577,2.310742 4.46256,1.85617 7.70122,3.636578 9.62181,5.492749 1.90177,1.894051 3.35163,4.185853 4.21778,6.951168 0.86615,2.784255 1.31805,5.852618 1.31805,9.26191 0,4.015389 -0.60254,7.708789 -1.76996,11.099141 -1.14859,3.371411 -2.84323,5.909439 -4.91446,7.670907 -2.09006,1.761468 -4.76383,2.651672 -7.98365,2.651672 -5.62998,0 -9.56532,-2.026635 -11.69304,-6.155667 C 332.15,54.34033 330.88843,49.15063 330.60599,42.843439"
         id="path3878" />
    </g>
  </g>
</svg>
