<?xml version="1.0" encoding="UTF-8" standalone="no"?>
<svg
   xmlns:dc="http://purl.org/dc/elements/1.1/"
   xmlns:cc="http://creativecommons.org/ns#"
   xmlns:rdf="http://www.w3.org/1999/02/22-rdf-syntax-ns#"
   xmlns:svg="http://www.w3.org/2000/svg"
   xmlns="http://www.w3.org/2000/svg"
   xmlns:sodipodi="http://sodipodi.sourceforge.net/DTD/sodipodi-0.dtd"
   xmlns:inkscape="http://www.inkscape.org/namespaces/inkscape"
   id="_레이어_1"
   version="1.1"
   viewBox="0 0 1394.125 291.122">
  <defs
     id="defs7">
    <style
       id="style2">.st2{fill-rule:evenodd;fill:#051766}</style>
    <mask
       id="mask"
       width="275.8378804"
       height="291.1227888"
       x="0"
       y="0"
       maskUnits="userSpaceOnUse">
      <g
         id="mask0_407_41521">
        <path
           id="Clip_23"
           d="M 0.001,0 H 275.838 V 291.122 H 0 Z"
           style="fill:#ffffff;fill-rule:evenodd" />
      </g>
    </mask>
  </defs>
  <g
     id="Logo">
    <g
       id="logo">
      <g
         id="Group_24"
         mask="url(#mask)">
        <path
           id="Fill_22"
           d="m 19.215,217.032 -1.165,0.801 c 23.727,43.74 68.633,73.29 119.869,73.29 76.201,0 137.919,-65.212 137.919,-145.56 0,-22.128 -9.17,-40.759 -20.014,-54.878 -14.41,-18.778 -34.934,-27.802 -55.386,-27.948 -16.885,-0.145 -34.351,5.532 -46.653,16.666 -14.047,12.737 -17.176,29.114 -20.815,55.678 -4.002,29.112 -27.438,49.2 -57.568,49.2 -39.011,0 -63.174,-24.017 -61.573,-60.772 0.146,-2.548 0.364,-5.094 0.8,-7.568 7.351,-43.377 54.004,-88.137 124.164,-87.993 47.089,0 82.46,10.553 117.832,46.143 l 1.165,-0.8 C 234.063,29.552 189.23,0 137.92,0 61.79,0 0,65.211 0,145.563 c 0,22.124 9.17,40.756 20.016,54.874 14.337,18.778 34.935,27.73 55.386,27.95 16.885,0.217 34.352,-5.534 46.651,-16.668 14.048,-12.737 17.177,-29.112 20.816,-55.677 4.003,-29.113 27.51,-49.2 57.569,-49.2 39.082,0 63.246,24.017 61.644,60.771 -0.144,2.548 -0.364,5.096 -0.798,7.571 -7.498,43.376 -53.93,88.137 -124.237,87.99 -47.09,0 -82.46,-10.552 -117.832,-46.142"
           class="st2" />
      </g>
      <path
         id="Fill_25"
         d="m 535.32,217.34 q 6.47,6.823 11.79,10.75 h -22.424 q -11.79,0 -20.575,-4.161 c -5.858,-2.775 -11.557,-7.55 -17.107,-14.333 l -55.711,-69.582 71.895,-76.98 h 36.987 l -72.127,75.593 50.166,59.18 q 10.633,12.718 17.106,19.533 m -141.71,10.75 h 32.827 V 63.034 H 393.61 Z"
         class="st2" />
      <path
         id="Fill_27"
         d="m 662.236,198.038 q 12.251,-6.933 19.187,-20.344 6.937,-13.407 6.936,-32.132 c -0.001,-18.725 -2.311,-23.194 -6.936,-32.133 q -6.936,-13.407 -19.187,-20.343 -12.255,-6.935 -27.972,-6.935 -15.952,0 -28.204,6.935 c -8.17,4.622 -14.564,11.406 -19.186,20.343 q -6.937,13.409 -6.936,32.133 c 0,18.724 2.31,23.195 6.936,32.132 q 6.932,13.409 19.186,20.344 12.253,6.933 28.204,6.934 15.716,0 27.972,-6.934 m -73.052,22.076 q -20.11,-10.747 -31.555,-30.168 -11.441,-19.418 -11.442,-44.384 c -10e-4,-24.966 3.815,-31.44 11.442,-44.385 q 11.446,-19.42 31.555,-30.17 20.114,-10.747 45.08,-10.748 24.733,10e-4 44.847,10.748 20.112,10.752 31.556,30.285 11.443,19.536 11.443,44.27 0,24.738 -11.443,44.268 -11.445,19.538 -31.556,30.284 -20.114,10.75 -44.847,10.75 -24.966,0 -45.08,-10.75"
         class="st2" />
      <path
         id="Fill_29"
         d="m 904.504,228.09 h -20.806 q -12.717,0 -21.497,-4.392 -8.789,-4.39 -16.183,-14.102 l -49.933,-67.04 h 15.026 c 12.327,0 21.65,-2.347 27.972,-7.05 q 9.477,-7.047 9.478,-20.69 0,-13.404 -9.364,-19.882 -9.362,-6.47 -28.78,-6.472 H 789.844 V 228.09 H 757.016 V 63.033 h 60.104 q 19.647,0 34.33,6.012 14.678,6.012 22.54,17.222 c 5.236,7.476 7.859,16.22 7.859,26.237 0,11.098 -3.201,20.771 -9.593,29.012 q -9.596,12.369 -26.931,18.379 l 30.282,37.912 q 15.487,19.42 28.897,30.284"
         class="st2" />
      <path
         id="Fill_31"
         d="m 1033.496,202.198 v 25.893 H 924.847 V 63.033 h 106.339 v 25.89 H 957.67 v 41.15 h 61.731 v 25.429 h -61.73 v 46.696 z"
         class="st2" />
      <path
         id="Fill_33"
         d="m 1161.098,169.604 -26.348,-60.798 -26.358,60.798 z m 63.807,58.485 h -19.644 c -6.48,0 -11.873,-1.5 -16.19,-4.506 -4.316,-3.005 -8.172,-8.358 -11.559,-16.067 l -5.55,-12.945 h -74.435 l -14.564,33.518 h -30.978 L 1127.81,63.032 h 18.03 l 58.95,128.07 c 8.33,18.03 15.035,30.364 20.115,36.987"
         class="st2" />
      <path
         id="Fill_35"
         d="m 1394.125,63.033 v 165.058 h -18.03 L 1275.303,119.44 v 108.65 h -28.208 V 63.034 h 18.038 l 100.785,108.651 V 63.034 Z"
         class="st2" />
    </g>
  </g>
</svg>
