<svg xmlns="http://www.w3.org/2000/svg" id="_레이어_1" version="1.1" viewBox="0 0 1255.5060298 295.173072"><defs><style>.st2{fill-rule:evenodd}.st2,.st3{fill:#051766}</style><mask id="mask" width="279.6755103" height="295.173072" x="0" y="0" maskUnits="userSpaceOnUse"><g id="mask0_407_41521"><path id="Clip_23" d="M.001 0h279.675v295.172H0z" style="fill:#fff;fill-rule:evenodd"/></g></mask></defs><g id="Logo"><g id="logo"><path id="Fill_25" d="M209.116-1490.323q6.47 6.822 11.79 10.75h-22.424q-11.79 0-20.575-4.161c-5.857-2.775-11.557-7.55-17.107-14.333l-55.711-69.582 71.895-76.98h36.987l-72.126 75.593 50.165 59.18q10.633 12.718 17.106 19.533m-141.71 10.75h32.827v-165.057H67.407z" class="st2"/><path id="Fill_27" d="M336.032-1509.626q12.252-6.932 19.187-20.343 6.937-13.407 6.936-32.133c-.001-18.726-2.311-23.194-6.936-32.132q-6.936-13.407-19.187-20.344-12.255-6.934-27.972-6.934-15.952 0-28.203 6.934-12.255 6.936-19.187 20.344-6.937 13.408-6.936 32.132c.001 18.724 2.31 23.196 6.936 32.133q6.932 13.41 19.187 20.343 12.25 6.935 28.203 6.935 15.716 0 27.972-6.935m-73.051 22.077q-20.11-10.747-31.556-30.168-11.441-19.418-11.442-44.385c-.001-24.967 3.815-31.439 11.442-44.384q11.446-19.42 31.556-30.17 20.113-10.747 45.079-10.748 24.734.001 44.847 10.748 20.112 10.752 31.556 30.285 11.443 19.536 11.443 44.27 0 24.738-11.443 44.267-11.445 19.538-31.556 30.285-20.113 10.75-44.847 10.75-24.966 0-45.08-10.75" class="st2"/><path id="Fill_29" d="M578.3-1479.572h-20.806q-12.717 0-21.497-4.393-8.789-4.39-16.183-14.102l-49.933-67.04h15.026c12.327 0 21.65-2.347 27.972-7.05q9.477-7.048 9.478-20.69 0-13.405-9.363-19.882c-6.242-4.312-15.836-6.472-28.781-6.472H463.64v139.629h-32.828v-165.058h60.104q19.647 0 34.33 6.012 14.679 6.012 22.54 17.222c5.236 7.476 7.859 16.22 7.859 26.237 0 11.098-3.201 20.77-9.592 29.012q-9.597 12.368-26.932 18.379l30.282 37.911q15.487 19.42 28.897 30.285" class="st2"/><path id="Fill_31" d="M707.292-1505.465v25.893H598.643v-165.058h106.339v25.89h-73.516v41.15h61.731v25.429h-61.73v46.696z" class="st2"/><path id="Fill_33" d="m834.895-1538.059-26.349-60.798-26.358 60.798zm63.806 58.485h-19.644c-6.48 0-11.873-1.5-16.19-4.507-4.316-3.004-8.172-8.357-11.558-16.066l-5.55-12.945h-74.436l-14.564 33.518h-30.978l75.825-165.057h18.03l58.951 128.07c8.33 18.03 15.034 30.364 20.114 36.987" class="st2"/><path id="Fill_35" d="M1067.92-1644.63v165.058h-18.028l-100.794-108.651v108.65H920.89v-165.057h18.038l100.785 108.65v-108.65z" class="st2"/><path id="Fill_37" d="m1265.34-1538.059-26.359-60.798-26.348 60.798zm63.806 58.485h-19.654c-6.47 0-11.872-1.5-16.189-4.507-4.306-3.004-8.163-8.357-11.55-16.066l-5.55-12.945h-74.435l-14.564 33.518h-30.978l75.825-165.057h18.03l58.951 128.07c8.32 18.03 15.024 30.364 20.114 36.987" class="st2"/><path id="Fill_39" d="M1351.335-1479.574h32.828v-165.057h-32.828z" class="st2"/><path id="Fill_41" d="M1581.112-1479.572h-20.8c-8.476 0-15.65-1.465-21.503-4.393q-8.794-4.39-16.18-14.102l-49.936-67.04h15.024c12.333 0 21.65-2.347 27.973-7.05q9.485-7.048 9.485-20.69 0-13.405-9.367-19.882c-6.245-4.312-15.837-6.472-28.786-6.472h-20.574v139.629h-32.818v-165.058h60.097c13.105 0 24.547 2.004 34.335 6.012 9.788 4.009 17.295 9.747 22.541 17.222 5.237 7.476 7.86 16.22 7.86 26.237q0 16.648-9.602 29.012-9.587 12.368-26.926 18.379l30.283 37.911q15.489 19.42 28.894 30.285" class="st2"/></g></g><g id="Group_24" style="mask:url(#mask)"><path id="Fill_22" d="m19.482 220.051-1.181.813c24.057 44.349 69.588 74.31 121.537 74.31 77.261 0 139.838-66.12 139.838-147.586 0-22.435-9.298-41.325-20.293-55.642-14.61-19.039-35.42-28.189-56.156-28.336-17.12-.147-34.83 5.609-47.303 16.898-14.241 12.914-17.414 29.519-21.104 56.452-4.058 29.518-27.82 49.885-58.37 49.885-39.553 0-64.051-24.352-62.429-61.618.148-2.583.37-5.164.812-7.673 7.453-43.98 54.755-89.363 125.89-89.217 47.745 0 83.608 10.7 119.472 46.784l1.182-.81C237.319 29.962 191.863 0 139.837 0 62.652 0 0 66.118 0 147.588c0 22.432 9.298 41.323 20.294 55.638 14.537 19.04 35.422 28.115 56.157 28.338 17.12.22 34.83-5.61 47.3-16.9 14.244-12.914 17.417-29.516 21.105-56.45 4.06-29.52 27.893-49.886 58.37-49.886 39.627 0 64.127 24.352 62.502 61.617-.145 2.583-.369 5.167-.81 7.676-7.601 43.98-54.68 89.363-125.965 89.214-47.744 0-83.606-10.699-119.47-46.784" class="st2"/></g><path d="M399.418 190.24V63.771h83.849v22.236h-55.591v81.301h12.74q14.592 0 25.71-1.62t23.858-5.096v9.264q0 13.437-15.288 16.446c-6.948 1.238-13.514 2.2-19.688 2.895q-9.267 1.043-19.225 1.043zm101.22 51.652V47.556h27.565v71.574h25.015V45.24h28.26v200.126h-28.26V141.83h-25.015v100.062zM678.295 170.088c-9.885 0-18.53-1.889-25.942-5.675-7.412-3.781-13.167-8.762-17.257-14.94-4.093-6.174-6.138-12.74-6.138-19.688q0-9.726 2.78-17.14 2.778-7.41 7.643-12.046h-27.795V79.985h130.406V100.6l-63.003.232q-10.425.001-16.909 6.834-6.486 6.834-6.485 17.719 0 10.658 6.485 16.793 6.483 6.139 15.983 6.138 10.19.001 16.677-5.675 6.485-5.673 6.486-16.33 0-6.948-2.78-11.35c-1.853-2.93-3.63-5.095-5.327-6.485h14.13c5.865 0 10.886 1.702 15.055 5.096q6.254 5.098 6.254 17.14 0 10.423-6.254 19.457c-6.254 9.034-10.04 10.85-17.604 14.477q-11.351 5.444-26.405 5.443M657.448 68.172q-9.96 0-14.477-3.475t-4.517-11.118v-8.57q3.703.928 8.34 1.39 4.63.464 8.338.463l58.833.232v21.31zm.463 174.647v-60.455h29.417v37.524h103.77v22.931zm98.906-44.348V44.546h28.258v61.844h32.66v22.7h-32.66v69.381zM903.435 163.602q-14.132.002-25.016-5.327-10.889-5.326-16.91-14.014-6.024-8.685-6.022-18.414 0-8.801 2.78-15.634 2.778-6.833 7.412-11.003h-28.026V78.363h128.09V99.21l-61.382.231q-9.729.002-15.982 6.139-6.254 6.14-6.254 15.635 0 9.5 6.138 15.055c4.09 3.706 9.15 5.56 15.172 5.56q9.261 0 15.287-5.212 6.021-5.211 6.022-14.477-.002-5.56-2.316-9.38-2.319-3.82-5.327-6.14h13.897c6.023 0 11.003 1.586 14.94 4.749q5.907 4.752 5.907 15.403c0 6.642-2.049 12.74-6.138 18.299q-6.14 8.341-17.025 13.435-10.89 5.096-25.247 5.095m-19.457-96.589q-9.96 0-14.477-3.474c-4.517-3.474-4.516-6.023-4.516-11.118v-8.338q3.702.927 8.338 1.39 4.631.464 8.338.462l56.75.232v21.078zm65.782 183.218q-17.604 0-31.153-5.327-13.552-5.331-21.195-14.94-7.643-9.61-7.643-22.352 0-12.736 7.643-22.236 7.643-9.494 21.195-14.824 13.55-5.327 31.153-5.328 17.835 0 31.386 5.328 13.549 5.33 21.078 14.824c5.016 6.333 7.528 13.745 7.528 22.236 0 8.494-2.512 15.946-7.528 22.352q-7.53 9.609-21.078 14.94-13.551 5.326-31.386 5.327m0-21.54q14.36 0 22.7-6.255 8.338-6.254 8.338-14.824 0-8.8-8.338-14.824-8.34-6.022-22.7-6.023-14.131.002-22.583 6.023-8.457 6.024-8.455 14.824-.002 8.57 8.455 14.824 8.452 6.254 22.583 6.254m31.733-67.637V45.241h28.26v50.727h32.658v22.699h-32.659v42.387zM1067.887 153.642v-22.005h71.805V96.2h29.417v35.438h86.397v22.005zm126.701-36.829q2.779-7.409 4.748-17.256c1.31-6.561 1.969-13.782 1.969-21.657v-8.339h-108.17V47.325h137.355v12.972q0 14.824-1.39 26.636-1.39 11.815-3.705 17.836-2.551 6.487-7.181 9.265-4.634 2.78-12.972 2.78zm-32.892 133.65q-19.456-.001-33.7-5.675-14.247-5.676-21.89-15.403-7.644-9.729-7.644-22.237 0-12.505 7.644-22.351 7.643-9.842 21.89-15.52 14.244-5.674 33.7-5.675 19.458.001 33.703 5.675 14.245 5.678 21.888 15.52 7.644 9.846 7.644 22.351 0 12.509-7.644 22.237-7.642 9.727-21.888 15.403-14.245 5.674-33.703 5.675m0-21.541q15.75 0 24.785-6.37t9.034-15.404q0-9.263-9.034-15.75c-6.023-4.321-14.286-6.486-24.785-6.486-10.346 0-18.57 2.165-24.668 6.486-6.102 4.324-9.149 9.576-9.149 15.75 0 6.023 3.047 11.158 9.15 15.404q9.146 6.37 24.667 6.37" class="st3"/></svg>