<svg xmlns="http://www.w3.org/2000/svg" id="Layer_1" version="1.1" viewBox="0 0 2247.7000427 553.8000488"><defs><style>.st0{fill:#051766}</style></defs><path d="M528.7 410.29h15.42l50.41 109.51c8.1 17.59 13.84 27.28 17.2 31.63h-16.8c-10.48 0-17.79-3.95-23.72-17.59l-4.74-11.07h-63.65l-12.45 28.66h-26.49l64.84-141.14zm28.46 91.13-22.54-51.99-22.54 51.99zM629.72 410.29h90.93v22.14h-62.86v35.19h52.78v21.75h-52.78v39.93h64.84v22.14h-92.91V410.29M750.9 410.29h51.4c34 0 55.35 16.41 55.35 42.3 0 19.17-11.66 33.8-31.23 40.52l25.9 32.42c10.87 13.64 18.38 20.76 24.71 25.9h-17.79c-14.43 0-23.92-4.74-32.22-15.81l-42.7-57.33h12.85c21.15 0 32.02-8.1 32.02-23.72s-10.48-22.54-32.62-22.54h-17.59v119.4h-28.07V410.29zM881.17 480.86c0-43.29 32.42-72.94 75.12-72.94s75.12 29.65 75.12 72.94-32.42 72.94-75.12 72.94-75.12-29.65-75.12-72.94m121.37 0c0-32.81-19.57-50.8-46.26-50.8s-46.26 17.99-46.26 50.8 19.57 50.8 46.26 50.8 46.26-17.99 46.26-50.8M1064.62 544.51c-12.85-7.12-15.02-17.79-15.02-34.59 16.61 13.44 34.79 22.14 54.76 22.14s26.09-7.31 26.09-18.19c0-8.7-4.35-15.42-17.99-18.78l-21.94-5.34c-25.7-6.33-38.15-20.56-38.15-40.13 0-25.9 21.15-41.71 53.97-41.71 11.66 0 21.75 1.98 28.07 4.35 16.41 6.13 19.57 15.62 19.57 31.23-11.66-7.51-29.26-13.84-46.45-13.84s-26.88 6.52-26.88 16.41c0 9.09 6.72 14.83 22.14 18.78l17 4.35c27.28 6.92 39.14 19.37 39.14 41.12 0 28.66-21.35 43.49-53.18 43.49-15.42 0-30.64-3.56-41.12-9.29zM1185.2 410.29h52.38c34.79 0 56.73 18.58 56.73 47.64s-21.94 47.64-56.73 47.64h-24.51v45.86h-27.87zm46.85 73.53c22.14 0 33.8-8.7 33.8-25.9s-11.66-25.9-33.8-25.9h-18.98v51.79h18.98zM1348.09 410.29h15.42l50.41 109.51c8.1 17.59 13.84 27.28 17.2 31.63h-16.8c-10.48 0-17.79-3.95-23.72-17.59l-4.74-11.07h-63.65l-12.45 28.66h-26.49l64.84-141.14zm28.47 91.13-22.54-51.99-22.54 51.99zM1433.49 481.85c0-45.07 29.85-73.93 73.54-73.93 13.05 0 26.69 2.57 35.98 8.5s11.86 13.64 11.86 32.02c-15.81-13.05-28.66-18.38-44.48-18.38-30.25 0-48.04 19.77-48.04 51.59 0 34.2 20.76 50.01 47.64 50.01 16.21 0 30.25-5.73 45.07-18.19 0 13.84-.59 24.31-12.06 31.83-7.31 4.74-19.37 8.5-35.98 8.5-46.45 0-73.54-29.06-73.54-71.95zM1585.71 410.29h90.93v22.14h-62.86v35.19h52.78v21.75h-52.78v39.93h64.84v22.14h-92.91zM22.65 255.75l-1.37.95c27.95 51.55 80.88 86.37 141.25 86.37 89.8 0 162.53-76.85 162.53-171.54 0-26.08-10.81-48.03-23.58-64.67-16.98-22.13-41.17-32.76-65.27-32.94-19.9-.17-40.48 6.52-54.98 19.64-16.55 15.01-20.24 34.31-24.53 65.62-4.72 34.31-32.34 57.98-67.85 57.98-45.97 0-74.45-28.3-72.56-71.62.17-3 .43-6 .95-8.92C25.9 85.5 80.88 32.75 163.56 32.93c55.49 0 97.18 12.44 138.86 54.38l1.37-.95C275.83 34.82 223 0 162.53 0 72.81 0 0 76.85 0 171.54c0 26.08 10.81 48.03 23.58 64.67 16.9 22.13 41.17 32.68 65.27 32.94 19.9.25 40.48-6.52 54.98-19.64 16.55-15.01 20.24-34.31 24.53-65.62 4.72-34.31 32.42-57.98 67.85-57.98 46.06 0 74.53 28.3 72.65 71.62-.17 3-.43 6-.95 8.92-8.83 51.12-63.55 103.87-146.41 103.69-55.49 0-97.18-12.45-138.85-54.38zM463.86 74.27h38.68v194.52h-38.68zm167 181.84c5.08 5.36 9.72 9.58 13.89 12.67h-26.42c-9.26 0-17.35-1.63-24.25-4.9-6.91-3.27-13.62-8.9-20.16-16.89l-65.65-82 84.72-90.72h43.58l-85 89.08 59.12 69.74c8.36 9.99 15.08 17.66 20.17 23.02M694.34 259.38c-15.8-8.45-28.2-20.29-37.18-35.55-8.99-15.25-13.48-32.69-13.48-52.31s4.49-37.05 13.48-52.31c8.99-15.25 21.38-27.11 37.18-35.55 15.8-8.45 33.51-12.67 53.12-12.67s37.05 4.22 52.85 12.67 28.2 20.35 37.18 35.68c8.99 15.35 13.48 32.74 13.48 52.17s-4.49 36.82-13.48 52.17-21.38 27.25-37.18 35.68c-15.8 8.45-33.42 12.67-52.85 12.67-19.62.02-37.32-4.21-53.12-12.65m86.08-26.01c9.62-5.45 17.16-13.44 22.61-23.98 5.45-10.53 8.17-23.15 8.17-37.87s-2.72-27.33-8.17-37.87c-5.45-10.53-12.98-18.52-22.61-23.98-9.63-5.45-20.62-8.17-32.96-8.17s-23.61 2.72-33.24 8.17-17.16 13.45-22.62 23.98c-5.45 10.53-8.17 23.15-8.17 37.87s2.72 27.34 8.17 37.87c5.45 10.54 12.98 18.52 22.62 23.98 9.62 5.45 20.71 8.17 33.24 8.17 12.35 0 23.33-2.72 32.96-8.17M1065.92 268.78h-24.52c-9.99 0-18.44-1.72-25.34-5.18-6.91-3.45-13.26-8.99-19.07-16.62l-58.85-79.01h17.71c14.53 0 25.52-2.77 32.96-8.31 7.45-5.54 11.17-13.66 11.17-24.38s-3.68-18.34-11.03-23.43c-7.35-5.08-18.66-7.63-33.92-7.63h-24.25v164.55H892.1V74.27h70.83c15.44 0 28.92 2.36 40.45 7.08s20.38 11.49 26.56 20.3c6.17 8.81 9.26 19.12 9.26 30.92 0 13.08-3.77 24.48-11.31 34.19q-11.31 14.58-31.74 21.66l35.68 44.68c12.18 15.24 23.54 27.14 34.07 35.67zM1217.94 238.27v30.52H1089.9V74.27h125.32v30.52h-86.63v48.49h72.74v29.97h-72.74v55.03h89.35zM1443.51 268.78h-23.15c-7.63 0-13.98-1.77-19.07-5.32-5.08-3.54-9.63-9.85-13.62-18.93l-6.54-15.25h-87.72l-17.16 39.5h-36.51l89.35-194.51h21.25l69.47 150.92c9.82 21.25 17.72 35.78 23.71 43.58zm-75.2-68.92-31.05-71.65-31.05 71.65h62.11zM1642.92 74.27v194.52h-21.25l-118.78-128.04v128.04h-33.24V74.27h21.25l118.78 128.04V74.27zM1950.76 268.78h-23.15c-7.63 0-13.98-1.77-19.07-5.32-5.08-3.54-9.63-9.85-13.62-18.93l-6.54-15.25h-87.72l-17.16 39.5h-36.51l89.35-194.52h21.25l69.47 150.92c9.82 21.25 17.72 35.78 23.71 43.59zm-75.19-68.92-31.05-71.65-31.05 71.65h62.11zM1976.91 74.27h38.68v194.52h-38.68zM2247.7 268.78h-24.52c-9.99 0-18.44-1.72-25.34-5.18-6.9-3.45-13.26-8.99-19.07-16.62l-58.85-79.01h17.71c14.53 0 25.52-2.77 32.96-8.31 7.45-5.54 11.17-13.66 11.17-24.38s-3.68-18.34-11.03-23.43c-7.35-5.08-18.66-7.63-33.92-7.63h-24.25v164.55h-38.68V74.27h70.83c15.43 0 28.92 2.36 40.45 7.08s20.38 11.49 26.56 20.3c6.17 8.81 9.26 19.12 9.26 30.92 0 13.08-3.77 24.48-11.31 34.19q-11.31 14.58-31.74 21.66l35.69 44.68c12.17 15.24 23.52 27.14 34.05 35.67z" class="st0"/></svg>