<svg xmlns="http://www.w3.org/2000/svg" width="676" height="52" viewBox="0 0 169 13"><path fill="#233979" d="m119.05544 4.72523.319-.225s.132-.056.038-.412c-.094-.357-.656-2.494-.656-2.494s-.038-.45-.619-.431c-.582.018-.619.262-.619.262s-.263.075-.525-.037c-.263-.113-1.388-.469-2.382-.469-.993 0-3.131.131-4.668 2.456 0 0-1.519 2.494-.6 5.456 0 0 .862 2.757 3.844 3.375 0 0 .693.169 1.95.169 0 0 2.006-.094 2.962-.487 0 0 .469-.019.657-.563.187-.544.899-2.119.899-2.119s.206-.337-.149-.6c-.357-.262-.244-.168-.244-.168s-.357-.244-.506.018c-.151.263-1.276 2.475-3.02 2.475-1.743 0-2.343-2.043-2.381-3.262 0 0-.131-2.456.225-3.619 0 0 .357-1.725 1.857-1.725 0 0 1.518-.15 2.887 2.138 0 0 .263.506.731.262"/><path fill="#233979" d="M128.48744 3.84423c.543 1.369 2.381 4.95 2.381 4.95s.469 1.387 1.238 1.387c.768 0 .75-1.612.75-1.612s.018-2.794-.075-4.5c-.094-1.706-.807-1.969-1.126-2.231-.318-.263-.187-.507-.187-.507.112-.468.619-.318.619-.318 3.225.281 8.231-.225 8.231-.225s.581-.038 1.406.206c.826.244 1.557 1.219 1.557 2.156 0 .938-.394 1.238-.394 1.238-.412.843-2.663 1.537-2.663 1.537 2.157 0 2.757 1.481 2.757 1.481s.994 1.838 1.125 2.101c.131.262.468.731.731.768.263.038.3.019.544.357.243.337-.094.506-.094.506-1.669.75-2.719.956-3.882.975-1.162.019-1.593-1.294-1.593-1.294s-1.219-2.7-1.65-3.506c-.431-.806-1.275-.544-1.275-.544s.018 1.387.056 2.381c.038.994.906 1.513 1.269 1.788.362.275.012.637.012.637-.162.238-.337.163-.337.163-5.475-.25-11.557.131-11.857.15-.3.018-.337-.3-.337-.3-.187-.375.188-.525.188-.525.806-.394.656-1.125.656-1.125 0-1.275-.375-1.575-.375-1.575h-3.394c-.656 1.068-.581 1.987-.581 1.987-.038.563.393.806.393.806.244.169.132.507.132.507-.057.375-.338.318-.338.318-1.2-.224-2.737-.056-3-.018-.263.037-.375-.263-.375-.263-.131-.187.038-.431.038-.431l.131-.188c1.706-1.762 2.044-2.699 2.044-2.699.581-.863 1.425-2.926 1.425-2.926s.675-1.612.675-1.781c0-.169-.469-.45-.882-.6-.412-.15-.412-.412-.412-.412-.019-.244.113-.469.412-.544.3-.075 2.363-.863 2.982-1.331.618-.469 1.012-.413 1.012-.413.882 0 1.257 1.575 1.257 1.575s.262.525.806 1.894m-3.113 2.812s-.656-1.2-.862-1.556c-.206-.356-.375 0-.375 0s-.581 1.238-.75 1.65c-.169.413.15.338.15.338h1.725c.375 0 .112-.432.112-.432m13.613-2.981s.112-1.444-1.013-1.425c-1.125.019-1.125 1.519-1.125 1.519l.019 1.781c2.194.281 2.119-1.875 2.119-1.875"/><path fill="#233979" d="M154.54944 4.18123s.338.038.544-.3c0 0 .169-.131 0-.543-.169-.413-.562-1.913-.637-2.363-.075-.45-.582-.431-.582-.431s-.412.019-.656.225c-.243.206-.637 0-.637 0s-1.013-.375-2.306-.375c-1.294 0-3.394.431-4.725 2.362 0 0-1.219 1.744-.938 4.182 0 0 .019 2.587 1.988 3.9 0 0 1.443 1.106 3.581.993 0 0 1.162.057 2.737-.431 0 0 .975-.225 1.857 0 0 0 .581.169.768-.244 0 0 .15-.243.019-.6-.131-.356-.094-2.831-.056-3.018.037-.188.019-.375.168-.507.151-.131.319-.262.319-.262s.338-.131.131-.488c0 0 0-.337-.487-.281-.487.056-2.306.131-4.162.056 0 0-.582-.131-.675.3l-.019.244s-.075.15.244.338c.318.187.712.412.75.918.037.507-.019 1.369-.019 1.369s.112 1.294-1.144 1.294-1.631-1.613-1.744-2.625c0 0-.318-2.55 0-4.106 0 0 .244-2.007 1.969-2.082 0 0 1.313-.225 2.775 1.65 0 0 .6.938.937.825"/><path fill="#233979" d="M168.81244 5.93823c-.025 5.95-6 6-6 6-6.4-.05-6.3-5.85-6.3-5.85.2-5.875 6.05-5.9 6.05-5.9 6.275.025 6.25 5.75 6.25 5.75m-6.2-4.45s-1.825-.3-1.825 4.4c0 0-.175 4.75 1.9 4.725 0 0 2.075.375 1.875-4.7 0 0 .325-4.425-1.95-4.425"/><path fill="#fff" d="M18.65444 12.78123c3.438 0 6.224-2.787 6.224-6.225 0-3.437-2.786-6.224-6.224-6.224-3.437 0-6.224 2.787-6.224 6.224 0 3.438 2.787 6.225 6.224 6.225"/><path fill="#233979" d="M7.66044 4.50023c1.032-.75.882-1.219.882-1.219 0-.637-.675-1.106-.863-1.293-.187-.188 0-.507 0-.507.113-.243.413-.243.413-.243 1.95.187 3.9.037 4.312-.019.413-.056.432.206.432.206l.075.244c.112.412-.357.562-.357.562-1.781.788-3.6 2.738-3.6 2.738s2.869 3.469 3.356 4.031c.488.563.732.375.732.375-1.2-2.606-.281-4.894-.056-5.362.225-.469.112.037.112.037-1.069 3.844 1.613 6.3 3.656 6.3 2.044 0 1.932-1.612 1.932-1.612v-.825c.243-3.019 2.718-2.907 2.718-2.907 2.625.057 2.757 2.532 2.757 2.532.243 3.862-3.413 5.493-6.132 5.25-2.718-.244-4.2-2.194-4.2-2.194-.618.525-2.1 1.331-2.1 1.331-2.025 1.069-2.981-.656-2.981-.656-2.7-3.994-3.206-4.2-3.206-4.2s0 .731.018 1.894c.019 1.162.769 1.762 1.05 1.968.282.207.132.469.132.469l-.132.263c-.093.206-.3.131-.3.131-2.925-.225-5.231 0-5.55.037-.318.038-.412-.149-.412-.149l-.131-.244c-.113-.282.131-.469.131-.469.919-.806 1.012-1.462 1.144-2.606.131-1.144.037-4.088.037-4.088-.037-1.556-.9-2.062-1.106-2.212-.206-.15-.075-.488-.075-.488l.075-.15c.094-.187.337-.169.337-.169 3.694.169 5.55-.037 5.55-.037.319-.038.375.262.375.262l.075.188c.094.244-.168.356-.168.356-1.069.694-1.013 2.175-1.013 2.175l-.019 1.763c.432-.225 1.069-.713 2.1-1.463"/><path fill="#d52528" d="M18.59244 4.80023c0-1.706.937-2.006 1.819-2.006.881 0 1.668.431 1.668.431 2.232 1.163 2.307 3.731 2.307 3.731.131.994-.075 1.463-.207 2.044-.131.581.094.113.094.113.544-1.106 1.088-3.432-.356-5.794-1.444-2.363-3.544-3.019-5.55-3.019s-5.288 1.65-5.288 4.744 2.625 3.056 2.625 3.056c2.175 0 2.888-1.593 2.888-3.3"/><path fill="#233979" d="M33.57344 1.08823s-5.287.393-8.137.131c0 0-.338-.094-.432.3 0 0-.187.3.113.506.3.206 1.162.713 1.162 2.588v3.618s.169 1.988-1.2 2.738c0 0-.281.094-.131.487 0 0 .019.357.413.301.393-.057 2.606-.226 5.643-.019 0 0 .263.019.338-.15.075-.169.094-.188.094-.188s.262-.262-.131-.525c-.394-.262-1.051-.656-1.107-2.325-.056-1.668 0-1.706 0-1.706h.244s.844-.075 1.406 1.2c0 0 1.088 2.625 1.257 2.944.168.319.487.993 1.668.881 1.182-.112 6.694-.506 12.544.019 0 0 .638.093.881-.525 0 0 1.013-2.719 1.257-3.15 0 0 2.137-.057 3.3-.038 0 0 .431.731.431 1.613 0 .881-.769 1.087-.769 1.087s-.319.132-.169.525c0 0 .057.375.432.338.375-.038 3.731-.356 8.794-.038 0 0 .337.131.45-.318 0 0 .206-.357-.15-.526 0 0-1.332-.3-1.332-2.418 0-2.119.019-3.619.019-3.619s1.013 1.444 2.213 3.6c1.2 2.156 1.837 3.075 1.837 3.075s.6 1.162 1.781.544c1.182-.619 2.457-1.332 3.188-1.838 0 0 .281-.131.131-.487l-.112-.225s-.019-.132-.413-.169c0 0-.881.206-.9-1.05-.019-1.256-.075-3.038 0-4.856 0 0 .038-1.125 1.069-1.444 0 0 .375-.038.206-.488l-.112-.225s0-.187-.263-.15c-.262.038-1.725.169-3.281.038 0 0-.338 0-.375.375 0 0-.094.337.169.45.262.112 1.181.45 1.237 1.894.056 1.443.075 3.45.075 3.45s-2.137-3.15-3.506-5.569c0 0-.225-.656-1.031-.6-.807.056-2.738.15-4.144.019 0 0-.394-.057-.45.393 0 0-.113.394.225.563 0 0 1.125.712 1.125.956s-.019 5.231-.019 5.231.094 2.044-.45 1.782c0 0-.319.206-1.087-1.2-.769-1.407-1.763-3.413-3.376-7.313 0 0-.337-1.087-1.031-1.087 0 0-.412.018-.844.262-.431.244-1.8 1.013-3.225 1.425 0 0-.375.113-.262.488 0 0-.056.281.356.431.413.15.769.319.881.525 0 0-.431 1.387-1.218 2.812-.788 1.425-1.8 3.788-4.707 3.788h-1.143s-.3.038-.3-.375v-3.019h.75s1.218-.262 1.8 1.313c0 0 .112.487.525.3 0 0 .468-.056.431-.525-.038-.469-.075-1.744.019-2.869 0 0 .037-.338-.338-.413 0 0-.3-.15-.525.094-.225.244-.694.825-1.762.825h-.882v-2.812s-.018-.188.113-.207c.131-.018 1.762-.412 2.719.357.956.768 1.012 1.087 1.218 1.368 0 0 .188.469.675.15 0 0 .375-.056.188-.637-.188-.581-.244-.788-.563-2.25 0 0-.056-.619-.693-.563-.638.057-4.632.525-8.382.225 0 0-.393-.093-.468.319 0 0-.169.281.15.544 0 0 1.106.506 1.106 2.456v3.263s.187 2.587-.731 2.587c0 0-.394.169-1.069-1.162-.675-1.332-.713-1.369-.713-1.369s-.543-1.744-2.887-1.819c0 0 3.244-.544 2.944-2.981 0 0-.057-1.856-2.494-1.931zm-3.393 4.593v-1.837s.018-1.369 1.106-1.369c1.087 0 .95 1.33.959 1.5.01.17-.059 1.706-2.065 1.706m19.837 1.238s.694-1.631.994-2.1c0 0 .844 1.162 1.144 2.119 0 0-.957.15-2.138-.019"/><path fill="#233979" d="M86.28044 7.72523s.075 2.456-.844 2.288c0 0-.319.206-1.087-1.2-.769-1.407-1.763-3.413-3.375-7.313 0 0-.338-1.087-1.032-1.087 0 0-.412.018-.843.262-.431.244-1.8 1.013-3.225 1.425 0 0-.375.113-.263.488 0 0-.056.281.356.431.413.15.769.319.882.525 0 0-.432 1.387-1.219 2.812-.788 1.425-1.481 3.507-3.338 4.444 0 0-.359.076-.243.507.131.487.375.356.375.356 2.156-.225 2.812-.038 3.3 0 .487.037.412-.356.412-.356.132-.244-.037-.394-.037-.394l-.206-.263s-.807-.206.337-2.512c0 0 2.137-.057 3.3-.038 0 0 .431.731.431 1.613 0 .881-.769 1.087-.769 1.087s-.318.131-.168.525c0 0 .056.375.431.338.375-.038 6.6-.3 11.663.019 0 0 .356.018.45-.3 0 0 .206-.394-.15-.619 0 0-.994-.45-1.069-2.044-.075-1.594-.057-4.613-.057-4.613s-.075-1.687.994-2.212c0 0 .282-.131.132-.506 0 0-.076-.357-.413-.319-.337.037-3.881.225-5.55.019 0 0-.375-.019-.45.3 0 0-.187.3.131.543.319.244 1.144.807 1.144 2.55zm-8.494-3.037c1.013 1.443 1.144 2.118 1.144 2.118-.806.132-2.138-.018-2.138-.018.394-1.05.994-2.1.994-2.1"/><path fill="#233979" d="M101.20544.93823s-4.125.487-7.95.112c0 0-.487-.131-.544.375 0 0-.037.338.169.469.206.131 1.05.637 1.107 2.4.056 1.762.093 1.256.056 3.656 0 0 .15 2.307-1.163 2.869 0 0-.337.075-.15.563 0 0 .112.375.431.243 0 0 3.075-.206 5.738.019 0 0 .3.113.394-.281 0 0 .243-.263-.132-.544s-1.049-.769-1.125-1.95c-.074-1.181-.056-2.119-.056-2.119h.263s.881-.112 1.481 1.275c.6 1.388 1.012 2.4 1.012 2.4s.394 1.106 1.032 1.463c0 0 .262.244 1.237.131 0 0 1.594-.094 3.169-.825 0 0 .356-.075.244-.488 0 0 .075-.318-.375-.412-.45-.094-.788-.525-1.107-1.162-.318-.638-.806-1.576-.806-1.576s-.656-1.631-2.793-1.65c0 0 2.943-.506 2.943-2.718 0-2.213-2.625-2.25-2.625-2.25zm-3.225 4.668v-1.837s.038-1.368 1.069-1.368 1.049 1.159.995 1.537c-.053.378-.151 1.668-2.064 1.668"/></svg>