<?xml version="1.0" encoding="UTF-8"?>
<svg id="Layer_2" data-name="Layer 2" xmlns="http://www.w3.org/2000/svg" viewBox="0 0 538.4 94.96">
  <defs>
    <style>
      .cls-1 {
        fill: #003087;
      }

      .cls-2 {
        fill: #da291c;
      }
    </style>
  </defs>
  <g id="Layer_1-2" data-name="Layer 1">
    <g>
      <g>
        <path class="cls-2" d="M5.51,38.93c0,11.58,9.5,21.08,21.08,21.08s21.08-9.5,21.08-21.08v-10.07c0-3.99,4.37-11.01,14.62-11.01,13.86,0,30.96,15.19,30.96,33.42,0,13.1-5.32,22.03-8.36,25.83,6.46-7.98,10.45-18.42,10.45-29.44C95.15,21.27,74.64,0,47.48,0c-12.34,0-23.74,4.75-32.29,12.53C3.8,23.93,5.51,38.93,5.51,38.93Z"/>
        <path class="cls-1" d="M89.64,56.02c0-11.58-9.5-21.08-21.08-21.08s-21.08,9.5-21.08,21.08v10.07c0,3.99-4.37,11.01-14.62,11.01-13.86,0-30.96-15.19-30.96-33.42,0-13.1,5.32-22.03,8.36-25.83C3.99,25.83,0,36.27,0,47.29c0,26.4,20.51,47.67,47.67,47.67,12.34,0,23.74-4.75,32.29-12.53,11.39-11.39,9.69-26.4,9.69-26.4Z"/>
      </g>
      <g>
        <polygon class="cls-1" points="188.01 40.07 178.33 40.07 178.33 20.13 163.9 20.13 163.9 77.1 178.33 77.1 178.33 52.61 188.01 52.61 188.01 77.1 202.45 77.1 202.45 20.13 188.01 20.13 188.01 40.07"/>
        <polygon class="cls-1" points="311.27 20.13 296.83 20.13 296.83 59.44 311.27 59.44 311.27 46.15 318.1 46.15 318.1 34.94 311.27 34.94 311.27 20.13"/>
        <polygon class="cls-1" points="237.39 77.1 311.08 77.1 311.08 67.61 252.58 67.61 252.58 61.91 237.39 61.91 237.39 77.1"/>
        <path class="cls-1" d="M156.68,77.1v-11.2h-16.14V31.34h16.14v-11.2h-23.55c-3.8,0-7.03,3.04-7.03,6.84v50.14h30.58Z"/>
        <polygon class="cls-1" points="291.14 20.13 271.39 20.13 271.39 17.28 256.95 17.28 256.95 20.13 237.39 20.13 237.39 31.34 291.14 31.34 291.14 20.13"/>
        <path class="cls-1" d="M249.36,58.68h29.82c6.65,0,11.96-5.13,11.96-11.58h0c0-6.46-5.32-11.58-11.96-11.58h-29.82c-6.65,0-11.96,5.13-11.96,11.58h0c0,6.46,5.32,11.58,11.96,11.58ZM253.72,44.06h21.08c1.71,0,3.23,1.33,3.23,3.04s-1.52,3.04-3.23,3.04h-21.08c-1.71,0-3.23-1.33-3.23-3.04,0-1.71,1.33-3.04,3.23-3.04Z"/>
        <polygon class="cls-1" points="422.94 20.13 408.5 20.13 408.5 53.37 422.94 53.37 422.94 45.01 428.63 45.01 428.63 33.8 422.94 33.8 422.94 20.13"/>
        <polygon class="cls-1" points="401.67 20.13 382.11 20.13 382.11 17.28 367.1 17.28 367.1 20.13 347.54 20.13 347.54 30.01 401.67 30.01 401.67 20.13"/>
        <path class="cls-1" d="M461.49,20.13v9.88h59.25v8.55h-22.41v-5.89h-15.76v5.89h-22.41v9.88h78.05v-9.88h-3.23v-12.72c0-3.23-2.66-5.7-5.89-5.7,0,0-67.61,0-67.61,0Z"/>
        <path class="cls-1" d="M526.25,53.75h-53.94c-6.65,0-12.15,5.32-12.15,11.77s5.51,11.77,12.15,11.77h53.94c6.65,0,12.15-5.32,12.15-11.77s-5.51-11.77-12.15-11.77ZM521.88,68.37h-45.2c-1.71,0-3.04-1.33-3.04-2.85s1.33-2.85,3.04-2.85h45.2c1.71,0,3.04,1.33,3.04,2.85-.19,1.52-1.52,2.85-3.04,2.85Z"/>
        <path class="cls-1" d="M357.61,53.37h33.99c5.51,0,10.07-4.37,10.07-9.88s-4.56-9.88-10.07-9.88h-33.99c-5.51,0-10.07,4.37-10.07,9.88s4.56,9.88,10.07,9.88ZM362.54,41.02h24.12c1.52,0,2.66,1.14,2.66,2.66s-1.14,2.66-2.66,2.66h-24.12c-1.52,0-2.66-1.14-2.66-2.66-.19-1.52,1.14-2.66,2.66-2.66Z"/>
        <path class="cls-1" d="M413.44,58.11h-56.4c-5.32,0-9.5,4.37-9.5,9.88s4.37,9.88,9.5,9.88h56.4c5.32,0,9.5-4.37,9.5-9.88s-4.37-9.88-9.5-9.88ZM406.98,70.65h-43.68c-1.52,0-2.66-1.33-2.66-2.85s1.14-2.85,2.66-2.85h43.68c1.52,0,2.66,1.33,2.66,2.85,0,1.71-1.14,2.85-2.66,2.85Z"/>
      </g>
    </g>
  </g>
</svg>