<svg xmlns="http://www.w3.org/2000/svg" id="_레이어_1" version="1.1" viewBox="0 0 1275.3301813 315.4307427"><defs><style>.st2{fill-rule:evenodd}.st2,.st3{fill:#051766}</style><mask id="mask" width="184.4395338" height="194.6598175" x="0" y="0" maskUnits="userSpaceOnUse"><g id="mask0_407_41521"><path id="Clip_23" d="M0 0h184.44v194.66H0z" style="fill:#fff;fill-rule:evenodd"/></g></mask></defs><g id="Logo"><g id="logo"><g id="Group_24" style="mask:url(#mask)"><path id="Fill_22" d="m12.848 145.119-.779.536c15.865 29.247 45.892 49.005 80.15 49.005 50.953 0 92.22-43.604 92.22-97.33 0-14.795-6.131-27.252-13.382-36.694-9.635-12.555-23.359-18.59-37.034-18.687-11.29-.097-22.969 3.699-31.194 11.144-9.393 8.517-11.485 19.467-13.918 37.23-2.676 19.465-18.347 32.897-38.494 32.897-26.084 0-42.24-16.06-41.17-40.636.097-1.703.243-3.405.535-5.06 4.915-29.004 36.11-58.933 83.022-58.836 31.486 0 55.137 7.056 78.788 30.853l.78-.534C156.507 19.759 126.529 0 92.22 0 41.317 0 0 43.604 0 97.33c0 14.794 6.132 27.252 13.384 36.693 9.586 12.556 23.36 18.54 37.033 18.688 11.29.145 22.97-3.7 31.194-11.145 9.393-8.516 11.486-19.465 13.918-37.228 2.677-19.467 18.395-32.898 38.494-32.898 26.133 0 42.29 16.06 41.219 40.635-.096 1.704-.244 3.407-.534 5.062-5.013 29.004-36.061 58.933-83.071 58.835-31.487 0-55.137-7.056-78.789-30.853" class="st2"/></g><path id="Fill_25" d="M357.942 145.325q4.327 4.562 7.885 7.188h-14.995q-7.882 0-13.757-2.782-5.874-2.782-11.439-9.584L288.385 93.62l48.073-51.474h24.731l-48.227 50.546 33.542 39.57q7.111 8.505 11.438 13.062m-94.753 7.188h21.949V42.147h-21.95z" class="st2"/><path id="Fill_27" d="M442.806 132.418q8.191-4.635 12.829-13.603 4.637-8.964 4.637-21.485c0-12.521-1.545-15.509-4.637-21.485q-4.638-8.965-12.83-13.603-8.194-4.637-18.703-4.637-10.666 0-18.859 4.637c-5.463 3.09-9.738 7.627-12.829 13.603q-4.637 8.964-4.637 21.485c0 12.521 1.545 15.51 4.637 21.485q4.635 8.967 12.83 13.603 8.192 4.637 18.858 4.637 10.509 0 18.704-4.637m-48.847 14.761q-13.446-7.185-21.1-20.171-7.65-12.984-7.65-29.678c0-16.694 2.551-21.022 7.65-29.678q7.654-12.984 21.1-20.173 13.448-7.185 30.143-7.186 16.538 0 29.987 7.186 13.447 7.19 21.1 20.25 7.65 13.063 7.651 29.601 0 16.542-7.651 29.6-7.653 13.064-21.1 20.25-13.448 7.187-29.987 7.187-16.695 0-30.143-7.188" class="st2"/><path id="Fill_29" d="M604.798 152.513h-13.911q-8.505 0-14.375-2.937-5.876-2.935-10.82-9.43L532.303 95.32h10.047q12.364.001 18.703-4.714 6.337-4.712 6.338-13.835 0-8.962-6.261-13.293-6.26-4.326-19.244-4.328H528.13v93.363H506.18V42.147h40.189q13.137 0 22.955 4.02 9.814 4.02 15.071 11.516 5.253 7.498 5.255 17.543-.002 11.132-6.414 19.4-6.417 8.27-18.008 12.288l20.248 25.35q10.356 12.985 19.322 20.25" class="st2"/><path id="Fill_31" d="M691.049 135.2v17.313H618.4V42.147h71.103V59.46h-49.156v27.515h41.277v17.003h-41.277V135.2z" class="st2"/><path id="Fill_33" d="m776.37 113.406-17.617-40.653-17.625 40.653zm42.665 39.106H805.9q-6.498.001-10.825-3.013-4.331-3.013-7.729-10.743l-3.71-8.656h-49.772l-9.739 22.412h-20.713l50.7-110.365h12.056l39.418 85.634c5.57 12.056 10.052 20.303 13.449 24.731" class="st2"/><path id="Fill_35" d="M932.184 42.147v110.366H920.13l-67.396-72.65v72.65h-18.861V42.147h12.061l67.39 72.65v-72.65z" class="st2"/><path id="Fill_37" d="m1064.189 113.406-17.625-40.653-17.618 40.653zm42.664 39.106h-13.142c-4.326 0-7.938-1.003-10.824-3.013-2.88-2.01-5.459-5.589-7.723-10.743l-3.71-8.656h-49.772l-9.739 22.412H991.23l50.7-110.365h12.056l39.418 85.634c5.563 12.056 10.046 20.303 13.449 24.731" class="st2"/><path id="Fill_39" d="M1121.69 152.512h21.95V42.147h-21.95z" class="st2"/><path id="Fill_41" d="M1275.33 152.513h-13.907c-5.668 0-10.465-.979-14.379-2.937q-5.88-2.935-10.818-9.43l-33.39-44.826h10.046c8.246 0 14.476-1.57 18.704-4.714q6.342-4.712 6.342-13.835 0-8.962-6.263-13.293-6.262-4.326-19.248-4.328h-13.757v93.363h-21.944V42.147h40.184q13.143 0 22.959 4.02c6.544 2.68 11.564 6.518 15.072 11.516q5.253 7.498 5.255 17.543 0 11.132-6.42 19.4-6.41 8.27-18.004 12.288l20.249 25.35q10.356 12.985 19.32 20.25" class="st2"/></g></g><path d="M305.216 315.43q-13.099 0-22.445-5.15-9.348-5.147-14.273-14.328-4.927-9.18-4.926-21.27 0-12.762 5.262-22.165 5.261-9.404 14.664-14.553 9.404-5.149 21.718-5.15 5.596.001 11.027 1.12 5.428 1.12 9.347 3.694 3.918 2.465 5.318 6.38 1.399 3.92 1.4 11.755-6.718-5.596-12.595-8.004-5.877-2.406-12.594-2.406-12.875 0-20.038 7.836-7.165 7.837-7.165 21.381 0 9.63 3.582 15.953 3.581 6.324 9.684 9.347 6.1 3.023 13.713 3.023 6.94 0 13.098-2.519 6.156-2.518 12.426-7.78 0 5.82-.951 10.299-.954 4.478-5.878 7.723-3.135 2.017-8.228 3.415-5.094 1.399-12.146 1.4M339.807 314.087l36.718-79.93h8.732l28.546 62.019q3.47 7.5 5.877 11.754t3.862 6.157h-9.515q-4.478 0-7.668-2.071-3.192-2.07-5.765-7.892l-2.687-6.27H361.86l-7.052 16.233zm27.315-28.322h25.523l-12.761-29.442zM433.729 314.087v-79.93h29.105q9.628 0 16.68 2.911t10.86 8.285q3.805 5.373 3.806 12.761 0 8.174-4.702 14.161-4.703 5.99-12.986 8.788l14.665 18.359q4.59 5.823 7.948 9.124 3.36 3.303 6.045 5.541h-10.075q-6.158 0-10.411-2.127-4.255-2.126-7.836-6.83l-24.18-32.463h7.276q18.136 0 18.136-13.434 0-12.76-18.472-12.761h-9.963v67.615zM551.943 315.43q-14.33 0-24.292-5.093-9.964-5.094-15.056-14.273-5.095-9.18-5.094-21.27 0-12.873 5.485-22.277 5.483-9.404 15.449-14.553 9.963-5.149 23.508-5.15 6.605.001 12.259 1.232 5.651 1.232 9.46 3.582 3.915 2.464 5.316 6.493 1.4 4.03 1.4 11.642-6.717-5.596-12.762-8.004-6.045-2.406-13.658-2.406-14.441 0-22.277 7.78t-7.836 21.325q0 9.63 3.862 15.952 3.862 6.327 10.467 9.404 6.604 3.08 14.889 3.079 3.357 0 6.437-.449a56 56 0 0 0 6.101-1.231v-18.135h-17.8V270.54h33.248v38.174q-3.806 2.128-11.25 4.422-7.445 2.294-17.856 2.295M638.253 315.43q-9.068-.001-16.792-2.966c-7.724-2.965-9.666-4.795-13.546-8.452q-5.82-5.483-9.011-13.098-3.19-7.612-3.19-16.792 0-9.177 3.19-16.792 3.19-7.611 9.011-13.097 5.82-5.484 13.546-8.452 7.725-2.965 16.792-2.966c9.067-.001 11.642.99 16.792 2.966q7.724 2.968 13.545 8.452 5.82 5.487 9.012 13.097 3.19 7.615 3.19 16.792 0 9.18-3.19 16.792-3.191 7.615-9.012 13.098-5.821 5.486-13.545 8.452c-7.724 2.966-10.747 2.967-16.792 2.967m0-12.537q7.611 0 13.49-3.303 5.876-3.3 9.29-9.74 3.415-6.435 3.415-15.728 0-9.289-3.414-15.728-3.415-6.435-9.292-9.74-5.877-3.3-13.49-3.301-7.5 0-13.433 3.301-5.934 3.305-9.347 9.74-3.416 6.439-3.414 15.728-.001 9.293 3.414 15.729 3.413 6.438 9.347 9.739 5.933 3.303 13.434 3.303" class="st3"/></svg>