<?xml version="1.0" encoding="iso-8859-1"?>
<!DOCTYPE svg PUBLIC "-//W3C//DTD SVG 1.0//EN" "http://www.w3.org/TR/2001/REC-SVG-20010904/DTD/svg10.dtd">
<!-- Creator: CorelDRAW -->
<svg xmlns="http://www.w3.org/2000/svg" xmlns:odm="http://product.corel.com/CGS/11/cddns/" xml:space="preserve" width="7.75591in" height="1.9685in" shape-rendering="geometricPrecision" text-rendering="geometricPrecision" image-rendering="optimizeQuality" fill-rule="evenodd"
     viewBox="0 0 7756 1968">
 <g id="Ebene 1">
  <g>
   <g>
    <path fill="#FF0000" d="M3159 379l11 836 391 -843 250 0 45 871 344 -868 275 0 -569 1205 -248 0 -46 -840 -373 840 -257 0 -79 -1201 256 0z"/>
    <path fill="#FF0000" d="M1400 370l-446 967 524 0 -42 243 -915 0 575 -1210 304 0z"/>
    <path fill="#000000" d="M4409 1079l36 -186 23 0 -32 165 90 0 -4 21 -113 0zm172 -186l24 0 -23 114c-1,10 -2,17 -2,21 0,10 3,18 11,24 7,6 16,9 27,9 9,0 17,-2 25,-6 7,-4 13,-11 18,-19 4,-9 8,-22 12,-41l19 -102 23 0 -21 109c-3,19 -8,33 -14,44 -6,11 -14,20 -24,26 -11,7 -23,10 -37,10 -13,0 -24,-2 -33,-7 -10,-5 -17,-11 -22,-19 -5,-8 -7,-18 -7,-28 0,-7 2,-18 5,-34l19 -101zm138 186l36 -186 112 0 -4 21 -89 0 -12 59 91 0 -4 22 -91 0 -16 84 -23 0zm185 0l32 -165 -56 0 4 -21 135 0 -4 21 -56 0 -32 165 -23 0zm100 0l36 -186 112 0 -4 21 -89 0 -11 59 91 0 -5 22 -90 0 -17 84 -23 0zm132 0l98 -186 27 0 28 186 -22 0 -8 -54 -70 0 -28 54 -25 0zm63 -73l57 0 -7 -46c-3,-19 -4,-34 -5,-47 -4,11 -10,24 -17,38l-28 55zm112 73l37 -186 23 0 -15 77 89 0 15 -77 23 0 -36 186 -23 0 17 -88 -89 0 -17 88 -24 0zm176 0l36 -186 72 0c14,0 25,1 33,4 7,2 13,7 17,14 4,8 6,16 6,27 0,15 -4,28 -14,38 -9,10 -24,16 -44,19 6,5 11,10 14,15 7,11 13,22 18,34l13 35 -26 0 -12 -35c-5,-12 -10,-23 -16,-32 -4,-7 -7,-11 -12,-13 -4,-2 -10,-3 -19,-3l-27 0 -16 83 -23 0zm43 -103l32 0c14,0 24,0 28,0 9,-1 16,-4 22,-7 5,-3 10,-8 13,-13 3,-6 4,-12 4,-18 0,-6 -1,-10 -3,-14 -2,-4 -5,-7 -9,-8 -4,-2 -10,-3 -19,-3l-56 0 -12 63zm174 103l32 -165 -57 0 5 -21 135 0 -4 21 -56 0 -32 165 -23 0zm104 -56l4 -23 65 0 -4 23 -65 0z"/>
    <path fill="#000000" d="M4374 1256l4 -21 76 0 -14 76c-10,6 -21,11 -33,15 -13,4 -25,6 -36,6 -26,0 -45,-8 -57,-24 -11,-14 -16,-32 -16,-53 0,-22 4,-43 14,-61 9,-18 21,-32 35,-41 14,-8 29,-13 47,-13 12,0 23,3 33,7 10,5 17,12 22,20 6,8 9,18 12,31l-23 2c-3,-12 -8,-22 -15,-29 -8,-7 -18,-10 -30,-10 -13,0 -25,4 -35,11 -11,7 -20,18 -27,33 -6,15 -9,31 -9,50 0,19 4,33 12,43 9,9 21,14 36,14 15,0 32,-5 49,-16l8 -40 -53 0zm101 73l36 -186 126 0 -4 22 -103 0 -11 57 100 0 -5 22 -99 0 -13 64 110 0 -4 21 -133 0zm168 -60l23 -2 0 6c0,8 1,14 4,20 3,6 9,11 16,14 7,3 15,5 25,5 14,0 25,-3 32,-10 7,-7 11,-14 11,-22 0,-6 -2,-11 -6,-16 -4,-5 -15,-11 -32,-20 -14,-6 -23,-11 -28,-14 -8,-6 -14,-12 -18,-18 -3,-6 -5,-14 -5,-22 0,-10 2,-18 7,-26 5,-8 12,-14 22,-18 9,-4 20,-6 32,-6 14,0 26,3 36,8 9,5 16,12 21,20 4,9 6,17 6,24 0,1 0,2 0,4l-22 2c0,-5 -1,-9 -1,-12 -2,-5 -4,-10 -8,-13 -3,-4 -8,-7 -14,-9 -5,-2 -12,-3 -19,-3 -13,0 -23,3 -30,9 -5,5 -8,11 -8,19 0,4 1,8 4,12 2,3 6,7 12,10 4,3 13,8 29,15 12,6 21,11 26,14 6,4 11,10 14,16 4,7 6,14 6,22 0,10 -3,19 -9,28 -6,8 -14,15 -24,19 -10,5 -22,7 -35,7 -19,0 -36,-4 -48,-13 -12,-10 -19,-26 -19,-50zm156 60l37 -186 126 0 -5 22 -102 0 -11 57 99 0 -4 22 -100 0 -12 64 110 0 -5 21 -133 0zm162 0l36 -186 23 0 -32 165 91 0 -5 21 -113 0zm135 0l36 -186 24 0 -33 165 91 0 -4 21 -114 0zm143 -60l23 -2 -1 6c0,8 2,14 5,20 3,6 8,11 15,14 7,3 16,5 26,5 14,0 24,-3 32,-10 7,-7 11,-14 11,-22 0,-6 -2,-11 -6,-16 -4,-5 -15,-11 -33,-20 -13,-6 -23,-11 -28,-14 -7,-6 -13,-12 -17,-18 -4,-6 -6,-14 -6,-22 0,-10 3,-18 8,-26 5,-8 12,-14 21,-18 10,-4 21,-6 32,-6 15,0 27,3 36,8 10,5 17,12 22,20 4,9 6,17 6,24 0,1 0,2 0,4l-22 2c0,-5 -1,-9 -2,-12 -1,-5 -4,-10 -7,-13 -3,-4 -8,-7 -14,-9 -6,-2 -12,-3 -19,-3 -13,0 -23,3 -30,9 -5,5 -8,11 -8,19 0,4 1,8 3,12 2,3 6,7 12,10 4,3 14,8 30,15 12,6 21,11 26,14 6,4 11,10 14,16 4,7 5,14 5,22 0,10 -3,19 -8,28 -6,8 -14,15 -24,19 -10,5 -22,7 -35,7 -20,0 -36,-4 -48,-13 -13,-10 -19,-26 -19,-50zm292 -5l23 3c-7,22 -18,38 -32,49 -14,11 -29,16 -47,16 -21,0 -38,-6 -50,-20 -13,-14 -19,-34 -19,-59 0,-34 10,-62 28,-83 17,-20 38,-30 63,-30 19,0 34,6 45,16 11,11 18,25 20,43l-22 2c-2,-14 -7,-24 -14,-30 -7,-7 -16,-10 -28,-10 -21,0 -38,10 -52,30 -11,18 -17,38 -17,62 0,19 5,34 14,44 8,10 20,15 34,15 12,0 23,-4 33,-13 9,-8 16,-20 21,-35zm39 65l37 -186 23 0 -15 78 90 0 15 -78 23 0 -36 186 -23 0 17 -87 -90 0 -18 87 -23 0zm161 0l99 -186 27 0 29 186 -23 0 -8 -53 -71 0 -28 53 -25 0zm63 -72l58 0 -7 -47c-2,-19 -4,-34 -5,-46 -4,10 -9,23 -17,38l-29 55zm115 72l37 -186 113 0 -4 22 -90 0 -12 59 92 0 -4 21 -92 0 -16 84 -24 0zm188 0l32 -164 -57 0 4 -22 137 0 -4 22 -57 0 -32 164 -23 0z"/>
    <path fill="#000000" d="M4213 1571l-10 -186 23 0 4 92c1,4 1,16 2,36 0,5 0,9 0,11 0,2 0,6 0,13 9,-21 16,-36 21,-45l53 -107 24 0 6 109c1,12 1,27 1,45 2,-5 4,-11 8,-20 6,-13 10,-23 13,-29l50 -105 24 0 -89 186 -26 0 -5 -113c-1,-9 -1,-21 -2,-35 -5,12 -9,21 -12,27l-61 121 -24 0zm185 0l99 -186 28 0 29 186 -23 0 -9 -54 -70 0 -28 54 -26 0zm64 -73l58 0 -7 -46c-3,-19 -5,-34 -5,-47 -4,11 -10,24 -18,38l-28 55zm114 73l36 -186 24 0 -33 165 91 0 -4 21 -114 0zm181 0l33 -165 -58 0 4 -21 138 0 -4 21 -57 0 -32 165 -24 0zm105 0l37 -186 126 0 -4 21 -103 0 -12 58 101 0 -4 21 -101 0 -12 65 110 0 -4 21 -134 0zm164 0l36 -186 74 0c14,0 25,1 33,4 7,3 13,7 17,14 4,8 7,17 7,27 0,15 -5,28 -14,38 -10,10 -25,16 -46,19 7,5 12,10 15,15 7,11 13,22 18,34l13 35 -26 0 -13 -35c-4,-12 -9,-23 -15,-32 -4,-6 -8,-11 -12,-13 -5,-2 -11,-3 -21,-3l-27 0 -16 83 -23 0zm43 -103l32 0c15,0 25,0 30,0 9,-1 16,-3 21,-7 6,-3 10,-7 14,-13 3,-6 4,-12 4,-18 0,-5 -1,-10 -3,-14 -3,-4 -6,-7 -9,-8 -4,-2 -10,-2 -19,-2l-57 0 -13 62zm200 103l37 -186 29 0 17 120c3,16 4,31 5,46 5,-13 13,-29 24,-51l61 -115 30 0 -37 186 -23 0 18 -90c5,-21 11,-45 19,-71 -5,12 -12,25 -19,39l-65 122 -23 0 -17 -119c-2,-11 -3,-24 -4,-38 -2,16 -4,29 -6,38l-23 119 -23 0zm204 0l36 -186 55 0c9,0 17,1 22,1 7,2 14,4 19,8 6,4 10,8 13,15 3,6 4,13 4,20 0,10 -2,19 -8,27 -5,8 -13,14 -24,18 9,3 17,8 21,15 5,6 7,14 7,23 0,10 -3,20 -8,29 -6,10 -13,17 -22,22 -9,5 -19,8 -30,8l-85 0zm44 -107l36 0c17,0 29,-2 36,-8 8,-6 11,-14 11,-25 0,-5 -1,-10 -3,-14 -2,-4 -6,-6 -9,-8 -4,-2 -11,-3 -22,-3l-37 0 -12 58zm-17 86l40 0c11,0 18,-1 22,-1 7,-2 13,-4 18,-7 4,-3 8,-8 10,-13 3,-5 4,-11 4,-17 0,-9 -2,-15 -7,-20 -5,-4 -15,-6 -30,-6l-44 0 -13 64zm135 21l37 -186 23 0 -15 77 91 0 15 -77 23 0 -36 186 -23 0 17 -88 -91 0 -17 88 -24 0z"/>
    <path fill="#FF0000" d="M4546 612l2681 0 113 -236 -2681 0 -113 236z"/>
   </g>
   <path fill="#FF0000" d="M2693 934l-128 642 -131 0 -23 -161c-87,119 -183,179 -335,179 -317,0 -528,-311 -492,-614 21,-172 93,-318 201,-437 108,-119 297,-190 464,-190 126,0 273,46 346,116 72,69 124,204 133,308l-253 2c-19,-146 -104,-210 -241,-210 -89,0 -190,34 -254,103 -64,69 -105,149 -122,292 -36,301 70,418 267,418 77,0 143,-26 199,-76 57,-51 104,-107 114,-190l-257 0 32 -182 480 0z"/>
  </g>
 </g>
</svg>
