<?xml version="1.0" encoding="utf-8"?>
<!-- Generator: Adobe Illustrator 28.2.0, SVG Export Plug-In . SVG Version: 6.00 Build 0)  -->
<svg version="1.1" id="Ebene_1" xmlns="http://www.w3.org/2000/svg" xmlns:xlink="http://www.w3.org/1999/xlink" x="0px" y="0px"
	 viewBox="0 0 2824 824" style="enable-background:new 0 0 2824 824;" xml:space="preserve">
<style type="text/css">
	.st0{fill:#05164D;}
	.st1{fill:#6E8BB7;}
</style>
<g>
	<g>
		<path id="Wortmarke_10cm_3_" class="st0" d="M708.2,354h187.4v-57.1H773.8V70.7h-65.6V354z M1046.5,354h57.5V150h-61.1v116.5
			c0,27.1-13.8,39.3-36,39.3c-24.7,0-36.4-12.1-36.4-39.3V150h-61.1v119.4c0,67.2,27.1,90.7,79.3,90.7c32,0,49.4-13.8,57.9-29.5
			L1046.5,354L1046.5,354z M1212.1,199.8h44.9V150h-44.9v-8.1c0-17.8,10.1-24.3,29.1-24.3c7.3,0,15.8,0.8,15.8,0.8V69.1
			c0,0-10.1-2.4-25.9-2.4c-49,0-80.1,26.3-80.1,75.7v7.7h-30.8v49.8h30.8V354h61.1L1212.1,199.8L1212.1,199.8z M1382,357.6
			c15,0,29.1-3.2,29.1-3.2v-49c0,0-10.1,1.2-17.4,1.2c-17.8,0-29.1-5.7-29.1-27.5v-79.3h46.5V150h-46.5V90.5h-61.1V150h-30.8v49.8
			h30.8V286C1303.5,335.4,1333.1,357.6,1382,357.6 M1564.3,354h61.1V234.6c0-67.2-27.1-90.7-78.9-90.7c-28.7,0-45.3,10.9-55.8,25.9
			V71.1h-61.5V354h61.1V237.4c0-27.1,13.8-39.2,36.8-39.2c25.5,0,37.2,12.1,37.2,39.2L1564.3,354L1564.3,354z M1781.2,274.6
			c0,22.3-21,38.8-53.4,38.8c-15.8,0-25.1-7.3-25.1-21c0-10.5,6.5-19.4,27.1-22.3l35.2-4.9c6.1-0.8,12.6-2,16.2-3.2L1781.2,274.6
			L1781.2,274.6z M1783.6,354h55.9V220c0-56.2-32.8-76.1-92.3-76.1c-60.3,0-89.4,23.1-91.9,66.4h59.5c0.8-11.3,7.3-19.8,32.4-19.8
			c22.3,0,32.8,7.3,32.8,18.2c0,9.7-6.1,13.4-21,15l-38.9,4c-52.6,5.7-76.5,27.5-76.5,67.2c0,36.8,22.7,65.2,70.8,65.2
			c32.8,0,52.2-10.5,69.2-31.6L1783.6,354L1783.6,354z M1999.8,354h61.1V234.6c0-67.2-27.1-90.7-80.1-90.7
			c-32.8,0-50.2,13.8-58.7,29.5V150h-57.5v204h61.1V237.4c0-27.1,13.8-39.2,36.8-39.2c25.5,0,37.2,12.1,37.2,39.2L1999.8,354
			L1999.8,354z M2146.1,207.1c0-8.9,7.7-15.8,27.9-15.8c20.6,0,27.1,7.3,29.1,19h59.5c-2.8-44.1-32.8-66.4-88.6-66.4
			c-60.3,0-89,28.7-89,67.6c0,40.5,25.9,57.9,70.8,63.9l21.4,2.8c21.1,2.8,29.1,7.7,29.1,18.2c0,11.3-9.7,17-33.6,17
			c-23.5,0-34-7.3-35.6-22.3h-60.3c1.2,40.9,25.9,68.8,95.9,68.8c64.4,0,94.7-25.5,94.7-68.4c0-42.5-25.9-58.7-77.7-65.6l-21.4-2.8
			C2151,220.8,2146.1,216,2146.1,207.1 M2420.5,274.6c0,22.3-21.1,38.8-53.4,38.8c-15.8,0-25.1-7.3-25.1-21
			c0-10.5,6.5-19.4,27.1-22.3l35.2-4.9c6.1-0.8,12.5-2,16.2-3.2L2420.5,274.6L2420.5,274.6z M2478.8,354V220
			c0-56.2-32.8-76.1-92.3-76.1c-60.3,0-89.4,23.1-91.9,66.4h59.5c0.8-11.3,7.3-19.8,32.4-19.8c22.3,0,32.8,7.3,32.8,18.2
			c0,9.7-6.1,13.3-21,15l-38.9,4c-52.6,5.7-76.5,27.5-76.5,67.2c0,36.8,22.7,65.2,70.8,65.2c32.8,0,52.2-10.5,69.2-31.6V354
			L2478.8,354L2478.8,354z"/>
		<path id="Bildmarke_1_x2C_5VH_3_" class="st0" d="M393.9,168.8c-38.8-7.2-71.2-9.6-94.3-9.8c-19.3-0.3-36.7,0.3-54.3,2.6
			c-17.2,37.5-44.4,59.2-75.1,58.6c-11.5-0.2-25.2-4.1-46.4-15.4c0,0-20.6-11.2-23-12.7c2.5-2,4.1-3.3,4.3-3.4
			c0.2,0,44.3,19,44.3,19l5.1-4l-86.3-39.1l-8.4,6.6L33.3,160l0.3,10c38.2,16.7,55.5,26.2,106.7,60.5c44.1,28.8,78.4,45,128.4,60.4
			c13,4,34.2,9.1,43.8,10.7l14.1-13.8c-11.9,0.3-28-0.6-45.2-5.4c-35.1-9.8-58-29.5-66.6-38.8c23.3-14.4,43.4-19.5,56.1-21.6
			c9.9-1.6,19-2.1,24.8-2.2c16.7-0.3,32.9,0.8,43.7,2.1l8.7-8.5c-14.5-2-30.8-3.4-48.9-3.5c-13.7-0.1-26,0.6-37.6,1.7
			c1.3-1.5,5.7-6.3,7.4-8.2c9.3-0.6,22.2-1,34.6-0.7c18.7,0.5,35.8,2,51.1,4.2l8.8-8.5c-15.5-2.4-35.6-4.6-54.7-5.2
			c-14.9-0.5-27.6-0.2-32,0.1c1.4-1.8,5.1-6.6,5.7-7.4c6.8-0.2,24.8-0.1,35.9,0.6c21.3,1.2,35.7,3.2,51.4,5.9l8.7-8.5
			c-14.5-2.6-32.2-5.2-55.8-6.8c-14.4-1-30.5-0.9-34.3-0.9c1.5-2.5,3.8-6.2,4.2-6.9c5.3-0.5,25.6,0.5,34.2,1
			c22.8,1.3,54.1,6.2,58.3,7.3L393.9,168.8z M415.4,215.1c-1.5,111.9-93.7,201.7-205.6,200.2C97.9,413.9,8.1,321.7,9.6,209.8
			C11,97.9,103.2,8.1,215.1,9.6C327,11,416.8,103.2,415.4,215.1 M424.9,215.2C426.4,98.1,332.4,1.5,215.2,0
			C98.1-1.5,1.5,92.5,0,209.7c-1.5,117.1,92.5,213.7,209.7,215.2C326.8,426.5,423.4,332.4,424.9,215.2"/>
		<g>
			<path class="st1" d="M842,461.2c87.8,0,127.9,42.1,137.2,102.4h-68c-8.1-28.7-27.5-44.1-69.2-44.1c-51.8,0-74.1,33.2-74.1,89.4
				c0,56.2,22.3,89.4,74.1,89.4c41.7,0,61.1-15.4,69.2-44.1h68c-9.3,60.3-49.4,102.4-137.2,102.4c-102.4,0-142.1-62.7-142.1-147.7
				S739.6,461.2,842,461.2z"/>
			<path class="st1" d="M1060.2,519.5H999v-52.2h61.1V519.5z M1060.2,750.6H999v-204h61.1V750.6z"/>
			<path class="st1" d="M1170.2,596.4v79.3c0,21.8,11.3,27.5,29.1,27.5c7.3,0,17.4-1.2,17.4-1.2v49c0,0-14.2,3.2-29.1,3.2
				c-49,0-78.5-22.3-78.5-71.6v-86.2h-30.8v-49.8h30.8v-59.5h61.1v59.5h46.5v49.8L1170.2,596.4L1170.2,596.4z"/>
			<path class="st1" d="M1450.3,546.6l-117,275.2h-64.8l36.4-80.1l-81.8-195.1h67.6l44.5,122.6l47.3-122.6H1450.3z"/>
			<path class="st1" d="M1702,702.8h-110.9l-15.8,47.8h-71.6l102.8-283.3h80.1l102.8,283.3h-71.6L1702,702.8z M1683.8,647.4
				l-37.2-113.7l-37.2,113.7H1683.8z"/>
			<path class="st1" d="M1863.1,519.5H1802v-52.2h61.1V519.5z M1863.1,750.6H1802v-204h61.1V750.6z"/>
			<path class="st1" d="M1986.5,598.4c-21.9,0-38,10.9-38,37.2v114.9h-61.1v-204h57.5v23.5h0.4c8.1-15.8,25.1-29.5,55.9-29.5
				c2.4,0,8.9,0.4,11.3,0.8V600C2003.1,598.8,1994.6,598.4,1986.5,598.4z"/>
			<path class="st1" d="M2028.6,726.3v-259h61.1v283.3h-36.8C2036.7,750.6,2028.6,742.5,2028.6,726.3z"/>
			<path class="st1" d="M2175.1,519.5H2114v-52.2h61.1V519.5z M2175.1,750.6H2114v-204h61.1V750.6z"/>
			<path class="st1" d="M2315.5,540.5c53,0,80.1,23.5,80.1,90.6v119.4h-61.1V634c0-27.1-11.7-39.3-37.2-39.3
				c-23.1,0-36.8,12.1-36.8,39.3v116.6h-61.1v-204h57.5v23.5C2265.3,554.3,2282.7,540.5,2315.5,540.5z"/>
			<path class="st1" d="M2621.5,665.2h-145.7c2.8,30.8,15.8,42.5,46.1,42.5c23.1,0,32.4-6.5,36-19.8h60.3
				c-3.6,39.7-35.6,68.8-96.3,68.8c-76.9,0-106.8-43.3-106.8-108.1c0-54.6,24.7-108.1,103.6-108.1c74.1,0,103.6,42.9,103.6,107.6
				C2622.3,653,2622.3,659.5,2621.5,665.2z M2560,623.1c-2.4-21-11.3-35.2-41.3-35.2c-26.3,0-38,10.9-42.1,35.2H2560z"/>
			<path class="st1" d="M2632.4,687.8h60.3c1.6,15,12.1,22.3,35.6,22.3c23.9,0,33.6-5.7,33.6-17c0-10.5-8.1-15.4-29.1-18.2
				l-21.4-2.8c-44.9-6.1-70.8-23.5-70.8-63.9c0-39.3,25.5-67.6,89-67.6c56.2,0,85.8,22.3,88.6,66.4h-59.5c-2-11.7-8.5-19-29.1-19
				c-20.2,0-27.9,6.9-27.9,15.8s4.9,13.8,22.3,16.2l21.4,2.8c51.8,6.9,77.7,23.1,77.7,65.6c0,42.9-28.3,68.4-94.7,68.4
				C2658.3,756.6,2633.6,728.7,2632.4,687.8z"/>
		</g>
	</g>
</g>
</svg>
