<?xml version="1.0" encoding="utf-8"?>
<!DOCTYPE svg PUBLIC "-//W3C//DTD SVG 1.1//EN" "http://www.w3.org/Graphics/SVG/1.1/DTD/svg11.dtd">
<svg version="1.1" xmlns="http://www.w3.org/2000/svg" xmlns:xlink="http://www.w3.org/1999/xlink" x="0px" y="0px" width="592px"
	 height="320px" viewBox="0 0 592 320" enable-background="new 0 0 592 320" xml:space="preserve">
<g id="Layer_1">
	<path fill="#FCB905" d="M357,12h56l-78,96h120l-36,44H234L357,12z"/>
	<path fill="#293E6B" d="M289,12h57L216,160h198l-38,45H114"/>
</g>
<g id="Layer_2">
	<g>
		<g>
			<path fill="#293E6B" d="M489.32,231.154c-0.084-0.251-14.499,19.064-14.499,19.064s-20.271-29.51-38.943-22.205
				c22.027,7.117,29.971,30.536,29.971,35.968c0,5.434-0.014,22.364-0.014,22.364s-2.473,3.012-7.989,3.012
				c-4.716,0,27.43,0.183,33.291,0.235c-5.497-0.151-9.581-3.248-9.581-3.248l-0.32-21.787c0,0,14.955-25.756,23.172-33.314
				c1.917-1.764,7.36-2.099,7.36-2.099h-30.955C480.813,229.145,486.896,229.65,489.32,231.154z M491.137,289.593
				c0.137,0.004,0.271,0.015,0.41,0.015C492.374,289.607,492.131,289.603,491.137,289.593z M60.425,270.29
				c-1.282,11.013-18.226,11.937-25.962,8.027v-44.155c1.855-3.489,9.986-6.021,9.986-6.021S9.521,227.952,9.5,228.193
				c4.419,0.91,8.247,3.367,9.985,6.972v47.167c-1.229,4.451-6.102,4.981-9.985,7.024h50.926
				C60.379,289.159,60.498,270.42,60.425,270.29z M106.358,228.392c0,0-32.35,0.367-32.92,0.039
				c3.693,0.632,6.085,2.804,7.568,6.282c0.581-0.321,0.811,47.8,0.388,48.676c-1.919,2.754-4.445,4.202-8.987,5.968
				c0.262-0.016,33.922,0.18,33.951-0.053c-4.419-0.91-8.247-2.112-9.985-5.718c-0.204-16.028,0.058-48.349,0-48.421
				C97.602,230.714,106.358,228.392,106.358,228.392z M551.709,263.265c0,0,8.842,2.892,8.842,4.897
				c0,2.005,0.244,8.957,0.146,9.151c-6.128,3.799-13.036,5.07-19.971,2.008c-25.941-11.457-9.126-51.269,28.716-37.131
				c4.195,1.645,4.976,5.709,4.992,12.042c0.091,0.17,1.761-13.116,2.745-20.825c-7.193-3.823-15.518-5.764-22.977-5.818
				c-24.62,0.617-39.625,13.47-39.625,34.28c0.25,12.285,5.896,17.58,12.362,23.612c17.677,15.021,47.434,0.706,47.736,0.864
				c0,0,0-15.932,0-18.313s8.987-4.769,8.987-4.769L551.709,263.265z M177.255,234.162c0.257-0.111-0.022,31.831,0,32.113
				c-6.153-4.98-18.973-19.067-18.973-19.067l-20.331-18.319l-19.611,0.256c0,0,7.524,2.474,8.987,6.021v47.167
				c-1.084,4.597-3.755,5.197-8.987,6.774h31.954c-4.454-1.342-7.103-3.18-8.598-7.253c-0.065-0.129-0.413-29.644-0.389-29.628
				c6.373,4.774,36.77,36.868,36.77,36.868l13.157,0.013c0,0,0-36.213,0-54.944c2.04-3.303,8.231-5.27,8.231-5.27l-31.197,0.001
				C168.268,228.894,175.742,230.998,177.255,234.162z M224.139,235.165l-0.223,36.097c0,0-0.326,13.33-6.719,17.092
				c-3.761,2.131-8.02,2.429-7.988,3.011c20.635,2.578,28.99-10.969,28.99-19.995c0-9.025,0.108-24.553-0.033-36.204
				c0.691-4.658,8.987-6.021,8.987-6.021s-30.002,0.001-33.951,0.001C223.106,231.024,224.139,235.165,224.139,235.165z
				 M303.072,280.324c-6.324,0-19.475,0-19.475,0l0.004-15.304c0,0,13.97-0.006,15.726-0.006s2.744,8.034,2.744,8.034v-24.085
				c0,0-0.79,5.159-2.964,5.159c-2.173,0-15.761-0.142-15.761-0.142l-0.004-15.053c0,0,16.971,0,19.729,0
				c2.757,0,4.992,8.028,4.992,8.028s0-12.043,0-18.064h-47.93c5.59,2.391,8.991,5.019,8.991,5.019l-0.004,49.425
				c0,0-2.001,4.399-8.987,6.021c16.643,0,48.924,0,48.924,0l0.005-16.309C309.063,273.049,306.875,279.462,303.072,280.324z
				 M327.037,228.893c0.007,0.022,9.482,2.23,9.482,4.57c0,2.341-0.496,47.951-0.496,50.876s-8.986,5.019-8.986,5.019l33.95-0.001
				c0,0-7.953-1.775-7.953-5.201c0-3.427-0.035-18.132-0.035-18.132s11.248,0,15.242,0c2.031,1.549,2.731,10.036,2.731,10.036
				v-26.093c0,0-1.435,5.029-3.022,5.029s-14.947-0.012-14.947-0.012l-0.004-15.053c0,0,14.464,0,17.974,0s4.993,9.032,4.993,9.032
				l-0.005-20.07L327.037,228.893z M434.304,280.317c-3.008,0-19.395,0.257-19.395,0.257s0-44.342,0-47.163
				c0-2.82,8.986-4.465,8.986-4.465l-32.952-0.054c0,0,7.988,2.135,7.988,4.517s-0.004,52.434-0.004,52.434
				s-3.534,3.515-8.987,3.515c5.884,0,50.931,0,50.931,0l-0.255-18.064C440.616,271.293,437.313,280.317,434.304,280.317z"/>
		</g>
	</g>
</g>
</svg>
