<svg version="1.1" id="Layer_1" xmlns="http://www.w3.org/2000/svg" xmlns:xlink="http://www.w3.org/1999/xlink" x="0px" y="0px"
	 width="100%" viewBox="0 0 622 242" enable-background="new 0 0 622 242" xml:space="preserve">
<path fill="#F6F6F7" opacity="1.000000" stroke="none" 
	d="
M469.000000,243.000000 
	C312.666687,243.000000 156.833374,243.000000 1.000042,243.000000 
	C1.000028,162.333359 1.000028,81.666725 1.000014,1.000063 
	C208.333267,1.000042 415.666534,1.000042 622.999878,1.000021 
	C622.999878,81.666603 622.999878,162.333206 622.999939,242.999908 
	C571.833313,243.000000 520.666687,243.000000 469.000000,243.000000 
M170.618179,93.012772 
	C170.806900,92.701820 170.995621,92.390862 171.067017,92.064705 
	C171.067017,92.064705 171.083435,92.181877 171.611267,91.996712 
	C171.781631,91.675591 171.951996,91.354469 172.577515,90.842827 
	C172.758286,90.399200 172.939072,89.955574 173.630081,89.158531 
	C173.762436,88.775620 173.894791,88.392708 173.996552,88.003662 
	C173.996552,88.003662 174.017776,88.027718 174.564682,87.605263 
	C175.036026,86.072495 175.507370,84.539719 176.015152,82.987404 
	C176.015152,82.987404 175.991272,82.953651 176.422668,82.310783 
	C176.952515,68.627090 177.482346,54.943405 178.008011,41.367718 
	C171.474564,41.367718 166.229752,41.367718 160.807892,41.367718 
	C160.807892,48.906857 161.026703,56.075172 160.742035,63.223442 
	C160.492325,69.493256 159.677826,75.740578 158.868179,82.162735 
	C158.868179,82.162735 158.888306,82.457062 158.352829,82.804733 
	C158.158005,83.176765 157.963181,83.548798 157.213440,84.127968 
	C156.476501,84.764641 155.739548,85.401306 154.456223,86.065437 
	C154.212479,86.311150 153.968735,86.556862 153.892883,86.844330 
	C153.892883,86.844330 153.871124,86.672699 153.025238,86.764778 
	C146.939499,88.395416 140.933395,88.193176 135.000000,86.000275 
	C135.000000,86.000275 135.017822,85.984016 134.691498,85.488976 
	C134.160172,85.243950 133.628830,84.998932 133.083511,84.907005 
	C133.083511,84.907005 133.234604,84.878647 133.039658,84.291595 
	C132.438141,83.749443 131.836639,83.207298 131.205460,82.836533 
	C131.205460,82.836533 131.369644,82.779106 131.186966,82.014381 
	C130.528137,78.456779 129.395111,74.911644 129.301147,71.339180 
	C129.039917,61.406948 129.210480,51.463356 129.210480,41.258759 
	C123.524109,41.258759 118.281845,41.258759 112.487221,41.258759 
	C112.487221,52.473236 112.402946,63.581249 112.550117,74.686195 
	C112.584290,77.264015 113.407455,79.831367 113.779701,82.735687 
	C113.779701,82.735687 113.981354,83.013863 113.939140,83.715714 
	C114.619247,85.151657 115.299362,86.587601 116.001122,88.001572 
	C116.001122,88.001572 115.975288,88.015244 116.063805,88.630150 
	C116.337715,88.929153 116.611618,89.228149 116.921738,90.018753 
	C117.244286,90.357246 117.566841,90.695740 118.038673,91.568649 
	C118.332451,91.772484 118.626236,91.976326 118.932915,92.064339 
	C118.932915,92.064339 118.817871,92.082932 118.991066,92.615135 
	C119.300491,92.804993 119.609917,92.994850 119.933388,93.067673 
	C119.933388,93.067673 119.816917,93.085815 119.998947,93.611580 
	C120.316643,93.785278 120.634338,93.958969 120.958694,94.041740 
	C120.958694,94.041740 120.868500,94.054985 121.060944,94.558479 
	C121.373703,94.709190 121.686462,94.859894 122.271957,95.506371 
	C122.611626,95.650398 122.951302,95.794418 123.710907,96.448227 
	C127.140846,97.621429 130.570786,98.794632 134.028625,100.016151 
	C134.028625,100.016151 134.072250,99.981392 134.204376,100.189613 
	C134.204376,100.189613 134.597122,100.069191 135.396622,100.535278 
	C136.616089,100.616791 137.835541,100.698296 139.931091,101.042900 
	C143.273651,100.987488 146.616211,100.932083 150.770035,100.985077 
	C151.845688,100.851471 152.921341,100.717865 154.741852,100.601997 
	C158.005844,99.450562 161.269821,98.299126 165.013153,97.145287 
	C165.389923,96.880844 165.766678,96.616402 166.762817,96.171936 
	C167.547714,95.474068 168.332626,94.776199 169.040237,94.040215 
	C169.040237,94.040215 169.047455,94.126099 169.583801,93.976326 
	C169.783569,93.678177 169.983322,93.380035 170.065887,93.067665 
	C170.065887,93.067665 170.083710,93.184364 170.618179,93.012772 
M360.753326,54.297565 
	C367.507385,54.483364 374.261444,54.669163 380.969116,54.950039 
	C380.969116,54.950039 381.059570,55.004906 380.946381,55.934219 
	C380.946381,70.539879 380.946381,85.145531 380.946381,99.768143 
	C386.883728,99.768143 392.243408,99.768143 397.734619,99.768143 
	C397.734619,84.530739 397.734619,69.725632 397.978516,54.709999 
	C397.978516,54.709999 398.014740,54.389866 398.939209,54.400661 
	C405.314087,54.276035 411.688965,54.151405 418.909058,53.718887 
	C419.109039,49.643482 419.309052,45.568077 419.523773,41.192272 
	C399.246887,41.192272 379.634308,41.192272 359.508789,41.165367 
	C359.424530,41.456974 359.340271,41.748585 359.108551,42.698795 
	C359.157562,43.143345 359.206604,43.587894 359.063904,44.882080 
	C359.133514,46.904110 359.203156,48.926144 359.117737,51.610180 
	C359.162354,52.058334 359.207001,52.506489 359.137451,53.490955 
	C359.428955,53.656536 359.720490,53.822113 360.753326,54.297565 
M449.027435,97.619598 
	C449.080109,98.070442 449.132751,98.521294 449.447723,99.798859 
	C467.436035,99.905975 485.424316,100.021233 503.412781,100.071442 
	C503.844971,100.072647 504.279205,99.347557 504.859589,98.069061 
	C504.810211,95.053535 504.760803,92.038010 504.822754,88.417915 
	C504.210938,88.128029 503.599121,87.838142 502.079468,87.322838 
	C490.150177,87.322838 478.220917,87.322838 466.182251,87.322838 
	C466.182251,83.360809 466.182251,80.134132 466.182251,76.290741 
	C477.086761,76.290741 487.648712,76.290741 498.164001,76.290741 
	C498.164001,72.073540 498.164001,68.486740 498.164001,64.276985 
	C487.288513,64.276985 476.736816,64.276985 465.230133,64.276985 
	C465.924103,60.242130 466.487518,56.966335 467.960266,53.896576 
	C479.906006,53.896576 491.851715,53.896576 504.108032,53.896576 
	C504.108032,49.447029 504.108032,45.372044 504.108032,41.317390 
	C485.669861,41.317390 467.469360,41.317390 449.177521,41.317390 
	C449.177521,60.097900 449.177521,78.524536 449.027435,97.619598 
M580.521423,98.874252 
	C581.032898,98.643654 581.544312,98.413063 582.774658,98.176376 
	C583.641846,97.829063 584.509094,97.481750 586.082397,97.110970 
	C598.436340,92.155655 604.165344,82.938301 603.669556,68.815186 
	C603.225525,56.168541 596.373962,47.064644 584.158264,43.388939 
	C580.533325,42.298180 576.679504,41.967773 572.023621,41.079865 
	C560.431091,41.079865 548.838501,41.079865 537.312134,41.079865 
	C537.312134,61.056850 537.312134,80.460175 537.312134,100.157425 
	C544.131409,100.157425 550.616577,100.330032 557.088684,100.112549 
	C564.712952,99.856354 572.325806,99.262245 580.521423,98.874252 
M209.619263,89.460968 
	C209.619263,92.906487 209.619263,96.352013 209.619263,99.919327 
	C215.135330,99.919327 220.069870,99.919327 225.892288,99.919327 
	C225.892288,88.106514 225.892288,76.514771 225.892288,65.484840 
	C235.957031,75.074371 246.383041,83.976112 255.490738,94.067619 
	C261.073822,100.253784 266.970520,100.879486 274.391205,99.724869 
	C274.391205,80.310616 274.391205,60.924694 274.391205,41.389790 
	C269.166199,41.389790 264.153931,41.389790 258.713623,41.389790 
	C258.713623,52.990540 258.713623,64.189407 258.713623,72.680237 
	C248.978928,63.778934 238.088562,53.781864 227.133423,43.856270 
	C225.857407,42.700161 224.283356,41.262501 222.743317,41.125397 
	C218.514832,40.748955 214.230865,40.995518 209.619904,40.995518 
	C209.619904,57.220039 209.619904,72.845505 209.619263,89.460968 
M352.279236,175.822479 
	C356.872986,171.673447 359.452301,166.714737 358.257324,160.359879 
	C356.673920,151.939529 351.012238,146.029327 341.415497,145.181625 
	C329.021332,144.086807 316.511597,144.289078 304.050598,143.975311 
	C302.453979,143.935104 300.850922,144.150085 299.282288,144.244949 
	C299.282288,163.957520 299.282288,183.173569 299.282288,202.398972 
	C304.720947,202.398972 309.755066,202.398972 315.118835,202.398972 
	C315.118835,196.960403 315.023621,191.974686 315.183624,186.997177 
	C315.225342,185.699234 315.693329,183.755447 316.597656,183.258514 
	C320.585999,181.066895 330.284210,183.662888 332.990448,187.376450 
	C336.028107,191.544754 338.929016,195.816055 342.070801,199.903152 
	C343.004089,201.117279 344.506653,202.616241 345.820648,202.689606 
	C351.371490,202.999588 356.949615,202.820908 363.812164,202.820908 
	C356.931488,194.628403 350.921173,187.472229 344.785248,180.166489 
	C347.414520,178.646301 349.534210,177.420746 352.279236,175.822479 
M52.624344,167.255997 
	C47.289730,166.923386 46.695728,165.410019 48.642902,156.066376 
	C60.856937,156.066376 73.233627,156.066376 85.633667,156.066376 
	C85.633667,151.676361 85.633667,147.977356 85.633667,144.283813 
	C67.292145,144.283813 49.391369,144.283813 31.290623,144.283813 
	C31.290623,163.822403 31.290623,183.037643 31.290623,202.529694 
	C32.850174,202.653458 34.138802,202.842880 35.427689,202.844711 
	C50.910027,202.866730 66.397820,202.625931 81.872017,202.982239 
	C87.767006,203.117981 86.603775,199.552399 86.801674,196.168976 
	C87.020493,192.428024 86.763496,189.834167 81.697792,190.035782 
	C72.223610,190.412857 62.713799,189.887558 53.238804,190.254242 
	C48.653160,190.431717 47.223858,188.835129 47.839176,184.573715 
	C48.088871,182.844452 48.058228,181.074707 48.189503,178.702545 
	C59.106815,178.702545 69.484566,178.702545 80.190147,178.702545 
	C80.190147,176.393906 80.006821,174.719101 80.225357,173.098480 
	C80.822906,168.667343 79.401848,166.850952 74.571167,167.148254 
	C67.605537,167.576950 60.593842,167.257217 52.624344,167.255997 
M432.471375,143.959824 
	C417.751312,143.959824 403.031250,143.959824 388.459137,143.959824 
	C388.459137,164.081909 388.459137,183.284744 388.459137,202.518921 
	C406.799774,202.518921 424.696442,202.518921 442.724426,202.518921 
	C442.724426,198.307709 442.724426,194.447815 442.724426,189.950974 
	C429.929657,189.950974 417.545013,189.950974 405.071320,189.950974 
	C405.071320,186.057022 405.071320,182.810898 405.071320,178.938995 
	C415.766144,178.938995 426.156982,178.938995 436.689301,178.938995 
	C436.689301,174.772644 436.689301,171.243469 436.689301,167.250015 
	C427.002380,167.250015 417.709045,167.128006 408.421173,167.299866 
	C403.545807,167.390076 404.873657,163.995972 404.782684,161.443726 
	C404.691864,158.895676 403.954010,155.988083 408.403931,156.083679 
	C417.887268,156.287354 427.377991,156.162216 436.865631,156.135651 
	C438.779510,156.130295 440.692963,155.964828 442.623474,155.872360 
	C442.623474,151.668121 442.623474,148.085144 442.623474,143.958817 
	C439.359833,143.958817 436.408752,143.958817 432.471375,143.959824 
M231.876144,186.069946 
	C239.344238,185.692703 246.892593,185.866806 254.259521,184.794525 
	C262.894623,183.537659 270.196503,179.533951 272.866974,170.353394 
	C276.321777,158.476456 268.451782,146.837769 255.341599,145.217331 
	C246.629532,144.140503 237.762650,144.260574 228.960617,143.988892 
	C223.869247,143.831757 218.769073,143.960342 213.215500,143.960342 
	C213.215500,163.150970 213.182861,181.611893 213.313293,200.071671 
	C213.319702,200.979980 214.711105,202.617020 215.523270,202.659546 
	C220.264984,202.907761 225.026291,202.781204 229.536057,202.781204 
	C230.067047,196.751999 230.526901,191.530563 231.876144,186.069946 
M165.927933,167.508881 
	C172.392014,160.057114 178.856094,152.605347 186.358780,143.956299 
	C182.640701,143.956299 180.496765,144.255951 178.465790,143.903885 
	C170.127396,142.458450 164.173615,145.418823 159.804031,152.686386 
	C157.488647,156.537323 154.181076,159.791718 151.037308,163.665497 
	C146.022110,157.476593 141.674866,152.028641 137.213104,146.676132 
	C136.316666,145.600739 135.015244,144.177216 133.848953,144.127625 
	C127.812241,143.870972 121.758789,144.008331 115.079025,144.008331 
	C115.925400,145.283264 116.228203,145.848190 116.630829,146.329636 
	C123.027657,153.978653 129.354050,161.689362 135.894333,169.214020 
	C137.875931,171.493866 138.368530,173.052338 136.091034,175.508301 
	C132.481430,179.400772 129.246704,183.645020 125.915260,187.790176 
	C122.165520,192.455826 118.484406,197.176590 113.992920,202.861221 
	C118.734184,202.861221 121.921059,202.510376 125.000847,202.935440 
	C131.106247,203.778107 135.203339,201.756516 138.578613,196.408630 
	C142.053040,190.903625 146.635880,186.098190 150.952850,180.713318 
	C156.256577,187.428406 161.034775,193.601746 165.978195,199.639801 
	C167.053741,200.953522 168.666351,202.592438 170.125320,202.690720 
	C175.520676,203.054245 180.955276,202.835342 187.163574,202.835342 
	C186.189713,201.281479 185.776260,200.428970 185.191147,199.717667 
	C178.538116,191.630127 171.935196,183.499161 165.145294,175.527649 
	C162.763306,172.731155 162.226074,170.420853 165.927933,167.508881 
M519.844849,158.007782 
	C520.315063,155.577896 520.530640,153.062286 521.313416,150.737671 
	C522.574585,146.992020 521.114868,145.375717 517.534119,145.070618 
	C509.444336,144.381287 501.285858,142.805161 493.281403,143.371506 
	C487.439240,143.784897 481.160675,146.050278 476.203308,149.240707 
	C466.575562,155.436859 467.890594,170.127518 478.228668,175.001419 
	C483.116943,177.306030 488.590698,178.428558 493.867554,179.828964 
	C497.549103,180.805984 501.412292,181.123718 505.056885,182.201080 
	C506.322693,182.575256 507.927948,184.293930 508.011505,185.493744 
	C508.100220,186.767105 506.867737,188.700424 505.669159,189.362793 
	C503.856445,190.364532 501.516144,191.113632 499.500580,190.920563 
	C492.106842,190.212418 484.743164,189.146988 477.394226,188.042648 
	C475.393738,187.742020 473.484711,186.832825 471.327301,186.136307 
	C470.837250,189.248062 470.561310,191.719742 470.040405,194.138657 
	C469.264465,197.742142 470.472931,199.873260 474.181061,200.582184 
	C479.551514,201.608948 484.863464,203.321701 490.271912,203.689224 
	C500.891174,204.410889 511.422119,203.572037 519.664917,195.620056 
	C527.697449,187.870987 526.029175,176.045731 516.145813,170.963165 
	C512.509033,169.092911 508.374084,168.049591 504.354797,167.102692 
	C499.837646,166.038513 495.127289,165.770905 490.639343,164.618011 
	C488.868866,164.163208 487.472015,162.253998 485.904999,161.007080 
	C487.471100,159.535034 488.836700,157.689514 490.665894,156.707581 
	C492.164612,155.903061 494.246735,155.788925 496.015961,155.953217 
	C503.764282,156.672653 511.492798,157.604797 519.844849,158.007782 
M567.092590,203.459717 
	C577.058899,204.586914 586.694336,203.771790 595.425110,198.281494 
	C601.761475,194.296890 604.085632,188.322357 602.995728,181.116333 
	C602.039062,174.791840 597.514343,171.467438 591.893860,169.495361 
	C588.924927,168.453644 585.847595,167.661591 582.764771,167.017334 
	C578.056885,166.033493 573.250061,165.479446 568.598389,164.297546 
	C567.192017,163.940201 565.213928,162.114471 565.206482,160.950424 
	C565.197937,159.622559 566.840881,157.692749 568.229492,157.086945 
	C570.274536,156.194809 572.753052,155.834991 575.005920,155.964188 
	C582.875427,156.415512 590.727295,157.174133 598.982422,157.848358 
	C599.505859,154.254974 600.068481,150.392883 600.703674,146.032257 
	C595.892395,145.084045 591.556824,143.859924 587.144348,143.435410 
	C577.344421,142.492538 567.481750,141.965012 558.369873,146.859268 
	C552.026123,150.266708 548.182312,155.495850 548.652344,162.907990 
	C549.121643,170.308167 553.874756,174.603989 560.562622,176.705841 
	C565.136047,178.143204 569.900696,178.977737 574.588684,180.042999 
	C577.499695,180.704498 580.559937,180.959122 583.295349,182.045731 
	C584.833191,182.656677 586.861816,184.619034 586.822021,185.915863 
	C586.778870,187.321884 584.830078,189.203354 583.274963,189.896713 
	C581.233154,190.807129 578.702820,191.285904 576.489075,191.029785 
	C567.826538,190.027527 559.205872,188.662842 549.984375,187.349472 
	C549.696838,189.256439 549.555542,192.245087 548.741455,195.037552 
	C547.865479,198.041733 548.839111,199.440323 551.656494,200.056488 
	C556.511353,201.118240 561.361938,202.199844 567.092590,203.459717 
M312.069397,73.500000 
	C312.069397,82.267128 312.069397,91.034256 312.069397,99.728226 
	C318.183838,99.728226 323.567871,99.728226 328.900330,99.728226 
	C328.900330,80.030495 328.900330,60.761623 328.900330,41.302864 
	C323.257538,41.302864 317.871704,41.302864 312.069427,41.302864 
	C312.069427,51.908321 312.069427,62.204163 312.069397,73.500000 
z"/>
<path fill="#3361A4" opacity="1.000000" stroke="none" 
	d="
M209.619583,88.965973 
	C209.619904,72.845505 209.619904,57.220039 209.619904,40.995518 
	C214.230865,40.995518 218.514832,40.748955 222.743317,41.125397 
	C224.283356,41.262501 225.857407,42.700161 227.133423,43.856270 
	C238.088562,53.781864 248.978928,63.778934 258.713623,72.680237 
	C258.713623,64.189407 258.713623,52.990540 258.713623,41.389790 
	C264.153931,41.389790 269.166199,41.389790 274.391205,41.389790 
	C274.391205,60.924694 274.391205,80.310616 274.391205,99.724869 
	C266.970520,100.879486 261.073822,100.253784 255.490738,94.067619 
	C246.383041,83.976112 235.957031,75.074371 225.892288,65.484840 
	C225.892288,76.514771 225.892288,88.106514 225.892288,99.919327 
	C220.069870,99.919327 215.135330,99.919327 209.619263,99.919327 
	C209.619263,96.352013 209.619263,92.906487 209.619583,88.965973 
z"/>
<path fill="#3260A5" opacity="1.000000" stroke="none" 
	d="
M572.930603,41.288963 
	C576.679504,41.967773 580.533325,42.298180 584.158264,43.388939 
	C596.373962,47.064644 603.225525,56.168541 603.669556,68.815186 
	C604.165344,82.938301 598.436340,92.155655 585.346924,97.086891 
	C583.759583,97.436028 582.907654,97.809250 582.055786,98.182465 
	C581.544312,98.413063 581.032898,98.643654 579.940674,98.600555 
	C567.449646,98.549934 555.529663,98.559525 543.633789,99.100471 
	C538.829956,99.318909 537.822083,97.577644 537.904663,93.158997 
	C538.159424,79.533577 537.997559,65.900375 537.997498,52.270195 
	C537.997498,41.997231 537.998596,42.087635 548.164856,41.968910 
	C556.421570,41.872478 564.675476,41.525066 572.930603,41.288963 
M570.857666,54.360455 
	C565.405579,54.360455 559.953552,54.360455 554.329712,54.360455 
	C554.329712,65.434944 554.329712,76.111786 554.329712,86.890793 
	C560.079285,86.890793 565.424561,87.223740 570.713928,86.821190 
	C581.580872,85.994186 586.557251,80.167862 586.116699,69.408203 
	C585.758118,60.651035 581.669983,56.429874 570.857666,54.360455 
z"/>
<path fill="#999DA2" opacity="1.000000" stroke="none" 
	d="
M351.966553,176.008835 
	C349.534210,177.420746 347.414520,178.646301 344.785248,180.166489 
	C350.921173,187.472229 356.931488,194.628403 363.812164,202.820908 
	C356.949615,202.820908 351.371490,202.999588 345.820648,202.689606 
	C344.506653,202.616241 343.004089,201.117279 342.070801,199.903152 
	C338.929016,195.816055 336.028107,191.544754 332.990448,187.376450 
	C330.284210,183.662888 320.585999,181.066895 316.597656,183.258514 
	C315.693329,183.755447 315.225342,185.699234 315.183624,186.997177 
	C315.023621,191.974686 315.118835,196.960403 315.118835,202.398972 
	C309.755066,202.398972 304.720947,202.398972 299.282288,202.398972 
	C299.282288,183.173569 299.282288,163.957520 299.282288,144.244949 
	C300.850922,144.150085 302.453979,143.935104 304.050598,143.975311 
	C316.511597,144.289078 329.021332,144.086807 341.415497,145.181625 
	C351.012238,146.029327 356.673920,151.939529 358.257324,160.359879 
	C359.452301,166.714737 356.872986,171.673447 351.966553,176.008835 
M323.535034,172.063828 
	C326.865173,171.995834 330.230682,172.208862 333.517395,171.795425 
	C338.735199,171.139084 341.088470,168.255814 340.889191,163.470963 
	C340.707703,159.112823 338.057220,156.408157 333.050507,156.124222 
	C328.066406,155.841568 323.053833,155.888229 318.062531,156.054138 
	C317.099274,156.086151 315.402191,157.293716 315.361511,158.031616 
	C315.109863,162.597183 315.235046,167.183533 315.235046,172.063812 
	C318.266815,172.063812 320.418640,172.063812 323.535034,172.063828 
z"/>
<path fill="#999EA3" opacity="1.000000" stroke="none" 
	d="
M53.113075,167.256424 
	C60.593842,167.257217 67.605537,167.576950 74.571167,167.148254 
	C79.401848,166.850952 80.822906,168.667343 80.225357,173.098480 
	C80.006821,174.719101 80.190147,176.393906 80.190147,178.702545 
	C69.484566,178.702545 59.106815,178.702545 48.189503,178.702545 
	C48.058228,181.074707 48.088871,182.844452 47.839176,184.573715 
	C47.223858,188.835129 48.653160,190.431717 53.238804,190.254242 
	C62.713799,189.887558 72.223610,190.412857 81.697792,190.035782 
	C86.763496,189.834167 87.020493,192.428024 86.801674,196.168976 
	C86.603775,199.552399 87.767006,203.117981 81.872017,202.982239 
	C66.397820,202.625931 50.910027,202.866730 35.427689,202.844711 
	C34.138802,202.842880 32.850174,202.653458 31.290623,202.529694 
	C31.290623,183.037643 31.290623,163.822403 31.290623,144.283813 
	C49.391369,144.283813 67.292145,144.283813 85.633667,144.283813 
	C85.633667,147.977356 85.633667,151.676361 85.633667,156.066376 
	C73.233627,156.066376 60.856937,156.066376 48.642902,156.066376 
	C46.695728,165.410019 47.289730,166.923386 53.113075,167.256424 
z"/>
<path fill="#999EA3" opacity="1.000000" stroke="none" 
	d="
M432.964508,143.959320 
	C436.408752,143.958817 439.359833,143.958817 442.623474,143.958817 
	C442.623474,148.085144 442.623474,151.668121 442.623474,155.872360 
	C440.692963,155.964828 438.779510,156.130295 436.865631,156.135651 
	C427.377991,156.162216 417.887268,156.287354 408.403931,156.083679 
	C403.954010,155.988083 404.691864,158.895676 404.782684,161.443726 
	C404.873657,163.995972 403.545807,167.390076 408.421173,167.299866 
	C417.709045,167.128006 427.002380,167.250015 436.689301,167.250015 
	C436.689301,171.243469 436.689301,174.772644 436.689301,178.938995 
	C426.156982,178.938995 415.766144,178.938995 405.071320,178.938995 
	C405.071320,182.810898 405.071320,186.057022 405.071320,189.950974 
	C417.545013,189.950974 429.929657,189.950974 442.724426,189.950974 
	C442.724426,194.447815 442.724426,198.307709 442.724426,202.518921 
	C424.696442,202.518921 406.799774,202.518921 388.459137,202.518921 
	C388.459137,183.284744 388.459137,164.081909 388.459137,143.959824 
	C403.031250,143.959824 417.751312,143.959824 432.964508,143.959320 
z"/>
<path fill="#3261A6" opacity="1.000000" stroke="none" 
	d="
M449.185425,98.972137 
	C449.132751,98.521294 449.080109,98.070442 449.356934,96.965469 
	C449.790924,94.492554 449.983093,92.673927 449.986145,90.854980 
	C450.011139,76.027489 450.065643,61.199425 449.948547,46.372818 
	C449.923981,43.262543 450.685608,41.897182 454.110779,41.931095 
	C469.103455,42.079521 484.099854,42.110920 499.091644,41.922615 
	C503.295654,41.869812 502.984680,44.283554 503.043884,47.073383 
	C503.106628,50.031864 502.990875,52.198650 498.942841,52.085613 
	C490.119873,51.839245 481.283447,51.918411 472.456818,52.087292 
	C470.645264,52.121956 468.852417,53.130749 467.050934,53.690533 
	C466.487518,56.966335 465.924103,60.242130 465.230133,64.276985 
	C476.736816,64.276985 487.288513,64.276985 498.164001,64.276985 
	C498.164001,68.486740 498.164001,72.073540 498.164001,76.290741 
	C487.648712,76.290741 477.086761,76.290741 466.182251,76.290741 
	C466.182251,80.134132 466.182251,83.360809 466.182251,87.322838 
	C478.220917,87.322838 490.150177,87.322838 502.593018,87.678192 
	C503.641510,88.363197 504.176483,88.692841 504.711426,89.022484 
	C504.760803,92.038010 504.810211,95.053535 504.336975,98.524345 
	C485.604706,98.977135 467.395081,98.974640 449.185425,98.972137 
z"/>
<path fill="#999EA3" opacity="1.000000" stroke="none" 
	d="
M231.431458,186.189545 
	C230.526901,191.530563 230.067047,196.751999 229.536057,202.781204 
	C225.026291,202.781204 220.264984,202.907761 215.523270,202.659546 
	C214.711105,202.617020 213.319702,200.979980 213.313293,200.071671 
	C213.182861,181.611893 213.215500,163.150970 213.215500,143.960342 
	C218.769073,143.960342 223.869247,143.831757 228.960617,143.988892 
	C237.762650,144.260574 246.629532,144.140503 255.341599,145.217331 
	C268.451782,146.837769 276.321777,158.476456 272.866974,170.353394 
	C270.196503,179.533951 262.894623,183.537659 254.259521,184.794525 
	C246.892593,185.866806 239.344238,185.692703 231.431458,186.189545 
M249.267120,156.849792 
	C243.048294,156.509720 236.829468,156.169647 230.442352,155.820374 
	C230.442352,162.388992 230.442352,167.952759 230.442352,173.958313 
	C236.399277,173.958313 242.027176,174.161438 247.632431,173.892441 
	C251.925354,173.686432 255.431122,171.935440 256.044861,167.003357 
	C256.649597,162.143921 255.217285,158.452347 249.267120,156.849792 
z"/>
<path fill="#9A9EA3" opacity="1.000000" stroke="none" 
	d="
M165.686096,167.778275 
	C162.226074,170.420853 162.763306,172.731155 165.145294,175.527649 
	C171.935196,183.499161 178.538116,191.630127 185.191147,199.717667 
	C185.776260,200.428970 186.189713,201.281479 187.163574,202.835342 
	C180.955276,202.835342 175.520676,203.054245 170.125320,202.690720 
	C168.666351,202.592438 167.053741,200.953522 165.978195,199.639801 
	C161.034775,193.601746 156.256577,187.428406 150.952850,180.713318 
	C146.635880,186.098190 142.053040,190.903625 138.578613,196.408630 
	C135.203339,201.756516 131.106247,203.778107 125.000847,202.935440 
	C121.921059,202.510376 118.734184,202.861221 113.992920,202.861221 
	C118.484406,197.176590 122.165520,192.455826 125.915260,187.790176 
	C129.246704,183.645020 132.481430,179.400772 136.091034,175.508301 
	C138.368530,173.052338 137.875931,171.493866 135.894333,169.214020 
	C129.354050,161.689362 123.027657,153.978653 116.630829,146.329636 
	C116.228203,145.848190 115.925400,145.283264 115.079025,144.008331 
	C121.758789,144.008331 127.812241,143.870972 133.848953,144.127625 
	C135.015244,144.177216 136.316666,145.600739 137.213104,146.676132 
	C141.674866,152.028641 146.022110,157.476593 151.037308,163.665497 
	C154.181076,159.791718 157.488647,156.537323 159.804031,152.686386 
	C164.173615,145.418823 170.127396,142.458450 178.465790,143.903885 
	C180.496765,144.255951 182.640701,143.956299 186.358780,143.956299 
	C178.856094,152.605347 172.392014,160.057114 165.686096,167.778275 
z"/>
<path fill="#9A9EA3" opacity="1.000000" stroke="none" 
	d="
M519.536682,158.233765 
	C511.492798,157.604797 503.764282,156.672653 496.015961,155.953217 
	C494.246735,155.788925 492.164612,155.903061 490.665894,156.707581 
	C488.836700,157.689514 487.471100,159.535034 485.904999,161.007065 
	C487.472015,162.253998 488.868866,164.163208 490.639343,164.618011 
	C495.127289,165.770905 499.837646,166.038513 504.354797,167.102692 
	C508.374084,168.049591 512.509033,169.092911 516.145813,170.963165 
	C526.029175,176.045731 527.697449,187.870987 519.664917,195.620056 
	C511.422119,203.572037 500.891174,204.410889 490.271912,203.689224 
	C484.863464,203.321701 479.551514,201.608948 474.181061,200.582184 
	C470.472931,199.873260 469.264465,197.742142 470.040405,194.138657 
	C470.561310,191.719742 470.837250,189.248062 471.327301,186.136307 
	C473.484711,186.832825 475.393738,187.742020 477.394226,188.042648 
	C484.743164,189.146988 492.106842,190.212418 499.500580,190.920563 
	C501.516144,191.113632 503.856445,190.364532 505.669159,189.362793 
	C506.867737,188.700424 508.100220,186.767105 508.011505,185.493744 
	C507.927948,184.293930 506.322693,182.575256 505.056885,182.201080 
	C501.412292,181.123718 497.549103,180.805984 493.867554,179.828964 
	C488.590698,178.428558 483.116943,177.306030 478.228668,175.001419 
	C467.890594,170.127518 466.575562,155.436859 476.203308,149.240707 
	C481.160675,146.050278 487.439240,143.784897 493.281403,143.371506 
	C501.285858,142.805161 509.444336,144.381287 517.534119,145.070618 
	C521.114868,145.375717 522.574585,146.992020 521.313416,150.737671 
	C520.530640,153.062286 520.315063,155.577896 519.536682,158.233765 
z"/>
<path fill="#999EA3" opacity="1.000000" stroke="none" 
	d="
M566.653442,203.366425 
	C561.361938,202.199844 556.511353,201.118240 551.656494,200.056488 
	C548.839111,199.440323 547.865479,198.041733 548.741455,195.037552 
	C549.555542,192.245087 549.696838,189.256439 549.984375,187.349472 
	C559.205872,188.662842 567.826538,190.027527 576.489075,191.029785 
	C578.702820,191.285904 581.233154,190.807129 583.274963,189.896713 
	C584.830078,189.203354 586.778870,187.321884 586.822021,185.915863 
	C586.861816,184.619034 584.833191,182.656677 583.295349,182.045731 
	C580.559937,180.959122 577.499695,180.704498 574.588684,180.042999 
	C569.900696,178.977737 565.136047,178.143204 560.562622,176.705841 
	C553.874756,174.603989 549.121643,170.308167 548.652344,162.907990 
	C548.182312,155.495850 552.026123,150.266708 558.369873,146.859268 
	C567.481750,141.965012 577.344421,142.492538 587.144348,143.435410 
	C591.556824,143.859924 595.892395,145.084045 600.703674,146.032257 
	C600.068481,150.392883 599.505859,154.254974 598.982422,157.848358 
	C590.727295,157.174133 582.875427,156.415512 575.005920,155.964188 
	C572.753052,155.834991 570.274536,156.194809 568.229492,157.086945 
	C566.840881,157.692749 565.197937,159.622559 565.206482,160.950424 
	C565.213928,162.114471 567.192017,163.940201 568.598389,164.297546 
	C573.250061,165.479446 578.056885,166.033493 582.764771,167.017334 
	C585.847595,167.661591 588.924927,168.453644 591.893860,169.495361 
	C597.514343,171.467438 602.039062,174.791840 602.995728,181.116333 
	C604.085632,188.322357 601.761475,194.296890 595.425110,198.281494 
	C586.694336,203.771790 577.058899,204.586914 566.653442,203.366425 
z"/>
<path fill="#315FA5" opacity="1.000000" stroke="none" 
	d="
M117.889389,91.034225 
	C117.566841,90.695740 117.244286,90.357246 116.853500,89.465012 
	C116.515266,88.612595 116.245277,88.313919 115.975288,88.015244 
	C115.975288,88.015244 116.001122,88.001572 115.993668,87.654160 
	C115.317924,85.875786 114.649643,84.444824 113.981354,83.013863 
	C113.981354,83.013863 113.779701,82.735687 113.862587,82.069733 
	C113.963036,71.266396 113.913216,61.128315 114.016998,50.991810 
	C114.122215,40.714462 112.420616,42.280495 122.947586,41.930767 
	C126.783058,41.803349 128.215332,42.836826 128.093475,46.917316 
	C127.805931,56.547783 127.787613,66.200958 128.156937,75.825890 
	C128.247314,78.181252 130.247513,80.463333 131.369644,82.779106 
	C131.369644,82.779106 131.205460,82.836533 131.247528,83.081863 
	C131.937927,83.844337 132.586273,84.361488 133.234604,84.878647 
	C133.234604,84.878647 133.083511,84.907005 133.206558,85.123016 
	C133.892349,85.554016 134.455078,85.769012 135.017822,85.984016 
	C135.017822,85.984016 135.000000,86.000275 135.074005,86.364258 
	C140.190155,90.046349 149.949661,90.017403 153.871124,86.672699 
	C153.871124,86.672699 153.892883,86.844330 154.075409,86.800285 
	C154.506165,86.516823 154.754395,86.277397 155.002609,86.037979 
	C155.739548,85.401306 156.476501,84.764641 157.784393,83.879166 
	C158.532990,83.239258 158.710648,82.848160 158.888306,82.457062 
	C158.888306,82.457062 158.868179,82.162735 159.357025,82.001381 
	C160.562927,79.772293 161.836517,77.721115 161.898651,75.633888 
	C162.140427,67.511017 161.918503,59.375725 162.017944,51.246872 
	C162.147141,40.686626 160.299301,42.329681 171.161972,41.910152 
	C175.354156,41.748241 176.128387,43.408588 176.070206,47.116104 
	C175.882797,59.059425 175.994751,71.007446 175.991272,82.953651 
	C175.991272,82.953651 176.015152,82.987404 175.681213,83.168228 
	C174.904114,84.908607 174.460938,86.468163 174.017776,88.027718 
	C174.017776,88.027718 173.996552,88.003662 173.761322,88.185257 
	C173.390671,88.748543 173.255249,89.130249 173.119843,89.511948 
	C172.939072,89.955574 172.758286,90.399200 172.100769,91.050209 
	C171.443817,91.565689 171.263626,91.873779 171.083435,92.181870 
	C171.083435,92.181877 171.067017,92.064705 170.862640,92.164917 
	C170.466736,92.571548 170.275223,92.877960 170.083710,93.184364 
	C170.083710,93.184364 170.065887,93.067665 169.864014,93.160309 
	C169.457230,93.543999 169.252335,93.835045 169.047455,94.126099 
	C169.047455,94.126099 169.040237,94.040215 168.694336,94.041473 
	C167.613434,94.812469 166.878433,95.582214 166.143433,96.351959 
	C165.766678,96.616402 165.389923,96.880844 164.340393,97.110931 
	C160.444092,98.245796 157.220551,99.415031 153.996994,100.584259 
	C152.921341,100.717865 151.845688,100.851471 150.063583,100.670349 
	C145.923096,100.497017 142.489044,100.638412 139.055008,100.779800 
	C137.835541,100.698296 136.616089,100.616791 134.909714,100.293335 
	C134.422806,100.051399 134.072250,99.981392 134.072250,99.981392 
	C134.072250,99.981392 134.028625,100.016151 133.838776,99.677856 
	C130.196274,98.205849 126.743622,97.072144 123.290970,95.938446 
	C122.951302,95.794418 122.611626,95.650398 122.011887,95.031799 
	C121.457382,94.389809 121.162941,94.222397 120.868500,94.054985 
	C120.868500,94.054985 120.958694,94.041740 120.848763,93.834747 
	C120.431526,93.447098 120.124222,93.266457 119.816917,93.085815 
	C119.816917,93.085815 119.933388,93.067673 119.833961,92.863434 
	C119.428986,92.467102 119.123428,92.275017 118.817871,92.082932 
	C118.817871,92.082932 118.932915,92.064339 118.840408,91.863197 
	C118.461731,91.452782 118.175560,91.243507 117.889389,91.034225 
z"/>
<path fill="#2E5EA6" opacity="1.000000" stroke="none" 
	d="
M359.255585,44.032440 
	C359.206604,43.587894 359.157562,43.143345 359.377411,42.365757 
	C359.646271,42.032719 360.036255,42.009083 360.502625,42.008163 
	C378.571808,42.005112 396.176117,42.125950 413.776367,41.913799 
	C418.138885,41.861214 418.145172,44.176281 418.024109,47.234303 
	C417.908386,50.157009 418.780609,53.319233 413.799591,53.096031 
	C408.891266,52.876087 403.946594,53.468235 398.842896,53.810333 
	C398.433197,54.050896 398.215485,54.208656 398.014740,54.389866 
	C398.014740,54.389866 397.978516,54.709999 397.490417,54.956707 
	C396.674927,56.920776 396.076904,58.636089 396.063904,60.355827 
	C395.978271,71.659775 395.951385,82.965332 396.059631,94.268875 
	C396.091736,97.623413 394.933868,99.304962 391.428162,99.025551 
	C390.106598,98.920227 388.756104,98.885788 387.442200,99.031090 
	C383.343597,99.484360 381.842438,97.802254 381.921692,93.632607 
	C382.133423,82.498268 382.034790,71.356979 381.953278,60.219231 
	C381.940552,58.479034 381.371429,56.742912 381.059570,55.004906 
	C381.059570,55.004906 380.969116,54.950039 380.878723,54.674995 
	C380.513123,54.204021 380.237946,54.008091 379.641022,53.566257 
	C372.882782,53.204529 366.446289,53.088699 359.820312,52.964912 
	C359.630859,52.956951 359.251648,52.954643 359.251648,52.954643 
	C359.207001,52.506489 359.162354,52.058334 359.418915,50.993835 
	C359.565247,48.262474 359.410400,46.147461 359.255585,44.032440 
z"/>
<path fill="#3260A3" opacity="1.000000" stroke="none" 
	d="
M312.069397,73.000000 
	C312.069427,62.204163 312.069427,51.908321 312.069427,41.302864 
	C317.871704,41.302864 323.257538,41.302864 328.900330,41.302864 
	C328.900330,60.761623 328.900330,80.030495 328.900330,99.728226 
	C323.567871,99.728226 318.183838,99.728226 312.069397,99.728226 
	C312.069397,91.034256 312.069397,82.267128 312.069397,73.000000 
z"/>
<path fill="#44669A" opacity="1.000000" stroke="none" 
	d="
M467.505615,53.793552 
	C468.852417,53.130749 470.645264,52.121956 472.456818,52.087292 
	C481.283447,51.918411 490.119873,51.839245 498.942841,52.085613 
	C502.990875,52.198650 503.106628,50.031864 503.043884,47.073383 
	C502.984680,44.283554 503.295654,41.869812 499.091644,41.922615 
	C484.099854,42.110920 469.103455,42.079521 454.110779,41.931095 
	C450.685608,41.897182 449.923981,43.262543 449.948547,46.372818 
	C450.065643,61.199425 450.011139,76.027489 449.986145,90.854980 
	C449.983093,92.673927 449.790924,94.492554 449.431946,96.631256 
	C449.177521,78.524536 449.177521,60.097900 449.177521,41.317390 
	C467.469360,41.317390 485.669861,41.317390 504.108032,41.317390 
	C504.108032,45.372044 504.108032,49.447029 504.108032,53.896576 
	C491.851715,53.896576 479.906006,53.896576 467.505615,53.793552 
z"/>
<path fill="#496B9D" opacity="1.000000" stroke="none" 
	d="
M381.002991,55.469559 
	C381.371429,56.742912 381.940552,58.479034 381.953278,60.219231 
	C382.034790,71.356979 382.133423,82.498268 381.921692,93.632607 
	C381.842438,97.802254 383.343597,99.484360 387.442200,99.031090 
	C388.756104,98.885788 390.106598,98.920227 391.428162,99.025551 
	C394.933868,99.304962 396.091736,97.623413 396.059631,94.268875 
	C395.951385,82.965332 395.978271,71.659775 396.063904,60.355827 
	C396.076904,58.636089 396.674927,56.920776 397.368469,55.061970 
	C397.734619,69.725632 397.734619,84.530739 397.734619,99.768143 
	C392.243408,99.768143 386.883728,99.768143 380.946381,99.768143 
	C380.946381,85.145531 380.946381,70.539879 381.002991,55.469559 
z"/>
<path fill="#3A6096" opacity="1.000000" stroke="none" 
	d="
M131.278305,82.396744 
	C130.247513,80.463333 128.247314,78.181252 128.156937,75.825890 
	C127.787613,66.200958 127.805931,56.547783 128.093475,46.917316 
	C128.215332,42.836826 126.783058,41.803349 122.947586,41.930767 
	C112.420616,42.280495 114.122215,40.714462 114.016998,50.991810 
	C113.913216,61.128315 113.963036,71.266396 113.906525,81.903664 
	C113.407455,79.831367 112.584290,77.264015 112.550117,74.686195 
	C112.402946,63.581249 112.487221,52.473236 112.487221,41.258759 
	C118.281845,41.258759 123.524109,41.258759 129.210480,41.258759 
	C129.210480,51.463356 129.039917,61.406948 129.301147,71.339180 
	C129.395111,74.911644 130.528137,78.456779 131.278305,82.396744 
z"/>
<path fill="#3D5F93" opacity="1.000000" stroke="none" 
	d="
M572.477112,41.184414 
	C564.675476,41.525066 556.421570,41.872478 548.164856,41.968910 
	C537.998596,42.087635 537.997498,41.997231 537.997498,52.270195 
	C537.997559,65.900375 538.159424,79.533577 537.904663,93.158997 
	C537.822083,97.577644 538.829956,99.318909 543.633789,99.100471 
	C555.529663,98.559525 567.449646,98.549934 579.651794,98.570755 
	C572.325806,99.262245 564.712952,99.856354 557.088684,100.112549 
	C550.616577,100.330032 544.131409,100.157425 537.312134,100.157425 
	C537.312134,80.460175 537.312134,61.056850 537.312134,41.079865 
	C548.838501,41.079865 560.431091,41.079865 572.477112,41.184414 
z"/>
<path fill="#3A6096" opacity="1.000000" stroke="none" 
	d="
M176.206970,82.632217 
	C175.994751,71.007446 175.882797,59.059425 176.070206,47.116104 
	C176.128387,43.408588 175.354156,41.748241 171.161972,41.910152 
	C160.299301,42.329681 162.147141,40.686626 162.017944,51.246872 
	C161.918503,59.375725 162.140427,67.511017 161.898651,75.633888 
	C161.836517,77.721115 160.562927,79.772293 159.479324,81.918930 
	C159.677826,75.740578 160.492325,69.493256 160.742035,63.223442 
	C161.026703,56.075172 160.807892,48.906857 160.807892,41.367718 
	C166.229752,41.367718 171.474564,41.367718 178.008011,41.367718 
	C177.482346,54.943405 176.952515,68.627090 176.206970,82.632217 
z"/>
<path fill="#395D92" opacity="1.000000" stroke="none" 
	d="
M399.017853,53.704071 
	C403.946594,53.468235 408.891266,52.876087 413.799591,53.096031 
	C418.780609,53.319233 417.908386,50.157009 418.024109,47.234303 
	C418.145172,44.176281 418.138885,41.861214 413.776367,41.913799 
	C396.176117,42.125950 378.571808,42.005112 360.494202,41.803940 
	C360.019409,41.600643 360.021759,41.192272 360.021759,41.192272 
	C379.634308,41.192272 399.246887,41.192272 419.523773,41.192272 
	C419.309052,45.568077 419.109039,49.643482 418.014282,53.828960 
	C411.085632,53.860714 405.051758,53.782391 399.017853,53.704071 
z"/>
<path fill="#44669A" opacity="1.000000" stroke="none" 
	d="
M449.316589,99.385498 
	C467.395081,98.974640 485.604706,98.977135 504.263428,98.970428 
	C504.279205,99.347557 503.844971,100.072647 503.412781,100.071442 
	C485.424316,100.021233 467.436035,99.905975 449.316589,99.385498 
z"/>
<path fill="#3A6096" opacity="1.000000" stroke="none" 
	d="
M153.448181,86.718735 
	C149.949661,90.017403 140.190155,90.046349 135.081299,86.355179 
	C140.933395,88.193176 146.939499,88.395416 153.448181,86.718735 
z"/>
<path fill="#496B9D" opacity="1.000000" stroke="none" 
	d="
M379.962738,53.812160 
	C380.237946,54.008091 380.513123,54.204021 380.901917,54.627457 
	C374.261444,54.669163 367.507385,54.483364 360.416107,54.105637 
	C360.078888,53.913704 360.146088,53.839886 360.600037,53.885376 
	C367.356903,53.891300 373.659821,53.851730 379.962738,53.812160 
z"/>
<path fill="#496B9D" opacity="1.000000" stroke="none" 
	d="
M398.842896,53.810329 
	C405.051758,53.782391 411.085632,53.860714 417.591675,53.982906 
	C411.688965,54.151405 405.314087,54.276035 398.476990,54.395264 
	C398.215485,54.208656 398.433197,54.050896 398.842896,53.810329 
z"/>
<path fill="#3A6096" opacity="1.000000" stroke="none" 
	d="
M123.500938,96.193336 
	C126.743622,97.072144 130.196274,98.205849 133.824829,99.653694 
	C130.570786,98.794632 127.140846,97.621429 123.500938,96.193336 
z"/>
<path fill="#3A6096" opacity="1.000000" stroke="none" 
	d="
M154.369415,100.593132 
	C157.220551,99.415031 160.444092,98.245796 164.100739,97.112137 
	C161.269821,98.299126 158.005844,99.450562 154.369415,100.593132 
z"/>
<path fill="#3A6096" opacity="1.000000" stroke="none" 
	d="
M139.493042,100.911346 
	C142.489044,100.638412 145.923096,100.497017 149.657959,100.616150 
	C146.616211,100.932083 143.273651,100.987488 139.493042,100.911346 
z"/>
<path fill="#496B9D" opacity="1.000000" stroke="none" 
	d="
M359.159729,44.457260 
	C359.410400,46.147461 359.565247,48.262474 359.496429,50.662830 
	C359.203156,48.926144 359.133514,46.904110 359.159729,44.457260 
z"/>
<path fill="#3A6096" opacity="1.000000" stroke="none" 
	d="
M174.291229,87.816490 
	C174.460938,86.468163 174.904114,84.908607 175.662994,83.178001 
	C175.507370,84.539719 175.036026,86.072495 174.291229,87.816490 
z"/>
<path fill="#3A6096" opacity="1.000000" stroke="none" 
	d="
M113.960251,83.364792 
	C114.649643,84.444824 115.317924,85.875786 115.982841,87.665146 
	C115.299362,86.587601 114.619247,85.151657 113.960251,83.364792 
z"/>
<path fill="#3A6096" opacity="1.000000" stroke="none" 
	d="
M166.453125,96.261948 
	C166.878433,95.582214 167.613434,94.812469 168.732971,94.060532 
	C168.332626,94.776199 167.547714,95.474068 166.453125,96.261948 
z"/>
<path fill="#44669A" opacity="1.000000" stroke="none" 
	d="
M504.767090,88.720200 
	C504.176483,88.692841 503.641510,88.363197 503.046936,87.790901 
	C503.599121,87.838142 504.210938,88.128029 504.767090,88.720200 
z"/>
<path fill="#3D5F93" opacity="1.000000" stroke="none" 
	d="
M582.415222,98.179420 
	C582.907654,97.809250 583.759583,97.436028 584.993896,97.098625 
	C584.509094,97.481750 583.641846,97.829063 582.415222,98.179420 
z"/>
<path fill="#3A6096" opacity="1.000000" stroke="none" 
	d="
M133.137131,84.585121 
	C132.586273,84.361488 131.937927,83.844337 131.262360,82.996170 
	C131.836639,83.207298 132.438141,83.749443 133.137131,84.585121 
z"/>
<path fill="#3A6096" opacity="1.000000" stroke="none" 
	d="
M134.854660,85.736496 
	C134.455078,85.769012 133.892349,85.554016 133.213562,85.046463 
	C133.628830,84.998932 134.160172,85.243950 134.854660,85.736496 
z"/>
<path fill="#3A6096" opacity="1.000000" stroke="none" 
	d="
M134.138306,100.085503 
	C134.072250,99.981392 134.422806,100.051399 134.509964,100.060295 
	C134.597122,100.069191 134.204376,100.189613 134.138306,100.085503 
z"/>
<path fill="#496B9D" opacity="1.000000" stroke="none" 
	d="
M359.765259,41.178818 
	C360.021759,41.192272 360.019409,41.600643 360.027832,41.804863 
	C360.036255,42.009083 359.646271,42.032719 359.451141,42.036457 
	C359.340271,41.748585 359.424530,41.456974 359.765259,41.178818 
z"/>
<path fill="#3A6096" opacity="1.000000" stroke="none" 
	d="
M154.729416,86.051712 
	C154.754395,86.277397 154.506165,86.516823 153.991455,86.779404 
	C153.968735,86.556862 154.212479,86.311150 154.729416,86.051712 
z"/>
<path fill="#496B9D" opacity="1.000000" stroke="none" 
	d="
M359.194550,53.222801 
	C359.251648,52.954643 359.630859,52.956951 359.839539,53.184151 
	C360.048248,53.411354 360.146088,53.839886 360.146088,53.839886 
	C360.146088,53.839886 360.078888,53.913704 360.045441,53.950699 
	C359.720490,53.822113 359.428955,53.656536 359.194550,53.222801 
z"/>
<path fill="#3A6096" opacity="1.000000" stroke="none" 
	d="
M116.019547,88.322693 
	C116.245277,88.313919 116.515266,88.612595 116.835396,89.219208 
	C116.611618,89.228149 116.337715,88.929153 116.019547,88.322693 
z"/>
<path fill="#3A6096" opacity="1.000000" stroke="none" 
	d="
M173.374969,89.335236 
	C173.255249,89.130249 173.390671,88.748543 173.776611,88.188316 
	C173.894791,88.392708 173.762436,88.775620 173.374969,89.335236 
z"/>
<path fill="#3A6096" opacity="1.000000" stroke="none" 
	d="
M118.904465,92.349030 
	C119.123428,92.275017 119.428986,92.467102 119.826935,92.921951 
	C119.609917,92.994850 119.300491,92.804993 118.904465,92.349030 
z"/>
<path fill="#3A6096" opacity="1.000000" stroke="none" 
	d="
M117.964035,91.301437 
	C118.175560,91.243507 118.461731,91.452782 118.833954,91.921112 
	C118.626236,91.976326 118.332451,91.772484 117.964035,91.301437 
z"/>
<path fill="#3A6096" opacity="1.000000" stroke="none" 
	d="
M158.620575,82.630898 
	C158.710648,82.848160 158.532990,83.239258 158.061829,83.775589 
	C157.963181,83.548798 158.158005,83.176765 158.620575,82.630898 
z"/>
<path fill="#3A6096" opacity="1.000000" stroke="none" 
	d="
M171.347351,92.089294 
	C171.263626,91.873779 171.443817,91.565689 171.873199,91.145477 
	C171.951996,91.354469 171.781631,91.675591 171.347351,92.089294 
z"/>
<path fill="#3A6096" opacity="1.000000" stroke="none" 
	d="
M120.964722,94.306732 
	C121.162941,94.222397 121.457382,94.389809 121.875519,94.783920 
	C121.686462,94.859894 121.373703,94.709190 120.964722,94.306732 
z"/>
<path fill="#3A6096" opacity="1.000000" stroke="none" 
	d="
M169.315628,94.051208 
	C169.252335,93.835045 169.457230,93.543999 169.922607,93.167419 
	C169.983322,93.380035 169.783569,93.678177 169.315628,94.051208 
z"/>
<path fill="#3A6096" opacity="1.000000" stroke="none" 
	d="
M119.907928,93.348694 
	C120.124222,93.266457 120.431526,93.447098 120.845428,93.880203 
	C120.634338,93.958969 120.316643,93.785278 119.907928,93.348694 
z"/>
<path fill="#3A6096" opacity="1.000000" stroke="none" 
	d="
M170.350952,93.098572 
	C170.275223,92.877960 170.466736,92.571548 170.921295,92.172516 
	C170.995621,92.390862 170.806900,92.701820 170.350952,93.098572 
z"/>
<path fill="#F2F5F8" opacity="1.000000" stroke="none" 
	d="
M571.283875,54.446579 
	C581.669983,56.429874 585.758118,60.651035 586.116699,69.408203 
	C586.557251,80.167862 581.580872,85.994186 570.713928,86.821190 
	C565.424561,87.223740 560.079285,86.890793 554.329712,86.890793 
	C554.329712,76.111786 554.329712,65.434944 554.329712,54.360455 
	C559.953552,54.360455 565.405579,54.360455 571.283875,54.446579 
z"/>
<path fill="#F3F4F5" opacity="1.000000" stroke="none" 
	d="
M323.052765,172.063812 
	C320.418640,172.063812 318.266815,172.063812 315.235046,172.063812 
	C315.235046,167.183533 315.109863,162.597183 315.361511,158.031616 
	C315.402191,157.293716 317.099274,156.086151 318.062531,156.054138 
	C323.053833,155.888229 328.066406,155.841568 333.050507,156.124222 
	C338.057220,156.408157 340.707703,159.112823 340.889191,163.470963 
	C341.088470,168.255814 338.735199,171.139084 333.517395,171.795425 
	C330.230682,172.208862 326.865173,171.995834 323.052765,172.063812 
z"/>
<path fill="#F4F5F5" opacity="1.000000" stroke="none" 
	d="
M249.674149,156.919846 
	C255.217285,158.452347 256.649597,162.143921 256.044861,167.003357 
	C255.431122,171.935440 251.925354,173.686432 247.632431,173.892441 
	C242.027176,174.161438 236.399277,173.958313 230.442352,173.958313 
	C230.442352,167.952759 230.442352,162.388992 230.442352,155.820374 
	C236.829468,156.169647 243.048294,156.509720 249.674149,156.919846 
z"/>
<path fill="#44669A" opacity="1.000000" stroke="none" 
	d="
M360.600037,53.885376 
	C360.146088,53.839886 360.048248,53.411354 360.028992,53.192112 
	C366.446289,53.088699 372.882782,53.204529 379.641022,53.566257 
	C373.659821,53.851730 367.356903,53.891300 360.600037,53.885376 
z"/>
</svg>