<svg fill="none" height="55" viewBox="0 0 155 55" width="155" xmlns="http://www.w3.org/2000/svg" xmlns:xlink="http://www.w3.org/1999/xlink"><clipPath id="a"><path d="m0 0h155v55h-155z"/></clipPath><mask id="b" height="55" maskUnits="userSpaceOnUse" width="155" x="0" y="0"><path d="m155 0h-155v55h155z" fill="#fff"/></mask><g clip-path="url(#a)"><g fill="#46474a" mask="url(#b)"><path d="m72.8668 35.4758c-3.7901 0-6.9297-3.2675-6.9297-7.4053 0-4.1377 3.1418-7.4052 6.9297-7.4052s6.8767 3.212 6.8767 7.4052-3.0867 7.4053-6.8767 7.4053zm-22.7445-3.3144c-1.2309 2.007-3.3431 3.3144-5.7412 3.3144-3.7901 0-6.9298-3.2675-6.9298-7.4053 0-4.1377 3.1418-7.4052 6.9298-7.4052 2.4193 0 4.5145 1.2733 5.7369 3.2611h7.3979c-.3368 1.3181-.5127 2.7045-.5127 4.1441 0 1.4397.1695 2.7877.4979 4.0909zm-29.8183 2.0091c-1.3538 1.1432-2.7605 1.6871-4.4405 1.6871-3.1947 0-5.684-1.798-6.38944-4.4107h19.38034c.1906.9405.4618 1.8513.8156 2.7236h-9.3681zm-4.4405-14.16c3.252 0 5.5675 1.638 6.5272 4.6219h-12.98655c1.06135-2.9391 3.46595-4.6219 6.45725-4.6219m71.0216.5716c-.714-1.3395-1.6334-2.568-2.7541-3.6749-2.9787-2.9413-6.9297-4.575-11.2621-4.575s-8.3385 1.6337-11.3151 4.575c-1.2266 1.2114-2.2117 2.585-2.949 4.0801-.7372-1.4972-1.7266-2.8644-2.9574-4.0823-2.9787-2.9412-6.9297-4.575-11.2621-4.575s-8.3386 1.6338-11.3151 4.575c-1.2287 1.2136-2.2139 2.5872-2.9532 4.0866-.2881-.578-.6144-1.1432-.9851-1.6914-2.9236-4.3553-7.7962-6.9702-13.2641-6.9702-4.3324 0-8.33645 1.6338-11.3151 4.575-2.98077 2.9434-4.5506 6.8102-4.5506 11.1655s1.51475 8.1689 4.54848 11.1634c3.0867 3.1033 6.76872 4.5195 11.31502 4.5195 6.2073 0 11.4422-3.131 14.2302-8.6466.7394 1.5144 1.733 2.9029 2.9723 4.1271 2.9786 2.9412 6.9848 4.5195 11.3151 4.5195 4.3302 0 8.2834-1.5783 11.262-4.5195 1.2309-1.2136 2.216-2.5893 2.9533-4.0908.7393 1.4994 1.7245 2.8751 2.9532 4.0908 2.9787 2.9391 6.9848 4.5195 11.3151 4.5195 4.3302 0 8.2834-1.5804 11.2621-4.5195 2.9765-2.9412 4.5484-6.8081 4.5484-11.1634 0-2.5722-.5381-4.9397-1.574-7.0512"/><path d="m101.022 43.5444-.015-30.583h-9.9909l.0191 29.7107c.0127 2.9305-2.5316 3.6642-4.4892 3.8071l-2.0655 8.1433s1.3749.3775 3.504.3775c4.4468 0 13.0355-1.2797 13.0355-11.4535"/><path d="m100.588 7.93636-9.4806-7.93636.0191 7.97689 9.8215 2.51251-.032-2.12007v.23462c-.004-.27088-.129-.51189-.326-.66759"/><path d="m133.476 20.9937c-.288-.5801-.614-1.1432-.985-1.6913-2.924-4.3553-7.796-6.9702-13.264-6.9702-4.33 0-8.337 1.6338-11.315 4.575-2.977 2.9412-4.549 6.808-4.549 11.1633s1.517 8.1689 4.549 11.1634c3.086 3.1033 6.768 4.5195 11.315 4.5195 6.207 0 11.285-3.0435 14.247-8.6466.237-.45.422-.9363.422-.9363h-10.231c-1.354 1.1432-2.76 1.6871-4.44 1.6871-3.195 0-5.684-1.798-6.39-4.4107h21.883c.016-.0128.563-2.7386.144-5.8249-.361-2.6618-1.388-4.6261-1.388-4.6261m-14.249-.9833c3.252 0 5.567 1.638 6.529 4.6219h-12.987c1.062-2.9391 3.466-4.6219 6.458-4.6219z"/><path d="m148.372 31.5919c-.058-.3007-.149-1.0835-.134-1.6231l-.03-8.8428h4.947l-.008-8.1198h-4.947l.013-5.99336-9.936-2.53597-.019 8.52933h-4.252l.008 6.1703 3.901 1.0814-.009.8702-.051 10.2868c-.017.8424.026 1.6849.165 2.4058 2.437 11.6049 14.76 9.4742 14.76 9.4742l2.218-8.7447c-.228.017-.803.0511-1.495.0511-2.276 0-4.644-.4798-5.131-3.0073"/></g></g></svg>