<svg xmlns="http://www.w3.org/2000/svg" width="450" height="28.5" viewBox="0 0 19516.458 1225.7"><path d="M687.448 1225.7c-340.6 0-790.68-88.03-666.28-467.78L266.208 8.93h408.78l-227.93 694.19c-49.07 150.71 58.23 246.47 330.55 246.47 274.72 0 443.35-97.15 492.58-246.47l227.34-694.19h406.11l-245.28 748.99c-122.11 374.37-622.14 467.78-970.91 467.78zm2484.97-838.11c-27.76 84.87-99.13 115.16-158.81 115.16h-648.63l70.69-217.19h640.4c77.44 0 118.75 35.74 96.35 102.03zm78.47-378.66h-1132.8l-391.9 1196.22h408.56l139.28-426.06h307.75l224.64 426.06h534.93l-287.15-467.32 73.8.03c186.64 0 375.82-153.53 446.04-368.94 82.06-247.95-85.44-359.99-323.15-359.99zm1016.4 726.6l372.71-408.95 103.64 408.95zM4958.058 0h-413.17l-1200.38 1205.15h501.28l195.79-216.03h763.27l53.59 216.03h508.84zm493.79 1205.17L5843.918 8.93h407.57l-296.8 905.41h1094.46l-196.57 290.83zm2254.46-351.5h902.37l-195.86-774.03zm10646.51 350.45c-250.89 0-467.29-23.06-644.95-68.74l79.2-115.44c130.21 41.55 336.24 100.38 661.96 100.38 254.21 0 643.04-70.31 710.95-262.42 56.55-160.25-311.22-172.96-603.53-194.94-260.11-20.52-550.62-26.97-631.65-159.71-6.95-11.45-29.99-45.22 1.73-143.36 68.36-210.55 472.54-357.59 982.87-357.59 234.95 0 457.34 22.81 607.06 61.06l-74.86 115.26c-152.93-57.02-383.12-90.67-626.96-90.67-282.75 0-692.43 64.52-747.04 231.07-14.78 44.73-16.05 78.08 7.59 115.48 57.29 90.47 330.62 73.67 607.69 79.03 291.57 5.68 619.83 18.52 670.99 151.94 4.58 11.88 31.11 59.63-.08 155.51-96.16 295.32-600.6 383.14-1000.97 383.14zm-2379.1-20.05l385.91-1171.86h1346.02l-28.43 87.24h-1212.32l-133.95 408.72h1213.66l-28.65 87.67h-1212.99l-163.93 501.11h1212.28l-28.64 87.12zm-2173.28 0L14186.938 0l1236.24 988.06 323.43-975.89h141.88l-388.93 1184.88-1248.17-1008.96-307.83 993.91zm-2162.21 0l383.68-1171.9h141.89l-342.13 1044.76h1128.68l-42.02 127.14zm-1501.5-602.58h878.14c128.52 0 286.42-79.91 326.25-203.58 27.44-86.15 99.55-252.31-255.73-252.31h-801.09zm703.69 602.51l-255.27-490.36h-484.08L9942.108 1184h-144.25l378.91-1170.89h1037.17c127.92 0 219.32 25.06 259.93 81.92 30.8 43.18 76.62 130.47 49.81 213.17-64.98 201.87-229.13 364.64-398.25 364.64h-403.9l320.86 510.5zm2335.92.07l382.02-1171.9h152.44l-383.01 1171.9zm-4049.4 0l383.86-1171.9h152.37l-384.85 1171.9zm-439.03 0l-61.38-245.47h-991.27l-222.61 245.47h-186.01l1069.9-1170.34 246.31-1.52 310.87 1169.1z" fill="#ba0c2f"/></svg>