<?xml version="1.0" encoding="utf-8"?>
<!-- Generator: Adobe Illustrator 16.0.0, SVG Export Plug-In . SVG Version: 6.00 Build 0)  -->
<!DOCTYPE svg PUBLIC "-//W3C//DTD SVG 1.1//EN" "http://www.w3.org/Graphics/SVG/1.1/DTD/svg11.dtd">
<svg version="1.1" xmlns="http://www.w3.org/2000/svg" xmlns:xlink="http://www.w3.org/1999/xlink" x="0px" y="0px" width="500px"
	 height="500px" viewBox="0 0 500 500" enable-background="new 0 0 500 500" xml:space="preserve">
<g id="logo">
	<g id="circle">
		<g id="black_circle">
			<path fill="#FFFFFF" d="M249.5,487.221c-63.364,0-122.935-24.675-167.74-69.48S12.279,313.364,12.279,250
				S36.955,127.065,81.76,82.26s104.376-69.48,167.74-69.48s122.935,24.675,167.74,69.48s69.48,104.376,69.48,167.74
				s-24.675,122.935-69.48,167.74S312.864,487.221,249.5,487.221z"/>
			<path d="M249.5,17.279c31.421,0,61.897,6.152,90.583,18.285c27.711,11.721,52.6,28.502,73.976,49.878
				s38.157,46.265,49.878,73.976c12.133,28.685,18.285,59.162,18.285,90.583s-6.152,61.897-18.285,90.583
				c-11.721,27.711-28.502,52.6-49.878,73.976s-46.265,38.157-73.976,49.878c-28.685,12.133-59.162,18.285-90.583,18.285
				s-61.897-6.152-90.583-18.285c-27.711-11.721-52.6-28.502-73.976-49.878s-38.157-46.265-49.878-73.976
				C22.931,311.897,16.779,281.421,16.779,250s6.152-61.897,18.285-90.583c11.721-27.711,28.502-52.6,49.878-73.976
				s46.265-38.157,73.976-49.878C187.603,23.431,218.079,17.279,249.5,17.279 M249.5,8.279C116.002,8.279,7.779,116.502,7.779,250
				S116.002,491.721,249.5,491.721S491.221,383.498,491.221,250S382.998,8.279,249.5,8.279L249.5,8.279z"/>
		</g>
	</g>
	<g id="tail">
		<path d="M296.693,400.264c-8.536,0.783-13.955-10.426-13.608-24.32c0.145-5.791-26.792,0.471-23.596-27.649
			c0.269-2.37,1.672-4.048,0.724-5.067c-3.909-4.198-10.336-7.066-12.015-14.621c-0.579-2.606-0.724-10.278,0.724-13.897
			c1.299-3.246-9.989,2.172-14.332,7.528c-3.774,4.655-5.076,13.608-4.922,18.674c0.29,9.555,10.348,11.025,9.989,13.897
			c-0.724,5.791-6.791,13.655-3.619,22.293c4.198,11.437,11.427,8.158,14.476,13.318c1.882,3.185-2.563,26.297,14.766,27.794
			C277.005,419.228,312.472,398.816,296.693,400.264z"/>
		<path d="M321.158,390.565c-0.29-2.895-60.8-84.831-62.248-85.989c-2.829-2.262-6.161,10.711-6.08,18.53
			c0.145,14.042,12.385,16.487,14.187,19.833c1.013,1.882-7.094,12.45-0.145,18.964c10.184,9.547,19.109,7.528,20.701,9.699
			s-1.76,13.348,2.606,18.385C293.942,394.329,321.576,394.752,321.158,390.565z"/>
		<path d="M256.449,422.703c3.856-1.462-7.383-5.936-9.844-13.029c-1.71-4.931-0.579-15.055-1.737-17.516
			c-1.158-2.461-13.89-7.239-14.477-14.766c-0.869-11.146,4.734-17.421,4.054-21.28c-0.435-2.461-6.013-3.996-7.962-9.844
			c-0.289-0.869-3.329,4.488-5.356,6.949c-4.25,5.161-10.751,10.863-12.739,13.897c-1.155,1.763-2.461,6.949-0.434,11.581
			c1.09,2.492,7.672,8.541,7.383,10.713c-0.503,3.774-8.541,13.752-7.817,19.108c0.724,5.356,2.901,12.438,9.265,16.792
			C219.534,427.19,242.696,427.914,256.449,422.703z"/>
		<path d="M201.873,409.095c-0.242-3.176,8.002-15.746,8.002-19.22c0-3.475-7.423-9.733-7.568-12.338
			c-0.145-2.606,1.303-8.107,0.435-9.844c-0.869-1.737-11.002,2.461-13.608,3.185c-2.606,0.724-13.173,1.882-14.477,1.737
			c-1.438-0.16,3.288,7.258,3.185,10.423c-0.092,2.837-13.318,7.527-13.318,17.806s7.182,16.217,36.48,22.438
			C222.14,427.769,202.886,422.413,201.873,409.095z"/>
		<path d="M163.375,390.5c2.424-3.012,9.375-6.75,9.256-9.345c-0.169-3.687-1.014-7.238-4.054-9.265
			c-1.711-1.141-11.091-3.191-22.827-11.266c-4.409-3.033-13,7.375-14.377,12.858c-0.776,3.092,23.018,29.966,27.36,30.4
			S158.256,396.861,163.375,390.5z"/>
		<path d="M140.638,355.967c2.311-0.462-14.042-17.227-15.779-17.951c-1.737-0.724-5.501,2.171-5.936,3.185
			c-0.434,1.014,7.383,31.993,10.134,26.637C131.65,362.789,137.743,356.546,140.638,355.967z"/>
		<path d="M117.331,327.738c2.221,2.036,5.233,4.677,5.791,5.791c0.579,1.158-1.61,1.379-2.605,1.882
			c-1.426,0.721-2.75,2.316-3.185,0.724C115.985,331.198,115.594,326.146,117.331,327.738z"/>
		<path d="M155.404,300.522c-2.443-4.072-7.923-12.308-8.904-20.647c-0.75-6.375,1.125-5.125,3.403-2.37
			c0.835,1.011,1.448,6.08,2.316,6.804c0.869,0.724,5.791,1.882,6.804,4.053s-0.29,6.514,1.158,8.251s4.497,1.292,6.514,3.04
			c2.171,1.882,3.619,4.198,3.909,7.093c0.131,1.305,0.145,7.962-0.869,8.251C168.722,315.288,157.575,304.142,155.404,300.522z"/>
		<path d="M164.669,260.278c5.635-0.451,20.675-0.311,21.135,2.605c0.869,5.501-2.75,9.844-2.75,12.739
			c0,2.896,2.461,6.949,2.605,9.554c0.145,2.606-5.129,7.063-5.501,8.252c-0.724,2.316,1.882,3.474,2.027,8.396
			c0.081,2.75-3.911,8.324-5.211,8.251c-2.606-0.145-1.995-5.873-3.474-8.831c-1.882-3.764-6.804-4.198-8.976-7.527
			c-0.965-1.48,0.579-4.922-0.434-6.804c-1.014-1.882-7.094-4.922-8.251-6.37c-1.158-1.447-1.737-3.185-3.619-5.791
			c-1.177-1.63-5.214-2.708-5.936-5.501C145.125,264.766,153.812,261.147,164.669,260.278z"/>
		<path d="M206.216,272.149c2.948,2.211,13.897,10.133,13.173,12.884c-0.724,2.75-6.514,4.488-8.686,6.225
			c-2.171,1.737-5.356,8.396-6.804,9.41c-1.447,1.014-3.764-0.869-6.08,0.435c-2.316,1.303-4.777,6.225-6.225,7.527
			c-1.448,1.303-6.949,3.185-7.962,1.882c-1.014-1.303,2.305-4.924,2.605-6.515c1.512-7.997-3.738-8.122,1.303-13.029
			c1.763-1.716,2.487-3.519,2.708-5.843c0.25-2.625-2.998-6.317-2.854-8.923c0.145-2.606,2.149-4.761,2.729-7.077
			c0.579-2.316-0.412-4.359,0.601-5.228C191.739,263.029,202.742,269.543,206.216,272.149z"/>
		<path d="M228.943,306.168c0.495,5.931,0.407,19.089-3.619,20.412C221,328,220.5,323.5,216,323.625
			c-2.895,0.081-5.007,2.81-8.916,2.665c-3.909-0.145-7.203-4.921-9.084-5.79c-1.882-0.868-6.5,0.875-7.875,0.375
			c-1.721-0.625-5.334-3.705-4.321-4.573c1.013-0.869,2.171-1.882,5.356-2.172c3.185-0.289,6.024-7.176,8.34-7.755
			c2.316-0.579,3.625,0.875,5.75-1c4.538-4.004,7.52-10.017,9.073-11.367c3.329-2.895,7.857-6.174,10.133-2.461
			C225.5,293.25,228.365,299.22,228.943,306.168z"/>
		<path d="M220.5,345.875c-3.097,3.717-11.058,11.546-13.25,11.5c-4.052-0.085-6.246-3.146-6.391-4.738
			c-0.145-1.592-0.241-4.17-1.109-5.762s-5.55-2.779-6.418-3.937c-0.869-1.158,0-3.909-0.869-6.225
			c-0.869-2.316-6.515-4.198-7.238-5.936s-2.461-7.672-1.303-8.251s4.922,3.474,6.949,3.619c2.026,0.145,4.198-1.882,5.935-1.013
			c1.737,0.868,6.608,4.973,9.069,5.118c2.461,0.145,5.842-1.933,9.316-1.933c3.475,0,3.764,2.027,5.211,2.461
			c1.448,0.435,5.188-0.822,5.501,0.435C226.193,332.37,224.875,340.625,220.5,345.875z"/>
		<path d="M184.646,366.534c5.712-0.526,17.535-5.31,15.854-6.909c-5.125-4.875-3.631-8.947-4.5-10.25s-4.25-1.5-5.708-3.107
			c-2.06-2.271-1.792-6.268-2.667-7.768c-0.961-1.648-4.282-2.945-5.729-4.682s-4.198-7.672-5.501-7.527
			c-1.303,0.145-3.27,4.584-3.145,5.709c0.201,1.805,0.586,2.167,0.25,5c-0.161,1.356-2.462,5.07-2.896,6.518
			s1.013,5.935,0.724,7.961s-2.75,8.251-2.75,9.844C168.577,362.916,164.234,368.416,184.646,366.534z"/>
		<path d="M149.903,356.546c-2.747-2.146-6.328-6.333-5.791-9.555c0.29-1.737,4.632-5.066,5.791-6.225s1.158-5.646,1.882-6.804
			c0.724-1.158,4.272-3.242,5.211-4.343c2.129-2.495,2.698-6.376,3.379-6.995c0.564-0.512,2.846-1.98,5.886-1.257
			c4.721,1.125,4.632,2.75,4.053,4.922c-0.579,2.172-1.592,3.764-1.882,5.067s0.434,5.211-0.145,6.804
			c-0.579,1.593-2.038,3.964-2.461,6.515c-0.28,1.688,0.869,4.488,0.724,6.37c-0.145,1.882-1.476,4.043-1.882,5.211
			c-1.158,3.33-0.145,5.646-1.737,6.949C162.139,363.853,154.535,360.165,149.903,356.546z"/>
		<path d="M172.052,319.342c0,1.761,1.158,3.764,2.605,3.764c1.448,0,5.067-0.435,5.646-1.882c0.579-1.448,1.882-7.672-0.145-8.107
			C178.132,312.683,172.052,315.867,172.052,319.342z"/>
		<path d="M143.533,287.639c-1.597-5.751-5.066-34.309,2.75-49.509c3.05-5.93-6.225,0.724-7.817,2.606
			c0,0-16.793,12.305-20.701,39.23c-0.916,6.311-16.358-11.292-49.509,11.726c-5.588,3.88,8.107-0.29,25.189,10.712
			c7.329,4.72,23.886,13.897,35.177,29.966c2.483,3.534,9.401,11.534,10.857,11.292c2.605-0.434,5.646-4.777,6.225-6.659
			c0.579-1.882-0.29-5.646,0.869-7.094c1.158-1.447,5.356-2.461,6.225-3.909c0.868-1.447,1.447-5.211,2.605-6.08
			c1.158-0.869,5.067-2.027,5.936-3.185S147.152,300.667,143.533,287.639z"/>
	</g>
	<g id="head_and_bust">
		<path d="M412.214,293.863c-3.474-3.619-9.989-4.922-13.897-5.211c-8.831,4.343-57.76,62.104-60.221,58.774
			c-2.027-2.896,42.416-48.641,44.008-54.576c1.119-4.171-27.071-28.229-22.728-54.431c2.605-6.225,10.712,30.4,13.028,31.703
			c2.316,1.303,11.871,3.764,14.477,2.896c2.605-0.869,22.004-63.841,21.28-68.039c-0.724-4.198-15.2-13.897-16.792-20.846
			c-3.33,4.777-4.777,10.712-6.515,12.16c-1.737,1.447-4.053,0.145-4.922-1.158s4.842-5.171,3.33-5.936
			c-40.389-20.412-72.092,14.911-82.081,41.837c-2.027,5.211,0.145,75.711-1.882,76.725c-2.026,1.013-22.728-10.857-27.215-11.437
			s-9.425,2.486-9.12,3.909c0.435,2.027,62.393,87.292,63.117,87.582c4.104,1.642,5.364-8.95,8.686-9.988
			c4.632-1.448,12.88,1.11,14.332-0.29c4.053-3.909,46.179-67.75,47.337-68.618c1.158-0.868,4.632-0.29,4.777,0.29
			c0.145,0.579-8.396,42.561-10.857,44.877c-2.461,2.316-10.712,1.158-13.607,3.185c-2.896,2.027,0.145,8.686-1.014,9.844
			c-1.158,1.158-11.905,2.605-13.752,5.067c-1.303,12.305-0.724,20.122,0.435,21.28c8.831-4.777,37.928-34.164,39.23-36.915
			C402.949,353.795,413.501,296.556,412.214,293.863z M391.658,218.297c1.334,0,0.106,10.375-1.014,11.292
			c-1.592,1.303-4.941-2.311-5.356-3.764C384.999,224.811,390.789,218.297,391.658,218.297z"/>
		<g>
			<path d="M300.602,219.889c3.185-6.659,5.935-10.712,10.625-15.646l-9.901-7.516C300.312,205.703,300.167,211.493,300.602,219.889
				z"/>
			<path d="M302.619,191.503l11.173,9.644c2.84-3.254,5.907-6.221,9.176-8.861l-10.204-13.364
				C308.971,182.709,305.559,186.92,302.619,191.503z"/>
			<path d="M315.484,176.34l10.448,13.685c2.838-2.049,5.807-3.858,8.891-5.408l-8.387-16.4
				C322.542,170.563,318.876,173.285,315.484,176.34z"/>
			<path d="M329.446,166.502l8.512,16.646c3.579-1.556,7.292-2.769,11.119-3.602l-1.635-19.682
				C341.094,161.222,335.061,163.486,329.446,166.502z"/>
			<path d="M361.619,158.365c-3.658,0-7.25,0.295-10.759,0.857l1.636,19.689c2.94-0.458,5.934-0.714,8.979-0.714
				c1.41,0,2.805,0.068,4.193,0.168l2.487-19.671C366.001,158.486,363.824,158.365,361.619,158.365z"/>
			<path d="M371.588,159.116l-2.478,19.602c2.94,0.388,5.828,0.983,8.646,1.8l8.555-17.494
				C381.617,161.188,376.688,159.873,371.588,159.116z"/>
			<path d="M389.505,164.368l-8.421,17.221c1.454,0.372,3.625,1.241,5.217,2.254c0,0,3.909-6.659,5.067-6.659
				c1.167,0,1.882,2.75,3.764,5.211c0.724,0.724,7.923-9.939,7.923-9.939C398.853,169.269,394.32,166.539,389.505,164.368z"/>
			<path d="M405.761,174.613l-8.603,11.98c2.75,2.895,5.143,5.162,7.962,7.817l10.729-9.507
				C412.813,181.135,409.434,177.688,405.761,174.613z"/>
			<path d="M417.966,187.66l-10.24,9.791c1.233,1.275,2.898,3.401,4.054,4.777l14.338-0.51
				C423.884,196.702,421.141,191.997,417.966,187.66z"/>
			<path d="M413.227,205.558c0.29,3.619-3.33,12.016-2.316,12.739c1.013,0.724,13.318,0.724,18.095,0.145
				c0.435-4.632-1.448-11.292-2.171-13.463C424.808,204.979,416.991,205.268,413.227,205.558z"/>
		</g>
	</g>
	<g id="wings">
		<path d="M295.5,300.875c1.301-3.891-1.118-238.138-3-239.875c-9.989-2.75-33.375-7.323-65.375-3.125
			c0,0-1.056,102.261,0.875,133.25c2.625,42.125,37,73.125,40.418,81.844c0.74,1.887-8.398,5.984-8.398,9.362
			C260.02,285.708,294.714,303.227,295.5,300.875z"/>
		<path d="M80.127,165c0,0,38.373-91.322,141.373-106.377v17.661c0,0-78.256,11.716-120.527,88.716H80.127z"/>
		<path d="M101.841,177c0,0,26.659-74.952,119.659-94.25v19.012c0,0-63.899,7.238-101.129,75.238H101.841z"/>
		<path d="M120.661,190c0,0,21.839-66.378,100.839-83.171v17.227c0,0-50.896,3.944-83.468,65.944H120.661z"/>
		<path d="M139.377,201.359c0,0,23.123-61.09,82.123-70.21v17.227c0,0-35.561-1.447-64.658,53.128L139.377,201.359z"/>
		<path d="M156.562,215c0,0,19.938-50.989,64.938-60.688v17.227c0,0-25.417,1.462-48,43.462H156.562z"/>
		<path d="M221.793,177.55c-37.901,12.949-47.57,50.45-47.57,50.45h16.069c10.027-24,26.934-32.598,32.56-34.697
			C222.289,188.438,221.938,183.22,221.793,177.55z"/>
		<path d="M223.745,199.633C201.411,209.38,193.911,236,193.911,236h18.385c7-14,13.393-18.996,15.326-20.41
			C225.977,210.572,224.69,205.341,223.745,199.633z"/>
		<path d="M230.153,222.556C215.867,231.927,213.599,250,213.599,250h15.49c1.272-7.502,6.672-12.321,7.968-13.383
			C234.39,231.917,232.095,227.298,230.153,222.556z"/>
		<path d="M240.59,242.565c-6.239,2.621-7.593,14.528-7.593,14.528c3.04,1.303,12.999-0.369,15.576-2.424
			C245.658,250.45,243,246.452,240.59,242.565z"/>
		<path d="M251.462,258.804c-3.03,1.413-5.79,9.883-4.279,11.897c0,0,13.168,3.485,13.897,1.882c0.034-0.075,0.037-0.19,0.04-0.306
			C257.651,267.48,254.437,263.023,251.462,258.804z"/>
	</g>
</g>
</svg>