<?xml version="1.0"?>
<svg xmlns="http://www.w3.org/2000/svg" width="762.5682" height="312.188625" viewBox="0 0 152.51364 62.437725">
<g transform="translate(335.37792,-150.56651)">
 <path style="fill:#328a74;stroke-width:0.352778" d="m -240.67067,210.17397 c -1.3253,-0.45159 -2.80963,-1.22103 -3.29847,-1.70989 -1.45041,-1.4504 -1.13038,-3.68403 0.89469,-6.24435 l 0.67705,-0.85601 c 2.59883,1.68238 5.7705,3.25172 8.69832,3.29755 4.681,-0.006 7.24847,-2.66017 7.25414,-7.49795 l 0.002,-1.67909 -1.85208,0.97354 c -3.4572,1.32493 -7.09125,1.57579 -10.404,0.12533 -4.38423,-1.95278 -6.79407,-6.8449 -6.79407,-13.79208 0,-4.9102 1.48286,-9.74066 3.73678,-12.17269 2.25303,-2.19985 4.99734,-3.11269 7.77256,-3.27528 3.13603,-0.17297 4.65703,0.17765 6.65631,1.53439 l 1.26702,0.85983 0.98657,-0.72941 c 1.35716,-1.00338 3.39304,-1.42511 5.62356,-1.16489 l 1.87753,0.21904 -0.14336,15.74298 c -0.15203,16.69564 -0.21027,17.31345 -1.95353,20.72295 -5.61605,6.99842 -14.2038,7.51824 -21.00114,5.64603 z m 14.2277,-20.34366 v -14.43328 c -3.72367,-2.11331 -8.35028,-0.40152 -9.35739,2.60733 -1.0756,3.59593 -0.71827,10.02899 1.19209,11.62584 2.64249,2.20884 5.66414,1.83895 8.1653,0.20011 z m 22.92384,8.02785 c -4.33602,-0.98683 -7.947,-4.11201 -9.52452,-8.24315 -0.99039,-2.59359 -1.34697,-8.10781 -0.71146,-11.00215 0.56812,-2.58739 2.30357,-5.86404 4.01573,-7.58198 0.74676,-0.74929 2.41364,-1.8626 3.70416,-2.47403 2.25888,-1.07021 4.73596,-1.29967 6.17657,-1.29865 1.3723,9.7e-4 5.50294,0.26628 7.32646,1.12021 5.47027,2.56151 8.14487,8.12444 7.59804,15.80327 -0.62497,8.77616 -5.3157,13.58318 -13.63937,13.97753 -1.69327,0.0802 -3.84618,-0.0508 -4.94561,-0.30105 z m 7.06227,-7.25973 c 3.05607,-2.21631 3.76326,-11.44089 1.11809,-14.58449 -2.22831,-2.64819 -5.77564,-2.63138 -8.08606,0.0383 -2.08339,3.63621 -2.45937,8.87067 -0.77431,12.23425 1.55671,3.06406 5.20356,4.15304 7.74228,2.31191 z" />
 <path style="fill:#496aa5;stroke-width:0.352778" d="m -323.31228,196.67021 c -5.58707,-1.56345 -9.18495,-6.00625 -9.89325,-12.21655 -1.27274,-11.15931 4.57739,-18.26437 15.05101,-18.27963 5.62722,-0.008 10.00313,2.22257 10.00313,5.09943 0,1.37017 -0.79265,3.40894 -1.57913,4.06166 -0.33857,0.28099 -1.01044,0.0479 -2.61216,-0.90625 -4.31014,-2.56753 -8.83245,-1.9447 -10.85419,1.4949 -1.65394,3.16125 -1.47327,8.12414 0.5086,11.35214 1.04659,1.70465 2.90555,2.95212 5.22453,2.95212 2.53197,0 4.90467,-0.84086 5.99995,-1.86982 1.03655,-0.97379 1.53074,-0.62277 2.59005,1.83967 1.28731,2.99242 0.69759,4.14257 -2.9895,5.83058 -3.81496,1.21932 -7.42323,1.72731 -11.44904,0.64175 z m 25.72626,-0.0789 c -4.32461,-1.1686 -6.81619,-3.33953 -8.91317,-7.76612 -1.51139,-3.8651 -1.75686,-11.06392 -0.0926,-14.70297 2.58567,-5.27399 6.97842,-7.94262 13.08068,-7.94662 3.40262,-0.002 4.70009,0.32803 7.23678,1.8421 3.61759,2.1592 5.28683,5.85337 5.28683,11.70016 v 3.38528 h -9.03509 -9.0351 l 0.24511,1.30651 c 0.30018,1.60014 1.29384,3.60224 2.19004,4.41268 2.6487,2.39524 8.14195,2.16702 11.49285,-0.47748 0.72923,-0.5755 1.48631,-0.94721 1.68241,-0.82601 0.67045,0.41436 2.107,3.67312 2.107,4.77965 0,1.45209 -1.51829,2.87047 -4.16211,3.88821 -2.80941,1.08149 -8.83239,1.28316 -12.08363,0.40461 z m 8.83489,-20.45096 c -0.35969,-1.70847 -1.19231,-2.78502 -2.53509,-3.4794 -1.60506,-0.83001 -4.58801,-0.52473 -5.80085,0.59367 -1.06985,0.98654 -1.8921,2.73193 -1.8921,4.01636 v 0.89328 h 5.0626 5.25158 z m 23.96649,20.59153 c -0.88684,-0.23912 -2.31559,-0.84612 -3.175,-1.3489 l -1.56258,-0.91415 -0.63383,0.84355 c -0.59011,0.78535 -0.86389,0.84354 -3.96875,0.84354 h -3.33492 v -43.30149 l 1.33115,-0.21286 c 1.6559,-0.26479 4.80096,0.20824 5.55715,0.83583 1.37721,1.14297 1.42027,2.24131 1.42027,8.61795 0,3.40512 -0.11562,6.19113 0,6.19113 2.57763,-1.06955 5.31623,-2.17556 8.23064,-2.05315 9.69104,0.87754 11.30126,8.60172 11.32279,15.17395 0.0866,5.36144 -1.14865,9.91524 -5.00778,13.35107 -2.72403,2.16363 -7.40776,2.67911 -10.17914,1.9735 z m 5.96104,-14.69148 c -0.11272,-5.65734 -0.65042,-9.17307 -5.53162,-9.45775 -2.39434,-0.13529 -3.81033,-0.15085 -4.32346,0.36227 -0.51313,0.51311 -0.47247,1.63729 -0.47247,1.63729 v 9.31995 c 0,4.45748 -0.30883,5.33388 2.06352,5.67657 7.21244,1.04185 8.09444,-3.4547 8.26402,-7.53833 z" />
</g>
</svg>