<?xml version="1.0" encoding="utf-8"?>
<!-- Generator: Adobe Illustrator 15.0.0, SVG Export Plug-In . SVG Version: 6.00 Build 0)  -->
<!DOCTYPE svg PUBLIC "-//W3C//DTD SVG 1.1//EN" "http://www.w3.org/Graphics/SVG/1.1/DTD/svg11.dtd">
<svg version="1.1" id="Ebene_1" xmlns="http://www.w3.org/2000/svg" xmlns:xlink="http://www.w3.org/1999/xlink" x="0px" y="0px"
	 width="180px" height="50px" viewBox="0 0 180 50" enable-background="new 0 0 180 50" xml:space="preserve">
<path fill="#E12628" d="M62.541,18.002l3.609-11.34H32.058l-3.61,11.34h11.176l-8.64,27.078h13.865l8.639-27.077L62.541,18.002
	L62.541,18.002z M108.844,6.662l-7.934,14.776l-0.52-14.776H88.892l-9.093,16.465L79.508,6.662H66.996l0.678,38.416h12.511
	l9.457-17.122l0.604,17.122h11.497l20.627-38.416H108.844L108.844,6.662z M123.709,38.648h11.07l0.184,6.434h13.357l-1.1-38.419
	h-20.119l-20.117,38.419h13.357L123.709,38.648L123.709,38.648z M134.207,18.601l0.305,10.655h-5.885L134.207,18.601L134.207,18.601
	z"/>
</svg>
