<?xml version="1.0" encoding="UTF-8" standalone="no"?>
<!-- Created with Inkscape (http://www.inkscape.org/) -->

<svg
   xmlns:dc="http://purl.org/dc/elements/1.1/"
   xmlns:cc="http://creativecommons.org/ns#"
   xmlns:rdf="http://www.w3.org/1999/02/22-rdf-syntax-ns#"
   xmlns:svg="http://www.w3.org/2000/svg"
   xmlns="http://www.w3.org/2000/svg"
   xmlns:sodipodi="http://sodipodi.sourceforge.net/DTD/sodipodi-0.dtd"
   xmlns:inkscape="http://www.inkscape.org/namespaces/inkscape"
   width="500"
   height="360"
   viewBox="0 0 132.29166 95.250017"
   version="1.1"
   id="svg8"
   inkscape:version="0.92.2 (5c3e80d, 2017-08-06)"
   sodipodi:docname="LogoNorthCentralAirlines.svg">
  <defs
     id="defs2" />
  <sodipodi:namedview
     id="base"
     pagecolor="#ffffff"
     bordercolor="#666666"
     borderopacity="1.0"
     inkscape:pageopacity="0.0"
     inkscape:pageshadow="2"
     inkscape:zoom="0.98994949"
     inkscape:cx="331.40377"
     inkscape:cy="121.27052"
     inkscape:document-units="mm"
     inkscape:current-layer="layer1"
     showgrid="false"
     units="px"
     inkscape:window-width="1846"
     inkscape:window-height="1178"
     inkscape:window-x="1986"
     inkscape:window-y="-8"
     inkscape:window-maximized="1" />
  <metadata
     id="metadata5">
    <rdf:RDF>
      <cc:Work
         rdf:about="">
        <dc:format>image/svg+xml</dc:format>
        <dc:type
           rdf:resource="http://purl.org/dc/dcmitype/StillImage" />
        <dc:title></dc:title>
      </cc:Work>
    </rdf:RDF>
  </metadata>
  <g
     inkscape:label="Layer 1"
     inkscape:groupmode="layer"
     id="layer1"
     transform="translate(0,-201.7499)">
    <path
       style="color:#000000;font-style:normal;font-variant:normal;font-weight:normal;font-stretch:normal;font-size:medium;line-height:normal;font-family:sans-serif;font-variant-ligatures:normal;font-variant-position:normal;font-variant-caps:normal;font-variant-numeric:normal;font-variant-alternates:normal;font-feature-settings:normal;text-indent:0;text-align:start;text-decoration:none;text-decoration-line:none;text-decoration-style:solid;text-decoration-color:#000000;letter-spacing:normal;word-spacing:normal;text-transform:none;writing-mode:lr-tb;direction:ltr;text-orientation:mixed;dominant-baseline:auto;baseline-shift:baseline;text-anchor:start;white-space:normal;shape-padding:0;clip-rule:nonzero;display:inline;overflow:visible;visibility:visible;opacity:1;isolation:auto;mix-blend-mode:normal;color-interpolation:sRGB;color-interpolation-filters:linearRGB;solid-color:#000000;solid-opacity:1;vector-effect:none;fill:#59bbca;fill-opacity:1;fill-rule:nonzero;stroke:none;stroke-width:4.8840313;stroke-linecap:butt;stroke-linejoin:round;stroke-miterlimit:4;stroke-dasharray:none;stroke-dashoffset:0;stroke-opacity:1;color-rendering:auto;image-rendering:auto;shape-rendering:auto;text-rendering:auto;enable-background:accumulate"
       d="m 43.919863,218.75261 c -6.744755,0 -13.093086,1.72133 -18.631002,4.74683 l 3.533008,3.65029 c 4.549287,-2.24575 9.672167,-3.5131 15.097994,-3.5131 18.857692,0 34.090817,15.23424 34.090817,34.09193 0,2.43387 -0.258798,4.80539 -0.741343,7.09368 1.574616,0.41947 3.162669,0.79021 4.75125,1.10759 0.56856,-2.64555 0.875228,-5.38789 0.875228,-8.20127 0,-21.49721 -17.478734,-38.97595 -38.975952,-38.97595 z m -32.013938,16.77543 c -4.3840819,6.3039 -6.9631156,13.95432 -6.9631156,22.20052 0,21.49722 17.4798386,38.97595 38.9770536,38.97595 14.290568,0 26.797053,-7.72906 33.581838,-19.22297 -2.101867,0.23658 -4.228352,0.50529 -6.363404,0.79667 -6.217732,8.23184 -16.084927,13.54559 -27.218434,13.54559 -18.857688,0 -34.0919186,-15.23756 -34.0919186,-34.09524 0,-6.08131 1.5914526,-11.78078 4.3706156,-16.71899 z"
       id="path4515"
       inkscape:connector-curvature="0" />
    <path
       style="fill:#0527a3;fill-opacity:1;stroke:none;stroke-width:0.1391767;stroke-linecap:butt;stroke-linejoin:miter;stroke-miterlimit:4;stroke-dasharray:none;stroke-opacity:1"
       d="M 0.42309712,203.4546 22.067887,252.06446 c 1.151748,2.52856 2.124453,5.15179 2.124453,8.14374 0,2.40537 -0.421651,7.78673 -11.018939,7.58717 -2.189715,-0.0413 -1.078372,0.98789 -0.207414,1.54365 9.994968,6.37786 19.413538,9.332 30.650705,9.332 9.357406,0 27.480891,-3.34659 41.072737,-3.70673 l 2.450865,-6.26161 C 74.682208,268.1643 59.823347,263.43827 54.440327,258.43781 31.885768,237.48623 8.9765659,211.25298 1.4572295,202.87523 0.52690068,201.9777 0.10420841,202.70939 0.42309712,203.4546 Z M 111.33027,266.37574 c -0.26982,0.004 -0.55136,0.0219 -0.84424,0.0542 0,0 -10.862206,1.80551 -18.271395,2.234 l -2.457503,6.27708 c 2.748043,0.0135 3.220675,0.0401 5.250274,0.0874 5.936814,0.13853 11.869534,0.43882 17.805554,0.60747 2.96707,0.0843 5.93385,0.25267 8.90167,0.20248 1.78985,-0.0302 3.58635,-0.0765 5.36204,-0.30318 0.85282,-0.10878 1.76199,-0.11916 2.52942,-0.50677 0.89499,-0.45192 2.22515,-1.0265 2.22515,-2.02265 0,-0.64865 -1.92946,-0.91065 -2.57811,-0.91065 h -12.39374 c 0.007,-2.74772 -1.48157,-5.77832 -5.52912,-5.71942 z"
       id="path4517"
       inkscape:connector-curvature="0"
       sodipodi:nodetypes="ccssssccsccccccsccccsscc" />
  </g>
</svg>
