<?xml version="1.0" encoding="UTF-8" standalone="no"?>
<!-- Created with Inkscape (http://www.inkscape.org/) -->

<svg
   xmlns:dc="http://purl.org/dc/elements/1.1/"
   xmlns:cc="http://creativecommons.org/ns#"
   xmlns:rdf="http://www.w3.org/1999/02/22-rdf-syntax-ns#"
   xmlns:svg="http://www.w3.org/2000/svg"
   xmlns="http://www.w3.org/2000/svg"
   xmlns:sodipodi="http://sodipodi.sourceforge.net/DTD/sodipodi-0.dtd"
   xmlns:inkscape="http://www.inkscape.org/namespaces/inkscape"
   sodipodi:docname="logo mango airline.svg"
   height="119"
   width="214"
   inkscape:version="0.47 r22583"
   version="1.1"
   id="svg3178">
  <metadata
     id="metadata3184">
    <rdf:RDF>
      <cc:Work
         rdf:about="">
        <dc:format>image/svg+xml</dc:format>
        <dc:type
           rdf:resource="http://purl.org/dc/dcmitype/StillImage" />
        <dc:title />
      </cc:Work>
    </rdf:RDF>
  </metadata>
  <defs
     id="defs3182">
    <inkscape:perspective
       sodipodi:type="inkscape:persp3d"
       inkscape:vp_x="0 : 0.5 : 1"
       inkscape:vp_y="0 : 1000 : 0"
       inkscape:vp_z="1 : 0.5 : 1"
       inkscape:persp3d-origin="0.5 : 0.33333333 : 1"
       id="perspective3186" />
    <inkscape:perspective
       id="perspective3258"
       inkscape:persp3d-origin="0.5 : 0.33333333 : 1"
       inkscape:vp_z="1 : 0.5 : 1"
       inkscape:vp_y="0 : 1000 : 0"
       inkscape:vp_x="0 : 0.5 : 1"
       sodipodi:type="inkscape:persp3d" />
  </defs>
  <sodipodi:namedview
     pagecolor="#ffffff"
     bordercolor="#666666"
     borderopacity="1"
     objecttolerance="10"
     gridtolerance="10"
     guidetolerance="10"
     inkscape:pageopacity="0"
     inkscape:pageshadow="2"
     inkscape:window-width="1280"
     inkscape:window-height="725"
     id="namedview3180"
     showgrid="false"
     inkscape:zoom="6.8852841"
     inkscape:cx="107"
     inkscape:cy="59.5"
     inkscape:window-x="0"
     inkscape:window-y="24"
     inkscape:window-maximized="1"
     inkscape:current-layer="svg3178" />
  <g
     id="g3335">
    <path
       style="fill:#eeeadf"
       d="m 0.90677905,60.004238 0,-59.50000035 107.00000095,0 107,0 0,59.50000035 0,59.500002 -107,0 -107.00000095,0 0,-59.500002 z"
       id="path3345" />
    <path
       style="fill:#fdc930"
       d="m 0.90677905,60.004238 0,-59.50000035 107.00000095,0 107,0 0,59.50000035 0,59.500002 -107,0 -107.00000095,0 0,-59.500002 z m 130.09591095,30.25 c 3.69072,-2.821397 5.27121,-5.150954 10.57635,-15.588928 0.0948,-0.186411 1.83228,1.498516 3.8612,3.744281 8.63675,9.559855 28.53859,9.533939 35.71457,-0.04651 8.14054,-10.86818 8.44781,-20.415013 0.86907,-27.001093 -6.73731,-5.854863 -14.04773,-9.858528 -17.98245,-9.848369 -4.87643,0.01259 -12.82685,4.697981 -18.06013,10.643298 l -4.19568,4.766541 -2.49303,-3.185503 c -4.74934,-6.068531 -14.5266,-6.351914 -21.34034,-0.618526 -2.44558,2.05782 -3.04547,2.239835 -3.04547,0.92404 0,-3.215992 -2.86852,-7.097059 -6.9345,-9.382265 -3.70131,-2.080252 -4.90109,-2.249308 -11.544865,-1.626735 -10.209255,0.956686 -10.99933,1.94265 -10.072326,12.569632 0.391109,4.483597 0.948384,8.770326 1.238388,9.526064 0.36412,0.948886 -0.279417,1.374073 -2.079709,1.374073 -2.933521,0 -3.05875,-0.405631 -1.503011,-4.868427 1.60554,-4.605656 0.396334,-7.756604 -4.275378,-11.140775 -6.105675,-4.422928 -14.451469,-3.764918 -18.806671,1.482779 -1.19316,1.43767 -1.626077,1.249175 -4.142485,-1.803664 -7.70679,-9.349673 -20.959616,-8.651058 -25.567871,1.347794 -1.354321,2.938565 -2.409181,3.937208 -4.17922,3.956495 -3.483274,0.03795 -9.811484,6.7985 -10.675673,11.405021 -0.824952,4.397373 0.0011,6.275273 5.685706,12.925704 4.206472,4.921152 7.612918,5.966765 11.923355,3.659889 2.900411,-1.552252 2.551511,-7.077803 -0.690173,-10.930326 -1.443437,-1.715428 -2.392529,-3.350863 -2.109091,-3.6343 0.283437,-0.283437 1.472003,0.828169 2.641258,2.470236 2.587278,3.633497 8.091224,5.735682 10.975572,4.192026 3.381549,-1.80975 3.420489,-4.530943 0.152474,-10.655065 -2.871069,-5.38026 -2.955353,-5.838777 -1.391029,-7.567336 0.915873,-1.012028 2.033923,-1.840051 2.484555,-1.840051 1.516454,0 3.918491,5.961374 3.336452,8.280404 -1.304265,5.196607 3.196196,10.127412 7.198968,7.887348 1.247826,-0.698318 2.482523,-0.379455 4.604097,1.189017 2.094686,1.548595 4.362862,2.146393 8.17513,2.154626 2.965226,0.0064 5.994646,0.607721 6.916629,1.372899 0.902281,0.748827 3.656451,1.588729 6.120376,1.866449 5.861499,0.660676 9.519041,-1.557814 9.519041,-5.773796 0,-2.439713 0.415069,-2.976947 2.3,-2.976947 3.59217,0 4.7,-1.93281 4.7,-8.2 0,-4.918519 0.273563,-5.8 1.800001,-5.8 2.9991,0 4.2,2.144456 4.2,7.5 0,2.805 0.54,5.64 1.2,6.3 1.68429,1.684285 4.86522,1.493062 6.23087,-0.37457 1.00921,-1.380181 1.31691,-1.265228 2.49236,0.931128 1.08436,2.026146 4.11085,4.052698 10.89606,7.296063 0.17561,0.08394 -0.26552,1.089044 -0.98028,2.23356 -1.55149,2.484321 -7.68325,5.113819 -11.92499,5.113819 -4.33973,0 -6.91402,1.67008 -6.91402,4.485494 0,3.535494 2.48279,4.450122 12.17226,4.484097 8.2667,0.02899 8.87108,-0.121578 12.92365,-3.219591 z m -21.36694,0.158131 c -2.18297,-1.270868 -1.34289,-2.908131 1.49215,-2.908131 1.1567,0 4.57864,-0.780345 7.6043,-1.734101 4.24888,-1.339341 6.14696,-2.625545 8.33789,-5.650039 3.49239,-4.821099 3.53073,-5.61586 0.27095,-5.61586 -2.98918,0 -6.02355,-1.420429 -9.18426,-4.299277 -1.67607,-1.526604 -2.25,-3.161719 -2.25,-6.41022 0,-7.67683 4.98598,-12.310748 13.20034,-12.268267 4.66,0.0241 7.30054,1.666922 10.22461,6.361276 5.05181,8.110264 -3.33923,28.972003 -13.15409,32.703608 -3.22695,1.226883 -14.33346,1.106706 -16.54189,-0.178989 z m 22.07103,-24.108131 c 1.86888,-1.86888 1.42883,-3.374708 -1.35715,-4.644084 -4.61325,-2.10194 -8.93991,2.290299 -4.69285,4.763985 2.3602,1.374691 4.59979,1.330306 6.05,-0.119901 z m -3.8,-1.8 c -1.2819,-0.828426 -1.24555,-0.971601 0.25,-0.984687 0.9625,-0.0084 1.75,0.434687 1.75,0.984687 0,1.21961 -0.11279,1.21961 -2,0 z m 27.55782,17.569224 c -8.3513,-3.104972 -12.55782,-8.695865 -12.55782,-16.690608 0,-5.925818 4.47681,-12.863912 11.30969,-17.5276 7.83622,-5.348506 10.3311,-5.340254 19.00002,0.06285 9.57292,5.966541 10.88084,7.513794 11.46172,13.55913 0.63936,6.65397 -3.12126,14.611437 -8.74801,18.510778 -4.89849,3.394657 -14.35302,4.358078 -20.4656,2.085454 z M 22.344457,76.312379 c -5.089534,-6.913643 -5.1945,-8.794721 -0.812125,-14.55395 1.77654,-2.334693 3.564321,-3.420824 6.368888,-3.869293 3.215689,-0.514209 4.004531,-1.103734 4.500892,-3.363649 0.331013,-1.507091 1.859733,-3.945302 3.397156,-5.418246 8.284059,-7.936633 22.107511,-0.539052 22.107511,11.830772 0,5.643195 -1.376915,8.566225 -4.035184,8.566225 -1.712489,0 -1.964816,-0.699163 -1.964816,-5.444236 0,-6.984956 -3.086792,-11.252765 -7.362631,-10.179597 -1.487962,0.373454 -3.202948,1.771037 -3.811078,3.105738 -0.919451,2.017975 -0.645519,3.36729 1.626298,8.010718 1.502595,3.071193 2.479583,6.24175 2.171086,7.045682 -0.981107,2.556722 -4.917531,1.580648 -8.760965,-2.172365 -5.985463,-5.844648 -9.453425,-2.629099 -4.36271,4.045173 2.76301,3.622492 3.107634,5.581253 1.3,7.388887 -2.749504,2.749504 -5.715172,1.320848 -10.362322,-4.991859 z m 56.897726,-0.80771 c -1.190528,-0.480038 -2.569875,-1.596991 -3.065217,-2.482117 -0.722516,-1.291064 -1.431475,-1.407491 -3.584975,-0.588732 -3.404597,1.294426 -7.950076,0.403958 -10.615954,-2.079686 -2.802226,-2.61067 -2.870618,-11.114258 -0.122913,-15.28247 4.450165,-6.750812 11.143231,-7.421691 17.246422,-1.728696 3.950652,3.685129 4.069144,3.971196 2.961277,7.149224 -2.429017,6.967881 -0.888951,9.488578 5.345472,8.749185 1.373191,-0.162858 2.094646,0.428603 2.303217,1.888215 0.622987,4.359778 -4.841133,6.643641 -10.467329,4.375077 z M 72.078038,63.84925 c 2.000553,-1.810475 2.373681,-3.890186 0.865216,-4.82247 -1.231065,-0.760839 -5.036475,2.999979 -5.036475,4.977458 0,1.976235 1.894049,1.905859 4.171259,-0.154988 z m 35.495412,3.988321 c -0.36667,-0.366666 -0.66667,-2.996922 -0.66667,-5.845012 0,-6.112084 -2.1754,-8.826871 -6.66157,-8.313277 -2.726386,0.312129 -2.850467,0.561801 -3.143338,6.324956 -0.340119,6.692895 -1.072574,7.991049 -3.986884,7.066083 -2.583591,-0.82 -3.954292,-4.479393 -4.765976,-12.723839 -0.606946,-6.16489 -0.493735,-6.744313 1.529289,-7.827003 1.201618,-0.643086 2.829928,-0.921673 3.618468,-0.619082 0.78854,0.302591 2.552049,0.04062 3.91891,-0.582168 3.561561,-1.622756 9.690101,0.445362 13.009381,4.390108 2.43048,2.888451 2.60506,3.653164 1.97864,8.66687 -1.05869,8.473428 -2.66752,11.625098 -4.83025,9.462364 z"
       id="path3343" />
    <path
       style="fill:#fcc62d"
       d="m 0.90677905,107.50424 0,-12.000002 L 52.656779,95.267759 104.40678,95.03128 52.406779,94.504238 0.40677905,93.977196 53.215796,93.740717 c 29.044959,-0.130063 52.590494,0.117092 52.323424,0.549235 -0.26708,0.432143 0.26886,0.853145 1.19098,0.93556 0.92212,0.08242 3.02658,0.422102 4.67658,0.754859 2.3659,0.477132 2.19338,0.299483 -0.8162,-0.840479 -2.0989,-0.795021 -4.60477,-2.159148 -5.56859,-3.031394 -1.54365,-1.396979 -7.879261,-1.617883 -53.183809,-1.854364 L 0.40677905,89.985671 51.996264,89.744954 l 51.589486,-0.240716 1.13908,-2.5 c 0.62649,-1.375 1.62528,-2.5 2.21953,-2.5 0.59425,0 0.86675,-0.345782 0.60555,-0.768404 -0.26119,-0.422622 1.39975,-0.56192 3.69099,-0.309551 l 4.16588,0.458852 -4.335,0.638074 c -5.25419,0.773369 -7.47245,3.477071 -5.39969,6.581325 1.57341,2.356388 5.40122,3.399704 12.47317,3.399704 6.42747,0 7.95926,-0.373726 11.97811,-2.922404 2.71601,-1.722445 5.70967,-4.801995 7.2908,-7.5 1.47546,-2.517678 2.85077,-4.577596 3.05625,-4.577596 0.52038,0 -0.69694,3.268596 -1.7102,4.592009 -0.87492,1.142734 -0.15389,2.407991 1.37224,2.407991 0.4908,0 0.61424,-0.45 0.27432,-1 -0.71305,-1.153737 -0.29132,-1.240888 1.91247,-0.395215 0.86682,0.332631 1.35148,0.968128 1.07702,1.412215 -0.27446,0.444087 0.29063,0.656364 1.25575,0.471726 0.96512,-0.184637 2.11882,-0.370134 2.56378,-0.412215 0.44496,-0.04208 0.50121,-0.574554 0.125,-1.183274 -0.47802,-0.773445 -0.97047,-0.698154 -1.63515,0.25 -0.76965,1.097887 -0.873,1.070557 -0.54167,-0.143237 0.22521,-0.825 0.89697,-1.5 1.4928,-1.5 0.59583,0 1.40289,-0.319553 1.79345,-0.710118 0.39057,-0.390564 1.96431,-0.06155 3.49721,0.731142 3.54795,1.834717 12.732,2.931808 17.32688,2.069803 1.94729,-0.365313 5.87881,-2.237755 8.73671,-4.160982 2.8579,-1.923227 4.56609,-2.722463 3.79597,-1.77608 -1.23171,1.513613 -1.19574,1.644118 0.29885,1.084393 1.22452,-0.458583 1.54103,-0.224447 1.13322,0.838293 -0.43525,1.134244 -0.88512,1.209633 -1.94907,0.326628 -1.6943,-1.406144 -1.85214,0.228003 -0.18322,1.896921 0.81709,0.817086 6.48102,1.271297 17.75,1.423435 l 16.55,0.223434 -16.29358,0.301546 c -10.28906,0.19042 -16.07082,0.661972 -15.68912,1.279582 0.72701,1.176329 -3.13057,0.725332 -4.24153,-0.495886 -0.42667,-0.469019 -0.21327,-0.529058 0.47423,-0.133419 1.74391,1.003573 1.60532,-1.858914 -0.16097,-3.324806 -0.96456,-0.800509 -1.61601,-0.839249 -2.05902,-0.122444 -0.35642,0.576707 -0.24826,1.048558 0.24037,1.048558 0.48863,0 0.85269,1.0125 0.80902,2.25 -0.0789,2.23664 0.0305,2.253172 18.4206,2.784235 l 18.5,0.534235 -16,0.350005 c -8.8,0.192503 -17.9125,0.319401 -20.25,0.281995 -3.74378,-0.05991 -4.24163,0.1921 -4.17971,2.11576 0.0655,2.034968 0.12188,2.052013 0.82749,0.250146 0.52054,-1.329251 0.98586,-1.563671 1.48873,-0.75 0.40234,0.650993 1.26747,1.176733 1.92251,1.168311 0.71561,-0.0092 0.59227,-0.402227 -0.30902,-0.984687 -1.20197,-0.776772 -1.0317,-0.972417 0.85699,-0.984687 1.47957,-0.0096 2.17786,0.450016 1.87579,1.234687 -0.37361,0.970545 3.23538,1.237171 16.14302,1.192614 l 16.6242,-0.05739 -15.47654,0.333929 c -8.5121,0.183661 -15.80331,0.659484 -16.20269,1.057385 -0.39937,0.397901 6.67757,0.580673 15.72655,0.406158 l 16.45268,-0.317293 0,12.067299 0,12.0673 -107,0 -107.00000095,0 0,-12 z M 143.09428,102.82113 c -0.72188,-0.28887 -1.58438,-0.25335 -1.91667,0.0789 -0.33229,0.3323 0.25834,0.56864 1.3125,0.52522 1.16495,-0.048 1.4019,-0.28494 0.60417,-0.60416 z m -20.1875,-6.588001 c 0.825,-0.314048 -0.75,-0.539098 -3.5,-0.500112 -2.75,0.03899 -3.7625,0.258351 -2.25,0.487475 1.5125,0.229125 2.75689,0.949201 2.76531,1.600168 0.0108,0.836127 0.23099,0.860645 0.75,0.08352 0.40408,-0.605029 1.40969,-1.357002 2.23469,-1.671051 z m 13,0.271109 c 0,-0.55 -0.47656,-1 -1.05902,-1 -0.58246,0 -0.7809,0.45 -0.44098,1 0.33992,0.55 0.81648,1 1.05902,1 0.24254,0 0.44098,-0.45 0.44098,-1 z m -7,-2.570368 c 0,-0.275 -0.9,-0.01833 -2,0.570368 -1.1,0.588702 -2,1.295368 -2,1.570368 0,0.275 0.9,0.01833 2,-0.570368 1.1,-0.588702 2,-1.295368 2,-1.570368 z m 4,1.415099 c 0,-0.399683 -0.49804,-1.034505 -1.10676,-1.410714 -0.77345,-0.478016 -0.69816,-0.970464 0.25,-1.635148 1.09788,-0.769651 1.07055,-0.873004 -0.14324,-0.541667 -0.825,0.225206 -1.275,0.640302 -1,0.922437 0.275,0.282134 -0.0376,1.160706 -0.6946,1.952381 -0.96987,1.168618 -0.82878,1.439409 0.75,1.439409 1.06953,0 1.9446,-0.327014 1.9446,-0.726698 z m 7,0.155269 c -0.825,-0.533156 -1.95,-0.969374 -2.5,-0.969374 -0.55,0 -0.325,0.436218 0.5,0.969374 0.825,0.533156 1.95,0.969374 2.5,0.969374 0.55,0 0.325,-0.436218 -0.5,-0.969374 z m 10.39699,-0.166667 c -0.28326,-0.458333 -1.19002,-0.833333 -2.01502,-0.833333 -0.825,0 -1.26824,0.375 -0.98498,0.833333 0.28327,0.458334 1.19003,0.833334 2.01503,0.833334 0.825,0 1.26824,-0.375 0.98497,-0.833334 z m 12.96464,-0.333333 c 0.31658,-0.825 1.45222,-1.5 2.52365,-1.5 1.07143,0 2.12618,-0.534375 2.34389,-1.1875 0.25578,-0.767354 1.15688,-0.426452 2.54686,0.963525 2.18614,2.18615 3.68754,1.595583 2.67195,-1.051002 -0.67443,-1.757521 -15.44798,-2.487073 -15.44798,-0.762856 0,0.570808 0.39752,1.037833 0.88337,1.037833 0.48585,0 1.11872,0.9 1.40638,2 0.61686,2.358876 2.25617,2.625701 3.07188,0.5 z m 6.98192,0.25 c -0.6767,-1.099532 -5.34355,-0.91635 -5.34355,0.209743 0,0.527859 1.30616,0.865359 2.90257,0.75 1.59641,-0.115359 2.69485,-0.547243 2.44098,-0.959743 z m -18.55412,-3.149141 c -0.70919,-0.769527 -1.44699,-1.249466 -1.63957,-1.066531 -0.59314,0.563459 0.91014,2.465672 1.94858,2.465672 0.53923,0 0.40017,-0.629613 -0.30901,-1.399141 z m -14.28943,-0.600859 c -0.33992,-0.55 -0.81648,-1 -1.05902,-1 -0.24254,0 -0.44098,0.45 -0.44098,1 0,0.55 0.47656,1 1.05902,1 0.58246,0 0.7809,-0.45 0.44098,-1 z m 0.5,-3.666667 c 0,-0.733333 -0.1699,-1.333333 -0.37756,-1.333333 -0.20765,0 -0.87551,0.6 -1.48412,1.333333 -0.8376,1.009249 -0.74583,1.333334 0.37756,1.333334 0.81626,0 1.48412,-0.6 1.48412,-1.333334 z m 18.66667,0.166667 c 0,-0.825 -0.375,-1.5 -0.83334,-1.5 -0.99871,0 -1.0988,1.401201 -0.16666,2.333333 0.92692,0.926919 1,0.866019 1,-0.833333 z m 13.23407,0.438653 c -1.81909,-1.124258 -11.05547,-0.998028 -10.35122,0.141466 0.32835,0.531282 3.06441,0.885338 6.08013,0.786792 3.01572,-0.09855 4.93771,-0.516263 4.27109,-0.928258 z m 6.69926,-1.640208 c 0,-2.389666 -1.03144,-3.027412 -2.1,-1.298445 -0.33992,0.55 -1.50922,1 -2.59844,1 -1.654,0 -1.76789,0.237355 -0.69099,1.440078 2.03744,2.275484 5.38943,1.565437 5.38943,-1.141633 z m -22.6,0.36207 c 0,-0.736717 -1.125,-1.852069 -2.5,-2.478561 -1.375,-0.626492 -2.5,-0.729048 -2.5,-0.227903 0,0.501146 0.9,1.196823 2,1.545949 1.1,0.349126 2,1.054451 2,1.567388 0,0.512936 0.225,0.932612 0.5,0.932612 0.275,0 0.5,-0.602768 0.5,-1.339485 z m -44.27103,3.247616 c -2.18297,-1.270868 -1.34289,-2.908131 1.49215,-2.908131 1.1567,0 4.57864,-0.780345 7.6043,-1.734101 4.24888,-1.339341 6.14696,-2.625545 8.33789,-5.650039 3.49239,-4.821099 3.53073,-5.61586 0.27095,-5.61586 -2.98918,0 -6.02355,-1.420429 -9.18426,-4.299277 -1.67607,-1.526604 -2.25,-3.161719 -2.25,-6.41022 0,-7.67683 4.98598,-12.310748 13.20034,-12.268267 4.66,0.0241 7.30054,1.666922 10.22461,6.361276 5.05181,8.110264 -3.33923,28.972003 -13.15409,32.703608 -3.22695,1.226883 -14.33346,1.106706 -16.54189,-0.178989 z m 22.07103,-24.108131 c 1.86888,-1.86888 1.42883,-3.374708 -1.35715,-4.644084 -4.61325,-2.10194 -8.93991,2.290299 -4.69285,4.763985 2.3602,1.374691 4.59979,1.330306 6.05,-0.119901 z M 16.277466,87.474925 C 15.797303,86.994762 12.029969,86.461784 7.905611,86.29053 L 0.40677905,85.979157 9.6483666,85.491698 c 6.5180244,-0.343802 9.3728114,-0.143466 9.6868574,0.679781 0.554807,1.454383 -1.872234,2.48897 -3.057758,1.303446 z m 5.149055,-0.0026 c 0.270996,-0.43848 -0.07259,-1.034552 -0.763511,-1.324605 -0.887181,-0.372442 -0.706877,-0.872519 0.613746,-1.702243 1.512646,-0.950369 1.60819,-1.340711 0.5,-2.042728 -0.753487,-0.477351 -0.877221,-0.874776 -0.274965,-0.883198 0.602257,-0.0084 1.909502,0.884687 2.904988,1.984687 2.371879,2.620897 7.477124,2.60161 10.311439,-0.03896 2.417828,-2.25255 2.898489,-6.805786 0.938561,-8.890862 -0.6875,-0.7314 -0.01335,-0.5452 1.498116,0.413776 1.636326,1.038196 3.941207,1.568484 5.697188,1.310761 1.635115,-0.239984 2.697202,-0.0253 2.383772,0.481841 -0.310915,0.50307 -2.049973,0.741346 -3.864575,0.529501 -2.883803,-0.336667 -3.353846,-0.06537 -3.732622,2.154383 -0.23834,1.39676 -0.613016,3.21456 -0.832612,4.03956 -0.347199,1.304386 4.034657,1.567816 33.600733,2.020025 l 34.000001,0.520026 -32.500001,0.378034 c -37.526328,0.4365 -35.135508,0.346011 -36.75,1.390932 -1.595118,1.032382 -1.632085,-0.526932 -0.05,-2.109017 0.864367,-0.864367 0.880874,-1.2 0.05902,-1.2 -0.627541,0 -1.419098,0.45 -1.759017,1 -0.339919,0.55 -2.193034,1 -4.118034,1 -1.925,0 -3.287481,0.343864 -3.027735,0.764141 0.259746,0.420278 -0.832616,0.817469 -2.427471,0.882646 -1.594855,0.06518 -2.678013,-0.240251 -2.407018,-0.678731 z m 3.386316,-2.58125 c -1.453033,-1.750796 -2.380837,-1.066443 -1.536659,1.133448 0.339061,0.883581 1.091505,1.312926 1.672096,0.9541 0.724945,-0.44804 0.682518,-1.101972 -0.135437,-2.087548 z M 116.74063,82.62812 c 1.07393,-0.680768 1.02522,-0.963954 -0.25,-1.453303 -1.77391,-0.680743 -2.16496,-2.670579 -0.52483,-2.670579 0.58246,0 0.7809,0.45 0.44098,1 -0.7937,1.284238 0.0785,1.26715 2.81574,-0.05517 2.10998,-1.019285 2.11825,-1.002282 0.24313,0.5 -2.1962,1.759521 -0.47595,2.11634 2.50687,0.519982 1.06384,-0.569347 1.93426,-0.771385 1.93426,-0.448969 0,0.322416 -1.56055,1.238248 -3.46788,2.035184 -3.81181,1.592674 -5.79064,1.899175 -3.69827,0.572824 z m 27.96471,-0.284823 c 0.81204,-1.038669 0.92873,-1.889539 0.31146,-2.271033 -0.54291,-0.335533 -1.45107,0.186905 -2.01815,1.160973 -0.97431,1.673565 -1.03273,1.674723 -1.06146,0.02103 -0.0167,-0.9625 0.44615,-1.75 1.02861,-1.75 0.58246,0 0.77636,-0.45734 0.4309,-1.016312 -0.34546,-0.558971 -1.04187,-0.760599 -1.54756,-0.448062 -0.5057,0.312537 -0.64401,-0.14953 -0.30737,-1.026816 0.33665,-0.877287 0.66899,-1.46091 0.73855,-1.296942 0.0696,0.163968 1.47646,1.868627 3.12646,3.788132 1.65,1.919505 2.5914,3.158661 2.09201,2.75368 -0.4994,-0.40498 -1.6244,-0.177732 -2.5,0.504996 -1.38956,1.083467 -1.42687,1.030101 -0.29345,-0.419648 z m 10.75926,-0.269804 c -8.3513,-3.105003 -12.55782,-8.695896 -12.55782,-16.690639 0,-5.925818 4.47681,-12.863912 11.30969,-17.5276 7.83622,-5.348506 10.3311,-5.340254 19.00002,0.06285 9.57292,5.966541 10.88084,7.513794 11.46172,13.55913 0.63936,6.65397 -3.12126,14.611437 -8.74801,18.510778 -4.89849,3.394657 -14.35302,4.358078 -20.4656,2.085454 z M 22.344457,76.312379 c -5.089534,-6.913643 -5.1945,-8.794721 -0.812125,-14.55395 1.77654,-2.334693 3.564321,-3.420824 6.368888,-3.869293 3.215689,-0.514209 4.004531,-1.103734 4.500892,-3.363649 0.331013,-1.507091 1.859733,-3.945302 3.397156,-5.418246 8.284059,-7.936633 22.107511,-0.539052 22.107511,11.830772 0,5.643195 -1.376915,8.566225 -4.035184,8.566225 -1.712489,0 -1.964816,-0.699163 -1.964816,-5.444236 0,-6.984956 -3.086792,-11.252765 -7.362631,-10.179597 -1.487962,0.373454 -3.202948,1.771037 -3.811078,3.105738 -0.919451,2.017975 -0.645519,3.36729 1.626298,8.010718 1.502595,3.071193 2.479583,6.24175 2.171086,7.045682 -0.981107,2.556722 -4.917531,1.580648 -8.760965,-2.172365 -5.985463,-5.844648 -9.453425,-2.629099 -4.36271,4.045173 2.76301,3.622492 3.107634,5.581253 1.3,7.388887 -2.749504,2.749504 -5.715172,1.320848 -10.362322,-4.991859 z m -2.752968,2.81261 c -0.332989,-0.867755 -1.346828,-1.260364 -2.485633,-0.96256 -1.181551,0.308983 -2.157173,-0.106607 -2.529786,-1.077623 -0.726542,-1.893338 0.430419,-2.065616 2.21999,-0.330568 0.709104,0.6875 0.270252,-0.72661 -0.975226,-3.142468 -2.05786,-3.991637 -2.336829,-4.196958 -3.057056,-2.25 -0.435903,1.178358 -1.017928,2.142468 -1.29339,2.142468 -0.275462,0 -0.276894,-0.583593 -0.0032,-1.296873 0.556507,-1.450233 -3.2249088,-1.726131 -5.310426,-0.387457 -0.6875,0.4413 -1.25,0.398038 -1.25,-0.09614 0,-0.494176 1.1536679,-1.424148 2.5637065,-2.066605 1.4828096,-0.675613 2.3011571,-0.743289 1.9409832,-0.160515 -0.342498,0.554173 -0.1727236,1.007588 0.3772764,1.007588 0.5499999,0 1.2536979,-0.410492 1.5637729,-0.912204 C 12.167237,68.273791 4.1769201,62.219248 2.7700092,63.088766 2.0640218,63.525091 1.8645799,63.381535 2.2685825,62.727845 2.6375337,62.130869 2.4820625,61.359783 1.923091,61.014319 1.3413766,60.6548 0.90677905,55.992678 0.90677905,50.111888 c 0,-8.466059 0.26399675,-10.274317 1.50000005,-10.274317 0.825,0 1.2907896,0.209211 1.035088,0.464912 -0.2557017,0.255702 1.617111,2.901946 4.1618059,5.880543 3.468048,4.059394 4.860251,5.09077 5.559244,4.118421 0.686332,-0.954735 0.79037,-0.852045 0.39407,0.388967 -0.65669,2.056427 3.087127,7.094194 4.584375,6.168844 0.63711,-0.393756 0.78401,-0.194121 0.360909,0.490472 -0.951855,1.540133 0.656485,1.475096 2.361481,-0.09549 0.746335,-0.6875 0.105734,0.440372 -1.423557,2.506382 -1.684993,2.276357 -2.979513,5.521765 -3.285562,8.23702 -0.426721,3.78586 -0.08178,5.035552 2.224544,8.059297 1.501267,1.968263 2.514725,3.793512 2.252128,4.056108 -0.262597,0.262597 -0.730514,-0.182028 -1.039816,-0.988056 z m 26.81529,0.379249 c -0.339919,-0.55 -0.141476,-1 0.440983,-1 0.582459,0 1.059017,0.45 1.059017,1 0,0.55 -0.198442,1 -0.440983,1 -0.242541,0 -0.719098,-0.45 -1.059017,-1 z m 13.007079,0.01145 c -0.350339,-0.56686 0.05106,-0.734507 0.940983,-0.393011 1.732417,0.664795 2.049387,1.381561 0.610955,1.381561 -0.517541,0 -1.215913,-0.444846 -1.551938,-0.988546 z m 17.957412,0.046 c 0.730782,-1.182431 -4.141676,-3.395308 -5.948968,-2.701785 -0.943119,0.361909 -1.364257,0.208593 -1.008444,-0.367124 0.895141,-1.448368 2.615664,-1.220198 6.770029,0.897817 3.145236,1.603533 3.401633,1.964385 1.710062,2.406741 -1.094462,0.286208 -1.779667,0.180166 -1.522679,-0.235649 z m 5.285509,0.280269 c 0.6875,-0.277412 1.8125,-0.277412 2.5,0 0.6875,0.277413 0.125,0.504386 -1.25,0.504386 -1.375,0 -1.9375,-0.226973 -1.25,-0.504386 z m 30.758411,-1.364228 c 0.47967,-1.511285 0.35108,-2.004683 -0.40128,-1.539703 -0.60892,0.376335 -1.10713,0.177364 -1.10713,-0.442159 0,-0.671329 0.80801,-0.869951 2,-0.491629 2.46692,0.782971 2.59518,-0.316057 0.25,-2.142211 -1.62416,-1.264704 -1.60618,-1.3131 0.25,-0.673012 1.74921,0.603203 1.83374,0.485144 0.67406,-0.941508 -1.1021,-1.355826 -1.77735,-1.433072 -4,-0.457585 -1.47073,0.645484 -3.00467,1.632767 -3.40875,2.193962 -0.42267,0.587024 -0.74119,0.277154 -0.75,-0.729646 -0.008,-0.9625 -0.41717,-1.75 -0.90832,-1.75 -0.49116,0 -1.18552,-0.76227 -1.54304,-1.693933 -0.61087,-1.591911 -0.53729,-1.591911 1.22176,0 2.30966,2.090221 4.57859,2.164825 6.20589,0.204056 1.07048,-1.289846 1.51135,-1.140443 3.28375,1.112793 1.12599,1.431468 3.3701,3.407137 4.9869,4.390375 2.91344,1.771765 2.91731,1.786363 0.43466,1.637207 -1.37775,-0.08277 -2.31583,-0.456904 -2.08464,-0.8314 0.2312,-0.374496 -0.037,-0.963553 -0.59596,-1.309017 -0.55897,-0.345463 -1.01631,-0.151557 -1.01631,0.430902 0,0.582459 -0.94442,2.003441 -2.09872,3.157737 l -2.09872,2.098721 0.70585,-2.22395 z m 78.28333,1.361277 c 0.8163,-0.334462 0.95907,-0.953539 0.38789,-1.682014 -1.7718,-2.259713 -2.31401,-6.652754 -0.82113,-6.652754 0.76814,0 1.9527,-0.670045 2.63236,-1.48899 0.67967,-0.818944 1.63477,-1.242386 2.12245,-0.940983 0.48768,0.301404 0.88669,0.03692 0.88669,-0.587735 0,-0.624659 1.2375,0.334943 2.75,2.132447 3.00192,3.567582 3.70946,8.402392 1.25,8.541577 -0.825,0.04669 -3.525,0.337524 -6,0.6463 -2.475,0.308777 -3.91872,0.323246 -3.20826,0.03215 z M 66.906779,78.004238 c 0,-0.825 -0.413196,-1.5 -0.918213,-1.5 -0.505016,0 -1.703837,-0.301472 -2.664044,-0.669939 -1.190287,-0.456755 -1.515745,-0.297649 -1.022771,0.5 0.442558,0.716074 0.07076,1.169939 -0.9584,1.169939 -1.293271,0 -1.424331,-0.309823 -0.567693,-1.342009 0.612573,-0.738105 0.828773,-1.627006 0.480444,-1.975335 -0.348329,-0.348328 1.155575,0.06938 3.342009,0.928231 2.186434,0.858856 3.975335,2.197756 3.975335,2.975334 0,0.777579 -0.375,1.413779 -0.833334,1.413779 -0.458333,0 -0.833333,-0.675 -0.833333,-1.5 z m 24.25135,0.838169 c -0.961981,-0.38824 -0.904585,-0.995158 0.25,-2.643559 0.824257,-1.176792 1.513304,-2.826995 1.531215,-3.667116 0.01791,-0.840122 1.606209,-2.264625 3.529551,-3.165563 2.507837,-1.174729 3.180225,-1.256398 2.377129,-0.288726 -0.61592,0.742139 -1.880137,1.590647 -2.809371,1.885575 -1.801954,0.571918 -4.4211,6.260989 -3.539306,7.687762 0.574143,0.928983 0.510399,0.938104 -1.339218,0.191627 z m -43.25135,-1.779152 c 0,-0.242541 0.45,-0.719098 1,-1.059017 0.55,-0.339919 1,-0.141476 1,0.440983 0,0.582459 -0.45,1.059017 -1,1.059017 -0.55,0 -1,-0.198442 -1,-0.440983 z M 184.91688,73.495846 c 1.2635,-2.470384 2.65527,-6.966608 3.09282,-9.991608 l 0.79555,-5.5 -0.35445,6.250435 c -0.23965,4.226155 -0.0112,6.038323 0.70528,5.595491 0.62801,-0.388133 0.76493,-0.177975 0.33611,0.515877 -0.39798,0.643952 -1.12932,0.920076 -1.62519,0.613611 -0.49587,-0.306466 -1.18393,0.567736 -1.52902,1.94267 -0.34508,1.374934 -1.32289,3.077062 -2.1729,3.782506 -1.03916,0.862432 -0.79287,-0.188847 0.7518,-3.208982 z m 2.44878,2.941861 c -1.02606,-1.660205 -0.10511,-1.890424 1.33055,-0.33261 0.70918,0.769528 0.84824,1.399141 0.30901,1.399141 -0.53922,0 -1.27702,-0.479939 -1.63956,-1.066531 z M 79.242183,75.504669 c -1.190528,-0.480038 -2.569875,-1.596991 -3.065217,-2.482117 -0.722516,-1.291064 -1.431475,-1.407491 -3.584975,-0.588732 -3.404597,1.294426 -7.950076,0.403958 -10.615954,-2.079686 -2.802226,-2.61067 -2.870618,-11.114258 -0.122913,-15.28247 4.450165,-6.750812 11.143231,-7.421691 17.246422,-1.728696 3.950652,3.685129 4.069144,3.971196 2.961277,7.149224 -2.429017,6.967881 -0.888951,9.488578 5.345472,8.749185 1.373191,-0.162858 2.094646,0.428603 2.303217,1.888215 0.622987,4.359778 -4.841133,6.643641 -10.467329,4.375077 z M 72.078038,63.84925 c 2.000553,-1.810475 2.373681,-3.890186 0.865216,-4.82247 -1.231065,-0.760839 -5.036475,2.999979 -5.036475,4.977458 0,1.976235 1.894049,1.905859 4.171259,-0.154988 z m -24.395839,3.309524 c 0.29632,-7.69747 -0.79185,-11.038106 -2.906654,-8.923302 -0.944151,0.944151 -0.949803,1.832732 -0.02539,3.99164 1.100859,2.570986 1.076578,2.633041 -0.327125,0.835996 -2.011466,-2.575112 -1.921204,-5.189497 0.207368,-6.006307 2.492148,-0.956327 4.276381,2.049525 4.276381,7.204308 0,2.406037 0.455721,5.226134 1.012713,6.266883 0.786032,1.468714 0.618156,2.104136 -0.75,2.838794 -1.618093,0.868867 -1.740116,0.359535 -1.487293,-6.208012 z m 3.72458,6.624405 c 1.315452,-1.334483 7.289476,-2.428593 7.896615,-1.446222 0.260789,0.421965 -1.145588,0.876294 -3.125281,1.009619 -1.979693,0.133326 -4.088118,0.514359 -4.685388,0.84674 -0.725774,0.403895 -0.754279,0.267866 -0.08595,-0.410137 z M 201.90678,71.504238 c 0,-0.55 0.19844,-1 0.44098,-1 0.24254,0 0.7191,0.45 1.05902,1 0.33992,0.55 0.14148,1 -0.44098,1 -0.58246,0 -1.05902,-0.45 -1.05902,-1 z m -94.33333,-3.666667 c -0.36667,-0.366666 -0.66667,-2.996922 -0.66667,-5.845012 0,-6.112084 -2.1754,-8.826871 -6.66157,-8.313277 -2.726386,0.312129 -2.850467,0.561801 -3.143338,6.324956 -0.340119,6.692895 -1.072574,7.991049 -3.986884,7.066083 -2.583591,-0.82 -3.954292,-4.479393 -4.765976,-12.723839 -0.606946,-6.16489 -0.493735,-6.744313 1.529289,-7.827003 1.201618,-0.643086 2.829928,-0.921673 3.618468,-0.619082 0.78854,0.302591 2.552049,0.04062 3.91891,-0.582168 3.561561,-1.622756 9.690101,0.445362 13.009381,4.390108 2.43048,2.888451 2.60506,3.653164 1.97864,8.66687 -1.05869,8.473428 -2.66752,11.625098 -4.83025,9.462364 z m -4.41449,-3.833333 c -0.0111,-2.2 0.18461,-3.217747 0.4349,-2.261659 0.25029,0.956087 0.25937,2.756087 0.0202,4 -0.23921,1.243912 -0.444,0.461659 -0.4551,-1.738341 z m -18.486393,-2.5 c 0.610091,-6.522672 1.234212,-7.837918 1.234212,-2.600925 0,2.052824 0.474825,4.715324 1.055166,5.916666 0.982226,2.033267 0.953688,2.058315 -0.412826,0.362346 -1.420163,-1.762551 -1.48303,-1.762551 -1.929491,0 -0.253824,1.002052 -0.230001,-0.653087 0.05294,-3.678087 z m 15.506573,1 c 0,-2.475 0.19502,-3.4875 0.43337,-2.25 0.23836,1.2375 0.23836,3.2625 0,4.5 -0.23835,1.2375 -0.43337,0.225 -0.43337,-2.25 z m 2.29193,-4.706872 c -0.54268,-1.425198 -0.42782,-1.540062 0.5598,-0.559795 0.68342,0.678334 0.99067,1.485241 0.68278,1.793128 -0.30789,0.307888 -0.86705,-0.247112 -1.24258,-1.233333 z m 84,-2 c -0.54268,-1.425198 -0.42782,-1.540062 0.5598,-0.559795 0.68342,0.678334 0.99067,1.485241 0.68278,1.793128 -0.30789,0.307888 -0.86705,-0.247112 -1.24258,-1.233333 z M 23.640112,55.38015 c 0.678334,-0.683418 1.485241,-0.990671 1.793128,-0.682784 0.307888,0.307887 -0.247112,0.867048 -1.233333,1.242579 -1.425198,0.542685 -1.540062,0.427821 -0.559795,-0.559795 z m 117.266668,0.183105 c 0,-0.582459 0.45,-1.059017 1,-1.059017 0.55,0 1,0.198442 1,0.440983 0,0.242541 -0.45,0.719098 -1,1.059017 -0.55,0.339919 -1,0.141476 -1,-0.440983 z M 83.985726,53.087571 c -0.04342,-1.054166 0.192928,-1.644791 0.52522,-1.3125 0.332291,0.332292 0.367818,1.194792 0.07895,1.916667 -0.319226,0.797733 -0.556183,0.560776 -0.604167,-0.604167 z M 28.937188,52.715515 c -0.01672,-0.708797 1.657091,-2.978629 3.719591,-5.044071 2.08865,-2.091629 2.590015,-2.406744 1.13168,-0.711277 -1.440076,1.674239 -3.113892,3.944071 -3.719591,5.044071 -0.6057,1.1 -1.114956,1.420075 -1.13168,0.711277 z m 86.438552,-0.261496 c -0.36808,-0.595564 -0.39917,-1.352904 -0.0691,-1.682979 0.33008,-0.330074 0.60014,-0.04858 0.60014,0.625548 0,0.674126 0.45,0.947569 1,0.60765 0.55,-0.339919 1,-0.393034 1,-0.118034 0,1.140086 -1.91222,1.569075 -2.53104,0.567815 z m 22.03104,-1.574572 c -1.79811,-1.530107 -2.16579,-2.138519 -0.91776,-1.518633 1.83305,0.910456 5.27123,4.202188 4.2902,4.107461 -0.20484,-0.01978 -1.72244,-1.184752 -3.37244,-2.588828 z m 44,-1.044727 c -2.2,-1.972446 -3.1,-3.120034 -2,-2.550196 1.85345,0.960153 7.37648,6.271498 6.42431,6.178087 -0.23337,-0.02289 -2.22431,-1.655445 -4.42431,-3.627891 z m -37.5,2.5437 c 0,-0.275 1.35,-1.793382 3,-3.374182 1.65,-1.5808 3,-2.649182 3,-2.374182 0,0.275 -1.35,1.793382 -3,3.374182 -1.65,1.5808 -3,2.649182 -3,2.374182 z M 79.334089,49.487103 c -1.109424,-1.109424 -4.021924,-2.447046 -6.472222,-2.972494 l -4.455088,-0.955359 4.402582,0.397803 c 3.037899,0.274495 5.200667,1.195888 6.977272,2.972494 1.41608,1.41608 2.347419,2.574691 2.069641,2.574691 -0.277778,0 -1.412761,-0.907711 -2.522185,-2.017135 z m 114.572691,0.997578 c 0,-0.560757 -1.13417,-0.813894 -2.52037,-0.562527 -1.6748,0.303699 -2.29076,0.0855 -1.83596,-0.650381 0.44656,-0.722553 0.0881,-0.878569 -1.03156,-0.448928 -0.94902,0.364173 -1.462,0.247535 -1.14774,-0.260963 0.31254,-0.505696 0.0891,-1.215604 -0.49662,-1.577573 -0.7405,-0.457654 -0.70817,-1.087923 0.10614,-2.069099 0.64405,-0.776034 0.7784,-1.426918 0.29855,-1.446407 -1.24813,-0.05069 3.88898,-2.886521 5.30613,-2.92913 1.58554,-0.04767 4.32143,2.77884 4.32143,4.464565 0,0.746429 -0.59866,1.955804 -1.33036,2.6875 -0.73169,0.731696 -1.14419,1.888839 -0.91666,2.571429 0.22753,0.682589 0.15119,1.241071 -0.16965,1.241071 -0.32083,0 -0.58333,-0.458801 -0.58333,-1.019557 z M 83.985726,49.087571 c -0.04342,-1.054166 0.192928,-1.644791 0.52522,-1.3125 0.332291,0.332292 0.367818,1.194792 0.07895,1.916667 -0.319226,0.797733 -0.556183,0.560776 -0.604167,-0.604167 z m -28.673959,-1.8161 c -1.167219,-1.368054 -1.28843,-1.758697 -0.312979,-1.008676 0.875605,0.67325 1.813105,1.002995 2.083334,0.732767 0.270228,-0.270228 0.491324,0.183676 0.491324,1.008676 0,1.916536 -0.0018,1.915952 -2.261679,-0.732767 z m 55.807023,-1.017233 c -2.75575,-2.756158 -4.19637,-3.340793 -9.48077,-3.847513 l -6.231241,-0.597513 5.788721,-0.152487 c 5.463,-0.143907 6.02569,0.07118 10,3.822509 2.31621,2.186248 3.97763,3.986248 3.69205,4 -0.28558,0.01375 -1.98152,-1.437496 -3.76876,-3.224996 z m -46.443561,1.08155 c 0.581102,-0.581102 1.646819,-0.859794 2.36826,-0.619313 0.748946,0.249648 0.295653,0.702941 -1.056551,1.05655 -1.663345,0.434974 -2.053777,0.304831 -1.311709,-0.437237 z m 59.981551,0.506169 c 0.6875,-0.277412 1.8125,-0.277412 2.5,0 0.6875,0.277413 0.125,0.504386 -1.25,0.504386 -1.375,0 -1.9375,-0.226973 -1.25,-0.504386 z m 6.52083,0.05811 c 0.33229,-0.332291 1.19479,-0.367818 1.91667,-0.07895 0.79773,0.319226 0.56078,0.556183 -0.60417,0.604167 -1.05416,0.04342 -1.64479,-0.192928 -1.3125,-0.52522 z M 86.629001,44.453842 c 1.222222,-1.286171 2.415649,-2.138493 2.65206,-1.894048 0.23641,0.244444 -0.76359,1.296766 -2.222223,2.338492 l -2.652059,1.894048 2.222222,-2.338492 z m 65.073779,0.853441 c 1.49174,-1.863328 8.12391,-5.216472 8.86057,-4.479806 0.27178,0.271782 -0.55226,0.819275 -1.83121,1.216651 -1.27895,0.397376 -3.67536,1.658382 -5.32536,2.802236 -1.99648,1.384048 -2.56648,1.538229 -1.704,0.460919 z m 21.454,-0.918093 c -3.60406,-2.3081 -3.81536,-2.57274 -2,-2.504918 0.6875,0.02568 2.33378,1.075685 3.65841,2.333333 2.97216,2.821888 2.54845,2.865727 -1.65841,0.171585 z M 49.906779,44.004238 c -1.375,-0.786021 -2.023508,-1.445075 -1.44113,-1.464565 0.582379,-0.01949 1.932379,0.625253 3,1.432762 2.468977,1.86744 1.680384,1.883528 -1.55887,0.0318 z m 81.503041,-1.084767 c -3.52906,-3.270616 -2.09129,-6.053698 3.39783,-6.57717 2.3245,-0.221676 3.87411,0.04241 3.77216,0.642852 -0.0952,0.560497 0.32524,0.927995 0.93423,0.816664 1.81673,-0.332119 0.69874,4.94968 -1.28803,6.085154 -2.98505,1.706011 -4.10259,1.547386 -6.81619,-0.9675 z M 38.906779,42.549928 c 0.825,-0.558286 2.3625,-1.021955 3.416667,-1.030377 2.558447,-0.02044 1.760261,0.551916 -1.916667,1.374387 -2.190916,0.490074 -2.595458,0.397296 -1.5,-0.34401 z m 126.000001,-2.04569 -3.5,-0.736718 3.19098,-0.131641 c 1.75504,-0.0724 3.4691,0.318359 3.80902,0.868359 0.33992,0.55 0.47898,0.940761 0.30902,0.868359 -0.16996,-0.0724 -1.88402,-0.463164 -3.80902,-0.868359 z m -22.39244,-4.881146 c -1.59112,-1.758168 -1.5931,-1.990455 -0.0303,-3.553217 2.02595,-2.025948 5.78432,-1.68536 6.21251,0.562985 0.30445,1.598827 -2.18532,4.871378 -3.70621,4.871378 -0.42547,0 -1.53967,-0.846516 -2.476,-1.881146 z m 30.14244,-5.888305 c -2.53415,-0.546213 -2.33559,-5.264654 0.25,-5.9408 1.1,-0.287656 2,-0.990272 2,-1.561368 0,-0.571096 0.9,-0.223867 2,0.771619 1.1,0.995486 2,2.363476 2,3.039978 0,1.707924 -4.13107,4.147287 -6.25,3.690571 z"
       id="path3341" />
    <path
       style="fill:#bad330"
       d="m 172.22796,108.31551 c -1.19835,-0.57936 -2.72732,-2.37756 -3.3977,-3.99601 -1.05619,-2.54985 -0.95238,-3.3012 0.77769,-5.62895 2.51256,-3.380554 7.61114,-4.118638 10.48499,-1.517836 4.72267,4.273956 4.64504,8.333216 -0.20737,10.842496 -3.31318,1.71331 -4.62823,1.76488 -7.65761,0.3003 z M 152.29839,98.082379 c -0.81776,-2.131045 1.4121,-5.578141 3.60839,-5.578141 2.9912,0 4.33815,3.384007 2.13908,5.374133 -2.21561,2.005097 -5.01815,2.104574 -5.74747,0.204008 z m -13.92674,-3.634976 c -1.13005,-1.828461 0.45253,-5.782174 2.58544,-6.459133 2.44679,-0.77658 4.94969,1.045461 4.94969,3.603229 0,3.009777 -6.02801,5.294466 -7.53513,2.855904 z m -28.7359,-4.035034 c -2.18297,-1.270868 -1.34289,-2.908131 1.49215,-2.908131 1.1567,0 4.57864,-0.780345 7.6043,-1.734101 4.24888,-1.339341 6.14696,-2.625545 8.33789,-5.650039 3.49239,-4.821099 3.53073,-5.61586 0.27095,-5.61586 -2.98918,0 -6.02355,-1.420429 -9.18426,-4.299277 -1.67607,-1.526604 -2.25,-3.161719 -2.25,-6.41022 0,-7.67683 4.98598,-12.310748 13.20034,-12.268267 4.66,0.0241 7.30054,1.666922 10.22461,6.361276 5.05181,8.110264 -3.33923,28.972003 -13.15409,32.703608 -3.22695,1.226883 -14.33346,1.106706 -16.54189,-0.178989 z m 22.07103,-24.108131 c 1.86888,-1.86888 1.42883,-3.374708 -1.35715,-4.644084 -4.61325,-2.10194 -8.93991,2.290299 -4.69285,4.763985 2.3602,1.374691 4.59979,1.330306 6.05,-0.119901 z m 23.75782,15.769224 c -8.3513,-3.104972 -12.55782,-8.695865 -12.55782,-16.690608 0,-5.925818 4.47681,-12.863912 11.30969,-17.5276 7.83622,-5.348506 10.3311,-5.340254 19.00002,0.06285 9.57292,5.966541 10.88084,7.513794 11.46172,13.55913 0.63936,6.65397 -3.12126,14.611437 -8.74801,18.510778 -4.89849,3.394657 -14.35302,4.358078 -20.4656,2.085454 z M 22.344457,76.312379 c -5.089534,-6.913643 -5.1945,-8.794721 -0.812125,-14.55395 1.77654,-2.334693 3.564321,-3.420824 6.368888,-3.869293 3.215689,-0.514209 4.004531,-1.103734 4.500892,-3.363649 0.331013,-1.507091 1.859733,-3.945302 3.397156,-5.418246 8.284059,-7.936633 22.107511,-0.539052 22.107511,11.830772 0,5.643195 -1.376915,8.566225 -4.035184,8.566225 -1.712489,0 -1.964816,-0.699163 -1.964816,-5.444236 0,-6.984956 -3.086792,-11.252765 -7.362631,-10.179597 -1.487962,0.373454 -3.202948,1.771037 -3.811078,3.105738 -0.919451,2.017975 -0.645519,3.36729 1.626298,8.010718 1.502595,3.071193 2.479583,6.24175 2.171086,7.045682 -0.981107,2.556722 -4.917531,1.580648 -8.760965,-2.172365 -5.985463,-5.844648 -9.453425,-2.629099 -4.36271,4.045173 2.76301,3.622492 3.107634,5.581253 1.3,7.388887 -2.749504,2.749504 -5.715172,1.320848 -10.362322,-4.991859 z m 169.542103,1.154086 c -2.55744,-4.778637 2.86991,-9.417268 7.48242,-6.395037 3.34241,2.190034 3.80588,4.16473 1.51512,6.455491 -2.63697,2.636973 -7.57166,2.603817 -8.99754,-0.06045 z M 79.242183,75.504669 c -1.190528,-0.480038 -2.569875,-1.596991 -3.065217,-2.482117 -0.722516,-1.291064 -1.431475,-1.407491 -3.584975,-0.588732 -3.404597,1.294426 -7.950076,0.403958 -10.615954,-2.079686 -2.802226,-2.61067 -2.870618,-11.114258 -0.122913,-15.28247 4.450165,-6.750812 11.143231,-7.421691 17.246422,-1.728696 3.950652,3.685129 4.069144,3.971196 2.961277,7.149224 -2.429017,6.967881 -0.888951,9.488578 5.345472,8.749185 1.373191,-0.162858 2.094646,0.428603 2.303217,1.888215 0.622987,4.359778 -4.841133,6.643641 -10.467329,4.375077 z M 72.078038,63.84925 c 2.000553,-1.810475 2.373681,-3.890186 0.865216,-4.82247 -1.231065,-0.760839 -5.036475,2.999979 -5.036475,4.977458 0,1.976235 1.894049,1.905859 4.171259,-0.154988 z m 35.495412,3.988321 c -0.36667,-0.366666 -0.66667,-2.996922 -0.66667,-5.845012 0,-6.112084 -2.1754,-8.826871 -6.66157,-8.313277 -2.726386,0.312129 -2.850467,0.561801 -3.143338,6.324956 -0.340119,6.692895 -1.072574,7.991049 -3.986884,7.066083 -2.583591,-0.82 -3.954292,-4.479393 -4.765976,-12.723839 -0.606946,-6.16489 -0.493735,-6.744313 1.529289,-7.827003 1.201618,-0.643086 2.829928,-0.921673 3.618468,-0.619082 0.78854,0.302591 2.552049,0.04062 3.91891,-0.582168 3.561561,-1.622756 9.690101,0.445362 13.009381,4.390108 2.43048,2.888451 2.60506,3.653164 1.97864,8.66687 -1.05869,8.473428 -2.66752,11.625098 -4.83025,9.462364 z m 80.94184,-19.867675 c -1.22199,-1.221992 -1.30742,-2.032371 -0.41967,-3.980778 1.49206,-3.2747 4.46846,-4.104995 6.88282,-1.920025 2.41006,2.181071 2.43565,3.666063 0.0996,5.780157 -2.28404,2.067025 -4.57426,2.109127 -6.56275,0.120646 z m -56.95438,-4.7293 c -1.15039,-0.841181 -1.7143,-2.267762 -1.4991,-3.792386 0.29841,-2.114119 0.87012,-2.443972 4.23598,-2.443972 2.61854,0 4.25202,0.572301 4.99489,1.75 2.44291,3.872824 -3.69788,7.436015 -7.73177,4.486358 z m 11.2763,-7.320181 c -1.67196,-2.014597 -0.12523,-4.782453 2.92617,-5.236314 2.91162,-0.433071 3.84595,2.386342 1.60969,4.857382 -2.15019,2.375935 -2.83127,2.432833 -4.53586,0.378932 z m 28.37143,-8.071935 c -0.77432,-2.017841 3.12526,-5.501308 5.24701,-4.687116 1.75953,0.675196 1.89731,3.496695 0.25113,5.142874 -1.72744,1.727442 -4.75673,1.476335 -5.49814,-0.455758 z"
       id="path3339" />
    <path
       style="fill:#0e100f"
       d="m 110.09254,90.44931 c -2.93945,-1.1789 -1.92288,-2.945072 1.69512,-2.945072 5.23816,0 12.02432,-3.061635 15.12563,-6.824064 1.64642,-1.997393 2.99349,-4.16454 2.99349,-4.815882 0,-0.651342 -1.79359,-1.487284 -3.98577,-1.857649 -2.28255,-0.385635 -5.27381,-1.876612 -7,-3.489108 -7.40363,-6.916032 -0.66589,-19.013297 10.58972,-19.013297 3.07069,0 4.37781,0.725974 7.65217,4.25 3.8933,4.19017 3.94039,4.333256 3.34457,10.164098 -1.08867,10.654014 -7.33977,21.223036 -14.31857,24.209063 -3.62101,1.549325 -12.58878,1.728671 -16.09636,0.321911 z m 22.63252,-25.685399 c 0.5862,-4.126088 -6.94366,-5.702478 -8.45284,-1.769619 -0.94414,2.460405 1.61587,4.646069 5.04939,4.311011 2.31965,-0.226362 3.16415,-0.856955 3.40345,-2.541392 z m 25.36596,17.708596 c -6.30688,-1.295394 -10.76035,-4.461181 -13.11329,-9.321702 -3.70973,-7.663274 -2.30158,-14.170918 4.55026,-21.028738 3.56448,-3.567586 12.31424,-8.584804 15.012,-8.60806 2.44011,-0.02103 16.79737,9.658057 18.52709,12.490231 2.38051,3.897735 2.29628,8.895996 -0.24433,14.5 -4.6608,10.280651 -13.08951,14.359504 -24.73173,11.968269 z m 16.51174,-5.089393 c 4.50955,-2.787055 7.75951,-9.637361 6.85631,-14.451823 -0.34753,-1.852499 -1.83045,-4.792615 -3.29539,-6.533591 -9.71275,-11.542944 -30.63487,-5.197146 -30.43574,9.231333 0.16461,11.927361 15.64175,18.696504 26.87482,11.754081 z m -14.29157,-4.192311 c -2.73201,-1.528908 -5.33279,-4.911736 -5.37114,-6.986225 -0.0487,-2.636228 2.69483,-7.484458 4.90464,-8.66711 2.04934,-1.096774 5.06209,-0.430749 5.06209,1.119072 0,0.526264 1.4992,0.657073 3.4139,0.297873 2.8531,-0.535244 3.60607,-0.281378 4.58374,1.545414 3.03298,5.667178 -7.02748,15.805727 -12.59323,12.690976 z M 25.475427,79.811525 c -1.44019,-1.544008 -3.759093,-4.445129 -5.153116,-6.446936 -2.381689,-3.420089 -2.448284,-3.842361 -1.103938,-7 1.989949,-4.674052 5.568723,-7.653238 9.653098,-8.035817 3.008387,-0.281792 3.551318,-0.751751 4.12244,-3.568371 1.976872,-9.749399 13.176368,-11.738206 20.947975,-3.719942 3.219247,3.321421 3.464893,4.028202 3.464893,9.969321 0,6.650563 -1.227381,9.196785 -3.932783,8.158625 -1.127697,-0.432738 -1.567217,-1.974609 -1.567217,-5.497924 0,-8.255507 -6.024865,-13.111212 -10.345012,-8.337502 -2.334487,2.579578 -2.060497,5.803595 0.926346,10.900257 1.419734,2.422592 2.333857,5.049628 2.031385,5.837858 -0.962933,2.509361 -4.768772,1.547438 -8.17749,-2.066856 -3.384148,-3.588242 -6.82025,-4.544992 -7.737585,-2.154456 -0.283984,0.740049 0.875035,3.484494 2.575597,6.098765 2.382508,3.662628 2.854523,5.132086 2.057217,6.404456 -1.713472,2.734424 -4.914468,2.511116 -7.76181,-0.541478 z m 51.77421,-6.219826 c -1.346091,-1.57212 -2.545802,-1.82041 -6.740212,-1.394944 -4.268899,0.433023 -5.569752,0.147803 -7.961399,-1.745586 -2.67397,-2.116895 -2.831435,-2.640854 -2.436117,-8.106074 0.342693,-4.737672 0.963866,-6.407813 3.283914,-8.829422 3.523421,-3.677659 8.230051,-4.725177 12.141835,-2.702315 5.374753,2.779393 6.397462,4.746182 6.121362,11.772097 l -0.252241,6.418783 4.25,0.307498 c 4.439815,0.321231 5.684259,2.358243 3.05,4.992502 -1.967605,1.967605 -9.567,1.494986 -11.457142,-0.712539 z m -4.914287,-9.65889 c 1.83584,-1.83584 2.10068,-5.428571 0.40017,-5.428571 -1.879978,0 -4.828741,3.147992 -4.828741,5.154988 0,2.257789 2.302146,2.400009 4.428571,0.273583 z m 35.778,3.378 c -0.66361,-0.663614 -1.20657,-3.539817 -1.20657,-6.391561 0,-4.492384 -0.35048,-5.414632 -2.62374,-6.904133 -2.07481,-1.359465 -3.12091,-1.492623 -5.000005,-0.636449 -2.074564,0.945234 -2.376256,1.768156 -2.376256,6.481688 0,3.66332 -0.49975,5.813751 -1.554525,6.689136 -2.630508,2.183128 -5.192517,-1.55944 -6.432301,-9.396266 -1.568949,-9.917524 -1.319098,-10.291636 7.42021,-11.110576 12.375877,-1.159714 17.267597,3.308438 15.529967,14.185263 -1.07586,6.734488 -2.12576,8.71392 -3.75678,7.082898 z"
       id="path3337" />
  </g>
</svg>
