<svg width="450" height="130" viewBox="0 0 450 130" fill="none" xmlns="http://www.w3.org/2000/svg">
<path d="M168.624 41.3752L162.571 25.3659L156.519 41.3752H168.624ZM150.051 58.5703H142.871L159.308 17.0649H166.013L182.509 58.5703H175.092L170.76 47.186H154.383L150.051 58.5703Z" fill="#0E0930"/>
<path d="M195.872 52.878V58.5703H192.43C186.912 58.5703 184.004 55.1905 184.004 49.9726V17.0649H190.59V49.5578C190.59 51.6923 191.481 52.878 193.557 52.878H195.872Z" fill="#0E0930"/>
<path d="M200.129 33.667H194.492V28.2713H200.129V22.1048L206.657 18.3101V28.2713H213.599V33.667H206.657V48.3125C206.657 51.2773 207.843 52.878 210.395 52.878H213.599V58.5703H209.683C203.452 58.5703 200.129 54.6569 200.129 48.7276V33.667Z" fill="#0E0930"/>
<path d="M221.543 40.1856H236.675C235.843 35.3237 233.055 33.0704 229.257 33.0704C225.163 33.0704 222.374 35.5016 221.543 40.1856ZM243.379 44.8699H221.306C221.781 50.74 224.985 53.5267 229.376 53.5267C233.173 53.5267 236.081 51.8663 237.803 47.4193L243.379 49.5541C240.829 56.3727 235.487 59.2188 229.495 59.2188C220.831 59.2188 214.66 52.8744 214.66 43.3876C214.66 33.9006 220.772 27.6156 229.317 27.6156C237.565 27.6156 243.439 33.9006 243.439 43.2095C243.439 43.7433 243.439 44.3363 243.379 44.8699Z" fill="#0E0930"/>
<path d="M263.895 27.6192V34.6157H260.809C256.951 34.6157 254.223 37.6396 254.223 42.5017V58.5703H247.635V28.2713H254.223V33.0149C255.943 29.3385 258.791 27.6192 262.233 27.6192H263.895Z" fill="#0E0930"/>
<path d="M292.845 39.3V58.5703H286.259V40.3671C286.259 36.0388 283.707 33.4298 280.147 33.4298C276.051 33.4298 273.145 36.1573 273.145 40.6637V58.5703H266.557V28.2713H273.145V32.5405C275.043 29.0422 278.307 27.6192 281.867 27.6192C288.217 27.6192 292.845 32.2439 292.845 39.3Z" fill="#0E0930"/>
<path d="M317.379 49.7913C317.379 46.8266 314.473 45.2256 310.379 45.2256C306.343 45.2256 303.317 46.7672 303.317 49.7913C303.317 52.7559 306.343 54.2975 310.379 54.2975C314.473 54.2975 317.379 52.6965 317.379 49.7913ZM323.789 39.5927V58.5666H317.617V55.6019C315.777 57.9737 312.573 59.2188 308.419 59.2188C301.595 59.2188 296.553 55.7798 296.553 49.8505C296.553 43.9803 301.715 40.4228 308.835 40.4228C312.573 40.4228 315.481 41.49 317.261 43.3876V40.245C317.261 35.5016 314.295 33.4855 310.201 33.4855C306.521 33.4855 303.969 35.5016 302.901 38.7627L297.383 36.5688C299.223 30.4023 304.385 27.6156 310.437 27.6156C317.439 27.6156 323.789 31.2916 323.789 39.5927Z" fill="#0E0930"/>
<path d="M331.411 33.667H325.773V28.2713H331.411V22.1048L337.939 18.3101V28.2713H344.881V33.667H337.939V48.3125C337.939 51.2773 339.125 52.878 341.677 52.878H344.881V58.5703H340.965C334.733 58.5703 331.411 54.6569 331.411 48.7276V33.667Z" fill="#0E0930"/>
<path d="M347.93 28.2713H354.518V58.5703H347.93V28.2713ZM346.922 19.7332C346.922 17.1836 348.82 15.5826 351.312 15.5826C353.746 15.5826 355.644 17.1836 355.644 19.7332C355.644 22.2829 353.746 23.8243 351.312 23.8243C348.82 23.8243 346.922 22.2829 346.922 19.7332Z" fill="#0E0930"/>
<path d="M364.094 28.2713L372.164 49.7356L380.174 28.2713H387.176L375.19 58.5703H369.018L356.914 28.2713H364.094Z" fill="#0E0930"/>
<path d="M393.737 40.1856H408.869C408.039 35.3237 405.249 33.0704 401.451 33.0704C397.357 33.0704 394.569 35.5016 393.737 40.1856ZM415.575 44.8699H393.501C393.975 50.74 397.179 53.5267 401.571 53.5267C405.367 53.5267 408.275 51.8663 409.997 47.4193L415.575 49.5541C413.023 56.3727 407.683 59.2188 401.689 59.2188C393.025 59.2188 386.855 52.8744 386.855 43.3876C386.855 33.9006 392.967 27.6156 401.511 27.6156C409.759 27.6156 415.633 33.9006 415.633 43.2095C415.633 43.7433 415.633 44.3363 415.575 44.8699Z" fill="#0E0930"/>
<path d="M168.624 96.5314L162.571 80.5222L156.519 96.5314H168.624ZM150.051 113.727H142.871L159.308 72.2213H166.013L182.509 113.727H175.092L170.76 102.342H154.383L150.051 113.727Z" fill="#0E0930"/>
<path d="M184.899 83.4276H191.486V113.727H184.899V83.4276ZM183.891 74.8895C183.891 72.3398 185.789 70.7389 188.282 70.7389C190.715 70.7389 192.613 72.3398 192.613 74.8895C192.613 77.439 190.715 78.9806 188.282 78.9806C185.789 78.9806 183.891 77.439 183.891 74.8895Z" fill="#0E0930"/>
<path d="M213.37 82.7755V89.772H210.284C206.427 89.772 203.698 92.7959 203.698 97.658V113.727H197.111V83.4276H203.698V88.1712C205.419 84.495 208.267 82.7755 211.709 82.7755H213.37Z" fill="#0E0930"/>
<path d="M227.93 108.034V113.727H224.488C218.97 113.727 216.062 110.347 216.062 105.129V72.2213H222.649V104.714C222.649 106.848 223.539 108.034 225.616 108.034H227.93Z" fill="#0E0930"/>
<path d="M230.485 83.4276H237.071V113.727H230.485V83.4276ZM229.477 74.8895C229.477 72.3398 231.375 70.7389 233.867 70.7389C236.301 70.7389 238.199 72.3398 238.199 74.8895C238.199 77.439 236.301 78.9806 233.867 78.9806C231.375 78.9806 229.477 77.439 229.477 74.8895Z" fill="#0E0930"/>
<path d="M268.983 94.4562V113.727H262.397V95.5234C262.397 91.1951 259.845 88.5861 256.285 88.5861C252.191 88.5861 249.283 91.3136 249.283 95.82V113.727H242.697V83.4276H249.283V87.6968C251.181 84.1984 254.445 82.7755 258.005 82.7755C264.355 82.7755 268.983 87.4004 268.983 94.4562Z" fill="#0E0930"/>
<path d="M279.712 95.3419H294.842C294.012 90.48 291.224 88.2267 287.426 88.2267C283.332 88.2267 280.542 90.6579 279.712 95.3419ZM301.548 100.026H279.474C279.95 105.896 283.154 108.683 287.544 108.683C291.342 108.683 294.25 107.023 295.97 102.576L301.548 104.71C298.996 111.529 293.656 114.375 287.662 114.375C279 114.375 272.828 108.031 272.828 98.5438C272.828 89.0569 278.94 82.7719 287.484 82.7719C295.734 82.7719 301.608 89.0569 301.608 98.3658C301.608 98.8996 301.608 99.4926 301.548 100.026Z" fill="#0E0930"/>
<path d="M303.904 104.473L309.244 102.754C310.194 107.023 313.516 108.979 317.432 108.979C321.23 108.979 323.604 107.556 323.604 105.481C323.604 103.465 321.764 102.516 317.67 101.568L314.702 100.797C307.878 99.1366 305.03 96.172 305.03 91.6065C305.03 86.3887 309.66 82.831 316.78 82.831C323.484 82.831 328.766 86.2702 329.596 92.5552L324.078 93.919C323.366 89.8277 320.4 88.2861 316.78 88.2861C313.516 88.2861 311.38 89.5905 311.38 91.4878C311.38 93.7409 313.872 94.5711 317.492 95.4604L320.518 96.172C326.868 97.7731 329.952 100.678 329.952 105.244C329.952 110.58 325.028 114.375 317.492 114.375C311.142 114.375 305.564 111.41 303.904 104.473Z" fill="#0E0930"/>
<path d="M64.9149 61.5679C68.7667 62.7077 72.8457 64.6204 76.4973 67.7848C80.9817 71.6711 84.1283 76.8225 85.9135 83.1777L97.8577 49.9628L64.9149 61.5679ZM87.4721 97.7656L81.2573 96.7054C81.1831 85.8335 78.1835 77.7412 72.3419 72.6539C63.4931 64.9474 50.7581 66.5112 50.6308 66.528L49.1426 60.3395L102.086 41.6886L106.163 45.7877L87.4721 97.7656Z" fill="#0E0930"/>
<path d="M81.8429 107.148H81.8733C92.9971 107.148 103.455 102.824 111.327 94.9692C119.206 87.1076 123.549 76.6507 123.556 65.5248C123.572 42.5575 104.885 23.8587 81.9001 23.8423H81.8699C70.7461 23.8423 60.2881 28.1662 52.4163 36.0212C44.5378 43.8828 40.1945 54.3397 40.187 65.4656C40.1711 88.433 58.8581 107.132 81.8429 107.148ZM81.8737 113.547H81.8385C68.9935 113.538 56.9209 108.531 47.8446 99.4488C38.7682 90.3665 33.7745 78.2963 33.7832 65.4613C33.7921 52.626 38.8025 40.5628 47.8914 31.4935C56.9721 22.4326 69.0379 17.4435 81.8697 17.4435H81.9047C94.7497 17.4527 106.822 22.4595 115.899 31.5416C124.975 40.6239 129.969 52.6944 129.96 65.5294C129.951 78.3644 124.941 90.4277 115.852 99.497C106.771 108.558 94.7053 113.547 81.8737 113.547Z" fill="#0E0930"/>
</svg>
