<?xml version="1.0" encoding="UTF-8" standalone="no"?>
<svg
   width="229.99821"
   height="46.958302"
   viewBox="0 0 229.99821 46.958302"
   fill="none"
   version="1.1"
   id="svg610"
   sodipodi:docname="Logo hãng Pacific Airlines.svg"
   inkscape:version="1.1 (c68e22c387, 2021-05-23)"
   xmlns:inkscape="http://www.inkscape.org/namespaces/inkscape"
   xmlns:sodipodi="http://sodipodi.sourceforge.net/DTD/sodipodi-0.dtd"
   xmlns="http://www.w3.org/2000/svg"
   xmlns:svg="http://www.w3.org/2000/svg">
  <sodipodi:namedview
     id="namedview612"
     pagecolor="#ffffff"
     bordercolor="#666666"
     borderopacity="1.0"
     inkscape:pageshadow="2"
     inkscape:pageopacity="0.0"
     inkscape:pagecheckerboard="0"
     showgrid="false"
     inkscape:zoom="2.8280098"
     inkscape:cx="203.5"
     inkscape:cy="48.97437"
     inkscape:window-width="1920"
     inkscape:window-height="1012"
     inkscape:window-x="-8"
     inkscape:window-y="-8"
     inkscape:window-maximized="1"
     inkscape:current-layer="svg610" />
  <g
     clip-path="url(#clip2)"
     id="g294">
    <path
       d="M 222.213,0.129031 228.278,0 217.805,18.1289 h -18.043 c 0,0 6.236,-2.3441 8.645,-4.3656 1.849,-1.5698 9.742,-10.64504 10.58,-11.7203 1.033,-1.376338 2.473,-1.806443 3.226,-1.913969 z"
       fill="url(#paint19_linear)"
       id="path194"
       style="fill:url(#paint19_linear)" />
    <path
       d="m 203.352,25.5697 -2.559,-4.2366 h 17.054 l 7.354,12.7311 c 0,0 -4.193,-3.4623 -6.602,-4.3225 -1.871,-0.6667 -11.483,-2.5376 -12.58,-2.6882 -1.398,-0.172 -2.28,-1.0107 -2.667,-1.4838 z"
       fill="url(#paint20_linear)"
       id="path196"
       style="fill:url(#paint20_linear)" />
    <path
       d="m 229.761,28.5374 -2.022,3.6774 -7.247,-12.559 6.237,-10.81718 c 0,0 -0.753,4.55908 -0.366,6.68808 0.301,1.656 3.011,9.5269 3.376,10.3871 0.452,1.1398 0.215,2.1505 0.022,2.6236 z"
       fill="url(#paint21_linear)"
       id="path198"
       style="fill:url(#paint21_linear)" />
    <path
       d="M 0,33.5491 2.70966,18.1514 h 8.17194 c 1.699,0 2.9248,0.4301 3.6559,1.2903 0.7527,0.8602 0.9678,2.1505 0.6452,3.8494 -0.3011,1.6989 -0.9677,2.9892 -2.0215,3.8494 -1.0538,0.8603 -2.4301,1.2904 -4.129,1.2904 H 4.68814 l -0.88171,5.1182 z m 8.92467,-8.301 c 1.29033,0 2.06453,-0.6452 2.27953,-1.957 0.2366,-1.2903 -0.301,-1.957 -1.59136,-1.957 H 5.95695 l -0.66666,3.8925 h 3.63438 z"
       fill="url(#paint22_linear)"
       id="path200"
       style="fill:url(#paint22_linear)" />
    <path
       d="m 25.2246,33.5481 -0.5161,-2.9892 h -5.9354 l -1.5269,2.9892 h -4.129 l 8.6451,-15.3977 h 4.4516 l 3.2258,15.3977 z M 23.2892,21.7633 20.386,27.3976 h 3.8064 z"
       fill="url(#paint23_linear)"
       id="path202"
       style="fill:url(#paint23_linear)" />
    <path
       d="m 37.6796,33.5481 c -2.6237,0 -4.4731,-0.6236 -5.5053,-1.8709 -1.0323,-1.2473 -1.3119,-3.2043 -0.8603,-5.8279 0.4732,-2.6237 1.4409,-4.5591 2.9032,-5.8065 1.4839,-1.2688 3.5269,-1.8924 6.1505,-1.8924 h 4.8817 l -0.5806,3.2043 h -4.086 c -0.8387,0 -1.5484,0.086 -2.1505,0.2365 -0.6022,0.1506 -1.1183,0.4086 -1.5269,0.7742 -0.4086,0.3656 -0.7527,0.8172 -1.0107,1.3979 -0.2581,0.5806 -0.4517,1.2688 -0.6022,2.1075 -0.129,0.8387 -0.172,1.5483 -0.129,2.1075 0.0645,0.5806 0.215,1.0322 0.5161,1.3978 0.2796,0.3656 0.7097,0.6022 1.2473,0.7742 0.5591,0.1505 1.2473,0.2366 2.086,0.2366 h 4.172 l -0.5591,3.2042 h -4.9462 z"
       fill="url(#paint24_linear)"
       id="path204"
       style="fill:url(#paint24_linear)" />
    <path
       d="m 45.2266,33.5481 2.7096,-15.3977 h 3.8064 L 49.033,33.5481 Z"
       fill="url(#paint25_linear)"
       id="path206"
       style="fill:url(#paint25_linear)" />
    <path
       d="m 56.3855,28.0643 -0.9463,5.4838 h -3.8064 l 1.6559,-9.4193 c 0.6882,-3.9999 3.0538,-5.9784 7.0537,-5.9784 h 5.0967 l -0.5806,3.2043 h -4.043 c -0.6021,0 -1.1182,0.0645 -1.5483,0.172 -0.4301,0.1075 -0.7957,0.3011 -1.0968,0.5591 -0.3011,0.2581 -0.5376,0.5807 -0.7097,0.9893 -0.172,0.4086 -0.3226,0.9247 -0.4301,1.5269 l -0.0645,0.2795 h 7.0537 l -0.5591,3.2043 h -7.0752 z"
       fill="url(#paint26_linear)"
       id="path208"
       style="fill:url(#paint26_linear)" />
    <path
       d="m 65.0938,33.5481 2.7096,-15.3977 h 3.8064 l -2.7096,15.3977 z"
       fill="url(#paint27_linear)"
       id="path210"
       style="fill:url(#paint27_linear)" />
    <path
       d="m 79.0116,33.5481 c -2.6236,0 -4.4731,-0.6236 -5.5053,-1.8709 -1.0323,-1.2473 -1.3118,-3.2043 -0.8602,-5.8279 0.4731,-2.6237 1.4408,-4.5591 2.9032,-5.8065 1.4838,-1.2688 3.5268,-1.8924 6.1505,-1.8924 h 4.8817 l -0.5591,3.1828 h -4.086 c -0.8388,0 -1.5484,0.086 -2.1506,0.2365 -0.6021,0.1506 -1.1183,0.4086 -1.5269,0.7742 -0.4086,0.3656 -0.7526,0.8172 -1.0107,1.3978 -0.2581,0.5807 -0.4516,1.2689 -0.6021,2.1076 -0.1291,0.8387 -0.1721,1.5483 -0.1291,2.1075 0.0645,0.5806 0.2151,1.0322 0.5162,1.3978 0.2795,0.3656 0.7096,0.6022 1.2473,0.7742 0.5591,0.1505 1.2473,0.2366 2.086,0.2366 h 4.172 l -0.5591,3.2042 h -4.9678 z"
       fill="url(#paint28_linear)"
       id="path212"
       style="fill:url(#paint28_linear)" />
    <path
       d="m 101.529,33.5482 -0.516,-2.9893 h -5.9352 l -1.5269,2.9893 h -4.129 L 98.067,18.1289 h 4.452 l 3.225,15.3977 h -4.215 z m -1.9352,-11.7849 -2.9032,5.6344 h 3.8064 z"
       fill="url(#paint29_linear)"
       id="path214"
       style="fill:url(#paint29_linear)" />
    <path
       d="m 107.527,33.5481 2.71,-15.3977 h 3.806 l -2.709,15.3977 z"
       fill="url(#paint30_linear)"
       id="path216"
       style="fill:url(#paint30_linear)" />
    <path
       d="m 123.849,33.5481 -2.516,-5.3763 h -2.645 l -0.925,5.3763 h -3.806 l 2.71,-15.3977 h 8.365 c 1.742,0 2.968,0.4086 3.721,1.2043 0.752,0.7957 0.967,2.0645 0.645,3.8064 -0.151,0.8602 -0.387,1.5914 -0.688,2.1505 -0.301,0.5592 -0.646,1.0108 -1.011,1.3764 -0.366,0.344 -0.731,0.6236 -1.097,0.7957 -0.366,0.1935 -0.688,0.3225 -0.968,0.4086 l 2.818,5.6558 z m -3.957,-12.2149 -0.623,3.6128 h 3.892 c 0.645,0 1.162,-0.129 1.527,-0.4086 0.366,-0.2795 0.602,-0.7526 0.71,-1.3978 0.129,-0.6452 0.043,-1.1183 -0.237,-1.3978 -0.279,-0.2796 -0.752,-0.4086 -1.398,-0.4086 z"
       fill="url(#paint31_linear)"
       id="path218"
       style="fill:url(#paint31_linear)" />
    <path
       d="m 136.277,33.5482 c -4.021,0 -5.677,-2 -4.989,-6.043 l 1.678,-9.3763 h 3.806 l -1.57,8.8602 c -0.107,0.6236 -0.15,1.1612 -0.107,1.5913 0.043,0.4302 0.172,0.7742 0.387,1.0108 0.215,0.2581 0.516,0.4301 0.924,0.5591 0.409,0.1076 0.925,0.1721 1.549,0.1721 h 4.172 l -0.559,3.2042 h -5.291 z"
       fill="url(#paint32_linear)"
       id="path220"
       style="fill:url(#paint32_linear)" />
    <path
       d="m 143.609,33.5481 2.71,-15.3977 h 3.806 l -2.709,15.3977 z"
       fill="url(#paint33_linear)"
       id="path222"
       style="fill:url(#paint33_linear)" />
    <path
       d="m 159.226,33.5481 -3.699,-10.6666 -1.871,10.6666 h -3.613 l 2.71,-15.3977 h 4.924 l 3.57,10.4515 1.85,-10.4515 h 3.613 l -2.689,15.3977 z"
       fill="url(#paint34_linear)"
       id="path224"
       style="fill:url(#paint34_linear)" />
    <path
       d="m 174.086,33.5481 c -2.624,0 -4.473,-0.6236 -5.506,-1.8709 -1.032,-1.2473 -1.311,-3.2043 -0.86,-5.8279 0.473,-2.6237 1.441,-4.5591 2.903,-5.8065 1.484,-1.2688 3.527,-1.8924 6.151,-1.8924 h 4.774 l -0.581,3.2043 h -3.999 c -0.689,0 -1.291,0.043 -1.807,0.129 -0.516,0.086 -0.989,0.2581 -1.376,0.4731 -0.387,0.2151 -0.731,0.5161 -1.011,0.8817 -0.28,0.3656 -0.516,0.8387 -0.688,1.3979 h 8.15 l -0.559,3.2042 h -8.15 c -0.022,1.0968 0.258,1.8495 0.881,2.2796 0.624,0.4301 1.613,0.6452 2.99,0.6452 h 4.215 l -0.559,3.2042 h -4.968 z"
       fill="url(#paint35_linear)"
       id="path226"
       style="fill:url(#paint35_linear)" />
    <path
       d="m 181.699,33.5482 0.559,-3.2043 h 7.119 c 0.967,0 1.548,-0.4946 1.72,-1.4624 0.151,-0.9677 -0.258,-1.4623 -1.204,-1.4623 h -2.925 c -3.075,0 -4.344,-1.5484 -3.806,-4.6667 0.559,-3.0752 2.365,-4.6236 5.462,-4.6236 h 7.72 l -0.58,3.2043 h -6.925 c -0.968,0 -1.527,0.4731 -1.699,1.4408 -0.172,0.9678 0.215,1.4409 1.183,1.4409 h 2.882 c 1.548,0 2.645,0.3871 3.29,1.1613 0.645,0.7742 0.838,1.9354 0.58,3.4838 -0.258,1.5484 -0.86,2.7097 -1.784,3.4839 -0.925,0.7741 -2.173,1.1612 -3.721,1.1612 h -7.871 z"
       fill="url(#paint36_linear)"
       id="path228"
       style="fill:url(#paint36_linear)" />
    <path
       d="m 32,39.7899 h 1.9704 v 5.4069 h 1.1455 v -5.4069 h 1.9704 V 38.8218 H 32 Z"
       fill="#324471"
       id="path230" />
    <path
       d="m 39.1439,42.3953 c 0,-0.6911 0.4295,-1.0895 1.0334,-1.0895 0.5914,0 0.9401,0.3766 0.9401,1.021 v 2.87 h 1.1268 v -3.0443 c 0,-1.1549 -0.6537,-1.7992 -1.6467,-1.7992 -0.7346,0 -1.2015,0.333 -1.4225,0.8747 h -0.056 v -2.4062 h -1.102 v 6.375 h 1.1269 z"
       fill="#324471"
       id="path232" />
    <path
       d="m 44.7687,45.2933 c 0.7502,0 1.1984,-0.3518 1.4038,-0.7533 h 0.0374 v 0.6568 h 1.0833 v -3.2 c 0,-1.2638 -1.0304,-1.6435 -1.9424,-1.6435 -1.0055,0 -1.7774,0.4482 -2.0265,1.3198 l 1.0522,0.1494 c 0.112,-0.3268 0.4295,-0.607 0.9805,-0.607 0.5229,0 0.8093,0.2677 0.8093,0.7377 v 0.0187 c 0,0.3238 -0.3393,0.3393 -1.1828,0.4296 -0.9277,0.0996 -1.8148,0.3766 -1.8148,1.4537 0,0.94 0.6879,1.4381 1.6,1.4381 z m 0.2926,-0.828 c -0.4701,0 -0.8062,-0.2148 -0.8062,-0.6288 0,-0.4327 0.3766,-0.6132 0.8809,-0.6848 0.2957,-0.0405 0.8871,-0.1152 1.0334,-0.2335 v 0.5634 c 0,0.5323 -0.4295,0.9837 -1.1081,0.9837 z m -0.0716,-4.6786 h 0.8436 l -0.6942,-1.4225 h -1.105 z"
       fill="#324471"
       id="path234" />
    <path
       d="m 49.553,42.3953 c 0,-0.6911 0.4172,-1.0895 1.0117,-1.0895 0.5821,0 0.9307,0.3829 0.9307,1.021 v 2.87 h 1.1269 v -3.0443 c 0.0031,-1.1455 -0.6506,-1.7992 -1.6374,-1.7992 -0.7159,0 -1.2077,0.3424 -1.4256,0.8747 h -0.0561 v -0.8125 h -1.077 v 4.7813 h 1.1268 z"
       fill="#324471"
       id="path236" />
    <path
       d="m 54.8946,42.3953 c 0,-0.6911 0.4296,-1.0895 1.0334,-1.0895 0.5915,0 0.9401,0.3766 0.9401,1.021 v 2.87 h 1.1268 v -3.0443 c 0,-1.1549 -0.6537,-1.7992 -1.6466,-1.7992 -0.7347,0 -1.2016,0.333 -1.4226,0.8747 h -0.056 v -2.4062 h -1.1019 v 6.375 h 1.1268 z"
       fill="#324471"
       id="path238" />
    <path
       d="m 65.5886,40.4155 h -1.1984 l -1.102,3.5517 h -0.0498 l -1.0988,-3.5517 h -1.2015 l 1.7027,4.7813 h 1.2451 z"
       fill="#324471"
       id="path240" />
    <path
       d="m 66.3683,45.1968 h 1.1269 v -4.7813 h -1.1269 z m 0.5666,-5.4599 c 0.3579,0 0.6505,-0.2739 0.6505,-0.6101 0,-0.3393 -0.2926,-0.6132 -0.6505,-0.6132 -0.3611,0 -0.6537,0.2739 -0.6537,0.6132 0,0.3362 0.2926,0.6101 0.6537,0.6101 z"
       fill="#324471"
       id="path242" />
    <path
       d="m 70.7706,45.2902 c 1.1144,0 1.8801,-0.5448 2.0794,-1.3759 L 71.7978,43.796 c -0.1525,0.4047 -0.526,0.6164 -1.0116,0.6164 -0.7284,0 -1.2109,-0.4794 -1.2202,-1.2981 h 3.3307 v -0.3455 c 0,-1.6778 -1.0086,-2.4155 -2.1852,-2.4155 -1.3697,0 -2.263,1.0054 -2.263,2.4809 0,1.5003 0.8809,2.456 2.3221,2.456 z m -0.7222,-5.4474 0.6319,-0.7969 0.6319,0.7969 h 0.9868 v -0.0436 l -1.1766,-1.3447 h -0.881 l -1.1797,1.3447 v 0.0436 z m -0.4793,2.512 c 0.0342,-0.6101 0.4856,-1.1237 1.1579,-1.1237 0.6475,0 1.0833,0.4731 1.0895,1.1237 z"
       fill="#324471"
       id="path244" />
    <path
       d="m 74.9768,42.3953 c 0,-0.6911 0.4171,-1.0895 1.0116,-1.0895 0.5821,0 0.9308,0.3829 0.9308,1.021 v 2.87 h 1.1268 v -3.0443 c 0.0031,-1.1455 -0.6506,-1.7992 -1.6373,-1.7992 -0.716,0 -1.2078,0.3424 -1.4257,0.8747 h -0.056 v -0.8125 h -1.0771 v 4.7813 h 1.1269 z"
       fill="#324471"
       id="path246" />
    <path
       d="m 83.4514,45.2902 c 1.2015,0 1.9672,-0.7129 2.0482,-1.7276 h -1.0771 c -0.0965,0.5136 -0.4669,0.8093 -0.9618,0.8093 -0.7035,0 -1.158,-0.5883 -1.158,-1.5657 0,-0.965 0.4638,-1.544 1.158,-1.544 0.5416,0 0.8747,0.3486 0.9618,0.8093 h 1.0771 c -0.0778,-1.0365 -0.8872,-1.7182 -2.0545,-1.7182 -1.4007,0 -2.2848,1.0116 -2.2848,2.4715 0,1.4475 0.8623,2.4654 2.2911,2.4654 z"
       fill="#324471"
       id="path248" />
    <path
       d="m 89.4723,43.1859 c 0,0.7284 -0.5199,1.0895 -1.0179,1.0895 -0.5416,0 -0.9027,-0.3829 -0.9027,-0.9899 v -2.87 h -1.1268 v 3.0443 c 0,1.1487 0.6536,1.7992 1.5937,1.7992 0.7159,0 1.2202,-0.3766 1.4381,-0.912 h 0.0498 v 0.8498 h 1.0926 v -4.7813 h -1.1268 z m -0.523,-3.4427 V 39.4568 C 89.2824,39.407 89.6092,39.2296 89.6061,38.8342 89.6092,38.3175 89.0676,38 88.0404,38 l -0.028,0.5572 c 0.3611,0 0.6381,0.0747 0.635,0.2988 0.0031,0.1743 -0.1619,0.2708 -0.6008,0.2895 l 0.0436,0.5977 z"
       fill="#324471"
       id="path250" />
    <path
       d="m 93.1337,45.2933 c 0.7502,0 1.1984,-0.3518 1.4039,-0.7533 h 0.0373 v 0.6568 h 1.0833 v -3.2 c 0,-1.2638 -1.0304,-1.6435 -1.9424,-1.6435 -1.0054,0 -1.7774,0.4482 -2.0264,1.3198 l 1.0521,0.1494 c 0.112,-0.3268 0.4296,-0.607 0.9805,-0.607 0.523,0 0.8093,0.2677 0.8093,0.7377 v 0.0187 c 0,0.3238 -0.3393,0.3393 -1.1828,0.4296 -0.9276,0.0996 -1.8148,0.3766 -1.8148,1.4537 0,0.94 0.6879,1.4381 1.6,1.4381 z m 0.2926,-0.828 c -0.47,0 -0.8062,-0.2148 -0.8062,-0.6288 0,-0.4327 0.3766,-0.6132 0.8809,-0.6848 0.2957,-0.0405 0.8872,-0.1152 1.0335,-0.2335 v 0.5634 c 0,0.5323 -0.4296,0.9837 -1.1082,0.9837 z"
       fill="#324471"
       id="path252" />
    <path
       d="m 99.8682,38.8218 h -1.2669 l 2.2447,6.375 h 1.425 l 2.248,-6.375 h -1.27 l -1.656,5.0178 h -0.066 z"
       fill="#324471"
       id="path254" />
    <path
       d="m 105.309,45.1968 h 1.126 v -4.7813 h -1.126 z m 0.566,-5.4599 c 0.358,0 0.651,-0.2739 0.651,-0.6101 0,-0.3393 -0.293,-0.6132 -0.651,-0.6132 -0.361,0 -0.654,0.2739 -0.654,0.6132 0,0.3362 0.293,0.6101 0.654,0.6101 z"
       fill="#324471"
       id="path256" />
    <path
       d="m 109.711,45.2902 c 1.114,0 1.88,-0.5448 2.079,-1.3759 l -1.052,-0.1183 c -0.152,0.4047 -0.526,0.6164 -1.012,0.6164 -0.728,0 -1.21,-0.4794 -1.22,-1.2981 h 3.331 v -0.3455 c 0,-1.6778 -1.009,-2.4155 -2.185,-2.4155 -1.37,0 -2.263,1.0054 -2.263,2.4809 0,1.5003 0.881,2.456 2.322,2.456 z m -1.202,-2.9354 c 0.035,-0.6101 0.486,-1.1237 1.158,-1.1237 0.648,0 1.084,0.4731 1.09,1.1237 z"
       fill="#324471"
       id="path258" />
    <path
       d="m 115.178,40.4155 h -0.943 V 39.27 h -1.127 v 1.1455 h -0.679 v 0.8716 h 0.679 v 2.6583 c -0.007,0.8996 0.647,1.3416 1.494,1.3167 0.32,-0.0093 0.541,-0.0715 0.663,-0.112 l -0.19,-0.8809 c -0.062,0.0155 -0.19,0.0435 -0.33,0.0435 -0.283,0 -0.51,-0.0996 -0.51,-0.554 v -2.4716 h 0.943 z"
       fill="#324471"
       id="path260" />
    <path
       d="m 117.247,42.3953 c 0,-0.6911 0.417,-1.0895 1.012,-1.0895 0.582,0 0.93,0.3829 0.93,1.021 v 2.87 h 1.127 v -3.0443 c 0.003,-1.1455 -0.65,-1.7992 -1.637,-1.7992 -0.716,0 -1.208,0.3424 -1.426,0.8747 h -0.056 v -0.8125 h -1.077 v 4.7813 h 1.127 z"
       fill="#324471"
       id="path262" />
    <path
       d="m 122.838,45.2933 c 0.75,0 1.198,-0.3518 1.403,-0.7533 h 0.038 v 0.6568 h 1.083 v -3.2 c 0,-1.2638 -1.03,-1.6435 -1.942,-1.6435 -1.006,0 -1.778,0.4482 -2.027,1.3198 l 1.052,0.1494 c 0.112,-0.3268 0.43,-0.607 0.981,-0.607 0.523,0 0.809,0.2677 0.809,0.7377 v 0.0187 c 0,0.3238 -0.339,0.3393 -1.183,0.4296 -0.927,0.0996 -1.814,0.3766 -1.814,1.4537 0,0.94 0.687,1.4381 1.6,1.4381 z m 0.292,-0.828 c -0.47,0 -0.806,-0.2148 -0.806,-0.6288 0,-0.4327 0.377,-0.6132 0.881,-0.6848 0.296,-0.0405 0.887,-0.1152 1.033,-0.2335 v 0.5634 c 0,0.5323 -0.429,0.9837 -1.108,0.9837 z"
       fill="#324471"
       id="path264" />
    <path
       d="m 126.495,45.1968 h 1.127 v -2.9074 c 0,-0.5883 0.392,-0.9867 0.878,-0.9867 0.476,0 0.803,0.3206 0.803,0.8124 v 3.0817 h 1.105 v -2.9821 c 0,-0.5385 0.32,-0.912 0.865,-0.912 0.455,0 0.816,0.2677 0.816,0.8591 v 3.035 h 1.13 v -3.2093 c 0,-1.0677 -0.617,-1.6342 -1.494,-1.6342 -0.695,0 -1.224,0.3424 -1.435,0.8747 h -0.05 c -0.184,-0.5417 -0.648,-0.8747 -1.292,-0.8747 -0.641,0 -1.121,0.3299 -1.32,0.8747 h -0.056 v -0.8125 h -1.077 z"
       fill="#324471"
       id="path266" />
    <path
       d="m 137.405,45.1968 0.526,-1.572 h 2.397 l 0.529,1.572 h 1.232 l -2.247,-6.375 h -1.426 l -2.244,6.375 z m 0.837,-2.4996 0.862,-2.568 h 0.05 l 0.862,2.568 z"
       fill="#324471"
       id="path268" />
    <path
       d="m 142.913,45.1968 h 1.127 v -4.7813 h -1.127 z m 0.567,-5.4599 c 0.358,0 0.651,-0.2739 0.651,-0.6101 0,-0.3393 -0.293,-0.6132 -0.651,-0.6132 -0.361,0 -0.654,0.2739 -0.654,0.6132 0,0.3362 0.293,0.6101 0.654,0.6101 z"
       fill="#324471"
       id="path270" />
    <path
       d="m 145.199,45.1968 h 1.127 v -2.8109 c 0,-0.607 0.457,-1.0365 1.077,-1.0365 0.19,0 0.426,0.0342 0.523,0.0653 v -1.0365 c -0.103,-0.0187 -0.28,-0.0312 -0.405,-0.0312 -0.548,0 -1.005,0.3113 -1.18,0.8654 h -0.049 v -0.7969 h -1.093 z"
       fill="#324471"
       id="path272" />
    <path
       d="m 149.801,38.8218 h -1.127 v 6.375 h 1.127 z"
       fill="#324471"
       id="path274" />
    <path
       d="m 150.96,45.1968 h 1.127 v -4.7813 h -1.127 z m 0.567,-5.4599 c 0.358,0 0.65,-0.2739 0.65,-0.6101 0,-0.3393 -0.292,-0.6132 -0.65,-0.6132 -0.362,0 -0.654,0.2739 -0.654,0.6132 0,0.3362 0.292,0.6101 0.654,0.6101 z"
       fill="#324471"
       id="path276" />
    <path
       d="m 154.372,42.3953 c 0,-0.6911 0.418,-1.0895 1.012,-1.0895 0.582,0 0.931,0.3829 0.931,1.021 v 2.87 h 1.127 v -3.0443 c 0.003,-1.1455 -0.651,-1.7992 -1.638,-1.7992 -0.716,0 -1.207,0.3424 -1.425,0.8747 h -0.056 v -0.8125 h -1.077 v 4.7813 h 1.126 z"
       fill="#324471"
       id="path278" />
    <path
       d="m 160.704,45.2902 c 1.114,0 1.88,-0.5448 2.079,-1.3759 l -1.052,-0.1183 c -0.152,0.4047 -0.526,0.6164 -1.012,0.6164 -0.728,0 -1.21,-0.4794 -1.22,-1.2981 h 3.331 v -0.3455 c 0,-1.6778 -1.009,-2.4155 -2.185,-2.4155 -1.37,0 -2.263,1.0054 -2.263,2.4809 0,1.5003 0.881,2.456 2.322,2.456 z m -1.202,-2.9354 c 0.035,-0.6101 0.486,-1.1237 1.158,-1.1237 0.648,0 1.084,0.4731 1.09,1.1237 z"
       fill="#324471"
       id="path280" />
    <path
       d="m 167.562,41.6793 c -0.156,-0.8093 -0.803,-1.326 -1.924,-1.326 -1.151,0 -1.936,0.5665 -1.933,1.4505 -0.003,0.6973 0.427,1.158 1.345,1.3479 l 0.816,0.1712 c 0.439,0.0965 0.644,0.2739 0.644,0.5447 0,0.3269 -0.355,0.5728 -0.89,0.5728 -0.517,0 -0.853,-0.2242 -0.95,-0.6537 l -1.098,0.1058 c 0.14,0.8778 0.877,1.3977 2.051,1.3977 1.195,0 2.039,-0.6195 2.042,-1.5253 -0.003,-0.6817 -0.442,-1.0988 -1.345,-1.2949 l -0.815,-0.1743 c -0.486,-0.109 -0.679,-0.2771 -0.676,-0.5541 -0.003,-0.3238 0.355,-0.5479 0.825,-0.5479 0.52,0 0.794,0.2833 0.881,0.5977 z"
       fill="#324471"
       id="path282" />
    <path
       d="m 175.089,40.8575 h 1.177 c -0.197,-1.2513 -1.28,-2.1229 -2.69,-2.1229 -1.668,0 -2.92,1.2265 -2.92,3.2809 0,2.0171 1.196,3.2684 2.954,3.2684 1.578,0 2.708,-1.0147 2.708,-2.6583 v -0.7657 h -2.586 v 0.9027 h 1.469 c -0.019,0.9089 -0.626,1.4848 -1.584,1.4848 -1.068,0 -1.8,-0.8 -1.8,-2.2443 0,-1.435 0.744,-2.2319 1.775,-2.2319 0.768,0 1.291,0.4109 1.497,1.0863 z"
       fill="#324471"
       id="path284" />
    <path
       d="m 177.385,45.1968 h 1.127 v -2.8109 c 0,-0.607 0.458,-1.0365 1.077,-1.0365 0.19,0 0.427,0.0342 0.523,0.0653 v -1.0365 c -0.103,-0.0187 -0.28,-0.0312 -0.405,-0.0312 -0.547,0 -1.005,0.3113 -1.179,0.8654 h -0.05 v -0.7969 h -1.093 z"
       fill="#324471"
       id="path286" />
    <path
       d="m 182.749,45.2902 c 1.401,0 2.291,-0.9868 2.291,-2.4654 0,-1.4817 -0.89,-2.4715 -2.291,-2.4715 -1.4,0 -2.291,0.9898 -2.291,2.4715 0,1.4786 0.891,2.4654 2.291,2.4654 z m 0.007,-0.9027 c -0.775,0 -1.155,-0.6911 -1.155,-1.5658 0,-0.8747 0.38,-1.5751 1.155,-1.5751 0.762,0 1.142,0.7004 1.142,1.5751 0,0.8747 -0.38,1.5658 -1.142,1.5658 z"
       fill="#324471"
       id="path288" />
    <path
       d="m 189.044,43.1859 c 0,0.7284 -0.52,1.0895 -1.018,1.0895 -0.541,0 -0.902,-0.3829 -0.902,-0.9899 v -2.87 h -1.127 v 3.0443 c 0,1.1487 0.654,1.7992 1.594,1.7992 0.716,0 1.22,-0.3766 1.438,-0.912 h 0.05 v 0.8498 h 1.092 v -4.7813 h -1.127 z"
       fill="#324471"
       id="path290" />
    <path
       d="m 191.33,46.9897 h 1.127 v -2.5462 h 0.046 c 0.178,0.3486 0.548,0.8373 1.37,0.8373 1.127,0 1.97,-0.8933 1.97,-2.4684 0,-1.5938 -0.868,-2.4591 -1.973,-2.4591 -0.844,0 -1.195,0.5074 -1.367,0.8529 h -0.065 v -0.7907 h -1.108 z m 1.105,-4.1835 c 0,-0.9277 0.398,-1.5284 1.124,-1.5284 0.75,0 1.136,0.6381 1.136,1.5284 0,0.8964 -0.392,1.5501 -1.136,1.5501 -0.719,0 -1.124,-0.6225 -1.124,-1.5501 z"
       fill="#324471"
       id="path292" />
  </g>
  <defs
     id="defs608">
    <linearGradient
       id="paint0_linear"
       x1="211.349"
       y1="58.710098"
       x2="220.83"
       y2="63.4086"
       gradientUnits="userSpaceOnUse">
      <stop
         stop-color="#FAAF4C"
         id="stop398" />
      <stop
         offset="0.5944"
         stop-color="#F79C2E"
         id="stop400" />
      <stop
         offset="1"
         stop-color="#F6921E"
         id="stop402" />
    </linearGradient>
    <linearGradient
       id="paint1_linear"
       x1="220.636"
       y1="92.150299"
       x2="206.953"
       y2="67.9599"
       gradientUnits="userSpaceOnUse">
      <stop
         stop-color="#72A4D7"
         id="stop405" />
      <stop
         offset="1"
         stop-color="#1A1F4A"
         id="stop407" />
    </linearGradient>
    <linearGradient
       id="paint2_linear"
       x1="234.435"
       y1="84.347702"
       x2="220.75101"
       y2="60.157299"
       gradientUnits="userSpaceOnUse">
      <stop
         stop-color="#72A4D7"
         id="stop410" />
      <stop
         offset="1"
         stop-color="#1A1F4A"
         id="stop412" />
    </linearGradient>
    <linearGradient
       id="paint3_linear"
       x1="7.6670699"
       y1="92.232803"
       x2="7.6670699"
       y2="69.985001"
       gradientUnits="userSpaceOnUse">
      <stop
         stop-color="#72A4D7"
         id="stop415" />
      <stop
         offset="1"
         stop-color="#1A1F4A"
         id="stop417" />
    </linearGradient>
    <linearGradient
       id="paint4_linear"
       x1="21.275299"
       y1="92.232803"
       x2="21.275299"
       y2="69.985001"
       gradientUnits="userSpaceOnUse">
      <stop
         stop-color="#72A4D7"
         id="stop420" />
      <stop
         offset="1"
         stop-color="#1A1F4A"
         id="stop422" />
    </linearGradient>
    <linearGradient
       id="paint5_linear"
       x1="38.181599"
       y1="92.232803"
       x2="38.181599"
       y2="69.985001"
       gradientUnits="userSpaceOnUse">
      <stop
         stop-color="#72A4D7"
         id="stop425" />
      <stop
         offset="1"
         stop-color="#1A1F4A"
         id="stop427" />
    </linearGradient>
    <linearGradient
       id="paint6_linear"
       x1="48.487801"
       y1="92.232803"
       x2="48.487801"
       y2="69.985001"
       gradientUnits="userSpaceOnUse">
      <stop
         stop-color="#72A4D7"
         id="stop430" />
      <stop
         offset="1"
         stop-color="#1A1F4A"
         id="stop432" />
    </linearGradient>
    <linearGradient
       id="paint7_linear"
       x1="58.535801"
       y1="92.232803"
       x2="58.535801"
       y2="69.985001"
       gradientUnits="userSpaceOnUse">
      <stop
         stop-color="#72A4D7"
         id="stop435" />
      <stop
         offset="1"
         stop-color="#1A1F4A"
         id="stop437" />
    </linearGradient>
    <linearGradient
       id="paint8_linear"
       x1="68.353699"
       y1="92.232803"
       x2="68.353699"
       y2="69.985001"
       gradientUnits="userSpaceOnUse">
      <stop
         stop-color="#72A4D7"
         id="stop440" />
      <stop
         offset="1"
         stop-color="#1A1F4A"
         id="stop442" />
    </linearGradient>
    <linearGradient
       id="paint9_linear"
       x1="79.5214"
       y1="92.232803"
       x2="79.5214"
       y2="69.985001"
       gradientUnits="userSpaceOnUse">
      <stop
         stop-color="#72A4D7"
         id="stop445" />
      <stop
         offset="1"
         stop-color="#1A1F4A"
         id="stop447" />
    </linearGradient>
    <linearGradient
       id="paint10_linear"
       x1="97.577301"
       y1="92.232803"
       x2="97.577301"
       y2="69.985001"
       gradientUnits="userSpaceOnUse">
      <stop
         stop-color="#72A4D7"
         id="stop450" />
      <stop
         offset="1"
         stop-color="#1A1F4A"
         id="stop452" />
    </linearGradient>
    <linearGradient
       id="paint11_linear"
       x1="110.778"
       y1="92.232803"
       x2="110.778"
       y2="69.985001"
       gradientUnits="userSpaceOnUse">
      <stop
         stop-color="#72A4D7"
         id="stop455" />
      <stop
         offset="1"
         stop-color="#1A1F4A"
         id="stop457" />
    </linearGradient>
    <linearGradient
       id="paint12_linear"
       x1="121.754"
       y1="92.232803"
       x2="121.754"
       y2="69.985001"
       gradientUnits="userSpaceOnUse">
      <stop
         stop-color="#72A4D7"
         id="stop460" />
      <stop
         offset="1"
         stop-color="#1A1F4A"
         id="stop462" />
    </linearGradient>
    <linearGradient
       id="paint13_linear"
       x1="136.62601"
       y1="92.232803"
       x2="136.62601"
       y2="69.985001"
       gradientUnits="userSpaceOnUse">
      <stop
         stop-color="#72A4D7"
         id="stop465" />
      <stop
         offset="1"
         stop-color="#1A1F4A"
         id="stop467" />
    </linearGradient>
    <linearGradient
       id="paint14_linear"
       x1="146.868"
       y1="92.232803"
       x2="146.868"
       y2="69.985001"
       gradientUnits="userSpaceOnUse">
      <stop
         stop-color="#72A4D7"
         id="stop470" />
      <stop
         offset="1"
         stop-color="#1A1F4A"
         id="stop472" />
    </linearGradient>
    <linearGradient
       id="paint15_linear"
       x1="158.38699"
       y1="92.232803"
       x2="158.38699"
       y2="69.985001"
       gradientUnits="userSpaceOnUse">
      <stop
         stop-color="#72A4D7"
         id="stop475" />
      <stop
         offset="1"
         stop-color="#1A1F4A"
         id="stop477" />
    </linearGradient>
    <linearGradient
       id="paint16_linear"
       x1="174.548"
       y1="92.232803"
       x2="174.548"
       y2="69.985001"
       gradientUnits="userSpaceOnUse">
      <stop
         stop-color="#72A4D7"
         id="stop480" />
      <stop
         offset="1"
         stop-color="#1A1F4A"
         id="stop482" />
    </linearGradient>
    <linearGradient
       id="paint17_linear"
       x1="189.01801"
       y1="92.232803"
       x2="189.01801"
       y2="69.985001"
       gradientUnits="userSpaceOnUse">
      <stop
         stop-color="#72A4D7"
         id="stop485" />
      <stop
         offset="1"
         stop-color="#1A1F4A"
         id="stop487" />
    </linearGradient>
    <linearGradient
       id="paint18_linear"
       x1="392.97"
       y1="56.8307"
       x2="400.10199"
       y2="60.3647"
       gradientUnits="userSpaceOnUse">
      <stop
         stop-color="#FAAF4C"
         id="stop490" />
      <stop
         offset="0.5944"
         stop-color="#F79C2E"
         id="stop492" />
      <stop
         offset="1"
         stop-color="#F6921E"
         id="stop494" />
    </linearGradient>
    <linearGradient
       id="paint19_linear"
       x1="211.345"
       y1="7.7516899"
       x2="220.826"
       y2="12.4501"
       gradientUnits="userSpaceOnUse">
      <stop
         stop-color="#FAAF4C"
         id="stop497" />
      <stop
         offset="0.5944"
         stop-color="#F79C2E"
         id="stop499" />
      <stop
         offset="1"
         stop-color="#F6921E"
         id="stop501" />
    </linearGradient>
    <linearGradient
       id="paint20_linear"
       x1="220.636"
       y1="41.191601"
       x2="206.953"
       y2="17.001301"
       gradientUnits="userSpaceOnUse">
      <stop
         stop-color="#72A4D7"
         id="stop504" />
      <stop
         offset="1"
         stop-color="#1A1F4A"
         id="stop506" />
    </linearGradient>
    <linearGradient
       id="paint21_linear"
       x1="234.431"
       y1="33.389"
       x2="220.74699"
       y2="9.1987896"
       gradientUnits="userSpaceOnUse">
      <stop
         stop-color="#72A4D7"
         id="stop509" />
      <stop
         offset="1"
         stop-color="#1A1F4A"
         id="stop511" />
    </linearGradient>
    <linearGradient
       id="paint22_linear"
       x1="7.6670198"
       y1="41.275101"
       x2="7.6670198"
       y2="19.0275"
       gradientUnits="userSpaceOnUse">
      <stop
         stop-color="#72A4D7"
         id="stop514" />
      <stop
         offset="1"
         stop-color="#1A1F4A"
         id="stop516" />
    </linearGradient>
    <linearGradient
       id="paint23_linear"
       x1="21.2752"
       y1="41.274101"
       x2="21.2752"
       y2="19.026501"
       gradientUnits="userSpaceOnUse">
      <stop
         stop-color="#72A4D7"
         id="stop519" />
      <stop
         offset="1"
         stop-color="#1A1F4A"
         id="stop521" />
    </linearGradient>
    <linearGradient
       id="paint24_linear"
       x1="38.181499"
       y1="41.274101"
       x2="38.181499"
       y2="19.026501"
       gradientUnits="userSpaceOnUse">
      <stop
         stop-color="#72A4D7"
         id="stop524" />
      <stop
         offset="1"
         stop-color="#1A1F4A"
         id="stop526" />
    </linearGradient>
    <linearGradient
       id="paint25_linear"
       x1="48.487801"
       y1="41.274101"
       x2="48.487801"
       y2="19.026501"
       gradientUnits="userSpaceOnUse">
      <stop
         stop-color="#72A4D7"
         id="stop529" />
      <stop
         offset="1"
         stop-color="#1A1F4A"
         id="stop531" />
    </linearGradient>
    <linearGradient
       id="paint26_linear"
       x1="58.535801"
       y1="41.274101"
       x2="58.535801"
       y2="19.026501"
       gradientUnits="userSpaceOnUse">
      <stop
         stop-color="#72A4D7"
         id="stop534" />
      <stop
         offset="1"
         stop-color="#1A1F4A"
         id="stop536" />
    </linearGradient>
    <linearGradient
       id="paint27_linear"
       x1="68.353699"
       y1="41.274101"
       x2="68.353699"
       y2="19.026501"
       gradientUnits="userSpaceOnUse">
      <stop
         stop-color="#72A4D7"
         id="stop539" />
      <stop
         offset="1"
         stop-color="#1A1F4A"
         id="stop541" />
    </linearGradient>
    <linearGradient
       id="paint28_linear"
       x1="79.521301"
       y1="41.274101"
       x2="79.521301"
       y2="19.026501"
       gradientUnits="userSpaceOnUse">
      <stop
         stop-color="#72A4D7"
         id="stop544" />
      <stop
         offset="1"
         stop-color="#1A1F4A"
         id="stop546" />
    </linearGradient>
    <linearGradient
       id="paint29_linear"
       x1="97.577301"
       y1="41.274101"
       x2="97.577301"
       y2="19.026501"
       gradientUnits="userSpaceOnUse">
      <stop
         stop-color="#72A4D7"
         id="stop549" />
      <stop
         offset="1"
         stop-color="#1A1F4A"
         id="stop551" />
    </linearGradient>
    <linearGradient
       id="paint30_linear"
       x1="110.778"
       y1="41.274101"
       x2="110.778"
       y2="19.026501"
       gradientUnits="userSpaceOnUse">
      <stop
         stop-color="#72A4D7"
         id="stop554" />
      <stop
         offset="1"
         stop-color="#1A1F4A"
         id="stop556" />
    </linearGradient>
    <linearGradient
       id="paint31_linear"
       x1="121.75"
       y1="41.274101"
       x2="121.75"
       y2="19.026501"
       gradientUnits="userSpaceOnUse">
      <stop
         stop-color="#72A4D7"
         id="stop559" />
      <stop
         offset="1"
         stop-color="#1A1F4A"
         id="stop561" />
    </linearGradient>
    <linearGradient
       id="paint32_linear"
       x1="136.62601"
       y1="41.274101"
       x2="136.62601"
       y2="19.026501"
       gradientUnits="userSpaceOnUse">
      <stop
         stop-color="#72A4D7"
         id="stop564" />
      <stop
         offset="1"
         stop-color="#1A1F4A"
         id="stop566" />
    </linearGradient>
    <linearGradient
       id="paint33_linear"
       x1="146.864"
       y1="41.274101"
       x2="146.864"
       y2="19.026501"
       gradientUnits="userSpaceOnUse">
      <stop
         stop-color="#72A4D7"
         id="stop569" />
      <stop
         offset="1"
         stop-color="#1A1F4A"
         id="stop571" />
    </linearGradient>
    <linearGradient
       id="paint34_linear"
       x1="158.38699"
       y1="41.274101"
       x2="158.38699"
       y2="19.026501"
       gradientUnits="userSpaceOnUse">
      <stop
         stop-color="#72A4D7"
         id="stop574" />
      <stop
         offset="1"
         stop-color="#1A1F4A"
         id="stop576" />
    </linearGradient>
    <linearGradient
       id="paint35_linear"
       x1="174.54401"
       y1="41.274101"
       x2="174.54401"
       y2="19.026501"
       gradientUnits="userSpaceOnUse">
      <stop
         stop-color="#72A4D7"
         id="stop579" />
      <stop
         offset="1"
         stop-color="#1A1F4A"
         id="stop581" />
    </linearGradient>
    <linearGradient
       id="paint36_linear"
       x1="189.01401"
       y1="41.274101"
       x2="189.01401"
       y2="19.026501"
       gradientUnits="userSpaceOnUse">
      <stop
         stop-color="#72A4D7"
         id="stop584" />
      <stop
         offset="1"
         stop-color="#1A1F4A"
         id="stop586" />
    </linearGradient>
    <linearGradient
       id="paint37_linear"
       x1="392.97"
       y1="5.8306198"
       x2="400.10199"
       y2="9.3646603"
       gradientUnits="userSpaceOnUse">
      <stop
         stop-color="#FAAF4C"
         id="stop589" />
      <stop
         offset="0.5944"
         stop-color="#F79C2E"
         id="stop591" />
      <stop
         offset="1"
         stop-color="#F6921E"
         id="stop593" />
    </linearGradient>
    <clipPath
       id="clip0">
      <rect
         width="230"
         height="46.958302"
         fill="#ffffff"
         transform="translate(0,50.9584)"
         id="rect596"
         x="0"
         y="0" />
    </clipPath>
    <clipPath
       id="clip1">
      <rect
         width="173"
         height="35.320801"
         fill="#ffffff"
         transform="translate(234,51)"
         id="rect599"
         x="0"
         y="0" />
    </clipPath>
    <clipPath
       id="clip2">
      <rect
         width="230"
         height="46.958302"
         fill="#ffffff"
         id="rect602"
         x="0"
         y="0" />
    </clipPath>
    <clipPath
       id="clip3">
      <rect
         width="173"
         height="35.320801"
         fill="#ffffff"
         transform="translate(234)"
         id="rect605"
         x="0"
         y="0" />
    </clipPath>
  </defs>
</svg>
