<?xml version="1.0" encoding="UTF-8"?>
<svg width="600" height="225" version="1.1" xmlns="http://www.w3.org/2000/svg">
 <path d="m509.19 178.31c1.8537-2.5592 3.8906-5.0144 6.1557-7.3558 2.2617-2.3516 4.6583-4.4923 7.1724-6.4221l-2.6871 10.731" fill="#fff"/>
 <path d="m527.78 182.95c-3.147-0.31817-6.2942-0.85767-9.4549-1.6462-3.1573-0.79194-6.2112-1.7845-9.1436-2.9913l10.641-3.0536" fill="#231f20"/>
 <path d="m522.52 164.53c1.2934 2.8772 2.4035 5.8859 3.2888 9.0124 0.90262 3.1262 1.5632 6.2698 1.9885 9.41l-7.9645-7.6912" fill="#918f90"/>
 <path d="m505.43 200.38c-1.864-2.5418-3.5656-5.2427-5.0941-8.1235-1.532-2.8705-2.8394-5.8203-3.9147-8.7945l9.3963 5.8584" fill="#918f90"/>
 <path d="m515.59 184.14c-1.2761 2.8808-2.7667 5.7269-4.4923 8.4763-1.7292 2.7667-3.6175 5.3568-5.6717 7.7812l0.39079-11.067" fill="#231f20"/>
 <path d="m496.43 183.47c3.1402-0.34237 6.3287-0.46342 9.583-0.34929 3.2543 0.10712 6.4565 0.45997 9.5726 1.0202l-9.7731 5.1841" fill="#fff"/>
 <path d="m525.27 210.78c-3.0017 0.99254-6.1142 1.781-9.3133 2.3344-3.2128 0.56717-6.4187 0.89569-9.569 0.98561l8.4796-7.1034" fill="#231f20"/>
 <path d="m512.95 196.1c2.3655 2.0957 4.6031 4.3956 6.6918 6.8819 2.0819 2.5038 3.9666 5.0974 5.6439 7.7985l-10.403-3.7835" fill="#918f90"/>
 <path d="m506.39 214.12c0.63632-3.0847 1.5182-6.1731 2.6282-9.2199 1.1101-3.0676 2.4312-6.0037 3.9147-8.7945l1.9366 10.907" fill="#fff"/>
 <path d="m541.27 195.14c0.0208 3.1506-0.19012 6.3424-0.63979 9.569-0.45994 3.2232-1.1309 6.3668-2.0162 9.4066l-4.15-10.254" fill="#918f90"/>
 <path d="m523.5 202.32c2.7286-1.5908 5.6058-3.0053 8.6145-4.2226 3.0295-1.2242 6.0867-2.2133 9.168-2.9568l-6.8233 8.7149" fill="#fff"/>
 <path d="m538.63 214.12c-2.746-1.5528-5.4087-3.3441-7.9713-5.3464-2.573-2.0024-4.9488-4.1603-7.1483-6.4462l10.97 1.5355" fill="#231f20"/>
 <path d="m531.34 175.06c3.0121 0.96141 5.9863 2.151 8.9087 3.5723 2.9291 1.4248 5.7199 3.0536 8.331 4.8313l-11.039 0.77467" fill="#918f90"/>
 <path d="m532.69 194.18c-0.66744-3.0884-1.1309-6.2527-1.3522-9.4964-0.23525-3.2403-0.22824-6.4636 8e-3 -9.6279l6.2008 9.1851" fill="#fff"/>
 <g fill="#231f20">
  <path d="m548.59 183.47c-2.3413 2.113-4.8658 4.1014-7.5599 5.9241-2.6941 1.8225-5.4779 3.4167-8.3344 4.7898l4.8484-9.9391"/>
  <path d="m470.07 191.3h-8.0994v-7.5252h8.3829c3.2196 0 4.7828 1.1585 4.7828 3.5516 0 2.6697-1.6669 3.9736-5.0663 3.9736m7.3695 10.202c-0.33199-0.64669-0.44612-1.902-0.47724-5.1874-0.0381-2.0266-1.1412-3.4963-2.8876-4.143 2.279-1.0098 3.2128-3.0884 3.2128-4.7828 0-3.7798-2.2963-5.6024-7.0308-5.6024h-10.403v20.366h2.1165v-8.8635h8.255c3.6278 0 4.4786 0.72969 4.5823 3.9043 0.0656 3.3096 0.22124 4.3956 0.66051 4.821l0.12787 0.13824h2.1856zm-24.12-19.692v1.992h-14.162v6.8612h13.591v1.9505h-13.591v7.5703h14.324v1.992h-16.434v-20.366zm-38.88 10.73h9.3859c2.4415 0 4.2744 0.83692 4.2744 3.7835 0 2.8046-2.0508 3.901-4.7932 3.901h-8.8672zm-2.0923 9.5934h11.305c3.1402 0 6.7126-1.5562 6.7126-5.8099 0-2.6075-1.6046-4.5753-4.2986-4.9766v-0.0623c2.4208-0.57754 3.493-2.4173 3.493-4.399 0-2.9016-1.6461-5.1389-5.6406-5.1389h-11.571zm2.0923-18.467h9.085c2.2963 0 3.9528 0.81269 3.9528 3.3096 0 2.7252-1.8295 3.6382-4.6757 3.6382h-8.3622zm-11.78-1.8364 0.0656-0.1175h2.9846v20.449h-2.1027v-17.668h-0.0552l-9.002 17.668h-1.9574l-8.9846-17.693h-0.0589v17.693h-2.0957v-20.449h3.064l9.1125 17.786zm-27.8-0.02v1.9989h-14.175v6.8508h13.605v1.9678h-13.605v7.5563h14.341v1.985h-16.451v-20.359zm-358.06 12.08c0.4738-1.0237 3.5967-7.8987 4.2363-9.2993 0.64324 1.4006 3.7938 8.2688 4.2674 9.2993zm5.2256-12.114h-1.9401l-9.3685 20.373h2.3032s2.6663-5.8133 2.9016-6.2976h10.254c0.21787 0.48417 2.8565 6.2976 2.8565 6.2976h2.3447zm246.94 10.194c0 6.4291 4.4646 10.586 11.042 10.586 6.1108 0 9.8216-4.1326 10.306-8.2169l0.0589-0.49107h-2.2064l-0.0656 0.35967c-0.70202 3.9217-3.7902 6.3564-8.0924 6.3564-6.3287 0-8.8602-4.4438-8.8602-8.6112 0-5.0767 3.6657-8.6285 8.9258-8.6285 4.0151 0 6.9063 1.9055 7.7223 5.1114l0.0864 0.34584h2.2064l-0.12112-0.55334c-1.0098-4.3886-4.6031-6.9027-9.8943-6.9027-7.4665 0-11.108 5.5124-11.108 10.645m27.963-10.212v20.376h16.448v-2.0024h-14.335v-7.5599h13.601v-1.9608h-13.601v-6.8682h14.165v-1.985zm-36.678 0v17.008c-1.2899-1.5908-14.729-17.008-14.729-17.008h-2.1234v20.376h2.0957v-17.001c1.2969 1.5908 14.739 17.001 14.739 17.001h2.1303v-20.376zm-51.903 20.376h2.1027v-20.38h-2.1027zm-19.048-20.376v20.376h14.66v-2.0024h-12.533v-18.374zm-19.204 0v20.376h14.673v-2.0024h-12.557v-18.374zm57.241 2.8186c0.63977 1.4041 3.7731 8.2722 4.2363 9.3029h-8.5004c0.46687-1.0306 3.6138-7.8987 4.2641-9.3029m-0.98561-2.8186-9.3719 20.376h2.3378s2.6422-5.8203 2.8668-6.2942h10.257c0.22124 0.47379 2.898 6.2942 2.898 6.2942h2.3102l-9.32-20.376zm-73.153 2.8186c0.63977 1.4041 3.7765 8.2722 4.24 9.3029h-8.497c0.4565-1.0306 3.6208-7.8987 4.2571-9.3029m-0.98908-2.8186-9.3548 20.376h2.324s2.6526-5.8203 2.8668-6.2942h10.271c0.21087 0.47379 2.8808 6.2942 2.8808 6.2942h2.324l-9.334-20.376zm-31.106 1.985c3.2196 0 4.7794 1.1654 4.7794 3.5586 0 2.6767-1.6565 3.9736-5.0767 3.9736h-8.0787v-7.5322zm-10.499-1.985v20.376h2.1234v-8.8602h8.2447c3.6278 0 4.4853 0.71932 4.572 3.8872 0.0864 3.3096 0.23162 4.4023 0.66744 4.8347l0.1315 0.13824h2.1891l-0.33892-0.66399c-0.332-0.63979-0.45302-1.8986-0.48762-5.1841-0.0311-2.0196-1.1343-3.486-2.8808-4.1326 2.2825-1.0167 3.2196-3.0951 3.2196-4.7898 0-3.7798-2.3136-5.6058-7.0412-5.6058zm-16.233 2.8186c0.65014 1.4041 3.7938 8.2722 4.2641 9.3029h-8.497c0.47377-1.0306 3.6035-7.8987 4.233-9.3029m-0.94411-2.8186-9.3685 20.376h2.2997s2.663-5.8203 2.898-6.2942h10.254c0.21787 0.47379 2.8668 6.2942 2.8668 6.2942h2.3378l-9.3651-20.376zm-27.823 0v1.985h7.8883v18.391h2.0957v-18.391h7.8883v-1.985zm-21.601 13.674c0 2.0231 0.59482 3.5171 1.7741 4.6998 1.5701 1.5839 4.3608 2.3689 7.8675 2.3689 1.9609 0 8.6838-0.42537 8.6838-6.0071 0-4.9073-4.4819-5.3568-8.4348-5.7547l-0.0078-0.0182c-4.0703-0.40809-7.079-0.86111-7.079-3.6138 0-1.3833 0.70204-2.3897 2.1545-3.0468 1.5078-0.68822 3.1195-0.78849 4.7932-0.78849 1.2934 0 3.6553 0.19012 5.0007 1.532 0.61904 0.61905 0.94066 1.5943 0.94066 2.5695l2.0439 0.0234c0-1.4905-0.47724-2.9983-1.4145-3.9425-1.7257-1.7049-4.6098-2.0784-6.7367-2.0784-2.9187 0-5.7788 0.62941-7.5529 2.3897-0.91644 0.90954-1.4006 2.0542-1.4006 3.3407 0 4.7898 4.9003 5.1908 8.739 5.5264 1.8225 0.16937 3.5412 0.32855 4.8106 0.87842 1.3453 0.59826 1.9782 1.5666 1.9782 3.078 0 0.95104-0.31817 1.743-0.95104 2.3828-1.4974 1.4871-4.5823 1.6392-5.6992 1.6392-2.7701 0-5.0041-0.59829-6.1938-1.7741-0.85074-0.86111-1.283-1.902-1.2865-3.4133zm305-13.733h2.988v20.459h-2.0992v-17.661h-0.0693l-9.002 17.661h-1.9539l-8.9846-17.686h-0.0381v17.686h-2.1165v-20.459h3.071l9.1162 17.796z"/>
  <path d="m548.66 155.64h-538.02v-0.91991h538.02z"/>
 </g>
 <path d="m392.39 98.6h-16.233v-7.245h16.233c2.0127 0 3.6382 1.6219 3.6382 3.6175 0 2.0093-1.6254 3.6278-3.6382 3.6278m20.051 7.4595c5.9378 0 5.8203-6.6781 5.8203-6.6781v-8.656c0-10.973-11.627-11.997-11.627-11.997l-53.462-0.01038v50.056h23.247v-17.267h15.445c1.1412 0 1.8675 0.39769 2.3413 0.90954 0.84729 0.95101 0.81269 2.3101 0.81269 2.3101v14.048h23.26v-14.048c-8e-3 -8.0579-5.8377-8.6664-5.8377-8.6664m-93.871-27.355h23.247v50.056h-23.247zm-53.27 30.344 6.0486-12.201 6.0244 12.201zm21.791 19.709h23.568l-25.588-50.15h-27.504l-25.775 50.238h23.703l3.5378-7.1587h24.575zm-110.24-19.709 6.0589-12.201 6.0208 12.201zm21.811 19.709h23.572l-25.595-50.15h-27.512l-25.778 50.238h23.7l3.5412-7.1587h24.581zm-119.72-50.053h24.08l12.882 31.018 13.01-31.112h23.848l-23.129 50.15h-27.506zm-6.588 13.41v-13.352h-62.353v50.028h62.353v-13.349h-39.609v-5.5124h39.609v-12.322h-39.609v-5.4917z" fill="#00a650"/>
 <path d="m473.19 81.637c5.0907 16.188 20.207 27.929 38.094 27.929 22.054 0 39.923-17.873 39.923-39.915 0-21.23-16.548-38.584-37.451-39.858z" fill="#fff"/>
 <path d="m476.74 84.802c5.9759 13.809 19.311 22.621 34.509 22.621 20.802 0 37.72-16.914 37.72-37.702 0-18.485-13.352-34.092-31.376-37.129z" fill="#fff"/>
 <path d="m511.26 111.18c-17.464 0-32.785-10.776-38.812-26.982v-0.0078l43.53-55.622h0.0104c20.771 2.3586 36.745 20.013 36.745 41.155 0 22.856-18.606 41.458-41.471 41.458m16.04-100.3-92.251 117.89h113.91l41.04-117.89z" fill="#00a650"/>
 <path d="m545.24 88.744c-3.0225-1.6427-6.1593-3.064-9.3755-4.2363 1.5562-4.4542 2.4381-9.1818 2.5211-14.096h11.81c-0.10375 6.6433-1.8986 12.889-4.9558 18.332m-13.885 14.338c-1.1585-1.6012-2.4865-3.0398-3.9424-4.2882 3.4133-3.8353 6.1282-8.2343 8.0024-13.041 3.1506 1.162 6.2146 2.5315 9.1784 4.143-3.2855 5.3879-7.833 9.9288-13.238 13.186m-16.389 5.4087c4.3782-2.2928 8.2825-5.2256 11.565-8.6942 1.3522 1.1551 2.5902 2.4727 3.6657 3.9528-4.5961 2.5522-9.7386 4.2226-15.23 4.7413m5.1737-12.605c1.9159 0.77467 3.7108 1.8052 5.3464 3.0606-3.4271 3.6001-7.5148 6.6469-12.163 8.9016 2.7216-3.7835 4.9833-7.7812 6.8163-11.962m-8.2099-1.7188c2.407 0.06925 4.7447 0.48762 6.9512 1.2519-1.8467 4.233-4.1741 8.2929-6.9512 12.114zm-1.3314 13.335c-2.7735-3.7972-5.0871-7.8504-6.9374-12.08 2.203-0.75392 4.5372-1.1862 6.9374-1.2554zm-13.522-8.5352c1.6427-1.2657 3.4237-2.2894 5.3327-3.0813 1.8329 4.1811 4.0947 8.1788 6.7956 11.962-4.6272-2.2548-8.7079-5.2912-12.128-8.8809m-4.7206 4.8243c1.0859-1.494 2.324-2.815 3.6727-3.991 3.2818 3.4652 7.162 6.3979 11.526 8.6838-5.4364-0.51184-10.589-2.158-15.199-4.6928m-5.2116-18.018c1.871 4.8002 4.5927 9.2059 7.992 13.038-1.456 1.2623-2.7805 2.7045-3.9424 4.3193-5.3708-3.23-9.9358-7.7363-13.238-13.197 2.9568-1.622 6.0348-3.0053 9.1888-4.1603m-1.6461-15.362h11.54c0.0381 3.7246 0.37005 7.3628 1.0133 10.938-3.4411 0.66054-6.8093 1.5666-10.105 2.7045-1.5113-4.2882-2.3689-8.8809-2.4485-13.643m13.871-12.083c3.7005 0.63979 7.4595 0.98216 11.229 1.0237v9.7283h-12.229c0.0381-3.6346 0.38387-7.2209 0.99946-10.752m3.8146-13.041c2.3828 0.83347 4.8658 1.2934 7.4147 1.373v11.36c-3.6935-0.0415-7.3592-0.38042-10.984-0.98909 0.80924-4.0081 2.0058-7.9334 3.569-11.744m16.209 0.0485c1.5528 3.7695 2.7356 7.6878 3.5516 11.696-3.6382 0.60867-7.3177 0.94759-11.015 0.98909v-11.35c2.5764-0.06225 5.0974-0.52567 7.4629-1.3349m6.9408-3.7246c3.2855 3.7212 5.9103 7.9783 7.7397 12.592-3.1955 1.1032-6.4877 1.9816-9.8216 2.6075-0.81616-4.0807-2.0231-8.0924-3.6105-11.938 2.03-0.82999 3.9528-1.9194 5.6924-3.2611m-11.409-10.621c5.5194 0.51874 10.707 2.1891 15.306 4.7517-1.0963 1.5113-2.3724 2.8772-3.7591 4.0462-3.2922-3.5033-7.1794-6.4947-11.547-8.7979m29.633 18.578c-2.9742 1.6185-6.0693 3.0157-9.244 4.1741-1.8778-4.7551-4.572-9.1369-7.9472-12.972 1.4836-1.2761 2.8427-2.7356 4.0325-4.3574 5.3812 3.2543 9.8976 7.7812 13.159 13.155m-19.041 19.512c-0.0449-3.7142-0.40117-7.3765-1.034-10.963 3.4167-0.63979 6.7818-1.532 10.071-2.6733 1.5597 4.323 2.4243 8.919 2.5004 13.636zm-1.0064 12.27c0.62249-3.576 0.96141-7.2383 1.0064-10.938h11.537c-0.0656 4.7551-0.91992 9.3304-2.4485 13.615-3.2922-1.1309-6.6744-2.0335-10.095-2.6767m-0.256 1.3003c3.3685 0.63287 6.6884 1.5286 9.915 2.6386-1.8225 4.6721-4.4612 8.9465-7.7915 12.678-1.7499-1.3729-3.6831-2.4761-5.7373-3.32 1.5943-3.8628 2.8116-7.8745 3.6138-11.997m-12.325-1.2208c3.6968 0.05187 7.3765 0.39425 11.021 1.0064-0.80579 4.0288-1.9954 7.9542-3.5552 11.751-2.3689-0.82309-4.8899-1.2934-7.4665-1.3384zm-10.026 13.238c-2.0542 0.83344-3.9702 1.9505-5.7303 3.3026-3.3062-3.7316-5.9622-7.9957-7.7915-12.664 3.237-1.1101 6.5362-2.0058 9.8976-2.6456 0.82307 4.1258 2.0335 8.1409 3.6242 12.007m-2.3032-12.218c3.6175-0.61557 7.2969-0.96139 10.997-0.99599v11.395c-2.573 0.05888-5.0871 0.52564-7.4525 1.3556-1.5562-3.7902-2.746-7.7223-3.5448-11.755m24.578-12.038c-0.0381 3.6278-0.37694 7.2175-0.98216 10.714-3.728-0.62597-7.4837-0.97524-11.267-1.0029v-9.7109zm-12.249-11.06c3.7661-0.03813 7.5392-0.38387 11.243-1.0237 0.62249 3.5275 0.96831 7.1172 1.0064 10.752h-12.249zm-13.567 11.06h12.235v9.7109c-3.7835 0.0345-7.5392 0.38732-11.243 1.0271-0.62939-3.5205-0.95449-7.1102-0.99251-10.738m51.833-1.3314h-11.81c-0.083-4.8796-0.97524-9.6313-2.5868-14.092 3.237-1.2 6.3876-2.6145 9.4378-4.2711 3.0606 5.4538 4.8554 11.72 4.9592 18.364m-34.206-40.501-0.91299 1.1654-0.74009 0.94411-0.19375 0.249-0.63979 0.81272c4.5304 2.2686 8.5523 5.2738 11.934 8.8739-1.6427 1.2312-3.4271 2.2652-5.3189 3.0295-1.7948-4.1258-4.0184-8.0924-6.678-11.831l-0.85419 1.1032c2.4761 3.5482 4.5823 7.2865 6.2768 11.177-2.1995 0.75737-4.5442 1.1689-6.9338 1.2381v-11.565l-1.3314 1.698v9.8424c-2.3136-0.06562-4.5891-0.47032-6.761-1.2173-0.0485-0.0078-3.154 4.0428-3.154 4.0428-0.98906 2.8357-1.7983 5.7339-2.3793 8.6664-1.2657-0.22488-2.5073-0.52219-3.7627-0.82654l-0.89914 1.1551c1.4559 0.3804 2.9465 0.70202 4.4127 0.97869-0.62942 3.6001-0.97869 7.2487-1.0167 10.963h-11.554l0.0623-1.5977-2.2859 2.9291h0.90261c0.09 4.9211 0.97524 9.666 2.5453 14.099-3.2266 1.1966-6.3702 2.6111-9.3893 4.2571-1.2104-2.1649-2.2375-4.4682-3.0225-6.8923l-0.91992 1.162-0.92681 1.1724c6.0278 16.206 21.348 26.982 38.812 26.982 22.866 0 41.471-18.602 41.471-41.458 0-21.134-15.967-38.794-36.745-41.155" fill="#f1471d"/>
 <path d="m515.33 79.018 9.7801 4.4923-4.6202-9.9218 12.637-3.1091v-1.494l-12.637-3.1436 4.8069-10.14-10.033 4.7102-3.1332-17.983h-1.7706l-3.0743 17.945-10.001-4.6721 4.7068 10.157-12.595 3.1262v1.4767l12.595 3.0398-4.5512 10.036 9.818-4.4578 3.071 17.952 1.7326-0.01297z" fill="#fff"/>
 <path d="m511.29 43.432 3.2751 18.36 8.7945-4.1603-4.1603 8.7945 13.183 3.2888-13.183 3.2855 4.0013 8.6249-8.6353-3.9391-3.3373 18.191-3.2473-18.191-8.6423 3.9495 3.9736-8.6353-13.159-3.2855 13.159-3.2888-4.1051-8.7945 8.7738 4.1326z" fill="#00a650"/>
</svg>
