<svg version="1.1" id="Layer_1" xmlns="http://www.w3.org/2000/svg" xmlns:xlink="http://www.w3.org/1999/xlink" x="0px" y="0px"
	 width="100%" viewBox="0 0 1316 815" enable-background="new 0 0 1316 815" xml:space="preserve">
<path fill="#FFFFFF" opacity="1.000000" stroke="none" 
	d="
M982.000000,816.000000 
	C654.704956,816.000000 327.909882,816.000000 1.057420,816.000000 
	C1.057420,544.403442 1.057420,272.806854 1.057420,1.105147 
	C439.545197,1.105147 878.090393,1.105147 1316.817871,1.105147 
	C1316.817871,272.666565 1316.817871,544.333252 1316.817871,816.000000 
	C1205.473267,816.000000 1093.986694,816.000000 982.000000,816.000000 
M803.657593,727.804382 
	C807.983887,724.716797 812.402832,721.748535 816.597595,718.491516 
	C818.701111,716.858154 820.154846,716.917480 822.230042,718.572021 
	C826.421631,721.913940 830.866943,724.937744 835.207642,728.092712 
	C835.564819,727.828369 835.921936,727.564026 836.279114,727.299744 
	C834.600464,722.335754 833.066833,717.316040 831.187012,712.429443 
	C830.111328,709.633057 830.657288,707.995850 833.185669,706.341980 
	C837.737549,703.364807 842.044373,700.013062 847.596130,695.989685 
	C840.777893,695.989685 835.609741,695.759033 830.474304,696.069214 
	C826.941895,696.282593 825.501404,694.906555 824.609497,691.634338 
	C823.224854,686.554199 821.313965,681.617493 819.212891,675.396484 
	C817.482971,680.872253 815.860474,684.892578 814.981079,689.069336 
	C813.845825,694.461121 811.382935,696.966003 805.500549,696.108765 
	C801.339600,695.502380 797.018982,695.991333 792.769653,695.991333 
	C795.941956,699.594727 799.361755,702.389160 803.116150,704.620667 
	C807.546936,707.254211 808.828186,710.174683 806.561951,715.171997 
	C804.750977,719.165588 804.143860,723.705200 802.645752,728.023315 
	C802.763733,728.015259 802.881775,728.007263 803.657593,727.804382 
M1025.993652,384.699890 
	C1026.621582,381.498138 1027.249512,378.296356 1027.886841,375.046570 
	C1025.071289,375.046570 1022.642639,375.046570 1020.033264,375.046570 
	C1015.869202,395.570129 1011.743347,415.905823 1007.617432,436.241486 
	C1006.090332,434.718781 1005.510437,433.222565 1005.005493,431.701477 
	C999.044006,413.742401 992.963013,395.821014 987.251343,377.782715 
	C986.114197,374.191498 983.878235,374.931244 981.499207,374.785492 
	C979.143372,374.641144 977.557312,374.888702 976.839050,377.825317 
	C975.144470,384.753143 972.950806,391.558929 970.957275,398.413544 
	C967.235718,411.210358 963.513000,424.006866 959.790771,436.803497 
	C959.510620,436.790649 959.230469,436.777771 958.950317,436.764923 
	C953.940186,416.158539 948.930115,395.552124 944.003723,375.290039 
	C936.530151,375.290039 929.518738,375.290039 922.507324,375.290039 
	C922.393066,375.724792 922.278870,376.159546 922.164612,376.594299 
	C923.410339,377.171509 924.607361,378.073425 925.910400,378.269165 
	C931.274048,379.074768 933.944641,382.304565 935.019165,387.399811 
	C936.218811,393.087982 937.655823,398.725983 938.978577,404.388336 
	C942.822021,420.840271 946.660034,437.293427 950.516296,453.815063 
	C954.502197,453.815063 958.112122,453.815063 961.732544,453.815063 
	C967.622864,433.467102 973.461426,413.297882 979.696411,391.759277 
	C986.757324,413.310455 993.401917,433.591064 999.973022,453.647308 
	C1004.051758,453.647308 1007.804016,453.647308 1011.471008,453.647308 
	C1016.324768,430.699829 1021.101379,408.117004 1025.993652,384.699890 
M387.839172,453.849731 
	C399.643158,453.569855 411.497406,453.867767 423.237000,452.847260 
	C434.929810,451.830780 441.967316,444.959869 442.771179,434.973663 
	C443.578064,424.950348 439.905548,415.789337 428.017914,412.635376 
	C427.584198,412.520325 427.241852,412.060974 426.626099,411.582825 
	C427.579895,411.012787 428.383636,410.530212 429.189484,410.051208 
	C436.533081,405.686005 439.913757,399.094391 438.787476,391.335388 
	C437.619354,383.288086 432.601898,377.065887 423.784546,376.287384 
	C407.990662,374.892975 392.076813,374.856964 376.213135,374.253174 
	C376.033142,374.956451 375.853180,375.659729 375.673187,376.362976 
	C376.774567,376.949402 377.813049,377.795593 378.987549,378.079865 
	C386.387421,379.870850 386.979858,380.346100 387.030121,388.163879 
	C387.169403,409.823029 387.157288,431.483185 387.839172,453.849731 
M106.386604,413.058777 
	C114.631081,409.049652 116.820557,402.015594 116.156654,393.541443 
	C115.542328,385.700104 111.307564,380.272156 104.066353,378.040527 
	C98.278236,376.256744 92.078064,375.303986 86.013939,375.033844 
	C75.452538,374.563263 64.855042,374.902893 54.272678,374.902893 
	C54.127041,375.460175 53.981400,376.017456 53.835762,376.574738 
	C55.158119,377.140961 56.432606,377.902863 57.810989,378.240021 
	C64.360130,379.842010 65.105721,380.674469 65.111206,387.353271 
	C65.128029,407.849762 65.118256,428.346283 65.118805,448.842773 
	C65.118851,450.451965 65.118813,452.061157 65.118813,453.661011 
	C69.874062,453.661011 74.083885,453.661011 78.709877,453.661011 
	C78.709877,441.549744 78.709877,429.788727 78.709877,418.168243 
	C83.460838,416.533142 86.092163,417.979279 88.206017,422.126312 
	C91.973175,429.516937 96.293983,436.626617 100.421089,443.832123 
	C106.604317,454.627441 106.618240,454.620056 119.147614,453.926544 
	C119.269447,453.919830 119.384407,453.789185 119.844887,453.505524 
	C112.876251,440.985168 105.895943,428.443817 98.813171,415.718414 
	C101.384338,414.812531 103.518372,414.060638 106.386604,413.058777 
M879.549805,418.263794 
	C885.708496,429.087738 891.830383,439.933044 898.074280,450.707611 
	C898.824585,452.002319 900.151306,453.725098 901.358154,453.852295 
	C905.199707,454.257324 909.110779,454.002350 913.735657,454.002350 
	C906.328857,440.661987 899.394104,428.171875 892.345276,415.476257 
	C900.392517,413.601654 906.736816,410.722321 909.052795,402.751953 
	C912.970642,389.268829 906.124390,377.910675 891.408203,376.219421 
	C877.149658,374.580719 862.670227,374.863281 848.287842,374.302032 
	C848.089661,374.876892 847.891541,375.451752 847.693359,376.026642 
	C848.580688,376.707642 849.371948,377.743958 850.370361,378.013794 
	C858.753540,380.279358 858.983948,380.496246 858.988953,389.191284 
	C859.000366,409.180573 858.992737,429.169830 858.992859,449.159119 
	C858.992920,450.740784 858.992859,452.322449 858.992859,453.640808 
	C863.778564,453.640808 867.848511,453.640808 872.154663,453.640808 
	C872.154663,441.473297 872.154663,429.673248 872.154663,417.827606 
	C874.537476,417.827606 876.669495,417.827606 879.549805,418.263794 
M192.891327,439.200348 
	C192.026398,438.255096 191.161469,437.309814 189.532974,435.530060 
	C188.548019,442.150238 187.796967,447.369507 181.552872,447.836792 
	C175.422791,448.295532 169.220871,448.173065 163.079178,447.814423 
	C161.661163,447.731659 159.225449,445.686218 159.184769,444.479004 
	C158.862015,434.905853 159.005081,425.317017 159.005081,415.785858 
	C160.128067,415.681458 160.624557,415.597687 161.121445,415.595245 
	C164.287613,415.579773 167.453949,415.568665 170.620102,415.581482 
	C178.474289,415.613251 179.285645,416.246277 182.076462,423.655914 
	C182.377579,424.455353 183.604095,424.906250 184.401367,425.518799 
	C184.900070,424.794281 185.821609,424.075806 185.832123,423.344269 
	C185.939056,415.910553 185.897446,408.474670 185.897446,401.039368 
	C185.392532,400.768829 184.887634,400.498291 184.382721,400.227753 
	C183.464355,401.271454 182.109085,402.170776 181.707764,403.385345 
	C180.388657,407.377441 177.689575,409.509216 173.657242,409.687866 
	C168.877563,409.899628 164.081329,409.737640 158.907486,409.737640 
	C158.907486,401.225250 158.719147,393.071442 159.087418,384.942902 
	C159.150970,383.539795 161.465088,381.247314 162.932007,381.083008 
	C167.528641,380.568146 172.232758,380.627167 176.866516,380.919495 
	C183.924454,381.364716 185.585693,383.061127 187.377457,389.885437 
	C187.673340,391.012390 188.960922,391.878937 189.790192,392.865845 
	C190.103683,392.559875 190.417160,392.253906 190.730652,391.947968 
	C190.730652,386.350677 190.730652,380.753387 190.730652,375.115662 
	C171.863388,375.115662 153.292099,375.115662 134.720810,375.115662 
	C135.131012,376.826141 135.983215,377.784393 137.018707,378.064056 
	C145.128113,380.254150 145.403824,380.518982 145.410400,388.860870 
	C145.426025,408.691742 145.414368,428.522614 145.413757,448.353485 
	C145.413696,450.142212 145.413757,451.930939 145.413757,453.736603 
	C161.383835,453.736603 176.794266,453.736603 192.889862,453.736603 
	C192.889862,448.989716 192.889862,444.525116 192.891327,439.200348 
M353.567230,432.053894 
	C353.567230,413.114655 353.567230,394.175415 353.567230,375.029968 
	C350.755493,375.029968 347.987213,375.029968 344.983917,375.029968 
	C344.983917,376.908234 344.983978,378.564880 344.983887,380.221527 
	C344.983124,397.037201 345.085693,413.853821 344.932190,430.668091 
	C344.868073,437.689362 343.621277,444.495697 336.226166,447.789185 
	C323.580933,453.420807 312.468964,446.928802 311.125641,433.237244 
	C310.882507,430.759064 310.904083,428.249359 310.901306,425.754120 
	C310.883636,409.937408 310.898956,394.120697 310.884949,378.303986 
	C310.883698,376.867645 310.752472,375.431396 310.659149,373.540375 
	C303.371490,374.354553 296.451355,375.066589 289.553925,375.955078 
	C288.324982,376.113403 287.190308,377.003754 286.012115,377.556091 
	C287.111633,378.255920 288.128052,379.328674 289.324097,379.595123 
	C297.177521,381.344421 297.362854,381.569550 297.435272,389.842804 
	C297.563416,404.484802 297.474487,419.136932 298.023041,433.764343 
	C298.439545,444.870453 304.829590,451.987000 315.746399,454.107788 
	C320.099335,454.953461 324.665100,455.140137 329.111938,454.987000 
	C344.511841,454.456848 351.468048,448.026581 353.567230,432.053894 
M1087.435791,390.888306 
	C1085.524414,385.607208 1083.613037,380.326111 1081.742676,375.158508 
	C1074.080444,375.158508 1066.690063,375.158508 1059.299805,375.158508 
	C1059.149048,375.535400 1058.998413,375.912323 1058.847778,376.289215 
	C1059.846191,376.873291 1060.777466,377.735901 1061.854126,377.995941 
	C1068.415405,379.580597 1069.217773,380.789734 1067.036133,387.357513 
	C1064.948120,393.643860 1062.624512,399.852661 1060.365601,406.081421 
	C1054.616455,421.933441 1048.845581,437.777588 1042.994507,453.869690 
	C1045.725708,453.869690 1048.030151,453.869690 1050.637207,453.869690 
	C1053.155029,446.846802 1055.493042,439.784515 1058.303467,432.915558 
	C1058.907837,431.438538 1061.180664,429.777435 1062.750610,429.709137 
	C1070.399780,429.376282 1078.077026,429.400085 1085.729614,429.688812 
	C1087.193726,429.744049 1089.324219,431.249786 1089.893921,432.610870 
	C1092.451416,438.721588 1094.476929,445.052826 1096.897339,451.224854 
	C1097.336426,452.344086 1098.655151,453.779694 1099.686890,453.883453 
	C1103.048340,454.221344 1106.465088,454.010010 1110.322754,454.010010 
	C1102.629517,432.731049 1095.194458,412.165802 1087.435791,390.888306 
M235.005081,427.544617 
	C235.005081,424.775879 235.005081,422.007111 235.005081,418.877777 
	C239.383331,418.877777 243.207993,419.131073 246.987534,418.825653 
	C255.148575,418.166077 263.485168,417.554840 268.338318,409.418579 
	C277.540588,393.991089 267.923737,375.719757 250.021957,375.063049 
	C237.553680,374.605652 225.058350,374.879242 212.575043,374.860138 
	C212.013016,374.859283 211.450470,375.193359 209.543640,375.797211 
	C211.409454,376.959869 212.223022,377.760864 213.182571,378.018829 
	C221.798447,380.334991 221.984131,380.520172 221.989059,389.515198 
	C221.999252,408.159882 221.993027,426.804596 221.993500,445.449280 
	C221.993576,448.220459 221.993515,450.991638 221.993515,453.718323 
	C226.626038,453.718323 230.692764,453.718323 235.004974,453.718323 
	C235.004974,445.133911 235.004974,436.834778 235.005081,427.544617 
M765.754639,430.172272 
	C767.479065,434.838776 769.231873,439.494995 770.922119,444.173859 
	C774.819641,454.963135 774.807251,454.967621 786.952820,453.625610 
	C777.658386,428.025024 768.401794,402.488342 759.064087,376.981323 
	C758.744446,376.108154 757.623901,374.931519 756.852844,374.913452 
	C749.953735,374.752136 743.049316,374.819397 736.146423,374.819397 
	C735.990356,375.347656 735.834351,375.875946 735.678284,376.404205 
	C736.792847,376.963715 737.850830,377.770996 739.031616,378.040924 
	C744.924622,379.388336 745.909546,380.917847 743.997253,386.764404 
	C742.298706,391.957672 740.443909,397.101593 738.574036,402.236725 
	C732.344910,419.343933 726.077942,436.437378 719.817078,453.559143 
	C725.102234,455.073975 728.113403,453.802612 729.481140,448.325775 
	C730.799133,443.047852 732.881653,437.918945 735.096436,432.932495 
	C735.756409,431.446503 737.966431,429.753357 739.513794,429.705994 
	C747.994263,429.446259 756.489502,429.668762 765.754639,430.172272 
M1222.818359,401.766510 
	C1216.081421,396.446716 1214.228271,391.430664 1216.812134,385.509949 
	C1219.057007,380.366119 1223.352417,378.507446 1231.707642,379.895111 
	C1237.128296,380.795410 1242.416382,382.493042 1247.770996,383.835205 
	C1247.770996,381.093109 1247.770996,378.488464 1247.770996,374.559235 
	C1238.679443,374.410370 1229.726440,373.521912 1220.930420,374.333923 
	C1212.579712,375.104858 1205.775757,379.504333 1203.267700,388.292633 
	C1200.787354,396.983398 1203.819824,405.255066 1211.749023,411.094147 
	C1215.335815,413.735474 1219.426147,415.686066 1223.241699,418.025665 
	C1227.476562,420.622467 1231.917358,422.976807 1235.798706,426.033356 
	C1240.780151,429.956085 1241.809692,435.498047 1239.780396,441.338257 
	C1237.931885,446.658661 1233.626343,449.224426 1228.178833,449.063812 
	C1223.762695,448.933685 1219.281982,448.288116 1214.997925,447.206055 
	C1211.282837,446.267700 1207.803467,444.395996 1203.809204,442.769562 
	C1203.809204,445.291748 1203.451172,447.356079 1203.926392,449.206421 
	C1204.283569,450.596924 1205.598755,452.672028 1206.678955,452.797729 
	C1214.729980,453.734802 1222.872437,455.123627 1230.902710,454.717987 
	C1243.466553,454.083344 1251.159668,447.439178 1253.328979,437.121552 
	C1255.319214,427.655853 1252.320557,419.851074 1244.442505,414.492432 
	C1237.743408,409.935669 1230.480469,406.207520 1222.818359,401.766510 
M630.254700,449.119476 
	C618.989746,450.190155 611.054138,445.768280 607.208191,435.180115 
	C605.254028,429.800446 604.297485,423.923584 603.768799,418.190460 
	C602.818726,407.888336 602.976379,397.551605 607.947083,388.042847 
	C611.792236,380.687347 619.594727,377.011108 626.740723,380.361847 
	C630.761902,382.247314 633.564880,386.730804 637.671814,390.790375 
	C640.585449,390.790375 645.137207,390.790375 649.752075,390.790375 
	C648.175537,381.860687 642.758789,377.022308 634.700989,375.002289 
	C631.183472,374.120483 627.501465,373.655792 623.872559,373.498077 
	C606.349365,372.736725 595.410706,381.008698 591.659363,398.106689 
	C589.128845,409.640472 589.452026,421.263092 592.423889,432.690613 
	C595.050598,442.790588 600.802551,450.559265 611.212891,453.495117 
	C623.629456,456.996826 635.809509,455.078278 647.712524,450.868317 
	C647.712524,448.238159 647.712524,445.971771 647.712524,444.247162 
	C642.171021,445.859711 636.663635,447.462311 630.254700,449.119476 
M1139.018066,406.565216 
	C1143.114746,412.698853 1146.271729,418.867950 1145.592285,426.841400 
	C1144.834351,435.734222 1145.418579,444.741425 1145.418579,453.744629 
	C1150.034790,453.744629 1154.113281,453.744629 1158.575317,453.744629 
	C1158.575317,443.004211 1158.379639,432.530060 1158.694092,422.071228 
	C1158.788574,418.929260 1159.710938,415.490662 1161.269287,412.769318 
	C1168.431396,400.261688 1175.953003,387.959900 1183.528442,375.278137 
	C1178.728394,374.148773 1175.363037,374.451447 1173.002808,379.246002 
	C1170.151245,385.038757 1166.504150,390.439850 1163.203247,396.011627 
	C1160.741211,400.167358 1158.282471,404.324982 1155.485107,409.051239 
	C1149.186035,398.143677 1143.417114,388.063080 1137.521118,378.057526 
	C1136.763794,376.772522 1135.384277,374.996979 1134.227295,374.946075 
	C1127.491577,374.649933 1120.736206,374.801117 1113.987549,374.801117 
	C1113.818359,375.267487 1113.649170,375.733826 1113.479980,376.200195 
	C1114.431152,376.829163 1115.317627,377.851471 1116.344360,378.020111 
	C1121.204712,378.818481 1124.324585,381.675690 1126.706421,385.791046 
	C1130.616089,392.546295 1134.699707,399.200836 1139.018066,406.565216 
M471.823517,428.499969 
	C471.823517,436.913879 471.823517,445.327759 471.823517,453.759430 
	C488.000793,453.759430 503.566650,453.759430 519.518616,453.759430 
	C519.518616,448.080261 519.518616,442.644745 519.518616,435.478210 
	C517.865417,437.328186 516.460449,438.185852 516.202271,439.307465 
	C514.736633,445.675720 512.573975,447.725220 506.042328,447.967468 
	C501.387939,448.140076 496.723785,448.153534 492.065674,448.097473 
	C485.235229,448.015289 485.011688,447.750824 485.009583,441.064117 
	C485.002991,420.258972 485.007294,399.453796 485.007355,378.648651 
	C485.007355,377.043762 485.007324,375.438904 485.007324,373.500916 
	C477.813446,374.321381 471.214325,375.002380 464.640717,375.875671 
	C463.056244,376.086182 461.556366,376.933624 460.017578,377.488159 
	C461.425079,378.255493 462.751221,379.403656 464.254028,379.724640 
	C470.983032,381.161865 471.795044,381.990662 471.814178,389.052063 
	C471.848969,401.867950 471.823730,414.683960 471.823517,428.499969 
M811.227173,382.643188 
	C811.519104,384.918549 812.056641,387.193115 812.064331,389.469421 
	C812.131165,409.293121 812.103027,429.117157 812.103088,448.941071 
	C812.103149,450.541656 812.103088,452.142212 812.103088,453.851776 
	C816.827271,453.851776 820.943604,453.851776 825.308350,453.851776 
	C825.308350,427.127502 825.308350,400.578583 825.308350,373.573456 
	C817.562805,374.397278 810.138489,375.150208 802.729004,376.028198 
	C801.933960,376.122375 801.225159,376.944489 800.476318,377.428925 
	C801.245300,378.079498 801.914368,378.989105 802.802185,379.331665 
	C805.391296,380.330597 808.067688,381.102997 811.227173,382.643188 
M548.827332,453.842682 
	C552.885620,453.842682 556.943970,453.842682 561.013916,453.842682 
	C561.013916,426.926178 561.013916,400.515015 561.013916,373.596252 
	C553.896790,374.379059 546.992737,375.075836 540.111633,375.952484 
	C538.862183,376.111694 537.706421,377.006805 536.507446,377.562164 
	C537.639099,378.263367 538.687012,379.316345 539.915955,379.608856 
	C548.019592,381.537689 548.104614,381.544495 548.120361,389.769470 
	C548.160828,410.890381 548.178650,432.011322 548.827332,453.842682 
M899.700928,135.170532 
	C895.555847,135.875153 893.297485,134.289963 892.274414,130.042313 
	C891.118774,125.244171 889.278198,120.610992 887.270142,114.486916 
	C885.460144,120.442749 883.907349,124.829636 882.822327,129.329330 
	C881.777710,133.661606 879.884521,135.855164 874.933960,135.282288 
	C870.196655,134.734100 865.346130,135.163986 860.545410,135.163986 
	C864.572449,139.513931 868.626038,142.689972 872.946960,145.447021 
	C875.880859,147.319046 876.455444,149.221024 875.166199,152.462753 
	C873.227783,157.336884 871.822876,162.423218 869.707642,168.899979 
	C875.084412,165.014206 879.436218,162.299759 883.255188,158.973557 
	C886.338318,156.288330 888.670593,156.702942 891.550476,159.005569 
	C895.370850,162.060120 899.393311,164.861862 903.328918,167.772247 
	C902.831482,162.355438 901.596497,157.561523 899.734558,153.024963 
	C898.237732,149.378021 899.145081,147.183838 902.266846,145.134003 
	C906.502747,142.352509 910.540649,139.269318 914.663452,136.315521 
	C914.565735,135.934021 914.468018,135.552505 914.370239,135.171005 
	C909.795593,135.171005 905.220947,135.171005 899.700928,135.170532 
M599.461792,63.965805 
	C601.160767,62.603909 602.859680,61.242008 605.440552,59.173161 
	C598.582458,59.173161 593.106140,59.064743 587.637207,59.218628 
	C584.878113,59.296265 583.405518,58.418606 582.640869,55.617176 
	C581.180237,50.265728 579.347473,45.015877 577.222412,38.315147 
	C575.146545,44.877556 573.356995,50.010345 571.930481,55.242096 
	C571.082764,58.350868 569.512329,59.416267 566.284851,59.250893 
	C560.821228,58.970932 555.332886,59.173996 548.387634,59.173996 
	C553.927002,63.135193 557.983459,66.327187 562.333557,69.050003 
	C565.526550,71.048569 566.546997,73.060333 565.026489,76.760643 
	C563.074829,81.510414 561.747498,86.516731 560.151184,91.412521 
	C564.629517,89.203903 568.363770,86.716660 571.736145,83.809555 
	C575.482422,80.580048 578.649658,80.145676 582.542053,83.769768 
	C585.789490,86.793381 589.715454,89.088303 593.340881,91.705956 
	C593.566162,88.687103 592.869629,86.506355 592.145447,84.334824 
	C587.990234,71.874886 587.988037,71.875626 599.461792,63.965805 
M948.002563,584.621704 
	C946.197327,579.126465 944.392029,573.631287 942.586792,568.136047 
	C939.841736,573.282166 938.203430,578.151184 936.881958,583.104736 
	C936.059265,586.188721 934.495544,587.313416 931.245544,587.144287 
	C925.774353,586.859680 920.277527,587.066284 913.371887,587.066284 
	C919.299988,591.322754 923.813904,594.720093 928.500671,597.859558 
	C930.668091,599.311462 931.196899,600.657776 930.238770,603.193420 
	C928.262451,608.423523 926.690186,613.806335 924.465393,620.614502 
	C931.121887,615.788452 936.544739,611.856812 942.077393,607.845581 
	C947.668884,611.868652 953.029968,615.725891 958.391052,619.583130 
	C957.996826,615.029114 956.682129,611.004517 955.339417,606.989197 
	C952.922546,599.761353 952.934448,599.790588 959.016968,595.519836 
	C962.558533,593.033203 966.027893,590.443909 970.675537,587.068787 
	C963.702576,587.068787 958.382385,587.194885 953.074585,586.993225 
	C951.447449,586.931458 949.854370,585.971802 948.002563,584.621704 
M391.158142,609.260437 
	C390.906281,608.469177 390.764282,607.620422 390.384918,606.895874 
	C387.752136,601.867554 388.849457,598.298401 393.970154,595.475586 
	C397.737366,593.398804 401.044098,590.486572 404.556061,587.946594 
	C398.772522,587.067932 393.468811,586.932373 388.176514,587.119263 
	C385.058746,587.229309 383.430725,586.438049 382.621674,583.048706 
	C381.375092,577.826233 379.347748,572.790100 377.237976,566.427429 
	C375.267151,572.502014 373.364532,577.267700 372.228241,582.209595 
	C371.285522,586.309448 369.250061,587.434387 365.267181,587.155334 
	C360.156464,586.797180 355.001709,587.068237 348.549133,587.068237 
	C354.421539,591.303955 358.935059,594.698547 363.603363,597.864929 
	C365.766968,599.332458 366.209412,600.736511 365.264130,603.242432 
	C363.290649,608.474121 361.719421,613.857544 359.510101,620.627380 
	C365.084198,616.639038 369.712433,613.787048 373.764404,610.270996 
	C376.593567,607.815979 378.463806,608.347717 381.006256,610.368225 
	C384.920868,613.479248 389.061096,616.306396 393.105591,619.253967 
	C393.450958,618.955994 393.796295,618.658081 394.141663,618.360168 
	C393.241028,615.574890 392.340424,612.789612 391.158142,609.260437 
M739.862915,531.712341 
	C740.867126,533.436584 742.086792,535.072815 742.833740,536.902039 
	C744.800415,541.717957 748.058411,543.328552 753.041992,541.440125 
	C753.041992,524.859680 753.041992,508.246277 753.041992,491.410706 
	C751.429749,491.410706 750.022644,491.410706 747.976318,491.410706 
	C747.976318,504.278748 747.976318,516.898193 747.976318,529.517578 
	C740.764832,518.741577 734.488220,507.818726 728.092957,496.965820 
	C726.875244,494.899261 725.408630,491.731384 723.676453,491.454987 
	C718.895569,490.692017 713.913269,491.191101 709.010620,491.191101 
	C708.607056,491.837799 708.203552,492.484528 707.799988,493.131226 
	C718.208801,493.261292 716.085571,500.104462 716.118591,505.680176 
	C716.189331,517.633545 716.140198,529.587646 716.140198,541.775757 
	C718.011658,541.775757 719.437073,541.775757 721.485596,541.775757 
	C721.485596,528.494751 721.485596,515.356995 721.485596,502.219238 
	C721.850891,502.133514 722.216125,502.047760 722.581421,501.962036 
	C728.211548,511.671844 733.841614,521.381653 739.862915,531.712341 
M483.116943,704.398499 
	C489.322174,708.638367 489.311432,708.634827 486.964569,715.768433 
	C485.611206,719.882263 484.299072,724.009705 482.525574,729.502258 
	C487.807007,725.619934 491.946045,722.835815 495.777405,719.678406 
	C498.792847,717.193481 501.150177,716.788818 504.332642,719.620667 
	C507.949646,722.839417 512.143921,725.409424 516.087280,728.261475 
	C516.461670,727.965271 516.836121,727.669128 517.210510,727.372986 
	C515.642761,722.893860 514.294922,718.321106 512.438843,713.964783 
	C510.905243,710.365234 511.059631,708.062744 514.844727,705.871216 
	C519.305603,703.288574 523.285706,699.875427 528.513794,696.064636 
	C521.743103,696.064636 516.435181,695.917847 511.140594,696.120178 
	C508.011505,696.239868 506.262390,695.366211 505.425507,692.098999 
	C504.090393,686.886658 502.272552,681.798035 500.658813,676.657104 
	C498.080261,681.614380 496.301636,686.564697 495.024384,691.641174 
	C494.128540,695.201538 492.346405,696.364990 488.730713,696.147522 
	C483.456482,695.830322 478.148956,696.066040 471.531067,696.066040 
	C476.063599,699.320679 479.300537,701.644958 483.116943,704.398499 
M666.725586,761.769287 
	C669.916626,764.080200 673.107727,766.391113 677.502686,769.573853 
	C675.591064,763.679016 674.468933,759.010803 672.565735,754.686401 
	C670.626282,750.279663 671.131958,747.506958 675.568542,745.034729 
	C679.690002,742.738159 683.327393,739.572998 688.283752,735.991150 
	C681.525208,735.991150 676.107361,735.778137 670.717041,736.071167 
	C667.492554,736.246460 665.933167,735.205872 665.096863,732.094543 
	C663.695312,726.879639 661.928528,721.762817 660.315491,716.604675 
	C657.779053,721.458557 656.135620,726.243713 654.863586,731.125671 
	C653.939148,734.673218 652.342651,736.389221 648.336853,736.086792 
	C643.172607,735.696899 637.956604,735.991882 631.312378,735.991882 
	C638.055054,740.904175 643.489929,744.863647 648.882446,748.792297 
	C646.785522,755.272766 644.818665,761.351074 642.801147,767.586243 
	C643.778625,767.639160 644.188965,767.794128 644.389893,767.652344 
	C647.372986,765.547607 650.267151,763.311646 653.302673,761.287170 
	C660.805542,756.283081 658.174622,755.344666 666.725586,761.769287 
M622.685181,491.188324 
	C622.930908,492.025726 623.133118,493.576385 623.428833,493.594360 
	C628.513916,493.904572 628.432983,497.500275 628.428955,501.119446 
	C628.416077,512.589539 628.422729,524.059692 628.421875,535.529785 
	C628.421753,537.610046 628.421814,539.690308 628.421814,542.012451 
	C633.991028,542.012451 638.802490,542.025391 643.613708,542.003967 
	C644.941528,541.998047 646.275696,541.954895 647.595520,541.818420 
	C658.001221,540.741882 664.225403,536.469177 665.670776,527.674927 
	C666.755310,521.076111 666.922424,514.074036 666.005920,507.458252 
	C664.648132,497.656250 659.191589,492.798035 649.355408,491.930359 
	C640.773499,491.173370 632.107361,491.371368 622.685181,491.188324 
M977.552368,258.014130 
	C976.522766,261.170807 975.257874,264.274719 974.534058,267.500061 
	C973.895996,270.343018 972.498352,271.159821 969.695984,271.053284 
	C964.156067,270.842682 958.602539,270.991119 951.664001,270.991119 
	C957.397522,275.114197 961.862793,278.507660 966.527771,281.600037 
	C968.738342,283.065460 969.206604,284.407104 968.266174,286.933716 
	C966.293152,292.234314 964.715332,297.682098 962.531006,304.444885 
	C967.917908,300.458832 972.181885,297.574738 976.119324,294.298248 
	C978.905701,291.979675 981.073792,291.889618 983.909485,294.227875 
	C987.800781,297.436462 992.030151,300.234985 996.114624,303.209229 
	C996.437805,302.958557 996.760986,302.707855 997.084229,302.457184 
	C995.096191,296.230988 993.108215,290.004761 991.081604,283.657593 
	C996.643066,279.592377 1002.019470,275.662384 1008.411865,270.989746 
	C1002.205017,270.989746 997.376404,270.681213 992.607056,271.080200 
	C988.209778,271.447998 985.940735,270.096039 984.932434,265.631134 
	C983.842957,260.806183 981.989807,256.153717 980.469727,251.426041 
	C980.156677,251.494797 979.843567,251.563553 979.530518,251.632309 
	C978.962830,253.514557 978.395142,255.396820 977.552368,258.014130 
M410.585602,140.917160 
	C412.761353,142.447983 414.819885,144.193619 417.140076,145.459747 
	C420.699677,147.402237 421.427063,149.767365 419.835602,153.554108 
	C417.940765,158.062698 416.666870,162.832214 415.123962,167.488693 
	C419.711731,165.431473 423.787231,163.127762 427.104187,160.015579 
	C430.835297,156.514801 433.686981,156.810074 437.305298,160.027222 
	C440.664276,163.013763 444.518280,165.443527 448.154327,168.118439 
	C448.469940,167.852371 448.785553,167.586288 449.101166,167.320221 
	C447.104340,161.093781 445.107513,154.867355 443.099457,148.605957 
	C448.669037,144.498383 453.952484,140.601822 460.223419,135.977005 
	C453.716278,135.977005 448.446350,135.710953 443.219086,136.068634 
	C439.611298,136.315491 438.184906,134.802658 437.323639,131.625092 
	C435.954102,126.572609 434.279846,121.602730 432.734528,116.597900 
	C430.071869,121.509094 428.301422,126.448669 427.021301,131.512192 
	C426.136780,135.011063 424.514038,136.329010 420.811493,136.057968 
	C415.793335,135.690613 410.728088,135.966568 404.265350,135.966568 
	C406.991119,138.083054 408.515076,139.266357 410.585602,140.917160 
M745.150513,49.353020 
	C744.191345,46.416069 743.232178,43.479115 741.805603,39.111042 
	C739.589417,45.861393 737.597595,51.073380 736.226562,56.443840 
	C735.474426,59.390083 734.095947,60.067928 731.349060,59.977989 
	C725.919800,59.800224 720.480652,59.925533 713.587158,59.925533 
	C718.956055,63.796268 723.059875,67.082527 727.493896,69.837196 
	C730.481445,71.693253 730.996948,73.516212 729.712341,76.713753 
	C727.793091,81.491287 726.381653,86.472816 724.754211,91.367577 
	C729.747620,89.128838 733.927185,86.666039 737.443787,83.473061 
	C740.833618,80.395164 743.234436,80.965988 746.396301,83.666840 
	C750.027283,86.768379 754.107178,89.344360 757.992065,92.148628 
	C757.170898,86.244308 755.725891,81.149124 753.808594,76.238297 
	C752.668701,73.318611 753.346008,71.680847 755.840027,70.033104 
	C760.194946,67.155930 764.363708,63.996918 768.610474,60.956009 
	C764.846008,59.913647 761.432800,59.912189 758.019653,59.913921 
	C748.037903,59.918976 748.037903,59.919476 745.150513,49.353020 
M343.663361,294.749420 
	C347.482208,297.509125 351.301056,300.268829 355.119904,303.028534 
	C354.337952,297.550110 352.946777,292.637543 351.060455,287.923096 
	C349.699158,284.520813 350.327881,282.525818 353.493927,280.574188 
	C357.740112,277.956757 361.634430,274.768433 365.679810,271.825195 
	C360.200775,270.915405 355.219330,270.679474 350.273163,270.995697 
	C346.789459,271.218384 345.155060,269.924500 344.251221,266.671417 
	C342.820862,261.523560 341.049866,256.470367 339.422974,251.377106 
	C336.884430,256.340668 335.189636,261.156403 333.903870,266.078949 
	C332.964813,269.674042 331.276917,271.301605 327.324127,271.001923 
	C322.470612,270.633911 317.567963,270.914154 312.686554,270.914154 
	C316.103760,274.685089 319.705841,277.542358 323.566803,279.991577 
	C327.132172,282.253326 328.479279,284.502563 326.423828,288.818054 
	C324.388580,293.091278 323.414734,297.870026 321.975311,302.427032 
	C327.011963,299.994446 331.258148,297.360260 334.985321,294.127655 
	C338.041962,291.476624 340.434357,291.462463 343.663361,294.749420 
M493.449158,502.515137 
	C493.449158,506.123138 493.449158,509.731110 493.449158,513.530273 
	C486.428741,513.530273 480.042175,513.530273 473.082764,513.530273 
	C473.082764,505.833740 473.082764,498.436432 473.082764,490.575012 
	C467.516449,491.208496 462.577271,491.770569 456.551758,492.456299 
	C464.845795,497.215179 464.844910,497.215179 464.844116,506.762939 
	C464.843140,518.362671 464.843872,529.962402 464.843872,541.635742 
	C467.892700,541.635742 470.426819,541.635742 473.376526,541.635742 
	C473.376526,533.507263 473.376526,525.742981 473.376526,517.922119 
	C480.200439,517.922119 486.594299,517.922119 493.451477,517.922119 
	C493.451477,526.035400 493.451477,533.792297 493.451477,541.749390 
	C496.484589,541.749390 499.045441,541.749390 501.638275,541.749390 
	C501.638275,524.798157 501.638275,508.105743 501.638275,491.416199 
	C498.838745,491.416199 496.408020,491.416199 493.449615,491.416199 
	C493.449615,494.953522 493.449615,498.244293 493.449158,502.515137 
M555.698486,495.804749 
	C544.922241,486.481445 527.252319,489.153412 522.652588,501.187195 
	C518.726562,511.458557 518.908752,522.109558 522.738342,532.451294 
	C525.365234,539.545288 531.337402,542.366394 538.442688,542.791382 
	C546.200439,543.255493 554.224976,542.532837 557.798523,534.521301 
	C563.480286,521.783264 563.675415,508.778717 555.698486,495.804749 
M807.844727,497.003296 
	C802.263733,489.537506 794.382080,489.907471 786.519043,491.112549 
	C779.444519,492.196747 774.871582,496.635925 772.978516,503.521057 
	C770.585449,512.224609 770.739929,521.016968 773.185303,529.667847 
	C774.924744,535.821411 778.865601,540.244263 785.222473,541.894409 
	C793.724426,544.101379 801.899414,542.495544 809.757690,539.707764 
	C809.757690,530.608582 809.757690,522.003723 809.757690,513.458740 
	C804.371460,513.458740 799.250305,513.458740 793.458008,513.458740 
	C801.420044,518.843201 801.419800,518.843201 801.423950,529.059509 
	C801.424683,530.892395 801.267517,532.743164 801.467896,534.554077 
	C801.779907,537.373840 800.303223,538.381042 797.852661,538.850281 
	C790.098450,540.334900 782.888306,536.591370 781.683044,528.528564 
	C780.452026,520.293152 780.829895,511.700409 781.494263,503.342896 
	C781.881775,498.468628 785.319092,494.759857 790.769714,494.361633 
	C796.051636,493.975739 799.083496,496.954926 800.261963,501.763855 
	C803.328308,501.763855 806.100586,501.763855 809.366333,501.763855 
	C808.902771,500.172150 808.545044,498.943970 807.844727,497.003296 
M828.147278,499.774170 
	C826.482361,507.365662 829.576599,512.707581 836.059631,516.410522 
	C839.378723,518.306396 842.822876,519.996033 846.060181,522.019409 
	C851.476807,525.404907 853.194336,529.529541 851.351318,534.045105 
	C849.667236,538.171326 845.395142,540.027344 839.461487,538.684998 
	C835.784546,537.853149 832.256653,536.362427 828.390442,535.077271 
	C828.390442,536.991638 828.390442,538.744690 828.390442,540.698181 
	C835.527893,543.054932 842.722168,543.781250 849.972351,541.811035 
	C855.284546,540.367493 859.108398,537.168152 860.215942,531.398071 
	C861.360840,525.433655 859.706238,520.490784 854.793884,516.879333 
	C852.529297,515.214417 849.971375,513.950134 847.556335,512.487732 
	C844.860107,510.855072 842.026245,509.400940 839.522949,507.510681 
	C836.421936,505.169098 835.315857,501.918579 836.972961,498.214264 
	C838.608337,494.558472 841.832336,493.916382 845.356262,494.547821 
	C849.049072,495.209534 852.693542,496.140930 856.368103,496.956421 
	C857.820679,492.968292 856.342468,491.138733 852.414917,491.087738 
	C847.943115,491.029663 843.426208,490.636780 839.009949,491.123993 
	C834.153687,491.659698 830.238770,494.151489 828.147278,499.774170 
M588.916626,535.177429 
	C588.916626,520.436890 588.916626,505.696381 588.916626,490.499207 
	C583.117371,491.131561 578.016235,491.687805 572.767212,492.260162 
	C573.082031,493.324646 573.078857,493.540131 573.178711,493.611633 
	C573.561584,493.885651 573.968628,494.310211 574.382324,494.328644 
	C579.502563,494.556763 580.364319,497.573334 580.223083,502.077148 
	C579.931274,511.382385 580.135864,520.703186 580.136169,530.017578 
	C580.136292,533.937927 580.136169,537.858337 580.136169,541.786621 
	C590.792053,541.786621 600.716858,541.786621 610.568176,541.786621 
	C610.568176,538.016174 610.568176,534.505615 610.568176,529.855835 
	C605.925049,538.138062 605.925049,538.138794 596.486694,538.134216 
	C594.989807,538.133545 593.433350,538.373291 592.015259,538.036011 
	C590.928894,537.777649 590.017212,536.784912 588.916626,535.177429 
M694.864197,533.437500 
	C694.864197,519.328796 694.864197,505.220062 694.864197,490.500366 
	C689.192261,491.113831 684.039612,491.671082 678.887024,492.228363 
	C678.545593,492.886200 678.204163,493.544006 677.862732,494.201813 
	C687.356140,493.655792 686.194092,499.621490 686.151123,504.983124 
	C686.092468,512.308716 686.136108,519.635132 686.135925,526.961182 
	C686.135803,531.897522 686.135864,536.833862 686.135864,541.676453 
	C689.403320,541.676453 691.972351,541.676453 694.864136,541.676453 
	C694.864136,539.024048 694.864136,536.718628 694.864197,533.437500 
z"/>
<path fill="#062D5B" opacity="1.000000" stroke="none" 
	d="
M1025.935791,385.117035 
	C1021.101379,408.117004 1016.324768,430.699829 1011.471008,453.647308 
	C1007.804016,453.647308 1004.051758,453.647308 999.973022,453.647308 
	C993.401917,433.591064 986.757324,413.310455 979.696411,391.759277 
	C973.461426,413.297882 967.622864,433.467102 961.732544,453.815063 
	C958.112122,453.815063 954.502197,453.815063 950.516296,453.815063 
	C946.660034,437.293427 942.822021,420.840271 938.978577,404.388336 
	C937.655823,398.725983 936.218811,393.087982 935.019165,387.399811 
	C933.944641,382.304565 931.274048,379.074768 925.910400,378.269165 
	C924.607361,378.073425 923.410339,377.171509 922.164612,376.594299 
	C922.278870,376.159546 922.393066,375.724792 922.507324,375.290039 
	C929.518738,375.290039 936.530151,375.290039 944.003723,375.290039 
	C948.930115,395.552124 953.940186,416.158539 958.950317,436.764923 
	C959.230469,436.777771 959.510620,436.790649 959.790771,436.803497 
	C963.513000,424.006866 967.235718,411.210358 970.957275,398.413544 
	C972.950806,391.558929 975.144470,384.753143 976.839050,377.825317 
	C977.557312,374.888702 979.143372,374.641144 981.499207,374.785492 
	C983.878235,374.931244 986.114197,374.191498 987.251343,377.782715 
	C992.963013,395.821014 999.044006,413.742401 1005.005493,431.701477 
	C1005.510437,433.222565 1006.090332,434.718781 1007.617432,436.241486 
	C1011.743347,415.905823 1015.869202,395.570129 1020.033264,375.046570 
	C1022.642639,375.046570 1025.071289,375.046570 1027.886841,375.046570 
	C1027.249512,378.296356 1026.621582,381.498138 1025.935791,385.117035 
z"/>
<path fill="#062D5B" opacity="1.000000" stroke="none" 
	d="
M387.522095,453.496338 
	C387.157288,431.483185 387.169403,409.823029 387.030121,388.163879 
	C386.979858,380.346100 386.387421,379.870850 378.987549,378.079865 
	C377.813049,377.795593 376.774567,376.949402 375.673187,376.362976 
	C375.853180,375.659729 376.033142,374.956451 376.213135,374.253174 
	C392.076813,374.856964 407.990662,374.892975 423.784546,376.287384 
	C432.601898,377.065887 437.619354,383.288086 438.787476,391.335388 
	C439.913757,399.094391 436.533081,405.686005 429.189484,410.051208 
	C428.383636,410.530212 427.579895,411.012787 426.626099,411.582825 
	C427.241852,412.060974 427.584198,412.520325 428.017914,412.635376 
	C439.905548,415.789337 443.578064,424.950348 442.771179,434.973663 
	C441.967316,444.959869 434.929810,451.830780 423.237000,452.847260 
	C411.497406,453.867767 399.643158,453.569855 387.522095,453.496338 
M426.589294,421.057495 
	C419.236450,413.014496 409.676208,415.359741 400.173950,415.065338 
	C400.173950,423.457703 400.171448,431.391693 400.174652,439.325684 
	C400.177704,446.904236 401.042786,447.788208 408.709045,448.031281 
	C409.868652,448.068054 411.031189,448.089905 412.190308,448.053436 
	C427.308472,447.577942 434.269257,435.201721 426.589294,421.057495 
M410.247101,409.119415 
	C418.705353,408.475952 423.499756,405.475311 424.931824,399.610657 
	C426.325226,393.904205 426.466339,388.162964 421.467804,384.045013 
	C415.985687,379.528625 409.342621,380.322662 402.934265,381.374908 
	C401.929321,381.539917 400.527985,383.526947 400.496674,384.703064 
	C400.282135,392.761414 400.384094,400.828186 400.384094,409.126434 
	C403.688354,409.126434 406.505402,409.126434 410.247101,409.119415 
z"/>
<path fill="#072E5C" opacity="1.000000" stroke="none" 
	d="
M106.019501,413.183777 
	C103.518372,414.060638 101.384338,414.812531 98.813171,415.718414 
	C105.895943,428.443817 112.876251,440.985168 119.844887,453.505524 
	C119.384407,453.789185 119.269447,453.919830 119.147614,453.926544 
	C106.618240,454.620056 106.604317,454.627441 100.421089,443.832123 
	C96.293983,436.626617 91.973175,429.516937 88.206017,422.126312 
	C86.092163,417.979279 83.460838,416.533142 78.709877,418.168243 
	C78.709877,429.788727 78.709877,441.549744 78.709877,453.661011 
	C74.083885,453.661011 69.874062,453.661011 65.118813,453.661011 
	C65.118813,452.061157 65.118851,450.451965 65.118805,448.842773 
	C65.118256,428.346283 65.128029,407.849762 65.111206,387.353271 
	C65.105721,380.674469 64.360130,379.842010 57.810989,378.240021 
	C56.432606,377.902863 55.158119,377.140961 53.835762,376.574738 
	C53.981400,376.017456 54.127041,375.460175 54.272678,374.902893 
	C64.855042,374.902893 75.452538,374.563263 86.013939,375.033844 
	C92.078064,375.303986 98.278236,376.256744 104.066353,378.040527 
	C111.307564,380.272156 115.542328,385.700104 116.156654,393.541443 
	C116.820557,402.015594 114.631081,409.049652 106.019501,413.183777 
M78.582901,386.814026 
	C78.582901,395.036194 78.582901,403.258392 78.582901,412.209137 
	C83.750839,411.710724 88.231407,411.668396 92.534096,410.772125 
	C98.960098,409.433563 102.647873,404.593323 103.019890,398.035187 
	C103.721359,385.669281 96.866112,379.529205 84.109985,380.785126 
	C80.685951,381.122253 78.897530,382.474731 78.582901,386.814026 
z"/>
<path fill="#042A59" opacity="1.000000" stroke="none" 
	d="
M879.175659,418.045715 
	C876.669495,417.827606 874.537476,417.827606 872.154663,417.827606 
	C872.154663,429.673248 872.154663,441.473297 872.154663,453.640808 
	C867.848511,453.640808 863.778564,453.640808 858.992859,453.640808 
	C858.992859,452.322449 858.992920,450.740784 858.992859,449.159119 
	C858.992737,429.169830 859.000366,409.180573 858.988953,389.191284 
	C858.983948,380.496246 858.753540,380.279358 850.370361,378.013794 
	C849.371948,377.743958 848.580688,376.707642 847.693359,376.026642 
	C847.891541,375.451752 848.089661,374.876892 848.287842,374.302032 
	C862.670227,374.863281 877.149658,374.580719 891.408203,376.219421 
	C906.124390,377.910675 912.970642,389.268829 909.052795,402.751953 
	C906.736816,410.722321 900.392517,413.601654 892.345276,415.476257 
	C899.394104,428.171875 906.328857,440.661987 913.735657,454.002350 
	C909.110779,454.002350 905.199707,454.257324 901.358154,453.852295 
	C900.151306,453.725098 898.824585,452.002319 898.074280,450.707611 
	C891.830383,439.933044 885.708496,429.087738 879.175659,418.045715 
M874.670593,411.830414 
	C878.295959,411.548187 881.985474,411.595947 885.531433,410.905609 
	C890.707031,409.897980 894.530762,407.040588 896.078003,401.624084 
	C899.742981,388.793793 892.079590,379.767273 878.499817,380.695892 
	C874.157715,380.992798 872.161682,382.800751 872.155090,387.085693 
	C872.143921,394.380707 871.992004,401.676331 872.079956,408.969513 
	C872.091492,409.926025 873.168030,410.869720 874.670593,411.830414 
z"/>
<path fill="#0B325F" opacity="1.000000" stroke="none" 
	d="
M192.890594,439.630432 
	C192.889862,444.525116 192.889862,448.989716 192.889862,453.736603 
	C176.794266,453.736603 161.383835,453.736603 145.413757,453.736603 
	C145.413757,451.930939 145.413696,450.142212 145.413757,448.353485 
	C145.414368,428.522614 145.426025,408.691742 145.410400,388.860870 
	C145.403824,380.518982 145.128113,380.254150 137.018707,378.064056 
	C135.983215,377.784393 135.131012,376.826141 134.720810,375.115662 
	C153.292099,375.115662 171.863388,375.115662 190.730652,375.115662 
	C190.730652,380.753387 190.730652,386.350677 190.730652,391.947968 
	C190.417160,392.253906 190.103683,392.559875 189.790192,392.865845 
	C188.960922,391.878937 187.673340,391.012390 187.377457,389.885437 
	C185.585693,383.061127 183.924454,381.364716 176.866516,380.919495 
	C172.232758,380.627167 167.528641,380.568146 162.932007,381.083008 
	C161.465088,381.247314 159.150970,383.539795 159.087418,384.942902 
	C158.719147,393.071442 158.907486,401.225250 158.907486,409.737640 
	C164.081329,409.737640 168.877563,409.899628 173.657242,409.687866 
	C177.689575,409.509216 180.388657,407.377441 181.707764,403.385345 
	C182.109085,402.170776 183.464355,401.271454 184.382721,400.227753 
	C184.887634,400.498291 185.392532,400.768829 185.897446,401.039368 
	C185.897446,408.474670 185.939056,415.910553 185.832123,423.344269 
	C185.821609,424.075806 184.900070,424.794281 184.401367,425.518799 
	C183.604095,424.906250 182.377579,424.455353 182.076462,423.655914 
	C179.285645,416.246277 178.474289,415.613251 170.620102,415.581482 
	C167.453949,415.568665 164.287613,415.579773 161.121445,415.595245 
	C160.624557,415.597687 160.128067,415.681458 159.005081,415.785858 
	C159.005081,425.317017 158.862015,434.905853 159.184769,444.479004 
	C159.225449,445.686218 161.661163,447.731659 163.079178,447.814423 
	C169.220871,448.173065 175.422791,448.295532 181.552872,447.836792 
	C187.796967,447.369507 188.548019,442.150238 189.532974,435.530060 
	C191.161469,437.309814 192.026398,438.255096 192.890594,439.630432 
z"/>
<path fill="#082F5D" opacity="1.000000" stroke="none" 
	d="
M353.505432,432.502075 
	C351.468048,448.026581 344.511841,454.456848 329.111938,454.987000 
	C324.665100,455.140137 320.099335,454.953461 315.746399,454.107788 
	C304.829590,451.987000 298.439545,444.870453 298.023041,433.764343 
	C297.474487,419.136932 297.563416,404.484802 297.435272,389.842804 
	C297.362854,381.569550 297.177521,381.344421 289.324097,379.595123 
	C288.128052,379.328674 287.111633,378.255920 286.012115,377.556091 
	C287.190308,377.003754 288.324982,376.113403 289.553925,375.955078 
	C296.451355,375.066589 303.371490,374.354553 310.659149,373.540375 
	C310.752472,375.431396 310.883698,376.867645 310.884949,378.303986 
	C310.898956,394.120697 310.883636,409.937408 310.901306,425.754120 
	C310.904083,428.249359 310.882507,430.759064 311.125641,433.237244 
	C312.468964,446.928802 323.580933,453.420807 336.226166,447.789185 
	C343.621277,444.495697 344.868073,437.689362 344.932190,430.668091 
	C345.085693,413.853821 344.983124,397.037201 344.983887,380.221527 
	C344.983978,378.564880 344.983917,376.908234 344.983917,375.029968 
	C347.987213,375.029968 350.755493,375.029968 353.567230,375.029968 
	C353.567230,394.175415 353.567230,413.114655 353.505432,432.502075 
z"/>
<path fill="#062E5B" opacity="1.000000" stroke="none" 
	d="
M1087.597534,391.244446 
	C1095.194458,412.165802 1102.629517,432.731049 1110.322754,454.010010 
	C1106.465088,454.010010 1103.048340,454.221344 1099.686890,453.883453 
	C1098.655151,453.779694 1097.336426,452.344086 1096.897339,451.224854 
	C1094.476929,445.052826 1092.451416,438.721588 1089.893921,432.610870 
	C1089.324219,431.249786 1087.193726,429.744049 1085.729614,429.688812 
	C1078.077026,429.400085 1070.399780,429.376282 1062.750610,429.709137 
	C1061.180664,429.777435 1058.907837,431.438538 1058.303467,432.915558 
	C1055.493042,439.784515 1053.155029,446.846802 1050.637207,453.869690 
	C1048.030151,453.869690 1045.725708,453.869690 1042.994507,453.869690 
	C1048.845581,437.777588 1054.616455,421.933441 1060.365601,406.081421 
	C1062.624512,399.852661 1064.948120,393.643860 1067.036133,387.357513 
	C1069.217773,380.789734 1068.415405,379.580597 1061.854126,377.995941 
	C1060.777466,377.735901 1059.846191,376.873291 1058.847778,376.289215 
	C1058.998413,375.912323 1059.149048,375.535400 1059.299805,375.158508 
	C1066.690063,375.158508 1074.080444,375.158508 1081.742676,375.158508 
	C1083.613037,380.326111 1085.524414,385.607208 1087.597534,391.244446 
M1073.515381,423.836517 
	C1077.717041,423.836517 1081.918701,423.836517 1086.870239,423.836517 
	C1082.381592,412.356232 1078.259644,401.813629 1073.751343,390.282593 
	C1069.468872,401.999542 1065.592651,412.605255 1061.487793,423.836487 
	C1065.661133,423.836487 1069.096191,423.836487 1073.515381,423.836517 
z"/>
<path fill="#032A58" opacity="1.000000" stroke="none" 
	d="
M235.005035,428.040131 
	C235.004974,436.834778 235.004974,445.133911 235.004974,453.718323 
	C230.692764,453.718323 226.626038,453.718323 221.993515,453.718323 
	C221.993515,450.991638 221.993576,448.220459 221.993500,445.449280 
	C221.993027,426.804596 221.999252,408.159882 221.989059,389.515198 
	C221.984131,380.520172 221.798447,380.334991 213.182571,378.018829 
	C212.223022,377.760864 211.409454,376.959869 209.543640,375.797211 
	C211.450470,375.193359 212.013016,374.859283 212.575043,374.860138 
	C225.058350,374.879242 237.553680,374.605652 250.021957,375.063049 
	C267.923737,375.719757 277.540588,393.991089 268.338318,409.418579 
	C263.485168,417.554840 255.148575,418.166077 246.987534,418.825653 
	C243.207993,419.131073 239.383331,418.877777 235.005081,418.877777 
	C235.005081,422.007111 235.005081,424.775879 235.005035,428.040131 
M235.000198,397.510956 
	C235.000198,402.616455 235.000198,407.721924 235.000198,413.011719 
	C237.802963,413.011719 240.099655,413.081757 242.390900,412.999847 
	C253.778259,412.592865 258.588806,406.781952 258.011230,394.191254 
	C257.557953,384.309143 252.327332,380.149017 241.286835,380.601532 
	C236.958038,380.778931 234.884369,382.675293 235.004120,387.044189 
	C235.090637,390.200348 235.007614,393.361115 235.000198,397.510956 
z"/>
<path fill="#062E5B" opacity="1.000000" stroke="none" 
	d="
M765.367188,429.948944 
	C756.489502,429.668762 747.994263,429.446259 739.513794,429.705994 
	C737.966431,429.753357 735.756409,431.446503 735.096436,432.932495 
	C732.881653,437.918945 730.799133,443.047852 729.481140,448.325775 
	C728.113403,453.802612 725.102234,455.073975 719.817078,453.559143 
	C726.077942,436.437378 732.344910,419.343933 738.574036,402.236725 
	C740.443909,397.101593 742.298706,391.957672 743.997253,386.764404 
	C745.909546,380.917847 744.924622,379.388336 739.031616,378.040924 
	C737.850830,377.770996 736.792847,376.963715 735.678284,376.404205 
	C735.834351,375.875946 735.990356,375.347656 736.146423,374.819397 
	C743.049316,374.819397 749.953735,374.752136 756.852844,374.913452 
	C757.623901,374.931519 758.744446,376.108154 759.064087,376.981323 
	C768.401794,402.488342 777.658386,428.025024 786.952820,453.625610 
	C774.807251,454.967621 774.819641,454.963135 770.922119,444.173859 
	C769.231873,439.494995 767.479065,434.838776 765.367188,429.948944 
M742.829529,411.312744 
	C741.372925,415.289673 739.916260,419.266632 738.312500,423.645325 
	C746.957703,423.645325 754.846802,423.645325 763.494751,423.645325 
	C759.181824,412.555664 755.019165,401.852570 750.534546,390.321442 
	C747.826233,397.624939 745.429077,404.089508 742.829529,411.312744 
z"/>
<path fill="#062D5B" opacity="1.000000" stroke="none" 
	d="
M1223.142700,401.939636 
	C1230.480469,406.207520 1237.743408,409.935669 1244.442505,414.492432 
	C1252.320557,419.851074 1255.319214,427.655853 1253.328979,437.121552 
	C1251.159668,447.439178 1243.466553,454.083344 1230.902710,454.717987 
	C1222.872437,455.123627 1214.729980,453.734802 1206.678955,452.797729 
	C1205.598755,452.672028 1204.283569,450.596924 1203.926392,449.206421 
	C1203.451172,447.356079 1203.809204,445.291748 1203.809204,442.769562 
	C1207.803467,444.395996 1211.282837,446.267700 1214.997925,447.206055 
	C1219.281982,448.288116 1223.762695,448.933685 1228.178833,449.063812 
	C1233.626343,449.224426 1237.931885,446.658661 1239.780396,441.338257 
	C1241.809692,435.498047 1240.780151,429.956085 1235.798706,426.033356 
	C1231.917358,422.976807 1227.476562,420.622467 1223.241699,418.025665 
	C1219.426147,415.686066 1215.335815,413.735474 1211.749023,411.094147 
	C1203.819824,405.255066 1200.787354,396.983398 1203.267700,388.292633 
	C1205.775757,379.504333 1212.579712,375.104858 1220.930420,374.333923 
	C1229.726440,373.521912 1238.679443,374.410370 1247.770996,374.559235 
	C1247.770996,378.488464 1247.770996,381.093109 1247.770996,383.835205 
	C1242.416382,382.493042 1237.128296,380.795410 1231.707642,379.895111 
	C1223.352417,378.507446 1219.057007,380.366119 1216.812134,385.509949 
	C1214.228271,391.430664 1216.081421,396.446716 1223.142700,401.939636 
z"/>
<path fill="#072E5C" opacity="1.000000" stroke="none" 
	d="
M630.705505,449.092194 
	C636.663635,447.462311 642.171021,445.859711 647.712524,444.247162 
	C647.712524,445.971771 647.712524,448.238159 647.712524,450.868317 
	C635.809509,455.078278 623.629456,456.996826 611.212891,453.495117 
	C600.802551,450.559265 595.050598,442.790588 592.423889,432.690613 
	C589.452026,421.263092 589.128845,409.640472 591.659363,398.106689 
	C595.410706,381.008698 606.349365,372.736725 623.872559,373.498077 
	C627.501465,373.655792 631.183472,374.120483 634.700989,375.002289 
	C642.758789,377.022308 648.175537,381.860687 649.752075,390.790375 
	C645.137207,390.790375 640.585449,390.790375 637.671814,390.790375 
	C633.564880,386.730804 630.761902,382.247314 626.740723,380.361847 
	C619.594727,377.011108 611.792236,380.687347 607.947083,388.042847 
	C602.976379,397.551605 602.818726,407.888336 603.768799,418.190460 
	C604.297485,423.923584 605.254028,429.800446 607.208191,435.180115 
	C611.054138,445.768280 618.989746,450.190155 630.705505,449.092194 
z"/>
<path fill="#09305D" opacity="1.000000" stroke="none" 
	d="
M1138.864014,406.231537 
	C1134.699707,399.200836 1130.616089,392.546295 1126.706421,385.791046 
	C1124.324585,381.675690 1121.204712,378.818481 1116.344360,378.020111 
	C1115.317627,377.851471 1114.431152,376.829163 1113.479980,376.200195 
	C1113.649170,375.733826 1113.818359,375.267487 1113.987549,374.801117 
	C1120.736206,374.801117 1127.491577,374.649933 1134.227295,374.946075 
	C1135.384277,374.996979 1136.763794,376.772522 1137.521118,378.057526 
	C1143.417114,388.063080 1149.186035,398.143677 1155.485107,409.051239 
	C1158.282471,404.324982 1160.741211,400.167358 1163.203247,396.011627 
	C1166.504150,390.439850 1170.151245,385.038757 1173.002808,379.246002 
	C1175.363037,374.451447 1178.728394,374.148773 1183.528442,375.278137 
	C1175.953003,387.959900 1168.431396,400.261688 1161.269287,412.769318 
	C1159.710938,415.490662 1158.788574,418.929260 1158.694092,422.071228 
	C1158.379639,432.530060 1158.575317,443.004211 1158.575317,453.744629 
	C1154.113281,453.744629 1150.034790,453.744629 1145.418579,453.744629 
	C1145.418579,444.741425 1144.834351,435.734222 1145.592285,426.841400 
	C1146.271729,418.867950 1143.114746,412.698853 1138.864014,406.231537 
z"/>
<path fill="#032A58" opacity="1.000000" stroke="none" 
	d="
M471.823517,427.999939 
	C471.823730,414.683960 471.848969,401.867950 471.814178,389.052063 
	C471.795044,381.990662 470.983032,381.161865 464.254028,379.724640 
	C462.751221,379.403656 461.425079,378.255493 460.017578,377.488159 
	C461.556366,376.933624 463.056244,376.086182 464.640717,375.875671 
	C471.214325,375.002380 477.813446,374.321381 485.007324,373.500916 
	C485.007324,375.438904 485.007355,377.043762 485.007355,378.648651 
	C485.007294,399.453796 485.002991,420.258972 485.009583,441.064117 
	C485.011688,447.750824 485.235229,448.015289 492.065674,448.097473 
	C496.723785,448.153534 501.387939,448.140076 506.042328,447.967468 
	C512.573975,447.725220 514.736633,445.675720 516.202271,439.307465 
	C516.460449,438.185852 517.865417,437.328186 519.518616,435.478210 
	C519.518616,442.644745 519.518616,448.080261 519.518616,453.759430 
	C503.566650,453.759430 488.000793,453.759430 471.823517,453.759430 
	C471.823517,445.327759 471.823517,436.913879 471.823517,427.999939 
z"/>
<path fill="#0C335F" opacity="1.000000" stroke="none" 
	d="
M810.968506,382.303711 
	C808.067688,381.102997 805.391296,380.330597 802.802185,379.331665 
	C801.914368,378.989105 801.245300,378.079498 800.476318,377.428925 
	C801.225159,376.944489 801.933960,376.122375 802.729004,376.028198 
	C810.138489,375.150208 817.562805,374.397278 825.308350,373.573456 
	C825.308350,400.578583 825.308350,427.127502 825.308350,453.851776 
	C820.943604,453.851776 816.827271,453.851776 812.103088,453.851776 
	C812.103088,452.142212 812.103149,450.541656 812.103088,448.941071 
	C812.103027,429.117157 812.131165,409.293121 812.064331,389.469421 
	C812.056641,387.193115 811.519104,384.918549 810.968506,382.303711 
z"/>
<path fill="#052C5A" opacity="1.000000" stroke="none" 
	d="
M548.516418,453.487488 
	C548.178650,432.011322 548.160828,410.890381 548.120361,389.769470 
	C548.104614,381.544495 548.019592,381.537689 539.915955,379.608856 
	C538.687012,379.316345 537.639099,378.263367 536.507446,377.562164 
	C537.706421,377.006805 538.862183,376.111694 540.111633,375.952484 
	C546.992737,375.075836 553.896790,374.379059 561.013916,373.596252 
	C561.013916,400.515015 561.013916,426.926178 561.013916,453.842682 
	C556.943970,453.842682 552.885620,453.842682 548.516418,453.487488 
z"/>
<path fill="#ABB7BD" opacity="1.000000" stroke="none" 
	d="
M900.173584,135.170776 
	C905.220947,135.171005 909.795593,135.171005 914.370239,135.171005 
	C914.468018,135.552505 914.565735,135.934021 914.663452,136.315521 
	C910.540649,139.269318 906.502747,142.352509 902.266846,145.134003 
	C899.145081,147.183838 898.237732,149.378021 899.734558,153.024963 
	C901.596497,157.561523 902.831482,162.355438 903.328918,167.772247 
	C899.393311,164.861862 895.370850,162.060120 891.550476,159.005569 
	C888.670593,156.702942 886.338318,156.288330 883.255188,158.973557 
	C879.436218,162.299759 875.084412,165.014206 869.707642,168.899979 
	C871.822876,162.423218 873.227783,157.336884 875.166199,152.462753 
	C876.455444,149.221024 875.880859,147.319046 872.946960,145.447021 
	C868.626038,142.689972 864.572449,139.513931 860.545410,135.163986 
	C865.346130,135.163986 870.196655,134.734100 874.933960,135.282288 
	C879.884521,135.855164 881.777710,133.661606 882.822327,129.329330 
	C883.907349,124.829636 885.460144,120.442749 887.270142,114.486916 
	C889.278198,120.610992 891.118774,125.244171 892.274414,130.042313 
	C893.297485,134.289963 895.555847,135.875153 900.173584,135.170776 
z"/>
<path fill="#ABB6BC" opacity="1.000000" stroke="none" 
	d="
M599.173706,64.177216 
	C587.988037,71.875626 587.990234,71.874886 592.145447,84.334824 
	C592.869629,86.506355 593.566162,88.687103 593.340881,91.705956 
	C589.715454,89.088303 585.789490,86.793381 582.542053,83.769768 
	C578.649658,80.145676 575.482422,80.580048 571.736145,83.809555 
	C568.363770,86.716660 564.629517,89.203903 560.151184,91.412521 
	C561.747498,86.516731 563.074829,81.510414 565.026489,76.760643 
	C566.546997,73.060333 565.526550,71.048569 562.333557,69.050003 
	C557.983459,66.327187 553.927002,63.135193 548.387634,59.173996 
	C555.332886,59.173996 560.821228,58.970932 566.284851,59.250893 
	C569.512329,59.416267 571.082764,58.350868 571.930481,55.242096 
	C573.356995,50.010345 575.146545,44.877556 577.222412,38.315147 
	C579.347473,45.015877 581.180237,50.265728 582.640869,55.617176 
	C583.405518,58.418606 584.878113,59.296265 587.637207,59.218628 
	C593.106140,59.064743 598.582458,59.173161 605.440552,59.173161 
	C602.859680,61.242008 601.160767,62.603909 599.173706,64.177216 
z"/>
<path fill="#ABB7BD" opacity="1.000000" stroke="none" 
	d="
M948.124146,585.022522 
	C949.854370,585.971802 951.447449,586.931458 953.074585,586.993225 
	C958.382385,587.194885 963.702576,587.068787 970.675537,587.068787 
	C966.027893,590.443909 962.558533,593.033203 959.016968,595.519836 
	C952.934448,599.790588 952.922546,599.761353 955.339417,606.989197 
	C956.682129,611.004517 957.996826,615.029114 958.391052,619.583130 
	C953.029968,615.725891 947.668884,611.868652 942.077393,607.845581 
	C936.544739,611.856812 931.121887,615.788452 924.465393,620.614502 
	C926.690186,613.806335 928.262451,608.423523 930.238770,603.193420 
	C931.196899,600.657776 930.668091,599.311462 928.500671,597.859558 
	C923.813904,594.720093 919.299988,591.322754 913.371887,587.066284 
	C920.277527,587.066284 925.774353,586.859680 931.245544,587.144287 
	C934.495544,587.313416 936.059265,586.188721 936.881958,583.104736 
	C938.203430,578.151184 939.841736,573.282166 942.586792,568.136047 
	C944.392029,573.631287 946.197327,579.126465 948.124146,585.022522 
z"/>
<path fill="#ABB7BD" opacity="1.000000" stroke="none" 
	d="
M391.298950,609.632385 
	C392.340424,612.789612 393.241028,615.574890 394.141663,618.360168 
	C393.796295,618.658081 393.450958,618.955994 393.105591,619.253967 
	C389.061096,616.306396 384.920868,613.479248 381.006256,610.368225 
	C378.463806,608.347717 376.593567,607.815979 373.764404,610.270996 
	C369.712433,613.787048 365.084198,616.639038 359.510101,620.627380 
	C361.719421,613.857544 363.290649,608.474121 365.264130,603.242432 
	C366.209412,600.736511 365.766968,599.332458 363.603363,597.864929 
	C358.935059,594.698547 354.421539,591.303955 348.549133,587.068237 
	C355.001709,587.068237 360.156464,586.797180 365.267181,587.155334 
	C369.250061,587.434387 371.285522,586.309448 372.228241,582.209595 
	C373.364532,577.267700 375.267151,572.502014 377.237976,566.427429 
	C379.347748,572.790100 381.375092,577.826233 382.621674,583.048706 
	C383.430725,586.438049 385.058746,587.229309 388.176514,587.119263 
	C393.468811,586.932373 398.772522,587.067932 404.556061,587.946594 
	C401.044098,590.486572 397.737366,593.398804 393.970154,595.475586 
	C388.849457,598.298401 387.752136,601.867554 390.384918,606.895874 
	C390.764282,607.620422 390.906281,608.469177 391.298950,609.632385 
z"/>
<path fill="#FE3F44" opacity="1.000000" stroke="none" 
	d="
M739.667358,531.401917 
	C733.841614,521.381653 728.211548,511.671844 722.581421,501.962036 
	C722.216125,502.047760 721.850891,502.133514 721.485596,502.219238 
	C721.485596,515.356995 721.485596,528.494751 721.485596,541.775757 
	C719.437073,541.775757 718.011658,541.775757 716.140198,541.775757 
	C716.140198,529.587646 716.189331,517.633545 716.118591,505.680176 
	C716.085571,500.104462 718.208801,493.261292 707.799988,493.131226 
	C708.203552,492.484528 708.607056,491.837799 709.010620,491.191101 
	C713.913269,491.191101 718.895569,490.692017 723.676453,491.454987 
	C725.408630,491.731384 726.875244,494.899261 728.092957,496.965820 
	C734.488220,507.818726 740.764832,518.741577 747.976318,529.517578 
	C747.976318,516.898193 747.976318,504.278748 747.976318,491.410706 
	C750.022644,491.410706 751.429749,491.410706 753.041992,491.410706 
	C753.041992,508.246277 753.041992,524.859680 753.041992,541.440125 
	C748.058411,543.328552 744.800415,541.717957 742.833740,536.902039 
	C742.086792,535.072815 740.867126,533.436584 739.667358,531.401917 
z"/>
<path fill="#ABB7BD" opacity="1.000000" stroke="none" 
	d="
M482.827209,704.183899 
	C479.300537,701.644958 476.063599,699.320679 471.531067,696.066040 
	C478.148956,696.066040 483.456482,695.830322 488.730713,696.147522 
	C492.346405,696.364990 494.128540,695.201538 495.024384,691.641174 
	C496.301636,686.564697 498.080261,681.614380 500.658813,676.657104 
	C502.272552,681.798035 504.090393,686.886658 505.425507,692.098999 
	C506.262390,695.366211 508.011505,696.239868 511.140594,696.120178 
	C516.435181,695.917847 521.743103,696.064636 528.513794,696.064636 
	C523.285706,699.875427 519.305603,703.288574 514.844727,705.871216 
	C511.059631,708.062744 510.905243,710.365234 512.438843,713.964783 
	C514.294922,718.321106 515.642761,722.893860 517.210510,727.372986 
	C516.836121,727.669128 516.461670,727.965271 516.087280,728.261475 
	C512.143921,725.409424 507.949646,722.839417 504.332642,719.620667 
	C501.150177,716.788818 498.792847,717.193481 495.777405,719.678406 
	C491.946045,722.835815 487.807007,725.619934 482.525574,729.502258 
	C484.299072,724.009705 485.611206,719.882263 486.964569,715.768433 
	C489.311432,708.634827 489.322174,708.638367 482.827209,704.183899 
z"/>
<path fill="#ABB6BC" opacity="1.000000" stroke="none" 
	d="
M666.432251,761.561279 
	C658.174622,755.344666 660.805542,756.283081 653.302673,761.287170 
	C650.267151,763.311646 647.372986,765.547607 644.389893,767.652344 
	C644.188965,767.794128 643.778625,767.639160 642.801147,767.586243 
	C644.818665,761.351074 646.785522,755.272766 648.882446,748.792297 
	C643.489929,744.863647 638.055054,740.904175 631.312378,735.991882 
	C637.956604,735.991882 643.172607,735.696899 648.336853,736.086792 
	C652.342651,736.389221 653.939148,734.673218 654.863586,731.125671 
	C656.135620,726.243713 657.779053,721.458557 660.315491,716.604675 
	C661.928528,721.762817 663.695312,726.879639 665.096863,732.094543 
	C665.933167,735.205872 667.492554,736.246460 670.717041,736.071167 
	C676.107361,735.778137 681.525208,735.991150 688.283752,735.991150 
	C683.327393,739.572998 679.690002,742.738159 675.568542,745.034729 
	C671.131958,747.506958 670.626282,750.279663 672.565735,754.686401 
	C674.468933,759.010803 675.591064,763.679016 677.502686,769.573853 
	C673.107727,766.391113 669.916626,764.080200 666.432251,761.561279 
z"/>
<path fill="#FE3C40" opacity="1.000000" stroke="none" 
	d="
M623.081787,491.167877 
	C632.107361,491.371368 640.773499,491.173370 649.355408,491.930359 
	C659.191589,492.798035 664.648132,497.656250 666.005920,507.458252 
	C666.922424,514.074036 666.755310,521.076111 665.670776,527.674927 
	C664.225403,536.469177 658.001221,540.741882 647.595520,541.818420 
	C646.275696,541.954895 644.941528,541.998047 643.613708,542.003967 
	C638.802490,542.025391 633.991028,542.012451 628.421814,542.012451 
	C628.421814,539.690308 628.421753,537.610046 628.421875,535.529785 
	C628.422729,524.059692 628.416077,512.589539 628.428955,501.119446 
	C628.432983,497.500275 628.513916,493.904572 623.428833,493.594360 
	C623.133118,493.576385 622.930908,492.025726 623.081787,491.167877 
M637.803345,496.526581 
	C637.628113,496.807617 637.301880,497.087372 637.299438,497.369873 
	C637.193359,509.849915 637.037964,522.331055 637.171875,534.808960 
	C637.183533,535.897644 638.959412,537.644409 640.188110,537.935242 
	C649.433777,540.123230 657.019226,534.828979 657.917175,525.375244 
	C658.417969,520.102905 658.447449,514.729065 658.082520,509.442841 
	C657.276001,497.759125 650.037598,492.917236 637.803345,496.526581 
z"/>
<path fill="#ABB6BC" opacity="1.000000" stroke="none" 
	d="
M977.689941,257.646606 
	C978.395142,255.396820 978.962830,253.514557 979.530518,251.632309 
	C979.843567,251.563553 980.156677,251.494797 980.469727,251.426041 
	C981.989807,256.153717 983.842957,260.806183 984.932434,265.631134 
	C985.940735,270.096039 988.209778,271.447998 992.607056,271.080200 
	C997.376404,270.681213 1002.205017,270.989746 1008.411865,270.989746 
	C1002.019470,275.662384 996.643066,279.592377 991.081604,283.657593 
	C993.108215,290.004761 995.096191,296.230988 997.084229,302.457184 
	C996.760986,302.707855 996.437805,302.958557 996.114624,303.209229 
	C992.030151,300.234985 987.800781,297.436462 983.909485,294.227875 
	C981.073792,291.889618 978.905701,291.979675 976.119324,294.298248 
	C972.181885,297.574738 967.917908,300.458832 962.531006,304.444885 
	C964.715332,297.682098 966.293152,292.234314 968.266174,286.933716 
	C969.206604,284.407104 968.738342,283.065460 966.527771,281.600037 
	C961.862793,278.507660 957.397522,275.114197 951.664001,270.991119 
	C958.602539,270.991119 964.156067,270.842682 969.695984,271.053284 
	C972.498352,271.159821 973.895996,270.343018 974.534058,267.500061 
	C975.257874,264.274719 976.522766,261.170807 977.689941,257.646606 
z"/>
<path fill="#ABB6BC" opacity="1.000000" stroke="none" 
	d="
M410.312317,140.683411 
	C408.515076,139.266357 406.991119,138.083054 404.265350,135.966568 
	C410.728088,135.966568 415.793335,135.690613 420.811493,136.057968 
	C424.514038,136.329010 426.136780,135.011063 427.021301,131.512192 
	C428.301422,126.448669 430.071869,121.509094 432.734528,116.597900 
	C434.279846,121.602730 435.954102,126.572609 437.323639,131.625092 
	C438.184906,134.802658 439.611298,136.315491 443.219086,136.068634 
	C448.446350,135.710953 453.716278,135.977005 460.223419,135.977005 
	C453.952484,140.601822 448.669037,144.498383 443.099457,148.605957 
	C445.107513,154.867355 447.104340,161.093781 449.101166,167.320221 
	C448.785553,167.586288 448.469940,167.852371 448.154327,168.118439 
	C444.518280,165.443527 440.664276,163.013763 437.305298,160.027222 
	C433.686981,156.810074 430.835297,156.514801 427.104187,160.015579 
	C423.787231,163.127762 419.711731,165.431473 415.123962,167.488693 
	C416.666870,162.832214 417.940765,158.062698 419.835602,153.554108 
	C421.427063,149.767365 420.699677,147.402237 417.140076,145.459747 
	C414.819885,144.193619 412.761353,142.447983 410.312317,140.683411 
z"/>
<path fill="#ABB6BC" opacity="1.000000" stroke="none" 
	d="
M803.002441,728.002441 
	C804.143860,723.705200 804.750977,719.165588 806.561951,715.171997 
	C808.828186,710.174683 807.546936,707.254211 803.116150,704.620667 
	C799.361755,702.389160 795.941956,699.594727 792.769653,695.991333 
	C797.018982,695.991333 801.339600,695.502380 805.500549,696.108765 
	C811.382935,696.966003 813.845825,694.461121 814.981079,689.069336 
	C815.860474,684.892578 817.482971,680.872253 819.212891,675.396484 
	C821.313965,681.617493 823.224854,686.554199 824.609497,691.634338 
	C825.501404,694.906555 826.941895,696.282593 830.474304,696.069214 
	C835.609741,695.759033 840.777893,695.989685 847.596130,695.989685 
	C842.044373,700.013062 837.737549,703.364807 833.185669,706.341980 
	C830.657288,707.995850 830.111328,709.633057 831.187012,712.429443 
	C833.066833,717.316040 834.600464,722.335754 836.279114,727.299744 
	C835.921936,727.564026 835.564819,727.828369 835.207642,728.092712 
	C830.866943,724.937744 826.421631,721.913940 822.230042,718.572021 
	C820.154846,716.917480 818.701111,716.858154 816.597595,718.491516 
	C812.402832,721.748535 807.983887,724.716797 803.328796,727.902222 
	C803.000000,728.000000 803.002441,728.002441 803.002441,728.002441 
z"/>
<path fill="#ABB6BC" opacity="1.000000" stroke="none" 
	d="
M745.286133,49.729630 
	C748.037903,59.919476 748.037903,59.918976 758.019653,59.913921 
	C761.432800,59.912189 764.846008,59.913647 768.610474,60.956009 
	C764.363708,63.996918 760.194946,67.155930 755.840027,70.033104 
	C753.346008,71.680847 752.668701,73.318611 753.808594,76.238297 
	C755.725891,81.149124 757.170898,86.244308 757.992065,92.148628 
	C754.107178,89.344360 750.027283,86.768379 746.396301,83.666840 
	C743.234436,80.965988 740.833618,80.395164 737.443787,83.473061 
	C733.927185,86.666039 729.747620,89.128838 724.754211,91.367577 
	C726.381653,86.472816 727.793091,81.491287 729.712341,76.713753 
	C730.996948,73.516212 730.481445,71.693253 727.493896,69.837196 
	C723.059875,67.082527 718.956055,63.796268 713.587158,59.925533 
	C720.480652,59.925533 725.919800,59.800224 731.349060,59.977989 
	C734.095947,60.067928 735.474426,59.390083 736.226562,56.443840 
	C737.597595,51.073380 739.589417,45.861393 741.805603,39.111042 
	C743.232178,43.479115 744.191345,46.416069 745.286133,49.729630 
z"/>
<path fill="#ABB6BC" opacity="1.000000" stroke="none" 
	d="
M343.364075,294.534851 
	C340.434357,291.462463 338.041962,291.476624 334.985321,294.127655 
	C331.258148,297.360260 327.011963,299.994446 321.975311,302.427032 
	C323.414734,297.870026 324.388580,293.091278 326.423828,288.818054 
	C328.479279,284.502563 327.132172,282.253326 323.566803,279.991577 
	C319.705841,277.542358 316.103760,274.685089 312.686554,270.914154 
	C317.567963,270.914154 322.470612,270.633911 327.324127,271.001923 
	C331.276917,271.301605 332.964813,269.674042 333.903870,266.078949 
	C335.189636,261.156403 336.884430,256.340668 339.422974,251.377106 
	C341.049866,256.470367 342.820862,261.523560 344.251221,266.671417 
	C345.155060,269.924500 346.789459,271.218384 350.273163,270.995697 
	C355.219330,270.679474 360.200775,270.915405 365.679810,271.825195 
	C361.634430,274.768433 357.740112,277.956757 353.493927,280.574188 
	C350.327881,282.525818 349.699158,284.520813 351.060455,287.923096 
	C352.946777,292.637543 354.337952,297.550110 355.119904,303.028534 
	C351.301056,300.268829 347.482208,297.509125 343.364075,294.534851 
z"/>
<path fill="#FF383D" opacity="1.000000" stroke="none" 
	d="
M493.449402,502.025085 
	C493.449615,498.244293 493.449615,494.953522 493.449615,491.416199 
	C496.408020,491.416199 498.838745,491.416199 501.638275,491.416199 
	C501.638275,508.105743 501.638275,524.798157 501.638275,541.749390 
	C499.045441,541.749390 496.484589,541.749390 493.451477,541.749390 
	C493.451477,533.792297 493.451477,526.035400 493.451477,517.922119 
	C486.594299,517.922119 480.200439,517.922119 473.376526,517.922119 
	C473.376526,525.742981 473.376526,533.507263 473.376526,541.635742 
	C470.426819,541.635742 467.892700,541.635742 464.843872,541.635742 
	C464.843872,529.962402 464.843140,518.362671 464.844116,506.762939 
	C464.844910,497.215179 464.845795,497.215179 456.551758,492.456299 
	C462.577271,491.770569 467.516449,491.208496 473.082764,490.575012 
	C473.082764,498.436432 473.082764,505.833740 473.082764,513.530273 
	C480.042175,513.530273 486.428741,513.530273 493.449158,513.530273 
	C493.449158,509.731110 493.449158,506.123138 493.449402,502.025085 
z"/>
<path fill="#FE3D42" opacity="1.000000" stroke="none" 
	d="
M555.940491,496.078644 
	C563.675415,508.778717 563.480286,521.783264 557.798523,534.521301 
	C554.224976,542.532837 546.200439,543.255493 538.442688,542.791382 
	C531.337402,542.366394 525.365234,539.545288 522.738342,532.451294 
	C518.908752,522.109558 518.726562,511.458557 522.652588,501.187195 
	C527.252319,489.153412 544.922241,486.481445 555.940491,496.078644 
M529.064270,524.982910 
	C529.343140,526.278625 529.576904,527.586060 529.908264,528.868164 
	C531.738953,535.950073 535.411743,539.149048 541.484741,538.988708 
	C547.208008,538.837708 551.295105,535.466797 551.898438,528.414795 
	C552.584778,520.392761 552.494507,512.205750 551.720764,504.188904 
	C551.113647,497.898651 546.423767,494.273956 541.097961,494.208405 
	C535.634705,494.141174 531.116394,497.438721 530.133118,503.791168 
	C529.102051,510.451660 529.329895,517.307007 529.064270,524.982910 
z"/>
<path fill="#FE3C40" opacity="1.000000" stroke="none" 
	d="
M808.015991,497.359528 
	C808.545044,498.943970 808.902771,500.172150 809.366333,501.763855 
	C806.100586,501.763855 803.328308,501.763855 800.261963,501.763855 
	C799.083496,496.954926 796.051636,493.975739 790.769714,494.361633 
	C785.319092,494.759857 781.881775,498.468628 781.494263,503.342896 
	C780.829895,511.700409 780.452026,520.293152 781.683044,528.528564 
	C782.888306,536.591370 790.098450,540.334900 797.852661,538.850281 
	C800.303223,538.381042 801.779907,537.373840 801.467896,534.554077 
	C801.267517,532.743164 801.424683,530.892395 801.423950,529.059509 
	C801.419800,518.843201 801.420044,518.843201 793.458008,513.458740 
	C799.250305,513.458740 804.371460,513.458740 809.757690,513.458740 
	C809.757690,522.003723 809.757690,530.608582 809.757690,539.707764 
	C801.899414,542.495544 793.724426,544.101379 785.222473,541.894409 
	C778.865601,540.244263 774.924744,535.821411 773.185303,529.667847 
	C770.739929,521.016968 770.585449,512.224609 772.978516,503.521057 
	C774.871582,496.635925 779.444519,492.196747 786.519043,491.112549 
	C794.382080,489.907471 802.263733,489.537506 808.015991,497.359528 
z"/>
<path fill="#FE3D42" opacity="1.000000" stroke="none" 
	d="
M828.269287,499.416443 
	C830.238770,494.151489 834.153687,491.659698 839.009949,491.123993 
	C843.426208,490.636780 847.943115,491.029663 852.414917,491.087738 
	C856.342468,491.138733 857.820679,492.968292 856.368103,496.956421 
	C852.693542,496.140930 849.049072,495.209534 845.356262,494.547821 
	C841.832336,493.916382 838.608337,494.558472 836.972961,498.214264 
	C835.315857,501.918579 836.421936,505.169098 839.522949,507.510681 
	C842.026245,509.400940 844.860107,510.855072 847.556335,512.487732 
	C849.971375,513.950134 852.529297,515.214417 854.793884,516.879333 
	C859.706238,520.490784 861.360840,525.433655 860.215942,531.398071 
	C859.108398,537.168152 855.284546,540.367493 849.972351,541.811035 
	C842.722168,543.781250 835.527893,543.054932 828.390442,540.698181 
	C828.390442,538.744690 828.390442,536.991638 828.390442,535.077271 
	C832.256653,536.362427 835.784546,537.853149 839.461487,538.684998 
	C845.395142,540.027344 849.667236,538.171326 851.351318,534.045105 
	C853.194336,529.529541 851.476807,525.404907 846.060181,522.019409 
	C842.822876,519.996033 839.378723,518.306396 836.059631,516.410522 
	C829.576599,512.707581 826.482361,507.365662 828.269287,499.416443 
z"/>
<path fill="#FE4145" opacity="1.000000" stroke="none" 
	d="
M588.972229,535.648132 
	C590.017212,536.784912 590.928894,537.777649 592.015259,538.036011 
	C593.433350,538.373291 594.989807,538.133545 596.486694,538.134216 
	C605.925049,538.138794 605.925049,538.138062 610.568176,529.855835 
	C610.568176,534.505615 610.568176,538.016174 610.568176,541.786621 
	C600.716858,541.786621 590.792053,541.786621 580.136169,541.786621 
	C580.136169,537.858337 580.136292,533.937927 580.136169,530.017578 
	C580.135864,520.703186 579.931274,511.382385 580.223083,502.077148 
	C580.364319,497.573334 579.502563,494.556763 574.382324,494.328644 
	C573.968628,494.310211 573.561584,493.885651 573.178711,493.611633 
	C573.078857,493.540131 573.082031,493.324646 572.767212,492.260162 
	C578.016235,491.687805 583.117371,491.131561 588.916626,490.499207 
	C588.916626,505.696381 588.916626,520.436890 588.972229,535.648132 
z"/>
<path fill="#FE4145" opacity="1.000000" stroke="none" 
	d="
M694.864136,533.925354 
	C694.864136,536.718628 694.864136,539.024048 694.864136,541.676453 
	C691.972351,541.676453 689.403320,541.676453 686.135864,541.676453 
	C686.135864,536.833862 686.135803,531.897522 686.135925,526.961182 
	C686.136108,519.635132 686.092468,512.308716 686.151123,504.983124 
	C686.194092,499.621490 687.356140,493.655792 677.862732,494.201813 
	C678.204163,493.544006 678.545593,492.886200 678.887024,492.228363 
	C684.039612,491.671082 689.192261,491.113831 694.864197,490.500366 
	C694.864197,505.220062 694.864197,519.328796 694.864136,533.925354 
z"/>
<path fill="#ABB6BC" opacity="1.000000" stroke="none" 
	d="
M802.999878,727.999634 
	C802.881775,728.007263 802.763733,728.015259 802.824097,728.012878 
	C803.002441,728.002441 803.000000,728.000000 802.999878,727.999634 
z"/>
<path fill="#FBFCFC" opacity="1.000000" stroke="none" 
	d="
M426.814240,421.361328 
	C434.269257,435.201721 427.308472,447.577942 412.190308,448.053436 
	C411.031189,448.089905 409.868652,448.068054 408.709045,448.031281 
	C401.042786,447.788208 400.177704,446.904236 400.174652,439.325684 
	C400.171448,431.391693 400.173950,423.457703 400.173950,415.065338 
	C409.676208,415.359741 419.236450,413.014496 426.814240,421.361328 
z"/>
<path fill="#FBFCFC" opacity="1.000000" stroke="none" 
	d="
M409.784790,409.122925 
	C406.505402,409.126434 403.688354,409.126434 400.384094,409.126434 
	C400.384094,400.828186 400.282135,392.761414 400.496674,384.703064 
	C400.527985,383.526947 401.929321,381.539917 402.934265,381.374908 
	C409.342621,380.322662 415.985687,379.528625 421.467804,384.045013 
	C426.466339,388.162964 426.325226,393.904205 424.931824,399.610657 
	C423.499756,405.475311 418.705353,408.475952 409.784790,409.122925 
z"/>
<path fill="#FBFCFC" opacity="1.000000" stroke="none" 
	d="
M78.659088,386.355347 
	C78.897530,382.474731 80.685951,381.122253 84.109985,380.785126 
	C96.866112,379.529205 103.721359,385.669281 103.019890,398.035187 
	C102.647873,404.593323 98.960098,409.433563 92.534096,410.772125 
	C88.231407,411.668396 83.750839,411.710724 78.582901,412.209137 
	C78.582901,403.258392 78.582901,395.036194 78.659088,386.355347 
z"/>
<path fill="#FBFCFC" opacity="1.000000" stroke="none" 
	d="
M874.210938,411.824890 
	C873.168030,410.869720 872.091492,409.926025 872.079956,408.969513 
	C871.992004,401.676331 872.143921,394.380707 872.155090,387.085693 
	C872.161682,382.800751 874.157715,380.992798 878.499817,380.695892 
	C892.079590,379.767273 899.742981,388.793793 896.078003,401.624084 
	C894.530762,407.040588 890.707031,409.897980 885.531433,410.905609 
	C881.985474,411.595947 878.295959,411.548187 874.210938,411.824890 
z"/>
<path fill="#F6F8F9" opacity="1.000000" stroke="none" 
	d="
M1073.023315,423.836487 
	C1069.096191,423.836487 1065.661133,423.836487 1061.487793,423.836487 
	C1065.592651,412.605255 1069.468872,401.999542 1073.751343,390.282593 
	C1078.259644,401.813629 1082.381592,412.356232 1086.870239,423.836517 
	C1081.918701,423.836517 1077.717041,423.836517 1073.023315,423.836487 
z"/>
<path fill="#FEFCFC" opacity="1.000000" stroke="none" 
	d="
M235.000214,397.015381 
	C235.007614,393.361115 235.090637,390.200348 235.004120,387.044189 
	C234.884369,382.675293 236.958038,380.778931 241.286835,380.601532 
	C252.327332,380.149017 257.557953,384.309143 258.011230,394.191254 
	C258.588806,406.781952 253.778259,412.592865 242.390900,412.999847 
	C240.099655,413.081757 237.802963,413.011719 235.000198,413.011719 
	C235.000198,407.721924 235.000198,402.616455 235.000214,397.015381 
z"/>
<path fill="#F6F8F9" opacity="1.000000" stroke="none" 
	d="
M742.930664,410.933411 
	C745.429077,404.089508 747.826233,397.624939 750.534546,390.321442 
	C755.019165,401.852570 759.181824,412.555664 763.494751,423.645325 
	C754.846802,423.645325 746.957703,423.645325 738.312500,423.645325 
	C739.916260,419.266632 741.372925,415.289673 742.930664,410.933411 
z"/>
<path fill="#FEFCFC" opacity="1.000000" stroke="none" 
	d="
M638.123962,496.229797 
	C650.037598,492.917236 657.276001,497.759125 658.082520,509.442841 
	C658.447449,514.729065 658.417969,520.102905 657.917175,525.375244 
	C657.019226,534.828979 649.433777,540.123230 640.188110,537.935242 
	C638.959412,537.644409 637.183533,535.897644 637.171875,534.808960 
	C637.037964,522.331055 637.193359,509.849915 637.299438,497.369873 
	C637.301880,497.087372 637.628113,496.807617 638.123962,496.229797 
z"/>
<path fill="#FEFCFC" opacity="1.000000" stroke="none" 
	d="
M529.035889,524.530029 
	C529.329895,517.307007 529.102051,510.451660 530.133118,503.791168 
	C531.116394,497.438721 535.634705,494.141174 541.097961,494.208405 
	C546.423767,494.273956 551.113647,497.898651 551.720764,504.188904 
	C552.494507,512.205750 552.584778,520.392761 551.898438,528.414795 
	C551.295105,535.466797 547.208008,538.837708 541.484741,538.988708 
	C535.411743,539.149048 531.738953,535.950073 529.908264,528.868164 
	C529.576904,527.586060 529.343140,526.278625 529.035889,524.530029 
z"/>
</svg>