<?xml version="1.0" encoding="UTF-8"?>
<!DOCTYPE svg PUBLIC "-//W3C//DTD SVG 1.1//EN" "http://www.w3.org/Graphics/SVG/1.1/DTD/svg11.dtd">
<svg xmlns="http://www.w3.org/2000/svg" version="1.1" width="800px" height="450px" style="shape-rendering:geometricPrecision; text-rendering:geometricPrecision; image-rendering:optimizeQuality; fill-rule:evenodd; clip-rule:evenodd" xmlns:xlink="http://www.w3.org/1999/xlink">
<g><path style="opacity:0.243" fill="#a15a79" d="M 27.5,117.5 C 26.8333,117.5 26.1667,117.5 25.5,117.5C 24.5218,116.703 24.8551,116.036 26.5,115.5C 27.2975,115.957 27.6309,116.624 27.5,117.5 Z"/></g>
<g><path style="opacity:0.989" fill="#ed3f34" d="M 25.5,117.5 C 26.1667,117.5 26.8333,117.5 27.5,117.5C 87.9128,188.243 147.579,259.576 206.5,331.5C 161.428,331.828 116.428,331.494 71.5,330.5C 71.1063,325.01 69.773,319.843 67.5,315C 67.9574,314.586 68.2907,314.086 68.5,313.5C 68.1556,310.964 67.1556,308.797 65.5,307C 66.9348,304.733 66.6015,302.733 64.5,301C 64.8333,300 65.1667,299 65.5,298C 64.1849,294.261 63.1849,290.428 62.5,286.5C 62.8294,283.772 62.1628,281.438 60.5,279.5C 56.0297,256.801 51.3631,234.468 46.5,212.5C 46.7373,211.209 46.404,210.209 45.5,209.5C 44.6586,207.621 44.3253,205.621 44.5,203.5C 44.7373,202.209 44.404,201.209 43.5,200.5C 39.6767,182.205 36.01,163.872 32.5,145.5C 32.7373,144.209 32.404,143.209 31.5,142.5C 28.7544,134.369 26.7544,126.036 25.5,117.5 Z"/></g>
<g><path style="opacity:0.985" fill="#014ea2" d="M 42.5,115.5 C 59.1533,116.833 76.1533,117.5 93.5,117.5C 110.847,117.5 127.847,116.833 144.5,115.5C 162.011,136.618 179.677,157.784 197.5,179C 162.5,179.667 127.5,179.667 92.5,179C 75.4647,158.584 58.1313,137.917 40.5,117C 41.0442,116.283 41.7109,115.783 42.5,115.5 Z"/></g>
<g><path style="opacity:0.788" fill="#886896" d="M 42.5,115.5 C 76.5,115.5 110.5,115.5 144.5,115.5C 127.847,116.833 110.847,117.5 93.5,117.5C 76.1533,117.5 59.1533,116.833 42.5,115.5 Z"/></g>
<g><path style="opacity:0.243" fill="#ab5b76" d="M 31.5,142.5 C 32.404,143.209 32.7373,144.209 32.5,145.5C 31.7326,144.828 31.0659,143.995 30.5,143C 30.7284,142.601 31.0618,142.435 31.5,142.5 Z"/></g>
<g><path style="opacity:0.974" fill="#024ea2" d="M 105.5,192.5 C 140.168,192.333 174.835,192.5 209.5,193C 226.785,213.074 243.952,233.24 261,253.5C 261.483,254.448 261.649,255.448 261.5,256.5C 226.832,256.667 192.165,256.5 157.5,256C 140.788,236.084 123.955,216.251 107,196.5C 106.209,195.255 105.709,193.922 105.5,192.5 Z"/></g>
<g><path style="opacity:0.031" fill="#3c4c90" d="M 43.5,200.5 C 44.404,201.209 44.7373,202.209 44.5,203.5C 43.7611,203.631 43.0944,203.464 42.5,203C 43.2524,202.329 43.5858,201.496 43.5,200.5 Z"/></g>
<g><path style="opacity:0.031" fill="#3c4c90" d="M 45.5,209.5 C 46.404,210.209 46.7373,211.209 46.5,212.5C 44.5188,211.895 44.1854,210.895 45.5,209.5 Z"/></g>
<g><path style="opacity:0.961" fill="#054ea2" d="M 170.5,268.5 C 204.835,268.333 239.168,268.5 273.5,269C 291.051,289.712 308.385,310.545 325.5,331.5C 325.176,333.569 324.342,333.902 323,332.5C 290.333,333.167 257.667,333.833 225,334.5C 222.691,333.025 220.524,331.358 218.5,329.5C 210.137,318.647 201.637,307.98 193,297.5C 184.987,288.821 177.154,279.654 169.5,270C 170.056,269.617 170.389,269.117 170.5,268.5 Z"/></g>
<g><path style="opacity:0.926" fill="#084ea1" d="M 434.5,268.5 C 440.842,268.334 447.175,268.5 453.5,269C 453.957,269.414 454.291,269.914 454.5,270.5C 447.785,285.638 441.451,300.971 435.5,316.5C 442.167,317.833 448.833,317.833 455.5,316.5C 459.429,306.145 463.762,295.978 468.5,286C 470.259,280.645 472.592,275.145 475.5,269.5C 482.03,268.182 488.53,268.182 495,269.5C 487.526,290.966 479.026,312.133 469.5,333C 449.5,333.667 429.5,333.667 409.5,333C 408.833,332.333 408.167,331.667 407.5,331C 411.5,322.667 415.5,314.333 419.5,306C 423.742,293.491 428.742,280.991 434.5,268.5 Z"/></g>
<g><path style="opacity:0.926" fill="#074ea2" d="M 504.5,268.5 C 524.5,268.5 544.5,268.5 564.5,268.5C 562.594,277.592 559.428,286.259 555,294.5C 552.386,297.79 549.219,300.29 545.5,302C 548.094,305.051 548.927,308.551 548,312.5C 545.442,319.282 542.609,325.949 539.5,332.5C 519.167,333.833 498.833,333.833 478.5,332.5C 478.291,331.914 477.957,331.414 477.5,331C 483.34,317.618 489.34,303.951 495.5,290C 497.645,282.736 500.645,275.569 504.5,268.5 Z M 517.5,284.5 C 524.508,284.334 531.508,284.5 538.5,285C 535.951,292.984 530.451,296.151 522,294.5C 519.167,294.333 516.333,294.167 513.5,294C 515.902,291.297 517.235,288.13 517.5,284.5 Z M 508.5,306.5 C 512.783,306.571 517.116,306.571 521.5,306.5C 528.25,308.256 529.25,311.756 524.5,317C 517.833,317.667 511.167,317.667 504.5,317C 506.254,313.659 507.587,310.159 508.5,306.5 Z"/></g>
<g><path style="opacity:0.924" fill="#084ea1" d="M 573.5,268.5 C 593.743,268.173 613.909,268.507 634,269.5C 625.973,290.741 617.473,311.907 608.5,333C 603.391,333.583 598.557,334.083 594,334.5C 587.738,333.377 586.904,330.543 591.5,326C 591.167,325.667 590.833,325.333 590.5,325C 592.384,323.05 593.718,320.716 594.5,318C 594.167,317.5 593.833,317 593.5,316.5C 587.263,317.64 581.096,317.64 575,316.5C 572.705,322.075 570.038,327.408 567,332.5C 564.273,333.063 561.607,333.73 559,334.5C 557,334.5 555,334.5 553,334.5C 551.333,333.833 549.667,333.167 548,332.5C 552.628,317.299 558.461,302.466 565.5,288C 565.167,287.667 564.833,287.333 564.5,287C 567.784,280.986 570.784,274.819 573.5,268.5 Z M 587.5,284.5 C 594.508,284.334 601.508,284.5 608.5,285C 605.087,290.081 602.754,295.581 601.5,301.5C 594.492,301.666 587.492,301.5 580.5,301C 583.129,295.611 585.462,290.111 587.5,284.5 Z"/></g>
<g><path style="opacity:0.925" fill="#084ea1" d="M 642.5,268.5 C 662.833,268.5 683.167,268.5 703.5,268.5C 696.427,289.88 688.26,310.88 679,331.5C 677.559,332.87 675.892,333.87 674,334.5C 669.053,334.263 663.886,333.929 658.5,333.5C 663.456,317.497 669.456,302.33 676.5,288C 675.542,286.853 675.875,285.853 677.5,285C 670.476,284.169 663.476,284.336 656.5,285.5C 651.177,297.636 646.343,309.969 642,322.5C 640.254,326.327 638.254,329.993 636,333.5C 635.667,333.167 635.333,332.833 635,332.5C 630.884,334.087 626.884,334.754 623,334.5C 620.499,334.05 618.333,333.05 616.5,331.5C 625.264,310.917 633.93,289.917 642.5,268.5 Z"/></g>
<g><path style="opacity:0.924" fill="#084ea1" d="M 712.5,268.5 C 732.833,268.5 753.167,268.5 773.5,268.5C 772.513,273.296 771.013,277.963 769,282.5C 761.861,299.582 754.528,316.582 747,333.5C 745.372,332.903 743.705,333.237 742,334.5C 739,333.167 736,333.167 733,334.5C 731.333,333.833 729.667,333.167 728,332.5C 729.209,327.212 731.042,322.045 733.5,317C 733.167,316.833 732.833,316.667 732.5,316.5C 726.36,317.302 720.027,317.468 713.5,317C 711.361,322.416 709.028,327.749 706.5,333C 704.567,333.251 702.734,333.751 701,334.5C 696.469,333.94 691.636,333.607 686.5,333.5C 694.291,311.859 702.958,290.192 712.5,268.5 Z M 726.5,284.5 C 732.868,284.17 739.202,284.504 745.5,285.5C 744.271,290.643 742.271,295.81 739.5,301C 732.833,301.667 726.167,301.667 719.5,301C 722.517,295.779 724.851,290.279 726.5,284.5 Z"/></g>
<g><path style="opacity:0.927" fill="#074ea2" d="M 364.5,269.5 C 384.833,269.5 405.167,269.5 425.5,269.5C 422.764,279.544 418.764,289.044 413.5,298C 411.236,298.236 409.069,298.736 407,299.5C 403.543,300.142 400.21,299.476 397,297.5C 396.586,297.957 396.086,298.291 395.5,298.5C 394.879,293.535 396.213,289.035 399.5,285C 392.508,284.5 385.508,284.334 378.5,284.5C 375.128,295.741 370.794,306.574 365.5,317C 372.492,317.5 379.492,317.666 386.5,317.5C 387.687,313.075 389.021,308.741 390.5,304.5C 397.508,304.334 404.508,304.5 411.5,305C 407.884,314.52 403.884,323.854 399.5,333C 379.503,333.5 359.503,333.667 339.5,333.5C 343.091,320.884 347.757,309.05 353.5,298C 353.167,297.667 352.833,297.333 352.5,297C 355.915,292.331 357.582,287.665 357.5,283C 360.274,279.306 362.607,274.806 364.5,269.5 Z"/></g>
<g><path style="opacity:0.031" fill="#6e5286" d="M 60.5,279.5 C 62.1628,281.438 62.8294,283.772 62.5,286.5C 61.7109,286.217 61.0442,285.717 60.5,285C 61.1383,283.293 61.1383,281.46 60.5,279.5 Z"/></g>
<g><path style="opacity:0.243" fill="#e16565" d="M 71.5,330.5 C 116.428,331.494 161.428,331.828 206.5,331.5C 207.833,331.833 207.833,332.167 206.5,332.5C 162.167,332.5 117.833,332.5 73.5,332.5C 72.1667,332.5 71.5,331.833 71.5,330.5 Z"/></g>
<g><path style="opacity:0.031" fill="#3c4c90" d="M 73.5,332.5 C 117.833,332.5 162.167,332.5 206.5,332.5C 206.631,333.239 206.464,333.906 206,334.5C 161.736,333.836 117.569,333.169 73.5,332.5 Z"/></g>
</svg>
