<svg width="163" height="40" viewBox="0 0 163 40" fill="none" xmlns="http://www.w3.org/2000/svg">
<path fill-rule="evenodd" clip-rule="evenodd" d="M76.0516 3.69706L77.8035 3.69739C78.5578 3.69773 79.0963 3.86536 79.4044 4.1962C79.6396 4.44865 79.7427 4.8124 79.7102 5.27761C79.6151 6.63659 78.4584 6.92026 77.5171 6.90703L75.8266 6.90635L76.0516 3.69706ZM79.628 8.08447C80.7176 7.56022 81.361 6.59485 81.4485 5.33971C81.512 4.44186 81.2653 3.66652 80.7356 3.09748C80.1095 2.4263 79.1221 2.07103 77.8799 2.07069L74.4218 2.06934L73.7883 11.1071L75.5318 11.1082L75.7133 8.52151L77.4896 8.52185C77.6379 8.52151 77.7784 8.5171 77.9151 8.50862L79.5782 11.1092L81.5676 11.1095L79.628 8.08447Z" fill="#6E6E6E"/>
<path fill-rule="evenodd" clip-rule="evenodd" d="M66.4354 17.9273C64.2075 17.9266 62.3924 19.6826 62.2302 21.9978C62.066 24.333 63.633 26.111 65.861 26.1117C67.0571 26.112 68.4849 25.4514 69.568 24.4191L71.6097 26.7947C69.9467 28.4279 67.5633 29.4818 65.4182 29.4808C61.0653 29.4791 58.0512 26.2949 58.3494 22.0375C58.6426 17.8621 62.1834 14.7231 66.5986 14.7244C68.7435 14.7248 70.9243 15.6762 72.2609 17.2052L69.8901 19.8302C69.0224 18.6721 67.6936 17.9273 66.4354 17.9273Z" fill="#6E6E6E"/>
<path fill-rule="evenodd" clip-rule="evenodd" d="M76.2586 22.0851C76.0933 24.4414 77.8004 26.2601 79.9456 26.2615C82.1115 26.2615 83.9727 24.4441 84.1379 22.0878C84.3032 19.7316 82.6944 17.9542 80.5286 17.9532C78.3627 17.9525 76.4238 19.7289 76.2586 22.0851ZM88.016 22.0688C87.7184 26.3049 84.1542 29.4871 79.6779 29.4857C75.2023 29.4844 72.0839 26.2998 72.3811 22.0638C72.6774 17.8467 76.2382 14.7276 80.7138 14.729C85.1901 14.7307 88.3102 17.8725 88.016 22.0688Z" fill="#6E6E6E"/>
<path fill-rule="evenodd" clip-rule="evenodd" d="M93.7315 14.8375L99.6788 23.5607L100.291 14.8391L103.796 14.8405L102.78 29.3281L99.4799 29.3271L93.5286 20.6442L92.9199 29.3244L89.3933 29.3234L90.4099 14.8358L93.7315 14.8375Z" fill="#6E6E6E"/>
<path fill-rule="evenodd" clip-rule="evenodd" d="M109.953 14.8429L115.9 23.5662L116.512 14.8446L120.017 14.8463L119.001 29.3336L115.702 29.3326L109.751 20.6497L109.143 29.3299L105.615 29.3289L106.632 14.8412L109.953 14.8429Z" fill="#6E6E6E"/>
<path fill-rule="evenodd" clip-rule="evenodd" d="M134.259 14.8508L134.049 17.8677L126.416 17.865L126.226 20.5721L133.116 20.5751L132.905 23.5723L126.014 23.5903L125.822 26.3178L133.66 26.3212L133.448 29.3387L121.836 29.3343L122.852 14.847L134.259 14.8508Z" fill="#6E6E6E"/>
<path fill-rule="evenodd" clip-rule="evenodd" d="M143.435 17.9533C141.206 17.9527 139.391 19.7097 139.228 22.0245C139.064 24.3597 140.631 26.1371 142.86 26.1377C144.056 26.1388 145.485 25.4774 146.569 24.4449L148.61 26.8218C146.948 28.455 144.563 29.5079 142.418 29.5075C138.066 29.5062 135.051 26.3217 135.349 22.0645C135.641 17.8889 139.183 14.7491 143.597 14.7505C145.742 14.7518 147.925 15.7033 149.262 17.2323L146.892 19.8562C146.022 18.6981 144.693 17.9544 143.435 17.9533Z" fill="#6E6E6E"/>
<path fill-rule="evenodd" clip-rule="evenodd" d="M162.203 14.8607L161.984 17.9811L157.653 17.9794L156.854 29.3463L153.08 29.3453L153.878 17.9781L149.588 17.9767L149.807 14.8563L162.203 14.8607Z" fill="#6E6E6E"/>
<path fill-rule="evenodd" clip-rule="evenodd" d="M0 15.9255H53.1253C53.1253 15.9255 41.962 21.5742 35.103 25.7438C28.2437 29.913 15.0634 40 15.0634 40L25.2848 24.1296L0 15.9255Z" fill="#C4232A"/>
<path fill-rule="evenodd" clip-rule="evenodd" d="M47.2075 16.06L33.0857 13.2912L42.3617 0L47.2075 16.06Z" fill="#C4232A"/>
<path fill-rule="evenodd" clip-rule="evenodd" d="M66.7602 7.34614L64.2115 7.34512L65.6859 4.4877L66.7602 7.34614ZM65.128 2.06665L60.3711 11.1031L62.2635 11.1034L63.3931 8.92397L67.3563 8.92601L68.1806 11.1058L70.0343 11.1055L66.5454 2.06699L65.128 2.06665Z" fill="#6E6E6E"/>
<path fill-rule="evenodd" clip-rule="evenodd" d="M70.7148 11.1001L72.4583 11.1008L73.0921 2.06303L71.3484 2.06201L70.7148 11.1001Z" fill="#6E6E6E"/>
</svg>
