<?xml version="1.0" encoding="UTF-8" standalone="no"?>
<!-- Created with Inkscape (http://www.inkscape.org/) -->

<svg
   xmlns:dc="http://purl.org/dc/elements/1.1/"
   xmlns:cc="http://creativecommons.org/ns#"
   xmlns:rdf="http://www.w3.org/1999/02/22-rdf-syntax-ns#"
   xmlns:svg="http://www.w3.org/2000/svg"
   xmlns="http://www.w3.org/2000/svg"
   version="1.1"
   width="557"
   height="90"
   viewBox="0 0 556.99997 89.999998"
   id="svg2"
   xml:space="preserve"><metadata
   id="metadata11"><rdf:RDF><cc:Work
       rdf:about=""><dc:format>image/svg+xml</dc:format><dc:type
         rdf:resource="http://purl.org/dc/dcmitype/StillImage" /><dc:title></dc:title></cc:Work></rdf:RDF></metadata><defs
   id="defs9" />
<path
   d="m 43.995751,52.848 -2.404,7.856 h -10.671 l 13.837,-40.015 h 11.814 l 13.866,40.015 h -10.964 l -2.404,-7.856 h -13.074 z m 10.641,-7.475 -4.222,-13.075 -4.045,13.075 h 8.267 z m 46.083999,15.332 h -8.588999 l -0.293,-2.814 c -2.15,2.677 -4.925,4.016 -8.326,4.016 -2.599,0 -4.778,-0.645 -6.538,-1.935 -2.091,-1.543 -3.322,-3.703 -3.694,-6.479 -0.136,-0.938 -0.205,-2.443 -0.205,-4.514 V 31.888 h 9.41 v 16.71 c 0,1.524 0.147,2.707 0.44,3.546 0.567,1.604 1.798,2.404 3.694,2.404 1.27,0 2.345,-0.41 3.225,-1.23 0.977,-0.88 1.465,-2.453 1.465,-4.72 v -16.71 h 9.409999 v 28.817 z m 26.735,-28.817 h 8.531 V 58.33 c 0,2.229 -0.098,3.733 -0.293,4.515 -0.645,2.482 -2.414,4.553 -5.306,6.215 -2.345,1.329 -5.58,1.993 -9.704,1.993 -2.56,0 -4.642,-0.293 -6.244,-0.879 -4.397,-1.622 -6.752,-4.447 -7.064,-8.472 h 9.527 c 0.332,1.016 0.791,1.709 1.378,2.081 0.801,0.527 1.866,0.792 3.195,0.792 2.423,0 4.046,-0.812 4.867,-2.433 0.391,-0.762 0.586,-1.847 0.586,-3.254 v -2.052 c -2.13,1.72 -4.661,2.58 -7.592,2.58 -3.558,0 -6.596,-1.046 -9.118,-3.137 -3.048,-2.521 -4.573,-6.146 -4.573,-10.876 0,-4.221 1.27,-7.651 3.811,-10.29 2.58,-2.677 5.804,-4.017 9.674,-4.017 2.267,0 4.222,0.479 5.863,1.437 0.645,0.352 1.358,0.967 2.14,1.847 l 0.322,-2.492 z m -6.654,6.068 c -1.916,0 -3.44,0.723 -4.573,2.169 -0.978,1.25 -1.466,2.922 -1.466,5.013 0,2.248 0.605,4.045 1.817,5.394 1.114,1.251 2.58,1.876 4.397,1.876 2.013,0 3.527,-0.752 4.544,-2.257 0.781,-1.192 1.172,-2.833 1.172,-4.925 0,-2.208 -0.469,-3.938 -1.407,-5.189 -1.016,-1.388 -2.511,-2.081 -4.484,-2.081 z m 46.875,2.902 h -8.824 c -0.078,-1.036 -0.273,-1.778 -0.586,-2.228 -0.704,-0.997 -1.925,-1.495 -3.665,-1.495 -1.133,0 -2.042,0.205 -2.726,0.615 -0.685,0.43 -1.026,1.026 -1.026,1.789 0,0.938 0.537,1.603 1.612,1.993 0.918,0.313 1.876,0.557 2.873,0.733 l 3.225,0.586 c 2.599,0.45 4.68,1.124 6.244,2.022 1.231,0.704 2.188,1.72 2.873,3.049 0.625,1.212 0.938,2.541 0.938,3.986 0,3.264 -1.426,5.834 -4.28,7.71 -2.306,1.524 -5.365,2.286 -9.176,2.286 -3.869,0 -7.104,-0.665 -9.703,-1.993 -3.42,-1.759 -5.15,-4.69 -5.188,-8.794 h 9.176 c -0.02,1.251 0.352,2.247 1.113,2.99 0.899,0.879 2.267,1.319 4.104,1.319 1.407,0 2.511,-0.254 3.312,-0.762 0.743,-0.469 1.114,-1.114 1.114,-1.935 0,-0.587 -0.284,-1.163 -0.851,-1.729 -0.684,-0.665 -2.15,-1.182 -4.397,-1.554 l -3.02,-0.528 c -2.737,-0.469 -4.798,-1.113 -6.186,-1.934 -2.385,-1.427 -3.576,-3.508 -3.576,-6.245 0,-3.264 1.29,-5.775 3.869,-7.534 2.481,-1.681 5.775,-2.521 9.879,-2.521 5.94,0 9.84,1.69 11.697,5.071 0.687,1.214 1.077,2.915 1.175,5.103 z m 5.893,-20.169 h 9.41 v 13.69 c 2.404,-2.189 5.296,-3.284 8.677,-3.284 2.58,0 4.955,0.694 7.124,2.082 2.189,1.408 3.801,3.391 4.837,5.951 0.84,2.092 1.26,4.378 1.26,6.86 0,4.124 -1.036,7.71 -3.107,10.759 -1.192,1.759 -2.755,3.088 -4.69,3.987 -1.681,0.782 -3.518,1.172 -5.511,1.172 -2.404,0 -4.514,-0.547 -6.332,-1.642 -0.743,-0.449 -1.593,-1.143 -2.55,-2.081 v 2.521 h -9.118 V 20.689 z m 15.712,17.589 c -3.948,0 -5.921,2.667 -5.921,8.003 0,1.994 0.214,3.499 0.645,4.515 0.978,2.365 2.765,3.547 5.365,3.547 3.85,0 5.775,-2.619 5.775,-7.857 -0.001,-5.471 -1.955,-8.208 -5.864,-8.208 z m 48.194,22.427 h -8.589 l -0.293,-2.814 c -2.15,2.677 -4.925,4.016 -8.326,4.016 -2.599,0 -4.778,-0.645 -6.538,-1.935 -2.091,-1.543 -3.322,-3.703 -3.693,-6.479 -0.137,-0.938 -0.205,-2.443 -0.205,-4.514 V 31.888 h 9.41 v 16.71 c 0,1.524 0.146,2.707 0.439,3.546 0.567,1.604 1.798,2.404 3.694,2.404 1.27,0 2.345,-0.41 3.225,-1.23 0.977,-0.88 1.465,-2.453 1.465,-4.72 v -16.71 h 9.41 v 28.817 z m 6.304,-28.817 h 8.501 l 0.322,3.078 c 1.935,-2.58 4.534,-3.87 7.798,-3.87 0.391,0 1.017,0.04 1.876,0.118 v 7.856 c -0.743,-0.059 -1.251,-0.088 -1.524,-0.088 -2.736,0 -4.808,1.017 -6.215,3.048 -0.684,0.978 -1.095,2.131 -1.231,3.46 -0.078,0.704 -0.117,1.603 -0.117,2.697 v 12.518 h -9.41 V 31.888 z m 42.565,0 h 8.531 V 58.33 c 0,2.229 -0.099,3.733 -0.293,4.515 -0.646,2.482 -2.415,4.553 -5.307,6.215 -2.345,1.329 -5.58,1.993 -9.704,1.993 -2.56,0 -4.642,-0.293 -6.243,-0.879 -4.397,-1.622 -6.753,-4.447 -7.065,-8.472 h 9.527 c 0.333,1.016 0.792,1.709 1.378,2.081 0.801,0.527 1.866,0.792 3.195,0.792 2.423,0 4.046,-0.812 4.866,-2.433 0.392,-0.762 0.587,-1.847 0.587,-3.254 v -2.052 c -2.13,1.72 -4.661,2.58 -7.594,2.58 -3.556,0 -6.595,-1.046 -9.116,-3.137 -3.049,-2.521 -4.573,-6.146 -4.573,-10.876 0,-4.221 1.27,-7.651 3.811,-10.29 2.58,-2.677 5.804,-4.017 9.674,-4.017 2.267,0 4.221,0.479 5.862,1.437 0.646,0.352 1.358,0.967 2.141,1.847 l 0.323,-2.492 z m -6.654,6.068 c -1.916,0 -3.439,0.723 -4.573,2.169 -0.978,1.25 -1.467,2.922 -1.467,5.013 0,2.248 0.606,4.045 1.818,5.394 1.114,1.251 2.58,1.876 4.397,1.876 2.013,0 3.527,-0.752 4.544,-2.257 0.781,-1.192 1.173,-2.833 1.173,-4.925 0,-2.208 -0.47,-3.938 -1.407,-5.189 -1.017,-1.388 -2.512,-2.081 -4.485,-2.081 z m 46.024,14.892 -2.403,7.856 h -10.671 l 13.836,-40.015 h 11.814 l 13.866,40.015 h -10.964 l -2.403,-7.856 h -13.075 z m 10.642,-7.475 -4.221,-13.075 -4.046,13.075 h 8.267 z m 18.557,-24.684 h 9.41 v 7.417 h -9.41 v -7.417 z m 0,11.199 h 9.41 v 28.817 h -9.41 V 31.888 z m 15.743,0 h 8.502 l 0.322,3.078 c 1.935,-2.58 4.533,-3.87 7.798,-3.87 0.391,0 1.016,0.04 1.876,0.118 v 7.856 c -0.743,-0.059 -1.251,-0.088 -1.524,-0.088 -2.736,0 -4.808,1.017 -6.215,3.048 -0.685,0.978 -1.095,2.131 -1.231,3.46 -0.078,0.704 -0.117,1.603 -0.117,2.697 v 12.518 h -9.41 V 31.888 z m 20.081,0 h 9.614 l 1.966,7.241 c 0.996,3.655 1.748,7.017 2.257,10.084 0.508,-3.127 1.191,-6.488 2.052,-10.084 l 1.7,-7.241 h 8.766 l 1.876,7.241 c 0.136,0.586 0.635,2.766 1.495,6.537 0.332,1.642 0.566,2.825 0.703,3.547 0.665,-3.732 1.388,-7.094 2.169,-10.084 l 1.936,-7.241 h 9.47 l -8.562,28.817 h -8.971 l -1.846,-6.655 -0.469,-1.817 c -1.075,-4.144 -1.76,-7.163 -2.053,-9.059 -0.274,2.013 -1.075,5.639 -2.404,10.876 l -1.788,6.655 h -8.882 l -9.029,-28.817 z m 55.141,9.175 h -8.59 c 0,-2.56 0.792,-4.701 2.374,-6.42 2.463,-2.638 6.244,-3.957 11.345,-3.957 5.845,0 9.802,1.69 11.874,5.071 0.956,1.544 1.436,3.605 1.436,6.186 v 14.774 c 0,1.212 0.03,1.984 0.088,2.316 0.059,0.333 0.293,0.89 0.704,1.671 h -8.736 l -0.527,-2.375 c -1.173,0.978 -2.022,1.623 -2.551,1.935 -1.837,1.094 -4.113,1.642 -6.83,1.642 -2.599,0 -4.857,-0.577 -6.772,-1.729 -1.152,-0.684 -2.08,-1.563 -2.784,-2.639 -0.938,-1.407 -1.408,-2.951 -1.408,-4.631 0,-2.384 0.86,-4.397 2.581,-6.039 1.504,-1.408 3.859,-2.502 7.064,-3.284 1.055,-0.254 2.375,-0.508 3.958,-0.762 2.442,-0.469 3.859,-0.762 4.251,-0.879 1.094,-0.391 1.642,-1.114 1.642,-2.169 0,-0.859 -0.431,-1.543 -1.291,-2.052 -0.703,-0.411 -1.68,-0.615 -2.932,-0.615 -1.915,0 -3.293,0.538 -4.133,1.612 -0.489,0.625 -0.744,1.406 -0.763,2.344 z m 9.38,5.834 c -1.309,0.41 -3.293,0.938 -5.95,1.583 -3.049,0.743 -4.573,2.033 -4.573,3.869 0,1.114 0.488,1.925 1.465,2.433 0.646,0.333 1.437,0.499 2.375,0.499 1.446,0 2.775,-0.312 3.987,-0.938 1.446,-0.743 2.287,-1.759 2.521,-3.049 0.116,-0.646 0.175,-1.427 0.175,-2.345 v -2.052 z m 10.994,-15.009 h 9.82 l 3.606,12.02 c 0.722,2.287 1.348,4.817 1.876,7.592 l 0.264,-1.495 c 0.215,-1.192 0.547,-2.716 0.997,-4.573 l 0.322,-1.524 3.107,-12.02 h 9.293 l -9.41,29.11 c -1.114,3.869 -2.688,6.459 -4.72,7.768 -1.271,0.762 -3,1.202 -5.189,1.319 -0.566,0.019 -1.388,0.029 -2.462,0.029 h -4.046 V 63.87 h 2.199 c 3.067,0 4.603,-1.056 4.603,-3.166 0,-1.25 -0.274,-2.599 -0.821,-4.045 l -9.439,-24.771 z m 57.312,8.97 h -8.824 c -0.079,-1.036 -0.274,-1.778 -0.587,-2.228 -0.703,-0.997 -1.925,-1.495 -3.664,-1.495 -1.133,0 -2.043,0.205 -2.727,0.615 -0.684,0.43 -1.026,1.026 -1.026,1.789 0,0.938 0.538,1.603 1.613,1.993 0.918,0.313 1.876,0.557 2.872,0.733 l 3.225,0.586 c 2.601,0.45 4.681,1.124 6.244,2.022 1.231,0.704 2.188,1.72 2.874,3.049 0.624,1.212 0.938,2.541 0.938,3.986 0,3.264 -1.428,5.834 -4.281,7.71 -2.306,1.524 -5.364,2.286 -9.175,2.286 -3.87,0 -7.104,-0.665 -9.704,-1.993 -3.42,-1.759 -5.149,-4.69 -5.188,-8.794 h 9.175 c -0.02,1.251 0.353,2.247 1.114,2.99 0.899,0.879 2.268,1.319 4.104,1.319 1.407,0 2.511,-0.254 3.312,-0.762 0.743,-0.469 1.114,-1.114 1.114,-1.935 0,-0.587 -0.283,-1.163 -0.85,-1.729 -0.686,-0.665 -2.15,-1.182 -4.398,-1.554 l -3.019,-0.528 c -2.736,-0.469 -4.799,-1.113 -6.187,-1.934 -2.384,-1.427 -3.575,-3.508 -3.575,-6.245 0,-3.264 1.289,-5.775 3.869,-7.534 2.481,-1.681 5.774,-2.521 9.879,-2.521 5.941,0 9.84,1.69 11.697,5.071 0.685,1.214 1.076,2.915 1.175,5.103 z"
   id="path3"
   style="fill:#00235F;fill-opacity:1" />
</svg>