<?xml version="1.0" encoding="UTF-8" standalone="no"?>
<!DOCTYPE svg PUBLIC "-//W3C//DTD SVG 1.1//EN" "http://www.w3.org/Graphics/SVG/1.1/DTD/svg11.dtd">
<svg xmlns="http://www.w3.org/2000/svg" version="1.1" viewBox="0.00 0.00 250.00 91.00">
<g stroke-width="0.00" fill="none" stroke-linecap="butt">
<path stroke="#ac7037" vector-effect="non-scaling-stroke" d="
  M 62.86 36.16
  L 49.92 40.81"
/>
<path stroke="#ac7037" vector-effect="non-scaling-stroke" d="
  M 35.66 50.64
  Q 26.55 56.73 14.89 57.83"
/>
<path stroke="#ac7037" vector-effect="non-scaling-stroke" d="
  M 67.23 43.47
  L 57.53 55.08"
/>
<path stroke="#ac7037" vector-effect="non-scaling-stroke" d="
  M 28.31 64.20
  Q 27.80 64.08 27.55 63.82
  Q 27.14 63.40 27.71 63.25
  L 29.17 62.87"
/>
<path stroke="#ac7037" vector-effect="non-scaling-stroke" d="
  M 54.15 48.30
  L 61.58 42.56
  Q 61.73 42.45 61.65 42.30
  L 61.65 42.30
  Q 61.56 42.12 61.40 42.20
  L 53.13 46.64"
/>
<path stroke="#ac7037" vector-effect="non-scaling-stroke" d="
  M 30.02 60.69
  Q 21.45 62.23 13.64 59.82"
/>
</g>
<path fill="#6c1241" d="
  M 62.86 36.16
  L 49.92 40.81
  L 45.64 32.84
  Q 45.35 32.30 45.06 32.85
  L 35.66 50.64
  Q 26.55 56.73 14.89 57.83
  L 45.20 7.40
  A 0.21 0.21 0.0 0 1 45.56 7.40
  L 62.86 36.16
  Z"
/>
<path fill="#ecce2c" d="
  M 67.23 43.47
  L 57.53 55.08
  C 49.73 62.98 43.35 67.66 31.54 64.81
  Q 29.81 64.39 28.31 64.20
  Q 27.80 64.08 27.55 63.82
  Q 27.14 63.40 27.71 63.25
  L 29.17 62.87
  C 39.80 61.95 47.11 56.15 54.15 48.30
  L 61.58 42.56
  Q 61.73 42.45 61.65 42.30
  L 61.65 42.30
  Q 61.56 42.12 61.40 42.20
  L 53.13 46.64
  C 45.88 52.47 39.98 58.58 30.02 60.69
  Q 21.45 62.23 13.64 59.82
  Q 11.52 59.42 10.17 58.47
  Q 9.69 58.13 10.27 58.10
  L 14.89 57.83
  Q 26.55 56.73 35.66 50.64
  L 49.92 40.81
  L 62.86 36.16
  Q 71.26 34.08 80.55 33.59
  Q 83.75 33.42 80.77 34.59
  Q 74.22 37.17 67.87 42.88
  Q 67.37 43.33 67.23 43.47
  Z"
/>
<path fill="#004474" d="
  M 164.79 45.97
  C 159.55 38.65 148.96 39.48 145.89 48.16
  Q 144.41 52.33 146.41 56.27
  C 150.23 63.79 160.42 64.19 164.71 56.96
  A 0.79 0.78 18.6 0 1 165.48 56.58
  L 165.84 56.62
  Q 166.44 56.69 166.14 57.21
  C 160.21 67.48 144.94 64.38 144.27 52.45
  C 143.56 39.91 158.14 35.33 165.67 45.01
  A 0.61 0.61 0.0 0 1 165.48 45.91
  L 165.20 46.07
  A 0.32 0.32 0.0 0 1 164.79 45.97
  Z"
/>
<path fill="#004474" d="
  M 97.28 57.77
  L 87.95 57.77
  Q 87.38 57.77 87.17 58.29
  L 85.53 62.29
  Q 85.30 62.85 84.69 62.87
  L 82.00 62.96
  Q 81.46 62.98 81.66 62.48
  L 90.39 41.48
  A 2.34 2.33 -45.1 0 1 94.70 41.47
  L 103.40 62.37
  Q 103.65 62.97 103.00 62.96
  L 100.71 62.90
  Q 99.73 62.88 99.39 61.97
  L 98.00 58.27
  A 0.78 0.77 79.5 0 0 97.28 57.77
  Z
  M 92.90 45.64
  A 0.35 0.35 0.0 0 0 92.25 45.63
  L 88.79 54.11
  A 0.35 0.35 0.0 0 0 89.11 54.59
  L 95.95 54.59
  A 0.35 0.35 0.0 0 0 96.28 54.11
  L 92.90 45.64
  Z"
/>
<path fill="#004474" d="
  M 109.24 53.11
  L 109.17 59.22
  A 0.36 0.36 0.0 0 0 109.53 59.58
  L 120.80 59.59
  A 0.36 0.36 0.0 0 1 121.16 59.96
  L 121.12 62.53
  A 0.36 0.36 0.0 0 1 120.76 62.88
  L 106.03 62.88
  A 0.36 0.36 0.0 0 1 105.67 62.52
  L 105.65 40.65
  A 0.36 0.36 0.0 0 1 106.01 40.29
  L 120.65 40.31
  A 0.36 0.36 0.0 0 1 121.01 40.67
  L 120.99 43.18
  A 0.36 0.36 0.0 0 1 120.63 43.54
  L 109.59 43.55
  A 0.36 0.36 0.0 0 0 109.24 43.90
  L 109.16 49.15
  A 0.36 0.36 0.0 0 0 109.52 49.51
  L 118.16 49.51
  A 0.36 0.36 0.0 0 1 118.52 49.87
  L 118.52 52.39
  A 0.36 0.36 0.0 0 1 118.16 52.75
  L 109.60 52.75
  A 0.36 0.36 0.0 0 0 109.24 53.11
  Z"
/>
<path fill="#004474" d="
  M 127.49 55.26
  L 127.49 62.48
  Q 127.49 62.95 127.02 62.94
  L 124.53 62.86
  Q 123.96 62.85 123.96 62.28
  L 123.96 40.99
  Q 123.95 40.49 124.46 40.44
  C 130.37 39.93 138.98 39.24 139.77 46.88
  Q 140.25 51.57 135.82 53.99
  Q 135.40 54.22 135.65 54.63
  L 140.21 62.21
  Q 140.67 62.97 139.78 62.95
  L 137.50 62.91
  Q 136.59 62.89 136.14 62.10
  L 132.19 55.18
  Q 131.94 54.74 131.42 54.74
  L 127.99 54.75
  Q 127.49 54.75 127.49 55.26
  Z
  M 127.49 43.94
  L 127.47 51.26
  A 0.42 0.42 0.0 0 0 127.89 51.68
  L 131.57 51.69
  A 4.64 3.95 0.1 0 0 136.22 47.75
  L 136.22 47.49
  A 4.64 3.95 0.1 0 0 131.59 43.53
  L 127.91 43.52
  A 0.42 0.42 0.0 0 0 127.49 43.94
  Z"
/>
<path fill="#004474" d="
  M 171.04 56.25
  L 168.24 62.57
  A 0.35 0.34 1.4 0 1 168.03 62.76
  L 167.25 63.04
  Q 166.55 63.28 166.85 62.60
  L 176.61 40.56
  A 0.77 0.77 0.0 0 1 178.02 40.56
  L 187.75 62.54
  Q 187.96 63.01 187.44 63.01
  L 186.95 63.01
  Q 186.59 63.01 186.45 62.69
  L 183.64 56.36
  Q 183.38 55.79 182.76 55.79
  L 171.74 55.79
  Q 171.24 55.79 171.04 56.25
  Z
  M 171.98 54.14
  A 0.31 0.31 0.0 0 0 172.26 54.58
  L 182.39 54.56
  A 0.31 0.31 0.0 0 0 182.68 54.12
  L 177.59 42.56
  A 0.31 0.31 0.0 0 0 177.02 42.57
  L 171.98 54.14
  Z"
/>
<path fill="#004474" d="
  M 191.76 54.52
  L 191.76 62.42
  Q 191.76 63.11 191.08 63.01
  L 190.73 62.96
  A 0.30 0.29 4.6 0 1 190.48 62.67
  L 190.47 40.76
  A 0.47 0.47 0.0 0 1 190.92 40.29
  C 195.88 40.11 203.70 39.20 204.50 46.36
  Q 205.04 51.28 200.09 53.49
  Q 199.62 53.69 199.89 54.12
  L 205.02 62.54
  Q 205.40 63.18 204.68 63.02
  L 203.89 62.85
  A 0.55 0.53 80.6 0 1 203.54 62.59
  L 198.70 54.51
  A 1.10 1.10 0.0 0 0 197.76 53.98
  L 192.23 54.04
  Q 191.76 54.04 191.76 54.52
  Z
  M 191.78 41.98
  L 191.74 52.30
  A 0.45 0.45 0.0 0 0 192.19 52.75
  L 197.38 52.77
  A 5.82 5.33 0.2 0 0 203.22 47.46
  L 203.22 46.90
  A 5.82 5.33 0.2 0 0 197.42 41.55
  L 192.23 41.53
  A 0.45 0.45 0.0 0 0 191.78 41.98
  Z"
/>
<rect fill="#004474" x="208.75" y="40.29" width="1.28" height="22.64" rx="0.47"/>
<path fill="#004474" d="
  M 226.10 49.77
  Q 225.31 50.09 226.06 50.48
  C 229.85 52.48 231.99 55.69 229.65 59.75
  C 227.11 64.17 219.96 63.01 215.63 62.98
  Q 214.90 62.98 214.90 62.25
  L 214.90 40.81
  A 0.50 0.49 -1.2 0 1 215.38 40.32
  C 218.73 40.18 225.85 39.33 228.00 42.54
  C 229.73 45.11 229.10 48.56 226.10 49.77
  Z
  M 216.18 41.95
  L 216.22 49.45
  A 0.45 0.45 0.0 0 0 216.67 49.90
  L 222.80 49.87
  A 4.86 4.08 -0.3 0 0 227.64 45.76
  L 227.64 45.52
  A 4.86 4.08 -0.3 0 0 222.76 41.47
  L 216.63 41.50
  A 0.45 0.45 0.0 0 0 216.18 41.95
  Z
  M 216.22 51.49
  L 216.20 61.33
  A 0.44 0.44 0.0 0 0 216.64 61.77
  L 223.25 61.78
  A 5.97 5.26 0.1 0 0 229.23 56.53
  L 229.23 56.33
  A 5.97 5.26 0.1 0 0 223.27 51.06
  L 216.66 51.05
  A 0.44 0.44 0.0 0 0 216.22 51.49
  Z"
/>
<path fill="#004474" d="
  M 235.57 50.10
  L 245.45 50.05
  A 0.28 0.28 0.0 0 1 245.73 50.32
  L 245.76 50.99
  A 0.28 0.28 0.0 0 1 245.48 51.28
  L 235.57 51.28
  A 0.28 0.28 0.0 0 0 235.29 51.56
  L 235.28 61.40
  A 0.28 0.28 0.0 0 0 235.56 61.68
  L 248.15 61.69
  A 0.28 0.28 0.0 0 1 248.43 61.98
  L 248.42 62.69
  A 0.28 0.28 0.0 0 1 248.14 62.96
  L 234.27 62.96
  A 0.28 0.28 0.0 0 1 233.99 62.68
  L 233.99 40.55
  A 0.28 0.28 0.0 0 1 234.27 40.27
  L 248.04 40.24
  A 0.28 0.28 0.0 0 1 248.32 40.49
  L 248.40 41.23
  A 0.28 0.28 0.0 0 1 248.12 41.54
  L 235.56 41.55
  A 0.28 0.28 0.0 0 0 235.28 41.83
  L 235.29 49.82
  A 0.28 0.28 0.0 0 0 235.57 50.10
  Z"
/>
<path fill="#6c1241" d="
  M 54.15 48.30
  L 53.13 46.64
  L 61.40 42.20
  Q 61.56 42.12 61.65 42.30
  L 61.65 42.30
  Q 61.73 42.45 61.58 42.56
  L 54.15 48.30
  Z"
/>
<path fill="#6c1241" d="
  M 67.23 43.47
  L 90.03 81.34
  Q 91.02 82.98 89.10 82.93
  C 83.43 82.78 78.01 81.80 72.62 82.30
  Q 72.09 82.35 71.85 81.89
  L 57.53 55.08
  L 67.23 43.47
  Z"
/>
<path fill="#6c1241" d="
  M 13.64 59.82
  Q 21.45 62.23 30.02 60.69
  L 29.17 62.87
  L 27.71 63.25
  Q 27.14 63.40 27.55 63.82
  Q 27.80 64.08 28.31 64.20
  L 18.80 82.09
  A 0.62 0.61 13.3 0 1 18.25 82.42
  L 0.53 82.42
  A 0.28 0.28 0.0 0 1 0.29 81.99
  L 13.64 59.82
  Z"
/>
<path fill="#6c1241" d="
  M 150.62 75.01
  L 152.11 73.31
  Q 152.20 73.21 152.31 73.28
  L 152.72 73.52
  Q 153.01 73.69 152.85 73.98
  C 149.55 80.07 143.18 71.94 147.97 68.72
  Q 150.61 66.94 152.68 69.93
  Q 152.83 70.14 152.61 70.28
  L 152.40 70.42
  A 0.56 0.55 -35.4 0 1 151.66 70.30
  C 148.52 66.37 144.85 73.54 149.76 75.23
  A 0.80 0.78 30.1 0 0 150.62 75.01
  Z"
/>
<path fill="#6c1241" d="
  M 155.19 74.25
  L 154.38 75.86
  Q 154.28 76.06 154.07 75.99
  L 153.78 75.90
  Q 153.52 75.83 153.61 75.57
  L 155.90 69.17
  Q 156.77 66.73 157.72 69.14
  L 160.26 75.59
  Q 160.44 76.06 159.96 75.94
  L 159.37 75.80
  A 0.28 0.28 0.0 0 1 159.16 75.59
  Q 158.64 72.96 155.93 73.65
  Q 155.42 73.78 155.19 74.25
  Z
  M 155.84 72.50
  A 0.22 0.21 -88.4 0 0 156.01 72.69
  Q 156.67 72.83 157.35 72.76
  Q 158.00 72.70 157.80 72.08
  L 157.29 70.49
  Q 157.06 69.79 156.57 70.33
  Q 155.74 71.24 155.84 72.50
  Z"
/>
<path fill="#6c1241" d="
  M 175.04 70.60
  C 168.53 65.40 167.70 77.08 173.96 74.67
  A 0.95 0.95 0.0 0 0 173.99 72.91
  Q 173.38 72.65 172.73 72.80
  Q 172.57 72.83 172.50 72.69
  L 172.33 72.33
  Q 172.16 71.97 172.56 71.97
  L 174.16 71.99
  A 1.73 1.73 0.0 0 1 175.07 75.18
  C 171.63 77.37 168.09 75.06 168.73 71.20
  C 169.32 67.68 175.17 67.17 175.27 70.48
  A 0.14 0.14 0.0 0 1 175.04 70.60
  Z"
/>
<path fill="#6c1241" d="
  M 183.7470 72.8040
  A 3.14 3.14 0.0 0 1 180.6401 75.9768
  L 180.0601 75.9828
  A 3.14 3.14 0.0 0 1 176.8874 72.8759
  L 176.8730 71.4960
  A 3.14 3.14 0.0 0 1 179.9799 68.3232
  L 180.5599 68.3172
  A 3.14 3.14 0.0 0 1 183.7326 71.4241
  L 183.7470 72.8040
  Z
  M 180.2944 75.1000
  A 2.98 2.52 90.3 0 0 182.8300 72.1332
  A 2.98 2.52 90.3 0 0 180.3256 69.1400
  A 2.98 2.52 90.3 0 0 177.7900 72.1068
  A 2.98 2.52 90.3 0 0 180.2944 75.1000
  Z"
/>
<path fill="#6c1241" d="
  M 162.26 73.69
  L 162.28 75.58
  Q 162.28 75.98 161.89 75.89
  L 161.58 75.82
  Q 161.40 75.78 161.40 75.60
  L 161.24 68.99
  Q 161.23 68.46 161.76 68.47
  L 165.74 68.49
  A 1.21 1.20 73.9 0 1 166.73 69.04
  Q 167.95 70.98 166.09 72.23
  A 0.51 0.51 0.0 0 0 165.95 72.93
  L 167.59 75.42
  Q 167.76 75.69 167.49 75.86
  L 167.18 76.05
  A 0.34 0.34 0.0 0 1 166.73 75.95
  L 164.63 72.93
  A 1.30 1.30 0.0 0 0 162.26 73.69
  Z
  M 166.1981 70.2026
  A 0.96 0.96 0.0 0 0 165.2298 69.2510
  L 163.1498 69.2691
  A 0.96 0.96 0.0 0 0 162.1982 70.2375
  L 162.2019 70.6574
  A 0.96 0.96 0.0 0 0 163.1702 71.6090
  L 165.2502 71.5909
  A 0.96 0.96 0.0 0 0 166.2018 70.6225
  L 166.1981 70.2026
  Z"
/>
<rect fill="#004474" x="86.32" y="71.79" width="52.60" height="0.50" rx="0.25"/>
<rect fill="#004474" x="190.68" y="71.79" width="58.00" height="0.50" rx="0.25"/>
</svg>
