<?xml version="1.0" encoding="UTF-8" standalone="no"?>
<!-- Created with Inkscape (http://www.inkscape.org/) -->
<svg
   xmlns:svg="http://www.w3.org/2000/svg"
   xmlns="http://www.w3.org/2000/svg"
   version="1.0"
   width="800"
   height="225"
   viewBox="-11.4 -2.4 317.7 83.7"
   id="svg2">
  <defs
     id="defs11" />
  <g
     transform="matrix(0.9901327,0,0,0.9901327,1.4591833,0.3908961)"
     style="fill:#cc1f2f;fill-opacity:1"
     id="logo+schrift">
    <path
       d="M 101.21875,0.03125 C 83.571034,-0.046837158 67.289663,4.895421 52.375,14.8125 C 37.460337,24.651492 28.279588,36.553634 24.84375,50.53125 L 1.3125,145.15625 C -2.1233392,159.13386 1.161083,171.12983 11.15625,181.125 C 21.229504,191.04208 35.024122,196.04691 52.59375,196.125 C 64.619184,196.125 76.396176,193.62258 87.875,188.625 C 99.041478,183.7836 108.33171,177.30857 115.75,169.1875 L 98.40625,167.4375 C 85.131419,164.86063 73.761055,150.72195 64.3125,125.03125 C 57.987431,107.77397 52.654136,95.99698 48.28125,89.75 C 45.313933,85.377115 42.076426,81.811141 38.5625,79 C 33.877266,75.407989 29.560612,73.59375 25.65625,73.59375 L 25.65625,73.25 L 48.15625,73.25 C 55.57454,73.25 62.049555,75.799329 67.59375,80.875 L 72.625,86.375 L 76.75,92.46875 C 80.029661,98.091034 85.097074,109.78986 91.96875,127.59375 L 93.71875,132.53125 C 100.82469,150.33513 108.86372,161.76808 117.84375,166.84375 L 121.375,162.15625 C 113.09775,155.90928 105.54359,143.53793 98.75,125.03125 C 92.659194,108.39867 87.278984,96.621676 82.59375,89.75 C 79.236002,84.830505 75.998489,81.170704 72.875,78.75 C 68.345938,75.314161 64.123113,73.59375 60.21875,73.59375 L 60.21875,73.25 L 82.46875,73.25 C 89.808948,73.25 96.268305,75.799329 101.8125,80.875 L 106.96875,86.375 L 110.9375,92.46875 C 114.52951,98.637644 119.59692,110.33647 126.15625,127.59375 L 130.625,138.71875 L 152.53125,50.875 C 155.9671,36.897385 152.68267,24.948329 142.6875,15.03125 C 132.69234,5.1141711 118.86646,0.10933716 101.21875,0.03125 z M 43,113.90625 C 46.826275,113.90625 50.376588,114.59443 53.65625,116 C 60.371753,133.41345 65.016869,144.22078 67.59375,148.4375 L 69.59375,151.71875 C 67.64157,157.26294 64.247659,161.75166 59.40625,165.1875 C 54.486754,168.70143 49.012716,170.46875 43,170.46875 C 35.191276,170.46875 28.512944,167.70045 22.96875,162.15625 C 17.424556,156.69014 14.65625,150.01181 14.65625,142.125 C 14.65625,134.31628 17.424556,127.68485 22.96875,122.21875 C 28.512944,116.67456 35.191276,113.90625 43,113.90625 z "
       transform="matrix(0.426873,0,0,0.426873,-11.406395,-2.4183564)"
       style="fill:#cc1f2f;fill-opacity:1;stroke:#000000;stroke-width:0.01;stroke-opacity:1"
       id="logo" />
    <path
       d="M 223.5,67.45 C 223.5,65.883333 222.73333,65.1 221.2,65.1 C 219.63333,65.1 218.85,65.883333 218.85,67.45 C 218.85,69.016667 219.63333,69.8 221.2,69.8 C 222.73333,69.8 223.5,69.016667 223.5,67.45 M 66.604646,46.205146 C 63.204645,46.205146 60.313793,47.34681 57.947128,49.64681 C 55.547128,51.980145 54.345387,54.870997 54.345387,58.304328 C 54.345387,61.737659 55.527099,64.595147 57.893769,66.895147 C 60.260434,69.195147 63.131261,70.35015 66.497928,70.35015 C 69.997928,70.35015 72.801992,68.968145 74.90199,66.201478 L 74.90199,69.803219 L 78.743847,69.803219 L 78.743847,58.304328 C 78.743847,54.904327 77.582159,52.033504 75.248824,49.700169 C 72.915489,47.366834 70.037977,46.205146 66.604646,46.205146 z M 66.604646,49.700169 C 68.804647,49.700169 70.720756,50.528042 72.354091,52.194708 C 73.987423,53.894708 74.795271,55.937663 74.795271,58.304328 C 74.795271,60.670993 73.987423,62.680583 72.354091,64.347249 C 70.75409,66.013915 68.837977,66.855123 66.604646,66.855128 C 64.304645,66.855128 62.348483,66.033939 60.748482,64.400608 C 59.148481,62.733942 58.347321,60.704332 58.347321,58.304328 C 58.347321,55.904328 59.148481,53.861374 60.748482,52.194708 C 62.381813,50.528042 64.337976,49.700169 66.604646,49.700169 z M 87.2,46.8 L 87.2,69.8 L 83.2,69.8 L 83.2,46.8 L 87.2,46.8 M 87.6,40.35 C 87.6,38.783333 86.816667,38 85.25,38 C 83.65,38 82.85,38.783333 82.85,40.35 C 82.85,41.95 83.65,42.75 85.25,42.75 C 86.816667,42.75 87.6,41.95 87.6,40.35 M 145.34937,46.205146 C 141.9827,46.205146 139.1052,47.386859 136.7052,49.753528 C 134.33853,52.120193 133.14347,54.970996 133.14347,58.304328 C 133.14347,61.670994 134.34522,64.521793 136.74522,66.855128 C 139.14522,69.155128 142.10283,70.296795 145.60283,70.296791 C 151.3695,70.296791 155.22843,67.753098 157.1951,62.653097 L 153.04643,62.653097 C 151.4131,65.386428 148.93615,66.748409 145.60283,66.748409 C 142.5695,66.748409 140.21276,65.546672 138.54609,63.146668 L 157.24846,55.703071 C 156.54846,52.80307 155.05295,50.466355 152.75295,48.699685 C 150.55295,47.033019 148.0827,46.205146 145.34937,46.205146 z M 145.34937,49.793547 C 148.34937,49.793547 150.66607,51.148839 152.2994,53.848841 L 137.30549,59.851742 C 137.20549,59.351742 137.14541,58.817638 137.14541,58.250969 C 137.14541,55.75097 138.03336,53.681302 139.80003,52.04797 C 141.43336,50.547969 143.2827,49.793547 145.34937,49.793547 z M 105.94366,36.547145 L 105.94366,58.19761 C 105.94366,61.630941 107.11869,64.501773 109.45202,66.801769 C 111.81869,69.135103 114.71623,70.296795 118.14956,70.296791 C 121.54956,70.296791 124.42706,69.155124 126.79374,66.855128 C 129.16041,64.521793 130.35546,61.630941 130.35546,58.19761 C 130.35546,54.797609 129.1604,51.94681 126.79374,49.64681 C 124.46041,47.34681 121.60292,46.205146 118.20292,46.205146 C 114.80292,46.205146 111.99885,47.50036 109.79886,50.100362 L 109.79886,36.547145 L 105.94366,36.547145 z M 118.14956,49.700169 C 120.41623,49.700169 122.35237,50.521357 123.95237,52.154689 C 125.55237,53.821355 126.35353,55.83094 126.35353,58.19761 C 126.35353,60.630944 125.55237,62.680583 123.95237,64.347249 C 122.35236,66.013915 120.41623,66.855123 118.14956,66.855128 C 115.94956,66.855128 114.03345,66.013919 112.40011,64.347249 C 110.76678,62.613914 109.9456,60.564275 109.9456,58.19761 C 109.9456,55.864275 110.76679,53.861374 112.40011,52.194708 C 114.00012,50.528042 115.91622,49.700169 118.14956,49.700169 z M 215.55,55.8 L 215.55,69.8 L 211.55,69.8 L 211.55,55.7 C 211.55,53.966667 211,52.55 209.9,51.45 C 208.76667,50.316667 207.28333,49.75 205.45,49.75 C 203.58333,49.75 202.08333,50.316667 200.95,51.45 C 199.81667,52.55 199.25,53.966667 199.25,55.7 L 199.25,69.8 L 195.25,69.8 L 195.25,55.8 C 195.25,52.933333 196.21667,50.616667 198.15,48.85 C 200.05,47.083333 202.48333,46.2 205.45,46.2 C 208.38333,46.2 210.8,47.083333 212.7,48.85 C 214.6,50.616667 215.55,52.933333 215.55,55.8 M 190.65,46.8 L 190.65,69.8 L 186.65,69.8 L 186.65,46.8 L 190.65,46.8 M 191.1,40.35 C 191.1,38.783333 190.3,38 188.7,38 C 187.13333,38 186.35,38.783333 186.35,40.35 C 186.35,41.95 187.13333,42.75 188.7,42.75 C 190.3,42.75 191.1,41.95 191.1,40.35 M 91.8,56.15 L 91.8,69.8 L 95.75,69.8 L 95.75,56.05 C 95.75,51.683333 98.05,49.633333 102.65,49.9 L 102.65,46.35 C 99.616667,46.05 97.083333,46.783333 95.05,48.55 C 92.883333,50.35 91.8,52.883333 91.8,56.15 M 160.45,56.15 L 160.45,69.8 L 164.4,69.8 L 164.4,56.05 C 164.4,51.683333 166.68333,49.633333 171.25,49.9 L 171.25,46.35 C 168.21667,46.05 165.68333,46.783333 163.65,48.55 C 161.51667,50.35 160.45,52.883333 160.45,56.15 M 174.55,36.55 L 174.55,61.4 C 174.55,64.166667 175.36667,66.3 177,67.8 C 178.63333,69.3 180.76667,69.966667 183.4,69.8 L 183.4,66.2 C 180.16667,66.333333 178.55,64.683333 178.55,61.25 L 178.55,36.55 L 174.55,36.55 M 235.6,70.3 C 232.43333,70.3 229.73333,69.133333 227.5,66.8 C 225.23333,64.466667 224.1,61.633333 224.1,58.3 C 224.1,54.966667 225.23333,52.116667 227.5,49.75 C 229.73333,47.383333 232.43333,46.2 235.6,46.2 C 241,46.2 244.58333,48.766667 246.35,53.9 L 242.25,53.9 C 240.91667,51.2 238.7,49.85 235.6,49.85 C 233.5,49.85 231.7,50.683333 230.2,52.35 C 228.66667,53.983333 227.9,55.966667 227.9,58.3 C 227.9,60.633333 228.66667,62.616667 230.2,64.25 C 231.7,65.883333 233.5,66.7 235.6,66.7 C 238.7,66.7 240.91667,65.35 242.25,62.65 L 246.35,62.65 C 244.65,67.75 241.06667,70.3 235.6,70.3 M 260.15153,46.205146 C 256.88486,46.205146 254.12754,47.386859 251.89421,49.753528 C 249.66088,52.120193 248.54593,54.977677 248.54592,58.344347 C 248.54592,61.677679 249.66088,64.521793 251.89421,66.855128 C 254.12754,69.188462 256.88486,70.35015 260.15153,70.35015 C 263.4182,70.35015 266.16219,69.188458 268.39552,66.855128 C 270.59552,64.521793 271.70377,61.677679 271.70378,58.344347 C 271.70378,54.977681 270.59551,52.120193 268.39552,49.753528 C 266.16219,47.386863 263.4182,46.205146 260.15153,46.205146 z M 260.15153,49.846907 C 262.28486,49.846907 264.09416,50.68812 265.59416,52.354785 C 267.12749,54.021451 267.90195,56.011012 267.90194,58.344347 C 267.90194,60.644347 267.12749,62.620535 265.59416,64.25387 C 264.09416,65.887202 262.28486,66.69505 260.15153,66.69505 C 258.0182,66.69505 256.19557,65.887202 254.69556,64.25387 C 253.16223,62.620539 252.40112,60.644347 252.40112,58.344347 C 252.40112,56.011012 253.16224,54.021456 254.69556,52.354785 C 256.19556,50.68812 258.0182,49.846907 260.15153,49.846907 z M 306.3,55.05 L 306.3,69.8 L 302.5,69.8 L 302.5,54.9 C 302.5,53.4 302.05,52.166667 301.15,51.2 C 300.18333,50.2 298.96667,49.7 297.5,49.7 C 296,49.7 294.78333,50.2 293.85,51.2 C 292.95,52.166667 292.5,53.4 292.5,54.9 L 292.5,69.8 L 288.7,69.8 L 288.7,54.9 C 288.7,53.4 288.25,52.166667 287.35,51.2 C 286.38333,50.2 285.16667,49.7 283.7,49.7 C 282.2,49.7 280.98333,50.2 280.05,51.2 C 279.15,52.166667 278.7,53.4 278.7,54.9 L 278.7,69.8 L 274.9,69.8 L 274.9,55.05 C 274.9,52.516667 275.71667,50.416667 277.35,48.75 C 279.01667,47.05 281.13333,46.2 283.7,46.2 C 286.76667,46.2 289.05,47.466667 290.55,50 C 292.08333,47.466667 294.4,46.2 297.5,46.2 C 300.06667,46.2 302.18333,47.05 303.85,48.75 C 305.48333,50.416667 306.3,52.516667 306.3,55.05"
       style="stroke:#000000;stroke-width:0.01;stroke-opacity:1"
       id="schrift" />
  </g>
</svg>
