<?xml version="1.0" encoding="UTF-8" standalone="no"?>
<!-- Created with Inkscape (http://www.inkscape.org/) -->

<svg
   xmlns="http://www.w3.org/2000/svg"
   width="1000.0001"
   height="224.5">
  <g
     transform="translate(4881.4553,-1136.0885)">
    <g
       id="g4885"
       transform="translate(285.06024,415.40387)">
      <g
         id="g5198"
         transform="translate(1311.8017,-20.250798)">
        <g
           id="g5294"
           transform="translate(-5.4920388,258.12582)">
          <path
             style="fill:#aa0000"
             d="m -6388.2854,685.42723 -21.4116,21.8824 20.5985,-51.75407 c 11.3292,-28.46474 20.3655,-51.98708 20.0807,-52.27186 -0.2848,-0.28479 -23.1064,8.92996 -50.7146,20.47721 -27.6083,11.54726 -50.736,21.31687 -51.3948,21.71026 -0.6589,0.39338 0.5772,-1.28203 2.7469,-3.72315 2.1697,-2.44111 11.6197,-12.42916 21,-22.19566 9.3803,-9.7665 17.1872,-18.15025 17.3486,-18.63055 0.1615,-0.4803 -9.3871,-10.24101 -21.2189,-21.69047 -11.8319,-11.44946 -21.3952,-20.93447 -21.2518,-21.07781 0.1433,-0.14335 23.3903,8.94564 51.6598,20.19774 28.2696,11.2521 51.7035,20.45836 52.0753,20.45836 0.3718,0 -8.9684,-22.9957 -20.756,-51.10156 -11.7877,-28.10585 -21.2903,-51.23845 -21.117,-51.40577 0.1733,-0.16731 10.1676,9.21589 22.2095,20.85156 l 21.8944,21.15577 21.3333,-22 c 11.7332,-12.1 21.342,-21.775 21.3528,-21.5 0.011,0.275 -9.1853,23.65632 -20.4358,51.9585 -11.2505,28.30217 -20.2949,51.61905 -20.0986,51.81529 0.1962,0.19624 22.5649,-8.95805 49.7081,-20.34287 27.1433,-11.38482 50.2514,-20.94078 51.3514,-21.23546 1.1,-0.29469 -7.5917,9.41021 -19.3149,21.56645 l -21.3149,22.10224 21.8149,21.51905 21.8149,21.51905 -50.5,-20.06856 c -27.775,-11.0377 -51.2973,-20.29575 -52.2718,-20.57344 -1.5018,-0.42798 -1.6326,-0.14353 -0.8586,1.86743 0.5021,1.30478 9.5592,23.07232 20.1268,48.37232 10.5676,25.3 19.8372,47.50733 20.5993,49.34963 1.2365,2.98943 0.4456,2.48791 -7.3551,-4.6639 -4.8073,-4.40745 -10.5406,-9.89106 -12.7406,-12.18582 -2.2,-2.29476 -8.3984,-8.24308 -13.7743,-13.2185 l -9.7743,-9.04621 -21.4116,21.8824 z m 202.9602,-17.05721 c -13.1994,0.30046 -19.6578,0.0323 -24.2159,-1.00556 -3.4187,-0.77841 -8.5476,-2.58648 -11.3975,-4.01792 -2.85,-1.43145 -6.8996,-3.96322 -8.9993,-5.62616 -2.3408,-1.85395 -5.0882,-5.60598 -7.1024,-9.69961 -3.1171,-6.33497 -3.2837,-7.23904 -3.2624,-17.69361 0.02,-9.95096 0.2878,-11.5622 2.7641,-16.64392 1.5079,-3.09451 4.8794,-7.62597 7.4922,-10.0699 2.6127,-2.44394 6.7689,-5.62315 9.2358,-7.0649 2.467,-1.44176 8.5354,-3.96291 13.4854,-5.60255 4.95,-1.63964 13.725,-3.71098 19.5,-4.60299 5.775,-0.892 11.9625,-1.84729 13.75,-2.12286 l 3.25,-0.50104 0,-6.50434 c 0,-4.00462 -0.6214,-7.73429 -1.617,-9.70469 -0.8893,-1.76019 -2.5289,-4.19814 -3.6436,-5.41768 -1.1147,-1.21954 -4.2523,-2.95658 -6.9726,-3.86011 -3.736,-1.24092 -7.4313,-1.53733 -15.1063,-1.21174 -8.0429,0.34119 -12.1173,1.09932 -19.5496,3.63765 -5.164,1.76365 -9.5127,3.08174 -9.6638,2.92909 -0.1511,-0.15265 -1.63,-3.65255 -3.2866,-7.77755 -2.695,-6.71085 -2.8466,-7.62796 -1.4415,-8.71608 0.8638,-0.66885 4.9928,-2.3276 9.1757,-3.68612 4.1829,-1.35852 10.3053,-3.02582 13.6053,-3.7051 3.3,-0.67929 11.625,-1.24632 18.5,-1.26006 9.2796,-0.0186 14.1324,0.45217 18.8363,1.82718 3.485,1.01869 8.885,3.50212 12,5.51874 3.115,2.01661 6.9226,5.48901 8.4613,7.71645 1.5387,2.22744 3.7887,6.46979 5,9.42744 2.1437,5.2342 2.2103,6.60807 2.4986,51.5384 l 0.2963,46.16085 -5.7283,2.14322 c -3.1506,1.17878 -8.4589,2.82779 -11.7962,3.66448 -3.8661,0.96924 -12.5996,1.66993 -24.068,1.93099 z m -1,-15.927 c 5.5,-0.175 11.2375,-0.82796 12.75,-1.45103 l 2.75,-1.13286 0,-26.02475 c 0,-15.00972 -0.386,-26.02475 -0.912,-26.02475 -0.5017,0 -4.4327,0.67362 -8.7358,1.49693 -4.3031,0.82331 -10.5802,2.41423 -13.9493,3.53539 -3.3691,1.12115 -8.0035,3.64588 -10.2987,5.61052 -2.2953,1.96463 -5.1251,5.4362 -6.2885,7.71461 -1.2457,2.43941 -2.3051,6.81492 -2.5769,10.64255 -0.2538,3.575 0.063,8.438 0.7037,10.80667 0.6408,2.36868 2.7423,6.05249 4.6701,8.18626 1.9277,2.13377 5.391,4.57237 7.6962,5.41911 3.014,1.10711 7,1.45016 14.1912,1.22135 z m 432,15.91717 c -13.1305,0.30607 -19.6571,0.0417 -24.1255,-0.97729 -3.369,-0.76827 -8.544,-2.5462 -11.5,-3.95096 -2.956,-1.40476 -6.9813,-3.88571 -8.9452,-5.51322 -1.9639,-1.62752 -5.1139,-5.80537 -7,-9.28411 -3.3403,-6.16076 -3.4293,-6.62356 -3.4293,-17.82498 0,-10.53355 0.2321,-11.97268 2.7622,-17.12454 1.5192,-3.09349 4.9007,-7.62495 7.5146,-10.06991 2.6138,-2.44495 6.7709,-5.62499 9.2378,-7.06674 2.467,-1.44176 8.5354,-3.96291 13.4854,-5.60255 4.95,-1.63964 13.725,-3.71098 19.5,-4.60299 5.775,-0.892 11.9625,-1.84729 13.75,-2.12286 3.249,-0.50088 3.25,-0.50294 3.25,-6.48784 0,-3.29274 -0.6965,-7.65371 -1.5477,-9.69104 -0.8513,-2.03733 -2.4909,-4.70818 -3.6437,-5.93522 -1.1527,-1.22705 -4.3392,-2.9761 -7.081,-3.88679 -3.8697,-1.28529 -7.3619,-1.54467 -15.6064,-1.15911 -8.6011,0.40222 -12.3049,1.10358 -19.4735,3.6875 -4.8688,1.75495 -8.9925,3.04935 -9.1638,2.87645 -0.1713,-0.1729 -1.6668,-3.68936 -3.3234,-7.81436 -2.695,-6.71085 -2.8466,-7.62796 -1.4415,-8.71608 0.8638,-0.66885 4.9928,-2.3276 9.1757,-3.68612 4.1829,-1.35852 10.3053,-3.02582 13.6053,-3.7051 3.3,-0.67929 11.625,-1.25758 18.5,-1.2851 10.1271,-0.0405 13.8314,0.36345 19.5134,2.12809 3.8573,1.19797 9.1598,3.70418 11.7832,5.56934 2.6234,1.86517 6.1527,5.27167 7.8429,7.57 1.6902,2.29833 4.0367,6.52917 5.2144,9.40188 2.0646,5.03622 2.1522,6.87343 2.4481,51.35176 l 0.307,46.12868 -7.3045,2.61014 c -4.0175,1.43558 -9.3295,3.09464 -11.8045,3.68681 -2.475,0.59217 -12.6,1.26549 -22.5,1.49626 z m -1,-15.90847 c 5.5,-0.17978 11.2375,-0.83666 12.75,-1.45973 l 2.75,-1.13286 0,-26.02475 c 0,-15.00972 -0.386,-26.02475 -0.912,-26.02475 -0.5016,0 -4.4327,0.67362 -8.7358,1.49693 -4.3031,0.82331 -10.5802,2.41423 -13.9493,3.53539 -3.3691,1.12115 -8.0035,3.64588 -10.2987,5.61052 -2.2953,1.96463 -5.1288,5.4362 -6.2968,7.71461 -1.3581,2.64942 -2.2944,6.75923 -2.5976,11.4023 -0.3442,5.2704 -0.023,8.43973 1.1704,11.56583 0.9045,2.36833 3.1101,5.72654 4.9013,7.46267 1.7913,1.73614 5.0482,3.83703 7.2377,4.66866 2.8568,1.08511 6.8044,1.41975 13.9808,1.18518 z m 241.5,15.92705 c -13.2686,0.29437 -19.168,0.0161 -24.3986,-1.15107 -3.7942,-0.84662 -9.5145,-2.85982 -12.7118,-4.47378 -3.1972,-1.61396 -7.4639,-4.58526 -9.4815,-6.6029 -2.0177,-2.01763 -4.8434,-6.18234 -6.2795,-9.25491 -2.2914,-4.90286 -2.612,-6.87137 -2.6198,-16.08648 -0.01,-9.49033 0.2706,-11.10498 2.8964,-16.79148 1.9044,-4.12423 4.6805,-7.91345 8.0589,-11 2.8346,-2.58969 8.1921,-6.18898 11.9056,-7.99843 3.7136,-1.80944 10.887,-4.36783 15.9411,-5.68529 5.0541,-1.31746 12.7892,-2.9002 17.1892,-3.5172 4.4,-0.617 9.5117,-1.35075 11.3595,-1.63055 l 3.3594,-0.50874 -0.7105,-6.63497 c -0.3908,-3.64923 -1.1437,-7.7821 -1.6731,-9.18415 -0.5294,-1.40205 -2.1316,-3.77466 -3.5604,-5.27246 -1.4288,-1.4978 -4.8358,-3.46659 -7.571,-4.37509 -3.805,-1.26381 -7.3493,-1.53979 -15.0886,-1.17488 -7.8383,0.36959 -12.2288,1.19181 -19.5044,3.65264 -5.164,1.74663 -9.4737,3.0508 -9.5771,2.89815 -0.1034,-0.15265 -1.5984,-3.79807 -3.3222,-8.10092 l -3.1341,-7.82337 4.5185,-1.99876 c 2.4852,-1.09932 8.6553,-3.04118 13.7113,-4.31526 5.056,-1.27408 13.246,-2.63075 18.2001,-3.01483 5.157,-0.39982 12.2733,-0.24409 16.6475,0.36431 4.202,0.58445 10.1621,2.00626 13.2447,3.15958 3.0825,1.15333 7.7411,3.78667 10.3525,5.85187 2.6388,2.08689 6.0215,6.09716 7.6148,9.02756 1.5769,2.89996 3.484,7.59006 4.2382,10.42246 1.0622,3.98944 1.3738,15.10415 1.383,49.32796 l 0.012,44.17815 -5.682,2.12593 c -3.1251,1.16925 -8.4126,2.81729 -11.75,3.66229 -3.8867,0.98409 -12.3587,1.67594 -23.568,1.92462 z m -1,-15.91593 c 5.8318,-0.15284 10.6584,-0.81468 12.5,-1.71404 l 3,-1.46505 0.2669,-25.73706 c 0.2493,-24.04336 0.1506,-25.7362 -1.5,-25.72392 -0.9718,0.007 -5.8889,0.8638 -10.9268,1.9035 -5.038,1.0397 -11.9058,3.12262 -15.2618,4.62872 -3.3921,1.52226 -7.6259,4.42529 -9.5337,6.53691 -1.9176,2.12257 -4.1184,6.11101 -4.9882,9.03964 -0.856,2.8826 -1.5539,7.29692 -1.5508,9.80959 0,2.51268 0.5001,6.3685 1.1044,8.5685 0.6797,2.4739 2.7323,5.57326 5.3801,8.12362 2.3547,2.26799 6.0202,4.60849 8.1456,5.2011 2.1254,0.59261 8.1393,0.96543 13.3643,0.82849 z m -81,15.06061 c -7.2067,0.17362 -11.9114,-0.21264 -15,-1.23153 -2.475,-0.81647 -6.597,-3.03396 -9.16,-4.92776 -3.3968,-2.50998 -5.5652,-5.28153 -8,-10.22539 l -3.34,-6.78213 -0.2905,-42.77351 -0.2904,-42.7735 -6.9596,0 -6.9595,0 0,-8.95431 0,-8.95431 6.75,-0.29569 6.75,-0.29569 0.2773,-14 0.2774,-14 12.2226,-3.30182 c 6.7225,-1.81599 13.2352,-3.55598 14.4727,-3.86663 l 2.25,-0.56481 0,18.11663 0,18.11663 10,0 10,0 0,9 0,9 -10,0 -10,0 0,40.35212 c 0,40.3481 2e-4,40.35245 2.28,43.73543 1.254,1.86082 3.3915,3.97139 4.75,4.69016 1.4635,0.7743 4.6094,1.15421 7.72,0.93229 l 5.25,-0.37455 0,8.77326 c 0,5.9309 -0.405,9.02902 -1.25,9.5627 -0.6875,0.4342 -5.975,0.90328 -11.75,1.04241 z m -514.5,-0.71382 -14.5,0 0,-63 0,-63 14.5,0 14.5,0 0,63 0,63 -14.5,0 z m 49,0 -14.5,0 0,-59.88386 0,-59.88385 5.25,-2.10023 c 2.8875,-1.15513 8.2537,-2.78438 11.9249,-3.62056 3.6712,-0.83619 11.9962,-1.96122 18.5,-2.50009 6.5038,-0.53886 14.611,-0.98688 18.0161,-0.99558 3.405,-0.009 6.4196,0.35404 6.6989,0.80609 0.2794,0.45206 -0.6445,5.06456 -2.0532,10.25 -1.4086,5.18545 -2.6656,9.5455 -2.7932,9.689 -0.1276,0.14351 -3.5678,-0.25768 -7.645,-0.89154 -6.3265,-0.98356 -8.2546,-0.90778 -13.1557,0.51701 l -5.7428,1.66948 0,53.47206 0,53.47207 -14.5,0 z m 76.4922,0 -14.0078,0 0.2578,-60.14918 0.2578,-60.14919 6.0894,-2.27719 c 3.3492,-1.25245 9.6492,-3.03597 14,-3.96336 5.2813,-1.12574 13.0624,-1.72357 23.4106,-1.79869 11.8952,-0.0864 16.9872,0.29249 21.8948,1.62895 3.5172,0.95782 8.5566,2.91808 11.1988,4.35615 2.6423,1.43806 5.7735,3.64659 6.9584,4.90783 l 2.1543,2.29316 4.9821,-3.57931 c 2.7402,-1.96862 7.8863,-4.63344 11.4357,-5.92183 3.5495,-1.2884 10.647,-2.85786 15.7721,-3.48771 7.0531,-0.86677 11.2294,-0.86097 17.1787,0.0239 4.3231,0.64298 10.2229,2.25075 13.1107,3.57283 2.8878,1.32208 7.5094,4.51671 10.2703,7.09918 2.7609,2.58248 6.2627,7.22645 7.7819,10.31995 l 2.7622,5.62454 0.2849,50.75 0.2848,50.75 -14.0348,0 -14.0349,0 0,-45.8185 c 0,-37.96142 -0.2591,-46.6909 -1.5108,-50.90588 -0.9922,-3.34127 -2.6789,-6.11303 -4.9142,-8.07564 -1.8719,-1.64355 -5.0581,-3.53436 -7.0805,-4.20181 -2.0493,-0.67633 -6.6248,-1.03385 -10.3358,-0.80763 -3.6623,0.22325 -8.3249,1.21288 -10.3614,2.19918 -2.0365,0.9863 -4.849,2.85562 -6.25,4.15403 l -2.5473,2.36075 0,50.54775 0,50.54775 -14,0 -14,0 0,-45.8185 c 0,-37.49175 -0.2683,-46.72205 -1.4765,-50.79039 -0.8121,-2.73453 -2.7246,-6.16734 -4.25,-7.62845 -1.5254,-1.46111 -4.3485,-3.30003 -6.2735,-4.0865 -1.925,-0.78646 -5.5764,-1.72874 -8.1141,-2.09395 -2.5378,-0.3652 -7.5969,-0.18751 -11.2424,0.39487 -3.6456,0.58238 -7.7567,1.57301 -9.1359,2.20141 l -2.5076,1.14254 0,53.33949 0,53.33948 -14.0078,0 z m 306.5078,0 -14.5,0 0,-92 0,-92 14.5,0 14.5,0 0,92 0,92 -14.5,0 z m -432.5,-148.0611 c -1.925,-0.009 -4.8723,-0.61492 -6.5496,-1.3455 -1.6772,-0.73057 -4.2647,-2.77248 -5.75,-4.53758 -2.0928,-2.48717 -2.6996,-4.26078 -2.6967,-7.88254 0,-2.86928 0.7573,-5.90912 1.9558,-7.87473 1.0736,-1.7608 3.4125,-3.95668 5.1975,-4.87973 1.8841,-0.97432 5.4495,-1.65846 8.5002,-1.63105 3.2206,0.0289 6.46,0.75662 8.3679,1.87972 1.7122,1.00788 3.982,3.23563 5.044,4.95054 1.062,1.71492 1.9292,4.86492 1.9272,7 0,2.13508 -0.9114,5.37063 -2.0207,7.19011 -1.1645,1.91004 -3.8043,4.11954 -6.2463,5.22804 -2.3261,1.05594 -5.8043,1.91216 -7.7293,1.90272 z" />
        </g>
      </g>
    </g>
  </g>
</svg>
