<?xml version="1.0" encoding="utf-8"?>
<!-- Generator: Adobe Illustrator 25.4.0, SVG Export Plug-In . SVG Version: 6.00 Build 0)  -->
<svg version="1.1" id="Слой_1" xmlns="http://www.w3.org/2000/svg" xmlns:xlink="http://www.w3.org/1999/xlink" x="0px" y="0px"
	 viewBox="0 0 600 364.6" style="enable-background:new 0 0 600 364.6;" xml:space="preserve">
<style type="text/css">
	.st0{fill:url(#SVGID_1_);}
	.st1{fill:url(#SVGID_00000087414309405896905340000005249829807808663441_);}
</style>
<g>
	<linearGradient id="SVGID_1_" gradientUnits="userSpaceOnUse" x1="308.3096" y1="264.9756" x2="268.0996" y2="75.8025">
		<stop  offset="0" style="stop-color:#FFFFFF"/>
		<stop  offset="0" style="stop-color:#BBCCFD"/>
		<stop  offset="1" style="stop-color:#215AF9"/>
	</linearGradient>
	<polygon class="st0" points="102.3,139 278.6,271.3 439.6,39.3 	"/>
	
		<linearGradient id="SVGID_00000014593433143030428610000000439036861140623546_" gradientUnits="userSpaceOnUse" x1="309.6908" y1="310.8623" x2="309.6908" y2="187.2611">
		<stop  offset="0" style="stop-color:#696E72"/>
		<stop  offset="1" style="stop-color:#2D3135"/>
	</linearGradient>
	<path style="fill:url(#SVGID_00000014593433143030428610000000439036861140623546_);" d="M58.9,190.4h15.6v80.9H58.9V190.4z
		 M97.3,190.4h33.8c26,0,35.3,10,35.3,28.3c0,13.3-6.6,23.1-16.5,26.3l20.4,26.2h-18.4l-18.1-23.6h-22.5v23.6h-14V190.4z
		 M126.7,234.9c15.5,0,25.7-3,25.7-15.2c0-12.5-9.5-15-24.3-15h-16.8v30.3H126.7z M385.8,190.4h33.8c26,0,35.3,10,35.3,28.3
		c0,13.3-6.6,23.1-16.5,26.3l20.4,26.2h-18.4l-18.1-23.6h-22.5v23.6h-14V190.4z M415.2,234.9c15.5,0,25.7-3,25.7-15.2
		c0-12.5-9.5-15-24.3-15h-16.8v30.3H415.2z M252.7,180.7l26.1,90.6h-15.6l-4.1-15.1l-48.6,0.1l-11.3,15h-18.1L252.7,180.7z
		 M255.5,243.6l-9.5-34l-26,34H255.5z M302.3,271.3h61.9v-12.7h-47.7v-22.4h39.3v-12.8h-39.3v-20.1h45.8v-12.9h-60V271.3z
		 M66.3,296.6h4.2l7.4,15.7h-4l-1.2-2.6H64l-1.2,2.6h-3.9L66.3,296.6z M71.2,306.5l-2.9-6.2l-2.8,6.2H71.2z M82,312.3h3.6v-15.7H82
		V312.3z M92.8,296.6h7.4c4.2,0,6.6,2.1,6.6,5.8c0,2.6-1.3,4.1-2.8,4.9l3.6,5h-4.3l-3-4.3h-3.9v4.3h-3.6V296.6z M99.6,305.1
		c2.4,0,3.4-1,3.4-2.5c0-1.8-1.3-2.4-3.3-2.4h-3.4v4.9H99.6z M113,312.3h12.2v-3.6h-8.6v-12.1H113V312.3z M130.1,312.3h3.6v-15.7
		h-3.6V312.3z M153.5,312.3h3v-15.7H153v9.9l-9.1-9.9h-3v15.7h3.5v-9.9L153.5,312.3z M163.7,312.3h13.1V309h-9.5v-3h7.5v-3.2h-7.5
		V300h9.3v-3.4h-12.9V312.3z M195.8,300.9v-3.5c-1.5-0.6-4-1.2-7-1.2c-4,0-6.6,1.7-6.6,4.7c0,3,2.6,4.3,6.1,5
		c3.5,0.7,4.5,0.9,4.5,2.1c0,0.8-0.9,1.5-2.9,1.5c-2.4,0-5.5-0.5-8-1.6l0,3.5c1.6,0.8,4.3,1.4,7.5,1.4c4.4,0,7.1-1.9,7.1-5
		c0-2.8-1.9-4.1-5.8-5c-3.4-0.8-4.8-1-4.8-2.1c0-0.7,0.7-1.1,3.3-1.1C191.4,299.5,194.1,300.2,195.8,300.9 M560.4,230.8
		c0,25.3-17.8,42.8-45.4,42.8c-27.6,0-45.4-17.4-45.4-42.8s17.8-42.8,45.4-42.8C542.6,188.1,560.4,205.5,560.4,230.8z M545.6,230.8
		c0-17.5-10.9-29.9-30.6-29.9c-19.7,0-30.6,12.4-30.6,29.9c0,17.5,10.9,29.9,30.6,29.9C534.7,260.7,545.6,248.4,545.6,230.8z"/>
</g>
</svg>
