<svg xmlns="http://www.w3.org/2000/svg" fill="none" viewBox="0 0 156 40"><path fill="#89CFF2" d="M152.4 22.4a6.3 6.3 0 1 1-6.3-6.3c3.5 0 6.3 2.9 6.3 6.3Z"/><path fill="#5ABCED" d="M137.2 22.4a6.3 6.3 0 1 1-6.3-6.3c3.5 0 6.3 2.9 6.3 6.3Z"/><path fill="#14A0E6" fill-rule="evenodd" d="M90.2 20.8V9.7c0-1.2-1-2.2-2.2-2.2-1.3 0-2.3 1-2.3 2.2v3.9a9 9 0 0 0-4-1 8.2 8.2 0 0 0-8.5 8.2c0 4.6 3.6 8.1 8.5 8.1a9 9 0 0 0 4-1l.3-.1c.4.7 1.2 1.1 2 1.1 1.2 0 2.3-1 2.3-2.2v-6h-.1Zm-4.5.7c-.3 2-1.7 3.6-4 3.6-2.4 0-4.1-2-4.1-4.3 0-2.4 1.5-4.4 4-4.4a4 4 0 0 1 4.1 3.7v1.4Zm-58.6-8.7a8.2 8.2 0 0 0-8.5 8v.2c0 4.4 3.6 8 8.5 8s8.4-3.6 8.4-8.1-3.5-8.1-8.4-8.1Zm4 8.2c0 2.3-1.4 4.2-4 4.2-2.4 0-4.1-2-4.1-4.3s1.6-4.3 4-4.3c2.5 0 4.2 2 4.2 4.4Zm10.5-7.4c1.1-.6 2.5-1 4-1 4.9 0 8.5 3.7 8.6 8.2 0 4.6-3.5 8.1-8.4 8.1a9 9 0 0 1-4.1-1l-.3-.1c-.4.7-1.1 1.1-2 1.1-1.2 0-2.2-1-2.2-2.2v-17a2.2 2.2 0 1 1 4.4 0v4Zm4 11.5c2.4 0 4.1-2 4.1-4.3s-1.5-4.3-4-4.3c-2.3 0-3.8 1.7-4.1 3.7v1.3c.2 2 1.7 3.6 4 3.6ZM17 21v-.1c0-4.5-3.6-8.1-8.5-8.1a9 9 0 0 0-4 1h-.4c-.4-.6-1-1-2-1C1 12.8 0 13.8 0 15v17c0 1.3 1 2.3 2.2 2.3 1.3 0 2.2-1 2.2-2.2V28a9 9 0 0 0 4 1c5 0 8.7-3.7 8.7-8.1Zm-4.4 0a4 4 0 0 1-8.1.6v-1.4c.2-2 1.7-3.5 4-3.5 2.4 0 4 2 4 4.3Zm51-4.6c2 0 3 1.3 3.2 2.9h-6.5c.3-1.8 1.4-3 3.3-3Zm5 11.8c1.3-.5 2-1.2 2-2 0-1-.8-1.9-1.7-2-.5 0-1 .3-1.5.5-.7.3-1.6.7-3 .7-2.2 0-3.6-1.2-4-3.2H69c1.4 0 2.2-.9 2.2-2.5 0-1.5-.5-3.3-2-4.8-1.2-1.2-3-2-5.6-2A8 8 0 0 0 58 15a8 8 0 0 0-2.3 5.7c0 2.4.8 4.5 2.3 6a8.8 8.8 0 0 0 6.3 2.2c1.5 0 3 0 4.5-.7Zm37.6-9c0-.6-.5-2.8-2-4.3a7.6 7.6 0 0 0-5.8-2.3c-1.4 0-2.2 0-3.6.6-1.2.4-1.8 1-1.8 2s.6 1.8 1.6 1.8a2 2 0 0 0 1-.3c.4-.2 1-.5 2.3-.5 1.9 0 3.1.8 3.7 2.4-1.4-.6-3-.7-3-.7s-5.4-.5-6.6 4.3c-.6 3.3 1.3 6.1 5.3 6.6 3.4.2 5.2-1.2 5.2-1.2.3.6 1 1 1.8 1a2 2 0 0 0 2-2v-7.4ZM99 26c-1.7 0-3.1-1.1-3.1-2.4 0-1.4 1.4-2.5 3.1-2.5 1.8 0 3.2 1.1 3.2 2.5 0 1.3-1.4 2.4-3.2 2.4Zm16.8 2.9c3.5 0 6.3-3 6.3-6.4 0-3.4-2.9-6.2-6.3-6.3a6.3 6.3 0 1 0 0 12.6Z" clip-rule="evenodd"/></svg>