<svg version="1.1" id="Layer_1" xmlns="http://www.w3.org/2000/svg" xmlns:xlink="http://www.w3.org/1999/xlink" x="0px" y="0px"
	 width="100%" viewBox="0 0 1536 864" enable-background="new 0 0 1536 864" xml:space="preserve">
<path fill="#3860A3" opacity="1.000000" stroke="none" 
	d="
M1092.000000,865.000000 
	C728.000000,865.000000 364.500000,865.000000 1.000000,865.000000 
	C1.000000,577.000000 1.000000,289.000000 1.000000,1.000000 
	C513.000000,1.000000 1025.000000,1.000000 1537.000000,1.000000 
	C1537.000000,289.000000 1537.000000,577.000000 1537.000000,865.000000 
	C1388.833374,865.000000 1240.666626,865.000000 1092.000000,865.000000 
M1347.500366,664.654541 
	C1337.005737,664.824768 1326.503052,664.801819 1316.019897,665.244507 
	C1310.553345,665.475342 1305.090454,666.343079 1299.681763,667.254883 
	C1293.350342,668.322266 1287.121338,670.530273 1280.774658,670.868164 
	C1265.308105,671.691528 1249.798828,671.702271 1234.307739,672.075806 
	C1223.946655,672.325562 1214.474854,674.757202 1205.751099,681.006836 
	C1192.876831,690.230042 1178.100830,689.171509 1163.384521,686.909973 
	C1162.595093,686.788635 1161.687988,686.439697 1161.139404,685.892212 
	C1153.060425,677.829834 1144.578003,670.105347 1137.173340,661.459534 
	C1133.099609,656.703003 1134.947998,653.113281 1141.263672,652.124512 
	C1148.808350,650.943298 1156.473145,650.088989 1164.100952,649.954956 
	C1198.090820,649.357727 1232.085693,649.040039 1266.079346,648.684631 
	C1276.512573,648.575562 1286.947754,648.667725 1298.717163,648.667725 
	C1297.536499,632.738831 1297.232544,618.074707 1295.091431,603.683899 
	C1293.793091,594.958435 1290.577148,586.193665 1286.608032,578.253601 
	C1276.368652,557.770203 1260.679565,541.651550 1242.751953,527.736694 
	C1231.707520,519.164429 1219.497925,512.179749 1205.298584,511.281982 
	C1186.387939,510.086487 1167.377563,509.464417 1148.449951,510.001923 
	C1140.056763,510.240295 1131.349365,512.939697 1123.501099,516.230835 
	C1102.266846,525.135376 1084.900146,539.342163 1072.458740,558.769409 
	C1066.050903,568.775146 1059.528320,579.280640 1056.076172,590.489868 
	C1048.264160,615.856018 1050.989746,641.555725 1057.803101,666.905212 
	C1062.882568,685.803772 1074.633789,700.614929 1088.346436,713.564636 
	C1097.544556,722.250916 1107.914551,730.865601 1119.363037,735.775208 
	C1150.818359,749.264832 1184.010742,750.000488 1216.938232,742.011658 
	C1249.323242,734.154358 1272.647217,713.273804 1290.571899,685.880554 
	C1292.808228,682.463074 1294.843628,678.914246 1296.972046,675.426270 
	C1299.970093,688.595581 1305.763062,699.479065 1314.531128,709.153564 
	C1326.728638,722.612122 1341.180420,732.529480 1358.687866,736.909729 
	C1389.289185,744.566101 1420.431152,744.877686 1451.530762,740.575073 
	C1476.520264,737.117676 1497.973267,726.377014 1513.473633,705.893372 
	C1524.576172,691.221252 1529.877808,674.475586 1526.234253,656.091248 
	C1521.836792,633.905334 1508.383301,618.240723 1488.697144,607.622437 
	C1476.043213,600.797119 1462.094360,598.145630 1448.305420,595.001892 
	C1430.292847,590.895264 1412.230225,587.005676 1394.234863,582.825562 
	C1389.469604,581.718628 1385.718384,579.440491 1385.690063,573.417175 
	C1385.646606,564.213806 1386.972534,560.734680 1393.359741,558.320068 
	C1405.713989,553.649536 1417.883301,553.972717 1429.357544,560.977112 
	C1431.646118,562.374207 1434.020020,564.594910 1434.999146,566.989990 
	C1437.750366,573.719299 1442.731934,576.141541 1449.504395,576.191589 
	C1470.828979,576.349182 1492.153320,576.543396 1513.477905,576.693726 
	C1513.921143,576.696899 1514.366943,576.339661 1514.798950,576.155884 
	C1516.104492,566.550232 1514.547852,557.638428 1509.973511,549.066650 
	C1500.584229,531.472534 1486.519165,520.000549 1467.125000,515.144836 
	C1441.639404,508.763885 1415.765747,507.603668 1389.696411,509.601471 
	C1372.992554,510.881592 1356.753052,513.962158 1341.689209,521.961792 
	C1321.455933,532.706604 1306.166992,547.705627 1301.736694,570.841187 
	C1297.018066,595.482849 1304.740845,621.349915 1330.577881,633.312012 
	C1337.654419,636.588318 1344.866455,639.817688 1352.336304,641.943726 
	C1364.651978,645.448914 1377.259033,647.915344 1389.686523,651.045166 
	C1404.514038,654.779236 1419.374268,658.436951 1434.031738,662.766418 
	C1440.334839,664.628113 1443.517700,670.840332 1441.383545,677.026184 
	C1439.842285,681.494019 1437.078857,686.392822 1433.395386,689.122192 
	C1416.942993,701.312866 1388.279053,692.549622 1381.476929,673.291199 
	C1379.406738,667.429382 1375.864136,665.397278 1370.486572,665.169861 
	C1363.163696,664.860229 1355.829712,664.813721 1347.500366,664.654541 
M229.781479,371.295593 
	C230.806107,368.669373 231.583923,366.419098 235.452972,366.369843 
	C268.445923,365.949860 301.436279,365.302063 334.424713,364.596100 
	C337.410950,364.532196 338.438080,365.797302 339.233521,368.363251 
	C341.796448,376.630768 344.586578,384.827789 347.278473,393.055450 
	C351.801361,406.879303 351.797577,406.902802 366.349274,407.118652 
	C389.509430,407.462219 412.669525,407.843353 435.831085,408.020233 
	C439.282440,408.046600 442.741638,407.046143 446.664429,406.449677 
	C445.087463,402.684357 443.920410,400.130432 442.934479,397.508362 
	C430.279236,363.851929 417.735535,330.153290 404.988129,296.531830 
	C393.773651,266.953430 382.247437,237.493271 371.024353,207.918106 
	C357.616089,172.584656 344.361572,137.192749 331.120331,101.796303 
	C330.124847,99.135162 328.916504,97.897377 325.813629,97.925476 
	C302.983032,98.132240 280.149597,98.035782 257.319397,98.266136 
	C251.850830,98.321320 246.259338,98.709343 240.983734,100.002457 
	C238.409668,100.633385 235.613495,103.280083 234.354675,105.747406 
	C231.725143,110.901421 229.945557,116.505219 227.998886,121.988884 
	C214.911285,158.856003 201.881805,195.743744 188.812988,232.617538 
	C177.246826,265.251648 165.611145,297.861206 154.088608,330.510742 
	C146.775665,351.232208 139.592453,371.999573 132.398911,392.762939 
	C130.636734,397.849304 129.062088,403.000641 127.369255,408.220642 
	C128.677750,408.479004 129.163910,408.658630 129.650238,408.659088 
	C157.815384,408.685516 185.980820,408.644012 214.145355,408.784607 
	C217.279633,408.800232 218.066208,407.160156 218.821060,404.792969 
	C222.311615,393.846832 225.869400,382.922119 229.781479,371.295593 
M119.029533,696.193176 
	C121.314659,695.756409 123.589714,695.004395 125.886436,694.931152 
	C152.685120,694.075745 179.506042,693.695801 206.277725,692.336365 
	C215.418213,691.872253 220.031021,695.456238 222.940170,703.418457 
	C226.875977,714.190491 231.213654,724.815735 235.549774,735.942383 
	C266.144501,735.876831 296.929779,738.817261 328.150696,735.409668 
	C327.435150,732.856567 327.169342,731.549438 326.708069,730.315308 
	C318.145477,707.405762 309.632446,684.477295 300.963043,661.608093 
	C284.386780,617.881042 267.715485,574.190002 251.089905,530.481689 
	C238.781677,498.123627 226.461838,465.769867 214.218155,433.387360 
	C213.146545,430.553192 212.147659,428.714386 208.437698,428.657532 
	C180.619919,428.231445 152.804932,427.584015 124.993279,426.847351 
	C121.676414,426.759460 119.994705,427.479462 118.915466,430.917542 
	C115.478432,441.866791 111.560028,452.663971 107.912621,463.548370 
	C99.875549,487.532288 91.933838,511.548218 83.871979,535.523804 
	C75.915977,559.184387 68.008675,582.862976 59.815170,606.441650 
	C45.173878,648.575256 30.331955,690.639160 15.582422,732.735168 
	C15.066463,734.207764 14.641227,735.712219 14.017075,737.700867 
	C43.802967,737.700867 72.779617,737.745789 101.754524,737.541931 
	C102.953178,737.533447 104.789490,735.385925 105.220467,733.911133 
	C108.299210,723.375427 110.950745,712.713989 114.088615,702.197144 
	C114.723946,700.067810 116.850830,698.383362 119.029533,696.193176 
M1229.963745,352.507446 
	C1220.267578,338.772034 1210.622681,324.999939 1200.830933,311.332977 
	C1198.920654,308.666565 1195.976318,306.685303 1194.318115,303.905365 
	C1190.866821,298.119019 1188.282959,291.808441 1184.747437,286.080688 
	C1179.542969,277.649139 1179.038696,273.140533 1184.934692,265.051178 
	C1189.922729,258.207397 1195.482056,251.747620 1201.132690,245.425446 
	C1216.558228,228.166626 1232.177856,211.081360 1247.679443,193.890244 
	C1249.032104,192.390121 1250.081787,190.616791 1251.795288,188.246933 
	C1247.430664,187.724335 1244.154785,187.040573 1240.868286,186.984848 
	C1215.380981,186.552826 1189.891968,186.177170 1164.402222,186.022385 
	C1162.456421,186.010574 1159.957153,187.352951 1158.632446,188.867920 
	C1146.247681,203.031952 1134.093506,217.397110 1121.806152,231.646881 
	C1116.970459,237.254868 1111.967285,242.718353 1107.040405,248.247650 
	C1106.636108,248.143799 1106.231689,248.039963 1105.827393,247.936111 
	C1105.051270,198.749924 1104.275024,149.563736 1103.496216,100.212364 
	C1102.281372,100.047867 1101.321045,99.823021 1100.355957,99.801140 
	C1081.364380,99.370407 1062.373413,98.870689 1043.379272,98.609444 
	C1037.900024,98.534088 1032.403442,99.063164 1026.929321,99.497101 
	C1023.479980,99.770523 1021.548523,101.521599 1021.659912,105.350891 
	C1021.775940,109.339935 1021.327087,113.342369 1021.351074,117.337593 
	C1021.731140,180.659332 1022.057739,243.981613 1022.593140,307.302124 
	C1022.867859,339.794464 1023.595520,372.282867 1023.934448,404.774933 
	C1023.976501,408.802063 1025.384155,410.559814 1029.274780,410.729065 
	C1032.935791,410.888336 1036.591431,411.450500 1040.246460,411.424286 
	C1058.398560,411.294220 1076.555176,411.229004 1094.698486,410.717865 
	C1102.690063,410.492737 1104.063232,408.835419 1104.897339,400.859955 
	C1105.468506,395.398987 1105.687988,389.895721 1105.911865,384.405151 
	C1106.319092,374.422546 1106.478882,364.428284 1107.003174,354.452576 
	C1107.323242,348.363708 1109.861816,343.291168 1114.863525,339.466797 
	C1118.160156,336.946106 1120.950684,337.052185 1123.501953,340.251007 
	C1125.992188,343.373260 1128.640991,346.427185 1130.697632,349.827240 
	C1141.808716,368.196075 1152.699707,386.698395 1163.860840,405.036346 
	C1164.868530,406.692047 1167.261230,408.557190 1169.006958,408.553558 
	C1195.666138,408.497559 1222.326294,408.234222 1248.982178,407.781525 
	C1253.667969,407.701996 1258.335693,406.541382 1263.011719,405.880005 
	C1263.331055,405.327820 1263.650391,404.775604 1263.969727,404.223419 
	C1252.767456,387.185730 1241.565186,370.148041 1229.963745,352.507446 
M891.289551,629.884888 
	C892.476257,620.821289 892.868164,611.564148 895.018616,602.735291 
	C899.213318,585.513550 914.334167,576.196472 931.804443,579.043701 
	C945.576233,581.288147 953.045227,589.251770 954.152649,602.915405 
	C954.475464,606.898987 954.923035,610.886658 954.969116,614.876404 
	C955.415100,653.520935 955.788513,692.166260 956.178589,730.811401 
	C956.198364,732.772949 956.181152,734.734863 956.181152,737.345520 
	C962.835205,738.187012 969.079468,739.648376 975.321106,739.636963 
	C992.305542,739.605774 1009.301147,739.226807 1026.269043,738.465088 
	C1042.437256,737.739258 1042.651978,737.454590 1042.951782,720.826294 
	C1043.378418,697.175293 1043.993652,673.505615 1043.489502,649.866089 
	C1042.950073,624.581299 1041.667236,599.288269 1039.809204,574.065063 
	C1038.724365,559.339355 1033.134033,545.710266 1023.254578,534.576660 
	C995.397400,503.183258 950.125549,503.974731 921.080444,518.214050 
	C911.871338,522.728821 903.576172,529.082520 894.729614,534.372009 
	C889.682556,537.389709 887.303894,536.033508 886.979553,530.177429 
	C886.763428,526.274597 886.938538,522.350037 886.938538,519.334778 
	C870.512695,519.334778 855.030457,519.048340 839.565247,519.436340 
	C829.428833,519.690613 819.319580,520.955261 809.192688,521.692749 
	C805.970154,521.927368 805.048096,523.487061 805.302917,526.616943 
	C805.748596,532.089783 805.979126,537.593750 805.997559,543.085693 
	C806.211792,606.894165 806.369568,670.702881 806.541321,734.511475 
	C806.546997,736.621582 806.541992,738.731689 806.541992,741.421631 
	C835.384216,740.757935 863.578979,740.109131 891.244446,739.472534 
	C891.244446,702.754456 891.244446,666.790649 891.289551,629.884888 
M1397.567627,262.890442 
	C1395.444092,264.232391 1393.486694,266.203552 1391.170288,266.815094 
	C1375.078369,271.063324 1358.847778,274.792389 1342.786133,279.147308 
	C1323.837891,284.284943 1304.769287,289.165466 1286.211182,295.500061 
	C1269.598267,301.170654 1258.367920,313.248779 1254.829346,330.764160 
	C1252.904175,340.293762 1252.388550,350.249390 1252.466553,360.003021 
	C1252.545044,369.845062 1254.147827,379.794556 1260.546997,387.874207 
	C1273.085205,403.705139 1289.543701,412.737183 1309.749146,414.005920 
	C1319.522583,414.619598 1329.420166,414.553345 1339.181274,413.780945 
	C1356.031494,412.447540 1372.622192,409.565979 1387.259766,400.220917 
	C1389.748779,398.631836 1392.314941,396.756012 1394.004639,394.407715 
	C1397.451294,389.617523 1398.781860,389.298462 1402.628418,393.904999 
	C1403.896362,395.423401 1405.136108,397.104858 1405.848022,398.923431 
	C1408.567871,405.872345 1414.006958,408.098450 1420.896240,408.110046 
	C1441.051636,408.144043 1461.209717,408.402802 1481.361572,408.156708 
	C1491.869141,408.028412 1491.598389,407.649261 1490.937988,397.236450 
	C1489.430298,373.463043 1488.233643,349.670013 1486.865479,325.887573 
	C1485.268066,298.119781 1483.943237,270.330627 1481.856201,242.599197 
	C1480.884521,229.686264 1477.375244,217.285553 1467.705566,207.677292 
	C1457.608276,197.644379 1444.957031,191.989334 1431.663940,188.029770 
	C1394.903198,177.079895 1357.854248,176.604401 1320.682861,186.171127 
	C1298.243530,191.946289 1280.082275,203.454285 1268.863892,224.417145 
	C1262.810669,235.728485 1261.918701,248.019135 1261.258911,260.699982 
	C1285.870850,261.391388 1309.834106,262.110931 1333.802002,262.612274 
	C1335.112671,262.639679 1337.051880,261.138977 1337.686890,259.850861 
	C1340.038696,255.080490 1341.843628,250.044159 1344.083130,245.214050 
	C1347.045532,238.824921 1352.142212,234.800644 1359.153809,234.367050 
	C1366.752441,233.897156 1374.573975,233.301987 1382.000000,234.544495 
	C1397.651611,237.163300 1403.065308,247.298538 1397.567627,262.890442 
M594.055603,195.504684 
	C569.354126,210.762802 554.641602,231.403015 558.259460,262.542358 
	C560.056580,262.542358 561.847961,262.542328 563.639343,262.542358 
	C582.305725,262.542450 600.972107,262.542511 619.638489,262.542572 
	C630.839722,262.542603 630.839661,262.542572 635.020935,252.097168 
	C638.975525,242.218124 645.788940,235.717468 656.655090,234.425430 
	C666.400391,233.266663 675.983398,234.289520 685.098389,238.064651 
	C692.836060,241.269302 694.797363,248.168533 695.202271,255.600510 
	C695.576660,262.472290 690.813904,266.020233 685.192505,267.717407 
	C671.669556,271.800049 658.001709,275.419281 644.332703,278.997833 
	C626.152466,283.757416 607.680054,287.549774 589.774292,293.164246 
	C574.203125,298.046631 560.690491,306.835083 553.489990,322.464508 
	C534.448059,363.797119 560.321960,405.885010 600.666138,413.044495 
	C620.634094,416.588013 640.512817,414.364410 660.077087,409.249481 
	C670.452820,406.536835 679.453247,401.287964 687.351257,394.193878 
	C689.770691,392.020721 692.045044,388.839142 695.274841,390.867950 
	C697.753235,392.424805 700.110168,395.582336 700.710266,398.412018 
	C701.768921,403.404053 704.369507,405.599426 709.071533,406.071808 
	C712.053589,406.371368 715.028564,406.869080 718.016541,406.961914 
	C739.503052,407.629669 760.991821,408.223480 782.480652,408.813293 
	C783.907104,408.852478 785.339722,408.666809 786.768127,408.585815 
	C786.826904,407.662903 786.960449,407.152893 786.874878,406.682770 
	C781.838135,379.013306 781.849243,350.995972 780.844604,323.028046 
	C779.924072,297.403503 778.863464,271.758636 776.782227,246.210876 
	C775.583740,231.498062 771.496399,217.234940 759.994019,206.583588 
	C750.077026,197.400253 738.008484,191.995239 725.081421,189.108383 
	C698.191223,183.103317 670.803406,183.285446 643.466492,184.346039 
	C626.633301,184.999115 609.770874,186.219955 594.055603,195.504684 
M928.540710,356.660065 
	C926.589172,358.647278 924.989380,361.644196 922.631653,362.465546 
	C899.011536,370.694000 880.060730,368.639465 870.041809,344.719666 
	C867.169556,337.862122 863.231934,336.688171 857.456360,336.205444 
	C856.294617,336.108307 855.127930,336.026703 853.962952,336.019135 
	C833.302551,335.885040 812.642029,335.757446 791.981506,335.655945 
	C790.861633,335.650452 789.740601,335.886597 788.500122,336.023468 
	C788.500122,340.538788 787.639648,345.029877 788.637756,349.060760 
	C795.862549,378.238678 813.528625,399.058319 842.261536,407.667267 
	C876.276367,417.858826 911.296265,417.942505 946.170776,411.238983 
	C960.010071,408.578766 972.846375,403.292877 984.593567,395.206604 
	C1008.410645,378.812012 1017.736816,356.291321 1014.537354,327.902069 
	C1012.961365,313.918152 1006.716614,302.778839 996.289673,293.514954 
	C984.700684,283.218872 971.211792,276.296326 956.571289,272.204926 
	C938.322205,267.105042 919.643188,263.562317 901.233154,259.010468 
	C893.202454,257.024902 885.230408,254.589645 877.509033,251.634109 
	C871.633423,249.385101 870.382324,244.916016 873.464172,239.473434 
	C874.726074,237.244980 876.585510,235.077179 878.694153,233.653473 
	C888.335815,227.143692 899.120911,226.317078 909.806763,229.703430 
	C914.914551,231.322113 920.883423,234.463318 923.487122,238.730362 
	C927.209290,244.830322 931.658569,247.027191 938.016235,247.104736 
	C960.171692,247.374969 982.327820,247.581711 1004.484009,247.788071 
	C1005.262573,247.795319 1006.043518,247.542877 1006.812561,247.413300 
	C1003.633606,220.821854 990.783020,198.501404 960.838440,189.142258 
	C924.906189,177.911697 888.583008,175.948975 852.068054,186.413803 
	C833.982483,191.596954 817.830322,200.146118 805.067444,214.402649 
	C790.822632,230.314545 789.956726,249.242355 792.546753,268.957703 
	C793.837402,278.781891 797.341125,287.737457 804.503052,294.792023 
	C811.700623,301.881592 820.007446,307.485687 829.745789,310.448944 
	C841.043457,313.886597 852.413574,317.122650 863.855835,320.039948 
	C882.717346,324.848846 901.716370,329.123718 920.545105,334.052826 
	C928.184021,336.052582 930.927612,340.720398 930.377747,348.635529 
	C930.207214,351.089935 929.390015,353.499390 928.540710,356.660065 
M693.773804,640.500122 
	C693.773804,569.430176 693.773804,498.360229 693.773804,427.420044 
	C663.384460,427.420044 634.496826,427.420044 605.254517,427.420044 
	C605.254517,429.482025 605.251526,431.126495 605.254944,432.770966 
	C605.382446,494.434479 605.110901,556.102417 605.785095,617.759949 
	C606.203979,656.066650 608.044373,694.358093 609.289124,732.655029 
	C609.378723,735.410034 609.815369,738.153748 610.115234,741.148193 
	C625.351135,741.148193 639.999084,741.236938 654.645325,741.117126 
	C664.470642,741.036743 674.319214,741.016907 684.110046,740.312927 
	C693.204529,739.659119 693.805908,738.753235 693.823242,729.495728 
	C693.878296,700.164062 693.800293,670.832031 693.773804,640.500122 
M539.422302,276.500244 
	C539.422302,217.105789 539.422302,157.711334 539.422302,98.060936 
	C525.681641,98.060936 512.852600,97.652122 500.061188,98.171135 
	C486.106750,98.737320 472.190582,100.212204 458.250549,101.187637 
	C453.401062,101.526962 451.848419,103.588402 451.867279,108.694038 
	C452.080811,166.525040 451.780426,224.358276 452.078735,282.188538 
	C452.287628,322.679749 453.171692,363.167847 453.844574,403.655823 
	C453.959045,410.544281 454.163605,410.843079 461.304871,410.988831 
	C486.456940,411.502289 511.613556,411.794159 536.768860,412.140259 
	C537.543457,412.150940 538.322693,411.832733 539.423645,411.599152 
	C539.423645,366.791290 539.423645,322.145813 539.422302,276.500244 
M453.500061,740.990601 
	C474.114532,740.471130 494.729004,739.951660 516.734009,739.397095 
	C516.734009,727.513000 516.415222,716.198059 516.798279,704.906921 
	C517.679504,678.931152 519.123047,652.973572 519.903320,626.995544 
	C520.370789,611.433105 528.637939,601.357056 541.151733,593.693420 
	C552.276978,586.880188 564.443726,584.070251 577.347717,583.981873 
	C584.136780,583.935364 590.926392,583.973694 598.339783,583.973694 
	C597.674866,559.982117 597.026489,536.586487 596.354187,512.325989 
	C589.326355,512.067078 582.666199,511.084900 576.164795,511.722412 
	C557.820557,513.521179 541.692017,521.330811 526.612061,531.533997 
	C524.543030,532.933899 522.609558,534.544373 520.488098,535.854492 
	C515.047913,539.214111 512.735291,538.321594 511.187378,532.250244 
	C510.530487,529.673828 510.244049,527.005249 509.680725,524.402100 
	C508.417236,518.563660 505.851990,516.557800 499.963806,516.671936 
	C489.466553,516.875488 478.966858,516.993896 468.472504,517.296997 
	C457.019012,517.627686 445.570435,518.127686 434.082153,518.555298 
	C434.082153,593.031311 434.082153,667.072876 434.082153,741.000549 
	C440.518372,741.000549 446.509308,741.000549 453.500061,740.990601 
M707.459351,640.457520 
	C707.981628,670.608337 708.462585,700.760010 709.052490,730.909546 
	C709.219910,739.466919 709.391418,739.862061 717.705261,740.044861 
	C741.684204,740.572327 765.670105,740.783875 789.653625,741.093201 
	C790.261597,741.101074 790.873535,740.805176 791.483276,740.651062 
	C791.483276,666.547241 791.483276,592.684204 791.483276,518.729980 
	C763.386292,518.729980 735.667603,518.729980 707.456604,518.729980 
	C707.456604,559.227539 707.456604,599.348145 707.459351,640.457520 
M417.269745,720.519836 
	C417.309967,718.021606 417.365997,715.523560 417.388062,713.025208 
	C417.944397,649.917236 420.501587,586.788086 415.140259,523.741638 
	C414.771393,519.403931 413.583191,518.211670 409.265076,518.252319 
	C386.279388,518.468872 363.290649,518.349487 340.302948,518.364746 
	C338.681152,518.365845 337.059448,518.514465 335.398560,518.596436 
	C335.398560,593.018494 335.398560,667.025635 335.398560,741.415344 
	C362.741241,740.760620 389.676544,740.115601 417.259277,739.455139 
	C417.259277,733.125427 417.259277,727.319519 417.269745,720.519836 
M707.455139,430.875153 
	C707.455139,448.810181 707.455139,466.745178 707.455139,484.859131 
	C735.820007,484.859131 763.639038,484.859131 791.490173,484.859131 
	C791.490173,465.431335 791.490173,446.400818 791.490173,427.006287 
	C764.190613,427.006287 737.260498,426.975861 710.331482,427.130493 
	C709.370239,427.136017 708.419434,428.970886 707.455139,430.875153 
M415.229614,459.500092 
	C415.229614,448.743530 415.229614,437.986969 415.229614,426.764893 
	C387.586853,427.459045 360.685516,428.134613 333.185394,428.825226 
	C333.817780,447.903442 334.431641,466.423004 335.042175,484.841644 
	C362.136597,484.841644 388.525665,484.841644 415.229919,484.841644 
	C415.229919,476.457916 415.229919,468.479004 415.229614,459.500092 
z"/>
<path fill="#FEFEFE" opacity="1.000000" stroke="none" 
	d="
M1348.000488,664.654419 
	C1355.829712,664.813721 1363.163696,664.860229 1370.486572,665.169861 
	C1375.864136,665.397278 1379.406738,667.429382 1381.476929,673.291199 
	C1388.279053,692.549622 1416.942993,701.312866 1433.395386,689.122192 
	C1437.078857,686.392822 1439.842285,681.494019 1441.383545,677.026184 
	C1443.517700,670.840332 1440.334839,664.628113 1434.031738,662.766418 
	C1419.374268,658.436951 1404.514038,654.779236 1389.686523,651.045166 
	C1377.259033,647.915344 1364.651978,645.448914 1352.336304,641.943726 
	C1344.866455,639.817688 1337.654419,636.588318 1330.577881,633.312012 
	C1304.740845,621.349915 1297.018066,595.482849 1301.736694,570.841187 
	C1306.166992,547.705627 1321.455933,532.706604 1341.689209,521.961792 
	C1356.753052,513.962158 1372.992554,510.881592 1389.696411,509.601471 
	C1415.765747,507.603668 1441.639404,508.763885 1467.125000,515.144836 
	C1486.519165,520.000549 1500.584229,531.472534 1509.973511,549.066650 
	C1514.547852,557.638428 1516.104492,566.550232 1514.798950,576.155884 
	C1514.366943,576.339661 1513.921143,576.696899 1513.477905,576.693726 
	C1492.153320,576.543396 1470.828979,576.349182 1449.504395,576.191589 
	C1442.731934,576.141541 1437.750366,573.719299 1434.999146,566.989990 
	C1434.020020,564.594910 1431.646118,562.374207 1429.357544,560.977112 
	C1417.883301,553.972717 1405.713989,553.649536 1393.359741,558.320068 
	C1386.972534,560.734680 1385.646606,564.213806 1385.690063,573.417175 
	C1385.718384,579.440491 1389.469604,581.718628 1394.234863,582.825562 
	C1412.230225,587.005676 1430.292847,590.895264 1448.305420,595.001892 
	C1462.094360,598.145630 1476.043213,600.797119 1488.697144,607.622437 
	C1508.383301,618.240723 1521.836792,633.905334 1526.234253,656.091248 
	C1529.877808,674.475586 1524.576172,691.221252 1513.473633,705.893372 
	C1497.973267,726.377014 1476.520264,737.117676 1451.530762,740.575073 
	C1420.431152,744.877686 1389.289185,744.566101 1358.687866,736.909729 
	C1341.180420,732.529480 1326.728638,722.612122 1314.531128,709.153564 
	C1305.763062,699.479065 1299.970093,688.595581 1296.972046,675.426270 
	C1294.843628,678.914246 1292.808228,682.463074 1290.571899,685.880554 
	C1272.647217,713.273804 1249.323242,734.154358 1216.938232,742.011658 
	C1184.010742,750.000488 1150.818359,749.264832 1119.363037,735.775208 
	C1107.914551,730.865601 1097.544556,722.250916 1088.346436,713.564636 
	C1074.633789,700.614929 1062.882568,685.803772 1057.803101,666.905212 
	C1050.989746,641.555725 1048.264160,615.856018 1056.076172,590.489868 
	C1059.528320,579.280640 1066.050903,568.775146 1072.458740,558.769409 
	C1084.900146,539.342163 1102.266846,525.135376 1123.501099,516.230835 
	C1131.349365,512.939697 1140.056763,510.240295 1148.449951,510.001923 
	C1167.377563,509.464417 1186.387939,510.086487 1205.298584,511.281982 
	C1219.497925,512.179749 1231.707520,519.164429 1242.751953,527.736694 
	C1260.679565,541.651550 1276.368652,557.770203 1286.608032,578.253601 
	C1290.577148,586.193665 1293.793091,594.958435 1295.091431,603.683899 
	C1297.232544,618.074707 1297.536499,632.738831 1298.717163,648.667725 
	C1286.947754,648.667725 1276.512573,648.575562 1266.079346,648.684631 
	C1232.085693,649.040039 1198.090820,649.357727 1164.100952,649.954956 
	C1156.473145,650.088989 1148.808350,650.943298 1141.263672,652.124512 
	C1134.947998,653.113281 1133.099609,656.703003 1137.173340,661.459534 
	C1144.578003,670.105347 1153.060425,677.829834 1161.139404,685.892212 
	C1161.687988,686.439697 1162.595093,686.788635 1163.384521,686.909973 
	C1178.100830,689.171509 1192.876831,690.230042 1205.751099,681.006836 
	C1214.474854,674.757202 1223.946655,672.325562 1234.307739,672.075806 
	C1249.798828,671.702271 1265.308105,671.691528 1280.774658,670.868164 
	C1287.121338,670.530273 1293.350342,668.322266 1299.681763,667.254883 
	C1305.090454,666.343079 1310.553345,665.475342 1316.019897,665.244507 
	C1326.503052,664.801819 1337.005737,664.824768 1348.000488,664.654419 
M1195.971924,571.478149 
	C1191.556274,567.359314 1186.188721,565.917419 1180.331421,566.174744 
	C1176.178955,566.357239 1172.045410,566.931580 1167.894897,567.199524 
	C1150.702026,568.309570 1141.725098,579.054321 1136.074707,593.952820 
	C1134.447021,598.244690 1135.657959,600.537170 1140.038696,600.611389 
	C1161.644287,600.977539 1183.255615,601.447205 1204.859009,601.249451 
	C1211.526489,601.188477 1213.093872,597.807556 1210.944580,591.352600 
	C1208.273193,583.329956 1202.608398,577.463806 1195.971924,571.478149 
z"/>
<path fill="#FEFEFF" opacity="1.000000" stroke="none" 
	d="
M229.592285,371.642670 
	C225.869400,382.922119 222.311615,393.846832 218.821060,404.792969 
	C218.066208,407.160156 217.279633,408.800232 214.145355,408.784607 
	C185.980820,408.644012 157.815384,408.685516 129.650238,408.659088 
	C129.163910,408.658630 128.677750,408.479004 127.369255,408.220642 
	C129.062088,403.000641 130.636734,397.849304 132.398911,392.762939 
	C139.592453,371.999573 146.775665,351.232208 154.088608,330.510742 
	C165.611145,297.861206 177.246826,265.251648 188.812988,232.617538 
	C201.881805,195.743744 214.911285,158.856003 227.998886,121.988884 
	C229.945557,116.505219 231.725143,110.901421 234.354675,105.747406 
	C235.613495,103.280083 238.409668,100.633385 240.983734,100.002457 
	C246.259338,98.709343 251.850830,98.321320 257.319397,98.266136 
	C280.149597,98.035782 302.983032,98.132240 325.813629,97.925476 
	C328.916504,97.897377 330.124847,99.135162 331.120331,101.796303 
	C344.361572,137.192749 357.616089,172.584656 371.024353,207.918106 
	C382.247437,237.493271 393.773651,266.953430 404.988129,296.531830 
	C417.735535,330.153290 430.279236,363.851929 442.934479,397.508362 
	C443.920410,400.130432 445.087463,402.684357 446.664429,406.449677 
	C442.741638,407.046143 439.282440,408.046600 435.831085,408.020233 
	C412.669525,407.843353 389.509430,407.462219 366.349274,407.118652 
	C351.797577,406.902802 351.801361,406.879303 347.278473,393.055450 
	C344.586578,384.827789 341.796448,376.630768 339.233521,368.363251 
	C338.438080,365.797302 337.410950,364.532196 334.424713,364.596100 
	C301.436279,365.302063 268.445923,365.949860 235.452972,366.369843 
	C231.583923,366.419098 230.806107,368.669373 229.592285,371.642670 
M292.125061,302.553986 
	C296.092529,302.094910 300.067444,301.691742 304.025879,301.164795 
	C311.694122,300.144043 312.468903,299.624908 310.125061,292.460052 
	C302.683563,269.712372 294.810303,247.105560 287.017517,224.474060 
	C286.339661,222.505524 285.027161,220.755524 283.685547,218.314697 
	C282.567261,219.972382 281.683594,220.943008 281.178131,222.081528 
	C270.671600,245.748413 263.393311,270.471832 257.197479,295.548828 
	C256.309753,299.141815 257.683838,300.943573 261.334961,301.123352 
	C271.286957,301.613342 281.238556,302.110413 292.125061,302.553986 
z"/>
<path fill="#FEFEFF" opacity="1.000000" stroke="none" 
	d="
M118.659805,696.343506 
	C116.850830,698.383362 114.723946,700.067810 114.088615,702.197144 
	C110.950745,712.713989 108.299210,723.375427 105.220467,733.911133 
	C104.789490,735.385925 102.953178,737.533447 101.754524,737.541931 
	C72.779617,737.745789 43.802967,737.700867 14.017075,737.700867 
	C14.641227,735.712219 15.066463,734.207764 15.582422,732.735168 
	C30.331955,690.639160 45.173878,648.575256 59.815170,606.441650 
	C68.008675,582.862976 75.915977,559.184387 83.871979,535.523804 
	C91.933838,511.548218 99.875549,487.532288 107.912621,463.548370 
	C111.560028,452.663971 115.478432,441.866791 118.915466,430.917542 
	C119.994705,427.479462 121.676414,426.759460 124.993279,426.847351 
	C152.804932,427.584015 180.619919,428.231445 208.437698,428.657532 
	C212.147659,428.714386 213.146545,430.553192 214.218155,433.387360 
	C226.461838,465.769867 238.781677,498.123627 251.089905,530.481689 
	C267.715485,574.190002 284.386780,617.881042 300.963043,661.608093 
	C309.632446,684.477295 318.145477,707.405762 326.708069,730.315308 
	C327.169342,731.549438 327.435150,732.856567 328.150696,735.409668 
	C296.929779,738.817261 266.144501,735.876831 235.549774,735.942383 
	C231.213654,724.815735 226.875977,714.190491 222.940170,703.418457 
	C220.031021,695.456238 215.418213,691.872253 206.277725,692.336365 
	C179.506042,693.695801 152.685120,694.075745 125.886436,694.931152 
	C123.589714,695.004395 121.314659,695.756409 118.659805,696.343506 
M158.686295,568.020447 
	C153.182999,584.938477 147.536270,601.811951 142.250916,618.797791 
	C140.289749,625.100525 142.639435,628.560486 149.369080,628.668152 
	C161.833817,628.867493 174.328842,628.622314 186.775330,627.922974 
	C193.316727,627.555420 194.350998,625.638245 192.260574,619.404114 
	C184.805359,597.171021 177.141983,575.007629 169.509064,552.834473 
	C168.950989,551.213318 168.007050,549.725098 166.560226,546.791809 
	C163.660370,554.574768 161.293839,560.926270 158.686295,568.020447 
z"/>
<path fill="#FEFEFE" opacity="1.000000" stroke="none" 
	d="
M1230.163330,352.808899 
	C1241.565186,370.148041 1252.767456,387.185730 1263.969727,404.223419 
	C1263.650391,404.775604 1263.331055,405.327820 1263.011719,405.880005 
	C1258.335693,406.541382 1253.667969,407.701996 1248.982178,407.781525 
	C1222.326294,408.234222 1195.666138,408.497559 1169.006958,408.553558 
	C1167.261230,408.557190 1164.868530,406.692047 1163.860840,405.036346 
	C1152.699707,386.698395 1141.808716,368.196075 1130.697632,349.827240 
	C1128.640991,346.427185 1125.992188,343.373260 1123.501953,340.251007 
	C1120.950684,337.052185 1118.160156,336.946106 1114.863525,339.466797 
	C1109.861816,343.291168 1107.323242,348.363708 1107.003174,354.452576 
	C1106.478882,364.428284 1106.319092,374.422546 1105.911865,384.405151 
	C1105.687988,389.895721 1105.468506,395.398987 1104.897339,400.859955 
	C1104.063232,408.835419 1102.690063,410.492737 1094.698486,410.717865 
	C1076.555176,411.229004 1058.398560,411.294220 1040.246460,411.424286 
	C1036.591431,411.450500 1032.935791,410.888336 1029.274780,410.729065 
	C1025.384155,410.559814 1023.976501,408.802063 1023.934448,404.774933 
	C1023.595520,372.282867 1022.867859,339.794464 1022.593140,307.302124 
	C1022.057739,243.981613 1021.731140,180.659332 1021.351074,117.337593 
	C1021.327087,113.342369 1021.775940,109.339935 1021.659912,105.350891 
	C1021.548523,101.521599 1023.479980,99.770523 1026.929321,99.497101 
	C1032.403442,99.063164 1037.900024,98.534088 1043.379272,98.609444 
	C1062.373413,98.870689 1081.364380,99.370407 1100.355957,99.801140 
	C1101.321045,99.823021 1102.281372,100.047867 1103.496216,100.212364 
	C1104.275024,149.563736 1105.051270,198.749924 1105.827393,247.936111 
	C1106.231689,248.039963 1106.636108,248.143799 1107.040405,248.247650 
	C1111.967285,242.718353 1116.970459,237.254868 1121.806152,231.646881 
	C1134.093506,217.397110 1146.247681,203.031952 1158.632446,188.867920 
	C1159.957153,187.352951 1162.456421,186.010574 1164.402222,186.022385 
	C1189.891968,186.177170 1215.380981,186.552826 1240.868286,186.984848 
	C1244.154785,187.040573 1247.430664,187.724335 1251.795288,188.246933 
	C1250.081787,190.616791 1249.032104,192.390121 1247.679443,193.890244 
	C1232.177856,211.081360 1216.558228,228.166626 1201.132690,245.425446 
	C1195.482056,251.747620 1189.922729,258.207397 1184.934692,265.051178 
	C1179.038696,273.140533 1179.542969,277.649139 1184.747437,286.080688 
	C1188.282959,291.808441 1190.866821,298.119019 1194.318115,303.905365 
	C1195.976318,306.685303 1198.920654,308.666565 1200.830933,311.332977 
	C1210.622681,324.999939 1220.267578,338.772034 1230.163330,352.808899 
z"/>
<path fill="#FEFEFF" opacity="1.000000" stroke="none" 
	d="
M891.266968,630.355835 
	C891.244446,666.790649 891.244446,702.754456 891.244446,739.472534 
	C863.578979,740.109131 835.384216,740.757935 806.541992,741.421631 
	C806.541992,738.731689 806.546997,736.621582 806.541321,734.511475 
	C806.369568,670.702881 806.211792,606.894165 805.997559,543.085693 
	C805.979126,537.593750 805.748596,532.089783 805.302917,526.616943 
	C805.048096,523.487061 805.970154,521.927368 809.192688,521.692749 
	C819.319580,520.955261 829.428833,519.690613 839.565247,519.436340 
	C855.030457,519.048340 870.512695,519.334778 886.938538,519.334778 
	C886.938538,522.350037 886.763428,526.274597 886.979553,530.177429 
	C887.303894,536.033508 889.682556,537.389709 894.729614,534.372009 
	C903.576172,529.082520 911.871338,522.728821 921.080444,518.214050 
	C950.125549,503.974731 995.397400,503.183258 1023.254578,534.576660 
	C1033.134033,545.710266 1038.724365,559.339355 1039.809204,574.065063 
	C1041.667236,599.288269 1042.950073,624.581299 1043.489502,649.866089 
	C1043.993652,673.505615 1043.378418,697.175293 1042.951782,720.826294 
	C1042.651978,737.454590 1042.437256,737.739258 1026.269043,738.465088 
	C1009.301147,739.226807 992.305542,739.605774 975.321106,739.636963 
	C969.079468,739.648376 962.835205,738.187012 956.181152,737.345520 
	C956.181152,734.734863 956.198364,732.772949 956.178589,730.811401 
	C955.788513,692.166260 955.415100,653.520935 954.969116,614.876404 
	C954.923035,610.886658 954.475464,606.898987 954.152649,602.915405 
	C953.045227,589.251770 945.576233,581.288147 931.804443,579.043701 
	C914.334167,576.196472 899.213318,585.513550 895.018616,602.735291 
	C892.868164,611.564148 892.476257,620.821289 891.266968,630.355835 
z"/>
<path fill="#FEFEFE" opacity="1.000000" stroke="none" 
	d="
M1397.712280,262.520325 
	C1403.065308,247.298538 1397.651611,237.163300 1382.000000,234.544495 
	C1374.573975,233.301987 1366.752441,233.897156 1359.153809,234.367050 
	C1352.142212,234.800644 1347.045532,238.824921 1344.083130,245.214050 
	C1341.843628,250.044159 1340.038696,255.080490 1337.686890,259.850861 
	C1337.051880,261.138977 1335.112671,262.639679 1333.802002,262.612274 
	C1309.834106,262.110931 1285.870850,261.391388 1261.258911,260.699982 
	C1261.918701,248.019135 1262.810669,235.728485 1268.863892,224.417145 
	C1280.082275,203.454285 1298.243530,191.946289 1320.682861,186.171127 
	C1357.854248,176.604401 1394.903198,177.079895 1431.663940,188.029770 
	C1444.957031,191.989334 1457.608276,197.644379 1467.705566,207.677292 
	C1477.375244,217.285553 1480.884521,229.686264 1481.856201,242.599197 
	C1483.943237,270.330627 1485.268066,298.119781 1486.865479,325.887573 
	C1488.233643,349.670013 1489.430298,373.463043 1490.937988,397.236450 
	C1491.598389,407.649261 1491.869141,408.028412 1481.361572,408.156708 
	C1461.209717,408.402802 1441.051636,408.144043 1420.896240,408.110046 
	C1414.006958,408.098450 1408.567871,405.872345 1405.848022,398.923431 
	C1405.136108,397.104858 1403.896362,395.423401 1402.628418,393.904999 
	C1398.781860,389.298462 1397.451294,389.617523 1394.004639,394.407715 
	C1392.314941,396.756012 1389.748779,398.631836 1387.259766,400.220917 
	C1372.622192,409.565979 1356.031494,412.447540 1339.181274,413.780945 
	C1329.420166,414.553345 1319.522583,414.619598 1309.749146,414.005920 
	C1289.543701,412.737183 1273.085205,403.705139 1260.546997,387.874207 
	C1254.147827,379.794556 1252.545044,369.845062 1252.466553,360.003021 
	C1252.388550,350.249390 1252.904175,340.293762 1254.829346,330.764160 
	C1258.367920,313.248779 1269.598267,301.170654 1286.211182,295.500061 
	C1304.769287,289.165466 1323.837891,284.284943 1342.786133,279.147308 
	C1358.847778,274.792389 1375.078369,271.063324 1391.170288,266.815094 
	C1393.486694,266.203552 1395.444092,264.232391 1397.712280,262.520325 
M1381.498657,315.993378 
	C1368.904175,320.741211 1356.253662,325.346954 1343.735474,330.287964 
	C1335.659180,333.475677 1332.097656,339.105377 1332.595093,346.723999 
	C1333.124268,354.825775 1338.109863,361.424103 1346.369873,362.892181 
	C1353.156128,364.098297 1360.282104,364.590881 1367.136719,363.999786 
	C1392.534424,361.809662 1409.096924,334.775635 1400.179688,309.972198 
	C1394.221802,311.911163 1388.243896,313.856628 1381.498657,315.993378 
z"/>
<path fill="#FEFEFE" opacity="1.000000" stroke="none" 
	d="
M594.373169,195.315445 
	C609.770874,186.219955 626.633301,184.999115 643.466492,184.346039 
	C670.803406,183.285446 698.191223,183.103317 725.081421,189.108383 
	C738.008484,191.995239 750.077026,197.400253 759.994019,206.583588 
	C771.496399,217.234940 775.583740,231.498062 776.782227,246.210876 
	C778.863464,271.758636 779.924072,297.403503 780.844604,323.028046 
	C781.849243,350.995972 781.838135,379.013306 786.874878,406.682770 
	C786.960449,407.152893 786.826904,407.662903 786.768127,408.585815 
	C785.339722,408.666809 783.907104,408.852478 782.480652,408.813293 
	C760.991821,408.223480 739.503052,407.629669 718.016541,406.961914 
	C715.028564,406.869080 712.053589,406.371368 709.071533,406.071808 
	C704.369507,405.599426 701.768921,403.404053 700.710266,398.412018 
	C700.110168,395.582336 697.753235,392.424805 695.274841,390.867950 
	C692.045044,388.839142 689.770691,392.020721 687.351257,394.193878 
	C679.453247,401.287964 670.452820,406.536835 660.077087,409.249481 
	C640.512817,414.364410 620.634094,416.588013 600.666138,413.044495 
	C560.321960,405.885010 534.448059,363.797119 553.489990,322.464508 
	C560.690491,306.835083 574.203125,298.046631 589.774292,293.164246 
	C607.680054,287.549774 626.152466,283.757416 644.332703,278.997833 
	C658.001709,275.419281 671.669556,271.800049 685.192505,267.717407 
	C690.813904,266.020233 695.576660,262.472290 695.202271,255.600510 
	C694.797363,248.168533 692.836060,241.269302 685.098389,238.064651 
	C675.983398,234.289520 666.400391,233.266663 656.655090,234.425430 
	C645.788940,235.717468 638.975525,242.218124 635.020935,252.097168 
	C630.839661,262.542572 630.839722,262.542603 619.638489,262.542572 
	C600.972107,262.542511 582.305725,262.542450 563.639343,262.542358 
	C561.847961,262.542328 560.056580,262.542358 558.259460,262.542358 
	C554.641602,231.403015 569.354126,210.762802 594.373169,195.315445 
M630.032104,356.183929 
	C632.040283,357.860992 633.794067,360.268127 636.105896,361.073547 
	C642.198914,363.196289 648.561707,366.108704 654.766785,365.993561 
	C665.120972,365.801514 675.788330,364.445984 683.690857,356.173126 
	C694.712219,344.635223 697.925354,330.659576 696.337341,315.212006 
	C695.949158,311.435516 694.176819,310.495514 690.543396,311.775635 
	C682.076599,314.758606 673.470032,317.344025 664.997131,320.310608 
	C656.068909,323.436615 647.139526,326.595001 638.378296,330.152039 
	C629.777466,333.643951 627.292236,337.975189 628.008728,347.226624 
	C628.223877,350.005066 629.110229,352.731567 630.032104,356.183929 
z"/>
<path fill="#FEFEFE" opacity="1.000000" stroke="none" 
	d="
M928.704773,356.294739 
	C929.390015,353.499390 930.207214,351.089935 930.377747,348.635529 
	C930.927612,340.720398 928.184021,336.052582 920.545105,334.052826 
	C901.716370,329.123718 882.717346,324.848846 863.855835,320.039948 
	C852.413574,317.122650 841.043457,313.886597 829.745789,310.448944 
	C820.007446,307.485687 811.700623,301.881592 804.503052,294.792023 
	C797.341125,287.737457 793.837402,278.781891 792.546753,268.957703 
	C789.956726,249.242355 790.822632,230.314545 805.067444,214.402649 
	C817.830322,200.146118 833.982483,191.596954 852.068054,186.413803 
	C888.583008,175.948975 924.906189,177.911697 960.838440,189.142258 
	C990.783020,198.501404 1003.633606,220.821854 1006.812561,247.413300 
	C1006.043518,247.542877 1005.262573,247.795319 1004.484009,247.788071 
	C982.327820,247.581711 960.171692,247.374969 938.016235,247.104736 
	C931.658569,247.027191 927.209290,244.830322 923.487122,238.730362 
	C920.883423,234.463318 914.914551,231.322113 909.806763,229.703430 
	C899.120911,226.317078 888.335815,227.143692 878.694153,233.653473 
	C876.585510,235.077179 874.726074,237.244980 873.464172,239.473434 
	C870.382324,244.916016 871.633423,249.385101 877.509033,251.634109 
	C885.230408,254.589645 893.202454,257.024902 901.233154,259.010468 
	C919.643188,263.562317 938.322205,267.105042 956.571289,272.204926 
	C971.211792,276.296326 984.700684,283.218872 996.289673,293.514954 
	C1006.716614,302.778839 1012.961365,313.918152 1014.537354,327.902069 
	C1017.736816,356.291321 1008.410645,378.812012 984.593567,395.206604 
	C972.846375,403.292877 960.010071,408.578766 946.170776,411.238983 
	C911.296265,417.942505 876.276367,417.858826 842.261536,407.667267 
	C813.528625,399.058319 795.862549,378.238678 788.637756,349.060760 
	C787.639648,345.029877 788.500122,340.538788 788.500122,336.023468 
	C789.740601,335.886597 790.861633,335.650452 791.981506,335.655945 
	C812.642029,335.757446 833.302551,335.885040 853.962952,336.019135 
	C855.127930,336.026703 856.294617,336.108307 857.456360,336.205444 
	C863.231934,336.688171 867.169556,337.862122 870.041809,344.719666 
	C880.060730,368.639465 899.011536,370.694000 922.631653,362.465546 
	C924.989380,361.644196 926.589172,358.647278 928.704773,356.294739 
z"/>
<path fill="#FEFEFE" opacity="1.000000" stroke="none" 
	d="
M693.773804,641.000122 
	C693.800293,670.832031 693.878296,700.164062 693.823242,729.495728 
	C693.805908,738.753235 693.204529,739.659119 684.110046,740.312927 
	C674.319214,741.016907 664.470642,741.036743 654.645325,741.117126 
	C639.999084,741.236938 625.351135,741.148193 610.115234,741.148193 
	C609.815369,738.153748 609.378723,735.410034 609.289124,732.655029 
	C608.044373,694.358093 606.203979,656.066650 605.785095,617.759949 
	C605.110901,556.102417 605.382446,494.434479 605.254944,432.770966 
	C605.251526,431.126495 605.254517,429.482025 605.254517,427.420044 
	C634.496826,427.420044 663.384460,427.420044 693.773804,427.420044 
	C693.773804,498.360229 693.773804,569.430176 693.773804,641.000122 
z"/>
<path fill="#FEFFFF" opacity="1.000000" stroke="none" 
	d="
M539.422974,277.000275 
	C539.423645,322.145813 539.423645,366.791290 539.423645,411.599152 
	C538.322693,411.832733 537.543457,412.150940 536.768860,412.140259 
	C511.613556,411.794159 486.456940,411.502289 461.304871,410.988831 
	C454.163605,410.843079 453.959045,410.544281 453.844574,403.655823 
	C453.171692,363.167847 452.287628,322.679749 452.078735,282.188538 
	C451.780426,224.358276 452.080811,166.525040 451.867279,108.694038 
	C451.848419,103.588402 453.401062,101.526962 458.250549,101.187637 
	C472.190582,100.212204 486.106750,98.737320 500.061188,98.171135 
	C512.852600,97.652122 525.681641,98.060936 539.422302,98.060936 
	C539.422302,157.711334 539.422302,217.105789 539.422974,277.000275 
z"/>
<path fill="#FEFEFF" opacity="1.000000" stroke="none" 
	d="
M453.000153,740.995605 
	C446.509308,741.000549 440.518372,741.000549 434.082153,741.000549 
	C434.082153,667.072876 434.082153,593.031311 434.082153,518.555298 
	C445.570435,518.127686 457.019012,517.627686 468.472504,517.296997 
	C478.966858,516.993896 489.466553,516.875488 499.963806,516.671936 
	C505.851990,516.557800 508.417236,518.563660 509.680725,524.402100 
	C510.244049,527.005249 510.530487,529.673828 511.187378,532.250244 
	C512.735291,538.321594 515.047913,539.214111 520.488098,535.854492 
	C522.609558,534.544373 524.543030,532.933899 526.612061,531.533997 
	C541.692017,521.330811 557.820557,513.521179 576.164795,511.722412 
	C582.666199,511.084900 589.326355,512.067078 596.354187,512.325989 
	C597.026489,536.586487 597.674866,559.982117 598.339783,583.973694 
	C590.926392,583.973694 584.136780,583.935364 577.347717,583.981873 
	C564.443726,584.070251 552.276978,586.880188 541.151733,593.693420 
	C528.637939,601.357056 520.370789,611.433105 519.903320,626.995544 
	C519.123047,652.973572 517.679504,678.931152 516.798279,704.906921 
	C516.415222,716.198059 516.734009,727.513000 516.734009,739.397095 
	C494.729004,739.951660 474.114532,740.471130 453.000153,740.995605 
z"/>
<path fill="#FDFEFE" opacity="1.000000" stroke="none" 
	d="
M707.458008,639.963135 
	C707.456604,599.348145 707.456604,559.227539 707.456604,518.729980 
	C735.667603,518.729980 763.386292,518.729980 791.483276,518.729980 
	C791.483276,592.684204 791.483276,666.547241 791.483276,740.651062 
	C790.873535,740.805176 790.261597,741.101074 789.653625,741.093201 
	C765.670105,740.783875 741.684204,740.572327 717.705261,740.044861 
	C709.391418,739.862061 709.219910,739.466919 709.052490,730.909546 
	C708.462585,700.760010 707.981628,670.608337 707.458008,639.963135 
z"/>
<path fill="#FEFEFE" opacity="1.000000" stroke="none" 
	d="
M417.264526,721.016724 
	C417.259277,727.319519 417.259277,733.125427 417.259277,739.455139 
	C389.676544,740.115601 362.741241,740.760620 335.398560,741.415344 
	C335.398560,667.025635 335.398560,593.018494 335.398560,518.596436 
	C337.059448,518.514465 338.681152,518.365845 340.302948,518.364746 
	C363.290649,518.349487 386.279388,518.468872 409.265076,518.252319 
	C413.583191,518.211670 414.771393,519.403931 415.140259,523.741638 
	C420.501587,586.788086 417.944397,649.917236 417.388062,713.025208 
	C417.365997,715.523560 417.309967,718.021606 417.264526,721.016724 
z"/>
<path fill="#FDFDFE" opacity="1.000000" stroke="none" 
	d="
M707.459473,430.414185 
	C708.419434,428.970886 709.370239,427.136017 710.331482,427.130493 
	C737.260498,426.975861 764.190613,427.006287 791.490173,427.006287 
	C791.490173,446.400818 791.490173,465.431335 791.490173,484.859131 
	C763.639038,484.859131 735.820007,484.859131 707.455139,484.859131 
	C707.455139,466.745178 707.455139,448.810181 707.459473,430.414185 
z"/>
<path fill="#FEFEFE" opacity="1.000000" stroke="none" 
	d="
M415.229767,460.000122 
	C415.229919,468.479004 415.229919,476.457916 415.229919,484.841644 
	C388.525665,484.841644 362.136597,484.841644 335.042175,484.841644 
	C334.431641,466.423004 333.817780,447.903442 333.185394,428.825226 
	C360.685516,428.134613 387.586853,427.459045 415.229614,426.764893 
	C415.229614,437.986969 415.229614,448.743530 415.229767,460.000122 
z"/>
<path fill="#3A61A4" opacity="1.000000" stroke="none" 
	d="
M1196.242554,571.714417 
	C1202.608398,577.463806 1208.273193,583.329956 1210.944580,591.352600 
	C1213.093872,597.807556 1211.526489,601.188477 1204.859009,601.249451 
	C1183.255615,601.447205 1161.644287,600.977539 1140.038696,600.611389 
	C1135.657959,600.537170 1134.447021,598.244690 1136.074707,593.952820 
	C1141.725098,579.054321 1150.702026,568.309570 1167.894897,567.199524 
	C1172.045410,566.931580 1176.178955,566.357239 1180.331421,566.174744 
	C1186.188721,565.917419 1191.556274,567.359314 1196.242554,571.714417 
z"/>
<path fill="#3A61A4" opacity="1.000000" stroke="none" 
	d="
M291.657715,302.579315 
	C281.238556,302.110413 271.286957,301.613342 261.334961,301.123352 
	C257.683838,300.943573 256.309753,299.141815 257.197479,295.548828 
	C263.393311,270.471832 270.671600,245.748413 281.178131,222.081528 
	C281.683594,220.943008 282.567261,219.972382 283.685547,218.314697 
	C285.027161,220.755524 286.339661,222.505524 287.017517,224.474060 
	C294.810303,247.105560 302.683563,269.712372 310.125061,292.460052 
	C312.468903,299.624908 311.694122,300.144043 304.025879,301.164795 
	C300.067444,301.691742 296.092529,302.094910 291.657715,302.579315 
z"/>
<path fill="#3A61A4" opacity="1.000000" stroke="none" 
	d="
M158.806793,567.649170 
	C161.293839,560.926270 163.660370,554.574768 166.560226,546.791809 
	C168.007050,549.725098 168.950989,551.213318 169.509064,552.834473 
	C177.141983,575.007629 184.805359,597.171021 192.260574,619.404114 
	C194.350998,625.638245 193.316727,627.555420 186.775330,627.922974 
	C174.328842,628.622314 161.833817,628.867493 149.369080,628.668152 
	C142.639435,628.560486 140.289749,625.100525 142.250916,618.797791 
	C147.536270,601.811951 153.182999,584.938477 158.806793,567.649170 
z"/>
<path fill="#3A61A4" opacity="1.000000" stroke="none" 
	d="
M1381.882324,315.897736 
	C1388.243896,313.856628 1394.221802,311.911163 1400.179688,309.972198 
	C1409.096924,334.775635 1392.534424,361.809662 1367.136719,363.999786 
	C1360.282104,364.590881 1353.156128,364.098297 1346.369873,362.892181 
	C1338.109863,361.424103 1333.124268,354.825775 1332.595093,346.723999 
	C1332.097656,339.105377 1335.659180,333.475677 1343.735474,330.287964 
	C1356.253662,325.346954 1368.904175,320.741211 1381.882324,315.897736 
z"/>
<path fill="#3A61A4" opacity="1.000000" stroke="none" 
	d="
M629.860596,355.832886 
	C629.110229,352.731567 628.223877,350.005066 628.008728,347.226624 
	C627.292236,337.975189 629.777466,333.643951 638.378296,330.152039 
	C647.139526,326.595001 656.068909,323.436615 664.997131,320.310608 
	C673.470032,317.344025 682.076599,314.758606 690.543396,311.775635 
	C694.176819,310.495514 695.949158,311.435516 696.337341,315.212006 
	C697.925354,330.659576 694.712219,344.635223 683.690857,356.173126 
	C675.788330,364.445984 665.120972,365.801514 654.766785,365.993561 
	C648.561707,366.108704 642.198914,363.196289 636.105896,361.073547 
	C633.794067,360.268127 632.040283,357.860992 629.860596,355.832886 
z"/>
</svg>