<?xml version="1.0" encoding="UTF-8"?>
<svg id="Layer_1" xmlns="http://www.w3.org/2000/svg" version="1.1" viewBox="0 0 1350 450">
  <!-- Generator: Adobe Illustrator 29.2.1, SVG Export Plug-In . SVG Version: 2.1.0 Build 116)  -->
  <rect width="1350" height="450" style="fill: #fefefe;"/>
  <path d="M912,269c-16.61-23.83-27.35-61-43.75-83.71-.62-.86.11-1.84-2.25-1.29l-15.01,89h-26l22.95-129.33,23.03-5.67,46.52,90.02,15.45-83.34,26.05-5.66-22.99,132.99c-5.09,1.07-19.89,2.87-23.15-1.2-.42-.53-.69-1.15-.85-1.8Z" style="fill: #bb2f42;"/>
  <path d="M684,273l18.89-104.38c.65-.77,18.4-4.76,19.67-4.67,5.43.38,31.11,59.71,36.94,67.05l10.97-61.02c.75-1.11,18.8-5.49,21.29-5.71,1.31-.12,4.74-1.41,4.17,1.15l-18.99,107.52-21.77-.12-34.67-66.83-11.5,67.01h-25Z" style="fill: #bb2f42;"/>
  <polygon points="227 273 244.95 168.67 266.53 163.89 301.01 231 313.2 169.2 336.51 163.99 337.87 167.36 319.56 272.06 297.49 272.01 262.51 206.99 251 273 227 273" style="fill: #bb2f42;"/>
  <path d="M437,273l20.47-109.07c32.94,4.08,90.18-15.64,85.37,36.41-2.34,25.34-9.27,72.66-43.34,72.66h-62.5Z" style="fill: #bb2f42;"/>
  <path d="M1036.44,264.43c-18.61,15.72-78.33,18.13-83.17-13.19-1.89-12.19,6.07-55.32,11.92-66.56,15.42-29.63,86.64-31.15,92.73.91,3.34,17.61-6.93,66.56-21.47,78.84Z" style="fill: #bb2f42;"/>
  <path d="M1056,273l19.95-109.55c26.02,1.96,79.5-12.29,76.91,28.91-1.08,17.26-7.17,35.27-24.94,41.26l15.08,39.38h-25l-13.49-37.01-16.06-1.06c-3.62.75-6.48,38.07-8.95,38.07h-23.5Z" style="fill: #bb2f42;"/>
  <polygon points="1269 163 1262 210 1303 210 1311.5 163 1333.5 163 1316 273 1292 273 1299 230 1258 230 1251 273 1226 273 1246 163 1269 163" style="fill: #bb2f42;"/>
  <path d="M130.01,139.01l-4.1,21.92c-17.77-3.48-55.07-7.83-65.79,10.94-4.74,8.3-13.37,57.08-12.12,66.64,3.19,24.31,48.56,15.26,64.99,12.51l-3.9,21.35c-23.88,5.48-77.23,10.62-86.14-19.81-4.11-14.04,4.91-61.23,9.54-76.55,13.79-45.59,58.64-42.12,97.51-36.99Z" style="fill: #bb2f42;"/>
  <polygon points="326 273 379.94 171.44 410.51 163.91 430 273 404 273 400.41 249.94 362.05 250.06 353 273 326 273" style="fill: #bb2f42;"/>
  <path d="M220,273h-26l-3.15-22.85-37.97.45-10.38,22.4h-26.5l53.94-101.56c1.36-1.16,29-7.82,30.54-7.48,5.41,1.18,15.29,97.41,19.52,109.04Z" style="fill: #bb2f42;"/>
  <path d="M574,273l53.25-101.74,32.18-7.32,17.57,109.06h-24.5l-4.44-22.56c-6.49.15-34.55-2.32-37.97,1.16-1.89,1.92-8.58,21.4-10.6,21.4h-25.5Z" style="fill: #bb2f42;"/>
  <polygon points="1162 183 1165.01 163 1236.85 164.58 1234 183 1209.47 183.97 1194 273 1170 273 1185 183 1162 183" style="fill: #bb2f42;"/>
  <polygon points="586 164 567 273 542 273 561 164 586 164" style="fill: #bb2f42;"/>
  <path d="M239.5,355c-2.44.84-4.27,11.3-6.5,12.5-1.09.59-7.68,1.7-6.98-.97l25.89-55.87,8.59-1.7,7.52,58.52c-11.6,6.03-7.03-12.48-8.02-12.48h-20.5Z" style="fill: #a4aab0;"/>
  <path d="M154.99,308l-2.98,19c6.91-3.23,20.82-7.79,21.95,3.61.29,2.92-4.8,35.25-5.9,36.76-.8,1.1-5.85.86-6.06.64-2.45-2.39,7.77-31.74,3.46-36.97-2.64-3.2-12.35-.45-14.36,2.56-2.97,4.45-4.83,33.2-6.11,34.39-.44.41-5.58-.24-6.99,0,2.56-6.97,7.88-56.89,10.11-58.89.37-.33,5.54-.37,6.89-1.1Z" style="fill: #a4aab1;"/>
  <path d="M209,348h-22.5c-1.57,0-4.05,9.4-.46,12.47,4.72,4.03,20.19-.19,20.96.54.21.2-1.01,5.56-1.21,5.77-3.03,3.32-27.02,3.93-28.6-7.56-.6-4.37,3.24-22.9,5.27-27.27,5.69-12.24,27.84-13.37,28.32,2.53.12,4.03-2.52,9.15-1.78,13.52Z" style="fill: #a4aab1;"/>
  <path d="M72,324c1.27,1.28,2.27,31.5,3.01,36,5.59-5.11,12.62-31.78,16.46-35.02,1.44-1.22,6.57-2.3,6.53.52-.02,2.19-15.79,35.35-18.15,39.87-4.38,8.37-9.21,21.15-21.07,19.41-3.62-.53-2.53-5.93-1.78-6.76.31-.34,4.77,2.04,8.93-.57,1.2-.75,5.98-8.03,6.06-8.96.03-.41-1.81-.5-1.91-1.25-1.88-14.19-3.43-28.47-5.1-42.71.23-.77,6.77-.77,7.02-.52Z" style="fill: #a4aab0;"/>
  <path d="M46,309c-1.21,1.27-.79,5.78-1.01,5.99-.81.8-19.77-.69-22.88.13l-3.11,19.88h21c-.24,11.66-17.24,2.95-22.06,6.44-2.11,1.53-3.96,25.63-4.99,26.5-.66.56-5.43-.22-6.94.06l10-58.99h30Z" style="fill: #a3aab1;"/>
  <path d="M347.99,313.01l-1.99,10.98,10.01.52c.76,9.57-9.1,3.7-11,5.5-1.08,1.02-4.41,27.87-4.01,29.48,1.44,5.83,8.65,2.12,8.99,2.51,2.61,8.99-14.42,8.43-15.95,1.46-1.35-6.12,5.25-32.15,3.97-33.47-.33-.34-3.7.35-4.02.01-.21-.22-.21-5.8,0-6.01.47-.46,4.86.61,5.9-.11,1.79-1.25-.2-13.05,8.1-10.88Z" style="fill: #a4aab0;"/>
  <path d="M131,313.01l-1.99,10.99h9c1.99,9.65-7.5,4.4-9.9,6.12-1.2.86-5.19,27.26-4.92,29.17,1.02,7.07,9.69.5,9.83,4.22.24,6.83-11.96,5.73-14.77,3.23-5.65-5.01,2.96-28.66,2.76-36.22l-5.03-1.03c.12-8.84,5.25-4.08,6.97-5.54,1.19-1.01-.34-13.17,8.04-10.94Z" style="fill: #a4aab1;"/>
  <path d="M401.93,324.06c.19.23.27,5.73.06,5.95-1.04,1.09-11.41-4.08-17.03,2.47-3,3.49-6.85,24.75-4,28.06,3.33,3.85,15.45-.1,16.02.48.22.22-1.12,5.6-1.48,6.01-2.28,2.57-14.62,1.67-17.89-.14-9.5-5.24-3.46-38.48,8.14-42.61,2.86-1.02,14.75-1.91,16.17-.2Z" style="fill: #a3aab1;"/>
  <path d="M328.93,324.06c.19.23.27,5.73.06,5.95-.84.88-11.61-3.69-17.03,2.47-3.14,3.57-6.82,24.66-4.07,28.13,1.94,2.45,11.97,1.73,15.09.4,3.28,11.47-20.06,9.25-22.54,1.05-2.68-8.88,1.62-33.97,12.31-37.79,2.86-1.02,14.75-1.91,16.17-.2Z" style="fill: #a4aab0;"/>
  <path d="M59.99,306c1.92,2.14-10.77,49.93-8.03,56.58,2.1,1.65,4.68-2.54,5,.86.64,6.95-10.91,6.05-12.51,1.61-3.37-9.41,9.28-45.78,8.6-58l6.94-1.05Z" style="fill: #a4aab1;"/>
  <path d="M300.95,329.96c-.57.58-11.69.56-14.85,5.65-2.75,4.43-4.55,31.08-6.22,32.28-.96.69-5.25-.21-6.89.11,1.76-5.19,6.24-42.68,8.14-43.85.56-.35,5.65-.33,5.86-.13,1.16,1.06-2.56,5.5.48,4.99,3.22-3.82,8.14-5.37,12.95-5.95,1.81.41.76,6.67.52,6.92Z" style="fill: #a4aab1;"/>
  <path d="M371,324.01c-3.04,6.48-5.14,40.12-7.87,43.41-.81.98-5.91.79-6.13.58-1.58-1.53,5.67-41.58,6.95-43.36,1.16-1.62,5.35-.21,7.05-.63Z" style="fill: #a4aab1;"/>
  <path d="M372.99,311.01c1.99,2.1-2.12,12.4-8,9-3.24-5.54,5.84-11.27,8-9Z" style="fill: #a9aeb4;"/>
  <path d="M912,269l2.73,3h21.27c-1.66,2.61-25.16,4.88-24-3Z" style="fill: #b54150;"/>
  <path d="M464,254c3.18-8.01,10.51-70.14,14.47-71.07,10.34-2.42,38.07-.99,39.94,13.24.72,5.46-5.95,41.14-8.53,46.21-2.97,5.84-12.07,11.62-18.38,11.62h-27.5Z" style="fill: #fefefe;"/>
  <path d="M1004.76,182.26c13.28-1.88,29.79.1,29.14,17.08-.29,7.47-6.77,41.03-10.47,46.59-9.1,13.65-44.32,16.03-45.97-4.87-.47-6.02,6.34-41.39,9.14-46.95,3.49-6.92,10.71-10.79,18.16-11.84Z" style="fill: #fefefe;"/>
  <path d="M1092.5,216c-2.81-1.06,2.51-32.46,4.09-33.06,4.55-1.73,28.72-.96,30.96,6.01,4.41,13.73-4.63,27.05-19.05,27.05-3.03,0-14.35.62-16,0Z" style="fill: #fefdfd;"/>
  <polygon points="373 231 393.49 189.99 397.5 231 373 231" style="fill: #fdfbfb;"/>
  <polygon points="163 231 182.51 189.99 189 231 163 231" style="fill: #fdfafb;"/>
  <polygon points="621 231 639.5 189.98 642.02 190.58 646 231 621 231" style="fill: #fdfcfb;"/>
  <polygon points="259 349 242 349 255.5 317.99 259 349" style="fill: #fdfdfe;"/>
  <path d="M203,343h-17c.64-17.99,22.22-20.65,17,0Z" style="fill: #fdfdfd;"/>
</svg>