<?xml version="1.0" encoding="UTF-8" standalone="no"?>
<svg
   version="1.1"
   id="Layer_1"
   x="0px"
   y="0px"
   width="100%"
   viewBox="0 0 2399 849"
   enable-background="new 0 0 2399 849"
   xml:space="preserve"
   sodipodi:docname="Logo_wordmark_Aerolíneas_Argentinas_(2010).svg"
   inkscape:version="1.4 (86a8ad7, 2024-10-11)"
   xmlns:inkscape="http://www.inkscape.org/namespaces/inkscape"
   xmlns:sodipodi="http://sodipodi.sourceforge.net/DTD/sodipodi-0.dtd"
   xmlns="http://www.w3.org/2000/svg"
   xmlns:svg="http://www.w3.org/2000/svg"><defs
   id="defs33" /><sodipodi:namedview
   id="namedview33"
   pagecolor="#ffffff"
   bordercolor="#000000"
   borderopacity="0.25"
   inkscape:showpageshadow="2"
   inkscape:pageopacity="0.0"
   inkscape:pagecheckerboard="0"
   inkscape:deskcolor="#d1d1d1"
   inkscape:zoom="0.37411421"
   inkscape:cx="1221.5521"
   inkscape:cy="592.06518"
   inkscape:window-width="1920"
   inkscape:window-height="1001"
   inkscape:window-x="-9"
   inkscape:window-y="-9"
   inkscape:window-maximized="1"
   inkscape:current-layer="Layer_1" />
<path
   fill="#FEFFFF"
   opacity="1.000000"
   stroke="none"
   d=" M1.000010,736.000000   C1.000000,491.017273 1.000000,246.034546 1.000000,1.051827   C1.149379,1.034551 1.298759,1.002131 1.448138,1.002130   C800.891785,0.999997 1600.335449,1.000000 2399.889648,1.000000   C2399.889648,283.906342 2399.889648,566.812744 2399.889648,850.000000   C1801.969116,850.000000 1203.938110,850.000000 605.150391,849.798767   C604.469177,849.367004 604.544739,849.136414 605.101318,848.962158   C612.535522,848.336853 619.510315,847.825867 626.438171,846.945312   C665.481995,841.982483 692.479919,821.703735 706.224792,784.352478   C714.325867,762.338074 717.517761,739.224854 721.935303,716.395325   C732.960388,659.419006 743.721924,602.391724 754.593750,545.385681   C757.646790,529.377380 760.777771,513.383728 763.751160,497.360718   C765.258911,489.235352 762.692322,485.363434 754.582458,482.926453   C753.311829,482.544647 752.032532,482.155090 750.729980,481.921387   C738.947083,479.807495 727.189697,477.525726 715.364746,475.677399   C685.975647,471.083710 656.514526,469.059509 626.811890,472.865692   C576.684692,479.289093 542.633728,505.759827 525.003418,553.285339   C516.909546,575.103760 513.360291,597.960754 508.788177,620.610718   C504.679260,640.966370 501.966370,661.381653 504.981873,682.100586   C509.377808,712.303833 525.050598,734.263855 553.630066,745.979797   C578.515320,756.181213 604.515198,756.722229 630.792053,753.532837   C641.453552,752.238770 652.104248,750.856323 664.351074,749.313660   C661.087463,759.925171 658.586853,769.881714 654.957092,779.408081   C650.109619,792.130615 640.720337,800.641846 627.572388,804.405457   C621.531250,806.134705 615.247925,807.367249 608.993347,807.940369   C582.310059,810.385620 555.776184,807.004456 529.205078,805.355408   C519.907898,804.778320 510.649780,803.472107 501.349335,803.080505   C494.060242,802.773499 489.525757,806.893494 488.047455,814.022888   C487.305084,817.603271 486.630188,821.198547 485.984558,824.797852   C484.244110,834.500244 486.074249,837.948669 495.684540,840.326172   C517.891602,845.819946 540.515015,848.382812 563.489746,849.250061   C563.402893,849.730164 563.201477,849.865051 563.000000,850.000000   C375.780945,850.000000 188.561905,850.000000 1.000000,850.000000   C1.000000,814.969849 1.000000,779.938538 1.278680,744.645935   C3.727972,750.044800 8.276247,751.885193 13.856826,751.913330   C23.521727,751.962097 33.191185,751.754395 42.850990,751.982239   C52.436180,752.208374 58.815598,748.108032 62.999878,739.440796   C79.857803,704.521545 97.015465,669.746826 113.865997,634.824036   C115.588364,631.254395 117.550728,630.150391 121.416618,630.164368   C161.576401,630.310120 201.736908,630.253418 241.897217,630.252930   C243.503235,630.252930 245.109253,630.252930 247.047165,630.252930   C249.072937,647.525940 251.023499,664.199646 252.985031,680.872070   C255.279297,700.372681 257.473206,719.885986 259.931946,739.365967   C261.062958,748.326721 265.392517,751.898804 274.249451,751.926453   C283.914490,751.956604 293.580139,751.991821 303.244690,751.917114   C314.271545,751.831909 319.973907,745.052551 318.409088,733.996399   C313.001251,695.787109 307.552521,657.583679 302.172882,619.370422   C294.057007,561.721008 286.033325,504.058624 277.869049,446.416107   C275.249054,427.917725 265.480347,414.742096 247.208511,409.593109   C218.406265,401.476715 180.851166,409.453918 162.217743,443.477386   C137.270355,489.029785 112.129028,534.476013 87.055435,579.959229   C58.379204,631.977783 29.685923,683.986877 1.000010,736.000000  M305.500000,261.013763   C319.936523,261.013763 334.373047,261.013763 348.947235,261.013763   C351.346252,281.324402 353.660736,300.987701 355.993561,320.648834   C357.954407,337.174500 359.830811,353.711212 361.956573,370.215759   C362.930267,377.775757 366.853027,381.888611 373.240479,382.002563   C384.902069,382.210693 396.574615,382.243805 408.233856,381.973511   C414.880035,381.819427 419.393921,377.270935 420.043610,370.646240   C420.333862,367.686615 420.332153,364.624756 419.929321,361.682343   C416.567322,337.124329 413.101746,312.580383 409.627075,288.037903   C404.799988,253.942993 399.913818,219.856415 395.097504,185.759995   C390.025146,149.851074 385.091522,113.922318 379.927155,78.026703   C377.184998,58.967285 366.943970,45.303249 348.157410,40.358353   C317.053253,32.171268 281.963928,41.700844 263.603668,75.150665   C214.977783,163.740265 166.074295,252.177505 117.287643,340.678894   C113.108330,348.260376 108.733704,355.747375 104.882362,363.493317   C99.775032,373.765289 104.945671,382.069824 116.265434,382.164581   C126.097763,382.246887 135.936432,381.991089 145.762787,382.248047   C155.045990,382.490814 161.000687,378.392975 165.016434,370.085358   C181.891998,335.173981 199.086853,300.416962 215.956848,265.502960   C217.693954,261.907837 219.683319,260.899963 223.503143,260.923981   C250.501221,261.093658 277.500854,261.013947 305.500000,261.013763  M1906.122925,297.382355   C1906.751465,303.671875 1907.084229,310.007538 1908.057495,316.243225   C1913.452271,350.806244 1936.273682,375.622192 1970.280884,383.063873   C2000.313477,389.635803 2029.170288,385.593414 2056.498535,371.370209   C2061.919434,368.548889 2067.216797,365.490112 2072.924805,362.346039   C2072.924805,364.766235 2072.905762,366.715515 2072.927979,368.664368   C2073.035889,378.077393 2076.950439,382.083893 2086.237305,382.167419   C2093.069336,382.228882 2099.903809,382.264313 2106.734863,382.159576   C2116.385498,382.011597 2123.223145,375.878815 2124.993408,366.299377   C2129.706543,340.792328 2134.480469,315.296326 2139.309326,289.810913   C2149.770996,234.595444 2160.369629,179.405502 2170.557861,124.139740   C2171.182861,120.748688 2169.695801,115.941849 2167.425537,113.326797   C2165.066895,110.610016 2160.717529,108.955116 2156.968506,108.227119   C2140.655762,105.059334 2124.320312,101.810059 2107.851562,99.687424   C2081.020020,96.229034 2054.080811,95.172325 2027.239136,100.035919   C1979.866577,108.619637 1946.923462,135.056076 1928.761597,179.752441   C1920.995605,198.864380 1917.882202,219.130615 1914.015259,239.200806   C1910.368652,258.127319 1905.580688,276.909241 1906.122925,297.382355  M1895.078857,210.579193   C1895.091919,199.457382 1896.201538,188.207550 1894.920532,177.236847   C1890.388428,138.425278 1868.319580,113.707672 1831.519653,101.886963   C1812.300415,95.713455 1792.479126,95.767105 1772.652100,97.882561   C1723.497192,103.127205 1687.452271,127.701088 1664.641357,171.615479   C1653.775513,192.534103 1648.461060,215.153687 1644.031616,238.073151   C1640.338257,257.184631 1635.938354,276.174835 1636.973267,295.879425   C1638.572266,326.321655 1651.114502,350.674072 1676.936890,367.441071   C1698.192139,381.242615 1722.172485,385.485535 1746.975830,385.749329   C1779.366821,386.093842 1811.421143,382.289581 1843.305054,376.877563   C1851.627197,375.464966 1856.727417,370.817352 1858.144043,362.295319   C1859.070923,356.720917 1860.395508,351.211395 1861.277100,345.630981   C1862.555908,337.535797 1858.753540,332.562073 1850.595703,332.222229   C1845.985596,332.030182 1841.317627,332.795471 1836.698120,333.325256   C1807.239502,336.703857 1777.720093,339.826874 1748.049561,338.657379   C1737.919434,338.258118 1727.587891,335.853577 1717.916382,332.650665   C1704.331421,328.151764 1695.728271,318.165680 1693.258667,303.758820   C1691.035156,290.787476 1692.214478,277.932281 1695.210815,265.138763   C1696.213379,260.857819 1698.193237,259.827911 1702.379517,259.838287   C1758.200684,259.976807 1814.022217,259.940094 1869.843750,259.914551   C1880.969604,259.909454 1886.010498,256.417938 1888.469849,245.750931   C1891.081665,234.423233 1892.864136,222.904266 1895.078857,210.579193  M440.933136,283.553528   C440.962799,288.717102 440.703583,293.901276 441.070770,299.040741   C442.933228,325.108917 453.476379,346.770203 474.278778,363.003082   C495.138916,379.281067 519.600464,384.961609 545.304260,385.801971   C579.874817,386.932251 614.084778,382.798950 648.102417,376.980591   C653.625305,376.035950 658.800476,373.606689 660.323425,367.963684   C662.562500,359.667328 664.174438,351.128967 665.151184,342.590485   C665.793579,336.975281 662.346680,333.457489 656.601257,332.955414   C652.174500,332.568573 647.625000,332.849121 643.193481,333.371429   C612.086121,337.037872 580.928528,340.109924 549.565125,338.854767   C541.848450,338.545990 533.998108,337.018585 526.577637,334.812164   C510.951050,330.165710 500.001678,320.431244 497.183319,303.581818   C495.011993,290.600616 496.216949,277.760712 499.324127,264.982758   C500.319550,260.889252 502.115814,259.991791 506.066406,260.004395   C551.215820,260.148499 596.365906,260.097931 641.515808,260.092010   C653.177979,260.090454 664.840088,260.066376 676.502258,260.047272   C683.642761,260.035583 688.621887,256.775604 690.962036,249.990540   C692.094788,246.706223 692.874268,243.282898 693.594055,239.876144   C697.864014,219.666336 701.878540,199.487030 699.163818,178.572174   C694.309204,141.170761 674.606079,115.626831 639.006531,103.029266   C616.168701,94.947685 592.545593,95.373276 568.934143,98.920807   C527.589294,105.132713 495.852966,126.079636 474.010956,161.770294   C461.693665,181.897217 454.489685,203.998535 450.178192,227.026810   C446.724731,245.472183 443.995850,264.053192 440.933136,283.553528  M871.025818,282.628357   C871.346558,289.605225 871.122986,296.657623 872.078918,303.546326   C877.148071,340.074707 895.933777,366.194122 931.178772,379.010834   C953.933228,387.285431 977.503235,387.328888 1001.182190,384.136902   C1053.895264,377.031067 1090.732300,349.486877 1110.374390,299.543732   C1118.540161,278.780640 1122.033203,256.965454 1126.063599,235.235886   C1129.406982,217.211395 1132.110229,199.236053 1130.217529,180.724869   C1126.228760,141.712677 1102.890015,112.934013 1065.387573,101.890228   C1042.049316,95.017517 1018.308105,95.425270 994.626831,99.124046   C957.535339,104.917374 927.284058,122.195068 906.153625,153.953842   C896.002197,169.211258 888.429688,185.777527 884.796021,203.640015   C879.533020,229.512177 875.556396,255.645996 871.025818,282.628357  M2011.051514,732.568176   C2012.857666,731.454407 2014.663696,730.340576 2017.008179,728.894836   C2016.553833,733.221313 2015.917969,736.807434 2015.851929,740.404053   C2015.698730,748.750671 2018.835938,751.836914 2027.236084,751.923401   C2032.900024,751.981689 2038.565186,751.934753 2044.229736,751.929260   C2055.503418,751.918396 2060.975586,747.184937 2063.040771,736.160156   C2069.468994,701.846130 2075.990723,667.549561 2082.506348,633.251953   C2091.256104,587.195251 2100.048340,541.146667 2108.781494,495.086823   C2109.813721,489.642181 2107.888428,486.154694 2102.713379,483.911652   C2100.747803,483.059784 2098.639648,482.427856 2096.533447,482.027679   C2082.982910,479.453003 2069.482422,476.493011 2055.837891,474.558685   C2028.906250,470.740570 2001.867676,468.953979 1974.735962,472.846161   C1919.565918,480.760681 1883.262939,511.351379 1867.263550,564.557373   C1860.825317,585.967163 1857.743652,608.374023 1852.839111,630.261047   C1848.830078,648.152100 1847.796387,666.095337 1849.960938,684.313538   C1853.856689,717.105164 1875.189087,742.666931 1906.439331,751.646301   C1921.760986,756.048767 1937.365723,755.956177 1953.011353,754.468018   C1974.055542,752.466492 1992.715332,743.914368 2011.051514,732.568176  M1618.639282,202.092514   C1619.277710,196.137466 1620.224731,190.196533 1620.498047,184.224777   C1621.399414,164.522522 1618.371826,145.594147 1607.125488,128.913727   C1592.130371,106.673363 1569.660889,98.633408 1544.111084,97.018219   C1516.785522,95.290764 1490.808838,100.569016 1466.082031,112.247055   C1463.015137,113.695457 1459.831787,114.897354 1456.546631,116.279015   C1454.984131,102.985245 1451.736938,100.143852 1438.726440,100.121887   C1431.895142,100.110359 1425.061890,100.016792 1418.233032,100.144920   C1408.595581,100.325737 1401.845947,105.815308 1399.758911,115.197899   C1398.604736,120.387413 1397.773071,125.648476 1396.785400,130.875259   C1382.029419,208.963974 1367.276123,287.053192 1352.509033,365.139801   C1350.548340,375.508118 1355.572754,382.265686 1366.018311,382.631561   C1374.172119,382.917145 1382.352539,382.906708 1390.506348,382.615997   C1400.767334,382.250122 1407.343872,376.693451 1409.281006,366.630737   C1417.609741,323.366882 1425.804810,280.077301 1434.026978,236.792953   C1438.463745,213.435959 1442.812744,190.062119 1447.355103,166.725800   C1447.717529,164.863617 1448.860229,162.303833 1450.345459,161.635590   C1477.616333,149.366241 1505.848022,142.085190 1536.092896,146.071732   C1553.534912,148.370743 1561.216553,155.636536 1563.254272,173.157028   C1564.013062,179.680588 1563.651733,186.525772 1562.613159,193.034698   C1557.529785,224.889252 1552.087524,256.686920 1546.690063,288.490753   C1542.322144,314.227020 1537.815186,339.939636 1533.415894,365.670593   C1531.724121,375.566040 1537.047852,381.930573 1547.057983,382.026031   C1554.555176,382.097534 1562.053345,382.067810 1569.551147,382.047211   C1582.344116,382.012085 1589.041382,376.039917 1591.005249,363.234985   C1592.341064,354.524536 1593.912109,345.849945 1595.400513,337.163208   C1603.066162,292.422089 1610.739258,247.682266 1618.639282,202.092514  M868.742188,478.151642   C833.076233,489.973877 807.995178,513.656921 791.617249,547.055725   C783.129395,564.364685 778.078491,582.766479 774.462463,601.614624   C770.141235,624.138428 764.382446,646.449707 765.908203,669.744385   C767.652588,696.378540 778.435608,718.129517 800.039185,734.090515   C819.662476,748.588440 842.389709,753.952454 866.197876,754.818970   C880.983887,755.356995 895.901123,755.110291 910.627808,753.769592   C930.650574,751.946655 950.551697,748.773071 970.496094,746.112183   C976.872559,745.261475 980.621277,741.366333 981.978699,735.227539   C983.342712,729.058838 984.613525,722.861755 985.655334,716.631958   C986.540894,711.336426 984.054443,707.595093 978.748901,706.995728   C974.514648,706.517517 970.116760,706.810486 965.859436,707.324280   C937.244446,710.777344 908.578552,713.868652 879.724976,713.097473   C869.353638,712.820190 858.772583,711.442688 848.757263,708.791626   C831.685791,704.272644 820.067139,693.434326 817.238403,675.232666   C815.145386,661.765442 816.261353,648.421509 819.750000,635.169739   C821.016785,630.357666 823.096680,629.123230 827.858032,629.137268   C884.013306,629.302917 940.169312,629.251221 996.325073,629.234070   C1006.647949,629.230957 1010.494202,626.927734 1012.461853,617.999817   C1016.216980,600.961792 1020.128235,583.950989 1020.347595,566.309448   C1020.952454,517.667969 994.922363,483.597260 947.962341,473.578033   C921.613647,467.956421 895.310730,470.142120 868.742188,478.151642  M1060.307129,556.834778   C1049.054199,616.796753 1037.815308,676.761292 1026.534302,736.717957   C1024.711914,746.403320 1028.695190,751.624268 1038.370239,751.748169   C1045.866699,751.844177 1053.365723,751.834900 1060.862793,751.768250   C1070.635620,751.681458 1076.847046,746.617249 1078.711426,736.985168   C1081.902344,720.499451 1084.900269,703.976440 1088.030151,687.478699   C1097.635986,636.844299 1107.246704,586.210815 1116.970825,535.599121   C1117.291016,533.932312 1118.499634,531.726318 1119.898193,531.081360   C1148.198608,518.030884 1177.596802,510.841675 1209.023438,515.050598   C1224.226196,517.086670 1233.237427,524.212585 1236.488892,537.300964   C1237.441895,541.136658 1238.208374,545.277100 1237.802124,549.145691   C1236.345093,563.019287 1234.967163,576.949951 1232.445435,590.654053   C1223.419312,639.705872 1213.920044,688.670471 1204.642578,737.676208   C1203.026855,746.211060 1207.395996,751.629944 1216.156128,751.833313   C1224.149292,752.018860 1232.152100,751.982605 1240.147217,751.842285   C1249.263184,751.682373 1255.290649,746.162659 1256.996948,737.169861   C1266.139526,688.986145 1275.303467,640.806396 1284.580200,592.648376   C1288.332031,573.171509 1291.940674,553.776855 1289.078735,533.747131   C1284.690918,503.040894 1265.617920,480.910339 1235.276001,474.012115   C1205.382935,467.215942 1176.069824,470.570831 1147.748169,482.280090   C1140.263672,485.374512 1132.863403,488.672791 1125.069458,492.030396   C1125.069458,490.589813 1125.031128,489.620331 1125.075317,488.654572   C1125.586426,477.461609 1122.512817,474.200714 1111.375977,474.176575   C1104.378174,474.161407 1097.379761,474.121094 1090.382568,474.183502   C1081.039917,474.266785 1074.913574,479.277222 1073.197510,488.362274   C1068.939453,510.904724 1064.761963,533.462341 1060.307129,556.834778  M1808.076904,704.619995   C1808.332153,703.483154 1808.619629,702.352478 1808.838013,701.208618   C1815.791138,664.790894 1822.705444,628.365723 1829.697998,591.955566   C1833.375366,572.808044 1836.801636,553.727051 1834.099609,534.024597   C1830.047852,504.481018 1811.946167,482.576752 1783.326294,474.952789   C1756.375000,467.773376 1729.516602,469.688843 1703.250366,478.672699   C1692.141602,482.472229 1681.380737,487.289459 1670.181030,491.756104   C1670.181030,490.367859 1670.129272,489.095551 1670.189331,487.828491   C1670.662598,477.843750 1667.183594,474.205505 1657.070068,474.177551   C1650.571899,474.159607 1644.073608,474.167969 1637.575439,474.171021   C1625.328613,474.176727 1620.253418,478.595825 1617.962891,490.815399   C1608.559204,540.982910 1599.104004,591.140869 1589.636475,641.296387   C1583.562134,673.477478 1577.405762,705.643127 1571.346558,737.827087   C1569.807983,745.999329 1574.345215,751.594177 1582.625000,751.734192   C1590.620483,751.869507 1598.622070,751.871521 1606.617432,751.728760   C1615.777100,751.565247 1622.114624,746.214233 1623.806274,737.360168   C1625.928223,726.253845 1627.932251,715.125061 1630.031494,704.014343   C1640.186523,650.265442 1650.597656,596.562683 1660.273438,542.727661   C1661.805786,534.201416 1665.395386,530.186218 1673.183228,527.139893   C1699.178101,516.971619 1725.642090,511.246948 1753.682983,514.930542   C1771.110474,517.219849 1780.412720,524.959595 1782.104126,542.294678   C1783.169189,553.212158 1782.161499,564.638794 1780.190918,575.493469   C1770.420532,629.312134 1760.003418,683.013184 1749.857910,736.764038   C1748.041260,746.389038 1752.223022,751.585876 1761.876953,751.748962   C1769.372681,751.875671 1776.873535,751.855530 1784.370117,751.751953   C1794.260254,751.615295 1800.194702,746.477722 1801.994751,736.828003   C1803.945923,726.368225 1805.975952,715.923096 1808.076904,704.619995  M2231.325195,237.174347   C2238.401611,241.554352 2245.470459,245.946823 2252.555908,250.311890   C2269.419922,260.700623 2286.392578,270.917267 2303.107910,281.539612   C2309.370361,285.519073 2314.447998,290.923553 2316.029053,298.624084   C2318.653076,311.403717 2312.020020,324.654449 2299.866211,331.189240   C2290.742188,336.094940 2280.781494,338.842590 2270.648682,338.750397   C2248.856689,338.552246 2227.068848,337.381500 2205.290771,336.366608   C2195.155518,335.894287 2185.058105,334.511047 2174.922607,334.185333   C2166.741455,333.922455 2161.521484,338.731354 2159.971924,346.717712   C2159.180176,350.798553 2158.484619,354.897949 2157.711670,358.982544   C2155.406250,371.160736 2159.054443,377.187073 2171.507812,378.921082   C2190.267578,381.533295 2209.121582,383.624023 2227.995361,385.228424   C2252.982666,387.352509 2277.940918,386.759460 2302.483154,380.949554   C2325.434326,375.516296 2345.720947,365.439209 2359.823486,345.601349   C2377.309570,321.003784 2383.471680,276.307434 2349.607422,250.266296   C2333.958984,238.232941 2316.832275,228.116791 2300.327637,217.204041   C2285.768799,207.577759 2270.658691,198.700821 2256.703125,188.273361   C2245.907227,180.206711 2246.339844,164.676270 2256.954102,156.238770   C2262.020508,152.211533 2268.235107,148.959900 2274.451416,147.172989   C2293.510010,141.694565 2313.147949,143.896469 2332.566406,144.556854   C2347.690186,145.071213 2362.771484,146.765244 2377.881348,147.791000   C2388.383789,148.503998 2394.406738,143.505600 2396.115234,132.999130   C2396.809082,128.731918 2397.592529,124.477211 2398.187500,120.196281   C2399.556152,110.345535 2395.346680,104.449699 2385.420654,103.058929   C2370.772461,101.006531 2356.120117,98.523026 2341.385010,97.655930   C2314.949463,96.100304 2288.436523,95.463814 2262.261230,100.993698   C2240.172363,105.660248 2220.834961,115.001198 2206.302979,133.093140   C2190.711670,152.503845 2185.266113,188.288956 2204.014893,212.183929   C2211.619141,221.875351 2220.640381,229.869873 2231.325195,237.174347  M2194.370117,620.132507   C2211.659912,630.786377 2229.249023,640.988953 2246.165039,652.206543   C2268.066895,666.730347 2259.789062,693.709778 2244.340820,703.303467   C2234.571533,709.370361 2223.830566,712.813354 2212.674072,712.764160   C2189.891602,712.663696 2167.108887,711.420532 2144.337891,710.389526   C2134.867432,709.960693 2125.439209,708.548767 2115.968750,708.181824   C2108.188477,707.880310 2104.329346,711.390808 2102.738770,718.898926   C2102.084229,721.989258 2101.492676,725.094482 2100.945312,728.205688   C2098.354248,742.927307 2100.543457,746.068665 2115.283203,748.862976   C2115.447021,748.894104 2115.612305,748.917236 2115.776855,748.943115   C2152.425781,754.706238 2189.197754,757.633362 2226.207764,752.995605   C2246.605469,750.439575 2265.809570,744.516418 2282.682617,732.130310   C2315.219971,708.245605 2327.190186,650.533813 2284.932861,620.527344   C2268.534668,608.882935 2251.102051,598.700012 2234.220703,587.728699   C2221.396973,579.394592 2208.419434,571.254822 2196.020508,562.320496   C2182.309326,552.440186 2185.194336,532.161011 2198.069580,523.945190   C2204.372803,519.923218 2211.707275,516.619019 2219.003174,515.217285   C2242.783447,510.648560 2266.811279,513.352966 2290.739502,514.529419   C2300.208740,514.994995 2309.635986,516.277527 2319.102783,516.843201   C2327.877930,517.367493 2332.653564,513.503662 2334.186035,505.081390   C2335.049561,500.337555 2335.774658,495.561646 2336.357422,490.775269   C2337.342041,482.687225 2334.233154,478.502869 2326.312012,477.080872   C2289.697754,470.507874 2252.890869,468.792328 2215.888672,473.006989   C2196.237061,475.245422 2177.683594,480.828888 2161.869385,493.194366   C2139.765869,510.477722 2131.135742,533.362000 2136.152832,560.807251   C2138.969727,576.217834 2148.646484,588.071777 2160.684570,597.429077   C2171.162354,605.573608 2182.670898,612.392090 2194.370117,620.132507  M1405.948242,531.460022   C1406.918823,526.416443 1407.889526,521.372864 1408.919189,516.022278   C1411.052979,516.022278 1412.864868,516.022583 1414.676880,516.022217   C1430.836060,516.019043 1446.995361,516.046082 1463.154419,515.999817   C1471.551392,515.975830 1477.408325,511.452087 1479.368774,503.306427   C1480.494751,498.628052 1481.323364,493.868652 1482.082520,489.113312   C1483.719238,478.861145 1479.590210,474.102234 1469.098633,474.079468   C1453.605835,474.045868 1438.112915,474.069855 1422.620117,474.069305   C1420.829712,474.069244 1419.039429,474.069275 1416.812988,474.069275   C1417.430786,470.356415 1417.906616,467.257690 1418.467041,464.174408   C1420.250977,454.359406 1422.187134,444.570312 1423.834473,434.732697   C1425.334351,425.775726 1420.714600,420.242157 1412.750977,421.268585   C1403.351807,422.480133 1393.959839,423.762787 1384.589111,425.176758   C1376.448486,426.405151 1372.338135,430.480133 1370.801636,438.682159   C1368.842407,449.139984 1366.866455,459.597931 1365.176147,470.100677   C1364.718384,472.944702 1363.849609,474.049255 1360.849609,474.085846   C1351.360107,474.201477 1341.876099,474.695801 1332.386963,474.910736   C1320.221436,475.186279 1316.661987,478.619476 1313.707275,490.522064   C1309.458740,507.636719 1313.499878,510.687256 1329.991089,512.141968   C1338.693481,512.909668 1347.341675,514.289978 1356.139160,515.409546   C1356.031982,517.105286 1356.082031,518.278137 1355.868774,519.401001   C1350.070312,549.939087 1344.173462,580.458557 1338.444580,611.009644   C1333.052856,639.761780 1327.167358,668.444458 1322.753296,697.349182   C1319.333984,719.740356 1326.650513,738.753662 1348.937012,747.854553   C1374.554688,758.315674 1400.778198,756.060974 1427.050049,751.401733   C1432.369629,750.458374 1434.916870,746.117004 1435.946411,741.051025   C1436.873291,736.490540 1437.550903,731.880005 1438.427368,727.308594   C1440.282471,717.634277 1437.748657,714.387939 1427.840332,714.261536   C1418.346313,714.140442 1408.846802,714.366089 1399.354858,714.175964   C1393.717163,714.063049 1388.080566,713.540710 1382.460571,713.018188   C1377.602295,712.566528 1374.738281,709.607056 1374.641235,704.857971   C1374.536743,699.744751 1374.712402,694.526245 1375.622192,689.508972   C1379.596313,667.594421 1383.844238,645.729126 1388.062134,623.859375   C1393.949341,593.335022 1399.898560,562.822571 1405.948242,531.460022  M1198.135864,47.678177   C1190.111694,90.162354 1182.095703,132.648087 1174.061157,175.130295   C1163.802124,229.374268 1153.502930,283.610687 1143.282104,337.861847   C1141.344116,348.148438 1139.104248,358.431091 1138.084595,368.821655   C1137.210938,377.726013 1141.994751,382.170685 1150.820923,382.284210   C1159.651733,382.397858 1168.487305,382.431976 1177.316772,382.273041   C1186.410767,382.109314 1193.195923,376.441956 1194.889160,367.519165   C1203.320679,323.084930 1211.657593,278.632721 1220.044678,234.190002   C1230.189819,180.430862 1240.350830,126.674690 1250.507446,72.917694   C1253.193359,58.701164 1255.947266,44.497139 1258.558716,30.266949   C1260.269409,20.945194 1256.428955,15.199742 1247.279175,14.738447   C1236.819336,14.211096 1226.290039,14.296739 1215.828003,14.836720   C1208.287476,15.225912 1203.431152,20.329426 1201.981812,27.734119   C1200.736206,34.098148 1199.528809,40.469681 1198.135864,47.678177  M745.242126,133.785858   C744.829407,136.077271 744.433472,138.371841 744.001648,140.659637   C734.439148,191.319366 724.860962,241.976135 715.312073,292.638458   C710.722473,316.989166 706.126770,341.339050 701.655579,365.711639   C699.807861,375.783478 704.967163,381.998566 715.047058,382.102783   C723.379150,382.188934 731.714233,382.221771 740.045410,382.099915   C749.645081,381.959534 756.959900,375.853607 758.762878,366.547821   C760.882263,355.609131 762.884216,344.647705 764.935608,333.695892   C775.345947,278.119720 785.733887,222.539337 796.261658,166.985428   C796.612305,165.135086 797.977295,162.831955 799.546997,161.960907   C810.924255,155.647629 822.651550,149.806854 835.650269,147.964294   C847.310913,146.311401 859.124939,145.619095 870.895630,144.900681   C881.061584,144.280197 886.693604,139.915543 888.630554,130.113495   C889.791138,124.240402 890.923279,118.355827 891.830994,112.440018   C893.220276,103.386017 888.726807,97.101974 880.102722,96.893387   C854.938660,96.284729 830.626526,99.834259 808.500854,112.956429   C807.287842,113.675850 805.977600,114.231506 804.554565,114.942337   C803.134644,102.735741 800.044128,100.021935 788.076355,100.009491   C781.243286,100.002380 774.409912,99.963005 767.577209,100.011650   C757.653992,100.082291 750.856140,105.652527 748.891968,115.323036   C747.700195,121.190765 746.610291,127.079170 745.242126,133.785858  M385.164215,507.728546   C383.439331,517.048889 381.740173,526.374084 379.985413,535.688843   C369.117065,593.381714 358.230743,651.071228 347.364807,708.764587   C345.517914,718.570679 343.431213,728.345825 342.022461,738.216248   C340.714478,747.380493 344.875549,751.841858 353.891541,751.923828   C358.890869,751.969299 363.900970,751.729065 368.888916,751.972107   C388.014008,752.903992 392.531769,748.435974 396.063538,729.090820   C407.770294,664.967529 419.986420,600.937012 432.123627,536.893005   C432.445374,535.195312 433.747009,532.974487 435.193420,532.312622   C445.307281,527.684631 455.345520,522.703308 465.859497,519.184204   C479.703094,514.550720 494.310120,514.249207 508.827209,514.001953   C518.389526,513.839233 522.431946,510.316223 524.171570,501.081665   C525.249023,495.362152 526.316528,489.639374 527.274231,483.898987   C528.627075,475.790405 524.824219,471.010162 516.459351,470.907196   C490.006439,470.581604 464.743347,475.038513 442.252716,490.123352   C441.392365,490.700409 440.377289,491.046753 439.255035,491.586945   C439.255035,490.688141 439.174225,490.181580 439.266937,489.709015   C441.316620,479.259308 437.147491,474.105530 426.567535,474.072662   C419.567963,474.050934 412.567719,474.012054 405.568756,474.080566   C396.873352,474.165710 390.728638,479.264404 389.019043,487.781128   C387.742645,494.139648 386.565857,500.518188 385.164215,507.728546  M1326.235840,251.827484   C1334.775879,206.755646 1343.387573,161.697189 1351.799561,116.601440   C1353.634766,106.762840 1348.135742,100.419052 1338.075562,100.164886   C1331.083618,99.988243 1324.083862,100.114426 1317.087524,100.118767   C1302.936890,100.127533 1296.557251,105.677467 1293.955200,119.613800   C1285.534424,164.712784 1276.988892,209.788483 1268.490112,254.872925   C1261.500000,291.953674 1254.471802,329.027344 1247.542236,366.119446   C1245.758545,375.667206 1251.124756,382.050629 1260.871338,382.162659   C1269.365723,382.260315 1277.863525,382.277008 1286.357178,382.150146   C1295.766113,382.009644 1302.907471,376.150452 1304.667725,366.860748   C1311.877930,328.810730 1318.964355,290.737244 1326.235840,251.827484  M1507.483398,517.950989   C1506.568359,523.023010 1505.679932,528.099976 1504.734497,533.166321   C1492.017822,601.326355 1479.290649,669.484436 1466.573853,737.644470   C1464.973267,746.223511 1469.304077,751.748169 1477.947998,751.897705   C1486.111328,752.038940 1494.280029,752.005005 1502.444458,751.898743   C1510.904663,751.788635 1517.355347,746.292664 1518.906006,737.993469   C1522.632202,718.050781 1526.300537,698.097412 1530.027710,678.154968   C1539.254028,628.789062 1548.501343,579.427063 1557.737549,530.063049   C1559.786499,519.111511 1561.923340,508.175140 1563.840210,497.200439   C1565.649048,486.844482 1561.528320,481.909851 1551.175049,481.818207   C1543.509888,481.750336 1535.842529,481.735992 1528.177979,481.835083   C1519.574707,481.946289 1513.599609,486.723175 1511.846313,495.060059   C1510.306885,502.380005 1509.079346,509.765594 1507.483398,517.950989  M1310.948120,49.447651   C1307.884399,52.507084 1304.763184,55.511612 1301.773438,58.641655   C1298.898804,61.651123 1297.204102,65.744514 1299.644775,69.035500   C1301.504028,71.542480 1305.493652,73.571396 1308.673462,73.788185   C1317.792236,74.409882 1327.018188,74.485222 1336.126465,73.788986   C1340.480713,73.456154 1345.464966,71.878082 1348.793335,69.175972   C1368.049438,53.542889 1386.906860,37.418140 1405.863647,21.417746   C1407.375488,20.141724 1408.853760,18.703825 1409.942383,17.070934   C1413.436890,11.829209 1411.758789,6.864100 1405.779053,4.865534   C1403.778442,4.196855 1401.552856,3.967436 1399.426392,3.947966   C1389.432983,3.856462 1379.425537,4.218853 1369.448120,3.809415   C1361.526489,3.484342 1355.307739,6.192960 1349.774170,11.671530   C1337.110352,24.209570 1324.247559,36.546726 1310.948120,49.447651  M1541.136841,407.525391   C1532.195557,408.672760 1526.323364,413.100800 1525.191528,420.105377   C1524.053833,427.145905 1523.161743,434.240662 1522.530396,441.344391   C1521.916748,448.249603 1525.445190,452.852631 1532.305298,453.186523   C1542.243408,453.670135 1552.245361,453.761322 1562.175049,453.210266   C1570.061646,452.772614 1575.371704,447.308838 1576.588013,439.666992   C1577.552734,433.605072 1578.381226,427.507141 1578.914307,421.394135   C1579.739746,411.930176 1575.954834,407.729126 1566.462036,407.526215   C1558.320435,407.352142 1550.172363,407.489288 1541.136841,407.525391  z"
   id="path1" />
<path
   fill="#397FC0"
   opacity="1.000000"
   stroke="none"
   d=" M1.000010,736.444153   C29.685923,683.986877 58.379204,631.977783 87.055435,579.959229   C112.129028,534.476013 137.270355,489.029785 162.217743,443.477386   C180.851166,409.453918 218.406265,401.476715 247.208511,409.593109   C265.480347,414.742096 275.249054,427.917725 277.869049,446.416107   C286.033325,504.058624 294.057007,561.721008 302.172882,619.370422   C307.552521,657.583679 313.001251,695.787109 318.409088,733.996399   C319.973907,745.052551 314.271545,751.831909 303.244690,751.917114   C293.580139,751.991821 283.914490,751.956604 274.249451,751.926453   C265.392517,751.898804 261.062958,748.326721 259.931946,739.365967   C257.473206,719.885986 255.279297,700.372681 252.985031,680.872070   C251.023499,664.199646 249.072937,647.525940 247.047165,630.252930   C245.109253,630.252930 243.503235,630.252930 241.897217,630.252930   C201.736908,630.253418 161.576401,630.310120 121.416618,630.164368   C117.550728,630.150391 115.588364,631.254395 113.865997,634.824036   C97.015465,669.746826 79.857803,704.521545 62.999878,739.440796   C58.815598,748.108032 52.436180,752.208374 42.850990,751.982239   C33.191185,751.754395 23.521727,751.962097 13.856826,751.913330   C8.276247,751.885193 3.727972,750.044800 1.278680,744.192322   C1.000000,741.629456 1.000000,739.258850 1.000010,736.444153  M178.640793,512.140869   C165.458511,535.905212 152.276245,559.669617 138.909302,583.766846   C174.111023,583.766846 208.388733,583.766846 243.080521,583.766846   C242.931000,581.361206 242.898132,579.234741 242.652008,577.133301   C241.122726,564.076904 239.537537,551.027100 237.986145,537.973267   C235.001114,512.856201 232.119904,487.725922 228.878891,462.642059   C228.603561,460.511200 226.358093,457.869385 224.334152,456.870300   C217.664886,453.578247 209.570663,456.471588 205.910172,463.023804   C196.896729,479.157776 187.957016,495.332947 178.640793,512.140869  z"
   id="path2"
   style="fill:#0080be;fill-opacity:1" />
<path
   fill="#3A7FBF"
   opacity="1.000000"
   stroke="none"
   d=" M563.468628,850.000000   C563.201477,849.865051 563.402893,849.730164 563.923950,849.284241   C577.702454,848.950806 591.161377,848.928345 604.620300,848.905884   C604.544739,849.136414 604.469177,849.367004 604.696777,849.798767   C591.312439,850.000000 577.624878,850.000000 563.468628,850.000000  z"
   id="path3"
   style="fill:#0080be;fill-opacity:1" />
<path
   fill="#3A7FC0"
   opacity="1.000000"
   stroke="none"
   d=" M605.101318,848.962158   C591.161377,848.928345 577.702454,848.950806 563.809326,848.939087   C540.515015,848.382812 517.891602,845.819946 495.684540,840.326172   C486.074249,837.948669 484.244110,834.500244 485.984558,824.797852   C486.630188,821.198547 487.305084,817.603271 488.047455,814.022888   C489.525757,806.893494 494.060242,802.773499 501.349335,803.080505   C510.649780,803.472107 519.907898,804.778320 529.205078,805.355408   C555.776184,807.004456 582.310059,810.385620 608.993347,807.940369   C615.247925,807.367249 621.531250,806.134705 627.572388,804.405457   C640.720337,800.641846 650.109619,792.130615 654.957092,779.408081   C658.586853,769.881714 661.087463,759.925171 664.351074,749.313660   C652.104248,750.856323 641.453552,752.238770 630.792053,753.532837   C604.515198,756.722229 578.515320,756.181213 553.630066,745.979797   C525.050598,734.263855 509.377808,712.303833 504.981873,682.100586   C501.966370,661.381653 504.679260,640.966370 508.788177,620.610718   C513.360291,597.960754 516.909546,575.103760 525.003418,553.285339   C542.633728,505.759827 576.684692,479.289093 626.811890,472.865692   C656.514526,469.059509 685.975647,471.083710 715.364746,475.677399   C727.189697,477.525726 738.947083,479.807495 750.729980,481.921387   C752.032532,482.155090 753.311829,482.544647 754.582458,482.926453   C762.692322,485.363434 765.258911,489.235352 763.751160,497.360718   C760.777771,513.383728 757.646790,529.377380 754.593750,545.385681   C743.721924,602.391724 732.960388,659.419006 721.935303,716.395325   C717.517761,739.224854 714.325867,762.338074 706.224792,784.352478   C692.479919,821.703735 665.481995,841.982483 626.438171,846.945312   C619.510315,847.825867 612.535522,848.336853 605.101318,848.962158  M683.133484,647.675598   C691.356262,604.444580 699.579041,561.213562 707.789490,518.047668   C706.908203,517.607605 706.486511,517.232910 706.037231,517.196228   C687.154602,515.656555 668.291870,513.661255 649.377563,512.789185   C634.534119,512.104858 620.258057,515.432312 607.266052,523.068420   C589.442627,533.544250 578.958374,549.948486 573.408508,569.026855   C567.807983,588.279114 564.342285,608.152466 559.945129,627.754517   C556.464294,643.271790 554.969482,658.956970 555.990173,674.852417   C557.169189,693.212708 565.502808,704.240784 582.395569,709.535889   C585.871399,710.625366 589.463562,711.529358 593.069641,711.987915   C617.729309,715.123779 642.201111,712.724731 666.667908,709.490479   C670.783081,708.946533 672.134155,707.208618 672.809937,703.425110   C676.082520,685.101685 679.600952,666.822266 683.133484,647.675598  z"
   id="path4"
   style="fill:#0080be;fill-opacity:1" />
<path
   fill="#397FC0"
   opacity="1.000000"
   stroke="none"
   d=" M305.000000,261.013794   C277.500854,261.013947 250.501221,261.093658 223.503143,260.923981   C219.683319,260.899963 217.693954,261.907837 215.956848,265.502960   C199.086853,300.416962 181.891998,335.173981 165.016434,370.085358   C161.000687,378.392975 155.045990,382.490814 145.762787,382.248047   C135.936432,381.991089 126.097763,382.246887 116.265434,382.164581   C104.945671,382.069824 99.775032,373.765289 104.882362,363.493317   C108.733704,355.747375 113.108330,348.260376 117.287643,340.678894   C166.074295,252.177505 214.977783,163.740265 263.603668,75.150665   C281.963928,41.700844 317.053253,32.171268 348.157410,40.358353   C366.943970,45.303249 377.184998,58.967285 379.927155,78.026703   C385.091522,113.922318 390.025146,149.851074 395.097504,185.759995   C399.913818,219.856415 404.799988,253.942993 409.627075,288.037903   C413.101746,312.580383 416.567322,337.124329 419.929321,361.682343   C420.332153,364.624756 420.333862,367.686615 420.043610,370.646240   C419.393921,377.270935 414.880035,381.819427 408.233856,381.973511   C396.574615,382.243805 384.902069,382.210693 373.240479,382.002563   C366.853027,381.888611 362.930267,377.775757 361.956573,370.215759   C359.830811,353.711212 357.954407,337.174500 355.993561,320.648834   C353.660736,300.987701 351.346252,281.324402 348.947235,261.013763   C334.373047,261.013763 319.936523,261.013763 305.000000,261.013794  M332.762451,108.810005   C332.167328,104.024010 332.016418,99.121140 330.800110,94.498596   C330.136688,91.977272 328.150360,88.952133 325.922638,87.853630   C319.165771,84.521767 311.158173,87.516357 307.510254,94.086128   C285.940369,132.932434 264.393860,171.791779 242.854233,210.654877   C242.170044,211.889328 241.645020,213.212021 240.986481,214.620407   C275.920654,214.620407 310.324860,214.620407 344.998138,214.620407   C343.485107,201.548309 342.014160,188.839874 340.543274,176.131424   C337.980743,153.991150 335.418274,131.850876 332.762451,108.810005  z"
   id="path5"
   style="fill:#0080be;fill-opacity:1" />
<path
   fill="#397FC0"
   opacity="1.000000"
   stroke="none"
   d=" M1906.113281,296.899841   C1905.580688,276.909241 1910.368652,258.127319 1914.015259,239.200806   C1917.882202,219.130615 1920.995605,198.864380 1928.761597,179.752441   C1946.923462,135.056076 1979.866577,108.619637 2027.239136,100.035919   C2054.080811,95.172325 2081.020020,96.229034 2107.851562,99.687424   C2124.320312,101.810059 2140.655762,105.059334 2156.968506,108.227119   C2160.717529,108.955116 2165.066895,110.610016 2167.425537,113.326797   C2169.695801,115.941849 2171.182861,120.748688 2170.557861,124.139740   C2160.369629,179.405502 2149.770996,234.595444 2139.309326,289.810913   C2134.480469,315.296326 2129.706543,340.792328 2124.993408,366.299377   C2123.223145,375.878815 2116.385498,382.011597 2106.734863,382.159576   C2099.903809,382.264313 2093.069336,382.228882 2086.237305,382.167419   C2076.950439,382.083893 2073.035889,378.077393 2072.927979,368.664368   C2072.905762,366.715515 2072.924805,364.766235 2072.924805,362.346039   C2067.216797,365.490112 2061.919434,368.548889 2056.498535,371.370209   C2029.170288,385.593414 2000.313477,389.635803 1970.280884,383.063873   C1936.273682,375.622192 1913.452271,350.806244 1908.057495,316.243225   C1907.084229,310.007538 1906.751465,303.671875 1906.113281,296.899841  M2084.733398,275.173737   C2092.713867,232.600342 2100.694336,190.026962 2108.730225,147.158005   C2086.988770,143.573456 2065.659424,141.494781 2044.171631,144.333939   C2025.268066,146.831619 2008.624268,153.991928 1996.199585,169.209824   C1988.066895,179.170868 1982.039062,190.342651 1979.095215,202.745987   C1974.838257,220.682434 1971.560791,238.851471 1967.872681,256.922760   C1964.673462,272.598236 1962.002686,288.245270 1963.859619,304.430634   C1965.922363,322.411194 1976.346191,335.148193 1994.157471,337.853729   C2002.873901,339.177734 2012.180786,338.986053 2020.888672,337.515961   C2041.087158,334.105957 2058.511230,323.662720 2075.845215,313.372711   C2077.004883,312.684174 2077.781982,310.775543 2078.079590,309.301636   C2080.316650,298.220245 2082.388916,287.105591 2084.733398,275.173737  z"
   id="path6"
   style="fill:#0080be;fill-opacity:1" />
<path
   fill="#397FC0"
   opacity="1.000000"
   stroke="none"
   d=" M1895.043701,211.023987   C1892.864136,222.904266 1891.081665,234.423233 1888.469849,245.750931   C1886.010498,256.417938 1880.969604,259.909454 1869.843750,259.914551   C1814.022217,259.940094 1758.200684,259.976807 1702.379517,259.838287   C1698.193237,259.827911 1696.213379,260.857819 1695.210815,265.138763   C1692.214478,277.932281 1691.035156,290.787476 1693.258667,303.758820   C1695.728271,318.165680 1704.331421,328.151764 1717.916382,332.650665   C1727.587891,335.853577 1737.919434,338.258118 1748.049561,338.657379   C1777.720093,339.826874 1807.239502,336.703857 1836.698120,333.325256   C1841.317627,332.795471 1845.985596,332.030182 1850.595703,332.222229   C1858.753540,332.562073 1862.555908,337.535797 1861.277100,345.630981   C1860.395508,351.211395 1859.070923,356.720917 1858.144043,362.295319   C1856.727417,370.817352 1851.627197,375.464966 1843.305054,376.877563   C1811.421143,382.289581 1779.366821,386.093842 1746.975830,385.749329   C1722.172485,385.485535 1698.192139,381.242615 1676.936890,367.441071   C1651.114502,350.674072 1638.572266,326.321655 1636.973267,295.879425   C1635.938354,276.174835 1640.338257,257.184631 1644.031616,238.073151   C1648.461060,215.153687 1653.775513,192.534103 1664.641357,171.615479   C1687.452271,127.701088 1723.497192,103.127205 1772.652100,97.882561   C1792.479126,95.767105 1812.300415,95.713455 1831.519653,101.886963   C1868.319580,113.707672 1890.388428,138.425278 1894.920532,177.236847   C1896.201538,188.207550 1895.091919,199.457382 1895.043701,211.023987  M1813.500000,217.009293   C1821.109863,217.009293 1828.719604,217.009293 1836.586182,217.009293   C1837.409912,211.392334 1838.453369,206.343613 1838.814087,201.246597   C1839.188965,195.947083 1839.284424,190.568863 1838.839478,185.280807   C1837.179565,165.551102 1828.184937,153.332123 1811.317749,148.335251   C1797.381592,144.206650 1783.139160,143.713104 1768.852417,146.546967   C1732.629761,153.731964 1711.308105,188.526505 1705.716553,216.580093   C1706.013062,216.700302 1706.309326,216.925522 1706.605957,216.925842   C1741.903931,216.964462 1777.202026,216.986450 1813.500000,217.009293  z"
   id="path7"
   style="fill:#0080be;fill-opacity:1" />
<path
   fill="#397FC0"
   opacity="1.000000"
   stroke="none"
   d=" M440.939301,283.063782   C443.995850,264.053192 446.724731,245.472183 450.178192,227.026810   C454.489685,203.998535 461.693665,181.897217 474.010956,161.770294   C495.852966,126.079636 527.589294,105.132713 568.934143,98.920807   C592.545593,95.373276 616.168701,94.947685 639.006531,103.029266   C674.606079,115.626831 694.309204,141.170761 699.163818,178.572174   C701.878540,199.487030 697.864014,219.666336 693.594055,239.876144   C692.874268,243.282898 692.094788,246.706223 690.962036,249.990540   C688.621887,256.775604 683.642761,260.035583 676.502258,260.047272   C664.840088,260.066376 653.177979,260.090454 641.515808,260.092010   C596.365906,260.097931 551.215820,260.148499 506.066406,260.004395   C502.115814,259.991791 500.319550,260.889252 499.324127,264.982758   C496.216949,277.760712 495.011993,290.600616 497.183319,303.581818   C500.001678,320.431244 510.951050,330.165710 526.577637,334.812164   C533.998108,337.018585 541.848450,338.545990 549.565125,338.854767   C580.928528,340.109924 612.086121,337.037872 643.193481,333.371429   C647.625000,332.849121 652.174500,332.568573 656.601257,332.955414   C662.346680,333.457489 665.793579,336.975281 665.151184,342.590485   C664.174438,351.128967 662.562500,359.667328 660.323425,367.963684   C658.800476,373.606689 653.625305,376.035950 648.102417,376.980591   C614.084778,382.798950 579.874817,386.932251 545.304260,385.801971   C519.600464,384.961609 495.138916,379.281067 474.278778,363.003082   C453.476379,346.770203 442.933228,325.108917 441.070770,299.040741   C440.703583,293.901276 440.962799,288.717102 440.939301,283.063782  M641.931763,208.346725   C642.279663,201.371262 643.084412,194.382965 642.888977,187.422760   C642.324829,167.341766 632.886719,153.715683 615.805481,148.551010   C600.193970,143.830734 584.246094,143.100922 568.518127,147.753220   C534.131592,157.924728 518.316223,184.299850 508.933960,216.731659   C553.065979,216.731659 596.637573,216.731659 640.401428,216.731659   C640.905884,214.082245 641.367981,211.655411 641.931763,208.346725  z"
   id="path8"
   style="fill:#0080be;fill-opacity:1" />
<path
   fill="#397FC0"
   opacity="1.000000"
   stroke="none"
   d=" M871.028442,282.148285   C875.556396,255.645996 879.533020,229.512177 884.796021,203.640015   C888.429688,185.777527 896.002197,169.211258 906.153625,153.953842   C927.284058,122.195068 957.535339,104.917374 994.626831,99.124046   C1018.308105,95.425270 1042.049316,95.017517 1065.387573,101.890228   C1102.890015,112.934013 1126.228760,141.712677 1130.217529,180.724869   C1132.110229,199.236053 1129.406982,217.211395 1126.063599,235.235886   C1122.033203,256.965454 1118.540161,278.780640 1110.374390,299.543732   C1090.732300,349.486877 1053.895264,377.031067 1001.182190,384.136902   C977.503235,387.328888 953.933228,387.285431 931.178772,379.010834   C895.933777,366.194122 877.148071,340.074707 872.078918,303.546326   C871.122986,296.657623 871.346558,289.605225 871.028442,282.148285  M931.374756,258.925140   C930.259827,270.989441 928.243408,283.052856 928.231201,295.118286   C928.210449,315.651398 937.899536,329.355560 955.184692,334.384430   C971.820251,339.224274 988.735229,339.629120 1005.335144,334.214661   C1032.776001,325.264221 1050.146973,305.654694 1058.740479,278.991821   C1064.159668,262.177338 1066.562500,244.373932 1070.061646,226.962555   C1073.016846,212.257751 1075.309570,197.471710 1073.062622,182.380127   C1070.619141,165.967300 1063.133179,153.317322 1046.408813,148.441315   C1027.181641,142.835617 1007.803467,142.973206 989.152405,150.660446   C963.832153,161.096436 949.400818,181.482300 942.238953,206.880600   C937.518982,223.619202 935.078674,241.000626 931.374756,258.925140  z"
   id="path9"
   style="fill:#0080be;fill-opacity:1" />
<path
   fill="#3A7FC0"
   opacity="1.000000"
   stroke="none"
   d=" M2010.748047,732.766357   C1992.715332,743.914368 1974.055542,752.466492 1953.011353,754.468018   C1937.365723,755.956177 1921.760986,756.048767 1906.439331,751.646301   C1875.189087,742.666931 1853.856689,717.105164 1849.960938,684.313538   C1847.796387,666.095337 1848.830078,648.152100 1852.839111,630.261047   C1857.743652,608.374023 1860.825317,585.967163 1867.263550,564.557373   C1883.262939,511.351379 1919.565918,480.760681 1974.735962,472.846161   C2001.867676,468.953979 2028.906250,470.740570 2055.837891,474.558685   C2069.482422,476.493011 2082.982910,479.453003 2096.533447,482.027679   C2098.639648,482.427856 2100.747803,483.059784 2102.713379,483.911652   C2107.888428,486.154694 2109.813721,489.642181 2108.781494,495.086823   C2100.048340,541.146667 2091.256104,587.195251 2082.506348,633.251953   C2075.990723,667.549561 2069.468994,701.846130 2063.040771,736.160156   C2060.975586,747.184937 2055.503418,751.918396 2044.229736,751.929260   C2038.565186,751.934753 2032.900024,751.981689 2027.236084,751.923401   C2018.835938,751.836914 2015.698730,748.750671 2015.851929,740.404053   C2015.917969,736.807434 2016.553833,733.221313 2017.008179,728.894836   C2014.663696,730.340576 2012.857666,731.454407 2010.748047,732.766357  M2028.797974,640.201538   C2036.513672,599.264038 2044.229370,558.326477 2051.960693,517.305664   C2050.684814,516.918152 2049.915771,516.601746 2049.115967,516.453918   C2028.864868,512.711243 2008.421997,511.524323 1987.940063,513.244873   C1972.314575,514.557495 1957.473999,518.972473 1945.000366,529.073792   C1929.773193,541.404907 1920.830444,557.893494 1916.223755,576.500610   C1911.793945,594.393250 1908.741211,612.625916 1905.045410,630.701477   C1901.765015,646.744568 1899.350342,662.827820 1902.015503,679.245850   C1903.978760,691.338989 1909.042480,701.240662 1920.314453,707.407227   C1934.386108,715.105530 1949.157959,714.576782 1964.043335,711.406128   C1983.710693,707.216919 2000.930542,697.315308 2017.859253,686.979309   C2019.379639,686.051086 2020.427002,683.601685 2020.812988,681.681702   C2023.531250,668.156555 2026.018555,654.585022 2028.797974,640.201538  z"
   id="path10"
   style="fill:#0080be;fill-opacity:1" />
<path
   fill="#3A7FC0"
   opacity="1.000000"
   stroke="none"
   d=" M1618.524414,202.517242   C1610.739258,247.682266 1603.066162,292.422089 1595.400513,337.163208   C1593.912109,345.849945 1592.341064,354.524536 1591.005249,363.234985   C1589.041382,376.039917 1582.344116,382.012085 1569.551147,382.047211   C1562.053345,382.067810 1554.555176,382.097534 1547.057983,382.026031   C1537.047852,381.930573 1531.724121,375.566040 1533.415894,365.670593   C1537.815186,339.939636 1542.322144,314.227020 1546.690063,288.490753   C1552.087524,256.686920 1557.529785,224.889252 1562.613159,193.034698   C1563.651733,186.525772 1564.013062,179.680588 1563.254272,173.157028   C1561.216553,155.636536 1553.534912,148.370743 1536.092896,146.071732   C1505.848022,142.085190 1477.616333,149.366241 1450.345459,161.635590   C1448.860229,162.303833 1447.717529,164.863617 1447.355103,166.725800   C1442.812744,190.062119 1438.463745,213.435959 1434.026978,236.792953   C1425.804810,280.077301 1417.609741,323.366882 1409.281006,366.630737   C1407.343872,376.693451 1400.767334,382.250122 1390.506348,382.615997   C1382.352539,382.906708 1374.172119,382.917145 1366.018311,382.631561   C1355.572754,382.265686 1350.548340,375.508118 1352.509033,365.139801   C1367.276123,287.053192 1382.029419,208.963974 1396.785400,130.875259   C1397.773071,125.648476 1398.604736,120.387413 1399.758911,115.197899   C1401.845947,105.815308 1408.595581,100.325737 1418.233032,100.144920   C1425.061890,100.016792 1431.895142,100.110359 1438.726440,100.121887   C1451.736938,100.143852 1454.984131,102.985245 1456.546631,116.279015   C1459.831787,114.897354 1463.015137,113.695457 1466.082031,112.247055   C1490.808838,100.569016 1516.785522,95.290764 1544.111084,97.018219   C1569.660889,98.633408 1592.130371,106.673363 1607.125488,128.913727   C1618.371826,145.594147 1621.399414,164.522522 1620.498047,184.224777   C1620.224731,190.196533 1619.277710,196.137466 1618.524414,202.517242  z"
   id="path11"
   style="fill:#0080be;fill-opacity:1" />
<path
   fill="#397FC0"
   opacity="1.000000"
   stroke="none"
   d=" M869.129639,478.060791   C895.310730,470.142120 921.613647,467.956421 947.962341,473.578033   C994.922363,483.597260 1020.952454,517.667969 1020.347595,566.309448   C1020.128235,583.950989 1016.216980,600.961792 1012.461853,617.999817   C1010.494202,626.927734 1006.647949,629.230957 996.325073,629.234070   C940.169312,629.251221 884.013306,629.302917 827.858032,629.137268   C823.096680,629.123230 821.016785,630.357666 819.750000,635.169739   C816.261353,648.421509 815.145386,661.765442 817.238403,675.232666   C820.067139,693.434326 831.685791,704.272644 848.757263,708.791626   C858.772583,711.442688 869.353638,712.820190 879.724976,713.097473   C908.578552,713.868652 937.244446,710.777344 965.859436,707.324280   C970.116760,706.810486 974.514648,706.517517 978.748901,706.995728   C984.054443,707.595093 986.540894,711.336426 985.655334,716.631958   C984.613525,722.861755 983.342712,729.058838 981.978699,735.227539   C980.621277,741.366333 976.872559,745.261475 970.496094,746.112183   C950.551697,748.773071 930.650574,751.946655 910.627808,753.769592   C895.901123,755.110291 880.983887,755.356995 866.197876,754.818970   C842.389709,753.952454 819.662476,748.588440 800.039185,734.090515   C778.435608,718.129517 767.652588,696.378540 765.908203,669.744385   C764.382446,646.449707 770.141235,624.138428 774.462463,601.614624   C778.078491,582.766479 783.129395,564.364685 791.617249,547.055725   C807.995178,513.656921 833.076233,489.973877 869.129639,478.060791  M967.721130,555.036743   C967.512939,553.889404 967.273254,552.746765 967.101135,551.594055   C964.482910,534.056152 954.945923,522.078735 937.781067,517.400085   C906.539490,508.884613 872.410950,515.334839 849.783081,544.385559   C839.046143,558.170166 832.244446,573.592651 828.432312,590.823730   C874.162964,590.823730 919.428772,590.823730 964.746094,590.823730   C967.836792,579.219727 968.602661,567.650879 967.721130,555.036743  z"
   id="path12"
   style="fill:#0080be;fill-opacity:1" />
<path
   fill="#3A80C0"
   opacity="1.000000"
   stroke="none"
   d=" M1060.429688,556.424316   C1064.761963,533.462341 1068.939453,510.904724 1073.197510,488.362274   C1074.913574,479.277222 1081.039917,474.266785 1090.382568,474.183502   C1097.379761,474.121094 1104.378174,474.161407 1111.375977,474.176575   C1122.512817,474.200714 1125.586426,477.461609 1125.075317,488.654572   C1125.031128,489.620331 1125.069458,490.589813 1125.069458,492.030396   C1132.863403,488.672791 1140.263672,485.374512 1147.748169,482.280090   C1176.069824,470.570831 1205.382935,467.215942 1235.276001,474.012115   C1265.617920,480.910339 1284.690918,503.040894 1289.078735,533.747131   C1291.940674,553.776855 1288.332031,573.171509 1284.580200,592.648376   C1275.303467,640.806396 1266.139526,688.986145 1256.996948,737.169861   C1255.290649,746.162659 1249.263184,751.682373 1240.147217,751.842285   C1232.152100,751.982605 1224.149292,752.018860 1216.156128,751.833313   C1207.395996,751.629944 1203.026855,746.211060 1204.642578,737.676208   C1213.920044,688.670471 1223.419312,639.705872 1232.445435,590.654053   C1234.967163,576.949951 1236.345093,563.019287 1237.802124,549.145691   C1238.208374,545.277100 1237.441895,541.136658 1236.488892,537.300964   C1233.237427,524.212585 1224.226196,517.086670 1209.023438,515.050598   C1177.596802,510.841675 1148.198608,518.030884 1119.898193,531.081360   C1118.499634,531.726318 1117.291016,533.932312 1116.970825,535.599121   C1107.246704,586.210815 1097.635986,636.844299 1088.030151,687.478699   C1084.900269,703.976440 1081.902344,720.499451 1078.711426,736.985168   C1076.847046,746.617249 1070.635620,751.681458 1060.862793,751.768250   C1053.365723,751.834900 1045.866699,751.844177 1038.370239,751.748169   C1028.695190,751.624268 1024.711914,746.403320 1026.534302,736.717957   C1037.815308,676.761292 1049.054199,616.796753 1060.429688,556.424316  z"
   id="path13"
   style="fill:#0080be;fill-opacity:1" />
<path
   fill="#3A80C0"
   opacity="1.000000"
   stroke="none"
   d=" M1808.024170,705.045776   C1805.975952,715.923096 1803.945923,726.368225 1801.994751,736.828003   C1800.194702,746.477722 1794.260254,751.615295 1784.370117,751.751953   C1776.873535,751.855530 1769.372681,751.875671 1761.876953,751.748962   C1752.223022,751.585876 1748.041260,746.389038 1749.857910,736.764038   C1760.003418,683.013184 1770.420532,629.312134 1780.190918,575.493469   C1782.161499,564.638794 1783.169189,553.212158 1782.104126,542.294678   C1780.412720,524.959595 1771.110474,517.219849 1753.682983,514.930542   C1725.642090,511.246948 1699.178101,516.971619 1673.183228,527.139893   C1665.395386,530.186218 1661.805786,534.201416 1660.273438,542.727661   C1650.597656,596.562683 1640.186523,650.265442 1630.031494,704.014343   C1627.932251,715.125061 1625.928223,726.253845 1623.806274,737.360168   C1622.114624,746.214233 1615.777100,751.565247 1606.617432,751.728760   C1598.622070,751.871521 1590.620483,751.869507 1582.625000,751.734192   C1574.345215,751.594177 1569.807983,745.999329 1571.346558,737.827087   C1577.405762,705.643127 1583.562134,673.477478 1589.636475,641.296387   C1599.104004,591.140869 1608.559204,540.982910 1617.962891,490.815399   C1620.253418,478.595825 1625.328613,474.176727 1637.575439,474.171021   C1644.073608,474.167969 1650.571899,474.159607 1657.070068,474.177551   C1667.183594,474.205505 1670.662598,477.843750 1670.189331,487.828491   C1670.129272,489.095551 1670.181030,490.367859 1670.181030,491.756104   C1681.380737,487.289459 1692.141602,482.472229 1703.250366,478.672699   C1729.516602,469.688843 1756.375000,467.773376 1783.326294,474.952789   C1811.946167,482.576752 1830.047852,504.481018 1834.099609,534.024597   C1836.801636,553.727051 1833.375366,572.808044 1829.697998,591.955566   C1822.705444,628.365723 1815.791138,664.790894 1808.838013,701.208618   C1808.619629,702.352478 1808.332153,703.483154 1808.024170,705.045776  z"
   id="path14"
   style="fill:#0080be;fill-opacity:1" />
<path
   fill="#3A7FC0"
   opacity="1.000000"
   stroke="none"
   d=" M2231.013184,236.996490   C2220.640381,229.869873 2211.619141,221.875351 2204.014893,212.183929   C2185.266113,188.288956 2190.711670,152.503845 2206.302979,133.093140   C2220.834961,115.001198 2240.172363,105.660248 2262.261230,100.993698   C2288.436523,95.463814 2314.949463,96.100304 2341.385010,97.655930   C2356.120117,98.523026 2370.772461,101.006531 2385.420654,103.058929   C2395.346680,104.449699 2399.556152,110.345535 2398.187500,120.196281   C2397.592529,124.477211 2396.809082,128.731918 2396.115234,132.999130   C2394.406738,143.505600 2388.383789,148.503998 2377.881348,147.791000   C2362.771484,146.765244 2347.690186,145.071213 2332.566406,144.556854   C2313.147949,143.896469 2293.510010,141.694565 2274.451416,147.172989   C2268.235107,148.959900 2262.020508,152.211533 2256.954102,156.238770   C2246.339844,164.676270 2245.907227,180.206711 2256.703125,188.273361   C2270.658691,198.700821 2285.768799,207.577759 2300.327637,217.204041   C2316.832275,228.116791 2333.958984,238.232941 2349.607422,250.266296   C2383.471680,276.307434 2377.309570,321.003784 2359.823486,345.601349   C2345.720947,365.439209 2325.434326,375.516296 2302.483154,380.949554   C2277.940918,386.759460 2252.982666,387.352509 2227.995361,385.228424   C2209.121582,383.624023 2190.267578,381.533295 2171.507812,378.921082   C2159.054443,377.187073 2155.406250,371.160736 2157.711670,358.982544   C2158.484619,354.897949 2159.180176,350.798553 2159.971924,346.717712   C2161.521484,338.731354 2166.741455,333.922455 2174.922607,334.185333   C2185.058105,334.511047 2195.155518,335.894287 2205.290771,336.366608   C2227.068848,337.381500 2248.856689,338.552246 2270.648682,338.750397   C2280.781494,338.842590 2290.742188,336.094940 2299.866211,331.189240   C2312.020020,324.654449 2318.653076,311.403717 2316.029053,298.624084   C2314.447998,290.923553 2309.370361,285.519073 2303.107910,281.539612   C2286.392578,270.917267 2269.419922,260.700623 2252.555908,250.311890   C2245.470459,245.946823 2238.401611,241.554352 2231.013184,236.996490  z"
   id="path15"
   style="fill:#0080be;fill-opacity:1" />
<path
   fill="#3A7FC0"
   opacity="1.000000"
   stroke="none"
   d=" M2194.047119,619.964478   C2182.670898,612.392090 2171.162354,605.573608 2160.684570,597.429077   C2148.646484,588.071777 2138.969727,576.217834 2136.152832,560.807251   C2131.135742,533.362000 2139.765869,510.477722 2161.869385,493.194366   C2177.683594,480.828888 2196.237061,475.245422 2215.888672,473.006989   C2252.890869,468.792328 2289.697754,470.507874 2326.312012,477.080872   C2334.233154,478.502869 2337.342041,482.687225 2336.357422,490.775269   C2335.774658,495.561646 2335.049561,500.337555 2334.186035,505.081390   C2332.653564,513.503662 2327.877930,517.367493 2319.102783,516.843201   C2309.635986,516.277527 2300.208740,514.994995 2290.739502,514.529419   C2266.811279,513.352966 2242.783447,510.648560 2219.003174,515.217285   C2211.707275,516.619019 2204.372803,519.923218 2198.069580,523.945190   C2185.194336,532.161011 2182.309326,552.440186 2196.020508,562.320496   C2208.419434,571.254822 2221.396973,579.394592 2234.220703,587.728699   C2251.102051,598.700012 2268.534668,608.882935 2284.932861,620.527344   C2327.190186,650.533813 2315.219971,708.245605 2282.682617,732.130310   C2265.809570,744.516418 2246.605469,750.439575 2226.207764,752.995605   C2189.197754,757.633362 2152.425781,754.706238 2115.776855,748.943115   C2115.612305,748.917236 2115.447021,748.894104 2115.283203,748.862976   C2100.543457,746.068665 2098.354248,742.927307 2100.945312,728.205688   C2101.492676,725.094482 2102.084229,721.989258 2102.738770,718.898926   C2104.329346,711.390808 2108.188477,707.880310 2115.968750,708.181824   C2125.439209,708.548767 2134.867432,709.960693 2144.337891,710.389526   C2167.108887,711.420532 2189.891602,712.663696 2212.674072,712.764160   C2223.830566,712.813354 2234.571533,709.370361 2244.340820,703.303467   C2259.789062,693.709778 2268.066895,666.730347 2246.165039,652.206543   C2229.249023,640.988953 2211.659912,630.786377 2194.047119,619.964478  z"
   id="path16"
   style="fill:#0080be;fill-opacity:1" />
<path
   fill="#3A80C0"
   opacity="1.000000"
   stroke="none"
   d=" M1405.884766,531.882568   C1399.898560,562.822571 1393.949341,593.335022 1388.062134,623.859375   C1383.844238,645.729126 1379.596313,667.594421 1375.622192,689.508972   C1374.712402,694.526245 1374.536743,699.744751 1374.641235,704.857971   C1374.738281,709.607056 1377.602295,712.566528 1382.460571,713.018188   C1388.080566,713.540710 1393.717163,714.063049 1399.354858,714.175964   C1408.846802,714.366089 1418.346313,714.140442 1427.840332,714.261536   C1437.748657,714.387939 1440.282471,717.634277 1438.427368,727.308594   C1437.550903,731.880005 1436.873291,736.490540 1435.946411,741.051025   C1434.916870,746.117004 1432.369629,750.458374 1427.050049,751.401733   C1400.778198,756.060974 1374.554688,758.315674 1348.937012,747.854553   C1326.650513,738.753662 1319.333984,719.740356 1322.753296,697.349182   C1327.167358,668.444458 1333.052856,639.761780 1338.444580,611.009644   C1344.173462,580.458557 1350.070312,549.939087 1355.868774,519.401001   C1356.082031,518.278137 1356.031982,517.105286 1356.139160,515.409546   C1347.341675,514.289978 1338.693481,512.909668 1329.991089,512.141968   C1313.499878,510.687256 1309.458740,507.636719 1313.707275,490.522064   C1316.661987,478.619476 1320.221436,475.186279 1332.386963,474.910736   C1341.876099,474.695801 1351.360107,474.201477 1360.849609,474.085846   C1363.849609,474.049255 1364.718384,472.944702 1365.176147,470.100677   C1366.866455,459.597931 1368.842407,449.139984 1370.801636,438.682159   C1372.338135,430.480133 1376.448486,426.405151 1384.589111,425.176758   C1393.959839,423.762787 1403.351807,422.480133 1412.750977,421.268585   C1420.714600,420.242157 1425.334351,425.775726 1423.834473,434.732697   C1422.187134,444.570312 1420.250977,454.359406 1418.467041,464.174408   C1417.906616,467.257690 1417.430786,470.356415 1416.812988,474.069275   C1419.039429,474.069275 1420.829712,474.069244 1422.620117,474.069305   C1438.112915,474.069855 1453.605835,474.045868 1469.098633,474.079468   C1479.590210,474.102234 1483.719238,478.861145 1482.082520,489.113312   C1481.323364,493.868652 1480.494751,498.628052 1479.368774,503.306427   C1477.408325,511.452087 1471.551392,515.975830 1463.154419,515.999817   C1446.995361,516.046082 1430.836060,516.019043 1414.676880,516.022217   C1412.864868,516.022583 1411.052979,516.022278 1408.919189,516.022278   C1407.889526,521.372864 1406.918823,526.416443 1405.884766,531.882568  z"
   id="path17"
   style="fill:#0080be;fill-opacity:1" />
<path
   fill="#397FC0"
   opacity="1.000000"
   stroke="none"
   d=" M1198.220215,47.258041   C1199.528809,40.469681 1200.736206,34.098148 1201.981812,27.734119   C1203.431152,20.329426 1208.287476,15.225912 1215.828003,14.836720   C1226.290039,14.296739 1236.819336,14.211096 1247.279175,14.738447   C1256.428955,15.199742 1260.269409,20.945194 1258.558716,30.266949   C1255.947266,44.497139 1253.193359,58.701164 1250.507446,72.917694   C1240.350830,126.674690 1230.189819,180.430862 1220.044678,234.190002   C1211.657593,278.632721 1203.320679,323.084930 1194.889160,367.519165   C1193.195923,376.441956 1186.410767,382.109314 1177.316772,382.273041   C1168.487305,382.431976 1159.651733,382.397858 1150.820923,382.284210   C1141.994751,382.170685 1137.210938,377.726013 1138.084595,368.821655   C1139.104248,358.431091 1141.344116,348.148438 1143.282104,337.861847   C1153.502930,283.610687 1163.802124,229.374268 1174.061157,175.130295   C1182.095703,132.648087 1190.111694,90.162354 1198.220215,47.258041  z"
   id="path18"
   style="fill:#0080be;fill-opacity:1" />
<path
   fill="#3A7FC0"
   opacity="1.000000"
   stroke="none"
   d=" M745.358337,133.372070   C746.610291,127.079170 747.700195,121.190765 748.891968,115.323036   C750.856140,105.652527 757.653992,100.082291 767.577209,100.011650   C774.409912,99.963005 781.243286,100.002380 788.076355,100.009491   C800.044128,100.021935 803.134644,102.735741 804.554565,114.942337   C805.977600,114.231506 807.287842,113.675850 808.500854,112.956429   C830.626526,99.834259 854.938660,96.284729 880.102722,96.893387   C888.726807,97.101974 893.220276,103.386017 891.830994,112.440018   C890.923279,118.355827 889.791138,124.240402 888.630554,130.113495   C886.693604,139.915543 881.061584,144.280197 870.895630,144.900681   C859.124939,145.619095 847.310913,146.311401 835.650269,147.964294   C822.651550,149.806854 810.924255,155.647629 799.546997,161.960907   C797.977295,162.831955 796.612305,165.135086 796.261658,166.985428   C785.733887,222.539337 775.345947,278.119720 764.935608,333.695892   C762.884216,344.647705 760.882263,355.609131 758.762878,366.547821   C756.959900,375.853607 749.645081,381.959534 740.045410,382.099915   C731.714233,382.221771 723.379150,382.188934 715.047058,382.102783   C704.967163,381.998566 699.807861,375.783478 701.655579,365.711639   C706.126770,341.339050 710.722473,316.989166 715.312073,292.638458   C724.860962,241.976135 734.439148,191.319366 744.001648,140.659637   C744.433472,138.371841 744.829407,136.077271 745.358337,133.372070  z"
   id="path19"
   style="fill:#0080be;fill-opacity:1" />
<path
   fill="#3A80C0"
   opacity="1.000000"
   stroke="none"
   d=" M385.254456,507.308167   C386.565857,500.518188 387.742645,494.139648 389.019043,487.781128   C390.728638,479.264404 396.873352,474.165710 405.568756,474.080566   C412.567719,474.012054 419.567963,474.050934 426.567535,474.072662   C437.147491,474.105530 441.316620,479.259308 439.266937,489.709015   C439.174225,490.181580 439.255035,490.688141 439.255035,491.586945   C440.377289,491.046753 441.392365,490.700409 442.252716,490.123352   C464.743347,475.038513 490.006439,470.581604 516.459351,470.907196   C524.824219,471.010162 528.627075,475.790405 527.274231,483.898987   C526.316528,489.639374 525.249023,495.362152 524.171570,501.081665   C522.431946,510.316223 518.389526,513.839233 508.827209,514.001953   C494.310120,514.249207 479.703094,514.550720 465.859497,519.184204   C455.345520,522.703308 445.307281,527.684631 435.193420,532.312622   C433.747009,532.974487 432.445374,535.195312 432.123627,536.893005   C419.986420,600.937012 407.770294,664.967529 396.063538,729.090820   C392.531769,748.435974 388.014008,752.903992 368.888916,751.972107   C363.900970,751.729065 358.890869,751.969299 353.891541,751.923828   C344.875549,751.841858 340.714478,747.380493 342.022461,738.216248   C343.431213,728.345825 345.517914,718.570679 347.364807,708.764587   C358.230743,651.071228 369.117065,593.381714 379.985413,535.688843   C381.740173,526.374084 383.439331,517.048889 385.254456,507.308167  z"
   id="path20"
   style="fill:#0080be;fill-opacity:1" />
<path
   fill="#3A7FC0"
   opacity="1.000000"
   stroke="none"
   d=" M1326.166016,252.249939   C1318.964355,290.737244 1311.877930,328.810730 1304.667725,366.860748   C1302.907471,376.150452 1295.766113,382.009644 1286.357178,382.150146   C1277.863525,382.277008 1269.365723,382.260315 1260.871338,382.162659   C1251.124756,382.050629 1245.758545,375.667206 1247.542236,366.119446   C1254.471802,329.027344 1261.500000,291.953674 1268.490112,254.872925   C1276.988892,209.788483 1285.534424,164.712784 1293.955200,119.613800   C1296.557251,105.677467 1302.936890,100.127533 1317.087524,100.118767   C1324.083862,100.114426 1331.083618,99.988243 1338.075562,100.164886   C1348.135742,100.419052 1353.634766,106.762840 1351.799561,116.601440   C1343.387573,161.697189 1334.775879,206.755646 1326.166016,252.249939  z"
   id="path21"
   style="fill:#0080be;fill-opacity:1" />
<path
   fill="#3A7FC0"
   opacity="1.000000"
   stroke="none"
   d=" M1507.598633,517.536621   C1509.079346,509.765594 1510.306885,502.380005 1511.846313,495.060059   C1513.599609,486.723175 1519.574707,481.946289 1528.177979,481.835083   C1535.842529,481.735992 1543.509888,481.750336 1551.175049,481.818207   C1561.528320,481.909851 1565.649048,486.844482 1563.840210,497.200439   C1561.923340,508.175140 1559.786499,519.111511 1557.737549,530.063049   C1548.501343,579.427063 1539.254028,628.789062 1530.027710,678.154968   C1526.300537,698.097412 1522.632202,718.050781 1518.906006,737.993469   C1517.355347,746.292664 1510.904663,751.788635 1502.444458,751.898743   C1494.280029,752.005005 1486.111328,752.038940 1477.947998,751.897705   C1469.304077,751.748169 1464.973267,746.223511 1466.573853,737.644470   C1479.290649,669.484436 1492.017822,601.326355 1504.734497,533.166321   C1505.679932,528.099976 1506.568359,523.023010 1507.598633,517.536621  z"
   id="path22"
   style="fill:#0080be;fill-opacity:1" />
<path
   fill="#3A7FBF"
   opacity="1.000000"
   stroke="none"
   d=" M1311.206787,49.206566   C1324.247559,36.546726 1337.110352,24.209570 1349.774170,11.671530   C1355.307739,6.192960 1361.526489,3.484342 1369.448120,3.809415   C1379.425537,4.218853 1389.432983,3.856462 1399.426392,3.947966   C1401.552856,3.967436 1403.778442,4.196855 1405.779053,4.865534   C1411.758789,6.864100 1413.436890,11.829209 1409.942383,17.070934   C1408.853760,18.703825 1407.375488,20.141724 1405.863647,21.417746   C1386.906860,37.418140 1368.049438,53.542889 1348.793335,69.175972   C1345.464966,71.878082 1340.480713,73.456154 1336.126465,73.788986   C1327.018188,74.485222 1317.792236,74.409882 1308.673462,73.788185   C1305.493652,73.571396 1301.504028,71.542480 1299.644775,69.035500   C1297.204102,65.744514 1298.898804,61.651123 1301.773438,58.641655   C1304.763184,55.511612 1307.884399,52.507084 1311.206787,49.206566  z"
   id="path23"
   style="fill:#0080be;fill-opacity:1" />
<path
   fill="#3A7FBF"
   opacity="1.000000"
   stroke="none"
   d=" M1541.582031,407.507111   C1550.172363,407.489288 1558.320435,407.352142 1566.462036,407.526215   C1575.954834,407.729126 1579.739746,411.930176 1578.914307,421.394135   C1578.381226,427.507141 1577.552734,433.605072 1576.588013,439.666992   C1575.371704,447.308838 1570.061646,452.772614 1562.175049,453.210266   C1552.245361,453.761322 1542.243408,453.670135 1532.305298,453.186523   C1525.445190,452.852631 1521.916748,448.249603 1522.530396,441.344391   C1523.161743,434.240662 1524.053833,427.145905 1525.191528,420.105377   C1526.323364,413.100800 1532.195557,408.672760 1541.582031,407.507111  z"
   id="path24"
   style="fill:#0080be;fill-opacity:1" />
<path
   fill="#FDFEFF"
   opacity="1.000000"
   stroke="none"
   d=" M178.814224,511.816193   C187.957016,495.332947 196.896729,479.157776 205.910172,463.023804   C209.570663,456.471588 217.664886,453.578247 224.334152,456.870300   C226.358093,457.869385 228.603561,460.511200 228.878891,462.642059   C232.119904,487.725922 235.001114,512.856201 237.986145,537.973267   C239.537537,551.027100 241.122726,564.076904 242.652008,577.133301   C242.898132,579.234741 242.931000,581.361206 243.080521,583.766846   C208.388733,583.766846 174.111023,583.766846 138.909302,583.766846   C152.276245,559.669617 165.458511,535.905212 178.814224,511.816193  z"
   id="path25" />
<path
   fill="#FEFFFF"
   opacity="1.000000"
   stroke="none"
   d=" M683.082886,648.101440   C679.600952,666.822266 676.082520,685.101685 672.809937,703.425110   C672.134155,707.208618 670.783081,708.946533 666.667908,709.490479   C642.201111,712.724731 617.729309,715.123779 593.069641,711.987915   C589.463562,711.529358 585.871399,710.625366 582.395569,709.535889   C565.502808,704.240784 557.169189,693.212708 555.990173,674.852417   C554.969482,658.956970 556.464294,643.271790 559.945129,627.754517   C564.342285,608.152466 567.807983,588.279114 573.408508,569.026855   C578.958374,549.948486 589.442627,533.544250 607.266052,523.068420   C620.258057,515.432312 634.534119,512.104858 649.377563,512.789185   C668.291870,513.661255 687.154602,515.656555 706.037231,517.196228   C706.486511,517.232910 706.908203,517.607605 707.789490,518.047668   C699.579041,561.213562 691.356262,604.444580 683.082886,648.101440  z"
   id="path26" />
<path
   fill="#FDFEFF"
   opacity="1.000000"
   stroke="none"
   d=" M332.809113,109.260300   C335.418274,131.850876 337.980743,153.991150 340.543274,176.131424   C342.014160,188.839874 343.485107,201.548309 344.998138,214.620407   C310.324860,214.620407 275.920654,214.620407 240.986481,214.620407   C241.645020,213.212021 242.170044,211.889328 242.854233,210.654877   C264.393860,171.791779 285.940369,132.932434 307.510254,94.086128   C311.158173,87.516357 319.165771,84.521767 325.922638,87.853630   C328.150360,88.952133 330.136688,91.977272 330.800110,94.498596   C332.016418,99.121140 332.167328,104.024010 332.809113,109.260300  z"
   id="path27" />
<path
   fill="#FEFFFF"
   opacity="1.000000"
   stroke="none"
   d=" M2084.623047,275.587524   C2082.388916,287.105591 2080.316650,298.220245 2078.079590,309.301636   C2077.781982,310.775543 2077.004883,312.684174 2075.845215,313.372711   C2058.511230,323.662720 2041.087158,334.105957 2020.888672,337.515961   C2012.180786,338.986053 2002.873901,339.177734 1994.157471,337.853729   C1976.346191,335.148193 1965.922363,322.411194 1963.859619,304.430634   C1962.002686,288.245270 1964.673462,272.598236 1967.872681,256.922760   C1971.560791,238.851471 1974.838257,220.682434 1979.095215,202.745987   C1982.039062,190.342651 1988.066895,179.170868 1996.199585,169.209824   C2008.624268,153.991928 2025.268066,146.831619 2044.171631,144.333939   C2065.659424,141.494781 2086.988770,143.573456 2108.730225,147.158005   C2100.694336,190.026962 2092.713867,232.600342 2084.623047,275.587524  z"
   id="path28" />
<path
   fill="#FDFEFF"
   opacity="1.000000"
   stroke="none"
   d=" M1813.000000,217.009308   C1777.202026,216.986450 1741.903931,216.964462 1706.605957,216.925842   C1706.309326,216.925522 1706.013062,216.700302 1705.717773,216.576935   C1711.308105,188.526505 1732.629761,153.731964 1768.852417,146.546967   C1783.139160,143.713104 1797.381592,144.206650 1811.317749,148.335251   C1828.184937,153.332123 1837.179565,165.551102 1838.839478,185.280807   C1839.284424,190.568863 1839.188965,195.947083 1838.814087,201.246597   C1838.453369,206.343613 1837.409912,211.392334 1836.586182,217.009293   C1828.719604,217.009293 1821.109863,217.009293 1813.000000,217.009308  z"
   id="path29" />
<path
   fill="#FDFEFF"
   opacity="1.000000"
   stroke="none"
   d=" M641.880920,208.787659   C641.367981,211.655411 640.905884,214.082245 640.401428,216.731659   C596.637573,216.731659 553.065979,216.731659 508.933960,216.731659   C518.316223,184.299850 534.131592,157.924728 568.518127,147.753220   C584.246094,143.100922 600.193970,143.830734 615.805481,148.551010   C632.886719,153.715683 642.324829,167.341766 642.888977,187.422760   C643.084412,194.382965 642.279663,201.371262 641.880920,208.787659  z"
   id="path30" />
<path
   fill="#FEFFFF"
   opacity="1.000000"
   stroke="none"
   d=" M931.496216,258.509674   C935.078674,241.000626 937.518982,223.619202 942.238953,206.880600   C949.400818,181.482300 963.832153,161.096436 989.152405,150.660446   C1007.803467,142.973206 1027.181641,142.835617 1046.408813,148.441315   C1063.133179,153.317322 1070.619141,165.967300 1073.062622,182.380127   C1075.309570,197.471710 1073.016846,212.257751 1070.061646,226.962555   C1066.562500,244.373932 1064.159668,262.177338 1058.740479,278.991821   C1050.146973,305.654694 1032.776001,325.264221 1005.335144,334.214661   C988.735229,339.629120 971.820251,339.224274 955.184692,334.384430   C937.899536,329.355560 928.210449,315.651398 928.231201,295.118286   C928.243408,283.052856 930.259827,270.989441 931.496216,258.509674  z"
   id="path31" />
<path
   fill="#FEFFFF"
   opacity="1.000000"
   stroke="none"
   d=" M2028.688843,640.614929   C2026.018555,654.585022 2023.531250,668.156555 2020.812988,681.681702   C2020.427002,683.601685 2019.379639,686.051086 2017.859253,686.979309   C2000.930542,697.315308 1983.710693,707.216919 1964.043335,711.406128   C1949.157959,714.576782 1934.386108,715.105530 1920.314453,707.407227   C1909.042480,701.240662 1903.978760,691.338989 1902.015503,679.245850   C1899.350342,662.827820 1901.765015,646.744568 1905.045410,630.701477   C1908.741211,612.625916 1911.793945,594.393250 1916.223755,576.500610   C1920.830444,557.893494 1929.773193,541.404907 1945.000366,529.073792   C1957.473999,518.972473 1972.314575,514.557495 1987.940063,513.244873   C2008.421997,511.524323 2028.864868,512.711243 2049.115967,516.453918   C2049.915771,516.601746 2050.684814,516.918152 2051.960693,517.305664   C2044.229370,558.326477 2036.513672,599.264038 2028.688843,640.614929  z"
   id="path32" />
<path
   fill="#FDFEFF"
   opacity="1.000000"
   stroke="none"
   d=" M967.781128,555.489990   C968.602661,567.650879 967.836792,579.219727 964.746094,590.823730   C919.428772,590.823730 874.162964,590.823730 828.432312,590.823730   C832.244446,573.592651 839.046143,558.170166 849.783081,544.385559   C872.410950,515.334839 906.539490,508.884613 937.781067,517.400085   C954.945923,522.078735 964.482910,534.056152 967.101135,551.594055   C967.273254,552.746765 967.512939,553.889404 967.781128,555.489990  z"
   id="path33" />
</svg>
