<svg version="1.1" id="Layer_1" xmlns="http://www.w3.org/2000/svg" xmlns:xlink="http://www.w3.org/1999/xlink" x="0px" y="0px"
	 width="100%" viewBox="0 0 1920 274" enable-background="new 0 0 1920 274" xml:space="preserve">
<path fill="#FEFEFF" opacity="1.000000" stroke="none" 
	d="
M1460.000000,275.000000 
	C973.388611,275.000000 487.277252,275.000000 1.082934,275.000000 
	C1.082934,183.732407 1.082934,92.464722 1.082934,1.098515 
	C641.000000,1.098515 1281.000000,1.098515 1920.973389,1.098515 
	C1920.973389,92.389709 1920.973389,183.694855 1920.973389,275.000000 
	C1767.464478,275.000000 1613.982178,275.000000 1460.000000,275.000000 
M419.688263,39.747124 
	C419.782654,38.837677 419.877075,37.928234 420.240845,36.313427 
	C420.192261,35.564514 420.143707,34.815605 420.748596,33.606285 
	C419.037933,33.348145 417.327454,32.866089 415.616547,32.864544 
	C370.363800,32.823696 325.110992,32.832462 279.858215,32.832733 
	C270.699890,32.832787 270.697632,32.832554 269.999664,42.010941 
	C269.949371,42.672001 269.966553,43.338184 269.482727,44.622227 
	C267.490509,54.218342 265.486420,63.812016 263.507996,73.410973 
	C252.407532,127.268509 241.313217,181.127319 229.963211,235.867294 
	C231.024933,236.581207 232.085281,237.917297 233.148544,237.919617 
	C280.833252,238.023666 328.518311,237.980789 376.203064,238.077835 
	C379.396729,238.084320 380.371826,236.909805 380.490265,233.402237 
	C381.732452,226.497147 382.974640,219.592072 384.802612,212.119064 
	C385.077362,210.503036 385.352081,208.887009 385.688538,206.908096 
	C347.651672,206.908096 309.853027,206.908096 271.865601,206.079254 
	C272.750763,201.197815 273.587158,196.306961 274.530151,191.436722 
	C277.360962,176.816757 280.233337,162.204865 283.963318,147.224670 
	C285.951538,147.151154 287.939728,147.014450 289.927979,147.013580 
	C321.345337,147.000031 352.762695,147.019501 384.179932,146.959961 
	C385.836151,146.956818 387.491180,146.317856 389.496765,145.598312 
	C389.410126,145.298187 389.323486,144.998062 389.827698,144.136108 
	C389.967072,143.062088 390.106445,141.988083 390.686493,140.320251 
	C392.186859,132.884323 393.687225,125.448410 395.340240,117.255890 
	C359.903900,117.255890 325.118317,117.255890 290.065521,117.255890 
	C293.595428,100.159958 296.941315,83.745872 300.449463,67.366547 
	C300.726898,66.071251 302.131104,65.017303 303.938324,63.998199 
	C339.427795,64.002640 374.917328,64.031319 410.406494,63.927391 
	C411.905334,63.923000 413.400574,62.686470 415.162476,61.469074 
	C415.181244,60.880264 415.200043,60.291451 415.756927,59.208042 
	C415.813812,58.488876 415.870697,57.769711 416.252167,56.338608 
	C417.077515,52.214474 417.902863,48.090340 418.989136,43.216816 
	C419.069611,42.166271 419.150085,41.115726 419.106995,40.065487 
	C419.106995,40.065487 419.145813,40.182781 419.688263,39.747124 
M1745.826660,87.922592 
	C1745.826660,87.922592 1745.800537,87.782539 1745.274536,88.350876 
	C1744.807983,91.220222 1744.341553,94.089577 1743.403442,97.559258 
	C1737.381958,126.613304 1731.316772,155.658401 1725.356323,184.724960 
	C1722.094971,200.628616 1719.010742,216.568588 1715.289917,233.194717 
	C1715.102905,234.661270 1714.915894,236.127808 1714.735962,237.538666 
	C1715.271606,237.743317 1715.574707,237.960480 1715.877930,237.960648 
	C1764.438232,237.987946 1812.998535,237.978226 1861.558716,238.061584 
	C1864.698242,238.066971 1865.209106,236.551666 1865.183350,233.575119 
	C1865.161499,233.235870 1865.139648,232.896622 1865.644043,231.953644 
	C1865.801025,230.655441 1865.958130,229.357239 1866.580933,227.455521 
	C1867.306763,223.626709 1868.032593,219.797882 1869.019043,215.172699 
	C1869.524048,212.581177 1870.029053,209.989670 1870.560181,207.264343 
	C1869.607056,207.083694 1868.973022,206.857910 1868.339111,206.858429 
	C1831.236816,206.888611 1794.134644,206.937515 1756.656006,206.187729 
	C1758.120605,198.535706 1759.468994,190.859177 1761.076538,183.237320 
	C1763.634155,171.110550 1766.364380,159.020203 1769.952515,146.996811 
	C1803.206787,146.998978 1836.461060,147.028168 1869.714966,146.917419 
	C1871.255493,146.912308 1872.791870,145.654236 1874.759766,144.371750 
	C1876.534180,135.527039 1878.308472,126.682320 1880.192627,117.290421 
	C1844.755981,117.290421 1810.073608,117.290421 1774.911011,117.290421 
	C1777.586670,104.492218 1780.067261,92.180702 1782.767212,79.917458 
	C1783.957642,74.510590 1785.593384,69.201782 1787.950562,63.995396 
	C1823.758179,64.000412 1859.566040,64.030037 1895.373291,63.924416 
	C1896.874390,63.919983 1898.371948,62.655819 1900.119507,61.339333 
	C1900.157715,60.458340 1900.195923,59.577347 1900.828857,58.124378 
	C1901.890137,52.419132 1902.951416,46.713886 1904.312866,40.593945 
	C1904.334229,40.482010 1904.393188,40.361084 1904.368896,40.260002 
	C1904.318970,40.050461 1904.224854,39.851433 1904.716187,39.041096 
	C1905.084717,37.121311 1905.453369,35.201523 1905.908447,32.831051 
	C1903.777710,32.831051 1901.970093,32.831024 1900.162476,32.831059 
	C1872.014282,32.831615 1843.865967,32.832058 1815.717773,32.832794 
	C1797.396484,32.833275 1779.074585,32.776245 1760.754761,32.941002 
	C1759.231201,32.954700 1756.727417,34.174377 1756.384033,35.337296 
	C1755.173828,39.434784 1754.707031,43.751877 1753.565186,48.401718 
	C1753.481445,48.951611 1753.397705,49.501503 1753.054443,50.820480 
	C1751.358032,59.547077 1749.661621,68.273674 1747.626221,77.398903 
	C1747.598999,77.512451 1747.525635,77.639450 1747.554077,77.736725 
	C1747.614258,77.942795 1747.727539,78.133377 1747.234741,78.924599 
	C1746.718872,81.914276 1746.203003,84.903954 1745.826660,87.922592 
M1212.000000,226.998123 
	C1212.000000,226.998123 1212.021118,226.977905 1212.104736,226.121902 
	C1210.836914,219.516113 1209.569092,212.910339 1208.625366,205.906815 
	C1208.499512,205.605606 1208.373657,205.304398 1208.293823,204.198914 
	C1208.117310,203.139923 1207.940796,202.080917 1207.824707,200.458130 
	C1207.602539,199.954742 1207.380371,199.451340 1207.226807,198.096680 
	C1206.704956,195.079803 1206.183105,192.062943 1205.744019,188.486526 
	C1205.524658,187.981293 1205.305298,187.476059 1205.157593,186.191971 
	C1204.880615,185.225922 1204.603760,184.259872 1204.633057,182.903519 
	C1204.692749,182.542328 1204.579834,182.247391 1204.325073,181.153961 
	C1203.788574,178.120468 1203.252197,175.086975 1202.740112,171.312607 
	C1202.536743,170.868118 1202.333374,170.423630 1202.245239,169.232712 
	C1200.270020,158.593140 1198.294800,147.953552 1196.653809,136.544815 
	C1190.685791,102.052971 1184.717896,67.561127 1178.707764,32.826168 
	C1167.248047,32.826168 1156.272461,33.013664 1145.309570,32.722134 
	C1141.588013,32.623169 1139.781494,34.011803 1137.968994,37.057976 
	C1111.360840,81.774849 1084.598755,126.400009 1057.923218,171.076782 
	C1045.575806,191.756622 1033.335938,212.500809 1020.542542,233.643204 
	C1019.801331,234.964386 1019.060120,236.285583 1018.094482,238.006805 
	C1030.749268,238.006805 1042.651245,238.026703 1054.552612,237.962860 
	C1055.361450,237.958542 1056.166870,237.324753 1057.205200,236.817108 
	C1057.205200,236.817108 1057.138428,236.539948 1057.670166,236.200287 
	C1057.799683,235.808685 1057.929077,235.417084 1058.624634,234.645020 
	C1067.789062,218.859650 1076.883057,203.032288 1086.223877,187.352036 
	C1087.185181,185.738510 1089.612061,184.023376 1091.373291,184.007965 
	C1116.145264,183.790817 1140.920166,183.915894 1165.693481,183.791245 
	C1168.816895,183.775543 1169.629883,185.062592 1169.966309,187.792496 
	C1170.472168,191.897705 1171.341187,195.958176 1171.942993,200.889984 
	C1173.039185,207.914917 1174.135254,214.939835 1175.200928,222.768051 
	C1175.436279,223.523956 1175.671753,224.279861 1175.788696,225.729889 
	C1176.141113,227.362808 1176.493530,228.995728 1176.707397,230.773911 
	C1176.707397,230.773911 1176.791016,230.956421 1176.724609,231.848297 
	C1176.961670,233.787125 1177.198730,235.725952 1177.441040,237.708466 
	C1189.888184,237.708466 1201.909790,237.708466 1214.249878,237.708466 
	C1213.697998,234.903763 1213.219482,232.472244 1212.761475,229.217163 
	C1212.555908,228.714157 1212.350220,228.211151 1212.338745,227.472900 
	C1212.343140,227.239731 1212.238159,227.077011 1212.000000,226.998123 
M1470.405029,236.384857 
	C1470.912964,233.606140 1471.421021,230.827423 1472.256470,227.336426 
	C1472.414185,226.862030 1472.621338,226.397919 1472.722534,225.911743 
	C1483.439453,174.472168 1494.155762,123.032455 1504.852783,71.588768 
	C1507.507935,58.820217 1510.099854,46.038570 1512.810425,32.826092 
	C1501.911987,32.826092 1491.594482,32.974586 1481.285522,32.743515 
	C1477.795654,32.665287 1476.484497,33.622993 1475.761597,37.196487 
	C1469.795776,66.689453 1463.544189,96.124474 1457.432495,125.588089 
	C1450.004761,161.395615 1442.628662,197.213867 1434.973389,233.777161 
	C1434.715088,235.053711 1434.456665,236.330261 1434.132080,237.933533 
	C1445.947876,237.933533 1457.501221,237.941010 1469.054321,237.894684 
	C1469.376343,237.893402 1469.696045,237.316711 1469.995117,237.010391 
	C1469.995117,237.010391 1470.012573,237.027390 1470.405029,236.384857 
M411.724609,230.900909 
	C411.724609,230.900909 411.711609,230.742294 411.202545,231.319885 
	C410.796997,233.410080 410.391449,235.500290 409.975952,237.641769 
	C422.383636,237.641769 434.524414,237.641769 446.717407,237.641769 
	C446.972961,235.806656 447.177643,234.336868 447.367218,232.706833 
	C447.367218,232.706833 447.207977,232.683304 447.763489,232.130920 
	C447.856903,231.102249 447.950317,230.073563 448.518555,228.440735 
	C453.378876,204.874466 458.290314,181.318481 463.039032,157.729752 
	C463.680054,154.545410 464.922852,153.422256 468.268250,153.474274 
	C481.240387,153.675919 494.220520,153.390228 507.191620,153.623077 
	C514.148560,153.747971 521.181824,154.033279 528.022217,155.186050 
	C537.701843,156.817337 543.644714,162.440903 544.098755,172.154404 
	C544.598877,182.853317 543.206543,193.650284 542.482361,204.394012 
	C541.792664,214.627197 539.859436,224.866272 543.032227,235.851822 
	C543.754456,236.569824 544.469543,237.904984 545.200012,237.913437 
	C556.616821,238.045517 568.035645,238.018829 579.453125,237.920120 
	C579.691467,237.918076 579.918762,236.626099 580.050964,235.152878 
	C576.551758,225.764465 577.811218,216.096100 578.455261,206.487610 
	C579.155884,196.035324 580.592041,185.601410 580.700989,175.148987 
	C580.812927,164.411789 578.139648,154.248474 569.260193,146.996323 
	C566.556641,144.788239 563.359070,143.184982 560.008972,141.064972 
	C561.558167,140.620346 562.650818,140.265213 563.763855,139.993423 
	C586.566040,134.425735 601.097900,120.758095 604.579529,97.069901 
	C607.043152,80.308167 605.875000,63.875835 593.784302,50.544258 
	C582.441162,38.037003 567.155884,34.287003 550.059143,33.021133 
	C517.450806,33.021133 484.842407,33.021133 452.259644,33.021133 
	C451.903656,34.946526 451.632324,36.414162 451.079773,38.555428 
	C450.753113,40.011570 450.404877,41.463261 450.102875,42.924503 
	C440.831635,87.786919 431.532440,132.643600 422.316528,177.517380 
	C419.380524,191.813293 416.667694,206.155029 413.317444,221.134903 
	C413.044708,222.812958 412.771973,224.491013 412.565338,226.350418 
	C412.565338,226.350418 412.753387,226.306992 412.174469,226.869965 
	C411.975586,228.193115 411.776703,229.516281 411.724609,230.900909 
M206.864410,207.454178 
	C206.681656,206.929077 206.498901,206.403992 206.311371,205.096664 
	C206.133636,204.069778 205.955887,203.042892 205.840897,201.454346 
	C205.643478,200.944000 205.446060,200.433670 205.288727,199.136780 
	C205.109161,198.105438 204.929596,197.074081 204.750061,195.185181 
	C204.531494,194.660812 204.312912,194.136459 204.291916,193.447357 
	C204.306793,193.243622 204.216766,193.110626 204.085526,192.194214 
	C204.010574,191.364944 203.994049,190.525528 203.852264,189.707855 
	C197.207947,151.386551 190.560593,113.065773 183.894608,74.748238 
	C181.481873,60.879292 179.021622,47.018616 176.526047,32.830196 
	C165.235779,32.830196 154.265152,32.998474 143.304886,32.735306 
	C139.663315,32.647869 137.737427,33.835129 135.883163,36.952408 
	C110.724739,79.247192 85.384872,121.433960 60.153622,163.685516 
	C45.920643,187.519669 31.804838,211.423782 17.091286,235.823837 
	C15.264514,239.310745 18.412693,237.937912 19.412468,237.947540 
	C30.235655,238.051880 41.060390,238.041199 51.884090,237.969452 
	C52.873917,237.962906 53.859509,237.317169 55.314278,236.458206 
	C64.851982,220.125198 74.324837,203.753433 84.026680,187.518509 
	C85.007629,185.876999 87.361168,184.032822 89.093475,184.017105 
	C114.031738,183.790573 138.972855,183.830292 163.912567,183.951492 
	C165.193741,183.957718 166.468536,185.274750 167.695557,186.861496 
	C168.374435,190.471756 169.053299,194.082001 169.407608,198.076874 
	C169.520920,198.379654 169.634232,198.682434 169.685150,199.862579 
	C170.208862,203.229248 170.732559,206.595901 171.182098,210.532761 
	C171.360962,211.060028 171.539825,211.587280 171.702881,212.974823 
	C172.219742,216.302216 172.736618,219.629623 173.200562,223.757782 
	C173.434753,224.510986 173.668961,225.264191 173.801971,226.766464 
	C174.343521,230.463501 174.885071,234.160538 175.402847,237.695282 
	C187.918518,237.695282 199.884323,237.695282 212.172791,237.695282 
	C211.653534,235.219650 211.214905,233.128433 210.831696,230.462982 
	C210.646454,229.934906 210.461212,229.406815 210.310684,228.064423 
	C209.922012,226.498596 209.533340,224.932785 209.291916,223.234955 
	C209.291916,223.234955 209.219101,223.051102 209.277664,222.238647 
	C209.098541,221.173126 208.919418,220.107590 208.752197,218.302200 
	C208.548065,217.859268 208.343933,217.416336 208.254700,216.248779 
	C207.765411,213.508057 207.276123,210.767334 206.864410,207.454178 
M1273.761353,34.715401 
	C1273.597290,35.187000 1273.377197,35.647038 1273.276855,36.131832 
	C1262.914673,86.212440 1252.528809,136.288177 1242.229004,186.381638 
	C1239.290039,200.675171 1236.603149,215.020538 1233.254395,229.980103 
	C1233.047974,231.358612 1232.841553,232.737106 1232.617310,234.234085 
	C1232.617310,234.234085 1232.682007,234.334915 1232.176514,235.058762 
	C1232.750732,236.047195 1233.312256,237.889008 1233.901245,237.897842 
	C1245.262573,238.068298 1256.627197,238.024078 1268.326050,238.024078 
	C1268.672974,235.755890 1268.966675,233.836212 1269.304565,231.769547 
	C1269.304565,231.769547 1269.192383,231.664871 1269.730469,231.100769 
	C1269.838867,230.082352 1269.947266,229.063919 1270.491333,227.416016 
	C1275.313721,204.150528 1280.228882,180.903473 1284.858765,157.599716 
	C1285.552734,154.106232 1287.063477,153.467697 1290.196777,153.498322 
	C1304.188965,153.635071 1318.184692,153.441635 1332.175903,153.622513 
	C1337.645752,153.693207 1343.182251,154.007889 1348.557129,154.955627 
	C1360.519775,157.064972 1366.332764,163.706375 1366.312500,175.905396 
	C1366.297852,184.696655 1364.937500,193.477066 1364.533691,202.278656 
	C1364.109741,211.521759 1364.110229,220.784363 1363.825439,230.871033 
	C1364.335938,233.229752 1364.846436,235.588470 1365.315430,237.755066 
	C1378.157715,237.755066 1390.388306,237.755066 1403.151733,237.755066 
	C1402.345703,236.376846 1401.789795,235.426285 1401.175537,233.684036 
	C1400.634399,229.417435 1399.459961,225.119034 1399.672363,220.890274 
	C1400.279907,208.788635 1401.674683,196.727707 1402.346313,184.627823 
	C1403.327026,166.963440 1401.659058,150.340820 1382.586670,141.846863 
	C1382.411499,141.768814 1382.373291,141.383057 1382.184570,140.936142 
	C1383.344116,140.614761 1384.437378,140.278870 1385.546631,140.009216 
	C1409.556641,134.173050 1423.030640,120.116470 1426.493896,95.702454 
	C1428.765869,79.687050 1427.363647,63.911865 1415.966797,51.042831 
	C1404.627441,38.238602 1389.290039,34.379635 1372.055908,33.024868 
	C1340.666504,32.959785 1309.277222,32.880959 1277.887817,32.879330 
	C1276.618896,32.879265 1275.349976,33.608604 1273.761353,34.715401 
M1515.379395,225.331329 
	C1515.327148,225.897583 1515.274902,226.463837 1514.996094,227.662567 
	C1514.980103,228.107269 1514.964111,228.551956 1514.609375,229.373184 
	C1514.582520,229.482956 1514.513550,229.602936 1514.537231,229.700394 
	C1514.587158,229.904739 1514.685669,230.097214 1514.237549,230.802628 
	C1514.188965,231.522888 1514.140381,232.243149 1513.876587,233.454849 
	C1513.902344,233.631790 1513.928223,233.808731 1513.507202,234.641663 
	C1513.392212,235.698273 1513.277222,236.754883 1513.139404,238.021057 
	C1539.703003,238.021057 1565.857178,238.045593 1592.011475,238.008865 
	C1602.333984,237.994370 1612.656128,237.843369 1623.726318,237.863495 
	C1624.473999,237.789856 1625.221680,237.716232 1626.790894,237.775558 
	C1629.749634,237.252975 1632.708252,236.730392 1636.423218,236.525421 
	C1669.665527,231.397278 1690.649536,211.117767 1694.540283,179.359024 
	C1696.990723,159.356476 1690.326660,139.340179 1667.313721,131.015427 
	C1666.810181,130.833221 1666.362305,130.496628 1665.214478,129.855682 
	C1667.435059,129.189880 1668.812866,128.774094 1670.192261,128.363647 
	C1706.279297,117.625801 1712.186157,70.768837 1692.508789,49.567978 
	C1681.859863,38.094540 1667.950928,34.320938 1652.057129,33.023335 
	C1619.833984,33.023335 1587.610962,33.023335 1555.133057,33.023335 
	C1554.746338,35.463776 1554.387939,37.724667 1553.668823,40.663891 
	C1544.095337,86.850578 1534.491333,133.030960 1524.968628,179.228149 
	C1522.427490,191.556412 1520.135498,203.936035 1517.167480,216.868149 
	C1517.040649,217.928375 1516.913818,218.988586 1516.715454,220.211151 
	C1516.715454,220.211151 1516.835571,220.341690 1516.279297,220.936020 
	C1516.114502,222.264008 1515.949585,223.591995 1515.379395,225.331329 
M641.531921,214.952637 
	C657.241760,232.314423 677.323181,240.268997 700.190063,242.379135 
	C740.225098,246.073547 781.112366,229.183441 802.773376,189.638351 
	C817.253662,163.202530 821.072144,134.565491 818.599304,105.025421 
	C817.081116,86.889008 810.328613,70.495918 798.217285,56.613285 
	C777.066833,32.369473 749.115295,25.796946 718.910645,28.650476 
	C680.459839,32.283062 652.053955,52.339951 634.381470,86.788795 
	C622.949524,109.072823 619.339172,133.168961 620.186890,157.959839 
	C620.906738,179.009155 627.214417,198.151886 641.531921,214.952637 
M968.361206,194.810394 
	C956.685059,209.297562 941.300537,214.262405 923.157166,213.073990 
	C900.843872,211.612427 882.746216,198.195877 877.091125,176.603180 
	C868.913208,145.377457 874.137512,115.680626 891.194519,88.555748 
	C905.908691,65.156593 927.735413,55.037209 955.453003,58.012405 
	C973.733887,59.974659 986.949829,71.130005 990.682983,88.319214 
	C991.585266,92.473900 991.873840,96.761887 992.442627,100.974335 
	C1004.299194,100.974335 1015.907898,100.974335 1027.995117,100.974335 
	C1028.634399,77.990662 1021.730408,58.558083 1003.226807,44.315144 
	C983.489990,29.122923 960.289368,26.386143 936.710022,28.589603 
	C899.892944,32.030113 871.882507,50.384430 853.819275,82.848045 
	C839.071228,109.353470 835.161255,138.220520 838.401794,167.928375 
	C840.872314,190.577881 850.645264,209.980392 868.919128,224.367096 
	C884.251648,236.438049 902.123535,241.781555 921.297302,242.682724 
	C959.169067,244.462662 988.811340,230.425491 1007.489563,196.373108 
	C1012.602783,187.051147 1016.168762,177.108047 1018.237366,166.137848 
	C1007.199707,166.137848 996.718262,166.274963 986.244446,166.053177 
	C983.154480,165.987747 982.190308,167.283051 981.002136,169.847916 
	C977.181274,178.096054 972.912354,186.136581 968.361206,194.810394 
z"/>
<path fill="#1A3C8C" opacity="1.000000" stroke="none" 
	d="
M1513.954102,233.985672 
	C1513.928223,233.808731 1513.902344,233.631790 1514.244873,232.953903 
	C1514.663452,231.733490 1514.713745,231.014038 1514.764160,230.294586 
	C1514.685669,230.097214 1514.587158,229.904739 1514.537231,229.700394 
	C1514.513550,229.602936 1514.582520,229.482956 1515.006958,229.064148 
	C1515.343994,228.180084 1515.283447,227.605087 1515.222656,227.030090 
	C1515.274902,226.463837 1515.327148,225.897583 1515.925049,224.899292 
	C1516.592285,223.092072 1516.713867,221.716888 1516.835571,220.341690 
	C1516.835571,220.341690 1516.715454,220.211151 1517.080933,219.878281 
	C1517.540527,218.460953 1517.634766,217.376511 1517.729004,216.292068 
	C1520.135498,203.936035 1522.427490,191.556412 1524.968628,179.228149 
	C1534.491333,133.030960 1544.095337,86.850578 1554.180786,40.144409 
	C1555.432007,37.870331 1556.171387,36.115738 1557.062500,34.000618 
	C1558.734497,34.000618 1560.542114,34.000633 1562.349854,34.000618 
	C1590.790527,34.000374 1619.231079,34.013580 1647.671753,33.967514 
	C1649.437622,33.964653 1651.202637,33.495857 1652.968140,33.243832 
	C1667.950928,34.320938 1681.859863,38.094540 1692.508789,49.567978 
	C1712.186157,70.768837 1706.279297,117.625801 1670.192261,128.363647 
	C1668.812866,128.774094 1667.435059,129.189880 1665.214478,129.855682 
	C1666.362305,130.496628 1666.810181,130.833221 1667.313721,131.015427 
	C1690.326660,139.340179 1696.990723,159.356476 1694.540283,179.359024 
	C1690.649536,211.117767 1669.665527,231.397278 1635.560303,236.308289 
	C1631.788086,236.608322 1628.878662,237.125458 1625.969360,237.642609 
	C1625.221680,237.716232 1624.473999,237.789856 1623.020752,237.564911 
	C1620.499878,237.174896 1618.684570,237.004669 1616.869385,237.003754 
	C1584.488525,236.987656 1552.107544,237.001022 1519.726685,236.973755 
	C1517.354492,236.971771 1514.451782,237.726761 1513.954102,233.985672 
M1642.497314,61.654800 
	C1641.887573,61.444199 1641.278442,61.051003 1640.668091,61.049568 
	C1623.112427,61.008209 1605.556396,60.984299 1588.000977,61.057362 
	C1587.048950,61.061325 1586.100464,61.929626 1585.077881,63.171349 
	C1581.315063,81.357140 1577.552246,99.542923 1573.749146,117.922806 
	C1574.806641,118.151115 1575.425781,118.401070 1576.045288,118.401695 
	C1594.536255,118.420364 1613.029541,118.587746 1631.517212,118.337418 
	C1640.453613,118.216408 1649.080200,116.192169 1656.285645,110.458847 
	C1666.356934,102.445076 1669.196533,91.576271 1666.589355,79.564903 
	C1664.088867,68.045723 1654.833252,64.304306 1644.285522,62.876308 
	C1643.807251,62.811558 1643.352661,62.571972 1642.497314,61.654800 
M1654.527954,190.874146 
	C1654.739380,190.422607 1654.944214,189.967743 1655.163330,189.519958 
	C1665.714233,167.966248 1656.843384,149.342834 1633.330811,145.778534 
	C1622.399048,144.121368 1611.071533,144.998291 1599.921875,144.878662 
	C1589.457153,144.766357 1578.990112,144.854614 1568.340332,144.854614 
	C1563.870972,166.148178 1559.489502,187.022903 1555.147949,207.707428 
	C1578.395386,207.707428 1601.197388,208.315048 1623.944580,207.460281 
	C1635.965698,207.008575 1647.067871,202.479187 1654.527954,190.874146 
z"/>
<path fill="#193B8C" opacity="1.000000" stroke="none" 
	d="
M1269.192383,231.664871 
	C1269.192383,231.664871 1269.304565,231.769547 1268.958984,232.067719 
	C1267.988159,235.705170 1266.351196,237.234222 1262.590088,237.091324 
	C1254.371338,236.779037 1246.127563,237.146545 1237.906006,236.873581 
	C1236.138550,236.814896 1234.421997,235.221390 1232.682007,234.334900 
	C1232.682007,234.334915 1232.617310,234.234085 1232.984863,233.924652 
	C1233.501709,232.190857 1233.651245,230.766495 1233.800659,229.342133 
	C1236.603149,215.020538 1239.290039,200.675171 1242.229004,186.381638 
	C1252.528809,136.288177 1262.914673,86.212440 1273.276855,36.131832 
	C1273.377197,35.647038 1273.597290,35.187000 1274.384521,34.360561 
	C1305.897583,34.003773 1336.787720,34.014191 1367.677734,33.967682 
	C1369.441040,33.965027 1371.203735,33.496975 1372.966675,33.245518 
	C1389.290039,34.379635 1404.627441,38.238602 1415.966797,51.042831 
	C1427.363647,63.911865 1428.765869,79.687050 1426.493896,95.702454 
	C1423.030640,120.116470 1409.556641,134.173050 1385.546631,140.009216 
	C1384.437378,140.278870 1383.344116,140.614761 1382.184570,140.936142 
	C1382.373291,141.383057 1382.411499,141.768814 1382.586670,141.846863 
	C1401.659058,150.340820 1403.327026,166.963440 1402.346313,184.627823 
	C1401.674683,196.727707 1400.279907,208.788635 1399.672363,220.890274 
	C1399.459961,225.119034 1400.634399,229.417435 1401.016357,234.475098 
	C1399.740601,235.836395 1398.631104,236.885162 1397.506470,236.901474 
	C1388.224731,237.036102 1378.937134,237.096939 1369.660278,236.845200 
	C1368.369263,236.810196 1366.944214,235.104446 1365.918335,233.887772 
	C1365.010010,232.810379 1364.571411,231.336990 1363.925293,230.038422 
	C1364.110229,220.784363 1364.109741,211.521759 1364.533691,202.278656 
	C1364.937500,193.477066 1366.297852,184.696655 1366.312500,175.905396 
	C1366.332764,163.706375 1360.519775,157.064972 1348.557129,154.955627 
	C1343.182251,154.007889 1337.645752,153.693207 1332.175903,153.622513 
	C1318.184692,153.441635 1304.188965,153.635071 1290.196777,153.498322 
	C1287.063477,153.467697 1285.552734,154.106232 1284.858765,157.599716 
	C1280.228882,180.903473 1275.313721,204.150528 1269.970459,227.980377 
	C1269.363892,229.584778 1269.278198,230.624832 1269.192383,231.664871 
M1352.689819,125.742477 
	C1359.817627,123.641678 1367.383789,122.445389 1373.980835,119.249130 
	C1387.158936,112.864510 1393.712524,97.174606 1390.548584,82.375839 
	C1387.977295,70.348900 1379.703247,63.761898 1363.332031,62.961262 
	C1344.725098,62.051292 1326.057495,62.323856 1307.416138,62.311729 
	C1306.286255,62.310997 1304.448853,64.159958 1304.140869,65.437592 
	C1302.350952,72.862160 1300.857300,80.360924 1299.382812,87.858109 
	C1296.884766,100.559853 1294.475952,113.279137 1292.601685,126.593758 
	C1293.242432,126.728966 1293.883179,126.981499 1294.524048,126.982300 
	C1312.606689,127.005051 1330.689209,127.018723 1348.771729,126.962448 
	C1349.830444,126.959152 1350.887207,126.356911 1352.689819,125.742477 
z"/>
<path fill="#193B8C" opacity="1.000000" stroke="none" 
	d="
M413.852722,220.475784 
	C416.667694,206.155029 419.380524,191.813293 422.316528,177.517380 
	C431.532440,132.643600 440.831635,87.786919 450.102875,42.924503 
	C450.404877,41.463261 450.753113,40.011570 451.607269,38.090313 
	C452.956696,34.597454 454.887787,33.901516 457.983887,33.916534 
	C487.055115,34.057549 516.127319,34.015110 545.199158,33.966682 
	C547.125305,33.963474 549.050659,33.478497 550.976379,33.217606 
	C567.155884,34.287003 582.441162,38.037003 593.784302,50.544258 
	C605.875000,63.875835 607.043152,80.308167 604.579529,97.069901 
	C601.097900,120.758095 586.566040,134.425735 563.763855,139.993423 
	C562.650818,140.265213 561.558167,140.620346 560.008972,141.064972 
	C563.359070,143.184982 566.556641,144.788239 569.260193,146.996323 
	C578.139648,154.248474 580.812927,164.411789 580.700989,175.148987 
	C580.592041,185.601410 579.155884,196.035324 578.455261,206.487610 
	C577.811218,216.096100 576.551758,225.764465 579.704590,235.707458 
	C568.412964,236.488235 557.468262,236.773178 546.522034,236.853302 
	C545.378601,236.861664 544.226379,235.658081 543.078247,235.016785 
	C539.859436,224.866272 541.792664,214.627197 542.482361,204.394012 
	C543.206543,193.650284 544.598877,182.853317 544.098755,172.154404 
	C543.644714,162.440903 537.701843,156.817337 528.022217,155.186050 
	C521.181824,154.033279 514.148560,153.747971 507.191620,153.623077 
	C494.220520,153.390228 481.240387,153.675919 468.268250,153.474274 
	C464.922852,153.422256 463.680054,154.545410 463.039032,157.729752 
	C458.290314,181.318481 453.378876,204.874466 447.978455,228.994934 
	C447.361572,230.593842 447.284760,231.638580 447.207947,232.683304 
	C447.207977,232.683304 447.367218,232.706833 447.033966,232.995972 
	C445.746490,235.827942 444.269775,237.167343 441.194336,237.068481 
	C433.584564,236.823853 425.961487,236.961349 418.344055,237.000183 
	C414.094391,237.021851 411.380524,235.523315 411.711609,230.742294 
	C411.711609,230.742294 411.724609,230.900909 412.040039,230.693817 
	C412.488098,229.093475 412.620758,227.700226 412.753387,226.306992 
	C412.753387,226.306992 412.565338,226.350418 412.911133,226.020157 
	C413.455505,223.951859 413.654114,222.213821 413.852722,220.475784 
M471.646545,126.686729 
	C491.058075,126.783127 510.469604,126.891357 529.881226,126.926903 
	C530.563721,126.928154 531.247498,126.207153 532.609985,125.456856 
	C533.754639,125.289749 534.899475,125.124191 536.043823,124.955307 
	C553.338501,122.403099 565.368286,112.765289 568.375061,97.736008 
	C571.971313,79.759773 566.590942,66.919380 546.282410,63.239414 
	C543.850220,62.798695 541.387451,62.526554 538.442017,61.500572 
	C537.810303,61.338135 537.178894,61.035034 536.546814,61.033802 
	C520.108582,61.001701 503.670197,60.983231 487.232056,61.035847 
	C486.168060,61.039246 485.105957,61.631596 483.382782,62.333023 
	C482.981476,63.419437 482.432343,64.475349 482.200928,65.596817 
	C478.444855,83.801186 474.694519,102.006973 471.055603,120.234940 
	C470.676483,122.133987 471.011658,124.175613 471.646545,126.686729 
z"/>
<path fill="#1A3C8B" opacity="1.000000" stroke="none" 
	d="
M641.289551,214.694061 
	C627.214417,198.151886 620.906738,179.009155 620.186890,157.959839 
	C619.339172,133.168961 622.949524,109.072823 634.381470,86.788795 
	C652.053955,52.339951 680.459839,32.283062 718.910645,28.650476 
	C749.115295,25.796946 777.066833,32.369473 798.217285,56.613285 
	C810.328613,70.495918 817.081116,86.889008 818.599304,105.025421 
	C821.072144,134.565491 817.253662,163.202530 802.773376,189.638351 
	C781.112366,229.183441 740.225098,246.073547 700.190063,242.379135 
	C677.323181,240.268997 657.241760,232.314423 641.289551,214.694061 
M777.030090,158.463058 
	C782.859680,140.281860 784.702881,121.745438 782.020813,102.798889 
	C778.557983,78.336723 762.655823,61.366524 739.602722,58.240448 
	C714.076477,54.779015 692.849426,62.872932 677.263367,83.626740 
	C660.524414,105.915871 655.084412,131.669388 656.434631,158.983871 
	C657.146362,173.382797 661.250305,186.881332 671.554688,197.659683 
	C692.005798,219.051636 731.309448,218.473572 753.891418,196.740112 
	C764.848328,186.194946 771.899353,173.390839 777.030090,158.463058 
z"/>
<path fill="#193B8C" opacity="1.000000" stroke="none" 
	d="
M230.216797,234.985703 
	C241.313217,181.127319 252.407532,127.268509 263.507996,73.410973 
	C265.486420,63.812016 267.490509,54.218342 270.020508,44.096939 
	C271.051880,42.019588 271.759064,40.499237 271.995148,38.908947 
	C272.504303,35.479168 273.856262,33.893219 277.787750,33.906937 
	C325.223145,34.072449 372.659210,34.044342 420.095123,34.066692 
	C420.143707,34.815605 420.192261,35.564514 419.837280,36.885460 
	C419.337738,38.365921 419.241760,39.274349 419.145813,40.182777 
	C419.145813,40.182781 419.106995,40.065487 418.869812,40.210808 
	C418.664520,41.559490 418.696381,42.762844 418.728210,43.966202 
	C417.902863,48.090340 417.077515,52.214474 415.823120,56.942345 
	C415.335632,58.264935 415.277222,58.983788 415.218842,59.702641 
	C415.200043,60.291451 415.181244,60.880264 414.654907,61.915104 
	C412.184753,62.570946 410.222351,62.961464 408.259491,62.963661 
	C375.096161,63.000801 341.932800,62.975300 308.769531,63.025986 
	C306.849823,63.028919 304.930939,63.563843 303.011658,63.851185 
	C302.131104,65.017303 300.726898,66.071251 300.449463,67.366547 
	C296.941315,83.745872 293.595428,100.159958 290.065521,117.255890 
	C325.118317,117.255890 359.903900,117.255890 395.340240,117.255890 
	C393.687225,125.448410 392.186859,132.884323 390.130341,140.870285 
	C389.461731,142.512863 389.349274,143.605408 389.236816,144.697937 
	C389.323486,144.998062 389.410126,145.298187 388.841980,145.789551 
	C355.070251,145.987762 321.953156,145.968323 288.836487,146.069473 
	C286.919281,146.075333 285.005096,147.060440 283.089508,147.589813 
	C280.233337,162.204865 277.360962,176.816757 274.530151,191.436722 
	C273.587158,196.306961 272.750763,201.197815 272.224060,206.815125 
	C274.384552,207.700668 276.186554,207.979477 277.988708,207.980881 
	C311.577484,208.007156 345.166443,208.045563 378.754852,207.935028 
	C382.345703,207.923218 384.609131,208.545807 384.216827,212.686981 
	C382.974640,219.592072 381.732452,226.497147 379.957581,233.924850 
	C377.616119,235.294724 375.809509,236.876541 373.998291,236.881897 
	C328.038452,237.017822 282.078033,237.013229 236.118042,236.903320 
	C234.149445,236.898605 232.183823,235.653152 230.216797,234.985703 
z"/>
<path fill="#193B8C" opacity="1.000000" stroke="none" 
	d="
M1747.818970,78.330307 
	C1747.727539,78.133377 1747.614258,77.942795 1747.554077,77.736725 
	C1747.525635,77.639450 1747.598999,77.512451 1748.094727,76.986588 
	C1749.660278,72.671005 1751.086670,68.824394 1751.770264,64.850037 
	C1752.609131,59.972935 1752.827393,54.989094 1753.313965,50.051399 
	C1753.397705,49.501503 1753.481445,48.951611 1754.102783,48.023750 
	C1755.103149,46.130787 1755.768677,44.645428 1755.995361,43.095875 
	C1757.252075,34.505466 1757.789795,33.999531 1766.473022,33.999557 
	C1810.387207,33.999695 1854.301514,34.066448 1898.215088,33.899387 
	C1902.717896,33.882259 1904.749268,35.056961 1904.149048,39.648071 
	C1904.224854,39.851433 1904.318970,40.050461 1904.368896,40.260002 
	C1904.393188,40.361084 1904.334229,40.482010 1903.863525,41.022011 
	C1902.354126,47.198837 1901.294067,52.947594 1900.234131,58.696350 
	C1900.195923,59.577347 1900.157715,60.458340 1899.588623,61.720482 
	C1896.773804,62.397770 1894.490112,62.948009 1892.205566,62.951832 
	C1859.065063,63.007305 1825.924561,62.975266 1792.783936,63.026028 
	C1790.864624,63.028969 1788.945923,63.562077 1787.026978,63.848450 
	C1785.593384,69.201782 1783.957642,74.510590 1782.767212,79.917458 
	C1780.067261,92.180702 1777.586670,104.492218 1774.911011,117.290421 
	C1810.073608,117.290421 1844.755981,117.290421 1880.192627,117.290421 
	C1878.308472,126.682320 1876.534180,135.527039 1874.102295,144.717133 
	C1870.994263,145.375137 1868.544434,145.954834 1866.093384,145.959839 
	C1835.641479,146.021973 1805.189575,145.984146 1774.737671,146.039734 
	C1772.831787,146.043213 1770.926880,146.609833 1769.021606,146.914459 
	C1766.364380,159.020203 1763.634155,171.110550 1761.076538,183.237320 
	C1759.468994,190.859177 1758.120605,198.535706 1757.127319,206.890121 
	C1759.404541,207.728546 1761.210205,207.981888 1763.016235,207.983185 
	C1795.929443,208.006989 1828.842773,208.000504 1861.755981,208.000443 
	C1863.684692,208.000443 1865.613525,208.000458 1867.394775,208.000458 
	C1867.936768,211.167938 1868.347534,213.568512 1868.758423,215.969070 
	C1868.032593,219.797882 1867.306763,223.626709 1866.029053,227.996307 
	C1865.357300,229.877197 1865.237549,231.217285 1865.117798,232.557373 
	C1865.139648,232.896622 1865.161499,233.235870 1864.771362,234.033081 
	C1862.548096,235.323044 1860.738892,236.876419 1858.925171,236.881683 
	C1812.765625,237.015656 1766.605225,236.948914 1720.445557,237.063385 
	C1716.875610,237.072235 1715.611816,235.798920 1715.846558,232.492172 
	C1719.010742,216.568588 1722.094971,200.628616 1725.356323,184.724960 
	C1731.316772,155.658401 1737.381958,126.613304 1744.000000,97.099861 
	C1744.997925,93.687820 1745.399170,90.735176 1745.800537,87.782539 
	C1745.800537,87.782539 1745.826660,87.922592 1746.112915,87.736450 
	C1746.872437,84.476982 1747.345703,81.403648 1747.818970,78.330307 
z"/>
<path fill="#1A3C8B" opacity="1.000000" stroke="none" 
	d="
M968.588745,194.533783 
	C972.912354,186.136581 977.181274,178.096054 981.002136,169.847916 
	C982.190308,167.283051 983.154480,165.987747 986.244446,166.053177 
	C996.718262,166.274963 1007.199707,166.137848 1018.237366,166.137848 
	C1016.168762,177.108047 1012.602783,187.051147 1007.489563,196.373108 
	C988.811340,230.425491 959.169067,244.462662 921.297302,242.682724 
	C902.123535,241.781555 884.251648,236.438049 868.919128,224.367096 
	C850.645264,209.980392 840.872314,190.577881 838.401794,167.928375 
	C835.161255,138.220520 839.071228,109.353470 853.819275,82.848045 
	C871.882507,50.384430 899.892944,32.030113 936.710022,28.589603 
	C960.289368,26.386143 983.489990,29.122923 1003.226807,44.315144 
	C1021.730408,58.558083 1028.634399,77.990662 1027.995117,100.974335 
	C1015.907898,100.974335 1004.299194,100.974335 992.442627,100.974335 
	C991.873840,96.761887 991.585266,92.473900 990.682983,88.319214 
	C986.949829,71.130005 973.733887,59.974659 955.453003,58.012405 
	C927.735413,55.037209 905.908691,65.156593 891.194519,88.555748 
	C874.137512,115.680626 868.913208,145.377457 877.091125,176.603180 
	C882.746216,198.195877 900.843872,211.612427 923.157166,213.073990 
	C941.300537,214.262405 956.685059,209.297562 968.588745,194.533783 
z"/>
<path fill="#1A3C8C" opacity="1.000000" stroke="none" 
	d="
M167.746307,185.981506 
	C166.468536,185.274750 165.193741,183.957718 163.912567,183.951492 
	C138.972855,183.830292 114.031738,183.790573 89.093475,184.017105 
	C87.361168,184.032822 85.007629,185.876999 84.026680,187.518509 
	C74.324837,203.753433 64.851982,220.125198 54.621674,236.720093 
	C43.609440,236.985062 33.288628,237.068207 22.971315,236.915085 
	C21.185345,236.888580 19.414227,235.861359 17.636253,235.296387 
	C31.804838,211.423782 45.920643,187.519669 60.153622,163.685516 
	C85.384872,121.433960 110.724739,79.247192 135.883163,36.952408 
	C137.737427,33.835129 139.663315,32.647869 143.304886,32.735306 
	C154.265152,32.998474 165.235779,32.830196 176.526047,32.830196 
	C179.021622,47.018616 181.481873,60.879292 183.894608,74.748238 
	C190.560593,113.065773 197.207947,151.386551 203.852264,189.707855 
	C203.994049,190.525528 204.010574,191.364944 204.048523,192.716415 
	C204.011520,193.238617 204.094330,193.612091 204.094330,193.612091 
	C204.312912,194.136459 204.531494,194.660812 204.533203,195.865814 
	C204.627106,197.672073 204.937881,198.797699 205.248657,199.923340 
	C205.446060,200.433670 205.643478,200.944000 205.585785,201.989166 
	C205.659149,203.642273 205.987656,204.760574 206.316162,205.878891 
	C206.498901,206.403992 206.681656,206.929077 206.594574,208.014191 
	C206.929749,211.373932 207.534775,214.173676 208.139801,216.973404 
	C208.343933,217.416336 208.548065,217.859268 208.530640,218.927216 
	C208.612411,220.718506 208.915756,221.884811 209.219101,223.051102 
	C209.219101,223.051102 209.291916,223.234955 209.175873,223.749146 
	C209.465210,225.801788 209.870575,227.340271 210.275955,228.878738 
	C210.461212,229.406815 210.646454,229.934906 210.578888,231.007172 
	C210.326065,233.139740 210.326065,234.728134 210.326065,236.995056 
	C200.538101,236.995056 191.114563,236.859161 181.698273,237.061066 
	C177.860916,237.143341 175.768570,236.226089 175.721497,231.931778 
	C175.699814,229.953918 174.544464,227.988464 173.903152,226.017395 
	C173.668961,225.264191 173.434753,224.510986 173.457886,223.055664 
	C173.049713,218.940552 172.384201,215.527542 171.718689,212.114548 
	C171.539825,211.587280 171.360962,211.060028 171.447800,209.950592 
	C171.058182,205.907349 170.402863,202.446274 169.747543,198.985214 
	C169.634232,198.682434 169.520920,198.379654 169.646606,197.406158 
	C169.172501,193.150787 168.459412,189.566147 167.746307,185.981506 
M157.782166,116.850487 
	C155.484619,101.334213 153.187073,85.817947 150.678787,68.878403 
	C133.923309,98.577568 117.856239,127.056549 101.580208,155.905914 
	C122.567276,155.905914 142.662521,155.905914 163.246475,155.905914 
	C161.426544,142.979706 159.649139,130.355606 157.782166,116.850487 
z"/>
<path fill="#1A3C8C" opacity="1.000000" stroke="none" 
	d="
M1175.907104,225.035767 
	C1175.671753,224.279861 1175.436279,223.523956 1175.452026,222.069504 
	C1174.487427,214.259857 1173.271606,207.148743 1172.055908,200.037643 
	C1171.341187,195.958176 1170.472168,191.897705 1169.966309,187.792496 
	C1169.629883,185.062592 1168.816895,183.775543 1165.693481,183.791245 
	C1140.920166,183.915894 1116.145264,183.790817 1091.373291,184.007965 
	C1089.612061,184.023376 1087.185181,185.738510 1086.223877,187.352036 
	C1076.883057,203.032288 1067.789062,218.859650 1058.081299,235.008942 
	C1057.404785,235.761887 1057.271606,236.150909 1057.138428,236.539948 
	C1057.138428,236.539948 1057.205200,236.817108 1056.622314,236.901581 
	C1045.993042,236.987732 1035.946533,236.971085 1025.900024,237.003326 
	C1023.233337,237.011871 1020.759155,236.923889 1021.047424,233.215820 
	C1033.335938,212.500809 1045.575806,191.756622 1057.923218,171.076782 
	C1084.598755,126.400009 1111.360840,81.774849 1137.968994,37.057976 
	C1139.781494,34.011803 1141.588013,32.623169 1145.309570,32.722134 
	C1156.272461,33.013664 1167.248047,32.826168 1178.707764,32.826168 
	C1184.717896,67.561127 1190.685791,102.052971 1196.393066,137.395844 
	C1196.426025,140.859894 1196.530518,143.511078 1197.048218,146.078918 
	C1198.657959,154.062622 1200.424438,162.014755 1202.130005,169.979126 
	C1202.333374,170.423630 1202.536743,170.868118 1202.505615,171.979004 
	C1202.945435,175.769852 1203.619873,178.894287 1204.294189,182.018738 
	C1204.579834,182.247391 1204.692749,182.542328 1204.387573,183.503967 
	C1204.456665,185.059891 1204.771362,186.015350 1205.085938,186.970825 
	C1205.305298,187.476059 1205.524658,187.981293 1205.491577,189.063675 
	C1205.878784,192.743210 1206.518433,195.845581 1207.158203,198.947968 
	C1207.380371,199.451340 1207.602539,199.954742 1207.572266,200.994080 
	C1207.629272,202.687759 1207.938599,203.845490 1208.247803,205.003204 
	C1208.373657,205.304398 1208.499512,205.605606 1208.375000,206.578278 
	C1209.423340,213.825790 1210.722290,220.401840 1212.021118,226.977905 
	C1212.021118,226.977905 1212.000000,226.998123 1212.007324,227.115234 
	C1212.014526,227.232346 1212.144531,227.708145 1212.144531,227.708130 
	C1212.350220,228.211151 1212.555908,228.714157 1212.518311,229.942444 
	C1212.064453,232.592377 1211.853638,234.517014 1211.582275,236.995117 
	C1203.301636,236.995117 1195.236328,236.754059 1187.194214,237.083023 
	C1182.145630,237.289536 1177.800293,237.201111 1176.791016,230.956421 
	C1176.791016,230.956421 1176.707397,230.773911 1176.819092,230.298431 
	C1176.589478,228.227234 1176.248291,226.631500 1175.907104,225.035767 
M1158.196045,106.249832 
	C1156.487671,94.269035 1154.779297,82.288231 1153.070801,70.307434 
	C1152.715454,70.306206 1152.359985,70.304970 1152.004517,70.303741 
	C1135.976807,98.711311 1119.949219,127.118881 1103.759399,155.813751 
	C1124.663696,155.813751 1144.861572,155.813751 1165.438965,155.813751 
	C1163.039795,139.330154 1160.695679,123.225319 1158.196045,106.249832 
z"/>
<path fill="#193B8B" opacity="1.000000" stroke="none" 
	d="
M1435.230225,233.027466 
	C1442.628662,197.213867 1450.004761,161.395615 1457.432495,125.588089 
	C1463.544189,96.124474 1469.795776,66.689453 1475.761597,37.196487 
	C1476.484497,33.622993 1477.795654,32.665287 1481.285522,32.743515 
	C1491.594482,32.974586 1501.911987,32.826092 1512.810425,32.826092 
	C1510.099854,46.038570 1507.507935,58.820217 1504.852783,71.588768 
	C1494.155762,123.032455 1483.439453,174.472168 1472.722534,225.911743 
	C1472.621338,226.397919 1472.414185,226.862030 1471.759277,227.876099 
	C1470.845703,231.286301 1470.429199,234.156845 1470.012573,237.027390 
	C1470.012573,237.027390 1469.995117,237.010391 1469.536377,236.999222 
	C1459.865356,236.989182 1450.648560,236.823914 1441.443481,237.079376 
	C1438.106567,237.171982 1436.147095,236.155975 1435.230225,233.027466 
z"/>
<path fill="#1F3B7B" opacity="1.000000" stroke="none" 
	d="
M1904.432617,39.344582 
	C1904.749268,35.056961 1902.717896,33.882259 1898.215088,33.899387 
	C1854.301514,34.066448 1810.387207,33.999695 1766.473022,33.999557 
	C1757.789795,33.999531 1757.252075,34.505466 1755.995361,43.095875 
	C1755.768677,44.645428 1755.103149,46.130787 1754.299316,47.815712 
	C1754.707031,43.751877 1755.173828,39.434784 1756.384033,35.337296 
	C1756.727417,34.174377 1759.231201,32.954700 1760.754761,32.941002 
	C1779.074585,32.776245 1797.396484,32.833275 1815.717773,32.832794 
	C1843.865967,32.832058 1872.014282,32.831615 1900.162476,32.831059 
	C1901.970093,32.831024 1903.777710,32.831051 1905.908447,32.831051 
	C1905.453369,35.201523 1905.084717,37.121311 1904.432617,39.344582 
z"/>
<path fill="#1F3B7B" opacity="1.000000" stroke="none" 
	d="
M420.421875,33.836487 
	C372.659210,34.044342 325.223145,34.072449 277.787750,33.906937 
	C273.856262,33.893219 272.504303,35.479168 271.995148,38.908947 
	C271.759064,40.499237 271.051880,42.019588 270.255310,43.786819 
	C269.966553,43.338184 269.949371,42.672001 269.999664,42.010941 
	C270.697632,32.832554 270.699890,32.832787 279.858215,32.832733 
	C325.110992,32.832462 370.363800,32.823696 415.616547,32.864544 
	C417.327454,32.866089 419.037933,33.348145 420.421875,33.836487 
z"/>
<path fill="#263B6F" opacity="1.000000" stroke="none" 
	d="
M1715.568237,232.843445 
	C1715.611816,235.798920 1716.875610,237.072235 1720.445557,237.063385 
	C1766.605225,236.948914 1812.765625,237.015656 1858.925171,236.881683 
	C1860.738892,236.876419 1862.548096,235.323044 1864.647827,234.264664 
	C1865.209106,236.551666 1864.698242,238.066971 1861.558716,238.061584 
	C1812.998535,237.978226 1764.438232,237.987946 1715.877930,237.960648 
	C1715.574707,237.960480 1715.271606,237.743317 1714.735962,237.538666 
	C1714.915894,236.127808 1715.102905,234.661270 1715.568237,232.843445 
z"/>
<path fill="#263B6F" opacity="1.000000" stroke="none" 
	d="
M230.090012,235.426498 
	C232.183823,235.653152 234.149445,236.898605 236.118042,236.903320 
	C282.078033,237.013229 328.038452,237.017822 373.998291,236.881897 
	C375.809509,236.876541 377.616119,235.294724 379.731567,234.238708 
	C380.371826,236.909805 379.396729,238.084320 376.203064,238.077835 
	C328.518311,237.980789 280.833252,238.023666 233.148544,237.919617 
	C232.085281,237.917297 231.024933,236.581207 230.090012,235.426498 
z"/>
<path fill="#1F3B7B" opacity="1.000000" stroke="none" 
	d="
M1868.888672,215.570892 
	C1868.347534,213.568512 1867.936768,211.167938 1867.394775,208.000458 
	C1865.613525,208.000458 1863.684692,208.000443 1861.755981,208.000443 
	C1828.842773,208.000504 1795.929443,208.006989 1763.016235,207.983185 
	C1761.210205,207.981888 1759.404541,207.728546 1757.315430,207.288559 
	C1794.134644,206.937515 1831.236816,206.888611 1868.339111,206.858429 
	C1868.973022,206.857910 1869.607056,207.083694 1870.560181,207.264343 
	C1870.029053,209.989670 1869.524048,212.581177 1868.888672,215.570892 
z"/>
<path fill="#1F3B7B" opacity="1.000000" stroke="none" 
	d="
M384.509705,212.403015 
	C384.609131,208.545807 382.345703,207.923218 378.754852,207.935028 
	C345.166443,208.045563 311.577484,208.007156 277.988708,207.980881 
	C276.186554,207.979477 274.384552,207.700668 272.318420,207.229553 
	C309.853027,206.908096 347.651672,206.908096 385.688538,206.908096 
	C385.352081,208.887009 385.077362,210.503036 384.509705,212.403015 
z"/>
<path fill="#243A6D" opacity="1.000000" stroke="none" 
	d="
M1787.488770,63.921925 
	C1788.945923,63.562077 1790.864624,63.028969 1792.783936,63.026028 
	C1825.924561,62.975266 1859.065063,63.007305 1892.205566,62.951832 
	C1894.490112,62.948009 1896.773804,62.397770 1899.464478,62.040077 
	C1898.371948,62.655819 1896.874390,63.919983 1895.373291,63.924416 
	C1859.566040,64.030037 1823.758179,64.000412 1787.488770,63.921925 
z"/>
<path fill="#283E72" opacity="1.000000" stroke="none" 
	d="
M1513.730713,234.313660 
	C1514.451782,237.726761 1517.354492,236.971771 1519.726685,236.973755 
	C1552.107544,237.001022 1584.488525,236.987656 1616.869385,237.003754 
	C1618.684570,237.004669 1620.499878,237.174896 1622.646729,237.510406 
	C1612.656128,237.843369 1602.333984,237.994370 1592.011475,238.008865 
	C1565.857178,238.045593 1539.703003,238.021057 1513.139404,238.021057 
	C1513.277222,236.754883 1513.392212,235.698273 1513.730713,234.313660 
z"/>
<path fill="#243A6D" opacity="1.000000" stroke="none" 
	d="
M303.474976,63.924690 
	C304.930939,63.563843 306.849823,63.028919 308.769531,63.025986 
	C341.932800,62.975300 375.096161,63.000801 408.259491,62.963661 
	C410.222351,62.961464 412.184753,62.570946 414.522430,62.192535 
	C413.400574,62.686470 411.905334,63.923000 410.406494,63.927391 
	C374.917328,64.031319 339.427795,64.002640 303.474976,63.924690 
z"/>
<path fill="#1F3B7B" opacity="1.000000" stroke="none" 
	d="
M1652.512695,33.133587 
	C1651.202637,33.495857 1649.437622,33.964653 1647.671753,33.967514 
	C1619.231079,34.013580 1590.790527,34.000374 1562.349854,34.000618 
	C1560.542114,34.000633 1558.734497,34.000618 1557.062500,34.000618 
	C1556.171387,36.115738 1555.432007,37.870331 1554.361084,39.805244 
	C1554.387939,37.724667 1554.746338,35.463776 1555.133057,33.023335 
	C1587.610962,33.023335 1619.833984,33.023335 1652.512695,33.133587 
z"/>
<path fill="#203A76" opacity="1.000000" stroke="none" 
	d="
M1769.487061,146.955627 
	C1770.926880,146.609833 1772.831787,146.043213 1774.737671,146.039734 
	C1805.189575,145.984146 1835.641479,146.021973 1866.093384,145.959839 
	C1868.544434,145.954834 1870.994263,145.375137 1873.887451,145.021103 
	C1872.791870,145.654236 1871.255493,146.912308 1869.714966,146.917419 
	C1836.461060,147.028168 1803.206787,146.998978 1769.487061,146.955627 
z"/>
<path fill="#203A76" opacity="1.000000" stroke="none" 
	d="
M283.526428,147.407257 
	C285.005096,147.060440 286.919281,146.075333 288.836487,146.069473 
	C321.953156,145.968323 355.070251,145.987762 388.666992,145.977844 
	C387.491180,146.317856 385.836151,146.956818 384.179932,146.959961 
	C352.762695,147.019501 321.345337,147.000031 289.927979,147.013580 
	C287.939728,147.014450 285.951538,147.151154 283.526428,147.407257 
z"/>
<path fill="#1F3B7B" opacity="1.000000" stroke="none" 
	d="
M550.517761,33.119370 
	C549.050659,33.478497 547.125305,33.963474 545.199158,33.966682 
	C516.127319,34.015110 487.055115,34.057549 457.983887,33.916534 
	C454.887787,33.901516 452.956696,34.597454 451.747864,37.753502 
	C451.632324,36.414162 451.903656,34.946526 452.259644,33.021133 
	C484.842407,33.021133 517.450806,33.021133 550.517761,33.119370 
z"/>
<path fill="#1F3B7B" opacity="1.000000" stroke="none" 
	d="
M1372.511230,33.135193 
	C1371.203735,33.496975 1369.441040,33.965027 1367.677734,33.967682 
	C1336.787720,34.014191 1305.897583,34.003773 1274.544312,34.001915 
	C1275.349976,33.608604 1276.618896,32.879265 1277.887817,32.879330 
	C1309.277222,32.880959 1340.666504,32.959785 1372.511230,33.135193 
z"/>
<path fill="#2D4277" opacity="1.000000" stroke="none" 
	d="
M173.852570,226.391937 
	C174.544464,227.988464 175.699814,229.953918 175.721497,231.931778 
	C175.768570,236.226089 177.860916,237.143341 181.698273,237.061066 
	C191.114563,236.859161 200.538101,236.995056 210.326065,236.995056 
	C210.326065,234.728134 210.326065,233.139740 210.551178,231.294281 
	C211.214905,233.128433 211.653534,235.219650 212.172791,237.695282 
	C199.884323,237.695282 187.918518,237.695282 175.402847,237.695282 
	C174.885071,234.160538 174.343521,230.463501 173.852570,226.391937 
z"/>
<path fill="#2D4277" opacity="1.000000" stroke="none" 
	d="
M1176.757812,231.402359 
	C1177.800293,237.201111 1182.145630,237.289536 1187.194214,237.083023 
	C1195.236328,236.754059 1203.301636,236.995117 1211.582275,236.995117 
	C1211.853638,234.517014 1212.064453,232.592377 1212.508179,230.354233 
	C1213.219482,232.472244 1213.697998,234.903763 1214.249878,237.708466 
	C1201.909790,237.708466 1189.888184,237.708466 1177.441040,237.708466 
	C1177.198730,235.725952 1176.961670,233.787125 1176.757812,231.402359 
z"/>
<path fill="#283E72" opacity="1.000000" stroke="none" 
	d="
M411.457092,231.031097 
	C411.380524,235.523315 414.094391,237.021851 418.344055,237.000183 
	C425.961487,236.961349 433.584564,236.823853 441.194336,237.068481 
	C444.269775,237.167343 445.746490,235.827942 447.041504,233.076111 
	C447.177643,234.336868 446.972961,235.806656 446.717407,237.641769 
	C434.524414,237.641769 422.383636,237.641769 409.975952,237.641769 
	C410.391449,235.500290 410.796997,233.410080 411.457092,231.031097 
z"/>
<path fill="#283E72" opacity="1.000000" stroke="none" 
	d="
M1363.875366,230.454727 
	C1364.571411,231.336990 1365.010010,232.810379 1365.918335,233.887772 
	C1366.944214,235.104446 1368.369263,236.810196 1369.660278,236.845200 
	C1378.937134,237.096939 1388.224731,237.036102 1397.506470,236.901474 
	C1398.631104,236.885162 1399.740601,235.836395 1401.045532,234.870941 
	C1401.789795,235.426285 1402.345703,236.376846 1403.151733,237.755066 
	C1390.388306,237.755066 1378.157715,237.755066 1365.315430,237.755066 
	C1364.846436,235.588470 1364.335938,233.229752 1363.875366,230.454727 
z"/>
<path fill="#263B6F" opacity="1.000000" stroke="none" 
	d="
M1020.794983,233.429504 
	C1020.759155,236.923889 1023.233337,237.011871 1025.900024,237.003326 
	C1035.946533,236.971085 1045.993042,236.987732 1056.506714,236.984894 
	C1056.166870,237.324753 1055.361450,237.958542 1054.552612,237.962860 
	C1042.651245,238.026703 1030.749268,238.006805 1018.094482,238.006805 
	C1019.060120,236.285583 1019.801331,234.964386 1020.794983,233.429504 
z"/>
<path fill="#2D4277" opacity="1.000000" stroke="none" 
	d="
M1232.429199,234.696838 
	C1234.421997,235.221390 1236.138550,236.814896 1237.906006,236.873581 
	C1246.127563,237.146545 1254.371338,236.779037 1262.590088,237.091324 
	C1266.351196,237.234222 1267.988159,235.705170 1268.937012,232.141205 
	C1268.966675,233.836212 1268.672974,235.755890 1268.326050,238.024078 
	C1256.627197,238.024078 1245.262573,238.068298 1233.901245,237.897842 
	C1233.312256,237.889008 1232.750732,236.047195 1232.429199,234.696838 
z"/>
<path fill="#2D4277" opacity="1.000000" stroke="none" 
	d="
M1202.187622,169.605927 
	C1200.424438,162.014755 1198.657959,154.062622 1197.048218,146.078918 
	C1196.530518,143.511078 1196.426025,140.859894 1196.226074,137.780426 
	C1198.294800,147.953552 1200.270020,158.593140 1202.187622,169.605927 
z"/>
<path fill="#283E72" opacity="1.000000" stroke="none" 
	d="
M543.055237,235.434311 
	C544.226379,235.658081 545.378601,236.861664 546.522034,236.853302 
	C557.468262,236.773178 568.412964,236.488235 579.754639,236.098969 
	C579.918762,236.626099 579.691467,237.918076 579.453125,237.920120 
	C568.035645,238.018829 556.616821,238.045517 545.200012,237.913437 
	C544.469543,237.904984 543.754456,236.569824 543.055237,235.434311 
z"/>
<path fill="#263B6F" opacity="1.000000" stroke="none" 
	d="
M1435.101807,233.402313 
	C1436.147095,236.155975 1438.106567,237.171982 1441.443481,237.079376 
	C1450.648560,236.823914 1459.865356,236.989182 1469.547119,236.998199 
	C1469.696045,237.316711 1469.376343,237.893402 1469.054321,237.894684 
	C1457.501221,237.941010 1445.947876,237.933533 1434.132080,237.933533 
	C1434.456665,236.330261 1434.715088,235.053711 1435.101807,233.402313 
z"/>
<path fill="#1F3B7B" opacity="1.000000" stroke="none" 
	d="
M1753.184326,50.435944 
	C1752.827393,54.989094 1752.609131,59.972935 1751.770264,64.850037 
	C1751.086670,68.824394 1749.660278,72.671005 1748.264160,76.787270 
	C1749.661621,68.273674 1751.358032,59.547077 1753.184326,50.435944 
z"/>
<path fill="#263B6F" opacity="1.000000" stroke="none" 
	d="
M17.363766,235.560120 
	C19.414227,235.861359 21.185345,236.888580 22.971315,236.915085 
	C33.288628,237.068207 43.609440,236.985062 54.388065,236.975098 
	C53.859509,237.317169 52.873917,237.962906 51.884090,237.969452 
	C41.060390,238.041199 30.235655,238.051880 19.412468,237.947540 
	C18.412693,237.937912 15.264514,239.310745 17.363766,235.560120 
z"/>
<path fill="#2D4277" opacity="1.000000" stroke="none" 
	d="
M1171.999512,200.463806 
	C1173.271606,207.148743 1174.487427,214.259857 1175.467285,221.667862 
	C1174.135254,214.939835 1173.039185,207.914917 1171.999512,200.463806 
z"/>
<path fill="#2D4277" opacity="1.000000" stroke="none" 
	d="
M1212.062988,226.549896 
	C1210.722290,220.401840 1209.423340,213.825790 1208.212891,206.777130 
	C1209.569092,212.910339 1210.836914,219.516113 1212.062988,226.549896 
z"/>
<path fill="#1F3B7B" opacity="1.000000" stroke="none" 
	d="
M1900.531494,58.410362 
	C1901.294067,52.947594 1902.354126,47.198837 1903.713379,41.229362 
	C1902.951416,46.713886 1901.890137,52.419132 1900.531494,58.410362 
z"/>
<path fill="#283E72" opacity="1.000000" stroke="none" 
	d="
M1626.380127,237.709076 
	C1628.878662,237.125458 1631.788086,236.608322 1635.182129,236.149475 
	C1632.708252,236.730392 1629.749634,237.252975 1626.380127,237.709076 
z"/>
<path fill="#2D4277" opacity="1.000000" stroke="none" 
	d="
M171.710785,212.544678 
	C172.384201,215.527542 173.049713,218.940552 173.484344,222.655273 
	C172.736618,219.629623 172.219742,216.302216 171.710785,212.544678 
z"/>
<path fill="#2D4277" opacity="1.000000" stroke="none" 
	d="
M167.720932,186.421509 
	C168.459412,189.566147 169.172501,193.150787 169.808884,197.213837 
	C169.053299,194.082001 168.374435,190.471756 167.720932,186.421509 
z"/>
<path fill="#1F3B7B" opacity="1.000000" stroke="none" 
	d="
M1745.537598,88.066711 
	C1745.399170,90.735176 1744.997925,93.687820 1744.235840,96.799698 
	C1744.341553,94.089577 1744.807983,91.220222 1745.537598,88.066711 
z"/>
<path fill="#2D4277" opacity="1.000000" stroke="none" 
	d="
M169.716339,199.423889 
	C170.402863,202.446274 171.058182,205.907349 171.484894,209.665497 
	C170.732559,206.595901 170.208862,203.229248 169.716339,199.423889 
z"/>
<path fill="#2D4277" opacity="1.000000" stroke="none" 
	d="
M208.197250,216.611084 
	C207.534775,214.173676 206.929749,211.373932 206.555786,208.300415 
	C207.276123,210.767334 207.765411,213.508057 208.197250,216.611084 
z"/>
<path fill="#1F3B7B" opacity="1.000000" stroke="none" 
	d="
M1747.526855,78.627457 
	C1747.345703,81.403648 1746.872437,84.476982 1746.043091,87.721970 
	C1746.203003,84.903954 1746.718872,81.914276 1747.526855,78.627457 
z"/>
<path fill="#2D4277" opacity="1.000000" stroke="none" 
	d="
M1204.309570,181.586349 
	C1203.619873,178.894287 1202.945435,175.769852 1202.493408,172.349442 
	C1203.252197,175.086975 1203.788574,178.120468 1204.309570,181.586349 
z"/>
<path fill="#263B6F" opacity="1.000000" stroke="none" 
	d="
M1470.208740,236.706116 
	C1470.429199,234.156845 1470.845703,231.286301 1471.595581,228.232239 
	C1471.421021,230.827423 1470.912964,233.606140 1470.208740,236.706116 
z"/>
<path fill="#2D4277" opacity="1.000000" stroke="none" 
	d="
M1207.192383,198.522324 
	C1206.518433,195.845581 1205.878784,192.743210 1205.450195,189.343445 
	C1206.183105,192.062943 1206.704956,195.079803 1207.192383,198.522324 
z"/>
<path fill="#2D4277" opacity="1.000000" stroke="none" 
	d="
M1175.847900,225.382828 
	C1176.248291,226.631500 1176.589478,228.227234 1176.888428,230.225800 
	C1176.493530,228.995728 1176.141113,227.362808 1175.847900,225.382828 
z"/>
<path fill="#2D4277" opacity="1.000000" stroke="none" 
	d="
M210.293320,228.471588 
	C209.870575,227.340271 209.465210,225.801788 209.102249,223.815140 
	C209.533340,224.932785 209.922012,226.498596 210.293320,228.471588 
z"/>
<path fill="#283E72" opacity="1.000000" stroke="none" 
	d="
M413.585083,220.805344 
	C413.654114,222.213821 413.455505,223.951859 412.878052,225.929474 
	C412.771973,224.491013 413.044708,222.812958 413.585083,220.805344 
z"/>
<path fill="#283E72" opacity="1.000000" stroke="none" 
	d="
M412.463928,226.588470 
	C412.620758,227.700226 412.488098,229.093475 411.966644,230.663071 
	C411.776703,229.516281 411.975586,228.193115 412.463928,226.588470 
z"/>
<path fill="#1F3B7B" opacity="1.000000" stroke="none" 
	d="
M418.858673,43.591507 
	C418.696381,42.762844 418.664520,41.559490 418.931610,40.210655 
	C419.150085,41.115726 419.069611,42.166271 418.858673,43.591507 
z"/>
<path fill="#2D4277" opacity="1.000000" stroke="none" 
	d="
M206.313766,205.487778 
	C205.987656,204.760574 205.659149,203.642273 205.554413,202.269989 
	C205.955887,203.042892 206.133636,204.069778 206.313766,205.487778 
z"/>
<path fill="#283E72" opacity="1.000000" stroke="none" 
	d="
M1516.557373,220.638855 
	C1516.713867,221.716888 1516.592285,223.092072 1516.127686,224.693634 
	C1515.949585,223.591995 1516.114502,222.264008 1516.557373,220.638855 
z"/>
<path fill="#263B6F" opacity="1.000000" stroke="none" 
	d="
M1865.380859,232.255508 
	C1865.237549,231.217285 1865.357300,229.877197 1865.796143,228.298065 
	C1865.958130,229.357239 1865.801025,230.655441 1865.380859,232.255508 
z"/>
<path fill="#2D4277" opacity="1.000000" stroke="none" 
	d="
M1208.270752,204.601059 
	C1207.938599,203.845490 1207.629272,202.687759 1207.541992,201.275986 
	C1207.940796,202.080917 1208.117310,203.139923 1208.270752,204.601059 
z"/>
<path fill="#2D4277" opacity="1.000000" stroke="none" 
	d="
M1233.527588,229.661118 
	C1233.651245,230.766495 1233.501709,232.190857 1232.993652,233.865417 
	C1232.841553,232.737106 1233.047974,231.358612 1233.527588,229.661118 
z"/>
<path fill="#2D4277" opacity="1.000000" stroke="none" 
	d="
M205.268692,199.530060 
	C204.937881,198.797699 204.627106,197.672073 204.533173,196.294586 
	C204.929596,197.074081 205.109161,198.105438 205.268692,199.530060 
z"/>
<path fill="#2D4277" opacity="1.000000" stroke="none" 
	d="
M209.248383,222.644867 
	C208.915756,221.884811 208.612411,220.718506 208.524689,219.297150 
	C208.919418,220.107590 209.098541,221.173126 209.248383,222.644867 
z"/>
<path fill="#1F3B7B" opacity="1.000000" stroke="none" 
	d="
M419.417023,39.964951 
	C419.241760,39.274349 419.337738,38.365921 419.702576,37.238144 
	C419.877075,37.928234 419.782654,38.837677 419.417023,39.964951 
z"/>
<path fill="#203A76" opacity="1.000000" stroke="none" 
	d="
M389.532257,144.417023 
	C389.349274,143.605408 389.461731,142.512863 389.909973,141.167191 
	C390.106445,141.988083 389.967072,143.062088 389.532257,144.417023 
z"/>
<path fill="#283E72" opacity="1.000000" stroke="none" 
	d="
M1517.448242,216.580109 
	C1517.634766,217.376511 1517.540527,218.460953 1517.116699,219.797119 
	C1516.913818,218.988586 1517.040649,217.928375 1517.448242,216.580109 
z"/>
<path fill="#2D4277" opacity="1.000000" stroke="none" 
	d="
M1205.121826,186.581390 
	C1204.771362,186.015350 1204.456665,185.059891 1204.234497,183.699127 
	C1204.603760,184.259872 1204.880615,185.225922 1205.121826,186.581390 
z"/>
<path fill="#283E72" opacity="1.000000" stroke="none" 
	d="
M447.485718,232.407104 
	C447.284760,231.638580 447.361572,230.593842 447.741028,229.296997 
	C447.950317,230.073563 447.856903,231.102249 447.485718,232.407104 
z"/>
<path fill="#2D4277" opacity="1.000000" stroke="none" 
	d="
M1269.461426,231.382812 
	C1269.278198,230.624832 1269.363892,229.584778 1269.752686,228.295105 
	C1269.947266,229.063919 1269.838867,230.082352 1269.461426,231.382812 
z"/>
<path fill="#283E72" opacity="1.000000" stroke="none" 
	d="
M1514.500854,230.548615 
	C1514.713745,231.014038 1514.663452,231.733490 1514.352539,232.708191 
	C1514.140381,232.243149 1514.188965,231.522888 1514.500854,230.548615 
z"/>
<path fill="#243A6D" opacity="1.000000" stroke="none" 
	d="
M415.487885,59.455341 
	C415.277222,58.983788 415.335632,58.264935 415.660828,57.298313 
	C415.870697,57.769711 415.813812,58.488876 415.487885,59.455341 
z"/>
<path fill="#283E72" opacity="1.000000" stroke="none" 
	d="
M1515.109375,227.346329 
	C1515.283447,227.605087 1515.343994,228.180084 1515.176270,228.875885 
	C1514.964111,228.551956 1514.980103,228.107269 1515.109375,227.346329 
z"/>
<path fill="#2D4277" opacity="1.000000" stroke="none" 
	d="
M204.193115,193.529724 
	C204.094330,193.612091 204.011520,193.238617 204.016663,193.143494 
	C204.216766,193.110626 204.306793,193.243622 204.193115,193.529724 
z"/>
<path fill="#263B6F" opacity="1.000000" stroke="none" 
	d="
M1057.404297,236.370117 
	C1057.271606,236.150909 1057.404785,235.761887 1057.798218,235.199158 
	C1057.929077,235.417084 1057.799683,235.808685 1057.404297,236.370117 
z"/>
<path fill="#2D4277" opacity="1.000000" stroke="none" 
	d="
M1212.241699,227.590515 
	C1212.144531,227.708145 1212.014526,227.232346 1212.019043,227.108551 
	C1212.238159,227.077011 1212.343140,227.239731 1212.241699,227.590515 
z"/>
<path fill="#FEFEFF" opacity="1.000000" stroke="none" 
	d="
M1654.322632,191.179230 
	C1647.067871,202.479187 1635.965698,207.008575 1623.944580,207.460281 
	C1601.197388,208.315048 1578.395386,207.707428 1555.147949,207.707428 
	C1559.489502,187.022903 1563.870972,166.148178 1568.340332,144.854614 
	C1578.990112,144.854614 1589.457153,144.766357 1599.921875,144.878662 
	C1611.071533,144.998291 1622.399048,144.121368 1633.330811,145.778534 
	C1656.843384,149.342834 1665.714233,167.966248 1655.163330,189.519958 
	C1654.944214,189.967743 1654.739380,190.422607 1654.322632,191.179230 
z"/>
<path fill="#FDFEFE" opacity="1.000000" stroke="none" 
	d="
M1642.886963,62.413811 
	C1643.352661,62.571972 1643.807251,62.811558 1644.285522,62.876308 
	C1654.833252,64.304306 1664.088867,68.045723 1666.589355,79.564903 
	C1669.196533,91.576271 1666.356934,102.445076 1656.285645,110.458847 
	C1649.080200,116.192169 1640.453613,118.216408 1631.517212,118.337418 
	C1613.029541,118.587746 1594.536255,118.420364 1576.045288,118.401695 
	C1575.425781,118.401070 1574.806641,118.151115 1573.749146,117.922806 
	C1577.552246,99.542923 1581.315063,81.357140 1585.565918,62.714767 
	C1604.998169,62.310062 1623.942627,62.361938 1642.886963,62.413811 
z"/>
<path fill="#203A76" opacity="1.000000" stroke="none" 
	d="
M1642.692139,62.034309 
	C1623.942627,62.361938 1604.998169,62.310062 1585.602051,62.326881 
	C1586.100464,61.929626 1587.048950,61.061325 1588.000977,61.057362 
	C1605.556396,60.984299 1623.112427,61.008209 1640.668091,61.049568 
	C1641.278442,61.051003 1641.887573,61.444199 1642.692139,62.034309 
z"/>
<path fill="#FDFEFE" opacity="1.000000" stroke="none" 
	d="
M1292.029663,125.991058 
	C1294.475952,113.279137 1296.884766,100.559853 1299.382812,87.858109 
	C1300.857300,80.360924 1302.350952,72.862160 1304.140869,65.437592 
	C1304.448853,64.159958 1306.286255,62.310997 1307.416138,62.311729 
	C1326.057495,62.323856 1344.725098,62.051292 1363.332031,62.961262 
	C1379.703247,63.761898 1387.977295,70.348900 1390.548584,82.375839 
	C1393.712524,97.174606 1387.158936,112.864510 1373.980835,119.249130 
	C1367.383789,122.445389 1359.817627,123.641678 1351.859741,125.813713 
	C1331.363037,125.920319 1311.696289,125.955688 1292.029663,125.991058 
z"/>
<path fill="#243A6D" opacity="1.000000" stroke="none" 
	d="
M1292.315674,126.292404 
	C1311.696289,125.955688 1331.363037,125.920319 1351.487305,125.959167 
	C1350.887207,126.356911 1349.830444,126.959152 1348.771729,126.962448 
	C1330.689209,127.018723 1312.606689,127.005051 1294.524048,126.982300 
	C1293.883179,126.981499 1293.242432,126.728966 1292.315674,126.292404 
z"/>
<path fill="#FDFEFE" opacity="1.000000" stroke="none" 
	d="
M538.938843,62.176277 
	C541.387451,62.526554 543.850220,62.798695 546.282410,63.239414 
	C566.590942,66.919380 571.971313,79.759773 568.375061,97.736008 
	C565.368286,112.765289 553.338501,122.403099 536.043823,124.955307 
	C534.899475,125.124191 533.754639,125.289749 531.808105,125.602104 
	C511.009247,125.881935 491.012360,126.016510 471.015442,126.151093 
	C471.011658,124.175613 470.676483,122.133987 471.055603,120.234940 
	C474.694519,102.006973 478.444855,83.801186 482.200928,65.596817 
	C482.432343,64.475349 482.981476,63.419437 484.169128,62.234112 
	C502.949951,62.148891 520.944397,62.162582 538.938843,62.176277 
z"/>
<path fill="#243A6D" opacity="1.000000" stroke="none" 
	d="
M471.330994,126.418915 
	C491.012360,126.016510 511.009247,125.881935 531.468384,125.785065 
	C531.247498,126.207153 530.563721,126.928154 529.881226,126.926903 
	C510.469604,126.891357 491.058075,126.783127 471.330994,126.418915 
z"/>
<path fill="#203A76" opacity="1.000000" stroke="none" 
	d="
M538.690430,61.838425 
	C520.944397,62.162582 502.949951,62.148891 484.499237,62.042591 
	C485.105957,61.631596 486.168060,61.039246 487.232056,61.035847 
	C503.670197,60.983231 520.108582,61.001701 536.546814,61.033802 
	C537.178894,61.035034 537.810303,61.338135 538.690430,61.838425 
z"/>
<path fill="#FEFEFF" opacity="1.000000" stroke="none" 
	d="
M776.935974,158.847610 
	C771.899353,173.390839 764.848328,186.194946 753.891418,196.740112 
	C731.309448,218.473572 692.005798,219.051636 671.554688,197.659683 
	C661.250305,186.881332 657.146362,173.382797 656.434631,158.983871 
	C655.084412,131.669388 660.524414,105.915871 677.263367,83.626740 
	C692.849426,62.872932 714.076477,54.779015 739.602722,58.240448 
	C762.655823,61.366524 778.557983,78.336723 782.020813,102.798889 
	C784.702881,121.745438 782.859680,140.281860 776.935974,158.847610 
z"/>
<path fill="#FCFDFE" opacity="1.000000" stroke="none" 
	d="
M157.826950,117.290993 
	C159.649139,130.355606 161.426544,142.979706 163.246475,155.905914 
	C142.662521,155.905914 122.567276,155.905914 101.580208,155.905914 
	C117.856239,127.056549 133.923309,98.577568 150.678787,68.878403 
	C153.187073,85.817947 155.484619,101.334213 157.826950,117.290993 
z"/>
<path fill="#FCFDFE" opacity="1.000000" stroke="none" 
	d="
M1158.273926,106.685150 
	C1160.695679,123.225319 1163.039795,139.330154 1165.438965,155.813751 
	C1144.861572,155.813751 1124.663696,155.813751 1103.759399,155.813751 
	C1119.949219,127.118881 1135.976807,98.711311 1152.004517,70.303741 
	C1152.359985,70.304970 1152.715454,70.306206 1153.070801,70.307434 
	C1154.779297,82.288231 1156.487671,94.269035 1158.273926,106.685150 
z"/>
</svg>