<svg version="1.1" id="Layer_1" xmlns="http://www.w3.org/2000/svg" xmlns:xlink="http://www.w3.org/1999/xlink" x="0px" y="0px"
	 width="100%" viewBox="0 0 1458 630" enable-background="new 0 0 1458 630" xml:space="preserve">
<path fill="#FFFFFF" opacity="1.000000" stroke="none" 
	d="
M1459.000000,313.000000 
	C1459.000000,418.972260 1459.000000,524.944519 1459.000000,631.000000 
	C1031.306519,631.000000 603.612915,631.000000 175.599670,630.612549 
	C188.898865,629.195068 199.865631,622.395996 207.323288,611.802734 
	C219.721207,594.192017 230.434494,575.405823 242.286011,557.396851 
	C254.786804,538.401245 267.495483,519.526978 280.667419,500.993469 
	C290.997986,486.457825 302.119019,472.480927 312.989594,458.333160 
	C322.088623,446.490967 331.122833,434.588593 340.572357,423.028961 
	C350.201385,411.249725 360.175049,399.744263 370.227753,388.321259 
	C384.123993,372.530792 397.921295,356.633453 412.346039,341.333496 
	C425.943115,326.911407 440.236481,313.141541 454.341003,299.203674 
	C464.014099,289.644836 473.686676,280.068970 483.720062,270.895050 
	C498.629150,257.263092 513.825745,243.944321 528.962830,230.563354 
	C536.325623,224.054733 543.754883,217.616531 551.289490,211.308121 
	C562.542358,201.886459 573.972107,192.675919 585.220337,183.248764 
	C596.501465,173.794006 607.757385,164.303864 618.834717,154.612534 
	C633.915039,141.419144 649.032776,128.253647 663.698120,114.607239 
	C670.660828,108.128242 676.783691,100.709320 682.988464,93.460655 
	C696.646057,77.505257 708.418335,60.506859 711.549438,38.995899 
	C713.469727,25.803345 710.760071,11.988027 696.438232,5.180650 
	C692.787842,3.445555 688.821289,2.375580 685.000000,1.000007 
	C942.897827,1.000000 1200.795654,1.000000 1459.000000,1.000000 
	C1459.000000,95.693314 1459.000000,190.386948 1458.615112,285.404724 
	C1456.677856,280.175873 1455.713623,274.371887 1453.470337,269.113617 
	C1444.061401,247.059586 1425.700195,234.808029 1404.556641,226.075790 
	C1390.362915,220.213867 1375.572876,216.336151 1360.191528,214.962296 
	C1346.183716,213.711151 1332.203979,212.098618 1318.178833,211.115524 
	C1312.809448,210.739166 1307.352783,211.764816 1301.929077,211.982025 
	C1284.093506,212.696350 1266.226074,212.913605 1248.425659,214.125702 
	C1232.811768,215.188904 1217.229370,217.021774 1201.715210,219.121857 
	C1192.706299,220.341354 1184.720215,223.888138 1180.415894,232.989258 
	C1177.323730,239.527191 1173.645508,245.785355 1170.343872,252.227325 
	C1160.873413,270.705139 1151.432617,289.198303 1142.033325,307.712433 
	C1128.700073,333.975189 1115.417603,360.263641 1102.107300,386.538086 
	C1092.218384,406.059021 1082.271973,425.551025 1072.437500,445.099304 
	C1059.992065,469.837219 1047.495239,494.550934 1035.301025,519.412720 
	C1029.774780,530.679871 1032.231323,543.776245 1049.544189,543.191345 
	C1072.516968,542.415161 1095.537598,542.826416 1118.534058,543.067261 
	C1131.645386,543.204529 1140.314209,537.413818 1146.107788,525.753296 
	C1160.074219,497.643829 1174.502075,469.763977 1188.671021,441.754700 
	C1202.836304,413.752350 1216.937500,385.717438 1231.021484,357.674072 
	C1243.449463,332.928131 1255.816040,308.151337 1268.206299,283.386353 
	C1269.496948,280.806610 1270.890747,278.904236 1274.422119,278.897552 
	C1282.816650,278.881683 1291.248657,277.688385 1299.593262,278.185181 
	C1307.603271,278.662048 1315.820312,279.745087 1323.417725,282.198608 
	C1338.049438,286.923798 1349.141479,300.585968 1347.921509,315.389679 
	C1346.778564,329.258759 1339.351318,339.402618 1327.923706,347.046356 
	C1310.719727,358.553894 1291.098511,361.314514 1271.213989,362.893463 
	C1263.098877,363.537872 1254.879883,363.257874 1246.725586,362.946594 
	C1229.482544,362.288391 1223.719971,376.505615 1226.397827,389.584778 
	C1230.073242,407.537537 1234.688354,425.300354 1239.018066,443.116119 
	C1243.611450,462.016968 1248.097900,480.949432 1253.102417,499.742554 
	C1256.178467,511.294067 1260.603271,522.419006 1268.943481,531.386536 
	C1280.354980,543.656433 1295.097290,548.779541 1311.308350,548.797363 
	C1323.894409,548.811218 1336.468506,546.734863 1349.073364,546.071594 
	C1362.812988,545.348572 1373.557861,540.287048 1379.374512,527.150269 
	C1383.846191,517.050842 1388.563354,507.041779 1392.542603,496.749390 
	C1394.930664,490.573059 1390.897217,483.287811 1385.091553,482.130310 
	C1381.421143,481.398529 1377.614014,481.349884 1373.867554,481.000671 
	C1364.139160,480.093781 1355.444702,476.928833 1351.722168,467.107117 
	C1345.273315,450.092133 1339.496704,432.822357 1333.813965,416.724152 
	C1352.106567,410.111328 1369.955200,404.674530 1386.934082,397.249268 
	C1405.731812,389.028717 1422.596924,377.530365 1436.086304,361.546722 
	C1443.267212,353.037933 1448.942261,343.722412 1452.897705,333.436646 
	C1455.441895,326.820618 1456.999878,319.825317 1459.000000,313.000000 
M571.000061,334.500031 
	C551.724609,354.775543 532.407654,375.011749 513.195923,395.347473 
	C506.298370,402.648529 499.386505,409.965363 492.950867,417.667450 
	C479.472656,433.797974 465.982849,449.938049 453.099823,466.541321 
	C439.305359,484.319427 426.144836,502.591919 412.837891,520.744080 
	C409.326233,525.534363 408.726257,530.720764 411.683502,536.280273 
	C414.560242,541.688416 419.282806,543.031128 424.721100,542.976379 
	C452.805328,542.693848 480.888458,542.169861 508.972717,542.113159 
	C516.130554,542.098694 521.547363,539.013428 525.380188,533.906067 
	C535.460327,520.473877 545.076782,506.682098 554.505981,492.781281 
	C556.842468,489.336761 559.340332,487.962189 563.281128,487.966492 
	C610.777405,488.018372 658.273682,488.000061 705.770020,488.000061 
	C707.063782,488.000061 708.357544,488.000031 710.146790,488.000031 
	C709.738647,492.631195 709.462097,496.832458 708.979248,501.009888 
	C708.156860,508.125153 707.689087,515.329041 706.196716,522.308411 
	C703.800232,533.516357 710.878357,542.981079 722.369690,542.992981 
	C745.367920,543.016785 768.379639,543.472107 791.358948,542.812500 
	C803.961060,542.450867 811.772156,537.984131 812.089783,522.153931 
	C812.250549,514.142700 813.316467,506.147369 814.032532,498.150208 
	C815.331543,483.641876 816.764160,469.144897 817.969299,454.628937 
	C818.798523,444.639801 819.246460,434.619476 820.028259,424.625854 
	C821.280945,408.614685 822.688660,392.615692 823.988464,376.608124 
	C824.400879,371.529175 824.549072,366.426697 825.042847,361.356842 
	C826.294006,348.510895 827.775818,335.686951 828.970093,322.836060 
	C830.107788,310.594482 831.148560,298.339905 831.961853,286.073151 
	C833.105286,268.827698 833.999451,251.565689 835.000000,234.310745 
	C835.722229,221.854630 828.556274,217.172791 817.703003,217.090881 
	C784.540771,216.840561 751.373535,216.819794 718.213318,217.179474 
	C712.765808,217.238556 706.849670,218.722458 702.030029,221.235382 
	C695.356079,224.715134 689.270386,229.489441 683.367676,234.248734 
	C669.521118,245.413147 655.747498,256.683350 642.288879,268.309540 
	C626.748474,281.734070 611.424133,295.419403 596.306824,309.318665 
	C587.726746,317.207397 579.748962,325.751190 571.000061,334.500031 
M856.923340,543.000000 
	C882.250610,543.000000 907.579163,543.150513 932.904419,542.927185 
	C943.272888,542.835754 951.613708,538.803162 956.618469,528.943604 
	C964.845459,512.736450 973.537048,496.765106 981.776978,480.564270 
	C996.292358,452.025055 1010.647339,423.404022 1025.010620,394.787689 
	C1044.218750,356.519012 1063.440430,318.256714 1082.512207,279.920013 
	C1089.882812,265.104004 1097.256226,250.265427 1103.881226,235.110443 
	C1108.613770,224.284241 1100.721802,217.107193 1091.174805,217.050003 
	C1066.348267,216.901291 1041.514404,216.718811 1016.697693,217.230896 
	C1011.571167,217.336685 1006.130859,219.711884 1001.498047,222.250732 
	C994.183655,226.259109 991.605164,234.330322 988.072083,241.239105 
	C967.626648,281.219116 947.445312,321.334198 927.200073,361.416443 
	C913.345398,388.846588 899.529480,416.296295 885.701904,443.740143 
	C877.877563,459.269135 869.992371,474.768005 862.270630,490.347900 
	C856.717529,501.552429 851.143250,512.758667 846.050049,524.174561 
	C842.801697,531.455566 845.483276,540.904541 856.923340,543.000000 
z"/>
<path fill="#FFFFFF" opacity="1.000000" stroke="none" 
	d="
M1.000000,600.000000 
	C1.000000,400.447205 1.000000,200.894409 1.000000,1.000000 
	C53.688820,1.000000 106.378372,1.000000 159.394012,1.387495 
	C147.285873,2.859198 137.365738,8.514117 130.653534,18.956394 
	C124.664398,28.273788 119.098839,37.892117 113.838142,47.642971 
	C103.696999,66.439903 93.852066,85.397614 83.990494,104.343925 
	C80.116905,111.785965 79.701691,120.082672 81.561310,127.797775 
	C84.476479,139.892151 93.954628,144.902069 107.673073,144.922867 
	C204.976425,145.070404 302.280090,145.001389 399.583679,145.001389 
	C401.280640,145.001389 402.977631,145.001389 405.572449,145.001389 
	C400.672729,149.084869 396.723541,152.467972 392.677917,155.731522 
	C377.479218,167.992111 362.054657,179.981567 347.087738,192.517944 
	C333.262146,204.098328 319.774353,216.094315 306.394745,228.191452 
	C292.196411,241.028824 277.995697,253.890549 264.348938,267.304199 
	C246.811737,284.541809 229.804565,302.319489 212.619720,319.913971 
	C209.287445,323.325684 206.200516,326.976196 202.978577,330.496582 
	C188.405670,346.419434 173.729767,362.249390 159.282516,378.285400 
	C150.514114,388.018036 141.873550,397.884033 133.575363,408.017517 
	C123.488602,420.335175 113.670021,432.880951 104.011475,445.538666 
	C90.546143,463.185303 76.983757,480.776001 64.117805,498.856659 
	C51.509472,516.575317 39.335068,534.632935 27.693356,553.000061 
	C18.052982,568.209656 6.937479,582.659546 1.000000,600.000000 
z"/>
<path fill="#000000" opacity="1.000000" stroke="none" 
	d="
M1459.000000,312.531342 
	C1456.999878,319.825317 1455.441895,326.820618 1452.897705,333.436646 
	C1448.942261,343.722412 1443.267212,353.037933 1436.086304,361.546722 
	C1422.596924,377.530365 1405.731812,389.028717 1386.934082,397.249268 
	C1369.955200,404.674530 1352.106567,410.111328 1333.813965,416.724152 
	C1339.496704,432.822357 1345.273315,450.092133 1351.722168,467.107117 
	C1355.444702,476.928833 1364.139160,480.093781 1373.867554,481.000671 
	C1377.614014,481.349884 1381.421143,481.398529 1385.091553,482.130310 
	C1390.897217,483.287811 1394.930664,490.573059 1392.542603,496.749390 
	C1388.563354,507.041779 1383.846191,517.050842 1379.374512,527.150269 
	C1373.557861,540.287048 1362.812988,545.348572 1349.073364,546.071594 
	C1336.468506,546.734863 1323.894409,548.811218 1311.308350,548.797363 
	C1295.097290,548.779541 1280.354980,543.656433 1268.943481,531.386536 
	C1260.603271,522.419006 1256.178467,511.294067 1253.102417,499.742554 
	C1248.097900,480.949432 1243.611450,462.016968 1239.018066,443.116119 
	C1234.688354,425.300354 1230.073242,407.537537 1226.397827,389.584778 
	C1223.719971,376.505615 1229.482544,362.288391 1246.725586,362.946594 
	C1254.879883,363.257874 1263.098877,363.537872 1271.213989,362.893463 
	C1291.098511,361.314514 1310.719727,358.553894 1327.923706,347.046356 
	C1339.351318,339.402618 1346.778564,329.258759 1347.921509,315.389679 
	C1349.141479,300.585968 1338.049438,286.923798 1323.417725,282.198608 
	C1315.820312,279.745087 1307.603271,278.662048 1299.593262,278.185181 
	C1291.248657,277.688385 1282.816650,278.881683 1274.422119,278.897552 
	C1270.890747,278.904236 1269.496948,280.806610 1268.206299,283.386353 
	C1255.816040,308.151337 1243.449463,332.928131 1231.021484,357.674072 
	C1216.937500,385.717438 1202.836304,413.752350 1188.671021,441.754700 
	C1174.502075,469.763977 1160.074219,497.643829 1146.107788,525.753296 
	C1140.314209,537.413818 1131.645386,543.204529 1118.534058,543.067261 
	C1095.537598,542.826416 1072.516968,542.415161 1049.544189,543.191345 
	C1032.231323,543.776245 1029.774780,530.679871 1035.301025,519.412720 
	C1047.495239,494.550934 1059.992065,469.837219 1072.437500,445.099304 
	C1082.271973,425.551025 1092.218384,406.059021 1102.107300,386.538086 
	C1115.417603,360.263641 1128.700073,333.975189 1142.033325,307.712433 
	C1151.432617,289.198303 1160.873413,270.705139 1170.343872,252.227325 
	C1173.645508,245.785355 1177.323730,239.527191 1180.415894,232.989258 
	C1184.720215,223.888138 1192.706299,220.341354 1201.715210,219.121857 
	C1217.229370,217.021774 1232.811768,215.188904 1248.425659,214.125702 
	C1266.226074,212.913605 1284.093506,212.696350 1301.929077,211.982025 
	C1307.352783,211.764816 1312.809448,210.739166 1318.178833,211.115524 
	C1332.203979,212.098618 1346.183716,213.711151 1360.191528,214.962296 
	C1375.572876,216.336151 1390.362915,220.213867 1404.556641,226.075790 
	C1425.700195,234.808029 1444.061401,247.059586 1453.470337,269.113617 
	C1455.713623,274.371887 1456.677856,280.175873 1458.615112,285.864441 
	C1459.000000,294.687561 1459.000000,303.375122 1459.000000,312.531342 
z"/>
<path fill="#020000" opacity="1.000000" stroke="none" 
	d="
M1.000000,600.464661 
	C6.937479,582.659546 18.052982,568.209656 27.693356,553.000061 
	C39.335068,534.632935 51.509472,516.575317 64.117805,498.856659 
	C76.983757,480.776001 90.546143,463.185303 104.011475,445.538666 
	C113.670021,432.880951 123.488602,420.335175 133.575363,408.017517 
	C141.873550,397.884033 150.514114,388.018036 159.282516,378.285400 
	C173.729767,362.249390 188.405670,346.419434 202.978577,330.496582 
	C206.200516,326.976196 209.287445,323.325684 212.619720,319.913971 
	C229.804565,302.319489 246.811737,284.541809 264.348938,267.304199 
	C277.995697,253.890549 292.196411,241.028824 306.394745,228.191452 
	C319.774353,216.094315 333.262146,204.098328 347.087738,192.517944 
	C362.054657,179.981567 377.479218,167.992111 392.677917,155.731522 
	C396.723541,152.467972 400.672729,149.084869 405.572449,145.001389 
	C402.977631,145.001389 401.280640,145.001389 399.583679,145.001389 
	C302.280090,145.001389 204.976425,145.070404 107.673073,144.922867 
	C93.954628,144.902069 84.476479,139.892151 81.561310,127.797775 
	C79.701691,120.082672 80.116905,111.785965 83.990494,104.343925 
	C93.852066,85.397614 103.696999,66.439903 113.838142,47.642971 
	C119.098839,37.892117 124.664398,28.273788 130.653534,18.956394 
	C137.365738,8.514117 147.285873,2.859198 159.860046,1.387495 
	C334.687561,1.000000 509.375122,1.000000 684.531372,1.000007 
	C688.821289,2.375580 692.787842,3.445555 696.438232,5.180650 
	C710.760071,11.988027 713.469727,25.803345 711.549438,38.995899 
	C708.418335,60.506859 696.646057,77.505257 682.988464,93.460655 
	C676.783691,100.709320 670.660828,108.128242 663.698120,114.607239 
	C649.032776,128.253647 633.915039,141.419144 618.834717,154.612534 
	C607.757385,164.303864 596.501465,173.794006 585.220337,183.248764 
	C573.972107,192.675919 562.542358,201.886459 551.289490,211.308121 
	C543.754883,217.616531 536.325623,224.054733 528.962830,230.563354 
	C513.825745,243.944321 498.629150,257.263092 483.720062,270.895050 
	C473.686676,280.068970 464.014099,289.644836 454.341003,299.203674 
	C440.236481,313.141541 425.943115,326.911407 412.346039,341.333496 
	C397.921295,356.633453 384.123993,372.530792 370.227753,388.321259 
	C360.175049,399.744263 350.201385,411.249725 340.572357,423.028961 
	C331.122833,434.588593 322.088623,446.490967 312.989594,458.333160 
	C302.119019,472.480927 290.997986,486.457825 280.667419,500.993469 
	C267.495483,519.526978 254.786804,538.401245 242.286011,557.396851 
	C230.434494,575.405823 219.721207,594.192017 207.323288,611.802734 
	C199.865631,622.395996 188.898865,629.195068 175.139954,630.612549 
	C123.645775,631.000000 72.291542,631.000000 20.350922,630.630920 
	C17.938646,629.746033 16.055302,629.376892 14.297012,628.688416 
	C7.450680,626.007629 4.022415,620.174866 1.000000,614.000000 
	C1.000000,609.643127 1.000000,605.286194 1.000000,600.464661 
M418.098419,137.482468 
	C418.133209,137.653564 418.167969,137.824646 418.039764,138.870789 
	C418.985413,144.555786 416.556580,148.156647 412.053314,151.809891 
	C384.651764,174.039322 357.140656,196.166458 330.470703,219.257050 
	C293.455017,251.304825 257.780151,284.855011 224.496490,320.807220 
	C197.021454,350.485107 169.296951,379.996277 143.150833,410.826172 
	C96.366676,465.991150 54.603153,524.902466 16.891228,586.647766 
	C14.484214,590.588806 12.723994,594.935547 10.785935,599.150146 
	C5.005092,611.721680 13.782310,622.971191 27.870703,622.926270 
	C74.050018,622.946594 120.229332,622.971802 166.408646,622.962158 
	C167.705353,622.961914 169.002014,622.589844 171.149551,622.345581 
	C183.714645,621.908203 193.216599,615.760010 200.701355,606.158813 
	C204.069412,601.838379 207.218140,597.305176 210.056656,592.620300 
	C238.288010,546.024780 268.834320,501.041565 301.996399,457.782501 
	C350.748627,394.186462 404.171448,334.872742 462.139587,279.566254 
	C507.254120,236.523224 555.618958,197.256485 603.113647,156.970627 
	C630.306641,133.905060 657.592163,110.880516 680.300964,83.177925 
	C692.846313,67.873650 703.592407,51.566639 703.098694,30.364058 
	C702.891663,21.475946 699.080078,15.366913 691.140747,12.165294 
	C687.407349,10.659760 683.081665,10.622775 678.457092,9.296967 
	C677.135315,9.198935 675.813599,9.015131 674.491821,9.015029 
	C507.688934,9.002196 340.886078,9.000414 174.083191,9.035811 
	C172.308807,9.036187 170.534531,9.532866 167.880219,9.822888 
	C151.423370,9.230041 140.285004,17.455849 132.466385,31.183424 
	C131.234085,33.347027 129.962982,35.490292 128.792038,37.686802 
	C119.814217,54.527969 110.693085,71.295769 101.960976,88.263649 
	C97.500755,96.930580 92.855392,105.676186 89.902992,114.901268 
	C86.182602,126.525978 91.907768,134.246307 104.162323,136.496338 
	C104.454910,136.424622 104.747498,136.352890 105.503120,136.102783 
	C105.503120,136.102783 105.962418,135.914993 106.895020,136.086258 
	C207.967575,136.101349 309.040131,136.112839 410.112701,136.154007 
	C412.418152,136.154953 414.723450,136.491867 417.244751,136.873779 
	C417.415405,136.983734 417.602142,137.043808 417.976990,137.032455 
	C417.976990,137.032455 418.134521,136.959961 418.098419,137.482468 
z"/>
<path fill="#FFFFFF" opacity="1.000000" stroke="none" 
	d="
M1.000000,614.470459 
	C4.022415,620.174866 7.450680,626.007629 14.297012,628.688416 
	C16.055302,629.376892 17.938646,629.746033 19.882263,630.630920 
	C13.745328,631.000000 7.490656,631.000000 1.000000,631.000000 
	C1.000000,625.649231 1.000000,620.295105 1.000000,614.470459 
z"/>
<path fill="#000000" opacity="1.000000" stroke="none" 
	d="
M571.250000,334.250000 
	C579.748962,325.751190 587.726746,317.207397 596.306824,309.318665 
	C611.424133,295.419403 626.748474,281.734070 642.288879,268.309540 
	C655.747498,256.683350 669.521118,245.413147 683.367676,234.248734 
	C689.270386,229.489441 695.356079,224.715134 702.030029,221.235382 
	C706.849670,218.722458 712.765808,217.238556 718.213318,217.179474 
	C751.373535,216.819794 784.540771,216.840561 817.703003,217.090881 
	C828.556274,217.172791 835.722229,221.854630 835.000000,234.310745 
	C833.999451,251.565689 833.105286,268.827698 831.961853,286.073151 
	C831.148560,298.339905 830.107788,310.594482 828.970093,322.836060 
	C827.775818,335.686951 826.294006,348.510895 825.042847,361.356842 
	C824.549072,366.426697 824.400879,371.529175 823.988464,376.608124 
	C822.688660,392.615692 821.280945,408.614685 820.028259,424.625854 
	C819.246460,434.619476 818.798523,444.639801 817.969299,454.628937 
	C816.764160,469.144897 815.331543,483.641876 814.032532,498.150208 
	C813.316467,506.147369 812.250549,514.142700 812.089783,522.153931 
	C811.772156,537.984131 803.961060,542.450867 791.358948,542.812500 
	C768.379639,543.472107 745.367920,543.016785 722.369690,542.992981 
	C710.878357,542.981079 703.800232,533.516357 706.196716,522.308411 
	C707.689087,515.329041 708.156860,508.125153 708.979248,501.009888 
	C709.462097,496.832458 709.738647,492.631195 710.146790,488.000031 
	C708.357544,488.000031 707.063782,488.000061 705.770020,488.000061 
	C658.273682,488.000061 610.777405,488.018372 563.281128,487.966492 
	C559.340332,487.962189 556.842468,489.336761 554.505981,492.781281 
	C545.076782,506.682098 535.460327,520.473877 525.380188,533.906067 
	C521.547363,539.013428 516.130554,542.098694 508.972717,542.113159 
	C480.888458,542.169861 452.805328,542.693848 424.721100,542.976379 
	C419.282806,543.031128 414.560242,541.688416 411.683502,536.280273 
	C408.726257,530.720764 409.326233,525.534363 412.837891,520.744080 
	C426.144836,502.591919 439.305359,484.319427 453.099823,466.541321 
	C465.982849,449.938049 479.472656,433.797974 492.950867,417.667450 
	C499.386505,409.965363 506.298370,402.648529 513.195923,395.347473 
	C532.407654,375.011749 551.724609,354.775543 571.250000,334.250000 
M684.499695,419.629059 
	C695.806763,419.629059 707.113831,419.629059 719.024353,419.629059 
	C724.213745,376.025543 729.381348,332.605133 734.750244,287.493347 
	C688.370300,328.058319 647.275330,371.636200 608.996033,419.629028 
	C634.928833,419.629028 659.214233,419.629028 684.499695,419.629059 
z"/>
<path fill="#000000" opacity="1.000000" stroke="none" 
	d="
M856.474609,542.999634 
	C845.483276,540.904541 842.801697,531.455566 846.050049,524.174561 
	C851.143250,512.758667 856.717529,501.552429 862.270630,490.347900 
	C869.992371,474.768005 877.877563,459.269135 885.701904,443.740143 
	C899.529480,416.296295 913.345398,388.846588 927.200073,361.416443 
	C947.445312,321.334198 967.626648,281.219116 988.072083,241.239105 
	C991.605164,234.330322 994.183655,226.259109 1001.498047,222.250732 
	C1006.130859,219.711884 1011.571167,217.336685 1016.697693,217.230896 
	C1041.514404,216.718811 1066.348267,216.901291 1091.174805,217.050003 
	C1100.721802,217.107193 1108.613770,224.284241 1103.881226,235.110443 
	C1097.256226,250.265427 1089.882812,265.104004 1082.512207,279.920013 
	C1063.440430,318.256714 1044.218750,356.519012 1025.010620,394.787689 
	C1010.647339,423.404022 996.292358,452.025055 981.776978,480.564270 
	C973.537048,496.765106 964.845459,512.736450 956.618469,528.943604 
	C951.613708,538.803162 943.272888,542.835754 932.904419,542.927185 
	C907.579163,543.150513 882.250610,543.000000 856.474609,542.999634 
z"/>
<path fill="#ED1C24" opacity="1.000000" stroke="none" 
	d="
M679.024414,9.920315 
	C683.081665,10.622775 687.407349,10.659760 691.140747,12.165294 
	C699.080078,15.366913 702.891663,21.475946 703.098694,30.364058 
	C703.592407,51.566639 692.846313,67.873650 680.300964,83.177925 
	C657.592163,110.880516 630.306641,133.905060 603.113647,156.970627 
	C555.618958,197.256485 507.254120,236.523224 462.139587,279.566254 
	C404.171448,334.872742 350.748627,394.186462 301.996399,457.782501 
	C268.834320,501.041565 238.288010,546.024780 210.056656,592.620300 
	C207.218140,597.305176 204.069412,601.838379 200.701355,606.158813 
	C193.216599,615.760010 183.714645,621.908203 170.247528,622.230530 
	C122.829353,622.080688 76.313194,622.041992 29.797024,622.038757 
	C28.849611,622.038696 27.902170,622.451538 26.954746,622.671753 
	C13.782310,622.971191 5.005092,611.721680 10.785935,599.150146 
	C12.723994,594.935547 14.484214,590.588806 16.891228,586.647766 
	C54.603153,524.902466 96.366676,465.991150 143.150833,410.826172 
	C169.296951,379.996277 197.021454,350.485107 224.496490,320.807220 
	C257.780151,284.855011 293.455017,251.304825 330.470703,219.257050 
	C357.140656,196.166458 384.651764,174.039322 412.053314,151.809891 
	C416.556580,148.156647 418.985413,144.555786 418.269531,138.326569 
	C418.377716,137.508224 418.256104,137.234100 418.134521,136.959961 
	C418.134521,136.959961 417.976990,137.032455 417.939117,136.849121 
	C417.901245,136.665771 417.922668,136.266281 417.709167,135.900574 
	C415.866150,135.356583 414.236664,135.022659 412.607086,135.022263 
	C312.136963,134.997482 211.666870,134.995377 111.196770,135.038086 
	C109.451859,135.038818 107.707199,135.609985 105.962418,135.914993 
	C105.962418,135.914993 105.503120,136.102783 105.009399,136.116379 
	C104.334892,136.148743 104.154106,136.167511 103.973312,136.186295 
	C91.907768,134.246307 86.182602,126.525978 89.902992,114.901268 
	C92.855392,105.676186 97.500755,96.930580 101.960976,88.263649 
	C110.693085,71.295769 119.814217,54.527969 128.792038,37.686802 
	C129.962982,35.490292 131.234085,33.347027 132.466385,31.183424 
	C140.285004,17.455849 151.423370,9.230041 168.802948,9.887869 
	C170.724976,9.968434 171.724258,9.997661 172.723541,9.997672 
	C340.158447,9.999614 507.593353,9.999647 675.028259,9.996126 
	C676.360291,9.996098 677.692383,9.946675 679.024414,9.920315 
z"/>
<path fill="#AE4331" opacity="1.000000" stroke="none" 
	d="
M678.740723,9.608641 
	C677.692383,9.946675 676.360291,9.996098 675.028259,9.996126 
	C507.593353,9.999647 340.158447,9.999614 172.723541,9.997672 
	C171.724258,9.997661 170.724976,9.968434 169.242950,9.875353 
	C170.534531,9.532866 172.308807,9.036187 174.083191,9.035811 
	C340.886078,9.000414 507.688934,9.002196 674.491821,9.015029 
	C675.813599,9.015131 677.135315,9.198935 678.740723,9.608641 
z"/>
<path fill="#D2392F" opacity="1.000000" stroke="none" 
	d="
M106.428719,136.000626 
	C107.707199,135.609985 109.451859,135.038818 111.196770,135.038086 
	C211.666870,134.995377 312.136963,134.997482 412.607086,135.022263 
	C414.236664,135.022659 415.866150,135.356583 417.465332,135.956818 
	C417.299591,136.476547 417.164215,136.574295 417.028839,136.672058 
	C414.723450,136.491867 412.418152,136.154953 410.112701,136.154007 
	C309.040131,136.112839 207.967575,136.101349 106.428719,136.000626 
z"/>
<path fill="#A6412F" opacity="1.000000" stroke="none" 
	d="
M27.412724,622.799011 
	C27.902170,622.451538 28.849611,622.038696 29.797024,622.038757 
	C76.313194,622.041992 122.829353,622.080688 169.822113,622.253296 
	C169.002014,622.589844 167.705353,622.961914 166.408646,622.962158 
	C120.229332,622.971802 74.050018,622.946594 27.412724,622.799011 
z"/>
<path fill="#30140E" opacity="1.000000" stroke="none" 
	d="
M104.067818,136.341309 
	C104.154106,136.167511 104.334892,136.148743 104.777885,136.205566 
	C104.747498,136.352890 104.454910,136.424622 104.067818,136.341309 
z"/>
<path fill="#30140E" opacity="1.000000" stroke="none" 
	d="
M417.136780,136.772919 
	C417.164215,136.574295 417.299591,136.476547 417.678833,136.322540 
	C417.922668,136.266281 417.901245,136.665771 417.853088,136.859879 
	C417.602142,137.043808 417.415405,136.983734 417.136780,136.772919 
z"/>
<path fill="#D2392F" opacity="1.000000" stroke="none" 
	d="
M418.116455,137.221222 
	C418.256104,137.234100 418.377716,137.508224 418.351013,137.889038 
	C418.167969,137.824646 418.133209,137.653564 418.116455,137.221222 
z"/>
<path fill="#FFFFFF" opacity="1.000000" stroke="none" 
	d="
M683.999695,419.629028 
	C659.214233,419.629028 634.928833,419.629028 608.996033,419.629028 
	C647.275330,371.636200 688.370300,328.058319 734.750244,287.493347 
	C729.381348,332.605133 724.213745,376.025543 719.024353,419.629059 
	C707.113831,419.629059 695.806763,419.629059 683.999695,419.629028 
z"/>
</svg>