<?xml version="1.0" encoding="UTF-8" standalone="no"?>
<svg
   xmlns:svg="http://www.w3.org/2000/svg"
   xmlns="http://www.w3.org/2000/svg"
   version="1.0"
   width="500"
   height="185"
   id="svg2"
   xml:space="preserve"><defs
     id="defs6" /><g
     transform="matrix(1.25,0,0,-1.25,-578.91762,1050.0912)"
     id="g12"><path
       d="m 663.74063,791.92618 c 19.77898,19.37188 53.41557,35.11282 59.60422,28.9283 6.59573,-2.5577 -6.85891,-25.70034 -8.07197,-32.42766 5.92136,2.5577 18.43023,20.71653 24.3557,23.27423 2.95656,1.20894 9.41249,0.13981 11.29581,-2.68929 1.48034,-2.2863 2.96479,-10.35826 4.58083,-12.64867 28.3855,17.22539 74.53508,29.73425 107.62888,33.76818 l -14.79928,-13.58623 c -26.90516,-3.36366 -67.40478,-4.5726 -89.87304,-27.71524 -5.10717,-2.01901 -8.61475,-1.48034 -10.09098,2.41789 -1.07735,2.96479 -3.49935,12.11411 -4.844,14.13313 -8.47083,-3.49525 -27.98663,-27.04498 -36.46157,-30.67592 -4.57672,-1.88743 -5.64997,0 -6.45593,2.2863 0.94166,5.64996 19.63917,33.09792 14.532,34.70985 -28.39373,-12.10589 -48.30429,-39.14675 -56.38037,-47.49011 -3.49113,-3.62683 -5.10717,0.66615 -5.51426,0.66615 l 5.92136,15.34207 c -11.16834,-2.422 -20.99204,-6.46003 -31.3503,-12.24158 l 0,7.93626 c 11.70702,6.59163 23.27834,11.70702 35.9229,16.01234 m -35.9229,16.954 0,-2.96479 c 0.67438,0.94166 1.48034,2.01901 2.15472,3.09637 l -2.15472,-0.13158 z m 0,6.32022 6.59573,0.4071 7.13031,10.22256 -13.72604,-0.94166 0,-9.688 z m 0,-47.22282 c -11.8386,-6.46004 -24.48728,-15.20226 -40.50373,-25.70445 -4.02981,-1.61603 -21.38679,-6.9946 -20.85222,3.23208 l 31.89309,46.01388 c -35.7872,-13.85762 -62.4292,-39.14675 -100.37112,-88.5284 -8.74633,-5.65819 -31.75327,-15.61347 -34.84965,-6.32434 8.61475,44.26214 23.41403,92.29915 46.28527,133.33333 l 39.15087,9.28091 c -33.23362,-43.45207 -46.42098,-90.81882 -54.22154,-121.35492 32.42765,38.2092 79.78617,76.5541 113.55847,87.31945 l 1.74762,2.422 18.16294,1.21306 0,-2.96479 c -12.10588,-17.89155 -19.376,-32.83064 -32.02056,-51.13339 11.29992,8.34747 21.65819,15.2146 32.02056,21.13184 l 0,-7.93626 z m 0,56.91082 -6.18864,-0.40298 -7.53328,-10.09098 13.72192,0.80596 0,9.688 z"
       id="path24"
       style="fill:#e5087d;fill-opacity:1;fill-rule:nonzero;stroke:none" /><path
       d="m 740.22194,700.61474 6.79722,11.91673 c 6.84657,2.61116 11.97842,3.43768 14.6348,3.0347 2.6605,-0.40298 3.42123,-1.71884 3.13339,-4.07916 -0.46878,-3.89412 -3.03881,-7.68954 -5.02082,-10.87227 l 9.41249,0 c 1.76818,2.20817 3.91879,5.1853 4.49448,10.03341 0.57568,4.85222 -2.1465,9.04652 -7.31946,9.51118 -5.17296,0.47289 -10.55153,-0.25495 -15.88897,-1.56258 l 1.46389,2.61115 -9.09175,0 -11.92496,-20.59316 9.30969,0 z m -7.11796,20.55204 -11.8016,-20.55204 -9.19866,0 11.81393,20.59316 9.18633,-0.0411 z m 61.58211,-9.67977 -2.50835,-3.55693 10.44872,0 c 3.26497,0 14.65536,-0.21382 13.90697,5.44025 -1.41455,10.68311 -34.2863,11.91673 -38.88769,-1.15138 -6.47649,-18.50012 29.16679,-13.17913 36.58494,-11.08609 -0.34953,1.15549 -0.69494,2.30686 -1.04446,3.45824 -4.07505,-1.98201 -26.8476,-4.69597 -27.70291,3.33898 -0.79362,7.42637 7.73889,8.88615 13.28194,8.88615 8.56952,0 9.61398,-5.32922 3.86121,-5.32922 l -7.94037,0 z m 64.38653,3.1375 c -11.49319,2.50835 -15.30917,2.66461 -20.37933,2.09303 -2.20407,-0.25083 -4.41224,-1.04446 -4.49859,-2.19995 -0.0987,-1.40632 0.83886,-2.11359 4.28887,-2.29864 6.79722,-0.36597 17.78463,-0.73194 17.56669,-5.96247 -0.13158,-3.13339 -3.97635,-7.83758 -21.64173,-7.51684 -5.74866,0.0987 -13.06811,1.56258 -17.25007,2.70573 0.76484,1.04858 1.5338,2.09715 2.29864,3.14573 4.07916,-0.84298 9.20277,-1.98201 15.68337,-1.67361 12.74737,0.73195 13.17913,4.27654 2.40144,5.01259 -8.04729,0.55102 -13.55333,1.69006 -11.70702,7.9486 2.63583,8.92727 22.36957,6.17219 32.40299,3.02647 l 0.83474,-4.28064 z m -233.52352,-14.00977 9.41249,0 c 4.39168,8.06374 10.92162,17.00334 21.21409,17.13904 6.48471,0.0864 3.65973,-2.91956 -0.2056,-5.01671 -2.29864,-1.34875 -6.58751,-1.55846 -9.30558,-1.98201 l -1.14726,-2.50424 c 7.84168,-1.56669 11.91673,-5.23053 14.00565,-9.211 l 10.66255,0 c -1.56669,4.19019 -7.20842,7.73889 -12.85839,9.93884 3.24441,0.31251 7.52917,1.66949 10.03753,3.45412 1.36109,0.93755 4.14906,3.93112 2.51246,5.85145 -2.77564,3.24853 -8.15831,3.86945 -13.48753,3.23619 -3.76253,-0.41121 -7.73889,-1.56669 -11.3945,-3.02647 l 1.45977,2.50835 -9.09175,0 -11.81393,-20.38756 z m 60.2128,6.90414 c -0.83063,-1.57081 -0.52223,-2.61527 0.41943,-3.0347 11.81393,3.0347 19.33488,3.55282 23.41404,2.29453 l -0.20972,-5.53071 c -8.67643,2.40144 -19.90234,0.60447 -27.38628,-1.04858 -3.07581,-0.67437 -9.40426,0.52223 -5.85145,6.79723 l 8.04729,14.21125 9.19866,0 -7.63197,-13.68902 z m -134.01182,-6.90414 c 6.15574,6.70265 11.30403,12.17579 19.96813,15.89309 6.27088,2.60704 14.52789,4.28476 21.63763,4.60138 0.62914,0 15.46954,1.35287 10.03341,-6.69442 l -9.19455,-13.80005 -10.24724,0 10.65844,14.63069 c 2.61527,3.45001 -1.04035,2.82909 -3.13338,2.62349 -7.83758,-0.83886 -15.46955,-4.39579 -22.16397,-11.18479 0.62914,0.0946 7.11385,2.39733 16.73194,2.39733 l -3.76664,-4.17785 c -4.17373,-0.16037 -14.98021,-0.36597 -17.87509,-4.28887 l -12.64868,0 z m 65.85865,20.59316 -11.91673,-20.59316 9.30146,0 11.78515,20.59316 -9.16988,0 z"
       id="path28"
       style="fill:#e5087d;fill-opacity:1;fill-rule:nonzero;stroke:none" /></g></svg>