<?xml version="1.0" encoding="UTF-8" standalone="no"?>
<!-- Created with Inkscape (http://www.inkscape.org/) -->
<svg
   xmlns:dc="http://purl.org/dc/elements/1.1/"
   xmlns:cc="http://creativecommons.org/ns#"
   xmlns:rdf="http://www.w3.org/1999/02/22-rdf-syntax-ns#"
   xmlns:svg="http://www.w3.org/2000/svg"
   xmlns="http://www.w3.org/2000/svg"
   xmlns:sodipodi="http://sodipodi.sourceforge.net/DTD/sodipodi-0.dtd"
   xmlns:inkscape="http://www.inkscape.org/namespaces/inkscape"
   width="500"
   height="137.25999"
   id="svg2"
   sodipodi:version="0.32"
   inkscape:version="0.46"
   version="1.0"
   sodipodi:docname="Logo.svg"
   inkscape:output_extension="org.inkscape.output.svg.inkscape">
  <defs
     id="defs4">
    <inkscape:perspective
       sodipodi:type="inkscape:persp3d"
       inkscape:vp_x="0 : 526.18109 : 1"
       inkscape:vp_y="0 : 1000 : 0"
       inkscape:vp_z="744.09448 : 526.18109 : 1"
       inkscape:persp3d-origin="372.04724 : 350.78739 : 1"
       id="perspective10" />
    <inkscape:perspective
       id="perspective2505"
       inkscape:persp3d-origin="125 : 20.358 : 1"
       inkscape:vp_z="250 : 30.537001 : 1"
       inkscape:vp_y="0 : 1000 : 0"
       inkscape:vp_x="0 : 30.537001 : 1"
       sodipodi:type="inkscape:persp3d" />
  </defs>
  <sodipodi:namedview
     id="base"
     pagecolor="#ffffff"
     bordercolor="#666666"
     borderopacity="1.0"
     inkscape:pageopacity="0.0"
     inkscape:pageshadow="2"
     inkscape:zoom="0.35"
     inkscape:cx="8.5714286"
     inkscape:cy="520"
     inkscape:document-units="px"
     inkscape:current-layer="layer1"
     showgrid="false"
     inkscape:window-width="1024"
     inkscape:window-height="712"
     inkscape:window-x="-4"
     inkscape:window-y="-4" />
  <metadata
     id="metadata7">
    <rdf:RDF>
      <cc:Work
         rdf:about="">
        <dc:format>image/svg+xml</dc:format>
        <dc:type
           rdf:resource="http://purl.org/dc/dcmitype/StillImage" />
      </cc:Work>
    </rdf:RDF>
  </metadata>
  <g
     inkscape:label="Ebene 1"
     inkscape:groupmode="layer"
     id="layer1"
     transform="translate(-32.142857,-237.0639)">
    <g
       id="g2466"
       transform="matrix(1.92,0,0,1.92,42.142857,247.06214)">
	<g
   id="g2468">
		<path
   id="path2470"
   d="M 125.571,55.221 L 121.468,55.221 L 120.821,57.451 L 118.184,57.451 L 121.953,45.21 L 125.081,45.21 L 128.85,57.451 L 126.211,57.451 L 125.571,55.221 z M 122.123,52.95 L 124.91,52.95 L 123.52,48.079 L 122.123,52.95 z"
   style="fill:#0a71b4" />

		<path
   id="path2472"
   d="M 130,44.693 L 132.439,44.693 L 132.439,47.088 L 130,47.088 L 130,44.693 z M 130,48.268 L 132.439,48.268 L 132.439,57.452 L 130,57.452 L 130,48.268 z"
   style="fill:#0a71b4" />

		<path
   id="path2474"
   d="M 140.152,50.769 C 139.937,50.649 139.725,50.56 139.513,50.502 C 139.302,50.445 139.09,50.416 138.876,50.416 C 138.249,50.416 137.767,50.658 137.428,51.142 C 137.089,51.626 136.92,52.319 136.92,53.221 L 136.92,57.451 L 134.48,57.451 L 134.48,48.267 L 136.92,48.267 L 136.92,49.777 C 137.233,49.175 137.594,48.737 138,48.461 C 138.407,48.186 138.894,48.047 139.462,48.047 C 139.544,48.047 139.633,48.051 139.728,48.059 C 139.824,48.068 139.962,48.085 140.144,48.113 L 140.152,50.769 z"
   style="fill:#0a71b4" />

		<path
   id="path2476"
   d="M 140.9,48.268 L 143.271,48.268 L 144.552,54.598 L 145.839,48.268 L 147.877,48.268 L 149.158,54.533 L 150.446,48.268 L 152.818,48.268 L 150.807,57.452 L 148.143,57.452 L 146.854,51.139 L 145.573,57.452 L 142.909,57.452 L 140.9,48.268 z"
   style="fill:#0a71b4" />

		<path
   id="path2478"
   d="M 161.238,52.212 L 161.238,57.451 L 158.778,57.451 L 158.778,56.09 C 158.451,56.648 158.084,57.053 157.674,57.307 C 157.266,57.562 156.768,57.688 156.182,57.688 C 155.392,57.688 154.75,57.412 154.257,56.856 C 153.764,56.302 153.518,55.582 153.518,54.696 C 153.518,53.62 153.826,52.83 154.441,52.327 C 155.057,51.824 156.024,51.573 157.34,51.573 L 158.778,51.573 L 158.778,51.344 C 158.778,50.879 158.626,50.539 158.322,50.323 C 158.017,50.106 157.543,49.999 156.897,49.999 C 156.375,49.999 155.888,50.062 155.439,50.187 C 154.989,50.313 154.572,50.5 154.185,50.753 L 154.185,48.515 C 154.706,48.362 155.232,48.245 155.759,48.165 C 156.285,48.086 156.813,48.047 157.339,48.047 C 158.716,48.047 159.71,48.373 160.321,49.026 C 160.932,49.679 161.238,50.741 161.238,52.212 z M 157.511,53.318 C 157.002,53.318 156.619,53.422 156.364,53.63 C 156.106,53.838 155.978,54.144 155.978,54.549 C 155.978,54.921 156.081,55.211 156.288,55.421 C 156.495,55.632 156.783,55.737 157.151,55.737 C 157.609,55.737 157.995,55.539 158.309,55.142 C 158.621,54.746 158.779,54.249 158.779,53.654 L 158.779,53.318 L 157.511,53.318 z"
   style="fill:#0a71b4" />

		<path
   id="path2480"
   d="M 161.916,48.268 L 164.355,48.268 L 166.406,54.499 L 168.152,48.268 L 170.591,48.268 L 167.38,58.321 C 167.058,59.342 166.683,60.057 166.253,60.465 C 165.823,60.873 165.257,61.075 164.552,61.075 L 163.142,61.075 L 163.142,59.148 L 163.906,59.148 C 164.319,59.148 164.621,59.069 164.808,58.911 C 164.997,58.752 165.143,58.468 165.247,58.058 L 165.315,57.803 L 161.916,48.268 z"
   style="fill:#0a71b4" />

		<path
   id="path2482"
   d="M 177.695,48.555 L 177.695,50.784 C 177.172,50.522 176.668,50.326 176.181,50.194 C 175.695,50.063 175.236,49.998 174.804,49.998 C 174.341,49.998 173.996,50.068 173.772,50.208 C 173.546,50.347 173.435,50.561 173.435,50.851 C 173.435,51.085 173.52,51.266 173.69,51.392 C 173.861,51.518 174.166,51.611 174.607,51.67 L 175.036,51.744 C 176.285,51.936 177.127,52.25 177.558,52.687 C 177.989,53.124 178.204,53.81 178.204,54.745 C 178.204,55.723 177.905,56.459 177.305,56.95 C 176.705,57.442 175.81,57.687 174.62,57.687 C 174.115,57.687 173.594,57.64 173.056,57.544 C 172.517,57.448 171.964,57.305 171.396,57.113 L 171.396,54.883 C 171.882,55.168 172.382,55.381 172.892,55.524 C 173.404,55.666 173.922,55.737 174.451,55.737 C 174.928,55.737 175.286,55.657 175.527,55.499 C 175.767,55.341 175.888,55.105 175.888,54.794 C 175.888,54.532 175.804,54.337 175.639,54.208 C 175.473,54.08 175.142,53.979 174.648,53.908 L 174.218,53.843 C 173.132,53.679 172.371,53.375 171.935,52.933 C 171.499,52.491 171.281,51.819 171.281,50.916 C 171.281,49.943 171.558,49.223 172.113,48.752 C 172.667,48.281 173.516,48.047 174.662,48.047 C 175.111,48.047 175.584,48.088 176.079,48.17 C 176.574,48.252 177.112,48.38 177.695,48.555 z"
   style="fill:#0a71b4" />

		<path
   id="path2484"
   d="M 191.361,56.54 C 190.707,56.923 190.027,57.21 189.324,57.401 C 188.619,57.592 187.892,57.687 187.142,57.687 C 185.448,57.687 184.105,57.118 183.115,55.978 C 182.125,54.839 181.629,53.293 181.629,51.342 C 181.629,49.368 182.134,47.817 183.143,46.685 C 184.152,45.553 185.533,44.988 187.286,44.988 C 187.964,44.988 188.612,45.065 189.232,45.217 C 189.852,45.37 190.437,45.597 190.987,45.898 L 190.987,48.431 C 190.419,48.043 189.854,47.754 189.294,47.563 C 188.734,47.372 188.171,47.275 187.606,47.275 C 186.561,47.275 185.756,47.627 185.19,48.33 C 184.626,49.032 184.342,50.036 184.342,51.343 C 184.342,52.638 184.614,53.638 185.16,54.344 C 185.705,55.048 186.478,55.402 187.483,55.402 C 187.755,55.402 188.009,55.381 188.244,55.34 C 188.477,55.299 188.687,55.235 188.873,55.147 L 188.873,52.769 L 187.272,52.769 L 187.272,50.654 L 191.361,50.654 L 191.361,56.54 L 191.361,56.54 z"
   style="fill:#0a71b4" />

		<path
   id="path2486"
   d="M 201.081,52.835 L 201.081,53.671 L 195.377,53.671 C 195.436,54.359 195.643,54.876 195.997,55.221 C 196.351,55.565 196.847,55.738 197.482,55.738 C 197.996,55.738 198.522,55.646 199.06,55.463 C 199.599,55.28 200.152,55.002 200.719,54.631 L 200.719,56.894 C 200.142,57.157 199.566,57.355 198.989,57.489 C 198.412,57.623 197.834,57.689 197.258,57.689 C 195.877,57.689 194.803,57.267 194.037,56.423 C 193.271,55.578 192.89,54.394 192.89,52.868 C 192.89,51.371 193.266,50.193 194.018,49.335 C 194.77,48.477 195.805,48.048 197.122,48.048 C 198.321,48.048 199.281,48.483 200.001,49.352 C 200.721,50.221 201.081,51.381 201.081,52.835 z M 198.573,51.859 C 198.573,51.301 198.438,50.851 198.168,50.51 C 197.897,50.168 197.544,49.997 197.107,49.997 C 196.634,49.997 196.252,50.156 195.956,50.476 C 195.66,50.796 195.477,51.256 195.404,51.858 L 198.573,51.858 L 198.573,51.859 z"
   style="fill:#0a71b4" />

		<path
   id="path2488"
   d="M 208.392,50.769 C 208.178,50.649 207.966,50.56 207.754,50.502 C 207.543,50.445 207.331,50.416 207.117,50.416 C 206.49,50.416 206.008,50.658 205.669,51.142 C 205.33,51.626 205.162,52.319 205.162,53.221 L 205.162,57.451 L 202.722,57.451 L 202.722,48.267 L 205.162,48.267 L 205.162,49.777 C 205.474,49.175 205.835,48.737 206.242,48.461 C 206.648,48.186 207.136,48.047 207.703,48.047 C 207.785,48.047 207.874,48.051 207.969,48.059 C 208.065,48.068 208.203,48.085 208.385,48.113 L 208.392,50.769 z"
   style="fill:#0a71b4" />

		<path
   id="path2490"
   d="M 216.552,49.793 C 216.861,49.225 217.228,48.792 217.653,48.493 C 218.078,48.195 218.545,48.047 219.053,48.047 C 219.93,48.047 220.598,48.372 221.057,49.023 C 221.516,49.674 221.745,50.619 221.745,51.86 L 221.745,57.452 L 219.291,57.452 L 219.291,52.663 C 219.296,52.593 219.299,52.518 219.302,52.441 C 219.305,52.366 219.305,52.256 219.305,52.114 C 219.305,51.464 219.226,50.992 219.067,50.7 C 218.908,50.407 218.651,50.261 218.297,50.261 C 217.833,50.261 217.475,50.491 217.223,50.95 C 216.971,51.409 216.84,52.073 216.831,52.942 L 216.831,57.452 L 214.378,57.452 L 214.378,52.663 C 214.378,51.646 214.305,50.992 214.16,50.7 C 214.014,50.407 213.756,50.261 213.383,50.261 C 212.914,50.261 212.553,50.493 212.299,50.954 C 212.045,51.416 211.918,52.076 211.918,52.933 L 211.918,57.452 L 209.464,57.452 L 209.464,48.268 L 211.918,48.268 L 211.918,49.613 C 212.217,49.093 212.562,48.704 212.95,48.441 C 213.338,48.178 213.767,48.047 214.234,48.047 C 214.761,48.047 215.227,48.2 215.631,48.506 C 216.036,48.812 216.343,49.241 216.552,49.793 z"
   style="fill:#0a71b4" />

		<path
   id="path2492"
   d="M 230.938,52.212 L 230.938,57.451 L 228.478,57.451 L 228.478,56.09 C 228.151,56.648 227.783,57.053 227.374,57.307 C 226.965,57.562 226.469,57.688 225.882,57.688 C 225.092,57.688 224.449,57.412 223.957,56.856 C 223.463,56.302 223.217,55.582 223.217,54.696 C 223.217,53.62 223.526,52.83 224.141,52.327 C 224.756,51.824 225.723,51.573 227.041,51.573 L 228.479,51.573 L 228.479,51.344 C 228.479,50.879 228.327,50.539 228.022,50.323 C 227.717,50.106 227.243,49.999 226.598,49.999 C 226.075,49.999 225.589,50.062 225.139,50.187 C 224.69,50.313 224.272,50.5 223.885,50.753 L 223.885,48.515 C 224.407,48.362 224.933,48.245 225.459,48.165 C 225.986,48.086 226.514,48.047 227.041,48.047 C 228.416,48.047 229.41,48.373 230.021,49.026 C 230.632,49.679 230.938,50.741 230.938,52.212 z M 227.211,53.318 C 226.702,53.318 226.319,53.422 226.063,53.63 C 225.806,53.838 225.678,54.144 225.678,54.549 C 225.678,54.921 225.781,55.211 225.988,55.421 C 226.195,55.632 226.483,55.737 226.85,55.737 C 227.309,55.737 227.695,55.539 228.008,55.142 C 228.322,54.746 228.479,54.249 228.479,53.654 L 228.479,53.318 L 227.211,53.318 z"
   style="fill:#0a71b4" />

		<path
   id="path2494"
   d="M 240.597,51.859 L 240.597,57.451 L 238.144,57.451 L 238.144,56.54 L 238.144,53.17 C 238.144,52.378 238.129,51.832 238.1,51.531 C 238.071,51.23 238.019,51.01 237.946,50.867 C 237.851,50.676 237.721,50.527 237.558,50.42 C 237.394,50.314 237.207,50.26 236.998,50.26 C 236.49,50.26 236.09,50.497 235.8,50.97 C 235.508,51.443 235.363,52.097 235.363,52.933 L 235.363,57.452 L 232.924,57.452 L 232.924,48.268 L 235.363,48.268 L 235.363,49.613 C 235.73,49.078 236.121,48.683 236.535,48.428 C 236.949,48.173 237.405,48.047 237.905,48.047 C 238.787,48.047 239.455,48.372 239.912,49.023 C 240.369,49.674 240.597,50.618 240.597,51.859 z"
   style="fill:#0a71b4" />

		<path
   id="path2496"
   d="M 241.324,48.268 L 243.764,48.268 L 245.816,54.499 L 247.56,48.268 L 250,48.268 L 246.79,58.321 C 246.468,59.342 246.092,60.057 245.662,60.465 C 245.232,60.873 244.666,61.075 243.962,61.075 L 242.552,61.075 L 242.552,59.148 L 243.315,59.148 C 243.729,59.148 244.03,59.069 244.218,58.911 C 244.406,58.752 244.553,58.468 244.656,58.058 L 244.725,57.803 L 241.324,48.268 z"
   style="fill:#0a71b4" />

	</g>

	<path
   id="path2498"
   d="M 101.19,44.425 L 83.916,44.425 C 81.859,44.321 80.221,42.627 80.221,40.545 C 80.221,40.527 80.213,40.493 80.213,40.493 L 80.213,7.782 C 80.212,3.484 76.728,0 72.43,0 C 68.132,0 64.648,3.484 64.648,7.782 C 64.648,8.195 64.648,40.295 64.648,40.295 L 64.659,40.295 C 64.9,51.212 73.82,59.989 84.795,59.989 L 101.191,59.989 C 105.489,59.989 108.973,56.505 108.973,52.207 C 108.973,47.909 105.488,44.425 101.19,44.425 z M 98.761,56.065 C 96.613,56.065 94.87,54.322 94.87,52.173 C 94.87,50.024 96.613,48.282 98.761,48.282 C 100.91,48.282 102.653,50.024 102.653,52.173 C 102.653,54.322 100.911,56.065 98.761,56.065 z M 57.71,13.285 C 60.749,10.246 60.749,5.318 57.71,2.279 C 54.671,-0.76 49.743,-0.76 46.704,2.279 C 45.922,3.061 38.533,10.45 29.995,18.989 C 21.498,10.491 14.138,3.131 13.286,2.279 C 10.246,-0.76 5.319,-0.76 2.281,2.279 C -0.759,5.318 -0.759,10.246 2.281,13.285 C 2.713,13.717 10.246,21.25 18.99,29.994 C 10.451,38.533 3.062,45.922 2.28,46.704 C -0.76,49.743 -0.76,54.671 2.28,57.709 C 5.319,60.749 10.246,60.749 13.285,57.709 C 13.944,57.051 21.383,49.61 29.994,41.001 C 38.739,49.745 46.272,57.277 46.703,57.709 C 49.742,60.749 54.67,60.749 57.709,57.709 C 60.748,54.671 60.748,49.743 57.709,46.704 C 56.857,45.852 49.497,38.491 40.999,29.994 C 49.611,21.383 57.051,13.943 57.71,13.285 z"
   style="fill:#0a71b4" />

</g>
  </g>
</svg>
