<svg viewBox="0 0 570 160" xmlns="http://www.w3.org/2000/svg" xml:space="preserve" style="fill-rule:evenodd;clip-rule:evenodd;stroke-linejoin:round;stroke-miterlimit:2"><path d="M545.5 55.5c-7.7.1-17.4 7-27.4 16.3l.2-.2c15.7-11.1 35.1-17 62.5-12.6-79-8-15.1 65.4-167.5 108.1 44.8-19.2 63.3-55.1 79.7-81.7 14.9-24.4 28.5-40.8 52.5-29.9" style="fill:#367a3f;fill-rule:nonzero" transform="translate(-11.3 -7.9)"/><path d="M401.5 7.9c10.7 31.3 50.3 32.5 68.2 47.8 17.9 15.3 21 36.2.9 60.6 9.5-23.1-63-57-69.1-108.4" style="fill:#db8e15;fill-rule:nonzero" transform="translate(-11.3 -7.9)"/><path d="M62.4 130c0 3.7 0 9.4-6.9 9.4-4.2 0-5.9-2.3-6.9-6.1-3.6 4.4-8.1 6.7-13.6 6.7-13.5 0-23.7-11.5-23.7-27.6 0-15.8 10.6-27.8 23.7-27.8 5.3 0 10.5 2.1 13.7 6.6.4-3.5 3.4-6 6.9-6 6.9 0 6.9 5.7 6.9 9.4V130h-.1ZM37 126.8c7.5 0 11.1-7.6 11.1-14.5S44.6 97.6 37 97.6c-7.9 0-11.4 7.8-11.4 14.7 0 6.9 3.6 14.5 11.4 14.5M85.7 71.5c0 4.5-3.6 8.3-8.1 8.3-4.3 0-8.1-3.9-8.1-8.3 0-4.1 3.8-7.9 8.1-7.9s8.1 3.7 8.1 7.9M70.4 93.1c0-4.8 3-8 7.2-8s7.2 3.2 7.2 8v38.3c0 4.8-3 8-7.2 8s-7.2-3.2-7.2-8V93.1ZM92.5 92.3c0-4.8 3.8-7.2 7.4-7.2 3.8 0 7 1.4 7 6h.2c2.7-4 5.6-6 10.1-6 3.5 0 7 2.5 7 7.7 0 4.7-4.3 5-8.6 7s-8.7 3.9-8.7 9.6v22c0 4.8-3 8-7.2 8s-7.2-3.2-7.2-8V92.3Z" style="fill:#6ba843;fill-rule:nonzero" transform="translate(-11.3 -7.9)"/><path d="M175 130c0 3.7 0 9.4-6.9 9.4-4.2 0-5.9-2.3-6.9-6.1-3.7 4.4-8.2 6.7-13.7 6.7-13.5 0-23.7-11.5-23.7-27.6 0-15.8 10.6-27.8 23.7-27.8 5.3 0 10.5 2.1 13.7 6.6.4-3.5 3.4-6 6.9-6 6.9 0 6.9 5.7 6.9 9.4V130Zm-25.4-3.2c7.5 0 11.1-7.6 11.1-14.5s-3.5-14.7-11.1-14.7c-7.9 0-11.4 7.8-11.4 14.7 0 6.9 3.6 14.5 11.4 14.5M183.2 93.1c0-4.8 3-8 7.2-8 3.7 0 6.1 2 6.6 5.3 2.8-3.9 7.1-5.9 13.9-5.9 11.3 0 19.6 7.2 19.6 19.3v27.5c0 4.8-3 8-7.2 8s-7.2-3.2-7.2-8v-25c0-6.7-4.2-9.9-9.4-9.9-5.9 0-9.2 4.3-9.2 9.9v25c0 4.8-3 8-7.2 8s-7.2-3.2-7.2-8V93.1h.1ZM242.1 98.3h-3.2c-3.9 0-6.3-2.4-6.3-6.3 0-3.6 2.7-6.3 6.3-6.3h3.2v-8.6c0-4.8 3-8 7.2-8s7.2 3.2 7.2 8v8.6h4.1c3.7 0 6.9 1.7 6.9 6.3 0 4.5-3.2 6.3-6.9 6.3h-4.1v33.1c0 4.8-3 8-7.2 8s-7.2-3.2-7.2-8V98.3ZM283.2 71.5c0 4.5-3.6 8.3-8.1 8.3-4.3 0-8.1-3.9-8.1-8.3 0-4.1 3.8-7.9 8.1-7.9s8.1 3.7 8.1 7.9m-15.3 21.6c0-4.8 3-8 7.2-8s7.2 3.2 7.2 8v38.3c0 4.8-3 8-7.2 8s-7.2-3.2-7.2-8V93.1ZM290.1 70c0-4.8 3-8 7.2-8s7.2 3.2 7.2 8v61.4c0 4.8-3 8-7.2 8s-7.2-3.2-7.2-8V70ZM312.2 70c0-4.8 3-8 7.2-8s7.2 3.2 7.2 8v61.4c0 4.8-3 8-7.2 8s-7.2-3.2-7.2-8V70ZM346.1 117c1 7.1 6.9 10.4 13.6 10.4 7.4 0 12.5-5.8 16.3-5.8 3.1 0 5.9 3.1 5.9 6.2 0 6.2-12.8 12.2-23.4 12.2-16.2 0-26.9-11.8-26.9-27.6 0-14.6 10.6-27.8 25.7-27.8 15.6 0 25.8 14.2 25.8 26.1 0 4.3-1.9 6.4-6.3 6.4h-30.7v-.1Zm22.5-9.5c-.8-6.3-4.8-11-11.5-11-6.4 0-10.7 4.9-11.4 11h22.9ZM418.3 101.3c-2.7 0-8.2-4.2-12.9-4.2-2.6 0-4.9 1.2-4.9 4 0 6.7 24.9 5.7 24.9 22 0 9.6-8.1 16.9-20.4 16.9-8.1 0-20-4.6-20-11.1 0-2.2 2.2-6.4 6.2-6.4 5.6 0 8.1 4.9 14.9 4.9 4.4 0 5.7-1.4 5.7-4.1 0-6.6-24.9-5.6-24.9-22 0-10 8.1-16.8 19.4-16.8 7.1 0 17.9 3.3 17.9 10.4 0 3.3-2.5 6.4-5.9 6.4" style="fill:#367a3f;fill-rule:nonzero" transform="translate(-11.3 -7.9)"/></svg>