<?xml version="1.0" encoding="UTF-8"?><svg id="Layer_2" xmlns="http://www.w3.org/2000/svg" viewBox="0 0 766.19 292.88"><defs><style>.cls-1{fill:#0050a0;}.cls-2{fill:#009eff;}</style></defs><g id="Layer_7"><g><g><path class="cls-1" d="M731.46,46.54l-26.7,83.64h-.47l-27.64-83.64h-35.91l43,114.59c.94,2.44,1.42,4.96,1.42,7.52s-.47,4.92-1.46,7.13c-.95,2.21-2.4,4.06-4.29,5.55-1.93,1.5-4.33,2.4-7.25,2.72-3.31,.08-6.62-.04-9.89-.31-3.31-.32-6.53-.59-9.72-.87v27.64c3.43,.36,6.85,.63,10.28,.87,3.43,.2,6.85,.31,10.28,.31,7.68,.04,14.21-.91,19.57-2.8,5.36-1.89,9.84-4.88,13.47-8.98,3.62-4.06,6.61-9.37,9.02-15.87l51.03-137.51h-34.73Z"/><path class="cls-1" d="M641.17,152.39c-.31-3.5-.43-7.13-.43-10.87v-63.55c-.04-5.83-1.14-10.79-3.23-14.88-2.13-4.06-5-7.4-8.62-10-3.66-2.6-7.76-4.61-12.4-6.06-4.61-1.42-9.41-2.44-14.45-2.99-5.04-.55-10-.83-14.92-.79-5.51,0-10.95,.39-16.3,1.22-5.36,.87-10.44,2.21-15.2,4.09-4.76,1.93-9.02,4.45-12.76,7.6-3.78,3.15-6.77,7.01-9.1,11.65-2.28,4.61-3.62,10.04-4.06,16.3h33.55c.63-6.58,2.91-11.3,6.77-14.17,3.86-2.91,9.02-4.33,15.44-4.25,3.98-.08,7.6,.28,10.91,1.06,3.27,.79,5.87,2.4,7.84,4.77,1.93,2.4,2.96,5.94,2.99,10.71-.04,3.39-1.14,5.99-3.31,7.88-2.17,1.85-5.12,3.23-8.82,4.14-3.74,.91-7.96,1.65-12.68,2.16-4.73,.55-9.69,1.18-14.88,1.89-5.24,.67-10.36,1.69-15.28,3.11-4.92,1.38-9.37,3.43-13.31,6.14-3.94,2.68-7.09,6.26-9.41,10.79-2.32,4.49-3.55,10.2-3.58,17.05,.04,6.26,1.1,11.69,3.23,16.3,2.13,4.57,5.08,8.39,8.9,11.38,3.78,3.03,8.15,5.28,13.19,6.74,5,1.46,10.44,2.2,16.26,2.2,5,0,9.96-.47,14.92-1.46,4.92-.98,9.65-2.6,14.1-4.8,4.49-2.24,8.51-5.16,12.09-8.86,.12,2.01,.39,4.02,.83,5.99,.43,2.01,.94,3.94,1.53,5.83h34.02c-1.02-1.69-1.85-3.94-2.48-6.77-.63-2.83-1.06-6.02-1.34-9.53Zm-34.3-25.2c-.24,2.28-.79,4.73-1.69,7.32-.91,2.56-2.32,4.96-4.25,7.24-1.97,2.28-4.61,4.13-7.99,5.59-3.39,1.42-7.72,2.17-12.92,2.21-3.66,.04-7.05-.39-10.16-1.26-3.11-.87-5.59-2.44-7.48-4.72-1.89-2.29-2.87-5.48-2.91-9.61,.04-4.06,.98-7.25,2.84-9.65,1.85-2.36,4.25-4.17,7.25-5.43,2.99-1.26,6.26-2.2,9.76-2.87,3.51-.59,7.05-1.1,10.59-1.58,3.54-.47,6.81-1.1,9.84-1.89,3.03-.79,5.51-2.01,7.44-3.62v12.52c.04,1.5-.08,3.43-.31,5.75Z"/><polygon class="cls-1" points="414.63 168.69 435.43 86.71 435.9 86.71 457.63 168.69 492.13 168.69 530.64 46.54 496.15 46.54 473.7 129.24 473.23 129.24 452.44 46.54 419.83 46.54 399.51 129.47 399.04 129.47 376.6 46.54 341.16 46.54 379.91 168.69 414.63 168.69"/><polygon class="cls-1" points="341.16 168.69 289.89 91.43 335.97 46.54 296.27 46.54 253.98 90.49 253.98 0 220.43 0 220.43 168.69 253.98 168.69 253.98 126.64 266.98 114.11 300.52 168.69 341.16 168.69"/><rect class="cls-1" x="171.05" width="33.55" height="168.69"/><rect class="cls-1" x="121.91" width="33.55" height="27.64"/><rect class="cls-1" x="121.91" y="46.54" width="33.55" height="122.15"/><path class="cls-1" d="M101.16,105.53c-3.66-2.56-7.8-4.65-12.4-6.26-4.61-1.62-9.37-2.95-14.33-4.06-4.84-1.1-9.49-2.09-14.02-3.03-4.53-.94-8.59-2.01-12.17-3.23-3.62-1.22-6.5-2.76-8.58-4.64-2.13-1.89-3.23-4.29-3.27-7.29,.04-2.48,.67-4.45,1.85-5.94,1.18-1.54,2.76-2.68,4.65-3.47,1.89-.75,3.94-1.3,6.06-1.57,2.13-.24,4.18-.39,6.11-.35,4.06-.04,7.76,.43,11.1,1.38,3.31,.98,6.02,2.68,8.15,5.08,2.09,2.44,3.31,5.79,3.66,10.08h31.9c-.71-7.48-2.64-13.74-5.75-18.74-3.15-5.04-7.21-9.02-12.13-12.01-4.96-2.95-10.51-5.08-16.65-6.38-6.18-1.26-12.6-1.89-19.33-1.85-5.28-.04-10.47,.35-15.59,1.1-5.12,.71-9.92,1.97-14.45,3.7-4.49,1.77-8.51,4.13-11.97,7.13-3.42,2.99-6.14,6.73-8.11,11.22-2.01,4.49-2.99,9.84-3.03,16.07,.04,5.36,1.18,9.84,3.35,13.55,2.16,3.7,5.08,6.77,8.78,9.21,3.66,2.44,7.8,4.45,12.41,5.99,4.57,1.53,9.33,2.84,14.21,3.86,8.07,1.69,14.92,3.35,20.59,4.96,5.63,1.62,9.96,3.5,12.96,5.67,2.95,2.17,4.49,4.92,4.49,8.27-.04,2.95-.71,5.43-2.05,7.4-1.38,2.01-3.11,3.62-5.32,4.84-2.16,1.18-4.53,2.05-7.09,2.56-2.56,.55-5.04,.79-7.52,.79-3.35,0-6.54-.39-9.57-1.14-3.03-.79-5.79-2.01-8.19-3.62-2.4-1.65-4.29-3.78-5.75-6.38-1.42-2.64-2.17-5.75-2.25-9.41H0c.31,6.46,1.58,12.09,3.78,16.89,2.24,4.8,5.2,8.9,8.86,12.21,3.7,3.35,7.95,6.03,12.72,8.07,4.77,2.05,9.88,3.54,15.32,4.45,5.47,.94,11.03,1.38,16.74,1.38s11.1-.43,16.5-1.34c5.4-.9,10.43-2.36,15.16-4.37,4.73-2.01,8.9-4.69,12.52-7.96,3.58-3.31,6.42-7.32,8.47-12.09,2.05-4.77,3.07-10.36,3.11-16.77-.04-5.63-1.14-10.4-3.31-14.3-2.13-3.9-5.04-7.12-8.7-9.65Z"/><path class="cls-1" d="M506.07,228.81c-1.79-2.21-4.18-3.92-7.2-5.12-3-1.18-6.74-1.79-11.18-1.82-4.88-.02-9.17,.98-12.88,3.02-3.74,2.01-6.78,5.12-9.17,9.32h-.26v-10.76h-10.5v67.86h11.16v-38.33c0-3.06,.42-5.88,1.25-8.47,.81-2.58,2.06-4.83,3.72-6.74,1.66-1.93,3.76-3.41,6.28-4.46,2.51-1.05,5.47-1.58,8.84-1.6,2.86,.02,5.31,.57,7.37,1.71,2.06,1.12,3.63,2.69,4.72,4.73,1.12,2.03,1.68,4.44,1.68,7.22v45.94h11.16v-44.63c.02-3.65-.37-7-1.14-10.02-.79-3.04-2.06-5.65-3.85-7.85Z"/><path class="cls-1" d="M579.86,252.15c-.37-2.95-1.03-5.88-1.97-8.79-.92-2.89-2.19-5.64-3.76-8.2-1.57-2.58-3.52-4.86-5.82-6.85-2.32-1.99-5.01-3.56-8.14-4.7-3.11-1.14-6.65-1.71-10.65-1.73-4.64,.02-8.9,.92-12.8,2.65-3.87,1.75-7.24,4.2-10.09,7.37-2.87,3.17-5.07,6.89-6.63,11.18-1.57,4.29-2.36,8.99-2.39,14.11,.15,5.21,.94,9.98,2.32,14.33,1.38,4.33,3.41,8.12,6.08,11.29,2.67,3.19,6.02,5.67,10.02,7.41,4,1.75,8.73,2.65,14.13,2.67,5.1,0,9.65-.9,13.63-2.67,3.98-1.77,7.29-4.35,9.91-7.79,2.63-3.44,4.44-7.66,5.47-12.64h-11.03c-1.01,4.39-3.04,7.7-6.08,9.93-3.04,2.21-6.87,3.32-11.51,3.32-3.7-.02-6.91-.63-9.6-1.82-2.71-1.2-4.94-2.84-6.67-4.9-1.73-2.08-3-4.46-3.81-7.13-.81-2.67-1.16-5.49-1.05-8.47h50.8c.11-2.76,0-5.62-.37-8.57Zm-50.42-1.27c.2-2.6,.77-5.08,1.73-7.37,.94-2.3,2.25-4.33,3.89-6.1,1.66-1.77,3.63-3.15,5.95-4.15,2.32-1.01,4.92-1.51,7.85-1.53,2.78,.02,5.32,.5,7.64,1.49,2.32,.98,4.35,2.36,6.08,4.11,1.73,1.75,3.11,3.76,4.11,6.08,1.01,2.32,1.6,4.81,1.73,7.48h-38.98Z"/><path class="cls-1" d="M631.59,257.86c-2.1-1.42-4.46-2.56-7.09-3.46-2.65-.87-5.36-1.62-8.18-2.21-2.62-.61-5.23-1.2-7.83-1.77-2.6-.59-4.99-1.27-7.16-2.08-2.14-.79-3.89-1.82-5.18-3.09-1.31-1.27-1.97-2.91-2.01-4.88,.02-1.71,.46-3.11,1.31-4.24,.85-1.12,1.99-2.01,3.39-2.65,1.42-.66,2.98-1.12,4.66-1.38,1.68-.28,3.37-.41,5.08-.39,1.86-.02,3.67,.17,5.45,.57,1.79,.37,3.41,1.01,4.9,1.88,1.47,.9,2.69,2.05,3.65,3.52,.94,1.47,1.53,3.28,1.75,5.45h11.16c-.24-4.11-1.14-7.55-2.63-10.3-1.51-2.75-3.52-4.92-6.01-6.54-2.52-1.6-5.4-2.73-8.66-3.41-3.26-.7-6.76-1.03-10.52-1.01-2.39,0-4.77,.22-7.18,.7-2.39,.46-4.68,1.18-6.85,2.17-2.17,.96-4.09,2.21-5.8,3.74-1.69,1.51-3.04,3.33-4,5.45-.98,2.1-1.49,4.51-1.51,7.24,.02,3.22,.68,5.93,1.92,8.12,1.25,2.19,2.91,4,5.03,5.4,2.12,1.4,4.48,2.54,7.11,3.43,2.63,.87,5.34,1.6,8.12,2.21,2.82,.59,5.53,1.2,8.18,1.79,2.62,.61,4.99,1.33,7.09,2.19,2.12,.85,3.79,1.97,5.01,3.35,1.25,1.38,1.88,3.13,1.9,5.27-.02,2.12-.55,3.85-1.57,5.18-1.03,1.33-2.36,2.36-4.02,3.06-1.64,.72-3.41,1.23-5.32,1.49-1.88,.26-3.72,.39-5.49,.37-2.32,0-4.55-.2-6.67-.66-2.12-.44-4.05-1.16-5.75-2.16-1.71-1.01-3.06-2.36-4.09-4.05-1.03-1.69-1.62-3.76-1.73-6.26h-11.15c.2,4.18,1.07,7.74,2.62,10.68,1.58,2.93,3.65,5.3,6.28,7.11,2.62,1.82,5.64,3.13,9.01,3.96,3.39,.83,7,1.23,10.83,1.23,2.78,0,5.54-.22,8.29-.68,2.75-.46,5.36-1.18,7.83-2.21,2.45-1,4.64-2.34,6.56-4,1.9-1.66,3.41-3.67,4.51-6.08,1.09-2.38,1.66-5.21,1.68-8.42-.02-3.26-.65-5.99-1.9-8.2-1.22-2.21-2.91-4.02-5.01-5.42Z"/><rect class="cls-1" x="350.66" y="197.59" width="11.16" height="13.65"/><rect class="cls-1" x="432.96" y="197.59" width="11.16" height="13.65"/><path class="cls-1" d="M389.12,228.7c-2.34,2.4-4.4,5.42-6.17,9.06h-.26v-14.31h-10.5v67.86h11.16v-30.19c-.02-5.75,.77-10.67,2.36-14.77,1.62-4.07,4.22-7.2,7.83-9.38,3.61-2.17,8.38-3.26,14.35-3.28v-11.81c-4-.13-7.55,.37-10.63,1.53-3.08,1.14-5.8,2.91-8.14,5.29Z"/><rect class="cls-1" x="410.38" y="197.59" width="11.16" height="93.72"/><rect class="cls-1" x="432.96" y="223.45" width="11.16" height="67.86"/><rect class="cls-1" x="350.66" y="223.45" width="11.16" height="67.86"/><path class="cls-1" d="M342.79,283.04c-1.16,0-1.99-.26-2.49-.81-.5-.55-.81-1.38-.92-2.49-.11-1.11-.15-2.56-.13-4.31v-34.91c-.02-3.17-.5-5.84-1.47-8.03-.98-2.21-2.3-4-3.98-5.4-1.69-1.38-3.61-2.47-5.78-3.22-2.16-.77-4.48-1.29-6.91-1.57-2.43-.29-4.85-.44-7.33-.42-3.81-.02-7.4,.37-10.76,1.18-3.39,.81-6.39,2.1-9.01,3.87-2.65,1.77-4.75,4.11-6.32,7.02-1.57,2.89-2.45,6.45-2.65,10.63h11.16c.2-3.3,1.05-5.88,2.52-7.77,1.49-1.88,3.48-3.22,5.95-3.98,2.47-.76,5.29-1.14,8.47-1.11,1.79-.02,3.59,.11,5.36,.39,1.77,.28,3.39,.81,4.86,1.6,1.47,.79,2.62,1.95,3.52,3.44,.87,1.49,1.33,3.46,1.36,5.86-.02,2.06-.63,3.65-1.84,4.77-1.2,1.12-2.84,1.95-4.94,2.47-2.12,.55-4.55,1.01-7.29,1.36-2.73,.35-5.67,.81-8.77,1.38-2.91,.53-5.73,1.2-8.47,2.03-2.71,.83-5.16,1.99-7.35,3.48-2.19,1.49-3.92,3.46-5.18,5.93-1.29,2.47-1.95,5.62-1.97,9.43,.02,3.37,.61,6.26,1.77,8.69,1.16,2.41,2.78,4.37,4.83,5.91,2.04,1.53,4.42,2.65,7.13,3.37,2.69,.72,5.6,1.07,8.71,1.07,4.75,.02,9.14-.83,13.17-2.54,4.05-1.71,7.61-4.38,10.72-7.96,.04,3.65,.9,6.32,2.56,8.01,1.69,1.69,3.98,2.51,6.89,2.49,1.77,0,3.3-.15,4.59-.48,1.31-.31,2.45-.77,3.41-1.36v-8.66c-.72,.26-1.36,.44-1.9,.52-.55,.09-1.05,.13-1.51,.13Zm-14.7-15.36c0,1.58-.37,3.24-1.16,5.01-.81,1.75-2.03,3.41-3.7,4.99-1.66,1.55-3.81,2.84-6.43,3.83-2.62,.98-5.78,1.51-9.45,1.53-2.32,.02-4.46-.31-6.43-.96-1.99-.63-3.59-1.69-4.81-3.15-1.22-1.47-1.84-3.43-1.88-5.86,.02-2.74,.66-4.92,1.9-6.54,1.25-1.64,2.89-2.89,4.95-3.76,2.06-.86,4.33-1.49,6.8-1.9,2.52-.42,5.05-.77,7.61-1.07,2.54-.31,4.9-.72,7.11-1.23,2.19-.5,4.03-1.27,5.49-2.3v11.42Z"/></g><g><path class="cls-2" d="M209.93,257.86c-2.1-1.42-4.46-2.56-7.09-3.46-2.65-.87-5.36-1.62-8.18-2.21-2.62-.61-5.23-1.2-7.83-1.77-2.6-.59-4.99-1.27-7.15-2.08-2.14-.79-3.89-1.82-5.19-3.09-1.31-1.27-1.97-2.91-2.01-4.88,.02-1.71,.46-3.11,1.31-4.24,.86-1.12,1.99-2.01,3.39-2.65,1.42-.66,2.98-1.12,4.66-1.38,1.69-.28,3.37-.41,5.08-.39,1.86-.02,3.67,.17,5.45,.57,1.79,.37,3.41,1.01,4.9,1.88,1.47,.9,2.69,2.05,3.65,3.52,.94,1.47,1.53,3.28,1.75,5.45h11.16c-.24-4.11-1.14-7.55-2.63-10.3-1.51-2.75-3.52-4.92-6.01-6.54-2.52-1.6-5.4-2.73-8.66-3.41-3.26-.7-6.76-1.03-10.52-1.01-2.38,0-4.77,.22-7.17,.7-2.38,.46-4.68,1.18-6.85,2.17-2.16,.96-4.09,2.21-5.8,3.74-1.69,1.51-3.04,3.33-4,5.45-.98,2.1-1.49,4.51-1.51,7.24,.02,3.22,.68,5.93,1.93,8.12,1.25,2.19,2.91,4,5.03,5.4,2.12,1.4,4.48,2.54,7.11,3.43,2.62,.87,5.34,1.6,8.11,2.21,2.82,.59,5.54,1.2,8.18,1.79,2.62,.61,4.99,1.33,7.09,2.19,2.12,.85,3.79,1.97,5.01,3.35,1.25,1.38,1.88,3.13,1.9,5.27-.02,2.12-.55,3.85-1.57,5.18-1.03,1.33-2.36,2.36-4.03,3.06-1.64,.72-3.41,1.23-5.32,1.49-1.88,.26-3.72,.39-5.49,.37-2.32,0-4.55-.2-6.67-.66-2.12-.44-4.05-1.16-5.75-2.16-1.71-1.01-3.06-2.36-4.09-4.05-1.03-1.69-1.62-3.76-1.73-6.26h-11.16c.2,4.18,1.07,7.74,2.62,10.68,1.58,2.93,3.65,5.3,6.28,7.11,2.62,1.82,5.64,3.13,9.01,3.96,3.39,.83,7,1.23,10.83,1.23,2.78,0,5.54-.22,8.29-.68,2.76-.46,5.36-1.18,7.83-2.21,2.45-1,4.64-2.34,6.56-4,1.9-1.66,3.41-3.67,4.51-6.08,1.09-2.38,1.66-5.21,1.68-8.42-.02-3.26-.66-5.99-1.9-8.2-1.22-2.21-2.91-4.02-5.01-5.42Z"/><path class="cls-2" d="M238.11,203.1h-11.16v20.35h-11.55v9.84h11.55v43.18c0,3.11,.28,5.62,.9,7.57,.61,1.97,1.55,3.48,2.85,4.53,1.29,1.05,2.95,1.77,5.01,2.16,2.06,.4,4.51,.59,7.39,.57h8.53v-9.84h-5.12c-2.3,.02-4.05-.13-5.27-.44-1.23-.28-2.06-.87-2.49-1.75-.46-.87-.66-2.17-.63-3.85v-42.13h13.52v-9.84h-13.52v-20.35Z"/><polygon class="cls-2" points="68.79 278.97 68.52 278.97 54.35 223.45 42.14 223.45 28.49 278.97 28.23 278.97 12.87 223.45 .53 223.45 22.32 291.31 34.4 291.31 48.05 237.36 48.31 237.36 62.09 291.31 73.91 291.31 95.56 223.45 84.01 223.45 68.79 278.97"/><path class="cls-2" d="M158.19,252.15c-.37-2.95-1.03-5.88-1.97-8.79-.92-2.89-2.19-5.64-3.76-8.2-1.57-2.58-3.52-4.86-5.82-6.85-2.32-1.99-5.01-3.56-8.14-4.7-3.11-1.14-6.65-1.71-10.66-1.73-4.64,.02-8.9,.92-12.8,2.65-3.87,1.75-7.24,4.2-10.09,7.37-2.87,3.17-5.08,6.89-6.63,11.18-1.58,4.29-2.36,8.99-2.39,14.11,.15,5.21,.94,9.98,2.32,14.33,1.38,4.33,3.41,8.12,6.08,11.29,2.67,3.19,6.01,5.67,10.02,7.41,4,1.75,8.73,2.65,14.13,2.67,5.1,0,9.65-.9,13.63-2.67,3.98-1.77,7.29-4.35,9.91-7.79,2.62-3.44,4.44-7.66,5.47-12.64h-11.03c-1.01,4.39-3.04,7.7-6.08,9.93-3.04,2.21-6.87,3.32-11.51,3.32-3.7-.02-6.91-.63-9.6-1.82-2.71-1.2-4.94-2.84-6.67-4.9-1.73-2.08-3-4.46-3.81-7.13-.81-2.67-1.16-5.49-1.05-8.47h50.8c.11-2.76,0-5.62-.37-8.57Zm-50.42-1.27c.2-2.6,.77-5.08,1.73-7.37,.94-2.3,2.25-4.33,3.89-6.1,1.66-1.77,3.63-3.15,5.95-4.15,2.32-1.01,4.92-1.51,7.85-1.53,2.78,.02,5.32,.5,7.63,1.49,2.32,.98,4.35,2.36,6.08,4.11,1.73,1.75,3.11,3.76,4.11,6.08,1.01,2.32,1.6,4.81,1.73,7.48h-38.98Z"/></g></g></g></svg>