<?xml version="1.0" encoding="UTF-8" standalone="no"?>
<!-- Created with Inkscape (http://www.inkscape.org/) -->

<svg
   width="135.99103mm"
   height="46.05629mm"
   viewBox="0 0 135.99103 46.05629"
   version="1.1"
   id="svg1"
   inkscape:version="1.4 (86a8ad7, 2024-10-11)"
   sodipodi:docname="LOT wordmark.svg"
   xmlns:inkscape="http://www.inkscape.org/namespaces/inkscape"
   xmlns:sodipodi="http://sodipodi.sourceforge.net/DTD/sodipodi-0.dtd"
   xmlns="http://www.w3.org/2000/svg"
   xmlns:svg="http://www.w3.org/2000/svg">
  <sodipodi:namedview
     id="namedview1"
     pagecolor="#ffffff"
     bordercolor="#000000"
     borderopacity="0.25"
     inkscape:showpageshadow="2"
     inkscape:pageopacity="0.0"
     inkscape:pagecheckerboard="0"
     inkscape:deskcolor="#d1d1d1"
     inkscape:document-units="mm"
     inkscape:zoom="1.3950758"
     inkscape:cx="173.82569"
     inkscape:cy="-19.712191"
     inkscape:window-width="1920"
     inkscape:window-height="1001"
     inkscape:window-x="-9"
     inkscape:window-y="-9"
     inkscape:window-maximized="1"
     inkscape:current-layer="layer1" />
  <defs
     id="defs1" />
  <g
     inkscape:label="Layer 1"
     inkscape:groupmode="layer"
     id="layer1"
     transform="translate(-50.720817,-128.0139)">
    <path
       clip-path="url(#SVGID_63_)"
       clip-rule="evenodd"
       d="m 101.34389,151.04444 c 0,-5.28153 4.28374,-9.56528 9.56528,-9.56528 5.28153,0 9.56048,4.28375 9.56048,9.56528 0,5.28153 -4.28375,9.56528 -9.56048,9.56528 -5.28633,-0.005 -9.56528,-4.28375 -9.56528,-9.56528 z M 71.52074,159.516 h 15.66231 c -1.48708,-2.48007 -2.33615,-5.37747 -2.33615,-8.47636 0,-12.71692 10.30402,-23.02574 23.02574,-23.02574 l 78.83921,0.36457 -4.07268,14.18962 H 167.0872 l -8.93208,31.13753 h -16.73204 l 8.92727,-31.13753 h -15.71027 c 1.48708,2.47527 2.33615,5.37747 2.33615,8.47635 0,12.71693 -10.30402,23.02575 -23.02575,23.02575 h -0.41254 L 50.720817,173.71041 63.71597,128.38327 h 16.74164 z"
       id="path1532"
       style="fill:#053378;fill-rule:evenodd;stroke-width:4.79703"
       sodipodi:nodetypes="ssscsccsccccccccssccccc" />
  </g>
</svg>
