<?xml version="1.0" encoding="UTF-8" standalone="no"?>
<!-- Created with Inkscape (http://www.inkscape.org/) -->
<svg
   xmlns:dc="http://purl.org/dc/elements/1.1/"
   xmlns:cc="http://web.resource.org/cc/"
   xmlns:rdf="http://www.w3.org/1999/02/22-rdf-syntax-ns#"
   xmlns:svg="http://www.w3.org/2000/svg"
   xmlns="http://www.w3.org/2000/svg"
   xmlns:sodipodi="http://sodipodi.sourceforge.net/DTD/sodipodi-0.dtd"
   xmlns:inkscape="http://www.inkscape.org/namespaces/inkscape"
   version="1.0"
   width="394.40601"
   height="65.194"
   id="svg2033"
   sodipodi:version="0.32"
   inkscape:version="0.45.1"
   sodipodi:docname="Lufthansa.svg"
   inkscape:output_extension="org.inkscape.output.svg.inkscape"
   sodipodi:docbase="C:\Documents and Settings\Casa\Desktop">
  <metadata
     id="metadata9">
    <rdf:RDF>
      <cc:Work
         rdf:about="">
        <dc:format>image/svg+xml</dc:format>
        <dc:type
           rdf:resource="http://purl.org/dc/dcmitype/StillImage" />
      </cc:Work>
    </rdf:RDF>
  </metadata>
  <sodipodi:namedview
     inkscape:window-height="480"
     inkscape:window-width="640"
     inkscape:pageshadow="2"
     inkscape:pageopacity="0.0"
     guidetolerance="10.0"
     gridtolerance="10.0"
     objecttolerance="10.0"
     borderopacity="1.0"
     bordercolor="#666666"
     pagecolor="#ffffff"
     id="base" />
  <defs
     id="defs2035" />
  <g
     id="layer1">
    <g
       id="g2080">
      <path
         d="M 112.09375,0.8125 C 103.21387,0.8125 98.09376,7.36632 98.09375,14.53125 L 98.09375,19.28125 L 91.65625,19.28125 L 91.65625,28.6875 L 98.09375,28.6875 L 98.09375,63.96875 L 112.78125,63.96875 L 112.78125,28.6875 L 121.65625,28.6875 L 121.65625,19.28125 L 112.78125,19.28125 L 112.78125,14.9375 C 112.78125,12.26124 116.63344,10.968748 119.65625,10.96875 L 121.65625,10.96875 L 121.65625,0.8125 L 112.09375,0.8125 z M 0.40625,1.59375 L 0.40625,63.96875 L 41.84375,63.96875 L 41.84375,51.40625 L 15.8125,51.40625 L 15.8125,1.59375 L 0.40625,1.59375 z M 157.21875,1.65625 L 157.21875,63.90625 L 171.625,63.90625 L 171.625,40 C 171.625,30.19673 176.1894,28.687502 179.9375,28.6875 C 184.35636,28.6875 186.04456,31.062877 186.125,37.34375 L 186.125,63.90625 L 200.71875,63.90625 L 200.71875,33.125 C 200.71875,23.86811 194.68424,17.249998 184.6875,17.25 C 178.60613,17.25 174.3651,19.924938 171.96875,22.4375 L 171.96875,1.65625 L 157.21875,1.65625 z M 130.1875,4.46875 L 130.1875,19.28125 L 124,19.28125 L 124,28.6875 L 130.1875,28.6875 L 130.1875,54.03125 C 130.1875,56.18664 132.36841,63.90625 140.3125,63.90625 C 140.01983,63.90625 153.56249,63.8125 153.5625,63.8125 L 153.5625,53.625 L 148.96875,53.625 C 147.61309,53.625 144.93749,52.928719 144.9375,50.5625 L 144.9375,28.6875 L 153.5,28.6875 L 153.5,19.28125 L 144.9375,19.28125 L 144.9375,4.46875 L 130.1875,4.46875 z M 324.84375,17.03125 C 324.21475,17.033091 323.58307,17.041241 322.96875,17.0625 C 318.04639,17.23258 311.53573,19.02581 308.90625,21.0625 C 306.10739,23.18104 302.88755,25.890768 302.625,31.90625 C 302.39185,37.29136 304.64453,42.103079 313.96875,44.71875 L 322.71875,46.28125 C 324.24875,46.68483 330.78123,47.33146 330.78125,51.09375 C 330.78125,53.34942 328.68795,55.953182 323.90625,55.65625 C 318.92082,55.35047 315.73109,53.754737 315.6875,49.3125 L 301.625,49.3125 C 301.08536,54.50486 303.74447,61.37914 312.96875,64.21875 C 315.43772,64.98198 318.73324,65.82992 322.71875,66 C 326.79072,66.08398 331.00045,65.33191 334.25,64.3125 C 342.75039,61.63943 345.62497,55.273853 345.625,50.15625 C 345.625,42.86093 340.8957,38.976857 336.4375,37.34375 L 320.75,34.03125 C 317.03768,33.05436 317.22058,29.045632 319.5,28 C 321.80953,26.93984 324.43172,26.447129 327.125,27.59375 C 329.63756,28.65922 330.53834,30.756258 330.6875,32.46875 L 344.09375,32.46875 C 344.09375,29.68052 344.59292,24.467481 337.46875,19.875 C 333.90826,17.574817 329.24678,17.018363 324.84375,17.03125 z M 228.03125,17.0625 C 221.75641,17.0625 208.44326,18.608202 207.03125,33.34375 L 220,33.34375 C 221.84677,27.60537 224.31827,27.09375 228.53125,27.09375 C 232.4257,27.09375 234.5625,28.843678 234.5625,31.0625 C 234.5625,33.92549 233.22011,34.348481 231.59375,34.71875 C 227.00835,35.76828 225.2783,35.753961 220.40625,36.90625 C 210.47578,39.26325 204.34375,43.526913 204.34375,51.6875 C 204.34375,61.65093 213.6414,65.57582 220.90625,65.65625 C 230.41648,65.76184 235.81249,60.625 235.8125,60.625 L 236.9375,63.875 L 250.53125,63.875 C 250.53125,63.875 249.15625,59.93396 249.15625,57.6875 L 249.15625,33.90625 C 249.15625,25.34562 244.57829,21.147871 240,19.28125 C 237.71031,18.34901 232.60991,17.0625 228.03125,17.0625 z M 372.3125,17.0625 C 366.03766,17.0625 352.72556,18.608202 351.3125,33.34375 L 364.28125,33.34375 C 366.12412,27.60537 368.60054,27.09375 372.8125,27.09375 C 376.70801,27.09375 378.84378,28.843678 378.84375,31.0625 C 378.84375,33.92549 377.50135,34.348481 375.875,34.71875 C 371.28996,35.76828 369.55954,35.753961 364.6875,36.90625 C 354.75774,39.26325 348.62501,43.526913 348.625,51.6875 C 348.625,61.65093 357.9237,65.57582 365.1875,65.65625 C 374.69774,65.76184 380.09376,60.625 380.09375,60.625 L 381.21875,63.875 L 394.8125,63.875 C 394.8125,63.875 393.40623,59.93396 393.40625,57.6875 L 393.40625,33.90625 C 393.40625,25.34562 388.85959,21.147871 384.28125,19.28125 C 381.99157,18.34901 376.89114,17.0625 372.3125,17.0625 z M 281.75,17.9375 C 278.26445,17.9375 273.08189,19.20386 268.84375,22.75 L 268.6875,22.75 L 268,19.21875 L 254.84375,19.21875 L 254.84375,63.84375 L 269.34375,63.84375 L 269.34375,42.28125 C 269.34375,32.01452 272.01678,28.937501 276.875,28.9375 C 279.62744,28.9375 282.61328,30.770897 283.25,35.40625 L 283.25,63.84375 L 297.9375,63.84375 L 297.9375,33.21875 C 296.75226,19.19611 286.56572,17.937498 281.75,17.9375 z M 45.375,19.34375 L 45.375,45.603219 L 45.375,50 C 46.56165,64.02264 56.74714,65.25 61.5625,65.25 C 65.0484,65.25 70.23024,64.0149 74.46875,60.46875 L 74.625,60.46875 L 75.3125,63.96875 L 88.46875,63.96875 L 88.46875,19.34375 L 73.96875,19.34375 L 73.96875,40.90625 C 73.96875,51.17298 71.29573,54.250003 66.4375,54.25 C 63.68506,54.25 60.69923,52.417311 60.0625,47.78125 L 60.0625,19.34375 L 45.375,19.34375 z M 234.96875,42.59375 L 234.96875,44.9375 C 234.96875,50.33963 234.08362,53.851878 227.40625,55.28125 C 223.73751,56.06786 218.74999,55.426139 218.75,51.25 C 218.75,48.34449 219.92079,46.528369 225.21875,45.0625 C 227.91485,44.31238 230.25331,43.696069 234.96875,42.59375 z M 379.25,42.59375 L 379.25,44.9375 C 379.25,50.33963 378.36591,53.851878 371.6875,55.28125 C 368.01876,56.06786 363.03125,55.426139 363.03125,51.25 C 363.03125,48.34449 364.20173,46.528369 369.5,45.0625 C 372.19575,44.31238 374.5356,43.696069 379.25,42.59375 z "
         style="fill:#ffb300;fill-rule:nonzero"
         id="_70492464"
         sodipodi:nodetypes="ccccccccccccccccccccccccccccsccccscccccccccscccccccccccsccccsccccccsccsccccccccssscsscccccsccccssscsscccccscccccccccsccccccccscccccccscccccssccccsscc" />
    </g>
  </g>
</svg>
