<?xml version="1.0" encoding="utf-8"?>
<!-- Generator: Adobe Illustrator 16.0.3, SVG Export Plug-In . SVG Version: 6.00 Build 0)  -->
<!DOCTYPE svg PUBLIC "-//W3C//DTD SVG 1.1//EN" "http://www.w3.org/Graphics/SVG/1.1/DTD/svg11.dtd">
<svg version="1.1" id="Ebene_1" xmlns="http://www.w3.org/2000/svg" xmlns:xlink="http://www.w3.org/1999/xlink" x="0px" y="0px"
	 width="164.409px" height="25.937px" viewBox="0 0 164.409 25.937" enable-background="new 0 0 164.409 25.937"
	 xml:space="preserve">
<path fill="#6F6F6E" d="M3.537,3.973H7.21V15.74h6.209v2.9H3.537V3.973z M24.229,18.641h-3.147l-0.108-1.044
	c-0.823,0.892-1.833,1.33-3.037,1.33c-1.55,0-2.653-0.562-3.312-1.685c-0.351-0.604-0.528-1.57-0.528-2.912V8.076h3.451v6.114
	c0,1.462,0.503,2.193,1.517,2.193c1.146,0,1.716-0.731,1.716-2.193V8.076h3.449V18.641z M32.062,3.973v2.331h-0.548
	c-0.608,0-1.046,0.112-1.321,0.345c-0.199,0.206-0.295,0.577-0.29,1.107v0.32h2.041v2.344h-2.041v8.221h-3.45V10.42h-1.515V8.076
	h1.515v-0.32c-0.103-2.565,1.142-3.828,3.733-3.783H32.062z M33.923,4.768h3.449v3.309h1.975v2.344h-1.975v4.188
	c0.012,0.705,0.069,1.139,0.163,1.303c0.149,0.207,0.575,0.313,1.275,0.324h0.691v2.406h-2.61c-2.023-0.038-3.013-1.063-2.969-3.085
	V10.42h-1.452V8.076h1.452V4.768z M40.265,3.973h3.445v5.286c0.614-0.989,1.571-1.481,2.868-1.481c1.527,0,2.621,0.579,3.277,1.739
	c0.354,0.631,0.526,1.63,0.526,2.999v6.125h-3.436v-5.984c0-1.455-0.501-2.184-1.503-2.184c-1.152,0-1.733,0.729-1.733,2.184v5.984
	h-3.445V3.973z M55.006,11.439h-3.152c0.012-0.959,0.302-1.744,0.875-2.352c0.909-0.967,2.284-1.451,4.132-1.451
	c3.271,0,4.902,1.374,4.902,4.126v5.405c0,0.466,0.005,0.752,0.023,0.859c0.022,0.107,0.108,0.311,0.265,0.613h-3.188l-0.207-0.869
	c-1.014,0.878-2.158,1.319-3.429,1.319c-0.919,0-1.754-0.212-2.492-0.634c-1.024-0.603-1.535-1.498-1.535-2.687
	c0-0.864,0.318-1.601,0.956-2.205c0.694-0.655,2.041-1.153,4.043-1.491c0.893-0.164,1.406-0.269,1.544-0.312
	c0.409-0.138,0.617-0.401,0.617-0.795c0-0.659-0.518-0.99-1.538-0.99C55.63,9.978,55.027,10.466,55.006,11.439 M58.44,13.58
	c-0.562,0.168-1.286,0.363-2.165,0.58c-1.122,0.265-1.677,0.736-1.677,1.416c0,0.715,0.461,1.076,1.393,1.076
	c1.011,0,1.732-0.304,2.176-0.912c0.18-0.277,0.273-0.744,0.273-1.41V13.58z M62.964,8.076h3.152l0.104,1.183
	c0.795-0.989,1.824-1.481,3.089-1.481c1.513,0,2.606,0.579,3.262,1.739c0.355,0.625,0.526,1.622,0.526,2.999v6.125h-3.448v-5.984
	c0-1.455-0.506-2.184-1.513-2.184c-1.149,0-1.724,0.729-1.724,2.184v5.984h-3.448V8.076z M83.917,11.365h-3.244
	c-0.062-0.916-0.582-1.375-1.559-1.375c-0.917,0-1.372,0.293-1.372,0.881c0,0.479,0.552,0.815,1.654,1.01l1.18,0.203
	c2.458,0.432,3.688,1.537,3.688,3.322c0,1.195-0.521,2.141-1.568,2.834c-0.858,0.567-1.979,0.851-3.352,0.851
	c-2.26,0-3.843-0.56-4.752-1.679c-0.488-0.594-0.73-1.361-0.73-2.297h3.377c-0.011,1.053,0.619,1.578,1.876,1.578
	c1.098,0,1.647-0.324,1.647-0.977c0-0.59-0.64-0.992-1.916-1.213l-1.104-0.191c-1.021-0.176-1.773-0.414-2.271-0.712
	c-0.88-0.519-1.322-1.284-1.322-2.3c0-1.182,0.478-2.098,1.418-2.741c0.901-0.614,2.111-0.923,3.643-0.923
	c2.151,0,3.58,0.615,4.28,1.846C83.71,9.886,83.852,10.513,83.917,11.365 M88.668,11.439h-3.145
	c0.004-0.939,0.293-1.721,0.867-2.352c0.887-0.967,2.275-1.451,4.157-1.451c3.264,0,4.892,1.374,4.892,4.126v5.405
	c0,0.035-0.004,0.109-0.016,0.224v0.258c0,0.278,0.104,0.608,0.306,0.991h-3.205l-0.19-0.869c-0.469,0.371-0.777,0.602-0.938,0.697
	c-0.688,0.412-1.516,0.622-2.493,0.622c-0.924,0-1.752-0.212-2.493-0.634c-1.028-0.603-1.548-1.49-1.548-2.666
	c0-1.396,0.713-2.391,2.132-2.976c0.662-0.276,1.614-0.526,2.854-0.741c0.896-0.164,1.413-0.269,1.548-0.312
	c0.409-0.138,0.613-0.401,0.613-0.795c0-0.294-0.143-0.532-0.424-0.716c-0.283-0.182-0.649-0.274-1.104-0.274
	C89.297,9.978,88.691,10.466,88.668,11.439 M92.117,13.58c-0.589,0.179-1.317,0.371-2.18,0.58c-1.117,0.265-1.677,0.736-1.677,1.416
	c0,0.715,0.466,1.076,1.395,1.076c1.019,0,1.741-0.304,2.17-0.912c0.193-0.283,0.292-0.75,0.292-1.41V13.58z"/>
<path fill="#6F6F6E" d="M109.894,10.792h6.759v7.865h-2.85l-0.141-1.203c-0.22,0.253-0.486,0.468-0.793,0.655
	c-1.046,0.662-2.199,0.988-3.464,0.988c-1.725,0-3.2-0.515-4.434-1.537c-0.834-0.696-1.443-1.525-1.835-2.491
	c-0.474-1.163-0.712-2.401-0.712-3.718c0-2.301,0.649-4.172,1.954-5.611c1.331-1.467,3.203-2.201,5.611-2.201
	c2.385,0,4.187,0.818,5.403,2.451c0.672,0.909,1.058,1.887,1.162,2.934h-3.615c-0.091-0.517-0.25-0.933-0.48-1.248
	c-0.599-0.83-1.445-1.246-2.538-1.246c-0.572,0-1.101,0.125-1.586,0.377c-0.489,0.25-0.873,0.596-1.16,1.033
	c-0.598,0.9-0.896,2.067-0.896,3.502c0,1.594,0.381,2.817,1.144,3.66c0.651,0.725,1.527,1.086,2.621,1.086
	c1.215,0,2.118-0.416,2.698-1.258c0.289-0.413,0.481-0.887,0.558-1.417h-3.406V10.792z"/>
<path fill="#6F6F6E" d="M118.092,8.096h3.114l0.121,1.129c0.715-0.955,1.661-1.429,2.826-1.429c0.155,0,0.396,0.017,0.718,0.052
	v2.881c-0.222-0.035-0.412-0.054-0.569-0.054c-0.995,0-1.747,0.375-2.264,1.129c-0.252,0.364-0.404,0.791-0.454,1.278
	c-0.026,0.251-0.045,0.578-0.045,0.988v4.588h-3.447V8.096z"/>
<path fill="#6F6F6E" d="M131.146,7.654c1.807,0,3.232,0.516,4.279,1.549c1.006,1.002,1.504,2.396,1.504,4.184
	c0,1.773-0.498,3.162-1.504,4.162c-1.035,1.033-2.491,1.549-4.362,1.549c-1.861,0-3.309-0.516-4.34-1.549
	c-1.01-1.008-1.518-2.395-1.518-4.155c0-1.8,0.508-3.194,1.518-4.19C127.768,8.17,129.241,7.654,131.146,7.654 M131.011,10.256
	c-0.813,0-1.419,0.308-1.831,0.922c-0.344,0.525-0.512,1.255-0.512,2.183c0,0.917,0.168,1.64,0.512,2.173
	c0.412,0.615,1.034,0.922,1.869,0.922c0.843,0,1.467-0.307,1.873-0.922c0.346-0.523,0.512-1.246,0.512-2.162
	C133.434,11.293,132.626,10.256,131.011,10.256"/>
<path fill="#6F6F6E" d="M148.079,18.656h-3.151l-0.105-1.029c-0.789,0.982-1.806,1.473-3.052,1.473c-0.951,0-1.754-0.24-2.395-0.711
	c-0.766-0.564-1.22-1.355-1.354-2.375c-0.053-0.342-0.075-0.896-0.075-1.656V8.094h3.447v6.129c0,0.557,0.053,0.989,0.155,1.297
	c0.216,0.588,0.665,0.883,1.362,0.883c0.305,0,0.592-0.073,0.865-0.223c0.266-0.145,0.464-0.339,0.594-0.587
	c0.174-0.315,0.259-0.774,0.259-1.37V8.094h3.45V18.656z"/>
<path fill="#6F6F6E" d="M149.392,22.397V8.097h3.349l0.102,0.966c0.875-0.844,1.926-1.266,3.152-1.266
	c0.776,0,1.495,0.162,2.152,0.494c0.646,0.328,1.176,0.797,1.586,1.404c0.763,1.11,1.14,2.428,1.14,3.942
	c0,1.578-0.415,2.854-1.244,3.837c-0.467,0.553-1.056,0.975-1.763,1.26c-0.598,0.243-1.208,0.364-1.842,0.364
	c-1.235,0-2.3-0.403-3.182-1.204v4.503H149.392z M155.165,10.568c-0.662,0-1.198,0.235-1.588,0.707
	c-0.396,0.473-0.592,1.203-0.592,2.196c0,2.003,0.731,3.008,2.203,3.008c1.41,0,2.115-1,2.115-2.989
	C157.304,11.543,156.587,10.568,155.165,10.568"/>
</svg>
