<?xml version="1.0" encoding="UTF-8" standalone="no"?>
<!DOCTYPE svg PUBLIC "-//W3C//DTD SVG 1.1//EN" "http://www.w3.org/Graphics/SVG/1.1/DTD/svg11.dtd">
<svg width="100%" height="100%" viewBox="0 0 586 586" version="1.1" xmlns="http://www.w3.org/2000/svg" xml:space="preserve" style="fill-rule:evenodd;clip-rule:evenodd;stroke-linejoin:round;stroke-miterlimit:1.41421;">
  <g id="path22" transform="matrix(1.33333,0,0,-1.33333,402.827,236.545)">
    <path d="M0,0C-1.616,0 -2.976,-0.042 -3.741,-0.127C-4.634,-1.743 -5.952,-3.911 -7.908,-6.93C22.532,-6.93 50.167,-9.438 80.734,-14.922L72.104,-23.255C44.512,-18.366 21.597,-16.411 -7.61,-16.411C-11.861,-16.411 -12.754,-16.411 -13.774,-16.453C-14.795,-17.983 -17.091,-20.959 -19.386,-23.723C-16.793,-23.553 -11.776,-23.468 -4.847,-23.468C19.174,-23.468 41.621,-25.253 65.982,-29.165L57.351,-37.54C38.815,-34.649 16.155,-32.991 -4.167,-32.991C-11.394,-32.991 -19.599,-33.246 -26.954,-33.671C-28.612,-35.584 -32.948,-40.261 -34.266,-41.706C-24.531,-40.686 -13.817,-40.218 -1.063,-40.218C17.091,-40.218 34.437,-41.409 50.847,-43.832L42.216,-52.122C30.525,-50.677 16.325,-49.827 3.784,-49.827C-28.569,-49.827 -54.078,-56.841 -80.437,-72.954C-55.311,-99.908 -14.157,-116.956 25.721,-116.956L29.462,-116.956L15.518,-130.435C-42.004,-119.635 -102.544,-94.339 -153.688,-59.689C-202.877,-26.486 -220.095,-16.666 -258.485,0.297L-258.74,10.161L-232.764,-0.978L-223.921,6.037L-139.106,-32.821L-144.633,-37.242L-188.167,-18.324L-192.461,-21.682L-169.843,-34.309C-150.754,-44.938 -136.215,-49.699 -122.78,-49.699C-93.403,-49.699 -67.044,-28.867 -50.039,7.737C-37.242,9.396 -23.595,10.161 -7.185,10.161C26.486,10.161 59.179,6.93 96.209,0L87.196,-8.715C64.154,-3.911 24.998,0 0,0M-82.435,-242.117C-192.773,-242.117 -282.277,-152.613 -282.277,-42.275C-282.277,68.063 -192.773,157.568 -82.435,157.568C27.903,157.568 117.407,68.063 117.407,-42.275C117.407,-152.613 27.903,-242.117 -82.435,-242.117M-82.435,170.323C-200.001,170.323 -295.034,75.292 -295.034,-42.275C-295.034,-159.842 -200.001,-254.874 -82.435,-254.874C35.132,-254.874 130.164,-159.842 130.164,-42.275C130.164,75.292 35.132,170.323 -82.435,170.323" style="fill:rgb(10,29,61);fill-rule:nonzero;" />
  </g>
</svg>