<?xml version="1.0" encoding="UTF-8" standalone="no"?>
<!-- Created with Inkscape (http://www.inkscape.org/) -->
<svg
   xmlns:svg="http://www.w3.org/2000/svg"
   xmlns="http://www.w3.org/2000/svg"
   version="1.0"
   width="814.96063"
   height="162.63779"
   id="svg8461">
  <defs
     id="defs8463"><clipPath
   id="clp77">
<path
   d="M 164.4,503.55 L 253.67,503.55 L 253.67,518.03 L 164.4,518.03 L 164.4,503.55 z "
   id="path2388" />

</clipPath>
<clipPath
   id="clp19">
<path
   d="M 49.76,503.14 L 127.27,503.14 L 127.27,518.49 L 49.76,518.49 L 49.76,503.14 z "
   id="path254" />

</clipPath>
<clipPath
   id="clp18">
<path
   d="M 51.62,538.86 L 125.35,538.86 L 125.35,578.98 L 51.62,578.98 L 51.62,538.86 z "
   id="path224" />

</clipPath>
<clipPath
   id="clp73">
<path
   d="M 183.38,592.14 L 234.69,592.14 L 234.69,622.09 L 183.38,622.09 L 183.38,592.14 z "
   id="path2344" />

</clipPath>
<clipPath
   id="clp74">
<path
   d="M 183.38,592.14 L 234.69,592.14 L 234.69,622.09 L 183.38,622.09 L 183.38,592.14 z "
   id="path2364" />

</clipPath>
<clipPath
   id="clp70">
<path
   d="M 178.54,632.58 L 239.43,632.58 L 239.43,678.21 L 178.54,678.21 L 178.54,632.58 z "
   id="path2292" />

</clipPath>
<clipPath
   id="clp71">
<path
   d="M 178.54,632.58 L 239.43,632.58 L 239.43,678.21 L 178.54,678.21 L 178.54,632.58 z "
   id="path2316" />

</clipPath>
<clipPath
   id="clp72">
<path
   d="M 178.54,632.58 L 239.43,632.58 L 239.43,678.21 L 178.54,678.21 L 178.54,632.58 z "
   id="path2328" />

</clipPath>
<clipPath
   id="clp17">
<path
   d="M 45.19,647.41 L 131.79,647.41 L 131.79,663.18 L 45.19,663.18 L 45.19,647.41 z "
   id="path162" />

</clipPath>
<clipPath
   id="clp4">
<path
   d="M 45.29,692.27 L 131.66,692.27 L 131.66,714.87 L 45.29,714.87 L 45.29,692.27 z "
   id="path26" />

</clipPath>
<clipPath
   id="clp5">
<path
   d="M 45.29,692.27 L 131.66,692.27 L 131.66,714.87 L 45.29,714.87 L 45.29,692.27 z "
   id="path42" />

</clipPath>
<clipPath
   id="clp6">
<path
   d="M 45.29,692.27 L 131.66,692.27 L 131.66,714.87 L 45.29,714.87 L 45.29,692.27 z "
   id="path52" />

</clipPath>
<clipPath
   id="clp7">
<path
   d="M 45.29,692.27 L 131.66,692.27 L 131.66,714.87 L 45.29,714.87 L 45.29,692.27 z "
   id="path62" />

</clipPath>
<clipPath
   id="clp8">
<path
   d="M 45.29,692.27 L 131.66,692.27 L 131.66,714.87 L 45.29,714.87 L 45.29,692.27 z "
   id="path72" />

</clipPath>
<clipPath
   id="clp9">
<path
   d="M 45.29,692.27 L 131.66,692.27 L 131.66,714.87 L 45.29,714.87 L 45.29,692.27 z "
   id="path82" />

</clipPath>
<clipPath
   id="clp10">
<path
   d="M 45.29,692.27 L 131.66,692.27 L 131.66,714.87 L 45.29,714.87 L 45.29,692.27 z "
   id="path92" />

</clipPath>
<clipPath
   id="clp11">
<path
   d="M 45.29,692.27 L 131.66,692.27 L 131.66,714.87 L 45.29,714.87 L 45.29,692.27 z "
   id="path102" />

</clipPath>
<clipPath
   id="clp12">
<path
   d="M 45.29,692.27 L 131.66,692.27 L 131.66,714.87 L 45.29,714.87 L 45.29,692.27 z "
   id="path112" />

</clipPath>
<clipPath
   id="clp13">
<path
   d="M 45.29,692.27 L 131.66,692.27 L 131.66,714.87 L 45.29,714.87 L 45.29,692.27 z "
   id="path122" />

</clipPath>
<clipPath
   id="clp14">
<path
   d="M 45.29,692.27 L 131.66,692.27 L 131.66,714.87 L 45.29,714.87 L 45.29,692.27 z "
   id="path132" />

</clipPath>
<clipPath
   id="clp15">
<path
   d="M 45.29,692.27 L 131.66,692.27 L 131.66,714.87 L 45.29,714.87 L 45.29,692.27 z "
   id="path142" />

</clipPath>
<clipPath
   id="clp16">
<path
   d="M 45.29,692.27 L 131.66,692.27 L 131.66,714.87 L 45.29,714.87 L 45.29,692.27 z "
   id="path152" />

</clipPath>

<clipPath
   id="clipPath6577">
<path
   d="M 45.29,692.27 L 131.66,692.27 L 131.66,714.87 L 45.29,714.87 L 45.29,692.27 z "
   id="path6579" />

</clipPath>



<clipPath
   id="clipPath6588">
<path
   d="M 45.29,692.27 L 131.66,692.27 L 131.66,714.87 L 45.29,714.87 L 45.29,692.27 z "
   id="path6590" />

</clipPath>



<clipPath
   id="clipPath6596">
<path
   d="M 45.29,692.27 L 131.66,692.27 L 131.66,714.87 L 45.29,714.87 L 45.29,692.27 z "
   id="path6598" />

</clipPath>



<clipPath
   id="clipPath6604">
<path
   d="M 45.29,692.27 L 131.66,692.27 L 131.66,714.87 L 45.29,714.87 L 45.29,692.27 z "
   id="path6606" />

</clipPath>



<clipPath
   id="clipPath6612">
<path
   d="M 45.29,692.27 L 131.66,692.27 L 131.66,714.87 L 45.29,714.87 L 45.29,692.27 z "
   id="path6614" />

</clipPath>



<clipPath
   id="clipPath6620">
<path
   d="M 45.29,692.27 L 131.66,692.27 L 131.66,714.87 L 45.29,714.87 L 45.29,692.27 z "
   id="path6622" />

</clipPath>



<clipPath
   id="clipPath6628">
<path
   d="M 45.29,692.27 L 131.66,692.27 L 131.66,714.87 L 45.29,714.87 L 45.29,692.27 z "
   id="path6630" />

</clipPath>



<clipPath
   id="clipPath6636">
<path
   d="M 45.29,692.27 L 131.66,692.27 L 131.66,714.87 L 45.29,714.87 L 45.29,692.27 z "
   id="path6638" />

</clipPath>



<clipPath
   id="clipPath6644">
<path
   d="M 45.29,692.27 L 131.66,692.27 L 131.66,714.87 L 45.29,714.87 L 45.29,692.27 z "
   id="path6646" />

</clipPath>



<clipPath
   id="clipPath6652">
<path
   d="M 45.29,692.27 L 131.66,692.27 L 131.66,714.87 L 45.29,714.87 L 45.29,692.27 z "
   id="path6654" />

</clipPath>



<clipPath
   id="clipPath6660">
<path
   d="M 45.29,692.27 L 131.66,692.27 L 131.66,714.87 L 45.29,714.87 L 45.29,692.27 z "
   id="path6662" />

</clipPath>



<clipPath
   id="clipPath6668">
<path
   d="M 45.29,692.27 L 131.66,692.27 L 131.66,714.87 L 45.29,714.87 L 45.29,692.27 z "
   id="path6670" />

</clipPath>



<clipPath
   id="clipPath6676">
<path
   d="M 45.29,692.27 L 131.66,692.27 L 131.66,714.87 L 45.29,714.87 L 45.29,692.27 z "
   id="path6678" />

</clipPath>

































<clipPath
   id="clipPath6684">
<path
   d="M 45.19,647.41 L 131.79,647.41 L 131.79,663.18 L 45.19,663.18 L 45.19,647.41 z "
   id="path6686" />

</clipPath>





<clipPath
   id="clipPath7915">
<path
   d="M 178.54,632.58 L 239.43,632.58 L 239.43,678.21 L 178.54,678.21 L 178.54,632.58 z "
   id="path7917" />

</clipPath>



<clipPath
   id="clipPath7930">
<path
   d="M 178.54,632.58 L 239.43,632.58 L 239.43,678.21 L 178.54,678.21 L 178.54,632.58 z "
   id="path7932" />

</clipPath>



<clipPath
   id="clipPath7939">
<path
   d="M 178.54,632.58 L 239.43,632.58 L 239.43,678.21 L 178.54,678.21 L 178.54,632.58 z "
   id="path7941" />

</clipPath>












<clipPath
   id="clipPath6718">
<path
   d="M 51.62,538.86 L 125.35,538.86 L 125.35,578.98 L 51.62,578.98 L 51.62,538.86 z "
   id="path6720" />

</clipPath>








<clipPath
   id="clipPath7984">
<path
   d="M 164.4,503.55 L 253.67,503.55 L 253.67,518.03 L 164.4,518.03 L 164.4,503.55 z "
   id="path7986" />

</clipPath>




</defs>
  <g
     transform="translate(-795.08883,140.07495)"
     id="layer1">
    <g
       transform="translate(-146.56918,234.8761)"
       id="g10147">
      <path
         d="M 1050.386,-351.27931 C 1027.2433,-362.3703 996.67758,-357.65442 978.51277,-339.40231 C 961.65792,-323.07141 955.37004,-299.23011 961.9199,-276.34943 C 967.77106,-254.95337 987.94446,-235.74058 1009.9518,-231.54873 C 1035.0158,-226.22152 1059.7304,-235.21662 1075.1007,-256.08865 C 1089.2483,-273.55483 1091.5189,-303.15999 1080.1658,-322.63476 C 1074.14,-334.94841 1062.6124,-345.60275 1050.386,-351.27931 z M 966.19912,-276.87338 C 958.68865,-300.88936 966.63578,-325.95331 986.80918,-341.32359 C 996.32823,-348.57202 1007.2446,-352.67657 1019.3836,-353.02592 L 1017.5496,-349.88198 L 966.98506,-276.87338 C 966.98506,-276.6114 966.19912,-276.34943 966.19912,-276.87338 z M 1031.6099,-234.60529 C 1008.0306,-231.54873 986.45983,-242.20307 973.27287,-261.67784 C 970.82763,-265.43304 968.46969,-269.45028 967.15973,-273.99149 L 967.94573,-274.25347 L 1079.7292,-273.99149 C 1073.878,-253.46874 1052.5693,-236.87586 1031.6099,-234.60529 z M 1081.1265,-278.53269 L 1080.6025,-293.99028 L 1021.9161,-294.60154 L 1021.3049,-353.02592 C 1031.7846,-353.81185 1041.8276,-351.01726 1050.648,-346.7381 C 1062.1757,-341.14892 1072.7427,-329.97055 1077.8079,-318.53021 C 1083.5718,-306.91519 1084.8817,-291.45767 1081.1265,-278.53269"
         style="font-size:18.17300034px;font-weight:bold;letter-spacing:-1.79190004;word-spacing:0;fill:#0198ca;fill-rule:nonzero;stroke:none;font-family:Arial"
         id="path2392" />
      <path
         d="M 1184.7882,-264.47276 L 1184.7882,-347.96109 C 1175.0071,-348.39774 1163.6541,-348.39774 1154.397,-347.87372 L 1154.921,-240.10744 L 1227.1436,-239.84546 L 1227.1436,-264.47276 L 1184.7882,-264.47276"
         style="font-size:18.17300034px;font-weight:bold;letter-spacing:-1.79190004;word-spacing:0;fill:#0198ca;fill-rule:nonzero;stroke:none;font-family:Arial"
         id="path2394" />
      <path
         d="M 1304.082,-348.39774 L 1303.6455,-347.87372 L 1304.082,-276.08778 C 1304.3439,-271.3719 1301.0257,-267.00537 1297.0084,-264.64743 C 1290.3713,-262.63884 1282.2493,-262.63884 1275.3503,-263.51215 C 1270.8092,-264.73474 1266.7046,-269.18864 1265.7436,-273.46786 L 1264.5213,-348.1357 C 1255.0019,-348.31037 1244.5227,-348.65972 1235.1779,-347.96109 L 1236.1389,-270.67327 C 1236.6627,-263.25011 1239.1079,-256.87499 1243.4744,-251.1985 C 1253.5177,-237.92417 1269.499,-235.39163 1285.7428,-235.91558 C 1294.5632,-236.43954 1303.8201,-236.09026 1311.6801,-239.40881 C 1322.8583,-244.29936 1332.1152,-255.7397 1333.2508,-267.704 L 1332.7263,-348.31037 L 1304.082,-348.39774"
         style="font-size:18.17300034px;font-weight:bold;letter-spacing:-1.79190004;word-spacing:0;fill:#0198ca;fill-rule:nonzero;stroke:none;font-family:Arial"
         id="path2396" />
      <path
         d="M 1445.471,-348.57235 L 1412.3722,-348.57235 L 1395.3426,-325.0804 L 1379.9724,-348.39774 C 1379.9724,-348.39774 1345.3894,-348.65972 1345.1275,-347.87372 L 1377.6145,-296.87251 L 1341.722,-240.80614 L 1341.9839,-240.36948 L 1376.0424,-240.54409 L 1394.9933,-269.01396 L 1395.4299,-269.27594 C 1401.9797,-259.75688 1407.7437,-249.80117 1414.2062,-240.54409 L 1447.8289,-240.54409 L 1448.3527,-240.98074 L 1413.4205,-295.9119 L 1445.471,-348.57235"
         style="font-size:18.17300034px;font-weight:bold;letter-spacing:-1.79190004;word-spacing:0;fill:#0198ca;fill-rule:nonzero;stroke:none;font-family:Arial"
         id="path2398" />
      <path
         d="M 1529.658,-348.83439 L 1484.158,-348.74702 L 1451.1471,-240.54409 L 1481.4509,-240.45679 L 1488.5245,-261.06684 L 1529.7453,-261.06684 C 1529.7453,-261.06684 1535.0721,-246.6573 1537.9538,-240.45679 L 1569.2186,-240.45679 L 1529.658,-348.83439 z M 1495.0749,-283.2489 C 1495.0749,-283.2489 1502.9343,-310.23414 1507.65,-322.89714 C 1512.4538,-309.88479 1521.9725,-283.2489 1521.9725,-283.2489 L 1495.0749,-283.2489"
         style="font-size:18.17300034px;font-weight:bold;letter-spacing:-1.79190004;word-spacing:0;fill:#0198ca;fill-rule:nonzero;stroke:none;font-family:Arial"
         id="path2400" />
      <path
         d="M 1580.9207,-348.65972 L 1580.6588,-240.45679 L 1610.7879,-240.45679 L 1610.6133,-348.57235 L 1580.9207,-348.65972"
         style="font-size:18.17300034px;font-weight:bold;letter-spacing:-1.79190004;word-spacing:0;fill:#0198ca;fill-rule:nonzero;stroke:none;font-family:Arial"
         id="path2402" />
      <path
         d="M 1712.1791,-283.94753 L 1720.9995,-288.22675 C 1727.6366,-293.11731 1732.3523,-300.27843 1734.2737,-307.61422 C 1737.2433,-321.23783 1732.4396,-335.03611 1721.1741,-343.33252 C 1716.6329,-346.12711 1711.8299,-348.31037 1706.7649,-349.009 C 1684.5824,-349.09637 1638.2973,-348.83439 1638.2973,-348.83439 L 1638.9958,-240.45679 L 1667.99,-240.45679 L 1667.9027,-280.54168 C 1667.9027,-280.54168 1675.2382,-280.97833 1678.6437,-280.54168 L 1704.4064,-241.15542 L 1738.9021,-241.15542 L 1712.1791,-283.94753 z M 1698.0312,-306.21689 C 1695.8479,-304.29561 1693.4901,-303.335 1690.4338,-303.59697 L 1668.2519,-303.4223 C 1667.7274,-311.02014 1667.9027,-319.14187 1667.8147,-326.30299 C 1675.5001,-326.82701 1682.8357,-326.39036 1690.6957,-326.47766 C 1694.9749,-326.21568 1699.6033,-322.72246 1700.8263,-318.61791 C 1702.2231,-314.16401 1701.0882,-309.36083 1698.0312,-306.21689"
         style="font-size:18.17300034px;font-weight:bold;letter-spacing:-1.79190004;word-spacing:0;fill:#0198ca;fill-rule:nonzero;stroke:none;font-family:Arial"
         id="path2404" />
    </g>
  </g>
</svg>
