<?xml version="1.0" encoding="UTF-8" standalone="no"?>
<svg
   xmlns:dc="http://purl.org/dc/elements/1.1/"
   xmlns:cc="http://creativecommons.org/ns#"
   xmlns:rdf="http://www.w3.org/1999/02/22-rdf-syntax-ns#"
   xmlns:svg="http://www.w3.org/2000/svg"
   xmlns="http://www.w3.org/2000/svg"
   xmlns:sodipodi="http://sodipodi.sourceforge.net/DTD/sodipodi-0.dtd"
   xmlns:inkscape="http://www.inkscape.org/namespaces/inkscape"
   version="1.0"
   width="100"
   height="46"
   viewBox="0 0 1000 460"
   preserveAspectRatio="xMidYMid meet"
   id="svg2"
   inkscape:version="0.91 r13725"
   sodipodi:docname="LOGO_LAS_CARGO (1).svg">
  <title
     id="title4208">Líneas Aéreas Suramericanas logo</title>
  <metadata
     id="metadata74">
    <rdf:RDF>
      <cc:Work
         rdf:about="">
        <dc:format>image/svg+xml</dc:format>
        <dc:type
           rdf:resource="http://purl.org/dc/dcmitype/StillImage" />
        <dc:title>Líneas Aéreas Suramericanas logo</dc:title>
        <cc:license
           rdf:resource="http://scripts.sil.org/OFL" />
      </cc:Work>
      <cc:License
         rdf:about="http://scripts.sil.org/OFL">
        <cc:permits
           rdf:resource="http://scripts.sil.org/pub/OFL/Reproduction" />
        <cc:permits
           rdf:resource="http://scripts.sil.org/pub/OFL/Distribution" />
        <cc:permits
           rdf:resource="http://scripts.sil.org/pub/OFL/Embedding" />
        <cc:permits
           rdf:resource="http://scripts.sil.org/pub/OFL/DerivativeWorks" />
        <cc:requires
           rdf:resource="http://scripts.sil.org/pub/OFL/Notice" />
        <cc:requires
           rdf:resource="http://scripts.sil.org/pub/OFL/Attribution" />
        <cc:requires
           rdf:resource="http://scripts.sil.org/pub/OFL/ShareAlike" />
        <cc:requires
           rdf:resource="http://scripts.sil.org/pub/OFL/DerivativeRenaming" />
        <cc:requires
           rdf:resource="http://scripts.sil.org/pub/OFL/BundlingWhenSelling" />
      </cc:License>
    </rdf:RDF>
  </metadata>
  <defs
     id="defs72" />
  <sodipodi:namedview
     pagecolor="#ffffff"
     bordercolor="#666666"
     borderopacity="1"
     objecttolerance="10"
     gridtolerance="10"
     guidetolerance="10"
     inkscape:pageopacity="0"
     inkscape:pageshadow="2"
     inkscape:window-width="1366"
     inkscape:window-height="705"
     id="namedview70"
     showgrid="false"
     inkscape:showpageshadow="false"
     inkscape:zoom="1"
     inkscape:cx="63.662574"
     inkscape:cy="31.731958"
     inkscape:window-x="-8"
     inkscape:window-y="-8"
     inkscape:window-maximized="1"
     inkscape:current-layer="svg2" />
  <g
     id="layerbg1"
     transform="matrix(0.06438043,0,0,0.06361714,-16.147291,-2.3767163)"
     style="fill:#000000;stroke:none">
    <path
       d="m 7361,7094 -31,-26 0,-372 0,-372 29,-28 28,-27 354,3 c 300,3 361,6 397,20 135,51 193,152 158,273 -21,69 -74,125 -157,165 l -59,27 49,79 c 26,44 62,101 79,128 18,28 32,59 32,71 0,51 -71,95 -123,76 -31,-12 -50,-38 -157,-208 l -83,-133 -178,0 -179,0 0,129 c 0,145 -10,185 -51,206 -41,22 -73,18 -108,-11 z m 702,-518 c 67,-33 74,-103 15,-127 -23,-8 -117,-14 -295,-17 l -263,-4 0,87 0,87 253,-4 c 223,-3 256,-5 290,-22 z"
       id="path5"
       inkscape:connector-curvature="0" />
    <path
       d="m 838,7090 c -131,-22 -293,-149 -338,-265 -19,-48 -24,-80 -24,-155 0,-83 3,-102 27,-151 34,-71 128,-162 203,-196 108,-49 138,-53 457,-53 l 299,0 29,29 c 35,36 37,61 5,98 l -24,28 -299,5 c -274,5 -302,8 -351,27 -122,49 -168,117 -160,234 6,82 38,143 96,183 74,51 110,56 418,56 l 282,0 31,26 c 50,42 38,104 -24,130 -27,11 -92,14 -307,13 -150,-1 -294,-5 -320,-9 z"
       id="path7"
       inkscape:connector-curvature="0" />
    <path
       d="m 4761,7087 c -32,-16 -39,-26 -191,-304 -74,-134 -136,-243 -139,-243 -101.3297,160.1673 -205.7105,339.5053 -313,505 -24,28 -37,35 -68,35 -23,0 -48,-8 -64,-21 -51,-40 -43,-59 170,-416 108,-180 207,-338 221,-350 16,-16 37,-23 63,-23 26,0 47,7 63,23 14,12 101,164 195,337 228,424 206,374 187,411 -9,17 -31,37 -50,45 -41,17 -44,17 -74,1 z"
       id="path9"
       inkscape:connector-curvature="0"
       sodipodi:nodetypes="ccccscccsccccc" />
    <path
       d="m 11106,7089 c -125,-21 -271,-130 -328,-247 -31,-62 -33,-74 -33,-167 0,-87 3,-107 26,-156 50,-105 171,-197 309,-234 42,-11 124,-15 352,-15 l 297,0 27,23 c 35,30 37,79 5,110 -21,21 -30,22 -319,27 -273,5 -301,8 -350,27 -115,46 -161,109 -162,219 0,115 69,205 183,239 38,11 105,15 269,15 l 218,0 0,-146 0,-146 29,-29 c 22,-21 39,-29 66,-29 27,0 44,8 66,29 l 29,29 0,197 c 0,121 -4,204 -11,217 -23,43 -61,48 -351,47 -150,-1 -295,-5 -322,-10 z"
       id="path11"
       inkscape:connector-curvature="0" />
    <path
       d="m 14573,7085 c -129,-36 -249,-131 -307,-240 -29,-57 -31,-66 -31,-170 0,-97 3,-116 26,-165 84,-179 285,-281 525,-266 56,4 128,13 160,22 135,35 239,120 297,242 28,60 32,77 32,157 0,64 -5,104 -19,140 -41,110 -144,211 -267,262 -57,23 -80,26 -214,29 -111,3 -164,0 -202,-11 z m 333,-170 c 61,-18 127,-73 155,-128 47,-92 31,-225 -36,-292 -97,-96 -360,-113 -497,-32 -72,44 -108,112 -108,208 0,124 56,201 179,245 51,18 245,18 307,-1 z"
       id="path13"
       inkscape:connector-curvature="0" />
  </g>
  <g
     id="layerbg2"
     transform="matrix(0.06438043,0,0,0.06361714,-16.147291,-2.3767163)"
     style="fill:#f1c001;stroke:none">
    <path
       d="m 3925,4021 c -9,-15 303,-517 522,-840 607,-895 1315,-1772 1908,-2366 321,-321 591,-538 741,-595 103,-39 181,-16 364,108 150,102 287,219 514,442 301,296 553,570 836,910 57,69 112,135 123,147 16,18 17,23 6,27 -8,3 -162,62 -344,131 -1450,555 -2999,1227 -4322,1876 -189,92 -345,164 -348,160 z"
       id="path16"
       inkscape:connector-curvature="0" />
  </g>
  <g
     id="layerbg3"
     transform="matrix(0.06438043,0,0,0.06361714,-16.147291,-2.3767163)"
     style="fill:#0086cd;stroke:none">
    <path
       d="m 6700,5749 c -591,-21 -1138,-63 -1635,-125 -329,-41 -759,-114 -777,-132 -5,-5 47,-55 119,-114 1043,-858 2540,-1805 4233,-2678 506,-261 702,-354 715,-338 438,576 868,1212 1161,1718 106,184 291,552 341,680 80,201 115,365 99,453 -9,50 -78,115 -173,165 -365,189 -1299,326 -2538,372 -306,11 -1221,11 -1545,-1 z"
       id="path19"
       inkscape:connector-curvature="0" />
  </g>
  <g
     id="layerbg4"
     transform="matrix(0.06438043,0,0,0.06361714,-16.147291,-2.3767163)"
     style="fill:#1b3e92;stroke:none">
    <path
       d="m 12345,5473 c -499,-23 -1209,-86 -1283,-114 -23,-9 -23,-9 12,-44 21,-21 38,-49 42,-71 16,-86 -20,-250 -95,-439 -27,-66 -47,-123 -45,-126 2,-4 43,2 91,13 228,51 612,106 943,135 252,22 1177,25 1365,5 420,-46 695,-128 891,-268 140,-99 219,-234 244,-415 37,-267 -98,-454 -458,-637 -236,-120 -399,-177 -1102,-382 -690,-201 -1037,-323 -1301,-456 -198,-100 -343,-199 -467,-318 -124,-120 -190,-204 -242,-311 -59,-120 -107,-359 -77,-383 18,-15 474,-200 821,-334 203,-78 312,-116 319,-109 6,6 -2,24 -26,53 -119,147 -141,350 -56,525 31,62 144,176 239,240 239,160 465,248 1120,439 832,242 1140,348 1421,489 243,122 388,225 540,381 202,210 275,372 286,636 15,340 -98,607 -360,853 -458,432 -1302,651 -2477,643 -157,-1 -312,-3 -345,-5 z"
       id="path22"
       inkscape:connector-curvature="0" />
    <path
       d="m 465,5358 0,-5073 980,0 c 2.3982,1494.9992 3.6664,2989.9996 5,4485 700.9102,7.8297 1403.9661,-13.0309 2104,9 3,5 -3,35 -14,67 -53,152 -67,282 -37,328 19,29 132,97 232,141 42,18 77,37 78,41 z"
       id="path24"
       inkscape:connector-curvature="0"
       sodipodi:nodetypes="cccccccccc" />
    <path
       d="m 11025,1120 c -10,-17 95,-148 189,-237 366,-345 961,-556 1766,-625 214,-18 772,-15 1015,5 282,24 435,43 448,56 14,14 2,17 -133,31 -595,59 -1492,255 -2490,542 -223,64 -732,218 -771,233 -10,4 -20,1 -24,-5 z"
       id="path26"
       inkscape:connector-curvature="0" />
    <path
       d="m 14955,1030 c -104,-25 -465,-85 -625,-105 -345,-42 -445,-48 -868,-51 -232,-1 -422,-6 -423,-10 -2,-23 769,-234 1163,-318 337,-72 850,-148 870,-128 4,4 7,148 6,318 -3,357 10,325 -123,294 z"
       id="path28"
       inkscape:connector-curvature="0" />
  </g>
  <g
     id="layer102"
     transform="matrix(0.06438043,0,0,0.06361714,-16.147291,-2.3767163)"
     style="fill:#f1c001;stroke:none">
    <path
       d="m 3942,3997 c 6,-12 55,-94 108,-182 629,-1037 1562,-2246 2310,-2995 411,-412 703,-623 841,-607 146,17 406,207 768,562 106,104 253,254 326,332 263,280 650,736 631,742 -6,2 -157,60 -336,128 -1456,558 -2996,1226 -4317,1874 -258,126 -340,162 -331,146 z"
       id="path49"
       inkscape:connector-curvature="0" />
  </g>
</svg>
