<?xml version="1.0" encoding="UTF-8" standalone="no"?>
<!-- Generator: Adobe Illustrator 14.0.0, SVG Export Plug-In . SVG Version: 6.00 Build 43363)  -->
<svg xmlns:dc="http://purl.org/dc/elements/1.1/" xmlns:cc="http://creativecommons.org/ns#" xmlns:rdf="http://www.w3.org/1999/02/22-rdf-syntax-ns#" xmlns:svg="http://www.w3.org/2000/svg" xmlns="http://www.w3.org/2000/svg" xmlns:xlink="http://www.w3.org/1999/xlink" xmlns:sodipodi="http://sodipodi.sourceforge.net/DTD/sodipodi-0.dtd" xmlns:inkscape="http://www.inkscape.org/namespaces/inkscape" version="1.1" id="Layer_1" x="0px" y="0px" width="798" height="179" viewBox="0 0 798.00004 179" enable-background="new 0 0 595.22 842" xml:space="preserve">
<path clip-rule="evenodd" d="m 501.49553,48.09603 v 25.94284 h -64.85531 v 10.872823 h 64.85531 v 25.942837 h -64.85531 v 9.9218 h 64.85531 V 146.5246 H 335.35115 V 48.09603 h 25.74459 v 72.6803 h 49.60164 v -72.6803 h 25.94284 v 25.94284 l 26.89396,-25.94284 h 37.96135 m 103.77503,0 h 37.95035 L 541.7446,146.5246 H 513.70504 V 48.09603 h 25.74818 v 63.70962 L 605.27056,48.09603 z M 37.965064,146.5246 H 4.1420399e-5 L 101.29279,48.09603 h 26.51564 v 63.51863 l 65.42811,-63.51863 h 26.51573 v 74.39145 L 296.2441,48.09603 h 26.32474 v 98.42857 h -62.18937 v -25.74827 h 36.43752 V 84.529796 L 232.72181,146.5246 H 193.80943 V 84.529796 L 129.71791,146.5246 H 101.86559 V 84.529796 L 37.965064,146.5246 z" id="path255" style="fill: rgb(0, 73, 144); fill-rule: evenodd;"/><path clip-rule="evenodd" d="M 642.48647,143.55024 789.67591,-1.285681e-4 C 792.74567,20.889987 790.05807,36.220717 767.62901,56.916259 L 642.48647,178.80905 v -35.25881" id="path257" style="fill: rgb(0, 73, 144); fill-rule: evenodd;"/><path clip-rule="evenodd" d="m 741.56131,143.73756 55.39981,-54.044864 c 3.05884,20.890114 0.38575,36.220844 -22.04314,56.923724 l -33.35667,32.38353 v -35.26239" id="path259" style="fill: rgb(0, 73, 144); fill-rule: evenodd;"/><path clip-rule="evenodd" d="M 692.12122,143.73756 793.31113,44.842614 c 3.07352,20.893785 0.38217,36.224515 -22.03213,56.927396 l -79.15778,77.22994 v -35.26239" id="path261" style="fill: rgb(0, 73, 144); fill-rule: evenodd;"/>


</svg>