<?xml version="1.0" encoding="utf-8"?>
<!-- Generator: Adobe Illustrator 15.0.0, SVG Export Plug-In . SVG Version: 6.00 Build 0)  -->
<!DOCTYPE svg PUBLIC "-//W3C//DTD SVG 1.1//EN" "http://www.w3.org/Graphics/SVG/1.1/DTD/svg11.dtd">
<svg version="1.1" id="svg2232" xmlns:svg="http://www.w3.org/2000/svg"
	 xmlns="http://www.w3.org/2000/svg" xmlns:xlink="http://www.w3.org/1999/xlink" x="0px" y="0px" width="885.828px"
	 height="143.504px" viewBox="0 0 885.828 143.504" enable-background="new 0 0 885.828 143.504" xml:space="preserve">
<g id="layer1" transform="translate(205.197, -541.196)">
	<g id="g2240" transform="translate(-1529.23, 1325.68)">
		<g id="g21908" transform="translate(17.7165, 17.7286)">
			<path id="path19740" fill="#235099" d="M1324.546-784.487h849.819c0,0-0.207,73.973,0,78.112c0,4.242,3.105,29.486-36.727,29.797
				c-63.836,0.311-813.61,0-813.61,0L1324.546-784.487"/>
			<path id="path19742" fill="#FFFFFF" d="M1436.7-759.87l-35.906,35.906h13.25l22.656-22.656v22.656h9.406l22.563-22.656v22.656
				h13.344l9.406-9.406l13.25-13.25v13.25h-13.25v9.406h22.563v-35.906h-9.406l-26.5,26.5v-26.5h-9.406l-22.563,22.656v-22.656
				H1436.7z M1517.919-759.87v35.906h58.469v-9.406h-22.563v-3.844h22.563v-9.406h-22.563v-3.844v-9.406h-9.438v26.5h-17.063v-26.5
				H1517.919z M1553.825-750.464h22.563v-9.406h-13.25L1553.825-750.464z M1580.294-759.87v35.906h9.438l35.875-35.906h-13.344
				l-22.531,22.656v-22.656H1580.294z"/>
			<path id="path19750" fill="#FFFFFF" d="M2100.294-775.807l-52.75,52.781v13.25l46.844-46.875l0.125-0.125
				c3.621-3.621,5.781-8.579,5.781-14.063V-775.807z M2100.294-759.87l-35.906,35.906v13.25l30.125-30.125
				c3.621-3.621,5.781-8.579,5.781-14.063V-759.87z M2100.294-743.932l-20.063,19.969v13.25l14.281-14.188
				c3.518-3.621,5.781-8.579,5.781-14.063V-743.932z"/>
			<path id="path19756" fill="#FFFFFF" d="M1895.138-759.87l-15.125,35.906h5.094l3.906-9.313h16.688l3.813,9.313h5.375
				l-14.469-35.906H1895.138z M1916.951-759.87v5.188h5.688v-5.188H1916.951z M1945.419-759.87v35.906h4.656v-35.906H1945.419z
				 M1956.701-759.87v5.188h5.563v-5.188H1956.701z M1632.669-759.776v35.813h4.938v-16.156h17.094v16.156h4.969v-35.813h-4.969
				v15.313h-17.094v-15.313H1632.669z M1794.763-759.776v5.094h5.594v-5.094H1794.763z M1897.513-754.901l6.531,17.281h-13.375
				L1897.513-754.901z M1981.201-749.714c-2.484,0-5.98,1.333-7.531,4.438h-0.125v-3.625h-4.656v24.938h4.781v-13.563
				c0-4.863,1.244-5.995,1.969-6.719c1.965-1.966,4.531-1.875,4.531-1.875c4.035,0,5.688,2.299,5.688,6.438v15.719h4.781v-17.281
				C1990.638-749.211,1982.958-749.714,1981.201-749.714z M1707.544-749.62c-2.483,0-5.979,1.23-7.531,4.438h-0.094v-3.719h-4.656
				v24.938h4.75v-13.563c0-4.863,1.244-5.901,1.969-6.625c1.965-1.966,4.531-1.844,4.531-1.844c3.931,0,5.688,2.268,5.688,6.406
				v15.625h4.781v-17.188C1716.981-749.221,1709.199-749.62,1707.544-749.62z M1761.357-749.62c-4.967,0-9.199,1.954-9.406,7.438
				h4.969c0-2.586,2.275-4.031,4.656-4.031c4.965,0,5.281,2.592,5.281,6.938h-4.375c-5.898,0-12.094,1.964-12.094,9
				c0,4.862,4.342,7.125,8.688,7.125c3.414,0,6.229-1.324,7.781-4.531h0.094c0.104,1.241,0.209,2.269,0.313,3.406
				c0,0.62,0.826,0.406,1.344,0.406h3.094c-0.104-2.173-0.188-4.247-0.188-5.281v-12
				C1771.513-748.083,1766.425-749.62,1761.357-749.62z M1815.576-749.62c-4.863,0-9.199,1.86-9.406,7.344h4.969
				c0.104-2.586,2.275-3.938,4.656-3.938c5.068,0,5.25,2.602,5.25,6.844h-4.219c-5.898,0-12.125,2.058-12.125,9.094
				c0,4.862,4.342,7.031,8.688,7.031c3.414,0,6.229-1.334,7.781-4.438h0.094c0,1.138,0.115,2.269,0.219,3.406
				c0.104,0.62,0.93,0.313,1.344,0.313h3.188c-0.207-2.069-0.188-4.144-0.188-5.281v-11.906
				C1825.826-748.083,1820.748-749.62,1815.576-749.62z M1845.357-749.62c-2.484,0-5.877,1.23-7.531,4.438h-0.125v-3.719h-4.531
				v24.938h4.656v-13.563c0-4.863,1.338-6.004,2.063-6.625c1.965-2.069,4.563-1.844,4.563-1.844c3.932,0,5.688,2.277,5.688,6.313
				v15.719h4.75v-17.188C1854.888-749.221,1847.115-749.62,1845.357-749.62z M2006.982-749.62c-7.967,0-11.594,6.102-11.594,13.344
				c0,7.449,3.086,13.031,11.156,13.031c5.896,0,10.369-2.778,11.094-8.469h-4.969c-0.518,3.621-2.4,5.063-6.125,5.063
				c-4.76,0-6.602-4.561-6.188-8.906h17.594v-2.281C2017.951-744.771,2014.431-749.516,2006.982-749.62z M2031.388-749.62
				c-4.553,0-9.813,2.286-9.813,7.563c0,9.725,15.188,5.579,15.188,11.063c0,3.311-2.895,4.344-5.688,4.344
				c-2.898,0-4.959-1.646-5.063-4.75h-4.969c0,5.794,4.357,8.156,9.531,8.156c5.172,0,11.156-1.864,11.156-7.969
				c0-5.587-4.854-6.093-9.094-7.438c-1.863-0.621-6.125-0.832-6.125-3.625c0-2.69,2.078-3.938,4.563-3.938
				c2.793,0,5.176,1.042,4.969,4.25h4.969C2041.425-747.654,2036.042-749.62,2031.388-749.62z M1733.325-749.526
				c-7.553,0-11.594,5.705-11.594,12.844c0,7.035,3,12.406,10.656,12.406c3.104,0,6.636-1.25,8.188-4.25h0.094
				c-0.104,5.587-0.119,11.188-6.844,11.188c-3.311,0-5.574-1.252-5.781-4.563h-4.969c0,5.69,3.838,7.969,9.219,7.969
				c9.208,0,13.125-3.708,13.125-12.813v-17.5c0-1.552,0.209-3.011,0.313-4.563h-4.844l-0.219,3.75c0,0.414-0.615-1.053-0.719-1.156
				C1738.398-748.49,1735.704-749.526,1733.325-749.526z M1791.169-749.214c-3.414,0-6.652,1.67-7.375,5.188h-0.094v-4.875h-4.656
				v24.938h4.656v-12.406c0-5.173,1.029-8.387,7.031-8.594c0.619,0,1.369,0.012,2.094,0.219v-4.469
				C1792.205-749.214,1791.789-749.214,1791.169-749.214z M1941.388-749.214c-3.414,0-6.621,1.67-7.344,5.188h-0.125v-4.875h-4.656
				v24.938h4.656v-12.406c0-5.173,1.029-8.387,7.031-8.594c0.619,0,1.348,0.012,1.969,0.219v-4.469
				C1942.402-749.214,1941.904-749.214,1941.388-749.214z M1666.7-748.901v16.75c0,4.966,3.004,9,8.281,9
				c3.414,0,6.606-1.334,8.469-4.438h0.094v3.625h4.656v-24.938h-4.75v12.844c0,0.621-0.007,3.495-0.938,5.875
				c-0.932,2.587-3.597,3.531-5.563,3.531c-4.449,0-5.5-3.093-5.5-7.438v-14.813H1666.7z M1795.201-748.901v25.031h4.75v-25.031
				H1795.201z M1917.482-748.901v24.938h4.656v-24.938H1917.482z M1957.107-748.901v24.938h4.75v-24.938H1957.107z
				 M2006.544-746.214c4.551,0,6.541,3.227,6.438,7.469h-12.625C2000.357-742.884,2002.613-746.214,2006.544-746.214z
				 M1733.731-746.12c5.069,0,6.938,4.356,6.938,9.219c0,4.862-1.868,9.219-6.938,9.219c-5.587,0-7.031-5.288-7.031-9.219
				C1726.7-740.833,1728.145-746.12,1733.731-746.12z M1762.076-736.057h4.781c0.104,4.656-0.945,9.5-6.531,9.5
				c-2.795,0-4.969-1.553-4.969-4.656C1755.357-734.835,1759.177-735.851,1762.076-736.057z M1816.388-736.057h4.656
				c0.104,4.656-0.914,9.406-6.5,9.406c-2.795,0-4.875-1.563-4.875-4.563C1809.669-734.938,1813.49-735.954,1816.388-736.057z"/>
		</g>
	</g>
</g>
</svg>
