<?xml version="1.0" encoding="UTF-8" standalone="no"?>
<svg
   xmlns:dc="http://purl.org/dc/elements/1.1/"
   xmlns:cc="http://creativecommons.org/ns#"
   xmlns:rdf="http://www.w3.org/1999/02/22-rdf-syntax-ns#"
   xmlns:svg="http://www.w3.org/2000/svg"
   xmlns="http://www.w3.org/2000/svg"
   width="500"
   height="50"
   viewBox="0 0 132.29166 13.229167"
   version="1.1"
   id="svg8">
  <defs
     id="defs2" />
  <metadata
     id="metadata5">
    <rdf:RDF>
      <cc:Work
         rdf:about="">
        <dc:format>image/svg+xml</dc:format>
        <dc:type
           rdf:resource="http://purl.org/dc/dcmitype/StillImage" />
        <dc:title></dc:title>
      </cc:Work>
    </rdf:RDF>
  </metadata>
  <g
     id="layer1">
    <path
       id="path899"
       style="font-style:normal;font-variant:normal;font-weight:normal;font-stretch:normal;font-size:24.636px;line-height:1.25;font-family:'Baskerville Old Face';-inkscape-font-specification:'Baskerville Old Face';fill:#0000ff;fill-opacity:1;stroke-width:0.366966"
       d="m 26.95676,1.2265016 c -0.692838,0 -1.292562,0.2340539 -1.799049,0.7023161 -0.286691,0.2628003 -0.511223,0.5782505 -0.673682,0.9461708 -0.15768,0.3679219 -0.236466,0.7503312 -0.236466,1.1469207 0,0.6450567 0.205488,1.1919485 0.616413,1.641098 0.148124,0.1624584 0.341786,0.3226403 0.580696,0.4803204 0.243687,0.1576817 0.59231,0.3513444 1.046238,0.5806973 0.516044,0.2627999 0.898455,0.4801119 1.14692,0.6521285 0.253245,0.1720143 0.448903,0.3512397 0.58747,0.5375894 0.133789,0.1815706 0.239144,0.3988844 0.315597,0.6521285 0.08123,0.2532435 0.121619,0.5017348 0.121619,0.7454219 0,0.5638263 -0.178918,1.0296288 -0.537282,1.3975488 -0.358366,0.367923 -0.812342,0.552063 -1.361833,0.552063 -0.788403,-10e-7 -1.442953,-0.401454 -1.963777,-1.204191 C 24.522489,9.6218992 24.283522,9.0270915 24.082838,8.2721365 h -0.165034 l -0.02155,2.9598255 h 0.165033 c 0.08601,-0.229353 0.243579,-0.343923 0.472932,-0.343923 0.07167,0 0.136329,0.0095 0.193669,0.02864 0.05734,0.01911 0.233952,0.09329 0.5302,0.222304 0.568604,0.243687 1.161109,0.365475 1.777496,0.365475 0.673724,0 1.259012,-0.15066 1.755943,-0.451688 0.496932,-0.305803 0.869821,-0.738126 1.118287,-1.297174 0.176793,-0.401369 0.2651,-0.821865 0.2651,-1.2614599 0,-0.6593898 -0.195966,-1.2374573 -0.587777,-1.7343898 C 29.243104,6.3153691 28.681776,5.9093084 27.902931,5.5413866 L 26.892408,5.0539848 c -1.02731,-0.4873766 -1.54103,-1.1301017 -1.54103,-1.9280588 0,-0.2006838 0.03579,-0.4012573 0.107457,-0.6019411 0.07645,-0.2006838 0.179194,-0.3753028 0.308205,-0.5234266 0.310583,-0.3631421 0.733384,-0.5446722 1.268542,-0.5446722 0.36792,0 0.692892,0.090918 0.974805,0.2724891 0.281913,0.1767944 0.539925,0.4515456 0.774057,0.8242441 0.129011,0.205462 0.238972,0.4299942 0.329759,0.6736817 0.09556,0.2389093 0.207828,0.5852277 0.336839,1.039157 h 0.164727 l -0.05019,-2.8452876 h -0.164727 c -0.05734,0.2436874 -0.169603,0.3654752 -0.336839,0.3654752 -0.0669,0 -0.143377,-0.012139 -0.229384,-0.036025 C 28.748624,1.7209517 28.586137,1.6589062 28.347228,1.5633425 28.027089,1.4295533 27.771382,1.3412459 27.580254,1.2982422 27.389125,1.2504604 27.181334,1.2265016 26.95676,1.2265016 Z M 1.3122259,1.4703578 v 0.1647253 c 0.3440294,0.019113 0.6187806,0.083769 0.8242442,0.1936671 0.2102402,0.1051216 0.3750285,0.2699099 0.4944831,0.4944847 0.086007,0.1624583 0.1411418,0.4204709 0.1650343,0.7740567 0.01433,0.1959056 0.021553,0.4036976 0.021553,0.6234941 v 5.2823015 c 0,0.4873749 -0.028874,0.8504333 -0.086212,1.0893448 -0.05256,0.23413 -0.1526922,0.427793 -0.300816,0.580695 -0.1337893,0.138567 -0.2867527,0.238699 -0.458769,0.300816 -0.1672365,0.06212 -0.3871608,0.10051 -0.6595174,0.114846 v 0.164726 h 3.304055 V 11.088789 C 4.3439243,11.07446 4.1220043,11.036059 3.9499895,10.973943 3.782753,10.911826 3.6320928,10.811694 3.4983036,10.673127 3.3501798,10.520225 3.2474354,10.326562 3.1900972,10.092432 3.1375371,9.8583001 3.1112752,9.49524 3.1112752,9.0030872 V 2.7244259 L 6.7808058,11.253515 H 6.9313681 L 10.622451,2.5954165 v 6.4076707 c 0,0.4873749 -0.02856,0.8504333 -0.0859,1.0893448 -0.05256,0.23413 -0.153,0.427793 -0.301124,0.580695 -0.133788,0.133789 -0.2864463,0.233921 -0.4584611,0.300816 -0.1672364,0.06212 -0.3894639,0.10051 -0.6665986,0.114846 v 0.164726 h 4.5796777 v -0.164726 c -0.47782,-0.02389 -0.848097,-0.162418 -1.110898,-0.415662 -0.148123,-0.143346 -0.250866,-0.334705 -0.308206,-0.573614 -0.05733,-0.2389094 -0.0859,-0.604273 -0.0859,-1.0964258 V 3.7207857 c 0,-0.3392528 0.01674,-0.6330474 0.05019,-0.881513 0.01911,-0.1863493 0.0549,-0.3393143 0.107456,-0.458769 0.05256,-0.1242328 0.131346,-0.2364973 0.236466,-0.3368408 0.138569,-0.1385674 0.289229,-0.2367039 0.451687,-0.2940421 0.167237,-0.062116 0.386853,-0.1002032 0.65921,-0.1145377 V 1.4703578 H 10.744379 L 7.5262277,9.1320964 4.4229212,1.4703578 Z m 13.0875211,0 v 0.1647253 c 0.277135,0.01433 0.499364,0.052421 0.6666,0.1145377 0.172015,0.062116 0.322368,0.1625577 0.451379,0.3011251 0.148123,0.1529019 0.248563,0.3488674 0.301123,0.5877768 0.05734,0.2341311 0.08591,0.5948865 0.08591,1.082263 v 5.2823015 c 0,0.4873749 -0.02856,0.8504333 -0.08591,1.0893448 -0.05256,0.23413 -0.153,0.427793 -0.301123,0.580695 -0.133789,0.138567 -0.286445,0.238699 -0.458462,0.300816 -0.167236,0.06212 -0.38716,0.10051 -0.659517,0.114846 v 0.164726 h 8.550642 l 0.09298,-2.8523693 -0.164725,-0.00739 c -0.09078,0.4300368 -0.191227,0.7766625 -0.301125,1.039463 -0.10512,0.2628016 -0.243648,0.4968544 -0.415663,0.7023163 -0.243687,0.305805 -0.559137,0.532639 -0.94617,0.680763 -0.387033,0.143346 -0.866964,0.215222 -1.440348,0.215222 -0.544713,0 -0.984563,-0.07909 -1.319037,-0.236775 C 18.12661,10.632282 17.880732,10.379187 17.718274,10.035155 17.622708,9.8344721 17.558051,9.5859827 17.524606,9.2897347 17.491157,8.9887094 17.47442,8.5107723 17.47442,7.856161 V 6.2150635 h 0.408581 c 0.353587,0 0.645078,0.035784 0.874431,0.1074564 0.229353,0.071674 0.415797,0.1839386 0.559143,0.3368407 0.148125,0.1576801 0.262693,0.3487319 0.343922,0.573307 0.08601,0.2245745 0.150665,0.5209815 0.193668,0.8889018 h 0.164725 l 0.02864,-3.841646 -0.164725,-0.00739 c -0.04301,0.3679203 -0.09814,0.6475868 -0.165033,0.8387143 -0.06212,0.1863492 -0.159946,0.3488359 -0.293736,0.4874033 -0.138568,0.1481238 -0.317793,0.2508666 -0.53759,0.3082048 -0.219796,0.05734 -0.547071,0.085905 -0.981888,0.085905 H 17.474421 V 1.6923425 h 1.641406 c 0.506487,0 0.912548,0.035784 1.218352,0.1074564 0.305806,0.066894 0.571035,0.184076 0.79561,0.3513125 0.272356,0.2006838 0.480147,0.4324329 0.623494,0.6952332 0.143345,0.2628018 0.246089,0.5949906 0.308205,0.9963582 l 0.165034,-0.00739 -0.121928,-2.3649656 z m 21.114736,0 -2.622985,6.7586724 c -0.23891,0.6163877 -0.432573,1.0798857 -0.580697,1.3904697 -0.143345,0.3058037 -0.291395,0.5565961 -0.444297,0.7525021 -0.181571,0.243687 -0.368015,0.420611 -0.559143,0.530509 -0.191127,0.109897 -0.413355,0.171942 -0.666599,0.186278 v 0.164726 h 3.21107 v -0.164726 c -0.29147,-0.02389 -0.530437,-0.100373 -0.716787,-0.229384 -0.133789,-0.09556 -0.241448,-0.219654 -0.322677,-0.372557 -0.07645,-0.152902 -0.114538,-0.317998 -0.114538,-0.4947918 0,-0.301027 0.107658,-0.7143046 0.322677,-1.2399067 l 0.178889,-0.4442972 0.372865,-0.9889678 h 3.153493 l 0.688153,1.691284 0.121927,0.3011247 c 0.13379,0.3296949 0.20075,0.5923124 0.20075,0.7882198 0,0.329695 -0.148357,0.588013 -0.444605,0.774364 -0.167237,0.105121 -0.463335,0.176689 -0.888595,0.214912 v 0.164726 h 4.708688 V 11.088789 C 40.815824,11.05534 40.593904,11.016947 40.44578,10.973943 40.297656,10.926164 40.166039,10.859509 40.051362,10.773502 39.888904,10.649269 39.738551,10.465128 39.599984,10.22144 39.461416,9.9777518 39.274972,9.5716913 39.040841,9.0030872 L 35.923063,1.4703578 Z m 5.798338,0 v 0.1647253 c 0.272358,0.01433 0.494585,0.052421 0.6666,0.1145377 0.172015,0.062116 0.322675,0.1625577 0.451686,0.3011251 0.152903,0.1529019 0.255647,0.3465643 0.308207,0.5806954 0.05256,0.2341311 0.07882,0.5971897 0.07882,1.0893444 v 5.2823015 c 0,0.4921528 -0.02626,0.8552129 -0.07882,1.0893448 -0.05256,0.23413 -0.155304,0.427793 -0.308207,0.580695 -0.129011,0.133789 -0.279671,0.233921 -0.451686,0.300816 -0.167236,0.06212 -0.389465,0.10051 -0.6666,0.114846 v 0.164726 h 5.239504 c 0.707172,0 1.254064,-0.03809 1.641098,-0.114538 0.391811,-0.07645 0.728608,-0.212675 1.010522,-0.408581 0.310582,-0.219797 0.552161,-0.508985 0.724176,-0.867349 0.176793,-0.3631436 0.265101,-0.7619857 0.265101,-1.196801 0,-0.4300368 -0.08601,-0.8291875 -0.258019,-1.1971078 C 49.767966,7.0964395 49.531302,6.7859043 49.225498,6.5374375 49.020035,6.374979 48.790897,6.2485849 48.537653,6.1577993 48.284409,6.0670138 47.928261,5.9833144 47.469554,5.9068618 47.804028,5.7874072 48.059735,5.679749 48.236529,5.5841853 48.413321,5.4838434 48.570892,5.3597524 48.70946,5.2116286 c 0.387034,-0.4013692 0.580696,-0.915088 0.580696,-1.5410304 0,-0.3870347 -0.086,-0.7359636 -0.258018,-1.0465457 C 48.864901,2.3134689 48.625933,2.0626763 48.31535,1.8715489 47.956986,1.6565305 47.505312,1.5275243 46.960598,1.4845206 46.812474,1.4749673 46.499636,1.4703641 46.021817,1.4703641 Z m 14.255687,0 -2.622984,6.7586724 c -0.23891,0.6163877 -0.432572,1.0798857 -0.580696,1.3904697 -0.143346,0.3058037 -0.291396,0.5565961 -0.444297,0.7525021 -0.181572,0.243687 -0.368016,0.420611 -0.559143,0.530509 -0.191129,0.109897 -0.413356,0.171942 -0.6666,0.186278 v 0.164726 h 3.21107 v -0.164726 c -0.291469,-0.02389 -0.530437,-0.100373 -0.716787,-0.229384 -0.133789,-0.09556 -0.24114,-0.219654 -0.32237,-0.372557 -0.07645,-0.152902 -0.114846,-0.317998 -0.114846,-0.4947918 0,-0.301027 0.107659,-0.7143046 0.322678,-1.2399067 L 53.25373,8.3078523 53.626287,7.3188845 h 3.153493 l 0.688152,1.691284 0.121928,0.3011247 c 0.13379,0.3296949 0.20075,0.5923124 0.20075,0.7882198 0,0.329695 -0.148358,0.588013 -0.444605,0.774364 -0.167237,0.105121 -0.463335,0.176689 -0.888594,0.214912 v 0.164726 h 4.708997 V 11.088789 C 60.870161,11.05534 60.647932,11.016947 60.499805,10.973943 60.351684,10.926164 60.220068,10.859509 60.105391,10.773502 59.942929,10.649269 59.792578,10.465128 59.65401,10.22144 59.515442,9.9777518 59.328998,9.5716913 59.094867,9.0030872 L 55.97709,1.4703578 Z M 44.387801,1.6923519 h 0.666292 c 0.511266,0 0.891373,0.028873 1.139839,0.086211 0.253244,0.05734 0.477775,0.1646906 0.673681,0.3223707 0.224575,0.1815711 0.403801,0.4372774 0.53759,0.7669738 0.138568,0.3249167 0.207832,0.6689319 0.207832,1.0320756 0,0.3440294 -0.06696,0.6594795 -0.20075,0.9461707 -0.129011,0.2819129 -0.315455,0.5136621 -0.559143,0.6952332 -0.129012,0.090785 -0.272146,0.1623526 -0.429826,0.2149143 -0.152902,0.052561 -0.356087,0.097867 -0.609331,0.1360908 -0.291469,0.038224 -0.573439,0.057269 -0.845796,0.057269 h -0.580388 z m -9.281899,1.6198524 1.505314,3.7126361 h -2.924417 z m 20.054334,0 1.505006,3.7126361 H 53.741133 Z M 44.387801,6.1719621 h 1.282704 c 0.917413,1.5e-6 1.591314,0.1769237 2.021352,0.5305096 0.234131,0.1911276 0.420575,0.4658784 0.559143,0.8242441 0.138567,0.3535854 0.207831,0.7379908 0.207831,1.1536929 0,0.7262859 -0.224839,1.2997472 -0.673989,1.7202273 -0.444372,0.420482 -1.051006,0.630885 -1.820294,0.630885 -0.592496,0 -1.01069,-0.160184 -1.254378,-0.480322 -0.114676,-0.152902 -0.198377,-0.339346 -0.250937,-0.5591428 -0.04778,-0.2197978 -0.07143,-0.5086772 -0.07143,-0.8670411 z" />
    <path
       id="path911"
       style="font-style:normal;font-variant:normal;font-weight:normal;font-stretch:normal;font-size:24.636px;line-height:1.25;font-family:'Baskerville Old Face';-inkscape-font-specification:'Baskerville Old Face';fill:#ff0000;fill-opacity:1;stroke-width:0.366966"
       d="m 127.87933,1.2265016 c -0.69284,0 -1.29226,0.2340539 -1.79874,0.7023161 -0.2867,0.2628003 -0.51153,0.5782505 -0.67399,0.9461708 -0.15768,0.3679219 -0.23647,0.7503312 -0.23647,1.1469207 0,0.6450567 0.20549,1.1919485 0.61641,1.641098 0.14812,0.1624584 0.34179,0.3226403 0.5807,0.4803204 0.24369,0.1576817 0.59231,0.3513444 1.04624,0.5806973 0.51604,0.2627999 0.89845,0.4801119 1.14692,0.6521285 0.25324,0.1720143 0.4492,0.3512397 0.58777,0.5375894 0.1338,0.1815706 0.23884,0.3988844 0.31529,0.6521285 0.0812,0.2532435 0.12162,0.5017348 0.12162,0.7454219 0,0.5638263 -0.17892,1.0296288 -0.53728,1.3975488 -0.35836,0.367923 -0.81234,0.552063 -1.36183,0.552063 -0.7884,-10e-7 -1.44295,-0.401454 -1.96378,-1.204191 -0.27713,-0.4348148 -0.5161,-1.0296225 -0.71678,-1.7845775 h -0.16504 l -0.0213,2.9598255 h 0.16473 c 0.086,-0.229353 0.24357,-0.343923 0.47293,-0.343923 0.0717,0 0.13633,0.0095 0.19367,0.02864 0.0573,0.01911 0.23395,0.09329 0.5302,0.222304 0.5686,0.243687 1.16111,0.365475 1.7775,0.365475 0.67372,0 1.25931,-0.15066 1.75625,-0.451688 0.49693,-0.305803 0.86951,-0.738126 1.11797,-1.297174 0.1768,-0.401369 0.2651,-0.821865 0.2651,-1.2614599 0,-0.6593898 -0.19596,-1.2374573 -0.58777,-1.7343898 -0.34403,-0.4443716 -0.90536,-0.8504323 -1.68421,-1.2183541 l -1.0105,-0.4874024 c -1.02731,-0.4873766 -1.54103,-1.1301017 -1.54103,-1.9280588 0,-0.2006838 0.0358,-0.4012573 0.10746,-0.6019411 0.0764,-0.2006838 0.1792,-0.3753028 0.30821,-0.5234266 0.31058,-0.3631421 0.73338,-0.5446722 1.26854,-0.5446722 0.36792,0 0.69289,0.090918 0.9748,0.2724891 0.28192,0.1767944 0.53993,0.4515456 0.77406,0.8242441 0.12901,0.205462 0.23897,0.4299942 0.32976,0.6736817 0.0956,0.2389093 0.20783,0.5852277 0.33684,1.039157 h 0.16472 l -0.0499,-2.8452876 h -0.16503 c -0.0573,0.2436874 -0.16961,0.3654752 -0.33684,0.3654752 -0.0669,0 -0.14338,-0.012139 -0.22939,-0.036025 -0.086,-0.028669 -0.24849,-0.090715 -0.4874,-0.1862784 C 128.9496,1.4295581 128.6942,1.3412507 128.50307,1.298247 128.31195,1.250465 128.10385,1.226506 127.87928,1.226506 Z M 69.415921,1.4703578 66.792629,8.2290302 c -0.238911,0.6163877 -0.432571,1.0798857 -0.580697,1.3904697 -0.143342,0.3058037 -0.291392,0.5565961 -0.444297,0.7525021 -0.18157,0.243687 -0.367704,0.420611 -0.558831,0.530509 -0.191133,0.109897 -0.413361,0.171942 -0.666602,0.186278 v 0.164726 h 3.210763 v -0.164726 c -0.291469,-0.02389 -0.53044,-0.100373 -0.716789,-0.229384 -0.133791,-0.09556 -0.24114,-0.219654 -0.322368,-0.372557 -0.07645,-0.152902 -0.11485,-0.317998 -0.11485,-0.4947918 6e-6,-0.301027 0.107665,-0.7143046 0.322678,-1.2399067 l 0.179199,-0.4442972 0.37256,-0.9889678 h 3.153797 l 0.687844,1.691284 0.121928,0.3011247 c 0.133791,0.3296949 0.200755,0.5923124 0.200755,0.7882198 0,0.329695 -0.148055,0.588013 -0.444302,0.774364 -0.167235,0.105121 -0.463643,0.176689 -0.888903,0.214912 v 0.164726 h 4.708999 V 11.088789 C 74.717266,11.05534 74.495037,11.016947 74.34691,10.973943 74.19879,10.926164 74.067477,10.859509 73.9528,10.773502 73.790343,10.649269 73.639685,10.465128 73.501115,10.22144 73.362551,9.9777518 73.176411,9.5716913 72.942284,9.0030872 l -3.11778,-7.5327294 z m 5.798341,0 v 0.1647253 c 0.272355,0.01433 0.494584,0.052421 0.666597,0.1145377 0.172019,0.062116 0.322368,0.1625577 0.451381,0.3011251 0.152899,0.1529019 0.255648,0.3465643 0.308206,0.5806954 0.05255,0.2341311 0.07882,0.5971897 0.07882,1.0893444 v 5.2823015 c 0,0.4921528 -0.02628,0.8552129 -0.07882,1.0893448 -0.05255,0.23413 -0.155307,0.427793 -0.308206,0.580695 -0.129013,0.133789 -0.279362,0.233921 -0.451381,0.300816 -0.167234,0.06212 -0.389463,0.10051 -0.666597,0.114846 v 0.164726 h 4.579677 v -0.164726 c -0.324918,-0.01911 -0.585232,-0.07425 -0.781137,-0.165034 -0.195906,-0.09556 -0.355782,-0.238698 -0.480016,-0.429825 -0.08601,-0.138568 -0.148359,-0.322708 -0.186587,-0.5520608 -0.03825,-0.229353 -0.05726,-0.5421927 -0.05726,-0.938782 V 3.7207857 c 0,-0.3296948 0.01442,-0.6211878 0.04308,-0.8744317 0.04302,-0.3392512 0.157576,-0.6044807 0.343924,-0.7956081 0.133792,-0.1385674 0.284451,-0.2390087 0.451685,-0.3011251 0.172019,-0.062116 0.393938,-0.1002032 0.666293,-0.1145377 V 1.4703578 Z m 5.282303,0 v 0.1647253 c 0.272355,0.01433 0.494584,0.052421 0.666597,0.1145377 0.172013,0.062116 0.322368,0.1625577 0.451381,0.3011251 0.152899,0.1529019 0.255642,0.3465643 0.308205,0.5806954 0.05255,0.2341311 0.07882,0.5971897 0.07882,1.0893444 v 5.2823015 c 0,0.4921528 -0.02628,0.8552129 -0.07882,1.0893448 -0.05255,0.23413 -0.155306,0.427793 -0.308205,0.580695 -0.129013,0.133789 -0.279368,0.233921 -0.451381,0.300816 -0.167235,0.06212 -0.389464,0.10051 -0.666597,0.114846 v 0.164726 h 4.579676 v -0.164726 c -0.277133,-0.01433 -0.501668,-0.05273 -0.673681,-0.114846 -0.167234,-0.0669 -0.315283,-0.167027 -0.444296,-0.300816 -0.148127,-0.152902 -0.25087,-0.346565 -0.308206,-0.580695 -0.05255,-0.2389115 -0.07883,-0.6019699 -0.07883,-1.0893448 V 6.4656985 h 0.351313 c 0.21502,0 0.396548,0.021652 0.544675,0.064658 0.148126,0.038228 0.286654,0.105186 0.415661,0.20075 0.253247,0.191127 0.532603,0.5469676 0.838407,1.0677912 0.305805,0.5256003 0.609428,1.130239 0.910454,1.8135194 l 0.501567,1.1395319 c 0.03342,0.07167 0.109929,0.238765 0.229384,0.501566 h 2.379441 v -0.164726 c -0.195908,-0.01911 -0.351173,-0.05751 -0.46585,-0.114846 -0.109899,-0.05734 -0.224469,-0.160081 -0.343919,-0.308206 C 88.784234,10.484166 88.6004,10.192983 88.380602,9.7916136 88.165583,9.385468 87.845223,8.7450461 87.419963,7.8706382 87.238393,7.4883814 87.102474,7.2231518 87.011689,7.0750281 86.920904,6.9221265 86.820461,6.7954231 86.710568,6.6950812 86.571998,6.5660702 86.359291,6.4419808 86.0726,6.3225246 86.421411,6.2460736 86.698461,6.1646773 86.903923,6.07867 c 0.210241,-0.086007 0.401601,-0.1956613 0.573614,-0.329452 0.563829,-0.4491496 0.845491,-1.0465694 0.845491,-1.7919665 0,-0.5017111 -0.131312,-0.9412522 -0.394111,-1.3187288 C 87.670898,2.2562678 87.305535,1.9696917 86.832491,1.7785626 86.412009,1.6113293 85.831329,1.5108881 85.090714,1.4774392 c -0.18157,-0.00478 -0.561369,-0.00708 -1.139535,-0.00708 z m 9.503891,0 v 0.1647253 c 0.258026,0.00955 0.468118,0.043037 0.63058,0.100375 0.167235,0.057338 0.317584,0.1482562 0.451375,0.272489 0.162456,0.152902 0.27242,0.3511723 0.329762,0.5948598 0.06211,0.2389092 0.09329,0.6114895 0.09329,1.1179788 v 5.2823015 c 0,0.4873749 -0.02854,0.8504333 -0.0859,1.0893448 -0.05255,0.23413 -0.153,0.427793 -0.301127,0.580695 -0.262798,0.272356 -0.635382,0.408581 -1.117978,0.408581 v 0.171807 h 8.557725 l 0.09298,-2.9385796 -0.172114,-0.014174 c -0.09078,0.4443728 -0.190918,0.8025157 -0.300817,1.0748725 -0.105121,0.2723568 -0.241343,0.5162394 -0.408584,0.7312571 -0.248462,0.315361 -0.568518,0.549414 -0.960329,0.702317 -0.387033,0.148123 -0.864969,0.222302 -1.433578,0.222302 -0.54471,0 -0.981952,-0.07909 -1.311642,-0.236774 C 93.734403,10.632277 93.485911,10.379182 93.318676,10.035151 93.223112,9.8392452 93.158764,9.5861495 93.125315,9.2755655 93.091889,8.9649839 93.075147,8.4916549 93.075147,7.8561563 V 3.7207857 c 0,-0.5017111 0.02854,-0.8719882 0.0859,-1.1108975 0.05732,-0.2389093 0.1673,-0.437178 0.329756,-0.5948597 0.129013,-0.1242329 0.277062,-0.2151508 0.444297,-0.272489 0.16724,-0.057338 0.382248,-0.093122 0.645046,-0.1074564 V 1.4703578 Z m 8.951835,0 v 0.1647253 c 0.272355,0.01433 0.494584,0.052421 0.666597,0.1145377 0.172013,0.062116 0.322368,0.1625577 0.451382,0.3011251 0.1529,0.1529019 0.25564,0.3465643 0.3082,0.5806954 0.0526,0.2341311 0.0788,0.5971897 0.0788,1.0893444 v 5.2823015 c 0,0.4921528 -0.0263,0.8552129 -0.0788,1.0893448 -0.0525,0.23413 -0.1553,0.427793 -0.3082,0.580695 -0.129014,0.133789 -0.279369,0.233921 -0.451382,0.300816 -0.167234,0.06212 -0.389463,0.10051 -0.666597,0.114846 v 0.164726 h 4.579989 v -0.164726 c -0.32492,-0.01911 -0.58554,-0.07425 -0.78145,-0.165034 -0.1959,-0.09556 -0.35578,-0.238698 -0.48002,-0.429825 -0.086,-0.138568 -0.14835,-0.322708 -0.18658,-0.5520608 -0.0383,-0.229353 -0.0573,-0.5421927 -0.0573,-0.938782 V 3.7207857 c 0,-0.3296948 0.0144,-0.6211878 0.0431,-0.8744317 0.043,-0.3392512 0.15757,-0.6044807 0.34392,-0.7956081 0.13379,-0.1385674 0.28445,-0.2390087 0.45169,-0.3011251 0.17201,-0.062116 0.39424,-0.1002032 0.6666,-0.1145377 V 1.4703578 Z m 5.282299,0 v 0.1647253 c 0.27714,0.01433 0.49937,0.052421 0.6666,0.1145377 0.17201,0.062116 0.32237,0.1625577 0.45138,0.3011251 0.14812,0.1529019 0.24857,0.3488674 0.30112,0.5877768 0.0573,0.2341311 0.0859,0.5925833 0.0859,1.0751816 v 5.2893829 c 0,0.4873749 -0.0285,0.8504333 -0.0859,1.0893448 -0.0525,0.23413 -0.153,0.427793 -0.30112,0.580695 -0.13379,0.138567 -0.28675,0.238699 -0.45877,0.300816 -0.16723,0.06212 -0.38685,0.10051 -0.65921,0.114846 v 0.164726 h 3.30405 v -0.164726 c -0.27235,-0.01433 -0.49457,-0.05273 -0.66659,-0.114846 -0.16724,-0.06212 -0.31759,-0.162249 -0.45138,-0.300816 -0.14812,-0.152902 -0.25087,-0.346565 -0.30821,-0.580695 -0.0525,-0.2341319 -0.0788,-0.597192 -0.0788,-1.0893448 V 2.7675321 l 6.75159,8.4859829 h 0.32237 V 3.7137043 c 0,-0.4825983 0.0263,-0.8410505 0.0788,-1.0751816 0.0573,-0.2389094 0.16009,-0.4348749 0.30821,-0.5877768 0.26758,-0.2771348 0.64047,-0.4156628 1.11829,-0.4156628 V 1.4703578 h -3.30437 v 0.1647253 c 0.27236,0.01433 0.49229,0.052421 0.65952,0.1145377 0.17202,0.062116 0.32498,0.1625577 0.45877,0.3011251 0.14812,0.1529019 0.24826,0.3465643 0.30081,0.5806954 0.0573,0.2341311 0.0862,0.5971897 0.0862,1.0893444 v 5.1748448 l -5.81989,-7.4252727 z m 11.08773,0 v 0.1647253 c 0.27713,0.01433 0.49936,0.052421 0.66659,0.1145377 0.17202,0.062116 0.32237,0.1625577 0.45138,0.3011251 0.14812,0.1529019 0.24856,0.3488674 0.30113,0.5877768 0.0573,0.2341311 0.0859,0.5948865 0.0859,1.082263 v 5.2823015 c 0,0.4873749 -0.0285,0.8504333 -0.0859,1.0893448 -0.0526,0.23413 -0.15301,0.427793 -0.30113,0.580695 -0.13379,0.138567 -0.28644,0.238699 -0.45846,0.300816 -0.16723,0.06212 -0.38716,0.10051 -0.65951,0.114846 v 0.164726 h 8.55064 l 0.093,-2.8523693 -0.16473,-0.00739 c -0.0908,0.4300368 -0.19122,0.7766625 -0.30112,1.039463 -0.10512,0.2628016 -0.24365,0.4968544 -0.41566,0.7023163 -0.24369,0.305805 -0.55884,0.532639 -0.94587,0.680763 -0.38703,0.143346 -0.86727,0.215222 -1.44065,0.215222 -0.54471,0 -0.98457,-0.07909 -1.31904,-0.236775 -0.32969,-0.162459 -0.57557,-0.415554 -0.73803,-0.759586 -0.0956,-0.2006828 -0.16022,-0.4491722 -0.19367,-0.7454202 -0.0334,-0.3010253 -0.0502,-0.7789624 -0.0502,-1.4335737 V 6.2150635 h 0.40858 c 0.35359,0 0.64508,0.035784 0.87443,0.1074564 0.22935,0.071674 0.4158,0.1839386 0.55914,0.3368407 0.14813,0.1576801 0.2627,0.3487319 0.34393,0.573307 0.086,0.2245745 0.15066,0.5209815 0.19367,0.8889018 h 0.16472 l 0.0287,-3.841646 -0.16473,-0.00739 c -0.043,0.3679203 -0.0981,0.6475868 -0.16503,0.8387143 -0.0621,0.1863492 -0.15995,0.3488359 -0.29374,0.4874033 -0.13856,0.1481238 -0.31779,0.2508666 -0.53758,0.3082048 -0.21981,0.05734 -0.54708,0.085905 -0.9819,0.085905 h -0.43013 V 1.6923425 h 1.64141 c 0.50649,0 0.91255,0.035784 1.21835,0.1074564 0.30581,0.066894 0.57103,0.184076 0.79561,0.3513125 0.27236,0.2006838 0.48015,0.4324329 0.6235,0.6952332 0.14334,0.2628018 0.24608,0.5949906 0.3082,0.9963582 l 0.16503,-0.00739 -0.12192,-2.3649656 z M 83.571231,1.6923519 h 0.293739 c 0.511267,0 0.905503,0.03348 1.182636,0.100375 0.277134,0.062117 0.516105,0.174381 0.716789,0.3368409 0.25802,0.2150184 0.458596,0.4897696 0.601938,0.8242426 0.148127,0.3296949 0.222307,0.6832318 0.222307,1.06071 0,0.7071715 -0.250793,1.2996777 -0.752508,1.7774963 -0.224571,0.2102402 -0.465842,0.3487682 -0.723867,0.4156627 -0.253247,0.066895 -0.676041,0.100375 -1.268542,0.100375 h -0.272492 z m -14.563887,1.6198524 1.505004,3.7126361 h -2.924109 z" />
    <path
       style="fill:none;stroke:#0000ff;stroke-width:0.472932;stroke-linecap:butt;stroke-linejoin:miter;stroke-miterlimit:4;stroke-dasharray:none;stroke-opacity:1"
       d="M 0.71489727,12.324177 H 131.09623"
       id="path897" />
  </g>
</svg>
