<?xml version="1.0" encoding="utf-8"?>
<!-- Generator: Adobe Illustrator 26.3.1, SVG Export Plug-In . SVG Version: 6.00 Build 0)  -->
<svg version="1.1" id="Layer_1" xmlns="http://www.w3.org/2000/svg" xmlns:xlink="http://www.w3.org/1999/xlink" x="0px" y="0px"
	 viewBox="0 0 116.8 52.5" style="enable-background:new 0 0 116.8 52.5;" xml:space="preserve">
<style type="text/css">
	.st0{fill:#12161C;}
	.st1{fill:#46A7DD;}
</style>
<g>
	<g>
		<polygon class="st0" points="9.1,36.2 6.3,26.2 0,26.2 0,42.7 4.1,42.7 4.1,32 7,42.7 10.8,42.7 14,31.8 13.9,42.7 18.1,42.7 
			18.1,26.2 12,26.2 		"/>
		<rect x="19.9" y="31.1" class="st0" width="4.1" height="11.6"/>
		<rect x="19.9" y="26.4" class="st0" width="4.1" height="3.3"/>
		<path class="st0" d="M33.3,32.1c-0.8-0.9-2-1.3-3.4-1.3c-1.4,0-2.6,0.6-3.5,1.9c-0.8,1.1-1.2,2.5-1.2,4c0,1.8,0.4,3.2,1.3,4.4
			s2.2,1.9,3.7,1.9c0.9,0,1.7-0.2,2.4-0.7c0.4-0.3,0.7-0.6,1-0.9v1.3h3.8V26.2h-4.1V32.1z M32.8,34.9c0.4,0.5,0.6,1.2,0.6,2
			c0,0.7-0.2,1.4-0.6,1.9c-0.4,0.5-0.8,0.7-1.4,0.7c-0.6,0-1-0.2-1.4-0.7c-0.4-0.5-0.5-1.2-0.5-2c0-0.7,0.2-1.3,0.5-1.8
			s0.8-0.7,1.4-0.7C31.9,34.2,32.4,34.5,32.8,34.9z"/>
		<path class="st0" d="M43,26.2l-5.5,16.5h4.3l1.1-3.4h4.9l1,3.4h4.6l-5.5-16.5C47.9,26.2,43,26.2,43,26.2z M46.8,35.7h-2.9l1.5-5.2
			L46.8,35.7z"/>
		<path class="st0" d="M61.2,39.7c-0.7,0.1-0.9,0.1-1.1,0.1c-0.5,0-0.8-0.1-0.9-0.4c-0.2-0.3-0.3-0.7-0.3-1.4v-3.9h2.5v-3.2h-2.5
			v-3.8l-4,1.3v2.4h-2.1V34h2.1v4.3c0,1.5,0.3,2.6,0.9,3.2c0.6,0.8,1.8,1.2,3.4,1.2c0.4,0,1.1-0.1,2.3-0.2h0.2l-0.1-3L61.2,39.7z"/>
		<rect x="62.6" y="26.2" class="st0" width="4.1" height="16.5"/>
		<path class="st0" d="M78.9,39.8v-4.1c0-1.7-0.5-2.9-1.6-3.8c-0.9-0.7-2.1-1.1-3.6-1.1c-1.6,0-3,0.3-4.3,0.8l-0.1,0.1l0.1,3.2
			l0.4-0.2c0.9-0.5,2-0.8,3.2-0.8c1.3,0,2,0.4,2.1,1.4c-0.5-0.1-0.9-0.1-1.4-0.1c-3.7,0-5.6,1.4-5.6,4c0,1.2,0.4,2.2,1.3,2.8
			c0.7,0.6,1.7,0.9,2.9,0.9c1.3,0,2.3-0.5,3.1-1.5c0,0.1,0,0.1,0,0.2c0,0.4,0,0.7,0,0.9v0.2h3.8l-0.1-0.3
			C78.9,41.7,78.9,40.8,78.9,39.8z M75,37.7c0,0.5-0.2,1-0.5,1.4c-0.4,0.5-0.8,0.7-1.4,0.7c-0.4,0-0.7-0.1-0.9-0.3
			c-0.2-0.2-0.3-0.4-0.3-0.7c0-0.5,0.2-1.2,1.9-1.2C73.8,37.7,74.2,37.7,75,37.7z"/>
		<path class="st0" d="M87.6,30.8c-1.6,0-2.8,0.6-3.6,1.7v-1.4h-3.8v11.6h4.1v-4.9c0-2.2,0.7-3.2,2-3.2c0.3,0,1.4,0,1.4,2.6v5.6h4.1
			v-7.2c0-1.3-0.3-2.4-1-3.2C90.1,31.3,89,30.8,87.6,30.8z"/>
		<path class="st0" d="M100.6,39.7c-0.7,0.1-0.9,0.1-1.1,0.1c-0.5,0-0.8-0.1-0.9-0.4c-0.1-0.2-0.3-0.6-0.3-1.4v-3.9h2.5v-3.2h-2.5
			v-3.8l-4,1.3v2.4h-2.1V34h2.1v4.3c0,1.5,0.3,2.5,0.9,3.2c0.6,0.8,1.8,1.2,3.4,1.2c0.4,0,1.1-0.1,2.3-0.2h0.2l-0.1-3L100.6,39.7z"
			/>
		<rect x="102" y="31.1" class="st0" width="4.1" height="11.6"/>
		<rect x="102" y="26.4" class="st0" width="4.1" height="3.3"/>
		<path class="st0" d="M116.7,38.9l-0.4,0.2c-0.6,0.3-1.3,0.5-2.1,0.5c-0.8,0-1.4-0.2-1.9-0.7c-0.6-0.5-0.8-1.2-0.8-2
			c0-0.9,0.2-1.6,0.7-2.1s1.1-0.8,1.8-0.8c0.8,0,1.4,0.2,2,0.6l0.4,0.2l0.3-3.4l-0.1-0.1c-0.8-0.4-1.8-0.6-3-0.6
			c-1.8,0-3.3,0.5-4.5,1.6s-1.8,2.6-1.8,4.5c0,1.8,0.6,3.3,1.8,4.4c1.1,1.1,2.7,1.6,4.5,1.6c1.1,0,2.1-0.2,3-0.5l0.2-0.1L116.7,38.9
			z"/>
	</g>
	<g>
		<path class="st0" d="M33.3,52.1l2.8-7.1h2.4l2.8,7.1h-2.1l-0.5-1.5H36l-0.6,1.5H33.3z M38.1,49.3l-0.9-2.8l0,0l-0.9,2.8H38.1z"/>
		<path class="st0" d="M41.9,52.1V45h1.9v7.1H41.9z"/>
		<path class="st0" d="M45,52.1V45h3.4c0.7,0,1.2,0.1,1.7,0.4c0.5,0.3,0.7,0.8,0.7,1.4c0,1-0.5,1.6-1.4,1.8c0.3,0.1,0.5,0.2,0.6,0.5
			c0,0.1,0.2,0.4,0.4,1.1l0.7,2h-2l-0.4-1.4c-0.2-0.6-0.4-1-0.6-1.2c-0.2-0.2-0.4-0.3-0.8-0.3h-0.4v2.8H45z M46.9,46.4V48h0.5
			c0.4,0,0.8,0,0.9-0.1c0.3-0.1,0.5-0.4,0.5-0.7c0-0.5-0.5-0.8-1.4-0.8H46.9z"/>
		<path class="st0" d="M52.7,52.1L51.1,45h2l0.9,5.5l0,0l1-5.5h2.5l1,5.5l0,0l0.9-5.5h1.9l-1.6,7.1h-2.5l-1-5.5l0,0l-1,5.5H52.7z"/>
		<path class="st0" d="M61.3,52.1l2.8-7.1h2.4l2.8,7.1h-2.1l-0.5-1.5h-2.9l-0.6,1.5H61.3z M66.1,49.3l-0.9-2.8l0,0l-0.9,2.8H66.1z"
			/>
		<path class="st0" d="M71.8,52.1v-2.7L69.1,45h2.2l1.4,2.9l1.4-2.9h2.2l-2.5,4.4v2.7H71.8z"/>
		<path class="st0" d="M76.8,51.9l0.2-1.6c0.6,0.3,1.3,0.5,2,0.5c0.8,0,1.2-0.2,1.2-0.7c0-0.3-0.3-0.6-0.9-0.8
			c-0.9-0.3-1.5-0.5-1.6-0.6c-0.6-0.3-0.9-0.9-0.9-1.6c0-0.8,0.3-1.4,1-1.7c0.5-0.3,1.3-0.4,2.1-0.4c0.7,0,1.3,0.1,1.9,0.3l-0.1,1.5
			c-0.5-0.2-1-0.3-1.6-0.3c-0.9,0-1.3,0.2-1.3,0.7c0,0.3,0.3,0.5,0.9,0.7c0.9,0.3,1.4,0.5,1.6,0.6c0.6,0.4,0.9,0.9,0.9,1.7
			c0,1.6-1.1,2.3-3.2,2.3C78.2,52.3,77.5,52.2,76.8,51.9z"/>
	</g>
	<polygon class="st1" points="49.6,5.8 44.2,23.2 95.9,0 	"/>
</g>
</svg>
