<svg id="Layer_1" data-name="Layer 1" xmlns="http://www.w3.org/2000/svg" viewBox="0 0 994 486.05"><defs><style>.cls-1{fill:#2b3483;}</style></defs><path class="cls-1" d="M213.57,111.23a7.54,7.54,0,0,0,4.31-5.79c.73-3.9,3.83-5,7.51-3.35,8.82,4,15.88,10.06,22,17.43,4.26,5.11,4.18,10.57,2.11,16.39-3.5,9.83-7.24,19.59-10.45,29.51-3.76,11.6-7.06,23.34-10.52,35a13.66,13.66,0,0,0,0,3c4.18-4.26,7.73-8.16,11.56-11.75q13.69-12.83,27.6-25.43c8.17-7.42,16.35-14.83,24.71-22,4.81-4.16,10-7.86,15-11.83a50.32,50.32,0,0,0,6.23-5.5c3.16-3.52,8.27-5.07,9.8-10.33.59-2.06,5.69-2.17,8.26-.21a111.12,111.12,0,0,1,10.06,8.56c3.5,3.44,6.44,7.46,10,10.81,5.26,4.94,4,10.22,1.3,15.54-5.68,11.05-11.74,21.9-17.32,33-5.21,10.37-10.08,20.91-15,31.45s-9.79,20.8-14.16,31.42c-5.22,12.69-10.25,25.5-14.67,38.49-5.4,15.84-10.15,31.9-15.05,47.91a92,92,0,0,0-3.06,12.85c-.82,5.2-1.09,10.49-1.66,16.44-2.76,2.34-8,1.67-11-2.43q-10.77-14.68-21.28-29.57c-4.51-6.38-3.91-13.12-1.37-20.17,3-8.3,5.23-16.87,8.16-25.2,3.59-10.2,7.48-20.29,11.37-30.39,3.22-8.35,6.51-16.68,10-24.94,5.14-12.27,10.45-24.47,15.67-36.7a12.15,12.15,0,0,0,.33-1.93,35.5,35.5,0,0,0-3.93,3c-6.65,7-13.17,14.16-19.84,21.16-5.21,5.45-10.72,10.61-15.82,16.15-4.78,5.19-9.19,10.72-13.79,16.08-3.32,3.87-6.84,7.59-10,11.61-3,3.83-5.52,8-8.35,11.93-2.58,3.58-5.35,7-7.91,10.59-2.9,4-5.9,8.05-8.39,12.33a17.83,17.83,0,0,0-2.21,7.58c-.2,3.27-1.14,5.65-5.25,7.44-2.95-2.2-6.84-4.35-9.74-7.44A164.71,164.71,0,0,1,165,285.15c-4.53-6.33-3.62-13.51-1.57-20.51,4.47-15.31,8.86-30.67,13.7-45.87,4.17-13.07,8.89-26,13.45-38.92a143.14,143.14,0,0,0,4.78-14.5,92.64,92.64,0,0,0-7.32,6.49c-6.48,7-13.14,13.85-19.05,21.3-5.67,7.15-10.59,14.92-15.68,22.52-4.31,6.44-8.67,12.87-12.52,19.58-5.13,8.94-9.84,18.13-14.66,27.25-4.47,8.49-9.21,16.87-13.16,25.6-5.13,11.31-9.61,22.9-14.3,34.4-.33.8-.07,1.83-.2,2.73-.25,1.7-.25,4.64-.95,4.83-2.06.55-4.78.7-6.58-.25a22.31,22.31,0,0,1-7.06-6c-4.88-6.33-9.46-12.9-14-19.5-4.68-6.85-3.34-13.77-.09-20.83,7.79-17,15.14-34.13,23.11-51,5.6-11.87,12-23.38,18-35.07,4.15-8.1,8.16-16.27,12.39-24.34,5.53-10.57,11.2-21.07,16.83-31.58q8.61-16.08,17.28-32.13c5.92-10.93,11.92-21.8,17.87-32.71,4.68-8.57,9.3-17.18,14-25.75,2-3.57,4.3-6.94,6-10.61,2.29-4.87,4.15-9.94,6.2-14.92l-.79-.36a6.75,6.75,0,0,1-.89-1.89c-.25-2.1-1.26-5-.28-6.13,1.22-1.4,4.22-2,6.27-1.72,2.78.4,5.82.72,7.69,3.94.95,1.64,3.86,2,5.6,3.34,5.38,4.07,10.78,8.14,15.84,12.59a19.5,19.5,0,0,1,4.85,7.1c1.45,3.6.08,7-2.21,10.08-4.8,6.43-9.6,12.87-14.28,19.38C219.94,76.4,216.44,81,213.56,86c-8.24,14.19-16.2,28.54-24.24,42.85a15,15,0,0,0-.81,2.75Z"/><path class="cls-1" d="M588.07,306.91a40.94,40.94,0,0,1-17.72-13.6c-2.45-3.32-5.73-6-8.37-9.23a11.15,11.15,0,0,1-2.2-10.08c1.81-7.76,3.46-15.56,5.33-24a9.4,9.4,0,0,0-2.25,1.19c-4.39,4.59-8.78,9.17-13.05,13.87-6.83,7.52-13.64,15.06-20.25,22.78-1,1.13-.94,3.27-1,5-.15,3.36-2.13,5.34-5.15,3.95-4.42-2-8.49-4.84-12.66-7.4-4-2.46-7.34-5.83-7.67-10.58-.25-3.71,1-7.54,1.62-11.29a53.17,53.17,0,0,0,1.22-9.87,30,30,0,0,0-3.35,3.1c-7.38,9.17-14.87,18.26-21.93,27.66-3.16,4.2-7.56,8-6.37,14.5.21,1.15-2.52,2.84-4.46,4.87-5.55-4.58-10.43-8.56-15.25-12.6a47.84,47.84,0,0,1-6.13-5.57c-2.37-2.81-4.33-6-6.62-9.22-8.44,6-17.58,12.4-26.57,19-6.2,4.55-13.21,3.86-19.52-2-8-7.42-15.55-15.28-21.25-24.62-2.19-3.59-3.16-7.95-4.73-12.08a40.69,40.69,0,0,0-4.84,4.46c-6.24,7.71-12.53,15.4-18.32,23.44-1.46,2-1.14,5.35-1.71,8.49-2,1.95-4.63,1.51-6.57-.29-3.88-3.58-7.37-7.6-11-11.44s-7.32-8-11.22-11.73c-3.17-3-4.4-6.23-2.67-10.22,3.25-7.48,6.74-14.85,10.09-22.29q9.36-20.75,18.68-41.51c1.51-3.36,3.23-6.66,4.4-10.14a17.85,17.85,0,0,0,1-7.4c-.57-5.25,1.83-7.79,6.65-5.72,8.76,3.77,17.39,7.89,25.92,12.16,5,2.51,4.46,8.24,1.73,14q-6.35,13.27-12.86,26.48c-1.17,2.38-2.62,4.62-4.34,7.62,1.51-.31,2.4-.23,2.9-.64,6.74-5.54,13.44-11.16,20.14-16.76,4.68-3.91,9.42-7.74,14-11.77,3.52-3.11,6.75-6.56,10.27-9.68a119.74,119.74,0,0,1,11.43-9.46,151.21,151.21,0,0,1,17.82-11c7.56-3.78,15.72-4.92,23.9-1.75,4.39,1.69,8.6,3.86,13.41,6.06,1.9-3.93,3.94-8.15,6-12.37,3.74-7.7,7.43-15.43,11.24-23.1,3.16-6.39,6.43-12.72,9.72-19,1.37-2.66,2.94-5.21,4.35-7.85,2.31-4.31,5.84-8.12,4.81-13.76-.24-1.34,1.47-3,2.83-5.59,9.23,6.32,17.66,11.79,25.73,17.76,3.78,2.79,3.92,6.47,1.69,10.56-8.78,16-17.87,31.91-26.19,48.18-6.64,13-12.49,26.4-18.43,39.74-4,9-7.56,18.26-11.31,27.4a14.68,14.68,0,0,0-.45,1.62c3.21.26,21-19.86,24.93-24.91,7.44-9.56,10.92-20.82,14.1-32.5-.27-1.79-.59-3.93-.87-5.81,3.15-2.54,6.18-2.44,9.62-.11q9.78,6.63,19.6,13.17c3.83,2.55,5.16,5.47,3.5,9.84-2.27,6-5,11.73-7.5,17.64-1.69,4.08-3.19,8.24-4.78,12.37l1,.58c4-4,7.89-7.93,11.9-11.83,3.05-3,6.41-5.66,9.29-8.78a132.16,132.16,0,0,0,9.92-12c1.58-2.17,2.41-4.91,3.47-7.44.58-1.38.94-2.86,1.39-4.29a7,7,0,0,1,7.89.83c5.42,3.92,10.95,7.73,16.7,11.15,6.42,3.83,5.62,7.91,3.19,14.44-3.7,9.92-7.74,19.71-11.6,29.57-.14.36.05.86.14,2.08,4.93-5.37,9.45-10.22,13.88-15.14,4.77-5.31,9.67-10.52,14.13-16.08,5.31-6.61,10.23-13.53,15.29-20.34,2.69-3.63,5-7.55,8-10.92,3.2-3.64,2.72-7.4,1.66-11.48a20.26,20.26,0,0,1-.34-3.62c4.76-2.25,8.72-.5,12.51.68,6.65,2.05,13.12,4.7,19.69,7,5,1.75,6.15,6.27,2.58,10.37-7.55,8.66-15,17.4-22.7,25.93-6.29,7-13,13.59-19.31,20.52-6.64,7.25-13,14.75-19.62,22-5,5.54-10.36,10.81-15.34,16.4-4.3,4.82-8.28,9.94-12.43,14.9-1.33,1.6-3,3-4.08,4.72-1.71,2.74-4.33,5.13-3.36,9.1C591.2,304.14,589.12,305.63,588.07,306.91ZM470.25,199.3l-1-1.3c-2,.16-4.39-.36-5.89.58-6,3.72-12.18,7.33-17.34,12-8.12,7.42-15.86,15.4-21.65,24.89-5.9,9.67-11.49,19.55-17,29.43-1.28,2.28-2.15,5,.14,8.11a31.77,31.77,0,0,0,5.36-1.07,110.61,110.61,0,0,0,30.7-17.27c3.65-2.92,7.61-6.36,9.45-10.46,4.79-10.65,8.49-21.8,12.63-32.75Q467.95,205.4,470.25,199.3Z"/><path class="cls-1" d="M891.19,179.76c3.06-3.38,6.84-.63,10,1.27,5.6,3.3,10.83,7.23,16.12,11,3.11,2.23,3.7,8,1.55,11.42-2.47,3.9-4.75,7.92-7.06,11.92-1.26,2-2.64,3.83-3.76,5.85-2.82,5.11-5.68,10.21-8.26,15.44-3.61,7.3-7,14.73-10.49,22.07-.8,1.67-2,3.13-2.79,4.8-3,6.54-6,13.14-9,19.68-3.14,6.77-6.41,13.47-9.52,20.25-5.25,11.47-10.34,23-15.64,34.45Q847,349.57,841.17,361c-1.64,3.24-3.77,6.23-5.75,9.46-3.26,2-6.6,1.8-10.2.21a70.52,70.52,0,0,1-20.43-13.18c-2.86-2.71-2.35-5.87.26-8.7a89,89,0,0,0,8.68-11.38c2.53-3.83,4.67-7.93,6.86-12,3.17-5.87,6.24-11.8,9.33-17.71,3.6-6.89,7.21-13.77,10.77-20.67,2.44-4.73,4.85-9.49,7.19-14.27a19.23,19.23,0,0,0,.75-3.81c-2.55,2.15-4.39,3.6-6.12,5.17-3.75,3.41-7.3,7.08-11.21,10.28A106.51,106.51,0,0,1,818,294a9.14,9.14,0,0,1-7.19.49c-12.21-5.18-21.22-13.85-26.17-26.29-.94-2.36-.64-5.22-.92-7.87-2.11,0-7.76,7-13.87,15.9-4.17,6.08-9,11.64-9.3,19.9-2.24-.44-3.66-.46-4.85-1a75.25,75.25,0,0,1-8.33-4.29c-1.67-1-3-2.62-4.55-3.81-4.44-3.36-9.08-6.48-13.37-10-2.91-2.4-3.46-5.91-2.87-9.56.12-.76.35-1.51.53-2.27l-.8-.73c-1.76,1.69-3.55,3.36-5.28,5.08-4.47,4.46-8.86,9-13.38,13.41-5.24,5.12-10.63,10.08-15.9,15.18a11.17,11.17,0,0,1-15.31.28c-2-1.71-4.62-2.78-6.36-4.68-5.35-5.85-10.48-11.9-15.57-18-9.35-11.17-5.53-22.69-.44-34a104.48,104.48,0,0,1,8.63-15.87c4.23-6.23,9.13-12,13.86-17.89,3.33-4.14,6.8-8.17,10.34-12.14a35,35,0,0,1,5.52-5.23c8.25-5.93,15.94-12.58,25.27-17.11a28.59,28.59,0,0,1,19.48-2.32,21.6,21.6,0,0,1,8.93,5.11,196.27,196.27,0,0,1,16.8,16.46c2.88,3.25,4.87,7.76,3.87,12.27a11.12,11.12,0,0,1-4.78,6.63c-2.72,1.54-5.63,0-7.32-3-.45-.8-1.16-1.44-1.68-2.21-6.45-9.46-12.35-9.54-20.83-5-14.46,7.77-25.46,19.64-34.83,33-6.29,8.94-11.61,18.39-14,29.23a27.67,27.67,0,0,0,0,4.45c4.19-1.86,7.78-3.17,11.06-5a69.87,69.87,0,0,0,9.78-6.65c7.73-6.29,15.34-12.73,22.91-19.23,4.26-3.66,8.37-7.51,12.48-11.35s8-7.65,12.86-12.27c1.31.44,3.55,1.14,5.75,1.92,4.39,1.54,8.78,3.05,13.12,4.71,4.53,1.74,5.09,3.4,3.31,8.07-1.68,4.38-3.18,8.82-4.75,13.24l.87.53c2.67-2.47,5.42-4.86,8-7.42,2.28-2.26,4.34-4.74,6.57-7,6.53-6.73,13.41-13.16,19.56-20.23a206.86,206.86,0,0,0,14.75-19.78c1.26-1.87,1.32-4.77,1.34-7.2s-.81-4.69,2.2-6.42c6.16.07,11.34,4,17.12,6.23s11.83,4.42,16.1,9.95c1.39,4.58-1.73,8.07-4,11.74-3.15,5.14-6.51,10.15-9.83,15.19-3,4.62-6.32,9.09-9.18,13.81-3.31,5.45-6.34,11.07-9.39,16.67-2.26,4.16-4.35,8.41-6.52,12.61l.65.93c1.27-.46,2.74-.64,3.76-1.41,5.53-4.19,11.05-8.42,16.39-12.86,4.35-3.61,8.63-7.35,12.62-11.36,5.11-5.14,9.89-10.6,14.79-16,3.57-3.89,7.32-7.63,10.57-11.77A157.5,157.5,0,0,0,888,191.18C889.78,188.24,890,184.38,891.19,179.76Z"/><path class="cls-1" d="M377.28,129.27c4.2-2.65,8.41-2,12,1.22,2.54,2.26,5.68,3.83,8.34,6a51.28,51.28,0,0,1,4.66,5c3.24,3.45,1.9,7-.05,10.27-2.61,4.34-5.59,8.47-8.6,12.54-2.8,3.79-6.35,4.41-11.56,1.66A70.54,70.54,0,0,1,371.65,159c-3.79-3-4.28-6.77-2.31-11.18C372,141.77,374.56,135.66,377.28,129.27Z"/><path class="cls-1" d="M185.48,468.89l18.23-44.34a1.79,1.79,0,0,1,1.62-1.2h5.43a1.64,1.64,0,0,1,1.62,1.2l18.23,44.34c.22.42.23.74,0,1a1.11,1.11,0,0,1-.93.35h-7.05a1.62,1.62,0,0,1-1.62-1.14l-3.1-7.57H198.09l-3,7.57a1.62,1.62,0,0,1-1.62,1.14h-7.11Q184.9,470.21,185.48,468.89ZM208,435.48l-6.91,17.87h13.7Z"/><path class="cls-1" d="M277.42,469V424.68a1.16,1.16,0,0,1,1.3-1.33h7c.82,0,1.23.44,1.23,1.33V469a1.1,1.1,0,0,1-1.23,1.26h-7A1.13,1.13,0,0,1,277.42,469Z"/><path class="cls-1" d="M338.79,469V424.61a1.37,1.37,0,0,1,.29-.88,1.1,1.1,0,0,1,.93-.38h20.57a14.52,14.52,0,0,1,6.11,1.29,15.31,15.31,0,0,1,4.81,3.45,16,16,0,0,1,3.14,4.92,15.22,15.22,0,0,1,1.13,5.75,13.65,13.65,0,0,1-2.23,7.48,16.54,16.54,0,0,1-5.92,5.59l8.8,17.06a.87.87,0,0,1,0,.88.89.89,0,0,1-.87.44h-8.34a1.62,1.62,0,0,1-1.49-1.07L358.05,454h-9.82v15a1.13,1.13,0,0,1-1.3,1.26H340C339.19,470.21,338.79,469.79,338.79,469Zm19.52-37.45H348.23v14.14h10.08a8.1,8.1,0,0,0,5.6-2,6.52,6.52,0,0,0,2.23-5.08,6.74,6.74,0,0,0-.59-2.81,6.46,6.46,0,0,0-1.64-2.24,8.21,8.21,0,0,0-2.49-1.49A8.94,8.94,0,0,0,358.31,431.5Z"/><path class="cls-1" d="M423.55,424.68a1.37,1.37,0,0,1,.39-1,1.43,1.43,0,0,1,1.1-.41h6.6a1.28,1.28,0,0,1,1.42,1.39v36.94h18.88a1.45,1.45,0,0,1,1,.38,1.36,1.36,0,0,1,.42,1.07v5.75c0,.89-.47,1.35-1.42,1.39H425a1.25,1.25,0,0,1-1.43-1.39Z"/><path class="cls-1" d="M502.05,469V424.68a1.16,1.16,0,0,1,1.29-1.33h7c.81,0,1.22.44,1.22,1.33V469a1.1,1.1,0,0,1-1.22,1.26h-7A1.13,1.13,0,0,1,502.05,469Z"/><path class="cls-1" d="M563.41,424.74a1.43,1.43,0,0,1,.36-1,1.33,1.33,0,0,1,1.06-.41h7.57a2.85,2.85,0,0,1,1.07.22,1.51,1.51,0,0,1,.8.73l21.28,29.87V424.3a1.2,1.2,0,0,1,.61-.76,1.91,1.91,0,0,1,.81-.19h6.53a1.8,1.8,0,0,1,1,.38,1.19,1.19,0,0,1,.51,1v44.08c0,.93-.51,1.39-1.55,1.39h-6.4a1.79,1.79,0,0,1-1.13-.28,5.62,5.62,0,0,1-.75-.73l-22.43-31.58v31.2c0,.93-.43,1.39-1.43,1.39h-6.53a1.24,1.24,0,0,1-1.42-1.39Z"/><path class="cls-1" d="M656.07,469V424.61a1.1,1.1,0,0,1,1.23-1.26h31.62a1.13,1.13,0,0,1,1.29,1.26v6.13a1.13,1.13,0,0,1-1.29,1.26H665.51v9.54h17.84c.95,0,1.43.42,1.43,1.26v6c0,.84-.48,1.26-1.43,1.26H665.51v11.56h24c.9,0,1.36.42,1.36,1.27V469c0,.84-.46,1.26-1.36,1.26H657.3A1.1,1.1,0,0,1,656.07,469Z"/><path class="cls-1" d="M737.93,463.07a4.1,4.1,0,0,1-.78-1.13q-.25-.57.45-1.26l4.34-4.17a1.17,1.17,0,0,1,1.13-.35,3.13,3.13,0,0,1,1.13.66c.65.63,1.37,1.28,2.17,1.93a18.35,18.35,0,0,0,2.58,1.77,14.68,14.68,0,0,0,3,1.26,12,12,0,0,0,3.43.47,10.53,10.53,0,0,0,3.42-.5,8.43,8.43,0,0,0,2.56-1.36,5.74,5.74,0,0,0,1.61-2,5,5,0,0,0,.55-2.3,3.7,3.7,0,0,0-.93-2.56,8.58,8.58,0,0,0-2.3-1.77,16.44,16.44,0,0,0-2.94-1.2c-1.06-.31-2-.58-2.88-.79q-7.83-2.26-11.93-5.59a10.6,10.6,0,0,1-4.1-8.68,11.25,11.25,0,0,1,1.26-5.31,12.35,12.35,0,0,1,3.55-4.13,16.87,16.87,0,0,1,5.53-2.69,25.32,25.32,0,0,1,7.11-.94,18.1,18.1,0,0,1,8.18,1.95,27.11,27.11,0,0,1,6.82,4.8,1.57,1.57,0,0,1-.06,2.47l-3.56,3.72a1.18,1.18,0,0,1-1.23.35,4.9,4.9,0,0,1-1.22-.73c-.52-.42-1.11-.88-1.78-1.39a20.32,20.32,0,0,0-2.2-1.42,14.9,14.9,0,0,0-2.52-1.1,8.51,8.51,0,0,0-2.75-.44,17.43,17.43,0,0,0-2.55.19,7.48,7.48,0,0,0-2.4.72,5,5,0,0,0-1.78,1.52,4.38,4.38,0,0,0-.71,2.62,3.33,3.33,0,0,0,.68,2.08,5.84,5.84,0,0,0,1.94,1.55,19.9,19.9,0,0,0,3,1.23q1.71.57,3.78,1.14c2.2.63,4.27,1.34,6.21,2.11a20.32,20.32,0,0,1,5.07,2.88,13.09,13.09,0,0,1,3.46,4,11.47,11.47,0,0,1,1.3,5.62,12.13,12.13,0,0,1-1.49,6,14.65,14.65,0,0,1-4,4.58,18.41,18.41,0,0,1-5.75,2.9,22.55,22.55,0,0,1-6.76,1,22.92,22.92,0,0,1-9.7-2.14A25.77,25.77,0,0,1,737.93,463.07Z"/><path class="cls-1" d="M925.31,419.76c-13.15-3.67-26.36-7.09-39.52-10.68-9.4-2.56-18.68-5.58-28.16-7.81-19.73-4.64-39.53-9-59.35-13.25-7.95-1.71-16-2.85-24-4.3-10.3-1.85-20.56-4-30.92-5.57-14.16-2.11-28.39-3.78-42.6-5.57-11.57-1.46-23.13-3-34.73-4.19q-20.13-2-40.32-3.43c-15.58-1.09-31.18-2.09-46.78-2.73-13-.54-26-.65-39.07-.68-33.62-.06-67.25-.11-100.87.13-15.86.12-31.71.9-47.57,1.45-.78,0-1.56.09-2.35.17-6.41.35-12.82.87-19.2,1.6h0c-4.74.49-9.48,1-14.23,1.43-17.27,1.58-34.57,2.89-51.82,4.69-10.64,1.1-21.21,2.89-31.82,4.38-10,1.4-20,2.64-29.92,4.26C227.5,382,213,384.5,198.49,387.22c-10.36,1.95-20.62,4.41-30.94,6.59-4.84,1-9.75,1.74-14.54,3-8.19,2.08-16.28,4.55-24.45,6.68-7.5,1.95-15.07,3.61-22.58,5.5-7.86,2-15.76,3.85-23.53,6.18C70.93,418.58,59.51,422.4,48,426.05c-4.31,1.37-8.69,2.52-12.92,4.09-7.16,2.65-14.18,5.67-21.35,8.3-3.07,1.12-3.52,2.24-.94,5,5.1-1.69,10-3.47,15-4.93,6.77-2,13.63-3.69,20.44-5.53,9.49-2.56,18.94-5.27,28.46-7.69,9.94-2.52,19.91-4.86,29.92-7.09,9-2,18.13-3.81,27.21-5.66,6.34-1.29,12.7-2.49,19-3.8,3.7-.77,7.35-1.82,11.08-2.47q18.77-3.3,37.59-6.4,11.85-2,23.76-3.66c6.44-.94,12.9-1.72,19.36-2.56,6.79-.87,13.57-1.81,20.37-2.58,8.21-.92,16.43-1.65,24.65-2.53,7.37-.79,14.72-1.88,22.11-2.45,7.87-.62,15.78-.65,23.66-1.2,17-1.19,34-2.78,51-3.76,13.7-.78,27.43-1.06,41.16-1.28,17.71-.29,35.44-.26,53.16-.42,14-.12,27.93-.52,41.89-.42,16.07.12,32.15.53,48.21,1.05,14.29.47,28.57,1.21,42.85,1.93,10,.5,20,1,30,1.78,18,1.34,35.94,2.73,53.89,4.31,12.84,1.13,25.66,2.53,38.47,3.95,4.84.54,9.63,1.55,14.46,2.22,13.6,1.9,27.24,3.56,40.8,5.66,8.71,1.35,17.31,3.33,26,5,4.76.91,9.52,1.8,14.3,2.61,6.07,1,12.22,1.68,18.23,3,17.86,3.89,35.66,8,53.49,12.07,3.76.85,7.57,1.5,11.28,2.51,7.76,2.1,15.48,4.36,23.2,6.6,9.93,2.88,19.84,5.84,29.77,8.72,3.37,1,6.74,1.95,10.16,2.68a23.09,23.09,0,0,0,4.78.06l.24-1.46C961.44,430.6,925.31,419.76,925.31,419.76Z"/></svg>