<?xml version="1.0" encoding="UTF-8" standalone="no"?>
<svg
   xmlns:dc="http://purl.org/dc/elements/1.1/"
   xmlns:cc="http://creativecommons.org/ns#"
   xmlns:rdf="http://www.w3.org/1999/02/22-rdf-syntax-ns#"
   xmlns:svg="http://www.w3.org/2000/svg"
   xmlns="http://www.w3.org/2000/svg"
   width="500"
   height="140"
   viewBox="0 0 132.29166 37.041667"
   version="1.1"
   id="svg8">
  <defs
     id="defs2" />
  <metadata
     id="metadata5">
    <rdf:RDF>
      <cc:Work
         rdf:about="">
        <dc:format>image/svg+xml</dc:format>
        <dc:type
           rdf:resource="http://purl.org/dc/dcmitype/StillImage" />
        <dc:title></dc:title>
      </cc:Work>
    </rdf:RDF>
  </metadata>
  <g
     id="layer1">
    <path
       id="path974-2"
       style="fill:#192757;fill-opacity:1;stroke:none;stroke-width:0.803621px;stroke-linecap:butt;stroke-linejoin:miter;stroke-opacity:1"
       d="m 37.996483,8.4111911 c 0.675122,-1.0257211 1.379686,-2.5066439 1.379686,-3.4551929 0,-1.2159661 -0.57146,-2.0968104 -1.811737,-2.601007 C 37.133362,2.1797384 37.194764,1.5119067 38.2242,1.5119067 l 19.525882,-3.1e-6 -11.673323,33.8580914 h -8.918725 l 5.719824,-16.590173 c 0.39964,-1.159147 -0.06436,-3.995108 -2.329636,-0.782909 L 28.296578,35.369995 H 19.30981 L 18.683514,16.542089 C 18.603936,14.150283 16.8638,15.228368 16.347785,16.465367 L 8.4616969,35.369995 H 0.62102527 L 11.866923,8.4111911 c 0.472761,-1.1333087 0.662167,-2.5066439 0.662167,-3.4551929 0,-1.2159661 -0.571461,-2.0968104 -1.811737,-2.601007 C 10.286282,2.1797384 10.347685,1.5119067 11.37712,1.5119067 H 26.648739 V 20.777303 c 0,3.063222 2.370597,1.333653 3.208444,0 z" />
    <path
       style="fill:#192757;fill-opacity:1;stroke:none;stroke-width:0.803621px;stroke-linecap:butt;stroke-linejoin:miter;stroke-opacity:1"
       d="M 64.603063,5.8887745 62.701637,35.369995 H 75.222345 L 101.41181,1.5119067 H 85.124115 c 1.095968,0.8874778 2.56923,1.4901379 2.403688,3.1929606 C 87.423745,5.7751609 87.109076,6.6526065 86.523276,7.8260775 83.50972,13.862817 79.523068,19.510319 75.078842,24.974791 73.976079,26.330713 72.5799,26.124306 72.63928,24.795407 l 1.0404,-23.2835034 h -11.0498 c -2.160026,3.1e-6 -1.140807,0.9743662 -0.753389,1.0045267 1.73705,0.2199013 2.915961,1.1606839 2.834199,2.3678144 z"
       id="path997" />
    <path
       id="path999"
       style="fill:#192757;fill-opacity:1;stroke:none;stroke-width:0.803621px;stroke-linecap:butt;stroke-linejoin:miter;stroke-opacity:1"
       d="m 111.30169,1.512355 c -1.50822,0 -1.73208,0.2398233 -1.57518,0.8253718 0.0975,0.3639545 2.65941,0.6038027 1.6772,2.2855237 0,0 -0.12556,0.2908741 -1.1034,2.0938107 C 103.94811,17.588443 95.653095,26.078365 88.065723,35.369627 h 9.816114 l 5.631623,-7.089762 h 10.9211 c 2.24127,0 2.20207,0.781065 1.57271,2.333956 l -1.92743,4.755806 h 7.56064 l 9.99504,-33.857272 z m 6.64714,8.1853273 c 1.83391,-2.2969698 3.31353,-1.9212162 2.84094,0 l -2.30885,9.3860497 c -0.22886,0.930362 -0.55557,2.079686 -2.40929,2.079686 h -4.23628 c -1.72594,0 -2.3282,-0.89253 -1.42047,-2.029459 z" />
  </g>
</svg>
