<svg xmlns="http://www.w3.org/2000/svg" xmlns:xlink="http://www.w3.org/1999/xlink" width="501" height="90" viewBox="0 0 501 90"><defs><style>.cls-1{fill:#5eb3e4;}.cls-2{fill:url(#linear-gradient);}.cls-3{fill:url(#linear-gradient-2);}.cls-4{fill:url(#linear-gradient-3);}.cls-5{fill:#84c2ea;}.cls-6{fill:url(#linear-gradient-4);}.cls-7{fill:url(#linear-gradient-5);}.cls-8{fill:url(#linear-gradient-6);}.cls-9{fill:url(#linear-gradient-7);}.cls-10{fill:#53575a;}.cls-11{fill:#00adee;}</style><linearGradient id="linear-gradient" x1="40.08" y1="556.85" x2="88.82" y2="508.1" gradientTransform="translate(0 -482.28)" gradientUnits="userSpaceOnUse"><stop offset="0.05"/><stop offset="0.43" stop-color="#0b0a0a" stop-opacity="0.6"/><stop offset="1" stop-color="#231f20" stop-opacity="0"/></linearGradient><linearGradient id="linear-gradient-2" x1="-15.23" y1="508.1" x2="33.53" y2="556.85" xlink:href="#linear-gradient"/><linearGradient id="linear-gradient-3" x1="12.37" y1="521.25" x2="61.42" y2="472.2" gradientTransform="translate(0 -482.28)" gradientUnits="userSpaceOnUse"><stop offset="0" stop-color="#231f20" stop-opacity="0"/><stop offset="0.57" stop-color="#0b0a0a" stop-opacity="0.6"/><stop offset="0.95"/></linearGradient><linearGradient id="linear-gradient-4" x1="222.94" y1="522.2" x2="192.11" y2="485.45" xlink:href="#linear-gradient"/><linearGradient id="linear-gradient-5" x1="214.05" y1="550.45" x2="166.57" y2="493.87" xlink:href="#linear-gradient-3"/><linearGradient id="linear-gradient-6" x1="112.72" y1="518.8" x2="149.63" y2="481.9" xlink:href="#linear-gradient-3"/><linearGradient id="linear-gradient-7" x1="84.47" y1="558.79" x2="115.84" y2="521.4" gradientTransform="translate(0 -482.28)" gradientUnits="userSpaceOnUse"><stop offset="0" stop-color="#231f20" stop-opacity="0"/><stop offset="0.04" stop-color="#211d1e" stop-opacity="0.04"/><stop offset="0.6" stop-color="#090808" stop-opacity="0.63"/><stop offset="0.95"/></linearGradient></defs><g id="Layer_2" data-name="Layer 2"><g id="Layer_1-2" data-name="Layer 1"><polygon class="cls-1" points="73.8 2.3 0 2.3 36.9 63.5 73.8 2.3"/><polygon class="cls-1" points="37 71.5 73.6 71.5 73.6 10.6 37 71.5"/><polygon class="cls-2" points="37 71.5 73.6 71.5 73.6 10.6 37 71.5"/><polygon class="cls-1" points="0 10.6 0 71.5 36.6 71.5 0 10.6"/><polygon class="cls-3" points="0 10.6 0 71.5 36.6 71.5 0 10.6"/><polygon class="cls-4" points="73.8 2.3 36.9 63.5 0 2.3 73.8 2.3"/><path class="cls-5" d="M194,7.3Z"/><path class="cls-1" d="M195.9,33.5h34.7A36.92,36.92,0,0,0,195.9,0Z"/><path class="cls-6" d="M195.9,33.5h34.7A36.92,36.92,0,0,0,195.9,0Z"/><path class="cls-1" d="M191.8,37.6V0a37,37,0,1,0,38.9,37.7l-38.9-.1Z"/><path class="cls-7" d="M191.8,37.6V0a37,37,0,1,0,38.9,37.7l-38.9-.1Z"/><polygon class="cls-1" points="152.3 65.4 152.3 2.3 78.5 2.3 152.3 65.4"/><polygon class="cls-8" points="152.3 65.4 152.3 2.3 78.5 2.3 152.3 65.4"/><polygon class="cls-1" points="78.5 7.8 78.5 71.5 152.3 71.5 152.3 71.4 78.5 7.8"/><polygon class="cls-9" points="78.5 7.8 78.5 71.5 152.3 71.5 152.3 71.4 78.5 7.8"/><path class="cls-10" d="M290.2,1.7h11.4L307,17.2l2.8,7.8h.4l3-8,5.6-15.3h10.4l4.1,37.8h-9.5L322.5,26l-1.1-10.1h-.3l-3.7,10-5.1,13.6h-7.1l-4.7-13.7L297,15.5h-.3l-1,10.3-1.4,13.6h-8.6Zm50.2,37.7h8.2V15.9h.2l18.3,23.5h7.8V1.7h-8.2v23h-.2L348,1.7h-7.6V39.4Zm41.5-18.2c0,12.8,8,19,19.9,19a29.06,29.06,0,0,0,13.9-3.6v-17h-9.1V32.7a21,21,0,0,1-3.6.3c-7.6,0-11.7-4.7-11.7-12.9S396.7,8,402.8,8c3.9,0,8.9.8,12.6,3.2v-8A35.61,35.61,0,0,0,402.6.9C390,.9,381.9,9,381.9,21.2"/><path class="cls-11" d="M298.1,53.3h3.8l11.8,36.2h-4.5l-3.5-11.6H292.4l-4.3,11.6h-3.9Zm-4.4,21.1h11l-1.8-6.1-3-10.1h-.2l-3.7,10Zm27.2,15.1h4.2V53.3h-4.2Zm14.7-36.2h10.8c7.3,0,12.3,3.2,12.3,10.9a10.21,10.21,0,0,1-7,10l10,15.3h-5.1l-8.8-14.3a23.58,23.58,0,0,1-3.8.2h-4.2v14h-4.2V53.3Zm4.2,3.4V71.9h3.9c5.8,0,10.8-1.2,10.8-7.6,0-5.2-3.4-7.6-9.6-7.6Zm28.8,32.8h21.2V86h-17V53.3h-4.2Zm27.6,0h4.2V53.3h-4.2Zm14.7,0h4.2V59.8h.1l20.6,29.6h4V53.3h-4.2V82.4h-.1L415,53.3h-4V89.5Zm39.5,0h21.9V86H454.5V72.6H469V69.1H454.5V56.7h17.3V53.2H450.3V89.5ZM478.6,88a26.52,26.52,0,0,0,9.9,2c6.7,0,12.5-3.5,12.5-10.3s-5.9-8.9-11.3-11c-4.5-1.8-7.3-3.2-7.3-7,0-3.4,3.2-5.5,7.3-5.5a19.86,19.86,0,0,1,9.9,2.7V54.7a22.74,22.74,0,0,0-9.9-2.1c-6.2,0-11.4,3.6-11.4,9.9,0,5.8,4.7,8.1,9.6,9.9s9,3.2,9,7.5c0,4-3.5,6.3-8.1,6.3a23.62,23.62,0,0,1-10.2-2.5Z"/></g></g></svg>