<?xml version="1.0" encoding="UTF-8" standalone="no"?>
<!-- Created with Inkscape (http://www.inkscape.org/) -->

<svg
   xmlns:dc="http://purl.org/dc/elements/1.1/"
   xmlns:cc="http://creativecommons.org/ns#"
   xmlns:rdf="http://www.w3.org/1999/02/22-rdf-syntax-ns#"
   xmlns:svg="http://www.w3.org/2000/svg"
   xmlns="http://www.w3.org/2000/svg"
   xmlns:sodipodi="http://sodipodi.sourceforge.net/DTD/sodipodi-0.dtd"
   xmlns:inkscape="http://www.inkscape.org/namespaces/inkscape"
   width="81"
   height="80"
   id="svg2"
   version="1.1"
   inkscape:version="0.48.1 "
   sodipodi:docname="MorrisLogoDone.svg">
  <defs
     id="defs4" />
  <sodipodi:namedview
     id="base"
     pagecolor="#ffffff"
     bordercolor="#666666"
     borderopacity="1.0"
     inkscape:pageopacity="0.0"
     inkscape:pageshadow="2"
     inkscape:zoom="4"
     inkscape:cx="54.63488"
     inkscape:cy="49.83271"
     inkscape:document-units="px"
     inkscape:current-layer="layer1"
     showgrid="true"
     inkscape:window-width="917"
     inkscape:window-height="694"
     inkscape:window-x="454"
     inkscape:window-y="82"
     inkscape:window-maximized="0">
    <inkscape:grid
       type="xygrid"
       id="grid2985"
       empspacing="5"
       visible="true"
       enabled="true"
       snapvisiblegridlinesonly="true" />
  </sodipodi:namedview>
  <metadata
     id="metadata7">
    <rdf:RDF>
      <cc:Work
         rdf:about="">
        <dc:format>image/svg+xml</dc:format>
        <dc:type
           rdf:resource="http://purl.org/dc/dcmitype/StillImage" />
        <dc:title></dc:title>
      </cc:Work>
    </rdf:RDF>
  </metadata>
  <g
     inkscape:label="Layer 1"
     inkscape:groupmode="layer"
     id="layer1"
     transform="translate(0,-972.36218)">
    <path
       style="fill:#d40000;stroke:#d40000;stroke-width:2;stroke-linecap:butt;stroke-linejoin:round;stroke-miterlimit:4;stroke-opacity:1;stroke-dasharray:none"
       d="m 46.500001,973.36239 -10.615385,9 2.641026,2 5.717949,-4 -4.044071,22.53121 c -0.120017,0.1722 -0.219549,0.3476 -0.339743,0.5 -0.709532,1.0526 -2.078233,1.3461 -3.04327,0.9375 -0.03426,-0.015 -0.08375,-0.016 -0.119391,-0.031 l -13.102564,-15.96871 6.504007,-0.71875 1.321314,-3.53125 -12.71875,0 -1.658654,1.40625 -2.282853,12.71875 3.654648,-0.6875 1.862981,-6.375 13.076923,15.93741 c 0.104839,0.661 0.163022,1.321 -0.265225,2 -0.372053,0.6319 -0.974764,0.9839 -1.604968,1.2813 l -22.6249998,0 4.8974358,-5 -1.461538,-3 -10.6153846,9 -0.3589744,2 7.3846152,9 2.5384618,-3 -3.1025638,-5 22.5937498,0 c 0.01937,0.01 0.03764,0.023 0.05689,0.031 0.90423,0.4272 1.469465,1.4645 0.977564,2.5625 -0.07918,0.2248 -0.192426,0.452 -0.310898,0.6875 l -18.798077,15.9375 0.425481,-6.375 -3.4078518,-0.6875 -2.282853,12.7189 1.153846,1.4061 12.7187498,0 -0.05369,-3.5311 -6.245993,-0.7189 18.761218,-15.9062 c 0.159357,-0.049 0.318005,-0.1153 0.465545,-0.1563 1.115173,-0.3908 2.238659,0.1194 2.485576,1.125 0.04359,0.1044 0.08574,0.229 0.125802,0.3438 l -4.04968,22.5625 -4.282051,-4 -3.358974,2 7.384615,9 2,0 10.615385,-9 -2.641026,-2 -5.717949,4 4.04968,-22.5625 c 0.07314,-0.1027 0.139133,-0.2184 0.212339,-0.3125 0.61763,-0.9225 1.719131,-1.4694 2.6875,-1.2188 0.198615,0.045 0.412071,0.1153 0.622597,0.1875 l 13.076923,15.9375 -6.504007,0.7188 -1.321314,3.5312 12.71875,0 1.658654,-1.4062 2.282853,-12.7188 -3.654648,0.6875 -1.862981,6.375 -13.102564,-15.9687 c -0.03189,-0.2461 -0.06725,-0.4851 -0.05849,-0.7188 -0.07388,-1.1663 0.958568,-2.0155 2.016827,-2.5312 l 22.5625,0 -4.897436,5 1.461538,3 10.615385,-9 0.358974,-2 -7.384615,-9 -2.538462,3 3.102564,5 -22.53125,0 c -0.682407,-0.3978 -1.324512,-0.8516 -1.279647,-1.75 0.0045,-0.5143 0.238756,-1.0268 0.49359,-1.5313 l 18.798077,-15.93741 -0.425481,6.375 3.407852,0.6875 2.282853,-12.71875 -1.153846,-1.40625 -12.71875,0 0.05369,3.53125 6.245993,0.71875 -18.724359,15.87501 c -0.07346,0.025 -0.159831,0.038 -0.229968,0.062 -1.041121,0.4495 -2.238556,0.2409 -2.657852,-0.6875 -0.101409,-0.1832 -0.155366,-0.4078 -0.231571,-0.625 l 4.055289,-22.59376 4.282051,4 3.358974,-2 -7.384615,-9 -2,0 z"
       id="path3801"
       inkscape:connector-curvature="0" />
  </g>
</svg>
