<?xml version="1.0" encoding="utf-8"?>
<!-- Generator: Adobe Illustrator 27.0.0, SVG Export Plug-In . SVG Version: 6.00 Build 0)  -->
<svg version="1.1" id="Layer_1" xmlns="http://www.w3.org/2000/svg" xmlns:xlink="http://www.w3.org/1999/xlink" x="0px" y="0px"
	 viewBox="0 0 362.98 251.06" style="enable-background:new 0 0 362.98 251.06;" xml:space="preserve">
<style type="text/css">
	.st0{fill:#CB2026;}
	.st1{fill:#010101;}
</style>
<g>
	<path class="st0" d="M340.91,16.75c-1.56,0.73-3.4,2.97-5.15,4.61c-1.75,1.64-4.04,3.9-5.29,5.6c-1.25,1.69-3.47,4.25-4.66,4.45
		c-1.19,0.2-2.95,4.73-4.71,5.94c-1.76,1.21-4.54,3.45-5.19,5.09c-0.65,1.64-1.08,2.48-2.47,2.99s-1.55,1.55-2.4,3.18
		s-1.95,1.41-4.69,3.27c-2.74,1.86-2.91,2.81-4.36,4.48c-1.45,1.67-3.8,3.04-5.91,5.82c-2.11,2.78-1.98,3.75-5.52,5.54
		c-3.54,1.79-6.06,4.2-7.2,6.33c-1.13,2.13-5.19,3.33-7.3,6.22c-2.11,2.89-6.07,6.16-6.07,6.16c-0.66-2.05-1.64-10.11-1.18-12.34
		c0.46-2.23,1.21-12.53,0.93-15.26c-0.28-2.73,0.06-6.82,0.49-10.12c0.43-3.3,1.49-7.96,1.21-10.33c-0.27-2.37,0.87-6.31,1.15-7.92
		c0.28-1.61-0.61-4.61,0.72-6.75s1.83-7.71,1.83-7.71c-10.52,0.18-16.73,3.84-16.73,3.84s0.46,3.95-0.34,6.29
		c-0.79,2.34-1.69,7.72-2.04,9.54c-0.34,1.81,0.46,6.3-0.57,7.41s-0.73,10.8-0.37,14.04c0.37,3.23-1.09,16.6-1.16,20.64
		c-0.07,4.04-0.03,16.41,0.53,19.31c0.56,2.9-1.47,6.47-2.85,6.97s-10.75,9.89-11.81,10.22s-4.33,4.27-6.14,6.22
		c-1.8,1.96-4.57,5.24-6.94,5.93c-2.38,0.69-3.4,2.01-7.25,4.69s-8.4,6.36-10.34,8.16s-6.37,7.27-8.08,7.81s-11.55,7.83-13.5,9.2
		s-4.74,4.09-7.21,6.05c-2.47,1.96-6.28,5.93-8.02,7.89c-1.74,1.96-2.85,4.63-5.02,5.62c-2.17,1-5.87,4.05-6.62,5.61
		s-4.73,4.16-6.44,4.99c-1.71,0.83-5.05,4.62-7.07,6.06c-2.02,1.44-10.13,8.53-11.09,9.58c-0.97,1.04-4.49,3.33-7.05,4.78
		c-2.55,1.46-6.13,4.31-7.79,6.49c-1.66,2.18-6.02,3.46-7.67,6c-1.65,2.54-5.15,3.55-7.78,4.71c-2.63,1.16-6.14,5.94-8.98,6.87
		s-11.22,5.37-14.52,8.67c-3.29,3.3-21.16,11.47-21.16,11.47s14.63-5.07,18.66-7.13c4.03-2.06,8.06-4.22,11.71-5.68
		s10.02-5.42,12.18-6.7c2.16-1.28,5.24-4.87,7.53-5.29c1.32-0.24,3.4-0.93,4.87-2.85c1.18-1.54,4.49-1.64,5.05-2.63
		c1.66-2.98,5.02-2.55,6.49-3.36c1.47-0.82,3.24-5.07,4.51-5.9c1.27-0.84,6.32-3.33,9.17-6.03c2.85-2.71,7.24-6.97,9.79-8.71
		s7.36-5.32,9.18-6.92s6.42-5.77,7.67-6.29c1.25-0.52,7.59-4.52,10.79-8.68s5.97-7.29,9.18-9.05c3.21-1.76,8.67-5.98,11.5-9.4
		c2.82-3.42,8.27-6.01,9.33-6.34c1.06-0.32,2.09-3.56,3.91-4.95c1.82-1.39,3.29-1.46,5.07-1.92c1.78-0.47,8.54-5.92,9.92-6.64
		s6.06-6.44,7.51-7.08c1.45-0.64,9.2-8.2,11.3-9.27c2.1-1.07,5.94-6.17,7.71-6.85c0,0,0.29,7.35,0.85,8.19s2.73,4.18,2.39,6.27
		c-0.33,2.1-0.92,4.74-0.49,7.98c0.43,3.24,1.8,8.78,1.61,11.03c-0.2,2.26,0.52,6.02,1.04,7.63c0.52,1.61,0.78,8.04,0.89,9.54
		c0.11,1.5,1.65,7.98,1.77,9.91s0.89,5.06,0.89,5.06l16.57,1.62c0,0-1.78-5.72-1.59-8.19s-1.62-7.12-1.69-9.48
		c-0.07-2.35-0.63-11.79-1.41-13.29s-1.74-4.72-1.39-6.18c0.35-1.46-1.25-5.81-1.22-7.08s-0.36-16.1-0.95-17.79s0.27-6.3-0.61-9.01
		c-0.88-2.72-1.58-8.04-0.25-10.4c1.33-2.36,5.48-6,7.86-8.54s4.96-3.28,6.99-4.58c2.02-1.29,1.95-3.79,3.7-5.4
		c1.75-1.61,4.07-2.02,4.63-3.17c0.56-1.15,3.73-4.26,5.17-5.25c1.43-1,1.17-3.08,3.13-4.31c1.96-1.23,0.54-1.87,3.29-3.3
		c2.75-1.44,4.5-3.26,5.97-4.96c1.48-1.7,4.03-3.37,4.79-4.65c0.76-1.28,3.24-4.94,4.28-5.98c1.03-1.04,2.8-2.95,2.76-4.16
		s3.76-4.95,5.07-5.82c1.31-0.87,4-3.88,5.24-4.82c1.24-0.95,7.33-9.71,8.29-10.6c4.83-4.49,8.69-8.13,9.9-10.79
		c1.21-2.67,7.48-11.77,8.93-12.86c0,0-8.09,6.55-10.62,8.85C347.41,11.16,343.58,15.5,340.91,16.75z"/>
	<path class="st1" d="M157.24,128.31l19.41-93.81l-64.7,90.99l1.62-90.99L53.07,152.57h10.68l40.11-81.2l-0.32,81.2l55.64-81.2
		l-16.5,81.2h9.38l26.6-37.65h36.38l-1.2,37.65h10.03l1.94-118.07L157.24,128.31z M184.07,107.28l32.69-46.26l-1.47,46.26H184.07z"
		/>
	<path class="st1" d="M26.05,199.34l-0.42-17.96l-10.21,18.36h-1.05l-3.31-18.51l-7.08,18.12H0l10.94-29.04h2.12l3.33,20.38
		l10.82-20.38h2.2l0.86,29.04H26.05z"/>
	<g>
		<path class="st1" d="M35.44,191.67c0-3.69,1.11-6.89,3.32-9.6c2.21-2.71,5.09-4.06,8.63-4.06c2.72,0,4.79,0.66,6.22,1.98
			c1.42,1.32,2.14,3.22,2.14,5.69c0,4.08-1.12,7.44-3.36,10.09c-2.24,2.65-5.35,3.97-9.31,3.97c-2.38,0-4.24-0.75-5.6-2.24
			C36.12,196,35.44,194.06,35.44,191.67z M38.88,191.27c0,1.82,0.41,3.25,1.22,4.31c0.81,1.06,1.98,1.58,3.49,1.58
			c2.68,0,4.8-1.1,6.38-3.31c1.57-2.21,2.36-4.83,2.36-7.87c0-3.6-1.74-5.4-5.22-5.4c-2.41,0-4.38,1.17-5.92,3.5
			C39.65,186.42,38.88,188.81,38.88,191.27z"/>
		<path class="st1" d="M61.08,178.38h3.39l-2.9,14.38c-0.06,0.32-0.1,0.62-0.1,0.9c0,1.08,0.37,1.93,1.1,2.56
			c0.74,0.63,1.74,0.94,3.01,0.94c1.57,0,2.87-0.4,3.9-1.19c1.03-0.79,1.69-1.89,1.97-3.28l2.89-14.31h3.32l-2.9,14.61
			c-0.42,2.12-1.49,3.78-3.22,4.97c-1.73,1.19-3.87,1.78-6.44,1.78c-2.18,0-3.91-0.47-5.18-1.42c-1.27-0.95-1.9-2.19-1.9-3.74
			c0-0.51,0.05-1.04,0.16-1.61L61.08,178.38z"/>
		<path class="st1" d="M93.45,199.67l-9.22-14.91l-2.77,14.62h-3.23l4.18-21h1.29l9.03,14.31l2.73-14.31h3.19l-4.22,21.29H93.45z"/>
		<path class="st1" d="M111.7,180.96l-3.64,18.42h-3.31l3.64-18.42h-7.51l0.52-2.58h18.59l-0.52,2.58H111.7z"/>
		<path class="st1" d="M128.91,199.38l-0.74-4.43h-8.47l-2.79,4.43h-3.61l13.82-21.29h0.85l4.68,21.29H128.91z M126.37,183.87
			l-5.4,8.97h6.85L126.37,183.87z"/>
		<path class="st1" d="M135.19,199.38l4.18-21h3.29l-4.18,21H135.19z"/>
		<path class="st1" d="M159.35,199.67l-9.22-14.91l-2.77,14.62h-3.23l4.18-21h1.29l9.03,14.31l2.73-14.31h3.19l-4.22,21.29H159.35z"
			/>
	</g>
	<path class="st1" d="M195.64,199.74l-0.98-6.13h-11.18l-3.68,6.13h-4.77l18.25-29.44h1.13l6.18,29.44H195.64z M192.3,178.29
		l-7.13,12.41h9.05L192.3,178.29z"/>
	<path class="st1" d="M204.57,199.74l3.94-21.31h3.1l-3.94,21.31H204.57z"/>
	<path class="st1" d="M224.79,199.74l-3.5-9.15c-0.78,0-1.85-0.05-3.21-0.15l-1.7,9.29h-3.2l3.93-21.31
		c0.42-0.01,1.23-0.05,2.46-0.12c1.22-0.07,2.22-0.1,3.01-0.1c2.35,0,4.17,0.4,5.44,1.21c1.27,0.81,1.91,1.96,1.91,3.46
		c0,1.77-0.55,3.33-1.65,4.66c-1.1,1.33-2.48,2.18-4.15,2.54l4.15,9.66H224.79z M219.82,181.05l-1.28,6.92
		c0.75,0.1,1.46,0.15,2.12,0.15c1.81,0,3.26-0.36,4.36-1.08c1.1-0.72,1.65-1.7,1.65-2.95c0-1.15-0.39-1.97-1.16-2.46
		c-0.77-0.48-2.06-0.73-3.87-0.73C221.26,180.9,220.65,180.95,219.82,181.05z"/>
	<path class="st1" d="M248.9,173.92l-1.45,8.18h9.73l-0.6,3.42h-9.73l-1.87,10.61h13.34l-0.64,3.62h-17.56l5.2-29.44h17.78
		l-0.66,3.62H248.9z"/>
	<path class="st1" d="M273.32,199.74l-3.86-8.32l-6.58,8.32h-3.67l8.94-11.34l-4.29-10.25l3.27,0.01l3.16,7.9l6.61-7.9h3.65
		l-8.98,10.61l5.28,10.97H273.32z"/>
	<path class="st1" d="M284.13,191.43l-1.58,8.31h-3.29l4.22-21.58c1.96-0.2,3.51-0.29,4.65-0.29c5.82,0,8.73,2.09,8.73,6.28
		c0,2.41-0.9,4.28-2.69,5.63c-1.79,1.35-4.09,2.02-6.88,2.02C286.19,191.79,285.14,191.67,284.13,191.43z M286.14,180.81l-1.5,7.97
		c0.58,0.27,1.43,0.4,2.56,0.4c1.88,0,3.39-0.41,4.55-1.23c1.16-0.82,1.74-1.99,1.74-3.51c0-2.64-1.53-3.96-4.59-3.96
		C288.05,180.47,287.12,180.59,286.14,180.81z"/>
	<path class="st1" d="M309.2,199.74l-3.64-9.27c-0.81,0-1.92-0.05-3.34-0.15l-1.77,9.41h-3.32l4.08-21.58
		c0.43-0.01,1.28-0.05,2.55-0.12c1.27-0.07,2.31-0.1,3.12-0.1c2.45,0,4.33,0.41,5.65,1.22c1.32,0.82,1.98,1.98,1.98,3.51
		c0,1.8-0.57,3.37-1.72,4.72c-1.14,1.35-2.58,2.21-4.31,2.57l4.32,9.78H309.2z M304.03,180.81l-1.33,7.01
		c0.78,0.1,1.51,0.15,2.2,0.15c1.88,0,3.39-0.36,4.53-1.09c1.14-0.73,1.72-1.72,1.72-2.99c0-1.17-0.4-2-1.2-2.49
		c-0.8-0.49-2.14-0.74-4.02-0.74C305.53,180.66,304.89,180.71,304.03,180.81z"/>
	<path class="st1" d="M322.52,180.81l-1.14,6h7.65l-0.47,2.5h-7.65l-1.47,7.78h10.5l-0.51,2.65h-13.82l4.1-21.58h14l-0.52,2.65
		H322.52z"/>
	<path class="st1" d="M333.59,198.68l0.95-2.83c0.45,0.33,1.13,0.62,2.03,0.85s1.77,0.35,2.6,0.35c1.25,0,2.26-0.28,3.02-0.85
		c0.76-0.57,1.14-1.36,1.14-2.36c0-0.83-0.29-1.57-0.86-2.21c-0.58-0.64-1.56-1.42-2.94-2.36c-1.39-0.93-2.4-1.8-3.03-2.61
		c-0.63-0.8-0.95-1.81-0.95-3.02c0-1.94,0.66-3.47,1.98-4.57c1.32-1.1,3.03-1.66,5.13-1.66c2.37,0,3.95,0.19,4.73,0.57l-0.9,2.86
		c-0.3-0.23-0.79-0.44-1.49-0.63c-0.7-0.2-1.34-0.29-1.95-0.29c-1.35,0-2.41,0.29-3.19,0.85c-0.78,0.57-1.17,1.39-1.17,2.46
		c0,0.45,0.12,0.89,0.37,1.31c0.25,0.42,0.58,0.8,1,1.14c0.42,0.34,1.29,0.96,2.6,1.88c1.31,0.91,2.28,1.84,2.89,2.79
		c0.62,0.95,0.93,2.05,0.93,3.31c0,1.95-0.7,3.45-2.11,4.5c-1.41,1.05-3.27,1.57-5.58,1.57c-0.82,0-1.75-0.11-2.78-0.32
		C334.99,199.2,334.18,198.95,333.59,198.68z"/>
	<path class="st1" d="M349.17,198.68l0.95-2.83c0.45,0.33,1.13,0.62,2.03,0.85s1.77,0.35,2.6,0.35c1.25,0,2.26-0.28,3.02-0.85
		c0.76-0.57,1.14-1.36,1.14-2.36c0-0.83-0.29-1.57-0.86-2.21c-0.58-0.64-1.56-1.42-2.94-2.36c-1.39-0.93-2.4-1.8-3.03-2.61
		c-0.63-0.8-0.95-1.81-0.95-3.02c0-1.94,0.66-3.47,1.98-4.57c1.32-1.1,3.03-1.66,5.13-1.66c2.37,0,3.95,0.19,4.73,0.57l-0.9,2.86
		c-0.3-0.23-0.79-0.44-1.49-0.63c-0.7-0.2-1.34-0.29-1.95-0.29c-1.35,0-2.41,0.29-3.19,0.85c-0.78,0.57-1.17,1.39-1.17,2.46
		c0,0.45,0.12,0.89,0.37,1.31c0.25,0.42,0.58,0.8,1,1.14c0.42,0.34,1.29,0.96,2.6,1.88c1.31,0.91,2.28,1.84,2.89,2.79
		c0.62,0.95,0.93,2.05,0.93,3.31c0,1.95-0.7,3.45-2.11,4.5c-1.41,1.05-3.27,1.57-5.58,1.57c-0.82,0-1.75-0.11-2.78-0.32
		C350.57,199.2,349.76,198.95,349.17,198.68z"/>
</g>
</svg>
