<svg id="Layer_1" data-name="Layer 1" xmlns="http://www.w3.org/2000/svg" viewBox="0 0 1093.83 221.89"><defs><style>.cls-1{fill:#003e56;}.cls-2{fill:#c22126;}</style></defs><path class="cls-1" d="M684.64,162.52C695.56,119.83,714.24,50.92,732.19,4a1.56,1.56,0,0,0-1.46-2.12,12.3,12.3,0,0,0-7.48,2.55l-9,7s-4.74,36.36-20.33,80.15c0,0-21.22,38.41-52.38,67.7,0,0-139.71,4.3-149.11,43.79,0,0-7.25,16.93,39.49,16.93s89.73-32.24,104.24-48.9A166.31,166.31,0,0,1,671,172.24s-8.6,28.12-9.14,37.8l13.17-8.87S677.65,190.23,682,173l30.75,2.59a6.45,6.45,0,0,0,5.57-2.39l5.73-7.17-39.41-3.46Zm-149,49.84c-22.92,0-48-10.21-26.33-24,25.93-16.49,118-16.65,118-16.65h.89C595.46,206.63,553.72,212.36,535.63,212.36Zm138.09-51s-9-1.1-27-1.26c0,0,29.91-32.95,42.81-54.44Z"/><ellipse class="cls-1" cx="738.89" cy="73.51" rx="12.45" ry="10.71" transform="translate(440.38 753.41) rotate(-71.98)"/><path class="cls-1" d="M888,94.65c-2.74,1.71-21.38,32.12-26.92,41.23a1.08,1.08,0,0,1-2-.41l-5.08-36a2.29,2.29,0,0,0-2.27-2h-.65a2.28,2.28,0,0,0-1.93,1l-23.39,36.24a1.07,1.07,0,0,1-2-.55l-1.13-34.38a1.54,1.54,0,0,0-2.48-1.16l-7.28,5.74a4.66,4.66,0,0,0-1.78,3.63v.46c-2.47,9.4-11.44,38.66-27.7,39.8h-.07c-.3,0-.6,0-.91,0-9.49,0-9.67-9.67-7.61-14.86s10-17,10-17l12.3-.16a2.14,2.14,0,0,0,2.05-1.57,23.78,23.78,0,0,1,3.75-8,.68.68,0,0,0-.52-1.09l-1.37,0-31.3-.9s5.06-11.82-1-11.82-10,6.27-9.94,15.22a25.82,25.82,0,0,1-3,12.95,1.17,1.17,0,0,0-.14.7c-2.61,6.2-11.88,25.94-24.44,25.94-4.84,0-6.85-3.9-3.09-14.24s10.25-28.35,10.76-36l-13,6.85s-13,35.46-13,45c0,5.69,2.21,10.18,7.4,10h0c6.17,0,30.64-10.9,39.09-36.09.85-1.53,2.16-4.35,1.92-6.75h15.49s-14.06,12.18-14.06,27.23c0,10.49,7.8,16.36,15.87,15.85l0,0a9.7,9.7,0,0,0,2.63-.43,16.25,16.25,0,0,0,6.19-3c7.92-5,17.83-15.5,23.94-29.84.36,14.53,1.44,31.46,4.59,31.46,3.49,0,28.88-40.16,28.88-40.16s1.07,40.16,6.58,40.16c2.42,0,39-53.6,43.92-60.31S891.2,92.63,888,94.65Z"/><path class="cls-1" d="M954.62,139.88l-1.17-.34a1.1,1.1,0,0,0-1.26.51c-1.21,2.14-5.08,8-11.24,8-7.52,0-6.45-7-3.4-14.32,2.29-5.54,9.06-23.68,12.26-32.29a3.93,3.93,0,0,0-3.46-5.29c-7.31-.38-21.41.94-36,13.58-21.13,18.26-24.89,28.29-24.89,38,0,5.11,3.8,7.81,8.68,7.64h0s12.35,1.37,31.69-24.75c.17-.22.32-.43.46-.63,0,0-6.09,13.44-6.09,22s11.34,6.63,23.2.45c7.76-4,10.93-7.87,12-11.21A1.08,1.08,0,0,0,954.62,139.88Zm-26.3-19.94c-.24.43-.51.88-.8,1.35,0,0-11.5,17.18-20.13,20.65a12.36,12.36,0,0,1-3.6.57c-10.66,0,3.22-21.22,10.56-28.57s20.24-8.68,20.24-8.68A68.44,68.44,0,0,1,928.32,119.94Z"/><path class="cls-1" d="M1072.82,135.94a3.28,3.28,0,0,1-3-3.05c-.11-1.54-.2-3.78-.2-6.95,0-5-2.14-12.24-3.65-16.68a6.78,6.78,0,0,1,1.36-6.73,57.63,57.63,0,0,0,6.1-8.27,1.77,1.77,0,0,0-1.51-2.7h-3.33a1.77,1.77,0,0,0-1.06.35,82.54,82.54,0,0,0-9.59,8.78c-6.18,6.45-.94,2.82-7.26,13.3-4.55,7.55-20,14.8-28.26,18.26l-5.35,2.12a1.63,1.63,0,0,1-2.14-2.07c2.17-6,6.63-18.23,8.62-23.28a16.33,16.33,0,0,0,1-8.62,3.43,3.43,0,0,0-4.7-2.59c-4.6,1.9-8.12,6.55-8.12,6.55-4.12,8.78-29.55,41.38-35.47,41.38s-2.14-13.26,1.62-20.46c2.75-5.28,5.6-16.72,6.93-22.48a1.71,1.71,0,0,0-2.42-1.92l-7.51,3.61a9,9,0,0,0-4.66,5.32c-3.07,9.4-11,34.1-11,39.87,0,7.16,6.81,12.35,16.84,2.15,7.8-8,22-22.61,27.92-28.73a1,1,0,0,1,1.59.94l-10,33.5s-30.27,27.6-30.27,43,16.48,5.38,22-4.65c5.06-9.15,14.58-25.28,20.71-45.69a14.75,14.75,0,0,1,7.15-8.83l1.85-1c18.51-7.3,34.14-22.46,35.75-22.46s2.42,3.08,4,9a20,20,0,0,1-.4,11.23c-12.76,0-25.12,8.46-28.75,12.09s-4.7,9.54,6.85,9.54,15.32-4,21.5-8.47,8.86-12.09,13.3-11.68,7.92.27,7.92-1.88C1077.25,136.51,1074.83,136.08,1072.82,135.94Zm-97.26,65.63c-10.24,0,4.17-25.25,16.79-35.33C992.35,166.24,985.8,201.57,975.56,201.57Zm66.36-47.95c-3.73,0-5.2-1.62-5.79-2.9a1.8,1.8,0,0,1,.67-2.25,35.92,35.92,0,0,1,19.5-6C1054,147.93,1048.1,153.62,1041.92,153.62Z"/><path class="cls-2" d="M62.44,90.37v5.91h7.34A3.76,3.76,0,0,1,73.54,100V137.3L42.11,90.37H16.58v8.06h4.93a4.92,4.92,0,0,1,4.92,4.93v40.92A3.76,3.76,0,0,1,22.67,148H16.58V154H44.79V148H37a3.76,3.76,0,0,1-3.76-3.76v-39L68.17,154H80.35V100a3.76,3.76,0,0,1,3.76-3.76H88V90.37Z"/><path class="cls-2" d="M118.76,90.37H93.24v8.06h6.2a4.72,4.72,0,0,1,4.73,4.72v38a4.72,4.72,0,0,1-4.73,4.72h-6.2V154h64.84V125.74H152V136a9.67,9.67,0,0,1-9.67,9.67H118.76V123.15h8.78a4.78,4.78,0,0,1,4.79,4.79v5.51H139V105.33h-6.63v5.5a4.78,4.78,0,0,1-4.79,4.79h-8.78V96.28h23.56A9.67,9.67,0,0,1,152,106V112h6.09V90.37Z"/><path class="cls-2" d="M240.78,90.37v7.34h4.33a2.67,2.67,0,0,1,2.52,3.53l-11,32.16-11.85-32.1a2.67,2.67,0,0,1,2.5-3.59h4.29V90.37H201.29v7.34H205a2.66,2.66,0,0,1,2.52,3.52L196.05,135l-11.79-33.76a2.66,2.66,0,0,1,2.51-3.54H193V90.37H162.73v7.34H166a4.46,4.46,0,0,1,4.2,3L188.93,154h8.86l14.65-44.19L228.82,154h9.68l18.05-53.21a4.45,4.45,0,0,1,4.21-3h4.38V90.37Z"/><path class="cls-2" d="M393.42,88.85c-19,0-34.39,14.91-34.39,33.31s15.4,33.32,34.39,33.32,34.39-14.92,34.39-33.32S412.42,88.85,393.42,88.85Zm0,58.39c-10.09,0-18.27-11.23-18.27-25.08s8.18-25.07,18.27-25.07,18.27,11.22,18.27,25.07S403.51,147.24,393.42,147.24Z"/><path class="cls-2" d="M330.33,90.37v7.34h3.27a1.89,1.89,0,0,1,1.52,3l-9,12.22-9.75-12.16a1.89,1.89,0,0,1,1.47-3.07h4V90.37H289.32v7.34h5.07a6.58,6.58,0,0,1,5.29,2.67l16.06,21.77v19.69a4.78,4.78,0,0,1-4.77,4.77h-7.91V154h37.71v-7.34H335.1a4.78,4.78,0,0,1-4.77-4.77V122.7l14.84-22.08a6.57,6.57,0,0,1,5.46-2.91h4.82V90.37Z"/><path class="cls-2" d="M499.9,139v6.26a2.83,2.83,0,0,1-2.48,2.86,2.76,2.76,0,0,1-3-2.74V132.5c0-8.19-10.74-11-10.74-11,5.91,0,16.25-4.7,16.25-15.85s-7.65-15.27-15.18-15.27H431.3v7.34h8.06a4.39,4.39,0,0,1,4.39,4.39v39.09a5.42,5.42,0,0,1-5.42,5.42h-7V154h40v-7.34h-7.79a5.42,5.42,0,0,1-5.41-5.42V126.86H471a9.14,9.14,0,0,1,9.14,9.14v11c0,6.18,5.37,10.35,13.29,10.35s13.3-4.44,13.3-10.21V139ZM471.33,118.4h-13.2V102.1a4.39,4.39,0,0,1,4.38-4.39h11.2c3.89,0,10.61,1.48,10.61,9.81S478.77,118.4,471.33,118.4Z"/><path class="cls-2" d="M575.7,98h8.19V90.37h-31V98h3.38a1.43,1.43,0,0,1,.91,2.52l-18.86,15.8a2.13,2.13,0,0,1-3.5-1.63V103.39a5.4,5.4,0,0,1,5.41-5.4h4V90.37H510.52V98h3.85a5.35,5.35,0,0,1,5.36,5.35v38.52a4.48,4.48,0,0,1-4.47,4.48h-4.74V154h33.65v-7.61h-5.8a4.48,4.48,0,0,1-4.47-4.48v-8.45l11-9.84,14.42,19.86a1.83,1.83,0,0,1-1.48,2.91h-5V154H586.5v-7.61h-2.28a6,6,0,0,1-4.64-2.19l-24.49-29.62,17-15.19A5.37,5.37,0,0,1,575.7,98Z"/></svg>