<?xml version="1.0" encoding="UTF-8" standalone="no"?>
<svg
   xmlns:dc="http://purl.org/dc/elements/1.1/"
   xmlns:cc="http://creativecommons.org/ns#"
   xmlns:rdf="http://www.w3.org/1999/02/22-rdf-syntax-ns#"
   xmlns:svg="http://www.w3.org/2000/svg"
   xmlns="http://www.w3.org/2000/svg"
   version="1.1"
   id="svg4357"
   viewBox="0 0 500.00001 170.31231"
   height="48.065918mm"
   width="141.11111mm">
  <defs
     id="defs4359">
    <clipPath
       id="clipPath4301"
       clipPathUnits="userSpaceOnUse">
      <path
         id="path4303"
         d="m 0,0 566.929,0 0,765.354 L 0,765.354 0,0 Z" />
    </clipPath>
    <clipPath
       id="clipPath4269"
       clipPathUnits="userSpaceOnUse">
      <path
         id="path4271"
         d="m 0,0 566.929,0 0,765.354 L 0,765.354 0,0 Z" />
    </clipPath>
    <clipPath
       id="clipPath4249"
       clipPathUnits="userSpaceOnUse">
      <path
         id="path4251"
         d="m 0,0 566.929,0 0,765.354 L 0,765.354 0,0 Z" />
    </clipPath>
  </defs>
  <metadata
     id="metadata4362">
    <rdf:RDF>
      <cc:Work
         rdf:about="">
        <dc:format>image/svg+xml</dc:format>
        <dc:type
           rdf:resource="http://purl.org/dc/dcmitype/StillImage" />
        <dc:title></dc:title>
      </cc:Work>
    </rdf:RDF>
  </metadata>
  <g
     transform="translate(-84.285024,-395.23875)"
     id="layer1">
    <path
       d="m 143.26035,480.75723 -40.71917,-53.44997 0,53.44997 -18.256156,0 0,-84.07975 17.056716,0 39.39626,51.76988 0,-51.76988 18.25616,0 0,84.07975 -15.73381,0 z"
       style="fill:#8c734a;fill-opacity:1;fill-rule:nonzero;stroke:none"
       id="path4243" />
    <path
       d="m 226.49122,482.19803 c -25.94226,0 -44.56002,-19.33653 -44.56002,-43.23711 l 0,-0.24253 c 0,-23.90057 18.85588,-43.47964 44.80255,-43.47964 25.94227,0 44.56002,19.33653 44.56002,43.23711 l 0,0.24253 c 0,23.90057 -18.85588,43.47964 -44.80255,43.47964 m 25.46602,-43.47964 c 0,-14.41531 -10.57446,-26.42733 -25.46602,-26.42733 -14.89156,0 -25.22348,11.7739 -25.22348,26.1848 l 0,0.24253 c 0,14.41531 10.57005,26.42733 25.46601,26.42733 14.89156,0 25.22349,-11.7739 25.22349,-26.1848 l 0,-0.24253 z"
       style="fill:#8c734a;fill-opacity:1;fill-rule:nonzero;stroke:none"
       id="path4255" />
    <path
       d="m 359.92743,480.75723 0,-54.89194 -23.65804,35.91259 -0.48066,0 -23.42432,-35.551 0,54.53035 -18.1371,0 0,-84.07975 19.93625,0 22.10583,35.55541 22.09701,-35.55541 19.93625,0 0,84.07975 -18.37522,0 z"
       style="fill:#8c734a;fill-opacity:1;fill-rule:nonzero;stroke:none"
       id="path4259" />
    <path
       d="m 467.78205,480.75723 -7.68611,-18.85588 -35.55541,0 -7.6861,18.85588 -18.85588,0 36.03166,-84.67947 17.05672,0 36.03606,84.67947 -19.34094,0 z m -25.46161,-62.45899 -11.17418,27.26958 22.33954,0 -11.16536,-27.26958 z"
       style="fill:#8c734a;fill-opacity:1;fill-rule:nonzero;stroke:none"
       id="path4263" />
    <path
       d="m 539.60152,480.75738 -32.79053,0 0,-84.07975 32.79053,0 c 26.42292,0 44.68349,18.14151 44.68349,41.79955 l 0,0.24253 c 0,23.66245 -18.26057,42.03767 -44.68349,42.03767 m 25.34255,-42.03767 c 0,-14.89597 -10.20846,-25.34695 -25.34255,-25.34695 l -14.29184,0 0,50.6895 14.29184,0 c 15.13409,0 25.34255,-10.21287 25.34255,-25.10443 l 0,-0.23812 z"
       style="fill:#8c734a;fill-opacity:1;fill-rule:nonzero;stroke:none"
       id="path4275" />
    <path
       d="m 210.31689,564.83081 -7.80076,0 -4.26418,-10.14672 -19.87452,0 -4.3215,10.14672 -7.56264,0 18.48987,-42.32871 6.84386,0 18.48987,42.32871 z m -22.03086,-33.50049 -7.20545,16.80978 14.46823,0 -7.26278,-16.80978 z"
       style="fill:#8c734a;fill-opacity:1;fill-rule:nonzero;stroke:none"
       id="path4279" />
    <path
       d="m 247.30104,522.8033 7.98597,0 -17.47123,42.32871 -6.48667,0 -17.47123,-42.32871 8.16676,0 12.66907,32.30105 12.60733,-32.30105 z"
       style="fill:#8c734a;fill-opacity:1;fill-rule:nonzero;stroke:none"
       id="path4283" />
    <path
       id="path4285"
       style="fill:#8c734a;fill-opacity:1;fill-rule:nonzero;stroke:none"
       d="m 274.53888,564.83215 -7.38625,0 0,-42.02885 7.38625,0 0,42.02885 z" />
    <path
       d="m 330.1121,564.83081 -7.80517,0 -4.26418,-10.14672 -19.87011,0 -4.32591,10.14672 -7.56264,0 18.48987,-42.32871 6.84386,0 18.49428,42.32871 z m -22.03527,-33.50049 -7.20545,16.80978 14.46823,0 -7.26278,-16.80978 z"
       style="fill:#8c734a;fill-opacity:1;fill-rule:nonzero;stroke:none"
       id="path4289" />
    <path
       d="m 354.24378,564.83081 -7.44357,0 0,-35.18059 -13.33053,0 0,-6.84826 34.10462,0 0,6.84826 -13.33052,0 0,35.18059 z"
       style="fill:#8c734a;fill-opacity:1;fill-rule:nonzero;stroke:none"
       id="path4293" />
    <path
       id="path4295"
       style="fill:#8c734a;fill-opacity:1;fill-rule:nonzero;stroke:none"
       d="m 387.08765,564.83215 -7.38625,0 0,-42.02885 7.38625,0 0,42.02885 z" />
    <path
       d="m 422.91645,565.55106 c -12.90719,0 -21.9118,-9.78512 -21.9118,-21.67368 0,-11.88855 9.12808,-21.79273 22.03527,-21.79273 12.90719,0 21.9118,9.78512 21.9118,21.66926 0,11.89296 -9.12367,21.79715 -22.03527,21.79715 m 0,-36.67988 c -8.34315,0 -14.16837,6.66305 -14.16837,14.88273 0,8.2285 5.94428,15.01503 14.29184,15.01503 8.34315,0 14.16837,-6.66746 14.16837,-14.89156 0,-8.22409 -5.94428,-15.0062 -14.29184,-15.0062"
       style="fill:#8c734a;fill-opacity:1;fill-rule:nonzero;stroke:none"
       id="path4307" />
    <path
       d="m 487.47313,522.8033 7.26278,0 0,42.02885 -6.1824,0 -23.17298,-29.90218 0,29.90218 -7.26718,0 0,-42.02885 6.84385,0 22.51593,29.05992 0,-29.05992 z"
       style="fill:#8c734a;fill-opacity:1;fill-rule:nonzero;stroke:none"
       id="path4311" />
  </g>
</svg>
