<?xml version="1.0" encoding="UTF-8" standalone="no"?>
<!-- Created with Inkscape (http://www.inkscape.org/) -->

<svg
   xmlns:dc="http://purl.org/dc/elements/1.1/"
   xmlns:cc="http://creativecommons.org/ns#"
   xmlns:rdf="http://www.w3.org/1999/02/22-rdf-syntax-ns#"
   xmlns:svg="http://www.w3.org/2000/svg"
   xmlns="http://www.w3.org/2000/svg"
   xmlns:sodipodi="http://sodipodi.sourceforge.net/DTD/sodipodi-0.dtd"
   xmlns:inkscape="http://www.inkscape.org/namespaces/inkscape"
   id="svg3266"
   version="1.1"
   inkscape:version="0.48.4 r9939"
   width="387"
   height="203"
   sodipodi:docname="nj3.png">
  <metadata
     id="metadata3272">
    <rdf:RDF>
      <cc:Work
         rdf:about="">
        <dc:format>image/svg+xml</dc:format>
        <dc:type
           rdf:resource="http://purl.org/dc/dcmitype/StillImage" />
        <dc:title></dc:title>
      </cc:Work>
    </rdf:RDF>
  </metadata>
  <defs
     id="defs3270" />
  <sodipodi:namedview
     pagecolor="#ffffff"
     bordercolor="#666666"
     borderopacity="1"
     objecttolerance="10"
     gridtolerance="10"
     guidetolerance="10"
     inkscape:pageopacity="0"
     inkscape:pageshadow="2"
     inkscape:window-width="1366"
     inkscape:window-height="716"
     id="namedview3268"
     showgrid="false"
     inkscape:zoom="0.7622739"
     inkscape:cx="193.5"
     inkscape:cy="49.025424"
     inkscape:window-x="0"
     inkscape:window-y="0"
     inkscape:window-maximized="1"
     inkscape:current-layer="svg3266" />
  <g
     id="g3276"
     transform="matrix(1.0414538,0,0,1.0467695,-6.5116481,-3.2794601)">
    <path
       style="fill:#abc5d2"
       d="m 6.425,195.33485 c 0.3514377,-0.91583 2.9870827,-5.41972 5.856989,-10.00865 6.967477,-11.14086 8.480758,-11.04718 10.883836,0.6738 2.21163,10.78719 2.210519,11 -0.05742,11 -1.183709,0 -2.126404,-0.93557 -2.519052,-2.5 -0.532014,-2.11971 -1.207318,-2.5 -4.439428,-2.5 -3.042644,0 -4.081993,0.50455 -5.149928,2.5 -1.5240157,2.84765 -5.6352721,3.59788 -4.575,0.83485 z m 12.754126,-9.92622 -0.419272,-3.59137 -1.873338,2.84137 C 14.455378,188.34604 14.517542,189 17.299199,189 c 2.049962,0 2.25375,-0.38931 1.879927,-3.59137 z m 21.878191,9.91469 c 0.03152,-1.00282 0.851457,-5.42332 1.822072,-9.82332 1.275987,-5.78432 2.229474,-8.08955 3.442683,-8.32332 2.095014,-0.4037 2.065071,1.70397 -0.167811,11.81195 -1.219163,5.519 -2.11454,7.57667 -3.404261,7.82333 -1.163105,0.22244 -1.730778,-0.2768 -1.692683,-1.48864 z M 62,196.06205 c 0,-0.51587 0.682809,-4.00337 1.517352,-7.75 0.834544,-3.74663 1.743117,-7.82455 2.019052,-9.06205 0.430316,-1.92986 1.148623,-2.25 5.048389,-2.25 2.50068,0 5.417106,0.46583 6.480948,1.03518 2.187912,1.17094 2.637022,5.86206 0.742577,7.7565 -0.688179,0.68818 -1.079369,3.30777 -0.925861,6.2 C 77.120596,196.47845 76.932282,197 75.074139,197 73.320977,197 73,196.38099 73,193 c 0,-3.75095 -0.181316,-4 -2.912102,-4 -2.618153,0 -2.980317,0.40376 -3.587898,4 -0.513,3.03642 -1.136411,4 -2.587898,4 C 62.860446,197 62,196.57792 62,196.06205 z m 12.808254,-13.27632 c 0.217983,-1.15109 -0.533808,-1.92973 -2.288381,-2.3701 -2.983091,-0.74871 -3.022386,-0.725 -3.985264,2.40441 -0.658818,2.1412 -0.457039,2.29537 2.617583,2 2.187959,-0.21019 3.442855,-0.90844 3.656062,-2.03431 z m 19.249063,12.51199 c 0.03152,-0.98875 0.851457,-5.39772 1.822072,-9.79772 1.275987,-5.78432 2.229474,-8.08955 3.442683,-8.32332 2.312688,-0.44564 2.226798,1.02822 -0.849214,14.57332 -0.472681,2.08143 -0.16615,2.25 4.091422,2.25 7.22897,0 5.14657,2.43392 -2.39365,2.79772 -5.399831,0.26053 -6.16347,0.0731 -6.113313,-1.5 z M 122.37421,195.25 c 0.27995,-0.9625 1.28691,-5.4625 2.23769,-10 1.4351,-6.84882 2.05295,-8.25 3.63786,-8.25 2.09223,0 2.13173,-0.56907 -0.91962,13.25 -1.22965,5.56887 -1.83818,6.75 -3.47768,6.75 -1.41984,0 -1.84191,-0.49966 -1.47825,-1.75 z m 21.64057,0.5 c 0.0127,-1.07343 0.74139,-4.50381 3.50498,-16.5 0.35237,-1.52952 1.25356,-2.25 2.81436,-2.25 1.92385,0 2.66797,1.05361 4.59071,6.5 1.26208,3.575 2.45296,6.5 2.64639,6.5 0.33039,0 1.4329,-3.96859 2.84755,-10.25 0.34063,-1.5125 1.28576,-2.75 2.10028,-2.75 1.83114,0 1.83019,0.19477 -0.0448,9.18462 -2.21779,10.63341 -2.36981,10.97209 -4.76844,10.62368 -1.6107,-0.23397 -2.76448,-1.99597 -4.78557,-7.3083 l -2.66316,-7 -1.18759,6 c -1.59966,8.08185 -1.77372,8.5 -3.53811,8.5 -0.84226,0 -1.52473,-0.5625 -1.5166,-1.25 z M 178,196.06538 c 0,-1.16628 2.85873,-14.94254 3.59314,-17.31538 0.44327,-1.4322 1.72492,-1.75 7.05758,-1.75 4.76556,0 6.4054,0.33579 6.10444,1.25 -0.22998,0.69862 -2.47226,1.38444 -5.08333,1.55479 C 187.10232,179.97243 185,180.49812 185,180.973 c 0,0.47489 -0.27314,1.57523 -0.60699,2.44521 -0.50059,1.30453 0.2193,1.58179 4.10699,1.58179 3.88769,0 4.60758,0.27726 4.10699,1.58179 -0.33385,0.86998 -0.60699,1.76998 -0.60699,2 0,0.23001 -2.025,0.41821 -4.5,0.41821 -2.475,0 -4.5,0.4132 -4.5,0.91821 0,0.50502 -0.27314,1.63002 -0.60699,2.5 -0.49936,1.30132 0.20987,1.58179 4,1.58179 3.42844,0 4.60699,0.38373 4.60699,1.5 0,1.17949 -1.38889,1.5 -6.5,1.5 -3.575,0 -6.5,-0.42058 -6.5,-0.93462 z M 209.2,195.8 c -0.66,-0.66 -1.2,-2.01 -1.2,-3 0,-2.20922 3.53567,-2.45241 4.36163,-0.3 0.7359,1.91773 5.02318,1.94618 6.60202,0.0438 1.60398,-1.93267 0.70831,-3.15941 -2.8223,-3.86553 -6.12395,-1.22479 -7.52895,-5.96351 -2.94367,-9.92827 3.72235,-3.21861 12.80232,-1.54989 12.80232,2.35281 0,1.87408 -3.10264,2.13907 -4.39245,0.37516 -0.94393,-1.2909 -2.01833,-1.59169 -3.95196,-1.10638 -2.9974,0.7523 -3.56115,3.40018 -0.90559,4.25353 6.55242,2.10558 7.25,2.63441 7.25,5.4962 0,4.43298 -3.12883,6.87868 -8.8,6.87868 -2.64,0 -5.34,-0.54 -6,-1.2 z m 22.27306,-2.55 c 1.13806,-6.13487 6.38363,-14.80887 12.46156,-20.60623 l 5.69788,-5.43486 -4.86324,-0.64513 c -2.90492,-0.38535 -5.09255,-1.24267 -5.43268,-2.12904 -0.31318,-0.81615 0.22788,-4.55796 1.20236,-8.31513 l 1.77179,-6.83121 5.46104,0.1058 c 4.8166,0.0933 5.70055,-0.21094 7.49069,-2.57831 1.75734,-2.32399 13.22258,-41.66418 12.38627,-42.50049 -0.1657,-0.1657 -2.71559,-0.75914 -5.66643,-1.31876 -11.61236,-2.20224 -13.04305,-6.595682 -5.0294,-15.444629 2.72409,-3.008039 5.69854,-6.911077 6.60988,-8.673418 4.51448,-8.730041 8.02825,-24.211203 6.88202,-30.32116 l -0.61762,-3.292154 -7.13502,1.359519 C 253.05902,48.46031 246.38556,50.74167 220,61.219352 c -20.64355,8.197535 -39.83658,14.510255 -49.25,16.198666 -2.90206,0.520519 -3.75,0.34849 -3.75,-0.760795 0,-0.979602 2.92846,-2.143383 9.25,-3.675986 9.21229,-2.23344 31.77132,-9.925519 36.99481,-12.614327 1.56826,-0.807269 3.85678,-3.607285 5.33899,-6.532275 4.68449,-9.244397 11.62672,-28.132821 14.44445,-39.300478 1.52174,-6.0312131 3.26292,-11.1312131 3.86928,-11.333333 1.57504,-0.5250133 1.37583,1.8952924 -0.8847,10.748917 -2.66749,10.447527 -8.43405,26.887959 -12.6065,35.941091 C 221.53285,53.955789 220,57.401604 220,57.548198 c 0,0.146595 3.4875,-1.202396 7.75,-2.997757 4.2625,-1.795361 12.475,-4.790246 18.25,-6.655301 5.775,-1.865055 10.85118,-3.841938 11.28039,-4.393074 0.42922,-0.551136 0.65422,-8.765014 0.5,-18.253063 -0.20078,-12.352697 0.0414,-17.2507133 0.85298,-17.2499997 1.89228,0.00166 2.33872,3.8156787 2.35298,20.1016517 L 261,43.701311 l 5.25,-0.892107 c 9.79299,-1.664075 39.93676,1.224008 54.75,5.245611 15.00224,4.072914 38.3837,17.926483 43.78918,25.945185 1.89141,2.805781 2.29507,4.541599 2.0351,8.751363 l -0.32428,5.251364 5.75,-0.0014 c 6.61676,-0.0016 6.58578,-0.07668 3.91879,9.498637 l -1.67116,5.999996 -5.68712,0.29806 c -6.71049,0.3517 -4.958,-3.46935 -14.31051,31.20194 -3.63485,13.475 -7.06924,25.9625 -7.63196,27.75 l -1.02314,3.25 -9.03086,0 c -8.87234,0 -9.02057,-0.0395 -8.4447,-2.25 0.32239,-1.2375 4.12702,-15.1875 8.45474,-31 l 7.86858,-28.75 -5.95474,0 -5.95474,0 0.67187,-2.75 c 0.36952,-1.512496 1.35024,-5.112496 2.17936,-7.999996 l 1.50751,-5.25 12.82205,0 C 363.93033,88 364,87.970044 364,81.965266 c 0,-4.669781 -1.76233,-7.177379 -8.82026,-12.5502 -14.85705,-11.309884 -26.93108,-16.900012 -44.02691,-20.383921 -5.48185,-1.11713 -10.12131,-2.030863 -10.30991,-2.030518 -0.18861,3.45e-4 -0.34321,6.187845 -0.34357,13.75 -7.2e-4,15.0013 -0.26197,15.939735 -7.02922,25.249373 -2.7237,3.746967 -4.64046,9.509969 -11.4542,34.43873 -4.50071,16.46631 -9.09257,31.87352 -10.20413,34.23825 -3.43358,7.30463 -10.94619,12.29838 -18.53042,12.31744 -1.46686,0.004 -2.0404,0.46998 -1.69267,1.37615 0.30824,0.80327 -1.13005,2.68214 -3.47487,4.53926 -5.07356,4.01834 -11.83077,14.08035 -13.2555,19.73849 -0.68049,2.70244 -1.66144,4.35168 -2.58835,4.35168 -1.18175,0 -1.34771,-0.78091 -0.79693,-3.75 z m 38.43299,-96 c 0.54073,-2.0625 1.28186,-4.9875 1.64695,-6.5 0.65533,-2.714849 0.76583,-2.75 8.64512,-2.75 7.03888,0 8.20899,-0.265676 9.90962,-2.25 2.65794,-3.101328 7.22621,-10.749381 6.72194,-11.253656 -1.01695,-1.016945 -12.63615,-3.485364 -19.15635,-4.069636 L 270.5,69.783911 l -2.85595,6.60062 c -1.63854,3.786966 -5.15528,9.177524 -8.25,12.645844 C 256.42732,92.355249 254,95.45349 254,95.915355 c 0,2.111262 6.47046,4.876855 11.71146,5.005695 2.89255,0.0711 3.30908,-0.29343 4.19459,-3.67105 z M 298.93679,60 c 0.0613,-5.301061 -1.4648,-11.38095 -3.20391,-12.763975 -0.67808,-0.539248 -6.00771,-1.288854 -11.84361,-1.665791 l -10.61073,-0.685341 -0.57432,9.307553 c -0.31587,5.119155 -0.86302,10.251211 -1.21589,11.404569 -0.60901,1.990545 -0.19344,2.127812 8.18505,2.703608 4.85464,0.333626 10.85162,1.214053 13.32662,1.956505 l 4.5,1.349911 0.69237,-3.553519 C 298.57317,66.099084 298.90816,62.475 298.93679,60 z m -93.46257,122.72679 c -0.43188,-1.08471 0.22963,-3.66379 1.70369,-6.64234 l 2.40971,-4.86913 -4.43338,-0.60766 C 202.71588,170.27345 196.95866,170 192.36043,170 186.31442,170 184,169.65206 184,168.74314 c 0,-0.97 3.48061,-1.17438 15.25,-0.8955 8.3875,0.19875 15.41159,0.51343 15.60909,0.69929 0.1975,0.18585 -0.6512,1.75674 -1.886,3.49086 -1.23479,1.73411 -3.26834,5.24752 -4.51898,7.80757 -1.81772,3.72088 -2.41552,4.29892 -2.97989,2.88143 z M 89.421401,165.10367 C 80.856832,161.21383 78.541604,155.30242 79.232713,139.08913 80.216918,115.99991 90.187319,95.565376 103.5,89.352849 c 9.12906,-4.26019 21.12313,-2.82398 26.37565,3.158311 4.30672,4.905082 5.46148,10.18371 4.8103,21.98884 -1.40737,25.51396 -12.52643,46.20871 -27.58517,51.34139 -5.00831,1.70706 -13.03386,1.37217 -17.679379,-0.73772 z M 105.4121,148.49388 c 7.69074,-7.12753 15.27685,-39.21341 10.42254,-44.08268 -6.39113,-6.410822 -15.96744,10.09063 -19.009506,32.75627 -1.034123,7.70498 -0.975398,8.95425 0.528834,11.25 2.131494,3.25307 4.605152,3.27653 8.058132,0.0764 z M 14.332321,163.7892 C 14.654669,162.53014 19.30199,144.9625 24.6597,124.75 L 34.400991,88 l 7.732117,0 c 6.507305,0 7.8111,0.27721 8.230731,1.75 0.274239,0.9625 1.963931,10.7219 3.754873,21.68754 1.790942,10.96565 3.385162,19.51565 3.542711,19 C 57.818971,129.9219 59.786118,120.95 62.032859,110.5 64.2796,100.05 66.346652,90.7125 66.626309,89.75 67.062168,88.249894 68.425601,88 76.174376,88 c 6.82083,0 8.92187,0.306813 8.559947,1.25 -0.26381,0.6875 -4.924455,18.25243 -10.356989,39.03317 L 64.5,166.06635 56.503329,165.78317 48.506658,165.5 45.543921,144.25 C 43.914416,132.5625 42.328781,123 42.020287,123 c -0.308493,0 -2.595126,9.5625 -5.081406,21.25 l -4.520508,21.25 -9.33607,0.2892 c -9.292436,0.28786 -9.333331,0.27851 -8.749982,-2 z M 130.05158,164.25 c 0.0284,-0.9625 4.44339,-18.4 9.81114,-38.75 l 9.75956,-37 12.43886,-0.286326 c 14.41663,-0.331851 19.07759,0.902424 23.82466,6.309041 4.92402,5.608145 5.53507,18.811675 1.25854,27.194365 -2.53629,4.97153 -8.04084,9.88164 -12.07006,10.76661 -1.69085,0.37137 -3.06995,0.75197 -3.06467,0.84577 0.005,0.0938 1.12597,6.69554 2.49039,14.67054 1.36442,7.975 2.4851,15.2875 2.49039,16.25 0.008,1.53513 -1.07342,1.75 -8.81103,1.75 l -8.82064,0 -1.75549,-15.24279 c -0.96551,-8.38354 -1.85991,-15.34723 -1.98755,-15.47486 -0.12764,-0.12764 -2.00428,6.73162 -4.17033,15.24279 L 147.50709,166 l -8.75355,0 c -7.68969,0 -8.74727,-0.21268 -8.70196,-1.75 z M 168.6,118.6 c 2.69753,-2.69753 3.4,-4.20113 3.4,-7.27749 C 172,106.54257 169.66773,103 166.52085,103 c -2.48611,0 -3.09956,1.22155 -5.52412,11 -0.61367,2.475 -1.34431,5.2875 -1.62364,6.25 -0.40781,1.40522 0.11616,1.75 2.65952,1.75 2.2688,0 4.13198,-0.96459 6.56739,-3.4 z m 15.4,46.77448 c 0,-0.48016 4.6125,-18.13624 10.25,-39.23572 l 10.25,-38.362702 12,0.47245 c 13.58207,0.534736 17.59248,1.814917 22.22924,7.095897 4.05281,4.615888 5.68096,11.831915 4.97332,22.041945 -1.50842,21.76425 -12.26458,41.39725 -25.23774,46.06597 C 213.06406,165.39591 184,167.01687 184,165.37448 z m 28.77068,-17.37609 c 4.59167,-2.79956 8.66911,-9.73421 11.16732,-18.99269 2.33669,-8.65991 2.87259,-19.62258 1.11937,-22.89851 -0.98109,-1.83318 -5.6259,-3.97372 -6.4605,-2.97729 -0.17049,0.20356 -2.87083,10.0451 -6.00074,21.8701 -3.12992,11.825 -5.92479,22.2875 -6.21083,23.25 -0.71328,2.40011 2.22614,2.28428 6.38538,-0.25161 z m 68.17504,7.75161 c 1.53234,-5.6375 6.304,-23.1875 10.60369,-39 L 299.36703,88 316.2509,88 c 15.60779,0 16.84527,0.132265 16.3731,1.75 -0.28092,0.9625 -1.24318,4.3375 -2.13834,7.5 l -1.62758,5.75 -7.68706,0 -7.68707,0 -2.12243,8 -2.12244,8 7.44785,0 c 6.6211,0 7.39115,0.19426 6.93707,1.75 -0.28092,0.9625 -1.24318,4.3375 -2.13834,7.5 l -1.62758,5.75 -7.39049,0 -7.3905,0 -1.08744,4.25 c -0.59809,2.3375 -1.51544,5.55465 -2.03855,7.14922 -0.5231,1.59458 -0.9511,3.28208 -0.9511,3.75 0,0.46793 3.63032,0.85078 8.06739,0.85078 7.207,0 8.01407,0.18664 7.56747,1.75 -0.27495,0.9625 -1.26457,4.5625 -2.19916,8 l -1.69925,6.25 -17.2884,0 -17.28839,0 2.78606,-10.25 z"
       id="path3280"
       inkscape:connector-curvature="0" />
    <path
       style="fill:#35586f"
       d="m 6.425,195.33485 c 0.3514377,-0.91583 2.9870827,-5.41972 5.856989,-10.00865 6.967477,-11.14086 8.480758,-11.04718 10.883836,0.6738 2.21163,10.78719 2.210519,11 -0.05742,11 -1.183709,0 -2.126404,-0.93557 -2.519052,-2.5 -0.532014,-2.11971 -1.207318,-2.5 -4.439428,-2.5 -3.042644,0 -4.081993,0.50455 -5.149928,2.5 -1.5240157,2.84765 -5.6352721,3.59788 -4.575,0.83485 z m 12.754126,-9.92622 -0.419272,-3.59137 -1.873338,2.84137 C 14.455378,188.34604 14.517542,189 17.299199,189 c 2.049962,0 2.25375,-0.38931 1.879927,-3.59137 z m 21.878191,9.91469 c 0.03152,-1.00282 0.851457,-5.42332 1.822072,-9.82332 1.275987,-5.78432 2.229474,-8.08955 3.442683,-8.32332 2.095014,-0.4037 2.065071,1.70397 -0.167811,11.81195 -1.219163,5.519 -2.11454,7.57667 -3.404261,7.82333 -1.163105,0.22244 -1.730778,-0.2768 -1.692683,-1.48864 z M 62,196.06205 c 0,-0.51587 0.682809,-4.00337 1.517352,-7.75 0.834544,-3.74663 1.743117,-7.82455 2.019052,-9.06205 0.430316,-1.92986 1.148623,-2.25 5.048389,-2.25 2.50068,0 5.417106,0.46583 6.480948,1.03518 2.187912,1.17094 2.637022,5.86206 0.742577,7.7565 -0.688179,0.68818 -1.079369,3.30777 -0.925861,6.2 C 77.120596,196.47845 76.932282,197 75.074139,197 73.320977,197 73,196.38099 73,193 c 0,-3.75095 -0.181316,-4 -2.912102,-4 -2.618153,0 -2.980317,0.40376 -3.587898,4 -0.513,3.03642 -1.136411,4 -2.587898,4 C 62.860446,197 62,196.57792 62,196.06205 z m 12.808254,-13.27632 c 0.217983,-1.15109 -0.533808,-1.92973 -2.288381,-2.3701 -2.983091,-0.74871 -3.022386,-0.725 -3.985264,2.40441 -0.658818,2.1412 -0.457039,2.29537 2.617583,2 2.187959,-0.21019 3.442855,-0.90844 3.656062,-2.03431 z m 19.249063,12.51199 c 0.03152,-0.98875 0.851457,-5.39772 1.822072,-9.79772 1.275987,-5.78432 2.229474,-8.08955 3.442683,-8.32332 2.312688,-0.44564 2.226798,1.02822 -0.849214,14.57332 -0.472681,2.08143 -0.16615,2.25 4.091422,2.25 7.22897,0 5.14657,2.43392 -2.39365,2.79772 -5.399831,0.26053 -6.16347,0.0731 -6.113313,-1.5 z M 122.37421,195.25 c 0.27995,-0.9625 1.28691,-5.4625 2.23769,-10 1.4351,-6.84882 2.05295,-8.25 3.63786,-8.25 2.09223,0 2.13173,-0.56907 -0.91962,13.25 -1.22965,5.56887 -1.83818,6.75 -3.47768,6.75 -1.41984,0 -1.84191,-0.49966 -1.47825,-1.75 z m 21.64057,0.5 c 0.0127,-1.07343 0.74139,-4.50381 3.50498,-16.5 0.35237,-1.52952 1.25356,-2.25 2.81436,-2.25 1.92385,0 2.66797,1.05361 4.59071,6.5 1.26208,3.575 2.45296,6.5 2.64639,6.5 0.33039,0 1.4329,-3.96859 2.84755,-10.25 0.34063,-1.5125 1.28576,-2.75 2.10028,-2.75 1.83114,0 1.83019,0.19477 -0.0448,9.18462 -2.21779,10.63341 -2.36981,10.97209 -4.76844,10.62368 -1.6107,-0.23397 -2.76448,-1.99597 -4.78557,-7.3083 l -2.66316,-7 -1.18759,6 c -1.59966,8.08185 -1.77372,8.5 -3.53811,8.5 -0.84226,0 -1.52473,-0.5625 -1.5166,-1.25 z M 178,196.06538 c 0,-1.16628 2.85873,-14.94254 3.59314,-17.31538 0.44327,-1.4322 1.72492,-1.75 7.05758,-1.75 4.76556,0 6.4054,0.33579 6.10444,1.25 -0.22998,0.69862 -2.47226,1.38444 -5.08333,1.55479 C 187.10232,179.97243 185,180.49812 185,180.973 c 0,0.47489 -0.27314,1.57523 -0.60699,2.44521 -0.50059,1.30453 0.2193,1.58179 4.10699,1.58179 3.88769,0 4.60758,0.27726 4.10699,1.58179 -0.33385,0.86998 -0.60699,1.76998 -0.60699,2 0,0.23001 -2.025,0.41821 -4.5,0.41821 -2.475,0 -4.5,0.4132 -4.5,0.91821 0,0.50502 -0.27314,1.63002 -0.60699,2.5 -0.49936,1.30132 0.20987,1.58179 4,1.58179 3.42844,0 4.60699,0.38373 4.60699,1.5 0,1.17949 -1.38889,1.5 -6.5,1.5 -3.575,0 -6.5,-0.42058 -6.5,-0.93462 z M 209.2,195.8 c -0.66,-0.66 -1.2,-2.01 -1.2,-3 0,-2.20922 3.53567,-2.45241 4.36163,-0.3 0.7359,1.91773 5.02318,1.94618 6.60202,0.0438 1.60398,-1.93267 0.70831,-3.15941 -2.8223,-3.86553 -6.12395,-1.22479 -7.52895,-5.96351 -2.94367,-9.92827 3.72235,-3.21861 12.80232,-1.54989 12.80232,2.35281 0,1.87408 -3.10264,2.13907 -4.39245,0.37516 -0.94393,-1.2909 -2.01833,-1.59169 -3.95196,-1.10638 -2.9974,0.7523 -3.56115,3.40018 -0.90559,4.25353 6.55242,2.10558 7.25,2.63441 7.25,5.4962 0,4.43298 -3.12883,6.87868 -8.8,6.87868 -2.64,0 -5.34,-0.54 -6,-1.2 z M 89.421401,165.10367 C 80.856832,161.21383 78.541604,155.30242 79.232713,139.08913 80.216918,115.99991 90.187319,95.565376 103.5,89.352849 c 9.12906,-4.26019 21.12313,-2.82398 26.37565,3.158311 4.30672,4.905082 5.46148,10.18371 4.8103,21.98884 -1.40737,25.51396 -12.52643,46.20871 -27.58517,51.34139 -5.00831,1.70706 -13.03386,1.37217 -17.679379,-0.73772 z M 105.4121,148.49388 c 7.69074,-7.12753 15.27685,-39.21341 10.42254,-44.08268 -6.39113,-6.410822 -15.96744,10.09063 -19.009506,32.75627 -1.034123,7.70498 -0.975398,8.95425 0.528834,11.25 2.131494,3.25307 4.605152,3.27653 8.058132,0.0764 z M 14.332321,163.7892 C 14.654669,162.53014 19.30199,144.9625 24.6597,124.75 L 34.400991,88 l 7.732117,0 c 6.507305,0 7.8111,0.27721 8.230731,1.75 0.274239,0.9625 1.963931,10.7219 3.754873,21.68754 1.790942,10.96565 3.385162,19.51565 3.542711,19 C 57.818971,129.9219 59.786118,120.95 62.032859,110.5 64.2796,100.05 66.346652,90.7125 66.626309,89.75 67.062168,88.249894 68.425601,88 76.174376,88 c 6.82083,0 8.92187,0.306813 8.559947,1.25 -0.26381,0.6875 -4.924455,18.25243 -10.356989,39.03317 L 64.5,166.06635 56.503329,165.78317 48.506658,165.5 45.543921,144.25 C 43.914416,132.5625 42.328781,123 42.020287,123 c -0.308493,0 -2.595126,9.5625 -5.081406,21.25 l -4.520508,21.25 -9.33607,0.2892 c -9.292436,0.28786 -9.333331,0.27851 -8.749982,-2 z M 130.05158,164.25 c 0.0284,-0.9625 4.44339,-18.4 9.81114,-38.75 l 9.75956,-37 12.43886,-0.286326 c 14.41663,-0.331851 19.07759,0.902424 23.82466,6.309041 4.92402,5.608145 5.53507,18.811675 1.25854,27.194365 -2.53629,4.97153 -8.04084,9.88164 -12.07006,10.76661 -1.69085,0.37137 -3.06995,0.75197 -3.06467,0.84577 0.005,0.0938 1.12597,6.69554 2.49039,14.67054 1.36442,7.975 2.4851,15.2875 2.49039,16.25 0.008,1.53513 -1.07342,1.75 -8.81103,1.75 l -8.82064,0 -1.75549,-15.24279 c -0.96551,-8.38354 -1.85991,-15.34723 -1.98755,-15.47486 -0.12764,-0.12764 -2.00428,6.73162 -4.17033,15.24279 L 147.50709,166 l -8.75355,0 c -7.68969,0 -8.74727,-0.21268 -8.70196,-1.75 z M 168.6,118.6 c 2.69753,-2.69753 3.4,-4.20113 3.4,-7.27749 C 172,106.54257 169.66773,103 166.52085,103 c -2.48611,0 -3.09956,1.22155 -5.52412,11 -0.61367,2.475 -1.34431,5.2875 -1.62364,6.25 -0.40781,1.40522 0.11616,1.75 2.65952,1.75 2.2688,0 4.13198,-0.96459 6.56739,-3.4 z m 15.4,46.77448 c 0,-0.48016 4.6125,-18.13624 10.25,-39.23572 l 10.25,-38.362702 12,0.47245 c 13.58207,0.534736 17.59248,1.814917 22.22924,7.095897 4.05281,4.615888 5.68096,11.831915 4.97332,22.041945 -1.50842,21.76425 -12.26458,41.39725 -25.23774,46.06597 C 213.06406,165.39591 184,167.01687 184,165.37448 z m 28.77068,-17.37609 c 4.59167,-2.79956 8.66911,-9.73421 11.16732,-18.99269 2.33669,-8.65991 2.87259,-19.62258 1.11937,-22.89851 -0.98109,-1.83318 -5.6259,-3.97372 -6.4605,-2.97729 -0.17049,0.20356 -2.87083,10.0451 -6.00074,21.8701 -3.12992,11.825 -5.92479,22.2875 -6.21083,23.25 -0.71328,2.40011 2.22614,2.28428 6.38538,-0.25161 z"
       id="path3278"
       inkscape:connector-curvature="0" />
  </g>
</svg>
