<?xml version="1.0" encoding="UTF-8" standalone="no"?>
<!-- Created with Inkscape (http://www.inkscape.org/) -->

<svg
   xmlns:dc="http://purl.org/dc/elements/1.1/"
   xmlns:cc="http://creativecommons.org/ns#"
   xmlns:rdf="http://www.w3.org/1999/02/22-rdf-syntax-ns#"
   xmlns:svg="http://www.w3.org/2000/svg"
   xmlns="http://www.w3.org/2000/svg"
   version="1.1"
   width="232"
   height="78"
   viewBox="0 0 232 78"
   id="Layer_1"
   xml:space="preserve"><metadata
   id="metadata47"><rdf:RDF><cc:Work
       rdf:about=""><dc:format>image/svg+xml</dc:format><dc:type
         rdf:resource="http://purl.org/dc/dcmitype/StillImage" /><dc:title></dc:title></cc:Work></rdf:RDF></metadata><defs
   id="defs45" />
<g
   transform="translate(-5.0000022,-5.0250031)"
   id="g3">
	
	
	
	
	
	
	
	
	
	
	
	
	
	
	
	
	
	<g
   transform="matrix(0.98654709,0,0,0.98654709,0.06726443,0.61693114)"
   id="g3000"><path
     d="M 46.795,79.325 C 36.226,79.325 26.043,75.202 18.853,68.012 C 12.307,61.464 8.697,52.935 8.697,44.001 C 8.697,35.063 12.307,26.538 18.853,19.985 L 28.817,36.714 L 38.066,19.694 H 19.159 C 26.334,12.688 36.373,8.67 46.795,8.67 C 57.22,8.67 67.258,12.688 74.434,19.694 H 74.317 L 64.552,36.714 V 19.694 H 50.273 L 31.633,52.989 H 45.466 L 55.303,36.713 V 52.989 H 69.136 L 81.949,30.382 C 83.871,34.649 84.897,39.263 84.897,44.001 C 84.896,63.476 67.803,79.325 46.795,79.325 M 84.156,26.481 L 88,19.694 H 79.49 C 78.808,18.9 78.103,18.118 77.354,17.368 C 69.477,9.491 58.335,4.975 46.795,4.975 C 23.75,4.975 5,22.478 5,44.001 C 5,53.925 8.994,63.381 16.239,70.626 C 24.116,78.504 35.253,83.025 46.795,83.025 C 58.335,83.025 69.477,78.504 77.354,70.626 C 84.599,63.381 88.593,53.925 88.593,44.001 C 88.593,37.841 87.052,31.866 84.156,26.481 z"
     id="path5"
     style="fill:#e31836;fill-opacity:1;fill-rule:evenodd" /><path
     d="M 111.839,33.858 H 112.818 V 24.096 C 112.818,21.733 112.95,21.499 114.573,21.245 V 20.5 C 113.398,20.56 110.921,20.56 109.948,20.5 V 21.245 C 111.467,21.416 111.84,21.947 111.84,23.978 V 29.483 L 103.987,20.5 C 102.777,20.56 100.825,20.56 99.846,20.5 V 21.245 C 99.963,21.245 100.045,21.265 100.1,21.265 C 100.942,21.362 101.136,21.514 101.84,22.535 V 29.974 C 101.84,32.314 101.626,32.65 100.08,32.825 V 33.569 C 101.038,33.527 103.578,33.527 104.751,33.584 V 32.845 C 103.15,32.631 102.931,32.315 102.896,29.974 L 102.799,23.605 L 111.839,33.858"
     id="path7"
     style="fill:#e31836;fill-opacity:1" /><path
     d="M 131.498,27.103 C 131.498,23.137 128.391,20.264 124.076,20.264 C 119.737,20.264 116.612,23.115 116.612,27.041 C 116.612,30.967 119.737,33.803 124.036,33.803 C 128.331,33.803 131.498,30.967 131.498,27.103 M 128.018,27.103 C 128.018,30.87 126.651,32.884 124.092,32.884 C 121.537,32.884 120.131,30.795 120.131,26.986 C 120.131,23.254 121.518,21.162 123.995,21.162 C 126.573,21.163 128.018,23.274 128.018,27.103 z"
     id="path9"
     style="fill:#e31836;fill-opacity:1" /><path
     d="M 142.278,27.041 C 144.19,26.73 145.385,25.502 145.385,23.859 C 145.385,23.115 145.171,22.453 144.778,21.927 C 143.957,20.871 142.771,20.5 140.073,20.5 C 139.525,20.5 133.669,20.5 133.669,20.5 V 21.245 C 135.193,21.28 135.502,21.596 135.522,23.079 L 135.542,24.369 V 29.739 L 135.522,31.009 C 135.502,32.512 135.194,32.804 133.669,32.824 V 33.568 C 134.725,33.526 138.918,33.526 140.347,33.583 V 32.844 C 138.824,32.804 138.509,32.512 138.49,31.009 L 138.47,29.739 V 27.725 C 138.684,27.71 138.729,27.71 138.779,27.71 C 139.157,27.71 139.311,27.765 139.526,27.999 C 139.785,28.275 140.168,28.758 140.701,29.428 C 141.169,29.993 141.538,30.498 141.851,30.947 L 143.668,33.569 C 144.524,33.549 146.71,33.549 147.611,33.569 V 32.845 C 147.004,32.728 146.75,32.611 146.462,32.315 C 146.188,32.066 145.948,31.77 144.992,30.442 C 144.643,29.954 144.305,29.484 143.957,29.015 C 143.314,28.174 143.08,27.882 142.278,27.041 M 138.47,26.827 V 23.197 C 138.47,21.713 138.47,21.631 138.589,21.514 C 138.684,21.417 138.898,21.397 139.545,21.397 C 141.268,21.397 142.105,22.281 142.105,24.116 C 142.105,25.986 141.204,26.847 139.292,26.847 C 139.097,26.847 138.823,26.827 138.47,26.827 z"
     id="path11"
     style="fill:#e31836;fill-opacity:1" /><path
     d="M 161.086,20.5 H 148.374 C 148.353,22.121 148.353,22.549 148.279,24.232 H 149.095 L 149.115,24.073 C 149.335,22.983 149.504,22.632 149.992,22.198 C 150.505,21.77 151.202,21.556 152.182,21.556 C 152.257,21.556 152.322,21.556 152.371,21.556 L 152.919,21.576 C 153.237,21.596 153.292,21.653 153.292,21.927 V 29.74 L 153.272,31.01 C 153.257,32.533 152.938,32.825 151.285,32.825 V 33.569 C 152.49,33.527 156.812,33.527 158.297,33.584 V 32.845 C 156.653,32.825 156.345,32.533 156.325,31.01 L 156.3,29.72 V 22.667 C 156.3,21.947 156.325,21.733 156.459,21.631 C 156.534,21.556 156.634,21.556 157.515,21.556 C 159.173,21.556 160.209,22.494 160.438,24.232 H 161.245 C 161.126,22.549 161.106,22.141 161.086,20.5"
     id="path13"
     style="fill:#e31836;fill-opacity:1" /><path
     d="M 167.738,27.415 H 173.614 V 29.74 L 173.594,31.01 C 173.573,32.513 173.265,32.805 171.741,32.825 V 33.569 C 173.051,33.527 177.134,33.527 178.538,33.584 V 32.845 C 176.999,32.805 176.681,32.513 176.666,31.01 L 176.645,29.74 V 24.37 L 176.666,23.08 C 176.681,21.596 176.999,21.28 178.538,21.246 V 20.5 C 177.074,20.56 172.976,20.56 171.741,20.5 V 21.245 C 173.264,21.28 173.573,21.596 173.594,23.079 L 173.614,24.369 V 26.435 H 167.738 V 24.37 L 167.759,23.08 C 167.779,21.596 168.087,21.28 169.616,21.246 V 20.5 C 168.207,20.56 164.063,20.56 162.839,20.5 V 21.245 C 164.362,21.28 164.671,21.596 164.692,23.079 L 164.716,24.369 V 29.739 L 164.692,31.009 C 164.671,32.512 164.363,32.804 162.839,32.824 V 33.568 C 164.064,33.526 168.187,33.526 169.616,33.583 V 32.844 C 168.087,32.804 167.778,32.512 167.759,31.009 L 167.738,29.719 V 27.415"
     id="path15"
     style="fill:#e31836;fill-opacity:1" /><path
     d="M 192.486,33.803 H 193.447 C 193.855,32.665 194.17,31.808 194.369,31.243 C 194.911,29.719 195.399,28.173 196.022,26.144 C 196.376,24.952 196.629,24.15 196.768,23.722 C 196.957,23.115 197.078,22.768 197.097,22.709 C 197.431,21.631 197.704,21.382 198.66,21.245 V 20.5 C 197.485,20.56 195.294,20.56 194.323,20.5 V 21.245 C 194.397,21.265 194.482,21.28 194.517,21.28 C 195.632,21.417 195.921,21.674 195.921,22.535 C 195.921,23.217 195.318,25.42 194.009,29.484 L 190.886,20.501 H 189.986 L 187.137,29.624 L 185.379,24.136 C 184.985,22.964 184.866,22.495 184.866,22.122 C 184.866,21.515 185.165,21.363 186.32,21.266 C 186.37,21.266 186.449,21.266 186.549,21.246 V 20.5 C 185.199,20.56 181.296,20.56 180.086,20.5 V 21.245 C 181.221,21.439 181.41,21.576 181.764,22.569 L 182.018,23.314 L 185.653,33.803 H 186.63 L 189.558,25.268 L 192.486,33.803"
     id="path17"
     style="fill:#e31836;fill-opacity:1" /><path
     d="M 209.028,24.232 H 208.252 C 208.191,25.654 207.405,26.436 206.021,26.418 H 205.534 V 22.472 C 205.534,21.77 205.554,21.653 205.594,21.596 C 205.673,21.499 206.281,21.459 207.252,21.459 C 209.343,21.459 210.225,22.102 210.613,23.956 H 211.454 L 211.43,23.742 C 211.335,22.472 211.315,21.984 211.295,20.5 C 211.295,20.5 201.81,20.54 200.634,20.5 V 21.245 C 202.157,21.28 202.467,21.596 202.487,23.079 L 202.507,24.369 V 29.739 L 202.487,31.009 C 202.467,32.512 202.158,32.804 200.634,32.824 V 33.568 C 201.81,33.548 212.116,33.568 212.116,33.568 C 212.077,32.883 212.077,32.314 212.077,31.945 C 212.077,31.38 212.097,30.849 212.177,29.779 H 211.409 C 210.961,31.945 210.065,32.664 207.859,32.664 C 205.921,32.664 205.534,32.196 205.553,29.876 V 27.316 H 206.061 C 207.385,27.316 207.899,27.806 208.272,29.442 H 209.029 V 29.171 L 208.955,26.751 L 209.01,24.603 L 209.028,24.232"
     id="path19"
     style="fill:#e31836;fill-opacity:1" /><path
     d="M 223.006,24.053 C 222.911,22.452 222.911,22.121 222.911,20.458 H 222.045 L 221.796,21.245 C 220.959,20.56 220.112,20.264 218.848,20.264 C 216.309,20.264 214.651,21.748 214.651,24.018 C 214.651,24.621 214.785,25.185 215.034,25.696 C 215.508,26.655 216.25,27.275 217.653,27.882 L 219.217,28.567 C 220.626,29.172 221.189,29.837 221.189,30.892 C 221.189,32.065 220.233,32.884 218.888,32.884 C 218.38,32.884 217.852,32.767 217.404,32.533 C 216.443,32.043 215.975,31.361 215.413,29.678 L 215.333,29.429 H 214.452 C 214.472,30.325 214.492,31.01 214.492,31.458 C 214.492,31.926 214.471,32.63 214.471,33.549 H 215.332 L 215.602,32.471 C 216.582,33.389 217.673,33.803 219.102,33.803 C 221.856,33.803 223.768,32.14 223.768,29.72 C 223.768,27.808 222.752,26.593 220.212,25.483 L 219.037,24.973 C 217.419,24.268 216.99,23.82 216.99,22.827 C 216.99,21.869 217.812,21.164 218.982,21.164 C 220.491,21.164 221.542,22.143 222.109,24.055 H 223.006"
     id="path21"
     style="fill:#e31836;fill-opacity:1" /><path
     d="M 238.104,20.5 H 225.391 C 225.371,22.121 225.371,22.549 225.296,24.232 H 226.118 L 226.133,24.073 C 226.352,22.983 226.527,22.632 227.015,22.198 C 227.523,21.77 228.219,21.556 229.205,21.556 C 229.274,21.556 229.34,21.556 229.394,21.556 L 229.942,21.576 C 230.26,21.596 230.31,21.653 230.31,21.927 V 29.74 L 230.29,31.01 C 230.269,32.533 229.961,32.825 228.303,32.825 V 33.569 C 229.513,33.527 233.83,33.527 235.314,33.584 V 32.845 C 233.676,32.825 233.363,32.533 233.342,31.01 L 233.318,29.72 V 22.667 C 233.318,21.947 233.342,21.733 233.477,21.631 C 233.557,21.556 233.651,21.556 234.533,21.556 C 236.191,21.556 237.226,22.494 237.461,24.232 H 238.263 C 238.148,22.549 238.128,22.141 238.104,20.5"
     id="path23"
     style="fill:#e31836;fill-opacity:1" /><path
     d="M 101.253,51.355 H 104.261 L 104.609,52.296 C 104.746,52.659 104.814,52.899 104.814,53.038 C 104.814,53.426 104.582,53.57 103.9,53.61 C 103.845,53.61 103.778,53.61 103.681,53.61 V 54.123 C 104.517,54.094 104.796,54.094 105.832,54.094 C 106.975,54.094 107.311,54.094 108.274,54.133 V 53.625 C 107.393,53.53 107.204,53.356 106.72,52.151 L 103.845,45.001 H 103.185 L 100.431,51.639 C 99.973,52.7 99.816,52.998 99.452,53.302 C 99.208,53.531 99.049,53.596 98.631,53.611 V 54.124 C 99.276,54.095 99.585,54.095 100.177,54.095 C 100.77,54.095 101.073,54.095 101.895,54.134 V 53.626 C 101.812,53.611 101.748,53.611 101.723,53.611 C 101.033,53.556 100.769,53.357 100.769,52.899 C 100.769,52.724 100.833,52.401 100.926,52.152 L 101.253,51.355 M 101.509,50.708 L 102.799,47.521 L 104.017,50.708 H 101.509 z"
     id="path25"
     style="fill:#e31836;fill-opacity:1" /><path
     d="M 124.54,53.626 C 123.497,53.597 123.275,53.397 123.265,52.361 L 123.25,51.49 V 47.795 L 123.265,46.904 C 123.275,45.888 123.496,45.674 124.54,45.649 V 45.141 C 123.571,45.17 123.235,45.191 122.067,45.191 C 121.006,45.191 120.725,45.17 119.879,45.141 V 45.649 C 120.925,45.673 121.144,45.888 121.154,46.904 L 121.172,47.795 V 51.49 L 121.154,52.361 C 121.144,53.397 120.925,53.596 119.879,53.611 V 54.124 C 120.726,54.095 121.007,54.095 122.043,54.095 C 123.226,54.095 123.562,54.095 124.541,54.134 V 53.626"
     id="path27"
     style="fill:#e31836;fill-opacity:1" /><path
     d="M 141.676,49.633 C 142.991,49.424 143.818,48.577 143.818,47.447 C 143.818,46.938 143.669,46.475 143.4,46.117 C 142.832,45.39 142.015,45.141 140.158,45.141 C 139.785,45.141 139.366,45.151 138.893,45.161 C 138.33,45.171 137.972,45.191 137.823,45.171 L 136.2,45.151 L 135.752,45.141 V 45.649 C 136.797,45.673 137.017,45.888 137.026,46.904 L 137.046,47.795 V 51.49 L 137.026,52.361 C 137.016,53.397 136.797,53.596 135.752,53.611 V 54.124 C 136.479,54.095 136.692,54.095 137.724,54.095 C 139.043,54.095 139.367,54.095 140.348,54.134 V 53.626 C 139.297,53.597 139.083,53.397 139.074,52.361 L 139.058,51.49 V 50.1 C 139.207,50.09 139.233,50.09 139.273,50.09 C 139.527,50.09 139.636,50.13 139.786,50.289 C 139.96,50.478 140.224,50.817 140.588,51.27 C 140.911,51.663 141.17,52.011 141.385,52.32 L 142.634,54.123 C 143.222,54.103 143.651,54.094 143.949,54.094 C 144.258,54.094 144.725,54.104 145.343,54.123 V 53.625 C 144.925,53.546 144.756,53.466 144.552,53.257 C 144.367,53.088 144.203,52.889 143.546,51.972 C 143.302,51.639 143.077,51.315 142.833,50.992 C 142.383,50.415 142.229,50.21 141.676,49.633 M 139.057,49.488 V 46.988 C 139.057,45.967 139.057,45.913 139.137,45.839 C 139.206,45.769 139.356,45.754 139.794,45.754 C 140.98,45.754 141.557,46.357 141.557,47.621 C 141.557,48.911 140.94,49.503 139.625,49.503 C 139.485,49.503 139.296,49.488 139.057,49.488 z"
     id="path29"
     style="fill:#e31836;fill-opacity:1" /><path
     d="M 164.975,51.545 H 164.383 C 164.184,52.337 164.064,52.591 163.715,52.924 C 163.357,53.318 162.759,53.477 161.833,53.477 C 161.161,53.477 160.708,53.343 160.464,53.059 C 160.22,52.79 160.17,52.471 160.17,51.46 V 47.795 L 160.18,46.904 C 160.19,45.888 160.409,45.674 161.454,45.649 V 45.141 C 160.478,45.17 160.1,45.191 158.955,45.191 C 157.914,45.191 157.641,45.17 156.794,45.141 V 45.649 C 157.84,45.673 158.059,45.888 158.068,46.904 L 158.089,47.795 V 51.49 L 158.068,52.361 C 158.058,53.397 157.839,53.596 156.794,53.611 V 54.124 C 157.75,54.104 158.049,54.104 159.238,54.104 H 161.444 L 163.984,54.124 H 164.89 C 164.891,52.964 164.91,52.686 164.975,51.545"
     id="path31"
     style="fill:#e31836;fill-opacity:1" /><path
     d="M 180.774,53.626 C 179.729,53.597 179.52,53.397 179.5,52.361 L 179.49,51.49 V 47.795 L 179.5,46.904 C 179.521,45.888 179.729,45.674 180.774,45.649 V 45.141 C 179.813,45.17 179.475,45.191 178.304,45.191 C 177.239,45.191 176.96,45.17 176.114,45.141 V 45.649 C 177.17,45.673 177.379,45.888 177.388,46.904 L 177.409,47.795 V 51.49 L 177.388,52.361 C 177.378,53.397 177.169,53.596 176.114,53.611 V 54.124 C 176.961,54.095 177.239,54.095 178.275,54.095 C 179.46,54.095 179.798,54.095 180.774,54.134 V 53.626"
     id="path33"
     style="fill:#e31836;fill-opacity:1" /><path
     d="M 200.2,54.323 H 200.872 V 47.606 C 200.872,45.977 200.962,45.818 202.077,45.649 V 45.141 C 201.275,45.17 200.962,45.191 200.393,45.191 C 199.835,45.191 199.567,45.17 198.89,45.141 V 45.649 C 199.946,45.768 200.2,46.127 200.2,47.521 V 51.315 L 194.797,45.141 C 193.961,45.17 193.696,45.191 193.304,45.191 C 192.875,45.191 192.621,45.17 191.95,45.141 V 45.649 C 192.029,45.649 192.089,45.659 192.129,45.659 C 192.707,45.723 192.836,45.839 193.324,46.53 V 51.649 C 193.324,53.257 193.175,53.487 192.109,53.611 V 54.124 C 192.771,54.095 193.065,54.095 193.632,54.095 C 194.19,54.095 194.514,54.095 195.325,54.134 V 53.626 C 194.22,53.477 194.07,53.258 194.045,51.649 L 193.981,47.272 L 200.2,54.323"
     id="path35"
     style="fill:#e31836;fill-opacity:1" /><path
     d="M 219.177,47.701 H 218.639 C 218.599,48.681 218.067,49.215 217.116,49.204 H 216.777 V 46.496 C 216.777,46.008 216.787,45.928 216.817,45.889 C 216.867,45.819 217.285,45.799 217.963,45.799 C 219.397,45.799 219.999,46.237 220.268,47.512 H 220.846 L 220.831,47.367 C 220.761,46.496 220.751,46.157 220.741,45.141 L 220.094,45.151 L 218.979,45.161 H 215.672 C 214.348,45.161 214.208,45.161 213.406,45.141 V 45.649 C 214.452,45.673 214.666,45.888 214.68,46.904 L 214.696,47.795 V 51.49 L 214.68,52.361 C 214.665,53.397 214.451,53.596 213.406,53.611 V 54.124 C 214.208,54.104 214.437,54.104 215.726,54.104 H 220.86 L 221.303,54.124 C 221.273,53.656 221.273,53.258 221.273,53.009 C 221.273,52.62 221.289,52.257 221.348,51.515 H 220.82 C 220.511,53.009 219.894,53.507 218.371,53.507 C 217.046,53.507 216.777,53.184 216.787,51.585 V 49.822 H 217.136 C 218.052,49.822 218.401,50.16 218.659,51.286 H 219.178 V 51.097 L 219.128,49.434 L 219.168,47.96 L 219.177,47.701"
     id="path37"
     style="fill:#e31836;fill-opacity:1" /><path
     d="M 238.846,47.581 C 238.776,46.476 238.776,46.247 238.776,45.106 H 238.189 L 238.009,45.649 C 237.432,45.17 236.854,44.971 235.983,44.971 C 234.235,44.971 233.089,45.997 233.089,47.551 C 233.089,47.969 233.189,48.358 233.363,48.706 C 233.686,49.363 234.194,49.801 235.16,50.209 L 236.236,50.678 C 237.202,51.096 237.595,51.554 237.595,52.282 C 237.595,53.089 236.933,53.656 236.006,53.656 C 235.657,53.656 235.294,53.571 234.99,53.407 C 234.333,53.068 234.004,52.6 233.616,51.45 L 233.561,51.271 H 232.958 C 232.968,51.893 232.982,52.361 232.982,52.669 C 232.982,52.998 232.967,53.476 232.967,54.104 H 233.56 L 233.744,53.367 C 234.422,54 235.179,54.283 236.154,54.283 C 238.047,54.283 239.361,53.143 239.361,51.475 C 239.361,50.16 238.664,49.324 236.921,48.557 L 236.114,48.213 C 234.999,47.73 234.7,47.416 234.7,46.734 C 234.7,46.077 235.268,45.589 236.075,45.589 C 237.11,45.589 237.833,46.266 238.225,47.58 H 238.846"
     id="path39"
     style="fill:#e31836;fill-opacity:1" /></g>
	
</g>
</svg>