<?xml version="1.0" encoding="UTF-8" standalone="no"?>
<svg
   xmlns:dc="http://purl.org/dc/elements/1.1/"
   xmlns:cc="http://creativecommons.org/ns#"
   xmlns:rdf="http://www.w3.org/1999/02/22-rdf-syntax-ns#"
   xmlns:svg="http://www.w3.org/2000/svg"
   xmlns="http://www.w3.org/2000/svg"
   xmlns:sodipodi="http://sodipodi.sourceforge.net/DTD/sodipodi-0.dtd"
   xmlns:inkscape="http://www.inkscape.org/namespaces/inkscape"
   version="1.0"
   width="100"
   height="40.5"
   viewBox="0 0 80 32.4"
   preserveAspectRatio="xMidYMid meet"
   id="svg2"
   inkscape:version="0.91 r13725"
   sodipodi:docname="cccc.svg">
  <title
     id="title4181">Northern Air Cargo Logo</title>
  <defs
     id="defs48" />
  <sodipodi:namedview
     pagecolor="#ffffff"
     bordercolor="#666666"
     borderopacity="1"
     objecttolerance="10"
     gridtolerance="10"
     guidetolerance="10"
     inkscape:pageopacity="0"
     inkscape:pageshadow="2"
     inkscape:window-width="1366"
     inkscape:window-height="705"
     id="namedview46"
     showgrid="false"
     inkscape:showpageshadow="false"
     units="px"
     inkscape:zoom="1"
     inkscape:cx="51.890685"
     inkscape:cy="20.689115"
     inkscape:window-x="-8"
     inkscape:window-y="-8"
     inkscape:window-maximized="1"
     inkscape:current-layer="svg2" />
  <metadata
     id="metadata4">
Created by potrace 1.15, written by Peter Selinger 2001-2017
<rdf:RDF>
  <cc:Work
     rdf:about="">
    <dc:format>image/svg+xml</dc:format>
    <dc:type
       rdf:resource="http://purl.org/dc/dcmitype/StillImage" />
    <dc:title>Northern Air Cargo Logo</dc:title>
    <cc:license
       rdf:resource="http://scripts.sil.org/OFL" />
  </cc:Work>
  <cc:License
     rdf:about="http://scripts.sil.org/OFL">
    <cc:permits
       rdf:resource="http://scripts.sil.org/pub/OFL/Reproduction" />
    <cc:permits
       rdf:resource="http://scripts.sil.org/pub/OFL/Distribution" />
    <cc:permits
       rdf:resource="http://scripts.sil.org/pub/OFL/Embedding" />
    <cc:permits
       rdf:resource="http://scripts.sil.org/pub/OFL/DerivativeWorks" />
    <cc:requires
       rdf:resource="http://scripts.sil.org/pub/OFL/Notice" />
    <cc:requires
       rdf:resource="http://scripts.sil.org/pub/OFL/Attribution" />
    <cc:requires
       rdf:resource="http://scripts.sil.org/pub/OFL/ShareAlike" />
    <cc:requires
       rdf:resource="http://scripts.sil.org/pub/OFL/DerivativeRenaming" />
    <cc:requires
       rdf:resource="http://scripts.sil.org/pub/OFL/BundlingWhenSelling" />
  </cc:License>
</rdf:RDF>
</metadata>
  <g
     transform="matrix(0.00158257,0,0,-0.00153885,-31.422362,52.848694)"
     id="g6"
     style="fill:#000000;stroke:none">
    <path
       d="m 2.0058594,0.88085938 0,14.35937462 0,14.359375 4.6386718,0 4.6406248,0 0,-10.294921 c 0,-5.851478 0.0077,-10.2869621 0.01758,-10.2773442 0.0099,0.011541 2.156288,3.7836042 4.771485,8.3847652 2.615196,4.601162 4.767402,8.3692 4.78125,8.373047 0.01187,0.0058 0.202268,-0.05989 0.423828,-0.144531 0.890195,-0.344318 1.780278,-0.642308 2.626953,-0.878906 0.609289,-0.171197 1.272409,-0.333985 1.353516,-0.333985 0.05935,0.0019 0.0596,0.0025 -0.01953,0.03516 -1.325402,0.553986 -3.276023,1.695351 -5.074218,2.96875 -1.127581,0.798278 -2.728516,2.054064 -2.728516,2.140625 0,0.02308 1.46826,0.02734 10.439453,0.02734 l 10.439453,0 0.425782,-0.333984 c 4.120616,-3.206579 8.994832,-6.009757 14.638671,-8.423828 4.140399,-1.769678 8.625409,-3.275223 13.521485,-4.535156 0.443119,-0.113491 2.143144,-0.52684 2.560547,-0.621094 l 0.208984,-0.04492 0.0098,-2.296875 c 0.01187,-2.473701 0.01034,-2.412606 0.11914,-2.826172 0.136497,-0.5193617 0.41503,-0.9980112 0.800781,-1.376953 0.272994,-0.2673752 0.661877,-0.5454224 0.988282,-0.7050781 0.458945,-0.2250568 1.160887,-0.3698797 2.027344,-0.4179688 0.447075,-0.025006 10.66194,-0.025006 11.445312,0 0.801176,0.025006 1.222896,0.082236 1.666016,0.2226563 0.601376,0.1904327 1.170516,0.5764319 1.43164,0.9746094 0.271015,0.4097188 0.36298,0.8080472 0.386719,1.6621092 l 0.01172,0.449219 4.351562,0 4.347656,0 0,-1.228516 c 0,-0.6732466 -0.0096,-1.4076963 -0.01953,-1.628906 C 97.125523,6.2316468 96.634817,4.7952375 95.552734,3.5449219 95.331175,3.2890881 94.812432,2.8010809 94.509766,2.5664062 94.135883,2.2778719 93.692765,1.9903251 93.431641,1.8691406 92.414839,1.3997914 90.177546,1.0292693 87.574219,0.90039062 86.949104,0.86961362 71.408189,0.8832855 70.947266,0.9140625 c -0.731939,0.0519362 -1.338658,0.1042251 -1.740235,0.1503906 -2.38968,0.2731459 -4.178382,0.8152689 -5.359375,1.6308594 -1.141428,0.7867371 -2.003042,2.0209263 -2.533203,3.6367187 -0.172104,0.5270562 -0.366008,1.325275 -0.458984,1.9023438 -0.01187,0.082713 -0.0292,0.154356 -0.03711,0.1582031 -0.0079,0.00577 -0.933016,-1.650329 -2.05664,-3.6796875 C 57.638094,2.6854557 56.697592,0.99156669 56.671875,0.95117188 l -0.04687,-0.0703125 -6.564453,0 -6.5625,0 -2.580078,4.73828122 c -1.418378,2.6083508 -2.587791,4.7362694 -2.595703,4.7324214 -0.0079,-0.0058 -0.01563,-2.1396069 -0.01563,-4.742187 l 0,-4.72851562 -4.638672,0 -4.638672,0 0,10.71093762 c 0,5.893795 -0.0077,10.718839 -0.01758,10.724609 -0.0079,0.0058 -2.765996,-4.799357 -6.125,-10.679687 C 19.525736,5.7583117 16.763873,0.931345 16.748047,0.91210938 c -0.0277,-0.030777 -0.403629,-0.03125 -7.3867189,-0.03125 l -7.3554687,0 z M 49.921875,6.9550781 c 0.0099,0.00962 1.027289,1.9245017 2.263672,4.2558599 1.234404,2.331357 2.248022,4.248194 2.25,4.257812 0.002,0.0096 -0.196108,0.04948 -0.441406,0.0918 -3.544957,0.594381 -6.437588,1.161744 -9.048829,1.773437 -0.423337,0.100026 -0.386718,0.09532 -0.386718,0.07031 0,-0.0096 1.009711,-1.996085 2.246094,-4.410156 1.236382,-2.415995 2.440373,-4.7668019 2.675781,-5.2246098 0.247276,-0.4828141 0.431515,-0.8240709 0.441406,-0.8144531 z m 19.732422,9.6406249 c -0.01187,0.0019 -0.34652,0.117393 -0.744141,0.257813 -3.928729,1.396506 -7.458803,3.014558 -10.861328,4.978515 -0.09298,0.05386 -0.150365,0.09996 -0.152344,0.123047 -0.004,0.01924 0.903845,1.754939 2.017578,3.855469 l 2.021485,3.816406 13.056641,0.0098 c 7.18091,0.0058 13.329744,0.0038 13.664062,-0.0039 1.224513,-0.02693 2.102193,-0.124286 2.976562,-0.332031 1.248252,-0.294305 2.431916,-0.843974 3.488282,-1.621093 1.539049,-1.131055 2.303906,-2.410572 2.519531,-4.216797 0.0633,-0.530904 0.07227,-0.821938 0.07227,-2.833985 l 0,-2.033203 -4.34375,0 -4.345703,0 0.01562,0.1875 c 0.02572,0.267375 0.01991,0.760414 -0.0098,0.929688 -0.16617,0.948316 -0.663919,1.716729 -1.445313,2.220703 -0.5084,0.328929 -1.022896,0.496892 -1.68164,0.548828 -0.185952,0.01539 -2.041995,0.01947 -6.123047,0.01563 -6.452929,-0.0077 -5.879168,0.0039 -6.474609,-0.121094 -1.020758,-0.215439 -2.063368,-0.674236 -2.457032,-1.082031 -0.498509,-0.513591 -0.882834,-1.245461 -1.035156,-1.966797 -0.09495,-0.453961 -0.115109,-0.725007 -0.125,-1.767578 -0.0079,-0.7021 -0.0154,-0.964844 -0.0332,-0.964844 z"
       transform="matrix(505.50691,0,0,-519.86873,20135.702,34227.621)"
       id="path10"
       style="fill:#ff0000"
       inkscape:connector-curvature="0" />
    <path
       d="m 21030,15025 0,-1205 165,0 165,0 0,1036 c 0,581 4,1034 9,1032 4,-1 466,-468 1026,-1035 l 1017,-1033 269,0 269,0 0,1205 0,1205 -180,0 -180,0 0,-1034 c 0,-569 -3,-1037 -7,-1039 -5,-3 -465,462 -1023,1033 l -1015,1039 -257,0 -258,1 0,-1205 z"
       id="path14"
       inkscape:connector-curvature="0" />
    <path
       d="m 24886,16219 c -343,-32 -510,-114 -595,-293 -86,-180 -93,-265 -88,-981 4,-549 5,-585 25,-668 55,-226 175,-360 367,-407 172,-42 183,-43 990,-47 811,-5 944,0 1120,36 147,31 202,56 271,125 102,102 160,253 184,476 16,155 13,1086 -5,1200 -27,180 -72,292 -154,382 -59,64 -120,100 -223,128 -181,50 -242,53 -1043,55 -412,2 -794,-1 -849,-6 z m 1649,-322 c 158,-38 222,-96 268,-241 22,-70 22,-79 22,-616 0,-485 -2,-552 -17,-613 -48,-184 -118,-242 -341,-285 -82,-15 -170,-17 -787,-17 -767,0 -817,4 -945,64 -76,36 -111,71 -146,147 -58,127 -64,191 -64,699 0,499 5,557 59,679 51,115 114,154 294,181 146,22 138,22 887,20 618,-1 708,-3 770,-18 z"
       id="path16"
       inkscape:connector-curvature="0" />
    <path
       d="m 27440,15025 0,-1205 170,0 170,0 2,463 3,462 885,0 885,0 65,-32 c 69,-34 100,-69 128,-145 14,-36 17,-102 20,-395 l 4,-353 169,0 169,0 0,348 c 0,384 -4,413 -62,504 -35,56 -122,138 -185,175 l -45,26 53,26 c 79,39 154,112 188,184 42,90 53,152 58,338 11,363 -38,515 -221,686 -55,52 -79,66 -148,90 l -83,28 -1112,3 -1113,3 0,-1206 z m 2162,852 c 89,-44 125,-89 153,-191 23,-84 17,-372 -9,-454 -30,-93 -95,-148 -204,-171 -78,-16 -1733,-16 -1750,1 -9,9 -12,118 -12,428 0,229 3,420 7,424 4,3 397,5 873,4 l 866,-3 76,-38 z"
       id="path18"
       inkscape:connector-curvature="0" />
    <path
       d="m 30296,16169 c -3,-34 -6,-113 -6,-175 l 0,-114 588,0 c 444,0 591,-3 600,-12 9,-9 12,-252 12,-1030 l 0,-1018 175,0 175,0 2,1028 3,1027 563,3 562,2 0,175 0,175 -1334,0 -1333,0 -7,-61 z"
       id="path20"
       inkscape:connector-curvature="0" />
    <path
       d="m 33160,15025 0,-1205 93,0 c 52,0 128,-3 170,-6 l 77,-7 2,539 3,539 1054,3 c 770,1 1057,-1 1067,-9 12,-9 14,-107 14,-542 l 0,-530 68,6 c 37,4 115,7 175,7 l 107,0 0,1205 0,1205 -175,0 -175,0 -2,-487 -3,-488 -1054,-3 c -770,-1 -1057,1 -1067,9 -12,9 -14,99 -14,490 l 0,479 -170,0 -170,0 0,-1205 z"
       id="path22"
       inkscape:connector-curvature="0" />
    <path
       d="m 36250,15025 0,-1205 1180,0 1180,0 0,150 0,150 -979,0 c -815,0 -980,2 -990,14 -8,9 -11,118 -9,382 l 3,369 933,3 932,2 0,155 0,155 -924,0 c -769,0 -925,2 -935,14 -8,9 -11,112 -9,357 l 3,344 973,3 972,2 0,155 0,155 -1165,0 -1165,0 0,-1205 z"
       id="path24"
       inkscape:connector-curvature="0" />
    <path
       d="m 38890,15025 0,-1205 170,0 170,0 2,463 3,462 885,0 885,0 50,-23 c 64,-29 91,-55 123,-117 l 27,-50 3,-367 3,-368 175,0 175,0 -3,363 c -3,352 -4,364 -27,420 -31,78 -104,163 -190,222 l -71,49 55,30 c 120,64 189,155 221,292 13,56 15,114 12,319 -4,224 -7,257 -26,317 -45,134 -178,294 -286,344 -118,54 -119,54 -1282,54 l -1074,0 0,-1205 z m 2145,862 c 140,-65 185,-162 185,-395 0,-262 -45,-365 -181,-419 -41,-17 -109,-18 -913,-21 -645,-2 -872,0 -882,9 -12,9 -14,85 -14,429 0,229 3,420 7,424 4,3 396,5 872,4 l 866,-3 60,-28 z"
       id="path26"
       inkscape:connector-curvature="0" />
    <path
       d="m 41820,15025 0,-1205 165,0 165,0 0,1036 c 0,598 4,1034 9,1032 5,-1 467,-468 1026,-1035 l 1017,-1033 269,0 269,0 0,1205 0,1205 -180,0 -180,0 0,-1034 c 0,-569 -3,-1037 -7,-1039 -5,-3 -465,463 -1023,1034 l -1015,1038 -257,0 -258,1 0,-1205 z"
       id="path28"
       inkscape:connector-curvature="0" />
    <path
       d="m 47177,16063 c -625,-1106 -1247,-2219 -1247,-2230 0,-10 40,-13 203,-13 l 202,0 145,248 145,247 904,3 c 642,1 908,-1 917,-9 7,-6 81,-118 165,-250 l 152,-239 194,0 c 184,0 194,1 191,18 -2,11 -313,553 -692,1205 l -689,1187 -248,0 -248,0 -94,-167 z m 716,-765 c 202,-351 367,-642 367,-648 0,-12 -1446,-14 -1454,-2 -3,5 153,304 346,665 302,565 352,655 363,640 6,-10 177,-305 378,-655 z"
       id="path30"
       inkscape:connector-curvature="0" />
    <path
       d="m 49470,15025 0,-1205 180,0 180,0 0,1205 0,1205 -180,0 -180,0 0,-1205 z"
       id="path32"
       inkscape:connector-curvature="0" />
    <path
       d="m 50180,15025 0,-1205 175,0 175,0 2,463 3,462 855,3 c 743,2 862,0 915,-13 90,-24 128,-53 167,-132 l 33,-68 3,-357 3,-358 175,0 174,0 0,299 c 0,325 -9,429 -44,506 -30,66 -123,166 -197,211 l -58,36 50,25 c 79,40 161,122 194,194 45,102 58,205 52,439 -7,279 -29,357 -144,500 -96,118 -176,165 -324,189 -41,7 -442,11 -1136,11 l -1073,0 0,-1205 z m 2112,875 c 95,-29 140,-66 180,-147 l 33,-68 0,-200 c 0,-170 -3,-208 -19,-254 -24,-69 -72,-122 -139,-152 l -52,-24 -869,-3 c -645,-2 -872,0 -882,9 -12,9 -14,85 -14,429 0,229 3,420 7,423 3,4 385,7 849,7 812,0 844,-1 906,-20 z"
       id="path34"
       inkscape:connector-curvature="0" />
    <path
       d="m 54865,16219 c -267,-26 -460,-97 -555,-205 -68,-78 -123,-228 -160,-434 -20,-109 -23,-170 -27,-473 -7,-466 13,-681 82,-888 34,-100 73,-158 149,-220 114,-93 267,-147 480,-168 176,-18 1337,-15 1478,4 293,39 475,141 539,303 21,52 23,77 27,290 l 4,232 -161,0 -161,0 0,-128 c 0,-214 -30,-286 -143,-341 -127,-63 -160,-66 -792,-66 -598,0 -705,6 -856,46 -41,11 -98,33 -126,49 -43,25 -57,40 -82,92 -73,149 -84,259 -78,773 4,375 6,418 25,499 43,177 94,252 196,285 133,44 172,46 821,46 598,0 623,-1 717,-22 54,-12 123,-34 155,-50 49,-24 61,-36 85,-83 33,-66 48,-152 48,-282 l 0,-98 161,0 161,0 -4,218 c -4,250 -13,285 -96,395 -104,136 -254,200 -537,227 -131,12 -1218,11 -1350,-1 z"
       id="path36"
       inkscape:connector-curvature="0" />
    <path
       d="m 57751,15037 c -369,-657 -671,-1199 -671,-1205 0,-9 55,-12 203,-12 l 202,0 146,248 146,247 904,2 c 497,2 909,-1 915,-5 6,-4 71,-101 144,-217 73,-115 144,-225 157,-242 l 24,-33 191,0 190,0 -4,23 c -3,12 -314,553 -691,1202 l -685,1180 -250,3 -249,2 -672,-1193 z m 1287,274 c 204,-356 372,-653 372,-659 0,-9 -182,-12 -724,-12 -399,0 -727,3 -729,8 -3,4 147,291 332,637 397,743 360,675 369,675 4,0 175,-292 380,-649 z"
       id="path38"
       inkscape:connector-curvature="0" />
    <path
       d="m 60550,15025 0,-1205 175,0 175,0 2,463 3,462 880,0 880,0 70,-35 c 66,-33 72,-39 105,-104 l 35,-69 3,-358 4,-359 174,0 174,0 0,288 c 0,317 -8,420 -40,504 -26,70 -119,174 -200,224 l -59,36 50,25 c 68,34 155,116 184,173 52,103 60,156 59,415 0,216 -3,248 -22,320 -25,88 -64,159 -132,240 -69,81 -126,122 -215,153 l -80,27 -1112,3 -1113,3 0,-1206 z m 2096,880 c 27,-8 74,-29 104,-47 46,-28 60,-44 90,-102 l 35,-69 0,-201 c 0,-170 -3,-209 -19,-254 -33,-95 -96,-148 -204,-171 -78,-16 -1723,-16 -1740,1 -9,9 -12,118 -12,428 0,229 3,420 7,423 3,4 385,7 848,7 711,0 849,-2 891,-15 z"
       id="path40"
       inkscape:connector-curvature="0" />
    <path
       d="m 64265,16219 c -207,-17 -391,-61 -475,-112 -134,-81 -222,-211 -272,-400 -21,-78 -22,-107 -25,-642 -4,-598 0,-676 42,-799 39,-111 148,-255 235,-311 88,-56 284,-105 500,-124 164,-15 1386,-16 1475,-2 197,32 324,89 425,191 74,73 118,150 151,260 21,70 23,99 26,428 l 5,352 -781,0 -781,0 0,-165 0,-165 589,0 c 512,0 590,-2 601,-15 9,-11 11,-52 8,-158 -7,-175 -23,-232 -88,-298 -94,-98 -194,-109 -944,-109 -676,0 -779,9 -932,81 -83,39 -110,63 -140,121 -51,101 -56,150 -61,597 -5,450 1,548 43,683 48,152 117,204 316,241 106,20 147,21 673,22 602,0 650,-3 825,-57 199,-62 260,-132 268,-310 l 4,-98 185,0 186,0 -5,133 c -4,105 -11,148 -32,213 -64,198 -211,331 -436,394 -181,50 -225,53 -875,56 -335,1 -655,-2 -710,-7 z"
       id="path42"
       inkscape:connector-curvature="0" />
    <path
       d="m 67281,16219 c -272,-24 -456,-92 -540,-198 -71,-89 -121,-241 -141,-423 -13,-127 -13,-1036 1,-1169 19,-191 58,-305 138,-406 76,-97 183,-147 384,-181 91,-15 194,-17 937,-17 858,0 919,2 1075,41 141,35 218,81 281,170 70,97 114,228 134,404 8,62 10,291 8,665 l -4,570 -27,100 c -38,142 -77,213 -158,289 -57,54 -79,67 -145,89 -103,34 -218,54 -383,67 -159,12 -1422,11 -1560,-1 z m 1652,-322 c 79,-20 153,-55 183,-89 33,-35 72,-120 91,-195 15,-60 17,-128 17,-568 -1,-408 -4,-515 -16,-580 -41,-212 -127,-289 -363,-326 -103,-16 -1148,-24 -1375,-10 -313,19 -413,58 -479,190 -62,124 -71,209 -71,716 -1,468 5,539 49,656 47,124 97,164 244,195 141,29 241,32 947,30 616,-2 714,-5 773,-19 z"
       id="path44"
       inkscape:connector-curvature="0" />
  </g>
</svg>
