<?xml version="1.0" encoding="utf-8"?>
<!-- Generator: Adobe Illustrator 15.0.0, SVG Export Plug-In . SVG Version: 6.00 Build 0)  -->
<!DOCTYPE svg PUBLIC "-//W3C//DTD SVG 1.1//EN" "http://www.w3.org/Graphics/SVG/1.1/DTD/svg11.dtd">
<svg version="1.1" id="Layer_2" xmlns="http://www.w3.org/2000/svg" xmlns:xlink="http://www.w3.org/1999/xlink" x="0px" y="0px"
	 width="308.732px" height="47.085px" viewBox="0 0 308.732 47.085" enable-background="new 0 0 308.732 47.085"
	 xml:space="preserve">
<g>
	<path d="M26.329,23.009c-0.44-1.463-1.233-2.861-2.377-4.205c-2.681-3.193-6.157-4.789-10.425-4.789
		c-2.046,0-4.002,0.432-5.866,1.293c-1.867,0.871-3.432,2.068-4.701,3.605C0.987,21.353,0,24.498,0,28.35v18.063v0.438h7.348v-0.438
		H7.35V30.431c0-3.12,0.404-5.312,1.208-6.582c0.486-0.779,1.189-1.408,2.101-1.898c0.915-0.49,1.87-0.734,2.868-0.734
		c1.001,0,1.959,0.25,2.871,0.752c0.917,0.502,1.604,1.139,2.068,1.918c0.78,1.393,1.171,3.742,1.171,7.061v15.467v0.438h7.346
		v-0.438h0.002V28.822C26.986,26.408,26.768,24.472,26.329,23.009z"/>
	<path d="M59.152,21.577c-1.683-2.583-3.912-4.546-6.691-5.884c-2.185-1.072-4.469-1.619-6.853-1.672
		c-2.384,0.053-4.668,0.6-6.854,1.672c-2.779,1.338-5.008,3.301-6.69,5.884c-1.78,2.729-2.669,5.692-2.669,8.884
		c0,2.488,0.574,4.891,1.718,7.205c1.049,2.146,2.463,3.953,4.243,5.412c3.021,2.513,6.423,3.768,10.202,3.768
		c0.017,0,0.034-0.002,0.05-0.002s0.033,0.002,0.05,0.002c3.779,0,7.181-1.255,10.202-3.768c1.78-1.459,3.194-3.266,4.243-5.412
		c1.145-2.314,1.719-4.717,1.719-7.205C61.822,27.269,60.933,24.306,59.152,21.577z M51.51,37.263
		c-1.639,1.5-3.607,2.277-5.901,2.363c-2.294-0.086-4.263-0.863-5.902-2.363c-1.977-1.803-2.961-4.068-2.961-6.803
		c0-2.508,0.841-4.627,2.524-6.361c1.735-1.803,3.854-2.748,6.339-2.859c2.484,0.111,4.604,1.057,6.339,2.859
		c1.682,1.734,2.524,3.854,2.524,6.361C54.472,33.195,53.486,35.46,51.51,37.263z"/>
	<path d="M78.786,14.011c-2.047,0-4.002,0.433-5.866,1.295c-1.868,0.869-3.431,2.068-4.701,3.605
		c-1.974,2.438-2.961,5.583-2.961,9.436v12.941v5.121v0.436h7.35V46.41v-5.121V30.429c0-3.122,0.403-5.312,1.208-6.582
		c0.486-0.779,1.19-1.41,2.102-1.899c0.914-0.489,1.873-0.734,2.869-0.734h3.01v-7.202H78.786z"/>
	<path d="M130.098,23.003c-0.44-1.461-1.233-2.861-2.378-4.204c-2.68-3.192-6.157-4.789-10.425-4.789
		c-2.045,0-4.002,0.432-5.866,1.294c-0.108,0.051-0.206,0.113-0.313,0.166V7.75h-7.348v20.596v18.062v0.439h7.348v-0.439h0.002
		v-15.98c0-3.121,0.404-5.312,1.209-6.582c0.486-0.779,1.188-1.41,2.1-1.9c0.916-0.488,1.872-0.732,2.869-0.732
		c1.001,0,1.959,0.25,2.871,0.751c0.917,0.501,1.604,1.14,2.068,1.919c0.781,1.392,1.172,3.741,1.172,7.061v15.465v0.439h7.347
		v-0.439h0.001V28.817C130.754,26.404,130.536,24.467,130.098,23.003z"/>
	<path d="M201.381,27.171c-0.686-4.021-2.606-7.252-5.778-9.689c-3.05-2.313-6.44-3.472-10.166-3.472
		c-2.512,0-4.911,0.56-7.206,1.685c-2.78,1.338-5.009,3.301-6.691,5.885c-1.782,2.729-2.669,5.692-2.669,8.885
		c0,2.486,0.573,4.887,1.719,7.203c1.049,2.148,2.462,3.953,4.241,5.412c3.025,2.513,6.424,3.768,10.204,3.768
		c3.291,0,6.399-1.121,9.325-3.365v2.926v0.439h7.348v-0.439h0.002V33.464C201.709,30.562,201.601,28.466,201.381,27.171z
		 M192.347,36.682c-1.805,1.976-4.093,2.962-6.872,2.962c-2.466,0-4.561-0.792-6.291-2.379c-1.975-1.803-2.964-4.068-2.964-6.801
		c0-2.51,0.842-4.631,2.524-6.363c1.854-1.925,4.132-2.889,6.839-2.889c2.267,0.051,4.216,0.77,5.851,2.158
		c2.12,1.856,3.181,4.289,3.181,7.312C194.614,33.001,193.856,34.998,192.347,36.682z"/>
	<polygon points="94.24,14.011 94.24,7.682 86.893,7.682 86.893,14.011 83.982,14.011 83.982,21.213 86.893,21.213 86.893,46.779 
		94.24,46.779 94.24,21.213 101.232,21.213 101.232,14.011 	"/>
	<polygon points="240.74,14.011 240.74,7.682 233.393,7.682 233.393,14.011 230.482,14.011 230.482,21.213 233.393,21.213 
		233.393,46.779 240.74,46.779 240.74,21.213 247.732,21.213 247.732,14.011 	"/>
	<g>
		<path d="M155.206,37.265c-1.639,1.499-3.607,2.276-5.901,2.361c-2.293-0.085-4.264-0.862-5.902-2.361
			c-1.172-1.069-1.986-2.307-2.463-3.703h12.605h4.124h7.52c0.204-1.02,0.329-2.051,0.329-3.1c0-3.192-0.89-6.157-2.67-8.885
			c-1.683-2.583-3.911-4.547-6.69-5.885c-2.185-1.072-4.47-1.619-6.853-1.672c-2.384,0.053-4.669,0.6-6.854,1.672
			c-2.777,1.338-5.009,3.302-6.691,5.885c-1.779,2.728-2.669,5.692-2.669,8.885c0,2.487,0.573,4.89,1.719,7.203
			c1.05,2.147,2.464,3.953,4.243,5.414c3.021,2.512,6.423,3.765,10.202,3.765c0.017,0,0.033-0.001,0.05-0.001
			c0.016,0,0.033,0.001,0.049,0.001c3.779,0,7.182-1.253,10.203-3.765c1.78-1.461,3.193-3.267,4.242-5.414
			c0.129-0.261,0.225-0.527,0.34-0.791h-8.553C155.459,37.005,155.343,37.14,155.206,37.265z M142.965,24.099
			c1.736-1.803,3.855-2.747,6.34-2.859c2.484,0.112,4.604,1.057,6.339,2.859c0.903,0.932,1.556,1.978,1.975,3.131H140.99
			C141.409,26.077,142.062,25.031,142.965,24.099z"/>
	</g>
	<g>
		<path d="M308.732,23.5c0-12.979-10.521-23.5-23.5-23.5c-6.614,0-12.587,2.737-16.857,7.135h33.357v33.093
			C306.053,35.967,308.732,30.047,308.732,23.5z"/>
		<path d="M263.734,14.01c-1.283,2.903-2.002,6.112-2.002,9.489c0,12.979,10.521,23.5,23.5,23.5c3.431,0,6.687-0.74,9.625-2.062
			V14.01H263.734z"/>
		<path fill="#FFDE17" d="M268.375,7.135c-1.928,1.985-3.507,4.31-4.641,6.875h31.123v30.927c2.569-1.155,4.896-2.756,6.875-4.709
			V7.135H268.375z"/>
	</g>
	<path d="M217.88,26.933h-1.292h-0.523h-1.938c-1.501,0-2.72-1.219-2.72-2.721c0-0.043,0.011-0.084,0.013-0.126
		c-0.002-0.042-0.013-0.083-0.013-0.126c0-1.502,1.219-2.721,2.72-2.721h1.938h0.523h1.938c1.501,0,2.72,1.219,2.72,2.721
		c0,0.043-0.011,0.084-0.013,0.126h7.205c-0.267-5.608-4.883-10.076-10.559-10.076h-1.292h-0.523h-1.292
		c-5.676,0-10.292,4.468-10.559,10.076c0.267,5.608,4.883,10.076,10.559,10.076h1.292h0.523h1.938c1.501,0,2.72,1.218,2.72,2.72
		c0,0.043-0.011,0.084-0.013,0.127c0.002,0.042,0.013,0.082,0.013,0.125c0,1.503-1.219,2.721-2.72,2.721h-1.938h-0.523h-1.938
		c-1.501,0-2.72-1.218-2.72-2.721c0-0.043,0.011-0.083,0.013-0.125h-7.205c0.267,5.607,4.883,10.076,10.559,10.076h1.292h0.523
		h1.292c5.676,0,10.292-4.469,10.559-10.076C228.172,31.401,223.556,26.933,217.88,26.933z"/>
</g>
</svg>
