<?xml version="1.0" encoding="UTF-8" standalone="no"?>
<!-- Created with Inkscape (http://www.inkscape.org/) -->

<svg
   xmlns:dc="http://purl.org/dc/elements/1.1/"
   xmlns:cc="http://creativecommons.org/ns#"
   xmlns:rdf="http://www.w3.org/1999/02/22-rdf-syntax-ns#"
   xmlns:svg="http://www.w3.org/2000/svg"
   xmlns="http://www.w3.org/2000/svg"
   version="1.1"
   width="506.73703"
   height="70.569183"
   id="svg5929">
  <defs
     id="defs5931" />
  <g
     transform="translate(-138.06005,-451.36331)"
     id="layer1">
    <path
       d="m 475.4015,517.47613 -8.22237,0 -2.62083,3.06379 -7.07807,0 20.44981,-24.45027 10.39564,0 -6.42287,24.45027 -7.23957,0 0.73826,-3.06379 z m 1.08894,-4.4757 2.19632,-8.96525 -7.67329,8.96525 5.47697,0 z"
       id="path4971"
       style="fill:#569fd3;fill-opacity:1;fill-rule:nonzero;stroke:none" />
    <path
       d="m 491.74751,496.08946 6.93965,0 -6.53822,24.45027 -6.93503,0 6.5336,-24.45027 z"
       id="path4975"
       style="fill:#569fd3;fill-opacity:1;fill-rule:nonzero;stroke:none" />
    <path
       d="m 496.27203,520.53798 6.53361,-24.45027 11.53071,0 c 2.13634,0 3.71898,0.20302 4.74332,0.59984 1.02434,0.40143 1.73491,1.1443 2.13634,2.22862 0.40604,1.08432 0.39682,2.40396 -0.0185,3.96354 -0.36451,1.35194 -0.94128,2.52393 -1.73029,3.51135 -0.79825,0.9782 -1.73492,1.78105 -2.82385,2.39012 -0.69673,0.3922 -1.59187,0.71519 -2.68542,0.97358 0.74287,0.2953 1.25965,0.59522 1.55957,0.89514 0.19841,0.20302 0.4568,0.63214 0.76133,1.29196 0.30454,0.6552 0.49372,1.16276 0.56293,1.51804 l 1.4719,7.07808 -7.82094,0 -1.71185,-7.47028 c -0.21225,-0.96896 -0.46602,-1.59648 -0.7521,-1.88717 -0.40143,-0.37836 -0.91821,-0.56754 -1.55035,-0.56754 l -0.61829,0 -2.64851,9.92499 -6.93965,0 z m 10.82475,-14.52528 2.92536,0 c 0.31837,0 0.95512,-0.11074 1.92409,-0.33222 0.48909,-0.10612 0.93205,-0.3599 1.33809,-0.77056 0.39682,-0.41527 0.67367,-0.89052 0.8167,-1.42576 0.20764,-0.79363 0.13843,-1.4027 -0.20763,-1.8272 -0.34606,-0.4245 -1.14892,-0.63675 -2.41319,-0.63675 l -3.04994,0 -1.33348,4.99249 z"
       id="path4987"
       style="fill:#569fd3;fill-opacity:1;fill-rule:nonzero;stroke:none" />
    <path
       d="m 526.15498,496.08956 6.93965,0 -4.93712,18.47035 10.74631,0 -1.59649,5.97991 -17.68595,0 6.5336,-24.45026 z"
       id="path4991"
       style="fill:#569fd3;fill-opacity:1;fill-rule:nonzero;stroke:none" />
    <path
       d="m 546.37962,496.08956 6.93965,0 -6.5336,24.45026 -6.93965,0 6.5336,-24.45026 z"
       id="path4995"
       style="fill:#569fd3;fill-opacity:1;fill-rule:nonzero;stroke:none" />
    <path
       d="m 557.36633,496.08956 6.48747,0 4.8033,13.51017 3.60825,-13.51017 6.52899,0 -6.5336,24.45026 -6.52899,0 -4.77563,-13.43634 -3.5944,13.43634 -6.52899,0 6.5336,-24.45026 z"
       id="path4999"
       style="fill:#569fd3;fill-opacity:1;fill-rule:nonzero;stroke:none" />
    <path
       d="m 582.44227,496.08956 18.57187,0 -1.38424,5.19089 -11.63683,0 -1.03357,3.88048 10.81552,0 -1.3381,4.99249 -10.81551,0 -1.29657,4.86329 11.97366,0 -1.47652,5.52311 -18.9087,0 6.52899,-24.45026 z"
       id="path5003"
       style="fill:#569fd3;fill-opacity:1;fill-rule:nonzero;stroke:none" />
    <path
       d="m 598.59356,512.44249 6.71817,-0.44757 c -0.17072,1.16276 -0.11996,2.04867 0.15227,2.66235 0.44296,0.98743 1.31503,1.47652 2.63005,1.47652 0.9782,0 1.7949,-0.24916 2.45933,-0.75671 0.66444,-0.50294 1.08432,-1.08894 1.26427,-1.75337 0.16611,-0.63675 0.0646,-1.19968 -0.29991,-1.70262 -0.36913,-0.49832 -1.42116,-0.96896 -3.15145,-1.41653 -2.83308,-0.74288 -4.72949,-1.7303 -5.69384,-2.96227 -0.97358,-1.22736 -1.20429,-2.80078 -0.69212,-4.70642 0.33222,-1.25042 0.9782,-2.44087 1.94255,-3.55287 0.96435,-1.11662 2.20094,-1.99331 3.70515,-2.63006 1.51343,-0.63675 3.42829,-0.95512 5.75843,-0.95512 2.85614,0 4.87713,0.57676 6.06758,1.73491 1.18583,1.16276 1.58726,3.00841 1.19506,5.53234 l -6.63973,0.41989 c 0.11996,-1.10278 -0.0323,-1.90103 -0.44296,-2.40397 -0.41989,-0.49832 -1.11662,-0.74748 -2.08559,-0.74748 -0.79824,0 -1.45345,0.18456 -1.95639,0.55369 -0.50294,0.37375 -0.82593,0.82593 -0.96896,1.35656 -0.10613,0.3922 -0.0323,0.74287 0.22147,1.05202 0.24455,0.31837 0.93206,0.6229 2.08098,0.89975 2.83307,0.71058 4.79869,1.43038 5.91992,2.1548 1.10739,0.72903 1.82258,1.62879 2.12712,2.70849 0.30914,1.07971 0.28607,2.27938 -0.0738,3.61287 -0.41989,1.5688 -1.19967,3.00841 -2.34859,4.33266 -1.13969,1.31964 -2.51932,2.32552 -4.12042,3.0038 -1.60572,0.68289 -3.49751,1.02434 -5.66153,1.02434 -3.79743,0 -6.21524,-0.79825 -7.25341,-2.39474 -1.03818,-1.59648 -1.31964,-3.63132 -0.85362,-6.09526"
       id="path5007"
       style="fill:#569fd3;fill-opacity:1;fill-rule:nonzero;stroke:none" />
    <path
       d="m 149.37263,452.98806 10.20645,0 7.57178,20.75435 5.69845,-20.75435 10.27567,0 -10.31258,37.55901 -10.27566,0 -7.53026,-20.639 -5.67077,20.639 -10.27566,0 10.31258,-37.55901 z"
       id="path5107"
       style="fill:#00245d;fill-opacity:1;fill-rule:nonzero;stroke:none" />
    <path
       d="m 182.46839,471.79432 c 1.67954,-6.12756 4.59567,-10.89857 8.73916,-14.30841 4.1481,-3.41445 9.08521,-5.12168 14.81596,-5.12168 5.87379,0 9.93883,1.67954 12.19514,5.0294 2.25631,3.35447 2.55623,8.05165 0.89976,14.09616 -1.20429,4.38342 -2.88383,7.98244 -5.04324,10.78783 -2.15942,2.81001 -4.7664,4.99249 -7.82095,6.55207 -3.04533,1.56419 -6.53361,2.34397 -10.451,2.34397 -3.97738,0 -7.0873,-0.67366 -9.32516,-2.02098 -2.23785,-1.34733 -3.76513,-3.48367 -4.58644,-6.40441 -0.82132,-2.91613 -0.62752,-6.56591 0.57677,-10.95395 m 10.91241,0.0508 c -1.04279,3.79743 -1.13046,6.52438 -0.26762,8.18085 0.86284,1.66109 2.43626,2.48702 4.70641,2.48702 2.33475,0 4.36958,-0.80747 6.09526,-2.43626 1.72569,-1.61956 3.16068,-4.53569 4.31883,-8.74377 0.97358,-3.53904 1.01049,-6.12295 0.12458,-7.75635 -0.88591,-1.63341 -2.47317,-2.45011 -4.76639,-2.45011 -2.19172,0 -4.1804,0.83055 -5.96146,2.48702 -1.78105,1.66109 -3.2022,4.40649 -4.24961,8.2316"
       id="path5111"
       style="fill:#00245d;fill-opacity:1;fill-rule:nonzero;stroke:none" />
    <path
       d="m 218.49965,490.54614 10.30797,-37.559 18.21658,0 c 3.37292,0 5.86917,0.30914 7.48411,0.92744 1.61956,0.61368 2.7408,1.75337 3.38216,3.41907 0.63213,1.6657 0.62291,3.69591 -0.0323,6.08603 -0.57215,2.0902 -1.48575,3.88971 -2.73156,5.39853 -1.25505,1.51344 -2.7408,2.74079 -4.46187,3.67746 -1.09816,0.59984 -2.5147,1.09355 -4.24038,1.48575 1.17199,0.46603 1.9933,0.93206 2.45933,1.39347 0.31838,0.30914 0.7198,0.96897 1.20429,1.97946 0.47987,1.01511 0.77979,1.7949 0.88591,2.34398 l 2.35782,10.84781 -12.32895,0 -2.75002,-11.46611 c -0.34145,-1.48575 -0.74288,-2.4501 -1.20429,-2.89306 -0.63675,-0.58138 -1.46268,-0.87207 -2.46856,-0.87207 l -0.97358,0 -4.1804,15.23124 -10.92626,0 z m 17.05844,-22.32315 4.65104,0 c 0.49832,0 1.52266,-0.17072 3.06378,-0.51217 0.77056,-0.15227 1.47652,-0.54447 2.10866,-1.1766 0.64136,-0.63214 1.06586,-1.35194 1.29195,-2.17326 0.33683,-1.2089 0.21687,-2.13634 -0.3276,-2.78232 -0.55831,-0.65059 -1.84104,-0.97358 -3.8528,-0.97358 l -4.84945,0 -2.08558,7.61793 z"
       id="path5115"
       style="fill:#00245d;fill-opacity:1;fill-rule:nonzero;stroke:none" />
    <path
       d="m 262.61211,452.98806 33.2125,0 -2.547,9.28363 -11.14312,0 -7.76096,28.27538 -10.93087,0 7.76096,-28.27538 -11.13851,0 2.547,-9.28363 z"
       id="path5119"
       style="fill:#00245d;fill-opacity:1;fill-rule:nonzero;stroke:none" />
    <path
       d="m 299.40701,452.98806 10.92626,0 -3.60825,13.14565 11.89984,0 3.60825,-13.14565 10.92625,0 -10.30796,37.55901 -10.93087,0 4.18501,-15.23124 -11.89983,0 -4.1804,15.23124 -10.93087,0 10.31257,-37.55901 z"
       id="path5123"
       style="fill:#00245d;fill-opacity:1;fill-rule:nonzero;stroke:none" />
    <path
       d="m 366.61318,485.80466 -12.87342,0 -4.10657,4.74333 -11.14774,0 31.86518,-37.55901 16.38477,0 -9.85117,37.55901 -11.41074,0 1.13969,-4.74333 z m 1.698,-6.96733 3.34986,-13.7501 -11.89984,13.7501 8.54998,0 z"
       id="path5127"
       style="fill:#00245d;fill-opacity:1;fill-rule:nonzero;stroke:none" />
    <path
       d="m 390.82028,452.98806 14.44684,0 -0.84439,22.84916 11.7245,-22.84916 14.37763,0 -10.31258,37.55901 -8.97909,0 7.86247,-28.64913 -14.696,28.64913 -8.10241,0 1.05202,-28.64913 -7.86247,28.64913 -8.97909,0 10.31257,-37.55901 z"
       id="path5131"
       style="fill:#00245d;fill-opacity:1;fill-rule:nonzero;stroke:none" />
    <path
       d="m 436.05812,452.98806 29.21205,0 -2.20555,8.0332 -18.28579,0 -1.62879,5.94761 16.9846,0 -2.0902,7.61793 -16.9846,0 -2.03483,7.40567 18.82564,0 -2.34859,8.5546 -29.7519,0 10.30796,-37.55901 z"
       id="path5135"
       style="fill:#00245d;fill-opacity:1;fill-rule:nonzero;stroke:none" />
    <path
       d="m 460.16094,490.54614 10.31258,-37.559 18.21196,0 c 3.37755,0 5.87379,0.30914 7.48874,0.92744 1.61494,0.61368 2.74079,1.75337 3.37754,3.41907 0.63675,1.6657 0.62752,3.69591 -0.0277,6.08603 -0.57676,2.0902 -1.48575,3.88971 -2.73618,5.39853 -1.25042,1.51344 -2.73617,2.74079 -4.46186,3.67746 -1.09355,0.59984 -2.51008,1.09355 -4.24038,1.48575 1.1766,0.46603 1.9933,0.93206 2.46394,1.39347 0.31376,0.30914 0.71058,0.96897 1.19968,1.97946 0.48448,1.01511 0.7844,1.7949 0.89052,2.34398 l 2.35782,10.84781 -12.33356,0 -2.75002,-11.46611 c -0.33684,-1.48575 -0.73826,-2.4501 -1.20429,-2.89306 -0.63675,-0.58138 -1.45807,-0.87207 -2.46395,-0.87207 l -0.97819,0 -4.1804,15.23124 -10.92626,0 z m 17.05382,-22.32315 4.65566,0 c 0.50294,0 1.52266,-0.17072 3.06378,-0.51217 0.77517,-0.15227 1.47652,-0.54447 2.11327,-1.1766 0.63675,-0.63214 1.06586,-1.35194 1.28734,-2.17326 0.33683,-1.2089 0.22148,-2.13634 -0.33222,-2.78232 -0.54908,-0.65059 -1.83181,-0.97358 -3.84818,-0.97358 l -4.84483,0 -2.09482,7.61793 z"
       id="path5139"
       style="fill:#00245d;fill-opacity:1;fill-rule:nonzero;stroke:none" />
    <path
       d="m 507.63202,452.98806 10.92626,0 -10.30796,37.55901 -10.92626,0 10.30796,-37.55901 z"
       id="path5143"
       style="fill:#00245d;fill-opacity:1;fill-rule:nonzero;stroke:none" />
    <path
       d="m 542.4793,475.10635 8.67918,3.07301 c -1.43038,2.86537 -3.09147,5.2601 -5.00172,7.17958 -1.90563,1.91948 -4.01429,3.36831 -6.33058,4.34651 -2.30707,0.97819 -5.04324,1.46729 -8.20392,1.46729 -3.83434,0 -6.79661,-0.59522 -8.90066,-1.77644 -2.10404,-1.18583 -3.63132,-3.27142 -4.5726,-6.25676 -0.95051,-2.98072 -0.77979,-6.80122 0.49833,-11.46149 1.70261,-6.206 4.56799,-10.97701 8.58689,-14.31303 4.01891,-3.3314 8.86374,-5.00171 14.54373,-5.00171 4.4388,0 7.66869,0.95974 9.68967,2.86998 2.01638,1.91025 3.09608,4.84945 3.24374,8.81299 l -10.25721,2.29784 c -0.0185,-1.15354 -0.14304,-1.99792 -0.36452,-2.53316 -0.3599,-0.89053 -0.91821,-1.58265 -1.67031,-2.06252 -0.74749,-0.48448 -1.67032,-0.72903 -2.75925,-0.72903 -2.46394,0 -4.64643,1.05664 -6.53822,3.16529 -1.42577,1.56881 -2.59314,4.02352 -3.51597,7.378 -1.13507,4.15271 -1.32887,6.99501 -0.56292,8.53613 0.76595,1.54112 2.22862,2.31168 4.38342,2.31168 2.08097,0 3.82973,-0.62291 5.23704,-1.86872 1.41192,-1.25043 2.68542,-3.06378 3.81588,-5.43544"
       id="path5147"
       style="fill:#00245d;fill-opacity:1;fill-rule:nonzero;stroke:none" />
    <path
       d="m 598.96315,452.98806 10.20645,0 7.57179,20.75435 5.69383,-20.75435 10.27567,0 -10.30797,37.55901 -10.28027,0 -7.52565,-20.639 -5.67076,20.639 -10.27566,0 10.31257,-37.55901 z"
       id="path5151"
       style="fill:#00245d;fill-opacity:1;fill-rule:nonzero;stroke:none" />
    <path
       d="m 642.2889,462.12773 -1.6011,0 -2.03483,-2.78694 -0.36913,0 -0.12458,0 -0.13843,0 0,1.7303 c 0,0.37374 0.0369,0.60906 0.12458,0.70135 0.11074,0.12458 0.28147,0.18918 0.50756,0.18918 l 0.23532,0 0,0.16611 -2.57468,0 0,-0.16611 0.21686,0 c 0.26301,0 0.43834,-0.0784 0.5537,-0.24455 0.06,-0.0923 0.0877,-0.30453 0.0877,-0.64598 l 0,-3.8528 c 0,-0.37836 -0.0415,-0.60906 -0.12458,-0.70134 -0.11535,-0.1292 -0.28607,-0.1938 -0.51678,-0.1938 l -0.21686,0 0,-0.16149 2.18709,0 c 0.63675,0 1.10739,0.0461 1.41193,0.14304 0.29991,0.0877 0.55831,0.25839 0.77056,0.50755 0.21225,0.24455 0.31376,0.53985 0.31376,0.88591 0,0.3599 -0.11997,0.68751 -0.35529,0.95513 -0.24455,0.27223 -0.61829,0.46141 -1.12123,0.56753 l 1.2412,1.71185 c 0.28146,0.39681 0.52601,0.6552 0.72903,0.7844 0.20763,0.12919 0.47525,0.20763 0.79824,0.24455 l 0,0.16611 z m -4.26807,-3.0684 0.14766,0.005 0.10151,0 c 0.57215,0 1.01049,-0.11997 1.29657,-0.36913 0.28607,-0.24455 0.43372,-0.56292 0.43372,-0.94128 0,-0.36913 -0.11535,-0.67367 -0.35067,-0.90899 -0.23993,-0.2307 -0.54447,-0.35067 -0.93667,-0.35067 -0.16611,0 -0.40143,0.0323 -0.69212,0.083 l 0,2.48241 z"
       id="path5163"
       style="fill:#00245d;fill-opacity:1;fill-rule:nonzero;stroke:none" />
    <path
       d="m 638.89382,454.28048 c -1.25965,-0.005 -2.33936,0.4245 -3.28987,1.3058 -1.48575,1.37962 -1.99792,3.57133 -1.29196,5.48158 0.23994,0.66443 0.5537,1.1766 1.02434,1.68416 1.84565,1.99791 4.88175,2.09943 6.85659,0.263 1.48114,-1.37501 1.99792,-3.5621 1.29196,-5.48158 -0.73826,-2.01176 -2.61621,-3.26219 -4.59106,-3.25296 m -3.07762,1.55496 c 0.89053,-0.82593 1.89641,-1.22736 3.07762,-1.21813 l 0.009,0 c 1.30118,-0.009 2.41319,0.48448 3.3314,1.47191 0.43373,0.47525 0.72442,0.95051 0.95513,1.56419 0.44757,1.22735 0.40143,2.45471 -0.13843,3.63593 -0.76594,1.6657 -2.40396,2.70388 -4.1481,2.70388 l -0.009,0 c -1.29657,0.005 -2.41319,-0.4891 -3.3314,-1.47652 -0.43373,-0.47064 -0.72903,-0.9459 -0.95051,-1.56419 -0.44757,-1.22275 -0.40604,-2.4501 0.13842,-3.63594 0.26762,-0.5906 0.59984,-1.04279 1.06587,-1.48113"
       id="path5167"
       style="fill:#00245d;fill-opacity:1;fill-rule:nonzero;stroke:none" />
    <path
       d="m 573.89506,485.80466 -12.87342,0 -4.10657,4.74333 -11.15235,0 31.86979,-37.55901 16.38477,0 -9.85117,37.55901 -11.41535,0 1.1443,-4.74333 z m 1.69339,-6.96733 3.34985,-13.7501 -11.8906,13.7501 8.54075,0 z"
       id="path5179"
       style="fill:#00245d;fill-opacity:1;fill-rule:nonzero;stroke:none" />
  </g>
</svg>
