<?xml version="1.0" encoding="UTF-8" standalone="no"?>
<!-- Created with Inkscape (http://www.inkscape.org/) -->

<svg
   version="1.1"
   id="svg2"
   width="256.60931"
   height="98.622772"
   viewBox="0 0 256.60931 98.622771"
   sodipodi:docname="Norwegian Air Shuttle.svg"
   inkscape:version="1.2 (dc2aedaf03, 2022-05-15)"
   xmlns:inkscape="http://www.inkscape.org/namespaces/inkscape"
   xmlns:sodipodi="http://sodipodi.sourceforge.net/DTD/sodipodi-0.dtd"
   xmlns="http://www.w3.org/2000/svg"
   xmlns:svg="http://www.w3.org/2000/svg">
  <defs
     id="defs6">
    <clipPath
       clipPathUnits="userSpaceOnUse"
       id="clipPath18">
      <path
         d="M 0,1.2207e-4 H 960 V 540.00012 H 0 Z"
         clip-rule="evenodd"
         id="path16" />
    </clipPath>
    <clipPath
       clipPathUnits="userSpaceOnUse"
       id="clipPath28">
      <path
         d="M 0,1.2207e-4 H 960 V 540.00012 H 0 Z"
         clip-rule="evenodd"
         id="path26" />
    </clipPath>
    <clipPath
       clipPathUnits="userSpaceOnUse"
       id="clipPath38">
      <path
         d="M 0,1.8311e-4 H 960 V 540.00018 H 0 Z"
         clip-rule="evenodd"
         id="path36" />
    </clipPath>
    <clipPath
       clipPathUnits="userSpaceOnUse"
       id="clipPath48">
      <path
         d="M 744.72,471 H 960 v 69 H 744.72 Z"
         clip-rule="evenodd"
         id="path46" />
    </clipPath>
    <clipPath
       clipPathUnits="userSpaceOnUse"
       id="clipPath58">
      <path
         d="M 0,0 H 34.582 V 11.176 H 0 Z"
         id="path56" />
    </clipPath>
    <clipPath
       clipPathUnits="userSpaceOnUse"
       id="clipPath88">
      <path
         d="M 1.4305e-5,0 H 960.00001 V 540 H 1.4305e-5 Z"
         clip-rule="evenodd"
         id="path86" />
    </clipPath>
    <clipPath
       clipPathUnits="userSpaceOnUse"
       id="clipPath104">
      <path
         d="m 638.64,71.64 h 262.8 v 127.32 h -262.8 z"
         clip-rule="evenodd"
         id="path102" />
    </clipPath>
    <clipPath
       clipPathUnits="userSpaceOnUse"
       id="clipPath114">
      <path
         d="M 1.4305e-5,0 H 960.00001 V 540 H 1.4305e-5 Z"
         clip-rule="evenodd"
         id="path112" />
    </clipPath>
    <clipPath
       clipPathUnits="userSpaceOnUse"
       id="clipPath126">
      <path
         d="M 1.4305e-5,0 H 960.00001 V 540 H 1.4305e-5 Z"
         clip-rule="evenodd"
         id="path124" />
    </clipPath>
    <clipPath
       clipPathUnits="userSpaceOnUse"
       id="clipPath138">
      <path
         d="M 1.4305e-5,0 H 960.00001 V 540 H 1.4305e-5 Z"
         clip-rule="evenodd"
         id="path136" />
    </clipPath>
    <clipPath
       clipPathUnits="userSpaceOnUse"
       id="clipPath150">
      <path
         d="M 1.4305e-5,0 H 960.00001 V 540 H 1.4305e-5 Z"
         clip-rule="evenodd"
         id="path148" />
    </clipPath>
    <clipPath
       clipPathUnits="userSpaceOnUse"
       id="clipPath162">
      <path
         d="M 1.4305e-5,0 H 960.00001 V 540 H 1.4305e-5 Z"
         clip-rule="evenodd"
         id="path160" />
    </clipPath>
    <clipPath
       clipPathUnits="userSpaceOnUse"
       id="clipPath174">
      <path
         d="M 1.4305e-5,0 H 960.00001 V 540 H 1.4305e-5 Z"
         clip-rule="evenodd"
         id="path172" />
    </clipPath>
    <clipPath
       clipPathUnits="userSpaceOnUse"
       id="clipPath186">
      <path
         d="M 1.4305e-5,0 H 960.00001 V 540 H 1.4305e-5 Z"
         clip-rule="evenodd"
         id="path184" />
    </clipPath>
    <clipPath
       clipPathUnits="userSpaceOnUse"
       id="clipPath198">
      <path
         d="M 1.4305e-5,0 H 960.00001 V 540 H 1.4305e-5 Z"
         clip-rule="evenodd"
         id="path196" />
    </clipPath>
    <clipPath
       clipPathUnits="userSpaceOnUse"
       id="clipPath210">
      <path
         d="M 1.4305e-5,0 H 960.00001 V 540 H 1.4305e-5 Z"
         clip-rule="evenodd"
         id="path208" />
    </clipPath>
    <clipPath
       clipPathUnits="userSpaceOnUse"
       id="clipPath222">
      <path
         d="M 1.4305e-5,0 H 960.00001 V 540 H 1.4305e-5 Z"
         clip-rule="evenodd"
         id="path220" />
    </clipPath>
    <clipPath
       clipPathUnits="userSpaceOnUse"
       id="clipPath234">
      <path
         d="M 1.4305e-5,0 H 960.00001 V 540 H 1.4305e-5 Z"
         clip-rule="evenodd"
         id="path232" />
    </clipPath>
    <clipPath
       clipPathUnits="userSpaceOnUse"
       id="clipPath246">
      <path
         d="M 1.4305e-5,0 H 960.00001 V 540 H 1.4305e-5 Z"
         clip-rule="evenodd"
         id="path244" />
    </clipPath>
    <clipPath
       clipPathUnits="userSpaceOnUse"
       id="clipPath258">
      <path
         d="M -3.815e-6,1.2207e-4 H 960 V 540.00012 H -3.815e-6 Z"
         clip-rule="evenodd"
         id="path256" />
    </clipPath>
    <clipPath
       clipPathUnits="userSpaceOnUse"
       id="clipPath268">
      <path
         d="M 1.4305e-5,0 H 960.00001 V 540 H 1.4305e-5 Z"
         clip-rule="evenodd"
         id="path266" />
    </clipPath>
    <clipPath
       clipPathUnits="userSpaceOnUse"
       id="clipPath280">
      <path
         d="M -3.815e-6,1.2207e-4 H 960 V 540.00012 H -3.815e-6 Z"
         clip-rule="evenodd"
         id="path278" />
    </clipPath>
    <clipPath
       clipPathUnits="userSpaceOnUse"
       id="clipPath290">
      <path
         d="M 1.4305e-5,0 H 960.00001 V 540 H 1.4305e-5 Z"
         clip-rule="evenodd"
         id="path288" />
    </clipPath>
    <clipPath
       clipPathUnits="userSpaceOnUse"
       id="clipPath302">
      <path
         d="M -3.815e-6,1.2207e-4 H 960 V 540.00012 H -3.815e-6 Z"
         clip-rule="evenodd"
         id="path300" />
    </clipPath>
    <clipPath
       clipPathUnits="userSpaceOnUse"
       id="clipPath312">
      <path
         d="M 1.4305e-5,0 H 960.00001 V 540 H 1.4305e-5 Z"
         clip-rule="evenodd"
         id="path310" />
    </clipPath>
    <clipPath
       clipPathUnits="userSpaceOnUse"
       id="clipPath324">
      <path
         d="M -3.815e-6,1.2207e-4 H 960 V 540.00012 H -3.815e-6 Z"
         clip-rule="evenodd"
         id="path322" />
    </clipPath>
    <clipPath
       clipPathUnits="userSpaceOnUse"
       id="clipPath334">
      <path
         d="M 1.4305e-5,0 H 960.00001 V 540 H 1.4305e-5 Z"
         clip-rule="evenodd"
         id="path332" />
    </clipPath>
    <clipPath
       clipPathUnits="userSpaceOnUse"
       id="clipPath346">
      <path
         d="M 1.4305e-5,0 H 960.00001 V 540 H 1.4305e-5 Z"
         clip-rule="evenodd"
         id="path344" />
    </clipPath>
    <clipPath
       clipPathUnits="userSpaceOnUse"
       id="clipPath358">
      <path
         d="M 1.4305e-5,0 H 960.00001 V 540 H 1.4305e-5 Z"
         clip-rule="evenodd"
         id="path356" />
    </clipPath>
    <clipPath
       clipPathUnits="userSpaceOnUse"
       id="clipPath370">
      <path
         d="M 1.4305e-5,0 H 960.00001 V 540 H 1.4305e-5 Z"
         clip-rule="evenodd"
         id="path368" />
    </clipPath>
    <clipPath
       clipPathUnits="userSpaceOnUse"
       id="clipPath382">
      <path
         d="M 1.4305e-5,0 H 960.00001 V 540 H 1.4305e-5 Z"
         clip-rule="evenodd"
         id="path380" />
    </clipPath>
    <clipPath
       clipPathUnits="userSpaceOnUse"
       id="clipPath394">
      <path
         d="M 1.4305e-5,0 H 960.00001 V 540 H 1.4305e-5 Z"
         clip-rule="evenodd"
         id="path392" />
    </clipPath>
    <clipPath
       clipPathUnits="userSpaceOnUse"
       id="clipPath406">
      <path
         d="M 1.4305e-5,0 H 960.00001 V 540 H 1.4305e-5 Z"
         clip-rule="evenodd"
         id="path404" />
    </clipPath>
    <clipPath
       clipPathUnits="userSpaceOnUse"
       id="clipPath418">
      <path
         d="M 1.4305e-5,0 H 960.00001 V 540 H 1.4305e-5 Z"
         clip-rule="evenodd"
         id="path416" />
    </clipPath>
    <clipPath
       clipPathUnits="userSpaceOnUse"
       id="clipPath430">
      <path
         d="M 1.4305e-5,0 H 960.00001 V 540 H 1.4305e-5 Z"
         clip-rule="evenodd"
         id="path428" />
    </clipPath>
    <clipPath
       clipPathUnits="userSpaceOnUse"
       id="clipPath442">
      <path
         d="M 1.4305e-5,0 H 960.00001 V 540 H 1.4305e-5 Z"
         clip-rule="evenodd"
         id="path440" />
    </clipPath>
    <clipPath
       clipPathUnits="userSpaceOnUse"
       id="clipPath454">
      <path
         d="M 1.4305e-5,0 H 960.00001 V 540 H 1.4305e-5 Z"
         clip-rule="evenodd"
         id="path452" />
    </clipPath>
    <clipPath
       clipPathUnits="userSpaceOnUse"
       id="clipPath466">
      <path
         d="M 1.4305e-5,0 H 960.00001 V 540 H 1.4305e-5 Z"
         clip-rule="evenodd"
         id="path464" />
    </clipPath>
    <clipPath
       clipPathUnits="userSpaceOnUse"
       id="clipPath478">
      <path
         d="M 1.4305e-5,0 H 960.00001 V 540 H 1.4305e-5 Z"
         clip-rule="evenodd"
         id="path476" />
    </clipPath>
    <clipPath
       clipPathUnits="userSpaceOnUse"
       id="clipPath490">
      <path
         d="M 1.4305e-5,0 H 960.00001 V 540 H 1.4305e-5 Z"
         clip-rule="evenodd"
         id="path488" />
    </clipPath>
    <clipPath
       clipPathUnits="userSpaceOnUse"
       id="clipPath502">
      <path
         d="M 1.4305e-5,0 H 960.00001 V 540 H 1.4305e-5 Z"
         clip-rule="evenodd"
         id="path500" />
    </clipPath>
    <clipPath
       clipPathUnits="userSpaceOnUse"
       id="clipPath514">
      <path
         d="M 1.4305e-5,0 H 960.00001 V 540 H 1.4305e-5 Z"
         clip-rule="evenodd"
         id="path512" />
    </clipPath>
    <clipPath
       clipPathUnits="userSpaceOnUse"
       id="clipPath526">
      <path
         d="M 1.4305e-5,0 H 960.00001 V 540 H 1.4305e-5 Z"
         clip-rule="evenodd"
         id="path524" />
    </clipPath>
    <clipPath
       clipPathUnits="userSpaceOnUse"
       id="clipPath538">
      <path
         d="M 1.4305e-5,0 H 960.00001 V 540 H 1.4305e-5 Z"
         clip-rule="evenodd"
         id="path536" />
    </clipPath>
    <clipPath
       clipPathUnits="userSpaceOnUse"
       id="clipPath550">
      <path
         d="M 1.4305e-5,0 H 960.00001 V 540 H 1.4305e-5 Z"
         clip-rule="evenodd"
         id="path548" />
    </clipPath>
    <clipPath
       clipPathUnits="userSpaceOnUse"
       id="clipPath562">
      <path
         d="M 1.4305e-5,0 H 960.00001 V 540 H 1.4305e-5 Z"
         clip-rule="evenodd"
         id="path560" />
    </clipPath>
    <clipPath
       clipPathUnits="userSpaceOnUse"
       id="clipPath574">
      <path
         d="M 1.4305e-5,0 H 960.00001 V 540 H 1.4305e-5 Z"
         clip-rule="evenodd"
         id="path572" />
    </clipPath>
    <clipPath
       clipPathUnits="userSpaceOnUse"
       id="clipPath586">
      <path
         d="M 1.4305e-5,0 H 960.00001 V 540 H 1.4305e-5 Z"
         clip-rule="evenodd"
         id="path584" />
    </clipPath>
    <clipPath
       clipPathUnits="userSpaceOnUse"
       id="clipPath598">
      <path
         d="M 1.4305e-5,0 H 960.00001 V 540 H 1.4305e-5 Z"
         clip-rule="evenodd"
         id="path596" />
    </clipPath>
    <clipPath
       clipPathUnits="userSpaceOnUse"
       id="clipPath610">
      <path
         d="M 1.4305e-5,0 H 960.00001 V 540 H 1.4305e-5 Z"
         clip-rule="evenodd"
         id="path608" />
    </clipPath>
    <clipPath
       clipPathUnits="userSpaceOnUse"
       id="clipPath622">
      <path
         d="M 1.4305e-5,0 H 960.00001 V 540 H 1.4305e-5 Z"
         clip-rule="evenodd"
         id="path620" />
    </clipPath>
    <clipPath
       clipPathUnits="userSpaceOnUse"
       id="clipPath634">
      <path
         d="M 1.4305e-5,0 H 960.00001 V 540 H 1.4305e-5 Z"
         clip-rule="evenodd"
         id="path632" />
    </clipPath>
    <clipPath
       clipPathUnits="userSpaceOnUse"
       id="clipPath646">
      <path
         d="M 1.4305e-5,0 H 960.00001 V 540 H 1.4305e-5 Z"
         clip-rule="evenodd"
         id="path644" />
    </clipPath>
    <clipPath
       clipPathUnits="userSpaceOnUse"
       id="clipPath658">
      <path
         d="M 1.4305e-5,0 H 960.00001 V 540 H 1.4305e-5 Z"
         clip-rule="evenodd"
         id="path656" />
    </clipPath>
    <clipPath
       clipPathUnits="userSpaceOnUse"
       id="clipPath670">
      <path
         d="M 1.4305e-5,0 H 960.00001 V 540 H 1.4305e-5 Z"
         clip-rule="evenodd"
         id="path668" />
    </clipPath>
    <clipPath
       clipPathUnits="userSpaceOnUse"
       id="clipPath682">
      <path
         d="M 1.4305e-5,0 H 960.00001 V 540 H 1.4305e-5 Z"
         clip-rule="evenodd"
         id="path680" />
    </clipPath>
    <clipPath
       clipPathUnits="userSpaceOnUse"
       id="clipPath694">
      <path
         d="M 1.4305e-5,0 H 960.00001 V 540 H 1.4305e-5 Z"
         clip-rule="evenodd"
         id="path692" />
    </clipPath>
    <clipPath
       clipPathUnits="userSpaceOnUse"
       id="clipPath706">
      <path
         d="M 1.4305e-5,0 H 960.00001 V 540 H 1.4305e-5 Z"
         clip-rule="evenodd"
         id="path704" />
    </clipPath>
    <clipPath
       clipPathUnits="userSpaceOnUse"
       id="clipPath718">
      <path
         d="M 1.4305e-5,0 H 960.00001 V 540 H 1.4305e-5 Z"
         clip-rule="evenodd"
         id="path716" />
    </clipPath>
    <clipPath
       clipPathUnits="userSpaceOnUse"
       id="clipPath730">
      <path
         d="M 1.4305e-5,0 H 960.00001 V 540 H 1.4305e-5 Z"
         clip-rule="evenodd"
         id="path728" />
    </clipPath>
    <clipPath
       clipPathUnits="userSpaceOnUse"
       id="clipPath742">
      <path
         d="M 1.4305e-5,0 H 960.00001 V 540 H 1.4305e-5 Z"
         clip-rule="evenodd"
         id="path740" />
    </clipPath>
    <clipPath
       clipPathUnits="userSpaceOnUse"
       id="clipPath754">
      <path
         d="M 1.4305e-5,0 H 960.00001 V 540 H 1.4305e-5 Z"
         clip-rule="evenodd"
         id="path752" />
    </clipPath>
    <clipPath
       clipPathUnits="userSpaceOnUse"
       id="clipPath766">
      <path
         d="M 1.4305e-5,0 H 960.00001 V 540 H 1.4305e-5 Z"
         clip-rule="evenodd"
         id="path764" />
    </clipPath>
    <clipPath
       clipPathUnits="userSpaceOnUse"
       id="clipPath778">
      <path
         d="M 1.4305e-5,0 H 960.00001 V 540 H 1.4305e-5 Z"
         clip-rule="evenodd"
         id="path776" />
    </clipPath>
    <clipPath
       clipPathUnits="userSpaceOnUse"
       id="clipPath790">
      <path
         d="M 1.4305e-5,0 H 960.00001 V 540 H 1.4305e-5 Z"
         clip-rule="evenodd"
         id="path788" />
    </clipPath>
    <clipPath
       clipPathUnits="userSpaceOnUse"
       id="clipPath802">
      <path
         d="M 1.4305e-5,0 H 960.00001 V 540 H 1.4305e-5 Z"
         clip-rule="evenodd"
         id="path800" />
    </clipPath>
    <clipPath
       clipPathUnits="userSpaceOnUse"
       id="clipPath814">
      <path
         d="M 1.4305e-5,0 H 960.00001 V 540 H 1.4305e-5 Z"
         clip-rule="evenodd"
         id="path812" />
    </clipPath>
    <clipPath
       clipPathUnits="userSpaceOnUse"
       id="clipPath826">
      <path
         d="M 1.4305e-5,0 H 960.00001 V 540 H 1.4305e-5 Z"
         clip-rule="evenodd"
         id="path824" />
    </clipPath>
    <clipPath
       clipPathUnits="userSpaceOnUse"
       id="clipPath838">
      <path
         d="M 1.4305e-5,0 H 960.00001 V 540 H 1.4305e-5 Z"
         clip-rule="evenodd"
         id="path836" />
    </clipPath>
    <clipPath
       clipPathUnits="userSpaceOnUse"
       id="clipPath850">
      <path
         d="M 1.4305e-5,0 H 960.00001 V 540 H 1.4305e-5 Z"
         clip-rule="evenodd"
         id="path848" />
    </clipPath>
    <clipPath
       clipPathUnits="userSpaceOnUse"
       id="clipPath862">
      <path
         d="M 1.4305e-5,0 H 960.00001 V 540 H 1.4305e-5 Z"
         clip-rule="evenodd"
         id="path860" />
    </clipPath>
    <clipPath
       clipPathUnits="userSpaceOnUse"
       id="clipPath874">
      <path
         d="M 1.4305e-5,0 H 960.00001 V 540 H 1.4305e-5 Z"
         clip-rule="evenodd"
         id="path872" />
    </clipPath>
    <clipPath
       clipPathUnits="userSpaceOnUse"
       id="clipPath886">
      <path
         d="M 1.4305e-5,0 H 960.00001 V 540 H 1.4305e-5 Z"
         clip-rule="evenodd"
         id="path884" />
    </clipPath>
    <clipPath
       clipPathUnits="userSpaceOnUse"
       id="clipPath898">
      <path
         d="M 1.4305e-5,0 H 960.00001 V 540 H 1.4305e-5 Z"
         clip-rule="evenodd"
         id="path896" />
    </clipPath>
    <clipPath
       clipPathUnits="userSpaceOnUse"
       id="clipPath910">
      <path
         d="m 349.92,243.36 h 260.64 v 129.6 H 349.92 Z"
         clip-rule="evenodd"
         id="path908" />
    </clipPath>
    <clipPath
       clipPathUnits="userSpaceOnUse"
       id="clipPath920">
      <path
         d="M 0,0 H 263.9 V 131.26 H 0 Z"
         id="path918" />
    </clipPath>
    <clipPath
       clipPathUnits="userSpaceOnUse"
       id="clipPath928">
      <path
         d="m 0.325,0.0062714 h 264 V 130.50627 h -264 z"
         clip-rule="evenodd"
         id="path926" />
    </clipPath>
    <clipPath
       clipPathUnits="userSpaceOnUse"
       id="clipPath1152">
      <path
         d="m 218.45,118.43 h 45.125 v 12.075 H 218.45 Z"
         clip-rule="evenodd"
         id="path1150" />
    </clipPath>
    <clipPath
       clipPathUnits="userSpaceOnUse"
       id="clipPath1164">
      <path
         d="m 218.45,54.331 h 45.125 v 12.05 H 218.45 Z"
         clip-rule="evenodd"
         id="path1162" />
    </clipPath>
    <clipPath
       clipPathUnits="userSpaceOnUse"
       id="clipPath1176">
      <path
         d="m -0.425,0.0062714 h 264.75 V 131.25627 H -0.425 Z"
         clip-rule="evenodd"
         id="path1174" />
    </clipPath>
    <clipPath
       clipPathUnits="userSpaceOnUse"
       id="clipPath1242">
      <path
         d="m 349.92,165.6 h 260.64 v 39.6 H 349.92 Z"
         clip-rule="evenodd"
         id="path1240" />
    </clipPath>
    <clipPath
       clipPathUnits="userSpaceOnUse"
       id="clipPath1252">
      <path
         d="M 0,0 H 260.26 V 39.567 H 0 Z"
         id="path1250" />
    </clipPath>
    <clipPath
       clipPathUnits="userSpaceOnUse"
       id="clipPath1260">
      <path
         d="m 0.75,-0.10811 h 259.5 v 38.975 H 0.75 Z"
         clip-rule="evenodd"
         id="path1258" />
    </clipPath>
    <clipPath
       clipPathUnits="userSpaceOnUse"
       id="clipPath1332">
      <path
         d="m 218.88,26.642 h 40.6 v 12.225 h -40.6 z"
         clip-rule="evenodd"
         id="path1330" />
    </clipPath>
    <clipPath
       clipPathUnits="userSpaceOnUse"
       id="clipPath1344">
      <path
         d="m 0,-0.10811 h 260.25 v 39.75 H 0 Z"
         clip-rule="evenodd"
         id="path1342" />
    </clipPath>
    <clipPath
       clipPathUnits="userSpaceOnUse"
       id="clipPath1384">
      <path
         d="m 349.92,74.88 h 260.64 v 52.56 H 349.92 Z"
         clip-rule="evenodd"
         id="path1382" />
    </clipPath>
    <clipPath
       clipPathUnits="userSpaceOnUse"
       id="clipPath1394">
      <path
         d="M 0,0 H 260.02 V 52.494 H 0 Z"
         id="path1392" />
    </clipPath>
    <clipPath
       clipPathUnits="userSpaceOnUse"
       id="clipPath1402">
      <path
         d="m 0.65,-0.0063057 h 259.5 V 51.743694 H 0.65 Z"
         clip-rule="evenodd"
         id="path1400" />
    </clipPath>
    <clipPath
       clipPathUnits="userSpaceOnUse"
       id="clipPath1412">
      <path
         d="m 0.65,-0.0063057 h 259.5 V 51.743694 H 0.65 Z"
         clip-rule="evenodd"
         id="path1410" />
    </clipPath>
    <clipPath
       clipPathUnits="userSpaceOnUse"
       id="clipPath1422">
      <path
         d="m 0.65,-0.0063057 h 259.5 V 51.743694 H 0.65 Z"
         clip-rule="evenodd"
         id="path1420" />
    </clipPath>
    <clipPath
       clipPathUnits="userSpaceOnUse"
       id="clipPath1432">
      <path
         d="m 0.65,-0.0063057 h 259.5 V 51.743694 H 0.65 Z"
         clip-rule="evenodd"
         id="path1430" />
    </clipPath>
    <clipPath
       clipPathUnits="userSpaceOnUse"
       id="clipPath1448">
      <path
         d="m 0.65,-0.0063057 h 259.5 V 51.743694 H 0.65 Z"
         clip-rule="evenodd"
         id="path1446" />
    </clipPath>
    <clipPath
       clipPathUnits="userSpaceOnUse"
       id="clipPath1458">
      <path
         d="m 0.65,-0.0063057 h 259.5 V 51.743694 H 0.65 Z"
         clip-rule="evenodd"
         id="path1456" />
    </clipPath>
    <clipPath
       clipPathUnits="userSpaceOnUse"
       id="clipPath1474">
      <path
         d="m 0.65,-0.0063057 h 259.5 V 51.743694 H 0.65 Z"
         clip-rule="evenodd"
         id="path1472" />
    </clipPath>
    <clipPath
       clipPathUnits="userSpaceOnUse"
       id="clipPath1488">
      <path
         d="m 0.65,-0.0063057 h 259.5 V 51.743694 H 0.65 Z"
         clip-rule="evenodd"
         id="path1486" />
    </clipPath>
    <clipPath
       clipPathUnits="userSpaceOnUse"
       id="clipPath1498">
      <path
         d="m 0.65,-0.0063057 h 259.5 V 51.743694 H 0.65 Z"
         clip-rule="evenodd"
         id="path1496" />
    </clipPath>
    <clipPath
       clipPathUnits="userSpaceOnUse"
       id="clipPath1510">
      <path
         d="m 0.65,-0.0063057 h 259.5 V 51.743694 H 0.65 Z"
         clip-rule="evenodd"
         id="path1508" />
    </clipPath>
    <clipPath
       clipPathUnits="userSpaceOnUse"
       id="clipPath1522">
      <path
         d="m 0.65,-0.0063057 h 259.5 V 51.743694 H 0.65 Z"
         clip-rule="evenodd"
         id="path1520" />
    </clipPath>
    <clipPath
       clipPathUnits="userSpaceOnUse"
       id="clipPath1534">
      <path
         d="m 0.65,-0.0063057 h 259.5 V 51.743694 H 0.65 Z"
         clip-rule="evenodd"
         id="path1532" />
    </clipPath>
    <clipPath
       clipPathUnits="userSpaceOnUse"
       id="clipPath1546">
      <path
         d="m 0.65,-0.0063057 h 259.5 V 51.743694 H 0.65 Z"
         clip-rule="evenodd"
         id="path1544" />
    </clipPath>
    <clipPath
       clipPathUnits="userSpaceOnUse"
       id="clipPath1558">
      <path
         d="m 0.65,-0.0063057 h 259.5 V 51.743694 H 0.65 Z"
         clip-rule="evenodd"
         id="path1556" />
    </clipPath>
    <clipPath
       clipPathUnits="userSpaceOnUse"
       id="clipPath1570">
      <path
         d="m 0.65,-0.0063057 h 259.5 V 51.743694 H 0.65 Z"
         clip-rule="evenodd"
         id="path1568" />
    </clipPath>
    <clipPath
       clipPathUnits="userSpaceOnUse"
       id="clipPath1582">
      <path
         d="m 0.65,-0.0063057 h 259.5 V 51.743694 H 0.65 Z"
         clip-rule="evenodd"
         id="path1580" />
    </clipPath>
    <clipPath
       clipPathUnits="userSpaceOnUse"
       id="clipPath1594">
      <path
         d="m 0.65,-0.0063057 h 259.5 V 51.743694 H 0.65 Z"
         clip-rule="evenodd"
         id="path1592" />
    </clipPath>
    <clipPath
       clipPathUnits="userSpaceOnUse"
       id="clipPath1606">
      <path
         d="m 0.65,-0.0063057 h 259.5 V 51.743694 H 0.65 Z"
         clip-rule="evenodd"
         id="path1604" />
    </clipPath>
    <clipPath
       clipPathUnits="userSpaceOnUse"
       id="clipPath1618">
      <path
         d="m 0.65,-0.0063057 h 259.5 V 51.743694 H 0.65 Z"
         clip-rule="evenodd"
         id="path1616" />
    </clipPath>
    <clipPath
       clipPathUnits="userSpaceOnUse"
       id="clipPath1630">
      <path
         d="m 0.65,-0.0063057 h 259.5 V 51.743694 H 0.65 Z"
         clip-rule="evenodd"
         id="path1628" />
    </clipPath>
    <clipPath
       clipPathUnits="userSpaceOnUse"
       id="clipPath1642">
      <path
         d="m 0.65,-0.0063057 h 259.5 V 51.743694 H 0.65 Z"
         clip-rule="evenodd"
         id="path1640" />
    </clipPath>
    <clipPath
       clipPathUnits="userSpaceOnUse"
       id="clipPath1654">
      <path
         d="m 0.65,0.74369 h 259.5 v 12.175 H 0.65 Z"
         clip-rule="evenodd"
         id="path1652" />
    </clipPath>
    <clipPath
       clipPathUnits="userSpaceOnUse"
       id="clipPath1666">
      <path
         d="m 0.65,0.74369 h 259.5 v 12.175 H 0.65 Z"
         clip-rule="evenodd"
         id="path1664" />
    </clipPath>
    <clipPath
       clipPathUnits="userSpaceOnUse"
       id="clipPath1678">
      <path
         d="m 0.65,0.74369 h 259.5 v 12.175 H 0.65 Z"
         clip-rule="evenodd"
         id="path1676" />
    </clipPath>
    <clipPath
       clipPathUnits="userSpaceOnUse"
       id="clipPath1690">
      <path
         d="m 0.65,0.74369 h 259.5 v 12.175 H 0.65 Z"
         clip-rule="evenodd"
         id="path1688" />
    </clipPath>
    <clipPath
       clipPathUnits="userSpaceOnUse"
       id="clipPath1702">
      <path
         d="m 0.65,0.74369 h 259.5 v 12.175 H 0.65 Z"
         clip-rule="evenodd"
         id="path1700" />
    </clipPath>
    <clipPath
       clipPathUnits="userSpaceOnUse"
       id="clipPath1714">
      <path
         d="m 0.65,0.74369 h 259.5 v 12.175 H 0.65 Z"
         clip-rule="evenodd"
         id="path1712" />
    </clipPath>
    <clipPath
       clipPathUnits="userSpaceOnUse"
       id="clipPath1726">
      <path
         d="m 0.65,0.74369 h 259.5 v 12.175 H 0.65 Z"
         clip-rule="evenodd"
         id="path1724" />
    </clipPath>
    <clipPath
       clipPathUnits="userSpaceOnUse"
       id="clipPath1738">
      <path
         d="m 218.78,39.569 h 40.6 v 12.175 h -40.6 z"
         clip-rule="evenodd"
         id="path1736" />
    </clipPath>
  </defs>
  <sodipodi:namedview
     id="namedview4"
     pagecolor="#505050"
     bordercolor="#eeeeee"
     borderopacity="1"
     inkscape:showpageshadow="0"
     inkscape:pageopacity="0"
     inkscape:pagecheckerboard="0"
     inkscape:deskcolor="#505050"
     showgrid="false"
     inkscape:zoom="3.4114601"
     inkscape:cx="129.56329"
     inkscape:cy="53.789286"
     inkscape:window-width="1920"
     inkscape:window-height="1001"
     inkscape:window-x="-9"
     inkscape:window-y="-9"
     inkscape:window-maximized="1"
     inkscape:current-layer="g42">
    <inkscape:page
       x="0"
       y="0"
       id="page8"
       width="256.60931"
       height="98.622772" />
  </sodipodi:namedview>
  <g
     id="g10"
     inkscape:groupmode="layer"
     inkscape:label="Page 1"
     transform="matrix(1.3333333,0,0,-1.3333333,-1025.1494,713.84426)">
    <g
       id="g22"
       transform="matrix(0.20047602,0,0,0.74174772,768.86207,134.83944)">
      <g
         id="g24"
         clip-path="url(#clipPath28)">
        <path
           d="M 0,440.28 H 960 V 540 H 0 Z"
           style="fill:#cc002b;fill-opacity:1;fill-rule:evenodd;stroke:none"
           id="path30" />
      </g>
    </g>
    <g
       id="g32" />
    <g
       id="g42">
      <g
         id="g44"
         clip-path="url(#clipPath48)">
        <g
           id="g50"
           transform="matrix(2.99,0,-7.54e-7,0.95833,744.72,471)">
          <g
             id="g52"
             transform="scale(2.082,6.4421)">
            <g
               id="g54"
               clip-path="url(#clipPath58)">
              <path
                 d="M 7.8362,6.5035 C 7.5375,6.6827 7.0596,6.6827 6.7011,6.3601 V 6.5513 H 5.9603 V 4.6038 h 0.7408 v 0.7885 c 0,0.2748 -0.0239,0.4302 0.1673,0.5735 C 6.9759,6.0495 7.1552,6.0495 7.2507,5.9897 7.4419,5.8703 7.418,5.6194 7.418,5.4401 V 4.6157 H 8.1588 V 5.6552 C 8.1707,5.9897 8.1707,6.3004 7.8362,6.5035 Z"
                 style="fill:#ffffff;fill-opacity:1;fill-rule:nonzero;stroke:none"
                 id="path60" />
              <path
                 d="M 9.5926,6.623 C 9.4372,6.5991 9.2341,6.5513 9.0788,6.4557 8.7681,6.2884 8.6128,6.0256 8.577,5.703 8.5411,5.4521 8.6009,5.1414 8.8159,4.9025 9.1983,4.4962 9.8913,4.4962 10.274,4.6157 c 0.322,0.1076 0.585,0.2868 0.705,0.705 0.071,0.2748 0.047,0.5496 -0.132,0.8124 C 10.513,6.623 9.8554,6.6588 9.5926,6.623 Z M 10.226,5.5238 C 10.202,5.3923 10.13,5.237 9.9868,5.1534 9.8554,5.0817 9.6642,5.0936 9.5328,5.1773 9.4133,5.2609 9.3416,5.4162 9.3416,5.5596 9.3297,5.691 9.3655,5.8583 9.497,5.9897 c 0.0717,0.0598 0.1194,0.0837 0.1792,0.0956 0.1195,0.0239 0.2987,0 0.4178,-0.1314 0.108,-0.1195 0.144,-0.2987 0.132,-0.4301 z"
                 style="fill:#ffffff;fill-opacity:1;fill-rule:nonzero;stroke:none"
                 id="path62" />
              <path
                 d="m 15.602,5.7388 c -0.047,-0.1433 -0.059,-0.1792 -0.059,-0.227 0,0.0478 -0.012,0.0717 -0.048,0.227 l -0.263,0.8125 h -0.8 L 14.169,5.7388 c -0.048,-0.1433 -0.048,-0.1792 -0.048,-0.227 0,0.0478 -0.012,0.0717 -0.06,0.227 l -0.263,0.8125 h -0.812 l 0.741,-1.9475 h 0.764 l 0.275,0.8602 c 0.048,0.1315 0.06,0.1434 0.06,0.1912 0.012,-0.0478 0.012,-0.0597 0.071,-0.2031 l 0.275,-0.8483 h 0.765 l 0.741,1.9475 h -0.813 z"
                 style="fill:#ffffff;fill-opacity:1;fill-rule:nonzero;stroke:none"
                 id="path64" />
              <path
                 d="M 17.61,6.5752 C 17.287,6.4796 17.012,6.3004 16.905,5.8822 16.821,5.5716 16.857,5.2848 17.036,5.01 c 0.347,-0.5018 1.028,-0.4779 1.35,-0.4301 0.239,0.0358 0.693,0.1672 0.849,0.6093 l 0.012,0.0239 -0.741,0.0837 C 18.482,5.2609 18.47,5.237 18.386,5.1773 18.255,5.0817 17.992,5.1056 17.885,5.1414 17.765,5.1892 17.657,5.3445 17.646,5.4401 h 1.648 V 5.476 c 0,0.2389 -0.083,0.5615 -0.274,0.7885 -0.359,0.3943 -1.076,0.4182 -1.41,0.3107 z m 0.012,-0.7527 c 0.059,0.215 0.179,0.2867 0.334,0.3106 0.156,0.0239 0.43,-0.0239 0.55,-0.3106 z"
                 style="fill:#ffffff;fill-opacity:1;fill-rule:nonzero;stroke:none"
                 id="path66" />
              <path
                 d="m 21.839,6.5513 h -0.74 V 6.384 C 20.931,6.5394 20.764,6.5991 20.633,6.611 20.358,6.6588 19.987,6.5513 19.76,6.2645 19.569,6.0256 19.533,5.6671 19.581,5.4401 19.629,5.1414 19.784,4.9264 20.059,4.771 20.358,4.6157 20.836,4.6516 21.11,4.8786 21.11,4.7949 21.11,4.6157 21.087,4.544 21.039,4.4245 20.931,4.3887 20.836,4.3768 20.764,4.3648 20.537,4.329 20.465,4.4723 20.453,4.4962 20.441,4.5082 20.441,4.5321 h -0.788 c 0.012,-0.1434 0.048,-0.2509 0.072,-0.2868 0.191,-0.3345 0.525,-0.4062 0.943,-0.4062 0.419,0 0.741,0.0239 0.98,0.3106 0.215,0.251 0.191,0.5616 0.191,0.8603 z M 20.967,5.3804 c -0.131,-0.0836 -0.334,-0.0717 -0.454,-0.012 -0.096,0.0478 -0.155,0.1195 -0.179,0.2271 -0.012,0.0716 0,0.1911 0.072,0.2628 0.047,0.0598 0.107,0.0956 0.179,0.1195 0.095,0.0239 0.31,0.0119 0.418,-0.1075 0.072,-0.0717 0.107,-0.1554 0.096,-0.2509 0,-0.0837 -0.048,-0.1793 -0.132,-0.239 z"
                 style="fill:#ffffff;fill-opacity:1;fill-rule:nonzero;stroke:none"
                 id="path68" />
              <path
                 d="m 22.413,7.2801 h 0.741 V 6.7903 h -0.741 z"
                 style="fill:#ffffff;fill-opacity:1;fill-rule:nonzero;stroke:none"
                 id="path70" />
              <path
                 d="m 22.413,6.5513 h 0.741 V 4.6038 h -0.741 z"
                 style="fill:#ffffff;fill-opacity:1;fill-rule:nonzero;stroke:none"
                 id="path72" />
              <path
                 d="m 23.882,4.6635 0.024,-0.0239 c 0.371,-0.1553 0.849,-0.0956 1.267,0.1434 0,0 0,-0.1195 0.036,-0.1792 h 0.86 C 25.973,4.6874 25.937,4.8188 25.937,5.01 v 0.8244 c 0,0.1553 0.012,0.3704 -0.095,0.5018 -0.179,0.239 -0.49,0.2748 -1.063,0.2748 -0.454,0 -0.765,-0.0239 -0.944,-0.2628 C 23.751,6.2287 23.727,6.1331 23.727,5.9778 h 0.669 c 0.012,0.0478 0.036,0.0836 0.084,0.1195 0.095,0.0717 0.454,0.0597 0.549,0.0119 0.108,-0.0597 0.132,-0.1314 0.144,-0.2748 0,0 -0.239,0.012 -0.383,0.012 C 24.611,5.8344 24.528,5.8344 24.36,5.7986 24.038,5.7508 23.715,5.703 23.632,5.3087 c -0.084,-0.239 0,-0.4899 0.25,-0.6452 z m 0.466,0.693 c 0.048,0.1075 0.156,0.0956 0.383,0.0956 L 25.125,5.464 C 25.053,5.2131 24.91,5.1295 24.719,5.0936 24.611,5.0697 24.432,5.0697 24.348,5.2131 c 0,0.0239 -0.012,0.1076 0,0.1434 z"
                 style="fill:#ffffff;fill-opacity:1;fill-rule:nonzero;stroke:none"
                 id="path74" />
              <path
                 d="m 27.192,5.3923 c 0,0.2748 -0.024,0.4302 0.167,0.5735 0.108,0.0837 0.287,0.0837 0.383,0.0239 0.191,-0.1194 0.167,-0.3703 0.167,-0.5496 V 4.6157 h 0.741 v 1.0395 c 0,0.3465 0,0.6571 -0.323,0.8603 C 28.028,6.6947 27.55,6.6947 27.192,6.3721 V 6.5513 H 26.451 V 4.6038 h 0.741 z"
                 style="fill:#ffffff;fill-opacity:1;fill-rule:nonzero;stroke:none"
                 id="path76" />
              <path
                 d="M 12.209,6.3362 V 6.5513 H 11.468 V 4.6038 h 0.741 V 5.691 c 0.144,0.0956 0.299,0.1315 0.526,0.1315 V 6.5871 C 12.639,6.5871 12.508,6.5633 12.46,6.5394 12.341,6.4796 12.257,6.396 12.209,6.3362 Z"
                 style="fill:#ffffff;fill-opacity:1;fill-rule:nonzero;stroke:none"
                 id="path78" />
              <path
                 d="m 32.485,3.2536 c -0.167,0.0837 -0.335,0.1554 -0.502,0.239 0.024,0.0478 0.024,0.0956 0.012,0.1434 0,0.0358 -0.048,0.0717 -0.072,0.0836 -0.035,0.012 -0.059,0 -0.107,-0.0119 -0.048,-0.0239 -0.072,-0.0478 -0.108,-0.0598 -0.012,0 -0.012,0.012 -0.023,0.012 v 0 c -0.024,0.0119 -0.036,0.0119 -0.06,0.0358 0.024,0.012 0.048,0.0359 0.083,0.0478 0.132,0.0956 0.275,0.1792 0.407,0.2868 0.131,0.0955 0.251,0.1911 0.346,0.3345 0.024,0.0359 0.048,0.0836 0.036,0.1314 -0.012,0.012 0,0.0239 -0.024,0.0478 -0.012,0.012 -0.024,0.012 -0.036,0.0239 -0.036,0.012 -0.048,0.0239 -0.083,0.0359 -0.06,0.0119 -0.12,0.0239 -0.192,0.0239 -0.012,0 -0.035,0 -0.047,0 -0.096,0 -0.203,-0.0239 -0.299,-0.0478 C 31.673,4.544 31.517,4.4723 31.35,4.3768 31.171,4.2812 31.003,4.1617 30.824,4.0422 30.8,4.0781 30.741,4.1139 30.693,4.1139 30.609,4.09 30.526,4.0303 30.454,3.9705 c -0.012,0 -0.024,0.012 -0.036,0.012 -0.012,0.0119 -0.024,0 -0.036,0.0119 -0.012,0 -0.024,0 -0.036,0.012 C 30.191,4.0303 30.024,4.0542 29.88,4.0661 29.761,4.09 29.641,4.102 29.534,4.1139 29.438,4.1258 29.367,4.1378 29.271,4.1378 29.223,4.1258 29.187,4.09 29.152,4.0781 29.128,4.0542 29.092,4.0303 29.068,4.0064 c 0,-0.012 0,-0.0239 0,-0.0359 0.06,-0.0239 0.131,-0.0358 0.179,-0.0597 0.12,-0.0239 0.155,-0.0359 0.287,-0.0717 0,0 0.083,-0.0239 0.143,-0.0358 C 29.773,3.7794 29.809,3.7674 29.904,3.7435 30,3.6957 30.107,3.6479 30.203,3.6001 30.143,3.5523 30.095,3.5284 30.024,3.4687 30,3.4448 29.964,3.4209 29.916,3.397 29.904,3.3851 29.856,3.3612 29.856,3.3612 29.821,3.3492 29.809,3.3373 29.773,3.3253 c -0.036,0 -0.06,0.012 -0.084,0.0239 -0.131,0.0598 -0.227,0.1076 -0.346,0.1553 -0.048,0.012 -0.06,0 -0.108,-0.0238 -0.012,-0.012 -0.024,-0.012 -0.036,-0.0239 -0.012,-0.012 -0.024,-0.0239 -0.024,-0.0359 0,-0.0239 0.012,-0.0358 0.024,-0.0478 0.06,-0.0717 0.132,-0.1314 0.191,-0.2031 v 0 c -0.047,0.012 -0.107,0.012 -0.155,0.012 -0.048,0.0119 -0.119,0 -0.155,-0.0359 -0.012,-0.0239 -0.012,-0.0478 0,-0.0597 0.072,-0.0359 0.143,-0.0478 0.227,-0.0717 0.036,-0.012 0.072,-0.0239 0.107,-0.0359 0.012,0 0.024,-0.0119 0.048,-0.0119 -2.043,-0.92 -4.014,-1.3382 -4.791,-1.2426 -0.693,0.0836 -0.621,1.2426 0.49,2.1745 H 24.874 C 23.476,2.7996 22.998,1.4495 23.978,1.2583 c 1.087,-0.215 3.286,0.466 5.568,1.613 0.048,-0.0239 0.107,0.012 0.155,0.0239 l 0.024,-0.0119 c 0.108,-0.0239 0.227,-0.0598 0.347,-0.0837 0.035,0.012 0.047,0.012 0.071,0.0239 0.012,0 0.012,0.012 0.012,0.0239 -0.024,0.0597 -0.083,0.0836 -0.119,0.1314 0.119,0.0359 0.227,0.0717 0.346,0.1195 0.179,0.0598 0.335,0.1314 0.49,0.2031 0.108,-0.0119 0.203,-0.0119 0.311,-0.0119 0.083,0 0.167,0 0.251,-0.012 0.071,0 0.119,-0.0119 0.191,-0.0239 0.083,-0.0119 0.179,-0.0358 0.263,-0.0478 0.107,-0.0238 0.215,-0.0477 0.322,-0.0716 0.072,-0.0239 0.144,-0.0359 0.215,-0.0478 0.072,0 0.132,0.0478 0.191,0.0836 0.024,0.0239 0.048,0.0478 0.036,0.0717 -0.095,-0.0239 -0.131,0 -0.167,0.0119 z M 30.203,3.3612 C 30.072,3.2895 29.916,3.2058 29.725,3.1222 29.677,3.0983 29.617,3.0864 29.558,3.0983 c -0.036,0 -0.048,0 -0.084,0.012 -0.072,0.0717 -0.143,0.1433 -0.215,0.215 -0.012,0.012 -0.024,0.0239 -0.036,0.0359 l 0.048,0.0239 h 0.012 c 0.107,-0.0478 0.179,-0.0837 0.275,-0.1315 0.036,-0.0239 0.083,-0.0358 0.119,-0.0478 0.048,0 0.072,0.012 0.12,0.0359 l 0.036,0.0239 c 0.059,0.0358 0.083,0.0478 0.119,0.0717 0.108,0.0717 0.191,0.1195 0.299,0.1911 l 0.024,0.012 C 30.334,3.5165 30.358,3.5045 30.406,3.4807 30.346,3.4209 30.275,3.3851 30.203,3.3612 Z m 0.299,0.3823 c -0.024,0.012 -0.024,0.0359 -0.024,0.0478 -0.012,0.0478 -0.012,0.0717 0.012,0.1075 l 0.024,0.012 c 0.023,0.0119 0.035,0.0358 0.059,0.0478 0.024,0.0119 0.036,0.0239 0.06,0.0358 -0.012,-0.0358 -0.012,-0.0597 0,-0.0956 0,-0.0239 0.024,-0.0358 0.024,-0.0478 C 30.609,3.8152 30.561,3.7794 30.502,3.7435 Z M 31.29,4.0661 C 31.23,4.0303 31.111,3.9347 31.111,3.9227 c -0.096,0.012 -0.179,0.012 -0.263,0.0239 l 0.024,0.012 c 0.12,0.0956 0.215,0.1553 0.347,0.2389 0.119,0.0717 0.286,0.1554 0.418,0.2151 0.131,0.0478 0.251,0.0836 0.394,0.1075 0.072,0.012 0.155,0.012 0.227,-0.0119 C 32.174,4.4843 32.127,4.4723 32.031,4.4365 31.947,4.4007 31.828,4.3529 31.732,4.3051 31.565,4.2334 31.446,4.1617 31.29,4.0661 Z"
                 style="fill:#003d4e;fill-opacity:1;fill-rule:nonzero;stroke:none"
                 id="path80" />
            </g>
          </g>
        </g>
      </g>
    </g>
    <g
       id="g98">
      <g
         id="g100"
         clip-path="url(#clipPath104)">
        <g
           id="g106"
           transform="matrix(262.8,0,0,127.32,638.64,71.64)" />
      </g>
    </g>
    <g
       id="g252">
      <g
         id="g254"
         clip-path="url(#clipPath258)">
        <g
           id="g260"
           transform="matrix(6,0,0,6.96,59.82,282.69)" />
      </g>
    </g>
    <g
       id="g274">
      <g
         id="g276"
         clip-path="url(#clipPath280)">
        <g
           id="g282"
           transform="matrix(6,0,0,6.96,59.82,264.69)" />
      </g>
    </g>
    <g
       id="g296">
      <g
         id="g298"
         clip-path="url(#clipPath302)">
        <g
           id="g304"
           transform="matrix(6,0,0,6.96,59.82,246.69)" />
      </g>
    </g>
    <g
       id="g318">
      <g
         id="g320"
         clip-path="url(#clipPath324)">
        <g
           id="g326"
           transform="matrix(6,0,0,6.96,59.82,228.69)" />
      </g>
    </g>
  </g>
</svg>
