<?xml version="1.0" encoding="UTF-8" standalone="no"?>
<!-- Created with Inkscape (http://www.inkscape.org/) -->
<svg
   xmlns:dc="http://purl.org/dc/elements/1.1/"
   xmlns:cc="http://creativecommons.org/ns#"
   xmlns:rdf="http://www.w3.org/1999/02/22-rdf-syntax-ns#"
   xmlns:svg="http://www.w3.org/2000/svg"
   xmlns="http://www.w3.org/2000/svg"
   xmlns:xlink="http://www.w3.org/1999/xlink"
   xmlns:sodipodi="http://sodipodi.sourceforge.net/DTD/sodipodi-0.dtd"
   xmlns:inkscape="http://www.inkscape.org/namespaces/inkscape"
   version="1.0"
   width="214.17662"
   height="61.689514"
   viewBox="0 0 164.333 47.333"
   id="Layer_1"
   xml:space="preserve"
   sodipodi:version="0.32"
   inkscape:version="0.46"
   sodipodi:docname="Novair_logo.svg"
   inkscape:output_extension="org.inkscape.output.svg.inkscape"><metadata
   id="metadata19"><rdf:RDF><cc:Work
       rdf:about=""><dc:format>image/svg+xml</dc:format><dc:type
         rdf:resource="http://purl.org/dc/dcmitype/StillImage" /></cc:Work></rdf:RDF></metadata><sodipodi:namedview
   inkscape:window-height="744"
   inkscape:window-width="1280"
   inkscape:pageshadow="2"
   inkscape:pageopacity="0.0"
   guidetolerance="10.0"
   gridtolerance="10.0"
   objecttolerance="10.0"
   borderopacity="1.0"
   bordercolor="#666666"
   pagecolor="#ffffff"
   id="base"
   showgrid="false"
   inkscape:zoom="2.5399598"
   inkscape:cx="107.08831"
   inkscape:cy="30.844757"
   inkscape:window-x="-4"
   inkscape:window-y="-4"
   inkscape:current-layer="Layer_1" /><defs
   id="defs32"><inkscape:perspective
   sodipodi:type="inkscape:persp3d"
   inkscape:vp_x="0 : 30.844757 : 1"
   inkscape:vp_y="0 : 1000 : 0"
   inkscape:vp_z="214.17662 : 30.844757 : 1"
   inkscape:persp3d-origin="107.08831 : 20.563171 : 1"
   id="perspective21" />
	<defs
   id="defs7">
		<rect
   width="170.31"
   height="53.178001"
   x="-3.5009999"
   y="-2.796"
   id="SVGID_1_" />
	</defs>
	<clipPath
   id="SVGID_2_">
		<use
   id="use11"
   style="overflow:visible"
   x="0"
   y="0"
   width="164.33299"
   height="47.333"
   xlink:href="#SVGID_1_" />
	</clipPath>
	
	
	
	
	
	
	
	
	
</defs>
<rect
   width="164.88373"
   height="47.491631"
   x="3.8342352e-09"
   y="-1.1639339e-06"
   id="rect3"
   style="fill:#0078a9" />
<g
   id="g2394"
   transform="scale(0.7698493,0.7698493)"><path
     style="fill:#fbb040"
     id="path13"
     clip-path="url(#SVGID_2_)"
     transform="matrix(1.3033088,0,0,1.3033088,0,-1.3258601e-6)"
     d="M 119.967,43.267 C 119.967,43.722 120.342,44.095 120.797,44.095 L 159.664,44.095 C 160.12,44.095 160.494,43.722 160.494,43.267 L 160.494,4.401 C 160.494,3.945 160.12,3.572 159.664,3.572 L 120.797,3.572 C 120.342,3.572 119.967,3.945 119.967,4.401 L 119.967,43.267 z" /><path
     style="fill:#ffffff"
     id="path15"
     clip-path="url(#SVGID_2_)"
     transform="matrix(1.3033088,0,0,1.3033088,0,-1.3258601e-6)"
     d="M 119.974,4.401 C 119.974,3.946 120.347,3.578 120.797,3.578 L 124.69,3.578 C 125.145,3.578 125.518,3.946 125.518,4.401 L 125.513,9.222 L 125.513,14.045 C 125.513,14.423 125.764,14.806 126.103,14.991 C 128.426,15.478 130.654,16.237 132.746,17.242 C 133.119,17.296 133.522,17.119 133.714,16.784 L 137.322,10.541 L 140.925,4.29 C 141.151,3.898 141.711,3.578 142.168,3.578 L 146.918,3.578 C 147.366,3.578 147.554,3.898 147.327,4.29 L 142.866,12.013 L 138.413,19.736 C 138.22,20.059 138.261,20.511 138.477,20.827 C 140.24,22.234 141.838,23.833 143.246,25.595 C 143.557,25.81 144.005,25.848 144.337,25.658 L 152.06,21.2 L 159.778,16.746 C 160.174,16.519 160.496,16.705 160.496,17.158 L 160.496,21.907 C 160.496,22.362 160.174,22.916 159.778,23.146 L 153.531,26.748 L 147.28,30.361 C 146.947,30.548 146.779,30.951 146.832,31.324 C 147.829,33.413 148.587,35.637 149.073,37.967 C 149.261,38.299 149.645,38.55 150.024,38.55 L 159.67,38.55 C 160.121,38.55 160.495,38.922 160.495,39.378 L 160.495,43.267 C 160.495,43.721 160.121,44.096 159.67,44.096 L 144.874,44.096 C 144.518,44.096 144.156,43.686 144.156,43.267 C 144.039,39.794 143.188,36.504 141.752,33.548 C 140.942,31.873 139.937,30.303 138.769,28.872 C 137.706,27.56 136.511,26.357 135.197,25.296 C 133.767,24.135 132.198,23.132 130.524,22.312 C 127.541,20.862 124.217,20.01 120.711,19.905 C 120.307,19.858 119.968,19.519 119.968,19.102 L 119.974,4.401 z" /><path
     style="fill:#ffffff"
     id="path17"
     clip-path="url(#SVGID_2_)"
     transform="matrix(1.3033088,0,0,1.3033088,0,-1.3258601e-6)"
     d="M 24.165,37.68 C 24.165,38.006 23.9,38.271 23.573,38.271 L 20.792,38.271 C 20.465,38.271 20.2,38.006 20.2,37.68 L 20.202,28.079 C 20.202,24.948 19.683,23.459 16.73,23.459 C 12.777,23.459 12.777,26.95 12.777,30.029 L 12.777,37.679 C 12.777,38.005 12.509,38.27 12.184,38.27 L 9.408,38.27 C 9.084,38.27 8.816,38.005 8.816,37.679 L 8.816,20.975 C 8.816,20.649 9.084,20.384 9.408,20.384 L 12.187,20.384 C 12.511,20.384 12.777,20.649 12.777,20.975 L 12.777,22.104 C 13.914,20.71 15.726,19.869 17.723,19.869 C 23.494,19.869 24.162,24.321 24.162,27.668 L 24.165,37.68 z" /><path
     style="fill:#ffffff"
     id="path19"
     clip-path="url(#SVGID_2_)"
     transform="matrix(1.3033088,0,0,1.3033088,0,-1.3258601e-6)"
     d="M 36.641,35.048 C 33.565,35.048 31.065,32.502 31.065,29.363 C 31.065,26.232 33.565,23.68 36.641,23.68 C 39.712,23.68 42.213,26.232 42.213,29.363 C 42.213,32.501 39.712,35.048 36.641,35.048 M 36.641,19.868 C 31.291,19.868 27.105,24.038 27.105,29.363 C 27.105,34.69 31.292,38.863 36.641,38.863 C 41.985,38.863 46.174,34.69 46.174,29.363 C 46.174,24.038 41.984,19.868 36.641,19.868" /><path
     style="fill:#ffffff"
     id="path21"
     clip-path="url(#SVGID_2_)"
     transform="matrix(1.3033088,0,0,1.3033088,0,-1.3258601e-6)"
     d="M 106.948,19.811 C 103.889,19.843 102.507,20.59 101.264,22.104 L 101.264,20.958 C 101.264,20.633 100.998,20.367 100.671,20.367 L 98.18,20.367 C 97.858,20.367 97.59,20.633 97.59,20.958 L 97.59,37.678 C 97.59,38.002 97.858,38.27 98.18,38.27 L 100.888,38.27 C 101.215,38.27 101.482,38.002 101.482,37.678 L 101.483,28.526 C 101.483,26.597 102.077,25.225 103.242,24.459 C 104.234,23.799 105.647,23.752 106.395,23.782 L 106.951,23.827 C 107.275,23.827 107.543,23.562 107.543,23.237 L 107.543,20.403 C 107.542,20.076 107.272,19.811 106.948,19.811" /><path
     style="fill:#ffffff"
     id="path23"
     clip-path="url(#SVGID_2_)"
     transform="matrix(1.3033088,0,0,1.3033088,0,-1.3258601e-6)"
     d="M 74.78,35.271 C 71.416,35.271 69.653,32.279 69.653,29.328 C 69.653,26.413 71.416,23.459 74.78,23.459 C 78.41,23.459 80.061,26.503 80.061,29.328 C 80.062,32.286 78.428,35.271 74.78,35.271 M 83.253,20.383 L 80.466,20.383 C 80.141,20.383 79.874,20.65 79.874,20.975 L 79.874,22.701 C 78.398,20.87 76.399,19.868 74.156,19.868 C 68.654,19.868 65.688,24.684 65.688,29.218 C 65.688,31.8 66.479,34.185 67.913,35.932 C 69.484,37.847 71.682,38.862 74.267,38.862 C 76.418,38.862 78.417,37.871 79.874,36.121 L 79.874,37.682 C 79.874,38.006 80.141,38.273 80.466,38.273 L 83.253,38.273 C 83.576,38.273 83.844,38.006 83.841,37.682 L 83.841,20.975 C 83.844,20.65 83.576,20.383 83.253,20.383" /><path
     style="fill:#ffffff"
     id="path25"
     clip-path="url(#SVGID_2_)"
     transform="matrix(1.3033088,0,0,1.3033088,0,-1.3258601e-6)"
     d="M 92.108,20.383 C 92.434,20.383 92.7,20.65 92.7,20.975 L 92.7,37.679 C 92.7,38.005 92.434,38.27 92.108,38.27 L 89.332,38.27 C 89.007,38.27 88.74,38.005 88.74,37.679 L 88.74,20.975 C 88.74,20.65 89.007,20.383 89.332,20.383 L 92.108,20.383 L 92.108,20.383 z" /><path
     style="fill:#ffffff"
     id="path27"
     clip-path="url(#SVGID_2_)"
     transform="matrix(1.3033088,0,0,1.3033088,0,-1.3258601e-6)"
     d="M 90.723,15.388 C 92.161,15.388 93.329,14.235 93.329,12.82 C 93.329,11.36 92.16,10.174 90.723,10.174 C 89.282,10.174 88.116,11.36 88.116,12.82 C 88.115,14.235 89.281,15.388 90.723,15.388" /><path
     style="fill:#ffffff"
     id="path29"
     clip-path="url(#SVGID_2_)"
     transform="matrix(1.3033088,0,0,1.3033088,0,-1.3258601e-6)"
     d="M 64.53,20.383 L 61.278,20.383 C 60.954,20.383 60.577,20.626 60.446,20.922 L 56.165,30.498 C 56.054,30.743 55.972,30.928 55.923,31.038 C 55.873,30.928 55.79,30.742 55.683,30.498 L 51.434,20.924 C 51.302,20.627 50.927,20.383 50.602,20.383 L 47.352,20.383 C 47.026,20.383 46.872,20.626 47.007,20.921 L 54.686,37.711 C 54.821,38.007 55.197,38.248 55.523,38.248 L 56.326,38.248 C 56.649,38.248 57.028,38.008 57.163,37.711 L 64.873,20.921 C 65.009,20.626 64.855,20.383 64.53,20.383" /></g>
</svg>