<?xml version="1.0" encoding="utf-8"?>
<!-- Generator: Adobe Illustrator 16.0.3, SVG Export Plug-In . SVG Version: 6.00 Build 0)  -->
<!DOCTYPE svg PUBLIC "-//W3C//DTD SVG 1.1//EN" "http://www.w3.org/Graphics/SVG/1.1/DTD/svg11.dtd">
<svg version="1.1" id="svg3797" xmlns:svg="http://www.w3.org/2000/svg"
	 xmlns="http://www.w3.org/2000/svg" xmlns:xlink="http://www.w3.org/1999/xlink" x="0px" y="0px" width="729.978px"
	 height="305.971px" viewBox="4.22 166.977 729.978 305.971" enable-background="new 4.22 166.977 729.978 305.971"
	 xml:space="preserve">
<path id="path2915" fill="#E01010" d="M326.151,174.298H177.733c-14.839,0-38.628,14.289-46.478,28.583
	c-7.845,14.299-110.387,218.776-118.327,234.17c-7.946,15.395,0.652,30.229,14.941,30.229c14.294,0,134.176-0.545,150.762-1.646
	c16.587-1.101,35.931-14.845,43.774-29.133c7.85-14.289,112.396-216.58,119.835-232.52
	C349.683,188.041,344.291,174.298,326.151,174.298 M240.697,246.308c-4.718,9.892-69.627,142.373-73.549,149.518
	s-12.6,12.088-17.548,12.088s-24.788,0.55-30.784,0c-5.996-0.546-11.013-6.044-6.995-14.289
	c4.019-8.245,72.063-145.12,74.745-150.614c2.678-5.498,8.705-11.547,16.4-11.547h30.784
	C240.344,231.463,245.409,236.411,240.697,246.308 M391.16,172.646h74.205c0,0-96.707,200.64-100.634,207.784
	c-3.923,7.149-5.028,19.787,5.418,19.787c10.441,0,72.507,0.556,72.507,0.556l-33.658,64.31H280.373
	c-11.548,0-25.425-10.991-17.934-27.486C269.926,421.106,391.16,172.646,391.16,172.646 M516.894,174.298h211.631l-37.778,73.655
	h-56.62c-4.948,0-13.241,0.551-17.26,8.796c-4.019,8.25-92.433,208.334-92.433,208.334H445.83c0,0,90.536-192.944,93.956-200.64
	c3.425-7.694,3.595-15.935-3.598-15.385c-7.197,0.546-60.467,0-60.467,0L516.894,174.298z"/>
</svg>
