<?xml version="1.0" encoding="UTF-8" standalone="no"?>
<!-- Created with Inkscape (http://www.inkscape.org/) -->

<svg
   width="79.375mm"
   height="7.1533947mm"
   viewBox="0 0 79.375 7.1533947"
   version="1.1"
   id="svg1"
   inkscape:version="1.4 (86a8ad7, 2024-10-11)"
   sodipodi:docname="Olympic Air wordmark.svg"
   xmlns:inkscape="http://www.inkscape.org/namespaces/inkscape"
   xmlns:sodipodi="http://sodipodi.sourceforge.net/DTD/sodipodi-0.dtd"
   xmlns="http://www.w3.org/2000/svg"
   xmlns:svg="http://www.w3.org/2000/svg">
  <sodipodi:namedview
     id="namedview1"
     pagecolor="#ffffff"
     bordercolor="#000000"
     borderopacity="0.25"
     inkscape:showpageshadow="2"
     inkscape:pageopacity="0.0"
     inkscape:pagecheckerboard="0"
     inkscape:deskcolor="#d1d1d1"
     inkscape:document-units="mm"
     inkscape:zoom="2.7901515"
     inkscape:cx="151.60467"
     inkscape:cy="15.590551"
     inkscape:window-width="1920"
     inkscape:window-height="1001"
     inkscape:window-x="-9"
     inkscape:window-y="-9"
     inkscape:window-maximized="1"
     inkscape:current-layer="layer1" />
  <defs
     id="defs1" />
  <g
     inkscape:label="Layer 1"
     inkscape:groupmode="layer"
     id="layer1"
     transform="translate(-16.888203,-6.1936968)">
    <g
       transform="matrix(2.359774,0,0,-2.359774,227.3579,131.2391)"
       id="g11112">
      <path
         id="path11114"
         style="fill:#111941;fill-opacity:1;fill-rule:nonzero;stroke:none"
         d="M 0,0 H 3.314 L 2.334,-2.586 H 4.122 L 3.716,-3.632 H 1.938 -0.351 l 1.149,3.034 c 0.056,0.152 -0.05,0.409 -0.323,0.413 H 0 Z"
         inkscape:connector-curvature="0" />
    </g>
    <g
       transform="matrix(2.359774,0,0,-2.359774,288.13126,131.24169)"
       id="g11116">
      <path
         id="path11118"
         style="fill:#111941;fill-opacity:1;fill-rule:nonzero;stroke:none"
         d="M 0,0 H 3.313 L 1.936,-3.631 h -2.288 l 1.149,3.044 C 0.89,-0.345 0.681,-0.186 0.474,-0.186 H 0 Z"
         inkscape:connector-curvature="0" />
    </g>
    <g
       transform="matrix(2.359774,0,0,-2.359774,273.03932,131.2391)"
       id="g11120">
      <path
         id="path11122"
         style="fill:#111941;fill-opacity:1;fill-rule:nonzero;stroke:none"
         d="M 0,0 H 4.58 C 6.295,0 6.739,-1.823 4.998,-2.45 4.565,-2.601 3.46,-2.575 3.367,-2.575 H 2.338 l -0.4,-1.057 h -2.29 l 1.15,3.045 c 0.066,0.236 -0.153,0.404 -0.323,0.402 L 0,-0.185 Z M 3.557,-0.755 H 3.038 L 2.651,-1.788 H 3.31 l 0.156,0.037 c 0.302,0.183 0.556,0.709 0.241,0.952 z"
         inkscape:connector-curvature="0" />
    </g>
    <g
       transform="matrix(2.359774,0,0,-2.359774,263.43882,131.24169)"
       id="g11124">
      <path
         id="path11126"
         style="fill:#111941;fill-opacity:1;fill-rule:nonzero;stroke:none"
         d="M 0,0 C 1.106,0 2.203,0.001 3.313,0.001 L 1.936,-3.631 h -2.29 l 0.511,1.348 -1.377,-1.128 -0.307,1.321 -0.584,-1.541 h -2.29 l 1.15,3.032 c 0.065,0.249 -0.092,0.407 -0.324,0.413 H -4.05 v 0.187 h 3.295 l 0.007,-0.032 0.341,-1.479 1.066,0.979 c 0.118,0.119 0.047,0.347 -0.186,0.347 H 0 Z"
         inkscape:connector-curvature="0" />
    </g>
    <g
       transform="matrix(2.359774,0,0,-2.359774,252.1435,131.67684)"
       id="g11128">
      <path
         id="path11130"
         style="fill:#111941;fill-opacity:1;fill-rule:nonzero;stroke:none"
         d="M 0,0 H 0.276 V 0.185 H -1.967 V 0 h 0.474 c 0.207,0.003 0.222,-0.116 0.102,-0.223 L -2.618,-1.349 -3.336,0.162 -3.347,0.185 H -6.231 V 0 h 0.474 c 0.173,-0.005 0.238,-0.129 0.344,-0.303 l 0.869,-1.813 -0.488,-1.33 h 2.303 l 0.512,1.399 z"
         inkscape:connector-curvature="0" />
    </g>
    <g
       transform="matrix(2.359774,0,0,-2.359774,224.35153,132.35928)"
       id="g11132">
      <path
         id="path11134"
         style="fill:#111941;fill-opacity:1;fill-rule:nonzero;stroke:none"
         d="M 0,0 C -0.356,0.238 -0.828,0.391 -1.416,0.45 -1.64,0.475 -1.879,0.482 -2.13,0.474 H -4.954 V 0.287 h 0.474 c 0.206,-0.012 0.178,-0.178 0.099,-0.272 -0.055,-0.066 -0.141,-0.138 -0.258,-0.206 -0.366,-0.221 -0.66,-0.486 -0.879,-0.794 -0.215,-0.308 -0.317,-0.598 -0.305,-0.874 0.018,-0.412 0.256,-0.75 0.717,-1.021 0.393,-0.227 0.895,-0.363 1.512,-0.408 0.377,-0.027 0.758,-0.019 1.136,0.027 0.496,0.062 0.968,0.182 1.417,0.363 0.542,0.217 0.961,0.499 1.259,0.842 0.288,0.332 0.424,0.676 0.41,1.032 C 0.61,-0.609 0.402,-0.268 0,0 m -1.659,-1.409 c -0.31,-0.797 -0.822,-1.133 -1.34,-1.133 -0.519,0 -0.843,0.354 -0.538,1.133 0.291,0.74 0.821,1.131 1.339,1.131 0.519,0 0.867,-0.288 0.539,-1.131"
         inkscape:connector-curvature="0" />
    </g>
    <g
       transform="matrix(1.8845082,0,0,-1.8845082,87.75465,7.466202)"
       id="g11108">
      <path
         id="path11110"
         style="fill:#111941;fill-opacity:1;fill-rule:nonzero;stroke:none"
         d="m 0,0 c -0.365,-0.223 -0.659,-0.487 -0.879,-0.796 -0.214,-0.306 -0.316,-0.596 -0.304,-0.876 0.016,-0.412 0.255,-0.749 0.717,-1.019 0.391,-0.23 0.895,-0.366 1.511,-0.412 0.377,-0.029 0.757,-0.024 1.137,0.028 0.6,0.087 1.13,0.336 1.547,0.663 L 3.414,-1.964 C 3.158,-2.104 2.835,-2.212 2.482,-2.243 -0.092,-2.481 1.057,-0.113 2.817,-0.05 l 0.231,0.016 c 0.39,0 0.742,-0.126 0.992,-0.327 l 0.475,0.35 C 4.292,0.313 3.876,0.559 3.224,0.642 3,0.672 2.627,0.667 2.509,0.667 H -0.315 V 0.477 H 0.159 C 0.366,0.47 0.338,0.302 0.258,0.206 0.204,0.141 0.116,0.068 0,0"
         inkscape:connector-curvature="0" />
    </g>
    <g
       transform="matrix(1.8845082,0,0,-1.8845082,30.264354,6.1983048)"
       id="g11112-2">
      <path
         id="path11114-0"
         style="fill:#111941;fill-opacity:1;fill-rule:nonzero;stroke:none"
         d="M 0,0 H 3.314 L 2.334,-2.586 H 4.122 L 3.716,-3.632 H 1.938 -0.351 l 1.149,3.034 c 0.056,0.152 -0.05,0.409 -0.323,0.413 H 0 Z"
         inkscape:connector-curvature="0" />
    </g>
    <g
       transform="matrix(1.8845082,0,0,-1.8845082,78.797769,6.2003776)"
       id="g11116-0">
      <path
         id="path11118-1"
         style="fill:#111941;fill-opacity:1;fill-rule:nonzero;stroke:none"
         d="M 0,0 H 3.313 L 1.936,-3.631 h -2.288 l 1.149,3.044 C 0.89,-0.345 0.681,-0.186 0.474,-0.186 H 0 Z"
         inkscape:connector-curvature="0" />
    </g>
    <g
       transform="matrix(1.8845082,0,0,-1.8845082,66.745398,6.1983048)"
       id="g11120-4">
      <path
         id="path11122-6"
         style="fill:#111941;fill-opacity:1;fill-rule:nonzero;stroke:none"
         d="M 0,0 H 4.58 C 6.295,0 6.739,-1.823 4.998,-2.45 4.565,-2.601 3.46,-2.575 3.367,-2.575 H 2.338 l -0.4,-1.057 h -2.29 l 1.15,3.045 c 0.066,0.236 -0.153,0.404 -0.323,0.402 L 0,-0.185 Z M 3.557,-0.755 H 3.038 L 2.651,-1.788 H 3.31 l 0.156,0.037 c 0.302,0.183 0.556,0.709 0.241,0.952 z"
         inkscape:connector-curvature="0" />
    </g>
    <g
       transform="matrix(1.8845082,0,0,-1.8845082,59.078465,6.2003776)"
       id="g11124-0">
      <path
         id="path11126-7"
         style="fill:#111941;fill-opacity:1;fill-rule:nonzero;stroke:none"
         d="M 0,0 C 1.106,0 2.203,0.001 3.313,0.001 L 1.936,-3.631 h -2.29 l 0.511,1.348 -1.377,-1.128 -0.307,1.321 -0.584,-1.541 h -2.29 l 1.15,3.032 c 0.065,0.249 -0.092,0.407 -0.324,0.413 H -4.05 v 0.187 h 3.295 l 0.007,-0.032 0.341,-1.479 1.066,0.979 c 0.118,0.119 0.047,0.347 -0.186,0.347 H 0 Z"
         inkscape:connector-curvature="0" />
    </g>
    <g
       transform="matrix(1.8845082,0,0,-1.8845082,50.058059,6.5478825)"
       id="g11128-1">
      <path
         id="path11130-7"
         style="fill:#111941;fill-opacity:1;fill-rule:nonzero;stroke:none"
         d="M 0,0 H 0.276 V 0.185 H -1.967 V 0 h 0.474 c 0.207,0.003 0.222,-0.116 0.102,-0.223 L -2.618,-1.349 -3.336,0.162 -3.347,0.185 H -6.231 V 0 h 0.474 c 0.173,-0.005 0.238,-0.129 0.344,-0.303 l 0.869,-1.813 -0.488,-1.33 h 2.303 l 0.512,1.399 z"
         inkscape:connector-curvature="0" />
    </g>
    <g
       transform="matrix(1.8845082,0,0,-1.8845082,27.86348,7.092881)"
       id="g11132-7">
      <path
         id="path11134-7"
         style="fill:#111941;fill-opacity:1;fill-rule:nonzero;stroke:none"
         d="M 0,0 C -0.356,0.238 -0.828,0.391 -1.416,0.45 -1.64,0.475 -1.879,0.482 -2.13,0.474 H -4.954 V 0.287 h 0.474 c 0.206,-0.012 0.178,-0.178 0.099,-0.272 -0.055,-0.066 -0.141,-0.138 -0.258,-0.206 -0.366,-0.221 -0.66,-0.486 -0.879,-0.794 -0.215,-0.308 -0.317,-0.598 -0.305,-0.874 0.018,-0.412 0.256,-0.75 0.717,-1.021 0.393,-0.227 0.895,-0.363 1.512,-0.408 0.377,-0.027 0.758,-0.019 1.136,0.027 0.496,0.062 0.968,0.182 1.417,0.363 0.542,0.217 0.961,0.499 1.259,0.842 0.288,0.332 0.424,0.676 0.41,1.032 C 0.61,-0.609 0.402,-0.268 0,0 m -1.659,-1.409 c -0.31,-0.797 -0.822,-1.133 -1.34,-1.133 -0.519,0 -0.843,0.354 -0.538,1.133 0.291,0.74 0.821,1.131 1.339,1.131 0.519,0 0.867,-0.288 0.539,-1.131"
         inkscape:connector-curvature="0" />
    </g>
  </g>
</svg>
