<svg xmlns="http://www.w3.org/2000/svg" width="291" height="55"><path fill="#d1d2d4" d="M86.84074.64295h32.702l-8.919 15.399-49.41.101Z"/><path fill="#d1d2d4" d="m30.93274 34.49915 25.472-15.331h52.377l-8.747 15.381Z"/><path fill="#d1d2d4" d="m.03844 53.15795 25.574-15.482 72.786.013-8.9 15.469Z"/><path fill="#d13239" fill-rule="evenodd" d="M53.02004 34.01825c4.92-3.785 10.027-2.485 13.263 1.631 3.235 4.115 3.139 9.506-1.548 13.272-4.686 3.767-10.027 2.485-13.262-1.631-3.235-4.115-3.373-9.487 1.547-13.272m.964 1.365c2.714-2.216 6.421-.607 9.082 2.778 2.662 3.386 3.629 7.147.555 9.482-3.074 2.334-6.298.511-8.959-2.875-2.662-3.385-3.392-7.169-.678-9.385"/><path fill="#d13239" d="M79.16354 27.00305c-.783.711-1.594 1.391-2.389 2.087-.266.233-.537.457-.807.684-2.167-1.27-4.335-2.539-6.516-3.818.216.877.421 1.73.637 2.58.3 1.176.606 2.351.913 3.525.15.57.31 1.137.464 1.705-.579.499-1.158.997-1.737 1.496-.194-.83-.419-1.651-.645-2.474-.204-.743-.386-1.492-.581-2.238-.28-1.071-.571-2.139-.843-3.211-.274-1.082-.523-2.171-.886-3.225-.136-.396-.034-.577.271-.801.691-.505 1.354-1.048 2.023-1.583.114-.09.205-.116.336-.043.918.507 1.838 1.013 2.76 1.513.656.355 1.321.696 1.977 1.053.922.5 1.838 1.01 2.76 1.51.678.369 1.361.726 2.042 1.088.08.042.174.063.221.152"/><path d="M103.11314 5.33125c.409.082.777.152 1.145.23.109.023.173-.036.247-.093.484-.377.918-.812 1.381-1.215.36-.314.697-.655 1.067-.955.477-.388 1.002-.718 1.573-.964.207-.089.416-.165.636-.198.27-.041.369.054.33.318-.076.502-.379.898-.666 1.29-.419.574-.948 1.048-1.489 1.509-.587.501-1.15 1.029-1.724 1.544-.033.03-.061.059-.058.106.029.417.058.834.089 1.275.223-.215.414-.41.617-.592.143-.128.282-.101.409.045.285.328.282.445-.07.716-.154.119-.24.308-.418.397-.123.062-.276.044-.381.166-.062.072-.105.119-.097.233.079 1.065.143 2.132.212 3.199.044.695.088 1.389.136 2.083.01.155-.033.278-.156.374-.141.108-.28.219-.439.344-.181-.396-.266-.805-.386-1.201-.328-1.074-.642-2.152-.972-3.225-.05-.163-.131-.326-.232-.464-.248-.338-.478-.687-.69-1.048-.055-.093-.136-.184-.226-.047-.151.226-.387.349-.587.513-.36.297-.704.631-1.106.853-.384.211-.454.46-.421.861.063.768.063 1.541.1 2.312.008.153-.041.252-.159.334-.083.058-.165.12-.24.189-.266.244-.265.245-.405-.073-.324-.731-.647-1.462-.967-2.186-.313.142-.617.296-.9.485-.083.054-.164.01-.228-.006-.066-.017-.015-.12-.012-.184.001-.032.009-.071.028-.094.209-.254.398-.521.559-.816-.722-.418-1.459-.853-2.206-1.272-.169-.095-.144-.141-.017-.238.119-.09.237-.178.327-.308s.239-.175.404-.147c.505.086 1.011.172 1.517.254.374.06.749.114 1.124.172.129.02.21 0 .309-.127.389-.499.833-.948 1.302-1.375.184-.168.379-.328.557-.502-.38-.323-.753-.636-1.122-.954-.347-.3-.793-.405-1.193-.598-.522-.251-1.068-.454-1.602-.681-.541-.23-1.08-.464-1.62-.697-.282-.122-.281-.123-.052-.304.033-.027.08-.046.098-.08.199-.374.525-.247.819-.199.562.092 1.121.203 1.682.306.939.173 1.879.346 2.819.518.108.019.226.007.326.044.25.092.382-.093.456-.24.186-.369.49-.582.832-.772.104-.057.139-.031.203.042.367.422.363.489-.078.84-.118.094-.238.187-.385.303"/><path fill="#d13239" d="M88.70214 18.79325c-.153.205-.364.347-.56.505-.77.625-1.488 1.312-2.274 1.919-.105.081-.159.218-.282.284-1.499-1.907-2.998-3.815-4.498-5.721-.191-.242-.439-.419-.703-.575-.527-.313-1.022-.141-1.499.113-.346.183-.688.38-.986.64-.072.063-.115.058-.184-.016-.369-.392-.372-.39.052-.723 2.34-1.84 4.682-3.678 7.018-5.524.167-.132.263-.141.364.047.028.051.066.101.11.14.149.133.1.21-.04.329-.379.321-.743.661-1.039 1.066-.401.548-.312 1.096-.024 1.653.159.309.385.57.598.841 1.315 1.674 2.631 3.348 3.947 5.022"/><path fill="#d13239" d="M77.86964 30.87675c.629-.558 1.275-1.095 1.909-1.646.455-.397.934-.767 1.367-1.189 1.264.664 2.489 1.399 3.782 2.006.475.222.97.391 1.512.349.44-.034.823-.22 1.18-.46.101-.068.143-.065.221.027.396.465.399.462-.069.83-2.161 1.699-4.323 3.395-6.479 5.1-.172.136-.244.116-.366-.05-.295-.4-.301-.39.088-.711.344-.284.588-.644.754-1.053.137-.338-.065-.873-.406-1.102-.687-.461-1.417-.852-2.128-1.276-.456-.272-.91-.55-1.365-.825"/><path fill="#d13239" d="M86.87934 23.14615c.666-.545 1.353-1.068 1.991-1.644.383-.346.795-.653 1.188-.984.849 1.081 1.697 2.162 2.549 3.24.191.242.438.419.702.575.473.28.936.176 1.396-.027.414-.183.76-.476 1.143-.71.106-.065.146-.055.221.033.325.387.328.384-.077.702-2.347 1.845-4.696 3.689-7.039 5.54-.165.13-.249.157-.387-.037-.258-.367-.275-.361.078-.631.359-.275.657-.599.919-.971.399-.566.283-1.14-.03-1.62-.797-1.221-1.778-2.303-2.654-3.466"/><path fill="#d13239" d="M70.30074 37.47385c.604-.47 1.127-1.035 1.738-1.496.276.969.515 1.95.84 2.901.232.679.749 1.198 1.551 1.098.398-.049.727-.26 1.038-.49.142-.105.211-.134.333.031.289.394.3.386-.081.685-1.633 1.284-3.269 2.566-4.897 3.856-.16.127-.262.159-.363-.041-.004-.007-.011-.013-.015-.02-.248-.314-.246-.312.007-.626.401-.497.624-1.069.662-1.704.027-.47-.042-.94-.127-1.4-.175-.943-.396-1.877-.686-2.794"/><path d="M56.71384 46.73515c.636-.551 1.369-1.095 1.997-1.658 12.26-11.017 25.122-22.081 37.885-32.919-.014 1.033-.108 1.912-.123 2.945-9.361 7.677-18.749 15.749-27.92 23.929-3.378 3.013-6.678 6.104-10.005 9.105-.995.897-2.068 1.559-3.288 2.325-10.375 5.763-12.652-4.868-5.625-12.159-4.94 9.153-2.847 13.965 3.369 10.821 1.062-.537 2.386-1.406 3.71-2.389"/><path d="m132.27714 20.41085.872.016c-.034 1.922.424 3.541 1.363 4.811.898 1.214 2.062 1.804 3.556 1.804 1.223 0 2.443-.502 3.625-1.493 1.229-1.033 2.287-2.652 3.143-4.812.867-2.204 1.325-4.367 1.362-6.427.04-2.221-.419-3.968-1.364-5.192-.907-1.17-2.046-1.74-3.476-1.74-2.298 0-4.163 1.282-5.704 3.92-1.603 2.76-2.446 5.833-2.505 9.129zm5.096 13.684c-2.616 0-4.843-.726-6.618-2.157-1.75-1.415-2.99-3.186-3.688-5.264-.68-2.024-1.007-4.095-.97-6.156.033-1.884.309-3.894.819-5.976.671-2.789 1.68-5.256 2.999-7.331 1.33-2.091 3.026-3.779 5.041-5.016 2.041-1.241 4.367-1.869 6.914-1.869 3.483 0 6.314 1.308 8.415 3.889 2.065 2.536 3.075 5.909 3.001 10.026-.061 3.372-.793 6.673-2.175 9.809-1.4 3.18-3.306 5.673-5.666 7.408-2.38 1.75-5.096 2.637-8.072 2.637"/><path d="M179.11114 33.53345h-6.646l3.39-17.439-6.9 17.439h-6.537l-.345-17.772-3.158 17.772h-6.615l6.336-32.647h9.207l.352 17.83 7.188-17.83h9.321z"/><path d="M205.13014 33.53345h-6.328l-5.818-18.13-3.519 18.13h-6.75l6.343-32.647h6.327l5.836 18.057 3.502-18.057h6.75z"/><path d="M215.72514 33.53345h-7.126l6.344-32.647h7.119z"/><path d="M238.63214 19.79125h4.932l-.894-8.414Zm13.235 13.742h-6.841l-.726-6.82h-8.99l-3.272 6.82h-7.5l16.102-32.647h7.369z"/><path d="M259.98914 33.53345h-7.125l6.342-32.647h7.119z"/><path d="M274.12814 14.39615h1.784c3.424 0 4.821-.293 5.389-.54.792-.341 1.398-.861 1.854-1.59.461-.732.701-1.506.715-2.302.02-1.114-.421-1.575-.755-1.825-.068-.049-.556-.33-2.54-.33h-5.169Zm14.668 19.137h-7.613l-.164-.662c-.416-1.684-1.274-4.398-2.551-8.066-.802-2.289-1.535-3.243-2.009-3.639-.182-.149-.706-.409-2.095-.409h-1.468l-2.482 12.776h-7.125l6.343-32.647h12.265c2.12 0 3.748.261 4.976.8 1.283.573 2.309 1.606 3.057 3.071.719 1.42 1.064 3.138 1.029 5.109-.05 2.817-.822 5.183-2.294 7.031-1.23 1.561-2.973 2.636-5.192 3.205.387.568.757 1.214 1.109 1.933 1.172 2.464 2.468 5.948 3.858 10.365z"/><path d="M130.08144 40.08655h2.902v14.329h-2.902Z"/><path d="M135.74114 54.41475v-14.329h2.808l5.897 9.602v-9.602h2.681v14.329h-2.898l-5.806-9.419v9.419Z"/><path d="M153.41514 54.41475v-11.907h-4.243v-2.422h11.367v2.422h-4.223v11.907Z"/><path d="M162.41714 54.41475v-14.329h10.606v2.422h-7.705v3.182h7.165v2.421h-7.165v3.883h7.985v2.421Z"/><path d="M175.76414 54.41475v-14.329h6.094c1.531 0 2.645.13 3.339.387.696.257 1.251.714 1.667 1.371.417.66.627 1.411.627 2.258 0 1.077-.313 1.964-.943 2.665-.631.7-1.572 1.141-2.826 1.324.624.364 1.138.764 1.542 1.201.406.437.953 1.214 1.641 2.328l1.747 2.795h-3.459l-2.075-3.129c-.743-1.11-1.253-1.811-1.53-2.101-.274-.287-.564-.487-.871-.594-.31-.106-.797-.16-1.464-.16h-.587v5.984Zm2.902-8.265h2.141c1.388 0 2.251-.06 2.599-.177.343-.117.617-.32.81-.607.197-.287.294-.647.294-1.077 0-.484-.13-.871-.387-1.171-.257-.297-.621-.483-1.088-.56-.237-.034-.94-.05-2.111-.05h-2.258Z"/><path d="M190.21714 54.41475v-14.329h2.808l5.896 9.602v-9.602h2.682v14.329h-2.899l-5.806-9.419v9.419Z"/><path d="M217.57614 54.41475h-3.125l-1.238-3.262h-5.747l-1.19 3.262h-3.069l5.563-14.329h3.066zm-5.304-5.684-1.99-5.303-1.935 5.303z"/><path d="M220.85814 54.41475v-11.907h-4.243v-2.422h11.367v2.422h-4.223v11.907Z"/><path d="M229.76044 40.08655h2.901v14.329h-2.901z"/><path d="M234.81914 47.33715c0-1.461.22-2.688.657-3.682.324-.731.771-1.388 1.334-1.968.564-.58 1.181-1.011 1.851-1.294.895-.377 1.925-.567 3.092-.567 2.115 0 3.803.657 5.073 1.968 1.268 1.314 1.901 3.138 1.901 5.476 0 2.318-.63 4.132-1.887 5.44-1.258 1.311-2.942 1.964-5.047 1.964-2.131 0-3.829-.65-5.086-1.954-1.257-1.301-1.888-3.095-1.888-5.383m2.982-.097c0 1.624.377 2.855 1.127 3.696.751.837 1.705 1.257 2.858 1.257 1.158 0 2.105-.417 2.849-1.247.74-.834 1.111-2.082 1.111-3.746 0-1.644-.36-2.871-1.085-3.678-.72-.811-1.677-1.215-2.875-1.215-1.193 0-2.157.41-2.888 1.228-.73.82-1.097 2.055-1.097 3.705"/><path d="M250.98614 54.41475v-14.329h2.808l5.896 9.602v-9.602h2.682v14.329h-2.899l-5.806-9.419v9.419Z"/><path d="M278.34514 54.41475h-3.125l-1.238-3.262h-5.746l-1.191 3.262h-3.069l5.564-14.329h3.065zm-5.303-5.684-1.991-5.303-1.935 5.303z"/><path d="M279.96914 54.41475v-14.208h2.902v11.787h7.184v2.421Z"/></svg>