<?xml version="1.0" encoding="UTF-8" standalone="no"?>
<!-- Created with Inkscape (http://www.inkscape.org/) -->

<svg
   xmlns:dc="http://purl.org/dc/elements/1.1/"
   xmlns:cc="http://creativecommons.org/ns#"
   xmlns:rdf="http://www.w3.org/1999/02/22-rdf-syntax-ns#"
   xmlns:svg="http://www.w3.org/2000/svg"
   xmlns="http://www.w3.org/2000/svg"
   xmlns:sodipodi="http://sodipodi.sourceforge.net/DTD/sodipodi-0.dtd"
   xmlns:inkscape="http://www.inkscape.org/namespaces/inkscape"
   width="244.2981"
   height="66.460007"
   viewBox="0 0 64.637202 17.58421"
   version="1.1"
   id="svg8"
   inkscape:version="0.92.0 r15299"
   sodipodi:docname="onejet.svg">
  <defs
     id="defs2" />
  <sodipodi:namedview
     id="base"
     pagecolor="#ffffff"
     bordercolor="#666666"
     borderopacity="1.0"
     inkscape:pageopacity="0.0"
     inkscape:pageshadow="2"
     inkscape:zoom="3.3099723"
     inkscape:cx="121.14906"
     inkscape:cy="32.230006"
     inkscape:document-units="mm"
     inkscape:current-layer="layer1"
     showgrid="false"
     fit-margin-top="0"
     fit-margin-left="0"
     fit-margin-right="0"
     fit-margin-bottom="0"
     units="px"
     inkscape:window-width="1280"
     inkscape:window-height="744"
     inkscape:window-x="-4"
     inkscape:window-y="-4"
     inkscape:window-maximized="1" />
  <metadata
     id="metadata5">
    <rdf:RDF>
      <cc:Work
         rdf:about="">
        <dc:format>image/svg+xml</dc:format>
        <dc:type
           rdf:resource="http://purl.org/dc/dcmitype/StillImage" />
        <dc:title></dc:title>
      </cc:Work>
    </rdf:RDF>
  </metadata>
  <g
     inkscape:label="Layer 1"
     inkscape:groupmode="layer"
     id="layer1"
     transform="translate(257.32783,-281.89569)">
    <g
       id="g69"
       transform="translate(0.26458286,-0.26459005)">
      <polygon
         transform="matrix(0.26458333,0,0,0.26458333,-257.32775,282.42489)"
         points="233.9858,8.8359 242.2978,36.3279 234.6258,64.4599 218.6418,64.4599 227.5928,36.6479 218.6418,8.8359 "
         id="Fill-105"
         style="fill:#1460a7;fill-rule:evenodd;stroke:none;stroke-width:1" />
      <path
         id="Fill-106"
         d="m -246.61379,291.61887 v -5.19906 c 0,0 0,-3.99495 -3.99495,-3.99495 h -2.72388 c 0,0 -3.99521,0 -3.99521,3.99495 v 5.19906 c 0,0 0,3.99494 3.99521,3.99494 h 2.72388 c 0,0 3.99495,0 3.99495,-3.99494 z m -2.63314,-0.0987 c 0,2.17911 -2.1791,2.17911 -2.1791,2.17911 h -1.18031 c -2.17911,0 -2.17911,-2.17911 -2.17911,-2.17911 v -4.8043 c 0,-2.17911 2.17911,-2.17911 2.17911,-2.17911 h 1.18031 c 2.1791,0 2.1791,2.17911 2.1791,2.17911 z"
         inkscape:connector-curvature="0"
         style="fill:#1460a7;fill-rule:evenodd;stroke:none;stroke-width:0.26458332" />
      <polygon
         transform="matrix(0.26458333,0,0,0.26458333,-257.32775,282.42489)"
         points="87.2333,49.0522 87.2333,0.7962 77.0773,0.7962 77.0773,37.3052 56.7653,0.7962 43.2233,0.7962 43.2233,49.0522 53.3793,49.0522 53.3793,12.2532 73.6923,49.0522 "
         id="Fill-108"
         style="fill:#1460a7;fill-rule:evenodd;stroke:none;stroke-width:1" />
      <polygon
         transform="matrix(0.26458333,0,0,0.26458333,-257.32775,282.42489)"
         points="91.0989,49.0522 123.5989,49.0522 123.5989,40.6912 101.2549,40.6912 101.2549,28.5032 122.2449,28.5032 122.2449,20.3782 101.2549,20.3782 101.2549,8.8682 123.5989,8.8682 123.5989,0.7962 91.0989,0.7962 "
         id="Fill-109"
         style="fill:#1460a7;fill-rule:evenodd;stroke:none;stroke-width:1" />
      <polygon
         transform="matrix(0.26458333,0,0,0.26458333,-257.32775,282.42489)"
         points="144.5886,49.0522 177.0886,49.0522 177.0886,40.6912 154.7446,40.6912 154.7446,28.5032 175.7346,28.5032 175.7346,20.3782 154.7446,20.3782 154.7446,8.8682 177.0886,8.8682 177.0886,0.7962 144.5886,0.7962 "
         id="Fill-110"
         style="fill:#8ac1ea;fill-rule:evenodd;stroke:none;stroke-width:1" />
      <path
         id="Fill-111"
         d="m -222.65495,282.63555 h 2.68711 v 13.24266 c 0,0 0.35824,1.07474 -2.68711,3.4036 l -1.79149,-1.6121 c 0,0 1.61237,-0.89588 1.79149,-1.97062 0.17912,-1.075 0,-13.06354 0,-13.06354"
         inkscape:connector-curvature="0"
         style="fill:#8ac1ea;fill-rule:evenodd;stroke:none;stroke-width:0.26458332" />
      <polygon
         transform="matrix(0.26458333,0,0,0.26458333,-257.32775,282.42489)"
         points="179.2051,8.8682 191.3931,8.8682 191.3931,49.0522 202.2261,49.0522 202.2261,8.8682 214.3011,8.8682 214.3011,0.7962 179.2051,0.7962 "
         id="Fill-113"
         style="fill:#8ac1ea;fill-rule:evenodd;stroke:none;stroke-width:1" />
    </g>
  </g>
</svg>
