<?xml version="1.0" encoding="utf-8"?>
<!-- Generator: Adobe Illustrator 27.0.1, SVG Export Plug-In . SVG Version: 6.00 Build 0)  -->
<svg version="1.1" id="Layer_1" xmlns="http://www.w3.org/2000/svg" xmlns:xlink="http://www.w3.org/1999/xlink" x="0px" y="0px"
	 viewBox="0 0 594.4 151.1" style="enable-background:new 0 0 594.4 151.1;" xml:space="preserve">
<style type="text/css">
	.st0{fill:#2E6F4F;}
</style>
<g>
	<path class="st0" d="M159.8,3.4h-136c-11.6,0-21.1,9.4-21.1,21.1V126c0,11.6,9.4,21.1,21.1,21.1h136c11.6,0,21.1-9.4,21.1-21.1
		V24.5C180.9,12.9,171.4,3.4,159.8,3.4z M103.5,139.6c0,0,21.9-21.7,16.4-28.3c-0.3-0.4-0.6-0.7-1-1c-1.2-0.9-2.9-0.9-4.2,0
		c-12.2,8.9-29.2,16.5-29.2,16.5s13.5-8.2,22.1-16.7c0.8-0.8,0.2-2.3-0.9-2.3c-12.8,0.2-29.6,4.8-29.6,4.8s18.5-7.1,34.6-9.8
		c1.4-0.2,2.5-1.2,2.8-2.6c0.2-0.8,0.2-1.5,0.1-2.2c-0.8-4.4-11.5-6.8-21.7-7.6c-3.2-0.2-6.5,0.5-9.3,2.2c-10.7,6.1-19,10.4-19,10.4
		s44.9-31.4,37.6-45c-1.1-2-2.9-3.7-5.3-5.1C72.5,65.7,37.4,74.3,37.4,74.3s30.8-12.1,48.1-25.7c-22.4-5.4-58.3-2.2-58.3-2.2
		s37.3-7.3,66.7-6.1c1.9-2.6,3.1-5.2,3.1-7.8c0-10.3-28.5-19.9-48.6-23.3c0,0,74.7-1.9,74.7,17.8c0,0,0.1,4.7-10.3,14.7
		c-0.3,0.3-0.6,0.6-0.9,0.8c8.1,2,14,5.4,16,10.8c1.9,5.2-5.3,12.8-15.5,20.5l0,0c0,0,0,0,0,0c-1.8,1.4-3.7,2.8-5.7,4.1
		c-4,2.9-8.2,6.1-11.2,8.3c-0.9,0.7-0.3,2.1,0.8,1.9c12.4-1.7,30.9-3.1,32.2,4c0,0,0.5,2.6-4.3,9c-0.1,0.2-0.3,0.4-0.4,0.5
		c4.7,0.3,8.3,1.5,10,4.3C138.4,113.7,103.5,139.6,103.5,139.6z M152,98.2c0,0,13.2-15.2,9.7-19.6c-0.1-0.2-0.3-0.4-0.5-0.5
		c-0.8-0.7-1.9-0.7-2.7,0c-6.8,5.8-15.7,10-15.7,10s6.1-4.7,10.7-10.2c0.5-0.6,0.1-1.4-0.7-1.4c-7.3,0-15.4,2.2-15.4,2.2
		s9.4-4.5,18.7-6.3c0.9-0.2,1.5-0.8,1.7-1.7c0.1-0.5,0.1-1,0-1.5c-0.8-3.7-12.6-5-19.4-4.9c0,0,27.2-6.2,28.7,0.9c0,0,0.4,1.7-2.2,6
		c-0.1,0.1-0.1,0.2-0.2,0.4c2.8,0.2,5.1,0.9,6,2.8C173.5,80.8,152,98.2,152,98.2z"/>
	<polygon class="st0" points="282,92.6 262.4,92.6 248,147 267.6,147 	"/>
	<polygon class="st0" points="425.3,92.6 405.8,92.6 391.4,147 410.9,147 	"/>
	<path class="st0" d="M228.3,147H247l-3.8-54.4h-23.6L187.5,147h21.4l5-8.4h13.9L228.3,147z M219.8,128.5l6.4-10.9l0.8,10.9H219.8z"
		/>
	<path class="st0" d="M388.5,83.5h26.1L409.3,7h-32.9l-44.9,76.5h29.9l6.9-11.8h19.5L388.5,83.5z M376.6,57.4l9-15.3l1.1,15.3H376.6
		z"/>
	<polygon class="st0" points="363.5,135.4 374.8,92.6 355.9,92.6 341.5,147 356.6,147 360.4,147 389.4,147 392.5,135.4 	"/>
	<polygon class="st0" points="522.8,104.3 525.9,92.6 479.9,92.6 465.3,147 513.6,147 516.7,135.4 488.3,135.4 491.2,124.7 
		504,124.7 507.1,113 494.3,113 496.6,104.3 	"/>
	<polygon class="st0" points="457.9,92.6 452.7,112.5 446.4,92.6 427.3,92.6 412.9,147 432.4,147 438.6,123.8 446.3,147 463.1,147 
		477.5,92.6 	"/>
	<path class="st0" d="M332.2,107.5c0-11.6-10.9-14.9-17.7-14.9c-6.8,0-30.5,0-30.5,0L269.6,147h19.6l6.1-23.2l11,23.2h19.1
		l-10.9-24.5C316.6,122.5,332.2,119.1,332.2,107.5z M307.6,114.5h-9.8l0,0l2.9-10.9h6.9c3,0,5.4,2.4,5.4,5.4
		C313.1,112.1,310.6,114.5,307.6,114.5z"/>
	<path class="st0" d="M502.7,27.9c0-16.3-15.3-20.9-24.9-20.9c-9.6,0-42.9,0-42.9,0l-20.3,76.5h27.5l8.6-32.6l15.5,32.6h26.9
		L477.9,49C480.7,49,502.7,44.2,502.7,27.9z M468.1,37.8h-13.8l0,0l4.1-15.3h9.7c4.2,0,7.7,3.4,7.7,7.7
		C475.7,34.4,472.3,37.8,468.1,37.8z"/>
	<path class="st0" d="M518.4,126.4h18.2c0,0-3.2,10.4,6.1,10.4c3,0,5.1-2.1,5.1-5c0-7.8-23.2-6.9-23.2-24.1
		c0-6.2,6.7-16.4,26.1-16.4c18.1,0,22.1,8.3,22.1,19.2h-18.1c0,0,1.2-8.1-5-8.1c-2.2,0-4.6,0.6-4.6,3.7c0,6.4,22.9,6,22.9,23.3
		c0,14.8-16.7,18.3-28.1,18.3C532.4,147.7,512.7,144.6,518.4,126.4z"/>
	<polygon class="st0" points="591.7,7 559.6,7 533.7,38.7 542.1,7 514.5,7 494.3,83.5 521.8,83.5 532,44.9 544.5,83.5 572.8,83.5 
		559,44.7 	"/>
	<polygon class="st0" points="330.9,83.5 334.6,67.4 299.7,67.4 343.9,20.2 347.4,7 279.6,7 275.4,21.9 304.9,21.9 263.4,65.6 
		259,83.5 	"/>
	<path class="st0" d="M238,4.5c-30.2,0-36.1,10.7-38.9,19.1c-2.8,8.4-1.9,5.8-9.2,31.2c-7.3,25.4,18.6,30,31.7,30
		c34,0,38.8-13.5,40.8-20.4c1.9-7,4.8-15.8,8.5-32.7C274.5,14.7,263.2,4.5,238,4.5z M243.7,29.5c-1.2,5-7.2,27.3-8.9,32.4
		c-1.7,5.1-6.1,7.7-11.2,7.7c-6,0-9-6.8-7.4-11.7s7-24.6,8.8-30.3c1.9-5.7,5.5-8.6,10.9-8.6S244.9,24.5,243.7,29.5z"/>
</g>
</svg>
