<svg xmlns="http://www.w3.org/2000/svg" xml:space="preserve" overflow="visible" height="193.67" viewBox="0 0 499.99994 193.66631" width="500" version="1.1" enable-background="new 0 0 144.542 55.986">
<title>OzJet Airlines</title>
<path fill="#0079db" d="m69.385,137.49c-3.6875,11.011-6.4998,17.943-8.4231,20.804-1.9302,2.8573-4.5973,4.2133-8.0253,4.0784-3.352-0.12799-5.0539-1.4805-5.1231-4.0403-0.07264-2.5529,1.7054-9.2568,5.3445-20.101l29.151-87.022c3.2171-9.5958,5.8426-15.342,7.8939-17.23,2.0444-1.8922,4.3828-2.7881,7.0118-2.6809,3.1029,0.12453,4.7529,1.4044,4.9432,3.8466,0.19372,2.4387-1.1658,8.0011-4.0784,16.687l-28.697,85.659zm67.585-54.194c6.4134-19.147,10.44-32.575,12.083-40.296,1.6431-7.7106,1.1035-14.906-1.6154-21.578-2.7189-6.6728-7.548-11.799-14.48-15.38-6.9392-3.5699-15.442-5.5658-25.532-5.9671-10.63-0.42203-20.52,0.94782-29.67,4.0922-9.1496,3.1513-17.147,7.8351-23.983,14.041-6.8388,6.2162-12,13.186-15.494,20.904-3.4972,7.7244-8.3713,20.959-14.65,39.694l-10.609,31.694c-6.4166,19.16-10.45,32.58-12.09,40.29-1.6397,7.7071-1.0966,14.902,1.6189,21.578,2.7155,6.6693,7.5549,11.775,14.504,15.314,6.9426,3.5353,15.466,5.507,25.55,5.9048,10.627,0.42549,20.51-0.90631,29.628-3.9608,9.1219-3.0683,17.106-7.7278,23.958-13.982,6.8527-6.2542,12.021-13.242,15.511-20.97,3.4938-7.7175,8.3782-20.952,14.657-39.687l10.62-31.693z"/>
<path d="M340.25,5.7961,302.16,127.36c-5.6938,18.178-9.5647,29.874-11.595,35.09-2.0271,5.213-5.303,9.8968-9.8172,14.069-4.5212,4.1787-9.7376,7.0256-15.66,8.5546-5.9325,1.5324-14.363,2.245-25.304,2.1482l-24.737-0.21101,8.3124-31.102c2.9126,0.27328,6.6762-0.23869,8.0184-0.22831,3.5491,0.0311,6.5967-0.76794,9.1669-2.4076,2.5736-1.6431,4.3897-3.6529,5.4482-6.0328,1.0585-2.3765,2.6705-7.0014,4.8221-13.871l40.106-128,49.328,0.42548z"/>
<path d="m339.6,35.127,68.458,0.58807-9.4332,30.04-27.546-0.23868-8.9732,28.576,25.726,0.22139-8.9732,28.576-25.726-0.21793-10.412,33.163,30.178,0.26289-9.4298,30.04-71.09-0.61573,47.222-150.4z"/>
<path d="m500,35.898-9.1669,30.043-23.626-0.21101-36.73,120.38-39.77-0.34938,36.73-120.38-23.623-0.21101,9.1634-30.047,87.023,0.77486z"/>
<polyline points="42.634,18.97,44.809,10.155,65.623,10.155,37.918,53.809,34.992,53.8,35.146,44.155,51.487,19.123" fill="#0079db" transform="matrix(3.4591972,0,0,3.4591972,6.943063e-4,-0.00153318)"/>
<polyline points="63.153,44.993,60.978,53.809,40.165,53.809,67.869,10.155,76.821,10.341,54.299,44.841" transform="matrix(3.4591972,0,0,3.4591972,6.943063e-4,-0.00153318)"/>
</svg>
