<?xml version="1.0" encoding="UTF-8" standalone="no"?>
<!-- Created with Inkscape (http://www.inkscape.org/) -->
<svg
   xmlns:svg="http://www.w3.org/2000/svg"
   xmlns="http://www.w3.org/2000/svg"
   version="1.0"
   width="780"
   height="337.14285"
   id="svg2624">
  <defs
     id="defs2626">
    <clipPath
       id="clipPath117">
      <path
         d="M 500.98,506.12 L 604.126,506.12 L 604.126,551.772 L 500.98,551.772 L 500.98,506.12 z"
         id="path119" />
    </clipPath>
    <clipPath
       id="clipPath137">
      <path
         d="M 500.98,506.12 L 604.126,506.12 L 604.126,551.772 L 500.98,551.772 L 500.98,506.12 z"
         id="path139" />
    </clipPath>
  </defs>
  <g
     transform="translate(351.42856,-223.50504)"
     id="layer1">
    <g
       transform="matrix(7.3439971,0,0,-7.3439971,-4022.2334,4277.8385)"
       id="g113">
      <g
         clip-path="url(#clipPath117)"
         id="g115">
        <path
           d="M 564.32,542.633 L 561.279,542.603 L 559.635,534.528 C 559.635,534.528 559.366,532.215 557.447,532.2 C 555.528,532.182 554.697,532.175 554.697,532.175 L 556.806,542.567 L 555.014,542.55 L 555.678,545.829 L 557.475,545.847 L 557.742,547.174 C 558.383,550.329 559.675,551.489 563.997,551.726 C 564.602,551.759 565.264,551.773 565.994,551.772 L 565.672,550.181 L 565.301,548.36 C 565.056,548.438 564.781,548.486 564.496,548.483 C 562.522,548.467 562.395,548.102 562.043,546.384 L 561.947,545.887 L 564.987,545.914 L 564.32,542.633"
           id="path121"
           style="fill:#ee3224;fill-opacity:1;fill-rule:nonzero;stroke:none" />
      </g>
    </g>
    <path
       d="M 27.775425,358.3398 C 27.775425,358.3398 25.572226,369.99472 15.305318,370.01675 C 5.0163777,370.05347 -5.3313143,369.63487 -5.3313143,369.63487 L 12.323655,285.96471 C 12.323655,285.96471 15.018902,276.60111 23.038547,276.56439 C 31.087568,276.5497 44.600522,276.49829 44.600522,276.49829 L 27.775425,358.3398"
       id="path123"
       style="fill:#ee3224;fill-opacity:1;fill-rule:nonzero;stroke:none" />
    <path
       d="M 152.74088,357.93588 C 152.74088,357.93588 150.53034,369.58346 140.25608,369.60549 C 129.9598,369.64955 119.6268,369.23095 119.6268,369.23095 L 137.28911,285.56079 C 137.28911,285.56079 139.94029,276.19719 147.97463,276.16781 C 156.03099,276.13844 169.52926,276.10172 169.52926,276.10172 L 152.74088,357.93588"
       id="path125"
       style="fill:#ee3224;fill-opacity:1;fill-rule:nonzero;stroke:none" />
    <path
       d="M 222.6337,297.69307 C 211.80865,297.72979 207.99711,300.73348 203.53931,322.02373 C 198.97869,343.80603 200.99829,346.11204 212.51367,346.07532 L 259.11133,345.29686 C 255.90201,354.02887 251.75265,359.60297 246.07574,363.12074 C 237.87249,368.46717 226.53336,369.39986 210.06078,369.44392 C 174.11926,369.57611 167.86951,358.76575 175.53665,322.11186 C 182.14624,290.56205 191.87704,274.40525 229.96301,274.28775 C 252.68534,274.21431 268.85682,276.21922 268.90823,297.17165 L 222.6337,297.69307"
       id="path127"
       style="fill:#ee3224;fill-opacity:1;fill-rule:nonzero;stroke:none" />
    <path
       d="M -51.378176,298.58169 C -62.195884,298.61107 -66.000075,301.62945 -70.457881,322.91236 C -75.018503,344.69465 -73.013592,347.00801 -61.512892,346.9566 L -14.900543,346.17079 C -18.102525,354.91749 -22.251884,360.49893 -27.921449,364.00936 C -36.124694,369.34845 -47.478514,370.28848 -63.951099,370.33989 C -99.885277,370.46474 -106.12767,359.66172 -98.453198,322.99314 C -91.865633,291.45802 -82.120148,275.28653 -44.026835,275.16903 C -21.319196,275.09559 -5.1403704,277.10785 -5.0816184,298.06027 L -51.378176,298.58169"
       id="path129"
       style="fill:#ee3224;fill-opacity:1;fill-rule:nonzero;stroke:none" />
    <path
       d="M -135.97368,288.96106 C -138.75705,278.77493 -148.78161,277.42364 -160.27497,277.4677 C -192.33151,277.56317 -199.72692,295.11533 -206.02072,325.23306 C -211.56544,351.64942 -212.89471,371.64712 -179.96422,371.5443 C -168.27258,371.50758 -157.63113,370.47942 -150.9995,360.27127 L -150.05212,357.56868 L -153.2027,370.39864 L -153.0705,370.53818 L -113.52308,370.40598 C -113.52308,370.40598 -120.12533,364.57485 -120.02252,359.57359 C -119.9197,354.58701 -119.50109,353.47073 -119.50109,353.47073 C -119.50109,353.47073 -107.34678,296.3124 -105.90736,289.20341 C -104.51934,282.09442 -99.50339,278.3196 -99.50339,278.3196 L -134.11565,278.42976 L -135.72398,289.55592 L -135.97368,288.96106 z M -143.51596,325.02008 C -146.86483,340.99328 -151.12435,353.0154 -165.98125,353.05212 C -179.09763,353.09618 -179.22248,344.2687 -175.22734,325.1229 C -170.74016,303.70046 -168.20648,297.74448 -152.7694,297.69307 C -140.00553,297.64166 -139.12425,303.95015 -143.51596,325.02008"
       id="path131"
       style="fill:#ee3224;fill-opacity:1;fill-rule:nonzero;stroke:none" />
    <g
       transform="matrix(7.3439971,0,0,-7.3439971,-4022.2334,4277.8385)"
       id="g133">
      <g
         clip-path="url(#clipPath137)"
         id="g135">
        <path
           d="M 514.235,544.677 C 512.644,544.672 511.195,544.53 510.291,543.141 L 510.163,542.772 L 510.593,544.518 L 510.574,544.539 L 510.416,544.458 L 510.445,544.599 L 508.084,544.575 C 508.084,544.575 506.03,544.463 505.486,542.047 C 505.147,540.539 504.787,538.491 504.369,536.398 C 503.534,532.205 502.899,529.389 502.656,528.519 C 502.172,526.778 500.98,526.552 500.98,526.552 L 506.729,526.604 L 508.187,533.474 L 508.213,533.512 L 508.245,533.43 C 508.628,532.043 509.989,531.86 511.555,531.865 C 515.92,531.88 516.926,534.268 517.782,538.369 C 518.539,541.967 518.72,544.691 514.235,544.677 z M 513.591,538.354 C 512.979,535.437 512.635,534.625 510.534,534.619 C 508.795,534.612 508.675,535.471 509.275,538.341 C 509.73,540.514 510.312,542.152 512.332,542.158 C 514.116,542.165 514.136,540.961 513.591,538.354"
           id="path141"
           style="fill:#ee3224;fill-opacity:1;fill-rule:nonzero;stroke:none" />
        <path
           d="M 557.813,506.12 C 557.813,506.12 628.078,524.597 581.721,549.758 C 581.339,549.966 646.215,528.436 557.813,506.12"
           id="path143"
           style="fill:#0060a9;fill-opacity:1;fill-rule:nonzero;stroke:none" />
      </g>
    </g>
    <path
       d="M 57.782997,459.48133 C 60.683876,447.47389 65.428098,443.70642 82.238508,443.70642 C 92.336504,443.70642 97.550742,445.89493 94.679239,459.48133 L 57.782997,459.48133 z M 66.639858,498.44123 C 54.27991,498.44123 52.730327,492.02258 56.130598,476.01266 L 122.99769,476.01266 L 124.04788,470.95265 C 131.95737,433.69655 120.0454,424.92782 89.442969,424.1567 C 37.638413,422.82009 34.759566,435.79694 27.276033,470.95265 C 20.020164,505.08755 26.754609,516.8967 62.784259,516.8967 C 76.018142,516.8967 96.42711,516.77919 96.42711,516.77919 C 95.531142,516.77919 113.55331,519.65069 118.16534,498.32373 C 118.16534,498.32373 75.863918,498.44123 66.639858,498.44123"
       id="path145"
       style="fill:#0060a9;fill-opacity:1;fill-rule:nonzero;stroke:none" />
    <path
       d="M -30.837016,516.97014 L 6.4558011,516.97014 C 6.4558011,516.97014 -0.44021219,513.81956 1.4912591,504.94067 C 2.7838026,499.24907 18.514644,425.56675 18.514644,425.56675 C 18.514644,425.56675 6.4998651,425.56675 -2.4084034,425.56675 C -11.287296,425.56675 -13.615343,437.11885 -13.615343,437.11885 L -22.119692,475.87313 C -27.671754,496.34085 -35.162631,498.99203 -53.610751,498.55139 C -63.348892,498.30904 -64.318299,490.64925 -62.614492,481.80708 L -50.665809,425.56675 C -50.665809,425.56675 -62.07838,425.56675 -70.626793,425.56675 C -79.211925,425.56675 -82.531412,435.45911 -82.531412,435.45911 L -94.032112,488.76184 C -98.21819,508.43641 -91.035761,517.9983 -70.825081,517.9983 C -57.06243,517.9983 -35.904374,517.16108 -28.016921,503.6775 L -30.837016,516.97014"
       id="path147"
       style="fill:#0060a9;fill-opacity:1;fill-rule:nonzero;stroke:none" />
    <path
       d="M -117.04085,505.6971 C -117.04085,505.6971 -119.64063,517.00686 -131.17071,517.00686 C -142.73016,517.00686 -149.38382,517.00686 -149.38382,517.00686 L -124.58314,406.79549 C -124.58314,406.79549 -120.94786,393.92146 -109.41044,393.92146 C -97.88771,393.92146 -91.711409,393.92146 -91.711409,393.92146 L -117.04085,505.6971"
       id="path149"
       style="fill:#0060a9;fill-opacity:1;fill-rule:nonzero;stroke:none" />
    <path
       d="M -216.082,435.89241 C -208.36346,425.27299 -192.91903,424.60468 -182.34368,424.60468 C -157.27862,424.60468 -147.30547,435.94382 -153.22473,463.78491 L -157.64581,484.68592 C -162.8013,508.88439 -177.34242,518.28471 -199.45519,518.28471 C -210.97058,518.28471 -226.93643,517.61641 -230.87281,507.99577 C -231.16657,507.27606 -231.48971,504.90395 -231.5558,505.6971 L -233.43587,516.99951 L -269.15707,517.19046 C -269.15707,517.19046 -263.43609,514.58334 -260.9171,505.37396 C -258.4128,496.12053 -238.12134,405.58373 -238.12134,405.58373 C -238.12134,405.58373 -236.09439,394.14913 -223.22037,394.14913 C -210.37571,394.14913 -205.749,394.14913 -205.749,394.14913 L -216.082,435.89241 z M -196.7526,443.82392 C -212.57891,443.39063 -219.37211,450.72728 -223.77851,471.4447 C -227.53129,489.20983 -223.98414,499.21969 -208.16517,499.21969 C -195.4674,499.21969 -188.88718,490.7741 -184.79657,471.4447 C -181.51381,456.13246 -182.82104,444.19847 -196.7526,443.82392"
       id="path151"
       style="fill:#0060a9;fill-opacity:1;fill-rule:nonzero;stroke:none" />
  </g>
</svg>
