<?xml version="1.0" encoding="UTF-8" standalone="no"?>
<svg
   xmlns:dc="http://purl.org/dc/elements/1.1/"
   xmlns:cc="http://creativecommons.org/ns#"
   xmlns:rdf="http://www.w3.org/1999/02/22-rdf-syntax-ns#"
   xmlns:svg="http://www.w3.org/2000/svg"
   xmlns="http://www.w3.org/2000/svg"
   xmlns:xlink="http://www.w3.org/1999/xlink"
   xmlns:sodipodi="http://sodipodi.sourceforge.net/DTD/sodipodi-0.dtd"
   xmlns:inkscape="http://www.inkscape.org/namespaces/inkscape"
   width="230"
   height="46.7444"
   version="1.1"
   id="svg161"
   sodipodi:docname="method-draw-image.svg"
   inkscape:version="1.0.1 (3bc2e813f5, 2020-09-07)">
  <metadata
     id="metadata165">
    <rdf:RDF>
      <cc:Work
         rdf:about="">
        <dc:format>image/svg+xml</dc:format>
        <dc:type
           rdf:resource="http://purl.org/dc/dcmitype/StillImage" />
        <dc:title></dc:title>
      </cc:Work>
    </rdf:RDF>
  </metadata>
  <sodipodi:namedview
     pagecolor="#ffffff"
     bordercolor="#666666"
     borderopacity="1"
     objecttolerance="10"
     gridtolerance="10"
     guidetolerance="10"
     inkscape:pageopacity="0"
     inkscape:pageshadow="2"
     inkscape:window-width="1920"
     inkscape:window-height="1012"
     id="namedview163"
     showgrid="false"
     fit-margin-top="0"
     fit-margin-left="0"
     fit-margin-right="0"
     fit-margin-bottom="0"
     inkscape:zoom="2.6879607"
     inkscape:cx="203.5"
     inkscape:cy="-1.9584007"
     inkscape:window-x="-8"
     inkscape:window-y="-8"
     inkscape:window-maximized="1"
     inkscape:current-layer="svg161" />
  <defs
     id="defs102">
    <clipPath
       id="clip0">
      <rect
         id="svg_1"
         x="0"
         y="50.958401"
         fill="#ffffff"
         height="46.958302"
         width="230" />
    </clipPath>
    <clipPath
       id="clip1">
      <rect
         id="svg_2"
         x="234"
         y="51"
         fill="#ffffff"
         height="35.320801"
         width="173" />
    </clipPath>
    <clipPath
       id="clip2">
      <rect
         id="svg_3"
         fill="#ffffff"
         height="46.958302"
         width="230"
         x="0"
         y="0" />
    </clipPath>
    <clipPath
       id="clip3">
      <rect
         id="svg_4"
         x="234"
         y="0"
         fill="#ffffff"
         height="35.320801"
         width="173" />
    </clipPath>
    <linearGradient
       y2="0.68676001"
       x2="0.73866999"
       y1="0.42759001"
       x1="0.40619001"
       id="paint0_linear">
      <stop
         stop-color="#FAAF4C"
         id="stop10" />
      <stop
         stop-color="#F79C2E"
         offset="0.5944"
         id="stop12" />
      <stop
         stop-color="#F6921E"
         offset="1"
         id="stop14" />
    </linearGradient>
    <linearGradient
       y2="-0.34024999"
       x2="0.25237"
       y1="1.55984"
       x1="0.81294"
       id="paint1_linear">
      <stop
         stop-color="#72A4D7"
         id="stop17" />
      <stop
         stop-color="#1A1F4A"
         offset="1"
         id="stop19" />
    </linearGradient>
    <linearGradient
       y2="0.01541"
       x2="0.02682"
       y1="1.05023"
       x1="1.4663"
       id="paint2_linear">
      <stop
         stop-color="#72A4D7"
         id="stop22" />
      <stop
         stop-color="#1A1F4A"
         offset="1"
         id="stop24" />
    </linearGradient>
    <linearGradient
       y2="0.056899998"
       x2="0.50019997"
       y1="1.50177"
       x1="0.50019997"
       id="paint3_linear">
      <stop
         stop-color="#72A4D7"
         id="stop27" />
      <stop
         stop-color="#1A1F4A"
         offset="1"
         id="stop29" />
    </linearGradient>
    <linearGradient
       y2="0.056899998"
       x2="0.4998"
       y1="1.50177"
       x1="0.4998"
       id="paint4_linear">
      <stop
         stop-color="#72A4D7"
         id="stop32" />
      <stop
         stop-color="#1A1F4A"
         offset="1"
         id="stop34" />
    </linearGradient>
    <linearGradient
       y2="0.056740001"
       x2="0.50028998"
       y1="1.4975801"
       x1="0.50028998"
       id="paint5_linear">
      <stop
         stop-color="#72A4D7"
         id="stop37" />
      <stop
         stop-color="#1A1F4A"
         offset="1"
         id="stop39" />
    </linearGradient>
    <linearGradient
       y2="0.056899998"
       x2="0.50048"
       y1="1.50177"
       x1="0.50048"
       id="paint6_linear">
      <stop
         stop-color="#72A4D7"
         id="stop42" />
      <stop
         stop-color="#1A1F4A"
         offset="1"
         id="stop44" />
    </linearGradient>
    <linearGradient
       y2="0.056899998"
       x2="0.49998999"
       y1="1.50177"
       x1="0.49998999"
       id="paint7_linear">
      <stop
         stop-color="#72A4D7"
         id="stop47" />
      <stop
         stop-color="#1A1F4A"
         offset="1"
         id="stop49" />
    </linearGradient>
    <linearGradient
       y2="0.056899998"
       x2="0.50028002"
       y1="1.50177"
       x1="0.50028002"
       id="paint8_linear">
      <stop
         stop-color="#72A4D7"
         id="stop52" />
      <stop
         stop-color="#1A1F4A"
         offset="1"
         id="stop54" />
    </linearGradient>
    <linearGradient
       y2="0.056820001"
       x2="0.50084001"
       y1="1.49967"
       x1="0.50084001"
       id="paint9_linear">
      <stop
         stop-color="#72A4D7"
         id="stop57" />
      <stop
         stop-color="#1A1F4A"
         offset="1"
         id="stop59" />
    </linearGradient>
    <linearGradient
       y2="0.05821"
       x2="0.49965"
       y1="1.50106"
       x1="0.49965"
       id="paint10_linear">
      <stop
         stop-color="#72A4D7"
         id="stop62" />
      <stop
         stop-color="#1A1F4A"
         offset="1"
         id="stop64" />
    </linearGradient>
    <linearGradient
       y2="0.056899998"
       x2="0.49893001"
       y1="1.50177"
       x1="0.49893001"
       id="paint11_linear">
      <stop
         stop-color="#72A4D7"
         id="stop67" />
      <stop
         stop-color="#1A1F4A"
         offset="1"
         id="stop69" />
    </linearGradient>
    <linearGradient
       y2="0.056899998"
       x2="0.50001001"
       y1="1.50177"
       x1="0.50001001"
       id="paint12_linear">
      <stop
         stop-color="#72A4D7"
         id="stop72" />
      <stop
         stop-color="#1A1F4A"
         offset="1"
         id="stop74" />
    </linearGradient>
    <linearGradient
       y2="0.05821"
       x2="0.49947"
       y1="1.50106"
       x1="0.49947"
       id="paint13_linear">
      <stop
         stop-color="#72A4D7"
         id="stop77" />
      <stop
         stop-color="#1A1F4A"
         offset="1"
         id="stop79" />
    </linearGradient>
    <linearGradient
       y2="0.056899998"
       x2="0.49954"
       y1="1.50177"
       x1="0.49954"
       id="paint14_linear">
      <stop
         stop-color="#72A4D7"
         id="stop82" />
      <stop
         stop-color="#1A1F4A"
         offset="1"
         id="stop84" />
    </linearGradient>
    <linearGradient
       y2="0.056899998"
       x2="0.50063002"
       y1="1.50177"
       x1="0.50063002"
       id="paint15_linear">
      <stop
         stop-color="#72A4D7"
         id="stop87" />
      <stop
         stop-color="#1A1F4A"
         offset="1"
         id="stop89" />
    </linearGradient>
    <linearGradient
       y2="0.056820001"
       x2="0.50101"
       y1="1.49967"
       x1="0.50101"
       id="paint16_linear">
      <stop
         stop-color="#72A4D7"
         id="stop92" />
      <stop
         stop-color="#1A1F4A"
         offset="1"
         id="stop94" />
    </linearGradient>
    <linearGradient
       y2="0.05821"
       x2="0.49948999"
       y1="1.50106"
       x1="0.49948999"
       id="paint17_linear">
      <stop
         stop-color="#72A4D7"
         id="stop97" />
      <stop
         stop-color="#1A1F4A"
         offset="1"
         id="stop99" />
    </linearGradient>
    <linearGradient
       inkscape:collect="always"
       xlink:href="#paint0_linear"
       id="linearGradient319"
       x1="168.51658"
       y1="73.63271"
       x2="176.07615"
       y2="79.525432"
       gradientTransform="scale(1.2541728,0.79733829)"
       gradientUnits="userSpaceOnUse" />
    <linearGradient
       inkscape:collect="always"
       xlink:href="#paint1_linear"
       id="linearGradient321"
       x1="159.34416"
       y1="127.59605"
       x2="149.46228"
       y2="94.100756"
       gradientTransform="scale(1.384651,0.72220365)"
       gradientUnits="userSpaceOnUse" />
    <linearGradient
       inkscape:collect="always"
       xlink:href="#paint2_linear"
       id="linearGradient323"
       x1="367.62689"
       y1="53.788367"
       x2="346.16844"
       y2="38.362215"
       gradientTransform="scale(0.6376981,1.5681402)"
       gradientUnits="userSpaceOnUse" />
    <linearGradient
       inkscape:collect="always"
       xlink:href="#paint3_linear"
       id="linearGradient325"
       x1="7.6844932"
       y1="92.023457"
       x2="7.6844932"
       y2="69.826147"
       gradientTransform="scale(0.99772969,1.0022755)"
       gradientUnits="userSpaceOnUse" />
    <linearGradient
       inkscape:collect="always"
       xlink:href="#paint4_linear"
       id="linearGradient327"
       x1="20.663745"
       y1="94.962247"
       x2="20.663745"
       y2="72.056061"
       gradientTransform="scale(1.0295924,0.97125813)"
       gradientUnits="userSpaceOnUse" />
    <linearGradient
       inkscape:collect="always"
       xlink:href="#paint5_linear"
       id="linearGradient329"
       x1="39.89346"
       y1="88.27489"
       x2="39.89346"
       y2="66.98185"
       gradientTransform="scale(0.95708851,1.0448354)"
       gradientUnits="userSpaceOnUse" />
    <linearGradient
       inkscape:collect="always"
       xlink:href="#paint6_linear"
       id="linearGradient331"
       x1="74.536286"
       y1="59.999852"
       x2="74.536286"
       y2="45.527072"
       gradientTransform="scale(0.65052581,1.537218)"
       gradientUnits="userSpaceOnUse" />
    <linearGradient
       inkscape:collect="always"
       xlink:href="#paint7_linear"
       id="linearGradient333"
       x1="61.817456"
       y1="87.336652"
       x2="61.817456"
       y2="66.269863"
       gradientTransform="scale(0.94691477,1.0560613)"
       gradientUnits="userSpaceOnUse" />
    <linearGradient
       inkscape:collect="always"
       xlink:href="#paint8_linear"
       id="linearGradient335"
       x1="105.0745"
       y1="59.999852"
       x2="105.0745"
       y2="45.527072"
       gradientTransform="scale(0.65052581,1.537218)"
       gradientUnits="userSpaceOnUse" />
    <linearGradient
       inkscape:collect="always"
       xlink:href="#paint9_linear"
       id="linearGradient337"
       x1="83.028888"
       y1="88.33651"
       x2="83.028888"
       y2="67.028599"
       gradientTransform="scale(0.95775631,1.0441069)"
       gradientUnits="userSpaceOnUse" />
    <linearGradient
       inkscape:collect="always"
       xlink:href="#paint10_linear"
       id="linearGradient339"
       x1="94.840588"
       y1="94.894247"
       x2="94.840588"
       y2="72.004397"
       gradientTransform="scale(1.0288553,0.97195402)"
       gradientUnits="userSpaceOnUse" />
    <linearGradient
       inkscape:collect="always"
       xlink:href="#paint11_linear"
       id="linearGradient341"
       x1="170.29129"
       y1="59.999392"
       x2="170.29129"
       y2="45.526722"
       gradientTransform="scale(0.65052082,1.5372298)"
       gradientUnits="userSpaceOnUse" />
    <linearGradient
       inkscape:collect="always"
       xlink:href="#paint12_linear"
       id="linearGradient343"
       x1="121.01748"
       y1="92.794236"
       x2="121.01748"
       y2="70.411004"
       gradientTransform="scale(1.0060866,0.99395025)"
       gradientUnits="userSpaceOnUse" />
    <linearGradient
       inkscape:collect="always"
       xlink:href="#paint13_linear"
       id="linearGradient345"
       x1="161.83056"
       y1="77.867884"
       x2="161.83056"
       y2="59.085036"
       gradientTransform="scale(0.8442533,1.1844786)"
       gradientUnits="userSpaceOnUse" />
    <linearGradient
       inkscape:collect="always"
       xlink:href="#paint14_linear"
       id="linearGradient347"
       x1="225.76987"
       y1="59.999392"
       x2="225.76987"
       y2="45.526722"
       gradientTransform="scale(0.65052082,1.5372298)"
       gradientUnits="userSpaceOnUse" />
    <linearGradient
       inkscape:collect="always"
       xlink:href="#paint15_linear"
       id="linearGradient349"
       x1="152.23698"
       y1="95.958849"
       x2="152.23698"
       y2="72.812269"
       gradientTransform="scale(1.0403977,0.96117091)"
       gradientUnits="userSpaceOnUse" />
    <linearGradient
       inkscape:collect="always"
       xlink:href="#paint16_linear"
       id="linearGradient351"
       x1="182.94517"
       y1="87.9993"
       x2="182.94517"
       y2="66.772728"
       gradientTransform="scale(0.95410023,1.0481079)"
       gradientUnits="userSpaceOnUse" />
    <linearGradient
       inkscape:collect="always"
       xlink:href="#paint17_linear"
       id="linearGradient353"
       x1="193.95112"
       y1="89.886931"
       x2="193.95112"
       y2="68.204918"
       gradientTransform="scale(0.97456531,1.0260985)"
       gradientUnits="userSpaceOnUse" />
    <linearGradient
       inkscape:collect="always"
       xlink:href="#paint0_linear"
       id="linearGradient355"
       x1="168.51658"
       y1="73.63271"
       x2="176.07615"
       y2="79.525432"
       gradientTransform="scale(1.2541728,0.79733829)"
       gradientUnits="userSpaceOnUse" />
    <linearGradient
       inkscape:collect="always"
       xlink:href="#paint1_linear"
       id="linearGradient357"
       x1="159.34416"
       y1="127.59605"
       x2="149.46228"
       y2="94.100756"
       gradientTransform="scale(1.384651,0.72220365)"
       gradientUnits="userSpaceOnUse" />
    <linearGradient
       inkscape:collect="always"
       xlink:href="#paint2_linear"
       id="linearGradient359"
       x1="367.62689"
       y1="53.788367"
       x2="346.16844"
       y2="38.362215"
       gradientTransform="scale(0.6376981,1.5681402)"
       gradientUnits="userSpaceOnUse" />
    <linearGradient
       inkscape:collect="always"
       xlink:href="#paint3_linear"
       id="linearGradient361"
       x1="7.6844932"
       y1="92.023457"
       x2="7.6844932"
       y2="69.826147"
       gradientTransform="scale(0.99772969,1.0022755)"
       gradientUnits="userSpaceOnUse" />
    <linearGradient
       inkscape:collect="always"
       xlink:href="#paint4_linear"
       id="linearGradient363"
       x1="20.663745"
       y1="94.962247"
       x2="20.663745"
       y2="72.056061"
       gradientTransform="scale(1.0295924,0.97125813)"
       gradientUnits="userSpaceOnUse" />
    <linearGradient
       inkscape:collect="always"
       xlink:href="#paint5_linear"
       id="linearGradient365"
       x1="39.89346"
       y1="88.27489"
       x2="39.89346"
       y2="66.98185"
       gradientTransform="scale(0.95708851,1.0448354)"
       gradientUnits="userSpaceOnUse" />
    <linearGradient
       inkscape:collect="always"
       xlink:href="#paint6_linear"
       id="linearGradient367"
       x1="74.536286"
       y1="59.999852"
       x2="74.536286"
       y2="45.527072"
       gradientTransform="scale(0.65052581,1.537218)"
       gradientUnits="userSpaceOnUse" />
    <linearGradient
       inkscape:collect="always"
       xlink:href="#paint7_linear"
       id="linearGradient369"
       x1="61.817456"
       y1="87.336652"
       x2="61.817456"
       y2="66.269863"
       gradientTransform="scale(0.94691477,1.0560613)"
       gradientUnits="userSpaceOnUse" />
    <linearGradient
       inkscape:collect="always"
       xlink:href="#paint8_linear"
       id="linearGradient371"
       x1="105.0745"
       y1="59.999852"
       x2="105.0745"
       y2="45.527072"
       gradientTransform="scale(0.65052581,1.537218)"
       gradientUnits="userSpaceOnUse" />
    <linearGradient
       inkscape:collect="always"
       xlink:href="#paint9_linear"
       id="linearGradient373"
       x1="83.028888"
       y1="88.33651"
       x2="83.028888"
       y2="67.028599"
       gradientTransform="scale(0.95775631,1.0441069)"
       gradientUnits="userSpaceOnUse" />
    <linearGradient
       inkscape:collect="always"
       xlink:href="#paint10_linear"
       id="linearGradient375"
       x1="94.840588"
       y1="94.894247"
       x2="94.840588"
       y2="72.004397"
       gradientTransform="scale(1.0288553,0.97195402)"
       gradientUnits="userSpaceOnUse" />
    <linearGradient
       inkscape:collect="always"
       xlink:href="#paint11_linear"
       id="linearGradient377"
       x1="170.29129"
       y1="59.999392"
       x2="170.29129"
       y2="45.526722"
       gradientTransform="scale(0.65052082,1.5372298)"
       gradientUnits="userSpaceOnUse" />
    <linearGradient
       inkscape:collect="always"
       xlink:href="#paint12_linear"
       id="linearGradient379"
       x1="121.01748"
       y1="92.794236"
       x2="121.01748"
       y2="70.411004"
       gradientTransform="scale(1.0060866,0.99395025)"
       gradientUnits="userSpaceOnUse" />
    <linearGradient
       inkscape:collect="always"
       xlink:href="#paint13_linear"
       id="linearGradient381"
       x1="161.83056"
       y1="77.867884"
       x2="161.83056"
       y2="59.085036"
       gradientTransform="scale(0.8442533,1.1844786)"
       gradientUnits="userSpaceOnUse" />
    <linearGradient
       inkscape:collect="always"
       xlink:href="#paint14_linear"
       id="linearGradient383"
       x1="225.76987"
       y1="59.999392"
       x2="225.76987"
       y2="45.526722"
       gradientTransform="scale(0.65052082,1.5372298)"
       gradientUnits="userSpaceOnUse" />
    <linearGradient
       inkscape:collect="always"
       xlink:href="#paint15_linear"
       id="linearGradient385"
       x1="152.23698"
       y1="95.958849"
       x2="152.23698"
       y2="72.812269"
       gradientTransform="scale(1.0403977,0.96117091)"
       gradientUnits="userSpaceOnUse" />
    <linearGradient
       inkscape:collect="always"
       xlink:href="#paint16_linear"
       id="linearGradient387"
       x1="182.94517"
       y1="87.9993"
       x2="182.94517"
       y2="66.772728"
       gradientTransform="scale(0.95410023,1.0481079)"
       gradientUnits="userSpaceOnUse" />
    <linearGradient
       inkscape:collect="always"
       xlink:href="#paint17_linear"
       id="linearGradient389"
       x1="193.95112"
       y1="89.886931"
       x2="193.95112"
       y2="68.204918"
       gradientTransform="scale(0.97456531,1.0260985)"
       gradientUnits="userSpaceOnUse" />
  </defs>
  <g
     id="g107"
     transform="translate(0,-50.958401)">
    <title
       id="title104">background</title>
    <rect
       fill="none"
       id="canvas_background"
       height="602"
       width="802"
       y="-1"
       x="-1" />
  </g>
  <g
     id="g159"
     transform="translate(0,-50.958401)">
    <title
       id="title109">Layer 1</title>
    <g
       id="svg_5"
       clip-path="url(#clip0)">
      <path
         id="svg_6"
         fill="url(#paint0_linear)"
         d="m 222.217,51.0874 6.065,-0.129 -10.473,18.129 h -18.043 c 0,0 6.236,-2.3441 8.645,-4.3656 1.849,-1.5699 9.742,-10.6451 10.58,-11.7204 1.033,-1.3764 2.474,-1.8065 3.226,-1.914 z"
         style="fill:url(#linearGradient319)" />
      <path
         id="svg_7"
         fill="url(#paint1_linear)"
         d="m 203.352,76.5283 -2.559,-4.2366 h 17.054 l 7.355,12.7312 c 0,0 -4.194,-3.4623 -6.603,-4.3226 -1.871,-0.6666 -11.483,-2.5376 -12.58,-2.6881 -1.398,-0.1721 -2.28,-1.0108 -2.667,-1.4839 z"
         style="fill:url(#linearGradient321)" />
      <path
         id="svg_8"
         fill="url(#paint2_linear)"
         d="m 229.765,79.496 -2.022,3.6775 -7.247,-12.5592 6.237,-10.8172 c 0,0 -0.753,4.5592 -0.366,6.6882 0.301,1.6559 3.011,9.5269 3.376,10.3871 0.452,1.1398 0.215,2.1505 0.022,2.6236 z"
         style="fill:url(#linearGradient323)" />
      <path
         id="svg_9"
         fill="url(#paint3_linear)"
         d="M 0,84.5067 2.70968,69.1089 h 8.17202 c 1.6989,0 2.9248,0.4301 3.6559,1.2903 0.7527,0.8602 0.9678,2.1505 0.6452,3.8495 -0.3011,1.6989 -0.9677,2.9892 -2.0215,3.8494 -1.0538,0.8602 -2.4301,1.2904 -4.12904,1.2904 H 4.68817 l -0.88172,5.1182 z m 8.92473,-8.301 c 1.29037,0 2.06447,-0.6452 2.27957,-1.957 0.2366,-1.2904 -0.3011,-1.957 -1.5914,-1.957 H 5.95699 l -0.66667,3.8925 h 3.63441 z"
         style="fill:url(#linearGradient325)" />
      <path
         id="svg_10"
         fill="url(#paint4_linear)"
         d="m 25.2247,84.5067 -0.5161,-2.9892 h -5.9355 l -1.5269,2.9892 h -4.129 l 8.6451,-15.3978 h 4.4517 l 3.2258,15.3978 z M 23.2892,72.7218 20.386,78.3562 h 3.8065 z"
         style="fill:url(#linearGradient327)" />
      <path
         id="svg_11"
         fill="url(#paint5_linear)"
         d="m 37.6796,84.5067 c -2.6236,0 -4.4731,-0.6236 -5.5053,-1.8709 -1.0323,-1.2473 -1.3119,-3.2043 -0.8603,-5.828 0.4732,-2.6236 1.4409,-4.5591 2.9033,-5.8064 1.4838,-1.2689 3.5268,-1.8925 6.1505,-1.8925 h 4.8817 l -0.5806,3.2043 h -4.086 c -0.8388,0 -1.5484,0.086 -2.1506,0.2365 -0.6021,0.1506 -1.1183,0.4086 -1.5269,0.7742 -0.4086,0.3656 -0.7527,0.8172 -1.0107,1.3979 -0.2581,0.5806 -0.4516,1.2688 -0.6022,2.1075 -0.129,0.8387 -0.172,1.5484 -0.129,2.1075 0.0645,0.5807 0.2151,1.0323 0.5161,1.3979 0.2796,0.3656 0.7097,0.6021 1.2473,0.7742 0.5592,0.1505 1.2474,0.2365 2.0861,0.2365 h 4.172 l -0.5591,3.2043 h -4.9463 z"
         style="fill:url(#linearGradient329)" />
      <path
         id="svg_12"
         fill="url(#paint6_linear)"
         d="m 45.2266,84.5067 2.7096,-15.3978 h 3.8065 L 49.033,84.5067 Z"
         style="fill:url(#linearGradient331)" />
      <path
         id="svg_13"
         fill="url(#paint7_linear)"
         d="m 56.3855,79.0229 -0.9462,5.4838 h -3.8065 l 1.6559,-9.4193 c 0.6882,-4 3.0538,-5.9785 7.0538,-5.9785 h 5.0967 l -0.5806,3.2043 h -4.043 c -0.6022,0 -1.1183,0.0645 -1.5484,0.172 -0.4301,0.1076 -0.7957,0.3011 -1.0968,0.5592 -0.301,0.258 -0.5376,0.5806 -0.7096,0.9892 -0.1721,0.4086 -0.3226,0.9247 -0.4301,1.5269 l -0.0646,0.2796 h 7.0538 l -0.5591,3.2043 h -7.0753 z"
         style="fill:url(#linearGradient333)" />
      <path
         id="svg_14"
         fill="url(#paint8_linear)"
         d="m 65.0938,84.5067 2.7096,-15.3978 h 3.8065 l -2.7097,15.3978 z"
         style="fill:url(#linearGradient335)" />
      <path
         id="svg_15"
         fill="url(#paint9_linear)"
         d="m 79.0117,84.5067 c -2.6237,0 -4.4731,-0.6236 -5.5054,-1.8709 -1.0323,-1.2473 -1.3118,-3.2043 -0.8602,-5.828 0.4731,-2.6236 1.4408,-4.5591 2.9032,-5.8064 1.4839,-1.2689 3.5269,-1.8925 6.1506,-1.8925 h 4.8817 l -0.5592,3.1828 h -4.086 c -0.8387,0 -1.5484,0.086 -2.1505,0.2365 -0.6022,0.1506 -1.1183,0.4086 -1.5269,0.7742 -0.4086,0.3656 -0.7527,0.8172 -1.0108,1.3979 -0.258,0.5806 -0.4516,1.2688 -0.6021,2.1075 -0.129,0.8387 -0.1721,1.5484 -0.1291,2.1075 0.0646,0.5807 0.2151,1.0323 0.5162,1.3979 0.2796,0.3656 0.7097,0.6021 1.2473,0.7742 0.5591,0.1505 1.2473,0.2365 2.086,0.2365 h 4.1721 l -0.5592,3.2043 h -4.9677 z"
         style="fill:url(#linearGradient337)" />
      <path
         id="svg_16"
         fill="url(#paint10_linear)"
         d="m 101.529,84.5068 -0.516,-2.9893 h -5.9352 l -1.5269,2.9893 h -4.129 L 98.067,69.0874 h 4.452 l 3.225,15.3979 h -4.215 z m -1.9351,-11.785 -2.9032,5.6344 h 3.8063 z"
         style="fill:url(#linearGradient339)" />
      <path
         id="svg_17"
         fill="url(#paint11_linear)"
         d="m 107.527,84.5067 2.71,-15.3978 h 3.806 l -2.709,15.3978 z"
         style="fill:url(#linearGradient341)" />
      <path
         id="svg_18"
         fill="url(#paint12_linear)"
         d="m 123.853,84.5067 -2.516,-5.3763 h -2.645 l -0.925,5.3763 h -3.806 l 2.71,-15.3978 h 8.365 c 1.742,0 2.968,0.4086 3.721,1.2043 0.752,0.7957 0.967,2.0645 0.645,3.8064 -0.151,0.8603 -0.387,1.5914 -0.688,2.1506 -0.301,0.5591 -0.646,1.0107 -1.011,1.3763 -0.366,0.3441 -0.731,0.6237 -1.097,0.7957 -0.366,0.1936 -0.688,0.3226 -0.968,0.4086 l 2.818,5.6559 z m -3.957,-12.215 -0.623,3.6129 h 3.892 c 0.645,0 1.161,-0.1291 1.527,-0.4086 0.366,-0.2796 0.602,-0.7527 0.71,-1.3979 0.129,-0.6451 0.043,-1.1182 -0.237,-1.3978 -0.279,-0.2796 -0.752,-0.4086 -1.398,-0.4086 z"
         style="fill:url(#linearGradient343)" />
      <path
         id="svg_19"
         fill="url(#paint13_linear)"
         d="m 136.277,84.5068 c -4.021,0 -5.677,-2 -4.989,-6.0431 l 1.678,-9.3763 h 3.806 l -1.57,8.8602 c -0.107,0.6237 -0.15,1.1613 -0.107,1.5914 0.043,0.4301 0.172,0.7742 0.387,1.0108 0.215,0.258 0.516,0.4301 0.924,0.5591 0.409,0.1075 0.925,0.1721 1.549,0.1721 h 4.172 l -0.559,3.2043 h -5.291 z"
         style="fill:url(#linearGradient345)" />
      <path
         id="svg_20"
         fill="url(#paint14_linear)"
         d="m 143.613,84.5067 2.71,-15.3978 h 3.806 l -2.709,15.3978 z"
         style="fill:url(#linearGradient347)" />
      <path
         id="svg_21"
         fill="url(#paint15_linear)"
         d="m 159.226,84.5067 -3.699,-10.6666 -1.871,10.6666 h -3.613 l 2.71,-15.3978 h 4.924 l 3.57,10.4516 1.85,-10.4516 h 3.613 l -2.688,15.3978 z"
         style="fill:url(#linearGradient349)" />
      <path
         id="svg_22"
         fill="url(#paint16_linear)"
         d="m 174.09,84.5067 c -2.624,0 -4.473,-0.6236 -5.506,-1.8709 -1.032,-1.2473 -1.311,-3.2043 -0.86,-5.828 0.473,-2.6236 1.441,-4.5591 2.903,-5.8064 1.484,-1.2689 3.527,-1.8925 6.151,-1.8925 h 4.774 l -0.581,3.2043 h -4 c -0.688,0 -1.29,0.043 -1.806,0.129 -0.516,0.086 -0.989,0.2581 -1.376,0.4731 -0.387,0.2151 -0.731,0.5162 -1.011,0.8818 -0.28,0.3655 -0.516,0.8387 -0.688,1.3978 h 8.15 l -0.559,3.2043 h -8.15 c -0.022,1.0968 0.258,1.8495 0.881,2.2796 0.624,0.4301 1.613,0.6451 2.99,0.6451 h 4.215 l -0.56,3.2043 h -4.967 z"
         style="fill:url(#linearGradient351)" />
      <path
         id="svg_23"
         fill="url(#paint17_linear)"
         d="m 181.703,84.5068 0.559,-3.2043 h 7.119 c 0.967,0 1.548,-0.4947 1.72,-1.4624 0.15,-0.9678 -0.258,-1.4624 -1.204,-1.4624 h -2.925 c -3.075,0 -4.344,-1.5484 -3.807,-4.6666 0.56,-3.0753 2.366,-4.6237 5.463,-4.6237 h 7.72 l -0.58,3.2043 h -6.925 c -0.968,0 -1.527,0.4731 -1.699,1.4409 -0.172,0.9677 0.215,1.4408 1.183,1.4408 h 2.881 c 1.549,0 2.646,0.3871 3.291,1.1613 0.645,0.7742 0.838,1.9355 0.58,3.4839 -0.258,1.5484 -0.86,2.7097 -1.785,3.4839 -0.924,0.7741 -2.172,1.1612 -3.72,1.1612 h -7.871 z"
         style="fill:url(#linearGradient353)" />
      <path
         id="svg_24"
         fill="#324471"
         d="m 39.2656,95.8619 0.5402,-1.614 h 2.4609 l 0.5433,1.614 h 1.2656 L 41.7681,89.3164 H 40.3043 L 38,95.8619 Z m 0.8598,-2.5664 0.8853,-2.6368 h 0.0511 l 0.8853,2.6368 z" />
      <path
         id="svg_25"
         fill="#324471"
         d="m 47.1702,89.3164 v 6.5455 h 1.1378 v -4.5064 h 0.0607 l 1.8089,4.4872 h 0.8502 l 1.8089,-4.4776 h 0.0608 v 4.4968 h 1.1377 v -6.5455 h -1.4509 l -1.9432,4.7429 h -0.0767 l -1.9432,-4.7429 z" />
      <path
         id="svg_26"
         fill="#324471"
         d="m 57.4486,95.9577 c 1.1442,0 1.9304,-0.5593 2.1349,-1.4126 l -1.0802,-0.1214 c -0.1566,0.4154 -0.5401,0.6328 -1.0387,0.6328 -0.7479,0 -1.2433,-0.4922 -1.2529,-1.3328 h 3.4198 V 93.369 c 0,-1.7227 -1.0355,-2.4802 -2.2436,-2.4802 -1.4063,0 -2.3235,1.0324 -2.3235,2.5473 0,1.5405 0.9044,2.5216 2.3842,2.5216 z m -1.2337,-3.0138 c 0.0352,-0.6264 0.4986,-1.1538 1.189,-1.1538 0.6647,0 1.1122,0.4858 1.1186,1.1538 z" />
      <path
         id="svg_27"
         fill="#324471"
         d="m 60.6103,95.8619 h 1.1569 v -2.9851 c 0,-0.6041 0.4027,-1.0132 0.9013,-1.0132 0.489,0 0.8246,0.3292 0.8246,0.8342 v 3.1641 h 1.1346 v -3.0618 c 0,-0.5529 0.3292,-0.9365 0.8885,-0.9365 0.4666,0 0.8373,0.2749 0.8373,0.8821 v 3.1162 h 1.1602 v -3.2951 c 0,-1.0963 -0.6328,-1.678 -1.5341,-1.678 -0.7127,0 -1.2561,0.3516 -1.4734,0.8981 h -0.0511 c -0.1886,-0.5561 -0.6648,-0.8981 -1.3264,-0.8981 -0.6584,0 -1.1505,0.3388 -1.3551,0.8981 h -0.0575 v -0.8341 h -1.1058 z" />
      <path
         id="svg_28"
         fill="#324471"
         d="m 68.7385,95.8619 h 1.1378 v -0.7735 h 0.0671 c 0.1822,0.358 0.5626,0.8598 1.4063,0.8598 1.157,0 2.0231,-0.9173 2.0231,-2.5345 0,-1.6364 -0.8917,-2.5249 -2.0263,-2.5249 -0.8661,0 -1.2273,0.521 -1.4031,0.8758 h -0.0479 v -2.4482 h -1.157 z m 1.1346,-2.4546 c 0,-0.9524 0.4091,-1.5692 1.1538,-1.5692 0.7702,0 1.1666,0.6552 1.1666,1.5692 0,0.9205 -0.4027,1.5916 -1.1666,1.5916 -0.7383,0 -1.1538,-0.6392 -1.1538,-1.5916 z" />
      <path
         id="svg_29"
         fill="#324471"
         d="m 76.5297,95.9577 c 1.1441,0 1.9304,-0.5593 2.1349,-1.4126 l -1.0803,-0.1214 c -0.1566,0.4154 -0.5401,0.6328 -1.0387,0.6328 -0.7478,0 -1.2432,-0.4922 -1.2528,-1.3328 h 3.4197 V 93.369 c 0,-1.7227 -1.0355,-2.4802 -2.2436,-2.4802 -1.4062,0 -2.3235,1.0324 -2.3235,2.5473 0,1.5405 0.9045,2.5216 2.3843,2.5216 z M 75.296,92.9439 c 0.0351,-0.6264 0.4986,-1.1538 1.1889,-1.1538 0.6648,0 1.1122,0.4858 1.1186,1.1538 z" />
      <path
         id="svg_30"
         fill="#324471"
         d="m 79.6913,95.8619 h 1.157 v -2.886 c 0,-0.6233 0.4698,-1.0643 1.1058,-1.0643 0.195,0 0.4379,0.0351 0.5369,0.0671 v -1.0643 c -0.1054,-0.0192 -0.2876,-0.0319 -0.4154,-0.0319 -0.5625,0 -1.0324,0.3196 -1.2113,0.8885 h -0.0512 v -0.8182 h -1.1218 z" />
      <path
         id="svg_31"
         fill="#324471"
         d="m 87.6334,95.9577 c 1.4382,0 2.3523,-1.0131 2.3523,-2.5312 0,-1.5213 -0.9141,-2.5377 -2.3523,-2.5377 -1.4382,0 -2.3522,1.0164 -2.3522,2.5377 0,1.5181 0.914,2.5312 2.3522,2.5312 z m 0.0064,-0.9268 c -0.7958,0 -1.1857,-0.7095 -1.1857,-1.6076 0,-0.8981 0.3899,-1.6172 1.1857,-1.6172 0.7831,0 1.173,0.7191 1.173,1.6172 0,0.8981 -0.3899,1.6076 -1.173,1.6076 z" />
      <path
         id="svg_32"
         fill="#324471"
         d="m 93.4542,90.9528 h -1.0195 v -0.3867 c 0,-0.3836 0.1598,-0.5977 0.5912,-0.5977 0.1822,0 0.3356,0.0415 0.4315,0.0703 l 0.2333,-0.8949 c -0.1502,-0.0511 -0.4794,-0.1342 -0.8789,-0.1342 -0.8533,0 -1.5341,0.489 -1.5341,1.4797 v 0.4635 h -0.7255 v 0.8949 h 0.7255 v 4.0142 h 1.157 v -4.0142 h 1.0195 z" />
      <path
         id="svg_33"
         fill="#324471"
         d="m 97.5195,89.3164 h -1.3007 l 2.3043,6.5455 h 1.4638 l 2.3071,-6.5455 h -1.304 l -1.6999,5.152 H 99.223 Z" />
      <path
         id="svg_34"
         fill="#324471"
         d="m 103.105,95.8619 h 1.157 v -4.9091 h -1.157 z m 0.582,-5.6059 c 0.368,0 0.668,-0.2812 0.668,-0.6264 0,-0.3483 -0.3,-0.6296 -0.668,-0.6296 -0.371,0 -0.671,0.2813 -0.671,0.6296 0,0.3452 0.3,0.6264 0.671,0.6264 z" />
      <path
         id="svg_35"
         fill="#324471"
         d="m 107.625,95.9577 c 1.145,0 1.931,-0.5593 2.135,-1.4126 l -1.08,-0.1214 c -0.157,0.4154 -0.54,0.6328 -1.039,0.6328 -0.748,0 -1.243,-0.4922 -1.253,-1.3328 h 3.42 V 93.369 c 0,-1.7227 -1.035,-2.4802 -2.243,-2.4802 -1.407,0 -2.324,1.0324 -2.324,2.5473 0,1.5405 0.905,2.5216 2.384,2.5216 z m -1.233,-3.0138 c 0.035,-0.6264 0.498,-1.1538 1.189,-1.1538 0.664,0 1.112,0.4858 1.118,1.1538 z" />
      <path
         id="svg_36"
         fill="#324471"
         d="m 113.238,90.9528 h -0.968 v -1.1762 h -1.157 v 1.1762 h -0.697 v 0.8949 h 0.697 v 2.7294 c -0.006,0.9236 0.665,1.3774 1.534,1.3519 0.329,-0.0096 0.556,-0.0735 0.681,-0.1151 l -0.195,-0.9045 c -0.064,0.016 -0.195,0.0448 -0.339,0.0448 -0.291,0 -0.524,-0.1023 -0.524,-0.5689 v -2.5376 h 0.968 z" />
      <path
         id="svg_37"
         fill="#324471"
         d="m 115.363,92.9854 c 0,-0.7095 0.428,-1.1186 1.039,-1.1186 0.597,0 0.955,0.3931 0.955,1.0483 v 2.9468 h 1.157 v -3.1257 c 0.003,-1.1762 -0.668,-1.8474 -1.681,-1.8474 -0.735,0 -1.24,0.3516 -1.464,0.8981 h -0.057 v -0.8341 h -1.106 v 4.9091 h 1.157 z" />
      <path
         id="svg_38"
         fill="#324471"
         d="m 121.103,95.9609 c 0.77,0 1.23,-0.3611 1.441,-0.7734 h 0.039 v 0.6744 h 1.112 v -3.2856 c 0,-1.2975 -1.058,-1.6875 -1.994,-1.6875 -1.033,0 -1.825,0.4603 -2.081,1.3552 l 1.08,0.1534 c 0.115,-0.3356 0.441,-0.6233 1.007,-0.6233 0.537,0 0.831,0.2749 0.831,0.7575 v 0.0192 c 0,0.3324 -0.348,0.3483 -1.214,0.441 -0.953,0.1023 -1.864,0.3868 -1.864,1.4926 0,0.9652 0.707,1.4765 1.643,1.4765 z m 0.3,-0.8501 c -0.482,0 -0.827,-0.2205 -0.827,-0.6456 0,-0.4442 0.386,-0.6296 0.904,-0.7031 0.304,-0.0416 0.911,-0.1183 1.061,-0.2397 v 0.5785 c 0,0.5465 -0.441,1.0099 -1.138,1.0099 z" />
      <path
         id="svg_39"
         fill="#324471"
         d="m 124.858,95.8619 h 1.157 v -2.9851 c 0,-0.6041 0.403,-1.0132 0.902,-1.0132 0.489,0 0.824,0.3292 0.824,0.8342 v 3.1641 h 1.135 v -3.0618 c 0,-0.5529 0.329,-0.9365 0.888,-0.9365 0.467,0 0.838,0.2749 0.838,0.8821 v 3.1162 h 1.16 v -3.2951 c 0,-1.0963 -0.633,-1.678 -1.534,-1.678 -0.713,0 -1.256,0.3516 -1.474,0.8981 h -0.051 c -0.188,-0.5561 -0.665,-0.8981 -1.326,-0.8981 -0.659,0 -1.151,0.3388 -1.355,0.8981 h -0.058 v -0.8341 h -1.106 z" />
      <path
         id="svg_40"
         fill="#324471"
         d="m 136.06,95.8619 0.54,-1.614 h 2.461 l 0.543,1.614 h 1.266 l -2.308,-6.5455 h -1.464 l -2.304,6.5455 z m 0.859,-2.5664 0.886,-2.6368 h 0.051 l 0.885,2.6368 z" />
      <path
         id="svg_41"
         fill="#324471"
         d="m 141.716,95.8619 h 1.157 v -4.9091 h -1.157 z m 0.581,-5.6059 c 0.368,0 0.668,-0.2812 0.668,-0.6264 0,-0.3483 -0.3,-0.6296 -0.668,-0.6296 -0.37,0 -0.671,0.2813 -0.671,0.6296 0,0.3452 0.301,0.6264 0.671,0.6264 z" />
      <path
         id="svg_42"
         fill="#324471"
         d="m 144.062,95.8619 h 1.157 v -2.886 c 0,-0.6233 0.47,-1.0643 1.106,-1.0643 0.195,0 0.438,0.0351 0.537,0.0671 v -1.0643 c -0.105,-0.0192 -0.288,-0.0319 -0.415,-0.0319 -0.563,0 -1.033,0.3196 -1.212,0.8885 h -0.051 v -0.8182 h -1.122 z" />
      <path
         id="svg_43"
         fill="#324471"
         d="m 148.788,89.3164 h -1.157 v 6.5455 h 1.157 z" />
      <path
         id="svg_44"
         fill="#324471"
         d="m 149.977,95.8619 h 1.157 v -4.9091 h -1.157 z m 0.582,-5.6059 c 0.368,0 0.668,-0.2812 0.668,-0.6264 0,-0.3483 -0.3,-0.6296 -0.668,-0.6296 -0.371,0 -0.671,0.2813 -0.671,0.6296 0,0.3452 0.3,0.6264 0.671,0.6264 z" />
      <path
         id="svg_45"
         fill="#324471"
         d="m 153.481,92.9854 c 0,-0.7095 0.428,-1.1186 1.039,-1.1186 0.597,0 0.955,0.3931 0.955,1.0483 v 2.9468 h 1.157 v -3.1257 c 0.004,-1.1762 -0.668,-1.8474 -1.681,-1.8474 -0.735,0 -1.24,0.3516 -1.464,0.8981 h -0.057 v -0.8341 h -1.106 v 4.9091 h 1.157 z" />
      <path
         id="svg_46"
         fill="#324471"
         d="m 159.982,95.9577 c 1.144,0 1.93,-0.5593 2.135,-1.4126 l -1.081,-0.1214 c -0.156,0.4154 -0.54,0.6328 -1.038,0.6328 -0.748,0 -1.243,-0.4922 -1.253,-1.3328 h 3.42 V 93.369 c 0,-1.7227 -1.036,-2.4802 -2.244,-2.4802 -1.406,0 -2.323,1.0324 -2.323,2.5473 0,1.5405 0.904,2.5216 2.384,2.5216 z m -1.234,-3.0138 c 0.035,-0.6264 0.499,-1.1538 1.189,-1.1538 0.665,0 1.112,0.4858 1.119,1.1538 z" />
      <path
         id="svg_47"
         fill="#324471"
         d="m 167.023,92.2504 c -0.159,-0.831 -0.824,-1.3616 -1.975,-1.3616 -1.182,0 -1.988,0.5817 -1.984,1.4894 -0.004,0.7159 0.437,1.1889 1.38,1.3839 l 0.838,0.1758 c 0.45,0.099 0.661,0.2812 0.661,0.5593 0,0.3355 -0.364,0.588 -0.914,0.588 -0.53,0 -0.876,-0.2301 -0.975,-0.6711 l -1.128,0.1086 c 0.144,0.9013 0.901,1.435 2.106,1.435 1.228,0 2.094,-0.636 2.097,-1.566 -0.003,-0.6999 -0.454,-1.1282 -1.381,-1.3296 l -0.837,-0.1789 c -0.499,-0.1119 -0.697,-0.2845 -0.694,-0.5689 -0.003,-0.3324 0.365,-0.5625 0.847,-0.5625 0.534,0 0.815,0.2908 0.905,0.6136 z" />
      <path
         id="svg_48"
         fill="#324471"
         d="m 174.751,91.4066 h 1.209 c -0.202,-1.2848 -1.314,-2.1797 -2.762,-2.1797 -1.713,0 -2.998,1.2593 -2.998,3.3686 0,2.071 1.228,3.3559 3.033,3.3559 1.621,0 2.781,-1.042 2.781,-2.7295 v -0.7862 h -2.656 v 0.9269 h 1.508 c -0.019,0.9332 -0.642,1.5245 -1.626,1.5245 -1.097,0 -1.848,-0.8214 -1.848,-2.3044 0,-1.4733 0.764,-2.2915 1.822,-2.2915 0.79,0 1.326,0.4219 1.537,1.1154 z" />
      <path
         id="svg_49"
         fill="#324471"
         d="m 177.109,95.8619 h 1.157 v -2.886 c 0,-0.6233 0.47,-1.0643 1.106,-1.0643 0.195,0 0.438,0.0351 0.537,0.0671 v -1.0643 c -0.105,-0.0192 -0.288,-0.0319 -0.415,-0.0319 -0.563,0 -1.033,0.3196 -1.212,0.8885 h -0.051 v -0.8182 h -1.122 z" />
      <path
         id="svg_50"
         fill="#324471"
         d="m 182.617,95.9577 c 1.438,0 2.352,-1.0131 2.352,-2.5312 0,-1.5213 -0.914,-2.5377 -2.352,-2.5377 -1.438,0 -2.352,1.0164 -2.352,2.5377 0,1.5181 0.914,2.5312 2.352,2.5312 z m 0.006,-0.9268 c -0.796,0 -1.185,-0.7095 -1.185,-1.6076 0,-0.8981 0.389,-1.6172 1.185,-1.6172 0.783,0 1.173,0.7191 1.173,1.6172 0,0.8981 -0.39,1.6076 -1.173,1.6076 z" />
      <path
         id="svg_51"
         fill="#324471"
         d="m 189.08,93.7972 c 0,0.7479 -0.534,1.1186 -1.045,1.1186 -0.556,0 -0.927,-0.3931 -0.927,-1.0163 v -2.9467 h -1.157 v 3.1257 c 0,1.1793 0.671,1.8473 1.636,1.8473 0.736,0 1.253,-0.3867 1.477,-0.9365 h 0.051 v 0.8726 h 1.122 v -4.9091 h -1.157 z" />
      <path
         id="svg_52"
         fill="#324471"
         d="m 191.427,97.7028 h 1.157 v -2.6144 h 0.048 c 0.182,0.358 0.562,0.8598 1.406,0.8598 1.157,0 2.023,-0.9173 2.023,-2.5345 0,-1.6364 -0.892,-2.5249 -2.026,-2.5249 -0.866,0 -1.228,0.521 -1.403,0.8758 h -0.068 v -0.8118 h -1.137 z m 1.134,-4.2955 c 0,-0.9524 0.409,-1.5692 1.154,-1.5692 0.77,0 1.167,0.6552 1.167,1.5692 0,0.9205 -0.403,1.5916 -1.167,1.5916 -0.738,0 -1.154,-0.6392 -1.154,-1.5916 z" />
    </g>
  </g>
  <g
     id="g317"
     transform="translate(0,-50.958401)">
    <title
       id="title219">Layer 1</title>
    <g
       id="g315"
       clip-path="url(#clip0)">
      <path
         id="path221"
         fill="url(#paint0_linear)"
         d="m 222.217,51.0874 6.065,-0.129 -10.473,18.129 h -18.043 c 0,0 6.236,-2.3441 8.645,-4.3656 1.849,-1.5699 9.742,-10.6451 10.58,-11.7204 1.033,-1.3764 2.474,-1.8065 3.226,-1.914 z"
         style="fill:url(#linearGradient355)" />
      <path
         id="path223"
         fill="url(#paint1_linear)"
         d="m 203.352,76.5283 -2.559,-4.2366 h 17.054 l 7.355,12.7312 c 0,0 -4.194,-3.4623 -6.603,-4.3226 -1.871,-0.6666 -11.483,-2.5376 -12.58,-2.6881 -1.398,-0.1721 -2.28,-1.0108 -2.667,-1.4839 z"
         style="fill:url(#linearGradient357)" />
      <path
         id="path225"
         fill="url(#paint2_linear)"
         d="m 229.765,79.496 -2.022,3.6775 -7.247,-12.5592 6.237,-10.8172 c 0,0 -0.753,4.5592 -0.366,6.6882 0.301,1.6559 3.011,9.5269 3.376,10.3871 0.452,1.1398 0.215,2.1505 0.022,2.6236 z"
         style="fill:url(#linearGradient359)" />
      <path
         id="path227"
         fill="url(#paint3_linear)"
         d="M 0,84.5067 2.70968,69.1089 h 8.17202 c 1.6989,0 2.9248,0.4301 3.6559,1.2903 0.7527,0.8602 0.9678,2.1505 0.6452,3.8495 -0.3011,1.6989 -0.9677,2.9892 -2.0215,3.8494 -1.0538,0.8602 -2.4301,1.2904 -4.12904,1.2904 H 4.68817 l -0.88172,5.1182 z m 8.92473,-8.301 c 1.29037,0 2.06447,-0.6452 2.27957,-1.957 0.2366,-1.2904 -0.3011,-1.957 -1.5914,-1.957 H 5.95699 l -0.66667,3.8925 h 3.63441 z"
         style="fill:url(#linearGradient361)" />
      <path
         id="path229"
         fill="url(#paint4_linear)"
         d="m 25.2247,84.5067 -0.5161,-2.9892 h -5.9355 l -1.5269,2.9892 h -4.129 l 8.6451,-15.3978 h 4.4517 l 3.2258,15.3978 z M 23.2892,72.7218 20.386,78.3562 h 3.8065 z"
         style="fill:url(#linearGradient363)" />
      <path
         id="path231"
         fill="url(#paint5_linear)"
         d="m 37.6796,84.5067 c -2.6236,0 -4.4731,-0.6236 -5.5053,-1.8709 -1.0323,-1.2473 -1.3119,-3.2043 -0.8603,-5.828 0.4732,-2.6236 1.4409,-4.5591 2.9033,-5.8064 1.4838,-1.2689 3.5268,-1.8925 6.1505,-1.8925 h 4.8817 l -0.5806,3.2043 h -4.086 c -0.8388,0 -1.5484,0.086 -2.1506,0.2365 -0.6021,0.1506 -1.1183,0.4086 -1.5269,0.7742 -0.4086,0.3656 -0.7527,0.8172 -1.0107,1.3979 -0.2581,0.5806 -0.4516,1.2688 -0.6022,2.1075 -0.129,0.8387 -0.172,1.5484 -0.129,2.1075 0.0645,0.5807 0.2151,1.0323 0.5161,1.3979 0.2796,0.3656 0.7097,0.6021 1.2473,0.7742 0.5592,0.1505 1.2474,0.2365 2.0861,0.2365 h 4.172 l -0.5591,3.2043 h -4.9463 z"
         style="fill:url(#linearGradient365)" />
      <path
         id="path233"
         fill="url(#paint6_linear)"
         d="m 45.2266,84.5067 2.7096,-15.3978 h 3.8065 L 49.033,84.5067 Z"
         style="fill:url(#linearGradient367)" />
      <path
         id="path235"
         fill="url(#paint7_linear)"
         d="m 56.3855,79.0229 -0.9462,5.4838 h -3.8065 l 1.6559,-9.4193 c 0.6882,-4 3.0538,-5.9785 7.0538,-5.9785 h 5.0967 l -0.5806,3.2043 h -4.043 c -0.6022,0 -1.1183,0.0645 -1.5484,0.172 -0.4301,0.1076 -0.7957,0.3011 -1.0968,0.5592 -0.301,0.258 -0.5376,0.5806 -0.7096,0.9892 -0.1721,0.4086 -0.3226,0.9247 -0.4301,1.5269 l -0.0646,0.2796 h 7.0538 l -0.5591,3.2043 h -7.0753 z"
         style="fill:url(#linearGradient369)" />
      <path
         id="path237"
         fill="url(#paint8_linear)"
         d="m 65.0938,84.5067 2.7096,-15.3978 h 3.8065 l -2.7097,15.3978 z"
         style="fill:url(#linearGradient371)" />
      <path
         id="path239"
         fill="url(#paint9_linear)"
         d="m 79.0117,84.5067 c -2.6237,0 -4.4731,-0.6236 -5.5054,-1.8709 -1.0323,-1.2473 -1.3118,-3.2043 -0.8602,-5.828 0.4731,-2.6236 1.4408,-4.5591 2.9032,-5.8064 1.4839,-1.2689 3.5269,-1.8925 6.1506,-1.8925 h 4.8817 l -0.5592,3.1828 h -4.086 c -0.8387,0 -1.5484,0.086 -2.1505,0.2365 -0.6022,0.1506 -1.1183,0.4086 -1.5269,0.7742 -0.4086,0.3656 -0.7527,0.8172 -1.0108,1.3979 -0.258,0.5806 -0.4516,1.2688 -0.6021,2.1075 -0.129,0.8387 -0.1721,1.5484 -0.1291,2.1075 0.0646,0.5807 0.2151,1.0323 0.5162,1.3979 0.2796,0.3656 0.7097,0.6021 1.2473,0.7742 0.5591,0.1505 1.2473,0.2365 2.086,0.2365 h 4.1721 l -0.5592,3.2043 h -4.9677 z"
         style="fill:url(#linearGradient373)" />
      <path
         id="path241"
         fill="url(#paint10_linear)"
         d="m 101.529,84.5068 -0.516,-2.9893 h -5.9352 l -1.5269,2.9893 h -4.129 L 98.067,69.0874 h 4.452 l 3.225,15.3979 h -4.215 z m -1.9351,-11.785 -2.9032,5.6344 h 3.8063 z"
         style="fill:url(#linearGradient375)" />
      <path
         id="path243"
         fill="url(#paint11_linear)"
         d="m 107.527,84.5067 2.71,-15.3978 h 3.806 l -2.709,15.3978 z"
         style="fill:url(#linearGradient377)" />
      <path
         id="path245"
         fill="url(#paint12_linear)"
         d="m 123.853,84.5067 -2.516,-5.3763 h -2.645 l -0.925,5.3763 h -3.806 l 2.71,-15.3978 h 8.365 c 1.742,0 2.968,0.4086 3.721,1.2043 0.752,0.7957 0.967,2.0645 0.645,3.8064 -0.151,0.8603 -0.387,1.5914 -0.688,2.1506 -0.301,0.5591 -0.646,1.0107 -1.011,1.3763 -0.366,0.3441 -0.731,0.6237 -1.097,0.7957 -0.366,0.1936 -0.688,0.3226 -0.968,0.4086 l 2.818,5.6559 z m -3.957,-12.215 -0.623,3.6129 h 3.892 c 0.645,0 1.161,-0.1291 1.527,-0.4086 0.366,-0.2796 0.602,-0.7527 0.71,-1.3979 0.129,-0.6451 0.043,-1.1182 -0.237,-1.3978 -0.279,-0.2796 -0.752,-0.4086 -1.398,-0.4086 z"
         style="fill:url(#linearGradient379)" />
      <path
         id="path247"
         fill="url(#paint13_linear)"
         d="m 136.277,84.5068 c -4.021,0 -5.677,-2 -4.989,-6.0431 l 1.678,-9.3763 h 3.806 l -1.57,8.8602 c -0.107,0.6237 -0.15,1.1613 -0.107,1.5914 0.043,0.4301 0.172,0.7742 0.387,1.0108 0.215,0.258 0.516,0.4301 0.924,0.5591 0.409,0.1075 0.925,0.1721 1.549,0.1721 h 4.172 l -0.559,3.2043 h -5.291 z"
         style="fill:url(#linearGradient381)" />
      <path
         id="path249"
         fill="url(#paint14_linear)"
         d="m 143.613,84.5067 2.71,-15.3978 h 3.806 l -2.709,15.3978 z"
         style="fill:url(#linearGradient383)" />
      <path
         id="path251"
         fill="url(#paint15_linear)"
         d="m 159.226,84.5067 -3.699,-10.6666 -1.871,10.6666 h -3.613 l 2.71,-15.3978 h 4.924 l 3.57,10.4516 1.85,-10.4516 h 3.613 l -2.688,15.3978 z"
         style="fill:url(#linearGradient385)" />
      <path
         id="path253"
         fill="url(#paint16_linear)"
         d="m 174.09,84.5067 c -2.624,0 -4.473,-0.6236 -5.506,-1.8709 -1.032,-1.2473 -1.311,-3.2043 -0.86,-5.828 0.473,-2.6236 1.441,-4.5591 2.903,-5.8064 1.484,-1.2689 3.527,-1.8925 6.151,-1.8925 h 4.774 l -0.581,3.2043 h -4 c -0.688,0 -1.29,0.043 -1.806,0.129 -0.516,0.086 -0.989,0.2581 -1.376,0.4731 -0.387,0.2151 -0.731,0.5162 -1.011,0.8818 -0.28,0.3655 -0.516,0.8387 -0.688,1.3978 h 8.15 l -0.559,3.2043 h -8.15 c -0.022,1.0968 0.258,1.8495 0.881,2.2796 0.624,0.4301 1.613,0.6451 2.99,0.6451 h 4.215 l -0.56,3.2043 h -4.967 z"
         style="fill:url(#linearGradient387)" />
      <path
         id="path255"
         fill="url(#paint17_linear)"
         d="m 181.703,84.5068 0.559,-3.2043 h 7.119 c 0.967,0 1.548,-0.4947 1.72,-1.4624 0.15,-0.9678 -0.258,-1.4624 -1.204,-1.4624 h -2.925 c -3.075,0 -4.344,-1.5484 -3.807,-4.6666 0.56,-3.0753 2.366,-4.6237 5.463,-4.6237 h 7.72 l -0.58,3.2043 h -6.925 c -0.968,0 -1.527,0.4731 -1.699,1.4409 -0.172,0.9677 0.215,1.4408 1.183,1.4408 h 2.881 c 1.549,0 2.646,0.3871 3.291,1.1613 0.645,0.7742 0.838,1.9355 0.58,3.4839 -0.258,1.5484 -0.86,2.7097 -1.785,3.4839 -0.924,0.7741 -2.172,1.1612 -3.72,1.1612 h -7.871 z"
         style="fill:url(#linearGradient389)" />
      <path
         id="path257"
         fill="#324471"
         d="m 39.2656,95.8619 0.5402,-1.614 h 2.4609 l 0.5433,1.614 h 1.2656 L 41.7681,89.3164 H 40.3043 L 38,95.8619 Z m 0.8598,-2.5664 0.8853,-2.6368 h 0.0511 l 0.8853,2.6368 z" />
      <path
         id="path259"
         fill="#324471"
         d="m 47.1702,89.3164 v 6.5455 h 1.1378 v -4.5064 h 0.0607 l 1.8089,4.4872 h 0.8502 l 1.8089,-4.4776 h 0.0608 v 4.4968 h 1.1377 v -6.5455 h -1.4509 l -1.9432,4.7429 h -0.0767 l -1.9432,-4.7429 z" />
      <path
         id="path261"
         fill="#324471"
         d="m 57.4486,95.9577 c 1.1442,0 1.9304,-0.5593 2.1349,-1.4126 l -1.0802,-0.1214 c -0.1566,0.4154 -0.5401,0.6328 -1.0387,0.6328 -0.7479,0 -1.2433,-0.4922 -1.2529,-1.3328 h 3.4198 V 93.369 c 0,-1.7227 -1.0355,-2.4802 -2.2436,-2.4802 -1.4063,0 -2.3235,1.0324 -2.3235,2.5473 0,1.5405 0.9044,2.5216 2.3842,2.5216 z m -1.2337,-3.0138 c 0.0352,-0.6264 0.4986,-1.1538 1.189,-1.1538 0.6647,0 1.1122,0.4858 1.1186,1.1538 z" />
      <path
         id="path263"
         fill="#324471"
         d="m 60.6103,95.8619 h 1.1569 v -2.9851 c 0,-0.6041 0.4027,-1.0132 0.9013,-1.0132 0.489,0 0.8246,0.3292 0.8246,0.8342 v 3.1641 h 1.1346 v -3.0618 c 0,-0.5529 0.3292,-0.9365 0.8885,-0.9365 0.4666,0 0.8373,0.2749 0.8373,0.8821 v 3.1162 h 1.1602 v -3.2951 c 0,-1.0963 -0.6328,-1.678 -1.5341,-1.678 -0.7127,0 -1.2561,0.3516 -1.4734,0.8981 h -0.0511 c -0.1886,-0.5561 -0.6648,-0.8981 -1.3264,-0.8981 -0.6584,0 -1.1505,0.3388 -1.3551,0.8981 h -0.0575 v -0.8341 h -1.1058 z" />
      <path
         id="path265"
         fill="#324471"
         d="m 68.7385,95.8619 h 1.1378 v -0.7735 h 0.0671 c 0.1822,0.358 0.5626,0.8598 1.4063,0.8598 1.157,0 2.0231,-0.9173 2.0231,-2.5345 0,-1.6364 -0.8917,-2.5249 -2.0263,-2.5249 -0.8661,0 -1.2273,0.521 -1.4031,0.8758 h -0.0479 v -2.4482 h -1.157 z m 1.1346,-2.4546 c 0,-0.9524 0.4091,-1.5692 1.1538,-1.5692 0.7702,0 1.1666,0.6552 1.1666,1.5692 0,0.9205 -0.4027,1.5916 -1.1666,1.5916 -0.7383,0 -1.1538,-0.6392 -1.1538,-1.5916 z" />
      <path
         id="path267"
         fill="#324471"
         d="m 76.5297,95.9577 c 1.1441,0 1.9304,-0.5593 2.1349,-1.4126 l -1.0803,-0.1214 c -0.1566,0.4154 -0.5401,0.6328 -1.0387,0.6328 -0.7478,0 -1.2432,-0.4922 -1.2528,-1.3328 h 3.4197 V 93.369 c 0,-1.7227 -1.0355,-2.4802 -2.2436,-2.4802 -1.4062,0 -2.3235,1.0324 -2.3235,2.5473 0,1.5405 0.9045,2.5216 2.3843,2.5216 z M 75.296,92.9439 c 0.0351,-0.6264 0.4986,-1.1538 1.1889,-1.1538 0.6648,0 1.1122,0.4858 1.1186,1.1538 z" />
      <path
         id="path269"
         fill="#324471"
         d="m 79.6913,95.8619 h 1.157 v -2.886 c 0,-0.6233 0.4698,-1.0643 1.1058,-1.0643 0.195,0 0.4379,0.0351 0.5369,0.0671 v -1.0643 c -0.1054,-0.0192 -0.2876,-0.0319 -0.4154,-0.0319 -0.5625,0 -1.0324,0.3196 -1.2113,0.8885 h -0.0512 v -0.8182 h -1.1218 z" />
      <path
         id="path271"
         fill="#324471"
         d="m 87.6334,95.9577 c 1.4382,0 2.3523,-1.0131 2.3523,-2.5312 0,-1.5213 -0.9141,-2.5377 -2.3523,-2.5377 -1.4382,0 -2.3522,1.0164 -2.3522,2.5377 0,1.5181 0.914,2.5312 2.3522,2.5312 z m 0.0064,-0.9268 c -0.7958,0 -1.1857,-0.7095 -1.1857,-1.6076 0,-0.8981 0.3899,-1.6172 1.1857,-1.6172 0.7831,0 1.173,0.7191 1.173,1.6172 0,0.8981 -0.3899,1.6076 -1.173,1.6076 z" />
      <path
         id="path273"
         fill="#324471"
         d="m 93.4542,90.9528 h -1.0195 v -0.3867 c 0,-0.3836 0.1598,-0.5977 0.5912,-0.5977 0.1822,0 0.3356,0.0415 0.4315,0.0703 l 0.2333,-0.8949 c -0.1502,-0.0511 -0.4794,-0.1342 -0.8789,-0.1342 -0.8533,0 -1.5341,0.489 -1.5341,1.4797 v 0.4635 h -0.7255 v 0.8949 h 0.7255 v 4.0142 h 1.157 v -4.0142 h 1.0195 z" />
      <path
         id="path275"
         fill="#324471"
         d="m 97.5195,89.3164 h -1.3007 l 2.3043,6.5455 h 1.4638 l 2.3071,-6.5455 h -1.304 l -1.6999,5.152 H 99.223 Z" />
      <path
         id="path277"
         fill="#324471"
         d="m 103.105,95.8619 h 1.157 v -4.9091 h -1.157 z m 0.582,-5.6059 c 0.368,0 0.668,-0.2812 0.668,-0.6264 0,-0.3483 -0.3,-0.6296 -0.668,-0.6296 -0.371,0 -0.671,0.2813 -0.671,0.6296 0,0.3452 0.3,0.6264 0.671,0.6264 z" />
      <path
         id="path279"
         fill="#324471"
         d="m 107.625,95.9577 c 1.145,0 1.931,-0.5593 2.135,-1.4126 l -1.08,-0.1214 c -0.157,0.4154 -0.54,0.6328 -1.039,0.6328 -0.748,0 -1.243,-0.4922 -1.253,-1.3328 h 3.42 V 93.369 c 0,-1.7227 -1.035,-2.4802 -2.243,-2.4802 -1.407,0 -2.324,1.0324 -2.324,2.5473 0,1.5405 0.905,2.5216 2.384,2.5216 z m -1.233,-3.0138 c 0.035,-0.6264 0.498,-1.1538 1.189,-1.1538 0.664,0 1.112,0.4858 1.118,1.1538 z" />
      <path
         id="path281"
         fill="#324471"
         d="m 113.238,90.9528 h -0.968 v -1.1762 h -1.157 v 1.1762 h -0.697 v 0.8949 h 0.697 v 2.7294 c -0.006,0.9236 0.665,1.3774 1.534,1.3519 0.329,-0.0096 0.556,-0.0735 0.681,-0.1151 l -0.195,-0.9045 c -0.064,0.016 -0.195,0.0448 -0.339,0.0448 -0.291,0 -0.524,-0.1023 -0.524,-0.5689 v -2.5376 h 0.968 z" />
      <path
         id="path283"
         fill="#324471"
         d="m 115.363,92.9854 c 0,-0.7095 0.428,-1.1186 1.039,-1.1186 0.597,0 0.955,0.3931 0.955,1.0483 v 2.9468 h 1.157 v -3.1257 c 0.003,-1.1762 -0.668,-1.8474 -1.681,-1.8474 -0.735,0 -1.24,0.3516 -1.464,0.8981 h -0.057 v -0.8341 h -1.106 v 4.9091 h 1.157 z" />
      <path
         id="path285"
         fill="#324471"
         d="m 121.103,95.9609 c 0.77,0 1.23,-0.3611 1.441,-0.7734 h 0.039 v 0.6744 h 1.112 v -3.2856 c 0,-1.2975 -1.058,-1.6875 -1.994,-1.6875 -1.033,0 -1.825,0.4603 -2.081,1.3552 l 1.08,0.1534 c 0.115,-0.3356 0.441,-0.6233 1.007,-0.6233 0.537,0 0.831,0.2749 0.831,0.7575 v 0.0192 c 0,0.3324 -0.348,0.3483 -1.214,0.441 -0.953,0.1023 -1.864,0.3868 -1.864,1.4926 0,0.9652 0.707,1.4765 1.643,1.4765 z m 0.3,-0.8501 c -0.482,0 -0.827,-0.2205 -0.827,-0.6456 0,-0.4442 0.386,-0.6296 0.904,-0.7031 0.304,-0.0416 0.911,-0.1183 1.061,-0.2397 v 0.5785 c 0,0.5465 -0.441,1.0099 -1.138,1.0099 z" />
      <path
         id="path287"
         fill="#324471"
         d="m 124.858,95.8619 h 1.157 v -2.9851 c 0,-0.6041 0.403,-1.0132 0.902,-1.0132 0.489,0 0.824,0.3292 0.824,0.8342 v 3.1641 h 1.135 v -3.0618 c 0,-0.5529 0.329,-0.9365 0.888,-0.9365 0.467,0 0.838,0.2749 0.838,0.8821 v 3.1162 h 1.16 v -3.2951 c 0,-1.0963 -0.633,-1.678 -1.534,-1.678 -0.713,0 -1.256,0.3516 -1.474,0.8981 h -0.051 c -0.188,-0.5561 -0.665,-0.8981 -1.326,-0.8981 -0.659,0 -1.151,0.3388 -1.355,0.8981 h -0.058 v -0.8341 h -1.106 z" />
      <path
         id="path289"
         fill="#324471"
         d="m 136.06,95.8619 0.54,-1.614 h 2.461 l 0.543,1.614 h 1.266 l -2.308,-6.5455 h -1.464 l -2.304,6.5455 z m 0.859,-2.5664 0.886,-2.6368 h 0.051 l 0.885,2.6368 z" />
      <path
         id="path291"
         fill="#324471"
         d="m 141.716,95.8619 h 1.157 v -4.9091 h -1.157 z m 0.581,-5.6059 c 0.368,0 0.668,-0.2812 0.668,-0.6264 0,-0.3483 -0.3,-0.6296 -0.668,-0.6296 -0.37,0 -0.671,0.2813 -0.671,0.6296 0,0.3452 0.301,0.6264 0.671,0.6264 z" />
      <path
         id="path293"
         fill="#324471"
         d="m 144.062,95.8619 h 1.157 v -2.886 c 0,-0.6233 0.47,-1.0643 1.106,-1.0643 0.195,0 0.438,0.0351 0.537,0.0671 v -1.0643 c -0.105,-0.0192 -0.288,-0.0319 -0.415,-0.0319 -0.563,0 -1.033,0.3196 -1.212,0.8885 h -0.051 v -0.8182 h -1.122 z" />
      <path
         id="path295"
         fill="#324471"
         d="m 148.788,89.3164 h -1.157 v 6.5455 h 1.157 z" />
      <path
         id="path297"
         fill="#324471"
         d="m 149.977,95.8619 h 1.157 v -4.9091 h -1.157 z m 0.582,-5.6059 c 0.368,0 0.668,-0.2812 0.668,-0.6264 0,-0.3483 -0.3,-0.6296 -0.668,-0.6296 -0.371,0 -0.671,0.2813 -0.671,0.6296 0,0.3452 0.3,0.6264 0.671,0.6264 z" />
      <path
         id="path299"
         fill="#324471"
         d="m 153.481,92.9854 c 0,-0.7095 0.428,-1.1186 1.039,-1.1186 0.597,0 0.955,0.3931 0.955,1.0483 v 2.9468 h 1.157 v -3.1257 c 0.004,-1.1762 -0.668,-1.8474 -1.681,-1.8474 -0.735,0 -1.24,0.3516 -1.464,0.8981 h -0.057 v -0.8341 h -1.106 v 4.9091 h 1.157 z" />
      <path
         id="path301"
         fill="#324471"
         d="m 159.982,95.9577 c 1.144,0 1.93,-0.5593 2.135,-1.4126 l -1.081,-0.1214 c -0.156,0.4154 -0.54,0.6328 -1.038,0.6328 -0.748,0 -1.243,-0.4922 -1.253,-1.3328 h 3.42 V 93.369 c 0,-1.7227 -1.036,-2.4802 -2.244,-2.4802 -1.406,0 -2.323,1.0324 -2.323,2.5473 0,1.5405 0.904,2.5216 2.384,2.5216 z m -1.234,-3.0138 c 0.035,-0.6264 0.499,-1.1538 1.189,-1.1538 0.665,0 1.112,0.4858 1.119,1.1538 z" />
      <path
         id="path303"
         fill="#324471"
         d="m 167.023,92.2504 c -0.159,-0.831 -0.824,-1.3616 -1.975,-1.3616 -1.182,0 -1.988,0.5817 -1.984,1.4894 -0.004,0.7159 0.437,1.1889 1.38,1.3839 l 0.838,0.1758 c 0.45,0.099 0.661,0.2812 0.661,0.5593 0,0.3355 -0.364,0.588 -0.914,0.588 -0.53,0 -0.876,-0.2301 -0.975,-0.6711 l -1.128,0.1086 c 0.144,0.9013 0.901,1.435 2.106,1.435 1.228,0 2.094,-0.636 2.097,-1.566 -0.003,-0.6999 -0.454,-1.1282 -1.381,-1.3296 l -0.837,-0.1789 c -0.499,-0.1119 -0.697,-0.2845 -0.694,-0.5689 -0.003,-0.3324 0.365,-0.5625 0.847,-0.5625 0.534,0 0.815,0.2908 0.905,0.6136 z" />
      <path
         id="path305"
         fill="#324471"
         d="m 174.751,91.4066 h 1.209 c -0.202,-1.2848 -1.314,-2.1797 -2.762,-2.1797 -1.713,0 -2.998,1.2593 -2.998,3.3686 0,2.071 1.228,3.3559 3.033,3.3559 1.621,0 2.781,-1.042 2.781,-2.7295 v -0.7862 h -2.656 v 0.9269 h 1.508 c -0.019,0.9332 -0.642,1.5245 -1.626,1.5245 -1.097,0 -1.848,-0.8214 -1.848,-2.3044 0,-1.4733 0.764,-2.2915 1.822,-2.2915 0.79,0 1.326,0.4219 1.537,1.1154 z" />
      <path
         id="path307"
         fill="#324471"
         d="m 177.109,95.8619 h 1.157 v -2.886 c 0,-0.6233 0.47,-1.0643 1.106,-1.0643 0.195,0 0.438,0.0351 0.537,0.0671 v -1.0643 c -0.105,-0.0192 -0.288,-0.0319 -0.415,-0.0319 -0.563,0 -1.033,0.3196 -1.212,0.8885 h -0.051 v -0.8182 h -1.122 z" />
      <path
         id="path309"
         fill="#324471"
         d="m 182.617,95.9577 c 1.438,0 2.352,-1.0131 2.352,-2.5312 0,-1.5213 -0.914,-2.5377 -2.352,-2.5377 -1.438,0 -2.352,1.0164 -2.352,2.5377 0,1.5181 0.914,2.5312 2.352,2.5312 z m 0.006,-0.9268 c -0.796,0 -1.185,-0.7095 -1.185,-1.6076 0,-0.8981 0.389,-1.6172 1.185,-1.6172 0.783,0 1.173,0.7191 1.173,1.6172 0,0.8981 -0.39,1.6076 -1.173,1.6076 z" />
      <path
         id="path311"
         fill="#324471"
         d="m 189.08,93.7972 c 0,0.7479 -0.534,1.1186 -1.045,1.1186 -0.556,0 -0.927,-0.3931 -0.927,-1.0163 v -2.9467 h -1.157 v 3.1257 c 0,1.1793 0.671,1.8473 1.636,1.8473 0.736,0 1.253,-0.3867 1.477,-0.9365 h 0.051 v 0.8726 h 1.122 v -4.9091 h -1.157 z" />
      <path
         id="path313"
         fill="#324471"
         d="m 191.427,97.7028 h 1.157 v -2.6144 h 0.048 c 0.182,0.358 0.562,0.8598 1.406,0.8598 1.157,0 2.023,-0.9173 2.023,-2.5345 0,-1.6364 -0.892,-2.5249 -2.026,-2.5249 -0.866,0 -1.228,0.521 -1.403,0.8758 h -0.068 v -0.8118 h -1.137 z m 1.134,-4.2955 c 0,-0.9524 0.409,-1.5692 1.154,-1.5692 0.77,0 1.167,0.6552 1.167,1.5692 0,0.9205 -0.403,1.5916 -1.167,1.5916 -0.738,0 -1.154,-0.6392 -1.154,-1.5916 z" />
    </g>
  </g>
</svg>
