<?xml version="1.0" encoding="UTF-8" standalone="no"?>
<svg
   xmlns:dc="http://purl.org/dc/elements/1.1/"
   xmlns:cc="http://creativecommons.org/ns#"
   xmlns:rdf="http://www.w3.org/1999/02/22-rdf-syntax-ns#"
   xmlns:svg="http://www.w3.org/2000/svg"
   xmlns="http://www.w3.org/2000/svg"
   width="500"
   height="200"
   viewBox="0 0 132.29166 52.916668"
   version="1.1"
   id="svg8">
  <defs
     id="defs2" />
  <metadata
     id="metadata5">
    <rdf:RDF>
      <cc:Work
         rdf:about="">
        <dc:format>image/svg+xml</dc:format>
        <dc:type
           rdf:resource="http://purl.org/dc/dcmitype/StillImage" />
        <dc:title></dc:title>
      </cc:Work>
    </rdf:RDF>
  </metadata>
  <g
     id="layer1">
    <g
       aria-label="o"
       transform="matrix(0.45541725,0,-0.03495993,0.7957111,-8.9794191,-75.60376)"
       id="text849-9"
       style="font-style:normal;font-variant:normal;font-weight:normal;font-stretch:normal;font-size:25.5398px;line-height:1.25;font-family:AeonisLTW01-HeavyExtdIt;-inkscape-font-specification:AeonisLTW01-HeavyExtdIt;opacity:1;fill:#000000;fill-opacity:1;stroke:none;stroke-width:0.638498">
      <path
         id="path1449"
         style="fill:#4d5256;fill-opacity:1;stroke:none;stroke-width:0.231476px;stroke-linecap:butt;stroke-linejoin:miter;stroke-opacity:1"
         d="m 176.5867,95.845083 -53.58351,40.777717 55.30709,-18.32489 58.1205,18.32489 z M 78.977895,159.05852 h -4.345652 l -2.192241,-3.13357 h -7.472336 l -1.604414,3.13357 h -4.23769 l 6.768791,-12.21029 h 4.224183 z m -8.029747,-5.27845 -2.770276,-4.08333 -2.094715,4.08333 z m 67.693882,5.27845 h -4.34565 l -2.19224,-3.13357 h -7.47234 l -1.60442,3.13357 h -4.23768 l 6.76878,-12.21029 h 4.22419 z m -8.02975,-5.27845 -2.77027,-4.08333 -2.09472,4.08333 z m 172.55448,5.27845 -0.93731,-12.21029 h 3.88679 l 10.73242,8.15407 -0.62594,-8.15407 h 3.71133 l 0.93733,12.21029 h -4.00826 l -10.59625,-7.96251 0.61124,7.96251 z m -33.13456,-6.03018 c -0.0955,-1.24379 0.1258,-2.2877 0.66381,-3.1317 0.40213,-0.6219 0.9711,-1.17994 1.70692,-1.67413 0.74482,-0.49418 1.57143,-0.86065 2.4798,-1.09942 1.2079,-0.32206 3.00344,-0.48309 4.61395,-0.48309 2.91509,0 5.75181,0.55805 7.58295,1.67414 1.84013,1.11608 2.8365,2.66804 2.98909,4.65589 0.15132,1.97119 -0.59841,3.51483 -2.24919,4.63092 -1.65122,1.11053 -4.3935,1.6658 -7.29958,1.6658 -2.9421,0 -5.71012,-0.5525 -7.5314,-1.65747 -1.82171,-1.11053 -2.80717,-2.63752 -2.95635,-4.58094 z m 4.10982,-0.0833 c 0.10614,1.38261 0.70405,2.43206 1.7937,3.14836 1.08925,0.71073 2.81646,1.0661 4.40897,1.0661 1.5925,0 3.33364,-0.35259 4.2962,-1.05778 0.97111,-0.71074 1.40233,-1.77407 1.29364,-3.19 -0.10741,-1.39926 -0.6869,-2.44317 -1.73843,-3.13169 -1.04256,-0.68854 -2.85069,-1.0328 -4.49718,-1.0328 -1.64648,0 -3.33306,0.34982 -4.28704,1.04945 -0.9544,0.69408 -1.37769,1.74354 -1.26986,3.14836 z m -20.30356,6.11347 -0.93731,-12.21029 h 3.99476 l 0.93732,12.21029 z m -22.32168,0 -0.77876,-10.1447 h -6.9138 l -0.15856,-2.06559 h 17.7316 l 0.15856,2.06559 h -6.82304 l 0.77875,10.1447 z m -16.7368,0 h -4.34565 l -2.19224,-3.13357 h -7.47234 l -1.60441,3.13357 h -4.23769 l 6.76879,-12.21029 h 4.22419 z m -8.02974,-5.27845 -2.77028,-4.08333 -2.09472,4.08333 z m -27.27809,5.27845 -0.93732,-12.21029 h 3.99475 l 0.93733,12.21029 z m -23.51172,0 -8.82044,-12.21029 h 4.33216 l 6.51198,9.03695 5.15577,-9.03695 h 4.23769 l -7.15248,12.21029 z M 89.554669,146.84823 h 8.460265 c 5.934766,0 9.596526,2.04358 9.917266,6.22175 0.29927,3.89855 -4.37917,5.9787 -8.764014,5.98854 h -8.676199 z m 4.153322,2.06559 0.620831,8.08744 h 3.349601 c 2.939547,0 6.181587,-1.16867 5.961207,-4.03955 -0.21627,-2.81733 -3.28669,-4.04789 -6.97766,-4.04789 z m -59.88283,10.1447 -0.937318,-12.21029 h 6.410504 c 2.429245,0 4.017445,0.0611 4.764592,0.18324 1.147712,0.18324 2.127606,0.58303 2.939682,1.19937 0.81165,0.61079 1.254771,1.40205 1.329364,2.37376 0.05754,0.74962 -0.0917,1.67691 -0.49335,2.18776 -0.401649,0.51085 -0.93307,0.91341 -1.594266,1.20771 -0.652627,0.28873 -1.326207,0.4803 -2.020742,0.5747 -0.944755,0.1166 -2.321348,0.1749 -4.129786,0.1749 H 37.48915 l 0.33077,4.30885 z m 3.216005,-10.1447 0.288781,3.76194 h 2.186319 c 1.574513,0 2.622282,-0.0639 3.143314,-0.19158 0.52103,-0.1277 0.919559,-0.32759 1.19558,-0.59967 0.285019,-0.27208 0.390869,-0.88567 0.363163,-1.24659 -0.0341,-0.44422 -0.273667,-0.81069 -0.7187,-1.09943 -0.445034,-0.28874 -0.994221,-0.46919 -1.647559,-0.54138 -0.481116,-0.0555 -1.441447,-0.0833 -2.880999,-0.0833 z" />
    </g>
  </g>
</svg>
