<?xml version="1.0" encoding="UTF-8" ?>
<!DOCTYPE svg PUBLIC "-//W3C//DTD SVG 1.1//EN" "http://www.w3.org/Graphics/SVG/1.1/DTD/svg11.dtd">
<svg width="564.75pt" height="99.75pt" viewBox="0 0 1907 337" version="1.1" xmlns="http://www.w3.org/2000/svg">
<g id="#004680ff">
<path fill="#004680" opacity="1.00" d=" M 1598.20 44.16 C 1625.81 19.95 1662.76 8.91 1698.92 7.06 C 1712.63 6.91 1726.34 7.06 1740.05 6.98 C 1742.42 6.94 1744.80 7.06 1747.17 7.41 C 1731.22 10.60 1715.78 16.14 1701.11 23.12 C 1685.44 30.79 1670.45 40.87 1659.93 55.00 C 1620.86 106.47 1581.68 157.85 1542.69 209.37 C 1518.27 209.53 1493.84 209.39 1469.42 209.44 C 1502.55 165.90 1535.63 122.33 1568.74 78.78 C 1578.01 66.79 1586.56 54.03 1598.20 44.16 Z" />
<path fill="#004680" opacity="1.00" d=" M 5.99 329.14 C 28.95 258.59 51.92 188.04 74.91 117.50 C 95.94 117.50 116.97 117.48 138.01 117.51 C 151.19 117.61 164.91 122.11 173.98 132.03 C 182.65 141.32 185.89 154.62 184.84 167.06 C 183.27 185.94 174.13 203.59 161.52 217.49 C 145.37 235.12 123.05 247.81 99.02 250.00 C 88.20 250.63 77.11 249.69 66.86 246.02 C 61.24 262.69 55.81 279.43 50.38 296.16 C 47.94 303.92 43.67 311.18 37.57 316.62 C 28.96 324.39 17.45 328.38 5.99 329.14 M 97.63 151.22 C 91.68 169.84 85.57 188.42 79.51 207.01 C 85.02 213.51 93.91 215.64 102.04 216.42 C 116.74 217.22 130.79 209.16 139.88 197.98 C 146.10 190.19 150.41 180.16 149.18 170.04 C 148.45 163.24 144.26 156.88 138.07 153.86 C 133.76 151.65 128.83 151.09 124.04 151.14 C 115.24 151.19 106.43 151.06 97.63 151.22 Z" />
<path fill="#004680" opacity="1.00" d=" M 107.32 329.12 C 160.67 258.55 214.09 188.02 267.50 117.48 C 273.18 188.02 278.88 258.55 284.49 329.10 C 272.19 329.10 259.89 329.10 247.59 329.10 C 246.60 314.53 245.89 299.94 244.87 285.37 C 222.02 285.38 199.16 285.39 176.30 285.37 C 169.53 294.25 162.82 303.19 156.07 312.08 C 152.73 316.55 147.95 319.68 142.92 321.94 C 131.73 326.86 119.43 328.55 107.32 329.12 M 201.86 251.66 C 215.49 251.71 229.12 251.68 242.75 251.68 C 241.70 235.05 240.65 218.42 239.63 201.79 C 226.96 218.35 214.42 235.01 201.86 251.66 Z" />
<path fill="#004680" opacity="1.00" d=" M 360.31 124.57 C 361.02 122.25 361.77 119.93 362.70 117.69 C 384.14 160.46 405.38 203.33 426.77 246.12 C 437.44 213.83 447.82 181.44 458.42 149.13 C 460.72 142.24 464.57 135.84 469.83 130.82 C 478.51 122.48 490.47 118.11 502.38 117.41 C 479.46 187.99 456.37 258.50 433.53 329.10 C 411.99 286.29 390.90 243.26 369.27 200.50 C 358.75 232.57 348.37 264.68 337.88 296.75 C 335.35 304.66 330.78 311.97 324.42 317.37 C 315.90 324.65 304.79 328.41 293.70 329.14 C 315.89 260.94 338.11 192.76 360.31 124.57 Z" />
<path fill="#004680" opacity="1.00" d=" M 1465.01 247.94 C 1465.11 240.07 1472.77 235.14 1479.99 234.87 C 1479.93 259.63 1480.15 284.39 1479.89 309.13 C 1479.75 316.96 1472.08 321.81 1464.91 322.11 C 1464.96 297.39 1464.76 272.66 1465.01 247.94 Z" />
<path fill="#004680" opacity="1.00" d=" M 1495.00 234.96 C 1504.33 234.97 1513.66 234.90 1523.00 234.98 C 1529.78 235.09 1536.50 237.94 1541.15 242.90 C 1547.42 249.38 1549.80 259.34 1547.04 267.93 C 1545.19 273.96 1540.93 279.07 1535.56 282.31 C 1542.07 295.61 1548.95 308.74 1555.57 321.99 C 1550.76 322.01 1545.95 322.00 1541.15 322.00 C 1535.02 309.96 1528.94 297.89 1522.80 285.86 C 1518.56 285.84 1514.33 285.84 1510.10 285.86 C 1510.06 293.23 1510.14 300.61 1510.08 307.98 C 1510.07 311.91 1508.51 315.95 1505.34 318.40 C 1502.44 320.83 1498.63 321.57 1495.01 322.11 C 1494.99 293.06 1495.00 264.01 1495.00 234.96 M 1510.10 250.05 C 1510.09 256.98 1510.09 263.91 1510.10 270.85 C 1515.25 270.65 1520.48 271.31 1525.59 270.44 C 1532.77 268.70 1535.66 258.77 1530.48 253.48 C 1525.25 247.82 1516.84 250.77 1510.10 250.05 Z" />
<path fill="#004680" opacity="1.00" d=" M 1558.99 247.92 C 1559.07 240.04 1566.77 235.13 1573.99 234.87 C 1574.01 258.87 1573.98 282.86 1574.01 306.85 C 1584.05 306.85 1594.10 306.85 1604.15 306.85 C 1604.15 311.90 1604.14 316.95 1604.15 321.99 C 1589.06 322.00 1573.98 322.00 1558.90 322.00 C 1558.95 297.30 1558.79 272.61 1558.99 247.92 Z" />
<path fill="#004680" opacity="1.00" d=" M 1611.88 247.98 C 1611.91 240.10 1619.61 235.14 1626.84 234.88 C 1626.86 258.59 1626.83 282.31 1626.86 306.02 C 1626.90 309.78 1626.35 313.84 1623.77 316.77 C 1620.83 320.30 1616.17 321.54 1611.81 322.11 C 1611.84 297.40 1611.69 272.68 1611.88 247.98 Z" />
<path fill="#004680" opacity="1.00" d=" M 1689.81 247.03 C 1690.35 239.54 1697.83 235.22 1704.70 234.89 C 1704.72 263.91 1704.69 292.93 1704.71 321.95 C 1688.87 305.38 1673.01 288.81 1657.12 272.29 C 1657.07 284.19 1657.12 296.10 1657.02 308.01 C 1656.96 311.90 1655.45 315.89 1652.34 318.34 C 1649.41 320.79 1645.57 321.57 1641.91 322.11 C 1641.95 293.07 1641.96 264.03 1641.96 234.99 C 1657.86 251.52 1673.66 268.15 1689.60 284.63 C 1689.77 272.10 1689.35 259.55 1689.81 247.03 Z" />
<path fill="#004680" opacity="1.00" d=" M 1722.27 240.38 C 1725.56 236.36 1731.00 234.94 1736.01 234.94 C 1748.02 234.96 1760.03 234.95 1772.04 234.96 C 1772.04 240.02 1772.04 245.08 1772.04 250.14 C 1759.49 250.16 1746.93 250.13 1734.38 250.16 C 1734.36 257.10 1734.40 264.03 1734.35 270.96 C 1746.91 271.05 1759.48 270.97 1772.04 271.00 C 1772.04 276.05 1772.04 281.10 1772.04 286.15 C 1759.49 286.16 1746.93 286.13 1734.38 286.16 C 1734.37 293.04 1734.37 299.91 1734.38 306.78 C 1746.93 306.81 1759.49 306.78 1772.04 306.80 C 1772.04 311.84 1772.04 316.88 1772.04 321.92 C 1754.48 321.92 1736.92 321.94 1719.36 321.91 C 1719.37 298.25 1719.36 274.59 1719.36 250.92 C 1719.29 247.24 1719.81 243.29 1722.27 240.38 Z" />
<path fill="#004680" opacity="1.00" d=" M 1791.52 239.48 C 1798.99 234.10 1808.72 234.58 1817.42 235.39 C 1824.33 236.50 1828.08 243.58 1828.41 250.04 C 1820.57 250.12 1812.74 249.92 1804.91 250.12 C 1799.17 250.43 1794.60 256.33 1795.61 261.96 C 1796.23 266.53 1800.22 270.44 1804.87 270.77 C 1810.31 271.12 1815.98 270.62 1821.15 272.78 C 1830.91 276.43 1837.75 286.57 1837.33 297.01 C 1837.30 307.08 1830.56 316.67 1821.14 320.20 C 1815.07 322.66 1808.40 321.76 1802.04 321.92 C 1797.02 321.79 1791.53 322.68 1787.05 319.88 C 1782.61 317.16 1780.81 311.84 1780.39 306.91 C 1791.28 306.82 1802.19 307.04 1813.08 306.81 C 1820.96 306.37 1825.31 295.84 1820.03 289.95 C 1816.51 285.19 1810.16 286.17 1805.01 285.84 C 1795.62 285.60 1786.68 279.68 1782.83 271.12 C 1777.58 260.29 1781.47 246.11 1791.52 239.48 Z" />
<path fill="#004680" opacity="1.00" d=" M 1377.73 330.06 C 1401.76 298.37 1425.81 266.68 1449.87 235.01 C 1449.83 264.00 1449.86 293.00 1449.85 321.99 C 1444.66 322.01 1439.48 322.00 1434.30 322.00 C 1434.28 318.13 1434.29 314.26 1434.29 310.39 C 1426.00 310.36 1417.72 310.37 1409.44 310.39 C 1404.27 316.17 1400.94 324.43 1393.13 327.16 C 1388.22 329.10 1382.94 329.70 1377.73 330.06 M 1420.94 295.28 C 1425.38 295.30 1429.83 295.30 1434.29 295.29 C 1434.28 289.45 1434.32 283.61 1434.26 277.77 C 1429.71 283.53 1425.33 289.41 1420.94 295.28 Z" />
</g>
<g id="#fc4c02ff">
<path fill="#fc4c02" opacity="1.00" d=" M 1699.26 47.21 C 1726.59 21.31 1764.16 6.03 1801.93 7.00 C 1834.58 7.01 1867.23 6.99 1899.88 7.01 C 1872.04 26.75 1848.73 52.11 1827.88 78.95 C 1813.78 97.03 1800.72 115.89 1787.67 134.73 C 1777.86 148.94 1767.31 162.82 1754.35 174.32 C 1742.84 184.65 1729.31 192.67 1714.79 197.95 C 1694.38 205.43 1672.58 208.11 1650.98 209.10 C 1625.15 209.67 1599.31 209.23 1573.48 209.38 C 1605.91 166.80 1638.26 124.15 1670.67 81.55 C 1679.75 69.75 1688.26 57.37 1699.26 47.21 Z" />
</g>
<g id="#009cdeff">
<path fill="#009cde" opacity="1.00" d=" M 494.79 329.13 C 517.78 258.61 540.69 188.07 563.71 117.56 C 584.81 117.59 605.91 117.54 627.02 117.59 C 639.69 117.69 652.79 121.92 661.80 131.11 C 669.38 138.71 673.26 149.41 673.65 160.03 C 674.23 174.54 669.52 188.84 662.24 201.25 C 651.48 219.39 634.87 233.92 615.66 242.56 C 597.00 251.18 575.03 252.72 555.56 245.94 C 549.70 263.30 544.19 280.77 538.40 298.14 C 534.42 310.04 525.11 319.90 513.53 324.68 C 507.59 327.23 501.22 328.63 494.79 329.13 M 586.42 151.11 C 580.34 169.74 574.34 188.39 568.21 207.00 C 572.80 212.60 580.10 214.89 587.00 216.02 C 594.12 217.34 601.52 216.13 608.17 213.40 C 620.73 208.17 631.35 197.83 636.08 184.98 C 638.96 177.12 639.31 167.63 634.47 160.45 C 630.42 154.39 623.06 151.34 615.95 151.16 C 606.11 151.03 596.26 151.14 586.42 151.11 Z" />
<path fill="#009cde" opacity="1.00" d=" M 596.15 329.10 C 649.45 258.61 702.79 188.14 756.17 117.71 C 762.00 188.15 767.54 258.61 773.22 329.06 C 760.93 329.04 748.65 329.11 736.37 329.03 C 735.50 314.46 734.57 299.90 733.75 285.33 C 710.87 285.26 687.99 285.36 665.11 285.28 C 658.12 294.29 651.35 303.47 644.40 312.51 C 641.28 316.52 636.95 319.41 632.39 321.55 C 621.06 326.75 608.49 328.44 596.15 329.10 M 690.56 251.71 C 704.23 251.78 717.91 251.76 731.58 251.72 C 730.45 235.07 729.50 218.41 728.43 201.76 C 715.63 218.27 703.11 235.01 690.56 251.71 Z" />
<path fill="#009cde" opacity="1.00" d=" M 883.16 129.40 C 908.85 118.21 938.50 113.31 965.69 121.90 C 961.85 133.64 958.20 145.45 954.15 157.11 C 942.17 150.86 928.14 149.31 914.87 151.22 C 899.05 153.42 884.04 159.95 870.88 168.88 C 855.78 179.20 842.81 192.84 834.03 208.94 C 827.24 221.45 823.02 235.68 823.99 250.02 C 824.65 267.01 834.78 283.45 850.24 290.84 C 869.31 300.25 891.98 297.35 911.13 289.70 C 907.23 301.40 903.41 313.13 899.67 324.89 C 880.67 330.15 860.21 331.64 841.01 326.54 C 824.49 321.93 808.78 312.29 799.50 297.56 C 789.15 281.94 786.31 262.30 789.12 244.00 C 793.69 213.70 809.77 185.90 831.42 164.54 C 846.37 149.86 863.87 137.65 883.16 129.40 Z" />
<path fill="#009cde" opacity="1.00" d=" M 992.64 137.49 C 1001.05 125.08 1015.96 118.25 1030.68 117.50 C 1012.42 173.59 994.06 229.66 975.83 285.76 C 973.24 293.29 971.43 301.25 966.97 307.98 C 958.73 321.11 943.31 328.16 928.20 329.13 C 946.50 272.84 964.94 216.60 983.22 160.30 C 985.86 152.52 987.78 144.29 992.64 137.49 Z" />
<path fill="#009cde" opacity="1.00" d=" M 1062.12 117.56 C 1104.19 117.58 1146.27 117.55 1188.35 117.57 C 1184.68 128.60 1181.22 139.71 1177.49 150.72 C 1174.90 151.65 1171.80 150.87 1169.03 151.10 C 1140.97 151.08 1112.91 151.16 1084.86 151.06 C 1080.85 162.91 1077.06 174.84 1073.14 186.72 C 1094.38 186.78 1115.62 186.75 1136.86 186.73 C 1133.21 197.93 1129.61 209.14 1125.92 220.32 C 1104.70 220.29 1083.48 220.33 1062.26 220.30 C 1053.62 246.31 1045.33 272.45 1036.70 298.47 C 1032.46 310.85 1022.42 320.91 1010.16 325.40 C 1004.75 327.53 999.01 328.64 993.24 329.15 C 1016.13 258.60 1039.15 188.09 1062.12 117.56 Z" />
<path fill="#009cde" opacity="1.00" d=" M 1218.11 134.14 C 1226.81 123.78 1240.28 118.21 1253.61 117.50 C 1234.19 177.03 1214.75 236.55 1195.39 296.09 C 1192.84 304.31 1188.18 311.96 1181.54 317.50 C 1173.06 324.67 1162.06 328.33 1151.09 329.14 C 1170.32 270.09 1189.64 211.08 1208.82 152.02 C 1210.77 145.56 1213.68 139.30 1218.11 134.14 Z" />
<path fill="#009cde" opacity="1.00" d=" M 1342.34 123.27 C 1363.57 116.70 1386.91 115.14 1408.30 121.92 C 1404.47 133.66 1400.61 145.39 1396.86 157.16 C 1378.76 147.73 1356.89 149.14 1338.21 156.08 C 1319.77 162.89 1303.29 174.63 1290.33 189.36 C 1279.51 201.76 1271.08 216.60 1267.76 232.83 C 1264.09 249.60 1267.50 268.67 1279.75 281.25 C 1291.91 294.09 1310.77 298.38 1327.87 296.28 C 1336.71 295.34 1345.38 293.03 1353.62 289.70 C 1349.86 301.48 1346.00 313.22 1342.14 324.97 C 1318.76 331.29 1292.69 332.28 1270.39 321.63 C 1257.49 315.78 1246.33 305.95 1239.59 293.42 C 1229.60 275.76 1228.82 254.28 1233.40 234.88 C 1241.22 201.49 1262.23 172.11 1289.13 151.25 C 1304.95 138.75 1323.07 129.22 1342.34 123.27 Z" />
</g>
</svg>
