<svg width="2494" height="779" xmlns="http://www.w3.org/2000/svg" xmlns:xlink="http://www.w3.org/1999/xlink" xml:space="preserve" overflow="hidden"><defs><clipPath id="clip0"><rect x="953" y="848" width="2494" height="779"/></clipPath></defs><g clip-path="url(#clip0)" transform="translate(-953 -848)"><path d="M1781.35 1111.75C1730.37 1111.75 1686.53 1142.4 1667.23 1186.31L1895.47 1186.31C1876.17 1142.4 1832.33 1111.75 1781.35 1111.75ZM1112.77 1088.01C1144.45 1126.54 1163.43 1175.83 1163.43 1229.57L1163.43 1627 1058.17 1627C1058.18 1496.89 1058.2 1366.78 1058.21 1236.67 1058.21 1180 1078.76 1128.12 1112.77 1088.01ZM953 1007.7 985.334 1010.94C1025.28 1019.1 1061.32 1037.97 1090.36 1064.4 1065.68 1092.69 1046.99 1126.26 1036.22 1163.17 1018.83 1138.36 992.293 1120.37 961.536 1114.07L953 1113.23ZM3233.23 1006.58C3351.3 1006.58 3447 1102.15 3447 1220.02L3447 1456.18 3341.74 1456.18 3341.74 1220.02C3341.74 1160.16 3293.17 1111.65 3233.23 1111.65 3203.59 1111.65 3176.73 1123.53 3157.15 1142.77L3157.15 1020.49C3180.76 1011.5 3206.42 1006.58 3233.23 1006.58ZM2760 1006.58C2859.32 1006.58 2943.94 1069.64 2976.09 1157.93L2856.77 1157.93C2833.86 1129.74 2798.88 1111.75 2759.72 1111.75 2690.7 1111.75 2634.75 1167.67 2634.75 1236.67 2634.75 1305.66 2690.7 1361.58 2759.72 1361.58 2797.86 1361.58 2832 1344.52 2854.87 1317.63L2975.25 1317.63C2942.55 1404.75 2858.49 1466.75 2760 1466.75 2633.03 1466.75 2530.09 1363.72 2530.09 1236.67 2530.09 1109.61 2633.03 1006.58 2760 1006.58ZM2268.45 1006.58C2384.15 1006.58 2479.85 1092.09 2495.95 1203.37 2497.53 1213.99 2498.31 1224.79 2498.36 1235.83L2498.36 1456.18 2393.15 1456.18 2393.15 1235.83C2393.05 1224.61 2391.52 1213.71 2388.6 1203.37 2374.13 1150.56 2325.83 1111.75 2268.45 1111.75 2199.56 1111.75 2143.75 1167.67 2143.75 1236.67 2143.75 1305.66 2199.56 1361.58 2268.45 1361.58 2305 1361.58 2337.85 1345.82 2360.67 1320.78L2360.67 1447.46C2332.47 1459.89 2301.25 1466.75 2268.45 1466.75 2141.48 1466.75 2038.54 1363.72 2038.54 1236.67 2038.54 1109.61 2141.48 1006.58 2268.45 1006.58ZM1781.35 1006.58C1908.32 1006.58 2011.26 1109.61 2011.26 1236.67 2011.26 1249.05 2010.29 1261.24 2008.38 1273.11L1662.08 1273.11C1677.62 1324.35 1725.12 1361.58 1781.35 1361.58 1823.94 1361.58 1861.51 1340.21 1884.01 1307.61L2000.08 1307.61C1970.2 1399.98 1883.59 1466.75 1781.35 1466.75 1654.38 1466.75 1551.44 1363.72 1551.44 1236.67 1551.44 1109.61 1654.38 1006.58 1781.35 1006.58ZM1288.4 1006.58C1415.51 1006.58 1518.59 1109.61 1518.59 1236.67 1518.59 1363.72 1415.51 1466.75 1288.4 1466.75 1255.51 1466.75 1224.2 1459.84 1195.9 1447.37L1195.9 1320.69C1218.77 1345.82 1251.76 1361.58 1288.4 1361.58 1357.43 1361.58 1413.38 1305.66 1413.38 1236.67 1413.38 1167.67 1357.43 1111.75 1288.4 1111.75 1246.74 1111.75 1209.86 1132.1 1187.18 1163.4 1177.3 1126.82 1159.44 1093.25 1135.45 1064.82 1176.14 1028.61 1229.67 1006.58 1288.4 1006.58ZM3019.47 848 3124.63 848 3124.63 1036.12 3124.63 1456.18 3019.47 1456.18 3019.47 1220.02Z" fill="#9B308C" fill-rule="evenodd"/></g></svg>