<?xml version="1.0" encoding="UTF-8" standalone="no"?>
<svg
   xmlns:svg="http://www.w3.org/2000/svg"
   xmlns="http://www.w3.org/2000/svg"
   version="1.1"
   width="452.84375"
   height="173.125"
   id="svg3714">
  <defs
     id="defs3716" />
  <g
     transform="translate(-123.57813,-445.79968)"
     id="layer1">
    <path
       d="m 559.95312,445.79968 c -5.04921,0 -8.98575,0.74298 -11.78125,2.25 -3.20528,1.73923 -4.8125,4.45016 -4.8125,8.15625 l 0,6.59375 c 0,2.3129 0.589,4.09625 1.75,5.34375 1.15645,1.24295 3.40359,2.65254 6.75,4.21875 2.24915,1.03808 4.68151,2.15605 7.28125,3.3125 1.8485,0.98344 2.75,3.14904 2.75,6.5 l 0,3.8125 c 0,0.81043 -0.18004,1.44248 -0.5625,1.875 -0.37333,0.43252 -0.93169,0.65625 -1.6875,0.65625 -0.75122,0 -1.34023,-0.21918 -1.75,-0.65625 -0.41431,-0.43253 -0.59375,-1.06458 -0.59375,-1.875 l 0,-10.40625 -14.25,0 0,10.53125 c 0,3.7061 1.65359,6.3479 5,7.96875 2.73176,1.32946 6.55159,2 11.46875,2 5.05376,0 9.03791,-0.74298 11.90625,-2.25 3.34641,-1.73466 5,-4.45015 5,-8.15625 l 0,-7.40625 c 0,-2.83649 -0.99277,-5.06665 -2.96875,-6.6875 -0.95611,-0.81041 -3.44394,-2.11239 -7.46875,-3.90625 l -5.53125,-2.53125 c -2.04426,-1.10181 -3.0625,-2.65232 -3.0625,-4.6875 l 0,-4.625 c 0,-0.81042 0.24524,-1.40729 0.71875,-1.8125 0.47805,-0.40521 1.04036,-0.625 1.71875,-0.625 0.6101,0 1.1515,0.22373 1.625,0.65625 0.47807,0.43253 0.71875,1.03001 0.71875,1.78125 l 0,9.625 13.9375,0 0,-9.71875 c 0,-3.69698 -1.60267,-6.35246 -4.8125,-7.96875 -2.66345,-1.32946 -6.43114,-1.96875 -11.34375,-1.96875 z m -329.375,16.53125 c -10.03924,0 -17.8471,1.67697 -23.40625,4.96875 -6.37411,3.80171 -9.5625,9.73951 -9.5625,17.84375 l 0,64.40625 c 0,8.23171 3.27054,14.22954 9.78125,18.03125 5.42255,3.16885 13.14826,4.75 23.1875,4.75 10.03467,0 17.76039,-1.46111 23.1875,-4.375 6.77933,-3.67421 10.15625,-9.48745 10.15625,-17.46875 l 0,-20.3125 -28.34375,0 0,20.09375 c 0,1.77109 -0.38619,3.11549 -1.1875,4.0625 -0.80588,0.95156 -2.02236,1.4375 -3.625,1.4375 -1.60719,0 -2.79244,-0.45924 -3.59375,-1.40625 -0.80133,-0.95156 -1.21875,-2.3181 -1.21875,-4.09375 l 0,-25.03125 37.96875,0 0,-41.03125 c 0,-8.10879 -3.37693,-13.95326 -10.15625,-17.5 -5.55914,-2.91389 -13.28941,-4.375 -23.1875,-4.375 z m 74.78125,0 c -10.03467,0 -17.89803,1.67697 -23.59375,4.96875 -6.64274,3.80171 -9.96875,9.73951 -9.96875,17.84375 l 0,64.40625 c 0,8.23171 3.32601,14.22954 9.96875,18.03125 5.55915,3.16885 13.4225,4.75 23.59375,4.75 10.03924,0 17.67823,-1.46111 22.96875,-4.375 6.5107,-3.54219 9.78125,-9.36452 9.78125,-17.46875 l 0,-66.28125 c 0,-7.09349 -3.16291,-12.51659 -9.46875,-16.25 -6.31038,-3.73796 -14.05699,-5.625 -23.28125,-5.625 z m 198.21875,0 c -10.03469,0 -17.8471,1.67697 -23.40625,4.96875 -6.3741,3.80171 -9.5625,9.73951 -9.5625,17.84375 l 0,64.40625 c 0,8.23171 3.27054,14.22954 9.78125,18.03125 5.42255,3.16885 13.15281,4.75 23.1875,4.75 10.03467,0 17.7604,-1.46111 23.1875,-4.375 6.77935,-3.67421 10.15625,-9.48745 10.15625,-17.46875 l 0,-20.3125 -28.34375,0 0,20.09375 c 0,1.77109 -0.38618,3.11549 -1.1875,4.0625 -0.80131,0.95156 -2.01781,1.4375 -3.625,1.4375 -1.60264,0 -2.78787,-0.45924 -3.59375,-1.40625 -0.80131,-0.95156 -1.21875,-2.3181 -1.21875,-4.09375 l 0,-25.03125 37.96875,0 0,-41.03125 c 0,-8.10879 -3.3769,-13.95326 -10.15625,-17.5 -5.55914,-2.91389 -13.2894,-4.375 -23.1875,-4.375 z m -378.68749,0.625 0,108.75 28.31249,0 0,-35.21875 6.375,0 c 7.53966,0 13.67244,-0.9491 18.34375,-2.875 4.67132,-1.96686 7.90399,-4.73781 9.625,-8.34375 1.76199,-3.60593 2.625,-9.37279 2.625,-17.28125 l 0,-10.78125 c 0,-7.74455 -0.44226,-13.49963 -1.34375,-17.1875 -0.90147,-3.68789 -2.61571,-6.82474 -5.15625,-9.40625 -2.54055,-2.6225 -6.24321,-5.01657 -11.40625,-6 -5.5728,-1.10637 -9.83514,-1.59375 -19.21875,-1.59375 l -28.15624,-0.0625 z m 220.28124,0 0,108.71875 28.28125,0 0,-35.15625 6.375,0 c 7.55334,0 13.66334,-0.97125 18.34375,-2.90625 4.67588,-1.935 7.87212,-4.72416 9.625,-8.34375 1.74832,-3.61959 2.65625,-9.37735 2.65625,-17.28125 l 0,-10.78125 c 0,-7.7491 -0.47807,-13.49051 -1.375,-17.1875 -0.90149,-3.69244 -2.6157,-6.83777 -5.15625,-9.4375 -2.54054,-2.60429 -6.26141,-4.97165 -11.40625,-5.96875 -5.59555,-1.0836 -9.81693,-1.59375 -19.21875,-1.59375 l -28.125,-0.0625 z m 71.21875,0.0937 0,108.375 49.0625,0 0,-24.78125 -20.96875,0 0,-83.59375 -28.09375,0 z m -258.3125,15.84375 c 0.91205,-0.0611 4.57534,0.0291 4.71875,5.15625 l 0,30.40625 c 0,0 0.0867,5.05836 -5.28125,4.8125 0,0 -4.25213,0.22554 -4.375,-4.9375 l 0.0312,-30.1562 c 0,0 -0.36233,-4.7173 4.71875,-5.25 0,0 0.0572,-0.0225 0.1875,-0.0312 z m 220.25,0 c 0.91721,-0.0568 4.57932,0.037 4.71875,5.15625 l 0,30.375 c 0,0 0.0912,5.1163 -5.28125,4.875 0,0 -4.28337,0.20794 -4.40625,-4.96875 l 0.0625,-30.15625 c 0,0 -0.37081,-4.73096 4.6875,-5.25 0,0 0.0877,-0.0231 0.21875,-0.0312 z m -147.5625,0.125 c 1.60264,0 2.81912,0.45593 3.625,1.34375 0.80131,0.88783 1.1875,2.19311 1.1875,3.96875 l 0,24.71875 -9.625,0 0,-24.71875 c 0,-1.77564 0.4729,-3.08093 1.40625,-3.96875 0.93336,-0.88783 2.06769,-1.34375 3.40625,-1.34375 z m 74.1875,0 c 1.60264,0 2.79243,0.45593 3.59375,1.34375 0.80586,0.88782 1.21875,2.19766 1.21875,3.96875 l 0,65.9375 c 0,1.77564 -0.41289,3.11549 -1.21875,4.0625 -0.80132,0.95156 -1.99111,1.4375 -3.59375,1.4375 -1.60719,0 -2.82369,-0.48594 -3.625,-1.4375 -0.80587,-0.94701 -1.1875,-2.28686 -1.1875,-4.0625 l 0,-65.9375 c 0,-1.77109 0.46835,-3.08093 1.40625,-3.96875 0.93336,-0.88783 2.06769,-1.34375 3.40625,-1.34375 z m 198.8125,0 c 1.60719,0 2.82369,0.45593 3.625,1.34375 0.80133,0.88783 1.1875,2.19311 1.1875,3.96875 l 0,24.71875 -9.625,0 0,-24.71875 c 0,-1.77564 0.4729,-3.08093 1.40625,-3.96875 0.93791,-0.88783 2.07225,-1.34375 3.40625,-1.34375 z m -118,102.28125 0,1.5625 c 5.36798,0.32781 5.5,0.42739 5.5,3.46875 l 0,27.53125 c 0,3.04591 -0.13209,3.14094 -5.5,3.46875 l 0,1.59375 31.65625,0 0.71875,-9.75 -1.8125,0 c -1.22019,7.12535 -4.56732,7.84375 -10.96875,7.84375 -3.05048,0 -5.25187,-0.12998 -6.53125,-0.5625 -1.27938,-0.49172 -1.53125,-1.39903 -1.53125,-4.0625 l 0,-26.0625 c 0,-3.04136 0.17079,-3.14094 5.84375,-3.46875 l 0,-1.5625 -17.375,0 z m 39.34375,0 0,1.5625 c 5.36343,0.32781 5.5,0.42739 5.5,3.46875 l 0,27.53125 c 0,3.04591 -0.13664,3.14094 -5.5,3.46875 l 0,1.59375 17,0 0,-1.59375 c -5.30417,-0.32781 -5.46875,-0.42284 -5.46875,-3.46875 l 0,-27.53125 c 0,-3.04136 0.16458,-3.14094 5.46875,-3.46875 l 0,-1.5625 -17,0 z m 25.90625,0 0,1.5625 c 5.36791,0.32781 5.5,0.42739 5.5,3.46875 l 0,21.53125 c 0,2.88201 -0.13245,4.95614 -0.4375,6.75 -0.36879,2.28558 -1.82659,2.5002 -5,2.71875 l 0,1.59375 14.46875,0 0,-1.59375 c -3.96561,-0.27317 -5.44371,-0.43318 -5.8125,-2.71875 -0.30497,-1.79386 -0.40625,-3.86799 -0.40625,-6.75 l 0,-21.6875 0.125,0 c 8.72342,10.92706 17.36845,21.81839 25.96875,32.75 l 4.03125,0 0,-26.59375 c 0,-2.882 0.13246,-4.95614 0.4375,-6.75 0.36424,-2.28103 1.83115,-2.50021 5,-2.71875 l 0,-1.5625 -14.46875,0 0,1.5625 c 3.96562,0.27317 5.41246,0.43772 5.78125,2.71875 0.3051,1.79386 0.4375,3.868 0.4375,6.75 l 0,19.0625 -0.125,-0.0937 c -7.99041,-10.00281 -15.91376,-19.99719 -23.78125,-30 l -11.71875,0 z m 52.34375,0 0,1.5625 c 5.36798,0.32781 5.5,0.42739 5.5,3.46875 l 0,27.53125 c 0,3.04591 -0.13207,3.14094 -5.5,3.46875 l 0,1.59375 32.3125,0 0.75,-9.40625 -1.84375,0 c -1.4023,6.63364 -4.12714,7.5 -11.8125,7.5 -2.86834,0 -5.06438,-0.12998 -6.34375,-0.5625 -1.27936,-0.49172 -1.53125,-1.39903 -1.53125,-4.0625 l 0,-12.03125 8.53125,0 c 5.1858,0 5.4224,1.32164 5.96875,4.75 l 1.84375,0 0,-11.46875 -1.84375,0 c -0.54635,3.36917 -0.78295,4.65625 -5.96875,4.65625 l -8.53125,0 0,-13.15625 c 0,-1.73922 0.29679,-1.96875 2.25,-1.96875 l 5.96875,0 c 6.95235,0 8.3628,1.3765 9.21875,7.03125 l 1.8125,0 0,-8.90625 -30.78125,0 z"
       id="path206"
       style="fill:#9c9d9f;fill-opacity:1;fill-rule:nonzero;stroke:none" />
    <path
       d="m 123.57813,581.29968 0,1.5625 c 3.41469,0.10926 4.1548,0.33674 5.37499,3.21875 1.94866,4.56659 4.20842,10.00129 6.34375,15.4375 l 6.875,17.40625 4.34375,0 7.78125,-18.78125 c 2.49956,-6.0372 4.94021,-11.58674 6.40625,-14.46875 1.27939,-2.5542 2.02071,-2.6486 5.3125,-2.8125 l 0,-1.5625 -13.46875,0 0,1.5625 3.34375,0.28125 c 1.58899,0.10926 1.6488,0.65398 1.34375,1.6875 -0.66929,2.39485 -2.55092,7.15299 -4.75,12.59375 l -6.34375,15.625 -0.125,-0.125 -5.65625,-13.96875 c -1.88948,-4.7305 -3.79057,-9.52694 -5.375,-13.875 -0.48716,-1.36132 -0.30525,-1.82825 1.15625,-1.9375 l 3.15625,-0.28125 0,-1.5625 -15.71874,0 z m 46.59374,0 0,1.5625 c 5.36791,0.32781 5.5,0.42739 5.5,3.46875 l 0,27.53125 c 0,3.04591 -0.13209,3.14094 -5.5,3.46875 l 0,1.59375 17,0 0,-1.59375 c -5.30417,-0.32781 -5.46875,-0.42284 -5.46875,-3.46875 l 0,-27.53125 c 0,-3.04136 0.16458,-3.14094 5.46875,-3.46875 l 0,-1.5625 -17,0 z m 25.96875,0 0,1.5625 c 5.36341,0.32781 5.5,0.42739 5.5,3.46875 l 0,27.53125 c 0,3.04591 -0.13664,3.14094 -5.5,3.46875 l 0,1.59375 32.34375,0 0.71875,-9.40625 -1.8125,0 c -1.4023,6.63364 -4.15839,7.5 -11.84375,7.5 -2.8638,0 -5.06437,-0.12998 -6.34375,-0.5625 -1.27938,-0.49172 -1.53125,-1.39903 -1.53125,-4.0625 l 0,-12.03125 8.5625,0 c 5.18124,0 5.4224,1.32164 5.96875,4.75 l 1.8125,0 0,-11.46875 -1.8125,0 c -0.54635,3.36917 -0.78751,4.65625 -5.96875,4.65625 l -8.5625,0 0,-13.15625 c 0,-1.73922 0.29679,-1.96875 2.25,-1.96875 l 6,0 c 6.95234,0 8.33155,1.3765 9.1875,7.03125 l 1.84375,0 0,-8.90625 -30.8125,0 z m 41.59375,0 0,1.5625 c 5.36796,0.32781 5.5,0.42739 5.5,3.46875 l 0,21.53125 c 0,2.88201 -0.13245,4.95614 -0.4375,6.75 -0.36424,2.28558 -1.83114,2.5002 -5,2.71875 l 0,1.59375 14.46875,0 0,-1.59375 c -3.96105,-0.27317 -5.44826,-0.43318 -5.8125,-2.71875 -0.30509,-1.79386 -0.40625,-3.86799 -0.40625,-6.75 l 0,-21.6875 0.125,0 c 8.71889,10.92706 17.36825,21.81839 25.96875,32.75 l 4.03125,0 0,-26.59375 c 0,-2.882 0.13247,-4.95614 0.4375,-6.75 0.3688,-2.28103 1.8266,-2.50021 5,-2.71875 l 0,-1.5625 -14.46875,0 0,1.5625 c 3.96561,0.27317 5.41702,0.43772 5.78125,2.71875 0.30499,1.79386 0.4375,3.868 0.4375,6.75 l 0,19.0625 -0.125,-0.0937 c -7.98585,-10.00281 -15.91376,-19.99719 -23.78125,-30 l -11.71875,0 z m 52.28125,0 0,1.5625 c 5.36797,0.32781 5.5,0.42739 5.5,3.46875 l 0,21.53125 c 0,2.88201 -0.13245,4.95614 -0.4375,6.75 -0.36424,2.28558 -1.83114,2.5002 -5,2.71875 l 0,1.59375 14.4375,0 0,-1.59375 c -3.96105,-0.27317 -5.41701,-0.43318 -5.78125,-2.71875 -0.3051,-1.79386 -0.4375,-3.86799 -0.4375,-6.75 l 0,-21.6875 0.125,0 c 8.71889,10.92706 17.40404,21.81839 26,32.75 l 4,0 0,-26.59375 c 0,-2.882 0.13245,-4.95614 0.4375,-6.75 0.36879,-2.28103 1.8266,-2.50021 5,-2.71875 l 0,-1.5625 -14.4375,0 0,1.5625 c 3.96561,0.27317 5.41246,0.43772 5.78125,2.71875 0.30055,1.79386 0.4375,3.868 0.4375,6.75 l 0,19.0625 -0.125,-0.0937 c -7.98585,-10.00281 -15.91377,-19.99719 -23.78125,-30 l -11.71875,0 z m 67.09375,0 -6.40625,16.09375 c -1.88948,4.7305 -4.4584,11.243 -6.59375,16.1875 -1.27938,2.93664 -1.81811,3.58609 -5.65625,3.75 l 0,1.59375 13.40625,0 0,-1.59375 -3.1875,-0.28125 c -1.83029,-0.16391 -1.98716,-0.68565 -1.5,-2.15625 1.03806,-3.26446 2.31646,-6.63911 3.71875,-10.5 l 13.65625,0 4.09375,10.375 c 0.6101,1.57988 0.29697,2.17985 -1.65625,2.34375 l -2.75,0.21875 0,1.59375 15.625,0 0,-1.59375 c -3.53764,-0.27318 -4.21524,-0.42263 -5.3125,-3.25 l -12.9375,-32.78125 -4.5,0 z m 0.46875,5.46875 0.1875,0 6.03125,15.5625 -12.125,0 c 1.95322,-5.43621 4.07596,-10.77736 5.90625,-15.5625 z"
       id="path242"
       style="fill:#0076bd;fill-opacity:1;fill-rule:nonzero;stroke:none" />
  </g>
</svg>
