<?xml version="1.0" encoding="UTF-8" standalone="no"?>
<svg xmlns="http://www.w3.org/2000/svg" xml:space="preserve" width="100" height="65" viewBox="0 0 100 64.999998">
  <path fill="#cf3828" d="M13.628982 63.803665h3.58097l6.36969-9.10496h-3.58097zm5.48237 0h7.47884l.85563-1.2304h-3.89787l1.9014-2.70688h3.89787l.85563-1.2304h-3.89787l1.9014-2.70688h3.89787l.85563-1.2304h-7.47884zm74.09122-7.87456h2.8521l.85563-1.2304h-8.65137l-.85563 1.26116h2.2183l-5.51406 7.8438h3.58097zm-77.51374-1.2304h-6.94011l-6.36969 9.10496h3.58097l2.09154-2.95296h4.30984s1.14084.03076 1.67957-.73824l2.82041-4.02956s.9507-1.3842-1.17253-1.3842zm-1.45774 1.59952-2.15492 3.04524c-.19014.27684-.66549.27684-.66549.27684h-2.50351l2.56689-3.66044h2.5352c.47535-.03076.22183.33836.22183.33836zm28.10903-1.59952h-7.16194l-6.36969 9.10496h8.14433s1.14084 0 1.67957-.73824l4.91195-6.98252c-.03169 0 .91901-1.3842-1.20422-1.3842zm-1.45774 1.59952-4.24646 5.9982c-.19014.27684-.66549.27684-.66549.27684h-2.75703l4.65843-6.6134h2.78872c.50704-.03076.22183.33836.22183.33836zm19.48935 7.50544c-2.12323 0-1.17253-1.3842-1.17253-1.3842l4.91195-6.98252c.53873-.769 1.67957-.73824 1.67957-.73824h6.87673c2.12323 0 1.17253 1.3842 1.17253 1.3842l-4.91195 6.98252c-.53873.769-1.67957.73824-1.67957.73824h-6.87673zm4.94364-1.2304s.47535 0 .66549-.27684l4.24646-6.02896s.28521-.33836-.22183-.33836h-2.28168s-.47535 0-.66549.27684l-4.24646 6.02896s-.25352.33836.22183.33836h2.28168zm-12.51755 1.2304h3.58097l5.35561-7.75152s.9507-1.3842-1.17253-1.3842h-14.13374l-6.36969 9.10496h3.58097l5.51406-7.87456h2.28168c.25352 0 .3169.09228.28521.18456l-5.3873 7.69h3.58097l5.51406-7.87456h2.44013c.38028 0 .28521.21532.22183.3076l-5.29223 7.59772Zm24.21116 0h3.58097l5.35561-7.75152s.9507-1.3842-1.17253-1.3842h-7.98588l-6.36969 9.10496h3.58097-3.58097 3.58097l5.51406-7.87456h2.56689c.38028 0 .28521.21532.25352.3076l-5.32392 7.59772z"/>
  <path fill="#1c68a7" d="m47.253623 37.691311 35.01804-36.605317-.411977 6.0598728L51.721988 39.075543c-.538739.52294-.158452.861304-.158452.861304.507048.338373.887334-.307603.887334-.307603L81.732924 8.7146666l-.411977 5.8137834-23.039018 24.516332c-.538739.52294-.158453.861303-.158453.861303.507049.338373.887336-.307602.887336-.307602l22.183373-23.470471-.475358 6.644325-15.750195 16.364729c-.507049.430656-.348596.799781-.348596.799781.190143.522939.950716.369133.950716.369133h19.584754c-14.070601 10.058767-63.444452 4.798675-63.444452 4.798675-1.774671-.123035-.760574-1.076621-.760574-1.076621l2.059885-1.968695c1.20424-1.0151 2.97891-.953578 2.97891-.953578 5.894438-.584461 14.831169-.738258 14.831169-.738258 4.341604.06153 6.433179-2.676192 6.433179-2.676192z"/>
</svg>