<svg width="275" height="47" viewBox="0 0 275 47" fill="none" xmlns="http://www.w3.org/2000/svg">
<path fill-rule="evenodd" clip-rule="evenodd" d="M6.29698 31.3115C6.29698 31.3115 18.9165 28.9737 30.2226 25.7798C38.4511 23.4559 42.6834 21.72 45.7748 20.268C48.8682 18.8181 45.3898 18.0434 45.3898 18.0434C45.3898 18.0434 39.4015 16.8835 31.2841 16.3035C23.1667 15.7235 19.4007 17.0781 16.7895 17.9481C14.1822 18.8181 4.85645 23.2593 4.85645 23.2593C4.85645 10.4977 15.1922 0.153351 27.9387 0.153351C40.6873 0.153351 51.021 10.4977 51.021 23.2593C51.021 36.0209 40.6873 46.3653 27.9387 46.3653C18.0197 46.3653 9.56299 40.1026 6.29698 31.3115Z" fill="#009DDC"/>
<path fill-rule="evenodd" clip-rule="evenodd" d="M2.3946 30.5202C2.3946 30.5202 -2.72664 30.9075 2.00966 28.5856C6.74199 26.2657 16.4051 22.4938 16.4051 22.4938C16.4051 22.4938 20.8497 20.2692 25.7765 20.5592C30.7053 20.8492 31.4771 21.0439 31.4771 21.0439C31.4771 21.0439 35.8265 21.7192 31.866 23.0738C27.9016 24.4264 19.0123 27.0383 15.8277 27.7156C12.6371 28.393 5.48798 30.0376 2.3946 30.5202Z" fill="#0065A4"/>
<path fill-rule="evenodd" clip-rule="evenodd" d="M69.408 22.6926H74.0848C76.8845 22.6926 79.3767 22.0789 79.3767 18.5851C79.3767 15.0913 76.8845 14.4775 74.0848 14.4775H69.408V22.6926ZM63.3879 9.79398H75.7337C82.5613 9.79398 85.2063 14.1319 85.2063 18.5851C85.2063 23.0382 82.5613 27.3762 75.7337 27.3762H69.408V37.2021H63.3879V9.79398Z" fill="#535B61"/>
<path fill-rule="evenodd" clip-rule="evenodd" d="M88.5425 37.2023H93.9871V9.79416H88.5425V37.2023Z" fill="#535B61"/>
<path fill-rule="evenodd" clip-rule="evenodd" d="M110.631 27.4904C109.71 28.2968 107.793 28.3345 106.105 28.6424C104.418 28.988 102.884 29.564 102.884 31.5582C102.884 33.5941 104.458 34.0927 106.222 34.0927C110.478 34.0927 110.631 30.7141 110.631 29.5243V27.4904ZM98.0528 23.4583C98.3603 18.3537 102.924 16.8183 107.371 16.8183C111.321 16.8183 116.075 17.7022 116.075 22.4612V32.7877C116.075 34.5912 116.268 36.3967 116.766 37.2031H111.248C111.053 36.5874 110.899 35.9359 110.861 35.2824C109.135 37.0879 106.605 37.7394 104.19 37.7394C100.43 37.7394 97.4417 35.8584 97.4417 31.7886C97.4417 27.2977 100.813 26.2232 104.19 25.7644C107.527 25.2638 110.631 25.379 110.631 23.1525C110.631 20.8107 109.02 20.4651 107.103 20.4651C105.031 20.4651 103.69 21.3112 103.499 23.4583H98.0528Z" fill="#535B61"/>
<path fill-rule="evenodd" clip-rule="evenodd" d="M120.296 17.3564H125.471V20.1192H125.588C126.967 17.8947 129.346 16.8181 131.648 16.8181C137.437 16.8181 138.894 20.0815 138.894 24.9955V37.2029H133.447V25.9926C133.447 22.7312 132.489 21.1183 129.961 21.1183C127.006 21.1183 125.741 22.7689 125.741 26.799V37.2029H120.296V17.3564Z" fill="#535B61"/>
<path fill-rule="evenodd" clip-rule="evenodd" d="M156.382 25.1492C155.884 22.3863 154.693 20.9264 152.046 20.9264C148.598 20.9264 147.596 23.6138 147.524 25.1492H156.382ZM147.524 28.6053C147.675 32.0593 149.364 33.6324 152.39 33.6324C154.58 33.6324 156.34 32.2897 156.687 31.0603H161.481C159.947 35.7438 156.687 37.74 152.203 37.74C145.951 37.74 142.08 33.4418 142.08 27.2983C142.08 21.3495 146.179 16.8189 152.203 16.8189C158.951 16.8189 162.209 22.5015 161.824 28.6053H147.524Z" fill="#535B61"/>
<path fill-rule="evenodd" clip-rule="evenodd" d="M169.727 28.1054C169.727 31.7521 172.566 33.1723 175.787 33.1723C177.896 33.1723 181.116 32.5585 181.116 29.7559C181.116 26.8004 177.011 26.3018 172.987 25.2253C168.919 24.1507 164.816 22.5776 164.816 17.4333C164.816 11.8301 170.11 9.1427 175.056 9.1427C180.767 9.1427 186.025 11.6374 186.025 17.9715H180.194C180.003 14.6704 177.664 13.8263 174.787 13.8263C172.87 13.8263 170.648 14.6307 170.648 16.9347C170.648 19.0461 171.951 19.3142 178.815 21.08C180.811 21.5786 186.944 22.8458 186.944 29.0647C186.944 34.0939 182.993 37.8558 175.556 37.8558C169.497 37.8558 163.82 34.8606 163.897 28.1054H169.727Z" fill="#535B61"/>
<path fill-rule="evenodd" clip-rule="evenodd" d="M203.282 25.1492C202.782 22.3863 201.593 20.9264 198.944 20.9264C195.498 20.9264 194.498 23.6138 194.422 25.1492H203.282ZM194.422 28.6053C194.575 32.0593 196.264 33.6324 199.292 33.6324C201.48 33.6324 203.24 32.2897 203.589 31.0603H208.381C206.848 35.7438 203.589 37.74 199.101 37.74C192.851 37.74 188.978 33.4418 188.978 27.2983C188.978 21.3495 193.079 16.8189 199.101 16.8189C205.851 16.8189 209.108 22.5015 208.727 28.6053H194.422Z" fill="#535B61"/>
<path fill-rule="evenodd" clip-rule="evenodd" d="M211.947 17.3564H217.126V20.1192H217.241C218.622 17.8947 220.997 16.8181 223.299 16.8181C229.089 16.8181 230.545 20.0815 230.545 24.9955V37.2029H225.099V25.9926C225.099 22.7312 224.14 21.1183 221.612 21.1183C218.658 21.1183 217.392 22.7689 217.392 26.799V37.2029H211.947V17.3564Z" fill="#535B61"/>
<path fill-rule="evenodd" clip-rule="evenodd" d="M238.907 30.753C238.946 33.1325 240.936 34.0939 243.087 34.0939C244.657 34.0939 246.655 33.4781 246.655 31.5594C246.655 29.9089 244.391 29.3328 240.478 28.4887C237.335 27.7975 234.19 26.6852 234.19 23.1914C234.19 18.1245 238.561 16.8195 242.819 16.8195C247.151 16.8195 251.139 18.2774 251.562 23.1536H246.385C246.23 21.0423 244.621 20.4663 242.663 20.4663C241.436 20.4663 239.635 20.6967 239.635 22.3075C239.635 24.2659 242.704 24.5341 245.81 25.263C248.994 25.994 252.096 27.146 252.096 30.8285C252.096 36.0503 247.572 37.7386 243.048 37.7386C238.448 37.7386 233.962 36.0126 233.73 30.753H238.907Z" fill="#535B61"/>
<path fill-rule="evenodd" clip-rule="evenodd" d="M268.627 25.1492C268.127 22.3863 266.938 20.9264 264.289 20.9264C260.843 20.9264 259.843 23.6138 259.767 25.1492H268.627ZM259.767 28.6053C259.918 32.0593 261.609 33.6324 264.635 33.6324C266.825 33.6324 268.585 32.2897 268.932 31.0603H273.724C272.192 35.7438 268.932 37.74 264.446 37.74C258.196 37.74 254.325 33.4418 254.325 27.2983C254.325 21.3495 258.424 16.8189 264.446 16.8189C271.196 16.8189 274.454 22.5015 274.072 28.6053H259.767Z" fill="#535B61"/>
</svg>
