<svg id="Layer_1" data-name="Layer 1" xmlns="http://www.w3.org/2000/svg" viewBox="0 0 761.78 221.89"><defs><style>.cls-1{fill:#b85e56;}</style></defs><path class="cls-1" d="M292.13,5.46H86.72L75,26h36.87L46.94,139H11.77L0,159.55H167.82L179.59,139H141.27l23.34-40.68h99.62c66.56,0,91.44-36,91.44-54.79S341.89,5.46,292.13,5.46Zm-66.9,74.75H175L206.15,26H249.1c18.16,0,23.53,5.51,23.53,19.29S258.85,80.21,225.23,80.21Z"/><path class="cls-1" d="M513.4,155.49c-2.62,1.46-5.38,2.81-8.23,4.06h43.95L560.89,139H533.61C528.74,145.16,522,150.73,513.4,155.49Z"/><path class="cls-1" d="M544.6,42.56c0-9.75-4-37.1-42.36-37.1H342.7a51.89,51.89,0,0,1,5.94,3.79,41.26,41.26,0,0,1,17.24,34.32c0,6.78-2.15,14.22-6.23,21.49a71.72,71.72,0,0,1-18.46,21c-13.15,10.26-37.18,22.49-77,22.49h-19l-18,30.47H194.48l-11.76,20.51H459.88c32.95,0,73-18.49,73-44.38s-24.2-35-24.2-35C539.22,76.18,544.6,52.31,544.6,42.56ZM381.55,139H326.42L358.19,82.5h53.95c14.12,0,24.88,8.8,24.88,22.59S413.83,139,381.55,139Zm38.33-74.63H368.35L390,26h43.36c9.75,0,17.48,1.47,17.48,13.24S437,64.41,419.88,64.41Z"/><path class="cls-1" d="M734.28,139a6.47,6.47,0,0,1-6.47-6.47V5.46h-150L564.93,26h32.53L532.1,86a44.86,44.86,0,0,1,10.3,26.55l16.94-17.19H628.8l.68,43.7H589.63l-11.76,20.51H750L761.78,139ZM577.73,76.68l50-50.72.8,50.72Z"/><path class="cls-1" d="M22,207.08v-3.92h3.61l-2.35-5.57H10.75l-2.27,5.57H12v3.92H0v-3.92H3.57l10-23.23H9.83V176h9.4l11.44,27.15H34.2v3.92Zm-5-25.72L12,193.89H22Z"/><path class="cls-1" d="M66.22,207.08v-3.92h3.4v-9c0-1.74-.13-3.26-1.31-4.61a5.28,5.28,0,0,0-4.13-1.87c-2.87,0-5.7,1.91-5.7,6.17v9.27h3.35v3.92h-11v-3.92h3.4v-8.83c0-4.61-2.13-6.61-5.4-6.61-3,0-5.57,2.22-5.57,6.44v9h3.35v3.92h-11v-3.92h3.39V187.93H35.68V184H43v3.7a7.84,7.84,0,0,1,6.87-4.18c3.22,0,5.87,1.65,7.48,5.05a8.33,8.33,0,0,1,7.84-5.05,8.75,8.75,0,0,1,7.52,4.22,10.49,10.49,0,0,1,1.13,5.4v10h3.35v3.92Z"/><path class="cls-1" d="M114.09,195.29v7.87h3.35v3.92h-11v-3.92h3.4V187.93h-3.4V184h7.27v4.31c1.61-3.09,3.7-4.22,7.27-4.49v4.27C116.48,188.41,114.09,191.11,114.09,195.29Z"/><path class="cls-1" d="M123.62,207.08v-3.92H127V187.93h-3.39V184h7.61v19.14h3.35v3.92ZM127,181.15V176h4.22v5.14Z"/><path class="cls-1" d="M149.68,207.73a12.21,12.21,0,0,1-12.14-12.18,12,12,0,0,1,11.71-12.14,9.75,9.75,0,0,1,7.35,3.26V184h3.57v7.31h-3.83a8.12,8.12,0,0,0-6.7-3.74,8,8,0,0,0,.08,16,7.31,7.31,0,0,0,6.66-4H161A12.1,12.1,0,0,1,149.68,207.73Z"/><path class="cls-1" d="M183,207.08v-3.92a9.53,9.53,0,0,1-8.35,4.4A11.83,11.83,0,0,1,163,195.68a12.09,12.09,0,0,1,11.88-12.14A9.25,9.25,0,0,1,183,188v-4h7.57v3.91h-3.31v15.23h3.31v3.92Zm-7.92-19.36a7.87,7.87,0,0,0-7.87,7.87,7.78,7.78,0,0,0,7.83,7.79,7.93,7.93,0,0,0,8-7.92A7.8,7.8,0,0,0,175.09,187.72Z"/><path class="cls-1" d="M195.93,187.15h-1V184.5h.44c1,0,1.39-.83,1.39-2.09v-.92h-1.83V176h4.39v6.75C199.28,185.41,198.11,187.15,195.93,187.15Z"/><path class="cls-1" d="M212.56,207.56a7.3,7.3,0,0,1-6.1-2.79v2.31h-3.17v-6.75h4.22c.43,2.61,2,4,4.48,4s4-1.43,4-3.43c0-1.53-1-2.57-2.7-3.05-5-1.39-9.75-2.22-9.75-7.57,0-3.66,3-6.7,7.4-6.7a6.17,6.17,0,0,1,5.22,2.22V184h3.14v6.09h-4.09a3.35,3.35,0,0,0-3.66-3.26c-2.09,0-3.52,1.3-3.52,3.13a3.06,3.06,0,0,0,2.69,3c4.75,1.26,9.75,2,9.75,7.57C220.43,204.42,217.21,207.56,212.56,207.56Z"/><path class="cls-1" d="M251.37,207.86a16.32,16.32,0,1,1,16.31-16.4A16.34,16.34,0,0,1,251.37,207.86Zm0-27.93a11.62,11.62,0,1,0,11.57,11.53A11.57,11.57,0,0,0,251.37,179.93Z"/><path class="cls-1" d="M270.77,207.08v-3.92h3.57V179.93H271V176h7.61v27.15H282v3.92Z"/><path class="cls-1" d="M305.19,207.08v-4.14a9.76,9.76,0,0,1-8.44,4.62,11.82,11.82,0,0,1-11.83-12,12,12,0,0,1,11.7-12,10.1,10.1,0,0,1,8.57,4.66v-8.27H301.8V176h7.61v27.15h3.35v3.92Zm-7.92-19.36a7.83,7.83,0,1,0,8,7.74A7.8,7.8,0,0,0,297.27,187.72Z"/><path class="cls-1" d="M351.79,207.56a7.29,7.29,0,0,1-6.09-2.79v2.31h-3.17v-6.75h4.22c.43,2.61,1.95,4,4.48,4s4-1.43,4-3.43c0-1.53-1-2.57-2.7-3.05-5-1.39-9.75-2.22-9.75-7.57,0-3.66,3-6.7,7.4-6.7a6.17,6.17,0,0,1,5.22,2.22V184h3.13v6.09H354.4a3.34,3.34,0,0,0-3.65-3.26c-2.09,0-3.53,1.3-3.53,3.13a3.07,3.07,0,0,0,2.7,3c4.74,1.26,9.75,2,9.75,7.57C359.67,204.42,356.45,207.56,351.79,207.56Z"/><path class="cls-1" d="M365.54,207.08V187.93h-4V184h4v-8h4.22v8h4.44v3.91h-4.44v15.23h4.75v3.92Z"/><path class="cls-1" d="M408.1,207.08l-9.88-14h3.31c5.13,0,7.57-2.91,7.57-6.53,0-3.13-1.79-6.39-6.66-6.39h-5.53v23h3v3.92H388.6v-3.92h3.66V179.93H388.6V176h14.19c7.48,0,11,4.88,11,10.36,0,4.57-2.78,9-8.4,9.53l5.57,7.26h3.79v3.92Z"/><path class="cls-1" d="M467.92,187.93v16.49c0,3.44-.65,6.14-3,8.53a12.34,12.34,0,0,1-8.87,3.48c-5.18,0-9.49-2.61-10.93-7.13H450a6.81,6.81,0,0,0,6.13,3.65,7.58,7.58,0,0,0,7.66-7.79v-2.3a9.18,9.18,0,0,1-8.31,4.7,11.93,11.93,0,0,1-11.79-12,12.11,12.11,0,0,1,11.92-12.05,9.32,9.32,0,0,1,8.4,4.66V184h7.26v3.91ZM456,187.72a7.83,7.83,0,1,0,0,15.66,8,8,0,0,0,8.05-8A7.82,7.82,0,0,0,456,187.72Z"/><path class="cls-1" d="M474.71,207.08v-3.92h3.4V187.93h-3.4V184h7.62v19.14h3.35v3.92Zm3.4-25.93V176h4.22v5.14Z"/><path class="cls-1" d="M500.73,207.73a12.16,12.16,0,1,1,12.14-12.27A12.26,12.26,0,0,1,500.73,207.73Zm0-20.14a8,8,0,1,0,7.79,8A7.82,7.82,0,0,0,500.78,187.59Z"/><path class="cls-1" d="M532.1,207.08v-3.92h3.4v-8.79c0-4.78-2.87-6.65-6-6.65-3.39,0-6,1.95-6,7v8.48h3.35v3.92H516v-3.92h3.4V187.93H516V184h7.62v3.65a7.88,7.88,0,0,1,7.18-4.13,8.9,8.9,0,0,1,8.35,5.57,11,11,0,0,1,.61,4v10.09h3.35v3.92Z"/><path class="cls-1" d="M565.35,207.08v-3.92a9.56,9.56,0,0,1-8.36,4.4,11.83,11.83,0,0,1-11.7-11.88,12.09,12.09,0,0,1,11.88-12.14,9.27,9.27,0,0,1,8.18,4.48v-4h7.57v3.91h-3.31v15.23h3.31v3.92Zm-7.92-19.36a7.87,7.87,0,0,0-7.88,7.87,7.79,7.79,0,0,0,7.84,7.79,7.93,7.93,0,0,0,8-7.92A7.8,7.8,0,0,0,557.43,187.72Z"/><path class="cls-1" d="M576.4,207.08v-3.92H580V179.93h-3.4V176h7.62v27.15h3.39v3.92Z"/><path class="cls-1" d="M622.57,207.08v-3.92h3.61l-2.35-5.57H611.34l-2.26,5.57h3.48v3.92h-12v-3.92h3.57l10-23.23h-3.74V176h9.4l11.44,27.15h3.52v3.92Zm-5-25.72-5.05,12.53h10.05Z"/><path class="cls-1" d="M636.27,207.08v-3.92h3.4V187.93h-3.4V184h7.62v19.14h3.35v3.92Zm3.4-25.93V176h4.22v5.14Z"/><path class="cls-1" d="M658.29,195.29v7.87h3.35v3.92h-11v-3.92h3.4V187.93h-3.4V184h7.27v4.31c1.61-3.09,3.7-4.22,7.27-4.49v4.27C660.68,188.41,658.29,191.11,658.29,195.29Z"/><path class="cls-1" d="M667.69,207.08v-3.92h3.57V179.93h-3.4V176h7.62v27.15h3.39v3.92Z"/><path class="cls-1" d="M682.31,207.08v-3.92h3.39V187.93h-3.39V184h7.61v19.14h3.35v3.92Zm3.39-25.93V176h4.22v5.14Z"/><path class="cls-1" d="M712.85,207.08v-3.92h3.4v-8.79c0-4.78-2.87-6.65-6-6.65-3.4,0-6,1.95-6,7v8.48h3.35v3.92h-11v-3.92h3.39V187.93h-3.39V184h7.61v3.65a7.89,7.89,0,0,1,7.18-4.13,8.9,8.9,0,0,1,8.36,5.57,11,11,0,0,1,.61,4v10.09h3.35v3.92Z"/><path class="cls-1" d="M334,201.12l-.28.3a8,8,0,0,1-10.46.8l13.93-13.94a11.17,11.17,0,0,0-.92-1.11A12,12,0,1,0,334,205.93Zm-12.25-11.49a8.31,8.31,0,0,1,10.49-1l-11.29,11.29A8.13,8.13,0,0,1,321.74,189.63Z"/><path class="cls-1" d="M435.84,200.57a9.52,9.52,0,0,1-.75.85,8,8,0,0,1-10.46.8l13.94-13.94a13,13,0,0,0-.93-1.11,12,12,0,1,0-1.8,18.47Zm-12.72-10.94a8.31,8.31,0,0,1,10.49-1l-11.29,11.29A8.13,8.13,0,0,1,423.12,189.63Z"/><path class="cls-1" d="M744.7,200.67a9.22,9.22,0,0,1-.68.75,8,8,0,0,1-10.46.8l13.94-13.94a11.17,11.17,0,0,0-.92-1.11,12,12,0,1,0-1.88,18.52Zm-12.64-11a8.31,8.31,0,0,1,10.49-1l-11.29,11.29A8.13,8.13,0,0,1,732.06,189.63Z"/><path class="cls-1" d="M97.94,200.82q-.25.3-.54.6a8,8,0,0,1-10.46.8l13.93-13.94a11.17,11.17,0,0,0-.92-1.11,12,12,0,1,0-2,18.6ZM85.43,189.63a8.31,8.31,0,0,1,10.49-1L84.63,199.91A8.13,8.13,0,0,1,85.43,189.63Z"/></svg>