<?xml version="1.0" encoding="UTF-8" standalone="no"?>
<!-- Created with Inkscape (http://www.inkscape.org/) -->

<svg
   xmlns:dc="http://purl.org/dc/elements/1.1/"
   xmlns:cc="http://creativecommons.org/ns#"
   xmlns:rdf="http://www.w3.org/1999/02/22-rdf-syntax-ns#"
   xmlns:svg="http://www.w3.org/2000/svg"
   xmlns="http://www.w3.org/2000/svg"
   xmlns:sodipodi="http://sodipodi.sourceforge.net/DTD/sodipodi-0.dtd"
   xmlns:inkscape="http://www.inkscape.org/namespaces/inkscape"
   id="svg2985"
   version="1.1"
   inkscape:version="0.48.0 r9654"
   width="474"
   height="149"
   sodipodi:docname="787.png">
  <metadata
     id="metadata2991">
    <rdf:RDF>
      <cc:Work
         rdf:about="">
        <dc:format>image/svg+xml</dc:format>
        <dc:type
           rdf:resource="http://purl.org/dc/dcmitype/StillImage" />
        <dc:title></dc:title>
      </cc:Work>
    </rdf:RDF>
  </metadata>
  <defs
     id="defs2989" />
  <sodipodi:namedview
     pagecolor="#ffffff"
     bordercolor="#666666"
     borderopacity="1"
     objecttolerance="10"
     gridtolerance="10"
     guidetolerance="10"
     inkscape:pageopacity="0"
     inkscape:pageshadow="2"
     inkscape:window-width="1600"
     inkscape:window-height="850"
     id="namedview2987"
     showgrid="false"
     inkscape:zoom="1.9541237"
     inkscape:cx="237"
     inkscape:cy="74.5"
     inkscape:window-x="-8"
     inkscape:window-y="-8"
     inkscape:window-maximized="1"
     inkscape:current-layer="svg2985" />
  <g
     transform="translate(-52.809805,-105.38572)"
     id="g3013">
    <rect
       y="186.51974"
       x="55.802456"
       height="22.070019"
       width="467.8844"
       id="rect3808"
       style="fill:#ff8534;fill-opacity:1;fill-rule:evenodd;stroke:none" />
    <rect
       style="fill:#ff2a2a;fill-opacity:1;fill-rule:evenodd;stroke:none"
       id="rect3810"
       width="467.8844"
       height="22.070019"
       x="55.802452"
       y="207.64383" />
    <rect
       y="229.39859"
       x="55.802452"
       height="22.070019"
       width="467.8844"
       id="rect3812"
       style="fill:#aa0000;fill-opacity:1;fill-rule:evenodd;stroke:none" />
    <path
       sodipodi:nodetypes="cccccccccccccccccccccccccccccccccccccc"
       inkscape:connector-curvature="0"
       id="path3013"
       d="m 86.586842,200.64695 9.458579,13.87259 47.608179,0 6.30572,-23.96174 64.63363,0.31528 10.40444,-4.09871 -6.30572,15.13372 8.19743,12.29616 105.62081,1.26114 c 2.86046,-0.58918 5.79642,1.38586 8.51272,-4.09871 l 0.63057,3.78343 37.83432,-0.31529 16.39487,-23.01588 45.71646,-1.26114 c 0.37749,12.30558 7.56126,16.44363 11.66558,24.27702 l 42.24833,0.63057 2.83757,-7.25158 -11.66558,-17.65601 c -3.00563,-0.10526 -5.48687,-1.0845 -5.99044,-5.35986 l -19.86301,-60.21963 -11.66558,-14.81845 -65.57949,0.31529 c -2.74801,-0.0959 -5.12907,3.46746 -5.35986,7.56687 l 7.25158,10.71973 -28.37574,39.72603 -4.72929,-11.3503 6.93629,0 11.66558,-37.20374 -6.93629,-10.40445 -98.05394,0.94586 c -14.07216,2.92414 -20.78813,9.8093 -23.96173,18.60188 -5.03696,-11.32626 -12.94448,-18.50616 -25.53816,-18.91717 l -101.2068,-1.26114 -3.15286,8.51273 8.828,15.44901 -14.50315,50.44576 c -2.78595,6.4617 -8.473927,7.69975 -15.449014,6.62101 z"
       style="fill:#000000;stroke:none" />
    <g
       transform="translate(85.325699,109.61824)"
       id="g3791">
      <path
         style="fill:#ffffff;stroke:none"
         d="M 8.5127214,87.560553 C 15.047633,86.380459 21.93273,85.725644 25.222878,79.678404 L 44.455323,18.197638 C 44.854246,12.067322 41.217104,8.1442317 34.050886,6.2167711 l 94.585794,-1e-7 c 30.45123,3.962658 26.77323,57.357934 -8.82801,57.382048 l -59.904334,0 4.098718,-16.079585 51.706896,0 c 14.3207,0.386361 16.65947,-19.939388 6.9363,-23.961734 l -57.697339,0.630572 -19.54773,63.687767 z"
         id="path3783"
         inkscape:connector-curvature="0"
         sodipodi:nodetypes="ccccccccccccc" />
      <path
         style="fill:none;stroke:#000000;stroke-width:1px;stroke-linecap:butt;stroke-linejoin:miter;stroke-opacity:1"
         d="M 151.33727,58.238957 z"
         id="path3785"
         inkscape:connector-curvature="0" />
      <path
         style="fill:#ffffff;stroke:none"
         d="m 140.61755,88.506411 9.14329,-30.267454 1.57643,-0.945857 c -1.00282,8.14832 3.23695,12.219067 9.77386,14.503155 l 68.10177,0.315286 c 7.45982,0.05629 9.21785,-15.367361 3.15287,-15.133727 l -53.91391,0 c -22.44755,1.212029 -31.91118,-40.138346 6.30572,-50.445757 l 87.01893,0.630572 -8.51272,29.321596 -1.89171,-0.315286 c 1.74669,-8.39896 -2.08123,-12.540857 -8.67037,-12.374975 l -64.31834,0.315287 c -10.23746,0.315286 -10.4545,16.158406 -2.04936,16.158406 l 59.27377,-0.630572 c 16.09108,1.847135 18.43539,45.276931 -11.35029,48.238754 z"
         id="path3787"
         inkscape:connector-curvature="0"
         sodipodi:nodetypes="ccccccccccccccccc" />
      <path
         style="fill:#ffffff;stroke:none"
         d="m 247.10538,88.821697 0.0788,-1.57643 c 3.80076,-0.621356 9.75352,1.422194 14.00489,-3.399739 l 45.42652,-64.307924 c 4.71569,-9.408001 -0.64267,-10.166535 -4.88694,-11.4291171 l -1.26114,-0.9458579 55.80562,-0.315286 25.85345,71.885203 c 4.08917,9.29611 10.44621,7.989034 16.07958,8.828007 l 0,1.891716 -35.31203,-0.315286 -8.19743,-23.961734 -48.23876,0 9.77387,-16.394871 33.12585,-0.105568 -10.42526,-34.891175 c -1.89172,-3.533184 -5.04458,-3.334656 -7.25158,0 l -50.13047,75.038062 z"
         id="path3789"
         inkscape:connector-curvature="0"
         sodipodi:nodetypes="ccccccccccccccccccc" />
    </g>
  </g>
</svg>
