<?xml version="1.0" encoding="utf-8"?>
<!-- Generator: Adobe Illustrator 16.0.3, SVG Export Plug-In . SVG Version: 6.00 Build 0)  -->
<!DOCTYPE svg PUBLIC "-//W3C//DTD SVG 1.1//EN" "http://www.w3.org/Graphics/SVG/1.1/DTD/svg11.dtd">
<svg version="1.1" id="Ebene_1" xmlns="http://www.w3.org/2000/svg" xmlns:xlink="http://www.w3.org/1999/xlink" x="0px" y="0px"
	 width="144.77px" height="123.509px" viewBox="0 0 144.77 123.509" enable-background="new 0 0 144.77 123.509"
	 xml:space="preserve">
<linearGradient id="SVGID_1_" gradientUnits="userSpaceOnUse" x1="0" y1="61.7544" x2="144.7695" y2="61.7544">
	<stop  offset="0" style="stop-color:#204C9A"/>
	<stop  offset="0.2216" style="stop-color:#254E9B"/>
	<stop  offset="0.4317" style="stop-color:#32539D"/>
	<stop  offset="0.6372" style="stop-color:#465CA1"/>
	<stop  offset="0.8386" style="stop-color:#5F69A6"/>
	<stop  offset="1" style="stop-color:#7878AA"/>
</linearGradient>
<rect fill="url(#SVGID_1_)" width="144.77" height="123.509"/>
<g>
	<path fill="#FFFFFF" d="M21.487,73.24V34.36h17.425c10.396,0,15.417,5.13,15.417,13.122c0,8.37-4.62,13.662-15.015,13.662h-5.976
		V73.24H21.487z M38.26,52.072c2.762,0,4.771-1.188,4.771-4.536c0-3.618-3.816-4.104-6.327-4.104h-3.364v8.64H38.26z"/>
	<path fill="#FFFFFF" d="M56.139,34.36h27.795v10.206h-8.928V73.24h-9.939V44.566h-8.928V34.36z"/>
	<path fill="#FFFFFF" d="M87.417,73.24V34.36h11.852v29.808h16.27v9.072H87.417z"/>
</g>
<g>
	<path fill="#FFFFFF" d="M23.33,85.077h4.399v1.118h-5.571V76.86h1.172V85.077z"/>
	<path fill="#FFFFFF" d="M33.775,86.195v-0.988l-0.024-0.025c-0.447,0.793-0.991,1.209-2.006,1.209
		c-0.931,0-2.055-0.481-2.055-2.106v-4.888h1.063v4.511c0,1.118,0.531,1.495,1.221,1.495c1.342,0,1.74-1.273,1.74-2.262v-3.745
		h1.063v6.799H33.775z"/>
	<path fill="#FFFFFF" d="M38.601,80.345v5.85h-1.063v-5.85h-0.87v-0.949h0.87v-1.17c0-1.027,0.604-1.495,1.644-1.495
		c0.157,0,0.314,0.013,0.483,0.026v1.027c-0.133-0.013-0.302-0.026-0.435-0.026c-0.46,0-0.629,0.247-0.629,0.793v0.845h1.063v0.949
		H38.601z"/>
	<path fill="#FFFFFF" d="M42.856,80.345v4.42c0,0.533,0.423,0.533,0.641,0.533h0.374v0.896c-0.387,0.039-0.688,0.091-0.797,0.091
		c-1.052,0-1.281-0.637-1.281-1.456v-4.485h-0.858v-0.949h0.858v-1.898h1.063v1.898h1.015v0.949H42.856z"/>
	<path fill="#FFFFFF" d="M47.136,80.345v5.85h-1.063v-5.85h-0.87v-0.949h0.87v-1.17c0-1.027,0.604-1.495,1.644-1.495
		c0.157,0,0.314,0.013,0.483,0.026v1.027c-0.133-0.013-0.302-0.026-0.435-0.026c-0.46,0-0.629,0.247-0.629,0.793v0.845h1.063v0.949
		H47.136z"/>
	<path fill="#FFFFFF" d="M49.688,81.462c0.049-1.625,1.052-2.262,2.61-2.262c0.508,0,2.345,0.156,2.345,1.898v3.913
		c0,0.287,0.133,0.403,0.351,0.403c0.097,0,0.229-0.026,0.351-0.052v0.832c-0.182,0.052-0.339,0.13-0.58,0.13
		c-0.942,0-1.088-0.521-1.124-1.04c-0.411,0.48-1.052,1.105-2.284,1.105c-1.16,0-1.981-0.793-1.981-1.963
		c0-0.572,0.156-1.898,1.921-2.133l1.753-0.234c0.253-0.026,0.556-0.13,0.556-0.806c0-0.715-0.483-1.105-1.486-1.105
		c-1.209,0-1.378,0.793-1.45,1.313H49.688z M53.58,82.724c-0.169,0.143-0.436,0.246-1.752,0.429
		c-0.52,0.078-1.354,0.247-1.354,1.104c0,0.741,0.35,1.184,1.147,1.184c0.991,0,1.958-0.689,1.958-1.6V82.724z"/>
	<path fill="#FFFFFF" d="M62.501,86.195h-1.063v-4.446c0-0.923-0.241-1.521-1.257-1.521c-0.87,0-1.765,0.546-1.765,2.262v3.705
		h-1.063V76.86h1.063v3.445h0.024c0.302-0.429,0.834-1.105,1.849-1.105c0.979,0,2.212,0.429,2.212,2.366V86.195z"/>
	<path fill="#FFFFFF" d="M66.19,86.195h-1.063v-6.799h1.003v1.131h0.024c0.423-0.793,0.979-1.326,1.776-1.326
		c0.133,0,0.193,0.013,0.278,0.039v1.183H67.81c-0.991,0-1.619,0.832-1.619,1.82V86.195z"/>
	<path fill="#FFFFFF" d="M71.702,80.345v4.42c0,0.533,0.423,0.533,0.641,0.533h0.374v0.896c-0.387,0.039-0.688,0.091-0.797,0.091
		c-1.052,0-1.281-0.637-1.281-1.456v-4.485H69.78v-0.949h0.858v-1.898h1.063v1.898h1.015v0.949H71.702z"/>
	<path fill="#FFFFFF" d="M82.849,81.203h3.807v4.992h-0.762l-0.277-1.209c-0.593,0.884-1.68,1.456-2.864,1.456
		c-1.486,0-2.212-0.585-2.659-1.054c-1.329-1.352-1.365-2.951-1.365-3.938c0-2.275,1.281-4.836,4.108-4.836
		c1.62,0,3.421,0.988,3.674,3.082h-1.136c-0.374-1.625-1.644-1.963-2.598-1.963c-1.56,0-2.841,1.339-2.841,3.783
		c0,1.898,0.58,3.848,2.889,3.848c0.436,0,1.136-0.052,1.776-0.598c0.762-0.65,0.955-1.482,0.955-2.483h-2.707V81.203z"/>
	<path fill="#FFFFFF" d="M89.246,79.396h1.004v0.962h0.023c0.229-0.364,0.773-1.157,1.91-1.157c1.136,0,1.498,0.741,1.68,1.105
		c0.531-0.637,0.954-1.105,1.934-1.105c0.677,0,1.957,0.377,1.957,2.288v4.706H96.69v-4.394c0-0.936-0.266-1.573-1.172-1.573
		c-0.895,0-1.486,0.91-1.486,1.82v4.147h-1.063v-4.706c0-0.572-0.205-1.261-0.991-1.261c-0.604,0-1.668,0.416-1.668,2.262v3.705
		h-1.063V79.396z"/>
	<path fill="#FFFFFF" d="M100.14,86.195V76.86h1.063v3.393h0.023c0.46-0.715,1.088-1.04,1.825-1.053c1.68,0,2.635,1.482,2.635,3.393
		c0,1.625-0.629,3.797-2.779,3.797c-1.076,0-1.523-0.663-1.74-1.041h-0.024v0.846H100.14z M102.858,80.228
		c-1.534,0-1.704,1.781-1.704,2.886c0,1.808,1.052,2.288,1.729,2.288c1.16,0,1.704-1.131,1.704-2.626
		C104.587,81.905,104.502,80.228,102.858,80.228z"/>
	<path fill="#FFFFFF" d="M113.702,76.86h1.172v9.334h-1.172V81.84h-4.532v4.355h-1.172V76.86h1.172v3.861h4.532V76.86z"/>
</g>
</svg>
