<svg width="231" height="47" viewBox="0 0 231 47" fill="none" xmlns="http://www.w3.org/2000/svg">
<path d="M127.099 0H124.199C118.999 0 116.199 2.8 116.199 8V38.3C116.199 43.5 118.999 46.3 124.199 46.3H163.899C169.099 46.3 171.899 42.5 171.899 37.3V36.2H127.099" fill="#003E66"/>
<path d="M111.4 8C111.4 2.8 108.6 0 103.4 0H66.5C61.3 0 58.5 2.8 58.5 8V9.1H78.8V46.4H89.6V9.1H111.4V8Z" fill="#003E66"/>
<path d="M45.7 0H8.1C4.1 0 1.5 1.7 0.5 4.9C0.1 5.9 0 7.1 0 6.9V46.4H10.8V27.2H45.6C50.8 27.2 53.6 24.4 53.6 19.2V8C53.7 2.8 50.9 0 45.7 0ZM42.8 18H10.8V9H42.8V18Z" fill="#003E66"/>
<path d="M201.1 36.2002H202.2V46.3002H201.2V37.8002L197.1 43.9002L193.1 37.9002V46.3002H192V36.2002H193.1L197.1 42.2002L201.1 36.2002Z" fill="#003E66"/>
<path d="M183.499 40.8998V41.6998H188.399V43.1998C188.399 44.8998 187.999 45.3998 186.299 45.4998H182.599C180.599 45.4998 180.199 45.0998 180.199 43.1998V39.4998C180.199 37.5998 180.699 37.1998 182.599 37.1998H188.799C188.799 36.5998 188.499 36.2998 187.899 36.2998H182.299C181.099 36.2998 180.399 36.4998 179.899 36.9998C179.399 37.4998 179.199 38.0998 179.199 39.2998V43.3998C179.199 44.4998 179.399 45.1998 179.899 45.6998C180.399 46.1998 181.099 46.3998 182.299 46.3998H186.699C187.599 46.3998 188.299 46.0998 188.699 45.6998C189.199 45.1998 189.399 44.5998 189.399 43.4998V40.9998" fill="#003E66"/>
<path fill-rule="evenodd" clip-rule="evenodd" d="M204.898 46.3002H210.998C212.198 46.3002 212.898 46.1002 213.398 45.6002C213.898 45.1002 214.098 44.5002 214.098 43.5002C214.098 42.1002 213.698 41.5002 212.598 41.1002C213.398 40.7002 213.698 40.1002 213.698 39.0002C213.698 38.0002 213.498 37.4002 212.998 36.9002C212.498 36.4002 211.798 36.2002 210.598 36.2002H204.898V46.3002ZM210.198 37.0002C211.998 37.0002 212.598 37.4002 212.598 38.9002C212.598 40.3002 211.998 40.7002 210.198 40.7002H205.798V37.0002H210.198ZM210.598 41.6002C212.398 41.6002 212.998 42.1002 212.998 43.5002C212.998 44.9002 212.398 45.4002 210.598 45.4002H205.898V41.6002H210.598V41.6002Z" fill="#003E66"/>
<path d="M225.199 36.2998V40.7998H217.199V36.2998H216.199V46.2998H217.199V41.7998H225.199V46.2998H226.199V36.2998H225.199Z" fill="#003E66"/>
<path d="M137.801 29.0996H144.601V28.1996H138.801V19.0996H137.801V29.0996Z" fill="#003E66"/>
<path d="M154.7 19.0996V25.8996C154.7 27.7996 154.2 28.1996 152.3 28.1996H150C148.1 28.1996 147.6 27.7996 147.6 25.8996V19.0996H146.6V26.0996C146.6 27.1996 146.8 27.8996 147.3 28.3996C147.8 28.8996 148.5 29.0996 149.7 29.0996H152.6C153.8 29.0996 154.4 28.8996 155 28.3996C155.5 27.8996 155.7 27.2996 155.7 26.0996V19.0996H154.7Z" fill="#003E66"/>
<path d="M159.5 29.0996H158.5V22.0996C158.5 20.9996 158.7 20.2996 159.2 19.7996C159.7 19.2996 160.4 19.0996 161.6 19.0996H165.7C166.3 19.0996 166.6 19.3996 166.6 19.9996H161.9C160 19.9996 159.5 20.3996 159.5 22.2996V23.7996H165.8V24.5996H159.5V29.0996Z" fill="#003E66"/>
<path d="M180.199 29.0996H179.199V22.0996C179.199 20.9996 179.399 20.2996 179.899 19.7996C180.399 19.2996 181.099 19.0996 182.299 19.0996H186.399C186.999 19.0996 187.299 19.3996 187.299 19.9996H182.599C180.699 19.9996 180.199 20.3996 180.199 22.2996V23.7996H186.499V24.5996H180.199V29.0996Z" fill="#003E66"/>
<path d="M177.5 19.9996V19.0996H168.9V19.9996H172.7V29.0996H173.7V19.9996H177.5Z" fill="#003E66"/>
<path d="M230.1 19.9996V19.0996H221.4V19.9996H225.2V29.0996H226.2V19.9996H230.1Z" fill="#003E66"/>
<path d="M211.1 29.0996V19.0996H216.9C218.1 19.0996 218.7 19.2996 219.3 19.7996C219.8 20.2996 220 20.8996 220 21.9996V22.4996C220 23.5996 219.8 24.1996 219.3 24.6996C218.8 25.1996 218.1 25.3996 216.9 25.3996H216.8L220 29.0996H218.7L215.6 25.4996H212.1V29.0996H211.1ZM216.6 19.9996H212.1V24.5996H216.6C218.5 24.5996 219 24.1996 219 22.2996V22.1996C219 20.3996 218.6 19.9996 216.6 19.9996Z" fill="#003E66"/>
<path d="M208 19.0996V23.5996H200.1V19.0996H199.1V29.0996H200.1V24.5996H208V29.0996H209V19.0996H208Z" fill="#003E66"/>
<path d="M192.6 19.2002C192.4 19.2002 192.3 19.2002 192.3 19.2002L187.5 29.1002H188.6L190.3 25.5002H194.6L196.3 29.1002H197.4L192.6 19.2002ZM190.7 24.7002L192.4 21.1002L194.1 24.7002H190.7Z" fill="#003E66"/>
</svg>
