<?xml version="1.0" encoding="UTF-8" standalone="no"?>
<svg
   xmlns:dc="http://purl.org/dc/elements/1.1/"
   xmlns:cc="http://creativecommons.org/ns#"
   xmlns:rdf="http://www.w3.org/1999/02/22-rdf-syntax-ns#"
   xmlns:svg="http://www.w3.org/2000/svg"
   xmlns="http://www.w3.org/2000/svg"
   version="1.1"
   id="svg4377"
   viewBox="0 0 531.49606 203.16051"
   height="57.336411mm"
   width="150mm">
  <defs
     id="defs4379">
    <clipPath
       id="clipPath4284"
       clipPathUnits="userSpaceOnUse">
      <path
         id="path4286"
         d="m 226.771,700.741 156.43,0 0,59.794 -156.43,0 0,-59.794 z" />
    </clipPath>
    <clipPath
       id="clipPath4268"
       clipPathUnits="userSpaceOnUse">
      <path
         id="path4270"
         d="m 226.771,700.741 156.43,0 0,59.794 -156.43,0 0,-59.794 z" />
    </clipPath>
    <clipPath
       id="clipPath4232"
       clipPathUnits="userSpaceOnUse">
      <path
         id="path4234"
         d="m 226.771,700.741 156.43,0 0,59.794 -156.43,0 0,-59.794 z" />
    </clipPath>
    <clipPath
       id="clipPath4196"
       clipPathUnits="userSpaceOnUse">
      <path
         id="path4198"
         d="m 0,0 595.276,0 0,810.709 L 0,810.709 0,0 Z" />
    </clipPath>
    <clipPath
       id="clipPath4176"
       clipPathUnits="userSpaceOnUse">
      <path
         id="path4178"
         d="m 226.771,700.741 156.43,0 0,59.794 -156.43,0 0,-59.794 z" />
    </clipPath>
    <clipPath
       id="clipPath4164"
       clipPathUnits="userSpaceOnUse">
      <path
         id="path4166"
         d="m 0,0 595.276,0 0,810.709 L 0,810.709 0,0 Z" />
    </clipPath>
  </defs>
  <metadata
     id="metadata4382">
    <rdf:RDF>
      <cc:Work
         rdf:about="">
        <dc:format>image/svg+xml</dc:format>
        <dc:type
           rdf:resource="http://purl.org/dc/dcmitype/StillImage" />
        <dc:title></dc:title>
      </cc:Work>
    </rdf:RDF>
  </metadata>
  <g
     transform="translate(-87.945908,-372.28725)"
     id="layer1">
    <g
       transform="matrix(2.718139,0,0,2.718139,120.7106,-499.4342)"
       id="g5063">
      <g
         transform="matrix(1.25,0,0,-1.25,-295.51859,1271.374)"
         id="g4160">
        <g
           id="g4162"
           clip-path="url(#clipPath4164)">
          <g
             id="g4168"
             transform="translate(324.2068,740.4065)">
            <path
               d="m 0,0 c 0,-3.057 -2.478,-5.536 -5.536,-5.536 -3.057,0 -5.535,2.479 -5.535,5.536 0,3.057 2.478,5.536 5.535,5.536 C -2.478,5.536 0,3.057 0,0"
               style="fill:#42c1db;fill-opacity:1;fill-rule:nonzero;stroke:none"
               id="path4170" />
          </g>
        </g>
      </g>
      <g
         transform="matrix(1.25,0,0,-1.25,-295.51859,1271.374)"
         id="g4172">
        <g
           id="g4174"
           clip-path="url(#clipPath4176)">
          <g
             id="g4180"
             transform="translate(338.9691,740.4065)">
            <path
               d="m 0,0 c 0,-3.057 -2.478,-5.536 -5.536,-5.536 -3.057,0 -5.536,2.479 -5.536,5.536 0,3.057 2.479,5.536 5.536,5.536 C -2.478,5.536 0,3.057 0,0"
               style="fill:#9c158f;fill-opacity:1;fill-rule:nonzero;stroke:none"
               id="path4182" />
          </g>
          <g
             id="g4184"
             transform="translate(353.7313,755.1687)">
            <path
               d="m 0,0 c 0,-3.057 -2.478,-5.536 -5.536,-5.536 -3.057,0 -5.535,2.479 -5.535,5.536 0,3.057 2.478,5.536 5.535,5.536 C -2.478,5.536 0,3.057 0,0"
               style="fill:#9c158f;fill-opacity:1;fill-rule:nonzero;stroke:none"
               id="path4186" />
          </g>
          <g
             id="g4188"
             transform="translate(368.4936,755.1687)">
            <path
               d="m 0,0 c 0,-3.057 -2.478,-5.536 -5.536,-5.536 -3.057,0 -5.535,2.479 -5.535,5.536 0,3.057 2.478,5.536 5.535,5.536 C -2.478,5.536 0,3.057 0,0"
               style="fill:#42c1db;fill-opacity:1;fill-rule:nonzero;stroke:none"
               id="path4190" />
          </g>
        </g>
      </g>
      <g
         transform="matrix(1.25,0,0,-1.25,-295.51859,1271.374)"
         id="g4192">
        <g
           id="g4194"
           clip-path="url(#clipPath4196)">
          <g
             id="g4200"
             transform="translate(353.7313,740.4065)">
            <path
               d="m 0,0 c 0,-3.057 -2.478,-5.536 -5.536,-5.536 -3.057,0 -5.535,2.479 -5.535,5.536 0,3.057 2.478,5.536 5.535,5.536 C -2.478,5.536 0,3.057 0,0"
               style="fill:#fcd405;fill-opacity:1;fill-rule:nonzero;stroke:none"
               id="path4202" />
          </g>
          <g
             id="g4204"
             transform="translate(368.4936,740.4065)">
            <path
               d="m 0,0 c 0,-3.057 -2.478,-5.536 -5.536,-5.536 -3.057,0 -5.535,2.479 -5.535,5.536 0,3.057 2.478,5.536 5.535,5.536 C -2.478,5.536 0,3.057 0,0"
               style="fill:#196fc1;fill-opacity:1;fill-rule:nonzero;stroke:none"
               id="path4206" />
          </g>
          <g
             id="g4208"
             transform="translate(338.9691,725.6442)">
            <path
               d="m 0,0 c 0,-3.057 -2.478,-5.536 -5.536,-5.536 -3.057,0 -5.536,2.479 -5.536,5.536 0,3.057 2.479,5.536 5.536,5.536 C -2.478,5.536 0,3.057 0,0"
               style="fill:#196fc1;fill-opacity:1;fill-rule:nonzero;stroke:none"
               id="path4210" />
          </g>
          <g
             id="g4212"
             transform="translate(324.2068,710.882)">
            <path
               d="m 0,0 c 0,-3.057 -2.478,-5.536 -5.536,-5.536 -3.057,0 -5.535,2.479 -5.535,5.536 0,3.057 2.478,5.536 5.535,5.536 C -2.478,5.536 0,3.057 0,0"
               style="fill:#fcd405;fill-opacity:1;fill-rule:nonzero;stroke:none"
               id="path4214" />
          </g>
          <g
             id="g4216"
             transform="translate(353.7313,725.6442)">
            <path
               d="m 0,0 c 0,-3.057 -2.478,-5.536 -5.536,-5.536 -3.057,0 -5.535,2.479 -5.535,5.536 0,3.057 2.478,5.536 5.535,5.536 C -2.478,5.536 0,3.057 0,0"
               style="fill:#42c1db;fill-opacity:1;fill-rule:nonzero;stroke:none"
               id="path4218" />
          </g>
          <g
             id="g4220"
             transform="translate(368.4936,725.6442)">
            <path
               d="m 0,0 c 0,-3.057 -2.478,-5.536 -5.536,-5.536 -3.057,0 -5.535,2.479 -5.535,5.536 0,3.057 2.478,5.536 5.535,5.536 C -2.478,5.536 0,3.057 0,0"
               style="fill:#fcd405;fill-opacity:1;fill-rule:nonzero;stroke:none"
               id="path4222" />
          </g>
          <g
             id="g4224"
             transform="translate(353.7313,710.882)">
            <path
               d="m 0,0 c 0,-3.057 -2.478,-5.536 -5.536,-5.536 -3.057,0 -5.535,2.479 -5.535,5.536 0,3.057 2.478,5.536 5.535,5.536 C -2.478,5.536 0,3.057 0,0"
               style="fill:#9c158f;fill-opacity:1;fill-rule:nonzero;stroke:none"
               id="path4226" />
          </g>
        </g>
      </g>
      <g
         transform="matrix(1.25,0,0,-1.25,-295.51859,1271.374)"
         id="g4228">
        <g
           id="g4230"
           clip-path="url(#clipPath4232)">
          <g
             id="g4236"
             transform="translate(368.4936,710.882)">
            <path
               d="m 0,0 c 0,-3.057 -2.478,-5.536 -5.536,-5.536 -3.057,0 -5.535,2.479 -5.535,5.536 0,3.057 2.478,5.536 5.535,5.536 C -2.478,5.536 0,3.057 0,0"
               style="fill:#196fc1;fill-opacity:1;fill-rule:nonzero;stroke:none"
               id="path4238" />
          </g>
          <g
             id="g4240"
             transform="translate(383.2559,740.4065)">
            <path
               d="m 0,0 c 0,-3.057 -2.478,-5.536 -5.536,-5.536 -3.057,0 -5.536,2.479 -5.536,5.536 0,3.057 2.479,5.536 5.536,5.536 C -2.478,5.536 0,3.057 0,0"
               style="fill:#42c1db;fill-opacity:1;fill-rule:nonzero;stroke:none"
               id="path4242" />
          </g>
          <g
             id="g4244"
             transform="translate(383.2559,725.6442)">
            <path
               d="m 0,0 c 0,-3.057 -2.478,-5.536 -5.536,-5.536 -3.057,0 -5.536,2.479 -5.536,5.536 0,3.057 2.479,5.536 5.536,5.536 C -2.478,5.536 0,3.057 0,0"
               style="fill:#9c158f;fill-opacity:1;fill-rule:nonzero;stroke:none"
               id="path4246" />
          </g>
          <g
             id="g4248"
             transform="translate(245.6646,705.261)">
            <path
               d="m 0,0 c 0.486,0.475 0.891,1.013 1.202,1.599 0.32,0.603 0.565,1.254 0.727,1.937 0.158,0.676 0.239,1.378 0.239,2.085 0,1.477 -0.278,2.854 -0.827,4.095 -0.548,1.232 -1.306,2.309 -2.254,3.203 -0.946,0.89 -2.071,1.593 -3.345,2.092 -1.274,0.498 -2.654,0.751 -4.104,0.751 -1.448,0 -2.827,-0.248 -4.1,-0.736 -1.277,-0.491 -2.404,-1.191 -3.349,-2.082 -0.949,-0.892 -1.708,-1.975 -2.255,-3.218 -0.549,-1.244 -0.827,-2.625 -0.827,-4.105 0,-1.58 0.273,-3.013 0.811,-4.257 0.54,-1.247 1.297,-2.324 2.25,-3.201 0.95,-0.877 2.096,-1.552 3.404,-2.007 1.291,-0.448 2.712,-0.676 4.222,-0.676 l 10.225,0 L 4.117,0 0,0 Z M -3.83,3.658 C -4.089,3.049 -4.446,2.516 -4.891,2.071 -5.338,1.624 -5.865,1.266 -6.457,1.008 c -1.167,-0.509 -2.644,-0.508 -3.811,0 -0.592,0.258 -1.119,0.616 -1.566,1.063 -0.445,0.445 -0.803,0.98 -1.06,1.586 -0.256,0.604 -0.387,1.265 -0.387,1.964 0,0.699 0.131,1.359 0.387,1.963 0.257,0.607 0.615,1.141 1.06,1.586 0.447,0.447 0.974,0.805 1.567,1.064 0.583,0.254 1.225,0.383 1.905,0.383 0.68,0 1.321,-0.129 1.904,-0.383 0.593,-0.259 1.12,-0.617 1.567,-1.064 0.445,-0.444 0.802,-0.978 1.06,-1.586 0.257,-0.603 0.387,-1.264 0.387,-1.963 0,-0.699 -0.13,-1.36 -0.386,-1.963"
               style="fill:#192c66;fill-opacity:1;fill-rule:nonzero;stroke:none"
               id="path4250" />
          </g>
        </g>
      </g>
      <g
         id="g4252"
         transform="matrix(1.25,0,0,-1.25,32.118411,370.68124)">
        <path
           d="m 0,0 -4.273,0 -8.564,-19.813 6.015,0 1.534,3.902 6.206,0 1.586,-3.902 6.114,0 L 0,0 Z m -1.019,-11.08 -2.446,0 1.216,3.111 1.23,-3.111 z"
           style="fill:#192c66;fill-opacity:1;fill-rule:nonzero;stroke:none"
           id="path4254" />
      </g>
      <g
         id="g4256"
         transform="matrix(1.25,0,0,-1.25,53.497161,389.01636)">
        <path
           d="m 0,0 8.369,10.127 0,4.541 -15.313,0 0,-4.988 8.195,0 -8.533,-10.124 0,-4.7 15.03,0 L 10.034,0 0,0 Z"
           style="fill:#192c66;fill-opacity:1;fill-rule:nonzero;stroke:none"
           id="path4258" />
      </g>
      <g
         id="g4260"
         transform="matrix(1.25,0,0,-1.25,75.976661,370.68099)">
        <path
           d="m 0,0 -8.564,-19.813 6.013,0 1.536,3.902 6.204,0 1.588,-3.902 6.114,0 L 4.272,0 0,0 Z m 2.023,-7.969 1.23,-3.111 -2.446,0 1.216,3.111 z"
           style="fill:#192c66;fill-opacity:1;fill-rule:nonzero;stroke:none"
           id="path4262" />
      </g>
      <g
         transform="matrix(1.25,0,0,-1.25,-295.51859,1271.374)"
         id="g4264">
        <g
           id="g4266"
           clip-path="url(#clipPath4268)">
          <g
             id="g4272"
             transform="translate(327.1251,705.261)">
            <path
               d="m 0,0 c 0.486,0.474 0.89,1.012 1.201,1.599 0.321,0.603 0.565,1.253 0.728,1.938 0.158,0.677 0.239,1.379 0.239,2.084 0,1.477 -0.278,2.854 -0.827,4.095 -0.548,1.232 -1.306,2.31 -2.254,3.203 -0.946,0.89 -2.072,1.593 -3.345,2.092 -1.274,0.498 -2.654,0.751 -4.104,0.751 -1.448,0 -2.828,-0.248 -4.101,-0.736 -1.277,-0.492 -2.403,-1.192 -3.348,-2.082 -0.949,-0.892 -1.708,-1.975 -2.255,-3.218 -0.549,-1.245 -0.827,-2.626 -0.827,-4.105 0,-1.58 0.273,-3.012 0.811,-4.257 0.54,-1.246 1.297,-2.323 2.249,-3.201 0.95,-0.876 2.096,-1.552 3.404,-2.007 1.292,-0.448 2.712,-0.676 4.223,-0.676 l 9.758,0 L 3.65,0 0,0 Z M -3.83,3.658 C -4.09,3.049 -4.447,2.515 -4.892,2.071 -5.338,1.624 -5.865,1.267 -6.457,1.008 c -1.167,-0.509 -2.645,-0.508 -3.811,0 -0.592,0.258 -1.119,0.616 -1.566,1.063 -0.446,0.446 -0.803,0.98 -1.06,1.586 -0.257,0.603 -0.387,1.264 -0.387,1.964 0,0.7 0.13,1.36 0.387,1.963 0.257,0.607 0.614,1.14 1.06,1.586 0.447,0.447 0.974,0.805 1.566,1.064 0.584,0.254 1.226,0.383 1.906,0.383 0.68,0 1.321,-0.129 1.904,-0.383 0.593,-0.26 1.12,-0.618 1.566,-1.064 0.445,-0.444 0.802,-0.978 1.061,-1.586 0.257,-0.603 0.386,-1.263 0.386,-1.963 0,-0.7 -0.129,-1.361 -0.385,-1.963"
               style="fill:#192c66;fill-opacity:1;fill-rule:nonzero;stroke:none"
               id="path4274" />
          </g>
        </g>
      </g>
      <g
         id="g4276"
         transform="matrix(1.25,0,0,-1.25,119.99341,389.97474)">
        <path
           d="m 0,0 -1.892,-4.378 1.071,0 0.353,0.896 1.716,0 0.365,-0.896 1.097,0 L 0.805,0 0,0 Z m 0.374,-1.286 0.544,-1.373 -1.08,0 0.536,1.373 z"
           style="fill:#192c66;fill-opacity:1;fill-rule:nonzero;stroke:none"
           id="path4278" />
      </g>
      <g
         transform="matrix(1.25,0,0,-1.25,-295.51859,1271.374)"
         id="g4280">
        <g
           id="g4282"
           clip-path="url(#clipPath4284)">
          <g
             id="g4288"
             transform="translate(337.4266,705.1194)">
            <path
               d="M 0,0 1.71,0 C 1.934,0 2.148,-0.022 2.349,-0.066 2.551,-0.109 2.728,-0.182 2.88,-0.284 3.032,-0.386 3.152,-0.523 3.242,-0.696 3.331,-0.869 3.376,-1.084 3.376,-1.342 3.376,-1.654 3.295,-1.919 3.133,-2.138 2.97,-2.356 2.733,-2.494 2.422,-2.552 l 1.122,-1.866 -1.166,0 -0.924,1.766 -0.48,0 0,-1.766 L 0,-4.418 0,0 Z m 0.974,-1.828 0.574,0 c 0.087,0 0.18,0.003 0.277,0.009 0.098,0.006 0.186,0.025 0.266,0.056 0.078,0.031 0.144,0.08 0.196,0.146 0.052,0.067 0.078,0.161 0.078,0.281 0,0.113 -0.023,0.202 -0.068,0.268 -0.046,0.067 -0.105,0.118 -0.176,0.154 -0.07,0.035 -0.152,0.059 -0.243,0.071 -0.091,0.013 -0.181,0.019 -0.268,0.019 l -0.636,0 0,-1.004 z"
               style="fill:#192c66;fill-opacity:1;fill-rule:nonzero;stroke:none"
               id="path4290" />
          </g>
        </g>
      </g>
      <path
         d="m 123.94141,395.44774 1.21625,0 0,-5.4725 -1.21625,0 0,5.4725 z"
         style="fill:#192c66;fill-opacity:1;fill-rule:nonzero;stroke:none"
         id="path4292" />
    </g>
  </g>
</svg>
