<?xml version="1.0" encoding="utf-8"?>
<!-- Generator: Adobe Illustrator 16.0.3, SVG Export Plug-In . SVG Version: 6.00 Build 0)  -->
<!DOCTYPE svg PUBLIC "-//W3C//DTD SVG 1.1//EN" "http://www.w3.org/Graphics/SVG/1.1/DTD/svg11.dtd">
<svg version="1.1" id="Ebene_1" xmlns="http://www.w3.org/2000/svg" xmlns:xlink="http://www.w3.org/1999/xlink" x="0px" y="0px"
	 width="399.997px" height="44.985px" viewBox="0 0 399.997 44.985" enable-background="new 0 0 399.997 44.985"
	 xml:space="preserve">
<g>
	<g>
		<path fill="#E94F35" d="M83.771,34.97c0,3.076,0.683,3.76,1.512,4.052v1.025h-7.371c-0.391-1.222-0.488-1.611-0.634-3.075
			c-1.562,1.61-3.759,3.758-8.396,3.758c-3.905,0-7.91-2.196-7.91-7.565c0-5.076,3.223-7.664,7.567-8.3l6.151-0.926
			c1.075-0.146,2.393-0.588,2.393-2.052c0-2.88-2.734-3.026-4.491-3.026c-3.418,0-4.003,2.099-4.2,3.612h-6.589
			c0.781-7.957,6.297-9.079,11.618-9.079c3.662,0,10.349,1.122,10.349,7.518V34.97z M77.083,27.404
			c-0.685,0.536-1.807,0.975-4.639,1.415c-2.539,0.438-4.637,1.073-4.637,3.906c0,2.391,1.855,3.122,3.173,3.122
			c3.026,0,6.103-1.952,6.103-5.124V27.404z"/>
		<path fill="#E94F35" d="M110.77,40.047h-6.837V24.278c0-1.903-0.098-5.124-4.442-5.124c-3.025,0-5.37,2.05-5.37,6.004v14.889
			h-6.833v-25.97h6.542v3.809h0.097c0.928-1.563,2.88-4.492,7.811-4.492c5.078,0,9.033,2.978,9.033,8.689V40.047z"/>
		<path fill="#E94F35" d="M128.879,21.984c-0.293-1.659-0.876-3.416-4.588-3.416c-3.71,0-4.199,1.414-4.199,2.536
			c0,4.102,16.256,1.124,16.256,10.693c0,7.565-7.322,8.932-11.375,8.932c-5.906,0-12.301-2.05-12.497-8.981h7.031
			c0,2.197,1.366,3.808,5.661,3.808c3.516,0,4.346-1.708,4.346-2.684c0-4.345-16.11-1.074-16.11-10.789
			c0-3.81,2.393-8.689,10.495-8.689c5.077,0,11.131,1.268,11.669,8.591H128.879z"/>
		<path fill="#E94F35" d="M150.165,40.729c-6.981,0-13.279-4.294-13.279-13.669c0-9.372,6.298-13.667,13.279-13.667
			c6.979,0,13.277,4.295,13.277,13.667C163.442,36.436,157.144,40.729,150.165,40.729z M150.165,19.154
			c-5.271,0-6.249,4.588-6.249,7.906c0,3.321,0.978,7.909,6.249,7.909c5.271,0,6.249-4.588,6.249-7.909
			C156.414,23.742,155.437,19.154,150.165,19.154z"/>
		<path fill="#E94F35" d="M202.449,40.047h-6.832V24.278c0-3.855-1.713-5.124-3.711-5.124c-3.417,0-4.638,2.244-4.638,5.32v15.572
			h-6.833V24.425c0-2.196,0-5.271-4.103-5.271c-3.222,0-4.246,2.244-4.246,5.076v15.816h-6.835v-25.97h6.542v3.809h0.1
			c0.878-1.709,2.782-4.492,7.372-4.492c3.759,0,5.467,1.367,7.221,4.149c0.883-1.27,2.785-4.149,6.936-4.149
			c5.076,0,9.03,2.978,9.03,8.689V40.047z"/>
		<path fill="#E94F35" d="M228.08,32.434c-1.806,6.246-6.979,8.296-11.424,8.296c-7.32,0-12.936-3.514-12.936-14.205
			c0-3.124,1.074-13.131,12.447-13.131c5.125,0,12.207,2.439,12.207,14.303v1.22h-17.819c0.194,1.954,0.586,6.346,6.101,6.346
			c1.905,0,3.858-0.975,4.395-2.828H228.08z M221.343,24.475c-0.388-4.198-3.074-5.468-5.27-5.468c-3.225,0-4.932,2.052-5.323,5.468
			H221.343z"/>
	</g>
	<g>
		<path fill="#E94F35" d="M25.973,36.09"/>
		<path fill="#E94F35" d="M4.253,4.259l4.672,6.847v-0.005h43.67c0.674,0.005,1.006,0.563,0.739,1.245l-1.875,3.944
			c-0.264,0.683-1.027,1.229-1.702,1.227H38.593c-0.51,0-0.659-0.204-0.469-0.922l1.18-2.785c0.251-0.508,0.041-0.92-0.468-0.92
			h-7.868c-0.51,0-1.127,0.412-1.377,0.92l-6.988,16.055c-0.225,0.457-0.122,1.195,0.225,1.643l4.548,6.629
			c0.348,0.446,0.813,0.439,1.036-0.021l5.657-12.056c0,0,0.118-0.424,1.118-0.424c0.56,0,0.814,0.389,0.814,0.389l8.537,12.535
			c0.461,0.68,1.383,1.229,2.063,1.229h8.783c0.339,0,0.431-0.274,0.198-0.614l-10.42-14.003c-0.228-0.339-0.141-0.614,0.198-0.614
			h9.388c1.181,0.008,2.515-0.951,2.981-2.147l6.53-15.971c0.465-1.197-0.111-2.173-1.292-2.183H4.25L4.253,4.259z"/>
		<path fill="#E94F35" d="M14.837,19.77h9.66c0.424,0,0.903-0.343,1.065-0.769l2.147-5.242c0.164-0.423-0.046-0.769-0.472-0.769
			H10.211l0.004,0.004l4.62,6.774L14.837,19.77z"/>
		<path fill="#E94F35" d="M20.343,27.839h0.44c0.424,0,0.902-0.343,1.066-0.77l1.765-4.563c0.164-0.426-0.047-0.77-0.472-0.77
			h-6.964h0L20.343,27.839z"/>
	</g>
	<g>
		<path fill="#E94F35" d="M245.288,40.047h-7.712l12.496-35.051h8.445l12.351,35.051h-7.957l-2.244-7.227h-12.938L245.288,40.047z
			 M249.682,26.769h8.934l-4.343-13.863h-0.1L249.682,26.769z"/>
		<path fill="#E94F35" d="M279.461,11.001h-6.833V4.654h6.833V11.001z M279.461,14.077v25.97h-6.833v-25.97H279.461z"/>
		<path fill="#E94F35" d="M283.367,14.077h6.541v4.491h0.098c1.418-2.638,2.979-5.175,7.126-5.175c0.441,0,0.88,0.048,1.318,0.098
			v6.932c-0.584-0.098-1.318-0.098-1.952-0.098c-5.321,0-6.298,3.32-6.298,6.199v13.522h-6.833V14.077z"/>
		<path fill="#E94F35" d="M306.849,40.047h-6.833V4.996h6.833V40.047z"/>
		<path fill="#E94F35" d="M317.832,11.001H311V4.654h6.832V11.001z M317.832,14.077v25.97H311v-25.97H317.832z"/>
		<path fill="#E94F35" d="M345.268,40.047h-6.835V24.278c0-1.903-0.095-5.124-4.441-5.124c-3.024,0-5.371,2.05-5.371,6.004v14.889
			h-6.833v-25.97h6.542v3.809h0.1c0.925-1.563,2.877-4.492,7.808-4.492c5.078,0,9.031,2.978,9.031,8.689V40.047z"/>
		<path fill="#E94F35" d="M371.338,32.434c-1.808,6.246-6.983,8.296-11.422,8.296c-7.323,0-12.937-3.514-12.937-14.205
			c0-3.124,1.072-13.131,12.447-13.131c5.126,0,12.203,2.439,12.203,14.303v1.22h-17.818c0.197,1.954,0.587,6.346,6.104,6.346
			c1.902,0,3.856-0.975,4.394-2.828H371.338z M364.601,24.475c-0.392-4.198-3.074-5.468-5.271-5.468
			c-3.222,0-4.931,2.052-5.32,5.468H364.601z"/>
		<path fill="#E94F35" d="M388.275,21.984c-0.291-1.659-0.878-3.416-4.588-3.416c-3.712,0-4.198,1.414-4.198,2.536
			c0,4.102,16.257,1.124,16.257,10.693c0,7.565-7.323,8.932-11.375,8.932c-5.906,0-12.303-2.05-12.497-8.981h7.029
			c0,2.197,1.368,3.808,5.663,3.808c3.516,0,4.346-1.708,4.346-2.684c0-4.345-16.108-1.074-16.108-10.789
			c0-3.81,2.392-8.689,10.493-8.689c5.078,0,11.13,1.268,11.668,8.591H388.275z"/>
	</g>
</g>
</svg>
