<?xml version="1.0" encoding="utf-8"?>
<!-- Generator: Adobe Illustrator 28.2.0, SVG Export Plug-In . SVG Version: 6.00 Build 0)  -->
<svg version="1.1" id="Layer_1" xmlns="http://www.w3.org/2000/svg" xmlns:xlink="http://www.w3.org/1999/xlink" x="0px" y="0px"
	 viewBox="0 0 2390.5 336" style="enable-background:new 0 0 2390.5 336;" xml:space="preserve">
<style type="text/css">
	.st0{fill:#EC2331;}
</style>
<g>
	<path class="st0" d="M15,321c2.1-12.4,4.2-24.3,6.3-36.2c6-33.6,11.9-67.1,17.9-100.7c1.5-8.5,2.9-17.1,4.7-25.6
		c0.3-1.5,1.9-3.4,3.3-3.8c18.8-5.9,37.5-12.6,56.7-17.1c26.9-6.3,54.2-11,81.4-16.1c17.8-3.3,35.7-6,53.5-9.4
		c3.8-0.7,7.5-2.8,10.7-5.1c2.8-1.9,2.2-4.8-1-6.1c-2.4-1-5.1-1.9-7.6-1.8c-9.4,0.3-18.8,0.7-28.2,1.8c-16.9,1.9-32.6-0.2-46.6-10.6
		c-3-2.3-6.2-4.3-9.5-6.2c-9-5.2-18.3-3.9-28.4-0.9c4.7,5.1,9,9.8,13.3,14.5c3.4,3.7,6.9,7.4,10.3,11.1c2.7,2.9,4.9,6.7,10.2,4.8
		c-10.3,3.8-20,8.9-31.1,9c-6.4,0.1-12-2.2-17.5-5.3c-4.8-2.7-9.8-3.8-15.8-1.6c3.7,4.3,7.1,8.2,10.6,12.3
		c-20.6,4.5-40.7,9-61.2,13.4c1.3-7.5,2.5-15.1,3.9-22.8c5.9-33.4,11.9-66.9,17.9-100.3c1-5.7,1-5.7,6.7-5.7
		c52.8,0,105.6,0.1,158.3,0c16.7,0,33,1.8,48.4,8.4c28.5,12.3,44.3,34.1,47.5,64.7c5.3,51.4-21.9,101.7-70.8,125.3
		c-0.8,0.4-1.5,0.8-2.5,1.4c12.2,36.2,24.4,72.2,36.8,108.9c-1.9,0-3.1,0-4.4,0c-33,0-66-0.1-99,0.1c-3.4,0-4.5-1.2-5.3-4.2
		c-7.7-29.7-15.6-59.4-23.3-89.1c-0.8-3.1-2.2-3.9-5.2-3.8c-8.2,0.2-16.4,0.3-24.6,0c-3.7-0.1-5.2,0.9-5.8,4.7
		c-4.4,25.9-9.1,51.8-13.7,77.7c-0.7,3.7-1.6,7.4-1.9,11.1c-0.3,3.1-1.8,3.6-4.4,3.6c-28.8-0.1-57.7,0-86.5-0.1
		C17.9,321.2,16.8,321.1,15,321z M198.1,121.7c-9.1,2.3-18.1,4.7-27.4,7.1c6.6,7.7,12.8,15.1,19.1,22.4c0.6,0.7,2.2,0.9,3.2,0.6
		c7.5-2.4,11-9.1,8.9-16.7C200.7,130.7,199.4,126.4,198.1,121.7z"/>
	<polygon class="st0" points="2375.5,12.6 2273.7,12.6 2195.7,114.7 2152.6,12.6 2041.8,12.6 2133.3,189.9 2108.8,323.5 
		2199.6,323.5 2222.6,198.1 	"/>
	<path class="st0" d="M1900.6,323.5h98.1l-59.1-311h-19.2h-78.9h-19.2l-175.1,311h98.1l22.7-40.3h125L1900.6,323.5z M1811.1,206.6
		l50.3-89.3l17,89.3H1811.1z"/>
	<polygon class="st0" points="1592.8,12.6 1509,198.6 1497.1,12.6 1430.8,12.6 1355.2,189 1340.6,12.6 1243.8,12.6 1269.6,323.5 
		1366.4,323.5 1440.1,152.5 1452.8,323.5 1549.6,323.5 1689.5,12.6 	"/>
	<polygon class="st0" points="511,90.2 654.8,90.2 669.1,12.6 525.3,12.6 487.4,12.6 434.5,12.6 377.3,323.5 455.6,323.5 
		468.1,323.5 611.9,323.5 626.7,243.4 482.8,243.4 490.1,203.6 634,203.6 647.5,130 503.7,130 	"/>
	<path class="st0" d="M923.3,12.6c-39.8,0-73,0-73,0h-90.8l-57.1,311h90.8h35.9c118.1,0,214.3-81.4,214.3-179
		C1043.4,47.1,963.1,12.6,923.3,12.6z M842.7,243.1l-34.8,0.3l27.9-153.2c0,0,25.8,0,60.3,0c34.5,0,51.1,29.2,51.1,60.4
		S916.3,243.1,842.7,243.1z"/>
</g>
</svg>
