<svg id="Layer_1" data-name="Layer 1" xmlns="http://www.w3.org/2000/svg" viewBox="0 0 1362 244.78"><defs><style>.cls-1{fill:#21295a;}.cls-2{fill:#c1c1c1;}.cls-3{fill:#bb3027;}</style></defs><path class="cls-1" d="M30.33,149.76V13.31H105a42,42,0,0,1,42,42v3.78a32.45,32.45,0,0,1-32.44,32.45h0l34.22,58.22H104.56l-34.23-70H85.67a22.45,22.45,0,0,0,22.44-22.45V55.09C108.11,37.54,95,30.2,75.44,30.2H68.33V149.76Z"/><path class="cls-1" d="M184,130.24V111.43H213.3V98.31H184V79.5a6.41,6.41,0,0,1,6.41-6.41h26V60H172.67a19.45,19.45,0,0,0-19.45,19.45v50.88a19.45,19.45,0,0,0,19.45,19.45h44.92V136.65H190.37A6.41,6.41,0,0,1,184,130.24Z"/><path class="cls-1" d="M266.33,60H225.44V190.87h30.67V149.76h8.45c20.88,0,52.22-5.11,52.22-44.89S280.11,60,266.33,60Zm-5.77,76.89h-4.45v-64h3.78c13.11,0,23.78,9.33,23.78,32S274.56,136.87,260.56,136.87Z"/><path class="cls-1" d="M504.1,104.87C504.1,65.09,472.77,60,451.88,60h-8.45V6H412.77V149.76h40.89C467.43,149.76,504.1,144.65,504.1,104.87Zm-33.11,0c0,22.67-10.67,32-23.78,32h-3.78v-64h4.45C461.88,72.87,471,82.2,471,104.87Z"/><path class="cls-1" d="M325.15,60h30.66v61.33a12.75,12.75,0,0,0,12.75,12.75h1.77a12.74,12.74,0,0,0,12.74-12.75V60h14.82v59.56a30.22,30.22,0,0,1-30.22,30.22H358.3a33.15,33.15,0,0,1-33.15-33.15Z"/><path class="cls-1" d="M543.89,127.2V6H513.44V125.76a24,24,0,0,0,24,24h28v-14h-13A8.55,8.55,0,0,1,543.89,127.2Z"/><rect class="cls-1" x="572.78" y="58.65" width="30.67" height="91.11"/><circle class="cls-1" cx="588.11" cy="21.7" r="15.72"/><path class="cls-1" d="M667.33,136.2c-12.22,0-19.44-10.66-19.44-34s7.22-34,19.44-34,20.11,15.34,20.11,15.34l12.34-6.89c-9.11-12.89-19.67-20.22-37.22-20.22s-48.89,10.88-48.89,45.77S645,148,662.56,148c21.22,0,30.44-10.67,39.55-23.55l-12.33-6.89S679.56,136.2,667.33,136.2Z"/><path class="cls-1" d="M1218.74,130.24V111.43h29.33V98.31h-29.33V79.5a6.41,6.41,0,0,1,6.41-6.41h26V60h-43.67A19.45,19.45,0,0,0,1188,79.43v50.88a19.45,19.45,0,0,0,19.44,19.45h44.93V136.65h-27.22A6.41,6.41,0,0,1,1218.74,130.24Z"/><path class="cls-1" d="M1033.41,127.2V6H1003V125.76a24,24,0,0,0,24,24h28v-14h-13A8.55,8.55,0,0,1,1033.41,127.2Z"/><rect class="cls-1" x="1060.33" y="58.65" width="30.67" height="91.11"/><circle class="cls-1" cx="1075.67" cy="21.7" r="15.72"/><rect class="cls-1" x="869.52" y="58.65" width="30.67" height="91.11"/><circle class="cls-1" cx="884.85" cy="21.7" r="15.72"/><path class="cls-1" d="M913.44,149.76V58.65h50.49a28,28,0,0,1,28,28v1.3c0,13.33-8.22,17.77-16.22,21.33l26,40.52H967.44L944.78,104.2s18,2,18-15.63-11.56-16-18.37-16v77.19Z"/><path class="cls-1" d="M820.11,149.76H861.3L811.81,13.91H773.89l-47.7,135.85h19.25l14.43-40.3h45.36ZM765.8,92.87l16.39-45.78L799.1,92.87Z"/><path class="cls-1" d="M1104.11,149.76V74.62a16,16,0,0,1,16-16h0a19.49,19.49,0,0,1,16.06,8.45l26.19,38.14V58.65h15.11v78.71a12.4,12.4,0,0,1-12.39,12.4h0a15.73,15.73,0,0,1-13-6.82l-32.65-47.48v54.3Z"/><path class="cls-1" d="M1263.22,149.76v-13.3H1297a6.67,6.67,0,0,0,6.67-6.66v-2.12c0-3.77-3.56-8.88-13.11-10.88S1259.44,111,1259.44,89s17.78-29,36.45-29h26.67V73.91h-25.78a6.67,6.67,0,0,0-6.67,6.66h0c0,5.56,5.78,8.45,13.11,10.45s28.45,4.66,28.45,30.22-20.89,28.52-34,28.52Z"/><rect class="cls-2" x="5.89" y="211.02" width="1350.22" height="27.78"/><rect class="cls-3" x="5.89" y="163.09" width="202.22" height="27.78"/><rect class="cls-3" x="272.11" y="163.09" width="1084" height="27.78"/></svg>