<?xml version="1.0" encoding="UTF-8" standalone="no"?>
<!-- Created with Inkscape (http://www.inkscape.org/) -->

<svg
   width="44.476772mm"
   height="14.11246mm"
   viewBox="0 0 44.476772 14.11246"
   version="1.1"
   id="svg26114"
   inkscape:version="1.2 (dc2aedaf03, 2022-05-15)"
   sodipodi:docname="Rex Express lovo.svg"
   xmlns:inkscape="http://www.inkscape.org/namespaces/inkscape"
   xmlns:sodipodi="http://sodipodi.sourceforge.net/DTD/sodipodi-0.dtd"
   xmlns="http://www.w3.org/2000/svg"
   xmlns:svg="http://www.w3.org/2000/svg"
   xmlns:rdf="http://www.w3.org/1999/02/22-rdf-syntax-ns#"
   xmlns:cc="http://creativecommons.org/ns#"
   xmlns:dc="http://purl.org/dc/elements/1.1/">
  <title
     id="title30228">Rex Express lovo</title>
  <sodipodi:namedview
     id="namedview26116"
     pagecolor="#ffffff"
     bordercolor="#999999"
     borderopacity="1"
     inkscape:showpageshadow="0"
     inkscape:pageopacity="0"
     inkscape:pagecheckerboard="false"
     inkscape:deskcolor="#d1d1d1"
     inkscape:document-units="mm"
     showgrid="false"
     inkscape:zoom="4.7572176"
     inkscape:cx="68.212142"
     inkscape:cy="21.336001"
     inkscape:window-width="1920"
     inkscape:window-height="1001"
     inkscape:window-x="-9"
     inkscape:window-y="-9"
     inkscape:window-maximized="1"
     inkscape:current-layer="layer1" />
  <defs
     id="defs26111" />
  <g
     inkscape:label="Layer 1"
     inkscape:groupmode="layer"
     id="layer1"
     transform="translate(-94.335379,-165.58007)">
    <path
       d="m 138.81212,175.56114 c 0.005,0.64523 -0.61313,1.17299 -1.28552,1.17934 -0.67204,0.006 -1.22238,-0.51188 -1.22802,-1.155 -0.005,-0.64593 0.53516,-1.17369 1.20826,-1.17933 0.67275,-0.006 1.29999,0.51117 1.30528,1.15499"
       style="fill:#f47920;fill-opacity:1;fill-rule:nonzero;stroke:none;stroke-width:0.352778"
       id="path22442" />
    <path
       d="m 134.13005,178.66549 c 7.1e-4,-0.005 0,-0.01 0,-0.0123 -0.002,-0.0282 -0.005,-0.054 -0.009,-0.0811 -0.001,-0.004 -0.003,-0.008 -0.003,-0.0123 -0.0402,-0.24342 -0.1457,-0.45509 -0.21626,-0.57044 -1.98226,-3.26108 -5.00768,-5.83248 -5.00768,-5.83248 0,0 -0.0998,-0.10619 -0.0462,-0.15487 0.0522,-0.0494 0.65475,-0.45579 0.7934,-0.53516 0.13864,-0.0819 0.94756,-0.56515 1.21496,-0.69815 0.80539,-0.40181 1.75084,-0.43921 1.71062,-1.09855 -0.018,-0.32738 -0.38065,-0.57609 -0.55703,-0.64699 -1.44428,-0.57962 -3.46922,0.73377 -3.74756,0.89429 -0.28222,0.16404 -0.89465,0.60254 -0.96309,0.65193 -0.0699,0.0483 -0.11571,0.0878 -0.21131,0.002 -0.39793,-0.35207 -2.00872,-1.43298 -4.0319,-2.50331 -2.02459,-1.06962 -4.46122,-2.12689 -6.24416,-2.4511 -0.47026,-0.0847 -1.13418,-0.0621 -1.36984,0.49001 -0.16228,0.37924 -0.0416,0.86466 0.59126,1.15429 0.47801,0.21837 2.45392,0.63429 5.54425,2.20768 1.33773,0.68051 3.47133,2.16359 3.47133,2.16359 0.13441,0.0903 0.34784,0.25047 0.35772,0.2981 0.0102,0.0572 -0.25506,0.20002 -0.39617,0.33231 -0.1404,0.13088 -1.45591,1.01318 -1.76001,1.22626 -0.34149,0.23777 -1.85843,1.24389 -2.15053,1.38218 -0.45896,0.21978 -0.91757,0.49177 -0.93592,1.02517 -0.004,0.13371 0.0173,0.26 0.0575,0.37959 0.003,0.008 0.005,0.0166 0.008,0.024 0.004,0.0141 0.008,0.0268 0.0152,0.0399 0.0815,0.20708 0.21837,0.36618 0.35525,0.45543 0.16862,0.12312 0.37288,0.19826 0.5969,0.20744 0.26458,0.008 0.45579,-0.0861 0.70732,-0.20073 0.43497,-0.26565 0.90664,-0.56445 1.13418,-0.71932 0.36265,-0.24659 3.86327,-2.78906 3.86327,-2.78906 0,0 0.0529,-0.0607 0.15169,0.0275 0.10054,0.0889 3.11997,2.87725 4.62033,5.00097 0.28928,0.40852 0.42298,0.59408 0.53658,0.768 0.11077,0.17004 0.20531,0.26035 0.3503,0.37959 0.14006,0.11501 0.3168,0.19332 0.50942,0.21273 0.0639,0.01 0.12947,0.0127 0.19367,0.007 0.25718,-0.0265 0.42792,-0.0903 0.62477,-0.30268 0.2092,-0.22649 0.26106,-0.48366 0.2413,-0.72108"
       style="fill:#f47920;fill-opacity:1;fill-rule:nonzero;stroke:none;stroke-width:0.352778"
       id="path22446" />
    <path
       d="m 111.04912,169.5683 c 0.13829,3.5e-4 0.66252,-0.008 0.73766,0.22507 0.0508,0.15734 -0.0568,0.29739 -0.16545,0.37994 -0.39088,0.29634 -1.2566,0.52529 -1.91453,0.51823 -0.20108,-0.003 -0.42298,-0.0102 -0.42016,-0.0554 0.019,-0.35948 0.98566,-1.0728 1.76248,-1.06786 m 7.01534,4.76391 c -0.20355,7.1e-4 -0.39441,0.0635 -0.55492,0.16722 -0.36054,0.13688 -0.78458,0.32455 -0.95391,0.37112 -0.20532,0.054 -4.00509,1.63054 -6.50734,-0.66428 -0.89253,-0.81915 -0.92675,-1.65171 -0.92675,-1.65171 0,0 0.18415,0.0519 0.69427,0.031 4.80871,-0.1965 4.7498,-3.69076 3.29706,-4.56847 -0.91475,-0.55175 -1.80904,-0.38594 -2.06446,-0.38383 -0.25435,0.002 -0.87277,0.17181 -0.87277,0.17181 -2.6737,0.80821 -3.18205,3.048 -3.23321,3.49285 -0.0416,0.34255 -0.12911,0.47449 -0.0444,1.36772 0.16969,1.75648 1.75578,3.48262 3.71158,4.24321 1.95403,0.76271 4.21605,0.63606 6.26251,0.008 0.52423,-0.16051 0.90276,-0.27834 1.19062,-0.42157 0.002,-0.001 0.005,-0.001 0.008,-0.001 0.12982,-0.0515 0.27022,-0.11325 0.38629,-0.17569 0.38206,-0.15134 0.65193,-0.52881 0.64911,-0.96661 -0.006,-0.56868 -0.47096,-1.02588 -1.0414,-1.01988"
       style="fill:#003f74;fill-opacity:1;fill-rule:nonzero;stroke:none;stroke-width:0.352778"
       id="path22450" />
    <path
       d="m 108.77635,166.25321 z m -10.732911,4.37127 c 0.04374,-0.0483 4.438651,-4.86904 9.365541,-5.04366 0.55034,-0.0176 1.01248,0.2794 1.16452,0.73942 0.19368,0.58384 -0.18309,1.23684 -0.83749,1.45274 -0.31397,0.10336 -0.64523,0.0931 -0.93416,-0.031 l -0.0155,-0.007 -0.0155,-0.001 c -0.32385,-0.0328 -0.7433,0.067 -1.03823,0.15663 -3.6523,1.10032 -6.725705,3.93877 -9.137294,8.43598 -0.127352,0.23953 -0.240241,0.38452 -0.46108,0.63958 -0.18415,0.21343 -0.811389,0.68369 -1.269295,0.57891 -0.408869,-0.0914 -0.479777,-0.33161 -0.516466,-0.56868 -0.05292,-0.33267 0.06209,-0.70026 0.207433,-1.16663 0.09913,-0.31821 0.212725,-0.68192 0.300567,-1.11866 0.31503,-1.56104 0.454378,-2.76966 0.413808,-3.59163 -0.01658,-0.33761 0,-0.768 0.285045,-1.08832 0.283986,-0.32032 0.664986,-0.35737 0.999419,-0.38806 0.46108,-0.0434 0.688622,0.10972 0.854428,0.22225 0.154164,0.10407 0.243064,0.25859 0.248355,0.42263 -3.53e-4,0 -0.0053,0.0522 -0.0053,0.0522 -0.0071,0.0632 -0.01482,0.13018 -0.01482,0.19403 0,0.10901 0.02222,0.20743 0.108655,0.24553 0.124884,0.0554 0.246239,-0.078 0.297392,-0.13511"
       style="fill:#003f74;fill-opacity:1;fill-rule:nonzero;stroke:none;stroke-width:0.352778"
       id="path22454" />
  </g>
  <metadata
     id="metadata30226">
    <rdf:RDF>
      <cc:Work
         rdf:about="">
        <dc:title>Rex Express lovo</dc:title>
      </cc:Work>
    </rdf:RDF>
  </metadata>
</svg>
