<?xml version="1.0" encoding="utf-8"?>
<!-- Generator: Adobe Illustrator 16.0.3, SVG Export Plug-In . SVG Version: 6.00 Build 0)  -->
<!DOCTYPE svg PUBLIC "-//W3C//DTD SVG 1.1//EN" "http://www.w3.org/Graphics/SVG/1.1/DTD/svg11.dtd">
<svg version="1.1" id="Ebene_2" xmlns="http://www.w3.org/2000/svg" xmlns:xlink="http://www.w3.org/1999/xlink" x="0px" y="0px"
	 width="206.957px" height="58.563px" viewBox="0 0 206.957 58.563" enable-background="new 0 0 206.957 58.563"
	 xml:space="preserve">
<path fill="#E30613" d="M25.112,4.263C22.269,17.013,4.258,29.284,4.258,29.284s14.698,10.167,22.5,25.021h13.104
	c0,0-13.773-19.533-20.75-25.448c0,0,6.656-5.031,12.594-14.688h7.656c0,0,6.563,0,6.563,6.281c0,6.563-7.406,7.406-8.031,7.5
	s-6.875,0.594-6.875,0.594L51.55,54.305h14.563L47.872,32.85c0,0-0.353-0.4-0.353-0.65s0.063-0.453,0.5-0.453
	c2.927,0,9.698-3.203,9.698-11.838c0-16.333-14.75-15.646-14.75-15.646H25.112z"/>
<g>
	<path d="M77.891,25.938c0.625-0.798,0.938-1.833,0.938-3.105c0-0.838-0.159-1.606-0.477-2.302
		c-0.318-0.696-0.773-1.269-1.365-1.718c-0.524-0.397-1.147-0.68-1.87-0.848c-0.723-0.169-2.001-0.253-3.835-0.253h-4.683v16.441
		h4.2v-6.435l3.773,6.435h5.065l-4.481-6.626C76.354,27.264,77.266,26.734,77.891,25.938z M73.747,24.988
		c-0.446,0.33-1.151,0.494-2.117,0.494h-0.831v-4.324h0.898c0.981,0,1.679,0.174,2.095,0.522c0.415,0.349,0.623,0.934,0.623,1.758
		C74.415,24.142,74.192,24.659,73.747,24.988z"/>
	<path d="M92.245,23.82c-0.359-0.442-0.826-0.78-1.398-1.017c-0.573-0.235-1.226-0.354-1.96-0.354c-0.943,0-1.756,0.198-2.437,0.595
		s-1.273,1.018-1.774,1.864c0.045-0.277,0.079-0.588,0.101-0.932s0.034-0.719,0.034-1.123v-6.109h-3.931v17.407h3.931v-4.762
		c0-1.377,0.191-2.374,0.573-2.987s0.988-0.921,1.819-0.921c0.651,0,1.125,0.206,1.421,0.618c0.295,0.412,0.443,1.071,0.443,1.977
		v6.076h4.009v-6.491c0-1.085-0.063-1.902-0.191-2.448S92.544,24.202,92.245,23.82z"/>
	<path d="M101.393,22.45c-1.827,0-3.337,0.584-4.532,1.752c-1.194,1.168-1.791,2.635-1.791,4.402c0,1.797,0.597,3.244,1.791,4.341
		c1.194,1.097,2.78,1.645,4.756,1.645c1.325,0,2.444-0.236,3.358-0.708s1.514-1.16,2.027-1.995c0.425-0.767,0.466-1.228,0.466-1.228
		h-3.594c-0.217,0.449-0.533,0.788-0.949,1.016c-0.415,0.229-0.926,0.343-1.533,0.343c-0.809,0-1.434-0.238-1.875-0.713
		c-0.442-0.476-0.667-1.151-0.674-2.027h8.625v-0.191c0-2.059-0.543-3.68-1.628-4.863S103.272,22.45,101.393,22.45z M98.934,27.021
		c0.127-0.711,0.384-1.245,0.77-1.6c0.385-0.356,0.904-0.534,1.555-0.534c0.606,0,1.118,0.195,1.533,0.584
		c0.416,0.389,0.661,0.906,0.736,1.55H98.934z"/>
	<path d="M111.688,17.082c-0.606,0-1.125,0.213-1.555,0.64c-0.431,0.427-0.646,0.943-0.646,1.55s0.217,1.13,0.651,1.572
		s0.951,0.663,1.55,0.663c0.614,0,1.136-0.217,1.567-0.651c0.43-0.434,0.646-0.962,0.646-1.583s-0.211-1.142-0.635-1.561
		C112.842,17.292,112.316,17.082,111.688,17.082z"/>
	<rect x="109.688" y="22.81" width="4.009" height="11.343"/>
	<path d="M127.934,23.82c-0.359-0.442-0.826-0.78-1.398-1.017c-0.573-0.235-1.226-0.354-1.96-0.354c-0.973,0-1.808,0.213-2.504,0.64
		s-1.31,1.101-1.842,2.021V22.81h-3.661v11.343h3.931v-4.762c0-1.377,0.191-2.374,0.573-2.987s0.988-0.921,1.819-0.921
		c0.651,0,1.125,0.206,1.421,0.618c0.295,0.412,0.443,1.071,0.443,1.977v6.076h4.009v-6.491c0-1.085-0.063-1.902-0.191-2.448
		S128.233,24.202,127.934,23.82z"/>
	<polygon points="135.959,19.429 132.017,19.429 132.017,22.81 130.321,22.81 130.321,25.64 132.017,25.64 132.017,34.152 
		135.959,34.152 135.959,25.64 137.655,25.64 137.655,22.81 135.959,22.81 	"/>
	<path d="M147.803,24.674c-0.442-0.756-0.971-1.316-1.589-1.679c-0.617-0.363-1.353-0.545-2.207-0.545
		c-1.602,0-2.877,0.545-3.824,1.634c-0.947,1.09-1.421,2.559-1.421,4.408c0,1.857,0.453,3.337,1.359,4.441
		c0.906,1.104,2.115,1.657,3.627,1.657c0.883,0,1.653-0.184,2.308-0.55c0.655-0.367,1.245-0.943,1.769-1.729v1.842h3.672V22.81
		h-3.695V24.674z M147.275,30.559c-0.472,0.509-1.116,0.764-1.932,0.764c-0.809,0-1.449-0.254-1.92-0.764s-0.708-1.206-0.708-2.089
		c0-0.891,0.234-1.593,0.702-2.105c0.468-0.513,1.11-0.77,1.926-0.77s1.46,0.258,1.932,0.775s0.708,1.217,0.708,2.1
		S147.747,30.049,147.275,30.559z"/>
	<rect x="154.447" y="16.745" width="4.009" height="17.407"/>
	<path d="M166.021,16.509c-1.43,0-2.504,0.333-3.223,1s-1.078,1.658-1.078,2.976v2.325h-1.707v2.83h1.707v8.513h3.931V25.64h1.999
		v-2.83h-1.999v-1.808c0-0.501,0.086-0.865,0.258-1.089s0.445-0.337,0.82-0.337c0.127,0,0.268,0.017,0.421,0.051
		c0.154,0.033,0.32,0.084,0.5,0.151v-3.055c-0.322-0.067-0.623-0.12-0.904-0.157C166.465,16.528,166.223,16.509,166.021,16.509z"/>
	<rect x="169.33" y="16.745" width="4.009" height="17.407"/>
	<path d="M183.937,28.863c0,0.966-0.155,1.657-0.466,2.072c-0.311,0.416-0.821,0.624-1.533,0.624c-0.704,0-1.213-0.211-1.527-0.634
		c-0.314-0.423-0.472-1.11-0.472-2.061V22.81h-3.818v5.795c0,1.28,0.101,2.233,0.303,2.858c0.202,0.625,0.546,1.169,1.033,1.634
		c0.524,0.501,1.159,0.876,1.903,1.123c0.745,0.247,1.619,0.371,2.623,0.371c1.011,0,1.891-0.124,2.639-0.371
		s1.374-0.622,1.875-1.123c0.487-0.479,0.833-1.027,1.039-1.646c0.206-0.617,0.309-1.566,0.309-2.847V22.81h-3.908V28.863z"/>
	<path d="M199.004,22.81v1.819c-0.449-0.749-0.983-1.299-1.601-1.651c-0.618-0.352-1.35-0.528-2.196-0.528
		c-1.602,0-2.876,0.537-3.823,1.611c-0.947,1.075-1.421,2.521-1.421,4.341c0,1.804,0.453,3.248,1.359,4.329
		c0.906,1.082,2.108,1.623,3.605,1.623c0.898,0,1.673-0.174,2.325-0.522c0.65-0.348,1.187-0.877,1.605-1.589v1.033
		c0,1.333-0.163,2.207-0.488,2.622c-0.326,0.416-0.919,0.624-1.78,0.624c-0.547,0-0.986-0.099-1.319-0.297
		c-0.333-0.199-0.53-0.474-0.59-0.826h-4.144c0.06,1.198,0.591,2.125,1.595,2.78c1.003,0.655,2.388,0.982,4.154,0.982
		c2.187,0,3.802-0.41,4.847-1.229c1.044-0.82,1.566-2.087,1.566-3.802V22.81H199.004z M198.476,30.502
		c-0.472,0.501-1.115,0.752-1.932,0.752c-0.831,0-1.484-0.251-1.96-0.752s-0.713-1.187-0.713-2.055c0-0.876,0.237-1.563,0.713-2.061
		c0.476-0.498,1.129-0.747,1.96-0.747c0.823,0,1.47,0.249,1.938,0.747c0.468,0.498,0.702,1.185,0.702,2.061
		C199.184,29.316,198.947,30.001,198.476,30.502z"/>
</g>
</svg>
