<?xml version="1.0" encoding="UTF-8" standalone="no"?>
<!DOCTYPE svg PUBLIC "-//W3C//DTD SVG 1.0//EN" "http://www.w3.org/TR/2001/REC-SVG-20010904/DTD/svg10.dtd">
<!-- Created with Inkscape (http://www.inkscape.org/) -->
<svg
   xmlns:svg="http://www.w3.org/2000/svg"
   xmlns="http://www.w3.org/2000/svg"
   version="1.0"
   width="800"
   height="250"
   id="svg2">
  <defs
     id="defs4" />
  <g
     id="layer1">
    <path
       d="M 275.65615,107.84484 C 275.56668,121.84561 275.90229,135.84489 275.65615,149.84425 C 275.65615,167.64855 290.16863,182.20238 307.97293,182.20242 C 325.77724,182.20239 340.24834,167.64856 340.24834,149.84425 C 340.24833,132.03991 325.77724,117.56888 307.97293,117.56884 C 304.46308,117.56884 301.08594,118.18456 297.9179,119.22399 L 297.9179,107.84484 L 275.65615,107.84484 z M 281.03538,113.14132 L 292.62143,113.14132 L 292.62143,121.45844 L 292.6628,127.5825 C 296.64242,124.83708 301.41804,123.12575 306.56606,122.86532 C 307.02694,122.842 307.5061,122.86532 307.97293,122.86532 C 322.91152,122.86534 334.99324,134.90567 334.99324,149.84425 C 334.99326,164.78282 322.91152,176.90594 307.97293,176.90594 C 293.21268,176.90595 281.27677,165.07373 280.994,150.38218 L 281.03538,150.38218 L 281.03538,148.47875 L 281.03538,132.09278 L 281.03538,113.14132 z M 234.8981,117.56884 C 217.09377,117.56883 202.58131,132.08132 202.58131,149.88563 C 202.58131,167.68993 217.09378,182.20238 234.8981,182.20242 C 252.70239,182.20239 267.21489,167.68994 267.21489,149.88563 C 267.21487,132.08131 252.70241,117.56888 234.8981,117.56884 z M 412.99215,117.56884 C 395.18785,117.56881 380.67536,132.03995 380.67536,149.84425 C 380.67536,149.87137 380.67529,149.8999 380.67536,149.92701 L 380.67536,182.40931 L 402.7716,182.40931 L 402.68884,149.80287 C 402.7117,144.11348 407.29699,139.58233 412.99215,139.58233 C 418.70155,139.58233 423.25407,144.13486 423.25407,149.84425 C 423.25407,149.87166 423.25428,149.89965 423.25407,149.92701 L 423.21269,182.40931 L 445.26755,182.40931 L 445.26755,149.80287 C 445.24498,132.01763 430.78255,117.56888 412.99215,117.56884 z M 347.73789,118.2309 L 347.73789,120.87914 L 347.73789,179.76107 L 347.73789,182.40931 L 350.38613,182.40931 L 367.64106,182.40931 L 370.2893,182.40931 L 370.2893,179.76107 L 370.2893,120.87914 L 370.2893,118.2309 L 367.64106,118.2309 L 350.38613,118.2309 L 347.73789,118.2309 z M 234.8981,122.86532 C 249.83667,122.86536 261.91841,134.94704 261.91841,149.88563 C 261.9184,164.8242 249.83668,176.90594 234.8981,176.90594 C 219.95949,176.90595 207.91917,164.82421 207.91917,149.88563 C 207.91917,134.94702 219.95951,122.86532 234.8981,122.86532 z M 412.99215,122.86532 C 427.93074,122.86534 440.01246,134.90567 440.01246,149.84425 L 440.01246,177.11284 L 428.59193,177.11284 L 428.59193,149.80287 C 428.56895,141.24686 421.55323,134.2858 412.99215,134.28585 C 404.43109,134.28581 397.45661,141.2469 397.43374,149.80287 L 397.43374,177.11284 L 386.01322,177.11284 L 386.01322,149.80287 C 386.03598,134.8838 398.06768,122.86532 412.99215,122.86532 z M 353.03437,123.52738 L 364.99282,123.52738 L 364.99282,177.11284 L 353.03437,177.11284 L 353.03437,123.52738 z M 234.8981,134.28585 C 226.32296,134.28582 219.33971,141.3105 219.3397,149.88563 C 219.3397,158.46075 226.32296,165.44407 234.8981,165.44403 C 243.4732,165.44401 250.49787,158.46076 250.49788,149.88563 C 250.49788,141.31049 243.47323,134.28581 234.8981,134.28585 z M 307.97293,134.28585 C 299.39781,134.28581 292.41455,141.26912 292.41453,149.84425 C 292.41453,158.41937 299.39779,165.48545 307.97293,165.48541 C 316.54806,165.4854 323.5727,158.41939 323.57271,149.84425 C 323.57273,141.26908 316.54808,134.2858 307.97293,134.28585 z M 307.97293,139.58233 C 313.68232,139.58233 318.23486,144.13486 318.23486,149.84425 C 318.23485,155.55363 313.68234,160.18893 307.97293,160.18893 C 302.26354,160.18899 297.66963,155.55367 297.66963,149.84425 C 297.66963,144.13483 302.26353,139.58233 307.97293,139.58233 z M 234.8981,139.62371 C 240.60748,139.62369 245.2014,144.17623 245.2014,149.88563 C 245.20138,155.59502 240.6075,160.18893 234.8981,160.18893 C 229.1887,160.189 224.5948,155.59503 224.5948,149.88563 C 224.59482,144.17621 229.1887,139.62371 234.8981,139.62371 z"
       id="path3716"
       style="opacity:1;fill:#076632;fill-opacity:1;fill-rule:nonzero;stroke:none;stroke-width:4;stroke-linecap:round;stroke-linejoin:miter;stroke-miterlimit:4;stroke-dasharray:none;stroke-opacity:1" />
    <path
       d="M 25.734548,82.432407 C 88.262097,56.063617 179.49192,66.7924 199.76165,70.84635 C 233.17712,77.529445 230.70047,103.63443 171.86057,121.91953 C 155.97602,126.85581 142.38285,131.11913 131.90053,132.55978 C 127.10949,133.21824 124.35207,133.89341 121.26029,131.37753 C 114.74942,126.07944 99.979798,123.84133 99.979798,125.22982 C 105.49151,123.40153 139.20624,119.14458 166.89512,109.38769 C 218.92908,91.052172 210.05362,77.49523 130.00893,74.866006 C 97.787586,73.807624 31.334368,80.344337 25.734548,82.432407 z"
       id="path3629"
       style="fill:#a71033;fill-opacity:1;fill-rule:evenodd;stroke:#000000;stroke-width:0.13241193;stroke-linecap:butt;stroke-linejoin:miter;stroke-miterlimit:4;stroke-dasharray:none;stroke-opacity:1" />
    <path
       d="M 105.0051,123.63458 C 129.64272,231.78924 290.99227,233.72954 327.37486,197.86931 C 249.92005,228.30559 134.66849,187.23112 105.0051,123.63458 z"
       id="path3631"
       style="fill:#a71033;fill-opacity:1;fill-rule:evenodd;stroke:#000000;stroke-width:0.13241193;stroke-linecap:butt;stroke-linejoin:miter;stroke-miterlimit:4;stroke-dasharray:none;stroke-opacity:1" />
    <path
       d="M 580.08779,16.405502 C 526.83473,69.431979 476.73702,128.45681 450.87141,207.98727 C 457.93498,199.01014 465.22038,191.14218 474.0435,190.96288 C 498.15581,131.41611 541.49456,69.056419 580.08779,16.405502 z"
       id="path3653"
       style="fill:#a80e33;fill-opacity:1;fill-rule:evenodd;stroke:#000000;stroke-width:0.13241193;stroke-linecap:butt;stroke-linejoin:miter;stroke-miterlimit:4;stroke-dasharray:none;stroke-opacity:1" />
    <path
       d="M 602.98354,26.506135 C 549.73048,79.532612 498.29521,142.23574 472.4296,221.7662 C 479.49317,212.78907 490.79125,198.56769 499.61438,198.38839 C 523.72668,138.84162 564.39031,79.157052 602.98354,26.506135 z"
       id="path3655"
       style="fill:#a80e33;fill-opacity:1;fill-rule:evenodd;stroke:#000000;stroke-width:0.13241193;stroke-linecap:butt;stroke-linejoin:miter;stroke-miterlimit:4;stroke-dasharray:none;stroke-opacity:1" />
    <path
       d="M 738.7255,107.84484 L 738.7255,119.22399 C 735.55746,118.18456 732.18033,117.56884 728.67046,117.56884 C 710.86616,117.56888 696.39508,132.03991 696.39506,149.84425 C 696.39506,167.64856 710.86617,182.20239 728.67046,182.20242 C 746.47477,182.20238 760.98726,167.64855 760.98725,149.84425 C 760.74111,135.84489 761.07674,121.84561 760.98725,107.84484 L 738.7255,107.84484 z M 744.02197,113.14132 L 755.60802,113.14132 L 755.60802,132.09278 L 755.60802,148.47875 L 755.60802,150.38218 L 755.6494,150.38218 C 755.36663,165.07373 743.43073,176.90595 728.67046,176.90594 C 713.73188,176.90594 701.65016,164.78282 701.65016,149.84425 C 701.65016,134.90567 713.7319,122.86534 728.67046,122.86532 C 729.1373,122.86532 729.61647,122.842 730.07734,122.86532 C 735.22536,123.12575 740.00098,124.83708 743.98059,127.5825 L 744.02197,121.45844 L 744.02197,113.14132 z M 584.87938,117.56884 C 567.07509,117.56881 552.5626,132.03995 552.5626,149.84425 C 552.56261,167.64855 567.07508,182.20238 584.87938,182.20242 C 602.6837,182.20239 617.15479,167.64856 617.15479,149.84425 C 617.15479,132.03991 602.68369,117.56888 584.87938,117.56884 z M 656.75424,117.56884 C 638.94992,117.56881 624.43745,132.03995 624.43745,149.84425 C 624.43744,167.64855 638.94993,182.20238 656.75424,182.20242 C 674.55853,182.20239 689.02964,167.64856 689.02964,149.84425 C 689.02962,132.03991 674.55854,117.56888 656.75424,117.56884 z M 583.47251,122.86532 C 583.93339,122.842 584.41255,122.86532 584.87938,122.86532 C 599.81798,122.86534 611.89969,134.90567 611.89969,149.84425 C 611.89972,164.78282 599.81797,176.90594 584.87938,176.90594 C 569.9408,176.90595 557.90045,164.78285 557.90045,149.84425 C 557.90047,135.37248 569.18488,123.5881 583.47251,122.86532 z M 655.38874,122.86532 C 655.84962,122.842 656.2874,122.86532 656.75424,122.86532 C 671.6928,122.86534 683.77454,134.90567 683.77454,149.84425 C 683.77454,164.78282 671.69282,176.90594 656.75424,176.90594 C 641.81563,176.90595 629.7753,164.78285 629.7753,149.84425 C 629.77529,135.37248 641.10111,123.5881 655.38874,122.86532 z M 584.87938,134.28585 C 576.30427,134.28581 569.321,141.26912 569.32098,149.84425 C 569.321,158.41937 576.30424,165.48545 584.87938,165.48541 C 593.45453,165.4854 600.47915,158.41939 600.47916,149.84425 C 600.47919,141.26908 593.45453,134.2858 584.87938,134.28585 z M 656.75424,134.28585 C 648.17909,134.28581 641.19585,141.26912 641.19583,149.84425 C 641.19582,158.41937 648.17909,165.48545 656.75424,165.48541 C 665.32935,165.4854 672.354,158.41939 672.35402,149.84425 C 672.35402,141.26908 665.32938,134.2858 656.75424,134.28585 z M 728.67046,134.28585 C 720.09532,134.2858 713.07068,141.26908 713.07068,149.84425 C 713.0707,158.41939 720.09535,165.4854 728.67046,165.48541 C 737.24561,165.48545 744.22888,158.41937 744.22887,149.84425 C 744.22885,141.26912 737.24561,134.28581 728.67046,134.28585 z M 584.87938,139.58233 C 590.58879,139.58233 595.14131,144.13486 595.14131,149.84425 C 595.14131,155.55363 590.58879,160.18893 584.87938,160.18893 C 579.17001,160.18899 574.57608,155.55367 574.57608,149.84425 C 574.57609,144.13483 579.16998,139.58233 584.87938,139.58233 z M 656.75424,139.58233 C 662.46361,139.58233 667.01616,144.13486 667.01616,149.84425 C 667.01613,155.55363 662.46364,160.18893 656.75424,160.18893 C 651.04483,160.18899 646.45093,155.55367 646.45093,149.84425 C 646.45092,144.13483 651.04483,139.58233 656.75424,139.58233 z M 728.67046,139.58233 C 734.37987,139.58233 738.97378,144.13483 738.97377,149.84425 C 738.97377,155.55367 734.37987,160.18899 728.67046,160.18893 C 722.96106,160.18893 718.40857,155.55363 718.40854,149.84425 C 718.40854,144.13486 722.96109,139.58233 728.67046,139.58233 z"
       id="path3685"
       style="opacity:1;fill:#076632;fill-opacity:1;fill-rule:nonzero;stroke:none;stroke-width:4.13501453;stroke-linecap:round;stroke-linejoin:round;stroke-miterlimit:4;stroke-dasharray:none;stroke-opacity:1" />
  </g>
</svg>
