<?xml version="1.0" encoding="utf-8"?>
<!-- Generator: Adobe Illustrator 22.0.1, SVG Export Plug-In . SVG Version: 6.00 Build 0)  -->
<svg version="1.1" id="Layer_1" xmlns="http://www.w3.org/2000/svg" xmlns:xlink="http://www.w3.org/1999/xlink" x="0px" y="0px"
	 viewBox="0 0 5000 5000" style="enable-background:new 0 0 5000 5000;" xml:space="preserve">
<style type="text/css">
	.st0{fill:#C1272D;}
	.st1{fill:#FFFFFF;}
</style>
<rect x="0" class="st0" width="5000" height="5000"/>
<path class="st1" d="M3693.2,3413.7c-7.4-2.9-18.7,3.7-25.3,7.6c-2,1.2-7.8,4.8-13.8,11c-3.8,3.9-6.1,7.3-6.5,7.9
	c-4.7,6.7-50.8,58.2-116.9,101.2c-92.2,59.9-178.2,77.6-211.3,83.2c-26,4.4-123.2,18.8-242.8-13.5
	c-114.4-30.9-188.6-88.1-233.8-123.7c-120.4-94.7-181.9-199.8-236.1-294.5c-20.7-36.1-46.4-84.8-155.1-359.7
	c-42.6-107.8-77.2-197.7-101.2-260.8c45.9,11.4,109.1,24.6,184.9,32.6c72.3,7.6,204.7,21.5,347.4-8.4
	c270.3-56.8,435.1-241.1,458.7-268.1c142.4-163.6,181.6-336.6,199-419.9c25-119.8,20.3-214.9,18.5-242.8
	c-3.1-48.2-8.5-125.4-40.5-212.5c-77.9-212.4-252.5-317.4-274.9-330.5c-134.7-79-264-83.4-342.3-86c-71.2-2.4-172.7,3.4-285,40.5
	c-42.3,14-117.3,39.4-199,99.5c-37.4,27.5-65.9,54.7-86,75.9c9.9-60.5,33.4-89.4,54-104.5c30.6-22.6,67.3-24,85.4-59.6
	c3.3-6.5,10.1-20.4,4.8-34c-8.5-21.7-40.4-24.3-41.9-24.5H1867c-7,2.2-27.5,9.3-30.4,23.6c-2.6,13.2,11.2,25.8,31.5,43.8
	c26.7,23.7,37.3,23.8,59.6,46.1c12.7,12.8,21.7,22,27,37.1c8.2,23.7,1.6,46-2.2,56.2l-481.1,1888.6c-8.3,13-20.7,29.9-38.2,47.2
	c-20.8,20.5-42.5,35.1-60.7,47.2c-30.5,20.3-37.5,21-51.7,36c-12.9,13.5-30,31.6-24.7,49.5c4.4,14.9,23,25,45,27h566.6
	c27.8,1.3,49.3-5.5,52.3-16.9c3-11.5-13.3-25.7-21.4-32.6c-5.8-5-16.2-14-51.1-31.5c-28.4-14.2-36.5-15.9-46.1-27
	c-9-10.4-13-21.7-15-29.2l176.7-693.4c8.2,50.5,21.3,123.1,41.8,209.5c43.5,183.6,110.2,455.5,290,740.3
	c88.6,140.3,186.1,291.1,371,404.7c138.7,85.3,251.5,103.5,283.3,107.9c32.3,4.5,145.3,18,283.3-20.2
	c60.2-16.7,142.2-39.4,222.6-107.9c70.3-59.9,105-125.5,134.9-182.1c42.3-80,63.2-152.5,74.2-202.4
	C3707.6,3432.9,3702.3,3417.3,3693.2,3413.7z M2304.3,2341.9c-103.4-23-183.9-60.8-237.6-91.1l198.3-778.4c0.7-2.4,1.9-6.2,3.8-10.7
	c0,0,12.1-28.8,43-51.4c188.5-138.1,410.6-130.7,410.6-130.7c88.9,3,193.1,6.4,290,80.9c86.8,66.8,121.1,154.3,131.5,182.1
	c31.5,83.6,27.2,153.5,23.6,212.5c-7.1,117.8-44.1,207.5-66.6,254c-25.1,51.6-77.3,156-193,238.4c-105.2,74.9-207.1,92-283.3,104.5
	C2578.1,2359.6,2456,2375.5,2304.3,2341.9z"/>
</svg>
