<?xml version="1.0" encoding="utf-8"?>
<!-- Generator: Adobe Illustrator 24.1.1, SVG Export Plug-In . SVG Version: 6.00 Build 0)  -->
<svg version="1.1" id="Camada_1" xmlns="http://www.w3.org/2000/svg" xmlns:xlink="http://www.w3.org/1999/xlink" x="0px" y="0px"
	 viewBox="0 0 1366 405.3" style="enable-background:new 0 0 1366 405.3;" xml:space="preserve">
<style type="text/css">
	.st0{fill:#230656;}
	.st1{fill:#3AAAFC;}
	.st2{fill:#C1EAFF;}
	.st3{fill:#FFFFFF;}
</style>
<g>
	<g>
		<path class="st0" d="M323.4,196.1h65.4c-0.3-8.9-1.2-17.6-2.8-26.1h-53.3c-53.8,0-97.4-43.6-97.4-97.4V19.3
			c-8.5-1.5-17.3-2.4-26.1-2.8v65.4C209.2,145,260.3,196.1,323.4,196.1z"/>
		<path class="st1" d="M332.8,170h53.3c-2-11.3-5-22.2-8.9-32.7h-46.9c-34.3,0-62.2-27.8-62.2-62.2V28.2
			c-10.5-3.9-21.4-6.9-32.7-8.9v53.3C235.3,126.4,279,170,332.8,170z"/>
		<path class="st2" d="M330.2,137.3h46.9c-5.4-14.4-12.5-28-21.2-40.4c-6.5,6.8-15.7,11-25.9,11c-19.9,0-36-16.1-36-36
			c0-9.8,4-18.7,10.3-25.2C293.2,39.2,280.9,33,268,28.2v46.9C268,109.4,295.9,137.3,330.2,137.3z"/>
		<path class="st0" d="M196.1,81.9V16.5c-8.9,0.3-17.6,1.2-26.1,2.8v53.3c0,53.8-43.6,97.4-97.4,97.4H19.3
			c-1.5,8.5-2.4,17.3-2.8,26.1h65.4C145,196.1,196.1,145,196.1,81.9z"/>
		<path class="st1" d="M170,72.5V19.3c-11.3,2-22.2,5-32.7,8.9v46.9c0,34.3-27.8,62.2-62.2,62.2H28.2c-3.9,10.5-6.9,21.4-8.9,32.7
			h53.3C126.4,170,170,126.4,170,72.5z"/>
		<path class="st2" d="M137.3,75.1V28.2c-12.9,4.8-25.1,11.1-36.5,18.5c6.4,6.5,10.3,15.4,10.3,25.2c0,19.9-16.1,36-36,36
			c-10.2,0-19.3-4.2-25.9-11c-8.6,12.5-15.8,26-21.2,40.4h46.9C109.4,137.3,137.3,109.4,137.3,75.1z"/>
		<path class="st0" d="M209.2,323.4v65.4c8.9-0.3,17.6-1.2,26.1-2.8v-53.3c0-53.8,43.6-97.4,97.4-97.4h53.3
			c1.5-8.5,2.4-17.3,2.8-26.1h-65.4C260.3,209.2,209.2,260.3,209.2,323.4z"/>
		<path class="st1" d="M235.3,332.8v53.3c11.3-2,22.2-5,32.7-8.9v-46.9c0-34.3,27.8-62.2,62.2-62.2h46.9c3.9-10.5,6.9-21.4,8.9-32.7
			h-53.3C279,235.3,235.3,279,235.3,332.8z"/>
		<path class="st2" d="M268,330.2v46.9c12.9-4.8,25.1-11.1,36.5-18.5c-6.4-6.5-10.3-15.4-10.3-25.2c0-19.9,16.1-36,36-36
			c10.2,0,19.3,4.2,25.9,11c8.6-12.5,15.8-26,21.2-40.4h-46.9C295.9,268,268,295.9,268,330.2z"/>
		<path class="st0" d="M81.9,209.2H16.5c0.3,8.9,1.2,17.6,2.8,26.1h53.3c53.8,0,97.4,43.6,97.4,97.4v53.3c8.5,1.5,17.3,2.4,26.1,2.8
			v-65.4C196.1,260.3,145,209.2,81.9,209.2z"/>
		<path class="st1" d="M72.5,235.3H19.3c2,11.3,5,22.2,8.9,32.7h46.9c34.3,0,62.2,27.8,62.2,62.2v46.9c10.5,3.9,21.4,6.9,32.7,8.9
			v-53.3C170,279,126.4,235.3,72.5,235.3z"/>
		<path class="st2" d="M75.1,268H28.2c5.4,14.4,12.5,28,21.2,40.4c6.5-6.8,15.7-11,25.9-11c19.9,0,36,16.1,36,36
			c0,9.8-4,18.7-10.3,25.2c11.4,7.4,23.6,13.7,36.5,18.5v-46.9C137.3,295.9,109.4,268,75.1,268z"/>
		<path class="st3" d="M202.7,0C90.7,0,0,90.7,0,202.7c0,111.9,90.7,202.7,202.7,202.7s202.7-90.7,202.7-202.7
			C405.3,90.7,314.6,0,202.7,0z M235.3,19.3c11.3,2,22.2,5,32.7,8.9c12.9,4.8,25.1,11.1,36.5,18.5c-6.4,6.5-10.3,15.4-10.3,25.2
			c0,19.9,16.1,36,36,36c10.2,0,19.3-4.2,25.9-11c8.6,12.5,15.8,26,21.2,40.4c3.9,10.5,6.9,21.4,8.9,32.7c1.5,8.5,2.4,17.3,2.8,26.1
			h-65.4c-63.1,0-114.2-51.1-114.2-114.2V16.5C218.1,16.8,226.8,17.7,235.3,19.3z M19.3,170c2-11.3,5-22.2,8.9-32.7
			c5.4-14.4,12.5-28,21.2-40.4c6.5,6.8,15.7,11,25.9,11c19.9,0,36-16.1,36-36c0-9.8-4-18.7-10.3-25.2c11.4-7.4,23.6-13.7,36.5-18.5
			c10.5-3.9,21.4-6.9,32.7-8.9c8.5-1.5,17.3-2.4,26.1-2.8v65.4c0,63.1-51.1,114.2-114.2,114.2H16.5C16.8,187.2,17.7,178.5,19.3,170z
			 M170,386.1c-11.3-2-22.2-5-32.7-8.9c-12.9-4.8-25.1-11.1-36.5-18.5c6.4-6.5,10.3-15.4,10.3-25.2c0-19.9-16.1-36-36-36
			c-10.2,0-19.3,4.2-25.9,11c-8.6-12.5-15.8-26-21.2-40.4c-3.9-10.5-6.9-21.4-8.9-32.7c-1.5-8.5-2.4-17.3-2.8-26.1h65.4
			c63.1,0,114.2,51.1,114.2,114.2v65.4C187.2,388.5,178.5,387.6,170,386.1z M386.1,235.3c-2,11.3-5,22.2-8.9,32.7
			c-5.4,14.4-12.5,28-21.2,40.4c-6.5-6.8-15.7-11-25.9-11c-19.9,0-36,16.1-36,36c0,9.8,4,18.7,10.3,25.2
			c-11.4,7.4-23.6,13.7-36.5,18.5c-10.5,3.9-21.4,6.9-32.7,8.9c-8.5,1.5-17.3,2.4-26.1,2.8v-65.4c0-63.1,51.1-114.2,114.2-114.2
			h65.4C388.5,218.1,387.6,226.8,386.1,235.3z"/>
	</g>
	<g>
		<g>
			<rect x="653.9" y="135.7" class="st1" width="48.1" height="132.3"/>
			<path class="st1" d="M641.8,188.6v-9.7c0-23.9-19.4-43.2-43.2-43.2h-47h-6h-42.1v132.3h48.1v-36.1h11.2l25.9,36.1h53.1L613.9,229
				C630.2,222.8,641.8,207.1,641.8,188.6z M587.7,171.7c6.6,0,12,5.4,12,12c0,6.6-5.4,12-12,12h-36.1v-24H587.7z"/>
			<path class="st1" d="M714.6,196v11.5c0,33.3,27,60.4,60.4,60.4h47.2c33.3,0,60.4-27,60.4-60.4V196c0-33.3-27-60.4-60.4-60.4H775
				C741.7,135.7,714.6,162.7,714.6,196z M805.5,232h-13.9c-16,0-28.9-13-28.9-28.9v-2.4c0-16,13-28.9,28.9-28.9h13.9
				c16,0,28.9,13,28.9,28.9v2.4C834.5,219,821.5,232,805.5,232z"/>
			<rect x="907" y="187.3" class="st1" width="62.3" height="28.8"/>
			<path class="st1" d="M1122.2,169.1v-33.7h-92.7c-21.4,0-38.7,17.3-38.7,38.7v5.9c0,21.4,17.3,38.7,38.7,38.7h37.2
				c4.4,0,7.9,3.5,7.9,7.9v0c0,4.4-3.5,7.9-7.9,7.9h-75.9v33.7h92.7c21.4,0,38.7-17.3,38.7-38.7v-5.9c0-21.4-17.3-38.7-38.7-38.7
				h-37.2c-4.4,0-7.9-3.5-7.9-7.9v0c0-4.4,3.5-7.9,7.9-7.9H1122.2z"/>
			<path class="st1" d="M1211,135.6v83.2c0,8-6.5,14.4-14.4,14.4h-5c-8,0-14.4-6.5-14.4-14.4v-83.2h-45.8v84.8
				c0,26.2,21.3,47.5,47.5,47.5h30.6c26.2,0,47.5-21.3,47.5-47.5v-84.8H1211z"/>
			<polygon class="st1" points="1315.1,235.8 1315.1,135.3 1269.3,135.3 1269.3,267.8 1366,267.8 1366,235.8 			"/>
		</g>
	</g>
</g>
</svg>
