<?xml version="1.0" encoding="UTF-8" standalone="no"?>
<!-- Generator: Adobe Illustrator 28.0.0, SVG Export Plug-In . SVG Version: 6.00 Build 0)  -->

<svg
   version="1.1"
   id="Layer_1"
   x="0px"
   y="0px"
   viewBox="0 0 449.99999 188.36501"
   xml:space="preserve"
   sodipodi:docname="Riyadh_Air_Logo_(AR).svg"
   width="450"
   height="188.36501"
   inkscape:version="1.3.2 (091e20e, 2023-11-25, custom)"
   xmlns:inkscape="http://www.inkscape.org/namespaces/inkscape"
   xmlns:sodipodi="http://sodipodi.sourceforge.net/DTD/sodipodi-0.dtd"
   xmlns="http://www.w3.org/2000/svg"
   xmlns:svg="http://www.w3.org/2000/svg"><defs
   id="defs39">
	<defs
   id="defs1">
		<filter
   id="Adobe_OpacityMaskFilter"
   x="0"
   y="0"
   width="1"
   height="1">
			<feColorMatrix
   type="matrix"
   values="1 0 0 0 0  0 1 0 0 0  0 0 1 0 0  0 0 0 1 0"
   id="feColorMatrix1" />
		</filter>
	</defs>
	
		
	
	<defs
   id="defs6">
		
			<filter
   id="Adobe_OpacityMaskFilter_00000040571510539448900330000005836042095772663732_"
   x="0"
   y="0"
   width="1"
   height="1">
			<feColorMatrix
   type="matrix"
   values="1 0 0 0 0  0 1 0 0 0  0 0 1 0 0  0 0 0 1 0"
   id="feColorMatrix6" />
		</filter>
	</defs>
	
		
	
	<defs
   id="defs8">
		
			<filter
   id="Adobe_OpacityMaskFilter_00000122701400259709288390000017842987494506192304_"
   x="0"
   y="0"
   width="1"
   height="1">
			<feColorMatrix
   type="matrix"
   values="1 0 0 0 0  0 1 0 0 0  0 0 1 0 0  0 0 0 1 0"
   id="feColorMatrix8" />
		</filter>
	</defs>
	
		
	
	<defs
   id="defs10">
		
			<filter
   id="Adobe_OpacityMaskFilter_00000092420624283691725180000018021447071037906607_"
   x="0"
   y="0"
   width="1"
   height="1">
			<feColorMatrix
   type="matrix"
   values="1 0 0 0 0  0 1 0 0 0  0 0 1 0 0  0 0 0 1 0"
   id="feColorMatrix10" />
		</filter>
	</defs>
	
		
	
	<defs
   id="defs12">
		
			<filter
   id="Adobe_OpacityMaskFilter_00000097464171708964223180000013675657363041450387_"
   x="0"
   y="0"
   width="1"
   height="1">
			<feColorMatrix
   type="matrix"
   values="1 0 0 0 0  0 1 0 0 0  0 0 1 0 0  0 0 0 1 0"
   id="feColorMatrix12" />
		</filter>
	</defs>
	
		
	
	<defs
   id="defs20">
		
			<filter
   id="Adobe_OpacityMaskFilter_00000047023958267370595430000012691741159638914470_"
   x="0"
   y="0"
   width="1"
   height="1">
			<feColorMatrix
   type="matrix"
   values="1 0 0 0 0  0 1 0 0 0  0 0 1 0 0  0 0 0 1 0"
   id="feColorMatrix20" />
		</filter>
	</defs>
	
		
	
	<defs
   id="defs22">
		
			<filter
   id="Adobe_OpacityMaskFilter_00000169531163153809379830000009130607811465449892_"
   x="0"
   y="0"
   width="1"
   height="1">
			<feColorMatrix
   type="matrix"
   values="1 0 0 0 0  0 1 0 0 0  0 0 1 0 0  0 0 0 1 0"
   id="feColorMatrix22" />
		</filter>
	</defs>
	
		
	
	<defs
   id="defs24">
		
			<filter
   id="Adobe_OpacityMaskFilter_00000177471081690360777160000018269960827476621458_"
   x="0"
   y="0"
   width="1"
   height="1">
			<feColorMatrix
   type="matrix"
   values="1 0 0 0 0  0 1 0 0 0  0 0 1 0 0  0 0 0 1 0"
   id="feColorMatrix24" />
		</filter>
	</defs>
	
		
	
	<defs
   id="defs26">
		
			<filter
   id="Adobe_OpacityMaskFilter_00000131350957984006207580000001431686200516689560_"
   x="0"
   y="0"
   width="1"
   height="1">
			<feColorMatrix
   type="matrix"
   values="1 0 0 0 0  0 1 0 0 0  0 0 1 0 0  0 0 0 1 0"
   id="feColorMatrix26" />
		</filter>
	</defs>
	
		
	
	<defs
   id="defs28">
		
			<filter
   id="Adobe_OpacityMaskFilter_00000114762416126454767560000003743291802497772217_"
   x="0"
   y="0"
   width="1"
   height="1">
			<feColorMatrix
   type="matrix"
   values="1 0 0 0 0  0 1 0 0 0  0 0 1 0 0  0 0 0 1 0"
   id="feColorMatrix28" />
		</filter>
	</defs>
	
		
	
	<defs
   id="defs30">
		
			<filter
   id="Adobe_OpacityMaskFilter_00000007400738922180791500000003220519904207307197_"
   x="0"
   y="0"
   width="1"
   height="1">
			<feColorMatrix
   type="matrix"
   values="1 0 0 0 0  0 1 0 0 0  0 0 1 0 0  0 0 0 1 0"
   id="feColorMatrix30" />
		</filter>
	</defs>
	
		
	
	<defs
   id="defs32">
		
			<filter
   id="Adobe_OpacityMaskFilter_00000179611733675787136310000002399725064501761212_"
   x="0"
   y="0"
   width="1"
   height="1">
			<feColorMatrix
   type="matrix"
   values="1 0 0 0 0  0 1 0 0 0  0 0 1 0 0  0 0 0 1 0"
   id="feColorMatrix32" />
		</filter>
	</defs>
	
		
	
	<defs
   id="defs34">
		
			<filter
   id="Adobe_OpacityMaskFilter_00000023258597871594927650000003315358655932139452_"
   x="0"
   y="0"
   width="1"
   height="1">
			<feColorMatrix
   type="matrix"
   values="1 0 0 0 0  0 1 0 0 0  0 0 1 0 0  0 0 0 1 0"
   id="feColorMatrix34" />
		</filter>
	</defs>
	
		
	
	<defs
   id="defs36">
		
			<filter
   id="Adobe_OpacityMaskFilter_00000118359657114557739210000015059866439788372657_"
   x="0"
   y="0"
   width="1"
   height="1">
			<feColorMatrix
   type="matrix"
   values="1 0 0 0 0  0 1 0 0 0  0 0 1 0 0  0 0 0 1 0"
   id="feColorMatrix36" />
		</filter>
	</defs>
	
		
	

		
	
		
	<mask
   maskUnits="userSpaceOnUse"
   id="mask41"><g
     id="g42"><path
       style="fill:#ffffff;filter:url(#Adobe_OpacityMaskFilter_00000023258597871594927650000003315358655932139452_)"
       d="M 806.5,37 H 107 v 242 h 699.5 z"
       id="path41" /></g></mask>
		
	<mask
   maskUnits="userSpaceOnUse"
   id="mask43"><g
     id="g44"><path
       style="fill:#ffffff;filter:url(#Adobe_OpacityMaskFilter_00000040571510539448900330000005836042095772663732_)"
       d="M 806.5,37 H 107 v 242 h 699.5 z"
       id="path43" /></g></mask>
		
	<mask
   maskUnits="userSpaceOnUse"
   id="mask45"><g
     id="g46"><path
       style="fill:#ffffff;filter:url(#Adobe_OpacityMaskFilter_00000092420624283691725180000018021447071037906607_)"
       d="M 806.5,37 H 107 v 242 h 699.5 z"
       id="path45" /></g></mask>
		
	<mask
   maskUnits="userSpaceOnUse"
   id="mask47"><g
     id="g48"><path
       style="fill:#ffffff;filter:url(#Adobe_OpacityMaskFilter_00000047023958267370595430000012691741159638914470_)"
       d="M 806.5,37 H 107 v 242 h 699.5 z"
       id="path47" /></g></mask>
		
		
		
		
		
		
		
	<mask
   maskUnits="userSpaceOnUse"
   id="mask49"><g
     id="g50"><path
       style="fill:#ffffff;filter:url(#Adobe_OpacityMaskFilter_00000097464171708964223180000013675657363041450387_)"
       d="M 806.5,37 H 107 v 242 h 699.5 z"
       id="path49" /></g></mask><mask
   maskUnits="userSpaceOnUse"
   id="mask50"><g
     id="g51"><path
       style="fill:#ffffff;filter:url(#Adobe_OpacityMaskFilter_00000097464171708964223180000013675657363041450387_)"
       d="M 806.5,37 H 107 v 242 h 699.5 z"
       id="path50" /></g></mask><mask
   maskUnits="userSpaceOnUse"
   id="mask51"><g
     id="g52"><path
       style="fill:#ffffff;filter:url(#Adobe_OpacityMaskFilter_00000097464171708964223180000013675657363041450387_)"
       d="M 806.5,37 H 107 v 242 h 699.5 z"
       id="path51" /></g></mask><mask
   maskUnits="userSpaceOnUse"
   id="mask52"><g
     id="g53"><path
       style="fill:#ffffff;filter:url(#Adobe_OpacityMaskFilter_00000097464171708964223180000013675657363041450387_)"
       d="M 806.5,37 H 107 v 242 h 699.5 z"
       id="path52" /></g></mask><mask
   maskUnits="userSpaceOnUse"
   id="mask53"><g
     id="g54"><path
       style="fill:#ffffff;filter:url(#Adobe_OpacityMaskFilter_00000097464171708964223180000013675657363041450387_)"
       d="M 806.5,37 H 107 v 242 h 699.5 z"
       id="path53" /></g></mask><mask
   maskUnits="userSpaceOnUse"
   id="mask54"><g
     id="g55"><path
       style="fill:#ffffff;filter:url(#Adobe_OpacityMaskFilter_00000097464171708964223180000013675657363041450387_)"
       d="M 806.5,37 H 107 v 242 h 699.5 z"
       id="path54" /></g></mask><mask
   maskUnits="userSpaceOnUse"
   id="mask55"><g
     id="g56"><path
       style="fill:#ffffff;filter:url(#Adobe_OpacityMaskFilter_00000097464171708964223180000013675657363041450387_)"
       d="M 806.5,37 H 107 v 242 h 699.5 z"
       id="path55" /></g></mask>
		
	<mask
   maskUnits="userSpaceOnUse"
   id="mask57"><g
     id="g58"><path
       style="fill:#ffffff;filter:url(#Adobe_OpacityMaskFilter_00000169531163153809379830000009130607811465449892_)"
       d="M 806.5,37 H 107 v 242 h 699.5 z"
       id="path57" /></g></mask>
		
	<mask
   maskUnits="userSpaceOnUse"
   id="mask59"><g
     id="g60"><path
       style="fill:#ffffff;filter:url(#Adobe_OpacityMaskFilter_00000177471081690360777160000018269960827476621458_)"
       d="M 806.5,37 H 107 v 242 h 699.5 z"
       id="path59" /></g></mask>
		
	<mask
   maskUnits="userSpaceOnUse"
   id="mask61"><g
     id="g62"><path
       style="fill:#ffffff;filter:url(#Adobe_OpacityMaskFilter_00000131350957984006207580000001431686200516689560_)"
       d="M 806.5,37 H 107 v 242 h 699.5 z"
       id="path61" /></g></mask>
		
	<mask
   maskUnits="userSpaceOnUse"
   id="mask63"><g
     id="g64"><path
       style="fill:#ffffff;filter:url(#Adobe_OpacityMaskFilter_00000114762416126454767560000003743291802497772217_)"
       d="M 806.5,37 H 107 v 242 h 699.5 z"
       id="path63" /></g></mask>
		
	<mask
   maskUnits="userSpaceOnUse"
   id="mask65"><g
     id="g66"><path
       style="fill:#ffffff;filter:url(#Adobe_OpacityMaskFilter_00000007400738922180791500000003220519904207307197_)"
       d="M 806.5,37 H 107 v 242 h 699.5 z"
       id="path65" /></g></mask>
		
		
		
		
		
	<mask
   maskUnits="userSpaceOnUse"
   id="mask67"><g
     id="g68"><path
       class="st0"
       d="M 806.5,37 H 107 v 242 h 699.5 z"
       id="path67" /></g></mask><mask
   maskUnits="userSpaceOnUse"
   id="mask68"><g
     id="g69"><path
       class="st0"
       d="M 806.5,37 H 107 v 242 h 699.5 z"
       id="path68" /></g></mask><mask
   maskUnits="userSpaceOnUse"
   id="mask69"><g
     id="g70"><path
       class="st0"
       d="M 806.5,37 H 107 v 242 h 699.5 z"
       id="path69" /></g></mask><mask
   maskUnits="userSpaceOnUse"
   id="mask70"><g
     id="g71"><path
       class="st0"
       d="M 806.5,37 H 107 v 242 h 699.5 z"
       id="path70" /></g></mask><mask
   maskUnits="userSpaceOnUse"
   id="mask71"><g
     id="g72"><path
       class="st0"
       d="M 806.5,37 H 107 v 242 h 699.5 z"
       id="path71" /></g></mask>
		
	<mask
   maskUnits="userSpaceOnUse"
   id="mask73"><g
     id="g74"><path
       style="fill:#ffffff;filter:url(#Adobe_OpacityMaskFilter_00000179611733675787136310000002399725064501761212_)"
       d="M 806.5,37 H 107 v 242 h 699.5 z"
       id="path73" /></g></mask>
		
	<mask
   maskUnits="userSpaceOnUse"
   id="mask75"><g
     id="g76"><path
       style="fill:#ffffff;filter:url(#Adobe_OpacityMaskFilter_00000122701400259709288390000017842987494506192304_)"
       d="M 806.5,37 H 107 v 242 h 699.5 z"
       id="path75" /></g></mask></defs><sodipodi:namedview
   id="namedview39"
   pagecolor="#ffffff"
   bordercolor="#999999"
   borderopacity="1"
   inkscape:showpageshadow="2"
   inkscape:pageopacity="0"
   inkscape:pagecheckerboard="true"
   inkscape:deskcolor="#d1d1d1"
   inkscape:zoom="1.4290772"
   inkscape:cx="172.83881"
   inkscape:cy="110.56086"
   inkscape:window-width="1500"
   inkscape:window-height="912"
   inkscape:window-x="-8"
   inkscape:window-y="-8"
   inkscape:window-maximized="1"
   inkscape:current-layer="Layer_1" />
<style
   type="text/css"
   id="style1">
	.st0{fill:#FFFFFF;filter:url(#Adobe_OpacityMaskFilter);}
	.st1{mask:url(#mask0_12_2475_00000113322225051200673770000000430859703936045187_);}
	.st2{fill:#4C3874;}
	.st3{fill:#FFFFFF;filter:url(#Adobe_OpacityMaskFilter_00000117646361534147009270000017085570332458547891_);}
	.st4{mask:url(#mask1_12_2475_00000002386893024552454090000000004309508766706623_);}
	.st5{fill:#FFFFFF;filter:url(#Adobe_OpacityMaskFilter_00000103951910922733370930000018240847686062962072_);}
	.st6{mask:url(#mask2_12_2475_00000143587411480206096510000002857756626479277989_);}
	.st7{fill:#FFFFFF;filter:url(#Adobe_OpacityMaskFilter_00000122695694589536795760000002416448102777994921_);}
	.st8{mask:url(#mask3_12_2475_00000026882617032269112070000017220790371745824917_);}
	.st9{fill:#FFFFFF;filter:url(#Adobe_OpacityMaskFilter_00000175319613119233904150000009681610895796472498_);}
	.st10{mask:url(#mask4_12_2475_00000167380317245136203620000009484399870108163239_);}
	.st11{fill:#FFFFFF;filter:url(#Adobe_OpacityMaskFilter_00000106869479355676449830000009564888113924158131_);}
	.st12{mask:url(#mask5_12_2475_00000163032008479540387920000005711103358256841398_);}
	.st13{fill:#FFFFFF;filter:url(#Adobe_OpacityMaskFilter_00000082348288396202835100000002257054513201438336_);}
	.st14{mask:url(#mask6_12_2475_00000073710817458058853230000000065140602996699279_);}
	.st15{fill:#FFFFFF;filter:url(#Adobe_OpacityMaskFilter_00000016767150582709220680000001683520110572543616_);}
	.st16{mask:url(#mask7_12_2475_00000096053451296902592680000013088240207763339414_);}
	.st17{fill:#FFFFFF;filter:url(#Adobe_OpacityMaskFilter_00000075859325177901137040000016047643561870288311_);}
	.st18{mask:url(#mask8_12_2475_00000034801193869788333920000001969213872876709043_);}
	.st19{fill:#FFFFFF;filter:url(#Adobe_OpacityMaskFilter_00000096027302707563226970000003185176237636926393_);}
	.st20{mask:url(#mask9_12_2475_00000152966460060193679280000005555730345678559410_);}
	.st21{fill:#FFFFFF;filter:url(#Adobe_OpacityMaskFilter_00000036229098807047041720000015947671915385522362_);}
	.st22{mask:url(#mask10_12_2475_00000177473801205222968730000008625258709877506441_);}
	.st23{fill:#FFFFFF;filter:url(#Adobe_OpacityMaskFilter_00000160161937826967292600000010957580516623517601_);}
	.st24{mask:url(#mask11_12_2475_00000157992430783248446470000016598362917864962722_);}
	.st25{fill:#FFFFFF;filter:url(#Adobe_OpacityMaskFilter_00000123419126061765752450000012877731545455734206_);}
	.st26{mask:url(#mask12_12_2475_00000100362326654670487730000002819048388033303425_);}
	.st27{fill:#FFFFFF;filter:url(#Adobe_OpacityMaskFilter_00000144313256434031802990000013344428357836174771_);}
	.st28{mask:url(#mask13_12_2475_00000129910851143966436950000009525201606504446142_);}
</style>

		
	
		
	
		
	
		
	
		
	
		
	
		
	
		
	
		
	
		
	
		
	
		
	
		
	
		
	
<g
   id="g77"
   inkscape:label="LOGO + TEXT"
   transform="translate(24.999999,24.999926)"><path
     id="path38"
     mask="none"
     class="st2"
     d="m 186.56589,98.221293 h -8.40728 l 4.23224,-9.60831 z m -3.88908,-14.01213 -11.61005,26.594447 h 1.65858 l 4.80416,-11.038127 h 9.7227 l 4.80416,11.038127 h 4.06065 L 184.50697,84.209163 Z m 135.3171,23.334477 -3.25996,-5.54765 c -0.68631,-1.20104 -1.65858,-2.058927 -3.20277,-2.688037 4.17504,-0.91508 6.92027,-3.7747 6.92027,-7.4922 0,-4.40381 -4.17504,-7.66378 -9.7227,-7.66378 h -10.4662 v 26.594447 h 3.83189 V 85.410203 h 6.0052 c 3.83188,0 6.34835,2.51647 6.34835,6.40555 0,3.66031 -2.17331,6.17677 -5.94801,6.63431 -1.487,0.17158 -2.974,0.17158 -4.00346,0.17158 h -0.45754 -0.28596 v 0.34315 h 0.68631 c 1.77296,0 2.85961,0 3.66031,0.28596 0.85788,0.28596 1.60138,1.201037 2.28769,2.402077 0.45754,0.7435 3.7175,6.63431 3.7747,6.69151 0.51473,0.91507 1.20103,1.65857 2.00173,2.2305 l 0.0572,0.0572 h 4.74697 l -0.68631,-0.51473 c -0.8007,-0.40035 -1.71577,-1.487 -2.2877,-2.57366 m -40.60657,-9.322347 h -8.40727 l 4.23223,-9.60831 z m -3.88908,-14.01213 -11.66724,26.594447 h 1.65858 l 4.80416,-11.038127 h 9.7227 l 4.80416,11.038127 h 4.06065 L 275.27124,84.209173 Z M 140.75483,107.54365 137.49486,101.996 c -0.68631,-1.20104 -1.65858,-2.058927 -3.20277,-2.688037 4.17504,-0.91508 6.92028,-3.7747 6.92028,-7.4922 0,-4.40381 -4.17505,-7.66378 -9.7227,-7.66378 h -10.4662 v 26.594447 h 3.83188 V 85.410213 h 6.0052 c 3.83189,0 6.34835,2.51647 6.34835,6.40555 0,3.66031 -2.17331,6.17677 -5.948,6.63431 -1.48701,0.17158 -2.97401,0.17158 -4.00347,0.17158 h -0.45754 -0.28596 v 0.34315 h 0.68631 c 1.77296,0 2.85962,0 3.66031,0.28596 0.85788,0.28596 1.60139,1.201037 2.28769,2.402077 0.45754,0.7435 3.71751,6.63431 3.7747,6.69151 0.51473,0.91507 1.20104,1.65857 2.00173,2.2305 l 0.0572,0.0572 h 4.74697 l -0.68631,-0.51473 c -0.7435,-0.40035 -1.65858,-1.487 -2.28769,-2.57366 M 289.22616,84.151973 h 3.83189 v 26.594447 h -3.83189 z m -44.43846,12.35355 h -14.75562 v -12.35355 h -3.83189 v 26.594447 h 3.83189 V 98.049713 h 14.75562 v 12.696707 h 3.83189 V 84.151973 h -3.83189 z m -42.49391,-11.03812 h 5.60485 c 3.14558,0 5.83362,1.14384 7.72096,3.25996 1.88735,2.17331 2.91681,5.14731 2.91681,8.75043 0,3.545927 -1.02946,6.577117 -2.91681,8.750427 -1.88734,2.11612 -4.57538,3.25996 -7.72096,3.25996 h -5.60485 z m 6.06239,-1.31543 h -9.95147 v 26.594447 h 9.95147 c 8.06412,0 14.1837,-5.71924 14.1837,-13.325817 -0.0572,-7.54939 -6.11958,-13.26863 -14.1837,-13.26863 z m -34.88734,0 -8.92201,13.61178 -8.97919,-13.61178 h -4.34662 l 10.06585,15.27036 v 11.381277 h 3.83189 V 99.422333 l 10.06585,-15.27036 z m -28.31021,0 h 3.83188 v 26.594447 h -3.83188 z m 13.61178,-48.155958 c 3.08838,-3.088387 5.37608,-3.717503 8.06412,-3.717503 1.25823,0 2.40208,0.22877 3.43154,0.571924 1.02946,0.400346 1.94454,1.029462 2.68804,1.887348 0.7435,0.857885 1.37262,1.944539 1.77296,3.202771 0.40035,1.315424 0.62912,2.859618 0.62912,4.632581 v 7.949737 h -22.4194 c 0.17157,-0.915078 0.57192,-2.802426 0.7435,-3.431542 0.0572,-0.171577 0.11438,-0.400346 0.17157,-0.686308 0.28597,-1.029462 0.68631,-2.630848 1.20104,-4.003464 0.97227,-2.745233 2.2877,-4.918543 3.71751,-6.405544 z m 21.50432,0 c -0.57192,-1.772963 -1.37262,-3.374348 -2.40208,-4.63258 -1.02946,-1.315424 -2.28769,-2.287694 -3.77469,-3.031195 -1.487,-0.7435 -3.20277,-1.086654 -5.09012,-1.086654 -1.487,0 -3.0312,0.285961 -4.57539,0.857885 -1.54419,0.571923 -3.03119,1.429809 -4.34662,2.573656 -1.37262,1.143847 -2.63085,2.630848 -3.77469,4.403811 -1.14385,1.772963 -2.05893,3.88908 -2.80243,6.348351 l -0.34315,1.201039 V 30.048011 29.590472 h -5.43328 v 17.729629 c 0,1.772963 -0.17157,3.374349 -0.57192,4.86135 -0.40035,1.487001 -1.02946,2.802425 -1.88735,3.88908 -0.85788,1.086654 -2.00173,1.94454 -3.37435,2.573655 -1.37261,0.629116 -3.08838,0.915078 -5.09012,0.915078 -1.60138,0 -3.14558,-0.228769 -4.57538,-0.686308 -1.02947,-0.343154 -4.28943,-1.372617 -6.40555,-6.176774 -1.83015,-4.117849 -1.42981,-7.720968 -1.31542,-9.265161 0,-0.114385 0,-0.228769 0.0572,-0.343154 0.11439,-1.086655 0.68631,-4.289427 1.54419,-6.863082 l 0.11439,-0.400347 -0.97227,-0.400346 -0.22877,0.343154 c -0.11438,0.171577 -2.85962,4.461003 -3.7747,7.835352 -2.2305,8.75043 0.62912,13.783357 2.57366,16.013858 4.63258,5.318887 10.35182,5.318887 12.81109,5.318887 1.83015,0 3.66031,-0.28596 5.31889,-0.80069 1.65857,-0.57192 3.25996,-1.315425 4.63258,-2.344887 1.37261,-1.029463 2.57365,-2.287694 3.60311,-3.717503 0.97227,-1.372617 1.71577,-3.145579 2.23051,-5.032927 h 28.71056 V 42.001212 c 0,-2.230502 -0.28597,-4.175041 -0.85789,-6.005197 z m 197.48519,0 c 3.08839,-3.088387 5.37608,-3.717503 8.06412,-3.717503 1.25823,0 2.40208,0.22877 3.43154,0.571924 1.02947,0.400346 1.94454,1.029462 2.68804,1.887348 0.7435,0.857885 1.37262,1.944539 1.77297,3.202771 0.40034,1.315424 0.62911,2.859618 0.62911,4.632581 v 7.949737 h -22.53378 c 0.22877,-0.915078 0.62911,-2.802426 0.80069,-3.431542 0.0572,-0.171577 0.11438,-0.400346 0.17158,-0.686308 0.28596,-1.029462 0.62911,-2.630848 1.14384,-4.003464 1.08666,-2.745233 2.40208,-4.918543 3.83189,-6.405544 m 21.50432,0 c -0.57192,-1.772963 -1.37261,-3.374348 -2.40207,-4.63258 -1.02947,-1.315424 -2.2877,-2.287694 -3.7747,-3.031195 -1.487,-0.7435 -3.20277,-1.086654 -5.09012,-1.086654 -1.487,0 -3.03119,0.285961 -4.57539,0.857885 -1.54419,0.571923 -3.03119,1.429809 -4.34662,2.573656 -1.37261,1.143847 -2.63084,2.630848 -3.77469,4.403811 -1.14385,1.772963 -2.05893,3.88908 -2.80243,6.348351 l -0.34315,1.201039 V 11.231727 h -5.49047 v 39.348338 h -8.46446 -0.28597 -0.17157 c -1.5442,-0.171577 -2.51647,-1.086655 -3.08839,-2.745233 -0.22877,-0.800693 -0.40035,-1.715771 -0.40035,-2.745233 V 43.716983 42.058405 29.590472 h -5.60485 v 17.386475 0.114384 c -0.11438,2.402079 -0.11438,3.374349 -2.80242,3.431542 h -7.54939 c -3.54593,0 -3.94627,-4.175042 -4.00347,-5.948005 V 42.058405 29.590472 h -5.66204 v 22.305017 c 0,4.403811 -0.62912,7.034659 -2.11612,8.52166 -1.02946,1.086655 -2.63084,1.429809 -5.43327,1.20104 l -0.51473,-0.05719 v 1.029463 l 0.28596,0.114384 c 1.42981,0.571917 3.0312,0.857887 4.5182,0.857887 1.71577,0 4.86135,-0.40035 6.51992,-3.202773 1.65858,-2.745233 2.17331,-6.462736 2.2877,-10.008662 0.97227,1.601386 2.51646,2.516464 4.34662,2.516464 h 6.23396 v 0 h 2.17331 c 3.14558,0 5.54766,-1.258232 6.57712,-3.431541 0.85789,2.173309 2.63085,3.488733 4.80416,3.431541 h 41.63603 V 41.829635 c 0.17158,-2.058925 -0.11438,-4.003464 -0.68631,-5.83362 M 292.25735,23.756852 c 0.97227,0 1.83016,-0.343154 2.45928,-1.029462 0.6863,-0.686308 1.02946,-1.544194 1.02946,-2.516464 0,-0.97227 -0.34316,-1.830155 -1.02946,-2.516463 -0.68631,-0.686308 -1.48701,-1.029462 -2.45928,-1.029462 -0.97226,0 -1.88734,0.343154 -2.51646,1.029462 -0.68631,0.686308 -1.02946,1.544193 -1.02946,2.516463 0,0.97227 0.34315,1.830156 1.02946,2.516464 0.68631,0.686308 1.5442,1.029462 2.51646,1.029462 z m 8.63605,23.563249 c 0,1.772963 -0.17158,3.374349 -0.57192,4.86135 -0.40035,1.487001 -1.02947,2.802425 -1.88735,3.88908 -0.85789,1.086654 -2.00173,1.94454 -3.37435,2.573655 -1.37262,0.629116 -3.08839,0.915078 -5.09012,0.915078 -1.60138,0 -3.14558,-0.228769 -4.57539,-0.686308 -1.02946,-0.343154 -4.28942,-1.372617 -6.40554,-6.176774 -1.83016,-4.117849 -1.42981,-7.720968 -1.31542,-9.265161 0,-0.114385 0,-0.228769 0.0572,-0.343154 0.11438,-1.086655 0.68631,-4.289427 1.54419,-6.863082 l 0.11439,-0.400347 -0.97227,-0.400346 -0.22877,0.343154 c -0.11439,0.171577 -2.85962,4.461003 -3.7747,7.835352 -2.2305,8.75043 0.62912,13.783357 2.57366,16.013858 4.63258,5.318887 10.35181,5.318887 12.81108,5.318887 1.83016,0 3.66031,-0.28596 5.31889,-0.80069 1.65858,-0.57192 3.25997,-1.315425 4.63258,-2.344887 1.37262,-1.029463 2.57366,-2.287694 3.60312,-3.717503 1.31543,-1.94454 2.91681,-5.376081 2.91681,-10.752162 V 29.590472 h -5.37608 z m -58.50778,3.202772 H 232.091 c -1.20104,0 -3.88908,-0.571924 -4.00346,-5.948005 V 42.058405 29.590472 h -5.66205 v 22.305017 c 0,4.403811 -0.62911,7.034659 -2.11611,8.52166 -1.02947,1.086655 -2.63085,1.429809 -5.43328,1.20104 l -0.51473,-0.05719 v 1.029463 l 0.28596,0.114384 c 1.42981,0.571917 3.0312,0.857887 4.5182,0.857887 1.71577,0 4.86135,-0.40035 6.51993,-3.202773 1.65858,-2.745233 2.17331,-6.462736 2.28769,-10.008662 0.97227,1.601386 2.51647,2.516464 4.34662,2.516464 h 15.67071 v -41.75042 h -5.66205 z m 103.63255,6.119581 c -0.97227,0 -1.83016,0.343154 -2.51647,1.029462 -0.68631,0.686309 -1.02946,1.487002 -1.02946,2.516464 0,0.97227 0.34315,1.887347 1.02946,2.573656 0.68631,0.686307 1.5442,1.029467 2.51647,1.029467 0.97227,0 1.83015,-0.34316 2.51646,-1.029467 0.68631,-0.686309 1.02946,-1.544194 1.02946,-2.573656 0,-1.029462 -0.34315,-1.830155 -1.02946,-2.516464 -0.68631,-0.686308 -1.54419,-1.029462 -2.51646,-1.029462 m 8.69323,0 c -0.97227,0 -1.83015,0.343154 -2.51646,1.029462 -0.68631,0.686309 -1.08666,1.544194 -1.08666,2.516464 0,0.97227 0.34316,1.887347 1.08666,2.573656 0.68631,0.686307 1.54419,1.029467 2.51646,1.029467 0.97227,0 1.83016,-0.34316 2.51647,-1.029467 0.6863,-0.686309 1.02946,-1.544194 1.02946,-2.573656 0,-1.029462 -0.34316,-1.830155 -1.02946,-2.516464 -0.7435,-0.686308 -1.5442,-1.029462 -2.51647,-1.029462 z M 312.96099,11.231727 h 5.60485 v 41.750417 h -5.60485 z m -58.3362,0 h 5.60485 v 41.750417 h -5.60485 z m -42.20796,18.358745 h -5.66204 V 50.522873 H 193.37178 V 11.231727 h -5.60485 v 41.750417 h 24.6499 z m -2.91681,27.051982 c -0.97227,0 -1.83015,0.343154 -2.51646,1.029462 -0.68631,0.686309 -1.08666,1.487002 -1.08666,2.516464 0,0.97227 0.34316,1.887347 1.08666,2.573656 0.68631,0.686307 1.54419,1.029467 2.51646,1.029467 0.97227,0 1.83016,-0.34316 2.51647,-1.029467 0.6863,-0.686309 1.02946,-1.544194 1.02946,-2.573656 0,-1.029462 -0.34316,-1.830155 -1.02946,-2.516464 -0.68631,-0.686308 -1.5442,-1.029462 -2.51647,-1.029462 m -8.69323,0 c -0.97227,0 -1.83016,0.343154 -2.51647,1.029462 -0.68631,0.686309 -1.02946,1.487002 -1.02946,2.516464 0,0.97227 0.34315,1.887347 1.02946,2.573656 0.68631,0.686307 1.5442,1.029467 2.51647,1.029467 0.97227,0 1.83015,-0.34316 2.51646,-1.029467 0.68631,-0.686309 1.02946,-1.544194 1.02946,-2.573656 0,-1.029462 -0.34315,-1.830155 -1.02946,-2.516464 -0.68631,-0.686308 -1.54419,-1.029462 -2.51646,-1.029462 M 168.77907,23.756852 c 0.97227,0 1.83015,-0.343154 2.45927,-1.029462 0.68631,-0.686308 1.02946,-1.544194 1.02946,-2.516464 0,-0.97227 -0.34315,-1.830155 -1.02946,-2.516463 -0.68631,-0.686308 -1.487,-1.029462 -2.45927,-1.029462 -0.97227,0 -1.88735,0.343154 -2.51646,1.029462 -0.68631,0.686308 -1.02947,1.544193 -1.02947,2.516463 0,0.97227 0.34316,1.830156 1.02947,2.516464 0.62911,0.686308 1.487,1.029462 2.51646,1.029462 z"
     style="display:inline;fill:#240852;fill-opacity:1;stroke-width:0.571923"
     sodipodi:nodetypes="ccccccccccccccccssccccsscscccsccccccccccccccccccccccccssccccsscscccscccccccccccccccccccccccccccscscsccsccscsccccccccccccccccscscsccccccscssscscccccssssscccccccsccscscccssscscscsccccccccssscscccccccccscccccccsccccsccccssccsccscccccscssscsssssssscccccccsccscscsccscsccccsccccssccscccccssssssscssscssscsccccccccccccccccccccsscssssccssssssscscssscscs"
     inkscape:label="TEXT" /><path
     id="path77"
     mask="none"
     class="st2"
     d="m 60.227986,90.729093 c -8.12132,-8.35008 -15.32755,-11.78162 -21.33275,-13.32582 h 0.17158 c 11.78162,-1.71577 21.50432,-12.81108 21.50432,-24.878668 0,-13.154241 -11.03812,-24.935865 -24.19236,-24.935865 v 0 H 6.7531356 c 0.7435,-1.487002 4.1178504,-5.376081 6.8058904,-7.549391 5.26169,-4.175041 11.43847,-6.863082 17.9012,-8.292891 12.23917,-2.8024245 25.39341,-0.857885 35.74522,6.405544 8.12132,5.60485 14.12651,14.526857 15.67071,24.363941 0.80069,4.746965 0.62911,10.866547 0.80069,15.727897 0.0572,5.147313 0.11438,10.866543 0.11438,15.956663 0,7.09185 0.40035,14.12651 0.17158,21.21837 -0.11438,2.28769 -0.22877,4.57538 -0.68631,6.805887 l 0.34316,0.17157 c 0.68631,-2.2305 1.02946,-4.518187 1.31542,-6.805887 0.7435,-7.09185 0.85789,-14.24089 1.02946,-21.38994 0,-6.86308 0.62912,-28.882134 0.34316,-32.084906 C 85.392616,26.788047 76.813766,12.089612 62.973216,4.8261845 55.995746,1.0514895 47.874436,-0.49270453 39.981886,0.13641147 23.796456,1.5090275 12.357986,13.405037 6.0096356,27.531547 l -0.22877,0.457539 H 20.250526 c 13.21144,0.743501 30.54072,4.632581 30.54072,24.478326 0,19.845751 -17.55805,23.963591 -30.71229,24.707101 h -8.86482 v 0.45753 h 8.9792 c 2.68804,0.11439 14.64124,1.5442 29.33968,17.72963 11.32408,12.525127 26.93759,18.816287 43.23741,12.525127 -16.4142,4.57539 -20.81801,-5.09012 -32.54244,-17.157707 z m -7.94974,36.603107 c -3.0312,0.40034 -6.06239,0.51473 -9.09359,0.45754 -13.89774,-0.11439 -27.85267,-7.37782 -35.0017104,-19.5026 -2.97401,-4.97573 -4.63258,-10.637767 -5.03293,-16.414197 -0.11439,-2.57366 -0.22877,-5.2045 -0.28596,-7.77816 -0.17158,-6.06239 -0.0572,-14.58405 -0.17158,-20.76082 0,-6.005201 -0.34315,-14.812823 -0.28596,-20.703635 0.11438,-2.344886 0.22877,-4.746965 0.68631,-7.034659 h -0.28597 c -0.6863,2.287694 -1.20103,4.575388 -1.487,6.920274 -0.91506997,5.948005 -0.74349997,14.755627 -0.85787997,20.81802 0,6.11958 -0.51473,27.68109 -0.45754,31.28421 0.34315,12.925467 6.23396997,25.850947 16.29982037,34.143837 10.35182,8.63604 25.27902,12.06758 38.20449,7.72096 9.66551,-3.48873 17.27209,-11.09531 22.19063,-19.84574 l -0.34315,-0.17158 c -6.11958,6.7487 -15.38474,9.83709 -24.07798,10.86655"
     style="display:inline;fill:#240852;fill-opacity:1;stroke-width:0.571923"
     inkscape:label="LOGO"
     sodipodi:nodetypes="cccsscccccccscccccccccccscccccccccccccccccccccccc" /></g></svg>
