<?xml version="1.0" encoding="UTF-8" standalone="no"?>
<svg
   width="450"
   height="188.36501"
   viewBox="0 0 450 188.36502"
   version="1.1"
   id="svg1"
   sodipodi:docname="Riyadh_Air_Logo.svg"
   inkscape:version="1.3.2 (091e20e, 2023-11-25, custom)"
   inkscape:export-filename="Riyadh_Air_Logo.svg"
   inkscape:export-xdpi="96"
   inkscape:export-ydpi="96"
   xmlns:inkscape="http://www.inkscape.org/namespaces/inkscape"
   xmlns:sodipodi="http://sodipodi.sourceforge.net/DTD/sodipodi-0.dtd"
   xmlns="http://www.w3.org/2000/svg"
   xmlns:svg="http://www.w3.org/2000/svg">
  <defs
     id="defs1" />
  <sodipodi:namedview
     id="namedview1"
     pagecolor="#ffffff"
     bordercolor="#999999"
     borderopacity="1"
     inkscape:showpageshadow="2"
     inkscape:pageopacity="0"
     inkscape:pagecheckerboard="true"
     inkscape:deskcolor="#d1d1d1"
     inkscape:zoom="1.4142136"
     inkscape:cx="216.37467"
     inkscape:cy="115.2584"
     inkscape:window-width="1500"
     inkscape:window-height="912"
     inkscape:window-x="-8"
     inkscape:window-y="-8"
     inkscape:window-maximized="1"
     inkscape:current-layer="svg1" />
  <g
     id="g4"
     transform="translate(25,24.999926)">
    <path
       id="path77"
       mask="none"
       class="st2"
       d="M 60.227986,90.72909 C 52.106666,82.37901 44.900436,78.94747 38.895236,77.40327 h 0.17158 c 11.78162,-1.715767 21.50432,-12.811077 21.50432,-24.878665 0,-13.154241 -11.03812,-24.935865 -24.19236,-24.935865 v 0 H 6.7531356 c 0.7435,-1.487002 4.1178504,-5.376081 6.8058904,-7.549391 5.26169,-4.175041 11.43847,-6.863082 17.9012,-8.292891 12.23917,-2.8024235 25.39341,-0.857885 35.74522,6.405544 8.12132,5.60485 14.12651,14.526857 15.67071,24.363941 0.80069,4.746965 0.62911,10.866547 0.80069,15.727897 0.0572,5.147313 0.11438,10.866543 0.11438,15.956663 0,7.091847 0.40035,14.126507 0.17158,21.218367 -0.11438,2.28769 -0.22877,4.57538 -0.68631,6.80589 l 0.34316,0.17157 c 0.68631,-2.2305 1.02946,-4.51819 1.31542,-6.80589 0.7435,-7.09185 0.85789,-14.24089 1.02946,-21.389937 0,-6.86308 0.62912,-28.882134 0.34316,-32.084906 C 85.392616,26.788047 76.813766,12.089612 62.973216,4.8261845 55.995746,1.0514895 47.874436,-0.49270453 39.981886,0.13641147 23.796456,1.5090275 12.357986,13.405037 6.0096356,27.531547 l -0.22877,0.457539 H 20.250526 c 13.21144,0.743501 30.54072,4.632581 30.54072,24.478326 0,19.845751 -17.55805,23.963588 -30.71229,24.707098 h -8.86482 v 0.45753 h 8.9792 c 2.68804,0.11439 14.64124,1.5442 29.33968,17.72963 11.32408,12.52513 26.93759,18.81629 43.23741,12.52513 -16.4142,4.57539 -20.81801,-5.09012 -32.54244,-17.15771 z m -7.94974,36.60311 c -3.0312,0.40034 -6.06239,0.51473 -9.09359,0.45754 -13.89774,-0.11439 -27.85267,-7.37782 -35.0017104,-19.5026 -2.97401,-4.97573 -4.63258,-10.63777 -5.03293,-16.4142 -0.11439,-2.57366 -0.22877,-5.2045 -0.28596,-7.77816 -0.17158,-6.06239 -0.0572,-14.584047 -0.17158,-20.760817 0,-6.005201 -0.34315,-14.812823 -0.28596,-20.703635 0.11438,-2.344886 0.22877,-4.746965 0.68631,-7.034659 h -0.28597 c -0.6863,2.287694 -1.20103,4.575388 -1.487,6.920274 -0.91506997,5.948005 -0.74349997,14.755627 -0.85787997,20.81802 0,6.11958 -0.51473,27.681087 -0.45754,31.284207 0.34315,12.92547 6.23396997,25.85095 16.29982037,34.14384 10.35182,8.63604 25.27902,12.06758 38.20449,7.72096 9.66551,-3.48873 17.27209,-11.09531 22.19063,-19.84574 l -0.34315,-0.17158 c -6.11958,6.7487 -15.38474,9.83709 -24.07798,10.86655"
       style="display:inline;fill:#240852;fill-opacity:1;stroke-width:0.571923"
       inkscape:label="LOGO"
       sodipodi:nodetypes="cccsscccccccscccccccccccscccccccccccccccccccccccc" />
    <path
       id="path3"
       mask="none"
       style="display:inline;fill:#240852;fill-opacity:1;stroke-width:0;stroke-dasharray:none"
       class="st2"
       inkscape:label="TEXT"
       d="m 142.9369,98.908561 c 1.97228,-1.969766 3.43323,-2.371015 5.14985,-2.371015 0.80352,0 1.534,0.14591 2.19142,0.364772 0.65743,0.25534 1.24181,0.656589 1.71662,1.203747 0.4748,0.547156 0.87657,1.240222 1.13223,2.042715 0.25567,0.83898 0.40176,1.82386 0.40176,2.95465 v 5.07033 h -14.3173 c 0.10957,-0.58364 0.36524,-1.78738 0.47481,-2.18863 0.0365,-0.10943 0.073,-0.25534 0.10956,-0.43773 0.18263,-0.65658 0.43829,-1.67794 0.767,-2.5534 0.62091,-1.7509 1.46096,-3.137033 2.37405,-4.085439 z m 13.73292,0 c -0.36523,-1.130792 -0.87657,-2.152151 -1.53399,-2.954648 -0.65743,-0.838975 -1.46095,-1.459087 -2.41057,-1.93329 -0.94961,-0.474203 -2.04533,-0.693065 -3.25061,-0.693065 -0.94962,0 -1.93576,0.182385 -2.9219,0.547157 -0.98614,0.364771 -1.93576,0.911928 -2.77581,1.641472 -0.87657,0.729543 -1.68009,1.677949 -2.41056,2.808741 -0.73048,1.130792 -1.31486,2.480442 -1.78966,4.048962 l -0.21914,0.76602 v -8.024972 -0.291817 h -3.46976 v 11.307919 c 0,1.13079 -0.10957,2.15215 -0.36524,3.10056 -0.25567,0.9484 -0.65742,1.78738 -1.20528,2.48044 -0.54786,0.69307 -1.27833,1.24023 -2.15491,1.64147 -0.87656,0.40125 -1.97227,0.58364 -3.25061,0.58364 -1.02266,0 -2.0088,-0.14591 -2.92189,-0.43773 -0.65743,-0.21886 -2.73929,-0.87545 -4.09067,-3.93953 -1.16875,-2.62635 -0.91309,-4.92442 -0.84004,-5.9093 0,-0.073 0,-0.14591 0.0365,-0.21886 0.073,-0.69307 0.43829,-2.73579 0.98614,-4.377259 l 0.073,-0.255341 -0.6209,-0.25534 -0.1461,0.218864 c -0.073,0.109431 -1.82619,2.845216 -2.41057,4.997366 -1.42443,5.58101 0.40176,8.791 1.64357,10.21361 2.95842,3.39237 6.6108,3.39237 8.18132,3.39237 1.16876,0 2.33752,-0.18238 3.39671,-0.51068 1.05918,-0.36477 2.08185,-0.83897 2.95842,-1.49556 0.87657,-0.65659 1.64357,-1.45909 2.30099,-2.37102 0.62091,-0.87545 1.09571,-2.00624 1.42443,-3.20999 h 18.33492 v -7.04009 c 0,-1.42261 -0.18262,-2.66283 -0.54786,-3.830099 z m 126.11647,0 c 1.97229,-1.969766 3.43323,-2.371015 5.14985,-2.371015 0.80352,0 1.534,0.14591 2.19142,0.364772 0.65744,0.25534 1.24181,0.656589 1.71662,1.203747 0.47481,0.547156 0.87657,1.240222 1.13224,2.042715 0.25566,0.83898 0.40176,1.82386 0.40176,2.95465 v 5.07033 h -14.39035 c 0.14609,-0.58364 0.40176,-1.78738 0.51133,-2.18863 0.0365,-0.10943 0.073,-0.25534 0.10957,-0.43773 0.18262,-0.65658 0.40176,-1.67794 0.73047,-2.5534 0.69396,-1.7509 1.534,-3.137033 2.44709,-4.085439 m 13.73293,0 c -0.36524,-1.130792 -0.87657,-2.152151 -1.53399,-2.954648 -0.65744,-0.838975 -1.46096,-1.459087 -2.41057,-1.93329 -0.94962,-0.474203 -2.04533,-0.693065 -3.25062,-0.693065 -0.94961,0 -1.93575,0.182385 -2.9219,0.547157 -0.98614,0.364771 -1.93575,0.911928 -2.7758,1.641472 -0.87657,0.729543 -1.68009,1.677949 -2.41057,2.808741 -0.73047,1.130792 -1.31485,2.480442 -1.78966,4.048962 l -0.21914,0.76602 V 83.113955 h -3.50628 v 25.096285 h -5.40551 -0.18263 -0.10956 c -0.98615,-0.10943 -1.60705,-0.69307 -1.97229,-1.75091 -0.14609,-0.51068 -0.25567,-1.09431 -0.25567,-1.7509 v -0.87545 -1.05784 -7.952019 h -3.57932 v 11.089059 0.073 c -0.073,1.53204 -0.073,2.15215 -1.78966,2.18863 h -4.82113 c -2.26448,0 -2.52014,-2.66284 -2.55667,-3.79363 v -1.605 -7.952016 h -3.61585 v 14.226086 c 0,2.80874 -0.40176,4.48669 -1.35138,5.4351 -0.65742,0.69307 -1.68008,0.91193 -3.46975,0.76602 l -0.32871,-0.0365 v 0.65659 l 0.18261,0.073 c 0.9131,0.36477 1.93577,0.54716 2.88538,0.54716 1.09571,0 3.10452,-0.25535 4.1637,-2.04272 1.05919,-1.75091 1.38791,-4.12192 1.46096,-6.38351 0.6209,1.02136 1.60704,1.605 2.7758,1.605 h 3.98108 v 0 H 263.1 c 2.0088,0 3.5428,-0.8025 4.20023,-2.18863 0.54786,1.38613 1.68009,2.22511 3.06799,2.18863 h 26.58928 v -7.0401 c 0.10958,-1.31318 -0.073,-2.5534 -0.43828,-3.72067 M 228.1833,91.10246 c 0.62091,0 1.16876,-0.218863 1.57053,-0.656589 0.43828,-0.437725 0.65742,-0.984883 0.65742,-1.604995 0,-0.620111 -0.21914,-1.167268 -0.65742,-1.604994 -0.43829,-0.437725 -0.94962,-0.656589 -1.57053,-0.656589 -0.6209,0 -1.20528,0.218864 -1.60704,0.656589 -0.43829,0.437726 -0.65743,0.984883 -0.65743,1.604994 0,0.620112 0.21914,1.16727 0.65743,1.604995 0.43829,0.437726 0.98614,0.656589 1.60704,0.656589 z m 5.51509,15.02859 c 0,1.13079 -0.10957,2.15215 -0.36524,3.10056 -0.25566,0.9484 -0.65743,1.78738 -1.20528,2.48044 -0.54786,0.69307 -1.27833,1.24022 -2.1549,1.64147 -0.87657,0.40125 -1.97229,0.58364 -3.25062,0.58364 -1.02266,0 -2.0088,-0.14591 -2.9219,-0.43773 -0.65742,-0.21886 -2.73927,-0.87545 -4.09065,-3.93953 -1.16876,-2.62636 -0.9131,-4.92442 -0.84005,-5.9093 0,-0.073 0,-0.14591 0.0365,-0.21886 0.073,-0.69307 0.43829,-2.73579 0.98614,-4.37726 l 0.0731,-0.255341 -0.6209,-0.25534 -0.1461,0.218864 c -0.073,0.109431 -1.82618,2.845217 -2.41057,4.997367 -1.42442,5.58101 0.40177,8.791 1.64357,10.2136 2.95843,3.39238 6.6108,3.39238 8.18132,3.39238 1.16876,0 2.33752,-0.18239 3.39671,-0.51068 1.05919,-0.36477 2.08185,-0.83897 2.95842,-1.49556 0.87657,-0.65659 1.64357,-1.45909 2.301,-2.37102 0.84005,-1.24022 1.86271,-3.42885 1.86271,-6.8577 V 94.823121 h -3.43323 z m -37.36379,2.04272 h -6.57427 c -0.767,0 -2.48361,-0.36477 -2.55666,-3.79363 v -1.60499 -7.95202 h -3.61585 v 14.22609 c 0,2.80874 -0.40176,4.48669 -1.35138,5.4351 -0.65743,0.69306 -1.68009,0.91192 -3.46976,0.76602 l -0.32871,-0.0365 v 0.65658 l 0.18262,0.073 c 0.91309,0.36477 1.93576,0.54716 2.88538,0.54716 1.09571,0 3.10452,-0.25534 4.1637,-2.04272 1.05919,-1.7509 1.38791,-4.12192 1.46095,-6.3835 0.62091,1.02136 1.60705,1.60499 2.77581,1.60499 h 10.0075 V 83.041 h -3.61585 z m 66.18102,3.90305 c -0.6209,0 -1.16876,0.21887 -1.60705,0.65659 -0.43828,0.43773 -0.65742,0.94841 -0.65742,1.605 0,0.62011 0.21914,1.20374 0.65742,1.64147 0.43829,0.43772 0.98615,0.65659 1.60705,0.65659 0.62091,0 1.16876,-0.21887 1.60704,-0.65659 0.43829,-0.43773 0.65743,-0.98488 0.65743,-1.64147 0,-0.65659 -0.21914,-1.16727 -0.65743,-1.605 -0.43828,-0.43772 -0.98613,-0.65659 -1.60704,-0.65659 m 5.55161,0 c -0.62091,0 -1.16876,0.21887 -1.60705,0.65659 -0.43828,0.43773 -0.69395,0.98489 -0.69395,1.605 0,0.62011 0.21914,1.20374 0.69395,1.64147 0.43829,0.43772 0.98614,0.65659 1.60705,0.65659 0.6209,0 1.16876,-0.21887 1.60704,-0.65659 0.43828,-0.43773 0.65743,-0.98488 0.65743,-1.64147 0,-0.65659 -0.21915,-1.16727 -0.65743,-1.605 -0.4748,-0.43772 -0.98614,-0.65659 -1.60704,-0.65659 z M 241.4049,83.113955 h 3.57933 v 26.628325 h -3.57933 z m -37.25421,0 h 3.57932 v 26.628325 h -3.57932 z m -26.95453,11.709166 h -3.61584 v 13.350639 h -8.54656 V 83.113955 h -3.57932 v 26.628325 h 15.74172 z m -1.86271,17.253689 c -0.6209,0 -1.16875,0.21887 -1.60704,0.65659 -0.43828,0.43773 -0.69395,0.94841 -0.69395,1.605 0,0.62011 0.21914,1.20374 0.69395,1.64147 0.43829,0.43772 0.98614,0.65659 1.60704,0.65659 0.62091,0 1.16877,-0.21887 1.60705,-0.65659 0.43828,-0.43773 0.65743,-0.98488 0.65743,-1.64147 0,-0.65659 -0.21915,-1.16727 -0.65743,-1.605 -0.43828,-0.43772 -0.98614,-0.65659 -1.60705,-0.65659 m -5.5516,0 c -0.6209,0 -1.16876,0.21887 -1.60705,0.65659 -0.43828,0.43773 -0.65742,0.94841 -0.65742,1.605 0,0.62011 0.21914,1.20374 0.65742,1.64147 0.43829,0.43772 0.98615,0.65659 1.60705,0.65659 0.6209,0 1.16876,-0.21887 1.60704,-0.65659 0.43829,-0.43773 0.65743,-0.98488 0.65743,-1.64147 0,-0.65659 -0.21914,-1.16727 -0.65743,-1.605 -0.43828,-0.43772 -0.98614,-0.65659 -1.60704,-0.65659 m -20.4533,-20.974359 c 0.62091,0 1.16876,-0.218863 1.57052,-0.656589 0.43829,-0.437725 0.65743,-0.984883 0.65743,-1.604995 0,-0.620111 -0.21914,-1.167268 -0.65743,-1.604994 -0.43828,-0.437725 -0.94961,-0.656589 -1.57052,-0.656589 -0.6209,0 -1.20528,0.218864 -1.60704,0.656589 -0.43828,0.437726 -0.65743,0.984883 -0.65743,1.604994 0,0.620112 0.21915,1.16727 0.65743,1.604995 0.40176,0.437726 0.94962,0.656589 1.60704,0.656589 z m 62.37704,-44.568527 h -11.77843 l 5.92928,-13.529391 z m -5.44852,-19.730379 -16.26544,37.447459 h 2.32364 l 6.73052,-15.54272 h 13.6213 l 6.73053,15.54272 h 5.68889 L 208.82108,26.803545 Z m 189.57642,32.857119 -4.56714,-7.81161 c -0.9615,-1.69117 -2.32363,-2.89917 -4.48701,-3.78501 5.84914,-1.28852 9.69515,-5.31514 9.69515,-10.54971 0,-6.200977 -5.84914,-10.791318 -13.62129,-10.791318 h -14.66293 v 37.447458 h 5.3684 V 28.494721 h 8.41316 c 5.36838,0 8.8939,3.543424 8.8939,9.019613 0,5.15405 -3.04476,8.69746 -8.33304,9.34171 -2.08325,0.24161 -4.16651,0.24161 -5.60876,0.24161 h -0.641 -0.40063 v 0.48319 h 0.96151 c 2.48388,0 4.00625,0 5.12802,0.40265 1.20187,0.40266 2.2435,1.69118 3.205,3.38236 0.641,1.04692 5.20814,9.34172 5.28828,9.42226 0.72112,1.28851 1.68261,2.33542 2.80438,3.14076 l 0.0801,0.0805 H 400 l -0.96151,-0.72479 c -1.12176,-0.56373 -2.40375,-2.09383 -3.20502,-3.62396 m -56.88895,-13.12671 h -11.77841 l 5.92927,-13.529397 z M 333.496,26.803529 317.15044,64.250984 h 2.32364 l 6.73053,-15.54272 h 13.62129 l 6.73053,15.54272 h 5.68889 l -16.2654,-37.447425 z m -185.97078,32.857105 -4.56715,-7.8116 c -0.9615,-1.69117 -2.32363,-2.89917 -4.48701,-3.78501 5.84914,-1.28851 9.69517,-5.31513 9.69517,-10.54971 0,-6.200973 -5.84916,-10.791314 -13.6213,-10.791314 H 119.882 v 37.447454 h 5.36838 V 28.494735 h 8.41316 c 5.3684,0 8.89391,3.543424 8.89391,9.019609 0,5.15406 -3.04476,8.69746 -8.33303,9.34172 -2.08326,0.24161 -4.16652,0.24161 -5.60877,0.24161 h -0.64101 -0.40062 v 0.48318 h 0.96151 c 2.48388,0 4.00626,0 5.12801,0.40266 1.20187,0.40265 2.24352,1.69117 3.20501,3.38235 0.641,1.04692 5.20815,9.34172 5.28827,9.42227 0.72113,1.2885 1.68264,2.33542 2.80439,3.14075 l 0.0801,0.0805 h 6.65041 l -0.96151,-0.7248 c -1.04163,-0.56372 -2.32363,-2.09383 -3.205,-3.62395 M 355.53048,26.723016 h 5.36839 v 37.447458 h -5.36839 z M 293.27312,44.117954 H 272.60081 V 26.723016 h -5.3684 v 37.447458 h 5.3684 v -17.87815 h 20.67231 v 17.87815 h 5.3684 V 26.723016 h -5.3684 z m -59.53307,-15.54269 h 7.85227 c 4.40689,0 8.17278,1.610633 10.81691,4.590327 2.64413,3.060223 4.08639,7.247893 4.08639,12.321413 0,4.993 -1.44226,9.2612 -4.08639,12.32142 -2.64413,2.97969 -6.41002,4.59033 -10.81691,4.59033 h -7.85227 z m 8.49328,-1.852248 h -13.9418 v 37.447458 h 13.9418 c 11.29766,0 19.87106,-8.05323 19.87106,-18.764 -0.0801,-10.630237 -8.5734,-18.683458 -19.87106,-18.683458 z m -48.87644,0 -12.49954,19.166648 -12.57966,-19.166648 h -6.08953 l 14.10205,21.502078 v 16.02591 h 5.3684 v -16.02591 l 14.10204,-21.502078 z m -39.66201,0 h 5.36839 v 37.447458 h -5.36839 z" />
  </g>
</svg>
