<?xml version="1.0" encoding="utf-8"?>
<!DOCTYPE svg PUBLIC "-//W3C//DTD SVG 1.1//EN" "http://www.w3.org/Graphics/SVG/1.1/DTD/svg11.dtd" [
	<!ENTITY ns_svg "http://www.w3.org/2000/svg">
	<!ENTITY ns_xlink "http://www.w3.org/1999/xlink">
]>
<svg  version="1.1" id="Layer_1" xmlns="&ns_svg;" xmlns:xlink="&ns_xlink;" width="612.283" height="140.314"
	 viewBox="0 0 612.283 140.314" overflow="visible" enable-background="new 0 0 612.283 140.314" xml:space="preserve">
<rect fill="#A7D0ED" width="612.283" height="140.314"/>
<g>
	<path fill="#1C5989" d="M14.578,130.427h-3.004l3.056-14.613h5.933c1.056,0,1.89,0.123,2.505,0.375
		c0.612,0.246,1.099,0.659,1.458,1.233s0.538,1.26,0.538,2.057c0,0.738-0.144,1.456-0.428,2.153
		c-0.286,0.697-0.636,1.254-1.05,1.673s-0.861,0.735-1.339,0.952c-0.478,0.214-1.122,0.381-1.931,0.492
		c-0.472,0.067-1.355,0.1-2.648,0.1h-1.92L14.578,130.427z M16.252,122.423h0.923c1.582,0,2.638-0.1,3.167-0.299
		c0.53-0.199,0.946-0.516,1.251-0.955c0.305-0.437,0.457-0.917,0.457-1.441c0-0.352-0.078-0.639-0.233-0.864
		c-0.157-0.226-0.375-0.39-0.656-0.492s-0.91-0.155-1.882-0.155h-2.147L16.252,122.423z"/>
	<path fill="#1C5989" d="M41.021,124.702c0-0.864,0.129-1.775,0.388-2.733c0.338-1.283,0.855-2.396,1.55-3.34
		c0.693-0.943,1.569-1.69,2.625-2.238c1.055-0.548,2.257-0.823,3.605-0.823c1.806,0,3.265,0.563,4.378,1.685
		c1.112,1.125,1.668,2.613,1.668,4.468c0,1.544-0.362,3.035-1.085,4.479c-0.724,1.441-1.707,2.552-2.949,3.331
		c-1.242,0.776-2.647,1.166-4.214,1.166c-1.361,0-2.503-0.311-3.426-0.929s-1.578-1.383-1.963-2.297S41.021,125.634,41.021,124.702z
		 M43.986,124.644c0,1.005,0.306,1.849,0.917,2.525c0.611,0.68,1.415,1.02,2.411,1.02c0.81,0,1.589-0.267,2.336-0.803
		s1.365-1.348,1.853-2.438c0.488-1.087,0.732-2.147,0.732-3.179c0-1.151-0.309-2.057-0.927-2.71
		c-0.617-0.656-1.405-0.984-2.361-0.984c-1.468,0-2.662,0.686-3.582,2.057S43.986,123.006,43.986,124.644z"/>
	<path fill="#1C5989" d="M81.426,125.188l3.023,0.457c-0.592,1.638-1.478,2.889-2.66,3.753c-1.184,0.864-2.568,1.298-4.156,1.298
		c-1.787,0-3.183-0.539-4.191-1.614c-1.005-1.078-1.509-2.64-1.509-4.688c0-1.664,0.337-3.185,1.011-4.564s1.608-2.435,2.804-3.167
		c1.195-0.729,2.498-1.096,3.905-1.096c1.581,0,2.858,0.425,3.835,1.271c0.976,0.847,1.55,2.001,1.723,3.466l-2.883,0.278
		c-0.16-0.853-0.466-1.468-0.92-1.852s-1.059-0.574-1.815-0.574c-0.829,0-1.604,0.252-2.323,0.759s-1.293,1.298-1.726,2.373
		c-0.431,1.075-0.646,2.15-0.646,3.223c0,1.172,0.281,2.077,0.842,2.719c0.561,0.639,1.26,0.958,2.098,0.958
		c0.778,0,1.49-0.252,2.137-0.759C80.624,126.926,81.107,126.179,81.426,125.188z"/>
	<path fill="#1C5989" d="M111.05,125.188l3.023,0.457c-0.592,1.638-1.478,2.889-2.66,3.753s-2.568,1.298-4.156,1.298
		c-1.787,0-3.185-0.539-4.189-1.614c-1.008-1.078-1.51-2.64-1.51-4.688c0-1.664,0.337-3.185,1.011-4.564s1.608-2.435,2.804-3.167
		c1.195-0.729,2.498-1.096,3.905-1.096c1.581,0,2.858,0.425,3.835,1.271c0.976,0.847,1.55,2.001,1.723,3.466l-2.883,0.278
		c-0.16-0.853-0.466-1.468-0.92-1.852s-1.059-0.574-1.815-0.574c-0.829,0-1.603,0.252-2.323,0.759
		c-0.719,0.507-1.295,1.298-1.726,2.373s-0.646,2.15-0.646,3.223c0,1.172,0.281,2.077,0.842,2.719
		c0.561,0.639,1.26,0.958,2.098,0.958c0.776,0,1.49-0.252,2.137-0.759C110.247,126.926,110.73,126.179,111.05,125.188z"/>
	<path fill="#1C5989" d="M133.197,115.813h2.795l-1.884,9.062l7.849-9.062h2.782l-2.997,14.613h-2.826l1.917-9.161l-7.913,9.161
		h-2.782L133.197,115.813z"/>
	<path fill="#1C5989" d="M162.76,115.813h2.795l-1.884,9.062l7.849-9.062h2.782l-2.997,14.613h-2.826l1.917-9.161l-7.913,9.161
		h-2.782L162.76,115.813z M166.147,111.677h1.383c0.152,0.536,0.357,0.911,0.614,1.122c0.256,0.214,0.582,0.319,0.974,0.319
		c0.791,0,1.444-0.48,1.963-1.441h1.313c-0.272,0.914-0.715,1.623-1.326,2.127s-1.293,0.756-2.043,0.756
		c-0.776,0-1.417-0.24-1.922-0.721C166.598,113.358,166.279,112.638,166.147,111.677z"/>
	<path fill="#1C5989" d="M199.802,125.188l3.023,0.457c-0.592,1.638-1.478,2.889-2.66,3.753s-2.568,1.298-4.156,1.298
		c-1.787,0-3.185-0.539-4.189-1.614c-1.008-1.078-1.51-2.64-1.51-4.688c0-1.664,0.337-3.185,1.011-4.564s1.608-2.435,2.804-3.167
		c1.195-0.729,2.498-1.096,3.905-1.096c1.581,0,2.858,0.425,3.835,1.271c0.976,0.847,1.55,2.001,1.723,3.466l-2.883,0.278
		c-0.16-0.853-0.466-1.468-0.92-1.852s-1.059-0.574-1.815-0.574c-0.829,0-1.603,0.252-2.323,0.759
		c-0.719,0.507-1.295,1.298-1.726,2.373s-0.646,2.15-0.646,3.223c0,1.172,0.281,2.077,0.842,2.719
		c0.561,0.639,1.26,0.958,2.098,0.958c0.776,0,1.49-0.252,2.137-0.759C198.999,126.926,199.482,126.179,199.802,125.188z"/>
	<path fill="#1C5989" d="M221.949,115.813h2.965l-1.296,6.199c0.568,0,1.009-0.117,1.323-0.354c0.315-0.234,0.803-0.92,1.463-2.057
		c0.702-1.204,1.244-2.033,1.625-2.487s0.812-0.785,1.293-0.99c0.48-0.208,1.208-0.311,2.184-0.311h0.803l-0.659,2.191h-0.489
		c-0.366,0-0.646,0.062-0.842,0.182c-0.196,0.117-0.422,0.41-0.674,0.876c-0.792,1.453-1.424,2.435-1.897,2.938
		c-0.472,0.504-0.987,0.826-1.544,0.967c0.996,0.325,1.661,1.204,1.997,2.634c0.022,0.079,0.038,0.158,0.05,0.231l1.317,4.594
		h-3.088l-1.238-4.521c-0.007-0.053-0.12-0.372-0.337-0.958c-0.271-0.568-0.844-0.858-1.718-0.873l-1.329,6.352h-2.966
		L221.949,115.813z"/>
	<path fill="#1C5989" d="M249.381,115.813h2.795l-1.884,9.062l7.849-9.062h2.782l-2.997,14.613H255.1l1.917-9.161l-7.913,9.161
		h-2.782L249.381,115.813z"/>
	<path fill="#1C5989" d="M275.827,130.427l3.056-14.613h10.831l-0.504,2.438h-7.824l-0.728,3.328h7.591l-0.504,2.438h-7.62
		l-0.87,3.973h8.502l-0.516,2.438H275.827z"/>
	<path fill="#1C5989" d="M334.463,127.192h-5.779l-1.771,3.234h-3.088l8.246-14.613h3.359l2.36,14.613h-2.849L334.463,127.192z
		 M334.091,124.755l-0.855-5.871l-3.215,5.871H334.091z"/>
	<path fill="#1C5989" d="M354.498,130.427l3.056-14.613h4.991c1.083,0,1.84,0.032,2.271,0.1c0.718,0.1,1.326,0.299,1.824,0.598
		s0.875,0.697,1.135,1.195c0.258,0.498,0.389,1.049,0.389,1.652c0,0.812-0.225,1.512-0.674,2.106
		c-0.45,0.595-1.145,1.046-2.084,1.351c0.748,0.205,1.332,0.574,1.752,1.102c0.421,0.53,0.631,1.125,0.631,1.79
		c0,0.879-0.25,1.711-0.748,2.499s-1.185,1.356-2.063,1.702c-0.875,0.346-2.075,0.519-3.596,0.519H354.498z M357.995,128.071h2.897
		c1.214,0,2.028-0.079,2.443-0.234c0.416-0.155,0.747-0.413,0.996-0.773c0.249-0.357,0.374-0.738,0.374-1.137
		c0-0.486-0.18-0.885-0.538-1.201c-0.357-0.316-0.955-0.475-1.79-0.475h-3.583L357.995,128.071z M359.327,121.708h2.292
		c1.03,0,1.771-0.073,2.224-0.22c0.451-0.146,0.789-0.384,1.017-0.718c0.226-0.331,0.339-0.686,0.339-1.066
		c0-0.369-0.107-0.677-0.32-0.914c-0.212-0.24-0.516-0.398-0.908-0.48c-0.219-0.038-0.748-0.059-1.586-0.059h-2.334L359.327,121.708
		z"/>
	<path fill="#1C5989" d="M387.252,115.813h2.795l-1.885,9.062l7.85-9.062h2.781l-2.997,14.613h-2.825l1.917-9.161l-7.913,9.161
		h-2.781L387.252,115.813z"/>
	<path fill="#1C5989" d="M423.276,127.192h-5.779l-1.771,3.234h-3.088l8.246-14.613h3.359l2.359,14.613h-2.85L423.276,127.192z
		 M422.903,124.755l-0.855-5.871l-3.215,5.871H422.903z"/>
	<path fill="#1C5989" d="M447.59,115.813h10.029l-3.059,14.613h-2.986l2.547-12.176h-4.056l-1.62,7.743
		c-0.199,0.917-0.46,1.746-0.782,2.487s-0.739,1.286-1.254,1.641c-0.516,0.352-1.196,0.527-2.046,0.527
		c-0.572,0-1.24-0.073-2.003-0.223l0.539-2.499c0.524,0.079,0.837,0.12,0.937,0.12c0.822,0,1.369-0.715,1.642-2.145
		c0.013-0.079,0.029-0.161,0.05-0.249L447.59,115.813z"/>
	<path fill="#1C5989" d="M475.595,115.813h2.795l-1.884,9.062l7.849-9.062h2.782l-2.998,14.613h-2.825l1.917-9.161l-7.912,9.161
		h-2.782L475.595,115.813z"/>
	<path fill="#1C5989" d="M512.106,123.888h-5.632l-1.368,6.539h-3.004l3.057-14.613h3.004l-1.179,5.637h5.632l1.18-5.637h3.004
		l-3.057,14.613h-3.004L512.106,123.888z"/>
	<path fill="#1C5989" d="M534.784,115.813h2.795l-1.884,9.062l7.849-9.062h2.781l-2.996,14.613h-2.826l1.918-9.161l-7.914,9.161
		h-2.781L534.784,115.813z"/>
	<path fill="#1C5989" d="M564.347,115.813h2.795l-1.884,9.062l7.849-9.062h2.782l-2.998,14.613h-2.825l1.917-9.161l-7.912,9.161
		h-2.782L564.347,115.813z"/>
</g>
<path fill="#1C5989" d="M530.594,93.548l3.348-0.053l5.471,6.533c0,0,1.063,1.327,3.771,1.327c2.709,0,35.221,0,35.221,0
	s2.311-0.135,3.666,1.222c1.354,1.356,3.188,3.721-1.382,3.721s-44.411,0-44.411,0s-1.965,0.003-2.709-2.443
	S530.594,93.548,530.594,93.548z"/>
<polygon fill="#FFFFFF" points="18.006,93.545 17.256,97.796 527.585,97.775 526.367,93.557 "/>
<polygon fill="#087DB8" points="17.256,97.796 16.506,102.047 528.833,102.035 527.585,97.775 "/>
<polygon fill="#FD3435" points="16.506,102.047 15.756,106.301 530.12,106.327 528.833,102.035 "/>
<path fill="#F92B36" stroke="#F92B36" stroke-width="5" d="M43.1,82.137H28.929l14.345-68.719H71.21
	c4.969,0,8.897,0.586,11.789,1.761c2.89,1.175,5.18,3.114,6.867,5.818c1.688,2.707,2.531,5.938,2.531,9.688
	c0,3.475-0.672,6.855-2.014,10.137c-1.343,3.287-2.99,5.912-4.941,7.887c-1.951,1.969-4.052,3.463-6.299,4.479
	c-2.249,1.017-5.278,1.79-9.086,2.323c-2.218,0.313-6.369,0.469-12.457,0.469h-9.04L43.1,82.137z M50.966,44.449h4.343
	c7.441,0,12.407-0.463,14.899-1.395c2.49-0.932,4.452-2.42,5.884-4.471c1.433-2.045,2.149-4.295,2.149-6.747
	c0-1.644-0.368-2.994-1.1-4.049s-1.762-1.825-3.088-2.306c-1.327-0.48-4.283-0.721-8.868-0.721H55.078L50.966,44.449z"/>
<path fill="#F92B36" stroke="#F92B36" stroke-width="5" d="M128.181,55.166c0-4.066,0.609-8.35,1.83-12.853
	c1.594-6.035,4.025-11.273,7.293-15.715c3.268-4.438,7.389-7.948,12.36-10.529s10.632-3.87,16.98-3.87
	c8.505,0,15.378,2.643,20.616,7.928s7.857,12.287,7.857,21.012c0,7.257-1.705,14.279-5.114,21.064s-8.036,12.006-13.884,15.665
	s-12.463,5.487-19.843,5.487c-6.41,0-11.789-1.453-16.135-4.362c-4.348-2.909-7.428-6.513-9.242-10.813
	C129.088,63.882,128.181,59.543,128.181,55.166z M142.15,54.885c0,4.726,1.437,8.684,4.313,11.871
	c2.874,3.193,6.656,4.787,11.344,4.787c3.812,0,7.477-1.26,10.992-3.776s6.422-6.334,8.719-11.449
	c2.297-5.112,3.445-10.096,3.445-14.944c0-5.411-1.453-9.656-4.359-12.738s-6.609-4.623-11.109-4.623
	c-6.907,0-12.524,3.223-16.852,9.668C144.313,40.122,142.15,47.191,142.15,54.885z"/>
<path fill="#F92B36" stroke="#F92B36" stroke-width="5" d="M278.493,56.977l15.467,0.018c-1.688,7.734-7.811,16.172-13.373,20.247
	c-5.563,4.075-12.079,6.114-19.547,6.114c-8.407,0-14.977-2.531-19.711-7.6c-4.734-5.063-7.102-12.413-7.102-22.043
	c0-7.819,1.586-14.971,4.761-21.463c3.174-6.486,7.576-11.449,13.206-14.889s11.76-5.162,18.39-5.162
	c7.441,0,13.462,1.998,18.059,5.988s8.974,11.212,9.349,19.963l-16.314,0.117c-0.062-6.618-1.923-10.063-4.061-11.868
	c-2.139-1.805-3.768-2.013-7.324-2.013c-3.902,0-7.545,1.189-10.932,3.568c-3.387,2.382-6.094,6.1-8.121,11.156
	c-2.029,5.057-3.042,10.107-3.042,15.146c0,5.514,1.318,9.771,3.955,12.776s5.921,4.509,9.853,4.509
	c3.65,0,6.996-1.189,10.039-3.574C275.084,65.587,276.995,61.649,278.493,56.977z"/>
<path fill="#F92B36" stroke="#F92B36" stroke-width="5" d="M378.29,56.977l15.468,0.018c-1.688,7.734-7.811,16.172-13.372,20.247
	c-5.564,4.075-12.08,6.114-19.547,6.114c-8.407,0-14.977-2.531-19.711-7.6c-4.734-5.063-7.102-12.413-7.102-22.043
	c0-7.819,1.586-14.971,4.761-21.463c3.174-6.486,7.576-11.449,13.206-14.889s11.76-5.162,18.39-5.162
	c7.441,0,13.462,1.998,18.059,5.988s8.974,11.212,9.349,19.963l-16.313,0.117c-0.063-6.618-1.924-10.063-4.061-11.868
	c-2.139-1.805-3.768-2.013-7.324-2.013c-3.902,0-7.546,1.189-10.933,3.568c-3.387,2.382-6.094,6.1-8.121,11.156
	c-2.029,5.057-3.042,10.107-3.042,15.146c0,5.514,1.318,9.771,3.955,12.776s5.921,4.509,9.852,4.509
	c3.65,0,6.996-1.189,10.039-3.574C374.881,65.587,376.792,61.649,378.29,56.977z"/>
<path fill="#F92B36" stroke="#F92B36" stroke-width="5" d="M443.702,13.418h13.021l-8.799,42.609l37.146-42.609h13.072
	l-14.057,68.719h-13.292l8.992-43.078l-37.418,43.078h-13.012L443.702,13.418z"/>
<path fill="#F92B36" stroke="#F92B36" stroke-width="5" d="M599.167,13.418l-14.551,68.719h-13.867l6.07-28.594l-1.592-0.094
	c-4.121,0-9.826-0.092-9.826-0.092l-1.125,1.083l-23.68,27.696h-17.543l25.89-30.028l0,0c-4.333-2.417-6.166-3.917-8-7.25
	c-1.876-3.409-2.632-5.627-2.632-9.664c0-5.851,2.248-10.942,6.748-15.275s11.094-6.501,19.783-6.501H599.167z M582.698,24.949
	h-10.977c-7.658,0-12.782,0.756-15.371,2.268c-2.59,1.512-3.883,3.891-3.883,7.131c0,2.15,0.775,4.043,2.326,5.678
	c1.55,1.638,4.994,2.455,10.328,2.455h13.912L582.698,24.949z"/>
</svg>
