<?xml version="1.0" encoding="UTF-8" standalone="no"?>
<svg
   height="152.81148"
   id="Layer_1"
   version="1.1"
   viewBox="0 0 295 119.49018"
   width="376.91794"
   x="0px"
   xml:space="preserve"
   y="0px"
   sodipodi:docname="Royal_Brunei_Airlines_Logo.svg"
   inkscape:version="1.4 (86a8ad7, 2024-10-11)"
   xmlns:inkscape="http://www.inkscape.org/namespaces/inkscape"
   xmlns:sodipodi="http://sodipodi.sourceforge.net/DTD/sodipodi-0.dtd"
   xmlns:xlink="http://www.w3.org/1999/xlink"
   xmlns="http://www.w3.org/2000/svg"
   xmlns:svg="http://www.w3.org/2000/svg"><defs
   id="defs2" /><sodipodi:namedview
   id="namedview1"
   pagecolor="#ffffff"
   bordercolor="#000000"
   borderopacity="0.25"
   inkscape:showpageshadow="2"
   inkscape:pageopacity="0.0"
   inkscape:pagecheckerboard="0"
   inkscape:deskcolor="#d1d1d1"
   inkscape:zoom="2.6182324"
   inkscape:cx="167.28844"
   inkscape:cy="80.77969"
   inkscape:window-width="1920"
   inkscape:window-height="1001"
   inkscape:window-x="-9"
   inkscape:window-y="-9"
   inkscape:window-maximized="1"
   inkscape:current-layer="XMLID_6_" />
<style
   type="text/css"
   id="style1">
	<!-- .st0{fill:#EDE9E0;} -->
	.st0{fill:transparent;}
	.st2{clip-path:url(#XMLID_11_);fill:#FFE600;}
</style>
<rect
   class="st0"
   height="170"
   id="XMLID_2_"
   width="360"
   style="fill:none"
   x="-8.020092"
   y="-25.878124" />
<g
   id="XMLID_4_"
   transform="translate(-31.5,-25.878125)">
	<path
   class="st1"
   d="m 48.4,86.6 c 0,-5.6 -3.5,-8.3 -11.1,-8.3 h -5.8 v 29 h 3.2 V 95.1 H 37 c 0.8,0 1.6,0 2.3,-0.1 l 11.1,19.8 0.1,0.2 h 3.2 v -0.5 l -11.4,-20 c 4.1,-1.3 6.1,-3.9 6.1,-7.9 m -11.2,6.6 h -2.6 v -13 h 2.6 c 5.6,0 7.9,1.9 7.9,6.4 0,4.6 -2.3,6.6 -7.9,6.6 M 68.4,81.3 c -6.8,0 -10.9,4.9 -10.9,13.2 0,8.3 4.1,13.2 10.9,13.2 6.8,0 11,-5.1 11,-13.2 0,-8.2 -4.1,-13.2 -11,-13.2 m 0,24.5 c -6.3,0 -7.7,-6.2 -7.7,-11.4 0,-5.2 1.3,-11.3 7.7,-11.3 6.4,0 7.7,6.1 7.7,11.3 0.1,5.3 -1.3,11.4 -7.7,11.4"
   id="XMLID_110_" />
	<g
   id="XMLID_5_">
		<g
   id="XMLID_107_">
			<defs
   id="defs1">
				<rect
   height="119.6"
   id="XMLID_109_"
   width="188.60001"
   x="84.699997"
   y="25.799999" />
			</defs>
			<clipPath
   id="XMLID_11_">
				<use
   style="overflow:visible"
   xlink:href="#XMLID_109_"
   id="use1" />
			</clipPath>
			<path
   class="st2"
   d="M 149.8,145.5 H 84.7 L 208.2,25.8 h 65.1 z"
   id="XMLID_108_"
   clip-path="url(#XMLID_11_)" />
		</g>
		<g
   id="XMLID_6_">
			<path
   class="st1"
   d="m 126,132.2 3.7,-10.7 h 1.9 l 3.6,10.7 v 0.1 h -1.6 l -1.1,-3.4 h -4 l -1.1,3.4 z m 6.1,-4.2 -0.7,-2.1 c -0.5,-1.6 -0.9,-2.8 -0.9,-3.2 h -0.1 c -0.1,0.4 -0.5,1.6 -1,3.2 l -0.7,2.1 z m 10.4,-6.5 h 1.6 v 10.8 h -1.6 z m 10.6,0 h 2.6 c 3,0 4.3,1.1 4.3,3.1 0,1.5 -0.7,2.5 -2.2,3 l 2.6,4.7 v 0.1 h -1.7 l -2.4,-4.5 c -0.2,0 -0.5,0 -0.8,0 h -0.8 v 4.4 h -1.6 z m 2.5,5.5 c 1.9,0 2.8,-0.7 2.8,-2.3 0,-1.7 -0.9,-2.3 -2.8,-2.3 h -0.9 v 4.7 z m 13,-5.5 h 1.6 v 9.8 h 4.6 v 1 h -6.1 v -10.8 z m 14.2,0 h 1.6 v 10.8 h -1.6 z m 10.6,0 h 1.9 l 3.3,5.3 c 1.2,2 1.9,3.1 2.1,3.6 h 0.1 c 0,-0.8 -0.1,-1.8 -0.1,-3 v -6 h 1.3 v 10.8 h -1.7 l -3.6,-5.7 c -1,-1.6 -1.9,-3.2 -2.1,-3.6 h -0.1 c 0,0.6 0.1,1.8 0.1,3.1 v 6.2 h -1.3 z m 17.6,0 h 6.1 v 1 h -4.5 v 3.8 h 4.1 c 0,0.1 0,0.3 0,0.4 0,0.2 0,0.4 0,0.5 h -4.1 v 4.1 h 4.8 v 1 H 211 Z m 14.4,8.2 c 0.2,0.7 0.7,1.9 2.5,1.9 1.3,0 2.2,-0.8 2.2,-2.1 0,-1.5 -1.4,-1.9 -2.8,-2.4 -1.4,-0.5 -2.8,-1.1 -2.8,-2.9 0,-1.8 1.3,-3 3.5,-3 2.4,0 3.3,1.3 3.5,2.3 -0.3,0.2 -0.9,0.3 -1.4,0.3 -0.2,-0.5 -0.5,-1.7 -2.2,-1.7 -1.2,0 -2,0.6 -2,1.9 0,1.3 1.3,1.7 2.7,2.1 1.5,0.5 2.9,1.2 2.9,3.1 0,1.7 -1.2,3.2 -3.8,3.2 -2.3,0 -3.4,-1.1 -3.8,-2.5 0.3,0 1,-0.2 1.5,-0.2"
   id="XMLID_94_" />
			<path
   class="st1"
   d="m 300.5,95.2 h 9.8 v -0.3 c 0,-0.2 0.1,-0.5 0.1,-0.8 0,-0.3 -0.1,-0.7 -0.1,-0.8 V 93 h -9.8 v -9.3 h 10.8 v -2 h -13.8 v 25.5 h 14.3 v -2.1 h -11.3 z m 23,-13.4 h 3 v 25.5 h -3 z M 96.1,95 89.4,81.8 h -2.9 v 0.6 l 7.9,15.1 v 9.8 h 3 v -9.8 l 7.9,-15.2 v -0.6 h -2.5 z m 23.9,-13.2 -8.7,24.9 v 0.6 h 2.5 l 3,-8.8 h 9.2 l 3,8.8 h 2.9 v -0.5 l -8.6,-25 z m 5.3,14.7 h -7.8 l 1.8,-5.2 c 1.1,-3.2 1.8,-5.3 2.1,-6.5 0.4,1.3 1.1,3.6 2.1,6.5 z m 19.9,-14.7 h -3 v 25.5 h 14 v -2.1 H 145.1 V 81.8 Z M 188.1,92 c 3.1,-1 4.8,-3.3 4.8,-6.6 0,-4.8 -3.3,-7.1 -10.2,-7.1 h -6.9 v 29 h 7.4 c 7.1,0 10.8,-2.7 10.8,-8.1 0,-3.6 -2.1,-6.2 -5.9,-7.2 M 179,80.2 h 3.6 c 5,0 7.1,1.6 7.1,5.4 0,3.9 -2.3,5.7 -7.5,5.7 H 179 Z m 3.6,25.2 H 179 V 93.1 h 3.9 c 5.3,0 7.7,2 7.7,6.2 0,4.2 -2.5,6.1 -8,6.1 m 38.1,-16.3 c 0,-4.9 -3.2,-7.3 -9.8,-7.3 h -5.2 v 25.5 h 3 V 96.7 h 2 c 0.7,0 1.3,0 1.9,-0.1 l 10.3,18.4 h 3 v -0.6 L 215.4,96 c 3.5,-1.1 5.3,-3.4 5.3,-6.9 m -9.9,5.6 h -2.1 v -11 h 2.1 c 4.8,0 6.8,1.6 6.8,5.4 0,3.9 -2.1,5.6 -6.8,5.6"
   id="XMLID_81_" />
			<path
   class="st1"
   d="m 249,96.8 c 0,6.1 -2.1,8.8 -6.8,8.8 -4.7,0 -6.8,-2.7 -6.8,-8.7 V 81.8 h -3 v 15.1 c 0,7.5 2.9,10.8 9.5,10.8 6.6,0 9.7,-3.4 9.7,-10.8 V 81.8 H 249 Z m 32.6,0.4 c 0,2.2 0,4 0.1,5.6 -0.9,-1.6 -2.5,-4.1 -4.7,-7.4 l -9.1,-13.7 h -3.1 v 25.5 h 2.6 V 91.5 c 0,-2.4 0,-4.5 -0.1,-6 0.9,1.5 2.5,4.1 4.1,6.5 l 10.2,15.3 h 2.6 V 81.8 h -2.6 z"
   id="XMLID_75_"
   sodipodi:nodetypes="sssccsssccssccccccscsccccs" />
			
			
			
			
			
			
			
		</g>
	</g>
</g>
</svg>
