<?xml version="1.0" encoding="UTF-8" standalone="no"?>
<svg
   xmlns:dc="http://purl.org/dc/elements/1.1/"
   xmlns:cc="http://creativecommons.org/ns#"
   xmlns:rdf="http://www.w3.org/1999/02/22-rdf-syntax-ns#"
   xmlns:svg="http://www.w3.org/2000/svg"
   xmlns="http://www.w3.org/2000/svg"
   width="500"
   height="180"
   viewBox="0 0 132.29166 47.625002"
   version="1.1"
   id="svg8">
  <defs
     id="defs2" />
  <metadata
     id="metadata5">
    <rdf:RDF>
      <cc:Work
         rdf:about="">
        <dc:format>image/svg+xml</dc:format>
        <dc:type
           rdf:resource="http://purl.org/dc/dcmitype/StillImage" />
        <dc:title></dc:title>
      </cc:Work>
    </rdf:RDF>
  </metadata>
  <g
     id="layer1">
    <g
       aria-label="GERMAN FLIGHT ACADEMY"
       id="text849"
       style="font-style:normal;font-variant:normal;font-weight:normal;font-stretch:normal;font-size:19.809px;line-height:1.25;font-family:Araboto-Light;-inkscape-font-specification:Araboto-Light;fill:#ff0000;fill-opacity:1;stroke:none;stroke-width:0.495225"
       transform="matrix(0.52609641,0,0,0.52609641,54.588445,-34.38492)">
      <path
         d="m -90.466085,149.47431 q -0.619031,0.88018 -1.944145,1.37348 -1.315441,0.49329 -2.95007,0.49329 -1.653975,0 -2.940399,-0.79314 -1.286424,-0.79313 -1.992511,-2.24399 -0.70608,-1.45085 -0.71575,-3.32729 v -1.77971 q 0,-2.93073 1.479871,-4.62339 1.479872,-1.70234 3.975341,-1.70234 2.176282,0 3.501396,1.11232 1.325114,1.10265 1.576595,3.0468 h -1.189701 q -0.261153,-1.54758 -1.267079,-2.34072 -0.996254,-0.8028 -2.611538,-0.8028 -1.973162,0 -3.124174,1.40249 -1.151011,1.40249 -1.151011,3.956 v 1.66364 q 0,1.60562 0.541652,2.84368 0.551325,1.22839 1.566923,1.90545 1.025271,0.67707 2.350385,0.67707 1.537905,0 2.640555,-0.48362 0.715755,-0.31919 1.06396,-0.74477 v -3.63681 h -3.781894 v -1.00592 h 4.971594 z"
         style="font-style:normal;font-variant:normal;font-weight:normal;font-stretch:normal;font-family:Araboto-Light;-inkscape-font-specification:Araboto-Light;fill:#797979;fill-opacity:1;stroke-width:0.495225"
         id="path896" />
      <path
         d="m -79.31385,144.39632 h -6.586879 v 5.74538 h 7.57346 v 1.00593 h -8.763161 v -14.08296 h 8.714799 v 1.0156 h -7.525098 v 5.31012 h 6.586879 z"
         style="font-style:normal;font-variant:normal;font-weight:normal;font-stretch:normal;font-family:Araboto-Light;-inkscape-font-specification:Araboto-Light;fill:#797979;fill-opacity:1;stroke-width:0.495225"
         id="path898" />
      <path
         d="m -70.56036,145.28618 h -4.09141 v 5.86145 h -1.199373 v -14.08296 h 4.575028 q 2.25366,0 3.52074,1.09297 1.267079,1.09298 1.267079,3.05647 0,1.35413 -0.793133,2.38908 -0.793134,1.03494 -2.12792,1.43151 l 3.52074,5.98719 v 0.12574 h -1.26708 z m -4.09141,-1.0156 h 3.646481 q 1.499216,0 2.408418,-0.85117 0.909202,-0.85117 0.909202,-2.2053 0,-1.48954 -0.947891,-2.31169 -0.947892,-0.82215 -2.6599,-0.82215 h -3.35631 z"
         style="font-style:normal;font-variant:normal;font-weight:normal;font-stretch:normal;font-family:Araboto-Light;-inkscape-font-specification:Araboto-Light;fill:#797979;fill-opacity:1;stroke-width:0.495225"
         id="path900" />
      <path
         d="m -61.671461,137.06467 5.194059,12.42898 5.213404,-12.42898 h 1.586268 v 14.08296 h -1.189701 v -6.13228 l 0.09672,-6.28704 -5.24242,12.41932 h -0.918875 l -5.223076,-12.37095 0.09672,6.19998 v 6.17097 h -1.189701 v -14.08296 z"
         style="font-style:normal;font-variant:normal;font-weight:normal;font-stretch:normal;font-family:Araboto-Light;-inkscape-font-specification:Araboto-Light;fill:#797979;fill-opacity:1;stroke-width:0.495225"
         id="path902" />
      <path
         d="m -38.506151,147.2013 h -6.393433 l -1.450854,3.94633 h -1.247735 l 5.329472,-14.08296 h 1.131667 l 5.329472,14.08296 h -1.238063 z m -6.025883,-1.01559 h 5.64866 l -2.82433,-7.67019 z"
         style="font-style:normal;font-variant:normal;font-weight:normal;font-stretch:normal;font-family:Araboto-Light;-inkscape-font-specification:Araboto-Light;fill:#797979;fill-opacity:1;stroke-width:0.495225"
         id="path904" />
      <path
         d="m -23.252831,151.14763 h -1.1897 l -8.095768,-12.05177 v 12.05177 h -1.199374 v -14.08296 h 1.199374 l 8.10544,12.06143 v -12.06143 h 1.180028 z"
         style="font-style:normal;font-variant:normal;font-weight:normal;font-stretch:normal;font-family:Araboto-Light;-inkscape-font-specification:Araboto-Light;fill:#797979;fill-opacity:1;stroke-width:0.495225"
         id="path906" />
      <path
         d="m -7.0032643,144.57042 h -6.5675347 v 6.57721 H -14.7605 v -14.08296 h 8.724472 v 1.0156 h -7.534771 v 5.47455 h 6.5675347 z"
         style="font-style:normal;font-variant:normal;font-weight:normal;font-stretch:normal;font-family:Araboto-Light;-inkscape-font-specification:Araboto-Light;fill:#797979;fill-opacity:1;stroke-width:0.495225"
         id="path908" />
      <path
         d="m -2.4185638,150.1417 h 6.9544292 v 1.00593 h -8.1538022 v -14.08296 h 1.199373 z"
         style="font-style:normal;font-variant:normal;font-weight:normal;font-stretch:normal;font-family:Araboto-Light;-inkscape-font-specification:Araboto-Light;fill:#797979;fill-opacity:1;stroke-width:0.495225"
         id="path910" />
      <path
         d="M 8.2693953,151.14763 H 7.0796946 v -14.08296 h 1.1897007 z"
         style="font-style:normal;font-variant:normal;font-weight:normal;font-stretch:normal;font-family:Araboto-Light;-inkscape-font-specification:Araboto-Light;fill:#797979;fill-opacity:1;stroke-width:0.495225"
         id="path912" />
      <path
         d="m 22.255633,149.47431 q -0.619031,0.88018 -1.944145,1.37348 -1.315441,0.49329 -2.950071,0.49329 -1.653974,0 -2.940398,-0.79314 -1.286424,-0.79313 -1.992507,-2.24399 -0.706082,-1.45085 -0.715755,-3.32729 v -1.77971 q 0,-2.93073 1.479872,-4.62339 1.479871,-1.70234 3.975341,-1.70234 2.176282,0 3.501396,1.11232 1.325113,1.10265 1.576595,3.0468 H 21.05626 q -0.261154,-1.54758 -1.267079,-2.34072 -0.996254,-0.8028 -2.611538,-0.8028 -1.973163,0 -3.124174,1.40249 -1.151011,1.40249 -1.151011,3.956 v 1.66364 q 0,1.60562 0.541652,2.84368 0.551325,1.22839 1.566923,1.90545 1.025271,0.67707 2.350384,0.67707 1.537906,0 2.640556,-0.48362 0.715754,-0.31919 1.06396,-0.74477 v -3.63681 h -3.781894 v -1.00592 h 4.971594 z"
         style="font-style:normal;font-variant:normal;font-weight:normal;font-stretch:normal;font-family:Araboto-Light;-inkscape-font-specification:Araboto-Light;fill:#797979;fill-opacity:1;stroke-width:0.495225"
         id="path914" />
      <path
         d="M 36.067773,151.14763 H 34.8684 v -6.75131 h -8.047407 v 6.75131 h -1.1897 v -14.08296 h 1.1897 v 6.32572 H 34.8684 v -6.32572 h 1.199373 z"
         style="font-style:normal;font-variant:normal;font-weight:normal;font-stretch:normal;font-family:Araboto-Light;-inkscape-font-specification:Araboto-Light;fill:#797979;fill-opacity:1;stroke-width:0.495225"
         id="path916" />
      <path
         d="m 49.202846,138.08027 h -4.826509 v 13.06736 h -1.189701 v -13.06736 h -4.816837 v -1.0156 h 10.833047 z"
         style="font-style:normal;font-variant:normal;font-weight:normal;font-stretch:normal;font-family:Araboto-Light;-inkscape-font-specification:Araboto-Light;fill:#797979;fill-opacity:1;stroke-width:0.495225"
         id="path918" />
      <path
         d="m 63.991888,147.2013 h -6.393432 l -1.450855,3.94633 h -1.247735 l 5.329473,-14.08296 h 1.131666 l 5.329472,14.08296 h -1.238062 z m -6.025883,-1.01559 h 5.648661 l -2.82433,-7.67019 z"
         style="font-style:normal;font-variant:normal;font-weight:normal;font-stretch:normal;font-family:Araboto-Light;-inkscape-font-specification:Araboto-Light;fill:#797979;fill-opacity:1;stroke-width:0.495225"
         id="path920" />
      <path
         d="m 78.732558,146.75638 q -0.241809,2.22464 -1.59594,3.40467 -1.344458,1.18003 -3.588447,1.18003 -1.566923,0 -2.775968,-0.78347 -1.199373,-0.78346 -1.857094,-2.21497 -0.65772,-1.44118 -0.667393,-3.2886 v -1.82808 q 0,-1.87644 0.657721,-3.32729 0.657721,-1.45085 1.886111,-2.23432 1.238062,-0.79313 2.843675,-0.79313 2.263333,0 3.569102,1.22839 1.315441,1.21872 1.528233,3.37566 h -1.199373 q -0.444929,-3.58845 -3.897962,-3.58845 -1.915128,0 -3.056467,1.43151 -1.131667,1.43151 -1.131667,3.956 v 1.72168 q 0,2.43743 1.10265,3.88829 1.112321,1.45085 2.998432,1.45085 1.866766,0 2.814658,-0.88986 0.947892,-0.89953 1.170356,-2.68891 z"
         style="font-style:normal;font-variant:normal;font-weight:normal;font-stretch:normal;font-family:Araboto-Light;-inkscape-font-specification:Araboto-Light;fill:#797979;fill-opacity:1;stroke-width:0.495225"
         id="path922" />
      <path
         d="m 89.227072,147.2013 h -6.393433 l -1.450854,3.94633 H 80.13505 l 5.329472,-14.08296 h 1.131667 l 5.329472,14.08296 h -1.238063 z m -6.025883,-1.01559 h 5.64866 l -2.82433,-7.67019 z"
         style="font-style:normal;font-variant:normal;font-weight:normal;font-stretch:normal;font-family:Araboto-Light;-inkscape-font-specification:Araboto-Light;fill:#797979;fill-opacity:1;stroke-width:0.495225"
         id="path924" />
      <path
         d="m 93.99555,151.14763 v -14.08296 h 3.936652 q 1.731353,0 3.104828,0.79313 1.37348,0.78346 2.13759,2.25366 0.77379,1.4702 0.77379,3.34664 v 1.2961 q 0,1.88611 -0.76411,3.34663 -0.76412,1.46053 -2.15694,2.25366 -1.383149,0.79314 -3.182209,0.79314 z m 1.189701,-13.06736 v 12.06143 h 2.669572 q 2.224647,0 3.569107,-1.4702 1.34445,-1.47987 1.34445,-3.99468 v -1.23806 q 0,-2.42777 -1.32511,-3.88829 -1.32511,-1.46053 -3.491723,-1.4702 z"
         style="font-style:normal;font-variant:normal;font-weight:normal;font-stretch:normal;font-family:Araboto-Light;-inkscape-font-specification:Araboto-Light;fill:#797979;fill-opacity:1;stroke-width:0.495225"
         id="path926" />
      <path
         d="m 114.74277,144.39632 h -6.58688 v 5.74538 h 7.57346 v 1.00593 h -8.76316 v -14.08296 h 8.7148 v 1.0156 h -7.5251 v 5.31012 h 6.58688 z"
         style="font-style:normal;font-variant:normal;font-weight:normal;font-stretch:normal;font-family:Araboto-Light;-inkscape-font-specification:Araboto-Light;fill:#797979;fill-opacity:1;stroke-width:0.495225"
         id="path928" />
      <path
         d="m 119.81108,137.06467 5.19406,12.42898 5.21341,-12.42898 h 1.58626 v 14.08296 h -1.1897 v -6.13228 l 0.0967,-6.28704 -5.24242,12.41932 h -0.91888 l -5.22308,-12.37095 0.0967,6.19998 v 6.17097 h -1.1897 v -14.08296 z"
         style="font-style:normal;font-variant:normal;font-weight:normal;font-stretch:normal;font-family:Araboto-Light;-inkscape-font-specification:Araboto-Light;fill:#797979;fill-opacity:1;stroke-width:0.495225"
         id="path930" />
      <path
         d="m 139.50402,144.74452 4.3042,-7.67985 h 1.37348 l -5.08766,8.7825 v 5.30046 h -1.1897 v -5.30046 l -5.078,-8.7825 h 1.41217 z"
         style="font-style:normal;font-variant:normal;font-weight:normal;font-stretch:normal;font-family:Araboto-Light;-inkscape-font-specification:Araboto-Light;fill:#797979;fill-opacity:1;stroke-width:0.495225"
         id="path932" />
    </g>
    <g
       aria-label="RWL"
       transform="matrix(0.62923313,0,0,0.43986467,54.588445,-34.38492)"
       id="text857"
       style="font-style:normal;font-variant:normal;font-weight:normal;font-stretch:normal;font-size:104.812px;line-height:1.25;font-family:Araboto-Black;-inkscape-font-specification:Araboto-Black;fill:#005000;fill-opacity:1;stroke:none;stroke-width:2.62032">
      <path
         id="path859"
         style="font-style:normal;font-variant:normal;font-weight:normal;font-stretch:normal;font-family:Araboto-Black;-inkscape-font-specification:Araboto-Black;fill:#005000;fill-opacity:1;stroke-width:9.90357"
         d="m -383.1582,256.52734 v 210.29688 h 89.28515 v -57.95313 h 35.875 l 27.36524,57.95313 h 71.27929 c 8.84883,0 17.48741,-0.0359 25.9375,-0.10352 l -40.38867,-78.39648 c 31.20439,-10.55226 48.44951,-20.97223 50.68164,-60.63867 0,-73.53956 -77.21934,-70.86628 -127.47265,-71.15821 z m 290.257809,0 69.689453,206.94727 C 13.4422,461.45622 45.05688,458.59059 72.541016,455.04102 L 101.42969,362.31055 129.75,445.58594 c 3.45913,-0.71862 6.85194,-1.44767 10.14453,-2.19336 50.76015,-11.49594 82.17272,-26.07643 108.93555,-41.38281 L 296.42969,256.52734 H 228.54883 L 186.88281,391.04883 142.94922,256.52734 H 70.976562 L 32.537109,390.79492 -9.1289062,256.52734 Z m 430.621091,0 v 85.86133 c 33.03305,-26.77038 63.25244,-56.03322 92.82032,-82.85156 v -3.00977 z m 92.82032,9.46485 c -29.36166,26.76489 -59.58483,55.93487 -92.82032,82.5625 v 143.4414 H 547.90234 V 436.46094 H 430.54102 Z m -724.41407,38.40234 h 43.27735 c 45.82403,0 50.34177,46.75977 0,46.75977 h -43.27735 z m 540.50586,104.33008 c -26.0936,14.51428 -57.33083,28.38324 -105.68359,39.33398 -3.13607,0.71025 -6.36513,1.40432 -9.64844,2.08985 l 14.23047,41.84765 h 73.85742 z M 70.978516,460.06055 c -26.775675,3.39818 -57.363732,6.15316 -92.603516,8.11914 l 8.019531,23.8164 h 74.634766 z m -201.941406,11.42187 c -9.23168,0.0811 -18.682,0.125 -28.39063,0.125 h -69.01953 l 9.62696,20.38867 h 98.35156 z m -252.19531,0.125 v 20.38867 h 89.28515 v -20.38867 z"
         transform="scale(0.22121585,0.31645265)" />
    </g>
  </g>
</svg>
