<?xml version="1.0" encoding="UTF-8" standalone="no"?>
<svg
   width="243.95461"
   height="29.848038"
   version="1.1"
   viewBox="0 0 79.050333 9.6588147"
   id="svg2"
   sodipodi:docname="Ryanair.svg"
   inkscape:version="1.4 (86a8ad7, 2024-10-11)"
   xmlns:inkscape="http://www.inkscape.org/namespaces/inkscape"
   xmlns:sodipodi="http://sodipodi.sourceforge.net/DTD/sodipodi-0.dtd"
   xmlns="http://www.w3.org/2000/svg"
   xmlns:svg="http://www.w3.org/2000/svg">
  <defs
     id="defs2" />
  <sodipodi:namedview
     id="namedview2"
     pagecolor="#ffffff"
     bordercolor="#000000"
     borderopacity="0.25"
     inkscape:showpageshadow="2"
     inkscape:pageopacity="0.0"
     inkscape:pagecheckerboard="0"
     inkscape:deskcolor="#d1d1d1"
     inkscape:zoom="2.7083025"
     inkscape:cx="78.277814"
     inkscape:cy="3.8769672"
     inkscape:window-width="1920"
     inkscape:window-height="1001"
     inkscape:window-x="-9"
     inkscape:window-y="-9"
     inkscape:window-maximized="1"
     inkscape:current-layer="svg2" />
  <path
     d="M 75.47842,9.6647758 72.614464,5.9906693 h -1.076869 v 3.6741065 h -3.284623 v -9.67013103 h 4.886497 c 3.572766,0 5.858056,1.00834173 5.858056,3.01162543 0,1.3538673 -1.312875,2.1957037 -3.09935,2.637622 l 3.152156,4.0202433 h -3.572158 v 3.04e-4 z m -2.496089,-7.984932 h -1.444736 v 2.6941818 h 1.628369 c 1.681351,0 2.548097,-0.456478 2.548097,-1.3403147 5e-6,-0.8699486 -0.761318,-1.3538671 -2.731667,-1.3538671 z M 62.142239,-0.00685088 h 3.283104 V 9.6632798 H 62.142239 Z M 57.465439,9.6648063 56.59775,7.6482137 H 52.473421 L 51.60674,9.6648063 h -3.362767 l 4.702135,-9.67013101 h 3.205571 l 4.70244,9.67013101 z M 55.389693,4.8854458 C 55.074477,4.1393309 54.654566,3.0197922 54.522674,2.537125 54.391103,3.0340161 54.023524,4.0701343 53.681845,4.8573337 l -0.499149,1.1751527 h 2.706482 L 55.389723,4.8855069 Z M 43.710816,9.6648063 40.322103,5.3548963 C 39.848837,4.7471441 39.270754,3.9592731 38.929745,3.3935212 c 0.0261,0.5945051 0.05212,1.5886229 0.05212,2.1960393 V 9.6647453 H 35.986664 V -0.00447005 H 39.29693 L 42.528446,4.237067 c 0.446772,0.5793042 1.103729,1.4780364 1.444736,2.016928 -0.02609,-0.5945053 -0.104741,-1.6441759 -0.104741,-2.2525995 v -4.00559083 h 2.994898 V 9.6650197 h -3.152461 z m -12.32384,0 -0.866346,-2.0165926 h -4.124022 l -0.866682,2.0165926 h -3.362768 l 4.702441,-9.67013101 h 3.205267 L 34.776695,9.6648063 Z M 29.312818,4.8854458 C 28.997296,4.1393309 28.577386,3.0197922 28.446135,2.537125 28.314242,3.0340161 27.946985,4.0701343 27.605306,4.8573337 l -0.49915,1.1751527 h 2.705811 L 29.312818,4.8855069 Z M 18.971172,6.0170107 V 9.6639525 H 15.68746 V 6.0447873 l -4.729302,-6.05096667 h 3.62588 l 1.418547,1.96161927 c 0.604546,0.8421721 1.209033,1.7961212 1.366503,2.2519276 0.183629,-0.4558368 0.788145,-1.4509316 1.366169,-2.2519276 l 1.418545,-1.96161927 H 23.72657 L 18.971019,6.0167054 Z M 7.2245315,9.6648673 4.3609142,5.9907604 H 3.2837115 V 9.6648673 H 0 v -9.67013097 h 4.8864972 c 3.5727681,0 5.8586688,1.00834177 5.8586688,3.01162557 0,1.3538671 -1.3137895,2.1957035 -3.0999602,2.6376218 L 10.797361,9.664226 H 7.2245924 v 3.059e-4 z M 4.7287826,1.6799354 H 3.2837115 v 2.6941817 h 1.6287001 c 1.6816583,0 2.5480963,-0.4564779 2.5480963,-1.3403147 3.358e-4,-0.8699485 -0.7609795,-1.353867 -2.7316643,-1.353867 z"
     fill="#2b4779"
     id="path2"
     style="stroke-width:0.305234;fill:#073590;fill-opacity:1" />
</svg>
