<?xml version="1.0" encoding="UTF-8" ?>
<!DOCTYPE svg PUBLIC "-//W3C//DTD SVG 1.1//EN" "http://www.w3.org/Graphics/SVG/1.1/DTD/svg11.dtd">
<svg width="344pt" height="59pt" viewBox="0 0 344 59" version="1.1" xmlns="http://www.w3.org/2000/svg">
<path fill="#fdfa05" d=" M 0.00 0.00 L 344.00 0.00 L 344.00 59.00 L 0.00 59.00 L 0.00 0.00 Z" />
<path fill="#214198" d=" M 60.60 14.96 C 60.68 9.20 70.10 6.98 72.92 12.00 C 75.48 15.60 77.64 19.48 80.41 22.94 C 85.72 19.51 89.87 14.63 94.86 10.80 C 96.93 9.04 99.86 9.16 102.38 9.54 C 105.37 10.22 105.37 14.64 103.40 16.39 C 97.37 22.02 90.50 26.77 84.68 32.61 C 82.51 37.97 82.20 43.88 80.13 49.27 C 79.37 51.44 77.22 52.91 74.91 52.74 C 72.78 52.64 69.97 53.36 68.49 51.39 C 67.58 44.83 71.69 38.82 71.65 32.34 C 68.50 26.22 63.50 21.21 60.60 14.96 Z" />
<path fill="#214198" d=" M 121.64 9.73 C 125.77 8.72 132.14 8.32 133.49 13.54 C 136.18 25.01 138.80 36.51 141.28 48.03 C 140.91 53.41 134.48 53.12 130.54 52.53 C 129.55 49.86 128.67 47.16 127.85 44.44 C 121.00 44.49 114.16 44.41 107.31 44.48 C 104.85 46.97 103.37 50.41 100.39 52.37 C 97.37 52.88 92.56 53.83 91.40 49.99 C 91.36 48.22 92.57 46.81 93.45 45.39 C 99.77 36.74 106.05 28.05 112.32 19.35 C 114.94 15.75 117.39 11.59 121.64 9.73 Z" />
<path fill="#214198" d=" M 156.27 14.20 C 157.42 8.72 165.97 7.42 168.87 12.10 C 171.89 16.11 174.80 20.20 177.83 24.20 C 180.78 28.04 183.22 32.34 186.95 35.51 C 188.74 28.69 190.23 21.79 192.05 14.97 C 192.65 12.37 194.39 9.44 197.39 9.42 C 199.81 9.25 203.14 8.91 204.39 11.55 C 204.90 14.99 203.40 18.30 202.71 21.61 C 200.30 30.41 198.54 39.37 196.18 48.19 C 195.42 53.23 187.93 54.19 184.58 51.39 C 177.99 43.45 172.40 34.71 165.82 26.75 C 163.31 33.99 162.18 41.61 159.95 48.92 C 158.63 53.33 153.22 53.14 149.56 52.51 C 147.33 51.01 148.45 47.83 148.60 45.60 C 151.23 35.15 153.68 24.66 156.27 14.20 Z" />
<path fill="#214198" d=" M 226.28 16.30 C 228.46 13.14 231.31 10.10 235.20 9.19 C 238.97 7.86 244.23 9.41 245.30 13.64 C 247.42 21.98 248.99 30.46 251.13 38.81 C 251.95 42.62 253.17 46.52 252.53 50.45 C 250.27 53.74 245.85 52.56 242.49 52.58 C 241.25 50.03 240.45 47.30 239.90 44.52 C 232.90 44.44 225.91 44.35 218.92 44.57 C 216.30 47.71 214.41 52.27 209.92 53.03 C 207.40 53.71 202.63 52.64 203.50 49.17 C 203.97 46.31 206.24 44.19 207.83 41.89 C 213.96 33.35 220.22 24.90 226.28 16.30 Z" />
<path fill="#214198" d=" M 274.39 9.39 C 276.61 9.23 279.64 8.98 280.82 11.36 C 281.97 12.94 280.93 14.91 280.68 16.60 C 278.03 26.76 275.76 37.01 273.19 47.19 C 272.55 49.76 270.71 52.58 267.80 52.68 C 265.30 52.78 261.75 53.41 260.51 50.56 C 260.32 48.77 260.86 47.02 261.27 45.29 C 263.98 34.90 266.21 24.39 269.06 14.04 C 269.67 11.62 271.88 9.60 274.39 9.39 Z" />
<path fill="#214198" d=" M 18.77 12.86 C 20.78 8.65 26.23 9.79 30.01 9.63 C 37.52 10.08 45.86 8.12 52.58 12.43 C 57.93 15.93 57.33 24.02 53.35 28.34 C 49.95 32.39 44.57 33.57 39.77 35.10 C 42.72 39.98 48.12 42.82 50.67 47.99 C 48.83 53.61 40.37 54.73 37.08 49.93 C 33.15 45.28 29.72 40.15 25.10 36.12 C 23.90 40.84 23.37 45.82 21.25 50.24 C 18.99 53.84 14.18 52.70 10.65 52.43 C 9.41 47.66 11.22 42.96 12.33 38.38 C 14.49 29.88 16.03 21.19 18.77 12.86 Z" />
<path fill="#214198" d=" M 293.00 12.04 C 296.02 8.62 300.98 9.77 305.01 9.63 C 312.18 9.99 320.13 8.25 326.48 12.53 C 331.25 15.68 330.98 22.71 328.08 27.06 C 324.83 32.09 318.66 33.71 313.20 35.07 C 316.09 38.42 319.38 41.38 322.38 44.63 C 324.49 46.44 324.30 50.39 321.64 51.61 C 318.79 53.89 314.43 53.83 311.98 50.98 C 307.48 46.20 303.91 40.58 299.08 36.08 C 297.94 40.07 297.15 44.15 296.05 48.16 C 294.96 52.47 289.30 54.50 285.49 52.46 C 283.41 51.65 283.28 49.01 283.90 47.16 C 286.32 37.79 288.69 28.41 290.78 18.97 C 291.40 16.63 291.79 14.17 293.00 12.04 Z" />
<path fill="#fdfa05" d=" M 29.49 18.41 C 34.05 18.87 40.22 16.53 43.20 21.20 C 44.14 23.58 41.76 25.71 40.11 27.11 C 36.23 29.32 31.52 28.29 27.27 28.46 C 27.64 25.04 28.54 21.71 29.49 18.41 Z" />
<path fill="#fdfa05" d=" M 303.55 18.47 C 307.16 18.34 310.82 17.98 314.40 18.64 C 317.62 19.57 317.49 24.33 315.08 26.09 C 311.43 29.73 305.85 28.30 301.25 28.48 C 301.54 25.05 302.37 21.70 303.55 18.47 Z" />
<path fill="#fdfa05" d=" M 112.98 35.48 C 116.27 29.83 120.06 24.49 123.81 19.14 C 124.87 24.60 125.88 30.07 126.67 35.58 C 122.10 35.64 117.54 35.67 112.98 35.48 Z" />
<path fill="#fdfa05" d=" M 224.89 35.47 C 227.81 29.74 231.87 24.70 235.39 19.33 C 236.61 24.70 237.99 30.09 238.25 35.61 C 233.80 35.60 229.34 35.70 224.89 35.47 Z" />
</svg>
