<?xml version="1.0" encoding="UTF-8" standalone="no"?>
<svg
   xmlns:dc="http://purl.org/dc/elements/1.1/"
   xmlns:cc="http://creativecommons.org/ns#"
   xmlns:rdf="http://www.w3.org/1999/02/22-rdf-syntax-ns#"
   xmlns:svg="http://www.w3.org/2000/svg"
   xmlns="http://www.w3.org/2000/svg"
   xmlns:sodipodi="http://sodipodi.sourceforge.net/DTD/sodipodi-0.dtd"
   xmlns:inkscape="http://www.inkscape.org/namespaces/inkscape"
   width="293"
   height="300"
   viewBox="0 0 500 512"
   version="1.0"
   id="svg2"
   sodipodi:version="0.32"
   inkscape:version="0.46"
   sodipodi:docname="S7_Airlines_Logo.svg"
   inkscape:output_extension="org.inkscape.output.svg.inkscape">
  <metadata
     id="metadata31">
    <rdf:RDF>
      <cc:Work
         rdf:about="">
        <dc:format>image/svg+xml</dc:format>
        <dc:type
           rdf:resource="http://purl.org/dc/dcmitype/StillImage" />
      </cc:Work>
    </rdf:RDF>
  </metadata>
  <defs
     id="defs29">
    <inkscape:perspective
       sodipodi:type="inkscape:persp3d"
       inkscape:vp_x="0 : 320 : 1"
       inkscape:vp_y="0 : 1000 : 0"
       inkscape:vp_z="625 : 320 : 1"
       inkscape:persp3d-origin="312.5 : 213.33333 : 1"
       id="perspective33" />
  </defs>
  <sodipodi:namedview
     inkscape:window-height="669"
     inkscape:window-width="640"
     inkscape:pageshadow="2"
     inkscape:pageopacity="0.0"
     guidetolerance="10.0"
     gridtolerance="10.0"
     objecttolerance="10.0"
     borderopacity="1.0"
     bordercolor="#666666"
     pagecolor="#ffffff"
     id="base"
     showgrid="false"
     inkscape:zoom="0.721875"
     inkscape:cx="312.5"
     inkscape:cy="320"
     inkscape:window-x="23"
     inkscape:window-y="51"
     inkscape:current-layer="svg2" />
  <g
     id="color_c0172bff">
    <path
       d="M 247.33,0 L 252.57,0 C 260.72,0.26 268.88,0.83 276.96,2.02 C 305.72,6.11 333.29,17.91 356.15,35.82 C 382.44,56.45 404.23,83.56 415.84,115.1 C 427.73,147.33 429.55,182.94 422.73,216.5 C 416.34,247.68 400.36,276.52 378.4,299.44 C 355.71,323.6 326.48,341.99 294.14,349.88 C 258.1,358.66 219.24,356.96 184.58,343.43 C 155.39,332.03 129.12,312.97 109.67,288.35 C 92.59,266.61 80.27,241.01 74.7,213.89 C 66.47,173.79 72.14,130.79 91.63,94.69 C 106.64,65.88 129.71,41.27 157.77,24.84 C 184.71,8.78 215.96,0.15 247.33,0 M 224.3,82.48 C 209.13,83.06 193.65,83.6 179.07,88.23 C 167.77,92.32 156.95,98.89 149.75,108.71 C 142.11,119 139.41,132.35 140.69,144.95 C 142.11,157.61 149.54,168.75 158.73,177.21 C 169.62,187.52 183.32,193.99 195.41,202.68 C 200.51,206.4 206.12,210.16 208.84,216.1 C 212.08,222.92 210.12,231.52 204.7,236.66 C 196.66,244.65 184.9,247.16 173.94,247.54 C 163.31,247.72 152.61,247.22 142.13,245.3 C 139.06,244.82 136.07,243.68 132.95,243.72 C 130.28,244.28 129.49,247.23 128.65,249.44 C 126.87,254.95 124.74,260.36 123.08,265.91 C 122.01,268.77 123.2,272.52 126.34,273.37 C 136.23,276.44 146.66,277.22 156.95,277.73 C 169.67,278.24 182.59,278.19 195.02,275.1 C 210.43,271.48 224.88,263.26 235.14,251.11 C 244.95,239.7 249.59,223.79 246.57,208.96 C 243.94,196.73 235.9,186.47 226.71,178.33 C 214.08,166.88 198.14,159.96 185.4,148.64 C 177.51,142.37 176.84,129.07 183.95,121.97 C 188.88,116.83 195.95,114.38 202.89,113.55 C 216.51,111.94 230.26,112.29 243.95,112.18 C 247.37,112.35 250.92,110.78 252.47,107.61 C 255.61,101.62 257.47,95.08 259.89,88.79 C 260.43,87.04 261.48,84.67 259.76,83.22 C 258.06,82.1 255.93,82.4 254.01,82.31 C 244.11,82.4 234.2,82.21 224.3,82.48 M 280.43,87.42 C 278.25,92.67 276.51,98.09 274.42,103.37 C 273.7,105.53 272.58,107.77 273.01,110.11 C 273.4,111.91 275.44,112.21 276.98,112.17 C 293.13,112.12 309.29,111.94 325.44,111.93 C 310.85,144.7 296.7,177.68 281.22,210.04 C 280.18,211.95 280.09,215.55 282.96,215.71 C 290.64,216.03 298.35,215.88 306.04,215.79 C 309.87,215.76 313.19,213.09 314.53,209.58 C 332.4,169.07 350.15,128.5 368.05,87.99 C 368.52,86.76 369.11,85.48 368.94,84.13 C 368.05,82.27 365.74,82.4 364.02,82.33 C 339.01,82.34 313.99,82.33 288.98,82.33 C 285.41,82.09 281.75,84.01 280.43,87.42 z"
       id="path5"
       style="opacity:1;fill:#c0172b" />
    <path
       d="M 28.32,422.41 C 33.43,420.5 39.35,420.53 44.41,422.6 C 48.8,424.38 51.53,428.67 52.6,433.13 C 58.95,457.26 65.19,481.42 71.57,505.54 C 71.84,507.13 72.69,508.93 71.55,510.39 C 66.52,510.89 61.41,510.85 56.38,510.43 C 53.46,502.47 52.24,493.92 49.95,485.74 C 40.79,485.71 31.64,485.76 22.49,485.71 C 20.52,493.04 18.86,500.46 16.89,507.79 C 16.47,508.77 16.28,510.49 14.86,510.48 C 9.92,510.92 4.92,510.81 0,510.22 L 0,508.22 C 6.55,483.26 13.05,458.29 19.59,433.33 C 20.73,428.65 23.66,424.15 28.32,422.41 M 33.93,437.19 C 30.94,448.89 28.22,460.67 25.33,472.4 C 32.34,472.4 39.35,472.4 46.36,472.4 C 43.39,460.36 40.71,448.24 37.54,436.26 C 37.03,433.7 33.93,435.17 33.93,437.19 z"
       id="path7"
       style="opacity:1;fill:#c0172b" />
    <path
       d="M 125.99,422.26 C 137.5,422.03 149.25,419.5 160.58,422.6 C 167.87,424.34 175.11,428.51 178.4,435.52 C 181.68,442.52 181.62,450.72 179.78,458.1 C 177.95,465.3 172.05,470.69 165.31,473.37 C 171.46,485.41 178.29,497.11 184.21,509.25 C 184.05,509.56 183.72,510.17 183.55,510.48 C 178.42,510.83 173.25,510.73 168.11,510.57 C 166.81,510.65 166.37,509.18 165.78,508.34 C 160.06,497.7 154.27,487.1 148.52,476.48 C 144.47,476.25 140.43,476.01 136.39,475.76 C 136.26,486.51 136.47,497.27 136.3,508.02 C 136.61,511.57 132.24,510.48 130.05,510.7 C 126.73,510.36 122.98,511.46 119.94,509.88 C 119.31,506.95 119.64,503.93 119.58,500.96 C 119.67,475.98 119.45,450.99 119.69,426.02 C 119.58,422.7 123.54,422.33 125.99,422.26 M 136.35,435.56 C 136.35,444.49 136.35,453.41 136.36,462.34 C 143.3,462.89 150.51,463.6 157.23,461.31 C 167.36,458.02 168,440.9 157.99,437.06 C 151.18,433.94 143.55,435.7 136.35,435.56 z"
       id="path9"
       style="opacity:1;fill:#c0172b" />
    <path
       d="M 385.87,425.76 C 393.18,420.86 402.47,420.61 410.95,421.47 C 416.94,422.12 423.03,422.01 428.97,423.09 C 430.59,426.24 429.61,430.28 429.59,433.75 C 429.43,434.02 429.12,434.57 428.96,434.84 C 419.65,435.69 410.23,434.61 400.91,435.38 C 397.47,435.69 394.59,438.5 394.08,441.9 C 393.31,447.31 393.87,452.81 393.71,458.27 C 404.16,458.29 414.61,458.23 425.06,458.28 C 426.21,458.34 428.25,458.26 428.15,459.99 C 428.43,463.32 428.44,466.7 428.14,470.04 C 428.15,471.69 426.24,471.65 425.09,471.71 C 414.63,471.78 404.17,471.7 393.71,471.73 C 393.84,477.82 393.4,483.93 393.94,489.99 C 394.23,494.11 397.9,497.47 402.04,497.39 C 410.36,497.66 418.7,497.3 427.03,497.52 C 428.04,497.58 429.55,497.63 429.61,499.01 C 429.91,502.23 429.95,505.51 429.53,508.72 C 427.88,510.46 425.18,509.94 423.02,510.28 C 413.63,510.58 404.13,512.66 394.82,510.55 C 389.43,509.41 384.14,506.67 381.03,501.99 C 377.85,497.34 377.11,491.54 377.17,486.04 C 377.22,472.01 377.11,457.98 377.22,443.95 C 377.32,437.05 379.91,429.71 385.87,425.76 z"
       id="path11"
       style="opacity:1;fill:#c0172b" />
    <path
       d="M 462.6,421.74 C 471.71,420.46 481,421.03 490.09,422.23 C 492.37,422.72 494.96,422.69 496.91,424.1 C 497.46,428.05 497.5,432.15 496.84,436.09 C 487.01,437.15 476.96,434.42 467.06,435.49 C 463.55,435.94 459.72,438.08 459.17,441.89 C 458.3,445.16 460.42,448.18 462.77,450.2 C 472.23,458.13 485.17,461.11 493.53,470.47 C 502.88,480.74 501.75,500.16 488.99,507.19 C 478.26,512.87 465.54,511.82 453.88,510.66 C 450.93,509.98 447.25,510.31 445.02,508.02 C 444.68,504.4 444.59,500.7 445.11,497.11 C 445.37,496.88 445.88,496.42 446.13,496.2 C 455.94,495.65 465.92,498.89 475.6,496.53 C 481.87,495.02 484.61,486.39 480.35,481.57 C 475.8,476.23 469.11,473.48 463.39,469.62 C 456.79,465.46 449.16,461.85 445.27,454.69 C 441.51,447.85 441.54,439.05 445.14,432.16 C 448.62,425.85 455.78,422.78 462.6,421.74 z"
       id="path13"
       style="opacity:1;fill:#c0172b" />
    <path
       d="M 84.55,422.61 C 89.24,421.81 94.18,422.12 98.94,422.43 C 100.7,422.7 99.92,424.82 100.18,426.05 C 100.17,453.03 100.18,480.01 100.18,506.98 C 100.05,508.22 100.38,510.39 98.57,510.49 C 94.22,510.83 89.81,510.78 85.46,510.52 C 83.59,510.49 83.79,508.27 83.71,506.99 C 83.69,480.32 83.74,453.66 83.69,426.99 C 84.03,425.64 83.08,423.31 84.55,422.61 z"
       id="path15"
       style="opacity:1;fill:#c0172b" />
    <path
       d="M 197.33,422.39 C 201.85,422.02 206.44,422.1 210.97,422.34 C 212.95,422.24 212.75,424.61 212.83,425.96 C 212.82,445.96 212.83,465.97 212.81,485.97 C 212.84,489.04 212.96,492.48 215.16,494.89 C 216.85,496.83 219.53,497.4 222,497.45 C 229.01,497.56 236.02,497.39 243.04,497.47 C 244.13,497.57 246.15,497.34 246.12,499.02 C 246.39,502.26 246.61,505.62 245.92,508.83 C 243.45,510.78 240,510.5 237.04,511.01 C 228.22,511.56 219.08,512.39 210.52,509.67 C 205.63,508.11 201.14,504.88 198.73,500.27 C 196.18,495.63 195.79,490.2 195.87,485.01 C 195.9,465.36 195.87,445.72 195.88,426.07 C 196.08,424.78 195.52,422.66 197.33,422.39 z"
       id="path17"
       style="opacity:1;fill:#c0172b" />
    <path
       d="M 257.32,422.42 C 261.83,421.99 266.4,422.11 270.93,422.34 C 272.85,422.3 272.61,424.66 272.66,425.95 C 272.63,452.96 272.66,479.97 272.64,506.98 C 272.56,508.24 272.74,510.4 270.97,510.49 C 266.68,510.82 262.34,510.77 258.05,510.53 C 256.18,510.56 256.13,508.45 256.18,507.1 C 256.17,480.08 256.2,453.05 256.16,426.02 C 256.34,424.79 255.74,422.92 257.32,422.42 z"
       id="path19"
       style="opacity:1;fill:#c0172b" />
    <path
       d="M 292.25,426.91 C 292.12,425.04 292.94,422.74 295.05,422.48 C 300.3,421.97 305.63,422.11 310.91,422.35 C 313.53,422.53 314.87,425.04 315.82,427.17 C 324.36,446.17 333,465.12 341.54,484.12 C 342.24,485.67 343.09,487.14 344.05,488.55 C 344.81,467.07 344.04,445.54 344.44,424.04 C 344.33,422.11 346.65,422.24 347.96,422.2 C 351.59,422.47 355.65,421.38 359.02,422.97 C 359.54,449.63 359.06,476.32 359.26,502.99 C 359.18,505.56 359.59,509.4 356.48,510.35 C 351.67,510.98 346.76,510.66 341.92,510.56 C 338.94,510.56 336.09,508.83 334.97,506.03 C 326.44,487.5 317.96,468.95 309.49,450.39 C 308.89,449.14 308.1,447.99 307.31,446.86 C 306.81,467.25 307.35,487.67 307.04,508.06 C 307.22,509.42 306.37,510.67 304.91,510.57 C 301.12,510.72 297.26,510.92 293.5,510.38 C 291.79,509.66 292.43,507.52 292.22,506.08 C 292.27,479.69 292.2,453.3 292.25,426.91 z"
       id="path21"
       style="opacity:1;fill:#c0172b" />
  </g>
  <g
     id="color_ffffffff">
    <path
       d="M 224.3,82.48 C 234.2,82.21 244.11,82.4 254.01,82.31 C 255.93,82.4 258.06,82.1 259.76,83.22 C 261.48,84.67 260.43,87.04 259.89,88.79 C 257.47,95.08 255.61,101.62 252.47,107.61 C 250.92,110.78 247.37,112.35 243.95,112.18 C 230.26,112.29 216.51,111.94 202.89,113.55 C 195.95,114.38 188.88,116.83 183.95,121.97 C 176.84,129.07 177.51,142.37 185.4,148.64 C 198.14,159.96 214.08,166.88 226.71,178.33 C 235.9,186.47 243.94,196.73 246.57,208.96 C 249.59,223.79 244.95,239.7 235.14,251.11 C 224.88,263.26 210.43,271.48 195.02,275.1 C 182.59,278.19 169.67,278.24 156.95,277.73 C 146.66,277.22 136.23,276.44 126.34,273.37 C 123.2,272.52 122.01,268.77 123.08,265.91 C 124.74,260.36 126.87,254.95 128.65,249.44 C 129.49,247.23 130.28,244.28 132.95,243.72 C 136.07,243.68 139.06,244.82 142.13,245.3 C 152.61,247.22 163.31,247.72 173.94,247.54 C 184.9,247.16 196.66,244.65 204.7,236.66 C 210.12,231.52 212.08,222.92 208.84,216.1 C 206.12,210.16 200.51,206.4 195.41,202.68 C 183.32,193.99 169.62,187.52 158.73,177.21 C 149.54,168.75 142.11,157.61 140.69,144.95 C 139.41,132.35 142.11,119 149.75,108.71 C 156.95,98.89 167.77,92.32 179.07,88.23 C 193.65,83.6 209.13,83.06 224.3,82.48 z"
       id="path24"
       style="opacity:1;fill:#ffffff" />
    <path
       d="M 280.43,87.42 C 281.75,84.01 285.41,82.09 288.98,82.33 C 313.99,82.33 339.01,82.34 364.02,82.33 C 365.74,82.4 368.05,82.27 368.94,84.13 C 369.11,85.48 368.52,86.76 368.05,87.99 C 350.15,128.5 332.4,169.07 314.53,209.58 C 313.19,213.09 309.87,215.76 306.04,215.79 C 298.35,215.88 290.64,216.03 282.96,215.71 C 280.09,215.55 280.18,211.95 281.22,210.04 C 296.7,177.68 310.85,144.7 325.44,111.93 C 309.29,111.94 293.13,112.12 276.98,112.17 C 275.44,112.21 273.4,111.91 273.01,110.11 C 272.58,107.77 273.7,105.53 274.42,103.37 C 276.51,98.09 278.25,92.67 280.43,87.42 z"
       id="path26"
       style="opacity:1;fill:#ffffff" />
  </g>
</svg>
