<?xml version="1.0" encoding="UTF-8" standalone="no"?>
<!-- Created with Inkscape (http://www.inkscape.org/) -->
<svg
   xmlns:svg="http://www.w3.org/2000/svg"
   xmlns="http://www.w3.org/2000/svg"
   version="1.0"
   width="814.96063"
   height="172.55905"
   id="svg8461">
  <defs
     id="defs8463"><clipPath
   id="clp77">
<path
   d="M 164.4,503.55 L 253.67,503.55 L 253.67,518.03 L 164.4,518.03 L 164.4,503.55 z "
   id="path2388" />

</clipPath>
<clipPath
   id="clp19">
<path
   d="M 49.76,503.14 L 127.27,503.14 L 127.27,518.49 L 49.76,518.49 L 49.76,503.14 z "
   id="path254" />

</clipPath>
<clipPath
   id="clp18">
<path
   d="M 51.62,538.86 L 125.35,538.86 L 125.35,578.98 L 51.62,578.98 L 51.62,538.86 z "
   id="path224" />

</clipPath>
<clipPath
   id="clp73">
<path
   d="M 183.38,592.14 L 234.69,592.14 L 234.69,622.09 L 183.38,622.09 L 183.38,592.14 z "
   id="path2344" />

</clipPath>
<clipPath
   id="clp74">
<path
   d="M 183.38,592.14 L 234.69,592.14 L 234.69,622.09 L 183.38,622.09 L 183.38,592.14 z "
   id="path2364" />

</clipPath>
<clipPath
   id="clp70">
<path
   d="M 178.54,632.58 L 239.43,632.58 L 239.43,678.21 L 178.54,678.21 L 178.54,632.58 z "
   id="path2292" />

</clipPath>
<clipPath
   id="clp71">
<path
   d="M 178.54,632.58 L 239.43,632.58 L 239.43,678.21 L 178.54,678.21 L 178.54,632.58 z "
   id="path2316" />

</clipPath>
<clipPath
   id="clp72">
<path
   d="M 178.54,632.58 L 239.43,632.58 L 239.43,678.21 L 178.54,678.21 L 178.54,632.58 z "
   id="path2328" />

</clipPath>
<clipPath
   id="clp17">
<path
   d="M 45.19,647.41 L 131.79,647.41 L 131.79,663.18 L 45.19,663.18 L 45.19,647.41 z "
   id="path162" />

</clipPath>
<clipPath
   id="clp4">
<path
   d="M 45.29,692.27 L 131.66,692.27 L 131.66,714.87 L 45.29,714.87 L 45.29,692.27 z "
   id="path26" />

</clipPath>
<clipPath
   id="clp5">
<path
   d="M 45.29,692.27 L 131.66,692.27 L 131.66,714.87 L 45.29,714.87 L 45.29,692.27 z "
   id="path42" />

</clipPath>
<clipPath
   id="clp6">
<path
   d="M 45.29,692.27 L 131.66,692.27 L 131.66,714.87 L 45.29,714.87 L 45.29,692.27 z "
   id="path52" />

</clipPath>
<clipPath
   id="clp7">
<path
   d="M 45.29,692.27 L 131.66,692.27 L 131.66,714.87 L 45.29,714.87 L 45.29,692.27 z "
   id="path62" />

</clipPath>
<clipPath
   id="clp8">
<path
   d="M 45.29,692.27 L 131.66,692.27 L 131.66,714.87 L 45.29,714.87 L 45.29,692.27 z "
   id="path72" />

</clipPath>
<clipPath
   id="clp9">
<path
   d="M 45.29,692.27 L 131.66,692.27 L 131.66,714.87 L 45.29,714.87 L 45.29,692.27 z "
   id="path82" />

</clipPath>
<clipPath
   id="clp10">
<path
   d="M 45.29,692.27 L 131.66,692.27 L 131.66,714.87 L 45.29,714.87 L 45.29,692.27 z "
   id="path92" />

</clipPath>
<clipPath
   id="clp11">
<path
   d="M 45.29,692.27 L 131.66,692.27 L 131.66,714.87 L 45.29,714.87 L 45.29,692.27 z "
   id="path102" />

</clipPath>
<clipPath
   id="clp12">
<path
   d="M 45.29,692.27 L 131.66,692.27 L 131.66,714.87 L 45.29,714.87 L 45.29,692.27 z "
   id="path112" />

</clipPath>
<clipPath
   id="clp13">
<path
   d="M 45.29,692.27 L 131.66,692.27 L 131.66,714.87 L 45.29,714.87 L 45.29,692.27 z "
   id="path122" />

</clipPath>
<clipPath
   id="clp14">
<path
   d="M 45.29,692.27 L 131.66,692.27 L 131.66,714.87 L 45.29,714.87 L 45.29,692.27 z "
   id="path132" />

</clipPath>
<clipPath
   id="clp15">
<path
   d="M 45.29,692.27 L 131.66,692.27 L 131.66,714.87 L 45.29,714.87 L 45.29,692.27 z "
   id="path142" />

</clipPath>
<clipPath
   id="clp16">
<path
   d="M 45.29,692.27 L 131.66,692.27 L 131.66,714.87 L 45.29,714.87 L 45.29,692.27 z "
   id="path152" />

</clipPath>

<clipPath
   id="clipPath6577">
<path
   d="M 45.29,692.27 L 131.66,692.27 L 131.66,714.87 L 45.29,714.87 L 45.29,692.27 z "
   id="path6579" />

</clipPath>



<clipPath
   id="clipPath6588">
<path
   d="M 45.29,692.27 L 131.66,692.27 L 131.66,714.87 L 45.29,714.87 L 45.29,692.27 z "
   id="path6590" />

</clipPath>



<clipPath
   id="clipPath6596">
<path
   d="M 45.29,692.27 L 131.66,692.27 L 131.66,714.87 L 45.29,714.87 L 45.29,692.27 z "
   id="path6598" />

</clipPath>



<clipPath
   id="clipPath6604">
<path
   d="M 45.29,692.27 L 131.66,692.27 L 131.66,714.87 L 45.29,714.87 L 45.29,692.27 z "
   id="path6606" />

</clipPath>



<clipPath
   id="clipPath6612">
<path
   d="M 45.29,692.27 L 131.66,692.27 L 131.66,714.87 L 45.29,714.87 L 45.29,692.27 z "
   id="path6614" />

</clipPath>



<clipPath
   id="clipPath6620">
<path
   d="M 45.29,692.27 L 131.66,692.27 L 131.66,714.87 L 45.29,714.87 L 45.29,692.27 z "
   id="path6622" />

</clipPath>



<clipPath
   id="clipPath6628">
<path
   d="M 45.29,692.27 L 131.66,692.27 L 131.66,714.87 L 45.29,714.87 L 45.29,692.27 z "
   id="path6630" />

</clipPath>



<clipPath
   id="clipPath6636">
<path
   d="M 45.29,692.27 L 131.66,692.27 L 131.66,714.87 L 45.29,714.87 L 45.29,692.27 z "
   id="path6638" />

</clipPath>



<clipPath
   id="clipPath6644">
<path
   d="M 45.29,692.27 L 131.66,692.27 L 131.66,714.87 L 45.29,714.87 L 45.29,692.27 z "
   id="path6646" />

</clipPath>



<clipPath
   id="clipPath6652">
<path
   d="M 45.29,692.27 L 131.66,692.27 L 131.66,714.87 L 45.29,714.87 L 45.29,692.27 z "
   id="path6654" />

</clipPath>



<clipPath
   id="clipPath6660">
<path
   d="M 45.29,692.27 L 131.66,692.27 L 131.66,714.87 L 45.29,714.87 L 45.29,692.27 z "
   id="path6662" />

</clipPath>



<clipPath
   id="clipPath6668">
<path
   d="M 45.29,692.27 L 131.66,692.27 L 131.66,714.87 L 45.29,714.87 L 45.29,692.27 z "
   id="path6670" />

</clipPath>



<clipPath
   id="clipPath6676">
<path
   d="M 45.29,692.27 L 131.66,692.27 L 131.66,714.87 L 45.29,714.87 L 45.29,692.27 z "
   id="path6678" />

</clipPath>

































<clipPath
   id="clipPath6684">
<path
   d="M 45.19,647.41 L 131.79,647.41 L 131.79,663.18 L 45.19,663.18 L 45.19,647.41 z "
   id="path6686" />

</clipPath>





<clipPath
   id="clipPath7915">
<path
   d="M 178.54,632.58 L 239.43,632.58 L 239.43,678.21 L 178.54,678.21 L 178.54,632.58 z "
   id="path7917" />

</clipPath>



<clipPath
   id="clipPath7930">
<path
   d="M 178.54,632.58 L 239.43,632.58 L 239.43,678.21 L 178.54,678.21 L 178.54,632.58 z "
   id="path7932" />

</clipPath>



<clipPath
   id="clipPath7939">
<path
   d="M 178.54,632.58 L 239.43,632.58 L 239.43,678.21 L 178.54,678.21 L 178.54,632.58 z "
   id="path7941" />

</clipPath>












<clipPath
   id="clipPath6718">
<path
   d="M 51.62,538.86 L 125.35,538.86 L 125.35,578.98 L 51.62,578.98 L 51.62,538.86 z "
   id="path6720" />

</clipPath>








<clipPath
   id="clipPath7984">
<path
   d="M 164.4,503.55 L 253.67,503.55 L 253.67,518.03 L 164.4,518.03 L 164.4,503.55 z "
   id="path7986" />

</clipPath>




</defs>
  <g
     transform="translate(-1163.1674,631.40795)"
     id="layer1">
    <g
       transform="translate(17.716516,17.698071)"
       id="g10202">
      <path
         d="M 1163.5213,-524.68635 C 1163.5213,-524.68635 1177.3265,-519.19984 1201.6618,-519.19984 C 1223.254,-519.19984 1221.9263,-525.39427 1221.9263,-527.07564 C 1221.9263,-544.15463 1163.1674,-527.3411 1163.1674,-569.10943 C 1163.1674,-589.10863 1181.4857,-601.14357 1208.5641,-601.14357 C 1226.7932,-601.14357 1242.4562,-597.4269 1242.4562,-597.4269 L 1242.4562,-571.23326 C 1242.4562,-571.23326 1224.4925,-577.16223 1209.8917,-577.16223 C 1195.2903,-577.16223 1192.4587,-573.0031 1192.4587,-569.90588 C 1192.4587,-554.15427 1251.66,-569.72888 1251.66,-530.17286 C 1251.66,-497.51925 1224.7579,-494.77596 1200.688,-494.77596 C 1179.7157,-494.77596 1163.5213,-498.22718 1163.5213,-498.22718 L 1163.5213,-524.68635"
         style="font-size:18.17300034px;font-weight:bold;letter-spacing:-1.79190004;word-spacing:0;fill:#2f3789;fill-rule:nonzero;stroke:none;font-family:Arial"
         id="path2462" />
      <path
         d="M 1573.1522,-496.01488 L 1573.1522,-596.80751 L 1603.1505,-596.80751 L 1603.1505,-590.08209 C 1603.1505,-590.08209 1615.2743,-599.01981 1633.0611,-599.01981 C 1650.9364,-599.01981 1670.1394,-587.1618 1670.1394,-565.39275 C 1670.1394,-543.71217 1670.1394,-496.01488 1670.1394,-496.01488 L 1640.0519,-496.01488 C 1640.0519,-496.01488 1640.0519,-555.12765 1640.0519,-560.7027 C 1640.0519,-566.18921 1635.1849,-573.26856 1625.185,-573.26856 C 1613.1504,-573.26856 1603.1505,-563.18046 1603.1505,-563.18046 L 1603.1505,-496.01488 L 1573.1522,-496.01488"
         style="font-size:18.17300034px;font-weight:bold;letter-spacing:-1.79190004;word-spacing:0;fill:#2f3789;fill-rule:nonzero;stroke:none;font-family:Arial"
         id="path2464" />
      <path
         d="M 1267.4114,-569.72888 L 1267.4114,-595.12614 C 1267.4114,-595.12614 1283.3399,-600.78965 1305.4628,-600.78965 C 1330.595,-600.78965 1349.6203,-590.70154 1349.6203,-548.49076 C 1349.6203,-506.27998 1348.9126,-498.05018 1348.9126,-498.05018 C 1348.9126,-498.05018 1328.6481,-494.77596 1308.7374,-494.77596 C 1288.8267,-494.77596 1258.0315,-498.49264 1258.0315,-528.22602 C 1258.0315,-557.95941 1291.6583,-562.91499 1308.2066,-562.91499 C 1317.0558,-562.91499 1321.2143,-561.58761 1321.2143,-561.58761 C 1321.2143,-561.58761 1324.4889,-576.54277 1301.0382,-576.54277 C 1277.4991,-576.54277 1267.4114,-569.72888 1267.4114,-569.72888 z M 1321.2143,-518.13792 C 1321.2143,-518.13792 1285.2868,-511.94349 1285.1098,-529.46494 C 1284.9329,-546.10147 1321.2143,-540.26096 1321.2143,-540.26096 L 1321.2143,-518.13792"
         style="font-size:18.17300034px;font-weight:bold;letter-spacing:-1.79190004;word-spacing:0;fill:#2f3789;fill-rule:evenodd;stroke:none;font-family:Arial"
         id="path2466" />
      <path
         d="M 1554.8338,-524.06689 C 1554.8338,-524.06689 1540.8523,-518.40338 1527.667,-518.40338 C 1497.7564,-518.40338 1494.0396,-537.16374 1494.0396,-537.16374 L 1562.4445,-537.16374 C 1563.7715,-565.30429 1553.5069,-599.37374 1515.7202,-599.37374 C 1478.465,-599.37374 1465.3682,-569.28642 1465.3682,-546.72092 C 1465.3682,-512.47441 1489.8804,-494.77596 1522.2686,-494.77596 C 1540.5869,-494.77596 1554.8338,-501.23593 1554.8338,-501.23593 L 1554.8338,-524.06689 z M 1492.978,-558.3134 C 1492.978,-558.3134 1498.5526,-576.71977 1514.8356,-576.71977 C 1535.5424,-576.71977 1536.4277,-558.49033 1536.4277,-558.49033 L 1492.978,-558.3134"
         style="font-size:18.17300034px;font-weight:bold;letter-spacing:-1.79190004;word-spacing:0;fill:#2f3789;fill-rule:evenodd;stroke:none;font-family:Arial"
         id="path2468" />
      <path
         d="M 1361.5671,-497.16526 C 1361.5671,-497.16526 1377.0532,-494.24504 1396.0792,-494.24504 C 1415.1046,-494.24504 1458.9967,-497.51925 1458.9967,-548.13677 C 1458.9967,-598.84281 1411.2114,-599.6392 1409.8838,-599.6392 C 1397.4062,-599.6392 1389.9731,-596.18805 1389.9731,-596.18805 L 1389.9731,-630.52303 L 1361.5671,-630.52303 L 1361.5671,-497.16526 z M 1389.9731,-520.26175 L 1389.9731,-570.17134 C 1389.9731,-570.17134 1396.3446,-573.44556 1405.9015,-573.44556 C 1415.37,-573.44556 1430.8567,-568.22451 1430.8567,-547.78284 C 1430.8567,-527.25264 1418.2022,-519.02284 1402.4507,-519.02284 C 1392.8931,-519.02284 1389.9731,-520.26175 1389.9731,-520.26175"
         style="font-size:18.17300034px;font-weight:bold;letter-spacing:-1.79190004;word-spacing:0;fill:#2f3789;fill-rule:evenodd;stroke:none;font-family:Arial"
         id="path2470" />
      <path
         d="M 1688.1916,-569.72888 L 1688.1916,-595.12614 C 1688.1916,-595.12614 1704.12,-600.78965 1726.243,-600.78965 C 1751.4636,-600.78965 1770.4896,-590.70154 1770.4896,-548.49076 C 1770.4896,-506.27998 1769.6928,-498.05018 1769.6928,-498.05018 C 1769.6928,-498.05018 1749.5167,-494.77596 1729.5176,-494.77596 C 1709.6069,-494.77596 1678.9001,-498.49264 1678.9001,-528.22602 C 1678.9001,-557.95941 1712.4384,-562.91499 1728.9868,-562.91499 C 1737.9244,-562.91499 1742.0836,-561.58761 1742.0836,-561.58761 C 1742.0836,-561.58761 1745.3575,-576.54277 1721.8184,-576.54277 C 1698.3685,-576.54277 1688.1916,-569.72888 1688.1916,-569.72888 z M 1742.0836,-518.13792 C 1742.0836,-518.13792 1706.0669,-511.94349 1705.89,-529.46494 C 1705.8015,-546.10147 1742.0836,-540.26096 1742.0836,-540.26096 L 1742.0836,-518.13792"
         style="font-size:18.17300034px;font-weight:bold;letter-spacing:-1.79190004;word-spacing:0;fill:#2f3789;fill-rule:evenodd;stroke:none;font-family:Arial"
         id="path2472" />
      <path
         d="M 1889.6883,-629.63804 C 1889.6883,-629.63804 1872.8746,-612.82458 1872.8746,-591.23247 C 1872.8746,-569.64035 1898.0952,-564.86183 1898.0952,-542.11933 C 1898.0952,-519.4653 1866.1492,-495.57242 1866.1492,-495.57242 C 1868.893,-495.30696 1871.7245,-495.21842 1874.5561,-495.21842 C 1912.1651,-495.21842 1942.695,-525.6598 1942.695,-563.35745 C 1942.695,-595.65706 1920.1297,-622.73569 1889.9537,-629.72658 L 1889.6883,-629.63804"
         style="font-size:18.17300034px;font-weight:bold;letter-spacing:-1.79190004;word-spacing:0;fill:#2f3789;fill-rule:nonzero;stroke:none;font-family:Arial"
         id="path2474" />
      <path
         d="M 1859.4238,-496.7228 C 1859.4238,-496.7228 1876.2376,-513.53633 1876.2376,-535.12844 C 1876.2376,-556.72049 1851.017,-561.49908 1851.017,-584.24158 C 1851.017,-606.89561 1882.9629,-630.78849 1882.9629,-630.78849 C 1880.2198,-631.14242 1877.4768,-631.40795 1874.5561,-631.40795 C 1836.947,-631.40795 1806.4172,-600.96664 1806.4172,-563.35745 C 1806.4172,-530.79231 1828.9825,-503.53669 1859.4238,-496.7228"
         style="font-size:18.17300034px;font-weight:bold;letter-spacing:-1.79190004;word-spacing:0;fill:#2f3789;fill-rule:nonzero;stroke:none;font-family:Arial"
         id="path2476" />
    </g>
  </g>
</svg>
