<?xml version="1.0" encoding="UTF-8" standalone="no"?>
<!-- Created with Inkscape (http://www.inkscape.org/) -->

<svg
   xmlns:dc="http://purl.org/dc/elements/1.1/"
   xmlns:cc="http://creativecommons.org/ns#"
   xmlns:rdf="http://www.w3.org/1999/02/22-rdf-syntax-ns#"
   xmlns:svg="http://www.w3.org/2000/svg"
   xmlns="http://www.w3.org/2000/svg"
   xmlns:sodipodi="http://sodipodi.sourceforge.net/DTD/sodipodi-0.dtd"
   xmlns:inkscape="http://www.inkscape.org/namespaces/inkscape"
   width="122.68854"
   height="18.39463"
   viewBox="0 0 32.461341 4.8669125"
   version="1.1"
   id="svg48452"
   inkscape:version="0.92.0 r15299"
   sodipodi:docname="safarilink.svg">
  <defs
     id="defs48446" />
  <sodipodi:namedview
     id="base"
     pagecolor="#ffffff"
     bordercolor="#666666"
     borderopacity="1.0"
     inkscape:pageopacity="0.0"
     inkscape:pageshadow="2"
     inkscape:zoom="7.3712774"
     inkscape:cx="61.344269"
     inkscape:cy="9.1973152"
     inkscape:document-units="mm"
     inkscape:current-layer="layer1"
     showgrid="false"
     fit-margin-top="0"
     fit-margin-left="0"
     fit-margin-right="0"
     fit-margin-bottom="0"
     units="px"
     inkscape:window-width="1280"
     inkscape:window-height="744"
     inkscape:window-x="-4"
     inkscape:window-y="-4"
     inkscape:window-maximized="1" />
  <metadata
     id="metadata48449">
    <rdf:RDF>
      <cc:Work
         rdf:about="">
        <dc:format>image/svg+xml</dc:format>
        <dc:type
           rdf:resource="http://purl.org/dc/dcmitype/StillImage" />
        <dc:title></dc:title>
      </cc:Work>
    </rdf:RDF>
  </metadata>
  <g
     inkscape:label="Layer 1"
     inkscape:groupmode="layer"
     id="layer1"
     transform="translate(137.80671,-109.22593)">
    <g
       id="g48520"
       transform="translate(0.13229112,-0.13228845)">
      <path
         d="m -137.80671,112.54446 1.30775,-0.0815 c 0.0286,0.21166 0.0864,0.37394 0.17356,0.48577 0.14147,0.17921 0.34431,0.26988 0.60784,0.26988 0.1965,0 0.34749,-0.0462 0.45367,-0.13759 0.10619,-0.0935 0.1591,-0.19967 0.1591,-0.32138 0,-0.11535 -0.0504,-0.21872 -0.15169,-0.30973 -0.10089,-0.0903 -0.33584,-0.17675 -0.7045,-0.25824 -0.6036,-0.13511 -1.03293,-0.31538 -1.29011,-0.53939 -0.25964,-0.22472 -0.38911,-0.51153 -0.38911,-0.85972 0,-0.22825 0.0667,-0.44486 0.19932,-0.6477 0.13229,-0.20356 0.33196,-0.36337 0.59796,-0.48013 0.26635,-0.11607 0.63112,-0.17392 1.09432,-0.17392 0.56938,0 1.00294,0.10583 1.30069,0.31608 0.2988,0.21132 0.4766,0.54893 0.5334,1.01001 l -1.29611,0.0766 c -0.0346,-0.20073 -0.10689,-0.34678 -0.21731,-0.4378 -0.11007,-0.091 -0.26247,-0.13687 -0.45649,-0.13687 -0.16052,0 -0.28117,0.0342 -0.36125,0.10195 -0.0818,0.0681 -0.12241,0.14958 -0.12241,0.24835 0,0.0695 0.0342,0.13371 0.10019,0.1905 0.0653,0.0589 0.21907,0.11325 0.46214,0.16369 0.60078,0.12982 1.03152,0.26106 1.29222,0.39335 0.25929,0.133 0.44873,0.29704 0.56727,0.49248 0.11853,0.19685 0.1778,0.41698 0.1778,0.65934 0,0.28575 -0.079,0.54786 -0.23707,0.78987 -0.15804,0.24059 -0.37818,0.42333 -0.66287,0.54751 -0.28187,0.12418 -0.63923,0.18697 -1.07068,0.18697 -0.75706,0 -1.28164,-0.14534 -1.57268,-0.4378 -0.2914,-0.29104 -0.45685,-0.66145 -0.49495,-1.11054"
         style="fill:#a28800;fill-opacity:1;fill-rule:nonzero;stroke:none;stroke-width:0.35277778"
         id="path47837"
         inkscape:connector-curvature="0" />
      <path
         d="m -132.03168,111.83721 -1.18145,-0.12453 c 0.0452,-0.20673 0.10901,-0.3683 0.19332,-0.48789 0.084,-0.11783 0.20461,-0.22049 0.3623,-0.30727 0.11395,-0.0631 0.26952,-0.11183 0.46814,-0.1457 0.19791,-0.0346 0.4124,-0.0515 0.64346,-0.0515 0.37077,0 0.66817,0.0201 0.89253,0.0617 0.22472,0.0413 0.41205,0.12806 0.56198,0.25929 0.10513,0.0914 0.18803,0.21978 0.24871,0.38735 0.061,0.16722 0.0914,0.32703 0.0914,0.47766 v 1.42487 c 0,0.15099 0.009,0.26988 0.0286,0.35631 0.019,0.0861 0.061,0.19544 0.12559,0.32914 h -1.15958 c -0.0466,-0.0836 -0.0769,-0.14605 -0.0914,-0.19015 -0.0134,-0.0423 -0.0286,-0.11077 -0.0423,-0.2039 -0.16193,0.15593 -0.32244,0.2667 -0.4826,0.33337 -0.21873,0.0889 -0.47308,0.13335 -0.762,0.13335 -0.38453,0 -0.67628,-0.0889 -0.8756,-0.26705 -0.19967,-0.17815 -0.29951,-0.39758 -0.29951,-0.65793 0,-0.24553 0.072,-0.44732 0.2159,-0.60466 0.14394,-0.15805 0.40852,-0.27587 0.79516,-0.35207 0.46355,-0.0931 0.76447,-0.1584 0.90241,-0.1965 0.13688,-0.037 0.28293,-0.0861 0.43674,-0.14676 0,-0.15169 -0.0311,-0.25823 -0.0942,-0.31855 -0.0628,-0.061 -0.17322,-0.091 -0.33091,-0.091 -0.20249,0 -0.35419,0.0317 -0.45508,0.097 -0.0797,0.0504 -0.14288,0.1457 -0.19156,0.2854 m 1.07174,0.64982 c -0.16969,0.0607 -0.34713,0.1143 -0.53093,0.16122 -0.25189,0.0663 -0.41064,0.13229 -0.47766,0.1972 -0.0688,0.0663 -0.10231,0.14182 -0.10231,0.22754 0,0.0967 0.0328,0.17639 0.1016,0.23848 0.067,0.0614 0.16687,0.0921 0.2988,0.0921 0.13759,0 0.266,-0.0332 0.38383,-0.10089 0.11818,-0.0663 0.20284,-0.14782 0.25259,-0.24342 0.0494,-0.0963 0.0741,-0.22119 0.0741,-0.37535 v -0.19685"
         style="fill:#a28800;fill-opacity:1;fill-rule:nonzero;stroke:none;stroke-width:0.35277778"
         id="path47841"
         inkscape:connector-curvature="0" />
      <path
         d="m -127.63539,110.79263 h 0.58914 v 0.90452 h -0.58914 v 2.31916 h -1.23896 v -2.31916 h -0.46143 v -0.90452 h 0.46143 v -0.14605 c 0,-0.13159 0.0141,-0.27622 0.0427,-0.43321 0.0286,-0.1584 0.0819,-0.28751 0.15981,-0.38735 0.0773,-0.10054 0.18732,-0.18168 0.32702,-0.24271 0.14112,-0.0621 0.34749,-0.0928 0.61772,-0.0928 0.21766,0 0.53163,0.0254 0.94474,0.0758 l -0.13618,0.74719 c -0.14816,-0.025 -0.26775,-0.0374 -0.35842,-0.0374 -0.11112,0 -0.19085,0.0198 -0.23989,0.0568 -0.049,0.0374 -0.0826,0.0967 -0.10336,0.17674 -0.01,0.0455 -0.0152,0.1397 -0.0152,0.28293"
         style="fill:#a28800;fill-opacity:1;fill-rule:nonzero;stroke:none;stroke-width:0.35277778"
         id="path47845"
         inkscape:connector-curvature="0" />
      <path
         d="m -125.52594,111.83721 -1.1811,-0.12453 c 0.0448,-0.20673 0.10866,-0.3683 0.19332,-0.48789 0.084,-0.11783 0.20461,-0.22049 0.36266,-0.30727 0.11395,-0.0631 0.26952,-0.11183 0.46813,-0.1457 0.19826,-0.0346 0.4124,-0.0515 0.64276,-0.0515 0.37113,0 0.66817,0.0201 0.89324,0.0617 0.22472,0.0413 0.41134,0.12806 0.56127,0.25929 0.10583,0.0914 0.18838,0.21978 0.24906,0.38735 0.0614,0.16722 0.0917,0.32703 0.0917,0.47766 v 1.42487 c 0,0.15099 0.009,0.26988 0.0289,0.35631 0.0187,0.0861 0.061,0.19544 0.12559,0.32914 h -1.15994 c -0.0469,-0.0836 -0.0769,-0.14605 -0.0907,-0.19015 -0.0145,-0.0423 -0.0286,-0.11077 -0.0427,-0.2039 -0.16263,0.15593 -0.32314,0.2667 -0.4833,0.33337 -0.21837,0.0889 -0.47202,0.13335 -0.76165,0.13335 -0.38523,0 -0.67698,-0.0889 -0.87595,-0.26705 -0.19967,-0.17815 -0.2995,-0.39758 -0.2995,-0.65793 0,-0.24553 0.072,-0.44732 0.21554,-0.60466 0.14394,-0.15805 0.40852,-0.27587 0.79587,-0.35207 0.46355,-0.0931 0.76341,-0.1584 0.9017,-0.1965 0.13723,-0.037 0.28363,-0.0861 0.43744,-0.14676 0,-0.15169 -0.0314,-0.25823 -0.0949,-0.31855 -0.0617,-0.061 -0.17251,-0.091 -0.33091,-0.091 -0.20143,0 -0.35383,0.0317 -0.45508,0.097 -0.0794,0.0504 -0.14288,0.1457 -0.19156,0.2854 m 1.07244,0.64982 c -0.17003,0.0607 -0.34678,0.1143 -0.53163,0.16122 -0.25047,0.0663 -0.40993,0.13229 -0.47625,0.1972 -0.0698,0.0663 -0.10266,0.14182 -0.10266,0.22754 0,0.0967 0.0325,0.17639 0.10125,0.23848 0.0674,0.0614 0.16721,0.0921 0.29845,0.0921 0.13758,0 0.26564,-0.0332 0.38382,-0.10089 0.11853,-0.0663 0.20285,-0.14782 0.25224,-0.24342 0.0494,-0.0963 0.0748,-0.22119 0.0748,-0.37535 v -0.19685"
         style="fill:#a28800;fill-opacity:1;fill-rule:nonzero;stroke:none;stroke-width:0.35277778"
         id="path47849"
         inkscape:connector-curvature="0" />
      <path
         d="m -122.49189,110.79263 h 1.15676 v 0.52846 c 0.11148,-0.2286 0.22648,-0.38629 0.34431,-0.47202 0.11853,-0.0857 0.26494,-0.12911 0.43885,-0.12911 0.18239,0 0.38171,0.0564 0.59761,0.16933 l -0.38241,0.88089 c -0.1457,-0.0607 -0.26106,-0.0907 -0.34572,-0.0907 -0.16193,0 -0.28787,0.067 -0.37642,0.20038 -0.12841,0.18768 -0.19085,0.53975 -0.19085,1.05551 v 1.08091 h -1.24213"
         style="fill:#a28800;fill-opacity:1;fill-rule:nonzero;stroke:none;stroke-width:0.35277778"
         id="path47853"
         inkscape:connector-curvature="0" />
      <path
         inkscape:connector-curvature="0"
         id="path47855"
         style="fill:#a28800;fill-opacity:1;fill-rule:nonzero;stroke:none;stroke-width:0.35277778"
         d="m -119.69881,110.40712 h 1.23614 v -0.84138 h -1.23614 z m 0,3.60962 h 1.23614 v -3.22439 h -1.23614 z" />
      <path
         inkscape:connector-curvature="0"
         id="path47857"
         style="fill:#a28800;fill-opacity:1;fill-rule:nonzero;stroke:none;stroke-width:0.35277778"
         d="m -117.63082,114.01674 h 1.23895 v -4.45064 h -1.23895 z" />
      <path
         inkscape:connector-curvature="0"
         id="path47859"
         style="fill:#a28800;fill-opacity:1;fill-rule:nonzero;stroke:none;stroke-width:0.35277778"
         d="m -115.55719,110.40712 h 1.23648 v -0.84138 h -1.23648 z m 0,3.60962 h 1.23648 v -3.22439 h -1.23648 z" />
      <path
         d="m -113.53222,110.79263 h 1.15147 v 0.52529 c 0.1718,-0.21485 0.34572,-0.36795 0.52175,-0.46003 0.17675,-0.0921 0.39088,-0.13793 0.64382,-0.13793 0.3422,0 0.6096,0.10124 0.80293,0.3048 0.19332,0.2039 0.28998,0.51752 0.28998,0.94227 v 2.04928 h -1.24143 v -1.77271 c 0,-0.20249 -0.037,-0.34572 -0.11288,-0.42897 -0.0752,-0.084 -0.18027,-0.1263 -0.31574,-0.1263 -0.14887,0 -0.27093,0.0568 -0.36442,0.17039 -0.0921,0.11325 -0.13935,0.31609 -0.13935,0.60925 v 1.54834 h -1.23613"
         style="fill:#a28800;fill-opacity:1;fill-rule:nonzero;stroke:none;stroke-width:0.35277778"
         id="path47863"
         inkscape:connector-curvature="0" />
      <path
         d="m -109.38432,109.56621 v 4.451 h 1.26294 v -0.8382 l 0.46567,-0.45438 0.65299,1.29258 h 1.39277 l -1.22379,-2.09515 1.15747,-1.12924 h -1.52189 l -0.92322,1.07103 v -2.29764 z"
         style="fill:#a28800;fill-opacity:1;fill-rule:nonzero;stroke:none;stroke-width:0.35277778"
         id="path47867"
         inkscape:connector-curvature="0" />
    </g>
  </g>
</svg>
