<?xml version="1.0" encoding="UTF-8" standalone="no"?>
<!-- Created with Inkscape (http://www.inkscape.org/) -->

<svg
   xmlns:dc="http://purl.org/dc/elements/1.1/"
   xmlns:cc="http://creativecommons.org/ns#"
   xmlns:rdf="http://www.w3.org/1999/02/22-rdf-syntax-ns#"
   xmlns:svg="http://www.w3.org/2000/svg"
   xmlns="http://www.w3.org/2000/svg"
   version="1.1"
   width="267.0448"
   height="68.469353"
   id="svg2"
   xml:space="preserve"><metadata
     id="metadata8"><rdf:RDF><cc:Work
         rdf:about=""><dc:format>image/svg+xml</dc:format><dc:type
           rdf:resource="http://purl.org/dc/dcmitype/StillImage" /><dc:title></dc:title></cc:Work></rdf:RDF></metadata><defs
     id="defs6"><clipPath
       id="clipPath54"><path
         d="m 403.465,35.982 39.685,0 0,39.727 -39.685,0 0,-39.727 z"
         id="path56" /></clipPath></defs><g
     transform="matrix(1.25,0,0,-1.25,-7.992404,154.87285)"
     id="g10"><path
       d="m 6.3939232,69.122796 213.6358468,0 0,54.775484 -213.6358468,0 0,-54.775484 z"
       id="path14"
       style="fill:#f0ef1b;fill-opacity:1;fill-rule:evenodd;stroke:none" /><path
       d="m 45.8023,82.9516 0,14.3511 c 0,1.2989 -0.2418,2.8703 -2.2961,2.8703 -2.0851,0 -4.1394,-1.3597 -5.2871,-2.1152 l 0,-15.1062 -4.955,0 0,20.7864 4.955,0 0,-2.357 c 1.6008,1.118 4.0485,2.81 6.9489,2.81 4.0785,0 5.6191,-2.931 5.6191,-6.4355 l 0,-14.8039 -4.9848,0"
       id="path16"
       style="fill:#745f47;fill-opacity:1;fill-rule:evenodd;stroke:none" /><path
       d="m 62.5398,82.4984 c -6.2539,0 -9.6378,4.6223 -9.6378,10.8461 0,6.0727 3.1722,10.8465 9.6378,10.8465 6.6469,0 9.6379,-5.0152 9.6379,-10.8465 0,-6.5863 -3.6254,-10.8461 -9.6379,-10.8461 l 0,0 z m 0,17.9156 c -3.8671,0 -4.5015,-4.6828 -4.5015,-7.0695 0,-2.689 0.7555,-7.0695 4.4715,-7.0695 4.3203,0 4.5621,5.4984 4.5621,7.0695 0,1.843 -0.3629,7.0695 -4.5321,7.0695"
       id="path18"
       style="fill:#745f47;fill-opacity:1;fill-rule:evenodd;stroke:none" /><path
       d="m 93.1453,82.9516 -3.4742,0 -3.9582,13.2332 -3.8672,-13.2332 -3.4746,0 -6.5254,20.7864 4.7129,0 3.716,-12.4478 3.6859,12.4478 3.5352,0 3.7461,-12.5384 3.6254,12.5384 4.6832,0 -6.4051,-20.7864"
       id="path20"
       style="fill:#745f47;fill-opacity:1;fill-rule:evenodd;stroke:none" /><path
       d="m 115.502,82.9516 4.95508,0 0,29.3059 -4.95508,0 0,-29.3059 z"
       id="path22"
       style="fill:#745f47;fill-opacity:1;fill-rule:evenodd;stroke:none" /><path
       d="m 135.473,82.9516 -0.544,2.2054 c -1.208,-1.0879 -3.172,-2.6586 -6.284,-2.6586 -3.716,0 -6.345,2.4172 -6.345,5.7403 0,2.1449 0.755,4.6527 5.348,6.2238 l 5.952,1.9937 c 0.846,0.3024 0.936,0.3329 0.936,0.9368 l 0,0.816 c 0,1.7824 -1.601,2.296 -3.534,2.296 -3.263,0 -6.285,-1.9941 -7.433,-2.8097 l 0,4.3207 c 1.329,0.755 3.867,2.175 8.188,2.175 6.465,0 7.734,-3.233 7.734,-7.1906 l 0,-14.0488 -4.018,0 z m -5.348,8.8824 c -2.084,-0.7555 -2.809,-1.7223 -2.809,-3.2028 0,-2.0843 1.812,-2.5378 2.689,-2.5378 0.815,0 2.507,0.3023 4.531,2.3265 l 0,5.1059 c -0.302,-0.2113 -0.392,-0.2719 -1.299,-0.5738 l -3.112,-1.118"
       id="path24"
       style="fill:#745f47;fill-opacity:1;fill-rule:evenodd;stroke:none" /><path
       d="m 154.325,82.9516 -4.713,8.8824 -2.809,-3.3836 0,-5.4988 -4.955,0 0,29.3054 4.955,0 0,-17.4621 7.251,8.9431 5.378,0 -6.738,-8.188 7.16,-12.5984 -5.529,0"
       id="path26"
       style="fill:#745f47;fill-opacity:1;fill-rule:evenodd;stroke:none" /><path
       d="m 163.752,92.257 c 0.272,-4.0183 2.326,-5.982 5.831,-5.982 2.87,0 4.653,0.9664 6.647,2.2656 l 0,-4.2297 c -1.118,-0.6343 -3.173,-1.8125 -6.949,-1.8125 -8.973,0 -10.635,6.6164 -10.635,10.9368 0,6.9488 4.32,10.7558 9.668,10.7558 4.925,0 8.913,-3.323 8.913,-10.1515 l 0,-1.7825 -13.475,0 z m 8.852,3.3535 c -0.302,2.4172 -1.269,4.8945 -4.26,4.8945 -2.235,0 -4.018,-1.2691 -4.501,-4.8945 l 8.761,0"
       id="path28"
       style="fill:#745f47;fill-opacity:1;fill-rule:evenodd;stroke:none" /><path
       d="m 15.6805,88.9031 c 2.4472,-1.7219 4.5316,-2.6586 7.1601,-2.6586 1.5711,0 3.4442,0.4231 3.4442,2.0848 0,1.2086 -0.8762,1.8125 -3.8067,2.9305 -3.8672,1.4808 -6.9488,2.7496 -6.9488,6.798 0,4.7132 4.4715,6.1032 7.9762,6.1032 3.5043,0 5.3476,-1.058 6.375,-1.662 l 0,-4.3506 c -1.1785,0.8762 -3.0821,2.2656 -6.2848,2.2656 -1.7219,0 -3.2324,-0.4831 -3.2324,-1.9636 0,-1.2086 0.5437,-1.45 4.5922,-3.0211 4.2601,-1.6918 6.1636,-3.4746 6.1636,-6.6469 0,-4.0789 -3.1121,-6.284 -8.0066,-6.284 -3.8672,0 -6.0727,1.2387 -7.432,2.0243 l 0,4.3804"
       id="path30"
       style="fill:#745f47;fill-opacity:1;fill-rule:evenodd;stroke:none" /><path
       d="m 113.388,108.451 c 0,0 -0.695,0.06 -1.602,0.06 -2.719,0 -3.021,-0.815 -3.021,-2.598 l 0,-2.175 3.777,0 0,-3.7466 -3.777,0 0,-17.0398 -4.985,0 0,17.0398 -3.384,0 1.118,3.7466 2.266,0 0,2.175 c 0,4.653 1.994,6.344 7.16,6.344 1.209,0 2.448,-0.06 2.448,-0.06 l 0,-3.746"
       id="path32"
       style="fill:#745f47;fill-opacity:1;fill-rule:evenodd;stroke:none" /><g
       transform="matrix(0.07295243,0,0,-0.07295243,170.23765,126.54047)"
       id="layer1"><g
         transform="matrix(7.5595313,0,0,-7.5595313,-2797.6666,883.17183)"
         id="g50"><g
           clip-path="url(#clipPath54)"
           id="g52"><path
             d="m 404.67,75.209 c -0.449,0 -0.817,-0.368 -0.817,-0.817 l 0,-37.291 c 0,-0.449 0.368,-0.817 0.817,-0.817 l 37.291,0 c 0.449,0 0.817,0.368 0.817,0.817 l 0,37.291 c 0,0.449 -0.368,0.817 -0.817,0.817 l -37.291,0 z"
             id="path58"
             style="fill:#034ea2;fill-opacity:1;fill-rule:evenodd;stroke:none" /><path
             d="m 420.401,49.871 3.285,4.212 c 0,0 0.031,0.038 0.055,0.038 0.034,0 0.024,-0.04 0.024,-0.04 l -0.817,-4.21 c 0,0 -0.014,-0.059 -0.071,-0.059 l -2.443,0 c -0.033,0 -0.051,0.032 -0.033,0.059 m 7.981,7.29 -3.224,0 c -0.219,0 -0.348,-0.16 -0.348,-0.16 l -9.057,-11.23 c -0.127,-0.158 -0.03,-0.21 0.055,-0.21 l 1.084,0 c 0.173,0 0.223,0.09 0.248,0.125 l 2.402,3.076 c 0,0 0.056,0.064 0.125,0.064 l 3.02,0 c 0.064,0 0.047,-0.06 0.047,-0.06 0,0 -0.589,-3.018 -0.595,-3.05 -0.006,-0.033 0.002,-0.156 0.142,-0.156 l 3.886,0 c 0.061,0 0.122,0.037 0.139,0.122 0,0 0.455,2.32 2.216,11.321 0.012,0.061 -0.03,0.158 -0.14,0.158"
             id="path60"
             style="fill:#ffffff;fill-opacity:1;fill-rule:nonzero;stroke:none" /><path
             d="m 407.325,47.097 c -0.04,-0.154 0.038,-0.355 0.285,-0.558 0.463,-0.382 1.815,-1.193 3.999,-1.193 3.932,0 5.358,2.541 4.859,4.695 -0.133,0.576 -0.9,3.681 -1.007,4.101 -0.308,1.22 0.284,2.098 1.448,2.099 0.995,0 1.666,-0.394 2.209,-0.736 0.103,-0.064 0.189,-0.041 0.217,0.097 0.014,0.07 0.16,0.773 0.16,0.773 0,0 0.059,0.217 -0.176,0.34 -0.361,0.189 -1.261,0.698 -3.157,0.7 -3.525,0.002 -5.027,-2.261 -4.413,-4.714 0.196,-0.785 0.986,-3.801 0.988,-4.367 10e-4,-0.218 0.108,-1.784 -1.699,-1.791 -1.616,-0.007 -2.816,1.138 -3.205,1.535 -0.065,0.066 -0.203,0.067 -0.243,-0.078 -0.02,-0.074 -0.265,-0.903 -0.265,-0.903"
             id="path62"
             style="fill:#ffffff;fill-opacity:1;fill-rule:nonzero;stroke:none" /><path
             d="m 427.302,47.042 c -0.04,-0.154 0.038,-0.355 0.285,-0.559 0.463,-0.382 1.72,-1.137 3.904,-1.137 3.931,0 5.357,2.541 4.859,4.695 -0.133,0.576 -0.9,3.681 -1.007,4.101 -0.309,1.22 0.284,2.098 1.447,2.099 0.996,0 1.667,-0.394 2.21,-0.736 0.103,-0.064 0.189,-0.041 0.217,0.097 0.013,0.07 0.159,0.773 0.159,0.773 0,0 0.059,0.217 -0.175,0.34 -0.362,0.189 -1.262,0.698 -3.157,0.7 -3.526,0.002 -5.027,-2.261 -4.414,-4.714 0.197,-0.785 0.987,-3.801 0.989,-4.367 10e-4,-0.218 0.107,-1.784 -1.7,-1.791 -1.615,-0.007 -2.815,1.138 -3.204,1.535 -0.065,0.066 -0.191,0.069 -0.224,-0.078 -0.02,-0.089 -0.189,-0.958 -0.189,-0.958"
             id="path64"
             style="fill:#ffffff;fill-opacity:1;fill-rule:nonzero;stroke:none" /><path
             d="m 413.033,32.768 0.015,0 0,0.016 0,0.599 0,0.015 -0.015,0 -0.511,0 -0.016,0 0,-0.015 0,-0.599 0,-0.016 0.016,0 0.511,0 z"
             id="path66"
             style="fill:#989184;fill-opacity:1;fill-rule:evenodd;stroke:none" /><path
             d="m 423.167,32.772 0.016,0 0,0.015 0,0.599 0,0.016 -0.016,0 -0.511,0 -0.016,0 0,-0.016 0,-0.599 0,-0.015 0.016,0 0.511,0 z"
             id="path68"
             style="fill:#989184;fill-opacity:1;fill-rule:evenodd;stroke:none" /><path
             d="m 398.245,28.647 c 1.022,0 1.631,0.491 1.631,1.314 0,0.591 -0.228,0.805 -0.748,1.152 -0.164,0.107 -0.346,0.2 -0.523,0.29 -0.473,0.241 -0.92,0.468 -0.92,0.942 0,0.385 0.315,0.644 0.785,0.644 0.515,0 0.995,-0.205 1.087,-0.246 l 0.021,-0.01 0,0.024 0,0.463 0,0.011 -0.01,0.004 c -0.21,0.063 -0.646,0.158 -0.992,0.158 -0.437,0 -0.802,-0.105 -1.056,-0.304 -0.259,-0.203 -0.396,-0.502 -0.396,-0.863 0,-0.647 0.411,-0.953 0.769,-1.147 0.114,-0.062 0.229,-0.121 0.339,-0.177 0.55,-0.28 1.024,-0.522 1.024,-1.047 0,-0.494 -0.337,-0.777 -0.925,-0.777 -0.409,0 -0.845,0.165 -1.139,0.304 l -0.022,0.01 0,-0.024 0,-0.516 0,-0.011 0.011,-0.004 0.019,-0.007 c 0.158,-0.055 0.528,-0.183 1.045,-0.183"
             id="path70"
             style="fill:#989184;fill-opacity:1;fill-rule:evenodd;stroke:none" /><path
             d="m 404.935,29.908 c 0,-0.487 -0.343,-0.883 -0.766,-0.883 -0.305,0 -0.503,0.211 -0.503,0.538 0,0.429 0.418,0.673 1.243,0.723 l 0.026,10e-4 0,-0.379 z m -0.551,2.214 c -0.75,0 -1.157,-0.319 -1.212,-0.947 l -0.001,-0.017 0.017,0 0.594,0 0.015,0 10e-4,0.014 c 0.021,0.256 0.053,0.643 0.565,0.643 0.504,0 0.572,-0.422 0.572,-0.835 l 0,-0.367 c -0.521,-0.029 -1.853,-0.114 -1.853,-1.119 0,-0.225 0.089,-0.435 0.251,-0.592 0.168,-0.164 0.401,-0.254 0.657,-0.254 0.55,0 0.848,0.374 0.945,0.524 l 0,-0.432 0,-0.015 0.016,0 0.511,0 0.016,0 0,0.015 0,2.268 c 0,0.478 -0.114,1.114 -1.094,1.114"
             id="path72"
             style="fill:#989184;fill-opacity:1;fill-rule:evenodd;stroke:none" /><path
             d="m 408.07,30.869 0,-2.129 0,-0.015 0.016,0 0.511,0 0.016,0 0,0.015 0,2.503 c 0,0.21 -0.067,0.421 -0.182,0.578 -0.145,0.197 -0.36,0.301 -0.622,0.301 -0.666,0 -0.992,-0.482 -1.18,-0.862 l 0,0.771 0,0.015 -0.016,0 -0.498,0 -0.015,0 0,-0.015 0,-3.291 0,-0.015 0.015,0 0.512,0 0.015,0 0,0.015 0,1.41 c 0,0.631 0.307,1.52 0.987,1.52 0.441,0 0.441,-0.444 0.441,-0.801"
             id="path74"
             style="fill:#989184;fill-opacity:1;fill-rule:evenodd;stroke:none" /><path
             d="m 410.46,31.759 c 0.606,0 0.81,-0.9 0.81,-1.311 0,-0.838 -0.35,-1.423 -0.852,-1.423 -0.541,0 -0.654,0.717 -0.654,1.319 0,0.425 0.068,1.415 0.696,1.415 m -0.162,-3.111 c 0.565,0 0.868,0.406 0.972,0.678 l 0,-0.586 0,-0.015 0.015,0 0.522,0 0.016,0 0,0.015 0,4.645 0,0.015 -0.016,0 -0.522,0 -0.015,0 0,-0.015 0,-1.896 c -0.079,0.195 -0.291,0.633 -0.901,0.633 -0.405,0 -0.719,-0.174 -0.934,-0.519 -0.188,-0.302 -0.288,-0.726 -0.288,-1.225 0,-0.506 0.078,-0.908 0.232,-1.193 0.19,-0.356 0.5,-0.537 0.919,-0.537"
             id="path76"
             style="fill:#989184;fill-opacity:1;fill-rule:evenodd;stroke:none" /><path
             d="m 415.446,32.122 c -0.666,0 -0.992,-0.482 -1.18,-0.862 l 0,0.771 0,0.015 -0.016,0 -0.497,0 -0.016,0 0,-0.015 0,-3.291 0,-0.015 0.016,0 0.511,0 0.016,0 0,0.015 0,1.41 c 0,0.631 0.306,1.52 0.986,1.52 0.441,0 0.441,-0.444 0.441,-0.801 l 0,-2.129 0,-0.015 0.016,0 0.511,0 0.016,0 0,0.015 0,2.503 c 0,0.21 -0.066,0.421 -0.182,0.578 -0.145,0.197 -0.36,0.301 -0.622,0.301"
             id="path78"
             style="fill:#989184;fill-opacity:1;fill-rule:evenodd;stroke:none" /><path
             d="m 421.796,32.046 -0.011,0 -0.004,-0.01 -0.885,-2.56 -0.987,2.56 -0.004,0.01 -0.01,0 -0.567,0 -0.023,0 0.008,-0.021 1.307,-3.291 0.004,-0.009 0.01,0 0.477,0 0.011,0 0.004,0.01 1.182,3.29 0.008,0.021 -0.023,0 -0.497,0 z"
             id="path80"
             style="fill:#989184;fill-opacity:1;fill-rule:evenodd;stroke:none" /><path
             d="m 429.045,31.821 c -0.145,0.197 -0.36,0.301 -0.622,0.301 -0.666,0 -0.992,-0.482 -1.18,-0.862 l 0,0.771 0,0.015 -0.016,0 -0.497,0 -0.016,0 0,-0.015 0,-3.291 0,-0.015 0.016,0 0.511,0 0.016,0 0,0.015 0,1.41 c 0,0.631 0.306,1.52 0.987,1.52 0.44,0 0.44,-0.444 0.44,-0.801 l 0,-2.129 0,-0.015 0.016,0 0.512,0 0.015,0 0,0.015 0,2.503 c 0,0.21 -0.066,0.421 -0.182,0.578"
             id="path82"
             style="fill:#989184;fill-opacity:1;fill-rule:evenodd;stroke:none" /><path
             d="m 402.582,29.079 c -0.139,-0.038 -0.249,-0.068 -0.475,-0.068 -1.075,0 -1.236,1.004 -1.236,1.603 0,0.361 0.07,1.201 0.717,1.201 0.352,0 0.534,-0.211 0.556,-0.645 l 0,-0.014 0.015,0 0.589,0 0.017,0 -0.002,0.017 c -0.028,0.279 -0.135,0.512 -0.308,0.673 -0.198,0.183 -0.478,0.276 -0.832,0.276 -0.862,0 -1.357,-0.595 -1.357,-1.633 0,-0.561 0.123,-1.001 0.365,-1.308 0.277,-0.353 0.714,-0.533 1.296,-0.533 0.306,0 0.519,0.048 0.744,0.119 l 0.011,0.003 0,0.011 0,0.305 0,0.02 c 0,0 -0.019,-0.005 -0.019,-0.005 l -0.081,-0.022 z"
             id="path84"
             style="fill:#989184;fill-opacity:1;fill-rule:evenodd;stroke:none" /><path
             d="m 418.581,29.91 c 0,-0.487 -0.344,-0.883 -0.766,-0.883 -0.306,0 -0.503,0.211 -0.503,0.537 0,0.43 0.418,0.673 1.242,0.723 l 0.027,0.002 0,-0.379 z m -0.552,2.214 c -0.749,0 -1.157,-0.319 -1.211,-0.948 l -0.002,-0.016 0.017,0 0.595,0 0.014,0 10e-4,0.014 c 0.022,0.256 0.054,0.642 0.566,0.642 0.504,0 0.572,-0.422 0.572,-0.835 l 0,-0.366 c -0.522,-0.03 -1.853,-0.114 -1.853,-1.12 0,-0.224 0.089,-0.434 0.251,-0.592 0.168,-0.163 0.401,-0.253 0.656,-0.253 0.551,0 0.849,0.374 0.946,0.523 l 0,-0.431 0,-0.016 0.015,0 0.512,0 0.015,0 0,0.016 0,2.267 c 0,0.479 -0.113,1.115 -1.094,1.115"
             id="path86"
             style="fill:#989184;fill-opacity:1;fill-rule:evenodd;stroke:none" /><path
             d="m 425.55,29.91 c 0,-0.487 -0.344,-0.883 -0.766,-0.883 -0.305,0 -0.503,0.211 -0.503,0.537 0,0.43 0.418,0.673 1.243,0.723 l 0.026,0.002 0,-0.379 z m -0.551,2.214 c -0.75,0 -1.158,-0.319 -1.212,-0.948 l -10e-4,-0.016 0.016,0 0.595,0 0.014,0 0.002,0.014 c 0.021,0.256 0.053,0.642 0.565,0.642 0.504,0 0.572,-0.422 0.572,-0.835 l 0,-0.366 c -0.522,-0.03 -1.853,-0.114 -1.853,-1.12 0,-0.224 0.089,-0.434 0.251,-0.592 0.168,-0.163 0.401,-0.253 0.656,-0.253 0.551,0 0.849,0.374 0.946,0.523 l 0,-0.431 0,-0.016 0.015,0 0.512,0 0.015,0 0,0.016 0,2.267 c 0,0.479 -0.113,1.115 -1.093,1.115"
             id="path88"
             style="fill:#989184;fill-opacity:1;fill-rule:evenodd;stroke:none" /><path
             d="m 412.524,32.046 -0.016,0 0,-0.015 0,-3.291 0,-0.015 0.016,0 0.511,0 0.016,0 0,0.015 0,3.291 0,0.015 -0.016,0 -0.511,0 z"
             id="path90"
             style="fill:#989184;fill-opacity:1;fill-rule:evenodd;stroke:none" /><path
             d="m 422.657,32.046 -0.015,0 0,-0.015 0,-3.291 0,-0.015 0.015,0 0.512,0 0.015,0 0,0.015 0,3.291 0,0.015 -0.015,0 -0.512,0 z"
             id="path92"
             style="fill:#989184;fill-opacity:1;fill-rule:evenodd;stroke:none" /><path
             d="m 437.371,31.299 0,0.739 0,0.016 -0.016,0 -0.512,0 -0.015,0 0,-0.016 0,-3.294 0,-0.016 0.015,0 0.512,0 0.016,0 0,0.016 0,1.558 c 0,0.447 0.118,1.196 0.912,1.196 l 0.145,0 0.016,0 0,0.016 0,0.606 0,0.016 -0.016,0 c -0.494,0 -0.866,-0.426 -1.057,-0.837"
             id="path94"
             style="fill:#989184;fill-opacity:1;fill-rule:evenodd;stroke:none" /><path
             d="m 443.026,32.136 c -0.669,0 -0.998,-0.486 -1.188,-0.868 l 0,0.77 0,0.016 -0.016,0 -0.498,0 -0.015,0 0,-0.016 0,-3.294 0,-0.016 0.015,0 0.512,0 0.016,0 0,0.016 0,1.413 c 0,0.631 0.308,1.521 0.993,1.521 0.443,0 0.443,-0.444 0.443,-0.801 l 0,-2.133 0,-0.016 0.016,0 0.512,0 0.015,0 0,0.016 0,2.507 c 0,0.211 -0.066,0.423 -0.182,0.581 -0.145,0.199 -0.361,0.304 -0.623,0.304"
             id="path96"
             style="fill:#989184;fill-opacity:1;fill-rule:evenodd;stroke:none" /><path
             d="m 444.993,31.113 c 0.007,0.202 0.143,0.716 0.699,0.716 0.535,0 0.653,-0.386 0.657,-0.716 l -1.356,0 z m 0.733,1.024 c -0.463,0 -0.815,-0.157 -1.045,-0.467 -0.207,-0.279 -0.312,-0.675 -0.312,-1.177 0,-1.174 0.601,-1.848 1.649,-1.848 0.355,0 0.533,0.05 0.78,0.12 l 0.045,0.012 0.011,0.003 0,0.012 0,0.299 0,0.019 -0.019,-0.004 c -0.036,-0.009 -0.07,-0.018 -0.102,-0.027 -0.139,-0.038 -0.259,-0.071 -0.5,-0.071 -1.098,0 -1.252,0.892 -1.254,1.769 l 1.923,0 0.015,0 0,0.016 c 0,0.14 0,0.47 -0.148,0.772 -0.187,0.38 -0.538,0.572 -1.043,0.572"
             id="path98"
             style="fill:#989184;fill-opacity:1;fill-rule:evenodd;stroke:none" /><path
             d="m 448.935,30.537 c -0.149,0.09 -0.293,0.165 -0.42,0.231 -0.363,0.189 -0.626,0.326 -0.626,0.611 0,0.281 0.298,0.381 0.553,0.381 0.369,0 0.694,-0.185 0.817,-0.255 l 0.014,-0.007 0.023,-0.013 c 0,0 0,0.026 0,0.026 l 0,0.44 0,0.013 -0.012,0.002 c -0.036,0.008 -0.084,0.024 -0.141,0.043 -0.15,0.051 -0.378,0.128 -0.631,0.128 -0.741,0 -1.149,-0.326 -1.149,-0.918 0,-0.494 0.371,-0.698 0.729,-0.896 0.059,-0.031 0.118,-0.065 0.176,-0.098 l 0.148,-0.086 c 0.32,-0.183 0.551,-0.315 0.551,-0.597 0,-0.325 -0.253,-0.52 -0.677,-0.52 -0.185,0 -0.493,0.053 -0.906,0.304 l -0.012,0.007 -0.023,0.014 0,-0.027 0,-0.451 0,-0.01 0.01,-0.004 c 0.02,-0.008 0.044,-0.018 0.068,-0.028 0.165,-0.068 0.44,-0.182 0.835,-0.182 0.92,0 1.249,0.514 1.249,0.995 0,0.49 -0.277,0.72 -0.576,0.897"
             id="path100"
             style="fill:#989184;fill-opacity:1;fill-rule:evenodd;stroke:none" /><path
             d="m 435.614,32.05 -0.015,0 0,-0.016 0,-3.29 0,-0.016 0.015,0 0.512,0 0.015,0 0,0.016 0,3.29 0,0.016 -0.015,0 -0.512,0 z"
             id="path102"
             style="fill:#989184;fill-opacity:1;fill-rule:evenodd;stroke:none" /><path
             d="m 436.124,32.772 0.015,0 0,0.015 0,0.599 0,0.016 -0.015,0 -0.512,0 -0.015,0 0,-0.016 0,-0.599 0,-0.015 0.015,0 0.512,0 z"
             id="path104"
             style="fill:#989184;fill-opacity:1;fill-rule:evenodd;stroke:none" /><path
             d="m 438.866,33.406 -0.015,0 0,-0.015 0,-4.647 0,-0.016 0.015,0 0.513,0 0.015,0 0,0.016 0,4.647 0,0.015 -0.015,0 -0.513,0 z"
             id="path106"
             style="fill:#989184;fill-opacity:1;fill-rule:evenodd;stroke:none" /><path
             d="m 440.095,32.05 -0.016,0 0,-0.016 0,-3.29 0,-0.016 0.016,0 0.511,0 0.016,0 0,0.016 0,3.29 0,0.016 -0.016,0 -0.511,0 z"
             id="path108"
             style="fill:#989184;fill-opacity:1;fill-rule:evenodd;stroke:none" /><path
             d="m 440.604,32.772 0.015,0 0,0.015 0,0.599 0,0.016 -0.015,0 -0.511,0 -0.016,0 0,-0.016 0,-0.599 0,-0.015 0.016,0 0.511,0 z"
             id="path110"
             style="fill:#989184;fill-opacity:1;fill-rule:evenodd;stroke:none" /><path
             d="m 432.479,30.525 0.74,2.296 0.733,-2.296 -1.473,0 z m 1.104,2.88 -0.011,0 -0.63,0 -0.011,0 -0.003,-0.01 -1.569,-4.667 0.55,0 0.443,1.38 1.735,0 0.449,-1.38 0.627,0 -1.576,4.667 -0.004,0.01 z"
             id="path112"
             style="fill:#989184;fill-opacity:1;fill-rule:evenodd;stroke:none" /></g></g></g></g></svg>