<?xml version="1.0" encoding="UTF-8" standalone="no"?>
<!-- Created with Inkscape (http://www.inkscape.org/) -->

<svg
   xmlns:dc="http://purl.org/dc/elements/1.1/"
   xmlns:cc="http://creativecommons.org/ns#"
   xmlns:rdf="http://www.w3.org/1999/02/22-rdf-syntax-ns#"
   xmlns:svg="http://www.w3.org/2000/svg"
   xmlns="http://www.w3.org/2000/svg"
   version="1.1"
   width="233.85818"
   height="69.134705"
   id="svg3143"
   xml:space="preserve"><metadata
     id="metadata3149"><rdf:RDF><cc:Work
         rdf:about=""><dc:format>image/svg+xml</dc:format><dc:type
           rdf:resource="http://purl.org/dc/dcmitype/StillImage" /><dc:title></dc:title></cc:Work></rdf:RDF></metadata><defs
     id="defs3147" /><g
     transform="matrix(1.25,0,0,-1.25,-3.49101,154.9875)"
     id="g3151"><path
       d="m 21.847512,71.27256 c 0.331872,-1.1232 1.170936,-1.73808 2.340888,-1.73808 1.17192,0 1.94064,0.65064 1.94064,1.41936 0,0.99264 -0.68616,1.26456 -2.07,1.63128 -0.780912,0.20136 -1.536528,0.31968 -2.19936,0.92232 -0.378744,0.3432 -0.591552,0.82776 -0.591552,1.36032 0,1.34808 1.09968,2.3532 2.743152,2.3532 1.52616,0 2.5668,-0.7332 3.00384,-2.06904 l 0,0 -0.95736,-0.22512 0,0 c -0.28392,0.93384 -1.00584,1.44288 -2.04648,1.44288 -1.051896,0 -1.702536,-0.57936 -1.702536,-1.35936 0,-0.37872 0.177192,-0.6984 0.461256,-0.88776 0.52032,-0.3432 1.13532,-0.44904 1.77384,-0.6264 1.7736,-0.50904 2.63712,-1.07616 2.63712,-2.43648 0,-1.39488 -1.15872,-2.37744 -2.96808,-2.37744 -1.714752,0 -2.885688,0.85224 -3.346944,2.40096 l 0,0 0.981576,0.18936 0,0"
       id="path3157"
       style="fill:#4c416a;fill-opacity:1;fill-rule:evenodd;stroke:none" /><path
       d="m 32.76,76.36968 c -1.35936,0 -2.28096,-1.24128 -2.28096,-3.41808 0,-2.17608 0.90936,-3.41712 2.28096,-3.41712 1.05384,0 1.76256,0.6852 2.08224,2.022 l 0,0 0.90936,-0.20064 0,0 c -0.38904,-1.75032 -1.42968,-2.6736 -2.9916,-2.6736 -2.05776,0 -3.36936,1.59744 -3.36936,4.26936 0,1.3836 0.37776,2.48424 1.1232,3.28776 0.57936,0.62616 1.37136,0.96936 2.24616,0.96936 1.56192,0 2.57808,-0.89808 2.96904,-2.63712 l 0,0 -0.93456,-0.1884 0,0 C 34.53384,75.67224 33.8016,76.36968 32.76,76.36968 l 0,0"
       id="path3159"
       style="fill:#4c416a;fill-opacity:1;fill-rule:evenodd;stroke:none" /><path
       d="m 40.0032,77.04384 1.17,0 2.68392,-8.20704 -0.99264,0 -0.79224,2.448 -3.0984,0 -0.75768,-2.448 -0.9336,0 2.72064,8.20704 0,0 z m 1.8084,-4.96704 -1.30032,4.03224 -1.2768,-4.03224 2.57712,0 0,0"
       id="path3161"
       style="fill:#4c416a;fill-opacity:1;fill-rule:evenodd;stroke:none" /><path
       d="m 46.06584,77.04384 1.32384,0 3.86712,-6.76416 0,6.76416 0.828,0 0,-8.20704 -1.00512,0 -4.19808,7.308 0,-7.308 -0.81576,0 0,8.20704"
       id="path3163"
       style="fill:#4c416a;fill-opacity:1;fill-rule:evenodd;stroke:none" /><path
       d="m 55.1868,77.04384 2.6484,0 0,0 c 0.91128,0 1.63224,-0.2016 2.17608,-0.61512 1.02936,-0.78096 1.58424,-1.98648 1.58424,-3.4884 0,-2.48352 -1.51296,-4.10352 -3.90168,-4.10352 l -2.50704,0 0,8.20704 z m 2.54256,-7.35576 c 1.76256,0 2.76648,1.17096 2.76648,3.25224 0,2.08128 -1.00392,3.26352 -2.802,3.26352 l -1.52544,0 0,-6.51576 1.56096,0 0,0"
       id="path3165"
       style="fill:#4c416a;fill-opacity:1;fill-rule:evenodd;stroke:none" /><path
       d="m 64.2216,77.04384 1.01712,0 0,-8.20704 -1.01712,0 0,8.20704"
       id="path3167"
       style="fill:#4c416a;fill-opacity:1;fill-rule:evenodd;stroke:none" /><path
       d="m 68.36712,77.04384 1.3248,0 3.86616,-6.76416 0,6.76416 0.82776,0 0,-8.20704 -1.00488,0 -4.19808,7.308 0,-7.308 -0.81576,0 0,8.20704"
       id="path3169"
       style="fill:#4c416a;fill-opacity:1;fill-rule:evenodd;stroke:none" /><path
       d="m 79.26192,77.04384 1.17096,0 2.68392,-8.20704 -0.9936,0 -0.79224,2.448 -3.09744,0 -0.75768,-2.448 -0.9336,0 2.71968,8.20704 0,0 z m 1.80936,-4.96704 -1.30032,4.03224 -1.27776,-4.03224 2.57808,0 0,0"
       id="path3171"
       style="fill:#4c416a;fill-opacity:1;fill-rule:evenodd;stroke:none" /><path
       d="m 83.8116,77.04384 1.00488,0 2.34096,-6.978 2.3184,6.978 0.89832,0 -2.76672,-8.20704 -0.9936,0 -2.80224,8.20704 0,0"
       id="path3173"
       style="fill:#4c416a;fill-opacity:1;fill-rule:evenodd;stroke:none" /><path
       d="m 92.59416,77.04384 1.01712,0 0,-8.20704 -1.01712,0 0,8.20704"
       id="path3175"
       style="fill:#4c416a;fill-opacity:1;fill-rule:evenodd;stroke:none" /><path
       d="m 98.51352,77.04384 1.17096,0 2.68392,-8.20704 -0.9936,0 -0.79224,2.448 -3.09744,0 -0.75768,-2.448 -0.9336,0 2.71968,8.20704 0,0 z m 1.80936,-4.96704 -1.30128,4.03224 -1.2768,-4.03224 2.57808,0 0,0"
       id="path3177"
       style="fill:#4c416a;fill-opacity:1;fill-rule:evenodd;stroke:none" /><path
       d="m 104.57616,77.04384 1.3248,0 3.86712,-6.76416 0,6.76416 0.82776,0 0,-8.20704 -1.00584,0 -4.19712,7.308 0,-7.308 -0.81672,0 0,8.20704"
       id="path3179"
       style="fill:#4c416a;fill-opacity:1;fill-rule:evenodd;stroke:none" /><path
       d="m 119.53128,77.04384 1.17096,0 2.68392,-8.20704 -0.99264,0 -0.7932,2.448 -3.09744,0 -0.75768,-2.448 -0.9336,0 2.71968,8.20704 0,0 z m 1.80936,-4.96704 -1.30032,4.03224 -1.27776,-4.03224 2.57808,0 0,0"
       id="path3181"
       style="fill:#4c416a;fill-opacity:1;fill-rule:evenodd;stroke:none" /><path
       d="m 125.6184,77.04384 1.01712,0 0,-8.20704 -1.01712,0 0,8.20704"
       id="path3183"
       style="fill:#4c416a;fill-opacity:1;fill-rule:evenodd;stroke:none" /><path
       d="m 129.76416,77.04384 2.83776,0 0,0 c 1.97424,0 2.96712,-0.80448 2.96712,-2.31768 0,-0.9936 -0.50808,-1.70328 -1.52424,-2.09328 l 0,0 1.65456,-3.79608 -1.00488,0 -1.57224,3.60672 -2.37672,0 0,-3.60672 -0.98136,0 0,8.20704 z m 0.98136,-0.84 0,-2.94384 1.73736,0 0,0 c 1.34808,0 2.01096,0.47256 2.01096,1.47744 0,0.9348 -0.66288,1.4664 -1.92768,1.4664 l -1.82064,0 0,0"
       id="path3185"
       style="fill:#4c416a;fill-opacity:1;fill-rule:evenodd;stroke:none" /><path
       d="m 138.17448,77.04384 1.00584,0 0,-7.30872 3.74808,0 0,-0.89832 -4.75392,0 0,8.20704"
       id="path3187"
       style="fill:#4c416a;fill-opacity:1;fill-rule:evenodd;stroke:none" /><path
       d="m 144.93744,77.04384 1.01808,0 0,-8.20704 -1.01808,0 0,8.20704"
       id="path3189"
       style="fill:#4c416a;fill-opacity:1;fill-rule:evenodd;stroke:none" /><path
       d="m 149.0832,77.04384 1.32456,0 3.86736,-6.76416 0,6.76416 0.82776,0 0,-8.20704 -1.00512,0 -4.19904,7.308 0,-7.308 -0.81552,0 0,8.20704"
       id="path3191"
       style="fill:#4c416a;fill-opacity:1;fill-rule:evenodd;stroke:none" /><path
       d="m 158.20416,77.04384 5.20392,0 0,-0.81672 -4.2216,0 0,-2.66064 3.32256,0 0,-0.792 -3.32256,0 0,-3.0864 4.32768,0 0,-0.85128 -5.31,0 0,8.20704"
       id="path3193"
       style="fill:#4c416a;fill-opacity:1;fill-rule:evenodd;stroke:none" /><path
       d="m 166.19064,71.27256 c 0.33192,-1.1232 1.17096,-1.73808 2.34192,-1.73808 1.17,0 1.93872,0.65064 1.93872,1.41936 0,0.99264 -0.68544,1.26456 -2.06904,1.63128 -0.78096,0.20136 -1.53744,0.31968 -2.19936,0.92232 -0.37872,0.3432 -0.5916,0.82776 -0.5916,1.36032 0,1.34808 1.09968,2.3532 2.74392,2.3532 1.52544,0 2.56608,-0.7332 3.00384,-2.06904 l 0,0 -0.95808,-0.22512 0,0 c -0.28416,0.93384 -1.00512,1.44288 -2.04576,1.44288 -1.05264,0 -1.70328,-0.57936 -1.70328,-1.35936 0,-0.37872 0.17712,-0.6984 0.46128,-0.88776 0.52032,-0.3432 1.1352,-0.44904 1.7736,-0.6264 1.77384,-0.50904 2.63736,-1.07616 2.63736,-2.43648 0,-1.39488 -1.15896,-2.37744 -2.96832,-2.37744 -1.71456,0 -2.88552,0.85224 -3.34584,2.40096 l 0,0 0.98064,0.18936 0,0"
       id="path3195"
       style="fill:#4c416a;fill-opacity:1;fill-rule:evenodd;stroke:none" /><path
       d="m 23.522808,122.57256 10.723992,0 -20.725248,-35.89608 -10.728744,0 20.73,35.89608 0,0"
       id="path3197"
       style="fill:#da2a28;fill-opacity:1;fill-rule:evenodd;stroke:none" /><path
       d="m 36.92448,122.57904 10.72296,0 -20.7252,-35.89488 -10.727856,0 20.730096,35.89488 0,0"
       id="path3199"
       style="fill:#da2a28;fill-opacity:1;fill-rule:evenodd;stroke:none" /><path
       d="m 56.58384,122.57904 10.72392,0 -20.7252,-35.89488 -10.72872,0 20.73,35.89488 0,0"
       id="path3201"
       style="fill:#da2a28;fill-opacity:1;fill-rule:evenodd;stroke:none" /><path
       d="m 69.9684,122.57904 10.7232,0 -20.72544,-35.89488 -10.72776,0 20.73,35.89488 0,0"
       id="path3203"
       style="fill:#fddd04;fill-opacity:1;fill-rule:evenodd;stroke:none" /><path
       d="m 83.36616,122.57904 10.7232,0 -20.7252,-35.89488 -10.72896,0 20.73096,35.89488 0,0"
       id="path3205"
       style="fill:#127bca;fill-opacity:1;fill-rule:evenodd;stroke:none" /><path
       d="m 97.23744,109.41744 c 0.0048,4.24224 1.42512,7.48968 4.24128,10.3164 1.8984,1.90488 5.49576,4.25904 12.92544,4.25616 5.9784,-0.002 10.06032,-1.87416 12.5736,-4.10808 -0.38328,-0.64416 -2.5452,-4.24872 -2.93616,-4.89192 -2.2668,2.80872 -4.39968,3.63552 -6.23712,3.63648 -2.5716,9.6e-4 -4.9716,-2.0952 -4.96032,-5.99904 0.003,-1.33488 0.36168,-3.31872 0.63936,-4.63584 0.32904,-1.55712 0.94032,-3.8964 0.93744,-6.75096 -0.009,-7.74936 -6.7584,-15.54648 -17.59032,-15.54648 -7.9368,0 -12.74448,2.84424 -15.59544,5.41104 0.5196,0.78576 3.15576,4.88352 3.45096,5.3316 2.838,-3.75936 5.7048,-4.78776 8.14968,-4.79064 2.42928,-0.0017 5.78256,2.10096 5.78256,6.92736 0,1.66296 -0.29712,2.77584 -0.62064,4.89648 -0.24096,1.58712 -0.76296,3.57936 -0.76032,5.94744 l 0,0"
       id="path3207"
       style="fill:#4c416a;fill-opacity:1;fill-rule:evenodd;stroke:none" /><path
       d="m 107.8332,86.68416 7.49064,0 7.32096,8.42616 9.09552,0 -3.23256,-8.42808 14.26704,0 13.8204,35.9952 -16.33296,0 -32.42904,-35.99328 0,0 z m 31.08264,27.14712 -5.48136,-14.23608 -6.88608,0 12.36744,14.23608 0,0"
       id="path3209"
       style="fill:#4c416a;fill-opacity:1;fill-rule:evenodd;stroke:none" /><path
       d="m 160.14,109.41744 c 0.004,4.24224 1.42512,7.48968 4.24032,10.3164 1.8984,1.90488 5.49552,4.25904 12.9252,4.25616 5.97864,-0.002 10.06032,-1.87416 12.57384,-4.10808 -0.38352,-0.64416 -2.5452,-4.24872 -2.93616,-4.89192 -2.26608,2.80872 -4.39872,3.63552 -6.23736,3.63648 -2.57136,9.6e-4 -4.97136,-2.0952 -4.96032,-5.99904 0.003,-1.33488 0.36192,-3.31872 0.6396,-4.63584 0.32904,-1.55712 0.94008,-3.8964 0.93744,-6.75096 -0.009,-7.74936 -6.75744,-15.54648 -17.59032,-15.54648 -6.68904,0 -10.98288,1.90104 -14.39064,4.39872 0.3252,0.83232 2.23968,5.82936 2.43552,6.34392 2.61936,-3.55584 5.14608,-4.78776 7.96032,-4.79064 2.42904,-0.0017 5.78256,2.10096 5.78256,6.92736 0,1.66296 -0.29712,2.77584 -0.61968,4.89648 -0.24192,1.58712 -0.7632,3.57936 -0.76032,5.94744 l 0,0"
       id="path3211"
       style="fill:#4c416a;fill-opacity:1;fill-rule:evenodd;stroke:none" /><path
       d="m 50.30808,122.57904 3.58872,0 -20.7252,-35.89488 -3.59352,0 20.73,35.89488 0,0"
       id="path3213"
       style="fill:#4c416a;fill-opacity:1;fill-rule:evenodd;stroke:none" /></g></svg>