<?xml version="1.0" encoding="UTF-8" standalone="no"?>
<!-- Created with Inkscape (http://www.inkscape.org/) -->

<svg
   xmlns:dc="http://purl.org/dc/elements/1.1/"
   xmlns:cc="http://creativecommons.org/ns#"
   xmlns:rdf="http://www.w3.org/1999/02/22-rdf-syntax-ns#"
   xmlns:svg="http://www.w3.org/2000/svg"
   xmlns="http://www.w3.org/2000/svg"
   xmlns:sodipodi="http://sodipodi.sourceforge.net/DTD/sodipodi-0.dtd"
   xmlns:inkscape="http://www.inkscape.org/namespaces/inkscape"
   width="100.6815mm"
   height="20.65575mm"
   viewBox="0 0 100.6815 20.65575"
   version="1.1"
   id="svg2607"
   inkscape:version="0.92.0 r15299"
   sodipodi:docname="sas ireland.svg">
  <defs
     id="defs2601" />
  <sodipodi:namedview
     id="base"
     pagecolor="#ffffff"
     bordercolor="#666666"
     borderopacity="1.0"
     inkscape:pageopacity="0.0"
     inkscape:pageshadow="2"
     inkscape:zoom="2.3808957"
     inkscape:cx="188.37449"
     inkscape:cy="37.144721"
     inkscape:document-units="mm"
     inkscape:current-layer="layer1"
     showgrid="false"
     fit-margin-top="0"
     fit-margin-left="0"
     fit-margin-right="0"
     fit-margin-bottom="0"
     inkscape:window-width="1280"
     inkscape:window-height="744"
     inkscape:window-x="-4"
     inkscape:window-y="-4"
     inkscape:window-maximized="1" />
  <metadata
     id="metadata2604">
    <rdf:RDF>
      <cc:Work
         rdf:about="">
        <dc:format>image/svg+xml</dc:format>
        <dc:type
           rdf:resource="http://purl.org/dc/dcmitype/StillImage" />
        <dc:title></dc:title>
      </cc:Work>
    </rdf:RDF>
  </metadata>
  <g
     inkscape:label="Layer 1"
     inkscape:groupmode="layer"
     id="layer1"
     transform="translate(-80.183061,-194.70189)">
    <g
       id="g2661"
       transform="translate(0.50000229,-0.49999687)">
      <path
         id="path2528"
         d="m 110.56359,196.00277 c -0.74276,0.0326 -1.27434,0.33866 -1.78853,0.9834 -4.52702,5.67637 -9.100817,11.31552 -13.649799,16.97469 -0.201797,0.25072 -0.568563,0.43675 -0.491437,0.8909 1.482699,0.35031 2.704201,0.16296 3.543433,-1.32241 0.450082,-0.79534 1.12649,-1.46111 1.680024,-2.20091 0.274349,-0.36669 0.545149,-0.64693 1.065029,-0.63664 1.36419,0.0275 2.72963,0.0294 4.09382,0 0.60851,-0.0132 0.77028,0.20243 0.63613,0.78134 -0.1987,0.85646 -0.29498,1.73876 -0.53072,2.58331 -0.20691,0.74163 0.033,0.92507 0.74104,0.91107 1.67217,-0.0328 3.3459,-0.039 5.0178,0.004 0.64106,0.0161 0.95488,-0.17188 1.0795,-0.8201 1.11231,-5.78724 2.23353,-11.57288 3.38844,-17.35191 0.12726,-0.63738 -0.057,-0.78528 -0.62373,-0.77928 -1.27662,0.0122 -2.5558,0.0556 -3.82871,-0.0145 -0.1153,-0.006 -0.22619,-0.007 -0.33229,-0.003 z m -3.48866,6.07663 c 0.11613,0.0489 0.23162,0.0976 0.34724,0.14676 v 0 0 c -0.1923,0.98648 -0.38849,1.97202 -0.58134,2.9585 -3e-5,1.5e-4 2e-5,0 0,0 -0.19286,0.98647 -0.38214,1.97403 -0.56018,2.96312 -0.0106,0.0587 -0.0238,0.11102 -0.0393,0.15814 -5e-5,1.3e-4 3e-5,0 0,0 -0.10888,0.32991 -0.33869,0.39177 -0.68112,0.38912 -1.13136,-0.008 -2.263,-0.003 -3.63646,-0.003 8e-5,-1e-4 -8e-5,0 0,0 1.80446,-2.31698 3.4779,-4.4654 5.15112,-6.61408 z"
         style="clip-rule:evenodd;fill:#1050a3;fill-rule:evenodd;stroke-width:0.26458332"
         inkscape:connector-curvature="0" />
      <path
         style="clip-rule:evenodd;fill:#1050a3;fill-rule:evenodd;stroke-width:0.26458332"
         inkscape:connector-curvature="0"
         d="m 99.481498,198.98764 c -1.08136,-0.58076 -2.14948,-1.19354 -3.43668,-1.20438 -1.934101,-0.0161 -2.995611,1.1594 -2.595561,3.048 0.44688,2.10925 0.99616,4.19682 1.50574,6.29258 0.86519,3.556 -0.66966,6.44155 -4.12988,7.59989 -3.31417,1.1094 -6.52409,0.7448 -9.56416,-0.95382 -1.17131,-0.65458 -1.40202,-1.94284 -0.62335,-2.96836 0.40401,-0.53208 0.60325,0.0119 0.8083,0.19367 1.21576,1.07924 2.57598,1.84256 4.21481,2.03412 2.36723,0.27649 3.67083,-1.05489 3.19775,-3.37476 -0.43047,-2.1127 -0.97975,-4.20132 -1.47981,-6.29973 -0.85037,-3.56896 0.84323,-6.43414 4.36801,-7.39219 2.23784,-0.60828 6.18939,0.37253 8.22907,1.81372 z"
         id="path2530" />
      <path
         style="clip-rule:evenodd;fill:#1050a3;fill-rule:evenodd;stroke-width:0.26458332"
         inkscape:connector-curvature="0"
         d="m 114.5945,210.4523 c 1.39726,1.32503 2.8141,2.32595 4.65402,2.5564 2.5146,0.31512 3.82719,-0.99509 3.33242,-3.49064 -0.38497,-1.94152 -0.90196,-3.85736 -1.38588,-5.77824 -1.03056,-4.08993 0.694,-6.93764 4.78816,-7.88961 2.30955,-0.53684 5.08344,0.49107 7.26572,1.3671 0.99537,0.39952 0.77788,0.68739 0.20294,1.53326 -0.29078,0.4273 -0.52705,0.0892 -0.76623,-0.0442 -0.81307,-0.45376 -1.64783,-0.83053 -2.59504,-0.90858 -2.18757,-0.18045 -3.35915,1.0914 -2.89639,3.24458 0.3511,1.63407 0.80909,3.24512 1.21126,4.86834 1.42425,5.74913 -1.05939,9.07468 -7.03633,9.4054 -1.83356,0.1016 -3.60468,-0.23944 -5.28611,-0.95779 -2.15503,-0.92048 -2.35744,-1.46129 -1.48854,-3.90604 z"
         id="path2532" />
      <path
         style="fill:#0c4da2;stroke-width:0.26458332"
         inkscape:connector-curvature="0"
         d="m 141.33435,211.54873 h -1.21391 v -10.47141 h 1.21391 z"
         id="path2538" />
      <path
         style="fill:#0c4da2;stroke-width:0.26458332"
         inkscape:connector-curvature="0"
         d="m 144.94114,207.81652 v 3.73221 h -1.11627 v -7.42976 h 1.11627 v 1.40229 c 0.6231,-1.0369 1.38827,-1.55575 2.29527,-1.55575 0.19526,0 0.33946,0.014 0.43259,0.0418 v 1.12316 c -0.12568,-0.0463 -0.29289,-0.0698 -0.50218,-0.0698 -0.57203,0 -1.08585,0.26035 -1.54173,0.78132 -0.45587,0.52096 -0.68395,1.17924 -0.68395,1.97458 z"
         id="path2540" />
      <path
         style="fill:#0c4da2;stroke-width:0.26458332"
         inkscape:connector-curvature="0"
         d="m 154.47091,207.97686 h -5.01597 c 0.12091,1.84653 0.87206,2.76966 2.25345,2.76966 0.41381,0 0.78608,-0.0675 1.11628,-0.20241 0.3302,-0.13494 0.74877,-0.37677 1.25571,-0.72549 v 1.15808 c -0.73475,0.48842 -1.52082,0.73264 -2.35796,0.73264 -1.10702,0 -1.95686,-0.35587 -2.55006,-1.06733 -0.59267,-0.71147 -0.88926,-1.64386 -0.88926,-2.79744 0,-1.15808 0.29289,-2.09524 0.87894,-2.81147 0.58605,-0.71622 1.35811,-1.07447 2.31617,-1.07447 1.86028,0 2.85776,1.33932 2.9927,4.01823 z m -1.18613,-0.9279 c -0.21405,-1.42319 -0.82312,-2.13465 -1.82774,-2.13465 -0.47916,0 -0.90461,0.18838 -1.27662,0.56515 -0.372,0.37676 -0.60457,0.89984 -0.6977,1.56977 h 3.80206 z"
         id="path2542" />
      <path
         style="fill:#0c4da2;stroke-width:0.26458332"
         inkscape:connector-curvature="0"
         d="m 157.17759,211.54873 h -1.10913 v -10.07374 l 1.10913,-0.39767 z"
         id="path2544" />
      <path
         style="fill:#0c4da2;stroke-width:0.26458332"
         inkscape:connector-curvature="0"
         d="m 164.37717,211.54873 h -0.91387 l -0.19526,-0.80221 c -0.68368,0.64188 -1.41632,0.96282 -2.19763,0.96282 -0.6186,0 -1.13612,-0.17093 -1.55231,-0.51277 -0.41619,-0.34157 -0.62415,-0.83343 -0.62415,-1.47531 0,-0.65591 0.18018,-1.14406 0.54054,-1.465 0.36036,-0.32094 0.89429,-0.60008 1.60126,-0.83714 l 1.68831,-0.56515 c 0.24182,-0.0836 0.3929,-0.15108 0.45349,-0.20241 0.0606,-0.0513 0.0908,-0.17198 0.0908,-0.36274 0,-0.54875 -0.12779,-0.91493 -0.38364,-1.09882 -0.25585,-0.18362 -0.60934,-0.27569 -1.06045,-0.27569 -0.83238,0 -1.68117,0.32094 -2.54635,0.96281 v -1.1721 c 0.81386,-0.49768 1.69068,-0.74639 2.62996,-0.74639 0.85566,0 1.4814,0.19526 1.87669,0.58605 0.39528,0.39079 0.59293,1.093 0.59293,2.10688 v 4.89717 z m -1.10913,-1.74413 v -2.23943 c -0.10689,0.0698 -0.27676,0.14658 -0.50932,0.23018 -1.21841,0.4326 -1.97194,0.76174 -2.26034,0.9869 -0.2884,0.22595 -0.43259,0.53155 -0.43259,0.91757 0,0.69771 0.3929,1.04643 1.17898,1.04643 0.62336,2.6e-4 1.29778,-0.31379 2.02327,-0.94165 z"
         id="path2546" />
      <path
         style="fill:#0c4da2;stroke-width:0.26458332"
         inkscape:connector-curvature="0"
         d="m 172.10009,211.54873 h -1.10913 v -4.93236 c 0,-0.62309 -0.0931,-1.04987 -0.27913,-1.28032 -0.18601,-0.23019 -0.44424,-0.34528 -0.77444,-0.34528 -0.38603,0 -0.76861,0.0897 -1.1475,0.26882 -0.37941,0.17886 -0.81518,0.42651 -1.3081,0.74295 v 5.54619 h -1.10913 v -7.42976 h 1.10913 v 0.94192 c 1.00463,-0.73475 1.89759,-1.10226 2.67891,-1.10226 0.60007,0 1.07315,0.20347 1.41975,0.61039 0.34634,0.4072 0.51964,1.02897 0.51964,1.86611 z"
         id="path2548" />
      <path
         style="fill:#0c4da2;stroke-width:0.26458332"
         inkscape:connector-curvature="0"
         d="m 179.86456,211.54873 h -0.91387 l -0.19527,-0.80221 c -0.60933,0.64188 -1.28825,0.96282 -2.03702,0.96282 -0.99986,0 -1.7616,-0.37201 -2.28468,-1.11628 -0.52361,-0.74401 -0.78502,-1.64862 -0.78502,-2.71383 0,-1.10702 0.26141,-2.03703 0.78502,-2.79056 0.52308,-0.75354 1.26603,-1.13004 2.22885,-1.13004 0.77682,0 1.47426,0.30242 2.09285,0.90699 v -3.7883 h 1.10914 z m -1.10914,-1.77191 v -3.83011 c -0.64188,-0.68818 -1.30228,-1.0324 -1.9812,-1.0324 -0.58605,0 -1.05806,0.25717 -1.41631,0.77073 -0.35825,0.51408 -0.5371,1.22449 -0.5371,2.13148 0,0.85566 0.17303,1.5584 0.5199,2.10688 0.34634,0.54874 0.84058,0.82312 1.48246,0.82312 0.6231,0 1.26709,-0.32332 1.93225,-0.9697 z"
         id="path2550" />
    </g>
  </g>
</svg>
