<?xml version="1.0" encoding="utf-8"?>
<!DOCTYPE svg PUBLIC "-//W3C//DTD SVG 1.1//EN" "http://www.w3.org/Graphics/SVG/1.1/DTD/svg11.dtd">
<svg version="1.1"
	 id="svg3494" xmlns:inkscape="http://www.inkscape.org/namespaces/inkscape" xmlns:sodipodi="http://sodipodi.sourceforge.net/DTD/sodipodi-0.dtd" xmlns:svg="http://www.w3.org/2000/svg" xmlns:rdf="http://www.w3.org/1999/02/22-rdf-syntax-ns#" xmlns:dc="http://purl.org/dc/elements/1.1/" xmlns:cc="http://creativecommons.org/ns#" sodipodi:docname="New document 3" inkscape:version="0.48.2 r9819"
	 xmlns="http://www.w3.org/2000/svg" xmlns:xlink="http://www.w3.org/1999/xlink" x="0px" y="0px" width="300px" height="296.537px"
	 viewBox="0 0 300 296.537" enable-background="new 0 0 300 296.537" xml:space="preserve">
<sodipodi:namedview  id="base" pagecolor="#ffffff" fit-margin-left="0" fit-margin-top="0" showgrid="false" inkscape:cy="78.802592" inkscape:cx="122.6603" inkscape:zoom="0.35" borderopacity="1.0" bordercolor="#666666" inkscape:window-maximized="1" inkscape:window-y="-8" inkscape:window-x="-8" inkscape:window-height="706" inkscape:window-width="1366" fit-margin-bottom="0" inkscape:current-layer="layer1" inkscape:pageshadow="2" inkscape:pageopacity="0.0" fit-margin-right="0" inkscape:document-units="px">
	</sodipodi:namedview>
<g>
	<path fill="#231F20" d="M10.705,270.369c1.923,1.488,5.031,3.941,9.716,3.941c5.602,0,6.825-3.592,6.825-5.654
		c0-2.192-1.268-4.289-7.394-6.66c-7.09-2.714-9.102-5.128-9.102-9.242c0-5.127,3.852-8.505,9.979-8.505
		c4.241,0,6.78,1.538,8.489,2.677v4.251c-1.271-1.139-4.027-3.64-8.534-3.64c-4.421,0-6.345,2.415-6.345,4.867
		c0,2.804,2.054,4.16,7.043,6.219c5.688,2.368,9.455,4.34,9.455,9.768c0,6.402-4.77,9.211-10.283,9.211
		c-3.678,0-6.696-1.011-9.849-2.988V270.369"/>
	<path fill="#231F20" d="M59.711,277.001L48.867,244.85h-4.831l-10.839,32.151h3.73l2.853-8.627h13.124l2.853,8.627H59.711
		 M40.833,265.19l5.532-16.607l5.487,16.607H40.833z"/>
	<path fill="#231F20" d="M62.556,270.369c1.929,1.488,5.035,3.941,9.716,3.941c5.602,0,6.829-3.592,6.829-5.654
		c0-2.192-1.267-4.289-7.398-6.66c-7.092-2.714-9.105-5.128-9.105-9.242c0-5.127,3.855-8.505,9.981-8.505
		c4.247,0,6.785,1.538,8.495,2.677v4.251c-1.27-1.139-4.028-3.64-8.538-3.64c-4.421,0-6.346,2.415-6.346,4.867
		c0,2.804,2.054,4.16,7.048,6.219c5.688,2.368,9.452,4.34,9.452,9.768c0,6.402-4.767,9.211-10.285,9.211
		c-3.677,0-6.7-1.011-9.849-2.988V270.369"/>
	<path fill="#231F20" d="M118.841,251.613c-1.8-1.66-4.475-4.075-8.905-4.075c-7.062,0-9.827,6.707-9.827,13.321
		c0,5.605,1.756,13.452,9.827,13.452c3.906,0,6.274-1.49,9.344-3.99v4.209c-2.017,1.318-4.475,3.072-9.344,3.072
		c-9.518,0-13.667-7.849-13.667-16.61c0-8.327,4.148-16.742,13.71-16.742c4.387,0,6.975,1.671,8.862,3.026V251.613"/>
	<path fill="#231F20" d="M142.01,265.583c0-6.909-3.94-11.86-9.896-11.86c-5.962,0-9.945,4.863-9.945,11.817
		c0,6.875,3.895,11.908,9.9,11.908C137.895,277.448,142.01,272.675,142.01,265.583 M138.421,265.407
		c0,4.593-1.797,9.104-6.351,9.104c-4.822,0-6.312-5.204-6.312-8.928c0-4.066,1.623-8.92,6.356-8.92
		C136.054,256.663,138.421,260.601,138.421,265.407z"/>
	<path fill="#231F20" d="M172.811,277.001v-15.489c0-2.845-0.701-4.652-2.809-4.652c-2.146,0-4.159,1.053-6.917,3.159
		c0.044,0.925,0.044,1.053,0.044,1.493v15.489h-3.433v-15.186c0-2.979-0.569-4.956-2.843-4.956c-2.021,0-3.988,1.011-6.835,3.116
		v17.025h-3.434v-22.799h3.434v2.88c3.196-2.449,5.123-3.364,7.485-3.364c3.031,0,4.61,1.703,5.052,3.625
		c2.361-1.832,4.946-3.625,8.234-3.625c4.571,0,5.444,4.328,5.444,7.534v15.749H172.811"/>
	<path fill="#231F20" d="M208.781,277.001v-15.489c0-2.845-0.701-4.652-2.807-4.652c-2.148,0-4.162,1.053-6.918,3.159
		c0.045,0.925,0.045,1.053,0.045,1.493v15.489h-3.43v-15.186c0-2.979-0.57-4.956-2.847-4.956c-2.021,0-3.988,1.011-6.836,3.116
		v17.025h-3.433v-22.799h3.433v2.88c3.197-2.449,5.123-3.364,7.492-3.364c3.024,0,4.604,1.703,5.044,3.625
		c2.372-1.832,4.949-3.625,8.237-3.625c4.57,0,5.444,4.328,5.444,7.534v15.749H208.781"/>
	<path fill="#231F20" d="M233.008,276.969l-0.612-2.439c-1.664,1.129-4.431,2.919-8.06,2.919c-4.031,0-6.103-3.005-6.103-7.567
		v-15.708h3.434v15.091c0,3.638,1.096,5.047,3.589,5.047c2.539,0,4.73-1.229,7.14-2.765v-17.373h3.429v22.796H233.008"/>
	<path fill="#231F20" d="M243.341,257.009h-3.859v-2.836h3.859v-6.889l3.433-1.232v8.121h5v2.836h-5v13.86
		c0,3.025,0.787,3.642,2.585,3.642c1.276,0,1.978-0.307,2.591-0.53v3.157c-0.745,0.182-1.447,0.311-2.941,0.311
		c-5.008,0-5.667-2.191-5.667-5.968V257.009"/>
	<path fill="#231F20" d="M273.029,266.037c-0.129-9.028-4.256-12.314-9.169-12.314c-5.968,0-9.827,4.644-9.827,11.92
		c0,4.59,1.797,11.806,10.571,11.806c3.382,0,5.401-1.096,7.242-2.236v-3.543c-2.285,1.57-4.084,2.842-7.198,2.842
		c-5.266,0-6.892-4.413-7.025-8.474H273.029 M257.715,263.189c0.308-2.802,2.327-6.525,6.099-6.525c3.823,0,5.268,3.724,5.576,6.525
		H257.715z"/>
	<path fill="#231F20" d="M280.921,277.001h-3.432v-22.799h3.432v3.844c1.841-2.454,3.767-4.328,7.063-4.328
		c0.699,0,1.005,0.042,1.311,0.133v3.583c-0.351-0.091-0.788-0.223-1.533-0.223c-3.201,0-6.84,3.031-6.84,8.338V277.001"/>
	<path fill-rule="evenodd" clip-rule="evenodd" fill="#004FA3" d="M46.965,216.325c0,3.361,2.744,6.104,6.105,6.104l191.247-0.035
		c3.355,0,6.102-2.748,6.102-6.106l-0.033-191.247c0-3.358-2.747-6.106-6.108-6.106L53.032,18.971
		c-3.358,0.005-6.106,2.752-6.106,6.104L46.965,216.325"/>
	<path fill="#FFFFFF" d="M145.686,153.941l-13.332,0.005c0,0-0.087,0.017-0.143-0.061c-0.055-0.08,0.046-0.197,0.046-0.197
		l17.726-22.736c0,0,0.135-0.175,0.271-0.175c0.142,0,0.087,0.192,0.087,0.192l-4.438,22.796c0,0-0.02,0.096-0.057,0.138
		C145.807,153.941,145.686,153.941,145.686,153.941 M174.707,113.586c-6.737,0.004-15.97,0.004-17.216,0.004
		c-0.869,0-1.228,0.499-1.228,0.499l-47.441,58.842c-0.274,0.343-0.216,0.694,0.258,0.694c1.086,0,5.469,0,7.025,0
		c0.702,0,0.772-0.196,0.899-0.377l10.096-12.944c0,0,0.162-0.239,0.367-0.239c0.167,0,16.953,0,16.953,0s0.259-0.018,0.208,0.239
		c-0.05,0.253-2.472,12.691-2.472,12.691c-0.033,0.172,0.021,0.63,0.607,0.63c2.214,0,18.158-0.01,20.485-0.01
		c0.295,0,0.402-0.098,0.458-0.384l11.536-59.03C175.243,114.203,175.447,113.586,174.707,113.586z"/>
	<path fill="#FFFFFF" d="M63.002,166.117c-0.171,0.702,0.211,1.302,1.485,2.354c2.403,1.974,9.52,6.271,20.821,6.271
		c20.341-0.014,27.723-13.154,25.14-24.306c-0.691-2.975-4.502-18.395-5.053-20.569c-1.6-6.311,1.463-10.857,7.486-10.862
		c5.155-0.004,8.368,1.945,11.182,3.713c0.528,0.339,0.92,0.521,1.059-0.096c0.084-0.36,1.009-5.156,1.009-5.156
		s0.275-0.929-0.938-1.565c-1.871-0.977-6.53-3.609-16.335-3.614c-18.247-0.015-26.013,11.702-22.835,24.395
		c1.018,4.058,5.088,19.263,5.102,22.196c0,1.125,0.596,8.889-8.757,8.889c-8.683,0-14.662-5.932-16.678-7.985
		c-0.333-0.343-0.779-0.155-0.986,0.595C64.597,160.765,63.002,166.117,63.002,166.117"/>
	<path fill="#FFFFFF" d="M170.888,166.432c-0.17,0.701,0.219,1.296,1.494,2.349c2.397,1.978,8.955,5.94,20.252,5.94
		c20.342-0.008,27.722-13.148,25.141-24.301c-0.689-2.974-4.502-18.398-5.052-20.568c-1.604-6.315,1.471-10.861,7.487-10.865
		c5.153-0.005,8.367,1.95,11.181,3.717c0.53,0.336,0.924,0.516,1.057-0.098c0.082-0.358,1.011-5.158,1.011-5.158
		s0.278-0.929-0.938-1.564c-1.874-0.974-6.532-3.608-16.338-3.617c-18.247-0.008-26.01,11.703-22.837,24.396
		c1.021,4.063,5.09,19.269,5.104,22.202c0.005,1.125,0.599,8.881-8.752,8.881c-8.686,0.01-14.417-5.722-16.454-7.756
		c-0.45-0.445-1.117-0.282-1.21,0.372C171.973,160.755,170.888,166.432,170.888,166.432"/>
</g>
</svg>
