<svg id="TEXT" xmlns="http://www.w3.org/2000/svg" width="4505" height="471" viewBox="0 0 4505 471">
  <defs>
    <style>
      .cls-1 {
        fill: #382e8f;
      }

      .cls-1, .cls-2, .cls-3, .cls-4, .cls-5 {
        fill-rule: evenodd;
      }

      .cls-2 {
        fill: #5e57ad;
      }

      .cls-3 {
        fill: #8582c9;
      }

      .cls-4 {
        fill: #adaee5;
      }

      .cls-5 {
        fill: #000071;
      }
    </style>
  </defs>
  <path class="cls-1" d="M959.419,255.154s-442.239.363-473.025,0.363-45.481,6.012-66.814,28.445-45.027,48.9-45.027,48.9H649.314l51.079-54.71a43.74,43.74,0,0,1,28.323-14.283c78.152-.121,143.231-0.242,221.383-0.363Z"/>
  <path class="cls-2" d="M1033.25,169.942s-442.236.363-473.022,0.363-45.481,6.012-66.814,28.445-45.027,48.9-45.027,48.9H723.148l51.079-54.71a43.733,43.733,0,0,1,28.324-14.283c78.151-.121,143.23-0.242,221.379-0.363Z"/>
  <path class="cls-3" d="M1107.33,84.73s-442.239.363-473.025,0.363-45.481,6.011-66.814,28.444-45.027,48.9-45.027,48.9H797.225L848.3,107.727a43.736,43.736,0,0,1,28.323-14.282c78.152-.121,143.233-0.242,221.383-0.363Z"/>
  <path class="cls-4" d="M1181.41-.482S739.167-.119,708.381-0.119,662.9,5.892,641.567,28.325s-45.027,48.9-45.027,48.9H871.3l51.079-54.71A43.739,43.739,0,0,1,950.7,8.232c78.156-.121,143.226-0.242,221.386-0.363Z"/>
  <path class="cls-5" d="M885.342,340.366s-442.239.364-473.025,0.364-45.481,6.011-66.814,28.444c-8.552,8.993-38.218,41.151-38.218,41.151s-146.254.124-182.559,0.124c-82.775,0-124.914,60.157-124.914,60.157s16.6-24.692,85.575-24.692H547.4l78.918-82.55a43.745,43.745,0,0,1,28.324-14.283c78.151-.121,143.23-0.242,221.382-0.363Z"/>
  <path class="cls-5" d="M1608.42,33.181H1320.03c-28.82,0-52.01,11.423-59.71,20.206s-55.68,62.857-65.21,74.4-24.45,36.738,31.23,36.738,72.56,13.26,72.56,33.065-7,31.228-31.23,31.228H1141.84c-14.12,0-20.78,1.32-28.47,11.021s-18.02,22.445-26.64,33.984,8.62,9.184,20.21,9.184h272.79c28.12,0,40.75-5.109,51.43-19.287s64.64-85.935,72.56-101.95-14.35-33.983-63.38-33.983-49.59-26.235-49.59-32.147,16.88-29.908,49.59-29.391,105.06,0,121.24,0,21.47-.517,32.15-11.94S1623.12,33.181,1608.42,33.181Z"/>
  <path class="cls-5" d="M1858.25,92.882H1633.22c-38.92,0-56.6,22.444-79.9,58.782s-46.5,75.715-48.68,90.009-11.6,40.413,41.33,40.413H1756.3c19.86,0,29.73-1.436,39.49-14.7s27.9-25.717-2.75-25.717H1658.02c-29.74,0-25.37-46.841,16.53-46.841h148.79c11.6,0,15.05-.518,26.64-14.7s32.49-42.767,38.58-52.352S1891.31,92.882,1858.25,92.882Zm-185.53,68.885h38.57l14.7-22.962s0.06-9.185-17.45-9.185c-14.76,0-20.21,8.267-20.21,8.267Z"/>
  <path class="cls-5" d="M2159.5,93.8H1951.93c-29.73,0,15.04,16.192,4.59,26.636-14.19,14.195-111.71,148.3-118.48,157.058s8.61,7.347,17.45,7.347h74.4c11.6,0,16.87-5.087,23.88-15.614s83.92-118.977,95.52-131.34,24.22-16.533,40.41-16.533,27.89,16.037,18.37,31.228-79.57,117.069-83.58,123.075,2.18,8.266,13.78,8.266h74.39c13.44,0,15.04-.5,20.21-7.348s77.49-115.3,86.33-128.585,26.06-27.554,42.25-27.554,39.84,11.445,24.8,34.9-62.11,104.21-67.96,113.89-10.69,16.533,9.18,16.533h78.99c12.52,0,4.01-13.354,6.43-20.206s81.16-126.326,90.93-141.444-2.42-32.147-52.36-32.147c-97.69,0-106.19,18.37-124.91,18.37C2206.01,110.333,2221.96,93.8,2159.5,93.8Z"/>
  <path class="cls-5" d="M2674.76,96.556H2482.8c-20.43,0-9.87,12.174-16.53,22.043s-155.95,214.746-168.08,234.209,8.01,15.155,19.29,15.155h78.99c17.69,0,18.13-2.94,30.31-20.666s37.89-58.521,47.76-75.314,18.15,8.266,52.35,8.266c19.5,0,90.74-1.127,132.26-38.576s70.08-79.216,71.64-106.542S2716.09,96.556,2674.76,96.556Zm-110.21,55.108s-26.22,41.429-33.99,55.567c-11.71,21.329-9.85,37.2,6.89,37.2,22.26,0,29.19-10.31,39.04-23.88s32.41-51.195,39.03-60.619,12.65-31.687-12.4-31.687S2576.94,136.512,2564.55,151.664Z"/>
  <path class="cls-5" d="M2992.55,97.474H2853.86c-13.38,0-30.7-9.7-40.41,3.674s-20.6,27.042-11.94,27.554,19.81-5.511,37.66-5.511h86.34c19.68,0,25.32,38.576-13.78,38.576s-112.45-6.023-155.22,14.695-57.39,76.7-25.72,99.2c40.81,28.984,87.78-3.674,105.62-3.674s-5.9,12.858,41.33,12.858h91.85c15.09,0-1.31-13.37,6.43-25.717s58.39-92.358,70.72-110.216S3055.93,97.474,2992.55,97.474Zm-144.2,107.461c-15.1,15.1-2.06,26.635,5.51,26.635s18.15,2.416,32.15-11.021,17.23-32.147-1.84-32.147S2861.67,191.617,2848.35,204.935Z"/>
  <path class="cls-5" d="M3293.81,57.98h-70.72c-10.91,0-14.81,2.383-21.13,9.185S3183.48,87,3179,91.963s-8.38,6.975-19.29,7.348-22.61,0-30.31,0-9.29,3.761-13.77,10.1-10.22,17.451,3.67,17.451,17.8,1.924,17.45,8.266-30.42,35.907-38.57,47.761-33.99,41.876-33.99,69.8,19.18,31.228,29.39,31.228h132.26c13.89,0,13.21.086,17.45-4.593s15.96-21.5,19.29-27.553-1.49-10.1-9.18-10.1h-44.09c-10.91,0-22.61-11.853-18.37-21.124s45.81-72.932,56.95-84.5,18.25-11.022,33.06-11.022h53.27c8.38,0,10.08.632,13.78-2.755s14.75-14.753,18.37-18.37,1.81-5.511-6.43-5.511h-68.89c-8.92,0-6.14-12.227-.91-17.451s12.45-12.456,15.61-15.614S3314.94,57.98,3293.81,57.98Z"/>
  <path class="cls-5" d="M3493.12,98.393h-63.38c-14.58,0-15.26-1.75-22.96,8.267S3294.16,266.1,3289.22,274.738s-4.25,12.027,7.35,11.94,64.63,0,77.15,0,13.66-4.965,18.37-12.858,103.21-153.757,108.38-161.65S3509.65,98.393,3493.12,98.393Zm-46.84-35.82h78.98c13.44,0,12.75-4.965,19.29-11.94s8.15-12.859-2.75-12.859h-74.4c-9.53,0-12.95,1.12-20.21,10.1C3441.32,55.151,3433.3,62.572,3446.28,62.572Z"/>
  <path class="cls-5" d="M4197.58,104.822h-63.37c-14.58,0-15.27-1.75-22.96,8.266s-112.63,159.441-117.57,168.079-4.24,12.027,7.35,11.941,64.64,0,77.15,0,13.66-4.965,18.37-12.859,103.21-153.757,108.38-161.65S4214.11,104.822,4197.58,104.822ZM4150.74,69h78.99c13.43,0,12.74-4.965,19.29-11.94s8.15-12.858-2.76-12.858h-74.4c-9.53,0-12.94,1.12-20.2,10.1C4145.78,61.58,4137.77,69,4150.74,69Z"/>
  <path class="cls-5" d="M3831.11,104.822s-57.06,50.143-68.88,59.7-11.14,13.777,8.26,13.777h49.6c12.97,0,20.09-6.343,23.88-14.695s14.7-50.335,14.7-56.027c0-7.893.34-11.021-9.19-11.021C3845,96.556,3840.76,98.393,3831.11,104.822Zm163.49-66.13H3873.36c-16.24,0-14.98,8.64-36.74,22.043s-260.21,204.274-273.7,214,0.63,12.314,15.62,11.94,38.28,0,52.35,0,7.98-19.832,17.45-27.554,42.88-38.2,50.51-44.086,19.92-8.266,32.15-8.266h89.09c15.9,0,16.25,10.476,11.94,27.554s-12.22,36.194-13.78,43.168,0.64,11.94,13.78,11.94h108.38c18.66,0,12.57-13.4,14.7-22.962s40.12-195.26,44.08-207.574S4006.54,38.692,3994.6,38.692Z"/>
  <path class="cls-5" d="M4377.6,100.229h-78.99c-11.87,0-11.09,2.843-18.37,10.1s-113.04,160.818-118.48,169,0.39,11.022,7.35,11.022h85.42c11.55,0,13.24-6.8,17.45-12.858s52.28-84.872,64.29-102.869,31.16-45,82.66-45c42.32,0,40.8,3.674,63.38,3.674,8.79,0,14.7-11.064,18.37-17.451,7.56-13.164,8.66-14.7-22.05-14.7-56.41,0-67.57,12.858-78.07,12.858S4394.59,100.229,4377.6,100.229Z"/>
  <path class="cls-5" d="M992.26,387H4405.01l-40.27,39H951.987Z"/>
</svg>
