<?xml version="1.0" encoding="utf-8"?>
<!-- Generator: Adobe Illustrator 16.0.3, SVG Export Plug-In . SVG Version: 6.00 Build 0)  -->
<!DOCTYPE svg PUBLIC "-//W3C//DTD SVG 1.1//EN" "http://www.w3.org/Graphics/SVG/1.1/DTD/svg11.dtd">
<svg version="1.1" id="Ebene_2" xmlns="http://www.w3.org/2000/svg" xmlns:xlink="http://www.w3.org/1999/xlink" x="0px" y="0px"
	 width="116.362px" height="52.952px" viewBox="0 0 116.362 52.952" enable-background="new 0 0 116.362 52.952"
	 xml:space="preserve">
<path id="path4104" fill="#00436C" d="M53.147,9.92c-10.153,0.053-9.688,7.299-9.688,7.299l7.093,0.02
	c-0.422-0.944-0.274-2.086,2.837-2.315c3.111-0.23,3.583,2.296,3.583,2.296h7.188C63.904,15.166,63.444,9.868,53.147,9.92z
	 M86.486,10.947l-20.271,0.019v6.273h20.271V10.947z M87.978,10.947v6.292c0,0,8.074-0.03,10.641,0
	c2.568,0.028,5.163,1.067,5.34,5.693c0.173,4.625-3.299,6.175-4.725,6.233c-0.842,0.037-4.199-0.035-4.199-0.035V18.974h-7.057
	l-0.019,15.921c0,0,8.042,0.146,12.582,0c4.539-0.145,10.951-1.567,10.863-12.712c-0.089-11.142-11.44-11.236-11.44-11.236H87.978z
	 M43.627,18.955c0,0,0.092,5.013,9.595,6.42c3.888,0.577,4.609,1.82,4.666,2.482c0.058,0.666-0.268,2.097-4.012,2.297
	c-3.746,0.201-3.939-3.359-3.939-3.359l-7.224-0.021c0.047,6.857,5.869,8.809,11.629,8.605c5.182-0.181,11.031-2.69,10.771-8.94
	c-0.255-6.085-10.344-7.063-10.79-7.485H43.627z M66.233,18.974v15.959c0,0,7.309,0,7.28,0s0-10.546,0-10.546h13.009v-5.414H66.233z
	"/>
<g>
	<path fill="#00436C" d="M43.856,47.99l2.829-5.834h0.77l2.758,5.834h-0.7l-0.83-1.831h-3.278l-0.85,1.831H43.856z M45.635,45.689
		h2.819l-1.409-3.063L45.635,45.689z"/>
	<path fill="#00436C" d="M53.556,42.156h0.71l2.168,5.186l2.159-5.186h0.709l-2.499,5.834h-0.75L53.556,42.156z"/>
	<path fill="#00436C" d="M63.535,47.99v-5.834h0.68v5.834H63.535z"/>
	<path fill="#00436C" d="M68.417,47.99l2.828-5.834h0.77l2.759,5.834h-0.7l-0.829-1.831h-3.278l-0.85,1.831H68.417z M70.195,45.689
		h2.818l-1.409-3.063L70.195,45.689z"/>
	<path fill="#00436C" d="M78.096,42.156h5.237v0.47h-2.279v5.364h-0.68v-5.364h-2.278V42.156z"/>
	<path fill="#00436C" d="M87.545,47.99v-5.834h0.68v5.834H87.545z"/>
	<path fill="#00436C" d="M96.125,42.002c2.249,0,3.389,1.369,3.389,3.078c0,1.678-1.14,3.063-3.358,3.063s-3.349-1.386-3.349-3.063
		C92.796,43.379,93.976,42.002,96.125,42.002z M98.833,45.081c0-1.62-1.029-2.608-2.688-2.608c-1.85,0-2.659,1.256-2.659,2.608
		c0,1.378,0.8,2.593,2.679,2.593C98.034,47.673,98.833,46.442,98.833,45.081z"/>
	<path fill="#00436C" d="M104.546,42.902h-0.021v5.088h-0.679v-5.834h0.77l4.157,5.097h0.021v-5.097h0.679v5.834h-0.789
		L104.546,42.902z"/>
</g>
<path fill="#00436C" d="M4.957,4.883"/>
<path fill="#00436C" d="M45.415,35.175"/>
<g>
	<path fill="#00436C" d="M27.06,17.239l-9.432-9.217c0,0-3-3.061-12.672-3.061l4.669,12.277H27.06z"/>
	<path fill="#00436C" d="M28.835,18.974h-18.55l1.296,3.41c0,0,4.156,12.792,24.458,12.792h9.375L28.835,18.974z"/>
</g>
</svg>
