<?xml version="1.0" encoding="UTF-8" standalone="no"?>
<!-- Created with Inkscape (http://www.inkscape.org/) -->

<svg
   xmlns:dc="http://purl.org/dc/elements/1.1/"
   xmlns:cc="http://creativecommons.org/ns#"
   xmlns:rdf="http://www.w3.org/1999/02/22-rdf-syntax-ns#"
   xmlns:svg="http://www.w3.org/2000/svg"
   xmlns="http://www.w3.org/2000/svg"
   xmlns:sodipodi="http://sodipodi.sourceforge.net/DTD/sodipodi-0.dtd"
   xmlns:inkscape="http://www.inkscape.org/namespaces/inkscape"
   width="238.63965"
   height="80.588692"
   viewBox="0 0 63.140075 21.322425"
   version="1.1"
   id="svg5250"
   inkscape:version="0.92.0 r15299"
   sodipodi:docname="silver airways.svg">
  <defs
     id="defs5244">
    <clipPath
       id="clipPath646"
       clipPathUnits="userSpaceOnUse">
      <path
         inkscape:connector-curvature="0"
         id="path644"
         d="M 0,792 H 612 V 0 H 0 Z" />
    </clipPath>
  </defs>
  <sodipodi:namedview
     id="base"
     pagecolor="#ffffff"
     bordercolor="#666666"
     borderopacity="1.0"
     inkscape:pageopacity="0.0"
     inkscape:pageshadow="2"
     inkscape:zoom="1.5117979"
     inkscape:cx="283.76167"
     inkscape:cy="-17.305363"
     inkscape:document-units="mm"
     inkscape:current-layer="layer1"
     showgrid="false"
     fit-margin-top="0"
     fit-margin-left="0"
     fit-margin-right="0"
     fit-margin-bottom="0"
     units="px"
     inkscape:window-width="1280"
     inkscape:window-height="744"
     inkscape:window-x="-4"
     inkscape:window-y="-4"
     inkscape:window-maximized="1" />
  <metadata
     id="metadata5247">
    <rdf:RDF>
      <cc:Work
         rdf:about="">
        <dc:format>image/svg+xml</dc:format>
        <dc:type
           rdf:resource="http://purl.org/dc/dcmitype/StillImage" />
        <dc:title></dc:title>
      </cc:Work>
    </rdf:RDF>
  </metadata>
  <g
     inkscape:label="Layer 1"
     inkscape:groupmode="layer"
     id="layer1"
     transform="translate(-66.212403,-138.66351)">
    <g
       id="g5449"
       style="fill:#a2a9ae;fill-opacity:1"
       transform="translate(0.2645832,-0.26457817)">
      <path
         d="m 125.97569,147.75033 c 0.72813,-1.16522 2.84762,-1.05833 2.84762,-1.05833 l -0.16757,1.57197 c -2.42111,0.004 -2.47861,2.1075 -2.47861,2.1075 l -0.0236,4.324 h -1.87678 v -7.80274 h 1.5046 c 0.14605,0.49318 0.19438,0.8576 0.19438,0.8576"
         style="fill:#a2a9ae;fill-opacity:1;fill-rule:nonzero;stroke:none;stroke-width:0.35277778"
         id="path650"
         inkscape:connector-curvature="0" />
      <path
         d="m 107.23285,146.89012 h 1.99037 c 0.89782,3.54365 1.72297,5.77638 1.72297,5.77638 1.21355,-3.32493 1.65065,-5.77638 1.65065,-5.77638 h 1.85631 c -1.01917,4.7692 -2.53612,7.80274 -2.53612,7.80274 h -2.17205 c -1.79634,-4.61116 -2.51213,-7.80274 -2.51213,-7.80274"
         style="fill:#a2a9ae;fill-opacity:1;fill-rule:nonzero;stroke:none;stroke-width:0.35277778"
         id="path654"
         inkscape:connector-curvature="0" />
      <path
         d="m 119.00388,148.0914 c 1.73496,0 1.51694,1.84467 1.51694,1.84467 h -3.26425 c 0.0483,-1.84467 1.74731,-1.84467 1.74731,-1.84467 m 3.32493,3.04624 c 0.10901,-0.72849 0.10901,-1.22591 0.10901,-1.22591 -0.0363,-3.45863 -3.42512,-3.21839 -3.42512,-3.21839 -3.27307,0.13617 -3.53448,2.92453 -3.53448,2.92453 -0.28469,1.98049 0.28575,3.30341 0.28575,3.30341 0.86148,2.13572 3.51896,1.96603 3.51896,1.96603 2.20874,0.002 2.87619,-0.49742 2.87619,-0.49742 l -0.25223,-1.34232 c -1.7018,0.49248 -2.86667,0.34679 -2.86667,0.34679 -1.86867,-0.0727 -1.796,-2.25672 -1.796,-2.25672 z"
         style="fill:#a2a9ae;fill-opacity:1;fill-rule:nonzero;stroke:none;stroke-width:0.35277778"
         id="path658"
         inkscape:connector-curvature="0" />
      <path
         d="m 103.76209,143.33062 h 1.86055 v 6.61776 c -0.0483,3.38173 1.19768,3.28436 1.19768,3.28436 v 1.5374 c -3.15524,0.27482 -3.05823,-3.60856 -3.05823,-3.60856 z"
         style="fill:#a2a9ae;fill-opacity:1;fill-rule:nonzero;stroke:none;stroke-width:0.35277778"
         id="path662"
         inkscape:connector-curvature="0" />
      <path
         d="m 101.57737,154.69289 h -1.86055 v -4.13173 c 0.04868,-2.13466 -0.616656,-2.11984 -0.614892,-2.11984 v -1.53706 c 2.670172,-0.35489 2.475442,2.10326 2.475442,2.10326 z"
         style="fill:#a2a9ae;fill-opacity:1;fill-rule:nonzero;stroke:none;stroke-width:0.35277778"
         id="path666"
         inkscape:connector-curvature="0" />
      <path
         d="m 101.77203,144.51162 c 0,0.65264 -0.54328,1.18145 -1.21356,1.18145 -0.670273,0 -1.213551,-0.52881 -1.213551,-1.18145 0,-0.65229 0.543278,-1.1811 1.213551,-1.1811 0.67028,0 1.21356,0.52881 1.21356,1.1811"
         style="fill:#a2a9ae;fill-opacity:1;fill-rule:nonzero;stroke:none;stroke-width:0.35277778"
         id="path670"
         inkscape:connector-curvature="0" />
      <path
         d="m 96.57819,145.79009 0.339725,-1.53705 c -3.154892,-0.84138 -4.465814,0.0808 -4.465814,0.0808 -1.305278,0.85514 -1.605844,2.05317 -1.407583,3.05823 0.242711,1.22838 1.310569,1.8796 1.310569,1.8796 0.873831,0.62689 2.281414,1.2753 2.281414,1.2753 0.922161,0.45296 1.051983,1.1811 0.857603,1.79599 -0.216958,0.68721 -1.249186,0.86818 -1.249186,0.86818 -1.973792,0.19403 -3.054703,-0.35066 -3.054703,-0.35066 l -0.291394,1.56986 c 1.860902,0.66323 3.948288,0.31115 3.948288,0.31115 1.66617,-0.27904 2.495903,-1.56457 2.66947,-2.33362 0.485422,-2.1523 -0.873478,-2.92418 -0.873478,-2.92418 -0.8255,-0.60325 -1.97485,-1.11619 -2.746728,-1.50495 -0.618772,-0.31185 -0.793397,-0.85972 -0.793397,-0.85972 -0.327025,-1.19979 0.886531,-1.52329 0.886531,-1.52329 1.617839,-0.30727 2.588683,0.19438 2.588683,0.19438"
         style="fill:#a2a9ae;fill-opacity:1;fill-rule:nonzero;stroke:none;stroke-width:0.35277778"
         id="path674"
         inkscape:connector-curvature="0" />
    </g>
    <path
       inkscape:connector-curvature="0"
       id="path704"
       style="fill:#c2c6ca;fill-opacity:1;fill-rule:nonzero;stroke:none;stroke-width:0.35277778"
       d="m 83.671991,142.14932 c 0.178153,0.30727 0.308328,0.5394 0.308328,0.5394 0.160866,0.29598 0.292805,0.46672 0.292805,0.46672 2.725914,3.48439 2.726267,8.40987 3.53e-4,11.89461 0,0 -0.131939,0.1711 -0.292805,0.46673 0,0 -0.130175,0.23248 -0.308328,0.53939 -0.02469,0.0427 -0.06738,0.0674 -0.06738,0.0674 -0.307622,0.17851 -0.53975,0.30833 -0.53975,0.30833 -0.294922,0.16051 -0.466372,0.29069 -0.46743,0.29175 -3.484739,2.72556 -8.408106,2.72521 -11.892492,-3.5e-4 0,0 -0.171097,-0.13194 -0.467077,-0.29316 0,0 -0.232128,-0.12983 -0.539398,-0.30798 -0.04269,-0.025 -0.06738,-0.0677 -0.06738,-0.0677 -0.178506,-0.30692 -0.308328,-0.53905 -0.308328,-0.53905 -0.160514,-0.29527 -0.2921,-0.46566 -0.292806,-0.46672 v -3.5e-4 c -2.725561,-3.48439 -2.725913,-8.40776 0,-11.89214 0,0 0.131939,-0.17075 0.292806,-0.46708 0,0 0.129822,-0.23213 0.308328,-0.5394 0.02469,-0.0427 0.06738,-0.0674 0.06738,-0.0674 0.30727,-0.17815 0.539398,-0.30797 0.539398,-0.30797 0.296333,-0.16122 0.466725,-0.29351 0.466725,-0.29351 3.484738,-2.72521 8.40881,-2.72592 11.893549,-3.6e-4 0,0 0.170392,0.1323 0.466372,0.29351 0,0 0.232481,0.12947 0.53975,0.30798 0.04269,0.0243 0.06738,0.0674 0.06738,0.0674 m 0.693914,0.43109 c -0.223308,-0.16898 -0.635,-0.49 -0.635,-0.49 0,0 -0.03351,-0.0236 -0.06738,-0.0674 0,0 -0.32138,-0.41205 -0.490008,-0.635 0,0 -0.179564,-0.24201 -0.262819,-0.30798 -3.668184,-2.86914 -8.850842,-2.86949 -12.519025,0 -0.0829,0.0656 -0.261761,0.30833 -0.261761,0.30833 -0.168981,0.22295 -0.490009,0.635 -0.490009,0.635 0,0 -0.02399,0.0332 -0.06738,0.0674 0,0 -0.412045,0.32103 -0.635,0.49001 0,0 -0.242711,0.17886 -0.308681,0.26211 -2.869141,3.66783 -2.869141,8.85084 0,12.51832 v 3.5e-4 c 0.06597,0.0833 0.308328,0.26176 0.308328,0.26176 0.223308,0.16934 0.635,0.49037 0.635,0.49037 0,0 0.03351,0.0236 0.06773,0.0674 0,0 0.321028,0.41204 0.490009,0.635 0,0 0.178858,0.24271 0.262114,0.30832 3.66783,2.86915 8.850488,2.86985 12.518672,3.6e-4 0.08326,-0.0656 0.263172,-0.30727 0.263172,-0.30727 0.168628,-0.22296 0.490008,-0.635 0.490008,-0.635 0,0 0.02364,-0.0332 0.06738,-0.067 0,0 0.412044,-0.32138 0.635,-0.49036 0,0 0.242358,-0.17886 0.308327,-0.26176 2.869495,-3.66783 2.869142,-8.85296 -3.52e-4,-12.52079 -0.06597,-0.0833 -0.308328,-0.26212 -0.308328,-0.26212" />
    <path
       inkscape:connector-curvature="0"
       id="path708"
       style="fill:#c2c6ca;fill-opacity:1;fill-rule:nonzero;stroke:none;stroke-width:0.35277778"
       d="m 82.527898,143.28276 c 0.116064,0.35313 0.174272,0.54222 0.174272,0.54222 0.08431,0.30339 0.179564,0.41557 0.179564,0.41557 l -3.53e-4,10e-4 c 2.228497,2.84833 2.229203,6.87458 0.0011,9.72291 0,0 -0.09525,0.11218 -0.179917,0.41628 0,0 -0.04833,0.19261 -0.174272,0.54222 -0.01517,0.0416 -0.0568,0.0564 -0.0568,0.0564 -0.353131,0.11606 -0.54222,0.17427 -0.54222,0.17427 -0.304094,0.085 -0.416983,0.17851 -0.416983,0.17851 -2.848681,2.22849 -6.873169,2.22849 -9.72185,0 0,0 -0.111831,-0.0953 -0.415925,-0.17992 0,0 -0.192969,-0.0483 -0.542572,-0.17427 -0.04128,-0.0152 -0.05645,-0.0568 -0.05645,-0.0568 -0.116064,-0.35313 -0.174272,-0.54222 -0.174272,-0.54222 -0.08467,-0.30409 -0.179917,-0.41628 -0.179917,-0.41628 -2.228144,-2.84832 -2.228144,-6.87281 0,-9.72149 0,0 0.09525,-0.11183 0.18027,-0.41593 0,0 0.04798,-0.19261 0.173919,-0.54222 0.01517,-0.0416 0.05645,-0.0568 0.05645,-0.0568 0.353483,-0.11572 0.542572,-0.17392 0.542572,-0.17392 0.303742,-0.085 0.415925,-0.17992 0.415925,-0.17992 2.848681,-2.2285 6.873875,-2.22885 9.722555,-7.1e-4 0,0 0.111831,0.0952 0.415925,0.18027 0,0 0.192617,0.0476 0.54222,0.17392 0.04198,0.0152 0.0568,0.0568 0.0568,0.0568 m 0.820914,0.3235 c -0.324203,-0.15805 -0.765528,-0.37465 -0.765528,-0.37465 0,0 -0.04092,-0.0201 -0.06103,-0.061 0,0 -0.216606,-0.44133 -0.37465,-0.76553 0,0 -0.04762,-0.10971 -0.135467,-0.17321 -3.141486,-2.45745 -7.580136,-2.45745 -10.721622,0 -0.08749,0.0635 -0.134761,0.17356 -0.134761,0.17356 -0.158045,0.3242 -0.37465,0.76553 -0.37465,0.76553 0,0 -0.02011,0.0413 -0.06138,0.061 0,0 -0.440972,0.21696 -0.765527,0.37465 0,0 -0.109714,0.0473 -0.173567,0.13511 -2.45745,3.14114 -2.45745,7.57979 0,10.72127 l 3.53e-4,-3.5e-4 c 0.0635,0.0878 0.173214,0.13511 0.173214,0.13511 0.324202,0.1577 0.765527,0.37465 0.765527,0.37465 0,0 0.04128,0.0201 0.06138,0.0614 0,0 0.216605,0.44132 0.37465,0.76517 0,0 0.04727,0.11042 0.134761,0.17392 3.141486,2.45745 7.580136,2.45745 10.721622,0 0.08749,-0.0635 0.135819,-0.17215 0.135819,-0.17215 0.158045,-0.32456 0.37465,-0.76553 0.37465,-0.76553 0,0 0.02011,-0.0413 0.06138,-0.061 0,0 0.440972,-0.21696 0.765175,-0.375 0,0 0.109361,-0.0487 0.172861,-0.13618 2.45745,-3.14148 2.45745,-7.58013 0,-10.72127 l 7.05e-4,-7e-4 c -0.0635,-0.0875 -0.173919,-0.13476 -0.173919,-0.13476" />
    <path
       inkscape:connector-curvature="0"
       id="path712"
       style="fill:#c2c6ca;fill-opacity:1;fill-rule:nonzero;stroke:none;stroke-width:0.35277778"
       d="m 81.388602,144.4272 c 0.150283,0.34537 0.197908,0.45261 0.197908,0.45261 0.09807,0.21767 0.14217,0.26071 0.14217,0.26071 l -7.06e-4,7e-4 c 1.8161,2.32128 1.8161,5.60105 0,7.92198 0,0 -0.04163,0.0466 -0.141464,0.26176 0,0 -0.04621,0.1076 -0.197908,0.45297 -0.0187,0.0427 -0.06174,0.0621 -0.06174,0.0621 -0.34537,0.14993 -0.452614,0.1972 -0.452614,0.1972 -0.217311,0.0998 -0.261761,0.14217 -0.261761,0.14217 -2.321278,1.81539 -5.601053,1.81539 -7.92233,0 0,0 -0.04304,-0.0448 -0.260703,-0.14323 0,0 -0.10795,-0.0462 -0.452967,-0.1972 -0.04304,-0.0191 -0.06174,-0.0621 -0.06174,-0.0621 -0.150636,-0.34572 -0.197908,-0.45297 -0.197908,-0.45297 -0.09807,-0.21766 -0.14217,-0.2607 -0.14217,-0.2607 -1.8161,-2.32128 -1.8161,-5.6007 0,-7.92198 0,0 0.0441,-0.0434 0.14217,-0.2607 0,0 0.04657,-0.10795 0.197908,-0.45261 0.01905,-0.0434 0.06209,-0.0624 0.06209,-0.0624 0.345017,-0.15063 0.452614,-0.19755 0.452614,-0.19755 0.217311,-0.0981 0.260703,-0.14217 0.260703,-0.14217 2.321277,-1.8161 5.601052,-1.8161 7.92233,-3.5e-4 0,0 0.04374,0.0437 0.261408,0.14217 0,0 0.10795,0.0466 0.452614,0.19755 0.04304,0.019 0.06209,0.0621 0.06209,0.0621 m 0.611364,0.26987 c -0.24765,-0.1531 -0.5461,-0.33549 -0.5461,-0.33549 0,0 -0.03845,-0.0233 -0.06209,-0.0614 0,0 -0.182033,-0.29845 -0.334786,-0.54645 0,0 -0.05151,-0.0833 -0.124178,-0.13864 -2.508955,-1.96251 -6.054019,-1.96251 -8.562622,0 h -3.53e-4 c -0.07232,0.0557 -0.123472,0.13899 -0.123472,0.13899 -0.152753,0.248 -0.334786,0.54645 -0.334786,0.54645 0,0 -0.02364,0.0385 -0.06209,0.0617 0,0 -0.29845,0.18238 -0.546453,0.33514 0,0 -0.0829,0.0508 -0.138641,0.12347 -1.962856,2.50931 -1.962856,6.05367 0,8.56297 0.05574,0.0723 0.138641,0.12312 0.138641,0.12312 0.248003,0.15311 0.546453,0.33479 0.546453,0.33479 0,0 0.03845,0.0236 0.06209,0.0621 0,0 0.182033,0.29845 0.334786,0.54645 0,0 0.0508,0.0833 0.123472,0.13935 2.508956,1.9625 6.05402,1.9625 8.562975,0 0.07232,-0.0561 0.124531,-0.13829 0.124531,-0.13829 0.152752,-0.248 0.334786,-0.54645 0.334786,-0.54645 0,0 0.02364,-0.0385 0.06209,-0.0624 0,0 0.298097,-0.18168 0.5461,-0.33444 0,0 0.08255,-0.0519 0.137936,-0.12418 1.962855,-2.5093 1.962855,-6.05366 0,-8.56297 l 7.05e-4,-3.5e-4 c -0.05574,-0.0727 -0.138994,-0.12348 -0.138994,-0.12348" />
    <path
       inkscape:connector-curvature="0"
       id="path678"
       style="fill:#eb068c;fill-opacity:1;fill-rule:nonzero;stroke:none;stroke-width:0.35277778"
       d="m 102.19197,158.33677 c -0.12347,-0.39088 -0.26211,-0.79163 -0.41099,-1.19239 -0.0342,-0.0988 -0.0741,-0.20743 -0.1083,-0.3115 h -0.005 c -0.0346,0.0991 -0.0741,0.21766 -0.10865,0.3115 -0.14358,0.39582 -0.28187,0.79657 -0.41064,1.19239 z m 0.37112,1.31516 c -0.0695,-0.25224 -0.14887,-0.5387 -0.23283,-0.80645 h -1.32997 c -0.0843,0.27269 -0.16369,0.54927 -0.23778,0.80645 h -0.65792 c 0.35665,-1.18675 0.74718,-2.30929 1.20685,-3.45193 h 0.77681 c 0.46955,1.15746 0.88018,2.32939 1.21638,3.45193 z" />
    <path
       d="m 104.74358,156.20017 h 0.66252 v 3.45158 h -0.66252 z"
       style="fill:#eb068c;fill-opacity:1;fill-rule:nonzero;stroke:none;stroke-width:0.35277778"
       id="path680"
       inkscape:connector-curvature="0" />
    <path
       inkscape:connector-curvature="0"
       id="path684"
       style="fill:#eb068c;fill-opacity:1;fill-rule:nonzero;stroke:none;stroke-width:0.35277778"
       d="m 108.27894,156.71449 h -0.38065 v 1.00859 h 0.32668 c 0.42015,0 0.62265,-0.22225 0.62265,-0.52387 0,-0.25718 -0.14817,-0.48472 -0.56868,-0.48472 m 0.68756,2.93723 -0.74153,-1.42911 h -0.32668 v 1.42911 h -0.66287 v -3.45158 h 1.11302 c 0.7366,0 1.19627,0.31644 1.19627,0.93451 0,0.49953 -0.28152,0.80151 -0.67205,0.92992 l 0.86537,1.58715 z" />
    <path
       inkscape:connector-curvature="0"
       id="path688"
       style="fill:#eb068c;fill-opacity:1;fill-rule:nonzero;stroke:none;stroke-width:0.35277778"
       d="m 115.71656,156.20014 c -0.21766,1.11266 -0.49459,2.22567 -0.86572,3.45158 h -0.8703 l -0.55351,-2.20028 -0.0843,-0.37112 h -0.01 l -0.079,0.37112 -0.54892,2.20028 h -0.8756 c -0.36054,-1.17158 -0.64276,-2.34386 -0.85019,-3.45158 h 0.71719 c 0.133,0.77152 0.32597,1.67146 0.53376,2.44299 0.0247,0.10371 0.0543,0.23248 0.079,0.32632 h 0.01 l 0.0988,-0.43992 0.57396,-2.32939 h 0.75177 l 0.5835,2.3241 0.10372,0.44521 h 0.005 c 0.0296,-0.11854 0.0642,-0.26212 0.0942,-0.37571 0.2226,-0.85584 0.40569,-1.67676 0.52916,-2.3936 z" />
    <path
       inkscape:connector-curvature="0"
       id="path692"
       style="fill:#eb068c;fill-opacity:1;fill-rule:nonzero;stroke:none;stroke-width:0.35277778"
       d="m 118.70328,158.33677 c -0.12382,-0.39088 -0.26211,-0.79163 -0.41063,-1.19239 -0.0346,-0.0988 -0.0744,-0.20743 -0.10901,-0.3115 h -0.005 c -0.0349,0.0991 -0.0741,0.21766 -0.10901,0.3115 -0.14322,0.39582 -0.28187,0.79657 -0.41028,1.19239 z m 0.37077,1.31516 c -0.0695,-0.25224 -0.14817,-0.5387 -0.23213,-0.80645 h -1.33068 c -0.084,0.27269 -0.16333,0.54927 -0.23742,0.80645 h -0.65757 c 0.35595,-1.18675 0.74647,-2.30929 1.2065,-3.45193 h 0.77681 c 0.46955,1.15746 0.87983,2.32939 1.21603,3.45193 z" />
    <path
       inkscape:connector-curvature="0"
       id="path696"
       style="fill:#eb068c;fill-opacity:1;fill-rule:nonzero;stroke:none;stroke-width:0.35277778"
       d="m 123.29232,156.20014 c -0.29704,0.71684 -0.65828,1.40441 -1.11301,2.06234 v 1.38924 h -0.66287 v -1.38924 c -0.43533,-0.65299 -0.8061,-1.3455 -1.12254,-2.06234 h 0.74683 c 0.20778,0.51929 0.4452,1.00401 0.73695,1.48343 0.27693,-0.45473 0.52882,-0.96908 0.71685,-1.48343 z" />
    <path
       inkscape:connector-curvature="0"
       id="path700"
       style="fill:#eb068c;fill-opacity:1;fill-rule:nonzero;stroke:none;stroke-width:0.35277778"
       d="m 125.26999,159.72135 c -0.31679,0 -0.54927,-0.0395 -0.85055,-0.12382 l 0.0741,-0.54893 c 0.24235,0.079 0.49953,0.12877 0.77152,0.12877 0.4251,0 0.62795,-0.17322 0.62795,-0.47484 0,-0.29669 -0.23742,-0.41028 -0.63783,-0.56868 -0.49459,-0.2032 -0.82091,-0.45508 -0.82091,-1.00401 0,-0.63782 0.514,-0.99906 1.19168,-0.99906 0.26706,0 0.54434,0.0444 0.76165,0.12382 l -0.0988,0.51435 c -0.19297,-0.0691 -0.43074,-0.10901 -0.65793,-0.10901 -0.32667,0 -0.49459,0.15346 -0.49459,0.39124 0,0.29633 0.22754,0.40992 0.54892,0.54363 0.4699,0.19755 0.91017,0.39581 0.91017,1.01847 0,0.74224 -0.56374,1.10807 -1.32539,1.10807" />
    <path
       inkscape:connector-curvature="0"
       id="path716"
       style="fill:#a2a9ae;fill-opacity:1;fill-rule:nonzero;stroke:none;stroke-width:0.35277778"
       d="m 127.49411,156.24011 h -0.2032 v -0.10936 h 0.53869 v 0.10936 h -0.20532 v 0.60431 h -0.13017 z" />
    <path
       inkscape:connector-curvature="0"
       id="path720"
       style="fill:#a2a9ae;fill-opacity:1;fill-rule:nonzero;stroke:none;stroke-width:0.35277778"
       d="m 128.51526,156.55327 c -0.004,-0.0924 -0.01,-0.20214 -0.008,-0.29986 h -0.003 c -0.0233,0.0868 -0.0529,0.18344 -0.0847,0.2734 l -0.10477,0.30903 h -0.0995 l -0.0952,-0.30479 c -0.0275,-0.091 -0.0529,-0.18874 -0.072,-0.27764 h -0.002 c -0.003,0.0935 -0.007,0.20673 -0.0127,0.30445 l -0.0159,0.28645 h -0.12171 l 0.0476,-0.71331 h 0.17145 l 0.0931,0.28645 c 0.0254,0.084 0.0476,0.16863 0.0656,0.24765 h 0.003 c 0.019,-0.0769 0.0434,-0.16475 0.0709,-0.24871 l 0.0984,-0.28539 h 0.16933 l 0.0413,0.71331 h -0.127 z" />
  </g>
</svg>
