<?xml version="1.0" encoding="UTF-8" standalone="no"?>
<svg
   xmlns:dc="http://purl.org/dc/elements/1.1/"
   xmlns:cc="http://creativecommons.org/ns#"
   xmlns:rdf="http://www.w3.org/1999/02/22-rdf-syntax-ns#"
   xmlns:svg="http://www.w3.org/2000/svg"
   xmlns="http://www.w3.org/2000/svg"
   width="500"
   height="270"
   viewBox="0 0 132.29166 71.437503"
   version="1.1"
   id="svg8">
  <defs
     id="defs2">
    <clipPath
       clipPathUnits="userSpaceOnUse"
       id="clipPath2043-5">
      <path
         d="m 57.392,494.996 h 140.621 v 73.35 H 57.392 Z"
         id="path2041-8" />
    </clipPath>
  </defs>
  <metadata
     id="metadata5">
    <rdf:RDF>
      <cc:Work
         rdf:about="">
        <dc:format>image/svg+xml</dc:format>
        <dc:type
           rdf:resource="http://purl.org/dc/dcmitype/StillImage" />
        <dc:title></dc:title>
      </cc:Work>
    </rdf:RDF>
  </metadata>
  <g
     id="layer1">
    <g
       id="g979"
       transform="matrix(0.35277777,0,0,-0.35277777,19.628534,210.81434)">
      <g
         id="g2031"
         transform="matrix(2.6378464,0,0,2.6378464,36.493697,407.63505)">
        <path
           d="M 0,0 H 0.667 V 3.178 H 3.09 V 3.757 H 0.667 V 6.161 H 3.206 V 6.74 H 0 Z"
           style="fill:#06326e;fill-opacity:1;fill-rule:nonzero;stroke:none"
           id="path2033" />
      </g>
      <path
         d="m 47.811641,407.63663 h 1.60381 v 19.10065 h -1.60381 z"
         style="fill:#06326e;fill-opacity:1;fill-rule:nonzero;stroke:none;stroke-width:2.63785"
         id="path2035" />
      <g
         id="g2037"
         transform="matrix(2.6378464,0,0,2.6378464,-204.61181,-903.58934)">
        <g
           id="g2039"
           clip-path="url(#clipPath2043-5)">
          <g
             id="g2045"
             transform="translate(101.2568,502.007)">
            <path
               d="m 0,0 h -0.637 l -1.42,-4.104 H -2.076 L -2.066,-4.113 -3.447,0 h -0.666 l 1.747,-4.982 -0.125,-0.436 C -2.684,-6.055 -2.858,-6.49 -3.38,-6.49 c -0.222,0 -0.337,0.039 -0.453,0.078 l -0.058,-0.521 c 0.203,-0.049 0.434,-0.077 0.656,-0.077 0.686,0 1.034,0.676 1.265,1.352 z"
               style="fill:#06326e;fill-opacity:1;fill-rule:evenodd;stroke:none"
               id="path2047" />
          </g>
          <g
             id="g2049"
             transform="translate(108.1819,502.007)">
            <path
               d="m 0,0 h -0.637 l -1.42,-4.104 H -2.076 L -2.066,-4.113 -3.447,0 h -0.666 l 1.747,-4.982 -0.126,-0.436 c -0.192,-0.637 -0.366,-1.072 -0.887,-1.072 -0.222,0 -0.338,0.039 -0.455,0.078 l -0.057,-0.521 c 0.203,-0.049 0.434,-0.077 0.657,-0.077 0.685,0 1.033,0.676 1.264,1.352 z"
               style="fill:#06326e;fill-opacity:1;fill-rule:evenodd;stroke:none"
               id="path2051" />
          </g>
          <g
             id="g2053"
             transform="translate(109.3047,499.5443)">
            <path
               d="M 0,0 C 0,1.141 0.57,2.057 1.632,2.057 2.694,2.057 3.263,1.141 3.263,0 3.263,-1.138 2.694,-2.057 1.632,-2.057 0.57,-2.057 0,-1.138 0,0 m -0.666,0 c 0,-1.341 0.704,-2.577 2.298,-2.577 1.593,0 2.298,1.236 2.298,2.577 0,1.341 -0.705,2.577 -2.298,2.577 C 0.038,2.577 -0.666,1.341 -0.666,0"
               style="fill:#06326e;fill-opacity:1;fill-rule:evenodd;stroke:none"
               id="path2055" />
          </g>
          <g
             id="g2057"
             transform="translate(118.2092,502.007)">
            <path
               d="m 0,0 h -0.608 v -2.724 c 0,-0.819 -0.347,-1.796 -1.457,-1.796 -0.841,0 -1.169,0.599 -1.169,1.526 V 0 h -0.608 v -3.148 c 0,-1.082 0.463,-1.892 1.679,-1.892 1.024,0 1.391,0.551 1.594,0.994 h 0.019 v -0.88 H 0.039 C 0,-4.528 0,-4.144 0,-3.765 Z"
               style="fill:#06326e;fill-opacity:1;fill-rule:nonzero;stroke:none"
               id="path2059" />
          </g>
          <g
             id="g2061"
             transform="translate(119.7182,497.0814)">
            <path
               d="m 0,0 h 0.609 v 2.435 c 0,0.888 0.261,1.968 1.226,1.968 0.154,0 0.318,-0.017 0.443,-0.056 V 4.984 C 2.173,5.012 1.999,5.04 1.854,5.04 1.226,5.04 0.811,4.53 0.589,3.98 H 0.57 V 4.926 H -0.038 C 0,4.567 0,4.366 0,3.824 Z"
               style="fill:#06326e;fill-opacity:1;fill-rule:nonzero;stroke:none"
               id="path2063" />
          </g>
          <g
             id="g2065"
             transform="translate(125.8617,499.5443)">
            <path
               d="M 0,0 C 0,1.141 0.569,2.057 1.632,2.057 2.693,2.057 3.264,1.141 3.264,0 3.264,-1.138 2.693,-2.057 1.632,-2.057 0.569,-2.057 0,-1.138 0,0 m -0.667,0 c 0,-1.341 0.705,-2.577 2.299,-2.577 1.593,0 2.297,1.236 2.297,2.577 0,1.341 -0.704,2.577 -2.297,2.577 C 0.038,2.577 -0.667,1.341 -0.667,0"
               style="fill:#06326e;fill-opacity:1;fill-rule:evenodd;stroke:none"
               id="path2067" />
          </g>
          <g
             id="g2069"
             transform="translate(137.6048,502.007)">
            <path
               d="m 0,0 h -0.608 l -1.361,-4.258 h -0.02 L -3.292,0 H -4.026 L -5.398,-4.258 H -5.417 L -6.71,0 h -0.667 l 1.584,-4.926 h 0.733 l 1.343,4.259 h 0.02 l 1.341,-4.259 h 0.735 z"
               style="fill:#06326e;fill-opacity:1;fill-rule:nonzero;stroke:none"
               id="path2071" />
          </g>
          <g
             id="g2073"
             transform="translate(138.418,497.0814)">
            <path
               d="m 0,0 h 0.609 v 2.724 c 0,0.821 0.348,1.796 1.458,1.796 0.84,0 1.168,-0.599 1.168,-1.526 V 0 H 3.843 V 3.148 C 3.843,4.23 3.38,5.04 2.164,5.04 1.14,5.04 0.773,4.492 0.57,4.047 H 0.551 V 4.926 H -0.038 C 0,4.53 0,4.144 0,3.766 Z"
               style="fill:#06326e;fill-opacity:1;fill-rule:nonzero;stroke:none"
               id="path2075" />
          </g>
          <g
             id="g2077"
             transform="translate(153.1062,502.007)">
            <path
               d="m 0,0 h -0.608 l -1.361,-4.258 h -0.02 L -3.292,0 H -4.026 L -5.398,-4.258 H -5.416 L -6.71,0 h -0.666 l 1.583,-4.926 h 0.734 l 1.341,4.259 h 0.02 l 1.342,-4.259 h 0.734 z"
               style="fill:#06326e;fill-opacity:1;fill-rule:nonzero;stroke:none"
               id="path2079" />
          </g>
          <g
             id="g2081"
             transform="translate(156.6913,499.2655)">
            <path
               d="m 0,0 c 0,-0.531 -0.029,-1.778 -1.458,-1.778 -0.56,0 -1.023,0.242 -1.023,0.888 0,1.082 1.255,1.188 2.307,1.188 H 0 Z m 0.057,-2.184 h 0.599 c -0.048,0.339 -0.048,0.637 -0.048,1.035 v 2.171 c 0,1.285 -0.512,1.834 -1.728,1.834 -0.434,0 -1.072,-0.153 -1.449,-0.337 v -0.59 c 0.454,0.29 0.937,0.406 1.449,0.406 C -0.299,2.335 0,1.91 0,1.072 V 0.819 h -0.116 c -1.274,0 -3.032,-0.076 -3.032,-1.728 0,-0.443 0.222,-1.39 1.622,-1.39 0.609,0 1.294,0.318 1.564,0.908 h 0.019 z"
               style="fill:#06326e;fill-opacity:1;fill-rule:evenodd;stroke:none"
               id="path2083" />
          </g>
          <g
             id="g2085"
             transform="translate(162.1722,502.007)">
            <path
               d="M 0,0 H -0.639 L -2.058,-4.104 H -2.076 L -2.066,-4.113 -3.447,0 h -0.666 l 1.747,-4.982 -0.126,-0.436 C -2.684,-6.055 -2.858,-6.49 -3.38,-6.49 c -0.222,0 -0.338,0.039 -0.454,0.078 l -0.058,-0.521 c 0.203,-0.049 0.434,-0.077 0.657,-0.077 0.686,0 1.032,0.676 1.265,1.352 z"
               style="fill:#06326e;fill-opacity:1;fill-rule:evenodd;stroke:none"
               id="path2087" />
          </g>
          <path
             d="m 162.301,497.081 h 0.782 v 0.812 h -0.782 z"
             style="fill:#06326e;fill-opacity:1;fill-rule:nonzero;stroke:none"
             id="path2089" />
          <g
             id="g2091"
             transform="translate(57.4305,507.6476)">
            <path
               d="m 0,0 c 0.716,-0.311 1.742,-0.581 3.058,-0.581 2.091,0 4.433,1.084 4.433,3.813 0,3.949 -6.194,3.969 -6.194,6.677 0,1.744 1.529,2.325 2.923,2.325 0.91,0 1.859,-0.175 2.458,-0.503 l 0.213,1.218 c -0.929,0.348 -1.994,0.445 -2.652,0.445 -2.381,0 -4.277,-1.354 -4.277,-3.521 0,-3.543 6.193,-3.874 6.193,-6.524 0,-1.917 -1.374,-2.768 -3.038,-2.768 -1.259,0 -2.188,0.29 -2.982,0.793 z"
               style="fill:#06326e;fill-opacity:1;fill-rule:nonzero;stroke:none"
               id="path2093" />
          </g>
          <path
             d="m 69.776,521.429 h -1.22 v -1.625 h 1.22 z m -1.219,-14.131 h 1.22 v 9.873 h -1.22 z"
             style="fill:#06326e;fill-opacity:1;fill-rule:evenodd;stroke:none"
             id="path2095" />
          <path
             d="m 73.927,507.298 h 1.22 v 14.52 h -1.22 z"
             style="fill:#06326e;fill-opacity:1;fill-rule:nonzero;stroke:none"
             id="path2097" />
          <g
             id="g2099"
             transform="translate(86.1896,517.1705)">
            <path
               d="M 0,0 H -1.278 L -4.143,-8.536 H -4.182 L -6.911,0 h -1.335 l 3.348,-9.873 h 1.433 z"
               style="fill:#06326e;fill-opacity:1;fill-rule:nonzero;stroke:none"
               id="path2101" />
          </g>
          <g
             id="g2103"
             transform="translate(89.5662,512.9318)">
            <path
               d="M 0,0 C 0,1.627 1.103,3.426 2.903,3.426 4.724,3.426 5.42,1.722 5.42,0 Z M 6.02,-4.085 C 5.44,-4.452 4.142,-4.82 3.252,-4.82 1.123,-4.82 0,-3.137 0,-1.046 h 6.755 v 0.62 c 0,2.651 -1.141,4.898 -3.929,4.898 -2.497,0 -4.162,-2.15 -4.162,-5.17 0,-2.962 1.22,-5.167 4.491,-5.167 0.91,0 2.013,0.192 2.865,0.542 z"
               style="fill:#06326e;fill-opacity:1;fill-rule:evenodd;stroke:none"
               id="path2105" />
          </g>
          <g
             id="g2107"
             transform="translate(99.7241,507.2976)">
            <path
               d="m 0,0 h 1.22 v 4.878 c 0,1.782 0.522,3.949 2.458,3.949 0.31,0 0.639,-0.039 0.891,-0.114 V 9.989 C 4.355,10.048 4.007,10.106 3.717,10.106 2.458,10.106 1.626,9.08 1.181,7.976 H 1.142 V 9.873 H -0.077 C 0,9.158 0,8.75 0,7.667 Z"
               style="fill:#06326e;fill-opacity:1;fill-rule:nonzero;stroke:none"
               id="path2109" />
          </g>
          <g
             id="g2111"
             transform="translate(122.7145,520.5385)">
            <path
               d="m 0,0 c -0.697,0.369 -2.304,0.503 -3.097,0.503 -4.181,0 -6.814,-2.884 -6.814,-6.986 0,-4.183 2.555,-6.989 6.814,-6.989 0.852,0 2.361,0.136 3.097,0.581 l -0.077,1.16 c -0.775,-0.464 -2.13,-0.579 -3.02,-0.579 -3.562,0 -5.478,2.42 -5.478,5.827 0,3.348 1.974,5.826 5.478,5.826 0.949,0 2.168,-0.136 3.02,-0.581 z"
               style="fill:#06326e;fill-opacity:1;fill-rule:nonzero;stroke:none"
               id="path2113" />
          </g>
          <path
             d="m 127.22,507.298 h 1.219 v 14.52 h -1.219 z"
             style="fill:#06326e;fill-opacity:1;fill-rule:nonzero;stroke:none"
             id="path2115" />
          <g
             id="g2117"
             transform="translate(133.1717,512.2341)">
            <path
               d="M 0,0 C 0,2.286 1.142,4.124 3.272,4.124 5.401,4.124 6.543,2.286 6.543,0 6.543,-2.284 5.401,-4.122 3.272,-4.122 1.142,-4.122 0,-2.284 0,0 m -1.336,0 c 0,-2.69 1.414,-5.167 4.608,-5.167 3.193,0 4.607,2.477 4.607,5.167 0,2.692 -1.414,5.17 -4.607,5.17 C 0.078,5.17 -1.336,2.692 -1.336,0"
               style="fill:#06326e;fill-opacity:1;fill-rule:evenodd;stroke:none"
               id="path2119" />
          </g>
          <g
             id="g2121"
             transform="translate(152.1309,517.1705)">
            <path
               d="m 0,0 h -1.22 v -5.459 c 0,-1.644 -0.696,-3.599 -2.923,-3.599 -1.684,0 -2.341,1.199 -2.341,3.059 V 0 h -1.221 v -6.311 c 0,-2.166 0.929,-3.793 3.368,-3.793 2.052,0 2.788,1.104 3.195,1.994 h 0.038 V -9.873 H 0.077 C 0,-9.078 0,-8.304 0,-7.548 Z"
               style="fill:#06326e;fill-opacity:1;fill-rule:nonzero;stroke:none"
               id="path2123" />
          </g>
          <g
             id="g2125"
             transform="translate(157.0164,512.2341)">
            <path
               d="M 0,0 C 0,1.916 0.601,4.124 2.923,4.124 5.092,4.124 5.846,1.802 5.846,0 5.846,-1.8 5.092,-4.122 2.923,-4.122 0.601,-4.122 0,-1.916 0,0 M 7.065,9.583 H 5.846 V 3.273 H 5.807 C 5.633,3.757 4.665,5.17 2.73,5.17 -0.174,5.17 -1.335,3.001 -1.335,0 c 0,-2.923 1.355,-5.167 4.065,-5.167 1.413,0 2.419,0.542 3.077,1.799 h 0.039 v -1.568 h 1.219 z"
               style="fill:#06326e;fill-opacity:1;fill-rule:evenodd;stroke:none"
               id="path2127" />
          </g>
          <g
             id="g2129"
             transform="translate(181.923,512.0807)">
            <path
               d="m 0,0 h -5.865 l 2.942,7.451 z m -9.118,-4.783 h 1.297 l 1.452,3.621 H 0.445 L 1.897,-4.783 H 3.29 L -2.072,8.73 h -1.51 z"
               style="fill:#06326e;fill-opacity:1;fill-rule:evenodd;stroke:none"
               id="path2131" />
          </g>
          <path
             d="m 189.293,521.429 h -1.22 v -1.625 h 1.22 z m -1.22,-14.131 h 1.22 v 9.873 h -1.22 z"
             style="fill:#06326e;fill-opacity:1;fill-rule:evenodd;stroke:none"
             id="path2133" />
          <g
             id="g2135"
             transform="translate(193.4443,507.2976)">
            <path
               d="m 0,0 h 1.219 v 4.878 c 0,1.782 0.523,3.949 2.459,3.949 0.31,0 0.638,-0.039 0.891,-0.114 v 1.276 c -0.214,0.059 -0.562,0.117 -0.852,0.117 -1.259,0 -2.09,-1.026 -2.535,-2.13 H 1.143 V 9.873 H -0.078 C 0,9.158 0,8.75 0,7.667 Z"
               style="fill:#06326e;fill-opacity:1;fill-rule:nonzero;stroke:none"
               id="path2137" />
          </g>
          <g
             id="g2139"
             transform="translate(118.1552,536.0546)">
            <path
               d="M 0,0 C 0,0.807 0.105,1.589 0.3,2.334 5.59,3.269 10.753,4.606 15.755,6.315 17.323,4.673 18.286,2.449 18.286,0 18.286,-5.049 14.192,-9.143 9.143,-9.143 4.094,-9.143 0,-5.049 0,0"
               style="fill:#8b8f91;fill-opacity:1;fill-rule:nonzero;stroke:none"
               id="path2141" />
          </g>
          <g
             id="g2143"
             transform="translate(120.5255,550.019)">
            <path
               d="M 0,0 C 19.192,1.269 37.242,7.808 52.452,18.328 V 17.652 C 37.528,6.216 19.498,-1.248 0,-3.294 Z"
               style="fill:#06326e;fill-opacity:1;fill-rule:evenodd;stroke:none"
               id="path2145" />
          </g>
          <g
             id="g2147"
             transform="translate(110.4226,543.5569)">
            <path
               d="m 0,0 c 18.919,0.475 36.968,6.097 52.452,15.718 v -0.63 C 37.239,4.562 19.21,-1.977 0,-3.233 Z"
               style="fill:#06326e;fill-opacity:1;fill-rule:evenodd;stroke:none"
               id="path2149" />
          </g>
        </g>
      </g>
    </g>
  </g>
</svg>
