<?xml version="1.0" encoding="utf-8"?>
<!-- Generator: Adobe Illustrator 16.0.3, SVG Export Plug-In . SVG Version: 6.00 Build 0)  -->
<!DOCTYPE svg PUBLIC "-//W3C//DTD SVG 1.1//EN" "http://www.w3.org/Graphics/SVG/1.1/DTD/svg11.dtd">
<svg version="1.1" id="Ebene_2" xmlns="http://www.w3.org/2000/svg" xmlns:xlink="http://www.w3.org/1999/xlink" x="0px" y="0px"
	 width="200.551px" height="57.826px" viewBox="0 0 200.551 57.826" enable-background="new 0 0 200.551 57.826"
	 xml:space="preserve">
<path fill="#FFFFFF" d="M4.22,34.729h49.4c-0.16,0.66-0.34,1.32-0.54,1.96H4.759C4.549,36.049,4.37,35.389,4.22,34.729z"/>
<path fill="#E30613" d="M54.29,28.919c0,2-0.24,3.939-0.67,5.81H4.22c-0.32-1.36-0.53-2.77-0.62-4.21h35.93
	c0.34,0,0.85-0.26,2.72-2.04c0.85-0.82,1.09-1.59,1.09-2.21c0-0.69-0.31-1.18-0.38-1.3c-0.01-0.01-0.02-0.021-0.02-0.021l-0.01-0.01
	l-8.61-11.17h14.96C52.43,17.998,54.29,23.238,54.29,28.919z"/>
<path fill="#E30613" d="M4.759,36.688h48.32c-3.29,10.21-12.86,17.6-24.16,17.6C17.609,54.288,8.04,46.898,4.759,36.688z"/>
<path fill="#FFFFFF" d="M21.39,17.309c0,0-0.01-0.01-0.02-0.021c-0.08-0.119-0.39-0.619-0.39-1.319c0-0.62,0.24-1.391,1.1-2.2
	c1.88-1.771,2.38-2.04,2.72-2.04h22.78c0.6,0.65,1.17,1.33,1.7,2.04h-14.96l8.61,11.17l0.01,0.01c0,0,0.01,0.011,0.02,0.021
	c0.07,0.12,0.38,0.609,0.38,1.3c0,0.62-0.24,1.39-1.09,2.21c-1.87,1.78-2.38,2.04-2.72,2.04H3.6c-0.04-0.53-0.06-1.06-0.06-1.6
	c0-0.15,0.01-0.29,0.01-0.44h26.47L21.39,17.309z"/>
<path fill="#E30613" d="M47.58,11.729h-22.78c-0.34,0-0.84,0.27-2.72,2.04c-0.86,0.81-1.1,1.58-1.1,2.2c0,0.7,0.31,1.2,0.39,1.319
	c0.01,0.011,0.02,0.021,0.02,0.021l8.63,11.17H3.549c0.24-13.81,11.5-24.94,25.37-24.94C36.299,3.538,42.939,6.698,47.58,11.729z"/>
<g>
	<path fill="#23203F" stroke="#23203F" stroke-width="0.5" stroke-miterlimit="10" d="M77.948,25.047h-4.034
		c-0.032-1.474-1.045-2.211-3.041-2.211c-0.844,0-1.57,0.155-2.178,0.466c-0.674,0.351-1.038,0.823-1.093,1.418
		c-0.064,0.694,0.276,1.196,1.021,1.507c0.286,0.133,1.068,0.32,2.345,0.564c2.311,0.448,3.864,0.84,4.658,1.177
		c1.648,0.692,2.414,1.678,2.296,2.956c-0.153,1.675-1.143,2.943-2.968,3.807c-1.558,0.719-3.513,1.078-5.864,1.078
		c-4.975,0-7.318-1.581-7.027-4.744l0.022-0.237h4.245c-0.027,0.106-0.046,0.215-0.057,0.327c-0.062,0.675,0.151,1.224,0.64,1.646
		c0.543,0.495,1.355,0.743,2.437,0.743c1.046,0,1.915-0.129,2.606-0.387c0.91-0.337,1.396-0.855,1.461-1.557
		c0.067-0.733-0.414-1.275-1.444-1.626c-0.085-0.026-1.03-0.213-2.833-0.559c-1.803-0.346-3.166-0.753-4.088-1.221
		c-1.409-0.719-2.061-1.651-1.956-2.799c0.144-1.568,1.109-2.791,2.895-3.668c1.564-0.765,3.445-1.147,5.642-1.147
		c1.96,0,3.517,0.376,4.669,1.127C77.529,22.518,78.078,23.631,77.948,25.047z"/>
	<path fill="#23203F" stroke="#23203F" stroke-width="0.5" stroke-miterlimit="10" d="M85.911,20.878l-1.343,14.624h-4.192
		l1.343-14.624H85.911z"/>
	<path fill="#23203F" stroke="#23203F" stroke-width="0.5" stroke-miterlimit="10" d="M107.039,22.944l-6.605,12.558h-3.478
		l-3.997-12.558l-0.057,0.04l-1.149,12.518h-3.929l1.343-14.624h6.855l3.15,10.64l5.406-10.64h6.619l-1.343,14.624h-3.916
		L107.039,22.944z"/>
	<path fill="#23203F" stroke="#23203F" stroke-width="0.5" stroke-miterlimit="10" d="M132.523,22.944l-6.606,12.558h-3.478
		l-3.996-12.558l-0.057,0.04l-1.149,12.518h-3.93l1.343-14.624h6.855l3.15,10.64l5.406-10.64h6.618l-1.343,14.624h-3.915
		L132.523,22.944z"/>
	<path fill="#23203F" stroke="#23203F" stroke-width="0.5" stroke-miterlimit="10" d="M147.657,35.809c-3.102,0-5.4-0.729-6.9-2.186
		c-1.388-1.338-1.978-3.147-1.769-5.428c0.21-2.281,1.132-4.091,2.765-5.429c1.768-1.457,4.201-2.186,7.302-2.186
		c3.092,0,5.388,0.729,6.888,2.186c1.388,1.338,1.977,3.147,1.767,5.429c-0.209,2.28-1.13,4.09-2.764,5.428
		C153.178,35.08,150.749,35.809,147.657,35.809z M148.848,22.836c-3.282,0-5.088,1.786-5.416,5.359
		c-0.327,3.565,1.151,5.349,4.433,5.349c3.275,0,5.075-1.783,5.402-5.349C153.595,24.622,152.122,22.836,148.848,22.836z"/>
	<path fill="#23203F" stroke="#23203F" stroke-width="0.5" stroke-miterlimit="10" d="M177.565,35.502h-5.932l-6.583-12.152
		l-0.057,0.04l-1.112,12.112h-3.93l1.343-14.624h6.21l6.366,11.51l0.069-0.04l1.053-11.47h3.915L177.565,35.502z"/>
	<path fill="#23203F" stroke="#23203F" stroke-width="0.5" stroke-miterlimit="10" d="M196.431,25.047h-4.035
		c-0.031-1.474-1.045-2.211-3.04-2.211c-0.844,0-1.569,0.155-2.179,0.466c-0.674,0.351-1.037,0.823-1.092,1.418
		c-0.063,0.694,0.275,1.196,1.02,1.507c0.287,0.133,1.068,0.32,2.346,0.564c2.311,0.448,3.863,0.84,4.658,1.177
		c1.648,0.692,2.413,1.678,2.296,2.956c-0.154,1.675-1.144,2.943-2.969,3.807c-1.558,0.719-3.513,1.078-5.864,1.078
		c-4.975,0-7.316-1.581-7.025-4.744l0.021-0.237h4.244c-0.027,0.106-0.045,0.215-0.056,0.327c-0.062,0.675,0.151,1.224,0.64,1.646
		c0.543,0.495,1.355,0.743,2.436,0.743c1.047,0,1.916-0.129,2.607-0.387c0.91-0.337,1.396-0.855,1.461-1.557
		c0.067-0.733-0.414-1.275-1.444-1.626c-0.085-0.026-1.029-0.213-2.833-0.559c-1.802-0.346-3.164-0.753-4.088-1.221
		c-1.408-0.719-2.061-1.651-1.955-2.799c0.145-1.568,1.109-2.791,2.895-3.668c1.564-0.765,3.445-1.147,5.643-1.147
		c1.96,0,3.517,0.376,4.669,1.127C196.012,22.518,196.56,23.631,196.431,25.047z"/>
</g>
<g>
	<path fill="#23203F" stroke="#23203F" stroke-width="0.5" stroke-miterlimit="10" d="M57.614,53.879H53.62l8.383-14.624h4.97
		l5.434,14.624h-4.205l-1.126-3.104h-7.726L57.614,53.879z M60.653,48.352h5.59l-2.156-6.239L60.653,48.352z"/>
	<path fill="#23203F" stroke="#23203F" stroke-width="0.5" stroke-miterlimit="10" d="M79.971,39.255l-1.343,14.624h-4.192
		l1.343-14.624H79.971z"/>
	<path fill="#23203F" stroke="#23203F" stroke-width="0.5" stroke-miterlimit="10" d="M86.62,47.976l-0.542,5.903h-4.192
		l1.343-14.624h8.292c1.942,0,3.465,0.263,4.568,0.789c1.364,0.65,1.984,1.653,1.859,3.008c-0.085,0.934-0.516,1.703-1.289,2.308
		c-0.793,0.618-1.822,1.042-3.087,1.271c1.413,0.119,2.325,0.526,2.736,1.22c0.196,0.351,0.36,1.203,0.49,2.559
		c0.095,1.07,0.146,1.665,0.153,1.784c0.131,0.773,0.352,1.335,0.662,1.686h-4.614c-0.17-0.918-0.296-2.229-0.377-3.932
		c-0.055-1.314-0.579-1.972-1.572-1.972H86.62z M87.198,41.678l-0.356,3.876h3.52c1.942,0,2.975-0.668,3.098-2.003
		c0.115-1.249-0.799-1.873-2.742-1.873H87.198z"/>
	<path fill="#23203F" stroke="#23203F" stroke-width="0.5" stroke-miterlimit="10" d="M112.774,53.879h-12.643l1.343-14.624h4.193
		l-1.121,12.201h8.451L112.774,53.879z"/>
	<path fill="#23203F" stroke="#23203F" stroke-width="0.5" stroke-miterlimit="10" d="M120.497,39.255l-1.342,14.624h-4.193
		l1.344-14.624H120.497z"/>
	<path fill="#23203F" stroke="#23203F" stroke-width="0.5" stroke-miterlimit="10" d="M140.183,53.879h-5.932l-6.584-12.152
		l-0.057,0.04l-1.111,12.112h-3.93l1.344-14.624h6.209l6.365,11.51l0.07-0.04l1.053-11.47h3.914L140.183,53.879z"/>
	<path fill="#23203F" stroke="#23203F" stroke-width="0.5" stroke-miterlimit="10" d="M143.358,53.879l1.344-14.624h13.078
		l-0.223,2.423h-8.885l-0.314,3.431h8.318l-0.223,2.423h-8.318l-0.361,3.925h9.189l-0.223,2.423H143.358z"/>
	<path fill="#23203F" stroke="#23203F" stroke-width="0.5" stroke-miterlimit="10" d="M175.538,43.424h-4.033
		c-0.033-1.474-1.047-2.211-3.041-2.211c-0.844,0-1.57,0.155-2.178,0.466c-0.674,0.351-1.039,0.823-1.094,1.418
		c-0.063,0.694,0.277,1.196,1.021,1.507c0.285,0.133,1.066,0.32,2.344,0.564c2.311,0.448,3.865,0.84,4.658,1.177
		c1.648,0.692,2.414,1.678,2.297,2.956c-0.154,1.675-1.145,2.943-2.969,3.807c-1.559,0.719-3.512,1.078-5.863,1.078
		c-4.975,0-7.318-1.581-7.027-4.744l0.021-0.237h4.244c-0.027,0.106-0.045,0.215-0.055,0.327c-0.063,0.675,0.15,1.224,0.639,1.646
		c0.543,0.495,1.357,0.743,2.438,0.743c1.045,0,1.914-0.129,2.605-0.387c0.91-0.337,1.396-0.855,1.461-1.557
		c0.068-0.733-0.414-1.275-1.443-1.626c-0.084-0.026-1.029-0.213-2.832-0.559s-3.166-0.753-4.09-1.221
		c-1.408-0.719-2.059-1.651-1.953-2.799c0.143-1.568,1.107-2.791,2.895-3.668c1.563-0.765,3.443-1.147,5.641-1.147
		c1.961,0,3.518,0.376,4.67,1.127C175.12,40.895,175.669,42.008,175.538,43.424z"/>
</g>
</svg>
