<?xml version="1.0" encoding="UTF-8" standalone="no"?>
<svg
   width="300"
   height="91.856277"
   viewBox="0 0 300 91.856277"
   version="1.1"
   id="svg1"
   sodipodi:docname="Singapore_Airlines_wordmark.svg"
   inkscape:version="1.4 (86a8ad7, 2024-10-11)"
   xmlns:inkscape="http://www.inkscape.org/namespaces/inkscape"
   xmlns:sodipodi="http://sodipodi.sourceforge.net/DTD/sodipodi-0.dtd"
   xmlns="http://www.w3.org/2000/svg"
   xmlns:svg="http://www.w3.org/2000/svg"
   xmlns:rdf="http://www.w3.org/1999/02/22-rdf-syntax-ns#"
   xmlns:cc="http://creativecommons.org/ns#"
   xmlns:dc="http://purl.org/dc/elements/1.1/">
  <sodipodi:namedview
     id="namedview1"
     pagecolor="#ffffff"
     bordercolor="#000000"
     borderopacity="0.25"
     inkscape:showpageshadow="2"
     inkscape:pageopacity="0.0"
     inkscape:pagecheckerboard="0"
     inkscape:deskcolor="#d1d1d1"
     inkscape:zoom="3.3689451"
     inkscape:cx="136.83809"
     inkscape:cy="50.312485"
     inkscape:window-width="1920"
     inkscape:window-height="1001"
     inkscape:window-x="-9"
     inkscape:window-y="-9"
     inkscape:window-maximized="1"
     inkscape:current-layer="desktop-footer" />
  <!-- Generator: Sketch 51.2 (57519) - http://www.bohemiancoding.com/sketch -->
  <title
     id="title1">SIA stk linear_FC RGB</title>
  <desc
     id="desc1">Created with Sketch.</desc>
  <defs
     id="defs1" />
  <g
     id="Page-1"
     stroke="none"
     stroke-width="1"
     fill="none"
     fill-rule="evenodd"
     transform="translate(121.55249,25.693203)">
    <g
       id="desktop-footer"
       transform="translate(-422,-562)">
      <g
         id="Singapore-Airlines-Group"
         transform="matrix(5.3432611,0,0,5.3432611,-1422.0849,474.11439)"
         style="stroke-width:0.187152">
        <g
           id="Group-4"
           transform="translate(185)"
           style="stroke-width:0.187152">
          <g
             id="SIA-stk-linear_FC-RGB"
             transform="translate(136.95833)"
             style="stroke-width:0.187152">
            <polyline
               id="Fill-1"
               fill="#ff9f00"
               points="0.416410256 27.5886667 0.416410256 28.8304615 55.6881795 28.8304615 56.5618974 27.5886667 0.416410256 27.5886667"
               style="stroke-width:0.187152" />
            <polygon
               id="Fill-4"
               fill="#00266b"
               points="34.550154,24.626949 34.550154,18.971949 33.309103,18.971949 33.309103,24.626949 "
               style="stroke-width:0.187152" />
            <polyline
               id="Fill-5"
               fill="#00266b"
               points="32.4331538 24.6269487 32.4331538 23.5926154 29.5405897 23.5926154 29.5405897 18.9719487 28.2935897 18.9719487 28.2935897 24.6269487 32.4331538 24.6269487"
               style="stroke-width:0.187152" />
            <path
               d="m 13.333308,22.985846 2.636025,0.0015 0.731693,1.639616 h 1.355564 l -2.768385,-5.655 H 14.007 l -2.768385,5.655 h 1.364488 z m 1.314666,-3.038308 0.89677,2.043385 -1.788334,0.0037 z"
               id="Fill-6"
               fill="#00266b"
               style="stroke-width:0.187152" />
            <path
               d="m 23.081026,20.005538 h 1.948948 c 0.455821,0 0.745077,0.439462 0.745077,0.833565 0,0.394102 -0.289256,0.820179 -0.745077,0.820179 h -1.525102 l 2.470205,2.967667 h 1.47082 L 25.694,22.518128 h 0.0022 c 0.754,-0.243897 1.237333,-0.933949 1.237333,-1.713974 0,-0.974846 -0.752513,-1.832205 -1.850051,-1.832205 h -3.224205 v 5.655 h 1.221718 v -4.621411"
               id="Fill-7"
               fill="#00266b"
               style="stroke-width:0.187152" />
            <polygon
               id="Fill-8"
               fill="#00266b"
               points="20.131205,24.626949 20.131205,18.971949 18.890154,18.971949 18.890154,24.626949 "
               style="stroke-width:0.187152" />
            <path
               d="m 50.433231,22.334461 c 0.551743,0 1.589051,0 1.589051,0 0.365846,0 0.611231,0.210436 0.611231,0.615693 0,0.405256 -0.245385,0.616436 -0.611231,0.616436 0,0 -2.878436,0 -3.419026,0 v 1.061846 c 0,0 2.749795,0 3.300052,0 1.280461,0 1.911025,-0.845462 1.911025,-1.702821 0,-0.858102 -0.630564,-1.695384 -1.911025,-1.695384 -0.550257,0 -1.599462,0.003 -1.599462,0.003 -0.353949,0 -0.593385,-0.205231 -0.593385,-0.597846 0,-0.39559 0.239436,-0.600077 0.593385,-0.600077 0,0 2.903718,0 3.426462,0 v -1.061846 c 0,0 -2.745334,0 -3.297077,0 -1.267821,0 -1.891692,0.748051 -1.891692,1.684231 0,0.936179 0.623871,1.676794 1.891692,1.676794"
               id="Fill-9"
               fill="#00266b"
               style="stroke-width:0.187152" />
            <polyline
               id="Fill-10"
               fill="#00266b"
               points="47.3473333 24.6269487 47.3473333 23.5926154 44.0361282 23.5926154 44.0361282 22.1448462 46.9212564 22.1448462 46.9212564 21.1172051 44.0361282 21.1172051 44.0361282 20.0055385 47.3473333 20.0070256 47.3473333 18.9719487 42.7898718 18.9719487 42.7898718 24.6269487 47.3473333 24.6269487"
               style="stroke-width:0.187152" />
            <path
               d="m 37.31259,20.005538 c 0,0 1.817333,0 2.056025,0 0.504154,0 0.826129,0.459539 0.826129,0.886359 v 3.735052 h 1.23882 v -3.893436 c 0,-0.962949 -0.68559,-1.761564 -1.785359,-1.761564 -0.768872,0 -1.626974,0 -1.626974,0 l -0.708641,0.942128 v -0.942128 h -1.240308 v 5.655 h 1.240308 v -4.621411"
               id="Fill-11"
               fill="#00266b"
               style="stroke-width:0.187152" />
            <path
               d="m 2.3088462,15.259205 c 0.5517435,0 1.5890512,0 1.5890512,0 0.3651026,0 0.6112308,0.210436 0.6112308,0.615692 0,0.405257 -0.2461282,0.615693 -0.6112308,0.615693 0,0 -2.8791794,0 -3.4190256,0 v 1.062589 c 0,0 2.7497949,0 3.3000513,0 1.2804615,0 1.9110256,-0.845461 1.9110256,-1.703564 0,-0.858102 -0.6305641,-1.694641 -1.9110256,-1.694641 -0.5502564,0 -1.598718,0.0022 -1.598718,0.0022 -0.3554359,0 -0.5941282,-0.204487 -0.5941282,-0.597846 0,-0.394846 0.2386923,-0.599333 0.5941282,-0.599333 0,0 2.9029744,0 3.425718,0 v -1.06259 c 0,0 -2.7453334,0 -3.2970769,0 -1.2678206,0 -1.89243594,0.747308 -1.89243594,1.684231 0,0.936179 0.62461534,1.677538 1.89243594,1.677538"
               id="Fill-12"
               fill="#00266b"
               style="stroke-width:0.187152" />
            <path
               d="m 19.296154,17.550949 c 0.928,0 2.524487,0 2.524487,0 V 13.861256 H 20.57959 v 2.598103 c -1.304257,0 -1.441821,0 -1.452975,0 -1.049948,0 -1.753384,-0.606026 -1.753384,-1.765282 0,-1.165205 0.703436,-1.764538 1.753384,-1.764538 0,0 2.553488,0 2.694026,0 v -1.032847 c 0,0 -1.596487,0 -2.524487,0 -2.128898,0 -3.178846,1.527334 -3.178846,2.833077 0,1.305744 1.049948,2.82118 3.178846,2.82118"
               id="Fill-13"
               fill="#00266b"
               style="stroke-width:0.187152" />
            <polygon
               id="Fill-14"
               fill="#00266b"
               points="8.1995641,17.551692 8.1995641,11.896692 6.9592564,11.896692 6.9592564,17.551692 "
               style="stroke-width:0.187152" />
            <path
               d="m 10.975385,12.929539 c 0,0 1.818076,0 2.056769,0 0.504154,0 0.825385,0.458794 0.825385,0.886358 v 3.735052 h 1.23882 v -3.892693 c 0,-0.962948 -0.68559,-1.761564 -1.784615,-1.761564 -0.769616,0 -1.627718,0 -1.627718,0 l -0.708641,0.942129 V 11.896692 H 9.7350769 v 5.654257 h 1.2403081 v -4.62141"
               id="Fill-15"
               fill="#00266b"
               style="stroke-width:0.187152" />
            <path
               d="m 43.938718,12.930282 h 1.948205 c 0.455821,0 0.745077,0.438718 0.745077,0.833564 0,0.394103 -0.289256,0.819436 -0.745077,0.819436 h -1.524359 l 2.469462,2.967667 h 1.47082 l -1.751154,-2.108077 h 0.0015 c 0.754,-0.244641 1.237334,-0.934692 1.237334,-1.714718 0,-0.974846 -0.751769,-1.831462 -1.850052,-1.831462 H 42.717 v 5.654257 h 1.221718 v -4.620667"
               id="Fill-16"
               fill="#00266b"
               style="stroke-width:0.187152" />
            <polyline
               id="Fill-17"
               fill="#00266b"
               points="53.7288205 17.5509487 53.7288205 16.5166154 50.4176154 16.517359 50.4176154 15.0688462 53.3027436 15.0688462 53.3027436 14.0412051 50.4176154 14.0412051 50.4176154 12.9295385 53.7288205 12.9310256 53.7288205 11.8966923 49.1706154 11.8966923 49.1706154 17.5509487 53.7288205 17.5509487"
               style="stroke-width:0.187152" />
            <path
               d="m 24.571179,15.91059 2.635282,7.43e-4 0.732436,1.639616 h 1.354821 l -2.768385,-5.654257 h -1.280461 l -2.768385,5.654257 h 1.364487 z m 1.314667,-3.039051 0.896769,2.044128 -1.788333,0.0037 z"
               id="Fill-18"
               fill="#00266b"
               style="stroke-width:0.187152" />
            <path
               d="m 31.172769,14.806359 v -0.003 l 0.708641,0.941384 c 0,0 0.571077,0 1.267821,0 1.066307,0 1.818077,-0.888589 1.818077,-1.912513 0,-1.029871 -0.75177,-1.935564 -1.818077,-1.935564 h -3.223462 v 5.654257 h 1.247 z m 0,-1.87682 h 1.923667 c 0.455077,0 0.74582,0.475153 0.74582,0.902717 0,0.425334 -0.290743,0.886359 -0.74582,0.886359 -0.219359,0 -1.923667,0 -1.923667,0 z"
               id="Fill-19"
               fill="#00266b"
               style="stroke-width:0.187152" />
            <path
               d="m 38.715744,17.78741 c 1.693153,0 3.070282,-1.377872 3.070282,-3.071025 0,-1.699847 -1.377129,-3.076975 -3.070282,-3.076975 -1.699103,0 -3.068795,1.377128 -3.068795,3.076975 0,1.693153 1.369692,3.071025 3.068795,3.071025 z m 0,-5.006589 c 1.062589,0 1.928871,0.866282 1.928871,1.935564 0,1.062589 -0.866282,1.927384 -1.928871,1.927384 -1.069283,0 -1.934821,-0.864795 -1.934821,-1.927384 0,-1.069282 0.865538,-1.935564 1.934821,-1.935564 z"
               id="Fill-20"
               fill="#00266b"
               style="stroke-width:0.187152" />
          </g>
        </g>
      </g>
    </g>
  </g>
  <metadata
     id="metadata1">
    <rdf:RDF>
      <cc:Work
         rdf:about="">
        <dc:title>SIA stk linear_FC RGB</dc:title>
      </cc:Work>
    </rdf:RDF>
  </metadata>
</svg>
