<?xml version="1.0" encoding="utf-8"?>
<!-- Generator: Adobe Illustrator 25.2.2, SVG Export Plug-In . SVG Version: 6.00 Build 0)  -->
<svg version="1.1" id="Calque_2" xmlns="http://www.w3.org/2000/svg" xmlns:xlink="http://www.w3.org/1999/xlink" x="0px" y="0px"
	 viewBox="0 0 841.89 595.28" style="enable-background:new 0 0 841.89 595.28;" xml:space="preserve">
<style type="text/css">
	.st0{fill:#FFFFFF;}
	.st1{fill-rule:evenodd;clip-rule:evenodd;}
	.st2{fill:none;stroke:#000000;stroke-width:0.8029;stroke-miterlimit:10;}
</style>
<g>
	<path d="M220.29,240.51c-1.2-0.57-2.92,0.06-3.49,0.69c-0.57,0.63-2.06,1.26-8,1.49c-5.95,0.23-8.46,1.66-10.18,2.86
		c-1.71,1.2-8.12,6.4-8.12,6.4s-0.91-0.97-2.23-1.31c-1.31-0.34-2.29,0.86-2.29,0.86s-1.09-0.17-2.92-0.97
		c-1.83-0.8-8.75-5.26-11.32-6.35c-2.57-1.09-6.97-1.31-9.66-1.49c-2.69-0.17-5.49-1.14-5.49-1.14s-0.57,0.34,0,0.63
		c0.57,0.29,3.72,1.2,7.89,1.49c4.17,0.29,6.69,1.43,10.35,4.4c3.66,2.97,6.97,4.23,8.46,4.4c1.49,0.17,1.6,0.34,1.49,0.8
		c-0.11,0.46-1.49,0.51-2.52,1.37c-1.03,0.86-0.46,1.83-0.46,1.83l-0.57,1.66c0,0,2.63-1.94,2.97-2.06
		c0.34-0.11,3.26-1.49,4.23-1.72c0.97-0.23,2,0.06,2.34,0.8c0.34,0.74-1.09,1.09-1.09,1.09s0.8,0.69,3.14,0.74
		c2.34,0.06,4.86-0.91,4.86-0.91s-1.2-0.46-3.72-0.97c-2.52-0.51-2.74-2.63-2.74-2.63l5.55-0.23c0,0,5.95-7.15,8.8-8.23
		c2.86-1.09,9.15-0.91,10.23-1.09c1.09-0.17,2.92-1.14,4.12-1.09C221.14,241.88,221.49,241.08,220.29,240.51z M183.43,255.9
		c-0.2,0-0.36-0.16-0.36-0.36c0-0.2,0.16-0.36,0.36-0.36c0.2,0,0.36,0.16,0.36,0.36C183.78,255.74,183.62,255.9,183.43,255.9z"/>
	<g>
		<path d="M205.84,261.89c0,0-4.63,1.2-10.06,1.2c-3.87,0-6.34-1.09-7.36-1.65c-0.34-0.19-0.73-0.17-1.06,0.02
			c-0.99,0.57-3.35,1.63-7.32,1.63c-5.43,0-10.06-1.2-10.06-1.2c-0.46-0.17-0.17,0.4,0.23,1.2c0.4,0.8,2.97,1.09,8.12,1.6
			c4.31,0.43,8.14-1.22,9.26-1.77c0.21-0.1,0.44-0.1,0.65,0c1.12,0.55,4.95,2.2,9.26,1.77c5.15-0.51,7.72-0.8,8.12-1.6
			C206.01,262.29,206.3,261.72,205.84,261.89z"/>
		<path d="M198.79,266.52c-2.86,0.17-4.74,0.34-6.8-0.17c-1.94-0.48-3.54-1.57-4.06-1.57c-0.51,0-2.46,1.08-4.4,1.57
			c-2.06,0.51-3.94,0.34-6.8,0.17c-2.86-0.17-4.4-1.14-4.4-1.14c-0.29-0.17-0.11,0.4,0.23,0.97c0.34,0.57,1.3,1.66,7.26,1.6
			c4.54-0.04,6.9-0.97,7.81-1.46c0.2-0.11,0.42-0.1,0.62,0.01c0.86,0.49,2.96,1.41,7.46,1.45c5.96,0.05,6.92-1.03,7.26-1.6
			c0.34-0.57,0.51-1.14,0.23-0.97C203.19,265.37,201.65,266.35,198.79,266.52z"/>
		<path d="M194.5,269.66c-3.03-0.46-5.89-1.49-6.29-1.49c-0.2,0-0.35,0.01-0.46,0.03c-0.11-0.01-0.26-0.03-0.46-0.03
			c-0.4,0-3.26,1.03-6.29,1.49c-3.03,0.46-4.06-0.74-4.34-0.46c0,0,0,0.34,0.29,0.46c0.29,0.11,1.26,1.43,5.09,1.2
			c2.62-0.16,4.5-0.77,5.4-1.15c0.31-0.13,0.63-0.12,0.93,0.02c0.84,0.38,2.51,0.98,5.09,1.14c3.83,0.23,4.8-1.09,5.09-1.2
			c0.29-0.11,0.29-0.46,0.29-0.46C198.56,268.92,197.53,270.12,194.5,269.66z"/>
	</g>
	<path d="M187.64,228.9c-12.71,0-23.02,10.31-23.02,23.02c0,12.71,10.31,23.02,23.02,23.02c12.71,0,23.02-10.31,23.02-23.02
		C210.66,239.21,200.36,228.9,187.64,228.9z M187.64,273.72c-12.04,0-21.8-9.76-21.8-21.8c0-12.04,9.76-21.8,21.8-21.8
		s21.8,9.76,21.8,21.8C209.44,263.96,199.68,273.72,187.64,273.72z"/>
	<path d="M173.54,277.01h-11.25v10.62h1.15c0.77,0,1.4,0.63,1.4,1.4v13.42c0,0.77-0.63,1.4-1.4,1.4h-1.15v10.58h11.34
		c1.58,0,2.86-1.28,2.86-2.86v-31.61C176.49,278.33,175.17,277.01,173.54,277.01z M172.13,302.46c0,0.77-0.63,1.4-1.4,1.4
		c-0.77,0-1.4-0.63-1.4-1.4v-13.42c0-0.77,0.63-1.4,1.4-1.4c0.77,0,1.4,0.63,1.4,1.4V302.46z"/>
	<path d="M192.48,277.01h-11.25v10.62h1.15c0.77,0,1.4,0.63,1.4,1.4v13.42c0,0.77-0.63,1.4-1.4,1.4h-1.15v10.58h11.34
		c1.58,0,2.86-1.28,2.86-2.86v-31.61C195.43,278.33,194.11,277.01,192.48,277.01z M191.06,302.46c0,0.77-0.63,1.4-1.4,1.4
		c-0.77,0-1.4-0.63-1.4-1.4v-13.42c0-0.77,0.63-1.4,1.4-1.4c0.77,0,1.4,0.63,1.4,1.4V302.46z"/>
	<path d="M210.02,297.02v5.45c0,0.76-0.62,1.38-1.38,1.38s-1.38-0.62-1.38-1.38v-13.46c0-0.76,0.62-1.38,1.38-1.38h1.2v-10.7h-9.63
		v10.7h1.39c0.79,0,1.43,0.64,1.43,1.43v13.36c0,0.79-0.64,1.43-1.43,1.43h-1.39v10.58h13.91v-17.41H210.02z"/>
</g>
<g>
	<path d="M100.38,224.69c-15.12,0-27.38,12.04-27.38,26.9c0,14.86,12.26,26.9,27.38,26.9c15.12,0,27.38-12.04,27.38-26.9
		C127.76,236.74,115.5,224.69,100.38,224.69z M100.38,226.15c13.73,0,25,10.53,25.87,23.8c-0.9-0.83-5.77-4.93-12.86-2.57
		c-7.86,2.62-13.01,9.32-13.01,9.32s-5.15-6.7-13.01-9.32c-7.09-2.36-11.96,1.74-12.86,2.57
		C75.38,236.68,86.65,226.15,100.38,226.15z M100.38,277.04c-14.3,0-25.93-11.42-25.93-25.45c0-0.54,0.02-1.07,0.05-1.6
		c1.06-0.67,7.72-4.37,15.48,2.33c8.54,7.38,10.39,16.99,10.39,16.99s1.84-9.61,10.39-16.99c7.76-6.7,14.42-3,15.48-2.33
		c0.03,0.53,0.05,1.06,0.05,1.6C126.31,265.62,114.68,277.04,100.38,277.04z"/>
	<circle cx="100.25" cy="236.11" r="3.4"/>
	<g>
		<path d="M73,317.08v-35.93h7.62c2.96,0,5.21,0.81,6.74,2.42c1.53,1.61,2.3,3.9,2.3,6.86v16.8c0,3.36-0.82,5.85-2.45,7.44
			c-1.63,1.6-3.98,2.4-7.04,2.4H73z M78.15,286v26.24h2.37c1.45,0,2.47-0.36,3.08-1.08c0.61-0.72,0.91-1.86,0.91-3.41v-17.31
			c0-1.41-0.29-2.51-0.86-3.28c-0.57-0.77-1.61-1.16-3.13-1.16H78.15z"/>
		<path d="M92.28,317.08v-35.93h4.95l7.77,21.65h0.1v-21.65h5.15v35.93h-4.84l-7.87-21.6h-0.1v21.6H92.28z"/>
		<path d="M112.87,317.08v-35.93h5.15v30.78h10.19v5.15H112.87z"/>
	</g>
</g>
<g>
	<circle cx="98.18" cy="147.05" r="35.43"/>
	<g>
		<polygon class="st0" points="99.52,156.6 101.97,155.83 103.53,157.53 102.67,158.25 		"/>
		<path class="st0" d="M97.87,146.17l-0.22-5.72l1.03-0.13c0.27-0.03,0.49-0.25,0.52-0.53l0.11-1.08c0.01-0.25-0.2-0.45-0.44-0.43
			l-1.06,0.06l-0.01-0.96l1.57-0.15c0.26-0.03,0.47-0.22,0.53-0.48l0.26-1.32c0.05-0.23-0.15-0.43-0.38-0.39l-1.99,0.34l-0.01-1.19
			l2.76-0.49c0.29-0.05,0.5-0.3,0.5-0.59l0-1.08c0-0.19-0.17-0.33-0.35-0.29l-2.92,0.61l-0.01-1.23l4.08-0.66
			c0.28-0.05,0.5-0.28,0.52-0.57l0.09-1.07c0.02-0.23-0.18-0.41-0.41-0.36l-4.3,0.85l-0.01-0.95c0.41-0.1,1.71-0.4,2.77-0.65
			c0.94-0.22,3.06-0.53,4.08-0.68c0.34-0.05,0.61-0.32,0.64-0.67l0.13-1.2c0.03-0.25-0.18-0.46-0.42-0.43
			c-0.61,0.07-1.73,0.21-2.85,0.44c-1.4,0.29-3.65,0.88-4.36,1.06l-0.01-1.04c0.4-0.1,2.83-0.72,5.15-1.24
			c1.85-0.41,3.85-0.62,4.79-0.71c0.33-0.03,0.61-0.28,0.67-0.61l0.2-1.05c0.07-0.34-0.22-0.64-0.55-0.59
			c-1.11,0.16-3.33,0.48-4.8,0.72c-1.68,0.27-4.53,1.15-5.47,1.46l-0.01-1.13c0.94-0.33,3.16-1.08,5.07-1.44
			c1.98-0.37,5.52-0.67,6.9-0.77c0.34-0.03,0.61-0.28,0.67-0.61l0.21-1.19c0.05-0.31-0.19-0.59-0.5-0.58c-1.6,0.07-5.97,0.33-8.56,1
			c-3.21,0.83-9.14,2.41-11.76,7.14c-2.62,4.72,1.25,6.6,1.25,6.6l-0.07,14.01l-19.28,0.18l-0.54,0.96l26.08,9.54l30.55-10.25
			l0.44-0.77L97.87,146.17z M75.24,148.08l-1.6-0.63l1.98-0.05L75.24,148.08z"/>
		<path class="st0" d="M70.89,147.81c0,0-0.69,0.91-0.96,1.34s-0.02,1.39-0.02,1.39s0.81-1.4,1.21-1.47c0.4-0.08,0.8-0.11,0.8-0.11
			l0.37-0.38L70.89,147.81z"/>
	</g>
	<path class="st0" d="M90.14,172.81l1.93,0.99l-0.23-11.11l-3.76-2.17l-8.93,6.19l1.72,1.18l1.94-1.4l7.32,4.66L90.14,172.81z
		 M84.49,165.28l3.59-2.59l2.02,1.29l0.03,4.99L84.49,165.28z"/>
	<path class="st0" d="M107.07,171.22l7.23-4.79l1.97,1.36l1.7-1.21l-9.04-6.03l-3.72,2.24l-0.04,11.11l1.91-1.02L107.07,171.22z
		 M107.04,169.06l-0.06-4.99l1.99-1.33l3.63,2.52L107.04,169.06z"/>
	<path class="st0" d="M102.47,168.7c0,0,1.21-0.86,0.92-2.43c-0.45-2.42-3.26-2.57-3.26-2.57l-5.35,0.03l-0.34,10.59
		c0,0,4.16,0.11,6.15-0.09c1.99-0.2,3.33-1.22,3.33-3.1C103.9,169.42,102.47,168.7,102.47,168.7z M100.41,165.72
		c1.39,0.02,1.56,1.91,0.15,1.99c-1.42,0.08-4.24,0.03-4.24,0.03l0.03-2.01C96.35,165.74,99.35,165.71,100.41,165.72z
		 M101.04,171.95c-1.19,0.06-4.91,0.05-4.91,0.05l0.06-2.15c-0.1,0.06,4.43,0,4.43,0C102.33,169.83,102.23,171.88,101.04,171.95z"/>
</g>
<g>
	<g>
		<g>
			<path d="M249.87,152.95c-0.74-1.23-1.58-2.62-2.41-4c-1.07-1.77-2.14-3.54-3.19-5.32c-0.2-0.34-0.64-0.73,0.03-1.15
				c1.1,1.16,2.13,2.43,3.83,3.22c0.4-4.43,0.45-8.77,0.81-12.98c1.91-1.83,4.16-2.6,6.53-3.11c0.4-0.09,0.8-0.22,1.2-0.2
				c0.88,0.05,1.48-0.29,1.8-1.22c0.59,0.72,1.1,1.35,1.71,2.1c-0.52,2.95-1.06,5.99-1.6,9.07c-0.59,0-1.13,0-1.68,0
				c-0.65-0.89-0.99-2.01-2.16-2.68c-0.46,2.14,0.61,3.74,1.39,5.48c-1.08,1.58-2.19,3.2-3.3,4.82c0.08,0.06,0.17,0.13,0.25,0.19
				c2.21-1.94,3.68-4.54,5.79-6.68c0.6,0.38,1.21,0.77,1.89,1.19c-0.06,0.9-0.11,1.82-0.19,2.73c-0.15,1.66-0.32,3.31-0.48,4.96
				c-0.08,0.81-0.39,1.45-1.1,1.94c-1.08,0.76-2.09,1.61-3.28,2.53c0.08-0.91,0.15-1.63,0.21-2.41c0.38-0.05,0.73-0.1,1.17-0.16
				c0.14-0.29,0.29-0.62,0.46-0.97c0.33-0.05,0.68-0.11,1.14-0.18c0.34-1.97,0.3-3.93,0.26-5.89c-0.08-0.03-0.16-0.06-0.24-0.08
				c-0.19,0.24-0.4,0.46-0.56,0.71c-1.12,1.74-2.25,3.48-3.32,5.24c-0.37,0.61-0.85,0.97-1.49,1.23
				C252.2,151.83,251.08,152.39,249.87,152.95z"/>
			<path d="M242.84,114.29c2.03,0.03,3.96,0.18,5.85,0.71c0.24,1.3-0.94,23.77-1.53,29.04c-0.61-0.63-1.19-1.13-1.66-1.73
				c-2.31-2.9-3.52-6.25-3.54-9.93c-0.02-3.17,0.23-6.35,0.37-9.53c0.08-1.88,0.17-3.77,0.27-5.65
				C242.65,116.27,242.75,115.32,242.84,114.29z"/>
			<path d="M241.92,114.51c-0.09,0.97-0.17,1.84-0.25,2.8c-3.45,0.59-6.57,1.92-9.24,4.18c-2.64,2.23-4.62,4.95-5.77,8.22
				c-1,0-1.94,0-2.89,0C225.47,122.2,233.42,115.03,241.92,114.51z"/>
			<path d="M230.02,131.55c-0.9,0-1.82,0-2.74,0c0.88-6.02,7.69-12.56,14.39-13.06c-0.06,0.92-0.13,1.82-0.19,2.78
				C235.8,122.62,232.09,126.15,230.02,131.55z"/>
			<path d="M224.77,142.16c-0.03-1.65,0.46-2.22,1.97-2.36c0.4-0.04,0.8-0.13,1.15-0.19c1.43-2.53,2.18-2.96,3.85-2.13
				c-0.75,1.48-1.31,3.02-0.7,4.72c0.57,1.61,1.64,2.88,2.79,4.02c0.3,1.38-1.17,2.07-1.1,3.4c-0.99-0.48-1.59-1.22-2.07-2.04
				c-0.54-0.92-0.99-1.9-1.5-2.84c-0.62-1.14-1.5-2.03-2.78-2.4C225.87,142.2,225.3,142.22,224.77,142.16z"/>
			<path d="M243.11,143.7c2.06,3.48,4.03,6.81,6.02,10.19c-1.22,1.16-2.64,1.7-4.14,2.1c-0.81-0.54-1.09-1.32-1.04-2.21
				c0.07-1.22-0.27-2.21-1.19-3.08c-0.36-0.34-0.52-0.96-0.61-1.48c-0.28-1.48,0.11-2.94,0.35-4.39
				C242.55,144.47,242.85,144.15,243.11,143.7z"/>
			<path d="M233.18,133.52c-0.87,0-1.64,0-2.42,0c0.44-4.79,5.17-10.34,10.69-11.02c-0.08,0.82-0.15,1.62-0.23,2.49
				C236.99,126.32,234.38,129.25,233.18,133.52z"/>
			<path d="M241.23,126.29c-0.07,0.9-0.15,1.77-0.22,2.69c-2.64,1.27-4.21,3.38-4.77,6.31c-0.7,0-1.37,0-2.04,0
				C233.88,131.62,237.54,126.92,241.23,126.29z"/>
			<path d="M241.05,149.32c0.16,0.98,0.56,1.72,1.3,2.31c0.51,0.41,0.71,1.02,0.69,1.68c-0.03,1-0.04,2,0.7,2.9
				c-1.67,0.07-3.18,0.13-4.7-0.54c-0.02-0.33-0.05-0.69-0.05-1.05c-0.01-0.75-0.13-1.46-0.53-2.12c-0.19-0.32-0.24-0.74-0.34-1.07
				C239.13,150.69,240.06,150.03,241.05,149.32z"/>
			<path d="M236.63,145.32c1.19-0.28,1.91-1.22,2.58-2.25c0.33-0.5,0.83-0.71,1.44-0.54c1.29,2.28,0.46,5.68-1.46,6.79
				c-0.78-0.15-1.27-0.61-1.53-1.38C237.37,147.1,237,146.27,236.63,145.32z"/>
			<path d="M241.02,130.25c-0.09,1.15-0.18,2.17-0.27,3.29c-0.76,0.91-1.38,1.97-1.31,3.37c-0.77-0.09-1.41-0.16-2.05-0.23
				C236.88,134.3,238.57,131.28,241.02,130.25z"/>
			<path d="M236.19,143.76c0.06-0.87,0-1.72-0.62-2.48c-0.35-0.44-0.38-1.04,0.09-1.63c1.7-0.26,3.2,0.14,4.43,1.68
				c-1.11,0.35-1.7,1.16-2.25,2.05C237.36,144.17,237.04,144.21,236.19,143.76z"/>
			<path d="M234.09,150.37c-0.28-0.83-0.25-1.56,0.14-2.29c0.28-0.55,0.49-1.13,0.75-1.75c0.26,0,0.58,0,0.84,0
				c0.63,0.41,0.92,0.97,0.97,1.62c0.07,0.89,0.49,1.52,1.37,2.07C236.8,150.69,235.52,150.81,234.09,150.37z"/>
			<path d="M233.99,140.05c0.38,0.82,0.74,1.58,1.09,2.34c0.5,1.08-0.69,1.83-0.53,2.91C232.19,144.22,231.92,141.52,233.99,140.05z
				"/>
			<path d="M237.65,155.06c-1.65-0.92-2.97-2.11-4.18-3.54c1.26,0,2.43,0,3.55,0C238.12,153.83,238.12,153.83,237.65,155.06z"/>
			<path d="M252.92,126.04c0.84-0.19,1.5-0.35,2.34-0.54c-0.05,1.18,0.12,2.22-0.22,3.26c-0.49,0.12-0.9,0.22-1.43,0.34
				C253.38,128.11,253.17,127.16,252.92,126.04z"/>
			<path d="M251.3,130.04c-0.34-0.97-0.64-1.82-0.96-2.77c0.57-0.3,1.1-0.58,1.72-0.91c0.25,1.07,0.46,2.02,0.69,3.01
				C252.25,129.6,251.83,129.8,251.3,130.04z"/>
			<path d="M242.15,138.68c-0.61-0.04-1.14-0.08-1.75-0.12c-0.01-1.36-0.34-2.66,0.66-3.85
				C241.44,136.07,241.78,137.32,242.15,138.68z"/>
			<path d="M257.46,128.44c-0.51,0.08-0.87,0.14-1.37,0.21c0.05-1.03,0.1-2,0.15-3.01c0.62,0,1.11,0,1.68,0
				C257.76,126.65,257.61,127.57,257.46,128.44z"/>
			<path d="M249.6,127.87c0.29,0.88,0.58,1.73,0.87,2.6c-0.49,0.32-0.88,0.57-1.29,0.84C248.86,129.7,249,128.55,249.6,127.87z"/>
			<path d="M262.85,132.18c-0.51,0.04-0.8,0.06-1.08,0.09c-0.29,0.03-0.57,0.07-0.91,0.12c0-0.43,0-0.86,0-1.39
				c0.52-0.13,1.03-0.26,1.66-0.41C262.64,131.11,262.73,131.58,262.85,132.18z"/>
			<path d="M258.53,127.04c0.15-0.4,0.26-0.7,0.42-1.12c0.6,0.43,1.13,0.81,1.75,1.26c-0.42,0.38-0.76,0.68-1.17,1.04
				C259.23,127.86,258.91,127.48,258.53,127.04z"/>
			<path d="M260.87,130.04c-0.24-0.4-0.43-0.71-0.63-1.06c0.33-0.34,0.65-0.66,1.06-1.08c0.35,0.63,0.64,1.15,0.98,1.75
				C261.74,129.8,261.34,129.91,260.87,130.04z"/>
		</g>
	</g>
	<path d="M243.19,110.49c-14.02,0-25.38,11.36-25.38,25.38s11.36,25.38,25.38,25.38s25.38-11.36,25.38-25.38
		S257.21,110.49,243.19,110.49z M243.19,160.14c-13.41,0-24.28-10.87-24.28-24.28s10.87-24.28,24.28-24.28
		c13.41,0,24.28,10.87,24.28,24.28S256.6,160.14,243.19,160.14z"/>
	<g>
		<path d="M191.3,184.16h-7.56l-1.08,3.15h-2.44l7.32-21.61l7.29,21.61h-2.44L191.3,184.16z M190.53,181.82l-2.99-8.89l-3.03,8.89
			H190.53z"/>
		<path d="M199.11,165.79v21.52h-2.44v-21.52H199.11z"/>
		<path d="M205.03,165.79c4.66,0,8.15,3.37,8.15,8.06c0,3.33-1.73,5.96-4.38,7.22l4.38,6.24h-2.87l-3.7-5.53
			c-0.96,0.15-1.95,0.12-2.9,0.12v5.4h-2.44v-21.52H205.03z M205.03,179.56c2.75,0,5.71-1.79,5.71-5.71s-3.03-5.71-5.71-5.71h-1.33
			v11.42H205.03z"/>
		<path d="M231.21,165.79v2.35h-6.95v11.42h5.74v2.35h-5.74v5.4h-2.44v-21.52H231.21z"/>
		<path d="M236.83,165.79c4.66,0,8.15,3.37,8.15,8.06c0,3.33-1.73,5.96-4.38,7.22l4.38,6.24h-2.87l-3.7-5.53
			c-0.96,0.15-1.95,0.12-2.9,0.12v5.4h-2.44v-21.52H236.83z M236.83,179.56c2.75,0,5.71-1.79,5.71-5.71s-3.03-5.71-5.71-5.71h-1.33
			v11.42H236.83z"/>
		<path d="M257.61,184.16h-7.56l-1.08,3.15h-2.44l7.32-21.61l7.29,21.61h-2.44L257.61,184.16z M256.84,181.82l-2.99-8.89l-3.03,8.89
			H256.84z"/>
		<path d="M274.56,165.79v21.52h-2.44l-6.7-15.75v15.75h-2.44v-21.52h2.44l6.7,15.75v-15.75H274.56z"/>
		<path d="M288.64,165.79v2.44c-0.4-0.06-0.8-0.09-1.2-0.09c-4.66,0-8.43,3.77-8.43,8.43c0,4.63,3.77,8.4,8.43,8.4
			c0.4,0,0.8-0.03,1.2-0.09v2.47c-0.4,0.03-0.8,0.06-1.2,0.06c-5.99,0-10.87-4.85-10.87-10.84c0-6.02,4.88-10.87,10.87-10.87
			C287.84,165.7,288.24,165.73,288.64,165.79z"/>
		<path d="M300.18,165.79v2.35h-6.95v11.42h5.74v2.35h-5.74v3.06h6.95v2.35h-9.39v-21.52H300.18z"/>
	</g>
</g>
<g>
	<polygon points="445.76,154.78 432.41,133.68 322.88,133.68 339.96,138.27 430.26,138.27 429.38,140.14 347.72,140.14 
		366.52,144.87 427.16,144.87 426.28,146.74 374.42,146.74 392.94,151.48 424.06,151.48 422.51,154.78 	"/>
	<path d="M385.04,159.09l-4.52-8.76l-7.82-0.01l-6.75,10.48l6.75,10.19l7.9,0.29l4.45-8.61h2.58v-3.58H385.04z M379.3,167.87h-5.31
		l-4.56-7.07l4.56-7.2h5.31l3.75,7.2L379.3,167.87z"/>
	<rect x="388.88" y="159.09" width="2.26" height="3.61"/>
	<rect x="392.59" y="159.09" width="58.46" height="3.61"/>
	<path d="M426.71,169.55l0.86-1.08v-3.71h-7.32l-0.01,11.36h7.98v-4.79L426.71,169.55z M422.61,166.53h2.75v1.13l-0.8,1.24h-1.95
		L422.61,166.53z M426.21,173.61l-0.68,0.68h-2.79v-3.36c-0.03-0.03,2.15-0.01,2.15-0.01l1.32,1.32V173.61z"/>
	<polygon points="436.86,166.62 436.86,164.72 432.74,164.72 431.3,164.72 430.4,164.72 430.4,176.06 431.3,176.06 431.3,176.12 
		436.86,176.12 436.86,174.21 432.74,174.21 432.74,171.14 436.86,171.14 436.86,169.24 432.74,169.24 432.74,166.62 	"/>
	<path d="M445.11,164.76h-2.55l-3.66,11.36h2.51l0.72-2.14h4.27l0.93,2.14h2.33L445.11,164.76z M442.86,171.86l1.33-4.02l1.44,4.03
		L442.86,171.86z"/>
</g>
<g>
	<g id="g12" transform="translate(-209.76276,-360.059)">
		<path id="path14" class="st1" d="M733.31,532.46c1.63,0.74,2.73,2.08,2.73,3.61c0,2.32-2.51,4.21-5.6,4.21h-13.42v-14.7h12.99
			c3.09,0,5.6,1.71,5.6,3.81C735.61,530.65,734.7,531.77,733.31,532.46z M748.95,525.05c6.01,0,10.35,2.42,10.35,7.88
			c0,5.46-5.97,7.88-10.35,7.88c-4.38,0-10.35-2.83-10.35-7.88C738.6,527.87,742.94,525.05,748.95,525.05z M766.86,525.58h8.46
			l6.88,14.7h-7.25l-1.12-3.04h-6.4l-1.32,3.04h-7.02L766.86,525.58z M792.74,525.05c5.4,0,9.45,1.95,10.22,6.31l-6.58,0.34
			c-0.47-2.08-2.22-2.8-3.58-2.8c-1.59,0-3.7,1.05-3.7,3.9c0,2.86,2.48,4.02,3.74,4.02c1.04,0,2.84-0.68,3.45-2.57l6.46,0.83
			c-1.33,3.94-6.25,5.72-10.01,5.72c-4.38,0-10.35-2.83-10.35-7.88C782.39,527.87,786.74,525.05,792.74,525.05z M770.86,529.83
			l-1.88,3.96h3.57L770.86,529.83z M749,528.9c1.59,0,3.7,0.97,3.7,3.94c0,2.97-2.4,3.98-3.66,3.98c-1.27,0-3.74-1.16-3.74-4.02
			C745.29,529.95,747.41,528.9,749,528.9z M723.71,528.96h3.89c0.6,0,1.09,0.49,1.09,1.09l0,0c0,0.6-0.49,1.09-1.09,1.09h-3.89
			V528.96z M723.71,534.23h4.38c0.67,0,1.22,0.55,1.22,1.22l0,0c0,0.67-0.55,1.22-1.22,1.22h-4.38V534.23z"/>
	</g>
	<g id="g16" transform="translate(-209.76276,-360.059)">
		<path id="path18" class="st1" d="M719.15,486.87h60.36c0.67,0,1.41,0,1.61,0.72l2.04,3.72h12.59c1.6,0,0.81,0.81-0.19,1.11
			l-74.73,27.9c-1.6,0.52-1.32-0.25-0.27-0.76l29.6-16.12c0.97-0.47,1.1-0.83-0.03-1.3l-31.05-13.71
			C718.28,488.35,716.48,486.82,719.15,486.87z"/>
	</g>
</g>
<g>
	<polygon points="738.29,128.91 711.79,128.91 714.02,129.79 735.16,129.79 735.7,129.79 735.7,129.79 735.7,129.79 736.72,130.82 
		736.45,131.08 735.54,130.17 714.98,130.17 717.53,131.17 733.44,131.17 733.97,131.17 733.97,131.17 733.97,131.17 734.99,132.2 
		734.73,132.46 733.81,131.55 718.49,131.55 720.88,132.49 731.08,132.49 731.61,132.49 731.62,132.49 731.62,132.49 732.64,133.52 
		732.37,133.78 731.46,132.87 721.83,132.87 724.22,133.81 729.32,133.81 729.86,133.81 729.86,133.81 729.86,133.81 730.88,134.83 
		730.61,135.1 729.7,134.19 725.18,134.19 728.58,135.53 726.7,137.07 673.57,123.3 703.71,139.46 680.69,141.85 678.72,141.18 
		645.48,145.24 723.35,148.63 735.53,139.21 739.67,139.21 739.67,137.07 741.06,137.07 741.06,133.56 743.57,133.56 	"/>
	<polygon points="649.69,140.4 638.14,140.4 638.85,140.83 647.78,140.83 648.32,141.21 639.46,141.21 640.18,141.64 648.91,141.64 
		649.45,142.02 640.79,142.02 641.51,142.45 650.07,142.45 650.61,142.83 642.12,142.83 643.91,143.92 653.14,142.91 	"/>
	<g>
		<path d="M654.78,162.02c0-3.12-2.64-4.64-6.68-4.64h-5.91l-4.13,20.65h7.06c4.88,0,8.75-1.97,8.75-6.7c0-2.2-1.47-3.51-3.68-4.03
			l0.04-0.13C652.72,166.53,654.78,164.61,654.78,162.02z M650.57,171.49c0,2.65-2.05,3.9-5.46,3.9h-3.15l1.41-6.97h3.17
			C649.18,168.42,650.57,169.61,650.57,171.49z M646.36,166.05h-2.51l1.21-6.03h2.34c2.68,0,3.89,0.93,3.89,2.55
			C651.29,164.63,649.76,166.05,646.36,166.05z"/>
		<path d="M678.18,159.94c1.71,0,3.01,0.91,4.07,2.09l2.17-2.01c-1.43-1.8-3.6-3.03-6.05-3.03c-3.89,0-6.85,2.75-6.85,6.08
			c0,2.42,1.31,3.89,3.13,5.02l2.17,1.32c1.51,0.91,2.49,1.66,2.49,2.97c0,1.92-1.55,3.13-3.69,3.13c-2.03,0-3.78-1.06-4.95-2.76
			l-2.46,1.91c1.84,2.61,4.38,3.76,7.14,3.76c4.47,0,7.49-2.8,7.49-6.52c0-2.35-1-3.71-2.98-4.88l-2.22-1.33
			c-1.57-0.95-2.63-1.64-2.63-2.96C675,161.3,676.17,159.94,678.18,159.94z"/>
		<path d="M706.17,157.38l-11.07,20.65h3.76c0,0,1.48-2.68,3.17-5.81h6.06c0.4,3.13,0.77,5.81,0.77,5.81h3.56l-2.24-20.65H706.17z
			 M703.44,169.62c1.57-2.92,3.04-5.7,3.46-6.64h0.13c0.04,0.94,0.37,3.72,0.73,6.64H703.44z"/>
		<path d="M739.68,178.04h3.56l-2.24-20.65h-4.02l-11.07,20.65h3.76c0,0,1.48-2.68,3.17-5.81h6.06
			C739.32,175.35,739.68,178.04,739.68,178.04z M734.26,169.62c1.57-2.92,3.04-5.7,3.46-6.64h0.13c0.04,0.94,0.37,3.72,0.73,6.64
			H734.26z"/>
		<polygon points="695.34,169.14 693.17,167.93 694.6,165.91 692.31,166.85 691.62,164.47 690.93,166.85 688.63,165.91 
			690.06,167.93 687.9,169.14 690.37,169.28 689.96,171.72 691.62,169.88 693.27,171.72 692.86,169.28 		"/>
		<polygon points="723.37,167.93 724.8,165.91 722.51,166.85 721.82,164.47 721.13,166.85 718.84,165.91 720.27,167.93 
			718.1,169.14 720.57,169.28 720.16,171.72 721.82,169.88 723.47,171.72 723.06,169.28 725.54,169.14 		"/>
		<polygon points="664.96,167.93 666.39,165.91 664.09,166.85 663.4,164.47 662.71,166.85 660.42,165.91 661.85,167.93 
			659.68,169.14 662.16,169.28 661.75,171.72 663.4,169.88 665.06,171.72 664.65,169.28 667.12,169.14 		"/>
	</g>
</g>
<g>
	<path d="M238.11,267.06l12.08,6.27l31.21-9.06c0,0,0.27-0.08,0.46,0.23s-0.04,0.35-0.04,0.35l-30.12,8.87l9.33,4.65
		c0,0,23.43-11,23.74-11.15c0.31-0.15,0.58,0.08,0.7,0.19c0.12,0.12-0.31,0.5-0.31,0.5l-22.3,10.45l8.02,4.41
		c0,0,16.15-11.46,16.42-11.65c0.27-0.19,0.35-0.27,0.58-0.12s0.43,0.35,0.12,0.66c-0.31,0.31-15.76,11.62-15.76,11.62l9.29,5.34
		l6.27-7.24l0.12-8.75l5.46-4.96l0.04-1.82l1.16-0.85l-5.11-5.23L238.11,267.06z"/>
	<path d="M374.41,267.06l-12.08,6.27l-31.21-9.06c0,0-0.27-0.08-0.46,0.23s0.04,0.35,0.04,0.35l30.12,8.87l-9.33,4.65
		c0,0-23.43-11-23.74-11.15c-0.31-0.15-0.58,0.08-0.7,0.19c-0.12,0.12,0.31,0.5,0.31,0.5l22.3,10.45l-8.02,4.41
		c0,0-16.15-11.46-16.42-11.65c-0.27-0.19-0.35-0.27-0.58-0.12c-0.23,0.15-0.43,0.35-0.12,0.66c0.31,0.31,15.76,11.62,15.76,11.62
		l-9.29,5.34l-6.27-7.24l-0.12-8.75l-5.46-4.96l-0.04-1.82l-1.16-0.85l5.11-5.23L374.41,267.06z"/>
	<g>
		<path d="M322.76,246.97c-2.25-0.54-3.29-0.44-3.29-0.44s-0.43-0.76-2.52-0.84s-6.39,0.01-6.39,0.01s-0.32-0.48-1.56-0.56
			c-1.24-0.08-1.83,0.1-1.83,0.1s0.03-0.3,0.03-0.92c0-0.62-0.77-0.85-0.77-0.85s-0.77,0.23-0.77,0.85c0,0.62,0.03,0.92,0.03,0.92
			s-0.59-0.18-1.83-0.1c-1.24,0.08-1.56,0.56-1.56,0.56s-4.3-0.09-6.39-0.01s-2.52,0.84-2.52,0.84s-1.05-0.1-3.29,0.44
			c-2.25,0.54-2.79,2.56-1.01,4.41c1.24,1.3,4.57,3.79,6.48,5.19h-0.67v3.72h10.65l-16.59,13.27v20.86l17.24,13.94l16.93-13.84
			v-21.37l-15.68-12.86h10.9v-3.72h-1.06c1.91-1.4,5.24-3.89,6.48-5.19C325.55,249.52,325,247.51,322.76,246.97z M296.84,256.57
			l-0.65-6.51l4.26,6.51H296.84z M320.33,293.48l-14.35,11.46l-13.94-11.46v-18.9l14.15-11.67l14.15,11.87V293.48z M302.31,247.04
			l3.37,9.53h-3.37V247.04z M310.52,256.57h-3.37l3.37-9.53V256.57z M315.99,256.57h-3.61l4.26-6.51L315.99,256.57z"/>
		<path d="M304.98,243.83c0.47,0,1.15-0.85,1.15-0.85s-0.68-0.85-1.15-0.85s-0.85,0.38-0.85,0.85
			C304.13,243.45,304.51,243.83,304.98,243.83z"/>
		<path d="M306.7,242.98c0,0,0.68,0.85,1.15,0.85c0.47,0,0.85-0.38,0.85-0.85c0-0.47-0.38-0.85-0.85-0.85
			C307.38,242.13,306.7,242.98,306.7,242.98z"/>
		<path d="M306.49,242.7c0,0,0.85-0.68,0.85-1.15s-0.38-0.85-0.85-0.85s-0.85,0.38-0.85,0.85S306.49,242.7,306.49,242.7z"/>
	</g>
	<polygon points="296.53,272.73 293.69,275.05 293.69,292.97 296.84,295.96 296.84,279.7 298.29,278.3 298.29,274.23 296.53,275.52 
			"/>
	<polygon points="298.96,270.61 298.96,296.84 313.83,296.84 317.59,293.59 302.31,293.59 302.31,268.03 	"/>
	<polygon points="308.71,266.69 302.88,270.87 302.88,274.9 310.99,268.91 	"/>
	<polygon points="302.88,278.2 302.88,283.62 308.3,292.97 311.92,292.97 	"/>
	<polygon points="306.08,275.52 306.08,282.02 309.54,287.39 309.54,277.43 312.48,280.11 315.63,277.48 315.63,293.02 
		318.83,293.02 318.83,275.36 316.1,272.83 312.85,275.77 309.44,272.73 	"/>
	<polygon points="306.08,290.69 306.08,293.02 307.48,293.02 	"/>
	<polygon points="306.08,297.46 306.08,303.08 309.23,300.66 309.23,297.46 	"/>
	<polygon points="310.91,297.56 313,297.56 311.66,298.85 	"/>
	<path d="M314.45,303.76"/>
	<path d="M302,281.92"/>
</g>
<g>
	<g>
		<path d="M445.42,310.8c-0.08-0.06-1.94-1.57-3.44-3.61c-0.99-1.35-2.33-3.49-3.07-4.69l-3.22,3.31l-10.54-7.68l1.09-1.14h-2.43
			l-6.21-4.63l0.89-0.96h-2.2l-6.33-4.82l0.73-0.79h-1.92l-12.17-9.06H496.7l-12.17,9.06h-1.92l0.73,0.79l-6.33,4.82h-2.2l0.89,0.96
			l-6.21,4.63h-2.43l1.09,1.14l-10.54,7.68l-3.11-3.2c-0.75,1.22-2.03,3.26-2.99,4.57c-1.51,2.04-3.37,3.54-3.44,3.61l-1.32,1.06
			L445.42,310.8z"/>
		<path class="st0" d="M494.58,277.44h-95.86L409,285.1h3.29l-1.29,1.4l5.53,4.21h3.57l-1.46,1.57l5.4,4.02h3.84l-1.67,1.75
			l9.4,6.85l3.43-3.53c0.34,0.57,2.22,3.67,3.5,5.41c1.45,1.97,3.24,3.41,3.32,3.47l0.88,0.71l0.88-0.71
			c0.08-0.06,1.87-1.51,3.32-3.47c1.21-1.64,2.95-4.49,3.43-5.29l3.31,3.41l9.4-6.85l-1.67-1.75h3.84l5.4-4.02l-1.46-1.57h3.57
			l5.53-4.21l-1.29-1.4h3.29L494.58,277.44z"/>
	</g>
	<path class="st2" d="M435.85,292.98c-1.73-6.28-1.43-11.12-1.43-11.12l-3.11-3.01h-28.06l6.5,4.84h19.95l0.03,0.75h-14.65
		l-1.72,1.87l3.92,2.98h13.09l0.12,0.75h-7.58l-1.89,2.03l3.76,2.8h7.18l0.32,0.75h-1.56l-2.11,2.21l7.11,5.18l3.06-3.15
		C438.79,299.89,437.48,298.92,435.85,292.98z"/>
	<path class="st2" d="M436.05,282.31c0,0-0.12,2.23,0.53,6.87s3.23,9.66,3.23,9.66l5.86-6.42L436.05,282.31z"/>
	<path class="st2" d="M458,282.31c0,0,0.12,2.23-0.53,6.87c-0.66,4.64-3.23,9.66-3.23,9.66l-5.86-6.42L458,282.31z"/>
	<path class="st2" d="M447.02,293.55l-6.55,7c0,0,2.12,3.54,3.48,5.38s3.07,3.21,3.07,3.21s1.71-1.37,3.07-3.21s3.48-5.38,3.48-5.38
		L447.02,293.55z"/>
	<path class="st2" d="M458.01,292.98c1.73-6.28,1.43-11.12,1.43-11.12l3.11-3.01h28.06l-6.5,4.84h-19.95l-0.03,0.75h14.65l1.72,1.87
		l-3.92,2.98h-13.09l-0.12,0.75h7.58l1.89,2.03l-3.76,2.8h-7.18l-0.32,0.75h1.56l2.11,2.21l-7.11,5.18l-3.06-3.15
		C455.07,299.89,456.38,298.92,458.01,292.98z"/>
	<polygon class="st2" points="447.02,278.85 435.77,278.85 447.02,291 458.27,278.85 	"/>
	<polygon class="st2" points="447.09,279.83 447.86,282.63 450.76,282.49 448.33,284.09 449.36,286.81 447.09,284.99 444.82,286.81 
		445.85,284.09 443.42,282.49 446.32,282.63 	"/>
	<g>
		<path d="M401.09,274.16c-4.68,0-7.17-2.38-7.17-6.28c0-0.86,0.13-1.39,0.27-1.98l4.28-0.17c-0.13,0.46-0.27,0.92-0.27,1.72
			c0,1.82,0.78,3.01,2.92,3.01c2.06,0,3.24-0.96,3.24-3.17c0-1.75-0.8-2.94-3.91-4.39l-3.02-1.42c-2.46-1.16-3.35-3.5-3.35-6.34
			c0-4.13,2.33-7.13,7.01-7.13c3.83,0,6.4,2.48,6.4,6.11c0,0.46-0.11,1.19-0.27,1.75l-4.02,0.13c0.08-0.33,0.13-0.73,0.13-1.22
			c0-2.38-0.96-3.17-2.6-3.17c-1.58,0-2.49,0.96-2.49,2.44c0,1.72,0.8,2.48,2.86,3.5l3.37,1.68c2.92,1.45,4.26,4.03,4.26,7.04
			C408.74,271.51,406.17,274.16,401.09,274.16z"/>
		<path d="M422.34,273.76l-1.18-5.19h-5.59l-1.07,5.19h-4.52l5.67-25.37h5.65l5.7,25.37H422.34z M419.29,259.52
			c-0.35-1.72-0.83-4.13-0.96-5.42c-0.13,1.29-0.62,3.7-0.99,5.45c-0.37,1.88-0.91,4.82-0.91,4.82h3.8
			C420.23,264.38,419.66,261.41,419.29,259.52z"/>
		<path d="M437.55,273.76h-7.9v-25.37h6.96c4.28,0,6.88,2.54,6.88,6.64c0,3.3-1.42,4.99-3.61,5.42c2.19,0.3,4.31,2.25,4.31,6.14
			C444.18,272.24,440.92,273.76,437.55,273.76z M435.94,252.16h-1.82v6.47h1.87c1.66,0,2.84-0.99,2.84-3.3
			C438.83,252.95,437.71,252.16,435.94,252.16z M436.31,262.27h-2.19v7.7h2.25c1.98,0,3.16-1.12,3.16-3.8
			C439.53,263.85,438.19,262.27,436.31,262.27z"/>
		<path d="M447.58,273.76v-25.37h12.45v4.06h-7.92v6.11h7.12v4.29h-7.12v6.8h8.59v4.1H447.58z"/>
		<path d="M474.67,273.76c0,0-3.56-7.96-5.81-13.05c-0.32-0.76-0.99-2.61-0.99-2.61s0.11,1.95,0.11,2.77v12.88h-4.1v-25.37h4.1
			c0,0,3.67,8.22,5.97,13.51c0.27,0.63,0.88,2.68,0.88,2.68s-0.16-2.05-0.16-2.71v-13.48h4.1v25.37H474.67z"/>
		<path d="M493.76,273.76l-1.18-5.19h-5.59l-1.07,5.19h-4.52l5.67-25.37h5.65l5.7,25.37H493.76z M490.71,259.52
			c-0.35-1.72-0.83-4.13-0.96-5.42c-0.13,1.29-0.62,3.7-0.99,5.45c-0.37,1.88-0.91,4.82-0.91,4.82h3.8
			C491.64,264.38,491.08,261.41,490.71,259.52z"/>
	</g>
</g>
<g>
	<path d="M575.09,251.71c-0.86,1.87-1.71,3.73-2.56,5.58c-0.27-0.66-0.5-1.33-0.82-1.96c-0.66-1.3-1.62-2.31-3.04-2.78
		c-1.17-0.39-2.36-0.3-3.53,0.02c-1.65,0.46-3.1,1.32-4.52,2.25c-2.19,1.43-3.73,3.43-5.1,5.59c-2.16,3.38-3.91,6.99-5.57,10.63
		c-2,4.39-3.95,8.8-5.92,13.2c-1.02,2.27-2.15,4.46-3.73,6.41c-2.14,2.63-4.74,4.63-7.96,5.78c-1.68,0.6-3.41,0.86-5.19,0.81
		c-1.2-0.04-2.35-0.3-3.43-0.8c-1.93-0.89-3.35-2.32-4.32-4.2c-0.85-1.64-1.25-3.38-1.29-5.23c-0.1-3.89,1.34-7.13,3.96-9.92
		c1.37-1.46,2.88-2.75,4.67-3.69c1.89-0.99,3.9-1.46,6.04-1.3c1.85,0.14,3.57,0.71,5.13,1.73c0.12,0.08,0.23,0.17,0.36,0.26
		c-0.93,1.97-1.85,3.92-2.82,5.96c-0.07-0.51-0.08-0.94-0.19-1.34c-0.17-0.64-0.33-1.29-0.62-1.88c-0.71-1.45-2.07-2.07-3.65-1.76
		c-1.46,0.29-2.69,1.03-3.78,2c-2.5,2.2-4.09,4.94-4.67,8.23c-0.36,2.07-0.2,4.12,0.69,6.06c0.77,1.67,2.06,2.71,3.92,2.94
		c1.31,0.16,2.56-0.15,3.74-0.72c2.11-1.02,3.7-2.61,4.98-4.54c1.46-2.22,2.55-4.63,3.62-7.05c1.74-3.95,3.42-7.92,5.2-11.85
		c1.51-3.35,3.17-6.62,5.25-9.67c2.89-4.23,6.71-7.32,11.45-9.26c2.34-0.95,4.79-1.35,7.31-1.23c2.02,0.1,3.96,0.54,5.8,1.39
		c0.16,0.07,0.31,0.16,0.47,0.24C575.01,251.65,575.04,251.68,575.09,251.71z"/>
	<path d="M549,283.95c0.22-0.48,0.43-0.94,0.64-1.4c1.96-4.2,3.92-8.4,5.87-12.61c0.13-0.28,0.22-0.58,0.27-0.89
		c0.12-0.81-0.3-1.29-1.11-1.36c-0.14-0.01-0.29,0-0.49,0c0.27-0.5,0.51-0.97,0.77-1.42c0.03-0.06,0.16-0.1,0.24-0.1
		c2.1-0.01,4.2-0.01,6.3-0.01c0.02,0,0.04,0.01,0.11,0.03c-0.6,1.1-1.19,2.19-1.78,3.28c0.02,0.02,0.04,0.04,0.06,0.06
		c0.2-0.12,0.4-0.24,0.6-0.36c1.95-1.17,3.94-2.27,6.15-2.9c0.76-0.22,1.53-0.38,2.33-0.24c0.89,0.16,1.39,0.66,1.53,1.56
		c0.02,0.1,0.04,0.2,0.07,0.33c0.52-0.26,1.01-0.51,1.5-0.75c1.19-0.57,2.4-1.1,3.7-1.33c0.46-0.08,0.96-0.12,1.42-0.05
		c0.97,0.15,1.48,0.82,1.34,1.79c-0.11,0.8-0.32,1.58-0.56,2.35c-0.92,2.94-2.23,5.69-4,8.22c-1.4,2-3.05,3.75-5.17,5.02
		c-1.29,0.77-2.66,1.33-4.16,1.46c-1.02,0.09-2.04,0.03-3.01-0.32c-1.09-0.38-1.64-1.21-1.83-2.32c-0.16-0.93,0.02-1.8,0.4-2.66
		c1.31-2.97,2.61-5.94,3.9-8.92c0.1-0.24,0.18-0.49,0.23-0.74c0.08-0.45-0.21-0.72-0.66-0.64c-0.77,0.14-1.41,0.54-2.04,0.96
		c-0.84,0.57-1.66,1.18-2.47,1.78c-0.15,0.11-0.28,0.28-0.36,0.45c-1.82,3.83-3.62,7.67-5.44,11.5c-0.05,0.11-0.21,0.25-0.33,0.25
		c-1.27,0.02-2.53,0.01-3.8,0.01C549.14,283.99,549.09,283.97,549,283.95z M564,280.84c0.03,0.01,0.05,0.02,0.08,0.03
		c0,0.09-0.01,0.19,0,0.28c0.05,0.69,0.34,0.96,1.02,0.91c0.3-0.02,0.62-0.1,0.9-0.22c1.82-0.74,3.24-1.98,4.12-3.72
		c1.17-2.33,2.22-4.73,3.28-7.11c0.18-0.41,0.22-0.9,0.26-1.36c0.03-0.37-0.21-0.66-0.57-0.7c-0.34-0.03-0.72-0.03-1.04,0.08
		c-1.98,0.67-3.65,1.73-4.64,3.69c-1,1.96-1.87,3.97-2.67,6.02C564.48,279.43,564.25,280.14,564,280.84z"/>
	<path d="M630.02,280.1c-0.04,0.16-0.04,0.27-0.09,0.35c-0.87,1.61-2.05,2.9-3.82,3.52c-0.6,0.21-1.24,0.23-1.87,0.09
		c-0.91-0.2-1.29-0.87-1.05-1.84c0.04-0.15,0.08-0.29,0.14-0.53c-0.23,0.14-0.37,0.23-0.52,0.32c-1.32,0.8-2.68,1.52-4.18,1.89
		c-0.57,0.14-1.16,0.22-1.75,0.24c-1.35,0.03-2.17-0.7-2.33-2.04c-0.29-2.46,0.65-4.44,2.47-6.04c1.41-1.24,3.12-1.87,4.94-2.22
		c1.23-0.24,2.47-0.31,3.72-0.31c0.45,0,0.89,0.05,1.34,0.05c0.1,0,0.26-0.09,0.3-0.18c0.43-0.9,0.86-1.79,1.27-2.7
		c0.33-0.74-0.01-1.76-0.74-2.29c-0.94-0.68-1.91-0.56-2.89-0.11c-0.94,0.43-1.66,1.16-2.41,1.85c-0.51,0.47-1.02,0.94-1.57,1.37
		c-0.62,0.48-1.13,0.49-1.63,0.14c-0.57-0.41-0.72-0.98-0.41-1.61c0.47-0.96,1.24-1.66,2.1-2.25c1.58-1.09,3.34-1.67,5.23-1.93
		c1.53-0.21,3.05-0.16,4.53,0.26c0.97,0.27,1.81,0.76,2.21,1.75c0.32,0.79,0.34,1.6-0.02,2.39c-1.47,3.18-2.96,6.35-4.43,9.53
		c-0.11,0.25-0.32,0.54-0.07,0.77c0.22,0.21,0.51,0.03,0.76-0.08C629.49,280.38,629.72,280.25,630.02,280.1z M620.6,280.56
		c0.98-0.02,1.87-0.33,2.63-0.96c1.36-1.14,2.29-2.61,3.07-4.18c0.1-0.19,0.05-0.3-0.15-0.33c-0.5-0.09-0.99-0.23-1.49-0.24
		c-1.64-0.04-3,0.61-4.07,1.85c-0.59,0.69-1.13,1.41-1.37,2.3c-0.24,0.86,0.14,1.43,1.02,1.56
		C620.35,280.57,620.47,280.56,620.6,280.56z"/>
	<path d="M599.61,271.13c-0.35-0.9-0.77-1.68-1.38-2.34c-0.91-1-2.04-1.29-3.33-1.12c-0.71,0.09-1.38,0.29-1.96,0.72
		c-0.77,0.56-1,1.35-0.62,2.22c0.25,0.59,0.63,1.11,1.16,1.47c0.84,0.58,1.72,1.09,2.54,1.69c0.55,0.41,1.08,0.89,1.51,1.42
		c0.93,1.13,1.02,2.42,0.45,3.74c-0.82,1.87-2.17,3.24-3.97,4.18c-1.49,0.78-3.07,1.13-4.75,1.02c-2.22-0.14-4.02-1.23-4.83-3.37
		c-0.21-0.54-0.28-1.1-0.16-1.68c0.16-0.79,0.88-1.42,1.69-1.46c0.65-0.03,1.19,0.24,1.41,0.86c0.17,0.48,0.25,1,0.3,1.51
		c0.03,0.34,0.12,0.62,0.33,0.88c0.84,1.03,2.78,1.37,3.9,0.67c0.79-0.49,1.14-1.27,1.29-2.14c0.22-1.27-0.42-2.19-1.36-2.91
		c-0.67-0.51-1.42-0.94-2.16-1.36c-0.76-0.43-1.45-0.93-1.96-1.65c-1.11-1.57-0.96-3.35,0.39-4.72c0.88-0.9,1.95-1.5,3.09-2
		c1.65-0.72,3.35-1.16,5.16-1.09c1.75,0.07,3.33,0.61,4.69,1.75c0.21,0.17,0.25,0.31,0.12,0.57c-0.44,0.85-0.85,1.71-1.27,2.57
		C599.81,270.74,599.72,270.91,599.61,271.13z"/>
	<path d="M614.83,271.07c-0.34-0.6-0.64-1.21-1.02-1.75c-1.15-1.66-2.72-1.98-4.59-1.44c-0.37,0.11-0.74,0.29-1.06,0.51
		c-0.9,0.62-1.09,1.51-0.57,2.47c0.38,0.69,0.93,1.2,1.59,1.63c0.93,0.61,1.86,1.22,2.74,1.89c0.73,0.56,1.26,1.3,1.48,2.21
		c0.24,1.02,0.02,1.99-0.49,2.88c-1.85,3.2-4.64,4.75-8.33,4.68c-1.62-0.03-3.03-0.58-4.09-1.85c-0.72-0.85-1.15-1.81-1.08-2.96
		c0.07-1.07,1.23-1.93,2.23-1.64c0.49,0.14,0.81,0.48,0.96,0.94c0.12,0.4,0.2,0.83,0.21,1.25c0.02,0.47,0.15,0.86,0.5,1.16
		c0.93,0.79,2,1.11,3.19,0.78c1.26-0.35,1.8-1.6,1.9-2.6c0.11-1.14-0.45-2-1.31-2.64c-0.84-0.62-1.76-1.12-2.65-1.67
		c-0.7-0.43-1.29-0.98-1.72-1.68c-0.87-1.41-0.71-3.02,0.42-4.28c0.93-1.04,2.12-1.68,3.38-2.22c1.45-0.62,2.96-1.03,4.55-1.04
		c1.91-0.01,3.64,0.51,5.14,1.73c0.22,0.18,0.29,0.33,0.14,0.62c-0.47,0.9-0.91,1.82-1.36,2.73
		C614.94,270.88,614.88,270.98,614.83,271.07z"/>
	<path d="M651.39,266.12c-0.33,0.79-0.64,1.53-0.95,2.27c0.02,0.02,0.04,0.03,0.06,0.05c0.11-0.07,0.22-0.13,0.33-0.2
		c1.34-0.81,2.71-1.58,4.22-2.04c0.48-0.14,1-0.21,1.5-0.21c0.72,0,1.11,0.45,1.11,1.18c0,0.9-0.3,1.73-0.71,2.52
		c-0.49,0.95-1.1,1.81-1.98,2.44c-0.2,0.15-0.46,0.25-0.7,0.3c-0.31,0.06-0.53-0.09-0.55-0.4c-0.02-0.48,0.01-0.97,0.07-1.45
		c0.1-0.71-0.25-1.15-0.98-1.2c-1.23-0.08-3.63,1.12-4.3,2.63c-1.74,3.92-3.61,7.79-5.42,11.68c-0.1,0.21-0.21,0.28-0.44,0.28
		c-1.22-0.01-2.43,0-3.65-0.01c-0.09,0-0.18-0.01-0.32-0.02c0.11-0.23,0.19-0.44,0.29-0.64c2.37-5.09,4.74-10.19,7.11-15.28
		c0.26-0.56,0.52-1.13,0.8-1.69c0.05-0.1,0.18-0.21,0.28-0.22C648.56,266.11,649.95,266.12,651.39,266.12z"/>
	<path d="M581.68,280.12c-0.01,0.12,0,0.2-0.03,0.26c-0.91,1.73-2.15,3.11-4.09,3.68c-0.69,0.2-1.42,0.21-2.1-0.14
		c-0.51-0.26-0.73-0.75-0.66-1.32c0.1-0.76,0.49-1.41,0.8-2.08c2.16-4.63,4.33-9.26,6.49-13.89c0.15-0.32,0.32-0.45,0.7-0.45
		c1.16,0.03,2.33,0.01,3.49,0.01c0.08,0,0.16,0.01,0.28,0.02c-0.24,0.52-0.47,1.02-0.7,1.51c-1.88,4.03-3.76,8.06-5.63,12.1
		c-0.11,0.24-0.31,0.51-0.08,0.75c0.23,0.23,0.51,0.04,0.75-0.06C581.15,280.4,581.38,280.27,581.68,280.12z"/>
	<path d="M643.1,266.17c-0.43,0.93-0.84,1.79-1.24,2.65c-1.7,3.65-3.4,7.29-5.1,10.94c-0.07,0.15-0.13,0.31-0.16,0.47
		c-0.04,0.29,0.12,0.44,0.41,0.37c0.21-0.05,0.41-0.14,0.61-0.23c0.19-0.08,0.37-0.19,0.61-0.31c-0.04,0.16-0.04,0.27-0.09,0.36
		c-0.9,1.64-2.09,2.97-3.93,3.56c-0.67,0.21-1.38,0.22-2.05-0.04c-0.64-0.24-0.97-0.8-0.79-1.47c0.16-0.6,0.39-1.18,0.65-1.74
		c2.19-4.7,4.39-9.39,6.58-14.09c0.17-0.36,0.36-0.5,0.76-0.49c1.12,0.03,2.24,0.01,3.37,0.01
		C642.83,266.17,642.93,266.17,643.1,266.17z"/>
	<path d="M645.87,259.09c-0.16,0.35-0.3,0.68-0.45,1c-0.32,0.7-0.63,1.4-0.97,2.09c-0.05,0.1-0.19,0.21-0.28,0.21
		c-1.25,0.01-2.49,0.01-3.74,0.01c-0.03,0-0.06-0.01-0.12-0.03c0.03-0.08,0.04-0.16,0.08-0.23c0.43-0.94,0.86-1.89,1.29-2.83
		c0.07-0.15,0.14-0.25,0.34-0.25c1.24,0.01,2.47,0,3.71,0C645.76,259.07,645.79,259.08,645.87,259.09z"/>
	<path d="M583.74,262.42c0.49-1.07,0.97-2.12,1.46-3.16c0.03-0.07,0.16-0.14,0.24-0.14c1.26-0.01,2.51,0,3.77,0
		c0.03,0,0.05,0.02,0.11,0.05c-0.24,0.52-0.47,1.04-0.71,1.56c-0.23,0.51-0.46,1.02-0.71,1.52c-0.05,0.1-0.19,0.21-0.29,0.21
		c-1.25,0.01-2.49,0.01-3.74,0.01C583.85,262.46,583.82,262.45,583.74,262.42z"/>
</g>
<circle class="st0" cx="707.64" cy="277.36" r="35.39"/>
<g>
	<polygon points="693.57,258 680.11,258 680.11,262.29 684.52,262.29 684.52,294.56 689.16,294.56 689.16,262.29 693.57,262.29 	"/>
	<polygon points="695.05,258 699.46,294.56 703.63,294.56 706.61,275.27 709.82,294.56 713.39,294.56 719.23,258 713.99,258 
		711.61,275.27 709.23,258 704.34,258 701.96,275.27 699.94,258 	"/>
	<path d="M731.73,294.56h5.12L730.66,258h-6.07l-5.36,36.56h4.64l1.09-7.03h5.68L731.73,294.56z M725.65,283.13l2.16-13.93
		l2.16,13.93H725.65z"/>
</g>
<path d="M736.05,250.28l6.68-7.03h-4.56l-4.51,4.73c-6.93-6.14-16.04-9.88-26.03-9.88c-21.68,0-39.25,17.57-39.25,39.25
	c0,10.66,4.25,20.33,11.15,27.4l-7.37,7.73h4.7l5.14-5.4c6.88,5.93,15.83,9.52,25.62,9.52c21.68,0,39.25-17.57,39.25-39.25
	C746.89,266.86,742.76,257.32,736.05,250.28z M707.64,312.75c-19.54,0-35.39-15.84-35.39-35.39s15.84-35.39,35.39-35.39
	s35.39,15.84,35.39,35.39S727.18,312.75,707.64,312.75z"/>
</svg>
