<?xml version="1.0" encoding="UTF-8" standalone="no"?>
<svg
   xmlns:dc="http://purl.org/dc/elements/1.1/"
   xmlns:cc="http://creativecommons.org/ns#"
   xmlns:rdf="http://www.w3.org/1999/02/22-rdf-syntax-ns#"
   xmlns:svg="http://www.w3.org/2000/svg"
   xmlns="http://www.w3.org/2000/svg"
   xmlns:sodipodi="http://sodipodi.sourceforge.net/DTD/sodipodi-0.dtd"
   xmlns:inkscape="http://www.inkscape.org/namespaces/inkscape"
   version="1.1"
   id="Calque_2"
   x="0px"
   y="0px"
   viewBox="0 0 597.35607 340.03346"
   xml:space="preserve"
   sodipodi:docname="SITA_Founders-V2.svg"
   width="597.35608"
   height="340.03348"
   inkscape:version="1.0.1 (3bc2e813f5, 2020-09-07)"><metadata
   id="metadata288"><rdf:RDF><cc:Work
       rdf:about=""><dc:format>image/svg+xml</dc:format><dc:type
         rdf:resource="http://purl.org/dc/dcmitype/StillImage" /><dc:title></dc:title></cc:Work></rdf:RDF></metadata><defs
   id="defs286" /><sodipodi:namedview
   pagecolor="#ffffff"
   bordercolor="#666666"
   borderopacity="1"
   objecttolerance="10"
   gridtolerance="10"
   guidetolerance="10"
   inkscape:pageopacity="0"
   inkscape:pageshadow="2"
   inkscape:window-width="1920"
   inkscape:window-height="1046"
   id="namedview284"
   showgrid="false"
   fit-margin-top="10"
   fit-margin-left="10"
   fit-margin-right="10"
   fit-margin-bottom="10"
   lock-margins="true"
   inkscape:zoom="1.4446982"
   inkscape:cx="405.81578"
   inkscape:cy="197.15002"
   inkscape:window-x="1909"
   inkscape:window-y="-11"
   inkscape:window-maximized="1"
   inkscape:current-layer="Calque_2" />
<style
   type="text/css"
   id="style2">
	.st0{fill:#FFFFFF;}
	.st1{fill-rule:evenodd;clip-rule:evenodd;}
	.st2{fill:none;stroke:#000000;stroke-width:0.8029;stroke-miterlimit:10;}
</style>





<g
   id="g390"
   transform="translate(-29.295566,-100.49)"><g
     id="g54"
     transform="translate(0,1.8999969)">
	<circle
   cx="98.18"
   cy="147.05"
   r="35.43"
   id="circle38" />
	<g
   id="g46">
		<polygon
   class="st0"
   points="101.97,155.83 103.53,157.53 102.67,158.25 99.52,156.6 "
   id="polygon40" />
		<path
   class="st0"
   d="m 97.87,146.17 -0.22,-5.72 1.03,-0.13 c 0.27,-0.03 0.49,-0.25 0.52,-0.53 l 0.11,-1.08 c 0.01,-0.25 -0.2,-0.45 -0.44,-0.43 l -1.06,0.06 -0.01,-0.96 1.57,-0.15 c 0.26,-0.03 0.47,-0.22 0.53,-0.48 l 0.26,-1.32 c 0.05,-0.23 -0.15,-0.43 -0.38,-0.39 l -1.99,0.34 -0.01,-1.19 2.76,-0.49 c 0.29,-0.05 0.5,-0.3 0.5,-0.59 v -1.08 c 0,-0.19 -0.17,-0.33 -0.35,-0.29 l -2.92,0.61 -0.01,-1.23 4.08,-0.66 c 0.28,-0.05 0.5,-0.28 0.52,-0.57 l 0.09,-1.07 c 0.02,-0.23 -0.18,-0.41 -0.41,-0.36 l -4.3,0.85 -0.01,-0.95 c 0.41,-0.1 1.71,-0.4 2.77,-0.65 0.94,-0.22 3.06,-0.53 4.08,-0.68 0.34,-0.05 0.61,-0.32 0.64,-0.67 l 0.13,-1.2 c 0.03,-0.25 -0.18,-0.46 -0.42,-0.43 -0.61,0.07 -1.73,0.21 -2.85,0.44 -1.4,0.29 -3.65,0.88 -4.36,1.06 l -0.01,-1.04 c 0.4,-0.1 2.83,-0.72 5.15,-1.24 1.85,-0.41 3.85,-0.62 4.79,-0.71 0.33,-0.03 0.61,-0.28 0.67,-0.61 l 0.2,-1.05 c 0.07,-0.34 -0.22,-0.64 -0.55,-0.59 -1.11,0.16 -3.33,0.48 -4.8,0.72 -1.68,0.27 -4.53,1.15 -5.47,1.46 l -0.01,-1.13 c 0.94,-0.33 3.16,-1.08 5.07,-1.44 1.98,-0.37 5.52,-0.67 6.9,-0.77 0.34,-0.03 0.61,-0.28 0.67,-0.61 l 0.21,-1.19 c 0.05,-0.31 -0.19,-0.59 -0.5,-0.58 -1.6,0.07 -5.97,0.33 -8.56,1 -3.21,0.83 -9.14,2.41 -11.76,7.14 -2.62,4.72 1.25,6.6 1.25,6.6 l -0.07,14.01 -19.28,0.18 -0.54,0.96 26.08,9.54 30.55,-10.25 0.44,-0.77 z m -22.63,1.91 -1.6,-0.63 1.98,-0.05 z"
   id="path42" />
		<path
   class="st0"
   d="m 70.89,147.81 c 0,0 -0.69,0.91 -0.96,1.34 -0.27,0.43 -0.02,1.39 -0.02,1.39 0,0 0.81,-1.4 1.21,-1.47 0.4,-0.08 0.8,-0.11 0.8,-0.11 l 0.37,-0.38 z"
   id="path44" />
	</g>
	<path
   class="st0"
   d="m 90.14,172.81 1.93,0.99 -0.23,-11.11 -3.76,-2.17 -8.93,6.19 1.72,1.18 1.94,-1.4 7.32,4.66 z m -5.65,-7.53 3.59,-2.59 2.02,1.29 0.03,4.99 z"
   id="path48" />
	<path
   class="st0"
   d="m 107.07,171.22 7.23,-4.79 1.97,1.36 1.7,-1.21 -9.04,-6.03 -3.72,2.24 -0.04,11.11 1.91,-1.02 z m -0.03,-2.16 -0.06,-4.99 1.99,-1.33 3.63,2.52 z"
   id="path50" />
	<path
   class="st0"
   d="m 102.47,168.7 c 0,0 1.21,-0.86 0.92,-2.43 -0.45,-2.42 -3.26,-2.57 -3.26,-2.57 l -5.35,0.03 -0.34,10.59 c 0,0 4.16,0.11 6.15,-0.09 1.99,-0.2 3.33,-1.22 3.33,-3.1 -0.02,-1.71 -1.45,-2.43 -1.45,-2.43 z m -2.06,-2.98 c 1.39,0.02 1.56,1.91 0.15,1.99 -1.42,0.08 -4.24,0.03 -4.24,0.03 l 0.03,-2.01 c 0,0.01 3,-0.02 4.06,-0.01 z m 0.63,6.23 c -1.19,0.06 -4.91,0.05 -4.91,0.05 l 0.06,-2.15 c -0.1,0.06 4.43,0 4.43,0 1.71,-0.02 1.61,2.03 0.42,2.1 z"
   id="path52" />
</g><g
     id="g128"
     transform="translate(-4.7709033)">
	<g
   id="g104">
		<g
   id="g102">
			<path
   d="m 249.87,152.95 c -0.74,-1.23 -1.58,-2.62 -2.41,-4 -1.07,-1.77 -2.14,-3.54 -3.19,-5.32 -0.2,-0.34 -0.64,-0.73 0.03,-1.15 1.1,1.16 2.13,2.43 3.83,3.22 0.4,-4.43 0.45,-8.77 0.81,-12.98 1.91,-1.83 4.16,-2.6 6.53,-3.11 0.4,-0.09 0.8,-0.22 1.2,-0.2 0.88,0.05 1.48,-0.29 1.8,-1.22 0.59,0.72 1.1,1.35 1.71,2.1 -0.52,2.95 -1.06,5.99 -1.6,9.07 -0.59,0 -1.13,0 -1.68,0 -0.65,-0.89 -0.99,-2.01 -2.16,-2.68 -0.46,2.14 0.61,3.74 1.39,5.48 -1.08,1.58 -2.19,3.2 -3.3,4.82 0.08,0.06 0.17,0.13 0.25,0.19 2.21,-1.94 3.68,-4.54 5.79,-6.68 0.6,0.38 1.21,0.77 1.89,1.19 -0.06,0.9 -0.11,1.82 -0.19,2.73 -0.15,1.66 -0.32,3.31 -0.48,4.96 -0.08,0.81 -0.39,1.45 -1.1,1.94 -1.08,0.76 -2.09,1.61 -3.28,2.53 0.08,-0.91 0.15,-1.63 0.21,-2.41 0.38,-0.05 0.73,-0.1 1.17,-0.16 0.14,-0.29 0.29,-0.62 0.46,-0.97 0.33,-0.05 0.68,-0.11 1.14,-0.18 0.34,-1.97 0.3,-3.93 0.26,-5.89 -0.08,-0.03 -0.16,-0.06 -0.24,-0.08 -0.19,0.24 -0.4,0.46 -0.56,0.71 -1.12,1.74 -2.25,3.48 -3.32,5.24 -0.37,0.61 -0.85,0.97 -1.49,1.23 -1.14,0.5 -2.26,1.06 -3.47,1.62 z"
   id="path56" />
			<path
   d="m 242.84,114.29 c 2.03,0.03 3.96,0.18 5.85,0.71 0.24,1.3 -0.94,23.77 -1.53,29.04 -0.61,-0.63 -1.19,-1.13 -1.66,-1.73 -2.31,-2.9 -3.52,-6.25 -3.54,-9.93 -0.02,-3.17 0.23,-6.35 0.37,-9.53 0.08,-1.88 0.17,-3.77 0.27,-5.65 0.05,-0.93 0.15,-1.88 0.24,-2.91 z"
   id="path58" />
			<path
   d="m 241.92,114.51 c -0.09,0.97 -0.17,1.84 -0.25,2.8 -3.45,0.59 -6.57,1.92 -9.24,4.18 -2.64,2.23 -4.62,4.95 -5.77,8.22 -1,0 -1.94,0 -2.89,0 1.7,-7.51 9.65,-14.68 18.15,-15.2 z"
   id="path60" />
			<path
   d="m 230.02,131.55 c -0.9,0 -1.82,0 -2.74,0 0.88,-6.02 7.69,-12.56 14.39,-13.06 -0.06,0.92 -0.13,1.82 -0.19,2.78 -5.68,1.35 -9.39,4.88 -11.46,10.28 z"
   id="path62" />
			<path
   d="m 224.77,142.16 c -0.03,-1.65 0.46,-2.22 1.97,-2.36 0.4,-0.04 0.8,-0.13 1.15,-0.19 1.43,-2.53 2.18,-2.96 3.85,-2.13 -0.75,1.48 -1.31,3.02 -0.7,4.72 0.57,1.61 1.64,2.88 2.79,4.02 0.3,1.38 -1.17,2.07 -1.1,3.4 -0.99,-0.48 -1.59,-1.22 -2.07,-2.04 -0.54,-0.92 -0.99,-1.9 -1.5,-2.84 -0.62,-1.14 -1.5,-2.03 -2.78,-2.4 -0.51,-0.14 -1.08,-0.12 -1.61,-0.18 z"
   id="path64" />
			<path
   d="m 243.11,143.7 c 2.06,3.48 4.03,6.81 6.02,10.19 -1.22,1.16 -2.64,1.7 -4.14,2.1 -0.81,-0.54 -1.09,-1.32 -1.04,-2.21 0.07,-1.22 -0.27,-2.21 -1.19,-3.08 -0.36,-0.34 -0.52,-0.96 -0.61,-1.48 -0.28,-1.48 0.11,-2.94 0.35,-4.39 0.05,-0.36 0.35,-0.68 0.61,-1.13 z"
   id="path66" />
			<path
   d="m 233.18,133.52 c -0.87,0 -1.64,0 -2.42,0 0.44,-4.79 5.17,-10.34 10.69,-11.02 -0.08,0.82 -0.15,1.62 -0.23,2.49 -4.23,1.33 -6.84,4.26 -8.04,8.53 z"
   id="path68" />
			<path
   d="m 241.23,126.29 c -0.07,0.9 -0.15,1.77 -0.22,2.69 -2.64,1.27 -4.21,3.38 -4.77,6.31 -0.7,0 -1.37,0 -2.04,0 -0.32,-3.67 3.34,-8.37 7.03,-9 z"
   id="path70" />
			<path
   d="m 241.05,149.32 c 0.16,0.98 0.56,1.72 1.3,2.31 0.51,0.41 0.71,1.02 0.69,1.68 -0.03,1 -0.04,2 0.7,2.9 -1.67,0.07 -3.18,0.13 -4.7,-0.54 -0.02,-0.33 -0.05,-0.69 -0.05,-1.05 -0.01,-0.75 -0.13,-1.46 -0.53,-2.12 -0.19,-0.32 -0.24,-0.74 -0.34,-1.07 1.01,-0.74 1.94,-1.4 2.93,-2.11 z"
   id="path72" />
			<path
   d="m 236.63,145.32 c 1.19,-0.28 1.91,-1.22 2.58,-2.25 0.33,-0.5 0.83,-0.71 1.44,-0.54 1.29,2.28 0.46,5.68 -1.46,6.79 -0.78,-0.15 -1.27,-0.61 -1.53,-1.38 -0.29,-0.84 -0.66,-1.67 -1.03,-2.62 z"
   id="path74" />
			<path
   d="m 241.02,130.25 c -0.09,1.15 -0.18,2.17 -0.27,3.29 -0.76,0.91 -1.38,1.97 -1.31,3.37 -0.77,-0.09 -1.41,-0.16 -2.05,-0.23 -0.51,-2.38 1.18,-5.4 3.63,-6.43 z"
   id="path76" />
			<path
   d="m 236.19,143.76 c 0.06,-0.87 0,-1.72 -0.62,-2.48 -0.35,-0.44 -0.38,-1.04 0.09,-1.63 1.7,-0.26 3.2,0.14 4.43,1.68 -1.11,0.35 -1.7,1.16 -2.25,2.05 -0.48,0.79 -0.8,0.83 -1.65,0.38 z"
   id="path78" />
			<path
   d="m 234.09,150.37 c -0.28,-0.83 -0.25,-1.56 0.14,-2.29 0.28,-0.55 0.49,-1.13 0.75,-1.75 0.26,0 0.58,0 0.84,0 0.63,0.41 0.92,0.97 0.97,1.62 0.07,0.89 0.49,1.52 1.37,2.07 -1.36,0.67 -2.64,0.79 -4.07,0.35 z"
   id="path80" />
			<path
   d="m 233.99,140.05 c 0.38,0.82 0.74,1.58 1.09,2.34 0.5,1.08 -0.69,1.83 -0.53,2.91 -2.36,-1.08 -2.63,-3.78 -0.56,-5.25 z"
   id="path82" />
			<path
   d="m 237.65,155.06 c -1.65,-0.92 -2.97,-2.11 -4.18,-3.54 1.26,0 2.43,0 3.55,0 1.1,2.31 1.1,2.31 0.63,3.54 z"
   id="path84" />
			<path
   d="m 252.92,126.04 c 0.84,-0.19 1.5,-0.35 2.34,-0.54 -0.05,1.18 0.12,2.22 -0.22,3.26 -0.49,0.12 -0.9,0.22 -1.43,0.34 -0.23,-0.99 -0.44,-1.94 -0.69,-3.06 z"
   id="path86" />
			<path
   d="m 251.3,130.04 c -0.34,-0.97 -0.64,-1.82 -0.96,-2.77 0.57,-0.3 1.1,-0.58 1.72,-0.91 0.25,1.07 0.46,2.02 0.69,3.01 -0.5,0.23 -0.92,0.43 -1.45,0.67 z"
   id="path88" />
			<path
   d="m 242.15,138.68 c -0.61,-0.04 -1.14,-0.08 -1.75,-0.12 -0.01,-1.36 -0.34,-2.66 0.66,-3.85 0.38,1.36 0.72,2.61 1.09,3.97 z"
   id="path90" />
			<path
   d="m 257.46,128.44 c -0.51,0.08 -0.87,0.14 -1.37,0.21 0.05,-1.03 0.1,-2 0.15,-3.01 0.62,0 1.11,0 1.68,0 -0.16,1.01 -0.31,1.93 -0.46,2.8 z"
   id="path92" />
			<path
   d="m 249.6,127.87 c 0.29,0.88 0.58,1.73 0.87,2.6 -0.49,0.32 -0.88,0.57 -1.29,0.84 -0.32,-1.61 -0.18,-2.76 0.42,-3.44 z"
   id="path94" />
			<path
   d="m 262.85,132.18 c -0.51,0.04 -0.8,0.06 -1.08,0.09 -0.29,0.03 -0.57,0.07 -0.91,0.12 0,-0.43 0,-0.86 0,-1.39 0.52,-0.13 1.03,-0.26 1.66,-0.41 0.12,0.52 0.21,0.99 0.33,1.59 z"
   id="path96" />
			<path
   d="m 258.53,127.04 c 0.15,-0.4 0.26,-0.7 0.42,-1.12 0.6,0.43 1.13,0.81 1.75,1.26 -0.42,0.38 -0.76,0.68 -1.17,1.04 -0.3,-0.36 -0.62,-0.74 -1,-1.18 z"
   id="path98" />
			<path
   d="m 260.87,130.04 c -0.24,-0.4 -0.43,-0.71 -0.63,-1.06 0.33,-0.34 0.65,-0.66 1.06,-1.08 0.35,0.63 0.64,1.15 0.98,1.75 -0.54,0.15 -0.94,0.26 -1.41,0.39 z"
   id="path100" />
		</g>
	</g>
	<path
   d="m 243.19,110.49 c -14.02,0 -25.38,11.36 -25.38,25.38 0,14.02 11.36,25.38 25.38,25.38 14.02,0 25.38,-11.36 25.38,-25.38 0,-14.02 -11.36,-25.38 -25.38,-25.38 z m 0,49.65 c -13.41,0 -24.28,-10.87 -24.28,-24.28 0,-13.41 10.87,-24.28 24.28,-24.28 13.41,0 24.28,10.87 24.28,24.28 0,13.41 -10.87,24.28 -24.28,24.28 z"
   id="path106" />
	<g
   id="g126">
		<path
   d="m 191.3,184.16 h -7.56 l -1.08,3.15 h -2.44 l 7.32,-21.61 7.29,21.61 h -2.44 z m -0.77,-2.34 -2.99,-8.89 -3.03,8.89 z"
   id="path108" />
		<path
   d="m 199.11,165.79 v 21.52 h -2.44 v -21.52 z"
   id="path110" />
		<path
   d="m 205.03,165.79 c 4.66,0 8.15,3.37 8.15,8.06 0,3.33 -1.73,5.96 -4.38,7.22 l 4.38,6.24 h -2.87 l -3.7,-5.53 c -0.96,0.15 -1.95,0.12 -2.9,0.12 v 5.4 h -2.44 v -21.52 h 3.76 z m 0,13.77 c 2.75,0 5.71,-1.79 5.71,-5.71 0,-3.92 -3.03,-5.71 -5.71,-5.71 h -1.33 v 11.42 z"
   id="path112" />
		<path
   d="m 231.21,165.79 v 2.35 h -6.95 v 11.42 H 230 v 2.35 h -5.74 v 5.4 h -2.44 v -21.52 z"
   id="path114" />
		<path
   d="m 236.83,165.79 c 4.66,0 8.15,3.37 8.15,8.06 0,3.33 -1.73,5.96 -4.38,7.22 l 4.38,6.24 h -2.87 l -3.7,-5.53 c -0.96,0.15 -1.95,0.12 -2.9,0.12 v 5.4 h -2.44 v -21.52 h 3.76 z m 0,13.77 c 2.75,0 5.71,-1.79 5.71,-5.71 0,-3.92 -3.03,-5.71 -5.71,-5.71 h -1.33 v 11.42 z"
   id="path116" />
		<path
   d="m 257.61,184.16 h -7.56 l -1.08,3.15 h -2.44 l 7.32,-21.61 7.29,21.61 h -2.44 z m -0.77,-2.34 -2.99,-8.89 -3.03,8.89 z"
   id="path118" />
		<path
   d="m 274.56,165.79 v 21.52 h -2.44 l -6.7,-15.75 v 15.75 h -2.44 v -21.52 h 2.44 l 6.7,15.75 v -15.75 z"
   id="path120" />
		<path
   d="m 288.64,165.79 v 2.44 c -0.4,-0.06 -0.8,-0.09 -1.2,-0.09 -4.66,0 -8.43,3.77 -8.43,8.43 0,4.63 3.77,8.4 8.43,8.4 0.4,0 0.8,-0.03 1.2,-0.09 v 2.47 c -0.4,0.03 -0.8,0.06 -1.2,0.06 -5.99,0 -10.87,-4.85 -10.87,-10.84 0,-6.02 4.88,-10.87 10.87,-10.87 0.4,0 0.8,0.03 1.2,0.09 z"
   id="path122" />
		<path
   d="m 300.18,165.79 v 2.35 h -6.95 v 11.42 h 5.74 v 2.35 h -5.74 v 3.06 h 6.95 v 2.35 h -9.39 V 165.8 h 9.39 z"
   id="path124" />
	</g>
</g><g
     id="g144"
     transform="translate(14.368169,-5.95)">
	<polygon
   points="392.94,151.48 424.06,151.48 422.51,154.78 445.76,154.78 432.41,133.68 322.88,133.68 339.96,138.27 430.26,138.27 429.38,140.14 347.72,140.14 366.52,144.87 427.16,144.87 426.28,146.74 374.42,146.74 "
   id="polygon130" />
	<path
   d="m 385.04,159.09 -4.52,-8.76 -7.82,-0.01 -6.75,10.48 6.75,10.19 7.9,0.29 4.45,-8.61 h 2.58 v -3.58 z m -5.74,8.78 h -5.31 l -4.56,-7.07 4.56,-7.2 h 5.31 l 3.75,7.2 z"
   id="path132" />
	<rect
   x="388.88"
   y="159.09"
   width="2.26"
   height="3.6099999"
   id="rect134" />
	<rect
   x="392.59"
   y="159.09"
   width="58.459999"
   height="3.6099999"
   id="rect136" />
	<path
   d="m 426.71,169.55 0.86,-1.08 v -3.71 h -7.32 l -0.01,11.36 h 7.98 v -4.79 z m -4.1,-3.02 h 2.75 v 1.13 l -0.8,1.24 h -1.95 z m 3.6,7.08 -0.68,0.68 h -2.79 v -3.36 c -0.03,-0.03 2.15,-0.01 2.15,-0.01 l 1.32,1.32 z"
   id="path138" />
	<polygon
   points="432.74,171.14 436.86,171.14 436.86,169.24 432.74,169.24 432.74,166.62 436.86,166.62 436.86,164.72 432.74,164.72 431.3,164.72 430.4,164.72 430.4,176.06 431.3,176.06 431.3,176.12 436.86,176.12 436.86,174.21 432.74,174.21 "
   id="polygon140" />
	<path
   d="m 445.11,164.76 h -2.55 l -3.66,11.36 h 2.51 l 0.72,-2.14 h 4.27 l 0.93,2.14 h 2.33 z m -2.25,7.1 1.33,-4.02 1.44,4.03 z"
   id="path142" />
</g><g
     id="g153"
     transform="translate(-7.3339844e-6,-4.8304005)">
	<g
   id="g148"
   transform="translate(-209.76276,-360.059)">
		<path
   id="path146"
   class="st1"
   d="m 733.31,532.46 c 1.63,0.74 2.73,2.08 2.73,3.61 0,2.32 -2.51,4.21 -5.6,4.21 h -13.42 v -14.7 h 12.99 c 3.09,0 5.6,1.71 5.6,3.81 0,1.26 -0.91,2.38 -2.3,3.07 z m 15.64,-7.41 c 6.01,0 10.35,2.42 10.35,7.88 0,5.46 -5.97,7.88 -10.35,7.88 -4.38,0 -10.35,-2.83 -10.35,-7.88 0,-5.06 4.34,-7.88 10.35,-7.88 z m 17.91,0.53 h 8.46 l 6.88,14.7 h -7.25 l -1.12,-3.04 h -6.4 l -1.32,3.04 h -7.02 z m 25.88,-0.53 c 5.4,0 9.45,1.95 10.22,6.31 l -6.58,0.34 c -0.47,-2.08 -2.22,-2.8 -3.58,-2.8 -1.59,0 -3.7,1.05 -3.7,3.9 0,2.86 2.48,4.02 3.74,4.02 1.04,0 2.84,-0.68 3.45,-2.57 l 6.46,0.83 c -1.33,3.94 -6.25,5.72 -10.01,5.72 -4.38,0 -10.35,-2.83 -10.35,-7.88 0,-5.05 4.35,-7.87 10.35,-7.87 z m -21.88,4.78 -1.88,3.96 h 3.57 z M 749,528.9 c 1.59,0 3.7,0.97 3.7,3.94 0,2.97 -2.4,3.98 -3.66,3.98 -1.27,0 -3.74,-1.16 -3.74,-4.02 -0.01,-2.85 2.11,-3.9 3.7,-3.9 z m -25.29,0.06 h 3.89 c 0.6,0 1.09,0.49 1.09,1.09 v 0 c 0,0.6 -0.49,1.09 -1.09,1.09 h -3.89 z m 0,5.27 h 4.38 c 0.67,0 1.22,0.55 1.22,1.22 v 0 c 0,0.67 -0.55,1.22 -1.22,1.22 h -4.38 z" />
	</g>
	<g
   id="g16"
   transform="translate(-209.76276,-360.059)">
		<path
   id="path150"
   class="st1"
   d="m 719.15,486.87 h 60.36 c 0.67,0 1.41,0 1.61,0.72 l 2.04,3.72 h 12.59 c 1.6,0 0.81,0.81 -0.19,1.11 l -74.73,27.9 c -1.6,0.52 -1.32,-0.25 -0.27,-0.76 l 29.6,-16.12 c 0.97,-0.47 1.1,-0.83 -0.03,-1.3 l -31.05,-13.71 c -0.8,-0.08 -2.6,-1.61 0.07,-1.56 z" />
	</g>
</g></g>

<g
   id="g438"
   transform="translate(-47.31588,-106.24475)"><g
     id="g22"
     transform="translate(205.45951,3.8064827)">
	<path
   d="m 220.29,240.51 c -1.2,-0.57 -2.92,0.06 -3.49,0.69 -0.57,0.63 -2.06,1.26 -8,1.49 -5.95,0.23 -8.46,1.66 -10.18,2.86 -1.71,1.2 -8.12,6.4 -8.12,6.4 0,0 -0.91,-0.97 -2.23,-1.31 -1.31,-0.34 -2.29,0.86 -2.29,0.86 0,0 -1.09,-0.17 -2.92,-0.97 -1.83,-0.8 -8.75,-5.26 -11.32,-6.35 -2.57,-1.09 -6.97,-1.31 -9.66,-1.49 -2.69,-0.17 -5.49,-1.14 -5.49,-1.14 0,0 -0.57,0.34 0,0.63 0.57,0.29 3.72,1.2 7.89,1.49 4.17,0.29 6.69,1.43 10.35,4.4 3.66,2.97 6.97,4.23 8.46,4.4 1.49,0.17 1.6,0.34 1.49,0.8 -0.11,0.46 -1.49,0.51 -2.52,1.37 -1.03,0.86 -0.46,1.83 -0.46,1.83 l -0.57,1.66 c 0,0 2.63,-1.94 2.97,-2.06 0.34,-0.11 3.26,-1.49 4.23,-1.72 0.97,-0.23 2,0.06 2.34,0.8 0.34,0.74 -1.09,1.09 -1.09,1.09 0,0 0.8,0.69 3.14,0.74 2.34,0.06 4.86,-0.91 4.86,-0.91 0,0 -1.2,-0.46 -3.72,-0.97 -2.52,-0.51 -2.74,-2.63 -2.74,-2.63 l 5.55,-0.23 c 0,0 5.95,-7.15 8.8,-8.23 2.86,-1.09 9.15,-0.91 10.23,-1.09 1.09,-0.17 2.92,-1.14 4.12,-1.09 1.22,0.05 1.57,-0.75 0.37,-1.32 z m -36.86,15.39 c -0.2,0 -0.36,-0.16 -0.36,-0.36 0,-0.2 0.16,-0.36 0.36,-0.36 0.2,0 0.36,0.16 0.36,0.36 -0.01,0.2 -0.17,0.36 -0.36,0.36 z"
   id="path4" />
	<g
   id="g12">
		<path
   d="m 205.84,261.89 c 0,0 -4.63,1.2 -10.06,1.2 -3.87,0 -6.34,-1.09 -7.36,-1.65 -0.34,-0.19 -0.73,-0.17 -1.06,0.02 -0.99,0.57 -3.35,1.63 -7.32,1.63 -5.43,0 -10.06,-1.2 -10.06,-1.2 -0.46,-0.17 -0.17,0.4 0.23,1.2 0.4,0.8 2.97,1.09 8.12,1.6 4.31,0.43 8.14,-1.22 9.26,-1.77 0.21,-0.1 0.44,-0.1 0.65,0 1.12,0.55 4.95,2.2 9.26,1.77 5.15,-0.51 7.72,-0.8 8.12,-1.6 0.39,-0.8 0.68,-1.37 0.22,-1.2 z"
   id="path6" />
		<path
   d="m 198.79,266.52 c -2.86,0.17 -4.74,0.34 -6.8,-0.17 -1.94,-0.48 -3.54,-1.57 -4.06,-1.57 -0.51,0 -2.46,1.08 -4.4,1.57 -2.06,0.51 -3.94,0.34 -6.8,0.17 -2.86,-0.17 -4.4,-1.14 -4.4,-1.14 -0.29,-0.17 -0.11,0.4 0.23,0.97 0.34,0.57 1.3,1.66 7.26,1.6 4.54,-0.04 6.9,-0.97 7.81,-1.46 0.2,-0.11 0.42,-0.1 0.62,0.01 0.86,0.49 2.96,1.41 7.46,1.45 5.96,0.05 6.92,-1.03 7.26,-1.6 0.34,-0.57 0.51,-1.14 0.23,-0.97 -0.01,-0.01 -1.55,0.97 -4.41,1.14 z"
   id="path8" />
		<path
   d="m 194.5,269.66 c -3.03,-0.46 -5.89,-1.49 -6.29,-1.49 -0.2,0 -0.35,0.01 -0.46,0.03 -0.11,-0.01 -0.26,-0.03 -0.46,-0.03 -0.4,0 -3.26,1.03 -6.29,1.49 -3.03,0.46 -4.06,-0.74 -4.34,-0.46 0,0 0,0.34 0.29,0.46 0.29,0.11 1.26,1.43 5.09,1.2 2.62,-0.16 4.5,-0.77 5.4,-1.15 0.31,-0.13 0.63,-0.12 0.93,0.02 0.84,0.38 2.51,0.98 5.09,1.14 3.83,0.23 4.8,-1.09 5.09,-1.2 0.29,-0.11 0.29,-0.46 0.29,-0.46 -0.28,-0.29 -1.31,0.91 -4.34,0.45 z"
   id="path10" />
	</g>
	<path
   d="m 187.64,228.9 c -12.71,0 -23.02,10.31 -23.02,23.02 0,12.71 10.31,23.02 23.02,23.02 12.71,0 23.02,-10.31 23.02,-23.02 0,-12.71 -10.3,-23.02 -23.02,-23.02 z m 0,44.82 c -12.04,0 -21.8,-9.76 -21.8,-21.8 0,-12.04 9.76,-21.8 21.8,-21.8 12.04,0 21.8,9.76 21.8,21.8 0,12.04 -9.76,21.8 -21.8,21.8 z"
   id="path14" />
	<path
   d="m 173.54,277.01 h -11.25 v 10.62 h 1.15 c 0.77,0 1.4,0.63 1.4,1.4 v 13.42 c 0,0.77 -0.63,1.4 -1.4,1.4 h -1.15 v 10.58 h 11.34 c 1.58,0 2.86,-1.28 2.86,-2.86 v -31.61 c 0,-1.63 -1.32,-2.95 -2.95,-2.95 z m -1.41,25.45 c 0,0.77 -0.63,1.4 -1.4,1.4 -0.77,0 -1.4,-0.63 -1.4,-1.4 v -13.42 c 0,-0.77 0.63,-1.4 1.4,-1.4 0.77,0 1.4,0.63 1.4,1.4 z"
   id="path16" />
	<path
   d="m 192.48,277.01 h -11.25 v 10.62 h 1.15 c 0.77,0 1.4,0.63 1.4,1.4 v 13.42 c 0,0.77 -0.63,1.4 -1.4,1.4 h -1.15 v 10.58 h 11.34 c 1.58,0 2.86,-1.28 2.86,-2.86 v -31.61 c 0,-1.63 -1.32,-2.95 -2.95,-2.95 z m -1.42,25.45 c 0,0.77 -0.63,1.4 -1.4,1.4 -0.77,0 -1.4,-0.63 -1.4,-1.4 v -13.42 c 0,-0.77 0.63,-1.4 1.4,-1.4 0.77,0 1.4,0.63 1.4,1.4 z"
   id="path18" />
	<path
   d="m 210.02,297.02 v 5.45 c 0,0.76 -0.62,1.38 -1.38,1.38 -0.76,0 -1.38,-0.62 -1.38,-1.38 v -13.46 c 0,-0.76 0.62,-1.38 1.38,-1.38 h 1.2 v -10.7 h -9.63 v 10.7 h 1.39 c 0.79,0 1.43,0.64 1.43,1.43 v 13.36 c 0,0.79 -0.64,1.43 -1.43,1.43 h -1.39 v 10.58 h 13.91 v -17.41 z"
   id="path20" />
</g><g
     id="g36"
     transform="translate(161.70602,4.5864827)">
	<path
   d="m 100.38,224.69 c -15.12,0 -27.38,12.04 -27.38,26.9 0,14.86 12.26,26.9 27.38,26.9 15.12,0 27.38,-12.04 27.38,-26.9 0,-14.85 -12.26,-26.9 -27.38,-26.9 z m 0,1.46 c 13.73,0 25,10.53 25.87,23.8 -0.9,-0.83 -5.77,-4.93 -12.86,-2.57 -7.86,2.62 -13.01,9.32 -13.01,9.32 0,0 -5.15,-6.7 -13.01,-9.32 -7.09,-2.36 -11.96,1.74 -12.86,2.57 0.87,-13.27 12.14,-23.8 25.87,-23.8 z m 0,50.89 c -14.3,0 -25.93,-11.42 -25.93,-25.45 0,-0.54 0.02,-1.07 0.05,-1.6 1.06,-0.67 7.72,-4.37 15.48,2.33 8.54,7.38 10.39,16.99 10.39,16.99 0,0 1.84,-9.61 10.39,-16.99 7.76,-6.7 14.42,-3 15.48,-2.33 0.03,0.53 0.05,1.06 0.05,1.6 0.02,14.03 -11.61,25.45 -25.91,25.45 z"
   id="path24" />
	<circle
   cx="100.25"
   cy="236.11"
   r="3.4000001"
   id="circle26" />
	<g
   id="g34">
		<path
   d="m 73,317.08 v -35.93 h 7.62 c 2.96,0 5.21,0.81 6.74,2.42 1.53,1.61 2.3,3.9 2.3,6.86 v 16.8 c 0,3.36 -0.82,5.85 -2.45,7.44 -1.63,1.6 -3.98,2.4 -7.04,2.4 H 73 Z M 78.15,286 v 26.24 h 2.37 c 1.45,0 2.47,-0.36 3.08,-1.08 0.61,-0.72 0.91,-1.86 0.91,-3.41 v -17.31 c 0,-1.41 -0.29,-2.51 -0.86,-3.28 C 83.08,286.39 82.04,286 80.52,286 Z"
   id="path28" />
		<path
   d="m 92.28,317.08 v -35.93 h 4.95 L 105,302.8 h 0.1 v -21.65 h 5.15 v 35.93 h -4.84 l -7.87,-21.6 h -0.1 v 21.6 z"
   id="path30" />
		<path
   d="m 112.87,317.08 v -35.93 h 5.15 v 30.78 h 10.19 v 5.15 z"
   id="path32" />
	</g>
</g><g
     id="g175"
     transform="translate(-580.74412,124.61148)">
	<polygon
   points="735.54,130.17 714.98,130.17 717.53,131.17 733.44,131.17 733.97,131.17 733.97,131.17 733.97,131.17 734.99,132.2 734.73,132.46 733.81,131.55 718.49,131.55 720.88,132.49 731.08,132.49 731.61,132.49 731.62,132.49 731.62,132.49 732.64,133.52 732.37,133.78 731.46,132.87 721.83,132.87 724.22,133.81 729.32,133.81 729.86,133.81 729.86,133.81 729.86,133.81 730.88,134.83 730.61,135.1 729.7,134.19 725.18,134.19 728.58,135.53 726.7,137.07 673.57,123.3 703.71,139.46 680.69,141.85 678.72,141.18 645.48,145.24 723.35,148.63 735.53,139.21 739.67,139.21 739.67,137.07 741.06,137.07 741.06,133.56 743.57,133.56 738.29,128.91 711.79,128.91 714.02,129.79 735.16,129.79 735.7,129.79 736.72,130.82 736.45,131.08 "
   id="polygon155" />
	<polygon
   points="640.79,142.02 641.51,142.45 650.07,142.45 650.61,142.83 642.12,142.83 643.91,143.92 653.14,142.91 649.69,140.4 638.14,140.4 638.85,140.83 647.78,140.83 648.32,141.21 639.46,141.21 640.18,141.64 648.91,141.64 649.45,142.02 "
   id="polygon157" />
	<g
   id="g173">
		<path
   d="m 654.78,162.02 c 0,-3.12 -2.64,-4.64 -6.68,-4.64 h -5.91 l -4.13,20.65 h 7.06 c 4.88,0 8.75,-1.97 8.75,-6.7 0,-2.2 -1.47,-3.51 -3.68,-4.03 l 0.04,-0.13 c 2.49,-0.64 4.55,-2.56 4.55,-5.15 z m -4.21,9.47 c 0,2.65 -2.05,3.9 -5.46,3.9 h -3.15 l 1.41,-6.97 h 3.17 c 2.64,0 4.03,1.19 4.03,3.07 z m -4.21,-5.44 h -2.51 l 1.21,-6.03 h 2.34 c 2.68,0 3.89,0.93 3.89,2.55 0,2.06 -1.53,3.48 -4.93,3.48 z"
   id="path159" />
		<path
   d="m 678.18,159.94 c 1.71,0 3.01,0.91 4.07,2.09 l 2.17,-2.01 c -1.43,-1.8 -3.6,-3.03 -6.05,-3.03 -3.89,0 -6.85,2.75 -6.85,6.08 0,2.42 1.31,3.89 3.13,5.02 l 2.17,1.32 c 1.51,0.91 2.49,1.66 2.49,2.97 0,1.92 -1.55,3.13 -3.69,3.13 -2.03,0 -3.78,-1.06 -4.95,-2.76 l -2.46,1.91 c 1.84,2.61 4.38,3.76 7.14,3.76 4.47,0 7.49,-2.8 7.49,-6.52 0,-2.35 -1,-3.71 -2.98,-4.88 l -2.22,-1.33 c -1.57,-0.95 -2.63,-1.64 -2.63,-2.96 -0.01,-1.43 1.16,-2.79 3.17,-2.79 z"
   id="path161" />
		<path
   d="m 706.17,157.38 -11.07,20.65 h 3.76 c 0,0 1.48,-2.68 3.17,-5.81 h 6.06 c 0.4,3.13 0.77,5.81 0.77,5.81 h 3.56 l -2.24,-20.65 z m -2.73,12.24 c 1.57,-2.92 3.04,-5.7 3.46,-6.64 h 0.13 c 0.04,0.94 0.37,3.72 0.73,6.64 z"
   id="path163" />
		<path
   d="m 739.68,178.04 h 3.56 L 741,157.39 h -4.02 l -11.07,20.65 h 3.76 c 0,0 1.48,-2.68 3.17,-5.81 h 6.06 c 0.42,3.12 0.78,5.81 0.78,5.81 z m -5.42,-8.42 c 1.57,-2.92 3.04,-5.7 3.46,-6.64 h 0.13 c 0.04,0.94 0.37,3.72 0.73,6.64 z"
   id="path165" />
		<polygon
   points="690.37,169.28 689.96,171.72 691.62,169.88 693.27,171.72 692.86,169.28 695.34,169.14 693.17,167.93 694.6,165.91 692.31,166.85 691.62,164.47 690.93,166.85 688.63,165.91 690.06,167.93 687.9,169.14 "
   id="polygon167" />
		<polygon
   points="720.16,171.72 721.82,169.88 723.47,171.72 723.06,169.28 725.54,169.14 723.37,167.93 724.8,165.91 722.51,166.85 721.82,164.47 721.13,166.85 718.84,165.91 720.27,167.93 718.1,169.14 720.57,169.28 "
   id="polygon169" />
		<polygon
   points="661.75,171.72 663.4,169.88 665.06,171.72 664.65,169.28 667.12,169.14 664.96,167.93 666.39,165.91 664.09,166.85 663.4,164.47 662.71,166.85 660.42,165.91 661.85,167.93 659.68,169.14 662.16,169.28 "
   id="polygon171" />
	</g>
</g><g
     id="g211"
     transform="translate(260.26198,0.94148275)">
	<path
   d="m 238.11,267.06 12.08,6.27 31.21,-9.06 c 0,0 0.27,-0.08 0.46,0.23 0.19,0.31 -0.04,0.35 -0.04,0.35 l -30.12,8.87 9.33,4.65 c 0,0 23.43,-11 23.74,-11.15 0.31,-0.15 0.58,0.08 0.7,0.19 0.12,0.12 -0.31,0.5 -0.31,0.5 l -22.3,10.45 8.02,4.41 c 0,0 16.15,-11.46 16.42,-11.65 0.27,-0.19 0.35,-0.27 0.58,-0.12 0.23,0.15 0.43,0.35 0.12,0.66 -0.31,0.31 -15.76,11.62 -15.76,11.62 l 9.29,5.34 6.27,-7.24 0.12,-8.75 5.46,-4.96 0.04,-1.82 1.16,-0.85 -5.11,-5.23 z"
   id="path177" />
	<path
   d="m 374.41,267.06 -12.08,6.27 -31.21,-9.06 c 0,0 -0.27,-0.08 -0.46,0.23 -0.19,0.31 0.04,0.35 0.04,0.35 l 30.12,8.87 -9.33,4.65 c 0,0 -23.43,-11 -23.74,-11.15 -0.31,-0.15 -0.58,0.08 -0.7,0.19 -0.12,0.12 0.31,0.5 0.31,0.5 l 22.3,10.45 -8.02,4.41 c 0,0 -16.15,-11.46 -16.42,-11.65 -0.27,-0.19 -0.35,-0.27 -0.58,-0.12 -0.23,0.15 -0.43,0.35 -0.12,0.66 0.31,0.31 15.76,11.62 15.76,11.62 l -9.29,5.34 -6.27,-7.24 -0.12,-8.75 -5.46,-4.96 -0.04,-1.82 -1.16,-0.85 5.11,-5.23 z"
   id="path179" />
	<g
   id="g189">
		<path
   d="m 322.76,246.97 c -2.25,-0.54 -3.29,-0.44 -3.29,-0.44 0,0 -0.43,-0.76 -2.52,-0.84 -2.09,-0.08 -6.39,0.01 -6.39,0.01 0,0 -0.32,-0.48 -1.56,-0.56 -1.24,-0.08 -1.83,0.1 -1.83,0.1 0,0 0.03,-0.3 0.03,-0.92 0,-0.62 -0.77,-0.85 -0.77,-0.85 0,0 -0.77,0.23 -0.77,0.85 0,0.62 0.03,0.92 0.03,0.92 0,0 -0.59,-0.18 -1.83,-0.1 -1.24,0.08 -1.56,0.56 -1.56,0.56 0,0 -4.3,-0.09 -6.39,-0.01 -2.09,0.08 -2.52,0.84 -2.52,0.84 0,0 -1.05,-0.1 -3.29,0.44 -2.25,0.54 -2.79,2.56 -1.01,4.41 1.24,1.3 4.57,3.79 6.48,5.19 h -0.67 v 3.72 h 10.65 l -16.59,13.27 v 20.86 l 17.24,13.94 16.93,-13.84 v -21.37 l -15.68,-12.86 h 10.9 v -3.72 h -1.06 c 1.91,-1.4 5.24,-3.89 6.48,-5.19 1.78,-1.86 1.23,-3.87 -1.01,-4.41 z m -25.92,9.6 -0.65,-6.51 4.26,6.51 z m 23.49,36.91 -14.35,11.46 -13.94,-11.46 v -18.9 l 14.15,-11.67 14.15,11.87 v 18.7 z m -18.02,-46.44 3.37,9.53 h -3.37 z m 8.21,9.53 h -3.37 l 3.37,-9.53 z m 5.47,0 h -3.61 l 4.26,-6.51 z"
   id="path181" />
		<path
   d="m 304.98,243.83 c 0.47,0 1.15,-0.85 1.15,-0.85 0,0 -0.68,-0.85 -1.15,-0.85 -0.47,0 -0.85,0.38 -0.85,0.85 0,0.47 0.38,0.85 0.85,0.85 z"
   id="path183" />
		<path
   d="m 306.7,242.98 c 0,0 0.68,0.85 1.15,0.85 0.47,0 0.85,-0.38 0.85,-0.85 0,-0.47 -0.38,-0.85 -0.85,-0.85 -0.47,0 -1.15,0.85 -1.15,0.85 z"
   id="path185" />
		<path
   d="m 306.49,242.7 c 0,0 0.85,-0.68 0.85,-1.15 0,-0.47 -0.38,-0.85 -0.85,-0.85 -0.47,0 -0.85,0.38 -0.85,0.85 0,0.47 0.85,1.15 0.85,1.15 z"
   id="path187" />
	</g>
	<polygon
   points="298.29,274.23 296.53,275.52 296.53,272.73 293.69,275.05 293.69,292.97 296.84,295.96 296.84,279.7 298.29,278.3 "
   id="polygon191" />
	<polygon
   points="302.31,293.59 302.31,268.03 298.96,270.61 298.96,296.84 313.83,296.84 317.59,293.59 "
   id="polygon193" />
	<polygon
   points="302.88,274.9 310.99,268.91 308.71,266.69 302.88,270.87 "
   id="polygon195" />
	<polygon
   points="308.3,292.97 311.92,292.97 302.88,278.2 302.88,283.62 "
   id="polygon197" />
	<polygon
   points="312.85,275.77 309.44,272.73 306.08,275.52 306.08,282.02 309.54,287.39 309.54,277.43 312.48,280.11 315.63,277.48 315.63,293.02 318.83,293.02 318.83,275.36 316.1,272.83 "
   id="polygon199" />
	<polygon
   points="306.08,293.02 307.48,293.02 306.08,290.69 "
   id="polygon201" />
	<polygon
   points="309.23,300.66 309.23,297.46 306.08,297.46 306.08,303.08 "
   id="polygon203" />
	<polygon
   points="313,297.56 311.66,298.85 310.91,297.56 "
   id="polygon205" />
	<path
   d="M 314.45,303.76"
   id="path207" />
	<path
   d="M 302,281.92"
   id="path209" />
</g></g>




<g
   id="g478"
   transform="translate(-37.758107,-100.48997)"><g
     id="g329"><g
       id="g247"
       transform="translate(-233.9589,111.34344)">
	<g
   id="g217">
		<path
   d="m 445.42,310.8 c -0.08,-0.06 -1.94,-1.57 -3.44,-3.61 -0.99,-1.35 -2.33,-3.49 -3.07,-4.69 l -3.22,3.31 -10.54,-7.68 1.09,-1.14 h -2.43 l -6.21,-4.63 0.89,-0.96 h -2.2 l -6.33,-4.82 0.73,-0.79 h -1.92 l -12.17,-9.06 h 100.1 l -12.17,9.06 h -1.92 l 0.73,0.79 -6.33,4.82 h -2.2 l 0.89,0.96 -6.21,4.63 h -2.43 l 1.09,1.14 -10.54,7.68 -3.11,-3.2 c -0.75,1.22 -2.03,3.26 -2.99,4.57 -1.51,2.04 -3.37,3.54 -3.44,3.61 l -1.32,1.06 z"
   id="path213" />
		<path
   class="st0"
   d="M 494.58,277.44 H 398.72 L 409,285.1 h 3.29 l -1.29,1.4 5.53,4.21 h 3.57 l -1.46,1.57 5.4,4.02 h 3.84 l -1.67,1.75 9.4,6.85 3.43,-3.53 c 0.34,0.57 2.22,3.67 3.5,5.41 1.45,1.97 3.24,3.41 3.32,3.47 l 0.88,0.71 0.88,-0.71 c 0.08,-0.06 1.87,-1.51 3.32,-3.47 1.21,-1.64 2.95,-4.49 3.43,-5.29 l 3.31,3.41 9.4,-6.85 -1.67,-1.75 h 3.84 l 5.4,-4.02 -1.46,-1.57 h 3.57 l 5.53,-4.21 -1.29,-1.4 h 3.29 z"
   id="path215" />
	</g>
	<path
   class="st2"
   d="m 435.85,292.98 c -1.73,-6.28 -1.43,-11.12 -1.43,-11.12 l -3.11,-3.01 h -28.06 l 6.5,4.84 h 19.95 l 0.03,0.75 h -14.65 l -1.72,1.87 3.92,2.98 h 13.09 l 0.12,0.75 h -7.58 l -1.89,2.03 3.76,2.8 h 7.18 l 0.32,0.75 h -1.56 l -2.11,2.21 7.11,5.18 3.06,-3.15 c 0.01,0.03 -1.3,-0.94 -2.93,-6.88 z"
   id="path219" />
	<path
   class="st2"
   d="m 436.05,282.31 c 0,0 -0.12,2.23 0.53,6.87 0.65,4.64 3.23,9.66 3.23,9.66 l 5.86,-6.42 z"
   id="path221" />
	<path
   class="st2"
   d="m 458,282.31 c 0,0 0.12,2.23 -0.53,6.87 -0.66,4.64 -3.23,9.66 -3.23,9.66 l -5.86,-6.42 z"
   id="path223" />
	<path
   class="st2"
   d="m 447.02,293.55 -6.55,7 c 0,0 2.12,3.54 3.48,5.38 1.36,1.84 3.07,3.21 3.07,3.21 0,0 1.71,-1.37 3.07,-3.21 1.36,-1.84 3.48,-5.38 3.48,-5.38 z"
   id="path225" />
	<path
   class="st2"
   d="m 458.01,292.98 c 1.73,-6.28 1.43,-11.12 1.43,-11.12 l 3.11,-3.01 h 28.06 l -6.5,4.84 h -19.95 l -0.03,0.75 h 14.65 l 1.72,1.87 -3.92,2.98 h -13.09 l -0.12,0.75 h 7.58 l 1.89,2.03 -3.76,2.8 h -7.18 l -0.32,0.75 h 1.56 l 2.11,2.21 -7.11,5.18 -3.06,-3.15 c -0.01,0.03 1.3,-0.94 2.93,-6.88 z"
   id="path227" />
	<polygon
   class="st2"
   points="447.02,278.85 435.77,278.85 447.02,291 458.27,278.85 "
   id="polygon229" />
	<polygon
   class="st2"
   points="450.76,282.49 448.33,284.09 449.36,286.81 447.09,284.99 444.82,286.81 445.85,284.09 443.42,282.49 446.32,282.63 447.09,279.83 447.86,282.63 "
   id="polygon231" />
	<g
   id="g245">
		<path
   d="m 401.09,274.16 c -4.68,0 -7.17,-2.38 -7.17,-6.28 0,-0.86 0.13,-1.39 0.27,-1.98 l 4.28,-0.17 c -0.13,0.46 -0.27,0.92 -0.27,1.72 0,1.82 0.78,3.01 2.92,3.01 2.06,0 3.24,-0.96 3.24,-3.17 0,-1.75 -0.8,-2.94 -3.91,-4.39 l -3.02,-1.42 c -2.46,-1.16 -3.35,-3.5 -3.35,-6.34 0,-4.13 2.33,-7.13 7.01,-7.13 3.83,0 6.4,2.48 6.4,6.11 0,0.46 -0.11,1.19 -0.27,1.75 L 403.2,256 c 0.08,-0.33 0.13,-0.73 0.13,-1.22 0,-2.38 -0.96,-3.17 -2.6,-3.17 -1.58,0 -2.49,0.96 -2.49,2.44 0,1.72 0.8,2.48 2.86,3.5 l 3.37,1.68 c 2.92,1.45 4.26,4.03 4.26,7.04 0.01,5.24 -2.56,7.89 -7.64,7.89 z"
   id="path233" />
		<path
   d="m 422.34,273.76 -1.18,-5.19 h -5.59 l -1.07,5.19 h -4.52 l 5.67,-25.37 h 5.65 l 5.7,25.37 z m -3.05,-14.24 c -0.35,-1.72 -0.83,-4.13 -0.96,-5.42 -0.13,1.29 -0.62,3.7 -0.99,5.45 -0.37,1.88 -0.91,4.82 -0.91,4.82 h 3.8 c 0,0.01 -0.57,-2.96 -0.94,-4.85 z"
   id="path235" />
		<path
   d="m 437.55,273.76 h -7.9 v -25.37 h 6.96 c 4.28,0 6.88,2.54 6.88,6.64 0,3.3 -1.42,4.99 -3.61,5.42 2.19,0.3 4.31,2.25 4.31,6.14 -0.01,5.65 -3.27,7.17 -6.64,7.17 z m -1.61,-21.6 h -1.82 v 6.47 h 1.87 c 1.66,0 2.84,-0.99 2.84,-3.3 0,-2.38 -1.12,-3.17 -2.89,-3.17 z m 0.37,10.11 h -2.19 v 7.7 h 2.25 c 1.98,0 3.16,-1.12 3.16,-3.8 0,-2.32 -1.34,-3.9 -3.22,-3.9 z"
   id="path237" />
		<path
   d="m 447.58,273.76 v -25.37 h 12.45 v 4.06 h -7.92 v 6.11 h 7.12 v 4.29 h -7.12 v 6.8 h 8.59 v 4.1 h -13.12 z"
   id="path239" />
		<path
   d="m 474.67,273.76 c 0,0 -3.56,-7.96 -5.81,-13.05 -0.32,-0.76 -0.99,-2.61 -0.99,-2.61 0,0 0.11,1.95 0.11,2.77 v 12.88 h -4.1 v -25.37 h 4.1 c 0,0 3.67,8.22 5.97,13.51 0.27,0.63 0.88,2.68 0.88,2.68 0,0 -0.16,-2.05 -0.16,-2.71 v -13.48 h 4.1 v 25.37 h -4.1 z"
   id="path241" />
		<path
   d="m 493.76,273.76 -1.18,-5.19 h -5.59 l -1.07,5.19 h -4.52 l 5.67,-25.37 h 5.65 l 5.7,25.37 z m -3.05,-14.24 c -0.35,-1.72 -0.83,-4.13 -0.96,-5.42 -0.13,1.29 -0.62,3.7 -0.99,5.45 -0.37,1.88 -0.91,4.82 -0.91,4.82 h 3.8 c -0.01,0.01 -0.57,-2.96 -0.94,-4.85 z"
   id="path243" />
	</g>
</g></g><g
     id="g309"
     transform="translate(-4.4825212)"><g
       id="g269"
       transform="translate(-233.9589,117.67079)">
	<path
   d="m 575.09,251.71 c -0.86,1.87 -1.71,3.73 -2.56,5.58 -0.27,-0.66 -0.5,-1.33 -0.82,-1.96 -0.66,-1.3 -1.62,-2.31 -3.04,-2.78 -1.17,-0.39 -2.36,-0.3 -3.53,0.02 -1.65,0.46 -3.1,1.32 -4.52,2.25 -2.19,1.43 -3.73,3.43 -5.1,5.59 -2.16,3.38 -3.91,6.99 -5.57,10.63 -2,4.39 -3.95,8.8 -5.92,13.2 -1.02,2.27 -2.15,4.46 -3.73,6.41 -2.14,2.63 -4.74,4.63 -7.96,5.78 -1.68,0.6 -3.41,0.86 -5.19,0.81 -1.2,-0.04 -2.35,-0.3 -3.43,-0.8 -1.93,-0.89 -3.35,-2.32 -4.32,-4.2 -0.85,-1.64 -1.25,-3.38 -1.29,-5.23 -0.1,-3.89 1.34,-7.13 3.96,-9.92 1.37,-1.46 2.88,-2.75 4.67,-3.69 1.89,-0.99 3.9,-1.46 6.04,-1.3 1.85,0.14 3.57,0.71 5.13,1.73 0.12,0.08 0.23,0.17 0.36,0.26 -0.93,1.97 -1.85,3.92 -2.82,5.96 -0.07,-0.51 -0.08,-0.94 -0.19,-1.34 -0.17,-0.64 -0.33,-1.29 -0.62,-1.88 -0.71,-1.45 -2.07,-2.07 -3.65,-1.76 -1.46,0.29 -2.69,1.03 -3.78,2 -2.5,2.2 -4.09,4.94 -4.67,8.23 -0.36,2.07 -0.2,4.12 0.69,6.06 0.77,1.67 2.06,2.71 3.92,2.94 1.31,0.16 2.56,-0.15 3.74,-0.72 2.11,-1.02 3.7,-2.61 4.98,-4.54 1.46,-2.22 2.55,-4.63 3.62,-7.05 1.74,-3.95 3.42,-7.92 5.2,-11.85 1.51,-3.35 3.17,-6.62 5.25,-9.67 2.89,-4.23 6.71,-7.32 11.45,-9.26 2.34,-0.95 4.79,-1.35 7.31,-1.23 2.02,0.1 3.96,0.54 5.8,1.39 0.16,0.07 0.31,0.16 0.47,0.24 0.04,0.04 0.07,0.07 0.12,0.1 z"
   id="path249" />
	<path
   d="m 549,283.95 c 0.22,-0.48 0.43,-0.94 0.64,-1.4 1.96,-4.2 3.92,-8.4 5.87,-12.61 0.13,-0.28 0.22,-0.58 0.27,-0.89 0.12,-0.81 -0.3,-1.29 -1.11,-1.36 -0.14,-0.01 -0.29,0 -0.49,0 0.27,-0.5 0.51,-0.97 0.77,-1.42 0.03,-0.06 0.16,-0.1 0.24,-0.1 2.1,-0.01 4.2,-0.01 6.3,-0.01 0.02,0 0.04,0.01 0.11,0.03 -0.6,1.1 -1.19,2.19 -1.78,3.28 0.02,0.02 0.04,0.04 0.06,0.06 0.2,-0.12 0.4,-0.24 0.6,-0.36 1.95,-1.17 3.94,-2.27 6.15,-2.9 0.76,-0.22 1.53,-0.38 2.33,-0.24 0.89,0.16 1.39,0.66 1.53,1.56 0.02,0.1 0.04,0.2 0.07,0.33 0.52,-0.26 1.01,-0.51 1.5,-0.75 1.19,-0.57 2.4,-1.1 3.7,-1.33 0.46,-0.08 0.96,-0.12 1.42,-0.05 0.97,0.15 1.48,0.82 1.34,1.79 -0.11,0.8 -0.32,1.58 -0.56,2.35 -0.92,2.94 -2.23,5.69 -4,8.22 -1.4,2 -3.05,3.75 -5.17,5.02 -1.29,0.77 -2.66,1.33 -4.16,1.46 -1.02,0.09 -2.04,0.03 -3.01,-0.32 -1.09,-0.38 -1.64,-1.21 -1.83,-2.32 -0.16,-0.93 0.02,-1.8 0.4,-2.66 1.31,-2.97 2.61,-5.94 3.9,-8.92 0.1,-0.24 0.18,-0.49 0.23,-0.74 0.08,-0.45 -0.21,-0.72 -0.66,-0.64 -0.77,0.14 -1.41,0.54 -2.04,0.96 -0.84,0.57 -1.66,1.18 -2.47,1.78 -0.15,0.11 -0.28,0.28 -0.36,0.45 -1.82,3.83 -3.62,7.67 -5.44,11.5 -0.05,0.11 -0.21,0.25 -0.33,0.25 -1.27,0.02 -2.53,0.01 -3.8,0.01 -0.08,0.01 -0.13,-0.01 -0.22,-0.03 z m 15,-3.11 c 0.03,0.01 0.05,0.02 0.08,0.03 0,0.09 -0.01,0.19 0,0.28 0.05,0.69 0.34,0.96 1.02,0.91 0.3,-0.02 0.62,-0.1 0.9,-0.22 1.82,-0.74 3.24,-1.98 4.12,-3.72 1.17,-2.33 2.22,-4.73 3.28,-7.11 0.18,-0.41 0.22,-0.9 0.26,-1.36 0.03,-0.37 -0.21,-0.66 -0.57,-0.7 -0.34,-0.03 -0.72,-0.03 -1.04,0.08 -1.98,0.67 -3.65,1.73 -4.64,3.69 -1,1.96 -1.87,3.97 -2.67,6.02 -0.26,0.69 -0.49,1.4 -0.74,2.1 z"
   id="path251" />
	<path
   d="m 630.02,280.1 c -0.04,0.16 -0.04,0.27 -0.09,0.35 -0.87,1.61 -2.05,2.9 -3.82,3.52 -0.6,0.21 -1.24,0.23 -1.87,0.09 -0.91,-0.2 -1.29,-0.87 -1.05,-1.84 0.04,-0.15 0.08,-0.29 0.14,-0.53 -0.23,0.14 -0.37,0.23 -0.52,0.32 -1.32,0.8 -2.68,1.52 -4.18,1.89 -0.57,0.14 -1.16,0.22 -1.75,0.24 -1.35,0.03 -2.17,-0.7 -2.33,-2.04 -0.29,-2.46 0.65,-4.44 2.47,-6.04 1.41,-1.24 3.12,-1.87 4.94,-2.22 1.23,-0.24 2.47,-0.31 3.72,-0.31 0.45,0 0.89,0.05 1.34,0.05 0.1,0 0.26,-0.09 0.3,-0.18 0.43,-0.9 0.86,-1.79 1.27,-2.7 0.33,-0.74 -0.01,-1.76 -0.74,-2.29 -0.94,-0.68 -1.91,-0.56 -2.89,-0.11 -0.94,0.43 -1.66,1.16 -2.41,1.85 -0.51,0.47 -1.02,0.94 -1.57,1.37 -0.62,0.48 -1.13,0.49 -1.63,0.14 -0.57,-0.41 -0.72,-0.98 -0.41,-1.61 0.47,-0.96 1.24,-1.66 2.1,-2.25 1.58,-1.09 3.34,-1.67 5.23,-1.93 1.53,-0.21 3.05,-0.16 4.53,0.26 0.97,0.27 1.81,0.76 2.21,1.75 0.32,0.79 0.34,1.6 -0.02,2.39 -1.47,3.18 -2.96,6.35 -4.43,9.53 -0.11,0.25 -0.32,0.54 -0.07,0.77 0.22,0.21 0.51,0.03 0.76,-0.08 0.24,-0.11 0.47,-0.24 0.77,-0.39 z m -9.42,0.46 c 0.98,-0.02 1.87,-0.33 2.63,-0.96 1.36,-1.14 2.29,-2.61 3.07,-4.18 0.1,-0.19 0.05,-0.3 -0.15,-0.33 -0.5,-0.09 -0.99,-0.23 -1.49,-0.24 -1.64,-0.04 -3,0.61 -4.07,1.85 -0.59,0.69 -1.13,1.41 -1.37,2.3 -0.24,0.86 0.14,1.43 1.02,1.56 0.11,0.01 0.23,0 0.36,0 z"
   id="path253" />
	<path
   d="m 599.61,271.13 c -0.35,-0.9 -0.77,-1.68 -1.38,-2.34 -0.91,-1 -2.04,-1.29 -3.33,-1.12 -0.71,0.09 -1.38,0.29 -1.96,0.72 -0.77,0.56 -1,1.35 -0.62,2.22 0.25,0.59 0.63,1.11 1.16,1.47 0.84,0.58 1.72,1.09 2.54,1.69 0.55,0.41 1.08,0.89 1.51,1.42 0.93,1.13 1.02,2.42 0.45,3.74 -0.82,1.87 -2.17,3.24 -3.97,4.18 -1.49,0.78 -3.07,1.13 -4.75,1.02 -2.22,-0.14 -4.02,-1.23 -4.83,-3.37 -0.21,-0.54 -0.28,-1.1 -0.16,-1.68 0.16,-0.79 0.88,-1.42 1.69,-1.46 0.65,-0.03 1.19,0.24 1.41,0.86 0.17,0.48 0.25,1 0.3,1.51 0.03,0.34 0.12,0.62 0.33,0.88 0.84,1.03 2.78,1.37 3.9,0.67 0.79,-0.49 1.14,-1.27 1.29,-2.14 0.22,-1.27 -0.42,-2.19 -1.36,-2.91 -0.67,-0.51 -1.42,-0.94 -2.16,-1.36 -0.76,-0.43 -1.45,-0.93 -1.96,-1.65 -1.11,-1.57 -0.96,-3.35 0.39,-4.72 0.88,-0.9 1.95,-1.5 3.09,-2 1.65,-0.72 3.35,-1.16 5.16,-1.09 1.75,0.07 3.33,0.61 4.69,1.75 0.21,0.17 0.25,0.31 0.12,0.57 -0.44,0.85 -0.85,1.71 -1.27,2.57 -0.08,0.18 -0.17,0.35 -0.28,0.57 z"
   id="path255" />
	<path
   d="m 614.83,271.07 c -0.34,-0.6 -0.64,-1.21 -1.02,-1.75 -1.15,-1.66 -2.72,-1.98 -4.59,-1.44 -0.37,0.11 -0.74,0.29 -1.06,0.51 -0.9,0.62 -1.09,1.51 -0.57,2.47 0.38,0.69 0.93,1.2 1.59,1.63 0.93,0.61 1.86,1.22 2.74,1.89 0.73,0.56 1.26,1.3 1.48,2.21 0.24,1.02 0.02,1.99 -0.49,2.88 -1.85,3.2 -4.64,4.75 -8.33,4.68 -1.62,-0.03 -3.03,-0.58 -4.09,-1.85 -0.72,-0.85 -1.15,-1.81 -1.08,-2.96 0.07,-1.07 1.23,-1.93 2.23,-1.64 0.49,0.14 0.81,0.48 0.96,0.94 0.12,0.4 0.2,0.83 0.21,1.25 0.02,0.47 0.15,0.86 0.5,1.16 0.93,0.79 2,1.11 3.19,0.78 1.26,-0.35 1.8,-1.6 1.9,-2.6 0.11,-1.14 -0.45,-2 -1.31,-2.64 -0.84,-0.62 -1.76,-1.12 -2.65,-1.67 -0.7,-0.43 -1.29,-0.98 -1.72,-1.68 -0.87,-1.41 -0.71,-3.02 0.42,-4.28 0.93,-1.04 2.12,-1.68 3.38,-2.22 1.45,-0.62 2.96,-1.03 4.55,-1.04 1.91,-0.01 3.64,0.51 5.14,1.73 0.22,0.18 0.29,0.33 0.14,0.62 -0.47,0.9 -0.91,1.82 -1.36,2.73 -0.05,0.1 -0.11,0.2 -0.16,0.29 z"
   id="path257" />
	<path
   d="m 651.39,266.12 c -0.33,0.79 -0.64,1.53 -0.95,2.27 0.02,0.02 0.04,0.03 0.06,0.05 0.11,-0.07 0.22,-0.13 0.33,-0.2 1.34,-0.81 2.71,-1.58 4.22,-2.04 0.48,-0.14 1,-0.21 1.5,-0.21 0.72,0 1.11,0.45 1.11,1.18 0,0.9 -0.3,1.73 -0.71,2.52 -0.49,0.95 -1.1,1.81 -1.98,2.44 -0.2,0.15 -0.46,0.25 -0.7,0.3 -0.31,0.06 -0.53,-0.09 -0.55,-0.4 -0.02,-0.48 0.01,-0.97 0.07,-1.45 0.1,-0.71 -0.25,-1.15 -0.98,-1.2 -1.23,-0.08 -3.63,1.12 -4.3,2.63 -1.74,3.92 -3.61,7.79 -5.42,11.68 -0.1,0.21 -0.21,0.28 -0.44,0.28 -1.22,-0.01 -2.43,0 -3.65,-0.01 -0.09,0 -0.18,-0.01 -0.32,-0.02 0.11,-0.23 0.19,-0.44 0.29,-0.64 2.37,-5.09 4.74,-10.19 7.11,-15.28 0.26,-0.56 0.52,-1.13 0.8,-1.69 0.05,-0.1 0.18,-0.21 0.28,-0.22 1.4,0 2.79,0.01 4.23,0.01 z"
   id="path259" />
	<path
   d="m 581.68,280.12 c -0.01,0.12 0,0.2 -0.03,0.26 -0.91,1.73 -2.15,3.11 -4.09,3.68 -0.69,0.2 -1.42,0.21 -2.1,-0.14 -0.51,-0.26 -0.73,-0.75 -0.66,-1.32 0.1,-0.76 0.49,-1.41 0.8,-2.08 2.16,-4.63 4.33,-9.26 6.49,-13.89 0.15,-0.32 0.32,-0.45 0.7,-0.45 1.16,0.03 2.33,0.01 3.49,0.01 0.08,0 0.16,0.01 0.28,0.02 -0.24,0.52 -0.47,1.02 -0.7,1.51 -1.88,4.03 -3.76,8.06 -5.63,12.1 -0.11,0.24 -0.31,0.51 -0.08,0.75 0.23,0.23 0.51,0.04 0.75,-0.06 0.25,-0.11 0.48,-0.24 0.78,-0.39 z"
   id="path261" />
	<path
   d="m 643.1,266.17 c -0.43,0.93 -0.84,1.79 -1.24,2.65 -1.7,3.65 -3.4,7.29 -5.1,10.94 -0.07,0.15 -0.13,0.31 -0.16,0.47 -0.04,0.29 0.12,0.44 0.41,0.37 0.21,-0.05 0.41,-0.14 0.61,-0.23 0.19,-0.08 0.37,-0.19 0.61,-0.31 -0.04,0.16 -0.04,0.27 -0.09,0.36 -0.9,1.64 -2.09,2.97 -3.93,3.56 -0.67,0.21 -1.38,0.22 -2.05,-0.04 -0.64,-0.24 -0.97,-0.8 -0.79,-1.47 0.16,-0.6 0.39,-1.18 0.65,-1.74 2.19,-4.7 4.39,-9.39 6.58,-14.09 0.17,-0.36 0.36,-0.5 0.76,-0.49 1.12,0.03 2.24,0.01 3.37,0.01 0.1,0.01 0.2,0.01 0.37,0.01 z"
   id="path263" />
	<path
   d="m 645.87,259.09 c -0.16,0.35 -0.3,0.68 -0.45,1 -0.32,0.7 -0.63,1.4 -0.97,2.09 -0.05,0.1 -0.19,0.21 -0.28,0.21 -1.25,0.01 -2.49,0.01 -3.74,0.01 -0.03,0 -0.06,-0.01 -0.12,-0.03 0.03,-0.08 0.04,-0.16 0.08,-0.23 0.43,-0.94 0.86,-1.89 1.29,-2.83 0.07,-0.15 0.14,-0.25 0.34,-0.25 1.24,0.01 2.47,0 3.71,0 0.03,0.01 0.06,0.02 0.14,0.03 z"
   id="path265" />
	<path
   d="m 583.74,262.42 c 0.49,-1.07 0.97,-2.12 1.46,-3.16 0.03,-0.07 0.16,-0.14 0.24,-0.14 1.26,-0.01 2.51,0 3.77,0 0.03,0 0.05,0.02 0.11,0.05 -0.24,0.52 -0.47,1.04 -0.71,1.56 -0.23,0.51 -0.46,1.02 -0.71,1.52 -0.05,0.1 -0.19,0.21 -0.29,0.21 -1.25,0.01 -2.49,0.01 -3.74,0.01 -0.02,-0.01 -0.05,-0.02 -0.13,-0.05 z"
   id="path267" />
</g></g><g
     id="g296"
     transform="translate(4.2578125e-5)"><circle
       class="st0"
       cx="473.68112"
       cy="391.27344"
       r="35.389999"
       id="circle271" /><g
       id="g279"
       transform="translate(-233.9589,114.99344)">
	<polygon
   points="693.57,262.29 693.57,258 680.11,258 680.11,262.29 684.52,262.29 684.52,294.56 689.16,294.56 689.16,262.29 "
   id="polygon273" />
	<polygon
   points="719.23,258 713.99,258 711.61,275.27 709.23,258 704.34,258 701.96,275.27 699.94,258 695.05,258 699.46,294.56 703.63,294.56 706.61,275.27 709.82,294.56 713.39,294.56 "
   id="polygon275" />
	<path
   d="m 731.73,294.56 h 5.12 L 730.66,258 h -6.07 l -5.36,36.56 h 4.64 l 1.09,-7.03 h 5.68 z m -6.08,-11.43 2.16,-13.93 2.16,13.93 z"
   id="path277" />
</g><path
       d="m 502.0911,364.20344 6.68,-7.03 h -4.56 l -4.51,4.73 c -6.93,-6.14 -16.04,-9.88 -26.03,-9.88 -21.68,0 -39.25,17.57 -39.25,39.25 0,10.66 4.25,20.33 11.15,27.4 l -7.37,7.73 h 4.7 l 5.14,-5.4 c 6.88,5.93 15.83,9.52 25.62,9.52 21.68,0 39.25,-17.57 39.25,-39.25 0.02,-10.49 -4.11,-20.03 -10.82,-27.07 z m -28.41,62.47 c -19.54,0 -35.39,-15.84 -35.39,-35.39 0,-19.55 15.84,-35.39 35.39,-35.39 19.55,0 35.39,15.84 35.39,35.39 0,19.55 -15.85,35.39 -35.39,35.39 z"
       id="path281" /></g></g>
</svg>
