<?xml version="1.0" encoding="UTF-8" standalone="no"?>
<!-- Created with Inkscape (http://www.inkscape.org/) -->
<svg
   xmlns:svg="http://www.w3.org/2000/svg"
   xmlns="http://www.w3.org/2000/svg"
   version="1.0"
   width="744.09448"
   height="304.7244"
   id="svg2505">
  <defs
     id="defs2507" />
  <g
     transform="translate(214.33071,-449.15191)"
     id="layer1">
    <g
       transform="translate(51.92608,-274.77412)"
       id="g2513">
      <g
         transform="translate(17.716537,17.723347)"
         id="g9293">
        <path
           d="M -69.180864,787.34434 C -102.35127,780.85165 -157.38151,782.58087 -157.38151,782.58087 C -157.38151,782.58087 -172.93354,782.10233 -170.54092,791.23779 C -165.86443,809.00842 -102.35127,788.2144 -73.857347,809.87847 C -38.838104,836.44743 -55.151413,871.87994 -66.135718,888.7479 C -81.035208,911.71705 -123.55857,920.37397 -163.36305,920.37397 C -227.63751,920.37397 -259.6116,910.41199 -259.6116,910.41199 L -259.6116,858.41601 C -187.61552,874.45744 -152.27,872.71736 -150.52992,862.74447 C -151.61748,858.36164 -156.72899,855.75151 -172.60727,854.79446 C -207.409,852.69548 -222.09098,850.08535 -222.09098,850.08535 C -222.09098,850.08535 -275.92491,843.79929 -264.72311,776.94733 C -250.25864,695.91367 -62.764301,731.87909 -62.764301,731.87909 L -62.764301,788.24701 L -69.180864,787.34434"
           style="fill:#000000;fill-rule:nonzero;stroke:none"
           id="path8885" />
        <path
           d="M -20.784703,724.09219 L 64.914571,724.09219 L 64.914571,825.06072 L 98.302476,758.89394 L 197.48742,758.89394 L 143.32721,839.36206 L 188.0257,915.63225 L 97.323683,915.63225 L 64.914571,861.46117 L 64.914571,916.05639 L -20.784703,916.05639 L -20.784703,724.09219"
           style="fill:#000000;fill-rule:nonzero;stroke:none"
           id="path8887" />
        <path
           d="M 209.66802,758.89394 L 301.02257,758.89394 L 327.99393,853.64165 L 352.89892,758.89394 L 442.40462,758.89394 L 382.80666,920.809 C 380.41404,927.81285 368.23344,954.34917 368.23344,954.34917 C 345.93856,1005.7361 272.63742,989.68381 225.1113,989.31403 L 225.1113,929.91183 L 283.29545,929.91183 L 209.66802,758.89394"
           style="fill:#000000;fill-rule:nonzero;stroke:none"
           id="path8889" />
        <path
           d="M -177.82753,946.48616 L -150.20366,946.48616 L -150.20366,991.01062 L -177.82753,991.01062 L -177.82753,946.48616 z "
           style="fill:#01a0e9;fill-rule:nonzero;stroke:none"
           id="path8891" />
        <path
           d="M -177.82753,932.51108 L -150.20366,932.51108 L -150.20366,943.00598 L -177.82753,943.00598 L -177.82753,932.51108 z "
           style="fill:#01a0e9;fill-rule:nonzero;stroke:none"
           id="path8893" />
        <path
           d="M -81.035208,932.51108 L -53.411334,932.51108 L -53.411334,991.01062 L -81.035208,991.01062 L -81.035208,932.51108 z "
           style="fill:#01a0e9;fill-rule:nonzero;stroke:none"
           id="path8895" />
        <path
           d="M -41.665743,946.48616 L -13.933114,946.48616 L -13.933114,991.01062 L -41.665743,991.01062 L -41.665743,946.48616 z "
           style="fill:#01a0e9;fill-rule:nonzero;stroke:none"
           id="path8897" />
        <path
           d="M -41.556988,932.51108 L -13.933114,932.51108 L -13.933114,943.00598 L -41.556988,943.00598 L -41.556988,932.51108 z "
           style="fill:#01a0e9;fill-rule:nonzero;stroke:none"
           id="path8899" />
        <path
           d="M -232.64026,970.10784 C -232.64026,965.58361 -229.05133,961.91855 -224.59236,961.91855 C -220.13339,961.91855 -216.54446,965.58361 -216.54446,970.10784 C -216.54446,974.63206 -220.13339,978.308 -224.59236,978.308 C -229.05133,978.308 -232.64026,974.63206 -232.64026,970.10784 z M -216.32695,946.48616 L -189.46435,946.48616 L -189.46435,991.01062 L -216.32695,991.01062 L -216.32695,976.72016 C -217.30574,984.07202 -217.4145,993.00085 -232.31399,992.14168 C -248.73606,991.19551 -258.6328,984.51792 -258.6328,966.64941 C -258.6328,953.0441 -246.12593,940.85262 -227.74627,944.46331 C -220.13339,945.96413 -217.30574,949.30292 -216.32695,953.64226 L -216.32695,946.48616"
           style="fill:#01a0e9;fill-rule:evenodd;stroke:none"
           id="path8901" />
        <path
           d="M -1.970016,946.48616 L -1.970016,991.01062 L 27.176431,991.01062 L 27.176431,967.94361 C 27.176431,963.3215 33.15798,963.10398 33.15798,963.10398 C 40.009582,962.69071 39.792062,967.94361 39.792062,967.94361 L 39.792062,991.01062 L 67.089677,991.01062 L 67.089677,961.42915 C 64.370792,939.37356 32.940474,943.00598 25.762612,954.69718 L 25.762612,946.48616 L -1.970016,946.48616"
           style="fill:#01a0e9;fill-rule:nonzero;stroke:none"
           id="path8903" />
        <path
           d="M 105.69784,964.40904 C 105.80661,959.80869 109.50429,955.69774 113.96327,955.69774 C 118.53099,955.69774 122.22867,959.80869 122.33742,964.40904 L 105.69784,964.40904 z M 107.54669,973.40312 L 145.93735,973.40312 C 145.93735,973.40312 148.43872,951.63028 130.49408,946.48616 C 112.98446,941.03751 94.169772,947.0408 92.212174,947.76947 C 83.185479,951.20614 77.74771,958.09036 77.20393,967.95448 C 76.551397,978.73213 81.880414,988.705 92.212174,991.01062 C 108.41673,994.59955 116.5734,993.18573 131.9079,991.01062 C 134.73555,990.60823 136.36688,990.33634 139.19452,989.79256 L 144.30603,976.76367 C 104.17527,986.13837 107.54669,973.40312 107.54669,973.40312"
           style="fill:#01a0e9;fill-rule:evenodd;stroke:none"
           id="path8905" />
        <path
           d="M 185.74185,958.07949 C 185.74185,958.07949 182.58793,958.37311 183.13171,960.65699 C 184.32803,965.11595 201.18511,959.79782 208.36296,965.22472 C 217.06339,971.89142 212.71318,981.79904 209.9943,986.02963 C 206.29661,991.78279 192.48468,992.75071 182.47918,992.75071 C 166.38338,992.75071 157.35667,990.24933 157.35667,990.24933 L 157.35667,979.09102 C 172.25617,981.48365 187.48192,980.16771 187.48192,980.16771 C 187.48192,980.16771 189.0045,980.25471 189.0045,977.72071 C 188.56948,975.65435 184.32803,976.31776 180.30407,976.0785 C 171.60364,975.54561 167.68844,975.36072 167.68844,975.36072 C 167.68844,975.36072 151.59264,973.40312 154.8553,956.78529 C 158.44422,936.46978 212.38691,946.48616 212.38691,946.48616 L 212.38691,959.79782 C 198.0312,957.24207 185.74185,958.07949 185.74185,958.07949"
           style="fill:#01a0e9;fill-rule:nonzero;stroke:none"
           id="path8907" />
        <path
           d="M -137.58802,946.48616 L -110.94294,946.48616 L -110.94294,946.66017 L -110.83418,946.66017 L -110.83418,954.41443 C -109.96415,951.5759 -105.83144,941.32027 -90.170656,944.40893 L -90.170656,969.09641 C -90.170656,969.09641 -110.72543,968.78101 -109.42036,976.20901 L -109.42036,991.01062 L -110.83418,991.01062 L -110.83418,991.17375 L -138.45806,991.17375 L -138.45806,946.66017 L -137.58802,946.66017 L -137.58802,946.48616"
           style="fill:#01a0e9;fill-rule:nonzero;stroke:none"
           id="path8909" />
      </g>
    </g>
  </g>
</svg>
