<?xml version="1.0" encoding="UTF-8" standalone="no"?>
<svg
   width="169.983"
   height="38.014751"
   viewBox="0 0 169.983 38.014751"
   version="1.1"
   id="svg8"
   xmlns="http://www.w3.org/2000/svg"
   xmlns:svg="http://www.w3.org/2000/svg">
  <path
     d="m 60.7464,10.66485 -0.7676,3.5208 h 8.5582 c 1.1497,0 1.79,0.5016 1.79,1.4469 0,0.1897 -0.0327,0.3473 -0.0654,0.5659 l -0.16,0.7235 h -7.6958 c -3.0345,0 -4.7919,1.2571 -5.3341,4.4339 -0.0948,0.6302 -0.1601,1.3504 -0.1601,1.8874 0,2.4822 1.3719,4.0867 3.8642,4.0867 h 8.8456 c 2.3943,0 3.4494,-1.0997 3.8969,-3.1446 l 1.7574,-8.2377 c 0.0947,-0.5016 0.1273,-0.881 0.1273,-1.2893 0,-2.2636 -1.3719,-3.9935 -4.217,-3.9935 H 60.7432 Z m 8.6268,9.6524 -0.5423,2.5144 c -0.1927,0.7846 -0.5749,1.0997 -1.3719,1.0997 h -4.2496 c -0.7971,0 -1.1825,-0.4405 -1.1825,-1.164 0,-0.2508 0.0653,-0.7234 0.1601,-1.0675 0.3201,-1.1318 0.895,-1.3826 1.852,-1.3826 z m 6.1311,7.0127 h 4.9814 L 85.2449,5.32422 h -4.9814 z m 14.4345,-16.6651 c -2.0775,0 -3.4167,1.0997 -3.8642,3.1446 l -4.057,18.8643 h 4.952 l 1.1498,-5.3438 h 4.8539 c 5.749,0 7.6957,-2.3569 8.7837,-7.704 0.193,-1.0064 0.353,-1.9806 0.353,-2.8616 0,-3.5851 -1.183,-6.0995 -5.8441,-6.0995 h -6.3238 z m 0.7676,4.8102 c 0.1601,-0.881 0.6076,-1.1961 1.532,-1.1961 h 2.1722 c 2.0121,0 2.587,0.9742 2.587,2.3889 0,0.6913 -0.1274,1.4791 -0.3201,2.3279 -0.5096,2.3569 -1.3425,4.7169 -4.2497,4.7169 h -3.5147 l 1.79,-8.2376 z m 11.1456,11.8549 h 11.337 c 3.355,0 4.632,-1.0386 5.24,-3.8681 0.095,-0.4726 0.16,-1.0385 0.16,-1.4147 0,-2.4823 -2.012,-3.3954 -4.344,-4.2121 l -3.388,-1.1961 c -0.927,-0.3151 -1.79,-0.627 -1.79,-1.4147 0,-0.9132 0.895,-0.9421 1.565,-0.9421 h 9.071 l 0.767,-3.6141 h -10.54 c -3.483,0 -4.952,0.9132 -5.622,3.9935 -0.095,0.4726 -0.16,1.0064 -0.16,1.3826 0,1.9806 1.277,3.0802 3.737,3.9612 l 2.907,1.0386 c 1.182,0.4083 2.652,0.9132 2.652,1.8874 0,0.7845 -0.702,0.7845 -1.404,0.7845 h -9.391 z"
     fill="#1c3f23"
     id="path1" />
  <path
     d="m 0,27.32995 h 11.3379 c 3.3546,0 4.6318,-1.0386 5.2394,-3.8681 0.0947,-0.4726 0.16,-1.0385 0.16,-1.4147 0,-2.4822 -2.0121,-3.3954 -4.3443,-4.2121 l -3.3841,-1.1961 c -0.92768,-0.3151 -1.79002,-0.627 -1.79002,-1.4147 0,-0.9132 0.89501,-0.9421 1.56463,-0.9421 h 9.07099 l 0.7676,-3.6141 H 8.08122 c -3.48204,0 -4.95195,0.9132 -5.62158,3.9935 -0.09472,0.4726 -0.16005,1.0064 -0.16005,1.3826 0,1.9806 1.27718,3.0802 3.73683,3.9612 l 2.90715,1.0386 c 1.18243,0.4083 2.65233,0.9132 2.65233,1.8874 0,0.7845 -0.7023,0.7845 -1.4045,0.7845 H 0.800282 l -0.79701733,3.6141 z m 35.8037,0 -4.8213,-6.9805 c -0.2548,-0.3762 -0.4475,-0.7878 -0.4475,-1.1961 0,-0.627 0.2874,-1.0064 0.797,-1.4758 l 7.1862,-7.0095 h -5.8437 l -5.4289,5.4082 c -1.2771,1.2572 -1.692,2.1704 -1.692,3.3311 0,0.6302 0.2221,1.2893 0.637,1.9485 l 3.9589,5.9741 z m -13.0953,0 4.7593,-22.00573 h -4.9814 l -4.7592,22.00573 z m 36.2185,-16.6651 h -5.3014 l -7.6664,11.8196 -2.4923,-11.8196 h -4.9814 l 4.217,16.6297 -3.8021,5.4082 h 5.174 z"
     fill="#1c3f23"
     id="path2" />
  <mask
     id="mask0_761_1470"
     maskUnits="userSpaceOnUse"
     x="131"
     y="2"
     width="39"
     height="39">
    <mask
       id="mask1_761_1470"
       maskUnits="userSpaceOnUse"
       x="130"
       y="0"
       width="41"
       height="43">
      <mask
         id="mask2_761_1470"
         maskUnits="userSpaceOnUse"
         x="129"
         y="0"
         width="43"
         height="43">
        <path
           d="m 171.963,0 h -42.605 v 42.1208 h 42.605 z"
           fill="#ffffff"
           id="path3" />
      </mask>
      <g
         mask="url(#mask2_761_1470)"
         id="g4">
        <path
           d="m 130.384,0 h 40.168 v 42.1176 h -40.168 z"
           fill="#ffffff"
           id="path4" />
      </g>
    </mask>
    <g
       mask="url(#mask1_761_1470)"
       id="g5">
      <path
         d="m 169.954,19.9994 c -0.15,-2.5884 -0.827,-5.0384 -1.927,-7.2506 h -10.754 l -1.224,9.7392 -0.405,-0.7234 h -0.719 l -3.939,-8.929 -0.673,1.5434 -0.944,-1.7234 -1.803,4.0384 -1.206,-3.9484 h -2.848 l -5.03,9.0672 -0.03,0.0515 -1.045,5.5078 h -0.996 c -0.879,-1.9227 -1.376,-4.0513 -1.376,-6.2924 0,-8.4916 7.017,-15.39817 15.643,-15.39817 2.591,0 5.031,0.62699 7.187,1.72663 h 6.213 C 163.705,7.05447 163.313,6.71686 162.915,6.39212 162.898,6.37925 162.885,6.36639 162.869,6.35353 162.67,6.19277 162.464,6.03843 162.258,5.88409 162.225,5.85837 162.193,5.83587 162.16,5.81014 161.964,5.66545 161.765,5.52719 161.562,5.39215 161.52,5.36321 161.477,5.33427 161.432,5.30534 161.236,5.17351 161.036,5.04811 160.834,4.92593 160.785,4.89699 160.736,4.86484 160.687,4.8359 160.488,4.71693 160.282,4.60118 160.079,4.48864 160.027,4.45971 159.975,4.43077 159.923,4.40183 159.717,4.29251 159.511,4.1864 159.302,4.0803 159.246,4.05458 159.194,4.02564 159.139,3.99991 158.93,3.89702 158.717,3.80056 158.502,3.70732 158.446,3.6816 158.391,3.65909 158.335,3.63658 c -0.216,-0.09003 -0.431,-0.18006 -0.65,-0.26366 -0.055,-0.0225 -0.114,-0.04179 -0.17,-0.0643 -0.219,-0.08038 -0.438,-0.16077 -0.66,-0.2315 -0.058,-0.0193 -0.12,-0.03859 -0.183,-0.0611 -0.218,-0.07073 -0.437,-0.13825 -0.659,-0.19935 -0.069,-0.01929 -0.134,-0.03858 -0.203,-0.05466 -0.215,-0.05787 -0.434,-0.11575 -0.653,-0.16719 -0.079,-0.0193 -0.157,-0.03537 -0.235,-0.05145 -0.209,-0.04501 -0.418,-0.09003 -0.631,-0.13183 -0.095,-0.01929 -0.189,-0.03215 -0.284,-0.04823 -0.199,-0.03537 -0.395,-0.06752 -0.594,-0.09646 -0.121,-0.01608 -0.239,-0.02894 -0.36,-0.04501 -0.179,-0.02251 -0.356,-0.04502 -0.535,-0.06109 -0.157,-0.01608 -0.317,-0.02573 -0.477,-0.03537 -0.144,-0.00965 -0.291,-0.02251 -0.435,-0.02894 -0.284,-0.01286 -0.568,-0.01929 -0.852,-0.01929 -0.027,0 -0.049,0 -0.076,0 -3.658,0 -7.084,1.0064 -10.005,2.75553 -0.085,0.05145 -0.17,0.10932 -0.254,0.16077 -0.441,0.2733 -0.873,0.55947 -1.287,0.86492 -4.711,3.46934 -7.765,9.00293 -7.765,15.22783 0,0.3665 0.01,0.7331 0.033,1.0964 0.016,0.2894 0.046,0.5787 0.075,0.8649 0.006,0.0675 0.01,0.1383 0.02,0.209 0.251,2.1768 0.882,4.241 1.816,6.1316 h 5.791 l 1.297,-7.0158 4.312,-7.6107 h 0.127 l 2.365,7.7457 2.349,-5.2635 0.963,1.7588 0.477,-1.0932 2.59,5.8712 h 0.856 l 2.865,5.0931 1.777,-14.1121 h 5.85 c 0.889,1.9292 1.388,4.0706 1.388,6.3246 0,8.4916 -7.016,15.3982 -15.643,15.3982 -2.613,0 -5.079,-0.6367 -7.245,-1.7588 h -6.183 c 2.469,2.3536 5.569,4.0641 9.025,4.8615 0.007,0 0.01,0 0.013,0 0.274,0.0644 0.549,0.1222 0.827,0.1737 0.035,0.0064 0.071,0.0128 0.107,0.0193 0.249,0.045 0.497,0.0868 0.752,0.1221 0.078,0.0097 0.156,0.0193 0.235,0.029 0.215,0.0257 0.428,0.0546 0.643,0.0739 0.141,0.0129 0.284,0.0225 0.425,0.0322 0.16,0.0129 0.317,0.0257 0.477,0.0321 0.307,0.0161 0.617,0.0225 0.924,0.0225 8.986,0 16.555,-6.0705 18.701,-14.2631 0.006,-0.0225 0.01,-0.045 0.016,-0.0676 0.127,-0.4983 0.235,-1.0064 0.32,-1.5208 0.177,-1.0289 0.271,-2.0803 0.271,-3.1575 0,-0.0578 -0.003,-0.1125 -0.006,-0.1704 0,-0.3054 -0.01,-0.6109 -0.026,-0.9163 z"
         fill="#ffffff"
         id="path5" />
    </g>
  </mask>
  <g
     mask="url(#mask0_761_1470)"
     id="g8"
     transform="translate(0,-2.07715)">
    <path
       d="M 169.983,2.05176 H 131.338 V 40.0923 h 38.645 z"
       fill="url(#paint0_linear_761_1470)"
       id="path6"
       style="fill:url(#paint0_linear_761_1470)" />
    <path
       d="m 169.987,-2.24414 h -33.511 v 9.6717 h 33.511 z"
       fill="#1c3f23"
       id="path7" />
    <path
       d="m 170.166,34.4297 h -33.51 v 9.6717 h 33.51 z"
       fill="#1c3f23"
       id="path8" />
  </g>
  <defs
     id="defs8">
    <linearGradient
       id="paint0_linear_761_1470"
       x1="169.987"
       y1="40.0923"
       x2="131.948"
       y2="1.45155"
       gradientUnits="userSpaceOnUse">
      <stop
         offset="0.21"
         stop-color="#1C3F23"
         id="stop8" />
    </linearGradient>
  </defs>
</svg>
