<?xml version="1.0" encoding="UTF-8" standalone="no"?>
<!-- Generator: Adobe Illustrator 15.0.2, SVG Export Plug-In . SVG Version: 6.00 Build 0)  -->

<svg
   xmlns:dc="http://purl.org/dc/elements/1.1/"
   xmlns:cc="http://creativecommons.org/ns#"
   xmlns:rdf="http://www.w3.org/1999/02/22-rdf-syntax-ns#"
   xmlns:svg="http://www.w3.org/2000/svg"
   xmlns="http://www.w3.org/2000/svg"
   xmlns:sodipodi="http://sodipodi.sourceforge.net/DTD/sodipodi-0.dtd"
   xmlns:inkscape="http://www.inkscape.org/namespaces/inkscape"
   version="1.1"
   id="レイヤー_1"
   x="0px"
   y="0px"
   width="821.091"
   height="249.45599"
   viewBox="0 0 821.09102 249.45599"
   enable-background="new 0 0 1475.928 252.098"
   xml:space="preserve"
   inkscape:version="0.91 r13725"
   sodipodi:docname="Skymark_Airlines_Logo_SKY.svg"><metadata
   id="metadata31"><rdf:RDF><cc:Work
       rdf:about=""><dc:format>image/svg+xml</dc:format><dc:type
         rdf:resource="http://purl.org/dc/dcmitype/StillImage" /><dc:title></dc:title></cc:Work></rdf:RDF></metadata><defs
   id="defs29" /><sodipodi:namedview
   pagecolor="#ffffff"
   bordercolor="#666666"
   borderopacity="1"
   objecttolerance="10"
   gridtolerance="10"
   guidetolerance="10"
   inkscape:pageopacity="0"
   inkscape:pageshadow="2"
   inkscape:window-width="1366"
   inkscape:window-height="706"
   id="namedview27"
   showgrid="false"
   fit-margin-top="0"
   fit-margin-left="0"
   fit-margin-right="0"
   fit-margin-bottom="0"
   inkscape:zoom="0.42075224"
   inkscape:cx="483.65245"
   inkscape:cy="114.81646"
   inkscape:window-x="-8"
   inkscape:window-y="-8"
   inkscape:window-maximized="1"
   inkscape:current-layer="レイヤー_1" />


<g
   id="g4188"
   transform="translate(-667.53621,-7.32)"><polygon
     id="polygon3"
     points="1179.659,237.893 1409.626,237.893 1470.381,95.854 1405.236,95.854 1248.297,183.132 "
     style="fill:#1e398d" /><polygon
     id="polygon5"
     points="1162.535,95.854 1225.599,150.291 1179.659,237.893 1264.722,184.063 1326.678,237.54 1317.077,151.196 1405.236,95.854 1310.924,95.854 1301.075,7.32 1254.337,95.854 "
     style="fill:#dcaa0d" /><path
     id="path7"
     d="m 1179.659,237.893 85.063,-53.831 62,53.83 -9.608,-86.357 88.122,-55.681 c 0,0 -137.804,8.345 -225.577,142.039 z"
     inkscape:connector-curvature="0"
     style="fill:#ffdd00" /></g>
<path
   d="m 80.655,230.682 -80.655,0 12.38,-29.165 70.178,0 c 0,0 13.335,-1.365 20.134,-10.938 6.795,-9.569 -12.23,-14.127 -12.23,-14.127 0,0 -35.844,-10.024 -39.104,-10.936 -3.26,-0.91 -35.39,-10.024 -16.653,-45.57 18.73,-35.542 59.826,-31.438 59.826,-31.438 l 78.374,0 -12.376,29.164 -70.178,0 c 0,0 -11.85,0 -16.888,8.656 -5.045,8.656 7.729,11.85 11.183,12.303 3.45,0.455 32.711,7.746 38.84,10.48 6.132,2.73 36.051,12.761 19.972,44.204 -14.237,27.826 -34.548,37.367 -62.803,37.367 z"
   id="path9"
   inkscape:connector-curvature="0"
   style="fill:#1e398d" />
<polygon
   points="217.561,95.828 259.485,95.828 235.305,152.787 300.042,95.828 352.442,95.828 279.243,152.332 307.588,238.002 258.829,238.002 241.598,178.76 215.771,198.813 199.136,238.002 157.211,238.002 "
   id="polygon11"
   style="fill:#1e398d"
   transform="translate(-10.938,-7.32)" />
<polyline
   points="502.362,95.828 452.698,95.828 399.547,152.332 400.291,95.828 356.089,95.828 363.622,186.507   341.767,238.002 383.688,238.002 405.547,186.507 502.362,95.828 "
   id="polyline13"
   style="fill:#1e398d"
   transform="translate(-10.938,-7.32)" />



<path
   stroke-miterlimit="10"
   d="M 821.091,249.456"
   id="path21"
   inkscape:connector-curvature="0"
   style="fill:none;stroke:#b3b3b3;stroke-miterlimit:10" />
<path
   stroke-miterlimit="10"
   d="M 622.656,249.456"
   id="path23"
   inkscape:connector-curvature="0"
   style="fill:none;stroke:#b3b3b3;stroke-miterlimit:10" />

</svg>