<?xml version="1.0" encoding="utf-8"?>
<!-- Generator: Adobe Illustrator 25.0.1, SVG Export Plug-In . SVG Version: 6.00 Build 0)  -->
<svg version="1.1" id="Layer_1" xmlns="http://www.w3.org/2000/svg" xmlns:xlink="http://www.w3.org/1999/xlink" x="0px" y="0px"
	 viewBox="0 0 326.4 41.5" style="enable-background:new 0 0 326.4 41.5;" xml:space="preserve">
<style type="text/css">
	.st0{fill:#1E2E61;}
	.st1{fill:#96292C;}
</style>
<g>
	<polygon class="st0" points="142.5,3.6 126.6,16.9 119.9,3.6 89.9,3.6 72.8,16.4 68.3,16.4 72.8,3.6 61.8,3.6 49.7,37.9 60.6,37.9 
		64.8,26 68.8,26 79.5,37.9 96.9,37.9 82,20.7 105.7,5.3 106.6,5.3 118.5,26.1 114.3,37.9 125.2,37.9 129.1,27 157.6,3.6 	"/>
	<polygon class="st1" points="147.4,37.9 159.6,3.6 177.1,3.6 181.3,23.9 200.1,3.6 216.8,3.6 204.7,37.9 193.7,37.9 201,17.4 
		181.2,37.9 171,37.9 166.5,14.9 158.4,37.9 	"/>
	<g>
		<g>
			<path class="st1" d="M238.7,3.6l-31.4,34.2h13.5l5.4-5.8h19.4l0.8,5.8h13.1L253,3.6H238.7z M233.6,23.9l9.4-10.1l1.4,10.1H233.6z
				"/>
			<polygon class="st1" points="323.9,3.6 307,3.6 293.3,13.5 286.3,3.6 271.2,3.6 283.3,20.7 259.5,37.9 274.5,37.9 288.6,28.1 
				295.5,37.9 310.6,37.9 298.7,21.1 			"/>
		</g>
	</g>
	<path class="st0" d="M21.3,14.9c-0.3,0.6,0.2,1.3,0.9,1.3h16c6.3,0,13.8,0.3,9.3,11s-7.9,10.6-21.6,10.6s-10.1,0-15.6,0
		s-9.6-1.7-6.9-8.1C4.7,26.3,5,25.6,5,25.6h11.9l-1,2c-0.4,0.7,0.2,1.6,1,1.6h16.4c0.8,0,1.6-0.5,1.9-1.3l0.6-1.6
		c0.4-1.1-0.4-2.3-1.6-2.3H14.6c-6.4,0-7.6-5-5.5-8.9S13.3,3.6,24,3.6s15.4,0,20.9,0s9.4,3.4,5.8,11.1l-12.1,0.1
		c0,0,1.9-2.6-0.2-2.6c-5,0-14.3,0-14.3,0c-1,0-1.9,0.6-2.3,1.5L21.3,14.9z"/>
</g>
</svg>
