<svg width="216" height="40" xmlns="http://www.w3.org/2000/svg"><g fill="#04080F" fill-rule="evenodd"><path d="M13.955 6.74c2.565 0 5.218.8 7.607 2.274l1.088-6.865C20.085.758 17.216 0 14.086 0 8.477 0 3.479 2.4 2.564 8.004c-1.607 10.11 11.609 9.603 10.957 13.604-.219 1.518-2.261 2.15-4.435 2.15-2.739 0-5.65-.885-7.869-2.274L0 28.686c2.783 1.347 5.695 1.98 9.348 1.98 6.085 0 10.954-2.232 11.955-8.214 1.74-10.616-11.739-9.646-11.173-13.69.26-1.432 1.782-2.022 3.825-2.022"/><path d="M51.238 10.172l-4.09 11.17-1.468-11.17H34.003l-4.13 6.87h-1.43l2.462-15.709h-6.512l-4.408 28.125h6.512l1.073-6.75H29l2.302 6.75h6.83l-3.335-9.242 4.645-7.21 3.656 16.372c-.793 1.607-1.31 2.289-2.025 2.813-.833.522-1.787.762-3.136.482l-.874 5.624c2.819.724 5.242.361 7.187-.883 1.786-1.165 3.217-2.975 4.328-5.464l10.046-21.778h-7.386zM83.939 1.333H77.01l-2.884 18.774c-.4 2.588-1.881 3.821-4.285 3.821-2.121 0-3.203-.986-2.803-3.492l2.964-19.103h-6.889l-3.003 19.39c-1 6.368 2.924 9.944 9.13 9.944 6.729 0 10.613-2.876 11.614-9.573l3.084-19.76zM94.404 10.667c-2.325 0-3.799 1.233-4.69 2.505l.27-1.93h-5.737L79.94 40h6.36l1.59-10.518c.736 1.11 2.093 2.056 4.188 2.056 4.186 0 6.745-4.067 7.598-10.066.855-5.547-.386-10.805-5.273-10.805m-.93 10.394c-.464 3.247-1.358 4.684-2.908 4.684-.891 0-1.589-.575-1.9-1.437l.969-6.45c.583-.823 1.357-1.399 2.288-1.399 1.59 0 1.978 1.767 1.551 4.602M123.902 1.333l-14.649 29.334h2.624l3.937-7.837h12.236l1.355 7.837h2.498l-5.25-29.334h-2.751zm-6.986 19.192l6.436-12.865a82.71 82.71 0 0 0 1.566-3.478c.168 1.174.254 2.264.466 3.395l2.286 12.948h-10.754zM133.236 30.667h2.26l3.07-20h-2.261zM139.367 4c-.975 0-1.899.632-2.104 1.842-.207 1.42.666 2.158 1.796 2.158.974 0 1.949-.528 2.153-1.79.154-1.368-.718-2.21-1.845-2.21M151.889 10.676c-3.097-.123-5.837.98-7.504 4.12l.595-3.713h-2.064l-3.018 19.584h2.263l1.866-11.873c1.589-4.283 4.368-6.038 7.465-5.794l.397-2.324zM156.382 0l-4.493 30.667h2.169L158.55 0zM158.55 30.667h2.262l3.068-20h-2.26zM164.681 4c-.975 0-1.898.632-2.103 1.842-.206 1.42.666 2.158 1.795 2.158.976 0 1.95-.528 2.154-1.79.154-1.368-.718-2.21-1.846-2.21M176.97 10.667c-2.918 0-5.226 1.303-6.663 3.177l.479-2.73h-2.263l-3.31 19.553h2.481l2.308-13.645c1.176-2.16 3.529-4.237 6.315-4.237 2.482 0 4.181 1.425 3.615 4.644l-2.221 13.238h2.48l2.221-13.198c.697-4.114-1.697-6.802-5.442-6.802M193.682 10.667c-4.85 0-8.624 3.786-9.618 9.84-.997 6.174 1.782 10.16 7.795 10.16 1.576 0 3.275-.279 4.893-.997l.373-2.191c-1.66.757-3.276 1.076-5.059 1.076-3.938 0-6.136-2.112-5.764-6.774h12.937c1.74-6.333-.25-11.114-5.557-11.114m3.651 9.123h-10.7c.582-2.51 2.49-6.971 6.967-6.971 3.36 0 4.561 2.748 3.733 6.97M210.106 12.698c2.033 0 3.75.439 5.33 1.395l.406-2.111c-1.581-.837-3.614-1.315-5.871-1.315-3.885 0-7.137 1.593-7.678 4.66-1.176 6.535 10.704 5.58 9.846 10.279-.408 2.113-2.665 2.988-5.646 2.988-2.44 0-4.561-.518-6.232-1.593l-.407 2.151c1.58.997 3.884 1.515 6.683 1.515 3.93 0 7.454-1.275 8.085-4.74 1.22-6.655-10.704-5.5-9.845-10.24.407-1.992 2.619-2.989 5.33-2.989"/></g></svg>