<?xml version="1.0" encoding="UTF-8" standalone="no"?>
<svg
   xmlns:dc="http://purl.org/dc/elements/1.1/"
   xmlns:cc="http://creativecommons.org/ns#"
   xmlns:rdf="http://www.w3.org/1999/02/22-rdf-syntax-ns#"
   xmlns:svg="http://www.w3.org/2000/svg"
   xmlns="http://www.w3.org/2000/svg"
   width="500"
   height="100"
   viewBox="0 0 132.29166 26.458334"
   version="1.1"
   id="svg8">
  <defs
     id="defs2" />
  <metadata
     id="metadata5">
    <rdf:RDF>
      <cc:Work
         rdf:about="">
        <dc:format>image/svg+xml</dc:format>
        <dc:type
           rdf:resource="http://purl.org/dc/dcmitype/StillImage" />
        <dc:title></dc:title>
      </cc:Work>
    </rdf:RDF>
  </metadata>
  <g
     id="layer1">
    <g
       aria-label="SkyUp"
       id="text849"
       style="font-style:italic;font-variant:normal;font-weight:800;font-stretch:normal;font-size:16.4632px;line-height:1.25;font-family:'Muller Narrow';-inkscape-font-specification:'Muller Narrow Ultra-Bold Italic';letter-spacing:-0.449792px;fill:#ff5000;fill-opacity:1;stroke-width:0.41158"
       transform="matrix(1.508358,0,0,1.508358,-77.174029,6.6451234)">
      <path
         d="m 55.063053,8.7718304 c 2.304847,0 4.148726,-0.8725496 4.527379,-3.2103239 0.658528,-4.1487263 -4.445063,-3.7700727 -4.231042,-5.35053991 0.09878,-0.55974879 0.674991,-0.79023358 1.448762,-0.79023358 0.971328,0 1.975584,0.31280079 2.88106,0.88901278 l 0.41158,-2.68350149 c -0.971329,-0.5432856 -2.0579,-0.8396232 -3.243251,-0.8396232 -2.123752,0 -4.01702,0.9384023 -4.362748,3.1280079 -0.609138,3.9511679 4.395675,3.7536095 4.148727,5.3176135 -0.08232,0.5926752 -0.856087,0.8396232 -1.679247,0.8396232 -1.037181,0 -2.140216,-0.3457272 -2.979839,-0.8890128 L 51.523465,7.99806 c 1.053644,0.5268224 2.156679,0.7737704 3.539588,0.7737704 z"
         style="font-style:italic;font-variant:normal;font-weight:800;font-stretch:normal;font-family:'Muller Narrow';-inkscape-font-specification:'Muller Narrow Ultra-Bold Italic';fill:#ff5000;fill-opacity:1;stroke-width:0.41158"
         id="path892" />
      <path
         d="m 59.51927,8.5413456 h 2.699965 l 0.444506,-2.7658175 h 0.592675 l 0.954866,2.7658175 h 2.83167 L 65.660043,4.7548097 68.343545,0.63900978 H 65.330779 L 63.618607,3.4542169 h -0.592676 l 1.020719,-6.437111 h -2.699965 z"
         style="font-style:italic;font-variant:normal;font-weight:800;font-stretch:normal;font-family:'Muller Narrow';-inkscape-font-specification:'Muller Narrow Ultra-Bold Italic';fill:#ff5000;fill-opacity:1;stroke-width:0.41158"
         id="path894" />
      <path
         d="M 72.631461,0.63900978 70.935751,5.2157793 70.326613,0.63900978 h -2.848134 l 1.778026,7.86940942 c -0.329264,0.658528 -0.543286,0.9384024 -0.839623,1.152424 -0.345727,0.2140216 -0.740844,0.3128008 -1.300593,0.1975584 l -0.36219,2.3048484 c 1.168887,0.296337 2.173142,0.148168 2.979839,-0.362191 0.740844,-0.477433 1.333519,-1.218277 1.794488,-2.238995 l 4.16519,-8.92305422 z"
         style="font-style:italic;font-variant:normal;font-weight:800;font-stretch:normal;font-family:'Muller Narrow';-inkscape-font-specification:'Muller Narrow Ultra-Bold Italic';fill:#ff5000;fill-opacity:1;stroke-width:0.41158"
         id="path896" />
      <path
         d="m 79.312644,8.7718304 c 2.765818,0 4.362748,-1.152424 4.774328,-3.8359255 l 1.267667,-7.918799 h -2.848134 l -1.18535,7.5236822 c -0.164632,1.0371816 -0.773771,1.5310776 -1.761563,1.5310776 -0.872549,0 -1.317056,-0.3951168 -1.152424,-1.399372 l 1.218277,-7.6553878 h -2.83167 l -1.23474,7.7706302 c -0.41158,2.5517959 1.201813,3.9840943 3.753609,3.9840943 z"
         style="font-style:italic;font-variant:normal;font-weight:800;font-stretch:normal;font-family:'Muller Narrow';-inkscape-font-specification:'Muller Narrow Ultra-Bold Italic';fill:#ff5000;fill-opacity:1;stroke-width:0.41158"
         id="path898" />
      <path
         d="m 89.991972,0.40852499 c -0.987792,0 -1.613394,0.49389598 -1.992048,1.00425521 L 88.115167,0.63900978 H 85.678613 L 83.851198,12.16325 h 2.699965 l 0.674991,-4.2145796 c 0.312801,0.4445064 0.889013,0.82316 1.778026,0.82316 1.778025,0 2.864596,-1.6298568 3.226787,-4.0334839 0.36219,-2.222532 -0.164632,-4.32982151 -2.238995,-4.32982151 z M 88.938327,2.7298361 c 0.674991,0 0.839623,0.7079176 0.658528,1.8438784 -0.197559,1.3005928 -0.576212,1.8768047 -1.23474,1.8768047 -0.378654,0 -0.674991,-0.2304847 -0.806697,-0.5762119 l 0.41158,-2.5847224 c 0.246948,-0.329264 0.576212,-0.5597488 0.971329,-0.5597488 z"
         style="font-style:italic;font-variant:normal;font-weight:800;font-stretch:normal;font-family:'Muller Narrow';-inkscape-font-specification:'Muller Narrow Ultra-Bold Italic';fill:#ff5000;fill-opacity:1;stroke-width:0.41158"
         id="path900" />
    </g>
    <g
       aria-label="Airlines"
       id="text849-8"
       style="font-style:italic;font-variant:normal;font-weight:800;font-stretch:normal;font-size:16.4632px;line-height:1.25;font-family:'Muller Narrow';-inkscape-font-specification:'Muller Narrow Ultra-Bold Italic';fill:#ff5000;fill-opacity:1;stroke-width:0.41158"
       transform="matrix(1.508358,0,0,1.508358,-77.174029,6.6451234)">
      <path
         d="m 95.349565,8.5413456 h 1.020719 l 1.531077,-3.0786183 h 4.757869 l 0.52682,3.0786183 h 0.97133 l -2.04144,-11.5242397 h -1.07011 z m 2.979839,-3.9840943 2.502406,-5.05420229 c 0.23049,-0.49389599 0.41158,-0.88901281 0.60914,-1.36644561 0.0658,0.4609696 0.0988,0.88901282 0.18109,1.33351921 l 0.88902,5.08712869 z"
         style="font-style:italic;font-variant:normal;font-weight:300;font-stretch:normal;font-family:'Muller Narrow';-inkscape-font-specification:'Muller Narrow Light Italic';fill:#ff5000;fill-opacity:1;stroke-width:0.41158"
         id="path875" />
      <path
         d="m 107.3183,-1.1390158 c 0.3128,0 0.62561,-0.164632 0.69146,-0.5597488 0.0494,-0.4280432 -0.23049,-0.6914543 -0.59268,-0.6914543 -0.3128,0 -0.60914,0.1975583 -0.67499,0.5762119 -0.0658,0.4445064 0.21402,0.6749912 0.57621,0.6749912 z m -2.04143,9.6803614 h 0.92194 l 1.2512,-7.90233582 h -0.92194 z"
         style="font-style:italic;font-variant:normal;font-weight:300;font-stretch:normal;font-family:'Muller Narrow';-inkscape-font-specification:'Muller Narrow Light Italic';fill:#ff5000;fill-opacity:1;stroke-width:0.41158"
         id="path877" />
      <path
         d="m 108.25667,8.5413456 h 0.93841 l 0.77377,-4.7907911 c 0.65853,-1.728636 1.81095,-2.4365535 3.09508,-2.3377743 l 0.16463,-0.93840242 c -1.28413,-0.0493896 -2.42009,0.3951168 -3.11154,1.66278312 l 0.24694,-1.49815112 h -0.85608 z"
         style="font-style:italic;font-variant:normal;font-weight:300;font-stretch:normal;font-family:'Muller Narrow';-inkscape-font-specification:'Muller Narrow Light Italic';fill:#ff5000;fill-opacity:1;stroke-width:0.41158"
         id="path879" />
      <path
         d="m 115.71083,-3.4767901 h -0.92194 l -1.90973,12.0181357 h 0.92194 z"
         style="font-style:italic;font-variant:normal;font-weight:300;font-stretch:normal;font-family:'Muller Narrow';-inkscape-font-specification:'Muller Narrow Light Italic';fill:#ff5000;fill-opacity:1;stroke-width:0.41158"
         id="path881" />
      <path
         d="m 117.9498,-1.1390158 c 0.3128,0 0.6256,-0.164632 0.69145,-0.5597488 0.0494,-0.4280432 -0.23048,-0.6914543 -0.59267,-0.6914543 -0.3128,0 -0.60914,0.1975583 -0.67499,0.5762119 -0.0659,0.4445064 0.21402,0.6749912 0.57621,0.6749912 z m -2.04144,9.6803614 h 0.92194 l 1.2512,-7.90233582 h -0.92194 z"
         style="font-style:italic;font-variant:normal;font-weight:300;font-stretch:normal;font-family:'Muller Narrow';-inkscape-font-specification:'Muller Narrow Light Italic';fill:#ff5000;fill-opacity:1;stroke-width:0.41158"
         id="path883" />
      <path
         d="m 118.48817,8.5413456 h 0.9384 l 0.87255,-5.5151719 c 0.44451,-0.8725496 1.33352,-1.7121727 2.38717,-1.7121727 0.9384,0 1.58046,0.576212 1.36644,1.8768047 l -0.83962,5.3505399 h 0.9384 l 0.83962,-5.3340767 c 0.26341,-1.6627831 -0.64206,-2.74935431 -2.0579,-2.74935431 -1.10303,0 -1.97558,0.52682238 -2.51887,1.28412961 l 0.1811,-1.10303442 h -0.85609 z"
         style="font-style:italic;font-variant:normal;font-weight:300;font-stretch:normal;font-family:'Muller Narrow';-inkscape-font-specification:'Muller Narrow Light Italic';fill:#ff5000;fill-opacity:1;stroke-width:0.41158"
         id="path885" />
      <path
         d="m 129.00327,8.7224408 c 0.6256,0 1.30059,-0.1152424 1.94266,-0.41158 l 0.14816,-0.905476 c -0.65852,0.3128008 -1.30059,0.4445064 -2.00851,0.4445064 -1.564,0 -2.43655,-0.8725496 -2.28838,-2.7987439 h 5.13652 c 0.69145,-2.6176488 -0.0988,-4.59323271 -2.20607,-4.59323271 -1.9262,0 -3.42435,1.56400391 -3.81946,4.06641031 -0.39512,2.5517959 0.70791,4.1981159 3.09508,4.1981159 z m -2.07436,-4.4944535 c 0.23048,-1.0371816 0.98779,-2.8810599 2.76581,-2.8810599 1.33352,0 1.81095,1.1359607 1.48169,2.8810599 z"
         style="font-style:italic;font-variant:normal;font-weight:300;font-stretch:normal;font-family:'Muller Narrow';-inkscape-font-specification:'Muller Narrow Light Italic';fill:#ff5000;fill-opacity:1;stroke-width:0.41158"
         id="path887" />
      <path
         d="m 136.26354,0.45791459 c -1.41584,0 -2.60119,0.65852801 -2.79875,1.92619431 -0.42804,2.6999648 3.90178,2.304848 3.58898,4.2475055 -0.14817,0.8725496 -0.97133,1.23474 -2.0579,1.23474 -0.88901,0 -1.66278,-0.2140216 -2.27192,-0.658528 l -0.14817,0.8890128 c 0.57621,0.41158 1.41583,0.6256016 2.43655,0.6256016 1.4323,0 2.71643,-0.5268224 2.94692,-1.9591208 0.4445,-2.7493543 -3.90178,-2.2719215 -3.58898,-4.2310423 0.14817,-0.8231599 0.95486,-1.2347399 1.94266,-1.2347399 0.74084,0 1.36644,0.1810952 1.94265,0.576212 l 0.14817,-0.8725496 C 137.82754,0.65547298 137.0867,0.45791459 136.26354,0.45791459 Z"
         style="font-style:italic;font-variant:normal;font-weight:300;font-stretch:normal;font-family:'Muller Narrow';-inkscape-font-specification:'Muller Narrow Light Italic';fill:#ff5000;fill-opacity:1;stroke-width:0.41158"
         id="path889" />
    </g>
  </g>
</svg>
