<?xml version="1.0" encoding="utf-8"?>
<!-- Generator: Adobe Illustrator 23.0.3, SVG Export Plug-In . SVG Version: 6.00 Build 0)  -->
<svg version="1.1" id="Layer_1" xmlns="http://www.w3.org/2000/svg" xmlns:xlink="http://www.w3.org/1999/xlink" x="0px" y="0px"
	 width="331.5px" height="88.5px" viewBox="0 0 331.5 88.5" style="enable-background:new 0 0 331.5 88.5;" xml:space="preserve">
<style type="text/css">
	.st0{fill:#330072;}
	.st1{fill:#FF585D;}
</style>
<path class="st0" d="M9.5,88.1c-3.6,0-7.1-0.9-9.5-1.9c-0.4-0.2-0.6-0.6-0.4-1c0.5-1.1,1.4-3.4,2-4.6c0.2-0.4,0.7-0.6,1.1-0.4
	c1.8,0.9,4.7,1.6,6.6,1.6c2.9,0,4.7-1.3,4.7-3.5C14,76,12,75,9.1,74c-4-1.5-9-3.3-9-9.5c0-5.6,4.2-9.3,11.6-9.3
	c3.7,0,6.7,0.8,9.1,1.9c0.4,0.2,0.5,0.6,0.4,1c-0.5,1-1.3,2.9-1.8,4c-0.2,0.4-0.7,0.6-1.1,0.4c-1.5-0.7-3.8-1.4-5.5-1.4
	c-2.8,0-4.4,1.4-4.4,3.3c0,2.4,2,3.3,4.8,4.3c4.2,1.5,9.2,3.3,9.2,9.7C22.4,84.3,18,88.1,9.5,88.1"/>
<path class="st0" d="M64.1,87.4c-0.4,0-0.8-0.3-0.8-0.8V66.4c0-3.1-2-4.9-5.2-4.9c-2,0-3.6,0.6-4.7,1.6v23.5c0,0.4-0.3,0.8-0.8,0.8
	h-6.5c-0.4,0-0.8-0.3-0.8-0.8V66c0-2.8-2.1-4.5-5.5-4.5c-1.8,0-3.3,0.3-4.4,0.8v24.3c0,0.4-0.3,0.8-0.8,0.8h-6.4
	c-0.4,0-0.8-0.3-0.8-0.8V59.2c0-1.1,0.7-2.1,1.8-2.5c2.9-1,6.4-1.6,10.1-1.6c5.1,0,8.3,1.6,10.1,3.2c2-1.5,5.9-3.2,10.6-3.2
	c7,0,11.2,4,11.2,10.4v21.1c0,0.4-0.3,0.8-0.8,0.8H64.1z"/>
<path class="st1" d="M195.1,87.4H194c-2.4,0-4.6-1.5-5.4-3.8l-9.7-26.7c-0.2-0.5,0.2-1,0.7-1h7.3c0.3,0,0.6,0.2,0.7,0.6l6.9,23.1
	l6.8-23.1c0.1-0.3,0.4-0.6,0.7-0.6h7.3c0.5,0,0.9,0.5,0.7,1l-9.6,26.7C199.8,85.9,197.6,87.4,195.1,87.4"/>
<path class="st1" d="M219.2,50.8c-2.5,0-4.6-1.9-4.6-4.3s2-4.3,4.6-4.3c2.5,0,4.6,1.9,4.6,4.3C223.7,48.9,221.7,50.8,219.2,50.8
	 M215.2,86.6v-30c0-0.4,0.3-0.8,0.8-0.8h6.4c0.4,0,0.8,0.3,0.8,0.8v30c0,0.4-0.3,0.8-0.8,0.8H216C215.5,87.4,215.2,87.1,215.2,86.6"
	/>
<path class="st0" d="M89.6,55.2c-3.4,0-6.7,0.7-9.3,1.5c-0.4,0.1-0.7,0.6-0.5,1l1.6,4.2c0.1,0.4,0.6,0.6,0.9,0.5
	c2-0.6,4.5-1.1,6.7-1.1c3.6,0,5.7,0.9,5.7,4.2v1.6c-9.5,0.5-18.5,2.2-18.5,10.8c0,6.4,4.7,10.2,14.2,10.2c3.3,0,6.7-0.5,9.2-1.3
	c1.6-0.5,2.6-1.9,2.6-3.5V67.8C102.3,57.2,96.6,55.1,89.6,55.2 M94.8,81.8c-0.8,0.4-2.8,0.6-4.5,0.6c-4.2,0-6.5-1.7-6.5-4.7
	c0-4.7,5.2-5.3,11-5.6V81.8z"/>
<path class="st1" d="M162.2,55.2c-3.4,0-6.7,0.7-9.3,1.5c-0.4,0.1-0.7,0.6-0.5,1l1.6,4.2c0.1,0.4,0.6,0.6,0.9,0.5
	c2-0.6,4.5-1.1,6.7-1.1c3.6,0,5.7,0.9,5.7,4.2v1.6c-9.5,0.5-18.5,2.2-18.5,10.8c0,6.4,4.7,10.2,14.2,10.2c3.3,0,6.7-0.5,9.2-1.3
	c1.6-0.5,2.6-1.9,2.6-3.5V67.8C174.9,57.2,169.2,55.1,162.2,55.2 M167.4,81.8c-0.8,0.4-2.8,0.6-4.5,0.6c-4.2,0-6.5-1.7-6.5-4.7
	c0-4.7,5.2-5.3,11-5.6V81.8z"/>
<path class="st1" d="M242.2,55.2c-3.4,0-6.7,0.7-9.3,1.5c-0.4,0.1-0.7,0.6-0.5,1l1.6,4.2c0.1,0.4,0.6,0.6,0.9,0.5
	c2.1-0.6,4.5-1.1,6.7-1.1c3.6,0,5.7,0.9,5.7,4.2v1.6c-9.5,0.5-18.5,2.2-18.5,10.8c0,6.4,4.7,10.2,14.2,10.2c3.3,0,6.7-0.5,9.2-1.3
	c1.6-0.5,2.6-1.9,2.6-3.5V67.8C254.9,57.2,249.2,55.1,242.2,55.2 M247.4,81.8c-0.8,0.4-2.8,0.6-4.5,0.6c-4.2,0-6.5-1.7-6.5-4.7
	c0-4.7,5.2-5.3,11-5.6V81.8z"/>
<path class="st0" d="M143.6,61.8c0.4,0,0.8-0.3,0.8-0.8v-4.3c0-0.4-0.4-0.8-0.8-0.8h-5.1v-7.4c0-0.4-0.3-0.8-0.8-0.8h-6.3
	c-0.4,0-0.8,0.3-0.8,0.8V78c0,6.6,2.9,10,9,10c1.6,0,3.3-0.3,4.3-0.7c0.3-0.1,0.5-0.4,0.5-0.7v-5c0-0.5-0.5-0.9-0.9-0.8
	c-0.4,0.1-0.9,0.2-1.3,0.2c-2,0-3.6-0.9-3.6-3.5V61.9L143.6,61.8L143.6,61.8z"/>
<path class="st0" d="M125.3,56.7c0-0.4-0.4-0.8-0.8-0.8c-0.5,0-2.5,0-2.5,0c-7,0-12.7,5.2-12.7,12.3v18.5c0,0.4,0.3,0.8,0.8,0.8h6.4
	c0.4,0,0.8-0.3,0.8-0.8V69.3c0-4.9,3.4-6.6,7.3-7.1c0.4,0,0.7-0.4,0.7-0.8V56.7z"/>
<path class="st1" d="M281.9,33.3l-5.3,19.4c-0.4,1.4,0.6,2.9,2.1,3.1l17.9,2.2c0.4,0,0.4,0.6,0,0.6l-18.9,1.9
	c-2,0.2-3.7,1.6-4.2,3.6l-5.9,22.1c-0.3,1,0.8,1.8,1.7,1.3L314,59.2c0.7-0.4,0.7-1.4,0.1-1.9l-30.4-24.6
	C283.1,32.2,282.1,32.5,281.9,33.3"/>
<path class="st0" d="M317.2,54.4l5.3-19.4c0.4-1.4-0.6-2.9-2.1-3.1l-17.9-2.2c-0.4,0-0.4-0.6,0-0.6l18.9-1.9c2-0.2,3.7-1.6,4.2-3.6
	l5.9-22.1c0.3-1-0.8-1.8-1.7-1.3l-44.7,28.3c-0.7,0.4-0.7,1.4-0.1,1.9L315.4,55C316,55.5,317,55.1,317.2,54.4"/>
</svg>
