<?xml version="1.0" encoding="UTF-8"?>
<!DOCTYPE svg PUBLIC "-//W3C//DTD SVG 1.1//EN" "http://www.w3.org/Graphics/SVG/1.1/DTD/svg11.dtd">
<!-- Creator: CorelDRAW X7 -->
<svg xmlns="http://www.w3.org/2000/svg" xml:space="preserve" width="8.85827in" height="4.77898in" version="1.1" style="shape-rendering:geometricPrecision; text-rendering:geometricPrecision; image-rendering:optimizeQuality; fill-rule:evenodd; clip-rule:evenodd"
viewBox="0 0 8858 4779"
 xmlns:xlink="http://www.w3.org/1999/xlink">
 <defs>
  <style type="text/css">
   <![CDATA[
    .fil0 {fill:#D60115}
   ]]>
  </style>
 </defs>
 <g id="Layer_x0020_1">
  <metadata id="CorelCorpID_0Corel-Layer"/>
  <g id="_824634064">
   <path class="fil0" d="M4676 0c813,253 1403,1011 1403,1907 0,124 -11,246 -33,365 -234,-1200 -1229,-1031 -2309,-963 -512,33 -574,-384 -227,-608 554,-359 1271,-253 1418,-233l-252 -468zm-1263 3788c-773,-275 -1327,-1014 -1327,-1881 0,-156 18,-307 52,-452 307,1132 1477,996 2006,900 819,-148 839,401 406,651 -560,324 -1313,261 -1411,273l274 509z"/>
   <path class="fil0" d="M84 4551l27 0c-1,43 10,77 34,104 23,27 61,41 114,42 43,0 83,-13 120,-38 36,-26 60,-59 70,-100 10,-37 6,-70 -14,-97 -19,-27 -57,-54 -114,-81 -45,-22 -79,-45 -105,-69 -26,-24 -43,-54 -51,-88 -8,-34 -5,-76 7,-123 14,-51 37,-98 71,-141 34,-43 78,-78 132,-103 54,-26 116,-39 186,-39 39,0 76,5 111,17 36,12 63,27 80,45 -12,21 -25,43 -39,66 -14,23 -27,45 -39,67l-20 0c-2,-32 -13,-59 -33,-81 -20,-23 -50,-34 -90,-34 -99,0 -160,45 -184,134 -13,51 14,96 82,134l87 50c64,35 104,76 119,123 14,46 14,97 0,151 -14,47 -35,88 -65,124 -29,36 -65,66 -106,91 -41,25 -84,43 -130,56 -46,12 -91,18 -135,18 -83,-3 -149,-22 -199,-58 34,-59 62,-116 84,-170zm743 209l218 -824c-90,0 -175,6 -256,20 2,-8 6,-17 10,-28 4,-12 6,-20 8,-25 1,-6 3,-16 6,-29 3,-14 5,-25 6,-34l691 0c-8,21 -16,42 -25,63 -2,22 -4,39 -6,53 -107,-14 -186,-20 -236,-20l-217 824c-12,-1 -29,-2 -52,-2 -23,-1 -40,-2 -51,-3 -11,1 -26,2 -47,3 -21,0 -37,1 -49,2zm432 0l629 -932c7,2 15,2 23,3 9,0 17,1 25,1 30,-1 48,-3 53,-4l128 932c-15,-1 -35,-2 -61,-2 -25,-1 -45,-2 -59,-3 -12,1 -30,2 -55,3 -24,1 -43,2 -55,2 -4,-92 -11,-184 -21,-277l-314 0c-8,14 -27,44 -57,91 -29,46 -51,83 -67,109 -16,26 -31,52 -44,77 -7,-1 -18,-2 -32,-2 -15,-1 -26,-2 -34,-3 -6,1 -15,2 -28,3 -14,1 -24,2 -31,2zm599 -362l-39 -311 -208 311 247 0zm321 365l243 -923 338 0c63,0 109,6 137,17 28,10 52,30 72,57 27,34 33,82 17,144 -20,74 -56,130 -108,168 -53,37 -108,63 -166,76 18,53 35,100 49,141 15,40 36,96 64,169 27,72 46,123 56,151 -43,-5 -82,-8 -118,-8 -37,0 -78,3 -126,8 -14,-46 -30,-101 -49,-165 -19,-64 -34,-114 -46,-151 -11,-36 -24,-75 -38,-116l-9 0 -114 432c-38,-5 -71,-8 -98,-8 -27,0 -62,3 -104,8zm331 -489c7,1 17,1 31,1 118,0 195,-64 231,-191 13,-48 16,-85 7,-110 -8,-25 -23,-41 -45,-49 -21,-7 -49,-11 -82,-11l-47 0 -95 360zm669 486l628 -932c7,2 15,2 23,3 9,0 17,1 25,1 31,-1 49,-3 54,-4l128 932c-15,-1 -36,-2 -61,-2 -26,-1 -46,-2 -60,-3 -12,1 -30,2 -54,3 -25,1 -43,2 -56,2 -3,-92 -10,-184 -20,-277l-314 0c-9,14 -28,44 -57,91 -29,46 -52,83 -68,109 -16,26 -30,52 -44,77 -7,-1 -18,-2 -32,-2 -14,-1 -25,-2 -33,-3 -6,1 -16,2 -29,3 -13,1 -24,2 -30,2zm598 -362l-38 -311 -208 311 246 0zm589 -558c22,2 54,5 97,9 45,-4 79,-7 101,-9l-243 923c-34,-5 -68,-8 -102,-8 -30,0 -62,3 -97,8l244 -923zm122 923l243 -923 338 0c63,0 109,6 137,17 27,10 51,30 72,57 27,34 33,82 17,144 -20,74 -56,130 -109,168 -52,37 -107,63 -165,76 18,53 34,100 49,141 15,40 36,96 64,169 27,72 46,123 56,151 -43,-5 -83,-8 -118,-8 -37,0 -79,3 -126,8 -14,-46 -30,-101 -49,-165 -20,-64 -35,-114 -46,-151 -11,-36 -24,-75 -38,-116l-9 0 -114 432c-38,-5 -71,-8 -99,-8 -27,0 -61,3 -103,8zm331 -489c7,1 17,1 31,1 118,0 195,-64 231,-191 13,-48 15,-85 7,-110 -8,-25 -23,-41 -45,-49 -21,-7 -49,-11 -82,-11l-47 0 -95 360zm598 -434c25,2 61,4 108,9 41,-4 78,-7 112,-9 -2,57 -2,110 -2,160 -1,51 0,104 0,161 1,57 1,118 2,184 1,66 1,121 1,166 36,-60 86,-142 150,-245 65,-103 114,-182 148,-238 33,-55 70,-118 108,-188 7,1 18,2 34,3 15,1 26,2 33,3 9,-1 21,-2 36,-3 16,-1 27,-2 34,-3 0,43 1,90 3,140 2,50 5,105 9,163 4,59 9,122 13,191 5,68 8,127 10,177 31,-51 63,-105 96,-162 33,-57 65,-112 95,-165 30,-53 61,-110 95,-172 33,-61 64,-119 91,-172 7,1 17,2 30,3 13,1 22,2 29,3 7,-1 18,-2 33,-3 14,-1 25,-2 33,-3 -185,288 -371,596 -558,923 -22,-5 -44,-8 -66,-8 -20,0 -43,3 -68,8 -1,-106 -6,-219 -14,-339 -8,-119 -17,-225 -27,-318 -30,49 -74,119 -131,211 -57,92 -110,178 -159,256 -48,78 -87,141 -117,190 -23,-3 -46,-5 -67,-8 -14,2 -26,3 -34,4 -7,1 -19,2 -34,4 0,-80 -1,-160 -3,-241 -1,-80 -2,-154 -4,-222 -2,-68 -5,-144 -8,-227 -3,-84 -7,-161 -11,-233zm1040 920l628 -932c7,2 15,2 23,3 9,0 17,1 25,1 31,-1 49,-3 54,-4l128 932c-15,-1 -36,-2 -61,-2 -26,-1 -46,-2 -60,-3 -12,1 -30,2 -54,3 -25,1 -43,2 -56,2 -3,-92 -10,-184 -20,-277l-314 0c-9,14 -28,44 -57,91 -29,46 -52,83 -68,109 -16,26 -30,52 -44,77 -7,-1 -18,-2 -32,-2 -14,-1 -25,-2 -33,-3 -6,1 -16,2 -29,3 -13,1 -24,2 -30,2zm598 -362l-38 -311 -209 311 247 0zm635 -23c-12,-43 -24,-87 -36,-130 -12,-44 -25,-93 -39,-146 -14,-53 -27,-102 -39,-147 -12,-44 -23,-82 -31,-112 40,6 80,9 119,9 43,0 83,-3 121,-9 6,27 14,59 22,98 9,39 17,79 26,118 8,39 16,73 23,100 6,28 14,56 23,85 22,-22 47,-51 77,-87 29,-37 55,-71 79,-104 24,-32 52,-72 86,-119 33,-47 55,-77 65,-91 25,6 44,9 58,9 15,0 39,-3 73,-9 -17,21 -45,54 -84,100 -39,47 -81,97 -125,150 -44,53 -82,98 -112,136 -30,37 -62,77 -95,120l-111 417c-10,-1 -27,-2 -50,-4 -23,-2 -40,-3 -52,-4 -34,3 -67,5 -100,8l102 -388zm501 176l26 0c-1,43 11,77 34,104 23,27 61,41 114,42 44,0 84,-13 120,-38 36,-26 60,-59 71,-100 10,-37 5,-70 -14,-97 -19,-27 -58,-54 -115,-81 -44,-22 -79,-45 -105,-69 -25,-24 -42,-54 -50,-88 -8,-34 -6,-76 7,-123 13,-51 37,-98 70,-141 34,-43 78,-78 132,-103 54,-26 116,-39 186,-39 39,0 76,5 112,17 35,12 62,27 79,45 -12,21 -25,43 -38,66 -14,23 -27,45 -40,67l-20 0c-2,-32 -13,-59 -33,-81 -20,-23 -50,-34 -89,-34 -99,0 -161,45 -184,134 -14,51 14,96 82,134l86 50c65,35 104,76 119,123 15,46 15,97 0,151 -13,47 -35,88 -64,124 -30,36 -65,66 -106,91 -41,25 -85,43 -130,56 -46,12 -91,18 -135,18 -84,-3 -150,-22 -200,-58 34,-59 63,-116 85,-170z"/>
  </g>
 </g>
</svg>
