<svg xmlns="http://www.w3.org/2000/svg" xml:space="preserve" overflow="visible" height="166.17" viewBox="0 0 250 166.1719" width="250" version="1.1" enable-background="new 0 0 36.868 24.505">
<title>Strategic Airlines: Tail Livery</title>
<path fill="#15325c" d="m59.898,132.08,0.02034-0.007,2.1903-5.7165h-0.38652c-1.3427,3.4448-3.4516,4.8756-5.113,5.4792-0.88155,0.2509-1.9326,0.23734-1.9326,0.23734l-4.618-0.007,0.01356,0.0203-26.975-0.0136c-8.117,0.88832-12.226,7.3914-13.881,10.931l-7.0383,17.47h0.013605l-2.1903,5.7h0.39331c1.3359-3.4312,3.4448-4.8621,5.1062-5.4724,0.87477-0.25091,1.9394-0.23734,1.9394-0.23734l15.746,0.007v-0.007l15.135,0.0136c9.0053-0.62387,13.277-8.056,14.79-11.521l1.8309-4.5434,0.0068,0.0204,3.2482-8.0696,1.736-4.2789-0.03391-0.007z"/>
<path fill="#15325c" d="m122.3,90.386,0,0,2.2106-5.7233-0.40009,0.0068c-1.3359,3.438-3.4448,4.8553-5.1062,5.4588-0.87477,0.26446-1.9394,0.24412-1.9394,0.24412h-4.6112v0.02034l-26.969-0.0068c-8.117,0.87477-12.226,7.3779-13.874,10.924l-7.0388,17.461h0.01356l-2.1971,5.7165h0.3933c1.3359-3.4448,3.4448-4.8756,5.0994-5.4724,0.88155-0.26446,1.9394-0.2509,1.9394-0.2509l15.739,0.007,15.149,0.007c8.9918-0.61708,13.257-8.056,14.776-11.521l1.8377-4.5298,0.007,0.0136,3.2482-8.0695,1.7224-4.2857z"/>
<path fill="#15325c" d="m184.96,48.275,0,0,2.1971-5.7301h-0.38652c-1.3359,3.438-3.4448,4.8689-5.113,5.4656-0.87477,0.25768-1.9258,0.24412-1.9258,0.24412h-4.618v0.01356l-26.969-0.01356c-8.117,0.88155-12.226,7.3847-13.881,10.931l-7.032,17.468h0.007l-2.1971,5.7165h0.39331c1.3359-3.438,3.4448-4.8689,5.1062-5.4656,0.88155-0.25768,1.9326-0.2509,1.9326-0.2509l15.732,0.01356v-0.0068h15.142c8.9986-0.6103,13.271-8.0492,14.796-11.521l1.8377-4.5434v0.02712l3.2482-8.0695,1.7292-4.2721v-0.0068z"/>
<path fill="#ec2c23" d="M247.8,5.7303v-0.01359l2.2-5.7097-0.38-0.007c-1.3359,3.438-3.4448,4.8688-5.1062,5.4588-0.88155,0.27125-1.9394,0.2509-1.9394,0.2509h-4.618l0.0136,0.007-26.975-0.007c-8.1,0.8816-12.22,7.3843-13.87,10.931l-7.0117,17.468-2.1971,5.7165h0.3933c1.3359-3.438,3.4516-4.8756,5.1062-5.4724,0.88832-0.25769,1.9394-0.25091,1.9394-0.25091l15.739,0.007-0.0136-0.0136,15.149,0.0136c8.9986-0.61031,13.271-8.0492,14.796-11.521l1.8377-4.5298v0.0136l3.2414-8.0628,1.7088-4.2789z"/>
<path fill="#2f84ad" d="m112.12,132.16,0,0,1.9733-5.1537-0.34584,0.0136c-1.207,3.0786-3.0922,4.3806-4.5976,4.9163-0.78661,0.22378-1.7495,0.22378-1.7495,0.22378l-4.1433-0.0136,0.007,0.0136h-24.267c-7.3101,0.79339-11.006,6.6387-12.498,9.8259l-6.3404,15.725h0.02034l-1.9801,5.1401h0.35262c1.2003-3.099,3.0922-4.3806,4.5908-4.9163,0.78661-0.23734,1.7428-0.23055,1.7428-0.23055h14.173l13.637,0.007c8.0899-0.5493,11.942-7.2355,13.305-10.362l1.6478-4.089v0.0203l2.9227-7.2626,1.5529-3.8585z"/>
<path fill="#2f84ad" d="m174.55,90.393,0.0136-0.02034,1.9598-5.1333h-0.34584c-1.207,3.099-3.099,4.3738-4.5976,4.9163-0.79339,0.23056-1.7495,0.217-1.7495,0.217h-4.1433v0.01356l-24.263-0.01356c-7.2965,0.79339-11.006,6.6455-12.504,9.8394l-6.3268,15.712h0.0203l-1.9869,5.1469h0.34584c1.207-3.099,3.1058-4.3806,4.5976-4.9231,0.79339-0.23056,1.7563-0.22378,1.7563-0.22378l14.159,0.007v-0.007l13.63,0.007c8.1035-0.55605,11.942-7.2422,13.311-10.368l1.641-4.0822,0.0136,0.0203,2.9159-7.2626,1.5597-3.8517-0.007,0.0068z"/>
<path fill="#2f84ad" d="m237.17,48.363,0,0,1.9869-5.1537h-0.34584c-1.2206,3.099-3.099,4.3806-4.5976,4.9231-0.79339,0.23734-1.7631,0.22378-1.7631,0.22378h-28.406c-7.3101,0.79339-10.999,6.6387-12.491,9.8259l-6.3404,15.725h0.0203l-1.9936,5.1469h0.36618c1.207-3.0922,3.099-4.3806,4.5908-4.9163,0.78661-0.23734,1.7495-0.23056,1.7495-0.23056l14.159,0.0068h0.007l13.644,0.0068c8.0899-0.55605,11.935-7.2422,13.298-10.368l1.6546-4.089v0.0068l2.9294-7.2694,1.5529-3.8449h-0.0203z"/>
<path fill="#15325c" d="m163.47,134.82,0,0,1.7902-4.6383h-0.30516c-1.085,2.7803-2.7938,3.9466-4.1433,4.4213-0.70524,0.21021-1.5664,0.20343-1.5664,0.20343h-3.7296l0.007,0.007h-21.862c-6.5709,0.70524-9.8869,5.9742-11.23,8.8494l-5.7097,14.145h0.0136l-1.7834,4.6315h0.3255c1.0782-2.787,2.7735-3.9466,4.1297-4.4213,0.70524-0.217,1.5664-0.20344,1.5664-0.20344l12.749,0.0136v-0.0136l12.274,0.0136c7.2829-0.5018,10.741-6.5167,11.975-9.3376l1.4851-3.6822,0.0203,0.0136,2.6175-6.537,1.4037-3.4719-0.0271,0.007z"/>
<path fill="#15325c" d="m225.87,93.139,0,0,1.7902-4.6451h-0.31872c-1.085,2.787-2.7803,3.9466-4.1297,4.4281-0.70523,0.21022-1.5597,0.19665-1.5597,0.19665h-3.7364l-21.856-0.01356c-6.5845,0.71202-9.9072,5.9877-11.23,8.8629l-5.7097,14.145h0.0136l-1.7902,4.6247,0.31872,0.007c1.0985-2.787,2.7938-3.9534,4.1365-4.4281,0.70524-0.20343,1.5664-0.20343,1.5664-0.20343l12.749,0.007h12.267c7.2897-0.48824,10.748-6.5167,11.982-9.3308l1.4918-3.6754v0.0136l2.6311-6.5438,1.3834-3.4448z"/>
<path fill="#2f84ad" d="m213.5,137.36v-0.0136l1.6004-4.1636h-0.28481c-0.97648,2.4955-2.509,3.5465-3.7296,3.9737-0.63743,0.19666-1.4105,0.18988-1.4105,0.18988l-3.3567-0.007v0.007l-19.652-0.007c-5.9199,0.6442-8.9036,5.3774-10.117,7.9746l-5.1265,12.728-1.6004,4.1636h0.27803c0.99004-2.5158,2.5158-3.5533,3.7364-3.9873,0.64421-0.18309,1.4173-0.18309,1.4173-0.18309l11.453,0.007,0.0136-0.007,11.033,0.007c6.5777-0.44755,9.6835-5.8657,10.782-8.395l1.3359-3.3092v0.0136l2.3802-5.886,1.2477-3.1058z"/>
</svg>
