<?xml version="1.0" encoding="UTF-8" standalone="no"?>
<!-- Created with Inkscape (http://www.inkscape.org/) -->
<svg
   xmlns:svg="http://www.w3.org/2000/svg"
   xmlns="http://www.w3.org/2000/svg"
   version="1.0"
   width="744.09448"
   height="149.52756"
   id="svg20392">
  <defs
     id="defs20394">
    <clipPath
       id="clp1313">
<path
   d="M 173.79,64.47 L 209.74,64.47 L 209.74,82.163 L 173.79,82.163 L 173.79,64.47 z "
   id="path13770" />

</clipPath>
    <clipPath
       id="clp1314">
<path
   d="M 173.79,64.47 L 209.74,64.47 L 209.74,82.163 L 173.79,82.163 L 173.79,64.47 z "
   id="path13778" />

</clipPath>
  </defs>
  <g
     transform="translate(-277.4306,-544.2131)"
     id="layer1">
    <g
       transform="matrix(1.045942,0,0,1.045942,4.970807,-12.52921)"
       id="g20607">
      <path
         d="M 954.96463,603.77402 C 954.96463,633.89491 926.68723,658.31065 891.80813,658.31065 C 856.92853,658.31065 828.65103,633.89491 828.65103,603.77402 C 828.65103,573.64061 856.92853,549.22493 891.80813,549.22493 C 926.68723,549.22493 954.96463,573.64061 954.96463,603.77402 z M 839.23953,621.31339 C 837.86903,612.74299 838.11823,609.29241 840.48543,608.86891 C 842.35373,608.53258 843.47503,611.98316 843.47503,611.98316 C 846.58923,620.2047 849.70343,625.63599 851.94543,629.38554 C 854.18813,633.13508 866.02193,651.84549 880.47213,647.80939 C 894.92233,643.76088 891.55893,629.38554 891.55893,629.38554 C 889.44093,617.6386 870.63123,607.89728 867.64163,605.90412 C 864.15363,603.58713 850.20173,595.75171 852.81763,579.4331 C 856.05643,559.78843 879.22623,553.13644 880.84593,552.53853 C 881.59343,552.27688 881.84263,552.33918 881.71803,551.97792 C 881.71803,551.7288 880.97053,551.7911 880.97053,551.7911 C 868.51313,553.82158 858.17443,559.75111 858.17443,559.75111 C 842.22913,569.55473 834.38103,581.01511 832.01443,596.31225 C 829.14943,614.63648 839.86253,628.11489 839.86253,628.11489 C 840.36083,628.58827 840.73463,628.87477 840.85923,628.75018 C 841.23243,628.43876 839.86253,625.5737 839.23953,621.31339 z M 908.00203,647.41081 C 921.58013,641.54357 929.55273,632.00148 928.68063,620.62825 C 927.80853,608.69449 914.72883,602.0425 907.87743,597.39602 C 902.14743,593.42226 891.68353,584.70236 897.91193,573.66553 C 904.38953,561.96842 918.96433,564.0612 921.45553,564.45983 C 922.57683,564.64666 923.44843,565.02038 923.57303,564.88339 C 923.82213,564.58437 923.32383,563.79962 923.32383,563.79962 C 920.95713,560.46117 912.98453,556.69916 903.64193,556.1884 C 898.41033,555.9019 884.20923,556.56211 878.35463,569.0315 C 872.87323,580.66631 886.82513,590.45753 889.31633,592.36342 C 891.80813,594.26931 902.64523,601.33245 907.37913,604.9574 C 912.11293,608.52012 916.22393,614.00118 917.84293,621.01443 C 921.95393,637.80648 906.88073,646.6883 906.88073,646.6883 C 906.13323,647.08693 906.25773,647.37343 906.38233,647.5478 C 906.88073,648.1084 908.00203,647.41081 908.00203,647.41081 z M 945.37293,627.14325 C 946.86803,624.88856 953.22093,614.56173 952.97183,600.5601 C 952.59803,586.77022 944.00243,574.35066 942.38333,572.3451 C 942.00953,571.97138 941.76033,571.82187 941.63573,571.94647 C 941.38653,572.17067 941.76033,572.93056 942.00953,573.72782 C 942.50793,575.21016 943.13083,576.92923 943.38003,579.1466 C 943.62863,582.57226 941.76033,581.05249 940.63903,579.25867 C 940.63903,579.25867 938.64613,576.04481 936.03033,573.95203 C 934.03693,572.46963 923.32383,565.39409 917.84293,573.12985 C 912.48673,580.5667 922.45223,588.63879 926.18943,591.11774 C 930.67353,594.07002 940.76363,598.87841 945.12373,608.02181 C 949.48383,617.15275 944.50073,627.18063 944.50073,627.18063 C 944.25163,627.69139 944.12703,628.07751 944.37613,628.2021 C 944.62533,628.40139 945.37293,627.14325 945.37293,627.14325"
         style="fill:#005037;fill-rule:nonzero;stroke:none"
         id="path2988" />
      <path
         d="M 304.08853,592.16413 C 295.24373,588.62633 287.02253,585.28788 287.02253,576.59289 C 287.02253,569.9409 291.88033,565.64321 299.35463,565.64321 C 311.93663,565.64321 317.04363,578.01299 319.90863,587.31836 L 320.03323,587.79169 C 320.28243,588.863 320.53163,589.97168 321.40373,589.97168 C 322.27583,589.97168 322.77363,589.34884 322.77363,588.28999 C 322.77363,586.72044 322.40043,579.09676 321.02993,565.28196 C 321.02993,564.31033 320.78083,563.51312 319.78403,563.51312 C 318.78793,563.51312 318.53873,564.3477 318.28953,565.07021 C 317.91573,565.97955 317.66663,566.82665 316.17153,566.82665 C 314.67703,566.82665 313.18193,566.20382 311.31363,565.39409 C 308.44863,564.19825 304.96063,562.69094 299.35463,562.69094 C 287.52083,562.69094 277.43073,571.89663 277.43073,582.79647 C 277.43073,596.32471 288.01923,600.33589 298.23393,604.20997 C 307.32733,607.66056 315.79773,610.91186 315.79773,620.69055 C 315.79773,626.98134 311.93663,633.69563 301.09893,633.69563 C 286.15033,633.69563 281.66563,617.67598 280.42033,608.13394 C 280.04653,605.95395 279.92193,604.82041 278.67603,604.82041 C 278.05373,604.82041 277.43073,605.20652 277.43073,606.30275 L 277.43073,634.76693 C 277.43073,636.09982 278.30233,636.24927 278.55143,636.24927 C 279.54823,636.24927 279.79733,635.52682 280.04653,634.82923 C 280.42033,633.84508 280.91873,632.72399 283.28533,632.72399 C 284.28203,632.72399 285.77653,633.25962 287.77003,633.94475 C 291.13343,635.09081 295.61753,636.66036 300.47593,636.66036 C 317.54203,636.66036 325.39003,625.10031 325.39003,614.3749 C 325.39003,600.75939 314.05403,596.18772 304.08853,592.16413"
         style="fill:#005037;fill-rule:nonzero;stroke:none"
         id="path2990" />
      <path
         d="M 610.65423,592.16413 C 601.93463,588.62633 593.58823,585.28788 593.58823,576.59289 C 593.58823,569.9409 598.44673,565.64321 605.92043,565.64321 C 618.50233,565.64321 623.73403,578.01299 626.47443,587.31836 L 626.59903,587.79169 C 626.84813,588.863 627.09733,589.97168 628.09413,589.97168 C 628.84163,589.97168 629.46463,589.34884 629.46463,588.28999 C 629.46463,586.72044 628.96623,579.09676 627.59573,565.28196 C 627.59573,564.31033 627.47113,563.51312 626.34983,563.51312 C 625.35363,563.51312 625.10453,564.3477 624.85533,565.07021 C 624.48153,565.97955 624.23233,566.82665 622.73783,566.82665 C 621.24273,566.82665 619.74763,566.20382 617.87933,565.39409 C 615.13893,564.19825 611.52643,562.69094 606.04503,562.69094 C 594.08663,562.69094 583.99653,571.89663 583.99653,582.79647 C 583.99653,596.32471 594.58493,600.33589 604.79963,604.20997 C 613.89303,607.66056 622.36403,610.91186 622.36403,620.69055 C 622.36403,626.98134 618.50233,633.69563 607.66463,633.69563 C 592.71613,633.69563 588.23203,617.67598 586.98613,608.13394 C 586.61233,605.95395 586.48773,604.82041 585.24183,604.82041 C 584.61943,604.82041 583.99653,605.20652 583.99653,606.30275 L 583.99653,634.76693 C 583.99653,636.09982 584.86863,636.24927 585.11783,636.24927 C 586.11393,636.24927 586.36313,635.52682 586.61233,634.82923 C 587.11063,633.84508 587.48443,632.72399 589.85113,632.72399 C 590.84783,632.72399 592.34233,633.25962 594.33573,633.94475 C 597.69913,635.09081 602.30783,636.66036 607.04173,636.66036 C 624.23233,636.66036 631.95583,625.10031 631.95583,614.3749 C 631.95583,600.75939 620.61983,596.18772 610.65423,592.16413"
         style="fill:#9d9d9d;fill-rule:nonzero;stroke:none"
         id="path2992" />
      <path
         d="M 809.84133,625.08785 C 809.59213,624.82627 809.21833,624.63938 808.84463,624.63938 C 808.34623,624.63938 808.09703,625.06293 807.47413,625.82282 L 806.60253,627.09342 C 804.60913,629.44778 802.61623,630.44433 800.12493,630.44433 C 795.26653,630.44433 793.39823,627.55434 793.39823,620.10509 C 793.39823,620.10509 793.39823,593.27276 793.39823,592.79943 C 793.77143,592.79943 804.35993,592.79943 804.35993,592.79943 C 804.35993,592.79943 806.35333,592.71221 806.35333,590.17097 C 806.35333,587.60486 804.23533,587.77923 804.23533,587.77923 C 804.23533,587.77923 793.77143,587.77923 793.39823,587.77923 C 793.39823,587.31836 793.39823,576.48082 793.39823,576.46836 C 793.39823,575.78322 793.02443,575.17279 792.40153,574.94858 C 791.90313,574.77421 790.90643,574.71192 789.53653,576.34377 L 788.91353,577.06628 C 786.42233,579.96872 781.31463,585.99793 773.84033,590.08381 C 773.09283,590.44507 772.71963,591.01807 772.71963,591.57861 C 772.71963,591.65337 772.71963,591.71566 772.71963,591.79042 C 772.84423,592.32604 773.34203,592.69975 773.96493,592.79943 C 773.96493,592.79943 781.06553,592.79943 781.43923,592.79943 C 781.43923,593.27276 781.43923,623.31895 781.43923,623.31895 C 781.43923,631.30389 786.79553,636.0749 795.64033,636.0749 C 805.35663,636.0749 809.96593,628.63811 810.09053,625.81036 C 810.09053,625.56124 809.96593,625.31206 809.84133,625.08785"
         style="fill:#9d9d9d;fill-rule:nonzero;stroke:none"
         id="path2994" />
      <path
         d="M 469.39213,632.40011 C 467.15003,632.12607 464.40963,631.77728 464.40963,627.84084 L 464.40963,588.71354 C 464.40963,588.71354 464.53423,587.81661 463.53743,587.41803 C 463.03913,587.20623 462.54073,587.3682 461.91843,587.61732 C 455.44083,590.12119 451.32993,591.18004 448.58953,591.90249 C 447.59273,592.16413 446.84523,592.38834 446.22223,592.60008 C 445.35013,589.04988 442.23593,586.70798 438.00103,586.70798 C 430.77593,586.70798 426.04203,593.16068 423.67543,599.72546 C 423.67543,598.61683 423.67543,591.40424 423.67543,588.26508 C 423.67543,587.43043 423.17703,587.18131 422.67863,587.16885 C 422.55403,587.16885 422.55403,587.15639 422.55403,587.15639 C 413.58523,588.19032 401.87543,588.26508 394.77493,588.17786 L 394.02803,588.1654 L 388.42203,588.04087 C 387.30063,588.04087 386.55373,588.2277 386.17993,588.62633 C 385.93073,588.83808 385.80613,589.09972 385.80613,589.41114 C 385.80613,590.5696 387.05203,590.79386 388.42203,591.05545 C 390.66463,591.51637 394.15203,592.11429 394.15203,597.67006 C 394.15203,602.60304 390.16623,609.00591 384.80943,620.88984 C 384.80943,620.88984 384.68483,621.00197 384.68483,621.06426 C 384.31103,620.09263 373.72263,597.17181 373.72263,597.17181 L 373.59863,596.98492 C 373.10023,595.62712 372.35263,594.08248 372.35263,593.43472 C 372.35263,591.57861 373.84723,591.21736 375.09313,590.88102 C 376.21443,590.60698 377.21053,590.32048 377.21053,589.18687 C 377.21053,588.09071 376.33903,587.91628 373.97173,587.91628 L 369.11393,588.02841 L 365.25213,588.12803 L 361.63963,588.04087 L 354.78823,587.80415 C 354.53913,587.76683 354.28993,587.77923 354.28993,587.77923 C 354.28993,587.77923 343.82603,587.77923 343.45223,587.77923 C 343.45223,587.31836 343.45223,576.48082 343.45223,576.46836 C 343.45223,575.78322 342.95393,575.17279 342.45613,574.94858 C 341.95773,574.77421 340.96103,574.71192 339.59053,576.34377 L 338.96813,577.06628 C 336.47633,579.96872 331.36923,585.99793 323.89493,590.08381 C 323.14743,590.44507 322.77363,591.01807 322.77363,591.57861 C 322.77363,591.65337 322.77363,591.71566 322.77363,591.79042 C 322.89823,592.32604 323.39663,592.69975 324.01953,592.79943 C 324.01953,592.79943 331.12013,592.79943 331.49383,592.79943 C 331.49383,593.27276 331.49383,623.31895 331.49383,623.31895 C 331.49383,631.30389 336.85013,636.0749 345.69493,636.0749 C 355.41123,636.0749 360.01993,628.63811 360.14453,625.81036 C 360.14453,625.56124 360.01993,625.31206 359.89593,625.08785 C 359.64673,624.82627 359.27293,624.63938 358.89923,624.63938 C 358.40083,624.63938 358.15163,625.06293 357.52873,625.82282 L 356.65653,627.09342 C 354.66373,629.44778 352.67083,630.44433 350.17903,630.44433 C 345.32113,630.44433 343.45223,627.55434 343.45223,620.10509 C 343.45223,620.10509 343.45223,593.27276 343.45223,592.79943 C 343.82603,592.79943 351.67413,592.79943 353.79153,592.79943 C 357.15493,592.69975 358.65003,593.79598 359.27293,594.58079 C 359.52213,595.14133 359.89593,595.77662 360.26913,596.53651 C 360.26913,596.53651 377.83353,635.19048 377.95813,635.37731 C 377.83353,635.56414 375.84063,639.93658 375.84063,639.93658 C 375.09313,641.23215 374.09633,641.26953 373.59863,641.19477 C 372.72643,641.05772 372.22813,640.59685 371.72973,639.87434 C 370.73303,638.27981 369.73683,636.1995 366.37343,636.1995 C 363.25933,636.1995 360.51833,639.01478 360.51833,642.75187 C 360.51833,648.1084 364.62923,650.56238 368.24173,650.54992 C 372.72643,650.53746 375.34223,647.23638 379.70233,637.88124 L 397.63993,600.68469 C 398.88583,597.69498 400.25633,595.68941 401.37713,594.31914 C 402.24923,593.49702 403.24593,592.69975 404.49133,592.36342 C 408.60223,591.21736 410.59563,593.84582 411.46723,595.71433 C 411.71643,596.74826 411.96563,597.90678 411.96563,599.21475 L 411.96563,627.82839 C 411.96563,631.77728 409.22513,632.11361 406.98313,632.40011 C 405.61263,632.57448 404.24273,632.73645 404.24273,633.93229 C 404.24273,635.05343 405.36343,635.20294 406.60933,635.20294 L 412.96233,635.10327 L 417.82073,635.0036 L 422.80323,635.10327 L 429.15623,635.20294 C 430.40213,635.20294 431.39883,635.05343 431.39883,633.93229 C 431.39883,632.73645 430.15293,632.57448 428.78243,632.40011 C 426.54043,632.11361 423.79993,631.77728 423.79993,627.82839 L 423.79993,613.12916 C 423.79993,600.26114 428.53323,595.46521 431.52343,595.46521 C 433.26713,595.46521 434.13923,596.47422 435.01143,597.65766 C 436.13213,598.95317 437.37803,600.42305 439.99383,600.42305 C 442.73433,600.42305 445.59933,598.74136 446.22223,595.57734 C 446.34683,595.61472 446.59603,595.66449 446.72063,595.70187 C 449.21183,596.39946 452.57523,597.34618 452.57523,602.16703 L 452.57523,627.84084 C 452.57523,631.77728 449.83483,632.12607 447.59273,632.40011 C 446.22223,632.57448 444.97693,632.74891 444.97693,633.94475 C 444.97693,635.06589 446.09763,635.21534 447.21903,635.21534 L 453.57193,635.10327 L 458.55503,635.01606 L 463.41293,635.10327 L 469.76583,635.21534 C 471.01173,635.21534 472.13313,635.06589 472.13313,633.94475 C 472.13313,632.74891 470.76263,632.57448 469.39213,632.40011"
         style="fill:#005037;fill-rule:nonzero;stroke:none"
         id="path2996" />
      <path
         d="M 458.18123,584.70236 C 462.29213,584.70236 465.53093,581.51341 465.53093,577.42753 C 465.53093,573.35411 462.29213,570.15265 458.18123,570.15265 C 454.07033,570.15265 450.95613,573.35411 450.95613,577.42753 C 450.95613,581.51341 454.07033,584.70236 458.18123,584.70236"
         style="fill:#005037;fill-rule:nonzero;stroke:none"
         id="path2998" />
      <path
         d="M 698.60033,584.70236 C 702.71123,584.70236 705.95003,581.51341 705.95003,577.42753 C 705.95003,573.35411 702.71123,570.15265 698.60033,570.15265 C 694.48933,570.15265 691.37523,573.35411 691.37523,577.42753 C 691.37523,581.51341 694.48933,584.70236 698.60033,584.70236"
         style="fill:#9d9d9d;fill-rule:nonzero;stroke:none"
         id="path3000" />
      <path
         d="M 775.33543,632.40011 C 773.09283,632.12607 770.35243,631.77728 770.35243,627.84084 L 770.35243,588.71354 C 770.35243,588.71354 770.47703,587.81661 769.48083,587.41803 C 768.98253,587.20623 768.35953,587.3682 767.73663,587.61732 C 761.38363,590.12119 757.27273,591.18004 754.53233,591.90249 C 753.41093,592.20151 752.53883,592.42571 751.91643,592.66238 C 751.04433,589.0748 747.93013,586.70798 743.69463,586.70798 C 736.46953,586.70798 731.73623,593.16068 729.36903,599.72546 C 729.36903,598.61683 729.36903,591.40424 729.36903,588.26508 C 729.36903,586.8076 727.87453,587.13147 727.25153,587.41803 C 719.77723,590.60698 714.91933,591.37932 712.30293,591.81533 C 710.31013,592.15167 709.31333,592.30112 709.31333,593.14822 C 709.31333,594.31914 710.55923,594.6804 712.05383,595.09149 C 714.54563,595.80154 717.65983,596.6735 717.65983,601.53173 L 717.65983,627.82839 C 717.65983,631.77728 714.91933,632.11361 712.67673,632.40011 C 712.55213,632.41257 712.42753,632.42503 712.42753,632.43749 L 712.30293,632.43749 C 711.30683,632.56202 710.55923,632.49973 710.31013,632.48727 C 710.18553,632.44995 709.93633,632.42503 709.81173,632.40011 C 707.56963,632.12607 704.82863,631.77728 704.82863,627.84084 L 704.82863,588.71354 C 704.82863,588.71354 704.95323,587.81661 703.95713,587.41803 C 703.45873,587.20623 702.96043,587.3682 702.33743,587.61732 C 695.85983,590.12119 691.74893,591.18004 689.00853,591.90249 C 686.01893,592.71221 684.64843,593.04855 684.64843,594.19461 C 684.64843,595.04166 685.76973,595.32816 687.14023,595.70187 C 689.63153,596.39946 692.99483,597.34618 692.99483,602.16703 L 692.99483,627.84084 C 692.99483,631.77728 690.25443,632.12607 688.01183,632.40011 C 686.64193,632.57448 685.27143,632.74891 685.27143,633.94475 C 685.27143,635.06589 686.39273,635.21534 687.63803,635.21534 L 693.99163,635.10327 L 698.97403,635.01606 L 703.83253,635.10327 L 710.18553,635.21534 C 710.43473,635.21534 710.55923,635.21534 710.68383,635.20294 L 711.92923,635.20294 C 712.05383,635.20294 712.17833,635.20294 712.30293,635.20294 L 712.80133,635.20294 L 718.65593,635.10327 L 723.51443,635.0036 L 728.49743,635.10327 L 734.85043,635.20294 C 736.09573,635.20294 737.21703,635.05343 737.21703,633.93229 C 737.21703,632.73645 735.84653,632.57448 734.47663,632.40011 C 732.23403,632.11361 729.49363,631.77728 729.49363,627.82839 L 729.49363,613.12916 C 729.49363,600.26114 734.22743,595.46521 737.21703,595.46521 C 738.96073,595.46521 739.83293,596.47422 740.82963,597.65766 C 741.82633,598.95317 743.07163,600.42305 745.68753,600.42305 C 748.42853,600.42305 751.41813,598.71645 751.91643,595.5275 C 752.16563,595.57734 752.29023,595.63957 752.53883,595.70187 C 755.03063,596.39946 758.51863,597.34618 758.51863,602.16703 L 758.51863,627.84084 C 758.51863,631.77728 755.77823,632.12607 753.53553,632.40011 C 752.16563,632.57448 750.79513,632.74891 750.79513,633.94475 C 750.79513,635.06589 751.91643,635.21534 753.16183,635.21534 L 759.51473,635.10327 L 764.37323,635.01606 L 769.35623,635.10327 L 775.70923,635.21534 C 776.95453,635.21534 777.95133,635.06589 777.95133,633.94475 C 777.95133,632.74891 776.70543,632.57448 775.33543,632.40011"
         style="fill:#9d9d9d;fill-rule:nonzero;stroke:none"
         id="path3002" />
      <path
         d="M 764.12403,584.70236 C 768.23493,584.70236 771.34913,581.51341 771.34913,577.42753 C 771.34913,573.35411 768.23493,570.15265 764.12403,570.15265 C 760.01313,570.15265 756.77433,573.35411 756.77433,577.42753 C 756.77433,581.51341 760.01313,584.70236 764.12403,584.70236"
         style="fill:#9d9d9d;fill-rule:nonzero;stroke:none"
         id="path3004" />
      <path
         d="M 666.96003,586.70798 C 660.73103,586.70798 655.99783,589.34884 650.01863,593.92051 C 650.01863,593.35997 650.01863,590.32048 650.01863,588.32737 C 650.01863,587.75437 649.52023,587.49273 649.52023,587.49273 C 649.27103,587.34328 648.77263,587.26852 648.39893,587.34328 C 648.39893,587.34328 648.39893,587.34328 648.39893,587.34328 C 648.14973,587.39311 647.77593,587.49273 647.52673,587.61732 C 641.04923,590.12119 636.93833,591.18004 634.19783,591.90249 C 633.69953,592.06446 633.07653,592.20151 632.57873,592.3385 C 631.20823,592.69975 630.33613,593.03609 630.08693,593.60909 C 630.08693,593.64647 629.96233,593.67139 629.96233,593.70877 C 629.96233,593.73368 629.96233,593.74614 629.96233,593.77106 C 629.96233,593.90811 629.96233,594.0451 629.96233,594.19461 C 629.96233,594.30669 629.96233,594.40636 629.96233,594.49357 C 630.21153,595.20362 631.08373,595.46521 632.32963,595.76417 C 634.82083,596.39946 638.18423,597.28394 638.18423,602.66534 L 638.18423,643.4993 C 638.18423,647.43573 635.44383,647.78447 633.20113,648.05857 C 631.83123,648.23294 630.58533,648.40736 630.58533,649.6032 C 630.58533,650.72435 631.58203,650.8738 632.82793,650.8738 L 639.18093,650.76172 L 644.16343,650.67451 L 649.14643,650.76172 L 655.37483,650.8738 C 656.49613,650.8738 657.11853,650.73681 657.36773,650.40047 C 657.61693,650.20112 657.74143,649.93954 657.74143,649.6032 C 657.74143,648.40736 656.37153,648.23294 655.00103,648.05857 C 652.75903,647.78447 650.01863,647.43573 650.01863,643.4993 C 650.01863,643.4993 650.01863,635.38977 650.01863,634.84169 C 650.39173,634.90392 651.01473,635.01606 651.01473,635.01606 C 653.75513,635.5019 655.62403,635.82578 658.23983,635.82578 C 675.67963,635.82578 684.89763,621.96114 684.89763,608.25848 C 684.89763,595.16625 677.79713,586.70798 666.96003,586.70798 z M 658.48903,632.87344 C 653.00823,632.87344 650.01863,628.36407 650.01863,620.16739 C 650.01863,620.16739 650.01863,597.62028 650.01863,597.39602 C 653.38193,594.28177 656.86993,592.5627 659.73493,592.5627 C 666.08793,592.5627 672.93923,597.3711 672.93923,610.84956 C 672.93923,621.50027 669.20213,632.87344 658.48903,632.87344"
         style="fill:#9d9d9d;fill-rule:nonzero;stroke:none"
         id="path3006" />
      <path
         d="M 571.78833,632.40011 C 569.67083,632.11361 566.93043,631.77728 566.93043,627.82839 L 566.93043,598.52962 C 566.93043,590.90594 562.57033,586.70798 554.84683,586.70798 C 548.24473,586.70798 543.51143,589.32392 536.16173,594.7427 L 536.16173,588.71354 C 536.16173,588.71354 536.16173,587.80415 535.28963,587.41803 C 534.79123,587.19377 534.16833,587.35574 533.54593,587.60486 C 527.19293,590.10873 523.08203,591.16758 520.34163,591.89003 C 517.22683,592.69975 515.98153,593.03609 515.98153,594.18215 C 515.98153,595.0292 517.10223,595.3157 518.34813,595.68941 C 520.83943,596.387 524.32733,597.33372 524.32733,602.15457 L 524.32733,627.11833 C 524.32733,630.12045 522.70823,631.44094 520.96393,632.0264 C 516.23073,633.20978 514.11263,631.36618 514.11263,631.36618 C 512.11973,630.05821 511.74603,627.65402 511.74603,626.27129 L 511.74603,599.75038 C 511.74603,591.36686 507.51053,587.29344 498.91543,587.29344 C 486.33353,587.29344 473.75223,594.65548 473.37843,601.51927 C 473.12923,604.68336 475.12273,606.58925 478.73523,606.7886 C 483.71773,607.05018 485.58653,603.49992 486.70733,598.7289 C 488.07783,592.82435 492.06413,590.27064 496.17503,590.25818 C 498.66633,590.24572 499.91163,591.40424 499.91163,593.74614 C 499.91163,593.74614 499.91163,605.35603 499.91163,605.69237 C 481.84943,611.26065 471.51013,617.5763 471.51013,626.96888 C 471.51013,632.71153 475.87023,636.4237 482.72153,636.4237 C 489.32373,636.4237 495.05373,632.84852 500.28543,629.1239 C 501.15753,633.14754 502.65263,636.4237 509.25473,636.4237 C 513.98803,636.4237 518.72193,635.5019 522.70823,635.14065 L 525.19953,635.09081 L 530.18253,635.0036 L 535.16503,635.09081 L 541.51793,635.20294 C 542.63933,635.20294 543.76063,635.05343 543.76063,633.93229 C 543.76063,632.73645 542.51473,632.57448 541.01963,632.40011 C 538.90213,632.11361 536.16173,631.77728 536.16173,627.82839 L 536.16173,598.2182 C 537.53163,596.98492 543.63603,591.93987 548.74313,591.93987 C 551.85723,591.93987 554.97143,594.16969 554.97143,598.42994 L 554.97143,627.82839 C 554.97143,631.77728 552.23103,632.11361 550.11363,632.40011 C 548.74313,632.57448 547.37313,632.73645 547.37313,633.93229 C 547.37313,635.05343 548.49393,635.20294 549.61523,635.20294 L 555.96823,635.10327 L 560.95123,635.0036 L 565.93373,635.10327 L 572.28673,635.20294 C 573.40803,635.20294 574.52933,635.05343 574.52933,633.93229 C 574.52933,632.73645 573.15883,632.57448 571.78833,632.40011 z M 499.91163,625.99719 C 499.66303,626.69478 493.80783,631.81459 488.70073,631.81459 C 483.59313,631.81459 483.34393,625.02556 483.34393,623.65529 C 483.34393,616.86625 489.44833,612.07032 499.91163,608.27094 C 499.91163,608.91875 499.91163,625.89758 499.91163,625.99719"
         style="fill:#005037;fill-rule:nonzero;stroke:none"
         id="path3008" />
    </g>
  </g>
</svg>
