<?xml version="1.0" encoding="UTF-8" standalone="no"?>
<!-- Created with Inkscape (http://www.inkscape.org/) -->

<svg
   xmlns:dc="http://purl.org/dc/elements/1.1/"
   xmlns:cc="http://creativecommons.org/ns#"
   xmlns:rdf="http://www.w3.org/1999/02/22-rdf-syntax-ns#"
   xmlns:svg="http://www.w3.org/2000/svg"
   xmlns="http://www.w3.org/2000/svg"
   xmlns:sodipodi="http://sodipodi.sourceforge.net/DTD/sodipodi-0.dtd"
   xmlns:inkscape="http://www.inkscape.org/namespaces/inkscape"
   version="1.1"
   id="svg2"
   xml:space="preserve"
   width="270"
   height="100"
   viewBox="0 0 270 99.999998"
   sodipodi:docname="Sun D'or.svg"
   inkscape:version="0.92.3 (2405546, 2018-03-11)"><metadata
     id="metadata8"><rdf:RDF><cc:Work
         rdf:about=""><dc:format>image/svg+xml</dc:format><dc:type
           rdf:resource="http://purl.org/dc/dcmitype/StillImage" /><dc:title></dc:title></cc:Work></rdf:RDF></metadata><defs
     id="defs6"><clipPath
       clipPathUnits="userSpaceOnUse"
       id="clipPath138"><path
         d="m 216.387,729.584 h 162.501 v 60.809 H 216.387 Z"
         id="path136"
         inkscape:connector-curvature="0" /></clipPath><clipPath
       clipPathUnits="userSpaceOnUse"
       id="clipPath178"><path
         d="m 262.431,733.553 72.501,-0.072 0.009,7.485 -72.503,0.073 z"
         id="path176"
         inkscape:connector-curvature="0" /></clipPath></defs><sodipodi:namedview
     pagecolor="#ffffff"
     bordercolor="#666666"
     borderopacity="1"
     objecttolerance="10"
     gridtolerance="10"
     guidetolerance="10"
     inkscape:pageopacity="0"
     inkscape:pageshadow="2"
     inkscape:window-width="1366"
     inkscape:window-height="705"
     id="namedview4"
     showgrid="false"
     fit-margin-top="0"
     fit-margin-left="0"
     fit-margin-right="0"
     fit-margin-bottom="0"
     inkscape:zoom="3.3638598"
     inkscape:cx="193.26628"
     inkscape:cy="72.772384"
     inkscape:window-x="-8"
     inkscape:window-y="-8"
     inkscape:window-maximized="1"
     inkscape:current-layer="g10" /><g
     id="g10"
     inkscape:groupmode="layer"
     inkscape:label="Credit_statement_form-HE"
     transform="matrix(1.3333333,0,0,-1.3333333,-288.51613,1072.7786)"><g
       id="g132"
       transform="matrix(1.2333701,0,0,1.2333701,-49.460149,-170.26312)"><g
         id="g134"
         clip-path="url(#clipPath138)"><g
           id="g140"
           transform="translate(354.738,765.0839)"><path
             d="m 0,0 c 0,8.589 -6.208,10.154 -9.883,10.154 -5.723,0 -13.228,-2.7 -15.067,-13.877 -0.268,-1.621 -0.324,-3.08 -0.324,-4.433 0,-6.749 3.567,-10.474 9.884,-10.474 7.181,0 13.501,3.834 15.119,14.362 C -0.051,-2.755 0,-1.191 0,0 m -6.697,-0.268 c 0,-1.242 -0.051,-2.698 -0.325,-4.322 -0.971,-5.615 -3.458,-9.292 -7.396,-9.292 -3.293,0 -4.266,2.489 -4.266,5.726 0,1.46 0.106,3.188 0.377,4.754 0.917,5.184 3.458,8.803 7.399,8.803 3.026,0 4.211,-2.213 4.211,-5.669"
             style="fill:#e51635;fill-opacity:1;fill-rule:nonzero;stroke:none"
             id="path142"
             inkscape:connector-curvature="0" /></g><g
           id="g144"
           transform="translate(352.7937,790.3944)"><path
             d="m 0,0 c 0,0 -0.473,-2.686 -0.943,-5.358 -0.533,-3.026 -1.215,-4.834 -5.117,-4.834 h -3.565 c -8.712,0 -10.948,-5.668 -10.948,-5.668 0.436,2.661 1.174,7.12 1.541,9.217 0.671,3.789 3.298,6.643 8.987,6.643 z"
             style="fill:#2cb9f1;fill-opacity:1;fill-rule:nonzero;stroke:none"
             id="path146"
             inkscape:connector-curvature="0" /></g><g
           id="g148"
           transform="translate(292.6252,775.2457)"><path
             d="m 0,0 c -9.512,0 -14.587,-5.9 -15.706,-12.235 -0.911,-5.175 -2.792,-16.463 -2.792,-16.463 0,0 6.403,-0.263 7.163,4.363 0.893,5.443 2.443,14.147 2.443,14.147 0.457,2.601 2.256,5.201 6.279,5.201 3.631,0 4.069,-2.438 3.489,-5.743 l -3.191,-17.968 c 0,0 6.402,-0.263 7.162,4.363 L 7.262,-9.54 C 8.386,-3.143 5.594,0 0,0"
             style="fill:#e51635;fill-opacity:1;fill-rule:nonzero;stroke:none"
             id="path150"
             inkscape:connector-curvature="0" /></g><g
           id="g152"
           transform="translate(372.1556,775.2386)"><path
             d="m 0,0 c -7.191,0 -12.711,-3.92 -13.831,-10.667 -0.861,-5.182 -3.045,-17.347 -3.045,-17.347 0,0 6.402,-0.261 7.162,4.366 0.894,5.441 2.309,13.466 2.309,13.466 0.46,2.601 2.28,5.201 6.28,5.201 1.382,0 1.71,-0.265 2.823,-0.265 2.59,0 4.325,2.255 5.036,3.397 C 6.734,-1.849 4.299,0 0,0"
             style="fill:#e51635;fill-opacity:1;fill-rule:nonzero;stroke:none"
             id="path154"
             inkscape:connector-curvature="0" /></g><g
           id="g156"
           transform="translate(330.626,787.0123)"><path
             d="m 0,0 c 0,0 -6.403,0.263 -7.165,-4.362 l -1.456,-8.62 c 0,0 -1.935,0.986 -4.641,0.986 -9.675,0 -15.521,-7.772 -15.521,-18.466 0,-5.614 2.527,-10.096 8.753,-10.096 9.511,0 14.106,5.878 15.226,12.214 z m -9.619,-17.701 -2.102,-12.047 c -0.509,-2.911 -2.878,-5.383 -5.88,-5.383 -3.243,0 -4.602,2.226 -4.602,5.683 0,7.131 3.574,12.654 9.785,12.654 0.802,0 1.671,-0.102 2.425,-0.325 0.41,-0.121 0.374,-0.582 0.374,-0.582"
             style="fill:#e51635;fill-opacity:1;fill-rule:nonzero;stroke:none"
             id="path158"
             inkscape:connector-curvature="0" /></g><g
           id="g160"
           transform="translate(256.8702,746.5474)"><path
             d="m 0,0 c -5.594,0 -8.39,3.146 -7.262,9.54 0,0 1.573,8.51 2.314,13.02 0.738,4.508 7.26,6.14 7.26,6.14 L -0.873,10.731 C -1.456,7.427 -1.02,4.99 2.613,4.99 c 4.023,0 5.823,2.6 6.279,5.2 0,0 1.376,6.912 2.153,12.369 0.869,6.139 7.461,6.141 7.461,6.141 0,0 -1.889,-11.287 -2.803,-16.466 C 14.585,5.898 9.511,0 0,0"
             style="fill:#e51635;fill-opacity:1;fill-rule:nonzero;stroke:none"
             id="path162"
             inkscape:connector-curvature="0" /></g><g
           id="g164"
           transform="translate(342.4487,742.6545)"><path
             d="m 0,0 h -87.125 c -5.33,0 -7.793,-2.675 -8.421,-6.226 -0.271,-1.544 -1.15,-6.845 -1.15,-6.845 0,0 1.907,3.52 8.997,3.52 h 45.434 42.657 c 5.331,0 7.793,2.676 8.42,6.226 0.346,1.963 1.036,6.142 1.447,8.635 C 10.259,5.31 8.161,0 0,0"
             style="fill:#2cb9f1;fill-opacity:1;fill-rule:nonzero;stroke:none"
             id="path166"
             inkscape:connector-curvature="0" /></g><g
           id="g168"
           transform="translate(216.3871,754.4102)"><path
             d="m 0,0 c 0,0 3.072,3.136 7.039,0.666 2.021,-1.26 3.063,-3.472 8.307,-3.472 5.575,0 8.13,3.619 8.13,7.678 0,2.921 -1.585,5.884 -3.048,8.967 -1.24,2.623 -2.393,5.333 -2.393,8.179 0,5.226 4.711,10.759 13.014,10.759 4.899,0 8.121,-2.361 9.181,-3.243 0,0 -1.481,-2.766 -3.631,-2.766 -2.046,0 -2.814,1.382 -6.244,1.382 -3.247,0 -5.403,-3.403 -5.403,-5.984 0,-2.27 0.849,-4.399 1.879,-6.526 1.595,-3.296 3.627,-6.591 3.627,-10.422 0,-7.836 -5.292,-13.205 -16.388,-13.205 C 6.461,-7.987 1.706,-3.04 0,0"
             style="fill:#e51635;fill-opacity:1;fill-rule:nonzero;stroke:none"
             id="path170"
             inkscape:connector-curvature="0" /></g></g></g><g
       id="g172"
       transform="matrix(1.2333701,0,0,1.2333701,-49.460149,-170.26312)"><g
         id="g174"
         clip-path="url(#clipPath178)"><g
           id="g180"
           transform="translate(334.0396,737.4363)"><path
             d="m 0,0 v 0.372 l 0.002,1.3 c 0,1.011 -0.581,1.403 -1.394,1.403 L -2.04,3.077 c -0.381,0 -0.669,-0.191 -1.003,-0.496 -0.059,0.066 -0.171,0.219 -0.268,0.316 l -0.171,0.18 C -3.586,3.174 -3.702,3.174 -3.836,3.049 L -4.256,2.66 C -4.313,2.611 -4.361,2.552 -4.361,2.496 c 0,-0.058 0.048,-0.115 0.105,-0.181 l 0.219,-0.259 c 0.086,-0.104 0.132,-0.227 0.132,-0.372 l -0.001,-2.98 c 0,-0.171 0.018,-0.199 0.17,-0.2 h 0.688 c 0.153,0 0.182,0.028 0.182,0.2 l 0.003,3.226 c 0.088,0.136 0.296,0.202 0.554,0.202 L -1.678,2.13 c 0.419,0 0.648,-0.181 0.648,-0.668 L -1.031,0.374 v -0.412 c 0,-0.421 -0.182,-0.599 -0.651,-0.599 -0.114,0 -0.296,0.017 -0.438,0.027 -0.153,0.011 -0.212,0 -0.212,-0.161 v -0.43 c 0,-0.152 0,-0.171 0.154,-0.229 0.152,-0.058 0.496,-0.115 0.81,-0.115 C -0.499,-1.547 0,-1.002 0,0 m -5.138,0.597 c 0.633,1.27 0.033,2.463 -1.382,2.464 L -7.465,3.063 H -8.8 c -0.153,0 -0.192,-0.037 -0.192,-0.191 L -8.993,2.329 c 0,-0.162 0.04,-0.2 0.19,-0.2 l 2.332,-0.003 c 0.525,0 0.753,-0.487 0.505,-0.984 l -1.148,-2.301 c -0.088,-0.171 -0.097,-0.334 0.048,-0.334 h 0.772 c 0.134,0 0.163,0.105 0.23,0.238 z m -2.667,-3.912 0.004,4.277 c 0,0.134 -0.018,0.183 -0.16,0.183 H -8.382 C -8.507,1.145 -8.563,1.079 -8.593,0.991 -8.718,0.668 -8.823,0.4 -8.823,0.094 l -0.003,-3.409 c 0,-0.171 0.037,-0.199 0.191,-0.199 l 0.65,-0.002 c 0.152,0 0.18,0.03 0.18,0.201 m -1.753,2.541 c 0,0.144 -0.048,0.201 -0.182,0.201 h -0.277 l 0.002,2.283 c 0.002,1.088 -0.544,1.404 -1.632,1.404 -0.494,0 -1.173,-0.054 -1.45,-0.123 -0.114,-0.028 -0.125,-0.114 -0.125,-0.257 V 2.313 c 0,-0.151 0.028,-0.209 0.182,-0.191 0.295,0.039 0.772,0.059 1.077,0.056 0.716,0 0.918,-0.086 0.918,-0.553 l -0.002,-2.178 -2.13,0.002 c -0.153,0 -0.191,-0.028 -0.191,-0.189 v -0.564 c 0,-0.152 0.038,-0.183 0.191,-0.183 l 3.455,-0.003 c 0.116,0 0.164,0.048 0.164,0.2 z m -4.527,-0.491 0.005,4.105 c 0,0.171 0.01,0.229 -0.191,0.229 h -0.658 c -0.153,0 -0.192,-0.077 -0.194,-0.226 l -0.003,-4.108 c 0,-0.171 0.037,-0.219 0.191,-0.219 h 0.65 c 0.152,0 0.2,0.046 0.2,0.219 m -1.847,4.202 c 0,0.135 -0.049,0.135 -0.171,0.135 h -0.707 c -0.153,0 -0.191,-0.161 -0.24,-0.306 l -0.317,-1.05 c -0.115,-0.352 -0.278,-0.831 -0.354,-0.974 -0.209,0.201 -0.477,0.67 -0.676,1.167 l -0.383,0.935 c -0.066,0.153 -0.122,0.23 -0.255,0.23 l -0.708,0.001 c -0.153,0 -0.201,-0.106 -0.142,-0.249 l 0.37,-0.964 c 0.277,-0.735 0.803,-1.309 1.297,-1.739 0.248,-0.209 0.602,-0.469 0.802,-0.583 0.029,-0.02 0.046,-0.011 0.039,-0.049 0,-0.036 -0.03,-0.036 -0.068,-0.036 l -2.09,0.002 c -0.144,0 -0.182,-0.039 -0.182,-0.202 l -0.002,-0.562 c 0,-0.154 0.028,-0.174 0.21,-0.174 l 3.124,-10e-4 c 0.18,0 0.208,0.094 0.208,0.247 l 0.003,0.487 c 0,0.163 -0.097,0.249 -0.181,0.326 l -0.907,0.774 c 0.563,0.419 0.792,0.724 0.954,1.278 l 0.319,1.059 c 0.018,0.029 0.057,0.202 0.057,0.248 m -7.262,-4.174 0.003,3.418 h 0.823 c 0.553,-0.003 0.801,-0.155 0.801,-0.66 l -0.002,-1.595 -0.003,-1.183 c 0,-0.173 0.02,-0.222 0.182,-0.222 h 0.68 c 0.16,0 0.18,0.049 0.18,0.22 v 1.185 l 0.003,1.593 c 0.002,1.175 -0.543,1.576 -1.802,1.576 -0.611,0.003 -1.767,-0.015 -2.217,-0.081 -0.161,-0.029 -0.143,-0.088 -0.143,-0.23 V 2.335 c 0,-0.152 0.048,-0.173 0.191,-0.173 h 0.276 l -0.002,-2.711 h -0.611 c -0.154,0 -0.192,-0.039 -0.192,-0.199 v -0.536 c 0,-0.152 0.018,-0.191 0.171,-0.191 l 1.425,-10e-4 c 0.198,0 0.237,0.028 0.237,0.239"
             style="fill:#ffffff;fill-opacity:1;fill-rule:nonzero;stroke:none"
             id="path182"
             inkscape:connector-curvature="0" /></g><g
           id="g184"
           transform="translate(297.9688,737.0638)"><path
             d="M 0,0 6.99,-0.006 C 7.117,-0.008 7.173,-0.111 7.113,-0.237 L 6.819,-0.868 C 6.759,-0.994 6.608,-1.099 6.481,-1.099 l -6.99,0.009 c -0.127,0 -0.182,0.102 -0.122,0.229 l 0.294,0.632 C -0.277,-0.103 -0.126,0 0,0"
             style="fill:#ffffff;fill-opacity:1;fill-rule:nonzero;stroke:none"
             id="path186"
             inkscape:connector-curvature="0" /></g><g
           id="g188"
           transform="translate(262.0858,736.1958)"><path
             d="m 0,0 0.004,3.212 c 0,0.654 0.523,1.187 1.172,1.201 L 4.49,4.411 c 0.104,0 0.186,-0.084 0.186,-0.189 V 3.449 C 4.676,3.381 4.621,3.326 4.552,3.326 L 1.368,3.331 C 1.27,3.331 1.191,3.251 1.191,3.154 V 2.795 c 0,-0.094 0.074,-0.172 0.171,-0.177 L 4.253,2.617 c 0.095,0 0.174,-0.08 0.174,-0.177 V 1.781 C 4.427,1.684 4.348,1.604 4.25,1.604 L 1.365,1.607 C 1.267,1.607 1.188,1.529 1.188,1.43 V 1.08 c 0,-0.098 0.079,-0.178 0.177,-0.178 L 4.627,0.899 c 0.084,0 0.117,-0.03 0.08,-0.106 C 4.56,0.483 4.456,0.266 4.336,0.022 4.248,-0.165 4.17,-0.191 4.09,-0.191 L 0.188,-0.188 C 0.085,-0.188 0,-0.105 0,0"
             style="fill:#ffffff;fill-opacity:1;fill-rule:nonzero;stroke:none"
             id="path190"
             inkscape:connector-curvature="0" /></g><g
           id="g192"
           transform="translate(270.2265,739.7072)"><path
             d="m 0,0 0.002,1.51 c 0,0.103 0.084,0.188 0.187,0.188 L 0.927,1.696 c 0.103,0 0.187,-0.083 0.187,-0.188 V 1.062 C 1.119,0.968 1.195,0.893 1.29,0.893 c 0,0 2.427,-0.002 2.52,-0.002 0.786,0 1.14,-0.865 0.855,-1.476 C 4.58,-0.766 3.238,-3.611 3.238,-3.611 3.204,-3.679 3.156,-3.709 3.066,-3.709 H 2.162 c -0.233,0 -0.279,0.121 -0.201,0.287 0,0 1.402,2.976 1.428,3.028 0.06,0.126 -0.063,0.203 -0.181,0.203 l -3.02,0.002 C 0.085,-0.188 0,-0.105 0,0"
             style="fill:#ffffff;fill-opacity:1;fill-rule:nonzero;stroke:none"
             id="path194"
             inkscape:connector-curvature="0" /></g><g
           id="g196"
           transform="translate(267.3309,736.1909)"><path
             d="m 0,0 0.004,4.228 c 0,0.103 0.085,0.188 0.19,0.188 L 0.903,4.413 C 1.005,4.413 1.09,4.331 1.09,4.226 L 1.087,1.07 C 1.09,0.977 1.168,0.902 1.264,0.902 L 4.322,0.899 c 0.085,0 0.12,-0.031 0.083,-0.106 L 4.036,0.022 C 3.945,-0.165 3.866,-0.191 3.785,-0.191 L 0.188,-0.188 C 0.085,-0.188 0,-0.105 0,0"
             style="fill:#ffffff;fill-opacity:1;fill-rule:nonzero;stroke:none"
             id="path198"
             inkscape:connector-curvature="0" /></g><g
           id="g200"
           transform="translate(277.6814,735.9933)"><path
             d="m 0,0 -3.208,0.004 c -0.234,-0.002 -0.28,0.119 -0.201,0.287 0,0 0.289,0.614 0.326,0.691 0.035,0.074 0.074,0.112 0.191,0.112 l 1.773,-0.001 c 0,0 -0.719,3.194 -0.743,3.297 -0.025,0.114 0.067,0.214 0.184,0.214 l 0.844,-0.002 c 0.081,0 0.177,-0.054 0.194,-0.126 C -0.625,4.411 0.086,1.205 0.099,1.145 0.133,0.999 0.179,0.988 0.245,1.136 0.263,1.176 1.673,4.436 1.699,4.498 1.728,4.56 1.784,4.601 1.861,4.601 L 2.828,4.598 C 2.955,4.598 3.04,4.447 2.975,4.302 2.918,4.176 1.545,1.107 1.507,1.02 1.127,0.177 0.714,0 0,0"
             style="fill:#ffffff;fill-opacity:1;fill-rule:nonzero;stroke:none"
             id="path202"
             inkscape:connector-curvature="0" /></g><g
           id="g204"
           transform="translate(284.9697,736.1735)"><path
             d="m 0,0 0.004,4.226 c 0,0.105 0.085,0.19 0.19,0.187 H 0.903 C 1.005,4.413 1.09,4.328 1.09,4.226 L 1.087,1.07 C 1.093,0.976 1.168,0.902 1.264,0.902 L 4.322,0.899 c 0.085,0 0.12,-0.031 0.081,-0.106 L 4.036,0.022 C 3.945,-0.165 3.866,-0.191 3.785,-0.191 L 0.188,-0.188 C 0.085,-0.188 0,-0.105 0,0"
             style="fill:#ffffff;fill-opacity:1;fill-rule:nonzero;stroke:none"
             id="path206"
             inkscape:connector-curvature="0" /></g><g
           id="g208"
           transform="translate(283.1742,739.4027)"><path
             d="m 0,0 c 0,0.097 -0.078,0.177 -0.177,0.177 h -0.509 c -0.107,0 -0.161,-0.032 -0.19,-0.091 C -0.891,0.052 -1.65,-1.556 -1.65,-1.556 l 1.471,-0.003 c 0.094,0 0.171,0.072 0.177,0.165 z m 1.084,-3.223 c 0,-0.106 -0.086,-0.192 -0.195,-0.192 H 0.153 c -0.107,0 -0.193,0.086 -0.193,0.195 v 0.642 l -2.09,10e-4 -0.257,-0.546 c -0.108,-0.228 -0.19,-0.291 -0.362,-0.291 l -0.616,0.003 c -0.234,0 -0.28,0.122 -0.201,0.289 l 1.705,3.651 c 0.194,0.413 0.582,0.659 0.962,0.659 L 0.896,1.187 c 0.106,0 0.192,-0.088 0.192,-0.196 z"
             style="fill:#ffffff;fill-opacity:1;fill-rule:nonzero;stroke:none"
             id="path210"
             inkscape:connector-curvature="0" /></g><g
           id="g212"
           transform="translate(287.8686,739.6895)"><path
             d="m 0,0 0.002,1.51 c 0,0.103 0.084,0.188 0.187,0.188 H 0.927 C 1.03,1.696 1.114,1.613 1.114,1.508 V 1.062 C 1.119,0.97 1.195,0.893 1.291,0.893 c 0,0 2.426,-0.002 2.519,-0.002 0.786,0 1.142,-0.865 0.855,-1.476 C 4.58,-0.765 3.238,-3.608 3.238,-3.608 3.204,-3.679 3.156,-3.709 3.066,-3.709 H 2.162 c -0.233,0 -0.279,0.121 -0.201,0.287 0,0 1.404,2.976 1.428,3.028 0.06,0.126 -0.063,0.203 -0.181,0.203 l -3.02,0.003 C 0.085,-0.188 0,-0.105 0,0"
             style="fill:#ffffff;fill-opacity:1;fill-rule:nonzero;stroke:none"
             id="path214"
             inkscape:connector-curvature="0" /></g><g
           id="g216"
           transform="translate(297.8152,739.8177)"><path
             d="m 0,0 c -0.125,-0.265 -1.322,-2.828 -1.322,-2.828 0,0 0.419,-0.738 0.451,-0.795 0.072,-0.126 0.058,-0.221 -0.139,-0.221 h -0.851 c -0.132,0.002 -0.212,0.053 -0.263,0.142 -0.026,0.045 -1.271,2.241 -1.271,2.241 0,0 -0.724,-1.536 -0.789,-1.671 C -4.276,-3.325 -4.462,-3.565 -4.701,-3.695 -4.928,-3.82 -5.138,-3.84 -5.487,-3.84 h -0.042 c -0.257,0 -0.234,0.132 -0.192,0.226 0.029,0.055 1.611,3.413 1.611,3.413 0,0 -0.406,0.718 -0.434,0.766 -0.078,0.137 0,0.197 0.131,0.195 H -3.6 c 0.166,0 0.287,-0.074 0.36,-0.205 0.049,-0.086 1.2,-2.116 1.2,-2.116 0,0 1.015,2.17 1.038,2.221 0.032,0.068 0.095,0.099 0.183,0.099 h 0.696 C 0.119,0.756 0.291,0.622 0,0"
             style="fill:#ffffff;fill-opacity:1;fill-rule:nonzero;stroke:none"
             id="path218"
             inkscape:connector-curvature="0" /></g><g
           id="g220"
           transform="translate(299.6172,740.5731)"><path
             d="m 0,0 6.99,-0.006 c 0.129,0 0.183,-0.103 0.123,-0.231 L 6.819,-0.867 C 6.759,-0.994 6.608,-1.099 6.481,-1.096 l -6.99,0.006 c -0.127,0 -0.182,0.102 -0.122,0.229 l 0.294,0.632 C -0.277,-0.103 -0.126,0 0,0"
             style="fill:#ffffff;fill-opacity:1;fill-rule:nonzero;stroke:none"
             id="path222"
             inkscape:connector-curvature="0" /></g><g
           id="g224"
           transform="translate(302.2227,739.1208)"><path
             d="M 0,0 0.129,-0.337 H 0.611 C 0.714,-0.34 0.736,-0.419 0.64,-0.531 l -0.306,-0.35 0.125,-0.33 C 0.487,-1.285 0.494,-1.365 0.317,-1.365 l -0.403,10e-4 -0.306,-0.352 c -0.074,-0.086 -0.101,-0.088 -0.143,0.02 l -0.125,0.332 h -0.49 c -0.105,0 -0.127,0.08 -0.029,0.193 l 0.312,0.358 -0.123,0.322 c -0.028,0.074 -0.035,0.154 0.139,0.154 h 0.397 L -0.143,0.02 C -0.066,0.106 -0.04,0.109 0,0"
             style="fill:#ffffff;fill-opacity:1;fill-rule:nonzero;stroke:none"
             id="path226"
             inkscape:connector-curvature="0" /></g></g></g></g></svg>