<?xml version="1.0" encoding="UTF-8" standalone="no"?>
<svg
   xmlns:dc="http://purl.org/dc/elements/1.1/"
   xmlns:cc="http://creativecommons.org/ns#"
   xmlns:rdf="http://www.w3.org/1999/02/22-rdf-syntax-ns#"
   xmlns:svg="http://www.w3.org/2000/svg"
   xmlns="http://www.w3.org/2000/svg"
   xmlns:sodipodi="http://sodipodi.sourceforge.net/DTD/sodipodi-0.dtd"
   xmlns:inkscape="http://www.inkscape.org/namespaces/inkscape"
   width="260pt"
   height="60pt"
   viewBox="0 0 260 60"
   version="1.1"
   id="svg3336"
   inkscape:version="0.91 r13725"
   sodipodi:docname="Surf_Air_logo.svg">
  <metadata
     id="metadata3364">
    <rdf:RDF>
      <cc:Work
         rdf:about="">
        <dc:format>image/svg+xml</dc:format>
        <dc:type
           rdf:resource="http://purl.org/dc/dcmitype/StillImage" />
      </cc:Work>
    </rdf:RDF>
  </metadata>
  <defs
     id="defs3362" />
  <sodipodi:namedview
     pagecolor="#ffffff"
     bordercolor="#666666"
     borderopacity="1"
     objecttolerance="10"
     gridtolerance="10"
     guidetolerance="10"
     inkscape:pageopacity="0"
     inkscape:pageshadow="2"
     inkscape:window-width="1920"
     inkscape:window-height="1017"
     id="namedview3360"
     showgrid="false"
     inkscape:zoom="5.4307692"
     inkscape:cx="120.59645"
     inkscape:cy="52.230878"
     inkscape:window-x="-8"
     inkscape:window-y="-8"
     inkscape:window-maximized="1"
     inkscape:current-layer="svg3336" />
  <path
     fill="#08263e"
     d=" M 7.64 9.79 C 14.18 8.27 20.98 9.29 27.63 9.00 C 27.63 12.46 27.63 15.92 27.62 19.38 C 22.29 19.62 16.85 18.76 11.61 20.04 C 11.90 21.37 11.85 23.17 13.64 23.29 C 18.13 24.64 23.13 25.05 26.95 28.06 C 30.82 31.12 31.35 36.74 30.20 41.23 C 29.11 45.74 24.83 48.94 20.29 49.28 C 14.00 49.80 7.68 49.47 1.38 49.56 C 1.37 46.06 1.37 42.56 1.37 39.07 C 6.84 38.86 12.38 39.50 17.80 38.71 C 19.52 38.46 19.61 35.73 17.89 35.40 C 13.11 33.68 7.58 33.81 3.32 30.74 C 0.95 29.07 0.22 26.13 0.00 23.41 L 0.00 19.34 C 0.20 14.91 3.24 10.80 7.64 9.79 Z"
     id="path3340" />
  <path
     fill="#08263e"
     d=" M 41.43 9.01 C 45.14 9.00 48.85 9.00 52.57 9.01 C 52.57 18.03 52.54 27.04 52.57 36.06 C 51.68 41.25 62.06 41.28 61.28 36.11 C 61.36 27.07 61.28 18.04 61.31 9.01 C 65.00 9.00 68.69 9.00 72.38 9.00 C 72.36 18.34 72.39 27.67 72.37 37.00 C 72.50 41.48 70.19 46.06 66.09 48.09 C 61.12 50.52 55.16 50.51 49.91 49.02 C 45.03 47.62 41.50 42.90 41.48 37.84 C 41.37 28.23 41.47 18.62 41.43 9.01 Z"
     id="path3342" />
  <path
     fill="#08263e"
     d=" M 85.50 9.00 C 91.70 9.04 97.90 8.90 104.09 9.07 C 108.10 9.22 112.67 10.46 114.74 14.22 C 116.99 18.44 116.19 23.44 116.12 28.03 C 116.07 31.24 114.19 34.02 111.56 35.72 C 113.61 40.30 115.69 44.86 117.74 49.43 C 114.01 49.44 110.28 49.43 106.55 49.44 C 104.71 45.44 102.93 41.40 101.12 37.38 C 99.60 37.38 98.08 37.38 96.57 37.38 C 96.56 41.40 96.56 45.42 96.56 49.44 C 92.87 49.44 89.19 49.44 85.50 49.44 C 85.50 35.96 85.50 22.48 85.50 9.00 Z"
     id="path3344" />
  <path
     fill="#08263e"
     d=" M 130.25 9.00 C 139.50 9.00 148.75 8.99 158.01 9.01 C 156.85 12.42 155.71 15.83 154.58 19.24 C 150.16 19.26 145.74 19.24 141.31 19.25 C 141.31 21.83 141.31 24.41 141.31 27.00 C 144.90 27.00 148.50 27.00 152.09 27.00 C 150.96 30.43 149.82 33.84 148.64 37.25 C 146.20 37.25 143.75 37.25 141.31 37.25 C 141.31 41.31 141.31 45.37 141.31 49.43 C 137.62 49.44 133.94 49.44 130.25 49.43 C 130.24 35.96 130.25 22.48 130.25 9.00 Z"
     id="path3346" />
  <path
     fill="#000000"
     d=" M 178.56 9.06 C 180.90 9.05 183.25 9.05 185.59 9.07 C 190.13 22.52 194.64 35.98 199.15 49.44 C 197.39 49.44 195.62 49.44 193.86 49.44 C 192.43 45.38 191.03 41.32 189.65 37.26 C 184.56 37.25 179.48 37.25 174.40 37.26 C 173.04 41.32 171.69 45.39 170.30 49.44 C 168.53 49.44 166.76 49.44 164.99 49.44 C 169.51 35.98 174.01 22.51 178.56 9.06 Z"
     id="path3348" />
  <path
     fill="#000000"
     d=" M 211.56 9.05 C 213.31 9.05 215.06 9.05 216.81 9.06 C 216.82 22.52 216.82 35.97 216.81 49.43 C 215.06 49.43 213.31 49.44 211.56 49.44 C 211.56 35.98 211.56 22.52 211.56 9.05 Z"
     id="path3350" />
  <path
     fill="#000000"
     d=" M 232.44 9.06 C 238.33 9.11 244.22 8.91 250.10 9.16 C 253.79 9.35 257.99 11.23 258.89 15.17 C 259.72 19.37 259.81 23.78 258.95 27.99 C 258.36 30.95 255.75 32.77 253.11 33.78 C 255.34 38.99 257.92 44.05 259.80 49.41 C 258.25 49.43 256.71 49.44 255.16 49.45 C 252.97 44.41 250.79 39.37 248.60 34.32 C 244.97 34.31 241.33 34.31 237.70 34.32 C 237.68 39.36 237.70 44.40 237.69 49.44 C 235.93 49.44 234.19 49.44 232.44 49.44 C 232.44 35.98 232.43 22.52 232.44 9.06 Z"
     id="path3352" />
  <path
     fill="#ffffff"
     d=" M 175.81 32.68 C 177.88 26.12 179.97 19.55 182.09 13.00 C 184.14 19.57 186.26 26.11 188.30 32.68 C 184.13 32.69 179.97 32.69 175.81 32.68 Z"
     id="path3354" />
  <path
     fill="#ffffff"
     d=" M 237.69 13.76 C 242.32 13.99 247.08 13.20 251.61 14.34 C 254.76 15.45 254.10 19.39 254.22 22.02 C 254.24 24.62 254.43 28.50 251.14 29.21 C 246.72 30.07 242.17 29.44 237.70 29.62 C 237.68 24.33 237.69 19.05 237.69 13.76 Z"
     id="path3356" />
  <path
     fill="#ffffff"
     d=" M 96.56 19.26 C 99.30 19.52 102.49 18.49 104.90 20.06 C 105.46 22.31 105.15 24.63 104.86 26.89 C 102.13 27.47 99.33 27.34 96.57 27.30 C 96.56 24.62 96.56 21.94 96.56 19.26 Z"
     id="path3358" />
</svg>
