<?xml version="1.0" encoding="UTF-8" standalone="no"?>
<svg
   xmlns:dc="http://purl.org/dc/elements/1.1/"
   xmlns:cc="http://creativecommons.org/ns#"
   xmlns:rdf="http://www.w3.org/1999/02/22-rdf-syntax-ns#"
   xmlns:svg="http://www.w3.org/2000/svg"
   xmlns="http://www.w3.org/2000/svg"
   xmlns:sodipodi="http://sodipodi.sourceforge.net/DTD/sodipodi-0.dtd"
   xmlns:inkscape="http://www.inkscape.org/namespaces/inkscape"
   version="1.0"
   width="94"
   height="14"
   viewBox="0 0 75.2 11.2"
   preserveAspectRatio="xMidYMid meet"
   id="svg2"
   inkscape:version="0.91 r13725"
   sodipodi:docname="dnPuTRkkxw.svg">
  <title
     id="title4366">Swift Air logo</title>
  <defs
     id="defs34" />
  <sodipodi:namedview
     pagecolor="#ffffff"
     bordercolor="#666666"
     borderopacity="1"
     objecttolerance="10"
     gridtolerance="10"
     guidetolerance="10"
     inkscape:pageopacity="0"
     inkscape:pageshadow="2"
     inkscape:window-width="1366"
     inkscape:window-height="705"
     id="namedview32"
     showgrid="false"
     inkscape:showpageshadow="false"
     showguides="false"
     units="px"
     inkscape:zoom="1"
     inkscape:cx="50.537483"
     inkscape:cy="5.6468982"
     inkscape:window-x="-8"
     inkscape:window-y="-8"
     inkscape:window-maximized="1"
     inkscape:current-layer="svg2">
    <inkscape:grid
       type="xygrid"
       id="grid4202" />
  </sodipodi:namedview>
  <metadata
     id="metadata4">
Created by potrace 1.10, written by Peter Selinger 2001-2011
<rdf:RDF>
  <cc:Work
     rdf:about="">
    <dc:format>image/svg+xml</dc:format>
    <dc:type
       rdf:resource="http://purl.org/dc/dcmitype/StillImage" />
    <dc:title>Swift Air logo</dc:title>
    <cc:license
       rdf:resource="http://scripts.sil.org/OFL" />
  </cc:Work>
  <cc:License
     rdf:about="http://scripts.sil.org/OFL">
    <cc:permits
       rdf:resource="http://scripts.sil.org/pub/OFL/Reproduction" />
    <cc:permits
       rdf:resource="http://scripts.sil.org/pub/OFL/Distribution" />
    <cc:permits
       rdf:resource="http://scripts.sil.org/pub/OFL/Embedding" />
    <cc:permits
       rdf:resource="http://scripts.sil.org/pub/OFL/DerivativeWorks" />
    <cc:requires
       rdf:resource="http://scripts.sil.org/pub/OFL/Notice" />
    <cc:requires
       rdf:resource="http://scripts.sil.org/pub/OFL/Attribution" />
    <cc:requires
       rdf:resource="http://scripts.sil.org/pub/OFL/ShareAlike" />
    <cc:requires
       rdf:resource="http://scripts.sil.org/pub/OFL/DerivativeRenaming" />
    <cc:requires
       rdf:resource="http://scripts.sil.org/pub/OFL/BundlingWhenSelling" />
  </cc:License>
</rdf:RDF>
</metadata>
  <path
     style="fill:#da6c1d;fill-opacity:1;stroke:none"
     d="m 41.704405,4.7496958 c 0,0 0.131451,0.0466 0.543336,-0.21715 0.648501,-0.39995 0.718609,-0.4425 0.911405,-0.51909 0.0964,-0.0425 0.438176,-0.22976 0.744899,-0.40846 1.822811,-1.07221 4.548263,-2.16996 6.730376,-2.71457996 0.166505,-0.0425 0.747289,-0.23197 1.298806,-0.25575 l -10.249506,0.043 M 51.898339,1.2903658 c -0.569581,0.0586 -1.106624,0.31507 -1.561877,0.46803 l -1.270709,0.45952 c -0.07011,0.009 -0.481993,0.17019 -0.481993,0.17019 0,0 -0.376831,0.16168 -0.420648,0.17019 -0.03505,0 -0.464467,0.18721 -0.963987,0.42548 -1.551141,0.73183 -2.655343,1.34453 -2.576473,1.42112 0.02629,0.017 0.333015,-0.0511 0.683555,-0.14467 0.604683,-0.17019 2.409966,-0.61269 3.628094,-0.89351 0.946457,-0.21274 1.831573,-0.37443 2.392439,-0.43399 l 0.579215,-0.0663 z m -0.898999,2.81509 c -0.02585,-10e-5 -0.0571,5e-4 -0.09325,0.002 -0.166509,0 -0.481993,0.0425 -0.701082,0.0851 -1.586194,0.32336 -2.199639,0.47654 -3.242498,0.7999 -0.6485,0.20423 -1.261947,0.40847 -1.358344,0.45101 -0.0964,0.0426 -0.552103,0.22125 -1.007804,0.39145 -0.455703,0.17019 -0.911406,0.34038 -1.007805,0.38293 -0.0964,0.0425 -0.368067,0.15318 -0.613445,0.25529 -0.236615,0.10212 -0.517048,0.21274 -0.613446,0.25529 -0.0964,0.0425 -0.280432,0.11914 -0.411885,0.17019 -0.140217,0.0426 -0.245377,0.12765 -0.245377,0.18722 l 0.01912,1.98712 c 0.0056,-0.0141 0.541743,-0.44688 1.006209,-0.75322 1.244417,-0.7914 3.566748,-1.97424 6.379834,-3.25069 0.481995,-0.21274 1.156784,-0.5276 1.489798,-0.68077 0.693478,-0.32526 0.793893,-0.32526 0.399973,-0.28243 z m 0.911035,0.65789 -8.737356,5.7025502 8.749638,0.009 z"
     id="path8"
     inkscape:connector-curvature="0"
     sodipodi:nodetypes="cccccccccccccccccccccccssscsccccccccccc" />
  <g
     id="layer2"
     transform="matrix(0.01051588,0,0,0.01034276,-69.891383,-3.2118332)"
     style="fill:#877665;fill-opacity:1;stroke:none">
    <path
       style="fill:#877665;fill-opacity:1"
       d="m 48.705078,2.828125 c -0.169542,-0.0075 -0.413202,0.059621 -0.65625,0.1855469 -0.526872,0.2770379 -6.157701,0.2770379 -6.521484,0 C 41.251368,2.8121894 40.773057,2.7612034 40.660156,2.9375 c -0.03763,0.062963 -0.100203,0.7188463 -0.15039,1.4492188 -0.06271,1.1711145 -0.04948,1.3346009 0.138672,1.4101562 0.301069,0.1133336 0.664145,-0.2649525 0.751953,-0.78125 0.112901,-0.5792617 0.578247,-0.8046875 1.644531,-0.8046875 l 0.839844,0 -0.05078,3.2734375 c -0.02508,2.3170428 -0.0746,3.298776 -0.1875,3.412109 -0.08781,0.08815 -0.36353,0.188786 -0.626953,0.226563 -0.464158,0.07556 -0.639934,0.314503 -0.501953,0.679687 l 4.517578,0.0059 c 0.200709,-0.314817 -0.0015,-0.671875 -0.453125,-0.671875 -0.752674,0 -0.776819,-0.07624 -0.814453,-3.6777346 l -0.03906,-3.2480469 0.816406,0 c 1.216819,0 1.579934,0.2517387 1.730469,1.1835937 0.05017,0.3022227 0.388907,0.5148036 0.652343,0.4140626 0.188169,-0.075557 0.200268,-0.2392464 0.125,-1.4355469 -0.03763,-0.7555573 -0.09909,-1.396895 -0.136718,-1.4472657 -0.03293,-0.061389 -0.10921,-0.093155 -0.210938,-0.097656 z M 5.7734375,3.0898438 C 5.3032646,3.0854937 4.9096498,3.1796548 4.5019531,3.3828125 3.5862053,3.8282568 3.0108283,4.9841127 3.2617188,5.875 3.4749755,6.5973418 4.0633214,7.151441 5.59375,8.0664062 6.3840539,8.5359286 7.0993887,9.0300009 7.1621094,9.1503906 7.3502779,9.4874825 7.3128675,10.269657 7.0996094,10.558594 6.8110865,10.943842 6.0842549,11.123305 5.4570312,10.966797 4.7921739,10.798251 4.4410886,10.413333 4.0898438,9.4863281 3.8514974,8.8482602 3.7626079,8.7285156 3.5117188,8.7285156 c -0.3010684,0 -0.3002583,0.011356 -0.3378907,1.4199224 -0.02509,1.191862 -9.761e-4,1.422227 0.1621094,1.482421 0.1129011,0.04816 0.3014624,-0.01242 0.4394531,-0.132812 0.2383451,-0.204664 0.2753408,-0.205625 0.8398438,0.03516 1.1415487,0.493601 2.8609147,0.205051 3.6386718,-0.601562 C 8.8811325,10.293572 9.0934324,9.1855209 8.7421875,8.3789062 8.4662087,7.7528773 7.7018583,7.0904584 6.296875,6.2597656 5.5943814,5.8383994 4.9293074,5.381116 4.8164062,5.2246094 4.5780612,4.8634389 4.7045704,4.2860227 5.0683594,4.0332031 5.4321497,3.7924237 6.4722263,3.803821 6.9238281,4.0566406 c 0.3261579,0.1926248 0.7777265,0.9631426 0.890625,1.5410156 0.025091,0.1685457 0.1383071,0.2421876 0.3515625,0.2421876 0.3136138,0 0.3139275,-5.596e-4 0.3515625,-1.3007813 C 8.5552118,3.1184579 8.46707,2.9613837 7.8398438,3.2382812 7.6140428,3.3345941 7.337337,3.323516 6.7226562,3.203125 6.3651387,3.1308912 6.0555418,3.0924531 5.7734375,3.0898438 Z m 33.5605465,0.023437 -3.58789,0.025391 -3.59961,0.037109 -0.02539,0.2890626 c -0.02509,0.3140707 0.251223,0.5273437 0.677734,0.5273437 0.602139,0 0.638672,0.1772863 0.638672,3.46875 0,1.8844255 -0.04973,3.1773729 -0.125,3.3281249 -0.08781,0.163319 -0.263397,0.238282 -0.564453,0.238282 -0.225802,0 -0.464617,0.07612 -0.527344,0.164062 -0.112901,0.175881 -0.162336,0.477622 -0.09961,0.578125 l 4.607422,-0.002 c 0,-0.288944 -0.104071,-0.638573 -0.71875,-0.814453 C 35.54562,10.814887 35.469584,10.550462 35.45703,9.0429214 l -0.01172,-1.1796876 1.191407,0.048828 c 1.266992,0.03769 1.517661,0.1506253 1.605469,0.7285156 0.06273,0.3517591 0.352095,0.5779095 0.640624,0.4648438 0.175616,-0.062815 0.201172,-0.3139801 0.201172,-1.6582032 0,-1.344223 -0.02556,-1.5953884 -0.201172,-1.6582031 -0.288529,-0.1005031 -0.589926,0.1141929 -0.677734,0.4785156 -0.112901,0.4522623 -0.564658,0.6152344 -1.71875,0.6152344 l -1.041016,0 0,-1.5214844 0,-1.53125 1.228516,0.0625 c 1.430081,0.075377 1.869831,0.2505482 2.007813,0.765625 0.125454,0.4899508 0.439689,0.7046469 0.703125,0.4785157 0.225802,-0.1884426 0.274927,-1.1813465 0.07422,-1.7089844 l -0.125,-0.3144532 z M 12.136719,3.2167969 c -2.1952875,0 -2.3217415,0.01322 -2.3593752,0.2382812 -0.062722,0.3000815 0.2894582,0.5742188 0.7285152,0.5742188 0.363791,0 0.837002,0.1389033 1.087891,0.7265625 l 2.595703,7.0234376 1.480469,0.01953 2.068359,-5.5664061 2.027344,5.5761721 1.267578,-0.01172 3,-7.4609375 c 0.137991,-0.1125307 0.510226,-0.3320146 0.710938,-0.3945313 0.27598,-0.087524 0.273561,-0.080043 0.257812,-0.3046874 l -0.02148,-0.28125 -2.888672,-0.019531 c -0.03763,0.2125573 -0.03649,0.6022965 0.339844,0.7773437 0.439057,0.2125575 0.384765,0.4199219 0.384765,0.4199219 L 20.984375,9.8105469 18.935547,4.3164062 C 18.960635,4.2163795 19.273374,4.1590047 19.511719,4.0839844 19.757951,3.9785755 19.916016,3.71875 19.916016,3.71875 L 19.976562,3.375 C 16.721051,3.4478677 15.980469,3.359375 15.980469,3.359375 l 0.05078,0.5351562 c 0.753415,0.083893 1.036807,0.600374 1.113281,0.8632813 l -0.0059,0.2402344 -1.705078,4.7734375 -0.927735,-2.484375 c -1.241903,-2.9007897 -1.26574,-3.0569563 -0.46289,-3.3320313 0.313611,-0.1000269 0.414062,-0.2124388 0.414062,-0.4375 l 0,-0.3007812 -2.320312,0 z m 14.328125,0.1015625 c -0.05944,0.2843586 0.274015,0.7734375 0.642578,0.7734375 0.618236,0 0.642578,0.1481849 0.642578,3.4492187 0,3.4123064 0.02365,3.3249414 -0.808594,3.4609374 -0.451778,0.08654 -0.455171,0.391062 -0.447265,0.775391 l 4.40625,0.0039 0,-0.345703 c 0,-0.321451 -0.04712,-0.359393 -0.439453,-0.396485 -0.784686,-0.07418 -0.808594,-0.184686 -0.808594,-3.5722651 0,-3.2268554 0.02238,-3.375 0.640625,-3.375 0.368555,0 0.739141,-0.4812676 0.679687,-0.765625 l -4.507812,-0.00781 z m 46.833984,0.1953125 c -0.127486,0.15515 2.57e-4,-8.375e-4 -1.552734,4.140625 -1.101004,3.0792501 -1.135755,3.1625531 -1.75,3.3535151 -0.417223,0.143226 -0.498047,0.21616 -0.498047,0.466797 l 0,0.296875 3.939453,0 0,-0.296875 c 0,-0.226762 -0.07941,-0.322481 -0.369141,-0.417968 -0.208613,-0.07163 -0.406765,-0.167094 -0.453125,-0.214844 l 0.589844,-2.1660158 2.470703,-0.00586 0.566407,2.0175778 c -0.03476,0.0955 -0.207145,0.238509 -0.392579,0.333984 -0.23179,0.107375 -0.306455,0.158638 -0.314453,0.414063 l 0.0098,0.337891 2.789062,-0.0039 -0.002,-0.351562 c -0.0011,-0.236763 -0.211052,-0.395622 -0.396484,-0.44336 C 77.414019,10.831384 77.228975,10.496822 76.394531,8.1933594 74.980606,4.2547969 74.632813,3.5136719 74.632812,3.5136719 l -1.333984,0 z m 13.873047,0.095703 c -2.062215,0 -2.447266,0.021484 -2.447266,0.021484 -0.103687,0.29235 0.143254,0.7383625 0.523438,0.7734375 0.599079,0.070125 0.621094,0.1765344 0.621094,3.2871093 0,1.5786626 -0.04592,2.9474353 -0.103516,3.0292973 -0.0576,0.0935 -0.265284,0.197366 -0.472656,0.244141 -0.426268,0.08188 -0.644702,0.516244 -0.541016,0.808594 l 4.169922,0.0059 0,-0.333985 c 0,-0.233874 -0.0788,-0.316675 -0.458984,-0.445312 -0.668203,-0.222188 -0.75,-0.385462 -0.75,-1.6250005 l 0,-1.0878906 0.550781,0 c 0.614494,0 1.051196,0.3152375 1.984375,1.6015625 0.460831,0.6314626 0.989694,1.3227156 1.185547,1.5332036 l 0.357422,0.373047 2.373046,0 0,-0.408203 c 0,-0.3859 -0.02196,-0.410157 -0.390624,-0.410157 -0.483873,0 -0.84176,-0.281253 -1.521485,-1.2050781 C 91.952414,9.3738969 91.445626,8.7668281 91.123047,8.4160156 90.719821,7.9950406 90.581859,7.7733688 90.685547,7.7382812 90.973566,7.6330313 91.641643,6.9777969 91.814453,6.6386719 92.217679,5.8317969 91.895133,4.6864812 91.134766,4.2070312 90.328314,3.7158938 89.637313,3.609375 87.171875,3.609375 Z M 79.126953,3.751953 c -0.0576,0.26895 0.263949,0.7304688 0.621094,0.7304688 0.599077,0 0.623047,0.1414219 0.623047,3.2636719 0,3.2275123 0.02325,3.1448003 -0.783203,3.2734373 -0.437783,0.08188 -0.441257,0.36891 -0.433594,0.732422 l 4.269531,0.0039 0,-0.326171 c 0,-0.304038 -0.04559,-0.339913 -0.425781,-0.375 -0.760369,-0.07013 -0.783203,-0.174794 -0.783203,-3.3789069 0,-3.0521 0.02202,-3.1933593 0.621094,-3.1933593 0.357143,0 0.715808,-0.4537063 0.658203,-0.7226563 l -4.367188,-0.00781 z m 8.585938,0.5605469 0.552734,0 c 1.40553,0 1.912874,0.4792187 1.84375,1.7304688 -0.03456,0.608075 -0.103963,0.7837843 -0.357422,1.0527343 -0.2765,0.2689625 -0.928209,0.3680469 -1.519531,0.3964844 l -0.519531,0 c -0.04219,0.087875 0,-3.1796875 0,-3.1796875 z m -13.277344,1.0742188 0.904297,2.3867187 -1.728516,-0.00781 0.824219,-2.3789062 z"
       transform="matrix(76.075421,0,0,77.348793,6520.5526,289.23558)"
       id="path206"
       inkscape:connector-curvature="0" />
  </g>
</svg>
