<?xml version="1.0" encoding="utf-8"?>
<!-- Generator: Adobe Illustrator 16.0.3, SVG Export Plug-In . SVG Version: 6.00 Build 0)  -->
<!DOCTYPE svg PUBLIC "-//W3C//DTD SVG 1.1//EN" "http://www.w3.org/Graphics/SVG/1.1/DTD/svg11.dtd">
<svg version="1.1" id="Ebene_1" xmlns="http://www.w3.org/2000/svg" xmlns:xlink="http://www.w3.org/1999/xlink" x="0px" y="0px"
	 width="420.973px" height="107.971px" viewBox="0 0 420.973 107.971" enable-background="new 0 0 420.973 107.971"
	 xml:space="preserve">
<path id="path3059" fill="#CC1417" d="M225.375,48.074h-8.02V17.197h8.02V48.074z M206.394,17.197l-5.161,20.693l-6.041-20.693
	h-7.751l-6.035,20.693l-5.175-20.693h-7.836l8.525,30.876h8.277l6.112-21.178l6.114,21.178h8.274l8.551-30.876H206.394z
	 M167.727,39.344c0-5.919-3.139-7.903-10.008-10.143c-3.237-1.056-6.259-1.867-6.259-4.383c0-2.209,2.245-2.941,3.922-2.941
	c1.424,0,4.097,0.302,4.313,3.577h7.581c-0.132-6.251-5.217-8.974-11.76-8.974c-4.057,0-7.408,1.148-9.519,3.227
	c-1.474,1.453-2.372,3.582-2.372,5.796c0,5.748,3.841,8.052,8.18,9.372c4.875,1.489,8.1,2.376,8.1,5.061
	c0,1.793-1.419,3.579-4.225,3.579c-3.565,0-4.86-2.128-4.945-4.218h-7.671c0,7.115,5.998,9.717,12.616,9.717
	C164.132,49.011,167.727,44.2,167.727,39.344 M253.737,39.344c0-6.811-4.956-8.608-10.944-10.397
	c-2.887-0.851-5.479-1.612-5.479-4.129c0-2.209,2.246-2.941,3.924-2.941c1.428,0,4.091,0.302,4.306,3.577h7.588
	c-0.132-6.251-5.21-8.974-11.767-8.974c-4.05,0-7.414,1.148-9.515,3.227c-1.465,1.453-2.369,3.582-2.369,5.796
	c0,5.748,3.832,8.052,8.187,9.372c4.87,1.489,8.101,2.376,8.101,5.061c0,1.793-1.418,3.579-4.223,3.579
	c-3.577,0-4.874-2.128-4.953-4.218h-7.672c0,7.115,5.991,9.717,12.624,9.717C249.983,49.011,253.737,44.2,253.737,39.344
	 M281.321,39.344c0-6.811-4.976-8.608-10.959-10.397c-2.895-0.851-5.47-1.612-5.47-4.129c0-2.209,2.232-2.941,3.91-2.941
	c1.418,0,4.094,0.302,4.313,3.577h7.603c-0.133-6.251-5.235-8.974-11.773-8.974c-4.052,0-7.415,1.148-9.531,3.227
	c-1.463,1.453-2.361,3.582-2.361,5.796c0,5.748,3.833,8.052,8.175,9.372c4.876,1.489,8.103,2.376,8.103,5.061
	c0,1.793-1.417,3.579-4.22,3.579c-3.572,0-4.867-2.128-4.952-4.218h-7.677c0,7.115,5.99,9.717,12.629,9.717
	C277.569,49.011,281.321,44.2,281.321,39.344"/>
<polygon id="polygon3061" fill="#CC1417" points="82.314,7.088 132.839,7.088 109.728,100.883 7.085,100.883 "/>
<polygon id="polygon3063" fill="#FFFFFF" points="94.023,62.635 114.217,62.635 114.217,45.332 94.023,45.332 94.023,25.136 
	76.71,25.136 76.71,45.332 56.516,45.332 56.516,62.635 76.7,62.635 76.7,82.836 94.008,82.836 94.008,62.635 "/>
<g>
	<path fill="#CC1417" d="M165.652,76.03v14.872c-1.936,0.764-3.806,1.284-5.61,1.563c-1.804,0.278-3.733,0.418-5.786,0.418
		c-2.171,0-4.1-0.403-5.786-1.21c-1.687-0.807-3.102-1.937-4.246-3.389c-1.144-1.451-2.017-3.196-2.618-5.235
		c-0.602-2.039-0.902-4.275-0.902-6.71c0-2.053,0.271-4.07,0.814-6.05c0.542-1.98,1.378-3.747,2.508-5.303
		c1.129-1.554,2.544-2.809,4.246-3.762s3.696-1.43,5.984-1.43c1.32,0,2.625,0.176,3.916,0.527c1.29,0.353,2.449,0.888,3.476,1.606
		s1.885,1.605,2.574,2.662c0.689,1.056,1.092,2.288,1.21,3.696h-3.256c-0.147-0.997-0.462-1.87-0.946-2.618
		c-0.484-0.748-1.085-1.356-1.804-1.826c-0.719-0.469-1.526-0.821-2.42-1.056c-0.896-0.235-1.812-0.353-2.75-0.353
		c-1.907,0-3.52,0.418-4.84,1.254c-1.32,0.836-2.398,1.914-3.234,3.234c-0.836,1.319-1.445,2.809-1.826,4.466
		c-0.381,1.657-0.572,3.308-0.572,4.95c0,2.023,0.22,3.887,0.66,5.588s1.144,3.168,2.112,4.399c0.968,1.232,2.207,2.193,3.718,2.883
		c1.51,0.689,3.336,1.033,5.478,1.033c1.203,0,2.398-0.139,3.586-0.418c1.188-0.278,2.339-0.578,3.454-0.901V78.67h-7.964V76.03
		H165.652z"/>
	<path fill="#CC1417" d="M174.98,92.222h-2.64V60.455h2.64V92.222z"/>
	<path fill="#CC1417" d="M189.896,69.474c1.76,0,3.284,0.338,4.575,1.012c1.291,0.676,2.361,1.563,3.212,2.662
		c0.851,1.101,1.481,2.354,1.893,3.763c0.41,1.407,0.616,2.831,0.616,4.268c0,1.467-0.206,2.897-0.616,4.29
		c-0.411,1.394-1.042,2.64-1.893,3.74c-0.851,1.1-1.921,1.987-3.212,2.662c-1.291,0.674-2.815,1.012-4.575,1.012
		c-1.761,0-3.286-0.338-4.576-1.012c-1.291-0.675-2.361-1.563-3.212-2.662c-0.852-1.101-1.481-2.347-1.893-3.74
		c-0.411-1.393-0.616-2.823-0.616-4.29c0-1.437,0.205-2.86,0.616-4.268c0.411-1.408,1.041-2.662,1.893-3.763
		c0.851-1.1,1.921-1.986,3.212-2.662C186.61,69.812,188.135,69.474,189.896,69.474z M197.332,81.178c0-1.026-0.14-2.09-0.418-3.19
		c-0.279-1.1-0.712-2.097-1.298-2.991c-0.587-0.895-1.357-1.636-2.311-2.223c-0.953-0.586-2.09-0.88-3.409-0.88
		c-1.32,0-2.458,0.294-3.41,0.88c-0.954,0.587-1.724,1.328-2.311,2.223s-1.02,1.892-1.298,2.991
		c-0.279,1.101-0.418,2.164-0.418,3.19c0,1.027,0.139,2.09,0.418,3.19c0.278,1.1,0.711,2.097,1.298,2.991
		c0.587,0.896,1.356,1.636,2.311,2.223c0.952,0.587,2.09,0.88,3.41,0.88c1.319,0,2.456-0.293,3.409-0.88s1.724-1.327,2.311-2.223
		c0.586-0.895,1.019-1.892,1.298-2.991C197.192,83.268,197.332,82.206,197.332,81.178z"/>
	<path fill="#CC1417" d="M206.835,92.222h-2.728c0.058-0.763,0.109-1.569,0.153-2.42s0.066-1.701,0.066-2.552V60.455h2.64V73.39
		l0.088,0.088c0.763-1.29,1.849-2.28,3.257-2.97c1.407-0.689,2.845-1.034,4.312-1.034c1.643,0,3.036,0.338,4.18,1.012
		c1.145,0.676,2.083,1.563,2.816,2.662c0.732,1.101,1.261,2.34,1.584,3.718c0.322,1.38,0.484,2.787,0.484,4.225
		c0,1.379-0.162,2.771-0.484,4.18c-0.323,1.408-0.844,2.678-1.563,3.806c-0.719,1.13-1.643,2.047-2.771,2.75
		c-1.13,0.704-2.501,1.057-4.114,1.057s-3.073-0.353-4.378-1.057c-1.306-0.703-2.413-1.716-3.322-3.035l-0.088,0.176L206.835,92.222
		z M214.095,71.894c-1.291,0-2.383,0.25-3.277,0.748c-0.896,0.499-1.628,1.159-2.2,1.98s-0.99,1.768-1.254,2.838
		c-0.265,1.071-0.396,2.163-0.396,3.277c0,1.262,0.125,2.479,0.374,3.652c0.249,1.174,0.66,2.208,1.232,3.102
		c0.572,0.896,1.342,1.614,2.31,2.156c0.968,0.543,2.171,0.814,3.608,0.814c1.261,0,2.303-0.309,3.124-0.924
		c0.82-0.616,1.466-1.394,1.936-2.332c0.469-0.938,0.799-1.973,0.99-3.103c0.19-1.129,0.286-2.207,0.286-3.233
		c0-1.057-0.117-2.119-0.353-3.19c-0.234-1.07-0.615-2.031-1.144-2.882s-1.218-1.547-2.068-2.09S215.356,71.894,214.095,71.894z"/>
	<path fill="#CC1417" d="M240.847,76.646c-0.146-1.818-0.659-3.064-1.54-3.74c-0.88-0.674-2.111-1.012-3.695-1.012
		c-0.704,0-1.364,0.06-1.98,0.176c-0.616,0.118-1.166,0.323-1.649,0.616c-0.484,0.294-0.881,0.689-1.188,1.188
		s-0.506,1.115-0.594,1.848h-2.816c0.176-1.144,0.506-2.112,0.99-2.904s1.085-1.437,1.804-1.936s1.547-0.858,2.486-1.078
		c0.938-0.22,1.936-0.33,2.992-0.33c2.435,0,4.355,0.587,5.764,1.76c1.408,1.174,2.097,3.021,2.068,5.544V87.25
		c-0.03,0.851-0.016,1.701,0.044,2.552c0.059,0.851,0.116,1.657,0.176,2.42h-2.728l-0.089-3.256h-0.088l-0.132,0.308
		c-0.235,0.47-0.587,0.917-1.056,1.342c-0.47,0.426-1.012,0.808-1.628,1.145c-0.616,0.338-1.291,0.608-2.024,0.813
		s-1.467,0.309-2.2,0.309c-1.026,0-1.987-0.154-2.882-0.462c-0.895-0.309-1.672-0.755-2.332-1.342s-1.181-1.299-1.562-2.135
		c-0.382-0.836-0.572-1.796-0.572-2.882c0-1.496,0.41-2.794,1.232-3.894c0.82-1.101,1.892-1.929,3.212-2.486
		c0.732-0.322,1.518-0.55,2.354-0.682s1.687-0.213,2.552-0.242s1.73-0.036,2.597-0.022c0.864,0.016,1.693-0.007,2.485-0.065V76.646z
		 M229.276,86.062c0,1.496,0.49,2.604,1.474,3.322c0.982,0.719,2.148,1.078,3.498,1.078c1.437,0,2.603-0.271,3.498-0.814
		c0.895-0.542,1.584-1.254,2.068-2.134c0.483-0.88,0.792-1.885,0.924-3.014s0.168-2.267,0.109-3.41
		c-0.938,0.029-2.067,0.044-3.388,0.044s-2.589,0.132-3.806,0.396c-1.218,0.265-2.252,0.741-3.103,1.431
		S229.276,84.684,229.276,86.062z"/>
	<path fill="#CC1417" d="M252.155,92.222h-2.64V60.455h2.64V92.222z"/>
	<path fill="#CC1417" d="M260.164,92.222l12.584-31.768h3.344l12.672,31.768h-3.124l-3.388-8.58h-15.796l-3.345,8.58H260.164z
		 M281.239,81.002l-6.863-17.908l-6.996,17.908H281.239z"/>
	<path fill="#CC1417" d="M294.659,63.754h-3.08v-3.3h3.08V63.754z M294.439,70.134v22.088h-2.64V70.134H294.439z"/>
	<path fill="#CC1417" d="M303.283,92.222h-2.641V75.106c0.029-0.851,0.015-1.7-0.044-2.552c-0.059-0.851-0.117-1.657-0.176-2.42
		h2.729l0.132,3.256h0.088c0.41-1.114,1.063-2.031,1.958-2.75c0.895-0.719,1.898-1.106,3.014-1.166
		c0.44-0.029,0.88-0.036,1.32-0.021s0.88,0.037,1.32,0.065v2.552c-0.265-0.028-0.536-0.065-0.814-0.109
		c-0.279-0.044-0.55-0.066-0.813-0.066c-1.966,0-3.454,0.646-4.467,1.937c-1.012,1.291-1.547,2.991-1.605,5.104V92.222z"/>
	<path fill="#CC1417" d="M318.859,92.222V60.455h2.859v29.128h15.973v2.64H318.859z"/>
	<path fill="#CC1417" d="M344.465,63.754h-3.08v-3.3h3.08V63.754z M344.246,70.134v22.088h-2.64V70.134H344.246z"/>
	<path fill="#CC1417" d="M353.089,92.222h-2.641V75.106c0-0.851-0.021-1.7-0.065-2.552c-0.044-0.851-0.096-1.657-0.154-2.42h2.729
		l0.132,3.256l0.088,0.088c0.763-1.378,1.745-2.391,2.948-3.036c1.202-0.645,2.522-0.968,3.96-0.968c1.202,0,2.229,0.161,3.08,0.484
		c0.851,0.323,1.562,0.741,2.134,1.254c0.572,0.514,1.034,1.1,1.386,1.76c0.353,0.66,0.616,1.32,0.792,1.98
		c0.176,0.659,0.286,1.298,0.33,1.913c0.044,0.616,0.066,1.13,0.066,1.54v13.816h-2.641V77.966c0-1.937-0.514-3.433-1.54-4.488
		s-2.449-1.584-4.268-1.584c-1.086,0-2.024,0.213-2.816,0.638c-0.792,0.426-1.452,0.99-1.979,1.694
		c-0.528,0.704-0.917,1.511-1.166,2.42c-0.25,0.91-0.374,1.863-0.374,2.86V92.222z"/>
	<path fill="#CC1417" d="M375.573,81.794c0.029,1.173,0.19,2.288,0.484,3.344c0.293,1.056,0.748,1.98,1.364,2.772
		s1.4,1.415,2.354,1.869c0.953,0.455,2.104,0.683,3.454,0.683c0.792,0,1.532-0.132,2.223-0.396c0.688-0.264,1.319-0.63,1.892-1.1
		c0.572-0.469,1.049-1.026,1.43-1.672s0.66-1.35,0.836-2.112h2.772c-0.675,2.67-1.841,4.62-3.498,5.852
		c-1.657,1.232-3.821,1.849-6.49,1.849c-1.643,0-3.073-0.33-4.29-0.99c-1.218-0.66-2.222-1.532-3.014-2.618
		c-0.792-1.085-1.386-2.332-1.782-3.74c-0.396-1.407-0.594-2.859-0.594-4.355s0.205-2.948,0.616-4.356
		c0.41-1.407,1.026-2.654,1.848-3.739s1.848-1.958,3.08-2.618c1.231-0.66,2.669-0.99,4.312-0.99c1.849,0,3.41,0.315,4.687,0.946
		c1.275,0.631,2.316,1.503,3.124,2.618c0.807,1.114,1.386,2.42,1.737,3.916c0.353,1.495,0.528,3.109,0.528,4.84H375.573z
		 M389.786,79.375c-0.089-1.057-0.294-2.046-0.616-2.971c-0.323-0.924-0.777-1.716-1.364-2.376c-0.587-0.659-1.313-1.18-2.178-1.562
		c-0.866-0.381-1.87-0.572-3.015-0.572c-1.085,0-2.039,0.206-2.859,0.616c-0.822,0.411-1.519,0.968-2.09,1.672
		c-0.572,0.704-1.027,1.504-1.364,2.398c-0.338,0.895-0.55,1.825-0.638,2.794H389.786z"/>
	<path fill="#CC1417" d="M394.23,75.634c0-1.145,0.241-2.104,0.726-2.882s1.106-1.408,1.87-1.893
		c0.763-0.483,1.628-0.836,2.596-1.056s1.937-0.33,2.904-0.33c1.056,0,2.046,0.104,2.97,0.308c0.924,0.206,1.753,0.544,2.486,1.013
		c0.732,0.47,1.326,1.093,1.782,1.87c0.454,0.777,0.726,1.753,0.813,2.926h-2.86c-0.059-0.704-0.249-1.291-0.571-1.76
		c-0.323-0.47-0.733-0.844-1.232-1.122s-1.063-0.484-1.694-0.616s-1.283-0.198-1.958-0.198c-0.615,0-1.225,0.066-1.825,0.198
		c-0.602,0.132-1.13,0.338-1.584,0.616c-0.455,0.278-0.829,0.646-1.122,1.1c-0.294,0.455-0.44,1.005-0.44,1.65
		c0,0.821,0.257,1.444,0.771,1.87c0.513,0.425,1.217,0.785,2.111,1.077c0.895,0.294,1.973,0.588,3.234,0.881
		c1.261,0.293,2.64,0.703,4.136,1.231c1.145,0.411,2.053,1.071,2.729,1.98c0.674,0.909,1.012,1.965,1.012,3.168
		c0,1.231-0.264,2.303-0.792,3.212s-1.226,1.665-2.09,2.266c-0.866,0.602-1.855,1.042-2.97,1.32
		c-1.115,0.278-2.26,0.418-3.433,0.418c-0.968,0-1.936-0.118-2.904-0.353c-0.968-0.234-1.848-0.615-2.64-1.144
		s-1.445-1.217-1.958-2.068c-0.514-0.851-0.785-1.892-0.813-3.124h2.859c0.059,0.822,0.271,1.504,0.639,2.046
		c0.366,0.544,0.828,0.983,1.386,1.32c0.557,0.338,1.188,0.572,1.892,0.704s1.438,0.198,2.2,0.198c0.704,0,1.4-0.088,2.09-0.265
		c0.689-0.176,1.305-0.439,1.849-0.792c0.542-0.352,0.982-0.806,1.319-1.363s0.506-1.217,0.506-1.98
		c0-0.792-0.197-1.437-0.594-1.936c-0.396-0.499-0.924-0.902-1.584-1.21c-0.66-0.309-1.408-0.558-2.244-0.748
		s-1.693-0.389-2.574-0.595c-0.88-0.204-1.737-0.439-2.573-0.703c-0.836-0.265-1.584-0.616-2.244-1.057
		c-0.66-0.439-1.188-0.99-1.584-1.649C394.427,77.504,394.23,76.662,394.23,75.634z"/>
</g>
</svg>
