<?xml version="1.0" encoding="UTF-8" standalone="no"?>
<!-- Created with Inkscape (http://www.inkscape.org/) -->

<svg
   xmlns:dc="http://purl.org/dc/elements/1.1/"
   xmlns:cc="http://creativecommons.org/ns#"
   xmlns:rdf="http://www.w3.org/1999/02/22-rdf-syntax-ns#"
   xmlns:svg="http://www.w3.org/2000/svg"
   xmlns="http://www.w3.org/2000/svg"
   xmlns:sodipodi="http://sodipodi.sourceforge.net/DTD/sodipodi-0.dtd"
   xmlns:inkscape="http://www.inkscape.org/namespaces/inkscape"
   width="300"
   height="130"
   id="svg7413"
   version="1.1"
   inkscape:version="0.47 r22583"
   sodipodi:docname="New document 2">
  <defs
     id="defs7415">
    <inkscape:perspective
       sodipodi:type="inkscape:persp3d"
       inkscape:vp_x="0 : 526.18109 : 1"
       inkscape:vp_y="0 : 1000 : 0"
       inkscape:vp_z="744.09448 : 526.18109 : 1"
       inkscape:persp3d-origin="372.04724 : 350.78739 : 1"
       id="perspective7421" />
    <inkscape:perspective
       id="perspective7373"
       inkscape:persp3d-origin="0.5 : 0.33333333 : 1"
       inkscape:vp_z="1 : 0.5 : 1"
       inkscape:vp_y="0 : 1000 : 0"
       inkscape:vp_x="0 : 0.5 : 1"
       sodipodi:type="inkscape:persp3d" />
  </defs>
  <sodipodi:namedview
     id="base"
     pagecolor="#ffffff"
     bordercolor="#666666"
     borderopacity="1.0"
     inkscape:pageopacity="0.0"
     inkscape:pageshadow="2"
     inkscape:zoom="2.8"
     inkscape:cx="187.41174"
     inkscape:cy="67.45403"
     inkscape:document-units="px"
     inkscape:current-layer="layer1"
     showgrid="false"
     inkscape:window-width="1280"
     inkscape:window-height="750"
     inkscape:window-x="-8"
     inkscape:window-y="-8"
     inkscape:window-maximized="1" />
  <metadata
     id="metadata7418">
    <rdf:RDF>
      <cc:Work
         rdf:about="">
        <dc:format>image/svg+xml</dc:format>
        <dc:type
           rdf:resource="http://purl.org/dc/dcmitype/StillImage" />
        <dc:title></dc:title>
      </cc:Work>
    </rdf:RDF>
  </metadata>
  <g
     inkscape:label="Layer 1"
     inkscape:groupmode="layer"
     id="layer1"
     transform="translate(0,-922.36218)">
    <g
       transform="matrix(12.971869,0,0,-12.971869,-25227.539,9702.8293)"
       id="g7328">
      <path
         id="path8147"
         style="fill:#d13d3d;fill-opacity:1;fill-rule:evenodd;stroke:none"
         d="m 1955.901,666.9445 -11.0373,0 0,9.8365 11.0373,0 0,-9.8365 z" />
      <path
         id="path8149"
         style="fill:#d13d3d;fill-opacity:1;fill-rule:evenodd;stroke:none"
         d="m 1967.8671,666.9445 -11.0372,0 0,9.8365 11.0372,0 0,-9.8365 z" />
      <path
         id="path8151"
         style="fill:#ffffff;fill-opacity:1;fill-rule:evenodd;stroke:none"
         d="m 1954.332,669.1649 0,0.7685 -0.6619,0 0,-0.7685 -0.7685,0 0,-0.6565 0.7685,0 0,-0.7688 0.6619,0 0,0.7688 0.7685,0 0,0.6565 -0.7685,0 z" />
      <path
         id="path8153"
         style="fill:#ffffff;fill-opacity:1;fill-rule:evenodd;stroke:none"
         d="m 1951.2632,675.7509 -0.5338,0 0,0.4589 0.5338,0 0,-0.4589 z" />
      <path
         id="path8155"
         style="fill:#ffffff;fill-opacity:1;fill-rule:evenodd;stroke:none"
         d="m 1951.2632,673.4452 -0.5338,0 0,2.0494 0.5338,0 0,-2.0494 z" />
      <path
         id="path8157"
         style="fill:#ffffff;fill-opacity:1;fill-rule:evenodd;stroke:none"
         d="m 1950.0089,675.4946 -0.3416,-1.377 -0.4056,1.377 -0.5125,0 -0.4003,-1.377 -0.3469,1.377 -0.5177,0 0.5658,-2.0494 0.5497,0 0.4056,1.4037 0.4057,-1.4037 0.5496,0 0.5712,2.0494 -0.523,0 z" />
      <path
         id="path8159"
         style="fill:#ffffff;fill-opacity:1;fill-rule:evenodd;stroke:none"
         d="m 1947.4364,674.0218 c 0,-0.3204 -0.2403,-0.6407 -0.8007,-0.6407 -0.4377,0 -0.838,0.171 -0.838,0.6458 l 0.5125,0 c 0.01,-0.1386 0.091,-0.2829 0.3255,-0.2829 0.1868,0 0.2829,0.123 0.2829,0.2403 0,0.1761 -0.2135,0.2348 -0.5392,0.3362 -0.288,0.0854 -0.5443,0.2401 -0.5443,0.6245 0,0.144 0.059,0.2883 0.1602,0.3844 0.1386,0.1386 0.3628,0.2134 0.6299,0.2134 0.4376,0 0.7738,-0.1814 0.7843,-0.5978 l -0.5068,0 c -0.011,0.2188 -0.1922,0.2401 -0.2829,0.2401 -0.1123,0 -0.2617,-0.0479 -0.2617,-0.1973 0,-0.1655 0.1976,-0.2188 0.4165,-0.2883 0.4535,-0.1494 0.6618,-0.2829 0.6618,-0.6777 z" />
      <path
         id="path8161"
         style="fill:#ffffff;fill-opacity:1;fill-rule:evenodd;stroke:none"
         d="m 1953.1417,674.0218 c 0,-0.3204 -0.2508,-0.6407 -0.8112,-0.6407 -0.4377,0 -0.838,0.171 -0.838,0.6458 l 0.5125,0 c 0.01,-0.1386 0.091,-0.2829 0.3255,-0.2829 0.1868,0 0.2829,0.123 0.2829,0.2403 0,0.1761 -0.2135,0.2348 -0.5392,0.3362 -0.288,0.0854 -0.5442,0.2401 -0.5442,0.6245 0,0.144 0.059,0.2883 0.1547,0.3844 0.144,0.1386 0.3682,0.2134 0.6353,0.2134 0.4376,0 0.7738,-0.1814 0.7843,-0.5978 l -0.5068,0 c -0.016,0.2188 -0.1922,0.2401 -0.2883,0.2401 -0.112,0 -0.2563,-0.0479 -0.2563,-0.1973 0,-0.1655 0.171,-0.2188 0.3629,-0.2724 0.3951,-0.1227 0.7259,-0.2401 0.7259,-0.6936 z" />
      <path
         id="path8163"
         style="fill:#ffffff;fill-opacity:1;fill-rule:evenodd;stroke:none"
         d="m 1955.0044,674.0218 c 0,-0.3204 -0.2509,-0.6407 -0.8113,-0.6407 -0.4428,0 -0.8379,0.171 -0.8379,0.6458 l 0.5071,0 c 0.01,-0.1386 0.091,-0.2829 0.3308,-0.2829 0.1868,0 0.2829,0.123 0.2829,0.2403 0,0.1761 -0.2188,0.2348 -0.5389,0.3362 -0.2882,0.0854 -0.5445,0.2401 -0.5445,0.6245 0,0.144 0.059,0.2883 0.1548,0.3844 0.144,0.1386 0.3628,0.2134 0.6352,0.2134 0.4323,0 0.7739,-0.1814 0.7844,-0.5978 l -0.5069,0 c -0.016,0.2188 -0.1922,0.2401 -0.2883,0.2401 -0.1119,0 -0.2616,-0.0479 -0.2616,-0.1973 0,-0.1655 0.1763,-0.2188 0.3685,-0.2724 0.3949,-0.1227 0.7257,-0.2401 0.7257,-0.6936 z" />
      <path
         id="path8165"
         style="fill:#ffffff;fill-opacity:1;fill-rule:evenodd;stroke:none"
         d="m 1958.2336,674.7795 c -0.2509,0 -0.3523,0.1442 -0.3523,0.2775 l 0.1868,0 c 0,-0.0159 0,-0.1386 0.1655,-0.1386 0.08,0 0.1707,0.0374 0.1707,0.1332 0,0.203 -0.5123,0.1176 -0.5123,0.4538 0,0.1976 0.1653,0.2668 0.3362,0.2668 0.1922,0 0.3362,-0.0746 0.3416,-0.2348 l -0.1922,0 c -0.01,0.048 -0.064,0.1015 -0.1494,0.1015 -0.069,0 -0.1443,-0.032 -0.1443,-0.1176 0,-0.1973 0.5125,-0.1066 0.5125,-0.4536 0,-0.208 -0.1868,-0.2882 -0.3628,-0.2882" />
      <path
         id="path8167"
         style="fill:#ffffff;fill-opacity:1;fill-rule:evenodd;stroke:none"
         d="m 1959.5143,674.801 -0.1868,0 -0.144,0.4748 -0.1389,-0.4748 -0.1868,0 -0.2135,0.6936 0.1815,0 0.1335,-0.4963 0.1443,0.4963 0.1652,0 0.1443,-0.4963 0.1332,0.4963 0.1763,0 -0.2083,-0.6936 z" />
      <path
         id="path8169"
         style="fill:#ffffff;fill-opacity:1;fill-rule:evenodd;stroke:none"
         d="m 1959.8292,675.5907 0,0.1602 0.1814,0 0,-0.1602 -0.1814,0 z m 0,-0.7897 0,0.6936 0.1814,0 0,-0.6936 -0.1814,0 z" />
      <path
         id="path8171"
         style="fill:#ffffff;fill-opacity:1;fill-rule:evenodd;stroke:none"
         d="m 1960.4112,674.7795 c -0.096,0 -0.1763,0.0215 -0.235,0.0748 -0.048,0.0479 -0.053,0.1066 -0.053,0.1335 l 0.1706,0 c 0,-0.0161 0.011,-0.0961 0.1177,-0.0961 0.074,0 0.091,0.0533 0.091,0.08 0,0.0266 -0.01,0.0374 -0.022,0.0532 -0.074,0.0749 -0.3415,0.0695 -0.3415,0.2883 0,0.0482 0.016,0.0961 0.053,0.1282 0.043,0.0479 0.1174,0.0694 0.2135,0.0694 0.144,0 0.1973,-0.0536 0.2134,-0.0694 0.043,-0.0428 0.053,-0.0961 0.053,-0.1282 l -0.1655,0 c -0.01,0.0162 -0.011,0.0854 -0.1012,0.0854 -0.043,0 -0.091,-0.0159 -0.091,-0.0692 0,-0.1389 0.3736,-0.0802 0.3736,-0.3365 0,-0.1066 -0.086,-0.2134 -0.2775,-0.2134" />
      <path
         id="path8173"
         style="fill:#ffffff;fill-opacity:1;fill-rule:evenodd;stroke:none"
         d="m 1961.0623,674.7795 c -0.096,0 -0.1817,0.0215 -0.235,0.0748 -0.048,0.0479 -0.053,0.1066 -0.053,0.1335 l 0.1707,0 c 0,-0.0161 0.011,-0.0961 0.1176,-0.0961 0.075,0 0.091,0.0533 0.091,0.08 0,0.0266 -0.01,0.0374 -0.022,0.0532 -0.075,0.0749 -0.3467,0.0695 -0.3467,0.2883 0,0.0482 0.021,0.0961 0.053,0.1282 0.048,0.0479 0.1227,0.0694 0.2188,0.0694 0.144,0 0.1973,-0.0536 0.2135,-0.0694 0.043,-0.0428 0.053,-0.0961 0.053,-0.1282 l -0.1653,0 c -0.01,0.0162 -0.011,0.0854 -0.1015,0.0854 -0.043,0 -0.091,-0.0159 -0.091,-0.0692 0,-0.1389 0.3736,-0.0802 0.3736,-0.3365 0,-0.1066 -0.086,-0.2134 -0.2775,-0.2134" />
      <path
         id="path8175"
         style="fill:#ffffff;fill-opacity:1;fill-rule:evenodd;stroke:none"
         d="m 1957.9774,673.4452 0,0.9553 0.1921,0 0,-0.9553 -0.1921,0 z" />
      <path
         id="path8177"
         style="fill:#ffffff;fill-opacity:1;fill-rule:evenodd;stroke:none"
         d="m 1958.7886,673.4452 0,0.411 c 0,0.0961 -0.01,0.1548 -0.1015,0.1548 -0.1493,0 -0.1547,-0.144 -0.1547,-0.2401 l 0,-0.3257 -0.1868,0 0,0.6939 0.1706,0 0.01,-0.1122 c 0.032,0.0694 0.096,0.1281 0.2242,0.1281 0.096,0 0.1389,-0.0267 0.1656,-0.0533 0.037,-0.0374 0.064,-0.0799 0.064,-0.1868 l 0,-0.4697 -0.1868,0 z" />
      <path
         id="path8179"
         style="fill:#ffffff;fill-opacity:1;fill-rule:evenodd;stroke:none"
         d="m 1959.4236,673.4293 c -0.096,0 -0.144,0.0213 -0.1814,0.0587 -0.043,0.0425 -0.043,0.112 -0.043,0.1868 l 0,0.3416 -0.1279,0 0,0.1227 0.1279,0 0,0.1922 0.1868,0 0,-0.1922 0.1817,0 0,-0.1227 -0.1817,0 0,-0.3416 c 0,-0.0961 0.032,-0.1174 0.096,-0.1174 0.037,0 0.069,0.005 0.086,0.0105 l 0,-0.1227 c -0.011,0 -0.08,-0.0159 -0.1443,-0.0159" />
      <path
         id="path8181"
         style="fill:#ffffff;fill-opacity:1;fill-rule:evenodd;stroke:none"
         d="m 1960.1334,673.8508 -0.2826,0 c 0.01,0.1228 0.059,0.1815 0.1494,0.1815 0.085,0 0.1332,-0.0587 0.1332,-0.1815 z m 0.1817,-0.0586 c 0,0.1119 -0.027,0.2134 -0.096,0.2829 -0.048,0.0479 -0.1176,0.0799 -0.2188,0.0799 -0.096,0 -0.3416,-0.0267 -0.3416,-0.3736 0,-0.256 0.1494,-0.3575 0.3362,-0.3575 0.2667,0 0.3041,0.1815 0.3041,0.2081 l -0.1706,0 c -0.01,-0.0159 -0.027,-0.0799 -0.1335,-0.0799 -0.1015,0 -0.144,0.0799 -0.144,0.1814 l 0.4589,0 c 0,0.0159 0.01,0.032 0.01,0.0587" />
      <path
         id="path8183"
         style="fill:#ffffff;fill-opacity:1;fill-rule:evenodd;stroke:none"
         d="m 1960.8327,674.0002 c -0.08,0 -0.1174,-0.0266 -0.144,-0.0533 -0.043,-0.0479 -0.059,-0.1281 -0.059,-0.2188 l 0,-0.2829 -0.1922,0 0,0.6939 0.1707,0 0.01,-0.1443 c 0.01,0.0162 0.027,0.1602 0.2242,0.1602 0.021,0 0.032,-0.005 0.037,-0.005 l 0,-0.1548 c -0.011,0 -0.016,0.005 -0.043,0.005" />
      <path
         id="path8185"
         style="fill:#ffffff;fill-opacity:1;fill-rule:evenodd;stroke:none"
         d="m 1961.4305,673.4452 0,0.411 c 0,0.0961 -0.01,0.1548 -0.1015,0.1548 -0.144,0 -0.1493,-0.144 -0.1493,-0.2401 l 0,-0.3257 -0.1868,0 0,0.6939 0.1706,0 0.01,-0.1122 c 0.032,0.0694 0.091,0.1281 0.2242,0.1281 0.091,0 0.1389,-0.0267 0.1655,-0.0533 0.032,-0.0374 0.059,-0.0799 0.059,-0.1868 l 0,-0.4697 -0.1868,0 z" />
      <path
         id="path8187"
         style="fill:#ffffff;fill-opacity:1;fill-rule:evenodd;stroke:none"
         d="m 1962.167,673.7173 c 0,-0.0587 -0.01,-0.0853 -0.032,-0.1119 -0.021,-0.0213 -0.053,-0.0375 -0.1066,-0.0375 -0.053,0 -0.1068,0.0267 -0.1068,0.0961 0,0.0907 0.08,0.112 0.2134,0.112 0,0 0.016,0 0.032,0 l 0,-0.0587 z m 0.1814,-0.2721 0,0.4431 c 0,0.208 -0.112,0.2667 -0.288,0.2667 -0.1548,0 -0.2189,-0.0533 -0.2458,-0.0746 -0.048,-0.0481 -0.048,-0.1068 -0.048,-0.1227 l 0.176,0 c 0.01,0.0641 0.054,0.0853 0.1123,0.0853 0.069,0 0.112,-0.0428 0.112,-0.1281 l 0,-0.0266 -0.037,0 c -0.091,0 -0.3894,0.0107 -0.3894,-0.235 0,-0.1228 0.08,-0.224 0.2401,-0.224 0.1547,0 0.1921,0.0907 0.2029,0.112 l 0.01,-0.0961 0.1602,0 z" />
      <path
         id="path8189"
         style="fill:#ffffff;fill-opacity:1;fill-rule:evenodd;stroke:none"
         d="m 1962.786,673.4293 c -0.096,0 -0.144,0.0213 -0.176,0.0587 -0.048,0.0425 -0.048,0.112 -0.048,0.1868 l 0,0.3416 -0.1278,0 0,0.1227 0.1278,0 0,0.1922 0.1868,0 0,-0.1922 0.1817,0 0,-0.1227 -0.1817,0 0,-0.3416 c 0,-0.0961 0.032,-0.1174 0.1015,-0.1174 0.037,0 0.064,0.005 0.08,0.0105 l 0,-0.1227 c -0.011,0 -0.075,-0.0159 -0.1443,-0.0159" />
      <path
         id="path8191"
         style="fill:#ffffff;fill-opacity:1;fill-rule:evenodd;stroke:none"
         d="m 1963.0902,674.2352 0,0.1602 0.1817,0 0,-0.1602 -0.1817,0 z m 0,-0.79 0,0.6939 0.1817,0 0,-0.6939 -0.1817,0 z" />
      <path
         id="path8193"
         style="fill:#ffffff;fill-opacity:1;fill-rule:evenodd;stroke:none"
         d="m 1963.9123,673.7922 c 0,-0.1494 -0.048,-0.2401 -0.1602,-0.2401 -0.1066,0 -0.1548,0.0907 -0.1548,0.2401 0,0.1493 0.048,0.2401 0.1548,0.2401 0.1122,0 0.1602,-0.0908 0.1602,-0.2401 z m 0.1921,0 c 0,0.2775 -0.1709,0.3628 -0.3469,0.3628 -0.1709,0 -0.3524,-0.0853 -0.3524,-0.3628 0,-0.2776 0.171,-0.3629 0.347,-0.3629 0.1763,0 0.3523,0.0853 0.3523,0.3629" />
      <path
         id="path8195"
         style="fill:#ffffff;fill-opacity:1;fill-rule:evenodd;stroke:none"
         d="m 1964.6595,673.4452 0,0.411 c 0,0.0961 -0.01,0.1548 -0.1015,0.1548 -0.1494,0 -0.1548,-0.144 -0.1548,-0.2401 l 0,-0.3257 -0.1814,0 0,0.6939 0.1655,0 0.01,-0.1122 c 0.032,0.0694 0.096,0.1281 0.224,0.1281 0.096,0 0.1389,-0.0267 0.1655,-0.0533 0.037,-0.0374 0.064,-0.0799 0.064,-0.1868 l 0,-0.4697 -0.1868,0 z" />
      <path
         id="path8197"
         style="fill:#ffffff;fill-opacity:1;fill-rule:evenodd;stroke:none"
         d="m 1965.3959,673.7173 c 0,-0.0587 -0.011,-0.0853 -0.037,-0.1119 -0.022,-0.0213 -0.048,-0.0375 -0.1069,-0.0375 -0.048,0 -0.1069,0.0267 -0.1069,0.0961 0,0.0907 0.08,0.112 0.2138,0.112 0,0 0.021,0 0.037,0 l 0,-0.0587 z m 0.1763,-0.2721 0,0.4431 c 0,0.208 -0.1122,0.2667 -0.2883,0.2667 -0.1547,0 -0.2188,-0.0533 -0.2401,-0.0746 -0.048,-0.0481 -0.053,-0.1068 -0.053,-0.1227 l 0.1763,0 c 0.011,0.0641 0.053,0.0853 0.112,0.0853 0.075,0 0.1173,-0.0428 0.1173,-0.1281 l 0,-0.0266 -0.037,0 c -0.091,0 -0.3898,0.0107 -0.3898,-0.235 0,-0.1228 0.08,-0.224 0.2401,-0.224 0.1548,0 0.1922,0.0907 0.203,0.112 l 0.01,-0.0961 0.1548,0 z" />
      <path
         id="path8199"
         style="fill:#ffffff;fill-opacity:1;fill-rule:evenodd;stroke:none"
         d="m 1965.727,673.4452 0,0.9822 0.1814,0 0,-0.9822 -0.1814,0 z" />
      <path
         id="path8201"
         style="fill:#ffffff;fill-opacity:1;fill-rule:evenodd;stroke:none"
         d="m 1958.3884,672.4525 -0.2458,0 0.1228,0.3949 0.123,-0.3949 z m 0.3146,-0.3577 -0.3362,0.9555 -0.1922,0 -0.3361,-0.9555 0.1868,0 0.069,0.2137 0.3362,0 0.069,-0.2137 0.2027,0 z" />
      <path
         id="path8203"
         style="fill:#ffffff;fill-opacity:1;fill-rule:evenodd;stroke:none"
         d="m 1958.7832,672.8848 0,0.1601 0.1868,0 0,-0.1601 -0.1868,0 z m 0,-0.79 0,0.6993 0.1868,0 0,-0.6993 -0.1868,0 z" />
      <path
         id="path8205"
         style="fill:#ffffff;fill-opacity:1;fill-rule:evenodd;stroke:none"
         d="m 1959.5358,672.6501 c -0.075,0 -0.1122,-0.0267 -0.1389,-0.0536 -0.043,-0.0425 -0.064,-0.1281 -0.064,-0.2134 l 0,-0.2883 -0.1868,0 0,0.6993 0.1709,0 0.01,-0.1494 c 0.01,0.0159 0.027,0.1602 0.2239,0.1602 0.016,0 0.032,-0.005 0.037,-0.005 l 0,-0.1494 c -0.011,0 -0.021,0 -0.048,0" />
      <path
         id="path8207"
         style="fill:#ffffff;fill-opacity:1;fill-rule:evenodd;stroke:none"
         d="m 1960.0055,672.0948 0,0.9555 0.1919,0 0,-0.8059 0.4111,0 0,-0.1496 -0.603,0 z" />
      <path
         id="path8209"
         style="fill:#ffffff;fill-opacity:1;fill-rule:evenodd;stroke:none"
         d="m 1960.742,672.8848 0,0.1601 0.1868,0 0,-0.1601 -0.1868,0 z m 0,-0.79 0,0.6993 0.1868,0 0,-0.6993 -0.1868,0 z" />
      <path
         id="path8211"
         style="fill:#ffffff;fill-opacity:1;fill-rule:evenodd;stroke:none"
         d="m 1961.5425,672.0948 0,0.411 c 0,0.1015 -0.01,0.1602 -0.1015,0.1602 -0.1494,0 -0.1494,-0.1494 -0.1494,-0.2401 l 0,-0.3311 -0.1868,0 0,0.6993 0.1656,0 0.01,-0.112 c 0.032,0.0692 0.096,0.1228 0.2294,0.1228 0.091,0 0.1335,-0.0267 0.1655,-0.0536 0.032,-0.0372 0.059,-0.08 0.059,-0.1868 l 0,-0.4697 -0.1868,0 z" />
      <path
         id="path8213"
         style="fill:#ffffff;fill-opacity:1;fill-rule:evenodd;stroke:none"
         d="m 1962.3271,672.5058 -0.2775,0 c 0,0.1176 0.053,0.1763 0.144,0.1763 0.086,0 0.1335,-0.0587 0.1335,-0.1763 z m 0.1814,-0.0641 c 0,0.1123 -0.027,0.2189 -0.091,0.2829 -0.053,0.0482 -0.1227,0.0803 -0.2188,0.0803 -0.096,0 -0.3416,-0.0267 -0.3416,-0.3737 0,-0.2562 0.1494,-0.3577 0.3308,-0.3577 0.267,0 0.3045,0.1814 0.3096,0.2135 l -0.1761,0 c -0.01,-0.0213 -0.027,-0.0854 -0.1335,-0.0854 -0.096,0 -0.1386,0.0854 -0.144,0.1868 l 0.4643,0 c 0,0.0162 0,0.0267 0,0.0533" />
      <path
         id="path8215"
         style="fill:#ffffff;fill-opacity:1;fill-rule:evenodd;stroke:none"
         d="m 1962.8929,672.0735 c -0.096,0 -0.1763,0.0213 -0.235,0.0802 -0.043,0.0426 -0.053,0.1012 -0.053,0.1279 l 0.171,0 c 0,-0.0105 0.01,-0.0907 0.1173,-0.0907 0.075,0 0.096,0.0482 0.096,0.0802 0,0.0212 -0.011,0.0374 -0.022,0.0479 -0.08,0.0748 -0.3467,0.0694 -0.3467,0.2883 0,0.0479 0.021,0.0961 0.053,0.1281 0.048,0.0479 0.1173,0.0748 0.2134,0.0748 0.1494,0 0.1976,-0.0589 0.2189,-0.0748 0.037,-0.0374 0.048,-0.0961 0.048,-0.1227 l -0.1653,0 c 0,0.0158 -0.011,0.0799 -0.1015,0.0799 -0.043,0 -0.091,-0.0105 -0.091,-0.0692 0,-0.1389 0.3736,-0.0802 0.3736,-0.3311 0,-0.1065 -0.08,-0.2188 -0.2775,-0.2188" />
    </g>
  </g>
</svg>
