<?xml version="1.0" encoding="UTF-8" standalone="no"?>
<svg
   xmlns:dc="http://purl.org/dc/elements/1.1/"
   xmlns:cc="http://creativecommons.org/ns#"
   xmlns:rdf="http://www.w3.org/1999/02/22-rdf-syntax-ns#"
   xmlns:svg="http://www.w3.org/2000/svg"
   xmlns="http://www.w3.org/2000/svg"
   version="1.1"
   id="svg4633"
   viewBox="0 0 717.70899 195.21872"
   height="195.21872"
   width="717.70898">
  <defs
     id="defs4635" />
  <metadata
     id="metadata4638">
    <rdf:RDF>
      <cc:Work
         rdf:about="">
        <dc:format>image/svg+xml</dc:format>
        <dc:type
           rdf:resource="http://purl.org/dc/dcmitype/StillImage" />
        <dc:title></dc:title>
      </cc:Work>
    </rdf:RDF>
  </metadata>
  <g
     transform="translate(13.140209,-360.46713)"
     id="layer1">
    <path
       id="path126"
       d="m 140.41643,365.46713 -148.5566393,185.21872 202.6933593,0 45.62695,-185.21872 -99.76367,0 z m 144.99805,15.6543 c -8.15558,0 -14.89291,2.30292 -19.14844,6.48632 -2.95722,2.91602 -4.76562,7.19785 -4.76562,11.6543 0,11.56617 7.72693,16.19244 16.44921,18.8457 9.80936,2.9933 16.29102,4.77972 16.29102,10.17383 0,3.60638 -2.85984,7.19922 -8.49609,7.19922 -7.17154,0 -9.7785,-4.27646 -9.94336,-8.48047 l -15.42969,0 c 0,14.30702 12.05521,19.54688 25.37305,19.54688 16.99635,0 24.2207,-9.68233 24.2207,-19.44532 0,-11.9062 -6.31132,-15.89756 -20.12891,-20.40039 -6.50693,-2.12261 -12.57617,-3.75646 -12.57617,-8.81054 0,-4.44099 4.51217,-5.91993 7.88672,-5.91993 2.85419,0 8.23325,0.60789 8.66602,7.19727 l 15.25,0 c -0.26275,-12.57596 -10.49547,-18.04687 -23.64844,-18.04687 z m 172.63281,0 c -8.14526,0 -14.91015,2.30292 -19.13476,6.48632 -2.94693,2.91602 -4.75977,7.19785 -4.75977,11.6543 0,11.56617 7.70188,16.19244 16.45508,18.8457 9.79389,2.9933 16.29492,4.77972 16.29492,10.17383 0,3.60638 -2.84883,7.19922 -8.49023,7.19922 -7.19732,0 -9.80318,-4.27646 -9.9629,-8.48047 l -15.42578,0 c 0,14.30702 12.04506,19.54688 25.38868,19.54688 16.96543,0 24.51953,-9.68233 24.51953,-19.44532 0,-13.69909 -9.96961,-17.30891 -22.00977,-20.91015 -5.80626,-1.71045 -11.01953,-3.2467 -11.01953,-8.30078 0,-4.44099 4.50773,-5.91993 7.89258,-5.91993 2.86449,0 8.22793,0.60789 8.65039,7.19727 l 15.26562,0 c -0.26275,-12.57596 -10.48016,-18.04687 -23.66406,-18.04687 z m 55.4668,0 c -8.14526,0 -14.9112,2.30292 -19.17188,6.48632 -2.93662,2.91602 -4.74414,7.19785 -4.74414,11.6543 0,11.56617 7.70171,16.19244 16.43946,18.8457 9.8042,2.9933 16.29101,4.77972 16.29101,10.17383 0,3.60638 -2.84811,7.19922 -8.48437,7.19922 -7.18184,0 -9.79022,-4.27646 -9.95508,-8.48047 l -15.43946,0 c 0,14.30702 12.05094,19.54688 25.39454,19.54688 17.01696,0 24.56445,-9.68233 24.56445,-19.44532 0,-13.69909 -10.01703,-17.30891 -22.04688,-20.91015 -5.82173,-1.71045 -10.99414,-3.2467 -10.99414,-8.30078 0,-4.44099 4.48749,-5.91993 7.86719,-5.91993 2.84904,0 8.22881,0.60789 8.67188,7.19727 l 15.28515,0 c -0.2679,-12.57596 -10.52989,-18.04687 -23.67773,-18.04687 z m -202.19922,1.44335 17.14062,62.08985 16.6504,0 12.2871,-42.58008 12.29883,42.58008 16.63477,0 17.19726,-62.08985 -15.80664,0 -10.375,41.61133 -12.14258,-41.61133 -15.58007,0 -12.13867,41.61133 -10.40626,-41.61133 -15.75976,0 z m 98.45312,0 0,62.08985 16.12696,0 0,-62.08985 -16.12696,0 z m 54.5879,86.32618 0,25.21489 c -0.18033,-0.2989 -0.5565,-0.7999 -1.13868,-1.4903 -0.56671,-0.6955 -1.38135,-1.4057 -2.4375,-2.1269 -1.05616,-0.7213 -2.36544,-1.3664 -3.93164,-1.9434 -1.5662,-0.5719 -3.43063,-0.8535 -5.59961,-0.8535 -3.25605,0 -6.02183,0.6903 -8.31445,2.0762 -2.28747,1.391 -4.15385,3.179 -5.60156,5.3789 -1.4477,2.1999 -2.50265,4.7024 -3.16211,7.5 -0.65945,2.8026 -0.99414,5.5908 -0.99414,8.3574 0,2.8336 0.31358,5.6465 0.94726,8.4492 0.63369,2.7975 1.66949,5.332 3.11719,7.5938 1.44771,2.2565 3.34921,4.091 5.69336,5.5078 2.35445,1.4168 5.24457,2.1269 8.67578,2.1269 2.3493,0 4.35278,-0.3347 6.01172,-0.9941 1.65894,-0.6595 3.02354,-1.4321 4.10547,-2.3028 1.08706,-0.8758 1.90116,-1.7211 2.44726,-2.5351 0.54097,-0.814 0.86659,-1.3711 0.99024,-1.6699 l 0.45312,6.414 6.32032,0 0,-64.70309 -7.58203,0 z m 46.98632,0.54492 c -3.79185,0 -7.27544,0.67503 -10.43359,2.03515 -3.16846,1.35497 -5.86295,3.39978 -8.09375,6.14063 -2.22565,2.746 -3.96079,6.19321 -5.19727,10.34569 -1.22616,4.1577 -1.84961,9.0424 -1.84961,14.6426 0,5.662 0.65413,10.5308 1.94727,14.5957 1.29315,4.0649 3.06961,7.4018 5.32617,10.0293 2.26171,2.6223 4.92552,4.5506 7.9961,5.7871 3.07572,1.2313 6.39364,1.8496 9.94336,1.8496 4.39462,0 7.98019,-0.6502 10.75195,-1.9434 2.77691,-1.2931 4.95563,-2.812 6.55273,-4.5585 1.59712,-1.7569 2.69481,-3.5136 3.30274,-5.2911 0.59763,-1.7774 0.90234,-3.1179 0.90234,-4.0195 l -8.4082,0 c -0.1185,0.2988 -0.35121,0.9483 -0.67578,1.9375 -0.32973,0.9995 -0.96717,2.0041 -1.89454,3.0293 -0.93766,1.0252 -2.23097,1.947 -3.88476,2.7559 -1.65893,0.814 -3.87987,1.2207 -6.64648,1.2207 -3.31272,0 -6.05367,-0.7815 -8.22266,-2.3477 -2.16898,-1.5662 -3.89897,-3.581 -5.19727,-6.0488 -1.29313,-2.4781 -2.20088,-5.2198 -2.71093,-8.2285 -0.51004,-3.0139 -0.76758,-5.9652 -0.76758,-8.8555 0,-3.0139 0.25754,-6.0851 0.76758,-9.2227 0.51005,-3.1221 1.4178,-5.9606 2.71093,-8.49019 1.2983,-2.53477 3.07546,-4.60635 5.33203,-6.23438 2.26172,-1.62802 5.10466,-2.4414 8.54102,-2.4414 2.28748,0 4.18898,0.32953 5.69336,0.99414 1.50437,0.65945 2.70973,1.44801 3.61133,2.34961 1.02524,1.02524 1.77743,2.08144 2.26172,3.1582 0.48428,1.08707 0.78384,1.96235 0.90234,2.62695 l 8.31445,0 c 0,-1.26223 -0.39072,-2.84377 -1.17382,-4.75 -0.78825,-1.89592 -1.95795,-3.62716 -3.5293,-5.19335 -1.62288,-1.62288 -3.68365,-3.00861 -6.1875,-4.15235 -2.49871,-1.14889 -5.82674,-1.7207 -9.98438,-1.7207 z m -95.0664,0.44922 0,63.70315 7.59375,0 0,-63.70315 -7.59375,0 z m -159.84766,0.72461 14.80664,62.98244 9.82031,0 13.27539,-52.58596 13.47266,52.58596 9.89844,0 14.89844,-62.98244 -8.22266,0 -11.61328,52.32424 -13.49805,-52.32424 -9.43164,0 -13.39062,52.32424 -11.61329,-52.32424 -8.40234,0 z m 98.31445,17.07814 c -2.52961,0 -5.00222,0.3646 -7.4082,1.0859 -2.41111,0.7213 -4.58097,1.9745 -6.50781,3.752 -1.93199,1.7774 -3.4816,4.1665 -4.65625,7.1855 -1.17465,3.0088 -1.76367,6.8059 -1.76367,11.3809 0,4.5852 0.57306,8.3939 1.71679,11.4336 1.14374,3.0448 2.63732,5.4651 4.47657,7.2734 1.8341,1.8084 3.95677,3.0769 6.37304,3.793 2.40598,0.7264 4.87859,1.0859 7.40821,1.0859 2.52961,0 4.99707,-0.3595 7.4082,-1.0859 2.41111,-0.7161 4.56501,-1.9846 6.46094,-3.793 1.89592,-1.8083 3.42071,-4.2286 4.56445,-7.2734 1.14374,-3.0397 1.7168,-6.8484 1.7168,-11.4336 0,-4.575 -0.55781,-8.3721 -1.67578,-11.3809 -1.11283,-3.019 -2.60053,-5.4081 -4.47071,-7.1855 -1.85985,-1.7775 -3.97172,-3.0307 -6.32617,-3.752 -2.34415,-0.7213 -4.78163,-1.0859 -7.31641,-1.0859 z m 325.03711,0 c -2.52961,0 -4.99707,0.3646 -7.4082,1.0859 -2.41111,0.7213 -4.58097,1.9745 -6.50781,3.752 -1.92684,1.7774 -3.48285,4.1665 -4.65235,7.1855 -1.17465,3.0088 -1.76757,6.8059 -1.76757,11.3809 0,4.5852 0.58406,8.3939 1.72265,11.4336 1.14374,3.0448 2.63146,5.4651 4.4707,7.2734 1.83927,1.8084 3.96264,3.0769 6.37891,3.793 2.40596,0.7264 4.87273,1.0859 7.40235,1.0859 2.52961,0 5.00222,-0.3595 7.4082,-1.0859 2.41111,-0.7161 4.56572,-1.9846 6.4668,-3.793 1.89592,-1.8083 3.41485,-4.2286 4.55859,-7.2734 1.14374,-3.0397 1.7168,-6.8484 1.7168,-11.4336 0,-4.575 -0.5571,-8.3721 -1.66993,-11.3809 -1.11797,-3.019 -2.60764,-5.4081 -4.47265,-7.1855 -1.86502,-1.7775 -3.97172,-3.0307 -6.32617,-3.752 -2.3493,-0.7213 -4.7907,-1.0859 -7.32032,-1.0859 z m -49.52148,0 c -3.31273,0 -6.11096,0.6891 -8.39844,2.0801 -2.29262,1.3859 -4.16167,3.2051 -5.60937,5.4668 -1.44255,2.2566 -2.48279,4.8012 -3.11133,7.6348 -0.63369,2.8284 -0.94922,5.6676 -0.94922,8.4961 0,2.8336 0.34479,5.5694 1.03516,8.2226 0.69036,2.6533 1.77849,5.0136 3.25195,7.0899 1.47861,2.0814 3.36487,3.7502 5.65234,5.0175 2.29263,1.2674 5.02719,1.8965 8.22657,1.8965 2.10199,0 3.94161,-0.2676 5.50781,-0.8086 1.57135,-0.5461 2.86538,-1.1606 3.89062,-1.8613 1.02009,-0.6852 1.83276,-1.3647 2.43555,-2.0293 0.59762,-0.6594 1.00061,-1.1445 1.17578,-1.4433 0,2.1689 -0.0471,4.2769 -0.13476,6.3222 -0.0927,2.0505 -0.5154,3.8697 -1.26758,5.4668 -0.75219,1.5971 -1.9423,2.8803 -3.57032,3.8438 -1.62802,0.9634 -3.9763,1.4414 -7.04687,1.4414 -2.3493,0 -4.17366,-0.2524 -5.4668,-0.7676 -1.2983,-0.5101 -2.25692,-1.0971 -2.89062,-1.7617 -0.63369,-0.6595 -1.02442,-1.309 -1.17383,-1.9375 -0.1494,-0.6389 -0.26369,-1.0723 -0.32031,-1.3145 l -7.58789,0 c 0,0.2988 0.0299,0.7986 0.0918,1.4942 0.0567,0.6852 0.26826,1.489 0.62891,2.3906 0.36064,0.9067 0.90177,1.824 1.62305,2.7617 0.72642,0.9274 1.72604,1.7892 2.98828,2.5723 1.26222,0.7882 2.88953,1.4313 4.87304,1.9414 1.99382,0.51 4.40594,0.7676 7.23438,0.7676 2.64811,0 5.25393,-0.3289 7.81445,-0.9883 2.56053,-0.6646 4.86358,-2.0199 6.91406,-4.0703 1.20557,-1.2004 2.13884,-2.4989 2.8086,-3.8848 0.6543,-1.391 1.13867,-2.8195 1.4375,-4.293 0.29881,-1.4786 0.48305,-2.9663 0.54492,-4.4707 0.0567,-1.5095 0.0879,-3.0132 0.0879,-4.5176 l 0,-39.7636 -6.32031,0 -0.45508,6.3203 c -0.30397,-0.4173 -0.72147,-1.0337 -1.26758,-1.8477 -0.54096,-0.814 -1.32242,-1.6235 -2.34765,-2.4375 -1.0304,-0.8191 -2.36575,-1.5254 -4.01953,-2.123 -1.65894,-0.6028 -3.7504,-0.9063 -6.28516,-0.9063 z m -72.74219,0 c -3.91549,0 -6.97003,0.494 -9.16992,1.4883 -2.1999,0.9892 -3.83748,2.1174 -4.92969,3.3848 -1.08191,1.2622 -1.7582,2.5054 -2.03125,3.7109 -0.2679,1.2056 -0.40625,2.045 -0.40625,2.5293 l 7.95508,0 c 0.0567,-0.3606 0.18988,-0.8305 0.40625,-1.4023 0.21124,-0.5719 0.59682,-1.127 1.17383,-1.668 0.57187,-0.5409 1.3865,-1.0267 2.4375,-1.4492 1.05615,-0.4225 2.48854,-0.6328 4.29687,-0.6328 3.36939,0 5.73364,0.8286 7.09375,2.4824 1.34983,1.6589 2.03125,4.02 2.03125,7.0957 l 0,1.9883 -3.61133,0 c -2.65842,0 -5.36495,0.1543 -8.13671,0.4531 -2.77177,0.304 -5.31638,0.9943 -7.63477,2.0762 -2.32354,1.087 -4.2199,2.6831 -5.69336,4.7851 -1.47861,2.1123 -2.20898,4.9783 -2.20898,8.5899 0,2.2308 0.38682,4.1883 1.16992,5.873 0.7831,1.6847 1.83414,3.0916 3.1582,4.1992 1.32921,1.118 2.86286,1.9474 4.60938,2.4883 1.74651,0.5461 3.56077,0.8125 5.42578,0.8125 2.40597,0 4.45663,-0.3135 6.14648,-0.9472 1.6847,-0.6286 3.07043,-1.3591 4.15235,-2.168 1.08706,-0.814 1.88519,-1.593 2.40039,-2.3555 0.51003,-0.747 0.82486,-1.2161 0.94336,-1.3965 l 0.44726,5.961 6.32813,0 0,-29.0977 c 0,-5.7135 -1.22627,-9.9537 -3.69922,-12.6894 -2.47809,-2.746 -6.68831,-4.1114 -12.6543,-4.1114 z m -152.71094,0.1817 c -2.70993,0 -4.92502,0.39 -6.64062,1.1679 -1.72076,0.7832 -3.10791,1.7056 -4.16406,2.7618 -1.05615,1.051 -1.81845,2.1079 -2.30274,3.164 -0.47914,1.051 -0.80866,1.8497 -0.99414,2.3907 l -0.45312,-8.6758 -6.32032,0 0,44.9082 7.58789,0 0,-14.4551 c 0,-2.7666 0.0612,-5.1991 0.17969,-7.2754 0.12364,-2.0762 0.36202,-3.9306 0.72266,-5.5586 0.36064,-1.6229 0.85919,-3.0405 1.49805,-4.2461 0.62853,-1.2004 1.49035,-2.3478 2.57226,-3.4297 2.10716,-2.1123 5.1209,-3.164 9.03125,-3.164 0.60278,0 1.20973,0.062 1.8125,0.1758 l 0,-7.4961 c -0.6646,-0.1804 -1.50921,-0.2676 -2.5293,-0.2676 z m 200.78907,0 c -2.70994,0 -4.92573,0.39 -6.64649,1.1679 -1.7156,0.7832 -3.10205,1.7056 -4.1582,2.7618 -1.051,1.051 -1.81774,2.1079 -2.29688,3.164 -0.48943,1.051 -0.81452,1.8497 -1,2.3907 l -0.44726,-8.6758 -6.32813,0 0,44.9082 7.58985,0 0,-14.4551 c 0,-2.7666 0.0619,-5.1991 0.18554,-7.2754 0.11849,-2.0762 0.36007,-3.9306 0.72071,-5.5586 0.36063,-1.6229 0.85459,-3.0405 1.48828,-4.2461 0.6337,-1.2004 1.49426,-2.3478 2.57617,-3.4297 2.10716,-2.1123 5.12161,-3.164 9.03711,-3.164 0.59762,0 1.21097,0.062 1.80859,0.1758 l 0,-7.4961 c -0.6646,-0.1804 -1.50921,-0.2676 -2.52929,-0.2676 z m -251.21289,5.9629 c 2.28232,0 4.21505,0.4028 5.78125,1.2168 1.5662,0.8088 2.81748,1.9773 3.75,3.4765 0.9325,1.5044 1.60754,3.3346 2.03515,5.4727 0.42246,2.1381 0.62891,4.5016 0.62891,7.0879 0,2.5966 -0.20645,4.9576 -0.62891,7.0957 -0.42761,2.138 -1.10265,3.9612 -2.03515,5.4707 -0.93252,1.5044 -2.1838,2.6785 -3.75,3.5234 -1.5662,0.8449 -3.49893,1.2617 -5.78125,1.2617 -2.23595,0 -4.11191,-0.4168 -5.65235,-1.2617 -1.53529,-0.8449 -2.77062,-2.019 -3.70312,-3.5234 -0.93252,-1.5095 -1.612,-3.3327 -2.0293,-5.4707 -0.42246,-2.1381 -0.63477,-4.4991 -0.63477,-7.0957 0,-2.5863 0.21231,-4.9498 0.63477,-7.0879 0.4173,-2.1381 1.09678,-3.9683 2.0293,-5.4727 0.9325,-1.4992 2.16783,-2.6677 3.70312,-3.4765 1.54044,-0.814 3.4164,-1.2168 5.65235,-1.2168 z m 325.03711,0 c 2.28747,0 4.2209,0.4028 5.7871,1.2168 1.5662,0.8088 2.81749,1.9773 3.75,3.4765 0.9325,1.5044 1.60684,3.3346 2.0293,5.4727 0.42246,2.1381 0.63867,4.5016 0.63867,7.0879 0,2.5966 -0.21621,4.9576 -0.63867,7.0957 -0.42246,2.138 -1.0968,3.9612 -2.0293,5.4707 -0.93251,1.5044 -2.1838,2.6785 -3.75,3.5234 -1.5662,0.8449 -3.49963,1.2617 -5.7871,1.2617 -2.23081,0 -4.10996,-0.4168 -5.6504,-1.2617 -1.53013,-0.8449 -2.76671,-2.019 -3.69921,-3.5234 -0.93767,-1.5095 -1.6127,-3.3327 -2.03516,-5.4707 -0.42246,-2.1381 -0.63477,-4.4991 -0.63477,-7.0957 0,-2.5863 0.21231,-4.9498 0.63477,-7.0879 0.42246,-2.1381 1.09749,-3.9683 2.03516,-5.4727 0.9325,-1.4992 2.16908,-2.6677 3.69921,-3.4765 1.54044,-0.814 3.4196,-1.2168 5.6504,-1.2168 z m -226.54688,0.2676 c 2.35445,0 4.28078,0.5551 5.78516,1.6679 1.50437,1.118 2.67922,2.5364 3.52929,4.252 0.83462,1.7156 1.42809,3.6151 1.75782,5.6914 0.32972,2.0814 0.49804,4.0549 0.49804,5.9199 0,1.6847 -0.16832,3.4938 -0.49804,5.4258 -0.32973,1.9217 -0.93276,3.7192 -1.8086,5.373 -0.87069,1.6538 -2.06203,3.0294 -3.5664,4.1114 -1.50438,1.087 -3.40465,1.6269 -5.69727,1.6269 -2.34415,0 -4.27688,-0.5291 -5.78125,-1.5801 -1.50437,-1.0561 -2.69449,-2.3954 -3.57031,-4.0234 -0.87584,-1.6229 -1.48897,-3.4313 -1.84961,-5.4199 -0.36064,-1.9887 -0.54102,-3.9482 -0.54102,-5.875 0,-1.865 0.18038,-3.8118 0.54102,-5.8262 0.36064,-2.0144 0.99488,-3.8739 1.89648,-5.5586 0.9016,-1.6847 2.10696,-3.0763 3.61133,-4.1582 1.50954,-1.0871 3.40589,-1.6269 5.69336,-1.6269 z m 179.01562,0 c 2.16898,0 4.00806,0.52 5.51758,1.5761 1.49923,1.0562 2.70387,2.3846 3.60547,3.9766 0.9119,1.5971 1.55057,3.375 1.94727,5.3379 0.3864,1.9526 0.58203,3.8323 0.58203,5.6406 0,1.9268 -0.16442,3.8596 -0.49414,5.7813 -0.32973,1.9319 -0.9269,3.6946 -1.80274,5.2968 -0.87583,1.5868 -2.05068,2.8846 -3.52929,3.8789 -1.47347,0.9995 -3.38508,1.4883 -5.73438,1.4883 -2.29262,0 -4.18259,-0.478 -5.69726,-1.4414 -1.50438,-0.9634 -2.70974,-2.2167 -3.61133,-3.7519 -0.9016,-1.5405 -1.55181,-3.2513 -1.94336,-5.1524 -0.39155,-1.8959 -0.58789,-3.8056 -0.58789,-5.7324 0,-1.8702 0.18109,-3.8073 0.54687,-5.832 0.35549,-2.0196 0.97894,-3.8395 1.84961,-5.4727 0.87069,-1.6229 2.06079,-2.9614 3.57032,-4.0176 1.50437,-1.0561 3.43195,-1.5761 5.78124,-1.5761 z m -69.49218,16.7109 3.97851,0 0,4.2461 c 0,1.7517 -0.2123,3.4244 -0.63476,5.0215 -0.42247,1.5919 -1.08668,2.9988 -1.98828,4.1992 -0.9016,1.2056 -2.03496,2.1693 -3.38477,2.8906 -1.36012,0.7213 -2.96773,1.0879 -4.83789,1.0879 -5.78566,0 -8.67578,-2.6179 -8.67578,-7.8574 0,-2.1741 0.48385,-3.9048 1.44726,-5.2031 0.96858,-1.2932 2.18475,-2.257 3.65821,-2.8907 1.47862,-0.6285 3.13855,-1.0364 4.97265,-1.2168 1.83412,-0.1854 3.66165,-0.2773 5.46485,-0.2773 z"
       style="fill:#cc0000;fill-opacity:1;fill-rule:nonzero;stroke:none" />
    <path
       d="m 163.5341,440.98978 0,-39.8814 -34.18333,0 0,39.8814 -39.876247,0 0,34.17817 39.850487,0 0,39.88141 34.18333,0 0,-39.88141 0.0257,0 39.88141,0 0,-34.17817 -39.88141,0 z"
       style="fill:#ffffff;fill-opacity:1;fill-rule:nonzero;stroke:none"
       id="path186" />
  </g>
</svg>
