<?xml version="1.0" encoding="UTF-8" standalone="no"?>
<!-- Created with Inkscape (http://www.inkscape.org/) -->
<svg
   xmlns:svg="http://www.w3.org/2000/svg"
   xmlns="http://www.w3.org/2000/svg"
   version="1.0"
   width="1133.8583"
   height="226.77165"
   id="svg2">
  <defs
     id="defs4" />
  <g
     transform="translate(32.069339,-192.17541)"
     id="layer1">
    <g
       transform="translate(35.433069,35.419661)"
       id="g2658">
      <path
         d="M 253.97137,287.12458 C 254.56228,298.33485 263.71004,302.81782 275.42599,302.81782 C 283.72715,302.81782 292.33513,299.38031 292.33513,291.52233 C 292.33513,282.1757 278.27259,279.12456 262.69867,276.09614 C 247.39749,273.12454 231.70425,267.1927 231.70425,245.5449 C 231.70425,221.8971 254.09637,213.84025 276.00553,213.84025 C 298.26129,213.84025 318.32385,222.51642 318.32385,249.66992 L 293.13059,249.66992 C 290.99422,236.41419 283.72715,233.57327 274.16462,233.57327 C 268.23278,233.57327 258.7157,237.56192 258.7157,244.53354 C 258.7157,255.44266 272.47711,255.64721 289.60785,259.61881 C 304.95449,263.18132 320.6875,271.21544 320.6875,288.26095 C 320.6875,315.09627 297.84651,323.70425 274.56235,323.70425 C 250.24409,323.70425 228.73833,313.01672 228.59061,287.12458 L 253.97137,287.12458 L 253.97137,287.12458 z"
         id="path2580"
         style="fill:#004283;fill-rule:evenodd" />
      <polygon
         points="91.835,3.989 106.084,3.989 106.084,7.84 96.641,7.84 96.641,11.07 105.03,11.07 105.03,14.792 96.641,14.792 96.641,18.743 106.376,18.743 106.376,22.44 91.835,22.44 91.835,3.989 "
         transform="matrix(5.6818368,0,0,5.6818368,-32.069339,192.17541)"
         id="polygon2582"
         style="fill:#004283;fill-rule:evenodd" />
      <polygon
         points="111.432,15.561 107.168,9.315 112.027,9.315 113.913,12.451 115.799,9.315 120.451,9.315 116.264,15.487 121.02,22.44 116.162,22.44 113.835,18.647 111.639,22.44 106.781,22.44 111.432,15.561 "
         transform="matrix(5.6818368,0,0,5.6818368,-32.069339,192.17541)"
         id="polygon2584"
         style="fill:#004283;fill-rule:evenodd" />
      <path
         d="M 658.60906,245.10172 L 680.77391,245.10172 L 682.52959,251.15288 L 682.81937,251.15288 C 689.96712,244.57899 693.9444,242.18126 705.02967,242.18126 C 728.96156,242.18126 738.7116,263.06201 738.7116,284.03935 C 738.7116,303.43714 727.18883,322.21561 705.59785,322.21561 C 696.20577,322.21561 689.00689,320.13037 683.87051,313.36899 L 683.57505,313.36899 L 683.57505,345.93728 L 658.60906,345.93728 L 658.60906,245.10172 L 658.60906,245.10172 z M 683.07505,281.15866 C 683.07505,294.61893 687.0012,303.35191 698.62056,303.35191 C 710.09787,303.35191 714.01833,291.66437 714.01833,281.15866 C 714.01833,271.39726 710.09787,260.60177 698.77396,260.60177 C 691.83076,260.59609 683.07505,265.32906 683.07505,281.15866 L 683.07505,281.15866 z"
         id="path2586"
         style="fill:#004283;fill-rule:evenodd" />
      <path
         d="M 818.80845,287.20413 C 819.24595,297.7553 824.69483,303.69282 835.26305,303.69282 C 841.2858,303.69282 845.76308,301.91441 848.10968,294.73825 L 873.42795,294.73825 C 868.8768,314.10195 852.3881,322.11334 835.35396,322.11334 C 809.52433,322.11334 793.46746,306.67579 793.46746,280.80638 C 793.46746,257.17562 810.00728,240.2267 834.00736,240.2267 C 863.63814,240.2267 874.17227,261.06768 874.17227,287.19845 L 818.80845,287.19845 L 818.80845,287.20413 z M 848.26309,270.69271 C 847.81991,264.45974 842.75739,257.9029 834.39373,257.9029 C 825.5812,257.9029 821.04709,263.7211 819.58118,270.69271 L 848.26309,270.69271 L 848.26309,270.69271 z"
         id="path2588"
         style="fill:#004283;fill-rule:evenodd" />
      <path
         d="M 398.63094,320.20992 L 376.63655,320.20992 L 375.52291,314.3349 L 375.23881,314.3349 C 368.15925,320.26106 359.53422,322.33493 353.71602,322.33493 C 345.67054,322.33493 328.64207,320.26106 326.66479,296.83484 L 326.66479,245.66422 L 351.17055,245.66422 L 351.17055,293.15301 C 352.23306,300.89736 357.26148,303.95987 361.86377,303.95987 C 369.97743,303.95987 374.41495,298.83485 374.41495,281.68707 L 374.41495,245.66422 L 398.63662,245.66422 L 398.63662,320.20992 L 398.63094,320.20992 z"
         id="path2590"
         style="fill:#004283;fill-rule:evenodd" />
      <path
         d="M 408.01165,245.24945 L 430.00604,245.24945 L 431.11968,251.11878 L 431.40377,251.11878 C 438.48334,245.19831 447.10837,243.12444 452.93225,243.12444 C 460.97773,243.12444 478.00051,245.19831 479.98348,268.61884 L 479.98348,319.79515 L 455.48339,319.79515 L 455.48339,272.30067 C 454.40953,264.56201 449.3811,261.49382 444.77881,261.49382 C 436.66515,261.49382 432.22764,266.62452 432.22764,283.7723 L 432.22764,319.79515 L 408.01165,319.79515 L 408.01165,245.24945 L 408.01165,245.24945 z"
         id="path2592"
         style="fill:#004283;fill-rule:evenodd" />
      <path
         d="M 792.672,263.14155 C 777.4049,263.14155 770.37647,266.6302 770.37647,283.77798 L 770.37647,319.80083 L 744.33093,319.80083 L 744.33093,245.24945 L 766.32532,245.24945 L 767.89919,252.57334 L 768.18328,252.57334 C 771.28557,248.07332 778.55264,243.12444 792.6095,243.12444 L 792.672,263.14155 L 792.672,263.14155 z"
         id="path2594"
         style="fill:#004283;fill-rule:evenodd" />
      <path
         d="M 902.27463,293.84052 C 902.27463,298.17008 903.88827,300.37463 906.38828,302.29509 C 908.73488,304.06214 911.53603,304.8576 915.06445,304.8576 C 919.91105,304.8576 926.8088,303.55646 926.8088,297.51098 C 926.8088,293.19279 918.72923,290.52801 914.24058,289.97687 C 898.43371,288.03368 879.89956,284.78367 879.89956,266.2552 C 879.89956,249.31764 897.67234,240.90284 914.03035,240.90284 C 931.70086,240.90284 949.12706,245.77786 949.12706,267.86884 L 926.07016,267.86884 C 925.6838,263.08473 924.98493,261.52791 922.93947,260.18131 C 920.51333,258.5904 918.12696,258.16994 915.29172,258.16994 C 911.17807,258.16994 906.10419,259.82904 906.10419,263.82337 C 906.10419,271.04499 920.95083,271.04499 932.38268,273.6359 C 947.38273,277.03932 952.1498,287.07913 952.1498,295.51666 C 952.1498,313.4599 936.48497,322.40311 915.20649,322.40311 C 897.14393,322.40311 878.64387,315.78945 878.48478,293.84052 L 902.27463,293.84052 L 902.27463,293.84052 z"
         id="path2596"
         style="fill:#004283;fill-rule:evenodd" />
      <path
         d="M 981.04762,293.84052 C 981.04762,298.17008 982.66126,300.37463 985.16127,302.29509 C 987.50787,304.06214 990.31469,304.8576 993.83743,304.8576 C 998.68404,304.8576 1005.5818,303.55646 1005.5818,297.51098 C 1005.5818,293.19279 997.50222,290.52801 993.01357,289.97687 C 977.2067,288.03368 958.67823,284.78367 958.67823,266.2552 C 958.67823,249.31764 976.44533,240.90284 992.80902,240.90284 C 1010.4738,240.90284 1027.9,245.77786 1027.9,267.86884 L 1004.8431,267.86884 C 1004.4568,263.08473 1003.7579,261.52791 1001.7125,260.18131 C 999.292,258.5904 996.89994,258.16994 994.06471,258.16994 C 989.95106,258.16994 984.87718,259.82904 984.87718,263.82337 C 984.87718,271.04499 999.72381,271.04499 1011.1557,273.6359 C 1026.1557,277.03932 1030.9228,287.07913 1030.9228,295.51666 C 1030.9228,313.4599 1015.258,322.40311 993.97948,322.40311 C 975.91692,322.40311 957.41686,315.78945 957.25777,293.84052 L 981.04762,293.84052 L 981.04762,293.84052 z"
         id="path2598"
         style="fill:#004283;fill-rule:evenodd" />
      <polygon
         points="8.811,11.712 1.404,7.626 0.819,8.896 5.903,11.692 0.101,11.712 0.006,13.106 8.464,13.067 8.811,11.712 "
         transform="matrix(5.6818368,0,0,5.6818368,-32.069339,192.17541)"
         id="polygon2600"
         style="fill:#004283;fill-rule:evenodd" />
      <path
         d="M 123.77776,274.66432 C 121.39707,315.62468 87.425371,348.10774 45.868416,348.10774 C 4.1750979,348.10774 -29.881832,315.41445 -32.069339,274.26659 L -23.381811,274.27227 C -21.205667,310.63034 8.9648864,339.44294 45.868416,339.44294 C 82.760583,339.44294 112.93114,310.64739 115.11864,274.295 L 123.77776,274.66432 L 123.77776,274.66432 z"
         id="path2602"
         style="fill:#004283;fill-rule:evenodd" />
      <polygon
         points="10.472,9.521 6.111,2.273 4.969,3.079 7.966,8.047 2.936,5.155 2.155,6.314 9.494,10.521 10.472,9.521 "
         transform="matrix(5.6818368,0,0,5.6818368,-32.069339,192.17541)"
         id="polygon2604"
         style="fill:#004283;fill-rule:evenodd" />
      <polygon
         points="13.007,8.459 12.868,0.001 11.476,0.126 11.579,5.927 8.675,0.903 7.418,1.515 11.66,8.833 13.007,8.459 "
         transform="matrix(5.6818368,0,0,5.6818368,-32.069339,192.17541)"
         id="polygon2606"
         style="fill:#004283;fill-rule:evenodd" />
      <polygon
         points="15.734,8.811 19.853,1.422 18.586,0.832 15.767,5.904 15.773,0.101 14.379,0 14.381,8.459 15.734,8.811 "
         transform="matrix(5.6818368,0,0,5.6818368,-32.069339,192.17541)"
         id="polygon2608"
         style="fill:#004283;fill-rule:evenodd" />
      <polygon
         points="17.917,10.481 25.185,6.153 24.384,5.007 19.403,7.982 22.316,2.965 21.161,2.178 16.923,9.499 17.917,10.481 "
         transform="matrix(5.6818368,0,0,5.6818368,-32.069339,192.17541)"
         id="polygon2610"
         style="fill:#004283;fill-rule:evenodd" />
      <polygon
         points="18.969,13.021 27.427,12.919 27.309,11.527 21.507,11.604 26.543,8.723 25.938,7.463 18.601,11.673 18.969,13.021 "
         transform="matrix(5.6818368,0,0,5.6818368,-32.069339,192.17541)"
         id="polygon2612"
         style="fill:#004283;fill-rule:evenodd" />
    </g>
  </g>
</svg>
