<?xml version="1.0" encoding="UTF-8" standalone="no"?>
<!-- Created with Inkscape (http://www.inkscape.org/) -->

<svg
   width="79.375mm"
   height="25.133041mm"
   viewBox="0 0 79.375 25.133041"
   version="1.1"
   id="svg1"
   inkscape:version="1.4 (86a8ad7, 2024-10-11)"
   sodipodi:docname="TAAG 2023 wordmark.svg"
   xmlns:inkscape="http://www.inkscape.org/namespaces/inkscape"
   xmlns:sodipodi="http://sodipodi.sourceforge.net/DTD/sodipodi-0.dtd"
   xmlns="http://www.w3.org/2000/svg"
   xmlns:svg="http://www.w3.org/2000/svg">
  <sodipodi:namedview
     id="namedview1"
     pagecolor="#ffffff"
     bordercolor="#000000"
     borderopacity="0.25"
     inkscape:showpageshadow="2"
     inkscape:pageopacity="0.0"
     inkscape:pagecheckerboard="0"
     inkscape:deskcolor="#d1d1d1"
     inkscape:document-units="mm"
     inkscape:zoom="4.0567375"
     inkscape:cx="117.08916"
     inkscape:cy="44.000875"
     inkscape:window-width="1920"
     inkscape:window-height="1001"
     inkscape:window-x="-9"
     inkscape:window-y="-9"
     inkscape:window-maximized="1"
     inkscape:current-layer="layer1" />
  <defs
     id="defs1" />
  <g
     inkscape:label="Layer 1"
     inkscape:groupmode="layer"
     id="layer1"
     transform="translate(32.922377,14.399817)">
    <path
       id="path2"
       class="st0"
       d="m 40.724324,-14.399817 c -9.609958,0 -13.676444,7.2991657 -13.676444,14.50663397 0,6.28343413 4.066846,10.62640703 11.73633,10.62640703 1.663264,0 3.048236,-0.276129 4.896307,-0.7381455 l 2.402131,-13.1223853 c -3.14172,0 -4.895946,1.5719458 -5.450367,4.8060669 l -0.831992,4.8963047 h -0.554061 c -4.804975,0 -7.30024,-2.5858598 -7.30024,-6.83641862 0,-5.72901398 2.955832,-10.07234618 8.592448,-10.07234618 2.125282,0 3.789626,0.4612963 5.268083,1.10812 l 0.646104,-4.250201 c -1.29365,-0.554421 -3.695421,-0.924036 -5.728299,-0.924036 z m -72.906751,0.277933 -0.73995,3.972269 h 7.208198 l -3.788184,20.420821 h 4.712219 l 3.604099,-20.420821 h 4.066116 c 2.6797,0 4.71222,-1.384973 5.174238,-3.972269 z m 29.1991567,0 c -5.9138202,0 -7.7622597,3.048238 -9.6103287,7.2063923 L -21.00196,10.365053 h 4.990152 l 7.3922832,-15.8944914 c 1.3860521,-3.049313 2.6789838,-4.5281336 5.7282975,-4.5281336 h 1.4798999 l -1.2019677,6.6541375 c 1.2012451,0.2772097 2.03215622,0.9233137 2.49417393,1.5701376 H -2.1512772 c -3.9733485,0 -6.4686111,1.29437485 -8.2242768,3.9740746 h 6.6541381 l -1.4798997,8.1304283 h 4.71402359 l 4.06431231,-24.39309 z m 22.5468243,0 c -5.913817,0 -7.945983,2.955834 -9.886458,7.2063923 L 1.7289496,10.365053 H 6.7191009 L 13.649367,-5.5294384 c 1.386053,-3.1417167 2.86487,-4.5281336 5.914187,-4.5281336 h 1.570139 l -1.200164,6.6541375 c 1.201245,0.2772097 2.032157,0.9233137 2.494174,1.5701376 h -2.032157 c -3.973352,0 -6.468608,1.29437485 -8.224275,3.9740746 h 6.652334 l -1.478096,8.1304283 h 4.71222 l 4.066116,-24.39309 z"
       style="fill:#ff3c00;fill-opacity:1;stroke-width:1.88854" />
  </g>
</svg>
