<?xml version="1.0" encoding="UTF-8" standalone="no"?>
<!-- Created with Inkscape (http://www.inkscape.org/) -->

<svg
   width="79.374969mm"
   height="39.621113mm"
   viewBox="0 0 79.374969 39.621113"
   version="1.1"
   id="svg1"
   inkscape:version="1.4 (86a8ad7, 2024-10-11)"
   sodipodi:docname="TAAG 1973 wordmark.svg"
   xmlns:inkscape="http://www.inkscape.org/namespaces/inkscape"
   xmlns:sodipodi="http://sodipodi.sourceforge.net/DTD/sodipodi-0.dtd"
   xmlns="http://www.w3.org/2000/svg"
   xmlns:svg="http://www.w3.org/2000/svg">
  <sodipodi:namedview
     id="namedview1"
     pagecolor="#ffffff"
     bordercolor="#000000"
     borderopacity="0.25"
     inkscape:showpageshadow="2"
     inkscape:pageopacity="0.0"
     inkscape:pagecheckerboard="0"
     inkscape:deskcolor="#d1d1d1"
     inkscape:document-units="mm"
     inkscape:zoom="4.0567375"
     inkscape:cx="100.08042"
     inkscape:cy="86.399478"
     inkscape:window-width="1920"
     inkscape:window-height="1001"
     inkscape:window-x="-9"
     inkscape:window-y="-9"
     inkscape:window-maximized="1"
     inkscape:current-layer="layer1" />
  <defs
     id="defs1" />
  <g
     inkscape:label="Layer 1"
     inkscape:groupmode="layer"
     id="layer1"
     transform="translate(58.990882,21.272398)">
    <path
       style="fill:#241a04;stroke-width:1.51352"
       clip-path="none"
       d="M 0.80367596,5.2736452 H 7.56805 c 0,0 -0.4083372,7.7790298 -5.526989,7.7790298 l -3.2172011,0.04125 c 0,0 -1.2910059,-0.243354 -1.3322516,-0.890918 l -1.7323418,6.129183 h 6.4467801 c 0,0 3.3079444,-0.325845 4.1947366,-3.023345 V 18.33219 L 11.115222,18.29094 16.155506,0.15499378 H 2.1771732 L 0.80367596,5.2736452"
       id="path471" />
    <path
       style="fill:#241a04;stroke-width:1.51352"
       clip-path="none"
       d="m 5.1097776,-15.266954 1.7323396,-6.00132 c 0,0 3.1842058,0 8.7854368,0 6.087937,0 4.594825,4.879424 4.594825,4.879424 L 17.24028,-5.6689673 h -6.731377 c 0,0 2.095306,-7.9398907 2.458273,-9.4288777 0,0 0.544449,-1.695218 -1.794209,-1.695218 H 8.6157031 c 0,-0.0041 -3.0645923,0.218604 -3.5059255,1.526109"
       id="path473" />
    <path
       style="fill:#241a04;stroke-width:1.51352"
       clip-path="none"
       d="m -49.496044,18.348685 2.346907,-4.09987 5.683725,-9.8578382 6.739626,-11.7056667 5.650726,-9.8083421 2.379906,-4.149366 h 9.886711 l -1.167269,4.149366 -5.972447,21.5140088 -2.771742,9.8578382 -1.13427,4.09987 h -7.028351 l 3.827646,-13.0049215 h -5.543487 l -7.618169,13.0049215 h -5.279512 m 19.686802,-18.18544199 3.699783,-13.34726501 -7.873896,13.40088506 4.174113,-0.05362"
       id="path475" />
    <path
       style="fill:#241a04;stroke-width:1.51352"
       clip-path="none"
       d="m -27.854171,18.348685 2.346907,-4.09987 5.658975,-9.8578382 6.793247,-11.7056667 5.6218548,-9.8083421 2.3799063,-4.149366 H 4.8581746 L 3.719782,-17.123032 0.94803732,-7.3146899 -2.3310338,4.3909768 -5.0532809,14.248815 -6.187553,18.348685 h -7.057222 L -9.4336275,5.3437635 h -5.5269885 l -7.618169,13.0049215 h -5.275386 M -8.1384957,0.16324301 -4.4593371,-13.184022 -12.308485,0.21686306 l 4.1699893,-0.05362"
       id="path477" />
    <polyline
       style="fill:#241a04;stroke-width:0.366947"
       clip-path="none"
       points="840.867,791.446 840.534,792.625 842.956,792.625       840.534,801.051 842.405,801.051 844.744,792.625 846.614,792.612 846.954,791.446 840.867,791.446     "
       id="polyline479"
       transform="matrix(4.1246183,0,0,4.1246183,-3525.8728,-3285.6809)" />
  </g>
</svg>
