<?xml version="1.0" encoding="UTF-8" standalone="no"?>
<!-- Created with Inkscape (http://www.inkscape.org/) -->
<svg
   xmlns:svg="http://www.w3.org/2000/svg"
   xmlns="http://www.w3.org/2000/svg"
   version="1.0"
   width="814.96063"
   height="263.2677"
   id="svg8461">
  <defs
     id="defs8463"><clipPath
   id="clp91">
<path
   d="M 0,841.02 L 594.96,841.02 L 594.96,0.06 L 0,0.06 L 0,841.02 z "
   id="path2606" />

</clipPath>
<clipPath
   id="clp90">
<path
   d="M 0,841 L 595,841 L 595,0 L 0,0 L 0,841 z "
   id="path2600" />

</clipPath>
<clipPath
   id="clp89">
<path
   d="M 162.99,186.54 L 255.12,186.54 L 255.12,138.35 L 162.99,138.35 L 162.99,186.54 z "
   id="path2594" />

</clipPath>
<clipPath
   id="clp56">
<path
   d="M 43.58,152.84 L 133.39,152.84 L 133.39,172.14 L 43.58,172.14 L 43.58,152.84 z "
   id="path1490" />

</clipPath>
<clipPath
   id="clp57">
<path
   d="M 43.58,152.84 L 133.39,152.84 L 133.39,172.14 L 43.58,172.14 L 43.58,152.84 z "
   id="path1506" />

</clipPath>
<clipPath
   id="clp58">
<path
   d="M 43.58,152.84 L 133.39,152.84 L 133.39,172.14 L 43.58,172.14 L 43.58,152.84 z "
   id="path1522" />

</clipPath>
<clipPath
   id="clp51">
<path
   d="M 49.28,239.22 L 127.78,239.22 L 127.78,280.45 L 49.28,280.45 L 49.28,239.22 z "
   id="path1356" />

</clipPath>
<clipPath
   id="clp77">
<path
   d="M 164.4,503.55 L 253.67,503.55 L 253.67,518.03 L 164.4,518.03 L 164.4,503.55 z "
   id="path2388" />

</clipPath>
<clipPath
   id="clp19">
<path
   d="M 49.76,503.14 L 127.27,503.14 L 127.27,518.49 L 49.76,518.49 L 49.76,503.14 z "
   id="path254" />

</clipPath>
<clipPath
   id="clp18">
<path
   d="M 51.62,538.86 L 125.35,538.86 L 125.35,578.98 L 51.62,578.98 L 51.62,538.86 z "
   id="path224" />

</clipPath>
<clipPath
   id="clp73">
<path
   d="M 183.38,592.14 L 234.69,592.14 L 234.69,622.09 L 183.38,622.09 L 183.38,592.14 z "
   id="path2344" />

</clipPath>
<clipPath
   id="clp74">
<path
   d="M 183.38,592.14 L 234.69,592.14 L 234.69,622.09 L 183.38,622.09 L 183.38,592.14 z "
   id="path2364" />

</clipPath>
<clipPath
   id="clp70">
<path
   d="M 178.54,632.58 L 239.43,632.58 L 239.43,678.21 L 178.54,678.21 L 178.54,632.58 z "
   id="path2292" />

</clipPath>
<clipPath
   id="clp71">
<path
   d="M 178.54,632.58 L 239.43,632.58 L 239.43,678.21 L 178.54,678.21 L 178.54,632.58 z "
   id="path2316" />

</clipPath>
<clipPath
   id="clp72">
<path
   d="M 178.54,632.58 L 239.43,632.58 L 239.43,678.21 L 178.54,678.21 L 178.54,632.58 z "
   id="path2328" />

</clipPath>
<clipPath
   id="clp17">
<path
   d="M 45.19,647.41 L 131.79,647.41 L 131.79,663.18 L 45.19,663.18 L 45.19,647.41 z "
   id="path162" />

</clipPath>
<clipPath
   id="clp4">
<path
   d="M 45.29,692.27 L 131.66,692.27 L 131.66,714.87 L 45.29,714.87 L 45.29,692.27 z "
   id="path26" />

</clipPath>
<clipPath
   id="clp5">
<path
   d="M 45.29,692.27 L 131.66,692.27 L 131.66,714.87 L 45.29,714.87 L 45.29,692.27 z "
   id="path42" />

</clipPath>
<clipPath
   id="clp6">
<path
   d="M 45.29,692.27 L 131.66,692.27 L 131.66,714.87 L 45.29,714.87 L 45.29,692.27 z "
   id="path52" />

</clipPath>
<clipPath
   id="clp7">
<path
   d="M 45.29,692.27 L 131.66,692.27 L 131.66,714.87 L 45.29,714.87 L 45.29,692.27 z "
   id="path62" />

</clipPath>
<clipPath
   id="clp8">
<path
   d="M 45.29,692.27 L 131.66,692.27 L 131.66,714.87 L 45.29,714.87 L 45.29,692.27 z "
   id="path72" />

</clipPath>
<clipPath
   id="clp9">
<path
   d="M 45.29,692.27 L 131.66,692.27 L 131.66,714.87 L 45.29,714.87 L 45.29,692.27 z "
   id="path82" />

</clipPath>
<clipPath
   id="clp10">
<path
   d="M 45.29,692.27 L 131.66,692.27 L 131.66,714.87 L 45.29,714.87 L 45.29,692.27 z "
   id="path92" />

</clipPath>
<clipPath
   id="clp11">
<path
   d="M 45.29,692.27 L 131.66,692.27 L 131.66,714.87 L 45.29,714.87 L 45.29,692.27 z "
   id="path102" />

</clipPath>
<clipPath
   id="clp12">
<path
   d="M 45.29,692.27 L 131.66,692.27 L 131.66,714.87 L 45.29,714.87 L 45.29,692.27 z "
   id="path112" />

</clipPath>
<clipPath
   id="clp13">
<path
   d="M 45.29,692.27 L 131.66,692.27 L 131.66,714.87 L 45.29,714.87 L 45.29,692.27 z "
   id="path122" />

</clipPath>
<clipPath
   id="clp14">
<path
   d="M 45.29,692.27 L 131.66,692.27 L 131.66,714.87 L 45.29,714.87 L 45.29,692.27 z "
   id="path132" />

</clipPath>
<clipPath
   id="clp15">
<path
   d="M 45.29,692.27 L 131.66,692.27 L 131.66,714.87 L 45.29,714.87 L 45.29,692.27 z "
   id="path142" />

</clipPath>
<clipPath
   id="clp16">
<path
   d="M 45.29,692.27 L 131.66,692.27 L 131.66,714.87 L 45.29,714.87 L 45.29,692.27 z "
   id="path152" />

</clipPath>

<clipPath
   id="clipPath6577">
<path
   d="M 45.29,692.27 L 131.66,692.27 L 131.66,714.87 L 45.29,714.87 L 45.29,692.27 z "
   id="path6579" />

</clipPath>



<clipPath
   id="clipPath6588">
<path
   d="M 45.29,692.27 L 131.66,692.27 L 131.66,714.87 L 45.29,714.87 L 45.29,692.27 z "
   id="path6590" />

</clipPath>



<clipPath
   id="clipPath6596">
<path
   d="M 45.29,692.27 L 131.66,692.27 L 131.66,714.87 L 45.29,714.87 L 45.29,692.27 z "
   id="path6598" />

</clipPath>



<clipPath
   id="clipPath6604">
<path
   d="M 45.29,692.27 L 131.66,692.27 L 131.66,714.87 L 45.29,714.87 L 45.29,692.27 z "
   id="path6606" />

</clipPath>



<clipPath
   id="clipPath6612">
<path
   d="M 45.29,692.27 L 131.66,692.27 L 131.66,714.87 L 45.29,714.87 L 45.29,692.27 z "
   id="path6614" />

</clipPath>



<clipPath
   id="clipPath6620">
<path
   d="M 45.29,692.27 L 131.66,692.27 L 131.66,714.87 L 45.29,714.87 L 45.29,692.27 z "
   id="path6622" />

</clipPath>



<clipPath
   id="clipPath6628">
<path
   d="M 45.29,692.27 L 131.66,692.27 L 131.66,714.87 L 45.29,714.87 L 45.29,692.27 z "
   id="path6630" />

</clipPath>



<clipPath
   id="clipPath6636">
<path
   d="M 45.29,692.27 L 131.66,692.27 L 131.66,714.87 L 45.29,714.87 L 45.29,692.27 z "
   id="path6638" />

</clipPath>



<clipPath
   id="clipPath6644">
<path
   d="M 45.29,692.27 L 131.66,692.27 L 131.66,714.87 L 45.29,714.87 L 45.29,692.27 z "
   id="path6646" />

</clipPath>



<clipPath
   id="clipPath6652">
<path
   d="M 45.29,692.27 L 131.66,692.27 L 131.66,714.87 L 45.29,714.87 L 45.29,692.27 z "
   id="path6654" />

</clipPath>



<clipPath
   id="clipPath6660">
<path
   d="M 45.29,692.27 L 131.66,692.27 L 131.66,714.87 L 45.29,714.87 L 45.29,692.27 z "
   id="path6662" />

</clipPath>



<clipPath
   id="clipPath6668">
<path
   d="M 45.29,692.27 L 131.66,692.27 L 131.66,714.87 L 45.29,714.87 L 45.29,692.27 z "
   id="path6670" />

</clipPath>



<clipPath
   id="clipPath6676">
<path
   d="M 45.29,692.27 L 131.66,692.27 L 131.66,714.87 L 45.29,714.87 L 45.29,692.27 z "
   id="path6678" />

</clipPath>

































<clipPath
   id="clipPath6684">
<path
   d="M 45.19,647.41 L 131.79,647.41 L 131.79,663.18 L 45.19,663.18 L 45.19,647.41 z "
   id="path6686" />

</clipPath>





<clipPath
   id="clipPath7915">
<path
   d="M 178.54,632.58 L 239.43,632.58 L 239.43,678.21 L 178.54,678.21 L 178.54,632.58 z "
   id="path7917" />

</clipPath>



<clipPath
   id="clipPath7930">
<path
   d="M 178.54,632.58 L 239.43,632.58 L 239.43,678.21 L 178.54,678.21 L 178.54,632.58 z "
   id="path7932" />

</clipPath>



<clipPath
   id="clipPath7939">
<path
   d="M 178.54,632.58 L 239.43,632.58 L 239.43,678.21 L 178.54,678.21 L 178.54,632.58 z "
   id="path7941" />

</clipPath>












<clipPath
   id="clipPath6718">
<path
   d="M 51.62,538.86 L 125.35,538.86 L 125.35,578.98 L 51.62,578.98 L 51.62,538.86 z "
   id="path6720" />

</clipPath>








<clipPath
   id="clipPath7984">
<path
   d="M 164.4,503.55 L 253.67,503.55 L 253.67,518.03 L 164.4,518.03 L 164.4,503.55 z "
   id="path7986" />

</clipPath>





<clipPath
   id="clipPath7468">
<path
   d="M 43.58,152.84 L 133.39,152.84 L 133.39,172.14 L 43.58,172.14 L 43.58,152.84 z "
   id="path7470" />

</clipPath>



<clipPath
   id="clipPath7479">
<path
   d="M 43.58,152.84 L 133.39,152.84 L 133.39,172.14 L 43.58,172.14 L 43.58,152.84 z "
   id="path7481" />

</clipPath>



<clipPath
   id="clipPath7490">
<path
   d="M 43.58,152.84 L 133.39,152.84 L 133.39,172.14 L 43.58,172.14 L 43.58,152.84 z "
   id="path7492" />

</clipPath>












<clipPath
   id="clipPath8123">
<path
   d="M 162.99,186.54 L 255.12,186.54 L 255.12,138.35 L 162.99,138.35 L 162.99,186.54 z "
   id="path8125" />

</clipPath>





<clipPath
   id="clipPath8129">
<path
   d="M 0,841 L 595,841 L 595,0 L 0,0 L 0,841 z "
   id="path8131" />

</clipPath>





<clipPath
   id="clipPath8135">
<path
   d="M 0,841.02 L 594.96,841.02 L 594.96,0.06 L 0,0.06 L 0,841.02 z "
   id="path8137" />

</clipPath>

















</defs>
  <g
     transform="translate(-1441.1937,872.57136)"
     id="layer1">
    <g
       transform="translate(17.707351,17.786519)"
       id="g10569">
      <path
         d="M 217.3125,-34.28125 C 214.4179,-32.50745 212.08265,-30.271149 209.46875,-27.84375 L 149.53125,24.8125 L 146.34375,28.5625 C 144.28985,32.11007 144.38395,37.233261 146.53125,40.6875 C 151.10575,49.27647 161.84614,46.192199 169.78125,47.3125 L 170.71875,48.25 C 171.74605,75.88392 171.28339,104.55442 171.75,132.375 C 171.6567,135.92264 172.035,139.35714 172.875,142.53125 C 174.8356,150.74676 182.84785,157.56719 191.15625,158.6875 C 200.30535,159.52774 209.5701,158.78125 218.8125,158.78125 L 219.375,158.40625 L 219.75,142.34375 C 219.9366,141.87696 220.0967,141.12613 220.75,141.40625 C 226.0712,148.31466 233.28274,153.10433 241.03125,155.625 C 256.71545,159.91948 275.28786,158.59298 291.71875,158.40625 L 332.875,122.09375 L 334.375,121.53125 C 334.8423,121.43792 334.84455,122.00112 335.03125,122.28125 L 335.3125,164.65625 L 335.5,192.40625 L 335.96875,193.40625 C 336.52865,193.40625 336.90761,192.96763 337.375,192.6875 L 375.9375,158.40625 C 376.6848,149.72402 375.75224,142.15105 376.40625,133.46875 L 377.96875,131.4375 L 420,93.71875 C 439.4188,75.88743 461.15035,54.977601 452.28125,27.34375 C 448.45405,14.46034 435.47574,3.8038 422.21875,1.75 C 408.02845,-1.0508 392.34316,-0.3109 377.40625,0.0625 C 363.12265,12.2924 349.78484,24.55096 335.78125,36.6875 C 335.31465,36.87423 334.84321,36.686302 334.5625,36.40625 C 333.4426,29.40444 334.74079,22.28463 332.6875,15.65625 C 329.7929,6.78725 321.02401,0.62305001 311.875,0.15625 L 278.46875,-0.03125 L 235.5,0.25 L 222.53125,0.15625 C 221.22385,0.24955 219.46615,0.46315001 218.71875,-0.84375 C 218.53215,-11.76665 218.3425,-22.23345 218.0625,-33.15625 C 217.9692,-33.52975 218.0591,-34.37465 217.3125,-34.28125 z M 210.8125,-19.96875 C 212.00333,-20.04965 211.3575,-16.954881 211.8125,-15.96875 C 211.9991,-8.50015 211.72125,-1.49975 212.28125,5.96875 L 213,6.625 L 250.625,6.4375 C 251.5583,6.4375002 252.7842,6.3156 253.4375,7.0625 L 253.0625,8 C 241.95279,18.2693 230.0155,28.44936 218.8125,38.71875 L 218.90625,38.8125 C 216.66566,40.21286 214.2423,42.53987 212.375,44.59375 L 212.375,70 L 212.65625,101.65625 L 212.75,135.34375 C 212.56329,140.94526 213.30955,146.46098 212.65625,152.0625 L 211.53125,152.71875 C 203.50275,152.34537 195.1876,154.20501 187.8125,150.9375 C 183.89131,148.97695 180.059,144.98115 179.125,140.5 L 178.28125,132.09375 L 177.53125,48.25 C 177.34465,45.822731 177.71535,42.92846 176.96875,40.78125 C 170.62025,39.941008 164.56565,40.40583 157.84375,40.3125 C 156.06985,40.032451 154.21285,39.36834 152.90625,37.78125 C 151.87885,36.474222 151.6884,34.61792 151.875,32.9375 C 152.80901,29.763311 155.6027,28.0847 157.75,25.9375 L 209.65625,-19.34375 C 210.16385,-19.763863 210.53769,-19.950081 210.8125,-19.96875 z M 396.28125,37.84375 C 400.1093,37.850312 403.91034,38.07732 407.65625,38.8125 C 409.15026,39.27929 410.56395,41.06881 411.03125,42.5625 C 411.68466,44.429722 410.9333,46.47499 410,47.96875 C 399.26359,58.798261 388.32845,69.63574 377.21875,79.625 C 376.47204,79.99846 376.31205,79.24804 376.21875,78.78125 C 376.21876,65.337748 376.0327,52.34976 376.5,38.90625 L 377.21875,38.25 C 383.46187,38.42503 389.90117,37.832814 396.28125,37.84375 z M 269.59375,38.75 C 271.54263,38.714993 273.50855,38.71952 275.5625,38.90625 C 275.84249,39.186311 276.02955,39.56411 275.65625,39.9375 C 257.45145,58.702389 234.28655,73.27968 220.65625,95.21875 C 220.46956,95.312154 220.12455,95.31173 220.03125,95.125 L 219.5625,92.40625 L 219.09375,54.6875 L 219.09375,41.0625 C 219.00035,40.035598 220.00465,39.4691 221.03125,39.5625 L 263.71875,38.8125 C 265.7257,38.8592 267.64487,38.785007 269.59375,38.75 z M 292.125,78.625 C 292.36889,78.635389 292.58624,78.794889 292.65625,79.25 L 292.84375,84.9375 L 293.03125,117.8125 C 293.68525,120.33317 291.05605,120.12577 289.46875,120.3125 L 266.40625,120.3125 C 263.32565,120.21917 260.14935,119.48829 258.46875,116.6875 C 257.34874,114.44696 258.09975,111.64805 259.59375,109.6875 L 290.96875,79.25 C 291.20206,79.01663 291.71851,78.607685 292.125,78.625 z "
         transform="translate(1296.3334,-838.28295)"
         style="font-size:18.17300034px;font-weight:bold;letter-spacing:-1.79190004;word-spacing:0;fill:#e03e32;fill-rule:nonzero;stroke:none;font-family:Arial"
         id="path2610" />
      <path
         d="M 567.46875,0.71875 C 564.79496,0.73625313 562.17683,0.765825 559.65625,0.8125 C 559.09625,0.7191 559.65626,74.656249 559.65625,74.65625 L 578.96875,74.65625 L 579.8125,50.5 L 594.9375,74.65625 C 594.9375,74.65625 617.90748,75.121917 618.1875,74.375 C 612.3064,65.50604 597.37818,45.152329 598.21875,44.21875 C 602.32595,43.00512 606.03897,39.3902 607.90625,35.5625 C 611.64015,28.0939 611.76118,17.6276 607,10.8125 C 603.3594,5.211 597.56697,1.841 591.3125,1.1875 C 583.96025,0.767425 575.49011,0.66624062 567.46875,0.71875 z M 581.5,17.3125 C 582.84296,17.217694 584.40375,17.589625 585.6875,17.53125 C 587.46138,17.811349 589.1601,18.57005 590,20.34375 C 591.30729,23.2379 591.5856,27.22969 589.625,29.84375 C 587.38438,32.64448 582.8939,32.37304 580,31.90625 L 579.34375,30.96875 C 579.25034,26.580929 578.9709,22.48201 579.4375,18.1875 C 579.96274,17.592337 580.69423,17.369383 581.5,17.3125 z "
         transform="translate(1296.3334,-838.28295)"
         style="font-size:18.17300034px;font-weight:bold;letter-spacing:-1.79190004;word-spacing:0;fill:#000000;fill-rule:nonzero;stroke:none;font-family:Arial"
         id="path2614" />
      <path
         d="M 545.1875,0.625 C 538.63632,0.55935625 530.81248,0.8125 530.8125,0.8125 L 530.90625,62.34375 L 508.96875,0.8125 L 490.65625,0.8125 C 490.65625,0.8125 464.15964,74.562498 464.90625,74.5625 L 482.71875,74.5625 L 488.40625,62.34375 L 509.90625,62.71875 L 515.21875,74.5625 C 515.21875,74.5625 551.15668,75.123039 551.25,74.65625 L 550.96875,0.8125 C 549.40495,0.6958 547.37123,0.64688125 545.1875,0.625 z M 499.0625,28.46875 C 499.74395,28.581072 500.49329,30.420664 500.75,31.0625 C 500.75,31.0625 504.56,46.37577 504,46.5625 C 500.54539,46.749231 496.9238,46.84179 493.5625,46.375 C 493.56251,46.375 496.44475,34.88424 498.21875,29.65625 C 498.45228,28.722672 498.75275,28.417695 499.0625,28.46875 z "
         transform="translate(1296.3334,-838.28295)"
         style="font-size:18.17300034px;font-weight:bold;letter-spacing:-1.79190004;word-spacing:0;fill:#000000;fill-rule:nonzero;stroke:none;font-family:Arial"
         id="path2616" />
      <path
         d="M 789.34375,80.90625 C 788.81186,80.904903 788.28106,80.919152 787.75,80.9375 C 782.65178,81.11364 777.62613,82.179525 773.25,84 C 763.1676,88.94794 753.09372,108.9375 753.09375,108.9375 C 752.34645,101.00212 752.34374,84.1875 752.34375,84.1875 C 746.36925,83.44066 737.13019,83.718752 730.875,83.71875 C 730.2217,83.81208 732.83517,132.54499 730.78125,135.8125 C 728.35395,139.92026 723.57537,141.05858 719.1875,140.125 C 715.8263,139.47149 713.40251,136.1121 712.5625,133.03125 L 711.53125,84.1875 C 702.75545,83.53399 645.43752,84.750001 645.4375,84.75 C 645.4375,84.75 645.71618,95.499647 645.15625,95.40625 C 640.76835,89.71147 633.97008,84.65471 626.875,84.28125 L 594.9375,84.5625 C 594.3775,92.77801 595.31252,109.875 595.3125,109.875 L 595.125,109.6875 C 591.5777,96.71078 579.34905,84.36834 565.71875,82.78125 C 550.22185,81.10076 535.36919,86.430657 526.6875,99.6875 C 526.2201,100.15429 525.40457,100.34024 525.03125,99.5 C 522.51065,92.68492 515.68806,86.526972 508.40625,85.5 C 497.29655,84.37976 473.74999,85.406252 473.75,85.40625 L 474.21875,158.03125 C 480.47395,158.31138 487.96381,158.68553 494.125,158.21875 L 494.21875,134.40625 C 501.40725,134.31292 509.33773,135.17291 515.40625,131.71875 C 517.36685,131.06524 518.85238,128.71721 520.90625,128.34375 C 523.33355,135.62562 525.96231,142.89889 531.9375,148.59375 C 542.2065,158.30295 560.77506,161.19835 574.21875,156.34375 C 588.59565,153.26297 595.68753,128.71875 595.6875,128.71875 C 595.7809,129.09214 595.68753,157.18749 595.6875,157.1875 L 616.03125,157.1875 C 616.40455,149.15871 615.75216,133.00196 616.21875,133.46875 C 620.41995,139.72372 629.38313,156.62851 631.34375,157.46875 C 639.18555,157.37543 646.37503,157.84065 653.9375,157.09375 L 634.34375,127.875 C 634.81045,127.40822 635.2833,127.21798 635.75,127.03125 C 648.5396,123.29695 647.31251,104.8125 647.3125,104.8125 L 659.09375,104.8125 C 659.09375,104.8125 658.59713,153.07973 659.34375,157.1875 L 678.3125,157.1875 L 678.5,104.0625 L 691.65625,103.96875 C 691.65625,103.96875 691.74998,112.1091 691.75,115.75 C 692.0299,123.77879 691.38347,132.65718 693.4375,140.3125 C 695.9581,148.24789 703.50468,156.44339 712.09375,157.84375 C 715.73425,158.96406 720.23495,158.68862 724.15625,158.96875 C 726.39685,158.59529 729.38521,158.59101 731.8125,157.9375 C 740.5883,155.97702 748.97728,148.05688 751.03125,139.28125 C 752.05785,136.76058 751.78642,133.6777 753.09375,131.34375 C 753.09375,131.34375 761.97366,155.78755 778.03125,157.28125 C 792.50225,160.82889 808.06933,156.82243 817.125,144.3125 L 814.34375,156.90625 C 820.78565,156.99958 827.30753,157.18519 833.46875,156.625 L 838.6875,144.5 C 845.4094,144.03321 852.71784,144.03203 859.90625,144.21875 C 859.90625,144.21875 862.97768,153.35825 865.125,156.8125 L 924.40625,156.90625 L 923.9375,139.1875 C 923.9375,139.1875 902.65672,139.74643 902.75,138.90625 C 902.75,138.90625 902.65623,90.259662 902.65625,85.125 C 902.65625,85.125 882.4684,84.096481 882.375,84.75 L 882.375,146.1875 C 882.001,146.37423 862.1173,88.38782 860.25,84 C 854.2749,83.43989 847.28655,83.718401 841.21875,83.625 C 841.21875,83.625 824.86977,125.72625 823.5625,127.5 L 823.375,127.3125 L 823.9375,114.625 L 788,114.625 L 787.8125,131.90625 C 791.453,132.18638 801.6241,131.44218 801.4375,132.5625 C 799.8502,137.60383 795.00976,141.12613 789.78125,141.40625 C 783.80675,141.59291 778.67549,138.60341 775.6875,133.46875 C 771.5804,125.53337 771.58473,113.40568 776.8125,105.84375 C 780.0797,101.08248 785.49462,98.473867 791.5625,99.6875 C 796.8843,99.96756 800.60193,105.39343 802.5625,109.78125 C 802.5625,109.78125 814.9906,105.39412 820.3125,102.5 C 820.3125,100.35279 819.18251,98.460897 818.0625,96.59375 C 816.4752,93.5129 813.95638,90.646092 811.0625,88.21875 C 805.31849,83.186192 797.32207,80.926459 789.34375,80.90625 z M 618.65625,100.53125 C 620.28727,100.46288 621.9825,100.80201 623.5,101.09375 L 625.84375,102.59375 C 627.61694,105.30114 627.80705,109.2938 626.59375,112.28125 C 624.72646,116.10895 615.8425,114.90352 615.5625,114.25 C 615.65577,110.04892 615.28375,105.57531 615.84375,101.1875 C 616.71896,100.76738 617.67764,100.57227 618.65625,100.53125 z M 559.09375,101.1875 C 561.73968,101.22249 564.34659,101.86965 566.5625,103.15625 C 569.54983,104.74334 572.1627,107.35588 573.75,110.25 C 577.39129,117.99866 576.3495,129.08956 570.375,135.53125 C 565.42648,140.19912 557.7869,141.52025 551.625,138.90625 C 545.55719,136.29219 541.34125,130.22294 540.78125,123.78125 C 539.94058,116.77944 542.02185,109.94913 547.34375,105.28125 C 550.17943,102.86564 554.0697,101.41896 557.96875,101.21875 C 558.34782,101.19929 558.71576,101.1825 559.09375,101.1875 z M 497.125,101.65625 C 498.91199,101.62252 500.78087,102.00834 502.53125,102.125 L 505.3125,104.0625 C 507.45981,106.86322 506.8092,111.07582 506.0625,114.25 C 503.82189,118.45109 498.51265,117.81131 494.21875,117.53125 C 494.21874,117.53125 492.91135,106.88704 494.03125,102.3125 C 495.01176,101.85739 496.05281,101.67649 497.125,101.65625 z M 849.53125,110.625 C 849.53127,110.625 854.9359,128.9066 854.5625,129 C 851.10801,129.28006 846.92345,129.27887 843.65625,128.71875 C 843.65624,128.71875 846.63725,116.13312 849.53125,110.625 z "
         transform="translate(1296.3334,-838.28295)"
         style="font-size:18.17300034px;font-weight:bold;letter-spacing:-1.79190004;word-spacing:0;fill:#000000;fill-rule:nonzero;stroke:none;font-family:Arial"
         id="path2626" />
    </g>
  </g>
</svg>
