<?xml version="1.0" encoding="UTF-8"?>
<svg id="Layer_1" data-name="Layer 1" xmlns="http://www.w3.org/2000/svg" version="1.1" viewBox="0 0 518.7641895 273.0916636">
  <defs>
    <style>
      .cls-1 {
        fill: #72bf44;
      }

      .cls-1, .cls-2, .cls-3, .cls-4, .cls-5 {
        stroke-width: 0px;
      }

      .cls-2 {
        fill: #bfd730;
      }

      .cls-3 {
        fill: #fff;
      }

      .cls-4 {
        fill: #ed1c24;
        fill-rule: evenodd;
      }

      .cls-5 {
        fill: #b82025;
      }
    </style>
  </defs>
  <g>
    <path class="cls-4" d="M340.996529,82.0665142h54.4884101c10.0359107,0,18.1628126,8.1269019,18.1628126,18.1628057,0,10.0177258-8.1269019,18.1627987-18.1628126,18.1627987h-54.4884101v-36.3256044h0ZM268.3635051,9.4334833h127.121434c50.1431561,0,90.7958365,40.634499,90.7958365,90.7958296,0,50.1431491-40.6526804,90.7776447-90.7958365,90.7776447h-54.4884101v72.6511949h-72.6330239V9.4334833Z"/>
    <path class="cls-2" d="M194.8032333,145.6272381h38.1436958l-19.0718479-63.5607239-19.0718479,63.5607239ZM86.7718321,263.6581803V82.0665142h-54.2884181V9.4334833h235.8800911v254.2246969l-13.8720855-46.2342418v.8363236h-81.4689969l-13.6175528,45.3979183h-72.6330378Z"/>
    <polygon class="cls-1" points="86.7718321 263.6581803 159.404856 263.6581803 159.404856 82.0665142 213.8750812 82.0665142 213.8750812 9.4334833 159.404856 9.4334833 86.7718321 263.6581803"/>
    <polygon class="cls-5" points="268.3635051 263.6581803 340.996529 263.6581803 268.3635051 9.4334833 268.3635051 263.6581803"/>
  </g>
  <g>
    <path class="cls-3" d="M303.9679182,224.7316542c8.4743979,0,12.7115969-5.3868266,12.7115969-12.2881433,0-5.0228518-.968528-7.4446156-1.8154351-9.3213051l2.3605095-.7865406c.4847079,1.0280068,1.9974225,4.2966778,1.9974225,10.4114539,0,9.0194723-6.1138884,14.8910068-14.5279198,14.8910068-9.8663795,0-15.9802679-6.2958758-15.9802679-14.5288075,0-10.7736532,9.563659-12.6503426,13.4377709-12.6503426.9081614,0,1.3325028,0,1.8163229.1207331v24.1519453ZM301.6074086,203.5465471c-3.0272048-.0603665-10.4727082,1.2108819-10.4727082,9.926746,0,7.3842491,6.0535218,10.4718204,10.4727082,11.0772614v-21.0040074Z"/>
    <path class="cls-3" d="M289.4399984,194.76499l7.1427829-5.5697017c1.7559563-1.3919816,3.2083044-2.4821304,4.9030065-3.6930123v-.1207331c-1.694702-1.2108819-3.2083044-2.4217638-4.9030065-3.7533788l-7.1427829-5.5679262v-3.3290375l14.1044662,11.1376279,14.9513733-11.6827023v3.4497706l-7.3851368,5.8111679c-1.937056,1.5127147-3.7524911,2.7839631-5.5084474,4.1155781v.1225086c1.8766894,1.2108819,3.4506584,2.4803549,5.5084474,4.0552116l7.3851368,5.6904348v3.4497706l-14.8910068-11.8034354-14.1648327,11.0772614v-3.3894041Z"/>
    <path class="cls-3" d="M298.8225578,167.7651641c-3.1479379,0-6.2346215.0603665-9.3825594.2414662v-2.8443297l6.0535218-.2432417v-.1207331c-3.9344785-2.1785222-6.7796959-6.1733672-6.7796959-12.2277768,0-8.5347645,6.7796959-13.9819576,14.6486528-13.9819576,10.1699877,0,15.8595348,6.7788081,15.8595348,14.7081317,0,4.5399194-1.8766894,8.9591058-5.931901,11.3808696v.1207331h17.3127706v2.9668382h-31.7803238ZM306.8131356,164.7983259c.7865406,0,1.5739689-.1207331,2.300143-.3018327,4.1164659-1.2108819,7.6878573-5.5093352,7.6878573-10.9565283,0-7.3860246-5.2057269-11.9863106-13.3170378-11.9863106-6.5985962,0-12.3493976,4.3588198-12.3493976,11.6223358,0,4.7831611,2.7244843,9.4438136,7.9905778,11.0772614.7865406.2432417,1.7550686.5450744,2.5424969.5450744h5.1453604Z"/>
    <path class="cls-3" d="M298.8225578,132.7099551c-3.1479379,0-6.2346215.0603665-9.3825594.2414662v-2.7235966l6.2958758-.1207331v-.1828751c-4.0560993-1.4523481-7.0220498-4.600286-7.0220498-8.896076,0-.4847079.0603665-.9694157.1810996-1.3928693h2.7244843c-.1216208.5450744-.1216208,1.0288945-.1216208,1.694702,0,4.0543238,3.3902918,7.1418952,8.4140314,8.1113109.8477949.1810996,1.8766894.3018327,2.8452174.3018327h15.7388017v2.9668382h-19.6732801Z"/>
    <path class="cls-3" d="M303.9679182,115.6990172c8.4743979,0,12.7115969-5.3877143,12.7115969-12.2881433,0-5.0246273-.968528-7.4455034-1.8154351-9.3221928l2.3605095-.7865406c.4847079,1.0288945,1.9974225,4.2975655,1.9974225,10.4114539,0,9.0194723-6.1138884,14.8910068-14.5279198,14.8910068-9.8663795,0-15.9802679-6.2958758-15.9802679-14.5279198,0-10.7745409,9.563659-12.6512303,13.4377709-12.6512303.9081614,0,1.3325028,0,1.8163229.1207331v24.152833ZM301.6074086,94.5121347c-3.0272048-.0603665-10.4727082,1.2108819-10.4727082,9.9276338,0,7.3851368,6.0535218,10.4718204,10.4727082,11.0772614v-21.0048952Z"/>
    <path class="cls-3" d="M314.5613594,86.638739c1.0892611-1.7550686,2.1794099-4.3579321,2.1794099-7.263516,0-5.0849938-2.6641178-7.3247703-5.6300683-7.3247703-3.3894041,0-5.0237396,2.300143-6.4769754,6.8400624-1.694702,5.2669812-4.4191863,7.8698447-7.868957,7.8698447-4.1164659,0-8.0509443-3.2695587-8.0509443-9.5645467,0-2.8452174.7865406-5.3273478,1.937056-7.0220498l2.4208761,1.1505154c-.6658075.968528-1.8766894,3.0866836-1.8766894,6.4166089,0,3.994845,2.4217638,6.1138884,5.2066147,6.1138884,3.268671,0,4.5399194-2.4821304,5.9922675-6.7796959,1.8163229-5.3273478,4.1164659-7.9302113,8.4743979-7.9302113,4.7219068,0,8.3536648,3.8741119,8.3536648,10.4718204,0,3.0875713-.8469071,5.9327887-2.1181556,8.1121986l-2.5424969-1.0901488Z"/>
    <path class="cls-3" d="M314.5613594,63.9968451c1.0892611-1.7550686,2.1794099-4.3579321,2.1794099-7.263516,0-5.0849938-2.6641178-7.3247703-5.6300683-7.3247703-3.3894041,0-5.0237396,2.300143-6.4769754,6.8400624-1.694702,5.2669812-4.4191863,7.8698447-7.868957,7.8698447-4.1164659,0-8.0509443-3.268671-8.0509443-9.5645467,0-2.8452174.7865406-5.32646,1.937056-7.0220498l2.4208761,1.1505154c-.6658075.968528-1.8766894,3.0866836-1.8766894,6.4166089,0,3.994845,2.4217638,6.1138884,5.2066147,6.1138884,3.268671,0,4.5399194-2.4821304,5.9922675-6.7796959,1.8163229-5.3273478,4.1164659-7.9302113,8.4743979-7.9302113,4.7219068,0,8.3536648,3.8741119,8.3536648,10.4727082,0,3.0866836-.8469071,5.931901-2.1181556,8.1113109l-2.5424969-1.0901488Z"/>
  </g>
</svg>