<?xml version="1.0" encoding="UTF-8" standalone="no"?>

<svg
   xmlns:svg="http://www.w3.org/2000/svg"
   xmlns="http://www.w3.org/2000/svg"
   version="1.0"
   width="1062.9919"
   height="700"
   viewBox="35.433 66.094 1062.992 606.072"
   id="TNT_Airways_S.A.Logo"
   xml:space="preserve"><defs
   id="defs8" />

<path
   d="M 106.013,643.132 L 106.013,550.612 L 70.781,550.612 L 70.781,538.209 L 155.199,538.209 L 155.199,550.612 L 119.966,550.612 L 119.966,643.132 L 106.013,643.132 z M 240.815,643.132 L 225.171,643.132 L 178.805,552.655 L 178.805,643.132 L 165.769,643.132 L 165.769,538.209 L 185.57,538.209 L 227.779,621.287 L 227.779,538.209 L 240.815,538.209 L 240.815,643.132 z M 286.616,643.132 L 286.616,550.612 L 251.384,550.612 L 251.384,538.209 L 335.802,538.209 L 335.802,550.612 L 300.569,550.612 L 300.569,643.132 L 286.616,643.132 z M 380.125,643.132 L 415.499,538.209 L 432.692,538.209 L 468.065,643.132 L 453.338,643.132 L 443.825,613.82 L 403.73,613.82 L 394.218,643.132 L 380.125,643.132 z M 439.95,601.911 L 423.743,552.444 L 407.606,601.911 L 439.95,601.911 z M 491.391,551.245 L 476.312,551.245 L 476.312,537.506 L 491.391,537.506 L 491.391,551.245 z M 490.474,643.132 L 477.227,643.132 L 477.227,564.424 L 490.474,564.424 L 490.474,643.132 z M 551.636,578.658 L 550.931,578.658 C 549.946,578.375 548.902,578.198 547.798,578.129 C 546.693,578.058 545.366,578.023 543.817,578.023 C 540.245,578.023 536.699,578.799 533.176,580.351 C 529.653,581.899 526.317,584.203 523.169,587.255 L 523.169,643.133 L 509.921,643.133 L 509.921,564.425 L 523.169,564.425 L 523.169,576.119 C 528.007,571.847 532.224,568.828 535.818,567.066 C 539.412,565.303 542.9,564.424 546.283,564.424 C 547.644,564.424 548.666,564.457 549.348,564.528 C 550.028,564.597 550.791,564.705 551.635,564.843 L 551.635,578.658 L 551.636,578.658 z M 657.338,564.424 L 637.397,643.132 L 625.135,643.132 L 605.898,582.463 L 586.801,643.132 L 574.609,643.132 L 554.456,564.424 L 568.268,564.424 L 582.151,625.375 L 600.825,564.424 L 611.746,564.424 L 630.913,625.375 L 644.02,564.424 L 657.338,564.424 z M 711.738,634.747 C 710.654,635.549 709.212,636.662 707.404,638.095 C 705.593,639.528 703.844,640.668 702.156,641.515 C 699.805,642.736 697.538,643.672 695.354,644.332 C 693.169,644.989 690.105,645.317 686.161,645.317 C 682.917,645.317 679.841,644.707 676.929,643.486 C 674.013,642.264 671.455,640.55 669.248,638.342 C 667.133,636.181 665.442,633.514 664.172,630.343 C 662.906,627.172 662.271,623.824 662.271,620.301 C 662.271,614.853 663.421,610.215 665.726,606.384 C 668.026,602.556 671.667,599.514 676.647,597.261 C 681.062,595.24 686.277,593.841 692.293,593.069 C 698.304,592.292 704.787,591.718 711.739,591.341 L 711.739,588.805 C 711.739,585.704 711.269,583.202 710.331,581.3 C 709.39,579.396 708.074,577.927 706.386,576.897 C 704.694,575.813 702.625,575.099 700.183,574.748 C 697.741,574.395 695.228,574.219 692.645,574.219 C 689.588,574.219 685.997,574.676 681.862,575.591 C 677.729,576.51 673.596,577.836 669.462,579.573 L 668.687,579.573 L 668.687,566.115 C 671.127,565.41 674.63,564.634 679.185,563.788 C 683.741,562.946 688.251,562.519 692.715,562.519 C 698.117,562.519 702.675,562.946 706.387,563.788 C 710.095,564.634 713.431,566.163 716.39,568.368 C 719.257,570.529 721.396,573.326 722.805,576.755 C 724.215,580.184 724.918,584.364 724.918,589.298 L 724.918,643.133 L 711.74,643.133 L 711.74,634.747 L 711.738,634.747 z M 711.738,623.755 L 711.738,601.91 C 708.59,602.193 704.609,602.581 699.792,603.074 C 694.979,603.565 691.092,604.26 688.134,605.151 C 684.61,606.231 681.696,607.889 679.395,610.12 C 677.095,612.351 675.943,615.466 675.943,619.458 C 675.943,623.964 677.212,627.372 679.745,629.675 C 682.283,631.975 685.996,633.126 690.882,633.126 C 695.062,633.126 698.844,632.223 702.226,630.415 C 705.607,628.605 708.777,626.388 711.738,623.755 z M 804.399,564.424 L 762.047,672.165 L 747.884,672.165 L 761.979,639.325 L 733.369,564.424 L 747.676,564.424 L 769.167,622.697 L 790.586,564.424 L 804.399,564.424 z M 835.684,645.037 C 830.424,645.037 825.503,644.332 820.922,642.923 C 816.343,641.515 812.549,640.01 809.543,638.412 L 809.543,623.545 L 810.247,623.545 C 811.374,624.438 812.701,625.422 814.227,626.505 C 815.753,627.584 817.787,628.714 820.323,629.886 C 822.579,630.919 825.054,631.838 827.759,632.634 C 830.459,633.435 833.266,633.832 836.179,633.832 C 838.292,633.832 840.549,633.586 842.944,633.093 C 845.34,632.599 847.123,631.976 848.3,631.225 C 849.942,630.145 851.127,628.994 851.858,627.773 C 852.586,626.551 852.95,624.719 852.95,622.278 C 852.95,619.13 852.093,616.758 850.381,615.158 C 848.66,613.563 845.624,612.224 841.252,611.142 C 839.562,610.719 837.355,610.226 834.628,609.663 C 831.906,609.1 829.39,608.489 827.089,607.831 C 821.077,606.092 816.708,603.403 813.985,599.763 C 811.258,596.123 809.897,591.719 809.897,586.55 C 809.897,579.458 812.574,573.678 817.927,569.215 C 823.285,564.753 830.4,562.52 839.281,562.52 C 843.647,562.52 848.04,563.062 852.455,564.141 C 856.873,565.222 860.586,566.584 863.593,568.23 L 863.593,582.392 L 862.887,582.392 C 859.501,579.715 855.733,577.601 851.576,576.05 C 847.42,574.5 843.226,573.725 838.998,573.725 C 834.628,573.725 830.941,574.641 827.934,576.472 C 824.927,578.307 823.428,581.077 823.428,584.79 C 823.428,588.076 824.319,590.53 826.103,592.153 C 827.887,593.773 830.752,595.1 834.7,596.132 C 836.674,596.651 838.87,597.154 841.288,597.649 C 843.709,598.143 846.257,598.717 848.934,599.375 C 854.761,600.831 859.141,603.251 862.076,606.634 C 865.014,610.015 866.481,614.62 866.481,620.444 C 866.481,623.826 865.812,627.034 864.473,630.063 C 863.132,633.093 861.172,635.688 858.589,637.849 C 855.769,640.199 852.587,641.982 849.041,643.203 C 845.491,644.426 841.042,645.037 835.684,645.037 z M 941.377,644.895 C 936.286,644.895 931.955,644.369 928.388,643.314 C 924.822,642.262 921.467,640.967 918.326,639.426 L 918.326,627.735 L 918.985,627.735 C 922.065,630.628 925.552,632.867 929.45,634.453 C 933.346,636.041 937.101,636.834 940.718,636.834 C 945.872,636.834 949.769,635.757 952.41,633.605 C 955.05,631.454 956.368,628.616 956.368,625.096 C 956.368,622.299 955.678,620.023 954.296,618.259 C 952.911,616.501 950.711,615.196 947.696,614.348 C 945.525,613.721 943.548,613.202 941.755,612.791 C 939.965,612.384 937.716,611.834 935.014,611.142 C 932.591,610.513 930.423,609.712 928.508,608.738 C 926.59,607.765 924.894,606.493 923.418,604.92 C 921.97,603.382 920.847,601.565 920.044,599.474 C 919.244,597.384 918.845,594.972 918.845,592.239 C 918.845,586.551 921.06,581.78 925.491,577.929 C 929.923,574.08 935.58,572.156 942.463,572.156 C 946.39,572.156 950.108,572.549 953.612,573.335 C 957.115,574.122 960.359,575.235 963.347,576.683 L 963.347,587.856 L 962.638,587.856 C 960.408,585.813 957.547,584.029 954.06,582.503 C 950.571,580.98 946.91,580.218 943.077,580.218 C 938.738,580.218 935.234,581.234 932.562,583.257 C 929.891,585.286 928.557,587.949 928.557,591.249 C 928.557,594.237 929.339,596.609 930.912,598.368 C 932.483,600.129 934.76,601.418 937.747,602.233 C 939.727,602.77 942.148,603.373 945.007,604.049 C 947.866,604.723 950.24,605.344 952.126,605.909 C 956.964,607.388 960.499,609.62 962.734,612.603 C 964.964,615.59 966.08,619.267 966.08,623.634 C 966.08,626.368 965.522,629.072 964.407,631.743 C 963.29,634.416 961.726,636.678 959.715,638.532 C 957.454,640.576 954.9,642.147 952.054,643.246 C 949.211,644.344 945.652,644.895 941.377,644.895 z M 987.862,643.623 L 976.594,643.623 L 976.594,630.186 L 987.862,630.186 L 987.862,643.623 z M 996.394,643.623 L 1020.059,573.428 L 1031.564,573.428 L 1055.227,643.623 L 1045.374,643.623 L 1039.011,624.012 L 1012.187,624.012 L 1005.822,643.623 L 996.394,643.623 z M 1036.418,616.043 L 1025.575,582.948 L 1014.779,616.043 L 1036.418,616.043 z M 1074.981,643.623 L 1063.712,643.623 L 1063.712,630.186 L 1074.981,630.186 L 1074.981,643.623 z"
   id="Subline" />

<g
   transform="matrix(1.0967687,0,0,1.0967687,-86.18051,-25.281723)"
   id="TNT">

<path
   d="M 894.572,83.898 C 828.373,83.898 770.878,120.995 741.82,175.475 C 712.757,120.995 655.255,83.898 589.057,83.898 C 523.079,83.898 465.732,120.758 436.581,174.956 C 407.535,120.438 350.011,83.313 283.791,83.313 C 188.298,83.313 110.883,160.519 110.883,255.757 C 110.883,350.996 188.299,428.208 283.791,428.208 C 349.774,428.208 407.121,391.347 436.272,337.149 C 465.318,391.663 522.842,428.787 589.057,428.787 C 655.256,428.787 712.763,391.689 741.82,337.204 C 770.883,391.695 828.373,428.787 894.572,428.787 C 990.065,428.787 1067.486,351.581 1067.486,256.337 C 1067.491,161.104 990.07,83.898 894.572,83.898 z M 283.792,387.89 C 210.617,387.89 151.301,328.735 151.301,255.757 C 151.301,182.782 210.623,123.625 283.792,123.625 C 356.966,123.625 416.288,182.781 416.288,255.757 C 416.288,328.735 356.966,387.89 283.792,387.89 z M 589.057,388.475 C 515.888,388.475 456.572,329.319 456.572,256.342 C 456.572,183.366 515.894,124.21 589.057,124.21 C 662.237,124.21 721.548,183.366 721.548,256.342 C 721.549,329.319 662.232,388.475 589.057,388.475 z M 894.572,388.475 C 821.403,388.475 762.081,329.319 762.081,256.342 C 762.081,183.366 821.408,124.21 894.572,124.21 C 967.752,124.21 1027.063,183.366 1027.063,256.342 C 1027.063,329.319 967.752,388.475 894.572,388.475 z M 817.024,220.591 L 858.947,220.586 L 868.576,220.111 L 868.587,335.396 L 920.458,335.396 L 920.458,220.117 L 930.054,220.586 L 972.004,220.591 L 972.004,177.317 L 817.019,177.317 L 817.019,220.591 L 817.024,220.591 L 817.024,220.591 z M 206.238,220.591 L 248.161,220.586 L 257.79,220.111 L 257.795,335.396 L 309.667,335.396 L 309.667,220.117 L 319.262,220.586 L 361.218,220.591 L 361.218,177.317 L 206.238,177.317 L 206.238,220.591 z M 617.387,257.919 L 615.467,254.859 L 560.056,177.317 L 511.808,177.317 L 511.808,335.396 L 560.784,335.408 L 560.801,254.805 L 562.72,257.86 L 617.873,335.414 L 666.203,335.403 L 666.203,177.317 L 617.388,177.317 L 617.388,257.919 L 617.387,257.919 z"
   id="orange"
   style="fill:#ff6600" />

<path
   d="M 560.8,254.804 L 560.783,335.407 L 524.397,335.402 L 524.397,342.692 L 573.379,342.704 L 573.391,272.866 L 562.72,257.86 L 560.8,254.804 z M 469.168,263.638 C 469.168,190.662 528.485,131.506 601.659,131.506 C 623.321,131.506 643.741,136.723 661.797,145.916 C 640.913,132.207 615.925,124.205 589.058,124.205 C 515.889,124.205 456.573,183.361 456.573,256.337 C 456.573,307.712 485.989,352.205 528.926,374.059 C 492.936,350.44 469.168,309.819 469.168,263.638 z M 630.462,342.698 L 678.793,342.686 L 678.793,184.613 L 666.203,184.613 L 666.203,335.396 L 625.279,335.402 L 630.462,342.698 z M 617.387,257.919 L 617.387,247.226 L 572.652,184.612 L 565.273,184.612 L 615.473,254.858 L 617.387,257.919 z M 741.82,175.475 C 743.077,173.12 744.456,170.843 745.813,168.559 C 729.655,144.245 707.552,124.21 681.484,110.655 C 706.797,126.653 727.691,148.982 741.82,175.475 z M 920.458,220.117 L 920.458,335.396 L 881.177,335.396 L 881.177,342.687 L 933.048,342.687 L 933.048,227.412 L 942.644,227.881 L 984.605,227.892 L 984.605,184.613 L 972.004,184.613 L 972.004,220.586 L 930.054,220.58 L 920.458,220.117 z M 829.615,227.892 L 868.571,227.881 L 868.571,220.11 L 858.942,220.585 L 829.615,220.585 L 829.615,227.892 L 829.615,227.892 z M 774.682,263.638 C 774.682,190.662 833.999,131.506 907.173,131.506 C 928.835,131.506 949.256,136.723 967.311,145.916 C 946.427,132.207 921.439,124.205 894.572,124.205 C 821.403,124.205 762.081,183.361 762.081,256.337 C 762.081,307.712 791.502,352.21 834.445,374.065 C 798.456,350.445 774.682,309.819 774.682,263.638 z M 589.057,428.787 C 560.265,428.787 533.122,421.756 509.237,409.337 C 535.978,426.239 567.654,436.083 601.659,436.083 C 664.984,436.083 720.297,402.08 750.418,351.422 C 747.357,346.817 744.435,342.107 741.82,337.204 C 712.763,391.695 655.256,428.787 589.057,428.787 z M 987.428,110.903 C 1035.55,141.521 1067.491,195.195 1067.491,256.342 C 1067.491,351.587 990.07,428.792 894.577,428.792 C 865.796,428.792 838.663,421.767 814.796,409.358 C 841.531,426.251 873.191,436.082 907.178,436.082 C 1002.672,436.082 1080.086,358.876 1080.086,263.637 C 1080.081,197.296 1042.498,139.74 987.428,110.903 z M 283.792,428.208 C 254.828,428.208 227.553,421.072 203.575,408.521 C 230.393,425.577 262.218,435.504 296.388,435.504 C 359.515,435.504 414.667,401.726 444.849,351.35 C 441.794,346.751 438.882,342.052 436.274,337.155 C 407.122,391.347 349.775,428.208 283.792,428.208 z M 163.896,263.06 C 163.896,190.084 223.213,130.927 296.387,130.927 C 318.043,130.927 338.464,136.139 356.513,145.326 C 335.635,131.622 310.653,123.626 283.791,123.626 C 210.616,123.626 151.3,182.782 151.3,255.758 C 151.3,307.122 180.71,351.604 223.625,373.47 C 187.654,349.844 163.896,309.229 163.896,263.06 z M 436.582,174.956 C 437.845,172.607 439.229,170.335 440.597,168.052 C 424.439,143.704 402.32,123.647 376.229,110.076 C 401.552,126.091 422.453,148.442 436.582,174.956 z M 218.834,227.892 L 257.79,227.881 L 257.79,220.11 L 248.161,220.585 L 218.834,220.585 L 218.834,227.892 L 218.834,227.892 z M 309.667,220.117 L 309.667,335.396 L 270.385,335.396 L 270.385,342.687 L 322.256,342.687 L 322.256,227.412 L 331.857,227.881 L 373.813,227.892 L 373.813,184.613 L 361.217,184.613 L 361.217,220.586 L 319.261,220.58 L 309.667,220.117 z"
   id="black" />
</g>

</svg>