<svg xmlns="http://www.w3.org/2000/svg" width="847" height="163" viewBox="0 0 211.75 40.75"><path fill="#918f90" d="m19.20725 12.02225-2.283 1.225.966-1.817-1.102-4.625-3.479 1.775 3.022-3.681-.688-4.899 1.725 4.618 4.339 1.644-3.828.153Z"/><path fill="#918f90" d="m25.46015 13.63715-2.483-.755 1.968-.598 2.496-4.052-3.717-1.206 4.74-.463 2.976-3.952-2.044 4.484 1.903 4.234-2.813-2.599Z"/><path fill="#231f20" d="m28.74225 19.19475-1.225-2.285 1.817.965 4.626-1.099-1.776-3.479 3.68 3.021 4.902-.689-4.622 1.725-1.642 4.341-.152-3.828Z"/><path fill="#918f90" d="m27.12675 25.44635.753-2.481.601 1.964 4.051 2.498 1.206-3.714.461 4.735 3.952 2.976-4.484-2.048-4.233 1.909 2.602-2.815Z"/><path fill="#918f90" d="m21.56955 28.72475 1.328 5.615-3.828.149 4.34 1.647 1.726 4.614-.69-4.9 3.023-3.678-3.482 1.777-1.1-4.632.969-1.816z"/><path fill="#918f90" d="m15.31765 27.11225 2.481.753-1.964.6-2.499 4.051 3.715 1.208-4.737.462-2.977 3.952 2.051-4.48-1.912-4.239 2.816 2.603z"/><path fill="#918f90" d="m4.63065 23.39495-4.618 1.725 4.9-.686 3.68 3.021-1.778-3.477 4.627-1.108 1.82.964-1.225-2.277-5.61 1.329-.153-3.829Z"/><path fill="#918f90" d="m13.64845 15.30445-.752 2.483-.599-1.967-4.051-2.497-1.206 3.717-.466-4.74-3.95-2.977 4.486 2.047 4.233-1.908-2.602 2.818z"/><path fill="#918f90" d="M59.89135 12.65455v2.641h-5.39v12.738h-2.816v-12.738h-5.392v-2.641Z"/><path fill="#918f90" d="M75.79265 17.97845c0-1.43-1.189-2.597-2.641-2.597h-5.149v5.172h5.149c1.452 0 2.641-1.144 2.641-2.575m3.739 10.055h-3.343l-3.542-4.752h-4.644v4.752h-2.837v-15.379h8.074c2.971 0 5.39 2.399 5.39 5.324 0 2.113-1.253 3.918-3.057 4.775z"/><path fill="#918f90" d="m93.40835 22.00575-2.727-6.799-2.707 6.799Zm5.281 6.029h-2.859l-1.387-3.454h-7.503l-1.387 3.454h-2.882l6.161-15.381h3.718z"/><path fill="#918f90" d="M114.63295 20.33305c0-2.727-2.179-4.951-4.84-4.951h-3.698v9.902h3.698c2.661 0 4.84-2.222 4.84-4.951m2.817 0c0 4.248-3.389 7.702-7.569 7.702h-6.623v-15.381h6.623c4.18 0 7.569 3.433 7.569 7.679"/><path fill="#918f90" d="M125.71585 15.29505v3.718h7.899v2.663h-7.899v3.696h9.549v2.663h-12.386v-15.381h12.386v2.641Z"/><path fill="#918f90" d="m163.13255 12.65455-4.884 15.379h-2.991l-3.83-11.285-3.85 11.285h-2.993l-4.885-15.379h2.84l3.585 11.265 3.828-11.265h2.95l3.828 11.265 3.565-11.265Z"/><path fill="#918f90" d="M168.00605 12.65485h2.837v15.379h-2.837z"/><path fill="#918f90" d="M191.30415 28.03445h-2.067l-9.088-10.561v10.561h-2.839v-15.379h2.069l9.088 10.539v-10.539h2.837Z"/><path fill="#918f90" d="M208.92035 20.33305c0-2.727-2.179-4.951-4.84-4.951h-3.698v9.902h3.698c2.661 0 4.84-2.222 4.84-4.951m2.817 0c0 4.248-3.389 7.702-7.569 7.702h-6.623v-15.381h6.623c4.18 0 7.569 3.433 7.569 7.679"/></svg>