<?xml version="1.0" encoding="utf-8"?>
<!-- Generator: Adobe Illustrator 24.1.1, SVG Export Plug-In . SVG Version: 6.00 Build 0)  -->
<svg version="1.1" id="Camada_1" xmlns="http://www.w3.org/2000/svg" xmlns:xlink="http://www.w3.org/1999/xlink" x="0px" y="0px"
	 viewBox="0 0 876.4 762.2" style="enable-background:new 0 0 876.4 762.2;" xml:space="preserve">
<style type="text/css">
	.st0{fill-rule:evenodd;clip-rule:evenodd;fill:#0A0C3D;}
	.st1{fill-rule:evenodd;clip-rule:evenodd;fill:#032F90;}
	.st2{fill-rule:evenodd;clip-rule:evenodd;fill:#57B1E5;}
	.st3{fill-rule:evenodd;clip-rule:evenodd;fill:#319D13;}
	.st4{fill-rule:evenodd;clip-rule:evenodd;fill:#FFDC16;}
	.st5{fill-rule:evenodd;clip-rule:evenodd;fill:#FF6F00;}
	.st6{fill-rule:evenodd;clip-rule:evenodd;fill:#C31703;}
	.st7{fill:#154024;}
</style>
<g>
	<polygon class="st0" points="632,636 542.5,636 843.6,0 876.4,0 	"/>
	<polygon class="st1" points="543.1,636 478,636 820.2,0 844.2,0 	"/>
	<polygon class="st1" points="570.5,636 556.7,636 848.1,0 854.8,0 	"/>
	<polygon class="st2" points="479.3,636 358.1,636 776.7,0 820.2,0 	"/>
	<polygon class="st3" points="387.1,636 268.6,636 740.1,0 787,0 	"/>
	<polygon class="st4" points="299.4,636 182.1,636 705.7,0 752.5,0 	"/>
	<polygon class="st5" points="212.8,636 121.2,636 681.3,0 718.7,0 	"/>
	<polygon class="st6" points="121.5,636 31.3,636 649,0 682.5,0 	"/>
	<polygon class="st2" points="506.1,636 490.2,636 823.1,0 828.6,0 	"/>
	<polygon class="st3" points="412.6,636 398.7,636 789.2,0 794.8,0 	"/>
	<polygon class="st4" points="327.9,636 312.5,636 755.1,0 760.7,0 	"/>
	<polygon class="st4" points="202.2,636 186.7,636 709.7,0 715.3,0 	"/>
	<polygon class="st5" points="108.8,636 93.5,636 673,0 678.6,0 	"/>
</g>
<g>
	<polygon class="st7" points="46.6,682.2 2.3,682.2 0,690.8 15.1,690.8 6.2,724.2 21.6,724.2 30.6,690.8 44.3,690.8 	"/>
	<path class="st7" d="M76.1,708c5.9-0.2,11.5-3.3,13.7-11.7c2.4-9.4-3.7-14.1-15.3-14.1l-24.3,0L39,724.2h15.4l4.2-15.5
		c1.1,0,2.5-0.3,3,2.3l3.5,13.2h14.9c0,0-2.2-11.9-2.5-13C77.1,710.1,77,708.7,76.1,708z M74.6,696c-0.5,2.4-3.4,4.7-7.1,4.7
		c-3.7,0-6.9,0-6.9,0l2.8-10.2h6.1C74.7,690.5,75.4,693,74.6,696z"/>
	<path class="st7" d="M106.1,682.2l-25.4,42.1h16.2l4-6.7l12.2,0l0.8,6.7H129l-4.3-42.1H106.1z M105,709.4l6.7-11.2l1,11.2H105z"/>
	<path class="st7" d="M438.5,711.2c-0.3-1-0.4-2.5-1.2-3.2c5.9-0.2,11.5-3.3,13.7-11.7c2.4-9.4-3.7-14.1-15.3-14.1l-24.3,0
		l-11.3,42.1h15.4l4.2-15.5c1.1,0,2.5-0.3,3,2.3l3.5,13.2h14.6l0.2-0.4C440.6,721.9,438.8,712.2,438.5,711.2z M435.7,696
		c-0.5,2.4-3.4,4.7-7.1,4.7c-3.7,0-6.9,0-6.9,0l2.7-9.9h6.1C435.7,690.8,436.5,693,435.7,696z"/>
	<path class="st7" d="M466.2,682.2L441,723.9c0,0.2,0.1,0.4,0.1,0.4h16l4-6.7l12.2,0l0.8,6.7h15.1l-4.3-42.1H466.2z M466.1,709.4
		l6.7-11.2l1,11.2H466.1z"/>
	<path class="st7" d="M440.7,724.2h0.3c0,0,0-0.1-0.1-0.4L440.7,724.2z"/>
	<polygon class="st7" points="169.7,682.2 164.4,701.8 155.8,682.2 142.1,682.2 130.9,724.2 144.6,724.2 149.9,704.2 158.4,724.2 
		172.4,724.2 183.6,682.2 	"/>
	<path class="st7" d="M227.3,694.5c0.1-7.8-4.9-14.7-18.3-14.7c-11.5,0-21.7,5.1-21.6,13.4c0.5,7.7,6.6,10.5,14.1,13.8
		c3.7,1.5,4.1,3,3.5,5.4c-1.1,4.4-3.1,4.8-5.3,4.8c-2.5,0-5.8-1.9-4.4-7.5h-15.8c-0.4,7.5,2.9,16.1,21,16.1c13,0,21.6-7.3,21.1-15.2
		c-0.6-8.3-9-13.2-14.4-14.5c-2.2-0.5-3.5-1-4-1.6c-0.5-0.5-0.7-1.1-0.5-1.8c0.3-0.9,0.9-1.7,1.8-2.4c0.9-0.7,2.2-1,3.7-1
		c1.9,0,3.2,0.4,4,1.3c0.8,0.9,0.6,2,0.4,3.9H227.3z"/>
	<path class="st7" d="M402.6,693.9c1.8-7.2-3.3-11.7-11.7-11.7l-26.3,0l-11.3,42.1c0,0,29,0,32,0c5.5,0,13.7-4.2,13.7-13.3
		c0-3.1-1.6-6.6-3-8.3C398.1,701.9,401.2,699.1,402.6,693.9z M383.6,712c-0.8,3.2-3.2,4.6-6.4,4.6h-8l2.4-9.1l7.7,0
		C382.8,707.5,384.5,709.6,383.6,712z M387,695.1c-0.5,2.2-2.4,4.3-4.8,4.3l-8.5,0l2.3-8.6l6.9,0C385.6,690.8,387.7,692.3,387,695.1
		z"/>
	<polygon class="st7" points="545.3,682.5 532.9,724.2 548.5,724.2 560.1,682.5 	"/>
	<polygon class="st7" points="572.5,716.6 582,682.5 566.8,682.5 554.4,724.2 589.5,724.2 591.8,716.6 	"/>
	
		<rect x="304.3" y="669.1" transform="matrix(0.7071 -0.7071 0.7071 0.7071 -381.6559 423.9071)" class="st7" width="33.1" height="7.1"/>
	<polygon class="st7" points="316.3,696.2 347,683.8 344.3,677.2 313.6,689.6 	"/>
	<polygon class="st7" points="316.1,649.3 309.5,646.6 297,677.3 303.6,680 	"/>
	
		<rect x="317.8" y="715.9" transform="matrix(0.7071 -0.7071 0.7071 0.7071 -423.7937 441.7738)" class="st7" width="7.1" height="33.1"/>
	<polygon class="st7" points="314.1,715.7 344.8,728.1 347.5,721.5 316.8,709.1 	"/>
	<polygon class="st7" points="297.5,727.9 310,758.6 316.6,755.9 304,725.2 	"/>
	
		<rect x="244" y="729.3" transform="matrix(0.7071 -0.7071 0.7071 0.7071 -441.8853 398.9007)" class="st7" width="33.1" height="7.1"/>
	<polygon class="st7" points="265.1,709.4 234.4,721.8 237.1,728.4 267.8,716 	"/>
	<polygon class="st7" points="265.4,756.3 272,759 284.5,728.3 277.9,725.6 	"/>
	
		<rect x="257.1" y="656.3" transform="matrix(0.7071 -0.7071 0.7071 0.7071 -399.4292 381.3969)" class="st7" width="7.1" height="33.1"/>
	<polygon class="st7" points="268,689.7 237.3,677.3 234.6,683.9 265.3,696.3 	"/>
	<polygon class="st7" points="265.5,649.5 278,680.2 284.6,677.5 272.1,646.8 	"/>
	<rect x="287.1" y="729.1" class="st7" width="7.1" height="33.1"/>
	<rect x="286.6" y="643" class="st7" width="7.1" height="33.1"/>
	<rect x="231.9" y="699.1" class="st7" width="33.1" height="7.1"/>
	<rect x="316.7" y="699.1" class="st7" width="33.1" height="7.1"/>
	<path class="st7" d="M516.8,697.1c-2.2-0.5-3.5-1-4-1.6c-0.5-0.5-0.7-1.1-0.5-1.8c0.3-0.9,0.9-1.7,1.8-2.4c0.9-0.7,2.2-1,3.7-1
		c1.9,0,3.2,0.4,4,1.3s0.6,2,0.4,3.9h14.6c0.1-7.8-4.9-14.7-18.3-14.7c-11.5,0-21.7,5.1-21.6,13.4c0.5,7.7,5.2,9.9,12.7,13.1
		c3.7,1.5,4.9,3.2,4.9,6c-0.1,3.2-2.3,4.7-5.3,4.8c-2.5,0-5.2-2.5-4.4-7.5h-15.8c-0.4,7.5,2.9,16.1,21,16.1c13,0,21.6-7.3,21.1-15.2
		C530.6,703.2,522.2,698.4,516.8,697.1z"/>
</g>
</svg>
