<?xml version="1.0" encoding="utf-8"?>
<!-- Generator: Adobe Illustrator 24.1.1, SVG Export Plug-In . SVG Version: 6.00 Build 0)  -->
<svg version="1.1" id="Camada_1" xmlns="http://www.w3.org/2000/svg" xmlns:xlink="http://www.w3.org/1999/xlink" x="0px" y="0px"
	 viewBox="0 0 876.4 176.6" style="enable-background:new 0 0 876.4 176.6;" xml:space="preserve">
<style type="text/css">
	.st0{fill:#127F43;}
	.st1{fill:#EFAF22;}
</style>
<g>
	<polygon class="st0" points="68.6,58.1 3,58.1 -0.4,70.8 22,70.8 8.8,120.4 31.6,120.4 44.9,70.8 65.2,70.8 	"/>
	<path class="st0" d="M112.4,96.3c8.8-0.3,17.1-4.9,20.3-17.4c3.6-13.9-5.5-20.9-22.6-20.9l-36,0l-16.7,62.3h22.8l6.1-23
		c1.6,0,3.8-0.4,4.5,3.4l5.2,19.6h22c0,0-3.3-17.6-3.8-19.3C113.8,99.5,113.6,97.4,112.4,96.3z M110.2,78.7c-0.7,3.6-5,6.9-10.4,6.9
		c-5.4,0-10.2,0-10.2,0l4.1-15.2h9.1C110.3,70.4,111.3,74.1,110.2,78.7z"/>
	<path class="st0" d="M156.8,58.1l-37.7,62.3h24.1l5.9-9.9l18.1,0l1.2,10h22.4l-6.4-62.3H156.8z M155.2,98.5l9.9-16.6l1.4,16.6
		H155.2z"/>
	<path class="st0" d="M649.3,101.1c-0.4-1.5-0.6-3.7-1.8-4.7c8.8-0.3,17.1-4.9,20.3-17.4c3.6-13.9-5.5-20.9-22.6-20.9l-36,0
		l-16.7,62.3h22.8l6.1-23c1.6,0,3.8-0.4,4.5,3.4l5.2,19.6h21.6l0.3-0.5C652.4,116.9,649.7,102.6,649.3,101.1z M645.2,78.7
		c-0.7,3.6-5,6.9-10.4,6.9c-5.4,0-10.2,0-10.2,0l4.1-14.7h9.1C645.2,70.8,646.3,74.1,645.2,78.7z"/>
	<path class="st0" d="M690.3,58.1l-37.4,61.8c0.1,0.3,0.1,0.5,0.1,0.5h23.6l5.9-9.9l18.1,0l1.2,10h22.4l-6.4-62.3H690.3z
		 M690.2,98.5l9.9-16.6l1.4,16.6H690.2z"/>
	<path class="st0" d="M652.6,120.4h0.4c0,0,0-0.2-0.1-0.5L652.6,120.4z"/>
	<polygon class="st0" points="251.1,58.1 243.3,87.2 230.5,58.1 210.2,58.1 193.5,120.4 213.8,120.4 221.7,90.8 234.4,120.4 
		255,120.4 271.7,58.1 	"/>
	<path class="st0" d="M336.4,76.3c0.1-11.6-7.2-21.7-27.1-21.7c-17.1,0-32.2,7.5-31.9,19.9c0.7,11.4,9.7,15.6,20.9,20.4
		c5.5,2.2,6.1,4.5,5.2,8c-1.6,6.5-4.6,7.1-7.8,7.1c-3.7,0-8.6-2.9-6.5-11.1h-23.3c-0.6,11.2,4.3,23.9,31.2,23.9
		c19.3,0,32-10.9,31.2-22.5c-0.9-12.3-13.4-19.5-21.4-21.4c-3.3-0.7-5.2-1.5-5.9-2.4c-0.7-0.7-1-1.6-0.7-2.7
		c0.4-1.3,1.3-2.5,2.7-3.6c1.3-1,3.3-1.5,5.5-1.5c2.8,0,4.7,0.6,5.9,1.9c1.2,1.3,0.9,3,0.6,5.8H336.4z"/>
	<path class="st0" d="M596,75.5c2.7-10.7-4.8-17.4-17.4-17.4l-39,0L523,120.4c0,0,43,0,47.4,0c8.2,0,20.2-6.3,20.2-19.7
		c0-4.6-2.4-9.8-4.4-12.3C589.4,87.3,594,83.1,596,75.5z M568,102.3c-1.2,4.7-4.7,6.8-9.5,6.8h-11.9l3.6-13.5l11.4,0
		C566.8,95.6,569.3,98.8,568,102.3z M573,77.2c-0.8,3.3-3.6,6.4-7,6.4l-12.5,0l3.4-12.7l10.2,0C571,70.8,574,73.1,573,77.2z"/>
	<polygon class="st0" points="807.4,58.5 789.1,120.4 812.3,120.4 829.5,58.5 	"/>
	<polygon class="st0" points="847.8,109.1 861.9,58.5 839.3,58.5 821,120.4 873,120.4 876.4,109.1 	"/>
	
		<rect x="450.5" y="38.8" transform="matrix(0.7071 -0.7071 0.7071 0.7071 108.0137 348.7728)" class="st1" width="49" height="10.5"/>
	<polygon class="st1" points="468.2,78.8 513.7,60.4 509.7,50.7 464.2,69 	"/>
	<polygon class="st1" points="467.9,9.3 458.1,5.3 439.6,50.8 449.4,54.8 	"/>
	
		<rect x="470.5" y="108.1" transform="matrix(0.7071 -0.7071 0.7071 0.7071 45.5817 375.2453)" class="st1" width="10.5" height="49"/>
	<polygon class="st1" points="464.9,107.7 510.4,126.1 514.4,116.3 468.9,97.9 	"/>
	<polygon class="st1" points="440.3,125.8 458.9,171.3 468.6,167.3 450,121.8 	"/>
	
		<rect x="361.2" y="128" transform="matrix(0.7071 -0.7071 0.7071 0.7071 18.7795 311.7241)" class="st1" width="49" height="10.5"/>
	<polygon class="st1" points="392.3,98.4 346.9,116.7 350.9,126.5 396.3,108.2 	"/>
	<polygon class="st1" points="392.8,167.9 402.6,171.9 421.1,126.4 411.3,122.4 	"/>
	
		<rect x="380.6" y="19.8" transform="matrix(0.7071 -0.7071 0.7071 0.7071 81.6804 285.7918)" class="st1" width="10.5" height="49"/>
	<polygon class="st1" points="396.6,69.2 351.2,50.8 347.2,60.6 392.6,79 	"/>
	<polygon class="st1" points="392.9,9.6 411.5,55.1 421.2,51.1 402.7,5.6 	"/>
	<rect x="424.9" y="127.6" class="st1" width="10.5" height="49"/>
	<rect x="424.2" class="st1" width="10.5" height="49"/>
	<rect x="343.2" y="83.1" class="st1" width="49" height="10.5"/>
	<rect x="468.8" y="83.1" class="st1" width="49" height="10.5"/>
	<path class="st0" d="M765.2,80.2c-3.3-0.7-5.2-1.5-5.9-2.4c-0.7-0.7-1-1.6-0.7-2.7c0.4-1.3,1.3-2.5,2.7-3.6c1.3-1,3.3-1.5,5.5-1.5
		c2.8,0,4.7,0.6,5.9,1.9c1.2,1.3,0.9,3,0.6,5.8h21.6c0.1-11.6-7.2-21.7-27.1-21.7c-17.1,0-32.2,7.5-31.9,19.9
		c0.7,11.4,7.7,14.7,18.9,19.5c5.5,2.2,7.2,4.8,7.3,8.9c-0.1,4.7-3.4,7-7.8,7.1c-3.7,0-7.7-3.7-6.5-11.1h-23.3
		c-0.6,11.2,4.3,23.9,31.2,23.9c19.3,0,32-10.9,31.2-22.5C785.7,89.3,773.2,82.1,765.2,80.2z"/>
</g>
</svg>
