<svg id="Layer_1" data-name="Layer 1" xmlns="http://www.w3.org/2000/svg" viewBox="0 0 761.78 280.08"><defs><style>.cls-1{fill:#f0b51d;}.cls-2{fill:#d98127;}.cls-3{fill:#c74127;}.cls-4{fill:#231f20;}</style></defs><polygon class="cls-1" points="613.73 144.59 0 144.59 0 191.11 633.5 191.11 761.78 67.46 761.78 0 613.73 144.59"/><polygon class="cls-2" points="0 191.11 0 233.56 655.6 233.56 761.78 131.43 761.78 67.46 633.5 191.11 0 191.11"/><polygon class="cls-3" points="655.6 233.56 0 233.56 0 280.08 674.79 280.08 761.78 194.81 761.78 131.43 655.6 233.56"/><path class="cls-4" d="M40.45,61.67V25H32.18V17.08H57V25H48.71V61.67Z" transform="translate(0 -2.11)"/><path class="cls-4" d="M61.2,61.67V17.08H74.05q7.24,0,10.68,2.24a13,13,0,0,1,1.51,1.08q4.71,4,4.71,11a13.18,13.18,0,0,1-4.59,10.56,16,16,0,0,1-6.64,3.14l-.42.12L91.37,61.67H81.17L69.47,44.59V61.67Zm8.27-23.29h4q7.42,0,8.75-4.16a8.69,8.69,0,0,0,.36-2.6,6,6,0,0,0-2.17-5.07Q78.63,25,73.15,25H69.47Z" transform="translate(0 -2.11)"/><path class="cls-4" d="M92.51,61.67,111.1,17.08h6.51l18.7,44.59H127.2l-4.76-11.53H106.57l-4.95,11.53Zm17.08-19.43h9.53l-4.77-13.51Z" transform="translate(0 -2.11)"/><path class="cls-4" d="M140.84,61.67V17.08h9.41l18.46,32.46V17.08H177V61.67h-9.23L149.1,29.27v32.4Z" transform="translate(0 -2.11)"/><path class="cls-4" d="M182.22,48.94h8.63q.54,5.55,6,5.55,3.93,0,5.43-2.9a5.26,5.26,0,0,0,.61-2.53,5.6,5.6,0,0,0-2-4.53A24.36,24.36,0,0,0,196,42.18c-.69-.28-1.63-.64-2.84-1.09q-7.84-3-9.11-9.77a15.11,15.11,0,0,1-.18-2.35,12,12,0,0,1,4.53-9.65,13.6,13.6,0,0,1,18.34,1.14,7.31,7.31,0,0,1,.54.6A13.19,13.19,0,0,1,210,29h-8.57q-.36-4.23-4-4.65a4.4,4.4,0,0,0-.73-.06,4.14,4.14,0,0,0-4.22,2.6,5.14,5.14,0,0,0-.36,1.93,4.65,4.65,0,0,0,2.47,4,44.06,44.06,0,0,0,4.95,2,23.81,23.81,0,0,1,7,3.56,6.55,6.55,0,0,0,.54.48,12.13,12.13,0,0,1,4,9.29A13.78,13.78,0,0,1,206.3,59a13.93,13.93,0,0,1-9.42,3.44,14.44,14.44,0,0,1-10.73-4.28,12.44,12.44,0,0,1-1-1.15A15.05,15.05,0,0,1,182.22,48.94Z" transform="translate(0 -2.11)"/><path class="cls-4" d="M217.22,47.85V40.73h16.71v7.12Z" transform="translate(0 -2.11)"/><path class="cls-4" d="M274.23,49.24h9.71a20.93,20.93,0,0,1-10.8,11.1,23.67,23.67,0,0,1-25.88-4.22A22.18,22.18,0,0,1,240,41c0-.56-.06-1.14-.06-1.75a22,22,0,0,1,6.15-15.56,22.22,22.22,0,0,1,14.78-7.3c.69,0,1.35-.06,2-.06a22.8,22.8,0,0,1,14.78,5.13,21.14,21.14,0,0,1,5.61,6.93l.72,1.51h-9.23a13.6,13.6,0,0,0-10.08-5.55q-.78-.06-1.62-.06a13.83,13.83,0,0,0-11.1,4.89,17.79,17.79,0,0,0-3.69,10.13,14.64,14.64,0,0,0,4.83,11.11,14.2,14.2,0,0,0,10.14,4.1,14,14,0,0,0,9.53-3.74C273.2,50.31,273.7,49.8,274.23,49.24Z" transform="translate(0 -2.11)"/><path class="cls-4" d="M310.12,16.3a22,22,0,0,1,15.75,6.27A22.36,22.36,0,0,1,333,37.72q.06.78.06,1.62a22.54,22.54,0,0,1-6.33,16.17,22.29,22.29,0,0,1-15.63,6.94h-1a23,23,0,0,1-16.23-6.27A22.14,22.14,0,0,1,286.66,41c0-.52-.06-1-.06-1.57a22.11,22.11,0,0,1,6.45-16.1,23,23,0,0,1,16-7Zm-.12,8a14.41,14.41,0,0,0-11.4,5.07l-1.39,1.87a15.18,15.18,0,0,0-2.29,8.2A14.9,14.9,0,0,0,310,54.49a14,14,0,0,0,11.23-5.07,15,15,0,0,0,3.49-10A14.86,14.86,0,0,0,319.84,28,14.27,14.27,0,0,0,310,24.26Z" transform="translate(0 -2.11)"/><path class="cls-4" d="M339.56,61.67V17.08h8.27V53.76h13.64v7.91Z" transform="translate(0 -2.11)"/><path class="cls-4" d="M386.08,16.3a22,22,0,0,1,15.75,6.27,22.35,22.35,0,0,1,7.11,15.15c0,.52.07,1.06.07,1.62a22.55,22.55,0,0,1-6.34,16.17,22.25,22.25,0,0,1-15.62,6.94h-1a23,23,0,0,1-16.23-6.27A22.15,22.15,0,0,1,362.61,41c0-.52-.06-1-.06-1.57A22.08,22.08,0,0,1,369,23.3a23,23,0,0,1,16-7Zm-.12,8a14.38,14.38,0,0,0-11.4,5.07l-1.39,1.87a15.18,15.18,0,0,0-2.29,8.2,14.59,14.59,0,0,0,4.88,11.23A14.75,14.75,0,0,0,386,54.49a14,14,0,0,0,11.22-5.07,15,15,0,0,0,3.5-10A14.84,14.84,0,0,0,395.79,28,14.23,14.23,0,0,0,386,24.26Z" transform="translate(0 -2.11)"/><path class="cls-4" d="M415.52,61.67V17.08h12.85q7.25,0,10.68,2.24a13,13,0,0,1,1.51,1.08q4.71,4,4.7,11a13.2,13.2,0,0,1-4.58,10.56A16,16,0,0,1,434,45.08l-.42.12,12.07,16.47h-10.2l-11.7-17.08V61.67Zm8.27-23.29h4q7.43,0,8.75-4.16a8.69,8.69,0,0,0,.36-2.6,6.06,6.06,0,0,0-2.17-5.07Q433,25,427.47,25h-3.68Z" transform="translate(0 -2.11)"/><path class="cls-4" d="M446.83,61.67l18.58-44.59h6.52l18.7,44.59h-9.11l-4.76-11.53H460.89l-4.95,11.53ZM463.9,42.24h9.54l-4.77-13.51Z" transform="translate(0 -2.11)"/><path class="cls-4" d="M495.16,61.67V17.08h10.19q10.5,0,15.81,3.2,7.35,4.41,9.17,13.76a26.6,26.6,0,0,1,.54,5.43q0,10.19-6.09,16.28l-1.87,1.63-2.23,1.45-.73.36q-4.83,2.41-13.69,2.48h-11.1Zm8.26-7.91h1.81q7.31,0,10.86-2a12,12,0,0,0,6-8.32,16.5,16.5,0,0,0,.49-4q0-7.06-4.47-11a11.36,11.36,0,0,0-2.35-1.63Q512.23,25,505.05,25h-1.63Z" transform="translate(0 -2.11)"/><path class="cls-4" d="M558.62,16.3a22,22,0,0,1,15.75,6.27,22.36,22.36,0,0,1,7.12,15.15q.06.78.06,1.62a22.51,22.51,0,0,1-6.34,16.17,22.25,22.25,0,0,1-15.62,6.94h-1a23,23,0,0,1-16.23-6.27A22.14,22.14,0,0,1,535.16,41c0-.52-.07-1-.07-1.57a22.12,22.12,0,0,1,6.46-16.1,23,23,0,0,1,16-7Zm-.12,8a14.41,14.41,0,0,0-11.4,5.07l-1.39,1.87a15.18,15.18,0,0,0-2.29,8.2A14.9,14.9,0,0,0,558.5,54.49a14,14,0,0,0,11.22-5.07,14.93,14.93,0,0,0,3.5-10A14.86,14.86,0,0,0,568.34,28,14.27,14.27,0,0,0,558.5,24.26Z" transform="translate(0 -2.11)"/><path class="cls-4" d="M104.76,124.06l18.58-44.58h6.52l18.7,44.58h-9.11l-4.76-11.52H118.82l-4.95,11.52Zm17.07-19.42h9.54L126.6,91.12Z" transform="translate(0 -2.11)"/><path class="cls-4" d="M153.09,124.06V79.48h8.26v44.58Z" transform="translate(0 -2.11)"/><path class="cls-4" d="M170,124.06V79.48h12.85q7.23,0,10.68,2.23A14,14,0,0,1,195,82.8q4.69,4,4.7,11a13.22,13.22,0,0,1-4.58,10.56,16,16,0,0,1-6.64,3.13l-.42.12,12.06,16.47H190L178.24,107v17.07Zm8.26-23.28h4q7.41,0,8.74-4.17A8.31,8.31,0,0,0,191.4,94,6,6,0,0,0,189.22,89c-1.2-1-3.64-1.57-7.3-1.57h-3.68Z" transform="translate(0 -2.11)"/><path class="cls-4" d="M205,124.06V79.48h8.26v36.68h13.64v7.9Z" transform="translate(0 -2.11)"/><path class="cls-4" d="M231.51,124.06V79.48h8.27v44.58Z" transform="translate(0 -2.11)"/><path class="cls-4" d="M248.41,124.06V79.48h9.41l18.46,32.46V79.48h8.27v44.58h-9.24L256.67,91.67v32.39Z" transform="translate(0 -2.11)"/><path class="cls-4" d="M293.05,124.06V79.48H317v7.9H301.32v10.5h15v7.9h-15v10.38H317v7.9Z" transform="translate(0 -2.11)"/><path class="cls-4" d="M321.16,111.33h8.63q.54,5.55,6,5.55,3.93,0,5.43-2.89a5.3,5.3,0,0,0,.61-2.54,5.58,5.58,0,0,0-2.05-4.52,24.36,24.36,0,0,0-4.89-2.35c-.69-.28-1.63-.65-2.84-1.09q-7.84-3-9.11-9.77a15.24,15.24,0,0,1-.18-2.36,12,12,0,0,1,4.53-9.65,13.59,13.59,0,0,1,18.34,1.15,7.31,7.31,0,0,1,.54.6,13.16,13.16,0,0,1,2.78,7.9h-8.57q-.36-4.22-4-4.64a4.4,4.4,0,0,0-.73-.06,4.14,4.14,0,0,0-4.22,2.59,5.21,5.21,0,0,0-.36,1.93,4.67,4.67,0,0,0,2.47,4,44.06,44.06,0,0,0,5,2,23.57,23.57,0,0,1,7,3.56,6.55,6.55,0,0,0,.54.48,12.12,12.12,0,0,1,4,9.29,13.8,13.8,0,0,1-4.82,10.86,14,14,0,0,1-9.42,3.44,14.41,14.41,0,0,1-10.73-4.29,12.32,12.32,0,0,1-1-1.14A15.09,15.09,0,0,1,321.16,111.33Z" transform="translate(0 -2.11)"/><path class="cls-4" d="M356,124.06v-7.72h8v8.15c0,3.29-1.29,5.65-3.86,7a8,8,0,0,1-4.17,1v-4c2.14-.4,3.3-1.31,3.5-2.72a3.37,3.37,0,0,0,.06-.66,6.75,6.75,0,0,0-.06-1Z" transform="translate(0 -2.11)"/><path class="cls-4" d="M389.58,124.06V79.48h8.26v44.58Z" transform="translate(0 -2.11)"/><path class="cls-4" d="M406.47,124.06V79.48h9.41l18.46,32.46V79.48h8.27v44.58h-9.23L414.74,91.67v32.39Z" transform="translate(0 -2.11)"/><path class="cls-4" d="M483.57,111.64h9.71a21,21,0,0,1-10.79,11.1,23,23,0,0,1-9.78,2.11,22.74,22.74,0,0,1-16.11-6.34,22.24,22.24,0,0,1-7.3-15.14c0-.56-.06-1.15-.06-1.75a22,22,0,0,1,6.16-15.57,22.27,22.27,0,0,1,14.78-7.3c.68,0,1.35-.06,2-.06A22.78,22.78,0,0,1,487,83.82a21.18,21.18,0,0,1,5.61,6.94l.72,1.51h-9.23A13.6,13.6,0,0,0,474,86.72c-.52,0-1.07-.06-1.63-.06a13.84,13.84,0,0,0-11.1,4.89,17.83,17.83,0,0,0-3.68,10.13,14.6,14.6,0,0,0,4.83,11.1,14.12,14.12,0,0,0,10.13,4.1,14,14,0,0,0,9.53-3.74C482.55,112.7,483.05,112.2,483.57,111.64Z" transform="translate(0 -2.11)"/><path class="cls-4" d="M498.84,124.06v-7.72h8v7.72Z" transform="translate(0 -2.11)"/></svg>