<svg xmlns="http://www.w3.org/2000/svg" width="386" height="94" viewBox="0 0 772 188"><path fill="#d40000" d="m169.683364 16.101829-13.876126 47.648533h-37.44404L81.34917 171.898144H25.92736L59.46822 64.69308H16.351343l14.40537-48.59125h138.926651"/><path fill="#d40000" d="M258.149871 16.101829h46.67274l.115771 63.939337 37.229035-63.939337h54.264088l-84.447557 155.796315h-53.437144l.115772-63.360476-37.857512 63.360476h-51.320166l2.51391-155.796315h49.533967l-.57886 64.418965 37.195956-64.418965"/><path fill="#d40000" d="M383.183857 171.898144h-53.734844L413.681564 16.10183h78.129703l-.198467 155.796315h-52.130572v-23.088286h-44.092673zM439.482228 72.1025l-22.013259 36.071313 22.01326.14885V72.1025"/><rect width="263.34052" height="70.41642" x="508.659484" y="16.10185" fill="#d40000"/><rect width="263.34052" height="70.41642" x="508.659484" y="101.48175" fill="#d40000"/></svg>