<svg id="Layer_1" data-name="Layer 1" xmlns="http://www.w3.org/2000/svg" viewBox="0 0 1280.25 128.57"><defs><style>.cls-1{fill:#cc0e00;}.cls-2{fill:#262425;}</style></defs><polygon class="cls-1" points="102.73 67.07 34.06 67.07 32.89 69.18 101.56 69.18 102.73 67.07"/><polygon class="cls-1" points="99.12 73.59 30.45 73.59 29.28 75.7 97.95 75.7 99.12 73.59"/><polygon class="cls-1" points="16.01 99.66 0 128.57 68.67 128.57 84.68 99.66 16.01 99.66"/><polygon class="cls-1" points="91.9 86.63 23.23 86.63 22.06 88.74 90.73 88.74 91.9 86.63"/><polygon class="cls-1" points="139.88 0 71.21 0 25.48 0 0.29 45.47 46.02 45.47 36.5 62.66 105.17 62.66 114.69 45.47 152.18 45.47 177.37 0 139.88 0"/><polygon class="cls-1" points="88.29 93.14 19.62 93.14 18.45 95.26 87.12 95.26 88.29 93.14"/><polygon class="cls-1" points="95.51 80.11 26.84 80.11 25.67 82.22 94.34 82.22 95.51 80.11"/><polygon class="cls-2" points="279.5 44.09 253.53 44.09 229.56 44.09 197.13 44.09 186.84 62.66 219.28 62.66 184.28 125.86 208.24 125.86 243.24 62.66 269.21 62.66 279.5 44.09"/><polygon class="cls-2" points="1044.69 44.09 1019.72 44.09 995.76 44.09 964.32 44.09 954.04 62.66 985.47 62.66 950.48 125.86 974.44 125.86 1009.43 62.66 1034.41 62.66 1044.69 44.09"/><polygon class="cls-2" points="1126.16 44.09 1101.19 44.09 1077.23 44.09 1049.79 44.09 1039.51 62.66 1066.94 62.66 1031.94 125.86 1055.91 125.86 1090.9 62.66 1115.88 62.66 1126.16 44.09"/><path class="cls-2" d="M360.21,63.5h-57l-3.83,6.91-6.46,11.66h0l-35,63.2h24l14.73-26.6H322a3.77,3.77,0,0,1,3.34,5.54l-11.11,21.06H338.5s7.21-13.46,11.1-21.35-6.43-12.43-6.43-12.43h1.1a19.31,19.31,0,0,0,17.1-10.32l10.06-19.1h0A12.67,12.67,0,0,0,360.21,63.5ZM346,86.57l-5.76,10.59a8.29,8.29,0,0,1-7.29,4.33H306.14L316.9,82.07h26.38A3,3,0,0,1,346,86.57Z" transform="translate(-17.9 -19.41)"/><path class="cls-2" d="M665.31,82.07h0A12.66,12.66,0,0,0,654.1,63.5H602.64l-3.83,6.91-6.46,11.66h0l-35,63.2h24l14.74-26.6,37,.14a20.22,20.22,0,0,0,17.73-10.41l14.56-26.33m-25.47,4.5-5.76,10.59a8.29,8.29,0,0,1-7.29,4.33H605.56l10.75-19.42h20.86A3,3,0,0,1,639.84,86.57Z" transform="translate(-17.9 -19.41)"/><path class="cls-2" d="M392.1,63.5h24l-32.44,58.58A3.85,3.85,0,0,0,387,127.8h19.74a8.7,8.7,0,0,0,7.62-4.49L447.48,63.5h24l-38.93,70.3A22.28,22.28,0,0,1,413,145.27H367.37a12.12,12.12,0,0,1-10.6-18Z" transform="translate(-17.9 -19.41)"/><path class="cls-2" d="M897.18,63.5h24L888.7,122.08a3.86,3.86,0,0,0,3.37,5.72h19.75a8.72,8.72,0,0,0,7.62-4.49L952.56,63.5h24l-38.93,70.3a22.26,22.26,0,0,1-19.46,11.47H872.46a12.12,12.12,0,0,1-10.6-18Z" transform="translate(-17.9 -19.41)"/><polygon class="cls-2" points="419.28 125.86 443.24 125.86 473.48 71.25 463.3 125.86 483.75 125.86 533.92 71.25 503.68 125.86 527.64 125.86 572.92 44.09 533.67 44.09 487.6 95.44 497.97 44.09 464.56 44.09 419.28 125.86"/><polygon class="cls-2" points="1088.49 125.86 1156.05 125.86 1166.57 107.39 1122.68 107.39 1157.74 44.09 1133.78 44.09 1088.49 125.86"/><polygon class="cls-2" points="1164.06 125.86 1234.96 125.86 1245.46 106.9 1198.52 106.9 1207.17 91.28 1254.11 91.28 1263.11 75.04 1216.17 75.04 1224.29 60.38 1271.23 60.38 1280.25 44.09 1209.35 44.09 1164.06 125.86"/><polygon class="cls-2" points="844.01 44.09 826.56 75.59 794.17 75.59 811.62 44.09 787.65 44.09 742.37 125.86 766.33 125.86 784.24 93.52 816.63 93.52 798.72 125.86 822.68 125.86 867.97 44.09 844.01 44.09"/><path class="cls-2" d="M739,145.27H688a12,12,0,0,1-10.65-17.41l4.45-8.71h24.14l-2.79,5.67a3.59,3.59,0,0,0,3.22,5.17h23a10.9,10.9,0,0,0,9.77-6.07l2-4a5.08,5.08,0,0,0-4.55-7.34H711.28c-15.56,0-19-9.75-14.82-18.73,2-4.33,5.62-11.55,8.84-17.87A22.88,22.88,0,0,1,725.71,63.5h48.78A11.64,11.64,0,0,1,784.9,80.36l-4.44,8.86H757.1l2.59-4.79a3.48,3.48,0,0,0-3.07-5.13H732.76a9.71,9.71,0,0,0-8.54,5.07L721.15,90a3.79,3.79,0,0,0,3.33,5.6h22.13c16.89,0,26.52,7.71,20.08,20.15-3.27,6.31-7.45,13.81-10.78,19.67A19.47,19.47,0,0,1,739,145.27Z" transform="translate(-17.9 -19.41)"/></svg>