<?xml version="1.0" encoding="UTF-8" standalone="no"?>
<!-- Created with Inkscape (http://www.inkscape.org/) -->
<svg
   xmlns:svg="http://www.w3.org/2000/svg"
   xmlns="http://www.w3.org/2000/svg"
   version="1.0"
   width="1062.9921"
   height="438.97266"
   id="svg2">
  <defs
     id="defs4">
    <clipPath
       id="clipPath2642">
      <path
         d="M 317.48,107.008 L 568.926,107.008 L 568.926,27.322 L 317.48,27.322 L 317.48,107.008"
         id="path2644" />
    </clipPath>
    <clipPath
       id="clipPath2514">
      <path
         d="M 117.116,268.49 L 126.996,228.864 L 263.799,262.972 L 253.919,302.599 L 117.116,268.49"
         id="path2516" />
    </clipPath>
    <clipPath
       id="clipPath2506">
      <path
         d="M 170.034,256.903 L 219.267,269.034 C 219.267,269.034 221.315,269.553 223.488,269.959 C 226.012,270.429 227.754,270.616 229.432,270.704 C 231.337,270.803 232.741,270.813 234.908,270.378 C 236.519,270.054 238.375,268.967 238.375,268.967 C 238.375,268.967 240.646,268.746 241.158,268.587 C 241.726,268.411 243.945,267.937 244.129,267.135 C 244.286,266.451 243.768,265.718 242.608,264.747 C 240.975,263.381 239.514,262.369 237.891,261.456 C 235.525,260.126 233.347,259.401 231.783,258.952 C 231.127,258.764 230.27,258.501 230.27,258.501 L 212.158,253.925 L 212.509,252.216 L 212.458,252.07 L 212.062,251.575 L 211.966,251.477 C 211.966,251.477 209.544,250.482 207.526,249.97 C 206.003,249.583 204.384,249.338 204.384,249.338 C 204.384,249.338 203.169,248.86 202.032,248.729 C 200.721,248.577 200.255,248.659 200.255,248.659 L 200.177,248.75 L 200.519,249.37 L 200.366,249.967 L 199.526,249.753 L 199.591,249.53 L 198.384,249.666 L 197.163,249.542 L 186.394,247.027 L 184.124,246.83 L 183.054,246.618 C 183.054,246.618 178.866,245.694 177.163,245.361 C 175.46,245.029 172.541,244.609 170.762,244.42 C 167.437,244.066 161.32,243.743 154.748,243.855 C 150.282,243.931 142.351,245.041 141.625,245.392 C 141.5,245.453 141.218,246.065 141.218,246.065 L 140.352,246.807 L 140.023,247.61 L 139.815,247.632 L 135.738,247.813 C 135.738,247.813 137.047,248.397 137.537,248.575 C 138.026,248.752 138.867,248.998 139.045,249.024 C 139.222,249.05 142.173,249.325 142.173,249.325 L 130.481,270.966 L 134.001,271.834 C 134.001,271.834 134.574,271.976 134.951,272.009 C 135.292,272.04 135.434,271.966 135.563,271.92 C 135.836,271.822 151.133,260.602 151.133,260.602 C 151.133,260.602 153.385,258.805 155.08,258.131 C 155.52,257.957 156.84,257.385 158.662,257.234 C 160.316,257.097 162.363,257.124 164.198,257.087 C 167.005,257.03 169.354,256.955 169.354,256.955 L 169.638,256.851 L 170.034,256.903"
         id="path2508" />
    </clipPath>
    <clipPath
       id="clipPath2498">
      <path
         d="M 117.116,268.49 L 126.996,228.864 L 263.799,262.972 L 253.919,302.599"
         id="path2500" />
    </clipPath>
    <clipPath
       id="clipPath2488">
      <path
         d="M 0.03,419.528 L 595.276,419.528 L 595.276,0.03 L 0.03,0.03 L 0.03,419.528 z"
         id="path2490" />
    </clipPath>
    <clipPath
       id="clipPath2476">
      <path
         d="M 61.758,30.328 L 97.692,30.229 C 97.692,30.229 99.189,30.235 100.753,30.141 C 102.57,30.032 103.8,29.862 104.969,29.634 C 106.296,29.376 107.263,29.142 108.678,28.472 C 109.731,27.973 110.821,26.907 110.821,26.907 C 110.821,26.907 112.344,26.365 112.669,26.168 C 113.03,25.95 114.475,25.243 114.463,24.66 C 114.454,24.163 113.972,23.748 113.008,23.279 C 111.65,22.62 110.473,22.174 109.2,21.825 C 107.345,21.316 105.723,21.19 104.57,21.15 C 104.087,21.133 103.453,21.1 103.453,21.1 L 90.213,21.058 L 90.162,19.823 L 90.102,19.731 L 89.744,19.458 L 89.662,19.408 C 89.662,19.408 87.825,19.138 86.35,19.132 C 85.236,19.127 84.081,19.237 84.081,19.237 C 84.081,19.237 83.163,19.116 82.359,19.221 C 81.431,19.342 81.125,19.477 81.125,19.477 L 81.087,19.553 L 81.429,19.921 L 81.426,20.358 L 80.812,20.355 L 80.818,20.19 L 80.011,20.491 L 79.15,20.615 L 71.314,20.732 L 69.719,20.985 L 68.947,21.023 C 68.947,21.023 65.909,21.106 64.681,21.169 C 63.453,21.233 61.373,21.444 60.117,21.619 C 57.77,21.946 53.509,22.772 49.009,23.976 C 45.951,24.794 40.687,26.918 40.248,27.283 C 40.172,27.347 40.084,27.816 40.084,27.816 L 39.615,28.475 L 39.527,29.083 L 39.388,29.134 L 36.615,29.957 C 36.615,29.957 37.615,30.135 37.982,30.173 C 38.35,30.211 38.97,30.236 39.096,30.223 C 39.223,30.211 41.299,29.894 41.299,29.894 L 36.97,46.78 L 39.539,46.773 C 39.539,46.773 39.957,46.773 40.223,46.731 C 40.462,46.694 40.547,46.618 40.628,46.564 C 40.799,46.45 49.394,36.112 49.394,36.112 C 49.394,36.112 50.634,34.49 51.685,33.737 C 51.957,33.541 52.767,32.922 53.994,32.505 C 55.108,32.127 56.52,31.795 57.775,31.455 C 59.696,30.935 61.299,30.481 61.299,30.481 L 61.476,30.36 L 61.758,30.328"
         id="path2478" />
    </clipPath>
    <clipPath
       id="clipPath2468">
      <path
         d="M 127.276,47.369 L 27.354,47.369 L 27.354,18.426 L 127.276,18.426 L 127.276,47.369 z"
         id="path2470" />
    </clipPath>
    <clipPath
       id="clipPath2458">
      <path
         d="M 0.03,419.528 L 595.276,419.528 L 595.276,0.03 L 0.03,0.03 L 0.03,419.528 z"
         id="path2460" />
    </clipPath>
    <clipPath
       id="clipPath2440">
      <path
         d="M 0.03,419.528 L 595.276,419.528 L 595.276,0.03 L 0.03,0.03 L 0.03,419.528 z"
         id="path2442" />
    </clipPath>
  </defs>
  <g
     transform="translate(-227.91219,-109.34967)"
     id="layer1">
    <path
       d="M 227.91217,548.32233 L 1290.9043,548.32233 L 1290.9043,109.34967 L 227.91217,109.34967 L 227.91217,548.32233 z"
       id="path2492"
       style="fill:#ffff00;fill-opacity:1;fill-rule:nonzero;stroke:none" />
    <g
       transform="matrix(2.8578583,0,0,2.8578583,-396.882,-1007.6094)"
       id="g2955"
       style="fill:#ff0000">
      <path
         d="M 403.58839,482.58254 C 403.19589,482.90129 402.66964,483.19754 402.09339,483.47379 C 401.13839,483.95129 400.10339,484.43754 399.15964,484.43754 C 398.51339,484.43754 398.04339,484.26379 397.68339,483.96629 C 397.51464,483.82754 397.38964,483.67629 397.29339,483.55004 C 397.21464,483.44504 397.14214,483.33754 397.06589,483.23879 C 396.81964,482.92254 396.57214,482.46004 396.33214,481.88504 C 394.82964,483.36504 392.14964,484.61629 388.25214,484.61629 C 384.95714,484.61629 382.34839,483.77879 380.48214,482.01129 C 378.66339,480.29129 377.62714,477.81504 377.62714,474.39504 L 377.62714,454.87129 C 377.62714,454.04504 377.79339,453.48379 378.38589,453.04004 C 378.99714,452.57129 380.16589,452.41379 381.65464,452.41379 C 383.10839,452.41379 384.28214,452.57504 384.88964,453.04754 C 385.47339,453.49129 385.63839,454.05004 385.63839,454.87129 L 385.63839,473.49754 C 385.63839,476.26879 386.77464,477.63754 390.04714,477.63754 C 393.32714,477.63754 395.26589,475.68254 395.26589,473.00379 L 395.26589,454.87129 C 395.26589,454.04504 395.43214,453.48379 396.02339,453.04004 C 396.63339,452.57254 397.75464,452.41379 399.24964,452.41379 C 400.70214,452.41379 401.87589,452.57504 402.48339,453.04754 C 403.06839,453.49129 403.23214,454.05004 403.23214,454.87129 L 403.23214,476.54879 C 403.23214,477.26504 403.34464,477.90379 403.47964,478.41754 C 403.61089,478.91629 403.76214,479.29504 403.84839,479.50879 C 404.11464,480.04504 404.35464,480.56629 404.35464,481.26254 C 404.35464,481.84629 403.95214,482.28754 403.58839,482.58254"
         id="path2520"
         style="fill:#ff0000;fill-opacity:1;fill-rule:nonzero;stroke:none" />
      <path
         d="M 367.86964,459.99629 L 367.86964,481.64379 C 367.86964,482.47004 367.70339,483.03004 367.11089,483.47504 C 366.50089,483.94129 365.33214,484.10129 363.88714,484.10129 C 362.39089,484.10129 361.21589,483.94129 360.60839,483.46754 C 360.02214,483.02504 359.85839,482.46629 359.85839,481.64379 L 359.85839,460.57504 L 356.16464,460.84254 C 352.85964,461.08129 352.72964,458.27629 352.72964,456.71629 C 352.72964,453.63004 353.86839,452.52629 355.91214,452.52504 L 371.83464,452.52504 C 373.39589,452.52504 374.57214,453.02254 375.03464,455.25254 C 375.54964,457.73254 375.33839,459.46004 372.56339,459.65629 L 367.86964,459.99629"
         id="path2524"
         style="fill:#ff0000;fill-opacity:1;fill-rule:nonzero;stroke:none" />
      <path
         d="M 417.95589,483.54129 C 417.34464,484.00879 416.17714,484.16754 414.73089,484.16754 C 413.23589,484.16754 412.05964,484.00754 411.45214,483.53504 C 410.86714,483.09129 410.70339,482.53254 410.70339,481.71004 L 410.70339,454.87129 C 410.70339,454.04504 410.86964,453.48379 411.46089,453.04004 C 412.07214,452.57129 413.24214,452.41379 414.73089,452.41379 C 416.18339,452.41379 417.35714,452.57504 417.96464,453.04754 C 418.54964,453.49004 418.71339,454.05004 418.71339,454.87129 L 418.71339,481.71004 C 418.71339,482.53754 418.54839,483.09754 417.95589,483.54129"
         id="path2528"
         style="fill:#ff0000;fill-opacity:1;fill-rule:nonzero;stroke:none" />
      <path
         d="M 443.43339,455.08379 C 443.43339,454.52254 443.10589,454.10129 441.98214,453.49254 C 440.67089,452.79004 438.60964,452.41504 436.64339,452.41504 C 430.69464,452.41504 428.02589,456.20879 428.02589,460.84629 L 428.02589,463.56254 L 426.80839,463.56254 C 425.87214,463.56254 425.26339,463.70254 424.93589,464.21754 C 424.51464,464.96629 424.32714,466.41879 424.32714,467.44879 C 424.32714,468.15129 424.42089,468.43254 424.74714,468.62004 C 424.98214,468.76004 425.30964,468.80629 426.05839,468.80629 L 428.02589,468.80629 L 428.02589,482.29504 C 428.02589,483.04379 428.16589,483.37254 428.54089,483.65254 C 428.91589,483.98004 429.80589,484.16754 431.35089,484.16754 C 432.84964,484.16754 433.78714,483.98004 434.16089,483.65254 C 434.53589,483.37254 434.67589,483.04379 434.67589,482.29504 L 434.67589,468.80629 L 438.32964,468.80629 C 439.26589,468.80629 439.87464,468.66629 440.20214,468.15129 C 440.62464,467.40254 440.81089,465.95129 440.81089,464.92004 C 440.81089,464.21754 440.71839,463.93629 440.38964,463.74879 C 440.15589,463.60879 439.82839,463.56254 439.07839,463.56254 L 434.67589,463.56254 L 434.67589,461.03254 C 434.67589,458.83129 435.65964,458.03504 437.15839,458.03504 C 438.65714,458.03504 439.12589,458.31629 439.87464,458.55129 C 440.20214,458.69129 440.57714,458.83129 441.09214,458.83129 C 442.02839,458.83129 442.35714,457.98879 442.82464,457.05129 C 443.10589,456.48879 443.43339,455.88004 443.43339,455.08379"
         id="path2532"
         style="fill:#ff0000;fill-opacity:1;fill-rule:nonzero;stroke:none" />
      <path
         d="M 452.08964,482.29504 L 452.08964,454.28879 C 452.08964,453.30504 452.08964,453.02504 451.71464,452.69629 C 451.48089,452.51004 451.01214,452.41504 450.58964,452.41504 C 450.02839,452.41504 448.90464,452.60254 448.20214,452.74254 C 447.35839,452.93129 446.32964,453.21129 445.95339,453.58629 C 445.53339,454.00754 445.43839,454.52254 445.43839,455.46004 L 445.43839,482.29504 C 445.43839,483.04379 445.57964,483.37254 445.95339,483.65254 C 446.32964,483.98004 447.21964,484.16754 448.76464,484.16754 C 450.26339,484.16754 451.19964,483.98004 451.57464,483.65254 C 451.94839,483.37254 452.08964,483.04379 452.08964,482.29504"
         id="path2536"
         style="fill:#ff0000;fill-opacity:1;fill-rule:nonzero;stroke:none" />
      <path
         d="M 477.56839,464.87879 C 477.56839,463.66004 476.44089,463.37879 474.04589,463.37879 C 472.21339,463.37879 471.36839,463.75379 470.99339,464.59754 L 466.34214,474.71629 L 461.59964,464.69004 C 461.22339,463.89504 460.56589,463.37879 458.21839,463.37879 C 455.96339,463.37879 454.69589,463.80004 454.69589,464.83129 C 454.69589,465.34754 454.97714,466.23754 455.44714,467.17504 L 462.86839,481.64879 L 459.11089,489.47254 C 458.64214,490.40879 458.35839,491.11129 458.35839,491.67504 C 458.35839,492.89254 459.62589,493.22004 461.83589,493.22004 C 463.99589,493.22004 464.51214,492.84504 464.93339,492.00254 L 476.76964,467.12754 C 477.23964,466.19004 477.56839,465.44004 477.56839,464.87879"
         id="path2540"
         style="fill:#ff0000;fill-opacity:1;fill-rule:nonzero;stroke:none" />
      <path
         d="M 483.18964,480.52129 C 483.18964,478.44504 481.29464,476.55379 479.30339,476.55379 C 477.17589,476.55379 475.41839,478.49129 475.41839,480.52129 C 475.41839,482.64379 477.31339,484.44504 479.30339,484.44504 C 481.34089,484.44504 483.18964,482.64379 483.18964,480.52129"
         id="path2544"
         style="fill:#ff0000;fill-opacity:1;fill-rule:nonzero;stroke:none" />
      <path
         d="M 503.81964,480.98379 C 503.81964,480.38379 503.44964,479.64504 502.94089,478.86129 C 502.33964,477.93754 501.78339,477.47629 501.08964,477.47629 C 500.30339,477.47629 499.97839,477.84629 499.23839,478.16754 C 498.49714,478.53754 497.52714,478.76754 496.69339,478.76754 C 494.70464,478.76754 492.89964,477.10629 492.89964,473.92254 C 492.89964,470.78504 494.65839,468.89129 496.83339,468.89129 C 497.89839,468.89129 498.68464,469.16754 499.56464,469.49129 C 500.35089,469.81379 500.57964,470.13754 501.32089,470.13754 C 502.06214,470.13754 502.61714,469.49129 503.07964,468.47754 C 503.54214,467.55379 503.72714,466.95254 503.72714,466.35379 C 503.72714,465.80004 503.49589,465.33754 502.38464,464.78379 C 500.99714,464.09254 499.33339,463.39879 496.32339,463.39879 C 490.44714,463.39879 486.23714,467.92254 486.23714,473.92254 C 486.23714,480.89129 490.95714,484.44504 496.41714,484.44504 C 498.96089,484.44504 501.55339,483.38379 502.75714,482.45879 C 503.54214,481.90629 503.81964,481.49129 503.81964,480.98379"
         id="path2548"
         style="fill:#ff0000;fill-opacity:1;fill-rule:nonzero;stroke:none" />
      <path
         d="M 520.33589,473.92254 C 520.33589,477.10629 518.94839,479.13754 516.35589,479.13754 C 513.76589,479.13754 512.33089,477.06129 512.33089,473.92254 C 512.33089,470.73879 513.76589,468.70754 516.35589,468.70754 C 518.94839,468.70754 520.33589,470.78504 520.33589,473.92254 z M 526.99964,473.92254 C 526.99964,467.69254 522.55714,463.39879 516.35589,463.39879 C 510.10964,463.39879 505.66839,467.69254 505.66839,473.92254 C 505.66839,480.19879 510.10964,484.44504 516.35589,484.44504 C 522.55714,484.44504 526.99964,480.19879 526.99964,473.92254"
         id="path2552"
         style="fill:#ff0000;fill-opacity:1;fill-rule:evenodd;stroke:none" />
      <path
         d="M 561.55964,482.32254 L 561.55964,470.00004 C 561.55964,465.43129 558.55089,463.39879 554.98964,463.39879 C 552.30714,463.39879 549.99214,464.78379 548.74339,466.30754 C 547.63339,464.32379 545.64339,463.39879 543.28339,463.39879 C 540.41339,463.39879 538.28589,464.87754 537.45339,466.39879 L 537.45339,465.43129 C 537.45339,464.46254 537.45339,464.18379 537.08339,463.86129 C 536.85214,463.67754 536.38964,463.58504 535.97214,463.58504 C 535.41714,463.58504 534.35339,463.76879 533.65964,463.90754 C 532.82714,464.09254 531.90339,464.37004 531.53089,464.73879 C 531.11589,465.15379 531.02339,465.66129 531.02339,466.58504 L 531.02339,482.32254 C 531.02339,483.06004 531.16089,483.38379 531.53089,483.65879 C 531.90339,483.98379 532.77964,484.16879 534.30839,484.16879 C 535.78714,484.16879 536.71339,483.98379 537.08339,483.65879 C 537.45339,483.38379 537.59339,483.06004 537.59339,482.32254 L 537.59339,472.12254 C 537.59339,470.41379 539.21089,468.93879 540.73839,468.93879 C 542.26464,468.93879 543.00464,469.67629 543.00464,471.43129 L 543.00464,482.32254 C 543.00464,483.06004 543.14589,483.38379 543.51589,483.65879 C 543.88464,483.98379 544.76464,484.16879 546.29089,484.16879 C 547.77214,484.16879 548.69589,483.98379 549.06839,483.65879 C 549.43714,483.38379 549.57589,483.06004 549.57589,482.32254 L 549.57589,472.12254 C 549.57589,470.41379 551.14839,468.93879 552.67589,468.93879 C 554.20339,468.93879 554.98964,469.67629 554.98964,471.43129 L 554.98964,482.32254 C 554.98964,483.06004 555.12839,483.38379 555.49964,483.65879 C 555.86839,483.98379 556.74714,484.16879 558.27464,484.16879 C 559.75339,484.16879 560.68089,483.98379 561.04964,483.65879 C 561.42214,483.38379 561.55964,483.06004 561.55964,482.32254"
         id="path2556"
         style="fill:#ff0000;fill-opacity:1;fill-rule:evenodd;stroke:none" />
      <path
         d="M 368.71964,501.92879 C 368.55714,502.21254 368.29589,502.27254 367.85089,502.27254 L 362.85839,502.27254 L 362.85839,504.94004 L 367.30464,504.94004 C 367.64839,504.94004 367.80964,504.98129 367.91089,505.04129 C 368.07339,505.14254 368.11339,505.28379 368.11339,505.60754 C 368.11339,506.09254 368.01214,506.76004 367.83089,507.10379 C 367.66839,507.38629 367.40589,507.44629 366.96089,507.44629 L 362.85839,507.44629 L 362.85839,512.58004 C 362.85839,512.90379 362.79839,513.04504 362.63589,513.16629 C 362.45464,513.30754 362.02964,513.38879 361.36339,513.38879 C 360.67589,513.38879 360.25089,513.30754 360.06964,513.16629 C 359.90839,513.04504 359.84714,512.90379 359.84714,512.58004 L 359.84714,500.65629 C 359.84714,500.31254 359.94839,500.11004 360.08964,499.98879 C 360.27214,499.84754 360.59464,499.76629 361.26214,499.76629 L 368.19339,499.76629 C 368.53839,499.76629 368.69964,499.80629 368.80089,499.86754 C 368.96214,499.96879 369.00214,500.11004 369.00214,500.43379 C 369.00214,500.91879 368.90214,501.58504 368.71964,501.92879"
         id="path2560"
         style="fill:#ff0000;fill-opacity:1;fill-rule:nonzero;stroke:none" />
      <path
         d="M 372.86339,513.16629 C 372.70089,513.30754 372.29714,513.38879 371.64964,513.38879 C 370.98339,513.38879 370.59839,513.30754 370.43714,513.16629 C 370.27589,513.04504 370.21464,512.90379 370.21464,512.58004 L 370.21464,501.00004 C 370.21464,500.59504 370.25589,500.37254 370.43714,500.19129 C 370.59839,500.02879 371.04339,499.90879 371.40714,499.82754 C 371.71089,499.76629 372.19589,499.68629 372.43839,499.68629 C 372.61964,499.68629 372.82214,499.72504 372.92339,499.80629 C 373.08464,499.94879 373.08464,500.07004 373.08464,500.49379 L 373.08464,512.58004 C 373.08464,512.90379 373.02464,513.04504 372.86339,513.16629"
         id="path2564"
         style="fill:#ff0000;fill-opacity:1;fill-rule:nonzero;stroke:none" />
      <path
         d="M 377.95589,513.16629 C 377.79464,513.30754 377.38964,513.38879 376.74339,513.38879 C 376.07589,513.38879 375.69214,513.30754 375.53089,513.16629 C 375.36964,513.04504 375.30839,512.90379 375.30839,512.58004 L 375.30839,505.68754 C 375.30839,505.28379 375.34839,505.06129 375.53089,504.88004 C 375.69214,504.71879 376.13714,504.59754 376.50089,504.51629 C 376.80464,504.45629 377.28964,504.37504 377.53214,504.37504 C 377.71339,504.37504 377.91589,504.41504 378.01714,504.49629 C 378.17839,504.63754 378.17839,504.75879 378.17839,505.18254 L 378.17839,512.58004 C 378.17839,512.90379 378.11714,513.04504 377.95589,513.16629 z M 376.74339,503.22254 C 375.83339,503.22254 375.10589,502.55629 375.10589,501.70754 C 375.10589,500.87879 375.83339,500.17129 376.74339,500.17129 C 377.63339,500.17129 378.38089,500.85754 378.38089,501.70754 C 378.38089,502.55629 377.63339,503.22254 376.74339,503.22254"
         id="path2568"
         style="fill:#ff0000;fill-opacity:1;fill-rule:nonzero;stroke:none" />
      <path
         d="M 384.36214,506.29504 C 383.45339,506.29504 382.78589,506.94129 382.68464,507.99254 L 385.93964,507.99254 C 385.93964,506.90129 385.25214,506.29504 384.36214,506.29504 z M 388.34464,509.62879 C 388.18214,509.79129 387.81839,509.89254 387.21214,509.89254 L 382.76589,509.89254 C 382.92714,510.64004 383.63464,511.22629 384.96964,511.22629 C 385.37339,511.22629 385.89839,511.18629 386.22214,511.12504 C 386.54589,511.06504 386.80839,510.94379 387.15214,510.94379 C 387.51589,510.94379 387.65714,511.20629 387.83839,511.63004 C 388.00089,511.99504 388.04089,512.17504 388.04089,512.43879 C 388.04089,512.66129 387.95964,512.88379 387.41464,513.08504 C 386.86839,513.28754 386.03964,513.51004 384.48339,513.51004 C 381.79589,513.51004 379.93589,511.79129 379.93589,508.94254 C 379.93589,506.19379 381.55339,504.29379 384.48339,504.29379 C 387.27339,504.29379 388.58714,506.27504 388.58714,508.59879 C 388.58714,509.40754 388.50589,509.46754 388.34464,509.62879"
         id="path2572"
         style="fill:#ff0000;fill-opacity:1;fill-rule:nonzero;stroke:none" />
      <path
         d="M 394.04339,506.21379 C 392.99214,506.21379 392.54839,506.82004 392.54839,507.62879 C 392.54839,508.45754 393.01339,509.04379 394.04339,509.04379 C 394.95339,509.04379 395.45839,508.35629 395.45839,507.62879 C 395.45839,506.76004 394.97339,506.21379 394.04339,506.21379 z M 395.23589,514.05504 L 392.74964,513.73254 C 392.38589,513.89379 392.16464,514.17629 392.16464,514.54004 C 392.16464,515.12754 392.95214,515.51129 394.30589,515.51129 C 395.63964,515.51129 396.16589,515.14754 396.16589,514.74379 C 396.16589,514.35879 395.96339,514.15629 395.23589,514.05504 z M 398.44964,505.64754 L 397.70214,505.99129 C 397.96464,506.43629 398.10589,507.06254 398.10589,507.62879 C 398.10589,509.56879 396.38839,510.84254 394.20589,510.84254 C 393.78089,510.84254 393.51839,510.80129 393.23464,510.76129 C 393.05339,510.86254 392.95214,511.04379 392.95214,511.18629 C 392.95214,511.38754 393.09339,511.57004 393.63964,511.63004 L 395.55964,511.83254 C 397.64089,512.05379 398.89464,512.56004 398.89464,514.48004 C 398.89464,516.46004 396.91339,517.31004 394.12464,517.31004 C 391.37589,517.31004 389.61714,516.33879 389.61714,514.70254 C 389.61714,513.61129 390.40589,513.08504 391.15339,512.84254 C 390.78964,512.54004 390.52714,512.09504 390.52714,511.61004 C 390.52714,511.02379 390.91089,510.45879 391.45589,510.25504 C 390.34464,509.71004 389.88089,508.70004 389.88089,507.62879 C 389.88089,505.72879 391.49714,504.35504 394.02339,504.35504 C 394.77089,504.35504 395.59964,504.49629 396.08464,504.69754 C 396.48964,504.37504 396.85339,504.07129 397.21714,503.86879 C 397.47964,503.72879 397.68214,503.60754 397.92464,503.60754 C 398.30714,503.60754 398.53089,503.88879 398.75214,504.21254 C 398.93464,504.47629 399.07589,504.69754 399.07589,504.98129 C 399.07589,505.30379 398.83339,505.46629 398.44964,505.64754"
         id="path2576"
         style="fill:#ff0000;fill-opacity:1;fill-rule:nonzero;stroke:none" />
      <path
         d="M 403.92589,506.29504 C 403.01714,506.29504 402.34964,506.94129 402.24964,507.99254 L 405.50339,507.99254 C 405.50339,506.90129 404.81589,506.29504 403.92589,506.29504 z M 407.90839,509.62879 C 407.74589,509.79129 407.38214,509.89254 406.77589,509.89254 L 402.32964,509.89254 C 402.49214,510.64004 403.19839,511.22629 404.53214,511.22629 C 404.93714,511.22629 405.46214,511.18629 405.78589,511.12504 C 406.10964,511.06504 406.37214,510.94379 406.71589,510.94379 C 407.07839,510.94379 407.22089,511.20629 407.40214,511.63004 C 407.56464,511.99504 407.60464,512.17504 407.60464,512.43879 C 407.60464,512.66129 407.52339,512.88379 406.97839,513.08504 C 406.43214,513.28754 405.60339,513.51004 404.04714,513.51004 C 401.35964,513.51004 399.49964,511.79129 399.49964,508.94254 C 399.49964,506.19379 401.11714,504.29379 404.04714,504.29379 C 406.83714,504.29379 408.15089,506.27504 408.15089,508.59879 C 408.15089,509.40754 408.06964,509.46754 407.90839,509.62879"
         id="path2580"
         style="fill:#ff0000;fill-opacity:1;fill-rule:nonzero;stroke:none" />
      <path
         d="M 418.09339,513.16629 C 417.93214,513.30754 417.52839,513.38879 416.88089,513.38879 C 416.21464,513.38879 415.83089,513.30754 415.66839,513.16629 C 415.50714,513.04504 415.44589,512.90379 415.44589,512.58004 L 415.44589,507.97254 C 415.44589,507.04254 415.02214,506.71879 414.29464,506.71879 C 413.40464,506.71879 412.71839,507.48754 412.71839,508.33504 L 412.71839,512.58004 C 412.71839,512.90379 412.65714,513.04504 412.49589,513.16629 C 412.33339,513.30754 411.92964,513.38879 411.28339,513.38879 C 410.61589,513.38879 410.23214,513.30754 410.07089,513.16629 C 409.90839,513.04504 409.84839,512.90379 409.84839,512.58004 L 409.84839,505.68754 C 409.84839,505.28379 409.88839,505.06129 410.07089,504.88004 C 410.23214,504.71879 410.63589,504.59754 410.99964,504.51629 C 411.30339,504.45629 411.76839,504.37504 412.01089,504.37504 C 412.19214,504.37504 412.39464,504.41504 412.49589,504.49629 C 412.65714,504.63754 412.65714,504.75879 412.65714,505.18254 L 412.65714,505.60754 C 413.02089,504.94004 413.89089,504.29379 415.32589,504.29379 C 417.10339,504.29379 418.31589,505.36504 418.31589,507.44629 L 418.31589,512.58004 C 418.31589,512.90379 418.25589,513.04504 418.09339,513.16629"
         id="path2584"
         style="fill:#ff0000;fill-opacity:1;fill-rule:nonzero;stroke:none" />
      <path
         d="M 432.58464,513.02504 C 432.44339,513.24754 432.18089,513.30754 431.77714,513.30754 L 425.51089,513.30754 C 424.72339,513.30754 424.54089,512.96379 424.54089,512.25754 C 424.54089,511.69129 424.62214,511.44879 425.06589,510.96379 L 428.76589,506.76004 L 425.49089,506.76004 C 425.16714,506.76004 425.02589,506.74004 424.92464,506.67879 C 424.78339,506.59754 424.74339,506.47629 424.74339,506.17379 C 424.74339,505.72879 424.82464,505.10254 425.00589,504.77879 C 425.14714,504.55629 425.40964,504.49629 425.81464,504.49629 L 431.67589,504.49629 C 432.46339,504.49629 432.64589,504.84004 432.64589,505.54629 C 432.64589,506.11254 432.54464,506.33504 432.12089,506.84004 L 428.44214,511.04379 L 432.09964,511.04379 C 432.42339,511.04379 432.56464,511.06504 432.66589,511.12504 C 432.80714,511.20629 432.84839,511.32754 432.84839,511.63004 C 432.84839,512.07504 432.76714,512.70129 432.58464,513.02504"
         id="path2588"
         style="fill:#ff0000;fill-opacity:1;fill-rule:nonzero;stroke:none" />
      <path
         d="M 442.26589,513.16629 C 442.10339,513.30754 441.71964,513.38879 441.07339,513.38879 C 440.40589,513.38879 440.06339,513.30754 439.90089,513.16629 C 439.73964,513.04504 439.67839,512.90379 439.67839,512.58004 L 439.67839,512.19629 C 439.31464,512.86379 438.44589,513.51004 437.01089,513.51004 C 435.29339,513.51004 434.01964,512.43879 434.01964,510.35629 L 434.01964,505.22379 C 434.01964,504.90004 434.08089,504.75879 434.24214,504.63754 C 434.40464,504.49629 434.78839,504.41504 435.45464,504.41504 C 436.10214,504.41504 436.50589,504.49629 436.66714,504.63754 C 436.82839,504.75879 436.88964,504.90004 436.88964,505.22379 L 436.88964,509.83129 C 436.88964,510.76129 437.35464,511.08504 438.04214,511.08504 C 438.86964,511.08504 439.61839,510.31629 439.61839,509.46754 L 439.61839,505.22379 C 439.61839,504.90004 439.67839,504.75879 439.84089,504.63754 C 440.00214,504.49629 440.38589,504.41504 441.05339,504.41504 C 441.69964,504.41504 442.10339,504.49629 442.26589,504.63754 C 442.42714,504.75879 442.48839,504.90004 442.48839,505.22379 L 442.48839,512.58004 C 442.48839,512.90379 442.42714,513.04504 442.26589,513.16629"
         id="path2592"
         style="fill:#ff0000;fill-opacity:1;fill-rule:nonzero;stroke:none" />
      <path
         d="M 457.82714,513.16629 C 457.66589,513.30754 457.26214,513.38879 456.61464,513.38879 C 455.94839,513.38879 455.56464,513.30754 455.40214,513.16629 C 455.24089,513.04504 455.17964,512.90379 455.17964,512.58004 L 455.17964,507.81129 C 455.17964,507.04254 454.83714,506.71879 454.16964,506.71879 C 453.50214,506.71879 452.81589,507.36629 452.81589,508.11379 L 452.81589,512.58004 C 452.81589,512.90379 452.75464,513.04504 452.59339,513.16629 C 452.43214,513.30754 452.02714,513.38879 451.38089,513.38879 C 450.71339,513.38879 450.32964,513.30754 450.16839,513.16629 C 450.00589,513.04504 449.94589,512.90379 449.94589,512.58004 L 449.94589,507.81129 C 449.94589,507.04254 449.62214,506.71879 448.95464,506.71879 C 448.28839,506.71879 447.58089,507.36629 447.58089,508.11379 L 447.58089,512.58004 C 447.58089,512.90379 447.51964,513.04504 447.35839,513.16629 C 447.19714,513.30754 446.79214,513.38879 446.14589,513.38879 C 445.47839,513.38879 445.09464,513.30754 444.93339,513.16629 C 444.77214,513.04504 444.71089,512.90379 444.71089,512.58004 L 444.71089,505.68754 C 444.71089,505.28379 444.75089,505.06129 444.93339,504.88004 C 445.09464,504.71879 445.49839,504.59754 445.86214,504.51629 C 446.16589,504.45629 446.63089,504.37504 446.87339,504.37504 C 447.05589,504.37504 447.25714,504.41504 447.35839,504.49629 C 447.51964,504.63754 447.51964,504.75879 447.51964,505.18254 L 447.51964,505.60754 C 447.88464,504.94004 448.81339,504.29379 450.06714,504.29379 C 451.09714,504.29379 451.96589,504.69754 452.45214,505.56629 C 452.99714,504.90004 454.00839,504.29379 455.17964,504.29379 C 456.73714,504.29379 458.05089,505.18254 458.05089,507.18379 L 458.05089,512.58004 C 458.05089,512.90379 457.98964,513.04504 457.82714,513.16629"
         id="path2596"
         style="fill:#ff0000;fill-opacity:1;fill-rule:nonzero;stroke:none" />
      <path
         d="M 469.73214,513.59129 C 467.42839,513.59129 466.11464,513.00504 465.40714,512.60004 C 464.94214,512.33754 464.59839,512.11504 464.59839,511.81254 C 464.59839,511.40754 464.75964,511.06504 464.96214,510.74129 C 465.22464,510.33754 465.44714,509.97254 465.79089,509.97254 C 466.09339,509.97254 466.49839,510.19629 467.00339,510.43879 C 467.58964,510.72129 468.53964,511.02379 469.67089,511.02379 C 470.96464,511.02379 471.95464,510.68004 471.95464,509.48754 C 471.95464,508.37629 470.41964,507.95129 468.72214,507.52754 C 466.55964,506.98129 464.75964,506.03254 464.75964,503.60754 C 464.75964,501.02004 466.80214,499.50379 469.73214,499.50379 C 471.10589,499.50379 472.07589,499.74629 472.76339,499.98879 C 473.65339,500.31254 474.13839,500.69629 474.13839,501.02004 C 474.13839,501.38379 473.95589,501.76754 473.75464,502.09004 C 473.53214,502.45504 473.32964,502.73754 472.94589,502.73754 C 472.50089,502.73754 472.17714,502.53504 471.77339,502.37379 C 471.38964,502.21254 470.68214,502.03129 469.61089,502.03129 C 468.29714,502.03129 467.69089,502.71754 467.69089,503.46629 C 467.69089,504.41504 468.98464,504.71879 470.52089,505.12254 C 472.58214,505.64754 474.92589,506.41504 474.92589,509.26504 C 474.92589,512.13504 472.72339,513.59129 469.73214,513.59129"
         id="path2600"
         style="fill:#ff0000;fill-opacity:1;fill-rule:nonzero;stroke:none" />
      <path
         d="M 489.69964,513.16629 C 489.53839,513.30754 489.13339,513.38879 488.48714,513.38879 C 487.81964,513.38879 487.43589,513.30754 487.27464,513.16629 C 487.11214,513.04504 487.05214,512.90379 487.05214,512.58004 L 487.05214,507.81129 C 487.05214,507.04254 486.70839,506.71879 486.04089,506.71879 C 485.37464,506.71879 484.68714,507.36629 484.68714,508.11379 L 484.68714,512.58004 C 484.68714,512.90379 484.62714,513.04504 484.46464,513.16629 C 484.30339,513.30754 483.89964,513.38879 483.25214,513.38879 C 482.58589,513.38879 482.20214,513.30754 482.03964,513.16629 C 481.87839,513.04504 481.81714,512.90379 481.81714,512.58004 L 481.81714,507.81129 C 481.81714,507.04254 481.49464,506.71879 480.82714,506.71879 C 480.16089,506.71879 479.45339,507.36629 479.45339,508.11379 L 479.45339,512.58004 C 479.45339,512.90379 479.39214,513.04504 479.23089,513.16629 C 479.06839,513.30754 478.66464,513.38879 478.01839,513.38879 C 477.35089,513.38879 476.96714,513.30754 476.80589,513.16629 C 476.64339,513.04504 476.58339,512.90379 476.58339,512.58004 L 476.58339,505.68754 C 476.58339,505.28379 476.62339,505.06129 476.80589,504.88004 C 476.96714,504.71879 477.37089,504.59754 477.73464,504.51629 C 478.03839,504.45629 478.50339,504.37504 478.74589,504.37504 C 478.92714,504.37504 479.12964,504.41504 479.23089,504.49629 C 479.39214,504.63754 479.39214,504.75879 479.39214,505.18254 L 479.39214,505.60754 C 479.75589,504.94004 480.68589,504.29379 481.93839,504.29379 C 482.96964,504.29379 483.83839,504.69754 484.32339,505.56629 C 484.86964,504.90004 485.87964,504.29379 487.05214,504.29379 C 488.60839,504.29379 489.92214,505.18254 489.92214,507.18379 L 489.92214,512.58004 C 489.92214,512.90379 489.86214,513.04504 489.69964,513.16629"
         id="path2604"
         style="fill:#ff0000;fill-opacity:1;fill-rule:nonzero;stroke:none" />
      <path
         d="M 494.73214,513.16629 C 494.57089,513.30754 494.16714,513.38879 493.51964,513.38879 C 492.85339,513.38879 492.46839,513.30754 492.30714,513.16629 C 492.14589,513.04504 492.08464,512.90379 492.08464,512.58004 L 492.08464,505.68754 C 492.08464,505.28379 492.12589,505.06129 492.30714,504.88004 C 492.46839,504.71879 492.91339,504.59754 493.27714,504.51629 C 493.58089,504.45629 494.06589,504.37504 494.30839,504.37504 C 494.48964,504.37504 494.69214,504.41504 494.79339,504.49629 C 494.95464,504.63754 494.95464,504.75879 494.95464,505.18254 L 494.95464,512.58004 C 494.95464,512.90379 494.89464,513.04504 494.73214,513.16629 z M 493.51964,503.22254 C 492.61089,503.22254 491.88214,502.55629 491.88214,501.70754 C 491.88214,500.87879 492.61089,500.17129 493.51964,500.17129 C 494.40964,500.17129 495.15714,500.85754 495.15714,501.70754 C 495.15714,502.55629 494.40964,503.22254 493.51964,503.22254"
         id="path2608"
         style="fill:#ff0000;fill-opacity:1;fill-rule:nonzero;stroke:none" />
      <path
         d="M 499.82589,513.16629 C 499.66339,513.30754 499.25964,513.38879 498.61339,513.38879 C 497.94589,513.38879 497.56214,513.30754 497.40089,513.16629 C 497.23839,513.04504 497.17839,512.90379 497.17839,512.58004 L 497.17839,501.00004 C 497.17839,500.59504 497.21839,500.37254 497.40089,500.19129 C 497.56214,500.02879 498.00589,499.90879 498.36964,499.82754 C 498.67339,499.76629 499.15839,499.68629 499.40089,499.68629 C 499.58339,499.68629 499.78464,499.72504 499.88589,499.80629 C 500.04839,499.94879 500.04839,500.07004 500.04839,500.49379 L 500.04839,512.58004 C 500.04839,512.90379 499.98714,513.04504 499.82589,513.16629"
         id="path2612"
         style="fill:#ff0000;fill-opacity:1;fill-rule:nonzero;stroke:none" />
      <path
         d="M 506.23214,506.29504 C 505.32339,506.29504 504.65589,506.94129 504.55589,507.99254 L 507.80839,507.99254 C 507.80839,506.90129 507.12214,506.29504 506.23214,506.29504 z M 510.21464,509.62879 C 510.05214,509.79129 509.68839,509.89254 509.08214,509.89254 L 504.63589,509.89254 C 504.79714,510.64004 505.50464,511.22629 506.83964,511.22629 C 507.24339,511.22629 507.76839,511.18629 508.09214,511.12504 C 508.41589,511.06504 508.67714,510.94379 509.02214,510.94379 C 509.38589,510.94379 509.52714,511.20629 509.70839,511.63004 C 509.87089,511.99504 509.91089,512.17504 509.91089,512.43879 C 509.91089,512.66129 509.82964,512.88379 509.28464,513.08504 C 508.73839,513.28754 507.90964,513.51004 506.35464,513.51004 C 503.66589,513.51004 501.80589,511.79129 501.80589,508.94254 C 501.80589,506.19379 503.42339,504.29379 506.35464,504.29379 C 509.14339,504.29379 510.45589,506.27504 510.45589,508.59879 C 510.45589,509.40754 510.37589,509.46754 510.21464,509.62879"
         id="path2616"
         style="fill:#ff0000;fill-opacity:1;fill-rule:nonzero;stroke:none" />
      <path
         d="M 518.03589,509.89254 C 517.87339,510.17504 517.61089,510.23504 517.16714,510.23504 L 512.53839,510.23504 C 512.19464,510.23504 512.03339,510.19629 511.93214,510.13379 C 511.76964,510.03379 511.72964,509.89254 511.72964,509.56879 C 511.72964,509.08379 511.83089,508.41629 512.01339,508.07254 C 512.17464,507.79004 512.43714,507.73004 512.88214,507.73004 L 517.50964,507.73004 C 517.85339,507.73004 518.01589,507.77004 518.11714,507.83004 C 518.27839,507.93129 518.31839,508.07254 518.31839,508.39754 C 518.31839,508.88129 518.21714,509.54879 518.03589,509.89254"
         id="path2620"
         style="fill:#ff0000;fill-opacity:1;fill-rule:nonzero;stroke:none" />
      <path
         d="M 524.84589,502.19129 L 523.41089,502.19129 L 523.41089,505.85004 C 523.75589,505.85004 523.85589,505.87004 524.62464,505.87004 C 526.58464,505.87004 527.23089,505.10254 527.23089,503.88879 C 527.23089,502.96004 526.58464,502.19129 524.84589,502.19129 z M 525.00839,508.29504 C 524.05839,508.29504 523.83589,508.27629 523.43214,508.25504 L 523.43214,512.58004 C 523.43214,512.90379 523.37089,513.04504 523.20964,513.16629 C 523.02714,513.30754 522.60339,513.38879 521.93589,513.38879 C 521.24839,513.38879 520.84464,513.30754 520.66339,513.16629 C 520.50089,513.04504 520.44089,512.90379 520.44089,512.58004 L 520.44089,500.65629 C 520.44089,500.31254 520.54089,500.11004 520.68339,499.98879 C 520.86464,499.84754 521.18839,499.76629 521.85464,499.76629 L 525.08839,499.76629 C 528.22214,499.76629 530.28339,501.10004 530.28339,504.03004 C 530.28339,506.45629 528.48464,508.29504 525.00839,508.29504"
         id="path2624"
         style="fill:#ff0000;fill-opacity:1;fill-rule:nonzero;stroke:none" />
      <path
         d="M 538.10464,506.31504 C 537.94214,506.65879 537.67964,507.02254 537.35714,507.02254 C 537.13464,507.02254 536.97339,506.96129 536.79089,506.88129 C 536.58839,506.80004 536.40714,506.74004 536.18464,506.74004 C 535.71964,506.74004 535.47714,506.86004 535.21464,507.14379 C 534.93089,507.44629 534.72964,507.85004 534.72964,508.55879 L 534.72964,512.58004 C 534.72964,512.90379 534.66839,513.04504 534.50714,513.16629 C 534.34464,513.30754 533.94089,513.38879 533.29464,513.38879 C 532.62714,513.38879 532.24339,513.30754 532.08214,513.16629 C 531.91964,513.04504 531.85964,512.90379 531.85964,512.58004 L 531.85964,505.68754 C 531.85964,505.28379 531.89964,505.06129 532.08214,504.88004 C 532.24339,504.71879 532.64714,504.59754 533.01089,504.51629 C 533.31464,504.45629 533.77964,504.37504 534.02214,504.37504 C 534.20464,504.37504 534.40589,504.41504 534.50714,504.49629 C 534.66839,504.63754 534.66839,504.75879 534.66839,505.18254 L 534.66839,505.48629 C 534.89089,505.10254 535.55839,504.37504 536.54839,504.37504 C 537.09339,504.37504 537.39714,504.45629 537.80089,504.63754 C 538.22589,504.81879 538.42714,505.08254 538.42714,505.30379 C 538.42714,505.64754 538.26589,505.97129 538.10464,506.31504"
         id="path2628"
         style="fill:#ff0000;fill-opacity:1;fill-rule:nonzero;stroke:none" />
      <path
         d="M 543.11589,506.29504 C 542.20714,506.29504 541.53964,506.94129 541.43964,507.99254 L 544.69339,507.99254 C 544.69339,506.90129 544.00589,506.29504 543.11589,506.29504 z M 547.09839,509.62879 C 546.93589,509.79129 546.57214,509.89254 545.96589,509.89254 L 541.51964,509.89254 C 541.68214,510.64004 542.38964,511.22629 543.72339,511.22629 C 544.12714,511.22629 544.65214,511.18629 544.97589,511.12504 C 545.29964,511.06504 545.56214,510.94379 545.90589,510.94379 C 546.26964,510.94379 546.41089,511.20629 546.59214,511.63004 C 546.75464,511.99504 546.79464,512.17504 546.79464,512.43879 C 546.79464,512.66129 546.71464,512.88379 546.16839,513.08504 C 545.62339,513.28754 544.79339,513.51004 543.23839,513.51004 C 540.54964,513.51004 538.68964,511.79129 538.68964,508.94254 C 538.68964,506.19379 540.30714,504.29379 543.23839,504.29379 C 546.02714,504.29379 547.34089,506.27504 547.34089,508.59879 C 547.34089,509.40754 547.25964,509.46754 547.09839,509.62879"
         id="path2632"
         style="fill:#ff0000;fill-opacity:1;fill-rule:nonzero;stroke:none" />
      <path
         d="M 551.68589,513.16629 C 551.52339,513.30754 551.11964,513.38879 550.47339,513.38879 C 549.80589,513.38879 549.42214,513.30754 549.26089,513.16629 C 549.09839,513.04504 549.03839,512.90379 549.03839,512.58004 L 549.03839,505.68754 C 549.03839,505.28379 549.07839,505.06129 549.26089,504.88004 C 549.42214,504.71879 549.86714,504.59754 550.23089,504.51629 C 550.53339,504.45629 551.01839,504.37504 551.26089,504.37504 C 551.44339,504.37504 551.64589,504.41504 551.74714,504.49629 C 551.90839,504.63754 551.90839,504.75879 551.90839,505.18254 L 551.90839,512.58004 C 551.90839,512.90379 551.84714,513.04504 551.68589,513.16629 z M 550.47339,503.22254 C 549.56339,503.22254 548.83589,502.55629 548.83589,501.70754 C 548.83589,500.87879 549.56339,500.17129 550.47339,500.17129 C 551.36339,500.17129 552.11089,500.85754 552.11089,501.70754 C 552.11089,502.55629 551.36339,503.22254 550.47339,503.22254"
         id="path2636"
         style="fill:#ff0000;fill-opacity:1;fill-rule:nonzero;stroke:none" />
      <path
         d="M 557.46589,513.51004 C 555.72714,513.51004 554.33339,513.02504 553.80839,512.70129 C 553.36339,512.41879 553.30214,512.23629 553.30214,511.99504 C 553.30214,511.75129 553.42339,511.44879 553.60589,511.16504 C 553.76714,510.92254 553.94964,510.68004 554.21214,510.68004 C 554.59589,510.68004 555.10089,510.96379 555.50589,511.10504 C 555.99089,511.26629 556.75839,511.40754 557.46589,511.40754 C 558.29464,511.40754 558.63839,511.10504 558.63839,510.74129 C 558.63839,510.29629 558.29464,510.17504 557.30464,509.99254 L 556.35464,509.81129 C 554.87839,509.52879 553.50464,508.86129 553.50464,507.18379 C 553.50464,505.28379 555.16214,504.29379 557.42589,504.29379 C 558.59839,504.29379 559.76964,504.53629 560.37714,504.77879 C 560.86214,504.96129 560.96214,505.18254 560.96214,505.42504 C 560.96214,505.68754 560.88214,505.89129 560.78089,506.17379 C 560.65964,506.49629 560.43714,506.80004 560.13339,506.80004 C 559.74964,506.80004 559.40589,506.63879 558.84089,506.51754 C 558.43589,506.43629 558.01089,506.35504 557.30464,506.35504 C 556.57714,506.35504 556.31339,506.59754 556.31339,506.96129 C 556.31339,507.34504 556.83964,507.50754 557.56714,507.62879 L 558.57714,507.81129 C 560.15339,508.09379 561.52839,508.68004 561.52839,510.51879 C 561.52839,512.51879 559.85089,513.51004 557.46589,513.51004"
         id="path2648"
         style="fill:#ff0000;fill-opacity:1;fill-rule:nonzero;stroke:none" />
      <path
         d="M 251.87089,437.80629 L 273.03089,437.80629 C 275.10464,437.80629 276.66839,438.46129 277.28464,441.40754 C 277.96839,444.68379 277.68589,446.96379 273.99839,447.22504 L 267.35589,447.69879 C 272.24464,478.59379 300.83339,488.66379 316.39839,455.39004 C 318.97464,449.88254 319.81839,448.87879 322.63964,449.58004 C 326.46464,450.52879 326.98839,452.49629 325.16589,458.04879 C 311.70714,499.06879 266.47714,503.18004 257.60214,448.40129 L 252.20589,448.79004 C 247.81464,449.10629 247.64089,445.40129 247.64089,443.34004 C 247.64089,439.26629 249.15339,437.80629 251.87089,437.80629"
         id="path2652"
         style="fill:#ff0000;fill-opacity:1;fill-rule:nonzero;stroke:none" />
      <path
         d="M 328.80464,417.96754 C 333.14214,417.96754 336.65839,421.48379 336.65839,425.82254 C 336.65839,430.15879 333.14214,433.67504 328.80464,433.67504 C 324.46714,433.67504 320.95214,430.15879 320.95214,425.82254 C 320.95214,421.48379 324.46714,417.96754 328.80464,417.96754"
         id="path2656"
         style="fill:#ff0000;fill-opacity:1;fill-rule:nonzero;stroke:none" />
    </g>
  </g>
</svg>
