<svg xmlns="http://www.w3.org/2000/svg" viewBox="0 0 198.33 53.92"><defs><style>.cls-1{fill:#fff;}.cls-2{fill:#c90c0f;}</style></defs><g id="Layer_2" data-name="Layer 2"><g id="Layer_1-2" data-name="Layer 1"><path class="cls-1" d="M29.78.15A26.94,26.94,0,1,1,27,0a26.55,26.55,0,0,1,2.83.15M31.17,52A25.43,25.43,0,0,0,29.62,1.66a25.72,25.72,0,0,0-6.88.22,25.26,25.26,0,0,0-7.68,2.61c12.2,4.14,18.77,10.43,19.22,16.88.23,4-1.62,6.86-4.06,9.21l17.27-1.21c.48,0,.64.54,0,.71L6.36,41.88A25.48,25.48,0,0,0,24.29,52.25,24.92,24.92,0,0,0,31.17,52M19.84,27.55c2.26-8.48-.32-17.38-6.48-22.09a25.44,25.44,0,0,0-7.9,35.08c6.56-1.82,12.33-5.28,14.38-13"/><path class="cls-2" d="M52,22.75A25.41,25.41,0,0,1,31.17,52a24.92,24.92,0,0,1-6.88.22A25.55,25.55,0,0,1,6.36,41.88l41.17-11.8c.6-.17.44-.74-.05-.71L30.22,30.58c2.44-2.35,4.29-5.23,4.06-9.21-.45-6.45-7-12.74-19.22-16.88a25.26,25.26,0,0,1,7.68-2.61,25.72,25.72,0,0,1,6.88-.22A25.44,25.44,0,0,1,52,22.75M1.88,31.17a25.25,25.25,0,0,0,3.58,9.37c6.56-1.82,12.33-5.28,14.38-13,2.26-8.49-.32-17.38-6.48-22.09A25.43,25.43,0,0,0,1.88,31.17"/><polygon points="193.42 23.75 193.42 14.89 184.53 14.89 184.53 23.75 179.65 23.75 179.65 2.64 184.53 2.64 184.53 11.05 193.42 11.05 193.42 2.64 198.33 2.64 198.33 23.75 193.42 23.75"/><path d="M88.28,2.64V15.86a10,10,0,0,0,.64,3.75,6.53,6.53,0,0,0,1.82,2.52,7.48,7.48,0,0,0,2.84,1.44,13.75,13.75,0,0,0,3.71.46,13.43,13.43,0,0,0,3.68-.46,6.76,6.76,0,0,0,2.71-1.43,6.57,6.57,0,0,0,1.7-2.52,10.21,10.21,0,0,0,.61-3.76V2.64h-4.57V15.72a4.88,4.88,0,0,1-1,3.19,4.65,4.65,0,0,1-6.27,0,4.81,4.81,0,0,1-1-3.2V2.64Z"/><path d="M74.21,23.75V6.58H68.48V2.64H84.86V4.53a2.05,2.05,0,0,1-2,2.05H79.09V23.75Z"/><rect x="152.62" y="2.64" width="4.88" height="21.11"/><path d="M136.37,13.91l.17.21,6.23,8a4.13,4.13,0,0,0,3.28,1.61h3.89L141,12.4l-.13-.17.13-.16,7.34-9.44h-5.08l-6.73,9.1-.17.22V2.63h-4.88V23.74h4.88V13.91Z"/><path d="M125.13,23.75a4.16,4.16,0,0,1-3.55-2l-3.8-6.26h-2.41v8.27H110.5V2.64h8.69a7.32,7.32,0,0,1,5.2,1.73A6.17,6.17,0,0,1,126.22,9a6.43,6.43,0,0,1-.79,3,5.58,5.58,0,0,1-2.7,2.36l-.29.13,5.93,9.23ZM115.37,12.3h2.85a3.06,3.06,0,0,0,2.32-.83,3,3,0,0,0,.76-2.12,3.11,3.11,0,0,0-.74-2.14,3,3,0,0,0-2.34-.84h-2.85Z"/><path d="M161.5,22.85v-4a14,14,0,0,0,5.63,1.43c2.38,0,3.59-.82,3.59-2.39,0-1.83-1.63-2-4.87-3.43-2.21-1-4.31-2.52-4.31-6.05,0-4.12,3.14-6.06,7.49-6.06a16.24,16.24,0,0,1,5.38.95v4a13,13,0,0,0-5-1.12c-2.14,0-3.14.78-3.14,2.14s1.21,1.87,3.38,2.69c2.8,1.39,6,2,6,6.76,0,4.12-3.28,6.36-7.66,6.36a16.24,16.24,0,0,1-6.49-1.19"/><path d="M99.82,30.19h-5.6l-8,21.11h3.52a2.05,2.05,0,0,0,2-1.41l.82-2.48h8.56l1.25,3.89h5.29Zm-6,13.42,1.92-5.33c.42-1.2.85-2.47,1.13-3.4h.07c.25,1,.68,2.16,1.1,3.4l1.85,5.33Z"/><path d="M125.41,51.3a4.17,4.17,0,0,1-3.56-2L118.05,43h-2.4V51.3h-4.88V30.2h8.7a7.32,7.32,0,0,1,5.2,1.73,6.16,6.16,0,0,1,1.82,4.67,6.38,6.38,0,0,1-.78,3A5.67,5.67,0,0,1,123,42l-.28.13,5.92,9.22Zm-9.76-11.44h2.84a2.79,2.79,0,0,0,3.09-3,3.08,3.08,0,0,0-.75-2.15,3,3,0,0,0-2.34-.83h-2.84Z"/><path d="M68,41C68,35,71.24,29.93,78.15,29.93a13.16,13.16,0,0,1,5.22.95v4a9.26,9.26,0,0,0-4.71-1.08c-3.73,0-5.76,2.47-5.76,7.18,0,4.31,2.24,6.68,5.9,6.68a8.87,8.87,0,0,0,4.81-1.25v4.13a12.13,12.13,0,0,1-5.39,1C71.44,51.59,68,47,68,41"/><path d="M130,41c0-5.89,3.22-11.08,10.85-11.08A14.22,14.22,0,0,1,146.78,31v4a12.8,12.8,0,0,0-5.69-1.22c-4.11,0-6.17,2.57-6.17,7.25s2.17,6.85,6,6.85a7.28,7.28,0,0,0,2.44-.37V43.32h-1.51a1.78,1.78,0,0,1-1.78-1.78V39.83h7.76v10.5a20,20,0,0,1-7.15,1.26C133.77,51.59,130,47.28,130,41"/><path d="M151.23,40.77c0-5.83,3.35-10.84,10-10.84s10,4.81,10,10.81c0,5.83-3.39,10.85-10,10.85s-10-4.82-10-10.82m15.11,0c0-4.47-1.79-7-5.11-7s-5.09,2.54-5.09,7,1.76,7,5.09,7,5.11-2.55,5.11-7"/></g></g></svg>