<?xml version="1.0" encoding="utf-8"?>
<!DOCTYPE svg PUBLIC "-//W3C//DTD SVG 1.1//EN" "http://www.w3.org/Graphics/SVG/1.1/DTD/svg11.dtd" [
<!ENTITY ns_svg "http://www.w3.org/2000/svg">
<!ENTITY ns_xlink "http://www.w3.org/1999/xlink">
]>
<svg  version="1.1" id="Layer_1" xmlns="&ns_svg;" xmlns:xlink="&ns_xlink;" width="208.62" height="85.261"
viewBox="0 0 208.62 85.261" overflow="visible" enable-background="new 0 0 208.62 85.261" xml:space="preserve">
<path fill-rule="evenodd" clip-rule="evenodd" fill="#16067A" d="M187.142,0L149.99,85.079h17.27l6.386-14.077h18.068l-0.073,14.187
l16.979,0.072L208.185,0H187.142L187.142,0z M191.714,56.091H178.87l12.336-30.984h2.321L191.714,56.091z"/>
<polygon fill-rule="evenodd" clip-rule="evenodd" fill="#16067A" points="145.709,85.007 165.664,13.388 179.015,13.388 183.151,0 
140.34,0 135.695,13.388 150.135,13.388 129.891,85.007 "/>
<path fill-rule="evenodd" clip-rule="evenodd" fill="#16067A" d="M108.848,79.237c4.861-3.954,8.344-9.613,10.449-16.979L137.292,0
h-14.149l-18.504,62.803c-0.726,2.431-2.612,5.333-4.281,6.749c-1.669,1.414-2.83,1.559-5.08,1.559
c-2.177,0-3.555-1.088-4.499-2.539c-0.943-1.415-0.653-5.08,0-7.475L108.702,0H94.48L76.557,61.896
c-2.177,7.583-1.959,13.314,0.581,17.307c2.54,3.954,7.256,5.949,14.222,5.949C98.181,85.151,104.059,83.156,108.848,79.237z"/>
<polygon fill-rule="evenodd" clip-rule="evenodd" fill="#16067A" points="74.685,43.214 34.123,43.214 48.2,61.245 69.46,61.245 "/>
<polygon fill-rule="evenodd" clip-rule="evenodd" fill="#16067A" points="80.422,21.804 16.422,21.804 30.282,39.292 75.198,39.292 
"/>
<polygon fill-rule="evenodd" clip-rule="evenodd" fill="#16067A" points="13.714,17.896 81.705,17.896 87.002,0.372 0,0.372 "/>
<g>
<defs>
<path id="XMLID_1_" d="M95.278,71.11c2.25,0,3.411-0.145,5.08-1.559c1.669-1.416,3.556-4.318,4.281-6.749L123.143,0h14.149
l-17.995,62.259c-2.105,7.365-5.588,13.024-10.449,16.979c-4.789,3.919-10.667,5.914-17.488,5.914
c-6.966,0-11.683-1.995-14.222-5.949c-2.54-3.992-2.757-9.724-0.581-17.307L94.48,0h14.222L90.779,61.097
c-0.653,2.395-0.943,6.06,0,7.475C91.723,70.022,93.101,71.11,95.278,71.11L95.278,71.11z M179.015,13.388L183.151,0H140.34
l-4.645,13.388h14.439l-20.244,71.619h15.818l19.955-71.619H179.015L179.015,13.388z M191.641,85.188l0.073-14.187h-18.068
l-6.386,14.077h-17.27L187.142,0h21.043l0.436,85.261L191.641,85.188L191.641,85.188z M191.206,25.106h2.321l-1.813,30.984H178.87
L191.206,25.106L191.206,25.106z M81.927,17.523L87.224,0H0.222l13.714,17.523H81.927L81.927,17.523z M75.469,39.002l5.225-17.487
h-64l13.859,17.487H75.469L75.469,39.002z M68.938,61.024H47.677L33.6,42.993h40.563L68.938,61.024z"/>
</defs>
<clipPath id="XMLID_3_">
<use xlink:href="#XMLID_1_" />
</clipPath>
</g>
</svg>
