<?xml version="1.0" encoding="UTF-8" standalone="no"?>
<!-- Created with Inkscape (http://www.inkscape.org/) -->

<svg
   xmlns:dc="http://purl.org/dc/elements/1.1/"
   xmlns:cc="http://creativecommons.org/ns#"
   xmlns:rdf="http://www.w3.org/1999/02/22-rdf-syntax-ns#"
   xmlns:svg="http://www.w3.org/2000/svg"
   xmlns="http://www.w3.org/2000/svg"
   xmlns:sodipodi="http://sodipodi.sourceforge.net/DTD/sodipodi-0.dtd"
   xmlns:inkscape="http://www.inkscape.org/namespaces/inkscape"
   id="svg2"
   version="1.1"
   inkscape:version="0.91 r13725"
   width="1440"
   height="125.1"
   viewBox="0 0 1440 125.1"
   sodipodi:docname="80s United Express.svg">
  <metadata
     id="metadata8">
    <rdf:RDF>
      <cc:Work
         rdf:about="">
        <dc:format>image/svg+xml</dc:format>
        <dc:type
           rdf:resource="http://purl.org/dc/dcmitype/StillImage" />
        <dc:title></dc:title>
      </cc:Work>
    </rdf:RDF>
  </metadata>
  <defs
     id="defs6" />
  <sodipodi:namedview
     pagecolor="#ffffff"
     bordercolor="#666666"
     borderopacity="1"
     objecttolerance="10"
     gridtolerance="10"
     guidetolerance="10"
     inkscape:pageopacity="0"
     inkscape:pageshadow="2"
     inkscape:window-width="1920"
     inkscape:window-height="1018"
     id="namedview4"
     showgrid="false"
     inkscape:zoom="1.1313708"
     inkscape:cx="636.76075"
     inkscape:cy="181.58755"
     inkscape:window-x="1912"
     inkscape:window-y="-8"
     inkscape:window-maximized="1"
     inkscape:current-layer="svg2" />
  <path
     style="fill:#000000"
     d="m 54.155924,107.90905 c -0.0453,-0.0401 -1.499863,-0.12366 -3.232363,-0.1856 -18.863172,-0.67444 -27.224737,-3.97482 -29.252245,-11.546142 -0.159066,-0.594 -0.335214,-2.0115 -0.391437,-3.15 -0.27628,-5.59444 1.236649,-11.56327 6.433101,-25.38 2.317697,-6.16247 2.103869,-5.62555 11.469374,-28.8 l 8.620104,-21.33 11.300332,-0.0464 c 9.020648,-0.037 11.281331,-7.1e-4 11.206148,0.18 -0.406222,0.97633 -16.643972,41.2084 -17.309023,42.88636 -1.458234,3.67919 -3.639983,9.69836 -4.320608,11.92002 -1.345257,4.39109 -1.544012,7.90679 -0.567908,10.04544 1.384006,3.03236 4.574099,4.55552 11.182162,5.33908 2.69784,0.31991 15.547475,0.32112 17.91,0.002 11.856004,-1.6029 18.186524,-6.45633 24.464549,-18.75616 2.26453,-4.43666 3.17244,-6.59091 12.51701,-29.7 l 8.84352,-21.87 11.57723,-0.0463 c 9.23931,-0.037 11.55961,-6.3e-4 11.48999,0.18 -1.03562,2.68693 -17.5335,43.39568 -18.62049,45.94633 -2.15985,5.0681 -4.5111,10.14911 -6.20317,13.40495 -10.45135,20.11025 -22.717135,28.283732 -45.508639,30.325302 -1.6335,0.14632 -3.4965,0.31244 -4.14,0.36915 -1.398503,0.12326 -17.349349,0.31718 -17.467637,0.21236 z"
     id="path4174" />
  <path
     style="fill:#000000"
     d="m 129.94356,106.97724 c 0,-0.0495 7.90594,-19.671792 17.56876,-43.605002 9.66282,-23.93322 17.77212,-44.02288 18.02066,-44.6437 l 0.45187,-1.12876 23.60436,0.0277 c 12.98239,0.0152 25.34585,0.0964 27.47435,0.18037 12.64892,0.49891 19.43194,1.67985 24.67451,4.29589 10.13621,5.05795 11.02061,15.46757 3.11236,36.63355 -0.44388,1.188 -4.99424,12.528 -10.11195,25.2 l -9.30492,23.040002 -10.935,0.0464 c -7.08264,0.0301 -10.935,-0.016 -10.935,-0.13071 0,-0.0974 3.9155,-9.878802 8.70111,-21.736402 10.86502,-26.92097 10.84127,-26.86071 12.47108,-31.63928 2.16526,-6.34851 2.35298,-9.41687 0.72472,-11.8458 -0.64667,-0.96466 -0.9281,-1.20514 -2.09691,-1.79179 -0.7425,-0.37267 -1.97707,-0.83493 -2.74347,-1.02724 -3.05798,-0.76733 -4.392,-0.81444 -23.07292,-0.81481 l -17.80639,-3.7e-4 -12.02631,29.79 c -6.61447,16.3845 -12.88788,31.91625 -13.9409,34.515002 l -1.91458,4.725 -10.95771,0 c -6.02675,0 -10.95772,-0.0405 -10.95772,-0.0901 z"
     id="path4172" />
  <path
     style="fill:#000000"
     d="m 245.86356,106.91074 c 0,-0.0861 8.08983,-20.194352 17.97741,-44.685002 l 17.97743,-44.52845 11.28803,-0.0464 c 6.95817,-0.0286 11.26485,0.0183 11.22757,0.12219 -0.0332,0.0927 -8.15801,20.22181 -18.05504,44.73135 l -17.99458,44.562822 -11.21042,0 c -6.23387,0 -11.2104,-0.0695 -11.2104,-0.15655 z"
     id="path4170" />
  <path
     style="fill:#000000"
     d="m 311.44057,106.84234 c 0.0525,-0.12375 6.30333,-15.574502 13.89063,-34.335002 7.58731,-18.7605 13.83916,-34.21125 13.893,-34.335 0.0779,-0.17907 -3.25277,-0.225 -16.31637,-0.225 -9.59296,0 -16.38933,-0.067 -16.35426,-0.16123 0.033,-0.0887 1.88029,-4.66517 4.10509,-10.17 l 4.04511,-10.00882 43.80491,0 c 24.09267,0 43.77789,0.0672 43.74487,0.14926 -0.033,0.0821 -1.88249,4.65841 -4.10999,10.16957 l -4.05,10.02031 -15.84284,3.6e-4 -15.84285,3.6e-4 -13.94715,34.55844 -13.94716,34.558442 -11.58426,0.002 c -9.19883,0.001 -11.56459,-0.0448 -11.48873,-0.22344 z"
     id="path4168" />
  <path
     style="fill:#000000"
     d="m 406.96356,106.86304 c -14.28372,-0.86777 -20.71591,-4.2897 -22.79261,-12.125682 -0.51527,-1.94428 -0.47568,-7.66295 0.0742,-10.71 1.53981,-8.53325 6.21794,-21.4796 11.93532,-33.03 11.06526,-22.35442 22.98414,-31.14545 44.53313,-32.8464 1.386,-0.1094 2.8845,-0.2433 3.33,-0.29755 0.4455,-0.0542 12.99148,-0.13848 27.87997,-0.1872 22.70692,-0.0743 27.0549,-0.0493 26.97651,0.15495 -0.0514,0.13393 -1.89978,4.71712 -4.1075,10.18486 l -4.01405,9.94134 -25.03246,0.0108 c -13.76785,0.006 -25.43747,0.044 -25.93247,0.0845 -0.495,0.0405 -1.4265,0.11832 -2.07,0.17296 -4.28479,0.36385 -8.69317,1.87362 -11.66695,3.99567 -2.50128,1.78487 -4.76973,4.67998 -6.40077,8.16891 l -0.79338,1.69716 33.05937,0.09 33.05938,0.09 -4.17728,10.35 -4.17726,10.35 -33.11687,0.0455 -33.11686,0.0455 -0.55491,1.6656 c -1.44171,4.32752 -1.43561,6.91956 0.0223,9.46776 1.34262,2.34663 3.74218,3.76408 7.57188,4.47278 1.49926,0.27745 4.14857,0.31697 27.1579,0.40517 l 25.49657,0.0977 -3.61984,8.95725 -3.61984,8.957262 -26.73673,-0.0306 c -14.70521,-0.0168 -27.83023,-0.097 -29.16673,-0.17822 z"
     id="path4166" />
  <path
     style="fill:#000000"
     d="M 518.90625 17.599609 L 518.56836 18.369141 C 518.38282 18.791941 510.28166 38.819953 500.56445 62.876953 C 490.84724 86.933953 482.85042 106.72428 482.79492 106.85547 C 482.7112 107.05316 487.85185 107.07841 512.82422 107.00391 C 529.39543 106.95449 543.47955 106.86584 544.12305 106.80664 C 544.76655 106.74744 546.83189 106.57658 548.71289 106.42578 C 559.39245 105.56964 566.74432 103.49967 573.61719 99.412109 C 578.99107 96.216039 584.49566 90.655824 588.84961 84.027344 C 593.94418 76.271304 599.24676 64.76007 602.96875 53.375 C 607.90075 38.2887 607.07688 28.89948 600.37305 23.78125 C 595.62361 20.15516 588.54089 18.382447 576.52344 17.810547 C 574.79094 17.728107 561.11904 17.647359 546.14062 17.630859 L 518.90625 17.599609 z M 535.56836 37.726562 L 551.14062 37.822266 C 569.35067 37.935826 572.28096 38.117677 575.71289 39.341797 C 578.09058 40.189887 579.1182 41.018945 580.07031 42.859375 C 580.75395 44.180875 580.85367 46.801828 580.32031 49.398438 C 579.32845 54.227107 574.98428 65.640366 571.26367 73.191406 C 567.6425 80.540626 563.65123 84.502886 557.79297 86.566406 C 554.33925 87.782946 550.63384 88.389712 544.75391 88.701172 C 543.07091 88.790342 535.67039 88.868953 528.30859 88.876953 C 516.23707 88.889653 514.93385 88.863295 515.03125 88.609375 C 515.09069 88.454535 519.73543 76.943094 525.35352 63.027344 L 535.56836 37.726562 z "
     id="path4164" />
  <path
     style="fill:#000000"
     d="m 689.65356,106.94298 c -12.80594,-0.59734 -18.98548,-1.95202 -23.90904,-5.24134 -2.25553,-1.50687 -4.19803,-3.966122 -5.10383,-6.461572 -2.39997,-6.61183 -0.88495,-15.98265 4.94124,-30.56278 1.39177,-3.48296 4.00393,-9.45995 5.01499,-11.475 l 0.79026,-1.575 44.18818,0 c 24.30351,0 44.1882,0.0455 44.1882,0.1012 0,0.0948 -4.51696,11.34663 -6.51688,16.2338 l -0.90234,2.205 -32.81337,0 -32.81337,0 -0.57449,1.575 c -1.13783,3.11946 -1.48705,4.79591 -1.50921,7.245 -0.0197,2.1742 -0.002,2.29063 0.55105,3.45612 1.29877,2.74152 3.77368,4.14414 8.87861,5.0318 0.81763,0.14217 8.69162,0.22512 26.145,0.27543 13.73625,0.0396 24.975,0.0949 24.975,0.12294 0,0.028 -1.72759,4.33783 -3.83908,9.57734 l -3.83905,9.526372 -23.38595,0.008 c -12.86226,0.004 -23.87192,-0.0146 -24.46592,-0.0423 z"
     id="path4160" />
  <path
     style="fill:#000000"
     d="m 758.50765,106.63318 c 0.24525,-0.23876 11.90741,-10.811632 25.91591,-23.495252 14.0085,-12.68363 25.54472,-23.17098 25.63603,-23.30522 0.11574,-0.17012 -2.30513,-6.12658 -7.99023,-19.65975 -4.48596,-10.67862 -8.46317,-20.12509 -8.83824,-20.99217 l -0.68193,-1.57649 10.07674,0.0465 10.07676,0.0465 4.76345,11.34 c 7.10046,16.9035 7.30971,17.38982 7.45783,17.33274 0.0753,-0.029 7.24162,-6.49224 15.9252,-14.36274 l 15.78832,-14.31 13.75306,-0.09 c 7.5642,-0.0495 13.75305,-0.0366 13.75305,0.0286 -2e-5,0.0652 -11.61735,10.63572 -25.81629,23.49 -14.19892,12.85428 -25.82242,23.43302 -25.83,23.5083 -0.008,0.0753 3.92663,9.51179 8.74266,20.97 4.81602,11.45822 8.79447,20.974872 8.84098,21.148122 0.0798,0.29723 -0.47883,0.315 -9.90423,0.315 l -9.98883,0 -0.36655,-0.855 c -0.20162,-0.47025 -2.93306,-6.970502 -6.06987,-14.445002 -3.13682,-7.4745 -5.76234,-13.65294 -5.83448,-13.72987 -0.0722,-0.0769 -7.37426,6.42332 -16.22693,14.445 l -16.09576,14.584882 -13.76628,0 -13.76627,0 0.4459,-0.43411 z"
     id="path4158" />
  <path
     style="fill:#000000"
     d="m 862.93511,106.79374 c 0.0322,-0.15184 5.03995,-12.624842 11.12845,-27.717762 l 11.07,-27.44168 24.21,-0.005 c 33.12187,-0.008 35.87386,-0.12283 40.53686,-1.69769 3.149,-1.06353 5.43501,-2.7987 6.47781,-4.91691 0.4961,-1.00774 0.59153,-1.42046 0.65291,-2.8237 0.0715,-1.63532 0.0689,-1.6474 -0.5355,-2.43977 -0.7616,-0.99852 -1.45636,-1.40644 -3.19075,-1.87339 -1.35324,-0.36434 -1.7732,-0.36994 -31.83633,-0.42459 -16.75575,-0.0305 -30.465,-0.0998 -30.465,-0.15413 0,-0.1724 7.77892,-19.41614 7.897,-19.53585 0.0621,-0.063 6.7145,-0.16499 14.783,-0.22663 8.0685,-0.0616 18.072,-0.1523 22.23,-0.20147 19.85974,-0.23486 27.1679,-0.23305 29.34,0.007 6.53767,0.72333 10.81789,2.44822 13.68763,5.51598 3.20256,3.42353 4.00385,8.15383 2.47986,14.6394 -0.65072,2.76922 -1.23896,4.27474 -3.25793,8.33834 -2.9134,5.8638 -5.81986,9.98621 -9.92556,14.07802 -6.12815,6.10745 -13.88104,10.25602 -22.50698,12.04349 -4.85674,1.00642 -4.01861,0.97053 -25.20018,1.07913 l -19.70316,0.10102 -0.23926,0.45 c -0.13158,0.2475 -3.22732,7.8615 -6.87942,16.92 l -6.64018,16.470002 -12.08586,0.0463 c -10.7826,0.0413 -12.07955,0.0165 -12.02741,-0.22982 z"
     id="path4156" />
  <path
     style="fill:#000000"
     d="m 973.09511,106.79374 c 0.0322,-0.15184 5.03995,-12.624842 11.12845,-27.717762 l 11.07003,-27.44168 24.21001,-0.005 c 33.1219,-0.008 35.8739,-0.12283 40.5369,-1.69769 3.149,-1.06353 5.435,-2.7987 6.4778,-4.91691 0.4961,-1.00774 0.5915,-1.42046 0.6529,-2.8237 0.072,-1.63532 0.069,-1.6474 -0.5355,-2.43977 -0.7616,-0.99852 -1.4564,-1.40644 -3.1908,-1.87339 -1.3532,-0.36434 -1.7732,-0.36994 -31.8363,-0.42459 -16.7557,-0.0305 -30.465,-0.0998 -30.465,-0.15413 0,-0.1724 7.7789,-19.41614 7.897,-19.53585 0.062,-0.063 6.7145,-0.16499 14.783,-0.22663 8.0685,-0.0616 18.072,-0.1523 22.23,-0.20147 19.8597,-0.23486 27.1679,-0.23305 29.34,0.007 6.5377,0.72333 10.8179,2.44822 13.6876,5.51598 3.2026,3.42353 4.0039,8.15383 2.4799,14.6394 -0.6507,2.76922 -1.239,4.27474 -3.2579,8.33834 -3.8469,7.74251 -8.4684,13.5202 -14.4352,18.04626 l -0.6125,0.46461 0.8258,1.24539 c 1.131,1.70561 1.875,3.21936 2.2048,4.48581 0.3426,1.31531 0.3549,3.48158 0.027,4.67959 -0.1356,0.495 -2.8542,7.3395 -6.0412,15.21 -3.187,7.8705 -6.0442,14.937752 -6.3493,15.705002 l -0.5548,1.395 -10.6819,0 c -5.875,0 -10.6818,-0.0432 -10.6818,-0.096 0,-0.0528 1.6318,-4.12308 3.6261,-9.045002 3.9785,-9.81854 4.8797,-12.36016 5.3033,-14.958 0.7945,-4.87263 -1.0683,-7.5871 -6.0494,-8.81485 -3.2227,-0.79431 -4.2002,-0.83621 -19.5063,-0.83621 l -14.5557,0 -2.0774,5.13 c -1.1426,2.8215 -4.2053,10.395 -6.8061,16.83 l -4.72881,11.700002 -12.08653,0.0463 c -10.78328,0.0413 -12.08029,0.0165 -12.02815,-0.22982 z"
     id="path4154" />
  <path
     style="fill:#000000"
     d="m 1122.6436,106.86934 c -9.4413,-0.48894 -14.9568,-1.48434 -19.3709,-3.49589 -8.3391,-3.800262 -10.8439,-11.138222 -8.0626,-23.619702 1.4246,-6.39297 5.0971,-16.24595 9.7623,-26.19147 l 0.9077,-1.935 44.2641,0 44.264,0 -3.7218,9.225 -3.7219,9.225 -32.8008,0.0455 -32.8008,0.0455 -0.3367,0.76451 c -0.6537,1.48406 -1.5897,4.92552 -1.8034,6.63058 -0.7249,5.78274 2.1312,8.75891 9.5134,9.91369 1.0044,0.15711 8.0967,0.23278 26.1917,0.27947 23.3262,0.0602 24.8089,0.0825 24.7262,0.3724 -0.1189,0.4165 -7.3261,18.223942 -7.5392,18.627682 -0.1602,0.30351 -1.3233,0.31753 -23.5149,0.28361 -12.8405,-0.0196 -24.5209,-0.0965 -25.9564,-0.17085 z"
     id="path4152" />
  <path
     style="fill:#000000"
     d="m 1192.666,106.94594 c 0,-0.0818 1.7225,-4.40117 3.825,-9.598672 l 3.8226,-9.45 27.81,-0.0993 c 29.6356,-0.10582 28.8259,-0.0819 32.6196,-0.96282 4.6306,-1.07522 7.6467,-3.25784 9.4092,-6.80907 0.9996,-2.01404 1.1914,-3.22321 0.7311,-4.60896 -0.5904,-1.77757 -2.4282,-2.91942 -5.8599,-3.64086 -0.6752,-0.14194 -6.0838,-0.25192 -17.01,-0.34586 -15.7994,-0.13585 -17.9745,-0.21817 -21.87,-0.8277 -8.3955,-1.31367 -13.303,-4.6654 -14.6057,-9.97543 -0.3552,-1.44778 -0.3104,-5.133 0.088,-7.245 l 0.3311,-1.755 32.2483,0.003 c 19.4447,0.002 33.3204,0.0739 34.9484,0.182 6.2676,0.41602 10.0872,1.1967 13.153,2.68827 4.3505,2.11662 5.8719,5.3759 5.1017,10.92892 -0.6308,4.5477 -3.6741,13.04231 -7.1643,19.99733 -7.3756,14.697682 -16.1811,20.109912 -34.4904,21.199302 -1.089,0.0648 -2.223,0.15972 -2.52,0.21094 -0.9225,0.1591 -60.5701,0.26656 -60.5676,0.10912 z"
     id="path4150" />
  <path
     style="fill:#000000"
     d="m 1297.966,106.94594 c 0,-0.0818 1.7225,-4.40117 3.825,-9.598672 l 3.8226,-9.45 27.81,-0.0993 c 29.6356,-0.10582 28.8259,-0.0819 32.6196,-0.96282 4.6306,-1.07522 7.6467,-3.25784 9.4092,-6.80907 0.9996,-2.01404 1.1914,-3.22321 0.7311,-4.60896 -0.5904,-1.77757 -2.4282,-2.91942 -5.8599,-3.64086 -0.6752,-0.14194 -6.0838,-0.25192 -17.01,-0.34586 -15.7994,-0.13585 -17.9745,-0.21817 -21.87,-0.8277 -8.3955,-1.31367 -13.303,-4.6654 -14.6057,-9.97543 -0.3552,-1.44778 -0.3104,-5.133 0.088,-7.245 l 0.3311,-1.755 32.2483,0.003 c 19.4447,0.002 33.3204,0.0739 34.9484,0.182 6.2676,0.41602 10.0872,1.1967 13.153,2.68827 4.3505,2.11662 5.8719,5.3759 5.1017,10.92892 -0.6308,4.5477 -3.6741,13.04231 -7.1643,19.99733 -7.3756,14.697682 -16.1811,20.109912 -34.4904,21.199302 -1.089,0.0648 -2.223,0.15972 -2.52,0.21094 -0.9225,0.1591 -60.5701,0.26656 -60.5676,0.10912 z"
     id="path4148" />
  <path
     style="fill:#000000"
     d="m 680.98901,35.652308 c 8.24398,-10.74631 18.20432,-16.0158 32.88258,-17.39645 1.62909,-0.15323 3.44797,-0.32792 4.04197,-0.38821 0.594,-0.0603 13.34232,-0.14974 28.32961,-0.19881 27.06309,-0.0886 27.24897,-0.0868 27.1567,0.2661 -0.0511,0.19541 -1.82394,4.65482 -3.93962,9.90978 l -3.84669,9.55448 -42.98546,0.004 -42.98544,0.004 1.34635,-1.755 z"
     id="path4146" />
  <path
     style="fill:#000000"
     d="m 1114.3636,37.303628 c 0,-0.46625 4.0513,-5.17867 6.3818,-7.42324 7.3193,-7.04946 16.2383,-10.70135 28.6282,-11.7219 1.287,-0.10601 2.745,-0.2408 3.24,-0.29955 0.495,-0.0588 13.1954,-0.14559 28.2232,-0.19299 l 27.3231,-0.0862 -0.2454,0.59877 c -0.135,0.32933 -1.9376,4.79052 -4.0057,9.91377 l -3.7604,9.315 -42.8924,0 c -23.5908,0 -42.8924,-0.0466 -42.8924,-0.10367 z"
     id="path4144" />
  <path
     style="fill:#000000"
     d="m 1217.9447,37.095668 c 0.066,-0.1714 0.6032,-1.12315 1.1943,-2.115 6.2259,-10.44639 14.536,-15.54493 27.4346,-16.8321 4.3731,-0.43639 8.3587,-0.49231 37.0389,-0.51968 l 29.8388,-0.0285 -0.2411,0.58844 c -0.1326,0.32365 -1.9333,4.7802 -4.0014,9.90345 l -3.7603,9.315 -43.8117,0 c -41.4713,0 -43.8053,-0.0167 -43.6921,-0.31163 z"
     id="path4142" />
  <path
     style="fill:#000000"
     d="m 1323.2447,37.095668 c 0.066,-0.1714 0.6032,-1.12315 1.1943,-2.115 6.2259,-10.44639 14.536,-15.54493 27.4346,-16.8321 4.3731,-0.43639 8.3587,-0.49231 37.0389,-0.51968 l 29.8388,-0.0285 -0.2411,0.58844 c -0.1326,0.32365 -1.9333,4.7802 -4.0014,9.90345 l -3.7603,9.315 -43.8117,0 c -41.4713,0 -43.8053,-0.0167 -43.6921,-0.31163 z"
     id="path4138" />
</svg>
