<?xml version="1.0" encoding="UTF-8" standalone="no"?>
<!-- Created with Inkscape (http://www.inkscape.org/) -->
<svg id="svg2" xmlns="http://www.w3.org/2000/svg" xml:space="preserve" height="152.5" width="643.75" version="1.0" viewBox="0 0 643.75 152.5"><path id="UTair" d="m622.68 38.064c-11.25 0-24.06 9.168-29.18 16.321l-0.86 0.102 7.44-16.344-22.58 0.005c-5.9 0.513-8.9 3.151-11.36 7.981-14.82 34.97-29.85 70.261-44.67 105.22l26.43 0.18c5.9 0.2 7.77-2.15 10.17-7.75 4.11-9.56 10.06-23.5 14.17-33.07l0.34 0.01c-0.47 13.07 10.28 17.61 16.72 17.66 19.93 0.12 33.1-12.31 44.36-32.438 3.88-6.958 6.21-13.808 7.96-21.855 0.74-3.372 1.18-6.769 1.28-10.06v-3.079c-0.43-12.588-6.26-22.884-20.22-22.884zm-13.33 32.811c-2.88 11.125-9.46 26.765-17.27 32.435-2.25 1.64-4.73 2.44-7.49 2.42-1.29-0.01-2.42-0.33-3.39-0.92-1.27-0.85-3.88-3.47-2.12-10.203 1.08-4.121 9.33-23.587 12.27-28.26 3.17-5.035 7.26-8.368 11.83-8.339 1.83 0.012 3.2 0.247 4.15 0.731 3.6 1.72 3.39 6.795 2.02 12.136m-130.61-32.664l25.48 0.092s-17.86 38.984-18.3 39.841c3.94-4.091 25.49-25.441 34.04-33.851 3.19-3.53 5.84-5.308 10.06-6.082h25.42l-38.05 86.479-33.54-0.15c15.4-34.469 15.68-35.201 18.38-40.826-0.98 1.177-25.06 24.896-33.44 33.036-7.31 6.93-6.15 7.66-12.92 7.98h-24.02c11.53-25.711 25.47-55.69 36.66-81.555 1.81-4.175 5.64-4.852 10.23-4.964m-33.59 35.255c-3.01 13.994-10.33 25.731-21.95 35.204-13.32 10.88-29.73 16.31-49.22 16.31l-31.06-0.36 11.07-21.05 16.33 0.52c5.56 0.18 12.67-2.28 17.4-5.03 4.74-2.745 8.45-6.594 11.13-11.543h-30.52c1.3-3.124 2.65-6.247 3.96-9.37 0.56-1.245 1.32-2.687 2.57-3.681 1.99-1.588 4.47-2.132 6.8-2.132h23.53c0.85-1.992 1.81-3.973 2.63-6.637 1.28-4.114-0.9-7.919-4.16-8.306-5.7-0.677-17.49-0.091-30.67-0.265 2.28-4.829 3.89-7.951 6.13-12.678 1.22-1.952 1.88-3.617 4.1-5.284 2.4-1.474 4.24-2.234 6.64-2.284 6.39-0.132 12.78-0.265 19.17-0.397 15.79-0.328 26.53 4.092 32.41 12.272 4.63 6.459 5.87 14.698 3.71 24.711m-150.86-55.682c4.32 0 6.1 3.197 4.33 6.648l-48.42 94.168c-1.77 3.45 0.31 6.28 4.63 6.28l50.2-0.01c5.81 0.01 8.15-1.15 11.05-6.18l48.46-94.258c1.78-3.451 7.97-6.64 11.92-6.751 0 0 61.15-0.03 65.35 0.075 4.55 0.112 6.11-2.686 6.61-4.322 0.53-1.41 2.25-5.1215 2.9-6.509 1.02-2.1412-0.86-5.525-4.06-5.6012-1.37-0.0313-280.73 0-286.59 0-6.32 0-13.09 4.4637-14.86 7.9212l-11.31 22.084c-1.77 3.456-6.09 8.349-12.06 8.317l-12.14-0.274c-0.47 0.274 1.29-2.55 3.06-6.005l13.38-25.362c1.77-3.4512-0.26-6.7975-4.58-6.7925-20.28 0.0013-33.685-0.005-42.859 0.0375-9.376 0.0425-15.256 3.4038-18.052 8.784-10.835 20.838-26.429 44.395-59.433 108.57-1.774 3.45 0.3608 6.31 4.6801 6.3l48.703-0.06c4.316 0 11.06-3.89 12.861-7.33l23.262-42.446c1.402-2.677 7.89-6.248 11.118-6.248l11.96 0.383c0.09 0.195-1.11 2.43-2.9 5.87l-12.873 24.961c-5.978 11.73 1.242 24.48 13.653 24.7l84.99 0.17c12.65-0.06 16.64-6.49 18.42-9.94l44.77-85.916c3.96-7.93 9.44-11.242 16.58-11.288 4.79-0.034 17.25 0.028 17.25 0.028zm-137.9 84.326c-1.52 2.95-7.02 6.26-11.09 6.26l-19.26-0.11c-4.32 0-5.73-5.57-3.95-9.022l38.75-74.69c1.5-2.886 7.36-6.72 11.32-6.72h17.18c6.24-0.153 7.51 5.851 5.73 9.3l-38.68 74.982m385.86-94.76l-6.43 14.719c-0.7 1.303-2.58 3.516-5.94 3.621l-26.74 0.225c-2.44 0.005-4.8-3.136-3.85-5.449 1.13-2.734 5.15-11.381 6.22-14.404 0.35-1.0108 0.38-4.2358 6.09-4.9632 6.14 0.0112 20.48-0.01 26.62 0 4.08 0.4837 5.12 3.7674 4.03 6.2512" fill-rule="evenodd" fill="#082979"/></svg>
