<?xml version="1.0" encoding="UTF-8" standalone="no"?>
<!-- Created with Inkscape (http://www.inkscape.org/) -->
<svg id="svg2" xmlns="http://www.w3.org/2000/svg" xml:space="preserve" height="151.25" width="613.75" version="1.0" viewBox="0 0 613.75 151.25"><path id="UTair" d="m519.69 42.989l-53.89 105.4h-39.96c16.79-32.77 32.69-63.848 49.48-96.615 2.02-2.958 0.65-1.834 4.23-5.603 2.11-2.061 6.48-2.809 8.78-3.183h31.36m-124.75 56.213c-3.76 0.066-8.4 0.848-12.2 1.838-3.8 1-7.22 2.3-10.3 3.9-2.6 1.41-4.76 3.05-6.56 4.96-1.74 1.88-3.08 3.94-4.02 6.16-1.12 2.67-1.13 4.82-0.02 6.5s3.71 2.26 6.14 2.26c4.72 0 9.74-2.25 14.4-6.73 4.66-4.52 12.56-18.888 12.56-18.888zm-22.32-53.846c3.06-2.187 8.94-2.708 9.4-2.708l36.66 0.032c6.25 0.004 11.54 0.548 15.81 1.608 8.72 2.162 13.46 6.812 14.49 15.392 0.54 4.486-0.44 9.786-3 15.875-0.61 1.471-1.39 4.035-2.73 6.225-1.33 2.191-27.59 52.15-35.83 66.61h-38.16s8.75-16.1 9.32-17.06l-1.17-0.05s-17.41 18.58-39.82 18.75c-4.68 0.04-8.43-0.68-11.28-2.05-2.81-1.37-4.92-3.52-6.28-6.47-1.31-2.67-1.86-5.85-1.7-9.58 0.15-3.69 1.11-7.69 2.9-11.97 1.65-3.93 3.83-7.66 6.5-11.19 2.67-3.48 5.78-6.67 9.31-9.539 3.23-2.567 6.78-4.823 10.74-6.844 3.94-1.983 8.31-3.761 13.1-5.303 5.48-1.745 12.02-3.215 19.65-4.444 7.63-1.235 15.71-2.054 24.23-2.465 2.72-4.357 3.09-5.159 3.09-8.099 0.01-2.066-2.49-4.201-5.71-4.201-2.39 0-44.03 1.241-43.85 0.891l7.79-15.138c0.76-1.477 4.22-6.615 6.54-8.272m71.08-38.595c1.28-3.8837-1.61-6.6574-4.66-6.6574l-223.57 0.5337c-6.7-0.015-16.1 3.4563-20.85 11.674l-57.11 105.02c-3.65 6.72-12.51 11.61-20.87 11.61l-17.367-0.02c-5.235 0.03-9.632-5.69-6.417-11.59l57.244-105.37c2.49-4.585-0.45-11.246-6.57-11.292-2.62-0.0205-44.101-0.0005-50.354-0.0005-7.292 0-14.962 3.5325-19.881 12.14-3.735 6.537-70.817 120.87-70.817 120.87-4.2456 7.01 1.4614 14.71 8.169 14.77l135.16-0.01c9.23-0.01 17.12-4.71 21.09-11.47l56.91-105.03c4.92-9.048 10.25-11.84 20.97-11.84l14.77 0.014c5.43 0 9.87 5.588 6.46 11.824l-55.48 101.93c-3.48 6.39 1.19 14.48 8.35 14.52l47.21-0.04c8.63 0.02 17.79-5.09 21.48-11.87l56.6-104.51c5.89-10.836 10.29-11.862 20.8-11.862l66.81-0.204c4.49 0.165 6.1-2.994 7.04-4.326l4.88-8.8168m52.92-2.9637c1-1.6075 3.16-3.6075 7.04-3.6075s25.4 0.08 27.79 0.0575c2.5-0.02375 6.35 2.72 4.17 7.2187-1.34 2.7728-8.58 17.673-9.46 19.172-0.89 1.494-3 3.602-6 3.602-2.99 0-26.71 0.012-28.15 0.012-4.84 0-6.15-4.767-5.01-7.056 2.12-4.236 9.62-19.398 9.62-19.398m30.18 144.65h-40.6s42.67-86.856 47.86-97.189c3.9-7.766 8.7-8.225 13.19-8.225h25.09s-13.03 26.067-13.6 27.03l1.16 0.046s17.64-27.984 41.35-28.714c9.39-0.29 20.16 11.347 1.9 26.648-12.75-2.55-37.47 2.966-50.28 26.698-3.67 6.806-26.07 53.706-26.07 53.706" fill-rule="evenodd" fill="#082979"/></svg>
