<?xml version="1.0"?>
<svg xmlns="http://www.w3.org/2000/svg" width="170.069" height="62.477497">
<title>Utair logo</title>
<g style="fill:#003392;stroke:none;" transform="matrix(0.98062446,0,0,1.0047018,0.18863459,0.78622543) translate(-25.457088,-43.627229)">
 <path d="m 75.57816,78.725457 c 0,4.273124 -0.474791,8.005513 -1.424375,11.197167 -0.923206,3.165277 -2.453091,5.803007 -4.589654,7.913195 -2.124858,2.096238 -4.619465,3.849111 -7.121872,5.070121 -2.729476,1.33172 -7.732251,2.00338 -11.345666,1.91135 -3.624422,-0.0929 -9.176895,-0.73682 -12.274976,-1.94366 -2.711795,-1.05637 -5.167084,-2.978761 -7.039876,-4.877932 -2.136558,-2.162942 -3.679627,-4.774292 -4.629219,-7.834061 -0.923207,-3.059769 -1.384805,-6.818535 -1.384805,-11.276299 l 0.029,-36.214221 10.262179,0.0017 0,35.648934 c 0,3.191658 0.211018,5.71069 0.633057,7.557102 0.448414,1.846412 1.186979,3.521372 2.215694,5.024878 1.160603,1.714524 2.730053,3.007012 4.708352,3.877466 2.004676,0.870453 4.405011,1.305678 7.201005,1.305678 2.822373,0 5.222708,-0.42204 7.201006,-1.266115 1.9783,-0.87045 3.560938,-2.176125 4.747918,-3.917029 1.028715,-1.503506 1.754091,-3.218031 2.176127,-5.143576 0.448415,-1.951921 0.672623,-4.365445 0.672623,-7.240572 l 0,-35.846766 9.963527,0.0079 z M 199.197,67.980274 c -1.20597,-0.07405 -3.48962,-1.63e-4 -5.46109,0.09325 -4.49015,0.212824 -9.7756,3.232263 -10.20824,7.385122 l 0.043,27.885044 -9.81273,0.005 -0.0574,-44.949359 9.85601,0.01989 0.0288,6.361169 c 3.56762,-4.747912 6.4579,-6.482651 11.72228,-7.130448 1.19651,-0.147232 2.44449,-0.115116 3.83134,0.106861 z m -33.27274,35.367366 -10.67511,-0.005 0.002,-44.949963 10.68573,0.0049 z m 0.004,-50.387711 -10.67565,-0.0115 -0.003,-10.307913 10.68062,0 z m -28.28774,37.098783 -0.0816,-8.019839 -5.31099,0.39284 c -10.46129,0.773797 -15.5814,3.031419 -15.76076,8.751584 -0.0659,2.12019 0.53904,3.453059 2.17934,4.706866 1.68453,1.183151 3.03206,1.435566 5.89575,1.435566 2.61105,0 4.90619,-0.577816 7.34875,-1.733445 2.44261,-1.155638 4.32601,-3.552486 5.72981,-5.533572 z m 0.0255,7.764896 c -3.00268,4.702362 -8.32071,7.296002 -15.14673,6.853992 -4.4262,-0.28662 -8.6649,-1.16929 -11.52862,-3.50814 -2.86367,-2.366278 -4.785,-6.658799 -4.5272,-10.364797 0.86144,-12.38251 11.2919,-13.73634 27.57378,-14.788151 l 3.50008,-0.226104 c 0,-3.136719 -0.28428,-5.519763 -0.62119,-6.923029 -1.45745,-3.848596 -5.59051,-4.877488 -8.13757,-5.065766 -6.24013,-0.283486 -10.01905,3.192948 -10.60197,8.107381 l -9.48102,-0.113052 c 0.58961,-8.997428 7.36637,-15.078868 19.63544,-15.078868 5.72741,0 9.95974,1.905724 13.16039,4.134444 3.20062,2.228724 5.14838,7.168877 5.14838,13.689947 l -0.0288,28.793155 -8.87213,0.003 z M 103.20661,103.518 c -1.59547,0.36797 -3.695883,0.52026 -5.739425,0.4766 -3.104567,-0.0657 -5.178054,-0.97064 -6.623629,-2.12068 -1.445528,-1.178 -2.408783,-2.780024 -3.037811,-4.529959 -0.528616,-1.470591 -1.014281,-4.249744 -1.014281,-7.446834 l 0,-24.366694 -6.642345,-0.02336 0.05786,-7.244195 6.526516,-0.03312 0,-11.813714 9.923589,0.02832 0,11.841972 7.225216,0.05648 c 0.2316,1.469673 0.0644,7.131142 0.0644,7.131142 l -7.319062,0 0.173738,24.165636 c 0.02193,3.05719 0.506179,4.21526 1.228969,5.056712 0.749559,0.813398 1.766812,1.2201 3.051765,1.2201 1.31172,0 0.94835,0.05733 2.15301,-0.167002 z" />
</g>
</svg>
