<?xml version="1.0"?>
<svg version="1.1" xmlns="http://www.w3.org/2000/svg" xmlns:xlink="http://www.w3.org/1999/xlink" viewBox="0 0 2532.7 543">
<style type="text/css">
	.st0{clip-path:url(#SVGID_2_);fill:#003594;}
	.st1{fill:url(#SVGID_3_);}
	.st2{fill:url(#SVGID_4_);}
</style>
<defs>
 <rect id="SVGID_1_" x="1057.8" width="1475" height="544.4"/>
</defs>
<clipPath id="SVGID_2_">
 <use xlink:href="#SVGID_1_"  style="overflow:visible;"/>
</clipPath>
<path class="st0" d="M1577.9,34.5v104.3h-54.4v61.7h54.4v222.6c0,78.6,26.4,110.2,105.1,110.2h29.4v-63.2h-5.1 c-34.5,0-47-13.2-47-47.8V200.6h63.9v-61.7h-63.9V34.5H1577.9z M1271.6,465.8c-81.5,0-124.9-49.2-124.9-159.4V0h-88.9v299.7 c0,173.4,73.5,244.6,213.8,244.6c140.3,0,214.5-71.3,214.5-244.6V0h-88.9v306.4C1397.2,416.6,1353.1,465.8,1271.6,465.8 M2250.1,0h-85.2v82.3h85.2V0z M2250.1,138.9h-85.2v394.5h85.2V138.9z M2532.7,133c-2.9-1.5-11-3.7-20.6-3.7 c-58,0-92.6,34.5-112.4,77.1v-67.6h-80.1v394.5h83V315.9c0-66.1,33.1-97.7,99.2-97.7h30.9V133z M2011.4,343.8v25.7 c0,63.9-52.2,109.5-113.9,109.5c-35.3,0-66.1-20.6-66.1-55.8c0-33.1,27.9-58.8,76.4-65.4L2011.4,343.8z M1876.2,544.4 c69.1,0,115.3-27.2,141.1-66.1v55.1h77.1V304.9c0-152.8-82.3-182.2-167.5-182.2c-110.2,0-162.4,61-168.2,137.4h87.4 c5.9-44.8,38.2-72,82.3-72c46.3,0,83,26.4,83,99.2l-125.6,12.5c-119.7,11.8-146.9,73.5-146.9,123.4 C1738.8,499.6,1799.8,544.4,1876.2,544.4"/>
<linearGradient id="SVGID_3_" gradientUnits="userSpaceOnUse" x1="335.0327" y1="-66.2799" x2="121.4576" y2="-613.1526" gradientTransform="matrix(1 0 0 -1 0 -18.3601)">
 <stop offset="0" style="stop-color:#003594;stop-opacity:0.2"/>
 <stop offset="1" style="stop-color:#003594"/>
</linearGradient>
 <path class="st1" d="M90.8,343.3c0,65.3,44.5,106.7,110.9,106.7c51.8,0,100-29.4,133.2-92.1c27.5-52.1,51-105.4,73.7-157.5 c25.4-58.2,85-199,85-199h98.8c-42.6,101.2-91.3,215.2-136.1,315.1c-37.8,84.4-51.3,108.4-75.8,139.4 c-46.1,58.4-114,84.1-185.1,84.1C80.1,540,0,460.4,0,351.3c0-44.2,12.4-93.8,35.5-148.6C65,133,91.4,70.7,121.2,1.4h95.9 c-21.1,49-41.9,98.1-62.4,147.4c-13.2,31.6-25,58.9-37.4,90.8C98,289.5,90.8,315.6,90.8,343.3z"/>
<linearGradient id="SVGID_4_" gradientUnits="userSpaceOnUse" x1="294.8307" y1="-249.3034" x2="140.0785" y2="-161.2695" gradientTransform="matrix(1 0 0 -1 0 -18.3601)">
 <stop offset="0" style="stop-color:#003594"/>
 <stop offset="1" style="stop-color:#003594;stop-opacity:0"/>
</linearGradient>
<path class="st2" d="M90.8,343.3c0,65.3,44.5,106.7,110.9,106.7c51.8,0,100-29.4,133.2-92.1c27.5-52.1,51-105.4,73.7-157.5 c25.4-58.2,85-199,85-199h98.8c-42.6,101.2-91.3,215.2-136.1,315.1c-37.8,84.4-51.3,108.4-75.8,139.4 c-46.1,58.4-114,84.1-185.1,84.1C80.1,540,0,460.4,0,351.3c0-44.2,12.4-93.8,35.5-148.6C65,133,91.4,70.7,121.2,1.4h95.9 c-21.1,49-41.9,98.1-62.4,147.4c-13.2,31.6-25,58.9-37.4,90.8C98,289.5,90.8,315.6,90.8,343.3z"/>
</svg>