<?xml version="1.0" encoding="UTF-8" standalone="no"?>
<!-- Created with Inkscape (http://www.inkscape.org/) -->
<svg id="svg2" xmlns="http://www.w3.org/2000/svg" xml:space="preserve" height="190" width="643.75" version="1.0" viewBox="0 0 643.75 190"><path id="UTair" d="m622.8 37.251c-11.25 0-24.06 9.167-29.18 16.321l-0.86 0.102 7.44-16.344-22.58 0.005c-5.9 0.513-8.89 3.151-11.36 7.981-14.82 34.97-29.85 70.254-44.67 105.22l26.44 0.18c5.89 0.2 7.76-2.15 10.16-7.75 4.11-9.57 10.07-23.51 14.17-33.07h0.34c-0.47 13.08 10.28 17.62 16.72 17.66 19.93 0.13 33.1-12.31 44.36-32.431 3.89-6.958 6.21-13.808 7.96-21.855 0.74-3.372 1.18-6.77 1.29-10.06v-3.079c-0.43-12.589-6.26-22.884-20.23-22.884zm-13.33 32.811c-2.88 11.125-9.46 26.764-17.27 32.438-2.25 1.64-4.73 2.43-7.48 2.41-1.3-0.01-2.42-0.32-3.4-0.92-1.27-0.85-3.88-3.47-2.12-10.196 1.08-4.121 9.34-23.587 12.28-28.26 3.16-5.036 7.26-8.369 11.83-8.34 1.82 0.014 3.2 0.248 4.14 0.732 3.6 1.719 3.4 6.795 2.02 12.136m-130.61-32.663l25.48 0.091s-17.86 38.984-18.3 39.841c3.94-4.092 25.49-25.441 34.04-33.851 3.2-3.53 5.84-5.308 10.07-6.081h25.42l-38.06 86.481-33.54-0.15c15.41-34.472 15.68-35.204 18.38-40.829-0.98 1.177-25.06 24.899-33.44 33.039-7.31 6.93-6.15 7.66-12.91 7.98h-24.03c11.53-25.714 25.47-55.693 36.66-81.558 1.81-4.176 5.64-4.852 10.23-4.963m-33.58 35.254c-3.02 13.993-10.34 25.731-21.96 35.207-13.32 10.87-29.72 16.31-49.21 16.31l-31.06-0.36 11.06-21.05 16.34 0.52c5.55 0.17 12.66-2.29 17.39-5.033 4.74-2.745 8.45-6.594 11.13-11.544h-30.52c1.3-3.124 2.66-6.246 3.96-9.369 0.56-1.245 1.32-2.688 2.57-3.682 1.99-1.587 4.47-2.131 6.8-2.131h23.53c0.85-1.992 1.81-3.974 2.64-6.637 1.27-4.114-0.91-7.92-4.17-8.306-5.7-0.677-17.48-0.09-30.66-0.266 2.27-4.828 3.89-7.951 6.12-12.677 1.22-1.953 1.88-3.617 4.11-5.285 2.39-1.472 4.23-2.232 6.64-2.282 6.38-0.133 12.78-0.266 19.17-0.398 15.78-0.328 26.52 4.092 32.4 12.272 4.63 6.459 5.88 14.698 3.72 24.711m-150.86-55.683c4.32 0 6.1 3.199 4.32 6.65l-48.41 94.16c-1.78 3.46 0.3 6.29 4.62 6.29l50.2-0.01c5.81 0.01 8.15-1.16 11.06-6.19l48.46-94.25c1.77-3.451 7.97-6.64 11.92-6.751 0 0 61.14-0.03 65.35 0.075 4.55 0.111 6.11-2.688 6.61-4.324 0.53-1.409 2.24-5.1212 2.9-6.5088 1.02-2.14-0.87-5.525-4.06-5.6012-1.38-0.03125-280.73 0-286.6 0-6.31 0-13.09 4.465-14.85 7.9225l-11.32 22.082c-1.77 3.458-6.09 8.351-12.06 8.32l-12.14-0.275c-0.47 0.275 1.29-2.55 3.06-6.005l13.38-25.363c1.77-3.451-0.25-6.796-4.57-6.7922-20.28 0.00245-33.691-0.0038-42.866 0.03745-9.376 0.0425-15.256 3.405-18.052 8.785-10.835 20.838-26.429 44.395-59.433 108.56-1.774 3.45 0.3613 6.31 4.6806 6.31l48.702-0.06c4.316-0.01 11.06-3.9 12.861-7.33l23.262-42.449c1.402-2.678 7.891-6.248 11.125-6.248l11.95 0.383c0.09 0.195-1.11 2.43-2.9 5.87l-12.87 24.958c-5.978 11.726 1.242 24.476 13.65 24.706l85 0.17c12.64-0.07 16.63-6.49 18.41-9.95l44.77-85.909c3.96-7.931 9.44-11.241 16.59-11.287 4.78-0.034 17.25 0.026 17.25 0.026zm-137.9 84.32c-1.53 2.95-7.02 6.27-11.09 6.27l-19.27-0.11c-4.32 0-5.73-5.58-3.95-9.026l38.76-74.689c1.49-2.885 7.35-6.72 11.31-6.72h17.18c6.25-0.153 7.52 5.85 5.74 9.299l-38.68 74.976m385.85-94.752l-6.43 14.718c-0.7 1.304-2.57 3.516-5.94 3.622l-26.74 0.224c-2.43 0.004-4.8-3.136-3.85-5.448 1.13-2.735 5.16-11.382 6.22-14.405 0.36-1.0115 0.38-4.2352 6.09-4.964 6.14 0.01125 20.48-0.00875 26.63 0 4.08 0.485 5.11 3.7675 4.02 6.2525" fill-rule="evenodd" fill="#082979"/><path id="airline" d="m7.7578 180.61l5.1672-10.76 1.723 10.76h-6.8902zm4.2732-13.81l-10.965 22.72h2.5839l3.147-6.59h8.1491l1.06 6.59h3.114l-3.842-22.72h-3.247m48.66 2.45h5.035c0.365 0 2.386 0 3.479 0.93 0.596 0.5 1.027 1.22 1.027 2.32 0 1.09-0.299 2.09-1.226 2.91-1.325 1.13-3.015 1.2-4.406 1.2h-5.101l1.192-7.36zm-2.451-2.45l-3.71 22.72h9.805c2.021 0 4.307-0.23 6.095-1.98 1.325-1.29 2.021-3.28 2.021-4.91 0-1.22-0.464-2.65-1.126-3.44-0.53-0.63-1.392-1.23-2.419-1.49l-0.032-0.07c1.887-0.53 4.339-2.12 4.339-5.3 0-1.65-0.398-3.31-2.319-4.5-1.424-0.86-3.147-1.03-4.571-1.03h-8.083zm0.895 12.12h5.531c1.259 0 2.551 0.27 3.346 0.83 0.894 0.63 1.391 1.76 1.391 2.92 0 1.32-0.529 4.4-5.863 4.4h-5.797l1.392-8.15m55.485-12.12l-2.49 15.14c-0.1 0.5-0.26 1.16-0.43 1.99 0.77-0.93 0.7-0.96 0.86-1.16l12.69-14.41 0.3-1.56h2.85l-3.74 22.72h-2.85l2.51-15.43c0.1-0.7 0.3-1.56 0.4-1.96-0.6 0.67-0.6 0.67-0.93 1.06l-12.58 14.35-0.33 1.98h-2.85l3.74-22.72h2.85m52.14 13.81l5.16-10.76 1.73 10.76h-6.89zm4.27-13.81l-10.96 22.72h2.58l3.15-6.59h8.14l1.06 6.59h3.12l-3.84-22.72h-3.25m50.28 9.71c1.43 0 2.55-0.3 3.58-1.59 0.43-0.57 0.93-1.43 2.05-3.78l0.54-1.13c0.92-1.95 1.78-2.61 2.25-2.88 0.39-0.23 1.06-0.46 2.08-0.46 0.43 0 0.83 0.06 1.16 0.13l-0.36 2.25c-0.2-0.06-0.4-0.06-0.6-0.06-0.59 0-1.06 0.23-1.49 0.73-0.53 0.62-0.79 1.39-1.46 2.78l-0.56 1.19c-0.79 1.69-1.39 2.39-1.75 2.75-0.53 0.5-1.1 0.79-1.73 0.89v0.1c2.62 0.57 3.12 3.08 3.42 5.01l0.16 1.09c0.3 1.92 0.4 2.52 0.56 2.91 0.3 0.63 0.77 0.7 1.16 0.7 0.2 0 0.4 0 0.6-0.03l-0.36 2.22c-0.44 0.19-1.03 0.33-1.56 0.33-1 0-1.59-0.47-1.89-0.83-0.6-0.73-0.86-2.05-1.19-4.24l-0.33-2.15c-0.17-1.13-0.43-2.19-1.16-2.85-0.9-0.8-2.22-0.76-3.18-0.76h-3.12l-1.75 10.69h-2.85l3.71-22.72h2.85l-1.59 9.71h2.81m55.52-7.59c1.95 0 3.25 0.56 4.31 2.15 1.06 1.56 1.29 3.32 1.29 5.07 0 2.75-0.89 6.3-2.32 8.42-1.23 1.85-2.85 2.84-5.2 2.84-1.69 0-2.98-0.49-4.07-2.15-1.06-1.59-1.3-3.41-1.3-4.97 0-2.45 0.6-5.99 2.32-8.51 1.33-1.92 2.85-2.85 4.97-2.85zm0.5-2.45c-3.08 0-5.6 0.83-7.72 3.54-2.19 2.79-3.11 7.03-3.11 10.37 0 3.18 0.96 5.37 2.15 6.79 1.62 1.96 3.94 2.69 6.29 2.69 3.22 0 5.6-1.23 7.42-3.55 2.09-2.65 3.12-6.82 3.12-10.4 0-4.54-1.89-6.89-3.71-8.15-1.53-1.06-2.99-1.29-4.44-1.29m50.55 0.33l3.84 18.19 0.06 0.06 9.74-18.25h4.31l-3.74 22.72h-2.85l3.24-19.84-0.1-0.03-10.5 19.87h-1.92l-4.2-19.8-0.04-0.04-3.24 19.84h-2.39l3.75-22.72h4.04m71.74 0l-3.74 22.72h-2.85l3.31-20.27h-10.26l-3.32 20.27h-2.84l3.74-22.72h15.96m38.36 13.81l5.17-10.76 1.72 10.76h-6.89zm4.28-13.81l-10.97 22.72h2.59l3.14-6.59h8.15l1.06 6.59h3.11l-3.84-22.72h-3.24m49.09 0l-1.59 9.48h10.6l1.59-9.48h2.85l-3.75 22.72h-2.85l1.79-10.79h-10.6l-1.79 10.79h-2.84l3.74-22.72h2.85m54.12 0l-2.48 15.14c-0.1 0.5-0.27 1.16-0.43 1.99 0.76-0.93 0.69-0.96 0.86-1.16l12.69-14.41 0.29-1.56h2.85l-3.74 22.72h-2.85l2.52-15.43c0.1-0.7 0.3-1.56 0.4-1.96-0.6 0.67-0.6 0.67-0.93 1.06l-12.59 14.35-0.33 1.98h-2.85l3.74-22.72h2.85m63.04 2.45l-1.33 7.98h-4.24c-1.16 0-2.94 0-3.94-0.99-0.76-0.76-0.86-1.92-0.86-2.45 0-1.69 0.56-2.85 1.76-3.68 1.26-0.86 2.51-0.86 3.64-0.86h4.97zm3.21-2.45h-8.54c-1.66 0-3.65 0.2-5.37 1.46-0.83 0.59-2.72 2.32-2.72 5.73 0 1.26 0.3 3.08 1.99 4.27 0.66 0.47 1.49 0.76 2.16 0.9l-7.86 10.36h3.52l7.22-9.83h4.63l-1.59 9.83h2.85l3.71-22.72" fill="#082979"/></svg>
