<?xml version="1.0" encoding="UTF-8" standalone="no"?>
<!-- Created with Inkscape (http://www.inkscape.org/) -->
<svg id="svg2" xmlns="http://www.w3.org/2000/svg" xml:space="preserve" height="180" width="181.25" version="1.0" viewBox="0 0 181.25 180"><path id="path14" d="m1269.7 869.21c-20.2 0-41.1-10.8-53.3-28.09l-236.88-349.91c-14.41-20.89-44.64-37.44-68.41-37.44h-125.27c-23.77 0-41.05 28.8-26.64 49.67l220.32 328.33c10.07 15.12-1.45 38.16-20.88 37.44h-42.48c-15.12 0-38.16-8.64-50.41-27.36l-239.03-350.64c-16.56-24.48-38.88-37.44-67.68-37.44h-337.68c-23.77 0-38.89 28.8-25.21 49.67l220.33 324.73c14.4 22.32-2.16 41.04-18 41.04h-200.89c-15.84 0-20.88 15.84-13.68 25.2 4.32 7.2 15.84 23.04 18 26.64 4.32 6.48 11.52 10.8 17.29 12.24h450c20.87 0 33.12-22.32 22.32-37.44l-230.41-338.41c-12.23-18.71 0-41.03 20.16-41.03h41.77c30.23 0.71 52.55 16.55 66.96 37.44l233.27 342.72c17.29 25.2 41.05 36.72 68.41 36.72h552.92c-6.4 132.51-53.2 254.11-143.2 346.31-238.4 246.2-691.24 195.1-1008-113.8-316.13-308.11-380.2-761-141.88-1006.5 238.32-246.25 691.2-195.13 1008 113.75 177.1 172.8 275.8 394.55 285.9 596.16h-175.7" fill-rule="evenodd" transform="matrix(.125 0 0 -.125 0 180)" fill="#082979"/></svg>
