<?xml version="1.0" encoding="UTF-8" standalone="no"?>
<!-- Created with Inkscape (http://www.inkscape.org/) -->
<svg id="svg2" xmlns="http://www.w3.org/2000/svg" xml:space="preserve" height="217.5" width="612.5" version="1.0" viewBox="0 0 612.5 217.5"><path id="Utair" d="m518.7 43.231l-53.89 105.4h-39.96c16.79-32.76 32.68-63.844 49.47-96.612 2.03-2.957 0.65-1.833 4.23-5.603 2.12-2.06 6.48-2.81 8.79-3.184h31.36m-124.75 56.214c-3.76 0.067-8.41 0.845-12.21 1.845-3.8 0.99-7.22 2.29-10.29 3.9-2.61 1.4-4.77 3.04-6.56 4.96-1.75 1.88-3.09 3.93-4.02 6.15-1.12 2.67-1.14 4.83-0.02 6.5 1.1 1.68 3.7 2.27 6.13 2.27 4.72 0 9.75-2.26 14.4-6.74 4.67-4.52 12.57-18.885 12.57-18.885zm-22.32-53.845c3.06-2.188 8.93-2.71 9.39-2.71l36.66 0.032c6.26 0.004 11.54 0.549 15.82 1.607 8.71 2.165 13.45 6.815 14.48 15.395 0.54 4.485-0.44 9.784-2.99 15.874-0.62 1.472-1.39 4.034-2.73 6.226-1.34 2.19-27.6 52.146-35.84 66.616h-38.16s8.75-16.1 9.32-17.07l-1.17-0.04s-17.41 18.57-39.81 18.75c-4.69 0.03-8.44-0.69-11.29-2.06-2.81-1.37-4.92-3.52-6.28-6.47-1.31-2.66-1.86-5.84-1.7-9.57 0.15-3.7 1.11-7.7 2.9-11.97 1.65-3.94 3.83-7.67 6.51-11.19 2.66-3.49 5.77-6.67 9.3-9.546 3.23-2.567 6.78-4.823 10.74-6.844 3.94-1.982 8.32-3.761 13.1-5.302 5.49-1.746 12.02-3.216 19.66-4.446 7.63-1.233 15.7-2.054 24.22-2.464 2.72-4.357 3.09-5.159 3.1-8.099 0-2.067-2.5-4.2-5.71-4.2-2.4 0-44.04 1.241-43.86 0.89l7.8-15.139c0.76-1.476 4.22-6.614 6.54-8.27m71.07-38.596c1.28-3.8826-1.6-6.6563-4.66-6.6563l-223.57 0.5325c-6.7-0.01375-16.1 3.4562-20.85 11.675l-57.1 105.02c-3.66 6.71-12.52 11.6-20.88 11.6l-17.363-0.02c-5.236 0.03-9.633-5.68-6.418-11.59l57.241-105.37c2.49-4.5825-0.45-11.242-6.56-11.289-2.62-0.021-44.107 0.00025-50.361 0.00025-7.292 0-14.962 3.5312-19.882 12.139-3.735 6.538-70.816 120.87-70.816 120.87-0.98002 1.62-1.4288 3.27-1.4585 4.86l-0.000039 0.4c0.12793 5.13 4.5966 9.47 9.6274 9.51l135.16-0.01c9.24-0.01 17.13-4.71 21.09-11.46l56.92-105.04c4.91-9.044 10.24-11.836 20.96-11.836l14.78 0.014c5.42 0 9.86 5.586 6.45 11.823l-55.48 101.94c-3.47 6.38 1.19 14.48 8.36 14.51l47.2-0.03c8.64 0.01 17.79-5.1 21.48-11.88l56.61-104.51c5.89-10.832 10.28-11.859 20.8-11.859l66.8-0.203c4.49 0.163 6.1-2.994 7.04-4.327l4.88-8.8172m52.92-2.9626c1-1.6087 3.16-3.6074 7.04-3.6074 3.89-0.00005 25.41 0.07995 27.79 0.0562 2.5-0.02375 6.35 2.7212 4.17 7.2188-1.34 2.7722-8.57 17.673-9.46 19.171-0.89 1.496-3 3.602-5.99 3.602s-26.71 0.013-28.16 0.013c-4.84 0-6.15-4.766-5-7.056 2.12-4.237 9.61-19.398 9.61-19.398m30.18 144.66h-40.59s42.66-86.865 47.85-97.195c3.91-7.766 8.71-8.225 13.2-8.225h25.09s-13.04 26.066-13.61 27.029l1.17 0.047s17.63-27.985 41.35-28.715c4.69-0.145 9.72 2.687 11.31 7.464v6.623c-1.07 3.707-3.94 7.968-9.42 12.561-12.75-2.55-37.47 2.966-50.27 26.697-3.67 6.804-26.08 53.714-26.08 53.714" fill-rule="evenodd" fill="#082979"/><path id="airline" d="m11.953 207.18l5.655-11.78 1.885 11.78h-7.54zm4.676-15.12l-11.998 24.87h2.827l3.444-7.22h8.918l1.159 7.22h3.407l-4.204-24.87h-3.553m39.875 2.68h5.511c0.398 0 2.609 0 3.806 1.02 0.652 0.54 1.123 1.34 1.123 2.54 0 1.19-0.326 2.28-1.341 3.18-1.45 1.24-3.299 1.31-4.822 1.31h-5.582l1.305-8.05zm-2.682-2.68l-4.061 24.87h10.731c2.211 0 4.712-0.26 6.67-2.18 1.45-1.41 2.211-3.58 2.211-5.36 0-1.34-0.507-2.9-1.232-3.77-0.58-0.69-1.523-1.34-2.647-1.63l-0.036-0.08c2.066-0.58 4.748-2.32 4.748-5.8 0-1.81-0.435-3.62-2.537-4.93-1.559-0.94-3.443-1.12-5.002-1.12h-8.845zm0.979 13.27h6.053c1.378 0 2.791 0.29 3.662 0.9 0.978 0.69 1.522 1.92 1.522 3.19 0 1.45-0.58 4.83-6.416 4.83h-6.344l1.523-8.92m47.339-13.27l-2.716 16.57c-0.109 0.54-0.29 1.27-0.471 2.17 0.834-1.01 0.76-1.05 0.943-1.27l13.884-15.76 0.32-1.71h3.12l-4.09 24.87h-3.12l2.75-16.89c0.11-0.77 0.33-1.71 0.44-2.14-0.65 0.72-0.65 0.72-1.02 1.16l-13.771 15.69-0.362 2.18h-3.118l4.097-24.87h3.114m43.68 15.12l5.66-11.78 1.88 11.78h-7.54zm4.68-15.12l-12 24.87h2.83l3.44-7.22h8.92l1.16 7.22h3.41l-4.21-24.87h-3.55m41.65 10.62c1.56 0 2.79-0.32 3.91-1.74 0.48-0.61 1.02-1.56 2.25-4.13l0.58-1.23c1.02-2.14 1.96-2.87 2.47-3.16 0.43-0.25 1.16-0.5 2.28-0.5 0.47 0 0.91 0.07 1.27 0.14l-0.4 2.47c-0.21-0.08-0.43-0.08-0.65-0.08-0.65 0-1.16 0.26-1.63 0.8-0.58 0.69-0.87 1.52-1.6 3.05l-0.61 1.3c-0.87 1.85-1.52 2.61-1.92 3.01-0.58 0.54-1.2 0.87-1.89 0.98v0.11c2.87 0.61 3.41 3.37 3.73 5.47l0.18 1.2c0.33 2.1 0.44 2.75 0.62 3.19 0.33 0.69 0.84 0.76 1.27 0.76 0.22 0 0.44 0 0.65-0.04l-0.4 2.43c-0.47 0.22-1.12 0.36-1.7 0.36-1.09 0-1.74-0.5-2.06-0.9-0.66-0.8-0.95-2.25-1.31-4.64l-0.36-2.36c-0.18-1.23-0.47-2.39-1.27-3.12-0.98-0.87-2.43-0.83-3.48-0.83h-3.41l-1.92 11.71h-3.12l4.06-24.87h3.12l-1.74 10.62h3.08m47.38-8.3c2.14 0 3.55 0.62 4.71 2.36 1.16 1.7 1.42 3.62 1.42 5.54 0 3.01-0.98 6.89-2.54 9.21-1.34 2.03-3.12 3.12-5.69 3.12-1.85 0-3.27-0.55-4.46-2.36-1.16-1.74-1.41-3.73-1.41-5.44 0-2.68 0.65-6.56 2.53-9.31 1.45-2.1 3.12-3.12 5.44-3.12zm0.54-2.68c-3.37 0-6.12 0.9-8.44 3.88-2.39 3.04-3.41 7.68-3.41 11.34 0 3.48 1.05 5.88 2.36 7.43 1.77 2.14 4.31 2.94 6.88 2.94 3.52 0 6.13-1.34 8.12-3.88 2.29-2.9 3.41-7.47 3.41-11.38 0-4.97-2.07-7.54-4.06-8.92-1.67-1.16-3.26-1.41-4.86-1.41m41.94 0.36l4.21 19.9 0.07 0.07 10.66-19.97h4.71l-4.1 24.87h-3.11l3.55-21.72-0.11-0.03-11.49 21.75h-2.1l-4.6-21.68-0.04-0.04-3.56 21.72h-2.6l4.09-24.87h4.42m65.14 0l-4.09 24.87h-3.12l3.62-22.19h-11.23l-3.63 22.19h-3.11l4.09-24.87h17.47m28.61 15.12l5.65-11.78 1.89 11.78h-7.54zm4.67-15.12l-12 24.87h2.83l3.44-7.22h8.92l1.16 7.22h3.41l-4.21-24.87h-3.55m40.35 0l-1.74 10.37h11.6l1.74-10.37h3.12l-4.1 24.87h-3.12l1.96-11.82h-11.6l-1.96 11.82h-3.12l4.1-24.87h3.12m45.85 0l-2.71 16.57c-0.11 0.54-0.3 1.27-0.48 2.17 0.84-1.01 0.76-1.05 0.95-1.27l13.88-15.76 0.33-1.71h3.11l-4.09 24.87h-3.12l2.76-16.89c0.1-0.77 0.32-1.71 0.43-2.14-0.65 0.72-0.65 0.72-1.01 1.16l-13.78 15.69-0.36 2.18h-3.12l4.1-24.87h3.11m55.61 2.68l-1.45 8.74h-4.64c-1.27 0-3.23 0-4.31-1.09-0.84-0.83-0.94-2.1-0.94-2.68 0-1.85 0.61-3.12 1.92-4.02 1.38-0.95 2.75-0.95 3.98-0.95h5.44zm3.52-2.68h-9.36c-1.81 0-3.98 0.22-5.87 1.6-0.9 0.65-2.97 2.53-2.97 6.27 0 1.37 0.33 3.37 2.18 4.67 0.72 0.51 1.63 0.84 2.35 0.98l-8.59 11.35h3.84l7.9-10.77h5.08l-1.74 10.77h3.12l4.06-24.87" fill="#082979"/></svg>
