<?xml version="1.0" encoding="UTF-8" standalone="no"?>
<!-- Created with Inkscape (http://www.inkscape.org/) -->
<svg id="svg2" xmlns="http://www.w3.org/2000/svg" xml:space="preserve" height="218.75" width="612.5" version="1.0" viewBox="0 0 612.5 218.75"><path id="UTair" d="m518.7 43.231l-53.89 105.4h-39.96c16.79-32.76 32.68-63.844 49.47-96.612 2.03-2.957 0.65-1.833 4.23-5.603 2.12-2.06 6.48-2.81 8.79-3.184h31.36m-124.75 56.214c-3.76 0.067-8.41 0.845-12.21 1.845-3.8 0.99-7.22 2.29-10.29 3.9-2.61 1.4-4.77 3.04-6.56 4.96-1.75 1.88-3.09 3.93-4.02 6.15-1.12 2.67-1.14 4.83-0.02 6.5 1.1 1.68 3.7 2.27 6.13 2.27 4.72 0 9.75-2.26 14.4-6.74 4.67-4.52 12.57-18.885 12.57-18.885zm-22.32-53.845c3.06-2.188 8.93-2.71 9.39-2.71l36.66 0.032c6.26 0.004 11.54 0.549 15.82 1.607 8.71 2.165 13.45 6.815 14.48 15.395 0.54 4.485-0.44 9.784-2.99 15.874-0.62 1.472-1.39 4.034-2.73 6.226-1.34 2.19-27.6 52.146-35.84 66.616h-38.16s8.75-16.1 9.32-17.07l-1.17-0.04s-17.41 18.57-39.81 18.75c-4.69 0.03-8.44-0.69-11.29-2.06-2.81-1.37-4.92-3.52-6.28-6.47-1.31-2.66-1.86-5.84-1.7-9.57 0.15-3.7 1.11-7.7 2.9-11.97 1.65-3.94 3.83-7.67 6.51-11.19 2.66-3.49 5.77-6.67 9.3-9.546 3.23-2.567 6.78-4.823 10.74-6.844 3.94-1.982 8.32-3.761 13.1-5.302 5.49-1.746 12.02-3.216 19.66-4.446 7.63-1.233 15.7-2.054 24.22-2.464 2.72-4.357 3.09-5.159 3.1-8.099 0-2.067-2.5-4.2-5.71-4.2-2.4 0-44.04 1.241-43.86 0.89l7.8-15.139c0.76-1.476 4.22-6.614 6.54-8.27m71.07-38.596c1.28-3.8826-1.6-6.6563-4.66-6.6563l-223.57 0.5325c-6.7-0.01375-16.1 3.4562-20.85 11.675l-57.1 105.02c-3.66 6.71-12.52 11.6-20.88 11.6l-17.363-0.02c-5.236 0.03-9.633-5.68-6.418-11.59l57.241-105.37c2.49-4.5825-0.45-11.242-6.56-11.289-2.62-0.021-44.107 0.00025-50.361 0.00025-7.292 0-14.962 3.5312-19.882 12.139-3.735 6.538-70.816 120.87-70.816 120.87-0.98002 1.62-1.4288 3.27-1.4585 4.86l-0.000039 0.4c0.12793 5.13 4.5966 9.47 9.6274 9.51l135.16-0.01c9.24-0.01 17.13-4.71 21.09-11.46l56.92-105.04c4.91-9.044 10.24-11.836 20.96-11.836l14.78 0.014c5.42 0 9.86 5.586 6.45 11.823l-55.48 101.94c-3.47 6.38 1.19 14.48 8.36 14.51l47.2-0.03c8.64 0.01 17.79-5.1 21.48-11.88l56.61-104.51c5.89-10.832 10.28-11.859 20.8-11.859l66.8-0.203c4.49 0.163 6.1-2.994 7.04-4.327l4.88-8.8172m52.92-2.9626c1-1.6087 3.16-3.6074 7.04-3.6074 3.89-0.00005 25.41 0.07995 27.79 0.0562 2.5-0.02375 6.35 2.7212 4.17 7.2188-1.34 2.7722-8.57 17.673-9.46 19.171-0.89 1.496-3 3.602-5.99 3.602s-26.71 0.013-28.16 0.013c-4.84 0-6.15-4.766-5-7.056 2.12-4.237 9.61-19.398 9.61-19.398m30.18 144.66h-40.59s42.66-86.865 47.85-97.195c3.91-7.766 8.71-8.225 13.2-8.225h25.09s-13.04 26.066-13.61 27.029l1.17 0.047s17.63-27.985 41.35-28.715c4.69-0.145 9.72 2.687 11.31 7.464v6.623c-1.07 3.707-3.94 7.968-9.42 12.561-12.75-2.55-37.47 2.966-50.27 26.697-3.67 6.804-26.08 53.714-26.08 53.714" fill-rule="evenodd" fill="#082979"/><path id="aviation" d="m15.484 5.9453l133.06 234.77h37l38.76-234.77-30.39-0.0047-11.37 67.563h-95.009l-37.609-67.563-34.438 0.0003zm85.496 91.778h77.68l-9.13 58.927c-3.5 23.4-5.69 42.86-6.56 58.44-5.36-13.45-13.12-29.41-23.4-47.89l-38.59-69.477zm590.7-91.778l-45.15 234.77h30.28l27.23-139.99c5.03-25.363 8.25-45.863 9.78-61.496 9.78 20.118 17.88 36.024 24.16 47.723l83.75 153.76h32.36l-128.73-234.77-33.68-0.0047zm534.82 0l49.2 234.77h31.2l-49-234.77-31.4-0.0047zm449 0l133 234.77h37l38.8-234.77-30.4-0.0047-11.4 67.563h-95l-37.6-67.563-34.4 0.0003zm85.5 91.778h77.6l-9.1 58.927c-3.5 23.4-5.7 42.86-6.5 58.44-5.4-13.45-13.2-29.41-23.4-47.89l-38.6-69.477zm573.1-91.778l43.4 208.05h-77l5.6 26.72h184.7l-5.5-26.72h-76.4l-43.4-208.05-31.4-0.0047zm527.8 0l49.1 234.77h31.2l-49-234.77-31.3-0.0047zm485.4 98.335c0 41.82 12.1 75.72 36.3 101.62 24.2 25.86 53.5 38.82 88 38.82 29.2 0 53.1-9.52 71.5-28.59 18.4-19.03 27.7-44.61 27.7-76.64 0-22.85-4.7-44.01-14-63.576-6.9-14.594-15.7-27.223-26.3-37.883-10.5-10.601-21.9-18.804-33.9-24.543-16-7.7068-33-11.535-50.9-11.535-18.8 0.0001-35.9 4.4845-51.3 13.449-15.5 8.965-27.2 21.481-35.2 37.551-7.9 16.074-11.9 33.184-11.9 51.327zm30.9-1.58c0-13.778 2.9-26.458 8.6-37.993 5.7-11.531 14.2-20.551 25.5-27.059 11.3-6.504 23.3-9.785 35.8-9.785 12 0 23.5 2.899 34.4 8.586 10.9 5.735 20.6 13.664 29.2 23.887 8.6 10.168 15.4 22.738 20.3 37.605 5 14.929 7.5 29.579 7.5 43.959 0 23.39-6.5 42.03-19.6 55.91-13.1 13.89-29.2 20.83-48.5 20.83-24.5 0-46.2-10.5-65-31.48-18.8-21-28.2-49.15-28.2-84.46zm593.5-96.755l49.1 234.77h30.4l39.6-88.06c12-26.94 21.6-49.58 28.7-67.945 4-10.66 8.7-25.09 14.1-43.238 2.9 19.789 6.5 40.179 10.8 61.223l28.8 138.02h30.7l-49-234.77-31.1-0.0047-58.3 135.62c-10.4 23.94-18.4 45.04-24.2 63.3-1.6-15.31-4.7-34.01-9.3-56.25l-29.7-142.67-30.6-0.0047" transform="matrix(.125 0 0 -.125 0 218.75)" fill="#082979"/></svg>
