<?xml version="1.0" encoding="UTF-8" standalone="no"?>
<!-- Generator: Adobe Illustrator 15.0.2, SVG Export Plug-In . SVG Version: 6.00 Build 0)  -->

<svg
   xmlns:dc="http://purl.org/dc/elements/1.1/"
   xmlns:cc="http://creativecommons.org/ns#"
   xmlns:rdf="http://www.w3.org/1999/02/22-rdf-syntax-ns#"
   xmlns:svg="http://www.w3.org/2000/svg"
   xmlns="http://www.w3.org/2000/svg"
   xmlns:sodipodi="http://sodipodi.sourceforge.net/DTD/sodipodi-0.dtd"
   xmlns:inkscape="http://www.inkscape.org/namespaces/inkscape"
   version="1.1"
   id="Layer_1"
   x="0px"
   y="0px"
   width="713.51202"
   height="354.17899"
   viewBox="0 0 713.51202 354.179"
   enable-background="new 0 0 728.5 515.91"
   xml:space="preserve"
   sodipodi:docname="Varig_1961-1996.svg"
   inkscape:version="0.92.4 (5da689c313, 2019-01-14)"><metadata
   id="metadata33"><rdf:RDF><cc:Work
       rdf:about=""><dc:format>image/svg+xml</dc:format><dc:type
         rdf:resource="http://purl.org/dc/dcmitype/StillImage" /></cc:Work></rdf:RDF></metadata><defs
   id="defs31" /><sodipodi:namedview
   pagecolor="#ffffff"
   bordercolor="#666666"
   borderopacity="1"
   objecttolerance="10"
   gridtolerance="10"
   guidetolerance="10"
   inkscape:pageopacity="0"
   inkscape:pageshadow="2"
   inkscape:window-width="640"
   inkscape:window-height="480"
   id="namedview29"
   showgrid="false"
   inkscape:zoom="1.0408793"
   inkscape:cx="357.654"
   inkscape:cy="177.09001"
   inkscape:window-x="0"
   inkscape:window-y="0"
   inkscape:window-maximized="1"
   inkscape:current-layer="Layer_1" />
<g
   id="g26"
   transform="translate(-6.596,-80.866)">
	<path
   d="m 515.811,80.866 c 60.861,0 110.498,49.637 110.498,110.498 0,60.861 -49.637,110.498 -110.498,110.498 -60.86,0 -110.497,-49.637 -110.497,-110.498 0,-60.861 49.636,-110.498 110.497,-110.498 z"
   id="path10"
   inkscape:connector-curvature="0"
   style="clip-rule:evenodd;fill:#0095da;fill-rule:evenodd" />
	<path
   d="m 494.944,191.148 -49.604,-73.493 71.668,51.47 73.187,-49.428 -51.208,71.451 51.208,71.364 -73.144,-49.386 -71.711,51.427 z m 21.848,-0.087 -0.043,0.043 z"
   id="path12"
   inkscape:connector-curvature="0"
   style="clip-rule:evenodd;fill-rule:evenodd" />
	<path
   d="m 527.414,180.532 91.822,11.467 -91.865,9.859 -11.466,91.647 -9.817,-91.691 -91.691,-9.815 91.734,-11.467 9.817,-91.909 z m -10.597,10.554 v -0.043 z"
   id="path14"
   inkscape:connector-curvature="0"
   style="clip-rule:evenodd;fill:#ffffff;fill-rule:evenodd" />
	<path
   d="m 662.989,389.525 c -1.215,5.557 -7.165,9.293 -16.678,9.293 -16.679,0 -26.191,-9.293 -26.191,-25.105 0,-14.855 9.513,-24.149 25.02,-24.149 8.294,0 14.247,2.781 19.023,9.294 l 46.432,-13.029 c -14.29,-19.503 -38.093,-29.754 -66.672,-29.754 -21.414,0 -40.483,5.605 -54.729,16.723 -14.29,10.252 -21.455,25.105 -21.455,40.916 0,16.725 7.165,31.621 21.455,41.83 14.246,11.16 33.315,17.678 54.729,17.678 25.018,0 47.604,-9.297 60.721,-23.238 10.685,-10.252 15.464,-23.238 15.464,-38.135 0,-2.781 0,-5.561 0,-8.342 h -78.573 v 26.02 h 21.454 z"
   id="path16"
   inkscape:connector-curvature="0"
   style="clip-rule:evenodd;fill:#0095da;fill-rule:evenodd" />
	<polygon
   points="542.753,318.855 495.236,318.855 495.236,429.484 542.753,429.484 "
   id="polygon18"
   style="clip-rule:evenodd;fill:#0095da;fill-rule:evenodd" />
	<path
   d="m 371.843,349.467 h 34.114 c 12.434,0 17.993,3.693 17.993,11.164 0,6.471 -7.075,10.207 -17.993,10.207 h -34.114 z m -45.586,80.096 h 45.94 v -22.934 h 24.158 l 18.548,22.934 h 59.485 l -31.437,-29.711 c 19.308,-10.338 28.404,-30.578 25.979,-43.738 -5.713,-31.057 -24.715,-37.181 -48.722,-37.181 h -93.953 v 110.63 z"
   id="path20"
   inkscape:connector-curvature="0"
   style="clip-rule:evenodd;fill:#0095da;fill-rule:evenodd" />
	<polygon
   points="128.604,318.855 95.984,369.023 62.539,318.855 6.596,318.855 96.94,435.045 182.42,318.855 "
   id="polygon22"
   style="clip-rule:evenodd;fill:#0095da;fill-rule:evenodd" />
	<path
   d="m 221.094,390.799 h 19.502 l -9.295,-14.16 z m 37.528,27.277 h -57.248 l -8.339,11.555 H 139.219 L 231.91,313.442 322.254,429.631 H 266.31 Z"
   id="path24"
   inkscape:connector-curvature="0"
   style="clip-rule:evenodd;fill:#0095da;fill-rule:evenodd" />
</g>
</svg>