<?xml version="1.0" encoding="UTF-8" standalone="no"?>
<svg
xmlns:dc="http://purl.org/dc/elements/1.1/"
xmlns:cc="http://creativecommons.org/ns#"
xmlns:rdf="http://www.w3.org/1999/02/22-rdf-syntax-ns#"
xmlns:svg="http://www.w3.org/2000/svg"
xmlns="http://www.w3.org/2000/svg"
xmlns:sodipodi="http://sodipodi.sourceforge.net/DTD/sodipodi-0.dtd"
xmlns:inkscape="http://www.inkscape.org/namespaces/inkscape"
id="svg2"
version="1.1"
inkscape:version="0.48.0 r9654"
width="283.46399"
height="114.80289"
xml:space="preserve"
sodipodi:docname="variglog.eps.pdf"><metadata
id="metadata8"><rdf:RDF><cc:Work
rdf:about=""><dc:format>image/svg+xml</dc:format><dc:type
rdf:resource="http://purl.org/dc/dcmitype/StillImage" /><dc:title></dc:title></cc:Work></rdf:RDF></metadata><defs
id="defs6" /><sodipodi:namedview
pagecolor="#ffffff"
bordercolor="#666666"
borderopacity="1"
objecttolerance="10"
gridtolerance="10"
guidetolerance="10"
inkscape:pageopacity="0"
inkscape:pageshadow="2"
inkscape:window-width="640"
inkscape:window-height="480"
id="namedview4"
showgrid="false"
fit-margin-top="0"
fit-margin-left="0"
fit-margin-right="0"
fit-margin-bottom="0"
inkscape:zoom="0.2783848"
inkscape:cx="-12.575"
inkscape:cy="211.604"
inkscape:window-x="0"
inkscape:window-y="0"
inkscape:window-maximized="0"
inkscape:current-layer="g10" /><g
id="g10"
inkscape:groupmode="layer"
inkscape:label="variglog.eps"
transform="matrix(1.25,0,0,-1.25,-384.45,429.44889)"><g
id="g12"><g
id="g14"
transform="scale(0.24,0.24)"><path
d="m 1848.13,1305.53 20.9648,0 0,4.9609 -20.9648,0 0,-4.9609 z"
style="fill:#3a4d96;fill-opacity:1;fill-rule:evenodd;stroke:none"
id="path16"
inkscape:connector-curvature="0" /><path
d="m 1845.41,1330.21 20.55,4.08 0.95,-4.96 -20.49,-4.07 -1.01,4.95"
style="fill:#3a4d96;fill-opacity:1;fill-rule:evenodd;stroke:none"
id="path18"
inkscape:connector-curvature="0" /><path
d="m 1839.21,1349.35 19.31,8.03 1.89,-4.72 -19.31,-7.98 -1.89,4.67"
style="fill:#3a4d96;fill-opacity:1;fill-rule:evenodd;stroke:none"
id="path20"
inkscape:connector-curvature="0" /><path
d="m 1829.05,1366.77 17.43,11.58 2.77,-4.14 -17.36,-11.63 -2.84,4.19"
style="fill:#3a4d96;fill-opacity:1;fill-rule:evenodd;stroke:none"
id="path22"
inkscape:connector-curvature="0" /><path
d="m 1816.12,1382.24 14.83,14.77 3.54,-3.55 -14.77,-14.82 -3.6,3.6"
style="fill:#3a4d96;fill-opacity:1;fill-rule:evenodd;stroke:none"
id="path24"
inkscape:connector-curvature="0" /><path
d="m 1800.12,1394.47 11.63,17.42 4.2,-2.84 -11.64,-17.36 -4.19,2.78"
style="fill:#3a4d96;fill-opacity:1;fill-rule:evenodd;stroke:none"
id="path26"
inkscape:connector-curvature="0" /><path
d="m 1782.16,1403.39 7.98,19.37 4.66,-1.95 -8.03,-19.37 -4.61,1.95"
style="fill:#3a4d96;fill-opacity:1;fill-rule:evenodd;stroke:none"
id="path28"
inkscape:connector-curvature="0" /><path
d="m 1762.73,1408.58 4.08,20.55 4.96,-1.06 -4.07,-20.49 -4.97,1"
style="fill:#3a4d96;fill-opacity:1;fill-rule:evenodd;stroke:none"
id="path30"
inkscape:connector-curvature="0" /><path
d="m 1656.26,1222.32 14.82,14.88 3.55,-3.6 -14.77,-14.76 -3.6,3.48"
style="fill:#3a4d96;fill-opacity:1;fill-rule:evenodd;stroke:none"
id="path32"
inkscape:connector-curvature="0" /><path
d="m 1674.51,1206.5 11.63,17.36 4.25,-2.78 -11.63,-17.42 -4.25,2.84"
style="fill:#3a4d96;fill-opacity:1;fill-rule:evenodd;stroke:none"
id="path34"
inkscape:connector-curvature="0" /><path
d="m 1695.65,1194.57 7.97,19.31 4.73,-2.01 -8.09,-19.31 -4.61,2.01"
style="fill:#3a4d96;fill-opacity:1;fill-rule:evenodd;stroke:none"
id="path36"
inkscape:connector-curvature="0" /><path
d="m 1718.62,1186.83 4.08,20.55 4.96,-0.94 -4.08,-20.61 -4.96,1"
style="fill:#3a4d96;fill-opacity:1;fill-rule:evenodd;stroke:none"
id="path38"
inkscape:connector-curvature="0" /><path
d="m 1742.89,1184.47 5.0781,0 0,20.9063 -5.0781,0 0,-20.9063 z"
style="fill:#3a4d96;fill-opacity:1;fill-rule:evenodd;stroke:none"
id="path40"
inkscape:connector-curvature="0" /><path
d="m 1742.89,1410.59 5.0781,0 0,20.9063 -5.0781,0 0,-20.9063 z"
style="fill:#3a4d96;fill-opacity:1;fill-rule:evenodd;stroke:none"
id="path42"
inkscape:connector-curvature="0" /><path
d="m 1766.93,1186.12 -4.07,20.55 4.96,1.01 4.07,-20.55 -4.96,-1.01"
style="fill:#3a4d96;fill-opacity:1;fill-rule:evenodd;stroke:none"
id="path44"
inkscape:connector-curvature="0" /><path
d="m 1722.82,1407.88 -4.08,20.55 4.96,1 4.08,-20.55 -4.96,-1"
style="fill:#3a4d96;fill-opacity:1;fill-rule:evenodd;stroke:none"
id="path46"
inkscape:connector-curvature="0" /><path
d="m 1703.8,1401.61 -7.97,19.37 4.6,1.95 8.03,-19.37 -4.66,-1.95"
style="fill:#3a4d96;fill-opacity:1;fill-rule:evenodd;stroke:none"
id="path48"
inkscape:connector-curvature="0" /><path
d="m 1686.26,1391.57 -11.63,17.37 4.25,2.83 11.63,-17.42 -4.25,-2.78"
style="fill:#3a4d96;fill-opacity:1;fill-rule:evenodd;stroke:none"
id="path50"
inkscape:connector-curvature="0" /><path
d="m 1790.32,1192.73 -7.98,19.32 4.61,2 8.03,-19.31 -4.66,-2.01"
style="fill:#3a4d96;fill-opacity:1;fill-rule:evenodd;stroke:none"
id="path52"
inkscape:connector-curvature="0" /><path
d="m 1811.87,1203.54 -11.64,17.42 4.26,2.78 11.63,-17.36 -4.25,-2.84"
style="fill:#3a4d96;fill-opacity:1;fill-rule:evenodd;stroke:none"
id="path54"
inkscape:connector-curvature="0" /><path
d="m 1671.02,1378.58 -14.82,14.83 3.6,3.54 14.77,-14.77 -3.55,-3.6"
style="fill:#3a4d96;fill-opacity:1;fill-rule:evenodd;stroke:none"
id="path56"
inkscape:connector-curvature="0" /><path
d="m 1846.71,1236.97 -17.42,11.63 2.84,4.2 17.36,-11.64 -2.78,-4.19"
style="fill:#3a4d96;fill-opacity:1;fill-rule:evenodd;stroke:none"
id="path58"
inkscape:connector-curvature="0" /><path
d="m 1858.64,1258.11 -19.31,7.97 1.89,4.67 19.37,-7.97 -1.95,-4.67"
style="fill:#3a4d96;fill-opacity:1;fill-rule:evenodd;stroke:none"
id="path60"
inkscape:connector-curvature="0" /><path
d="m 1866.2,1281.14 -20.49,4.02 1,4.96 20.49,-4.08 -1,-4.9"
style="fill:#3a4d96;fill-opacity:1;fill-rule:evenodd;stroke:none"
id="path62"
inkscape:connector-curvature="0" /><path
d="m 1830.89,1218.78 -14.83,14.76 3.6,3.6 14.77,-14.82 -3.54,-3.54"
style="fill:#3a4d96;fill-opacity:1;fill-rule:evenodd;stroke:none"
id="path64"
inkscape:connector-curvature="0" /><path
d="m 1891.77,1308.01 -275.31,-83.68 94.25,83.68 181.06,0"
style="fill:#dea13d;fill-opacity:1;fill-rule:evenodd;stroke:none"
id="path66"
inkscape:connector-curvature="0" /><path
d="m 1891.77,1308.01 -275.31,83.68 94.25,-83.68 181.06,0"
style="fill:#f9d018;fill-opacity:1;fill-rule:evenodd;stroke:none"
id="path68"
inkscape:connector-curvature="0" /><path
d="m 1281.5,1118.09 30.7,0 24.22,-32.54 23.62,32.36 31.48,0 -54.75,-69.09 -55.27,69.27"
style="fill:#3a4d96;fill-opacity:1;fill-rule:evenodd;stroke:none"
id="path70"
inkscape:connector-curvature="0" /><path
d="m 1683.54,1051.54 26.3398,0 0,67.0859 -26.3398,0 0,-67.0859 z"
style="fill:#3a4d96;fill-opacity:1;fill-rule:evenodd;stroke:none"
id="path72"
inkscape:connector-curvature="0" /><path
d="m 1546.24,1118.62 55.04,0 1.71,-0.06 1.6,-0.06 1.53,-0.23 1.54,-0.24 1.53,-0.3 1.42,-0.41 1.36,-0.41 1.36,-0.53 1.3,-0.53 1.24,-0.65 1.24,-0.65 1.12,-0.71 1.12,-0.83 1.06,-0.83 1.01,-0.82 0.94,-0.89 0.89,-0.88 0.88,-0.95 0.77,-1 0.71,-1.07 0.71,-1 0.65,-1.06 0.59,-1.12 0.53,-1.07 0.41,-1.18 0.42,-1.12 0.35,-1.12 0.3,-1.12 0.17,-1.13 0.18,-1.12 0.12,-1.24 0,-2.24 -0.12,-1.07 -0.12,-1.06 -0.12,-1.06 -0.23,-1 -0.24,-0.95 -0.23,-0.95 -0.3,-0.88 -0.35,-0.89 -0.42,-0.82 -0.41,-0.83 -0.41,-0.77 -0.48,-0.77 -0.53,-0.7 -0.47,-0.71 -0.53,-0.65 -1.12,-1.24 -1.12,-1.24 -1.19,-1.01 -1.24,-0.94 -1.3,-0.83 -1.23,-0.77 -1.19,-0.59 -1.18,-0.59 19.26,-20.19 -30,0 -15.07,17.06 -18.36,0 0,-17.06 -25.1,0 0,67.08 z m 25.1,-32.01 25.63,0 0.65,0.06 0.65,0.06 0.65,0.12 0.65,0.18 0.59,0.17 0.59,0.3 0.59,0.3 0.59,0.41 0.47,0.41 0.48,0.53 0.35,0.53 0.35,0.6 0.3,0.65 0.17,0.7 0.12,0.71 0.06,0.83 -0.06,0.77 -0.12,0.76 -0.17,0.77 -0.24,0.65 -0.29,0.65 -0.36,0.59 -0.41,0.59 -0.47,0.53 -0.59,0.48 -0.54,0.41 -0.59,0.35 -0.65,0.3 -0.65,0.3 -0.64,0.17 -0.77,0.12 -26.34,0 0,-14"
style="fill:#3a4d96;fill-opacity:1;fill-rule:evenodd;stroke:none"
id="path74"
inkscape:connector-curvature="0" /><path
d="m 1446.26,1072.09 9.74,13.82 10.04,-13.82 -19.78,0 z m 10.33,48.78 -55.51,-69.33 31.3,0 4.37,6.79 39.63,0 4.37,-6.79 31.12,0 -55.28,69.33"
style="fill:#3a4d96;fill-opacity:1;fill-rule:evenodd;stroke:none"
id="path76"
inkscape:connector-curvature="0" /><path
d="m 1807.56,1120.51 1.48,-0.06 1.53,-0.06 1.48,-0.05 1.53,-0.13 1.48,-0.17 1.48,-0.18 1.41,-0.29 1.48,-0.3 1.42,-0.29 1.35,-0.3 1.42,-0.35 1.36,-0.42 1.36,-0.41 1.3,-0.47 1.3,-0.48 1.29,-0.47 1.25,-0.53 1.3,-0.59 1.18,-0.59 1.18,-0.65 1.12,-0.71 1.12,-0.65 1.12,-0.71 1.07,-0.7 1.06,-0.77 1,-0.77 0.95,-0.77 0.94,-0.82 0.95,-0.89 0.89,-0.89 0.82,-0.88 0.77,-0.89 -22.74,-9.27 -0.71,0.89 -0.77,0.76 -0.82,0.71 -0.83,0.71 -0.94,0.65 -1.01,0.59 -1,0.53 -1.06,0.48 -1.07,0.47 -1.18,0.35 -1.12,0.41 -1.3,0.24 -1.18,0.24 -1.3,0.11 -1.24,0.13 -1.3,0.05 -1.12,-0.05 -1.06,-0.07 -1.01,-0.11 -1,-0.12 -0.95,-0.18 -1,-0.24 -1.01,-0.35 -0.88,-0.29 -0.89,-0.36 -0.88,-0.35 -0.89,-0.41 -0.82,-0.42 -0.77,-0.47 -0.83,-0.53 -0.77,-0.53 -0.7,-0.54 -0.66,-0.59 -0.64,-0.65 -0.59,-0.59 -0.59,-0.77 -0.53,-0.65 -0.48,-0.7 -0.47,-0.77 -0.41,-0.71 -0.42,-0.77 -0.35,-0.82 -0.24,-0.77 -0.24,-0.89 -0.17,-0.82 -0.12,-0.89 -0.12,-0.83 0,-1.77 0.12,-0.83 0.12,-0.94 0.17,-0.83 0.24,-0.82 0.24,-0.77 0.35,-0.83 0.42,-0.77 0.41,-0.7 0.47,-0.77 0.48,-0.77 0.53,-0.65 0.59,-0.71 0.59,-0.65 0.64,-0.59 0.66,-0.59 0.7,-0.53 0.77,-0.53 0.83,-0.53 0.77,-0.48 0.82,-0.41 0.89,-0.47 0.88,-0.42 0.89,-0.29 0.88,-0.3 1.01,-0.29 1,-0.24 0.95,-0.17 1,-0.12 1.01,-0.12 1.06,-0.06 1.12,-0.06 1.6,0.06 1.53,0.12 1.48,0.18 1.53,0.29 1.36,0.35 1.36,0.42 1.24,0.47 1.24,0.59 1.18,0.65 1.12,0.71 1.01,0.71 0.94,0.83 0.89,0.88 0.77,0.95 0.82,1 0.65,1.12 -20.43,0 0,12.34 48.72,0 0.06,-0.59 0,-0.7 -0.06,-0.65 -0.12,-0.66 -0.12,-1.23 -0.11,-1.25 -0.06,-1.82 -0.18,-1.89 -0.3,-1.78 -0.35,-1.71 -0.53,-1.83 -0.59,-1.65 -0.77,-1.66 -0.77,-1.59 -1,-1.66 -1.01,-1.53 -1.12,-1.48 -1.18,-1.42 -1.24,-1.47 -1.42,-1.36 -1.47,-1.24 -1.54,-1.24 -1.59,-1.18 -1.72,-1.18 -1.71,-1.06 -1.83,-1.01 -1.83,-0.88 -2.01,-0.89 -2,-0.77 -2.01,-0.77 -2.19,-0.64 -2.12,-0.54 -2.25,-0.47 -2.3,-0.41 -2.25,-0.3 -2.41,-0.23 -2.37,-0.12 -2.36,-0.06 -2.6,0.06 -2.48,0.12 -2.48,0.23 -2.36,0.3 -2.3,0.41 -2.31,0.47 -2.24,0.54 -2.13,0.64 -2.18,0.77 -2.01,0.77 -1.95,0.89 -1.95,0.88 -1.83,1.01 -1.77,1.06 -1.71,1.18 -1.6,1.18 -1.53,1.24 -1.48,1.24 -1.42,1.36 -1.24,1.47 -1.18,1.42 -1.12,1.48 -1.01,1.53 -0.88,1.66 -0.83,1.59 -0.7,1.66 -0.66,1.65 -0.47,1.83 -0.41,1.71 -0.24,1.78 -0.17,1.89 -0.06,1.82 0.06,1.84 0.11,1.83 0.3,1.83 0.41,1.77 0.47,1.77 0.59,1.77 0.71,1.71 0.83,1.66 0.89,1.59 1,1.66 1.06,1.53 1.19,1.48 1.29,1.47 1.36,1.42 1.48,1.36 1.47,1.24 1.6,1.24 1.77,1.12 1.71,1.12 1.83,1.01 1.95,0.94 1.95,0.83 2.07,0.77 2.12,0.71 2.19,0.59 2.19,0.53 2.35,0.47 2.31,0.29 2.42,0.24 2.48,0.12 2.54,0 2.6,-0.06"
style="fill:#3a4d96;fill-opacity:1;fill-rule:evenodd;stroke:none"
id="path78"
inkscape:connector-curvature="0" /><path
d="m 2179.43,1120.51 1.53,-0.06 1.54,-0.06 1.48,-0.05 1.47,-0.13 1.54,-0.17 1.47,-0.18 1.42,-0.29 1.42,-0.3 1.48,-0.29 1.35,-0.3 1.42,-0.35 1.36,-0.42 1.3,-0.41 1.36,-0.47 1.3,-0.48 1.29,-0.47 1.25,-0.53 1.29,-0.59 1.19,-0.59 1.18,-0.65 1.12,-0.71 1.12,-0.65 1.07,-0.71 1.12,-0.7 1.06,-0.77 1,-0.77 0.95,-0.77 0.94,-0.82 0.89,-0.89 0.95,-0.89 0.82,-0.88 0.77,-0.89 -22.74,-9.27 -0.71,0.89 -0.77,0.76 -0.82,0.71 -0.83,0.71 -1,0.65 -0.95,0.59 -1,0.53 -1.06,0.48 -1.07,0.47 -1.18,0.35 -1.18,0.41 -1.24,0.24 -1.18,0.24 -1.3,0.11 -1.24,0.13 -1.36,0.05 -1.06,-0.05 -1.06,-0.07 -1.01,-0.11 -1,-0.12 -0.95,-0.18 -1.06,-0.24 -0.89,-0.35 -0.94,-0.29 -0.89,-0.36 -0.88,-0.35 -0.89,-0.41 -0.82,-0.42 -0.83,-0.47 -0.77,-0.53 -0.77,-0.53 -0.71,-0.54 -0.65,-0.59 -0.64,-0.65 -0.59,-0.59 -0.59,-0.77 -0.54,-0.65 -0.47,-0.7 -0.53,-0.77 -0.41,-0.71 -0.36,-0.77 -0.35,-0.82 -0.24,-0.77 -0.24,-0.89 -0.17,-0.82 -0.12,-0.89 -0.12,-0.83 0,-1.77 0.12,-0.83 0.12,-0.94 0.17,-0.83 0.24,-0.82 0.24,-0.77 0.35,-0.83 0.36,-0.77 0.41,-0.7 0.53,-0.77 0.47,-0.77 0.54,-0.65 0.59,-0.71 0.59,-0.65 0.64,-0.59 0.65,-0.59 0.71,-0.53 0.77,-0.53 0.77,-0.53 0.83,-0.48 0.82,-0.41 0.89,-0.47 0.88,-0.42 0.89,-0.29 0.94,-0.3 0.89,-0.29 1.06,-0.24 0.95,-0.17 1,-0.12 1.01,-0.12 1.06,-0.06 1.06,-0.06 1.66,0.06 1.53,0.12 1.48,0.18 1.47,0.29 1.42,0.35 1.36,0.42 1.24,0.47 1.24,0.59 1.12,0.65 1.18,0.71 1.01,0.71 0.94,0.83 0.89,0.88 0.76,0.95 0.77,1 0.65,1.12 -20.37,0 0,12.34 48.72,0 0.06,-0.59 0,-0.7 -0.06,-0.65 -0.12,-0.66 -0.12,-1.23 -0.12,-1.25 -0.05,-1.82 -0.18,-1.89 -0.3,-1.78 -0.35,-1.71 -0.53,-1.83 -0.59,-1.65 -0.83,-1.66 -0.77,-1.59 -0.94,-1.66 -1.01,-1.53 -1.12,-1.48 -1.18,-1.42 -1.3,-1.47 -1.36,-1.36 -1.47,-1.24 -1.54,-1.24 -1.65,-1.18 -1.66,-1.18 -1.71,-1.06 -1.83,-1.01 -1.89,-0.88 -1.95,-0.89 -2,-0.77 -2.07,-0.77 -2.13,-0.64 -2.12,-0.54 -2.31,-0.47 -2.24,-0.41 -2.25,-0.3 -2.42,-0.23 -2.36,-0.12 -2.42,-0.06 -2.54,0.06 -2.48,0.12 -2.48,0.23 -2.36,0.3 -2.37,0.41 -2.24,0.47 -2.25,0.54 -2.18,0.64 -2.12,0.77 -2.01,0.77 -2.01,0.89 -1.89,0.88 -1.83,1.01 -1.77,1.06 -1.72,1.18 -1.59,1.18 -1.54,1.24 -1.47,1.24 -1.42,1.36 -1.24,1.47 -1.18,1.42 -1.12,1.48 -1.01,1.53 -0.94,1.66 -0.77,1.59 -0.71,1.66 -0.65,1.65 -0.47,1.83 -0.41,1.71 -0.24,1.78 -0.17,1.89 -0.07,1.82 0.07,1.84 0.11,1.83 0.3,1.83 0.41,1.77 0.47,1.77 0.59,1.77 0.71,1.71 0.77,1.66 0.94,1.59 1.01,1.66 1.06,1.53 1.18,1.48 1.3,1.47 1.3,1.42 1.54,1.36 1.47,1.24 1.6,1.24 1.77,1.12 1.71,1.12 1.83,1.01 1.89,0.94 2.01,0.83 2.07,0.77 2.07,0.71 2.24,0.59 2.19,0.53 2.3,0.47 2.36,0.29 2.42,0.24 2.48,0.12 2.48,0 2.6,-0.06"
style="fill:#dea13d;fill-opacity:1;fill-rule:evenodd;stroke:none"
id="path80"
inkscape:connector-curvature="0" /><path
d="m 1900.1,1118.62 26.34,0 0,-49.55 51.08,0 0,-17.53 -77.42,0 0,67.08"
style="fill:#dea13d;fill-opacity:1;fill-rule:evenodd;stroke:none"
id="path82"
inkscape:connector-curvature="0" /><path
d="m 2054.35,1048.82 -2.48,0.06 -2.48,0.12 -2.48,0.23 -2.36,0.3 -2.37,0.41 -2.3,0.47 -2.18,0.54 -2.19,0.64 -2.06,0.77 -2.01,0.77 -2.01,0.89 -1.89,0.88 -1.83,1.01 -1.77,1.06 -1.65,1.18 -1.6,1.18 -1.54,1.24 -1.47,1.24 -1.36,1.36 -1.24,1.47 -1.18,1.42 -1.06,1.48 -1.07,1.53 -0.88,1.66 -0.77,1.59 -0.71,1.66 -0.59,1.65 -0.47,1.83 -0.42,1.71 -0.23,1.78 -0.18,1.89 -0.06,1.82 0.06,1.84 0.12,1.77 0.29,1.83 0.36,1.77 0.53,1.71 0.53,1.78 0.71,1.65 0.77,1.59 0.88,1.6 1.07,1.53 1.06,1.54 1.12,1.41 1.24,1.42 1.36,1.36 1.42,1.3 1.53,1.24 1.54,1.18 1.65,1.12 1.83,1.01 1.77,1.06 1.89,0.95 2.01,0.82 2.01,0.77 2.07,0.71 2.24,0.65 2.18,0.59 2.31,0.47 2.36,0.35 2.42,0.42 2.48,0.18 2.48,0.17 2.6,0.06 2.6,-0.06 2.48,-0.17 2.48,-0.18 2.42,-0.42 2.3,-0.35 2.37,-0.47 2.18,-0.59 2.19,-0.65 2.12,-0.71 2.01,-0.77 1.95,-0.82 1.95,-0.95 1.77,-1.06 1.77,-1.01 1.71,-1.12 1.54,-1.18 1.53,-1.24 1.36,-1.3 1.36,-1.36 1.3,-1.42 1.12,-1.41 1.07,-1.54 1,-1.53 0.89,-1.6 0.76,-1.59 0.77,-1.65 0.53,-1.78 0.53,-1.71 0.36,-1.77 0.29,-1.83 0.12,-1.77 0.06,-1.84 -0.06,-1.82 -0.12,-1.89 -0.29,-1.78 -0.41,-1.71 -0.48,-1.83 -0.59,-1.65 -0.77,-1.66 -0.76,-1.59 -0.89,-1.66 -1,-1.53 -1.07,-1.48 -1.18,-1.42 -1.3,-1.47 -1.36,-1.36 -1.41,-1.24 -1.48,-1.24 -1.65,-1.18 -1.65,-1.18 -1.78,-1.06 -1.77,-1.01 -1.95,-0.88 -1.95,-0.89 -2,-0.77 -2.13,-0.77 -2.13,-0.64 -2.24,-0.54 -2.3,-0.47 -2.31,-0.41 -2.36,-0.3 -2.48,-0.23 -2.42,-0.12 -2.6,-0.06 z m 0.06,19.25 -1.06,0.06 -1.01,0.06 -1,0.12 -1,0.12 -1.01,0.17 -1,0.24 -0.95,0.29 -0.94,0.3 -0.89,0.29 -0.89,0.42 -0.82,0.47 -0.89,0.41 -0.82,0.48 -0.77,0.53 -0.71,0.53 -0.71,0.53 -0.71,0.59 -0.65,0.59 -0.59,0.65 -0.59,0.71 -0.53,0.65 -0.53,0.77 -0.47,0.77 -0.42,0.7 -0.35,0.77 -0.3,0.83 -0.29,0.77 -0.24,0.82 -0.18,0.83 -0.11,0.94 -0.06,0.83 -0.06,0.89 0.06,0.88 0.06,0.83 0.11,0.89 0.18,0.82 0.24,0.89 0.29,0.77 0.3,0.82 0.35,0.77 0.42,0.71 0.47,0.77 0.53,0.7 0.53,0.65 0.59,0.77 0.59,0.59 0.65,0.65 0.65,0.59 0.71,0.54 0.77,0.53 0.77,0.53 0.76,0.47 0.89,0.42 0.88,0.41 0.83,0.35 0.95,0.36 0.88,0.29 0.95,0.35 1.06,0.24 0.95,0.18 1,0.12 1.01,0.11 1.06,0.07 1,0.05 1.12,-0.05 1.01,-0.07 1,-0.11 1,-0.12 1.01,-0.18 0.94,-0.24 0.95,-0.35 1,-0.29 0.89,-0.36 0.88,-0.35 0.83,-0.41 0.83,-0.42 0.82,-0.47 0.77,-0.53 0.77,-0.53 0.71,-0.54 0.65,-0.59 0.65,-0.65 0.65,-0.59 0.53,-0.77 0.53,-0.65 0.47,-0.7 0.48,-0.77 0.41,-0.71 0.35,-0.77 0.36,-0.82 0.29,-0.77 0.24,-0.89 0.17,-0.82 0.13,-0.89 0.11,-0.83 0,-1.77 -0.11,-0.83 -0.13,-0.94 -0.17,-0.83 -0.24,-0.82 -0.29,-0.77 -0.36,-0.83 -0.35,-0.77 -0.41,-0.7 -0.42,-0.77 -0.53,-0.77 -0.53,-0.65 -0.53,-0.71 -0.6,-0.65 -0.64,-0.59 -0.71,-0.59 -0.71,-0.53 -0.77,-0.53 -0.77,-0.53 -0.76,-0.48 -0.83,-0.41 -0.89,-0.47 -0.88,-0.42 -0.89,-0.29 -0.94,-0.3 -0.95,-0.29 -1,-0.24 -0.95,-0.17 -1,-0.12 -1,-0.12 -1.07,-0.06 -1.06,-0.06"
style="fill:#dea13d;fill-opacity:1;fill-rule:evenodd;stroke:none"
id="path84"
inkscape:connector-curvature="0" /></g></g></g></svg>