<?xml version="1.0" encoding="UTF-8" standalone="no"?>
<!-- Created with Inkscape (http://www.inkscape.org/) -->
<svg
   xmlns:dc="http://purl.org/dc/elements/1.1/"
   xmlns:cc="http://creativecommons.org/ns#"
   xmlns:rdf="http://www.w3.org/1999/02/22-rdf-syntax-ns#"
   xmlns:svg="http://www.w3.org/2000/svg"
   xmlns="http://www.w3.org/2000/svg"
   xmlns:sodipodi="http://sodipodi.sourceforge.net/DTD/sodipodi-0.dtd"
   xmlns:inkscape="http://www.inkscape.org/namespaces/inkscape"
   width="119"
   height="25.700001"
   id="svg2872"
   sodipodi:version="0.32"
   inkscape:version="0.46"
   version="1.0"
   sodipodi:docname="VHM-Logo.svg"
   inkscape:output_extension="org.inkscape.output.svg.inkscape">
  <defs
     id="defs2874">
    <inkscape:perspective
       sodipodi:type="inkscape:persp3d"
       inkscape:vp_x="0 : 526.18109 : 1"
       inkscape:vp_y="0 : 1000 : 0"
       inkscape:vp_z="744.09448 : 526.18109 : 1"
       inkscape:persp3d-origin="372.04724 : 350.78739 : 1"
       id="perspective2880" />
  </defs>
  <sodipodi:namedview
     id="base"
     pagecolor="#ffffff"
     bordercolor="#666666"
     borderopacity="1.0"
     inkscape:pageopacity="0.0"
     inkscape:pageshadow="2"
     inkscape:zoom="4.7563025"
     inkscape:cx="59.5"
     inkscape:cy="12.85"
     inkscape:document-units="px"
     inkscape:current-layer="layer1"
     showgrid="false"
     inkscape:window-width="640"
     inkscape:window-height="667"
     inkscape:window-x="22"
     inkscape:window-y="29" />
  <metadata
     id="metadata2877">
    <rdf:RDF>
      <cc:Work
         rdf:about="">
        <dc:format>image/svg+xml</dc:format>
        <dc:type
           rdf:resource="http://purl.org/dc/dcmitype/StillImage" />
      </cc:Work>
    </rdf:RDF>
  </metadata>
  <g
     inkscape:label="Ebene 1"
     inkscape:groupmode="layer"
     id="layer1"
     transform="translate(-77.642857,-253.7979)">
    <path
       d="M 94.280357,277.1104 L 151.35536,277.1104 L 153.00536,279.3604 L 95.855357,279.3604 L 94.280357,277.1104"
       style="fill:#ebec3d;fill-opacity:1;fill-rule:evenodd;stroke:none"
       id="path13" />
    <path
       d="M 94.280357,277.1104 L 151.35536,277.1104 L 153.00536,279.3604 L 95.855357,279.3604 L 94.280357,277.1104"
       style="fill:none;stroke:#ebec3d;stroke-width:0.075;stroke-linecap:round;stroke-linejoin:round;stroke-miterlimit:10;stroke-dasharray:none;stroke-opacity:1"
       id="path15" />
    <path
       d="M 91.055357,272.5354 L 148.20536,272.5354 L 149.85536,274.7854 L 92.705357,274.7854 L 91.055357,272.5354"
       style="fill:#e87a13;fill-opacity:1;fill-rule:evenodd;stroke:none"
       id="path17" />
    <path
       d="M 91.055357,272.5354 L 148.20536,272.5354 L 149.85536,274.7854 L 92.705357,274.7854 L 91.055357,272.5354"
       style="fill:none;stroke:#dd4742;stroke-width:0.075;stroke-linecap:round;stroke-linejoin:round;stroke-miterlimit:10;stroke-dasharray:none;stroke-opacity:1"
       id="path19" />
    <path
       d="M 87.605357,267.8104 L 144.75536,267.8104 L 146.40536,270.1354 L 89.255357,270.1354 L 87.605357,267.8104"
       style="fill:#c02d28;fill-opacity:1;fill-rule:evenodd;stroke:none"
       id="path21" />
    <path
       d="M 87.605357,267.8104 L 144.75536,267.8104 L 146.40536,270.1354 L 89.255357,270.1354 L 87.605357,267.8104"
       style="fill:none;stroke:#c02d28;stroke-width:0.075;stroke-linecap:round;stroke-linejoin:round;stroke-miterlimit:10;stroke-dasharray:none;stroke-opacity:1"
       id="path23" />
    <path
       d="M 84.455357,263.2354 L 141.60536,263.2354 L 143.25536,265.4854 L 86.105357,265.4854 L 84.455357,263.2354"
       style="fill:#702f80;fill-opacity:1;fill-rule:evenodd;stroke:none"
       id="path25" />
    <path
       d="M 84.455357,263.2354 L 141.60536,263.2354 L 143.25536,265.4854 L 86.105357,265.4854 L 84.455357,263.2354"
       style="fill:none;stroke:#702f80;stroke-width:0.075;stroke-linecap:round;stroke-linejoin:round;stroke-miterlimit:10;stroke-dasharray:none;stroke-opacity:1"
       id="path27" />
    <path
       d="M 81.005357,258.4354 L 138.15536,258.4354 L 139.80536,260.7604 L 82.655357,260.7604 L 81.005357,258.4354"
       style="fill:#3b4993;fill-opacity:1;fill-rule:evenodd;stroke:none"
       id="path29" />
    <path
       d="M 81.005357,258.4354 L 138.15536,258.4354 L 139.80536,260.7604 L 82.655357,260.7604 L 81.005357,258.4354"
       style="fill:none;stroke:#3b4993;stroke-width:0.075;stroke-linecap:round;stroke-linejoin:round;stroke-miterlimit:10;stroke-dasharray:none;stroke-opacity:1"
       id="path31" />
    <path
       d="M 139.80536,253.8604 L 142.05536,253.8604 L 152.93036,269.2354 L 152.93036,253.8604 L 160.20536,253.8604 L 160.20536,263.7604 L 167.93036,263.7604 L 167.93036,253.8604 L 177.98036,253.8604 L 182.63036,268.1104 L 182.85536,268.1854 L 187.58036,253.8604 L 196.58036,253.8604 L 196.58036,279.4354 L 190.28036,279.4354 L 190.28036,264.8104 L 185.48036,279.3604 L 180.45536,279.4354 L 175.35536,265.1104 L 175.43036,279.3604 L 167.93036,279.3604 L 167.93036,269.5354 L 160.13036,269.5354 L 160.13036,279.3604 L 153.00536,279.3604 L 134.85536,253.8604 L 139.80536,253.8604"
       style="fill:#1f1a17;fill-opacity:1;fill-rule:evenodd;stroke:none"
       id="path33" />
    <path
       d="M 139.80536,253.8604 L 142.05536,253.8604 L 152.93036,269.2354 L 152.93036,253.8604 L 160.20536,253.8604 L 160.20536,263.7604 L 167.93036,263.7604 L 167.93036,253.8604 L 177.98036,253.8604 L 182.63036,268.1104 L 182.85536,268.1854 L 187.58036,253.8604 L 196.58036,253.8604 L 196.58036,279.4354 L 190.28036,279.4354 L 190.28036,264.8104 L 185.48036,279.3604 L 180.45536,279.4354 L 175.35536,265.1104 L 175.43036,279.3604 L 167.93036,279.3604 L 167.93036,269.5354 L 160.13036,269.5354 L 160.13036,279.3604 L 153.00536,279.3604 L 134.85536,253.8604 L 139.80536,253.8604"
       style="fill:none;stroke:#1f1a17;stroke-width:0.075;stroke-linecap:round;stroke-linejoin:round;stroke-miterlimit:10;stroke-dasharray:none;stroke-opacity:1"
       id="path35" />
    <path
       d="M 77.705357,253.8604 L 134.85536,253.8604 L 136.50536,256.1104 L 79.355357,256.1104 L 77.705357,253.8604"
       style="fill:#121314;fill-opacity:1;fill-rule:evenodd;stroke:none"
       id="path37" />
    <path
       d="M 77.705357,253.8604 L 134.85536,253.8604 L 136.43036,256.1104 L 79.355357,256.1104 L 77.705357,253.8604"
       style="fill:none;stroke:#1f1a17;stroke-width:0.075;stroke-linecap:round;stroke-linejoin:round;stroke-miterlimit:10;stroke-dasharray:none;stroke-opacity:1"
       id="path39" />
  </g>
</svg>
