<?xml version="1.0" encoding="UTF-8" standalone="no"?>
<!-- Created with Inkscape (http://www.inkscape.org/) -->

<svg
   width="132.29167mm"
   height="13.967162mm"
   viewBox="0 0 132.29167 13.967162"
   version="1.1"
   id="svg1"
   inkscape:version="1.4 (86a8ad7, 2024-10-11)"
   sodipodi:docname="Vietnam_Airlines_wordmark.svg"
   xmlns:inkscape="http://www.inkscape.org/namespaces/inkscape"
   xmlns:sodipodi="http://sodipodi.sourceforge.net/DTD/sodipodi-0.dtd"
   xmlns="http://www.w3.org/2000/svg"
   xmlns:svg="http://www.w3.org/2000/svg">
  <sodipodi:namedview
     id="namedview1"
     pagecolor="#ffffff"
     bordercolor="#000000"
     borderopacity="0.25"
     inkscape:showpageshadow="2"
     inkscape:pageopacity="0.0"
     inkscape:pagecheckerboard="0"
     inkscape:deskcolor="#d1d1d1"
     inkscape:document-units="mm"
     inkscape:zoom="2.8685466"
     inkscape:cx="157.57109"
     inkscape:cy="38.869859"
     inkscape:window-width="1920"
     inkscape:window-height="1001"
     inkscape:window-x="-9"
     inkscape:window-y="-9"
     inkscape:window-maximized="1"
     inkscape:current-layer="layer1" />
  <defs
     id="defs1" />
  <g
     inkscape:label="Layer 1"
     inkscape:groupmode="layer"
     id="layer1"
     transform="translate(-81.668922,-104.04488)">
    <path
       fill="#005e80"
       d="m 171.98602,109.92943 c 0,-0.72629 0.77938,-1.1121 1.635,-1.1121 1.45812,0 1.2945,1.16184 2.33587,1.16184 0.47313,0 0.76167,-0.26972 0.76167,-0.73402 0,-0.80258 -1.06678,-1.33542 -2.72499,-1.38959 -1.58745,-0.0508 -2.41214,0.22884 -2.98035,0.45103 -0.63786,0.24986 -0.91976,0.61244 -0.91976,1.18065 v 7.8787 c 0,0.41566 0.20118,0.41566 0.9474,0.41566 0.74177,0 0.94516,0 0.94516,-0.41566 z m -47.88684,1.40063 c 0.004,-2.9914 -2.60339,-3.46454 -4.49374,-3.46454 -1.52555,0 -2.89524,0.38582 -3.53861,0.66991 -0.63565,0.2819 -0.68982,0.63343 -0.68982,1.21382 l 0.004,7.62554 c 0,0.41456 0.20348,0.41456 0.94629,0.41456 0.7451,0 0.9474,0 0.9474,-0.41456 l -0.004,-7.03966 c 0,-0.62238 0.22109,-1.48022 2.38009,-1.48022 2.04181,0 2.55253,1.20718 2.55253,2.47515 l 0.004,6.04473 c 0,0.41456 0.20452,0.41456 0.94407,0.41456 0.74618,0 0.94849,0 0.94849,-0.41456 z m 42.28543,6.03147 c 0,0.41455 0.20452,0.41455 0.94295,0.41455 0.74398,0 0.9474,0 0.9474,-0.41455 l 0.008,-8.97864 c 0.008,-0.65999 -0.90095,-0.49416 -1.36415,-0.19116 -0.51957,0.33718 -0.53614,0.50742 -0.53614,1.16185 z m -10.0189,-5.29854 c 0.27969,-0.71413 2.07717,-5.41461 2.17225,-5.67992 0.0276,-0.0752 0.10508,-0.0752 0.13495,0.002 0.12827,0.32943 1.94341,4.94809 2.21205,5.66333 0.0597,0.15585 0.0806,0.28412 -0.12597,0.28412 h -4.24061 c -0.26088,0 -0.19784,-0.15689 -0.1525,-0.26975 m 5.22888,1.73449 c 0.64449,1.52998 1.53218,3.66243 1.53218,3.66243 0.11176,0.27085 0.0104,0.33717 1.12979,0.33717 1.18508,0 1.25692,-0.0376 1.02368,-0.56488 -0.0631,-0.14269 -4.77013,-11.44827 -5.03101,-12.06514 -0.262,-0.61795 -0.37476,-0.66328 -1.35421,-0.66328 -0.9695,0 -1.09551,0.0255 -1.36415,0.66328 -0.27304,0.64891 -4.99783,12.00432 -5.05643,12.14692 -0.19909,0.4831 -0.0211,0.4831 0.78157,0.4831 0.75173,0 0.83905,-0.0232 0.98165,-0.3438 l 1.45701,-3.64584 c 0.0873,-0.22111 0.11616,-0.30954 0.37476,-0.30954 0.99714,0 3.83821,0 5.1493,-0.004 0.25094,-0.001 0.27747,0.0708 0.37586,0.30401 m 6.83402,-8.61826 c -0.10508,-0.49415 -0.65554,-0.79483 -1.28786,-0.66107 -0.63345,0.13266 -1.01151,0.62903 -0.90649,1.12205 0.10612,0.49304 0.65553,0.79374 1.28898,0.65998 0.63343,-0.13266 1.01149,-0.62902 0.90537,-1.12096 m 8.90569,12.19226 c 0,0.41566 0.20347,0.41566 0.94297,0.41566 0.74287,0 0.9474,0 0.9474,-0.41566 l 0.008,-12.87102 c 0.008,-0.65886 -0.90096,-0.49305 -1.36525,-0.19011 -0.51737,0.33827 -0.53506,0.50629 -0.53506,1.16074 z m 6.04803,-12.18894 c -0.10612,-0.49304 -0.65442,-0.79372 -1.28787,-0.65996 -0.63343,0.13266 -1.0126,0.629 -0.90648,1.12205 0.10509,0.49304 0.65554,0.79372 1.28788,0.66107 0.63343,-0.13371 1.0126,-0.63011 0.90647,-1.12316 m -2.04402,12.1834 c 0,0.41456 0.20453,0.41456 0.94297,0.41456 0.74288,0 0.9474,0 0.9474,-0.41456 l 0.008,-8.97864 c 0.008,-0.65996 -0.90096,-0.49413 -1.36636,-0.19115 -0.51737,0.33715 -0.53395,0.50631 -0.53395,1.16184 z m 12.67315,-6.02702 c 0.006,-2.99142 -2.60229,-3.46455 -4.49264,-3.46455 -1.52666,0 -2.89634,0.38581 -3.53974,0.6699 -0.63564,0.2808 -0.68981,0.63345 -0.68981,1.21382 l 0.006,7.62555 c 0,0.41345 0.20452,0.41345 0.94518,0.41345 0.74509,0 0.94738,0 0.94738,-0.41345 l -0.002,-7.03965 c 0,-0.62127 0.21998,-1.48023 2.37785,-1.48023 2.0407,0 2.55255,1.20717 2.55255,2.47516 l 0.004,6.04472 c 0,0.41345 0.20222,0.41345 0.94294,0.41345 0.74731,0 0.94851,0 0.94851,-0.41345 z m 19.94824,3.8006 c -0.074,-3.3142 -6.2614,-2.70619 -6.26361,-5.01663 -0.001,-0.90316 0.92859,-1.31993 1.93459,-1.31993 1.44926,0 1.92904,0.48419 2.23193,1.18948 0.14144,0.32943 0.42783,0.63124 0.98056,0.63124 0.41677,0 0.7683,-0.26531 0.7683,-0.75284 0,-0.73291 -1.01924,-2.02411 -3.80282,-2.04291 -2.3049,-0.0146 -3.86582,0.86337 -3.86804,2.68409 -0.002,3.41038 6.19175,2.68299 6.1818,5.0487 -0.004,0.97723 -0.91533,1.42937 -2.23749,1.44264 -1.31881,0.0146 -2.02411,-0.52068 -2.40549,-1.44596 -0.18572,-0.37587 -0.43115,-0.71413 -1.00489,-0.70419 -0.51845,0.008 -0.82577,0.34159 -0.82577,0.8479 0,0.69535 1.20939,2.31044 4.14883,2.31044 2.40771,0 4.20411,-0.97061 4.1621,-2.87203 m -119.079252,2.22642 c 0,0.41456 0.204522,0.41456 0.94297,0.41456 0.743985,0 0.948485,0 0.948485,-0.41456 l 0.0063,-8.97864 c 0.0084,-0.65996 -0.900958,-0.49413 -1.364149,-0.19115 -0.519576,0.33715 -0.535056,0.50631 -0.535056,1.16184 z m 35.035732,0.64561 c 1.57751,0.0105 2.37786,-0.27085 3.32526,-0.70419 0.70972,-0.33607 0.70972,-0.71191 0.70972,-1.14749 v -5.41128 c 0,-2.0617 -1.71349,-2.91845 -3.67791,-2.91513 -3.20589,0.008 -4.48158,1.38295 -4.53245,2.27397 -0.0265,0.47424 0.25537,0.82136 0.80812,0.83352 0.53835,0.0125 0.86005,-0.34159 0.98606,-0.63564 0.39357,-0.92198 1.07231,-1.4924 2.47185,-1.4924 1.09662,0 2.07717,0.50299 2.07276,1.80634 v 0.57485 c 0,0.1757 0,0.21226 -0.15375,0.23104 -2.88638,0.46208 -6.63616,1.36968 -6.63616,4.02171 0,1.64937 1.97769,2.56249 4.62642,2.5647 m 2.1656,-2.29717 c 0,1.00046 -1.30223,1.26466 -2.2651,1.26466 -1.70022,0 -2.5448,-0.72631 -2.5448,-1.68474 0,-1.74666 2.25517,-2.37677 4.60651,-2.87092 0.12493,-0.0265 0.20118,-0.0397 0.20118,0.1383 z M 96.925662,105.18266 c -0.106125,-0.49304 -0.655554,-0.79372 -1.288984,-0.65996 -0.632344,0.13266 -1.011512,0.629 -0.906494,1.12205 0.106125,0.49304 0.656661,0.79372 1.290091,0.66107 0.632323,-0.13371 1.011512,-0.63011 0.905387,-1.12316 m 51.073928,12.19999 c 0,0.41456 0.20222,0.41123 0.94627,0.41345 0.74066,0.001 0.94518,0.001 0.94518,-0.41345 v -6.41837 c 0,-2.55254 -2.39555,-3.08096 -3.81389,-3.08096 -1.6571,0 -2.60007,0.47427 -3.24455,1.18729 -0.68871,-0.74952 -1.60847,-1.18729 -3.22024,-1.18729 -1.11099,0 -2.19437,0.26642 -3.16387,0.69646 -0.70086,0.31063 -0.70086,0.72297 -0.70086,1.12315 v 7.67972 c 0,0.41456 0.20681,0.41456 0.94629,0.41456 0.74066,0 0.94518,0 0.94518,-0.41456 l 0.002,-7.15352 c 0,-1.06677 0.85565,-1.35972 1.97769,-1.35972 1.39733,0 2.25295,0.65664 2.25295,2.30491 v 6.20833 c 0,0.41456 0.20452,0.41456 0.9474,0.41456 0.74177,0 0.94297,0 0.94297,-0.41456 v -6.33105 c 0,-1.2547 0.65664,-2.18883 2.1623,-2.18883 1.46144,0 2.08493,0.95404 2.08493,2.21758 z m -47.5917,-6.06573 c 0.16796,-1.18065 1.069,-2.48841 2.8499,-2.50279 1.49129,-0.0125 2.80017,0.89434 2.86871,2.22753 0.0188,0.3836 -0.0819,0.43114 -0.53836,0.43114 h -5.03544 c -0.14038,0 -0.15814,-0.0631 -0.14477,-0.15584 m 7.60123,3.55741 c 0,-0.17026 -0.13036,-0.34158 -0.37033,-0.34158 -0.21779,0 -0.32722,0.0773 -0.45766,0.304 -0.5019,0.85011 -1.73118,1.84614 -3.36728,1.86273 -2.20983,0.0211 -3.48555,-1.56756 -3.43028,-4.02171 0,-0.084 0.0353,-0.15585 0.16253,-0.15919 0.12723,-0.004 3.45902,-0.006 6.81856,0.001 0.64337,10e-4 0.65442,-0.42672 0.65442,-0.77827 0,-2.03295 -1.89367,-3.91005 -4.6087,-3.91005 -2.81896,0 -4.983481,1.53771 -4.983481,5.07413 0,3.76302 2.812321,5.09842 5.210101,5.09842 2.89744,0 4.37214,-2.24079 4.37214,-3.12959 m 89.22155,-3.55741 c 0.16796,-1.18065 1.07011,-2.48841 2.84991,-2.50278 1.49129,-0.0125 2.80016,0.89433 2.8687,2.22752 0.0209,0.3836 -0.0806,0.43115 -0.53835,0.43115 h -5.03433 c -0.14039,0 -0.15919,-0.0631 -0.14603,-0.15585 m 7.60123,3.55741 c 0,-0.17026 -0.13036,-0.34158 -0.37034,-0.34158 -0.21776,0 -0.3261,0.0773 -0.45765,0.304 -0.5008,0.85011 -1.73229,1.84614 -3.36727,1.86273 -2.20985,0.0211 -3.48557,-1.56756 -3.43029,-4.02171 0,-0.084 0.0366,-0.15585 0.16253,-0.15919 0.12827,-0.004 3.45902,-0.006 6.81855,10e-4 0.64449,0.001 0.65445,-0.42672 0.65445,-0.77827 0,-2.03295 -1.89369,-3.91005 -4.60872,-3.91005 -2.81786,0 -4.98346,1.53771 -4.98346,5.07413 0,3.76302 2.81343,5.09842 5.20898,5.09842 2.89853,0 4.37324,-2.24079 4.37324,-3.12959 m -118.107537,2.25738 c 0.25867,0.61797 0.318376,0.6655 1.304444,0.6655 0.949612,0 0.970608,-0.0376 1.246972,-0.67212 0.276365,-0.63345 3.878004,-9.69169 4.835346,-12.06181 0.212251,-0.5262 0.12054,-0.57043 -0.728504,-0.57043 -0.743985,0 -0.812527,0.043 -0.954021,0.36369 0,0 -4.037192,10.32401 -4.124515,10.56169 -0.0211,0.0675 -0.10717,0.0729 -0.143729,-0.008 -0.129314,-0.29295 -4.228426,-10.58379 -4.228426,-10.58379 -0.0984,-0.2631 -0.123883,-0.35817 -1.2326,-0.35817 -1.204961,0 -1.125367,0.11615 -0.885478,0.7097 0.05849,0.14269 4.650713,11.33442 4.910511,11.95347 m 23.113197,-9.13229 c -0.44328,0.006 -1.04577,0.001 -1.04577,0.001 -0.29957,0 -0.30179,0.16483 -0.30179,0.5019 0,0.32057 10e-4,0.48861 0.30068,0.48861 h 1.04688 c 0.21558,-0.001 0.22222,0.0232 0.22,0.24762 -0.004,0.47314 0,6.17848 0,6.17848 0,2.24965 1.20386,2.51828 2.39334,2.53707 1.17734,0.0167 1.95005,-0.33165 1.93568,-0.74731 -0.008,-0.24098 -0.16692,-0.34932 -0.44107,-0.31838 -0.1924,0.0221 -0.32723,0.0806 -0.58479,0.0806 -0.6246,0 -1.40838,-0.16796 -1.40838,-1.5366 l -0.001,-6.17405 c -0.002,-0.23878 0,-0.26864 0.23768,-0.26753 h 1.70465 c 0.29736,0 0.30841,-0.16796 0.30841,-0.48861 0,-0.33165 -0.0104,-0.50299 -0.30841,-0.50299 h -1.71349 c -0.23105,-10e-4 -0.22662,-0.0232 -0.22773,-0.22222 v -2.07828 c -0.001,-0.33275 -0.25426,-0.45103 -0.45768,-0.43334 -0.14916,0.0125 -0.3261,0.10947 -0.74617,0.3836 -0.54833,0.35928 -0.69093,0.5881 -0.69093,1.24254 v 0.87 c -10e-4,0.23878 -0.0104,0.23438 -0.22,0.2377"
       id="path2"
       style="stroke-width:0.529166" />
  </g>
</svg>
