<?xml version="1.0" encoding="UTF-8" standalone="no"?>
<!-- Created with Inkscape (http://www.inkscape.org/) -->

<svg
   width="134.40778mm"
   height="13.020302mm"
   viewBox="0 0 134.40778 13.020302"
   version="1.1"
   id="svg1"
   inkscape:version="1.4 (86a8ad7, 2024-10-11)"
   sodipodi:docname="Vietnam_Airlines_2002_wordmark.svg"
   xmlns:inkscape="http://www.inkscape.org/namespaces/inkscape"
   xmlns:sodipodi="http://sodipodi.sourceforge.net/DTD/sodipodi-0.dtd"
   xmlns="http://www.w3.org/2000/svg"
   xmlns:svg="http://www.w3.org/2000/svg">
  <sodipodi:namedview
     id="namedview1"
     pagecolor="#ffffff"
     bordercolor="#000000"
     borderopacity="0.25"
     inkscape:showpageshadow="2"
     inkscape:pageopacity="0.0"
     inkscape:pagecheckerboard="0"
     inkscape:deskcolor="#d1d1d1"
     inkscape:document-units="mm"
     inkscape:zoom="2.8685466"
     inkscape:cx="164.54326"
     inkscape:cy="53.51142"
     inkscape:window-width="1920"
     inkscape:window-height="1001"
     inkscape:window-x="-9"
     inkscape:window-y="-9"
     inkscape:window-maximized="1"
     inkscape:current-layer="layer1" />
  <defs
     id="defs1" />
  <g
     inkscape:label="Layer 1"
     inkscape:groupmode="layer"
     id="layer1"
     transform="translate(-37.835417,-142.08125)">
    <path
       style="fill:#156192;fill-opacity:1;fill-rule:evenodd;stroke-width:1.34315"
       id="path151"
       d="m 50.135948,142.94221 h -1.093321 l -4.206733,9.171 -4.27792,-9.171 h -2.722557 c 0.776339,0.81798 1.020791,0.99527 1.458657,1.96905 l 4.691609,10.09912 h 0.362649 l 4.742649,-10.38655 c 0.362649,-0.77365 0.558748,-1.08392 1.044967,-1.68162"
       clip-rule="evenodd"
       clip-path="url(#SVGID_34_)" />
    <path
       style="fill:#156192;fill-opacity:1;fill-rule:evenodd;stroke-width:1.34315"
       id="path153"
       d="m 52.927006,154.83174 c -0.363993,-0.7938 -0.341159,-1.25987 -0.341159,-1.85489 v -4.79637 c 0,-0.57487 -0.02283,-1.06243 0.341159,-1.83474 h -2.551978 c 0.365336,0.77231 0.339816,1.25987 0.339816,1.83474 v 4.79637 c 0,0.88379 0.02552,1.10273 -0.339816,1.85489 h 2.551978 m -0.146403,-10.76129 c 0,-0.55069 -0.534572,-1.03959 -1.143018,-1.03959 -0.582925,0 -1.117497,0.4889 -1.117497,1.03959 0,0.53054 0.534572,1.01811 1.117497,1.01811 0.608446,0 1.143018,-0.48891 1.143018,-1.01811 z"
       clip-rule="evenodd"
       clip-path="url(#SVGID_34_)" />
    <path
       style="fill:#156192;fill-opacity:1;fill-rule:evenodd;stroke-width:1.34315"
       id="path155"
       d="M 61.609101,149.06293 H 56.8181 c 0.291462,-1.2357 1.167193,-2.20948 2.603017,-2.29678 0.558748,-0.0457 2.065758,0.0215 2.187984,2.29678 m 2.234995,0.6662 c -0.339816,-3.38339 -3.038196,-3.75678 -4.715785,-3.57949 -3.672161,0.41772 -4.934719,3.29205 -4.644599,5.05963 0.170579,0.88379 0.632622,2.05502 1.775639,2.89448 1.020791,0.72933 3.9878,1.87772 6.734534,-0.17461 l -0.365336,-0.39891 c -0.705151,0.61919 -1.944875,0.86096 -2.77091,0.83947 -1.823992,-0.0887 -3.451885,-1.7246 -3.184599,-4.64057 z"
       clip-rule="evenodd"
       clip-path="url(#SVGID_34_)" />
    <path
       style="fill:#156192;fill-opacity:1;fill-rule:evenodd;stroke-width:1.34315"
       id="path157"
       d="m 71.224684,153.06416 c -0.875732,0.9496 -1.53253,1.3915 -2.406918,1.37001 -1.046311,-0.0215 -1.823992,-0.55204 -1.823992,-1.74475 v -5.68016 h 3.744691 v -0.66218 h -3.744691 v -1.54596 l -2.089936,0.48488 c 0.14506,0.46607 0.17058,0.46607 0.193414,1.06108 h -0.534573 v 0.66218 h 0.560092 v 5.45988 c 0,2.05367 1.871003,2.49557 2.9885,2.51975 0.877074,0 1.727286,-0.09 2.79643,-0.75351 l 0.316983,-1.17122"
       clip-rule="evenodd"
       clip-path="url(#SVGID_34_)" />
    <path
       style="fill:#156192;fill-opacity:1;fill-rule:evenodd;stroke-width:1.34315"
       id="path159"
       d="m 81.448711,154.83174 c -0.341159,-0.7938 -0.316983,-1.5688 -0.316983,-1.83474 v -4.11003 c 0,-1.23703 -0.169236,-1.50298 -0.776338,-2.01069 -0.706495,-0.5977 -2.017405,-0.70783 -2.62585,-0.68634 -1.288077,0.0873 -2.405575,0.68634 -3.525759,1.92338 0.02418,-1.01542 -0.04835,-1.48149 -0.218932,-1.76758 -0.582926,0 -1.774296,0 -2.236338,0 0.631278,0.94961 0.584268,2.05501 0.584268,2.21082 v 4.44178 c 0,0.86499 0.02418,1.08392 -0.341159,1.83474 h 2.551977 c -0.363992,-0.7938 -0.339816,-1.5473 -0.339816,-1.83474 v -2.74001 c 0,-1.52448 1.60506,-3.29206 3.257129,-3.31489 1.580883,-0.0443 1.799816,0.72933 1.799816,2.85016 v 3.20474 c 0,0.86499 0,1.08392 -0.341159,1.83474 h 2.529144"
       clip-rule="evenodd"
       clip-path="url(#SVGID_34_)" />
    <path
       style="fill:#156192;fill-opacity:1;fill-rule:evenodd;stroke-width:1.34315"
       id="path161"
       d="m 89.369243,150.78887 c 0,2.16515 -1.727286,3.38204 -2.844783,3.36055 -1.508353,-0.0685 -2.648684,-1.39419 -1.508353,-2.96298 0.292806,-0.42041 1.11884,-0.90394 2.310211,-1.10407 0.268629,-0.0443 1.096007,-0.19878 2.042925,-0.57486 0,0.5292 0,1.28136 0,1.28136 m 2.67286,4.04287 c -0.729328,-1.03825 -0.803201,-1.7246 -0.803201,-2.2538 v -2.82867 c 0,-0.50905 0.0497,-1.14704 -0.167893,-1.68027 -0.705152,-1.9207 -3.913928,-2.16515 -5.786273,-1.76624 -0.705152,0.15312 -1.117498,0.33041 -1.897865,0.70515 l -0.169237,1.21555 c 1.191371,-1.08392 2.456614,-1.41299 3.427709,-1.43582 2.067101,-0.0672 2.772253,0.7535 2.7239,1.41567 -0.0497,1.37001 -2.212162,1.23838 -3.694995,1.50164 -2.163808,0.39757 -3.160422,1.28136 -3.160422,2.60705 0,1.23703 1.19137,2.58555 3.281305,2.71718 1.046311,0.0685 2.308868,-0.41906 3.596945,-1.94219 0.0497,0.92543 0.09671,1.34583 0.341159,1.74475 0.632622,0 1.653413,0 2.308868,0 z"
       clip-rule="evenodd"
       clip-path="url(#SVGID_34_)" />
    <path
       style="fill:#156192;fill-opacity:1;fill-rule:evenodd;stroke-width:1.34315"
       id="path163"
       d="m 106.98863,154.81025 c -0.33981,-0.79649 -0.33981,-1.5688 -0.33981,-1.83205 v -4.13421 c 0,-2.23231 -0.97378,-2.74002 -2.11412,-2.6742 -1.19137,0.0672 -2.45661,0.68635 -3.50292,2.01203 -0.29012,-1.67893 -1.140331,-2.05501 -2.114112,-1.9892 -1.263901,0.0685 -2.357221,0.68635 -3.476062,1.92339 0.02418,-1.01542 -0.04835,-1.48149 -0.21759,-1.76758 -0.585611,0 -1.775639,0 -2.237681,0 0.632622,0.9496 0.582925,2.05501 0.582925,2.21082 v 4.44178 c 0,0.86499 0.02418,1.08392 -0.339816,1.83474 h 2.553321 c -0.366679,-0.7938 -0.341159,-1.54731 -0.341159,-1.83474 v -2.74002 c 0,-1.19405 0.924084,-2.47542 2.091278,-3.00462 1.79713,-0.83946 1.65207,2.29813 1.65207,2.5184 v 3.20744 c 0,0.86095 0.02418,1.10272 -0.341159,1.83205 h 2.554665 c -0.36668,-0.79649 -0.34116,-1.52582 -0.34116,-1.83205 v -2.71988 c 0,-1.19405 0.89991,-2.4969 2.08993,-3.02745 1.79848,-0.84081 1.65342,2.29947 1.65342,2.51975 v 3.22758 c 0,0.83812 0,1.08123 -0.33982,1.83205 h 2.5278"
       clip-rule="evenodd"
       clip-path="url(#SVGID_34_)" />
    <path
       style="fill:#156192;fill-opacity:1;fill-rule:evenodd;stroke-width:1.34315"
       id="path165"
       d="m 117.22878,149.59347 h -3.59695 l 1.79982,-3.93273 1.79713,3.93273 m 5.18051,5.2611 c -0.78037,-0.84081 -1.02348,-0.99258 -1.46,-1.96771 l -4.69161,-10.09911 h -0.36399 l -4.76548,10.3852 c -0.33982,0.77365 -0.53457,1.06109 -1.04631,1.68028 h 1.11749 l 2.01875,-4.4203 h 4.42433 l 2.04158,4.4203 h 2.72524 z"
       clip-rule="evenodd"
       clip-path="url(#SVGID_34_)" />
    <path
       style="fill:#156192;fill-opacity:1;fill-rule:evenodd;stroke-width:1.34315"
       id="path167"
       d="m 125.58717,154.83174 c -0.36399,-0.7938 -0.33981,-1.25987 -0.33981,-1.85489 v -4.79637 c 0,-0.57487 -0.0242,-1.06243 0.33981,-1.83474 h -2.55197 c 0.36533,0.77231 0.34116,1.25987 0.34116,1.83474 v 4.79637 c 0,0.88379 0.0242,1.10273 -0.34116,1.85489 h 2.55197 m -0.14505,-10.76129 c 0,-0.55069 -0.53458,-1.03959 -1.14302,-1.03959 -0.58293,0 -1.11884,0.4889 -1.11884,1.03959 0,0.53054 0.53591,1.01811 1.11884,1.01811 0.60844,0 1.14302,-0.48891 1.14302,-1.01811 z"
       clip-rule="evenodd"
       clip-path="url(#SVGID_34_)" />
    <path
       style="fill:#156192;fill-opacity:1;fill-rule:evenodd;stroke-width:1.34315"
       id="path169"
       d="m 134.68162,146.19128 c -2.8918,-0.48622 -4.32628,0.88379 -5.12814,1.92338 0.0228,-0.99527 -0.051,-1.45865 -0.22161,-1.76758 -0.58159,0 -1.77296,0 -2.235,0 0.63262,0.94961 0.58427,2.05502 0.58427,2.21082 v 4.44179 c 0,0.86498 0.0255,1.08392 -0.34116,1.83473 h 2.55332 c -0.36533,-0.77365 -0.33982,-1.2827 -0.33982,-1.83473 v -2.74002 c 0,-1.41433 1.72595,-4.17584 4.1557,-2.87299 l 0.97244,-1.1954"
       clip-rule="evenodd"
       clip-path="url(#SVGID_34_)" />
    <path
       style="fill:#156192;fill-opacity:1;fill-rule:evenodd;stroke-width:1.34315"
       id="path171"
       d="m 137.57475,154.83174 c -0.36399,-0.77365 -0.34116,-0.99393 -0.34116,-1.87772 v -8.97356 c 0,-0.88245 -0.0228,-1.10406 0.34116,-1.89921 h -2.55197 c 0.36399,0.79515 0.33981,1.01676 0.33981,1.89921 v 8.97356 c 0,0.59501 0.0242,1.05974 -0.33981,1.87772 h 2.55197"
       clip-rule="evenodd"
       clip-path="url(#SVGID_34_)" />
    <path
       style="fill:#156192;fill-opacity:1;fill-rule:evenodd;stroke-width:1.34315"
       id="path173"
       d="m 141.87954,154.83174 c -0.364,-0.7938 -0.34116,-1.25987 -0.34116,-1.85489 v -4.79637 c 0,-0.57487 -0.0228,-1.06243 0.34116,-1.83474 h -2.55198 c 0.36265,0.77231 0.33847,1.25987 0.33847,1.83474 v 4.79637 c 0,0.88379 0.0242,1.10273 -0.33847,1.85489 h 2.55198 m -0.14641,-10.76129 c 0,-0.55069 -0.53457,-1.03959 -1.14167,-1.03959 -0.58293,0 -1.12019,0.4889 -1.12019,1.03959 0,0.53054 0.53726,1.01811 1.12019,1.01811 0.6071,0 1.14167,-0.48891 1.14167,-1.01811 z"
       clip-rule="evenodd"
       clip-path="url(#SVGID_34_)" />
    <path
       style="fill:#156192;fill-opacity:1;fill-rule:evenodd;stroke-width:1.34315"
       id="path175"
       d="m 153.08809,154.83174 c -0.33982,-0.7938 -0.3143,-1.5688 -0.3143,-1.83474 v -4.11003 c 0,-1.23703 -0.17058,-1.50298 -0.77768,-2.01069 -0.70649,-0.5977 -2.01875,-0.70783 -2.62719,-0.68634 -1.28808,0.0873 -2.40692,0.68634 -3.52576,1.92338 0.0255,-1.01542 -0.047,-1.48149 -0.21893,-1.76758 -0.58293,0 -1.77296,0 -2.235,0 0.63128,0.94961 0.58427,2.05501 0.58427,2.21082 v 4.44178 c 0,0.86499 0.0215,1.08392 -0.34116,1.83474 h 2.55198 c -0.36399,-0.7938 -0.34116,-1.5473 -0.34116,-1.83474 v -2.74001 c 0,-1.52448 1.60506,-3.29206 3.25847,-3.31489 1.58088,-0.0443 1.79847,0.72933 1.79847,2.85016 v 3.20474 c 0,0.86499 0,1.08392 -0.33981,1.83474 h 2.5278"
       clip-rule="evenodd"
       clip-path="url(#SVGID_34_)" />
    <path
       style="fill:#156192;fill-opacity:1;fill-rule:evenodd;stroke-width:1.34315"
       id="path177"
       d="m 161.66542,149.06293 h -4.78832 c 0.29147,-1.2357 1.16585,-2.20948 2.60033,-2.29678 0.55875,-0.0457 2.06711,0.0215 2.18799,2.29678 m 2.23634,0.6662 c -0.33982,-3.38339 -3.03954,-3.75678 -4.71579,-3.57949 -3.66947,0.41772 -4.93472,3.29205 -4.64325,5.05963 0.17058,0.88379 0.63262,2.05502 1.77429,2.89448 1.02079,0.72933 3.98646,1.87772 6.73319,-0.17461 l -0.36399,-0.39891 c -0.70515,0.61919 -1.94487,0.86096 -2.77091,0.83947 -1.82265,-0.0887 -3.45188,-1.7246 -3.1846,-4.64057 z"
       clip-rule="evenodd"
       clip-path="url(#SVGID_34_)" />
    <path
       style="fill:#156192;fill-opacity:1;fill-rule:evenodd;stroke-width:1.34315"
       id="path179"
       d="m 172.22926,152.55511 c 0.24446,-1.76624 -2.79508,-2.78435 -3.742,-3.11342 -1.5097,-0.55337 -2.04561,-0.95094 -1.99457,-1.70311 0.0255,-0.57621 0.72798,-0.97243 1.55536,-0.99392 0.7535,-0.0242 2.08993,0.22027 3.57545,1.39015 l -0.17192,-1.19271 c -1.65475,-0.81663 -2.99118,-0.83947 -3.45188,-0.81663 -1.82265,0.0658 -3.01537,0.81663 -3.1846,1.7031 -0.41235,1.90056 1.48283,2.60571 3.01536,3.15908 4.3021,1.5688 2.21082,3.49353 0.0967,3.49353 -1.57954,0 -3.0879,-1.05975 -3.59964,-1.50164 l 0.14775,1.17122 c 1.28942,0.74948 2.52646,0.92543 3.35518,0.94961 2.18798,0.0416 4.20405,-1.01945 4.3988,-2.54526"
       clip-rule="evenodd"
       clip-path="url(#SVGID_34_)" />
  </g>
</svg>
