<?xml version="1.0" encoding="UTF-8" standalone="no"?>
<!-- Created with Inkscape (http://www.inkscape.org/) -->
<svg
   xmlns:svg="http://www.w3.org/2000/svg"
   xmlns="http://www.w3.org/2000/svg"
   version="1.0"
   width="817.14288"
   height="608.57141"
   id="svg2490">
  <defs
     id="defs2492">
    <clipPath
       id="clipPath69">
      <path
         d="M 814.016,1159.37 L 661.454,1159.37 L 661.454,1047.957 L 814.016,1047.957 L 814.016,1159.37 z"
         id="path71" />
    </clipPath>
    <clipPath
       id="clipPath91">
      <path
         d="M 814.016,1159.37 L 661.454,1159.37 L 661.454,1047.957 L 814.016,1047.957 L 814.016,1159.37 z"
         id="path93" />
    </clipPath>
  </defs>
  <g
     transform="translate(237.14285,-100.93361)"
     id="layer1">
    <g
       transform="matrix(5.1828311,0,0,-5.1828311,-3654.4133,6124.8126)"
       id="g65">
      <g
         clip-path="url(#clipPath69)"
         id="g67">
        <path
           d="M 677.361,1072.165 C 677.361,1072.165 677.837,1067.216 680.662,1067.688 C 683.487,1068.159 683.247,1070.984 682.78,1072.871 C 682.313,1074.757 687.502,1108.228 689.855,1117.893 C 692.208,1127.557 699.043,1145.231 703.288,1149.948 C 707.533,1154.665 706.826,1158.669 704.232,1159.14 C 701.638,1159.612 700.464,1159.853 697.869,1154.665 C 696.263,1151.441 690.528,1134.279 688.676,1127.793 C 687.734,1124.496 680.898,1093.61 680.191,1091.022 C 679.483,1088.431 679.012,1091.022 678.303,1093.616 C 677.596,1096.209 674.526,1115.219 674.53,1118.128 C 674.536,1122.137 672.531,1125.532 670.29,1121.43 C 668.875,1118.836 668.404,1116.944 666.988,1114.119 C 665.573,1111.294 662.512,1100.686 661.805,1099.036 C 661.097,1097.384 661.485,1095.896 662.748,1095.267 C 664.163,1094.559 666.281,1095.498 666.516,1097.384 C 666.752,1099.271 670.29,1107.284 670.29,1107.284 C 670.29,1107.284 671.233,1107.054 671.469,1104.931 C 671.705,1102.807 676.888,1073.102 677.361,1072.165"
           id="path73"
           style="fill:#df163b;fill-opacity:1;fill-rule:evenodd;stroke:none" />
      </g>
    </g>
    <path
       d="M -58.259413,352.93698 C -58.259413,352.93698 -39.922563,349.29863 -42.363673,335.85955 C -44.809973,322.4101 -54.584783,318.74584 -60.700533,322.4101 C -66.816273,326.07436 -72.926823,334.63122 -70.480533,340.74696 C -68.034233,346.85752 -66.816273,352.93698 -58.259413,352.93698"
       id="path75"
       style="fill:#df163b;fill-opacity:1;fill-rule:evenodd;stroke:none" />
    <path
       d="M -72.895733,390.83902 C -72.895733,390.83902 -64.157473,374.31615 -55.807933,377.38957 C -46.007203,380.99164 -37.476263,389.58477 -44.809973,403.02904 C -52.143673,416.47848 -55.807933,425.05089 -54.584783,434.81016 C -53.366823,444.56943 -52.864083,475.72343 -60.192613,481.83398 C -67.531503,487.94973 -68.687273,489.1936 -77.788323,481.23796 C -90.304863,470.28664 -88.791473,448.20259 -83.904063,442.12313 C -79.011473,436.03849 -79.011473,425.03534 -76.565173,417.69645 C -74.124063,410.36274 -75.476783,395.8249 -72.895733,390.83902"
       id="path77"
       style="fill:#df163b;fill-opacity:1;fill-rule:evenodd;stroke:none" />
    <path
       d="M -33.812003,383.50013 C -33.812003,383.50013 -26.499023,366.38642 -19.170503,360.27068 C -11.831613,354.16531 -16.724203,346.85752 -9.390503,344.41122 C -2.0567929,341.96492 -0.8284629,340.74696 6.5052471,345.63437 C 13.838947,350.52178 19.923592,355.38846 21.151923,362.72216 C 22.369888,370.05587 21.172654,388.38754 7.7232071,390.83902 C -5.7158729,393.28013 -6.9442029,395.69533 -5.7158729,406.69848 C -4.4979129,417.69645 1.5867371,451.89795 -19.170503,448.22851 C -39.922563,444.56943 -35.029963,438.4796 -35.029963,425.03534 C -35.029963,411.58589 -37.476263,390.83902 -33.812003,383.50013"
       id="path79"
       style="fill:#df163b;fill-opacity:1;fill-rule:evenodd;stroke:none" />
    <path
       d="M 46.812119,327.29751 C 46.812119,327.29751 59.012504,312.6301 70.015654,317.52269 C 81.013621,322.4101 81.013621,338.33176 72.456767,346.85752 C 63.899913,355.38846 54.119911,390.18598 54.119911,397.51451 C 54.119911,404.84821 55.394888,415.25534 60.261566,409.14996 C 65.123061,403.02904 71.041855,379.44716 73.35858,373.75641 C 76.307611,366.50563 79.790473,345.63437 83.459918,339.52381 C 87.124179,333.41325 96.904181,326.07436 103.01992,332.1901 C 109.1253,338.29548 112.77401,346.82642 110.32771,356.60642 C 107.88142,366.38642 100.57363,414.03737 101.79677,421.36589 C 103.01992,428.69442 111.55086,425.03534 117.66142,421.36589 C 123.7668,417.69645 176.30515,378.60754 181.19256,376.16642 C 186.08516,373.72013 212.83375,358.67437 216.61721,355.38846 C 222.19394,350.55287 219.92386,333.6413 219.92386,325.08962 C 219.92386,316.53277 222.73296,308.93992 217.84554,307.73751 C 212.94777,306.54027 208.06036,310.1838 206.84239,318.74584 C 205.61925,327.29751 197.08831,346.82642 195.86516,351.71901 C 194.64201,356.60642 190.71861,366.00289 177.53348,368.83272 C 160.41459,372.50216 159.19145,345.63437 161.63774,337.07751 C 164.07886,328.52066 168.97145,307.7686 168.97145,297.98342 C 168.97145,288.20342 169.19949,284.8864 174.0869,277.5527 C 178.96913,270.21381 179.96942,267.42545 190.97775,268.65378 C 201.97053,269.87174 211.72462,271.1208 215.39407,262.56395 C 219.06869,254.0071 227.62037,246.67339 233.73092,247.89654 C 239.85185,249.1145 249.59039,250.36357 250.81354,258.89969 C 252.04705,267.42545 248.37242,310.1838 249.59039,316.29436 C 250.81354,322.4101 249.59039,326.07436 256.92928,326.07436 C 264.26298,326.07436 274.06372,321.18695 281.37669,317.52269 C 288.6793,313.84806 298.4593,310.20453 305.80337,304.09916 C 313.13708,297.98342 327.77339,289.43175 336.32507,290.6549 C 344.87674,291.87286 353.44914,297.96269 350.99766,308.96584 C 348.55655,319.9638 358.35728,334.63122 326.57098,334.63122 C 300.91596,334.63122 298.4593,340.74696 289.90245,345.63437 C 281.34559,350.52178 195.86516,400.58792 172.63571,414.03737 C 154.63055,424.44968 155.5531,429.94866 148.21939,434.81016 C 140.88569,439.67684 105.49732,460.92126 99.39194,468.25497 C 93.2762,475.59904 94.457885,504.46223 93.23992,520.32687 C 92.011589,536.18115 92.011589,583.8321 94.457885,592.39414 C 96.904181,600.95099 102.98883,618.03878 109.09938,625.37249 C 115.21512,632.69583 116.46419,660.79714 99.350478,660.79714 C 82.23677,660.79714 82.23677,658.35084 77.34936,633.92416 C 72.456767,609.50784 66.351392,594.80934 68.792506,582.60895 C 71.238802,570.41375 67.641917,554.56465 67.698928,548.61476 C 67.75594,542.02738 62.676765,522.76798 63.899913,515.43428 C 65.123061,508.10057 72.379025,481.95319 62.599023,488.06375 C 52.824203,494.16912 22.395802,523.9704 13.838947,531.30929 C 5.2820971,538.63263 -15.469963,565.50043 -27.696263,575.28043 C -39.922563,585.05525 -59.451463,613.15656 -74.124063,624.14934 C -88.791473,635.15249 -116.87723,665.71047 -127.8752,651.04305 C -138.88353,636.36528 -121.73873,629.03157 -118.10038,622.92619 C -114.45685,616.81564 -74.144793,585.03452 -65.587933,576.49839 C -57.031083,567.96227 -0.8077329,511.76483 13.838947,501.99001 C 28.480446,492.20483 46.838033,467.7937 61.484714,460.45999 C 71.74672,455.28752 66.372124,447.00536 59.038418,450.67999 C 51.704712,454.34425 40.701561,460.45999 34.591004,451.89795 C 28.480446,443.34628 12.595067,425.03534 27.257298,383.50013 C 41.92471,341.96492 37.0373,337.07751 46.812119,327.29751"
       id="path81"
       style="fill:#df163b;fill-opacity:1;fill-rule:evenodd;stroke:none" />
    <path
       d="M 144.54995,294.31916 C 144.54995,294.31916 134.47452,298.49134 129.87735,311.40695 C 127.42587,318.32085 126.21309,327.29751 123.7668,333.41325 C 121.33086,339.52381 122.54883,376.16642 122.54883,376.16642 C 122.54883,376.16642 124.29026,387.33543 137.21624,383.50013 C 144.63287,381.30261 153.05497,381.05383 151.85774,373.72013 C 150.66051,366.38642 149.46845,349.29863 150.66051,341.96492 C 151.85774,334.63122 154.29885,326.07436 154.29885,326.07436 L 159.19145,315.0764 C 159.19145,315.0764 168.95072,307.11557 159.19145,299.21175 C 154.43879,295.36091 148.05354,292.83168 144.54995,294.31916"
       id="path83"
       style="fill:#df163b;fill-opacity:1;fill-rule:evenodd;stroke:none" />
    <path
       d="M 166.53033,250.34284 C 166.52515,250.34284 175.08201,247.89654 179.96942,243.00395 C 184.85683,238.11654 184.71171,231.95415 179.96942,225.89024 C 171.41774,214.91818 151.98731,226.02499 153.08089,230.77765 C 156.75033,246.67339 154.29885,247.89654 166.53033,250.34284"
       id="path85"
       style="fill:#df163b;fill-opacity:1;fill-rule:evenodd;stroke:none" />
    <g
       transform="matrix(5.1828311,0,0,-5.1828311,-3654.4133,6124.8126)"
       id="g87">
      <g
         clip-path="url(#clipPath91)"
         id="g89">
        <path
           d="M 755.476,1048.027 C 760.775,1049.029 813.854,1059.561 814.016,1078.485 L 813.997,1079.049 C 813.997,1092.125 786.203,1100.459 785.02,1100.807 C 785.02,1100.807 784.75,1100.881 784.702,1100.881 C 784.365,1100.881 784.093,1100.608 784.093,1100.272 C 784.093,1100.073 784.187,1099.896 784.334,1099.785 L 784.556,1099.638 C 784.755,1099.537 804.21,1089.557 804.21,1079.894 C 804.21,1079.792 804.208,1079.688 804.204,1079.585 L 804.204,1079.586 L 804.192,1079.247 L 804.138,1078.426 C 801.698,1061.988 759.053,1050.307 755.143,1049.27 L 754.757,1049.161 C 754.531,1049.066 754.373,1048.843 754.373,1048.584 C 754.373,1048.239 754.654,1047.958 755,1047.958 L 755.476,1048.027"
           id="path95"
           style="fill:#ffffff;fill-opacity:1;fill-rule:evenodd;stroke:none" />
        <path
           d="M 760.726,1050.019 C 760.726,1050.019 839.576,1070.754 787.555,1098.991 C 787.126,1099.224 859.929,1075.062 760.726,1050.019"
           id="path97"
           style="fill:#0060a9;fill-opacity:1;fill-rule:evenodd;stroke:none" />
      </g>
    </g>
    <path
       d="M 158.48658,551.25282 C 157.17532,549.6306 156.50156,547.12211 156.50156,543.79473 C 156.50156,541.34325 156.86954,538.3994 157.58477,535.03056 C 160.93806,519.23329 165.62334,514.26296 176.8649,514.57393 C 179.84503,514.65685 181.90261,515.47056 183.14649,517.0565 C 185.34401,519.86042 185.56687,525.46306 183.80471,533.72449 C 180.17155,550.84856 174.85914,554.28996 167.46324,554.28996 C 163.08375,554.28996 160.1399,553.30004 158.48658,551.25282 z M 169.48973,467.01627 L 154.96744,467.01627 C 141.77713,467.01627 139.51224,478.98861 139.49669,479.10263 C 139.50705,479.02489 139.36193,479.68311 139.36193,479.68311 C 131.23525,515.88518 122.04091,556.44602 120.60527,561.70659 C 118.96231,567.73423 115.61938,569.4342 115.47945,569.50157 L 114.20965,570.12351 L 114.48953,571.52288 L 115.38097,575.50847 L 149.13675,575.33744 C 149.13675,575.33744 149.62912,572.44024 149.85717,571.06679 C 156.67259,576.41547 168.58274,576.42583 174.71402,576.42583 C 195.79778,576.42583 208.15365,566.47998 212.51241,546.01816 L 216.18704,528.67641 C 218.88211,515.98366 217.80408,506.87224 212.89594,500.80833 C 208.25731,495.08648 200.42087,492.30849 188.92016,492.30849 C 181.74194,492.30849 173.11253,493.03927 166.1468,496.71908 C 167.68092,490.49968 173.51161,467.01627 173.51161,467.01627 L 169.48973,467.01627"
       id="path99"
       style="fill:#ffffff;fill-opacity:1;fill-rule:nonzero;stroke:none" />
    <path
       d="M 263.47519,466.83487 L 247.07671,466.83487 C 235.16657,466.83487 231.47639,479.69348 231.44011,479.82305 C 231.42456,479.89042 231.40902,479.94225 210.42891,573.17102 L 209.93654,575.36335 L 228.99382,575.36335 C 238.50431,575.36335 242.84234,567.6202 243.80635,563.53095 C 243.80635,563.5154 265.72972,466.83487 265.72972,466.83487 L 263.47519,466.83487"
       id="path101"
       style="fill:#ffffff;fill-opacity:1;fill-rule:nonzero;stroke:none" />
    <path
       d="M 397.40473,514.48064 C 401.45252,514.48064 403.65004,514.95746 404.51039,516.01476 C 404.99758,516.61078 405.24635,517.68363 405.24635,519.11927 C 405.24635,519.11927 405.11678,520.2284 404.97685,521.27015 C 402.42689,521.27015 385.20953,521.27015 381.36387,521.27015 C 383.15194,516.57968 386.22018,514.48064 397.40473,514.48064 z M 348.68093,533.30468 L 348.67575,533.30468 C 345.13588,549.98303 345.83038,559.82004 351.01321,566.21566 C 356.07683,572.47652 365.40593,575.26488 381.24466,575.26488 C 381.24466,575.26488 409.20085,575.17159 409.20085,575.17159 C 409.20085,575.17159 409.16976,575.16641 409.16457,575.16641 C 410.94228,575.41 414.85014,575.23897 418.64397,573.52345 C 422.77987,571.65245 428.17001,567.3196 430.31571,557.3582 L 431.15014,553.53845 L 384.44765,553.64211 C 381.3535,553.64211 379.42031,553.11864 378.54959,552.04061 C 377.90174,551.24764 377.57522,549.84828 377.57522,547.8788 C 377.57522,546.28249 377.87582,544.03314 378.38374,541.30179 C 381.24985,541.30179 433.80375,541.30179 433.80375,541.30179 L 435.21348,534.61075 C 436.60766,528.08039 437.27625,522.63841 437.27625,517.98941 C 437.27625,510.98741 435.7214,505.61281 432.50804,501.54947 C 427.48588,495.19532 418.80464,492.31885 403.46346,491.94051 C 357.73016,490.764 354.89515,504.09943 348.68093,533.30468"
       id="path103"
       style="fill:#ffffff;fill-opacity:1;fill-rule:nonzero;stroke:none" />
    <path
       d="M 351.21534,493.11701 L 332.16325,493.11701 C 324.31645,493.11701 320.68846,500.73577 319.77629,505.23447 L 312.71727,537.3732 C 308.69539,552.19092 304.45065,554.08265 289.71068,553.7354 C 287.78267,553.68875 286.49214,553.23267 285.77173,552.33085 C 284.62633,550.90557 284.43456,547.79588 285.25345,543.5615 L 295.98191,493.11701 L 275.49418,493.11701 C 266.22728,493.11701 262.78069,503.05768 262.63039,503.48267 C 262.59411,503.64334 262.55265,503.76773 252.99032,548.08611 C 250.99493,557.48777 251.9123,564.38612 255.78905,569.16987 C 259.61398,573.89143 266.0096,576.18742 275.33869,576.18742 C 282.34588,576.18742 295.98709,576.18742 305.71008,570.39302 C 305.43021,571.69391 304.65797,575.33226 304.65797,575.33226 L 340.97925,575.33226 L 342.16093,569.96284 L 340.87559,569.3409 C 340.52316,569.16987 337.45492,567.53728 338.48631,562.86237 C 338.49667,562.852 353.43877,493.11701 353.43877,493.11701 L 351.21534,493.11701"
       id="path105"
       style="fill:#ffffff;fill-opacity:1;fill-rule:nonzero;stroke:none" />
    <path
       d="M 308.55027,572.18628 L 339.53324,572.18628 C 339.53324,572.18628 333.78548,569.56377 335.41807,562.18341 C 336.48055,557.46186 349.54128,496.26817 349.54128,496.26817 C 349.54128,496.26817 339.55397,496.26817 332.16325,496.26817 C 324.77772,496.26817 322.86007,505.85641 322.86007,505.85641 L 315.79069,538.04697 C 311.18315,555.05702 304.96375,557.24936 289.63294,556.88138 C 281.54772,556.67925 280.74439,550.33546 282.1593,542.97066 L 292.0896,496.26817 C 292.0896,496.26817 282.6102,496.26817 275.49418,496.26817 C 268.36778,496.26817 265.62088,504.48296 265.62088,504.48296 L 256.06893,548.74952 C 252.59643,565.10653 258.55669,573.04145 275.33869,573.04145 C 286.77202,573.04145 304.34181,572.34695 310.88773,561.12612 L 308.55027,572.18628"
       id="path107"
       style="fill:#0060a9;fill-opacity:1;fill-rule:nonzero;stroke:none" />
    <path
       d="M 176.95819,511.42795 C 163.80935,511.06515 158.16525,517.16016 154.50098,534.37753 C 151.37055,549.1175 154.31958,557.44112 167.46324,557.44112 C 178.01031,557.44112 183.48337,550.42875 186.88331,534.37753 C 189.59912,521.65368 188.52109,511.75447 176.95819,511.42795 z M 160.88623,504.83539 C 167.30258,496.01421 180.14045,495.45446 188.92016,495.45446 C 209.7396,495.45446 218.01658,504.8924 213.10844,528.01819 L 209.42863,545.36513 C 205.15797,565.46415 193.07161,573.27467 174.71402,573.27467 C 165.14134,573.27467 151.88365,572.73048 148.6081,564.72818 C 148.36969,564.12698 148.095,562.1575 148.05354,562.8209 L 146.47278,572.20701 L 116.81662,572.35213 C 116.81662,572.35213 121.54854,570.20125 123.64241,562.53585 C 125.73627,554.86007 142.59602,479.6572 142.59602,479.6572 C 142.59602,479.6572 144.27008,470.16743 154.96744,470.16743 C 165.64407,470.16743 169.48973,470.16743 169.48973,470.16743 L 160.88623,504.83539"
       id="path109"
       style="fill:#0060a9;fill-opacity:1;fill-rule:nonzero;stroke:none" />
    <path
       d="M 240.74329,562.8209 C 240.74329,562.8209 238.58205,572.22256 228.99382,572.22256 C 219.40558,572.22256 213.8755,572.22256 213.8755,572.22256 L 234.47207,480.66785 C 234.47207,480.66785 237.48848,469.98085 247.07671,469.98085 C 256.6494,469.98085 261.79077,469.98085 261.79077,469.98085 L 240.74329,562.8209"
       id="path111"
       style="fill:#0060a9;fill-opacity:1;fill-rule:nonzero;stroke:none" />
    <path
       d="M 384.44765,556.7829 C 374.18565,556.7829 372.9003,551.45495 375.73013,538.15581 L 431.24862,538.15581 L 432.13488,533.9629 C 438.70671,503.0214 428.8075,495.71879 403.38572,495.08648 C 360.36304,493.98254 357.96857,504.75765 351.74917,533.9629 C 345.72672,562.3078 351.32936,572.11372 381.24466,572.11372 C 392.23745,572.11372 409.1853,572.02043 409.1853,572.02043 C 408.44416,572.02043 423.41736,574.40971 427.23711,556.6948 C 427.23711,556.6948 392.10269,556.7829 384.44765,556.7829 z M 377.0984,524.42131 C 379.50323,514.45472 383.437,511.32948 397.40473,511.32948 C 405.79055,511.32948 410.13895,513.14865 407.74966,524.42131 L 377.0984,524.42131"
       id="path113"
       style="fill:#0060a9;fill-opacity:1;fill-rule:nonzero;stroke:none" />
  </g>
</svg>
