<svg xmlns="http://www.w3.org/2000/svg" width="320" height="59" viewBox="0 0 1280 236"><path fill="#747678" d="m27.046 62.228 73.994 144.727 73.994-144.727h26.642l-87.923 169.547h-25.83L0 62.228Z"/><path fill="#747678" d="M210.2135 90.51891h24.215v141.25601h-24.215z"/><path fill="#747678" d="M417.6066 190.00421c0 26.838-26.435 46.009-74.463 46.009-33.094 0-62.354-9.686-84.35-28.655l15.135-17.152c19.171 17.152 41.771 24.82 70.225 24.82 31.48 0 48.834-8.273 48.834-23.005 0-14.529-17.758-18.363-53.274-21.389-38.946-3.23-75.673-11.907-75.673-40.763 0-28.05 32.489-43.588 73.05-43.588 30.672 0 56.705 9.08 73.655 23.408l-15.336 16.547c-14.529-12.713-34.507-18.766-57.916-18.968-22.399-.202-49.036 5.247-49.036 20.987 0 14.932 23.61 17.555 54.485 19.977 43.991 3.431 74.664 12.31 74.664 41.772"/><path fill="#747678" d="m574.3229 217.48801-7.736 14.287h26.234l13.89-26.32z"/><path fill="#747678" d="M1109.3606 210.58741v21.188h-140.65v-141.256h138.633v21.188h-114.62v37.735h96.458v21.19h-96.458v39.955Z"/><path fill="#747678" d="M1280.0003 111.7074h-64.373v120.068h-24.215v-120.068h-63.969v-21.188h152.557Z"/><path fill="#747678" d="m494.9483 220.27631 24.215-11.874v-96.695h64.373v-21.188h-152.557v21.188h63.969Z"/><path fill="#747678" d="M917.6795 65.15442v105.275c0 26.839-11.906 43.992-41.771 43.992-16.263 0-26.46-4.1-34.145-12.677l-21.303 10.447c11.121 14.78 28.567 23.821 55.448 23.821 45.605 0 65.987-28.048 65.987-63.766v-119.993Z"/><path fill="#747678" d="M745.9829 231.77551h-26.435l-63.363-120.068-21.008 39.808-34.219 16.779 42.11-77.775h26.636l54.457 100.844Z"/><path fill="#c60c30" d="m664.1022 148.83174-169.154 82.944h11.271l146.03-54.253c7.761-2.883 15.735-4.89 23.789-6.073z"/><path fill="#c60c30" d="m1009.7693 0-206.041 84.684c-20.987 8.559-37.316 27.754-44.212 51.971-17.39-11.005-37.884-13.227-56.627-6.411l24.244 44.895c19.987 5.93 38.711 17.131 53.989 33.375l5.477-2.686c3.287-52.82 33.761-100.523 75.754-122.896L1018.0163 0Z"/></svg>