<svg height="145.187567" viewBox="0 0 1964 414" width="688.764209" xmlns="http://www.w3.org/2000/svg"><g fill="none" fill-rule="evenodd"><g fill-rule="nonzero" transform="translate(50 50)"><g fill="#34b233"><path d="m116.14 307.59c-19.4266667-37.933333-39.16-82.353333-59.2-133.26s-39.02-106.35-56.94-166.33h90c3.7866667 14.8133333 8.27 30.8466667 13.45 48.1s10.533333 34.71 16.06 52.37c5.5 17.68 11.02 34.873333 16.56 51.58s11 31.886667 16.38 45.54c4.913333-13.673333 10.246667-28.866667 16-45.58s11.373333-33.906667 16.86-51.58c5.526667-17.58 10.86-35.0366667 16-52.37s9.62-33.3666667 13.44-48.1h87.8c-17.926667 60-36.88 115.443333-56.86 166.33s-39.703333 95.32-59.17 133.3z"/><path d="m319.01 8h84.84v299.6h-84.84z"/><path d="m527.88 307.59c-19.4-37.94-39.123333-82.363333-59.17-133.27s-38.993333-106.3466667-56.84-166.32h90c3.826667 14.8133333 8.32 30.8466667 13.48 48.1 5.17 17.32 10.45 34.79 16 52.37s11.08 34.88 16.6 51.58 11 31.91 16.31 45.58c4.926667-13.673333 10.26-28.866667 16-45.58s11.366667-33.906667 16.88-51.58c5.48-17.58 10.88-35.05 16-52.37s9.66-33.29 13.45-48.1h87.75c-17.84 60-36.773333 115.443333-56.8 166.33s-39.763333 95.306667-59.21 133.26z"/><path d="m832.79.02c25 0 46 2.86 62.63 8.55s30.16 13.88 40.16 24.47c10.226066 10.9527753 17.584535 24.2646656 21.42 38.75 4.18 15.18 6.26 32.086667 6.240143 50.72v176.58c-12.140143 2.666667-29.063476 5.786667-50.770143 9.36-21.63 3.65-47.77 5.37-78.51 5.37-19.43 0-37-1.64-52.73-5.09s-29.35-9-40.75-16.77c-11.29641-7.653211-20.341902-18.186721-26.2-30.51-6.09-12.54-9-27.89-9-46.13 0-17.45 3.43-32.3 10.5-44.4 6.791237-11.91558 16.493747-21.913982 28.2-29.06 12.497133-7.488036 26.17478-12.80017 40.45-15.71 15.549181-3.222342 31.390499-4.824236 47.27-4.78 9.78487-.055068 19.565633.415611 29.3 1.41 7.010305.687237 13.955286 1.92777 20.77 3.71v-8c0-14.43-4.37-26-13-34.75-8.8-8.74-24-13.13-45.65-13.13-14.298462-.0021374-28.577471 1.0540814-42.72 3.16-14.073333 2.1133333-26.216667 5.0533333-36.43 8.82l-10.8-68.36c4.94-1.49 11.09-3.1 18.5-4.82s15.43-3.21 24.23-4.55 17.9-2.5 27.59-3.44 19.49-1.42 29.33-1.42m6.84 248.34c8.32 0 16.31-.17 24-.58 6.081548-.228851 12.146708-.779622 18.17-1.65v-64.39c-3.41-.77-8.54-1.48-15.33-2.27-6.250338-.735118-12.536693-1.122381-18.83-1.16-7.517127-.024015-15.027375.457068-22.48 1.44-6.437839.752729-12.7006 2.595713-18.52 5.45-5.075311 2.385396-9.3989 6.117519-12.5 10.79-3.06 4.54-4.6 10.27-4.6 17.1 0 13.25 4.49 22.48 13.39 27.59s21.12 7.7 36.67 7.7z"/><path d="m1311.35 164.67c-.04971 68.549875-55.65675 124.082303-124.20663 124.03999-68.54988-.04236-124.08829-55.64343-124.05334-124.193315.03498-68.5498846 55.63008-124.0942691 124.17997-124.0666853 68.48 0 124.08 55.6800103 124.08 124.2200103"/></g><path d="m1249.43 112.34c-.08827 16.461662-13.49099 29.742225-29.95277 29.679998-16.46178-.062666-29.76335-13.44453-29.7268-29.906387.03669-16.4618584 13.39767-29.7844078 29.85957-29.7737218 7.94665-.0215696 15.57146 3.1379826 21.17368 8.7740173 5.60221 5.6360346 8.71582 13.2797165 8.64632 21.2260935" fill="#fff"/><path d="m1587.55001 164.67c-.00553 68.596685-55.61666 124.2-124.21334 124.2-68.59669 0-124.20667-55.609982-124.20667-124.206667 0-68.5966851 55.60332-124.2078101 124.2-124.2133475 32.95007-.0159124 64.55517 13.0663997 87.85439 36.365622 23.29922 23.2992225 36.38154 54.9043205 36.36562 87.8543925" fill="#fff"/><path d="m1463.33 292.64c-70.48 0-127.91-57.36-127.91-128s57.43-127.89 127.91-127.89 128 57.38 128 127.89c-.03311 70.67873-57.32127 127.966893-128 128m0-248.37c-66.47331.0055245-120.36 53.8933608-120.36 120.366669 0 66.473307 53.88003 120.364126 120.35334 120.373329 66.47331.009204 120.37009-53.866692 120.38666-120.339998-.05512-66.4644299-53.91558-120.3338342-120.38-120.4z" fill="#a4a3a6"/><path d="m1525.70055 112.34c-.05026 16.4953-13.44509 29.836419-29.94046 29.819865-16.49537-.016586-29.86337-13.384589-29.87995-29.879956-.01656-16.4953661 13.32456-29.8901991 29.81986-29.9404564 7.97119-.0477154 15.62988 3.0974892 21.26647 8.7340766s8.78179 13.2952788 8.73408 21.2664708" fill="#a4a3a6"/><path d="m1863.67007 164.67c-.03873 68.550516-55.62953 124.096551-124.18005 124.07999-68.55053-.016569-124.11447-55.589463-124.12-124.13999-.00553-68.5505274 55.54946-124.1323812 124.09998-124.1600489 32.95231-.0291799 64.56308 13.0495 87.86201 36.3521841 23.29893 23.3026838 36.37252 54.9155638 36.33806 87.8678648" fill="#d52b1e"/><path d="m1801.69 112.34c-.0885 16.475941-13.51364 29.762188-29.98961 29.679727-16.47597-.083232-29.76683-13.503817-29.68997-29.979815.07753-16.4759984 13.49356-29.7714539 29.96958-29.7001994 7.93092-.0027876 15.53363 3.1662816 21.11434 8.8014584 5.5807 5.6351769 8.67577 13.268315 8.59566 21.198829" fill="#fff"/></g><path d="m0 0h1964v414h-1964z"/></g></svg>