<?xml version="1.0" encoding="UTF-8" standalone="no"?>
<svg
   xmlns:dc="http://purl.org/dc/elements/1.1/"
   xmlns:cc="http://creativecommons.org/ns#"
   xmlns:rdf="http://www.w3.org/1999/02/22-rdf-syntax-ns#"
   xmlns:svg="http://www.w3.org/2000/svg"
   xmlns="http://www.w3.org/2000/svg"
   width="500"
   height="70"
   viewBox="0 0 132.29166 18.520834"
   version="1.1"
   id="svg8">
  <defs
     id="defs2" />
  <metadata
     id="metadata5">
    <rdf:RDF>
      <cc:Work
         rdf:about="">
        <dc:format>image/svg+xml</dc:format>
        <dc:type
           rdf:resource="http://purl.org/dc/dcmitype/StillImage" />
        <dc:title></dc:title>
      </cc:Work>
    </rdf:RDF>
  </metadata>
  <g
     id="layer1">
    <path
       style="fill:#1d3d56;fill-opacity:1;stroke:none;stroke-width:0.697424;stroke-linejoin:round"
       d="m 123.71534,12.726299 -2.79975,3.438221 h 10.85798 v -3.438221 z"
       id="path1064" />
    <path
       style="fill:#061a13;fill-opacity:1;stroke:none;stroke-width:0.697424;stroke-linejoin:round"
       d="m 117.84774,12.726299 -2.79975,3.438221 h 3.83082 l 2.80004,-3.438221 z"
       id="path1062" />
    <path
       style="fill:#009540;fill-opacity:1;stroke:none;stroke-width:0.697424;stroke-linejoin:round"
       d="m 104.11765,12.726299 -2.79976,3.438221 h 11.69332 l 2.80004,-3.438221 z"
       id="path1060" />
    <path
       style="fill:#e11b2b;fill-opacity:1;stroke:none;stroke-width:0.697424;stroke-linejoin:round"
       d="m 84.790897,12.726299 -2.79975,3.438221 H 99.28112 l 2.80004,-3.438221 z"
       id="path1058" />
    <path
       style="fill:#fd223a;fill-opacity:1;stroke:none;stroke-width:0.697424;stroke-linejoin:round"
       d="m 79.748095,12.726299 -2.800037,3.438221 h 3.006028 l 2.800031,-3.438221 z"
       id="path1056" />
    <path
       style="fill:#fd223a;fill-opacity:1;stroke:none;stroke-width:0.697424;stroke-linejoin:round"
       d="m 76.29221,12.726299 -2.799464,3.438221 h 1.418538 l 2.800037,-3.438221 z"
       id="path1054" />
    <path
       style="fill:#959ca2;fill-opacity:1;stroke:none;stroke-width:0.697424;stroke-linejoin:round"
       d="m 60.991437,12.726299 -2.79975,3.438221 h 13.263992 l 2.800037,-3.438221 z"
       id="path1052" />
    <path
       style="fill:#062036;fill-opacity:1;stroke:none;stroke-width:0.697424;stroke-linejoin:round"
       d="m 57.595668,12.726299 -2.800035,3.438221 h 1.359274 l 2.799756,-3.438221 z"
       id="path1050" />
    <path
       style="fill:#062036;fill-opacity:1;stroke:none;stroke-width:0.697424;stroke-linejoin:round"
       d="m 54.171124,12.726299 -2.799752,3.438221 h 1.387483 l 2.799752,-3.438221 z"
       id="path1048" />
    <path
       style="fill:#062036;fill-opacity:1;stroke:none;stroke-width:0.697424;stroke-linejoin:round"
       d="m 39.548424,12.726299 -2.799752,3.438221 h 12.585637 l 2.800036,-3.438221 z"
       id="path1046" />
    <path
       style="fill:#0a4a7d;fill-opacity:1;stroke:none;stroke-width:0.697424;stroke-linejoin:round"
       d="m 27.557099,12.726299 -2.799752,3.438221 h 9.954262 l 2.800036,-3.438221 z"
       id="path1044" />
    <path
       style="fill:#0e4d80;fill-opacity:1;stroke:none;stroke-width:0.697424;stroke-linejoin:round"
       d="M 0.4897903,12.726299 V 16.16452 H 22.719998 l 2.800037,-3.438221 z"
       id="rect922" />
    <g
       aria-label="AIRSERVICE GMBH"
       id="text849"
       style="font-style:normal;font-variant:normal;font-weight:normal;font-stretch:normal;font-size:20.7742px;line-height:1.25;font-family:SusanSansW01-Book;-inkscape-font-specification:SusanSansW01-Book;letter-spacing:3.96875px;fill:#000000;fill-opacity:1;stroke:none;stroke-width:0.519355"
       transform="matrix(0.55132296,0,0,0.55132296,15.962644,-50.154587)">
      <path
         d="m 55.150083,92.274478 q 0.993944,0 1.908373,0.166194 0.914429,0.166194 1.61019,0.623226 0.695761,0.457032 1.093339,1.246452 0.417456,0.768646 0.417456,1.97355 0,0.872516 -0.337941,1.578839 -0.337941,0.706322 -0.874671,1.246452 -0.53673,0.51935 -1.192733,0.85174 -0.656004,0.332389 -1.272249,0.436259 l 4.293839,6.6062 h -2.544497 l -3.93602,-6.41923 h -1.649947 v 6.41923 h -2.14692 V 92.274478 Z m -2.524619,1.57884 v 5.152002 h 2.166799 q 0.516851,0 1.073459,-0.12465 0.556609,-0.14542 1.013824,-0.45703 0.457214,-0.332386 0.755397,-0.851741 0.298184,-0.519355 0.298184,-1.288 0,-0.830968 -0.318062,-1.308775 -0.298184,-0.49858 -0.755398,-0.747871 -0.437336,-0.24929 -0.974066,-0.311613 -0.516851,-0.06232 -0.934307,-0.06232 z"
         style="font-style:normal;font-variant:normal;font-weight:normal;font-stretch:normal;font-size:20.7742px;line-height:1.25;font-family:SusanSansW01-Book;-inkscape-font-specification:SusanSansW01-Book;letter-spacing:3.96875px;fill:#000000;fill-opacity:1;stroke:none;stroke-width:0.50804"
         id="path855-1" />
      <path
         d="m -25.755351,107.00339 h -2.243613 l 5.19355,-14.728911 h 2.264387 l 5.193551,14.728911 h -2.285162 l -1.288001,-3.57317 h -5.629808 z m 4.071743,-11.945168 h -0.124645 l -2.202065,6.710068 h 4.570324 z"
         style="font-style:normal;font-variant:normal;font-weight:normal;font-stretch:normal;font-family:SusanSansW01-Book;-inkscape-font-specification:SusanSansW01-Book;fill:#000000;stroke-width:0.519355"
         id="path851" />
      <path
         d="M -6.3721597,107.00339 H -8.6157734 V 92.274479 h 2.2436137 z"
         style="font-style:normal;font-variant:normal;font-weight:normal;font-stretch:normal;font-family:SusanSansW01-Book;-inkscape-font-specification:SusanSansW01-Book;fill:#000000;stroke-width:0.519355"
         id="path853" />
      <path
         d="m 6.3831836,92.274479 q 0.9939444,0 1.9083732,0.166194 0.9144288,0.166194 1.6101901,0.623226 0.6957611,0.457032 1.0933391,1.246452 0.417456,0.768645 0.417456,1.973549 0,0.872516 -0.337941,1.578839 -0.337941,0.706323 -0.874671,1.246452 -0.5367303,0.519355 -1.1927333,0.851743 -0.6560032,0.332386 -1.2722488,0.436256 l 4.2938391,6.6062 H 9.48429 L 5.5482702,100.58416 H 3.8983226 v 6.41923 H 1.7514027 V 92.274479 Z m -2.5246188,1.57884 v 5.152001 h 2.1667988 q 0.5168511,0 1.0734599,-0.124645 0.5566089,-0.145419 1.0138233,-0.457032 0.4572144,-0.332388 0.7553977,-0.851743 0.2981833,-0.519355 0.2981833,-1.288 0,-0.830968 -0.3180622,-1.308775 -0.2981833,-0.49858 -0.7553977,-0.747871 -0.4373355,-0.24929 -0.9740655,-0.311613 -0.516851,-0.06232 -0.9343077,-0.06232 z"
         style="font-style:normal;font-variant:normal;font-weight:normal;font-stretch:normal;font-family:SusanSansW01-Book;-inkscape-font-specification:SusanSansW01-Book;fill:#000000;stroke-width:0.50804"
         id="path855" />
      <path
         d="m 18.826841,105.07924 c 1.124655,0.65853 2.60315,0.65466 3.81145,0.66209 0.962981,0 1.690816,-0.20848 2.183504,-0.62543 0.492689,-0.41695 0.739033,-0.96841 0.739033,-1.65437 0,-0.3766 -0.06159,-0.69268 -0.184758,-0.94823 -0.123173,-0.269 -0.307931,-0.50438 -0.554275,-0.70614 -0.246344,-0.2152 -0.554274,-0.41023 -0.92379,-0.58508 -0.369517,-0.1883 -0.79502,-0.39678 -1.27651,-0.62543 -0.582269,-0.269 -1.114148,-0.52455 -1.595639,-0.766657 -0.470293,-0.242103 -0.879001,-0.517831 -1.226122,-0.827184 -0.335923,-0.322803 -0.599063,-0.699407 -0.78942,-1.129812 -0.190357,-0.443855 -0.285536,-1.002036 -0.285536,-1.674544 0,-0.564905 0.08958,-1.076011 0.268739,-1.533316 0.17916,-0.470755 0.436702,-0.87426 0.772625,-1.210513 0.347121,-0.336254 0.767026,-0.598532 1.259714,-0.786834 0.503886,-0.188302 1.074957,-0.282453 1.713212,-0.282453 1.185928,0.02244 2.356165,-0.05187 3.409075,0.39222 v 1.835946 c -1.000859,-0.597039 -2.239348,-0.58895 -3.291502,-0.593974 -0.79502,0 -1.366091,0.201752 -1.713212,0.605257 -0.347121,0.390054 -0.520681,0.874259 -0.520681,1.452616 0,0.363154 0.05039,0.672507 0.151166,0.92806 0.111975,0.242103 0.268739,0.464031 0.470292,0.665783 0.212752,0.188301 0.475893,0.363153 0.789422,0.524556 0.324726,0.161401 0.699841,0.336253 1.125344,0.524555 0.739033,0.322804 1.377288,0.625432 1.914766,0.907885 0.537479,0.282453 0.979778,0.591809 1.326899,0.928059 0.358319,0.3228 0.621459,0.69941 0.789421,1.12982 0.179159,0.4304 0.268739,0.94823 0.268739,1.55348 0,0.57836 -0.106376,1.11637 -0.319127,1.61403 -0.212752,0.49765 -0.520682,0.92805 -0.923791,1.29121 -0.403109,0.36315 -0.901396,0.65233 -1.494861,0.86753 -0.582268,0.20175 -1.254116,0.30263 -2.015543,0.30263 -1.306328,-0.0417 -2.824636,0.13725 -3.878634,-0.50069 z"
         style="font-style:normal;font-variant:normal;font-weight:normal;font-stretch:normal;font-family:SusanSansW01-Book;-inkscape-font-specification:SusanSansW01-Book;fill:#000000;stroke-width:0.460208"
         id="path857" />
      <path
         d="m 42.454711,98.8828 v 1.70349 H 36.96595 v 4.71361 h 6.065765 v 1.70349 H 34.722337 V 92.274479 h 8.129152 v 1.703485 H 36.96595 V 98.8828 Z"
         style="font-style:normal;font-variant:normal;font-weight:normal;font-stretch:normal;font-family:SusanSansW01-Book;-inkscape-font-specification:SusanSansW01-Book;fill:#000000;stroke-width:0.519355"
         id="path859" />
      <path
         d="m 76.464892,92.274479 h 2.305936 L 73.2749,107.00339 H 71.010513 L 65.62295,92.274479 h 2.326711 l 4.224207,11.592001 h 0.145419 z"
         style="font-style:normal;font-variant:normal;font-weight:normal;font-stretch:normal;font-family:SusanSansW01-Book;-inkscape-font-specification:SusanSansW01-Book;fill:#000000;stroke-width:0.519355"
         id="path863" />
      <path
         d="M 87.238025,107.00339 H 84.994412 V 92.274479 h 2.243613 z"
         style="font-style:normal;font-variant:normal;font-weight:normal;font-stretch:normal;font-family:SusanSansW01-Book;-inkscape-font-specification:SusanSansW01-Book;fill:#000000;stroke-width:0.519355"
         id="path865" />
      <path
         d="m 97.016163,99.919517 c 0,1.054453 0.103871,1.948743 0.311613,2.682873 0.207742,0.72077 0.498582,1.30807 0.872519,1.76188 0.387787,0.45382 0.851743,0.78751 1.39187,1.00108 0.553975,0.20021 1.170275,0.30031 1.848895,0.30031 1.23513,-0.0292 2.79839,-0.026 3.79525,-0.60027 v 1.72184 c -1.36954,0.55307 -3.04803,0.47786 -4.37692,0.48009 -1.080257,0 -2.015095,-0.18019 -2.804515,-0.54057 -0.775571,-0.37374 -1.412647,-0.88095 -1.911228,-1.52163 -0.498581,-0.65404 -0.872516,-1.43488 -1.121807,-2.34251 -0.235441,-0.90764 -0.353161,-1.90204 -0.353161,-2.983196 0,-1.254675 0.159269,-2.342506 0.477806,-3.263492 0.332387,-0.934334 0.782495,-1.708496 1.350323,-2.322487 0.567829,-0.613991 1.239528,-1.074484 2.015097,-1.381479 0.775573,-0.306995 1.613465,-0.460493 2.513675,-0.460493 1.33256,-0.01206 2.84598,0.201212 3.96465,0.637249 v 1.821952 c -1.1134,-0.600854 -2.55292,-0.831909 -3.69459,-0.837465 -0.63707,0 -1.21875,0.126802 -1.745025,0.380407 -0.52628,0.253605 -0.976387,0.627339 -1.35032,1.1212 -0.373937,0.493863 -0.664777,1.107854 -0.872519,1.841973 -0.207742,0.720771 -0.311613,1.554997 -0.311613,2.502678 z"
         style="font-style:normal;font-variant:normal;font-weight:normal;font-stretch:normal;font-family:SusanSansW01-Book;-inkscape-font-specification:SusanSansW01-Book;fill:#000000;stroke-width:0.509858"
         id="path867" />
      <path
         d="m 147.43212,99.898631 h 1.83924 v 6.419229 c -0.89297,0.31854 -1.74343,0.56091 -2.55137,0.7271 -0.80793,0.18004 -1.68674,0.27006 -2.63641,0.27006 -1.17647,0 -2.18285,-0.18697 -3.01913,-0.5609 -0.83629,-0.38779 -1.52374,-0.91407 -2.06236,-1.57884 -0.52445,-0.67863 -0.91424,-1.48882 -1.16938,-2.43058 -0.24096,-0.94177 -0.36144,-1.97355 -0.36144,-3.09536 0,-1.301849 0.17008,-2.430581 0.51027,-3.386194 0.73151,-1.564389 2.1268,-2.836952 3.61027,-3.425618 0.82211,-0.318538 1.70801,-0.477807 2.65769,-0.477807 1.42936,6.8e-4 3.36918,0.09773 4.6935,0.463897 v 2.10761 c -2.29637,-0.956085 -4.60555,-1.129246 -6.76704,-0.109887 -2.08416,1.031706 -2.56942,3.466121 -2.56942,5.437499 0,2.22602 0.68523,2.97056 1.50043,4.0439 0.39689,0.47088 0.87881,0.81712 1.44578,1.03871 0.58115,0.20774 1.22608,0.31161 1.93479,0.31161 0.35435,0 0.75832,-0.0208 1.21191,-0.0623 0.45357,-0.0554 1.29327,-0.17312 1.73267,-0.35316 z"
         style="font-style:normal;font-variant:normal;font-weight:normal;font-stretch:normal;font-family:SusanSansW01-Book;-inkscape-font-specification:SusanSansW01-Book;fill:#000000;stroke-width:0.52541"
         id="path871" />
      <path
         d="m 164.97825,103.88726 h 0.10387 l 3.99683,-11.612781 h 2.64687 l 2.07887,14.728911 h -2.24362 l -1.70089,-10.677942 h -0.18696 l -3.88359,10.677942 h -1.6839 l -3.83634,-10.428651 h -0.18696 l -1.34654,10.428651 h -1.86968 l 1.65365,-14.728911 h 2.51368 z"
         style="font-style:normal;font-variant:normal;font-weight:normal;font-stretch:normal;font-family:SusanSansW01-Book;-inkscape-font-specification:SusanSansW01-Book;fill:#000000;stroke-width:0.519355"
         id="path873" />
      <path
         d="m 185.96685,92.274479 c 1.38807,0 2.43867,0.304688 3.1518,0.914065 0.72587,0.595527 1.08881,1.523442 1.08881,2.783743 0,0.332387 -0.0509,0.664775 -0.15282,0.997162 -0.0891,0.318537 -0.22922,0.623225 -0.42023,0.914064 -0.17829,0.276989 -0.40114,0.52628 -0.66857,0.747872 -0.26743,0.207742 -0.57306,0.360086 -0.91689,0.457032 v 0.103871 c 1.01877,0.193893 1.751,0.609377 2.19671,1.246452 0.44571,0.63707 0.66857,1.35725 0.66857,2.16052 0,0.94176 -0.17192,1.70348 -0.51575,2.28516 -0.3311,0.58168 -0.74497,1.03179 -1.24162,1.35032 -0.49665,0.30469 -1.02513,0.51243 -1.58546,0.62323 -0.56031,0.097 -1.06333,0.14542 -1.50904,0.14542 H 181.1723 V 92.274479 Z M 183.2162,100.449 v 4.97555 h 2.57874 c 0.29289,0 0.61126,-0.0277 0.95509,-0.0831 0.34383,-0.0692 0.6622,-0.20082 0.95509,-0.39471 0.30563,-0.19389 0.55395,-0.47781 0.74497,-0.85174 0.20375,-0.37393 0.172,-0.87251 0.172,-1.49574 0,-0.55398 0.0318,-0.61296 -0.172,-0.94535 -0.20375,-0.33239 -0.45844,-0.5886 -0.76407,-0.76865 -0.30563,-0.18004 -0.64309,-0.29776 -1.01239,-0.35316 -0.36931,-0.0554 -0.72588,-0.0831 -1.06971,-0.0831 z m 0,-1.921486 h 2.2158 c 0.26743,0 0.55395,-0.0277 0.85958,-0.0831 0.31837,-0.0554 0.6049,-0.166196 0.85959,-0.332387 0.25469,-0.166194 0.46481,-0.40856 0.63036,-0.727097 0.17828,-0.318538 0.26742,-0.740947 0.26742,-1.267227 0,-0.498581 -0.0955,-0.89329 -0.28652,-1.184129 -0.17829,-0.304688 -0.40751,-0.533204 -0.68766,-0.685549 -0.28017,-0.166193 -0.57943,-0.270064 -0.89779,-0.311613 -0.31837,-0.0554 -0.61763,-0.0831 -0.89779,-0.0831 h -2.06299 z"
         style="font-style:normal;font-variant:normal;font-weight:normal;font-stretch:normal;font-family:SusanSansW01-Book;-inkscape-font-specification:SusanSansW01-Book;fill:#000000;stroke-width:0.498012"
         id="path875" />
      <path
         d="m 207.88675,98.465191 v -6.190712 h 2.24361 v 14.728911 h -2.24361 v -6.83471 h -6.77239 v 6.83471 h -2.24362 V 92.274479 h 2.24362 v 6.190712 z"
         style="font-style:normal;font-variant:normal;font-weight:normal;font-stretch:normal;font-family:SusanSansW01-Book;-inkscape-font-specification:SusanSansW01-Book;fill:#000000;stroke-width:0.519355"
         id="path877" />
      <path
         d="m 120.18335,98.882802 v 1.703488 h -5.48877 v 4.71361 h 6.06577 v 1.70349 h -8.30938 V 92.274481 h 8.12915 v 1.703485 h -5.88554 v 4.904836 z"
         style="font-style:normal;font-variant:normal;font-weight:normal;font-stretch:normal;font-size:20.7742px;line-height:1.25;font-family:SusanSansW01-Book;-inkscape-font-specification:SusanSansW01-Book;letter-spacing:3.96875px;fill:#000000;fill-opacity:1;stroke:none;stroke-width:0.519355"
         id="path859-1" />
    </g>
  </g>
</svg>
