<?xml version="1.0" encoding="UTF-8" standalone="no"?>
<!-- Created with Inkscape (http://www.inkscape.org/) -->

<svg
   xmlns:dc="http://purl.org/dc/elements/1.1/"
   xmlns:cc="http://creativecommons.org/ns#"
   xmlns:rdf="http://www.w3.org/1999/02/22-rdf-syntax-ns#"
   xmlns:svg="http://www.w3.org/2000/svg"
   xmlns="http://www.w3.org/2000/svg"
   version="1.1"
   width="557.06256"
   height="153.38838"
   id="svg3085">
  <defs
     id="defs3087" />
  <g
     transform="translate(-150.04015,-481.3823)"
     id="layer1">
    <path
       d="m 629.0089,527.44494 -13.4375,2.21875 -6.40625,13.15625 13.3125,-2.1875 6.53125,-13.1875 z m 77.09375,5.78125 c -33.01125,11.8625 -42.0125,14.0125 -52.5625,15.875 -12.27,2.16625 -23.46625,4.70875 -32.375,21.53125 l -3.46875,7.03125 -7.375,14.96876 -0.125,0.0937 c -3.25,2.325 -5.905,3.7 -8.1875,4.03125 -0.5875,0.0837 -1.09125,0.12505 -1.5625,0.0937 -1.15625,-0.009 -2.07,-0.87 -2.15625,-2.1875 -0.05,-0.305 -0.055,-0.6375 -0.0312,-1 0.19625,-2.58625 2.04625,-6.965 5.21875,-13.15626 l 12.25,-24.84375 -13.8125,2.15625 -12.40625,25.37501 c -2.145,4.49375 -3.48625,8.3625 -4.1875,11.625 l -0.0625,0.21875 -0.15625,0.125 c -4.26125,3.30875 -7.55375,5.24875 -10.3125,5.65625 -0.5825,0.08 -1.09625,0.12505 -1.5625,0.0937 -1.15375,-0.009 -2.085,-0.90375 -2.15625,-2.21875 -0.0437,-0.2925 -0.0237,-0.59875 0,-0.9375 0.195,-2.58125 2.05,-6.95625 5.28125,-13.1875 l 12.84375,-25.43751 -13.75,2.15625 -0.5625,1.125 -0.4688,-0.1561 c -0.73625,-0.2325 -1.58625,-0.37 -2.5625,-0.4375 -0.01,0 -0.0238,0 -0.0312,0 -0.425,-0.0288 -0.8775,-0.0538 -1.34375,-0.0625 -12.73125,-0.26875 -30.28125,8.30125 -40.5625,25.25001 -3.19,5.25125 -4.75125,10.06125 -5.03125,14.09375 -0.4925,7.6725 3.41375,12.49625 9.71875,12.96875 0.89125,0.0625 1.82625,0.03 2.8125,-0.0937 6.4975,-0.82 11.9875,-3.3875 17.6875,-7.9375 0.7475,-0.6 1.47375,-1.22125 2.1875,-1.84375 l 0.6875,-0.59375 0.21875,0.90625 c 0.6825,2.7975 2.48125,4.26 5.84375,4.53125 1.12625,0.0787 2.45,-0.0102 3.90625,-0.25 3.99375,-0.665 7.77375,-2.25375 11.75,-4.78125 1.7825,-1.165 2.7925,-1.92375 4.84375,-3.625 l 0.65625,-0.5625 0.25,0.84375 c 0.9275,2.9575 2.69875,3.9225 5.71875,3.875 1.14125,-0.0175 2.0675,0.0362 4.0625,-0.40625 3.16875,-0.705 9.27375,-3.565 12.375,-5.75 l -1.78125,3.625 14,-2.84375 c 0.72,-1.58375 4.2975,-9.40375 8.3125,-17.37501 2.9025,-5.74 5.54,-11.36375 8.75,-14.46875 5.8975,-5.675 11.96,-8.035 18,-9.5625 22.3575,-5.66 36.17375,-13.895 51.21875,-24.53125 z m -141.34375,36.375 c 0.145,-0.004 0.29125,-0.01 0.4375,0 2.04875,0.16125 3.9475,1.695 3.96875,3.6875 10e-4,0.10875 0.009,0.205 0,0.3125 -0.2025,2.58875 -2.335,6.98125 -6.4375,13.62501 -7.4475,11.97125 -12.6325,17.4275 -17.84375,18.03125 -0.28625,0.03 -0.57625,0.0213 -0.875,0 -2.30875,-0.18875 -5.0825,-1.6725 -5.6875,-4.09375 -0.165,-0.72875 -0.1925,-1.57375 -0.125,-2.53125 0.22125,-3.125 1.6675,-7.43125 4.78125,-11.96875 3.64,-5.30376 4.73875,-6.59251 8.28125,-9.87501 7.57625,-7.085 10.845,-7.1275 13.5,-7.1875 z"
       id="path22"
       style="fill:#fab20b;fill-opacity:1;fill-rule:nonzero;stroke:none" />
    <path
       d="m 624.47765,482.38244 c -1.19094,0.004 -2.42531,0.0872 -3.65625,0.21875 -22.38,2.44875 -36.51,23.19375 -40.03125,38.9375 -1.2725,5.68875 -1.5425,10.94125 1.3125,15.40625 1.38375,2.185 4.8975,7.4175 19.875,6.09375 0.1775,-0.015 0.35875,-0.0137 0.53125,-0.0312 l 6.1875,-12.90625 c -0.155,0.0175 -0.31375,0.0499 -0.46875,0.0625 -8.61875,0.7925 -12.0575,-2.4475 -10.625,-8.8125 0.265,-1.19 0.62125,-2.3025 1,-3.5 13.6125,-1.6475 18.32375,-2.19 33.75,-3.53125 0.3275,-0.2075 0.645,-0.415 0.96875,-0.625 1.67,-3.6825 3.585,-7.92625 4.75,-13.0625 1.0125,-4.48 2.30125,-12.5425 -4.46875,-16.3125 -2.27906,-1.35937 -5.55219,-1.94974 -9.125,-1.9375 z m -51.59375,5.625 c -0.71056,-10e-4 -1.41,0.0522 -2.03125,0.125 -6.83,0.7975 -13.83625,5.01125 -20.09375,10.09375 -0.80625,-5.1425 -4.11,-7.245 -9.59375,-6.59375 -3.7275,0.4425 -8.79875,2.46375 -12.625,4.96875 -1.87125,1.3025 -3.66,2.67875 -5.46875,4.1875 0.88,-2.26375 1.77375,-4.51875 2.65625,-6.78125 -0.1575,-0.23625 -0.19,-0.7262 -0.46875,-0.6875 -7.2875,1.02125 -16.585,2.05255 -16.90625,2.03125 -0.29,0.2475 -0.55875,0.47125 -0.84375,0.71875 -3.69,11.16125 -5.5025,16.53375 -10.15625,28.53125 -1.61875,4.0025 -3.25625,8.00375 -4.875,12 -2.655,6.395 -5.29,12.78125 -7.9375,19.15625 0.125,0.2375 0.2225,0.4825 0.34375,0.71875 5.64125,-0.69875 11.2925,-1.39 16.9375,-2.09375 0.27375,-0.2075 0.56625,-0.41875 0.84375,-0.625 3.185,-8.40875 6.3675,-16.84 9.5625,-25.28125 2.24875,-5.675 4.48875,-11.37125 6.75,-17.0625 2.5325,-2.1225 5.45,-4.075 8.34375,-4.40625 1.345,-0.15375 5.12875,-0.36125 4,5.40625 -0.32875,1.66375 -1.08875,3.92375 -4.8125,13.65625 -1.01,2.56625 -1.9925,5.1225 -3,7.6875 -2.545,6.30375 -4.73875,11.99625 -7.28125,18.28125 0.1225,0.24375 0.22375,0.4775 0.34375,0.71875 5.5425,-0.69375 11.1125,-1.3725 16.65625,-2.0625 0.27625,-0.20625 0.5375,-0.41375 0.8125,-0.625 2.33375,-6.23125 4.31625,-11.84875 6.65625,-18.09375 1.4625,-3.6825 2.93875,-7.3725 4.40625,-11.0625 2.27875,-5.9225 2.73875,-7.275 4.4375,-12.8125 2.02125,-1.53625 5.2675,-4.225 9.09375,-4.65625 3.925,-0.4425 4.63625,2.55375 4.0625,5.46875 -0.3575,1.7975 -3.46625,9.94875 -4.46875,12.46875 -1.11875,2.75125 -2.23125,5.47 -3.34375,8.21875 -2.73375,6.6825 -5.36625,12.08875 -8.09375,18.75 0.155,0.23875 0.315,0.47875 0.46875,0.71875 5.61125,-0.6875 11.19875,-1.34875 16.8125,-2.03125 0.275,-0.21125 0.565,-0.4475 0.84375,-0.65625 3.0575,-8.13 6.02625,-15 9.09375,-23.15625 1.43,-3.645 2.84875,-7.28625 4.28125,-10.9375 1.54375,-3.6975 3.12625,-7.5125 3.84375,-11.125 2.16016,-10.87625 -4.27609,-13.14924 -9.25,-13.15625 z m -180.75,3.53125 c -0.0813,0.0688 -13.63625,1.845 -16.25,2.0625 -0.45125,0.035 -1.1088,0.6988 -1.125,0.6875 -2.28875,6.4575 -4.7225,11.8825 -11,28.15625 -3.00625,7.485 -6.0025,14.95125 -9,22.40625 -3.45875,8.445 -6.92375,16.84125 -10.375,25.25 0.1,0.2025 0.2125,0.42125 0.3125,0.625 5.86375,-0.58875 11.725,-1.2025 17.59375,-1.8125 0.28125,-0.20125 0.565,-0.3925 0.84375,-0.59375 5.2675,-14.68375 6.53,-17.98375 11.90625,-31.5625 2.75625,-7.04 5.48625,-14.05375 8.25,-21.125 3.18125,-7.81 6.37375,-15.65625 9.5625,-23.5 -0.0588,-0.25875 -0.58875,-0.36 -0.71875,-0.59375 z m 226.75,1.78125 c 4.36984,-0.0563 5.51523,3.13438 4.75,6.5 -0.365,1.63125 -1.05875,3.27625 -1.75,4.9375 -6.3825,0.7025 -12.76875,1.405 -19.15625,2.125 1.4575,-2.7875 3.27875,-6.24875 6.90625,-9.375 3.65,-3.23125 6.52375,-3.93875 8.34375,-4.125 0.32063,-0.0334 0.61493,-0.0587 0.90625,-0.0625 z m -143.21875,5.6875 c -1.62525,-0.0227 -3.31437,0.0822 -5,0.28125 -27.7875,3.36 -38.115,30.56 -40.0625,40.71875 -1.58625,8.29 -0.51625,14.1525 3.34375,17.90625 4.19875,4.15625 11.42375,4.53875 16.9375,4 8.06375,-0.78125 15.30125,-3.235 22.375,-9.125 6.5675,-5.3975 11.2575,-12.8375 14.40625,-20.46875 1.5775,-3.81375 2.84,-7.7125 3.5625,-11.4375 1.3175,-6.77375 1.25625,-12.95625 -3.1875,-17.5 -3.07594,-3.10687 -7.49924,-4.30685 -12.375,-4.375 z m -50.65625,5.40625 c -1.33141,0.005 -2.67562,0.0906 -4.0625,0.25 -22.93875,2.6725 -36.63125,22.735 -39.5,37.90625 -3.09625,16.3675 4.97125,24.96 20,23.59375 3.92,-0.36125 8.3325,-1.45125 10.9375,-2.5625 1.1225,-0.4275 2.1675,-0.96 3.3125,-1.5 0.26125,-0.27875 0.52125,-0.56875 0.78125,-0.84375 1.72625,-3.98375 3.2975,-7.5875 5.15625,-12.03125 -2.25375,0.82375 -4.63125,1.68375 -6.21875,2.1875 -2.42625,0.76875 -3.35375,0.9025 -5.96875,1.1875 -5.40875,0.525 -11.565,-2.235 -9.53125,-12.9375 1.90625,-10.04375 10.1725,-21.19625 20.1875,-22.3125 2.9825,-0.32875 5.645,-0.0399 7.71875,1.3125 1.05125,0.68625 1.635,1.34125 1.84375,1.8125 0.2075,-0.0562 0.6975,-0.11875 1.1875,-0.25 2.01,-4.32875 3.925,-7.87875 5.9375,-12.21875 -0.0225,-0.25125 -0.0437,-0.5025 -0.0625,-0.75 -2.1575,-1.26875 -3.61875,-2.2675 -7.71875,-2.65625 -1.335,-0.11625 -2.66859,-0.19266 -4,-0.1875 z m 44.375,6.6875 c 5.20602,0.0426 5.28477,5.29219 4.53125,9.1875 -0.6725,3.4775 -1.83375,6.7975 -2.90625,9.65625 -3.9525,10.2 -6.83375,13.34375 -8.3125,15.03125 -2.26,2.53625 -5.40625,4.8325 -8.59375,5.15625 -3.50625,0.3525 -6.04875,-1.15125 -6.53125,-4.59375 -0.16875,-0.74625 -0.2025,-2.14375 0.3125,-4.8125 0.985,-5.1175 5.645,-18.045 10.75,-23.96875 1.455,-1.5825 4.63875,-5.015 9.65625,-5.59375 0.39383,-0.0453 0.74668,-0.0653 1.09375,-0.0625 z m -134.0625,1.9375 c -1.22086,-0.004 -2.49375,0.0653 -3.75,0.1875 -22.8275,2.2575 -36.38625,22.7075 -39.3125,38.46875 -1.05625,5.6925 -1.05,10.9775 2.0625,15.53125 1.51125,2.2175 5.3125,7.61625 20.59375,6.5 10.73625,-0.79625 16.3,-3.70875 19.28125,-5.34375 0.275,-0.21 0.42625,-0.39625 0.65625,-0.6875 0.98625,-2.1025 4.2125,-9.72375 4.9375,-11.28125 -1.4125,0.58125 -6.7475,2.1525 -9.15625,2.78125 -4.495,1.175 -7.225,1.58875 -10,1.9375 -8.795,0.71375 -12.3425,-2.9125 -11.15625,-9.28125 0.22125,-1.19125 0.545,-2.2725 0.875,-3.46875 13.8675,-1.45625 18.67125,-1.99 34.4375,-3.28125 0.3225,-0.20625 0.645,-0.415 0.96875,-0.625 1.55125,-3.69125 3.31125,-7.94125 4.28125,-13.09375 0.845,-4.49125 1.83125,-12.5475 -5.28125,-16.34375 -2.39625,-1.37156 -5.77492,-1.98793 -9.4375,-2 z m -32.9375,1.4375 c -4.55375,0.525 -10.575,0.965 -15.125,1.46875 -0.265,0.22875 -0.4575,0.4475 -0.6875,0.625 -4.375,8.00875 -6.5425,11.81125 -12.625,22.34375 -3.96875,6.7525 -7.9175,13.4875 -11.875,20.1875 1.77875,-9.2525 3.56375,-18.5225 5.34375,-27.78125 0.85625,-4.2425 1.705,-8.505 2.5625,-12.75 -0.1675,-0.24125 -0.38,-0.64 -0.5,-0.75 -5.4925,0.57625 -16.0975,1.585 -20.125,2.0625 -0.4225,0.295 -0.48875,0.4125 -0.8125,0.65625 -3.17125,5.63625 -6.43375,11.40125 -9.59375,17 -4.6425,7.845 -9.28125,15.66875 -13.90625,23.4375 1.32375,-7.53625 2.645,-15.085 3.96875,-22.625 0.9475,-5.59875 1.895,-10.49375 2.84375,-16.09375 -0.175,-0.20375 -0.3175,-0.38 -0.5,-0.5625 -7.765,0.9325 -8.765,0.9325 -16.21875,1.625 -0.33875,0.3575 -0.5125,0.5375 -0.8125,0.84375 -0.6575,5.975 -1.34,11.61625 -2,17.59375 -0.7475,6.485 -1.47,12.94875 -2.21875,19.4375 -0.77,6.20375 -1.575,12.73125 -2.34375,18.9375 0.20875,0.20625 0.41875,0.44375 0.625,0.625 7.26125,-0.52875 12.60625,-1.07 18.53125,-1.5 0.32,-0.235 0.6475,-0.48375 0.96875,-0.71875 3.35875,-5.95625 18.96875,-32.42875 23.8125,-40.59375 -1.7075,9.6725 -6.285,35.39875 -6.875,38.9375 0.20875,0.2075 0.415,0.4175 0.625,0.625 6.07375,-0.47875 14.0725,-1.3525 20.15625,-1.875 0.365,-0.28125 0.7275,-0.55875 1.09375,-0.84375 0,0 29.2175,-48.25 36.1875,-59.5625 -0.16875,-0.24375 -0.3325,-0.50625 -0.5,-0.75 z m 27.6875,9.5 c 4.47783,-0.0194 5.75664,3.15625 5.125,6.53125 -0.3075,1.63375 -0.92875,3.305 -1.5625,4.96875 -6.515,0.66125 -13.02375,1.31125 -19.53125,1.9375 1.375,-2.7775 3.08,-6.22 6.65625,-9.3125 3.6,-3.20125 6.52,-3.92125 8.375,-4.09375 0.32727,-0.0307 0.63898,-0.03 0.9375,-0.0312 z"
       id="path24"
       style="fill:#702090;fill-opacity:1;fill-rule:nonzero;stroke:none" />
    <path
       d="m 151.04015,565.86171 c 0,0 24.11088,53.82876 130.904,51.06876 66.81875,-1.7275 141.67625,-28.89625 179.825,-39.87501 33.475,-9.6325 83.29375,-11.70125 83.29375,-11.70125 0,0 -51.1825,6.21375 -103.26125,26.75376 -67.4375,26.5975 -126.2375,42.80375 -172.45,41.6 -107.65762,-2.8025 -118.3115,-67.84626 -118.3115,-67.84626 l 0,0"
       id="path40"
       style="fill:#fab20b;fill-opacity:1;fill-rule:nonzero;stroke:none" />
  </g>
</svg>
