<?xml version="1.0" encoding="UTF-8" standalone="no"?>
<!-- Created with Inkscape (http://www.inkscape.org/) -->

<svg
   xmlns:dc="http://purl.org/dc/elements/1.1/"
   xmlns:cc="http://creativecommons.org/ns#"
   xmlns:rdf="http://www.w3.org/1999/02/22-rdf-syntax-ns#"
   xmlns:svg="http://www.w3.org/2000/svg"
   xmlns="http://www.w3.org/2000/svg"
   xmlns:sodipodi="http://sodipodi.sourceforge.net/DTD/sodipodi-0.dtd"
   xmlns:inkscape="http://www.inkscape.org/namespaces/inkscape"
   width="195.1091"
   height="121.08361"
   viewBox="0 0 51.622615 32.036704"
   version="1.1"
   id="svg2032"
   inkscape:version="0.92.0 r15299"
   sodipodi:docname="westwind aviation.svg">
  <defs
     id="defs2026">
    <clipPath
       id="clipPath262"
       clipPathUnits="userSpaceOnUse">
      <path
         inkscape:connector-curvature="0"
         id="path260"
         d="M 0,0 H 612 V 792 H 0 Z" />
    </clipPath>
  </defs>
  <sodipodi:namedview
     id="base"
     pagecolor="#ffffff"
     bordercolor="#666666"
     borderopacity="1.0"
     inkscape:pageopacity="0.0"
     inkscape:pageshadow="2"
     inkscape:zoom="3.6029101"
     inkscape:cx="97.919793"
     inkscape:cy="45.115647"
     inkscape:document-units="mm"
     inkscape:current-layer="layer1"
     showgrid="false"
     fit-margin-top="0"
     fit-margin-left="0"
     fit-margin-right="0"
     fit-margin-bottom="0"
     units="px"
     inkscape:window-width="1280"
     inkscape:window-height="744"
     inkscape:window-x="-4"
     inkscape:window-y="-4"
     inkscape:window-maximized="1" />
  <metadata
     id="metadata2029">
    <rdf:RDF>
      <cc:Work
         rdf:about="">
        <dc:format>image/svg+xml</dc:format>
        <dc:type
           rdf:resource="http://purl.org/dc/dcmitype/StillImage" />
        <dc:title></dc:title>
      </cc:Work>
    </rdf:RDF>
  </metadata>
  <g
     inkscape:label="Layer 1"
     inkscape:groupmode="layer"
     id="layer1"
     transform="translate(-64.80634,-156.70372)">
    <g
       id="g2285"
       transform="translate(0.26458307,-0.26457693)">
      <path
         d="m 67.54707,184.59139 -2.74073,-9.52218 h 2.02106 l 1.63301,6.72642 1.3836,-6.72642 h 2.10432 l 1.35643,6.72642 1.4672,-6.00675 c 0.11077,-0.47978 0.43321,-0.71967 0.96908,-0.71967 h 1.21779 l -2.71286,9.52218 h -1.882069 l -1.467561,-7.30779 -1.494719,7.30779 z"
         style="fill:#001745;fill-opacity:1;fill-rule:nonzero;stroke:none;stroke-width:0.35277778"
         id="path182"
         inkscape:connector-curvature="0" />
      <path
         d="m 80.25631,182.77568 h 1.10737 c -0.16298,0.62018 -0.47237,1.09291 -0.92992,1.41746 -0.45756,0.33973 -1.03399,0.50941 -1.7272,0.50941 -0.84208,0 -1.49896,-0.27305 -1.97132,-0.8195 -0.47237,-0.53128 -0.70909,-1.29187 -0.70909,-2.28106 0,-0.94474 0.22895,-1.6831 0.68721,-2.21439 0.47202,-0.5461 1.12924,-0.81985 1.97062,-0.81985 0.88582,0 1.57233,0.26599 2.05987,0.79763 0.47202,0.54645 0.70838,1.30633 0.70838,2.28106 v 0.15487 0.0885 c 0,0.0741 -0.007,0.12558 -0.0219,0.15486 h -3.83116 c 0.0145,0.45826 0.12488,0.79763 0.33196,1.01918 0.19156,0.23601 0.47943,0.35419 0.86395,0.35419 0.25012,0 0.46426,-0.0515 0.64241,-0.15522 0.0434,-0.0148 0.084,-0.0402 0.12101,-0.0776 0.0367,-0.0363 0.078,-0.0776 0.12241,-0.12135 0.0141,-0.0448 0.0699,-0.10336 0.16581,-0.17745 0.0956,-0.0737 0.23248,-0.11077 0.40957,-0.11077 m -2.65712,-1.7272 h 2.25813 c -0.0293,-0.39864 -0.13229,-0.69427 -0.30939,-0.88582 -0.19226,-0.20638 -0.46496,-0.3101 -0.8195,-0.3101 -0.32526,0 -0.59055,0.10372 -0.79728,0.3101 -0.20708,0.20672 -0.3175,0.502 -0.33196,0.88582"
         style="fill:#001745;fill-opacity:1;fill-rule:nonzero;stroke:none;stroke-width:0.35277778"
         id="path186"
         inkscape:connector-curvature="0" />
      <path
         d="m 81.73254,182.64265 h 1.50601 c 0.0152,0.29563 0.12559,0.51717 0.33231,0.66463 0.22155,0.14746 0.51682,0.22119 0.88548,0.22119 0.26599,0 0.4953,-0.0511 0.68756,-0.15486 0.17639,-0.10302 0.26529,-0.24342 0.26529,-0.42052 0,-0.26599 -0.31044,-0.46531 -0.93028,-0.59831 -0.26599,-0.0441 -0.46496,-0.0885 -0.59795,-0.13264 -0.78282,-0.19191 -1.30634,-0.42086 -1.57233,-0.68686 -0.29528,-0.26564 -0.44309,-0.61983 -0.44309,-1.06257 0,-0.56091 0.21413,-1.02587 0.64241,-1.39558 0.44308,-0.33938 1.01846,-0.50906 1.72755,-0.50906 0.76729,0 1.38006,0.16968 1.83762,0.50906 0.42827,0.36971 0.65722,0.84948 0.68686,1.44003 h -0.95215 c -0.28081,0 -0.49495,-0.12558 -0.64206,-0.37676 -0.0596,-0.0589 -0.11888,-0.11818 -0.17744,-0.17745 -0.1771,-0.13264 -0.42087,-0.19897 -0.73096,-0.19897 -0.29527,0 -0.51682,0.0441 -0.66393,0.133 -0.13299,0.0885 -0.19932,0.22155 -0.19932,0.39829 0,0.23636 0.38312,0.43568 1.15147,0.59796 0.0882,0.03 0.16545,0.0519 0.23248,0.0667 0.0667,0.0148 0.12912,0.0219 0.18768,0.0219 0.75353,0.19227 1.27705,0.41381 1.57303,0.66464 0.27976,0.26564 0.42016,0.61983 0.42016,1.06327 0,0.64946 -0.23601,1.15111 -0.70838,1.5053 -0.44273,0.32526 -1.10666,0.48754 -1.99319,0.48754 -0.84137,0 -1.46932,-0.16969 -1.88242,-0.50941 -0.42827,-0.33937 -0.64241,-0.83397 -0.64241,-1.48343 z"
         style="fill:#001745;fill-opacity:1;fill-rule:nonzero;stroke:none;stroke-width:0.35277778"
         id="path190"
         inkscape:connector-curvature="0" />
      <path
         d="m 89.98631,184.59139 c -0.48754,0.0293 -1.01565,0.0226 -1.58362,-0.0219 -0.56868,-0.0445 -0.85266,-0.40605 -0.85266,-1.08515 v -6.5105 h 0.79727 c 0.19227,0 0.36195,0.0741 0.50906,0.22154 0.14746,0.14711 0.2219,0.32456 0.2219,0.53129 v 0.99624 h 0.90805 v 0.31009 c 0,0.22155 -0.0744,0.40252 -0.22154,0.54258 -0.14817,0.1404 -0.32527,0.21096 -0.53199,0.21096 h -0.15452 v 3.2773 c 0,0.25118 0.14711,0.37606 0.44238,0.37606 h 0.46567 z"
         style="fill:#001745;fill-opacity:1;fill-rule:nonzero;stroke:none;stroke-width:0.35277778"
         id="path194"
         inkscape:connector-curvature="0" />
      <path
         d="m 93.029161,184.59139 -2.740021,-9.52218 h 2.020349 l 1.63336,6.72642 1.383951,-6.72642 h 2.104321 l 1.356429,6.72642 1.46685,-6.00675 c 0.11113,-0.47978 0.43286,-0.71967 0.96908,-0.71967 h 1.21744 l -2.71216,9.52218 h -1.88242 l -1.467199,-7.30779 -1.494722,7.30779 z"
         style="fill:#001745;fill-opacity:1;fill-rule:nonzero;stroke:none;stroke-width:0.35277778"
         id="path198"
         inkscape:connector-curvature="0" />
      <path
         d="m 102.34154,176.97376 h 0.79763 c 0.20602,0 0.38347,0.0741 0.53128,0.22154 0.14746,0.14747 0.22155,0.32456 0.22155,0.53129 v 0.46496 h -1.55046 z m 0,1.7272 h 0.79763 c 0.20602,0 0.38347,0.0741 0.53128,0.22154 0.14746,0.14782 0.22155,0.32491 0.22155,0.53164 v 5.13715 h -1.55046 z"
         style="fill:#001745;fill-opacity:1;fill-rule:nonzero;stroke:none;stroke-width:0.35277778"
         id="path202"
         inkscape:connector-curvature="0" />
      <path
         d="m 109.66281,184.59139 h -0.7747 c -0.22154,0 -0.40252,-0.0699 -0.54257,-0.21026 -0.14041,-0.1397 -0.21061,-0.32102 -0.21061,-0.54257 v -3.01166 c 0,-0.35419 -0.1076,-0.61242 -0.32103,-0.77541 -0.21413,-0.16227 -0.45367,-0.24341 -0.71966,-0.24341 -0.266,0 -0.50165,0.0811 -0.70909,0.24341 -0.20673,0.16299 -0.30974,0.42122 -0.30974,0.77541 v 3.76449 h -1.55046 v -3.4544 c 0,-1.00365 0.26247,-1.67499 0.7867,-2.01542 0.52352,-0.33937 1.10349,-0.52352 1.73814,-0.55351 0.64946,0 1.24706,0.16969 1.79387,0.50941 0.54645,0.34008 0.81915,1.02623 0.81915,2.05952 z"
         style="fill:#001745;fill-opacity:1;fill-rule:nonzero;stroke:none;stroke-width:0.35277778"
         id="path206"
         inkscape:connector-curvature="0" />
      <path
         d="m 114.37105,176.16357 h 0.75353 c 0.20567,0 0.38312,0.0776 0.53129,0.23283 0.14711,0.15487 0.22154,0.32879 0.22154,0.52035 v 5.10611 c 0,1.04845 -0.30339,1.75718 -0.9084,2.12619 -0.60537,0.36865 -1.26189,0.55351 -1.97132,0.55351 -0.38383,0 -0.76024,-0.0632 -1.12889,-0.18839 -0.36901,-0.12523 -0.66499,-0.32843 -0.88583,-0.60889 -0.42898,-0.5461 -0.64241,-1.29187 -0.64241,-2.23697 0,-0.92992 0.21343,-1.67534 0.64241,-2.23661 0.44309,-0.57573 1.01106,-0.86395 1.70533,-0.86395 0.36865,0 0.69356,0.0744 0.97437,0.2219 0.29528,0.17709 0.53093,0.4064 0.70838,0.6865 z m -2.52483,5.43842 c 0,0.59055 0.11112,1.0407 0.33267,1.35114 0.22084,0.30974 0.53869,0.46496 0.95215,0.46496 0.39864,0 0.70873,-0.15522 0.92992,-0.46496 0.20637,-0.31044 0.31009,-0.76059 0.31009,-1.35114 0,-0.53128 -0.11042,-0.95215 -0.33196,-1.26224 -0.23672,-0.29527 -0.55386,-0.44273 -0.9525,-0.44273 -0.38418,0 -0.68686,0.15451 -0.9077,0.46496 -0.22155,0.29527 -0.33267,0.70873 -0.33267,1.24001"
         style="fill:#001745;fill-opacity:1;fill-rule:nonzero;stroke:none;stroke-width:0.35277778"
         id="path210"
         inkscape:connector-curvature="0" />
      <path
         d="m 67.76808,186.16316 h 0.40957 l 0.915461,2.51848 H 68.54384 L 68.37521,188.162 h -0.98107 l -0.16122,0.51964 h -0.54928 l 0.83538,-2.34985 c 0.0437,-0.11254 0.12665,-0.16863 0.24906,-0.16863 m 0.116771,0.50482 -0.351721,1.06927 h 0.70309 z"
         style="fill:#99999c;fill-opacity:1;fill-rule:nonzero;stroke:none;stroke-width:0.35277778"
         id="path214"
         inkscape:connector-curvature="0" />
      <path
         d="m 74.94379,188.68182 -0.87136,-2.51848 h 0.578551 l 0.534459,1.88172 0.49072,-1.69157 c 0.0293,-0.12665 0.11218,-0.19015 0.24906,-0.19015 h 0.37288 l -0.85689,2.51848 z"
         style="fill:#99999c;fill-opacity:1;fill-rule:nonzero;stroke:none;stroke-width:0.35277778"
         id="path218"
         inkscape:connector-curvature="0" />
      <path
         d="m 81.27065,188.68182 v -2.25531 c 0,-0.073 0.0254,-0.13546 0.0769,-0.18662 0.0511,-0.0512 0.11359,-0.0765 0.18661,-0.0765 h 0.25647 v 2.51848 z"
         style="fill:#99999c;fill-opacity:1;fill-rule:nonzero;stroke:none;stroke-width:0.35277778"
         id="path222"
         inkscape:connector-curvature="0" />
      <path
         d="m 87.75852,186.16316 h 0.40993 l 0.91581,2.51848 H 88.53498 L 88.36636,188.162 h -0.98108 l -0.16122,0.51964 h -0.54927 l 0.83467,-2.34985 c 0.0444,-0.11254 0.12735,-0.16863 0.24906,-0.16863 m 0.11747,0.50482 -0.35171,1.06927 h 0.70308 z"
         style="fill:#99999c;fill-opacity:1;fill-rule:nonzero;stroke:none;stroke-width:0.35277778"
         id="path226"
         inkscape:connector-curvature="0" />
      <path
         d="m 94.810119,188.68182 v -2.07186 H 94.06364 v -0.18345 c 0,-0.073 0.0254,-0.13546 0.0766,-0.18662 0.0511,-0.0512 0.113591,-0.0765 0.186611,-0.0765 h 1.742731 v 0.44662 H 95.33015 v 2.07186 z"
         style="fill:#99999c;fill-opacity:1;fill-rule:nonzero;stroke:none;stroke-width:0.35277778"
         id="path230"
         inkscape:connector-curvature="0" />
      <path
         d="m 101.02702,188.68182 v -2.25531 c 0,-0.073 0.0261,-0.13546 0.0773,-0.18662 0.0512,-0.0512 0.11359,-0.0765 0.18697,-0.0765 h 0.25576 v 2.51848 z"
         style="fill:#99999c;fill-opacity:1;fill-rule:nonzero;stroke:none;stroke-width:0.35277778"
         id="path234"
         inkscape:connector-curvature="0" />
      <path
         d="m 106.38762,187.42244 c 0,-0.40993 0.10724,-0.73448 0.32209,-0.97367 0.22965,-0.23953 0.52987,-0.35912 0.90064,-0.35912 0.36653,0 0.66675,0.11959 0.90099,0.35912 0.21943,0.24413 0.3295,0.56868 0.3295,0.97367 0,0.40534 -0.11007,0.72743 -0.3295,0.96661 -0.22472,0.23425 -0.52528,0.35137 -0.90099,0.35137 -0.38065,0 -0.68086,-0.11712 -0.90064,-0.35137 -0.21485,-0.23389 -0.32209,-0.55633 -0.32209,-0.96661 m 0.51999,0 c 0,0.28328 0.0603,0.49777 0.18274,0.64452 0.12242,0.15135 0.29528,0.22684 0.52,0.22684 0.21978,0 0.39264,-0.0755 0.51999,-0.22684 0.12665,-0.15628 0.1905,-0.37112 0.1905,-0.64452 0,-0.27305 -0.0639,-0.49036 -0.1905,-0.65123 -0.12735,-0.15169 -0.30021,-0.22719 -0.51999,-0.22719 -0.22472,0 -0.39758,0.0755 -0.52,0.22719 -0.12241,0.15099 -0.18274,0.3683 -0.18274,0.65123"
         style="fill:#99999c;fill-opacity:1;fill-rule:nonzero;stroke:none;stroke-width:0.35277778"
         id="path238"
         inkscape:connector-curvature="0" />
      <path
         d="m 113.82057,188.68182 v -2.25531 c 0,-0.073 0.0254,-0.13546 0.0765,-0.18662 0.0511,-0.0512 0.11395,-0.079 0.18662,-0.0843 h 0.2787 l 1.02482,1.73531 v -1.73531 h 0.51258 v 2.52624 h -0.53445 l -1.03223,-1.73531 v 1.73531 z"
         style="fill:#99999c;fill-opacity:1;fill-rule:nonzero;stroke:none;stroke-width:0.35277778"
         id="path242"
         inkscape:connector-curvature="0" />
      <path
         d="m 91.397563,171.65937 h -8.251472 l -8.869186,-14.42649 h 8.252178 z"
         style="fill:#99999c;fill-opacity:1;fill-rule:nonzero;stroke:none;stroke-width:0.35277778"
         id="path246"
         inkscape:connector-curvature="0" />
      <path
         d="m 100.94083,171.65937 h -8.251825 l -8.869539,-14.42649 h 8.251825 z"
         style="fill:#99999c;fill-opacity:1;fill-rule:nonzero;stroke:none;stroke-width:0.35277778"
         id="path250"
         inkscape:connector-curvature="0" />
      <path
         d="m 102.28816,171.65937 -8.92563,-14.42649 h 8.92563 z"
         style="fill:#99999c;fill-opacity:1;fill-rule:nonzero;stroke:none;stroke-width:0.35277778"
         id="path254"
         inkscape:connector-curvature="0" />
      <path
         d="m 102.32912,176.99118 h 0.87701 c 0.20672,0 0.38382,0.0744 0.53128,0.22154 0.14781,0.14747 0.22154,0.32456 0.22154,0.53129 v 0.46496 h -1.62983 z"
         style="fill:#ab262e;fill-opacity:1;fill-rule:nonzero;stroke:none;stroke-width:0.35277778"
         id="path266"
         inkscape:connector-curvature="0" />
    </g>
  </g>
</svg>
