<?xml version="1.0" encoding="utf-8"?>
<!-- Generator: Adobe Illustrator 27.0.0, SVG Export Plug-In . SVG Version: 6.00 Build 0)  -->
<svg version="1.1" id="Layer_1" xmlns="http://www.w3.org/2000/svg" xmlns:xlink="http://www.w3.org/1999/xlink" x="0px" y="0px"
	 viewBox="0 0 302.91 251.06" style="enable-background:new 0 0 302.91 251.06;" xml:space="preserve">
<style type="text/css">
	.st0{fill:#CB2026;}
	.st1{fill:#010101;}
</style>
<g>
	<path class="st0" d="M208.81,9.67l6.64-8.38c0.41-0.52,0.04-1.29-0.62-1.29h-2.8c-1.35,0-2.68,0.34-3.86,0.98L196.3,7.45
		c0,0-33.73,0-39.18,0s-10.67,1.44-10.67,3c0,1.56,9.59,3.56,19.26,3.56c9.67,0,5.19,0,7.74,0c13.11,0,99.25-3.22,95.47,22.67
		c-3.68,25.22-37.93,45.48-87.35,40.98l11.05-21.92c5.75-11.41,13.88-21.46,23.85-29.47h-43.86c3.19,4.38,3.72,10.16,1.37,15.05
		l-41.38,86.02l10.85-87.93c0.57-4.61,2.02-9.07,4.27-13.13h-34.45c0.53,3.76-0.14,7.58-1.93,10.93l-46.75,87.86l7.93-65.2
		c1.58-12.96,7.82-24.9,17.56-33.59H48.29c1.47,7.77,1.85,15.7,1.11,23.57l-9.36,99.97c-0.62,6.58-2.6,12.95-5.82,18.72h38.08
		c-1.61-3.97-1.47-8.42,0.37-12.29l42.75-89.81l-7.64,85.38c-0.53,5.93-2.43,11.65-5.55,16.72h38.38c-1.14-3.9-0.76-8.1,1.07-11.73
		l34.66-68.74c22.76,1.41,116.26,4.07,126.16-46.38C309.61,5.45,222.81,9.67,208.81,9.67z"/>
	<g>
		<g>
			<path class="st1" d="M2.28,189.87c-0.16-2.93-1.01-5.56-2.28-7.78h8.41c-1.14,1.14-1.9,2.15-2.15,3.47
				c-0.24,1.32-0.09,2.69,0.01,4.37l1.47,27.94h0.12l13.33-33.09c0.23-0.6,0.44-1.14,0.5-1.44c0.07-0.36,0.02-0.72-0.06-1.26h6.03
				c-0.27,0.54-0.46,0.9-0.52,1.26c-0.06,0.3-0.04,0.84-0.03,1.44l1.22,33.09h0.12l11.75-27.94c0.71-1.68,1.37-3.05,1.62-4.37
				c0.24-1.32-0.15-2.33-0.87-3.47h7.95c-2.09,2.21-3.91,4.85-5.14,7.78l-12.74,29.86c-0.4,0.9-0.7,1.62-0.81,2.21
				c-0.09,0.48-0.13,1.02-0.11,1.56h-5.92c0.27-0.54,0.46-0.9,0.52-1.26c0.06-0.3,0.04-0.84,0.03-1.44l-1.22-33.09h-0.12L9.93,220.8
				c-0.23,0.6-0.44,1.14-0.5,1.44c-0.07,0.36-0.02,0.72,0.06,1.26H3.58c0.21-0.54,0.37-1.08,0.46-1.56c0.11-0.6,0.07-1.32,0-2.21
				L2.28,189.87z"/>
			<path class="st1" d="M42.3,210.26L41.98,212c-0.68,3.69,0.29,8.07,5.91,8.07c3.62,0,7.29-2.27,10.22-4.74
				c-1.8,5.75-6.86,8.17-11.32,8.17c-4.51,0-9.95-2.11-7.85-13.44c2.1-11.39,7.76-14.76,13.28-14.76c3.52,0,8.94,1.58,7.12,11.44
				l-0.7,3.8c-0.56-0.11-1.32-0.26-2.21-0.26H42.3z M55.8,207.36l0.42-2.27c0.71-3.85-0.56-6.91-4.6-6.91c-5.3,0-7.81,4.8-8.78,9.17
				H55.8z"/>
			<path class="st1" d="M60.85,215.22c1.44,3,3.99,5.38,7.25,5.38c4.15,0,6.78-2.32,7.37-5.54c1.49-8.07-13.74-2.58-11.85-12.81
				c0.57-3.11,3.8-6.96,9.73-6.96c3.15,0,5.14,1.42,6.03,1.42c0.47,0,0.93-0.21,1.47-0.84l-1.31,7.12l-0.09-0.11
				c-1.34-2.69-3.49-4.69-7.11-4.69c-2.73,0-5.15,1.74-5.56,3.95c-1.27,6.85,13.89,1.79,11.94,12.34
				c-1.16,6.27-5.71,9.02-11.11,9.02c-2.89,0-5.38-1.27-6.64-1.27c-0.42,0-0.84,0-1.48,0.32L60.85,215.22z"/>
			<path class="st1" d="M89.7,190.6c0.11-0.58,0.1-1.37,0.03-2.16h3.67c-0.31,0.26-0.55,0.69-0.61,1.05l-1.32,7.17h4.99
				c1.15,0,2.83-0.26,3.71-0.79l-2.03,4.74c-0.81-1-1.48-1.05-2.43-1.05h-4.78l-2.91,15.76c-0.68,3.69,0.6,5.01,3.38,5.01
				c2.47,0,4.76-1.05,6.79-2.95c-1.3,4.48-4.59,6.12-8.27,6.12c-4.2,0-6.1-2.48-5.3-6.8l3.17-17.13h-2.26
				c-0.84,0-1.74,0.05-2.84,0.58l1.89-4.27c0.32,0.26,0.59,0.47,0.88,0.63c0.3,0.11,0.6,0.16,0.86,0.16c1.42,0,2.42-0.9,2.88-3.37
				L89.7,190.6z"/>
			<path class="st1" d="M104.82,210.26l-0.33,1.74c-0.71,3.69,0.31,8.07,6.14,8.07c3.76,0,7.57-2.27,10.61-4.74
				c-1.87,5.75-7.13,8.17-11.76,8.17c-4.69,0-10.33-2.11-8.16-13.44c2.18-11.39,8.06-14.76,13.78-14.76c3.65,0,9.29,1.58,7.4,11.44
				l-0.73,3.8c-0.58-0.11-1.37-0.26-2.29-0.26H104.82z M118.83,207.36l0.43-2.27c0.74-3.85-0.58-6.91-4.78-6.91
				c-5.5,0-8.11,4.8-9.12,9.17H118.83z"/>
			<path class="st1" d="M126.67,203.78c0.48-2.58,0.16-4.27-1.17-5.9l4.94-2l-0.54,2.9c3.02-2.69,5.42-3.48,8.09-3.48
				c0.94,0,1.55,0.16,2.05,0.26c0.5,0.16,0.94,0.32,1.52,0.32c0.73,0,1.18-0.16,1.47-0.26l-1.31,7.06l-0.09-0.11
				c-0.56-2.06-2.18-4.11-4.91-4.11c-2.57,0-6.23,1.63-7.45,8.22l-1.91,10.33c-0.34,1.85-0.45,4.16,0.69,5.9h-6.72
				c1.79-1.74,2.53-4.06,2.88-5.9L126.67,203.78z"/>
			<path class="st1" d="M146.11,202.83c0.43-2.21,0.03-3.58-0.92-4.96l5.28-2l-0.57,2.9c3.36-2.69,5.41-3.48,8.63-3.48
				c4.39,0,8.16,2.32,6.8,9.28l-2.44,12.44c-0.36,1.85-0.48,4.16,0.73,5.9h-7.12c1.9-1.74,2.68-4.06,3.05-5.9l2.31-11.81
				c0.78-4.01-0.07-7.01-4.52-7.01c-4,0-7.54,2.74-8.44,7.33l-2.25,11.49c-0.36,1.85-0.48,4.16,0.73,5.9h-7.12
				c1.9-1.74,2.68-4.06,3.05-5.9L146.11,202.83z"/>
		</g>
		<g>
			<path class="st1" d="M25,239.06c0.05-0.11,0.07-0.19,0.07-0.26c0-0.11-0.05-0.16-0.09-0.21h2.28c-0.07,0.09-0.07,0.16-0.07,0.25
				c0,0.09,0.02,0.25,0.07,0.35l3.86,9.35c0.3,0.74,0.74,1.59,1.49,2.26h-3c0.21-0.21,0.4-0.51,0.4-0.79c0-0.26-0.05-0.48-0.14-0.72
				l-0.51-1.27h-6.72l-0.37,0.95c-0.12,0.28-0.26,0.69-0.26,0.92c0,0.32,0.16,0.67,0.51,0.92h-2.88c0.51-0.46,1.09-1.41,1.42-2.21
				L25,239.06z M26,239.73h-0.05l-2.88,7.22h5.86L26,239.73z"/>
			<path class="st1" d="M60.54,240.44c0-0.81-0.26-1.41-0.86-1.85h3.35c-0.6,0.44-0.86,1.04-0.86,1.85v8.5
				c0,0.81,0.26,1.41,0.86,1.85h-3.35c0.6-0.44,0.86-1.04,0.86-1.85V240.44z"/>
			<path class="st1" d="M91.24,240.33c0-0.81-0.26-1.41-0.86-1.85c0.7,0.09,1.35,0.11,2.02,0.11c0.88,0,3.16-0.11,4.12-0.11
				c2.95,0,5.6,0.56,5.6,3.16c0,1.46-1.19,2.81-3.14,3.07v0.04c1.98,0.58,2.23,1.45,2.72,4.29c0.09,0.62,0.35,1.38,1.09,1.76h-1.47
				c-0.91,0-1.14-0.78-1.4-2.42c-0.33-2.15-1.07-3.19-4-3.19h-3.07v3.76c0,0.81,0.26,1.41,0.86,1.85h-3.35
				c0.6-0.44,0.86-1.04,0.86-1.85V240.33z M92.87,244.13h2c4.05,0,5.63-0.69,5.63-2.58c0-1.25-1.44-2.01-3.42-2.01h-2.33
				c-1.58,0-1.88,0.28-1.88,0.86V244.13z"/>
			<path class="st1" d="M128.29,240.44c0-0.81-0.26-1.41-0.86-1.85h3.35c-0.6,0.44-0.86,1.04-0.86,1.85v8.13
				c0,0.76,0.33,1.16,1.3,1.16h1.74c1.79,0,2.6-0.55,3.21-1.87l0.05,0.04v3.16c-0.14-0.12-0.3-0.18-0.44-0.21
				c-0.16-0.05-0.33-0.05-0.53-0.05h-7.81c0.6-0.44,0.86-1.04,0.86-1.85V240.44z"/>
			<path class="st1" d="M166.25,240.44c0-0.81-0.26-1.41-0.86-1.85h3.35c-0.6,0.44-0.86,1.04-0.86,1.85v8.5
				c0,0.81,0.26,1.41,0.86,1.85h-3.35c0.6-0.44,0.86-1.04,0.86-1.85V240.44z"/>
			<path class="st1" d="M197.28,240.44c0-0.81-0.26-1.41-0.86-1.85h3.23c-0.07,0.14-0.09,0.26-0.09,0.37c0,0.09,0.07,0.25,0.16,0.37
				l6.16,9.28h0.05v-8.17c0-0.81-0.26-1.41-0.86-1.85h3.12c-0.6,0.44-0.86,1.04-0.86,1.85v9.83c0,0.26,0.02,0.42,0.12,0.53h-2.07
				c0.05-0.11,0.05-0.19,0.05-0.26c0-0.07-0.07-0.19-0.14-0.3l-6.56-10.09h-0.05v8.8c0,0.56,0.09,1.32,0.86,1.85h-3.12
				c0.6-0.44,0.86-1.04,0.86-1.85V240.44z"/>
			<path class="st1" d="M232.96,240.44c0-0.81-0.26-1.41-0.86-1.85h9.3c0.51,0,0.81-0.02,1.14-0.26v3.03l-0.05-0.04
				c-0.98-1.46-1.88-1.68-3.7-1.68h-3.14c-0.7,0-1.07,0.32-1.07,0.81v3.39h3.37c1,0,1.86-0.14,2.46-0.92v2.89
				c-0.6-0.78-1.46-0.92-2.46-0.92h-3.37v4.04c0,0.56,0.26,0.79,1.09,0.79h4.05c1.79,0,2.6-0.55,3.21-1.87l0.05,0.04v3.16
				c-0.14-0.12-0.3-0.18-0.44-0.21c-0.16-0.05-0.33-0.05-0.53-0.05h-9.91c0.6-0.44,0.86-1.04,0.86-1.85V240.44z"/>
			<path class="st1" d="M267.78,247.53c1.02,1.46,2.46,2.47,4.65,2.47c2.63,0,3.72-1.16,3.72-2.73c0-3.46-8.14-1.8-8.14-5.82
				c0-1.76,1.79-3.12,4.51-3.12c1.77,0,2.53,0.46,3.46,0.46c0.42,0,0.79-0.16,1-0.3v3.21c-0.86-1.34-2.3-2.31-4.33-2.31
				c-1.93,0-3.02,0.79-3.02,2.03c0,2.84,8.14,1.34,8.14,5.87c0,1.53-1.14,3.78-5.14,3.78c-1.91,0-3.12-0.49-3.74-0.49
				c-0.4,0-0.7,0.12-1.12,0.49V247.53z"/>
		</g>
		<g>
			<path class="st1" d="M183.03,185.5c0.61-2.95,0.29-5.13-1.19-6.73c2.02,0.32,3.96,0.38,5.98,0.38c3.13,0,6.55-0.38,9.06-0.38
				c10.44,0,17.8,2.11,15.8,11.85c-1.53,7.43-8.77,11.79-17.46,12.75c-10.47,1.15-11.4,1.92-12,4.87l-1.76,8.52
				c-0.61,2.95-0.29,5.13,1.19,6.73h-10.03c2.14-1.6,3.36-3.78,3.96-6.73L183.03,185.5z M184.55,201.77
				c1.42-1.15,5.44-1.73,10.97-2.24c5.61-0.51,11.16-3.46,12.23-8.65c0.98-4.74-0.66-8.27-10.55-8.27c-7.17,0-8.77,0.32-9.44,3.59
				L184.55,201.77z"/>
			<g>
				<path class="st1" d="M211.74,196.71c0.36,0.4,0.97,0.7,1.75,0.7c0.95,0,2.62-0.51,4.79-0.51c5.85,0,8.25,2.44,6.93,8.85
					l-2.91,14.12c-0.25,1.19-0.01,2.24,0.93,3.08h-3.34c-1.23,0-1.24-1.29-1.09-2.29c-2.5,1.84-5.55,2.83-8.17,2.83
					c-5.63,0-8.46-2.24-7.47-7.01c2.29-11.09,17.7-5.82,19.2-13.08c0.57-2.78-2.18-3.78-4.57-3.78c-3.9,0-5.08,1.65-7.55,4.44
					L211.74,196.71z M221.2,208.98c-4.51,2.68-13.21,1.59-14.37,7.26c-0.64,3.08,0.85,4.52,4.2,4.52c3.4,0,8.18-2.09,9.35-7.76
					L221.2,208.98z"/>
				<path class="st1" d="M239.27,196.9c2.56,0,3.58,0.75,4.64,0.75c1.11,0,1.71-0.2,2.55-0.75l-1.59,7.71l-0.09-0.1
					c-0.82-2.24-2.23-4.87-5.69-4.87c-3.51,0-8.01,2.09-9.9,11.24c-1.53,7.41,2.13,9.4,5.81,9.4c3.29,0,6.2-1.94,8.4-4.23
					c-1.18,4.38-5.1,7.46-9.84,7.46c-4.24,0-10.16-2.09-7.98-12.68C227.8,200.08,234.08,196.9,239.27,196.9z"/>
				<path class="st1" d="M249.84,203.46c0.43-2.09,0.03-3.38-0.93-4.67l5.91-1.89l-4.22,20.48c-0.36,1.74-0.48,3.93,0.75,5.57h-7.41
					c1.9-1.64,2.68-3.83,3.04-5.57L249.84,203.46z M255.3,183.92c1.45,0,2.4,1.04,2.14,2.34s-1.65,2.34-3.1,2.34
					c-1.45,0-2.4-1.04-2.14-2.34S253.85,183.92,255.3,183.92z"/>
				<path class="st1" d="M278.69,203.46c0.43-2.09,0.03-3.38-0.93-4.67l5.91-1.89l-4.22,20.48c-0.36,1.74-0.48,3.93,0.75,5.57h-7.41
					c1.9-1.64,2.68-3.83,3.04-5.57L278.69,203.46z M284.15,183.58c1.45,0,2.4,1.04,2.14,2.34c-0.27,1.29-1.65,2.34-3.1,2.34
					s-2.4-1.04-2.14-2.34C281.31,184.62,282.7,183.58,284.15,183.58z"/>
				<path class="st1" d="M295.72,196.9c2.56,0,3.58,0.75,4.64,0.75c1.11,0,1.71-0.2,2.55-0.75l-1.59,7.71l-0.09-0.1
					c-0.82-2.24-2.23-4.87-5.69-4.87c-3.51,0-8.01,2.09-9.9,11.24c-1.53,7.41,2.13,9.4,5.81,9.4c3.29,0,6.2-1.94,8.4-4.23
					c-1.18,4.38-5.1,7.46-9.84,7.46c-4.24,0-10.16-2.09-7.98-12.68C284.25,200.08,290.53,196.9,295.72,196.9z"/>
				<path class="st1" d="M261.13,199.42h-2.73c-1.25,0-2.44,0.32-3.54,0.74l2.34-4.45c0.31,0.21,0.63,0.42,0.95,0.58
					c0.39,0.11,0.79,0.21,1.2,0.21h2.37l1.08-5.13c1.16-5.61,5.42-9,10.58-9c2.55,0,4.53,0.48,5.19,0.48c0.53,0,1.02-0.05,1.46-0.16
					l-1.26,6.09c-1.01-2.01-3.08-3.5-5.51-3.5c-3.56,0-6.14,2.44-6.82,5.72l-1.16,5.5h4.75c2.49,0,3.7-0.37,4.91-0.79l-2.4,4.45
					c-1.35-0.64-2.7-0.74-3.77-0.74h-4.1l-3.41,16.52c-0.59,2.86-0.39,5.61,1.18,6.94h-8.19c2.02-1.75,2.86-4.08,3.24-5.93
					L261.13,199.42z"/>
			</g>
		</g>
	</g>
</g>
</svg>
