<?xml version="1.0" encoding="UTF-8" standalone="no"?>
<svg
   xmlns:dc="http://purl.org/dc/elements/1.1/"
   xmlns:cc="http://creativecommons.org/ns#"
   xmlns:rdf="http://www.w3.org/1999/02/22-rdf-syntax-ns#"
   xmlns:svg="http://www.w3.org/2000/svg"
   xmlns="http://www.w3.org/2000/svg"
   width="500"
   height="120"
   viewBox="0 0 132.29166 31.750003"
   version="1.1"
   id="svg8">
  <defs
     id="defs2" />
  <metadata
     id="metadata5">
    <rdf:RDF>
      <cc:Work
         rdf:about="">
        <dc:format>image/svg+xml</dc:format>
        <dc:type
           rdf:resource="http://purl.org/dc/dcmitype/StillImage" />
        <dc:title></dc:title>
      </cc:Work>
    </rdf:RDF>
  </metadata>
  <g
     id="layer1">
    <path
       id="path14"
       style="fill:#b9babd;fill-opacity:1;fill-rule:evenodd;stroke:none;stroke-width:0.154155"
       d="M 28.518112,9.5357942 H 25.113439 L 20.639237,25.870271 h -0.07337 L 16.399351,9.5357942 H 12.810476 L 8.790987,25.870271 H 8.7175314 L 4.1946294,9.5357942 H 0.56837503 L 6.9724478,29.496536 h 3.5515842 l 4.019489,-15.867765 h 0.07345 l 4.056164,15.867765 h 3.478203 L 28.518112,9.5357942" />
    <path
       id="path16"
       style="fill:#b9babd;fill-opacity:1;fill-rule:evenodd;stroke:none;stroke-width:0.154155"
       d="m 31.639755,29.496536 h 3.281197 V 18.226343 c 0,-3.589536 1.929868,-6.256591 5.912008,-6.256591 2.507488,0 4.056287,1.585024 4.056287,4.018935 v 13.507849 h 3.281196 V 16.369851 c 0,-4.289878 -1.62218,-7.2880438 -6.870085,-7.2880438 -2.396654,0 -5.211833,1.0080208 -6.292771,3.3914158 h -0.07398 V 1.9401021 H 31.651781 V 29.496536 h -0.01224" />
    <path
       id="path18"
       style="fill:#b9babd;fill-opacity:1;fill-rule:evenodd;stroke:none;stroke-width:0.154155"
       d="m 56.565276,1.9401021 h -3.281813 v 4.0194442 h 3.281813 z M 53.283463,29.496536 h 3.281813 V 9.5357942 H 53.283463 V 29.496536" />
    <path
       id="path20"
       style="fill:#b9babd;fill-opacity:1;fill-rule:evenodd;stroke:none;stroke-width:0.154155"
       d="M 66.213237,1.9401021 H 62.93204 V 9.5478184 H 59.539393 V 12.43715 h 3.392647 v 12.696074 c 0,3.662387 1.351788,4.363312 4.74382,4.363312 h 2.507492 v -2.901258 h -1.511494 c -2.052732,0 -2.470647,-0.269771 -2.470647,-1.769764 V 12.43715 h 3.982141 V 9.5478184 H 66.201211 V 1.9401021 h 0.01224" />
    <path
       id="path22"
       style="fill:#b9babd;fill-opacity:1;fill-rule:evenodd;stroke:none;stroke-width:0.154155"
       d="m 76.205578,17.610925 c 0.233695,-3.048174 2.273794,-5.629149 5.715155,-5.629149 3.24512,0 5.592443,2.508106 5.752612,5.629149 z m 11.393617,5.555617 c -0.577463,2.580883 -2.47003,3.896629 -5.174376,3.896629 -4.363362,0 -6.329459,-3.084909 -6.219241,-6.563639 H 91.138753 C 91.335786,15.669524 89.172656,9.0818072 82.105102,9.0818072 c -5.444916,0 -9.377574,4.4000538 -9.377574,10.3850078 0.196246,6.096348 3.207663,10.496402 9.574431,10.496402 4.474201,0 7.644559,-2.396637 8.529719,-6.796675 h -3.232483" />
    <path
       id="path24"
       style="fill:#e01820;fill-opacity:1;fill-rule:evenodd;stroke:none;stroke-width:0.154155"
       d="m 77.225623,3.3780622 c -0.07337,-1.0200455 -0.933869,-1.5235164 -1.879921,-1.5235164 -1.303074,0 -2.052732,0.9220026 -2.052732,2.1751308 0,1.2048775 0.811009,2.0527315 2.027449,2.0527315 1.057354,0 1.794523,-0.5780824 1.930024,-1.6469949 h -1.056886 c -0.07398,0.4920637 -0.36907,0.8111651 -0.873138,0.8111651 -0.687686,0 -0.921232,-0.6876867 -0.921232,-1.2657691 0,-0.5901061 0.233563,-1.3030745 0.946515,-1.3030745 0.454603,0 0.737016,0.2463406 0.811166,0.6883033 -0.01267,0.012017 1.068755,0.012017 1.068755,0.012017" />
    <path
       id="path26"
       style="fill:#6db840;fill-opacity:1;fill-rule:evenodd;stroke:none;stroke-width:0.154155"
       d="m 78.848572,3.968785 c 0,-0.6394359 0.220891,-1.2910503 0.970715,-1.2910503 0.749658,0 0.983357,0.6394363 0.983357,1.2910503 0,0.6389736 -0.221066,1.2777933 -0.983357,1.2777933 -0.749811,0.012629 -0.970715,-0.6388197 -0.970715,-1.2777933 z m -1.106217,0 c 0,1.2777933 0.811163,2.1136231 2.076932,2.1136231 1.266386,0 2.076779,-0.8358298 2.076779,-2.1136231 0,-1.2784095 -0.810393,-2.1142392 -2.076779,-2.1142392 -1.265769,0 -2.076932,0.8358297 -2.076932,2.1142392" />
    <path
       id="path28"
       style="fill:#6aabdc;fill-opacity:1;fill-rule:evenodd;stroke:none;stroke-width:0.154155"
       d="M 83.751944,0.429226 V 5.9715705 H 82.645881 V 0.429226 h 1.106063" />
    <path
       id="path30"
       style="fill:#214398;fill-opacity:1;fill-rule:evenodd;stroke:none;stroke-width:0.154155"
       d="m 85.595793,3.968785 c 0,-0.6394359 0.221678,-1.2910503 0.971331,-1.2910503 0.749042,0 0.982741,0.6394363 0.982741,1.2910503 0,0.6389736 -0.220891,1.2777933 -0.982741,1.2777933 -0.749653,0.012629 -0.971331,-0.6388197 -0.971331,-1.2777933 z m -1.106063,0 c 0,1.2777933 0.811009,2.1136231 2.077394,2.1136231 1.26577,0 2.076936,-0.8358298 2.076936,-2.1136231 0,-1.2784095 -0.811166,-2.1142392 -2.076936,-2.1142392 -1.266385,0 -2.077394,0.8358297 -2.077394,2.1142392" />
    <path
       id="path32"
       style="fill:#e2781f;fill-opacity:1;fill-rule:evenodd;stroke:none;stroke-width:0.154155"
       d="m 93.117492,1.9647667 h -1.1056 v 2.1015988 c 0,0.8116275 -0.258209,1.1441405 -0.860497,1.1441405 -0.516575,0 -0.712969,-0.3203337 -0.712969,-0.9833566 V 1.9647667 h -1.106064 v 2.4706465 c 0,0.995997 0.295046,1.6469949 1.462627,1.6469949 0.467245,0 0.946052,-0.2210572 1.229081,-0.6636387 h 0.02447 v 0.5654415 h 1.044712 l 0.02403,-4.0194442" />
    <path
       id="path34"
       style="fill:#db027d;fill-opacity:1;fill-rule:evenodd;stroke:none;stroke-width:0.154155"
       d="m 93.953322,5.9715705 h 1.106216 V 4.1656416 c 0,-0.7014065 0.283029,-1.2910503 1.081554,-1.2910503 0.135331,0 0.295046,0.012017 0.393103,0.037449 V 1.8912347 c -0.07337,-0.024034 -0.15954,-0.036706 -0.24558,-0.036706 -0.540159,0 -1.081554,0.3439216 -1.277791,0.8598783 h -0.01267 V 1.9647667 h -1.044865 v 4.0068038" />
    <path
       id="path36"
       style="fill:#6aabdc;fill-opacity:1;fill-rule:evenodd;stroke:none;stroke-width:0.154155"
       d="m 97.751246,3.5382295 c 0.01224,-0.3070758 0.220891,-0.8604948 0.909206,-0.8604948 0.541396,0 0.775095,0.2950546 0.885313,0.8604948 z m 2.888564,0.7009441 c 0.0735,-1.2296967 -0.57809,-2.3846278 -1.954695,-2.3846278 -1.216282,0 -2.052111,0.9093618 -2.052111,2.1142392 0,1.241721 0.786499,2.1136231 2.052111,2.1136231 0.90998,0 1.573615,-0.4058891 1.880695,-1.3519416 h -0.970715 c -0.07416,0.2457245 -0.430552,0.5161118 -0.873134,0.5161118 -0.614309,0 -0.958694,-0.3191014 -0.98274,-1.0194289 l 2.900589,0.012017" />
    <path
       id="path38"
       style="fill:#e01820;fill-opacity:1;fill-rule:evenodd;stroke:none;stroke-width:0.154155"
       d="m 104.14268,3.9567612 c 0,0.6630216 -0.22107,1.2898171 -0.94667,1.2898171 -0.6883,0 -0.97072,-0.6636386 -0.97072,-1.2898171 0,-0.6636387 0.24572,-1.2790265 0.97072,-1.2790265 0.71297,0 0.94667,0.6274121 0.94667,1.2790265 z m 0.0122,2.0148093 h 1.04472 V 0.429226 h -1.10607 v 2.0154259 c -0.24571,-0.3937105 -0.7125,-0.602747 -1.19239,-0.602747 -1.17959,0 -1.78173,0.9959975 -1.78173,2.0775508 0,1.1060637 0.58949,2.1509281 1.79437,2.1509281 0.51611,0 0.95869,-0.1848319 1.21706,-0.6269493 h 0.0122 l 0.0122,0.528136" />
    <path
       id="path40"
       style="fill:#214398;fill-opacity:1;fill-rule:evenodd;stroke:none;stroke-width:0.154155"
       d="m 111.13562,3.968785 c 0,0.6636386 -0.28241,1.2777933 -0.93387,1.2777933 -0.65161,0 -0.94605,-0.6141547 -0.94605,-1.2777933 0,-0.6756625 0.28241,-1.2910503 0.94605,-1.2910503 0.65146,0 0.93387,0.6153878 0.93387,1.2910503 z m -2.93743,2.0027855 h 1.04487 V 5.4556126 h 0.0127 c 0.24571,0.4419631 0.72499,0.6267955 1.3151,0.6267955 0.79852,0 1.65901,-0.6389736 1.65901,-2.1136231 0,-1.4632414 -0.86049,-2.1142392 -1.65901,-2.1142392 -0.49191,0 -0.996,0.1842157 -1.26639,0.6021304 h -0.0122 V 0.429226 h -1.10622 l 0.0122,5.5423445" />
    <path
       id="path42"
       style="fill:#6db840;fill-opacity:1;fill-rule:evenodd;stroke:none;stroke-width:0.154155"
       d="m 116.59303,1.9647667 h -1.14291 l -0.87314,2.753059 h -0.024 l -0.90984,-2.753059 h -1.17975 l 1.4133,3.7610803 c 0.12287,0.3198704 0,0.7129679 -0.38109,0.7498111 -0.22107,0.012017 -0.42994,-0.024646 -0.651,-0.036837 v 0.9099727 c 0.22107,0.024034 0.45461,0.036706 0.67567,0.036706 0.76229,0 1.1429,-0.2583662 1.3766,-0.9098246 l 1.69617,-4.5108913" />
    <path
       id="path44"
       style="fill:#db027d;fill-opacity:1;fill-rule:evenodd;stroke:none;stroke-width:0.154155"
       d="m 122.7756,1.9647667 h -1.14357 l -0.87251,2.753059 h -0.0131 l -0.90995,-2.753059 h -1.17962 l 1.41331,3.7610803 c 0.12279,0.3198704 0,0.7129679 -0.3806,0.7498111 -0.22155,0.012017 -0.43043,-0.024646 -0.63947,-0.036837 v 0.9099727 c 0.22111,0.024034 0.45462,0.036706 0.67613,0.036706 0.76186,0 1.14308,-0.2583662 1.38862,-0.9098246 l 1.65968,-4.5108913" />
    <path
       id="path46"
       style="fill:#e2781f;fill-opacity:1;fill-rule:evenodd;stroke:none;stroke-width:0.154155"
       d="m 124.12738,3.968785 c 0,-0.6394359 0.22111,-1.2910503 0.9707,-1.2910503 0.74981,0 0.98337,0.6394363 0.98337,1.2910503 0,0.6389736 -0.22111,1.2777933 -0.98337,1.2777933 -0.73762,0.012629 -0.9707,-0.6388197 -0.9707,-1.2777933 z m -1.10607,0 c 0,1.2777933 0.81098,2.1136231 2.07677,2.1136231 1.2664,0 2.07756,-0.8358298 2.07756,-2.1136231 0,-1.2784095 -0.81116,-2.1142392 -2.07756,-2.1142392 -1.2536,0 -2.07677,0.8358297 -2.07677,2.1142392" />
    <path
       id="path48"
       style="fill:#6aabdc;fill-opacity:1;fill-rule:evenodd;stroke:none;stroke-width:0.154155"
       d="m 131.66171,1.9647667 h -1.10607 v 2.1015988 c 0,0.8116275 -0.25825,1.1441405 -0.84847,1.1441405 -0.51612,0 -0.71297,-0.3203337 -0.71297,-0.9833566 V 1.9647667 h -1.10621 v 2.4706465 c 0,0.995997 0.29496,1.6469949 1.4626,1.6469949 0.46744,0 0.94667,-0.2210572 1.22908,-0.6636387 h 0.0262 v 0.5654415 h 1.04468 l 0.0131,-4.0194442" />
  </g>
</svg>
