<?xml version="1.0" encoding="UTF-8" standalone="no"?>
<svg
   width="254.60426"
   height="74.514847"
   viewBox="-0.3779297 -0.2924805 254.60426 74.514846"
   enable-background="new -0.3779297 -0.2924805 501 185"
   version="1.1"
   id="svg7"
   sodipodi:docname="Wideroe_logo.svg"
   inkscape:version="1.4 (86a8ad7, 2024-10-11)"
   xmlns:inkscape="http://www.inkscape.org/namespaces/inkscape"
   xmlns:sodipodi="http://sodipodi.sourceforge.net/DTD/sodipodi-0.dtd"
   xmlns="http://www.w3.org/2000/svg"
   xmlns:svg="http://www.w3.org/2000/svg">
  <defs
     id="defs7" />
  <sodipodi:namedview
     id="namedview7"
     pagecolor="#ffffff"
     bordercolor="#000000"
     borderopacity="0.25"
     inkscape:showpageshadow="2"
     inkscape:pageopacity="0.0"
     inkscape:pagecheckerboard="0"
     inkscape:deskcolor="#d1d1d1"
     inkscape:zoom="1.3750248"
     inkscape:cx="169.45149"
     inkscape:cy="77.45315"
     inkscape:window-width="1920"
     inkscape:window-height="1001"
     inkscape:window-x="-9"
     inkscape:window-y="-9"
     inkscape:window-maximized="1"
     inkscape:current-layer="svg7" />
  <path
     d="m 155.98403,7.2939874 c -1.5571,0.8524555 -4.03047,3.1810256 -6.88836,6.3882316 3.60235,3.647068 7.72773,8.356841 12.1738,14.336843 C 168.28818,18.60606 172.88042,12.031303 176.20244,9.5928344 179.5239,7.1502755 190.28567,3.9891564 209.2333,0.79122292 180.74505,3.3674043 160.23104,4.9645984 155.98403,7.2939874 Z"
     style="fill:#4ea322;stroke-width:0.558486"
     id="path1" />
  <path
     d="m 140.22862,5.877047 c -4.61078,-3.3465539 -30.68948,-5.36452208 -63.765876,-6.1695275 15.827958,2.3640219 36.101166,5.7664792 41.938286,9.4397262 4.64268,2.9249623 9.69742,8.4105623 18.32178,18.3845043 l 24.54666,0.487313 C 152.46459,16.186135 144.91957,9.2852303 140.22862,5.877047 Z"
     style="fill:#00482d;stroke-width:0.558486"
     id="path2" />
  <path
     d="m 211.21854,39.176243 c -2.91187,-2.987138 -7.0018,-4.329632 -13.24932,-4.329632 -6.21044,0 -10.31891,1.333496 -13.30114,4.321451 l -0.0186,0.0082 c -2.79843,2.965319 -3.7987,6.980534 -3.7987,15.364373 0,8.372381 1.00027,12.387043 3.78888,15.335459 3.01059,3.019317 7.11906,4.346269 13.32949,4.346269 6.24753,0 10.32764,-1.326952 13.24932,-4.329363 3.19439,-3.273466 3.79815,-7.922429 3.79815,-15.352365 0,-7.433212 -0.60376,-12.087631 -3.79815,-15.364373 z m -13.24932,28.043203 c -2.24103,0 -3.96831,-0.220881 -5.31925,-0.668105 l 14.73444,-19.508844 c 0.42595,1.88435 0.47231,4.30918 0.47231,7.342134 0,9.13103 -0.37633,12.834815 -9.8875,12.834815 z m 0,-25.434024 c 2.57209,0 4.45535,0.260153 5.8641,0.823002 L 188.73674,62.61848 c -0.65938,-2.014694 -0.72701,-4.739498 -0.72701,-8.233849 0,-8.960867 0.38342,-12.599209 9.95949,-12.599209 z"
     style="fill:#00482d;stroke-width:0.558486"
     id="path3" />
  <path
     d="m 141.94444,63.787269 c -0.75702,2.328296 -3.3711,3.375458 -8.45747,3.375458 -8.35793,0 -9.44818,-3.143664 -9.56626,-10.265457 1.12816,0 25.63637,0 25.63637,0 v -1.454023 c 0,-6.089354 -0.16853,-11.037743 -2.31139,-14.690807 -2.35175,-4.028573 -6.82073,-5.909374 -14.05542,-5.909374 -13.74427,0 -16.43307,7.228145 -16.43307,19.742815 0,5.978638 0.47394,10.661411 2.80824,14.053779 2.52874,3.663977 6.93363,5.367248 13.84082,5.367248 9.45499,0 14.66952,-3.366733 15.51271,-10.021661 l 0.0355,-0.197978 h -7.00999 v 0 z m -8.75417,-22.163283 c 7.07489,0 9.08521,1.785083 9.32846,8.494005 -1.1006,0 -17.38969,0 -18.49767,0 0.31415,-6.321148 2.68526,-8.494005 9.16921,-8.494005 z"
     style="fill:#00482d;stroke-width:0.558486"
     id="path4" />
  <path
     d="m 254.22634,55.443247 c 0,-6.089354 -0.17398,-11.037743 -2.3032,-14.690807 -2.35994,-4.028573 -6.82455,-5.909374 -14.05978,-5.909374 -13.74946,0 -16.43336,7.228145 -16.43336,19.742815 0,5.978638 0.47669,10.661411 2.81262,14.053779 2.52082,3.663977 6.91944,5.367248 13.84271,5.367248 9.45609,0 14.66954,-3.366733 15.51708,-10.021661 l 0.0223,-0.197978 h -7.01107 c -0.74283,2.328296 -3.35474,3.375458 -8.45584,3.375458 -8.35001,0 -9.44518,-3.143664 -9.57389,-10.265457 1.13497,0 25.64238,0 25.64238,0 v -1.454023 0 z m -25.53328,-5.325256 c 0.30705,-6.321148 2.68661,-8.494005 9.1703,-8.494005 7.06507,0 9.07976,1.785083 9.32301,8.494005 -1.09789,0 -17.37853,0 -18.49331,0 z"
     style="fill:#00482d;stroke-width:0.558486"
     id="path5" />
  <polygon
     points="146.65234,157.37256 146.65234,91.032715 133.85986,91.032715 133.85986,157.37256 "
     style="fill:#00482d"
     transform="matrix(0.55848623,0,0,0.55848623,-12.697351,-14.463251)"
     id="polygon5" />
  <polygon
     points="122.5415,91.012695 109.06787,91.012695 93.686523,137.71533 78.317871,91.012695 66.276367,91.012695 50.896484,137.71533 35.533691,91.012695 22.058594,91.012695 43.828613,157.35693 57.942383,157.35693 72.285156,113.40186 86.822754,157.35693 100.74365,157.35693 "
     style="fill:#00482d"
     transform="matrix(0.55848623,0,0,0.55848623,-12.697351,-14.463251)"
     id="polygon6" />
  <path
     d="m 110.09654,58.314758 c 0,0.0229 0,-37.379308 0,-37.379308 h -7.15206 c 0,0 0,14.019968 0,15.846501 -2.49546,-1.232324 -5.615134,-1.826533 -9.739152,-1.826533 -6.168163,0 -10.242548,1.325859 -13.219871,4.300453 -2.809063,2.951141 -3.792144,6.951627 -3.792144,15.284745 0,8.321113 1.083704,12.585027 3.751788,15.253653 2.679533,2.67626 6.674837,4.323359 13.260227,4.323359 6.220791,0 10.246362,-1.364042 13.186052,-4.303729 2.4922,-2.495735 3.70516,-7.51775 3.70516,-11.499141 z M 93.205328,41.884139 c 9.509262,0 9.886952,3.61325 9.886952,12.511946 0,8.822332 -0.40114,12.729558 -9.886952,12.729558 -9.472994,0 -9.87059,-3.907226 -9.87059,-12.729558 0,-8.898696 0.379866,-12.511946 9.87059,-12.511946 z"
     style="fill:#00482d;stroke-width:0.558486"
     id="path6" />
  <path
     d="m 163.69867,73.418426 h -7.15724 l -0.006,-37.054521 h 7.19541 v 2.693442 c 2.8917,-1.71091 5.23308,-2.693442 10.71378,-2.693442 1.27732,0 1.88598,0.01991 2.32557,0.05318 v 7.000714 c -0.64466,-0.09926 -1.54893,-0.152711 -2.32557,-0.152711 -1.76436,0 -5.82866,0.189253 -8.19568,2.568818 -1.6651,1.658554 -2.56064,4.388809 -2.56064,9.167574 l 0.01,18.416952 v 0 z"
     style="fill:#00482d;stroke-width:0.558486"
     id="path7" />
</svg>
