<?xml version="1.0" encoding="utf-8"?>
<!-- Generator: Adobe Illustrator 16.0.3, SVG Export Plug-In . SVG Version: 6.00 Build 0)  -->
<!DOCTYPE svg PUBLIC "-//W3C//DTD SVG 1.1//EN" "http://www.w3.org/Graphics/SVG/1.1/DTD/svg11.dtd">
<svg version="1.1" id="Ebene_2" xmlns="http://www.w3.org/2000/svg" xmlns:xlink="http://www.w3.org/1999/xlink" x="0px" y="0px"
	 width="788.684px" height="75.686px" viewBox="0 0 788.684 75.686" enable-background="new 0 0 788.684 75.686"
	 xml:space="preserve">
<polygon fill="#C23C42" points="687.916,7.093 704.332,39.925 704.332,7.093 781.601,7.093 773.018,24.26 731.334,24.26 
	731.334,33.761 768.267,33.761 768.268,33.762 759.683,50.929 731.75,50.929 731.75,68.593 731.75,68.593 687.916,68.593 
	670.5,33.761 670.5,68.593 626.416,68.593 595.666,7.093 626.416,7.093 642.832,39.925 642.832,7.093 "/>
<polyline fill="#C23C42" points="8.249,7.093 582.022,7.093 582.041,7.093 590.091,23.191 590.091,23.192 8.249,23.192 "/>
<line fill="none" stroke="#E30613" stroke-miterlimit="10" x1="8.249" y1="7.093" x2="8.249" y2="23.192"/>
<polygon fill="#C23C42" points="604.741,52.493 612.791,68.593 8.249,68.593 8.249,52.493 "/>
<g>
	<path d="M45.743,29.843l-7.15,17.342h-7.176l-3.848-12.298l-4.004,12.298h-7.098L9.42,29.843h5.434l5.044,13.156l4.55-13.156h6.37
		l4.316,13.156l5.226-13.156H45.743z"/>
	<path d="M53.386,29.843v17.342h-5.33V29.843H53.386z"/>
	<path d="M62.2,42.713v4.472h-5.33V29.843h16.12c1.074,0,1.98,0.1,2.717,0.299c0.736,0.199,1.334,0.516,1.794,0.949
		c0.459,0.434,0.789,0.997,0.988,1.689c0.199,0.693,0.299,1.543,0.299,2.548c0,1.04-0.083,1.864-0.247,2.471
		c-0.165,0.606-0.407,1.083-0.728,1.43s-0.715,0.607-1.183,0.78c-0.468,0.173-0.997,0.347-1.586,0.52
		c0.485,0.104,0.945,0.195,1.378,0.273s0.81,0.229,1.131,0.455c0.32,0.226,0.572,0.55,0.754,0.975s0.273,1.036,0.273,1.833v3.12
		h-5.33v-2.288c0-0.745-0.152-1.296-0.455-1.651c-0.303-0.354-0.915-0.532-1.833-0.532H62.2z M62.2,38.501h7.93
		c0.139,0,0.251,0.004,0.338,0.013c0.086,0.009,0.199,0.013,0.338,0.013c0.624,0,1.113-0.034,1.469-0.104
		c0.355-0.069,0.624-0.195,0.806-0.377c0.182-0.183,0.294-0.43,0.338-0.741c0.043-0.313,0.065-0.711,0.065-1.196
		c0-0.468-0.048-0.836-0.143-1.104s-0.256-0.477-0.481-0.624s-0.529-0.238-0.91-0.273c-0.382-0.034-0.858-0.052-1.43-0.052H62.2
		V38.501z"/>
	<path d="M93.141,34.185v13h-5.33v-13h-7.774v-4.342h20.748v4.342H93.141z"/>
	<path d="M118.282,35.146c-0.018-0.398-0.087-0.715-0.208-0.949c-0.122-0.233-0.334-0.407-0.637-0.52
		c-0.304-0.112-0.702-0.187-1.196-0.221c-0.494-0.035-1.131-0.053-1.911-0.053c-0.139,0-0.251,0-0.338,0s-0.199,0.009-0.338,0.026
		c-1.127,0.052-2.071,0.078-2.834,0.078s-1.378,0.039-1.846,0.117c-0.468,0.077-0.806,0.221-1.014,0.429s-0.312,0.555-0.312,1.04
		c0,0.434,0.156,0.759,0.468,0.975c0.312,0.217,0.745,0.334,1.3,0.352c0.78,0.018,1.521,0.034,2.223,0.052
		c0.702,0.018,1.356,0.026,1.963,0.026c0.364,0,0.741-0.005,1.131-0.014s0.758-0.013,1.105-0.013c1.438,0,2.687,0.039,3.744,0.117
		c1.057,0.078,1.928,0.29,2.613,0.637c0.685,0.347,1.191,0.875,1.521,1.586c0.329,0.711,0.494,1.708,0.494,2.99
		c0,0.901-0.087,1.664-0.26,2.288s-0.446,1.14-0.819,1.547c-0.373,0.407-0.845,0.724-1.417,0.949
		c-0.572,0.226-1.257,0.381-2.054,0.468c-0.468,0.052-1.369,0.113-2.704,0.182c-1.335,0.069-3.042,0.104-5.122,0.104
		c-2.045,0-3.714-0.062-5.005-0.183c-1.291-0.121-2.232-0.39-2.821-0.806c-0.416-0.295-0.724-0.611-0.923-0.949
		c-0.2-0.338-0.338-0.697-0.416-1.079c-0.078-0.381-0.117-0.793-0.117-1.234c0-0.442,0-0.923,0-1.443h5.226c0,0.191,0,0.39,0,0.598
		s0.043,0.395,0.13,0.56c0.086,0.165,0.243,0.312,0.468,0.441c0.225,0.131,0.572,0.213,1.04,0.247
		c0.225,0.018,0.646,0.035,1.261,0.053s1.391,0.025,2.327,0.025c1.213,0,2.206-0.008,2.977-0.025
		c0.771-0.018,1.374-0.078,1.807-0.183c0.433-0.104,0.728-0.26,0.884-0.468c0.156-0.208,0.234-0.511,0.234-0.91
		c0-0.381-0.078-0.68-0.234-0.896c-0.156-0.217-0.381-0.373-0.676-0.469c-0.295-0.095-0.646-0.151-1.053-0.169
		c-0.408-0.017-0.854-0.025-1.339-0.025c-1.699-0.018-3.207-0.021-4.524-0.014c-1.318,0.01-2.462-0.021-3.432-0.091
		c-0.971-0.068-1.79-0.19-2.457-0.363c-0.667-0.174-1.205-0.451-1.612-0.832c-0.407-0.382-0.702-0.885-0.884-1.509
		s-0.273-1.412-0.273-2.365c0-0.85,0.074-1.586,0.221-2.21c0.147-0.624,0.394-1.148,0.741-1.573s0.802-0.754,1.365-0.988
		c0.563-0.234,1.261-0.403,2.093-0.507c0.555-0.069,1.452-0.139,2.691-0.208s2.795-0.104,4.667-0.104
		c0.988,0,1.876,0.005,2.665,0.014c0.789,0.009,1.491,0.048,2.106,0.117s1.157,0.169,1.625,0.299
		c0.468,0.13,0.875,0.325,1.222,0.585c0.381,0.277,0.68,0.571,0.897,0.884c0.216,0.312,0.377,0.65,0.481,1.014
		c0.104,0.364,0.173,0.759,0.208,1.184s0.052,0.888,0.052,1.391H118.282z"/>
	<path d="M143.034,35.952c-0.018-0.537-0.096-0.944-0.234-1.222s-0.399-0.477-0.78-0.598c-0.381-0.121-0.923-0.187-1.625-0.195
		s-1.625-0.013-2.769-0.013c-1.3,0-2.349,0.013-3.146,0.039c-0.797,0.025-1.421,0.151-1.872,0.377s-0.754,0.603-0.91,1.131
		c-0.156,0.529-0.234,1.296-0.234,2.301c0,1.283,0.039,2.275,0.117,2.978c0.078,0.701,0.312,1.222,0.702,1.56
		c0.39,0.338,0.992,0.537,1.807,0.598c0.814,0.062,1.95,0.092,3.406,0.092c1.092,0,2.002,0,2.73,0s1.304-0.069,1.729-0.208
		c0.424-0.139,0.728-0.378,0.91-0.716c0.182-0.338,0.273-0.845,0.273-1.521h5.2c0,0.139,0.004,0.265,0.013,0.377
		c0.008,0.113,0.013,0.238,0.013,0.377c0,0.884-0.056,1.664-0.169,2.34s-0.308,1.248-0.585,1.716
		c-0.277,0.469-0.65,0.841-1.118,1.118c-0.468,0.277-1.049,0.451-1.742,0.521c-1.127,0.121-2.188,0.212-3.185,0.272
		c-0.997,0.061-1.911,0.091-2.743,0.091c-2.721,0-5.261-0.078-7.618-0.233c-0.919-0.052-1.699-0.251-2.34-0.599
		c-0.641-0.346-1.161-0.854-1.56-1.521c-0.399-0.667-0.689-1.504-0.871-2.509c-0.182-1.006-0.273-2.21-0.273-3.614
		c0-0.884,0.008-1.694,0.026-2.431c0.017-0.737,0.082-1.413,0.195-2.028s0.286-1.179,0.52-1.69c0.234-0.511,0.568-0.975,1.001-1.391
		s0.94-0.736,1.521-0.962s1.261-0.39,2.041-0.494c0.78-0.104,1.664-0.169,2.652-0.195c0.988-0.025,2.097-0.039,3.328-0.039
		c2.132,0,3.887,0.044,5.265,0.131s2.465,0.329,3.263,0.728c0.797,0.399,1.352,1.023,1.664,1.872
		c0.312,0.85,0.476,2.037,0.494,3.562H143.034z"/>
	<path d="M168.306,36.083v-6.24h5.33v17.342h-5.33v-6.604h-11.934v6.604h-5.33V29.843h5.33v6.24H168.306z"/>
	<path d="M194.099,44.038h-11.206l-1.716,3.146H175.3l9.672-17.342h7.124l9.464,17.342h-5.824L194.099,44.038z M192.174,40.45
		l-3.692-6.863l-3.744,6.863H192.174z"/>
	<path d="M203.926,47.185V29.843h18.382v4.056h-13.156v3.406h12.48v3.899h-12.48v5.98H203.926z"/>
	<path d="M236.659,34.185v13h-5.33v-13h-7.774v-4.342h20.748v4.342H236.659z"/>
	<path d="M261.801,35.146c-0.018-0.398-0.087-0.715-0.208-0.949c-0.122-0.233-0.334-0.407-0.637-0.52
		c-0.304-0.112-0.702-0.187-1.196-0.221c-0.494-0.035-1.131-0.053-1.911-0.053c-0.139,0-0.251,0-0.338,0s-0.199,0.009-0.338,0.026
		c-1.127,0.052-2.071,0.078-2.834,0.078s-1.378,0.039-1.846,0.117c-0.468,0.077-0.806,0.221-1.014,0.429s-0.312,0.555-0.312,1.04
		c0,0.434,0.156,0.759,0.468,0.975c0.312,0.217,0.745,0.334,1.3,0.352c0.78,0.018,1.521,0.034,2.223,0.052
		c0.702,0.018,1.356,0.026,1.963,0.026c0.364,0,0.741-0.005,1.131-0.014s0.758-0.013,1.105-0.013c1.438,0,2.687,0.039,3.744,0.117
		c1.057,0.078,1.928,0.29,2.613,0.637c0.685,0.347,1.191,0.875,1.521,1.586c0.329,0.711,0.494,1.708,0.494,2.99
		c0,0.901-0.087,1.664-0.26,2.288s-0.446,1.14-0.819,1.547c-0.373,0.407-0.845,0.724-1.417,0.949
		c-0.572,0.226-1.257,0.381-2.054,0.468c-0.468,0.052-1.369,0.113-2.704,0.182c-1.335,0.069-3.042,0.104-5.122,0.104
		c-2.045,0-3.714-0.062-5.005-0.183c-1.291-0.121-2.232-0.39-2.821-0.806c-0.416-0.295-0.724-0.611-0.923-0.949
		c-0.2-0.338-0.338-0.697-0.416-1.079c-0.078-0.381-0.117-0.793-0.117-1.234c0-0.442,0-0.923,0-1.443h5.226c0,0.191,0,0.39,0,0.598
		s0.043,0.395,0.13,0.56c0.086,0.165,0.243,0.312,0.468,0.441c0.225,0.131,0.572,0.213,1.04,0.247
		c0.225,0.018,0.646,0.035,1.261,0.053s1.391,0.025,2.327,0.025c1.213,0,2.206-0.008,2.977-0.025
		c0.771-0.018,1.374-0.078,1.807-0.183c0.433-0.104,0.728-0.26,0.884-0.468c0.156-0.208,0.234-0.511,0.234-0.91
		c0-0.381-0.078-0.68-0.234-0.896c-0.156-0.217-0.381-0.373-0.676-0.469c-0.295-0.095-0.646-0.151-1.053-0.169
		c-0.408-0.017-0.854-0.025-1.339-0.025c-1.699-0.018-3.207-0.021-4.524-0.014c-1.318,0.01-2.462-0.021-3.432-0.091
		c-0.971-0.068-1.79-0.19-2.457-0.363c-0.667-0.174-1.205-0.451-1.612-0.832c-0.407-0.382-0.702-0.885-0.884-1.509
		s-0.273-1.412-0.273-2.365c0-0.85,0.074-1.586,0.221-2.21c0.147-0.624,0.394-1.148,0.741-1.573s0.802-0.754,1.365-0.988
		c0.563-0.234,1.261-0.403,2.093-0.507c0.555-0.069,1.452-0.139,2.691-0.208s2.795-0.104,4.667-0.104
		c0.988,0,1.876,0.005,2.665,0.014c0.789,0.009,1.491,0.048,2.106,0.117s1.157,0.169,1.625,0.299
		c0.468,0.13,0.875,0.325,1.222,0.585c0.381,0.277,0.68,0.571,0.897,0.884c0.216,0.312,0.377,0.65,0.481,1.014
		c0.104,0.364,0.173,0.759,0.208,1.184s0.052,0.888,0.052,1.391H261.801z"/>
	<path d="M270.433,47.185V29.843h18.382v4.056h-13.156v3.406h12.48v3.899h-12.48v5.98H270.433z"/>
	<path d="M296.589,29.843v13.025h11.934v4.316h-17.264V29.843H296.589z"/>
	<path d="M327.633,29.843h5.33v10.92c0,1.682-0.286,3.008-0.858,3.978c-0.572,0.972-1.508,1.673-2.808,2.106
		c-0.746,0.243-1.647,0.39-2.704,0.441c-1.058,0.053-2.271,0.078-3.64,0.078c-1.439,0-2.743-0.004-3.913-0.013
		c-1.17-0.009-2.21-0.069-3.12-0.182c-0.91-0.113-1.699-0.304-2.366-0.572c-0.667-0.269-1.218-0.658-1.651-1.17
		c-0.434-0.511-0.754-1.166-0.962-1.963s-0.312-1.785-0.312-2.964v-10.66h5.33v9.1c0,0.729,0.022,1.331,0.065,1.808
		c0.043,0.477,0.134,0.87,0.273,1.183c0.138,0.312,0.342,0.546,0.611,0.702c0.269,0.156,0.628,0.269,1.079,0.338
		c0.451,0.069,1.005,0.108,1.664,0.117c0.658,0.009,1.456,0.013,2.392,0.013c0.693,0,1.308,0,1.846,0
		c0.537,0,1.01-0.021,1.417-0.065c0.407-0.043,0.754-0.12,1.04-0.233c0.286-0.112,0.524-0.29,0.715-0.533
		c0.295-0.347,0.464-0.78,0.507-1.3c0.043-0.521,0.065-1.17,0.065-1.95V29.843z"/>
	<path d="M346.482,40.685v-3.302h11.882c-0.018,1.335-0.031,2.505-0.039,3.51c-0.009,1.006-0.061,1.876-0.156,2.613
		c-0.095,0.736-0.273,1.352-0.533,1.846c-0.26,0.494-0.646,0.893-1.157,1.196c-0.511,0.303-1.188,0.516-2.028,0.637
		c-0.841,0.121-1.894,0.182-3.159,0.182c-0.555,0-1.114-0.004-1.677-0.013c-0.563-0.009-1.114-0.013-1.651-0.013h-1.612
		c-1.924,0-3.558-0.053-4.901-0.156c-1.344-0.104-2.44-0.398-3.289-0.884c-0.85-0.485-1.465-1.223-1.846-2.21
		c-0.381-0.988-0.572-2.366-0.572-4.134c0-0.537,0.017-1.262,0.052-2.172c0.035-0.909,0.087-1.997,0.156-3.263
		c0.017-0.555,0.139-1.092,0.364-1.612c0.225-0.52,0.516-0.979,0.871-1.378c0.355-0.398,0.763-0.731,1.222-1.001
		c0.459-0.269,0.949-0.438,1.469-0.507c1.04-0.139,2.08-0.233,3.12-0.286c1.04-0.052,2.08-0.078,3.12-0.078c1.404,0,2.665,0,3.783,0
		c1.118,0,2.11,0.035,2.977,0.104s1.612,0.187,2.236,0.351c0.624,0.165,1.144,0.412,1.56,0.741c0.398,0.313,0.71,0.642,0.936,0.988
		c0.225,0.347,0.39,0.72,0.494,1.118s0.169,0.832,0.195,1.3c0.026,0.468,0.039,0.971,0.039,1.508h-5.174
		c-0.035-0.45-0.104-0.802-0.208-1.053s-0.291-0.442-0.559-0.572c-0.269-0.13-0.641-0.212-1.118-0.247
		c-0.477-0.034-1.088-0.052-1.833-0.052h-1.326c-0.468,0-0.927-0.004-1.378-0.013c-0.451-0.009-0.867-0.014-1.248-0.014
		c-0.867,0-1.582,0.014-2.145,0.039c-0.563,0.026-1.019,0.161-1.365,0.403c-0.347,0.243-0.589,0.637-0.728,1.183
		c-0.139,0.546-0.208,1.339-0.208,2.379c0,0.954,0.021,1.751,0.065,2.393c0.043,0.642,0.143,1.161,0.299,1.56
		c0.156,0.399,0.39,0.698,0.702,0.897s0.732,0.342,1.261,0.429s1.187,0.13,1.976,0.13c0.789,0,1.746,0,2.873,0
		c0.832,0,1.56,0,2.184,0s1.144-0.061,1.56-0.182s0.723-0.325,0.923-0.611c0.199-0.286,0.299-0.715,0.299-1.287
		c0-0.104-0.004-0.182-0.013-0.233c-0.009-0.053-0.013-0.131-0.013-0.234H346.482z"/>
	<path d="M372.689,42.713v4.472h-5.33V29.843h16.119c1.076,0,1.98,0.1,2.719,0.299c0.736,0.199,1.334,0.516,1.793,0.949
		s0.789,0.997,0.988,1.689c0.199,0.693,0.299,1.543,0.299,2.548c0,1.04-0.082,1.864-0.246,2.471
		c-0.166,0.606-0.408,1.083-0.729,1.43c-0.322,0.347-0.715,0.607-1.184,0.78s-0.996,0.347-1.586,0.52
		c0.484,0.104,0.945,0.195,1.379,0.273c0.432,0.078,0.809,0.229,1.131,0.455c0.32,0.226,0.572,0.55,0.754,0.975
		s0.271,1.036,0.271,1.833v3.12h-5.328v-2.288c0-0.745-0.152-1.296-0.455-1.651c-0.305-0.354-0.916-0.532-1.834-0.532H372.689z
		 M372.689,38.501h7.93c0.139,0,0.252,0.004,0.338,0.013s0.199,0.013,0.338,0.013c0.625,0,1.113-0.034,1.469-0.104
		s0.625-0.195,0.807-0.377c0.182-0.183,0.295-0.43,0.338-0.741c0.043-0.313,0.064-0.711,0.064-1.196
		c0-0.468-0.047-0.836-0.143-1.104s-0.256-0.477-0.48-0.624c-0.227-0.147-0.529-0.238-0.91-0.273
		c-0.381-0.034-0.857-0.052-1.43-0.052h-8.32V38.501z"/>
	<path d="M409.609,36.083v-6.24h5.33v17.342h-5.33v-6.604h-11.934v6.604h-5.33V29.843h5.33v6.24H409.609z"/>
	<path d="M418.06,47.185V29.843h19.344v3.899h-14.117v3.017h13.182v3.432h-13.182v3.094h14.117v3.9H418.06z"/>
	<path d="M445.984,29.843v17.342h-5.33V29.843H445.984z"/>
	<path d="M473.257,29.843v17.342h-8.397l-10.426-13.026v13.026h-4.992V29.843h8.397l10.427,13v-13H473.257z"/>
	<path d="M488.545,38.709v4.42h-12.063v-4.42H488.545z"/>
	<path d="M521.175,29.843v17.342h-4.992V33.977l-7.645,13.208h-4.237l-7.54-13.208v13.208h-4.992V29.843h8.397l6.37,11.492
		l6.292-11.492H521.175z"/>
	<path d="M542.234,44.038h-11.206l-1.716,3.146h-5.876l9.672-17.342h7.124l9.464,17.342h-5.823L542.234,44.038z M540.311,40.45
		l-3.692-6.863l-3.743,6.863H540.311z"/>
	<path d="M557.367,29.843v17.342h-5.33V29.843H557.367z"/>
	<path d="M584.64,29.843v17.342h-8.397l-10.426-13.026v13.026h-4.992V29.843h8.397l10.427,13v-13H584.64z"/>
</g>
</svg>
