<?xml version="1.0" encoding="UTF-8" standalone="no"?>
<!-- Created with Inkscape (http://www.inkscape.org/) -->

<svg
   xmlns:dc="http://purl.org/dc/elements/1.1/"
   xmlns:cc="http://creativecommons.org/ns#"
   xmlns:rdf="http://www.w3.org/1999/02/22-rdf-syntax-ns#"
   xmlns:svg="http://www.w3.org/2000/svg"
   xmlns="http://www.w3.org/2000/svg"
   version="1.1"
   width="413.6875"
   height="61.625"
   id="svg3986">
  <defs
     id="defs3988" />
  <g
     transform="translate(-284.58482,-450.12111)"
     id="layer1">
    <path
       d="m 285.58482,451.12111 0,1.1875 c 2.09601,0.13059 3.58146,0.5837 4.46875,1.34375 0.88394,0.76005 2.46091,2.96424 4.6875,6.59375 l 21.90625,36.0625 1.78125,0 18.21875,-28.59375 16.4375,28.59375 1.9375,0 20.90625,-36.4375 c 1.84824,-3.11053 2.86495,-4.80134 3.0625,-5.0625 0.65291,-0.81028 1.39954,-1.41741 2.25,-1.8125 0.84711,-0.39175 1.8828,-0.62388 3.125,-0.6875 l 0,-1.1875 -17.28125,0 0,1.1875 c 2.5882,0.0435 4.36383,0.33482 5.28125,0.84375 0.91743,0.51229 1.375,1.20311 1.375,2.09375 0,0.60938 -0.14508,1.28013 -0.40625,2 -0.26451,0.71653 -0.9799,2.04127 -2.125,4 l -10.84375,18.9375 -12.125,-20.90625 c -1.47324,-2.56812 -2.21875,-4.12611 -2.21875,-4.625 0,-0.45871 0.20201,-0.85714 0.59375,-1.21875 0.3951,-0.35826 0.93526,-0.59598 1.625,-0.75 0.98104,-0.21764 2.58032,-0.35491 4.84375,-0.375 l 0,-1.1875 -32.21875,0 0,1.1875 c 2.06253,0 3.62275,0.19419 4.6875,0.5625 1.06474,0.37165 2.02677,0.9866 2.84375,1.84375 0.82032,0.8605 1.96204,2.56023 3.46875,5.125 l 2.71875,4.6875 -10.46875,16.78125 -13.0625,-21.4375 c -1.60382,-2.67861 -2.40625,-4.45423 -2.40625,-5.28125 0,-0.62948 0.38615,-1.13727 1.15625,-1.5625 0.7701,-0.42188 2.29796,-0.67522 4.625,-0.71875 l 0,-1.1875 -28.84375,0 z m 200.40625,0 0,1.1875 c 3.05027,0 5.13503,0.19084 6.25,0.5625 1.11497,0.37166 1.90178,0.88057 2.34375,1.5 0.44531,0.62277 0.65625,2.0993 0.65625,4.5 l 0,28.6875 c 0,2.39735 -0.21094,3.89062 -0.65625,4.5 -0.44197,0.60938 -1.21092,1.11829 -2.3125,1.5 -1.09823,0.3817 -3.1975,0.5625 -6.28125,0.5625 l 0,1.1875 34.125,0 0,-1.1875 c -3.05361,0 -5.13503,-0.19085 -6.25,-0.5625 -1.11497,-0.37166 -1.90178,-0.84932 -2.34375,-1.46875 -0.44532,-0.62278 -0.65625,-2.1339 -0.65625,-4.53125 l 0,-12.40625 4.375,0 21.46875,20.15625 21,0 0,-1.1875 c -1.78462,-0.067 -3.33145,-0.452 -4.6875,-1.125 -0.89064,-0.47545 -2.38725,-1.6618 -4.5,-3.59375 l -16,-15 c 4.06813,-0.673 7.23993,-1.68525 9.5,-3.03125 3.54246,-2.12949 5.3125,-4.80464 5.3125,-8.0625 0,-2.67191 -1.20533,-5.01449 -3.5625,-7 -2.36052,-1.98552 -5.38835,-3.35378 -9.125,-4.09375 -3.73666,-0.73661 -9.62489,-1.09375 -17.6875,-1.09375 l -30.96875,0 z m 77.65625,0 0,1.1875 2.21875,0 c 1.86163,0 3.34262,0.23102 4.4375,0.65625 1.09489,0.42188 1.83259,0.90289 2.1875,1.46875 0.36161,0.56251 0.53125,1.98993 0.53125,4.25 l 0,29.09375 c 0,2.21655 -0.16964,3.57142 -0.53125,4.09375 -0.45536,0.73996 -1.11829,1.2578 -1.96875,1.5625 -1.17524,0.45536 -2.731,0.6875 -4.65625,0.6875 l -2.21875,0 0,1.1875 59.125,0 2.5,-15.53125 -2,0 c -1.5402,3.4755 -3.18859,6.12498 -4.90625,7.90625 -1.71765,1.78128 -3.73323,3.07923 -6.09375,3.90625 -2.35383,0.82367 -5.30799,1.21875 -8.84375,1.21875 l -5.5625,0 c -3.14401,0 -5.12387,-0.087 -5.9375,-0.28125 -1.14845,-0.30469 -1.92075,-0.75557 -2.3125,-1.375 -0.39175,-0.61943 -0.59375,-2.05577 -0.59375,-4.3125 l 0,-28.15625 c 0,-2.21654 0.17298,-3.60267 0.53125,-4.125 0.49219,-0.73662 1.18079,-1.2578 2.03125,-1.5625 1.17859,-0.45536 2.72096,-0.6875 4.65625,-0.6875 l 2.90625,0 0,-1.1875 -35.5,0 z m 66.59375,0 0,1.1875 2.1875,0 c 1.86163,0 3.34597,0.23437 4.4375,0.65625 1.09488,0.42523 1.82923,0.9029 2.1875,1.46875 0.35826,0.56251 0.53125,1.98993 0.53125,4.25 l 0,29.09375 c 0,2.28351 -0.14286,3.63839 -0.4375,4.09375 -0.4922,0.69644 -1.24998,1.25446 -2.28125,1.65625 -1.02791,0.40179 -2.5089,0.59375 -4.4375,0.59375 l -2.1875,0 0,1.1875 29.78125,0 c 4.28912,0 7.43859,-0.11384 9.4375,-0.375 4.51345,-0.56586 8.34147,-1.37498 11.46875,-2.40625 3.12392,-1.03461 5.86269,-2.41739 8.25,-4.125 2.3873,-1.70426 4.33703,-3.85376 5.84375,-6.46875 1.50671,-2.61834 2.25,-5.48657 2.25,-8.59375 0,-4.49671 -1.50554,-8.5312 -4.5625,-12.09375 -3.06031,-3.56254 -7.57693,-6.21092 -13.5,-7.96875 -4.84493,-1.43306 -11.23204,-2.15625 -19.1875,-2.15625 l -29.78125,0 z m -223.15625,1.625 c -3.38844,1.31922 -6.45643,2.77676 -9.21875,4.34375 -1.74444,1.27234 -3.29462,2.5781 -4.6875,3.9375 l 11.5,0 c 0.39844,-0.7701 0.81919,-1.52455 1.28125,-2.28125 1.97547,-2.1295 4.24438,-4.12832 6.8125,-6 l -5.6875,0 z m 9.40625,0 c -2.56477,1.87168 -4.83702,3.8705 -6.8125,6 -0.46206,0.7567 -0.91406,1.51115 -1.3125,2.28125 l 11.03125,0 c 0.24777,-0.78684 0.51786,-1.56696 0.8125,-2.34375 1.1652,-2.08262 2.48993,-4.05243 4,-5.9375 l -7.71875,0 z m 11.4375,0 c -1.51006,1.88507 -2.83146,3.85488 -4,5.9375 -0.2913,0.77679 -0.56138,1.55691 -0.8125,2.34375 l 10.6875,0 0,-8.28125 -5.875,0 z m 8.65625,0 0,8.28125 10.6875,0 c -0.24777,-0.78684 -0.51786,-1.56696 -0.8125,-2.34375 -1.1652,-2.08262 -2.48994,-4.05243 -4,-5.9375 l -5.875,0 z m 9.59375,0 c 1.50671,1.88507 2.83146,3.85488 4,5.9375 0.2913,0.77679 0.56138,1.55691 0.8125,2.34375 l 11.03125,0 c -0.39844,-0.7701 -0.85044,-1.52455 -1.3125,-2.28125 -1.97547,-2.1295 -4.24439,-4.12832 -6.8125,-6 l -7.71875,0 z m 10.59375,0 c 2.56811,1.87168 4.84038,3.8705 6.8125,6 0.46541,0.7567 0.87946,1.51115 1.28125,2.28125 l 11.5,0 c -1.39288,-1.3594 -2.94306,-2.66516 -4.6875,-3.9375 -2.75897,-1.56699 -5.86157,-3.02453 -9.25,-4.34375 l -5.65625,0 z m 54.09375,0.75 5.25,0 c 5.27686,0 9.09484,0.79908 11.46875,2.40625 2.37726,1.60716 3.5625,4.10375 3.5625,7.46875 0,2.32369 -0.64508,4.21315 -1.9375,5.65625 -1.29578,1.4431 -3.05242,2.44754 -5.3125,3 -2.26007,0.55581 -5.69302,0.8125 -10.25,0.8125 l -2.78125,0 0,-19.34375 z m 144.71875,0.15625 c 5.46435,-0.0201 9.39617,0.29575 11.75,0.96875 3.33821,0.95426 6.06136,2.75778 8.1875,5.40625 2.68196,3.38174 4.03125,7.90059 4.03125,13.5625 0,7.02799 -1.9754,12.22094 -5.90625,15.5625 -2.87616,2.47101 -7.03899,3.71875 -12.5,3.71875 -1.67078,0 -2.95981,-0.17521 -3.84375,-0.5 -0.62277,-0.21763 -1.05133,-0.52567 -1.3125,-0.9375 -0.26116,-0.41184 -0.40625,-1.55355 -0.40625,-3.375 l 0,-34.40625 z m -252.09375,9.84375 -12.65625,0.0312 c -0.24443,0.29465 -0.48772,0.58036 -0.71875,0.875 -1.28573,2.39401 -2.10379,4.83814 -2.46875,7.3125 l 13.5625,0 c 0.3817,-2.78575 1.14284,-5.54014 2.28125,-8.21875 z m 3.71875,0 c -1.14176,2.6853 -1.89955,5.45755 -2.28125,8.25 l 12.375,-0.0625 c 0.21763,-2.76566 0.68191,-5.50554 1.375,-8.1875 l -11.46875,0 z m 15.1875,0 c -0.69644,2.6853 -1.15737,5.41849 -1.375,8.1875 l 12.78125,0 0,-8.1875 -11.40625,0 z m 14.1875,0 0,8.1875 12.5625,0 0.21875,0 c -0.21764,-2.76901 -0.67856,-5.5022 -1.375,-8.1875 l -11.40625,0 z m 15.125,0 c 0.69309,2.68196 1.15737,5.42184 1.375,8.1875 l 12.375,0.0625 c -0.38171,-2.79245 -1.13949,-5.5647 -2.28125,-8.25 l -11.46875,0 z m 14.34375,0 c 1.13506,2.67861 1.89955,5.433 2.28125,8.21875 l 13.5625,0 c -0.36496,-2.47436 -1.17968,-4.91849 -2.46875,-7.3125 -0.23103,-0.29464 -0.47098,-0.58035 -0.71875,-0.875 l -12.65625,-0.0312 z m -78.3125,10.78125 c 0.41183,2.21989 1.2165,4.40622 2.375,6.5625 0.5893,0.75671 1.21985,1.51673 1.90625,2.25 0.77679,0 3.59364,-0.019 12.21875,-0.0625 -1.38953,-2.85272 -2.32812,-5.77004 -2.84375,-8.75 l -1.4375,0 -12.21875,0 z m 17.375,0 c 0.51563,2.97325 1.46091,5.87273 2.84375,8.71875 l 11.34375,-0.125 c -0.8739,-2.81254 -1.47433,-5.67407 -1.8125,-8.59375 l -12.375,0 z m 16.09375,0 c 0.33818,2.91968 0.9386,5.78121 1.8125,8.59375 l 10.78125,0 0,-8.59375 -12.59375,0 z m 15.40625,0 0,8.59375 10.75,0 c 0.87724,-2.81254 1.50557,-5.67407 1.84375,-8.59375 l -12.59375,0 z m 16.28125,0 c -0.33818,2.91968 -0.9386,5.78121 -1.8125,8.59375 l 11.40625,0.0312 c 1.34934,-2.80584 2.27566,-5.69527 2.78125,-8.625 l -12.375,0 z m 15.25,0 c -0.51564,2.97996 -1.45422,5.89728 -2.84375,8.75 8.62512,0.0435 11.4453,0.0625 12.21875,0.0625 0.68974,-0.73327 1.31361,-1.49329 1.90625,-2.25 1.1585,-2.15628 1.93191,-4.34261 2.34375,-6.5625 l -13.625,0 z m -74.125,10.59375 c 1.17189,1.07814 2.44417,2.13504 3.84375,3.15625 2.94981,1.67079 6.27115,3.20422 9.9375,4.59375 l 5.84375,0 c -2.92972,-2.04913 -5.49104,-4.25778 -7.6875,-6.625 -0.22433,-0.37166 -0.44531,-0.75334 -0.65625,-1.125 l -11.28125,0 z m 15,0 c 0.21094,0.37166 0.42857,0.75334 0.65625,1.125 2.19311,2.36722 4.75777,4.57587 7.6875,6.625 l 7.96875,0 c -1.97548,-2.27681 -3.67855,-4.70309 -5.125,-7.28125 -0.0502,-0.13393 -0.10602,-0.27232 -0.15625,-0.40625 l -11.03125,-0.0625 z m 14.75,0 c 0.0469,0.13058 0.10598,0.27902 0.15625,0.40625 1.45985,2.60495 3.18859,5.04685 5.1875,7.34375 l 4.6875,0 0,-7.71875 -10.03125,-0.0312 z m 22.84375,0 -10.03125,0.0312 0,7.71875 4.6875,0 c 1.99891,-2.2969 3.72431,-4.7388 5.1875,-7.34375 0.0469,-0.12723 0.10937,-0.27567 0.15625,-0.40625 z m 14.75,0 -11.03125,0.0625 c -0.0469,0.13393 -0.10603,0.27232 -0.15625,0.40625 -1.4498,2.57816 -3.15288,5.00444 -5.125,7.28125 l 7.96875,0 c 2.92972,-2.04913 5.49104,-4.25778 7.6875,-6.625 0.22433,-0.37166 0.44531,-0.75334 0.65625,-1.125 z m 2.875,0 c -0.21094,0.37166 -0.42857,0.75334 -0.65625,1.125 -2.19311,2.36722 -4.75778,4.57587 -7.6875,6.625 l 5.84375,0 c 3.66635,-1.38953 6.99104,-2.92296 9.9375,-4.59375 1.39958,-1.02121 2.67186,-2.07811 3.84375,-3.15625 l -11.28125,0 z m -136.5625,15.9375 -5.28125,7.59375 c -0.49889,0.72992 -0.91183,1.23772 -1.25,1.46875 -0.34153,0.23438 -0.78348,0.35268 -1.3125,0.40625 l 0,0.25 4.90625,0 0,-0.25 c -0.76675,-0.0402 -1.2433,-0.0826 -1.4375,-0.15625 -0.33483,-0.12724 -0.5,-0.32588 -0.5,-0.59375 0,-0.20089 0.1116,-0.46986 0.3125,-0.78125 l 0.625,-0.90625 5.1875,0 0.78125,1.1875 c 0.20424,0.31139 0.32701,0.45648 0.34375,0.5 0.0435,0.0904 0.0625,0.19754 0.0625,0.28125 0,0.14062 -0.0927,0.23884 -0.25,0.3125 -0.23103,0.1038 -0.6462,0.15625 -1.21875,0.15625 l -0.28125,0 0,0.25 7.125,0 0,-0.25 c -0.44866,-0.0234 -0.78348,-0.10603 -1.03125,-0.25 -0.32478,-0.1942 -0.74442,-0.66294 -1.25,-1.40625 l -5.3125,-7.8125 -0.21875,0 z m 221.125,0 -5.28125,7.59375 c -0.49889,0.72992 -0.90847,1.23772 -1.25,1.46875 -0.33817,0.23438 -0.78347,0.35268 -1.3125,0.40625 l 0,0.25 4.90625,0 0,-0.25 c -0.7701,-0.0402 -1.23996,-0.0826 -1.4375,-0.15625 -0.33148,-0.12724 -0.5,-0.32588 -0.5,-0.59375 0,-0.20089 0.077,-0.46986 0.28125,-0.78125 l 0.65625,-0.90625 5.15625,0 0.8125,1.1875 c 0.20424,0.31139 0.29576,0.45648 0.3125,0.5 0.0402,0.0904 0.0625,0.19754 0.0625,0.28125 0,0.14062 -0.0613,0.23884 -0.21875,0.3125 -0.23103,0.1038 -0.6462,0.15625 -1.21875,0.15625 l -0.28125,0 0,0.25 7.125,0 0,-0.25 c -0.45202,-0.0234 -0.78682,-0.10603 -1.03125,-0.25 -0.32813,-0.1942 -0.74441,-0.66294 -1.25,-1.40625 l -5.34375,-7.8125 -0.1875,0 z m 108.4375,0 c -1.31587,0 -2.38615,0.24887 -3.25,0.78125 -0.8605,0.53237 -1.28125,1.17744 -1.28125,1.9375 0,0.44532 0.15736,0.85044 0.46875,1.21875 0.31473,0.37166 0.76116,0.69866 1.34375,1 0.5826,0.30134 1.529,0.66853 2.875,1.09375 0.9576,0.3047 1.65289,0.55915 2.03125,0.75 0.37835,0.1875 0.65959,0.38281 0.84375,0.59375 0.18415,0.21094 0.25,0.43191 0.25,0.65625 0,0.37835 -0.2366,0.7154 -0.71875,1 -0.48215,0.2846 -1.12387,0.4375 -1.9375,0.4375 -1.05135,0 -2.03012,-0.28013 -2.9375,-0.8125 -0.91073,-0.52903 -1.52567,-1.30467 -1.84375,-2.3125 l -0.40625,0 0,3.59375 0.40625,0 c 0.13058,-0.1942 0.28571,-0.3125 0.5,-0.40625 0.2076,-0.0971 0.40625,-0.15625 0.59375,-0.15625 0.22768,0 0.52678,0.0313 0.875,0.125 0.62277,0.17076 1.14731,0.31473 1.5625,0.375 0.41183,0.0603 0.84709,0.0625 1.3125,0.0625 1.47993,0 2.6953,-0.2712 3.65625,-0.84375 0.96095,-0.57256 1.4375,-1.26561 1.4375,-2.0625 0,-0.62612 -0.28236,-1.17075 -0.875,-1.65625 -0.60269,-0.48884 -1.7723,-1.01674 -3.5,-1.5625 -1.23551,-0.3951 -2.03013,-0.65848 -2.375,-0.8125 -0.46206,-0.21429 -0.78906,-0.43527 -1,-0.65625 -0.15402,-0.16407 -0.25,-0.35156 -0.25,-0.5625 0,-0.33148 0.22432,-0.62054 0.65625,-0.875 0.43192,-0.25447 1.01004,-0.40625 1.75,-0.40625 0.96095,0 1.86383,0.2645 2.6875,0.75 0.82702,0.48549 1.35156,1.11271 1.5625,1.90625 l 0.4375,0 -0.125,-3.15625 -0.3125,0 c -0.0937,0.2846 -0.202,0.45424 -0.3125,0.53125 -0.10714,0.0737 -0.24999,0.0937 -0.4375,0.0937 -0.19754,0 -0.5424,-0.0681 -1.03125,-0.21875 -0.48885,-0.15402 -0.91183,-0.25558 -1.25,-0.3125 -0.45202,-0.0737 -0.9308,-0.0937 -1.40625,-0.0937 z m -280.71875,0.1875 0,0.28125 0.46875,0 c 0.41184,0 0.75893,0.0346 1,0.125 0.24443,0.0904 0.39174,0.18861 0.46875,0.3125 0.0804,0.12054 0.125,0.45201 0.125,0.9375 l 0,6.25 c 0,0.47545 -0.0447,0.79241 -0.125,0.90625 -0.10044,0.16072 -0.25,0.27679 -0.4375,0.34375 -0.26117,0.0971 -0.60267,0.125 -1.03125,0.125 l -0.46875,0 0,0.25 7.6875,0 0,-0.25 -0.5,0 c -0.40848,0 -0.73102,-0.0346 -0.96875,-0.125 -0.24442,-0.0904 -0.41964,-0.18862 -0.5,-0.3125 -0.0837,-0.12054 -0.125,-0.452 -0.125,-0.9375 l 0,-6.25 c 0,-0.47545 0.0447,-0.79575 0.125,-0.90625 0.10714,-0.16071 0.25,-0.27678 0.4375,-0.34375 0.25781,-0.0971 0.60603,-0.125 1.03125,-0.125 l 0.5,0 0,-0.28125 -7.6875,0 z m 48.9375,0 0,0.28125 c 0.673,0 1.15848,0.0446 1.40625,0.125 0.24442,0.0804 0.4029,0.17857 0.5,0.3125 0.0971,0.13393 0.15625,0.44977 0.15625,0.96875 l 0,6.1875 c 0,0.51898 -0.0591,0.83817 -0.15625,0.96875 -0.0971,0.13393 -0.25558,0.23214 -0.5,0.3125 -0.24443,0.0837 -0.72656,0.125 -1.40625,0.125 l 0,0.25 7.5625,0 0,-0.25 c -0.673,0 -1.13058,-0.0447 -1.375,-0.125 -0.24777,-0.0804 -0.43415,-0.17522 -0.53125,-0.3125 -0.0971,-0.13058 -0.15625,-0.44977 -0.15625,-0.96875 l 0,-2.6875 0.96875,0 4.78125,4.34375 4.625,0 0,-0.25 c -0.39509,-0.0134 -0.73325,-0.0747 -1.03125,-0.21875 -0.19754,-0.10379 -0.53459,-0.36272 -1,-0.78125 l -3.53125,-3.25 c 0.89734,-0.14733 1.59151,-0.3683 2.09375,-0.65625 0.78349,-0.45871 1.1875,-1.01896 1.1875,-1.71875 0,-0.57925 -0.25892,-1.10268 -0.78125,-1.53125 -0.52233,-0.42523 -1.20423,-0.71429 -2.03125,-0.875 -0.82702,-0.15737 -2.12497,-0.25 -3.90625,-0.25 l -6.875,0 z m 55.40625,0 0,0.28125 c 0.46206,0.0268 0.80245,0.11718 1,0.28125 0.1942,0.16406 0.53906,0.62276 1.03125,1.40625 l 4.84375,7.78125 0.40625,0 4.03125,-6.15625 3.625,6.15625 0.4375,0 4.625,-7.84375 c 0.41184,-0.66965 0.60938,-1.03683 0.65625,-1.09375 0.14063,-0.17076 0.31249,-0.3192 0.5,-0.40625 0.1875,-0.0837 0.41294,-0.11161 0.6875,-0.125 l 0,-0.28125 -3.8125,0 0,0.28125 c 0.56921,0.01 0.95535,0.077 1.15625,0.1875 0.20424,0.10715 0.3125,0.24665 0.3125,0.4375 0,0.13058 -0.0368,0.28348 -0.0937,0.4375 -0.0603,0.15737 -0.21428,0.42187 -0.46875,0.84375 l -2.40625,4.09375 -2.65625,-4.5 c -0.32813,-0.55581 -0.5,-0.89285 -0.5,-1 0,-0.10045 0.0379,-0.20089 0.125,-0.28125 0.0871,-0.077 0.22098,-0.12277 0.375,-0.15625 0.21764,-0.0469 0.5636,-0.0558 1.0625,-0.0625 l 0,-0.28125 -7.125,0 0,0.28125 c 0.45537,0 0.79353,0.0447 1.03125,0.125 0.23438,0.0804 0.44084,0.19084 0.625,0.375 0.1808,0.1875 0.44642,0.57254 0.78125,1.125 l 0.59375,1 -2.3125,3.625 -2.90625,-4.625 c -0.35831,-0.57925 -0.5313,-0.97879 -0.5313,-1.15625 0,-0.13393 0.0792,-0.2221 0.25,-0.3125 0.16741,-0.0904 0.51562,-0.14621 1.03125,-0.15625 l 0,-0.28125 -6.375,0 z m 114.46875,0 0,0.28125 c 0.47211,0.007 0.84375,0.0748 1.125,0.21875 0.28461,0.14398 0.77901,0.60267 1.46875,1.40625 l 3.46875,4.09375 0,1.90625 c 0,0.47545 -0.0413,0.79241 -0.125,0.90625 -0.10715,0.15737 -0.24665,0.27679 -0.4375,0.34375 -0.25447,0.0971 -0.59932,0.125 -1.03125,0.125 l -0.78125,0 0,0.25 8.28125,0 0,-0.25 -0.8125,0 c -0.39174,0 -0.73437,-0.0346 -0.96875,-0.125 -0.23772,-0.0937 -0.38839,-0.19196 -0.46875,-0.3125 -0.077,-0.12053 -0.125,-0.44865 -0.125,-0.9375 l 0,-2.28125 3.21875,-3.46875 c 0.78349,-0.87725 1.35379,-1.3962 1.71875,-1.59375 0.26116,-0.14062 0.60825,-0.23773 1.09375,-0.28125 l 0,-0.28125 -4.46875,0 0,0.28125 c 0.65961,0.0234 1.09597,0.0703 1.34375,0.1875 0.1875,0.0837 0.28125,0.21652 0.28125,0.34375 0,0.23103 -0.34039,0.67187 -1,1.375 l -2.625,2.875 -2.6875,-3.125 c -0.57925,-0.68305 -0.875,-1.11049 -0.875,-1.28125 0,-0.0871 0.0792,-0.16964 0.25,-0.25 0.17077,-0.0804 0.48102,-0.125 0.90625,-0.125 l 0.3125,0 0,-0.28125 -7.0625,0 z m -164.375,0.53125 1.1875,0 c 1.16519,0 2.00557,0.18638 2.53125,0.53125 0.52568,0.34822 0.78125,0.86717 0.78125,1.59375 0,0.49889 -0.14955,0.90736 -0.4375,1.21875 -0.2846,0.31139 -0.65401,0.53571 -1.15625,0.65625 -0.49889,0.12053 -1.27342,0.1875 -2.28125,0.1875 l -0.625,0 0,-4.1875 z m -104.59375,2.5 2.1875,3.28125 -4.4375,0 2.25,-3.28125 z m 221.125,0 2.1875,3.28125 -4.4375,0 2.25,-3.28125 z"
       id="path268"
       style="fill:#31338f;fill-opacity:1;fill-rule:evenodd;stroke:none" />
  </g>
</svg>
