<?xml version="1.0" encoding="UTF-8"?>
<svg width="271px" height="24px" viewBox="0 0 271 24" version="1.1" xmlns="http://www.w3.org/2000/svg" xmlns:xlink="http://www.w3.org/1999/xlink">
  <title>Logo@3x</title>
  <defs>
    <polygon id="path-1" points="0 0.194379192 47.25936 0.194379192 47.25936 16.8704898 0 16.8704898"></polygon>
    <polygon id="path-3" points="0 23.9434971 270.587657 23.9434971 270.587657 -0.000274285714 0 -0.000274285714"></polygon>
  </defs>
  <g id="页面-1" stroke="none" stroke-width="1" fill="none" fill-rule="evenodd">
    <g id="等待支付结果" transform="translate(-360.000000, -18.000000)">
      <g id="Logo" transform="translate(360.000000, 18.000000)">
        <g id="编组" transform="translate(0.000000, 4.743497)">
          <mask id="mask-2" fill="white">
            <use xlink:href="#path-1"></use>
          </mask>
          <g id="Clip-2"></g>
          <path d="M38.36976,14.7112457 C34.4598171,14.8874743 31.0237029,13.4015314 32.9327314,9.64656 C34.8383314,5.88953143 44.1866743,1.57227429 47.25936,0.200845714 C47.25936,0.200845714 31.0127314,0.196045714 30.0287314,0.196045714 C29.4397029,0.196045714 28.7066743,0.0966171429 28.2589029,1.43376 C27.9263314,2.43010286 26.3800457,6.28930286 22.94256,7.49616 C18.6870171,8.99170286 15.1370743,6.54576 9.72747429,2.26347429 C7.71216,0.661645714 7.38164571,0.518331429 5.43078857,0.83856 C4.43170286,1.00107429 2.26141714,0.471017143 1.62370286,0.320845714 C0.985988571,0.151474286 -6.85714286e-05,0.21936 -6.85714286e-05,0.231702857 C-6.85714286e-05,0.304388571 3.91947429,0.871474286 11.4863314,6.28381714 C14.36496,8.34370286 19.4968457,12.3551314 24.8344457,14.6749029 C30.6026743,17.1805029 38.9786743,18.5203886 46.6463314,13.18416 C46.6566171,13.0799314 46.6627886,12.9736457 46.6710171,12.8687314 C46.6710171,13.0093029 42.2845029,14.6138743 38.36976,14.7112457" id="Fill-1" fill="#008CD5" mask="url(#mask-2)"></path>
        </g>
        <mask id="mask-4" fill="white">
          <use xlink:href="#path-3"></use>
        </mask>
        <g id="Clip-4"></g>
        <path d="M72.5033143,19.0255543 L73.9446857,19.0255543 L73.9446857,7.97252571 L72.5033143,7.97252571 L72.5033143,19.0255543 Z M78.336,5.05824 L84.6754286,5.05824 C84.9970286,5.05824 85.3056,5.15972571 85.5675429,5.35104 C85.9056,5.60544 86.0825143,5.98052571 86.0825143,6.43446857 L86.0825143,17.76384 C86.0825143,18.67584 85.4928,19.0255543 84.6754286,19.0255543 L82.7348571,19.0255543 L82.1691429,17.8577829 L84.288,17.8577829 C84.5088,17.8577829 84.6377143,17.7130971 84.6377143,17.4703543 L84.6377143,6.60795429 C84.6377143,6.41869714 84.4868571,6.22326857 84.2578286,6.22326857 L78.336,6.22326857 L78.336,5.05824 Z M72.5033143,5.06304 L73.9467429,5.06304 L73.9467429,5.84544 C73.9467429,6.03401143 74.1401143,6.16292571 74.3307429,6.16292571 L77.3499429,6.16292571 L77.3499429,7.23675429 L73.9145143,7.23675429 C72.8598857,7.23675429 72.5033143,6.54144 72.5033143,5.92566857 L72.5033143,5.06304 Z" id="Fill-3" fill="#004384" mask="url(#mask-4)"></path>
        <path d="M94.3948114,16.1921829 C94.1095543,15.2657829 93.9580114,14.45184 93.84624,13.4260114 L95.0496686,13.4260114 C95.1586971,14.4436114 95.3589257,15.3453257 95.6290971,16.1921829 L94.3948114,16.1921829 Z M102.56784,9.45846857 C103.625897,9.45846857 103.977669,10.2573257 103.977669,10.8353829 L103.977669,17.5060114 C103.977669,17.6733257 104.110697,17.8049829 104.302011,17.8049829 L105.665897,17.8049829 L105.143383,19.03104 L104.019497,19.03104 C103.459954,19.03104 103.073211,18.8740114 102.843497,18.5489829 C102.643954,18.2808686 102.547269,17.9009829 102.547269,17.3935543 L102.547269,10.9245257 C102.547269,10.8298971 102.47664,10.6625829 102.25584,10.6625829 L100.43184,10.6625829 C100.23504,10.6625829 100.128069,10.7908114 100.128069,10.9396114 L100.128069,14.3812114 C100.128069,15.8938971 99.8359543,17.6260114 99.1337829,19.03104 L97.4023543,19.03104 C98.37744,17.7137829 98.6791543,15.9727543 98.6791543,13.6701257 L98.6791543,10.8353829 C98.6791543,10.0385829 99.2688686,9.45846857 99.9881829,9.45846857 L102.56784,9.45846857 Z M93.5836114,11.4525257 L96.0082971,11.4525257 L96.0055543,7.55492571 C96.0055543,7.42464 95.9239543,7.27515429 95.72304,7.27515429 L93.8620114,7.27515429 C93.7632686,7.27515429 93.5836114,7.34441143 93.5836114,7.55149714 L93.5836114,11.4525257 Z M93.9538971,6.07309714 C94.1177829,5.73366857 94.2528686,5.34075429 94.3522971,4.93412571 L95.8937829,4.93412571 C95.7909257,5.31126857 95.6770971,5.69869714 95.5001829,6.07309714 L96.1708114,6.07309714 C96.8530971,6.07309714 97.4112686,6.50166857 97.4112686,7.33275429 L97.4112686,17.8632686 C97.4112686,18.4673829 97.0759543,19.03104 96.1708114,19.03104 L94.85904,19.03104 L94.3708114,17.86944 L95.6626971,17.86944 C95.8594971,17.86944 96.0082971,17.7425829 96.0082971,17.5560686 L96.0082971,12.6401829 L93.5836114,12.6401829 C93.5644114,15.0689829 93.3628114,17.2008686 92.93424,19.03104 L91.4092114,19.03104 C92.0784686,16.9409829 92.1957257,14.72544 92.2258971,12.6401829 L91.4160686,12.6401829 L91.4160686,11.4525257 L92.2258971,11.4525257 L92.2258971,7.38281143 C92.2258971,6.59766857 92.7106971,6.07309714 93.4135543,6.07309714 L93.9538971,6.07309714 Z M94.4599543,10.6673829 C94.1890971,9.73755429 94.0402971,9.00932571 93.9237257,8.24201143 L95.07504,8.24201143 C95.1936686,9.10395429 95.4391543,9.89389714 95.6770971,10.6673829 L94.4599543,10.6673829 Z M100.603954,6.80544 C100.40304,6.28155429 100.170583,5.77481143 99.9175543,4.93412571 L101.463154,4.93412571 C101.621554,5.40521143 101.917097,6.03538286 102.280526,6.80544 L105.393669,6.80544 L105.393669,7.98829714 L97.82064,7.98829714 L97.82064,6.80544 L100.603954,6.80544 Z" id="Fill-5" fill="#004384" mask="url(#mask-4)"></path>
        <path d="M64.5381257,12.9571886 L64.5381257,12.5560457 L57.8009829,12.5560457 L57.8009829,12.9359314 C57.8009829,13.1197029 57.9154971,13.2246171 58.10064,13.2246171 L64.2706971,13.2246171 C64.4194971,13.2246171 64.5381257,13.0957029 64.5381257,12.9571886 L64.5381257,12.9571886 Z M64.2151543,15.7199314 L58.6313829,15.7199314 C58.4736686,15.8838171 58.3008686,16.0600457 58.1116114,16.2445029 L60.29424,16.2472457 C60.29424,16.2472457 61.2309257,16.7142171 61.5024686,16.8342171 C62.41104,16.4858743 63.2928686,16.1320457 64.2151543,15.7199314 L64.2151543,15.7199314 Z M57.8009829,11.68176 L64.5381257,11.68176 L64.5381257,11.0111314 L57.8009829,11.0111314 L57.8009829,11.68176 Z M57.8009829,9.75147429 L57.8009829,10.15056 L64.5381257,10.15056 L64.5381257,9.77273143 C64.5381257,9.58690286 64.4242971,9.48336 64.2377829,9.48336 L58.0690971,9.48336 C57.9202971,9.48336 57.8009829,9.61364571 57.8009829,9.75147429 L57.8009829,9.75147429 Z M55.5580114,6.98256 L66.76944,6.98256 L66.76944,7.92953143 L62.2066971,7.92953143 L61.8953829,8.58987429 L64.6882971,8.58987429 C65.4857829,8.58987429 65.9493257,9.25296 65.9493257,9.83101714 L65.9493257,12.8488457 C65.9493257,13.5955886 65.3493257,14.1194743 64.7266971,14.1194743 L60.0281829,14.1194743 C59.8951543,14.2963886 59.7586971,14.4589029 59.4960686,14.76816 L65.2101257,14.76816 C65.6565257,14.76816 66.0370971,15.0061029 66.1413257,15.37776 C66.1632686,15.4518171 66.17424,15.5286171 66.1728686,15.6109029 C66.1728686,15.9619886 65.9520686,16.2877029 65.57424,16.4666743 C65.02704,16.7245029 63.6172114,17.2819886 63.02064,17.5288457 C63.02064,17.5288457 65.7168686,18.7178743 66.7653257,19.0723886 L63.40944,19.0703314 C63.05424,18.96816 61.4057829,18.18096 61.4057829,18.18096 C61.4057829,18.18096 59.7106971,18.8605029 59.17584,19.0723886 C59.17584,19.0723886 59.1600686,19.0621029 55.3042971,19.0621029 C56.5584686,18.7117029 59.9020114,17.4472457 59.9020114,17.4472457 C59.2101257,17.1016457 58.5504686,16.76016 57.9202971,16.4262171 C57.7392686,16.5928457 57.5301257,16.77456 57.2935543,16.97136 L55.2775543,16.97136 C56.6002971,16.0730743 57.8599543,14.6378743 58.2535543,14.1194743 L57.6137829,14.1194743 C56.9397257,14.1194743 56.3746971,13.5352457 56.3746971,12.8666743 L56.3746971,9.86530286 C56.3746971,9.22964571 56.8354971,8.58987429 57.6501257,8.58987429 L60.3463543,8.58987429 C60.4642971,8.35056 60.5568686,8.14758857 60.6480686,7.92953143 L55.5580114,7.92953143 L55.5580114,6.98256 Z M55.0855543,5.34850286 L66.7680686,5.34850286 L66.7680686,6.42164571 L55.3529829,6.42164571 C55.1424686,6.42164571 55.0183543,6.53547429 55.0183543,6.72404571 L55.0183543,14.4863314 C55.0183543,15.9338743 54.83664,17.6488457 54.5136686,19.0723886 L52.95984,19.0723886 C53.42064,17.10576 53.5906971,15.5896457 53.5906971,13.5688457 L53.5906971,6.83101714 C53.5906971,5.86896 54.0713829,5.34850286 55.0855543,5.34850286 L55.0855543,5.34850286 Z" id="Fill-6" fill="#004384" mask="url(#mask-4)"></path>
        <path d="M123.484046,12.4080686 L123.484046,13.5909257 L118.407017,13.5909257 L118.407017,17.7744686 L124.64976,17.7744686 L124.64976,18.9367543 L110.74896,18.9367543 L110.74896,17.7744686 L116.990331,17.7744686 L116.990331,13.5909257 L111.917417,13.5909257 L111.917417,12.4080686 L123.484046,12.4080686 Z M116.837417,4.93584 L118.54416,4.93584 C118.643589,5.24166857 118.843817,5.69698286 119.059817,6.05424 L122.72496,6.05424 C124.042903,6.05424 124.547589,6.93264 124.547589,7.76304 L124.547589,9.32989714 L123.143246,9.32989714 L123.141874,7.71229714 C123.141874,7.43321143 122.999246,7.24875429 122.689989,7.24875429 L119.968389,7.24875429 L119.968389,9.68509714 C119.968389,9.92304 120.137074,10.0649829 120.287931,10.0649829 L124.076503,10.0636114 L123.58416,11.26704 L119.836046,11.26704 C119.45616,11.26704 118.994674,11.0873829 118.733417,10.7692114 C118.514674,10.5189257 118.404274,10.1122971 118.404274,9.76806857 L118.404274,7.24875429 L117.04176,7.24875429 C116.587131,8.81972571 115.435817,10.4551543 113.840846,11.67504 L111.103474,11.67504 C111.103474,11.67504 114.445646,10.04304 115.385074,7.24875429 L112.713531,7.24875429 C112.396046,7.24875429 112.253417,7.40166857 112.253417,7.71229714 L112.254103,9.32989714 L110.847017,9.32989714 L110.847017,7.76304 C110.847017,6.95595429 111.294103,6.05424 112.631931,6.05424 L117.304389,6.05424 C117.105531,5.66269714 116.947131,5.29652571 116.837417,4.93584 L116.837417,4.93584 Z" id="Fill-7" fill="#004384" mask="url(#mask-4)"></path>
        <polygon id="Fill-8" fill="#004384" mask="url(#mask-4)" points="69.3579429 19.0817829 69.8797714 19.0817829 69.8797714 4.93824 69.3579429 4.93824"></polygon>
        <polygon id="Fill-9" fill="#004384" mask="url(#mask-4)" points="88.5901714 19.0817829 89.1140571 19.0817829 89.1140571 4.93824 88.5901714 4.93824"></polygon>
        <polygon id="Fill-10" fill="#004384" mask="url(#mask-4)" points="107.823771 19.0817829 108.346286 19.0817829 108.346286 4.93824 107.823771 4.93824"></polygon>
        <path d="M231.384274,11.4491671 L234.748389,11.4491671 C236.234331,11.4505371 237.284846,10.4233371 237.287589,9.12939429 C237.284846,7.83956571 236.234331,6.79522286 234.748389,6.79522286 L231.384274,6.79522286 L231.384274,11.4491671 Z M234.547474,12.6107657 L231.384274,12.6107657 L231.384274,19.08048 L229.840731,19.08048 L229.840731,12.6107657 L229.840731,11.4491657 L229.840731,6.79522286 L229.840731,5.63568 L231.384274,5.63568 L234.921189,5.63568 C237.147703,5.63568 238.693989,7.19568 238.699474,9.12939429 C238.696046,10.7305371 237.637989,12.0649371 236.01216,12.4777371 L239.989303,19.08048 L238.448503,19.08048 L234.547474,12.6107657 Z M212.906331,14.2317943 L218.38176,14.2317943 L215.643703,7.44870857 L212.906331,14.2317943 Z M218.849417,15.3920229 L212.437303,15.3920229 L210.948617,19.08048 L209.408503,19.08048 L214.830446,5.63568 L216.37536,5.63568 L221.879589,19.08048 L220.336731,19.08048 L218.849417,15.3920229 Z M224.505874,19.0797943 L226.048046,19.0797943 L226.048046,5.63568 L224.505874,5.63568 L224.505874,19.0797943 Z M175.573303,5.63568 L175.807817,5.63568 L178.183817,5.63568 L178.549989,5.63568 L179.836389,19.08048 L177.093531,19.08048 L176.198674,9.73830857 L171.678446,19.08048 L171.511817,19.08048 L166.918217,9.73625143 L166.02336,19.08048 L163.283246,19.08048 L164.572389,5.63568 L164.933074,5.63568 L167.311817,5.63568 L167.546331,5.63568 L171.559131,13.97808 L175.573303,5.63568 Z M185.43936,17.2749943 L191.669074,17.2749943 L191.669074,19.08048 L185.43936,19.08048 L183.881417,19.08048 L182.697189,19.08048 L182.697189,5.63568 L183.430903,5.63568 L185.43936,5.63568 L191.217189,5.63568 L191.217189,7.43910857 L185.43936,7.43910857 L185.43936,11.2907657 L190.366217,11.2907657 L190.366217,13.0921371 L185.43936,13.0921371 L185.43936,17.2749943 Z M152.738331,14.5485943 L157.112503,14.5485943 L154.925074,8.99088 L152.738331,14.5485943 Z M157.822217,16.3506514 L152.027246,16.3506514 L150.952731,19.08048 L148.213989,19.08048 L153.503589,5.63568 L156.24576,5.63568 L161.638903,19.08048 L158.89536,19.08048 L157.822217,16.3506514 Z M127.770103,19.08048 L132.875931,11.8077943 L128.541531,5.63568 L131.615589,5.63568 L134.411246,9.62036571 L137.206903,5.63568 L140.284389,5.63568 L135.947931,11.8077943 L141.055817,19.08048 L137.98176,19.08048 L134.412617,13.99728 L130.842789,19.08048 L127.770103,19.08048 Z M207.048274,19.08048 L205.322331,19.08048 L197.180846,9.70813714 L197.180846,19.08048 L194.437303,19.08048 L194.437303,5.63568 L197.012846,5.63568 L204.304046,14.0720229 L204.304046,5.63568 L207.048274,5.63568 L207.048274,19.08048 Z M143.28096,19.0797943 L146.023131,19.0797943 L146.023131,5.63568 L143.28096,5.63568 L143.28096,19.0797943 Z" id="Fill-11" fill="#004384" mask="url(#mask-4)"></path>
        <path d="M266.853943,5.19867429 L266.843657,5.20553143 C268.584,6.95753143 269.735314,9.32393143 269.919086,11.9790171 C270.324343,17.84736 265.904229,22.9333029 260.040686,23.34336 C257.284114,23.5415314 254.7024,22.6610743 252.689143,21.0736457 L252.680229,21.08256 C254.7648,23.0258743 257.619429,24.1333029 260.676343,23.9166171 C266.550171,23.5099886 270.973714,18.4206171 270.560914,12.55776 C270.3504,9.58724571 268.952229,6.98358857 266.853943,5.19867429" id="Fill-12" fill="#00307B" mask="url(#mask-4)"></path>
        <path d="M247.98672,17.3112 C247.647977,17.4984 247.575291,17.7843429 247.744663,18.2218286 C247.905806,18.6202286 248.156091,18.8005714 248.42352,18.6881143 C248.638834,18.6044571 248.675863,18.4186286 248.590149,17.9345143 L248.549006,17.7514286 C248.462606,17.2762286 248.44752,17.0732571 248.502377,16.8702857 C248.559977,16.644 248.690263,16.4952 248.890491,16.4115429 C249.368434,16.2181714 249.82512,16.5226286 250.09392,17.1946286 C250.389463,17.9269714 250.237234,18.4796571 249.657806,18.7155429 L249.519291,18.3528 C249.919063,18.1902857 250.014377,17.8165714 249.798377,17.2837714 C249.626949,16.8497143 249.35472,16.6542857 249.063977,16.7770286 C248.829463,16.8668571 248.775291,17.0883429 248.862377,17.5779429 L248.895291,17.7843429 L248.926834,17.9681143 C248.986491,18.3274286 248.996777,18.4597714 248.96112,18.6181714 C248.914491,18.8088 248.789691,18.9541714 248.593577,19.0302857 C248.137577,19.2133714 247.702834,18.9438857 247.457349,18.3397714 C247.193349,17.6739429 247.33872,17.1829714 247.844777,16.956 L247.98672,17.3112 Z" id="Fill-13" fill="#00307B" mask="url(#mask-4)"></path>
        <polygon id="Fill-14" fill="#00307B" mask="url(#mask-4)" points="247.684731 13.46544 249.298903 12.1090971 249.311931 12.6103543 247.941189 13.7410971 248.386217 14.2279543 249.348274 14.20944 249.355131 14.6071543 246.611589 14.6640686 246.599246 14.2704686 247.67856 14.2457829 247.96656 14.2457829 247.878789 14.1490971 247.784846 14.0482971 246.571131 12.7392686 246.556046 12.2160686"></polygon>
        <path d="M248.902834,9.21051429 L249.955406,9.58354286 L249.830606,9.95108571 L248.770491,9.58354286 L246.875863,10.1561143 L247.035634,9.70217143 L248.213691,9.37508571 L248.35632,9.33325714 C248.415977,9.31131429 248.45232,9.30925714 248.556549,9.28594286 C248.462606,9.1728 248.444777,9.15017143 248.339863,9.01645714 L247.615749,8.02628571 L247.770034,7.59634286 L248.902834,9.21051429 Z" id="Fill-15" fill="#00307B" mask="url(#mask-4)"></path>
        <polygon id="Fill-16" fill="#00307B" mask="url(#mask-4)" points="250.755703 4.16742857 250.17696 4.87302857 251.90976 6.29177143 251.495589 6.80057143 249.75936 5.38388571 249.18336 6.08948571 248.78976 5.76925714 250.36416 3.84377143"></polygon>
        <polygon id="Fill-17" fill="#00307B" mask="url(#mask-4)" points="254.463566 1.56185143 253.077051 2.37373714 253.373966 2.88116571 254.64528 2.13168 254.883223 2.54242286 253.61328 3.28299429 253.946537 3.87270857 255.363909 3.04025143 255.623109 3.47842286 253.636594 4.63865143 252.251451 2.26882286 254.205051 1.12025143"></polygon>
        <path d="M259.781143,2.62594286 L259.059086,2.67874286 L258.701829,2.08148571 L257.596457,2.2632 L257.443543,2.93177143 L256.757829,3.11005714 L257.481943,0.105942857 L258.158743,0.00445714286 L259.781143,2.62594286 Z M258.206057,1.2168 C258.056571,0.963085714 257.998286,0.852685714 257.913943,0.657257143 C257.8872,0.854057143 257.864571,0.996 257.795314,1.28057143 L257.680114,1.80514286 L258.476914,1.67554286 L258.206057,1.2168 Z" id="Fill-18" fill="#00307B" mask="url(#mask-4)"></path>
        <path d="M264.18672,3.50982857 L263.608663,3.28765714 L263.830834,2.47028571 C263.85072,2.37634286 263.890491,2.2488 263.93712,2.07394286 C263.983749,1.91005714 264.025577,1.77017143 264.050263,1.6728 C264.087977,1.56171429 264.125691,1.4472 264.15792,1.3272 L264.222377,1.13382857 C264.060549,1.41497143 264.000891,1.5096 263.847291,1.73245714 C263.78832,1.8312 263.727977,1.91828571 263.680663,1.98548571 L262.898949,3.08125714 L262.399749,2.94411429 L262.24272,1.63097143 C262.231063,1.56651429 262.227634,1.4712 262.21872,1.33954286 C262.209806,1.17291429 262.200206,1.03645714 262.197463,0.944571429 C262.192663,0.873257143 262.192663,0.763542857 262.192663,0.613371429 L262.126149,0.944571429 C262.04592,1.30662857 262.008206,1.4664 261.900549,1.89702857 L261.672891,2.77885714 L261.059863,2.68354286 L261.75312,0.000342857143 L262.668549,0.173142857 L262.802263,1.4472 C262.833806,1.74342857 262.844091,1.99988571 262.830377,2.3496 C262.937349,2.14937143 262.970263,2.07805714 263.090263,1.89702857 C263.172549,1.76948571 263.239063,1.668 263.301463,1.56925714 L264.025577,0.533142857 L264.899863,0.830057143 L264.18672,3.50982857 Z" id="Fill-19" fill="#00307B" mask="url(#mask-4)"></path>
        <path d="M258.939429,8.79737143 C258.602743,9.09565714 257.950629,9.72582857 257.3088,10.3388571 L256.586057,11.0334857 C255.996343,10.9292571 255.419657,10.8750857 254.816229,10.8750857 C253.481143,10.8750857 252.251657,11.244 251.699657,11.8131429 C251.482971,12.0366857 251.375314,12.2712 251.381486,12.5208 C251.397257,13.1694857 252.137829,13.4972571 252.361371,13.5795429 C253.552457,14.0204571 254.546057,13.8936 255.595886,13.1557714 C256.173257,12.7553143 256.867886,12.1100571 257.415086,11.5813714 C257.834743,11.6828571 258.312686,11.8056 258.8304,11.9592 L259.303543,12.0970286 C258.6864,12.7011429 258.056914,13.3436571 257.467886,13.8586286 L257.424,13.8990857 C256.610743,14.6197714 256.019657,15.1374857 255.165257,15.3322286 C254.568686,15.4645714 254.1456,15.3363429 254.004343,15.2513143 C253.985829,15.2526857 253.9728,15.2753143 253.9728,15.2753143 C254.463771,15.6833143 254.930743,15.9116571 255.735086,15.8472 C256.496914,15.7779429 257.380114,15.2952 258.285257,14.4469714 L259.503771,13.2517714 L260.359543,12.4035429 C260.359543,12.4090286 262.086171,12.9116571 262.086171,12.9116571 C262.101257,12.9130286 262.119086,12.9219429 262.119086,12.9219429 C262.101257,12.9219429 261.046629,13.9573714 261.046629,13.9573714 L260.130514,14.8776 C259.189714,15.7834286 258.678171,16.2558857 258.1296,16.6501714 C257.2224,17.2961143 256.4448,17.6238857 255.757714,17.6739429 C255.4032,17.6979429 254.890971,17.6739429 254.463771,17.4216 C254.445257,17.4202286 254.415771,17.4408 254.415771,17.4408 C254.883429,17.8398857 255.453943,18.3123429 256.431771,18.2883429 C257.535771,18.2547429 258.519771,17.7260571 260.0496,16.3237714 C260.7456,15.6833143 261.435429,14.9688 262.045714,14.3372571 L263.180571,13.1866286 C263.929371,13.3532571 264.592457,13.4211429 265.333714,13.404 C266.406857,13.3834286 267.329829,12.8670857 267.339429,12.2773714 C267.349029,11.8426286 266.993143,11.6074286 266.776457,11.4689143 C266.602286,11.3544 266.119543,11.0849143 265.459886,11.0849143 C264.6528,11.0849143 263.807314,11.4456 262.954971,12.1457143 L262.385829,12.6524571 C262.394743,12.6469714 262.178743,12.5928 262.178743,12.5928 L260.600914,12.1457143 C261.069257,11.7102857 261.462171,11.3393143 261.817371,11.0190857 C262.6896,10.2538286 263.637943,9.93017143 264.198171,9.89725714 C264.6096,9.87051429 265.3152,9.90822857 265.605257,10.1125714 C265.621714,10.1125714 265.6416,10.0824 265.6416,10.0824 C264.861943,9.41862857 264.190629,9.32742857 263.635886,9.32742857 C263.090743,9.32742857 262.210286,9.49748571 261.138514,10.3313143 C260.696914,10.6741714 260.130514,11.244 259.535314,11.8426286 C259.535314,11.8398857 258.737829,11.6005714 258.737829,11.6005714 L258.543771,11.5374857 L257.701714,11.2824 C257.725029,11.2824 258.183086,10.8298286 258.183086,10.8298286 C258.7488,10.2750857 259.279543,9.75531429 259.700571,9.39531429 C261.215314,8.124 262.167771,7.95462857 262.830857,7.94777143 C263.559771,7.94777143 264.135771,8.10068571 264.547886,8.39554286 C264.558171,8.39211429 264.576,8.36674286 264.576,8.36674286 C263.727771,7.596 263.114743,7.34777143 262.060114,7.34019571 C261.130286,7.33542857 260.024229,7.85657143 258.939429,8.79737143 M252.986057,13.3532571 C252.492343,13.3169143 252.251657,13.1208 252.251657,12.7402286 C252.251657,12.6929143 252.285943,11.4874286 255.037714,11.3509714 C255.353143,11.3324571 255.704229,11.3235429 256.237714,11.3838857 C256.2144,11.3838857 255.925029,11.6513143 255.925029,11.6513143 L255.750857,11.8104 C255.092571,12.4131429 253.978971,13.4211429 252.986057,13.3532571 M264.125486,12.3761143 C264.916114,11.8398857 265.576457,11.5546286 265.983086,11.5704 C266.2272,11.5779429 266.518629,11.6513143 266.518629,11.9544 C266.518629,12.2609143 266.2224,12.5180571 265.649143,12.7237714 C265.149943,12.9041143 264.376457,12.9500571 263.535771,12.8588571 C263.764114,12.6469714 263.958857,12.4830857 264.125486,12.3761143" id="Fill-20" fill="#00307B" mask="url(#mask-4)"></path>
        <path d="M258.664869,12.9691886 L258.664869,13.7845029 L258.664869,12.9691886 Z" id="Fill-21" fill="#00307B" mask="url(#mask-4)"></path>
        <path d="M265.311023,1.34419932 C265.427502,1.09185721 265.715673,0.975916246 265.969052,1.07897488 C266.227726,1.19036915 266.344961,1.48287381 266.233777,1.73900484 C266.126374,1.99589365 265.833665,2.10804569 265.578773,2.00119814 C265.325394,1.88525717 265.212697,1.59805699 265.311023,1.34419932 L265.311023,1.34419932 Z M266.146039,1.74430933 C266.25798,1.54198097 266.178563,1.28054546 265.978128,1.17672903 C265.779207,1.06078807 265.52129,1.12898863 265.407837,1.33434813 C265.294383,1.54501211 265.373801,1.79508086 265.573478,1.90950626 C265.773156,2.01635382 266.035611,1.94815325 266.146039,1.74430933 L266.146039,1.74430933 Z M265.854843,1.88904609 L265.773156,1.84585239 L265.750466,1.54652767 L265.670292,1.5025762 L265.547762,1.72309137 L265.481203,1.68595995 L265.746684,1.20855597 L265.954681,1.32449693 C266.038637,1.36996398 266.11276,1.43816455 266.053764,1.54501211 C266.003845,1.63518841 265.913082,1.63518841 265.829883,1.59426807 L265.854843,1.88904609 Z M265.788283,1.47832711 C265.851061,1.51318517 265.945605,1.58062796 265.986448,1.5025762 C266.012164,1.4548358 265.954681,1.41088432 265.907031,1.38208852 L265.779207,1.31313017 L265.711135,1.43816455 L265.788283,1.47832711 Z" id="Fill-22" fill="#00307B" mask="url(#mask-4)"></path>
      </g>
    </g>
  </g>
</svg>
