<svg id="Layer_1" data-name="Layer 1" xmlns="http://www.w3.org/2000/svg" viewBox="0 0 275.76 79.48"><defs><style>.cls-1{fill:#808285;}</style></defs><title>XOJET_Aviation_logo</title><path class="cls-1" d="M119.57,12c-2.15-4.22-7.3-8.22-20.21-8.36C84.3,3.48,71.08,7.56,66.29,21.94c-4.45,13.34.5,22,18.72,22.53,15.23.44,28.63-2.68,33.82-17.82C120.58,21.48,121.28,15.43,119.57,12Zm-8.73,14c-3.4,11.83-12.63,15.11-23.39,14.75C74.56,40.36,71,34,74.47,22.49,78,10.83,87.48,7.41,97.77,7.3c8.26-.09,12.49,3.44,14,6.88,1.15,2.82.25,7.64-1,11.88Z"/><polygon class="cls-1" points="33.58 22.7 16.67 4.39 28.66 4.39 41.18 17.81 67.51 0.52 79.23 0.52 45.59 22.58 72.18 51.29 60.2 51.38 38.09 27.59 14.14 43.23 2.48 43.24 33.58 22.7"/><polygon class="cls-1" points="192.63 4.35 241.33 4.35 240.2 8.66 219.12 8.66 209.9 43.17 200.85 43.17 210 8.69 191.48 8.69 192.63 4.35"/><path class="cls-1" d="M169,8.6l19.85.07L190,4.31H168.93c-1.79,0-3.63,0-5.25.16a24.19,24.19,0,0,0-13.26,5,26.73,26.73,0,0,0-8.89,12.45c-4.85,13.69,3.3,20.41,16.8,21.17.66,0,3.74,0,3.74,0h17.47l1.24-4.29s-13.3.07-18.47,0c-.82,0-1.41,0-1.73-.06-8.15-.74-13.69-4.12-11.35-14.13h32.13l1.31-4.35H150.58C154.28,11.41,162.63,8.9,169,8.6Z"/><path class="cls-1" d="M109.71,46.15a24.21,24.21,0,0,0,8.09-4.63c2.68-2.56,3.56-4.21,5.4-8a44.49,44.49,0,0,0,2-5.06c.74-2.23,1.4-5,2.1-7.65,2-7,3-10.86,3.61-13.24a26.53,26.53,0,0,1,1.68-5c1.14-1.82,3.62-2,4.45-2s6.32,0,6.32,0a5.21,5.21,0,0,0-1.25,1A6.11,6.11,0,0,0,141.23,3c-.32.88-.75,2.18-.94,2.81L139.34,9S134.06,28.37,134,28.67l-.23.88c-2.19,7.91-4.41,10.4-6.21,12.48-2.24,2.61-5,4.87-10.82,7-3.46,1.27-11.94,2.29-17.76,2l1-3.12A39.71,39.71,0,0,0,109.71,46.15Z"/><path class="cls-1" d="M134.55,70.49H122.92l-3.33,4.18h-3.93l10.6-13.34c1.67-2.11,3.1-3,5.54-3s4,1.11,4.67,3.8l3.32,12.58h-4.17ZM125,67.82h8.81l-1.29-5c-.26-1-.66-1.4-1.46-1.4a2.2,2.2,0,0,0-1.82,1.06Z"/><path class="cls-1" d="M149.41,71.84c.54,0,1-.26,1.56-1L160.5,58.6h4L154,72c-1.58,2-3,3-5.33,3s-3.81-1.07-4.45-3.68l-3.15-12.7h4.18l2.91,12C148.4,71.45,148.77,71.84,149.41,71.84Z"/><path class="cls-1" d="M171.31,58.6,167,74.67h-4.17l4.3-16.07Z"/><path class="cls-1" d="M188.57,70.49H177l-3.34,4.18h-3.93l10.61-13.34c1.67-2.11,3.1-3,5.54-3s4,1.11,4.67,3.8l3.32,12.58h-4.17Zm-9.5-2.67h8.8l-1.29-5c-.26-1-.67-1.4-1.46-1.4a2.21,2.21,0,0,0-1.82,1.07Z"/><path class="cls-1" d="M195.12,58.6h20.16l-.71,2.66h-8L203,74.67h-4.17l3.6-13.41h-8Z"/><path class="cls-1" d="M222.13,58.6l-4.31,16.07h-4.17L218,58.6Z"/><path class="cls-1" d="M233.31,75c-7.67,0-11.2-2.67-9.71-8.34,1.61-6.09,5.92-8.35,13-8.35,7.67,0,11.2,2.67,9.7,8.35C244.68,72.74,240.37,75,233.31,75Zm2.95-14.45c-4.54,0-7.09,1.41-8.37,6.11-1.18,4.28,1.26,6.1,5.73,6.1s7.09-1.41,8.38-6.1c1.17-4.29-1.26-6.11-5.74-6.11Z"/><path class="cls-1" d="M269.28,74.67h-3c-3.62,0-4.63-1.67-6.57-5.44l-1.85-3.56c-1.45-2.81-1.88-3.44-3-3.44l-3.33,12.44h-3.75l4.3-16.07h3c3.62,0,4.61,1.67,6.55,5.44l1.84,3.56c1.46,2.81,1.91,3.44,3,3.44l3.34-12.44h3.75Z"/></svg>