<?xml version="1.0" encoding="utf-8"?>
<!-- Generator: Adobe Illustrator 16.0.3, SVG Export Plug-In . SVG Version: 6.00 Build 0)  -->
<!DOCTYPE svg PUBLIC "-//W3C//DTD SVG 1.1//EN" "http://www.w3.org/Graphics/SVG/1.1/DTD/svg11.dtd">
<svg version="1.1" id="Layer_1" xmlns="http://www.w3.org/2000/svg" xmlns:xlink="http://www.w3.org/1999/xlink" x="0px" y="0px"
	 width="1069.136px" height="597.952px" viewBox="0 0 1069.136 597.952" enable-background="new 0 0 1069.136 597.952"
	 xml:space="preserve">
<path fill-rule="evenodd" clip-rule="evenodd" fill="#DF0915" d="M534.568,29.212c279.1,0,505.359,120.776,505.359,269.764
	c0,148.987-226.26,269.764-505.359,269.764c-279.1,0-505.359-120.776-505.359-269.764C29.209,149.988,255.468,29.212,534.568,29.212
	L534.568,29.212z"/>
<path fill="#FFFFFF" d="M534.568,568.74c279.104,0,505.359-120.776,505.359-269.764c0-148.988-226.256-269.764-505.359-269.764
	c-279.1,0-505.359,120.776-505.359,269.764C29.209,447.963,255.468,568.74,534.568,568.74 M534.568,597.952
	c-139.698,0-271.49-29.284-371.098-82.454c-49.969-26.676-89.482-58.091-117.44-93.377C15.487,383.573,0,342.142,0,298.976
	c0-43.167,15.487-84.597,46.03-123.145c27.958-35.286,67.471-66.701,117.44-93.377C263.078,29.284,394.87,0,534.568,0
	c139.701,0,271.49,29.284,371.098,82.454c49.969,26.676,89.482,58.091,117.439,93.377c30.543,38.548,46.031,79.979,46.031,123.145
	c0,43.166-15.488,84.597-46.031,123.145c-27.957,35.286-67.471,66.701-117.439,93.377
	C806.058,568.667,674.269,597.952,534.568,597.952L534.568,597.952L534.568,597.952z"/>
<path fill="#FFFFFF" d="M328.069,374.976c-13.75,19.001-44.348,52.779-93,54.999c-45.134,2.062-84.001-11.749-91.001-64.998
	c-2.52-14.771-0.828-25.06-0.828-25.06l27.83,0.059c0,0,0.135,16.053,7.999,29c5.812,9.566,17.7,14.348,26.699,14.324
	c11.393-0.027,25.375-5.768,36.301-20.324s91.001-159.001,91.001-159.001H225.067l18-29.998h201.001
	C444.069,173.977,341.818,355.975,328.069,374.976L328.069,374.976z M558.068,429.975h-84.999l16-49.999h-81l-45,49.999h-42
	l232-256.999h85L558.068,429.975L558.068,429.975z M435.067,349.975h63l36-110L435.067,349.975L435.067,349.975z M886.068,203.975
	h-56l-130.002,226h-93.998l129-226h-69l18-30.999h219L886.068,203.975L886.068,203.975z"/>
</svg>
