<?xml version="1.0" encoding="utf-8"?>
<!-- Generator: Adobe Illustrator 15.1.0, SVG Export Plug-In . SVG Version: 6.00 Build 0)  -->
<!DOCTYPE svg PUBLIC "-//W3C//DTD SVG 1.1//EN" "http://www.w3.org/Graphics/SVG/1.1/DTD/svg11.dtd">
<svg version="1.1" id="Ebene_1" xmlns="http://www.w3.org/2000/svg" xmlns:xlink="http://www.w3.org/1999/xlink" x="0px" y="0px"
	 width="487.584px" height="127.217px" viewBox="0 0 487.584 127.217" enable-background="new 0 0 487.584 127.217"
	 xml:space="preserve">
<g>
	<path fill="#004186" d="M183.626,119.896V98.534l9.824,21.362h7.493V94.092h-4.852v20.749l-9.516-20.749h-7.801v25.805H183.626
		L183.626,119.896z M210.74,105.812c0.542-0.688,1.254-1.032,2.134-1.032c0.972,0,1.706,0.324,2.203,0.972
		c0.498,0.646,0.757,1.624,0.781,2.93h-6.036C209.891,107.458,210.197,106.502,210.74,105.812L210.74,105.812z M215.995,114.263
		c-0.195,0.864-0.54,1.505-1.038,1.925c-0.497,0.42-1.168,0.63-2.014,0.63c-1.075,0-1.881-0.396-2.418-1.189
		c-0.537-0.793-0.817-1.994-0.84-3.604l11.368-0.017c0.011-0.129,0.019-0.274,0.025-0.438c0.006-0.163,0.009-0.408,0.009-0.734
		c0-2.985-0.683-5.292-2.049-6.919c-1.366-1.628-3.301-2.441-5.804-2.441c-2.697,0-4.783,0.838-6.258,2.511
		c-1.474,1.674-2.211,4.039-2.211,7.094c0,2.904,0.72,5.167,2.16,6.788c1.44,1.622,3.457,2.433,6.052,2.433
		c2.229,0,4.009-0.53,5.341-1.592c1.331-1.062,2.071-2.542,2.22-4.444H215.995L215.995,114.263z M235.933,101.911v11.074
		c0,1.073-0.292,1.925-0.874,2.556c-0.583,0.629-1.366,0.943-2.349,0.943c-1.018,0-1.752-0.288-2.204-0.866
		c-0.451-0.576-0.677-1.542-0.677-2.895v-10.812h-5.092v11.564c0,2.321,0.472,4.045,1.415,5.17c0.943,1.126,2.391,1.688,4.346,1.688
		c1.314,0,2.426-0.251,3.335-0.752c0.908-0.501,1.694-1.296,2.357-2.38l0.137,2.694h4.852c-0.045-0.524-0.083-1.076-0.111-1.653
		c-0.029-0.577-0.043-1.187-0.043-1.828v-14.504H235.933L235.933,101.911z M250.736,105.812c0.543-0.688,1.254-1.032,2.135-1.032
		c0.971,0,1.707,0.324,2.203,0.972c0.496,0.646,0.758,1.624,0.779,2.93h-6.035C249.887,107.458,250.193,106.502,250.736,105.812
		L250.736,105.812z M255.992,114.263c-0.195,0.864-0.541,1.505-1.037,1.925c-0.498,0.42-1.17,0.63-2.016,0.63
		c-1.074,0-1.881-0.396-2.418-1.189s-0.816-1.994-0.84-3.604l11.367-0.017c0.012-0.129,0.02-0.274,0.027-0.438
		c0.004-0.163,0.008-0.408,0.008-0.734c0-2.985-0.684-5.292-2.049-6.919c-1.367-1.628-3.301-2.441-5.805-2.441
		c-2.697,0-4.783,0.838-6.258,2.511c-1.475,1.674-2.211,4.039-2.211,7.094c0,2.904,0.719,5.167,2.16,6.788
		c1.439,1.622,3.457,2.433,6.053,2.433c2.229,0,4.008-0.53,5.34-1.592s2.072-2.542,2.221-4.444H255.992L255.992,114.263z
		 M285.375,119.896V98.29h7.441v-4.198H272.5v4.198h7.439v21.606H285.375L285.375,119.896z M296.457,105.812
		c0.543-0.688,1.256-1.032,2.135-1.032c0.971,0,1.707,0.324,2.203,0.972c0.498,0.646,0.758,1.624,0.781,2.93h-6.035
		C295.609,107.458,295.914,106.502,296.457,105.812L296.457,105.812z M301.713,114.263c-0.195,0.864-0.541,1.505-1.037,1.925
		c-0.498,0.42-1.17,0.63-2.014,0.63c-1.076,0-1.881-0.396-2.418-1.189s-0.818-1.994-0.842-3.604l11.367-0.017
		c0.014-0.129,0.021-0.274,0.027-0.438c0.006-0.163,0.008-0.408,0.008-0.734c0-2.985-0.684-5.292-2.049-6.919
		c-1.365-1.628-3.301-2.441-5.803-2.441c-2.699,0-4.783,0.838-6.26,2.511c-1.473,1.674-2.211,4.039-2.211,7.094
		c0,2.904,0.721,5.167,2.16,6.788c1.441,1.622,3.457,2.433,6.053,2.433c2.229,0,4.01-0.53,5.342-1.592
		c1.33-1.062,2.07-2.542,2.219-4.444H301.713L301.713,114.263z M319.766,113.091c-0.059,1.178-0.279,2.064-0.66,2.66
		c-0.383,0.594-0.924,0.892-1.621,0.892c-0.947,0-1.631-0.47-2.049-1.409c-0.418-0.938-0.625-2.504-0.625-4.697
		c0-1.936,0.211-3.374,0.633-4.312c0.424-0.938,1.07-1.408,1.939-1.408c0.73,0,1.281,0.251,1.654,0.752
		c0.371,0.502,0.613,1.324,0.729,2.467h4.852c-0.033-2.028-0.664-3.63-1.889-4.802s-2.877-1.759-4.961-1.759
		c-2.574,0-4.594,0.817-6.059,2.45s-2.197,3.878-2.197,6.734c0,2.986,0.709,5.346,2.127,7.077c1.416,1.732,3.342,2.599,5.777,2.599
		c2.273,0,4.043-0.636,5.307-1.907c1.262-1.271,1.895-3.05,1.895-5.336H319.766L319.766,113.091z M333,119.896v-11.075
		c0-1.072,0.293-1.933,0.883-2.58c0.588-0.646,1.373-0.971,2.357-0.971c1.018,0,1.752,0.292,2.203,0.875s0.678,1.545,0.678,2.886
		v10.865h5.074v-11.582c0-2.309-0.471-4.026-1.414-5.151c-0.943-1.127-2.387-1.689-4.33-1.689c-1.234,0-2.289,0.225-3.162,0.674
		c-0.875,0.449-1.639,1.146-2.289,2.091V94.092h-5.092v25.805H333L333,119.896z M353.863,119.896v-11.075
		c0-1.072,0.301-1.933,0.9-2.58c0.6-0.646,1.393-0.971,2.375-0.971c1.016,0,1.752,0.292,2.203,0.875s0.676,1.545,0.676,2.886v10.865
		h5.041v-11.582c0-2.309-0.471-4.026-1.414-5.151c-0.941-1.127-2.387-1.689-4.33-1.689c-1.312,0-2.426,0.251-3.334,0.753
		c-0.908,0.501-1.693,1.294-2.357,2.379l-0.104-2.694h-4.885c0.057,0.665,0.1,1.277,0.129,1.838c0.027,0.56,0.041,1.096,0.041,1.608
		v14.539H353.863L353.863,119.896z M374.951,106.426c0.662-1.003,1.629-1.505,2.896-1.505c1.281,0,2.252,0.502,2.914,1.505
		c0.664,1.003,0.996,2.483,0.996,4.442c0,1.948-0.332,3.428-0.996,4.436c-0.662,1.009-1.633,1.514-2.914,1.514
		c-1.268,0-2.234-0.505-2.896-1.514c-0.664-1.008-0.994-2.487-0.994-4.436C373.957,108.909,374.287,107.429,374.951,106.426
		L374.951,106.426z M371.248,117.754c1.656,1.72,3.857,2.58,6.6,2.58c2.766,0,4.98-0.857,6.645-2.572
		c1.662-1.714,2.494-4,2.494-6.858c0-2.856-0.832-5.143-2.494-6.857c-1.664-1.714-3.879-2.572-6.645-2.572
		c-2.742,0-4.943,0.861-6.6,2.581c-1.658,1.721-2.486,4.004-2.486,6.849C368.762,113.75,369.59,116.032,371.248,117.754
		L371.248,117.754z M395.797,119.896V94.092h-5.092v25.805H395.797L395.797,119.896z M405.705,106.426
		c0.664-1.003,1.629-1.505,2.898-1.505c1.279,0,2.252,0.502,2.914,1.505s0.994,2.483,0.994,4.442c0,1.948-0.332,3.428-0.994,4.436
		c-0.662,1.009-1.635,1.514-2.914,1.514c-1.27,0-2.234-0.505-2.898-1.514c-0.662-1.008-0.994-2.487-0.994-4.436
		C404.711,108.909,405.043,107.429,405.705,106.426L405.705,106.426z M402.002,117.754c1.658,1.72,3.857,2.58,6.602,2.58
		c2.766,0,4.98-0.857,6.645-2.572c1.662-1.714,2.494-4,2.494-6.858c0-2.856-0.832-5.143-2.494-6.857
		c-1.664-1.714-3.879-2.572-6.645-2.572c-2.744,0-4.943,0.861-6.602,2.581c-1.656,1.721-2.486,4.004-2.486,6.849
		C399.516,113.75,400.346,116.032,402.002,117.754L402.002,117.754z M426.631,106.592c0.611-0.927,1.465-1.392,2.562-1.392
		c1.107,0,1.988,0.476,2.641,1.427c0.65,0.95,0.977,2.241,0.977,3.875c0,1.633-0.326,2.919-0.977,3.857
		c-0.652,0.939-1.533,1.408-2.641,1.408c-1.098,0-1.951-0.464-2.562-1.391c-0.613-0.928-0.918-2.22-0.918-3.875
		C425.713,108.821,426.018,107.519,426.631,106.592L426.631,106.592z M432.949,101.911l-0.174,2.433
		c-0.615-0.922-1.354-1.619-2.211-2.091c-0.857-0.473-1.83-0.709-2.914-0.709c-2.082,0-3.762,0.822-5.041,2.467
		s-1.92,3.808-1.92,6.491c0,2.718,0.631,4.89,1.895,6.517c1.262,1.627,2.939,2.44,5.031,2.44c1.086,0,2.037-0.203,2.855-0.612
		c0.816-0.408,1.545-1.05,2.186-1.924v2.117c0,1.655-0.273,2.821-0.822,3.498s-1.492,1.015-2.83,1.015
		c-0.812,0-1.463-0.21-1.953-0.629c-0.492-0.42-0.773-1.009-0.842-1.769h-4.885c0,1.878,0.662,3.322,1.988,4.331
		c1.326,1.008,3.24,1.514,5.744,1.514c3.062,0,5.283-0.646,6.66-1.934c1.377-1.289,2.066-3.368,2.066-6.237V104.78
		c0-0.63,0.014-1.175,0.043-1.636c0.027-0.46,0.064-0.871,0.111-1.233H432.949L432.949,101.911z M447.484,98.657v-4.565h-5.125
		v4.565H447.484L447.484,98.657z M442.359,119.896h5.125v-17.985h-5.125V119.896L442.359,119.896z M457.145,105.812
		c0.543-0.688,1.254-1.032,2.135-1.032c0.973,0,1.705,0.324,2.203,0.972c0.498,0.646,0.758,1.624,0.781,2.93h-6.037
		C456.297,107.458,456.602,106.502,457.145,105.812L457.145,105.812z M462.4,114.263c-0.195,0.864-0.541,1.505-1.039,1.925
		c-0.496,0.42-1.168,0.63-2.014,0.63c-1.074,0-1.881-0.396-2.418-1.189s-0.816-1.994-0.84-3.604l11.369-0.017
		c0.01-0.129,0.018-0.274,0.023-0.438c0.006-0.163,0.01-0.408,0.01-0.734c0-2.985-0.684-5.292-2.049-6.919
		c-1.365-1.628-3.301-2.441-5.805-2.441c-2.697,0-4.783,0.838-6.258,2.511c-1.473,1.674-2.211,4.039-2.211,7.094
		c0,2.904,0.721,5.167,2.16,6.788c1.439,1.622,3.457,2.433,6.053,2.433c2.229,0,4.008-0.53,5.34-1.592s2.072-2.542,2.221-4.444
		H462.4L462.4,114.263z"/>
	<polygon fill="#72797F" points="1.796,12.172 1.796,0.392 60.052,0.392 60.052,12.172 27.787,48.403 60.052,48.403 60.052,60.181 
		0.006,60.181 0.006,48.533 32.013,12.172 1.796,12.172 	"/>
	<polygon fill="#72797F" points="71.83,0.392 71.83,60.181 121.634,60.181 121.634,48.403 92.442,48.403 92.442,36.369 
		118.303,36.369 118.303,24.46 92.442,24.46 92.442,12.299 119.968,12.299 119.968,0.392 71.83,0.392 	"/>
	<polygon fill="#72797F" points="339.668,0.392 319.055,0.392 319.055,60.181 361.945,60.181 361.945,48.276 339.668,48.276 
		339.668,0.392 	"/>
	<polygon fill="#72797F" points="368.732,60.181 389.342,60.181 389.342,0.391 368.732,0.391 368.732,60.181 	"/>
	<polygon fill="#72797F" points="403.043,0.392 403.043,60.181 421.092,60.181 421.092,24.333 450.16,60.438 468.08,60.438 
		468.08,0.392 450.16,0.392 450.16,36.242 421.348,0.392 403.043,0.392 	"/>
	<path fill="#72797F" d="M161.067,0.392c7.552,0.512,15.492,2.561,19.461,6.146c4.352,3.841,7.168,9.346,7.168,16.644
		c0,7.554-3.712,13.188-8.45,17.157c-4.479,3.583-9.857,5.505-18.179,5.76V32.912c1.279-0.256,2.561-0.768,3.839-1.792
		c2.561-2.177,2.818-4.226,2.818-7.812c0-4.864-0.384-9.474-6.657-10.369V0.392L161.067,0.392z M132.899,0.392h7.812h17.412
		c0.895,0,1.919,0,2.944,0v12.547c-0.77-0.126-1.665-0.126-2.561-0.126h-4.225v20.483c2.304,0,4.609,0.129,6.786-0.384v13.187
		c-0.513,0-1.025,0-1.535,0h-5.124v14.074h-21.509V0.392L132.899,0.392z"/>
	<polygon fill="#72797F" points="258.371,0.392 258.371,60.181 308.299,60.181 308.299,48.403 279.109,48.403 279.109,36.369 
		304.844,36.369 304.844,24.46 278.984,24.46 278.984,12.299 306.637,12.299 306.637,0.392 258.371,0.392 	"/>
	<path fill="#72797F" d="M223.801,0.392c7.553,0.512,15.621,2.561,19.461,6.146c4.352,3.841,7.169,9.346,7.169,16.644
		c0,7.554-3.713,13.188-8.322,17.157c-4.609,3.583-9.857,5.505-18.308,5.76V32.912c1.408-0.256,2.687-0.768,3.969-1.792
		c2.56-2.177,2.817-4.226,2.817-7.812c0-4.864-0.386-9.474-6.786-10.369V0.392L223.801,0.392z M195.763,0.392h7.808h17.413
		c0.896,0,1.921,0,2.817,0v12.547c-0.769-0.126-1.536-0.126-2.431-0.126h-4.356l0.13,20.483c2.304,0,4.609,0.129,6.657-0.384v13.187
		c-0.384,0-0.896,0-1.409,0h-5.121v14.089h-21.508V0.392L195.763,0.392z"/>
	<path fill="#72797F" d="M481.355,0.741c3.203,0,6.018,2.688,6.018,6.017c0,3.328-2.814,6.018-6.018,6.018l0,0v-0.77
		c2.818,0,5.25-2.304,5.25-5.248c0-2.817-2.432-5.251-5.25-5.251V0.741L481.355,0.741L481.355,0.741z M481.355,12.775
		c-3.33,0-6.018-2.69-6.018-6.018c0-3.329,2.688-6.017,6.018-6.017v0.766c-2.943,0-5.248,2.434-5.248,5.251
		c0,2.944,2.305,5.248,5.248,5.248V12.775L481.355,12.775z"/>
	<path fill="#72797F" d="M478.865,3.263h2.674c0.436,0,0.756,0.02,0.959,0.057c0.205,0.039,0.387,0.1,0.553,0.187
		c0.287,0.159,0.508,0.382,0.66,0.664c0.156,0.285,0.229,0.62,0.229,1.003c0,0.373-0.08,0.69-0.242,0.954
		c-0.156,0.264-0.393,0.472-0.711,0.62c0.27,0.076,0.463,0.202,0.574,0.381c0.113,0.178,0.188,0.479,0.213,0.904l0.084,1.138
		c0.012,0.244,0.043,0.428,0.094,0.547c0.049,0.12,0.119,0.204,0.217,0.257v0.191h-1.084c-0.088-0.144-0.148-0.452-0.18-0.924
		c0-0.013,0-0.021,0-0.029l-0.057-0.899c-0.031-0.462-0.131-0.761-0.297-0.899c-0.164-0.137-0.578-0.206-1.24-0.206h-1.52v2.957
		h-0.926V3.263L478.865,3.263z M479.779,4.073v2.339h1.605c0.576,0,0.986-0.094,1.227-0.282c0.238-0.187,0.355-0.499,0.355-0.937
		c0-0.409-0.113-0.699-0.336-0.867c-0.221-0.168-0.643-0.253-1.246-0.253H479.779L479.779,4.073z"/>
</g>
</svg>
