<?xml version="1.0" encoding="UTF-8" ?>
<!DOCTYPE svg PUBLIC "-//W3C//DTD SVG 1.1//EN" "http://www.w3.org/Graphics/SVG/1.1/DTD/svg11.dtd">
<svg width="327pt" height="108pt" viewBox="0 0 327 108" version="1.1" xmlns="http://www.w3.org/2000/svg">
<g id="#ffffffff">
</g>
<g id="#009e30ff">
<path fill="#009e30" opacity="1.00" d=" M 184.14 10.13 C 185.00 10.14 186.72 10.16 187.57 10.17 C 185.64 17.13 181.57 23.21 178.76 29.81 C 178.36 30.97 178.28 32.22 178.09 33.43 C 183.87 33.75 189.65 33.60 195.43 33.73 C 195.48 34.55 195.54 35.37 195.60 36.19 C 192.23 36.02 188.86 35.80 185.50 35.79 L 189.29 37.21 L 189.67 38.93 C 185.03 38.98 180.35 38.37 175.76 39.28 C 173.94 41.59 173.33 44.58 172.17 47.24 C 169.58 54.37 166.34 61.41 165.38 69.01 C 176.48 64.81 186.32 57.76 195.15 49.93 C 193.35 52.82 191.53 55.70 189.61 58.50 C 179.52 65.66 170.00 73.58 160.50 81.48 C 158.33 83.38 155.28 82.69 152.68 82.55 C 152.18 80.67 151.23 78.60 152.70 76.89 C 156.91 70.03 159.75 62.45 162.30 54.84 C 157.21 60.23 152.91 66.31 148.13 71.97 C 144.85 75.75 142.45 80.38 138.43 83.45 C 136.04 84.03 134.33 81.66 132.78 80.23 C 129.64 77.11 128.55 72.74 127.47 68.60 C 128.56 67.85 129.38 66.40 130.87 66.51 C 132.43 68.28 133.65 70.32 135.00 72.25 C 135.53 72.01 136.57 71.54 137.10 71.31 C 138.27 64.79 138.86 58.19 138.36 51.57 C 137.89 51.52 136.95 51.42 136.48 51.37 C 130.71 56.76 127.28 64.10 121.52 69.49 C 117.14 73.60 112.55 77.80 106.79 79.85 C 103.39 81.26 99.65 81.25 96.08 81.95 C 88.66 83.47 81.20 84.84 73.88 86.81 C 59.29 90.67 44.56 93.97 29.89 97.50 C 28.30 97.75 26.68 97.83 25.07 97.96 C 28.01 95.02 29.22 91.01 30.29 87.13 C 30.28 86.06 30.26 84.99 30.25 83.92 C 30.01 83.16 29.52 81.64 29.28 80.88 C 34.15 74.59 39.28 68.49 45.01 62.96 C 55.69 52.58 66.07 41.90 76.63 31.39 C 65.21 33.39 53.73 35.00 42.28 36.82 C 42.99 35.26 43.70 33.71 44.45 32.17 C 42.37 30.12 39.99 28.43 37.53 26.85 C 41.23 25.60 44.87 24.17 48.58 22.93 C 48.48 21.97 48.38 21.01 48.29 20.04 C 57.11 16.79 66.47 15.67 75.64 13.85 C 79.18 13.13 82.80 13.39 86.37 13.61 C 79.32 14.81 72.33 16.59 65.61 19.06 C 71.03 19.64 76.56 19.82 81.91 18.62 C 88.88 17.13 95.95 16.15 102.95 14.81 C 105.14 14.63 107.35 14.52 109.55 14.47 C 99.55 24.51 88.98 33.97 79.35 44.39 C 68.75 55.29 58.30 66.53 49.94 79.27 C 62.45 77.53 75.02 76.29 87.52 74.50 C 86.11 58.39 93.64 41.56 107.47 32.87 C 110.79 30.39 115.69 31.55 118.27 34.56 C 120.07 36.93 120.32 40.04 120.31 42.92 C 119.86 44.65 119.47 46.40 119.10 48.15 L 118.87 48.79 C 117.98 52.84 116.64 56.87 113.97 60.12 C 112.60 59.27 111.25 58.39 109.94 57.46 C 106.15 60.25 101.91 62.41 98.32 65.48 C 97.69 69.27 98.76 73.20 101.71 75.76 C 110.25 75.39 116.06 68.16 121.24 62.23 C 127.16 55.01 132.43 47.10 135.23 38.11 C 135.99 34.98 138.35 32.74 141.07 31.21 C 143.00 32.98 144.84 35.05 145.16 37.78 C 146.55 48.27 145.53 58.92 143.74 69.31 C 147.21 67.82 149.34 64.55 151.91 61.95 C 157.91 54.89 164.86 48.24 167.95 39.27 C 162.45 39.20 156.95 39.24 151.44 39.19 C 151.36 38.51 151.27 37.82 151.19 37.13 C 153.65 36.10 155.75 34.47 157.94 32.98 C 161.67 32.41 165.50 32.90 169.27 32.81 C 171.35 27.54 173.36 22.12 176.97 17.66 C 177.96 17.63 178.94 17.59 179.94 17.55 C 181.31 15.06 182.76 12.62 184.14 10.13 M 98.52 57.10 C 98.86 57.46 99.56 58.18 99.91 58.54 C 103.37 56.79 107.25 55.72 110.30 53.26 C 109.25 48.47 110.14 43.57 109.40 38.75 C 102.14 41.71 100.60 50.42 98.52 57.10 Z" />
</g>
<g id="#ff5000ff">
<path fill="#ff5000" opacity="1.00" d=" M 202.97 33.96 C 208.44 26.05 213.26 17.70 218.97 9.96 C 219.54 10.03 220.68 10.17 221.25 10.24 C 221.32 15.06 221.24 19.91 221.95 24.70 C 223.84 37.88 225.93 51.10 229.87 63.86 C 237.47 56.16 243.05 46.46 245.81 35.99 C 246.85 36.45 247.89 36.92 248.92 37.42 C 251.80 35.69 254.71 33.98 257.53 32.15 C 258.36 35.02 258.93 38.14 258.03 41.06 C 257.12 44.40 254.44 46.79 252.85 49.78 C 250.03 54.96 247.63 60.43 246.43 66.23 C 252.55 61.46 257.51 55.40 262.73 49.70 C 265.70 46.64 265.84 42.19 267.37 38.44 C 271.01 34.80 276.79 34.58 281.65 34.32 C 280.68 39.08 278.95 43.64 277.09 48.11 C 274.69 53.93 272.78 59.94 270.22 65.70 C 270.62 65.63 271.43 65.49 271.83 65.43 C 276.76 55.72 283.53 46.91 291.76 39.76 C 294.98 36.81 298.19 33.55 302.54 32.34 C 302.83 35.22 302.82 38.12 302.57 41.00 C 299.77 46.65 296.06 53.72 288.85 53.94 C 288.21 52.35 287.59 50.76 287.01 49.16 C 282.10 54.20 276.83 59.33 274.46 66.14 C 272.63 71.44 270.23 76.75 265.97 80.55 C 265.31 78.43 264.44 76.28 264.71 74.00 C 265.21 67.22 266.32 60.49 266.59 53.69 C 258.16 61.59 250.15 69.92 242.02 78.13 C 240.85 79.52 238.99 79.63 237.35 80.02 C 237.37 72.31 237.32 64.49 239.82 57.09 C 235.66 63.05 230.94 69.18 230.08 76.64 C 226.23 78.40 222.11 75.84 219.82 72.77 C 219.28 66.45 220.76 59.40 216.30 54.06 C 204.65 61.65 193.82 70.37 182.77 78.77 C 181.23 80.15 179.24 80.61 177.23 80.68 C 177.50 78.46 178.11 76.28 179.35 74.40 C 182.65 69.02 186.20 63.81 189.61 58.50 C 191.53 55.70 193.35 52.82 195.15 49.93 C 196.74 47.31 198.44 44.76 200.08 42.17 C 198.70 38.96 201.44 36.50 202.97 33.96 M 193.32 61.62 C 200.54 57.75 208.00 54.33 215.46 50.94 C 215.60 46.64 215.52 42.32 215.14 38.04 C 214.68 35.88 214.44 33.68 214.15 31.50 C 206.25 40.83 200.02 51.43 193.32 61.62 Z" />
<path fill="#ff5000" opacity="1.00" d=" M 248.10 26.93 C 251.90 18.91 259.49 13.06 268.09 11.06 C 267.11 13.29 265.98 15.45 264.86 17.61 C 264.57 19.78 265.02 22.44 263.23 24.08 C 260.18 27.07 255.86 28.01 251.94 29.30 C 251.47 29.28 250.53 29.25 250.06 29.23 C 249.57 28.66 248.59 27.51 248.10 26.93 Z" />
</g>
</svg>
