<svg xmlns="http://www.w3.org/2000/svg" viewBox="0 0 804.91 238.23"><defs><style>.cls-1{fill:#006db6;}.cls-2{fill:#fff;}.cls-3{fill:#00324b;}</style></defs><title>zeusch-logo-dark</title><g id="Layer_2" data-name="Layer 2"><g id="Layer_1-2" data-name="Layer 1"><path class="cls-1" d="M149.42,209.12c54.89-46.53,48.11-67.91,48.42-68.85,0-25.89-2.19-82.43-3.2-115.28a12.55,12.55,0,0,0-8.9-11.44A285.82,285.82,0,0,0,88.21.26Q99-.19,109.76.22a285.78,285.78,0,0,0-97.54,13.3A12.55,12.55,0,0,0,3.32,25C2.32,57.8.12,114.34.12,140.23c.31.94-6.47,21.32,48.42,67.84,10.9,9,19.62,15.74,26.52,20.71a41.11,41.11,0,0,0,48.33-.07C130.15,223.75,138.69,218.09,149.42,209.12Z"/><path class="cls-1" d="M149.42,209.12c54.89-46.53,48.11-67.91,48.42-68.85,0-25.89-2.19-82.43-3.2-115.28a12.55,12.55,0,0,0-8.9-11.44A285.82,285.82,0,0,0,88.21.26Q99-.19,109.76.22a285.78,285.78,0,0,0-97.54,13.3A12.55,12.55,0,0,0,3.32,25C2.32,57.8.12,114.34.12,140.23c.31.94-6.47,21.32,48.42,67.84,10.9,9,19.62,15.74,26.52,20.71a41.11,41.11,0,0,0,48.33-.07C130.15,223.75,138.69,218.09,149.42,209.12Z"/><path class="cls-2" d="M154.86,75.09a57.37,57.37,0,0,1-17.32,70.47,60.11,60.11,0,0,1-72.48-.11l-.19.15L16.32,156.76l-1.84-6L68.23,110l8,10.19a33.16,33.16,0,0,0,45,4.69A31.75,31.75,0,0,0,127,79.82l-8.18-10.37L177.3,25.1l4.44,1.9ZM99.78,115A16.3,16.3,0,1,0,85.36,96.76,16.46,16.46,0,0,0,99.78,115Z"/><path class="cls-3" d="M708.49,188.43c1.74.28,3.5.43,5.2.85,6,1.51,9.62,5.94,9.56,12.18a65.17,65.17,0,0,1-1,9.13c-.71,4.6-1.37,9.22-2.39,13.75-1.08,4.8-3.51,8.86-7.92,11.4a20.53,20.53,0,0,1-12.7,2.33,21.54,21.54,0,0,1-5.73-1.33c-4.93-2-7.31-6-7.37-11.09a63.88,63.88,0,0,1,1-10.08c.67-4.5,1.32-9,2.36-13.43,1.21-5.15,4-9.32,8.92-11.72a19.22,19.22,0,0,1,6.71-1.77c.63-.06,1.25-.15,1.88-.23Zm-16.13,35.13.22,0c0,.53,0,1.06,0,1.59.3,3.06,1.56,5.48,4.58,6.66a11.86,11.86,0,0,0,16.06-7.37,12.4,12.4,0,0,0,.56-1.93c.73-4.24,1.48-8.47,2.12-12.72a52.36,52.36,0,0,0,.79-7.56c0-4.14-2-6.77-5.53-7.66a14.79,14.79,0,0,0-7.64.09c-4.25,1.17-6.62,4.24-7.7,8.26-.87,3.25-1.34,6.62-1.89,10C693.36,216.44,692.88,220,692.36,223.56Zm61.23-23.64c.12.27.26.53.37.8l3.37,8.68,10.15,26.13c.66,1.69.86,1.83,2.63,1.83H773c1.39,0,1.73-.27,2-1.68q1.42-8.83,2.81-17.66Q779.87,204.49,782,191c.16-1-.21-1.48-1.23-1.55s-1.91,0-2.86,0c-1.72,0-2,.26-2.3,1.93q-2.38,15.16-4.75,30.32c-.22,1.42-.47,2.84-.71,4.26a64.69,64.69,0,0,1-2.7-6.29l-11-28.52c-.58-1.49-.85-1.69-2.41-1.7-1.24,0-2.47,0-3.71,0s-1.67.38-1.86,1.58c-.45,2.79-.87,5.58-1.31,8.36q-2.16,13.75-4.33,27.49c-.45,2.86-.93,5.71-1.36,8.57-.24,1.59.11,2,1.72,2,.88,0,1.77,0,2.65,0,1.3,0,1.72-.37,1.91-1.62q2.46-15.74,4.92-31.47c.23-1.44.48-2.89.72-4.33Zm-306.23,27.9h-2.87c-5.26,0-10.52,0-15.78,0a1.32,1.32,0,0,0-1.44.88c-1.1,2.44-2.29,4.84-3.41,7.28a2.13,2.13,0,0,1-2.23,1.41c-1.09,0-2.19,0-3.28,0-1.43,0-1.77-.56-1.13-1.87q3.23-6.55,6.48-13.08c5.16-10.43,10.34-20.84,15.46-31.29a2.66,2.66,0,0,1,2.88-1.76c1.09.08,2.19,0,3.28,0s1.63.37,1.85,1.59q2.35,13.06,4.7,26.12,1.63,9.05,3.28,18.11c.32,1.76,0,2.16-1.79,2.16H450.8c-1.49,0-1.87-.34-2.1-1.78q-.54-3.39-1.1-6.79C447.55,228.49,447.45,228.19,447.35,227.82Zm-4.82-30.62-.28,0-11.8,24.91h16.11ZM582,227.82H570.54c-2.4,0-4.8,0-7.2,0a1.38,1.38,0,0,0-1.52.93c-1.08,2.41-2.27,4.77-3.37,7.18a2.18,2.18,0,0,1-2.3,1.46c-1.06-.05-2.12,0-3.18,0-1.5,0-1.83-.55-1.16-1.91q4.17-8.44,8.36-16.87c4.54-9.16,9.09-18.32,13.58-27.5a2.61,2.61,0,0,1,2.8-1.72c1.12.08,2.26,0,3.39,0a1.62,1.62,0,0,1,1.8,1.54q1.8,10.1,3.63,20.19,2.17,12,4.34,24c.33,1.84,0,2.21-1.82,2.22h-2.44c-1.56,0-1.92-.32-2.16-1.83q-.54-3.39-1.1-6.79C582.13,228.47,582,228.2,582,227.82Zm-.81-5.72-4-24.9-.27,0L565,222.1Zm-97.26,6c-.32-2-.66-4-1-6q-2.45-15.58-4.89-31.15a1.57,1.57,0,0,0-1.69-1.52h-2.86c-1.93,0-2.21.38-1.88,2.29q1.77,10.49,3.5,21,1.92,11.59,3.83,23.18a1.6,1.6,0,0,0,1.78,1.54,31.62,31.62,0,0,1,3.39,0,2.73,2.73,0,0,0,3-1.88c5.2-10.92,10.46-21.82,15.7-32.72q2.8-5.82,5.58-11.64c.58-1.22.3-1.7-1.05-1.76-.92,0-1.84,0-2.75,0a2.68,2.68,0,0,0-3,1.82c-4,8.6-8.09,17.16-12.16,25.74q-2.65,5.59-5.31,11.17Zm135.25-32.5q-1.3,8.15-2.61,16.3-1.91,12-3.8,23.94c-.15,1,.25,1.5,1.24,1.53,1.2,0,2.4,0,3.6,0a1.45,1.45,0,0,0,1.58-1.37c.15-1,.31-2,.48-3,2-12.26,3.92-24.52,5.83-36.79.15-1,.52-1.18,1.41-1.17,3.46,0,6.92,0,10.39,0,.87,0,1.57-.22,1.76-1.15s.34-2.09.46-3.14a1,1,0,0,0-1-1.3,11.42,11.42,0,0,0-1.16,0H609.19c-.35,0-.71,0-1.06,0a1.4,1.4,0,0,0-1.44,1.28c-.14.83-.31,1.67-.42,2.51-.19,1.46.1,1.79,1.55,1.81h11.33A4.65,4.65,0,0,1,619.14,195.58Zm-92.48,41.78c1.7,0,2-.29,2.28-1.94.28-1.85.57-3.69.86-5.54l4.36-27.59c.58-3.69,1.18-7.38,1.75-11.08.22-1.39-.15-1.79-1.58-1.83-.92,0-1.84,0-2.75,0-1.6,0-1.92.34-2.17,1.95q-2.06,13.12-4.14,26.23c-.94,6-1.89,11.91-2.82,17.87-.24,1.53.13,1.92,1.67,1.93h2.54Zm131.83,0c1.9,0,2.17-.25,2.45-2.11s.56-3.55.84-5.33q2.06-13.07,4.12-26.13c.66-4.18,1.34-8.36,2-12.54.22-1.4-.13-1.83-1.53-1.87-1,0-2,0-3,0-1.4,0-1.77.39-2,1.8s-.46,3.07-.71,4.6q-3.13,19.75-6.26,39.5c-.27,1.69.08,2.07,1.83,2.07h2.23ZM449.31,61.52c-5.6.08-6.95,1.1-7.82,5.94l-10,55.06c-1.11,6.28-2.49,12.53-2.09,19,.84,13.26,9.09,22.4,23.64,26a69.39,69.39,0,0,0,25.66,1.1c12.18-1.55,22.17-6.48,28.88-15.91A47.92,47.92,0,0,0,515.42,133L527.3,66.9c.65-4.08-.58-5.23-5.22-5.35-4-.1-7.92,0-11.88,0-8.9,0-9.5.51-10.85,8.14L488.78,128A41.7,41.7,0,0,1,485,139.82c-3.5,6.62-12.5,9.42-20.25,6.89-3.13-1-5.37-2.51-6.85-6.16a21.17,21.17,0,0,1,.21-8.12L469.65,67c.68-4.26-.53-5.34-5.49-5.46-2.54-.06-5.09,0-7.64,0S451.72,61.49,449.31,61.52ZM572.61,169c13.76-1.6,25.1-6.81,32.12-17.8,5.28-8.27,6.2-17.29,4.62-26.51-1.43-8.32-6.78-14.26-15.56-17.35-5.21-1.83-23.71-5.6-27.26-6.76-5-1.64-6.74-5-5.57-9.61,1.39-5.48,6.44-9.06,13.56-9.53,6.5-.39,16.18,2.11,25,7.29l6.53,4.2,10.32-20.09-5.18-4.32a38.74,38.74,0,0,0-9.44-5.27,68.2,68.2,0,0,0-40.3-1.58C545.68,65.67,536,75.08,533,89.45c-.81,4-1.57,7.86-1.25,11.94.7,8.92,6.32,16.11,15.76,19.67,5.28,2,11,3.11,16.53,4.55,4.06,1.05,8.22,1.81,12.21,3,3.54,1.08,5.36,3.53,5.36,6.92,0,6.53-4.2,11-11.54,11.81-9.69,1.12-17-.59-26.56-5.36a89,89,0,0,1-13.19-11.1l-10.48,20.41c2.64,4.64,10,9.38,13.14,11.2,8.72,4.11,13.42,5.43,23.18,6.46A96.24,96.24,0,0,0,572.61,169ZM434.83,61.5H358.7c-5.1,0-6.57,1.16-7.42,5.51l-17,95c-.74,4.24.52,5.53,5.28,5.64l67.06,0c3.95,0,5.6-1.12,6.32-4.32l2.41-12.92c.42-2.77-1-4.15-4.28-4.42l-45.57,0,3.83-21.2,37.88-.07c3.37-.31,4.92-1.35,5.54-4.27l2.11-12.58c.39-3.26-.8-4.31-4.45-4.55l-37.27,0,3.47-20h48.49ZM258,66.46l0-.11C258.1,66,258.1,66,258,66.46Zm72.22-4.69-66.2,0c-3.83.26-5.31,1.3-6,4.56-.29,1.7-2.23,12.68-2.23,12.68-.48,2.87.87,4.15,4.18,4.41l39,.06-54.43,58.23c-2,2-3.63,4.16-4.11,6.84L238,162.72c-.52,3.29.81,4.69,4.49,4.92h84.06v-3.4l-1.93-18.09H301.44L275.81,146l55-57.65a21.13,21.13,0,0,0,5-11l1.4-8.38C338.38,62.65,337.55,61.77,330.23,61.77ZM680.7,140.25a51.74,51.74,0,0,1-6.15,4c-6.21,3.33-9.76,4.2-15.91,3.64-6.7-.61-10.5-4.12-11-10.06a31.7,31.7,0,0,1,.4-8.54c1.46-9.14,3.18-18.24,4.82-27.35.74-4.08,1.72-8.1,4.05-11.75,3.26-5.08,8.16-7.75,14.81-8s13.39,2.41,19.37,9.1l13-19.81a35.26,35.26,0,0,0-17.85-9.93c-10.9-2.65-19.57-2-30.38.71-11.18,2.85-19.14,9.18-24.19,18.43A51.92,51.92,0,0,0,626.38,94c-2.34,10.52-4.18,21.13-5.94,31.74a86.1,86.1,0,0,0-1.55,16c.29,12.37,8.44,21.78,21.65,26,5.8,1.85,16.54,2,16.54,2s9.32.2,13.58-.64a58.63,58.63,0,0,0,25-11.65Zm78.92,21.43c-.63,4.1.57,5.17,5.31,5.22h16.13c4.28-.05,5.84-1.24,6.59-4.94l16.91-94.24c1-5.93,0-6.93-6.62-7H784.37c-5.6.05-6.91,1-7.8,5.94L770,102.13h-31.9l6.11-35.33c.82-4.67-.4-6-5.69-6H726.23c-8.71,0-9.33.55-10.67,8.32l-16.43,92.42c-.71,4,.53,5.35,5,5.41h16.13c4.67,0,6.24-1.25,7-5.44L734,124.3h32Z"/><path class="cls-2" d="M99,15a271.53,271.53,0,0,1,80.66,12.33c.25,8.09.57,17.51.88,26.65,1,31.21,2.24,66.59,2.26,85.79a18.13,18.13,0,0,0,.08,2.37c0,.5.28,5.11-5.1,14.26-7,11.82-19.77,25.69-38.08,41.21-7.64,6.39-14.13,11-19.85,15.09-1.8,1.29-3.67,2.61-5.38,3.87a25.67,25.67,0,0,1-15.28,5,26.24,26.24,0,0,1-15.42-5c-7.48-5.39-16.13-12.14-25.67-20.06C14,159.13,15,142.86,15,142.2a17.82,17.82,0,0,0,.09-2.43c0-19.23,1.21-54.54,2.25-85.7V54c.35-10.4.64-19.08.88-26.64a272.94,272.94,0,0,1,67.52-12l3-.08c3.38-.14,6.82-.2,10.24-.2m0-4c-3.48,0-7,.07-10.4.21l-3,.08A276.16,276.16,0,0,0,15.59,24a1.68,1.68,0,0,0-1.28,1.3c-.25,8.3-.58,18.11-.93,28.55-1.05,31.27-2.24,66.71-2.26,86a13.88,13.88,0,0,1-.07,2c-.29,3.1.48,20.47,44.51,57.79,9.65,8,18.37,14.81,25.92,20.25a30.22,30.22,0,0,0,17.76,5.74,29.64,29.64,0,0,0,17.64-5.76c1.67-1.22,3.44-2.49,5.34-3.84,5.78-4.12,12.33-8.79,20.09-15.28,44.14-37.41,44.9-55.63,44.6-58.9a14.18,14.18,0,0,1-.07-1.94c0-19.24-1.21-54.65-2.26-86-.35-10.45-.68-20.26-.94-28.56a1.69,1.69,0,0,0-1.28-1.3A275.36,275.36,0,0,0,99,11Z"/></g></g></svg>