<?xml version="1.0" encoding="utf-8"?>
<!-- Generator: Adobe Illustrator 12.0.0, SVG Export Plug-In  -->
<!DOCTYPE svg PUBLIC "-//W3C//DTD SVG 1.1//EN" "http://www.w3.org/Graphics/SVG/1.1/DTD/svg11.dtd" [
	<!ENTITY ns_flows "http://ns.adobe.com/Flows/1.0/">
	<!ENTITY ns_svg "http://www.w3.org/2000/svg">
	<!ENTITY ns_xlink "http://www.w3.org/1999/xlink">
]>
<svg  version="1.1" xmlns="&ns_svg;" xmlns:xlink="&ns_xlink;" xmlns:a="http://ns.adobe.com/AdobeSVGViewerExtensions/3.0/"
	 width="120" height="61" viewBox="-0.4326172 -0.9394531 120 61" enable-background="new -0.4326172 -0.9394531 120 61"
	 xml:space="preserve">
<defs>
</defs>
<rect fill="#00A2E3" width="119.3798828" height="59.0878906"/>
<path fill="#FFFFFF" d="M93.9931641,14.2700195c3.4482422,0.8896484,5.0742188,6.1420898,3.6328125,11.7363281
	c-1.4414063,5.59375-5.4091797,9.4018555-8.8603516,8.5053711c-3.4482422-0.8828125-5.0751953-6.1425781-3.6298828-11.7294922
	C86.5771484,17.1879883,90.5410156,13.3730469,93.9931641,14.2700195z M86.3173828,9.9995117
	c-0.9472656-2.7045898-3.5195313-4.6474609-6.5517578-4.6474609c-3.5693359,0-6.5048828,2.6972656-6.8896484,6.1635742
	L66.887207,48.2412109c-0.0283203,0.2412109-0.0424805,0.4980469-0.0424805,0.7539063
	c0,3.8359375,3.1064453,6.9326172,6.9355469,6.9326172c3.5898438,0,6.5439453-2.7265625,6.8964844-6.2275391L82.7480469,37.03125
	h-0.0039063c0.9433594,1.1035156,2.0498047,2.078125,3.3203125,2.8828125
	c7.8076172,4.9677734,18.7285156,1.7646484,24.3974609-7.1464844c5.6650391-8.9179688,3.9248047-20.1557617-3.8789063-25.1240234
	c-6.1914063-3.9355469-14.3378906-2.7397461-20.2695313,2.3632813L86.3173828,9.9995117z"/>
<path fill="#FFFFFF" d="M51.7705078,11.515625c0.3842773-3.4663086,3.3237305-6.1635742,6.8930664-6.1635742
	c3.8325195,0,6.9321289,3.0961914,6.9321289,6.9321289c0,0.2421875-0.0141602,0.4770508-0.0322266,0.7045898l-3.7895508,23.0961914
	c-0.3525391,3.5009766-3.3061523,6.234375-6.8969727,6.234375c-3.8286133,0-6.9355469-3.1035156-6.9355469-6.9394531
	c0-0.2558594,0.0141602-0.5126953,0.0429688-0.7753906v0.0214844L51.7705078,11.515625z"/>
<path fill="#FFFFFF" d="M25.8818359,15.8212891H15.0317383c-2.8896484,0-5.2314453-2.3344727-5.2314453-5.230957
	c0-2.8896484,2.3417969-5.2241211,5.2314453-5.2241211l26.262207-0.0141602c2.8896484,0,5.230957,2.3344727,5.230957,5.2167969
	c0,1.6513672-0.7578125,3.1103516-1.9394531,4.0712891L24.597168,31.828125H36.90625
	c2.8862305,0,5.230957,2.3417969,5.230957,5.2314453s-2.3447266,5.2314453-5.230957,5.2314453H9.1884766
	c-2.8896484,0-5.2314453-2.3417969-5.2314453-5.2314453c0-1.4443359,0.5834961-2.7539063,1.5336914-3.6933594v-0.0078125
	L25.8818359,15.8212891"/>
</svg>
