<?xml version="1.0"?>
<svg width="485" height="114" xmlns="http://www.w3.org/2000/svg">
<g fill-rule="evenodd" transform="matrix(1.0013565,0,0,1.0013565,-5.63975e-6,0.19955457)">
 <path fill="#272726" d="m 400.233,44.117 h 0.209 c 18.489,0 35.296,-0.746 35.296,-20.765 0,-20.018 -19.85,-19.396 -35.296,-18.595 l -0.21,39.36 z m 84.11,46.896 v 3.931 l -25.406,-0.189 c -28.297,-11.966 -19.518,-40.16 -49.6,-45.094 -4.195,-0.69 -8.875,-0.605 -8.875,-0.605 0,0 0.002,6.45 0.002,19.154 0,18.498 1.769,22.428 16.528,22.428 v 3.93 h -46.034 v -3.93 c 15.02,0 14.674,-4.994 14.674,-22.69 0,-28.84 -0.017,-35.608 -0.017,-46.06 0,-13.605 -0.053,-16.725 -13.903,-16.725 v -3.87 c 23.219,-0.905 46.213,-2.401 61.22,0.99 13.928,3.143 20.45,13.762 20.45,21.89 0,9.488 -4.237,20.076 -28.888,23.247 20.136,2.556 31.365,26.508 41.989,36.156 6.662,6.05 12.405,7.438 17.86,7.438 z M 279.218,52.788 c 0,0 -1.849,-3.698 -4.234,-8.66 -2.383,-4.965 -12.704,-26.45 -12.704,-26.45 0,0 -10.327,21.478 -12.702,26.447 a 710.12,710.12 0 0 1 -4.213,8.663 z m 40.86,-51.496 h 41.962 v 3.951 c -11.645,0 -13.519,0.098 -13.519,19.002 0,20.181 -0.058,34.97 -0.058,48.474 0,15.122 0.89,17.927 13.577,17.927 l 0.01,3.931 h -78.935 v -3.93 c 11.739,0 11.175,-6.017 9.798,-9.13 -0.799,-1.808 -4.887,-10.283 -7.464,-15.7 a 1675.98,1675.98 0 0 1 -3.832,-8.09 h -38.623 c 0,0 -1.461,3.182 -4.057,8.596 -2.599,5.413 -4.483,9.34 -5.91,12.718 -3.221,7.631 1.466,11.605 13.439,11.605 v 3.931 h -36.214 v -3.93 c 11.481,0 12.968,-3.987 17.543,-13.204 C 231.412,70.16 264.962,0 264.962,0 h 4.803 c 0,0 34.521,71.701 38.188,79.163 3.67,7.464 6.019,11.558 12.983,11.558 7.093,0 12.694,0.013 12.694,-18.079 0,-16.16 0.009,-38.428 0.009,-48.316 0,-17.55 -1.066,-19.157 -13.561,-19.157 z M 176.705,44.087 c 18.44,0.368 34.192,-0.529 34.192,-19.829 0,-19.299 -19.629,-20.357 -34.192,-19.206 z m -28.9,-42.795 c 42.649,-1.858 55.976,-1.312 66.855,3.828 10.88,5.141 12.232,14.805 12.232,19.786 0,4.985 -2.6,14.533 -10.115,18.744 -6.41,3.587 -13.678,5.712 -40.072,5.222 0,0 0.022,16.132 0.022,25.137 0,14.717 0.858,16.64 14.71,16.64 v 3.928 h -43.644 v -3.929 c 13.372,0 14.073,-2.04 14.073,-17.845 l -0.002,-50.824 c 0,-16.049 0.243,-16.804 -14.06,-16.804 V 1.292 Z" />
 <path fill="#008c6e" d="m 212.313,113.447 h 270.233 v -9.545 H 212.313 Z" />
 <path fill="#272726" d="M 138.778,94.58 H 96.812 v -3.933 c 12.499,0 13.568,-1.649 13.568,-19.66 V 24.65 C 110.38,6.637 109.23,5.17 96.813,5.17 V 1.291 h 41.97 V 5.17 c -12.65,0 -13.568,1.468 -13.568,19.481 v 46.337 c 0,18.011 1.238,19.654 13.569,19.654 V 94.58 Z M 2.843,24.983 H 8.481 C 16.466,9.9 24.523,5.992 29.846,5.992 H 67.305 L 0,90.18 1.961,94.579 H 80.158 L 92.24,67.449 h -5.711 c -8.9,16.85 -17.058,21.334 -23.422,21.334 L 21.802,88.782 87.815,5.67 85.873,1.316 H 13.378 Z" />
</g>
</svg>