<svg xmlns="http://www.w3.org/2000/svg" width="500" height="117.181" viewBox="0 0 500 117.181">
  <defs>
    <style>
      .a {
        fill: #1a1a1a;
      }

      .b {
        fill: #009877;
      }
    </style>
  </defs>
  <g>
    <path class="a" d="M500,94.007v4.059l-26.244-.2C444.531,85.507,453.6,56.39,422.523,51.293a59.609,59.609,0,0,0-9.166-.627s0,6.664,0,19.785c0,19.105,1.826,23.164,17.073,23.164v4.059H382.883V93.615c15.516,0,15.159-5.155,15.159-23.433,0-29.788-.02-36.78-.02-47.576,0-14.052-.054-17.274-14.361-17.274V1.337C407.643.4,431.394-1.141,446.9,2.355c14.385,3.246,21.122,14.219,21.122,22.611,0,9.8-4.377,20.735-29.837,24.011,20.8,2.644,32.4,27.379,43.37,37.348C488.43,92.572,494.364,94.007,500,94.007ZM413.122,45.569h.215c19.1,0,36.457-.774,36.457-21.445s-20.5-20.036-36.457-19.208Z"/>
    <path class="a" d="M330.332,1.332h43.341V5.415c-12.03,0-13.964.1-13.964,19.629,0,20.843-.059,36.119-.059,50.069,0,15.618.921,18.517,14.028,18.517l.01,4.059H292.151V93.63c12.123,0,11.541-6.213,10.121-9.435-.828-1.865-5.048-10.62-7.712-16.216s-3.956-8.358-3.956-8.358H250.71s-1.508,3.29-4.191,8.882-4.632,9.645-6.106,13.136c-3.329,7.883,1.513,11.986,13.876,11.986v4.059h-37.4V93.625c11.859,0,13.4-4.122,18.121-13.636C238.749,72.469,273.4,0,273.4,0h4.96S314.013,74.06,317.8,81.771s6.218,11.937,13.405,11.937c7.325,0,13.112.015,13.112-18.674,0-16.691,0-39.688,0-49.9,0-18.126-1.1-19.785-14.008-19.785V1.332Zm-42.21,53.192s-1.91-3.819-4.372-8.945-13.127-27.316-13.127-27.316-10.669,22.185-13.117,27.316-4.353,8.945-4.353,8.945Z"/>
    <path class="a" d="M152.384,1.337C196.44-.583,210.2-.02,221.44,5.288s12.633,15.291,12.633,20.437-2.683,15.011-10.449,19.359c-6.619,3.707-14.125,5.9-41.387,5.4,0,0,.024,16.662.024,25.964,0,15.2.886,17.186,15.193,17.186v4.059H152.375V93.63c13.812,0,14.532-2.1,14.532-18.434V22.7c0-16.574.249-17.357-14.523-17.357v-4Zm29.857,44.2c19.047.382,35.317-.549,35.317-20.481S197.283,4.03,182.241,5.214Z"/>
    <rect class="b" x="219.017" y="107.32" width="279.123" height="9.861"/>
    <path class="a" d="M2.708,25.705H8.563c8.216-15.511,16.29-19.32,21.764-19.32H68.86L0,93.189l2.007,4.5H82.516l12.6-28.3h-5.88C80.082,86.722,71.3,91.73,64.752,91.73H21.945L90.325,5.64,88.4,1.361H13.543Z"/>
    <path class="a" d="M143.062,97.689H99.716V93.63c12.911,0,14.013-1.7,14.013-20.309V25.46c0-18.6-1.19-20.123-14.013-20.123v-4h43.351V5.337c-13.063,0-14.013,1.518-14.013,20.123V73.321c0,18.605,1.278,20.3,14.013,20.3v.01l0,4.059Z"/>
  </g>
</svg>
